//Event file generated from Sappy .s format.
	#include "MPlayDef.event"

	#define	SlayAndFall_grp  voicegroup000
	#define	SlayAndFall_pri  0
	#define	SlayAndFall_rev  0
	#define	SlayAndFall_mvl  127
	#define	SlayAndFall_key  0
	#define	SlayAndFall_tbs  1
	#define	SlayAndFall_exg  0
	#define	SlayAndFall_cmp  1

	// .rodata
	//	SlayAndFall
	ALIGN 4


//**************** Track 1 (Midi-Chn.0) ****************//

SlayAndFall_001:
//  #01 //000   ----------------------------------------
 BYTE   KEYSH   SlayAndFall_key+0
 BYTE   TEMPO   172*SlayAndFall_tbs/2
 BYTE   VOICE   18
 BYTE   VOL   30*SlayAndFall_mvl/mxv
 BYTE   PAN   c_v-62
 BYTE   W96
//  #01 //001   ----------------------------------------
 BYTE   W96
//  #01 //002   ----------------------------------------
 BYTE   W96
//  #01 //003   ----------------------------------------
 BYTE   W84
Label_0158946A:
 BYTE   W12
//  #01 //004   ----------------------------------------
 BYTE   W96
//  #01 //005   ----------------------------------------
 BYTE   W96
//  #01 //006   ----------------------------------------
 BYTE   W96
//  #01 //007   ----------------------------------------
 BYTE   W96
//  #01 //008   ----------------------------------------
 BYTE   W96
//  #01 //009   ----------------------------------------
 BYTE   W96
//  #01 //010   ----------------------------------------
 BYTE   W96
//  #01 //011   ----------------------------------------
 BYTE   W96
//  #01 //012   ----------------------------------------
 BYTE   W96
//  #01 //013   ----------------------------------------
 BYTE   W96
//  #01 //014   ----------------------------------------
 BYTE   W96
//  #01 //015   ----------------------------------------
 BYTE   W96
//  #01 //016   ----------------------------------------
 BYTE   W96
//  #01 //017   ----------------------------------------
 BYTE   W96
//  #01 //018   ----------------------------------------
 BYTE   W96
//  #01 //019   ----------------------------------------
 BYTE   W96
//  #01 //020   ----------------------------------------
 BYTE   W96
//  #01 //021   ----------------------------------------
 BYTE   W96
//  #01 //022   ----------------------------------------
 BYTE   W96
//  #01 //023   ----------------------------------------
 BYTE   W96
//  #01 //024   ----------------------------------------
 BYTE   W96
//  #01 //025   ----------------------------------------
 BYTE   W96
//  #01 //026   ----------------------------------------
 BYTE   W96
//  #01 //027   ----------------------------------------
 BYTE   W96
//  #01 //028   ----------------------------------------
 BYTE   W96
//  #01 //029   ----------------------------------------
 BYTE   W96
//  #01 //030   ----------------------------------------
 BYTE   W96
//  #01 //031   ----------------------------------------
 BYTE   W96
//  #01 //032   ----------------------------------------
 BYTE   W96
//  #01 //033   ----------------------------------------
 BYTE   W96
//  #01 //034   ----------------------------------------
 BYTE   W96
//  #01 //035   ----------------------------------------
 BYTE   W96
//  #01 //036   ----------------------------------------
Label_0158948B:
 BYTE   W12
 BYTE   TIE  Cn3  v060
 BYTE   W12
 BYTE   En3  v052
 BYTE   W12
 BYTE   Bn3
 BYTE   W60
 BYTE   PEND 
//  #01 //037   ----------------------------------------
 BYTE   W72
 BYTE   EOT
 BYTE   Cn3
 BYTE   W02
 BYTE   Bn3
 BYTE   W01
 BYTE   En3
 BYTE   W21
//  #01 //038   ----------------------------------------
Label_0158949E:
 BYTE   W12
 BYTE   TIE  Cn3  v056
 BYTE   W12
 BYTE   En3  v052
 BYTE   W12
 BYTE   Bn3
 BYTE   W60
 BYTE   PEND 
//  #01 //039   ----------------------------------------
 BYTE   W68
 BYTE   W01
 BYTE   EOT
 BYTE   Cn3
 BYTE   W02
 BYTE   En3  v071
 BYTE   W24
 BYTE   W01
//  #01 //040   ----------------------------------------
Label_015894B2:
 BYTE   W12
 BYTE   TIE  Dn3  v060
 BYTE   W12
 BYTE   Gn3  v052
 BYTE   W12
 BYTE   Bn3
 BYTE   W60
 BYTE   PEND 
//  #01 //041   ----------------------------------------
 BYTE   W72
 BYTE   EOT
 BYTE   Dn3
 BYTE   W02
 BYTE   Bn3
 BYTE   W01
 BYTE   Gn3
 BYTE   W21
//  #01 //042   ----------------------------------------
Label_015894C5:
 BYTE   W12
 BYTE   TIE  Dn3  v056
 BYTE   W12
 BYTE   Gn3  v052
 BYTE   W12
 BYTE   Bn3
 BYTE   W60
 BYTE   PEND 
//  #01 //043   ----------------------------------------
 BYTE   W68
 BYTE   W01
 BYTE   EOT
 BYTE   Dn3
 BYTE   W02
 BYTE   Gn3  v071
 BYTE   W24
 BYTE   W01
//  #01 //044   ----------------------------------------
 BYTE   PATT
  POIN2 Label_0158948B
//  #01 //045   ----------------------------------------
 BYTE   W72
 BYTE   EOT
 BYTE   Cn3
 BYTE   W02
 BYTE   Bn3
 BYTE   W01
 BYTE   En3
 BYTE   W21
//  #01 //046   ----------------------------------------
 BYTE   PATT
  POIN2 Label_0158949E
//  #01 //047   ----------------------------------------
 BYTE   W68
 BYTE   W01
 BYTE   EOT
 BYTE   Cn3
 BYTE   W02
 BYTE   En3  v071
 BYTE   W24
 BYTE   W01
//  #01 //048   ----------------------------------------
 BYTE   PATT
  POIN2 Label_015894B2
//  #01 //049   ----------------------------------------
 BYTE   W72
 BYTE   EOT
 BYTE   Dn3
 BYTE   W02
 BYTE   Bn3
 BYTE   W01
 BYTE   Gn3
 BYTE   W21
//  #01 //050   ----------------------------------------
 BYTE   PATT
  POIN2 Label_015894C5
//  #01 //051   ----------------------------------------
 BYTE   W68
 BYTE   W01
 BYTE   EOT
 BYTE   Dn3
 BYTE   W02
 BYTE   Gn3  v071
 BYTE   W24
 BYTE   W01
//  #01 //052   ----------------------------------------
 BYTE   N44  An2  v056
 BYTE   N44  Ds3
 BYTE   W48
 BYTE   N32
 BYTE   N32  An3
 BYTE   W36
 BYTE   N17  En3  v052
 BYTE   N16  Gn3
 BYTE   W12
//  #01 //053   ----------------------------------------
 BYTE   W12
 BYTE   N08  En3  v056
 BYTE   N07  Gn3  v060
 BYTE   W24
 BYTE   N02  Dn3  v040
 BYTE   N05  Fs3  v052
 BYTE   W24
 BYTE   N14  Gn2
 BYTE   W12
 BYTE   N08  An2
 BYTE   W12
 BYTE   N02  Bn2
 BYTE   W12
//  #01 //054   ----------------------------------------
 BYTE   N44  Cn3  v056
 BYTE   N44  En3
 BYTE   W48
 BYTE   N28  Dn3
 BYTE   N28  Fs3
 BYTE   W36
 BYTE   N16  Bn2  v048
 BYTE   N18  En3  v052
 BYTE   W12
//  #01 //055   ----------------------------------------
 BYTE   W12
 BYTE   N08  Bn2  v056
 BYTE   N07  En3  v060
 BYTE   W24
 BYTE   N02  Bn2  v040
 BYTE   N05  Dn3  v052
 BYTE   W24
 BYTE   N11  Bn2  v048
 BYTE   W12
 BYTE   N08  An2
 BYTE   W12
 BYTE   N02  Gn2
 BYTE   W12
//  #01 //056   ----------------------------------------
 BYTE   N40  Cn3  v056
 BYTE   N40  Gn3
 BYTE   W48
 BYTE   N28  Gn2
 BYTE   N28  En3
 BYTE   W36
 BYTE   N23  Bn2
 BYTE   N23  Fs3
 BYTE   W12
//  #01 //057   ----------------------------------------
 BYTE   W12
 BYTE   N05  Bn2
 BYTE   W12
 BYTE   Fs3
 BYTE   W12
 BYTE   N23  Bn2
 BYTE   N23  En3
 BYTE   W24
 BYTE   N11  Dn3  v060
 BYTE   W12
 BYTE   Gn3
 BYTE   W12
 BYTE   An3
 BYTE   W12
//  #01 //058   ----------------------------------------
Label_01589585:
 BYTE   N05  Cn3  v060
 BYTE   N04  Gn3  v068
 BYTE   W12
 BYTE   N06  Cn3  v036
 BYTE   N06  Gn3  v060
 BYTE   N03  Cn4  v056
 BYTE   W06
 BYTE   N03
 BYTE   W06
 BYTE   Cn3  v048
 BYTE   N02  Gn3  v040
 BYTE   N03  Dn4  v056
 BYTE   W06
 BYTE   N03
 BYTE   W06
 BYTE   N05  Cn3  v060
 BYTE   N04  Gn3  v068
 BYTE   N03  Cn4  v056
 BYTE   W06
 BYTE   N03
 BYTE   W06
 BYTE   N06  Cn3  v036
 BYTE   N06  Gn3  v060
 BYTE   N03  Gn4  v056
 BYTE   W06
 BYTE   N03
 BYTE   W06
 BYTE   N04  Cn3  v052
 BYTE   N03  Gn3  v040
 BYTE   N03  Dn4  v056
 BYTE   W06
 BYTE   N03
 BYTE   W06
 BYTE   N05  Cn3  v044
 BYTE   N06  Gn3  v048
 BYTE   N03  Cn4  v056
 BYTE   W06
 BYTE   N03
 BYTE   W06
 BYTE   N02  Cn3  v036
 BYTE   N02  Gn3  v044
 BYTE   W12
 BYTE   PEND 
//  #01 //059   ----------------------------------------
 BYTE   PATT
  POIN2 Label_01589585
//  #01 //060   ----------------------------------------
 BYTE   N05  Cn3  v060
 BYTE   N04  Gn3  v068
 BYTE   W12
 BYTE   N06  Cn3  v036
 BYTE   N06  Gn3  v060
 BYTE   N03  Cn4  v056
 BYTE   W06
 BYTE   N03
 BYTE   W06
 BYTE   Cn3  v048
 BYTE   N02  Gn3  v040
 BYTE   N03  Dn4  v056
 BYTE   W06
 BYTE   N03
 BYTE   W06
 BYTE   N05  Cn3  v060
 BYTE   N04  Gn3  v068
 BYTE   N03  Cn4  v056
 BYTE   W06
 BYTE   N03
 BYTE   W06
 BYTE   N06  Cn3  v036
 BYTE   N06  Gn3  v060
 BYTE   N03  Gn4  v056
 BYTE   W06
 BYTE   N03
 BYTE   W06
 BYTE   N04  Cn3  v052
 BYTE   N03  Gn3  v040
 BYTE   N03  Dn4  v056
 BYTE   W06
 BYTE   N03
 BYTE   W06
 BYTE   N05  Cn3  v044
 BYTE   N06  Gn3  v048
 BYTE   N03  Cn4  v056
 BYTE   W06
 BYTE   N03
 BYTE   W06
 BYTE   N02  Cn3  v036
 BYTE   N02  Gn3  v044
 BYTE   N03  Gn4  v020
 BYTE   W06
 BYTE   N03
 BYTE   W06
//  #01 //061   ----------------------------------------
 BYTE   N06  Cn3  v004
 BYTE   N06  Gn3  v024
 BYTE   N03  Dn4  v020
 BYTE   W06
 BYTE   N03
 BYTE   W06
 BYTE   N04  Cn3
 BYTE   N03  Gn3  v008
 BYTE   N03  Cn4  v020
 BYTE   W06
 BYTE   N03
 BYTE   W78
//  #01 //062   ----------------------------------------
 BYTE   W96
//  #01 //063   ----------------------------------------
 BYTE   W96
//  #01 //064   ----------------------------------------
 BYTE   W96
//  #01 //065   ----------------------------------------
 BYTE   W96
//  #01 //066   ----------------------------------------
 BYTE   W96
//  #01 //067   ----------------------------------------
 BYTE   W84
 BYTE   GoTo
  POIN2 Label_0158946A
//  #01 //068   ----------------------------------------
 BYTE   W12
 BYTE   W04
 BYTE   FINE

//**************** Track 2 (Midi-Chn.1) ****************//

SlayAndFall_002:
//  #02 //000   ----------------------------------------
 BYTE   KEYSH   SlayAndFall_key+0
 BYTE   VOICE   124
 BYTE   VOL   27*SlayAndFall_mvl/mxv
 BYTE   PAN   c_v+0
 BYTE   N04  Cn1  v127
 BYTE   N04  Dn2
 BYTE   W12
 BYTE   Cs2  v052
 BYTE   W12
 BYTE   Cn1  v127
 BYTE   N04  Dn2
 BYTE   W12
 BYTE   Cs2  v060
 BYTE   W12
 BYTE   Cn1  v127
 BYTE   N04  Dn2
 BYTE   W12
 BYTE   Cs2  v060
 BYTE   W12
 BYTE   Cn1  v127
 BYTE   N04  Dn2
 BYTE   W12
 BYTE   Cs2  v060
 BYTE   W12
//  #02 //001   ----------------------------------------
 BYTE   Cn1  v127
 BYTE   N04  Dn2
 BYTE   W12
 BYTE   Cs2  v052
 BYTE   W12
 BYTE   Cn1  v127
 BYTE   N04  Dn2
 BYTE   W12
 BYTE   Cs2  v044
 BYTE   W12
 BYTE   Cn1  v127
 BYTE   N04  Dn2
 BYTE   W12
 BYTE   Cs2  v048
 BYTE   W06
 BYTE   Cs2  v092
 BYTE   W06
 BYTE   Cn1  v127
 BYTE   N04  Dn2
 BYTE   W06
 BYTE   Cs2  v104
 BYTE   W06
 BYTE   N02  En1  v127
 BYTE   W12
//  #02 //002   ----------------------------------------
 BYTE   N04  Cn1
 BYTE   W24
 BYTE   N04
 BYTE   N04  Dn2
 BYTE   W12
 BYTE   Cs2  v060
 BYTE   W12
 BYTE   Cn1  v127
 BYTE   N04  Dn2
 BYTE   W12
 BYTE   Cs2  v060
 BYTE   W12
 BYTE   Cn1  v127
 BYTE   N04  Dn1
 BYTE   N04  Dn2
 BYTE   W12
 BYTE   Cs2  v060
 BYTE   W12
//  #02 //003   ----------------------------------------
 BYTE   N03  En1  v127
 BYTE   W04
 BYTE   N06
 BYTE   W08
 BYTE   Cn1  v120
 BYTE   W12
 BYTE   Cn1  v127
 BYTE   W11
 BYTE   An2
 BYTE   W03
 BYTE   Bn2
 BYTE   W10
 BYTE   Cn1
 BYTE   W11
 BYTE   N06
 BYTE   W11
 BYTE   N02  An2
 BYTE   W03
 BYTE   N06
 BYTE   W10
 BYTE   Cn1
 BYTE   W01
Label_015896F7:
 BYTE   W12
//  #02 //004   ----------------------------------------
Label_015896F8:
 BYTE   N06  Cn1  v127
 BYTE   N92  Ds2
 BYTE   W12
 BYTE   N06  Cn1
 BYTE   W12
 BYTE   En1
 BYTE   N06  Dn2
 BYTE   W13
 BYTE   Dn2  v076
 BYTE   W04
 BYTE   En1  v068
 BYTE   W06
 BYTE   Cn1  v084
 BYTE   W01
 BYTE   Dn2  v127
 BYTE   W06
 BYTE   En1  v072
 BYTE   W05
 BYTE   Cn1  v127
 BYTE   W13
 BYTE   En1
 BYTE   N06  Dn2
 BYTE   W11
 BYTE   Cn1
 BYTE   W01
 BYTE   Dn2  v088
 BYTE   W06
 BYTE   En1  v064
 BYTE   W06
 BYTE   PEND 
//  #02 //005   ----------------------------------------
Label_01589724:
 BYTE   N06  Cn1  v127
 BYTE   N11  Dn2
 BYTE   W12
 BYTE   N06  En1  v052
 BYTE   W11
 BYTE   En1  v127
 BYTE   W01
 BYTE   N16  Dn2
 BYTE   W16
 BYTE   N06  En1  v064
 BYTE   W07
 BYTE   Cn1
 BYTE   N07  Dn2  v127
 BYTE   W07
 BYTE   N06  En1  v072
 BYTE   W05
 BYTE   Cn1  v127
 BYTE   W12
 BYTE   En1
 BYTE   W01
 BYTE   N11  Dn2
 BYTE   W11
 BYTE   N06  Cn1
 BYTE   W05
 BYTE   N07  En1  v068
 BYTE   W08
 BYTE   PEND 
//  #02 //006   ----------------------------------------
Label_01589751:
 BYTE   N06  Cn1  v127
 BYTE   N11  Dn2
 BYTE   W12
 BYTE   N06  Cn1
 BYTE   W12
 BYTE   En1
 BYTE   N06  Dn2
 BYTE   W13
 BYTE   Dn2  v076
 BYTE   W04
 BYTE   En1  v068
 BYTE   W06
 BYTE   Cn1  v084
 BYTE   W01
 BYTE   Dn2  v127
 BYTE   W06
 BYTE   En1  v072
 BYTE   W05
 BYTE   Cn1  v127
 BYTE   W13
 BYTE   En1
 BYTE   N06  Dn2
 BYTE   W11
 BYTE   Cn1
 BYTE   W01
 BYTE   Dn2  v088
 BYTE   W06
 BYTE   En1  v064
 BYTE   W06
 BYTE   PEND 
//  #02 //007   ----------------------------------------
 BYTE   PATT
  POIN2 Label_01589724
//  #02 //008   ----------------------------------------
 BYTE   PATT
  POIN2 Label_01589751
//  #02 //009   ----------------------------------------
 BYTE   PATT
  POIN2 Label_01589724
//  #02 //010   ----------------------------------------
 BYTE   PATT
  POIN2 Label_01589751
//  #02 //011   ----------------------------------------
Label_01589791:
 BYTE   N06  Cn1  v127
 BYTE   N11  Dn2
 BYTE   W12
 BYTE   N06  En1  v052
 BYTE   W11
 BYTE   En1  v127
 BYTE   W01
 BYTE   N16  Dn2
 BYTE   W16
 BYTE   N06  En1  v064
 BYTE   W07
 BYTE   Cn1
 BYTE   N07  Dn2  v127
 BYTE   W07
 BYTE   N06  En1  v072
 BYTE   W05
 BYTE   Cn1  v127
 BYTE   W12
 BYTE   En1
 BYTE   W01
 BYTE   N11  Dn2
 BYTE   W11
 BYTE   N06  En1
 BYTE   W13
 BYTE   PEND 
//  #02 //012   ----------------------------------------
 BYTE   PATT
  POIN2 Label_015896F8
//  #02 //013   ----------------------------------------
 BYTE   PATT
  POIN2 Label_01589724
//  #02 //014   ----------------------------------------
 BYTE   PATT
  POIN2 Label_01589751
//  #02 //015   ----------------------------------------
 BYTE   PATT
  POIN2 Label_01589724
//  #02 //016   ----------------------------------------
 BYTE   PATT
  POIN2 Label_01589751
//  #02 //017   ----------------------------------------
 BYTE   PATT
  POIN2 Label_01589724
//  #02 //018   ----------------------------------------
Label_015897D8:
 BYTE   N06  Cn1  v127
 BYTE   N11  Dn2
 BYTE   W12
 BYTE   N06  Cn1
 BYTE   W12
 BYTE   En1
 BYTE   N11  Dn2
 BYTE   W12
 BYTE   N06  Dn2  v076
 BYTE   W06
 BYTE   En1  v068
 BYTE   W06
 BYTE   Cn1  v084
 BYTE   N06  Dn2  v127
 BYTE   W06
 BYTE   En1  v072
 BYTE   W06
 BYTE   Cn1  v127
 BYTE   W12
 BYTE   En1
 BYTE   N11  Dn2
 BYTE   W12
 BYTE   N06  Cn1
 BYTE   N06  Dn2  v088
 BYTE   W06
 BYTE   En1  v064
 BYTE   W06
 BYTE   PEND 
//  #02 //019   ----------------------------------------
Label_01589806:
 BYTE   N06  Cn1  v127
 BYTE   N11  Dn2
 BYTE   W12
 BYTE   N06  En1  v052
 BYTE   W12
 BYTE   En1  v127
 BYTE   N17  Dn2
 BYTE   W18
 BYTE   N06  En1  v064
 BYTE   W06
 BYTE   N02  En1  v127
 BYTE   W06
 BYTE   N03
 BYTE   W06
 BYTE   Bn2
 BYTE   W06
 BYTE   En1  v068
 BYTE   W06
 BYTE   En1  v127
 BYTE   W06
 BYTE   En1  v100
 BYTE   W06
 BYTE   N02  An2  v127
 BYTE   W06
 BYTE   N03  En1
 BYTE   W06
 BYTE   PEND 
//  #02 //020   ----------------------------------------
 BYTE   PATT
  POIN2 Label_015896F8
//  #02 //021   ----------------------------------------
 BYTE   PATT
  POIN2 Label_01589724
//  #02 //022   ----------------------------------------
 BYTE   PATT
  POIN2 Label_01589751
//  #02 //023   ----------------------------------------
 BYTE   PATT
  POIN2 Label_01589724
//  #02 //024   ----------------------------------------
 BYTE   PATT
  POIN2 Label_01589751
//  #02 //025   ----------------------------------------
 BYTE   PATT
  POIN2 Label_01589724
//  #02 //026   ----------------------------------------
 BYTE   PATT
  POIN2 Label_01589751
//  #02 //027   ----------------------------------------
 BYTE   PATT
  POIN2 Label_01589791
//  #02 //028   ----------------------------------------
 BYTE   PATT
  POIN2 Label_015896F8
//  #02 //029   ----------------------------------------
 BYTE   PATT
  POIN2 Label_01589724
//  #02 //030   ----------------------------------------
 BYTE   PATT
  POIN2 Label_01589751
//  #02 //031   ----------------------------------------
 BYTE   PATT
  POIN2 Label_01589724
//  #02 //032   ----------------------------------------
 BYTE   PATT
  POIN2 Label_01589751
//  #02 //033   ----------------------------------------
 BYTE   PATT
  POIN2 Label_01589724
//  #02 //034   ----------------------------------------
 BYTE   PATT
  POIN2 Label_015897D8
//  #02 //035   ----------------------------------------
 BYTE   PATT
  POIN2 Label_01589806
//  #02 //036   ----------------------------------------
Label_01589882:
 BYTE   N06  Cn1  v127
 BYTE   N92  Ds2
 BYTE   W24
 BYTE   N06  Dn2
 BYTE   W11
 BYTE   Cn1
 BYTE   W02
 BYTE   Cs2  v068
 BYTE   W11
 BYTE   Dn2  v127
 BYTE   W13
 BYTE   Cs2  v060
 BYTE   W11
 BYTE   En1  v127
 BYTE   W01
 BYTE   Dn2
 BYTE   W12
 BYTE   Cs2  v048
 BYTE   W11
 BYTE   PEND 
//  #02 //037   ----------------------------------------
Label_0158989F:
 BYTE   W01
 BYTE   N06  Dn2  v127
 BYTE   W12
 BYTE   Cs2  v060
 BYTE   W11
 BYTE   Dn2  v127
 BYTE   W12
 BYTE   Cn1  v104
 BYTE   N06  Cs2  v060
 BYTE   W12
 BYTE   Cn1  v127
 BYTE   W01
 BYTE   Dn2
 BYTE   W11
 BYTE   Cs2  v044
 BYTE   W12
 BYTE   En1  v127
 BYTE   N06  Dn2
 BYTE   W12
 BYTE   Cs2  v056
 BYTE   W12
 BYTE   PEND 
//  #02 //038   ----------------------------------------
 BYTE   W01
 BYTE   Cn1  v127
 BYTE   N06  Dn2
 BYTE   W11
 BYTE   Cs2  v056
 BYTE   W12
 BYTE   Dn2  v127
 BYTE   W12
 BYTE   Cn1
 BYTE   W01
 BYTE   Cs2  v052
 BYTE   W11
 BYTE   Dn2  v127
 BYTE   W12
 BYTE   Cs2  v068
 BYTE   W11
 BYTE   En1  v127
 BYTE   W01
 BYTE   Dn2
 BYTE   W12
 BYTE   En1  v060
 BYTE   N06  Cs2
 BYTE   W12
//  #02 //039   ----------------------------------------
 BYTE   Dn2  v127
 BYTE   W11
 BYTE   Cn1
 BYTE   W01
 BYTE   Cs2  v064
 BYTE   W12
 BYTE   Dn2  v127
 BYTE   W12
 BYTE   Cn1  v104
 BYTE   N06  Cs2  v060
 BYTE   W11
 BYTE   Cn1  v127
 BYTE   W01
 BYTE   Dn2
 BYTE   W12
 BYTE   Cs2  v044
 BYTE   W11
 BYTE   En1  v127
 BYTE   N06  Dn2
 BYTE   W13
 BYTE   En1  v060
 BYTE   N06  Cs2  v064
 BYTE   W12
//  #02 //040   ----------------------------------------
 BYTE   PATT
  POIN2 Label_01589882
//  #02 //041   ----------------------------------------
 BYTE   PATT
  POIN2 Label_0158989F
//  #02 //042   ----------------------------------------
 BYTE   W01
 BYTE   N06  Cn1  v127
 BYTE   N06  Dn2
 BYTE   W11
 BYTE   Cs2  v056
 BYTE   W12
 BYTE   Dn2  v127
 BYTE   W12
 BYTE   Cn1
 BYTE   W01
 BYTE   Cs2  v052
 BYTE   W11
 BYTE   Dn2  v127
 BYTE   W12
 BYTE   Cs2  v068
 BYTE   W11
 BYTE   En1  v127
 BYTE   W01
 BYTE   Dn2
 BYTE   W12
 BYTE   En1  v040
 BYTE   N06  Cs2  v060
 BYTE   W12
//  #02 //043   ----------------------------------------
 BYTE   Dn2  v127
 BYTE   W12
 BYTE   Cn1
 BYTE   N06  Cs2  v064
 BYTE   W12
 BYTE   Dn2  v127
 BYTE   W12
 BYTE   Cn1
 BYTE   N06  Cs2  v060
 BYTE   W12
 BYTE   N05  Dn2  v127
 BYTE   W06
 BYTE   Cs2  v108
 BYTE   W06
 BYTE   N06  Cn1  v127
 BYTE   N11  Fs2
 BYTE   W11
 BYTE   N06  En1
 BYTE   W01
 BYTE   Dn2
 BYTE   W12
 BYTE   En1  v052
 BYTE   N06  Fs2  v127
 BYTE   W12
//  #02 //044   ----------------------------------------
 BYTE   PATT
  POIN2 Label_01589882
//  #02 //045   ----------------------------------------
 BYTE   PATT
  POIN2 Label_0158989F
//  #02 //046   ----------------------------------------
 BYTE   W01
 BYTE   N06  Cn1  v127
 BYTE   N06  Dn2
 BYTE   W11
 BYTE   Cs2  v056
 BYTE   W12
 BYTE   Dn2  v127
 BYTE   W12
 BYTE   Cn1
 BYTE   W01
 BYTE   Cs2  v052
 BYTE   W11
 BYTE   Dn2  v127
 BYTE   W12
 BYTE   Cs2  v068
 BYTE   W11
 BYTE   En1  v127
 BYTE   W01
 BYTE   Dn2
 BYTE   W12
 BYTE   En1  v048
 BYTE   N06  Cs2  v060
 BYTE   W12
//  #02 //047   ----------------------------------------
 BYTE   Cn1  v120
 BYTE   N06  Dn2  v127
 BYTE   W11
 BYTE   Cn1
 BYTE   W01
 BYTE   Cs2  v064
 BYTE   W12
 BYTE   Dn2  v127
 BYTE   W12
 BYTE   Cs2  v060
 BYTE   W11
 BYTE   Cn1  v127
 BYTE   W01
 BYTE   Dn2
 BYTE   W12
 BYTE   Cs2  v044
 BYTE   W11
 BYTE   En1  v127
 BYTE   N06  Dn2
 BYTE   W13
 BYTE   En1  v060
 BYTE   N06  Cs2  v064
 BYTE   W12
//  #02 //048   ----------------------------------------
 BYTE   PATT
  POIN2 Label_01589882
//  #02 //049   ----------------------------------------
 BYTE   PATT
  POIN2 Label_0158989F
//  #02 //050   ----------------------------------------
 BYTE   W01
 BYTE   N06  Cn1  v127
 BYTE   N06  Dn2
 BYTE   W11
 BYTE   Cs2  v056
 BYTE   W12
 BYTE   Dn2  v127
 BYTE   W12
 BYTE   Cn1
 BYTE   W01
 BYTE   Cs2  v052
 BYTE   W11
 BYTE   Dn2  v127
 BYTE   W12
 BYTE   Cs2  v068
 BYTE   W11
 BYTE   En1  v127
 BYTE   W01
 BYTE   Dn2
 BYTE   W12
 BYTE   En1  v064
 BYTE   N06  Cs2  v060
 BYTE   W12
//  #02 //051   ----------------------------------------
 BYTE   Cn1  v120
 BYTE   N06  Dn2  v127
 BYTE   W11
 BYTE   Cn1
 BYTE   W01
 BYTE   Cs2  v064
 BYTE   W12
 BYTE   Dn2  v127
 BYTE   W12
 BYTE   Cn1  v104
 BYTE   N06  Cs2  v060
 BYTE   W11
 BYTE   Cn1  v127
 BYTE   W01
 BYTE   N02  En1
 BYTE   W06
 BYTE   N03
 BYTE   W06
 BYTE   Bn2
 BYTE   W06
 BYTE   En1  v068
 BYTE   W06
 BYTE   En1  v127
 BYTE   W06
 BYTE   En1  v100
 BYTE   W06
 BYTE   N02  An2  v127
 BYTE   W06
 BYTE   N03  En1
 BYTE   W06
//  #02 //052   ----------------------------------------
Label_01589A07:
 BYTE   N06  Cn1  v127
 BYTE   N92  Ds2
 BYTE   W24
 BYTE   N06  Cn1
 BYTE   N06  Dn2
 BYTE   W12
 BYTE   En1
 BYTE   N06  Cs2  v068
 BYTE   W24
 BYTE   Cn1  v127
 BYTE   N06  Cs2  v060
 BYTE   W12
 BYTE   En1  v127
 BYTE   N06  Dn2
 BYTE   W12
 BYTE   Cs2  v048
 BYTE   W12
 BYTE   PEND 
//  #02 //053   ----------------------------------------
Label_01589A26:
 BYTE   N06  Cn1  v127
 BYTE   N06  Dn2
 BYTE   W12
 BYTE   En1  v052
 BYTE   N06  Dn2
 BYTE   W12
 BYTE   En1  v127
 BYTE   N06  Dn2
 BYTE   W12
 BYTE   Dn2  v052
 BYTE   W06
 BYTE   En1  v064
 BYTE   W06
 BYTE   Cn1  v127
 BYTE   N06  Dn2
 BYTE   W12
 BYTE   Cn1
 BYTE   N06  Dn2  v052
 BYTE   W12
 BYTE   En1  v127
 BYTE   N11  Dn2
 BYTE   W12
 BYTE   N06  Dn2  v076
 BYTE   W06
 BYTE   En1  v068
 BYTE   W06
 BYTE   PEND 
//  #02 //054   ----------------------------------------
 BYTE   PATT
  POIN2 Label_01589A07
//  #02 //055   ----------------------------------------
 BYTE   PATT
  POIN2 Label_01589A26
//  #02 //056   ----------------------------------------
 BYTE   N06  Cn1  v127
 BYTE   N92  Ds2
 BYTE   W24
 BYTE   N06  Dn2
 BYTE   W11
 BYTE   Cn1
 BYTE   W02
 BYTE   Cs2  v068
 BYTE   W11
 BYTE   Dn2  v127
 BYTE   W13
 BYTE   Cs2  v060
 BYTE   W11
 BYTE   En1  v127
 BYTE   W01
 BYTE   Dn2
 BYTE   W11
 BYTE   Cn1
 BYTE   W01
 BYTE   Cs2  v048
 BYTE   W11
//  #02 //057   ----------------------------------------
 BYTE   W01
 BYTE   Dn2  v127
 BYTE   W11
 BYTE   Cn1
 BYTE   W01
 BYTE   Cs2  v060
 BYTE   W11
 BYTE   En1  v127
 BYTE   N06  Dn2
 BYTE   W12
 BYTE   Cn1
 BYTE   N06  Cs2  v060
 BYTE   W13
 BYTE   Dn2  v127
 BYTE   W11
 BYTE   Cn1
 BYTE   N06  Cs2  v044
 BYTE   W12
 BYTE   N05  En1  v127
 BYTE   W06
 BYTE   N05
 BYTE   W06
 BYTE   N05
 BYTE   W12
//  #02 //058   ----------------------------------------
 BYTE   N06
 BYTE   N92  Ds2
 BYTE   W12
 BYTE   N06  Cn1  v120
 BYTE   W12
 BYTE   Cn1  v127
 BYTE   W11
 BYTE   An2
 BYTE   W03
 BYTE   Bn2
 BYTE   W10
 BYTE   Cn1
 BYTE   W11
 BYTE   N06
 BYTE   W11
 BYTE   N02  An2
 BYTE   W03
 BYTE   N06
 BYTE   W10
 BYTE   Cn1
 BYTE   W13
//  #02 //059   ----------------------------------------
 BYTE   En1
 BYTE   W12
 BYTE   Cn1  v120
 BYTE   W12
 BYTE   Cn1  v127
 BYTE   W11
 BYTE   An2
 BYTE   W03
 BYTE   Bn2
 BYTE   W10
 BYTE   Cn1
 BYTE   W11
 BYTE   N06
 BYTE   W11
 BYTE   N02  An2
 BYTE   W03
 BYTE   N06
 BYTE   W10
 BYTE   Cn1
 BYTE   W13
//  #02 //060   ----------------------------------------
 BYTE   N06
 BYTE   N92  Ds2
 BYTE   W12
 BYTE   N06  Cn1
 BYTE   W12
 BYTE   En1
 BYTE   N06  Dn2
 BYTE   W12
 BYTE   Cn1
 BYTE   W01
 BYTE   Dn2  v076
 BYTE   W11
 BYTE   Dn2  v127
 BYTE   W12
 BYTE   Cn1  v112
 BYTE   W12
 BYTE   En1  v127
 BYTE   N06  Dn2
 BYTE   W11
 BYTE   Cn1
 BYTE   W01
 BYTE   Dn2  v088
 BYTE   W06
 BYTE   En1  v064
 BYTE   W06
//  #02 //061   ----------------------------------------
 BYTE   N01  En1  v127
 BYTE   N01  Cn2
 BYTE   W06
 BYTE   En1  v112
 BYTE   W06
 BYTE   Cn1  v127
 BYTE   W06
 BYTE   N01
 BYTE   W06
 BYTE   En1
 BYTE   N01  Cn2
 BYTE   W23
 BYTE   Dn1
 BYTE   W12
 BYTE   An3
 BYTE   W12
 BYTE   Gn3
 BYTE   W13
 BYTE   Cn1
 BYTE   N92  Ds2
 BYTE   W12
//  #02 //062   ----------------------------------------
Label_01589B0E:
 BYTE   W12
 BYTE   N06  Cn1  v127
 BYTE   W12
 BYTE   En1
 BYTE   N06  Dn2
 BYTE   W13
 BYTE   Dn2  v076
 BYTE   W04
 BYTE   En1  v068
 BYTE   W06
 BYTE   Cn1  v084
 BYTE   W01
 BYTE   Dn2  v127
 BYTE   W06
 BYTE   En1  v072
 BYTE   W05
 BYTE   Cn1  v127
 BYTE   W13
 BYTE   En1
 BYTE   N06  Dn2
 BYTE   W11
 BYTE   Cn1
 BYTE   W01
 BYTE   Dn2  v088
 BYTE   W06
 BYTE   En1  v064
 BYTE   W06
 BYTE   PEND 
//  #02 //063   ----------------------------------------
 BYTE   PATT
  POIN2 Label_01589724
//  #02 //064   ----------------------------------------
 BYTE   PATT
  POIN2 Label_01589B0E
//  #02 //065   ----------------------------------------
 BYTE   PATT
  POIN2 Label_01589724
//  #02 //066   ----------------------------------------
 BYTE   N03  En1  v127
 BYTE   W04
 BYTE   N06
 BYTE   W08
 BYTE   Cn1  v120
 BYTE   W12
 BYTE   Cn1  v127
 BYTE   W11
 BYTE   An2
 BYTE   W03
 BYTE   Bn2
 BYTE   W10
 BYTE   Cn1
 BYTE   W11
 BYTE   N06
 BYTE   W11
 BYTE   N02  An2
 BYTE   W03
 BYTE   N06
 BYTE   W10
 BYTE   Cn1
 BYTE   W13
//  #02 //067   ----------------------------------------
 BYTE   N06
 BYTE   N03  En1
 BYTE   W03
 BYTE   N03
 BYTE   W08
 BYTE   N03
 BYTE   W60
 BYTE   W01
 BYTE   Dn2
 BYTE   W05
 BYTE   N02  Cs2
 BYTE   W06
 BYTE   N03  En1
 BYTE   W01
 BYTE   GoTo
  POIN2 Label_015896F7
//  #02 //068   ----------------------------------------
 BYTE   W12
 BYTE   W04
 BYTE   FINE

//**************** Track 3 (Midi-Chn.2) ****************//

SlayAndFall_003:
//  #03 //000   ----------------------------------------
 BYTE   KEYSH   SlayAndFall_key+0
 BYTE   VOICE   30
 BYTE   VOL   40*SlayAndFall_mvl/mxv
 BYTE   PAN   c_v-61
 BYTE   N09  Bn3  v096
 BYTE   W12
 BYTE   N03  An3  v080
 BYTE   W12
 BYTE   N05  An3  v088
 BYTE   W12
 BYTE   N10  Bn3  v096
 BYTE   W24
 BYTE   N08  An3  v092
 BYTE   W24
 BYTE   N10  Bn3  v096
 BYTE   W12
//  #03 //001   ----------------------------------------
Label_017308C0:
 BYTE   W12
 BYTE   N07  An3  v092
 BYTE   W24
 BYTE   N08  Bn3
 BYTE   W24
 BYTE   N05
 BYTE   W12
 BYTE   An3  v100
 BYTE   W24
 BYTE   PEND 
//  #03 //002   ----------------------------------------
Label_017308CE:
 BYTE   N08  Bn3  v096
 BYTE   W12
 BYTE   N05  An3  v088
 BYTE   W12
 BYTE   An3  v084
 BYTE   W12
 BYTE   N08  Bn3  v096
 BYTE   W24
 BYTE   N09  An3  v100
 BYTE   W24
 BYTE   N08  Bn3  v092
 BYTE   W12
 BYTE   PEND 
//  #03 //003   ----------------------------------------
 BYTE   W12
 BYTE   N07  An3  v096
 BYTE   W24
 BYTE   N06  Bn3  v084
 BYTE   W24
 BYTE   N05  Bn3  v088
 BYTE   W12
 BYTE   N04  An3  v092
 BYTE   W12
Label_017308F7:
 BYTE   W12
//  #03 //004   ----------------------------------------
Label_017308F8:
 BYTE   N09  Bn3  v096
 BYTE   W12
 BYTE   N03  An3  v080
 BYTE   W12
 BYTE   N05  An3  v088
 BYTE   W12
 BYTE   N10  Bn3  v096
 BYTE   W24
 BYTE   N08  An3  v092
 BYTE   W24
 BYTE   N10  Bn3  v096
 BYTE   W12
 BYTE   PEND 
//  #03 //005   ----------------------------------------
 BYTE   PATT
  POIN2 Label_017308C0
//  #03 //006   ----------------------------------------
 BYTE   PATT
  POIN2 Label_017308CE
//  #03 //007   ----------------------------------------
Label_0173091B:
 BYTE   W12
 BYTE   N07  An3  v096
 BYTE   W24
 BYTE   N06  Bn3  v084
 BYTE   W24
 BYTE   N05  Bn3  v088
 BYTE   W12
 BYTE   N04  An3  v092
 BYTE   W24
 BYTE   PEND 
//  #03 //008   ----------------------------------------
 BYTE   PATT
  POIN2 Label_017308F8
//  #03 //009   ----------------------------------------
 BYTE   PATT
  POIN2 Label_017308C0
//  #03 //010   ----------------------------------------
 BYTE   PATT
  POIN2 Label_017308CE
//  #03 //011   ----------------------------------------
 BYTE   PATT
  POIN2 Label_0173091B
//  #03 //012   ----------------------------------------
 BYTE   PATT
  POIN2 Label_017308F8
//  #03 //013   ----------------------------------------
 BYTE   PATT
  POIN2 Label_017308C0
//  #03 //014   ----------------------------------------
 BYTE   PATT
  POIN2 Label_017308CE
//  #03 //015   ----------------------------------------
Label_01730950:
 BYTE   N09  Bn3  v096
 BYTE   W12
 BYTE   N03  An3  v080
 BYTE   W12
 BYTE   N05  An3  v088
 BYTE   W12
 BYTE   N06  Bn3  v096
 BYTE   W24
 BYTE   N08  An3  v092
 BYTE   N05  Bn3  v088
 BYTE   W12
 BYTE   N04  An3  v092
 BYTE   W12
 BYTE   N10  Bn3  v096
 BYTE   W12
 BYTE   PEND 
//  #03 //016   ----------------------------------------
 BYTE   PATT
  POIN2 Label_017308C0
//  #03 //017   ----------------------------------------
 BYTE   PATT
  POIN2 Label_017308CE
//  #03 //018   ----------------------------------------
 BYTE   PATT
  POIN2 Label_0173091B
//  #03 //019   ----------------------------------------
 BYTE   W96
//  #03 //020   ----------------------------------------
 BYTE   PATT
  POIN2 Label_017308F8
//  #03 //021   ----------------------------------------
 BYTE   PATT
  POIN2 Label_017308C0
//  #03 //022   ----------------------------------------
 BYTE   PATT
  POIN2 Label_017308CE
//  #03 //023   ----------------------------------------
 BYTE   PATT
  POIN2 Label_0173091B
//  #03 //024   ----------------------------------------
 BYTE   PATT
  POIN2 Label_017308F8
//  #03 //025   ----------------------------------------
 BYTE   PATT
  POIN2 Label_017308C0
//  #03 //026   ----------------------------------------
 BYTE   PATT
  POIN2 Label_017308CE
//  #03 //027   ----------------------------------------
 BYTE   PATT
  POIN2 Label_0173091B
//  #03 //028   ----------------------------------------
 BYTE   PATT
  POIN2 Label_017308F8
//  #03 //029   ----------------------------------------
 BYTE   PATT
  POIN2 Label_017308C0
//  #03 //030   ----------------------------------------
 BYTE   PATT
  POIN2 Label_017308CE
//  #03 //031   ----------------------------------------
 BYTE   PATT
  POIN2 Label_01730950
//  #03 //032   ----------------------------------------
 BYTE   PATT
  POIN2 Label_017308C0
//  #03 //033   ----------------------------------------
 BYTE   PATT
  POIN2 Label_017308CE
//  #03 //034   ----------------------------------------
 BYTE   PATT
  POIN2 Label_0173091B
//  #03 //035   ----------------------------------------
 BYTE   W96
//  #03 //036   ----------------------------------------
 BYTE   W96
//  #03 //037   ----------------------------------------
 BYTE   W96
//  #03 //038   ----------------------------------------
 BYTE   W96
//  #03 //039   ----------------------------------------
 BYTE   W96
//  #03 //040   ----------------------------------------
 BYTE   W96
//  #03 //041   ----------------------------------------
 BYTE   W96
//  #03 //042   ----------------------------------------
 BYTE   W96
//  #03 //043   ----------------------------------------
 BYTE   W96
//  #03 //044   ----------------------------------------
 BYTE   W96
//  #03 //045   ----------------------------------------
 BYTE   W96
//  #03 //046   ----------------------------------------
 BYTE   W96
//  #03 //047   ----------------------------------------
 BYTE   W96
//  #03 //048   ----------------------------------------
 BYTE   W96
//  #03 //049   ----------------------------------------
 BYTE   W96
//  #03 //050   ----------------------------------------
 BYTE   W96
//  #03 //051   ----------------------------------------
 BYTE   W96
//  #03 //052   ----------------------------------------
 BYTE   W96
//  #03 //053   ----------------------------------------
 BYTE   W96
//  #03 //054   ----------------------------------------
 BYTE   W96
//  #03 //055   ----------------------------------------
 BYTE   W96
//  #03 //056   ----------------------------------------
 BYTE   W96
//  #03 //057   ----------------------------------------
 BYTE   W96
//  #03 //058   ----------------------------------------
 BYTE   W96
//  #03 //059   ----------------------------------------
 BYTE   W96
//  #03 //060   ----------------------------------------
 BYTE   W96
//  #03 //061   ----------------------------------------
 BYTE   W96
//  #03 //062   ----------------------------------------
 BYTE   W96
//  #03 //063   ----------------------------------------
 BYTE   W96
//  #03 //064   ----------------------------------------
 BYTE   W96
//  #03 //065   ----------------------------------------
 BYTE   W96
//  #03 //066   ----------------------------------------
 BYTE   W96
//  #03 //067   ----------------------------------------
 BYTE   W84
 BYTE   GoTo
  POIN2 Label_017308F7
//  #03 //068   ----------------------------------------
 BYTE   W12
 BYTE   W04
 BYTE   FINE

//**************** Track 4 (Midi-Chn.3) ****************//

SlayAndFall_004:
//  #04 //000   ----------------------------------------
 BYTE   KEYSH   SlayAndFall_key+0
 BYTE   VOICE   28
 BYTE   VOL   30*SlayAndFall_mvl/mxv
 BYTE   PAN   c_v-63
 BYTE   N10  En3  v080
 BYTE   N10  Gn3  v084
 BYTE   W12
 BYTE   N06  Dn3  v068
 BYTE   N06  Fs3  v072
 BYTE   W12
 BYTE   N02  En2
 BYTE   N02  Bn2  v060
 BYTE   W12
 BYTE   N10  En3  v080
 BYTE   N11  Gn3  v076
 BYTE   W24
 BYTE   N08  Dn3
 BYTE   N10  Fs3  v084
 BYTE   W24
 BYTE   En3  v076
 BYTE   N08  Gn3  v080
 BYTE   W12
//  #04 //001   ----------------------------------------
Label_01589BBB:
 BYTE   W12
 BYTE   N07  Dn3  v076
 BYTE   N10  Fs3  v088
 BYTE   W24
 BYTE   N08  En3  v072
 BYTE   N10  Gn3  v076
 BYTE   W24
 BYTE   N05  En3
 BYTE   N05  Gn3  v068
 BYTE   W12
 BYTE   N07  Dn3  v080
 BYTE   N08  Fs3  v084
 BYTE   W12
 BYTE   N05  En2  v080
 BYTE   N05  Bn2  v076
 BYTE   W12
 BYTE   PEND 
//  #04 //002   ----------------------------------------
Label_01589BDF:
 BYTE   N10  En3  v080
 BYTE   N10  Gn3  v084
 BYTE   W12
 BYTE   N06  Dn3  v068
 BYTE   N06  Fs3  v072
 BYTE   W12
 BYTE   N02  En2
 BYTE   N02  Bn2  v060
 BYTE   W12
 BYTE   N10  En3  v080
 BYTE   N11  Gn3  v076
 BYTE   W24
 BYTE   N08  Dn3
 BYTE   N10  Fs3  v084
 BYTE   W24
 BYTE   En3  v076
 BYTE   N08  Gn3  v080
 BYTE   W12
 BYTE   PEND 
//  #04 //003   ----------------------------------------
 BYTE   W12
 BYTE   N07  Dn3  v076
 BYTE   N10  Fs3  v088
 BYTE   W24
 BYTE   N08  Fs3  v072
 BYTE   N10  An3  v076
 BYTE   W24
 BYTE   N05  En3
 BYTE   N05  Gn3  v068
 BYTE   W12
 BYTE   N07  Dn3  v080
 BYTE   N08  Fs3  v084
 BYTE   W12
Label_01589C23:
 BYTE   N05  En2  v080
 BYTE   N05  Bn2  v076
 BYTE   W12
//  #04 //004   ----------------------------------------
 BYTE   PATT
  POIN2 Label_01589BDF
//  #04 //005   ----------------------------------------
 BYTE   PATT
  POIN2 Label_01589BBB
//  #04 //006   ----------------------------------------
 BYTE   PATT
  POIN2 Label_01589BDF
//  #04 //007   ----------------------------------------
Label_01589C39:
 BYTE   W12
 BYTE   N07  Dn3  v076
 BYTE   N10  Fs3  v088
 BYTE   W24
 BYTE   N08  Fs3  v072
 BYTE   N10  An3  v076
 BYTE   W24
 BYTE   N05  En3
 BYTE   N05  Gn3  v068
 BYTE   W12
 BYTE   N07  Dn3  v080
 BYTE   N08  Fs3  v084
 BYTE   W12
 BYTE   N05  En2  v080
 BYTE   N05  Bn2  v076
 BYTE   W12
 BYTE   PEND 
//  #04 //008   ----------------------------------------
 BYTE   PATT
  POIN2 Label_01589BDF
//  #04 //009   ----------------------------------------
 BYTE   PATT
  POIN2 Label_01589BBB
//  #04 //010   ----------------------------------------
 BYTE   PATT
  POIN2 Label_01589BDF
//  #04 //011   ----------------------------------------
Label_01589C6C:
 BYTE   N10  En3  v080
 BYTE   N10  Gn3  v084
 BYTE   W12
 BYTE   N06  Dn3  v068
 BYTE   N06  Fs3  v072
 BYTE   W12
 BYTE   N02  En2
 BYTE   N02  Bn2  v060
 BYTE   W12
 BYTE   N10  En3  v080
 BYTE   N08  Fs3  v072
 BYTE   N11  Gn3  v076
 BYTE   N10  An3
 BYTE   W24
 BYTE   N08  Dn3
 BYTE   N05  En3
 BYTE   N10  Fs3  v084
 BYTE   N05  Gn3  v068
 BYTE   W12
 BYTE   N07  Dn3  v080
 BYTE   N08  Fs3  v084
 BYTE   W12
 BYTE   N05  En2  v080
 BYTE   N05  Bn2  v076
 BYTE   N10  En3
 BYTE   N08  Gn3  v080
 BYTE   W12
 BYTE   PEND 
//  #04 //012   ----------------------------------------
 BYTE   PATT
  POIN2 Label_01589BBB
//  #04 //013   ----------------------------------------
 BYTE   PATT
  POIN2 Label_01589BDF
//  #04 //014   ----------------------------------------
 BYTE   PATT
  POIN2 Label_01589C39
//  #04 //015   ----------------------------------------
 BYTE   PATT
  POIN2 Label_01589BDF
//  #04 //016   ----------------------------------------
 BYTE   PATT
  POIN2 Label_01589BBB
//  #04 //017   ----------------------------------------
 BYTE   PATT
  POIN2 Label_01589BDF
//  #04 //018   ----------------------------------------
 BYTE   PATT
  POIN2 Label_01589C39
//  #04 //019   ----------------------------------------
 BYTE   W96
//  #04 //020   ----------------------------------------
 BYTE   PATT
  POIN2 Label_01589BDF
//  #04 //021   ----------------------------------------
 BYTE   PATT
  POIN2 Label_01589BBB
//  #04 //022   ----------------------------------------
 BYTE   PATT
  POIN2 Label_01589BDF
//  #04 //023   ----------------------------------------
 BYTE   PATT
  POIN2 Label_01589C39
//  #04 //024   ----------------------------------------
 BYTE   PATT
  POIN2 Label_01589BDF
//  #04 //025   ----------------------------------------
 BYTE   PATT
  POIN2 Label_01589BBB
//  #04 //026   ----------------------------------------
 BYTE   PATT
  POIN2 Label_01589BDF
//  #04 //027   ----------------------------------------
 BYTE   PATT
  POIN2 Label_01589C6C
//  #04 //028   ----------------------------------------
 BYTE   PATT
  POIN2 Label_01589BBB
//  #04 //029   ----------------------------------------
 BYTE   PATT
  POIN2 Label_01589BDF
//  #04 //030   ----------------------------------------
 BYTE   PATT
  POIN2 Label_01589C39
//  #04 //031   ----------------------------------------
 BYTE   PATT
  POIN2 Label_01589BDF
//  #04 //032   ----------------------------------------
 BYTE   PATT
  POIN2 Label_01589BBB
//  #04 //033   ----------------------------------------
 BYTE   PATT
  POIN2 Label_01589BDF
//  #04 //034   ----------------------------------------
 BYTE   PATT
  POIN2 Label_01589C39
//  #04 //035   ----------------------------------------
 BYTE   W96
//  #04 //036   ----------------------------------------
 BYTE   W96
//  #04 //037   ----------------------------------------
 BYTE   W96
//  #04 //038   ----------------------------------------
 BYTE   W96
//  #04 //039   ----------------------------------------
 BYTE   W96
//  #04 //040   ----------------------------------------
 BYTE   W96
//  #04 //041   ----------------------------------------
 BYTE   W96
//  #04 //042   ----------------------------------------
 BYTE   W96
//  #04 //043   ----------------------------------------
 BYTE   W96
//  #04 //044   ----------------------------------------
 BYTE   W96
//  #04 //045   ----------------------------------------
 BYTE   W96
//  #04 //046   ----------------------------------------
 BYTE   W96
//  #04 //047   ----------------------------------------
 BYTE   W96
//  #04 //048   ----------------------------------------
 BYTE   W96
//  #04 //049   ----------------------------------------
 BYTE   W96
//  #04 //050   ----------------------------------------
 BYTE   W96
//  #04 //051   ----------------------------------------
 BYTE   W96
//  #04 //052   ----------------------------------------
 BYTE   W96
//  #04 //053   ----------------------------------------
 BYTE   W96
//  #04 //054   ----------------------------------------
 BYTE   W96
//  #04 //055   ----------------------------------------
 BYTE   W96
//  #04 //056   ----------------------------------------
 BYTE   W96
//  #04 //057   ----------------------------------------
 BYTE   W96
//  #04 //058   ----------------------------------------
 BYTE   W96
//  #04 //059   ----------------------------------------
 BYTE   W96
//  #04 //060   ----------------------------------------
 BYTE   W96
//  #04 //061   ----------------------------------------
 BYTE   W84
 BYTE   N22  Dn3  v080
 BYTE   N22  Gn3  v084
 BYTE   W12
//  #04 //062   ----------------------------------------
 BYTE   W12
 BYTE   N06  Dn3  v068
 BYTE   N06  Fs3  v072
 BYTE   W12
 BYTE   N02  Dn2
 BYTE   N02  An2  v060
 BYTE   W12
 BYTE   N10  Dn3  v080
 BYTE   N11  Gn3  v076
 BYTE   W24
 BYTE   N08  Dn3
 BYTE   N10  Fs3  v084
 BYTE   W24
 BYTE   Dn3  v076
 BYTE   N08  Gn3  v080
 BYTE   W12
//  #04 //063   ----------------------------------------
 BYTE   W12
 BYTE   N07  Dn3  v076
 BYTE   N10  Fs3  v088
 BYTE   W24
 BYTE   N08  Dn3  v072
 BYTE   N10  Gn3  v076
 BYTE   W24
 BYTE   N05  Dn3
 BYTE   N05  Gn3  v068
 BYTE   W12
 BYTE   N07  Dn3  v080
 BYTE   N08  Fs3  v084
 BYTE   W12
 BYTE   N05  Dn2  v080
 BYTE   N05  An2  v076
 BYTE   W12
//  #04 //064   ----------------------------------------
 BYTE   N10  En3  v080
 BYTE   N10  An3  v084
 BYTE   W12
 BYTE   N06  En3  v068
 BYTE   N06  Gs3  v072
 BYTE   W12
 BYTE   N02  En2
 BYTE   N02  Bn2  v060
 BYTE   W12
 BYTE   N10  En3  v080
 BYTE   N11  An3  v076
 BYTE   W24
 BYTE   N08  En3
 BYTE   N10  Gs3  v084
 BYTE   W24
 BYTE   En3  v076
 BYTE   N08  An3  v080
 BYTE   W12
//  #04 //065   ----------------------------------------
 BYTE   W12
 BYTE   N07  En3  v076
 BYTE   N10  Gs3  v088
 BYTE   W24
 BYTE   N08  En3  v072
 BYTE   N10  An3  v076
 BYTE   W24
 BYTE   N05  En3
 BYTE   N05  Gs3  v068
 BYTE   W12
 BYTE   N07  Dn3  v080
 BYTE   N08  Fs3  v084
 BYTE   W12
 BYTE   N05  En2  v080
 BYTE   N05  Bn2  v076
 BYTE   W12
//  #04 //066   ----------------------------------------
 BYTE   W96
//  #04 //067   ----------------------------------------
 BYTE   W84
 BYTE   GoTo
  POIN2 Label_01589C23
//  #04 //068   ----------------------------------------
 BYTE   W12
 BYTE   W04
 BYTE   FINE

//**************** Track 5 (Midi-Chn.4) ****************//

SlayAndFall_005:
//  #05 //000   ----------------------------------------
 BYTE   KEYSH   SlayAndFall_key+0
 BYTE   VOICE   38
 BYTE   VOL   39*SlayAndFall_mvl/mxv
 BYTE   PAN   c_v+0
 BYTE   N09  En0  v084
 BYTE   W12
 BYTE   N09
 BYTE   W12
 BYTE   N09
 BYTE   W12
 BYTE   En1
 BYTE   W12
 BYTE   En0  v048
 BYTE   W12
 BYTE   Bn0  v084
 BYTE   W12
 BYTE   En0  v048
 BYTE   W12
 BYTE   En1  v084
 BYTE   W12
//  #05 //001   ----------------------------------------
Label_01589E02:
 BYTE   N09  En0  v048
 BYTE   W12
 BYTE   Bn0  v084
 BYTE   W12
 BYTE   En0  v048
 BYTE   W12
 BYTE   En1  v084
 BYTE   W12
 BYTE   Bn0
 BYTE   W12
 BYTE   En0
 BYTE   W12
 BYTE   En1
 BYTE   W12
 BYTE   En0
 BYTE   W12
 BYTE   PEND 
//  #05 //002   ----------------------------------------
Label_01589E18:
 BYTE   N09  En0  v084
 BYTE   W12
 BYTE   N09
 BYTE   W12
 BYTE   N09
 BYTE   W12
 BYTE   En1
 BYTE   W12
 BYTE   En0  v048
 BYTE   W12
 BYTE   Bn0  v084
 BYTE   W24
 BYTE   En1
 BYTE   W12
 BYTE   PEND 
//  #05 //003   ----------------------------------------
 BYTE   En0  v048
 BYTE   W12
 BYTE   En0  v084
 BYTE   W12
 BYTE   En1
 BYTE   W12
 BYTE   En0
 BYTE   W12
 BYTE   En1
 BYTE   W12
 BYTE   Gn0
 BYTE   W12
 BYTE   Fs0
 BYTE   W12
Label_01589E3B:
 BYTE   N09  Dn1  v084
 BYTE   W12
//  #05 //004   ----------------------------------------
Label_01589E3F:
 BYTE   N09  Cn1  v084
 BYTE   W12
 BYTE   N09
 BYTE   W12
 BYTE   N09
 BYTE   W12
 BYTE   Cn2
 BYTE   W12
 BYTE   Cn1  v048
 BYTE   W12
 BYTE   Gn1  v084
 BYTE   W24
 BYTE   Cn2
 BYTE   W12
 BYTE   PEND 
//  #05 //005   ----------------------------------------
Label_01589E52:
 BYTE   N09  Cn1  v048
 BYTE   W12
 BYTE   Cn1  v084
 BYTE   W12
 BYTE   Cn2
 BYTE   W12
 BYTE   Cn1
 BYTE   W12
 BYTE   Gn1
 BYTE   W12
 BYTE   Cn1
 BYTE   W12
 BYTE   Cn2
 BYTE   W12
 BYTE   Cn1
 BYTE   W12
 BYTE   PEND 
//  #05 //006   ----------------------------------------
Label_01589E66:
 BYTE   N09  An0  v084
 BYTE   W12
 BYTE   N09
 BYTE   W12
 BYTE   N09
 BYTE   W12
 BYTE   An1
 BYTE   W12
 BYTE   An0  v048
 BYTE   W12
 BYTE   En1  v084
 BYTE   W12
 BYTE   An0  v048
 BYTE   W12
 BYTE   An1  v084
 BYTE   W12
 BYTE   PEND 
//  #05 //007   ----------------------------------------
Label_01589E7D:
 BYTE   N09  Bn0  v048
 BYTE   W12
 BYTE   Bn0  v084
 BYTE   W12
 BYTE   Fs1
 BYTE   W12
 BYTE   Bn0
 BYTE   W12
 BYTE   Bn1
 BYTE   W12
 BYTE   N11  Bn0  v048
 BYTE   W12
 BYTE   Bn0  v080
 BYTE   W12
 BYTE   Bn1
 BYTE   W12
 BYTE   PEND 
//  #05 //008   ----------------------------------------
Label_01589E94:
 BYTE   N09  En0  v084
 BYTE   W12
 BYTE   N09
 BYTE   W12
 BYTE   N09
 BYTE   W12
 BYTE   En1
 BYTE   W12
 BYTE   En0  v048
 BYTE   W12
 BYTE   Bn0  v084
 BYTE   W12
 BYTE   En0  v048
 BYTE   W12
 BYTE   En1  v084
 BYTE   W12
 BYTE   PEND 
//  #05 //009   ----------------------------------------
 BYTE   PATT
  POIN2 Label_01589E02
//  #05 //010   ----------------------------------------
 BYTE   PATT
  POIN2 Label_01589E18
//  #05 //011   ----------------------------------------
Label_01589EB5:
 BYTE   N09  En0  v048
 BYTE   W12
 BYTE   En0  v084
 BYTE   W12
 BYTE   En1
 BYTE   W12
 BYTE   En0
 BYTE   W12
 BYTE   En1
 BYTE   W12
 BYTE   En0
 BYTE   W12
 BYTE   En1
 BYTE   W12
 BYTE   En0
 BYTE   W12
 BYTE   PEND 
//  #05 //012   ----------------------------------------
 BYTE   PATT
  POIN2 Label_01589E3F
//  #05 //013   ----------------------------------------
 BYTE   PATT
  POIN2 Label_01589E52
//  #05 //014   ----------------------------------------
 BYTE   PATT
  POIN2 Label_01589E66
//  #05 //015   ----------------------------------------
 BYTE   PATT
  POIN2 Label_01589E7D
//  #05 //016   ----------------------------------------
 BYTE   PATT
  POIN2 Label_01589E94
//  #05 //017   ----------------------------------------
 BYTE   PATT
  POIN2 Label_01589E02
//  #05 //018   ----------------------------------------
 BYTE   PATT
  POIN2 Label_01589E18
//  #05 //019   ----------------------------------------
 BYTE   N09  En0  v048
 BYTE   W12
 BYTE   En0  v084
 BYTE   W12
 BYTE   En1
 BYTE   W12
 BYTE   En0
 BYTE   W12
 BYTE   En1
 BYTE   W12
 BYTE   Gn0
 BYTE   W12
 BYTE   Fs0
 BYTE   W12
 BYTE   Dn1
 BYTE   W12
//  #05 //020   ----------------------------------------
 BYTE   PATT
  POIN2 Label_01589E3F
//  #05 //021   ----------------------------------------
 BYTE   PATT
  POIN2 Label_01589E52
//  #05 //022   ----------------------------------------
 BYTE   PATT
  POIN2 Label_01589E66
//  #05 //023   ----------------------------------------
 BYTE   PATT
  POIN2 Label_01589E7D
//  #05 //024   ----------------------------------------
 BYTE   PATT
  POIN2 Label_01589E94
//  #05 //025   ----------------------------------------
 BYTE   PATT
  POIN2 Label_01589E02
//  #05 //026   ----------------------------------------
 BYTE   PATT
  POIN2 Label_01589E18
//  #05 //027   ----------------------------------------
 BYTE   PATT
  POIN2 Label_01589EB5
//  #05 //028   ----------------------------------------
 BYTE   PATT
  POIN2 Label_01589E3F
//  #05 //029   ----------------------------------------
 BYTE   PATT
  POIN2 Label_01589E52
//  #05 //030   ----------------------------------------
 BYTE   PATT
  POIN2 Label_01589E66
//  #05 //031   ----------------------------------------
 BYTE   PATT
  POIN2 Label_01589E7D
//  #05 //032   ----------------------------------------
 BYTE   PATT
  POIN2 Label_01589E94
//  #05 //033   ----------------------------------------
 BYTE   PATT
  POIN2 Label_01589E02
//  #05 //034   ----------------------------------------
 BYTE   PATT
  POIN2 Label_01589E18
//  #05 //035   ----------------------------------------
 BYTE   PATT
  POIN2 Label_01589EB5
//  #05 //036   ----------------------------------------
 BYTE   PATT
  POIN2 Label_01589E3F
//  #05 //037   ----------------------------------------
 BYTE   N09  Cn1  v048
 BYTE   W12
 BYTE   Cn1  v084
 BYTE   W12
 BYTE   Cn2
 BYTE   W12
 BYTE   Cn1
 BYTE   W12
 BYTE   Gn1  v048
 BYTE   W12
 BYTE   Cn1  v084
 BYTE   W12
 BYTE   Cn2
 BYTE   W12
 BYTE   Cn1
 BYTE   W12
//  #05 //038   ----------------------------------------
Label_01589F69:
 BYTE   N09  Cn1  v084
 BYTE   W12
 BYTE   N09
 BYTE   W12
 BYTE   N09
 BYTE   W12
 BYTE   Cn2
 BYTE   W12
 BYTE   Cn1  v048
 BYTE   W12
 BYTE   Gn1  v084
 BYTE   W12
 BYTE   Cn1  v048
 BYTE   W12
 BYTE   Cn2  v084
 BYTE   W12
 BYTE   PEND 
//  #05 //039   ----------------------------------------
Label_01589F80:
 BYTE   N09  Cn1  v048
 BYTE   W12
 BYTE   Cn1  v084
 BYTE   W12
 BYTE   Gn1
 BYTE   W12
 BYTE   Cn1
 BYTE   W12
 BYTE   Cn2
 BYTE   W12
 BYTE   N11  Cn1  v048
 BYTE   W12
 BYTE   Cn1  v080
 BYTE   W12
 BYTE   Cn2
 BYTE   W12
 BYTE   PEND 
//  #05 //040   ----------------------------------------
Label_01589F97:
 BYTE   N09  Gn0  v084
 BYTE   W12
 BYTE   N09
 BYTE   W12
 BYTE   N09
 BYTE   W12
 BYTE   Gn1
 BYTE   W12
 BYTE   Gn0  v048
 BYTE   W12
 BYTE   Dn1  v084
 BYTE   W12
 BYTE   Gn0  v048
 BYTE   W12
 BYTE   Gn1  v084
 BYTE   W12
 BYTE   PEND 
//  #05 //041   ----------------------------------------
Label_01589FAE:
 BYTE   N09  Gn0  v048
 BYTE   W12
 BYTE   Dn1  v084
 BYTE   W12
 BYTE   Gn0  v048
 BYTE   W12
 BYTE   Gn1  v084
 BYTE   W12
 BYTE   Dn1
 BYTE   W12
 BYTE   Gn0
 BYTE   W12
 BYTE   Gn1
 BYTE   W12
 BYTE   Gn0
 BYTE   W12
 BYTE   PEND 
//  #05 //042   ----------------------------------------
Label_01589FC4:
 BYTE   N09  Gn0  v084
 BYTE   W12
 BYTE   N09
 BYTE   W12
 BYTE   N09
 BYTE   W12
 BYTE   Gn1
 BYTE   W12
 BYTE   Gn0  v048
 BYTE   W12
 BYTE   Dn1  v084
 BYTE   W24
 BYTE   Gn1
 BYTE   W12
 BYTE   PEND 
//  #05 //043   ----------------------------------------
Label_01589FD7:
 BYTE   N11  Gn0  v084
 BYTE   W12
 BYTE   Gn1
 BYTE   W12
 BYTE   An0
 BYTE   W12
 BYTE   An1
 BYTE   W12
 BYTE   Bn0
 BYTE   W12
 BYTE   Bn1
 BYTE   W12
 BYTE   Gn0
 BYTE   W12
 BYTE   Gn1
 BYTE   W12
 BYTE   PEND 
//  #05 //044   ----------------------------------------
 BYTE   PATT
  POIN2 Label_01589E3F
//  #05 //045   ----------------------------------------
 BYTE   PATT
  POIN2 Label_01589E52
//  #05 //046   ----------------------------------------
 BYTE   PATT
  POIN2 Label_01589F69
//  #05 //047   ----------------------------------------
 BYTE   PATT
  POIN2 Label_01589F80
//  #05 //048   ----------------------------------------
 BYTE   PATT
  POIN2 Label_01589F97
//  #05 //049   ----------------------------------------
 BYTE   PATT
  POIN2 Label_01589FAE
//  #05 //050   ----------------------------------------
 BYTE   PATT
  POIN2 Label_01589FC4
//  #05 //051   ----------------------------------------
 BYTE   PATT
  POIN2 Label_01589FD7
//  #05 //052   ----------------------------------------
 BYTE   N09  Bn0  v084
 BYTE   W12
 BYTE   N09
 BYTE   W12
 BYTE   N09
 BYTE   W12
 BYTE   Bn1
 BYTE   W12
 BYTE   Bn0  v048
 BYTE   W12
 BYTE   N11  Bn0  v084
 BYTE   W12
 BYTE   N09  Bn1
 BYTE   W12
 BYTE   Ds1
 BYTE   W12
//  #05 //053   ----------------------------------------
 BYTE   N11  En0
 BYTE   W12
 BYTE   En1
 BYTE   W12
 BYTE   Fs0
 BYTE   W12
 BYTE   Fs1
 BYTE   W12
 BYTE   Gn0
 BYTE   W12
 BYTE   Gn1
 BYTE   W12
 BYTE   En0
 BYTE   W12
 BYTE   En1
 BYTE   W12
//  #05 //054   ----------------------------------------
 BYTE   N09  An0
 BYTE   W12
 BYTE   N09
 BYTE   W12
 BYTE   N09
 BYTE   W12
 BYTE   Dn1
 BYTE   W12
 BYTE   Dn1  v048
 BYTE   W12
 BYTE   An1  v084
 BYTE   W24
 BYTE   Dn1
 BYTE   W12
//  #05 //055   ----------------------------------------
 BYTE   PATT
  POIN2 Label_01589FD7
//  #05 //056   ----------------------------------------
 BYTE   N09  Cn1  v084
 BYTE   W12
 BYTE   N09
 BYTE   W12
 BYTE   N09
 BYTE   W12
 BYTE   Cn2
 BYTE   W12
 BYTE   Cn1  v048
 BYTE   W12
 BYTE   N11  Cn1  v084
 BYTE   W12
 BYTE   N09  Cn2
 BYTE   W12
 BYTE   Bn0
 BYTE   W12
//  #05 //057   ----------------------------------------
 BYTE   N09
 BYTE   W12
 BYTE   Fs1
 BYTE   W12
 BYTE   Bn0
 BYTE   W12
 BYTE   En1
 BYTE   W12
 BYTE   En1  v048
 BYTE   W12
 BYTE   N11  En1  v084
 BYTE   W12
 BYTE   N09  En2
 BYTE   W12
 BYTE   En1
 BYTE   W12
//  #05 //058   ----------------------------------------
 BYTE   Fn0
 BYTE   W12
 BYTE   Fn1
 BYTE   W12
 BYTE   Fn0
 BYTE   W12
 BYTE   Fn1
 BYTE   W12
 BYTE   Fn0  v048
 BYTE   W12
 BYTE   Fn1  v084
 BYTE   W12
 BYTE   Fn0
 BYTE   W12
 BYTE   Fn1
 BYTE   W12
//  #05 //059   ----------------------------------------
 BYTE   En0
 BYTE   W12
 BYTE   En1
 BYTE   W12
 BYTE   En0
 BYTE   W12
 BYTE   En1
 BYTE   W12
 BYTE   En0  v048
 BYTE   W12
 BYTE   En1  v084
 BYTE   W12
 BYTE   En0
 BYTE   W12
 BYTE   En1
 BYTE   W12
//  #05 //060   ----------------------------------------
 BYTE   Ds0
 BYTE   W12
 BYTE   Ds1
 BYTE   W12
 BYTE   Ds0
 BYTE   W12
 BYTE   Ds1
 BYTE   W12
 BYTE   Ds0  v048
 BYTE   W12
 BYTE   Ds1  v084
 BYTE   W12
 BYTE   Ds0
 BYTE   W12
 BYTE   Ds1
 BYTE   W12
//  #05 //061   ----------------------------------------
 BYTE   Ds0
 BYTE   W12
 BYTE   N09
 BYTE   W12
 BYTE   Ds1
 BYTE   W60
 BYTE   N21  Dn0
 BYTE   W12
//  #05 //062   ----------------------------------------
 BYTE   W12
 BYTE   N09
 BYTE   W12
 BYTE   N09
 BYTE   W12
 BYTE   Dn1
 BYTE   W12
 BYTE   Dn0  v048
 BYTE   W12
 BYTE   An0  v084
 BYTE   W24
 BYTE   Dn1
 BYTE   W12
//  #05 //063   ----------------------------------------
 BYTE   Dn0  v048
 BYTE   W12
 BYTE   Dn0  v084
 BYTE   W12
 BYTE   Dn1
 BYTE   W12
 BYTE   Dn0
 BYTE   W12
 BYTE   An0
 BYTE   W12
 BYTE   Dn0
 BYTE   W12
 BYTE   Dn1
 BYTE   W12
 BYTE   Dn0
 BYTE   W12
//  #05 //064   ----------------------------------------
 BYTE   PATT
  POIN2 Label_01589E18
//  #05 //065   ----------------------------------------
 BYTE   N09  En0  v048
 BYTE   W12
 BYTE   En0  v084
 BYTE   W12
 BYTE   En1
 BYTE   W12
 BYTE   En0
 BYTE   W12
 BYTE   Bn0
 BYTE   W12
 BYTE   En0
 BYTE   W12
 BYTE   En1
 BYTE   W12
 BYTE   En0
 BYTE   W12
//  #05 //066   ----------------------------------------
 BYTE   W96
//  #05 //067   ----------------------------------------
 BYTE   En0  v048
 BYTE   W12
 BYTE   En0  v084
 BYTE   W72
 BYTE   GoTo
  POIN2 Label_01589E3B
//  #05 //068   ----------------------------------------
 BYTE   W12
 BYTE   W04
 BYTE   FINE

//**************** Track 6 (Midi-Chn.5) ****************//

SlayAndFall_006:
//  #06 //000   ----------------------------------------
 BYTE   KEYSH   SlayAndFall_key+0
 BYTE   VOICE   40
 BYTE   VOL   26*SlayAndFall_mvl/mxv
 BYTE   PAN   c_v+0
 BYTE   N10  En4  v080
 BYTE   N10  Gn4
 BYTE   W12
 BYTE   N06  Dn4
 BYTE   N06  Fs4
 BYTE   W12
 BYTE   N02  En3
 BYTE   N02  Bn3
 BYTE   W12
 BYTE   N10  En4
 BYTE   N11  Gn4
 BYTE   W24
 BYTE   N08  Dn4
 BYTE   N10  Fs4
 BYTE   W24
 BYTE   En4
 BYTE   N08  Gn4
 BYTE   W12
//  #06 //001   ----------------------------------------
 BYTE   W12
 BYTE   N07  Dn4
 BYTE   N10  Fs4
 BYTE   W24
 BYTE   N08  En4
 BYTE   N10  Gn4
 BYTE   W24
 BYTE   N05  En4
 BYTE   N05  Gn4
 BYTE   W12
 BYTE   N07  Dn4
 BYTE   N08  Fs4
 BYTE   W12
 BYTE   N05  En3
 BYTE   N05  Bn3
 BYTE   W12
//  #06 //002   ----------------------------------------
 BYTE   N10  En4
 BYTE   N10  Gn4
 BYTE   W12
 BYTE   N06  Dn4
 BYTE   N06  Fs4
 BYTE   W12
 BYTE   N02  En3
 BYTE   N02  Bn3
 BYTE   W12
 BYTE   N10  En4
 BYTE   N11  Gn4
 BYTE   W24
 BYTE   N08  Dn4
 BYTE   N10  Fs4
 BYTE   W24
 BYTE   En4
 BYTE   N08  Gn4
 BYTE   W12
//  #06 //003   ----------------------------------------
 BYTE   W84
Label_0158A16E:
 BYTE   W12
//  #06 //004   ----------------------------------------
 BYTE   W96
//  #06 //005   ----------------------------------------
 BYTE   W96
//  #06 //006   ----------------------------------------
 BYTE   W96
//  #06 //007   ----------------------------------------
 BYTE   W96
//  #06 //008   ----------------------------------------
 BYTE   W96
//  #06 //009   ----------------------------------------
 BYTE   W96
//  #06 //010   ----------------------------------------
 BYTE   W96
//  #06 //011   ----------------------------------------
 BYTE   W96
//  #06 //012   ----------------------------------------
 BYTE   W96
//  #06 //013   ----------------------------------------
 BYTE   W96
//  #06 //014   ----------------------------------------
 BYTE   W96
//  #06 //015   ----------------------------------------
 BYTE   W96
//  #06 //016   ----------------------------------------
 BYTE   W96
//  #06 //017   ----------------------------------------
 BYTE   W96
//  #06 //018   ----------------------------------------
 BYTE   W96
//  #06 //019   ----------------------------------------
 BYTE   W96
//  #06 //020   ----------------------------------------
 BYTE   W96
//  #06 //021   ----------------------------------------
 BYTE   W96
//  #06 //022   ----------------------------------------
 BYTE   W96
//  #06 //023   ----------------------------------------
 BYTE   W96
//  #06 //024   ----------------------------------------
 BYTE   W96
//  #06 //025   ----------------------------------------
 BYTE   W96
//  #06 //026   ----------------------------------------
 BYTE   W96
//  #06 //027   ----------------------------------------
 BYTE   W96
//  #06 //028   ----------------------------------------
 BYTE   W96
//  #06 //029   ----------------------------------------
 BYTE   W96
//  #06 //030   ----------------------------------------
 BYTE   W96
//  #06 //031   ----------------------------------------
 BYTE   W96
//  #06 //032   ----------------------------------------
 BYTE   W96
//  #06 //033   ----------------------------------------
 BYTE   W96
//  #06 //034   ----------------------------------------
 BYTE   W96
//  #06 //035   ----------------------------------------
 BYTE   W12
 BYTE   N11  En4  v092
 BYTE   W12
 BYTE   Fs4
 BYTE   W12
 BYTE   Gn4
 BYTE   W12
 BYTE   An4
 BYTE   W12
 BYTE   N05  Gn4
 BYTE   W12
 BYTE   An4
 BYTE   W12
 BYTE   Gn4
 BYTE   W12
//  #06 //036   ----------------------------------------
Label_0158A1A0:
 BYTE   N23  Dn4  v092
 BYTE   N23  Fs4
 BYTE   W24
 BYTE   N04  En4
 BYTE   N05  Gn4
 BYTE   W12
 BYTE   N72  En4
 BYTE   W60
 BYTE   PEND 
//  #06 //037   ----------------------------------------
 BYTE   W36
 BYTE   N11
 BYTE   W12
 BYTE   An4
 BYTE   W12
 BYTE   N13  Gn4
 BYTE   W12
 BYTE   N08  Fs4
 BYTE   W12
 BYTE   N02  En4
 BYTE   W12
//  #06 //038   ----------------------------------------
 BYTE   N23  Dn4
 BYTE   N23  Fs4
 BYTE   W24
 BYTE   N11  En4
 BYTE   N11  Gn4
 BYTE   W12
 BYTE   N03  Dn4
 BYTE   N05  Fs4
 BYTE   W24
 BYTE   N04  Cn4
 BYTE   N04  En4
 BYTE   W24
 BYTE   N05  Dn4
 BYTE   N06  Fs4
 BYTE   W12
//  #06 //039   ----------------------------------------
 BYTE   W12
 BYTE   N04  En4
 BYTE   N07  Gn4
 BYTE   W24
 BYTE   N23  Fs4
 BYTE   N23  An4
 BYTE   W24
 BYTE   N05  En4
 BYTE   N06  Gn4
 BYTE   W12
 BYTE   N03  Fs4
 BYTE   N05  An4
 BYTE   W12
 BYTE   N03  En4
 BYTE   N02  Gn4
 BYTE   W12
//  #06 //040   ----------------------------------------
 BYTE   N23  Fs4
 BYTE   N23  An4
 BYTE   W24
 BYTE   N02  En4
 BYTE   N05  Gn4
 BYTE   W12
 BYTE   N68  Bn3
 BYTE   N72  Dn4
 BYTE   W60
//  #06 //041   ----------------------------------------
 BYTE   W96
//  #06 //042   ----------------------------------------
 BYTE   N14
 BYTE   N17  Fs4
 BYTE   W24
 BYTE   N07  Bn3
 BYTE   N05  Dn4
 BYTE   W12
 BYTE   N06  Bn3
 BYTE   N07  Dn4
 BYTE   W24
 BYTE   N05  Bn3
 BYTE   W24
 BYTE   N24  En4
 BYTE   W12
//  #06 //043   ----------------------------------------
 BYTE   W12
 BYTE   N03  Dn4
 BYTE   W12
 BYTE   N23
 BYTE   W72
//  #06 //044   ----------------------------------------
 BYTE   PATT
  POIN2 Label_0158A1A0
//  #06 //045   ----------------------------------------
 BYTE   W36
 BYTE   N15  En4  v092
 BYTE   W12
 BYTE   N11  An4
 BYTE   W12
 BYTE   N13  Gn4
 BYTE   W12
 BYTE   N08  Fs4
 BYTE   W12
 BYTE   N02  En4
 BYTE   W12
//  #06 //046   ----------------------------------------
 BYTE   N23  Dn4
 BYTE   N24  Fs4
 BYTE   W24
 BYTE   N15  En4
 BYTE   N15  Gn4
 BYTE   W12
 BYTE   N03  Dn4
 BYTE   N05  Fs4
 BYTE   W24
 BYTE   N04  Cn4
 BYTE   N04  En4
 BYTE   W24
 BYTE   N05  Dn4
 BYTE   N06  Fs4
 BYTE   W12
//  #06 //047   ----------------------------------------
 BYTE   W12
 BYTE   N04  En4
 BYTE   N07  Gn4
 BYTE   W24
 BYTE   N24  Fs4
 BYTE   N20  An4
 BYTE   W24
 BYTE   N05  En4
 BYTE   N06  Gn4
 BYTE   W12
 BYTE   N03  Fs4
 BYTE   N05  An4
 BYTE   W12
 BYTE   N03  En4
 BYTE   N02  Gn4
 BYTE   W12
//  #06 //048   ----------------------------------------
 BYTE   N17  Fs4
 BYTE   N17  An4
 BYTE   W24
 BYTE   N02  En4
 BYTE   N05  Gn4
 BYTE   W12
 BYTE   N68
 BYTE   N68  Bn4
 BYTE   W60
//  #06 //049   ----------------------------------------
 BYTE   W96
//  #06 //050   ----------------------------------------
 BYTE   N23  An4
 BYTE   N24  Cn5
 BYTE   W24
 BYTE   N07  Gn4
 BYTE   N05  Bn4
 BYTE   W12
 BYTE   N06  Fs4
 BYTE   N05  An4
 BYTE   W24
 BYTE   N03  En4
 BYTE   N05  Gn4
 BYTE   W24
 BYTE   Fs4
 BYTE   N06  An4
 BYTE   W12
//  #06 //051   ----------------------------------------
 BYTE   W12
 BYTE   N03  Gn4
 BYTE   N02  Bn4
 BYTE   W12
 BYTE   N28  Gn4
 BYTE   N28  Bn4
 BYTE   W72
//  #06 //052   ----------------------------------------
 BYTE   W96
//  #06 //053   ----------------------------------------
 BYTE   W96
//  #06 //054   ----------------------------------------
 BYTE   W96
//  #06 //055   ----------------------------------------
 BYTE   W96
//  #06 //056   ----------------------------------------
 BYTE   N40  En5
 BYTE   W48
 BYTE   N28  Cn5
 BYTE   W36
 BYTE   N23  Dn5
 BYTE   W12
//  #06 //057   ----------------------------------------
 BYTE   W12
 BYTE   N11  An5
 BYTE   W12
 BYTE   Fs5
 BYTE   W12
 BYTE   N32  Gn5
 BYTE   W60
//  #06 //058   ----------------------------------------
 BYTE   N23  Cn6
 BYTE   W24
 BYTE   N11  Bn5
 BYTE   W12
 BYTE   N28  Gn5  v096
 BYTE   W60
//  #06 //059   ----------------------------------------
 BYTE   N23  Cn6
 BYTE   W24
 BYTE   N11  Bn5
 BYTE   W12
 BYTE   N28  Gn5  v092
 BYTE   W60
//  #06 //060   ----------------------------------------
 BYTE   N23  As5
 BYTE   W24
 BYTE   N05  An5  v084
 BYTE   W12
 BYTE   N80  Gn5  v088
 BYTE   W60
//  #06 //061   ----------------------------------------
 BYTE   W84
 BYTE   N11  An5  v080
 BYTE   W12
//  #06 //062   ----------------------------------------
 BYTE   W12
 BYTE   N05  An5  v076
 BYTE   W12
 BYTE   Dn6  v072
 BYTE   W12
 BYTE   An5  v080
 BYTE   W12
 BYTE   An5  v036
 BYTE   W12
 BYTE   Dn6  v072
 BYTE   W24
 BYTE   N07  An5  v076
 BYTE   W12
//  #06 //063   ----------------------------------------
 BYTE   W12
 BYTE   N05  Dn6  v080
 BYTE   W24
 BYTE   An5
 BYTE   W24
 BYTE   An5  v072
 BYTE   W12
 BYTE   Dn6  v076
 BYTE   W12
 BYTE   An5  v036
 BYTE   W12
//  #06 //064   ----------------------------------------
 BYTE   N17  Bn5  v076
 BYTE   W24
 BYTE   N06  En6  v080
 BYTE   W12
 BYTE   Bn5  v076
 BYTE   W12
 BYTE   Bn5  v036
 BYTE   W12
 BYTE   N05  En6  v080
 BYTE   W24
 BYTE   N07  Bn5
 BYTE   W12
//  #06 //065   ----------------------------------------
 BYTE   W12
 BYTE   N06  En6  v076
 BYTE   W24
 BYTE   N07  Bn5  v080
 BYTE   W24
 BYTE   Bn5  v076
 BYTE   W12
 BYTE   N06  En6  v080
 BYTE   W12
 BYTE   En6  v040
 BYTE   W12
//  #06 //066   ----------------------------------------
 BYTE   W96
//  #06 //067   ----------------------------------------
 BYTE   W84
 BYTE   GoTo
  POIN2 Label_0158A16E
//  #06 //068   ----------------------------------------
 BYTE   W12
 BYTE   W04
 BYTE   FINE

//**************** Track 7 (Midi-Chn.6) ****************//

SlayAndFall_007:
//  #07 //000   ----------------------------------------
 BYTE   KEYSH   SlayAndFall_key+0
 BYTE   VOICE   30
 BYTE   VOL   37*SlayAndFall_mvl/mxv
 BYTE   PAN   c_v+0
 BYTE   W96
//  #07 //001   ----------------------------------------
 BYTE   W96
//  #07 //002   ----------------------------------------
 BYTE   W96
//  #07 //003   ----------------------------------------
 BYTE   W12
 BYTE   N11  Bn2  v108
 BYTE   W12
 BYTE   En3  v096
 BYTE   W12
 BYTE   N17  Bn3  v104
 BYTE   W12
 BYTE   N11  An3  v096
 BYTE   W12
 BYTE   N17  Gn3  v088
 BYTE   W12
 BYTE   N11  Fs3  v096
 BYTE   W12
Label_0158A35B:
 BYTE   N17  Dn3  v100
 BYTE   W12
//  #07 //004   ----------------------------------------
Label_0158A35F:
 BYTE   N30  En3  v100
 BYTE   W32
 BYTE   N02  An3  v092
 BYTE   W04
 BYTE   N32  Bn3  v100
 BYTE   W36
 BYTE   An3
 BYTE   W24
 BYTE   PEND 
//  #07 //005   ----------------------------------------
Label_0158A36E:
 BYTE   W12
 BYTE   N32  Dn3  v100
 BYTE   W36
 BYTE   N23  En3
 BYTE   W24
 BYTE   Bn3
 BYTE   W24
 BYTE   PEND 
//  #07 //006   ----------------------------------------
Label_0158A379:
 BYTE   N30  An3  v100
 BYTE   W36
 BYTE   Dn3
 BYTE   W36
 BYTE   N24  Bn2
 BYTE   W24
 BYTE   PEND 
//  #07 //007   ----------------------------------------
Label_0158A383:
 BYTE   W10
 BYTE   N01  En3  v092
 BYTE   W02
 BYTE   N32  Fs3  v100
 BYTE   W36
 BYTE   N23  Gn3
 BYTE   W24
 BYTE   N17  Dn3
 BYTE   W24
 BYTE   PEND 
//  #07 //008   ----------------------------------------
Label_0158A393:
 BYTE   N40  Dn3  v100
 BYTE   W36
 BYTE   TIE  En3
 BYTE   W60
 BYTE   PEND 
//  #07 //009   ----------------------------------------
 BYTE   W56
 BYTE   W03
 BYTE   EOT
 BYTE   W13
 BYTE   N23  Gn3
 BYTE   W24
//  #07 //010   ----------------------------------------
Label_0158A3A2:
 BYTE   N32  Dn3  v100
 BYTE   W36
 BYTE   N56  En3
 BYTE   W60
 BYTE   PEND 
//  #07 //011   ----------------------------------------
Label_0158A3AA:
 BYTE   W12
 BYTE   N05  Bn2  v100
 BYTE   W12
 BYTE   N11  En3
 BYTE   W12
 BYTE   Bn3
 BYTE   W12
 BYTE   An3
 BYTE   W12
 BYTE   Gn3
 BYTE   W12
 BYTE   Fs3
 BYTE   W12
 BYTE   Dn3
 BYTE   W12
 BYTE   PEND 
//  #07 //012   ----------------------------------------
Label_0158A3BD:
 BYTE   N28  En3  v100
 BYTE   W32
 BYTE   W01
 BYTE   N02  An3
 BYTE   W03
 BYTE   N32  Bn3
 BYTE   W36
 BYTE   An3
 BYTE   W24
 BYTE   PEND 
//  #07 //013   ----------------------------------------
 BYTE   PATT
  POIN2 Label_0158A36E
//  #07 //014   ----------------------------------------
Label_0158A3D0:
 BYTE   N28  An3  v100
 BYTE   W32
 BYTE   W01
 BYTE   N02  Cn4
 BYTE   W03
 BYTE   N30  Dn4
 BYTE   W36
 BYTE   Cn4
 BYTE   W24
 BYTE   PEND 
//  #07 //015   ----------------------------------------
Label_0158A3DE:
 BYTE   W12
 BYTE   N28  Bn3  v100
 BYTE   W36
 BYTE   N23  An3
 BYTE   W24
 BYTE   N17  Gn3
 BYTE   W24
 BYTE   PEND 
//  #07 //016   ----------------------------------------
Label_0158A3EA:
 BYTE   N32  An3  v100
 BYTE   W36
 BYTE   TIE  Bn3
 BYTE   W60
 BYTE   PEND 
//  #07 //017   ----------------------------------------
 BYTE   W40
 BYTE   W01
 BYTE   EOT
 BYTE   W19
 BYTE   N11  Gn3
 BYTE   W12
 BYTE   An3
 BYTE   W12
 BYTE   N04  Gn3
 BYTE   W12
//  #07 //018   ----------------------------------------
Label_0158A3FE:
 BYTE   N17  An3  v100
 BYTE   W24
 BYTE   N05  Bn3
 BYTE   W12
 BYTE   N56
 BYTE   W60
 BYTE   PEND 
//  #07 //019   ----------------------------------------
 BYTE   W12
 BYTE   N11  Bn2
 BYTE   W12
 BYTE   En3
 BYTE   W12
 BYTE   Bn3
 BYTE   W12
 BYTE   An3
 BYTE   W12
 BYTE   Gn3
 BYTE   W12
 BYTE   Fs3
 BYTE   W12
 BYTE   Dn3
 BYTE   W12
//  #07 //020   ----------------------------------------
 BYTE   PATT
  POIN2 Label_0158A35F
//  #07 //021   ----------------------------------------
 BYTE   PATT
  POIN2 Label_0158A36E
//  #07 //022   ----------------------------------------
 BYTE   PATT
  POIN2 Label_0158A379
//  #07 //023   ----------------------------------------
 BYTE   PATT
  POIN2 Label_0158A383
//  #07 //024   ----------------------------------------
 BYTE   PATT
  POIN2 Label_0158A393
//  #07 //025   ----------------------------------------
 BYTE   W56
 BYTE   W03
 BYTE   EOT
 BYTE   En3
 BYTE   W13
 BYTE   N23  Gn3  v100
 BYTE   W24
//  #07 //026   ----------------------------------------
 BYTE   PATT
  POIN2 Label_0158A3A2
//  #07 //027   ----------------------------------------
 BYTE   PATT
  POIN2 Label_0158A3AA
//  #07 //028   ----------------------------------------
 BYTE   PATT
  POIN2 Label_0158A3BD
//  #07 //029   ----------------------------------------
 BYTE   PATT
  POIN2 Label_0158A36E
//  #07 //030   ----------------------------------------
 BYTE   PATT
  POIN2 Label_0158A3D0
//  #07 //031   ----------------------------------------
 BYTE   PATT
  POIN2 Label_0158A3DE
//  #07 //032   ----------------------------------------
 BYTE   PATT
  POIN2 Label_0158A3EA
//  #07 //033   ----------------------------------------
 BYTE   W40
 BYTE   W01
 BYTE   EOT
 BYTE   Bn3
 BYTE   W19
 BYTE   N11  Gn3  v100
 BYTE   W12
 BYTE   An3
 BYTE   W12
 BYTE   N04  Gn3
 BYTE   W12
//  #07 //034   ----------------------------------------
 BYTE   PATT
  POIN2 Label_0158A3FE
//  #07 //035   ----------------------------------------
 BYTE   W12
 BYTE   N11  En3  v100
 BYTE   W12
 BYTE   Fs3
 BYTE   W12
 BYTE   Gn3
 BYTE   W12
 BYTE   An3
 BYTE   W12
 BYTE   N05  Gn3
 BYTE   W12
 BYTE   An3
 BYTE   W12
 BYTE   Gn3
 BYTE   W12
//  #07 //036   ----------------------------------------
Label_0158A482:
 BYTE   N23  Fs3  v100
 BYTE   W24
 BYTE   N05  Gn3
 BYTE   W12
 BYTE   N76  En3
 BYTE   W60
 BYTE   PEND 
//  #07 //037   ----------------------------------------
Label_0158A48D:
 BYTE   W36
 BYTE   N11  En3  v100
 BYTE   W12
 BYTE   An3
 BYTE   W12
 BYTE   N05  Gn3
 BYTE   W12
 BYTE   Fs3
 BYTE   W12
 BYTE   En3
 BYTE   W12
 BYTE   PEND 
//  #07 //038   ----------------------------------------
Label_0158A49C:
 BYTE   N23  Fs3  v100
 BYTE   W24
 BYTE   N11  Gn3
 BYTE   W12
 BYTE   N05  Fs3
 BYTE   W24
 BYTE   N11  En3
 BYTE   W24
 BYTE   N05  Fs3
 BYTE   W12
 BYTE   PEND 
//  #07 //039   ----------------------------------------
 BYTE   W12
 BYTE   Gn3
 BYTE   W21
 BYTE   N02
 BYTE   W03
 BYTE   N23  An3
 BYTE   W24
 BYTE   N11  Gn3
 BYTE   W12
 BYTE   N05  An3
 BYTE   W12
 BYTE   Gn3
 BYTE   W12
//  #07 //040   ----------------------------------------
 BYTE   N23  An3
 BYTE   W24
 BYTE   N05  Gn3
 BYTE   W12
 BYTE   N76  Dn3
 BYTE   W60
//  #07 //041   ----------------------------------------
 BYTE   W36
 BYTE   N11  Bn2
 BYTE   W12
 BYTE   N05  Dn3
 BYTE   W12
 BYTE   Bn2
 BYTE   W12
 BYTE   Dn3
 BYTE   W12
 BYTE   Gn3
 BYTE   W12
//  #07 //042   ----------------------------------------
 BYTE   N23  Fs3
 BYTE   W24
 BYTE   N05  Dn3
 BYTE   W12
 BYTE   N05
 BYTE   W24
 BYTE   Bn2
 BYTE   W21
 BYTE   N02  Dn3
 BYTE   W03
 BYTE   N11  En3
 BYTE   W12
//  #07 //043   ----------------------------------------
 BYTE   W12
 BYTE   N05  Dn3
 BYTE   W12
 BYTE   N28
 BYTE   W36
 BYTE   N11  Gn3
 BYTE   W12
 BYTE   N05  An3
 BYTE   W12
 BYTE   Gn3
 BYTE   W12
//  #07 //044   ----------------------------------------
 BYTE   PATT
  POIN2 Label_0158A482
//  #07 //045   ----------------------------------------
 BYTE   PATT
  POIN2 Label_0158A48D
//  #07 //046   ----------------------------------------
 BYTE   PATT
  POIN2 Label_0158A49C
//  #07 //047   ----------------------------------------
 BYTE   W12
 BYTE   N05  Gn3  v100
 BYTE   W24
 BYTE   N23  An3
 BYTE   W24
 BYTE   N11  Gn3
 BYTE   W12
 BYTE   N05  An3
 BYTE   W12
 BYTE   Gn3
 BYTE   W12
//  #07 //048   ----------------------------------------
 BYTE   N23  An3
 BYTE   W24
 BYTE   N05  Gn3
 BYTE   W12
 BYTE   N76  Bn3
 BYTE   W60
//  #07 //049   ----------------------------------------
 BYTE   W36
 BYTE   N11  Bn2
 BYTE   W12
 BYTE   N05  Dn3
 BYTE   W12
 BYTE   Bn2
 BYTE   W12
 BYTE   Dn3
 BYTE   W12
 BYTE   Gn3
 BYTE   W09
 BYTE   N02  Bn3
 BYTE   W03
//  #07 //050   ----------------------------------------
 BYTE   N23  Cn4
 BYTE   W24
 BYTE   N05  Bn3
 BYTE   W12
 BYTE   An3
 BYTE   W24
 BYTE   Gn3
 BYTE   W24
 BYTE   An3
 BYTE   W12
//  #07 //051   ----------------------------------------
 BYTE   W12
 BYTE   Bn3
 BYTE   W12
 BYTE   N28
 BYTE   W36
 BYTE   N11
 BYTE   W12
 BYTE   N05  Cn4
 BYTE   W12
 BYTE   Bn3
 BYTE   W12
//  #07 //052   ----------------------------------------
 BYTE   N32  An3
 BYTE   W48
 BYTE   N30  Fs3
 BYTE   W32
 BYTE   W03
 BYTE   N03  Gn3  v092
 BYTE   W04
 BYTE   N20  An3  v100
 BYTE   W09
//  #07 //053   ----------------------------------------
 BYTE   W12
 BYTE   N05  Gn3
 BYTE   W12
 BYTE   Fs3
 BYTE   W12
 BYTE   N17  En3
 BYTE   W24
 BYTE   N11
 BYTE   W12
 BYTE   N05  Fs3
 BYTE   W12
 BYTE   Gn3
 BYTE   W12
//  #07 //054   ----------------------------------------
 BYTE   N40
 BYTE   W48
 BYTE   N32  An3
 BYTE   W32
 BYTE   W03
 BYTE   N03  Dn3  v092
 BYTE   W03
 BYTE   N20  En3  v100
 BYTE   W10
//  #07 //055   ----------------------------------------
 BYTE   W12
 BYTE   N05  Fs3
 BYTE   W12
 BYTE   En3
 BYTE   W12
 BYTE   N32  Dn3
 BYTE   W56
 BYTE   N03  Dn3  v092
 BYTE   W04
//  #07 //056   ----------------------------------------
 BYTE   N44  En3  v100
 BYTE   W48
 BYTE   N24  Cn3
 BYTE   W36
 BYTE   N23  Dn3
 BYTE   W12
//  #07 //057   ----------------------------------------
 BYTE   W12
 BYTE   N05  An3
 BYTE   W12
 BYTE   Fs3
 BYTE   W12
 BYTE   N17  Gn3
 BYTE   W24
 BYTE   N11  Dn3
 BYTE   W12
 BYTE   Gn3
 BYTE   W12
 BYTE   N05  An3
 BYTE   W12
//  #07 //058   ----------------------------------------
 BYTE   N23  Cn4
 BYTE   W24
 BYTE   N11  Bn3
 BYTE   W12
 BYTE   Gn3
 BYTE   W24
 BYTE   Dn3
 BYTE   W12
 BYTE   Gn3
 BYTE   W12
 BYTE   N05  An3
 BYTE   W12
//  #07 //059   ----------------------------------------
 BYTE   N23  Cn4
 BYTE   W24
 BYTE   N11  Bn3
 BYTE   W12
 BYTE   Gn3
 BYTE   W24
 BYTE   Dn3
 BYTE   W12
 BYTE   Gn3
 BYTE   W12
 BYTE   N05  An3
 BYTE   W09
 BYTE   N02
 BYTE   W03
//  #07 //060   ----------------------------------------
 BYTE   N23  As3
 BYTE   W24
 BYTE   N11  An3
 BYTE   W12
 BYTE   N56  Gn3
 BYTE   W60
//  #07 //061   ----------------------------------------
 BYTE   W48
 BYTE   N11
 BYTE   W12
 BYTE   Fs3
 BYTE   W12
 BYTE   Dn3
 BYTE   W12
 BYTE   N56  Gn3
 BYTE   W12
//  #07 //062   ----------------------------------------
 BYTE   W60
 BYTE   N11  Fs3
 BYTE   W12
 BYTE   Gn3
 BYTE   W12
 BYTE   N80  An3
 BYTE   W12
//  #07 //063   ----------------------------------------
 BYTE   W96
//  #07 //064   ----------------------------------------
 BYTE   N44
 BYTE   W60
 BYTE   N11  Gs3
 BYTE   W12
 BYTE   An3
 BYTE   W12
 BYTE   TIE  Bn3
 BYTE   W12
//  #07 //065   ----------------------------------------
 BYTE   W92
 BYTE   W03
 BYTE   EOT
 BYTE   W01
//  #07 //066   ----------------------------------------
 BYTE   W96
//  #07 //067   ----------------------------------------
 BYTE   W12
 BYTE   N11  Bn2
 BYTE   W12
 BYTE   En3
 BYTE   W12
 BYTE   Bn3
 BYTE   W12
 BYTE   An3
 BYTE   W12
 BYTE   Gn3
 BYTE   W12
 BYTE   N05  Fs3
 BYTE   W12
 BYTE   GoTo
  POIN2 Label_0158A35B
//  #07 //068   ----------------------------------------
 BYTE   N05  Dn3  v100
 BYTE   W12
 BYTE   W04
 BYTE   FINE

//**************** Track 8 (Midi-Chn.7) ****************//

SlayAndFall_008:
//  #08 //000   ----------------------------------------
 BYTE   KEYSH   SlayAndFall_key+0
 BYTE   VOICE   30
 BYTE   VOL   34*SlayAndFall_mvl/mxv
 BYTE   PAN   c_v+0
 BYTE   W96
//  #08 //001   ----------------------------------------
 BYTE   W96
//  #08 //002   ----------------------------------------
 BYTE   W96
//  #08 //003   ----------------------------------------
 BYTE   BEND   c_v+3
 BYTE   W22
 BYTE   N11  Bn2  v108
 BYTE   W12
 BYTE   En3  v096
 BYTE   W12
 BYTE   N17  Bn3  v104
 BYTE   W12
 BYTE   N11  An3  v096
 BYTE   W12
 BYTE   N17  Gn3  v088
 BYTE   W12
 BYTE   N11  Fs3  v096
 BYTE   W02
Label_0158A631:
 BYTE   W10
 BYTE   N17  Dn3  v100
 BYTE   W02
//  #08 //004   ----------------------------------------
Label_0158A636:
 BYTE   W10
 BYTE   N30  En3  v100
 BYTE   W32
 BYTE   W01
 BYTE   N02  An3  v092
 BYTE   W03
 BYTE   N32  Bn3  v100
 BYTE   W36
 BYTE   An3
 BYTE   W14
 BYTE   PEND 
//  #08 //005   ----------------------------------------
Label_0158A647:
 BYTE   W22
 BYTE   N32  Dn3  v100
 BYTE   W36
 BYTE   N23  En3
 BYTE   W24
 BYTE   Bn3
 BYTE   W14
 BYTE   PEND 
//  #08 //006   ----------------------------------------
Label_0158A652:
 BYTE   W10
 BYTE   N30  An3  v100
 BYTE   W36
 BYTE   Dn3
 BYTE   W36
 BYTE   N24  Bn2
 BYTE   W14
 BYTE   PEND 
//  #08 //007   ----------------------------------------
Label_0158A65D:
 BYTE   W20
 BYTE   N01  En3  v092
 BYTE   W02
 BYTE   N32  Fs3  v100
 BYTE   W36
 BYTE   N23  Gn3
 BYTE   W24
 BYTE   N17  Dn3
 BYTE   W14
 BYTE   PEND 
//  #08 //008   ----------------------------------------
Label_0158A66D:
 BYTE   W10
 BYTE   N40  Dn3  v100
 BYTE   W36
 BYTE   TIE  En3
 BYTE   W48
 BYTE   W02
 BYTE   PEND 
//  #08 //009   ----------------------------------------
 BYTE   W68
 BYTE   W01
 BYTE   EOT
 BYTE   W13
 BYTE   N23  Gn3
 BYTE   W14
//  #08 //010   ----------------------------------------
Label_0158A67E:
 BYTE   W10
 BYTE   N32  Dn3  v100
 BYTE   W36
 BYTE   N56  En3
 BYTE   W48
 BYTE   W02
 BYTE   PEND 
//  #08 //011   ----------------------------------------
Label_0158A688:
 BYTE   W22
 BYTE   N05  Bn2  v100
 BYTE   W12
 BYTE   N11  En3
 BYTE   W12
 BYTE   Bn3
 BYTE   W12
 BYTE   An3
 BYTE   W12
 BYTE   Gn3
 BYTE   W12
 BYTE   Fs3
 BYTE   W12
 BYTE   Dn3
 BYTE   W02
 BYTE   PEND 
//  #08 //012   ----------------------------------------
Label_0158A69B:
 BYTE   W10
 BYTE   N28  En3  v100
 BYTE   W32
 BYTE   W02
 BYTE   N02  An3
 BYTE   W02
 BYTE   N32  Bn3
 BYTE   W36
 BYTE   An3
 BYTE   W14
 BYTE   PEND 
//  #08 //013   ----------------------------------------
 BYTE   PATT
  POIN2 Label_0158A647
//  #08 //014   ----------------------------------------
Label_0158A6AF:
 BYTE   W10
 BYTE   N28  An3  v100
 BYTE   W32
 BYTE   W02
 BYTE   N02  Cn4
 BYTE   W02
 BYTE   N30  Dn4
 BYTE   W36
 BYTE   Cn4
 BYTE   W14
 BYTE   PEND 
//  #08 //015   ----------------------------------------
Label_0158A6BE:
 BYTE   W22
 BYTE   N28  Bn3  v100
 BYTE   W36
 BYTE   N23  An3
 BYTE   W24
 BYTE   N17  Gn3
 BYTE   W14
 BYTE   PEND 
//  #08 //016   ----------------------------------------
Label_0158A6CA:
 BYTE   W10
 BYTE   N32  An3  v100
 BYTE   W36
 BYTE   TIE  Bn3
 BYTE   W48
 BYTE   W02
 BYTE   PEND 
//  #08 //017   ----------------------------------------
 BYTE   W48
 BYTE   W03
 BYTE   EOT
 BYTE   W19
 BYTE   N11  Gn3
 BYTE   W12
 BYTE   An3
 BYTE   W12
 BYTE   N04  Gn3
 BYTE   W02
//  #08 //018   ----------------------------------------
Label_0158A6E0:
 BYTE   W10
 BYTE   N17  An3  v100
 BYTE   W24
 BYTE   N05  Bn3
 BYTE   W12
 BYTE   N56
 BYTE   W48
 BYTE   W02
 BYTE   PEND 
//  #08 //019   ----------------------------------------
 BYTE   W22
 BYTE   N11  Bn2
 BYTE   W12
 BYTE   En3
 BYTE   W12
 BYTE   Bn3
 BYTE   W12
 BYTE   An3
 BYTE   W12
 BYTE   Gn3
 BYTE   W12
 BYTE   Fs3
 BYTE   W12
 BYTE   Dn3
 BYTE   W02
//  #08 //020   ----------------------------------------
 BYTE   PATT
  POIN2 Label_0158A636
//  #08 //021   ----------------------------------------
 BYTE   PATT
  POIN2 Label_0158A647
//  #08 //022   ----------------------------------------
 BYTE   PATT
  POIN2 Label_0158A652
//  #08 //023   ----------------------------------------
 BYTE   PATT
  POIN2 Label_0158A65D
//  #08 //024   ----------------------------------------
 BYTE   PATT
  POIN2 Label_0158A66D
//  #08 //025   ----------------------------------------
 BYTE   W68
 BYTE   W01
 BYTE   EOT
 BYTE   En3
 BYTE   W13
 BYTE   N23  Gn3  v100
 BYTE   W14
//  #08 //026   ----------------------------------------
 BYTE   PATT
  POIN2 Label_0158A67E
//  #08 //027   ----------------------------------------
 BYTE   PATT
  POIN2 Label_0158A688
//  #08 //028   ----------------------------------------
 BYTE   PATT
  POIN2 Label_0158A69B
//  #08 //029   ----------------------------------------
 BYTE   PATT
  POIN2 Label_0158A647
//  #08 //030   ----------------------------------------
 BYTE   PATT
  POIN2 Label_0158A6AF
//  #08 //031   ----------------------------------------
 BYTE   PATT
  POIN2 Label_0158A6BE
//  #08 //032   ----------------------------------------
 BYTE   PATT
  POIN2 Label_0158A6CA
//  #08 //033   ----------------------------------------
 BYTE   W48
 BYTE   W03
 BYTE   EOT
 BYTE   Bn3
 BYTE   W19
 BYTE   N11  Gn3  v100
 BYTE   W12
 BYTE   An3
 BYTE   W12
 BYTE   N04  Gn3
 BYTE   W02
//  #08 //034   ----------------------------------------
 BYTE   PATT
  POIN2 Label_0158A6E0
//  #08 //035   ----------------------------------------
 BYTE   W22
 BYTE   N11  En3  v100
 BYTE   W12
 BYTE   Fs3
 BYTE   W12
 BYTE   Gn3
 BYTE   W12
 BYTE   An3
 BYTE   W12
 BYTE   N05  Gn3
 BYTE   W12
 BYTE   An3
 BYTE   W12
 BYTE   Gn3
 BYTE   W02
//  #08 //036   ----------------------------------------
Label_0158A766:
 BYTE   W10
 BYTE   N23  Fs3  v100
 BYTE   W24
 BYTE   N05  Gn3
 BYTE   W12
 BYTE   N76  En3
 BYTE   W48
 BYTE   W02
 BYTE   PEND 
//  #08 //037   ----------------------------------------
Label_0158A773:
 BYTE   W44
 BYTE   W02
 BYTE   N11  En3  v100
 BYTE   W12
 BYTE   An3
 BYTE   W12
 BYTE   N05  Gn3
 BYTE   W12
 BYTE   Fs3
 BYTE   W12
 BYTE   En3
 BYTE   W02
 BYTE   PEND 
//  #08 //038   ----------------------------------------
Label_0158A783:
 BYTE   W10
 BYTE   N23  Fs3  v100
 BYTE   W24
 BYTE   N11  Gn3
 BYTE   W12
 BYTE   N05  Fs3
 BYTE   W24
 BYTE   N11  En3
 BYTE   W24
 BYTE   N05  Fs3
 BYTE   W02
 BYTE   PEND 
//  #08 //039   ----------------------------------------
Label_0158A795:
 BYTE   W22
 BYTE   N05  Gn3  v100
 BYTE   W24
 BYTE   N23  An3
 BYTE   W24
 BYTE   N11  Gn3
 BYTE   W12
 BYTE   N05  An3
 BYTE   W12
 BYTE   Gn3
 BYTE   W02
 BYTE   PEND 
//  #08 //040   ----------------------------------------
 BYTE   W10
 BYTE   N23  An3
 BYTE   W24
 BYTE   N05  Gn3
 BYTE   W12
 BYTE   N76  Dn3
 BYTE   W48
 BYTE   W02
//  #08 //041   ----------------------------------------
Label_0158A7B1:
 BYTE   W44
 BYTE   W02
 BYTE   N11  Bn2  v100
 BYTE   W12
 BYTE   N05  Dn3
 BYTE   W12
 BYTE   Bn2
 BYTE   W12
 BYTE   Dn3
 BYTE   W12
 BYTE   Gn3
 BYTE   W02
 BYTE   PEND 
//  #08 //042   ----------------------------------------
 BYTE   W10
 BYTE   N23  Fs3
 BYTE   W24
 BYTE   N05  Dn3
 BYTE   W12
 BYTE   N05
 BYTE   W24
 BYTE   Bn2
 BYTE   W22
 BYTE   N02  Dn3
 BYTE   W02
 BYTE   N11  En3
 BYTE   W02
//  #08 //043   ----------------------------------------
 BYTE   W22
 BYTE   N05  Dn3
 BYTE   W12
 BYTE   N28
 BYTE   W36
 BYTE   N11  Gn3
 BYTE   W12
 BYTE   N05  An3
 BYTE   W12
 BYTE   Gn3
 BYTE   W02
//  #08 //044   ----------------------------------------
 BYTE   PATT
  POIN2 Label_0158A766
//  #08 //045   ----------------------------------------
 BYTE   PATT
  POIN2 Label_0158A773
//  #08 //046   ----------------------------------------
 BYTE   PATT
  POIN2 Label_0158A783
//  #08 //047   ----------------------------------------
 BYTE   PATT
  POIN2 Label_0158A795
//  #08 //048   ----------------------------------------
 BYTE   W10
 BYTE   N23  An3  v100
 BYTE   W24
 BYTE   N05  Gn3
 BYTE   W12
 BYTE   N76  Bn3
 BYTE   W48
 BYTE   W02
//  #08 //049   ----------------------------------------
 BYTE   PATT
  POIN2 Label_0158A7B1
//  #08 //050   ----------------------------------------
 BYTE   W08
 BYTE   N02  Bn3  v100
 BYTE   W02
 BYTE   N23  Cn4
 BYTE   W24
 BYTE   N05  Bn3
 BYTE   W12
 BYTE   An3
 BYTE   W24
 BYTE   Gn3
 BYTE   W24
 BYTE   An3
 BYTE   W02
//  #08 //051   ----------------------------------------
 BYTE   W22
 BYTE   Bn3
 BYTE   W12
 BYTE   N28
 BYTE   W36
 BYTE   N11
 BYTE   W12
 BYTE   N05  Cn4
 BYTE   W12
 BYTE   Bn3
 BYTE   W02
//  #08 //052   ----------------------------------------
 BYTE   W10
 BYTE   N32  An3
 BYTE   W48
 BYTE   N30  Fs3
 BYTE   W36
 BYTE   N03  Gn3  v092
 BYTE   W02
//  #08 //053   ----------------------------------------
 BYTE   W01
 BYTE   N20  An3  v100
 BYTE   W21
 BYTE   N05  Gn3
 BYTE   W12
 BYTE   Fs3
 BYTE   W12
 BYTE   N17  En3
 BYTE   W24
 BYTE   N11
 BYTE   W12
 BYTE   N05  Fs3
 BYTE   W12
 BYTE   Gn3
 BYTE   W02
//  #08 //054   ----------------------------------------
 BYTE   W10
 BYTE   N40
 BYTE   W48
 BYTE   N32  An3
 BYTE   W36
 BYTE   N03  Dn3  v092
 BYTE   W02
//  #08 //055   ----------------------------------------
 BYTE   W01
 BYTE   N20  En3  v100
 BYTE   W21
 BYTE   N05  Fs3
 BYTE   W12
 BYTE   En3
 BYTE   W12
 BYTE   N32  Dn3
 BYTE   W48
 BYTE   W02
//  #08 //056   ----------------------------------------
 BYTE   W07
 BYTE   N03  Dn3  v092
 BYTE   W03
 BYTE   N44  En3  v100
 BYTE   W48
 BYTE   N24  Cn3
 BYTE   W36
 BYTE   N23  Dn3
 BYTE   W02
//  #08 //057   ----------------------------------------
 BYTE   W22
 BYTE   N05  An3
 BYTE   W12
 BYTE   Fs3
 BYTE   W12
 BYTE   N17  Gn3
 BYTE   W24
 BYTE   N11  Dn3
 BYTE   W12
 BYTE   Gn3
 BYTE   W12
 BYTE   N05  An3
 BYTE   W02
//  #08 //058   ----------------------------------------
Label_0158A879:
 BYTE   W10
 BYTE   N23  Cn4  v100
 BYTE   W24
 BYTE   N11  Bn3
 BYTE   W12
 BYTE   Gn3
 BYTE   W24
 BYTE   Dn3
 BYTE   W12
 BYTE   Gn3
 BYTE   W12
 BYTE   N05  An3
 BYTE   W02
 BYTE   PEND 
//  #08 //059   ----------------------------------------
 BYTE   PATT
  POIN2 Label_0158A879
//  #08 //060   ----------------------------------------
 BYTE   W07
 BYTE   N02  An3  v100
 BYTE   W03
 BYTE   N23  As3
 BYTE   W24
 BYTE   N11  An3
 BYTE   W12
 BYTE   N56  Gn3
 BYTE   W48
 BYTE   W02
//  #08 //061   ----------------------------------------
 BYTE   W56
 BYTE   W02
 BYTE   N11
 BYTE   W12
 BYTE   Fs3
 BYTE   W12
 BYTE   Dn3
 BYTE   W12
 BYTE   N56  Gn3
 BYTE   W02
//  #08 //062   ----------------------------------------
 BYTE   W68
 BYTE   W02
 BYTE   N11  Fs3
 BYTE   W12
 BYTE   Gn3
 BYTE   W12
 BYTE   N80  An3
 BYTE   W02
//  #08 //063   ----------------------------------------
 BYTE   W96
//  #08 //064   ----------------------------------------
 BYTE   W10
 BYTE   N44
 BYTE   W60
 BYTE   N11  Gs3
 BYTE   W12
 BYTE   An3
 BYTE   W12
 BYTE   TIE  Bn3
 BYTE   W02
//  #08 //065   ----------------------------------------
 BYTE   W96
//  #08 //066   ----------------------------------------
 BYTE   W09
 BYTE   EOT
 BYTE   W84
 BYTE   W03
//  #08 //067   ----------------------------------------
 BYTE   W22
 BYTE   N11  Bn2
 BYTE   W12
 BYTE   En3
 BYTE   W12
 BYTE   Bn3
 BYTE   W12
 BYTE   An3
 BYTE   W12
 BYTE   Gn3
 BYTE   W12
 BYTE   N05  Fs3
 BYTE   W02
 BYTE   GoTo
  POIN2 Label_0158A631
//  #08 //068   ----------------------------------------
 BYTE   W10
 BYTE   N05  Dn3  v100
 BYTE   W02
 BYTE   W04
 BYTE   FINE

//**************** Track 9 (Midi-Chn.8) ****************//

SlayAndFall_009:
//  #09 //000   ----------------------------------------
 BYTE   KEYSH   SlayAndFall_key+0
 BYTE   VOICE   19
 BYTE   VOL   29*SlayAndFall_mvl/mxv
 BYTE   PAN   c_v+62
 BYTE   W96
//  #09 //001   ----------------------------------------
 BYTE   W96
//  #09 //002   ----------------------------------------
 BYTE   W96
//  #09 //003   ----------------------------------------
 BYTE   W12
 BYTE   N11  Bn2  v100
 BYTE   W12
 BYTE   En3  v084
 BYTE   W12
 BYTE   Bn3  v096
 BYTE   W12
 BYTE   An3  v088
 BYTE   W12
 BYTE   Gn3  v080
 BYTE   W12
 BYTE   Fs3  v084
 BYTE   W12
Label_01730BFF:
 BYTE   N11  Dn3  v088
 BYTE   W12
//  #09 //004   ----------------------------------------
 BYTE   N32  En3  v084
 BYTE   W36
 BYTE   Bn3  v096
 BYTE   W36
 BYTE   An3  v088
 BYTE   W24
//  #09 //005   ----------------------------------------
 BYTE   W12
 BYTE   Dn3
 BYTE   W36
 BYTE   N23  En3  v092
 BYTE   W24
 BYTE   Bn3  v088
 BYTE   W24
//  #09 //006   ----------------------------------------
 BYTE   N32  An3
 BYTE   W36
 BYTE   Dn3
 BYTE   W36
 BYTE   Bn2
 BYTE   W24
//  #09 //007   ----------------------------------------
 BYTE   W12
 BYTE   Fs3  v092
 BYTE   W36
 BYTE   N23  Gn3
 BYTE   W24
 BYTE   N17  Dn3  v096
 BYTE   W24
//  #09 //008   ----------------------------------------
 BYTE   N40
 BYTE   W36
 BYTE   TIE  En3  v092
 BYTE   W60
//  #09 //009   ----------------------------------------
 BYTE   W56
 BYTE   W03
 BYTE   EOT
 BYTE   W36
 BYTE   W01
//  #09 //010   ----------------------------------------
 BYTE   W96
//  #09 //011   ----------------------------------------
 BYTE   W12
 BYTE   N05  Bn2  v088
 BYTE   W12
 BYTE   N11  En3  v080
 BYTE   W12
 BYTE   Bn3  v092
 BYTE   W12
 BYTE   An3  v084
 BYTE   W12
 BYTE   Gn3  v076
 BYTE   W12
 BYTE   Fs3
 BYTE   W12
 BYTE   Dn3  v088
 BYTE   W12
//  #09 //012   ----------------------------------------
Label_01730C4C:
 BYTE   N32  En3  v092
 BYTE   W36
 BYTE   Bn3
 BYTE   W36
 BYTE   An3
 BYTE   W24
 BYTE   PEND 
//  #09 //013   ----------------------------------------
Label_01730C55:
 BYTE   W12
 BYTE   N32  Dn3  v092
 BYTE   W36
 BYTE   N23  En3
 BYTE   W24
 BYTE   Bn3
 BYTE   W24
 BYTE   PEND 
//  #09 //014   ----------------------------------------
Label_01730C60:
 BYTE   N32  An3  v092
 BYTE   W36
 BYTE   Dn4
 BYTE   W36
 BYTE   Cn4
 BYTE   W24
 BYTE   PEND 
//  #09 //015   ----------------------------------------
Label_01730C69:
 BYTE   W12
 BYTE   N28  Bn3  v092
 BYTE   W36
 BYTE   An3
 BYTE   W24
 BYTE   N17  Gn3
 BYTE   W24
 BYTE   PEND 
//  #09 //016   ----------------------------------------
Label_01730C74:
 BYTE   N32  An3  v092
 BYTE   W36
 BYTE   TIE  Bn3
 BYTE   W60
 BYTE   PEND 
//  #09 //017   ----------------------------------------
 BYTE   W40
 BYTE   W01
 BYTE   EOT
 BYTE   W54
 BYTE   W01
//  #09 //018   ----------------------------------------
 BYTE   W96
//  #09 //019   ----------------------------------------
 BYTE   W12
 BYTE   N11  Bn2
 BYTE   W12
 BYTE   En3
 BYTE   W12
 BYTE   Bn3
 BYTE   W12
 BYTE   An3
 BYTE   W12
 BYTE   Gn3
 BYTE   W12
 BYTE   Fs3
 BYTE   W12
 BYTE   Dn3
 BYTE   W12
//  #09 //020   ----------------------------------------
 BYTE   PATT
  POIN2 Label_01730C4C
//  #09 //021   ----------------------------------------
 BYTE   PATT
  POIN2 Label_01730C55
//  #09 //022   ----------------------------------------
 BYTE   N32  An3  v092
 BYTE   W36
 BYTE   Dn3
 BYTE   W36
 BYTE   Bn2
 BYTE   W24
//  #09 //023   ----------------------------------------
 BYTE   W12
 BYTE   Fs3
 BYTE   W36
 BYTE   N23  Gn3
 BYTE   W24
 BYTE   N17  Dn3
 BYTE   W24
//  #09 //024   ----------------------------------------
 BYTE   N32
 BYTE   W36
 BYTE   TIE  En3
 BYTE   W60
//  #09 //025   ----------------------------------------
 BYTE   W56
 BYTE   W03
 BYTE   EOT
 BYTE   W36
 BYTE   W01
//  #09 //026   ----------------------------------------
 BYTE   W96
//  #09 //027   ----------------------------------------
 BYTE   W12
 BYTE   N05  Bn2
 BYTE   W12
 BYTE   N11  En3
 BYTE   W12
 BYTE   Bn3
 BYTE   W12
 BYTE   An3
 BYTE   W12
 BYTE   Gn3
 BYTE   W12
 BYTE   Fs3
 BYTE   W12
 BYTE   Dn3
 BYTE   W12
//  #09 //028   ----------------------------------------
 BYTE   PATT
  POIN2 Label_01730C4C
//  #09 //029   ----------------------------------------
 BYTE   PATT
  POIN2 Label_01730C55
//  #09 //030   ----------------------------------------
 BYTE   PATT
  POIN2 Label_01730C60
//  #09 //031   ----------------------------------------
 BYTE   PATT
  POIN2 Label_01730C69
//  #09 //032   ----------------------------------------
 BYTE   PATT
  POIN2 Label_01730C74
//  #09 //033   ----------------------------------------
 BYTE   W40
 BYTE   W01
 BYTE   EOT
 BYTE   Bn3
 BYTE   W54
 BYTE   W01
//  #09 //034   ----------------------------------------
 BYTE   W96
//  #09 //035   ----------------------------------------
 BYTE   W96
//  #09 //036   ----------------------------------------
 BYTE   W96
//  #09 //037   ----------------------------------------
 BYTE   W96
//  #09 //038   ----------------------------------------
 BYTE   W96
//  #09 //039   ----------------------------------------
 BYTE   W96
//  #09 //040   ----------------------------------------
 BYTE   W96
//  #09 //041   ----------------------------------------
 BYTE   W96
//  #09 //042   ----------------------------------------
 BYTE   W96
//  #09 //043   ----------------------------------------
 BYTE   W96
//  #09 //044   ----------------------------------------
 BYTE   W96
//  #09 //045   ----------------------------------------
 BYTE   W96
//  #09 //046   ----------------------------------------
 BYTE   W96
//  #09 //047   ----------------------------------------
 BYTE   W96
//  #09 //048   ----------------------------------------
 BYTE   W96
//  #09 //049   ----------------------------------------
 BYTE   W96
//  #09 //050   ----------------------------------------
 BYTE   W96
//  #09 //051   ----------------------------------------
 BYTE   W96
//  #09 //052   ----------------------------------------
 BYTE   W96
//  #09 //053   ----------------------------------------
 BYTE   W96
//  #09 //054   ----------------------------------------
 BYTE   W96
//  #09 //055   ----------------------------------------
 BYTE   W96
//  #09 //056   ----------------------------------------
 BYTE   W96
//  #09 //057   ----------------------------------------
 BYTE   W96
//  #09 //058   ----------------------------------------
 BYTE   W96
//  #09 //059   ----------------------------------------
 BYTE   W96
//  #09 //060   ----------------------------------------
 BYTE   W96
//  #09 //061   ----------------------------------------
 BYTE   W96
//  #09 //062   ----------------------------------------
 BYTE   W96
//  #09 //063   ----------------------------------------
 BYTE   W96
//  #09 //064   ----------------------------------------
 BYTE   W96
//  #09 //065   ----------------------------------------
 BYTE   W96
//  #09 //066   ----------------------------------------
 BYTE   W96
//  #09 //067   ----------------------------------------
 BYTE   W12
 BYTE   N11  Bn2  v092
 BYTE   W12
 BYTE   En3  v084
 BYTE   W12
 BYTE   Bn3  v088
 BYTE   W12
 BYTE   An3
 BYTE   W12
 BYTE   Gn3  v080
 BYTE   W12
 BYTE   Fs3  v084
 BYTE   W12
 BYTE   GoTo
  POIN2 Label_01730BFF
//  #09 //068   ----------------------------------------
 BYTE   N11  Dn3  v088
 BYTE   W12
 BYTE   W04
 BYTE   FINE

//**************** Track 10 (Midi-Chn.9) ****************//

SlayAndFall_010:
//  #10 //000   ----------------------------------------
 BYTE   KEYSH   SlayAndFall_key+0
 BYTE   VOICE   28
 BYTE   VOL   30*SlayAndFall_mvl/mxv
 BYTE   PAN   c_v+61
 BYTE   W96
//  #10 //001   ----------------------------------------
 BYTE   W96
//  #10 //002   ----------------------------------------
 BYTE   W96
//  #10 //003   ----------------------------------------
 BYTE   W84
Label_0158A8FC:
 BYTE   W12
//  #10 //004   ----------------------------------------
 BYTE   W96
//  #10 //005   ----------------------------------------
 BYTE   W96
//  #10 //006   ----------------------------------------
 BYTE   W96
//  #10 //007   ----------------------------------------
 BYTE   W96
//  #10 //008   ----------------------------------------
 BYTE   W96
//  #10 //009   ----------------------------------------
 BYTE   W96
//  #10 //010   ----------------------------------------
 BYTE   W96
//  #10 //011   ----------------------------------------
 BYTE   W96
//  #10 //012   ----------------------------------------
 BYTE   W96
//  #10 //013   ----------------------------------------
 BYTE   W96
//  #10 //014   ----------------------------------------
 BYTE   W96
//  #10 //015   ----------------------------------------
 BYTE   W96
//  #10 //016   ----------------------------------------
 BYTE   W96
//  #10 //017   ----------------------------------------
 BYTE   W96
//  #10 //018   ----------------------------------------
 BYTE   W96
//  #10 //019   ----------------------------------------
 BYTE   W96
//  #10 //020   ----------------------------------------
 BYTE   W96
//  #10 //021   ----------------------------------------
 BYTE   W96
//  #10 //022   ----------------------------------------
 BYTE   W96
//  #10 //023   ----------------------------------------
 BYTE   W96
//  #10 //024   ----------------------------------------
 BYTE   W96
//  #10 //025   ----------------------------------------
 BYTE   W96
//  #10 //026   ----------------------------------------
 BYTE   W96
//  #10 //027   ----------------------------------------
 BYTE   W96
//  #10 //028   ----------------------------------------
 BYTE   W96
//  #10 //029   ----------------------------------------
 BYTE   W96
//  #10 //030   ----------------------------------------
 BYTE   W96
//  #10 //031   ----------------------------------------
 BYTE   W96
//  #10 //032   ----------------------------------------
 BYTE   W96
//  #10 //033   ----------------------------------------
 BYTE   W96
//  #10 //034   ----------------------------------------
 BYTE   W96
//  #10 //035   ----------------------------------------
 BYTE   W12
 BYTE   N11  En3  v092
 BYTE   W12
 BYTE   Fs3
 BYTE   W12
 BYTE   Gn3
 BYTE   W12
 BYTE   An3
 BYTE   W12
 BYTE   N05  Gn3
 BYTE   W12
 BYTE   An3
 BYTE   W12
 BYTE   Gn3
 BYTE   W12
//  #10 //036   ----------------------------------------
Label_0158A92E:
 BYTE   N23  Fs3  v092
 BYTE   W24
 BYTE   N05  Gn3
 BYTE   W12
 BYTE   N72  En3
 BYTE   W60
 BYTE   PEND 
//  #10 //037   ----------------------------------------
 BYTE   W36
 BYTE   N11
 BYTE   W12
 BYTE   An3
 BYTE   W12
 BYTE   N13  Gn3
 BYTE   W12
 BYTE   N08  Fs3
 BYTE   W12
 BYTE   N02  En3
 BYTE   W12
//  #10 //038   ----------------------------------------
 BYTE   N23  Fs3
 BYTE   W24
 BYTE   N11  Gn3
 BYTE   W12
 BYTE   N05  Fs3
 BYTE   W24
 BYTE   N04  En3
 BYTE   W24
 BYTE   N06  Fs3
 BYTE   W12
//  #10 //039   ----------------------------------------
 BYTE   W12
 BYTE   N07  Gn3
 BYTE   W24
 BYTE   N23  An3
 BYTE   W24
 BYTE   N06  Gn3
 BYTE   W12
 BYTE   N05  An3
 BYTE   W12
 BYTE   N02  Gn3
 BYTE   W12
//  #10 //040   ----------------------------------------
 BYTE   N23  An3
 BYTE   W24
 BYTE   N05  Gn3
 BYTE   W12
 BYTE   N72  Dn3
 BYTE   W60
//  #10 //041   ----------------------------------------
 BYTE   W96
//  #10 //042   ----------------------------------------
 BYTE   N17  Fs3
 BYTE   W24
 BYTE   N05  Dn3
 BYTE   W12
 BYTE   N07
 BYTE   W24
 BYTE   N05  Bn2
 BYTE   W24
 BYTE   N24  En3
 BYTE   W12
//  #10 //043   ----------------------------------------
 BYTE   W12
 BYTE   N03  Dn3
 BYTE   W12
 BYTE   N23
 BYTE   W72
//  #10 //044   ----------------------------------------
 BYTE   PATT
  POIN2 Label_0158A92E
//  #10 //045   ----------------------------------------
 BYTE   W36
 BYTE   N15  En3  v092
 BYTE   W12
 BYTE   N11  An3
 BYTE   W12
 BYTE   N13  Gn3
 BYTE   W12
 BYTE   N08  Fs3
 BYTE   W12
 BYTE   N02  En3
 BYTE   W12
//  #10 //046   ----------------------------------------
 BYTE   N24  Fs3
 BYTE   W24
 BYTE   N15  Gn3
 BYTE   W12
 BYTE   N05  Fs3
 BYTE   W24
 BYTE   N04  En3
 BYTE   W24
 BYTE   N06  Fs3
 BYTE   W12
//  #10 //047   ----------------------------------------
 BYTE   W12
 BYTE   N07  Gn3
 BYTE   W24
 BYTE   N20  An3
 BYTE   W24
 BYTE   N06  Gn3
 BYTE   W12
 BYTE   N05  An3
 BYTE   W12
 BYTE   N02  Gn3
 BYTE   W12
//  #10 //048   ----------------------------------------
 BYTE   N17  An3
 BYTE   W24
 BYTE   N05  Gn3
 BYTE   W12
 BYTE   N68  Bn3
 BYTE   W60
//  #10 //049   ----------------------------------------
 BYTE   W96
//  #10 //050   ----------------------------------------
 BYTE   N24  Cn4
 BYTE   W24
 BYTE   N05  Bn3
 BYTE   W12
 BYTE   An3
 BYTE   W24
 BYTE   Gn3
 BYTE   W24
 BYTE   N06  An3
 BYTE   W12
//  #10 //051   ----------------------------------------
 BYTE   W12
 BYTE   N02  Bn3
 BYTE   W12
 BYTE   N28
 BYTE   W72
//  #10 //052   ----------------------------------------
 BYTE   W96
//  #10 //053   ----------------------------------------
 BYTE   W96
//  #10 //054   ----------------------------------------
 BYTE   W96
//  #10 //055   ----------------------------------------
 BYTE   W96
//  #10 //056   ----------------------------------------
 BYTE   N40  Cn4
 BYTE   N40  En4
 BYTE   W48
 BYTE   N28  Gn3
 BYTE   N28  Cn4
 BYTE   W36
 BYTE   N23  Bn3
 BYTE   N23  Dn4
 BYTE   W12
//  #10 //057   ----------------------------------------
 BYTE   W12
 BYTE   N11  An4
 BYTE   W12
 BYTE   Fs4
 BYTE   W12
 BYTE   N23  En4
 BYTE   N32  Gn4
 BYTE   W24
 BYTE   N11  Dn3
 BYTE   W12
 BYTE   Gn3  v084
 BYTE   W12
 BYTE   An3  v096
 BYTE   W12
//  #10 //058   ----------------------------------------
 BYTE   N23  Cn4  v092
 BYTE   N23  Cn5
 BYTE   W24
 BYTE   N11  Bn3
 BYTE   N11  Bn4
 BYTE   W12
 BYTE   N17  Gn3
 BYTE   N28  Gn4  v096
 BYTE   W24
 BYTE   N11  Dn3  v092
 BYTE   W12
 BYTE   Gn3
 BYTE   W12
 BYTE   An3
 BYTE   W12
//  #10 //059   ----------------------------------------
 BYTE   N23  Cn4
 BYTE   N23  Cn5  v096
 BYTE   W24
 BYTE   N11  Bn3  v092
 BYTE   N11  Bn4  v096
 BYTE   W12
 BYTE   N17  Gn3  v092
 BYTE   N28  Gn4
 BYTE   W24
 BYTE   N05  Dn3
 BYTE   W12
 BYTE   N11  Gn3
 BYTE   W12
 BYTE   An3
 BYTE   W12
//  #10 //060   ----------------------------------------
 BYTE   N23  As3
 BYTE   N23  Gn4  v088
 BYTE   N23  As4  v092
 BYTE   W24
 BYTE   N11  An3
 BYTE   N05  Fn4  v072
 BYTE   N05  An4  v084
 BYTE   W12
 BYTE   N76  Gn3  v092
 BYTE   N80  Ds4  v088
 BYTE   N80  Gn4
 BYTE   W60
//  #10 //061   ----------------------------------------
 BYTE   W84
 BYTE   N11  An4  v080
 BYTE   W12
//  #10 //062   ----------------------------------------
 BYTE   W12
 BYTE   N05  An4  v076
 BYTE   W12
 BYTE   Dn5  v072
 BYTE   W12
 BYTE   An4  v080
 BYTE   W12
 BYTE   An4  v036
 BYTE   W12
 BYTE   Dn5  v072
 BYTE   W24
 BYTE   N07  An4  v076
 BYTE   W12
//  #10 //063   ----------------------------------------
 BYTE   W12
 BYTE   N05  Dn5  v080
 BYTE   W24
 BYTE   An4
 BYTE   W24
 BYTE   An4  v072
 BYTE   W12
 BYTE   Dn5  v076
 BYTE   W12
 BYTE   An4  v036
 BYTE   W12
//  #10 //064   ----------------------------------------
 BYTE   N17  Bn4  v076
 BYTE   W24
 BYTE   N06  En5  v080
 BYTE   W12
 BYTE   Bn4  v076
 BYTE   W12
 BYTE   Bn4  v036
 BYTE   W12
 BYTE   N05  En5  v080
 BYTE   W24
 BYTE   N07  Bn4
 BYTE   W12
//  #10 //065   ----------------------------------------
 BYTE   W12
 BYTE   N06  En5  v076
 BYTE   W24
 BYTE   N07  Bn4  v080
 BYTE   W24
 BYTE   Bn4  v076
 BYTE   W12
 BYTE   N06  En5  v080
 BYTE   W12
 BYTE   En5  v040
 BYTE   W12
//  #10 //066   ----------------------------------------
 BYTE   W96
//  #10 //067   ----------------------------------------
 BYTE   W84
 BYTE   GoTo
  POIN2 Label_0158A8FC
//  #10 //068   ----------------------------------------
 BYTE   W12
 BYTE   W04
 BYTE   FINE

//**************** Track 11 (Midi-Chn.10) ****************//

SlayAndFall_011:
//  #11 //000   ----------------------------------------
 BYTE   KEYSH   SlayAndFall_key+0
 BYTE   VOICE   18
 BYTE   VOL   30*SlayAndFall_mvl/mxv
 BYTE   PAN   c_v+62
 BYTE   W96
//  #11 //001   ----------------------------------------
 BYTE   W96
//  #11 //002   ----------------------------------------
 BYTE   W96
//  #11 //003   ----------------------------------------
 BYTE   W84
Label_01730F1C:
 BYTE   W12
//  #11 //004   ----------------------------------------
 BYTE   W96
//  #11 //005   ----------------------------------------
 BYTE   W96
//  #11 //006   ----------------------------------------
 BYTE   W96
//  #11 //007   ----------------------------------------
 BYTE   W96
//  #11 //008   ----------------------------------------
 BYTE   W96
//  #11 //009   ----------------------------------------
 BYTE   W96
//  #11 //010   ----------------------------------------
 BYTE   W96
//  #11 //011   ----------------------------------------
 BYTE   W96
//  #11 //012   ----------------------------------------
 BYTE   W96
//  #11 //013   ----------------------------------------
 BYTE   W96
//  #11 //014   ----------------------------------------
 BYTE   W96
//  #11 //015   ----------------------------------------
 BYTE   W96
//  #11 //016   ----------------------------------------
 BYTE   W96
//  #11 //017   ----------------------------------------
 BYTE   W96
//  #11 //018   ----------------------------------------
 BYTE   W96
//  #11 //019   ----------------------------------------
 BYTE   W96
//  #11 //020   ----------------------------------------
 BYTE   W96
//  #11 //021   ----------------------------------------
 BYTE   W96
//  #11 //022   ----------------------------------------
 BYTE   W96
//  #11 //023   ----------------------------------------
 BYTE   W96
//  #11 //024   ----------------------------------------
 BYTE   W96
//  #11 //025   ----------------------------------------
 BYTE   W96
//  #11 //026   ----------------------------------------
 BYTE   W96
//  #11 //027   ----------------------------------------
 BYTE   W96
//  #11 //028   ----------------------------------------
 BYTE   W96
//  #11 //029   ----------------------------------------
 BYTE   W96
//  #11 //030   ----------------------------------------
 BYTE   W96
//  #11 //031   ----------------------------------------
 BYTE   W96
//  #11 //032   ----------------------------------------
 BYTE   W96
//  #11 //033   ----------------------------------------
 BYTE   W96
//  #11 //034   ----------------------------------------
 BYTE   W96
//  #11 //035   ----------------------------------------
 BYTE   W96
//  #11 //036   ----------------------------------------
Label_01730F3D:
 BYTE   W24
 BYTE   N11  Bn3  v080
 BYTE   W12
 BYTE   N56  En4
 BYTE   W60
 BYTE   PEND 
//  #11 //037   ----------------------------------------
 BYTE   W96
//  #11 //038   ----------------------------------------
 BYTE   PATT
  POIN2 Label_01730F3D
//  #11 //039   ----------------------------------------
 BYTE   W96
//  #11 //040   ----------------------------------------
Label_01730F4D:
 BYTE   W24
 BYTE   N11  Bn3  v080
 BYTE   W12
 BYTE   N56  Dn4
 BYTE   W60
 BYTE   PEND 
//  #11 //041   ----------------------------------------
 BYTE   W96
//  #11 //042   ----------------------------------------
 BYTE   PATT
  POIN2 Label_01730F4D
//  #11 //043   ----------------------------------------
 BYTE   W96
//  #11 //044   ----------------------------------------
 BYTE   PATT
  POIN2 Label_01730F3D
//  #11 //045   ----------------------------------------
 BYTE   W96
//  #11 //046   ----------------------------------------
 BYTE   PATT
  POIN2 Label_01730F3D
//  #11 //047   ----------------------------------------
 BYTE   W96
//  #11 //048   ----------------------------------------
 BYTE   PATT
  POIN2 Label_01730F4D
//  #11 //049   ----------------------------------------
 BYTE   W96
//  #11 //050   ----------------------------------------
 BYTE   W96
//  #11 //051   ----------------------------------------
 BYTE   W96
//  #11 //052   ----------------------------------------
 BYTE   W96
//  #11 //053   ----------------------------------------
 BYTE   W96
//  #11 //054   ----------------------------------------
 BYTE   W96
//  #11 //055   ----------------------------------------
 BYTE   W96
//  #11 //056   ----------------------------------------
 BYTE   W96
//  #11 //057   ----------------------------------------
 BYTE   W96
//  #11 //058   ----------------------------------------
 BYTE   W96
//  #11 //059   ----------------------------------------
 BYTE   W96
//  #11 //060   ----------------------------------------
 BYTE   W96
//  #11 //061   ----------------------------------------
 BYTE   W96
//  #11 //062   ----------------------------------------
 BYTE   W96
//  #11 //063   ----------------------------------------
 BYTE   W96
//  #11 //064   ----------------------------------------
 BYTE   W96
//  #11 //065   ----------------------------------------
 BYTE   W96
//  #11 //066   ----------------------------------------
 BYTE   W96
//  #11 //067   ----------------------------------------
 BYTE   W84
 BYTE   GoTo
  POIN2 Label_01730F1C
//  #11 //068   ----------------------------------------
 BYTE   W12
 BYTE   W04
 BYTE   FINE

//******************************************************//
	ALIGN 4

SlayAndFall:
	BYTE	11	// NumTrks
	BYTE	0	// NumBlks
	BYTE	SlayAndFall_pri	// Priority
	BYTE	SlayAndFall_rev	// Reverb.
    
	POIN2	SlayAndFall_grp
    
	POIN2	SlayAndFall_001
	POIN2	SlayAndFall_002
	POIN2	SlayAndFall_003
	POIN2	SlayAndFall_004
	POIN2	SlayAndFall_005
	POIN2	SlayAndFall_006
	POIN2	SlayAndFall_007
	POIN2	SlayAndFall_008
	POIN2	SlayAndFall_009
	POIN2	SlayAndFall_010
	POIN2	SlayAndFall_011

	
