//Event file generated from Sappy .s format.
	#include "MPlayDef.event"

	#define	SMT4B4_grp  voicegroup000
	#define	SMT4B4_pri  0
	#define	SMT4B4_rev  0
	#define	SMT4B4_mvl  127
	#define	SMT4B4_key  0
	#define	SMT4B4_tbs  1
	#define	SMT4B4_exg  0
	#define	SMT4B4_cmp  1

	// .rodata
	//	SMT4B4
	ALIGN 4


//**************** Track 1 (Midi-Chn.0) ****************//

SMT4B4_001:
//  #01 //000   ----------------------------------------
 BYTE   VOL   50*SMT4B4_mvl/mxv
 BYTE   KEYSH   SMT4B4_key+0
 BYTE   TEMPO   132*SMT4B4_tbs/2
 BYTE   VOICE   38
 BYTE   W96
//  #01 //001   ----------------------------------------
 BYTE   W96
//  #01 //002   ----------------------------------------
 BYTE   W96
//  #01 //003   ----------------------------------------
 BYTE   W96
//  #01 //004   ----------------------------------------
 BYTE   W96
//  #01 //005   ----------------------------------------
 BYTE   W96
//  #01 //006   ----------------------------------------
Label_010043CE:
 BYTE   N24  En0  v104
 BYTE   W30
 BYTE   N06
 BYTE   W42
 BYTE   N12
 BYTE   W18
 BYTE   N06
 BYTE   W06
 BYTE   PEND 
//  #01 //007   ----------------------------------------
Label_010043D9:
 BYTE   W48
 BYTE   N12  En0  v104
 BYTE   W18
 BYTE   N06
 BYTE   W30
 BYTE   PEND 
//  #01 //008   ----------------------------------------
Label_010043E1:
 BYTE   W24
 BYTE   N12  En0  v104
 BYTE   W18
 BYTE   N06
 BYTE   W12
 BYTE   N12
 BYTE   W42
 BYTE   PEND 
//  #01 //009   ----------------------------------------
 BYTE   PATT
  POIN2 Label_010043CE
//  #01 //010   ----------------------------------------
 BYTE   PATT
  POIN2 Label_010043D9
//  #01 //011   ----------------------------------------
 BYTE   PATT
  POIN2 Label_010043E1
//  #01 //012   ----------------------------------------
 BYTE   PATT
  POIN2 Label_010043CE
//  #01 //013   ----------------------------------------
 BYTE   PATT
  POIN2 Label_010043D9
//  #01 //014   ----------------------------------------
 BYTE   PATT
  POIN2 Label_010043E1
//  #01 //015   ----------------------------------------
 BYTE   PATT
  POIN2 Label_010043CE
//  #01 //016   ----------------------------------------
 BYTE   PATT
  POIN2 Label_010043D9
//  #01 //017   ----------------------------------------
 BYTE   PATT
  POIN2 Label_010043E1
//  #01 //018   ----------------------------------------
Label_01004418:
 BYTE   N18  En0  v104
 BYTE   W18
 BYTE   N06
 BYTE   W12
 BYTE   N06
 BYTE   W06
 BYTE   Dn0
 BYTE   W18
 BYTE   En0
 BYTE   W18
 BYTE   N18
 BYTE   W18
 BYTE   N06
 BYTE   W06
 BYTE   PEND 
//  #01 //019   ----------------------------------------
Label_01004429:
 BYTE   W06
 BYTE   N06  En0  v104
 BYTE   W18
 BYTE   N12  Dn0
 BYTE   W12
 BYTE   N06  En0
 BYTE   W12
 BYTE   N18
 BYTE   W18
 BYTE   N06
 BYTE   W18
 BYTE   N12  Dn0
 BYTE   W12
 BYTE   PEND 
//  #01 //020   ----------------------------------------
Label_0100443C:
 BYTE   W06
 BYTE   N06  En0  v104
 BYTE   W18
 BYTE   N12
 BYTE   W18
 BYTE   N06
 BYTE   W12
 BYTE   N06
 BYTE   W18
 BYTE   Dn0
 BYTE   W12
 BYTE   En0
 BYTE   W12
 BYTE   PEND 
//  #01 //021   ----------------------------------------
 BYTE   PATT
  POIN2 Label_01004418
//  #01 //022   ----------------------------------------
 BYTE   PATT
  POIN2 Label_01004429
//  #01 //023   ----------------------------------------
 BYTE   PATT
  POIN2 Label_0100443C
//  #01 //024   ----------------------------------------
 BYTE   PATT
  POIN2 Label_01004418
//  #01 //025   ----------------------------------------
 BYTE   PATT
  POIN2 Label_01004429
//  #01 //026   ----------------------------------------
 BYTE   PATT
  POIN2 Label_0100443C
//  #01 //027   ----------------------------------------
 BYTE   PATT
  POIN2 Label_01004418
//  #01 //028   ----------------------------------------
 BYTE   PATT
  POIN2 Label_01004429
//  #01 //029   ----------------------------------------
Label_01004474:
 BYTE   W06
 BYTE   N06  En0  v104
 BYTE   W18
 BYTE   N12
 BYTE   W18
 BYTE   N06
 BYTE   W54
 BYTE   PEND 
//  #01 //030   ----------------------------------------
Label_0100447E:
 BYTE   N18  Fn0  v096
 BYTE   W18
 BYTE   N18
 BYTE   W18
 BYTE   N12
 BYTE   W12
 BYTE   N09  Ds1
 BYTE   W12
 BYTE   N18  Fn0
 BYTE   W18
 BYTE   N12
 BYTE   W12
 BYTE   N09  Ds1
 BYTE   W06
 BYTE   PEND 
//  #01 //031   ----------------------------------------
Label_01004492:
 BYTE   W06
 BYTE   N18  Fn0  v096
 BYTE   W18
 BYTE   N12
 BYTE   W12
 BYTE   N09  Ds1
 BYTE   W12
 BYTE   N18  Fn0
 BYTE   W18
 BYTE   N18
 BYTE   W18
 BYTE   N12
 BYTE   W12
 BYTE   PEND 
//  #01 //032   ----------------------------------------
Label_010044A4:
 BYTE   N09  Ds1  v096
 BYTE   W12
 BYTE   N12  Fn0
 BYTE   W12
 BYTE   N09  Ds1
 BYTE   W12
 BYTE   Fn1
 BYTE   W12
 BYTE   N06  Fn0
 BYTE   W06
 BYTE   N06
 BYTE   W06
 BYTE   Gn1
 BYTE   W06
 BYTE   Gs1
 BYTE   W06
 BYTE   N09  Gn1
 BYTE   W12
 BYTE   Ds1
 BYTE   W12
 BYTE   PEND 
//  #01 //033   ----------------------------------------
Label_010044BF:
 BYTE   N18  Fn0  v096
 BYTE   W18
 BYTE   N06
 BYTE   W12
 BYTE   N06
 BYTE   W06
 BYTE   Ds1
 BYTE   W06
 BYTE   Fn1
 BYTE   W06
 BYTE   N12
 BYTE   W12
 BYTE   N18  Fn0
 BYTE   W30
 BYTE   N06
 BYTE   W06
 BYTE   PEND 
//  #01 //034   ----------------------------------------
Label_010044D3:
 BYTE   N06  Ds1  v096
 BYTE   W12
 BYTE   N12  Fn1
 BYTE   W12
 BYTE   N12
 BYTE   W12
 BYTE   N06
 BYTE   W06
 BYTE   Ds1
 BYTE   W06
 BYTE   Fn1
 BYTE   W06
 BYTE   N12  Fn0
 BYTE   W18
 BYTE   N06
 BYTE   W06
 BYTE   Ds1
 BYTE   W06
 BYTE   Fn1
 BYTE   W12
 BYTE   PEND 
//  #01 //035   ----------------------------------------
Label_010044EC:
 BYTE   N12  Fn1  v096
 BYTE   W12
 BYTE   Fn0
 BYTE   W12
 BYTE   N06  Gn1
 BYTE   W06
 BYTE   Gs1
 BYTE   W06
 BYTE   Gn1
 BYTE   W06
 BYTE   As0
 BYTE   W06
 BYTE   Ds1
 BYTE   W18
 BYTE   N18  Bn0
 BYTE   W18
 BYTE   N12  Ds1
 BYTE   W12
 BYTE   PEND 
//  #01 //036   ----------------------------------------
 BYTE   PATT
  POIN2 Label_0100447E
//  #01 //037   ----------------------------------------
 BYTE   PATT
  POIN2 Label_01004492
//  #01 //038   ----------------------------------------
 BYTE   PATT
  POIN2 Label_010044A4
//  #01 //039   ----------------------------------------
 BYTE   PATT
  POIN2 Label_010044BF
//  #01 //040   ----------------------------------------
Label_01004518:
 BYTE   N06  Ds1  v096
 BYTE   W12
 BYTE   Fn1
 BYTE   W06
 BYTE   N18
 BYTE   W18
 BYTE   N06
 BYTE   W06
 BYTE   Ds1
 BYTE   W06
 BYTE   Fn1
 BYTE   W06
 BYTE   N12  Fn0
 BYTE   W18
 BYTE   N06
 BYTE   W12
 BYTE   N06
 BYTE   W12
 BYTE   PEND 
//  #01 //041   ----------------------------------------
Label_0100452E:
 BYTE   N12  Fn1  v096
 BYTE   W12
 BYTE   Fn0
 BYTE   W18
 BYTE   N06
 BYTE   W12
 BYTE   Fn1
 BYTE   W06
 BYTE   Gn1
 BYTE   W06
 BYTE   N03  Gs1
 BYTE   W06
 BYTE   N12  Fn1
 BYTE   W12
 BYTE   Ds1
 BYTE   W12
 BYTE   Fn1
 BYTE   W12
 BYTE   PEND 
//  #01 //042   ----------------------------------------
Label_01004545:
 BYTE   N24  En0  v096
 BYTE   W24
 BYTE   N24
 BYTE   W24
 BYTE   N24
 BYTE   W24
 BYTE   N24
 BYTE   W24
 BYTE   PEND 
//  #01 //043   ----------------------------------------
 BYTE   PATT
  POIN2 Label_01004545
//  #01 //044   ----------------------------------------
 BYTE   PATT
  POIN2 Label_01004545
//  #01 //045   ----------------------------------------
 BYTE   PATT
  POIN2 Label_01004545
//  #01 //046   ----------------------------------------
 BYTE   PATT
  POIN2 Label_01004545
//  #01 //047   ----------------------------------------
 BYTE   PATT
  POIN2 Label_01004545
//  #01 //048   ----------------------------------------
 BYTE   PATT
  POIN2 Label_01004545
//  #01 //049   ----------------------------------------
 BYTE   PATT
  POIN2 Label_01004545
//  #01 //050   ----------------------------------------
 BYTE   PATT
  POIN2 Label_01004545
//  #01 //051   ----------------------------------------
 BYTE   PATT
  POIN2 Label_01004545
//  #01 //052   ----------------------------------------
 BYTE   PATT
  POIN2 Label_01004545
//  #01 //053   ----------------------------------------
 BYTE   PATT
  POIN2 Label_01004545
//  #01 //054   ----------------------------------------
 BYTE   PATT
  POIN2 Label_01004545
//  #01 //055   ----------------------------------------
 BYTE   PATT
  POIN2 Label_01004545
//  #01 //056   ----------------------------------------
 BYTE   PATT
  POIN2 Label_01004545
//  #01 //057   ----------------------------------------
 BYTE   PATT
  POIN2 Label_01004545
//  #01 //058   ----------------------------------------
 BYTE   PATT
  POIN2 Label_01004545
//  #01 //059   ----------------------------------------
 BYTE   PATT
  POIN2 Label_01004545
//  #01 //060   ----------------------------------------
 BYTE   PATT
  POIN2 Label_01004545
//  #01 //061   ----------------------------------------
 BYTE   PATT
  POIN2 Label_01004545
//  #01 //062   ----------------------------------------
 BYTE   PATT
  POIN2 Label_01004545
//  #01 //063   ----------------------------------------
 BYTE   PATT
  POIN2 Label_01004545
//  #01 //064   ----------------------------------------
 BYTE   PATT
  POIN2 Label_01004545
//  #01 //065   ----------------------------------------
 BYTE   PATT
  POIN2 Label_01004545
//  #01 //066   ----------------------------------------
 BYTE   N24  En0  v096
 BYTE   W96
//  #01 //067   ----------------------------------------
 BYTE   W48
 BYTE   N24
 BYTE   W48
//  #01 //068   ----------------------------------------
 BYTE   W96
//  #01 //069   ----------------------------------------
 BYTE   GoTo
  POIN2 Label_010043CE
//  #01 //070   ----------------------------------------
 BYTE   PATT
  POIN2 Label_010043CE
//  #01 //071   ----------------------------------------
 BYTE   PATT
  POIN2 Label_010043D9
//  #01 //072   ----------------------------------------
 BYTE   PATT
  POIN2 Label_010043E1
//  #01 //073   ----------------------------------------
 BYTE   PATT
  POIN2 Label_010043CE
//  #01 //074   ----------------------------------------
 BYTE   PATT
  POIN2 Label_010043D9
//  #01 //075   ----------------------------------------
 BYTE   PATT
  POIN2 Label_010043E1
//  #01 //076   ----------------------------------------
 BYTE   PATT
  POIN2 Label_010043CE
//  #01 //077   ----------------------------------------
 BYTE   PATT
  POIN2 Label_010043D9
//  #01 //078   ----------------------------------------
 BYTE   PATT
  POIN2 Label_010043E1
//  #01 //079   ----------------------------------------
 BYTE   PATT
  POIN2 Label_010043CE
//  #01 //080   ----------------------------------------
 BYTE   PATT
  POIN2 Label_010043D9
//  #01 //081   ----------------------------------------
 BYTE   PATT
  POIN2 Label_010043E1
//  #01 //082   ----------------------------------------
 BYTE   PATT
  POIN2 Label_01004418
//  #01 //083   ----------------------------------------
 BYTE   PATT
  POIN2 Label_01004429
//  #01 //084   ----------------------------------------
 BYTE   PATT
  POIN2 Label_0100443C
//  #01 //085   ----------------------------------------
 BYTE   PATT
  POIN2 Label_01004418
//  #01 //086   ----------------------------------------
 BYTE   PATT
  POIN2 Label_01004429
//  #01 //087   ----------------------------------------
 BYTE   PATT
  POIN2 Label_0100443C
//  #01 //088   ----------------------------------------
 BYTE   PATT
  POIN2 Label_01004418
//  #01 //089   ----------------------------------------
 BYTE   PATT
  POIN2 Label_01004429
//  #01 //090   ----------------------------------------
 BYTE   PATT
  POIN2 Label_0100443C
//  #01 //091   ----------------------------------------
 BYTE   PATT
  POIN2 Label_01004418
//  #01 //092   ----------------------------------------
 BYTE   PATT
  POIN2 Label_01004429
//  #01 //093   ----------------------------------------
 BYTE   PATT
  POIN2 Label_01004474
//  #01 //094   ----------------------------------------
 BYTE   PATT
  POIN2 Label_0100447E
//  #01 //095   ----------------------------------------
 BYTE   PATT
  POIN2 Label_01004492
//  #01 //096   ----------------------------------------
 BYTE   PATT
  POIN2 Label_010044A4
//  #01 //097   ----------------------------------------
 BYTE   PATT
  POIN2 Label_010044BF
//  #01 //098   ----------------------------------------
 BYTE   PATT
  POIN2 Label_010044D3
//  #01 //099   ----------------------------------------
 BYTE   PATT
  POIN2 Label_010044EC
//  #01 //100   ----------------------------------------
 BYTE   PATT
  POIN2 Label_0100447E
//  #01 //101   ----------------------------------------
 BYTE   PATT
  POIN2 Label_01004492
//  #01 //102   ----------------------------------------
 BYTE   PATT
  POIN2 Label_010044A4
//  #01 //103   ----------------------------------------
 BYTE   PATT
  POIN2 Label_010044BF
//  #01 //104   ----------------------------------------
 BYTE   PATT
  POIN2 Label_01004518
//  #01 //105   ----------------------------------------
 BYTE   PATT
  POIN2 Label_0100452E
//  #01 //106   ----------------------------------------
 BYTE   PATT
  POIN2 Label_01004545
//  #01 //107   ----------------------------------------
 BYTE   PATT
  POIN2 Label_01004545
//  #01 //108   ----------------------------------------
 BYTE   PATT
  POIN2 Label_01004545
//  #01 //109   ----------------------------------------
 BYTE   PATT
  POIN2 Label_01004545
//  #01 //110   ----------------------------------------
 BYTE   PATT
  POIN2 Label_01004545
//  #01 //111   ----------------------------------------
 BYTE   PATT
  POIN2 Label_01004545
//  #01 //112   ----------------------------------------
 BYTE   PATT
  POIN2 Label_01004545
//  #01 //113   ----------------------------------------
 BYTE   PATT
  POIN2 Label_01004545
//  #01 //114   ----------------------------------------
 BYTE   PATT
  POIN2 Label_01004545
//  #01 //115   ----------------------------------------
 BYTE   PATT
  POIN2 Label_01004545
//  #01 //116   ----------------------------------------
 BYTE   PATT
  POIN2 Label_01004545
//  #01 //117   ----------------------------------------
 BYTE   PATT
  POIN2 Label_01004545
//  #01 //118   ----------------------------------------
 BYTE   PATT
  POIN2 Label_01004545
//  #01 //119   ----------------------------------------
 BYTE   PATT
  POIN2 Label_01004545
//  #01 //120   ----------------------------------------
 BYTE   PATT
  POIN2 Label_01004545
//  #01 //121   ----------------------------------------
 BYTE   PATT
  POIN2 Label_01004545
//  #01 //122   ----------------------------------------
 BYTE   PATT
  POIN2 Label_01004545
//  #01 //123   ----------------------------------------
 BYTE   PATT
  POIN2 Label_01004545
//  #01 //124   ----------------------------------------
 BYTE   PATT
  POIN2 Label_01004545
//  #01 //125   ----------------------------------------
 BYTE   PATT
  POIN2 Label_01004545
//  #01 //126   ----------------------------------------
 BYTE   PATT
  POIN2 Label_01004545
//  #01 //127   ----------------------------------------
 BYTE   PATT
  POIN2 Label_01004545
//  #01 //128   ----------------------------------------
 BYTE   PATT
  POIN2 Label_01004545
//  #01 //129   ----------------------------------------
 BYTE   PATT
  POIN2 Label_01004545
//  #01 //130   ----------------------------------------
 BYTE   N24  En0  v096
 BYTE   W96
//  #01 //131   ----------------------------------------
 BYTE   W48
 BYTE   N24
 BYTE   W48
//  #01 //132   ----------------------------------------
 BYTE   W96
 BYTE   FINE

//**************** Track 2 (Midi-Chn.1) ****************//

SMT4B4_002:
//  #02 //000   ----------------------------------------
 BYTE   KEYSH   SMT4B4_key+0
 BYTE   VOICE   49
 BYTE   VOL   40*SMT4B4_mvl/mxv
 BYTE   PAN   c_v+29
 BYTE   VOL   40*SMT4B4_mvl/mxv
 BYTE   PAN   c_v+29
 BYTE   N18  Fs3  v096
 BYTE   N18  Fs4
 BYTE   W96
//  #02 //001   ----------------------------------------
Label_F52072:
 BYTE   W48
 BYTE   N18  Dn3  v096
 BYTE   N18  Dn4
 BYTE   W48
 BYTE   PEND 
//  #02 //002   ----------------------------------------
 BYTE   W96
//  #02 //003   ----------------------------------------
 BYTE   Fs3
 BYTE   N18  Fs4
 BYTE   W96
//  #02 //004   ----------------------------------------
 BYTE   PATT
  POIN2 Label_F52072
//  #02 //005   ----------------------------------------
 BYTE   W96
//  #02 //006   ----------------------------------------
Label_F52085:
 BYTE   W96
//  #02 //007   ----------------------------------------
 BYTE   W96
//  #02 //008   ----------------------------------------
 BYTE   W96
//  #02 //009   ----------------------------------------
 BYTE   W96
//  #02 //010   ----------------------------------------
 BYTE   W96
//  #02 //011   ----------------------------------------
 BYTE   W96
//  #02 //012   ----------------------------------------
 BYTE   W96
//  #02 //013   ----------------------------------------
 BYTE   W96
//  #02 //014   ----------------------------------------
 BYTE   W96
//  #02 //015   ----------------------------------------
 BYTE   W96
//  #02 //016   ----------------------------------------
 BYTE   W96
//  #02 //017   ----------------------------------------
 BYTE   W96
//  #02 //018   ----------------------------------------
 BYTE   W96
//  #02 //019   ----------------------------------------
 BYTE   W96
//  #02 //020   ----------------------------------------
 BYTE   W96
//  #02 //021   ----------------------------------------
 BYTE   W96
//  #02 //022   ----------------------------------------
 BYTE   W96
//  #02 //023   ----------------------------------------
 BYTE   W96
//  #02 //024   ----------------------------------------
 BYTE   W96
//  #02 //025   ----------------------------------------
 BYTE   W96
//  #02 //026   ----------------------------------------
 BYTE   W96
//  #02 //027   ----------------------------------------
 BYTE   W96
//  #02 //028   ----------------------------------------
 BYTE   W96
//  #02 //029   ----------------------------------------
 BYTE   W96
//  #02 //030   ----------------------------------------
Label_F5209D:
 BYTE   VOL   50*SMT4B4_mvl/mxv
 BYTE   PAN   c_v-7
 BYTE   VOL   50*SMT4B4_mvl/mxv
 BYTE   PAN   c_v-7
 BYTE   N09  Cn3  v120
 BYTE   N09  Fn3
 BYTE   W18
 BYTE   Cn3
 BYTE   N09  Fn3
 BYTE   W54
 BYTE   As2
 BYTE   N09  Ds3
 BYTE   W18
 BYTE   As2
 BYTE   N09  Ds3
 BYTE   W06
 BYTE   PEND 
//  #02 //031   ----------------------------------------
Label_F520B8:
 BYTE   W48
 BYTE   N09  Gs2  v120
 BYTE   N09  Cs3
 BYTE   W18
 BYTE   Gs2
 BYTE   N09  Cs3
 BYTE   W30
 BYTE   PEND 
//  #02 //032   ----------------------------------------
Label_F520C4:
 BYTE   W24
 BYTE   N09  As2  v120
 BYTE   N09  Ds3
 BYTE   W18
 BYTE   As2
 BYTE   N09  Ds3
 BYTE   W54
 BYTE   PEND 
//  #02 //033   ----------------------------------------
Label_F520D0:
 BYTE   N09  Cn3  v120
 BYTE   N09  Fn3
 BYTE   W18
 BYTE   Cn3
 BYTE   N09  Fn3
 BYTE   W54
 BYTE   As2
 BYTE   N09  Ds3
 BYTE   W18
 BYTE   As2
 BYTE   N09  Ds3
 BYTE   W06
 BYTE   PEND 
//  #02 //034   ----------------------------------------
 BYTE   PATT
  POIN2 Label_F520B8
//  #02 //035   ----------------------------------------
 BYTE   PATT
  POIN2 Label_F520C4
//  #02 //036   ----------------------------------------
 BYTE   PATT
  POIN2 Label_F520D0
//  #02 //037   ----------------------------------------
 BYTE   PATT
  POIN2 Label_F520B8
//  #02 //038   ----------------------------------------
 BYTE   PATT
  POIN2 Label_F520C4
//  #02 //039   ----------------------------------------
 BYTE   PATT
  POIN2 Label_F520D0
//  #02 //040   ----------------------------------------
 BYTE   PATT
  POIN2 Label_F520B8
//  #02 //041   ----------------------------------------
Label_F52106:
 BYTE   W24
 BYTE   N09  Gn2  v120
 BYTE   N09  Cn3
 BYTE   W24
 BYTE   Gs2
 BYTE   N09  Cs3
 BYTE   W24
 BYTE   As2
 BYTE   N09  Ds3
 BYTE   W24
 BYTE   PEND 
//  #02 //042   ----------------------------------------
 BYTE   W96
//  #02 //043   ----------------------------------------
 BYTE   W96
//  #02 //044   ----------------------------------------
 BYTE   W96
//  #02 //045   ----------------------------------------
 BYTE   W96
//  #02 //046   ----------------------------------------
 BYTE   W96
//  #02 //047   ----------------------------------------
 BYTE   W96
//  #02 //048   ----------------------------------------
 BYTE   W96
//  #02 //049   ----------------------------------------
 BYTE   W96
//  #02 //050   ----------------------------------------
 BYTE   W96
//  #02 //051   ----------------------------------------
 BYTE   W96
//  #02 //052   ----------------------------------------
 BYTE   W96
//  #02 //053   ----------------------------------------
 BYTE   W96
//  #02 //054   ----------------------------------------
 BYTE   W96
//  #02 //055   ----------------------------------------
 BYTE   W96
//  #02 //056   ----------------------------------------
 BYTE   W96
//  #02 //057   ----------------------------------------
 BYTE   W96
//  #02 //058   ----------------------------------------
 BYTE   W96
//  #02 //059   ----------------------------------------
 BYTE   W96
//  #02 //060   ----------------------------------------
 BYTE   W96
//  #02 //061   ----------------------------------------
 BYTE   W96
//  #02 //062   ----------------------------------------
 BYTE   W96
//  #02 //063   ----------------------------------------
 BYTE   W96
//  #02 //064   ----------------------------------------
 BYTE   W96
//  #02 //065   ----------------------------------------
 BYTE   W96
//  #02 //066   ----------------------------------------
 BYTE   W96
//  #02 //067   ----------------------------------------
 BYTE   W96
//  #02 //068   ----------------------------------------
 BYTE   W96
//  #02 //069   ----------------------------------------
 BYTE   GoTo
  POIN2 Label_F52085
//  #02 //070   ----------------------------------------
 BYTE   W96
//  #02 //071   ----------------------------------------
 BYTE   W96
//  #02 //072   ----------------------------------------
 BYTE   W96
//  #02 //073   ----------------------------------------
 BYTE   W96
//  #02 //074   ----------------------------------------
 BYTE   W96
//  #02 //075   ----------------------------------------
 BYTE   W96
//  #02 //076   ----------------------------------------
 BYTE   W96
//  #02 //077   ----------------------------------------
 BYTE   W96
//  #02 //078   ----------------------------------------
 BYTE   W96
//  #02 //079   ----------------------------------------
 BYTE   W96
//  #02 //080   ----------------------------------------
 BYTE   W96
//  #02 //081   ----------------------------------------
 BYTE   W96
//  #02 //082   ----------------------------------------
 BYTE   W96
//  #02 //083   ----------------------------------------
 BYTE   W96
//  #02 //084   ----------------------------------------
 BYTE   W96
//  #02 //085   ----------------------------------------
 BYTE   W96
//  #02 //086   ----------------------------------------
 BYTE   W96
//  #02 //087   ----------------------------------------
 BYTE   W96
//  #02 //088   ----------------------------------------
 BYTE   W96
//  #02 //089   ----------------------------------------
 BYTE   W96
//  #02 //090   ----------------------------------------
 BYTE   W96
//  #02 //091   ----------------------------------------
 BYTE   W96
//  #02 //092   ----------------------------------------
 BYTE   W96
//  #02 //093   ----------------------------------------
 BYTE   W96
//  #02 //094   ----------------------------------------
 BYTE   PATT
  POIN2 Label_F5209D
//  #02 //095   ----------------------------------------
 BYTE   PATT
  POIN2 Label_F520B8
//  #02 //096   ----------------------------------------
 BYTE   PATT
  POIN2 Label_F520C4
//  #02 //097   ----------------------------------------
 BYTE   PATT
  POIN2 Label_F520D0
//  #02 //098   ----------------------------------------
 BYTE   PATT
  POIN2 Label_F520B8
//  #02 //099   ----------------------------------------
 BYTE   PATT
  POIN2 Label_F520C4
//  #02 //100   ----------------------------------------
 BYTE   PATT
  POIN2 Label_F520D0
//  #02 //101   ----------------------------------------
 BYTE   PATT
  POIN2 Label_F520B8
//  #02 //102   ----------------------------------------
 BYTE   PATT
  POIN2 Label_F520C4
//  #02 //103   ----------------------------------------
 BYTE   PATT
  POIN2 Label_F520D0
//  #02 //104   ----------------------------------------
 BYTE   PATT
  POIN2 Label_F520B8
//  #02 //105   ----------------------------------------
 BYTE   PATT
  POIN2 Label_F52106
//  #02 //106   ----------------------------------------
 BYTE   W96
//  #02 //107   ----------------------------------------
 BYTE   W96
//  #02 //108   ----------------------------------------
 BYTE   W96
//  #02 //109   ----------------------------------------
 BYTE   W96
//  #02 //110   ----------------------------------------
 BYTE   W96
//  #02 //111   ----------------------------------------
 BYTE   W96
//  #02 //112   ----------------------------------------
 BYTE   W96
//  #02 //113   ----------------------------------------
 BYTE   W96
//  #02 //114   ----------------------------------------
 BYTE   W96
//  #02 //115   ----------------------------------------
 BYTE   W96
//  #02 //116   ----------------------------------------
 BYTE   W96
//  #02 //117   ----------------------------------------
 BYTE   W96
//  #02 //118   ----------------------------------------
 BYTE   W96
//  #02 //119   ----------------------------------------
 BYTE   W96
//  #02 //120   ----------------------------------------
 BYTE   W96
//  #02 //121   ----------------------------------------
 BYTE   W96
//  #02 //122   ----------------------------------------
 BYTE   W96
//  #02 //123   ----------------------------------------
 BYTE   W96
//  #02 //124   ----------------------------------------
 BYTE   W96
//  #02 //125   ----------------------------------------
 BYTE   W96
//  #02 //126   ----------------------------------------
 BYTE   W96
//  #02 //127   ----------------------------------------
 BYTE   W96
//  #02 //128   ----------------------------------------
 BYTE   W96
//  #02 //129   ----------------------------------------
 BYTE   W96
//  #02 //130   ----------------------------------------
 BYTE   W96
//  #02 //131   ----------------------------------------
 BYTE   W96
//  #02 //132   ----------------------------------------
 BYTE   W96
 BYTE   FINE

//**************** Track 3 (Midi-Chn.2) ****************//

SMT4B4_003:
//  #03 //000   ----------------------------------------
 BYTE   KEYSH   SMT4B4_key+0
 BYTE   VOICE   38
 BYTE   W96
//  #03 //001   ----------------------------------------
 BYTE   W96
//  #03 //002   ----------------------------------------
 BYTE   W96
//  #03 //003   ----------------------------------------
 BYTE   W96
//  #03 //004   ----------------------------------------
 BYTE   W96
//  #03 //005   ----------------------------------------
 BYTE   W96
//  #03 //006   ----------------------------------------
Label_01004722:
 BYTE   VOL   31*SMT4B4_mvl/mxv
 BYTE   PAN   c_v-23
 BYTE   VOL   31*SMT4B4_mvl/mxv
 BYTE   PAN   c_v-23
 BYTE   N12  En1  v112
 BYTE   N12  En2  v088
 BYTE   W12
 BYTE   N18  En1  v096
 BYTE   N18  En2  v064
 BYTE   W18
 BYTE   N06  En1  v112
 BYTE   N06  En2  v080
 BYTE   W06
 BYTE   En1  v088
 BYTE   N06  En2  v060
 BYTE   W06
 BYTE   En1  v088
 BYTE   N06  En2  v056
 BYTE   W06
 BYTE   En1  v092
 BYTE   N06  En2  v060
 BYTE   W06
 BYTE   En1  v096
 BYTE   N06  En2  v068
 BYTE   W06
 BYTE   En1  v096
 BYTE   N06  En2  v068
 BYTE   W06
 BYTE   En1  v096
 BYTE   N06  En2  v068
 BYTE   W06
 BYTE   N12  En1  v108
 BYTE   N12  En2  v088
 BYTE   W12
 BYTE   N18  En1  v096
 BYTE   N18  En2  v064
 BYTE   W12
 BYTE   PEND 
//  #03 //007   ----------------------------------------
Label_01004772:
 BYTE   W06
 BYTE   N06  En1  v108
 BYTE   N06  En2  v076
 BYTE   W06
 BYTE   En1  v088
 BYTE   N06  En2  v056
 BYTE   W06
 BYTE   En1  v084
 BYTE   N06  En2  v052
 BYTE   W06
 BYTE   En1  v088
 BYTE   N06  En2  v056
 BYTE   W06
 BYTE   En1  v096
 BYTE   N06  En2  v064
 BYTE   W06
 BYTE   En1  v096
 BYTE   N06  En2  v064
 BYTE   W06
 BYTE   En1  v096
 BYTE   N06  En2  v064
 BYTE   W06
 BYTE   N12  En1  v112
 BYTE   N12  En2  v088
 BYTE   W12
 BYTE   N18  En1  v096
 BYTE   N18  En2  v064
 BYTE   W18
 BYTE   N06  En1  v112
 BYTE   N06  En2  v080
 BYTE   W06
 BYTE   En1  v088
 BYTE   N06  En2  v060
 BYTE   W06
 BYTE   En1  v088
 BYTE   N06  En2  v056
 BYTE   W06
 BYTE   PEND 
//  #03 //008   ----------------------------------------
Label_010047C0:
 BYTE   N06  En1  v092
 BYTE   N06  En2  v060
 BYTE   W06
 BYTE   En1  v096
 BYTE   N06  En2  v068
 BYTE   W06
 BYTE   En1  v096
 BYTE   N06  En2  v068
 BYTE   W06
 BYTE   En1  v096
 BYTE   N06  En2  v068
 BYTE   W06
 BYTE   N12  En1  v108
 BYTE   N12  En2  v088
 BYTE   W12
 BYTE   N18  En1  v096
 BYTE   N18  En2  v064
 BYTE   W18
 BYTE   N06  En1  v108
 BYTE   N06  En2  v076
 BYTE   W06
 BYTE   En1  v088
 BYTE   N06  En2  v056
 BYTE   W06
 BYTE   En1  v084
 BYTE   N06  En2  v052
 BYTE   W06
 BYTE   En1  v088
 BYTE   N06  En2  v056
 BYTE   W06
 BYTE   En1  v096
 BYTE   N06  En2  v064
 BYTE   W06
 BYTE   En1  v096
 BYTE   N06  En2  v064
 BYTE   W06
 BYTE   En1  v096
 BYTE   N06  En2  v064
 BYTE   W06
 BYTE   PEND 
//  #03 //009   ----------------------------------------
Label_01004813:
 BYTE   N12  En1  v112
 BYTE   N12  En2  v088
 BYTE   W12
 BYTE   N18  En1  v096
 BYTE   N18  En2  v064
 BYTE   W18
 BYTE   N06  En1  v112
 BYTE   N06  En2  v080
 BYTE   W06
 BYTE   En1  v088
 BYTE   N06  En2  v060
 BYTE   W06
 BYTE   En1  v088
 BYTE   N06  En2  v056
 BYTE   W06
 BYTE   En1  v092
 BYTE   N06  En2  v060
 BYTE   W06
 BYTE   En1  v096
 BYTE   N06  En2  v068
 BYTE   W06
 BYTE   En1  v096
 BYTE   N06  En2  v068
 BYTE   W06
 BYTE   En1  v096
 BYTE   N06  En2  v068
 BYTE   W06
 BYTE   N12  En1  v108
 BYTE   N12  En2  v088
 BYTE   W12
 BYTE   N18  En1  v096
 BYTE   N18  En2  v064
 BYTE   W12
 BYTE   PEND 
//  #03 //010   ----------------------------------------
 BYTE   PATT
  POIN2 Label_01004772
//  #03 //011   ----------------------------------------
 BYTE   PATT
  POIN2 Label_010047C0
//  #03 //012   ----------------------------------------
 BYTE   PATT
  POIN2 Label_01004813
//  #03 //013   ----------------------------------------
 BYTE   PATT
  POIN2 Label_01004772
//  #03 //014   ----------------------------------------
 BYTE   PATT
  POIN2 Label_010047C0
//  #03 //015   ----------------------------------------
 BYTE   PATT
  POIN2 Label_01004813
//  #03 //016   ----------------------------------------
 BYTE   PATT
  POIN2 Label_01004772
//  #03 //017   ----------------------------------------
 BYTE   PATT
  POIN2 Label_010047C0
//  #03 //018   ----------------------------------------
 BYTE   PATT
  POIN2 Label_01004813
//  #03 //019   ----------------------------------------
 BYTE   PATT
  POIN2 Label_01004772
//  #03 //020   ----------------------------------------
 BYTE   PATT
  POIN2 Label_010047C0
//  #03 //021   ----------------------------------------
 BYTE   PATT
  POIN2 Label_01004813
//  #03 //022   ----------------------------------------
 BYTE   PATT
  POIN2 Label_01004772
//  #03 //023   ----------------------------------------
 BYTE   PATT
  POIN2 Label_010047C0
//  #03 //024   ----------------------------------------
 BYTE   PATT
  POIN2 Label_01004813
//  #03 //025   ----------------------------------------
 BYTE   PATT
  POIN2 Label_01004772
//  #03 //026   ----------------------------------------
 BYTE   PATT
  POIN2 Label_010047C0
//  #03 //027   ----------------------------------------
 BYTE   PATT
  POIN2 Label_01004813
//  #03 //028   ----------------------------------------
 BYTE   PATT
  POIN2 Label_01004772
//  #03 //029   ----------------------------------------
 BYTE   PATT
  POIN2 Label_010047C0
//  #03 //030   ----------------------------------------
Label_010048BF:
 BYTE   VOL   31*SMT4B4_mvl/mxv
 BYTE   PAN   c_v-23
 BYTE   VOL   31*SMT4B4_mvl/mxv
 BYTE   PAN   c_v-23
 BYTE   N12  Fn1  v112
 BYTE   N12  Fn2  v088
 BYTE   W12
 BYTE   N18  Fn1  v096
 BYTE   N18  Fn2  v064
 BYTE   W18
 BYTE   N06  Fn1  v112
 BYTE   N06  Fn2  v080
 BYTE   W06
 BYTE   Fn1  v088
 BYTE   N06  Fn2  v060
 BYTE   W06
 BYTE   Fn1  v088
 BYTE   N06  Fn2  v056
 BYTE   W06
 BYTE   Fn1  v092
 BYTE   N06  Fn2  v060
 BYTE   W06
 BYTE   Fn1  v096
 BYTE   N06  Fn2  v068
 BYTE   W06
 BYTE   Fn1  v096
 BYTE   N06  Fn2  v068
 BYTE   W06
 BYTE   Fn1  v096
 BYTE   N06  Fn2  v068
 BYTE   W06
 BYTE   N12  Fn1  v108
 BYTE   N12  Fn2  v088
 BYTE   W12
 BYTE   N18  Fn1  v096
 BYTE   N18  Fn2  v064
 BYTE   W12
 BYTE   PEND 
//  #03 //031   ----------------------------------------
Label_0100490F:
 BYTE   W06
 BYTE   N06  Fn1  v108
 BYTE   N06  Fn2  v076
 BYTE   W06
 BYTE   Fn1  v088
 BYTE   N06  Fn2  v056
 BYTE   W06
 BYTE   Fn1  v084
 BYTE   N06  Fn2  v052
 BYTE   W06
 BYTE   Fn1  v088
 BYTE   N06  Fn2  v056
 BYTE   W06
 BYTE   Fn1  v096
 BYTE   N06  Fn2  v064
 BYTE   W06
 BYTE   Fn1  v096
 BYTE   N06  Fn2  v064
 BYTE   W06
 BYTE   Fn1  v096
 BYTE   N06  Fn2  v064
 BYTE   W06
 BYTE   N12  Fn1  v112
 BYTE   N12  Fn2  v088
 BYTE   W12
 BYTE   N18  Fn1  v096
 BYTE   N18  Fn2  v064
 BYTE   W18
 BYTE   N06  Fn1  v112
 BYTE   N06  Fn2  v080
 BYTE   W06
 BYTE   Fn1  v088
 BYTE   N06  Fn2  v060
 BYTE   W06
 BYTE   Fn1  v088
 BYTE   N06  Fn2  v056
 BYTE   W06
 BYTE   PEND 
//  #03 //032   ----------------------------------------
Label_0100495D:
 BYTE   N06  Fn1  v092
 BYTE   N06  Fn2  v060
 BYTE   W06
 BYTE   Fn1  v096
 BYTE   N06  Fn2  v068
 BYTE   W06
 BYTE   Fn1  v096
 BYTE   N06  Fn2  v068
 BYTE   W06
 BYTE   Fn1  v096
 BYTE   N06  Fn2  v068
 BYTE   W06
 BYTE   N12  Fn1  v108
 BYTE   N12  Fn2  v088
 BYTE   W12
 BYTE   N18  Fn1  v096
 BYTE   N18  Fn2  v064
 BYTE   W18
 BYTE   N06  Fn1  v108
 BYTE   N06  Fn2  v076
 BYTE   W06
 BYTE   Fn1  v088
 BYTE   N06  Fn2  v056
 BYTE   W06
 BYTE   Fn1  v084
 BYTE   N06  Fn2  v052
 BYTE   W06
 BYTE   Fn1  v088
 BYTE   N06  Fn2  v056
 BYTE   W06
 BYTE   Fn1  v096
 BYTE   N06  Fn2  v064
 BYTE   W06
 BYTE   Fn1  v096
 BYTE   N06  Fn2  v064
 BYTE   W06
 BYTE   Fn1  v096
 BYTE   N06  Fn2  v064
 BYTE   W06
 BYTE   PEND 
//  #03 //033   ----------------------------------------
Label_010049B0:
 BYTE   N12  Fn1  v112
 BYTE   N12  Fn2  v088
 BYTE   W12
 BYTE   N18  Fn1  v096
 BYTE   N18  Fn2  v064
 BYTE   W18
 BYTE   N06  Fn1  v112
 BYTE   N06  Fn2  v080
 BYTE   W06
 BYTE   Fn1  v088
 BYTE   N06  Fn2  v060
 BYTE   W06
 BYTE   Fn1  v088
 BYTE   N06  Fn2  v056
 BYTE   W06
 BYTE   Fn1  v092
 BYTE   N06  Fn2  v060
 BYTE   W06
 BYTE   Fn1  v096
 BYTE   N06  Fn2  v068
 BYTE   W06
 BYTE   Fn1  v096
 BYTE   N06  Fn2  v068
 BYTE   W06
 BYTE   Fn1  v096
 BYTE   N06  Fn2  v068
 BYTE   W06
 BYTE   N12  Fn1  v108
 BYTE   N12  Fn2  v088
 BYTE   W12
 BYTE   N18  Fn1  v096
 BYTE   N18  Fn2  v064
 BYTE   W12
 BYTE   PEND 
//  #03 //034   ----------------------------------------
 BYTE   PATT
  POIN2 Label_0100490F
//  #03 //035   ----------------------------------------
 BYTE   PATT
  POIN2 Label_0100495D
//  #03 //036   ----------------------------------------
 BYTE   PATT
  POIN2 Label_010049B0
//  #03 //037   ----------------------------------------
 BYTE   PATT
  POIN2 Label_0100490F
//  #03 //038   ----------------------------------------
 BYTE   PATT
  POIN2 Label_0100495D
//  #03 //039   ----------------------------------------
 BYTE   PATT
  POIN2 Label_010049B0
//  #03 //040   ----------------------------------------
 BYTE   PATT
  POIN2 Label_0100490F
//  #03 //041   ----------------------------------------
 BYTE   PATT
  POIN2 Label_0100495D
//  #03 //042   ----------------------------------------
 BYTE   W96
//  #03 //043   ----------------------------------------
 BYTE   W96
//  #03 //044   ----------------------------------------
 BYTE   W96
//  #03 //045   ----------------------------------------
 BYTE   W96
//  #03 //046   ----------------------------------------
 BYTE   W96
//  #03 //047   ----------------------------------------
 BYTE   W96
//  #03 //048   ----------------------------------------
 BYTE   W96
//  #03 //049   ----------------------------------------
 BYTE   W96
//  #03 //050   ----------------------------------------
 BYTE   W96
//  #03 //051   ----------------------------------------
 BYTE   W96
//  #03 //052   ----------------------------------------
 BYTE   W96
//  #03 //053   ----------------------------------------
 BYTE   W96
//  #03 //054   ----------------------------------------
 BYTE   W96
//  #03 //055   ----------------------------------------
 BYTE   W96
//  #03 //056   ----------------------------------------
 BYTE   W96
//  #03 //057   ----------------------------------------
 BYTE   W96
//  #03 //058   ----------------------------------------
 BYTE   W96
//  #03 //059   ----------------------------------------
 BYTE   W96
//  #03 //060   ----------------------------------------
 BYTE   W96
//  #03 //061   ----------------------------------------
 BYTE   W96
//  #03 //062   ----------------------------------------
 BYTE   W96
//  #03 //063   ----------------------------------------
 BYTE   W96
//  #03 //064   ----------------------------------------
 BYTE   W96
//  #03 //065   ----------------------------------------
 BYTE   W96
//  #03 //066   ----------------------------------------
 BYTE   W96
//  #03 //067   ----------------------------------------
 BYTE   W96
//  #03 //068   ----------------------------------------
 BYTE   W96
//  #03 //069   ----------------------------------------
 BYTE   GoTo
  POIN2 Label_01004722
//  #03 //070   ----------------------------------------
 BYTE   PATT
  POIN2 Label_01004722
//  #03 //071   ----------------------------------------
 BYTE   PATT
  POIN2 Label_01004772
//  #03 //072   ----------------------------------------
 BYTE   PATT
  POIN2 Label_010047C0
//  #03 //073   ----------------------------------------
 BYTE   PATT
  POIN2 Label_01004813
//  #03 //074   ----------------------------------------
 BYTE   PATT
  POIN2 Label_01004772
//  #03 //075   ----------------------------------------
 BYTE   PATT
  POIN2 Label_010047C0
//  #03 //076   ----------------------------------------
 BYTE   PATT
  POIN2 Label_01004813
//  #03 //077   ----------------------------------------
 BYTE   PATT
  POIN2 Label_01004772
//  #03 //078   ----------------------------------------
 BYTE   PATT
  POIN2 Label_010047C0
//  #03 //079   ----------------------------------------
 BYTE   PATT
  POIN2 Label_01004813
//  #03 //080   ----------------------------------------
 BYTE   PATT
  POIN2 Label_01004772
//  #03 //081   ----------------------------------------
 BYTE   PATT
  POIN2 Label_010047C0
//  #03 //082   ----------------------------------------
 BYTE   PATT
  POIN2 Label_01004813
//  #03 //083   ----------------------------------------
 BYTE   PATT
  POIN2 Label_01004772
//  #03 //084   ----------------------------------------
 BYTE   PATT
  POIN2 Label_010047C0
//  #03 //085   ----------------------------------------
 BYTE   PATT
  POIN2 Label_01004813
//  #03 //086   ----------------------------------------
 BYTE   PATT
  POIN2 Label_01004772
//  #03 //087   ----------------------------------------
 BYTE   PATT
  POIN2 Label_010047C0
//  #03 //088   ----------------------------------------
 BYTE   PATT
  POIN2 Label_01004813
//  #03 //089   ----------------------------------------
 BYTE   PATT
  POIN2 Label_01004772
//  #03 //090   ----------------------------------------
 BYTE   PATT
  POIN2 Label_010047C0
//  #03 //091   ----------------------------------------
 BYTE   PATT
  POIN2 Label_01004813
//  #03 //092   ----------------------------------------
 BYTE   PATT
  POIN2 Label_01004772
//  #03 //093   ----------------------------------------
 BYTE   PATT
  POIN2 Label_010047C0
//  #03 //094   ----------------------------------------
 BYTE   PATT
  POIN2 Label_010048BF
//  #03 //095   ----------------------------------------
 BYTE   PATT
  POIN2 Label_0100490F
//  #03 //096   ----------------------------------------
 BYTE   PATT
  POIN2 Label_0100495D
//  #03 //097   ----------------------------------------
 BYTE   PATT
  POIN2 Label_010049B0
//  #03 //098   ----------------------------------------
 BYTE   PATT
  POIN2 Label_0100490F
//  #03 //099   ----------------------------------------
 BYTE   PATT
  POIN2 Label_0100495D
//  #03 //100   ----------------------------------------
 BYTE   PATT
  POIN2 Label_010049B0
//  #03 //101   ----------------------------------------
 BYTE   PATT
  POIN2 Label_0100490F
//  #03 //102   ----------------------------------------
 BYTE   PATT
  POIN2 Label_0100495D
//  #03 //103   ----------------------------------------
 BYTE   PATT
  POIN2 Label_010049B0
//  #03 //104   ----------------------------------------
 BYTE   PATT
  POIN2 Label_0100490F
//  #03 //105   ----------------------------------------
 BYTE   PATT
  POIN2 Label_0100495D
//  #03 //106   ----------------------------------------
 BYTE   W96
//  #03 //107   ----------------------------------------
 BYTE   W96
//  #03 //108   ----------------------------------------
 BYTE   W96
//  #03 //109   ----------------------------------------
 BYTE   W96
//  #03 //110   ----------------------------------------
 BYTE   W96
//  #03 //111   ----------------------------------------
 BYTE   W96
//  #03 //112   ----------------------------------------
 BYTE   W96
//  #03 //113   ----------------------------------------
 BYTE   W96
//  #03 //114   ----------------------------------------
 BYTE   W96
//  #03 //115   ----------------------------------------
 BYTE   W96
//  #03 //116   ----------------------------------------
 BYTE   W96
//  #03 //117   ----------------------------------------
 BYTE   W96
//  #03 //118   ----------------------------------------
 BYTE   W96
//  #03 //119   ----------------------------------------
 BYTE   W96
//  #03 //120   ----------------------------------------
 BYTE   W96
//  #03 //121   ----------------------------------------
 BYTE   W96
//  #03 //122   ----------------------------------------
 BYTE   W96
//  #03 //123   ----------------------------------------
 BYTE   W96
//  #03 //124   ----------------------------------------
 BYTE   W96
//  #03 //125   ----------------------------------------
 BYTE   W96
//  #03 //126   ----------------------------------------
 BYTE   W96
//  #03 //127   ----------------------------------------
 BYTE   W96
//  #03 //128   ----------------------------------------
 BYTE   W96
//  #03 //129   ----------------------------------------
 BYTE   W96
//  #03 //130   ----------------------------------------
 BYTE   W96
//  #03 //131   ----------------------------------------
 BYTE   W96
//  #03 //132   ----------------------------------------
 BYTE   W96
 BYTE   FINE

//**************** Track 4 (Midi-Chn.3) ****************//

SMT4B4_004:
//  #04 //000   ----------------------------------------
 BYTE   KEYSH   SMT4B4_key+0
 BYTE   VOICE   49
 BYTE   VOL   44*SMT4B4_mvl/mxv
 BYTE   PAN   c_v+0
 BYTE   VOL   44*SMT4B4_mvl/mxv
 BYTE   PAN   c_v+0
 BYTE   N24  En1  v096
 BYTE   N24  En2
 BYTE   W96
//  #04 //001   ----------------------------------------
Label_F51C06:
 BYTE   W48
 BYTE   N24  En1  v096
 BYTE   N24  En2
 BYTE   W48
 BYTE   PEND 
//  #04 //002   ----------------------------------------
 BYTE   W96
//  #04 //003   ----------------------------------------
 BYTE   En1
 BYTE   N24  En2
 BYTE   W96
//  #04 //004   ----------------------------------------
 BYTE   PATT
  POIN2 Label_F51C06
//  #04 //005   ----------------------------------------
 BYTE   W96
//  #04 //006   ----------------------------------------
Label_F51C19:
 BYTE   W96
//  #04 //007   ----------------------------------------
 BYTE   W96
//  #04 //008   ----------------------------------------
 BYTE   W96
//  #04 //009   ----------------------------------------
 BYTE   W96
//  #04 //010   ----------------------------------------
 BYTE   W96
//  #04 //011   ----------------------------------------
 BYTE   W96
//  #04 //012   ----------------------------------------
 BYTE   W96
//  #04 //013   ----------------------------------------
 BYTE   W96
//  #04 //014   ----------------------------------------
 BYTE   W96
//  #04 //015   ----------------------------------------
 BYTE   W96
//  #04 //016   ----------------------------------------
 BYTE   W96
//  #04 //017   ----------------------------------------
 BYTE   W96
//  #04 //018   ----------------------------------------
 BYTE   W96
//  #04 //019   ----------------------------------------
 BYTE   W96
//  #04 //020   ----------------------------------------
 BYTE   W96
//  #04 //021   ----------------------------------------
 BYTE   W96
//  #04 //022   ----------------------------------------
 BYTE   W96
//  #04 //023   ----------------------------------------
 BYTE   W96
//  #04 //024   ----------------------------------------
 BYTE   W96
//  #04 //025   ----------------------------------------
 BYTE   W96
//  #04 //026   ----------------------------------------
 BYTE   W96
//  #04 //027   ----------------------------------------
 BYTE   W96
//  #04 //028   ----------------------------------------
 BYTE   W96
//  #04 //029   ----------------------------------------
 BYTE   W96
//  #04 //030   ----------------------------------------
 BYTE   W96
//  #04 //031   ----------------------------------------
 BYTE   W96
//  #04 //032   ----------------------------------------
 BYTE   W96
//  #04 //033   ----------------------------------------
 BYTE   W96
//  #04 //034   ----------------------------------------
 BYTE   W96
//  #04 //035   ----------------------------------------
 BYTE   W96
//  #04 //036   ----------------------------------------
 BYTE   W96
//  #04 //037   ----------------------------------------
 BYTE   W96
//  #04 //038   ----------------------------------------
 BYTE   W96
//  #04 //039   ----------------------------------------
 BYTE   W96
//  #04 //040   ----------------------------------------
 BYTE   W96
//  #04 //041   ----------------------------------------
 BYTE   W96
//  #04 //042   ----------------------------------------
 BYTE   W96
//  #04 //043   ----------------------------------------
 BYTE   W96
//  #04 //044   ----------------------------------------
 BYTE   W96
//  #04 //045   ----------------------------------------
 BYTE   W96
//  #04 //046   ----------------------------------------
 BYTE   W96
//  #04 //047   ----------------------------------------
 BYTE   W96
//  #04 //048   ----------------------------------------
 BYTE   W96
//  #04 //049   ----------------------------------------
 BYTE   W96
//  #04 //050   ----------------------------------------
 BYTE   W96
//  #04 //051   ----------------------------------------
 BYTE   W96
//  #04 //052   ----------------------------------------
 BYTE   W96
//  #04 //053   ----------------------------------------
 BYTE   W96
//  #04 //054   ----------------------------------------
 BYTE   W96
//  #04 //055   ----------------------------------------
 BYTE   W96
//  #04 //056   ----------------------------------------
 BYTE   W96
//  #04 //057   ----------------------------------------
 BYTE   W96
//  #04 //058   ----------------------------------------
 BYTE   W96
//  #04 //059   ----------------------------------------
 BYTE   W96
//  #04 //060   ----------------------------------------
 BYTE   W96
//  #04 //061   ----------------------------------------
 BYTE   W96
//  #04 //062   ----------------------------------------
 BYTE   W96
//  #04 //063   ----------------------------------------
 BYTE   W96
//  #04 //064   ----------------------------------------
 BYTE   W96
//  #04 //065   ----------------------------------------
 BYTE   W96
//  #04 //066   ----------------------------------------
Label_F51C55:
 BYTE   VOL   44*SMT4B4_mvl/mxv
 BYTE   PAN   c_v+0
 BYTE   VOL   44*SMT4B4_mvl/mxv
 BYTE   PAN   c_v+0
 BYTE   N24  En1  v096
 BYTE   N24  En2
 BYTE   W96
 BYTE   PEND 
//  #04 //067   ----------------------------------------
 BYTE   PATT
  POIN2 Label_F51C06
//  #04 //068   ----------------------------------------
 BYTE   W96
//  #04 //069   ----------------------------------------
 BYTE   GoTo
  POIN2 Label_F51C19
//  #04 //070   ----------------------------------------
 BYTE   W96
//  #04 //071   ----------------------------------------
 BYTE   W96
//  #04 //072   ----------------------------------------
 BYTE   W96
//  #04 //073   ----------------------------------------
 BYTE   W96
//  #04 //074   ----------------------------------------
 BYTE   W96
//  #04 //075   ----------------------------------------
 BYTE   W96
//  #04 //076   ----------------------------------------
 BYTE   W96
//  #04 //077   ----------------------------------------
 BYTE   W96
//  #04 //078   ----------------------------------------
 BYTE   W96
//  #04 //079   ----------------------------------------
 BYTE   W96
//  #04 //080   ----------------------------------------
 BYTE   W96
//  #04 //081   ----------------------------------------
 BYTE   W96
//  #04 //082   ----------------------------------------
 BYTE   W96
//  #04 //083   ----------------------------------------
 BYTE   W96
//  #04 //084   ----------------------------------------
 BYTE   W96
//  #04 //085   ----------------------------------------
 BYTE   W96
//  #04 //086   ----------------------------------------
 BYTE   W96
//  #04 //087   ----------------------------------------
 BYTE   W96
//  #04 //088   ----------------------------------------
 BYTE   W96
//  #04 //089   ----------------------------------------
 BYTE   W96
//  #04 //090   ----------------------------------------
 BYTE   W96
//  #04 //091   ----------------------------------------
 BYTE   W96
//  #04 //092   ----------------------------------------
 BYTE   W96
//  #04 //093   ----------------------------------------
 BYTE   W96
//  #04 //094   ----------------------------------------
 BYTE   W96
//  #04 //095   ----------------------------------------
 BYTE   W96
//  #04 //096   ----------------------------------------
 BYTE   W96
//  #04 //097   ----------------------------------------
 BYTE   W96
//  #04 //098   ----------------------------------------
 BYTE   W96
//  #04 //099   ----------------------------------------
 BYTE   W96
//  #04 //100   ----------------------------------------
 BYTE   W96
//  #04 //101   ----------------------------------------
 BYTE   W96
//  #04 //102   ----------------------------------------
 BYTE   W96
//  #04 //103   ----------------------------------------
 BYTE   W96
//  #04 //104   ----------------------------------------
 BYTE   W96
//  #04 //105   ----------------------------------------
 BYTE   W96
//  #04 //106   ----------------------------------------
 BYTE   W96
//  #04 //107   ----------------------------------------
 BYTE   W96
//  #04 //108   ----------------------------------------
 BYTE   W96
//  #04 //109   ----------------------------------------
 BYTE   W96
//  #04 //110   ----------------------------------------
 BYTE   W96
//  #04 //111   ----------------------------------------
 BYTE   W96
//  #04 //112   ----------------------------------------
 BYTE   W96
//  #04 //113   ----------------------------------------
 BYTE   W96
//  #04 //114   ----------------------------------------
 BYTE   W96
//  #04 //115   ----------------------------------------
 BYTE   W96
//  #04 //116   ----------------------------------------
 BYTE   W96
//  #04 //117   ----------------------------------------
 BYTE   W96
//  #04 //118   ----------------------------------------
 BYTE   W96
//  #04 //119   ----------------------------------------
 BYTE   W96
//  #04 //120   ----------------------------------------
 BYTE   W96
//  #04 //121   ----------------------------------------
 BYTE   W96
//  #04 //122   ----------------------------------------
 BYTE   W96
//  #04 //123   ----------------------------------------
 BYTE   W96
//  #04 //124   ----------------------------------------
 BYTE   W96
//  #04 //125   ----------------------------------------
 BYTE   W96
//  #04 //126   ----------------------------------------
 BYTE   W96
//  #04 //127   ----------------------------------------
 BYTE   W96
//  #04 //128   ----------------------------------------
 BYTE   W96
//  #04 //129   ----------------------------------------
 BYTE   W96
//  #04 //130   ----------------------------------------
 BYTE   PATT
  POIN2 Label_F51C55
//  #04 //131   ----------------------------------------
 BYTE   PATT
  POIN2 Label_F51C06
//  #04 //132   ----------------------------------------
 BYTE   W96
 BYTE   FINE

//**************** Track 5 (Midi-Chn.4) ****************//

SMT4B4_005:
//  #05 //000   ----------------------------------------
 BYTE   KEYSH   SMT4B4_key+0
 BYTE   VOICE   89
 BYTE   W96
//  #05 //001   ----------------------------------------
 BYTE   W96
//  #05 //002   ----------------------------------------
 BYTE   W96
//  #05 //003   ----------------------------------------
 BYTE   W96
//  #05 //004   ----------------------------------------
 BYTE   W96
//  #05 //005   ----------------------------------------
 BYTE   W96
//  #05 //006   ----------------------------------------
Label_01004B2A:
 BYTE   PAN   c_v+22
 BYTE   VOL   18*SMT4B4_mvl/mxv
 BYTE   PAN   c_v+22
 BYTE   VOL   19*SMT4B4_mvl/mxv
 BYTE   TIE  Bn2  v100
 BYTE   TIE  En3
 BYTE   W01
 BYTE   VOL   20*SMT4B4_mvl/mxv
 BYTE   W01
 BYTE   VOL   22*SMT4B4_mvl/mxv
 BYTE   W01
 BYTE   VOL   24*SMT4B4_mvl/mxv
 BYTE   W01
 BYTE   VOL   25*SMT4B4_mvl/mxv
 BYTE   W01
 BYTE   VOL   27*SMT4B4_mvl/mxv
 BYTE   W01
 BYTE   VOL   29*SMT4B4_mvl/mxv
 BYTE   W01
 BYTE   VOL   30*SMT4B4_mvl/mxv
 BYTE   W01
 BYTE   VOL   31*SMT4B4_mvl/mxv
 BYTE   W01
 BYTE   VOL   34*SMT4B4_mvl/mxv
 BYTE   W01
 BYTE   VOL   35*SMT4B4_mvl/mxv
 BYTE   W01
 BYTE   VOL   37*SMT4B4_mvl/mxv
 BYTE   W01
 BYTE   VOL   38*SMT4B4_mvl/mxv
 BYTE   W48
 BYTE   VOL   37*SMT4B4_mvl/mxv
 BYTE   W01
 BYTE   VOL   36*SMT4B4_mvl/mxv
 BYTE   W01
 BYTE   VOL   35*SMT4B4_mvl/mxv
 BYTE   W01
 BYTE   VOL   34*SMT4B4_mvl/mxv
 BYTE   W01
 BYTE   VOL   33*SMT4B4_mvl/mxv
 BYTE   W01
 BYTE   VOL   32*SMT4B4_mvl/mxv
 BYTE   W01
 BYTE   VOL   31*SMT4B4_mvl/mxv
 BYTE   W01
 BYTE   VOL   30*SMT4B4_mvl/mxv
 BYTE   W01
 BYTE   VOL   29*SMT4B4_mvl/mxv
 BYTE   W01
 BYTE   VOL   28*SMT4B4_mvl/mxv
 BYTE   W01
 BYTE   VOL   27*SMT4B4_mvl/mxv
 BYTE   W01
 BYTE   VOL   26*SMT4B4_mvl/mxv
 BYTE   W01
 BYTE   VOL   27*SMT4B4_mvl/mxv
 BYTE   W01
 BYTE   VOL   29*SMT4B4_mvl/mxv
 BYTE   W01
 BYTE   VOL   30*SMT4B4_mvl/mxv
 BYTE   W01
 BYTE   VOL   33*SMT4B4_mvl/mxv
 BYTE   W01
 BYTE   VOL   35*SMT4B4_mvl/mxv
 BYTE   W01
 BYTE   VOL   36*SMT4B4_mvl/mxv
 BYTE   W01
 BYTE   VOL   38*SMT4B4_mvl/mxv
 BYTE   W18
 BYTE   PEND 
//  #05 //007   ----------------------------------------
Label_01004B78:
 BYTE   W32
 BYTE   W01
 BYTE   VOL   37*SMT4B4_mvl/mxv
 BYTE   W01
 BYTE   VOL   36*SMT4B4_mvl/mxv
 BYTE   W01
 BYTE   VOL   35*SMT4B4_mvl/mxv
 BYTE   W01
 BYTE   VOL   34*SMT4B4_mvl/mxv
 BYTE   W01
 BYTE   VOL   33*SMT4B4_mvl/mxv
 BYTE   W01
 BYTE   VOL   32*SMT4B4_mvl/mxv
 BYTE   W01
 BYTE   VOL   31*SMT4B4_mvl/mxv
 BYTE   W01
 BYTE   VOL   30*SMT4B4_mvl/mxv
 BYTE   W01
 BYTE   VOL   29*SMT4B4_mvl/mxv
 BYTE   W01
 BYTE   VOL   27*SMT4B4_mvl/mxv
 BYTE   W01
 BYTE   VOL   27*SMT4B4_mvl/mxv
 BYTE   W01
 BYTE   VOL   26*SMT4B4_mvl/mxv
 BYTE   W01
 BYTE   VOL   24*SMT4B4_mvl/mxv
 BYTE   W01
 BYTE   VOL   24*SMT4B4_mvl/mxv
 BYTE   W01
 BYTE   VOL   23*SMT4B4_mvl/mxv
 BYTE   W01
 BYTE   VOL   23*SMT4B4_mvl/mxv
 BYTE   W01
 BYTE   VOL   24*SMT4B4_mvl/mxv
 BYTE   W01
 BYTE   VOL   25*SMT4B4_mvl/mxv
 BYTE   W01
 BYTE   VOL   27*SMT4B4_mvl/mxv
 BYTE   W01
 BYTE   VOL   28*SMT4B4_mvl/mxv
 BYTE   W01
 BYTE   VOL   29*SMT4B4_mvl/mxv
 BYTE   W01
 BYTE   VOL   31*SMT4B4_mvl/mxv
 BYTE   W01
 BYTE   VOL   32*SMT4B4_mvl/mxv
 BYTE   W01
 BYTE   VOL   33*SMT4B4_mvl/mxv
 BYTE   W01
 BYTE   VOL   35*SMT4B4_mvl/mxv
 BYTE   W01
 BYTE   VOL   36*SMT4B4_mvl/mxv
 BYTE   W01
 BYTE   VOL   37*SMT4B4_mvl/mxv
 BYTE   W01
 BYTE   VOL   38*SMT4B4_mvl/mxv
 BYTE   W36
 BYTE   PEND 
//  #05 //008   ----------------------------------------
Label_01004BB4:
 BYTE   W09
 BYTE   VOL   37*SMT4B4_mvl/mxv
 BYTE   W01
 BYTE   VOL   37*SMT4B4_mvl/mxv
 BYTE   W01
 BYTE   VOL   36*SMT4B4_mvl/mxv
 BYTE   W01
 BYTE   VOL   35*SMT4B4_mvl/mxv
 BYTE   W01
 BYTE   VOL   35*SMT4B4_mvl/mxv
 BYTE   W01
 BYTE   VOL   34*SMT4B4_mvl/mxv
 BYTE   W01
 BYTE   VOL   33*SMT4B4_mvl/mxv
 BYTE   W01
 BYTE   VOL   33*SMT4B4_mvl/mxv
 BYTE   W01
 BYTE   VOL   32*SMT4B4_mvl/mxv
 BYTE   W01
 BYTE   VOL   31*SMT4B4_mvl/mxv
 BYTE   W01
 BYTE   VOL   30*SMT4B4_mvl/mxv
 BYTE   W01
 BYTE   VOL   30*SMT4B4_mvl/mxv
 BYTE   W01
 BYTE   VOL   29*SMT4B4_mvl/mxv
 BYTE   W01
 BYTE   VOL   28*SMT4B4_mvl/mxv
 BYTE   W01
 BYTE   VOL   27*SMT4B4_mvl/mxv
 BYTE   W01
 BYTE   VOL   28*SMT4B4_mvl/mxv
 BYTE   W01
 BYTE   VOL   28*SMT4B4_mvl/mxv
 BYTE   W01
 BYTE   VOL   29*SMT4B4_mvl/mxv
 BYTE   W01
 BYTE   VOL   30*SMT4B4_mvl/mxv
 BYTE   W01
 BYTE   VOL   31*SMT4B4_mvl/mxv
 BYTE   W01
 BYTE   VOL   32*SMT4B4_mvl/mxv
 BYTE   W01
 BYTE   VOL   33*SMT4B4_mvl/mxv
 BYTE   W01
 BYTE   VOL   34*SMT4B4_mvl/mxv
 BYTE   W01
 BYTE   VOL   35*SMT4B4_mvl/mxv
 BYTE   W01
 BYTE   VOL   36*SMT4B4_mvl/mxv
 BYTE   W01
 BYTE   VOL   37*SMT4B4_mvl/mxv
 BYTE   W01
 BYTE   VOL   37*SMT4B4_mvl/mxv
 BYTE   W01
 BYTE   VOL   38*SMT4B4_mvl/mxv
 BYTE   W32
 BYTE   W01
 BYTE   VOL   38*SMT4B4_mvl/mxv
 BYTE   W01
 BYTE   VOL   37*SMT4B4_mvl/mxv
 BYTE   W02
 BYTE   VOL   37*SMT4B4_mvl/mxv
 BYTE   W01
 BYTE   VOL   37*SMT4B4_mvl/mxv
 BYTE   W02
 BYTE   VOL   36*SMT4B4_mvl/mxv
 BYTE   W01
 BYTE   VOL   36*SMT4B4_mvl/mxv
 BYTE   W02
 BYTE   VOL   35*SMT4B4_mvl/mxv
 BYTE   W01
 BYTE   VOL   35*SMT4B4_mvl/mxv
 BYTE   W02
 BYTE   VOL   35*SMT4B4_mvl/mxv
 BYTE   W01
 BYTE   VOL   34*SMT4B4_mvl/mxv
 BYTE   W02
 BYTE   VOL   34*SMT4B4_mvl/mxv
 BYTE   W01
 BYTE   VOL   33*SMT4B4_mvl/mxv
 BYTE   W02
 BYTE   VOL   33*SMT4B4_mvl/mxv
 BYTE   W01
 BYTE   VOL   33*SMT4B4_mvl/mxv
 BYTE   W02
 BYTE   VOL   32*SMT4B4_mvl/mxv
 BYTE   W01
 BYTE   VOL   32*SMT4B4_mvl/mxv
 BYTE   W02
 BYTE   VOL   28*SMT4B4_mvl/mxv
 BYTE   W01
 BYTE   VOL   25*SMT4B4_mvl/mxv
 BYTE   W01
 BYTE   VOL   22*SMT4B4_mvl/mxv
 BYTE   W01
 BYTE   PEND 
//  #05 //009   ----------------------------------------
 BYTE   EOT
 BYTE   Bn2  v064
Label_01004C19:
 BYTE   VOL   19*SMT4B4_mvl/mxv
 BYTE   TIE  Cn3  v100
 BYTE   TIE  En3
 BYTE   W01
 BYTE   VOL   20*SMT4B4_mvl/mxv
 BYTE   W01
 BYTE   VOL   22*SMT4B4_mvl/mxv
 BYTE   W01
 BYTE   VOL   24*SMT4B4_mvl/mxv
 BYTE   W01
 BYTE   VOL   25*SMT4B4_mvl/mxv
 BYTE   W01
 BYTE   VOL   27*SMT4B4_mvl/mxv
 BYTE   W01
 BYTE   VOL   29*SMT4B4_mvl/mxv
 BYTE   W01
 BYTE   VOL   30*SMT4B4_mvl/mxv
 BYTE   W01
 BYTE   VOL   31*SMT4B4_mvl/mxv
 BYTE   W01
 BYTE   VOL   34*SMT4B4_mvl/mxv
 BYTE   W01
 BYTE   VOL   35*SMT4B4_mvl/mxv
 BYTE   W01
 BYTE   VOL   37*SMT4B4_mvl/mxv
 BYTE   W01
 BYTE   VOL   38*SMT4B4_mvl/mxv
 BYTE   W48
 BYTE   VOL   37*SMT4B4_mvl/mxv
 BYTE   W01
 BYTE   VOL   36*SMT4B4_mvl/mxv
 BYTE   W01
 BYTE   VOL   35*SMT4B4_mvl/mxv
 BYTE   W01
 BYTE   VOL   34*SMT4B4_mvl/mxv
 BYTE   W01
 BYTE   VOL   33*SMT4B4_mvl/mxv
 BYTE   W01
 BYTE   VOL   32*SMT4B4_mvl/mxv
 BYTE   W01
 BYTE   VOL   31*SMT4B4_mvl/mxv
 BYTE   W01
 BYTE   VOL   30*SMT4B4_mvl/mxv
 BYTE   W01
 BYTE   VOL   29*SMT4B4_mvl/mxv
 BYTE   W01
 BYTE   VOL   28*SMT4B4_mvl/mxv
 BYTE   W01
 BYTE   VOL   27*SMT4B4_mvl/mxv
 BYTE   W01
 BYTE   VOL   26*SMT4B4_mvl/mxv
 BYTE   W01
 BYTE   VOL   27*SMT4B4_mvl/mxv
 BYTE   W01
 BYTE   VOL   29*SMT4B4_mvl/mxv
 BYTE   W01
 BYTE   VOL   30*SMT4B4_mvl/mxv
 BYTE   W01
 BYTE   VOL   33*SMT4B4_mvl/mxv
 BYTE   W01
 BYTE   VOL   35*SMT4B4_mvl/mxv
 BYTE   W01
 BYTE   VOL   36*SMT4B4_mvl/mxv
 BYTE   W01
 BYTE   VOL   38*SMT4B4_mvl/mxv
 BYTE   W18
 BYTE   PEND 
//  #05 //010   ----------------------------------------
 BYTE   PATT
  POIN2 Label_01004B78
//  #05 //011   ----------------------------------------
Label_01004C66:
 BYTE   W09
 BYTE   VOL   37*SMT4B4_mvl/mxv
 BYTE   W01
 BYTE   VOL   37*SMT4B4_mvl/mxv
 BYTE   W01
 BYTE   VOL   36*SMT4B4_mvl/mxv
 BYTE   W01
 BYTE   VOL   35*SMT4B4_mvl/mxv
 BYTE   W01
 BYTE   VOL   35*SMT4B4_mvl/mxv
 BYTE   W01
 BYTE   VOL   34*SMT4B4_mvl/mxv
 BYTE   W01
 BYTE   VOL   33*SMT4B4_mvl/mxv
 BYTE   W01
 BYTE   VOL   33*SMT4B4_mvl/mxv
 BYTE   W01
 BYTE   VOL   32*SMT4B4_mvl/mxv
 BYTE   W01
 BYTE   VOL   31*SMT4B4_mvl/mxv
 BYTE   W01
 BYTE   VOL   30*SMT4B4_mvl/mxv
 BYTE   W01
 BYTE   VOL   30*SMT4B4_mvl/mxv
 BYTE   W01
 BYTE   VOL   29*SMT4B4_mvl/mxv
 BYTE   W01
 BYTE   VOL   28*SMT4B4_mvl/mxv
 BYTE   W01
 BYTE   VOL   27*SMT4B4_mvl/mxv
 BYTE   W01
 BYTE   VOL   28*SMT4B4_mvl/mxv
 BYTE   W01
 BYTE   VOL   28*SMT4B4_mvl/mxv
 BYTE   W01
 BYTE   VOL   29*SMT4B4_mvl/mxv
 BYTE   W01
 BYTE   VOL   30*SMT4B4_mvl/mxv
 BYTE   W01
 BYTE   VOL   31*SMT4B4_mvl/mxv
 BYTE   W01
 BYTE   VOL   32*SMT4B4_mvl/mxv
 BYTE   W01
 BYTE   VOL   33*SMT4B4_mvl/mxv
 BYTE   W01
 BYTE   VOL   34*SMT4B4_mvl/mxv
 BYTE   W01
 BYTE   VOL   35*SMT4B4_mvl/mxv
 BYTE   W01
 BYTE   VOL   36*SMT4B4_mvl/mxv
 BYTE   W01
 BYTE   VOL   37*SMT4B4_mvl/mxv
 BYTE   W01
 BYTE   VOL   37*SMT4B4_mvl/mxv
 BYTE   W01
 BYTE   VOL   38*SMT4B4_mvl/mxv
 BYTE   W32
 BYTE   W01
 BYTE   VOL   37*SMT4B4_mvl/mxv
 BYTE   W01
 BYTE   VOL   37*SMT4B4_mvl/mxv
 BYTE   W01
 BYTE   VOL   37*SMT4B4_mvl/mxv
 BYTE   W01
 BYTE   VOL   36*SMT4B4_mvl/mxv
 BYTE   W01
 BYTE   VOL   36*SMT4B4_mvl/mxv
 BYTE   W01
 BYTE   VOL   35*SMT4B4_mvl/mxv
 BYTE   W01
 BYTE   VOL   35*SMT4B4_mvl/mxv
 BYTE   W01
 BYTE   VOL   34*SMT4B4_mvl/mxv
 BYTE   W01
 BYTE   VOL   34*SMT4B4_mvl/mxv
 BYTE   W01
 BYTE   VOL   33*SMT4B4_mvl/mxv
 BYTE   W02
 BYTE   VOL   33*SMT4B4_mvl/mxv
 BYTE   W01
 BYTE   VOL   32*SMT4B4_mvl/mxv
 BYTE   W01
 BYTE   VOL   31*SMT4B4_mvl/mxv
 BYTE   W01
 BYTE   VOL   31*SMT4B4_mvl/mxv
 BYTE   W01
 BYTE   VOL   30*SMT4B4_mvl/mxv
 BYTE   W01
 BYTE   VOL   30*SMT4B4_mvl/mxv
 BYTE   W01
 BYTE   VOL   29*SMT4B4_mvl/mxv
 BYTE   W01
 BYTE   VOL   29*SMT4B4_mvl/mxv
 BYTE   W01
 BYTE   VOL   29*SMT4B4_mvl/mxv
 BYTE   W01
 BYTE   VOL   28*SMT4B4_mvl/mxv
 BYTE   W01
 BYTE   VOL   27*SMT4B4_mvl/mxv
 BYTE   W01
 BYTE   VOL   25*SMT4B4_mvl/mxv
 BYTE   W01
 BYTE   VOL   24*SMT4B4_mvl/mxv
 BYTE   W01
 BYTE   VOL   22*SMT4B4_mvl/mxv
 BYTE   W01
 BYTE   VOL   20*SMT4B4_mvl/mxv
 BYTE   W01
 BYTE   VOL   19*SMT4B4_mvl/mxv
 BYTE   W01
 BYTE   PEND 
//  #05 //012   ----------------------------------------
 BYTE   EOT
 BYTE   Cn3  v064
Label_01004CD9:
 BYTE   VOL   19*SMT4B4_mvl/mxv
 BYTE   TIE  Cs3  v100
 BYTE   TIE  En3
 BYTE   W01
 BYTE   VOL   20*SMT4B4_mvl/mxv
 BYTE   W01
 BYTE   VOL   22*SMT4B4_mvl/mxv
 BYTE   W01
 BYTE   VOL   24*SMT4B4_mvl/mxv
 BYTE   W01
 BYTE   VOL   25*SMT4B4_mvl/mxv
 BYTE   W01
 BYTE   VOL   27*SMT4B4_mvl/mxv
 BYTE   W01
 BYTE   VOL   29*SMT4B4_mvl/mxv
 BYTE   W01
 BYTE   VOL   30*SMT4B4_mvl/mxv
 BYTE   W01
 BYTE   VOL   31*SMT4B4_mvl/mxv
 BYTE   W01
 BYTE   VOL   34*SMT4B4_mvl/mxv
 BYTE   W01
 BYTE   VOL   35*SMT4B4_mvl/mxv
 BYTE   W01
 BYTE   VOL   37*SMT4B4_mvl/mxv
 BYTE   W01
 BYTE   VOL   38*SMT4B4_mvl/mxv
 BYTE   W48
 BYTE   VOL   37*SMT4B4_mvl/mxv
 BYTE   W01
 BYTE   VOL   36*SMT4B4_mvl/mxv
 BYTE   W01
 BYTE   VOL   35*SMT4B4_mvl/mxv
 BYTE   W01
 BYTE   VOL   34*SMT4B4_mvl/mxv
 BYTE   W01
 BYTE   VOL   33*SMT4B4_mvl/mxv
 BYTE   W01
 BYTE   VOL   32*SMT4B4_mvl/mxv
 BYTE   W01
 BYTE   VOL   31*SMT4B4_mvl/mxv
 BYTE   W01
 BYTE   VOL   30*SMT4B4_mvl/mxv
 BYTE   W01
 BYTE   VOL   29*SMT4B4_mvl/mxv
 BYTE   W01
 BYTE   VOL   28*SMT4B4_mvl/mxv
 BYTE   W01
 BYTE   VOL   27*SMT4B4_mvl/mxv
 BYTE   W01
 BYTE   VOL   26*SMT4B4_mvl/mxv
 BYTE   W01
 BYTE   VOL   27*SMT4B4_mvl/mxv
 BYTE   W01
 BYTE   VOL   29*SMT4B4_mvl/mxv
 BYTE   W01
 BYTE   VOL   30*SMT4B4_mvl/mxv
 BYTE   W01
 BYTE   VOL   33*SMT4B4_mvl/mxv
 BYTE   W01
 BYTE   VOL   35*SMT4B4_mvl/mxv
 BYTE   W01
 BYTE   VOL   36*SMT4B4_mvl/mxv
 BYTE   W01
 BYTE   VOL   37*SMT4B4_mvl/mxv
 BYTE   W01
 BYTE   VOL   36*SMT4B4_mvl/mxv
 BYTE   W01
 BYTE   VOL   35*SMT4B4_mvl/mxv
 BYTE   W01
 BYTE   VOL   34*SMT4B4_mvl/mxv
 BYTE   W01
 BYTE   VOL   34*SMT4B4_mvl/mxv
 BYTE   W02
 BYTE   VOL   35*SMT4B4_mvl/mxv
 BYTE   W01
 BYTE   VOL   35*SMT4B4_mvl/mxv
 BYTE   W02
 BYTE   VOL   36*SMT4B4_mvl/mxv
 BYTE   W01
 BYTE   VOL   37*SMT4B4_mvl/mxv
 BYTE   W02
 BYTE   VOL   37*SMT4B4_mvl/mxv
 BYTE   W06
 BYTE   PEND 
//  #05 //013   ----------------------------------------
Label_01004D33:
 BYTE   W03
 BYTE   VOL   37*SMT4B4_mvl/mxv
 BYTE   W20
 BYTE   VOL   38*SMT4B4_mvl/mxv
 BYTE   W10
 BYTE   VOL   37*SMT4B4_mvl/mxv
 BYTE   W01
 BYTE   VOL   36*SMT4B4_mvl/mxv
 BYTE   W01
 BYTE   VOL   35*SMT4B4_mvl/mxv
 BYTE   W01
 BYTE   VOL   34*SMT4B4_mvl/mxv
 BYTE   W01
 BYTE   VOL   33*SMT4B4_mvl/mxv
 BYTE   W01
 BYTE   VOL   32*SMT4B4_mvl/mxv
 BYTE   W01
 BYTE   VOL   31*SMT4B4_mvl/mxv
 BYTE   W01
 BYTE   VOL   30*SMT4B4_mvl/mxv
 BYTE   W01
 BYTE   VOL   29*SMT4B4_mvl/mxv
 BYTE   W01
 BYTE   VOL   27*SMT4B4_mvl/mxv
 BYTE   W01
 BYTE   VOL   27*SMT4B4_mvl/mxv
 BYTE   W01
 BYTE   VOL   26*SMT4B4_mvl/mxv
 BYTE   W01
 BYTE   VOL   24*SMT4B4_mvl/mxv
 BYTE   W01
 BYTE   VOL   24*SMT4B4_mvl/mxv
 BYTE   W01
 BYTE   VOL   23*SMT4B4_mvl/mxv
 BYTE   W01
 BYTE   VOL   23*SMT4B4_mvl/mxv
 BYTE   W01
 BYTE   VOL   24*SMT4B4_mvl/mxv
 BYTE   W01
 BYTE   VOL   25*SMT4B4_mvl/mxv
 BYTE   W01
 BYTE   VOL   27*SMT4B4_mvl/mxv
 BYTE   W01
 BYTE   VOL   28*SMT4B4_mvl/mxv
 BYTE   W01
 BYTE   VOL   29*SMT4B4_mvl/mxv
 BYTE   W01
 BYTE   VOL   31*SMT4B4_mvl/mxv
 BYTE   W01
 BYTE   VOL   32*SMT4B4_mvl/mxv
 BYTE   W01
 BYTE   VOL   33*SMT4B4_mvl/mxv
 BYTE   W01
 BYTE   VOL   35*SMT4B4_mvl/mxv
 BYTE   W01
 BYTE   VOL   36*SMT4B4_mvl/mxv
 BYTE   W01
 BYTE   VOL   37*SMT4B4_mvl/mxv
 BYTE   W01
 BYTE   VOL   38*SMT4B4_mvl/mxv
 BYTE   W36
 BYTE   PEND 
//  #05 //014   ----------------------------------------
 BYTE   PATT
  POIN2 Label_01004C66
//  #05 //015   ----------------------------------------
 BYTE   EOT
 BYTE   Cs3  v064
Label_01004D7A:
 BYTE   VOL   19*SMT4B4_mvl/mxv
 BYTE   TIE  Cn3  v100
 BYTE   TIE  En3
 BYTE   W01
 BYTE   VOL   20*SMT4B4_mvl/mxv
 BYTE   W01
 BYTE   VOL   22*SMT4B4_mvl/mxv
 BYTE   W01
 BYTE   VOL   24*SMT4B4_mvl/mxv
 BYTE   W01
 BYTE   VOL   25*SMT4B4_mvl/mxv
 BYTE   W01
 BYTE   VOL   27*SMT4B4_mvl/mxv
 BYTE   W01
 BYTE   VOL   29*SMT4B4_mvl/mxv
 BYTE   W01
 BYTE   VOL   30*SMT4B4_mvl/mxv
 BYTE   W01
 BYTE   VOL   31*SMT4B4_mvl/mxv
 BYTE   W01
 BYTE   VOL   34*SMT4B4_mvl/mxv
 BYTE   W01
 BYTE   VOL   35*SMT4B4_mvl/mxv
 BYTE   W01
 BYTE   VOL   37*SMT4B4_mvl/mxv
 BYTE   W01
 BYTE   VOL   38*SMT4B4_mvl/mxv
 BYTE   W48
 BYTE   VOL   37*SMT4B4_mvl/mxv
 BYTE   W01
 BYTE   VOL   36*SMT4B4_mvl/mxv
 BYTE   W01
 BYTE   VOL   35*SMT4B4_mvl/mxv
 BYTE   W01
 BYTE   VOL   34*SMT4B4_mvl/mxv
 BYTE   W01
 BYTE   VOL   33*SMT4B4_mvl/mxv
 BYTE   W01
 BYTE   VOL   32*SMT4B4_mvl/mxv
 BYTE   W01
 BYTE   VOL   31*SMT4B4_mvl/mxv
 BYTE   W01
 BYTE   VOL   30*SMT4B4_mvl/mxv
 BYTE   W01
 BYTE   VOL   29*SMT4B4_mvl/mxv
 BYTE   W01
 BYTE   VOL   28*SMT4B4_mvl/mxv
 BYTE   W01
 BYTE   VOL   27*SMT4B4_mvl/mxv
 BYTE   W01
 BYTE   VOL   26*SMT4B4_mvl/mxv
 BYTE   W01
 BYTE   VOL   27*SMT4B4_mvl/mxv
 BYTE   W01
 BYTE   VOL   29*SMT4B4_mvl/mxv
 BYTE   W01
 BYTE   VOL   30*SMT4B4_mvl/mxv
 BYTE   W01
 BYTE   VOL   33*SMT4B4_mvl/mxv
 BYTE   W01
 BYTE   VOL   35*SMT4B4_mvl/mxv
 BYTE   W01
 BYTE   VOL   36*SMT4B4_mvl/mxv
 BYTE   W01
 BYTE   VOL   37*SMT4B4_mvl/mxv
 BYTE   W01
 BYTE   VOL   36*SMT4B4_mvl/mxv
 BYTE   W01
 BYTE   VOL   35*SMT4B4_mvl/mxv
 BYTE   W01
 BYTE   VOL   34*SMT4B4_mvl/mxv
 BYTE   W01
 BYTE   VOL   34*SMT4B4_mvl/mxv
 BYTE   W02
 BYTE   VOL   35*SMT4B4_mvl/mxv
 BYTE   W01
 BYTE   VOL   35*SMT4B4_mvl/mxv
 BYTE   W02
 BYTE   VOL   36*SMT4B4_mvl/mxv
 BYTE   W01
 BYTE   VOL   37*SMT4B4_mvl/mxv
 BYTE   W02
 BYTE   VOL   37*SMT4B4_mvl/mxv
 BYTE   W06
 BYTE   PEND 
//  #05 //016   ----------------------------------------
 BYTE   PATT
  POIN2 Label_01004D33
//  #05 //017   ----------------------------------------
 BYTE   PATT
  POIN2 Label_01004C66
//  #05 //018   ----------------------------------------
 BYTE   EOT
 BYTE   Cn3  v064
Label_01004DE1:
 BYTE   VOL   19*SMT4B4_mvl/mxv
 BYTE   TIE  Bn2  v100
 BYTE   TIE  En3
 BYTE   W01
 BYTE   VOL   20*SMT4B4_mvl/mxv
 BYTE   W01
 BYTE   VOL   22*SMT4B4_mvl/mxv
 BYTE   W01
 BYTE   VOL   24*SMT4B4_mvl/mxv
 BYTE   W01
 BYTE   VOL   25*SMT4B4_mvl/mxv
 BYTE   W01
 BYTE   VOL   27*SMT4B4_mvl/mxv
 BYTE   W01
 BYTE   VOL   29*SMT4B4_mvl/mxv
 BYTE   W01
 BYTE   VOL   30*SMT4B4_mvl/mxv
 BYTE   W01
 BYTE   VOL   31*SMT4B4_mvl/mxv
 BYTE   W01
 BYTE   VOL   34*SMT4B4_mvl/mxv
 BYTE   W01
 BYTE   VOL   35*SMT4B4_mvl/mxv
 BYTE   W01
 BYTE   VOL   37*SMT4B4_mvl/mxv
 BYTE   W01
 BYTE   VOL   38*SMT4B4_mvl/mxv
 BYTE   W48
 BYTE   VOL   37*SMT4B4_mvl/mxv
 BYTE   W01
 BYTE   VOL   36*SMT4B4_mvl/mxv
 BYTE   W01
 BYTE   VOL   35*SMT4B4_mvl/mxv
 BYTE   W01
 BYTE   VOL   34*SMT4B4_mvl/mxv
 BYTE   W01
 BYTE   VOL   33*SMT4B4_mvl/mxv
 BYTE   W01
 BYTE   VOL   32*SMT4B4_mvl/mxv
 BYTE   W01
 BYTE   VOL   31*SMT4B4_mvl/mxv
 BYTE   W01
 BYTE   VOL   30*SMT4B4_mvl/mxv
 BYTE   W01
 BYTE   VOL   29*SMT4B4_mvl/mxv
 BYTE   W01
 BYTE   VOL   28*SMT4B4_mvl/mxv
 BYTE   W01
 BYTE   VOL   27*SMT4B4_mvl/mxv
 BYTE   W01
 BYTE   VOL   26*SMT4B4_mvl/mxv
 BYTE   W01
 BYTE   VOL   27*SMT4B4_mvl/mxv
 BYTE   W01
 BYTE   VOL   29*SMT4B4_mvl/mxv
 BYTE   W01
 BYTE   VOL   30*SMT4B4_mvl/mxv
 BYTE   W01
 BYTE   VOL   33*SMT4B4_mvl/mxv
 BYTE   W01
 BYTE   VOL   35*SMT4B4_mvl/mxv
 BYTE   W01
 BYTE   VOL   36*SMT4B4_mvl/mxv
 BYTE   W01
 BYTE   VOL   38*SMT4B4_mvl/mxv
 BYTE   W18
 BYTE   PEND 
//  #05 //019   ----------------------------------------
 BYTE   PATT
  POIN2 Label_01004B78
//  #05 //020   ----------------------------------------
 BYTE   PATT
  POIN2 Label_01004BB4
//  #05 //021   ----------------------------------------
 BYTE   EOT
 BYTE   Bn2  v064
//  #05 //022   ----------------------------------------
 BYTE   PATT
  POIN2 Label_01004C19
//  #05 //023   ----------------------------------------
 BYTE   PATT
  POIN2 Label_01004B78
//  #05 //024   ----------------------------------------
 BYTE   PATT
  POIN2 Label_01004C66
//  #05 //025   ----------------------------------------
 BYTE   EOT
 BYTE   Cn3  v064
//  #05 //026   ----------------------------------------
 BYTE   PATT
  POIN2 Label_01004CD9
//  #05 //027   ----------------------------------------
 BYTE   PATT
  POIN2 Label_01004D33
//  #05 //028   ----------------------------------------
 BYTE   PATT
  POIN2 Label_01004C66
//  #05 //029   ----------------------------------------
 BYTE   EOT
 BYTE   Cs3  v064
//  #05 //030   ----------------------------------------
 BYTE   PATT
  POIN2 Label_01004D7A
//  #05 //031   ----------------------------------------
 BYTE   PATT
  POIN2 Label_01004D33
//  #05 //032   ----------------------------------------
Label_01004E64:
 BYTE   W09
 BYTE   VOL   37*SMT4B4_mvl/mxv
 BYTE   W01
 BYTE   VOL   37*SMT4B4_mvl/mxv
 BYTE   W01
 BYTE   VOL   36*SMT4B4_mvl/mxv
 BYTE   W01
 BYTE   VOL   35*SMT4B4_mvl/mxv
 BYTE   W01
 BYTE   VOL   35*SMT4B4_mvl/mxv
 BYTE   W01
 BYTE   VOL   34*SMT4B4_mvl/mxv
 BYTE   W01
 BYTE   VOL   33*SMT4B4_mvl/mxv
 BYTE   W01
 BYTE   VOL   33*SMT4B4_mvl/mxv
 BYTE   W01
 BYTE   VOL   32*SMT4B4_mvl/mxv
 BYTE   W01
 BYTE   VOL   31*SMT4B4_mvl/mxv
 BYTE   W01
 BYTE   VOL   30*SMT4B4_mvl/mxv
 BYTE   W01
 BYTE   VOL   30*SMT4B4_mvl/mxv
 BYTE   W01
 BYTE   VOL   29*SMT4B4_mvl/mxv
 BYTE   W01
 BYTE   VOL   28*SMT4B4_mvl/mxv
 BYTE   W01
 BYTE   VOL   27*SMT4B4_mvl/mxv
 BYTE   W01
 BYTE   VOL   28*SMT4B4_mvl/mxv
 BYTE   W01
 BYTE   VOL   28*SMT4B4_mvl/mxv
 BYTE   W01
 BYTE   VOL   29*SMT4B4_mvl/mxv
 BYTE   W01
 BYTE   VOL   30*SMT4B4_mvl/mxv
 BYTE   W01
 BYTE   VOL   31*SMT4B4_mvl/mxv
 BYTE   W01
 BYTE   VOL   32*SMT4B4_mvl/mxv
 BYTE   W01
 BYTE   VOL   33*SMT4B4_mvl/mxv
 BYTE   W01
 BYTE   VOL   34*SMT4B4_mvl/mxv
 BYTE   W01
 BYTE   VOL   35*SMT4B4_mvl/mxv
 BYTE   W01
 BYTE   VOL   36*SMT4B4_mvl/mxv
 BYTE   W01
 BYTE   VOL   37*SMT4B4_mvl/mxv
 BYTE   W01
 BYTE   VOL   37*SMT4B4_mvl/mxv
 BYTE   W01
 BYTE   VOL   38*SMT4B4_mvl/mxv
 BYTE   W32
 BYTE   W01
 BYTE   VOL   37*SMT4B4_mvl/mxv
 BYTE   W01
 BYTE   VOL   37*SMT4B4_mvl/mxv
 BYTE   W01
 BYTE   VOL   37*SMT4B4_mvl/mxv
 BYTE   W01
 BYTE   VOL   36*SMT4B4_mvl/mxv
 BYTE   W01
 BYTE   VOL   36*SMT4B4_mvl/mxv
 BYTE   W01
 BYTE   VOL   35*SMT4B4_mvl/mxv
 BYTE   W01
 BYTE   VOL   35*SMT4B4_mvl/mxv
 BYTE   W01
 BYTE   VOL   34*SMT4B4_mvl/mxv
 BYTE   W01
 BYTE   VOL   34*SMT4B4_mvl/mxv
 BYTE   W01
 BYTE   VOL   33*SMT4B4_mvl/mxv
 BYTE   W02
 BYTE   VOL   33*SMT4B4_mvl/mxv
 BYTE   W01
 BYTE   VOL   32*SMT4B4_mvl/mxv
 BYTE   W01
 BYTE   VOL   31*SMT4B4_mvl/mxv
 BYTE   W01
 BYTE   VOL   31*SMT4B4_mvl/mxv
 BYTE   W01
 BYTE   VOL   30*SMT4B4_mvl/mxv
 BYTE   W01
 BYTE   VOL   30*SMT4B4_mvl/mxv
 BYTE   W01
 BYTE   VOL   29*SMT4B4_mvl/mxv
 BYTE   W01
 BYTE   VOL   29*SMT4B4_mvl/mxv
 BYTE   W01
 BYTE   VOL   29*SMT4B4_mvl/mxv
 BYTE   W01
 BYTE   VOL   28*SMT4B4_mvl/mxv
 BYTE   W01
 BYTE   VOL   28*SMT4B4_mvl/mxv
 BYTE   W06
 BYTE   PEND 
//  #05 //033   ----------------------------------------
 BYTE   EOT
 BYTE   Cn3  v064
 BYTE   W96
//  #05 //034   ----------------------------------------
 BYTE   W96
//  #05 //035   ----------------------------------------
 BYTE   W96
//  #05 //036   ----------------------------------------
 BYTE   W96
//  #05 //037   ----------------------------------------
 BYTE   W96
//  #05 //038   ----------------------------------------
 BYTE   W96
//  #05 //039   ----------------------------------------
Label_01004ED3:
 BYTE   VOL   18*SMT4B4_mvl/mxv
 BYTE   PAN   c_v+22
 BYTE   VOL   19*SMT4B4_mvl/mxv
 BYTE   TIE  Cn3  v100
 BYTE   TIE  Fn3
 BYTE   W01
 BYTE   VOL   20*SMT4B4_mvl/mxv
 BYTE   W01
 BYTE   VOL   22*SMT4B4_mvl/mxv
 BYTE   W01
 BYTE   VOL   24*SMT4B4_mvl/mxv
 BYTE   W01
 BYTE   VOL   25*SMT4B4_mvl/mxv
 BYTE   W01
 BYTE   VOL   27*SMT4B4_mvl/mxv
 BYTE   W01
 BYTE   VOL   29*SMT4B4_mvl/mxv
 BYTE   W01
 BYTE   VOL   30*SMT4B4_mvl/mxv
 BYTE   W01
 BYTE   VOL   31*SMT4B4_mvl/mxv
 BYTE   W01
 BYTE   VOL   34*SMT4B4_mvl/mxv
 BYTE   W01
 BYTE   VOL   35*SMT4B4_mvl/mxv
 BYTE   W01
 BYTE   VOL   37*SMT4B4_mvl/mxv
 BYTE   W01
 BYTE   VOL   38*SMT4B4_mvl/mxv
 BYTE   W48
 BYTE   VOL   37*SMT4B4_mvl/mxv
 BYTE   W01
 BYTE   VOL   36*SMT4B4_mvl/mxv
 BYTE   W01
 BYTE   VOL   35*SMT4B4_mvl/mxv
 BYTE   W01
 BYTE   VOL   34*SMT4B4_mvl/mxv
 BYTE   W01
 BYTE   VOL   33*SMT4B4_mvl/mxv
 BYTE   W01
 BYTE   VOL   32*SMT4B4_mvl/mxv
 BYTE   W01
 BYTE   VOL   31*SMT4B4_mvl/mxv
 BYTE   W01
 BYTE   VOL   30*SMT4B4_mvl/mxv
 BYTE   W01
 BYTE   VOL   29*SMT4B4_mvl/mxv
 BYTE   W01
 BYTE   VOL   28*SMT4B4_mvl/mxv
 BYTE   W01
 BYTE   VOL   27*SMT4B4_mvl/mxv
 BYTE   W01
 BYTE   VOL   26*SMT4B4_mvl/mxv
 BYTE   W01
 BYTE   VOL   27*SMT4B4_mvl/mxv
 BYTE   W01
 BYTE   VOL   29*SMT4B4_mvl/mxv
 BYTE   W01
 BYTE   VOL   30*SMT4B4_mvl/mxv
 BYTE   W01
 BYTE   VOL   33*SMT4B4_mvl/mxv
 BYTE   W01
 BYTE   VOL   35*SMT4B4_mvl/mxv
 BYTE   W01
 BYTE   VOL   36*SMT4B4_mvl/mxv
 BYTE   W01
 BYTE   VOL   38*SMT4B4_mvl/mxv
 BYTE   W18
 BYTE   PEND 
//  #05 //040   ----------------------------------------
 BYTE   PATT
  POIN2 Label_01004B78
//  #05 //041   ----------------------------------------
 BYTE   PATT
  POIN2 Label_01004BB4
//  #05 //042   ----------------------------------------
 BYTE   EOT
 BYTE   Cn3  v065
//  #05 //043   ----------------------------------------
 BYTE   PATT
  POIN2 Label_01004ED3
//  #05 //044   ----------------------------------------
 BYTE   PATT
  POIN2 Label_01004B78
//  #05 //045   ----------------------------------------
 BYTE   PATT
  POIN2 Label_01004BB4
//  #05 //046   ----------------------------------------
 BYTE   EOT
 BYTE   Cn3  v065
Label_01004F3E:
 BYTE   VOL   18*SMT4B4_mvl/mxv
 BYTE   PAN   c_v+22
 BYTE   VOL   19*SMT4B4_mvl/mxv
 BYTE   TIE  Bn1  v100
 BYTE   TIE  En2
 BYTE   W01
 BYTE   VOL   20*SMT4B4_mvl/mxv
 BYTE   W01
 BYTE   VOL   22*SMT4B4_mvl/mxv
 BYTE   W01
 BYTE   VOL   24*SMT4B4_mvl/mxv
 BYTE   W01
 BYTE   VOL   25*SMT4B4_mvl/mxv
 BYTE   W01
 BYTE   VOL   27*SMT4B4_mvl/mxv
 BYTE   W01
 BYTE   VOL   29*SMT4B4_mvl/mxv
 BYTE   W01
 BYTE   VOL   30*SMT4B4_mvl/mxv
 BYTE   W01
 BYTE   VOL   31*SMT4B4_mvl/mxv
 BYTE   W01
 BYTE   VOL   34*SMT4B4_mvl/mxv
 BYTE   W01
 BYTE   VOL   35*SMT4B4_mvl/mxv
 BYTE   W01
 BYTE   VOL   37*SMT4B4_mvl/mxv
 BYTE   W01
 BYTE   VOL   38*SMT4B4_mvl/mxv
 BYTE   W48
 BYTE   VOL   37*SMT4B4_mvl/mxv
 BYTE   W01
 BYTE   VOL   36*SMT4B4_mvl/mxv
 BYTE   W01
 BYTE   VOL   35*SMT4B4_mvl/mxv
 BYTE   W01
 BYTE   VOL   34*SMT4B4_mvl/mxv
 BYTE   W01
 BYTE   VOL   33*SMT4B4_mvl/mxv
 BYTE   W01
 BYTE   VOL   32*SMT4B4_mvl/mxv
 BYTE   W01
 BYTE   VOL   31*SMT4B4_mvl/mxv
 BYTE   W01
 BYTE   VOL   30*SMT4B4_mvl/mxv
 BYTE   W01
 BYTE   VOL   29*SMT4B4_mvl/mxv
 BYTE   W01
 BYTE   VOL   28*SMT4B4_mvl/mxv
 BYTE   W01
 BYTE   VOL   27*SMT4B4_mvl/mxv
 BYTE   W01
 BYTE   VOL   26*SMT4B4_mvl/mxv
 BYTE   W01
 BYTE   VOL   27*SMT4B4_mvl/mxv
 BYTE   W01
 BYTE   VOL   29*SMT4B4_mvl/mxv
 BYTE   W01
 BYTE   VOL   30*SMT4B4_mvl/mxv
 BYTE   W01
 BYTE   VOL   33*SMT4B4_mvl/mxv
 BYTE   W01
 BYTE   VOL   35*SMT4B4_mvl/mxv
 BYTE   W01
 BYTE   VOL   36*SMT4B4_mvl/mxv
 BYTE   W01
 BYTE   VOL   38*SMT4B4_mvl/mxv
 BYTE   W18
 BYTE   PEND 
//  #05 //047   ----------------------------------------
 BYTE   PATT
  POIN2 Label_01004B78
//  #05 //048   ----------------------------------------
 BYTE   PATT
  POIN2 Label_01004BB4
//  #05 //049   ----------------------------------------
 BYTE   EOT
 BYTE   Bn1  v052
Label_01004F97:
 BYTE   VOL   19*SMT4B4_mvl/mxv
 BYTE   TIE  Cn2  v100
 BYTE   TIE  En2
 BYTE   W01
 BYTE   VOL   20*SMT4B4_mvl/mxv
 BYTE   W01
 BYTE   VOL   22*SMT4B4_mvl/mxv
 BYTE   W01
 BYTE   VOL   24*SMT4B4_mvl/mxv
 BYTE   W01
 BYTE   VOL   25*SMT4B4_mvl/mxv
 BYTE   W01
 BYTE   VOL   27*SMT4B4_mvl/mxv
 BYTE   W01
 BYTE   VOL   29*SMT4B4_mvl/mxv
 BYTE   W01
 BYTE   VOL   30*SMT4B4_mvl/mxv
 BYTE   W01
 BYTE   VOL   31*SMT4B4_mvl/mxv
 BYTE   W01
 BYTE   VOL   34*SMT4B4_mvl/mxv
 BYTE   W01
 BYTE   VOL   35*SMT4B4_mvl/mxv
 BYTE   W01
 BYTE   VOL   37*SMT4B4_mvl/mxv
 BYTE   W01
 BYTE   VOL   38*SMT4B4_mvl/mxv
 BYTE   W48
 BYTE   VOL   37*SMT4B4_mvl/mxv
 BYTE   W01
 BYTE   VOL   36*SMT4B4_mvl/mxv
 BYTE   W01
 BYTE   VOL   35*SMT4B4_mvl/mxv
 BYTE   W01
 BYTE   VOL   34*SMT4B4_mvl/mxv
 BYTE   W01
 BYTE   VOL   33*SMT4B4_mvl/mxv
 BYTE   W01
 BYTE   VOL   32*SMT4B4_mvl/mxv
 BYTE   W01
 BYTE   VOL   31*SMT4B4_mvl/mxv
 BYTE   W01
 BYTE   VOL   30*SMT4B4_mvl/mxv
 BYTE   W01
 BYTE   VOL   29*SMT4B4_mvl/mxv
 BYTE   W01
 BYTE   VOL   28*SMT4B4_mvl/mxv
 BYTE   W01
 BYTE   VOL   27*SMT4B4_mvl/mxv
 BYTE   W01
 BYTE   VOL   26*SMT4B4_mvl/mxv
 BYTE   W01
 BYTE   VOL   27*SMT4B4_mvl/mxv
 BYTE   W01
 BYTE   VOL   29*SMT4B4_mvl/mxv
 BYTE   W01
 BYTE   VOL   30*SMT4B4_mvl/mxv
 BYTE   W01
 BYTE   VOL   33*SMT4B4_mvl/mxv
 BYTE   W01
 BYTE   VOL   35*SMT4B4_mvl/mxv
 BYTE   W01
 BYTE   VOL   36*SMT4B4_mvl/mxv
 BYTE   W01
 BYTE   VOL   38*SMT4B4_mvl/mxv
 BYTE   W18
 BYTE   PEND 
//  #05 //050   ----------------------------------------
 BYTE   PATT
  POIN2 Label_01004B78
//  #05 //051   ----------------------------------------
 BYTE   PATT
  POIN2 Label_01004C66
//  #05 //052   ----------------------------------------
 BYTE   EOT
 BYTE   Cn2  v052
Label_01004FEC:
 BYTE   VOL   19*SMT4B4_mvl/mxv
 BYTE   TIE  Bn1  v100
 BYTE   TIE  En2
 BYTE   W01
 BYTE   VOL   20*SMT4B4_mvl/mxv
 BYTE   W01
 BYTE   VOL   22*SMT4B4_mvl/mxv
 BYTE   W01
 BYTE   VOL   24*SMT4B4_mvl/mxv
 BYTE   W01
 BYTE   VOL   25*SMT4B4_mvl/mxv
 BYTE   W01
 BYTE   VOL   27*SMT4B4_mvl/mxv
 BYTE   W01
 BYTE   VOL   29*SMT4B4_mvl/mxv
 BYTE   W01
 BYTE   VOL   30*SMT4B4_mvl/mxv
 BYTE   W01
 BYTE   VOL   31*SMT4B4_mvl/mxv
 BYTE   W01
 BYTE   VOL   34*SMT4B4_mvl/mxv
 BYTE   W01
 BYTE   VOL   35*SMT4B4_mvl/mxv
 BYTE   W01
 BYTE   VOL   37*SMT4B4_mvl/mxv
 BYTE   W01
 BYTE   VOL   38*SMT4B4_mvl/mxv
 BYTE   W48
 BYTE   VOL   37*SMT4B4_mvl/mxv
 BYTE   W01
 BYTE   VOL   36*SMT4B4_mvl/mxv
 BYTE   W01
 BYTE   VOL   35*SMT4B4_mvl/mxv
 BYTE   W01
 BYTE   VOL   34*SMT4B4_mvl/mxv
 BYTE   W01
 BYTE   VOL   33*SMT4B4_mvl/mxv
 BYTE   W01
 BYTE   VOL   32*SMT4B4_mvl/mxv
 BYTE   W01
 BYTE   VOL   31*SMT4B4_mvl/mxv
 BYTE   W01
 BYTE   VOL   30*SMT4B4_mvl/mxv
 BYTE   W01
 BYTE   VOL   29*SMT4B4_mvl/mxv
 BYTE   W01
 BYTE   VOL   28*SMT4B4_mvl/mxv
 BYTE   W01
 BYTE   VOL   27*SMT4B4_mvl/mxv
 BYTE   W01
 BYTE   VOL   26*SMT4B4_mvl/mxv
 BYTE   W01
 BYTE   VOL   27*SMT4B4_mvl/mxv
 BYTE   W01
 BYTE   VOL   29*SMT4B4_mvl/mxv
 BYTE   W01
 BYTE   VOL   30*SMT4B4_mvl/mxv
 BYTE   W01
 BYTE   VOL   33*SMT4B4_mvl/mxv
 BYTE   W01
 BYTE   VOL   35*SMT4B4_mvl/mxv
 BYTE   W01
 BYTE   VOL   36*SMT4B4_mvl/mxv
 BYTE   W01
 BYTE   VOL   37*SMT4B4_mvl/mxv
 BYTE   W01
 BYTE   VOL   36*SMT4B4_mvl/mxv
 BYTE   W01
 BYTE   VOL   35*SMT4B4_mvl/mxv
 BYTE   W01
 BYTE   VOL   34*SMT4B4_mvl/mxv
 BYTE   W01
 BYTE   VOL   34*SMT4B4_mvl/mxv
 BYTE   W02
 BYTE   VOL   35*SMT4B4_mvl/mxv
 BYTE   W01
 BYTE   VOL   35*SMT4B4_mvl/mxv
 BYTE   W02
 BYTE   VOL   36*SMT4B4_mvl/mxv
 BYTE   W01
 BYTE   VOL   37*SMT4B4_mvl/mxv
 BYTE   W02
 BYTE   VOL   37*SMT4B4_mvl/mxv
 BYTE   W06
 BYTE   PEND 
//  #05 //053   ----------------------------------------
 BYTE   PATT
  POIN2 Label_01004D33
//  #05 //054   ----------------------------------------
 BYTE   PATT
  POIN2 Label_01004C66
//  #05 //055   ----------------------------------------
 BYTE   EOT
 BYTE   Bn1  v052
Label_01005053:
 BYTE   VOL   19*SMT4B4_mvl/mxv
 BYTE   TIE  Cn2  v100
 BYTE   TIE  En2
 BYTE   W01
 BYTE   VOL   20*SMT4B4_mvl/mxv
 BYTE   W01
 BYTE   VOL   22*SMT4B4_mvl/mxv
 BYTE   W01
 BYTE   VOL   24*SMT4B4_mvl/mxv
 BYTE   W01
 BYTE   VOL   25*SMT4B4_mvl/mxv
 BYTE   W01
 BYTE   VOL   27*SMT4B4_mvl/mxv
 BYTE   W01
 BYTE   VOL   29*SMT4B4_mvl/mxv
 BYTE   W01
 BYTE   VOL   30*SMT4B4_mvl/mxv
 BYTE   W01
 BYTE   VOL   31*SMT4B4_mvl/mxv
 BYTE   W01
 BYTE   VOL   34*SMT4B4_mvl/mxv
 BYTE   W01
 BYTE   VOL   35*SMT4B4_mvl/mxv
 BYTE   W01
 BYTE   VOL   37*SMT4B4_mvl/mxv
 BYTE   W01
 BYTE   VOL   38*SMT4B4_mvl/mxv
 BYTE   W48
 BYTE   VOL   37*SMT4B4_mvl/mxv
 BYTE   W01
 BYTE   VOL   36*SMT4B4_mvl/mxv
 BYTE   W01
 BYTE   VOL   35*SMT4B4_mvl/mxv
 BYTE   W01
 BYTE   VOL   34*SMT4B4_mvl/mxv
 BYTE   W01
 BYTE   VOL   33*SMT4B4_mvl/mxv
 BYTE   W01
 BYTE   VOL   32*SMT4B4_mvl/mxv
 BYTE   W01
 BYTE   VOL   31*SMT4B4_mvl/mxv
 BYTE   W01
 BYTE   VOL   30*SMT4B4_mvl/mxv
 BYTE   W01
 BYTE   VOL   29*SMT4B4_mvl/mxv
 BYTE   W01
 BYTE   VOL   28*SMT4B4_mvl/mxv
 BYTE   W01
 BYTE   VOL   27*SMT4B4_mvl/mxv
 BYTE   W01
 BYTE   VOL   26*SMT4B4_mvl/mxv
 BYTE   W01
 BYTE   VOL   27*SMT4B4_mvl/mxv
 BYTE   W01
 BYTE   VOL   29*SMT4B4_mvl/mxv
 BYTE   W01
 BYTE   VOL   30*SMT4B4_mvl/mxv
 BYTE   W01
 BYTE   VOL   33*SMT4B4_mvl/mxv
 BYTE   W01
 BYTE   VOL   35*SMT4B4_mvl/mxv
 BYTE   W01
 BYTE   VOL   36*SMT4B4_mvl/mxv
 BYTE   W01
 BYTE   VOL   37*SMT4B4_mvl/mxv
 BYTE   W01
 BYTE   VOL   36*SMT4B4_mvl/mxv
 BYTE   W01
 BYTE   VOL   35*SMT4B4_mvl/mxv
 BYTE   W01
 BYTE   VOL   34*SMT4B4_mvl/mxv
 BYTE   W01
 BYTE   VOL   34*SMT4B4_mvl/mxv
 BYTE   W02
 BYTE   VOL   35*SMT4B4_mvl/mxv
 BYTE   W01
 BYTE   VOL   35*SMT4B4_mvl/mxv
 BYTE   W02
 BYTE   VOL   36*SMT4B4_mvl/mxv
 BYTE   W01
 BYTE   VOL   37*SMT4B4_mvl/mxv
 BYTE   W02
 BYTE   VOL   37*SMT4B4_mvl/mxv
 BYTE   W06
 BYTE   PEND 
//  #05 //056   ----------------------------------------
 BYTE   PATT
  POIN2 Label_01004D33
//  #05 //057   ----------------------------------------
 BYTE   PATT
  POIN2 Label_01004C66
//  #05 //058   ----------------------------------------
 BYTE   EOT
 BYTE   Cn2  v052
Label_010050BA:
 BYTE   VOL   19*SMT4B4_mvl/mxv
 BYTE   TIE  Bn1  v100
 BYTE   TIE  En2
 BYTE   W01
 BYTE   VOL   20*SMT4B4_mvl/mxv
 BYTE   W01
 BYTE   VOL   22*SMT4B4_mvl/mxv
 BYTE   W01
 BYTE   VOL   24*SMT4B4_mvl/mxv
 BYTE   W01
 BYTE   VOL   25*SMT4B4_mvl/mxv
 BYTE   W01
 BYTE   VOL   27*SMT4B4_mvl/mxv
 BYTE   W01
 BYTE   VOL   29*SMT4B4_mvl/mxv
 BYTE   W01
 BYTE   VOL   30*SMT4B4_mvl/mxv
 BYTE   W01
 BYTE   VOL   31*SMT4B4_mvl/mxv
 BYTE   W01
 BYTE   VOL   34*SMT4B4_mvl/mxv
 BYTE   W01
 BYTE   VOL   35*SMT4B4_mvl/mxv
 BYTE   W01
 BYTE   VOL   37*SMT4B4_mvl/mxv
 BYTE   W01
 BYTE   VOL   38*SMT4B4_mvl/mxv
 BYTE   W48
 BYTE   VOL   37*SMT4B4_mvl/mxv
 BYTE   W01
 BYTE   VOL   36*SMT4B4_mvl/mxv
 BYTE   W01
 BYTE   VOL   35*SMT4B4_mvl/mxv
 BYTE   W01
 BYTE   VOL   34*SMT4B4_mvl/mxv
 BYTE   W01
 BYTE   VOL   33*SMT4B4_mvl/mxv
 BYTE   W01
 BYTE   VOL   32*SMT4B4_mvl/mxv
 BYTE   W01
 BYTE   VOL   31*SMT4B4_mvl/mxv
 BYTE   W01
 BYTE   VOL   30*SMT4B4_mvl/mxv
 BYTE   W01
 BYTE   VOL   29*SMT4B4_mvl/mxv
 BYTE   W01
 BYTE   VOL   28*SMT4B4_mvl/mxv
 BYTE   W01
 BYTE   VOL   27*SMT4B4_mvl/mxv
 BYTE   W01
 BYTE   VOL   26*SMT4B4_mvl/mxv
 BYTE   W01
 BYTE   VOL   27*SMT4B4_mvl/mxv
 BYTE   W01
 BYTE   VOL   29*SMT4B4_mvl/mxv
 BYTE   W01
 BYTE   VOL   30*SMT4B4_mvl/mxv
 BYTE   W01
 BYTE   VOL   33*SMT4B4_mvl/mxv
 BYTE   W01
 BYTE   VOL   35*SMT4B4_mvl/mxv
 BYTE   W01
 BYTE   VOL   36*SMT4B4_mvl/mxv
 BYTE   W01
 BYTE   VOL   38*SMT4B4_mvl/mxv
 BYTE   W18
 BYTE   PEND 
//  #05 //059   ----------------------------------------
 BYTE   PATT
  POIN2 Label_01004B78
//  #05 //060   ----------------------------------------
 BYTE   PATT
  POIN2 Label_01004BB4
//  #05 //061   ----------------------------------------
 BYTE   EOT
 BYTE   Bn1  v052
//  #05 //062   ----------------------------------------
 BYTE   PATT
  POIN2 Label_01004F97
//  #05 //063   ----------------------------------------
 BYTE   PATT
  POIN2 Label_01004B78
//  #05 //064   ----------------------------------------
 BYTE   PATT
  POIN2 Label_01004C66
//  #05 //065   ----------------------------------------
 BYTE   EOT
 BYTE   Cn2  v052
//  #05 //066   ----------------------------------------
 BYTE   PATT
  POIN2 Label_01004FEC
//  #05 //067   ----------------------------------------
 BYTE   PATT
  POIN2 Label_01004D33
//  #05 //068   ----------------------------------------
 BYTE   PATT
  POIN2 Label_01004C66
//  #05 //069   ----------------------------------------
 BYTE   EOT
 BYTE   Bn1  v052
//  #05 //070   ----------------------------------------
 BYTE   PATT
  POIN2 Label_01005053
//  #05 //071   ----------------------------------------
 BYTE   PATT
  POIN2 Label_01004D33
//  #05 //072   ----------------------------------------
 BYTE   PATT
  POIN2 Label_01004E64
//  #05 //073   ----------------------------------------
 BYTE   EOT
 BYTE   Cn2  v052
 BYTE   W96
//  #05 //074   ----------------------------------------
 BYTE   W96
//  #05 //075   ----------------------------------------
 BYTE   W96
//  #05 //076   ----------------------------------------
 BYTE   GoTo
  POIN2 Label_01004B2A
//  #05 //077   ----------------------------------------
 BYTE   PATT
  POIN2 Label_01004B2A
//  #05 //078   ----------------------------------------
 BYTE   PATT
  POIN2 Label_01004B78
//  #05 //079   ----------------------------------------
 BYTE   PATT
  POIN2 Label_01004BB4
//  #05 //080   ----------------------------------------
 BYTE   EOT
 BYTE   Bn2  v064
//  #05 //081   ----------------------------------------
 BYTE   PATT
  POIN2 Label_01004C19
//  #05 //082   ----------------------------------------
 BYTE   PATT
  POIN2 Label_01004B78
//  #05 //083   ----------------------------------------
 BYTE   PATT
  POIN2 Label_01004C66
//  #05 //084   ----------------------------------------
 BYTE   EOT
 BYTE   Cn3  v064
//  #05 //085   ----------------------------------------
 BYTE   PATT
  POIN2 Label_01004CD9
//  #05 //086   ----------------------------------------
 BYTE   PATT
  POIN2 Label_01004D33
//  #05 //087   ----------------------------------------
 BYTE   PATT
  POIN2 Label_01004C66
//  #05 //088   ----------------------------------------
 BYTE   EOT
 BYTE   Cs3  v064
//  #05 //089   ----------------------------------------
 BYTE   PATT
  POIN2 Label_01004D7A
//  #05 //090   ----------------------------------------
 BYTE   PATT
  POIN2 Label_01004D33
//  #05 //091   ----------------------------------------
 BYTE   PATT
  POIN2 Label_01004C66
//  #05 //092   ----------------------------------------
 BYTE   EOT
 BYTE   Cn3  v064
//  #05 //093   ----------------------------------------
 BYTE   PATT
  POIN2 Label_01004DE1
//  #05 //094   ----------------------------------------
 BYTE   PATT
  POIN2 Label_01004B78
//  #05 //095   ----------------------------------------
 BYTE   PATT
  POIN2 Label_01004BB4
//  #05 //096   ----------------------------------------
 BYTE   EOT
 BYTE   Bn2  v064
//  #05 //097   ----------------------------------------
 BYTE   PATT
  POIN2 Label_01004C19
//  #05 //098   ----------------------------------------
 BYTE   PATT
  POIN2 Label_01004B78
//  #05 //099   ----------------------------------------
 BYTE   PATT
  POIN2 Label_01004C66
//  #05 //100   ----------------------------------------
 BYTE   EOT
 BYTE   Cn3  v064
//  #05 //101   ----------------------------------------
 BYTE   PATT
  POIN2 Label_01004CD9
//  #05 //102   ----------------------------------------
 BYTE   PATT
  POIN2 Label_01004D33
//  #05 //103   ----------------------------------------
 BYTE   PATT
  POIN2 Label_01004C66
//  #05 //104   ----------------------------------------
 BYTE   EOT
 BYTE   Cs3  v064
//  #05 //105   ----------------------------------------
 BYTE   PATT
  POIN2 Label_01004D7A
//  #05 //106   ----------------------------------------
 BYTE   PATT
  POIN2 Label_01004D33
//  #05 //107   ----------------------------------------
 BYTE   PATT
  POIN2 Label_01004E64
//  #05 //108   ----------------------------------------
 BYTE   EOT
 BYTE   Cn3  v064
 BYTE   W96
//  #05 //109   ----------------------------------------
 BYTE   W96
//  #05 //110   ----------------------------------------
 BYTE   W96
//  #05 //111   ----------------------------------------
 BYTE   W96
//  #05 //112   ----------------------------------------
 BYTE   W96
//  #05 //113   ----------------------------------------
 BYTE   W96
//  #05 //114   ----------------------------------------
 BYTE   PATT
  POIN2 Label_01004ED3
//  #05 //115   ----------------------------------------
 BYTE   PATT
  POIN2 Label_01004B78
//  #05 //116   ----------------------------------------
 BYTE   PATT
  POIN2 Label_01004BB4
//  #05 //117   ----------------------------------------
 BYTE   EOT
 BYTE   Cn3  v065
//  #05 //118   ----------------------------------------
 BYTE   PATT
  POIN2 Label_01004ED3
//  #05 //119   ----------------------------------------
 BYTE   PATT
  POIN2 Label_01004B78
//  #05 //120   ----------------------------------------
 BYTE   PATT
  POIN2 Label_01004BB4
//  #05 //121   ----------------------------------------
 BYTE   EOT
 BYTE   Cn3  v065
//  #05 //122   ----------------------------------------
 BYTE   PATT
  POIN2 Label_01004F3E
//  #05 //123   ----------------------------------------
 BYTE   PATT
  POIN2 Label_01004B78
//  #05 //124   ----------------------------------------
 BYTE   PATT
  POIN2 Label_01004BB4
//  #05 //125   ----------------------------------------
 BYTE   EOT
 BYTE   Bn1  v052
//  #05 //126   ----------------------------------------
 BYTE   PATT
  POIN2 Label_01004F97
//  #05 //127   ----------------------------------------
 BYTE   PATT
  POIN2 Label_01004B78
//  #05 //128   ----------------------------------------
 BYTE   PATT
  POIN2 Label_01004C66
//  #05 //129   ----------------------------------------
 BYTE   EOT
 BYTE   Cn2  v052
//  #05 //130   ----------------------------------------
 BYTE   PATT
  POIN2 Label_01004FEC
//  #05 //131   ----------------------------------------
 BYTE   PATT
  POIN2 Label_01004D33
//  #05 //132   ----------------------------------------
 BYTE   PATT
  POIN2 Label_01004C66
//  #05 //133   ----------------------------------------
 BYTE   EOT
 BYTE   Bn1  v052
//  #05 //134   ----------------------------------------
 BYTE   PATT
  POIN2 Label_01005053
//  #05 //135   ----------------------------------------
 BYTE   PATT
  POIN2 Label_01004D33
//  #05 //136   ----------------------------------------
 BYTE   PATT
  POIN2 Label_01004C66
//  #05 //137   ----------------------------------------
 BYTE   EOT
 BYTE   Cn2  v052
//  #05 //138   ----------------------------------------
 BYTE   PATT
  POIN2 Label_010050BA
//  #05 //139   ----------------------------------------
 BYTE   PATT
  POIN2 Label_01004B78
//  #05 //140   ----------------------------------------
 BYTE   PATT
  POIN2 Label_01004BB4
//  #05 //141   ----------------------------------------
 BYTE   EOT
 BYTE   Bn1  v052
//  #05 //142   ----------------------------------------
 BYTE   PATT
  POIN2 Label_01004F97
//  #05 //143   ----------------------------------------
 BYTE   PATT
  POIN2 Label_01004B78
//  #05 //144   ----------------------------------------
 BYTE   PATT
  POIN2 Label_01004C66
//  #05 //145   ----------------------------------------
 BYTE   EOT
 BYTE   Cn2  v052
//  #05 //146   ----------------------------------------
 BYTE   PATT
  POIN2 Label_01004FEC
//  #05 //147   ----------------------------------------
 BYTE   PATT
  POIN2 Label_01004D33
//  #05 //148   ----------------------------------------
 BYTE   PATT
  POIN2 Label_01004C66
//  #05 //149   ----------------------------------------
 BYTE   EOT
 BYTE   Bn1  v052
//  #05 //150   ----------------------------------------
 BYTE   PATT
  POIN2 Label_01005053
//  #05 //151   ----------------------------------------
 BYTE   PATT
  POIN2 Label_01004D33
//  #05 //152   ----------------------------------------
 BYTE   PATT
  POIN2 Label_01004E64
//  #05 //153   ----------------------------------------
 BYTE   EOT
 BYTE   Cn2  v052
 BYTE   W96
//  #05 //154   ----------------------------------------
 BYTE   W96
//  #05 //155   ----------------------------------------
 BYTE   W96
 BYTE   FINE

//**************** Track 6 (Midi-Chn.5) ****************//

SMT4B4_006:
//  #06 //000   ----------------------------------------
 BYTE   KEYSH   SMT4B4_key+0
 BYTE   VOICE   49
 BYTE   VOL   45*SMT4B4_mvl/mxv
 BYTE   PAN   c_v-21
 BYTE   VOL   45*SMT4B4_mvl/mxv
 BYTE   PAN   c_v-21
 BYTE   W36
 BYTE   N24  Bn2  v096
 BYTE   W24
 BYTE   N12  Cn3
 BYTE   W12
 BYTE   N18  Bn2
 BYTE   W24
//  #06 //001   ----------------------------------------
Label_010052C3:
 BYTE   N24  Dn3  v096
 BYTE   W24
 BYTE   N18  Bn2
 BYTE   W60
 BYTE   N24
 BYTE   W12
 BYTE   PEND 
//  #06 //002   ----------------------------------------
 BYTE   W12
 BYTE   N12  Cn3
 BYTE   W12
 BYTE   N18  Bn2
 BYTE   W24
 BYTE   N24  Dn3
 BYTE   W24
 BYTE   N18  Bn2
 BYTE   W24
//  #06 //003   ----------------------------------------
 BYTE   W36
 BYTE   N24
 BYTE   W24
 BYTE   N12  Cn3
 BYTE   W12
 BYTE   N18  Bn2
 BYTE   W24
//  #06 //004   ----------------------------------------
 BYTE   PATT
  POIN2 Label_010052C3
//  #06 //005   ----------------------------------------
Label_010052E8:
 BYTE   W12
 BYTE   N12  Cn3  v096
 BYTE   W12
 BYTE   Bn2
 BYTE   W12
 BYTE   N24  Dn3
 BYTE   W24
 BYTE   En3
 BYTE   W24
 BYTE   N12  Fs3
 BYTE   W12
 BYTE   PEND 
//  #06 //006   ----------------------------------------
Label_010052F8:
 BYTE   VOL   45*SMT4B4_mvl/mxv
 BYTE   PAN   c_v-21
 BYTE   VOL   44*SMT4B4_mvl/mxv
 BYTE   PAN   c_v+0
 BYTE   VOL   44*SMT4B4_mvl/mxv
 BYTE   PAN   c_v+0
 BYTE   N72  En4  v096
 BYTE   W72
 BYTE   N06  Dn4
 BYTE   W06
 BYTE   TIE  En4
 BYTE   W18
 BYTE   PEND 
//  #06 //007   ----------------------------------------
 BYTE   W90
 BYTE   EOT
 BYTE   N06  Dn4
 BYTE   W06
//  #06 //008   ----------------------------------------
Label_01005314:
 BYTE   N24  En4  v096
 BYTE   W24
 BYTE   N36  Fs4
 BYTE   W36
 BYTE   Dn4
 BYTE   W36
 BYTE   PEND 
//  #06 //009   ----------------------------------------
 BYTE   TIE
 BYTE   W96
//  #06 //010   ----------------------------------------
 BYTE   W84
 BYTE   EOT
 BYTE   N36  En4
 BYTE   W12
//  #06 //011   ----------------------------------------
Label_01005325:
 BYTE   W24
 BYTE   N24  Cn4  v096
 BYTE   W24
 BYTE   N42  Dn4
 BYTE   W42
 BYTE   N03
 BYTE   W03
 BYTE   Cn4
 BYTE   W03
 BYTE   PEND 
//  #06 //012   ----------------------------------------
Label_01005332:
 BYTE   N72  Bn3  v096
 BYTE   W72
 BYTE   N06  An3
 BYTE   W06
 BYTE   N90  Bn3
 BYTE   W18
 BYTE   PEND 
//  #06 //013   ----------------------------------------
 BYTE   W72
 BYTE   N24  Fs4
 BYTE   W24
//  #06 //014   ----------------------------------------
Label_01005341:
 BYTE   N24  Gn4  v096
 BYTE   W24
 BYTE   Fs4
 BYTE   W24
 BYTE   N48  En4
 BYTE   W48
 BYTE   PEND 
//  #06 //015   ----------------------------------------
Label_0100534B:
 BYTE   N72  Dn4  v096
 BYTE   W72
 BYTE   N66  Cn4
 BYTE   W24
 BYTE   PEND 
//  #06 //016   ----------------------------------------
Label_01005353:
 BYTE   W42
 BYTE   N03  Cn4  v096
 BYTE   W03
 BYTE   As3
 BYTE   W03
 BYTE   N48  An3
 BYTE   W48
 BYTE   PEND 
//  #06 //017   ----------------------------------------
Label_0100535E:
 BYTE   N24  Bn3  v096
 BYTE   W24
 BYTE   Cn4
 BYTE   W24
 BYTE   Dn4
 BYTE   W24
 BYTE   Fs4
 BYTE   W24
 BYTE   PEND 
//  #06 //018   ----------------------------------------
Label_01005369:
 BYTE   N72  En4  v096
 BYTE   W72
 BYTE   N06  Dn4
 BYTE   W06
 BYTE   TIE  En4
 BYTE   W18
 BYTE   PEND 
//  #06 //019   ----------------------------------------
 BYTE   W90
 BYTE   EOT
 BYTE   N06  Dn4
 BYTE   W06
//  #06 //020   ----------------------------------------
 BYTE   PATT
  POIN2 Label_01005314
//  #06 //021   ----------------------------------------
 BYTE   TIE  Dn4  v096
 BYTE   W96
//  #06 //022   ----------------------------------------
 BYTE   W84
 BYTE   EOT
 BYTE   N36  En4
 BYTE   W12
//  #06 //023   ----------------------------------------
 BYTE   PATT
  POIN2 Label_01005325
//  #06 //024   ----------------------------------------
 BYTE   PATT
  POIN2 Label_01005332
//  #06 //025   ----------------------------------------
 BYTE   W72
 BYTE   N24  Fs4  v096
 BYTE   W24
//  #06 //026   ----------------------------------------
 BYTE   PATT
  POIN2 Label_01005341
//  #06 //027   ----------------------------------------
Label_0100539B:
 BYTE   N48  An4  v096
 BYTE   W48
 BYTE   N24  Bn4
 BYTE   W24
 BYTE   Fs4
 BYTE   W24
 BYTE   PEND 
//  #06 //028   ----------------------------------------
Label_010053A5:
 BYTE   N36  Gn4  v096
 BYTE   W36
 BYTE   N06  Dn4
 BYTE   W06
 BYTE   Cs4
 BYTE   W06
 BYTE   N48  Cn4
 BYTE   W48
 BYTE   PEND 
//  #06 //029   ----------------------------------------
 BYTE   PATT
  POIN2 Label_0100535E
//  #06 //030   ----------------------------------------
Label_010053B7:
 BYTE   VOL   39*SMT4B4_mvl/mxv
 BYTE   N66  Cn5  v100
 BYTE   W66
 BYTE   N06  As4
 BYTE   W06
 BYTE   N72  Cn5
 BYTE   W24
 BYTE   PEND 
//  #06 //031   ----------------------------------------
Label_010053C4:
 BYTE   W48
 BYTE   N24  Cn5  v100
 BYTE   W24
 BYTE   N36  Fn5
 BYTE   W24
 BYTE   PEND 
//  #06 //032   ----------------------------------------
Label_010053CD:
 BYTE   W12
 BYTE   N12  Gn5  v100
 BYTE   W12
 BYTE   N72  Ds5
 BYTE   W72
 BYTE   PEND 
//  #06 //033   ----------------------------------------
Label_010053D6:
 BYTE   N54  Fn5  v100
 BYTE   W54
 BYTE   N06  Cn5
 BYTE   W06
 BYTE   N12  As4
 BYTE   W12
 BYTE   N72
 BYTE   W24
 BYTE   PEND 
//  #06 //034   ----------------------------------------
Label_010053E3:
 BYTE   W48
 BYTE   N24  As4  v100
 BYTE   W24
 BYTE   N36  Ds5
 BYTE   W01
 BYTE   VOL   39*SMT4B4_mvl/mxv
 BYTE   W23
 BYTE   PEND 
//  #06 //035   ----------------------------------------
Label_010053EF:
 BYTE   W12
 BYTE   N03  Gs4  v100
 BYTE   W03
 BYTE   As4
 BYTE   W03
 BYTE   Gs4
 BYTE   W03
 BYTE   Fn4
 BYTE   W03
 BYTE   N54  Gn4
 BYTE   W54
 BYTE   N12  Gs4
 BYTE   W12
 BYTE   N06  As4
 BYTE   W06
 BYTE   PEND 
//  #06 //036   ----------------------------------------
Label_01005404:
 BYTE   N66  Cn5  v100
 BYTE   W66
 BYTE   N06  As4
 BYTE   W06
 BYTE   N72  Cn5
 BYTE   W24
 BYTE   PEND 
//  #06 //037   ----------------------------------------
Label_0100540F:
 BYTE   W48
 BYTE   N24  Cn5  v100
 BYTE   W24
 BYTE   N30  Ds5
 BYTE   W24
 BYTE   PEND 
//  #06 //038   ----------------------------------------
Label_01005418:
 BYTE   W06
 BYTE   N06  Dn5  v100
 BYTE   W06
 BYTE   Cs5
 BYTE   W06
 BYTE   Cn5
 BYTE   W06
 BYTE   N24  Fn5
 BYTE   W24
 BYTE   Gn5
 BYTE   W24
 BYTE   Ds5
 BYTE   W24
 BYTE   PEND 
//  #06 //039   ----------------------------------------
Label_01005429:
 BYTE   N48  Ds5  v100
 BYTE   W48
 BYTE   TIE  Fn5
 BYTE   W03
 BYTE   VOL   39*SMT4B4_mvl/mxv
 BYTE   W03
 BYTE   VOL   39*SMT4B4_mvl/mxv
 BYTE   W04
 BYTE   VOL   38*SMT4B4_mvl/mxv
 BYTE   W05
 BYTE   VOL   38*SMT4B4_mvl/mxv
 BYTE   W04
 BYTE   VOL   38*SMT4B4_mvl/mxv
 BYTE   W05
 BYTE   VOL   37*SMT4B4_mvl/mxv
 BYTE   W04
 BYTE   VOL   37*SMT4B4_mvl/mxv
 BYTE   W05
 BYTE   VOL   37*SMT4B4_mvl/mxv
 BYTE   W04
 BYTE   VOL   36*SMT4B4_mvl/mxv
 BYTE   W05
 BYTE   VOL   36*SMT4B4_mvl/mxv
 BYTE   W04
 BYTE   VOL   35*SMT4B4_mvl/mxv
 BYTE   W02
 BYTE   PEND 
//  #06 //040   ----------------------------------------
Label_01005448:
 BYTE   W03
 BYTE   VOL   35*SMT4B4_mvl/mxv
 BYTE   W04
 BYTE   VOL   35*SMT4B4_mvl/mxv
 BYTE   W05
 BYTE   VOL   34*SMT4B4_mvl/mxv
 BYTE   W04
 BYTE   VOL   34*SMT4B4_mvl/mxv
 BYTE   W05
 BYTE   VOL   33*SMT4B4_mvl/mxv
 BYTE   W04
 BYTE   VOL   33*SMT4B4_mvl/mxv
 BYTE   W05
 BYTE   VOL   33*SMT4B4_mvl/mxv
 BYTE   W04
 BYTE   VOL   32*SMT4B4_mvl/mxv
 BYTE   W02
 BYTE   VOL   32*SMT4B4_mvl/mxv
 BYTE   W01
 BYTE   VOL   32*SMT4B4_mvl/mxv
 BYTE   W03
 BYTE   VOL   31*SMT4B4_mvl/mxv
 BYTE   W02
 BYTE   VOL   31*SMT4B4_mvl/mxv
 BYTE   W03
 BYTE   VOL   31*SMT4B4_mvl/mxv
 BYTE   W03
 BYTE   VOL   30*SMT4B4_mvl/mxv
 BYTE   W03
 BYTE   VOL   30*SMT4B4_mvl/mxv
 BYTE   W03
 BYTE   VOL   29*SMT4B4_mvl/mxv
 BYTE   W02
 BYTE   VOL   29*SMT4B4_mvl/mxv
 BYTE   W03
 BYTE   VOL   29*SMT4B4_mvl/mxv
 BYTE   W03
 BYTE   VOL   28*SMT4B4_mvl/mxv
 BYTE   W02
 BYTE   VOL   28*SMT4B4_mvl/mxv
 BYTE   W03
 BYTE   VOL   27*SMT4B4_mvl/mxv
 BYTE   W02
 BYTE   VOL   27*SMT4B4_mvl/mxv
 BYTE   W03
 BYTE   VOL   27*SMT4B4_mvl/mxv
 BYTE   W03
 BYTE   VOL   26*SMT4B4_mvl/mxv
 BYTE   W03
 BYTE   VOL   26*SMT4B4_mvl/mxv
 BYTE   W03
 BYTE   VOL   25*SMT4B4_mvl/mxv
 BYTE   W02
 BYTE   VOL   25*SMT4B4_mvl/mxv
 BYTE   W03
 BYTE   VOL   25*SMT4B4_mvl/mxv
 BYTE   W02
 BYTE   VOL   24*SMT4B4_mvl/mxv
 BYTE   W03
 BYTE   VOL   24*SMT4B4_mvl/mxv
 BYTE   W03
 BYTE   VOL   24*SMT4B4_mvl/mxv
 BYTE   W02
 BYTE   PEND 
//  #06 //041   ----------------------------------------
Label_01005489:
 BYTE   VOL   23*SMT4B4_mvl/mxv
 BYTE   W03
 BYTE   VOL   23*SMT4B4_mvl/mxv
 BYTE   W03
 BYTE   VOL   22*SMT4B4_mvl/mxv
 BYTE   W03
 BYTE   VOL   22*SMT4B4_mvl/mxv
 BYTE   W03
 BYTE   VOL   22*SMT4B4_mvl/mxv
 BYTE   W02
 BYTE   VOL   21*SMT4B4_mvl/mxv
 BYTE   W03
 BYTE   VOL   21*SMT4B4_mvl/mxv
 BYTE   W02
 BYTE   VOL   20*SMT4B4_mvl/mxv
 BYTE   W03
 BYTE   VOL   20*SMT4B4_mvl/mxv
 BYTE   W02
 BYTE   VOL   20*SMT4B4_mvl/mxv
 BYTE   W03
 BYTE   VOL   19*SMT4B4_mvl/mxv
 BYTE   W03
 BYTE   VOL   19*SMT4B4_mvl/mxv
 BYTE   W03
 BYTE   VOL   18*SMT4B4_mvl/mxv
 BYTE   W03
 BYTE   VOL   18*SMT4B4_mvl/mxv
 BYTE   W02
 BYTE   VOL   18*SMT4B4_mvl/mxv
 BYTE   W03
 BYTE   VOL   17*SMT4B4_mvl/mxv
 BYTE   W03
 BYTE   VOL   17*SMT4B4_mvl/mxv
 BYTE   W02
 BYTE   VOL   16*SMT4B4_mvl/mxv
 BYTE   W03
 BYTE   VOL   16*SMT4B4_mvl/mxv
 BYTE   W02
 BYTE   VOL   16*SMT4B4_mvl/mxv
 BYTE   W03
 BYTE   VOL   15*SMT4B4_mvl/mxv
 BYTE   W03
 BYTE   VOL   15*SMT4B4_mvl/mxv
 BYTE   W03
 BYTE   VOL   14*SMT4B4_mvl/mxv
 BYTE   W03
 BYTE   VOL   14*SMT4B4_mvl/mxv
 BYTE   W02
 BYTE   VOL   14*SMT4B4_mvl/mxv
 BYTE   W03
 BYTE   VOL   13*SMT4B4_mvl/mxv
 BYTE   W02
 BYTE   VOL   13*SMT4B4_mvl/mxv
 BYTE   W03
 BYTE   VOL   12*SMT4B4_mvl/mxv
 BYTE   W03
 BYTE   VOL   12*SMT4B4_mvl/mxv
 BYTE   W02
 BYTE   VOL   12*SMT4B4_mvl/mxv
 BYTE   W03
 BYTE   VOL   11*SMT4B4_mvl/mxv
 BYTE   W03
 BYTE   VOL   11*SMT4B4_mvl/mxv
 BYTE   W03
 BYTE   VOL   11*SMT4B4_mvl/mxv
 BYTE   W03
 BYTE   VOL   10*SMT4B4_mvl/mxv
 BYTE   W02
 BYTE   VOL   10*SMT4B4_mvl/mxv
 BYTE   W03
 BYTE   VOL   9*SMT4B4_mvl/mxv
 BYTE   W01
 BYTE   PEND 
//  #06 //042   ----------------------------------------
 BYTE   EOT
 BYTE   Fn5
 BYTE   W96
//  #06 //043   ----------------------------------------
 BYTE   W96
//  #06 //044   ----------------------------------------
 BYTE   W96
//  #06 //045   ----------------------------------------
 BYTE   W96
//  #06 //046   ----------------------------------------
 BYTE   W96
//  #06 //047   ----------------------------------------
 BYTE   W96
//  #06 //048   ----------------------------------------
 BYTE   W96
//  #06 //049   ----------------------------------------
 BYTE   W96
//  #06 //050   ----------------------------------------
 BYTE   W96
//  #06 //051   ----------------------------------------
 BYTE   W96
//  #06 //052   ----------------------------------------
 BYTE   W96
//  #06 //053   ----------------------------------------
 BYTE   W96
//  #06 //054   ----------------------------------------
Label_010054E1:
 BYTE   VOL   41*SMT4B4_mvl/mxv
 BYTE   BEND   c_v-58
 BYTE   TIE  En4  v076
 BYTE   W01
 BYTE   BEND   c_v-52
 BYTE   W01
 BYTE   BEND   c_v-45
 BYTE   W01
 BYTE   BEND   c_v-33
 BYTE   W01
 BYTE   BEND   c_v-26
 BYTE   W01
 BYTE   BEND   c_v-20
 BYTE   W01
 BYTE   BEND   c_v-7
 BYTE   W01
 BYTE   BEND   c_v+0
 BYTE   W88
 BYTE   W01
 BYTE   PEND 
//  #06 //055   ----------------------------------------
 BYTE   W96
//  #06 //056   ----------------------------------------
 BYTE   W96
//  #06 //057   ----------------------------------------
 BYTE   EOT
//  #06 //058   ----------------------------------------
 BYTE   PATT
  POIN2 Label_010054E1
//  #06 //059   ----------------------------------------
 BYTE   W96
//  #06 //060   ----------------------------------------
 BYTE   W96
//  #06 //061   ----------------------------------------
 BYTE   EOT
 BYTE   En4
//  #06 //062   ----------------------------------------
 BYTE   PATT
  POIN2 Label_010054E1
//  #06 //063   ----------------------------------------
 BYTE   W96
//  #06 //064   ----------------------------------------
Label_0100550C:
 BYTE   W92
 BYTE   W01
 BYTE   BEND   c_v+0
 BYTE   W03
 BYTE   PEND 
//  #06 //065   ----------------------------------------
 BYTE   EOT
 BYTE   En4
Label_01005514:
 BYTE   VOL   41*SMT4B4_mvl/mxv
 BYTE   BEND   c_v-58
 BYTE   TIE  An4  v076
 BYTE   W01
 BYTE   BEND   c_v-52
 BYTE   W01
 BYTE   BEND   c_v-45
 BYTE   W01
 BYTE   BEND   c_v-33
 BYTE   W01
 BYTE   BEND   c_v-26
 BYTE   W01
 BYTE   BEND   c_v-20
 BYTE   W01
 BYTE   BEND   c_v-7
 BYTE   W01
 BYTE   BEND   c_v+0
 BYTE   W88
 BYTE   W01
 BYTE   PEND 
//  #06 //066   ----------------------------------------
 BYTE   W96
//  #06 //067   ----------------------------------------
 BYTE   W96
//  #06 //068   ----------------------------------------
 BYTE   EOT
Label_01005530:
 BYTE   VOL   45*SMT4B4_mvl/mxv
 BYTE   PAN   c_v-21
 BYTE   W36
 BYTE   N24  Bn2  v096
 BYTE   W24
 BYTE   N12  Cn3
 BYTE   W12
 BYTE   N18  Bn2
 BYTE   W24
 BYTE   PEND 
//  #06 //069   ----------------------------------------
 BYTE   PATT
  POIN2 Label_010052C3
//  #06 //070   ----------------------------------------
 BYTE   PATT
  POIN2 Label_010052E8
//  #06 //071   ----------------------------------------
 BYTE   GoTo
  POIN2 Label_010052F8
//  #06 //072   ----------------------------------------
 BYTE   PATT
  POIN2 Label_010052F8
//  #06 //073   ----------------------------------------
 BYTE   W90
 BYTE   EOT
 BYTE   En4
 BYTE   N06  Dn4  v096
 BYTE   W06
//  #06 //074   ----------------------------------------
 BYTE   PATT
  POIN2 Label_01005314
//  #06 //075   ----------------------------------------
 BYTE   TIE  Dn4  v096
 BYTE   W96
//  #06 //076   ----------------------------------------
 BYTE   W84
 BYTE   EOT
 BYTE   N36  En4
 BYTE   W12
//  #06 //077   ----------------------------------------
 BYTE   PATT
  POIN2 Label_01005325
//  #06 //078   ----------------------------------------
 BYTE   PATT
  POIN2 Label_01005332
//  #06 //079   ----------------------------------------
 BYTE   W72
 BYTE   N24  Fs4  v096
 BYTE   W24
//  #06 //080   ----------------------------------------
 BYTE   PATT
  POIN2 Label_01005341
//  #06 //081   ----------------------------------------
 BYTE   PATT
  POIN2 Label_0100534B
//  #06 //082   ----------------------------------------
 BYTE   PATT
  POIN2 Label_01005353
//  #06 //083   ----------------------------------------
 BYTE   PATT
  POIN2 Label_0100535E
//  #06 //084   ----------------------------------------
 BYTE   PATT
  POIN2 Label_01005369
//  #06 //085   ----------------------------------------
 BYTE   W90
 BYTE   EOT
 BYTE   En4
 BYTE   N06  Dn4  v096
 BYTE   W06
//  #06 //086   ----------------------------------------
 BYTE   PATT
  POIN2 Label_01005314
//  #06 //087   ----------------------------------------
 BYTE   TIE  Dn4  v096
 BYTE   W96
//  #06 //088   ----------------------------------------
 BYTE   W84
 BYTE   EOT
 BYTE   N36  En4
 BYTE   W12
//  #06 //089   ----------------------------------------
 BYTE   PATT
  POIN2 Label_01005325
//  #06 //090   ----------------------------------------
 BYTE   PATT
  POIN2 Label_01005332
//  #06 //091   ----------------------------------------
 BYTE   W72
 BYTE   N24  Fs4  v096
 BYTE   W24
//  #06 //092   ----------------------------------------
 BYTE   PATT
  POIN2 Label_01005341
//  #06 //093   ----------------------------------------
 BYTE   PATT
  POIN2 Label_0100539B
//  #06 //094   ----------------------------------------
 BYTE   PATT
  POIN2 Label_010053A5
//  #06 //095   ----------------------------------------
 BYTE   PATT
  POIN2 Label_0100535E
//  #06 //096   ----------------------------------------
 BYTE   PATT
  POIN2 Label_010053B7
//  #06 //097   ----------------------------------------
 BYTE   PATT
  POIN2 Label_010053C4
//  #06 //098   ----------------------------------------
 BYTE   PATT
  POIN2 Label_010053CD
//  #06 //099   ----------------------------------------
 BYTE   PATT
  POIN2 Label_010053D6
//  #06 //100   ----------------------------------------
 BYTE   PATT
  POIN2 Label_010053E3
//  #06 //101   ----------------------------------------
 BYTE   PATT
  POIN2 Label_010053EF
//  #06 //102   ----------------------------------------
 BYTE   PATT
  POIN2 Label_01005404
//  #06 //103   ----------------------------------------
 BYTE   PATT
  POIN2 Label_0100540F
//  #06 //104   ----------------------------------------
 BYTE   PATT
  POIN2 Label_01005418
//  #06 //105   ----------------------------------------
 BYTE   PATT
  POIN2 Label_01005429
//  #06 //106   ----------------------------------------
 BYTE   PATT
  POIN2 Label_01005448
//  #06 //107   ----------------------------------------
 BYTE   PATT
  POIN2 Label_01005489
//  #06 //108   ----------------------------------------
 BYTE   EOT
 BYTE   Fn5
 BYTE   W96
//  #06 //109   ----------------------------------------
 BYTE   W96
//  #06 //110   ----------------------------------------
 BYTE   W96
//  #06 //111   ----------------------------------------
 BYTE   W96
//  #06 //112   ----------------------------------------
 BYTE   W96
//  #06 //113   ----------------------------------------
 BYTE   W96
//  #06 //114   ----------------------------------------
 BYTE   W96
//  #06 //115   ----------------------------------------
 BYTE   W96
//  #06 //116   ----------------------------------------
 BYTE   W96
//  #06 //117   ----------------------------------------
 BYTE   W96
//  #06 //118   ----------------------------------------
 BYTE   W96
//  #06 //119   ----------------------------------------
 BYTE   W96
//  #06 //120   ----------------------------------------
 BYTE   PATT
  POIN2 Label_010054E1
//  #06 //121   ----------------------------------------
 BYTE   W96
//  #06 //122   ----------------------------------------
 BYTE   W96
//  #06 //123   ----------------------------------------
 BYTE   EOT
 BYTE   En4
//  #06 //124   ----------------------------------------
 BYTE   PATT
  POIN2 Label_010054E1
//  #06 //125   ----------------------------------------
 BYTE   W96
//  #06 //126   ----------------------------------------
 BYTE   W96
//  #06 //127   ----------------------------------------
 BYTE   EOT
 BYTE   En4
//  #06 //128   ----------------------------------------
 BYTE   PATT
  POIN2 Label_010054E1
//  #06 //129   ----------------------------------------
 BYTE   W96
//  #06 //130   ----------------------------------------
 BYTE   PATT
  POIN2 Label_0100550C
//  #06 //131   ----------------------------------------
 BYTE   EOT
 BYTE   En4
//  #06 //132   ----------------------------------------
 BYTE   PATT
  POIN2 Label_01005514
//  #06 //133   ----------------------------------------
 BYTE   W96
//  #06 //134   ----------------------------------------
 BYTE   W96
//  #06 //135   ----------------------------------------
 BYTE   EOT
 BYTE   An4
//  #06 //136   ----------------------------------------
 BYTE   PATT
  POIN2 Label_01005530
//  #06 //137   ----------------------------------------
 BYTE   PATT
  POIN2 Label_010052C3
//  #06 //138   ----------------------------------------
 BYTE   PATT
  POIN2 Label_010052E8
 BYTE   FINE

//**************** Track 7 (Midi-Chn.6) ****************//

SMT4B4_007:
//  #07 //000   ----------------------------------------
 BYTE   VOL   50*SMT4B4_mvl/mxv
 BYTE   KEYSH   SMT4B4_key+0
 BYTE   VOICE   85
 BYTE   W96
//  #07 //001   ----------------------------------------
 BYTE   W96
//  #07 //002   ----------------------------------------
 BYTE   W96
//  #07 //003   ----------------------------------------
 BYTE   W96
//  #07 //004   ----------------------------------------
 BYTE   W96
//  #07 //005   ----------------------------------------
 BYTE   W96
//  #07 //006   ----------------------------------------
Label_0100566C:
 BYTE   W96
//  #07 //007   ----------------------------------------
 BYTE   W96
//  #07 //008   ----------------------------------------
 BYTE   W96
//  #07 //009   ----------------------------------------
 BYTE   W96
//  #07 //010   ----------------------------------------
 BYTE   W96
//  #07 //011   ----------------------------------------
 BYTE   W96
//  #07 //012   ----------------------------------------
 BYTE   W96
//  #07 //013   ----------------------------------------
 BYTE   W96
//  #07 //014   ----------------------------------------
 BYTE   W96
//  #07 //015   ----------------------------------------
 BYTE   W96
//  #07 //016   ----------------------------------------
 BYTE   W96
//  #07 //017   ----------------------------------------
 BYTE   W96
//  #07 //018   ----------------------------------------
 BYTE   W96
//  #07 //019   ----------------------------------------
 BYTE   W96
//  #07 //020   ----------------------------------------
 BYTE   W96
//  #07 //021   ----------------------------------------
 BYTE   W96
//  #07 //022   ----------------------------------------
 BYTE   W96
//  #07 //023   ----------------------------------------
 BYTE   W96
//  #07 //024   ----------------------------------------
 BYTE   W96
//  #07 //025   ----------------------------------------
 BYTE   W96
//  #07 //026   ----------------------------------------
 BYTE   W96
//  #07 //027   ----------------------------------------
 BYTE   W96
//  #07 //028   ----------------------------------------
 BYTE   W96
//  #07 //029   ----------------------------------------
 BYTE   W96
//  #07 //030   ----------------------------------------
 BYTE   W96
//  #07 //031   ----------------------------------------
 BYTE   W96
//  #07 //032   ----------------------------------------
 BYTE   W96
//  #07 //033   ----------------------------------------
 BYTE   W96
//  #07 //034   ----------------------------------------
 BYTE   W96
//  #07 //035   ----------------------------------------
 BYTE   W96
//  #07 //036   ----------------------------------------
 BYTE   W96
//  #07 //037   ----------------------------------------
 BYTE   W96
//  #07 //038   ----------------------------------------
 BYTE   W96
//  #07 //039   ----------------------------------------
 BYTE   W96
//  #07 //040   ----------------------------------------
 BYTE   W96
//  #07 //041   ----------------------------------------
 BYTE   W96
//  #07 //042   ----------------------------------------
 BYTE   W96
//  #07 //043   ----------------------------------------
 BYTE   W96
//  #07 //044   ----------------------------------------
Label_01005692:
 BYTE   W24
 BYTE   BEND   c_v-48
 BYTE   N72  Bn3  v120
 BYTE   W01
 BYTE   BEND   c_v-33
 BYTE   W01
 BYTE   BEND   c_v-18
 BYTE   W01
 BYTE   BEND   c_v+0
 BYTE   W68
 BYTE   W01
 BYTE   PEND 
//  #07 //045   ----------------------------------------
 BYTE   TIE  An3
 BYTE   W96
//  #07 //046   ----------------------------------------
 BYTE   W96
//  #07 //047   ----------------------------------------
 BYTE   W24
 BYTE   EOT
 BYTE   BEND   c_v+0
 BYTE   W18
 BYTE   BEND   c_v-1
 BYTE   W01
 BYTE   BEND   c_v-1
 BYTE   W01
 BYTE   BEND   c_v-2
 BYTE   W01
 BYTE   BEND   c_v-2
 BYTE   W01
 BYTE   BEND   c_v-3
 BYTE   W01
 BYTE   BEND   c_v-3
 BYTE   W01
 BYTE   BEND   c_v-4
 BYTE   W01
 BYTE   BEND   c_v-4
 BYTE   W01
 BYTE   BEND   c_v-5
 BYTE   W01
 BYTE   BEND   c_v-5
 BYTE   W01
 BYTE   BEND   c_v-6
 BYTE   W01
 BYTE   BEND   c_v-6
 BYTE   W01
 BYTE   BEND   c_v-7
 BYTE   W01
 BYTE   BEND   c_v-7
 BYTE   W01
 BYTE   BEND   c_v-7
 BYTE   W01
 BYTE   BEND   c_v-8
 BYTE   W01
 BYTE   BEND   c_v-9
 BYTE   W01
 BYTE   BEND   c_v-9
 BYTE   W01
 BYTE   BEND   c_v-10
 BYTE   W01
 BYTE   BEND   c_v-10
 BYTE   W01
 BYTE   BEND   c_v-10
 BYTE   W01
 BYTE   BEND   c_v-11
 BYTE   W01
 BYTE   BEND   c_v-12
 BYTE   W01
 BYTE   BEND   c_v-12
 BYTE   W01
 BYTE   BEND   c_v-13
 BYTE   W01
 BYTE   BEND   c_v-13
 BYTE   W01
 BYTE   BEND   c_v-13
 BYTE   W01
 BYTE   BEND   c_v-14
 BYTE   W01
 BYTE   BEND   c_v-14
 BYTE   W01
 BYTE   BEND   c_v-15
 BYTE   W01
 BYTE   BEND   c_v-16
 BYTE   W01
 BYTE   BEND   c_v-16
 BYTE   W01
 BYTE   BEND   c_v-16
 BYTE   W01
 BYTE   BEND   c_v-17
 BYTE   W01
 BYTE   BEND   c_v-17
 BYTE   W01
 BYTE   BEND   c_v-18
 BYTE   W01
 BYTE   BEND   c_v-19
 BYTE   W01
 BYTE   BEND   c_v-19
 BYTE   W01
 BYTE   BEND   c_v-19
 BYTE   W01
 BYTE   BEND   c_v-20
 BYTE   W01
 BYTE   BEND   c_v-20
 BYTE   W01
 BYTE   BEND   c_v-21
 BYTE   W01
 BYTE   BEND   c_v-21
 BYTE   W01
 BYTE   BEND   c_v-22
 BYTE   W01
 BYTE   BEND   c_v-22
 BYTE   W01
 BYTE   BEND   c_v-23
 BYTE   W01
 BYTE   BEND   c_v-23
 BYTE   W01
 BYTE   BEND   c_v-24
 BYTE   W01
 BYTE   BEND   c_v-24
 BYTE   W01
 BYTE   BEND   c_v-25
 BYTE   W01
 BYTE   BEND   c_v-25
 BYTE   W01
 BYTE   BEND   c_v-26
 BYTE   W01
 BYTE   BEND   c_v-26
 BYTE   W01
 BYTE   BEND   c_v-27
 BYTE   W01
//  #07 //048   ----------------------------------------
Label_01005717:
 BYTE   BEND   c_v-27
 BYTE   W01
 BYTE   BEND   c_v-28
 BYTE   W01
 BYTE   BEND   c_v-28
 BYTE   W01
 BYTE   BEND   c_v-29
 BYTE   W01
 BYTE   BEND   c_v-29
 BYTE   W01
 BYTE   BEND   c_v-30
 BYTE   W01
 BYTE   BEND   c_v-30
 BYTE   W01
 BYTE   BEND   c_v-31
 BYTE   W01
 BYTE   BEND   c_v-31
 BYTE   W01
 BYTE   BEND   c_v-32
 BYTE   W01
 BYTE   BEND   c_v-32
 BYTE   W01
 BYTE   BEND   c_v-33
 BYTE   W01
 BYTE   BEND   c_v-33
 BYTE   W01
 BYTE   BEND   c_v-34
 BYTE   W01
 BYTE   BEND   c_v-34
 BYTE   W01
 BYTE   BEND   c_v-35
 BYTE   W01
 BYTE   BEND   c_v-35
 BYTE   W01
 BYTE   BEND   c_v-35
 BYTE   W01
 BYTE   BEND   c_v-36
 BYTE   W01
 BYTE   BEND   c_v-37
 BYTE   W01
 BYTE   BEND   c_v-37
 BYTE   W01
 BYTE   BEND   c_v-38
 BYTE   W01
 BYTE   BEND   c_v-38
 BYTE   W01
 BYTE   BEND   c_v-38
 BYTE   W01
 BYTE   BEND   c_v-39
 BYTE   W01
 BYTE   BEND   c_v-40
 BYTE   W01
 BYTE   BEND   c_v-40
 BYTE   W01
 BYTE   BEND   c_v-41
 BYTE   W01
 BYTE   BEND   c_v-41
 BYTE   W01
 BYTE   BEND   c_v-41
 BYTE   W01
 BYTE   BEND   c_v-42
 BYTE   W01
 BYTE   BEND   c_v-42
 BYTE   W01
 BYTE   BEND   c_v-43
 BYTE   W01
 BYTE   BEND   c_v-44
 BYTE   W01
 BYTE   BEND   c_v-44
 BYTE   W01
 BYTE   BEND   c_v-44
 BYTE   W01
 BYTE   BEND   c_v-45
 BYTE   W01
 BYTE   BEND   c_v-45
 BYTE   W01
 BYTE   BEND   c_v-46
 BYTE   W01
 BYTE   BEND   c_v-47
 BYTE   W01
 BYTE   BEND   c_v-47
 BYTE   W01
 BYTE   BEND   c_v-47
 BYTE   W01
 BYTE   BEND   c_v-48
 BYTE   W01
 BYTE   BEND   c_v-48
 BYTE   W01
 BYTE   BEND   c_v-49
 BYTE   W01
 BYTE   BEND   c_v-49
 BYTE   W01
 BYTE   BEND   c_v-50
 BYTE   W01
 BYTE   BEND   c_v-50
 BYTE   W01
 BYTE   BEND   c_v-51
 BYTE   W01
 BYTE   BEND   c_v-51
 BYTE   W01
 BYTE   BEND   c_v-52
 BYTE   W01
 BYTE   BEND   c_v-52
 BYTE   W01
 BYTE   BEND   c_v-53
 BYTE   W01
 BYTE   BEND   c_v-53
 BYTE   W01
 BYTE   BEND   c_v-54
 BYTE   W01
 BYTE   BEND   c_v-54
 BYTE   W01
 BYTE   BEND   c_v-55
 BYTE   W01
 BYTE   BEND   c_v-55
 BYTE   W01
 BYTE   BEND   c_v-56
 BYTE   W01
 BYTE   BEND   c_v-56
 BYTE   W01
 BYTE   BEND   c_v-57
 BYTE   W01
 BYTE   BEND   c_v-57
 BYTE   W01
 BYTE   BEND   c_v-58
 BYTE   W01
 BYTE   BEND   c_v-58
 BYTE   W01
 BYTE   BEND   c_v-59
 BYTE   W01
 BYTE   BEND   c_v-59
 BYTE   W01
 BYTE   BEND   c_v-60
 BYTE   W01
 BYTE   BEND   c_v-60
 BYTE   W01
 BYTE   BEND   c_v-61
 BYTE   W01
 BYTE   BEND   c_v-61
 BYTE   W01
 BYTE   BEND   c_v-62
 BYTE   W01
 BYTE   BEND   c_v-62
 BYTE   W01
 BYTE   BEND   c_v-48
 BYTE   N72  Dn4  v120
 BYTE   W01
 BYTE   BEND   c_v-33
 BYTE   W01
 BYTE   BEND   c_v-18
 BYTE   W01
 BYTE   BEND   c_v+0
 BYTE   W21
 BYTE   PEND 
//  #07 //049   ----------------------------------------
 BYTE   W48
 BYTE   N72  Cs4
 BYTE   W48
//  #07 //050   ----------------------------------------
 BYTE   W24
 BYTE   An3
 BYTE   W72
//  #07 //051   ----------------------------------------
Label_010057BC:
 BYTE   W21
 BYTE   BEND   c_v+0
 BYTE   W06
 BYTE   BEND   c_v-2
 BYTE   W01
 BYTE   BEND   c_v-3
 BYTE   W01
 BYTE   BEND   c_v-4
 BYTE   W01
 BYTE   BEND   c_v-6
 BYTE   W01
 BYTE   BEND   c_v-7
 BYTE   W01
 BYTE   BEND   c_v-8
 BYTE   W01
 BYTE   BEND   c_v-10
 BYTE   W01
 BYTE   BEND   c_v-11
 BYTE   W01
 BYTE   BEND   c_v-12
 BYTE   W01
 BYTE   BEND   c_v-14
 BYTE   W01
 BYTE   BEND   c_v-15
 BYTE   W01
 BYTE   BEND   c_v-16
 BYTE   W01
 BYTE   BEND   c_v-18
 BYTE   W01
 BYTE   BEND   c_v-19
 BYTE   W01
 BYTE   BEND   c_v-20
 BYTE   W01
 BYTE   BEND   c_v-22
 BYTE   W01
 BYTE   BEND   c_v-23
 BYTE   W01
 BYTE   BEND   c_v-24
 BYTE   W01
 BYTE   BEND   c_v-26
 BYTE   W01
 BYTE   BEND   c_v-27
 BYTE   W01
 BYTE   BEND   c_v-28
 BYTE   W01
 BYTE   BEND   c_v-30
 BYTE   W01
 BYTE   BEND   c_v-31
 BYTE   W01
 BYTE   BEND   c_v-32
 BYTE   W01
 BYTE   BEND   c_v-35
 BYTE   W01
 BYTE   BEND   c_v-36
 BYTE   W01
 BYTE   BEND   c_v-37
 BYTE   W01
 BYTE   BEND   c_v-39
 BYTE   W01
 BYTE   BEND   c_v-40
 BYTE   W01
 BYTE   BEND   c_v-41
 BYTE   W01
 BYTE   BEND   c_v-43
 BYTE   W01
 BYTE   BEND   c_v-44
 BYTE   W01
 BYTE   BEND   c_v-45
 BYTE   W01
 BYTE   BEND   c_v-47
 BYTE   W01
 BYTE   BEND   c_v-48
 BYTE   W01
 BYTE   BEND   c_v-49
 BYTE   W01
 BYTE   BEND   c_v-51
 BYTE   W01
 BYTE   BEND   c_v-52
 BYTE   W01
 BYTE   BEND   c_v-53
 BYTE   W01
 BYTE   BEND   c_v-55
 BYTE   W01
 BYTE   BEND   c_v-56
 BYTE   W01
 BYTE   BEND   c_v-57
 BYTE   W01
 BYTE   BEND   c_v-59
 BYTE   W01
 BYTE   BEND   c_v-60
 BYTE   W01
 BYTE   BEND   c_v-61
 BYTE   W01
 BYTE   BEND   c_v-48
 BYTE   N72  Bn3  v120
 BYTE   W01
 BYTE   BEND   c_v-33
 BYTE   W01
 BYTE   BEND   c_v-18
 BYTE   W01
 BYTE   BEND   c_v+0
 BYTE   W21
 BYTE   PEND 
//  #07 //052   ----------------------------------------
 BYTE   W48
 BYTE   N72  Gn3
 BYTE   W48
//  #07 //053   ----------------------------------------
 BYTE   W24
 BYTE   An3
 BYTE   W72
//  #07 //054   ----------------------------------------
 BYTE   W96
//  #07 //055   ----------------------------------------
 BYTE   W96
//  #07 //056   ----------------------------------------
 BYTE   W96
//  #07 //057   ----------------------------------------
 BYTE   W96
//  #07 //058   ----------------------------------------
 BYTE   W96
//  #07 //059   ----------------------------------------
 BYTE   W96
//  #07 //060   ----------------------------------------
 BYTE   W96
//  #07 //061   ----------------------------------------
 BYTE   W96
//  #07 //062   ----------------------------------------
 BYTE   W96
//  #07 //063   ----------------------------------------
 BYTE   W96
//  #07 //064   ----------------------------------------
 BYTE   W96
//  #07 //065   ----------------------------------------
 BYTE   W96
//  #07 //066   ----------------------------------------
 BYTE   W96
//  #07 //067   ----------------------------------------
 BYTE   W96
//  #07 //068   ----------------------------------------
 BYTE   W96
//  #07 //069   ----------------------------------------
 BYTE   GoTo
  POIN2 Label_0100566C
//  #07 //070   ----------------------------------------
 BYTE   W96
//  #07 //071   ----------------------------------------
 BYTE   W96
//  #07 //072   ----------------------------------------
 BYTE   W96
//  #07 //073   ----------------------------------------
 BYTE   W96
//  #07 //074   ----------------------------------------
 BYTE   W96
//  #07 //075   ----------------------------------------
 BYTE   W96
//  #07 //076   ----------------------------------------
 BYTE   W96
//  #07 //077   ----------------------------------------
 BYTE   W96
//  #07 //078   ----------------------------------------
 BYTE   W96
//  #07 //079   ----------------------------------------
 BYTE   W96
//  #07 //080   ----------------------------------------
 BYTE   W96
//  #07 //081   ----------------------------------------
 BYTE   W96
//  #07 //082   ----------------------------------------
 BYTE   W96
//  #07 //083   ----------------------------------------
 BYTE   W96
//  #07 //084   ----------------------------------------
 BYTE   W96
//  #07 //085   ----------------------------------------
 BYTE   W96
//  #07 //086   ----------------------------------------
 BYTE   W96
//  #07 //087   ----------------------------------------
 BYTE   W96
//  #07 //088   ----------------------------------------
 BYTE   W96
//  #07 //089   ----------------------------------------
 BYTE   W96
//  #07 //090   ----------------------------------------
 BYTE   W96
//  #07 //091   ----------------------------------------
 BYTE   W96
//  #07 //092   ----------------------------------------
 BYTE   W96
//  #07 //093   ----------------------------------------
 BYTE   W96
//  #07 //094   ----------------------------------------
 BYTE   W96
//  #07 //095   ----------------------------------------
 BYTE   W96
//  #07 //096   ----------------------------------------
 BYTE   W96
//  #07 //097   ----------------------------------------
 BYTE   W96
//  #07 //098   ----------------------------------------
 BYTE   W96
//  #07 //099   ----------------------------------------
 BYTE   W96
//  #07 //100   ----------------------------------------
 BYTE   W96
//  #07 //101   ----------------------------------------
 BYTE   W96
//  #07 //102   ----------------------------------------
 BYTE   W96
//  #07 //103   ----------------------------------------
 BYTE   W96
//  #07 //104   ----------------------------------------
 BYTE   W96
//  #07 //105   ----------------------------------------
 BYTE   W96
//  #07 //106   ----------------------------------------
 BYTE   W96
//  #07 //107   ----------------------------------------
 BYTE   W96
//  #07 //108   ----------------------------------------
 BYTE   PATT
  POIN2 Label_01005692
//  #07 //109   ----------------------------------------
 BYTE   TIE  An3  v120
 BYTE   W96
//  #07 //110   ----------------------------------------
 BYTE   W96
//  #07 //111   ----------------------------------------
 BYTE   W24
 BYTE   EOT
 BYTE   BEND   c_v+0
 BYTE   W18
 BYTE   BEND   c_v-1
 BYTE   W01
 BYTE   BEND   c_v-1
 BYTE   W01
 BYTE   BEND   c_v-2
 BYTE   W01
 BYTE   BEND   c_v-2
 BYTE   W01
 BYTE   BEND   c_v-3
 BYTE   W01
 BYTE   BEND   c_v-3
 BYTE   W01
 BYTE   BEND   c_v-4
 BYTE   W01
 BYTE   BEND   c_v-4
 BYTE   W01
 BYTE   BEND   c_v-5
 BYTE   W01
 BYTE   BEND   c_v-5
 BYTE   W01
 BYTE   BEND   c_v-6
 BYTE   W01
 BYTE   BEND   c_v-6
 BYTE   W01
 BYTE   BEND   c_v-7
 BYTE   W01
 BYTE   BEND   c_v-7
 BYTE   W01
 BYTE   BEND   c_v-7
 BYTE   W01
 BYTE   BEND   c_v-8
 BYTE   W01
 BYTE   BEND   c_v-9
 BYTE   W01
 BYTE   BEND   c_v-9
 BYTE   W01
 BYTE   BEND   c_v-10
 BYTE   W01
 BYTE   BEND   c_v-10
 BYTE   W01
 BYTE   BEND   c_v-10
 BYTE   W01
 BYTE   BEND   c_v-11
 BYTE   W01
 BYTE   BEND   c_v-12
 BYTE   W01
 BYTE   BEND   c_v-12
 BYTE   W01
 BYTE   BEND   c_v-13
 BYTE   W01
 BYTE   BEND   c_v-13
 BYTE   W01
 BYTE   BEND   c_v-13
 BYTE   W01
 BYTE   BEND   c_v-14
 BYTE   W01
 BYTE   BEND   c_v-14
 BYTE   W01
 BYTE   BEND   c_v-15
 BYTE   W01
 BYTE   BEND   c_v-16
 BYTE   W01
 BYTE   BEND   c_v-16
 BYTE   W01
 BYTE   BEND   c_v-16
 BYTE   W01
 BYTE   BEND   c_v-17
 BYTE   W01
 BYTE   BEND   c_v-17
 BYTE   W01
 BYTE   BEND   c_v-18
 BYTE   W01
 BYTE   BEND   c_v-19
 BYTE   W01
 BYTE   BEND   c_v-19
 BYTE   W01
 BYTE   BEND   c_v-19
 BYTE   W01
 BYTE   BEND   c_v-20
 BYTE   W01
 BYTE   BEND   c_v-20
 BYTE   W01
 BYTE   BEND   c_v-21
 BYTE   W01
 BYTE   BEND   c_v-21
 BYTE   W01
 BYTE   BEND   c_v-22
 BYTE   W01
 BYTE   BEND   c_v-22
 BYTE   W01
 BYTE   BEND   c_v-23
 BYTE   W01
 BYTE   BEND   c_v-23
 BYTE   W01
 BYTE   BEND   c_v-24
 BYTE   W01
 BYTE   BEND   c_v-24
 BYTE   W01
 BYTE   BEND   c_v-25
 BYTE   W01
 BYTE   BEND   c_v-25
 BYTE   W01
 BYTE   BEND   c_v-26
 BYTE   W01
 BYTE   BEND   c_v-26
 BYTE   W01
 BYTE   BEND   c_v-27
 BYTE   W01
//  #07 //112   ----------------------------------------
 BYTE   PATT
  POIN2 Label_01005717
//  #07 //113   ----------------------------------------
 BYTE   W48
 BYTE   N72  Cs4  v120
 BYTE   W48
//  #07 //114   ----------------------------------------
 BYTE   W24
 BYTE   An3
 BYTE   W72
//  #07 //115   ----------------------------------------
 BYTE   PATT
  POIN2 Label_010057BC
//  #07 //116   ----------------------------------------
 BYTE   W48
 BYTE   N72  Gn3  v120
 BYTE   W48
//  #07 //117   ----------------------------------------
 BYTE   W24
 BYTE   An3
 BYTE   W72
//  #07 //118   ----------------------------------------
 BYTE   W96
//  #07 //119   ----------------------------------------
 BYTE   W96
//  #07 //120   ----------------------------------------
 BYTE   W96
//  #07 //121   ----------------------------------------
 BYTE   W96
//  #07 //122   ----------------------------------------
 BYTE   W96
//  #07 //123   ----------------------------------------
 BYTE   W96
//  #07 //124   ----------------------------------------
 BYTE   W96
//  #07 //125   ----------------------------------------
 BYTE   W96
//  #07 //126   ----------------------------------------
 BYTE   W96
//  #07 //127   ----------------------------------------
 BYTE   W96
//  #07 //128   ----------------------------------------
 BYTE   W96
//  #07 //129   ----------------------------------------
 BYTE   W96
//  #07 //130   ----------------------------------------
 BYTE   W96
//  #07 //131   ----------------------------------------
 BYTE   W96
//  #07 //132   ----------------------------------------
 BYTE   W96
 BYTE   FINE

//**************** Track 8 (Midi-Chn.7) ****************//

SMT4B4_008:
//  #08 //000   ----------------------------------------
 BYTE   VOL   50*SMT4B4_mvl/mxv
 BYTE   KEYSH   SMT4B4_key+0
 BYTE   VOICE   52
 BYTE   W96
//  #08 //001   ----------------------------------------
 BYTE   W96
//  #08 //002   ----------------------------------------
 BYTE   W96
//  #08 //003   ----------------------------------------
 BYTE   W96
//  #08 //004   ----------------------------------------
 BYTE   W96
//  #08 //005   ----------------------------------------
 BYTE   W96
//  #08 //006   ----------------------------------------
Label_0100592C:
 BYTE   W96
//  #08 //007   ----------------------------------------
 BYTE   W96
//  #08 //008   ----------------------------------------
 BYTE   W96
//  #08 //009   ----------------------------------------
 BYTE   W96
//  #08 //010   ----------------------------------------
 BYTE   W96
//  #08 //011   ----------------------------------------
 BYTE   W96
//  #08 //012   ----------------------------------------
 BYTE   W96
//  #08 //013   ----------------------------------------
 BYTE   W96
//  #08 //014   ----------------------------------------
 BYTE   W96
//  #08 //015   ----------------------------------------
 BYTE   W96
//  #08 //016   ----------------------------------------
 BYTE   W96
//  #08 //017   ----------------------------------------
 BYTE   W96
//  #08 //018   ----------------------------------------
 BYTE   W96
//  #08 //019   ----------------------------------------
 BYTE   W96
//  #08 //020   ----------------------------------------
 BYTE   W96
//  #08 //021   ----------------------------------------
 BYTE   W96
//  #08 //022   ----------------------------------------
 BYTE   W96
//  #08 //023   ----------------------------------------
 BYTE   W96
//  #08 //024   ----------------------------------------
 BYTE   W96
//  #08 //025   ----------------------------------------
 BYTE   W96
//  #08 //026   ----------------------------------------
 BYTE   W96
//  #08 //027   ----------------------------------------
 BYTE   W96
//  #08 //028   ----------------------------------------
 BYTE   W96
//  #08 //029   ----------------------------------------
 BYTE   W96
//  #08 //030   ----------------------------------------
 BYTE   W96
//  #08 //031   ----------------------------------------
 BYTE   W96
//  #08 //032   ----------------------------------------
 BYTE   W96
//  #08 //033   ----------------------------------------
 BYTE   W96
//  #08 //034   ----------------------------------------
 BYTE   W96
//  #08 //035   ----------------------------------------
 BYTE   W96
//  #08 //036   ----------------------------------------
 BYTE   W96
//  #08 //037   ----------------------------------------
 BYTE   W96
//  #08 //038   ----------------------------------------
 BYTE   W96
//  #08 //039   ----------------------------------------
 BYTE   W96
//  #08 //040   ----------------------------------------
 BYTE   W96
//  #08 //041   ----------------------------------------
 BYTE   W96
//  #08 //042   ----------------------------------------
Label_01005950:
 BYTE   PAN   c_v-38
 BYTE   W15
 BYTE   N06  An3  v072
 BYTE   W06
 BYTE   N06
 BYTE   W06
 BYTE   N06
 BYTE   W12
 BYTE   Dn3
 BYTE   W15
 BYTE   N06
 BYTE   W06
 BYTE   En3
 BYTE   W09
 BYTE   N06
 BYTE   W09
 BYTE   N06
 BYTE   W12
 BYTE   An3
 BYTE   W06
 BYTE   PEND 
//  #08 //043   ----------------------------------------
Label_01005968:
 BYTE   W03
 BYTE   N06  An3  v072
 BYTE   W18
 BYTE   Fs3
 BYTE   W09
 BYTE   N06
 BYTE   W15
 BYTE   Dn3
 BYTE   W06
 BYTE   En3
 BYTE   W06
 BYTE   N06
 BYTE   W06
 BYTE   N06
 BYTE   W15
 BYTE   N06
 BYTE   W06
 BYTE   An3
 BYTE   W12
 BYTE   PEND 
//  #08 //044   ----------------------------------------
Label_0100597E:
 BYTE   W03
 BYTE   N06  Fs3  v072
 BYTE   W12
 BYTE   Dn3
 BYTE   W18
 BYTE   En3
 BYTE   W06
 BYTE   N06
 BYTE   W12
 BYTE   N06
 BYTE   W18
 BYTE   An3
 BYTE   W06
 BYTE   N06
 BYTE   W12
 BYTE   Fs3
 BYTE   W09
 BYTE   PEND 
//  #08 //045   ----------------------------------------
Label_01005992:
 BYTE   W15
 BYTE   N06  An3  v072
 BYTE   W06
 BYTE   N06
 BYTE   W06
 BYTE   N06
 BYTE   W12
 BYTE   Dn3
 BYTE   W15
 BYTE   N06
 BYTE   W06
 BYTE   En3
 BYTE   W09
 BYTE   N06
 BYTE   W09
 BYTE   N06
 BYTE   W12
 BYTE   An3
 BYTE   W06
 BYTE   PEND 
//  #08 //046   ----------------------------------------
 BYTE   PATT
  POIN2 Label_01005968
//  #08 //047   ----------------------------------------
 BYTE   PATT
  POIN2 Label_0100597E
//  #08 //048   ----------------------------------------
Label_010059B2:
 BYTE   N03  Fs3  v072
 BYTE   W06
 BYTE   Gn3
 BYTE   W06
 BYTE   Gs3
 BYTE   W03
 BYTE   N06  An3
 BYTE   W06
 BYTE   N06
 BYTE   W06
 BYTE   N06
 BYTE   W12
 BYTE   Dn3
 BYTE   W15
 BYTE   N06
 BYTE   W06
 BYTE   En3
 BYTE   W09
 BYTE   N06
 BYTE   W09
 BYTE   N06
 BYTE   W12
 BYTE   An3
 BYTE   W06
 BYTE   PEND 
//  #08 //049   ----------------------------------------
 BYTE   PATT
  POIN2 Label_01005968
//  #08 //050   ----------------------------------------
 BYTE   PATT
  POIN2 Label_0100597E
//  #08 //051   ----------------------------------------
 BYTE   PATT
  POIN2 Label_01005992
//  #08 //052   ----------------------------------------
 BYTE   PATT
  POIN2 Label_01005968
//  #08 //053   ----------------------------------------
 BYTE   PATT
  POIN2 Label_0100597E
//  #08 //054   ----------------------------------------
 BYTE   PATT
  POIN2 Label_01005992
//  #08 //055   ----------------------------------------
 BYTE   PATT
  POIN2 Label_01005968
//  #08 //056   ----------------------------------------
 BYTE   PATT
  POIN2 Label_0100597E
//  #08 //057   ----------------------------------------
 BYTE   PATT
  POIN2 Label_01005992
//  #08 //058   ----------------------------------------
 BYTE   PATT
  POIN2 Label_01005968
//  #08 //059   ----------------------------------------
 BYTE   PATT
  POIN2 Label_0100597E
//  #08 //060   ----------------------------------------
 BYTE   PATT
  POIN2 Label_010059B2
//  #08 //061   ----------------------------------------
 BYTE   PATT
  POIN2 Label_01005968
//  #08 //062   ----------------------------------------
 BYTE   PATT
  POIN2 Label_0100597E
//  #08 //063   ----------------------------------------
 BYTE   PATT
  POIN2 Label_01005992
//  #08 //064   ----------------------------------------
 BYTE   PATT
  POIN2 Label_01005968
//  #08 //065   ----------------------------------------
 BYTE   PATT
  POIN2 Label_0100597E
//  #08 //066   ----------------------------------------
 BYTE   W96
//  #08 //067   ----------------------------------------
 BYTE   W96
//  #08 //068   ----------------------------------------
 BYTE   W96
//  #08 //069   ----------------------------------------
 BYTE   GoTo
  POIN2 Label_0100592C
//  #08 //070   ----------------------------------------
 BYTE   W96
//  #08 //071   ----------------------------------------
 BYTE   W96
//  #08 //072   ----------------------------------------
 BYTE   W96
//  #08 //073   ----------------------------------------
 BYTE   W96
//  #08 //074   ----------------------------------------
 BYTE   W96
//  #08 //075   ----------------------------------------
 BYTE   W96
//  #08 //076   ----------------------------------------
 BYTE   W96
//  #08 //077   ----------------------------------------
 BYTE   W96
//  #08 //078   ----------------------------------------
 BYTE   W96
//  #08 //079   ----------------------------------------
 BYTE   W96
//  #08 //080   ----------------------------------------
 BYTE   W96
//  #08 //081   ----------------------------------------
 BYTE   W96
//  #08 //082   ----------------------------------------
 BYTE   W96
//  #08 //083   ----------------------------------------
 BYTE   W96
//  #08 //084   ----------------------------------------
 BYTE   W96
//  #08 //085   ----------------------------------------
 BYTE   W96
//  #08 //086   ----------------------------------------
 BYTE   W96
//  #08 //087   ----------------------------------------
 BYTE   W96
//  #08 //088   ----------------------------------------
 BYTE   W96
//  #08 //089   ----------------------------------------
 BYTE   W96
//  #08 //090   ----------------------------------------
 BYTE   W96
//  #08 //091   ----------------------------------------
 BYTE   W96
//  #08 //092   ----------------------------------------
 BYTE   W96
//  #08 //093   ----------------------------------------
 BYTE   W96
//  #08 //094   ----------------------------------------
 BYTE   W96
//  #08 //095   ----------------------------------------
 BYTE   W96
//  #08 //096   ----------------------------------------
 BYTE   W96
//  #08 //097   ----------------------------------------
 BYTE   W96
//  #08 //098   ----------------------------------------
 BYTE   W96
//  #08 //099   ----------------------------------------
 BYTE   W96
//  #08 //100   ----------------------------------------
 BYTE   W96
//  #08 //101   ----------------------------------------
 BYTE   W96
//  #08 //102   ----------------------------------------
 BYTE   W96
//  #08 //103   ----------------------------------------
 BYTE   W96
//  #08 //104   ----------------------------------------
 BYTE   W96
//  #08 //105   ----------------------------------------
 BYTE   W96
//  #08 //106   ----------------------------------------
 BYTE   PATT
  POIN2 Label_01005950
//  #08 //107   ----------------------------------------
 BYTE   PATT
  POIN2 Label_01005968
//  #08 //108   ----------------------------------------
 BYTE   PATT
  POIN2 Label_0100597E
//  #08 //109   ----------------------------------------
 BYTE   PATT
  POIN2 Label_01005992
//  #08 //110   ----------------------------------------
 BYTE   PATT
  POIN2 Label_01005968
//  #08 //111   ----------------------------------------
 BYTE   PATT
  POIN2 Label_0100597E
//  #08 //112   ----------------------------------------
 BYTE   PATT
  POIN2 Label_010059B2
//  #08 //113   ----------------------------------------
 BYTE   PATT
  POIN2 Label_01005968
//  #08 //114   ----------------------------------------
 BYTE   PATT
  POIN2 Label_0100597E
//  #08 //115   ----------------------------------------
 BYTE   PATT
  POIN2 Label_01005992
//  #08 //116   ----------------------------------------
 BYTE   PATT
  POIN2 Label_01005968
//  #08 //117   ----------------------------------------
 BYTE   PATT
  POIN2 Label_0100597E
//  #08 //118   ----------------------------------------
 BYTE   PATT
  POIN2 Label_01005992
//  #08 //119   ----------------------------------------
 BYTE   PATT
  POIN2 Label_01005968
//  #08 //120   ----------------------------------------
 BYTE   PATT
  POIN2 Label_0100597E
//  #08 //121   ----------------------------------------
 BYTE   PATT
  POIN2 Label_01005992
//  #08 //122   ----------------------------------------
 BYTE   PATT
  POIN2 Label_01005968
//  #08 //123   ----------------------------------------
 BYTE   PATT
  POIN2 Label_0100597E
//  #08 //124   ----------------------------------------
 BYTE   PATT
  POIN2 Label_010059B2
//  #08 //125   ----------------------------------------
 BYTE   PATT
  POIN2 Label_01005968
//  #08 //126   ----------------------------------------
 BYTE   PATT
  POIN2 Label_0100597E
//  #08 //127   ----------------------------------------
 BYTE   PATT
  POIN2 Label_01005992
//  #08 //128   ----------------------------------------
 BYTE   PATT
  POIN2 Label_01005968
//  #08 //129   ----------------------------------------
 BYTE   PATT
  POIN2 Label_0100597E
//  #08 //130   ----------------------------------------
 BYTE   W96
//  #08 //131   ----------------------------------------
 BYTE   W96
//  #08 //132   ----------------------------------------
 BYTE   W96
 BYTE   FINE

//**************** Track 9 (Midi-Chn.8) ****************//

SMT4B4_009:
//  #09 //000   ----------------------------------------
 BYTE   KEYSH   SMT4B4_key+0
 BYTE   VOICE   14
 BYTE   W96
//  #09 //001   ----------------------------------------
 BYTE   W96
//  #09 //002   ----------------------------------------
 BYTE   W96
//  #09 //003   ----------------------------------------
 BYTE   W96
//  #09 //004   ----------------------------------------
 BYTE   W96
//  #09 //005   ----------------------------------------
 BYTE   W96
//  #09 //006   ----------------------------------------
Label_01005AE6:
 BYTE   W96
//  #09 //007   ----------------------------------------
 BYTE   W96
//  #09 //008   ----------------------------------------
 BYTE   W96
//  #09 //009   ----------------------------------------
 BYTE   W96
//  #09 //010   ----------------------------------------
 BYTE   W96
//  #09 //011   ----------------------------------------
 BYTE   W96
//  #09 //012   ----------------------------------------
 BYTE   W96
//  #09 //013   ----------------------------------------
 BYTE   W96
//  #09 //014   ----------------------------------------
 BYTE   W96
//  #09 //015   ----------------------------------------
 BYTE   W96
//  #09 //016   ----------------------------------------
 BYTE   W96
//  #09 //017   ----------------------------------------
 BYTE   W96
//  #09 //018   ----------------------------------------
 BYTE   W96
//  #09 //019   ----------------------------------------
 BYTE   W96
//  #09 //020   ----------------------------------------
 BYTE   W96
//  #09 //021   ----------------------------------------
 BYTE   W96
//  #09 //022   ----------------------------------------
 BYTE   W96
//  #09 //023   ----------------------------------------
 BYTE   W96
//  #09 //024   ----------------------------------------
 BYTE   W96
//  #09 //025   ----------------------------------------
 BYTE   W96
//  #09 //026   ----------------------------------------
 BYTE   W96
//  #09 //027   ----------------------------------------
 BYTE   W96
//  #09 //028   ----------------------------------------
 BYTE   W96
//  #09 //029   ----------------------------------------
 BYTE   W96
//  #09 //030   ----------------------------------------
 BYTE   W96
//  #09 //031   ----------------------------------------
 BYTE   W96
//  #09 //032   ----------------------------------------
 BYTE   W96
//  #09 //033   ----------------------------------------
 BYTE   W96
//  #09 //034   ----------------------------------------
 BYTE   W96
//  #09 //035   ----------------------------------------
 BYTE   W96
//  #09 //036   ----------------------------------------
 BYTE   W96
//  #09 //037   ----------------------------------------
 BYTE   W96
//  #09 //038   ----------------------------------------
 BYTE   W96
//  #09 //039   ----------------------------------------
 BYTE   W96
//  #09 //040   ----------------------------------------
 BYTE   W96
//  #09 //041   ----------------------------------------
 BYTE   W96
//  #09 //042   ----------------------------------------
Label_01005B0A:
 BYTE   VOL   27*SMT4B4_mvl/mxv
 BYTE   N72  En5  v080
 BYTE   W96
 BYTE   PEND 
//  #09 //043   ----------------------------------------
 BYTE   W48
 BYTE   N72
 BYTE   W48
//  #09 //044   ----------------------------------------
 BYTE   W96
//  #09 //045   ----------------------------------------
 BYTE   N72
 BYTE   W96
//  #09 //046   ----------------------------------------
 BYTE   W48
 BYTE   N72
 BYTE   W48
//  #09 //047   ----------------------------------------
 BYTE   W96
//  #09 //048   ----------------------------------------
 BYTE   N72
 BYTE   W96
//  #09 //049   ----------------------------------------
 BYTE   W48
 BYTE   N72
 BYTE   W48
//  #09 //050   ----------------------------------------
 BYTE   W96
//  #09 //051   ----------------------------------------
 BYTE   N72
 BYTE   W96
//  #09 //052   ----------------------------------------
 BYTE   W48
 BYTE   N72
 BYTE   W48
//  #09 //053   ----------------------------------------
 BYTE   W96
//  #09 //054   ----------------------------------------
Label_01005B27:
 BYTE   N12  En4  v092
 BYTE   N72  En5  v080
 BYTE   W12
 BYTE   N06  Dn4  v092
 BYTE   W06
 BYTE   Bn3
 BYTE   W12
 BYTE   Dn4
 BYTE   W56
 BYTE   W01
 BYTE   N03  Bn3
 BYTE   W03
 BYTE   N06  Dn4
 BYTE   W06
 BYTE   PEND 
//  #09 //055   ----------------------------------------
Label_01005B3E:
 BYTE   N12  En4  v092
 BYTE   W12
 BYTE   N09  Dn4
 BYTE   W09
 BYTE   An3
 BYTE   W09
 BYTE   N15  Bn3
 BYTE   W18
 BYTE   N09  An4
 BYTE   N72  En5  v080
 BYTE   W09
 BYTE   N09  En4  v092
 BYTE   W09
 BYTE   N06  Dn4
 BYTE   W06
 BYTE   N09  En4
 BYTE   W24
 BYTE   PEND 
//  #09 //056   ----------------------------------------
Label_01005B5B:
 BYTE   W21
 BYTE   N09  Bn3  v092
 BYTE   W12
 BYTE   N06  Dn4
 BYTE   W06
 BYTE   N09  An3
 BYTE   W36
 BYTE   W03
 BYTE   Bn4
 BYTE   W09
 BYTE   N06  En4
 BYTE   W09
 BYTE   PEND 
//  #09 //057   ----------------------------------------
Label_01005B6D:
 BYTE   N09  Fs4  v092
 BYTE   N72  En5  v080
 BYTE   W09
 BYTE   N06  En4  v092
 BYTE   W09
 BYTE   Dn4
 BYTE   W09
 BYTE   En4
 BYTE   W06
 BYTE   Bn3
 BYTE   W36
 BYTE   W03
 BYTE   N12  Bn4
 BYTE   W12
 BYTE   N18  An4
 BYTE   W09
 BYTE   N09  En4
 BYTE   W03
 BYTE   PEND 
//  #09 //058   ----------------------------------------
Label_01005B89:
 BYTE   W06
 BYTE   N09  Dn4  v092
 BYTE   W12
 BYTE   En4
 BYTE   W30
 BYTE   N72  En5  v080
 BYTE   W15
 BYTE   N03  Bn3  v092
 BYTE   W03
 BYTE   N06  Dn4
 BYTE   W06
 BYTE   N12  En4
 BYTE   W12
 BYTE   N09  Dn4
 BYTE   W09
 BYTE   An3
 BYTE   W03
 BYTE   PEND 
//  #09 //059   ----------------------------------------
Label_01005BA4:
 BYTE   W06
 BYTE   N15  Bn3  v092
 BYTE   W18
 BYTE   N09  An4
 BYTE   W09
 BYTE   En4
 BYTE   W09
 BYTE   N06  Dn4
 BYTE   W06
 BYTE   N09  En4
 BYTE   W48
 BYTE   PEND 
//  #09 //060   ----------------------------------------
Label_01005BB5:
 BYTE   N12  Bn4  v092
 BYTE   N72  En5  v080
 BYTE   W30
 BYTE   N12  Dn4  v092
 BYTE   W12
 BYTE   N09  En4
 BYTE   W44
 BYTE   W01
 BYTE   N03  Bn3
 BYTE   W03
 BYTE   N06  Dn4
 BYTE   W06
 BYTE   PEND 
//  #09 //061   ----------------------------------------
Label_01005BCB:
 BYTE   N12  En4  v092
 BYTE   W12
 BYTE   N09  Dn4
 BYTE   W09
 BYTE   An3
 BYTE   W09
 BYTE   N15  Bn3
 BYTE   W18
 BYTE   N12  An4
 BYTE   N72  En5  v080
 BYTE   W09
 BYTE   N09  En4  v092
 BYTE   W09
 BYTE   Dn4
 BYTE   W09
 BYTE   En4
 BYTE   W21
 BYTE   PEND 
//  #09 //062   ----------------------------------------
Label_01005BE6:
 BYTE   W24
 BYTE   N12  Bn3  v092
 BYTE   W12
 BYTE   N06  Dn4
 BYTE   W06
 BYTE   An3  v100
 BYTE   W36
 BYTE   N12  Bn4
 BYTE   W12
 BYTE   N06  En4
 BYTE   W06
 BYTE   PEND 
//  #09 //063   ----------------------------------------
Label_01005BF8:
 BYTE   N06  Fs4  v100
 BYTE   N72  En5  v080
 BYTE   W12
 BYTE   N06  En4  v100
 BYTE   W06
 BYTE   Dn4
 BYTE   W15
 BYTE   En4
 BYTE   W06
 BYTE   Bn3
 BYTE   W32
 BYTE   W01
 BYTE   N12  Bn4  v092
 BYTE   W24
 BYTE   PEND 
//  #09 //064   ----------------------------------------
Label_01005C0F:
 BYTE   W06
 BYTE   N12  Dn4  v092
 BYTE   W12
 BYTE   N09  En4
 BYTE   W30
 BYTE   N72  En5  v080
 BYTE   W15
 BYTE   N03  Bn3  v092
 BYTE   W03
 BYTE   N06  Dn4
 BYTE   W06
 BYTE   N12  En4
 BYTE   W12
 BYTE   N09  Dn4
 BYTE   W09
 BYTE   An3
 BYTE   W03
 BYTE   PEND 
//  #09 //065   ----------------------------------------
Label_01005C2B:
 BYTE   W06
 BYTE   N15  Bn3  v092
 BYTE   W15
 BYTE   An4
 BYTE   W15
 BYTE   N12  Dn4
 BYTE   W12
 BYTE   En4
 BYTE   W48
 BYTE   PEND 
//  #09 //066   ----------------------------------------
 BYTE   N72  En5  v080
 BYTE   W96
//  #09 //067   ----------------------------------------
 BYTE   W48
 BYTE   N72
 BYTE   W48
//  #09 //068   ----------------------------------------
 BYTE   W96
//  #09 //069   ----------------------------------------
 BYTE   GoTo
  POIN2 Label_01005AE6
//  #09 //070   ----------------------------------------
 BYTE   W96
//  #09 //071   ----------------------------------------
 BYTE   W96
//  #09 //072   ----------------------------------------
 BYTE   W96
//  #09 //073   ----------------------------------------
 BYTE   W96
//  #09 //074   ----------------------------------------
 BYTE   W96
//  #09 //075   ----------------------------------------
 BYTE   W96
//  #09 //076   ----------------------------------------
 BYTE   W96
//  #09 //077   ----------------------------------------
 BYTE   W96
//  #09 //078   ----------------------------------------
 BYTE   W96
//  #09 //079   ----------------------------------------
 BYTE   W96
//  #09 //080   ----------------------------------------
 BYTE   W96
//  #09 //081   ----------------------------------------
 BYTE   W96
//  #09 //082   ----------------------------------------
 BYTE   W96
//  #09 //083   ----------------------------------------
 BYTE   W96
//  #09 //084   ----------------------------------------
 BYTE   W96
//  #09 //085   ----------------------------------------
 BYTE   W96
//  #09 //086   ----------------------------------------
 BYTE   W96
//  #09 //087   ----------------------------------------
 BYTE   W96
//  #09 //088   ----------------------------------------
 BYTE   W96
//  #09 //089   ----------------------------------------
 BYTE   W96
//  #09 //090   ----------------------------------------
 BYTE   W96
//  #09 //091   ----------------------------------------
 BYTE   W96
//  #09 //092   ----------------------------------------
 BYTE   W96
//  #09 //093   ----------------------------------------
 BYTE   W96
//  #09 //094   ----------------------------------------
 BYTE   W96
//  #09 //095   ----------------------------------------
 BYTE   W96
//  #09 //096   ----------------------------------------
 BYTE   W96
//  #09 //097   ----------------------------------------
 BYTE   W96
//  #09 //098   ----------------------------------------
 BYTE   W96
//  #09 //099   ----------------------------------------
 BYTE   W96
//  #09 //100   ----------------------------------------
 BYTE   W96
//  #09 //101   ----------------------------------------
 BYTE   W96
//  #09 //102   ----------------------------------------
 BYTE   W96
//  #09 //103   ----------------------------------------
 BYTE   W96
//  #09 //104   ----------------------------------------
 BYTE   W96
//  #09 //105   ----------------------------------------
 BYTE   W96
//  #09 //106   ----------------------------------------
 BYTE   PATT
  POIN2 Label_01005B0A
//  #09 //107   ----------------------------------------
 BYTE   W48
 BYTE   N72  En5  v080
 BYTE   W48
//  #09 //108   ----------------------------------------
 BYTE   W96
//  #09 //109   ----------------------------------------
 BYTE   N72
 BYTE   W96
//  #09 //110   ----------------------------------------
 BYTE   W48
 BYTE   N72
 BYTE   W48
//  #09 //111   ----------------------------------------
 BYTE   W96
//  #09 //112   ----------------------------------------
 BYTE   N72
 BYTE   W96
//  #09 //113   ----------------------------------------
 BYTE   W48
 BYTE   N72
 BYTE   W48
//  #09 //114   ----------------------------------------
 BYTE   W96
//  #09 //115   ----------------------------------------
 BYTE   N72
 BYTE   W96
//  #09 //116   ----------------------------------------
 BYTE   W48
 BYTE   N72
 BYTE   W48
//  #09 //117   ----------------------------------------
 BYTE   W96
//  #09 //118   ----------------------------------------
 BYTE   PATT
  POIN2 Label_01005B27
//  #09 //119   ----------------------------------------
 BYTE   PATT
  POIN2 Label_01005B3E
//  #09 //120   ----------------------------------------
 BYTE   PATT
  POIN2 Label_01005B5B
//  #09 //121   ----------------------------------------
 BYTE   PATT
  POIN2 Label_01005B6D
//  #09 //122   ----------------------------------------
 BYTE   PATT
  POIN2 Label_01005B89
//  #09 //123   ----------------------------------------
 BYTE   PATT
  POIN2 Label_01005BA4
//  #09 //124   ----------------------------------------
 BYTE   PATT
  POIN2 Label_01005BB5
//  #09 //125   ----------------------------------------
 BYTE   PATT
  POIN2 Label_01005BCB
//  #09 //126   ----------------------------------------
 BYTE   PATT
  POIN2 Label_01005BE6
//  #09 //127   ----------------------------------------
 BYTE   PATT
  POIN2 Label_01005BF8
//  #09 //128   ----------------------------------------
 BYTE   PATT
  POIN2 Label_01005C0F
//  #09 //129   ----------------------------------------
 BYTE   PATT
  POIN2 Label_01005C2B
//  #09 //130   ----------------------------------------
 BYTE   N72  En5  v080
 BYTE   W96
//  #09 //131   ----------------------------------------
 BYTE   W48
 BYTE   N72
 BYTE   W48
//  #09 //132   ----------------------------------------
 BYTE   W96
 BYTE   FINE

//**************** Track 10 (Midi-Chn.9) ****************//

SMT4B4_010:
//  #10 //000   ----------------------------------------
 BYTE   VOL   50*SMT4B4_mvl/mxv
 BYTE   KEYSH   SMT4B4_key+0
 BYTE   VOICE   24
 BYTE   W96
//  #10 //001   ----------------------------------------
 BYTE   W96
//  #10 //002   ----------------------------------------
 BYTE   W96
//  #10 //003   ----------------------------------------
 BYTE   W96
//  #10 //004   ----------------------------------------
 BYTE   W96
//  #10 //005   ----------------------------------------
 BYTE   W96
//  #10 //006   ----------------------------------------
Label_01006480:
 BYTE   W96
//  #10 //007   ----------------------------------------
 BYTE   W96
//  #10 //008   ----------------------------------------
 BYTE   W96
//  #10 //009   ----------------------------------------
 BYTE   W96
//  #10 //010   ----------------------------------------
 BYTE   W96
//  #10 //011   ----------------------------------------
 BYTE   W96
//  #10 //012   ----------------------------------------
 BYTE   W96
//  #10 //013   ----------------------------------------
 BYTE   W96
//  #10 //014   ----------------------------------------
 BYTE   W96
//  #10 //015   ----------------------------------------
 BYTE   W96
//  #10 //016   ----------------------------------------
 BYTE   W96
//  #10 //017   ----------------------------------------
 BYTE   W96
//  #10 //018   ----------------------------------------
 BYTE   W96
//  #10 //019   ----------------------------------------
 BYTE   W96
//  #10 //020   ----------------------------------------
 BYTE   W96
//  #10 //021   ----------------------------------------
 BYTE   W96
//  #10 //022   ----------------------------------------
 BYTE   W96
//  #10 //023   ----------------------------------------
 BYTE   W96
//  #10 //024   ----------------------------------------
 BYTE   W96
//  #10 //025   ----------------------------------------
 BYTE   W96
//  #10 //026   ----------------------------------------
 BYTE   W96
//  #10 //027   ----------------------------------------
 BYTE   W96
//  #10 //028   ----------------------------------------
 BYTE   W96
//  #10 //029   ----------------------------------------
 BYTE   W96
//  #10 //030   ----------------------------------------
 BYTE   W96
//  #10 //031   ----------------------------------------
 BYTE   W96
//  #10 //032   ----------------------------------------
 BYTE   W96
//  #10 //033   ----------------------------------------
 BYTE   W96
//  #10 //034   ----------------------------------------
 BYTE   W96
//  #10 //035   ----------------------------------------
 BYTE   W96
//  #10 //036   ----------------------------------------
 BYTE   W96
//  #10 //037   ----------------------------------------
 BYTE   W96
//  #10 //038   ----------------------------------------
 BYTE   W96
//  #10 //039   ----------------------------------------
 BYTE   W96
//  #10 //040   ----------------------------------------
 BYTE   W96
//  #10 //041   ----------------------------------------
 BYTE   W96
//  #10 //042   ----------------------------------------
Label_010064A4:
 BYTE   W24
 BYTE   N06  An3  v048
 BYTE   W06
 BYTE   N12
 BYTE   W60
 BYTE   N06
 BYTE   W06
 BYTE   PEND 
//  #10 //043   ----------------------------------------
Label_010064AE:
 BYTE   N12  An3  v048
 BYTE   W78
 BYTE   N06
 BYTE   W06
 BYTE   N12
 BYTE   W12
 BYTE   PEND 
//  #10 //044   ----------------------------------------
Label_010064B7:
 BYTE   W66
 BYTE   N06  An3  v048
 BYTE   W06
 BYTE   N12
 BYTE   W24
 BYTE   PEND 
//  #10 //045   ----------------------------------------
Label_010064BF:
 BYTE   W12
 BYTE   N06  An3  v048
 BYTE   W06
 BYTE   N12
 BYTE   W72
 BYTE   N06
 BYTE   W06
 BYTE   PEND 
//  #10 //046   ----------------------------------------
 BYTE   PATT
  POIN2 Label_010064AE
//  #10 //047   ----------------------------------------
 BYTE   PATT
  POIN2 Label_010064B7
//  #10 //048   ----------------------------------------
 BYTE   PATT
  POIN2 Label_010064A4
//  #10 //049   ----------------------------------------
 BYTE   PATT
  POIN2 Label_010064AE
//  #10 //050   ----------------------------------------
 BYTE   PATT
  POIN2 Label_010064B7
//  #10 //051   ----------------------------------------
 BYTE   PATT
  POIN2 Label_010064BF
//  #10 //052   ----------------------------------------
 BYTE   PATT
  POIN2 Label_010064AE
//  #10 //053   ----------------------------------------
 BYTE   PATT
  POIN2 Label_010064B7
//  #10 //054   ----------------------------------------
 BYTE   PATT
  POIN2 Label_010064A4
//  #10 //055   ----------------------------------------
 BYTE   PATT
  POIN2 Label_010064AE
//  #10 //056   ----------------------------------------
 BYTE   PATT
  POIN2 Label_010064B7
//  #10 //057   ----------------------------------------
 BYTE   PATT
  POIN2 Label_010064BF
//  #10 //058   ----------------------------------------
 BYTE   PATT
  POIN2 Label_010064AE
//  #10 //059   ----------------------------------------
 BYTE   PATT
  POIN2 Label_010064B7
//  #10 //060   ----------------------------------------
 BYTE   PATT
  POIN2 Label_010064A4
//  #10 //061   ----------------------------------------
 BYTE   PATT
  POIN2 Label_010064AE
//  #10 //062   ----------------------------------------
 BYTE   PATT
  POIN2 Label_010064B7
//  #10 //063   ----------------------------------------
 BYTE   PATT
  POIN2 Label_010064BF
//  #10 //064   ----------------------------------------
 BYTE   PATT
  POIN2 Label_010064AE
//  #10 //065   ----------------------------------------
 BYTE   PATT
  POIN2 Label_010064B7
//  #10 //066   ----------------------------------------
 BYTE   W96
//  #10 //067   ----------------------------------------
 BYTE   W96
//  #10 //068   ----------------------------------------
 BYTE   W96
//  #10 //069   ----------------------------------------
 BYTE   GoTo
  POIN2 Label_01006480
//  #10 //070   ----------------------------------------
 BYTE   W96
//  #10 //071   ----------------------------------------
 BYTE   W96
//  #10 //072   ----------------------------------------
 BYTE   W96
//  #10 //073   ----------------------------------------
 BYTE   W96
//  #10 //074   ----------------------------------------
 BYTE   W96
//  #10 //075   ----------------------------------------
 BYTE   W96
//  #10 //076   ----------------------------------------
 BYTE   W96
//  #10 //077   ----------------------------------------
 BYTE   W96
//  #10 //078   ----------------------------------------
 BYTE   W96
//  #10 //079   ----------------------------------------
 BYTE   W96
//  #10 //080   ----------------------------------------
 BYTE   W96
//  #10 //081   ----------------------------------------
 BYTE   W96
//  #10 //082   ----------------------------------------
 BYTE   W96
//  #10 //083   ----------------------------------------
 BYTE   W96
//  #10 //084   ----------------------------------------
 BYTE   W96
//  #10 //085   ----------------------------------------
 BYTE   W96
//  #10 //086   ----------------------------------------
 BYTE   W96
//  #10 //087   ----------------------------------------
 BYTE   W96
//  #10 //088   ----------------------------------------
 BYTE   W96
//  #10 //089   ----------------------------------------
 BYTE   W96
//  #10 //090   ----------------------------------------
 BYTE   W96
//  #10 //091   ----------------------------------------
 BYTE   W96
//  #10 //092   ----------------------------------------
 BYTE   W96
//  #10 //093   ----------------------------------------
 BYTE   W96
//  #10 //094   ----------------------------------------
 BYTE   W96
//  #10 //095   ----------------------------------------
 BYTE   W96
//  #10 //096   ----------------------------------------
 BYTE   W96
//  #10 //097   ----------------------------------------
 BYTE   W96
//  #10 //098   ----------------------------------------
 BYTE   W96
//  #10 //099   ----------------------------------------
 BYTE   W96
//  #10 //100   ----------------------------------------
 BYTE   W96
//  #10 //101   ----------------------------------------
 BYTE   W96
//  #10 //102   ----------------------------------------
 BYTE   W96
//  #10 //103   ----------------------------------------
 BYTE   W96
//  #10 //104   ----------------------------------------
 BYTE   W96
//  #10 //105   ----------------------------------------
 BYTE   W96
//  #10 //106   ----------------------------------------
 BYTE   PATT
  POIN2 Label_010064A4
//  #10 //107   ----------------------------------------
 BYTE   PATT
  POIN2 Label_010064AE
//  #10 //108   ----------------------------------------
 BYTE   PATT
  POIN2 Label_010064B7
//  #10 //109   ----------------------------------------
 BYTE   PATT
  POIN2 Label_010064BF
//  #10 //110   ----------------------------------------
 BYTE   PATT
  POIN2 Label_010064AE
//  #10 //111   ----------------------------------------
 BYTE   PATT
  POIN2 Label_010064B7
//  #10 //112   ----------------------------------------
 BYTE   PATT
  POIN2 Label_010064A4
//  #10 //113   ----------------------------------------
 BYTE   PATT
  POIN2 Label_010064AE
//  #10 //114   ----------------------------------------
 BYTE   PATT
  POIN2 Label_010064B7
//  #10 //115   ----------------------------------------
 BYTE   PATT
  POIN2 Label_010064BF
//  #10 //116   ----------------------------------------
 BYTE   PATT
  POIN2 Label_010064AE
//  #10 //117   ----------------------------------------
 BYTE   PATT
  POIN2 Label_010064B7
//  #10 //118   ----------------------------------------
 BYTE   PATT
  POIN2 Label_010064A4
//  #10 //119   ----------------------------------------
 BYTE   PATT
  POIN2 Label_010064AE
//  #10 //120   ----------------------------------------
 BYTE   PATT
  POIN2 Label_010064B7
//  #10 //121   ----------------------------------------
 BYTE   PATT
  POIN2 Label_010064BF
//  #10 //122   ----------------------------------------
 BYTE   PATT
  POIN2 Label_010064AE
//  #10 //123   ----------------------------------------
 BYTE   PATT
  POIN2 Label_010064B7
//  #10 //124   ----------------------------------------
 BYTE   PATT
  POIN2 Label_010064A4
//  #10 //125   ----------------------------------------
 BYTE   PATT
  POIN2 Label_010064AE
//  #10 //126   ----------------------------------------
 BYTE   PATT
  POIN2 Label_010064B7
//  #10 //127   ----------------------------------------
 BYTE   PATT
  POIN2 Label_010064BF
//  #10 //128   ----------------------------------------
 BYTE   PATT
  POIN2 Label_010064AE
//  #10 //129   ----------------------------------------
 BYTE   PATT
  POIN2 Label_010064B7
//  #10 //130   ----------------------------------------
 BYTE   W96
//  #10 //131   ----------------------------------------
 BYTE   W96
//  #10 //132   ----------------------------------------
 BYTE   W96
 BYTE   FINE

//**************** Track 11 (Midi-Chn.10) ****************//

SMT4B4_011:
//  #11 //000   ----------------------------------------
 BYTE   VOL   50*SMT4B4_mvl/mxv
 BYTE   KEYSH   SMT4B4_key+0
 BYTE   VOICE   124
 BYTE   N06  Cn1  v104
 BYTE   W12
 BYTE   Fs1  v072
 BYTE   W12
 BYTE   Fs1  v096
 BYTE   W12
 BYTE   Fs1  v080
 BYTE   W12
 BYTE   Fs1  v096
 BYTE   W12
 BYTE   Fs1  v080
 BYTE   W12
 BYTE   Fs1  v096
 BYTE   W12
 BYTE   Fs1  v088
 BYTE   W12
//  #11 //001   ----------------------------------------
Label_01006607:
 BYTE   N06  Fs1  v096
 BYTE   W12
 BYTE   Fs1  v092
 BYTE   W12
 BYTE   Fs1  v096
 BYTE   W12
 BYTE   N06
 BYTE   W06
 BYTE   N06
 BYTE   W06
 BYTE   Cn1  v104
 BYTE   N06  Fs1  v092
 BYTE   W12
 BYTE   Fs1  v072
 BYTE   W12
 BYTE   Fs1  v096
 BYTE   W12
 BYTE   Fs1  v080
 BYTE   W12
 BYTE   PEND 
//  #11 //002   ----------------------------------------
 BYTE   Fs1  v096
 BYTE   W12
 BYTE   Fs1  v080
 BYTE   W12
 BYTE   Fs1  v096
 BYTE   W12
 BYTE   Fs1  v088
 BYTE   W12
 BYTE   Fs1  v096
 BYTE   W12
 BYTE   Fs1  v092
 BYTE   W12
 BYTE   Fs1  v096
 BYTE   W12
 BYTE   N06
 BYTE   W06
 BYTE   N06
 BYTE   W06
//  #11 //003   ----------------------------------------
 BYTE   Cn1  v104
 BYTE   W12
 BYTE   Fs1  v072
 BYTE   W12
 BYTE   Fs1  v096
 BYTE   W12
 BYTE   Fs1  v080
 BYTE   W12
 BYTE   Fs1  v096
 BYTE   W12
 BYTE   Fs1  v080
 BYTE   W12
 BYTE   Fs1  v096
 BYTE   W12
 BYTE   Fs1  v088
 BYTE   W12
//  #11 //004   ----------------------------------------
 BYTE   PATT
  POIN2 Label_01006607
//  #11 //005   ----------------------------------------
 BYTE   N06  Fs1  v096
 BYTE   W12
 BYTE   Fs1  v080
 BYTE   W12
 BYTE   Fs1  v096
 BYTE   W36
 BYTE   N06
 BYTE   W06
 BYTE   Cn1  v104
 BYTE   W06
 BYTE   Dn1  v108
 BYTE   N06  Fs1  v096
 BYTE   W12
 BYTE   Dn1  v108
 BYTE   W06
 BYTE   N06
 BYTE   W06
//  #11 //006   ----------------------------------------
Label_01006675:
 BYTE   N03  Cn1  v104
 BYTE   N03  Cs2  v096
 BYTE   W12
 BYTE   Fs1
 BYTE   W12
 BYTE   N03
 BYTE   W12
 BYTE   N04
 BYTE   W06
 BYTE   N03  Cn1  v104
 BYTE   W06
 BYTE   Dn1  v108
 BYTE   N06  Fs1  v096
 BYTE   W06
 BYTE   N04
 BYTE   W06
 BYTE   N05
 BYTE   W06
 BYTE   N04  Dn1  v088
 BYTE   N04  Fs1  v052
 BYTE   W06
 BYTE   N05  Cn1  v104
 BYTE   N05  Fs1  v096
 BYTE   W12
 BYTE   N03  Fs1  v072
 BYTE   W06
 BYTE   N04  Cn1  v104
 BYTE   W06
 BYTE   PEND 
//  #11 //007   ----------------------------------------
Label_010066A7:
 BYTE   N05  Fs1  v096
 BYTE   W12
 BYTE   N03
 BYTE   W06
 BYTE   Cn1  v108
 BYTE   N04  Fs1  v096
 BYTE   W06
 BYTE   Dn1  v108
 BYTE   N04  Fs1  v096
 BYTE   W06
 BYTE   N03
 BYTE   W06
 BYTE   N03
 BYTE   W06
 BYTE   N02  Cn1  v104
 BYTE   W06
 BYTE   N03
 BYTE   N04  Fs1  v096
 BYTE   W12
 BYTE   N05  Fs1  v068
 BYTE   W12
 BYTE   N06  Fs1  v084
 BYTE   W12
 BYTE   N06
 BYTE   W06
 BYTE   N02  Cn1  v104
 BYTE   W06
 BYTE   PEND 
//  #11 //008   ----------------------------------------
Label_010066D5:
 BYTE   N05  Dn1  v108
 BYTE   N05  Fs1  v084
 BYTE   W06
 BYTE   N04
 BYTE   W06
 BYTE   N03
 BYTE   W06
 BYTE   N06  Dn1  v092
 BYTE   W06
 BYTE   Cn1  v104
 BYTE   N06  Fs1  v096
 BYTE   W18
 BYTE   Cn1  v104
 BYTE   W06
 BYTE   N05  Fs1  v080
 BYTE   W12
 BYTE   N03
 BYTE   W06
 BYTE   N05  Cn1  v104
 BYTE   N05  Fs1  v080
 BYTE   W06
 BYTE   N04  Dn1  v108
 BYTE   N05  Fs1  v100
 BYTE   W06
 BYTE   N03  Fs1  v088
 BYTE   W06
 BYTE   Fs1  v100
 BYTE   W12
 BYTE   PEND 
//  #11 //009   ----------------------------------------
Label_01006709:
 BYTE   N03  Cn1  v104
 BYTE   N06  Fs1  v108
 BYTE   W12
 BYTE   N03  Fs1  v096
 BYTE   W12
 BYTE   N03
 BYTE   W12
 BYTE   N04
 BYTE   W06
 BYTE   N03  Cn1  v104
 BYTE   W06
 BYTE   Dn1  v108
 BYTE   N06  Fs1  v096
 BYTE   W06
 BYTE   N04
 BYTE   W06
 BYTE   N05
 BYTE   W06
 BYTE   N04  Dn1  v088
 BYTE   N04  Fs1  v052
 BYTE   W06
 BYTE   N05  Cn1  v104
 BYTE   N05  Fs1  v096
 BYTE   W12
 BYTE   N03  Fs1  v072
 BYTE   W06
 BYTE   N04  Cn1  v104
 BYTE   W06
 BYTE   PEND 
//  #11 //010   ----------------------------------------
 BYTE   PATT
  POIN2 Label_010066A7
//  #11 //011   ----------------------------------------
 BYTE   PATT
  POIN2 Label_010066D5
//  #11 //012   ----------------------------------------
Label_01006747:
 BYTE   N03  Cn1  v104
 BYTE   N04  Fs1  v116
 BYTE   W12
 BYTE   N03  Fs1  v096
 BYTE   W12
 BYTE   N03
 BYTE   W12
 BYTE   N04
 BYTE   W06
 BYTE   N03  Cn1  v104
 BYTE   W06
 BYTE   Dn1  v108
 BYTE   N06  Fs1  v096
 BYTE   W06
 BYTE   N04
 BYTE   W06
 BYTE   N05
 BYTE   W06
 BYTE   N04  Dn1  v088
 BYTE   N04  Fs1  v052
 BYTE   W06
 BYTE   N05  Cn1  v104
 BYTE   N05  Fs1  v096
 BYTE   W12
 BYTE   N03  Fs1  v072
 BYTE   W06
 BYTE   N04  Cn1  v104
 BYTE   W06
 BYTE   PEND 
//  #11 //013   ----------------------------------------
 BYTE   PATT
  POIN2 Label_010066A7
//  #11 //014   ----------------------------------------
 BYTE   PATT
  POIN2 Label_010066D5
//  #11 //015   ----------------------------------------
 BYTE   PATT
  POIN2 Label_01006709
//  #11 //016   ----------------------------------------
 BYTE   PATT
  POIN2 Label_010066A7
//  #11 //017   ----------------------------------------
Label_0100678F:
 BYTE   N05  Dn1  v108
 BYTE   N05  Fs1  v084
 BYTE   W06
 BYTE   N04
 BYTE   W06
 BYTE   N03
 BYTE   W06
 BYTE   N06  Dn1  v092
 BYTE   W06
 BYTE   Cn1  v104
 BYTE   N06  Fs1  v096
 BYTE   W12
 BYTE   An1  v100
 BYTE   W06
 BYTE   Cn1  v104
 BYTE   W06
 BYTE   N05  Fs1  v080
 BYTE   W12
 BYTE   N03
 BYTE   W06
 BYTE   N05  Cn1  v104
 BYTE   N05  Fs1  v080
 BYTE   W06
 BYTE   N04  Dn1  v108
 BYTE   N05  Fs1  v100
 BYTE   W06
 BYTE   N03  Fs1  v088
 BYTE   W06
 BYTE   Fs1  v100
 BYTE   W12
 BYTE   PEND 
//  #11 //018   ----------------------------------------
 BYTE   PATT
  POIN2 Label_01006747
//  #11 //019   ----------------------------------------
 BYTE   PATT
  POIN2 Label_010066A7
//  #11 //020   ----------------------------------------
 BYTE   PATT
  POIN2 Label_010066D5
//  #11 //021   ----------------------------------------
 BYTE   PATT
  POIN2 Label_01006709
//  #11 //022   ----------------------------------------
 BYTE   PATT
  POIN2 Label_010066A7
//  #11 //023   ----------------------------------------
 BYTE   PATT
  POIN2 Label_010066D5
//  #11 //024   ----------------------------------------
 BYTE   PATT
  POIN2 Label_01006747
//  #11 //025   ----------------------------------------
 BYTE   PATT
  POIN2 Label_010066A7
//  #11 //026   ----------------------------------------
 BYTE   PATT
  POIN2 Label_010066D5
//  #11 //027   ----------------------------------------
 BYTE   PATT
  POIN2 Label_01006709
//  #11 //028   ----------------------------------------
 BYTE   PATT
  POIN2 Label_010066A7
//  #11 //029   ----------------------------------------
Label_010067FD:
 BYTE   N05  Dn1  v108
 BYTE   N05  Fs1  v084
 BYTE   W06
 BYTE   N04
 BYTE   W06
 BYTE   N03
 BYTE   W06
 BYTE   N06  Dn1  v092
 BYTE   W06
 BYTE   Cn1  v104
 BYTE   N06  Fs1  v096
 BYTE   W12
 BYTE   Cn1  v104
 BYTE   W06
 BYTE   Dn1  v108
 BYTE   W06
 BYTE   N05  Fs1  v080
 BYTE   W06
 BYTE   N06  An1  v116
 BYTE   W06
 BYTE   N03  Fs1  v080
 BYTE   W06
 BYTE   N05
 BYTE   W06
 BYTE   N04  Dn1  v108
 BYTE   N05  Fs1  v100
 BYTE   N05  Ds2  v096
 BYTE   W06
 BYTE   N03  Dn1  v108
 BYTE   N03  Fs1  v088
 BYTE   N02  Ds2  v096
 BYTE   W06
 BYTE   N03  Fs1  v100
 BYTE   W12
 BYTE   PEND 
//  #11 //030   ----------------------------------------
Label_0100683F:
 BYTE   N06  Cn1  v104
 BYTE   N07  Fs1  v080
 BYTE   N03  Cs2  v096
 BYTE   N04  Ds2
 BYTE   W12
 BYTE   N03  Cn1  v104
 BYTE   N03  Fs1  v080
 BYTE   W06
 BYTE   N06  Cn1  v104
 BYTE   N06  Fs1  v080
 BYTE   W12
 BYTE   N03  Cn1  v104
 BYTE   N05  Fs1  v080
 BYTE   W06
 BYTE   As1  v056
 BYTE   W06
 BYTE   Cn1  v104
 BYTE   W06
 BYTE   N07  Dn1  v108
 BYTE   N07  As1  v068
 BYTE   W12
 BYTE   N04  Cn1  v104
 BYTE   N05  As1  v068
 BYTE   W06
 BYTE   N04  Dn1  v108
 BYTE   W06
 BYTE   N05  Cn1  v104
 BYTE   N07  Fs1  v080
 BYTE   W12
 BYTE   N04  Cn1  v104
 BYTE   N03  Fs1  v080
 BYTE   W06
 BYTE   N04  Cn1  v104
 BYTE   N06  Fs1  v080
 BYTE   W06
 BYTE   PEND 
//  #11 //031   ----------------------------------------
Label_0100688E:
 BYTE   W06
 BYTE   N05  Cn1  v104
 BYTE   N05  Fs1  v080
 BYTE   W06
 BYTE   As1  v056
 BYTE   W06
 BYTE   N03  Cn1  v104
 BYTE   W06
 BYTE   N06  Dn1  v108
 BYTE   N07  As1  v068
 BYTE   W12
 BYTE   N06  Cn1  v104
 BYTE   N05  As1  v068
 BYTE   W12
 BYTE   N06  Cn1  v104
 BYTE   N07  Fs1  v080
 BYTE   W12
 BYTE   N03  Cn1  v104
 BYTE   N03  Fs1  v080
 BYTE   W06
 BYTE   N06  Cn1  v104
 BYTE   N06  Fs1  v080
 BYTE   W12
 BYTE   N03  Cn1  v104
 BYTE   N05  Fs1  v080
 BYTE   W06
 BYTE   As1  v056
 BYTE   W06
 BYTE   Cn1  v104
 BYTE   W06
 BYTE   PEND 
//  #11 //032   ----------------------------------------
Label_010068CE:
 BYTE   N07  Dn1  v108
 BYTE   N07  As1  v068
 BYTE   W12
 BYTE   N04  Cn1  v104
 BYTE   N05  As1  v068
 BYTE   W06
 BYTE   N04  Dn1  v108
 BYTE   W06
 BYTE   N05  Cn1  v104
 BYTE   N07  Fs1  v080
 BYTE   W12
 BYTE   N04  Cn1  v104
 BYTE   N03  Fs1  v080
 BYTE   W06
 BYTE   N04  Cn1  v104
 BYTE   N06  Fs1  v080
 BYTE   W12
 BYTE   N05  Cn1  v104
 BYTE   N05  Fs1  v080
 BYTE   W06
 BYTE   As1  v056
 BYTE   W06
 BYTE   N03  Cn1  v104
 BYTE   W06
 BYTE   N06  Dn1  v108
 BYTE   N07  As1  v068
 BYTE   W12
 BYTE   N06  Cn1  v104
 BYTE   N05  As1  v068
 BYTE   W12
 BYTE   PEND 
//  #11 //033   ----------------------------------------
Label_01006912:
 BYTE   N06  Cn1  v104
 BYTE   N07  Fs1  v080
 BYTE   W12
 BYTE   N03  Cn1  v104
 BYTE   N03  Fs1  v080
 BYTE   W06
 BYTE   N06  Cn1  v104
 BYTE   N06  Fs1  v080
 BYTE   W12
 BYTE   N03  Cn1  v104
 BYTE   N05  Fs1  v080
 BYTE   W06
 BYTE   As1  v056
 BYTE   W06
 BYTE   Cn1  v104
 BYTE   W06
 BYTE   N07  Dn1  v108
 BYTE   N07  As1  v068
 BYTE   W12
 BYTE   N04  Cn1  v104
 BYTE   N05  As1  v068
 BYTE   W06
 BYTE   N04  Dn1  v108
 BYTE   W06
 BYTE   N05  Cn1  v104
 BYTE   N05  Fs1  v080
 BYTE   W12
 BYTE   N04  Cn1  v104
 BYTE   N06  Fs1  v096
 BYTE   W06
 BYTE   N04  Cn1  v104
 BYTE   N04  Fs1  v096
 BYTE   W06
 BYTE   PEND 
//  #11 //034   ----------------------------------------
Label_0100695C:
 BYTE   W06
 BYTE   N05  Cn1  v104
 BYTE   N03  Fs1  v060
 BYTE   W06
 BYTE   N08  As1  v056
 BYTE   W06
 BYTE   N03  Cn1  v104
 BYTE   W06
 BYTE   N06  Dn1  v108
 BYTE   N11  As1  v068
 BYTE   W12
 BYTE   N06  Cn1  v104
 BYTE   N09  As1  v076
 BYTE   W12
 BYTE   N06  Cn1  v104
 BYTE   N09  As1  v080
 BYTE   W12
 BYTE   N03  Cn1  v104
 BYTE   W06
 BYTE   N06
 BYTE   N03  As1  v060
 BYTE   W12
 BYTE   Cn1  v104
 BYTE   W06
 BYTE   N06  As1  v060
 BYTE   W06
 BYTE   N05  Cn1  v104
 BYTE   W06
 BYTE   PEND 
//  #11 //035   ----------------------------------------
Label_01006996:
 BYTE   N07  Dn1  v108
 BYTE   N04  As1  v076
 BYTE   W12
 BYTE   Cn1  v104
 BYTE   N06  As1  v060
 BYTE   W06
 BYTE   N04  Dn1  v108
 BYTE   W06
 BYTE   N05  Cn1  v104
 BYTE   N11  As1  v076
 BYTE   W12
 BYTE   N04  Cn1  v104
 BYTE   W06
 BYTE   N04
 BYTE   N06  As1  v076
 BYTE   W12
 BYTE   N05  Dn1  v108
 BYTE   N05  Fs1  v096
 BYTE   W06
 BYTE   N04  Cn1  v104
 BYTE   N05  As1  v084
 BYTE   W06
 BYTE   N03  Cn1  v104
 BYTE   W06
 BYTE   N06  Dn1  v108
 BYTE   N05  As1  v084
 BYTE   W12
 BYTE   N06  Dn1  v108
 BYTE   N08  As1  v084
 BYTE   W06
 BYTE   N06  Dn1  v108
 BYTE   W06
 BYTE   PEND 
//  #11 //036   ----------------------------------------
Label_010069DC:
 BYTE   N06  Cn1  v104
 BYTE   N07  Fs1  v080
 BYTE   N04  Ds2  v096
 BYTE   W12
 BYTE   N03  Cn1  v104
 BYTE   N03  Fs1  v080
 BYTE   W06
 BYTE   N06  Cn1  v104
 BYTE   N06  Fs1  v080
 BYTE   W12
 BYTE   N03  Cn1  v104
 BYTE   N05  Fs1  v080
 BYTE   W06
 BYTE   As1  v056
 BYTE   W06
 BYTE   Cn1  v104
 BYTE   W06
 BYTE   N07  Dn1  v108
 BYTE   N07  As1  v068
 BYTE   W12
 BYTE   N04  Cn1  v104
 BYTE   N05  As1  v068
 BYTE   W06
 BYTE   N04  Dn1  v108
 BYTE   W06
 BYTE   N05  Cn1  v104
 BYTE   N07  Fs1  v080
 BYTE   W12
 BYTE   N04  Cn1  v104
 BYTE   N03  Fs1  v080
 BYTE   W06
 BYTE   N04  Cn1  v104
 BYTE   N06  Fs1  v080
 BYTE   W06
 BYTE   PEND 
//  #11 //037   ----------------------------------------
 BYTE   PATT
  POIN2 Label_0100688E
//  #11 //038   ----------------------------------------
 BYTE   PATT
  POIN2 Label_010068CE
//  #11 //039   ----------------------------------------
 BYTE   PATT
  POIN2 Label_01006912
//  #11 //040   ----------------------------------------
 BYTE   PATT
  POIN2 Label_0100695C
//  #11 //041   ----------------------------------------
Label_01006A3D:
 BYTE   N07  Dn1  v108
 BYTE   N04  As1  v076
 BYTE   W12
 BYTE   Cn1  v104
 BYTE   N06  As1  v060
 BYTE   W06
 BYTE   N04  Dn1  v108
 BYTE   W06
 BYTE   N04
 BYTE   N11  As1  v076
 BYTE   W06
 BYTE   N06  Cn1  v104
 BYTE   W12
 BYTE   N05
 BYTE   N06  As1  v076
 BYTE   W06
 BYTE   N04  Dn1  v108
 BYTE   W06
 BYTE   N06  Cn1  v104
 BYTE   W06
 BYTE   N04  Gn1  v096
 BYTE   N05  As1  v084
 BYTE   W06
 BYTE   N06  Fn1  v096
 BYTE   W06
 BYTE   Dn1  v108
 BYTE   N05  As1  v084
 BYTE   W06
 BYTE   Dn1  v108
 BYTE   W06
 BYTE   N03  Cn1  v104
 BYTE   N08  As1  v084
 BYTE   W06
 BYTE   N06  Cn1  v104
 BYTE   W06
 BYTE   PEND 
//  #11 //042   ----------------------------------------
Label_01006A84:
 BYTE   N20  Cn1  v072
 BYTE   N09  Fn2  v064
 BYTE   W60
 BYTE   N12  Cn1  v072
 BYTE   W36
 BYTE   PEND 
//  #11 //043   ----------------------------------------
Label_01006A90:
 BYTE   W48
 BYTE   N20  Cn1  v072
 BYTE   N09  Fn2  v064
 BYTE   W48
 BYTE   PEND 
//  #11 //044   ----------------------------------------
Label_01006A99:
 BYTE   W12
 BYTE   N12  Cn1  v072
 BYTE   W12
 BYTE   N06
 BYTE   W18
 BYTE   N06
 BYTE   W06
 BYTE   N05
 BYTE   W36
 BYTE   N12
 BYTE   W12
 BYTE   PEND 
//  #11 //045   ----------------------------------------
Label_01006AA7:
 BYTE   N08  Cn1  v072
 BYTE   N09  Fn2  v064
 BYTE   W60
 BYTE   N20  Cn1  v072
 BYTE   W36
 BYTE   PEND 
//  #11 //046   ----------------------------------------
 BYTE   W48
 BYTE   N20
 BYTE   W48
//  #11 //047   ----------------------------------------
Label_01006AB6:
 BYTE   W12
 BYTE   N12  Cn1  v072
 BYTE   W12
 BYTE   N12
 BYTE   W18
 BYTE   N06
 BYTE   W06
 BYTE   N06
 BYTE   W48
 BYTE   PEND 
//  #11 //048   ----------------------------------------
Label_01006AC2:
 BYTE   N20  Cn1  v072
 BYTE   N10  Fn2  v064
 BYTE   W60
 BYTE   N12  Cn1  v072
 BYTE   W36
 BYTE   PEND 
//  #11 //049   ----------------------------------------
 BYTE   W48
 BYTE   N20
 BYTE   W48
//  #11 //050   ----------------------------------------
 BYTE   PATT
  POIN2 Label_01006A99
//  #11 //051   ----------------------------------------
Label_01006AD6:
 BYTE   N08  Cn1  v072
 BYTE   N12  Fn2  v064
 BYTE   W60
 BYTE   N20  Cn1  v072
 BYTE   W36
 BYTE   PEND 
//  #11 //052   ----------------------------------------
 BYTE   W48
 BYTE   N20
 BYTE   W48
//  #11 //053   ----------------------------------------
 BYTE   PATT
  POIN2 Label_01006AB6
//  #11 //054   ----------------------------------------
Label_01006AEA:
 BYTE   N12  Cn1  v072
 BYTE   N12  As1  v052
 BYTE   N12  Fn2  v064
 BYTE   W24
 BYTE   As1
 BYTE   W24
 BYTE   As1  v060
 BYTE   W12
 BYTE   N09  Cn1  v072
 BYTE   W12
 BYTE   N09
 BYTE   N12  As1  v064
 BYTE   W18
 BYTE   N06  Cn1  v072
 BYTE   W06
 BYTE   PEND 
//  #11 //055   ----------------------------------------
Label_01006B07:
 BYTE   N12  As1  v064
 BYTE   W24
 BYTE   N12
 BYTE   W12
 BYTE   N06  Cn1  v072
 BYTE   W12
 BYTE   N12
 BYTE   N12  As1  v076
 BYTE   W24
 BYTE   As1  v064
 BYTE   W24
 BYTE   PEND 
//  #11 //056   ----------------------------------------
Label_01006B1A:
 BYTE   N12  As1  v072
 BYTE   W12
 BYTE   N09  Cn1
 BYTE   W12
 BYTE   N09
 BYTE   N12  As1  v064
 BYTE   W12
 BYTE   N06  Fn1  v052
 BYTE   W06
 BYTE   Cn1  v072
 BYTE   W06
 BYTE   N12  As1  v060
 BYTE   W24
 BYTE   N12
 BYTE   W12
 BYTE   N06  Cn1  v072
 BYTE   W12
 BYTE   PEND 
//  #11 //057   ----------------------------------------
Label_01006B38:
 BYTE   N12  Cn1  v072
 BYTE   N12  As1  v052
 BYTE   W24
 BYTE   As1  v064
 BYTE   W24
 BYTE   As1  v060
 BYTE   W12
 BYTE   N09  Cn1  v072
 BYTE   W12
 BYTE   N09
 BYTE   N12  As1  v064
 BYTE   W12
 BYTE   N06  Fn1  v052
 BYTE   W06
 BYTE   Cn1  v072
 BYTE   W06
 BYTE   PEND 
//  #11 //058   ----------------------------------------
 BYTE   PATT
  POIN2 Label_01006B07
//  #11 //059   ----------------------------------------
Label_01006B5B:
 BYTE   N12  As1  v072
 BYTE   W12
 BYTE   N09  Cn1
 BYTE   W12
 BYTE   N09
 BYTE   N12  As1  v064
 BYTE   W12
 BYTE   N06  Fn1  v052
 BYTE   W06
 BYTE   Cn1  v072
 BYTE   W06
 BYTE   N12  As1  v060
 BYTE   W24
 BYTE   N12
 BYTE   W24
 BYTE   PEND 
//  #11 //060   ----------------------------------------
Label_01006B75:
 BYTE   N12  Cn1  v072
 BYTE   N12  As1  v052
 BYTE   N15  Fn2  v064
 BYTE   W24
 BYTE   N12  As1
 BYTE   W24
 BYTE   As1  v060
 BYTE   W12
 BYTE   N09  Cn1  v072
 BYTE   W12
 BYTE   N09
 BYTE   N12  As1  v064
 BYTE   W12
 BYTE   N06  Fn1  v052
 BYTE   W06
 BYTE   Cn1  v072
 BYTE   W06
 BYTE   PEND 
//  #11 //061   ----------------------------------------
 BYTE   PATT
  POIN2 Label_01006B07
//  #11 //062   ----------------------------------------
 BYTE   PATT
  POIN2 Label_01006B1A
//  #11 //063   ----------------------------------------
 BYTE   PATT
  POIN2 Label_01006B38
//  #11 //064   ----------------------------------------
Label_01006BA5:
 BYTE   N12  As1  v064
 BYTE   W24
 BYTE   N12
 BYTE   W12
 BYTE   N06  Cn1  v072
 BYTE   W12
 BYTE   N12
 BYTE   N12  As1  v076
 BYTE   W24
 BYTE   As1  v064
 BYTE   W18
 BYTE   N12
 BYTE   W06
 BYTE   PEND 
//  #11 //065   ----------------------------------------
Label_01006BBA:
 BYTE   W12
 BYTE   N09  Cn1  v072
 BYTE   N12  As1
 BYTE   W12
 BYTE   N09  Cn1
 BYTE   W06
 BYTE   N12  As1  v064
 BYTE   W06
 BYTE   N06  Fn1  v052
 BYTE   W06
 BYTE   Cn1  v072
 BYTE   W06
 BYTE   N12  As1  v060
 BYTE   W18
 BYTE   N12
 BYTE   W18
 BYTE   N12
 BYTE   W12
 BYTE   PEND 
//  #11 //066   ----------------------------------------
Label_01006BD8:
 BYTE   N06  Cn1  v096
 BYTE   N06  Fn2  v064
 BYTE   W12
 BYTE   Fs1
 BYTE   W12
 BYTE   N06
 BYTE   W12
 BYTE   N06
 BYTE   W12
 BYTE   N06
 BYTE   W12
 BYTE   Cn1  v096
 BYTE   W12
 BYTE   N06
 BYTE   W12
 BYTE   Fs1  v064
 BYTE   W12
 BYTE   PEND 
//  #11 //067   ----------------------------------------
Label_01006BF0:
 BYTE   N06  Fs1  v064
 BYTE   W12
 BYTE   N06
 BYTE   W12
 BYTE   N06
 BYTE   W12
 BYTE   Cn1  v096
 BYTE   N06  Fs1  v064
 BYTE   W06
 BYTE   N06
 BYTE   W06
 BYTE   Cn1  v096
 BYTE   W12
 BYTE   Fs1  v064
 BYTE   W12
 BYTE   N06
 BYTE   W12
 BYTE   N06
 BYTE   W12
 BYTE   PEND 
//  #11 //068   ----------------------------------------
Label_01006C0B:
 BYTE   N06  Fs1  v064
 BYTE   W12
 BYTE   N03  Cn1  v096
 BYTE   W12
 BYTE   N06
 BYTE   N09  Fs1  v060
 BYTE   W12
 BYTE   N06  Fs1  v064
 BYTE   W06
 BYTE   Cn1  v096
 BYTE   W06
 BYTE   Fs1  v064
 BYTE   W12
 BYTE   Cn1  v096
 BYTE   N06  Fs1  v064
 BYTE   W06
 BYTE   An1  v092
 BYTE   W06
 BYTE   Dn1  v100
 BYTE   N06  Fs1  v064
 BYTE   W12
 BYTE   Dn1  v100
 BYTE   N06  Fs1  v064
 BYTE   W06
 BYTE   Dn1  v100
 BYTE   N06  Fs1  v064
 BYTE   W06
 BYTE   PEND 
//  #11 //069   ----------------------------------------
 BYTE   GoTo
  POIN2 Label_01006675
//  #11 //070   ----------------------------------------
 BYTE   PATT
  POIN2 Label_01006675
//  #11 //071   ----------------------------------------
 BYTE   PATT
  POIN2 Label_010066A7
//  #11 //072   ----------------------------------------
 BYTE   PATT
  POIN2 Label_010066D5
//  #11 //073   ----------------------------------------
 BYTE   PATT
  POIN2 Label_01006709
//  #11 //074   ----------------------------------------
 BYTE   PATT
  POIN2 Label_010066A7
//  #11 //075   ----------------------------------------
 BYTE   PATT
  POIN2 Label_010066D5
//  #11 //076   ----------------------------------------
 BYTE   PATT
  POIN2 Label_01006747
//  #11 //077   ----------------------------------------
 BYTE   PATT
  POIN2 Label_010066A7
//  #11 //078   ----------------------------------------
 BYTE   PATT
  POIN2 Label_010066D5
//  #11 //079   ----------------------------------------
 BYTE   PATT
  POIN2 Label_01006709
//  #11 //080   ----------------------------------------
 BYTE   PATT
  POIN2 Label_010066A7
//  #11 //081   ----------------------------------------
 BYTE   PATT
  POIN2 Label_0100678F
//  #11 //082   ----------------------------------------
 BYTE   PATT
  POIN2 Label_01006747
//  #11 //083   ----------------------------------------
 BYTE   PATT
  POIN2 Label_010066A7
//  #11 //084   ----------------------------------------
 BYTE   PATT
  POIN2 Label_010066D5
//  #11 //085   ----------------------------------------
 BYTE   PATT
  POIN2 Label_01006709
//  #11 //086   ----------------------------------------
 BYTE   PATT
  POIN2 Label_010066A7
//  #11 //087   ----------------------------------------
 BYTE   PATT
  POIN2 Label_010066D5
//  #11 //088   ----------------------------------------
 BYTE   PATT
  POIN2 Label_01006747
//  #11 //089   ----------------------------------------
 BYTE   PATT
  POIN2 Label_010066A7
//  #11 //090   ----------------------------------------
 BYTE   PATT
  POIN2 Label_010066D5
//  #11 //091   ----------------------------------------
 BYTE   PATT
  POIN2 Label_01006709
//  #11 //092   ----------------------------------------
 BYTE   PATT
  POIN2 Label_010066A7
//  #11 //093   ----------------------------------------
 BYTE   PATT
  POIN2 Label_010067FD
//  #11 //094   ----------------------------------------
 BYTE   PATT
  POIN2 Label_0100683F
//  #11 //095   ----------------------------------------
 BYTE   PATT
  POIN2 Label_0100688E
//  #11 //096   ----------------------------------------
 BYTE   PATT
  POIN2 Label_010068CE
//  #11 //097   ----------------------------------------
 BYTE   PATT
  POIN2 Label_01006912
//  #11 //098   ----------------------------------------
 BYTE   PATT
  POIN2 Label_0100695C
//  #11 //099   ----------------------------------------
 BYTE   PATT
  POIN2 Label_01006996
//  #11 //100   ----------------------------------------
 BYTE   PATT
  POIN2 Label_010069DC
//  #11 //101   ----------------------------------------
 BYTE   PATT
  POIN2 Label_0100688E
//  #11 //102   ----------------------------------------
 BYTE   PATT
  POIN2 Label_010068CE
//  #11 //103   ----------------------------------------
 BYTE   PATT
  POIN2 Label_01006912
//  #11 //104   ----------------------------------------
 BYTE   PATT
  POIN2 Label_0100695C
//  #11 //105   ----------------------------------------
 BYTE   PATT
  POIN2 Label_01006A3D
//  #11 //106   ----------------------------------------
 BYTE   PATT
  POIN2 Label_01006A84
//  #11 //107   ----------------------------------------
 BYTE   PATT
  POIN2 Label_01006A90
//  #11 //108   ----------------------------------------
 BYTE   PATT
  POIN2 Label_01006A99
//  #11 //109   ----------------------------------------
 BYTE   PATT
  POIN2 Label_01006AA7
//  #11 //110   ----------------------------------------
 BYTE   W48
 BYTE   N20  Cn1  v072
 BYTE   W48
//  #11 //111   ----------------------------------------
 BYTE   PATT
  POIN2 Label_01006AB6
//  #11 //112   ----------------------------------------
 BYTE   PATT
  POIN2 Label_01006AC2
//  #11 //113   ----------------------------------------
 BYTE   W48
 BYTE   N20  Cn1  v072
 BYTE   W48
//  #11 //114   ----------------------------------------
 BYTE   PATT
  POIN2 Label_01006A99
//  #11 //115   ----------------------------------------
 BYTE   PATT
  POIN2 Label_01006AD6
//  #11 //116   ----------------------------------------
 BYTE   W48
 BYTE   N20  Cn1  v072
 BYTE   W48
//  #11 //117   ----------------------------------------
 BYTE   PATT
  POIN2 Label_01006AB6
//  #11 //118   ----------------------------------------
 BYTE   PATT
  POIN2 Label_01006AEA
//  #11 //119   ----------------------------------------
 BYTE   PATT
  POIN2 Label_01006B07
//  #11 //120   ----------------------------------------
 BYTE   PATT
  POIN2 Label_01006B1A
//  #11 //121   ----------------------------------------
 BYTE   PATT
  POIN2 Label_01006B38
//  #11 //122   ----------------------------------------
 BYTE   PATT
  POIN2 Label_01006B07
//  #11 //123   ----------------------------------------
 BYTE   PATT
  POIN2 Label_01006B5B
//  #11 //124   ----------------------------------------
 BYTE   PATT
  POIN2 Label_01006B75
//  #11 //125   ----------------------------------------
 BYTE   PATT
  POIN2 Label_01006B07
//  #11 //126   ----------------------------------------
 BYTE   PATT
  POIN2 Label_01006B1A
//  #11 //127   ----------------------------------------
 BYTE   PATT
  POIN2 Label_01006B38
//  #11 //128   ----------------------------------------
 BYTE   PATT
  POIN2 Label_01006BA5
//  #11 //129   ----------------------------------------
 BYTE   PATT
  POIN2 Label_01006BBA
//  #11 //130   ----------------------------------------
 BYTE   PATT
  POIN2 Label_01006BD8
//  #11 //131   ----------------------------------------
 BYTE   PATT
  POIN2 Label_01006BF0
//  #11 //132   ----------------------------------------
 BYTE   PATT
  POIN2 Label_01006C0B
 BYTE   FINE

//******************************************************//
	ALIGN 4

SMT4B4:
	BYTE	11	// NumTrks
	BYTE	0	// NumBlks
	BYTE	SMT4B4_pri	// Priority
	BYTE	SMT4B4_rev	// Reverb.
    
	POIN2	SMT4B4_grp
    
	POIN2	SMT4B4_001
	POIN2	SMT4B4_002
	POIN2	SMT4B4_003
	POIN2	SMT4B4_004
	POIN2	SMT4B4_005
	POIN2	SMT4B4_006
	POIN2	SMT4B4_007
	POIN2	SMT4B4_008
	POIN2	SMT4B4_009
	POIN2	SMT4B4_010
	POIN2	SMT4B4_011

	
