//Event file generated from Sappy .s format.
	#include "MPlayDef.event"

	#define	SMT_V_Battle_theme_grp  voicegroup000
	#define	SMT_V_Battle_theme_pri  0
	#define	SMT_V_Battle_theme_rev  0
	#define	SMT_V_Battle_theme_mvl  127
	#define	SMT_V_Battle_theme_key  0
	#define	SMT_V_Battle_theme_tbs  1
	#define	SMT_V_Battle_theme_exg  0
	#define	SMT_V_Battle_theme_cmp  1

	// .rodata
	//	SMT_V_Battle_theme
	ALIGN 4


//**************** Track 1 (Midi-Chn.0) ****************//

SMT_V_Battle_theme_001:
// 000   ----------------------------------------
 BYTE   KEYSH   SMT_V_Battle_theme_key+0
 BYTE   TEMPO   88*SMT_V_Battle_theme_tbs/2
 BYTE   VOICE   104
 BYTE   VOL   52*SMT_V_Battle_theme_mvl/mxv
 BYTE   PAN   c_v+18
 BYTE   W12
Label_0_01111DB7:
 BYTE   N78  En3  v096
 BYTE   W78
 BYTE   N06  Fn3
 BYTE   W06
// 001   ----------------------------------------
 BYTE   Fs3
 BYTE   W06
 BYTE   Gn3
 BYTE   W06
 BYTE   N72  Dn3
 BYTE   W72
 BYTE   N24  Gn2
 BYTE   W12
// 002   ----------------------------------------
 BYTE   W12
 BYTE   N36  An2
 BYTE   W36
 BYTE   TIE  Bn2
 BYTE   W48
// 003   ----------------------------------------
 BYTE   W84
 BYTE   EOT
 BYTE   N24  Gs2
 BYTE   W12
// 004   ----------------------------------------
Label_0_01111DD4:
 BYTE   W12
 BYTE   N78  En3  v096
 BYTE   W78
 BYTE   N06  Fn3
 BYTE   W06
 BYTE   PEND 
// 005   ----------------------------------------
Label_0_01111DDD:
 BYTE   N06  Fs3  v096
 BYTE   W06
 BYTE   Gn3
 BYTE   W06
 BYTE   N72  Dn3
 BYTE   W72
 BYTE   N24  An2
 BYTE   W12
 BYTE   PEND 
// 006   ----------------------------------------
 BYTE   W12
 BYTE   N96  Fs3
 BYTE   W84
// 007   ----------------------------------------
Label_0_01111DEE:
 BYTE   W12
 BYTE   N24  Bn3  v096
 BYTE   W24
 BYTE   N72  En3
 BYTE   W60
 BYTE   PEND 
// 008   ----------------------------------------
Label_0_01111DF7:
 BYTE   W24
 BYTE   N12  Bn2  v096
 BYTE   W12
 BYTE   En3
 BYTE   W12
 BYTE   Fs3
 BYTE   W12
 BYTE   N60  Dn3
 BYTE   W36
 BYTE   PEND 
// 009   ----------------------------------------
Label_0_01111E04:
 BYTE   W24
 BYTE   N12  Bn2  v096
 BYTE   W12
 BYTE   En3
 BYTE   W12
 BYTE   Bn2
 BYTE   W12
 BYTE   N60  Dn3
 BYTE   W36
 BYTE   PEND 
// 010   ----------------------------------------
 BYTE   PATT
  POIN2 Label_0_01111DF7
// 011   ----------------------------------------
Label_0_01111E16:
 BYTE   W24
 BYTE   N12  En3  v096
 BYTE   W12
 BYTE   Fs3
 BYTE   W12
 BYTE   Dn3
 BYTE   W12
 BYTE   En3
 BYTE   W12
 BYTE   Bn3
 BYTE   W12
 BYTE   An3
 BYTE   W12
 BYTE   PEND 
// 012   ----------------------------------------
Label_0_01111E26:
 BYTE   N12  Dn3  v096
 BYTE   W24
 BYTE   Bn2
 BYTE   W12
 BYTE   En3
 BYTE   W12
 BYTE   Fs3
 BYTE   W12
 BYTE   N60  Dn3
 BYTE   W36
 BYTE   PEND 
// 013   ----------------------------------------
 BYTE   PATT
  POIN2 Label_0_01111E04
// 014   ----------------------------------------
 BYTE   PATT
  POIN2 Label_0_01111DF7
// 015   ----------------------------------------
 BYTE   PATT
  POIN2 Label_0_01111E16
// 016   ----------------------------------------
 BYTE   N12  Dn3  v096
 BYTE   W96
// 017   ----------------------------------------
 BYTE   W96
// 018   ----------------------------------------
 BYTE   W96
// 019   ----------------------------------------
 BYTE   W96
// 020   ----------------------------------------
 BYTE   PATT
  POIN2 Label_0_01111DD4
// 021   ----------------------------------------
 BYTE   PATT
  POIN2 Label_0_01111DDD
// 022   ----------------------------------------
 BYTE   W12
 BYTE   N96  Fs3  v096
 BYTE   W84
// 023   ----------------------------------------
 BYTE   PATT
  POIN2 Label_0_01111DEE
// 024   ----------------------------------------
 BYTE   PATT
  POIN2 Label_0_01111DF7
// 025   ----------------------------------------
 BYTE   PATT
  POIN2 Label_0_01111E04
// 026   ----------------------------------------
 BYTE   PATT
  POIN2 Label_0_01111DF7
// 027   ----------------------------------------
 BYTE   PATT
  POIN2 Label_0_01111E16
// 028   ----------------------------------------
 BYTE   PATT
  POIN2 Label_0_01111E26
// 029   ----------------------------------------
 BYTE   PATT
  POIN2 Label_0_01111E04
// 030   ----------------------------------------
 BYTE   PATT
  POIN2 Label_0_01111DF7
// 031   ----------------------------------------
 BYTE   PATT
  POIN2 Label_0_01111E16
// 032   ----------------------------------------
 BYTE   N12  Dn3  v096
 BYTE   W12
 BYTE   En1
 BYTE   N12  En2
 BYTE   W12
 BYTE   Ds1
 BYTE   N12  Ds2
 BYTE   W12
 BYTE   En1
 BYTE   N12  En2
 BYTE   W12
 BYTE   Ds1
 BYTE   N12  Ds2
 BYTE   W12
 BYTE   En1
 BYTE   N12  En2
 BYTE   W12
 BYTE   En1
 BYTE   N12  En2
 BYTE   W12
 BYTE   En1
 BYTE   N12  En2
 BYTE   W12
// 033   ----------------------------------------
 BYTE   En1
 BYTE   N12  En2
 BYTE   W96
// 034   ----------------------------------------
Label_0_01111EAA:
 BYTE   W12
 BYTE   N12  En1  v096
 BYTE   N12  En2
 BYTE   W12
 BYTE   Ds1
 BYTE   N12  Ds2
 BYTE   W12
 BYTE   En1
 BYTE   N12  En2
 BYTE   W12
 BYTE   Ds1
 BYTE   N12  Ds2
 BYTE   W12
 BYTE   En1
 BYTE   N12  En2
 BYTE   W12
 BYTE   En1
 BYTE   N12  En2
 BYTE   W12
 BYTE   En1
 BYTE   N12  En2
 BYTE   W12
 BYTE   PEND 
// 035   ----------------------------------------
 BYTE   En1
 BYTE   N12  En2
 BYTE   W96
// 036   ----------------------------------------
 BYTE   PATT
  POIN2 Label_0_01111EAA
// 037   ----------------------------------------
 BYTE   N12  En1  v096
 BYTE   N12  En2
 BYTE   W96
// 038   ----------------------------------------
 BYTE   PATT
  POIN2 Label_0_01111EAA
// 039   ----------------------------------------
 BYTE   N12  En1  v096
 BYTE   N12  En2
 BYTE   W12
 BYTE   BEND   c_v+0
 BYTE   W84
// 040   ----------------------------------------
 BYTE   W12
 BYTE   GoTo
  POIN2 Label_0_01111DB7
 BYTE   FINE

//**************** Track 2 (Midi-Chn.1) ****************//

SMT_V_Battle_theme_002:
// 000   ----------------------------------------
 BYTE   KEYSH   SMT_V_Battle_theme_key+0
 BYTE   VOICE   30
 BYTE   VOL   58*SMT_V_Battle_theme_mvl/mxv
 BYTE   PAN   c_v+0
 BYTE   W12
Label_1_01111255:
 BYTE   N06  Dn2  v096
 BYTE   W06
 BYTE   N12  En2
 BYTE   W12
 BYTE   N06  Gn2
 BYTE   W06
 BYTE   N12  An2
 BYTE   W12
 BYTE   N06  Gn2
 BYTE   W06
 BYTE   N12  En2
 BYTE   W12
 BYTE   N06  Gn2
 BYTE   W06
 BYTE   N36  An2
 BYTE   W24
// 001   ----------------------------------------
Label_1_0111126E:
 BYTE   W12
 BYTE   N06  Cn2  v096
 BYTE   W06
 BYTE   N12  Dn2
 BYTE   W12
 BYTE   N06  Fs2
 BYTE   W06
 BYTE   N12  Gn2
 BYTE   W12
 BYTE   N06  Fs2
 BYTE   W06
 BYTE   N12  Cn2
 BYTE   W12
 BYTE   N06  Fs2
 BYTE   W06
 BYTE   N36  Gn2
 BYTE   W24
 BYTE   PEND 
// 002   ----------------------------------------
Label_1_01111289:
 BYTE   W12
 BYTE   N06  Dn2  v096
 BYTE   W06
 BYTE   N12  En2
 BYTE   W12
 BYTE   N06  Gn2
 BYTE   W06
 BYTE   N12  An2
 BYTE   W12
 BYTE   N06  Gn2
 BYTE   W06
 BYTE   N12  En2
 BYTE   W12
 BYTE   N06  Gn2
 BYTE   W06
 BYTE   N36  An2
 BYTE   W24
 BYTE   PEND 
// 003   ----------------------------------------
 BYTE   PATT
  POIN2 Label_1_0111126E
// 004   ----------------------------------------
 BYTE   PATT
  POIN2 Label_1_01111289
// 005   ----------------------------------------
 BYTE   PATT
  POIN2 Label_1_0111126E
// 006   ----------------------------------------
 BYTE   PATT
  POIN2 Label_1_01111289
// 007   ----------------------------------------
 BYTE   PATT
  POIN2 Label_1_0111126E
// 008   ----------------------------------------
 BYTE   W12
 BYTE   N96  Bn2  v096
 BYTE   W84
// 009   ----------------------------------------
 BYTE   W12
 BYTE   Cn3
 BYTE   W84
// 010   ----------------------------------------
 BYTE   W12
 BYTE   An2
 BYTE   W84
// 011   ----------------------------------------
 BYTE   W12
 BYTE   Bn2
 BYTE   W84
// 012   ----------------------------------------
 BYTE   W12
 BYTE   N96
 BYTE   W84
// 013   ----------------------------------------
 BYTE   W12
 BYTE   Cn3
 BYTE   W84
// 014   ----------------------------------------
 BYTE   W12
 BYTE   An2
 BYTE   W84
// 015   ----------------------------------------
 BYTE   W12
 BYTE   Bn2
 BYTE   W84
// 016   ----------------------------------------
 BYTE   PATT
  POIN2 Label_1_01111289
// 017   ----------------------------------------
 BYTE   PATT
  POIN2 Label_1_0111126E
// 018   ----------------------------------------
 BYTE   PATT
  POIN2 Label_1_01111289
// 019   ----------------------------------------
 BYTE   PATT
  POIN2 Label_1_0111126E
// 020   ----------------------------------------
 BYTE   PATT
  POIN2 Label_1_01111289
// 021   ----------------------------------------
 BYTE   PATT
  POIN2 Label_1_0111126E
// 022   ----------------------------------------
 BYTE   PATT
  POIN2 Label_1_01111289
// 023   ----------------------------------------
 BYTE   PATT
  POIN2 Label_1_0111126E
// 024   ----------------------------------------
 BYTE   W12
 BYTE   N96  Bn2  v096
 BYTE   W84
// 025   ----------------------------------------
 BYTE   W12
 BYTE   Cn3
 BYTE   W84
// 026   ----------------------------------------
 BYTE   W12
 BYTE   An2
 BYTE   W84
// 027   ----------------------------------------
 BYTE   W12
 BYTE   Bn2
 BYTE   W84
// 028   ----------------------------------------
 BYTE   W12
 BYTE   N96
 BYTE   W84
// 029   ----------------------------------------
 BYTE   W12
 BYTE   Cn3
 BYTE   W84
// 030   ----------------------------------------
 BYTE   W12
 BYTE   An2
 BYTE   W84
// 031   ----------------------------------------
 BYTE   W12
 BYTE   Bn2
 BYTE   W84
// 032   ----------------------------------------
 BYTE   W12
 BYTE   En2
 BYTE   W84
// 033   ----------------------------------------
 BYTE   W12
 BYTE   N96
 BYTE   W84
// 034   ----------------------------------------
 BYTE   W12
 BYTE   N96
 BYTE   W84
// 035   ----------------------------------------
 BYTE   W12
 BYTE   N96
 BYTE   W84
// 036   ----------------------------------------
 BYTE   W12
 BYTE   N96
 BYTE   W84
// 037   ----------------------------------------
 BYTE   W12
 BYTE   N96
 BYTE   W84
// 038   ----------------------------------------
 BYTE   W12
 BYTE   N96
 BYTE   W84
// 039   ----------------------------------------
 BYTE   W12
 BYTE   N96
 BYTE   W84
// 040   ----------------------------------------
 BYTE   W12
 BYTE   GoTo
  POIN2 Label_1_01111255
// 041   ----------------------------------------
 BYTE   BEND   c_v+0
 BYTE   FINE

//**************** Track 3 (Midi-Chn.2) ****************//

SMT_V_Battle_theme_003:
// 000   ----------------------------------------
 BYTE   KEYSH   SMT_V_Battle_theme_key+0
 BYTE   VOICE   39
 BYTE   PAN   c_v+0
 BYTE   VOL   70*SMT_V_Battle_theme_mvl/mxv
 BYTE   PAN   c_v+0
 BYTE   En3  v064
 BYTE   En3  v064
 BYTE   PAN   c_v+0
 BYTE   BEND   c_v+0
 BYTE   W12
Label_2_01112126:
 BYTE   N06  En1  v127
 BYTE   W06
 BYTE   N06
 BYTE   W06
 BYTE   N12
 BYTE   W12
 BYTE   N06
 BYTE   W06
 BYTE   N12
 BYTE   W12
 BYTE   N12
 BYTE   W12
 BYTE   N06
 BYTE   W06
 BYTE   N12
 BYTE   W12
 BYTE   N06
 BYTE   W06
 BYTE   An1
 BYTE   W06
// 001   ----------------------------------------
Label_2_0111213C:
 BYTE   N06  Bn1  v127
 BYTE   W06
 BYTE   En2
 BYTE   W06
 BYTE   Cn1
 BYTE   W06
 BYTE   N06
 BYTE   W06
 BYTE   N12
 BYTE   W12
 BYTE   N06
 BYTE   W06
 BYTE   N12
 BYTE   W12
 BYTE   N12
 BYTE   W12
 BYTE   N06
 BYTE   W06
 BYTE   N12
 BYTE   W12
 BYTE   N06
 BYTE   W06
 BYTE   En1
 BYTE   W06
 BYTE   PEND 
// 002   ----------------------------------------
Label_2_01112157:
 BYTE   N06  Gn1  v127
 BYTE   W06
 BYTE   Cn2
 BYTE   W06
 BYTE   En1
 BYTE   W06
 BYTE   N06
 BYTE   W06
 BYTE   N12
 BYTE   W12
 BYTE   N06
 BYTE   W06
 BYTE   N12
 BYTE   W12
 BYTE   N12
 BYTE   W12
 BYTE   N06
 BYTE   W06
 BYTE   N12
 BYTE   W12
 BYTE   N06
 BYTE   W06
 BYTE   En2
 BYTE   W06
 BYTE   PEND 
// 003   ----------------------------------------
Label_2_01112172:
 BYTE   N06  Dn2  v127
 BYTE   W06
 BYTE   En1
 BYTE   W06
 BYTE   Cn1
 BYTE   W06
 BYTE   N06
 BYTE   W06
 BYTE   N12
 BYTE   W12
 BYTE   N06
 BYTE   W06
 BYTE   N12
 BYTE   W12
 BYTE   N12
 BYTE   W12
 BYTE   N06
 BYTE   W06
 BYTE   N12
 BYTE   W12
 BYTE   N06
 BYTE   W06
 BYTE   En2
 BYTE   W06
 BYTE   PEND 
// 004   ----------------------------------------
Label_2_0111218D:
 BYTE   N06  Dn2  v127
 BYTE   W06
 BYTE   En1
 BYTE   W06
 BYTE   N06
 BYTE   W06
 BYTE   N06
 BYTE   W06
 BYTE   N12
 BYTE   W12
 BYTE   N06
 BYTE   W06
 BYTE   N12
 BYTE   W12
 BYTE   N12
 BYTE   W12
 BYTE   N06
 BYTE   W06
 BYTE   N12
 BYTE   W12
 BYTE   N06
 BYTE   W06
 BYTE   An1
 BYTE   W06
 BYTE   PEND 
// 005   ----------------------------------------
 BYTE   PATT
  POIN2 Label_2_0111213C
// 006   ----------------------------------------
 BYTE   PATT
  POIN2 Label_2_01112157
// 007   ----------------------------------------
 BYTE   PATT
  POIN2 Label_2_01112172
// 008   ----------------------------------------
Label_2_011121B7:
 BYTE   N06  Dn2  v127
 BYTE   W06
 BYTE   En1
 BYTE   W06
 BYTE   N06
 BYTE   W06
 BYTE   N06
 BYTE   W06
 BYTE   N06
 BYTE   W06
 BYTE   N06
 BYTE   W06
 BYTE   N06
 BYTE   W06
 BYTE   N06
 BYTE   W06
 BYTE   N06
 BYTE   W06
 BYTE   N06
 BYTE   W06
 BYTE   N06
 BYTE   W06
 BYTE   N06
 BYTE   W06
 BYTE   N06
 BYTE   W06
 BYTE   N06
 BYTE   W06
 BYTE   N06
 BYTE   W06
 BYTE   Gn1
 BYTE   W06
 BYTE   PEND 
// 009   ----------------------------------------
Label_2_011121DA:
 BYTE   N06  Bn1  v127
 BYTE   W06
 BYTE   En2
 BYTE   W06
 BYTE   En1
 BYTE   W06
 BYTE   N06
 BYTE   W06
 BYTE   N06
 BYTE   W06
 BYTE   N06
 BYTE   W06
 BYTE   N06
 BYTE   W06
 BYTE   N06
 BYTE   W06
 BYTE   N06
 BYTE   W06
 BYTE   N06
 BYTE   W06
 BYTE   N06
 BYTE   W06
 BYTE   N06
 BYTE   W06
 BYTE   N06
 BYTE   W06
 BYTE   N06
 BYTE   W06
 BYTE   N06
 BYTE   W06
 BYTE   En2
 BYTE   W06
 BYTE   PEND 
// 010   ----------------------------------------
 BYTE   PATT
  POIN2 Label_2_011121B7
// 011   ----------------------------------------
 BYTE   PATT
  POIN2 Label_2_011121DA
// 012   ----------------------------------------
 BYTE   PATT
  POIN2 Label_2_011121B7
// 013   ----------------------------------------
 BYTE   PATT
  POIN2 Label_2_011121DA
// 014   ----------------------------------------
 BYTE   PATT
  POIN2 Label_2_011121B7
// 015   ----------------------------------------
 BYTE   PATT
  POIN2 Label_2_011121DA
// 016   ----------------------------------------
 BYTE   PATT
  POIN2 Label_2_0111218D
// 017   ----------------------------------------
 BYTE   PATT
  POIN2 Label_2_0111213C
// 018   ----------------------------------------
 BYTE   PATT
  POIN2 Label_2_01112157
// 019   ----------------------------------------
 BYTE   PATT
  POIN2 Label_2_01112172
// 020   ----------------------------------------
 BYTE   PATT
  POIN2 Label_2_0111218D
// 021   ----------------------------------------
 BYTE   PATT
  POIN2 Label_2_0111213C
// 022   ----------------------------------------
 BYTE   PATT
  POIN2 Label_2_01112157
// 023   ----------------------------------------
 BYTE   PATT
  POIN2 Label_2_01112172
// 024   ----------------------------------------
 BYTE   PATT
  POIN2 Label_2_011121B7
// 025   ----------------------------------------
 BYTE   PATT
  POIN2 Label_2_011121DA
// 026   ----------------------------------------
 BYTE   PATT
  POIN2 Label_2_011121B7
// 027   ----------------------------------------
 BYTE   PATT
  POIN2 Label_2_011121DA
// 028   ----------------------------------------
 BYTE   PATT
  POIN2 Label_2_011121B7
// 029   ----------------------------------------
 BYTE   PATT
  POIN2 Label_2_011121DA
// 030   ----------------------------------------
 BYTE   PATT
  POIN2 Label_2_011121B7
// 031   ----------------------------------------
 BYTE   PATT
  POIN2 Label_2_011121DA
// 032   ----------------------------------------
 BYTE   N06  Dn2  v127
 BYTE   W06
 BYTE   En1
 BYTE   W06
 BYTE   N12
 BYTE   W12
 BYTE   N06
 BYTE   W06
 BYTE   N06
 BYTE   W06
 BYTE   N12
 BYTE   W12
 BYTE   N06
 BYTE   W06
 BYTE   N06
 BYTE   W06
 BYTE   N12
 BYTE   W12
 BYTE   N06
 BYTE   W06
 BYTE   N06
 BYTE   W06
 BYTE   N06
 BYTE   W06
 BYTE   En2
 BYTE   W06
// 033   ----------------------------------------
Label_2_01112287:
 BYTE   N06  Dn2  v127
 BYTE   W06
 BYTE   En1
 BYTE   W06
 BYTE   N12
 BYTE   W12
 BYTE   N06
 BYTE   W06
 BYTE   N06
 BYTE   W06
 BYTE   N12
 BYTE   W12
 BYTE   N06
 BYTE   W06
 BYTE   N06
 BYTE   W06
 BYTE   N12
 BYTE   W12
 BYTE   N06
 BYTE   W06
 BYTE   N06
 BYTE   W06
 BYTE   N12
 BYTE   W12
 BYTE   PEND 
// 034   ----------------------------------------
Label_2_011122A2:
 BYTE   N06  En1  v127
 BYTE   W06
 BYTE   N06
 BYTE   W06
 BYTE   N12
 BYTE   W12
 BYTE   N06
 BYTE   W06
 BYTE   N06
 BYTE   W06
 BYTE   N12
 BYTE   W12
 BYTE   N06
 BYTE   W06
 BYTE   N06
 BYTE   W06
 BYTE   N12
 BYTE   W12
 BYTE   N06
 BYTE   W06
 BYTE   N06
 BYTE   W06
 BYTE   N06
 BYTE   W06
 BYTE   En2
 BYTE   W06
 BYTE   PEND 
// 035   ----------------------------------------
 BYTE   PATT
  POIN2 Label_2_01112287
// 036   ----------------------------------------
 BYTE   PATT
  POIN2 Label_2_011122A2
// 037   ----------------------------------------
 BYTE   PATT
  POIN2 Label_2_01112287
// 038   ----------------------------------------
 BYTE   PATT
  POIN2 Label_2_011122A2
// 039   ----------------------------------------
 BYTE   PATT
  POIN2 Label_2_01112287
// 040   ----------------------------------------
 BYTE   N06  En1  v127
 BYTE   W06
 BYTE   N06
 BYTE   W06
 BYTE   GoTo
  POIN2 Label_2_01112126
 BYTE   FINE

//**************** Track 4 (Midi-Chn.3) ****************//

SMT_V_Battle_theme_004:
// 000   ----------------------------------------
 BYTE   KEYSH   SMT_V_Battle_theme_key+0
 BYTE   VOICE   92
 BYTE   VOL   44*SMT_V_Battle_theme_mvl/mxv
 BYTE   PAN   c_v+0
 BYTE   W12
Label_3_011113ED:
 BYTE   W84
// 001   ----------------------------------------
 BYTE   W96
// 002   ----------------------------------------
 BYTE   W96
// 003   ----------------------------------------
 BYTE   W96
// 004   ----------------------------------------
 BYTE   W96
// 005   ----------------------------------------
 BYTE   W96
// 006   ----------------------------------------
 BYTE   W96
// 007   ----------------------------------------
 BYTE   W96
// 008   ----------------------------------------
Label_3_011113F5:
 BYTE   W12
 BYTE   N96  Fs3  v096
 BYTE   N96  An3
 BYTE   N96  En4
 BYTE   W84
 BYTE   PEND 
// 009   ----------------------------------------
Label_3_011113FF:
 BYTE   W12
 BYTE   N96  Gn3  v096
 BYTE   N96  An3
 BYTE   N96  Dn4
 BYTE   W84
 BYTE   PEND 
// 010   ----------------------------------------
 BYTE   PATT
  POIN2 Label_3_011113F5
// 011   ----------------------------------------
 BYTE   PATT
  POIN2 Label_3_011113FF
// 012   ----------------------------------------
 BYTE   PATT
  POIN2 Label_3_011113F5
// 013   ----------------------------------------
 BYTE   PATT
  POIN2 Label_3_011113FF
// 014   ----------------------------------------
 BYTE   PATT
  POIN2 Label_3_011113F5
// 015   ----------------------------------------
 BYTE   PATT
  POIN2 Label_3_011113FF
// 016   ----------------------------------------
 BYTE   W96
// 017   ----------------------------------------
 BYTE   W96
// 018   ----------------------------------------
 BYTE   W96
// 019   ----------------------------------------
 BYTE   W96
// 020   ----------------------------------------
 BYTE   W96
// 021   ----------------------------------------
 BYTE   W96
// 022   ----------------------------------------
 BYTE   W96
// 023   ----------------------------------------
 BYTE   W96
// 024   ----------------------------------------
 BYTE   PATT
  POIN2 Label_3_011113F5
// 025   ----------------------------------------
 BYTE   PATT
  POIN2 Label_3_011113FF
// 026   ----------------------------------------
 BYTE   PATT
  POIN2 Label_3_011113F5
// 027   ----------------------------------------
 BYTE   PATT
  POIN2 Label_3_011113FF
// 028   ----------------------------------------
 BYTE   PATT
  POIN2 Label_3_011113F5
// 029   ----------------------------------------
 BYTE   PATT
  POIN2 Label_3_011113FF
// 030   ----------------------------------------
 BYTE   PATT
  POIN2 Label_3_011113F5
// 031   ----------------------------------------
 BYTE   PATT
  POIN2 Label_3_011113FF
// 032   ----------------------------------------
 BYTE   W12
 BYTE   BEND   c_v+0
 BYTE   W84
// 033   ----------------------------------------
 BYTE   W96
// 034   ----------------------------------------
 BYTE   W96
// 035   ----------------------------------------
 BYTE   W96
// 036   ----------------------------------------
 BYTE   W96
// 037   ----------------------------------------
 BYTE   W96
// 038   ----------------------------------------
 BYTE   W96
// 039   ----------------------------------------
 BYTE   W96
// 040   ----------------------------------------
 BYTE   W12
 BYTE   GoTo
  POIN2 Label_3_011113ED
 BYTE   FINE

//**************** Track 5 (Midi-Chn.4) ****************//

SMT_V_Battle_theme_005:
// 000   ----------------------------------------
 BYTE   KEYSH   SMT_V_Battle_theme_key+0
 BYTE   VOICE   100
 BYTE   VOL   49*SMT_V_Battle_theme_mvl/mxv
 BYTE   PAN   c_v+0
 BYTE   En3  v064
 BYTE   En3  v064
 BYTE   En3  v064
 BYTE   BEND   c_v+0
 BYTE   W12
Label_4_01110D11:
 BYTE   W84
// 001   ----------------------------------------
 BYTE   W96
// 002   ----------------------------------------
 BYTE   W96
// 003   ----------------------------------------
 BYTE   W96
// 004   ----------------------------------------
 BYTE   W96
// 005   ----------------------------------------
 BYTE   W96
// 006   ----------------------------------------
 BYTE   W96
// 007   ----------------------------------------
 BYTE   W96
// 008   ----------------------------------------
Label_4_01110D19:
 BYTE   W12
 BYTE   N96  Fs3  v096
 BYTE   N96  An3
 BYTE   N96  En4
 BYTE   W84
 BYTE   PEND 
// 009   ----------------------------------------
Label_4_01110D23:
 BYTE   W12
 BYTE   N96  Gn3  v096
 BYTE   N96  An3
 BYTE   N96  Dn4
 BYTE   W84
 BYTE   PEND 
// 010   ----------------------------------------
 BYTE   PATT
  POIN2 Label_4_01110D19
// 011   ----------------------------------------
 BYTE   PATT
  POIN2 Label_4_01110D23
// 012   ----------------------------------------
 BYTE   PATT
  POIN2 Label_4_01110D19
// 013   ----------------------------------------
 BYTE   PATT
  POIN2 Label_4_01110D23
// 014   ----------------------------------------
 BYTE   PATT
  POIN2 Label_4_01110D19
// 015   ----------------------------------------
 BYTE   PATT
  POIN2 Label_4_01110D23
// 016   ----------------------------------------
 BYTE   W96
// 017   ----------------------------------------
 BYTE   W96
// 018   ----------------------------------------
 BYTE   W96
// 019   ----------------------------------------
 BYTE   W96
// 020   ----------------------------------------
 BYTE   W96
// 021   ----------------------------------------
 BYTE   W96
// 022   ----------------------------------------
 BYTE   W96
// 023   ----------------------------------------
 BYTE   W96
// 024   ----------------------------------------
 BYTE   PATT
  POIN2 Label_4_01110D19
// 025   ----------------------------------------
 BYTE   PATT
  POIN2 Label_4_01110D23
// 026   ----------------------------------------
 BYTE   PATT
  POIN2 Label_4_01110D19
// 027   ----------------------------------------
 BYTE   PATT
  POIN2 Label_4_01110D23
// 028   ----------------------------------------
 BYTE   PATT
  POIN2 Label_4_01110D19
// 029   ----------------------------------------
 BYTE   PATT
  POIN2 Label_4_01110D23
// 030   ----------------------------------------
 BYTE   PATT
  POIN2 Label_4_01110D19
// 031   ----------------------------------------
 BYTE   PATT
  POIN2 Label_4_01110D23
// 032   ----------------------------------------
 BYTE   W96
// 033   ----------------------------------------
 BYTE   W96
// 034   ----------------------------------------
 BYTE   W96
// 035   ----------------------------------------
 BYTE   W96
// 036   ----------------------------------------
 BYTE   W96
// 037   ----------------------------------------
 BYTE   W96
// 038   ----------------------------------------
 BYTE   W96
// 039   ----------------------------------------
 BYTE   W96
// 040   ----------------------------------------
 BYTE   W12
 BYTE   GoTo
  POIN2 Label_4_01110D11
 BYTE   FINE

//**************** Track 6 (Midi-Chn.5) ****************//

SMT_V_Battle_theme_006:
// 000   ----------------------------------------
 BYTE   KEYSH   SMT_V_Battle_theme_key+0
 BYTE   VOICE   2
 BYTE   PAN   c_v+0
 BYTE   VOL   57*SMT_V_Battle_theme_mvl/mxv
 BYTE   W12
Label_5_0111248D:
 BYTE   N96  En3  v096
 BYTE   W84
// 001   ----------------------------------------
 BYTE   W12
 BYTE   N72  Dn3
 BYTE   W72
 BYTE   N24  Gn2
 BYTE   W12
// 002   ----------------------------------------
 BYTE   W12
 BYTE   N36  An2
 BYTE   W36
 BYTE   TIE  Bn2
 BYTE   W48
// 003   ----------------------------------------
 BYTE   W84
 BYTE   EOT
 BYTE   N24  Gs2
 BYTE   W12
// 004   ----------------------------------------
 BYTE   W12
 BYTE   N96  En3
 BYTE   W84
// 005   ----------------------------------------
Label_5_011124A8:
 BYTE   W12
 BYTE   N72  Dn3  v096
 BYTE   W72
 BYTE   N24  An2
 BYTE   W12
 BYTE   PEND 
// 006   ----------------------------------------
 BYTE   W12
 BYTE   N96  Fs3
 BYTE   W84
// 007   ----------------------------------------
Label_5_011124B5:
 BYTE   W12
 BYTE   N24  Bn3  v096
 BYTE   W24
 BYTE   N72  En3
 BYTE   W60
 BYTE   PEND 
// 008   ----------------------------------------
 BYTE   W96
// 009   ----------------------------------------
 BYTE   W96
// 010   ----------------------------------------
 BYTE   W96
// 011   ----------------------------------------
 BYTE   W96
// 012   ----------------------------------------
 BYTE   W96
// 013   ----------------------------------------
 BYTE   W96
// 014   ----------------------------------------
 BYTE   W96
// 015   ----------------------------------------
 BYTE   W96
// 016   ----------------------------------------
 BYTE   W12
 BYTE   N60  An3
 BYTE   W60
 BYTE   N18
 BYTE   W18
 BYTE   N12  Gn3
 BYTE   W06
// 017   ----------------------------------------
 BYTE   W06
 BYTE   N06  Fs3
 BYTE   W06
 BYTE   N60
 BYTE   W60
 BYTE   N18  Gn3
 BYTE   W18
 BYTE   Fs3
 BYTE   W06
// 018   ----------------------------------------
 BYTE   W12
 BYTE   N36  Dn3
 BYTE   W36
 BYTE   N24  Ds3
 BYTE   W24
 BYTE   N18  An2
 BYTE   W18
 BYTE   Dn3
 BYTE   W06
// 019   ----------------------------------------
 BYTE   W12
 BYTE   N48  Ds3
 BYTE   W48
 BYTE   N18  Dn3
 BYTE   W18
 BYTE   Cn3
 BYTE   W18
// 020   ----------------------------------------
 BYTE   N12  Bn2
 BYTE   W12
 BYTE   N96  En3
 BYTE   W84
// 021   ----------------------------------------
 BYTE   PATT
  POIN2 Label_5_011124A8
// 022   ----------------------------------------
 BYTE   W12
 BYTE   N96  Fs3  v096
 BYTE   W84
// 023   ----------------------------------------
 BYTE   PATT
  POIN2 Label_5_011124B5
// 024   ----------------------------------------
 BYTE   W12
 BYTE   BEND   c_v+0
 BYTE   W84
// 025   ----------------------------------------
 BYTE   W96
// 026   ----------------------------------------
 BYTE   W96
// 027   ----------------------------------------
 BYTE   W96
// 028   ----------------------------------------
 BYTE   W96
// 029   ----------------------------------------
 BYTE   W96
// 030   ----------------------------------------
 BYTE   W96
// 031   ----------------------------------------
 BYTE   W96
// 032   ----------------------------------------
 BYTE   W96
// 033   ----------------------------------------
 BYTE   W96
// 034   ----------------------------------------
 BYTE   W96
// 035   ----------------------------------------
 BYTE   W96
// 036   ----------------------------------------
 BYTE   W96
// 037   ----------------------------------------
 BYTE   W96
// 038   ----------------------------------------
 BYTE   W96
// 039   ----------------------------------------
 BYTE   W96
// 040   ----------------------------------------
 BYTE   W12
 BYTE   GoTo
  POIN2 Label_5_0111248D
 BYTE   FINE

//**************** Track 7 (Midi-Chn.6) ****************//

SMT_V_Battle_theme_007:
// 000   ----------------------------------------
 BYTE   KEYSH   SMT_V_Battle_theme_key+0
 BYTE   VOICE   124
 BYTE   VOL   55*SMT_V_Battle_theme_mvl/mxv
 BYTE   PAN   c_v+0
 BYTE   N06  Cn1  v096
 BYTE   N06  Dn1
 BYTE   N06  As1
 BYTE   W12
Label_6_01112608:
 BYTE   N06  Cn1  v096
 BYTE   N06  Cs2
 BYTE   W12
 BYTE   Dn1
 BYTE   N06  Fs1  v080
 BYTE   W12
 BYTE   Cn1  v096
 BYTE   N06  Fs1  v080
 BYTE   W06
 BYTE   Cn1  v096
 BYTE   N06  As1
 BYTE   W06
 BYTE   Dn1
 BYTE   W06
 BYTE   Cn1
 BYTE   N06  Fs1  v080
 BYTE   W12
 BYTE   Cn1  v096
 BYTE   N06  Fs1  v080
 BYTE   W06
 BYTE   Dn1  v096
 BYTE   N06  Fs1  v080
 BYTE   W12
 BYTE   Cn1  v096
 BYTE   N06  Fs1  v080
 BYTE   W06
 BYTE   Cn1  v096
 BYTE   N06  As1
 BYTE   W06
// 001   ----------------------------------------
Label_6_0111263C:
 BYTE   N06  Dn1  v096
 BYTE   W06
 BYTE   Cn1
 BYTE   N06  Fs1  v080
 BYTE   W06
 BYTE   Cn1  v096
 BYTE   N06  Fs1  v080
 BYTE   W12
 BYTE   Dn1  v096
 BYTE   N06  Fs1  v080
 BYTE   W12
 BYTE   Cn1  v096
 BYTE   N06  Fs1  v080
 BYTE   W06
 BYTE   Cn1  v096
 BYTE   N06  As1
 BYTE   W06
 BYTE   Dn1
 BYTE   W06
 BYTE   Cn1
 BYTE   N06  Fs1  v080
 BYTE   W12
 BYTE   Cn1  v096
 BYTE   N06  Fs1  v080
 BYTE   W06
 BYTE   Dn1  v096
 BYTE   N06  Fs1  v080
 BYTE   W12
 BYTE   Cn1  v096
 BYTE   N06  Fs1  v080
 BYTE   W06
 BYTE   Dn1  v096
 BYTE   N06  Dn2
 BYTE   W06
 BYTE   PEND 
// 002   ----------------------------------------
Label_6_0111267B:
 BYTE   N06  Cn2  v096
 BYTE   W06
 BYTE   An1
 BYTE   W06
 BYTE   Cn1
 BYTE   N06  Cs2
 BYTE   W12
 BYTE   Dn1
 BYTE   N06  Fs1  v080
 BYTE   W12
 BYTE   Cn1  v096
 BYTE   N06  Fs1  v080
 BYTE   W06
 BYTE   Cn1  v096
 BYTE   N06  As1
 BYTE   W06
 BYTE   Dn1
 BYTE   W06
 BYTE   Cn1
 BYTE   N06  Fs1  v080
 BYTE   W12
 BYTE   Cn1  v096
 BYTE   N06  Fs1  v080
 BYTE   W06
 BYTE   Dn1  v096
 BYTE   N06  Fs1  v080
 BYTE   W12
 BYTE   Cn1  v096
 BYTE   N06  Fs1  v080
 BYTE   W06
 BYTE   Cn1  v096
 BYTE   N06  As1
 BYTE   W06
 BYTE   PEND 
// 003   ----------------------------------------
Label_6_011126B4:
 BYTE   N06  Dn1  v096
 BYTE   W06
 BYTE   Cn1
 BYTE   N06  Fs1  v080
 BYTE   W06
 BYTE   Cn1  v096
 BYTE   N06  Fs1  v080
 BYTE   W12
 BYTE   Dn1  v096
 BYTE   N06  Fs1  v080
 BYTE   W12
 BYTE   Cn1  v096
 BYTE   N06  Fs1  v080
 BYTE   W06
 BYTE   Cn1  v096
 BYTE   N06  As1
 BYTE   W06
 BYTE   Dn1
 BYTE   W06
 BYTE   Cn1
 BYTE   N06  Fs1  v080
 BYTE   W06
 BYTE   An2  v096
 BYTE   W06
 BYTE   Cn1
 BYTE   W06
 BYTE   Dn1
 BYTE   W06
 BYTE   Cs2
 BYTE   W06
 BYTE   Cn1
 BYTE   W06
 BYTE   N06
 BYTE   W06
 BYTE   PEND 
// 004   ----------------------------------------
Label_6_011126E9:
 BYTE   N06  Dn1  v096
 BYTE   N06  An2
 BYTE   W12
 BYTE   Cn1
 BYTE   N06  Cs2
 BYTE   W12
 BYTE   Dn1
 BYTE   N06  Fs1  v080
 BYTE   W12
 BYTE   Cn1  v096
 BYTE   N06  Fs1  v080
 BYTE   W06
 BYTE   Cn1  v096
 BYTE   N06  As1
 BYTE   W06
 BYTE   Dn1
 BYTE   W06
 BYTE   Cn1
 BYTE   N06  Fs1  v080
 BYTE   W12
 BYTE   Cn1  v096
 BYTE   N06  Fs1  v080
 BYTE   W06
 BYTE   Dn1  v096
 BYTE   N06  Fs1  v080
 BYTE   W12
 BYTE   Cn1  v096
 BYTE   N06  Fs1  v080
 BYTE   W06
 BYTE   Cn1  v096
 BYTE   N06  As1
 BYTE   W06
 BYTE   PEND 
// 005   ----------------------------------------
 BYTE   PATT
  POIN2 Label_6_0111263C
// 006   ----------------------------------------
 BYTE   PATT
  POIN2 Label_6_0111267B
// 007   ----------------------------------------
 BYTE   PATT
  POIN2 Label_6_011126B4
// 008   ----------------------------------------
Label_6_01112731:
 BYTE   N06  Dn1  v096
 BYTE   N06  An2
 BYTE   W12
 BYTE   Cn1
 BYTE   W12
 BYTE   N06
 BYTE   W12
 BYTE   N06
 BYTE   W12
 BYTE   N06
 BYTE   W12
 BYTE   N06
 BYTE   W12
 BYTE   N06
 BYTE   W12
 BYTE   N06
 BYTE   W12
 BYTE   PEND 
// 009   ----------------------------------------
Label_6_01112746:
 BYTE   N06  Cn1  v096
 BYTE   W12
 BYTE   N06
 BYTE   W12
 BYTE   N06
 BYTE   W12
 BYTE   N06
 BYTE   W12
 BYTE   N06
 BYTE   W12
 BYTE   N06
 BYTE   W12
 BYTE   N06
 BYTE   W12
 BYTE   N06
 BYTE   W12
 BYTE   PEND 
// 010   ----------------------------------------
 BYTE   PATT
  POIN2 Label_6_01112746
// 011   ----------------------------------------
 BYTE   PATT
  POIN2 Label_6_01112746
// 012   ----------------------------------------
Label_6_01112763:
 BYTE   N06  Cn1  v096
 BYTE   W12
 BYTE   N06
 BYTE   N06  Cs2
 BYTE   W12
 BYTE   Fs1  v080
 BYTE   W06
 BYTE   Cn1  v096
 BYTE   N06  Gs1  v080
 BYTE   W06
 BYTE   Dn1  v096
 BYTE   N06  Fs1  v080
 BYTE   W06
 BYTE   Gs1
 BYTE   W06
 BYTE   Cn1  v096
 BYTE   N06  Fs1  v080
 BYTE   W06
 BYTE   Dn1  v096
 BYTE   N06  Gs1  v080
 BYTE   W06
 BYTE   Fs1
 BYTE   W06
 BYTE   Dn1  v096
 BYTE   N06  Gs1  v080
 BYTE   W06
 BYTE   Cn1  v096
 BYTE   N06  Fs1  v080
 BYTE   W06
 BYTE   Cn1  v096
 BYTE   N06  Gs1  v080
 BYTE   W06
 BYTE   Dn1  v096
 BYTE   N06  Fs1  v080
 BYTE   W06
 BYTE   Cn1  v096
 BYTE   N06  Gs1  v080
 BYTE   W06
 BYTE   PEND 
// 013   ----------------------------------------
Label_6_011127A9:
 BYTE   N06  Cn1  v096
 BYTE   N06  Fs1  v080
 BYTE   W06
 BYTE   Dn1  v096
 BYTE   N06  Gs1  v080
 BYTE   W06
 BYTE   Cn1  v096
 BYTE   N06  Fs1  v080
 BYTE   W06
 BYTE   Cn1  v096
 BYTE   N06  Gs1  v080
 BYTE   W06
 BYTE   Fs1
 BYTE   W06
 BYTE   Cn1  v096
 BYTE   N06  Gs1  v080
 BYTE   W06
 BYTE   Dn1  v096
 BYTE   N06  Fs1  v080
 BYTE   W06
 BYTE   Cn1  v096
 BYTE   N06  Gs1  v080
 BYTE   W06
 BYTE   Cn1  v096
 BYTE   N06  Fs1  v080
 BYTE   W06
 BYTE   Dn1  v096
 BYTE   N06  Gs1  v080
 BYTE   W06
 BYTE   Fs1
 BYTE   W06
 BYTE   Dn1  v096
 BYTE   N06  Gs1  v080
 BYTE   W06
 BYTE   Cn1  v096
 BYTE   N06  Fs1  v080
 BYTE   W06
 BYTE   Cn1  v096
 BYTE   N06  Gs1  v080
 BYTE   W06
 BYTE   Dn1  v096
 BYTE   N06  Fs1  v080
 BYTE   W06
 BYTE   Cn1  v096
 BYTE   N06  Gs1  v080
 BYTE   W06
 BYTE   PEND 
// 014   ----------------------------------------
Label_6_01112803:
 BYTE   N06  Cn1  v096
 BYTE   N06  Fs1  v080
 BYTE   W06
 BYTE   Dn1  v096
 BYTE   N06  Gs1  v080
 BYTE   W06
 BYTE   Cn1  v096
 BYTE   N06  Cs2
 BYTE   W06
 BYTE   Cn1
 BYTE   W06
 BYTE   Fs1  v080
 BYTE   W06
 BYTE   Cn1  v096
 BYTE   N06  Gs1  v080
 BYTE   W06
 BYTE   Dn1  v096
 BYTE   N06  Fs1  v080
 BYTE   W06
 BYTE   Gs1
 BYTE   W06
 BYTE   Cn1  v096
 BYTE   N06  Fs1  v080
 BYTE   W06
 BYTE   Dn1  v096
 BYTE   N06  Gs1  v080
 BYTE   W06
 BYTE   Fs1
 BYTE   W06
 BYTE   Dn1  v096
 BYTE   N06  Gs1  v080
 BYTE   W06
 BYTE   Cn1  v096
 BYTE   N06  Fs1  v080
 BYTE   W06
 BYTE   Cn1  v096
 BYTE   N06  Gs1  v080
 BYTE   W06
 BYTE   Dn1  v096
 BYTE   N06  Fs1  v080
 BYTE   W06
 BYTE   Cn1  v096
 BYTE   N06  Gs1  v080
 BYTE   W06
 BYTE   PEND 
// 015   ----------------------------------------
Label_6_01112855:
 BYTE   N06  Cn1  v096
 BYTE   N06  Fs1  v080
 BYTE   W06
 BYTE   Dn1  v096
 BYTE   N06  Gs1  v080
 BYTE   W06
 BYTE   Dn1  v056
 BYTE   N06  Cs2  v096
 BYTE   W12
 BYTE   Dn1  v064
 BYTE   W12
 BYTE   Dn1  v072
 BYTE   W12
 BYTE   Dn1  v080
 BYTE   W12
 BYTE   Dn1  v084
 BYTE   W06
 BYTE   Dn1  v088
 BYTE   W06
 BYTE   Dn1  v092
 BYTE   W06
 BYTE   Dn1  v096
 BYTE   W06
 BYTE   N03
 BYTE   W03
 BYTE   N03
 BYTE   W03
 BYTE   N03
 BYTE   W03
 BYTE   N03
 BYTE   W03
 BYTE   PEND 
// 016   ----------------------------------------
 BYTE   N03
 BYTE   W03
 BYTE   N03
 BYTE   W03
 BYTE   N03
 BYTE   W03
 BYTE   N03
 BYTE   W03
 BYTE   N06  Cn1
 BYTE   N06  Cs2
 BYTE   W12
 BYTE   Dn1
 BYTE   N06  Fs1  v080
 BYTE   W12
 BYTE   Cn1  v096
 BYTE   N06  Fs1  v080
 BYTE   W06
 BYTE   Cn1  v096
 BYTE   N06  As1
 BYTE   W06
 BYTE   Dn1
 BYTE   W06
 BYTE   Cn1
 BYTE   N06  Fs1  v080
 BYTE   W12
 BYTE   Cn1  v096
 BYTE   N06  Fs1  v080
 BYTE   W06
 BYTE   Dn1  v096
 BYTE   N06  Fs1  v080
 BYTE   W12
 BYTE   Cn1  v096
 BYTE   N06  Fs1  v080
 BYTE   W06
 BYTE   Cn1  v096
 BYTE   N06  As1
 BYTE   W06
// 017   ----------------------------------------
 BYTE   PATT
  POIN2 Label_6_0111263C
// 018   ----------------------------------------
 BYTE   PATT
  POIN2 Label_6_0111267B
// 019   ----------------------------------------
 BYTE   PATT
  POIN2 Label_6_011126B4
// 020   ----------------------------------------
 BYTE   PATT
  POIN2 Label_6_011126E9
// 021   ----------------------------------------
 BYTE   PATT
  POIN2 Label_6_0111263C
// 022   ----------------------------------------
 BYTE   PATT
  POIN2 Label_6_0111267B
// 023   ----------------------------------------
 BYTE   PATT
  POIN2 Label_6_011126B4
// 024   ----------------------------------------
 BYTE   PATT
  POIN2 Label_6_01112731
// 025   ----------------------------------------
 BYTE   PATT
  POIN2 Label_6_01112746
// 026   ----------------------------------------
 BYTE   PATT
  POIN2 Label_6_01112746
// 027   ----------------------------------------
 BYTE   PATT
  POIN2 Label_6_01112746
// 028   ----------------------------------------
 BYTE   PATT
  POIN2 Label_6_01112763
// 029   ----------------------------------------
 BYTE   PATT
  POIN2 Label_6_011127A9
// 030   ----------------------------------------
 BYTE   PATT
  POIN2 Label_6_01112803
// 031   ----------------------------------------
 BYTE   PATT
  POIN2 Label_6_01112855
// 032   ----------------------------------------
 BYTE   N03  Dn1  v096
 BYTE   W03
 BYTE   N03
 BYTE   W03
 BYTE   N03
 BYTE   W03
 BYTE   N03
 BYTE   W03
 BYTE   N06  Cn1
 BYTE   W24
 BYTE   N06
 BYTE   W24
 BYTE   N06
 BYTE   W24
 BYTE   N06
 BYTE   W12
// 033   ----------------------------------------
Label_6_0111291F:
 BYTE   W12
 BYTE   N06  Cn1  v096
 BYTE   W24
 BYTE   N06
 BYTE   W24
 BYTE   N06
 BYTE   W24
 BYTE   N06
 BYTE   W12
 BYTE   PEND 
// 034   ----------------------------------------
 BYTE   PATT
  POIN2 Label_6_0111291F
// 035   ----------------------------------------
 BYTE   PATT
  POIN2 Label_6_0111291F
// 036   ----------------------------------------
 BYTE   PATT
  POIN2 Label_6_0111291F
// 037   ----------------------------------------
 BYTE   PATT
  POIN2 Label_6_0111291F
// 038   ----------------------------------------
 BYTE   PATT
  POIN2 Label_6_0111291F
// 039   ----------------------------------------
 BYTE   W12
 BYTE   N06  Cn1  v096
 BYTE   W24
 BYTE   N06
 BYTE   W24
 BYTE   N06
 BYTE   W24
 BYTE   Dn1
 BYTE   W06
 BYTE   Cn1
 BYTE   W06
// 040   ----------------------------------------
 BYTE   N06
 BYTE   N06  Dn1
 BYTE   N06  As1
 BYTE   W06
 BYTE   BEND   c_v+0
 BYTE   W06
 BYTE   GoTo
  POIN2 Label_6_01112608
 BYTE   FINE

//**************** Track 8 (Midi-Chn.7) ****************//

SMT_V_Battle_theme_008:
// 000   ----------------------------------------
 BYTE   KEYSH   SMT_V_Battle_theme_key+0
 BYTE   VOICE   48
 BYTE   PAN   c_v-17
 BYTE   VOL   62*SMT_V_Battle_theme_mvl/mxv
 BYTE   W12
Label_7_01111085:
 BYTE   N78  En3  v096
 BYTE   W78
 BYTE   N06  Fn3
 BYTE   W06
// 001   ----------------------------------------
 BYTE   Fs3
 BYTE   W06
 BYTE   Gn3
 BYTE   W06
 BYTE   N72  Dn3
 BYTE   W72
 BYTE   N24  Gn2
 BYTE   W12
// 002   ----------------------------------------
 BYTE   W12
 BYTE   N36  An2
 BYTE   W36
 BYTE   TIE  Bn2
 BYTE   W48
// 003   ----------------------------------------
 BYTE   W84
 BYTE   EOT
 BYTE   N24  Gs2
 BYTE   W12
// 004   ----------------------------------------
Label_7_011110A2:
 BYTE   W12
 BYTE   N78  En3  v096
 BYTE   W78
 BYTE   N06  Fn3
 BYTE   W06
 BYTE   PEND 
// 005   ----------------------------------------
Label_7_011110AB:
 BYTE   N06  Fs3  v096
 BYTE   W06
 BYTE   Gn3
 BYTE   W06
 BYTE   N72  Dn3
 BYTE   W72
 BYTE   N24  An2
 BYTE   W12
 BYTE   PEND 
// 006   ----------------------------------------
 BYTE   W12
 BYTE   N96  Fs3
 BYTE   W84
// 007   ----------------------------------------
Label_7_011110BC:
 BYTE   W12
 BYTE   N24  Bn3  v096
 BYTE   W24
 BYTE   N72  En3
 BYTE   W60
 BYTE   PEND 
// 008   ----------------------------------------
Label_7_011110C5:
 BYTE   W24
 BYTE   N12  Bn2  v096
 BYTE   W12
 BYTE   En3
 BYTE   W12
 BYTE   Fs3
 BYTE   W12
 BYTE   N60  Dn3
 BYTE   W36
 BYTE   PEND 
// 009   ----------------------------------------
Label_7_011110D2:
 BYTE   W24
 BYTE   N12  Bn2  v096
 BYTE   W12
 BYTE   En3
 BYTE   W12
 BYTE   Bn2
 BYTE   W12
 BYTE   N60  Dn3
 BYTE   W36
 BYTE   PEND 
// 010   ----------------------------------------
 BYTE   PATT
  POIN2 Label_7_011110C5
// 011   ----------------------------------------
Label_7_011110E4:
 BYTE   W24
 BYTE   N12  En3  v096
 BYTE   W12
 BYTE   Fs3
 BYTE   W12
 BYTE   Dn3
 BYTE   W12
 BYTE   En3
 BYTE   W12
 BYTE   Bn3
 BYTE   W12
 BYTE   An3
 BYTE   W12
 BYTE   PEND 
// 012   ----------------------------------------
Label_7_011110F4:
 BYTE   N12  Dn3  v096
 BYTE   W24
 BYTE   Bn2
 BYTE   W12
 BYTE   En3
 BYTE   W12
 BYTE   Fs3
 BYTE   W12
 BYTE   N60  Dn3
 BYTE   W36
 BYTE   PEND 
// 013   ----------------------------------------
 BYTE   PATT
  POIN2 Label_7_011110D2
// 014   ----------------------------------------
 BYTE   PATT
  POIN2 Label_7_011110C5
// 015   ----------------------------------------
 BYTE   PATT
  POIN2 Label_7_011110E4
// 016   ----------------------------------------
 BYTE   N12  Dn3  v096
 BYTE   W96
// 017   ----------------------------------------
 BYTE   W96
// 018   ----------------------------------------
 BYTE   W96
// 019   ----------------------------------------
 BYTE   W96
// 020   ----------------------------------------
 BYTE   PATT
  POIN2 Label_7_011110A2
// 021   ----------------------------------------
 BYTE   PATT
  POIN2 Label_7_011110AB
// 022   ----------------------------------------
 BYTE   W12
 BYTE   N96  Fs3  v096
 BYTE   W84
// 023   ----------------------------------------
 BYTE   PATT
  POIN2 Label_7_011110BC
// 024   ----------------------------------------
 BYTE   PATT
  POIN2 Label_7_011110C5
// 025   ----------------------------------------
 BYTE   PATT
  POIN2 Label_7_011110D2
// 026   ----------------------------------------
 BYTE   PATT
  POIN2 Label_7_011110C5
// 027   ----------------------------------------
 BYTE   PATT
  POIN2 Label_7_011110E4
// 028   ----------------------------------------
 BYTE   PATT
  POIN2 Label_7_011110F4
// 029   ----------------------------------------
 BYTE   PATT
  POIN2 Label_7_011110D2
// 030   ----------------------------------------
 BYTE   PATT
  POIN2 Label_7_011110C5
// 031   ----------------------------------------
 BYTE   PATT
  POIN2 Label_7_011110E4
// 032   ----------------------------------------
 BYTE   N12  Dn3  v096
 BYTE   W12
 BYTE   En1
 BYTE   N12  En2
 BYTE   W12
 BYTE   Ds1
 BYTE   N12  Ds2
 BYTE   W12
 BYTE   En1
 BYTE   N12  En2
 BYTE   W12
 BYTE   Ds1
 BYTE   N12  Ds2
 BYTE   W12
 BYTE   En1
 BYTE   N12  En2
 BYTE   W12
 BYTE   En1
 BYTE   N12  En2
 BYTE   W12
 BYTE   En1
 BYTE   N12  En2
 BYTE   W12
// 033   ----------------------------------------
 BYTE   En1
 BYTE   N12  En2
 BYTE   W96
// 034   ----------------------------------------
Label_7_01111178:
 BYTE   W12
 BYTE   N12  En1  v096
 BYTE   N12  En2
 BYTE   W12
 BYTE   Ds1
 BYTE   N12  Ds2
 BYTE   W12
 BYTE   En1
 BYTE   N12  En2
 BYTE   W12
 BYTE   Ds1
 BYTE   N12  Ds2
 BYTE   W12
 BYTE   En1
 BYTE   N12  En2
 BYTE   W12
 BYTE   En1
 BYTE   N12  En2
 BYTE   W12
 BYTE   En1
 BYTE   N12  En2
 BYTE   W12
 BYTE   PEND 
// 035   ----------------------------------------
 BYTE   En1
 BYTE   N12  En2
 BYTE   W96
// 036   ----------------------------------------
 BYTE   PATT
  POIN2 Label_7_01111178
// 037   ----------------------------------------
 BYTE   N12  En1  v096
 BYTE   N12  En2
 BYTE   W96
// 038   ----------------------------------------
 BYTE   PATT
  POIN2 Label_7_01111178
// 039   ----------------------------------------
 BYTE   N12  En1  v096
 BYTE   N12  En2
 BYTE   W12
 BYTE   BEND   c_v+0
 BYTE   W84
// 040   ----------------------------------------
 BYTE   W12
 BYTE   GoTo
  POIN2 Label_7_01111085
 BYTE   FINE

//******************************************************//
	ALIGN 4

SMT_V_Battle_theme:
	BYTE	8	// NumTrks
	BYTE	0	// NumBlks
	BYTE	SMT_V_Battle_theme_pri	// Priority
	BYTE	SMT_V_Battle_theme_rev	// Reverb.
    
	POIN2	SMT_V_Battle_theme_grp
    
	POIN2	SMT_V_Battle_theme_001
	POIN2	SMT_V_Battle_theme_002
	POIN2	SMT_V_Battle_theme_003
	POIN2	SMT_V_Battle_theme_004
	POIN2	SMT_V_Battle_theme_005
	POIN2	SMT_V_Battle_theme_006
	POIN2	SMT_V_Battle_theme_007
	POIN2	SMT_V_Battle_theme_008

	
