//Event file generated from Sappy .s format.
	#include "MPlayDef.event"

	#define	SMTLevelUp_grp  voicegroup000
	#define	SMTLevelUp_pri  0
	#define	SMTLevelUp_rev  0
	#define	SMTLevelUp_mvl  127
	#define	SMTLevelUp_key  0
	#define	SMTLevelUp_tbs  1
	#define	SMTLevelUp_exg  0
	#define	SMTLevelUp_cmp  1

	// .rodata
	//	SMTLevelUp
	ALIGN 4


//**************** Track 1 (Midi-Chn.0) ****************//

SMTLevelUp_001:
//  #01 //000   ----------------------------------------
 BYTE   KEYSH   SMTLevelUp_key+0
 BYTE   TEMPO   124*SMTLevelUp_tbs/2
 BYTE   VOICE   30
 BYTE   PAN   c_v-18
 BYTE   VOL   22*SMTLevelUp_mvl/mxv
 BYTE   W42
 BYTE   N06  Fs1  v127
 BYTE   N06  Cs2
 BYTE   W06
 BYTE   N90  Gs1
 BYTE   N90  Ds2
 BYTE   W48
//  #01 //001   ----------------------------------------
Label_01013F0A:
 BYTE   W42
 BYTE   N06  As1  v127
 BYTE   N06  Fn2
 BYTE   W06
 BYTE   N90  Bn1
 BYTE   N90  Fs2
 BYTE   W48
 BYTE   PEND 
//  #01 //002   ----------------------------------------
Label_01013F17:
 BYTE   W42
 BYTE   N06  Bn1  v127
 BYTE   N06  Fs2
 BYTE   W06
 BYTE   N90  Cs2
 BYTE   N90  Gs2
 BYTE   W48
 BYTE   PEND 
//  #01 //003   ----------------------------------------
Label_01013F24:
 BYTE   W42
 BYTE   N06  Ds2  v127
 BYTE   N06  As2
 BYTE   W06
 BYTE   N48  En2
 BYTE   N48  Bn2
 BYTE   W48
 BYTE   PEND 
//  #01 //004   ----------------------------------------
Label_01013F31:
 BYTE   N06  En2  v127
 BYTE   N06  Bn2
 BYTE   W06
 BYTE   Ds2
 BYTE   N06  As2
 BYTE   W06
 BYTE   Cs2
 BYTE   N06  Gs2
 BYTE   W06
 BYTE   Cn2
 BYTE   N06  Gn2
 BYTE   W06
 BYTE   Bn1
 BYTE   N06  Fs2
 BYTE   W06
 BYTE   As1
 BYTE   N06  Fn2
 BYTE   W06
 BYTE   An1
 BYTE   N06  En2
 BYTE   W06
 BYTE   Fs1
 BYTE   N06  Cs2
 BYTE   W06
 BYTE   VOL   22*SMTLevelUp_mvl/mxv
 BYTE   N90  Gs1
 BYTE   N90  Ds2
 BYTE   W48
 BYTE   PEND 
//  #01 //005   ----------------------------------------
 BYTE   PATT
  POIN2 Label_01013F0A
//  #01 //006   ----------------------------------------
 BYTE   PATT
  POIN2 Label_01013F17
//  #01 //007   ----------------------------------------
 BYTE   PATT
  POIN2 Label_01013F24
//  #01 //008   ----------------------------------------
 BYTE   PATT
  POIN2 Label_01013F31
//  #01 //009   ----------------------------------------
 BYTE   PATT
  POIN2 Label_01013F0A
//  #01 //010   ----------------------------------------
 BYTE   PATT
  POIN2 Label_01013F17
//  #01 //011   ----------------------------------------
 BYTE   PATT
  POIN2 Label_01013F24
//  #01 //012   ----------------------------------------
 BYTE   PATT
  POIN2 Label_01013F31
//  #01 //013   ----------------------------------------
 BYTE   PATT
  POIN2 Label_01013F0A
//  #01 //014   ----------------------------------------
Label_01013F88:
 BYTE   W42
 BYTE   N06  Bn1  v127
 BYTE   N06  Fs2
 BYTE   W06
 BYTE   N96  Cs2
 BYTE   N96  Gs2
 BYTE   W48
 BYTE   PEND 
//  #01 //015   ----------------------------------------
Label_01013F95:
 BYTE   W48
 BYTE   N06  Fs1  v127
 BYTE   N06  Cs2
 BYTE   W12
 BYTE   Bn1
 BYTE   N06  Fs2
 BYTE   W12
 BYTE   En1
 BYTE   N06  Bn1
 BYTE   W12
 BYTE   An1
 BYTE   N06  En2
 BYTE   W12
 BYTE   PEND 
//  #01 //016   ----------------------------------------
Label_01013FA9:
 BYTE   N06  Gs1  v127
 BYTE   N06  Ds2
 BYTE   W12
 BYTE   Cs2
 BYTE   N06  Gs2
 BYTE   W12
 BYTE   Fs1
 BYTE   N06  Cs2
 BYTE   W12
 BYTE   Bn0
 BYTE   N06  Fs1
 BYTE   W12
 BYTE   N48  Gs1
 BYTE   N48  Ds2
 BYTE   W48
 BYTE   PEND 
//  #01 //017   ----------------------------------------
Label_01013FC1:
 BYTE   N12  Gs1  v127
 BYTE   N12  Ds2
 BYTE   W12
 BYTE   N03  Gn1  v108
 BYTE   N03  Dn2
 BYTE   W03
 BYTE   Fs1
 BYTE   N03  Cs2
 BYTE   W03
 BYTE   N01  Fn1  v112
 BYTE   N01  Cn2
 BYTE   W01
 BYTE   En1
 BYTE   N01  Bn1
 BYTE   W02
 BYTE   Ds1
 BYTE   N01  As1
 BYTE   W01
 BYTE   Dn1
 BYTE   N01  An1
 BYTE   W02
 BYTE   Cs1  v104
 BYTE   N01  Gs1
 BYTE   W01
 BYTE   Cn1
 BYTE   N01  Gn1
 BYTE   W01
 BYTE   Bn0
 BYTE   N01  Fs1
 BYTE   W01
 BYTE   As0
 BYTE   N01  Fn1
 BYTE   W01
 BYTE   An0
 BYTE   N01  En1
 BYTE   W01
 BYTE   Gs0
 BYTE   N01  Ds1
 BYTE   W01
 BYTE   Fs0
 BYTE   N01  Cs1
 BYTE   W01
 BYTE   En0
 BYTE   N01  Bn0
 BYTE   W01
 BYTE   Dn0
 BYTE   N01  An0
 BYTE   W01
 BYTE   BnM1
 BYTE   N01  Fs0
 BYTE   W01
 BYTE   GsM1
 BYTE   N01  Ds0
 BYTE   W01
 BYTE   EnM1
 BYTE   N01  BnM1
 BYTE   W07
 BYTE   N06  Fs1  v127
 BYTE   N06  Cs2
 BYTE   W06
 BYTE   PAN   c_v-18
 BYTE   VOL   22*SMTLevelUp_mvl/mxv
 BYTE   N90  Gs1
 BYTE   N90  Ds2
 BYTE   W48
//  #01 //018   ----------------------------------------
 BYTE   PATT
  POIN2 Label_01013F0A
//  #01 //019   ----------------------------------------
 BYTE   PATT
  POIN2 Label_01013F17
//  #01 //020   ----------------------------------------
 BYTE   PATT
  POIN2 Label_01013F24
//  #01 //021   ----------------------------------------
 BYTE   PATT
  POIN2 Label_01013F31
//  #01 //022   ----------------------------------------
 BYTE   PATT
  POIN2 Label_01013F0A
//  #01 //023   ----------------------------------------
 BYTE   PATT
  POIN2 Label_01013F17
//  #01 //024   ----------------------------------------
 BYTE   PATT
  POIN2 Label_01013F24
//  #01 //025   ----------------------------------------
 BYTE   PATT
  POIN2 Label_01013F31
//  #01 //026   ----------------------------------------
 BYTE   PATT
  POIN2 Label_01013F0A
//  #01 //027   ----------------------------------------
 BYTE   PATT
  POIN2 Label_01013F17
//  #01 //028   ----------------------------------------
 BYTE   PATT
  POIN2 Label_01013F24
//  #01 //029   ----------------------------------------
 BYTE   PATT
  POIN2 Label_01013F31
//  #01 //030   ----------------------------------------
 BYTE   PATT
  POIN2 Label_01013F0A
//  #01 //031   ----------------------------------------
 BYTE   PATT
  POIN2 Label_01013F88
//  #01 //032   ----------------------------------------
 BYTE   PATT
  POIN2 Label_01013F95
//  #01 //033   ----------------------------------------
 BYTE   PATT
  POIN2 Label_01013FA9
//  #01 //034   ----------------------------------------
 BYTE   GoTo
  POIN2 Label_01013FC1
//  #01 //035   ----------------------------------------
 BYTE   N12  Gs1  v127
 BYTE   N12  Ds2
 BYTE   W12
 BYTE   N03  Gn1  v108
 BYTE   N03  Dn2
 BYTE   W03
 BYTE   Fs1
 BYTE   N03  Cs2
 BYTE   W03
 BYTE   N01  Fn1  v112
 BYTE   N01  Cn2
 BYTE   W01
 BYTE   En1
 BYTE   N01  Bn1
 BYTE   W02
 BYTE   Ds1
 BYTE   N01  As1
 BYTE   W01
 BYTE   Dn1
 BYTE   N01  An1
 BYTE   W02
 BYTE   Cs1  v104
 BYTE   N01  Gs1
 BYTE   W01
 BYTE   Cn1
 BYTE   N01  Gn1
 BYTE   W01
 BYTE   Bn0
 BYTE   N01  Fs1
 BYTE   W01
 BYTE   As0
 BYTE   N01  Fn1
 BYTE   W01
 BYTE   An0
 BYTE   N01  En1
 BYTE   W01
 BYTE   Gs0
 BYTE   N01  Ds1
 BYTE   W01
 BYTE   Fs0
 BYTE   N01  Cs1
 BYTE   W01
 BYTE   En0
 BYTE   N01  Bn0
 BYTE   W01
 BYTE   Dn0
 BYTE   N01  An0
 BYTE   W01
 BYTE   BnM1
 BYTE   N01  Fs0
 BYTE   W01
 BYTE   GsM1
 BYTE   N01  Ds0
 BYTE   W01
 BYTE   EnM1
 BYTE   N01  BnM1
 BYTE   W13
 BYTE   FINE

//**************** Track 2 (Midi-Chn.1) ****************//

SMTLevelUp_002:
//  #02 //000   ----------------------------------------
 BYTE   VOL   50*SMTLevelUp_mvl/mxv
 BYTE   KEYSH   SMTLevelUp_key+0
 BYTE   VOICE   30
 BYTE   PAN   c_v+18
 BYTE   W42
 BYTE   N06  Fs1  v127
 BYTE   N06  Cs2
 BYTE   W06
 BYTE   VOL   22*SMTLevelUp_mvl/mxv
 BYTE   BEND   c_v+1
 BYTE   N90  Gs1
 BYTE   N90  Ds2
 BYTE   W48
//  #02 //001   ----------------------------------------
Label_010140F4:
 BYTE   W42
 BYTE   N06  As1  v127
 BYTE   N06  Fn2
 BYTE   W06
 BYTE   N90  Bn1
 BYTE   N90  Fs2
 BYTE   W48
 BYTE   PEND 
//  #02 //002   ----------------------------------------
Label_01014101:
 BYTE   W42
 BYTE   N06  Bn1  v127
 BYTE   N06  Fs2
 BYTE   W06
 BYTE   N90  Cs2
 BYTE   N90  Gs2
 BYTE   W48
 BYTE   PEND 
//  #02 //003   ----------------------------------------
Label_0101410E:
 BYTE   W42
 BYTE   N06  Ds2  v127
 BYTE   N06  As2
 BYTE   W06
 BYTE   N48  En2
 BYTE   N48  Bn2
 BYTE   W48
 BYTE   PEND 
//  #02 //004   ----------------------------------------
Label_0101411B:
 BYTE   N06  En2  v127
 BYTE   N06  Bn2
 BYTE   W06
 BYTE   Ds2
 BYTE   N06  As2
 BYTE   W06
 BYTE   Cs2
 BYTE   N06  Gs2
 BYTE   W06
 BYTE   Cn2
 BYTE   N06  Gn2
 BYTE   W06
 BYTE   Bn1
 BYTE   N06  Fs2
 BYTE   W06
 BYTE   As1
 BYTE   N06  Fn2
 BYTE   W06
 BYTE   An1
 BYTE   N06  En2
 BYTE   W06
 BYTE   Fs1
 BYTE   N06  Cs2
 BYTE   W06
 BYTE   VOL   22*SMTLevelUp_mvl/mxv
 BYTE   N90  Gs1
 BYTE   N90  Ds2
 BYTE   W48
 BYTE   PEND 
//  #02 //005   ----------------------------------------
 BYTE   PATT
  POIN2 Label_010140F4
//  #02 //006   ----------------------------------------
 BYTE   PATT
  POIN2 Label_01014101
//  #02 //007   ----------------------------------------
 BYTE   PATT
  POIN2 Label_0101410E
//  #02 //008   ----------------------------------------
 BYTE   PATT
  POIN2 Label_0101411B
//  #02 //009   ----------------------------------------
 BYTE   PATT
  POIN2 Label_010140F4
//  #02 //010   ----------------------------------------
 BYTE   PATT
  POIN2 Label_01014101
//  #02 //011   ----------------------------------------
 BYTE   PATT
  POIN2 Label_0101410E
//  #02 //012   ----------------------------------------
 BYTE   PATT
  POIN2 Label_0101411B
//  #02 //013   ----------------------------------------
 BYTE   PATT
  POIN2 Label_010140F4
//  #02 //014   ----------------------------------------
Label_01014172:
 BYTE   W42
 BYTE   N06  Bn1  v127
 BYTE   N06  Fs2
 BYTE   W06
 BYTE   N96  Cs2
 BYTE   N96  Gs2
 BYTE   W48
 BYTE   PEND 
//  #02 //015   ----------------------------------------
Label_0101417F:
 BYTE   W48
 BYTE   N06  Fs1  v127
 BYTE   N06  Cs2
 BYTE   W12
 BYTE   Bn1
 BYTE   N06  Fs2
 BYTE   W12
 BYTE   En1
 BYTE   N06  Bn1
 BYTE   W12
 BYTE   An1
 BYTE   N06  En2
 BYTE   W12
 BYTE   PEND 
//  #02 //016   ----------------------------------------
Label_01014193:
 BYTE   N06  Gs1  v127
 BYTE   N06  Ds2
 BYTE   W12
 BYTE   Cs2
 BYTE   N06  Gs2
 BYTE   W12
 BYTE   Fs1
 BYTE   N06  Cs2
 BYTE   W12
 BYTE   Bn0
 BYTE   N06  Fs1
 BYTE   W12
 BYTE   N48  Gs1
 BYTE   N48  Ds2
 BYTE   W48
 BYTE   PEND 
//  #02 //017   ----------------------------------------
Label_010141AB:
 BYTE   N12  Gs1  v127
 BYTE   N12  Ds2
 BYTE   W12
 BYTE   N03  Gn1  v108
 BYTE   N03  Dn2
 BYTE   W03
 BYTE   Fs1
 BYTE   N03  Cs2
 BYTE   W03
 BYTE   N01  Fn1  v112
 BYTE   N01  Cn2
 BYTE   W01
 BYTE   En1
 BYTE   N01  Bn1
 BYTE   W02
 BYTE   Ds1
 BYTE   N01  As1
 BYTE   W01
 BYTE   Dn1
 BYTE   N01  An1
 BYTE   W02
 BYTE   Cs1  v104
 BYTE   N01  Gs1
 BYTE   W01
 BYTE   Cn1
 BYTE   N01  Gn1
 BYTE   W01
 BYTE   Bn0
 BYTE   N01  Fs1
 BYTE   W01
 BYTE   As0
 BYTE   N01  Fn1
 BYTE   W01
 BYTE   An0
 BYTE   N01  En1
 BYTE   W01
 BYTE   Gs0
 BYTE   N01  Ds1
 BYTE   W01
 BYTE   Fs0
 BYTE   N01  Cs1
 BYTE   W01
 BYTE   En0
 BYTE   N01  Bn0
 BYTE   W01
 BYTE   Dn0
 BYTE   N01  An0
 BYTE   W01
 BYTE   BnM1
 BYTE   N01  Fs0
 BYTE   W01
 BYTE   GsM1
 BYTE   N01  Ds0
 BYTE   W01
 BYTE   EnM1
 BYTE   N01  BnM1
 BYTE   W07
 BYTE   N06  Fs1  v127
 BYTE   N06  Cs2
 BYTE   W06
 BYTE   PAN   c_v+18
 BYTE   VOL   22*SMTLevelUp_mvl/mxv
 BYTE   BEND   c_v+1
 BYTE   N90  Gs1
 BYTE   N90  Ds2
 BYTE   W48
//  #02 //018   ----------------------------------------
 BYTE   PATT
  POIN2 Label_010140F4
//  #02 //019   ----------------------------------------
 BYTE   PATT
  POIN2 Label_01014101
//  #02 //020   ----------------------------------------
 BYTE   PATT
  POIN2 Label_0101410E
//  #02 //021   ----------------------------------------
 BYTE   PATT
  POIN2 Label_0101411B
//  #02 //022   ----------------------------------------
 BYTE   PATT
  POIN2 Label_010140F4
//  #02 //023   ----------------------------------------
 BYTE   PATT
  POIN2 Label_01014101
//  #02 //024   ----------------------------------------
 BYTE   PATT
  POIN2 Label_0101410E
//  #02 //025   ----------------------------------------
 BYTE   PATT
  POIN2 Label_0101411B
//  #02 //026   ----------------------------------------
 BYTE   PATT
  POIN2 Label_010140F4
//  #02 //027   ----------------------------------------
 BYTE   PATT
  POIN2 Label_01014101
//  #02 //028   ----------------------------------------
 BYTE   PATT
  POIN2 Label_0101410E
//  #02 //029   ----------------------------------------
 BYTE   PATT
  POIN2 Label_0101411B
//  #02 //030   ----------------------------------------
 BYTE   PATT
  POIN2 Label_010140F4
//  #02 //031   ----------------------------------------
 BYTE   PATT
  POIN2 Label_01014172
//  #02 //032   ----------------------------------------
 BYTE   PATT
  POIN2 Label_0101417F
//  #02 //033   ----------------------------------------
 BYTE   PATT
  POIN2 Label_01014193
//  #02 //034   ----------------------------------------
 BYTE   GoTo
  POIN2 Label_010141AB
//  #02 //035   ----------------------------------------
 BYTE   N12  Gs1  v127
 BYTE   N12  Ds2
 BYTE   W12
 BYTE   N03  Gn1  v108
 BYTE   N03  Dn2
 BYTE   W03
 BYTE   Fs1
 BYTE   N03  Cs2
 BYTE   W03
 BYTE   N01  Fn1  v112
 BYTE   N01  Cn2
 BYTE   W01
 BYTE   En1
 BYTE   N01  Bn1
 BYTE   W02
 BYTE   Ds1
 BYTE   N01  As1
 BYTE   W01
 BYTE   Dn1
 BYTE   N01  An1
 BYTE   W02
 BYTE   Cs1  v104
 BYTE   N01  Gs1
 BYTE   W01
 BYTE   Cn1
 BYTE   N01  Gn1
 BYTE   W01
 BYTE   Bn0
 BYTE   N01  Fs1
 BYTE   W01
 BYTE   As0
 BYTE   N01  Fn1
 BYTE   W01
 BYTE   An0
 BYTE   N01  En1
 BYTE   W01
 BYTE   Gs0
 BYTE   N01  Ds1
 BYTE   W01
 BYTE   Fs0
 BYTE   N01  Cs1
 BYTE   W01
 BYTE   En0
 BYTE   N01  Bn0
 BYTE   W01
 BYTE   Dn0
 BYTE   N01  An0
 BYTE   W01
 BYTE   BnM1
 BYTE   N01  Fs0
 BYTE   W01
 BYTE   GsM1
 BYTE   N01  Ds0
 BYTE   W01
 BYTE   EnM1
 BYTE   N01  BnM1
 BYTE   W13
 BYTE   FINE

//**************** Track 3 (Midi-Chn.2) ****************//

SMTLevelUp_003:
//  #03 //000   ----------------------------------------
 BYTE   KEYSH   SMTLevelUp_key+0
 BYTE   VOICE   34
 BYTE   VOL   22*SMTLevelUp_mvl/mxv
 BYTE   W42
 BYTE   N03  Fs0  v127
 BYTE   W06
 BYTE   Gs0
 BYTE   W06
 BYTE   N03
 BYTE   W06
 BYTE   N03
 BYTE   W06
 BYTE   N03
 BYTE   W06
 BYTE   N03
 BYTE   W06
 BYTE   N03
 BYTE   W06
 BYTE   N03
 BYTE   W06
 BYTE   N03
 BYTE   W06
//  #03 //001   ----------------------------------------
Label_574C83:
 BYTE   N03  Gs0  v127
 BYTE   W06
 BYTE   N03
 BYTE   W06
 BYTE   N03
 BYTE   W06
 BYTE   N03
 BYTE   W06
 BYTE   N03
 BYTE   W06
 BYTE   N03
 BYTE   W06
 BYTE   N03
 BYTE   W06
 BYTE   As0
 BYTE   W06
 BYTE   Bn0
 BYTE   W06
 BYTE   N03
 BYTE   W06
 BYTE   N03
 BYTE   W06
 BYTE   N03
 BYTE   W06
 BYTE   N03
 BYTE   W06
 BYTE   N03
 BYTE   W06
 BYTE   N03
 BYTE   W06
 BYTE   N03
 BYTE   W06
 BYTE   PEND 
//  #03 //002   ----------------------------------------
Label_574CA6:
 BYTE   N03  Bn0  v127
 BYTE   W06
 BYTE   N03
 BYTE   W06
 BYTE   N03
 BYTE   W06
 BYTE   N03
 BYTE   W06
 BYTE   N03
 BYTE   W06
 BYTE   N03
 BYTE   W06
 BYTE   N03
 BYTE   W06
 BYTE   Cn1
 BYTE   W06
 BYTE   Cs1
 BYTE   W06
 BYTE   N03
 BYTE   W06
 BYTE   N03
 BYTE   W06
 BYTE   N03
 BYTE   W06
 BYTE   N03
 BYTE   W06
 BYTE   N03
 BYTE   W06
 BYTE   N03
 BYTE   W06
 BYTE   N03
 BYTE   W06
 BYTE   PEND 
//  #03 //003   ----------------------------------------
Label_574CC9:
 BYTE   N03  Cs1  v127
 BYTE   W06
 BYTE   N03
 BYTE   W06
 BYTE   N03
 BYTE   W06
 BYTE   N03
 BYTE   W06
 BYTE   N03
 BYTE   W06
 BYTE   N03
 BYTE   W06
 BYTE   N03
 BYTE   W06
 BYTE   Ds1
 BYTE   W06
 BYTE   En1
 BYTE   W06
 BYTE   N03
 BYTE   W06
 BYTE   N03
 BYTE   W06
 BYTE   N03
 BYTE   W06
 BYTE   N03
 BYTE   W06
 BYTE   N03
 BYTE   W06
 BYTE   N03
 BYTE   W06
 BYTE   N03
 BYTE   W06
 BYTE   PEND 
//  #03 //004   ----------------------------------------
Label_574CEC:
 BYTE   N03  En1  v127
 BYTE   W06
 BYTE   Dn1
 BYTE   W06
 BYTE   Cs1
 BYTE   W06
 BYTE   Cn1
 BYTE   W06
 BYTE   Bn0
 BYTE   W06
 BYTE   As0
 BYTE   W06
 BYTE   An0
 BYTE   W06
 BYTE   Fs0
 BYTE   W06
 BYTE   Gs0
 BYTE   W06
 BYTE   N03
 BYTE   W06
 BYTE   N03
 BYTE   W06
 BYTE   N03
 BYTE   W06
 BYTE   N03
 BYTE   W06
 BYTE   N03
 BYTE   W06
 BYTE   N03
 BYTE   W06
 BYTE   N03
 BYTE   W06
 BYTE   PEND 
//  #03 //005   ----------------------------------------
 BYTE   PATT
  POIN2 Label_574C83
//  #03 //006   ----------------------------------------
 BYTE   PATT
  POIN2 Label_574CA6
//  #03 //007   ----------------------------------------
 BYTE   PATT
  POIN2 Label_574CC9
//  #03 //008   ----------------------------------------
 BYTE   PATT
  POIN2 Label_574CEC
//  #03 //009   ----------------------------------------
 BYTE   PATT
  POIN2 Label_574C83
//  #03 //010   ----------------------------------------
 BYTE   PATT
  POIN2 Label_574CA6
//  #03 //011   ----------------------------------------
 BYTE   PATT
  POIN2 Label_574CC9
//  #03 //012   ----------------------------------------
 BYTE   PATT
  POIN2 Label_574CEC
//  #03 //013   ----------------------------------------
 BYTE   PATT
  POIN2 Label_574C83
//  #03 //014   ----------------------------------------
 BYTE   PATT
  POIN2 Label_574CA6
//  #03 //015   ----------------------------------------
Label_574D41:
 BYTE   N03  Cs1  v127
 BYTE   W06
 BYTE   N03
 BYTE   W06
 BYTE   N03
 BYTE   W06
 BYTE   N03
 BYTE   W06
 BYTE   N03
 BYTE   W06
 BYTE   N03
 BYTE   W06
 BYTE   N03
 BYTE   W06
 BYTE   N03
 BYTE   W06
 BYTE   Fs0
 BYTE   W12
 BYTE   Bn0
 BYTE   W12
 BYTE   En0
 BYTE   W12
 BYTE   An0
 BYTE   W12
 BYTE   PEND 
//  #03 //016   ----------------------------------------
Label_574D5C:
 BYTE   N03  Gs0  v127
 BYTE   W12
 BYTE   Cs1
 BYTE   W12
 BYTE   Fs0
 BYTE   W12
 BYTE   Bn0
 BYTE   W12
 BYTE   Gs0
 BYTE   W06
 BYTE   N03
 BYTE   W06
 BYTE   N03
 BYTE   W06
 BYTE   N03
 BYTE   W06
 BYTE   N03
 BYTE   W06
 BYTE   N03
 BYTE   W06
 BYTE   N03
 BYTE   W06
 BYTE   N03
 BYTE   W06
 BYTE   PEND 
//  #03 //017   ----------------------------------------
Label_574D77:
 BYTE   N03  Gs0  v127
 BYTE   W42
 BYTE   Fs0
 BYTE   W06
 BYTE   VOL   22*SMTLevelUp_mvl/mxv
 BYTE   N03  Gs0
 BYTE   W06
 BYTE   N03
 BYTE   W06
 BYTE   N03
 BYTE   W06
 BYTE   N03
 BYTE   W06
 BYTE   N03
 BYTE   W06
 BYTE   N03
 BYTE   W06
 BYTE   N03
 BYTE   W06
 BYTE   N03
 BYTE   W06
//  #03 //018   ----------------------------------------
 BYTE   PATT
  POIN2 Label_574C83
//  #03 //019   ----------------------------------------
 BYTE   PATT
  POIN2 Label_574CA6
//  #03 //020   ----------------------------------------
 BYTE   PATT
  POIN2 Label_574CC9
//  #03 //021   ----------------------------------------
 BYTE   PATT
  POIN2 Label_574CEC
//  #03 //022   ----------------------------------------
 BYTE   PATT
  POIN2 Label_574C83
//  #03 //023   ----------------------------------------
 BYTE   PATT
  POIN2 Label_574CA6
//  #03 //024   ----------------------------------------
 BYTE   PATT
  POIN2 Label_574CC9
//  #03 //025   ----------------------------------------
 BYTE   PATT
  POIN2 Label_574CEC
//  #03 //026   ----------------------------------------
 BYTE   PATT
  POIN2 Label_574C83
//  #03 //027   ----------------------------------------
 BYTE   PATT
  POIN2 Label_574CA6
//  #03 //028   ----------------------------------------
 BYTE   PATT
  POIN2 Label_574CC9
//  #03 //029   ----------------------------------------
 BYTE   PATT
  POIN2 Label_574CEC
//  #03 //030   ----------------------------------------
 BYTE   PATT
  POIN2 Label_574C83
//  #03 //031   ----------------------------------------
 BYTE   PATT
  POIN2 Label_574CA6
//  #03 //032   ----------------------------------------
 BYTE   PATT
  POIN2 Label_574D41
//  #03 //033   ----------------------------------------
 BYTE   PATT
  POIN2 Label_574D5C
//  #03 //034   ----------------------------------------
 BYTE   GoTo
  POIN2 Label_574D77
//  #03 //035   ----------------------------------------
 BYTE   N03  Gs0  v127
 BYTE   W48
 BYTE   FINE

//**************** Track 4 (Midi-Chn.3) ****************//

SMTLevelUp_004:
//  #04 //000   ----------------------------------------
 BYTE   KEYSH   SMTLevelUp_key+0
 BYTE   VOICE   18
 BYTE   VOL   22*SMTLevelUp_mvl/mxv
 BYTE   W48
 BYTE   N06  Gs3  v127
 BYTE   W06
 BYTE   Ds3
 BYTE   W06
 BYTE   Bn2
 BYTE   W06
 BYTE   Ds3
 BYTE   W06
 BYTE   Gs3
 BYTE   W06
 BYTE   Ds3
 BYTE   W06
 BYTE   Bn2
 BYTE   W06
 BYTE   Ds3
 BYTE   W06
//  #04 //001   ----------------------------------------
Label_010142E1:
 BYTE   N06  Gs3  v127
 BYTE   W06
 BYTE   Ds3
 BYTE   W06
 BYTE   Bn2
 BYTE   W06
 BYTE   Ds3
 BYTE   W06
 BYTE   Gs3
 BYTE   W06
 BYTE   Ds3
 BYTE   W06
 BYTE   Bn2
 BYTE   W06
 BYTE   Ds3
 BYTE   W06
 BYTE   Fs3
 BYTE   W06
 BYTE   Ds3
 BYTE   W06
 BYTE   Bn2
 BYTE   W06
 BYTE   Ds3
 BYTE   W06
 BYTE   Fs3
 BYTE   W06
 BYTE   Ds3
 BYTE   W06
 BYTE   Bn2
 BYTE   W06
 BYTE   Ds3
 BYTE   W06
 BYTE   PEND 
//  #04 //002   ----------------------------------------
Label_01014304:
 BYTE   N06  Fs3  v127
 BYTE   W06
 BYTE   Ds3
 BYTE   W06
 BYTE   Bn2
 BYTE   W06
 BYTE   Ds3
 BYTE   W06
 BYTE   Fs3
 BYTE   W06
 BYTE   Ds3
 BYTE   W06
 BYTE   Bn2
 BYTE   W06
 BYTE   Ds3
 BYTE   W06
 BYTE   Gs3
 BYTE   W06
 BYTE   En3
 BYTE   W06
 BYTE   Cs3
 BYTE   W06
 BYTE   En3
 BYTE   W06
 BYTE   Gs3
 BYTE   W06
 BYTE   En3
 BYTE   W06
 BYTE   Cs3
 BYTE   W06
 BYTE   En3
 BYTE   W06
 BYTE   PEND 
//  #04 //003   ----------------------------------------
Label_01014327:
 BYTE   N06  Gs3  v127
 BYTE   W06
 BYTE   En3
 BYTE   W06
 BYTE   Cs3
 BYTE   W06
 BYTE   En3
 BYTE   W06
 BYTE   Gs3
 BYTE   W06
 BYTE   En3
 BYTE   W06
 BYTE   Cs3
 BYTE   W06
 BYTE   En3
 BYTE   W06
 BYTE   Gs3
 BYTE   W06
 BYTE   En3
 BYTE   W06
 BYTE   Bn2
 BYTE   W06
 BYTE   En3
 BYTE   W06
 BYTE   Gs3
 BYTE   W06
 BYTE   En3
 BYTE   W06
 BYTE   Bn2
 BYTE   W06
 BYTE   En3
 BYTE   W06
 BYTE   PEND 
//  #04 //004   ----------------------------------------
Label_0101434A:
 BYTE   N06  En3  v127
 BYTE   W06
 BYTE   Fn3
 BYTE   W06
 BYTE   Fs3
 BYTE   W06
 BYTE   Gn3
 BYTE   W06
 BYTE   Gs3
 BYTE   W06
 BYTE   An3
 BYTE   W06
 BYTE   As3
 BYTE   W06
 BYTE   Fs3
 BYTE   W06
 BYTE   VOL   22*SMTLevelUp_mvl/mxv
 BYTE   N06  Gs3
 BYTE   W06
 BYTE   Ds3
 BYTE   W06
 BYTE   Bn2
 BYTE   W06
 BYTE   Ds3
 BYTE   W06
 BYTE   Gs3
 BYTE   W06
 BYTE   Ds3
 BYTE   W06
 BYTE   Bn2
 BYTE   W06
 BYTE   Ds3
 BYTE   W06
 BYTE   PEND 
//  #04 //005   ----------------------------------------
 BYTE   PATT
  POIN2 Label_010142E1
//  #04 //006   ----------------------------------------
 BYTE   PATT
  POIN2 Label_01014304
//  #04 //007   ----------------------------------------
 BYTE   PATT
  POIN2 Label_01014327
//  #04 //008   ----------------------------------------
 BYTE   PATT
  POIN2 Label_0101434A
//  #04 //009   ----------------------------------------
 BYTE   PATT
  POIN2 Label_010142E1
//  #04 //010   ----------------------------------------
 BYTE   PATT
  POIN2 Label_01014304
//  #04 //011   ----------------------------------------
 BYTE   PATT
  POIN2 Label_01014327
//  #04 //012   ----------------------------------------
 BYTE   PATT
  POIN2 Label_0101434A
//  #04 //013   ----------------------------------------
 BYTE   PATT
  POIN2 Label_010142E1
//  #04 //014   ----------------------------------------
 BYTE   PATT
  POIN2 Label_01014304
//  #04 //015   ----------------------------------------
Label_010143A2:
 BYTE   N06  Gs3  v127
 BYTE   W06
 BYTE   En3
 BYTE   W06
 BYTE   Cs3
 BYTE   W06
 BYTE   En3
 BYTE   W06
 BYTE   Gs3
 BYTE   W06
 BYTE   En3
 BYTE   W06
 BYTE   Cs3
 BYTE   W06
 BYTE   En3
 BYTE   W06
 BYTE   Fs3
 BYTE   W06
 BYTE   Cs4
 BYTE   W06
 BYTE   Bn3
 BYTE   W06
 BYTE   Fs3
 BYTE   W06
 BYTE   En3
 BYTE   W06
 BYTE   Bn3
 BYTE   W06
 BYTE   An3
 BYTE   W06
 BYTE   En3
 BYTE   W06
 BYTE   PEND 
//  #04 //016   ----------------------------------------
Label_010143C5:
 BYTE   N06  Gs3  v127
 BYTE   W06
 BYTE   Ds3
 BYTE   W06
 BYTE   Cs4
 BYTE   W06
 BYTE   Gs3
 BYTE   W06
 BYTE   Fs3
 BYTE   W06
 BYTE   Cs4
 BYTE   W06
 BYTE   Bn3
 BYTE   W06
 BYTE   Fs3
 BYTE   W06
 BYTE   Gs3
 BYTE   W06
 BYTE   Ds3
 BYTE   W06
 BYTE   Bn2
 BYTE   W06
 BYTE   Ds3
 BYTE   W06
 BYTE   Gs3
 BYTE   W06
 BYTE   Ds3
 BYTE   W06
 BYTE   Bn2
 BYTE   W06
 BYTE   Ds3
 BYTE   W06
 BYTE   PEND 
//  #04 //017   ----------------------------------------
Label_010143E8:
 BYTE   N48  Gs3  v127
 BYTE   W48
 BYTE   VOL   22*SMTLevelUp_mvl/mxv
 BYTE   N06
 BYTE   W06
 BYTE   Ds3
 BYTE   W06
 BYTE   Bn2
 BYTE   W06
 BYTE   Ds3
 BYTE   W06
 BYTE   Gs3
 BYTE   W06
 BYTE   Ds3
 BYTE   W06
 BYTE   Bn2
 BYTE   W06
 BYTE   Ds3
 BYTE   W06
//  #04 //018   ----------------------------------------
 BYTE   PATT
  POIN2 Label_010142E1
//  #04 //019   ----------------------------------------
 BYTE   PATT
  POIN2 Label_01014304
//  #04 //020   ----------------------------------------
 BYTE   PATT
  POIN2 Label_01014327
//  #04 //021   ----------------------------------------
 BYTE   PATT
  POIN2 Label_0101434A
//  #04 //022   ----------------------------------------
 BYTE   PATT
  POIN2 Label_010142E1
//  #04 //023   ----------------------------------------
 BYTE   PATT
  POIN2 Label_01014304
//  #04 //024   ----------------------------------------
 BYTE   PATT
  POIN2 Label_01014327
//  #04 //025   ----------------------------------------
 BYTE   PATT
  POIN2 Label_0101434A
//  #04 //026   ----------------------------------------
 BYTE   PATT
  POIN2 Label_010142E1
//  #04 //027   ----------------------------------------
 BYTE   PATT
  POIN2 Label_01014304
//  #04 //028   ----------------------------------------
 BYTE   PATT
  POIN2 Label_01014327
//  #04 //029   ----------------------------------------
 BYTE   PATT
  POIN2 Label_0101434A
//  #04 //030   ----------------------------------------
 BYTE   PATT
  POIN2 Label_010142E1
//  #04 //031   ----------------------------------------
 BYTE   PATT
  POIN2 Label_01014304
//  #04 //032   ----------------------------------------
 BYTE   PATT
  POIN2 Label_010143A2
//  #04 //033   ----------------------------------------
 BYTE   PATT
  POIN2 Label_010143C5
//  #04 //034   ----------------------------------------
 BYTE   GoTo
  POIN2 Label_010143E8
//  #04 //035   ----------------------------------------
 BYTE   N48  Gs3  v127
 BYTE   W48
 BYTE   FINE

//**************** Track 5 (Midi-Chn.4) ****************//

SMTLevelUp_005:
//  #05 //000   ----------------------------------------
 BYTE   KEYSH   SMTLevelUp_key+0
 BYTE   VOICE   38
 BYTE   VOL   33*SMTLevelUp_mvl/mxv
 BYTE   W42
 BYTE   N06  Fs0  v127
 BYTE   W06
 BYTE   Gs0
 BYTE   W06
 BYTE   N06
 BYTE   W06
 BYTE   N06
 BYTE   W06
 BYTE   N06
 BYTE   W06
 BYTE   N06
 BYTE   W06
 BYTE   N06
 BYTE   W06
 BYTE   N06
 BYTE   W06
 BYTE   N06
 BYTE   W06
//  #05 //001   ----------------------------------------
Label_01014483:
 BYTE   N06  Gs0  v127
 BYTE   W06
 BYTE   N06
 BYTE   W06
 BYTE   N06
 BYTE   W06
 BYTE   N06
 BYTE   W06
 BYTE   N06
 BYTE   W06
 BYTE   N06
 BYTE   W06
 BYTE   N06
 BYTE   W06
 BYTE   As0
 BYTE   W06
 BYTE   Bn0
 BYTE   W06
 BYTE   N06
 BYTE   W06
 BYTE   N06
 BYTE   W06
 BYTE   N06
 BYTE   W06
 BYTE   N06
 BYTE   W06
 BYTE   N06
 BYTE   W06
 BYTE   N06
 BYTE   W06
 BYTE   N06
 BYTE   W06
 BYTE   PEND 
//  #05 //002   ----------------------------------------
Label_010144A6:
 BYTE   N06  Bn0  v127
 BYTE   W06
 BYTE   N06
 BYTE   W06
 BYTE   N06
 BYTE   W06
 BYTE   N06
 BYTE   W06
 BYTE   N06
 BYTE   W06
 BYTE   N06
 BYTE   W06
 BYTE   N06
 BYTE   W06
 BYTE   N06
 BYTE   W06
 BYTE   Cs1
 BYTE   W06
 BYTE   N06
 BYTE   W06
 BYTE   N06
 BYTE   W06
 BYTE   N06
 BYTE   W06
 BYTE   N06
 BYTE   W06
 BYTE   N06
 BYTE   W06
 BYTE   N06
 BYTE   W06
 BYTE   N06
 BYTE   W06
 BYTE   PEND 
//  #05 //003   ----------------------------------------
Label_010144C9:
 BYTE   N06  Cs1  v127
 BYTE   W06
 BYTE   N06
 BYTE   W06
 BYTE   N06
 BYTE   W06
 BYTE   N06
 BYTE   W06
 BYTE   N06
 BYTE   W06
 BYTE   N06
 BYTE   W06
 BYTE   N06
 BYTE   W06
 BYTE   Ds1
 BYTE   W06
 BYTE   En1
 BYTE   W06
 BYTE   N06
 BYTE   W06
 BYTE   N06
 BYTE   W06
 BYTE   N06
 BYTE   W06
 BYTE   N06
 BYTE   W06
 BYTE   N06
 BYTE   W06
 BYTE   N06
 BYTE   W06
 BYTE   N06
 BYTE   W06
 BYTE   PEND 
//  #05 //004   ----------------------------------------
Label_010144EC:
 BYTE   N06  En1  v127
 BYTE   W06
 BYTE   Ds1
 BYTE   W06
 BYTE   Cs1
 BYTE   W06
 BYTE   Cn1
 BYTE   W06
 BYTE   Bn0
 BYTE   W06
 BYTE   As0
 BYTE   W06
 BYTE   An0
 BYTE   W06
 BYTE   Fs0
 BYTE   W06
 BYTE   VOL   33*SMTLevelUp_mvl/mxv
 BYTE   N06  Gs0
 BYTE   W06
 BYTE   N06
 BYTE   W06
 BYTE   N06
 BYTE   W06
 BYTE   N06
 BYTE   W06
 BYTE   N06
 BYTE   W06
 BYTE   N06
 BYTE   W06
 BYTE   N06
 BYTE   W06
 BYTE   N06
 BYTE   W06
 BYTE   PEND 
//  #05 //005   ----------------------------------------
 BYTE   PATT
  POIN2 Label_01014483
//  #05 //006   ----------------------------------------
 BYTE   PATT
  POIN2 Label_010144A6
//  #05 //007   ----------------------------------------
 BYTE   PATT
  POIN2 Label_010144C9
//  #05 //008   ----------------------------------------
 BYTE   PATT
  POIN2 Label_010144EC
//  #05 //009   ----------------------------------------
 BYTE   PATT
  POIN2 Label_01014483
//  #05 //010   ----------------------------------------
 BYTE   PATT
  POIN2 Label_010144A6
//  #05 //011   ----------------------------------------
 BYTE   PATT
  POIN2 Label_010144C9
//  #05 //012   ----------------------------------------
 BYTE   PATT
  POIN2 Label_010144EC
//  #05 //013   ----------------------------------------
 BYTE   PATT
  POIN2 Label_01014483
//  #05 //014   ----------------------------------------
 BYTE   PATT
  POIN2 Label_010144A6
//  #05 //015   ----------------------------------------
Label_01014544:
 BYTE   N06  Cs1  v127
 BYTE   W06
 BYTE   N06
 BYTE   W06
 BYTE   N06
 BYTE   W06
 BYTE   N06
 BYTE   W06
 BYTE   N06
 BYTE   W06
 BYTE   N06
 BYTE   W06
 BYTE   N06
 BYTE   W06
 BYTE   N06
 BYTE   W06
 BYTE   Fs0
 BYTE   W12
 BYTE   Bn0
 BYTE   W12
 BYTE   En0
 BYTE   W12
 BYTE   An0
 BYTE   W12
 BYTE   PEND 
//  #05 //016   ----------------------------------------
Label_0101455F:
 BYTE   N06  Gs0  v127
 BYTE   W12
 BYTE   Cs1
 BYTE   W12
 BYTE   Fs0
 BYTE   W12
 BYTE   Bn0
 BYTE   W12
 BYTE   Gs0
 BYTE   W06
 BYTE   N06
 BYTE   W06
 BYTE   N06
 BYTE   W06
 BYTE   N06
 BYTE   W06
 BYTE   N06
 BYTE   W06
 BYTE   N06
 BYTE   W06
 BYTE   N06
 BYTE   W06
 BYTE   N06
 BYTE   W06
 BYTE   PEND 
//  #05 //017   ----------------------------------------
Label_0101457A:
 BYTE   N24  Gs0  v127
 BYTE   W42
 BYTE   N06  Fs0
 BYTE   W06
 BYTE   VOL   33*SMTLevelUp_mvl/mxv
 BYTE   N06  Gs0
 BYTE   W06
 BYTE   N06
 BYTE   W06
 BYTE   N06
 BYTE   W06
 BYTE   N06
 BYTE   W06
 BYTE   N06
 BYTE   W06
 BYTE   N06
 BYTE   W06
 BYTE   N06
 BYTE   W06
 BYTE   N06
 BYTE   W06
//  #05 //018   ----------------------------------------
 BYTE   PATT
  POIN2 Label_01014483
//  #05 //019   ----------------------------------------
 BYTE   PATT
  POIN2 Label_010144A6
//  #05 //020   ----------------------------------------
 BYTE   PATT
  POIN2 Label_010144C9
//  #05 //021   ----------------------------------------
 BYTE   PATT
  POIN2 Label_010144EC
//  #05 //022   ----------------------------------------
 BYTE   PATT
  POIN2 Label_01014483
//  #05 //023   ----------------------------------------
 BYTE   PATT
  POIN2 Label_010144A6
//  #05 //024   ----------------------------------------
 BYTE   PATT
  POIN2 Label_010144C9
//  #05 //025   ----------------------------------------
 BYTE   PATT
  POIN2 Label_010144EC
//  #05 //026   ----------------------------------------
 BYTE   PATT
  POIN2 Label_01014483
//  #05 //027   ----------------------------------------
 BYTE   PATT
  POIN2 Label_010144A6
//  #05 //028   ----------------------------------------
 BYTE   PATT
  POIN2 Label_010144C9
//  #05 //029   ----------------------------------------
 BYTE   PATT
  POIN2 Label_010144EC
//  #05 //030   ----------------------------------------
 BYTE   PATT
  POIN2 Label_01014483
//  #05 //031   ----------------------------------------
 BYTE   PATT
  POIN2 Label_010144A6
//  #05 //032   ----------------------------------------
 BYTE   PATT
  POIN2 Label_01014544
//  #05 //033   ----------------------------------------
 BYTE   PATT
  POIN2 Label_0101455F
//  #05 //034   ----------------------------------------
 BYTE   GoTo
  POIN2 Label_0101457A
//  #05 //035   ----------------------------------------
 BYTE   N24  Gs0  v127
 BYTE   W48
 BYTE   FINE

//**************** Track 6 (Midi-Chn.5) ****************//

SMTLevelUp_006:
//  #06 //000   ----------------------------------------
 BYTE   KEYSH   SMTLevelUp_key+0
 BYTE   VOICE   81
 BYTE   PAN   c_v+0
 BYTE   VOL   12*SMTLevelUp_mvl/mxv
 BYTE   W42
 BYTE   N06  Fs1  v127
 BYTE   N06  Cs2
 BYTE   W06
 BYTE   N90  Gs1
 BYTE   N90  Ds2
 BYTE   W48
//  #06 //001   ----------------------------------------
Label_01014614:
 BYTE   W42
 BYTE   N06  As1  v127
 BYTE   N06  Fn2
 BYTE   W06
 BYTE   N90  Bn1
 BYTE   N90  Fs2
 BYTE   W48
 BYTE   PEND 
//  #06 //002   ----------------------------------------
Label_01014621:
 BYTE   W42
 BYTE   N06  Bn1  v127
 BYTE   N06  Fs2
 BYTE   W06
 BYTE   N90  Cs2
 BYTE   N90  Gs2
 BYTE   W48
 BYTE   PEND 
//  #06 //003   ----------------------------------------
Label_0101462E:
 BYTE   W42
 BYTE   N06  Ds2  v127
 BYTE   N06  As2
 BYTE   W06
 BYTE   N48  En2
 BYTE   N48  Bn2
 BYTE   W48
 BYTE   PEND 
//  #06 //004   ----------------------------------------
Label_0101463B:
 BYTE   N06  En2  v127
 BYTE   N06  Bn2
 BYTE   W06
 BYTE   Ds2
 BYTE   N06  As2
 BYTE   W06
 BYTE   Cs2
 BYTE   N06  Gs2
 BYTE   W06
 BYTE   Cn2
 BYTE   N06  Gn2
 BYTE   W06
 BYTE   Bn1
 BYTE   N06  Fs2
 BYTE   W06
 BYTE   As1
 BYTE   N06  Fn2
 BYTE   W06
 BYTE   An1
 BYTE   N06  En2
 BYTE   W06
 BYTE   Fs1
 BYTE   N06  Cs2
 BYTE   W06
 BYTE   N90  Gs1
 BYTE   N90  Ds2
 BYTE   W48
 BYTE   PEND 
//  #06 //005   ----------------------------------------
 BYTE   PATT
  POIN2 Label_01014614
//  #06 //006   ----------------------------------------
 BYTE   PATT
  POIN2 Label_01014621
//  #06 //007   ----------------------------------------
 BYTE   PATT
  POIN2 Label_0101462E
//  #06 //008   ----------------------------------------
 BYTE   PATT
  POIN2 Label_0101463B
//  #06 //009   ----------------------------------------
 BYTE   PATT
  POIN2 Label_01014614
//  #06 //010   ----------------------------------------
 BYTE   PATT
  POIN2 Label_01014621
//  #06 //011   ----------------------------------------
 BYTE   PATT
  POIN2 Label_0101462E
//  #06 //012   ----------------------------------------
 BYTE   PATT
  POIN2 Label_0101463B
//  #06 //013   ----------------------------------------
 BYTE   PATT
  POIN2 Label_01014614
//  #06 //014   ----------------------------------------
Label_01014690:
 BYTE   W42
 BYTE   N06  Bn1  v127
 BYTE   N06  Fs2
 BYTE   W06
 BYTE   N96  Cs2
 BYTE   N96  Gs2
 BYTE   W48
 BYTE   PEND 
//  #06 //015   ----------------------------------------
Label_0101469D:
 BYTE   W48
 BYTE   N06  Fs1  v127
 BYTE   N06  Cs2
 BYTE   W12
 BYTE   Bn1
 BYTE   N06  Fs2
 BYTE   W12
 BYTE   En1
 BYTE   N06  Bn1
 BYTE   W12
 BYTE   An1
 BYTE   N06  En2
 BYTE   W12
 BYTE   PEND 
//  #06 //016   ----------------------------------------
Label_010146B1:
 BYTE   N06  Gs1  v127
 BYTE   N06  Ds2
 BYTE   W12
 BYTE   Cs2
 BYTE   N06  Gs2
 BYTE   W12
 BYTE   Fs1
 BYTE   N06  Cs2
 BYTE   W12
 BYTE   Bn0
 BYTE   N06  Fs1
 BYTE   W12
 BYTE   N48  Gs1
 BYTE   N48  Ds2
 BYTE   W48
 BYTE   PEND 
//  #06 //017   ----------------------------------------
Label_010146C9:
 BYTE   N12  Gs1  v127
 BYTE   N12  Ds2
 BYTE   W12
 BYTE   N03  Gn1  v108
 BYTE   N03  Dn2
 BYTE   W03
 BYTE   Fs1
 BYTE   N03  Cs2
 BYTE   W03
 BYTE   N01  Fn1  v112
 BYTE   N01  Cn2
 BYTE   W01
 BYTE   En1
 BYTE   N01  Bn1
 BYTE   W02
 BYTE   Ds1
 BYTE   N01  As1
 BYTE   W01
 BYTE   Dn1
 BYTE   N01  An1
 BYTE   W02
 BYTE   Cs1  v104
 BYTE   N01  Gs1
 BYTE   W01
 BYTE   Cn1
 BYTE   N01  Gn1
 BYTE   W01
 BYTE   Bn0
 BYTE   N01  Fs1
 BYTE   W01
 BYTE   As0
 BYTE   N01  Fn1
 BYTE   W01
 BYTE   An0
 BYTE   N01  En1
 BYTE   W01
 BYTE   Gs0
 BYTE   N01  Ds1
 BYTE   W01
 BYTE   Fs0
 BYTE   N01  Cs1
 BYTE   W01
 BYTE   En0
 BYTE   N01  Bn0
 BYTE   W01
 BYTE   Dn0
 BYTE   N01  An0
 BYTE   W01
 BYTE   BnM1
 BYTE   N01  Fs0
 BYTE   W01
 BYTE   GsM1
 BYTE   N01  Ds0
 BYTE   W01
 BYTE   EnM1
 BYTE   N01  BnM1
 BYTE   W07
 BYTE   N06  Fs1  v127
 BYTE   N06  Cs2
 BYTE   W06
 BYTE   PAN   c_v+0
 BYTE   VOL   12*SMTLevelUp_mvl/mxv
 BYTE   N90  Gs1
 BYTE   N90  Ds2
 BYTE   W48
//  #06 //018   ----------------------------------------
 BYTE   PATT
  POIN2 Label_01014614
//  #06 //019   ----------------------------------------
 BYTE   PATT
  POIN2 Label_01014621
//  #06 //020   ----------------------------------------
 BYTE   PATT
  POIN2 Label_0101462E
//  #06 //021   ----------------------------------------
 BYTE   PATT
  POIN2 Label_0101463B
//  #06 //022   ----------------------------------------
 BYTE   PATT
  POIN2 Label_01014614
//  #06 //023   ----------------------------------------
 BYTE   PATT
  POIN2 Label_01014621
//  #06 //024   ----------------------------------------
 BYTE   PATT
  POIN2 Label_0101462E
//  #06 //025   ----------------------------------------
 BYTE   PATT
  POIN2 Label_0101463B
//  #06 //026   ----------------------------------------
 BYTE   PATT
  POIN2 Label_01014614
//  #06 //027   ----------------------------------------
 BYTE   PATT
  POIN2 Label_01014621
//  #06 //028   ----------------------------------------
 BYTE   PATT
  POIN2 Label_0101462E
//  #06 //029   ----------------------------------------
 BYTE   PATT
  POIN2 Label_0101463B
//  #06 //030   ----------------------------------------
 BYTE   PATT
  POIN2 Label_01014614
//  #06 //031   ----------------------------------------
 BYTE   PATT
  POIN2 Label_01014690
//  #06 //032   ----------------------------------------
 BYTE   PATT
  POIN2 Label_0101469D
//  #06 //033   ----------------------------------------
 BYTE   PATT
  POIN2 Label_010146B1
//  #06 //034   ----------------------------------------
 BYTE   GoTo
  POIN2 Label_010146C9
//  #06 //035   ----------------------------------------
 BYTE   N12  Gs1  v127
 BYTE   N12  Ds2
 BYTE   W12
 BYTE   N03  Gn1  v108
 BYTE   N03  Dn2
 BYTE   W03
 BYTE   Fs1
 BYTE   N03  Cs2
 BYTE   W03
 BYTE   N01  Fn1  v112
 BYTE   N01  Cn2
 BYTE   W01
 BYTE   En1
 BYTE   N01  Bn1
 BYTE   W02
 BYTE   Ds1
 BYTE   N01  As1
 BYTE   W01
 BYTE   Dn1
 BYTE   N01  An1
 BYTE   W02
 BYTE   Cs1  v104
 BYTE   N01  Gs1
 BYTE   W01
 BYTE   Cn1
 BYTE   N01  Gn1
 BYTE   W01
 BYTE   Bn0
 BYTE   N01  Fs1
 BYTE   W01
 BYTE   As0
 BYTE   N01  Fn1
 BYTE   W01
 BYTE   An0
 BYTE   N01  En1
 BYTE   W01
 BYTE   Gs0
 BYTE   N01  Ds1
 BYTE   W01
 BYTE   Fs0
 BYTE   N01  Cs1
 BYTE   W01
 BYTE   En0
 BYTE   N01  Bn0
 BYTE   W01
 BYTE   Dn0
 BYTE   N01  An0
 BYTE   W01
 BYTE   BnM1
 BYTE   N01  Fs0
 BYTE   W01
 BYTE   GsM1
 BYTE   N01  Ds0
 BYTE   W01
 BYTE   EnM1
 BYTE   N01  BnM1
 BYTE   W13
 BYTE   FINE

//**************** Track 7 (Midi-Chn.6) ****************//

SMTLevelUp_007:
//  #07 //000   ----------------------------------------
 BYTE   KEYSH   SMTLevelUp_key+0
 BYTE   VOICE   124
 BYTE   VOL   26*SMTLevelUp_mvl/mxv
 BYTE   N06  En1  v127
 BYTE   W06
 BYTE   N06
 BYTE   W06
 BYTE   N06
 BYTE   W06
 BYTE   N06
 BYTE   W06
 BYTE   N06
 BYTE   W06
 BYTE   N06
 BYTE   W06
 BYTE   N06
 BYTE   W06
 BYTE   Cn1
 BYTE   W06
 BYTE   N06
 BYTE   W12
 BYTE   En1
 BYTE   W12
 BYTE   Cn1
 BYTE   W06
 BYTE   N06
 BYTE   W06
 BYTE   En1
 BYTE   W12
//  #07 //001   ----------------------------------------
Label_01014806:
 BYTE   N06  Cn1  v127
 BYTE   W12
 BYTE   En1
 BYTE   W12
 BYTE   Cn1
 BYTE   W06
 BYTE   N06
 BYTE   W06
 BYTE   En1
 BYTE   W12
 BYTE   Cn1
 BYTE   W12
 BYTE   En1
 BYTE   W12
 BYTE   Cn1
 BYTE   W06
 BYTE   N06
 BYTE   W06
 BYTE   En1
 BYTE   W12
 BYTE   PEND 
//  #07 //002   ----------------------------------------
 BYTE   PATT
  POIN2 Label_01014806
//  #07 //003   ----------------------------------------
 BYTE   PATT
  POIN2 Label_01014806
//  #07 //004   ----------------------------------------
Label_01014827:
 BYTE   N06  Cn1  v127
 BYTE   W06
 BYTE   En1
 BYTE   W12
 BYTE   Cn1
 BYTE   W06
 BYTE   En1
 BYTE   W06
 BYTE   N06
 BYTE   W06
 BYTE   N06
 BYTE   W06
 BYTE   N06
 BYTE   W06
 BYTE   Cn1
 BYTE   W12
 BYTE   En1
 BYTE   W12
 BYTE   Cn1
 BYTE   W06
 BYTE   N06
 BYTE   W06
 BYTE   En1
 BYTE   W12
 BYTE   PEND 
//  #07 //005   ----------------------------------------
 BYTE   PATT
  POIN2 Label_01014806
//  #07 //006   ----------------------------------------
 BYTE   PATT
  POIN2 Label_01014806
//  #07 //007   ----------------------------------------
 BYTE   PATT
  POIN2 Label_01014806
//  #07 //008   ----------------------------------------
 BYTE   PATT
  POIN2 Label_01014827
//  #07 //009   ----------------------------------------
 BYTE   PATT
  POIN2 Label_01014806
//  #07 //010   ----------------------------------------
 BYTE   PATT
  POIN2 Label_01014806
//  #07 //011   ----------------------------------------
 BYTE   PATT
  POIN2 Label_01014806
//  #07 //012   ----------------------------------------
 BYTE   PATT
  POIN2 Label_01014827
//  #07 //013   ----------------------------------------
 BYTE   PATT
  POIN2 Label_01014806
//  #07 //014   ----------------------------------------
 BYTE   PATT
  POIN2 Label_01014806
//  #07 //015   ----------------------------------------
Label_01014874:
 BYTE   N06  Cn1  v127
 BYTE   W12
 BYTE   En1
 BYTE   W12
 BYTE   Cn1
 BYTE   W06
 BYTE   N06
 BYTE   W06
 BYTE   En1
 BYTE   W12
 BYTE   N06
 BYTE   W06
 BYTE   Cn1
 BYTE   W06
 BYTE   En1
 BYTE   W06
 BYTE   Cn1
 BYTE   W06
 BYTE   En1
 BYTE   W06
 BYTE   Cn1
 BYTE   W06
 BYTE   En1
 BYTE   W06
 BYTE   Cn1
 BYTE   W06
 BYTE   PEND 
//  #07 //016   ----------------------------------------
Label_01014891:
 BYTE   N06  En1  v127
 BYTE   W06
 BYTE   Cn1
 BYTE   W06
 BYTE   En1
 BYTE   W06
 BYTE   Cn1
 BYTE   W06
 BYTE   En1
 BYTE   W06
 BYTE   Cn1
 BYTE   W06
 BYTE   En1
 BYTE   W06
 BYTE   Cn1
 BYTE   W06
 BYTE   N06
 BYTE   W06
 BYTE   N06
 BYTE   W06
 BYTE   En1
 BYTE   W06
 BYTE   Cn1
 BYTE   W06
 BYTE   En1
 BYTE   W06
 BYTE   Cn1
 BYTE   W06
 BYTE   En1
 BYTE   W06
 BYTE   Cn1
 BYTE   W06
 BYTE   PEND 
//  #07 //017   ----------------------------------------
Label_010148B4:
 BYTE   N06  En1  v127
 BYTE   W06
 BYTE   N06
 BYTE   W06
 BYTE   N06
 BYTE   W06
 BYTE   N06
 BYTE   W06
 BYTE   N06
 BYTE   W06
 BYTE   N06
 BYTE   W06
 BYTE   N06
 BYTE   W06
 BYTE   N06
 BYTE   W06
 BYTE   Cn1
 BYTE   W12
 BYTE   En1
 BYTE   W12
 BYTE   Cn1
 BYTE   W06
 BYTE   N06
 BYTE   W06
 BYTE   En1
 BYTE   W12
//  #07 //018   ----------------------------------------
 BYTE   PATT
  POIN2 Label_01014806
//  #07 //019   ----------------------------------------
 BYTE   PATT
  POIN2 Label_01014806
//  #07 //020   ----------------------------------------
 BYTE   PATT
  POIN2 Label_01014806
//  #07 //021   ----------------------------------------
 BYTE   PATT
  POIN2 Label_01014827
//  #07 //022   ----------------------------------------
 BYTE   PATT
  POIN2 Label_01014806
//  #07 //023   ----------------------------------------
 BYTE   PATT
  POIN2 Label_01014806
//  #07 //024   ----------------------------------------
 BYTE   PATT
  POIN2 Label_01014806
//  #07 //025   ----------------------------------------
 BYTE   PATT
  POIN2 Label_01014827
//  #07 //026   ----------------------------------------
 BYTE   PATT
  POIN2 Label_01014806
//  #07 //027   ----------------------------------------
 BYTE   PATT
  POIN2 Label_01014806
//  #07 //028   ----------------------------------------
 BYTE   PATT
  POIN2 Label_01014806
//  #07 //029   ----------------------------------------
 BYTE   PATT
  POIN2 Label_01014827
//  #07 //030   ----------------------------------------
 BYTE   PATT
  POIN2 Label_01014806
//  #07 //031   ----------------------------------------
 BYTE   PATT
  POIN2 Label_01014806
//  #07 //032   ----------------------------------------
 BYTE   PATT
  POIN2 Label_01014874
//  #07 //033   ----------------------------------------
 BYTE   PATT
  POIN2 Label_01014891
//  #07 //034   ----------------------------------------
 BYTE   GoTo
  POIN2 Label_010148B4
//  #07 //035   ----------------------------------------
 BYTE   N06  En1  v127
 BYTE   W06
 BYTE   N06
 BYTE   W06
 BYTE   N06
 BYTE   W06
 BYTE   N06
 BYTE   W06
 BYTE   N06
 BYTE   W06
 BYTE   N06
 BYTE   W06
 BYTE   N06
 BYTE   W06
 BYTE   N06
 BYTE   W06
 BYTE   FINE

//******************************************************//
	ALIGN 4

SMTLevelUp:
	BYTE	7	// NumTrks
	BYTE	0	// NumBlks
	BYTE	SMTLevelUp_pri	// Priority
	BYTE	SMTLevelUp_rev	// Reverb.
    
	POIN2	SMTLevelUp_grp
    
	POIN2	SMTLevelUp_001
	POIN2	SMTLevelUp_002
	POIN2	SMTLevelUp_003
	POIN2	SMTLevelUp_004
	POIN2	SMTLevelUp_005
	POIN2	SMTLevelUp_006
	POIN2	SMTLevelUp_007

	
