//Event file generated from Sappy .s format.
	#include "MPlayDef.event"

	#define	Stick_grp  voicegroup000
	#define	Stick_pri  0
	#define	Stick_rev  0
	#define	Stick_mvl  127
	#define	Stick_key  0
	#define	Stick_tbs  1
	#define	Stick_exg  0
	#define	Stick_cmp  1

	// .rodata
	//	Stick
	ALIGN 4


//**************** Track 1 (Midi-Chn.0) ****************//

Stick_001:
// 000   ----------------------------------------
 BYTE   KEYSH   Stick_key+0
 BYTE   TEMPO   96*Stick_tbs/2
 BYTE   VOICE   74
 BYTE   MODT 0
 BYTE   LFOS 44
 BYTE   VOL   31*Stick_mvl/mxv
 BYTE   PAN   c_v+0
 BYTE   VOL   31*Stick_mvl/mxv
 BYTE   PAN   c_v+0
 BYTE   W96
// 001   ----------------------------------------
 BYTE   W96
// 002   ----------------------------------------
 BYTE   W96
// 003   ----------------------------------------
 BYTE   W96
// 004   ----------------------------------------
 BYTE   W96
// 005   ----------------------------------------
 BYTE   W96
// 006   ----------------------------------------
 BYTE   W96
// 007   ----------------------------------------
 BYTE   W96
// 008   ----------------------------------------
Label_0_01612412:
 BYTE   W96
// 009   ----------------------------------------
 BYTE   W96
// 010   ----------------------------------------
 BYTE   W96
// 011   ----------------------------------------
 BYTE   W96
// 012   ----------------------------------------
 BYTE   W96
// 013   ----------------------------------------
 BYTE   W96
// 014   ----------------------------------------
 BYTE   W96
// 015   ----------------------------------------
 BYTE   W96
// 016   ----------------------------------------
 BYTE   W84
 BYTE   N06  En4  v104
 BYTE   W01
 BYTE   BEND   c_v-14
 BYTE   W01
 BYTE   BEND   c_v-13
 BYTE   W01
 BYTE   BEND   c_v-12
 BYTE   W01
 BYTE   BEND   c_v-10
 BYTE   W01
 BYTE   BEND   c_v-9
 BYTE   W01
 BYTE   BEND   c_v-8
 BYTE   N06  En4  v028
 BYTE   W01
 BYTE   BEND   c_v-6
 BYTE   W01
 BYTE   BEND   c_v-5
 BYTE   W01
 BYTE   BEND   c_v-4
 BYTE   W01
 BYTE   BEND   c_v-2
 BYTE   W01
 BYTE   BEND   c_v+0
 BYTE   W01
// 017   ----------------------------------------
 BYTE   BEND   c_v-13
 BYTE   N06  Dn4  v104
 BYTE   W01
 BYTE   BEND   c_v-11
 BYTE   W01
 BYTE   BEND   c_v-10
 BYTE   W01
 BYTE   BEND   c_v-8
 BYTE   W01
 BYTE   BEND   c_v-7
 BYTE   W01
 BYTE   BEND   c_v-5
 BYTE   W01
 BYTE   BEND   c_v-4
 BYTE   N78  Dn4  v028
 BYTE   W01
 BYTE   BEND   c_v-2
 BYTE   W01
 BYTE   BEND   c_v+0
 BYTE   W01
 BYTE   BEND   c_v-1
 BYTE   W72
 BYTE   W03
 BYTE   N06  Gn4  v104
 BYTE   W06
 BYTE   Gn4  v028
 BYTE   W06
// 018   ----------------------------------------
 BYTE   BEND   c_v-15
 BYTE   W01
 BYTE   BEND   c_v-14
 BYTE   W01
 BYTE   BEND   c_v-12
 BYTE   W01
 BYTE   BEND   c_v-11
 BYTE   W01
 BYTE   BEND   c_v-10
 BYTE   W01
 BYTE   BEND   c_v-9
 BYTE   W01
 BYTE   BEND   c_v-7
 BYTE   N36
 BYTE   W01
 BYTE   BEND   c_v-6
 BYTE   W01
 BYTE   BEND   c_v-5
 BYTE   W01
 BYTE   BEND   c_v-4
 BYTE   W01
 BYTE   BEND   c_v-3
 BYTE   W01
 BYTE   BEND   c_v-2
 BYTE   W01
 BYTE   BEND   c_v-1
 BYTE   W01
 BYTE   BEND   c_v+1
 BYTE   W32
 BYTE   W03
 BYTE   BEND   c_v-12
 BYTE   W01
 BYTE   BEND   c_v-10
 BYTE   W01
 BYTE   BEND   c_v-8
 BYTE   W01
 BYTE   BEND   c_v-7
 BYTE   W01
 BYTE   BEND   c_v-5
 BYTE   W01
 BYTE   BEND   c_v-3
 BYTE   W01
 BYTE   BEND   c_v-2
 BYTE   N10
 BYTE   W01
 BYTE   BEND   c_v+0
 BYTE   W01
 BYTE   BEND   c_v+2
 BYTE   W08
 BYTE   N06  Fn4  v104
 BYTE   W06
 BYTE   N10  Fn4  v028
 BYTE   W10
 BYTE   N06  En4  v104
 BYTE   W06
 BYTE   N10  En4  v028
 BYTE   W10
// 019   ----------------------------------------
 BYTE   BEND   c_v-12
 BYTE   N06  Dn4  v104
 BYTE   W01
 BYTE   BEND   c_v-11
 BYTE   W01
 BYTE   BEND   c_v-9
 BYTE   W01
 BYTE   BEND   c_v-8
 BYTE   W01
 BYTE   BEND   c_v-7
 BYTE   W01
 BYTE   BEND   c_v-5
 BYTE   W01
 BYTE   BEND   c_v-4
 BYTE   N30  Dn4  v028
 BYTE   W01
 BYTE   BEND   c_v-3
 BYTE   W01
 BYTE   BEND   c_v-1
 BYTE   W01
 BYTE   BEND   c_v+0
 BYTE   W01
 BYTE   BEND   c_v+1
 BYTE   W24
 BYTE   W02
 BYTE   N06  En4  v104
 BYTE   W06
 BYTE   En4  v028
 BYTE   W06
 BYTE   Cn4  v104
 BYTE   N06  Dn4  v028
 BYTE   W06
 BYTE   N10  Cn4
 BYTE   W10
 BYTE   N06  Bn3  v104
 BYTE   W06
 BYTE   N10  Bn3  v028
 BYTE   W10
 BYTE   N06  Cn4  v104
 BYTE   W06
 BYTE   N10  Cn4  v028
 BYTE   W10
// 020   ----------------------------------------
 BYTE   BEND   c_v-16
 BYTE   N06  An4  v104
 BYTE   W01
 BYTE   BEND   c_v-14
 BYTE   W01
 BYTE   BEND   c_v-13
 BYTE   W01
 BYTE   BEND   c_v-12
 BYTE   W01
 BYTE   BEND   c_v-10
 BYTE   W01
 BYTE   BEND   c_v-9
 BYTE   W01
 BYTE   BEND   c_v-8
 BYTE   N48  An4  v028
 BYTE   W01
 BYTE   BEND   c_v-6
 BYTE   W01
 BYTE   BEND   c_v-5
 BYTE   W01
 BYTE   BEND   c_v-4
 BYTE   W01
 BYTE   BEND   c_v-2
 BYTE   W02
 BYTE   BEND   c_v+0
 BYTE   W44
 BYTE   BEND   c_v-13
 BYTE   W01
 BYTE   BEND   c_v-12
 BYTE   W01
 BYTE   BEND   c_v-11
 BYTE   W01
 BYTE   BEND   c_v-10
 BYTE   W01
 BYTE   BEND   c_v-8
 BYTE   W01
 BYTE   BEND   c_v-7
 BYTE   W01
 BYTE   BEND   c_v-6
 BYTE   W01
 BYTE   BEND   c_v-4
 BYTE   W01
 BYTE   BEND   c_v-3
 BYTE   W01
 BYTE   BEND   c_v-1
 BYTE   W01
 BYTE   BEND   c_v+0
 BYTE   N18
 BYTE   W18
 BYTE   N06  En4  v104
 BYTE   W06
 BYTE   En4  v028
 BYTE   W06
// 021   ----------------------------------------
 BYTE   Dn4  v104
 BYTE   W06
 BYTE   N66  Dn4  v028
 BYTE   W66
 BYTE   N06  Gn3  v104
 BYTE   W06
 BYTE   Gn3  v028
 BYTE   W06
 BYTE   Gn4  v104
 BYTE   W06
 BYTE   Gn4  v028
 BYTE   W06
// 022   ----------------------------------------
 BYTE   BEND   c_v-12
 BYTE   W01
 BYTE   BEND   c_v-11
 BYTE   W01
 BYTE   BEND   c_v-10
 BYTE   W01
 BYTE   BEND   c_v-9
 BYTE   W01
 BYTE   BEND   c_v-8
 BYTE   W01
 BYTE   BEND   c_v-7
 BYTE   W01
 BYTE   BEND   c_v-6
 BYTE   N36
 BYTE   W01
 BYTE   BEND   c_v-5
 BYTE   W01
 BYTE   BEND   c_v-4
 BYTE   W01
 BYTE   BEND   c_v-3
 BYTE   W01
 BYTE   BEND   c_v-2
 BYTE   W01
 BYTE   BEND   c_v-1
 BYTE   W01
 BYTE   BEND   c_v+0
 BYTE   W42
 BYTE   N10
 BYTE   W10
 BYTE   N06  An4  v104
 BYTE   W06
 BYTE   N10  An4  v028
 BYTE   W10
 BYTE   N06  Bn4  v104
 BYTE   W06
 BYTE   N10  Bn4  v028
 BYTE   W10
// 023   ----------------------------------------
 BYTE   BEND   c_v-11
 BYTE   N06  Bn4  v104
 BYTE   W01
 BYTE   BEND   c_v-10
 BYTE   W01
 BYTE   BEND   c_v-9
 BYTE   W01
 BYTE   BEND   c_v-8
 BYTE   W01
 BYTE   BEND   c_v-7
 BYTE   W01
 BYTE   BEND   c_v-6
 BYTE   W01
 BYTE   N18  Bn4  v028
 BYTE   W01
 BYTE   BEND   c_v-5
 BYTE   W01
 BYTE   BEND   c_v-4
 BYTE   W01
 BYTE   BEND   c_v-3
 BYTE   W01
 BYTE   BEND   c_v-2
 BYTE   W01
 BYTE   BEND   c_v-1
 BYTE   W13
 BYTE   N06  Cn5  v104
 BYTE   W06
 BYTE   Cn5  v028
 BYTE   W06
 BYTE   Bn4  v104
 BYTE   W06
 BYTE   N18  Bn4  v028
 BYTE   W18
 BYTE   N06  Gn4  v104
 BYTE   W06
 BYTE   N18  Gn4  v028
 BYTE   W18
 BYTE   N06  En4  v104
 BYTE   W06
 BYTE   En4  v028
 BYTE   W06
// 024   ----------------------------------------
 BYTE   BEND   c_v-12
 BYTE   N06  An4  v104
 BYTE   W01
 BYTE   BEND   c_v-11
 BYTE   W01
 BYTE   BEND   c_v-10
 BYTE   W01
 BYTE   BEND   c_v-9
 BYTE   W01
 BYTE   BEND   c_v-8
 BYTE   W01
 BYTE   BEND   c_v-7
 BYTE   W01
 BYTE   BEND   c_v-5
 BYTE   N42  An4  v028
 BYTE   W01
 BYTE   BEND   c_v-4
 BYTE   W01
 BYTE   BEND   c_v-3
 BYTE   W01
 BYTE   BEND   c_v-2
 BYTE   W01
 BYTE   BEND   c_v-1
 BYTE   W02
 BYTE   BEND   c_v+1
 BYTE   W84
// 025   ----------------------------------------
 BYTE   W36
 BYTE   N06  Cn4  v104
 BYTE   W06
 BYTE   Cn4  v028
 BYTE   W06
 BYTE   Bn3  v104
 BYTE   W06
 BYTE   N10  Bn3  v028
 BYTE   W10
 BYTE   N06  Cn4  v104
 BYTE   W06
 BYTE   N10  Cn4  v028
 BYTE   W10
 BYTE   N06  En4  v104
 BYTE   W06
 BYTE   N10  En4  v028
 BYTE   W10
// 026   ----------------------------------------
 BYTE   BEND   c_v-14
 BYTE   N06  An4  v104
 BYTE   W01
 BYTE   BEND   c_v-13
 BYTE   W01
 BYTE   BEND   c_v-12
 BYTE   W01
 BYTE   BEND   c_v-11
 BYTE   W01
 BYTE   BEND   c_v-10
 BYTE   W01
 BYTE   BEND   c_v-9
 BYTE   W01
 BYTE   BEND   c_v-7
 BYTE   N42  An4  v028
 BYTE   W01
 BYTE   BEND   c_v-6
 BYTE   W01
 BYTE   BEND   c_v-5
 BYTE   W01
 BYTE   BEND   c_v-4
 BYTE   W01
 BYTE   BEND   c_v-3
 BYTE   W01
 BYTE   BEND   c_v-2
 BYTE   W01
 BYTE   BEND   c_v+0
 BYTE   W01
 BYTE   BEND   c_v+1
 BYTE   W80
 BYTE   W03
// 027   ----------------------------------------
 BYTE   W96
// 028   ----------------------------------------
 BYTE   W96
// 029   ----------------------------------------
 BYTE   W96
// 030   ----------------------------------------
 BYTE   W96
// 031   ----------------------------------------
 BYTE   W96
// 032   ----------------------------------------
 BYTE   W96
// 033   ----------------------------------------
 BYTE   W96
// 034   ----------------------------------------
 BYTE   W96
// 035   ----------------------------------------
 BYTE   W96
// 036   ----------------------------------------
 BYTE   W96
// 037   ----------------------------------------
 BYTE   W96
// 038   ----------------------------------------
 BYTE   W96
// 039   ----------------------------------------
 BYTE   W96
// 040   ----------------------------------------
 BYTE   W96
// 041   ----------------------------------------
 BYTE   W96
// 042   ----------------------------------------
 BYTE   W96
// 043   ----------------------------------------
 BYTE   W96
// 044   ----------------------------------------
 BYTE   W96
// 045   ----------------------------------------
Label_0_01612619:
 BYTE   W36
 BYTE   N12  Cn4  v104
 BYTE   W12
 BYTE   N16  Bn3
 BYTE   W16
 BYTE   Cn4
 BYTE   W16
 BYTE   En4
 BYTE   W16
 BYTE   PEND 
// 046   ----------------------------------------
 BYTE   BEND   c_v-15
 BYTE   N48  An4
 BYTE   W01
 BYTE   BEND   c_v-14
 BYTE   W01
 BYTE   BEND   c_v-13
 BYTE   W01
 BYTE   BEND   c_v-12
 BYTE   W01
 BYTE   BEND   c_v-11
 BYTE   W01
 BYTE   BEND   c_v-10
 BYTE   W01
 BYTE   BEND   c_v-9
 BYTE   W01
 BYTE   BEND   c_v-7
 BYTE   W01
 BYTE   BEND   c_v-6
 BYTE   W01
 BYTE   BEND   c_v-5
 BYTE   W01
 BYTE   BEND   c_v-4
 BYTE   W01
 BYTE   BEND   c_v-3
 BYTE   W01
 BYTE   BEND   c_v-2
 BYTE   W01
 BYTE   BEND   c_v-1
 BYTE   W01
 BYTE   BEND   c_v+0
 BYTE   W80
 BYTE   W02
// 047   ----------------------------------------
 BYTE   W96
// 048   ----------------------------------------
 BYTE   W96
// 049   ----------------------------------------
 BYTE   PATT
  POIN2 Label_0_01612619
// 050   ----------------------------------------
 BYTE   N48  An4  v104
 BYTE   W01
 BYTE   BEND   c_v-13
 BYTE   W01
 BYTE   BEND   c_v-12
 BYTE   W01
 BYTE   BEND   c_v-11
 BYTE   W01
 BYTE   BEND   c_v-9
 BYTE   W01
 BYTE   BEND   c_v-8
 BYTE   W01
 BYTE   BEND   c_v-7
 BYTE   W01
 BYTE   BEND   c_v-6
 BYTE   W01
 BYTE   BEND   c_v-5
 BYTE   W01
 BYTE   BEND   c_v-4
 BYTE   W01
 BYTE   BEND   c_v-2
 BYTE   W02
 BYTE   BEND   c_v-1
 BYTE   W01
 BYTE   BEND   c_v+1
 BYTE   W80
 BYTE   W03
// 051   ----------------------------------------
 BYTE   W96
// 052   ----------------------------------------
 BYTE   GoTo
  POIN2 Label_0_01612412
// 053   ----------------------------------------
 BYTE   W96
 BYTE   FINE

//**************** Track 2 (Midi-Chn.1) ****************//

Stick_002:
// 000   ----------------------------------------
 BYTE   KEYSH   Stick_key+0
 BYTE   VOICE   74
 BYTE   MODT 0
 BYTE   LFOS 44
 BYTE   VOL   31*Stick_mvl/mxv
 BYTE   PAN   c_v+0
 BYTE   W96
// 001   ----------------------------------------
 BYTE   W96
// 002   ----------------------------------------
 BYTE   W96
// 003   ----------------------------------------
 BYTE   W96
// 004   ----------------------------------------
 BYTE   W96
// 005   ----------------------------------------
 BYTE   W96
// 006   ----------------------------------------
 BYTE   W96
// 007   ----------------------------------------
 BYTE   W96
// 008   ----------------------------------------
Label_1_0160FBC4:
 BYTE   W96
// 009   ----------------------------------------
 BYTE   W96
// 010   ----------------------------------------
 BYTE   W96
// 011   ----------------------------------------
 BYTE   W96
// 012   ----------------------------------------
 BYTE   W96
// 013   ----------------------------------------
 BYTE   W96
// 014   ----------------------------------------
 BYTE   W96
// 015   ----------------------------------------
 BYTE   W96
// 016   ----------------------------------------
 BYTE   W96
// 017   ----------------------------------------
 BYTE   W96
// 018   ----------------------------------------
 BYTE   W96
// 019   ----------------------------------------
 BYTE   W96
// 020   ----------------------------------------
 BYTE   W96
// 021   ----------------------------------------
 BYTE   W12
 BYTE   N24  An4  v116
 BYTE   W02
 BYTE   BEND   c_v-13
 BYTE   W01
 BYTE   BEND   c_v-12
 BYTE   W01
 BYTE   BEND   c_v-11
 BYTE   W01
 BYTE   BEND   c_v-10
 BYTE   W01
 BYTE   BEND   c_v-9
 BYTE   W01
 BYTE   BEND   c_v-8
 BYTE   W01
 BYTE   BEND   c_v-7
 BYTE   W01
 BYTE   BEND   c_v-6
 BYTE   W01
 BYTE   BEND   c_v-4
 BYTE   W02
 BYTE   BEND   c_v-3
 BYTE   W01
 BYTE   BEND   c_v-2
 BYTE   W01
 BYTE   BEND   c_v+0
 BYTE   W10
 BYTE   N12  En4
 BYTE   W12
 BYTE   N48  Dn4
 BYTE   W48
// 022   ----------------------------------------
 BYTE   W96
// 023   ----------------------------------------
 BYTE   W96
// 024   ----------------------------------------
 BYTE   W48
 BYTE   N16  Cn4
 BYTE   W16
 BYTE   Dn4
 BYTE   W16
 BYTE   En4
 BYTE   W16
// 025   ----------------------------------------
 BYTE   BEND   c_v-14
 BYTE   N48  Gn4
 BYTE   W01
 BYTE   BEND   c_v-13
 BYTE   W01
 BYTE   BEND   c_v-11
 BYTE   W01
 BYTE   BEND   c_v-10
 BYTE   W01
 BYTE   BEND   c_v-9
 BYTE   W01
 BYTE   BEND   c_v-8
 BYTE   W01
 BYTE   BEND   c_v-7
 BYTE   W01
 BYTE   BEND   c_v-5
 BYTE   W01
 BYTE   BEND   c_v-4
 BYTE   W01
 BYTE   BEND   c_v-3
 BYTE   W01
 BYTE   BEND   c_v-2
 BYTE   W01
 BYTE   BEND   c_v-1
 BYTE   W01
 BYTE   BEND   c_v+0
 BYTE   W84
// 026   ----------------------------------------
 BYTE   W36
 BYTE   N12  Cn4
 BYTE   W12
 BYTE   N16  An3
 BYTE   W16
 BYTE   Bn3
 BYTE   W16
 BYTE   Cn4
 BYTE   W16
// 027   ----------------------------------------
 BYTE   BEND   c_v-15
 BYTE   N24  En4
 BYTE   W01
 BYTE   BEND   c_v-13
 BYTE   W01
 BYTE   BEND   c_v-12
 BYTE   W01
 BYTE   BEND   c_v-11
 BYTE   W01
 BYTE   BEND   c_v-9
 BYTE   W01
 BYTE   BEND   c_v-8
 BYTE   W01
 BYTE   BEND   c_v-7
 BYTE   W01
 BYTE   BEND   c_v-5
 BYTE   W01
 BYTE   BEND   c_v-4
 BYTE   W01
 BYTE   BEND   c_v-3
 BYTE   W01
 BYTE   BEND   c_v-1
 BYTE   W01
 BYTE   BEND   c_v+0
 BYTE   W13
 BYTE   N12  Fn4
 BYTE   W12
 BYTE   N24  En4
 BYTE   W24
 BYTE   Dn4
 BYTE   W24
 BYTE   N12  Cn4
 BYTE   W12
// 028   ----------------------------------------
 BYTE   N96  En4
 BYTE   W96
// 029   ----------------------------------------
 BYTE   W96
// 030   ----------------------------------------
 BYTE   W96
// 031   ----------------------------------------
 BYTE   W96
// 032   ----------------------------------------
 BYTE   W96
// 033   ----------------------------------------
 BYTE   W96
// 034   ----------------------------------------
 BYTE   W96
// 035   ----------------------------------------
 BYTE   W96
// 036   ----------------------------------------
 BYTE   W96
// 037   ----------------------------------------
 BYTE   W96
// 038   ----------------------------------------
 BYTE   W96
// 039   ----------------------------------------
 BYTE   W96
// 040   ----------------------------------------
 BYTE   W96
// 041   ----------------------------------------
 BYTE   W96
// 042   ----------------------------------------
 BYTE   W96
// 043   ----------------------------------------
 BYTE   W96
// 044   ----------------------------------------
 BYTE   W48
 BYTE   N16  Cn4  v127
 BYTE   W16
 BYTE   Dn4
 BYTE   W16
 BYTE   En4
 BYTE   W16
// 045   ----------------------------------------
 BYTE   BEND   c_v-12
 BYTE   N48  Gn4
 BYTE   W01
 BYTE   BEND   c_v-11
 BYTE   W01
 BYTE   BEND   c_v-10
 BYTE   W01
 BYTE   BEND   c_v-9
 BYTE   W01
 BYTE   BEND   c_v-8
 BYTE   W01
 BYTE   BEND   c_v-7
 BYTE   W01
 BYTE   BEND   c_v-6
 BYTE   W01
 BYTE   BEND   c_v-5
 BYTE   W01
 BYTE   BEND   c_v-4
 BYTE   W01
 BYTE   BEND   c_v-3
 BYTE   W01
 BYTE   BEND   c_v-2
 BYTE   W01
 BYTE   BEND   c_v-1
 BYTE   W01
 BYTE   BEND   c_v+0
 BYTE   W24
 BYTE   N12  Cn4
 BYTE   W12
 BYTE   N16  Bn3
 BYTE   W16
 BYTE   Cn4
 BYTE   W16
 BYTE   En4
 BYTE   W16
// 046   ----------------------------------------
 BYTE   BEND   c_v-11
 BYTE   N48  An4
 BYTE   W01
 BYTE   BEND   c_v-10
 BYTE   W01
 BYTE   BEND   c_v-9
 BYTE   W01
 BYTE   BEND   c_v-7
 BYTE   W01
 BYTE   BEND   c_v-6
 BYTE   W01
 BYTE   BEND   c_v-5
 BYTE   W01
 BYTE   BEND   c_v-4
 BYTE   W01
 BYTE   BEND   c_v-3
 BYTE   W01
 BYTE   BEND   c_v-2
 BYTE   W01
 BYTE   BEND   c_v+0
 BYTE   W24
 BYTE   W03
 BYTE   N12  Cn4
 BYTE   W12
 BYTE   N16  An3
 BYTE   W16
 BYTE   Bn3
 BYTE   W16
 BYTE   Cn4
 BYTE   W15
 BYTE   BEND   c_v-10
 BYTE   W01
// 047   ----------------------------------------
 BYTE   BEND   c_v-9
 BYTE   N24  En4
 BYTE   W01
 BYTE   BEND   c_v-8
 BYTE   W01
 BYTE   BEND   c_v-7
 BYTE   W01
 BYTE   BEND   c_v-6
 BYTE   W01
 BYTE   BEND   c_v-5
 BYTE   W01
 BYTE   BEND   c_v-3
 BYTE   W01
 BYTE   BEND   c_v-2
 BYTE   W01
 BYTE   BEND   c_v-1
 BYTE   W01
 BYTE   BEND   c_v+0
 BYTE   W16
 BYTE   N12  Fn4
 BYTE   W12
 BYTE   N24  En4
 BYTE   W24
 BYTE   Dn4
 BYTE   W24
 BYTE   N12  Cn4
 BYTE   W12
// 048   ----------------------------------------
 BYTE   BEND   c_v-14
 BYTE   N48  En4
 BYTE   W01
 BYTE   BEND   c_v-12
 BYTE   W01
 BYTE   BEND   c_v-11
 BYTE   W01
 BYTE   BEND   c_v-9
 BYTE   W01
 BYTE   BEND   c_v-8
 BYTE   W01
 BYTE   BEND   c_v-6
 BYTE   W01
 BYTE   BEND   c_v-5
 BYTE   W01
 BYTE   BEND   c_v-3
 BYTE   W01
 BYTE   BEND   c_v-2
 BYTE   W01
 BYTE   BEND   c_v+0
 BYTE   W36
 BYTE   W03
 BYTE   N16  Cn4
 BYTE   W16
 BYTE   Dn4
 BYTE   W16
 BYTE   En4
 BYTE   W16
// 049   ----------------------------------------
 BYTE   BEND   c_v-11
 BYTE   N48  Gn4
 BYTE   W01
 BYTE   BEND   c_v-10
 BYTE   W01
 BYTE   BEND   c_v-9
 BYTE   W01
 BYTE   BEND   c_v-8
 BYTE   W01
 BYTE   BEND   c_v-7
 BYTE   W01
 BYTE   BEND   c_v-6
 BYTE   W01
 BYTE   BEND   c_v-5
 BYTE   W01
 BYTE   BEND   c_v-3
 BYTE   W01
 BYTE   BEND   c_v-2
 BYTE   W01
 BYTE   BEND   c_v-1
 BYTE   W01
 BYTE   BEND   c_v+0
 BYTE   W24
 BYTE   W02
 BYTE   N12  Cn4
 BYTE   W12
 BYTE   N16  Bn3
 BYTE   W16
 BYTE   Cn4
 BYTE   W16
 BYTE   En4
 BYTE   W16
// 050   ----------------------------------------
 BYTE   BEND   c_v-10
 BYTE   N48  An4
 BYTE   W01
 BYTE   BEND   c_v-9
 BYTE   W01
 BYTE   BEND   c_v-8
 BYTE   W01
 BYTE   BEND   c_v-7
 BYTE   W01
 BYTE   BEND   c_v-6
 BYTE   W01
 BYTE   BEND   c_v-5
 BYTE   W01
 BYTE   BEND   c_v-4
 BYTE   W01
 BYTE   BEND   c_v-3
 BYTE   W01
 BYTE   BEND   c_v-2
 BYTE   W01
 BYTE   BEND   c_v-1
 BYTE   W01
 BYTE   BEND   c_v+0
 BYTE   W24
 BYTE   W02
 BYTE   N12  Cn4
 BYTE   W12
 BYTE   N16  An3
 BYTE   W16
 BYTE   Bn3
 BYTE   W16
 BYTE   Cn4
 BYTE   W16
// 051   ----------------------------------------
 BYTE   N24  En4
 BYTE   W24
 BYTE   N12  Fn4
 BYTE   W12
 BYTE   N24  En4
 BYTE   W24
 BYTE   N12  Fn4
 BYTE   W12
 BYTE   N24  Dn4
 BYTE   W24
// 052   ----------------------------------------
 BYTE   GoTo
  POIN2 Label_1_0160FBC4
// 053   ----------------------------------------
 BYTE   W96
 BYTE   FINE

//**************** Track 3 (Midi-Chn.2) ****************//

Stick_003:
// 000   ----------------------------------------
 BYTE   KEYSH   Stick_key+0
 BYTE   VOICE   74
 BYTE   MODT 0
 BYTE   LFOS 44
 BYTE   VOL   31*Stick_mvl/mxv
 BYTE   PAN   c_v+0
 BYTE   W96
// 001   ----------------------------------------
 BYTE   W96
// 002   ----------------------------------------
 BYTE   W96
// 003   ----------------------------------------
 BYTE   W96
// 004   ----------------------------------------
 BYTE   W96
// 005   ----------------------------------------
 BYTE   W96
// 006   ----------------------------------------
 BYTE   W96
// 007   ----------------------------------------
 BYTE   W96
// 008   ----------------------------------------
Label_2_014AF348:
 BYTE   W60
 BYTE   N12  Bn3  v068
 BYTE   W12
 BYTE   Cn4
 BYTE   W12
 BYTE   Gn4
 BYTE   W12
// 009   ----------------------------------------
 BYTE   W12
 BYTE   Bn3  v020
 BYTE   W12
 BYTE   Cn4
 BYTE   W12
 BYTE   Gn4
 BYTE   W60
// 010   ----------------------------------------
 BYTE   W60
 BYTE   Gn4  v036
 BYTE   W12
 BYTE   An4
 BYTE   W12
 BYTE   En4
 BYTE   W12
// 011   ----------------------------------------
 BYTE   W96
// 012   ----------------------------------------
 BYTE   W96
// 013   ----------------------------------------
 BYTE   W96
// 014   ----------------------------------------
 BYTE   W96
// 015   ----------------------------------------
 BYTE   W96
// 016   ----------------------------------------
 BYTE   W96
// 017   ----------------------------------------
 BYTE   W96
// 018   ----------------------------------------
 BYTE   W96
// 019   ----------------------------------------
 BYTE   W96
// 020   ----------------------------------------
 BYTE   W96
// 021   ----------------------------------------
 BYTE   W96
// 022   ----------------------------------------
 BYTE   W96
// 023   ----------------------------------------
 BYTE   W96
// 024   ----------------------------------------
 BYTE   W96
// 025   ----------------------------------------
 BYTE   W96
// 026   ----------------------------------------
 BYTE   W96
// 027   ----------------------------------------
 BYTE   W96
// 028   ----------------------------------------
 BYTE   W96
// 029   ----------------------------------------
 BYTE   W96
// 030   ----------------------------------------
 BYTE   W96
// 031   ----------------------------------------
 BYTE   W96
// 032   ----------------------------------------
 BYTE   W96
// 033   ----------------------------------------
 BYTE   W96
// 034   ----------------------------------------
 BYTE   W96
// 035   ----------------------------------------
 BYTE   W96
// 036   ----------------------------------------
 BYTE   W48
 BYTE   N10  Dn4  v072
 BYTE   W12
 BYTE   En4
 BYTE   W12
 BYTE   Dn4
 BYTE   W12
 BYTE   N06  Cn4
 BYTE   W06
 BYTE   N18  Dn4
 BYTE   W06
// 037   ----------------------------------------
 BYTE   W12
 BYTE   N12  En4
 BYTE   W12
 BYTE   Dn4  v028
 BYTE   W12
 BYTE   N06  Cn4
 BYTE   W06
 BYTE   N18  Dn4
 BYTE   W18
 BYTE   N12  En4
 BYTE   W12
 BYTE   Dn4  v008
 BYTE   W12
 BYTE   N06  Cn4
 BYTE   W06
 BYTE   N18  Dn4
 BYTE   W06
// 038   ----------------------------------------
 BYTE   W12
 BYTE   N12  En4
 BYTE   W36
 BYTE   Dn4  v072
 BYTE   W12
 BYTE   En4
 BYTE   W12
 BYTE   Gn4
 BYTE   W12
 BYTE   En4
 BYTE   W12
// 039   ----------------------------------------
 BYTE   N36  Dn4
 BYTE   W36
 BYTE   N06  En4
 BYTE   W06
 BYTE   Dn4
 BYTE   W06
 BYTE   N24  Cn4
 BYTE   W24
 BYTE   N12  Bn3
 BYTE   W12
 BYTE   Cn4
 BYTE   W12
// 040   ----------------------------------------
 BYTE   N54  An4
 BYTE   W60
 BYTE   N24
 BYTE   W24
 BYTE   N12  En4
 BYTE   W12
// 041   ----------------------------------------
 BYTE   N60  Dn4
 BYTE   W60
 BYTE   N06  Gn3
 BYTE   W12
 BYTE   N12
 BYTE   W12
 BYTE   N06  Gn4
 BYTE   W12
// 042   ----------------------------------------
 BYTE   N42
 BYTE   W48
 BYTE   N16
 BYTE   W16
 BYTE   An4
 BYTE   W16
 BYTE   Bn4
 BYTE   W16
// 043   ----------------------------------------
 BYTE   N24
 BYTE   W24
 BYTE   N12  Cn5
 BYTE   W12
 BYTE   N24  Bn4
 BYTE   W24
 BYTE   Gn4
 BYTE   W24
 BYTE   N12  En4
 BYTE   W12
// 044   ----------------------------------------
 BYTE   N36  An4
 BYTE   W96
// 045   ----------------------------------------
 BYTE   W96
// 046   ----------------------------------------
 BYTE   W96
// 047   ----------------------------------------
 BYTE   W96
// 048   ----------------------------------------
 BYTE   W96
// 049   ----------------------------------------
 BYTE   W96
// 050   ----------------------------------------
 BYTE   W96
// 051   ----------------------------------------
 BYTE   W96
// 052   ----------------------------------------
 BYTE   GoTo
  POIN2 Label_2_014AF348
// 053   ----------------------------------------
 BYTE   W96
 BYTE   FINE

//**************** Track 4 (Midi-Chn.3) ****************//

Stick_004:
// 000   ----------------------------------------
 BYTE   KEYSH   Stick_key+0
 BYTE   VOICE   74
 BYTE   MODT 0
 BYTE   LFOS 44
 BYTE   VOL   31*Stick_mvl/mxv
 BYTE   PAN   c_v-32
 BYTE   VOL   31*Stick_mvl/mxv
 BYTE   PAN   c_v-32
 BYTE   W96
// 001   ----------------------------------------
 BYTE   W96
// 002   ----------------------------------------
 BYTE   W96
// 003   ----------------------------------------
 BYTE   W96
// 004   ----------------------------------------
 BYTE   W96
// 005   ----------------------------------------
 BYTE   W96
// 006   ----------------------------------------
 BYTE   W96
// 007   ----------------------------------------
 BYTE   W96
// 008   ----------------------------------------
Label_3_014AF0E8:
 BYTE   W66
 BYTE   N05  Bn3  v016
 BYTE   W05
 BYTE   N06  Bn3  v012
 BYTE   W07
 BYTE   N05  Cn4  v016
 BYTE   W05
 BYTE   N06  Cn4  v012
 BYTE   W07
 BYTE   N05  Gn4  v016
 BYTE   W05
 BYTE   N06  Gn4  v012
 BYTE   W01
// 009   ----------------------------------------
 BYTE   W18
 BYTE   N05  Bn3  v016
 BYTE   W05
 BYTE   N06  Bn3  v012
 BYTE   W07
 BYTE   N05  Cn4  v016
 BYTE   W05
 BYTE   N06  Cn4  v012
 BYTE   W07
 BYTE   N05  Gn4  v016
 BYTE   W05
 BYTE   N06  Gn4  v012
 BYTE   W19
 BYTE   N05  Bn3  v016
 BYTE   W05
 BYTE   N06  Bn3  v012
 BYTE   W07
 BYTE   N05  Cn4  v016
 BYTE   W05
 BYTE   N06  Cn4  v012
 BYTE   W07
 BYTE   N05  Gn4  v016
 BYTE   W05
 BYTE   N06  Gn4  v012
 BYTE   W01
// 010   ----------------------------------------
 BYTE   W66
 BYTE   N05  Gn4  v016
 BYTE   W05
 BYTE   N07
 BYTE   W07
 BYTE   N05  An4
 BYTE   W05
 BYTE   N07
 BYTE   W07
 BYTE   N05  En4
 BYTE   W05
 BYTE   N07
 BYTE   W01
// 011   ----------------------------------------
 BYTE   W96
// 012   ----------------------------------------
 BYTE   W96
// 013   ----------------------------------------
 BYTE   W96
// 014   ----------------------------------------
 BYTE   W96
// 015   ----------------------------------------
 BYTE   W96
// 016   ----------------------------------------
 BYTE   W96
// 017   ----------------------------------------
 BYTE   W96
// 018   ----------------------------------------
 BYTE   W96
// 019   ----------------------------------------
 BYTE   W96
// 020   ----------------------------------------
 BYTE   W96
// 021   ----------------------------------------
 BYTE   W96
// 022   ----------------------------------------
 BYTE   W96
// 023   ----------------------------------------
 BYTE   W96
// 024   ----------------------------------------
 BYTE   W96
// 025   ----------------------------------------
 BYTE   W96
// 026   ----------------------------------------
 BYTE   W96
// 027   ----------------------------------------
 BYTE   W96
// 028   ----------------------------------------
 BYTE   W96
// 029   ----------------------------------------
 BYTE   W96
// 030   ----------------------------------------
 BYTE   W96
// 031   ----------------------------------------
 BYTE   W96
// 032   ----------------------------------------
 BYTE   W96
// 033   ----------------------------------------
 BYTE   W96
// 034   ----------------------------------------
 BYTE   W96
// 035   ----------------------------------------
 BYTE   W96
// 036   ----------------------------------------
 BYTE   W54
 BYTE   N06  Dn4  v020
 BYTE   W06
 BYTE   N04  Dn4  v012
 BYTE   W06
 BYTE   N06  En4  v020
 BYTE   W06
 BYTE   N04  En4  v012
 BYTE   W06
 BYTE   N06  Dn4  v020
 BYTE   W06
 BYTE   N04  Dn4  v012
 BYTE   W06
 BYTE   N06  Cn4  v020
 BYTE   W06
// 037   ----------------------------------------
 BYTE   Cn4  v012
 BYTE   N06  Dn4  v020
 BYTE   W06
 BYTE   N12  Dn4  v012
 BYTE   W12
 BYTE   N06  En4  v020
 BYTE   W06
 BYTE   En4  v012
 BYTE   W06
 BYTE   Dn4  v020
 BYTE   W06
 BYTE   Dn4  v012
 BYTE   W06
 BYTE   Cn4  v020
 BYTE   W06
 BYTE   Cn4  v012
 BYTE   W06
 BYTE   N12  Dn4
 BYTE   W12
 BYTE   N06  En4  v020
 BYTE   W06
 BYTE   En4  v012
 BYTE   W06
 BYTE   Dn4  v020
 BYTE   W06
 BYTE   Dn4  v012
 BYTE   W06
 BYTE   Cn4  v020
 BYTE   W06
// 038   ----------------------------------------
 BYTE   Cn4  v012
 BYTE   W06
 BYTE   N12  Dn4
 BYTE   W12
 BYTE   N06  En4  v020
 BYTE   W06
 BYTE   En4  v012
 BYTE   W30
 BYTE   Dn4  v020
 BYTE   W06
 BYTE   Dn4  v012
 BYTE   W06
 BYTE   En4  v020
 BYTE   W06
 BYTE   En4  v012
 BYTE   W06
 BYTE   Gn4  v020
 BYTE   W06
 BYTE   Gn4  v012
 BYTE   W06
 BYTE   En4  v020
 BYTE   W06
// 039   ----------------------------------------
 BYTE   En4  v012
 BYTE   W06
 BYTE   Dn4  v020
 BYTE   W06
 BYTE   N30  Dn4  v012
 BYTE   W30
 BYTE   N06  En4  v020
 BYTE   W06
 BYTE   En4  v012
 BYTE   W06
 BYTE   Cn4  v020
 BYTE   N06  Dn4  v012
 BYTE   W06
 BYTE   N18  Cn4
 BYTE   W18
 BYTE   N06  Bn3  v020
 BYTE   W06
 BYTE   Bn3  v012
 BYTE   W06
 BYTE   Cn4  v020
 BYTE   W06
// 040   ----------------------------------------
 BYTE   Cn4  v012
 BYTE   W06
 BYTE   An4  v020
 BYTE   W06
 BYTE   N48  An4  v012
 BYTE   W60
 BYTE   N18
 BYTE   W18
 BYTE   N06  En4  v020
 BYTE   W06
// 041   ----------------------------------------
 BYTE   En4  v012
 BYTE   W06
 BYTE   Dn4  v020
 BYTE   W06
 BYTE   N54  Dn4  v012
 BYTE   W54
 BYTE   N06  Gn3  v020
 BYTE   W06
 BYTE   Gn3  v012
 BYTE   W12
 BYTE   N06
 BYTE   W06
 BYTE   Gn4  v020
 BYTE   W06
// 042   ----------------------------------------
 BYTE   Gn4  v012
 BYTE   W12
 BYTE   N36
 BYTE   W48
 BYTE   N10
 BYTE   W10
 BYTE   N06  An4  v020
 BYTE   W06
 BYTE   N10  An4  v012
 BYTE   W10
 BYTE   N06  Bn4  v020
 BYTE   W06
 BYTE   N10  Bn4  v012
 BYTE   W04
// 043   ----------------------------------------
 BYTE   W06
 BYTE   N06  Bn4  v020
 BYTE   W06
 BYTE   N18  Bn4  v012
 BYTE   W18
 BYTE   N06  Cn5  v020
 BYTE   W06
 BYTE   Cn5  v012
 BYTE   W06
 BYTE   Bn4  v020
 BYTE   W06
 BYTE   N18  Bn4  v012
 BYTE   W18
 BYTE   N06  Gn4  v020
 BYTE   W06
 BYTE   N18  Gn4  v012
 BYTE   W18
 BYTE   N06  En4  v020
 BYTE   W06
// 044   ----------------------------------------
 BYTE   En4  v012
 BYTE   W06
 BYTE   An4  v020
 BYTE   W06
 BYTE   N30  An4  v012
 BYTE   W84
// 045   ----------------------------------------
 BYTE   W96
// 046   ----------------------------------------
 BYTE   W96
// 047   ----------------------------------------
 BYTE   W96
// 048   ----------------------------------------
 BYTE   W96
// 049   ----------------------------------------
 BYTE   W96
// 050   ----------------------------------------
 BYTE   W96
// 051   ----------------------------------------
 BYTE   W96
// 052   ----------------------------------------
 BYTE   GoTo
  POIN2 Label_3_014AF0E8
// 053   ----------------------------------------
 BYTE   W96
 BYTE   FINE

//**************** Track 5 (Midi-Chn.4) ****************//

Stick_005:
// 000   ----------------------------------------
 BYTE   KEYSH   Stick_key+0
 BYTE   VOICE   13
 BYTE   MODT 0
 BYTE   LFOS 44
 BYTE   VOL   31*Stick_mvl/mxv
 BYTE   PAN   c_v-32
 BYTE   W96
// 001   ----------------------------------------
 BYTE   W96
// 002   ----------------------------------------
 BYTE   W96
// 003   ----------------------------------------
 BYTE   W96
// 004   ----------------------------------------
 BYTE   W96
// 005   ----------------------------------------
 BYTE   W96
// 006   ----------------------------------------
 BYTE   W96
// 007   ----------------------------------------
 BYTE   W96
// 008   ----------------------------------------
Label_4_0161034C:
 BYTE   W96
// 009   ----------------------------------------
 BYTE   W96
// 010   ----------------------------------------
 BYTE   W96
// 011   ----------------------------------------
 BYTE   W96
// 012   ----------------------------------------
 BYTE   W60
 BYTE   N12  Bn4  v100
 BYTE   W12
 BYTE   Cn5
 BYTE   W12
 BYTE   Gn5
 BYTE   W12
// 013   ----------------------------------------
 BYTE   W12
 BYTE   Bn4  v072
 BYTE   W12
 BYTE   Cn5
 BYTE   W12
 BYTE   Gn5
 BYTE   W24
 BYTE   Bn4  v028
 BYTE   W12
 BYTE   Cn5
 BYTE   W12
 BYTE   Gn5
 BYTE   W12
// 014   ----------------------------------------
 BYTE   W36
 BYTE   Cn6  v100
 BYTE   W12
 BYTE   Bn5
 BYTE   W12
 BYTE   Gn5
 BYTE   W12
 BYTE   En5
 BYTE   W12
 BYTE   N48  An5
 BYTE   W12
// 015   ----------------------------------------
 BYTE   W96
// 016   ----------------------------------------
 BYTE   W96
// 017   ----------------------------------------
 BYTE   W96
// 018   ----------------------------------------
 BYTE   W96
// 019   ----------------------------------------
 BYTE   W96
// 020   ----------------------------------------
 BYTE   W96
// 021   ----------------------------------------
 BYTE   W96
// 022   ----------------------------------------
 BYTE   W96
// 023   ----------------------------------------
 BYTE   W96
// 024   ----------------------------------------
 BYTE   W96
// 025   ----------------------------------------
 BYTE   W96
// 026   ----------------------------------------
 BYTE   W96
// 027   ----------------------------------------
 BYTE   W96
// 028   ----------------------------------------
 BYTE   W96
// 029   ----------------------------------------
 BYTE   W96
// 030   ----------------------------------------
 BYTE   W96
// 031   ----------------------------------------
 BYTE   W96
// 032   ----------------------------------------
 BYTE   W96
// 033   ----------------------------------------
 BYTE   W96
// 034   ----------------------------------------
 BYTE   W96
// 035   ----------------------------------------
 BYTE   W96
// 036   ----------------------------------------
 BYTE   W96
// 037   ----------------------------------------
 BYTE   W96
// 038   ----------------------------------------
 BYTE   W96
// 039   ----------------------------------------
 BYTE   W96
// 040   ----------------------------------------
 BYTE   W96
// 041   ----------------------------------------
 BYTE   W96
// 042   ----------------------------------------
 BYTE   W96
// 043   ----------------------------------------
 BYTE   W96
// 044   ----------------------------------------
 BYTE   W96
// 045   ----------------------------------------
 BYTE   W96
// 046   ----------------------------------------
 BYTE   W96
// 047   ----------------------------------------
 BYTE   W96
// 048   ----------------------------------------
 BYTE   W96
// 049   ----------------------------------------
 BYTE   W96
// 050   ----------------------------------------
 BYTE   W96
// 051   ----------------------------------------
 BYTE   W96
// 052   ----------------------------------------
 BYTE   GoTo
  POIN2 Label_4_0161034C
// 053   ----------------------------------------
 BYTE   W96
 BYTE   FINE

//**************** Track 6 (Midi-Chn.5) ****************//

Stick_006:
// 000   ----------------------------------------
 BYTE   KEYSH   Stick_key+0
 BYTE   VOICE   13
 BYTE   MODT 0
 BYTE   LFOS 44
 BYTE   VOL   17*Stick_mvl/mxv
 BYTE   PAN   c_v+32
 BYTE   VOL   17*Stick_mvl/mxv
 BYTE   PAN   c_v+32
 BYTE   W96
// 001   ----------------------------------------
 BYTE   W96
// 002   ----------------------------------------
 BYTE   W96
// 003   ----------------------------------------
 BYTE   W96
// 004   ----------------------------------------
 BYTE   W96
// 005   ----------------------------------------
 BYTE   W96
// 006   ----------------------------------------
 BYTE   W96
// 007   ----------------------------------------
 BYTE   W96
// 008   ----------------------------------------
Label_5_014AE07C:
 BYTE   W96
// 009   ----------------------------------------
 BYTE   W96
// 010   ----------------------------------------
 BYTE   W96
// 011   ----------------------------------------
 BYTE   W96
// 012   ----------------------------------------
 BYTE   W66
 BYTE   N05  Bn4  v024
 BYTE   W05
 BYTE   N06  Bn4  v020
 BYTE   W07
 BYTE   N05  Cn5  v024
 BYTE   W05
 BYTE   N06  Cn5  v020
 BYTE   W07
 BYTE   N05  Gn5  v024
 BYTE   W05
 BYTE   N06  Gn5  v020
 BYTE   W01
// 013   ----------------------------------------
 BYTE   W18
 BYTE   N05  Bn4  v024
 BYTE   W05
 BYTE   N06  Bn4  v020
 BYTE   W07
 BYTE   N05  Cn5  v024
 BYTE   W05
 BYTE   N06  Cn5  v020
 BYTE   W07
 BYTE   N05  Gn5  v024
 BYTE   W05
 BYTE   N06  Gn5  v020
 BYTE   W19
 BYTE   N05  Bn4  v024
 BYTE   W05
 BYTE   N06  Bn4  v020
 BYTE   W07
 BYTE   N05  Cn5  v024
 BYTE   W05
 BYTE   N06  Cn5  v020
 BYTE   W07
 BYTE   N05  Gn5  v024
 BYTE   W05
 BYTE   N06  Gn5  v020
 BYTE   W01
// 014   ----------------------------------------
 BYTE   W42
 BYTE   N05  Cn6  v024
 BYTE   W05
 BYTE   N06  Cn6  v020
 BYTE   W07
 BYTE   N05  Bn5  v024
 BYTE   W05
 BYTE   N06  Bn5  v020
 BYTE   W07
 BYTE   N05  Gn5  v024
 BYTE   W05
 BYTE   N06  Gn5  v020
 BYTE   W07
 BYTE   N05  En5  v024
 BYTE   W05
 BYTE   N06  En5  v020
 BYTE   W07
 BYTE   N05  An5  v024
 BYTE   W05
 BYTE   N18  An5  v020
 BYTE   W01
// 015   ----------------------------------------
 BYTE   W96
// 016   ----------------------------------------
 BYTE   W96
// 017   ----------------------------------------
 BYTE   W96
// 018   ----------------------------------------
 BYTE   W96
// 019   ----------------------------------------
 BYTE   W96
// 020   ----------------------------------------
 BYTE   W96
// 021   ----------------------------------------
 BYTE   W96
// 022   ----------------------------------------
 BYTE   W96
// 023   ----------------------------------------
 BYTE   W96
// 024   ----------------------------------------
 BYTE   W96
// 025   ----------------------------------------
 BYTE   W96
// 026   ----------------------------------------
 BYTE   W96
// 027   ----------------------------------------
 BYTE   W96
// 028   ----------------------------------------
 BYTE   W96
// 029   ----------------------------------------
 BYTE   W96
// 030   ----------------------------------------
 BYTE   W96
// 031   ----------------------------------------
 BYTE   W96
// 032   ----------------------------------------
 BYTE   W96
// 033   ----------------------------------------
 BYTE   W96
// 034   ----------------------------------------
 BYTE   W96
// 035   ----------------------------------------
 BYTE   W96
// 036   ----------------------------------------
 BYTE   W96
// 037   ----------------------------------------
 BYTE   W96
// 038   ----------------------------------------
 BYTE   W96
// 039   ----------------------------------------
 BYTE   W96
// 040   ----------------------------------------
 BYTE   W96
// 041   ----------------------------------------
 BYTE   W96
// 042   ----------------------------------------
 BYTE   W96
// 043   ----------------------------------------
 BYTE   W96
// 044   ----------------------------------------
 BYTE   W96
// 045   ----------------------------------------
 BYTE   W96
// 046   ----------------------------------------
 BYTE   W96
// 047   ----------------------------------------
 BYTE   W96
// 048   ----------------------------------------
 BYTE   W96
// 049   ----------------------------------------
 BYTE   W96
// 050   ----------------------------------------
 BYTE   W96
// 051   ----------------------------------------
 BYTE   W96
// 052   ----------------------------------------
 BYTE   GoTo
  POIN2 Label_5_014AE07C
// 053   ----------------------------------------
 BYTE   W96
 BYTE   FINE

//**************** Track 7 (Midi-Chn.6) ****************//

Stick_007:
// 000   ----------------------------------------
 BYTE   KEYSH   Stick_key+0
 BYTE   VOICE   105
 BYTE   MODT 0
 BYTE   LFOS 44
 BYTE   VOL   20*Stick_mvl/mxv
 BYTE   PAN   c_v-32
 BYTE   W12
 BYTE   N06  Bn3  v072
 BYTE   W12
 BYTE   Cn4
 BYTE   W18
 BYTE   Bn3
 BYTE   W18
 BYTE   Cn4
 BYTE   W12
 BYTE   Gn3
 BYTE   W24
// 001   ----------------------------------------
Label_6_014B3E6D:
 BYTE   W12
 BYTE   N06  Bn3  v072
 BYTE   W12
 BYTE   Cn4
 BYTE   W18
 BYTE   Bn3
 BYTE   W18
 BYTE   Cn4
 BYTE   W12
 BYTE   Gn3
 BYTE   W24
 BYTE   PEND 
// 002   ----------------------------------------
 BYTE   PATT
  POIN2 Label_6_014B3E6D
// 003   ----------------------------------------
Label_6_014B3E80:
 BYTE   W12
 BYTE   N06  Bn3  v072
 BYTE   W12
 BYTE   Cn4
 BYTE   W18
 BYTE   Bn3
 BYTE   W18
 BYTE   Cn4
 BYTE   W12
 BYTE   Gn3
 BYTE   W12
 BYTE   Gn4
 BYTE   W06
 BYTE   N06
 BYTE   W06
 BYTE   PEND 
// 004   ----------------------------------------
 BYTE   PATT
  POIN2 Label_6_014B3E6D
// 005   ----------------------------------------
 BYTE   PATT
  POIN2 Label_6_014B3E6D
// 006   ----------------------------------------
 BYTE   PATT
  POIN2 Label_6_014B3E6D
// 007   ----------------------------------------
 BYTE   PATT
  POIN2 Label_6_014B3E80
// 008   ----------------------------------------
Label_6_014B3EA6:
 BYTE   VOL   20*Stick_mvl/mxv
 BYTE   W12
 BYTE   N06  Bn3  v072
 BYTE   W12
 BYTE   Cn4
 BYTE   W18
 BYTE   Bn3
 BYTE   W18
 BYTE   Cn4
 BYTE   W12
 BYTE   Gn3
 BYTE   W24
// 009   ----------------------------------------
 BYTE   PATT
  POIN2 Label_6_014B3E6D
// 010   ----------------------------------------
 BYTE   PATT
  POIN2 Label_6_014B3E6D
// 011   ----------------------------------------
 BYTE   PATT
  POIN2 Label_6_014B3E80
// 012   ----------------------------------------
 BYTE   PATT
  POIN2 Label_6_014B3E6D
// 013   ----------------------------------------
 BYTE   PATT
  POIN2 Label_6_014B3E6D
// 014   ----------------------------------------
 BYTE   PATT
  POIN2 Label_6_014B3E6D
// 015   ----------------------------------------
 BYTE   PATT
  POIN2 Label_6_014B3E80
// 016   ----------------------------------------
 BYTE   PATT
  POIN2 Label_6_014B3E6D
// 017   ----------------------------------------
 BYTE   PATT
  POIN2 Label_6_014B3E6D
// 018   ----------------------------------------
 BYTE   PATT
  POIN2 Label_6_014B3E6D
// 019   ----------------------------------------
 BYTE   PATT
  POIN2 Label_6_014B3E80
// 020   ----------------------------------------
 BYTE   PATT
  POIN2 Label_6_014B3E6D
// 021   ----------------------------------------
 BYTE   PATT
  POIN2 Label_6_014B3E6D
// 022   ----------------------------------------
 BYTE   PATT
  POIN2 Label_6_014B3E6D
// 023   ----------------------------------------
 BYTE   PATT
  POIN2 Label_6_014B3E80
// 024   ----------------------------------------
 BYTE   PATT
  POIN2 Label_6_014B3E6D
// 025   ----------------------------------------
 BYTE   PATT
  POIN2 Label_6_014B3E6D
// 026   ----------------------------------------
 BYTE   PATT
  POIN2 Label_6_014B3E6D
// 027   ----------------------------------------
 BYTE   PATT
  POIN2 Label_6_014B3E80
// 028   ----------------------------------------
 BYTE   PATT
  POIN2 Label_6_014B3E6D
// 029   ----------------------------------------
 BYTE   PATT
  POIN2 Label_6_014B3E6D
// 030   ----------------------------------------
 BYTE   PATT
  POIN2 Label_6_014B3E6D
// 031   ----------------------------------------
 BYTE   PATT
  POIN2 Label_6_014B3E80
// 032   ----------------------------------------
 BYTE   PATT
  POIN2 Label_6_014B3E6D
// 033   ----------------------------------------
 BYTE   PATT
  POIN2 Label_6_014B3E6D
// 034   ----------------------------------------
 BYTE   PATT
  POIN2 Label_6_014B3E6D
// 035   ----------------------------------------
 BYTE   PATT
  POIN2 Label_6_014B3E80
// 036   ----------------------------------------
 BYTE   PATT
  POIN2 Label_6_014B3E6D
// 037   ----------------------------------------
 BYTE   PATT
  POIN2 Label_6_014B3E6D
// 038   ----------------------------------------
 BYTE   PATT
  POIN2 Label_6_014B3E6D
// 039   ----------------------------------------
 BYTE   PATT
  POIN2 Label_6_014B3E80
// 040   ----------------------------------------
 BYTE   PATT
  POIN2 Label_6_014B3E6D
// 041   ----------------------------------------
 BYTE   PATT
  POIN2 Label_6_014B3E6D
// 042   ----------------------------------------
 BYTE   PATT
  POIN2 Label_6_014B3E6D
// 043   ----------------------------------------
 BYTE   PATT
  POIN2 Label_6_014B3E80
// 044   ----------------------------------------
 BYTE   PATT
  POIN2 Label_6_014B3E6D
// 045   ----------------------------------------
 BYTE   PATT
  POIN2 Label_6_014B3E6D
// 046   ----------------------------------------
 BYTE   PATT
  POIN2 Label_6_014B3E6D
// 047   ----------------------------------------
 BYTE   PATT
  POIN2 Label_6_014B3E80
// 048   ----------------------------------------
 BYTE   PATT
  POIN2 Label_6_014B3E6D
// 049   ----------------------------------------
 BYTE   PATT
  POIN2 Label_6_014B3E6D
// 050   ----------------------------------------
 BYTE   PATT
  POIN2 Label_6_014B3E6D
// 051   ----------------------------------------
 BYTE   PATT
  POIN2 Label_6_014B3E80
// 052   ----------------------------------------
 BYTE   GoTo
  POIN2 Label_6_014B3EA6
// 053   ----------------------------------------
 BYTE   VOL   20*Stick_mvl/mxv
 BYTE   W04
 BYTE   VOL   20*Stick_mvl/mxv
 BYTE   W04
 BYTE   VOL   20*Stick_mvl/mxv
 BYTE   W04
 BYTE   VOL   19*Stick_mvl/mxv
 BYTE   N06  Bn3  v072
 BYTE   W04
 BYTE   VOL   19*Stick_mvl/mxv
 BYTE   W03
 BYTE   VOL   18*Stick_mvl/mxv
 BYTE   W05
 BYTE   VOL   18*Stick_mvl/mxv
 BYTE   N06  Cn4
 BYTE   W03
 BYTE   VOL   18*Stick_mvl/mxv
 BYTE   W04
 BYTE   VOL   18*Stick_mvl/mxv
 BYTE   W04
 BYTE   VOL   17*Stick_mvl/mxv
 BYTE   W04
 BYTE   VOL   17*Stick_mvl/mxv
 BYTE   W03
 BYTE   VOL   17*Stick_mvl/mxv
 BYTE   N06  Bn3
 BYTE   W04
 BYTE   VOL   17*Stick_mvl/mxv
 BYTE   W04
 BYTE   VOL   16*Stick_mvl/mxv
 BYTE   W04
 BYTE   VOL   15*Stick_mvl/mxv
 BYTE   W04
 BYTE   VOL   15*Stick_mvl/mxv
 BYTE   W02
 BYTE   N06  Cn4
 BYTE   W02
 BYTE   VOL   15*Stick_mvl/mxv
 BYTE   W03
 BYTE   VOL   15*Stick_mvl/mxv
 BYTE   W04
 BYTE   VOL   15*Stick_mvl/mxv
 BYTE   W03
 BYTE   N06  Gn3
 BYTE   W01
 BYTE   VOL   14*Stick_mvl/mxv
 BYTE   W04
 BYTE   VOL   14*Stick_mvl/mxv
 BYTE   W04
 BYTE   VOL   13*Stick_mvl/mxv
 BYTE   W04
 BYTE   VOL   13*Stick_mvl/mxv
 BYTE   W04
 BYTE   VOL   13*Stick_mvl/mxv
 BYTE   W03
 BYTE   VOL   13*Stick_mvl/mxv
 BYTE   W04
// 054   ----------------------------------------
 BYTE   VOL   20*Stick_mvl/mxv
 BYTE   FINE

//**************** Track 8 (Midi-Chn.7) ****************//

Stick_008:
// 000   ----------------------------------------
 BYTE   KEYSH   Stick_key+0
 BYTE   VOICE   105
 BYTE   MODT 0
 BYTE   LFOS 44
 BYTE   VOL   20*Stick_mvl/mxv
 BYTE   PAN   c_v+32
 BYTE   W18
 BYTE   N06  Bn3  v036
 BYTE   W12
 BYTE   Cn4
 BYTE   W18
 BYTE   Bn3
 BYTE   W18
 BYTE   Cn4
 BYTE   W12
 BYTE   Gn3
 BYTE   W18
// 001   ----------------------------------------
Label_7_0151DA31:
 BYTE   W18
 BYTE   N06  Bn3  v036
 BYTE   W12
 BYTE   Cn4
 BYTE   W18
 BYTE   Bn3
 BYTE   W18
 BYTE   Cn4
 BYTE   W12
 BYTE   Gn3
 BYTE   W18
 BYTE   PEND 
// 002   ----------------------------------------
 BYTE   PATT
  POIN2 Label_7_0151DA31
// 003   ----------------------------------------
Label_7_0151DA44:
 BYTE   W18
 BYTE   N06  Bn3  v036
 BYTE   W12
 BYTE   Cn4
 BYTE   W18
 BYTE   Bn3
 BYTE   W18
 BYTE   Cn4
 BYTE   W12
 BYTE   Gn3
 BYTE   W12
 BYTE   Gn4
 BYTE   W06
 BYTE   PEND 
// 004   ----------------------------------------
Label_7_0151DA54:
 BYTE   N06  Gn4  v036
 BYTE   W18
 BYTE   Bn3
 BYTE   W12
 BYTE   Cn4
 BYTE   W18
 BYTE   Bn3
 BYTE   W18
 BYTE   Cn4
 BYTE   W12
 BYTE   Gn3
 BYTE   W18
 BYTE   PEND 
// 005   ----------------------------------------
 BYTE   PATT
  POIN2 Label_7_0151DA31
// 006   ----------------------------------------
 BYTE   PATT
  POIN2 Label_7_0151DA31
// 007   ----------------------------------------
 BYTE   PATT
  POIN2 Label_7_0151DA44
// 008   ----------------------------------------
Label_7_0151DA72:
 BYTE   VOL   20*Stick_mvl/mxv
 BYTE   N06  Gn4  v036
 BYTE   W18
 BYTE   Bn3
 BYTE   W12
 BYTE   Cn4
 BYTE   W18
 BYTE   Bn3
 BYTE   W18
 BYTE   Cn4
 BYTE   W12
 BYTE   Gn3
 BYTE   W18
// 009   ----------------------------------------
 BYTE   PATT
  POIN2 Label_7_0151DA31
// 010   ----------------------------------------
 BYTE   PATT
  POIN2 Label_7_0151DA31
// 011   ----------------------------------------
 BYTE   PATT
  POIN2 Label_7_0151DA44
// 012   ----------------------------------------
 BYTE   PATT
  POIN2 Label_7_0151DA54
// 013   ----------------------------------------
 BYTE   PATT
  POIN2 Label_7_0151DA31
// 014   ----------------------------------------
 BYTE   PATT
  POIN2 Label_7_0151DA31
// 015   ----------------------------------------
 BYTE   PATT
  POIN2 Label_7_0151DA44
// 016   ----------------------------------------
 BYTE   PATT
  POIN2 Label_7_0151DA54
// 017   ----------------------------------------
 BYTE   PATT
  POIN2 Label_7_0151DA31
// 018   ----------------------------------------
 BYTE   PATT
  POIN2 Label_7_0151DA31
// 019   ----------------------------------------
 BYTE   PATT
  POIN2 Label_7_0151DA44
// 020   ----------------------------------------
 BYTE   PATT
  POIN2 Label_7_0151DA54
// 021   ----------------------------------------
 BYTE   PATT
  POIN2 Label_7_0151DA31
// 022   ----------------------------------------
 BYTE   PATT
  POIN2 Label_7_0151DA31
// 023   ----------------------------------------
 BYTE   PATT
  POIN2 Label_7_0151DA44
// 024   ----------------------------------------
 BYTE   PATT
  POIN2 Label_7_0151DA54
// 025   ----------------------------------------
 BYTE   PATT
  POIN2 Label_7_0151DA31
// 026   ----------------------------------------
 BYTE   PATT
  POIN2 Label_7_0151DA31
// 027   ----------------------------------------
 BYTE   PATT
  POIN2 Label_7_0151DA44
// 028   ----------------------------------------
 BYTE   PATT
  POIN2 Label_7_0151DA54
// 029   ----------------------------------------
 BYTE   PATT
  POIN2 Label_7_0151DA31
// 030   ----------------------------------------
 BYTE   PATT
  POIN2 Label_7_0151DA31
// 031   ----------------------------------------
 BYTE   PATT
  POIN2 Label_7_0151DA44
// 032   ----------------------------------------
 BYTE   PATT
  POIN2 Label_7_0151DA54
// 033   ----------------------------------------
 BYTE   PATT
  POIN2 Label_7_0151DA31
// 034   ----------------------------------------
 BYTE   PATT
  POIN2 Label_7_0151DA31
// 035   ----------------------------------------
 BYTE   PATT
  POIN2 Label_7_0151DA44
// 036   ----------------------------------------
 BYTE   PATT
  POIN2 Label_7_0151DA54
// 037   ----------------------------------------
 BYTE   PATT
  POIN2 Label_7_0151DA31
// 038   ----------------------------------------
 BYTE   PATT
  POIN2 Label_7_0151DA31
// 039   ----------------------------------------
 BYTE   PATT
  POIN2 Label_7_0151DA44
// 040   ----------------------------------------
 BYTE   PATT
  POIN2 Label_7_0151DA31
// 041   ----------------------------------------
 BYTE   PATT
  POIN2 Label_7_0151DA31
// 042   ----------------------------------------
 BYTE   PATT
  POIN2 Label_7_0151DA31
// 043   ----------------------------------------
 BYTE   PATT
  POIN2 Label_7_0151DA44
// 044   ----------------------------------------
 BYTE   PATT
  POIN2 Label_7_0151DA31
// 045   ----------------------------------------
 BYTE   PATT
  POIN2 Label_7_0151DA31
// 046   ----------------------------------------
 BYTE   PATT
  POIN2 Label_7_0151DA31
// 047   ----------------------------------------
 BYTE   PATT
  POIN2 Label_7_0151DA44
// 048   ----------------------------------------
 BYTE   PATT
  POIN2 Label_7_0151DA54
// 049   ----------------------------------------
 BYTE   PATT
  POIN2 Label_7_0151DA31
// 050   ----------------------------------------
 BYTE   PATT
  POIN2 Label_7_0151DA31
// 051   ----------------------------------------
 BYTE   PATT
  POIN2 Label_7_0151DA44
// 052   ----------------------------------------
 BYTE   GoTo
  POIN2 Label_7_0151DA72
// 053   ----------------------------------------
 BYTE   VOL   20*Stick_mvl/mxv
 BYTE   N06  Gn4  v036
 BYTE   W04
 BYTE   VOL   20*Stick_mvl/mxv
 BYTE   W03
 BYTE   VOL   20*Stick_mvl/mxv
 BYTE   W05
 BYTE   VOL   19*Stick_mvl/mxv
 BYTE   W03
 BYTE   VOL   19*Stick_mvl/mxv
 BYTE   W03
 BYTE   N06  Bn3
 BYTE   W01
 BYTE   VOL   18*Stick_mvl/mxv
 BYTE   W04
 BYTE   VOL   18*Stick_mvl/mxv
 BYTE   W04
 BYTE   VOL   18*Stick_mvl/mxv
 BYTE   W03
 BYTE   VOL   18*Stick_mvl/mxv
 BYTE   N06  Cn4
 BYTE   W04
 BYTE   VOL   17*Stick_mvl/mxv
 BYTE   W04
 BYTE   VOL   17*Stick_mvl/mxv
 BYTE   W04
 BYTE   VOL   17*Stick_mvl/mxv
 BYTE   W04
 BYTE   VOL   17*Stick_mvl/mxv
 BYTE   W02
 BYTE   N06  Bn3
 BYTE   W02
 BYTE   VOL   16*Stick_mvl/mxv
 BYTE   W03
 BYTE   VOL   15*Stick_mvl/mxv
 BYTE   W04
 BYTE   VOL   15*Stick_mvl/mxv
 BYTE   W04
 BYTE   VOL   15*Stick_mvl/mxv
 BYTE   W04
 BYTE   VOL   15*Stick_mvl/mxv
 BYTE   W01
 BYTE   N06  Cn4
 BYTE   W03
 BYTE   VOL   15*Stick_mvl/mxv
 BYTE   W04
 BYTE   VOL   14*Stick_mvl/mxv
 BYTE   W03
 BYTE   VOL   14*Stick_mvl/mxv
 BYTE   W02
 BYTE   N06  Gn3
 BYTE   W02
 BYTE   VOL   13*Stick_mvl/mxv
 BYTE   W04
 BYTE   VOL   13*Stick_mvl/mxv
 BYTE   W04
 BYTE   VOL   13*Stick_mvl/mxv
 BYTE   W04
 BYTE   VOL   13*Stick_mvl/mxv
 BYTE   W04
// 054   ----------------------------------------
 BYTE   VOL   20*Stick_mvl/mxv
 BYTE   FINE

//**************** Track 9 (Midi-Chn.8) ****************//

Stick_009:
// 000   ----------------------------------------
 BYTE   KEYSH   Stick_key+0
 BYTE   VOICE   89
 BYTE   MODT 0
 BYTE   LFOS 44
 BYTE   VOL   14*Stick_mvl/mxv
 BYTE   PAN   c_v+0
 BYTE   TIE  An1  v088
 BYTE   TIE  En2
 BYTE   TIE  An2
 BYTE   W96
// 001   ----------------------------------------
 BYTE   W96
// 002   ----------------------------------------
 BYTE   EOT
 BYTE   An1  v052
 BYTE   An2
Label_8_0161AD19:
 BYTE   TIE  Cn2  v088
 BYTE   TIE  Gn2
 BYTE   TIE  Cn3
 BYTE   W96
 BYTE   PEND 
// 003   ----------------------------------------
 BYTE   W96
// 004   ----------------------------------------
 BYTE   EOT
 BYTE   Cn2  v055
 BYTE   Cn3
Label_8_0161AD27:
 BYTE   TIE  An1  v088
 BYTE   TIE  En2
 BYTE   TIE  An2
 BYTE   W96
 BYTE   PEND 
// 005   ----------------------------------------
 BYTE   W96
// 006   ----------------------------------------
 BYTE   EOT
 BYTE   An1  v052
 BYTE   An2
// 007   ----------------------------------------
 BYTE   PATT
  POIN2 Label_8_0161AD19
// 008   ----------------------------------------
 BYTE   W96
// 009   ----------------------------------------
 BYTE   EOT
 BYTE   Cn2  v055
 BYTE   Cn3
Label_8_0161AD3F:
 BYTE   VOL   14*Stick_mvl/mxv
 BYTE   N96  An3  v088
 BYTE   N96  Cn4
 BYTE   N96  En4
 BYTE   W96
// 010   ----------------------------------------
Label_8_0161AD49:
 BYTE   TIE  Gn3  v088
 BYTE   TIE  Bn3
 BYTE   TIE  Dn4
 BYTE   W96
 BYTE   PEND 
// 011   ----------------------------------------
 BYTE   W96
// 012   ----------------------------------------
 BYTE   EOT
 BYTE   Gn3  v071
 BYTE   Dn4
Label_8_0161AD57:
 BYTE   N96  An3  v088
 BYTE   N96  Cn4
 BYTE   N96  En4
 BYTE   W96
 BYTE   PEND 
// 013   ----------------------------------------
 BYTE   PATT
  POIN2 Label_8_0161AD57
// 014   ----------------------------------------
 BYTE   PATT
  POIN2 Label_8_0161AD49
// 015   ----------------------------------------
 BYTE   W96
// 016   ----------------------------------------
 BYTE   EOT
 BYTE   Gn3  v071
 BYTE   Dn4
 BYTE   N96  En4  v088
 BYTE   W96
// 017   ----------------------------------------
 BYTE   N96
 BYTE   W96
// 018   ----------------------------------------
 BYTE   TIE  Dn4
 BYTE   W96
// 019   ----------------------------------------
 BYTE   W96
// 020   ----------------------------------------
 BYTE   EOT
 BYTE   N96  En4
 BYTE   W96
// 021   ----------------------------------------
 BYTE   N96
 BYTE   W96
// 022   ----------------------------------------
 BYTE   TIE  Dn4
 BYTE   W96
// 023   ----------------------------------------
 BYTE   W96
// 024   ----------------------------------------
 BYTE   EOT
 BYTE   N96  En4
 BYTE   W96
// 025   ----------------------------------------
 BYTE   W96
// 026   ----------------------------------------
 BYTE   W96
// 027   ----------------------------------------
 BYTE   W96
// 028   ----------------------------------------
 BYTE   W96
// 029   ----------------------------------------
 BYTE   PATT
  POIN2 Label_8_0161AD27
// 030   ----------------------------------------
 BYTE   W96
// 031   ----------------------------------------
 BYTE   EOT
 BYTE   An1  v052
 BYTE   An2
// 032   ----------------------------------------
 BYTE   PATT
  POIN2 Label_8_0161AD19
// 033   ----------------------------------------
 BYTE   W96
// 034   ----------------------------------------
 BYTE   EOT
 BYTE   Cn2  v055
 BYTE   Cn3
// 035   ----------------------------------------
 BYTE   PATT
  POIN2 Label_8_0161AD27
// 036   ----------------------------------------
 BYTE   W96
// 037   ----------------------------------------
 BYTE   EOT
 BYTE   An1  v052
 BYTE   An2
// 038   ----------------------------------------
 BYTE   PATT
  POIN2 Label_8_0161AD19
// 039   ----------------------------------------
 BYTE   W96
// 040   ----------------------------------------
 BYTE   EOT
 BYTE   Cn2  v055
 BYTE   Cn3
 BYTE   N96  En4  v088
 BYTE   W96
// 041   ----------------------------------------
 BYTE   TIE  Dn4
 BYTE   W96
// 042   ----------------------------------------
 BYTE   W96
// 043   ----------------------------------------
 BYTE   EOT
 BYTE   N96  En4
 BYTE   W96
// 044   ----------------------------------------
 BYTE   N96
 BYTE   W96
// 045   ----------------------------------------
 BYTE   TIE  Dn4
 BYTE   W96
// 046   ----------------------------------------
 BYTE   W96
// 047   ----------------------------------------
 BYTE   EOT
 BYTE   N96  En4
 BYTE   W96
// 048   ----------------------------------------
 BYTE   W96
// 049   ----------------------------------------
 BYTE   W96
// 050   ----------------------------------------
 BYTE   W96
// 051   ----------------------------------------
 BYTE   W96
// 052   ----------------------------------------
 BYTE   W96
// 053   ----------------------------------------
 BYTE   W96
// 054   ----------------------------------------
 BYTE   W96
// 055   ----------------------------------------
 BYTE   W96
// 056   ----------------------------------------
 BYTE   GoTo
  POIN2 Label_8_0161AD3F
// 057   ----------------------------------------
 BYTE   VOL   20*Stick_mvl/mxv
 BYTE   W04
 BYTE   VOL   20*Stick_mvl/mxv
 BYTE   W03
 BYTE   VOL   20*Stick_mvl/mxv
 BYTE   W05
 BYTE   VOL   19*Stick_mvl/mxv
 BYTE   W03
 BYTE   VOL   19*Stick_mvl/mxv
 BYTE   W04
 BYTE   VOL   18*Stick_mvl/mxv
 BYTE   W04
 BYTE   VOL   18*Stick_mvl/mxv
 BYTE   W04
 BYTE   VOL   18*Stick_mvl/mxv
 BYTE   W03
 BYTE   VOL   18*Stick_mvl/mxv
 BYTE   W04
 BYTE   VOL   17*Stick_mvl/mxv
 BYTE   W04
 BYTE   VOL   17*Stick_mvl/mxv
 BYTE   W04
 BYTE   VOL   17*Stick_mvl/mxv
 BYTE   W04
 BYTE   VOL   17*Stick_mvl/mxv
 BYTE   W04
 BYTE   VOL   16*Stick_mvl/mxv
 BYTE   W04
 BYTE   VOL   15*Stick_mvl/mxv
 BYTE   W03
 BYTE   VOL   15*Stick_mvl/mxv
 BYTE   W04
 BYTE   VOL   15*Stick_mvl/mxv
 BYTE   W04
 BYTE   VOL   15*Stick_mvl/mxv
 BYTE   W04
 BYTE   VOL   15*Stick_mvl/mxv
 BYTE   W04
 BYTE   VOL   14*Stick_mvl/mxv
 BYTE   W04
 BYTE   VOL   14*Stick_mvl/mxv
 BYTE   W03
 BYTE   VOL   13*Stick_mvl/mxv
 BYTE   W04
 BYTE   VOL   13*Stick_mvl/mxv
 BYTE   W04
 BYTE   VOL   13*Stick_mvl/mxv
 BYTE   W04
 BYTE   VOL   13*Stick_mvl/mxv
 BYTE   W04
// 058   ----------------------------------------
 BYTE   VOL   14*Stick_mvl/mxv
 BYTE   FINE

//**************** Track 10 (Midi-Chn.9) ****************//

Stick_010:
// 000   ----------------------------------------
 BYTE   KEYSH   Stick_key+0
 BYTE   VOICE   121
 BYTE   MODT 0
 BYTE   LFOS 44
 BYTE   VOL   17*Stick_mvl/mxv
 BYTE   PAN   c_v+0
 BYTE   W96
// 001   ----------------------------------------
 BYTE   W96
// 002   ----------------------------------------
 BYTE   W96
// 003   ----------------------------------------
 BYTE   W96
// 004   ----------------------------------------
 BYTE   W96
// 005   ----------------------------------------
 BYTE   W96
// 006   ----------------------------------------
 BYTE   W96
// 007   ----------------------------------------
 BYTE   W96
// 008   ----------------------------------------
Label_9_014B0EF4:
 BYTE   W96
// 009   ----------------------------------------
 BYTE   W96
// 010   ----------------------------------------
 BYTE   W96
// 011   ----------------------------------------
 BYTE   W96
// 012   ----------------------------------------
 BYTE   W96
// 013   ----------------------------------------
 BYTE   W96
// 014   ----------------------------------------
 BYTE   W96
// 015   ----------------------------------------
 BYTE   W96
// 016   ----------------------------------------
 BYTE   W96
// 017   ----------------------------------------
 BYTE   W96
// 018   ----------------------------------------
 BYTE   W96
// 019   ----------------------------------------
 BYTE   W96
// 020   ----------------------------------------
 BYTE   W96
// 021   ----------------------------------------
 BYTE   W96
// 022   ----------------------------------------
 BYTE   W96
// 023   ----------------------------------------
 BYTE   W96
// 024   ----------------------------------------
 BYTE   W96
// 025   ----------------------------------------
 BYTE   W96
// 026   ----------------------------------------
 BYTE   W96
// 027   ----------------------------------------
 BYTE   W96
// 028   ----------------------------------------
 BYTE   N18  Cn1  v048
 BYTE   N06  Fs1  v060
 BYTE   W06
 BYTE   N06
 BYTE   W06
 BYTE   N12  As1
 BYTE   W12
 BYTE   Dn1  v048
 BYTE   N06  Fs1  v060
 BYTE   W06
 BYTE   N06
 BYTE   W06
 BYTE   As1
 BYTE   W06
 BYTE   Cn1  v048
 BYTE   N06  Fs1  v060
 BYTE   W06
 BYTE   As1
 BYTE   W06
 BYTE   Cn1  v048
 BYTE   W06
 BYTE   N06
 BYTE   W06
 BYTE   As1  v060
 BYTE   W06
 BYTE   Dn1  v048
 BYTE   W06
 BYTE   Fs1  v060
 BYTE   W06
 BYTE   As1
 BYTE   W12
// 029   ----------------------------------------
Label_9_014B0F36:
 BYTE   N18  Cn1  v060
 BYTE   N06  Fs1
 BYTE   W06
 BYTE   N06
 BYTE   W06
 BYTE   N12  As1
 BYTE   W12
 BYTE   Dn1
 BYTE   N06  Fs1
 BYTE   W06
 BYTE   N06
 BYTE   W06
 BYTE   As1
 BYTE   W06
 BYTE   Cn1
 BYTE   N06  Fs1
 BYTE   W06
 BYTE   As1
 BYTE   W06
 BYTE   Cn1
 BYTE   W06
 BYTE   N06
 BYTE   W06
 BYTE   As1
 BYTE   W06
 BYTE   Dn1
 BYTE   W06
 BYTE   Fs1
 BYTE   W06
 BYTE   As1
 BYTE   W12
 BYTE   PEND 
// 030   ----------------------------------------
 BYTE   PATT
  POIN2 Label_9_014B0F36
// 031   ----------------------------------------
 BYTE   PATT
  POIN2 Label_9_014B0F36
// 032   ----------------------------------------
 BYTE   PATT
  POIN2 Label_9_014B0F36
// 033   ----------------------------------------
 BYTE   PATT
  POIN2 Label_9_014B0F36
// 034   ----------------------------------------
 BYTE   PATT
  POIN2 Label_9_014B0F36
// 035   ----------------------------------------
 BYTE   PATT
  POIN2 Label_9_014B0F36
// 036   ----------------------------------------
 BYTE   PATT
  POIN2 Label_9_014B0F36
// 037   ----------------------------------------
 BYTE   PATT
  POIN2 Label_9_014B0F36
// 038   ----------------------------------------
 BYTE   PATT
  POIN2 Label_9_014B0F36
// 039   ----------------------------------------
 BYTE   PATT
  POIN2 Label_9_014B0F36
// 040   ----------------------------------------
Label_9_014B0F8E:
 BYTE   W01
 BYTE   N18  Cn1  v060
 BYTE   N06  Fs1
 BYTE   W06
 BYTE   N06
 BYTE   W06
 BYTE   N12  As1
 BYTE   W12
 BYTE   Dn1
 BYTE   N06  Fs1
 BYTE   W06
 BYTE   N06
 BYTE   W06
 BYTE   As1
 BYTE   W06
 BYTE   Cn1
 BYTE   N06  Fs1
 BYTE   W06
 BYTE   As1
 BYTE   W06
 BYTE   Cn1
 BYTE   W06
 BYTE   N06
 BYTE   W06
 BYTE   As1
 BYTE   W06
 BYTE   Dn1
 BYTE   W06
 BYTE   Fs1
 BYTE   W06
 BYTE   As1
 BYTE   W11
 BYTE   PEND 
// 041   ----------------------------------------
 BYTE   PATT
  POIN2 Label_9_014B0F8E
// 042   ----------------------------------------
 BYTE   PATT
  POIN2 Label_9_014B0F8E
// 043   ----------------------------------------
 BYTE   PATT
  POIN2 Label_9_014B0F8E
// 044   ----------------------------------------
 BYTE   PATT
  POIN2 Label_9_014B0F36
// 045   ----------------------------------------
 BYTE   PATT
  POIN2 Label_9_014B0F36
// 046   ----------------------------------------
 BYTE   PATT
  POIN2 Label_9_014B0F36
// 047   ----------------------------------------
 BYTE   PATT
  POIN2 Label_9_014B0F36
// 048   ----------------------------------------
 BYTE   W96
// 049   ----------------------------------------
 BYTE   W96
// 050   ----------------------------------------
 BYTE   W96
// 051   ----------------------------------------
 BYTE   W96
// 052   ----------------------------------------
 BYTE   GoTo
  POIN2 Label_9_014B0EF4
// 053   ----------------------------------------
 BYTE   W96
 BYTE   FINE

//**************** Track 11 (Midi-Chn.10) ****************//

Stick_011:
// 000   ----------------------------------------
 BYTE   KEYSH   Stick_key+0
 BYTE   VOICE   54
 BYTE   MODT 0
 BYTE   LFOS 44
 BYTE   VOL   14*Stick_mvl/mxv
 BYTE   PAN   c_v+0
 BYTE   W96
// 001   ----------------------------------------
 BYTE   W48
 BYTE   N12  Cn4  v060
 BYTE   W12
 BYTE   Dn4
 BYTE   W12
 BYTE   En4
 BYTE   W12
 BYTE   Fn4
 BYTE   W12
// 002   ----------------------------------------
 BYTE   N14  Gn4
 BYTE   W12
 BYTE   N13  Gs4
 BYTE   W12
 BYTE   An4
 BYTE   W12
 BYTE   N14  As4
 BYTE   W12
 BYTE   N13  Bn4
 BYTE   W12
 BYTE   N15  Cn5
 BYTE   W12
 BYTE   N13  Cs5
 BYTE   W12
 BYTE   N12  Dn5
 BYTE   W12
// 003   ----------------------------------------
 BYTE   N32  Ds5
 BYTE   W24
 BYTE   En5
 BYTE   W24
 BYTE   Fn5
 BYTE   W24
 BYTE   N30  Fs5
 BYTE   W24
// 004   ----------------------------------------
 BYTE   N32  Gn5
 BYTE   W24
 BYTE   Gs5
 BYTE   W24
 BYTE   An5
 BYTE   W24
 BYTE   As5
 BYTE   W24
// 005   ----------------------------------------
 BYTE   Bn5
 BYTE   W24
 BYTE   Cn6
 BYTE   W24
 BYTE   Cs6
 BYTE   W24
 BYTE   Dn6
 BYTE   W24
// 006   ----------------------------------------
 BYTE   Ds6
 BYTE   W24
 BYTE   En6
 BYTE   W24
 BYTE   Fn6
 BYTE   W24
 BYTE   Fs6
 BYTE   W24
// 007   ----------------------------------------
 BYTE   Gn6
 BYTE   W24
 BYTE   N30  Gs6
 BYTE   W24
 BYTE   N24  An6
 BYTE   W24
 BYTE   As6
 BYTE   W24
// 008   ----------------------------------------
Label_10_014AC238:
 BYTE   W96
// 009   ----------------------------------------
 BYTE   W96
// 010   ----------------------------------------
 BYTE   W96
// 011   ----------------------------------------
 BYTE   W96
// 012   ----------------------------------------
 BYTE   W96
// 013   ----------------------------------------
 BYTE   W96
// 014   ----------------------------------------
 BYTE   W96
// 015   ----------------------------------------
 BYTE   W96
// 016   ----------------------------------------
 BYTE   W96
// 017   ----------------------------------------
 BYTE   W96
// 018   ----------------------------------------
 BYTE   W96
// 019   ----------------------------------------
 BYTE   W96
// 020   ----------------------------------------
 BYTE   W96
// 021   ----------------------------------------
 BYTE   W96
// 022   ----------------------------------------
 BYTE   W96
// 023   ----------------------------------------
 BYTE   W96
// 024   ----------------------------------------
 BYTE   W96
// 025   ----------------------------------------
 BYTE   W96
// 026   ----------------------------------------
 BYTE   W96
// 027   ----------------------------------------
 BYTE   W96
// 028   ----------------------------------------
 BYTE   W96
// 029   ----------------------------------------
 BYTE   W96
// 030   ----------------------------------------
 BYTE   W96
// 031   ----------------------------------------
 BYTE   W96
// 032   ----------------------------------------
 BYTE   W96
// 033   ----------------------------------------
 BYTE   W96
// 034   ----------------------------------------
 BYTE   W96
// 035   ----------------------------------------
 BYTE   W96
// 036   ----------------------------------------
 BYTE   W96
// 037   ----------------------------------------
 BYTE   W96
// 038   ----------------------------------------
 BYTE   W96
// 039   ----------------------------------------
 BYTE   W96
// 040   ----------------------------------------
 BYTE   W96
// 041   ----------------------------------------
 BYTE   W96
// 042   ----------------------------------------
 BYTE   W96
// 043   ----------------------------------------
 BYTE   W96
// 044   ----------------------------------------
 BYTE   W96
// 045   ----------------------------------------
 BYTE   W96
// 046   ----------------------------------------
 BYTE   W96
// 047   ----------------------------------------
 BYTE   W96
// 048   ----------------------------------------
 BYTE   W96
// 049   ----------------------------------------
 BYTE   W96
// 050   ----------------------------------------
 BYTE   W96
// 051   ----------------------------------------
 BYTE   W96
// 052   ----------------------------------------
 BYTE   GoTo
  POIN2 Label_10_014AC238
// 053   ----------------------------------------
 BYTE   W96
 BYTE   FINE

//**************** Track 12 (Midi-Chn.11) ****************//

Stick_012:
// 000   ----------------------------------------
 BYTE   KEYSH   Stick_key+0
 BYTE   VOICE   49
 BYTE   VOL   5*Stick_mvl/mxv
 BYTE   MODT 0
 BYTE   LFOS 44
 BYTE   VOL   11*Stick_mvl/mxv
 BYTE   PAN   c_v+0
 BYTE   TIE  En3  v088
 BYTE   TIE  Cn4
 BYTE   TIE  En4
 BYTE   W04
 BYTE   VOL   5*Stick_mvl/mxv
 BYTE   W03
 BYTE   VOL   5*Stick_mvl/mxv
 BYTE   W05
 BYTE   VOL   5*Stick_mvl/mxv
 BYTE   W03
 BYTE   VOL   6*Stick_mvl/mxv
 BYTE   W04
 BYTE   VOL   6*Stick_mvl/mxv
 BYTE   W04
 BYTE   VOL   6*Stick_mvl/mxv
 BYTE   W04
 BYTE   VOL   6*Stick_mvl/mxv
 BYTE   W03
 BYTE   VOL   6*Stick_mvl/mxv
 BYTE   W04
 BYTE   VOL   7*Stick_mvl/mxv
 BYTE   W04
 BYTE   VOL   7*Stick_mvl/mxv
 BYTE   W04
 BYTE   VOL   7*Stick_mvl/mxv
 BYTE   W04
 BYTE   VOL   7*Stick_mvl/mxv
 BYTE   W04
 BYTE   VOL   8*Stick_mvl/mxv
 BYTE   W04
 BYTE   VOL   8*Stick_mvl/mxv
 BYTE   W03
 BYTE   VOL   8*Stick_mvl/mxv
 BYTE   W04
 BYTE   VOL   8*Stick_mvl/mxv
 BYTE   W04
 BYTE   VOL   8*Stick_mvl/mxv
 BYTE   W04
 BYTE   VOL   9*Stick_mvl/mxv
 BYTE   W04
 BYTE   VOL   10*Stick_mvl/mxv
 BYTE   W04
 BYTE   VOL   10*Stick_mvl/mxv
 BYTE   W03
 BYTE   VOL   10*Stick_mvl/mxv
 BYTE   W04
 BYTE   VOL   10*Stick_mvl/mxv
 BYTE   W04
 BYTE   VOL   10*Stick_mvl/mxv
 BYTE   W04
 BYTE   VOL   11*Stick_mvl/mxv
 BYTE   W04
// 001   ----------------------------------------
Label_11_0161B75F:
 BYTE   VOL   11*Stick_mvl/mxv
 BYTE   W04
 BYTE   VOL   11*Stick_mvl/mxv
 BYTE   W03
 BYTE   VOL   10*Stick_mvl/mxv
 BYTE   W05
 BYTE   VOL   10*Stick_mvl/mxv
 BYTE   W03
 BYTE   VOL   10*Stick_mvl/mxv
 BYTE   W04
 BYTE   VOL   10*Stick_mvl/mxv
 BYTE   W04
 BYTE   VOL   10*Stick_mvl/mxv
 BYTE   W04
 BYTE   VOL   9*Stick_mvl/mxv
 BYTE   W03
 BYTE   VOL   8*Stick_mvl/mxv
 BYTE   W04
 BYTE   VOL   8*Stick_mvl/mxv
 BYTE   W04
 BYTE   VOL   8*Stick_mvl/mxv
 BYTE   W04
 BYTE   VOL   8*Stick_mvl/mxv
 BYTE   W04
 BYTE   VOL   8*Stick_mvl/mxv
 BYTE   W04
 BYTE   VOL   7*Stick_mvl/mxv
 BYTE   W04
 BYTE   VOL   7*Stick_mvl/mxv
 BYTE   W03
 BYTE   VOL   7*Stick_mvl/mxv
 BYTE   W04
 BYTE   VOL   7*Stick_mvl/mxv
 BYTE   W04
 BYTE   VOL   6*Stick_mvl/mxv
 BYTE   W04
 BYTE   VOL   6*Stick_mvl/mxv
 BYTE   W04
 BYTE   VOL   6*Stick_mvl/mxv
 BYTE   W04
 BYTE   VOL   6*Stick_mvl/mxv
 BYTE   W03
 BYTE   VOL   6*Stick_mvl/mxv
 BYTE   W04
 BYTE   VOL   5*Stick_mvl/mxv
 BYTE   W04
 BYTE   VOL   5*Stick_mvl/mxv
 BYTE   W04
 BYTE   VOL   5*Stick_mvl/mxv
 BYTE   W04
 BYTE   PEND 
// 002   ----------------------------------------
 BYTE   EOT
 BYTE   En3  v072
 BYTE   En4
Label_11_0161B797:
 BYTE   VOL   5*Stick_mvl/mxv
 BYTE   TIE  Gn3  v088
 BYTE   TIE  En4
 BYTE   TIE  Gn4
 BYTE   W04
 BYTE   VOL   5*Stick_mvl/mxv
 BYTE   W03
 BYTE   VOL   5*Stick_mvl/mxv
 BYTE   W05
 BYTE   VOL   5*Stick_mvl/mxv
 BYTE   W03
 BYTE   VOL   6*Stick_mvl/mxv
 BYTE   W04
 BYTE   VOL   6*Stick_mvl/mxv
 BYTE   W04
 BYTE   VOL   6*Stick_mvl/mxv
 BYTE   W04
 BYTE   VOL   6*Stick_mvl/mxv
 BYTE   W03
 BYTE   VOL   6*Stick_mvl/mxv
 BYTE   W04
 BYTE   VOL   7*Stick_mvl/mxv
 BYTE   W04
 BYTE   VOL   7*Stick_mvl/mxv
 BYTE   W04
 BYTE   VOL   7*Stick_mvl/mxv
 BYTE   W04
 BYTE   VOL   7*Stick_mvl/mxv
 BYTE   W04
 BYTE   VOL   8*Stick_mvl/mxv
 BYTE   W04
 BYTE   VOL   8*Stick_mvl/mxv
 BYTE   W03
 BYTE   VOL   8*Stick_mvl/mxv
 BYTE   W04
 BYTE   VOL   8*Stick_mvl/mxv
 BYTE   W04
 BYTE   VOL   8*Stick_mvl/mxv
 BYTE   W04
 BYTE   VOL   9*Stick_mvl/mxv
 BYTE   W04
 BYTE   VOL   10*Stick_mvl/mxv
 BYTE   W04
 BYTE   VOL   10*Stick_mvl/mxv
 BYTE   W03
 BYTE   VOL   10*Stick_mvl/mxv
 BYTE   W04
 BYTE   VOL   10*Stick_mvl/mxv
 BYTE   W04
 BYTE   VOL   10*Stick_mvl/mxv
 BYTE   W04
 BYTE   VOL   11*Stick_mvl/mxv
 BYTE   W04
 BYTE   PEND 
// 003   ----------------------------------------
 BYTE   PATT
  POIN2 Label_11_0161B75F
// 004   ----------------------------------------
 BYTE   EOT
 BYTE   Gn3  v076
 BYTE   Gn4
Label_11_0161B7DC:
 BYTE   VOL   5*Stick_mvl/mxv
 BYTE   TIE  En3  v088
 BYTE   TIE  Cn4
 BYTE   TIE  En4
 BYTE   W04
 BYTE   VOL   5*Stick_mvl/mxv
 BYTE   W03
 BYTE   VOL   5*Stick_mvl/mxv
 BYTE   W05
 BYTE   VOL   5*Stick_mvl/mxv
 BYTE   W03
 BYTE   VOL   6*Stick_mvl/mxv
 BYTE   W04
 BYTE   VOL   6*Stick_mvl/mxv
 BYTE   W04
 BYTE   VOL   6*Stick_mvl/mxv
 BYTE   W04
 BYTE   VOL   6*Stick_mvl/mxv
 BYTE   W03
 BYTE   VOL   6*Stick_mvl/mxv
 BYTE   W04
 BYTE   VOL   7*Stick_mvl/mxv
 BYTE   W04
 BYTE   VOL   7*Stick_mvl/mxv
 BYTE   W04
 BYTE   VOL   7*Stick_mvl/mxv
 BYTE   W04
 BYTE   VOL   7*Stick_mvl/mxv
 BYTE   W04
 BYTE   VOL   8*Stick_mvl/mxv
 BYTE   W04
 BYTE   VOL   8*Stick_mvl/mxv
 BYTE   W03
 BYTE   VOL   8*Stick_mvl/mxv
 BYTE   W04
 BYTE   VOL   8*Stick_mvl/mxv
 BYTE   W04
 BYTE   VOL   8*Stick_mvl/mxv
 BYTE   W04
 BYTE   VOL   9*Stick_mvl/mxv
 BYTE   W04
 BYTE   VOL   10*Stick_mvl/mxv
 BYTE   W04
 BYTE   VOL   10*Stick_mvl/mxv
 BYTE   W03
 BYTE   VOL   10*Stick_mvl/mxv
 BYTE   W04
 BYTE   VOL   10*Stick_mvl/mxv
 BYTE   W04
 BYTE   VOL   10*Stick_mvl/mxv
 BYTE   W04
 BYTE   VOL   11*Stick_mvl/mxv
 BYTE   W04
 BYTE   PEND 
// 005   ----------------------------------------
 BYTE   PATT
  POIN2 Label_11_0161B75F
// 006   ----------------------------------------
 BYTE   EOT
 BYTE   En3  v072
 BYTE   En4
// 007   ----------------------------------------
 BYTE   PATT
  POIN2 Label_11_0161B797
// 008   ----------------------------------------
 BYTE   PATT
  POIN2 Label_11_0161B75F
// 009   ----------------------------------------
 BYTE   EOT
 BYTE   Gn3  v076
 BYTE   Gn4
Label_11_0161B82F:
 BYTE   VOL   10*Stick_mvl/mxv
 BYTE   N96  An3  v088
 BYTE   N96  Cn4
 BYTE   N96  En4
 BYTE   W96
// 010   ----------------------------------------
Label_11_0161B839:
 BYTE   VOL   5*Stick_mvl/mxv
 BYTE   TIE  Gn3  v088
 BYTE   TIE  Bn3
 BYTE   TIE  Dn4
 BYTE   W04
 BYTE   VOL   5*Stick_mvl/mxv
 BYTE   W03
 BYTE   VOL   5*Stick_mvl/mxv
 BYTE   W05
 BYTE   VOL   5*Stick_mvl/mxv
 BYTE   W03
 BYTE   VOL   6*Stick_mvl/mxv
 BYTE   W04
 BYTE   VOL   6*Stick_mvl/mxv
 BYTE   W04
 BYTE   VOL   6*Stick_mvl/mxv
 BYTE   W04
 BYTE   VOL   6*Stick_mvl/mxv
 BYTE   W03
 BYTE   VOL   6*Stick_mvl/mxv
 BYTE   W04
 BYTE   VOL   7*Stick_mvl/mxv
 BYTE   W04
 BYTE   VOL   7*Stick_mvl/mxv
 BYTE   W04
 BYTE   VOL   7*Stick_mvl/mxv
 BYTE   W04
 BYTE   VOL   7*Stick_mvl/mxv
 BYTE   W04
 BYTE   VOL   8*Stick_mvl/mxv
 BYTE   W04
 BYTE   VOL   8*Stick_mvl/mxv
 BYTE   W03
 BYTE   VOL   8*Stick_mvl/mxv
 BYTE   W04
 BYTE   VOL   8*Stick_mvl/mxv
 BYTE   W04
 BYTE   VOL   8*Stick_mvl/mxv
 BYTE   W04
 BYTE   VOL   9*Stick_mvl/mxv
 BYTE   W04
 BYTE   VOL   10*Stick_mvl/mxv
 BYTE   W04
 BYTE   VOL   10*Stick_mvl/mxv
 BYTE   W03
 BYTE   VOL   10*Stick_mvl/mxv
 BYTE   W04
 BYTE   VOL   10*Stick_mvl/mxv
 BYTE   W04
 BYTE   VOL   10*Stick_mvl/mxv
 BYTE   W04
 BYTE   VOL   11*Stick_mvl/mxv
 BYTE   W04
 BYTE   PEND 
// 011   ----------------------------------------
 BYTE   PATT
  POIN2 Label_11_0161B75F
// 012   ----------------------------------------
 BYTE   EOT
 BYTE   Gn3  v071
 BYTE   Dn4
Label_11_0161B87E:
 BYTE   VOL   5*Stick_mvl/mxv
 BYTE   N96  An3  v088
 BYTE   N96  Cn4
 BYTE   N96  En4
 BYTE   W04
 BYTE   VOL   5*Stick_mvl/mxv
 BYTE   W03
 BYTE   VOL   5*Stick_mvl/mxv
 BYTE   W05
 BYTE   VOL   5*Stick_mvl/mxv
 BYTE   W03
 BYTE   VOL   6*Stick_mvl/mxv
 BYTE   W04
 BYTE   VOL   6*Stick_mvl/mxv
 BYTE   W04
 BYTE   VOL   6*Stick_mvl/mxv
 BYTE   W04
 BYTE   VOL   6*Stick_mvl/mxv
 BYTE   W03
 BYTE   VOL   6*Stick_mvl/mxv
 BYTE   W04
 BYTE   VOL   7*Stick_mvl/mxv
 BYTE   W04
 BYTE   VOL   7*Stick_mvl/mxv
 BYTE   W04
 BYTE   VOL   7*Stick_mvl/mxv
 BYTE   W04
 BYTE   VOL   7*Stick_mvl/mxv
 BYTE   W04
 BYTE   VOL   8*Stick_mvl/mxv
 BYTE   W04
 BYTE   VOL   8*Stick_mvl/mxv
 BYTE   W03
 BYTE   VOL   8*Stick_mvl/mxv
 BYTE   W04
 BYTE   VOL   8*Stick_mvl/mxv
 BYTE   W04
 BYTE   VOL   8*Stick_mvl/mxv
 BYTE   W04
 BYTE   VOL   9*Stick_mvl/mxv
 BYTE   W04
 BYTE   VOL   10*Stick_mvl/mxv
 BYTE   W04
 BYTE   VOL   10*Stick_mvl/mxv
 BYTE   W03
 BYTE   VOL   10*Stick_mvl/mxv
 BYTE   W04
 BYTE   VOL   10*Stick_mvl/mxv
 BYTE   W04
 BYTE   VOL   10*Stick_mvl/mxv
 BYTE   W04
 BYTE   VOL   11*Stick_mvl/mxv
 BYTE   W04
 BYTE   PEND 
// 013   ----------------------------------------
Label_11_0161B8BA:
 BYTE   VOL   11*Stick_mvl/mxv
 BYTE   N96  An3  v088
 BYTE   N96  Cn4
 BYTE   N96  En4
 BYTE   W04
 BYTE   VOL   11*Stick_mvl/mxv
 BYTE   W03
 BYTE   VOL   10*Stick_mvl/mxv
 BYTE   W05
 BYTE   VOL   10*Stick_mvl/mxv
 BYTE   W03
 BYTE   VOL   10*Stick_mvl/mxv
 BYTE   W04
 BYTE   VOL   10*Stick_mvl/mxv
 BYTE   W04
 BYTE   VOL   10*Stick_mvl/mxv
 BYTE   W04
 BYTE   VOL   9*Stick_mvl/mxv
 BYTE   W03
 BYTE   VOL   8*Stick_mvl/mxv
 BYTE   W04
 BYTE   VOL   8*Stick_mvl/mxv
 BYTE   W04
 BYTE   VOL   8*Stick_mvl/mxv
 BYTE   W04
 BYTE   VOL   8*Stick_mvl/mxv
 BYTE   W04
 BYTE   VOL   8*Stick_mvl/mxv
 BYTE   W04
 BYTE   VOL   7*Stick_mvl/mxv
 BYTE   W04
 BYTE   VOL   7*Stick_mvl/mxv
 BYTE   W03
 BYTE   VOL   7*Stick_mvl/mxv
 BYTE   W04
 BYTE   VOL   7*Stick_mvl/mxv
 BYTE   W04
 BYTE   VOL   6*Stick_mvl/mxv
 BYTE   W04
 BYTE   VOL   6*Stick_mvl/mxv
 BYTE   W04
 BYTE   VOL   6*Stick_mvl/mxv
 BYTE   W04
 BYTE   VOL   6*Stick_mvl/mxv
 BYTE   W03
 BYTE   VOL   6*Stick_mvl/mxv
 BYTE   W04
 BYTE   VOL   5*Stick_mvl/mxv
 BYTE   W04
 BYTE   VOL   5*Stick_mvl/mxv
 BYTE   W04
 BYTE   VOL   5*Stick_mvl/mxv
 BYTE   W04
 BYTE   PEND 
// 014   ----------------------------------------
 BYTE   PATT
  POIN2 Label_11_0161B839
// 015   ----------------------------------------
 BYTE   PATT
  POIN2 Label_11_0161B75F
// 016   ----------------------------------------
 BYTE   EOT
 BYTE   Gn3  v071
 BYTE   Dn4
// 017   ----------------------------------------
 BYTE   PATT
  POIN2 Label_11_0161B87E
// 018   ----------------------------------------
 BYTE   PATT
  POIN2 Label_11_0161B8BA
// 019   ----------------------------------------
 BYTE   PATT
  POIN2 Label_11_0161B839
// 020   ----------------------------------------
 BYTE   PATT
  POIN2 Label_11_0161B75F
// 021   ----------------------------------------
 BYTE   EOT
 BYTE   Gn3  v071
 BYTE   Dn4
// 022   ----------------------------------------
 BYTE   PATT
  POIN2 Label_11_0161B87E
// 023   ----------------------------------------
 BYTE   VOL   11*Stick_mvl/mxv
 BYTE   N96  Fn3  v088
 BYTE   N96  An3
 BYTE   N96  Cn4
 BYTE   N96  En4
 BYTE   W04
 BYTE   VOL   11*Stick_mvl/mxv
 BYTE   W03
 BYTE   VOL   10*Stick_mvl/mxv
 BYTE   W05
 BYTE   VOL   10*Stick_mvl/mxv
 BYTE   W03
 BYTE   VOL   10*Stick_mvl/mxv
 BYTE   W04
 BYTE   VOL   10*Stick_mvl/mxv
 BYTE   W04
 BYTE   VOL   10*Stick_mvl/mxv
 BYTE   W04
 BYTE   VOL   9*Stick_mvl/mxv
 BYTE   W03
 BYTE   VOL   8*Stick_mvl/mxv
 BYTE   W04
 BYTE   VOL   8*Stick_mvl/mxv
 BYTE   W04
 BYTE   VOL   8*Stick_mvl/mxv
 BYTE   W04
 BYTE   VOL   8*Stick_mvl/mxv
 BYTE   W04
 BYTE   VOL   8*Stick_mvl/mxv
 BYTE   W04
 BYTE   VOL   7*Stick_mvl/mxv
 BYTE   W04
 BYTE   VOL   7*Stick_mvl/mxv
 BYTE   W03
 BYTE   VOL   7*Stick_mvl/mxv
 BYTE   W04
 BYTE   VOL   7*Stick_mvl/mxv
 BYTE   W04
 BYTE   VOL   6*Stick_mvl/mxv
 BYTE   W04
 BYTE   VOL   6*Stick_mvl/mxv
 BYTE   W04
 BYTE   VOL   6*Stick_mvl/mxv
 BYTE   W04
 BYTE   VOL   6*Stick_mvl/mxv
 BYTE   W03
 BYTE   VOL   6*Stick_mvl/mxv
 BYTE   W04
 BYTE   VOL   5*Stick_mvl/mxv
 BYTE   W04
 BYTE   VOL   5*Stick_mvl/mxv
 BYTE   W04
 BYTE   VOL   5*Stick_mvl/mxv
 BYTE   W04
// 024   ----------------------------------------
 BYTE   PATT
  POIN2 Label_11_0161B839
// 025   ----------------------------------------
 BYTE   PATT
  POIN2 Label_11_0161B75F
// 026   ----------------------------------------
 BYTE   EOT
 BYTE   Gn3  v071
 BYTE   Dn4
 BYTE   VOL   11*Stick_mvl/mxv
 BYTE   N96  An3  v088
 BYTE   N96  Cn4
 BYTE   N96  En4
 BYTE   W96
// 027   ----------------------------------------
Label_11_0161B976:
 BYTE   N96  Fn3  v088
 BYTE   N96  An3
 BYTE   N96  Cn4
 BYTE   W96
 BYTE   PEND 
// 028   ----------------------------------------
Label_11_0161B97F:
 BYTE   N96  Gn3  v088
 BYTE   N96  Cn4
 BYTE   N96  En4
 BYTE   W96
 BYTE   PEND 
// 029   ----------------------------------------
Label_11_0161B988:
 BYTE   TIE  Fn3  v088
 BYTE   TIE  An3
 BYTE   TIE  Cn4
 BYTE   TIE  En4
 BYTE   W96
 BYTE   PEND 
// 030   ----------------------------------------
 BYTE   W48
 BYTE   EOT
 BYTE   Fn3  v069
 BYTE   Cn4  v076
 BYTE   N48  Gn3
 BYTE   N48  Bn3
 BYTE   N48  Dn4
 BYTE   N48  Gn4
 BYTE   W48
// 031   ----------------------------------------
 BYTE   PATT
  POIN2 Label_11_0161B7DC
// 032   ----------------------------------------
 BYTE   PATT
  POIN2 Label_11_0161B75F
// 033   ----------------------------------------
 BYTE   EOT
 BYTE   En3  v072
 BYTE   En4
// 034   ----------------------------------------
 BYTE   PATT
  POIN2 Label_11_0161B797
// 035   ----------------------------------------
 BYTE   PATT
  POIN2 Label_11_0161B75F
// 036   ----------------------------------------
 BYTE   EOT
 BYTE   Gn3  v076
 BYTE   Gn4
// 037   ----------------------------------------
 BYTE   PATT
  POIN2 Label_11_0161B7DC
// 038   ----------------------------------------
 BYTE   PATT
  POIN2 Label_11_0161B75F
// 039   ----------------------------------------
 BYTE   EOT
 BYTE   En3  v072
 BYTE   En4
// 040   ----------------------------------------
 BYTE   PATT
  POIN2 Label_11_0161B797
// 041   ----------------------------------------
 BYTE   PATT
  POIN2 Label_11_0161B75F
// 042   ----------------------------------------
 BYTE   EOT
 BYTE   Gn3  v076
 BYTE   Gn4
 BYTE   VOL   10*Stick_mvl/mxv
 BYTE   N96  An3  v088
 BYTE   N96  Cn4
 BYTE   N96  En4
 BYTE   W96
// 043   ----------------------------------------
Label_11_0161B9E4:
 BYTE   TIE  Gn3  v088
 BYTE   TIE  Bn3
 BYTE   TIE  Dn4
 BYTE   W96
 BYTE   PEND 
// 044   ----------------------------------------
 BYTE   W96
// 045   ----------------------------------------
 BYTE   EOT
 BYTE   Gn3  v071
 BYTE   Dn4
Label_11_0161B9F2:
 BYTE   N96  An3  v088
 BYTE   N96  Cn4
 BYTE   N96  En4
 BYTE   W96
 BYTE   PEND 
// 046   ----------------------------------------
 BYTE   Fn3
 BYTE   N96  An3
 BYTE   N96  Cn4
 BYTE   N96  En4
 BYTE   W96
// 047   ----------------------------------------
 BYTE   PATT
  POIN2 Label_11_0161B9E4
// 048   ----------------------------------------
 BYTE   W96
// 049   ----------------------------------------
 BYTE   EOT
 BYTE   Gn3  v071
 BYTE   Dn4
// 050   ----------------------------------------
 BYTE   PATT
  POIN2 Label_11_0161B9F2
// 051   ----------------------------------------
 BYTE   PATT
  POIN2 Label_11_0161B976
// 052   ----------------------------------------
 BYTE   PATT
  POIN2 Label_11_0161B97F
// 053   ----------------------------------------
 BYTE   PATT
  POIN2 Label_11_0161B988
// 054   ----------------------------------------
 BYTE   W48
 BYTE   EOT
 BYTE   Fn3  v069
 BYTE   Cn4  v076
 BYTE   N48  Gn3  v088
 BYTE   N48  Bn3
 BYTE   N48  Dn4
 BYTE   N48  Gn4
 BYTE   W48
// 055   ----------------------------------------
 BYTE   PATT
  POIN2 Label_11_0161B976
// 056   ----------------------------------------
 BYTE   PATT
  POIN2 Label_11_0161B97F
// 057   ----------------------------------------
 BYTE   PATT
  POIN2 Label_11_0161B988
// 058   ----------------------------------------
 BYTE   W48
 BYTE   EOT
 BYTE   Fn3  v069
 BYTE   Cn4  v076
 BYTE   N48  Gn3  v088
 BYTE   N48  Bn3
 BYTE   N48  Dn4
 BYTE   N48  Gn4
 BYTE   W48
// 059   ----------------------------------------
 BYTE   GoTo
  POIN2 Label_11_0161B82F
// 060   ----------------------------------------
 BYTE   VOL   5*Stick_mvl/mxv
 BYTE   W03
 BYTE   VOL   5*Stick_mvl/mxv
 BYTE   W04
 BYTE   VOL   5*Stick_mvl/mxv
 BYTE   W03
 BYTE   VOL   5*Stick_mvl/mxv
 BYTE   W04
 BYTE   VOL   6*Stick_mvl/mxv
 BYTE   W03
 BYTE   VOL   6*Stick_mvl/mxv
 BYTE   W03
 BYTE   VOL   6*Stick_mvl/mxv
 BYTE   W04
 BYTE   VOL   6*Stick_mvl/mxv
 BYTE   W03
 BYTE   VOL   6*Stick_mvl/mxv
 BYTE   W03
 BYTE   VOL   7*Stick_mvl/mxv
 BYTE   W04
 BYTE   VOL   7*Stick_mvl/mxv
 BYTE   W03
 BYTE   VOL   7*Stick_mvl/mxv
 BYTE   W04
 BYTE   VOL   7*Stick_mvl/mxv
 BYTE   W03
 BYTE   VOL   8*Stick_mvl/mxv
 BYTE   W04
 BYTE   VOL   8*Stick_mvl/mxv
 BYTE   W03
 BYTE   VOL   8*Stick_mvl/mxv
 BYTE   W03
 BYTE   VOL   8*Stick_mvl/mxv
 BYTE   W04
 BYTE   VOL   8*Stick_mvl/mxv
 BYTE   W03
 BYTE   VOL   9*Stick_mvl/mxv
 BYTE   W04
 BYTE   VOL   10*Stick_mvl/mxv
 BYTE   W03
 BYTE   VOL   10*Stick_mvl/mxv
 BYTE   W04
 BYTE   VOL   10*Stick_mvl/mxv
 BYTE   W03
 BYTE   VOL   10*Stick_mvl/mxv
 BYTE   W03
 BYTE   VOL   10*Stick_mvl/mxv
 BYTE   W03
 BYTE   VOL   11*Stick_mvl/mxv
 BYTE   W04
 BYTE   VOL   11*Stick_mvl/mxv
 BYTE   W03
 BYTE   VOL   11*Stick_mvl/mxv
 BYTE   W04
 BYTE   VOL   11*Stick_mvl/mxv
 BYTE   W03
 BYTE   VOL   11*Stick_mvl/mxv
 BYTE   W01
// 061   ----------------------------------------
 BYTE   VOL   10*Stick_mvl/mxv
 BYTE   FINE

//**************** Track 13 (Midi-Chn.12) ****************//

Stick_013:
// 000   ----------------------------------------
 BYTE   KEYSH   Stick_key+0
 BYTE   VOICE   74
 BYTE   MODT 0
 BYTE   LFOS 44
 BYTE   VOL   17*Stick_mvl/mxv
 BYTE   PAN   c_v+0
 BYTE   W96
// 001   ----------------------------------------
 BYTE   W96
// 002   ----------------------------------------
 BYTE   W96
// 003   ----------------------------------------
 BYTE   W96
// 004   ----------------------------------------
 BYTE   W96
// 005   ----------------------------------------
 BYTE   W96
// 006   ----------------------------------------
 BYTE   W96
// 007   ----------------------------------------
 BYTE   W96
// 008   ----------------------------------------
Label_12_0166BA50:
 BYTE   N06  Fn1  v044
 BYTE   W06
 BYTE   Fn1  v024
 BYTE   W06
 BYTE   Fn1  v028
 BYTE   W06
 BYTE   N06
 BYTE   W06
 BYTE   Fn1  v044
 BYTE   W06
 BYTE   Fn1  v024
 BYTE   W06
 BYTE   Fn1  v032
 BYTE   W06
 BYTE   Fn1  v036
 BYTE   W06
 BYTE   N06
 BYTE   W06
 BYTE   Fn1  v024
 BYTE   W06
 BYTE   Fn1  v028
 BYTE   W06
 BYTE   N06
 BYTE   W06
 BYTE   Fn2  v044
 BYTE   W06
 BYTE   Fn1  v024
 BYTE   W06
 BYTE   Fn2  v028
 BYTE   W06
 BYTE   Fn1
 BYTE   W06
 BYTE   PEND 
// 009   ----------------------------------------
Label_12_0166BA7E:
 BYTE   N06  Bn1  v048
 BYTE   W06
 BYTE   Bn1  v024
 BYTE   W06
 BYTE   Bn1  v032
 BYTE   W06
 BYTE   Bn1  v024
 BYTE   W06
 BYTE   Bn1  v040
 BYTE   W06
 BYTE   Bn1  v024
 BYTE   W06
 BYTE   Bn1  v028
 BYTE   W06
 BYTE   Bn1  v036
 BYTE   W06
 BYTE   Bn1  v040
 BYTE   W06
 BYTE   Bn1  v024
 BYTE   W06
 BYTE   Bn1  v028
 BYTE   W06
 BYTE   N06
 BYTE   W06
 BYTE   Bn2  v040
 BYTE   W06
 BYTE   Bn1  v024
 BYTE   W06
 BYTE   Bn2  v028
 BYTE   W06
 BYTE   Bn1  v032
 BYTE   W06
 BYTE   PEND 
// 010   ----------------------------------------
Label_12_0166BAAF:
 BYTE   N06  En1  v044
 BYTE   W06
 BYTE   En1  v024
 BYTE   W06
 BYTE   En1  v028
 BYTE   W06
 BYTE   N06
 BYTE   W06
 BYTE   En1  v044
 BYTE   W06
 BYTE   En1  v024
 BYTE   W06
 BYTE   En1  v032
 BYTE   W06
 BYTE   En1  v036
 BYTE   W06
 BYTE   N06
 BYTE   W06
 BYTE   En1  v024
 BYTE   W06
 BYTE   En1  v028
 BYTE   W06
 BYTE   N06
 BYTE   W06
 BYTE   En2  v044
 BYTE   W06
 BYTE   En1  v024
 BYTE   W06
 BYTE   En2  v028
 BYTE   W06
 BYTE   En1
 BYTE   W06
 BYTE   PEND 
// 011   ----------------------------------------
Label_12_0166BADD:
 BYTE   N06  An1  v048
 BYTE   W06
 BYTE   An1  v024
 BYTE   W06
 BYTE   An1  v032
 BYTE   W06
 BYTE   An1  v024
 BYTE   W06
 BYTE   An1  v040
 BYTE   W06
 BYTE   An1  v024
 BYTE   W06
 BYTE   An1  v028
 BYTE   W06
 BYTE   An1  v036
 BYTE   W06
 BYTE   Gn1  v040
 BYTE   W06
 BYTE   Gn1  v024
 BYTE   W06
 BYTE   Gn1  v028
 BYTE   W06
 BYTE   N06
 BYTE   W06
 BYTE   Gn1  v040
 BYTE   W06
 BYTE   Gn1  v024
 BYTE   W06
 BYTE   Gn1  v028
 BYTE   W06
 BYTE   Gn1  v032
 BYTE   W06
 BYTE   PEND 
// 012   ----------------------------------------
 BYTE   PATT
  POIN2 Label_12_0166BA50
// 013   ----------------------------------------
 BYTE   PATT
  POIN2 Label_12_0166BA7E
// 014   ----------------------------------------
 BYTE   N06  En1  v044
 BYTE   W06
 BYTE   En1  v024
 BYTE   W06
 BYTE   En1  v028
 BYTE   W06
 BYTE   N06
 BYTE   W06
 BYTE   En1  v044
 BYTE   W06
 BYTE   En1  v024
 BYTE   W06
 BYTE   En1  v032
 BYTE   W06
 BYTE   En1  v036
 BYTE   W06
 BYTE   N06
 BYTE   W06
 BYTE   En1  v024
 BYTE   W06
 BYTE   En1  v028
 BYTE   W06
 BYTE   N06
 BYTE   W05
 BYTE   En2  v044
 BYTE   W07
 BYTE   En1  v024
 BYTE   W06
 BYTE   En2  v028
 BYTE   W06
 BYTE   En1
 BYTE   W06
// 015   ----------------------------------------
 BYTE   PATT
  POIN2 Label_12_0166BADD
// 016   ----------------------------------------
 BYTE   PATT
  POIN2 Label_12_0166BA50
// 017   ----------------------------------------
 BYTE   N06  Bn1  v048
 BYTE   W06
 BYTE   Bn1  v024
 BYTE   W06
 BYTE   Bn1  v032
 BYTE   W06
 BYTE   Bn1  v024
 BYTE   W06
 BYTE   Bn1  v040
 BYTE   W06
 BYTE   Bn1  v024
 BYTE   W06
 BYTE   Bn1  v028
 BYTE   W06
 BYTE   Bn1  v036
 BYTE   W06
 BYTE   Bn1  v040
 BYTE   W06
 BYTE   Bn1  v024
 BYTE   W06
 BYTE   Bn1  v028
 BYTE   W06
 BYTE   N06
 BYTE   W06
 BYTE   Bn2  v040
 BYTE   W06
 BYTE   Bn1  v024
 BYTE   W05
 BYTE   Bn2  v028
 BYTE   W07
 BYTE   Bn1  v032
 BYTE   W06
// 018   ----------------------------------------
 BYTE   En1  v044
 BYTE   W06
 BYTE   En1  v024
 BYTE   W06
 BYTE   En1  v028
 BYTE   W06
 BYTE   N06
 BYTE   W06
 BYTE   En1  v044
 BYTE   W06
 BYTE   En1  v024
 BYTE   W06
 BYTE   En1  v032
 BYTE   W06
 BYTE   En1  v036
 BYTE   W06
 BYTE   N06
 BYTE   W06
 BYTE   En1  v024
 BYTE   W06
 BYTE   En1  v028
 BYTE   W06
 BYTE   N06
 BYTE   W06
 BYTE   En2  v044
 BYTE   W06
 BYTE   En1  v024
 BYTE   W05
 BYTE   En2  v028
 BYTE   W07
 BYTE   En1
 BYTE   W06
// 019   ----------------------------------------
 BYTE   PATT
  POIN2 Label_12_0166BADD
// 020   ----------------------------------------
 BYTE   N06  Fn1  v044
 BYTE   W06
 BYTE   Fn1  v024
 BYTE   W06
 BYTE   Fn1  v028
 BYTE   W06
 BYTE   N06
 BYTE   W06
 BYTE   Fn1  v044
 BYTE   W06
 BYTE   Fn1  v024
 BYTE   W06
 BYTE   Fn1  v032
 BYTE   W06
 BYTE   Fn1  v036
 BYTE   W06
 BYTE   N06
 BYTE   W06
 BYTE   Fn1  v024
 BYTE   W06
 BYTE   Fn1  v028
 BYTE   W06
 BYTE   N06
 BYTE   W06
 BYTE   Fn2  v044
 BYTE   W06
 BYTE   Fn1  v024
 BYTE   W05
 BYTE   Fn2  v028
 BYTE   W07
 BYTE   Fn1
 BYTE   W06
// 021   ----------------------------------------
 BYTE   PATT
  POIN2 Label_12_0166BA7E
// 022   ----------------------------------------
 BYTE   PATT
  POIN2 Label_12_0166BAAF
// 023   ----------------------------------------
 BYTE   PATT
  POIN2 Label_12_0166BADD
// 024   ----------------------------------------
 BYTE   N06  Dn1  v044
 BYTE   W06
 BYTE   Dn1  v024
 BYTE   W06
 BYTE   Dn1  v028
 BYTE   W06
 BYTE   N06
 BYTE   W06
 BYTE   Dn1  v044
 BYTE   W06
 BYTE   Dn1  v024
 BYTE   W06
 BYTE   Dn1  v032
 BYTE   W06
 BYTE   Dn1  v036
 BYTE   W06
 BYTE   N06
 BYTE   W06
 BYTE   Dn1  v024
 BYTE   W06
 BYTE   Dn1  v028
 BYTE   W06
 BYTE   N06
 BYTE   W06
 BYTE   Dn2  v044
 BYTE   W06
 BYTE   Dn1  v024
 BYTE   W05
 BYTE   Dn2  v028
 BYTE   W07
 BYTE   Dn1
 BYTE   W06
// 025   ----------------------------------------
 BYTE   En1  v048
 BYTE   W06
 BYTE   En1  v024
 BYTE   W06
 BYTE   En1  v032
 BYTE   W06
 BYTE   En1  v024
 BYTE   W06
 BYTE   En1  v040
 BYTE   W06
 BYTE   En1  v024
 BYTE   W06
 BYTE   En1  v028
 BYTE   W06
 BYTE   En1  v036
 BYTE   W06
 BYTE   En1  v040
 BYTE   W06
 BYTE   En1  v024
 BYTE   W06
 BYTE   En1  v028
 BYTE   W06
 BYTE   N06
 BYTE   W06
 BYTE   En2  v040
 BYTE   W06
 BYTE   En1  v024
 BYTE   W06
 BYTE   En2  v028
 BYTE   W06
 BYTE   En1  v032
 BYTE   W06
// 026   ----------------------------------------
 BYTE   Fn1  v044
 BYTE   W06
 BYTE   Fn1  v024
 BYTE   W06
 BYTE   Fn1  v028
 BYTE   W06
 BYTE   N06
 BYTE   W06
 BYTE   Fn1  v044
 BYTE   W06
 BYTE   Fn1  v024
 BYTE   W06
 BYTE   Fn1  v032
 BYTE   W06
 BYTE   Fn1  v036
 BYTE   W06
 BYTE   N06
 BYTE   W06
 BYTE   Fn1  v024
 BYTE   W06
 BYTE   Fn1  v028
 BYTE   W06
 BYTE   N06
 BYTE   W05
 BYTE   Fn2  v044
 BYTE   W07
 BYTE   Fn1  v024
 BYTE   W06
 BYTE   Fn2  v028
 BYTE   W06
 BYTE   Fn1
 BYTE   W06
// 027   ----------------------------------------
 BYTE   Gn1  v048
 BYTE   W06
 BYTE   Gn1  v024
 BYTE   W06
 BYTE   Gn1  v032
 BYTE   W06
 BYTE   Gn1  v024
 BYTE   W06
 BYTE   Gn1  v040
 BYTE   W06
 BYTE   Gn1  v024
 BYTE   W06
 BYTE   Gn1  v028
 BYTE   W06
 BYTE   Gn1  v036
 BYTE   W06
 BYTE   Gn1  v040
 BYTE   W06
 BYTE   Gn1  v024
 BYTE   W06
 BYTE   Gn1  v028
 BYTE   W06
 BYTE   N06
 BYTE   W06
 BYTE   Gn2  v040
 BYTE   W06
 BYTE   Gn1  v024
 BYTE   W06
 BYTE   Gn2  v028
 BYTE   W06
 BYTE   Gn1  v032
 BYTE   W06
// 028   ----------------------------------------
 BYTE   An0  v044
 BYTE   N06  An1
 BYTE   W06
 BYTE   An0  v024
 BYTE   N06  An1
 BYTE   W06
 BYTE   An0  v028
 BYTE   N06  An1
 BYTE   W06
 BYTE   An0
 BYTE   N06  An1
 BYTE   W06
 BYTE   An0  v044
 BYTE   N06  An1
 BYTE   W06
 BYTE   An0  v024
 BYTE   N06  An1
 BYTE   W06
 BYTE   An0  v032
 BYTE   N06  An1
 BYTE   W06
 BYTE   An0  v036
 BYTE   N06  An1
 BYTE   W06
 BYTE   An0
 BYTE   N06  An1
 BYTE   W06
 BYTE   An0  v024
 BYTE   N06  An1
 BYTE   W06
 BYTE   An0  v028
 BYTE   N06  An1
 BYTE   W06
 BYTE   An0
 BYTE   N06  An1
 BYTE   W06
 BYTE   An1  v044
 BYTE   N06  An2
 BYTE   W06
 BYTE   An0  v024
 BYTE   N06  An1
 BYTE   W06
 BYTE   N05  An1  v028
 BYTE   N06  An2
 BYTE   W06
 BYTE   An0
 BYTE   N01  An1
 BYTE   W06
// 029   ----------------------------------------
Label_12_0166BCF0:
 BYTE   N06  An0  v048
 BYTE   N06  An1
 BYTE   W06
 BYTE   An0  v024
 BYTE   N06  An1
 BYTE   W06
 BYTE   An0  v032
 BYTE   N06  An1
 BYTE   W06
 BYTE   An0  v024
 BYTE   N06  An1
 BYTE   W06
 BYTE   An0  v040
 BYTE   N06  An1
 BYTE   W06
 BYTE   An0  v024
 BYTE   N06  An1
 BYTE   W06
 BYTE   An0  v028
 BYTE   N06  An1
 BYTE   W06
 BYTE   An0  v036
 BYTE   N06  An1
 BYTE   W06
 BYTE   An0  v040
 BYTE   N06  An1
 BYTE   W06
 BYTE   An0  v024
 BYTE   N06  An1
 BYTE   W06
 BYTE   An0  v028
 BYTE   N06  An1
 BYTE   W06
 BYTE   An0
 BYTE   N06  An1
 BYTE   W06
 BYTE   An1  v040
 BYTE   N06  An2
 BYTE   W06
 BYTE   An0  v024
 BYTE   N06  An1
 BYTE   W06
 BYTE   An1  v028
 BYTE   N06  An2
 BYTE   W06
 BYTE   An0  v032
 BYTE   N06  An1
 BYTE   W06
 BYTE   PEND 
// 030   ----------------------------------------
Label_12_0166BD41:
 BYTE   N06  Cn0  v044
 BYTE   N06  Cn1
 BYTE   W06
 BYTE   Cn0  v024
 BYTE   N06  Cn1
 BYTE   W06
 BYTE   Cn0  v028
 BYTE   N06  Cn1
 BYTE   W06
 BYTE   Cn0
 BYTE   N06  Cn1
 BYTE   W06
 BYTE   Cn0  v044
 BYTE   N06  Cn1
 BYTE   W06
 BYTE   Cn0  v024
 BYTE   N06  Cn1
 BYTE   W06
 BYTE   Cn0  v032
 BYTE   N06  Cn1
 BYTE   W06
 BYTE   Cn0  v036
 BYTE   N06  Cn1
 BYTE   W06
 BYTE   Cn0
 BYTE   N06  Cn1
 BYTE   W06
 BYTE   Cn0  v024
 BYTE   N06  Cn1
 BYTE   W06
 BYTE   Cn0  v028
 BYTE   N06  Cn1
 BYTE   W06
 BYTE   Cn0
 BYTE   N06  Cn1
 BYTE   W06
 BYTE   Cn1  v044
 BYTE   N06  Cn2
 BYTE   W06
 BYTE   Cn0  v024
 BYTE   N06  Cn1
 BYTE   W06
 BYTE   Cn1  v028
 BYTE   N06  Cn2
 BYTE   W06
 BYTE   Cn0
 BYTE   N06  Cn1
 BYTE   W06
 BYTE   PEND 
// 031   ----------------------------------------
Label_12_0166BD8F:
 BYTE   N06  Cn0  v048
 BYTE   N06  Cn1
 BYTE   W06
 BYTE   Cn0  v024
 BYTE   N06  Cn1
 BYTE   W06
 BYTE   Cn0  v032
 BYTE   N06  Cn1
 BYTE   W06
 BYTE   Cn0  v024
 BYTE   N06  Cn1
 BYTE   W06
 BYTE   Cn0  v040
 BYTE   N06  Cn1
 BYTE   W06
 BYTE   Cn0  v024
 BYTE   N06  Cn1
 BYTE   W06
 BYTE   Cn0  v028
 BYTE   N06  Cn1
 BYTE   W06
 BYTE   Cn0  v036
 BYTE   N06  Cn1
 BYTE   W06
 BYTE   Cn0  v040
 BYTE   N06  Cn1
 BYTE   W06
 BYTE   Cn0  v024
 BYTE   N06  Cn1
 BYTE   W06
 BYTE   Cn0  v028
 BYTE   N06  Cn1
 BYTE   W06
 BYTE   Cn0
 BYTE   N06  Cn1
 BYTE   W06
 BYTE   Cn1  v040
 BYTE   N06  Cn2
 BYTE   W06
 BYTE   Cn0  v024
 BYTE   N06  Cn1
 BYTE   W06
 BYTE   Cn1  v028
 BYTE   N06  Cn2
 BYTE   W06
 BYTE   Cn0  v032
 BYTE   N06  Cn1
 BYTE   W06
 BYTE   PEND 
// 032   ----------------------------------------
 BYTE   An0  v044
 BYTE   N06  An1
 BYTE   W06
 BYTE   An0  v024
 BYTE   N06  An1
 BYTE   W06
 BYTE   An0  v028
 BYTE   N06  An1
 BYTE   W06
 BYTE   An0
 BYTE   N06  An1
 BYTE   W06
 BYTE   An0  v044
 BYTE   N06  An1
 BYTE   W06
 BYTE   An0  v024
 BYTE   N06  An1
 BYTE   W06
 BYTE   An0  v032
 BYTE   N06  An1
 BYTE   W06
 BYTE   An0  v036
 BYTE   N06  An1
 BYTE   W06
 BYTE   An0
 BYTE   N06  An1
 BYTE   W06
 BYTE   An0  v024
 BYTE   N06  An1
 BYTE   W06
 BYTE   An0  v028
 BYTE   N06  An1
 BYTE   W06
 BYTE   An0
 BYTE   N06  An1
 BYTE   W06
 BYTE   An1  v044
 BYTE   N06  An2
 BYTE   W06
 BYTE   An0  v024
 BYTE   N06  An1
 BYTE   W06
 BYTE   An1  v028
 BYTE   N06  An2
 BYTE   W06
 BYTE   An0
 BYTE   N06  An1
 BYTE   W06
// 033   ----------------------------------------
 BYTE   PATT
  POIN2 Label_12_0166BCF0
// 034   ----------------------------------------
 BYTE   PATT
  POIN2 Label_12_0166BD41
// 035   ----------------------------------------
 BYTE   PATT
  POIN2 Label_12_0166BD8F
// 036   ----------------------------------------
Label_12_0166BE3B:
 BYTE   N06  Fn0  v044
 BYTE   N06  Fn1
 BYTE   W06
 BYTE   Fn0  v024
 BYTE   N06  Fn1
 BYTE   W06
 BYTE   Fn0  v028
 BYTE   N06  Fn1
 BYTE   W06
 BYTE   Fn0
 BYTE   N06  Fn1
 BYTE   W06
 BYTE   Fn0  v044
 BYTE   N06  Fn1
 BYTE   W06
 BYTE   Fn0  v024
 BYTE   N06  Fn1
 BYTE   W06
 BYTE   Fn0  v032
 BYTE   N06  Fn1
 BYTE   W06
 BYTE   Fn0  v036
 BYTE   N06  Fn1
 BYTE   W06
 BYTE   Fn0
 BYTE   N06  Fn1
 BYTE   W06
 BYTE   Fn0  v024
 BYTE   N06  Fn1
 BYTE   W06
 BYTE   Fn0  v028
 BYTE   N06  Fn1
 BYTE   W06
 BYTE   Fn0
 BYTE   N06  Fn1
 BYTE   W06
 BYTE   Fn1  v044
 BYTE   N06  Fn2
 BYTE   W06
 BYTE   Fn0  v024
 BYTE   N06  Fn1
 BYTE   W06
 BYTE   Fn1  v028
 BYTE   N06  Fn2
 BYTE   W06
 BYTE   Fn0
 BYTE   N06  Fn1
 BYTE   W06
 BYTE   PEND 
// 037   ----------------------------------------
Label_12_0166BE89:
 BYTE   N06  Bn0  v048
 BYTE   N06  Bn1
 BYTE   W06
 BYTE   Bn0  v024
 BYTE   N06  Bn1
 BYTE   W06
 BYTE   Bn0  v032
 BYTE   N06  Bn1
 BYTE   W06
 BYTE   Bn0  v024
 BYTE   N06  Bn1
 BYTE   W06
 BYTE   Bn0  v040
 BYTE   N06  Bn1
 BYTE   W06
 BYTE   Bn0  v024
 BYTE   N06  Bn1
 BYTE   W06
 BYTE   Bn0  v028
 BYTE   N06  Bn1
 BYTE   W06
 BYTE   Bn0  v036
 BYTE   N06  Bn1
 BYTE   W06
 BYTE   Bn0  v040
 BYTE   N06  Bn1
 BYTE   W06
 BYTE   Bn0  v024
 BYTE   N06  Bn1
 BYTE   W06
 BYTE   Bn0  v028
 BYTE   N06  Bn1
 BYTE   W06
 BYTE   Bn0
 BYTE   N06  Bn1
 BYTE   W06
 BYTE   Bn1  v040
 BYTE   N06  Bn2
 BYTE   W06
 BYTE   Bn0  v024
 BYTE   N06  Bn1
 BYTE   W06
 BYTE   Bn1  v028
 BYTE   N06  Bn2
 BYTE   W06
 BYTE   Bn0  v032
 BYTE   N06  Bn1
 BYTE   W06
 BYTE   PEND 
// 038   ----------------------------------------
Label_12_0166BEDA:
 BYTE   N06  En0  v044
 BYTE   N06  En1
 BYTE   W06
 BYTE   En0  v024
 BYTE   N06  En1
 BYTE   W06
 BYTE   En0  v028
 BYTE   N06  En1
 BYTE   W06
 BYTE   En0
 BYTE   N06  En1
 BYTE   W06
 BYTE   En0  v044
 BYTE   N06  En1
 BYTE   W06
 BYTE   En0  v024
 BYTE   N06  En1
 BYTE   W06
 BYTE   En0  v032
 BYTE   N06  En1
 BYTE   W06
 BYTE   En0  v036
 BYTE   N06  En1
 BYTE   W06
 BYTE   En0
 BYTE   N06  En1
 BYTE   W06
 BYTE   En0  v024
 BYTE   N06  En1
 BYTE   W06
 BYTE   En0  v028
 BYTE   N06  En1
 BYTE   W06
 BYTE   En0
 BYTE   N06  En1
 BYTE   W06
 BYTE   En1  v044
 BYTE   N06  En2
 BYTE   W06
 BYTE   En0  v024
 BYTE   N06  En1
 BYTE   W06
 BYTE   En1  v028
 BYTE   N06  En2
 BYTE   W06
 BYTE   En0
 BYTE   N06  En1
 BYTE   W06
 BYTE   PEND 
// 039   ----------------------------------------
Label_12_0166BF28:
 BYTE   N06  An0  v048
 BYTE   N06  An1
 BYTE   W06
 BYTE   An0  v024
 BYTE   N06  An1
 BYTE   W06
 BYTE   An0  v032
 BYTE   N06  An1
 BYTE   W06
 BYTE   An0  v024
 BYTE   N06  An1
 BYTE   W06
 BYTE   An0  v040
 BYTE   N06  An1
 BYTE   W06
 BYTE   An0  v024
 BYTE   N06  An1
 BYTE   W06
 BYTE   An0  v028
 BYTE   N06  An1
 BYTE   W06
 BYTE   An0  v036
 BYTE   N06  An1
 BYTE   W06
 BYTE   Gn0  v040
 BYTE   N06  Gn1
 BYTE   W06
 BYTE   Gn0  v024
 BYTE   N06  Gn1
 BYTE   W06
 BYTE   Gn0  v028
 BYTE   N06  Gn1
 BYTE   W06
 BYTE   Gn0
 BYTE   N06  Gn1
 BYTE   W06
 BYTE   Gn1  v040
 BYTE   N06  Gn2
 BYTE   W06
 BYTE   Gn0  v024
 BYTE   N06  Gn1
 BYTE   W06
 BYTE   Gn1  v028
 BYTE   N06  Gn2
 BYTE   W06
 BYTE   Gn0  v032
 BYTE   N06  Gn1
 BYTE   W06
 BYTE   PEND 
// 040   ----------------------------------------
 BYTE   PATT
  POIN2 Label_12_0166BE3B
// 041   ----------------------------------------
 BYTE   PATT
  POIN2 Label_12_0166BE89
// 042   ----------------------------------------
 BYTE   PATT
  POIN2 Label_12_0166BEDA
// 043   ----------------------------------------
 BYTE   PATT
  POIN2 Label_12_0166BF28
// 044   ----------------------------------------
 BYTE   N06  Dn0  v044
 BYTE   N06  Dn1
 BYTE   W06
 BYTE   Dn0  v024
 BYTE   N06  Dn1
 BYTE   W06
 BYTE   Dn0  v028
 BYTE   N06  Dn1
 BYTE   W06
 BYTE   Dn0
 BYTE   N06  Dn1
 BYTE   W06
 BYTE   Dn0  v044
 BYTE   N06  Dn1
 BYTE   W06
 BYTE   Dn0  v024
 BYTE   N06  Dn1
 BYTE   W06
 BYTE   Dn0  v032
 BYTE   N06  Dn1
 BYTE   W06
 BYTE   Dn0  v036
 BYTE   N06  Dn1
 BYTE   W06
 BYTE   Dn0
 BYTE   N06  Dn1
 BYTE   W06
 BYTE   Dn0  v024
 BYTE   N06  Dn1
 BYTE   W06
 BYTE   Dn0  v028
 BYTE   N06  Dn1
 BYTE   W06
 BYTE   Dn0
 BYTE   N06  Dn1
 BYTE   W06
 BYTE   Dn1  v044
 BYTE   N06  Dn2
 BYTE   W06
 BYTE   Dn0  v024
 BYTE   N06  Dn1
 BYTE   W06
 BYTE   Dn1  v028
 BYTE   N06  Dn2
 BYTE   W06
 BYTE   Dn0
 BYTE   N06  Dn1
 BYTE   W06
// 045   ----------------------------------------
 BYTE   En0  v048
 BYTE   N06  En1
 BYTE   W06
 BYTE   En0  v024
 BYTE   N06  En1
 BYTE   W06
 BYTE   En0  v032
 BYTE   N06  En1
 BYTE   W06
 BYTE   En0  v024
 BYTE   N06  En1
 BYTE   W06
 BYTE   En0  v040
 BYTE   N06  En1
 BYTE   W06
 BYTE   En0  v024
 BYTE   N06  En1
 BYTE   W06
 BYTE   En0  v028
 BYTE   N06  En1
 BYTE   W06
 BYTE   En0  v036
 BYTE   N06  En1
 BYTE   W06
 BYTE   En0  v040
 BYTE   N06  En1
 BYTE   W06
 BYTE   En0  v024
 BYTE   N06  En1
 BYTE   W06
 BYTE   En0  v028
 BYTE   N06  En1
 BYTE   W06
 BYTE   En0
 BYTE   N06  En1
 BYTE   W06
 BYTE   En1  v040
 BYTE   N06  En2
 BYTE   W06
 BYTE   En0  v024
 BYTE   N06  En1
 BYTE   W06
 BYTE   En1  v028
 BYTE   N06  En2
 BYTE   W06
 BYTE   En0  v032
 BYTE   N06  En1
 BYTE   W06
// 046   ----------------------------------------
 BYTE   PATT
  POIN2 Label_12_0166BE3B
// 047   ----------------------------------------
 BYTE   N06  Gn0  v048
 BYTE   N06  Gn1
 BYTE   W06
 BYTE   Gn0  v024
 BYTE   N06  Gn1
 BYTE   W06
 BYTE   Gn0  v032
 BYTE   N06  Gn1
 BYTE   W06
 BYTE   Gn0  v024
 BYTE   N06  Gn1
 BYTE   W06
 BYTE   Gn0  v040
 BYTE   N06  Gn1
 BYTE   W06
 BYTE   Gn0  v024
 BYTE   N06  Gn1
 BYTE   W06
 BYTE   Gn0  v028
 BYTE   N06  Gn1
 BYTE   W06
 BYTE   Gn0  v036
 BYTE   N06  Gn1
 BYTE   W06
 BYTE   Gn0  v040
 BYTE   N06  Gn1
 BYTE   W06
 BYTE   Gn0  v024
 BYTE   N06  Gn1
 BYTE   W06
 BYTE   Gn0  v028
 BYTE   N06  Gn1
 BYTE   W06
 BYTE   Gn0
 BYTE   N06  Gn1
 BYTE   W06
 BYTE   Gn1  v040
 BYTE   N06  Gn2
 BYTE   W06
 BYTE   Gn0  v024
 BYTE   N06  Gn1
 BYTE   W06
 BYTE   Gn1  v028
 BYTE   N06  Gn2
 BYTE   W06
 BYTE   Gn0  v032
 BYTE   N06  Gn1
 BYTE   W06
// 048   ----------------------------------------
 BYTE   N96  Dn0  v044
 BYTE   N96  Dn1
 BYTE   W96
// 049   ----------------------------------------
 BYTE   En0  v048
 BYTE   N96  En1
 BYTE   W96
// 050   ----------------------------------------
 BYTE   Fn0  v044
 BYTE   N96  Fn1
 BYTE   W96
// 051   ----------------------------------------
 BYTE   N48  Gn0  v048
 BYTE   N48  Gn1
 BYTE   W48
 BYTE   Gn0  v040
 BYTE   N48  Gn1
 BYTE   W48
// 052   ----------------------------------------
 BYTE   GoTo
  POIN2 Label_12_0166BA50
// 053   ----------------------------------------
 BYTE   W96
 BYTE   FINE

//**************** Track 14 (Midi-Chn.13) ****************//

Stick_014:
// 000   ----------------------------------------
 BYTE   KEYSH   Stick_key+0
 BYTE   VOICE   35
 BYTE   MODT 0
 BYTE   LFOS 44
 BYTE   VOL   17*Stick_mvl/mxv
 BYTE   PAN   c_v+0
 BYTE   W96
// 001   ----------------------------------------
 BYTE   W96
// 002   ----------------------------------------
 BYTE   W96
// 003   ----------------------------------------
 BYTE   W96
// 004   ----------------------------------------
 BYTE   W96
// 005   ----------------------------------------
 BYTE   W96
// 006   ----------------------------------------
 BYTE   W96
// 007   ----------------------------------------
 BYTE   W96
// 008   ----------------------------------------
Label_13_0166C0BC:
 BYTE   N06  Fn1  v056
 BYTE   W06
 BYTE   Fn1  v032
 BYTE   W06
 BYTE   Fn1  v036
 BYTE   W06
 BYTE   N06
 BYTE   W06
 BYTE   Fn1  v052
 BYTE   W06
 BYTE   Fn1  v032
 BYTE   W06
 BYTE   Fn1  v040
 BYTE   W06
 BYTE   Fn1  v048
 BYTE   W06
 BYTE   N06
 BYTE   W06
 BYTE   Fn1  v032
 BYTE   W06
 BYTE   Fn1  v040
 BYTE   W06
 BYTE   Fn1  v036
 BYTE   W06
 BYTE   Fn2  v056
 BYTE   W06
 BYTE   Fn1  v032
 BYTE   W06
 BYTE   Fn2  v036
 BYTE   W06
 BYTE   Fn1
 BYTE   W06
 BYTE   PEND 
// 009   ----------------------------------------
 BYTE   Bn1  v056
 BYTE   W06
 BYTE   Bn1  v032
 BYTE   W06
 BYTE   Bn1  v040
 BYTE   W06
 BYTE   Bn1  v032
 BYTE   W06
 BYTE   Bn1  v052
 BYTE   W06
 BYTE   Bn1  v032
 BYTE   W06
 BYTE   Bn1  v036
 BYTE   W06
 BYTE   Bn1  v048
 BYTE   W06
 BYTE   Bn1  v052
 BYTE   W06
 BYTE   Bn1  v032
 BYTE   W06
 BYTE   Bn1  v036
 BYTE   W06
 BYTE   Bn1  v040
 BYTE   W05
 BYTE   Bn2  v048
 BYTE   W07
 BYTE   Bn1  v032
 BYTE   W05
 BYTE   Bn2  v036
 BYTE   W07
 BYTE   Bn1  v040
 BYTE   W06
// 010   ----------------------------------------
Label_13_0166C11B:
 BYTE   N06  En1  v056
 BYTE   W06
 BYTE   En1  v032
 BYTE   W06
 BYTE   En1  v036
 BYTE   W06
 BYTE   N06
 BYTE   W06
 BYTE   En1  v052
 BYTE   W06
 BYTE   En1  v032
 BYTE   W06
 BYTE   En1  v040
 BYTE   W06
 BYTE   En1  v048
 BYTE   W06
 BYTE   N06
 BYTE   W06
 BYTE   En1  v032
 BYTE   W06
 BYTE   En1  v040
 BYTE   W06
 BYTE   En1  v036
 BYTE   W06
 BYTE   En2  v056
 BYTE   W06
 BYTE   En1  v032
 BYTE   W05
 BYTE   En2  v036
 BYTE   W07
 BYTE   En1
 BYTE   W06
 BYTE   PEND 
// 011   ----------------------------------------
Label_13_0166C14A:
 BYTE   N06  An1  v056
 BYTE   W06
 BYTE   An1  v032
 BYTE   W06
 BYTE   An1  v040
 BYTE   W06
 BYTE   An1  v032
 BYTE   W06
 BYTE   An1  v052
 BYTE   W06
 BYTE   An1  v032
 BYTE   W06
 BYTE   An1  v036
 BYTE   W06
 BYTE   An1  v048
 BYTE   W06
 BYTE   Gn1  v052
 BYTE   W06
 BYTE   Gn1  v032
 BYTE   W06
 BYTE   Gn1  v036
 BYTE   W06
 BYTE   Gn1  v040
 BYTE   W06
 BYTE   Gn1  v048
 BYTE   W06
 BYTE   Gn1  v032
 BYTE   W06
 BYTE   Gn1  v036
 BYTE   W06
 BYTE   Gn1  v040
 BYTE   W06
 BYTE   PEND 
// 012   ----------------------------------------
 BYTE   PATT
  POIN2 Label_13_0166C0BC
// 013   ----------------------------------------
Label_13_0166C181:
 BYTE   N06  Bn1  v056
 BYTE   W06
 BYTE   Bn1  v032
 BYTE   W06
 BYTE   Bn1  v040
 BYTE   W06
 BYTE   Bn1  v032
 BYTE   W06
 BYTE   Bn1  v052
 BYTE   W06
 BYTE   Bn1  v032
 BYTE   W06
 BYTE   Bn1  v036
 BYTE   W06
 BYTE   Bn1  v048
 BYTE   W06
 BYTE   Bn1  v052
 BYTE   W06
 BYTE   Bn1  v032
 BYTE   W06
 BYTE   Bn1  v036
 BYTE   W06
 BYTE   Bn1  v040
 BYTE   W06
 BYTE   Bn2  v048
 BYTE   W06
 BYTE   Bn1  v032
 BYTE   W05
 BYTE   Bn2  v036
 BYTE   W07
 BYTE   Bn1  v040
 BYTE   W06
 BYTE   PEND 
// 014   ----------------------------------------
Label_13_0166C1B3:
 BYTE   N06  En1  v056
 BYTE   W06
 BYTE   En1  v032
 BYTE   W06
 BYTE   En1  v036
 BYTE   W06
 BYTE   N06
 BYTE   W06
 BYTE   En1  v052
 BYTE   W06
 BYTE   En1  v032
 BYTE   W06
 BYTE   En1  v040
 BYTE   W06
 BYTE   En1  v048
 BYTE   W06
 BYTE   N06
 BYTE   W06
 BYTE   En1  v032
 BYTE   W06
 BYTE   En1  v040
 BYTE   W06
 BYTE   En1  v036
 BYTE   W06
 BYTE   En2  v056
 BYTE   W06
 BYTE   En1  v032
 BYTE   W06
 BYTE   En2  v036
 BYTE   W06
 BYTE   En1
 BYTE   W06
 BYTE   PEND 
// 015   ----------------------------------------
 BYTE   PATT
  POIN2 Label_13_0166C14A
// 016   ----------------------------------------
 BYTE   PATT
  POIN2 Label_13_0166C0BC
// 017   ----------------------------------------
 BYTE   PATT
  POIN2 Label_13_0166C181
// 018   ----------------------------------------
 BYTE   PATT
  POIN2 Label_13_0166C11B
// 019   ----------------------------------------
 BYTE   PATT
  POIN2 Label_13_0166C14A
// 020   ----------------------------------------
 BYTE   N06  Fn1  v056
 BYTE   W06
 BYTE   Fn1  v032
 BYTE   W06
 BYTE   Fn1  v036
 BYTE   W06
 BYTE   N06
 BYTE   W06
 BYTE   Fn1  v052
 BYTE   W06
 BYTE   Fn1  v032
 BYTE   W06
 BYTE   Fn1  v040
 BYTE   W06
 BYTE   Fn1  v048
 BYTE   W06
 BYTE   N06
 BYTE   W06
 BYTE   Fn1  v032
 BYTE   W06
 BYTE   Fn1  v040
 BYTE   W06
 BYTE   Fn1  v036
 BYTE   W06
 BYTE   Fn2  v056
 BYTE   W06
 BYTE   Fn1  v032
 BYTE   W05
 BYTE   Fn2  v036
 BYTE   W07
 BYTE   Fn1
 BYTE   W06
// 021   ----------------------------------------
 BYTE   Bn1  v056
 BYTE   W06
 BYTE   Bn1  v032
 BYTE   W06
 BYTE   Bn1  v040
 BYTE   W06
 BYTE   Bn1  v032
 BYTE   W06
 BYTE   Bn1  v052
 BYTE   W06
 BYTE   Bn1  v032
 BYTE   W06
 BYTE   Bn1  v036
 BYTE   W06
 BYTE   Bn1  v048
 BYTE   W06
 BYTE   Bn1  v052
 BYTE   W06
 BYTE   Bn1  v032
 BYTE   W06
 BYTE   Bn1  v036
 BYTE   W06
 BYTE   Bn1  v040
 BYTE   W06
 BYTE   Bn2  v048
 BYTE   W06
 BYTE   Bn1  v032
 BYTE   W06
 BYTE   Bn2  v036
 BYTE   W06
 BYTE   Bn1  v040
 BYTE   W06
// 022   ----------------------------------------
 BYTE   PATT
  POIN2 Label_13_0166C1B3
// 023   ----------------------------------------
 BYTE   PATT
  POIN2 Label_13_0166C14A
// 024   ----------------------------------------
 BYTE   N06  Dn1  v056
 BYTE   W06
 BYTE   Dn1  v032
 BYTE   W06
 BYTE   Dn1  v036
 BYTE   W06
 BYTE   N06
 BYTE   W06
 BYTE   Dn1  v052
 BYTE   W06
 BYTE   Dn1  v032
 BYTE   W06
 BYTE   Dn1  v040
 BYTE   W06
 BYTE   Dn1  v048
 BYTE   W06
 BYTE   N06
 BYTE   W06
 BYTE   Dn1  v032
 BYTE   W06
 BYTE   Dn1  v040
 BYTE   W06
 BYTE   Dn1  v036
 BYTE   W06
 BYTE   Dn2  v056
 BYTE   W06
 BYTE   Dn1  v032
 BYTE   W05
 BYTE   Dn2  v036
 BYTE   W07
 BYTE   Dn1
 BYTE   W06
// 025   ----------------------------------------
 BYTE   En1  v056
 BYTE   W06
 BYTE   En1  v032
 BYTE   W06
 BYTE   En1  v040
 BYTE   W06
 BYTE   En1  v032
 BYTE   W06
 BYTE   En1  v052
 BYTE   W06
 BYTE   En1  v032
 BYTE   W06
 BYTE   En1  v036
 BYTE   W06
 BYTE   En1  v048
 BYTE   W06
 BYTE   En1  v052
 BYTE   W06
 BYTE   En1  v032
 BYTE   W06
 BYTE   En1  v036
 BYTE   W06
 BYTE   En1  v040
 BYTE   W06
 BYTE   En2  v048
 BYTE   W06
 BYTE   En1  v032
 BYTE   W06
 BYTE   En2  v036
 BYTE   W06
 BYTE   En1  v040
 BYTE   W06
// 026   ----------------------------------------
 BYTE   Fn1  v056
 BYTE   W06
 BYTE   Fn1  v032
 BYTE   W06
 BYTE   Fn1  v036
 BYTE   W06
 BYTE   N06
 BYTE   W06
 BYTE   Fn1  v052
 BYTE   W06
 BYTE   Fn1  v032
 BYTE   W06
 BYTE   Fn1  v040
 BYTE   W06
 BYTE   Fn1  v048
 BYTE   W06
 BYTE   N06
 BYTE   W06
 BYTE   Fn1  v032
 BYTE   W06
 BYTE   Fn1  v040
 BYTE   W06
 BYTE   Fn1  v036
 BYTE   W05
 BYTE   Fn2  v056
 BYTE   W07
 BYTE   Fn1  v032
 BYTE   W06
 BYTE   Fn2  v036
 BYTE   W06
 BYTE   Fn1
 BYTE   W06
// 027   ----------------------------------------
 BYTE   Gn1  v056
 BYTE   W06
 BYTE   Gn1  v032
 BYTE   W06
 BYTE   Gn1  v040
 BYTE   W06
 BYTE   Gn1  v032
 BYTE   W06
 BYTE   Gn1  v052
 BYTE   W06
 BYTE   Gn1  v032
 BYTE   W06
 BYTE   Gn1  v036
 BYTE   W06
 BYTE   Gn1  v048
 BYTE   W06
 BYTE   Gn1  v052
 BYTE   W06
 BYTE   Gn1  v032
 BYTE   W06
 BYTE   Gn1  v036
 BYTE   W06
 BYTE   Gn1  v040
 BYTE   W06
 BYTE   Gn2  v048
 BYTE   W06
 BYTE   Gn1  v032
 BYTE   W06
 BYTE   Gn2  v036
 BYTE   W06
 BYTE   Gn1  v040
 BYTE   W06
// 028   ----------------------------------------
 BYTE   An0  v056
 BYTE   N06  An1
 BYTE   W06
 BYTE   An0  v032
 BYTE   N06  An1
 BYTE   W06
 BYTE   An0  v036
 BYTE   N06  An1
 BYTE   W06
 BYTE   An0
 BYTE   N06  An1
 BYTE   W06
 BYTE   An0  v052
 BYTE   N06  An1
 BYTE   W06
 BYTE   An0  v032
 BYTE   N06  An1
 BYTE   W06
 BYTE   An0  v040
 BYTE   N06  An1
 BYTE   W06
 BYTE   An0  v048
 BYTE   N06  An1
 BYTE   W06
 BYTE   An0
 BYTE   N06  An1
 BYTE   W06
 BYTE   An0  v032
 BYTE   N06  An1
 BYTE   W06
 BYTE   An0  v040
 BYTE   N06  An1
 BYTE   W06
 BYTE   An0  v036
 BYTE   N06  An1
 BYTE   W06
 BYTE   An1  v056
 BYTE   N06  An2
 BYTE   W06
 BYTE   An0  v032
 BYTE   N06  An1
 BYTE   W06
 BYTE   N05  An1  v036
 BYTE   N06  An2
 BYTE   W06
 BYTE   An0
 BYTE   N01  An1
 BYTE   W06
// 029   ----------------------------------------
Label_13_0166C36C:
 BYTE   N06  An0  v056
 BYTE   N06  An1
 BYTE   W06
 BYTE   An0  v032
 BYTE   N06  An1
 BYTE   W06
 BYTE   An0  v040
 BYTE   N06  An1
 BYTE   W06
 BYTE   An0  v032
 BYTE   N06  An1
 BYTE   W06
 BYTE   An0  v052
 BYTE   N06  An1
 BYTE   W06
 BYTE   An0  v032
 BYTE   N06  An1
 BYTE   W06
 BYTE   An0  v036
 BYTE   N06  An1
 BYTE   W06
 BYTE   An0  v048
 BYTE   N06  An1
 BYTE   W06
 BYTE   An0  v052
 BYTE   N06  An1
 BYTE   W06
 BYTE   An0  v032
 BYTE   N06  An1
 BYTE   W06
 BYTE   An0  v036
 BYTE   N06  An1
 BYTE   W06
 BYTE   An0  v040
 BYTE   N06  An1
 BYTE   W06
 BYTE   An1  v048
 BYTE   N06  An2
 BYTE   W06
 BYTE   An0  v032
 BYTE   N06  An1
 BYTE   W06
 BYTE   An1  v036
 BYTE   N06  An2
 BYTE   W06
 BYTE   An0  v040
 BYTE   N06  An1
 BYTE   W06
 BYTE   PEND 
// 030   ----------------------------------------
Label_13_0166C3BE:
 BYTE   N06  Cn0  v056
 BYTE   N06  Cn1
 BYTE   W06
 BYTE   Cn0  v032
 BYTE   N06  Cn1
 BYTE   W06
 BYTE   Cn0  v036
 BYTE   N06  Cn1
 BYTE   W06
 BYTE   Cn0
 BYTE   N06  Cn1
 BYTE   W06
 BYTE   Cn0  v052
 BYTE   N06  Cn1
 BYTE   W06
 BYTE   Cn0  v032
 BYTE   N06  Cn1
 BYTE   W06
 BYTE   Cn0  v040
 BYTE   N06  Cn1
 BYTE   W06
 BYTE   Cn0  v048
 BYTE   N06  Cn1
 BYTE   W06
 BYTE   Cn0
 BYTE   N06  Cn1
 BYTE   W06
 BYTE   Cn0  v032
 BYTE   N06  Cn1
 BYTE   W06
 BYTE   Cn0  v040
 BYTE   N06  Cn1
 BYTE   W06
 BYTE   Cn0  v036
 BYTE   N06  Cn1
 BYTE   W06
 BYTE   Cn1  v056
 BYTE   N06  Cn2
 BYTE   W06
 BYTE   Cn0  v032
 BYTE   N06  Cn1
 BYTE   W06
 BYTE   Cn1  v036
 BYTE   N06  Cn2
 BYTE   W06
 BYTE   Cn0
 BYTE   N06  Cn1
 BYTE   W06
 BYTE   PEND 
// 031   ----------------------------------------
Label_13_0166C40D:
 BYTE   N06  Cn0  v056
 BYTE   N06  Cn1
 BYTE   W06
 BYTE   Cn0  v032
 BYTE   N06  Cn1
 BYTE   W06
 BYTE   Cn0  v040
 BYTE   N06  Cn1
 BYTE   W06
 BYTE   Cn0  v032
 BYTE   N06  Cn1
 BYTE   W06
 BYTE   Cn0  v052
 BYTE   N06  Cn1
 BYTE   W06
 BYTE   Cn0  v032
 BYTE   N06  Cn1
 BYTE   W06
 BYTE   Cn0  v036
 BYTE   N06  Cn1
 BYTE   W06
 BYTE   Cn0  v048
 BYTE   N06  Cn1
 BYTE   W06
 BYTE   Cn0  v052
 BYTE   N06  Cn1
 BYTE   W06
 BYTE   Cn0  v032
 BYTE   N06  Cn1
 BYTE   W06
 BYTE   Cn0  v036
 BYTE   N06  Cn1
 BYTE   W06
 BYTE   Cn0  v040
 BYTE   N06  Cn1
 BYTE   W06
 BYTE   Cn1  v048
 BYTE   N06  Cn2
 BYTE   W06
 BYTE   Cn0  v032
 BYTE   N06  Cn1
 BYTE   W06
 BYTE   Cn1  v036
 BYTE   N06  Cn2
 BYTE   W06
 BYTE   Cn0  v040
 BYTE   N06  Cn1
 BYTE   W06
 BYTE   PEND 
// 032   ----------------------------------------
 BYTE   An0  v056
 BYTE   N06  An1
 BYTE   W06
 BYTE   An0  v032
 BYTE   N06  An1
 BYTE   W06
 BYTE   An0  v036
 BYTE   N06  An1
 BYTE   W06
 BYTE   An0
 BYTE   N06  An1
 BYTE   W06
 BYTE   An0  v052
 BYTE   N06  An1
 BYTE   W06
 BYTE   An0  v032
 BYTE   N06  An1
 BYTE   W06
 BYTE   An0  v040
 BYTE   N06  An1
 BYTE   W06
 BYTE   An0  v048
 BYTE   N06  An1
 BYTE   W06
 BYTE   An0
 BYTE   N06  An1
 BYTE   W06
 BYTE   An0  v032
 BYTE   N06  An1
 BYTE   W06
 BYTE   An0  v040
 BYTE   N06  An1
 BYTE   W06
 BYTE   An0  v036
 BYTE   N06  An1
 BYTE   W06
 BYTE   An1  v056
 BYTE   N06  An2
 BYTE   W06
 BYTE   An0  v032
 BYTE   N06  An1
 BYTE   W06
 BYTE   An1  v036
 BYTE   N06  An2
 BYTE   W06
 BYTE   An0
 BYTE   N06  An1
 BYTE   W06
// 033   ----------------------------------------
 BYTE   PATT
  POIN2 Label_13_0166C36C
// 034   ----------------------------------------
 BYTE   PATT
  POIN2 Label_13_0166C3BE
// 035   ----------------------------------------
 BYTE   PATT
  POIN2 Label_13_0166C40D
// 036   ----------------------------------------
Label_13_0166C4BB:
 BYTE   N06  Fn0  v056
 BYTE   N06  Fn1
 BYTE   W06
 BYTE   Fn0  v032
 BYTE   N06  Fn1
 BYTE   W06
 BYTE   Fn0  v036
 BYTE   N06  Fn1
 BYTE   W06
 BYTE   Fn0
 BYTE   N06  Fn1
 BYTE   W06
 BYTE   Fn0  v052
 BYTE   N06  Fn1
 BYTE   W06
 BYTE   Fn0  v032
 BYTE   N06  Fn1
 BYTE   W06
 BYTE   Fn0  v040
 BYTE   N06  Fn1
 BYTE   W06
 BYTE   Fn0  v048
 BYTE   N06  Fn1
 BYTE   W06
 BYTE   Fn0
 BYTE   N06  Fn1
 BYTE   W06
 BYTE   Fn0  v032
 BYTE   N06  Fn1
 BYTE   W06
 BYTE   Fn0  v040
 BYTE   N06  Fn1
 BYTE   W06
 BYTE   Fn0  v036
 BYTE   N06  Fn1
 BYTE   W06
 BYTE   Fn1  v056
 BYTE   N06  Fn2
 BYTE   W06
 BYTE   Fn0  v032
 BYTE   N06  Fn1
 BYTE   W06
 BYTE   Fn1  v036
 BYTE   N06  Fn2
 BYTE   W06
 BYTE   Fn0
 BYTE   N06  Fn1
 BYTE   W06
 BYTE   PEND 
// 037   ----------------------------------------
Label_13_0166C50A:
 BYTE   N06  Bn0  v056
 BYTE   N06  Bn1
 BYTE   W06
 BYTE   Bn0  v032
 BYTE   N06  Bn1
 BYTE   W06
 BYTE   Bn0  v040
 BYTE   N06  Bn1
 BYTE   W06
 BYTE   Bn0  v032
 BYTE   N06  Bn1
 BYTE   W06
 BYTE   Bn0  v052
 BYTE   N06  Bn1
 BYTE   W06
 BYTE   Bn0  v032
 BYTE   N06  Bn1
 BYTE   W06
 BYTE   Bn0  v036
 BYTE   N06  Bn1
 BYTE   W06
 BYTE   Bn0  v048
 BYTE   N06  Bn1
 BYTE   W06
 BYTE   Bn0  v052
 BYTE   N06  Bn1
 BYTE   W06
 BYTE   Bn0  v032
 BYTE   N06  Bn1
 BYTE   W06
 BYTE   Bn0  v036
 BYTE   N06  Bn1
 BYTE   W06
 BYTE   Bn0  v040
 BYTE   N06  Bn1
 BYTE   W06
 BYTE   Bn1  v048
 BYTE   N06  Bn2
 BYTE   W06
 BYTE   Bn0  v032
 BYTE   N06  Bn1
 BYTE   W06
 BYTE   Bn1  v036
 BYTE   N06  Bn2
 BYTE   W06
 BYTE   Bn0  v040
 BYTE   N06  Bn1
 BYTE   W06
 BYTE   PEND 
// 038   ----------------------------------------
Label_13_0166C55C:
 BYTE   N06  En0  v056
 BYTE   N06  En1
 BYTE   W06
 BYTE   En0  v032
 BYTE   N06  En1
 BYTE   W06
 BYTE   En0  v036
 BYTE   N06  En1
 BYTE   W06
 BYTE   En0
 BYTE   N06  En1
 BYTE   W06
 BYTE   En0  v052
 BYTE   N06  En1
 BYTE   W06
 BYTE   En0  v032
 BYTE   N06  En1
 BYTE   W06
 BYTE   En0  v040
 BYTE   N06  En1
 BYTE   W06
 BYTE   En0  v048
 BYTE   N06  En1
 BYTE   W06
 BYTE   En0
 BYTE   N06  En1
 BYTE   W06
 BYTE   En0  v032
 BYTE   N06  En1
 BYTE   W06
 BYTE   En0  v040
 BYTE   N06  En1
 BYTE   W06
 BYTE   En0  v036
 BYTE   N06  En1
 BYTE   W06
 BYTE   En1  v056
 BYTE   N06  En2
 BYTE   W06
 BYTE   En0  v032
 BYTE   N06  En1
 BYTE   W06
 BYTE   En1  v036
 BYTE   N06  En2
 BYTE   W06
 BYTE   En0
 BYTE   N06  En1
 BYTE   W06
 BYTE   PEND 
// 039   ----------------------------------------
Label_13_0166C5AB:
 BYTE   N06  An0  v056
 BYTE   N06  An1
 BYTE   W06
 BYTE   An0  v032
 BYTE   N06  An1
 BYTE   W06
 BYTE   An0  v040
 BYTE   N06  An1
 BYTE   W06
 BYTE   An0  v032
 BYTE   N06  An1
 BYTE   W06
 BYTE   An0  v052
 BYTE   N06  An1
 BYTE   W06
 BYTE   An0  v032
 BYTE   N06  An1
 BYTE   W06
 BYTE   An0  v036
 BYTE   N06  An1
 BYTE   W06
 BYTE   An0  v048
 BYTE   N06  An1
 BYTE   W06
 BYTE   Gn0  v052
 BYTE   N06  Gn1
 BYTE   W06
 BYTE   Gn0  v032
 BYTE   N06  Gn1
 BYTE   W06
 BYTE   Gn0  v036
 BYTE   N06  Gn1
 BYTE   W06
 BYTE   Gn0  v040
 BYTE   N06  Gn1
 BYTE   W06
 BYTE   Gn1  v048
 BYTE   N06  Gn2
 BYTE   W06
 BYTE   Gn0  v032
 BYTE   N06  Gn1
 BYTE   W06
 BYTE   Gn1  v036
 BYTE   N06  Gn2
 BYTE   W06
 BYTE   Gn0  v040
 BYTE   N06  Gn1
 BYTE   W06
 BYTE   PEND 
// 040   ----------------------------------------
 BYTE   PATT
  POIN2 Label_13_0166C4BB
// 041   ----------------------------------------
 BYTE   PATT
  POIN2 Label_13_0166C50A
// 042   ----------------------------------------
 BYTE   PATT
  POIN2 Label_13_0166C55C
// 043   ----------------------------------------
 BYTE   PATT
  POIN2 Label_13_0166C5AB
// 044   ----------------------------------------
 BYTE   N06  Dn0  v056
 BYTE   N06  Dn1
 BYTE   W06
 BYTE   Dn0  v032
 BYTE   N06  Dn1
 BYTE   W06
 BYTE   Dn0  v036
 BYTE   N06  Dn1
 BYTE   W06
 BYTE   Dn0
 BYTE   N06  Dn1
 BYTE   W06
 BYTE   Dn0  v052
 BYTE   N06  Dn1
 BYTE   W06
 BYTE   Dn0  v032
 BYTE   N06  Dn1
 BYTE   W06
 BYTE   Dn0  v040
 BYTE   N06  Dn1
 BYTE   W06
 BYTE   Dn0  v048
 BYTE   N06  Dn1
 BYTE   W06
 BYTE   Dn0
 BYTE   N06  Dn1
 BYTE   W06
 BYTE   Dn0  v032
 BYTE   N06  Dn1
 BYTE   W06
 BYTE   Dn0  v040
 BYTE   N06  Dn1
 BYTE   W06
 BYTE   Dn0  v036
 BYTE   N06  Dn1
 BYTE   W06
 BYTE   Dn1  v056
 BYTE   N06  Dn2
 BYTE   W06
 BYTE   Dn0  v032
 BYTE   N06  Dn1
 BYTE   W06
 BYTE   Dn1  v036
 BYTE   N06  Dn2
 BYTE   W06
 BYTE   Dn0
 BYTE   N06  Dn1
 BYTE   W06
// 045   ----------------------------------------
 BYTE   En0  v056
 BYTE   N06  En1
 BYTE   W06
 BYTE   En0  v032
 BYTE   N06  En1
 BYTE   W06
 BYTE   En0  v040
 BYTE   N06  En1
 BYTE   W06
 BYTE   En0  v032
 BYTE   N06  En1
 BYTE   W06
 BYTE   En0  v052
 BYTE   N06  En1
 BYTE   W06
 BYTE   En0  v032
 BYTE   N06  En1
 BYTE   W06
 BYTE   En0  v036
 BYTE   N06  En1
 BYTE   W06
 BYTE   En0  v048
 BYTE   N06  En1
 BYTE   W06
 BYTE   En0  v052
 BYTE   N06  En1
 BYTE   W06
 BYTE   En0  v032
 BYTE   N06  En1
 BYTE   W06
 BYTE   En0  v036
 BYTE   N06  En1
 BYTE   W06
 BYTE   En0  v040
 BYTE   N06  En1
 BYTE   W06
 BYTE   En1  v048
 BYTE   N06  En2
 BYTE   W06
 BYTE   En0  v032
 BYTE   N06  En1
 BYTE   W06
 BYTE   En1  v036
 BYTE   N06  En2
 BYTE   W06
 BYTE   En0  v040
 BYTE   N06  En1
 BYTE   W06
// 046   ----------------------------------------
 BYTE   PATT
  POIN2 Label_13_0166C4BB
// 047   ----------------------------------------
 BYTE   N06  Gn0  v056
 BYTE   N06  Gn1
 BYTE   W06
 BYTE   Gn0  v032
 BYTE   N06  Gn1
 BYTE   W06
 BYTE   Gn0  v040
 BYTE   N06  Gn1
 BYTE   W06
 BYTE   Gn0  v032
 BYTE   N06  Gn1
 BYTE   W06
 BYTE   Gn0  v052
 BYTE   N06  Gn1
 BYTE   W06
 BYTE   Gn0  v032
 BYTE   N06  Gn1
 BYTE   W06
 BYTE   Gn0  v036
 BYTE   N06  Gn1
 BYTE   W06
 BYTE   Gn0  v048
 BYTE   N06  Gn1
 BYTE   W06
 BYTE   Gn0  v052
 BYTE   N06  Gn1
 BYTE   W06
 BYTE   Gn0  v032
 BYTE   N06  Gn1
 BYTE   W06
 BYTE   Gn0  v036
 BYTE   N06  Gn1
 BYTE   W06
 BYTE   Gn0  v040
 BYTE   N06  Gn1
 BYTE   W06
 BYTE   Gn1  v048
 BYTE   N06  Gn2
 BYTE   W06
 BYTE   Gn0  v032
 BYTE   N06  Gn1
 BYTE   W06
 BYTE   Gn1  v036
 BYTE   N06  Gn2
 BYTE   W06
 BYTE   Gn0  v040
 BYTE   N06  Gn1
 BYTE   W06
// 048   ----------------------------------------
 BYTE   N96  Dn0  v056
 BYTE   N96  Dn1
 BYTE   W96
// 049   ----------------------------------------
 BYTE   En0
 BYTE   N96  En1
 BYTE   W96
// 050   ----------------------------------------
 BYTE   Fn0
 BYTE   N96  Fn1
 BYTE   W96
// 051   ----------------------------------------
 BYTE   N48  Gn0
 BYTE   N48  Gn1
 BYTE   W48
 BYTE   Gn0  v052
 BYTE   N48  Gn1
 BYTE   W48
// 052   ----------------------------------------
 BYTE   GoTo
  POIN2 Label_13_0166C0BC
// 053   ----------------------------------------
 BYTE   W96
 BYTE   FINE

//**************** Track 15 (Midi-Chn.14) ****************//

Stick_015:
// 000   ----------------------------------------
 BYTE   KEYSH   Stick_key+0
 BYTE   VOICE   99
 BYTE   MODT 0
 BYTE   LFOS 44
 BYTE   VOL   17*Stick_mvl/mxv
 BYTE   PAN   c_v+0
 BYTE   W96
// 001   ----------------------------------------
 BYTE   W96
// 002   ----------------------------------------
 BYTE   W96
// 003   ----------------------------------------
 BYTE   W96
// 004   ----------------------------------------
Label_14_01611FD0:
 BYTE   VOL   20*Stick_mvl/mxv
 BYTE   PAN   c_v-63
 BYTE   W01
 BYTE   PAN   c_v-62
 BYTE   W02
 BYTE   PAN   c_v-61
 BYTE   W01
 BYTE   PAN   c_v-60
 BYTE   W02
 BYTE   PAN   c_v-59
 BYTE   N06  Cn4  v048
 BYTE   N06  En4
 BYTE   W01
 BYTE   PAN   c_v-58
 BYTE   W02
 BYTE   PAN   c_v-57
 BYTE   VOL   20*Stick_mvl/mxv
 BYTE   W01
 BYTE   PAN   c_v-56
 BYTE   W02
 BYTE   PAN   c_v-55
 BYTE   N06  Cn4
 BYTE   N06  En4
 BYTE   W02
 BYTE   PAN   c_v-54
 BYTE   W01
 BYTE   PAN   c_v-53
 BYTE   W02
 BYTE   PAN   c_v-52
 BYTE   W01
 BYTE   PAN   c_v-51
 BYTE   W01
 BYTE   VOL   20*Stick_mvl/mxv
 BYTE   W01
 BYTE   PAN   c_v-50
 BYTE   W01
 BYTE   PAN   c_v-49
 BYTE   W02
 BYTE   PAN   c_v-48
 BYTE   W01
 BYTE   N06  Cn4
 BYTE   N06  En4
 BYTE   W01
 BYTE   PAN   c_v-47
 BYTE   W01
 BYTE   PAN   c_v-46
 BYTE   W01
 BYTE   PAN   c_v-45
 BYTE   W02
 BYTE   VOL   21*Stick_mvl/mxv
 BYTE   PAN   c_v-44
 BYTE   W01
 BYTE   PAN   c_v-43
 BYTE   W02
 BYTE   PAN   c_v-42
 BYTE   W01
 BYTE   PAN   c_v-41
 BYTE   W02
 BYTE   PAN   c_v-40
 BYTE   W01
 BYTE   N06  Cn4
 BYTE   N06  En4
 BYTE   W01
 BYTE   PAN   c_v-39
 BYTE   W01
 BYTE   VOL   21*Stick_mvl/mxv
 BYTE   PAN   c_v-38
 BYTE   W02
 BYTE   PAN   c_v-37
 BYTE   W01
 BYTE   PAN   c_v-36
 BYTE   W01
 BYTE   N06  Cn4
 BYTE   N06  En4
 BYTE   W01
 BYTE   PAN   c_v-35
 BYTE   W01
 BYTE   PAN   c_v-34
 BYTE   W02
 BYTE   PAN   c_v-33
 BYTE   W02
 BYTE   VOL   22*Stick_mvl/mxv
 BYTE   PAN   c_v-32
 BYTE   W01
 BYTE   PAN   c_v-31
 BYTE   W02
 BYTE   PAN   c_v-30
 BYTE   W01
 BYTE   PAN   c_v-29
 BYTE   W02
 BYTE   PAN   c_v-28
 BYTE   N06  Cn4
 BYTE   N06  En4
 BYTE   W01
 BYTE   PAN   c_v-27
 BYTE   W01
 BYTE   PAN   c_v-26
 BYTE   W01
 BYTE   VOL   22*Stick_mvl/mxv
 BYTE   W01
 BYTE   PAN   c_v-25
 BYTE   W02
 BYTE   PAN   c_v-24
 BYTE   N06  Cn4
 BYTE   N06  En4
 BYTE   W01
 BYTE   PAN   c_v-23
 BYTE   W02
 BYTE   PAN   c_v-22
 BYTE   W01
 BYTE   PAN   c_v-21
 BYTE   W02
 BYTE   PAN   c_v-20
 BYTE   W01
 BYTE   VOL   22*Stick_mvl/mxv
 BYTE   PAN   c_v-19
 BYTE   W02
 BYTE   PAN   c_v-18
 BYTE   W01
 BYTE   PAN   c_v-17
 BYTE   W02
 BYTE   PAN   c_v-16
 BYTE   N06  Cn4
 BYTE   N06  En4
 BYTE   W02
 BYTE   PAN   c_v-15
 BYTE   W01
 BYTE   PAN   c_v-14
 BYTE   W02
 BYTE   VOL   23*Stick_mvl/mxv
 BYTE   PAN   c_v-13
 BYTE   W01
 BYTE   PAN   c_v-12
 BYTE   W02
 BYTE   PAN   c_v-11
 BYTE   W01
 BYTE   PAN   c_v-10
 BYTE   W01
 BYTE   PAN   c_v-9
 BYTE   W02
 BYTE   PAN   c_v-8
 BYTE   N06  Cn4
 BYTE   N06  En4
 BYTE   W02
 BYTE   PAN   c_v-7
 BYTE   VOL   23*Stick_mvl/mxv
 BYTE   W01
 BYTE   PAN   c_v-6
 BYTE   W02
 BYTE   PAN   c_v-5
 BYTE   W01
 BYTE   PAN   c_v-4
 BYTE   N06  Cn4
 BYTE   N06  En4
 BYTE   W02
 BYTE   PAN   c_v-3
 BYTE   W01
 BYTE   PAN   c_v-2
 BYTE   W02
 BYTE   PAN   c_v-1
 BYTE   W01
 BYTE   PEND 
// 005   ----------------------------------------
Label_14_016120A5:
 BYTE   VOL   23*Stick_mvl/mxv
 BYTE   W01
 BYTE   PAN   c_v+0
 BYTE   W01
 BYTE   PAN   c_v+1
 BYTE   W02
 BYTE   PAN   c_v+2
 BYTE   W01
 BYTE   PAN   c_v+3
 BYTE   W01
 BYTE   N06  Cn4  v048
 BYTE   N06  En4
 BYTE   W01
 BYTE   PAN   c_v+4
 BYTE   W01
 BYTE   PAN   c_v+5
 BYTE   W01
 BYTE   VOL   23*Stick_mvl/mxv
 BYTE   W01
 BYTE   PAN   c_v+6
 BYTE   W02
 BYTE   PAN   c_v+7
 BYTE   N06  Cn4
 BYTE   N06  En4
 BYTE   W01
 BYTE   PAN   c_v+8
 BYTE   W01
 BYTE   PAN   c_v+9
 BYTE   W02
 BYTE   PAN   c_v+10
 BYTE   W01
 BYTE   PAN   c_v+11
 BYTE   W02
 BYTE   VOL   24*Stick_mvl/mxv
 BYTE   PAN   c_v+12
 BYTE   W01
 BYTE   PAN   c_v+13
 BYTE   W02
 BYTE   PAN   c_v+14
 BYTE   W02
 BYTE   PAN   c_v+15
 BYTE   N06  Cn4
 BYTE   N06  En4
 BYTE   W01
 BYTE   PAN   c_v+16
 BYTE   W02
 BYTE   PAN   c_v+17
 BYTE   W01
 BYTE   PAN   c_v+18
 BYTE   W01
 BYTE   VOL   24*Stick_mvl/mxv
 BYTE   W01
 BYTE   PAN   c_v+19
 BYTE   W01
 BYTE   PAN   c_v+20
 BYTE   W02
 BYTE   PAN   c_v+21
 BYTE   W01
 BYTE   PAN   c_v+22
 BYTE   W02
 BYTE   PAN   c_v+23
 BYTE   N06  Cn4
 BYTE   N06  En4
 BYTE   W02
 BYTE   PAN   c_v+24
 BYTE   VOL   25*Stick_mvl/mxv
 BYTE   W01
 BYTE   PAN   c_v+25
 BYTE   W02
 BYTE   PAN   c_v+26
 BYTE   W01
 BYTE   PAN   c_v+27
 BYTE   N06  Cn4
 BYTE   N06  En4
 BYTE   W01
 BYTE   PAN   c_v+28
 BYTE   W02
 BYTE   PAN   c_v+29
 BYTE   W01
 BYTE   PAN   c_v+30
 BYTE   W02
 BYTE   VOL   25*Stick_mvl/mxv
 BYTE   PAN   c_v+31
 BYTE   W02
 BYTE   PAN   c_v+32
 BYTE   W01
 BYTE   PAN   c_v+33
 BYTE   W02
 BYTE   PAN   c_v+34
 BYTE   W01
 BYTE   PAN   c_v+35
 BYTE   N06  Cn4
 BYTE   N06  En4
 BYTE   W02
 BYTE   PAN   c_v+36
 BYTE   W01
 BYTE   VOL   25*Stick_mvl/mxv
 BYTE   PAN   c_v+37
 BYTE   W02
 BYTE   PAN   c_v+38
 BYTE   W01
 BYTE   N06  Cn4
 BYTE   N06  En4
 BYTE   W01
 BYTE   PAN   c_v+39
 BYTE   W01
 BYTE   PAN   c_v+40
 BYTE   W02
 BYTE   PAN   c_v+41
 BYTE   W01
 BYTE   PAN   c_v+42
 BYTE   W02
 BYTE   VOL   26*Stick_mvl/mxv
 BYTE   PAN   c_v+43
 BYTE   W01
 BYTE   PAN   c_v+44
 BYTE   W01
 BYTE   PAN   c_v+45
 BYTE   W02
 BYTE   PAN   c_v+46
 BYTE   W01
 BYTE   N06  Cn4
 BYTE   N06  En4
 BYTE   W01
 BYTE   PAN   c_v+47
 BYTE   W01
 BYTE   PAN   c_v+48
 BYTE   W02
 BYTE   PAN   c_v+49
 BYTE   W01
 BYTE   VOL   26*Stick_mvl/mxv
 BYTE   PAN   c_v+50
 BYTE   W02
 BYTE   PAN   c_v+51
 BYTE   W01
 BYTE   PAN   c_v+52
 BYTE   W02
 BYTE   PAN   c_v+53
 BYTE   W02
 BYTE   PAN   c_v+54
 BYTE   N06  Cn4
 BYTE   N06  En4
 BYTE   W01
 BYTE   PAN   c_v+55
 BYTE   W01
 BYTE   VOL   27*Stick_mvl/mxv
 BYTE   W01
 BYTE   PAN   c_v+56
 BYTE   W01
 BYTE   PAN   c_v+57
 BYTE   W02
 BYTE   PAN   c_v+58
 BYTE   N06  Cn4
 BYTE   N06  En4
 BYTE   W01
 BYTE   PAN   c_v+59
 BYTE   W02
 BYTE   PAN   c_v+60
 BYTE   W01
 BYTE   PAN   c_v+61
 BYTE   W02
 BYTE   PEND 
// 006   ----------------------------------------
Label_14_0161217A:
 BYTE   VOL   27*Stick_mvl/mxv
 BYTE   PAN   c_v+60
 BYTE   W03
 BYTE   PAN   c_v+59
 BYTE   W03
 BYTE   PAN   c_v+58
 BYTE   N06  Cn4  v048
 BYTE   N06  En4
 BYTE   W01
 BYTE   VOL   27*Stick_mvl/mxv
 BYTE   W02
 BYTE   PAN   c_v+57
 BYTE   W03
 BYTE   N06  Cn4
 BYTE   N06  En4
 BYTE   W01
 BYTE   PAN   c_v+56
 BYTE   W01
 BYTE   VOL   26*Stick_mvl/mxv
 BYTE   W02
 BYTE   PAN   c_v+55
 BYTE   W03
 BYTE   PAN   c_v+54
 BYTE   W02
 BYTE   VOL   26*Stick_mvl/mxv
 BYTE   W01
 BYTE   PAN   c_v+53
 BYTE   W01
 BYTE   N06  Cn3
 BYTE   W01
 BYTE   Cn4
 BYTE   N06  En4
 BYTE   W02
 BYTE   PAN   c_v+52
 BYTE   W02
 BYTE   VOL   25*Stick_mvl/mxv
 BYTE   W01
 BYTE   PAN   c_v+51
 BYTE   W03
 BYTE   PAN   c_v+50
 BYTE   W02
 BYTE   VOL   25*Stick_mvl/mxv
 BYTE   W01
 BYTE   PAN   c_v+49
 BYTE   W01
 BYTE   N06  Cn4
 BYTE   N06  En4
 BYTE   W02
 BYTE   PAN   c_v+48
 BYTE   W03
 BYTE   PAN   c_v+47
 BYTE   W01
 BYTE   VOL   25*Stick_mvl/mxv
 BYTE   N06  Cn4
 BYTE   N06  En4
 BYTE   W02
 BYTE   PAN   c_v+46
 BYTE   W04
 BYTE   PAN   c_v+45
 BYTE   W01
 BYTE   VOL   24*Stick_mvl/mxv
 BYTE   W02
 BYTE   PAN   c_v+44
 BYTE   W02
 BYTE   N06  Cn3
 BYTE   W01
 BYTE   PAN   c_v+43
 BYTE   N06  Cn4
 BYTE   N06  En4
 BYTE   W02
 BYTE   VOL   24*Stick_mvl/mxv
 BYTE   W01
 BYTE   PAN   c_v+42
 BYTE   W03
 BYTE   N06  Cn4
 BYTE   N06  En4
 BYTE   W01
 BYTE   PAN   c_v+41
 BYTE   W02
 BYTE   VOL   23*Stick_mvl/mxv
 BYTE   W01
 BYTE   PAN   c_v+40
 BYTE   W03
 BYTE   PAN   c_v+39
 BYTE   W02
 BYTE   VOL   23*Stick_mvl/mxv
 BYTE   W01
 BYTE   PAN   c_v+38
 BYTE   W01
 BYTE   N06  Cn3
 BYTE   W01
 BYTE   Cn4
 BYTE   N06  En4
 BYTE   W02
 BYTE   PAN   c_v+37
 BYTE   W03
 BYTE   VOL   23*Stick_mvl/mxv
 BYTE   PAN   c_v+36
 BYTE   W03
 BYTE   PAN   c_v+35
 BYTE   W03
 BYTE   PAN   c_v+34
 BYTE   W01
 BYTE   VOL   23*Stick_mvl/mxv
 BYTE   N06  Cn4
 BYTE   N06  En4
 BYTE   W02
 BYTE   PAN   c_v+33
 BYTE   W03
 BYTE   PAN   c_v+32
 BYTE   W01
 BYTE   N06  Cn4
 BYTE   N06  En4
 BYTE   W01
 BYTE   VOL   22*Stick_mvl/mxv
 BYTE   W01
 BYTE   PAN   c_v+31
 BYTE   W04
 BYTE   PEND 
// 007   ----------------------------------------
Label_14_01612229:
 BYTE   PAN   c_v+30
 BYTE   W02
 BYTE   VOL   22*Stick_mvl/mxv
 BYTE   W01
 BYTE   PAN   c_v+29
 BYTE   W02
 BYTE   N06  Cn3  v048
 BYTE   W01
 BYTE   PAN   c_v+28
 BYTE   N06  Cn4
 BYTE   N06  En4
 BYTE   W02
 BYTE   VOL   22*Stick_mvl/mxv
 BYTE   W01
 BYTE   PAN   c_v+27
 BYTE   W03
 BYTE   N06  Cn4
 BYTE   N06  En4
 BYTE   W01
 BYTE   PAN   c_v+26
 BYTE   W03
 BYTE   VOL   21*Stick_mvl/mxv
 BYTE   PAN   c_v+25
 BYTE   W03
 BYTE   PAN   c_v+24
 BYTE   W03
 BYTE   PAN   c_v+23
 BYTE   VOL   21*Stick_mvl/mxv
 BYTE   W01
 BYTE   N06  Cn3
 BYTE   W01
 BYTE   Cn4
 BYTE   N06  En4
 BYTE   W02
 BYTE   PAN   c_v+22
 BYTE   W03
 BYTE   PAN   c_v+21
 BYTE   W01
 BYTE   VOL   20*Stick_mvl/mxv
 BYTE   W02
 BYTE   PAN   c_v+20
 BYTE   W03
 BYTE   PAN   c_v+19
 BYTE   W01
 BYTE   N06  Cn4
 BYTE   N06  En4
 BYTE   W01
 BYTE   VOL   20*Stick_mvl/mxv
 BYTE   W01
 BYTE   PAN   c_v+18
 BYTE   W03
 BYTE   PAN   c_v+17
 BYTE   W01
 BYTE   N06  Cn4
 BYTE   N06  En4
 BYTE   W01
 BYTE   VOL   20*Stick_mvl/mxv
 BYTE   W01
 BYTE   PAN   c_v+16
 BYTE   W04
 BYTE   PAN   c_v+15
 BYTE   W03
 BYTE   VOL   19*Stick_mvl/mxv
 BYTE   PAN   c_v+14
 BYTE   W02
 BYTE   N06  Cn3
 BYTE   W01
 BYTE   PAN   c_v+13
 BYTE   N06  Cn4
 BYTE   N06  En4
 BYTE   W03
 BYTE   VOL   19*Stick_mvl/mxv
 BYTE   PAN   c_v+12
 BYTE   W03
 BYTE   N06  Cn4
 BYTE   N06  En4
 BYTE   W01
 BYTE   PAN   c_v+11
 BYTE   W03
 BYTE   PAN   c_v+10
 BYTE   VOL   18*Stick_mvl/mxv
 BYTE   W01
 BYTE   VOL   18*Stick_mvl/mxv
 BYTE   W01
 BYTE   VOL   18*Stick_mvl/mxv
 BYTE   W01
 BYTE   PAN   c_v+9
 BYTE   VOL   18*Stick_mvl/mxv
 BYTE   W01
 BYTE   VOL   17*Stick_mvl/mxv
 BYTE   W01
 BYTE   VOL   17*Stick_mvl/mxv
 BYTE   W01
 BYTE   VOL   17*Stick_mvl/mxv
 BYTE   PAN   c_v+8
 BYTE   W01
 BYTE   VOL   17*Stick_mvl/mxv
 BYTE   N06  Cn3
 BYTE   W01
 BYTE   VOL   16*Stick_mvl/mxv
 BYTE   N06  Cn4
 BYTE   N06  En4
 BYTE   W01
 BYTE   VOL   15*Stick_mvl/mxv
 BYTE   W01
 BYTE   PAN   c_v+7
 BYTE   VOL   15*Stick_mvl/mxv
 BYTE   W01
 BYTE   VOL   15*Stick_mvl/mxv
 BYTE   W01
 BYTE   VOL   15*Stick_mvl/mxv
 BYTE   W01
 BYTE   VOL   15*Stick_mvl/mxv
 BYTE   PAN   c_v+6
 BYTE   W01
 BYTE   VOL   14*Stick_mvl/mxv
 BYTE   W01
 BYTE   VOL   14*Stick_mvl/mxv
 BYTE   W01
 BYTE   VOL   13*Stick_mvl/mxv
 BYTE   PAN   c_v+5
 BYTE   VOL   13*Stick_mvl/mxv
 BYTE   W01
 BYTE   VOL   13*Stick_mvl/mxv
 BYTE   W01
 BYTE   VOL   13*Stick_mvl/mxv
 BYTE   W01
 BYTE   PAN   c_v+4
 BYTE   W01
 BYTE   VOL   12*Stick_mvl/mxv
 BYTE   N06  Cn4
 BYTE   N06  En4
 BYTE   W01
 BYTE   VOL   11*Stick_mvl/mxv
 BYTE   W01
 BYTE   VOL   11*Stick_mvl/mxv
 BYTE   PAN   c_v+3
 BYTE   W01
 BYTE   VOL   11*Stick_mvl/mxv
 BYTE   W01
 BYTE   VOL   11*Stick_mvl/mxv
 BYTE   W01
 BYTE   VOL   11*Stick_mvl/mxv
 BYTE   PAN   c_v+2
 BYTE   W01
 BYTE   VOL   10*Stick_mvl/mxv
 BYTE   N06  Cn4
 BYTE   N06  En4
 BYTE   W01
 BYTE   VOL   10*Stick_mvl/mxv
 BYTE   W01
 BYTE   VOL   10*Stick_mvl/mxv
 BYTE   PAN   c_v+1
 BYTE   W01
 BYTE   VOL   10*Stick_mvl/mxv
 BYTE   W01
 BYTE   VOL   10*Stick_mvl/mxv
 BYTE   W01
 BYTE   VOL   9*Stick_mvl/mxv
 BYTE   W01
 BYTE   PEND 
// 008   ----------------------------------------
Label_14_01612310:
 BYTE   VOL   8*Stick_mvl/mxv
 BYTE   PAN   c_v+0
 BYTE   W96
// 009   ----------------------------------------
 BYTE   W96
// 010   ----------------------------------------
 BYTE   W96
// 011   ----------------------------------------
 BYTE   W96
// 012   ----------------------------------------
 BYTE   W96
// 013   ----------------------------------------
 BYTE   W96
// 014   ----------------------------------------
 BYTE   W96
// 015   ----------------------------------------
 BYTE   W96
// 016   ----------------------------------------
 BYTE   W96
// 017   ----------------------------------------
 BYTE   W96
// 018   ----------------------------------------
 BYTE   W96
// 019   ----------------------------------------
 BYTE   W96
// 020   ----------------------------------------
 BYTE   W96
// 021   ----------------------------------------
 BYTE   W96
// 022   ----------------------------------------
 BYTE   W96
// 023   ----------------------------------------
 BYTE   W96
// 024   ----------------------------------------
 BYTE   W96
// 025   ----------------------------------------
 BYTE   W96
// 026   ----------------------------------------
 BYTE   W96
// 027   ----------------------------------------
 BYTE   W96
// 028   ----------------------------------------
 BYTE   W96
// 029   ----------------------------------------
 BYTE   W96
// 030   ----------------------------------------
 BYTE   W96
// 031   ----------------------------------------
 BYTE   W96
// 032   ----------------------------------------
 BYTE   PATT
  POIN2 Label_14_01611FD0
// 033   ----------------------------------------
 BYTE   PATT
  POIN2 Label_14_016120A5
// 034   ----------------------------------------
 BYTE   PATT
  POIN2 Label_14_0161217A
// 035   ----------------------------------------
 BYTE   PATT
  POIN2 Label_14_01612229
// 036   ----------------------------------------
 BYTE   VOL   8*Stick_mvl/mxv
 BYTE   PAN   c_v+0
 BYTE   W96
// 037   ----------------------------------------
 BYTE   W96
// 038   ----------------------------------------
 BYTE   W96
// 039   ----------------------------------------
 BYTE   W96
// 040   ----------------------------------------
 BYTE   W96
// 041   ----------------------------------------
 BYTE   W96
// 042   ----------------------------------------
 BYTE   W96
// 043   ----------------------------------------
 BYTE   W96
// 044   ----------------------------------------
 BYTE   W96
// 045   ----------------------------------------
 BYTE   W96
// 046   ----------------------------------------
 BYTE   W96
// 047   ----------------------------------------
 BYTE   W96
// 048   ----------------------------------------
 BYTE   W96
// 049   ----------------------------------------
 BYTE   W96
// 050   ----------------------------------------
 BYTE   W96
// 051   ----------------------------------------
 BYTE   W96
// 052   ----------------------------------------
 BYTE   GoTo
  POIN2 Label_14_01612310
// 053   ----------------------------------------
 BYTE   W96
// 054   ----------------------------------------
 BYTE   VOL   8*Stick_mvl/mxv
 BYTE   PAN   c_v+0
 BYTE   FINE

//**************** Track 16 (Midi-Chn.15) ****************//

Stick_016:
// 000   ----------------------------------------
 BYTE   KEYSH   Stick_key+0
 BYTE   VOICE   76
 BYTE   MODT 0
 BYTE   LFOS 44
 BYTE   VOL   11*Stick_mvl/mxv
 BYTE   PAN   c_v+0
 BYTE   W96
// 001   ----------------------------------------
 BYTE   W96
// 002   ----------------------------------------
 BYTE   W96
// 003   ----------------------------------------
 BYTE   W96
// 004   ----------------------------------------
 BYTE   W96
// 005   ----------------------------------------
 BYTE   W96
// 006   ----------------------------------------
 BYTE   W96
// 007   ----------------------------------------
 BYTE   W96
// 008   ----------------------------------------
Label_15_01610248:
 BYTE   W96
// 009   ----------------------------------------
 BYTE   W96
// 010   ----------------------------------------
 BYTE   W96
// 011   ----------------------------------------
Label_15_0161024B:
 BYTE   N03  Cs6  v084
 BYTE   W03
 BYTE   Cn6
 BYTE   W03
 BYTE   Bn5  v080
 BYTE   W03
 BYTE   As5
 BYTE   W03
 BYTE   An5  v076
 BYTE   W03
 BYTE   As5
 BYTE   W03
 BYTE   An5  v072
 BYTE   W03
 BYTE   Gs5
 BYTE   W03
 BYTE   Gn5  v068
 BYTE   W03
 BYTE   Fs5
 BYTE   W03
 BYTE   Gn5  v064
 BYTE   W03
 BYTE   Fs5
 BYTE   W03
 BYTE   Fn5  v060
 BYTE   W03
 BYTE   En5
 BYTE   W03
 BYTE   Ds5  v056
 BYTE   W03
 BYTE   En5
 BYTE   W03
 BYTE   Ds5  v052
 BYTE   W03
 BYTE   Dn5
 BYTE   W03
 BYTE   Cs5
 BYTE   W03
 BYTE   Cn5  v048
 BYTE   W03
 BYTE   Cs5
 BYTE   W03
 BYTE   Cn5  v044
 BYTE   W03
 BYTE   Bn4
 BYTE   W03
 BYTE   As4
 BYTE   W03
 BYTE   An4  v040
 BYTE   W03
 BYTE   As4
 BYTE   W03
 BYTE   An4  v036
 BYTE   W03
 BYTE   Gs4
 BYTE   W03
 BYTE   Gn4
 BYTE   W03
 BYTE   Fs4  v032
 BYTE   W03
 BYTE   Gn4
 BYTE   W03
 BYTE   Fs4
 BYTE   W03
 BYTE   PEND 
// 012   ----------------------------------------
 BYTE   W96
// 013   ----------------------------------------
 BYTE   W96
// 014   ----------------------------------------
 BYTE   W96
// 015   ----------------------------------------
 BYTE   PATT
  POIN2 Label_15_0161024B
// 016   ----------------------------------------
 BYTE   W96
// 017   ----------------------------------------
 BYTE   W96
// 018   ----------------------------------------
 BYTE   W96
// 019   ----------------------------------------
 BYTE   W96
// 020   ----------------------------------------
 BYTE   W96
// 021   ----------------------------------------
 BYTE   W96
// 022   ----------------------------------------
 BYTE   W96
// 023   ----------------------------------------
 BYTE   W96
// 024   ----------------------------------------
 BYTE   W96
// 025   ----------------------------------------
 BYTE   W96
// 026   ----------------------------------------
 BYTE   W96
// 027   ----------------------------------------
 BYTE   W96
// 028   ----------------------------------------
 BYTE   W96
// 029   ----------------------------------------
 BYTE   W96
// 030   ----------------------------------------
 BYTE   W96
// 031   ----------------------------------------
 BYTE   W96
// 032   ----------------------------------------
 BYTE   W96
// 033   ----------------------------------------
 BYTE   W96
// 034   ----------------------------------------
 BYTE   W96
// 035   ----------------------------------------
 BYTE   W96
// 036   ----------------------------------------
 BYTE   W96
// 037   ----------------------------------------
 BYTE   W96
// 038   ----------------------------------------
 BYTE   W96
// 039   ----------------------------------------
 BYTE   W96
// 040   ----------------------------------------
 BYTE   W96
// 041   ----------------------------------------
 BYTE   W96
// 042   ----------------------------------------
 BYTE   W96
// 043   ----------------------------------------
 BYTE   W96
// 044   ----------------------------------------
 BYTE   W96
// 045   ----------------------------------------
 BYTE   W96
// 046   ----------------------------------------
 BYTE   W96
// 047   ----------------------------------------
 BYTE   W96
// 048   ----------------------------------------
 BYTE   W96
// 049   ----------------------------------------
 BYTE   W96
// 050   ----------------------------------------
 BYTE   W96
// 051   ----------------------------------------
 BYTE   W96
// 052   ----------------------------------------
 BYTE   GoTo
  POIN2 Label_15_01610248
// 053   ----------------------------------------
 BYTE   W96
 BYTE   FINE

//******************************************************//
	ALIGN 4

Stick:
	BYTE	16	// NumTrks
	BYTE	0	// NumBlks
	BYTE	Stick_pri	// Priority
	BYTE	Stick_rev	// Reverb.
    
	POIN2	Stick_grp
    
	POIN2	Stick_001
	POIN2	Stick_002
	POIN2	Stick_003
	POIN2	Stick_004
	POIN2	Stick_005
	POIN2	Stick_006
	POIN2	Stick_007
	POIN2	Stick_008
	POIN2	Stick_009
	POIN2	Stick_010
	POIN2	Stick_011
	POIN2	Stick_012
	POIN2	Stick_013
	POIN2	Stick_014
	POIN2	Stick_015
	POIN2	Stick_016

	
