	.include "MPlayDef.s"

	.equ	song04_grp, voicegroup000
	.equ	song04_pri, 0
	.equ	song04_rev, 0
	.equ	song04_mvl, 127
	.equ	song04_key, 0
	.equ	song04_tbs, 1
	.equ	song04_exg, 0
	.equ	song04_cmp, 1

	.section .rodata
	.global	song04
	.align	2


@**************** Track 1 (Midi-Chn.0) ****************@

song04_001:
@  #01 @000   ----------------------------------------
 .byte   KEYSH , song04_key+0
 .byte   TEMPO , 100*song04_tbs/2
 .byte   VOICE , 40
 .byte   VOL , 39*song04_mvl/mxv
 .byte   PAN , c_v+0
 .byte   TIE ,Gn3 ,v036
 .byte   TIE ,Cn4
 .byte   W96
@  #01 @001   ----------------------------------------
 .byte   W92
 .byte   W03
 .byte   EOT
 .byte   Gn3 ,v072
 .byte   W01
@  #01 @002   ----------------------------------------
Label_F638C2:
 .byte   TIE ,Bn3 ,v036
 .byte   TIE ,En4
 .byte   W96
 .byte   PEND 
@  #01 @003   ----------------------------------------
 .byte   W92
 .byte   W03
 .byte   EOT
 .byte   Bn3 ,v076
 .byte   W01
@  #01 @004   ----------------------------------------
Label_F638CF:
 .byte   TIE ,Gn3 ,v036
 .byte   TIE ,Cn4
 .byte   W96
 .byte   PEND 
@  #01 @005   ----------------------------------------
 .byte   W92
 .byte   W03
 .byte   EOT
 .byte   Gn3 ,v072
 .byte   W01
@  #01 @006   ----------------------------------------
 .byte   PATT
  .word Label_F638C2
@  #01 @007   ----------------------------------------
 .byte   W92
 .byte   W03
 .byte   EOT
 .byte   Bn3 ,v076
 .byte   W01
@  #01 @008   ----------------------------------------
Label_F638E7:
 .byte   N92 ,En3 ,v036
 .byte   N92 ,An3
 .byte   W96
@  #01 @009   ----------------------------------------
 .byte   Dn3
 .byte   N92 ,An3
 .byte   W96
@  #01 @010   ----------------------------------------
 .byte   Dn3
 .byte   N92 ,Gn3
 .byte   W96
@  #01 @011   ----------------------------------------
Label_F638F5:
 .byte   N44 ,En3 ,v036
 .byte   N44 ,Gn3
 .byte   W48
 .byte   Dn3
 .byte   N44 ,Gn3
 .byte   W48
 .byte   PEND 
@  #01 @012   ----------------------------------------
 .byte   N92 ,En3
 .byte   N92 ,An3
 .byte   W96
@  #01 @013   ----------------------------------------
 .byte   Dn3
 .byte   N92 ,An3
 .byte   W96
@  #01 @014   ----------------------------------------
 .byte   Dn3
 .byte   N92 ,Gn3
 .byte   W96
@  #01 @015   ----------------------------------------
 .byte   PATT
  .word Label_F638F5
@  #01 @016   ----------------------------------------
 .byte   N92 ,En3 ,v036
 .byte   N92 ,An3
 .byte   W96
@  #01 @017   ----------------------------------------
 .byte   Dn3
 .byte   N92 ,An3
 .byte   W96
@  #01 @018   ----------------------------------------
 .byte   Dn3
 .byte   N92 ,Gn3
 .byte   W96
@  #01 @019   ----------------------------------------
 .byte   PATT
  .word Label_F638F5
@  #01 @020   ----------------------------------------
 .byte   N92 ,En3 ,v036
 .byte   N92 ,An3
 .byte   W96
@  #01 @021   ----------------------------------------
 .byte   Dn3
 .byte   N92 ,An3
 .byte   W96
@  #01 @022   ----------------------------------------
 .byte   Dn3
 .byte   N92 ,Gn3
 .byte   W96
@  #01 @023   ----------------------------------------
 .byte   PATT
  .word Label_F638F5
@  #01 @024   ----------------------------------------
 .byte   N92 ,Dn3 ,v036
 .byte   N92 ,Fn3
 .byte   W96
@  #01 @025   ----------------------------------------
 .byte   En3
 .byte   N92 ,Gn3
 .byte   W96
@  #01 @026   ----------------------------------------
 .byte   Fn3
 .byte   N92 ,An3
 .byte   W96
@  #01 @027   ----------------------------------------
 .byte   Dn3
 .byte   N92 ,Gn3
 .byte   W96
@  #01 @028   ----------------------------------------
Label_F6394A:
 .byte   TIE ,Gn3 ,v016
 .byte   TIE ,Cn4
 .byte   W96
 .byte   PEND 
@  #01 @029   ----------------------------------------
 .byte   W92
 .byte   W03
 .byte   EOT
 .byte   Gn3 ,v072
 .byte   W01
@  #01 @030   ----------------------------------------
Label_F63957:
 .byte   TIE ,Bn3 ,v016
 .byte   TIE ,En4
 .byte   W96
 .byte   PEND 
@  #01 @031   ----------------------------------------
 .byte   W92
 .byte   W03
 .byte   EOT
 .byte   Bn3 ,v076
 .byte   W01
@  #01 @032   ----------------------------------------
 .byte   PATT
  .word Label_F6394A
@  #01 @033   ----------------------------------------
 .byte   W92
 .byte   W03
 .byte   EOT
 .byte   Gn3 ,v072
 .byte   W01
@  #01 @034   ----------------------------------------
 .byte   PATT
  .word Label_F63957
@  #01 @035   ----------------------------------------
 .byte   W92
 .byte   W03
 .byte   EOT
 .byte   Bn3 ,v076
 .byte   W01
@  #01 @036   ----------------------------------------
 .byte   N92 ,En3 ,v036
 .byte   N92 ,An3
 .byte   W96
@  #01 @037   ----------------------------------------
 .byte   Dn3
 .byte   N92 ,An3
 .byte   W96
@  #01 @038   ----------------------------------------
 .byte   Dn3
 .byte   N92 ,Gn3
 .byte   W96
@  #01 @039   ----------------------------------------
 .byte   PATT
  .word Label_F638F5
@  #01 @040   ----------------------------------------
 .byte   N92 ,En3 ,v036
 .byte   N92 ,An3
 .byte   W96
@  #01 @041   ----------------------------------------
 .byte   Dn3
 .byte   N92 ,An3
 .byte   W96
@  #01 @042   ----------------------------------------
 .byte   Dn3
 .byte   N92 ,Gn3
 .byte   W96
@  #01 @043   ----------------------------------------
 .byte   PATT
  .word Label_F638F5
@  #01 @044   ----------------------------------------
 .byte   N92 ,Dn3 ,v036
 .byte   N92 ,Fn3
 .byte   W96
@  #01 @045   ----------------------------------------
 .byte   En3
 .byte   N92 ,Gn3
 .byte   W96
@  #01 @046   ----------------------------------------
 .byte   Fn3
 .byte   N92 ,An3
 .byte   W96
@  #01 @047   ----------------------------------------
 .byte   Dn3
 .byte   N92 ,Gn3
 .byte   W96
@  #01 @048   ----------------------------------------
 .byte   Dn3
 .byte   N92 ,Fn3
 .byte   W96
@  #01 @049   ----------------------------------------
 .byte   En3
 .byte   N92 ,Gn3
 .byte   W96
@  #01 @050   ----------------------------------------
 .byte   Fn3
 .byte   N92 ,An3
 .byte   W96
@  #01 @051   ----------------------------------------
 .byte   Dn3
 .byte   N92 ,Gn3
 .byte   W96
@  #01 @052   ----------------------------------------
 .byte   TEMPO , 100*song04_tbs/2
 .byte   TIE
 .byte   TIE ,Cn4
 .byte   W96
@  #01 @053   ----------------------------------------
 .byte   W92
 .byte   W03
 .byte   EOT
 .byte   Gn3 ,v072
 .byte   W01
@  #01 @054   ----------------------------------------
 .byte   PATT
  .word Label_F638C2
@  #01 @055   ----------------------------------------
 .byte   W92
 .byte   W03
 .byte   EOT
 .byte   Bn3 ,v076
 .byte   W01
@  #01 @056   ----------------------------------------
 .byte   PATT
  .word Label_F638CF
@  #01 @057   ----------------------------------------
 .byte   W92
 .byte   W03
 .byte   EOT
 .byte   Gn3 ,v072
 .byte   W01
@  #01 @058   ----------------------------------------
 .byte   PATT
  .word Label_F638C2
@  #01 @059   ----------------------------------------
 .byte   W92
 .byte   W03
 .byte   EOT
 .byte   Bn3 ,v076
 .byte   W01
@  #01 @060   ----------------------------------------
 .byte   GOTO
  .word Label_F638E7
@  #01 @061   ----------------------------------------
 .byte   N92 ,En3 ,v036
 .byte   N92 ,An3
 .byte   W96
 .byte   FINE

@**************** Track 2 (Midi-Chn.1) ****************@

song04_002:
@  #02 @000   ----------------------------------------
 .byte   KEYSH , song04_key+0
 .byte   VOICE , 41
 .byte   VOL , 39*song04_mvl/mxv
 .byte   PAN , c_v+0
 .byte   TIE ,An2 ,v016
 .byte   TIE ,En3
 .byte   W96
@  #02 @001   ----------------------------------------
 .byte   W92
 .byte   W03
 .byte   EOT
 .byte   An2 ,v064
 .byte   W01
@  #02 @002   ----------------------------------------
Label_01004564:
 .byte   TIE ,Cn3 ,v016
 .byte   TIE ,Gn3
 .byte   W96
 .byte   PEND 
@  #02 @003   ----------------------------------------
 .byte   W92
 .byte   W03
 .byte   EOT
 .byte   Cn3 ,v067
 .byte   W01
@  #02 @004   ----------------------------------------
Label_01004571:
 .byte   TIE ,An2 ,v016
 .byte   TIE ,En3
 .byte   W96
 .byte   PEND 
@  #02 @005   ----------------------------------------
 .byte   W92
 .byte   W03
 .byte   EOT
 .byte   An2 ,v064
 .byte   W01
@  #02 @006   ----------------------------------------
 .byte   PATT
  .word Label_01004564
@  #02 @007   ----------------------------------------
 .byte   W92
 .byte   W03
 .byte   EOT
 .byte   Cn3 ,v067
 .byte   W01
@  #02 @008   ----------------------------------------
Label_01004589:
 .byte   N92 ,Fn2 ,v016
 .byte   N92 ,Cn3
 .byte   W96
@  #02 @009   ----------------------------------------
 .byte   Gn2
 .byte   N92 ,Bn2
 .byte   W96
@  #02 @010   ----------------------------------------
 .byte   En2
 .byte   N92 ,Bn2
 .byte   W96
@  #02 @011   ----------------------------------------
Label_01004597:
 .byte   N44 ,En2 ,v016
 .byte   N44 ,An2
 .byte   W48
 .byte   Gn2
 .byte   N44 ,Bn2
 .byte   W48
 .byte   PEND 
@  #02 @012   ----------------------------------------
 .byte   N92 ,Fn2
 .byte   N92 ,Cn3
 .byte   W96
@  #02 @013   ----------------------------------------
 .byte   Gn2
 .byte   N92 ,Bn2
 .byte   W96
@  #02 @014   ----------------------------------------
 .byte   En2
 .byte   N92 ,Bn2
 .byte   W96
@  #02 @015   ----------------------------------------
 .byte   PATT
  .word Label_01004597
@  #02 @016   ----------------------------------------
 .byte   N92 ,Fn2 ,v016
 .byte   N92 ,Cn3
 .byte   W96
@  #02 @017   ----------------------------------------
 .byte   Gn2
 .byte   N92 ,Bn2
 .byte   W96
@  #02 @018   ----------------------------------------
 .byte   En2
 .byte   N92 ,Bn2
 .byte   W96
@  #02 @019   ----------------------------------------
 .byte   PATT
  .word Label_01004597
@  #02 @020   ----------------------------------------
 .byte   N92 ,Fn2 ,v016
 .byte   N92 ,Cn3
 .byte   W96
@  #02 @021   ----------------------------------------
 .byte   Gn2
 .byte   N92 ,Bn2
 .byte   W96
@  #02 @022   ----------------------------------------
 .byte   En2
 .byte   N92 ,Bn2
 .byte   W96
@  #02 @023   ----------------------------------------
 .byte   PATT
  .word Label_01004597
@  #02 @024   ----------------------------------------
 .byte   N92 ,An2 ,v016
 .byte   N92 ,Cn3
 .byte   W96
@  #02 @025   ----------------------------------------
 .byte   Bn2
 .byte   N92 ,Dn3
 .byte   W96
@  #02 @026   ----------------------------------------
 .byte   Cn3
 .byte   N92 ,En3
 .byte   W96
@  #02 @027   ----------------------------------------
 .byte   Dn3
 .byte   W96
@  #02 @028   ----------------------------------------
 .byte   PATT
  .word Label_01004571
@  #02 @029   ----------------------------------------
 .byte   W92
 .byte   W03
 .byte   EOT
 .byte   An2 ,v064
 .byte   W01
@  #02 @030   ----------------------------------------
 .byte   PATT
  .word Label_01004564
@  #02 @031   ----------------------------------------
 .byte   W92
 .byte   W03
 .byte   EOT
 .byte   Cn3 ,v067
 .byte   W01
@  #02 @032   ----------------------------------------
 .byte   PATT
  .word Label_01004571
@  #02 @033   ----------------------------------------
 .byte   W92
 .byte   W03
 .byte   EOT
 .byte   An2 ,v064
 .byte   W01
@  #02 @034   ----------------------------------------
 .byte   PATT
  .word Label_01004564
@  #02 @035   ----------------------------------------
 .byte   W92
 .byte   W03
 .byte   EOT
 .byte   Cn3 ,v067
 .byte   W01
@  #02 @036   ----------------------------------------
 .byte   N92 ,Fn2 ,v016
 .byte   N92 ,Cn3
 .byte   W96
@  #02 @037   ----------------------------------------
 .byte   Gn2
 .byte   N92 ,Bn2
 .byte   W96
@  #02 @038   ----------------------------------------
 .byte   En2
 .byte   N92 ,Bn2
 .byte   W96
@  #02 @039   ----------------------------------------
 .byte   PATT
  .word Label_01004597
@  #02 @040   ----------------------------------------
 .byte   N92 ,Fn2 ,v016
 .byte   N92 ,Cn3
 .byte   W96
@  #02 @041   ----------------------------------------
 .byte   Gn2
 .byte   N92 ,Bn2
 .byte   W96
@  #02 @042   ----------------------------------------
 .byte   En2
 .byte   N92 ,Bn2
 .byte   W96
@  #02 @043   ----------------------------------------
 .byte   PATT
  .word Label_01004597
@  #02 @044   ----------------------------------------
 .byte   N92 ,An2 ,v016
 .byte   N92 ,Cn3
 .byte   W96
@  #02 @045   ----------------------------------------
 .byte   Bn2
 .byte   N92 ,Dn3
 .byte   W96
@  #02 @046   ----------------------------------------
 .byte   Cn3
 .byte   N92 ,En3
 .byte   W96
@  #02 @047   ----------------------------------------
 .byte   Dn3
 .byte   W96
@  #02 @048   ----------------------------------------
 .byte   An2
 .byte   N92 ,Cn3
 .byte   W96
@  #02 @049   ----------------------------------------
 .byte   Bn2
 .byte   N92 ,Dn3
 .byte   W96
@  #02 @050   ----------------------------------------
 .byte   Cn3
 .byte   N92 ,En3
 .byte   W96
@  #02 @051   ----------------------------------------
 .byte   Dn3
 .byte   W96
@  #02 @052   ----------------------------------------
 .byte   PATT
  .word Label_01004571
@  #02 @053   ----------------------------------------
 .byte   W92
 .byte   W03
 .byte   EOT
 .byte   An2 ,v064
 .byte   W01
@  #02 @054   ----------------------------------------
 .byte   PATT
  .word Label_01004564
@  #02 @055   ----------------------------------------
 .byte   W92
 .byte   W03
 .byte   EOT
 .byte   Cn3 ,v067
 .byte   W01
@  #02 @056   ----------------------------------------
 .byte   PATT
  .word Label_01004571
@  #02 @057   ----------------------------------------
 .byte   W92
 .byte   W03
 .byte   EOT
 .byte   An2 ,v064
 .byte   W01
@  #02 @058   ----------------------------------------
 .byte   PATT
  .word Label_01004564
@  #02 @059   ----------------------------------------
 .byte   W92
 .byte   W03
 .byte   EOT
 .byte   Cn3 ,v067
 .byte   W01
@  #02 @060   ----------------------------------------
 .byte   GOTO
  .word Label_01004589
@  #02 @061   ----------------------------------------
 .byte   N92 ,Fn2 ,v016
 .byte   N92 ,Cn3
 .byte   W96
 .byte   FINE

@**************** Track 3 (Midi-Chn.2) ****************@

song04_003:
@  #03 @000   ----------------------------------------
 .byte   KEYSH , song04_key+0
 .byte   VOICE , 42
 .byte   VOL , 39*song04_mvl/mxv
 .byte   PAN , c_v+0
 .byte   TIE ,An1 ,v052
 .byte   W96
@  #03 @001   ----------------------------------------
 .byte   W92
 .byte   W03
 .byte   EOT
 .byte   W01
@  #03 @002   ----------------------------------------
 .byte   TIE ,Cn2
 .byte   W96
@  #03 @003   ----------------------------------------
 .byte   W92
 .byte   W03
 .byte   EOT
 .byte   W01
@  #03 @004   ----------------------------------------
 .byte   TIE ,An1
 .byte   W96
@  #03 @005   ----------------------------------------
 .byte   W92
 .byte   W03
 .byte   EOT
 .byte   W01
@  #03 @006   ----------------------------------------
Label_F6345E:
 .byte   TIE ,Cn1 ,v052
 .byte   TIE ,Cn2
 .byte   W96
 .byte   PEND 
@  #03 @007   ----------------------------------------
 .byte   W92
 .byte   W03
 .byte   EOT
 .byte   Cn1 ,v048
 .byte   W01
@  #03 @008   ----------------------------------------
Label_F6346B:
 .byte   N92 ,Fn1 ,v052
 .byte   W96
@  #03 @009   ----------------------------------------
 .byte   Bn1
 .byte   W96
@  #03 @010   ----------------------------------------
 .byte   En1
 .byte   W96
@  #03 @011   ----------------------------------------
Label_F63473:
 .byte   N44 ,An1 ,v052
 .byte   W48
 .byte   Gn1
 .byte   W48
 .byte   PEND 
@  #03 @012   ----------------------------------------
 .byte   N92 ,Fn1
 .byte   W96
@  #03 @013   ----------------------------------------
 .byte   Bn1
 .byte   W96
@  #03 @014   ----------------------------------------
 .byte   En1
 .byte   W96
@  #03 @015   ----------------------------------------
 .byte   PATT
  .word Label_F63473
@  #03 @016   ----------------------------------------
 .byte   N92 ,Fn1 ,v052
 .byte   W96
@  #03 @017   ----------------------------------------
 .byte   Bn1
 .byte   W96
@  #03 @018   ----------------------------------------
 .byte   En1
 .byte   W96
@  #03 @019   ----------------------------------------
 .byte   PATT
  .word Label_F63473
@  #03 @020   ----------------------------------------
 .byte   N92 ,Fn1 ,v052
 .byte   W96
@  #03 @021   ----------------------------------------
 .byte   Bn1
 .byte   W96
@  #03 @022   ----------------------------------------
 .byte   En1
 .byte   W96
@  #03 @023   ----------------------------------------
 .byte   PATT
  .word Label_F63473
@  #03 @024   ----------------------------------------
 .byte   N92 ,Dn1 ,v052
 .byte   W96
@  #03 @025   ----------------------------------------
 .byte   En1
 .byte   W96
@  #03 @026   ----------------------------------------
 .byte   Fn1
 .byte   W96
@  #03 @027   ----------------------------------------
 .byte   Gn1
 .byte   W96
@  #03 @028   ----------------------------------------
 .byte   TIE ,An1 ,v036
 .byte   W96
@  #03 @029   ----------------------------------------
 .byte   W92
 .byte   W03
 .byte   EOT
 .byte   W01
@  #03 @030   ----------------------------------------
 .byte   TIE ,Cn2
 .byte   W96
@  #03 @031   ----------------------------------------
 .byte   W92
 .byte   W03
 .byte   EOT
 .byte   W01
@  #03 @032   ----------------------------------------
 .byte   TIE ,An1
 .byte   W96
@  #03 @033   ----------------------------------------
 .byte   W92
 .byte   W03
 .byte   EOT
 .byte   W01
@  #03 @034   ----------------------------------------
 .byte   TIE ,Cn1
 .byte   TIE ,Cn2
 .byte   W96
@  #03 @035   ----------------------------------------
 .byte   W92
 .byte   W03
 .byte   EOT
 .byte   Cn1 ,v048
 .byte   W01
@  #03 @036   ----------------------------------------
 .byte   N92 ,Fn1 ,v052
 .byte   W96
@  #03 @037   ----------------------------------------
 .byte   Bn1
 .byte   W96
@  #03 @038   ----------------------------------------
 .byte   En1
 .byte   W96
@  #03 @039   ----------------------------------------
 .byte   PATT
  .word Label_F63473
@  #03 @040   ----------------------------------------
 .byte   N92 ,Fn1 ,v052
 .byte   W96
@  #03 @041   ----------------------------------------
 .byte   Bn1
 .byte   W96
@  #03 @042   ----------------------------------------
 .byte   En1
 .byte   W96
@  #03 @043   ----------------------------------------
 .byte   PATT
  .word Label_F63473
@  #03 @044   ----------------------------------------
 .byte   N92 ,Dn1 ,v052
 .byte   W96
@  #03 @045   ----------------------------------------
 .byte   En1
 .byte   W96
@  #03 @046   ----------------------------------------
 .byte   Fn1
 .byte   W96
@  #03 @047   ----------------------------------------
 .byte   Gn1
 .byte   W96
@  #03 @048   ----------------------------------------
 .byte   Dn1
 .byte   W96
@  #03 @049   ----------------------------------------
 .byte   En1
 .byte   W96
@  #03 @050   ----------------------------------------
 .byte   Fn1
 .byte   W96
@  #03 @051   ----------------------------------------
 .byte   Gn1
 .byte   W96
@  #03 @052   ----------------------------------------
 .byte   TIE ,An1
 .byte   W96
@  #03 @053   ----------------------------------------
 .byte   W92
 .byte   W03
 .byte   EOT
 .byte   W01
@  #03 @054   ----------------------------------------
 .byte   TIE ,Cn2
 .byte   W96
@  #03 @055   ----------------------------------------
 .byte   W92
 .byte   W03
 .byte   EOT
 .byte   W01
@  #03 @056   ----------------------------------------
 .byte   TIE ,An1
 .byte   W96
@  #03 @057   ----------------------------------------
 .byte   W92
 .byte   W03
 .byte   EOT
 .byte   W01
@  #03 @058   ----------------------------------------
 .byte   PATT
  .word Label_F6345E
@  #03 @059   ----------------------------------------
 .byte   W92
 .byte   W03
 .byte   EOT
 .byte   Cn1 ,v048
 .byte   W01
@  #03 @060   ----------------------------------------
 .byte   GOTO
  .word Label_F6346B
@  #03 @061   ----------------------------------------
 .byte   N92 ,Fn1 ,v052
 .byte   W96
 .byte   FINE

@**************** Track 4 (Midi-Chn.3) ****************@

song04_004:
@  #04 @000   ----------------------------------------
 .byte   KEYSH , song04_key+0
 .byte   VOICE , 123
 .byte   VOL , 39*song04_mvl/mxv
 .byte   PAN , c_v+0
 .byte   VOL , 39*song04_mvl/mxv
 .byte   PAN , c_v+0
 .byte   W96
@  #04 @001   ----------------------------------------
 .byte   W96
@  #04 @002   ----------------------------------------
 .byte   W96
@  #04 @003   ----------------------------------------
 .byte   W96
@  #04 @004   ----------------------------------------
 .byte   W96
@  #04 @005   ----------------------------------------
 .byte   W96
@  #04 @006   ----------------------------------------
 .byte   W96
@  #04 @007   ----------------------------------------
 .byte   W96
@  #04 @008   ----------------------------------------
Label_010046B8:
 .byte   W96
@  #04 @009   ----------------------------------------
 .byte   W96
@  #04 @010   ----------------------------------------
 .byte   W96
@  #04 @011   ----------------------------------------
 .byte   W96
@  #04 @012   ----------------------------------------
 .byte   W96
@  #04 @013   ----------------------------------------
 .byte   W96
@  #04 @014   ----------------------------------------
 .byte   W96
@  #04 @015   ----------------------------------------
 .byte   W96
@  #04 @016   ----------------------------------------
 .byte   W96
@  #04 @017   ----------------------------------------
 .byte   W96
@  #04 @018   ----------------------------------------
 .byte   W96
@  #04 @019   ----------------------------------------
 .byte   W96
@  #04 @020   ----------------------------------------
 .byte   W96
@  #04 @021   ----------------------------------------
 .byte   W96
@  #04 @022   ----------------------------------------
 .byte   W96
@  #04 @023   ----------------------------------------
 .byte   W96
@  #04 @024   ----------------------------------------
 .byte   W96
@  #04 @025   ----------------------------------------
 .byte   W96
@  #04 @026   ----------------------------------------
 .byte   W96
@  #04 @027   ----------------------------------------
 .byte   W96
@  #04 @028   ----------------------------------------
Label_010046CC:
 .byte   N23 ,Cn1 ,v080
 .byte   N05 ,Fs1 ,v036
 .byte   W06
 .byte   N05
 .byte   W06
 .byte   N07 ,Fs1 ,v040
 .byte   W03
 .byte   W01
 .byte   W01
 .byte   W07
 .byte   N17 ,Dn1 ,v080
 .byte   W06
 .byte   N05 ,Fs1 ,v036
 .byte   W06
 .byte   N07 ,Fs1 ,v040
 .byte   W03
 .byte   W01
 .byte   W01
 .byte   W01
 .byte   N05 ,Cn1 ,v080
 .byte   W06
 .byte   N11 ,Fs1 ,v036
 .byte   W06
 .byte   N05 ,Cn1 ,v080
 .byte   W06
 .byte   N11
 .byte   N05 ,Fs1 ,v036
 .byte   W06
 .byte   N03 ,Fs1 ,v040
 .byte   W03
 .byte   W01
 .byte   W01
 .byte   W01
 .byte   N23 ,Dn1 ,v080
 .byte   W06
 .byte   N05 ,Fs1 ,v036
 .byte   W06
 .byte   N07 ,Fs1 ,v040
 .byte   W03
 .byte   W01
 .byte   W01
 .byte   W07
 .byte   PEND 
@  #04 @029   ----------------------------------------
 .byte   PATT
  .word Label_010046CC
@  #04 @030   ----------------------------------------
 .byte   PATT
  .word Label_010046CC
@  #04 @031   ----------------------------------------
 .byte   PATT
  .word Label_010046CC
@  #04 @032   ----------------------------------------
 .byte   PATT
  .word Label_010046CC
@  #04 @033   ----------------------------------------
 .byte   PATT
  .word Label_010046CC
@  #04 @034   ----------------------------------------
 .byte   PATT
  .word Label_010046CC
@  #04 @035   ----------------------------------------
 .byte   PATT
  .word Label_010046CC
@  #04 @036   ----------------------------------------
 .byte   PATT
  .word Label_010046CC
@  #04 @037   ----------------------------------------
 .byte   PATT
  .word Label_010046CC
@  #04 @038   ----------------------------------------
 .byte   PATT
  .word Label_010046CC
@  #04 @039   ----------------------------------------
 .byte   PATT
  .word Label_010046CC
@  #04 @040   ----------------------------------------
 .byte   PATT
  .word Label_010046CC
@  #04 @041   ----------------------------------------
 .byte   PATT
  .word Label_010046CC
@  #04 @042   ----------------------------------------
 .byte   PATT
  .word Label_010046CC
@  #04 @043   ----------------------------------------
 .byte   PATT
  .word Label_010046CC
@  #04 @044   ----------------------------------------
 .byte   PATT
  .word Label_010046CC
@  #04 @045   ----------------------------------------
 .byte   PATT
  .word Label_010046CC
@  #04 @046   ----------------------------------------
 .byte   PATT
  .word Label_010046CC
@  #04 @047   ----------------------------------------
 .byte   PATT
  .word Label_010046CC
@  #04 @048   ----------------------------------------
 .byte   N05 ,Fs1 ,v036
 .byte   W06
 .byte   N05
 .byte   W06
 .byte   N07 ,Fs1 ,v040
 .byte   W03
 .byte   W01
 .byte   W01
 .byte   W07
 .byte   N05 ,Fs1 ,v032
 .byte   W06
 .byte   N05
 .byte   W06
 .byte   N07 ,Fs1 ,v040
 .byte   W03
 .byte   W01
 .byte   W01
 .byte   W07
 .byte   N05 ,Fs1 ,v032
 .byte   W06
 .byte   N05
 .byte   W06
 .byte   N07 ,Fs1 ,v040
 .byte   W03
 .byte   W01
 .byte   W01
 .byte   W07
 .byte   N05 ,Fs1 ,v032
 .byte   W06
 .byte   N05
 .byte   W06
 .byte   N07 ,Fs1 ,v036
 .byte   W03
 .byte   W01
 .byte   W01
 .byte   W07
@  #04 @049   ----------------------------------------
 .byte   N05 ,Fs1 ,v032
 .byte   W06
 .byte   N05
 .byte   W06
 .byte   N07 ,Fs1 ,v036
 .byte   W03
 .byte   W01
 .byte   W01
 .byte   W07
 .byte   N05 ,Fs1 ,v028
 .byte   W06
 .byte   N05
 .byte   W06
 .byte   N07 ,Fs1 ,v032
 .byte   W03
 .byte   W01
 .byte   W01
 .byte   W07
 .byte   N05 ,Fs1 ,v028
 .byte   W06
 .byte   N05
 .byte   W06
 .byte   N07 ,Fs1 ,v032
 .byte   W03
 .byte   W01
 .byte   W01
 .byte   W07
 .byte   N05 ,Fs1 ,v028
 .byte   W06
 .byte   N05
 .byte   W06
 .byte   N07 ,Fs1 ,v032
 .byte   W03
 .byte   W01
 .byte   W01
 .byte   W07
@  #04 @050   ----------------------------------------
 .byte   N05 ,Fs1 ,v028
 .byte   W06
 .byte   Fs1 ,v024
 .byte   W06
 .byte   N07 ,Fs1 ,v028
 .byte   W03
 .byte   W01
 .byte   W01
 .byte   W07
 .byte   N05 ,Fs1 ,v024
 .byte   W06
 .byte   N05
 .byte   W06
 .byte   N07 ,Fs1 ,v028
 .byte   W03
 .byte   W01
 .byte   W01
 .byte   W07
 .byte   N05 ,Fs1 ,v024
 .byte   W06
 .byte   N05
 .byte   W06
 .byte   N07 ,Fs1 ,v028
 .byte   W03
 .byte   W01
 .byte   W01
 .byte   W07
 .byte   N05 ,Fs1 ,v024
 .byte   W06
 .byte   N05
 .byte   W06
 .byte   N07 ,Fs1 ,v028
 .byte   W03
 .byte   W01
 .byte   W01
 .byte   W07
@  #04 @051   ----------------------------------------
 .byte   N05 ,Fs1 ,v020
 .byte   W06
 .byte   N05
 .byte   W06
 .byte   N07 ,Fs1 ,v024
 .byte   W03
 .byte   W01
 .byte   W01
 .byte   W07
 .byte   N05 ,Fs1 ,v020
 .byte   W06
 .byte   N05
 .byte   W06
 .byte   N07 ,Fs1 ,v024
 .byte   W03
 .byte   W01
 .byte   W01
 .byte   W07
 .byte   N05 ,Fs1 ,v020
 .byte   W06
 .byte   N05
 .byte   W06
 .byte   N07 ,Fs1 ,v024
 .byte   W03
 .byte   W01
 .byte   W01
 .byte   W07
 .byte   N05 ,Fs1 ,v020
 .byte   W06
 .byte   N05
 .byte   W06
 .byte   N07
 .byte   W03
 .byte   W01
 .byte   W01
 .byte   W07
@  #04 @052   ----------------------------------------
 .byte   W96
@  #04 @053   ----------------------------------------
 .byte   W96
@  #04 @054   ----------------------------------------
 .byte   W96
@  #04 @055   ----------------------------------------
 .byte   W96
@  #04 @056   ----------------------------------------
 .byte   W96
@  #04 @057   ----------------------------------------
 .byte   W96
@  #04 @058   ----------------------------------------
 .byte   W96
@  #04 @059   ----------------------------------------
 .byte   W96
@  #04 @060   ----------------------------------------
 .byte   GOTO
  .word Label_010046B8
@  #04 @061   ----------------------------------------
 .byte   W96
 .byte   FINE

@**************** Track 5 (Midi-Chn.4) ****************@

song04_005:
@  #05 @000   ----------------------------------------
 .byte   KEYSH , song04_key+0
 .byte   VOICE , 68
 .byte   VOL , 39*song04_mvl/mxv
 .byte   PAN , c_v+0
 .byte   W96
@  #05 @001   ----------------------------------------
 .byte   W96
@  #05 @002   ----------------------------------------
 .byte   W96
@  #05 @003   ----------------------------------------
 .byte   W96
@  #05 @004   ----------------------------------------
 .byte   W96
@  #05 @005   ----------------------------------------
 .byte   W96
@  #05 @006   ----------------------------------------
 .byte   W96
@  #05 @007   ----------------------------------------
 .byte   W96
@  #05 @008   ----------------------------------------
Label_F63714:
 .byte   W96
@  #05 @009   ----------------------------------------
 .byte   W96
@  #05 @010   ----------------------------------------
 .byte   W96
@  #05 @011   ----------------------------------------
 .byte   W96
@  #05 @012   ----------------------------------------
 .byte   W96
@  #05 @013   ----------------------------------------
 .byte   W96
@  #05 @014   ----------------------------------------
 .byte   W96
@  #05 @015   ----------------------------------------
 .byte   W96
@  #05 @016   ----------------------------------------
 .byte   W84
 .byte   N11 ,En4 ,v080
 .byte   W12
@  #05 @017   ----------------------------------------
Label_F63721:
 .byte   N80 ,Dn4 ,v080
 .byte   W84
 .byte   N11 ,Gn4
 .byte   W12
 .byte   PEND 
@  #05 @018   ----------------------------------------
 .byte   N44
 .byte   W48
 .byte   N15
 .byte   W16
 .byte   Fn4
 .byte   W16
 .byte   En4
 .byte   W16
@  #05 @019   ----------------------------------------
 .byte   N32 ,Dn4
 .byte   W36
 .byte   N05 ,En4
 .byte   W06
 .byte   Dn4
 .byte   W06
 .byte   N15 ,Cn4
 .byte   W16
 .byte   Bn3
 .byte   W16
 .byte   Cn4
 .byte   W16
@  #05 @020   ----------------------------------------
 .byte   N44 ,An4
 .byte   W60
 .byte   N23
 .byte   W24
 .byte   N11 ,En4
 .byte   W12
@  #05 @021   ----------------------------------------
 .byte   PATT
  .word Label_F63721
@  #05 @022   ----------------------------------------
 .byte   N44 ,Gn4 ,v080
 .byte   W48
 .byte   N15
 .byte   W16
 .byte   An4
 .byte   W16
 .byte   Bn4
 .byte   W16
@  #05 @023   ----------------------------------------
 .byte   N23
 .byte   W24
 .byte   N11 ,Cn5
 .byte   W12
 .byte   N23 ,Bn4
 .byte   W24
 .byte   Gn4
 .byte   W24
 .byte   N11 ,En4
 .byte   W12
@  #05 @024   ----------------------------------------
 .byte   N44 ,An4
 .byte   W96
@  #05 @025   ----------------------------------------
Label_F63767:
 .byte   W36
 .byte   N11 ,Cn4 ,v080
 .byte   W12
 .byte   N15 ,Bn3
 .byte   W16
 .byte   Cn4
 .byte   W16
 .byte   En4
 .byte   W16
 .byte   PEND 
@  #05 @026   ----------------------------------------
 .byte   N32 ,An4
 .byte   W96
@  #05 @027   ----------------------------------------
 .byte   W96
@  #05 @028   ----------------------------------------
 .byte   W96
@  #05 @029   ----------------------------------------
 .byte   W96
@  #05 @030   ----------------------------------------
 .byte   W96
@  #05 @031   ----------------------------------------
 .byte   W96
@  #05 @032   ----------------------------------------
 .byte   W96
@  #05 @033   ----------------------------------------
 .byte   W96
@  #05 @034   ----------------------------------------
 .byte   W96
@  #05 @035   ----------------------------------------
 .byte   W96
@  #05 @036   ----------------------------------------
 .byte   W96
@  #05 @037   ----------------------------------------
 .byte   W96
@  #05 @038   ----------------------------------------
 .byte   W96
@  #05 @039   ----------------------------------------
 .byte   W96
@  #05 @040   ----------------------------------------
 .byte   W96
@  #05 @041   ----------------------------------------
 .byte   W96
@  #05 @042   ----------------------------------------
 .byte   W96
@  #05 @043   ----------------------------------------
 .byte   W96
@  #05 @044   ----------------------------------------
 .byte   W96
@  #05 @045   ----------------------------------------
 .byte   PATT
  .word Label_F63767
@  #05 @046   ----------------------------------------
 .byte   N32 ,An4 ,v080
 .byte   W96
@  #05 @047   ----------------------------------------
 .byte   W96
@  #05 @048   ----------------------------------------
 .byte   W96
@  #05 @049   ----------------------------------------
 .byte   PATT
  .word Label_F63767
@  #05 @050   ----------------------------------------
 .byte   N32 ,An4 ,v080
 .byte   W96
@  #05 @051   ----------------------------------------
 .byte   W96
@  #05 @052   ----------------------------------------
 .byte   W96
@  #05 @053   ----------------------------------------
 .byte   W96
@  #05 @054   ----------------------------------------
 .byte   W96
@  #05 @055   ----------------------------------------
 .byte   W96
@  #05 @056   ----------------------------------------
 .byte   W96
@  #05 @057   ----------------------------------------
 .byte   W96
@  #05 @058   ----------------------------------------
 .byte   W96
@  #05 @059   ----------------------------------------
 .byte   W96
@  #05 @060   ----------------------------------------
 .byte   GOTO
  .word Label_F63714
@  #05 @061   ----------------------------------------
 .byte   W96
 .byte   FINE

@**************** Track 6 (Midi-Chn.5) ****************@

song04_006:
@  #06 @000   ----------------------------------------
 .byte   KEYSH , song04_key+0
 .byte   VOICE , 73
 .byte   VOL , 39*song04_mvl/mxv
 .byte   PAN , c_v+0
 .byte   W96
@  #06 @001   ----------------------------------------
 .byte   W96
@  #06 @002   ----------------------------------------
 .byte   W96
@  #06 @003   ----------------------------------------
 .byte   W96
@  #06 @004   ----------------------------------------
Label_01004870:
 .byte   W06
 .byte   N02 ,Cn3 ,v036
 .byte   N02 ,En3
 .byte   W06
 .byte   N05 ,Cn3
 .byte   N05 ,En3
 .byte   W11
 .byte   W01
 .byte   N02 ,Cn3
 .byte   N02 ,En3
 .byte   W05
 .byte   W01
 .byte   N05 ,Cn3 ,v040
 .byte   N05 ,En3
 .byte   W05
 .byte   W06
 .byte   W01
 .byte   N02 ,Cn3
 .byte   N02 ,En3
 .byte   W04
 .byte   W06
 .byte   W02
 .byte   N05 ,Cn3 ,v044
 .byte   N05 ,En3
 .byte   W04
 .byte   W06
 .byte   W02
 .byte   N02 ,Cn3
 .byte   N02 ,En3
 .byte   W04
 .byte   W02
 .byte   N05 ,Cn3
 .byte   N05 ,En3
 .byte   W03
 .byte   W06
 .byte   W03
 .byte   N02 ,Cn3 ,v048
 .byte   N02 ,En3
 .byte   W03
 .byte   W03
 .byte   Cn3
 .byte   N02 ,En3
 .byte   W03
 .byte   W03
 .byte   PEND 
@  #06 @005   ----------------------------------------
Label_010048B4:
 .byte   W03
 .byte   W03
 .byte   N02 ,En3 ,v052
 .byte   N02 ,Gn3
 .byte   W02
 .byte   W04
 .byte   N05 ,En3
 .byte   N05 ,Gn3
 .byte   W02
 .byte   W06
 .byte   W04
 .byte   N02 ,En3
 .byte   N02 ,Gn3
 .byte   W02
 .byte   W04
 .byte   N05 ,En3 ,v056
 .byte   N05 ,Gn3
 .byte   W02
 .byte   W05
 .byte   W05
 .byte   N02 ,En3
 .byte   N02 ,Gn3
 .byte   W01
 .byte   W06
 .byte   W05
 .byte   N05 ,En3 ,v060
 .byte   N05 ,Gn3
 .byte   W01
 .byte   W06
 .byte   W05
 .byte   N02 ,En3
 .byte   N02 ,Gn3
 .byte   W06
 .byte   N05 ,En3
 .byte   N05 ,Gn3
 .byte   W06
 .byte   W06
 .byte   N02 ,En3 ,v064
 .byte   N02 ,Gn3
 .byte   W06
 .byte   En3
 .byte   N02 ,Gn3
 .byte   W05
 .byte   W01
 .byte   PEND 
@  #06 @006   ----------------------------------------
Label_010048F8:
 .byte   W06
 .byte   N02 ,Cn4 ,v064
 .byte   N02 ,En4
 .byte   W06
 .byte   N05 ,Cn4
 .byte   N05 ,En4
 .byte   W12
 .byte   N02 ,Cn4 ,v060
 .byte   N02 ,En4
 .byte   W06
 .byte   N05 ,Cn4
 .byte   N05 ,En4
 .byte   W12
 .byte   N02 ,Cn4
 .byte   N02 ,En4
 .byte   W12
 .byte   N05 ,Cn4 ,v056
 .byte   N05 ,En4
 .byte   W12
 .byte   N02 ,Cn4
 .byte   N02 ,En4
 .byte   W06
 .byte   N05 ,Cn4 ,v052
 .byte   N05 ,En4
 .byte   W12
 .byte   N02 ,Cn4
 .byte   N02 ,En4
 .byte   W06
 .byte   Cn4
 .byte   N02 ,En4
 .byte   W06
 .byte   PEND 
@  #06 @007   ----------------------------------------
Label_0100492F:
 .byte   W06
 .byte   N02 ,En4 ,v048
 .byte   N02 ,Gn4
 .byte   W06
 .byte   N05 ,En4
 .byte   N05 ,Gn4
 .byte   W12
 .byte   N02 ,En4 ,v044
 .byte   N02 ,Gn4
 .byte   W06
 .byte   N05 ,En4
 .byte   N05 ,Gn4
 .byte   W12
 .byte   N02 ,En4
 .byte   N02 ,Gn4
 .byte   W12
 .byte   N05 ,En4 ,v040
 .byte   N05 ,Gn4
 .byte   W12
 .byte   N02 ,En4
 .byte   N02 ,Gn4
 .byte   W06
 .byte   N05 ,En4 ,v036
 .byte   N05 ,Gn4
 .byte   W12
 .byte   N02 ,En4
 .byte   N02 ,Gn4
 .byte   W06
 .byte   En4
 .byte   N02 ,Gn4
 .byte   W06
 .byte   PEND 
@  #06 @008   ----------------------------------------
Label_01004966:
 .byte   W60
 .byte   N11 ,Bn3 ,v080
 .byte   W02
 .byte   W02
 .byte   W02
 .byte   W03
 .byte   W02
 .byte   W01
 .byte   Cn4 ,v088
 .byte   W01
 .byte   W02
 .byte   W03
 .byte   W02
 .byte   W02
 .byte   W02
 .byte   Gn4 ,v092
 .byte   W03
 .byte   W02
 .byte   W02
 .byte   W02
 .byte   W03
 .byte   PEND 
@  #06 @009   ----------------------------------------
 .byte   Gn4 ,v096
 .byte   W12
 .byte   Bn3 ,v092
 .byte   W12
 .byte   Cn4 ,v088
 .byte   W12
 .byte   Gn4 ,v084
 .byte   W12
 .byte   N44 ,Gn4 ,v080
 .byte   W48
@  #06 @010   ----------------------------------------
 .byte   W60
 .byte   N11 ,Gn4 ,v096
 .byte   W12
 .byte   An4
 .byte   W12
 .byte   TIE ,En4
 .byte   W12
@  #06 @011   ----------------------------------------
 .byte   W90
 .byte   EOT
 .byte   W06
@  #06 @012   ----------------------------------------
 .byte   W60
 .byte   N11 ,Bn4 ,v080
 .byte   W02
 .byte   W02
 .byte   W02
 .byte   W03
 .byte   W02
 .byte   W01
 .byte   Cn5 ,v088
 .byte   W01
 .byte   W02
 .byte   W03
 .byte   W02
 .byte   W02
 .byte   W02
 .byte   Gn5 ,v092
 .byte   W03
 .byte   W02
 .byte   W02
 .byte   W02
 .byte   W03
@  #06 @013   ----------------------------------------
 .byte   Gn5 ,v096
 .byte   W06
 .byte   W06
 .byte   Bn4 ,v092
 .byte   W06
 .byte   W06
 .byte   Cn5 ,v088
 .byte   W06
 .byte   W06
 .byte   Gn5 ,v084
 .byte   W06
 .byte   W06
 .byte   N44 ,Gn5 ,v080
 .byte   W06
 .byte   W06
 .byte   W06
 .byte   W06
 .byte   W06
 .byte   W06
 .byte   W06
 .byte   W06
@  #06 @014   ----------------------------------------
 .byte   W36
 .byte   N11 ,Cn6
 .byte   W02
 .byte   W02
 .byte   W02
 .byte   W03
 .byte   W02
 .byte   W01
 .byte   Bn5 ,v088
 .byte   W01
 .byte   W02
 .byte   W03
 .byte   W02
 .byte   W02
 .byte   W02
 .byte   Gn5 ,v092
 .byte   W03
 .byte   W02
 .byte   W02
 .byte   W02
 .byte   W03
 .byte   En5 ,v096
 .byte   W12
 .byte   An5 ,v088
 .byte   W12
@  #06 @015   ----------------------------------------
 .byte   N90 ,An5 ,v080
 .byte   W96
@  #06 @016   ----------------------------------------
 .byte   W96
@  #06 @017   ----------------------------------------
 .byte   W96
@  #06 @018   ----------------------------------------
 .byte   W96
@  #06 @019   ----------------------------------------
 .byte   W96
@  #06 @020   ----------------------------------------
 .byte   W96
@  #06 @021   ----------------------------------------
 .byte   W12
 .byte   N22 ,An4 ,v096
 .byte   W24
 .byte   N11 ,En4
 .byte   W12
 .byte   N44 ,Dn4
 .byte   W48
@  #06 @022   ----------------------------------------
 .byte   W96
@  #06 @023   ----------------------------------------
 .byte   W96
@  #06 @024   ----------------------------------------
Label_01004A05:
 .byte   W48
 .byte   N15 ,Cn4 ,v096
 .byte   W16
 .byte   Dn4
 .byte   W16
 .byte   En4
 .byte   W16
 .byte   PEND 
@  #06 @025   ----------------------------------------
 .byte   N90 ,Gn4
 .byte   W96
@  #06 @026   ----------------------------------------
Label_01004A12:
 .byte   W36
 .byte   N11 ,Cn4 ,v096
 .byte   W12
 .byte   N15 ,An3
 .byte   W16
 .byte   Bn3
 .byte   W16
 .byte   Cn4
 .byte   W16
 .byte   PEND 
@  #06 @027   ----------------------------------------
Label_01004A1F:
 .byte   N22 ,En4 ,v096
 .byte   W24
 .byte   N11 ,Fn4
 .byte   W12
 .byte   N22 ,En4
 .byte   W24
 .byte   Dn4
 .byte   W24
 .byte   N11 ,Cn4
 .byte   W12
 .byte   PEND 
@  #06 @028   ----------------------------------------
 .byte   N90 ,En4
 .byte   W96
@  #06 @029   ----------------------------------------
 .byte   W96
@  #06 @030   ----------------------------------------
 .byte   W96
@  #06 @031   ----------------------------------------
 .byte   W96
@  #06 @032   ----------------------------------------
 .byte   PATT
  .word Label_01004870
@  #06 @033   ----------------------------------------
 .byte   PATT
  .word Label_010048B4
@  #06 @034   ----------------------------------------
 .byte   PATT
  .word Label_010048F8
@  #06 @035   ----------------------------------------
 .byte   PATT
  .word Label_0100492F
@  #06 @036   ----------------------------------------
 .byte   W48
 .byte   N11 ,Dn4 ,v096
 .byte   W12
 .byte   En4 ,v092
 .byte   W12
 .byte   Dn4 ,v088
 .byte   W12
 .byte   N05 ,Cn4 ,v080
 .byte   W06
 .byte   N17 ,Dn4
 .byte   W06
@  #06 @037   ----------------------------------------
 .byte   W12
 .byte   N11 ,En4 ,v072
 .byte   W12
 .byte   Dn4 ,v064
 .byte   W12
 .byte   N05 ,Cn4 ,v060
 .byte   W06
 .byte   N17 ,Dn4 ,v056
 .byte   W18
 .byte   N11 ,En4 ,v048
 .byte   W12
 .byte   Dn4 ,v044
 .byte   W12
 .byte   N05 ,Cn4 ,v036
 .byte   W06
 .byte   Dn4
 .byte   W06
@  #06 @038   ----------------------------------------
 .byte   W48
 .byte   N11 ,Dn4 ,v096
 .byte   W12
 .byte   En4
 .byte   W12
 .byte   Gn4
 .byte   W12
 .byte   En4
 .byte   W12
@  #06 @039   ----------------------------------------
 .byte   N32 ,Dn4
 .byte   W36
 .byte   N05 ,En4
 .byte   W06
 .byte   Dn4
 .byte   W06
 .byte   N22 ,Cn4
 .byte   W24
 .byte   N11 ,Bn3
 .byte   W12
 .byte   Cn4
 .byte   W12
@  #06 @040   ----------------------------------------
 .byte   N56 ,An4
 .byte   W60
 .byte   N22
 .byte   W24
 .byte   N11 ,En4
 .byte   W12
@  #06 @041   ----------------------------------------
 .byte   N78 ,Dn4
 .byte   W84
 .byte   N11 ,Gn4
 .byte   W12
@  #06 @042   ----------------------------------------
 .byte   N44
 .byte   W48
 .byte   N15
 .byte   W16
 .byte   An4
 .byte   W16
 .byte   Bn4
 .byte   W16
@  #06 @043   ----------------------------------------
 .byte   N22
 .byte   W24
 .byte   N11 ,Cn5
 .byte   W12
 .byte   N22 ,Bn4
 .byte   W24
 .byte   N11 ,Gn4
 .byte   W12
 .byte   En4
 .byte   W12
 .byte   N56 ,An4
 .byte   W12
@  #06 @044   ----------------------------------------
 .byte   PATT
  .word Label_01004A05
@  #06 @045   ----------------------------------------
 .byte   N90 ,Gn4 ,v096
 .byte   W96
@  #06 @046   ----------------------------------------
 .byte   PATT
  .word Label_01004A12
@  #06 @047   ----------------------------------------
 .byte   PATT
  .word Label_01004A1F
@  #06 @048   ----------------------------------------
 .byte   N44 ,En4 ,v096
 .byte   W48
 .byte   N15 ,Cn4
 .byte   W16
 .byte   Dn4
 .byte   W16
 .byte   En4
 .byte   W16
@  #06 @049   ----------------------------------------
 .byte   N90 ,Gn4
 .byte   W96
@  #06 @050   ----------------------------------------
 .byte   PATT
  .word Label_01004A12
@  #06 @051   ----------------------------------------
 .byte   N22 ,En4 ,v096
 .byte   W24
 .byte   N11 ,Fn4
 .byte   W12
 .byte   N22 ,En4
 .byte   W24
 .byte   N11 ,Fn4
 .byte   W12
 .byte   N22 ,Dn4
 .byte   W24
@  #06 @052   ----------------------------------------
 .byte   W96
@  #06 @053   ----------------------------------------
 .byte   W96
@  #06 @054   ----------------------------------------
 .byte   W96
@  #06 @055   ----------------------------------------
 .byte   W96
@  #06 @056   ----------------------------------------
 .byte   PATT
  .word Label_01004870
@  #06 @057   ----------------------------------------
 .byte   PATT
  .word Label_010048B4
@  #06 @058   ----------------------------------------
 .byte   PATT
  .word Label_010048F8
@  #06 @059   ----------------------------------------
 .byte   PATT
  .word Label_0100492F
@  #06 @060   ----------------------------------------
 .byte   GOTO
  .word Label_01004966
@  #06 @061   ----------------------------------------
 .byte   PATT
  .word Label_01004966
 .byte   FINE

@**************** Track 7 (Midi-Chn.6) ****************@

song04_007:
@  #07 @000   ----------------------------------------
 .byte   KEYSH , song04_key+0
 .byte   VOICE , 13
 .byte   VOL , 39*song04_mvl/mxv
 .byte   PAN , c_v+0
 .byte   W12
 .byte   N05 ,Bn3 ,v064
 .byte   W12
 .byte   N08 ,Cn4
 .byte   W18
 .byte   Bn3
 .byte   W18
 .byte   N05 ,Cn4
 .byte   W12
 .byte   N11 ,Gn3
 .byte   W24
@  #07 @001   ----------------------------------------
Label_01004B3C:
 .byte   W12
 .byte   N05 ,Bn3 ,v064
 .byte   W12
 .byte   N08 ,Cn4
 .byte   W18
 .byte   Bn3
 .byte   W18
 .byte   N05 ,Cn4
 .byte   W12
 .byte   N11 ,Gn3
 .byte   W24
 .byte   PEND 
@  #07 @002   ----------------------------------------
 .byte   PATT
  .word Label_01004B3C
@  #07 @003   ----------------------------------------
Label_01004B52:
 .byte   W12
 .byte   N05 ,Bn3 ,v064
 .byte   W12
 .byte   N08 ,Cn4
 .byte   W18
 .byte   Bn3
 .byte   W18
 .byte   N05 ,Cn4
 .byte   W12
 .byte   Gn3
 .byte   W12
 .byte   N02 ,Gn4
 .byte   W06
 .byte   N02
 .byte   W06
 .byte   PEND 
@  #07 @004   ----------------------------------------
 .byte   PATT
  .word Label_01004B3C
@  #07 @005   ----------------------------------------
 .byte   PATT
  .word Label_01004B3C
@  #07 @006   ----------------------------------------
 .byte   PATT
  .word Label_01004B3C
@  #07 @007   ----------------------------------------
 .byte   PATT
  .word Label_01004B52
@  #07 @008   ----------------------------------------
Label_01004B7B:
@  #07 @009   ----------------------------------------
 .byte   PATT
  .word Label_01004B3C
@  #07 @010   ----------------------------------------
 .byte   PATT
  .word Label_01004B3C
@  #07 @011   ----------------------------------------
 .byte   PATT
  .word Label_01004B3C
@  #07 @012   ----------------------------------------
 .byte   PATT
  .word Label_01004B52
@  #07 @013   ----------------------------------------
 .byte   PATT
  .word Label_01004B3C
@  #07 @014   ----------------------------------------
 .byte   PATT
  .word Label_01004B3C
@  #07 @015   ----------------------------------------
 .byte   PATT
  .word Label_01004B3C
@  #07 @016   ----------------------------------------
 .byte   PATT
  .word Label_01004B52
@  #07 @017   ----------------------------------------
 .byte   PATT
  .word Label_01004B3C
@  #07 @018   ----------------------------------------
 .byte   PATT
  .word Label_01004B3C
@  #07 @019   ----------------------------------------
 .byte   PATT
  .word Label_01004B3C
@  #07 @020   ----------------------------------------
 .byte   PATT
  .word Label_01004B52
@  #07 @021   ----------------------------------------
 .byte   PATT
  .word Label_01004B3C
@  #07 @022   ----------------------------------------
 .byte   PATT
  .word Label_01004B3C
@  #07 @023   ----------------------------------------
 .byte   PATT
  .word Label_01004B3C
@  #07 @024   ----------------------------------------
 .byte   PATT
  .word Label_01004B52
@  #07 @025   ----------------------------------------
 .byte   PATT
  .word Label_01004B3C
@  #07 @026   ----------------------------------------
 .byte   PATT
  .word Label_01004B3C
@  #07 @027   ----------------------------------------
 .byte   PATT
  .word Label_01004B3C
@  #07 @028   ----------------------------------------
 .byte   PATT
  .word Label_01004B52
@  #07 @029   ----------------------------------------
 .byte   PATT
  .word Label_01004B3C
@  #07 @030   ----------------------------------------
 .byte   PATT
  .word Label_01004B3C
@  #07 @031   ----------------------------------------
 .byte   PATT
  .word Label_01004B3C
@  #07 @032   ----------------------------------------
 .byte   PATT
  .word Label_01004B52
@  #07 @033   ----------------------------------------
 .byte   PATT
  .word Label_01004B3C
@  #07 @034   ----------------------------------------
 .byte   PATT
  .word Label_01004B3C
@  #07 @035   ----------------------------------------
 .byte   PATT
  .word Label_01004B3C
@  #07 @036   ----------------------------------------
 .byte   PATT
  .word Label_01004B52
@  #07 @037   ----------------------------------------
 .byte   PATT
  .word Label_01004B3C
@  #07 @038   ----------------------------------------
 .byte   PATT
  .word Label_01004B3C
@  #07 @039   ----------------------------------------
 .byte   PATT
  .word Label_01004B3C
@  #07 @040   ----------------------------------------
 .byte   PATT
  .word Label_01004B52
@  #07 @041   ----------------------------------------
 .byte   PATT
  .word Label_01004B3C
@  #07 @042   ----------------------------------------
 .byte   PATT
  .word Label_01004B3C
@  #07 @043   ----------------------------------------
 .byte   PATT
  .word Label_01004B3C
@  #07 @044   ----------------------------------------
 .byte   PATT
  .word Label_01004B52
@  #07 @045   ----------------------------------------
 .byte   PATT
  .word Label_01004B3C
@  #07 @046   ----------------------------------------
 .byte   PATT
  .word Label_01004B3C
@  #07 @047   ----------------------------------------
 .byte   PATT
  .word Label_01004B3C
@  #07 @048   ----------------------------------------
 .byte   PATT
  .word Label_01004B52
@  #07 @049   ----------------------------------------
 .byte   PATT
  .word Label_01004B3C
@  #07 @050   ----------------------------------------
 .byte   PATT
  .word Label_01004B3C
@  #07 @051   ----------------------------------------
 .byte   PATT
  .word Label_01004B3C
@  #07 @052   ----------------------------------------
 .byte   PATT
  .word Label_01004B52
@  #07 @053   ----------------------------------------
 .byte   PATT
  .word Label_01004B3C
@  #07 @054   ----------------------------------------
 .byte   PATT
  .word Label_01004B3C
@  #07 @055   ----------------------------------------
 .byte   PATT
  .word Label_01004B3C
@  #07 @056   ----------------------------------------
 .byte   PATT
  .word Label_01004B52
@  #07 @057   ----------------------------------------
 .byte   PATT
  .word Label_01004B3C
@  #07 @058   ----------------------------------------
 .byte   PATT
  .word Label_01004B3C
@  #07 @059   ----------------------------------------
 .byte   PATT
  .word Label_01004B3C
@  #07 @060   ----------------------------------------
 .byte   PATT
  .word Label_01004B52
@  #07 @061   ----------------------------------------
 .byte   GOTO
  .word Label_01004B7B
@  #07 @062   ----------------------------------------
 .byte   PATT
  .word Label_01004B3C
 .byte   FINE

@**************** Track 8 (Midi-Chn.7) ****************@

song04_008:
@  #08 @000   ----------------------------------------
 .byte   KEYSH , song04_key+0
 .byte   VOICE , 33
 .byte   VOL , 39*song04_mvl/mxv
 .byte   PAN , c_v+0
 .byte   W96
@  #08 @001   ----------------------------------------
 .byte   W96
@  #08 @002   ----------------------------------------
 .byte   W96
@  #08 @003   ----------------------------------------
 .byte   W96
@  #08 @004   ----------------------------------------
 .byte   W96
@  #08 @005   ----------------------------------------
 .byte   W96
@  #08 @006   ----------------------------------------
 .byte   W96
@  #08 @007   ----------------------------------------
 .byte   W96
@  #08 @008   ----------------------------------------
Label_01004CAC:
 .byte   N05 ,Fn0 ,v064
 .byte   W01
 .byte   W02
 .byte   W01
 .byte   W02
 .byte   Fn0 ,v068
 .byte   W01
 .byte   W02
 .byte   W01
 .byte   W02
 .byte   Fn0 ,v072
 .byte   W01
 .byte   W02
 .byte   W01
 .byte   W02
 .byte   Fn0 ,v076
 .byte   W01
 .byte   W02
 .byte   W01
 .byte   W02
 .byte   Fn0 ,v080
 .byte   W01
 .byte   W02
 .byte   W01
 .byte   W02
 .byte   Fn0 ,v084
 .byte   W01
 .byte   W02
 .byte   W01
 .byte   W02
 .byte   Fn0 ,v088
 .byte   W01
 .byte   W02
 .byte   W01
 .byte   W02
 .byte   Fn0 ,v092
 .byte   W01
 .byte   W02
 .byte   W01
 .byte   W02
 .byte   Fn0 ,v096
 .byte   W01
 .byte   W02
 .byte   W01
 .byte   W02
 .byte   Fn0 ,v100
 .byte   W01
 .byte   W02
 .byte   W01
 .byte   W02
 .byte   Fn0 ,v104
 .byte   W01
 .byte   W02
 .byte   W01
 .byte   W02
 .byte   Fn0 ,v108
 .byte   W01
 .byte   W02
 .byte   W01
 .byte   W02
 .byte   Fn1 ,v112
 .byte   W01
 .byte   W01
 .byte   W01
 .byte   W01
 .byte   W01
 .byte   W01
 .byte   Fn0 ,v100
 .byte   W01
 .byte   W01
 .byte   W01
 .byte   W01
 .byte   W01
 .byte   W01
 .byte   W01
 .byte   W01
 .byte   W01
 .byte   W01
 .byte   W01
 .byte   W01
 .byte   FnM1 ,v076
 .byte   W01
 .byte   W01
 .byte   W01
 .byte   W01
 .byte   W01
 .byte   W01
 .byte   PEND 
@  #08 @009   ----------------------------------------
Label_01004D14:
 .byte   N05 ,Bn0 ,v064
 .byte   W02
 .byte   W02
 .byte   W02
 .byte   Bn0 ,v068
 .byte   W03
 .byte   W02
 .byte   W01
 .byte   Bn0 ,v072
 .byte   W01
 .byte   W02
 .byte   W03
 .byte   N05
 .byte   W02
 .byte   W02
 .byte   W02
 .byte   Bn0 ,v076
 .byte   W03
 .byte   W02
 .byte   W01
 .byte   Bn0 ,v080
 .byte   W01
 .byte   W02
 .byte   W03
 .byte   N05
 .byte   W02
 .byte   W02
 .byte   W02
 .byte   Bn0 ,v084
 .byte   W03
 .byte   W02
 .byte   W01
 .byte   Bn0 ,v088
 .byte   W01
 .byte   W02
 .byte   W03
 .byte   N05
 .byte   W02
 .byte   W02
 .byte   W02
 .byte   Bn0 ,v092
 .byte   W03
 .byte   W02
 .byte   W01
 .byte   Bn0 ,v096
 .byte   W01
 .byte   W02
 .byte   W03
 .byte   Bn1
 .byte   W01
 .byte   W01
 .byte   W01
 .byte   W01
 .byte   W01
 .byte   W01
 .byte   Bn0 ,v088
 .byte   W01
 .byte   W01
 .byte   W01
 .byte   W01
 .byte   W01
 .byte   W01
 .byte   W01
 .byte   W01
 .byte   W01
 .byte   W01
 .byte   W01
 .byte   W01
 .byte   BnM1 ,v072
 .byte   W01
 .byte   W01
 .byte   W01
 .byte   W01
 .byte   W01
 .byte   W01
 .byte   PEND 
@  #08 @010   ----------------------------------------
Label_01004D6C:
 .byte   N05 ,En0 ,v064
 .byte   W02
 .byte   W02
 .byte   W02
 .byte   En0 ,v068
 .byte   W03
 .byte   W02
 .byte   W01
 .byte   En0 ,v072
 .byte   W01
 .byte   W02
 .byte   W03
 .byte   N05
 .byte   W02
 .byte   W02
 .byte   W02
 .byte   En0 ,v076
 .byte   W03
 .byte   W02
 .byte   W01
 .byte   En0 ,v080
 .byte   W01
 .byte   W02
 .byte   W03
 .byte   N05
 .byte   W02
 .byte   W02
 .byte   W02
 .byte   En0 ,v084
 .byte   W03
 .byte   W02
 .byte   W01
 .byte   En0 ,v088
 .byte   W01
 .byte   W02
 .byte   W03
 .byte   N05
 .byte   W02
 .byte   W02
 .byte   W02
 .byte   En0 ,v092
 .byte   W03
 .byte   W02
 .byte   W01
 .byte   En0 ,v096
 .byte   W01
 .byte   W02
 .byte   W03
 .byte   En1
 .byte   W01
 .byte   W01
 .byte   W01
 .byte   W01
 .byte   W01
 .byte   W01
 .byte   En0 ,v088
 .byte   W01
 .byte   W01
 .byte   W01
 .byte   W01
 .byte   W01
 .byte   W01
 .byte   W01
 .byte   W01
 .byte   W01
 .byte   W01
 .byte   W01
 .byte   W01
 .byte   EnM1 ,v072
 .byte   W01
 .byte   W01
 .byte   W01
 .byte   W01
 .byte   W01
 .byte   W01
 .byte   PEND 
@  #08 @011   ----------------------------------------
Label_01004DC4:
 .byte   N05 ,An0 ,v064
 .byte   W06
 .byte   An0 ,v068
 .byte   W06
 .byte   N05
 .byte   W06
 .byte   An0 ,v072
 .byte   W06
 .byte   N05
 .byte   W06
 .byte   An0 ,v076
 .byte   W06
 .byte   An1
 .byte   W06
 .byte   An1 ,v080
 .byte   W06
 .byte   Gn0 ,v084
 .byte   W06
 .byte   N05
 .byte   W06
 .byte   Gn0 ,v088
 .byte   W06
 .byte   N05
 .byte   W06
 .byte   Gn0 ,v092
 .byte   W06
 .byte   N05
 .byte   W06
 .byte   Gn1 ,v096
 .byte   W06
 .byte   N05
 .byte   W06
 .byte   PEND 
@  #08 @012   ----------------------------------------
 .byte   PATT
  .word Label_01004CAC
@  #08 @013   ----------------------------------------
 .byte   PATT
  .word Label_01004D14
@  #08 @014   ----------------------------------------
 .byte   PATT
  .word Label_01004D6C
@  #08 @015   ----------------------------------------
 .byte   PATT
  .word Label_01004DC4
@  #08 @016   ----------------------------------------
 .byte   PATT
  .word Label_01004CAC
@  #08 @017   ----------------------------------------
 .byte   PATT
  .word Label_01004D14
@  #08 @018   ----------------------------------------
 .byte   PATT
  .word Label_01004D6C
@  #08 @019   ----------------------------------------
 .byte   PATT
  .word Label_01004DC4
@  #08 @020   ----------------------------------------
 .byte   PATT
  .word Label_01004CAC
@  #08 @021   ----------------------------------------
 .byte   PATT
  .word Label_01004D14
@  #08 @022   ----------------------------------------
 .byte   PATT
  .word Label_01004D6C
@  #08 @023   ----------------------------------------
 .byte   PATT
  .word Label_01004DC4
@  #08 @024   ----------------------------------------
Label_01004E2B:
 .byte   N05 ,Dn0 ,v064
 .byte   W01
 .byte   W02
 .byte   W01
 .byte   W02
 .byte   Dn0 ,v068
 .byte   W01
 .byte   W02
 .byte   W01
 .byte   W02
 .byte   Dn0 ,v072
 .byte   W01
 .byte   W02
 .byte   W01
 .byte   W02
 .byte   Dn0 ,v076
 .byte   W01
 .byte   W02
 .byte   W01
 .byte   W02
 .byte   Dn0 ,v080
 .byte   W01
 .byte   W02
 .byte   W01
 .byte   W02
 .byte   Dn0 ,v084
 .byte   W01
 .byte   W02
 .byte   W01
 .byte   W02
 .byte   Dn0 ,v088
 .byte   W01
 .byte   W02
 .byte   W01
 .byte   W02
 .byte   Dn0 ,v092
 .byte   W01
 .byte   W02
 .byte   W01
 .byte   W02
 .byte   Dn0 ,v096
 .byte   W01
 .byte   W02
 .byte   W01
 .byte   W02
 .byte   Dn0 ,v100
 .byte   W01
 .byte   W02
 .byte   W01
 .byte   W02
 .byte   Dn0 ,v104
 .byte   W01
 .byte   W02
 .byte   W01
 .byte   W02
 .byte   Dn0 ,v108
 .byte   W01
 .byte   W02
 .byte   W01
 .byte   W02
 .byte   Dn1 ,v112
 .byte   W01
 .byte   W01
 .byte   W01
 .byte   W01
 .byte   W01
 .byte   W01
 .byte   Dn0 ,v100
 .byte   W01
 .byte   W01
 .byte   W01
 .byte   W01
 .byte   W01
 .byte   W01
 .byte   W01
 .byte   W01
 .byte   W01
 .byte   W01
 .byte   W01
 .byte   W01
 .byte   DnM1 ,v076
 .byte   W01
 .byte   W01
 .byte   W01
 .byte   W01
 .byte   W01
 .byte   W01
 .byte   PEND 
@  #08 @025   ----------------------------------------
Label_01004E93:
 .byte   N05 ,En0 ,v064
 .byte   W01
 .byte   W02
 .byte   W01
 .byte   W02
 .byte   En0 ,v068
 .byte   W01
 .byte   W02
 .byte   W01
 .byte   W02
 .byte   En0 ,v072
 .byte   W01
 .byte   W02
 .byte   W01
 .byte   W02
 .byte   En0 ,v076
 .byte   W01
 .byte   W02
 .byte   W01
 .byte   W02
 .byte   En0 ,v080
 .byte   W01
 .byte   W02
 .byte   W01
 .byte   W02
 .byte   En0 ,v084
 .byte   W01
 .byte   W02
 .byte   W01
 .byte   W02
 .byte   En0 ,v088
 .byte   W01
 .byte   W02
 .byte   W01
 .byte   W02
 .byte   En0 ,v092
 .byte   W01
 .byte   W02
 .byte   W01
 .byte   W02
 .byte   En0 ,v096
 .byte   W01
 .byte   W02
 .byte   W01
 .byte   W02
 .byte   En0 ,v100
 .byte   W01
 .byte   W02
 .byte   W01
 .byte   W02
 .byte   En0 ,v104
 .byte   W01
 .byte   W02
 .byte   W01
 .byte   W02
 .byte   En0 ,v108
 .byte   W01
 .byte   W02
 .byte   W01
 .byte   W02
 .byte   En1 ,v112
 .byte   W01
 .byte   W01
 .byte   W01
 .byte   W01
 .byte   W01
 .byte   W01
 .byte   En0 ,v100
 .byte   W01
 .byte   W01
 .byte   W01
 .byte   W01
 .byte   W01
 .byte   W01
 .byte   W01
 .byte   W01
 .byte   W01
 .byte   W01
 .byte   W01
 .byte   W01
 .byte   EnM1 ,v076
 .byte   W01
 .byte   W01
 .byte   W01
 .byte   W01
 .byte   W01
 .byte   W01
 .byte   PEND 
@  #08 @026   ----------------------------------------
 .byte   PATT
  .word Label_01004CAC
@  #08 @027   ----------------------------------------
Label_01004F00:
 .byte   N05 ,Gn0 ,v064
 .byte   W01
 .byte   W02
 .byte   W01
 .byte   W02
 .byte   Gn0 ,v068
 .byte   W01
 .byte   W02
 .byte   W01
 .byte   W02
 .byte   Gn0 ,v072
 .byte   W01
 .byte   W02
 .byte   W01
 .byte   W02
 .byte   Gn0 ,v076
 .byte   W01
 .byte   W02
 .byte   W01
 .byte   W02
 .byte   Gn0 ,v080
 .byte   W01
 .byte   W02
 .byte   W01
 .byte   W02
 .byte   Gn0 ,v084
 .byte   W01
 .byte   W02
 .byte   W01
 .byte   W02
 .byte   Gn0 ,v088
 .byte   W01
 .byte   W02
 .byte   W01
 .byte   W02
 .byte   Gn0 ,v092
 .byte   W01
 .byte   W02
 .byte   W01
 .byte   W02
 .byte   Gn0 ,v096
 .byte   W01
 .byte   W02
 .byte   W01
 .byte   W02
 .byte   Gn0 ,v100
 .byte   W01
 .byte   W02
 .byte   W01
 .byte   W02
 .byte   Gn0 ,v104
 .byte   W01
 .byte   W02
 .byte   W01
 .byte   W02
 .byte   Gn0 ,v108
 .byte   W01
 .byte   W02
 .byte   W01
 .byte   W02
 .byte   Gn1 ,v112
 .byte   W01
 .byte   W01
 .byte   W01
 .byte   W01
 .byte   W01
 .byte   W01
 .byte   Gn0 ,v100
 .byte   W01
 .byte   W01
 .byte   W01
 .byte   W01
 .byte   W01
 .byte   W01
 .byte   W01
 .byte   W01
 .byte   W01
 .byte   W01
 .byte   W01
 .byte   W01
 .byte   GnM1 ,v076
 .byte   W01
 .byte   W01
 .byte   W01
 .byte   W01
 .byte   W01
 .byte   W01
 .byte   PEND 
@  #08 @028   ----------------------------------------
Label_01004F68:
 .byte   N05 ,An0 ,v064
 .byte   W01
 .byte   W02
 .byte   W01
 .byte   W02
 .byte   An0 ,v068
 .byte   W01
 .byte   W02
 .byte   W01
 .byte   W02
 .byte   An0 ,v072
 .byte   W01
 .byte   W02
 .byte   W01
 .byte   W02
 .byte   An0 ,v076
 .byte   W01
 .byte   W02
 .byte   W01
 .byte   W02
 .byte   An0 ,v080
 .byte   W01
 .byte   W02
 .byte   W01
 .byte   W02
 .byte   An0 ,v084
 .byte   W01
 .byte   W02
 .byte   W01
 .byte   W02
 .byte   An0 ,v088
 .byte   W01
 .byte   W02
 .byte   W01
 .byte   W02
 .byte   An0 ,v092
 .byte   W01
 .byte   W02
 .byte   W01
 .byte   W02
 .byte   An0 ,v096
 .byte   W01
 .byte   W02
 .byte   W01
 .byte   W02
 .byte   An0 ,v100
 .byte   W01
 .byte   W02
 .byte   W01
 .byte   W02
 .byte   An0 ,v104
 .byte   W01
 .byte   W02
 .byte   W01
 .byte   W02
 .byte   An0 ,v108
 .byte   W01
 .byte   W02
 .byte   W01
 .byte   W02
 .byte   An1 ,v112
 .byte   W01
 .byte   W01
 .byte   W01
 .byte   W01
 .byte   W01
 .byte   W01
 .byte   An0 ,v100
 .byte   W01
 .byte   W01
 .byte   W01
 .byte   W01
 .byte   W01
 .byte   W01
 .byte   W01
 .byte   W01
 .byte   W01
 .byte   W01
 .byte   W01
 .byte   W01
 .byte   AnM1 ,v076
 .byte   W01
 .byte   W01
 .byte   W01
 .byte   W01
 .byte   W01
 .byte   W01
 .byte   PEND 
@  #08 @029   ----------------------------------------
 .byte   PATT
  .word Label_01004F68
@  #08 @030   ----------------------------------------
Label_01004FD5:
 .byte   N05 ,Cn1 ,v064
 .byte   W01
 .byte   W02
 .byte   W01
 .byte   W02
 .byte   Cn1 ,v068
 .byte   W01
 .byte   W02
 .byte   W01
 .byte   W02
 .byte   Cn1 ,v072
 .byte   W01
 .byte   W02
 .byte   W01
 .byte   W02
 .byte   Cn1 ,v076
 .byte   W01
 .byte   W02
 .byte   W01
 .byte   W02
 .byte   Cn1 ,v080
 .byte   W01
 .byte   W02
 .byte   W01
 .byte   W02
 .byte   Cn1 ,v084
 .byte   W01
 .byte   W02
 .byte   W01
 .byte   W02
 .byte   Cn1 ,v088
 .byte   W01
 .byte   W02
 .byte   W01
 .byte   W02
 .byte   Cn1 ,v092
 .byte   W01
 .byte   W02
 .byte   W01
 .byte   W02
 .byte   Cn1 ,v096
 .byte   W01
 .byte   W02
 .byte   W01
 .byte   W02
 .byte   Cn1 ,v100
 .byte   W01
 .byte   W02
 .byte   W01
 .byte   W02
 .byte   Cn1 ,v104
 .byte   W01
 .byte   W02
 .byte   W01
 .byte   W02
 .byte   Cn1 ,v108
 .byte   W01
 .byte   W02
 .byte   W01
 .byte   W02
 .byte   Cn2 ,v112
 .byte   W01
 .byte   W01
 .byte   W01
 .byte   W01
 .byte   W01
 .byte   W01
 .byte   Cn1 ,v100
 .byte   W01
 .byte   W01
 .byte   W01
 .byte   W01
 .byte   W01
 .byte   W01
 .byte   W01
 .byte   W01
 .byte   W01
 .byte   W01
 .byte   W01
 .byte   W01
 .byte   Cn0 ,v076
 .byte   W01
 .byte   W01
 .byte   W01
 .byte   W01
 .byte   W01
 .byte   W01
 .byte   PEND 
@  #08 @031   ----------------------------------------
 .byte   PATT
  .word Label_01004FD5
@  #08 @032   ----------------------------------------
 .byte   PATT
  .word Label_01004F68
@  #08 @033   ----------------------------------------
 .byte   PATT
  .word Label_01004F68
@  #08 @034   ----------------------------------------
 .byte   PATT
  .word Label_01004FD5
@  #08 @035   ----------------------------------------
 .byte   PATT
  .word Label_01004FD5
@  #08 @036   ----------------------------------------
 .byte   PATT
  .word Label_01004CAC
@  #08 @037   ----------------------------------------
 .byte   PATT
  .word Label_01004D14
@  #08 @038   ----------------------------------------
 .byte   PATT
  .word Label_01004D6C
@  #08 @039   ----------------------------------------
 .byte   PATT
  .word Label_01004DC4
@  #08 @040   ----------------------------------------
 .byte   PATT
  .word Label_01004CAC
@  #08 @041   ----------------------------------------
 .byte   PATT
  .word Label_01004D14
@  #08 @042   ----------------------------------------
 .byte   PATT
  .word Label_01004D6C
@  #08 @043   ----------------------------------------
 .byte   PATT
  .word Label_01004DC4
@  #08 @044   ----------------------------------------
 .byte   PATT
  .word Label_01004E2B
@  #08 @045   ----------------------------------------
 .byte   PATT
  .word Label_01004E93
@  #08 @046   ----------------------------------------
 .byte   PATT
  .word Label_01004CAC
@  #08 @047   ----------------------------------------
 .byte   PATT
  .word Label_01004F00
@  #08 @048   ----------------------------------------
 .byte   PATT
  .word Label_01004E2B
@  #08 @049   ----------------------------------------
 .byte   N05 ,En0 ,v064
 .byte   W04
 .byte   W02
 .byte   En0 ,v068
 .byte   W03
 .byte   W03
 .byte   N05
 .byte   W01
 .byte   W05
 .byte   N05
 .byte   W04
 .byte   W02
 .byte   En0 ,v072
 .byte   W03
 .byte   W03
 .byte   N05
 .byte   W01
 .byte   W05
 .byte   N05
 .byte   W04
 .byte   W02
 .byte   En0 ,v076
 .byte   W03
 .byte   W03
 .byte   N05
 .byte   W01
 .byte   W05
 .byte   N05
 .byte   W04
 .byte   W02
 .byte   En0 ,v080
 .byte   W03
 .byte   W03
 .byte   N05
 .byte   W01
 .byte   W05
 .byte   En1
 .byte   W01
 .byte   W01
 .byte   W01
 .byte   W01
 .byte   W01
 .byte   W01
 .byte   En0 ,v076
 .byte   W01
 .byte   W01
 .byte   W01
 .byte   W01
 .byte   W01
 .byte   W01
 .byte   W01
 .byte   W01
 .byte   W01
 .byte   W01
 .byte   W01
 .byte   W01
 .byte   EnM1 ,v060
 .byte   W01
 .byte   W01
 .byte   W01
 .byte   W01
 .byte   W01
 .byte   W01
@  #08 @050   ----------------------------------------
 .byte   Fn0 ,v052
 .byte   W04
 .byte   W02
 .byte   N05
 .byte   W03
 .byte   W03
 .byte   N05
 .byte   W02
 .byte   W04
 .byte   N05
 .byte   W01
 .byte   W05
 .byte   Fn0 ,v056
 .byte   W04
 .byte   W02
 .byte   N05
 .byte   W03
 .byte   W03
 .byte   N05
 .byte   W02
 .byte   W04
 .byte   Fn0 ,v060
 .byte   W01
 .byte   W05
 .byte   N05
 .byte   W04
 .byte   W02
 .byte   N05
 .byte   W03
 .byte   W03
 .byte   Fn0 ,v064
 .byte   W02
 .byte   W04
 .byte   N05
 .byte   W01
 .byte   W05
 .byte   Fn1
 .byte   W01
 .byte   W01
 .byte   W01
 .byte   W01
 .byte   W01
 .byte   W01
 .byte   Fn0 ,v060
 .byte   W01
 .byte   W01
 .byte   W01
 .byte   W01
 .byte   W01
 .byte   W01
 .byte   W01
 .byte   W01
 .byte   W01
 .byte   W01
 .byte   W01
 .byte   W01
 .byte   FnM1 ,v044
 .byte   W01
 .byte   W01
 .byte   W01
 .byte   W01
 .byte   W01
 .byte   W01
@  #08 @051   ----------------------------------------
 .byte   Gn0 ,v036
 .byte   W04
 .byte   W02
 .byte   N05
 .byte   W03
 .byte   W03
 .byte   N05
 .byte   W01
 .byte   W05
 .byte   Gn0 ,v040
 .byte   W04
 .byte   W02
 .byte   N05
 .byte   W03
 .byte   W03
 .byte   N05
 .byte   W01
 .byte   W05
 .byte   Gn0 ,v044
 .byte   W04
 .byte   W02
 .byte   N05
 .byte   W03
 .byte   W03
 .byte   N05
 .byte   W01
 .byte   W05
 .byte   Gn0 ,v048
 .byte   W04
 .byte   W02
 .byte   N05
 .byte   W03
 .byte   W03
 .byte   N05
 .byte   W01
 .byte   W05
 .byte   Gn1 ,v052
 .byte   W06
 .byte   Gn0
 .byte   W12
 .byte   GnM1
 .byte   W06
@  #08 @052   ----------------------------------------
 .byte   W96
@  #08 @053   ----------------------------------------
 .byte   W96
@  #08 @054   ----------------------------------------
 .byte   W96
@  #08 @055   ----------------------------------------
 .byte   W96
@  #08 @056   ----------------------------------------
 .byte   W96
@  #08 @057   ----------------------------------------
 .byte   W96
@  #08 @058   ----------------------------------------
 .byte   W96
@  #08 @059   ----------------------------------------
 .byte   W96
@  #08 @060   ----------------------------------------
 .byte   GOTO
  .word Label_01004CAC
@  #08 @061   ----------------------------------------
 .byte   PATT
  .word Label_01004CAC
 .byte   FINE

@******************************************************@
	.align	2

song04:
	.byte	8	@ NumTrks
	.byte	0	@ NumBlks
	.byte	song04_pri	@ Priority
	.byte	song04_rev	@ Reverb.
    
	.word	song04_grp
    
	.word	song04_001
	.word	song04_002
	.word	song04_003
	.word	song04_004
	.word	song04_005
	.word	song04_006
	.word	song04_007
	.word	song04_008

	.end
