//Event file generated from Sappy .s format.
	#include "MPlayDef.event"

	#define	StickerbrushSymphonyAlt_grp  voicegroup000
	#define	StickerbrushSymphonyAlt_pri  0
	#define	StickerbrushSymphonyAlt_rev  0
	#define	StickerbrushSymphonyAlt_mvl  127
	#define	StickerbrushSymphonyAlt_key  0
	#define	StickerbrushSymphonyAlt_tbs  1
	#define	StickerbrushSymphonyAlt_exg  0
	#define	StickerbrushSymphonyAlt_cmp  1

	// .rodata
	//	StickerbrushSymphonyAlt
	ALIGN 4


//**************** Track 1 (Midi-Chn.0) ****************//

StickerbrushSymphonyAlt_001:
//  #01 //000   ----------------------------------------
 BYTE   KEYSH   StickerbrushSymphonyAlt_key+0
 BYTE   TEMPO   100*StickerbrushSymphonyAlt_tbs/2
 BYTE   VOICE   50
 BYTE   VOL   39*StickerbrushSymphonyAlt_mvl/mxv
 BYTE   PAN   c_v+0
 BYTE   TIE  Gn3  v036
 BYTE   TIE  Cn4
 BYTE   W96
//  #01 //001   ----------------------------------------
 BYTE   W92
 BYTE   W03
 BYTE   EOT
 BYTE   Gn3  v072
 BYTE   W01
//  #01 //002   ----------------------------------------
Label_017BA54E:
 BYTE   TIE  Bn3  v036
 BYTE   TIE  En4
 BYTE   W96
 BYTE   PEND 
//  #01 //003   ----------------------------------------
 BYTE   W92
 BYTE   W03
 BYTE   EOT
 BYTE   Bn3  v076
 BYTE   W01
//  #01 //004   ----------------------------------------
Label_017BA55B:
 BYTE   TIE  Gn3  v036
 BYTE   TIE  Cn4
 BYTE   W96
 BYTE   PEND 
//  #01 //005   ----------------------------------------
 BYTE   W92
 BYTE   W03
 BYTE   EOT
 BYTE   Gn3  v072
 BYTE   W01
//  #01 //006   ----------------------------------------
 BYTE   PATT
  POIN2 Label_017BA54E
//  #01 //007   ----------------------------------------
 BYTE   W92
 BYTE   W03
 BYTE   EOT
 BYTE   Bn3  v076
 BYTE   W01
//  #01 //008   ----------------------------------------
Label_017BA573:
 BYTE   N92  En3  v036
 BYTE   N92  An3
 BYTE   W96
//  #01 //009   ----------------------------------------
 BYTE   Dn3
 BYTE   N92  An3
 BYTE   W96
//  #01 //010   ----------------------------------------
 BYTE   Dn3
 BYTE   N92  Gn3
 BYTE   W96
//  #01 //011   ----------------------------------------
Label_017BA581:
 BYTE   N44  En3  v036
 BYTE   N44  Gn3
 BYTE   W48
 BYTE   Dn3
 BYTE   N44  Gn3
 BYTE   W48
 BYTE   PEND 
//  #01 //012   ----------------------------------------
 BYTE   N92  En3
 BYTE   N92  An3
 BYTE   W96
//  #01 //013   ----------------------------------------
 BYTE   Dn3
 BYTE   N92  An3
 BYTE   W96
//  #01 //014   ----------------------------------------
 BYTE   Dn3
 BYTE   N92  Gn3
 BYTE   W96
//  #01 //015   ----------------------------------------
 BYTE   PATT
  POIN2 Label_017BA581
//  #01 //016   ----------------------------------------
 BYTE   N92  En3  v036
 BYTE   N92  An3
 BYTE   W96
//  #01 //017   ----------------------------------------
 BYTE   Dn3
 BYTE   N92  An3
 BYTE   W96
//  #01 //018   ----------------------------------------
 BYTE   Dn3
 BYTE   N92  Gn3
 BYTE   W96
//  #01 //019   ----------------------------------------
 BYTE   PATT
  POIN2 Label_017BA581
//  #01 //020   ----------------------------------------
 BYTE   N92  En3  v036
 BYTE   N92  An3
 BYTE   W96
//  #01 //021   ----------------------------------------
 BYTE   Dn3
 BYTE   N92  An3
 BYTE   W96
//  #01 //022   ----------------------------------------
 BYTE   Dn3
 BYTE   N92  Gn3
 BYTE   W96
//  #01 //023   ----------------------------------------
 BYTE   PATT
  POIN2 Label_017BA581
//  #01 //024   ----------------------------------------
 BYTE   N92  Dn3  v036
 BYTE   N92  Fn3
 BYTE   W96
//  #01 //025   ----------------------------------------
 BYTE   En3
 BYTE   N92  Gn3
 BYTE   W96
//  #01 //026   ----------------------------------------
 BYTE   Fn3
 BYTE   N92  An3
 BYTE   W96
//  #01 //027   ----------------------------------------
 BYTE   Dn3
 BYTE   N92  Gn3
 BYTE   W96
//  #01 //028   ----------------------------------------
Label_017BA5D6:
 BYTE   TIE  Gn3  v016
 BYTE   TIE  Cn4
 BYTE   W96
 BYTE   PEND 
//  #01 //029   ----------------------------------------
 BYTE   W92
 BYTE   W03
 BYTE   EOT
 BYTE   Gn3  v072
 BYTE   W01
//  #01 //030   ----------------------------------------
Label_017BA5E3:
 BYTE   TIE  Bn3  v016
 BYTE   TIE  En4
 BYTE   W96
 BYTE   PEND 
//  #01 //031   ----------------------------------------
 BYTE   W92
 BYTE   W03
 BYTE   EOT
 BYTE   Bn3  v076
 BYTE   W01
//  #01 //032   ----------------------------------------
 BYTE   PATT
  POIN2 Label_017BA5D6
//  #01 //033   ----------------------------------------
 BYTE   W92
 BYTE   W03
 BYTE   EOT
 BYTE   Gn3  v072
 BYTE   W01
//  #01 //034   ----------------------------------------
 BYTE   PATT
  POIN2 Label_017BA5E3
//  #01 //035   ----------------------------------------
 BYTE   W92
 BYTE   W03
 BYTE   EOT
 BYTE   Bn3  v076
 BYTE   W01
//  #01 //036   ----------------------------------------
 BYTE   N92  En3  v036
 BYTE   N92  An3
 BYTE   W96
//  #01 //037   ----------------------------------------
 BYTE   Dn3
 BYTE   N92  An3
 BYTE   W96
//  #01 //038   ----------------------------------------
 BYTE   Dn3
 BYTE   N92  Gn3
 BYTE   W96
//  #01 //039   ----------------------------------------
 BYTE   PATT
  POIN2 Label_017BA581
//  #01 //040   ----------------------------------------
 BYTE   N92  En3  v036
 BYTE   N92  An3
 BYTE   W96
//  #01 //041   ----------------------------------------
 BYTE   Dn3
 BYTE   N92  An3
 BYTE   W96
//  #01 //042   ----------------------------------------
 BYTE   Dn3
 BYTE   N92  Gn3
 BYTE   W96
//  #01 //043   ----------------------------------------
 BYTE   PATT
  POIN2 Label_017BA581
//  #01 //044   ----------------------------------------
 BYTE   N92  Dn3  v036
 BYTE   N92  Fn3
 BYTE   W96
//  #01 //045   ----------------------------------------
 BYTE   En3
 BYTE   N92  Gn3
 BYTE   W96
//  #01 //046   ----------------------------------------
 BYTE   Fn3
 BYTE   N92  An3
 BYTE   W96
//  #01 //047   ----------------------------------------
 BYTE   Dn3
 BYTE   N92  Gn3
 BYTE   W96
//  #01 //048   ----------------------------------------
 BYTE   Dn3
 BYTE   N92  Fn3
 BYTE   W96
//  #01 //049   ----------------------------------------
 BYTE   En3
 BYTE   N92  Gn3
 BYTE   W96
//  #01 //050   ----------------------------------------
 BYTE   Fn3
 BYTE   N92  An3
 BYTE   W96
//  #01 //051   ----------------------------------------
 BYTE   Dn3
 BYTE   N92  Gn3
 BYTE   W96
//  #01 //052   ----------------------------------------
 BYTE   TEMPO   100*StickerbrushSymphonyAlt_tbs/2
 BYTE   TIE
 BYTE   TIE  Cn4
 BYTE   W96
//  #01 //053   ----------------------------------------
 BYTE   W92
 BYTE   W03
 BYTE   EOT
 BYTE   Gn3  v072
 BYTE   W01
//  #01 //054   ----------------------------------------
 BYTE   PATT
  POIN2 Label_017BA54E
//  #01 //055   ----------------------------------------
 BYTE   W92
 BYTE   W03
 BYTE   EOT
 BYTE   Bn3  v076
 BYTE   W01
//  #01 //056   ----------------------------------------
 BYTE   PATT
  POIN2 Label_017BA55B
//  #01 //057   ----------------------------------------
 BYTE   W92
 BYTE   W03
 BYTE   EOT
 BYTE   Gn3  v072
 BYTE   W01
//  #01 //058   ----------------------------------------
 BYTE   PATT
  POIN2 Label_017BA54E
//  #01 //059   ----------------------------------------
 BYTE   W92
 BYTE   W03
 BYTE   EOT
 BYTE   Bn3  v076
 BYTE   W01
//  #01 //060   ----------------------------------------
 BYTE   GoTo
  POIN2 Label_017BA573
//  #01 //061   ----------------------------------------
 BYTE   N92  En3  v036
 BYTE   N92  An3
 BYTE   W96
 BYTE   FINE

//**************** Track 2 (Midi-Chn.1) ****************//

StickerbrushSymphonyAlt_002:
//  #02 //000   ----------------------------------------
 BYTE   KEYSH   StickerbrushSymphonyAlt_key+0
 BYTE   VOICE   104
 BYTE   VOL   39*StickerbrushSymphonyAlt_mvl/mxv
 BYTE   PAN   c_v+0
 BYTE   TIE  An2  v016
 BYTE   TIE  En3
 BYTE   W96
//  #02 //001   ----------------------------------------
 BYTE   W92
 BYTE   W03
 BYTE   EOT
 BYTE   An2  v064
 BYTE   W01
//  #02 //002   ----------------------------------------
Label_017BA69B:
 BYTE   TIE  Cn3  v016
 BYTE   TIE  Gn3
 BYTE   W96
 BYTE   PEND 
//  #02 //003   ----------------------------------------
 BYTE   W92
 BYTE   W03
 BYTE   EOT
 BYTE   Cn3  v067
 BYTE   W01
//  #02 //004   ----------------------------------------
Label_017BA6A8:
 BYTE   TIE  An2  v016
 BYTE   TIE  En3
 BYTE   W96
 BYTE   PEND 
//  #02 //005   ----------------------------------------
 BYTE   W92
 BYTE   W03
 BYTE   EOT
 BYTE   An2  v064
 BYTE   W01
//  #02 //006   ----------------------------------------
 BYTE   PATT
  POIN2 Label_017BA69B
//  #02 //007   ----------------------------------------
 BYTE   W92
 BYTE   W03
 BYTE   EOT
 BYTE   Cn3  v067
 BYTE   W01
//  #02 //008   ----------------------------------------
Label_017BA6C0:
 BYTE   N92  Fn2  v016
 BYTE   N92  Cn3
 BYTE   W96
//  #02 //009   ----------------------------------------
 BYTE   Gn2
 BYTE   N92  Bn2
 BYTE   W96
//  #02 //010   ----------------------------------------
 BYTE   En2
 BYTE   N92  Bn2
 BYTE   W96
//  #02 //011   ----------------------------------------
Label_017BA6CE:
 BYTE   N44  En2  v016
 BYTE   N44  An2
 BYTE   W48
 BYTE   Gn2
 BYTE   N44  Bn2
 BYTE   W48
 BYTE   PEND 
//  #02 //012   ----------------------------------------
 BYTE   N92  Fn2
 BYTE   N92  Cn3
 BYTE   W96
//  #02 //013   ----------------------------------------
 BYTE   Gn2
 BYTE   N92  Bn2
 BYTE   W96
//  #02 //014   ----------------------------------------
 BYTE   En2
 BYTE   N92  Bn2
 BYTE   W96
//  #02 //015   ----------------------------------------
 BYTE   PATT
  POIN2 Label_017BA6CE
//  #02 //016   ----------------------------------------
 BYTE   N92  Fn2  v016
 BYTE   N92  Cn3
 BYTE   W96
//  #02 //017   ----------------------------------------
 BYTE   Gn2
 BYTE   N92  Bn2
 BYTE   W96
//  #02 //018   ----------------------------------------
 BYTE   En2
 BYTE   N92  Bn2
 BYTE   W96
//  #02 //019   ----------------------------------------
 BYTE   PATT
  POIN2 Label_017BA6CE
//  #02 //020   ----------------------------------------
 BYTE   N92  Fn2  v016
 BYTE   N92  Cn3
 BYTE   W96
//  #02 //021   ----------------------------------------
 BYTE   Gn2
 BYTE   N92  Bn2
 BYTE   W96
//  #02 //022   ----------------------------------------
 BYTE   En2
 BYTE   N92  Bn2
 BYTE   W96
//  #02 //023   ----------------------------------------
 BYTE   PATT
  POIN2 Label_017BA6CE
//  #02 //024   ----------------------------------------
 BYTE   N92  An2  v016
 BYTE   N92  Cn3
 BYTE   W96
//  #02 //025   ----------------------------------------
 BYTE   Bn2
 BYTE   N92  Dn3
 BYTE   W96
//  #02 //026   ----------------------------------------
 BYTE   Cn3
 BYTE   N92  En3
 BYTE   W96
//  #02 //027   ----------------------------------------
 BYTE   Dn3
 BYTE   W96
//  #02 //028   ----------------------------------------
 BYTE   PATT
  POIN2 Label_017BA6A8
//  #02 //029   ----------------------------------------
 BYTE   W92
 BYTE   W03
 BYTE   EOT
 BYTE   An2  v064
 BYTE   W01
//  #02 //030   ----------------------------------------
 BYTE   PATT
  POIN2 Label_017BA69B
//  #02 //031   ----------------------------------------
 BYTE   W92
 BYTE   W03
 BYTE   EOT
 BYTE   Cn3  v067
 BYTE   W01
//  #02 //032   ----------------------------------------
 BYTE   PATT
  POIN2 Label_017BA6A8
//  #02 //033   ----------------------------------------
 BYTE   W92
 BYTE   W03
 BYTE   EOT
 BYTE   An2  v064
 BYTE   W01
//  #02 //034   ----------------------------------------
 BYTE   PATT
  POIN2 Label_017BA69B
//  #02 //035   ----------------------------------------
 BYTE   W92
 BYTE   W03
 BYTE   EOT
 BYTE   Cn3  v067
 BYTE   W01
//  #02 //036   ----------------------------------------
 BYTE   N92  Fn2  v016
 BYTE   N92  Cn3
 BYTE   W96
//  #02 //037   ----------------------------------------
 BYTE   Gn2
 BYTE   N92  Bn2
 BYTE   W96
//  #02 //038   ----------------------------------------
 BYTE   En2
 BYTE   N92  Bn2
 BYTE   W96
//  #02 //039   ----------------------------------------
 BYTE   PATT
  POIN2 Label_017BA6CE
//  #02 //040   ----------------------------------------
 BYTE   N92  Fn2  v016
 BYTE   N92  Cn3
 BYTE   W96
//  #02 //041   ----------------------------------------
 BYTE   Gn2
 BYTE   N92  Bn2
 BYTE   W96
//  #02 //042   ----------------------------------------
 BYTE   En2
 BYTE   N92  Bn2
 BYTE   W96
//  #02 //043   ----------------------------------------
 BYTE   PATT
  POIN2 Label_017BA6CE
//  #02 //044   ----------------------------------------
 BYTE   N92  An2  v016
 BYTE   N92  Cn3
 BYTE   W96
//  #02 //045   ----------------------------------------
 BYTE   Bn2
 BYTE   N92  Dn3
 BYTE   W96
//  #02 //046   ----------------------------------------
 BYTE   Cn3
 BYTE   N92  En3
 BYTE   W96
//  #02 //047   ----------------------------------------
 BYTE   Dn3
 BYTE   W96
//  #02 //048   ----------------------------------------
 BYTE   An2
 BYTE   N92  Cn3
 BYTE   W96
//  #02 //049   ----------------------------------------
 BYTE   Bn2
 BYTE   N92  Dn3
 BYTE   W96
//  #02 //050   ----------------------------------------
 BYTE   Cn3
 BYTE   N92  En3
 BYTE   W96
//  #02 //051   ----------------------------------------
 BYTE   Dn3
 BYTE   W96
//  #02 //052   ----------------------------------------
 BYTE   PATT
  POIN2 Label_017BA6A8
//  #02 //053   ----------------------------------------
 BYTE   W92
 BYTE   W03
 BYTE   EOT
 BYTE   An2  v064
 BYTE   W01
//  #02 //054   ----------------------------------------
 BYTE   PATT
  POIN2 Label_017BA69B
//  #02 //055   ----------------------------------------
 BYTE   W92
 BYTE   W03
 BYTE   EOT
 BYTE   Cn3  v067
 BYTE   W01
//  #02 //056   ----------------------------------------
 BYTE   PATT
  POIN2 Label_017BA6A8
//  #02 //057   ----------------------------------------
 BYTE   W92
 BYTE   W03
 BYTE   EOT
 BYTE   An2  v064
 BYTE   W01
//  #02 //058   ----------------------------------------
 BYTE   PATT
  POIN2 Label_017BA69B
//  #02 //059   ----------------------------------------
 BYTE   W92
 BYTE   W03
 BYTE   EOT
 BYTE   Cn3  v067
 BYTE   W01
//  #02 //060   ----------------------------------------
 BYTE   GoTo
  POIN2 Label_017BA6C0
//  #02 //061   ----------------------------------------
 BYTE   N92  Fn2  v016
 BYTE   N92  Cn3
 BYTE   W96
 BYTE   FINE

//**************** Track 3 (Midi-Chn.2) ****************//

StickerbrushSymphonyAlt_003:
//  #03 //000   ----------------------------------------
 BYTE   KEYSH   StickerbrushSymphonyAlt_key+0
 BYTE   VOICE   30
 BYTE   VOL   30*StickerbrushSymphonyAlt_mvl/mxv
 BYTE   PAN   c_v+0
 BYTE   TIE  An1  v052
 BYTE   W96
//  #03 //001   ----------------------------------------
 BYTE   W92
 BYTE   W03
 BYTE   EOT
 BYTE   W01
//  #03 //002   ----------------------------------------
 BYTE   TIE  Cn2
 BYTE   W96
//  #03 //003   ----------------------------------------
 BYTE   W92
 BYTE   W03
 BYTE   EOT
 BYTE   W01
//  #03 //004   ----------------------------------------
 BYTE   TIE  An1
 BYTE   W96
//  #03 //005   ----------------------------------------
 BYTE   W92
 BYTE   W03
 BYTE   EOT
 BYTE   W01
//  #03 //006   ----------------------------------------
Label_017BA7E7:
 BYTE   TIE  Cn1  v052
 BYTE   TIE  Cn2
 BYTE   W96
 BYTE   PEND 
//  #03 //007   ----------------------------------------
 BYTE   W92
 BYTE   W03
 BYTE   EOT
 BYTE   Cn1  v048
 BYTE   W01
//  #03 //008   ----------------------------------------
Label_017BA7F4:
 BYTE   N92  Fn1  v052
 BYTE   W96
//  #03 //009   ----------------------------------------
 BYTE   Bn1
 BYTE   W96
//  #03 //010   ----------------------------------------
 BYTE   En1
 BYTE   W96
//  #03 //011   ----------------------------------------
Label_017BA7FC:
 BYTE   N44  An1  v052
 BYTE   W48
 BYTE   Gn1
 BYTE   W48
 BYTE   PEND 
//  #03 //012   ----------------------------------------
 BYTE   N92  Fn1
 BYTE   W96
//  #03 //013   ----------------------------------------
 BYTE   Bn1
 BYTE   W96
//  #03 //014   ----------------------------------------
 BYTE   En1
 BYTE   W96
//  #03 //015   ----------------------------------------
 BYTE   PATT
  POIN2 Label_017BA7FC
//  #03 //016   ----------------------------------------
 BYTE   N92  Fn1  v052
 BYTE   W96
//  #03 //017   ----------------------------------------
 BYTE   Bn1
 BYTE   W96
//  #03 //018   ----------------------------------------
 BYTE   En1
 BYTE   W96
//  #03 //019   ----------------------------------------
 BYTE   PATT
  POIN2 Label_017BA7FC
//  #03 //020   ----------------------------------------
 BYTE   N92  Fn1  v052
 BYTE   W96
//  #03 //021   ----------------------------------------
 BYTE   Bn1
 BYTE   W96
//  #03 //022   ----------------------------------------
 BYTE   En1
 BYTE   W96
//  #03 //023   ----------------------------------------
 BYTE   PATT
  POIN2 Label_017BA7FC
//  #03 //024   ----------------------------------------
 BYTE   N92  Dn1  v052
 BYTE   W96
//  #03 //025   ----------------------------------------
 BYTE   En1
 BYTE   W96
//  #03 //026   ----------------------------------------
 BYTE   Fn1
 BYTE   W96
//  #03 //027   ----------------------------------------
 BYTE   Gn1
 BYTE   W96
//  #03 //028   ----------------------------------------
 BYTE   TIE  An1  v036
 BYTE   W96
//  #03 //029   ----------------------------------------
 BYTE   W92
 BYTE   W03
 BYTE   EOT
 BYTE   W01
//  #03 //030   ----------------------------------------
 BYTE   TIE  Cn2
 BYTE   W96
//  #03 //031   ----------------------------------------
 BYTE   W92
 BYTE   W03
 BYTE   EOT
 BYTE   W01
//  #03 //032   ----------------------------------------
 BYTE   TIE  An1
 BYTE   W96
//  #03 //033   ----------------------------------------
 BYTE   W92
 BYTE   W03
 BYTE   EOT
 BYTE   W01
//  #03 //034   ----------------------------------------
 BYTE   TIE  Cn1
 BYTE   TIE  Cn2
 BYTE   W96
//  #03 //035   ----------------------------------------
 BYTE   W92
 BYTE   W03
 BYTE   EOT
 BYTE   Cn1  v048
 BYTE   W01
//  #03 //036   ----------------------------------------
 BYTE   N92  Fn1  v052
 BYTE   W96
//  #03 //037   ----------------------------------------
 BYTE   Bn1
 BYTE   W96
//  #03 //038   ----------------------------------------
 BYTE   En1
 BYTE   W96
//  #03 //039   ----------------------------------------
 BYTE   PATT
  POIN2 Label_017BA7FC
//  #03 //040   ----------------------------------------
 BYTE   N92  Fn1  v052
 BYTE   W96
//  #03 //041   ----------------------------------------
 BYTE   Bn1
 BYTE   W96
//  #03 //042   ----------------------------------------
 BYTE   En1
 BYTE   W96
//  #03 //043   ----------------------------------------
 BYTE   PATT
  POIN2 Label_017BA7FC
//  #03 //044   ----------------------------------------
 BYTE   N92  Dn1  v052
 BYTE   W96
//  #03 //045   ----------------------------------------
 BYTE   En1
 BYTE   W96
//  #03 //046   ----------------------------------------
 BYTE   Fn1
 BYTE   W96
//  #03 //047   ----------------------------------------
 BYTE   Gn1
 BYTE   W96
//  #03 //048   ----------------------------------------
 BYTE   Dn1
 BYTE   W96
//  #03 //049   ----------------------------------------
 BYTE   En1
 BYTE   W96
//  #03 //050   ----------------------------------------
 BYTE   Fn1
 BYTE   W96
//  #03 //051   ----------------------------------------
 BYTE   Gn1
 BYTE   W96
//  #03 //052   ----------------------------------------
 BYTE   TIE  An1
 BYTE   W96
//  #03 //053   ----------------------------------------
 BYTE   W92
 BYTE   W03
 BYTE   EOT
 BYTE   W01
//  #03 //054   ----------------------------------------
 BYTE   TIE  Cn2
 BYTE   W96
//  #03 //055   ----------------------------------------
 BYTE   W92
 BYTE   W03
 BYTE   EOT
 BYTE   W01
//  #03 //056   ----------------------------------------
 BYTE   TIE  An1
 BYTE   W96
//  #03 //057   ----------------------------------------
 BYTE   W92
 BYTE   W03
 BYTE   EOT
 BYTE   W01
//  #03 //058   ----------------------------------------
 BYTE   PATT
  POIN2 Label_017BA7E7
//  #03 //059   ----------------------------------------
 BYTE   W92
 BYTE   W03
 BYTE   EOT
 BYTE   Cn1  v048
 BYTE   W01
//  #03 //060   ----------------------------------------
 BYTE   GoTo
  POIN2 Label_017BA7F4
//  #03 //061   ----------------------------------------
 BYTE   N92  Fn1  v052
 BYTE   W96
 BYTE   FINE

//**************** Track 4 (Midi-Chn.3) ****************//

StickerbrushSymphonyAlt_004:
//  #04 //000   ----------------------------------------
 BYTE   KEYSH   StickerbrushSymphonyAlt_key+0
 BYTE   VOICE   124
 BYTE   VOL   54*StickerbrushSymphonyAlt_mvl/mxv
 BYTE   PAN   c_v+0
 BYTE   VOL   54*StickerbrushSymphonyAlt_mvl/mxv
 BYTE   PAN   c_v+0
 BYTE   W96
//  #04 //001   ----------------------------------------
 BYTE   W96
//  #04 //002   ----------------------------------------
 BYTE   W96
//  #04 //003   ----------------------------------------
 BYTE   W96
//  #04 //004   ----------------------------------------
 BYTE   W96
//  #04 //005   ----------------------------------------
 BYTE   W96
//  #04 //006   ----------------------------------------
 BYTE   W96
//  #04 //007   ----------------------------------------
 BYTE   W96
//  #04 //008   ----------------------------------------
Label_017BA8BE:
 BYTE   VOICE   123
 BYTE   VOL   40*StickerbrushSymphonyAlt_mvl/mxv
sickassdrumlabel:
 BYTE   N23  Cn1  v080
 BYTE   N05  Fs1  v036
 BYTE   W06
 BYTE   N05
 BYTE   W06
 BYTE   N07  Fs1  v040
 BYTE   W03
 BYTE   W01
 BYTE   W01
 BYTE   W07
 BYTE   N17  Dn1  v080
 BYTE   W06
 BYTE   N05  Fs1  v036
 BYTE   W06
 BYTE   N07  Fs1  v040
 BYTE   W03
 BYTE   W01
 BYTE   W01
 BYTE   W01
 BYTE   N05  Cn1  v080
 BYTE   W06
 BYTE   N11  Fs1  v036
 BYTE   W06
 BYTE   N05  Cn1  v080
 BYTE   W06
 BYTE   N11
 BYTE   N05  Fs1  v036
 BYTE   W06
 BYTE   N03  Fs1  v040
 BYTE   W03
 BYTE   W01
 BYTE   W01
 BYTE   W01
 BYTE   N23  Dn1  v080
 BYTE   W06
 BYTE   N05  Fs1  v036
 BYTE   W06
 BYTE   N07  Fs1  v040
 BYTE   W03
 BYTE   W01
 BYTE   W01
 BYTE   W07
 BYTE   PEND 
//  #04 //009   ----------------------------------------
 BYTE   PATT
  POIN2 sickassdrumlabel
//  #04 //010   ----------------------------------------
 BYTE   PATT
  POIN2 sickassdrumlabel
//  #04 //011   ----------------------------------------
 BYTE   PATT
  POIN2 sickassdrumlabel
//  #04 //012   ----------------------------------------
 BYTE   PATT
  POIN2 sickassdrumlabel
//  #04 //013   ----------------------------------------
 BYTE   PATT
  POIN2 sickassdrumlabel
//  #04 //014   ----------------------------------------
 BYTE   PATT
  POIN2 sickassdrumlabel
//  #04 //015   ----------------------------------------
 BYTE   PATT
  POIN2 sickassdrumlabel
//  #04 //016   ----------------------------------------
 BYTE   PATT
  POIN2 sickassdrumlabel
//  #04 //017   ----------------------------------------
 BYTE   PATT
  POIN2 sickassdrumlabel
//  #04 //018   ----------------------------------------
 BYTE   PATT
  POIN2 sickassdrumlabel
//  #04 //019   ----------------------------------------
 BYTE   PATT
  POIN2 sickassdrumlabel
//  #04 //020   ----------------------------------------
 BYTE   PATT
  POIN2 sickassdrumlabel
//  #04 //021   ----------------------------------------
 BYTE   PATT
  POIN2 sickassdrumlabel
//  #04 //022   ----------------------------------------
 BYTE   PATT
  POIN2 sickassdrumlabel
//  #04 //023   ----------------------------------------
 BYTE   PATT
  POIN2 sickassdrumlabel
//  #04 //024   ----------------------------------------
 BYTE   PATT
  POIN2 sickassdrumlabel
//  #04 //025   ----------------------------------------
 BYTE   PATT
  POIN2 sickassdrumlabel
//  #04 //026   ----------------------------------------
 BYTE   PATT
  POIN2 sickassdrumlabel
//  #04 //027   ----------------------------------------
 BYTE   PATT
  POIN2 sickassdrumlabel
//  #04 //028   ----------------------------------------
 BYTE   VOICE   124
 BYTE   VOL   59*StickerbrushSymphonyAlt_mvl/mxv
Label_017BA8D2:
 BYTE   N23  Cn1  v080
 BYTE   N05  Fs1  v036
 BYTE   W06
 BYTE   N05
 BYTE   W06
 BYTE   N07  Fs1  v040
 BYTE   W03
 BYTE   W01
 BYTE   W01
 BYTE   W07
 BYTE   N17  Dn1  v080
 BYTE   W06
 BYTE   N05  Fs1  v036
 BYTE   W06
 BYTE   N07  Fs1  v040
 BYTE   W03
 BYTE   W01
 BYTE   W01
 BYTE   W01
 BYTE   N05  Cn1  v080
 BYTE   W06
 BYTE   N11  Fs1  v036
 BYTE   W06
 BYTE   N05  Cn1  v080
 BYTE   W06
 BYTE   N11
 BYTE   N05  Fs1  v036
 BYTE   W06
 BYTE   N03  Fs1  v040
 BYTE   W03
 BYTE   W01
 BYTE   W01
 BYTE   W01
 BYTE   N23  Dn1  v080
 BYTE   W06
 BYTE   N05  Fs1  v036
 BYTE   W06
 BYTE   N07  Fs1  v040
 BYTE   W03
 BYTE   W01
 BYTE   W01
 BYTE   W07
 BYTE   PEND 
//  #04 //029   ----------------------------------------
 BYTE   PATT
  POIN2 Label_017BA8D2
//  #04 //030   ----------------------------------------
 BYTE   PATT
  POIN2 Label_017BA8D2
//  #04 //031   ----------------------------------------
 BYTE   PATT
  POIN2 Label_017BA8D2
//  #04 //032   ----------------------------------------
 BYTE   PATT
  POIN2 Label_017BA8D2
//  #04 //033   ----------------------------------------
 BYTE   PATT
  POIN2 Label_017BA8D2
//  #04 //034   ----------------------------------------
 BYTE   PATT
  POIN2 Label_017BA8D2
//  #04 //035   ----------------------------------------
 BYTE   PATT
  POIN2 Label_017BA8D2
//  #04 //036   ----------------------------------------
 BYTE   PATT
  POIN2 Label_017BA8D2
//  #04 //037   ----------------------------------------
 BYTE   PATT
  POIN2 Label_017BA8D2
//  #04 //038   ----------------------------------------
 BYTE   PATT
  POIN2 Label_017BA8D2
//  #04 //039   ----------------------------------------
 BYTE   PATT
  POIN2 Label_017BA8D2
//  #04 //040   ----------------------------------------
 BYTE   PATT
  POIN2 Label_017BA8D2
//  #04 //041   ----------------------------------------
 BYTE   PATT
  POIN2 Label_017BA8D2
//  #04 //042   ----------------------------------------
 BYTE   PATT
  POIN2 Label_017BA8D2
//  #04 //043   ----------------------------------------
 BYTE   PATT
  POIN2 Label_017BA8D2
//  #04 //044   ----------------------------------------
 BYTE   PATT
  POIN2 Label_017BA8D2
//  #04 //045   ----------------------------------------
 BYTE   PATT
  POIN2 Label_017BA8D2
//  #04 //046   ----------------------------------------
 BYTE   PATT
  POIN2 Label_017BA8D2
//  #04 //047   ----------------------------------------
 BYTE   PATT
  POIN2 Label_017BA8D2
//  #04 //048   ----------------------------------------
 BYTE   N05  Fs1  v036
 BYTE   W06
 BYTE   N05
 BYTE   W06
 BYTE   N07  Fs1  v040
 BYTE   W03
 BYTE   W01
 BYTE   W01
 BYTE   W07
 BYTE   N05  Fs1  v032
 BYTE   W06
 BYTE   N05
 BYTE   W06
 BYTE   N07  Fs1  v040
 BYTE   W03
 BYTE   W01
 BYTE   W01
 BYTE   W07
 BYTE   N05  Fs1  v032
 BYTE   W06
 BYTE   N05
 BYTE   W06
 BYTE   N07  Fs1  v040
 BYTE   W03
 BYTE   W01
 BYTE   W01
 BYTE   W07
 BYTE   N05  Fs1  v032
 BYTE   W06
 BYTE   N05
 BYTE   W06
 BYTE   N07  Fs1  v036
 BYTE   W03
 BYTE   W01
 BYTE   W01
 BYTE   W07
//  #04 //049   ----------------------------------------
 BYTE   N05  Fs1  v032
 BYTE   W06
 BYTE   N05
 BYTE   W06
 BYTE   N07  Fs1  v036
 BYTE   W03
 BYTE   W01
 BYTE   W01
 BYTE   W07
 BYTE   N05  Fs1  v028
 BYTE   W06
 BYTE   N05
 BYTE   W06
 BYTE   N07  Fs1  v032
 BYTE   W03
 BYTE   W01
 BYTE   W01
 BYTE   W07
 BYTE   N05  Fs1  v028
 BYTE   W06
 BYTE   N05
 BYTE   W06
 BYTE   N07  Fs1  v032
 BYTE   W03
 BYTE   W01
 BYTE   W01
 BYTE   W07
 BYTE   N05  Fs1  v028
 BYTE   W06
 BYTE   N05
 BYTE   W06
 BYTE   N07  Fs1  v032
 BYTE   W03
 BYTE   W01
 BYTE   W01
 BYTE   W07
//  #04 //050   ----------------------------------------
 BYTE   N05  Fs1  v028
 BYTE   W06
 BYTE   Fs1  v024
 BYTE   W06
 BYTE   N07  Fs1  v028
 BYTE   W03
 BYTE   W01
 BYTE   W01
 BYTE   W07
 BYTE   N05  Fs1  v024
 BYTE   W06
 BYTE   N05
 BYTE   W06
 BYTE   N07  Fs1  v028
 BYTE   W03
 BYTE   W01
 BYTE   W01
 BYTE   W07
 BYTE   N05  Fs1  v024
 BYTE   W06
 BYTE   N05
 BYTE   W06
 BYTE   N07  Fs1  v028
 BYTE   W03
 BYTE   W01
 BYTE   W01
 BYTE   W07
 BYTE   N05  Fs1  v024
 BYTE   W06
 BYTE   N05
 BYTE   W06
 BYTE   N07  Fs1  v028
 BYTE   W03
 BYTE   W01
 BYTE   W01
 BYTE   W07
//  #04 //051   ----------------------------------------
 BYTE   N05  Fs1  v020
 BYTE   W06
 BYTE   N05
 BYTE   W06
 BYTE   N07  Fs1  v024
 BYTE   W03
 BYTE   W01
 BYTE   W01
 BYTE   W07
 BYTE   N05  Fs1  v020
 BYTE   W06
 BYTE   N05
 BYTE   W06
 BYTE   N07  Fs1  v024
 BYTE   W03
 BYTE   W01
 BYTE   W01
 BYTE   W07
 BYTE   N05  Fs1  v020
 BYTE   W06
 BYTE   N05
 BYTE   W06
 BYTE   N07  Fs1  v024
 BYTE   W03
 BYTE   W01
 BYTE   W01
 BYTE   W07
 BYTE   N05  Fs1  v020
 BYTE   W06
 BYTE   N05
 BYTE   W06
 BYTE   N07
 BYTE   W03
 BYTE   W01
 BYTE   W01
 BYTE   W07
//  #04 //052   ----------------------------------------
 BYTE   W96
//  #04 //053   ----------------------------------------
 BYTE   W96
//  #04 //054   ----------------------------------------
 BYTE   W96
//  #04 //055   ----------------------------------------
 BYTE   W96
//  #04 //056   ----------------------------------------
 BYTE   W96
//  #04 //057   ----------------------------------------
 BYTE   W96
//  #04 //058   ----------------------------------------
 BYTE   W96
//  #04 //059   ----------------------------------------
 BYTE   W96
//  #04 //060   ----------------------------------------
 BYTE   GoTo
  POIN2 Label_017BA8BE
//  #04 //061   ----------------------------------------
 BYTE   W96
 BYTE   FINE

//**************** Track 5 (Midi-Chn.4) ****************//

StickerbrushSymphonyAlt_005:
//  #05 //000   ----------------------------------------
 BYTE   KEYSH   StickerbrushSymphonyAlt_key+0
 BYTE   VOICE   81
 BYTE   VOL   39*StickerbrushSymphonyAlt_mvl/mxv
 BYTE   PAN   c_v+0
 BYTE   W96
//  #05 //001   ----------------------------------------
 BYTE   W96
//  #05 //002   ----------------------------------------
 BYTE   W96
//  #05 //003   ----------------------------------------
 BYTE   W96
//  #05 //004   ----------------------------------------
 BYTE   W96
//  #05 //005   ----------------------------------------
 BYTE   W96
//  #05 //006   ----------------------------------------
 BYTE   W96
//  #05 //007   ----------------------------------------
 BYTE   W96
//  #05 //008   ----------------------------------------
Label_017BAA66:
 BYTE   W96
//  #05 //009   ----------------------------------------
 BYTE   W96
//  #05 //010   ----------------------------------------
 BYTE   W96
//  #05 //011   ----------------------------------------
 BYTE   W96
//  #05 //012   ----------------------------------------
 BYTE   W96
//  #05 //013   ----------------------------------------
 BYTE   W96
//  #05 //014   ----------------------------------------
 BYTE   W96
//  #05 //015   ----------------------------------------
 BYTE   W96
//  #05 //016   ----------------------------------------
 BYTE   W84
 BYTE   N11  En4  v080
 BYTE   W12
//  #05 //017   ----------------------------------------
Label_017BAA73:
 BYTE   N80  Dn4  v080
 BYTE   W84
 BYTE   N11  Gn4
 BYTE   W12
 BYTE   PEND 
//  #05 //018   ----------------------------------------
 BYTE   N44
 BYTE   W48
 BYTE   N15
 BYTE   W16
 BYTE   Fn4
 BYTE   W16
 BYTE   En4
 BYTE   W16
//  #05 //019   ----------------------------------------
 BYTE   N32  Dn4
 BYTE   W36
 BYTE   N05  En4
 BYTE   W06
 BYTE   Dn4
 BYTE   W06
 BYTE   N15  Cn4
 BYTE   W16
 BYTE   Bn3
 BYTE   W16
 BYTE   Cn4
 BYTE   W16
//  #05 //020   ----------------------------------------
 BYTE   N44  An4
 BYTE   W60
 BYTE   N23
 BYTE   W24
 BYTE   N11  En4
 BYTE   W12
//  #05 //021   ----------------------------------------
 BYTE   PATT
  POIN2 Label_017BAA73
//  #05 //022   ----------------------------------------
 BYTE   N44  Gn4  v080
 BYTE   W48
 BYTE   N15
 BYTE   W16
 BYTE   An4
 BYTE   W16
 BYTE   Bn4
 BYTE   W16
//  #05 //023   ----------------------------------------
 BYTE   N23
 BYTE   W24
 BYTE   N11  Cn5
 BYTE   W12
 BYTE   N23  Bn4
 BYTE   W24
 BYTE   Gn4
 BYTE   W24
 BYTE   N11  En4
 BYTE   W12
//  #05 //024   ----------------------------------------
 BYTE   N44  An4
 BYTE   W96
//  #05 //025   ----------------------------------------
Label_017BAAB9:
 BYTE   W36
 BYTE   N11  Cn4  v080
 BYTE   W12
 BYTE   N15  Bn3
 BYTE   W16
 BYTE   Cn4
 BYTE   W16
 BYTE   En4
 BYTE   W16
 BYTE   PEND 
//  #05 //026   ----------------------------------------
 BYTE   N32  An4
 BYTE   W96
//  #05 //027   ----------------------------------------
 BYTE   W96
//  #05 //028   ----------------------------------------
 BYTE   W96
//  #05 //029   ----------------------------------------
 BYTE   W96
//  #05 //030   ----------------------------------------
 BYTE   W96
//  #05 //031   ----------------------------------------
 BYTE   W96
//  #05 //032   ----------------------------------------
 BYTE   W96
//  #05 //033   ----------------------------------------
 BYTE   W96
//  #05 //034   ----------------------------------------
 BYTE   W96
//  #05 //035   ----------------------------------------
 BYTE   W96
//  #05 //036   ----------------------------------------
 BYTE   W96
//  #05 //037   ----------------------------------------
 BYTE   W96
//  #05 //038   ----------------------------------------
 BYTE   W96
//  #05 //039   ----------------------------------------
 BYTE   W96
//  #05 //040   ----------------------------------------
 BYTE   W96
//  #05 //041   ----------------------------------------
 BYTE   W96
//  #05 //042   ----------------------------------------
 BYTE   W96
//  #05 //043   ----------------------------------------
 BYTE   W96
//  #05 //044   ----------------------------------------
 BYTE   W96
//  #05 //045   ----------------------------------------
 BYTE   PATT
  POIN2 Label_017BAAB9
//  #05 //046   ----------------------------------------
 BYTE   N32  An4  v080
 BYTE   W96
//  #05 //047   ----------------------------------------
 BYTE   W96
//  #05 //048   ----------------------------------------
 BYTE   W96
//  #05 //049   ----------------------------------------
 BYTE   PATT
  POIN2 Label_017BAAB9
//  #05 //050   ----------------------------------------
 BYTE   N32  An4  v080
 BYTE   W96
//  #05 //051   ----------------------------------------
 BYTE   W96
//  #05 //052   ----------------------------------------
 BYTE   W96
//  #05 //053   ----------------------------------------
 BYTE   W96
//  #05 //054   ----------------------------------------
 BYTE   W96
//  #05 //055   ----------------------------------------
 BYTE   W96
//  #05 //056   ----------------------------------------
 BYTE   W96
//  #05 //057   ----------------------------------------
 BYTE   W96
//  #05 //058   ----------------------------------------
 BYTE   W96
//  #05 //059   ----------------------------------------
 BYTE   W96
//  #05 //060   ----------------------------------------
 BYTE   GoTo
  POIN2 Label_017BAA66
//  #05 //061   ----------------------------------------
 BYTE   W96
 BYTE   FINE

//**************** Track 6 (Midi-Chn.5) ****************//

StickerbrushSymphonyAlt_006:
//  #06 //000   ----------------------------------------
 BYTE   KEYSH   StickerbrushSymphonyAlt_key+0
 BYTE   VOICE   81
 BYTE   VOL   39*StickerbrushSymphonyAlt_mvl/mxv
 BYTE   PAN   c_v+0
 BYTE   W96
//  #06 //001   ----------------------------------------
 BYTE   W96
//  #06 //002   ----------------------------------------
 BYTE   W96
//  #06 //003   ----------------------------------------
 BYTE   W96
//  #06 //004   ----------------------------------------
Label_017BAB0B:
 BYTE   W06
 BYTE   N02  Cn3  v036
 BYTE   N02  En3
 BYTE   W06
 BYTE   N05  Cn3
 BYTE   N05  En3
 BYTE   W11
 BYTE   W01
 BYTE   N02  Cn3
 BYTE   N02  En3
 BYTE   W05
 BYTE   W01
 BYTE   N05  Cn3  v040
 BYTE   N05  En3
 BYTE   W05
 BYTE   W06
 BYTE   W01
 BYTE   N02  Cn3
 BYTE   N02  En3
 BYTE   W04
 BYTE   W06
 BYTE   W02
 BYTE   N05  Cn3  v044
 BYTE   N05  En3
 BYTE   W04
 BYTE   W06
 BYTE   W02
 BYTE   N02  Cn3
 BYTE   N02  En3
 BYTE   W04
 BYTE   W02
 BYTE   N05  Cn3
 BYTE   N05  En3
 BYTE   W03
 BYTE   W06
 BYTE   W03
 BYTE   N02  Cn3  v048
 BYTE   N02  En3
 BYTE   W03
 BYTE   W03
 BYTE   Cn3
 BYTE   N02  En3
 BYTE   W03
 BYTE   W03
 BYTE   PEND 
//  #06 //005   ----------------------------------------
Label_017BAB4F:
 BYTE   W03
 BYTE   W03
 BYTE   N02  En3  v052
 BYTE   N02  Gn3
 BYTE   W02
 BYTE   W04
 BYTE   N05  En3
 BYTE   N05  Gn3
 BYTE   W02
 BYTE   W06
 BYTE   W04
 BYTE   N02  En3
 BYTE   N02  Gn3
 BYTE   W02
 BYTE   W04
 BYTE   N05  En3  v056
 BYTE   N05  Gn3
 BYTE   W02
 BYTE   W05
 BYTE   W05
 BYTE   N02  En3
 BYTE   N02  Gn3
 BYTE   W01
 BYTE   W06
 BYTE   W05
 BYTE   N05  En3  v060
 BYTE   N05  Gn3
 BYTE   W01
 BYTE   W06
 BYTE   W05
 BYTE   N02  En3
 BYTE   N02  Gn3
 BYTE   W06
 BYTE   N05  En3
 BYTE   N05  Gn3
 BYTE   W06
 BYTE   W06
 BYTE   N02  En3  v064
 BYTE   N02  Gn3
 BYTE   W06
 BYTE   En3
 BYTE   N02  Gn3
 BYTE   W05
 BYTE   W01
 BYTE   PEND 
//  #06 //006   ----------------------------------------
Label_017BAB93:
 BYTE   W06
 BYTE   N02  Cn4  v064
 BYTE   N02  En4
 BYTE   W06
 BYTE   N05  Cn4
 BYTE   N05  En4
 BYTE   W12
 BYTE   N02  Cn4  v060
 BYTE   N02  En4
 BYTE   W06
 BYTE   N05  Cn4
 BYTE   N05  En4
 BYTE   W12
 BYTE   N02  Cn4
 BYTE   N02  En4
 BYTE   W12
 BYTE   N05  Cn4  v056
 BYTE   N05  En4
 BYTE   W12
 BYTE   N02  Cn4
 BYTE   N02  En4
 BYTE   W06
 BYTE   N05  Cn4  v052
 BYTE   N05  En4
 BYTE   W12
 BYTE   N02  Cn4
 BYTE   N02  En4
 BYTE   W06
 BYTE   Cn4
 BYTE   N02  En4
 BYTE   W06
 BYTE   PEND 
//  #06 //007   ----------------------------------------
Label_017BABCA:
 BYTE   W06
 BYTE   N02  En4  v048
 BYTE   N02  Gn4
 BYTE   W06
 BYTE   N05  En4
 BYTE   N05  Gn4
 BYTE   W12
 BYTE   N02  En4  v044
 BYTE   N02  Gn4
 BYTE   W06
 BYTE   N05  En4
 BYTE   N05  Gn4
 BYTE   W12
 BYTE   N02  En4
 BYTE   N02  Gn4
 BYTE   W12
 BYTE   N05  En4  v040
 BYTE   N05  Gn4
 BYTE   W12
 BYTE   N02  En4
 BYTE   N02  Gn4
 BYTE   W06
 BYTE   N05  En4  v036
 BYTE   N05  Gn4
 BYTE   W12
 BYTE   N02  En4
 BYTE   N02  Gn4
 BYTE   W06
 BYTE   En4
 BYTE   N02  Gn4
 BYTE   W06
 BYTE   PEND 
//  #06 //008   ----------------------------------------
Label_017BAC01:
 BYTE   W60
 BYTE   N11  Bn3  v080
 BYTE   W02
 BYTE   W02
 BYTE   W02
 BYTE   W03
 BYTE   W02
 BYTE   W01
 BYTE   Cn4  v088
 BYTE   W01
 BYTE   W02
 BYTE   W03
 BYTE   W02
 BYTE   W02
 BYTE   W02
 BYTE   Gn4  v092
 BYTE   W03
 BYTE   W02
 BYTE   W02
 BYTE   W02
 BYTE   W03
 BYTE   PEND 
//  #06 //009   ----------------------------------------
 BYTE   Gn4  v096
 BYTE   W12
 BYTE   Bn3  v092
 BYTE   W12
 BYTE   Cn4  v088
 BYTE   W12
 BYTE   Gn4  v084
 BYTE   W12
 BYTE   N44  Gn4  v080
 BYTE   W48
//  #06 //010   ----------------------------------------
 BYTE   W60
 BYTE   N11  Gn4  v096
 BYTE   W12
 BYTE   An4
 BYTE   W12
 BYTE   TIE  En4
 BYTE   W12
//  #06 //011   ----------------------------------------
 BYTE   W90
 BYTE   EOT
 BYTE   W06
//  #06 //012   ----------------------------------------
 BYTE   W60
 BYTE   N11  Bn4  v080
 BYTE   W02
 BYTE   W02
 BYTE   W02
 BYTE   W03
 BYTE   W02
 BYTE   W01
 BYTE   Cn5  v088
 BYTE   W01
 BYTE   W02
 BYTE   W03
 BYTE   W02
 BYTE   W02
 BYTE   W02
 BYTE   Gn5  v092
 BYTE   W03
 BYTE   W02
 BYTE   W02
 BYTE   W02
 BYTE   W03
//  #06 //013   ----------------------------------------
 BYTE   Gn5  v096
 BYTE   W06
 BYTE   W06
 BYTE   Bn4  v092
 BYTE   W06
 BYTE   W06
 BYTE   Cn5  v088
 BYTE   W06
 BYTE   W06
 BYTE   Gn5  v084
 BYTE   W06
 BYTE   W06
 BYTE   N44  Gn5  v080
 BYTE   W06
 BYTE   W06
 BYTE   W06
 BYTE   W06
 BYTE   W06
 BYTE   W06
 BYTE   W06
 BYTE   W06
//  #06 //014   ----------------------------------------
 BYTE   W36
 BYTE   N11  Cn6
 BYTE   W02
 BYTE   W02
 BYTE   W02
 BYTE   W03
 BYTE   W02
 BYTE   W01
 BYTE   Bn5  v088
 BYTE   W01
 BYTE   W02
 BYTE   W03
 BYTE   W02
 BYTE   W02
 BYTE   W02
 BYTE   Gn5  v092
 BYTE   W03
 BYTE   W02
 BYTE   W02
 BYTE   W02
 BYTE   W03
 BYTE   En5  v096
 BYTE   W12
 BYTE   An5  v088
 BYTE   W12
//  #06 //015   ----------------------------------------
 BYTE   N90  An5  v080
 BYTE   W96
//  #06 //016   ----------------------------------------
 BYTE   W96
//  #06 //017   ----------------------------------------
 BYTE   W96
//  #06 //018   ----------------------------------------
 BYTE   W96
//  #06 //019   ----------------------------------------
 BYTE   W96
//  #06 //020   ----------------------------------------
 BYTE   W96
//  #06 //021   ----------------------------------------
 BYTE   W12
 BYTE   N22  An4  v096
 BYTE   W24
 BYTE   N11  En4
 BYTE   W12
 BYTE   N44  Dn4
 BYTE   W48
//  #06 //022   ----------------------------------------
 BYTE   W96
//  #06 //023   ----------------------------------------
 BYTE   W96
//  #06 //024   ----------------------------------------
Label_017BACA0:
 BYTE   W48
 BYTE   N15  Cn4  v096
 BYTE   W16
 BYTE   Dn4
 BYTE   W16
 BYTE   En4
 BYTE   W16
 BYTE   PEND 
//  #06 //025   ----------------------------------------
 BYTE   N90  Gn4
 BYTE   W96
//  #06 //026   ----------------------------------------
Label_017BACAD:
 BYTE   W36
 BYTE   N11  Cn4  v096
 BYTE   W12
 BYTE   N15  An3
 BYTE   W16
 BYTE   Bn3
 BYTE   W16
 BYTE   Cn4
 BYTE   W16
 BYTE   PEND 
//  #06 //027   ----------------------------------------
Label_017BACBA:
 BYTE   N22  En4  v096
 BYTE   W24
 BYTE   N11  Fn4
 BYTE   W12
 BYTE   N22  En4
 BYTE   W24
 BYTE   Dn4
 BYTE   W24
 BYTE   N11  Cn4
 BYTE   W12
 BYTE   PEND 
//  #06 //028   ----------------------------------------
 BYTE   N90  En4
 BYTE   W96
//  #06 //029   ----------------------------------------
 BYTE   W96
//  #06 //030   ----------------------------------------
 BYTE   W96
//  #06 //031   ----------------------------------------
 BYTE   W96
//  #06 //032   ----------------------------------------
 BYTE   PATT
  POIN2 Label_017BAB0B
//  #06 //033   ----------------------------------------
 BYTE   PATT
  POIN2 Label_017BAB4F
//  #06 //034   ----------------------------------------
 BYTE   PATT
  POIN2 Label_017BAB93
//  #06 //035   ----------------------------------------
 BYTE   PATT
  POIN2 Label_017BABCA
//  #06 //036   ----------------------------------------
 BYTE   W48
 BYTE   N11  Dn4  v096
 BYTE   W12
 BYTE   En4  v092
 BYTE   W12
 BYTE   Dn4  v088
 BYTE   W12
 BYTE   N05  Cn4  v080
 BYTE   W06
 BYTE   N17  Dn4
 BYTE   W06
//  #06 //037   ----------------------------------------
 BYTE   W12
 BYTE   N11  En4  v072
 BYTE   W12
 BYTE   Dn4  v064
 BYTE   W12
 BYTE   N05  Cn4  v060
 BYTE   W06
 BYTE   N17  Dn4  v056
 BYTE   W18
 BYTE   N11  En4  v048
 BYTE   W12
 BYTE   Dn4  v044
 BYTE   W12
 BYTE   N05  Cn4  v036
 BYTE   W06
 BYTE   Dn4
 BYTE   W06
//  #06 //038   ----------------------------------------
 BYTE   W48
 BYTE   N11  Dn4  v096
 BYTE   W12
 BYTE   En4
 BYTE   W12
 BYTE   Gn4
 BYTE   W12
 BYTE   En4
 BYTE   W12
//  #06 //039   ----------------------------------------
 BYTE   N32  Dn4
 BYTE   W36
 BYTE   N05  En4
 BYTE   W06
 BYTE   Dn4
 BYTE   W06
 BYTE   N22  Cn4
 BYTE   W24
 BYTE   N11  Bn3
 BYTE   W12
 BYTE   Cn4
 BYTE   W12
//  #06 //040   ----------------------------------------
 BYTE   N56  An4
 BYTE   W60
 BYTE   N22
 BYTE   W24
 BYTE   N11  En4
 BYTE   W12
//  #06 //041   ----------------------------------------
 BYTE   N78  Dn4
 BYTE   W84
 BYTE   N11  Gn4
 BYTE   W12
//  #06 //042   ----------------------------------------
 BYTE   N44
 BYTE   W48
 BYTE   N15
 BYTE   W16
 BYTE   An4
 BYTE   W16
 BYTE   Bn4
 BYTE   W16
//  #06 //043   ----------------------------------------
 BYTE   N22
 BYTE   W24
 BYTE   N11  Cn5
 BYTE   W12
 BYTE   N22  Bn4
 BYTE   W24
 BYTE   N11  Gn4
 BYTE   W12
 BYTE   En4
 BYTE   W12
 BYTE   N56  An4
 BYTE   W12
//  #06 //044   ----------------------------------------
 BYTE   PATT
  POIN2 Label_017BACA0
//  #06 //045   ----------------------------------------
 BYTE   N90  Gn4  v096
 BYTE   W96
//  #06 //046   ----------------------------------------
 BYTE   PATT
  POIN2 Label_017BACAD
//  #06 //047   ----------------------------------------
 BYTE   PATT
  POIN2 Label_017BACBA
//  #06 //048   ----------------------------------------
 BYTE   N44  En4  v096
 BYTE   W48
 BYTE   N15  Cn4
 BYTE   W16
 BYTE   Dn4
 BYTE   W16
 BYTE   En4
 BYTE   W16
//  #06 //049   ----------------------------------------
 BYTE   N90  Gn4
 BYTE   W96
//  #06 //050   ----------------------------------------
 BYTE   PATT
  POIN2 Label_017BACAD
//  #06 //051   ----------------------------------------
 BYTE   N22  En4  v096
 BYTE   W24
 BYTE   N11  Fn4
 BYTE   W12
 BYTE   N22  En4
 BYTE   W24
 BYTE   N11  Fn4
 BYTE   W12
 BYTE   N22  Dn4
 BYTE   W24
//  #06 //052   ----------------------------------------
 BYTE   W96
//  #06 //053   ----------------------------------------
 BYTE   W96
//  #06 //054   ----------------------------------------
 BYTE   W96
//  #06 //055   ----------------------------------------
 BYTE   W96
//  #06 //056   ----------------------------------------
 BYTE   PATT
  POIN2 Label_017BAB0B
//  #06 //057   ----------------------------------------
 BYTE   PATT
  POIN2 Label_017BAB4F
//  #06 //058   ----------------------------------------
 BYTE   PATT
  POIN2 Label_017BAB93
//  #06 //059   ----------------------------------------
 BYTE   PATT
  POIN2 Label_017BABCA
//  #06 //060   ----------------------------------------
 BYTE   GoTo
  POIN2 Label_017BAC01
//  #06 //061   ----------------------------------------
 BYTE   PATT
  POIN2 Label_017BAC01
 BYTE   FINE

//**************** Track 7 (Midi-Chn.6) ****************//

StickerbrushSymphonyAlt_007:
//  #07 //000   ----------------------------------------
 BYTE   KEYSH   StickerbrushSymphonyAlt_key+0
 BYTE   VOICE   28
 BYTE   VOL   39*StickerbrushSymphonyAlt_mvl/mxv
 BYTE   PAN   c_v+0
 BYTE   W12
 BYTE   N05  Bn3  v064
 BYTE   W12
 BYTE   N08  Cn4
 BYTE   W18
 BYTE   Bn3
 BYTE   W18
 BYTE   N05  Cn4
 BYTE   W12
 BYTE   N11  Gn3
 BYTE   W24
//  #07 //001   ----------------------------------------
Label_017BADC5:
 BYTE   W12
 BYTE   N05  Bn3  v064
 BYTE   W12
 BYTE   N08  Cn4
 BYTE   W18
 BYTE   Bn3
 BYTE   W18
 BYTE   N05  Cn4
 BYTE   W12
 BYTE   N11  Gn3
 BYTE   W24
 BYTE   PEND 
//  #07 //002   ----------------------------------------
 BYTE   PATT
  POIN2 Label_017BADC5
//  #07 //003   ----------------------------------------
Label_017BADDB:
 BYTE   W12
 BYTE   N05  Bn3  v064
 BYTE   W12
 BYTE   N08  Cn4
 BYTE   W18
 BYTE   Bn3
 BYTE   W18
 BYTE   N05  Cn4
 BYTE   W12
 BYTE   Gn3
 BYTE   W12
 BYTE   N02  Gn4
 BYTE   W06
 BYTE   N02
 BYTE   W06
 BYTE   PEND 
//  #07 //004   ----------------------------------------
 BYTE   PATT
  POIN2 Label_017BADC5
//  #07 //005   ----------------------------------------
 BYTE   PATT
  POIN2 Label_017BADC5
//  #07 //006   ----------------------------------------
 BYTE   PATT
  POIN2 Label_017BADC5
//  #07 //007   ----------------------------------------
 BYTE   PATT
  POIN2 Label_017BADDB
//  #07 //008   ----------------------------------------
Label_017BAE04:
//  #07 //009   ----------------------------------------
 BYTE   PATT
  POIN2 Label_017BADC5
//  #07 //010   ----------------------------------------
 BYTE   PATT
  POIN2 Label_017BADC5
//  #07 //011   ----------------------------------------
 BYTE   PATT
  POIN2 Label_017BADC5
//  #07 //012   ----------------------------------------
 BYTE   PATT
  POIN2 Label_017BADDB
//  #07 //013   ----------------------------------------
 BYTE   PATT
  POIN2 Label_017BADC5
//  #07 //014   ----------------------------------------
 BYTE   PATT
  POIN2 Label_017BADC5
//  #07 //015   ----------------------------------------
 BYTE   PATT
  POIN2 Label_017BADC5
//  #07 //016   ----------------------------------------
 BYTE   PATT
  POIN2 Label_017BADDB
//  #07 //017   ----------------------------------------
 BYTE   PATT
  POIN2 Label_017BADC5
//  #07 //018   ----------------------------------------
 BYTE   PATT
  POIN2 Label_017BADC5
//  #07 //019   ----------------------------------------
 BYTE   PATT
  POIN2 Label_017BADC5
//  #07 //020   ----------------------------------------
 BYTE   PATT
  POIN2 Label_017BADDB
//  #07 //021   ----------------------------------------
 BYTE   PATT
  POIN2 Label_017BADC5
//  #07 //022   ----------------------------------------
 BYTE   PATT
  POIN2 Label_017BADC5
//  #07 //023   ----------------------------------------
 BYTE   PATT
  POIN2 Label_017BADC5
//  #07 //024   ----------------------------------------
 BYTE   PATT
  POIN2 Label_017BADDB
//  #07 //025   ----------------------------------------
 BYTE   PATT
  POIN2 Label_017BADC5
//  #07 //026   ----------------------------------------
 BYTE   PATT
  POIN2 Label_017BADC5
//  #07 //027   ----------------------------------------
 BYTE   PATT
  POIN2 Label_017BADC5
//  #07 //028   ----------------------------------------
 BYTE   PATT
  POIN2 Label_017BADDB
//  #07 //029   ----------------------------------------
 BYTE   PATT
  POIN2 Label_017BADC5
//  #07 //030   ----------------------------------------
 BYTE   PATT
  POIN2 Label_017BADC5
//  #07 //031   ----------------------------------------
 BYTE   PATT
  POIN2 Label_017BADC5
//  #07 //032   ----------------------------------------
 BYTE   PATT
  POIN2 Label_017BADDB
//  #07 //033   ----------------------------------------
 BYTE   PATT
  POIN2 Label_017BADC5
//  #07 //034   ----------------------------------------
 BYTE   PATT
  POIN2 Label_017BADC5
//  #07 //035   ----------------------------------------
 BYTE   PATT
  POIN2 Label_017BADC5
//  #07 //036   ----------------------------------------
 BYTE   PATT
  POIN2 Label_017BADDB
//  #07 //037   ----------------------------------------
 BYTE   PATT
  POIN2 Label_017BADC5
//  #07 //038   ----------------------------------------
 BYTE   PATT
  POIN2 Label_017BADC5
//  #07 //039   ----------------------------------------
 BYTE   PATT
  POIN2 Label_017BADC5
//  #07 //040   ----------------------------------------
 BYTE   PATT
  POIN2 Label_017BADDB
//  #07 //041   ----------------------------------------
 BYTE   PATT
  POIN2 Label_017BADC5
//  #07 //042   ----------------------------------------
 BYTE   PATT
  POIN2 Label_017BADC5
//  #07 //043   ----------------------------------------
 BYTE   PATT
  POIN2 Label_017BADC5
//  #07 //044   ----------------------------------------
 BYTE   PATT
  POIN2 Label_017BADDB
//  #07 //045   ----------------------------------------
 BYTE   PATT
  POIN2 Label_017BADC5
//  #07 //046   ----------------------------------------
 BYTE   PATT
  POIN2 Label_017BADC5
//  #07 //047   ----------------------------------------
 BYTE   PATT
  POIN2 Label_017BADC5
//  #07 //048   ----------------------------------------
 BYTE   PATT
  POIN2 Label_017BADDB
//  #07 //049   ----------------------------------------
 BYTE   PATT
  POIN2 Label_017BADC5
//  #07 //050   ----------------------------------------
 BYTE   PATT
  POIN2 Label_017BADC5
//  #07 //051   ----------------------------------------
 BYTE   PATT
  POIN2 Label_017BADC5
//  #07 //052   ----------------------------------------
 BYTE   PATT
  POIN2 Label_017BADDB
//  #07 //053   ----------------------------------------
 BYTE   PATT
  POIN2 Label_017BADC5
//  #07 //054   ----------------------------------------
 BYTE   PATT
  POIN2 Label_017BADC5
//  #07 //055   ----------------------------------------
 BYTE   PATT
  POIN2 Label_017BADC5
//  #07 //056   ----------------------------------------
 BYTE   PATT
  POIN2 Label_017BADDB
//  #07 //057   ----------------------------------------
 BYTE   PATT
  POIN2 Label_017BADC5
//  #07 //058   ----------------------------------------
 BYTE   PATT
  POIN2 Label_017BADC5
//  #07 //059   ----------------------------------------
 BYTE   PATT
  POIN2 Label_017BADC5
//  #07 //060   ----------------------------------------
 BYTE   PATT
  POIN2 Label_017BADDB
//  #07 //061   ----------------------------------------
 BYTE   GoTo
  POIN2 Label_017BAE04
//  #07 //062   ----------------------------------------
 BYTE   PATT
  POIN2 Label_017BADC5
 BYTE   FINE

//**************** Track 8 (Midi-Chn.7) ****************//

StickerbrushSymphonyAlt_008:
//  #08 //000   ----------------------------------------
 BYTE   KEYSH   StickerbrushSymphonyAlt_key+0
 BYTE   VOICE   38
 BYTE   VOL   39*StickerbrushSymphonyAlt_mvl/mxv
 BYTE   PAN   c_v+0
 BYTE   W96
//  #08 //001   ----------------------------------------
 BYTE   W96
//  #08 //002   ----------------------------------------
 BYTE   W96
//  #08 //003   ----------------------------------------
 BYTE   W96
//  #08 //004   ----------------------------------------
 BYTE   W96
//  #08 //005   ----------------------------------------
 BYTE   W96
//  #08 //006   ----------------------------------------
 BYTE   W96
//  #08 //007   ----------------------------------------
 BYTE   W96
//  #08 //008   ----------------------------------------
Label_017BAF23:
 BYTE   N05  Fn0  v064
 BYTE   W01
 BYTE   W02
 BYTE   W01
 BYTE   W02
 BYTE   Fn0  v068
 BYTE   W01
 BYTE   W02
 BYTE   W01
 BYTE   W02
 BYTE   Fn0  v072
 BYTE   W01
 BYTE   W02
 BYTE   W01
 BYTE   W02
 BYTE   Fn0  v076
 BYTE   W01
 BYTE   W02
 BYTE   W01
 BYTE   W02
 BYTE   Fn0  v080
 BYTE   W01
 BYTE   W02
 BYTE   W01
 BYTE   W02
 BYTE   Fn0  v084
 BYTE   W01
 BYTE   W02
 BYTE   W01
 BYTE   W02
 BYTE   Fn0  v088
 BYTE   W01
 BYTE   W02
 BYTE   W01
 BYTE   W02
 BYTE   Fn0  v092
 BYTE   W01
 BYTE   W02
 BYTE   W01
 BYTE   W02
 BYTE   Fn0  v096
 BYTE   W01
 BYTE   W02
 BYTE   W01
 BYTE   W02
 BYTE   Fn0  v100
 BYTE   W01
 BYTE   W02
 BYTE   W01
 BYTE   W02
 BYTE   Fn0  v104
 BYTE   W01
 BYTE   W02
 BYTE   W01
 BYTE   W02
 BYTE   Fn0  v108
 BYTE   W01
 BYTE   W02
 BYTE   W01
 BYTE   W02
 BYTE   Fn1  v112
 BYTE   W01
 BYTE   W01
 BYTE   W01
 BYTE   W01
 BYTE   W01
 BYTE   W01
 BYTE   Fn0  v100
 BYTE   W01
 BYTE   W01
 BYTE   W01
 BYTE   W01
 BYTE   W01
 BYTE   W01
 BYTE   W01
 BYTE   W01
 BYTE   W01
 BYTE   W01
 BYTE   W01
 BYTE   W01
 BYTE   FnM1  v076
 BYTE   W01
 BYTE   W01
 BYTE   W01
 BYTE   W01
 BYTE   W01
 BYTE   W01
 BYTE   PEND 
//  #08 //009   ----------------------------------------
Label_017BAF8B:
 BYTE   N05  Bn0  v064
 BYTE   W02
 BYTE   W02
 BYTE   W02
 BYTE   Bn0  v068
 BYTE   W03
 BYTE   W02
 BYTE   W01
 BYTE   Bn0  v072
 BYTE   W01
 BYTE   W02
 BYTE   W03
 BYTE   N05
 BYTE   W02
 BYTE   W02
 BYTE   W02
 BYTE   Bn0  v076
 BYTE   W03
 BYTE   W02
 BYTE   W01
 BYTE   Bn0  v080
 BYTE   W01
 BYTE   W02
 BYTE   W03
 BYTE   N05
 BYTE   W02
 BYTE   W02
 BYTE   W02
 BYTE   Bn0  v084
 BYTE   W03
 BYTE   W02
 BYTE   W01
 BYTE   Bn0  v088
 BYTE   W01
 BYTE   W02
 BYTE   W03
 BYTE   N05
 BYTE   W02
 BYTE   W02
 BYTE   W02
 BYTE   Bn0  v092
 BYTE   W03
 BYTE   W02
 BYTE   W01
 BYTE   Bn0  v096
 BYTE   W01
 BYTE   W02
 BYTE   W03
 BYTE   Bn1
 BYTE   W01
 BYTE   W01
 BYTE   W01
 BYTE   W01
 BYTE   W01
 BYTE   W01
 BYTE   Bn0  v088
 BYTE   W01
 BYTE   W01
 BYTE   W01
 BYTE   W01
 BYTE   W01
 BYTE   W01
 BYTE   W01
 BYTE   W01
 BYTE   W01
 BYTE   W01
 BYTE   W01
 BYTE   W01
 BYTE   BnM1  v072
 BYTE   W01
 BYTE   W01
 BYTE   W01
 BYTE   W01
 BYTE   W01
 BYTE   W01
 BYTE   PEND 
//  #08 //010   ----------------------------------------
Label_017BAFE3:
 BYTE   N05  En0  v064
 BYTE   W02
 BYTE   W02
 BYTE   W02
 BYTE   En0  v068
 BYTE   W03
 BYTE   W02
 BYTE   W01
 BYTE   En0  v072
 BYTE   W01
 BYTE   W02
 BYTE   W03
 BYTE   N05
 BYTE   W02
 BYTE   W02
 BYTE   W02
 BYTE   En0  v076
 BYTE   W03
 BYTE   W02
 BYTE   W01
 BYTE   En0  v080
 BYTE   W01
 BYTE   W02
 BYTE   W03
 BYTE   N05
 BYTE   W02
 BYTE   W02
 BYTE   W02
 BYTE   En0  v084
 BYTE   W03
 BYTE   W02
 BYTE   W01
 BYTE   En0  v088
 BYTE   W01
 BYTE   W02
 BYTE   W03
 BYTE   N05
 BYTE   W02
 BYTE   W02
 BYTE   W02
 BYTE   En0  v092
 BYTE   W03
 BYTE   W02
 BYTE   W01
 BYTE   En0  v096
 BYTE   W01
 BYTE   W02
 BYTE   W03
 BYTE   En1
 BYTE   W01
 BYTE   W01
 BYTE   W01
 BYTE   W01
 BYTE   W01
 BYTE   W01
 BYTE   En0  v088
 BYTE   W01
 BYTE   W01
 BYTE   W01
 BYTE   W01
 BYTE   W01
 BYTE   W01
 BYTE   W01
 BYTE   W01
 BYTE   W01
 BYTE   W01
 BYTE   W01
 BYTE   W01
 BYTE   EnM1  v072
 BYTE   W01
 BYTE   W01
 BYTE   W01
 BYTE   W01
 BYTE   W01
 BYTE   W01
 BYTE   PEND 
//  #08 //011   ----------------------------------------
Label_017BB03B:
 BYTE   N05  An0  v064
 BYTE   W06
 BYTE   An0  v068
 BYTE   W06
 BYTE   N05
 BYTE   W06
 BYTE   An0  v072
 BYTE   W06
 BYTE   N05
 BYTE   W06
 BYTE   An0  v076
 BYTE   W06
 BYTE   An1
 BYTE   W06
 BYTE   An1  v080
 BYTE   W06
 BYTE   Gn0  v084
 BYTE   W06
 BYTE   N05
 BYTE   W06
 BYTE   Gn0  v088
 BYTE   W06
 BYTE   N05
 BYTE   W06
 BYTE   Gn0  v092
 BYTE   W06
 BYTE   N05
 BYTE   W06
 BYTE   Gn1  v096
 BYTE   W06
 BYTE   N05
 BYTE   W06
 BYTE   PEND 
//  #08 //012   ----------------------------------------
 BYTE   PATT
  POIN2 Label_017BAF23
//  #08 //013   ----------------------------------------
 BYTE   PATT
  POIN2 Label_017BAF8B
//  #08 //014   ----------------------------------------
 BYTE   PATT
  POIN2 Label_017BAFE3
//  #08 //015   ----------------------------------------
 BYTE   PATT
  POIN2 Label_017BB03B
//  #08 //016   ----------------------------------------
 BYTE   PATT
  POIN2 Label_017BAF23
//  #08 //017   ----------------------------------------
 BYTE   PATT
  POIN2 Label_017BAF8B
//  #08 //018   ----------------------------------------
 BYTE   PATT
  POIN2 Label_017BAFE3
//  #08 //019   ----------------------------------------
 BYTE   PATT
  POIN2 Label_017BB03B
//  #08 //020   ----------------------------------------
 BYTE   PATT
  POIN2 Label_017BAF23
//  #08 //021   ----------------------------------------
 BYTE   PATT
  POIN2 Label_017BAF8B
//  #08 //022   ----------------------------------------
 BYTE   PATT
  POIN2 Label_017BAFE3
//  #08 //023   ----------------------------------------
 BYTE   PATT
  POIN2 Label_017BB03B
//  #08 //024   ----------------------------------------
Label_017BB0A2:
 BYTE   N05  Dn0  v064
 BYTE   W01
 BYTE   W02
 BYTE   W01
 BYTE   W02
 BYTE   Dn0  v068
 BYTE   W01
 BYTE   W02
 BYTE   W01
 BYTE   W02
 BYTE   Dn0  v072
 BYTE   W01
 BYTE   W02
 BYTE   W01
 BYTE   W02
 BYTE   Dn0  v076
 BYTE   W01
 BYTE   W02
 BYTE   W01
 BYTE   W02
 BYTE   Dn0  v080
 BYTE   W01
 BYTE   W02
 BYTE   W01
 BYTE   W02
 BYTE   Dn0  v084
 BYTE   W01
 BYTE   W02
 BYTE   W01
 BYTE   W02
 BYTE   Dn0  v088
 BYTE   W01
 BYTE   W02
 BYTE   W01
 BYTE   W02
 BYTE   Dn0  v092
 BYTE   W01
 BYTE   W02
 BYTE   W01
 BYTE   W02
 BYTE   Dn0  v096
 BYTE   W01
 BYTE   W02
 BYTE   W01
 BYTE   W02
 BYTE   Dn0  v100
 BYTE   W01
 BYTE   W02
 BYTE   W01
 BYTE   W02
 BYTE   Dn0  v104
 BYTE   W01
 BYTE   W02
 BYTE   W01
 BYTE   W02
 BYTE   Dn0  v108
 BYTE   W01
 BYTE   W02
 BYTE   W01
 BYTE   W02
 BYTE   Dn1  v112
 BYTE   W01
 BYTE   W01
 BYTE   W01
 BYTE   W01
 BYTE   W01
 BYTE   W01
 BYTE   Dn0  v100
 BYTE   W01
 BYTE   W01
 BYTE   W01
 BYTE   W01
 BYTE   W01
 BYTE   W01
 BYTE   W01
 BYTE   W01
 BYTE   W01
 BYTE   W01
 BYTE   W01
 BYTE   W01
 BYTE   DnM1  v076
 BYTE   W01
 BYTE   W01
 BYTE   W01
 BYTE   W01
 BYTE   W01
 BYTE   W01
 BYTE   PEND 
//  #08 //025   ----------------------------------------
Label_017BB10A:
 BYTE   N05  En0  v064
 BYTE   W01
 BYTE   W02
 BYTE   W01
 BYTE   W02
 BYTE   En0  v068
 BYTE   W01
 BYTE   W02
 BYTE   W01
 BYTE   W02
 BYTE   En0  v072
 BYTE   W01
 BYTE   W02
 BYTE   W01
 BYTE   W02
 BYTE   En0  v076
 BYTE   W01
 BYTE   W02
 BYTE   W01
 BYTE   W02
 BYTE   En0  v080
 BYTE   W01
 BYTE   W02
 BYTE   W01
 BYTE   W02
 BYTE   En0  v084
 BYTE   W01
 BYTE   W02
 BYTE   W01
 BYTE   W02
 BYTE   En0  v088
 BYTE   W01
 BYTE   W02
 BYTE   W01
 BYTE   W02
 BYTE   En0  v092
 BYTE   W01
 BYTE   W02
 BYTE   W01
 BYTE   W02
 BYTE   En0  v096
 BYTE   W01
 BYTE   W02
 BYTE   W01
 BYTE   W02
 BYTE   En0  v100
 BYTE   W01
 BYTE   W02
 BYTE   W01
 BYTE   W02
 BYTE   En0  v104
 BYTE   W01
 BYTE   W02
 BYTE   W01
 BYTE   W02
 BYTE   En0  v108
 BYTE   W01
 BYTE   W02
 BYTE   W01
 BYTE   W02
 BYTE   En1  v112
 BYTE   W01
 BYTE   W01
 BYTE   W01
 BYTE   W01
 BYTE   W01
 BYTE   W01
 BYTE   En0  v100
 BYTE   W01
 BYTE   W01
 BYTE   W01
 BYTE   W01
 BYTE   W01
 BYTE   W01
 BYTE   W01
 BYTE   W01
 BYTE   W01
 BYTE   W01
 BYTE   W01
 BYTE   W01
 BYTE   EnM1  v076
 BYTE   W01
 BYTE   W01
 BYTE   W01
 BYTE   W01
 BYTE   W01
 BYTE   W01
 BYTE   PEND 
//  #08 //026   ----------------------------------------
 BYTE   PATT
  POIN2 Label_017BAF23
//  #08 //027   ----------------------------------------
Label_017BB177:
 BYTE   N05  Gn0  v064
 BYTE   W01
 BYTE   W02
 BYTE   W01
 BYTE   W02
 BYTE   Gn0  v068
 BYTE   W01
 BYTE   W02
 BYTE   W01
 BYTE   W02
 BYTE   Gn0  v072
 BYTE   W01
 BYTE   W02
 BYTE   W01
 BYTE   W02
 BYTE   Gn0  v076
 BYTE   W01
 BYTE   W02
 BYTE   W01
 BYTE   W02
 BYTE   Gn0  v080
 BYTE   W01
 BYTE   W02
 BYTE   W01
 BYTE   W02
 BYTE   Gn0  v084
 BYTE   W01
 BYTE   W02
 BYTE   W01
 BYTE   W02
 BYTE   Gn0  v088
 BYTE   W01
 BYTE   W02
 BYTE   W01
 BYTE   W02
 BYTE   Gn0  v092
 BYTE   W01
 BYTE   W02
 BYTE   W01
 BYTE   W02
 BYTE   Gn0  v096
 BYTE   W01
 BYTE   W02
 BYTE   W01
 BYTE   W02
 BYTE   Gn0  v100
 BYTE   W01
 BYTE   W02
 BYTE   W01
 BYTE   W02
 BYTE   Gn0  v104
 BYTE   W01
 BYTE   W02
 BYTE   W01
 BYTE   W02
 BYTE   Gn0  v108
 BYTE   W01
 BYTE   W02
 BYTE   W01
 BYTE   W02
 BYTE   Gn1  v112
 BYTE   W01
 BYTE   W01
 BYTE   W01
 BYTE   W01
 BYTE   W01
 BYTE   W01
 BYTE   Gn0  v100
 BYTE   W01
 BYTE   W01
 BYTE   W01
 BYTE   W01
 BYTE   W01
 BYTE   W01
 BYTE   W01
 BYTE   W01
 BYTE   W01
 BYTE   W01
 BYTE   W01
 BYTE   W01
 BYTE   GnM1  v076
 BYTE   W01
 BYTE   W01
 BYTE   W01
 BYTE   W01
 BYTE   W01
 BYTE   W01
 BYTE   PEND 
//  #08 //028   ----------------------------------------
Label_017BB1DF:
 BYTE   N05  An0  v064
 BYTE   W01
 BYTE   W02
 BYTE   W01
 BYTE   W02
 BYTE   An0  v068
 BYTE   W01
 BYTE   W02
 BYTE   W01
 BYTE   W02
 BYTE   An0  v072
 BYTE   W01
 BYTE   W02
 BYTE   W01
 BYTE   W02
 BYTE   An0  v076
 BYTE   W01
 BYTE   W02
 BYTE   W01
 BYTE   W02
 BYTE   An0  v080
 BYTE   W01
 BYTE   W02
 BYTE   W01
 BYTE   W02
 BYTE   An0  v084
 BYTE   W01
 BYTE   W02
 BYTE   W01
 BYTE   W02
 BYTE   An0  v088
 BYTE   W01
 BYTE   W02
 BYTE   W01
 BYTE   W02
 BYTE   An0  v092
 BYTE   W01
 BYTE   W02
 BYTE   W01
 BYTE   W02
 BYTE   An0  v096
 BYTE   W01
 BYTE   W02
 BYTE   W01
 BYTE   W02
 BYTE   An0  v100
 BYTE   W01
 BYTE   W02
 BYTE   W01
 BYTE   W02
 BYTE   An0  v104
 BYTE   W01
 BYTE   W02
 BYTE   W01
 BYTE   W02
 BYTE   An0  v108
 BYTE   W01
 BYTE   W02
 BYTE   W01
 BYTE   W02
 BYTE   An1  v112
 BYTE   W01
 BYTE   W01
 BYTE   W01
 BYTE   W01
 BYTE   W01
 BYTE   W01
 BYTE   An0  v100
 BYTE   W01
 BYTE   W01
 BYTE   W01
 BYTE   W01
 BYTE   W01
 BYTE   W01
 BYTE   W01
 BYTE   W01
 BYTE   W01
 BYTE   W01
 BYTE   W01
 BYTE   W01
 BYTE   AnM1  v076
 BYTE   W01
 BYTE   W01
 BYTE   W01
 BYTE   W01
 BYTE   W01
 BYTE   W01
 BYTE   PEND 
//  #08 //029   ----------------------------------------
 BYTE   PATT
  POIN2 Label_017BB1DF
//  #08 //030   ----------------------------------------
Label_017BB24C:
 BYTE   N05  Cn1  v064
 BYTE   W01
 BYTE   W02
 BYTE   W01
 BYTE   W02
 BYTE   Cn1  v068
 BYTE   W01
 BYTE   W02
 BYTE   W01
 BYTE   W02
 BYTE   Cn1  v072
 BYTE   W01
 BYTE   W02
 BYTE   W01
 BYTE   W02
 BYTE   Cn1  v076
 BYTE   W01
 BYTE   W02
 BYTE   W01
 BYTE   W02
 BYTE   Cn1  v080
 BYTE   W01
 BYTE   W02
 BYTE   W01
 BYTE   W02
 BYTE   Cn1  v084
 BYTE   W01
 BYTE   W02
 BYTE   W01
 BYTE   W02
 BYTE   Cn1  v088
 BYTE   W01
 BYTE   W02
 BYTE   W01
 BYTE   W02
 BYTE   Cn1  v092
 BYTE   W01
 BYTE   W02
 BYTE   W01
 BYTE   W02
 BYTE   Cn1  v096
 BYTE   W01
 BYTE   W02
 BYTE   W01
 BYTE   W02
 BYTE   Cn1  v100
 BYTE   W01
 BYTE   W02
 BYTE   W01
 BYTE   W02
 BYTE   Cn1  v104
 BYTE   W01
 BYTE   W02
 BYTE   W01
 BYTE   W02
 BYTE   Cn1  v108
 BYTE   W01
 BYTE   W02
 BYTE   W01
 BYTE   W02
 BYTE   Cn2  v112
 BYTE   W01
 BYTE   W01
 BYTE   W01
 BYTE   W01
 BYTE   W01
 BYTE   W01
 BYTE   Cn1  v100
 BYTE   W01
 BYTE   W01
 BYTE   W01
 BYTE   W01
 BYTE   W01
 BYTE   W01
 BYTE   W01
 BYTE   W01
 BYTE   W01
 BYTE   W01
 BYTE   W01
 BYTE   W01
 BYTE   Cn0  v076
 BYTE   W01
 BYTE   W01
 BYTE   W01
 BYTE   W01
 BYTE   W01
 BYTE   W01
 BYTE   PEND 
//  #08 //031   ----------------------------------------
 BYTE   PATT
  POIN2 Label_017BB24C
//  #08 //032   ----------------------------------------
 BYTE   PATT
  POIN2 Label_017BB1DF
//  #08 //033   ----------------------------------------
 BYTE   PATT
  POIN2 Label_017BB1DF
//  #08 //034   ----------------------------------------
 BYTE   PATT
  POIN2 Label_017BB24C
//  #08 //035   ----------------------------------------
 BYTE   PATT
  POIN2 Label_017BB24C
//  #08 //036   ----------------------------------------
 BYTE   PATT
  POIN2 Label_017BAF23
//  #08 //037   ----------------------------------------
 BYTE   PATT
  POIN2 Label_017BAF8B
//  #08 //038   ----------------------------------------
 BYTE   PATT
  POIN2 Label_017BAFE3
//  #08 //039   ----------------------------------------
 BYTE   PATT
  POIN2 Label_017BB03B
//  #08 //040   ----------------------------------------
 BYTE   PATT
  POIN2 Label_017BAF23
//  #08 //041   ----------------------------------------
 BYTE   PATT
  POIN2 Label_017BAF8B
//  #08 //042   ----------------------------------------
 BYTE   PATT
  POIN2 Label_017BAFE3
//  #08 //043   ----------------------------------------
 BYTE   PATT
  POIN2 Label_017BB03B
//  #08 //044   ----------------------------------------
 BYTE   PATT
  POIN2 Label_017BB0A2
//  #08 //045   ----------------------------------------
 BYTE   PATT
  POIN2 Label_017BB10A
//  #08 //046   ----------------------------------------
 BYTE   PATT
  POIN2 Label_017BAF23
//  #08 //047   ----------------------------------------
 BYTE   PATT
  POIN2 Label_017BB177
//  #08 //048   ----------------------------------------
 BYTE   PATT
  POIN2 Label_017BB0A2
//  #08 //049   ----------------------------------------
 BYTE   N05  En0  v064
 BYTE   W04
 BYTE   W02
 BYTE   En0  v068
 BYTE   W03
 BYTE   W03
 BYTE   N05
 BYTE   W01
 BYTE   W05
 BYTE   N05
 BYTE   W04
 BYTE   W02
 BYTE   En0  v072
 BYTE   W03
 BYTE   W03
 BYTE   N05
 BYTE   W01
 BYTE   W05
 BYTE   N05
 BYTE   W04
 BYTE   W02
 BYTE   En0  v076
 BYTE   W03
 BYTE   W03
 BYTE   N05
 BYTE   W01
 BYTE   W05
 BYTE   N05
 BYTE   W04
 BYTE   W02
 BYTE   En0  v080
 BYTE   W03
 BYTE   W03
 BYTE   N05
 BYTE   W01
 BYTE   W05
 BYTE   En1
 BYTE   W01
 BYTE   W01
 BYTE   W01
 BYTE   W01
 BYTE   W01
 BYTE   W01
 BYTE   En0  v076
 BYTE   W01
 BYTE   W01
 BYTE   W01
 BYTE   W01
 BYTE   W01
 BYTE   W01
 BYTE   W01
 BYTE   W01
 BYTE   W01
 BYTE   W01
 BYTE   W01
 BYTE   W01
 BYTE   EnM1  v060
 BYTE   W01
 BYTE   W01
 BYTE   W01
 BYTE   W01
 BYTE   W01
 BYTE   W01
//  #08 //050   ----------------------------------------
 BYTE   Fn0  v052
 BYTE   W04
 BYTE   W02
 BYTE   N05
 BYTE   W03
 BYTE   W03
 BYTE   N05
 BYTE   W02
 BYTE   W04
 BYTE   N05
 BYTE   W01
 BYTE   W05
 BYTE   Fn0  v056
 BYTE   W04
 BYTE   W02
 BYTE   N05
 BYTE   W03
 BYTE   W03
 BYTE   N05
 BYTE   W02
 BYTE   W04
 BYTE   Fn0  v060
 BYTE   W01
 BYTE   W05
 BYTE   N05
 BYTE   W04
 BYTE   W02
 BYTE   N05
 BYTE   W03
 BYTE   W03
 BYTE   Fn0  v064
 BYTE   W02
 BYTE   W04
 BYTE   N05
 BYTE   W01
 BYTE   W05
 BYTE   Fn1
 BYTE   W01
 BYTE   W01
 BYTE   W01
 BYTE   W01
 BYTE   W01
 BYTE   W01
 BYTE   Fn0  v060
 BYTE   W01
 BYTE   W01
 BYTE   W01
 BYTE   W01
 BYTE   W01
 BYTE   W01
 BYTE   W01
 BYTE   W01
 BYTE   W01
 BYTE   W01
 BYTE   W01
 BYTE   W01
 BYTE   FnM1  v044
 BYTE   W01
 BYTE   W01
 BYTE   W01
 BYTE   W01
 BYTE   W01
 BYTE   W01
//  #08 //051   ----------------------------------------
 BYTE   Gn0  v036
 BYTE   W04
 BYTE   W02
 BYTE   N05
 BYTE   W03
 BYTE   W03
 BYTE   N05
 BYTE   W01
 BYTE   W05
 BYTE   Gn0  v040
 BYTE   W04
 BYTE   W02
 BYTE   N05
 BYTE   W03
 BYTE   W03
 BYTE   N05
 BYTE   W01
 BYTE   W05
 BYTE   Gn0  v044
 BYTE   W04
 BYTE   W02
 BYTE   N05
 BYTE   W03
 BYTE   W03
 BYTE   N05
 BYTE   W01
 BYTE   W05
 BYTE   Gn0  v048
 BYTE   W04
 BYTE   W02
 BYTE   N05
 BYTE   W03
 BYTE   W03
 BYTE   N05
 BYTE   W01
 BYTE   W05
 BYTE   Gn1  v052
 BYTE   W06
 BYTE   Gn0
 BYTE   W12
 BYTE   GnM1
 BYTE   W06
//  #08 //052   ----------------------------------------
 BYTE   W96
//  #08 //053   ----------------------------------------
 BYTE   W96
//  #08 //054   ----------------------------------------
 BYTE   W96
//  #08 //055   ----------------------------------------
 BYTE   W96
//  #08 //056   ----------------------------------------
 BYTE   W96
//  #08 //057   ----------------------------------------
 BYTE   W96
//  #08 //058   ----------------------------------------
 BYTE   W96
//  #08 //059   ----------------------------------------
 BYTE   W96
//  #08 //060   ----------------------------------------
 BYTE   GoTo
  POIN2 Label_017BAF23
//  #08 //061   ----------------------------------------
 BYTE   PATT
  POIN2 Label_017BAF23
 BYTE   FINE

//******************************************************//
	ALIGN 4

StickerbrushSymphonyAlt:
	BYTE	8	// NumTrks
	BYTE	0	// NumBlks
	BYTE	StickerbrushSymphonyAlt_pri	// Priority
	BYTE	StickerbrushSymphonyAlt_rev	// Reverb.
    
	POIN2	StickerbrushSymphonyAlt_grp
    
	POIN2	StickerbrushSymphonyAlt_001
	POIN2	StickerbrushSymphonyAlt_002
	POIN2	StickerbrushSymphonyAlt_003
	POIN2	StickerbrushSymphonyAlt_004
	POIN2	StickerbrushSymphonyAlt_005
	POIN2	StickerbrushSymphonyAlt_006
	POIN2	StickerbrushSymphonyAlt_007
	POIN2	StickerbrushSymphonyAlt_008

	
