//Event file generated from Sappy .s format.
	#include "MPlayDef.event"

	#define	TearsOfResolution_grp  voicegroup000
	#define	TearsOfResolution_pri  0
	#define	TearsOfResolution_rev  0
	#define	TearsOfResolution_mvl  127
	#define	TearsOfResolution_key  0
	#define	TearsOfResolution_tbs  1
	#define	TearsOfResolution_exg  0
	#define	TearsOfResolution_cmp  1

	// .rodata
	//	TearsOfResolution
	ALIGN 4


//**************** Track 1 (Midi-Chn.0) ****************//

TearsOfResolution_001:
//  #01 //000   ----------------------------------------
 BYTE   KEYSH   TearsOfResolution_key+0
 BYTE   TEMPO   130*TearsOfResolution_tbs/2
 BYTE   VOICE   4
 BYTE   PAN   c_v+0
 BYTE   VOL   34*TearsOfResolution_mvl/mxv
 BYTE   PAN   c_v+0
 BYTE   VOL   34*TearsOfResolution_mvl/mxv
 BYTE   PAN   c_v+0
 BYTE   VOL   34*TearsOfResolution_mvl/mxv
 BYTE   PAN   c_v+0
 BYTE   VOL   34*TearsOfResolution_mvl/mxv
 BYTE   PAN   c_v+0
 BYTE   VOL   34*TearsOfResolution_mvl/mxv
 BYTE   BEND   c_v+0
 BYTE   N68  Dn3  v100
 BYTE   N68  Fn3
 BYTE   W96
//  #01 //001   ----------------------------------------
 BYTE   Dn3
 BYTE   N68  Fn3
 BYTE   W96
//  #01 //002   ----------------------------------------
Label_0142A57A:
 BYTE   N68  Dn3  v100
 BYTE   N68  Fn3
 BYTE   W72
 BYTE   N04  Dn3
 BYTE   N04  Fn3
 BYTE   W06
 BYTE   En3
 BYTE   N04  Gn3
 BYTE   W06
 BYTE   Fn3
 BYTE   N04  An3
 BYTE   W06
 BYTE   Dn3
 BYTE   N04  Fn3
 BYTE   W06
 BYTE   PEND 
//  #01 //003   ----------------------------------------
Label_0142A592:
 BYTE   N44  Fn3  v100
 BYTE   N44  An3
 BYTE   W48
 BYTE   N22  En3
 BYTE   N22  Gn3
 BYTE   W24
 BYTE   Cn3
 BYTE   N22  En3
 BYTE   W24
 BYTE   PEND 
//  #01 //004   ----------------------------------------
Label_0142A5A2:
 BYTE   W96
//  #01 //005   ----------------------------------------
 BYTE   W96
//  #01 //006   ----------------------------------------
 BYTE   W96
//  #01 //007   ----------------------------------------
 BYTE   W96
//  #01 //008   ----------------------------------------
Label_0142A5A6:
 BYTE   N80  Fn4  v100
 BYTE   W84
 BYTE   N04  En4
 BYTE   W06
 BYTE   Fn4
 BYTE   W06
 BYTE   PEND 
//  #01 //009   ----------------------------------------
Label_0142A5B0:
 BYTE   N68  Dn4  v100
 BYTE   W72
 BYTE   N10  Fn4
 BYTE   W12
 BYTE   Gn4
 BYTE   W12
 BYTE   PEND 
//  #01 //010   ----------------------------------------
Label_0142A5BA:
 BYTE   N22  En4  v100
 BYTE   W24
 BYTE   N44  Cn4
 BYTE   W48
 BYTE   N10  An3
 BYTE   W12
 BYTE   Cn4
 BYTE   W12
 BYTE   PEND 
//  #01 //011   ----------------------------------------
Label_0142A5C7:
 BYTE   N44  Dn4  v100
 BYTE   W48
 BYTE   N22  Cn4
 BYTE   W24
 BYTE   An3
 BYTE   W24
 BYTE   PEND 
//  #01 //012   ----------------------------------------
Label_0142A5D1:
 BYTE   N10  Gn3  v100
 BYTE   W12
 BYTE   An3
 BYTE   W12
 BYTE   N44  Fn3
 BYTE   W48
 BYTE   N10  Gn3
 BYTE   W12
 BYTE   An3
 BYTE   W12
 BYTE   PEND 
//  #01 //013   ----------------------------------------
Label_0142A5E0:
 BYTE   N32  Gn3  v100
 BYTE   W36
 BYTE   N10  Fn3
 BYTE   W12
 BYTE   En3
 BYTE   W12
 BYTE   N32  Cn3
 BYTE   W36
 BYTE   PEND 
//  #01 //014   ----------------------------------------
Label_0142A5ED:
 BYTE   N80  Dn3  v100
 BYTE   W84
 BYTE   N04  Cn3
 BYTE   W06
 BYTE   Dn3
 BYTE   W06
 BYTE   PEND 
//  #01 //015   ----------------------------------------
 BYTE   N44  Cn3
 BYTE   W48
 BYTE   En3
 BYTE   W48
//  #01 //016   ----------------------------------------
 BYTE   PATT
  POIN2 Label_0142A5A6
//  #01 //017   ----------------------------------------
 BYTE   PATT
  POIN2 Label_0142A5B0
//  #01 //018   ----------------------------------------
 BYTE   PATT
  POIN2 Label_0142A5BA
//  #01 //019   ----------------------------------------
 BYTE   PATT
  POIN2 Label_0142A5C7
//  #01 //020   ----------------------------------------
 BYTE   PATT
  POIN2 Label_0142A5D1
//  #01 //021   ----------------------------------------
 BYTE   PATT
  POIN2 Label_0142A5E0
//  #01 //022   ----------------------------------------
 BYTE   PATT
  POIN2 Label_0142A5ED
//  #01 //023   ----------------------------------------
Label_0142A61F:
 BYTE   N44  Cn3  v100
 BYTE   W48
 BYTE   An2
 BYTE   W48
 BYTE   PEND 
//  #01 //024   ----------------------------------------
 BYTE   N92  As2
 BYTE   W96
//  #01 //025   ----------------------------------------
 BYTE   PATT
  POIN2 Label_0142A61F
//  #01 //026   ----------------------------------------
Label_0142A62E:
 BYTE   N44  As2  v100
 BYTE   W48
 BYTE   N22  Cn3
 BYTE   W24
 BYTE   Dn3
 BYTE   W24
 BYTE   PEND 
//  #01 //027   ----------------------------------------
Label_0142A638:
 BYTE   N44  Fn3  v100
 BYTE   W48
 BYTE   En3
 BYTE   W48
 BYTE   PEND 
//  #01 //028   ----------------------------------------
 BYTE   N92  As2
 BYTE   W96
//  #01 //029   ----------------------------------------
 BYTE   PATT
  POIN2 Label_0142A61F
//  #01 //030   ----------------------------------------
 BYTE   PATT
  POIN2 Label_0142A62E
//  #01 //031   ----------------------------------------
 BYTE   PATT
  POIN2 Label_0142A638
//  #01 //032   ----------------------------------------
 BYTE   W48
 BYTE   N10  Dn3  v100
 BYTE   W12
 BYTE   Cn3
 BYTE   W12
 BYTE   Fn3
 BYTE   W12
 BYTE   En3
 BYTE   W12
//  #01 //033   ----------------------------------------
 BYTE   An3
 BYTE   W12
 BYTE   Gn3
 BYTE   W12
 BYTE   Cn4
 BYTE   W12
 BYTE   An3
 BYTE   W12
 BYTE   Fn4
 BYTE   W12
 BYTE   En4
 BYTE   W12
 BYTE   Dn4
 BYTE   W12
 BYTE   An3
 BYTE   W12
//  #01 //034   ----------------------------------------
 BYTE   W24
 BYTE   N22
 BYTE   W24
 BYTE   Dn4
 BYTE   W24
 BYTE   En4
 BYTE   W24
//  #01 //035   ----------------------------------------
 BYTE   Fn4
 BYTE   W24
 BYTE   En4
 BYTE   W24
 BYTE   Dn4
 BYTE   W24
 BYTE   An3
 BYTE   W24
//  #01 //036   ----------------------------------------
 BYTE   W48
 BYTE   N10  Dn4
 BYTE   W12
 BYTE   Cn4
 BYTE   W12
 BYTE   As3
 BYTE   W12
 BYTE   An3
 BYTE   W12
//  #01 //037   ----------------------------------------
 BYTE   N44  Gn3
 BYTE   W48
 BYTE   N22
 BYTE   W24
 BYTE   Fn3
 BYTE   W24
//  #01 //038   ----------------------------------------
 BYTE   W36
 BYTE   N10  An3
 BYTE   W12
 BYTE   N22
 BYTE   W24
 BYTE   N10  Gn3
 BYTE   W12
 BYTE   Fn3
 BYTE   W12
//  #01 //039   ----------------------------------------
 BYTE   N92  An3
 BYTE   W96
//  #01 //040   ----------------------------------------
 BYTE   N10  As3
 BYTE   W12
 BYTE   An3
 BYTE   W12
 BYTE   Gn3
 BYTE   W12
 BYTE   N56  Dn3
 BYTE   W60
//  #01 //041   ----------------------------------------
 BYTE   N10  Gn3
 BYTE   W12
 BYTE   Fn3
 BYTE   W12
 BYTE   As3
 BYTE   W12
 BYTE   An3
 BYTE   W12
 BYTE   Gn3
 BYTE   W12
 BYTE   An3
 BYTE   W12
 BYTE   Cn4
 BYTE   W12
 BYTE   Dn4
 BYTE   W12
//  #01 //042   ----------------------------------------
 BYTE   N10
 BYTE   W12
 BYTE   Cn4
 BYTE   W12
 BYTE   TIE  An3
 BYTE   W72
//  #01 //043   ----------------------------------------
 BYTE   W44
 BYTE   W02
 BYTE   EOT
 BYTE   W02
 BYTE   N22
 BYTE   W24
 BYTE   Gn3
 BYTE   W24
//  #01 //044   ----------------------------------------
 BYTE   N10  Fn3
 BYTE   W12
 BYTE   En3
 BYTE   W12
 BYTE   N56  Dn3
 BYTE   W60
 BYTE   N10  En3
 BYTE   W12
//  #01 //045   ----------------------------------------
 BYTE   N22  Fn3
 BYTE   W24
 BYTE   Cn3
 BYTE   W24
 BYTE   Dn3
 BYTE   W24
 BYTE   En3
 BYTE   W24
//  #01 //046   ----------------------------------------
 BYTE   An3
 BYTE   W96
//  #01 //047   ----------------------------------------
 BYTE   W96
//  #01 //048   ----------------------------------------
 BYTE   W96
//  #01 //049   ----------------------------------------
 BYTE   W96
//  #01 //050   ----------------------------------------
 BYTE   W24
 BYTE   En3
 BYTE   W24
 BYTE   Dn3
 BYTE   W24
 BYTE   An2
 BYTE   W24
//  #01 //051   ----------------------------------------
 BYTE   N68  En3
 BYTE   W96
//  #01 //052   ----------------------------------------
 BYTE   W96
//  #01 //053   ----------------------------------------
 BYTE   W96
//  #01 //054   ----------------------------------------
 BYTE   W24
 BYTE   N22  Cn3
 BYTE   W24
 BYTE   Fn2
 BYTE   W24
 BYTE   Gn2
 BYTE   W24
//  #01 //055   ----------------------------------------
 BYTE   N92  An2
 BYTE   W96
//  #01 //056   ----------------------------------------
 BYTE   W96
//  #01 //057   ----------------------------------------
 BYTE   W96
//  #01 //058   ----------------------------------------
 BYTE   W96
//  #01 //059   ----------------------------------------
 BYTE   W96
//  #01 //060   ----------------------------------------
 BYTE   W96
//  #01 //061   ----------------------------------------
 BYTE   W96
//  #01 //062   ----------------------------------------
 BYTE   W96
//  #01 //063   ----------------------------------------
 BYTE   W96
//  #01 //064   ----------------------------------------
 BYTE   W12
 BYTE   N11  As2
 BYTE   N11  Dn3
 BYTE   W12
 BYTE   Fn3
 BYTE   N11  An3
 BYTE   W12
 BYTE   En3
 BYTE   N11  Gn3
 BYTE   W12
 BYTE   Dn3
 BYTE   N11  Fn3
 BYTE   W12
 BYTE   En3
 BYTE   N11  Gn3
 BYTE   W24
 BYTE   As2
 BYTE   N11  Dn3
 BYTE   W12
//  #01 //065   ----------------------------------------
 BYTE   Fn3
 BYTE   N11  An3
 BYTE   W12
 BYTE   En3
 BYTE   N11  Gn3
 BYTE   W12
 BYTE   Dn3
 BYTE   N11  Fn3
 BYTE   W12
 BYTE   N32  En3
 BYTE   N32  Gn3
 BYTE   W60
//  #01 //066   ----------------------------------------
 BYTE   W12
 BYTE   N11  An2
 BYTE   N11  Dn3
 BYTE   W12
 BYTE   Fn3
 BYTE   N11  An3
 BYTE   W12
 BYTE   En3
 BYTE   N11  Gn3
 BYTE   W12
 BYTE   Dn3
 BYTE   N11  Fn3
 BYTE   W12
 BYTE   En3
 BYTE   N11  Gn3
 BYTE   W24
 BYTE   An2
 BYTE   N11  Dn3
 BYTE   W12
//  #01 //067   ----------------------------------------
 BYTE   Fn3
 BYTE   N11  An3
 BYTE   W12
 BYTE   En3
 BYTE   N11  Gn3
 BYTE   W12
 BYTE   Dn3
 BYTE   N11  Fn3
 BYTE   W12
 BYTE   N32  An2
 BYTE   N32  Dn3
 BYTE   W60
//  #01 //068   ----------------------------------------
 BYTE   W96
//  #01 //069   ----------------------------------------
 BYTE   W96
//  #01 //070   ----------------------------------------
 BYTE   W96
//  #01 //071   ----------------------------------------
 BYTE   W96
//  #01 //072   ----------------------------------------
 BYTE   W96
//  #01 //073   ----------------------------------------
 BYTE   W96
//  #01 //074   ----------------------------------------
 BYTE   W96
//  #01 //075   ----------------------------------------
 BYTE   W96
//  #01 //076   ----------------------------------------
 BYTE   N68
 BYTE   N68  Fn3
 BYTE   W96
//  #01 //077   ----------------------------------------
 BYTE   Dn3
 BYTE   N68  Fn3
 BYTE   W96
//  #01 //078   ----------------------------------------
 BYTE   PATT
  POIN2 Label_0142A57A
//  #01 //079   ----------------------------------------
 BYTE   PATT
  POIN2 Label_0142A592
//  #01 //080   ----------------------------------------
 BYTE   GoTo
  POIN2 Label_0142A5A2
//  #01 //081   ----------------------------------------
 BYTE   PAN   c_v+0
 BYTE   VOL   34*TearsOfResolution_mvl/mxv
 BYTE   PAN   c_v+0
 BYTE   VOL   34*TearsOfResolution_mvl/mxv
 BYTE   PAN   c_v+0
 BYTE   VOL   34*TearsOfResolution_mvl/mxv
 BYTE   BEND   c_v+0
 BYTE   FINE

//**************** Track 2 (Midi-Chn.1) ****************//

TearsOfResolution_002:
//  #02 //000   ----------------------------------------
 BYTE   KEYSH   TearsOfResolution_key+0
 BYTE   VOICE   40
 BYTE   PAN   c_v+0
 BYTE   VOL   32*TearsOfResolution_mvl/mxv
 BYTE   PAN   c_v+0
 BYTE   VOL   32*TearsOfResolution_mvl/mxv
 BYTE   PAN   c_v+0
 BYTE   VOL   32*TearsOfResolution_mvl/mxv
 BYTE   PAN   c_v+0
 BYTE   VOL   32*TearsOfResolution_mvl/mxv
 BYTE   PAN   c_v+0
 BYTE   VOL   32*TearsOfResolution_mvl/mxv
 BYTE   BEND   c_v+0
 BYTE   W96
//  #02 //001   ----------------------------------------
 BYTE   W96
//  #02 //002   ----------------------------------------
 BYTE   W96
//  #02 //003   ----------------------------------------
 BYTE   W96
//  #02 //004   ----------------------------------------
Label_01013F86:
 BYTE   W96
//  #02 //005   ----------------------------------------
 BYTE   W96
//  #02 //006   ----------------------------------------
 BYTE   W96
//  #02 //007   ----------------------------------------
 BYTE   W96
//  #02 //008   ----------------------------------------
 BYTE   W96
//  #02 //009   ----------------------------------------
 BYTE   W96
//  #02 //010   ----------------------------------------
 BYTE   W96
//  #02 //011   ----------------------------------------
 BYTE   W96
//  #02 //012   ----------------------------------------
 BYTE   W96
//  #02 //013   ----------------------------------------
 BYTE   W96
//  #02 //014   ----------------------------------------
 BYTE   W96
//  #02 //015   ----------------------------------------
 BYTE   W96
//  #02 //016   ----------------------------------------
 BYTE   N32  Dn3  v100
 BYTE   W36
 BYTE   En3
 BYTE   W36
 BYTE   N22  Fn3
 BYTE   W24
//  #02 //017   ----------------------------------------
 BYTE   N32
 BYTE   W36
 BYTE   N10  Dn3
 BYTE   W12
 BYTE   An3
 BYTE   W12
 BYTE   Gn3
 BYTE   W12
 BYTE   Fn3
 BYTE   W12
 BYTE   Dn3
 BYTE   W12
//  #02 //018   ----------------------------------------
 BYTE   En3
 BYTE   W12
 BYTE   Fn3
 BYTE   W12
 BYTE   N44  En3
 BYTE   W48
 BYTE   N10  Cn3
 BYTE   W12
 BYTE   En3
 BYTE   W12
//  #02 //019   ----------------------------------------
 BYTE   N32  Fn3
 BYTE   W36
 BYTE   En3
 BYTE   W36
 BYTE   N22  Dn3
 BYTE   W24
//  #02 //020   ----------------------------------------
 BYTE   N32  Cn3
 BYTE   W36
 BYTE   N22  An2
 BYTE   W24
 BYTE   N10  Cn3
 BYTE   W12
 BYTE   Dn3
 BYTE   W12
 BYTE   Cn3
 BYTE   W12
//  #02 //021   ----------------------------------------
 BYTE   N32  En3
 BYTE   W36
 BYTE   N10  Dn3
 BYTE   W12
 BYTE   N22  Fn3
 BYTE   W24
 BYTE   En3
 BYTE   W24
//  #02 //022   ----------------------------------------
 BYTE   N32  Dn3
 BYTE   W36
 BYTE   N22  An2
 BYTE   W24
 BYTE   N10  Cn3
 BYTE   W12
 BYTE   Dn3
 BYTE   W12
 BYTE   An2
 BYTE   W12
//  #02 //023   ----------------------------------------
 BYTE   N44  Cn3
 BYTE   W48
 BYTE   N44
 BYTE   W48
//  #02 //024   ----------------------------------------
 BYTE   N10  As2
 BYTE   W12
 BYTE   Gn2
 BYTE   W12
 BYTE   As2
 BYTE   W12
 BYTE   Dn3
 BYTE   W12
 BYTE   Fn3
 BYTE   W12
 BYTE   En3
 BYTE   W12
 BYTE   Dn3
 BYTE   W12
 BYTE   As2
 BYTE   W12
//  #02 //025   ----------------------------------------
 BYTE   N04  En3
 BYTE   W06
 BYTE   Fn3
 BYTE   W06
 BYTE   N32  En3
 BYTE   W36
 BYTE   N22  Cn3
 BYTE   W24
 BYTE   An2
 BYTE   W24
//  #02 //026   ----------------------------------------
 BYTE   N44  Dn3
 BYTE   W48
 BYTE   N22  En3
 BYTE   W24
 BYTE   Fn3
 BYTE   W24
//  #02 //027   ----------------------------------------
 BYTE   N44  An3
 BYTE   W48
 BYTE   Gn3
 BYTE   W48
//  #02 //028   ----------------------------------------
 BYTE   N10  An3
 BYTE   W12
 BYTE   Gn3
 BYTE   W12
 BYTE   Fn3
 BYTE   W12
 BYTE   En3
 BYTE   W12
 BYTE   Dn3
 BYTE   W12
 BYTE   En3
 BYTE   W12
 BYTE   Fn3
 BYTE   W12
 BYTE   Dn3
 BYTE   W12
//  #02 //029   ----------------------------------------
 BYTE   N44  En3
 BYTE   W48
 BYTE   N22  Fn3
 BYTE   W24
 BYTE   Gn3
 BYTE   W24
//  #02 //030   ----------------------------------------
 BYTE   N10  An3
 BYTE   W12
 BYTE   Gn3
 BYTE   W12
 BYTE   Fn3
 BYTE   W12
 BYTE   Dn3
 BYTE   W12
 BYTE   Fn3
 BYTE   W12
 BYTE   An3
 BYTE   W12
 BYTE   Gn3
 BYTE   W12
 BYTE   Dn3
 BYTE   W12
//  #02 //031   ----------------------------------------
 BYTE   N04  Fn3
 BYTE   W06
 BYTE   Gn3
 BYTE   W06
 BYTE   An3
 BYTE   W06
 BYTE   Cn4
 BYTE   W06
 BYTE   An3
 BYTE   W06
 BYTE   Cn4
 BYTE   W06
 BYTE   Dn4
 BYTE   W06
 BYTE   Fn4
 BYTE   W06
 BYTE   Dn4
 BYTE   W06
 BYTE   Fn4
 BYTE   W06
 BYTE   Gn4
 BYTE   W06
 BYTE   An4
 BYTE   W06
 BYTE   Gn4
 BYTE   W06
 BYTE   An4
 BYTE   W06
 BYTE   Cn5
 BYTE   W06
 BYTE   Dn5
 BYTE   W06
//  #02 //032   ----------------------------------------
 BYTE   TIE  Fn4
 BYTE   W96
//  #02 //033   ----------------------------------------
 BYTE   W22
 BYTE   EOT
 BYTE   W02
 BYTE   N22  En4
 BYTE   W24
 BYTE   Dn4
 BYTE   W24
 BYTE   An3
 BYTE   W24
//  #02 //034   ----------------------------------------
 BYTE   TIE  En4
 BYTE   W96
//  #02 //035   ----------------------------------------
 BYTE   W92
 BYTE   W02
 BYTE   EOT
 BYTE   W02
//  #02 //036   ----------------------------------------
 BYTE   TIE  Dn4
 BYTE   W96
//  #02 //037   ----------------------------------------
 BYTE   W22
 BYTE   EOT
 BYTE   W02
 BYTE   N22  Cn4
 BYTE   W24
 BYTE   Fn3
 BYTE   W24
 BYTE   Gn3
 BYTE   W24
//  #02 //038   ----------------------------------------
 BYTE   TIE  An3
 BYTE   W96
//  #02 //039   ----------------------------------------
 BYTE   W92
 BYTE   W02
 BYTE   EOT
 BYTE   W02
//  #02 //040   ----------------------------------------
 BYTE   TIE  Gn3
 BYTE   W96
//  #02 //041   ----------------------------------------
 BYTE   W22
 BYTE   EOT
 BYTE   W02
 BYTE   N22  Fn3
 BYTE   W24
 BYTE   En3
 BYTE   W24
 BYTE   Gn3
 BYTE   W24
//  #02 //042   ----------------------------------------
Label_01014091:
 BYTE   N22  Fn3  v100
 BYTE   W24
 BYTE   TIE  Dn3
 BYTE   W72
 BYTE   PEND 
//  #02 //043   ----------------------------------------
 BYTE   W44
 BYTE   W02
 BYTE   EOT
 BYTE   W02
 BYTE   N22
 BYTE   W24
 BYTE   En3
 BYTE   W24
//  #02 //044   ----------------------------------------
 BYTE   TIE  Fn3
 BYTE   W96
//  #02 //045   ----------------------------------------
 BYTE   W22
 BYTE   EOT
 BYTE   W02
 BYTE   N22  En3
 BYTE   W24
 BYTE   Fn3
 BYTE   W24
 BYTE   Gn3
 BYTE   W24
//  #02 //046   ----------------------------------------
 BYTE   TIE  An3
 BYTE   W96
//  #02 //047   ----------------------------------------
 BYTE   W92
 BYTE   W02
 BYTE   EOT
 BYTE   W02
//  #02 //048   ----------------------------------------
 BYTE   TIE  Fn4
 BYTE   W96
//  #02 //049   ----------------------------------------
 BYTE   W22
 BYTE   EOT
 BYTE   W02
 BYTE   N22  En4
 BYTE   W24
 BYTE   Dn4
 BYTE   W24
 BYTE   An3
 BYTE   W24
//  #02 //050   ----------------------------------------
 BYTE   TIE  En4
 BYTE   W96
//  #02 //051   ----------------------------------------
 BYTE   W92
 BYTE   W02
 BYTE   EOT
 BYTE   W02
//  #02 //052   ----------------------------------------
 BYTE   TIE  Dn4
 BYTE   W96
//  #02 //053   ----------------------------------------
 BYTE   W22
 BYTE   EOT
 BYTE   W02
 BYTE   N22  Cn4
 BYTE   W24
 BYTE   Fn3
 BYTE   W24
 BYTE   Gn3
 BYTE   W24
//  #02 //054   ----------------------------------------
 BYTE   TIE  An3
 BYTE   W96
//  #02 //055   ----------------------------------------
 BYTE   W92
 BYTE   W02
 BYTE   EOT
 BYTE   W02
//  #02 //056   ----------------------------------------
 BYTE   TIE  Gn3
 BYTE   W96
//  #02 //057   ----------------------------------------
 BYTE   W22
 BYTE   EOT
 BYTE   W02
 BYTE   N22  Fn3
 BYTE   W24
 BYTE   En3
 BYTE   W24
 BYTE   Gn3
 BYTE   W24
//  #02 //058   ----------------------------------------
 BYTE   PATT
  POIN2 Label_01014091
//  #02 //059   ----------------------------------------
 BYTE   W44
 BYTE   W02
 BYTE   EOT
 BYTE   Dn3
 BYTE   W02
 BYTE   N22  Dn3  v100
 BYTE   W24
 BYTE   En3
 BYTE   W24
//  #02 //060   ----------------------------------------
 BYTE   TIE  Fn3
 BYTE   W96
//  #02 //061   ----------------------------------------
 BYTE   W22
 BYTE   EOT
 BYTE   W02
 BYTE   N22  En3
 BYTE   W24
 BYTE   Dn3
 BYTE   W24
 BYTE   Cs3
 BYTE   W24
//  #02 //062   ----------------------------------------
 BYTE   TIE  Dn3
 BYTE   W96
//  #02 //063   ----------------------------------------
 BYTE   W92
 BYTE   W02
 BYTE   EOT
 BYTE   W02
//  #02 //064   ----------------------------------------
 BYTE   W96
//  #02 //065   ----------------------------------------
 BYTE   W96
//  #02 //066   ----------------------------------------
 BYTE   W96
//  #02 //067   ----------------------------------------
 BYTE   W96
//  #02 //068   ----------------------------------------
 BYTE   W36
 BYTE   N10
 BYTE   W12
 BYTE   En3
 BYTE   W12
 BYTE   N32  Fn3
 BYTE   W36
//  #02 //069   ----------------------------------------
 BYTE   N22  An3
 BYTE   W24
 BYTE   Gn3
 BYTE   W24
 BYTE   Fn3
 BYTE   W24
 BYTE   En3
 BYTE   W24
//  #02 //070   ----------------------------------------
 BYTE   N10  Fn3
 BYTE   W12
 BYTE   An2
 BYTE   W12
 BYTE   En3
 BYTE   W12
 BYTE   Dn3
 BYTE   W12
 BYTE   An3
 BYTE   W12
 BYTE   Gn3
 BYTE   W12
 BYTE   Fn3
 BYTE   W12
 BYTE   En3
 BYTE   W12
//  #02 //071   ----------------------------------------
 BYTE   N10
 BYTE   W12
 BYTE   N32  Dn3
 BYTE   W36
 BYTE   N10  Fn3
 BYTE   W12
 BYTE   Dn3
 BYTE   W12
 BYTE   Fn3
 BYTE   W12
 BYTE   Gn3
 BYTE   W12
//  #02 //072   ----------------------------------------
 BYTE   N92  Cn4
 BYTE   W96
//  #02 //073   ----------------------------------------
 BYTE   En4
 BYTE   W96
//  #02 //074   ----------------------------------------
 BYTE   Dn4
 BYTE   W96
//  #02 //075   ----------------------------------------
 BYTE   N04  Dn3
 BYTE   W06
 BYTE   Fn3
 BYTE   W06
 BYTE   An3
 BYTE   W06
 BYTE   Fn3
 BYTE   W06
 BYTE   N04
 BYTE   W06
 BYTE   An3
 BYTE   W06
 BYTE   Dn4
 BYTE   W06
 BYTE   An3
 BYTE   W06
 BYTE   Fn4
 BYTE   W06
 BYTE   An3
 BYTE   W06
 BYTE   En4
 BYTE   W06
 BYTE   An3
 BYTE   W06
 BYTE   Dn4
 BYTE   W06
 BYTE   An3
 BYTE   W06
 BYTE   Cn4
 BYTE   W06
 BYTE   An3
 BYTE   W06
//  #02 //076   ----------------------------------------
 BYTE   W96
//  #02 //077   ----------------------------------------
 BYTE   W96
//  #02 //078   ----------------------------------------
 BYTE   W96
//  #02 //079   ----------------------------------------
 BYTE   W96
//  #02 //080   ----------------------------------------
 BYTE   GoTo
  POIN2 Label_01013F86
//  #02 //081   ----------------------------------------
 BYTE   VOICE   40
 BYTE   PAN   c_v+0
 BYTE   VOL   32*TearsOfResolution_mvl/mxv
 BYTE   PAN   c_v+0
 BYTE   VOL   32*TearsOfResolution_mvl/mxv
 BYTE   PAN   c_v+0
 BYTE   VOL   32*TearsOfResolution_mvl/mxv
 BYTE   BEND   c_v+0
 BYTE   FINE

//**************** Track 3 (Midi-Chn.2) ****************//

TearsOfResolution_003:
//  #03 //000   ----------------------------------------
 BYTE   KEYSH   TearsOfResolution_key+0
 BYTE   VOICE   48
 BYTE   PAN   c_v+0
 BYTE   VOL   34*TearsOfResolution_mvl/mxv
 BYTE   PAN   c_v+0
 BYTE   VOL   34*TearsOfResolution_mvl/mxv
 BYTE   PAN   c_v+0
 BYTE   VOL   34*TearsOfResolution_mvl/mxv
 BYTE   PAN   c_v+0
 BYTE   VOL   34*TearsOfResolution_mvl/mxv
 BYTE   PAN   c_v+0
 BYTE   VOL   34*TearsOfResolution_mvl/mxv
 BYTE   BEND   c_v+0
 BYTE   W96
//  #03 //001   ----------------------------------------
 BYTE   W96
//  #03 //002   ----------------------------------------
 BYTE   W96
//  #03 //003   ----------------------------------------
 BYTE   W96
//  #03 //004   ----------------------------------------
Label_01429E6E:
 BYTE   W96
//  #03 //005   ----------------------------------------
 BYTE   W96
//  #03 //006   ----------------------------------------
 BYTE   W96
//  #03 //007   ----------------------------------------
 BYTE   W96
//  #03 //008   ----------------------------------------
 BYTE   W96
//  #03 //009   ----------------------------------------
 BYTE   W96
//  #03 //010   ----------------------------------------
 BYTE   W96
//  #03 //011   ----------------------------------------
 BYTE   W96
//  #03 //012   ----------------------------------------
 BYTE   W96
//  #03 //013   ----------------------------------------
 BYTE   W96
//  #03 //014   ----------------------------------------
 BYTE   W96
//  #03 //015   ----------------------------------------
 BYTE   W96
//  #03 //016   ----------------------------------------
 BYTE   W96
//  #03 //017   ----------------------------------------
 BYTE   W96
//  #03 //018   ----------------------------------------
 BYTE   W96
//  #03 //019   ----------------------------------------
 BYTE   W96
//  #03 //020   ----------------------------------------
 BYTE   W96
//  #03 //021   ----------------------------------------
 BYTE   W96
//  #03 //022   ----------------------------------------
 BYTE   W96
//  #03 //023   ----------------------------------------
 BYTE   W96
//  #03 //024   ----------------------------------------
 BYTE   W96
//  #03 //025   ----------------------------------------
 BYTE   W96
//  #03 //026   ----------------------------------------
 BYTE   W96
//  #03 //027   ----------------------------------------
 BYTE   W96
//  #03 //028   ----------------------------------------
 BYTE   W96
//  #03 //029   ----------------------------------------
 BYTE   W96
//  #03 //030   ----------------------------------------
 BYTE   W96
//  #03 //031   ----------------------------------------
 BYTE   W96
//  #03 //032   ----------------------------------------
 BYTE   W96
//  #03 //033   ----------------------------------------
 BYTE   W96
//  #03 //034   ----------------------------------------
 BYTE   W96
//  #03 //035   ----------------------------------------
 BYTE   W96
//  #03 //036   ----------------------------------------
 BYTE   W96
//  #03 //037   ----------------------------------------
 BYTE   W96
//  #03 //038   ----------------------------------------
 BYTE   W96
//  #03 //039   ----------------------------------------
 BYTE   W96
//  #03 //040   ----------------------------------------
 BYTE   W96
//  #03 //041   ----------------------------------------
 BYTE   W96
//  #03 //042   ----------------------------------------
 BYTE   W96
//  #03 //043   ----------------------------------------
 BYTE   W96
//  #03 //044   ----------------------------------------
 BYTE   W96
//  #03 //045   ----------------------------------------
 BYTE   W96
//  #03 //046   ----------------------------------------
 BYTE   W24
 BYTE   N22  Fn3  v100
 BYTE   W24
 BYTE   Gn3
 BYTE   W24
 BYTE   An3
 BYTE   W24
//  #03 //047   ----------------------------------------
 BYTE   As3
 BYTE   W24
 BYTE   Cs4
 BYTE   W24
 BYTE   Fn4
 BYTE   W24
 BYTE   En4
 BYTE   W24
//  #03 //048   ----------------------------------------
 BYTE   N92  Dn4
 BYTE   W96
//  #03 //049   ----------------------------------------
 BYTE   N22
 BYTE   W24
 BYTE   En4
 BYTE   W24
 BYTE   Fn4
 BYTE   W24
 BYTE   Dn4
 BYTE   W24
//  #03 //050   ----------------------------------------
 BYTE   W96
//  #03 //051   ----------------------------------------
 BYTE   W72
 BYTE   An3
 BYTE   W24
//  #03 //052   ----------------------------------------
 BYTE   N32  Cn4
 BYTE   W36
 BYTE   N04  Dn4
 BYTE   W12
 BYTE   N68
 BYTE   W48
//  #03 //053   ----------------------------------------
 BYTE   W24
 BYTE   N22  An3
 BYTE   W24
 BYTE   Cn4
 BYTE   W24
 BYTE   Dn4
 BYTE   W24
//  #03 //054   ----------------------------------------
 BYTE   W96
//  #03 //055   ----------------------------------------
 BYTE   W96
//  #03 //056   ----------------------------------------
 BYTE   N32  Cn4
 BYTE   W36
 BYTE   N04  As3
 BYTE   W12
 BYTE   N68
 BYTE   W48
//  #03 //057   ----------------------------------------
 BYTE   W24
 BYTE   N22
 BYTE   W24
 BYTE   Cn4
 BYTE   W24
 BYTE   Dn4
 BYTE   W24
//  #03 //058   ----------------------------------------
 BYTE   N32  Fn4
 BYTE   W36
 BYTE   N10  En4
 BYTE   W12
 BYTE   N92  Dn4
 BYTE   W48
//  #03 //059   ----------------------------------------
 BYTE   W48
 BYTE   N22
 BYTE   W24
 BYTE   En4
 BYTE   W24
//  #03 //060   ----------------------------------------
 BYTE   N92  Fn4
 BYTE   W96
//  #03 //061   ----------------------------------------
 BYTE   N22
 BYTE   W24
 BYTE   En4
 BYTE   W24
 BYTE   Dn4
 BYTE   W24
 BYTE   Cs4
 BYTE   W24
//  #03 //062   ----------------------------------------
 BYTE   Dn4
 BYTE   W36
 BYTE   N04  En4
 BYTE   W12
 BYTE   N10
 BYTE   W12
 BYTE   TIE  Dn4
 BYTE   W36
//  #03 //063   ----------------------------------------
 BYTE   W92
 BYTE   W02
 BYTE   EOT
 BYTE   W02
//  #03 //064   ----------------------------------------
 BYTE   W96
//  #03 //065   ----------------------------------------
 BYTE   W96
//  #03 //066   ----------------------------------------
 BYTE   W96
//  #03 //067   ----------------------------------------
 BYTE   W84
 BYTE   N11  An2
 BYTE   W12
//  #03 //068   ----------------------------------------
 BYTE   Cn3
 BYTE   W12
 BYTE   N80  Dn3
 BYTE   W84
//  #03 //069   ----------------------------------------
 BYTE   N23  Fn3
 BYTE   W24
 BYTE   En3
 BYTE   W24
 BYTE   Dn3
 BYTE   W24
 BYTE   Cn3
 BYTE   W24
//  #03 //070   ----------------------------------------
 BYTE   N32  Dn3
 BYTE   W36
 BYTE   N56  An2
 BYTE   W60
//  #03 //071   ----------------------------------------
 BYTE   N23
 BYTE   W24
 BYTE   Cn3
 BYTE   W24
 BYTE   Dn3
 BYTE   W24
 BYTE   Fn3
 BYTE   W24
//  #03 //072   ----------------------------------------
 BYTE   N44  Gn3
 BYTE   W48
 BYTE   N23  An3
 BYTE   W24
 BYTE   Cn4
 BYTE   W24
//  #03 //073   ----------------------------------------
 BYTE   Fn4
 BYTE   W24
 BYTE   En4
 BYTE   W24
 BYTE   Dn4
 BYTE   W24
 BYTE   Cn4
 BYTE   W24
//  #03 //074   ----------------------------------------
 BYTE   N92  An3
 BYTE   W96
//  #03 //075   ----------------------------------------
 BYTE   W96
//  #03 //076   ----------------------------------------
 BYTE   W96
//  #03 //077   ----------------------------------------
 BYTE   W96
//  #03 //078   ----------------------------------------
 BYTE   W96
//  #03 //079   ----------------------------------------
 BYTE   W96
//  #03 //080   ----------------------------------------
 BYTE   GoTo
  POIN2 Label_01429E6E
//  #03 //081   ----------------------------------------
 BYTE   VOICE   48
 BYTE   PAN   c_v+0
 BYTE   VOL   34*TearsOfResolution_mvl/mxv
 BYTE   PAN   c_v+0
 BYTE   VOL   34*TearsOfResolution_mvl/mxv
 BYTE   PAN   c_v+0
 BYTE   VOL   34*TearsOfResolution_mvl/mxv
 BYTE   BEND   c_v+0
 BYTE   FINE

//**************** Track 4 (Midi-Chn.3) ****************//

TearsOfResolution_004:
//  #04 //000   ----------------------------------------
 BYTE   KEYSH   TearsOfResolution_key+0
 BYTE   VOICE   33
 BYTE   PAN   c_v+0
 BYTE   VOL   35*TearsOfResolution_mvl/mxv
 BYTE   PAN   c_v+0
 BYTE   VOL   35*TearsOfResolution_mvl/mxv
 BYTE   PAN   c_v+0
 BYTE   VOL   35*TearsOfResolution_mvl/mxv
 BYTE   PAN   c_v+0
 BYTE   VOL   35*TearsOfResolution_mvl/mxv
 BYTE   PAN   c_v+0
 BYTE   VOL   35*TearsOfResolution_mvl/mxv
 BYTE   BEND   c_v+0
 BYTE   N44  Dn2  v100
 BYTE   W96
//  #04 //001   ----------------------------------------
 BYTE   Cn2
 BYTE   W96
//  #04 //002   ----------------------------------------
 BYTE   As1
 BYTE   W96
//  #04 //003   ----------------------------------------
Label_0142A14E:
 BYTE   N22  As1  v100
 BYTE   W48
 BYTE   N22
 BYTE   W24
 BYTE   Cn2
 BYTE   W24
 BYTE   PEND 
//  #04 //004   ----------------------------------------
Label_0142A157:
 BYTE   N10  Dn2  v100
 BYTE   W12
 BYTE   N04
 BYTE   W12
 BYTE   N04
 BYTE   W12
 BYTE   N10
 BYTE   W12
 BYTE   N04
 BYTE   W12
 BYTE   N04
 BYTE   W12
 BYTE   N10
 BYTE   W12
 BYTE   N04
 BYTE   W12
 BYTE   PEND 
//  #04 //005   ----------------------------------------
 BYTE   PATT
  POIN2 Label_0142A157
//  #04 //006   ----------------------------------------
 BYTE   PATT
  POIN2 Label_0142A157
//  #04 //007   ----------------------------------------
 BYTE   N44  Fn2  v100
 BYTE   W48
 BYTE   N22  En2
 BYTE   W24
 BYTE   Cn2
 BYTE   W24
//  #04 //008   ----------------------------------------
Label_0142A17D:
 BYTE   N32  Dn2  v100
 BYTE   W36
 BYTE   N32
 BYTE   W36
 BYTE   N22
 BYTE   W24
 BYTE   PEND 
//  #04 //009   ----------------------------------------
 BYTE   PATT
  POIN2 Label_0142A17D
//  #04 //010   ----------------------------------------
Label_0142A18B:
 BYTE   N32  Cn2  v100
 BYTE   W36
 BYTE   N32
 BYTE   W36
 BYTE   N22
 BYTE   W24
 BYTE   PEND 
//  #04 //011   ----------------------------------------
Label_0142A194:
 BYTE   N44  Dn2  v100
 BYTE   W48
 BYTE   N22
 BYTE   W24
 BYTE   Cn2
 BYTE   W24
 BYTE   PEND 
//  #04 //012   ----------------------------------------
Label_0142A19D:
 BYTE   N32  As1  v100
 BYTE   W36
 BYTE   N32
 BYTE   W36
 BYTE   N22
 BYTE   W24
 BYTE   PEND 
//  #04 //013   ----------------------------------------
 BYTE   PATT
  POIN2 Label_0142A18B
//  #04 //014   ----------------------------------------
 BYTE   PATT
  POIN2 Label_0142A17D
//  #04 //015   ----------------------------------------
 BYTE   PATT
  POIN2 Label_0142A18B
//  #04 //016   ----------------------------------------
 BYTE   PATT
  POIN2 Label_0142A17D
//  #04 //017   ----------------------------------------
 BYTE   PATT
  POIN2 Label_0142A17D
//  #04 //018   ----------------------------------------
 BYTE   PATT
  POIN2 Label_0142A18B
//  #04 //019   ----------------------------------------
 BYTE   PATT
  POIN2 Label_0142A194
//  #04 //020   ----------------------------------------
 BYTE   PATT
  POIN2 Label_0142A19D
//  #04 //021   ----------------------------------------
 BYTE   PATT
  POIN2 Label_0142A18B
//  #04 //022   ----------------------------------------
 BYTE   PATT
  POIN2 Label_0142A17D
//  #04 //023   ----------------------------------------
 BYTE   PATT
  POIN2 Label_0142A18B
//  #04 //024   ----------------------------------------
 BYTE   PATT
  POIN2 Label_0142A19D
//  #04 //025   ----------------------------------------
 BYTE   PATT
  POIN2 Label_0142A18B
//  #04 //026   ----------------------------------------
 BYTE   PATT
  POIN2 Label_0142A19D
//  #04 //027   ----------------------------------------
 BYTE   PATT
  POIN2 Label_0142A18B
//  #04 //028   ----------------------------------------
 BYTE   PATT
  POIN2 Label_0142A19D
//  #04 //029   ----------------------------------------
 BYTE   PATT
  POIN2 Label_0142A18B
//  #04 //030   ----------------------------------------
 BYTE   PATT
  POIN2 Label_0142A19D
//  #04 //031   ----------------------------------------
 BYTE   PATT
  POIN2 Label_0142A18B
//  #04 //032   ----------------------------------------
 BYTE   PATT
  POIN2 Label_0142A17D
//  #04 //033   ----------------------------------------
 BYTE   PATT
  POIN2 Label_0142A17D
//  #04 //034   ----------------------------------------
 BYTE   PATT
  POIN2 Label_0142A18B
//  #04 //035   ----------------------------------------
 BYTE   PATT
  POIN2 Label_0142A18B
//  #04 //036   ----------------------------------------
 BYTE   PATT
  POIN2 Label_0142A19D
//  #04 //037   ----------------------------------------
 BYTE   PATT
  POIN2 Label_0142A19D
//  #04 //038   ----------------------------------------
Label_0142A223:
 BYTE   N32  An1  v100
 BYTE   W36
 BYTE   N32
 BYTE   W36
 BYTE   N22
 BYTE   W24
 BYTE   PEND 
//  #04 //039   ----------------------------------------
 BYTE   PATT
  POIN2 Label_0142A223
//  #04 //040   ----------------------------------------
 BYTE   PATT
  POIN2 Label_0142A19D
//  #04 //041   ----------------------------------------
 BYTE   PATT
  POIN2 Label_0142A19D
//  #04 //042   ----------------------------------------
 BYTE   PATT
  POIN2 Label_0142A223
//  #04 //043   ----------------------------------------
 BYTE   PATT
  POIN2 Label_0142A223
//  #04 //044   ----------------------------------------
 BYTE   PATT
  POIN2 Label_0142A19D
//  #04 //045   ----------------------------------------
 BYTE   PATT
  POIN2 Label_0142A19D
//  #04 //046   ----------------------------------------
 BYTE   PATT
  POIN2 Label_0142A223
//  #04 //047   ----------------------------------------
 BYTE   PATT
  POIN2 Label_0142A223
//  #04 //048   ----------------------------------------
 BYTE   PATT
  POIN2 Label_0142A17D
//  #04 //049   ----------------------------------------
 BYTE   PATT
  POIN2 Label_0142A17D
//  #04 //050   ----------------------------------------
 BYTE   PATT
  POIN2 Label_0142A18B
//  #04 //051   ----------------------------------------
 BYTE   PATT
  POIN2 Label_0142A18B
//  #04 //052   ----------------------------------------
 BYTE   PATT
  POIN2 Label_0142A19D
//  #04 //053   ----------------------------------------
 BYTE   PATT
  POIN2 Label_0142A19D
//  #04 //054   ----------------------------------------
 BYTE   PATT
  POIN2 Label_0142A223
//  #04 //055   ----------------------------------------
 BYTE   PATT
  POIN2 Label_0142A223
//  #04 //056   ----------------------------------------
 BYTE   PATT
  POIN2 Label_0142A19D
//  #04 //057   ----------------------------------------
 BYTE   PATT
  POIN2 Label_0142A19D
//  #04 //058   ----------------------------------------
 BYTE   PATT
  POIN2 Label_0142A223
//  #04 //059   ----------------------------------------
 BYTE   PATT
  POIN2 Label_0142A223
//  #04 //060   ----------------------------------------
 BYTE   PATT
  POIN2 Label_0142A19D
//  #04 //061   ----------------------------------------
 BYTE   PATT
  POIN2 Label_0142A19D
//  #04 //062   ----------------------------------------
 BYTE   PATT
  POIN2 Label_0142A223
//  #04 //063   ----------------------------------------
 BYTE   PATT
  POIN2 Label_0142A223
//  #04 //064   ----------------------------------------
 BYTE   PATT
  POIN2 Label_0142A19D
//  #04 //065   ----------------------------------------
 BYTE   PATT
  POIN2 Label_0142A19D
//  #04 //066   ----------------------------------------
 BYTE   PATT
  POIN2 Label_0142A223
//  #04 //067   ----------------------------------------
 BYTE   PATT
  POIN2 Label_0142A223
//  #04 //068   ----------------------------------------
 BYTE   PATT
  POIN2 Label_0142A19D
//  #04 //069   ----------------------------------------
 BYTE   PATT
  POIN2 Label_0142A19D
//  #04 //070   ----------------------------------------
 BYTE   PATT
  POIN2 Label_0142A223
//  #04 //071   ----------------------------------------
 BYTE   PATT
  POIN2 Label_0142A223
//  #04 //072   ----------------------------------------
 BYTE   PATT
  POIN2 Label_0142A19D
//  #04 //073   ----------------------------------------
 BYTE   PATT
  POIN2 Label_0142A19D
//  #04 //074   ----------------------------------------
 BYTE   PATT
  POIN2 Label_0142A223
//  #04 //075   ----------------------------------------
 BYTE   PATT
  POIN2 Label_0142A223
//  #04 //076   ----------------------------------------
 BYTE   N44  Dn2  v100
 BYTE   W96
//  #04 //077   ----------------------------------------
 BYTE   Cn2
 BYTE   W96
//  #04 //078   ----------------------------------------
 BYTE   As1
 BYTE   W96
//  #04 //079   ----------------------------------------
 BYTE   PATT
  POIN2 Label_0142A14E
//  #04 //080   ----------------------------------------
 BYTE   GoTo
  POIN2 Label_0142A157
//  #04 //081   ----------------------------------------
 BYTE   VOICE   33
 BYTE   PAN   c_v+0
 BYTE   VOL   35*TearsOfResolution_mvl/mxv
 BYTE   PAN   c_v+0
 BYTE   VOL   35*TearsOfResolution_mvl/mxv
 BYTE   PAN   c_v+0
 BYTE   VOL   35*TearsOfResolution_mvl/mxv
 BYTE   BEND   c_v+0
 BYTE   FINE

//**************** Track 5 (Midi-Chn.4) ****************//

TearsOfResolution_005:
//  #05 //000   ----------------------------------------
 BYTE   KEYSH   TearsOfResolution_key+0
 BYTE   VOICE   48
 BYTE   PAN   c_v+0
 BYTE   VOL   29*TearsOfResolution_mvl/mxv
 BYTE   PAN   c_v+0
 BYTE   VOL   29*TearsOfResolution_mvl/mxv
 BYTE   PAN   c_v+0
 BYTE   VOL   29*TearsOfResolution_mvl/mxv
 BYTE   PAN   c_v+0
 BYTE   VOL   29*TearsOfResolution_mvl/mxv
 BYTE   PAN   c_v+0
 BYTE   VOL   29*TearsOfResolution_mvl/mxv
 BYTE   BEND   c_v+0
 BYTE   N44  Dn3  v100
 BYTE   N44  Fn3
 BYTE   W96
//  #05 //001   ----------------------------------------
 BYTE   Dn3
 BYTE   N44  Fn3
 BYTE   W96
//  #05 //002   ----------------------------------------
 BYTE   Dn3
 BYTE   N44  Fn3
 BYTE   W96
//  #05 //003   ----------------------------------------
Label_010141BC:
 BYTE   N22  Fn3  v100
 BYTE   N22  An3
 BYTE   W48
 BYTE   En3
 BYTE   N22  Gn3
 BYTE   W48
 BYTE   PEND 
//  #05 //004   ----------------------------------------
Label_010141C7:
 BYTE   VOL   25*TearsOfResolution_mvl/mxv
 BYTE   N92  An2  v100
 BYTE   N92  Dn3
 BYTE   N92  An3
 BYTE   N92  Dn4
 BYTE   W12
 BYTE   VOL   27*TearsOfResolution_mvl/mxv
 BYTE   W12
 BYTE   VOL   29*TearsOfResolution_mvl/mxv
 BYTE   W12
 BYTE   VOL   32*TearsOfResolution_mvl/mxv
 BYTE   W12
 BYTE   VOL   33*TearsOfResolution_mvl/mxv
 BYTE   W12
 BYTE   VOL   31*TearsOfResolution_mvl/mxv
 BYTE   W12
 BYTE   VOL   27*TearsOfResolution_mvl/mxv
 BYTE   W12
 BYTE   VOL   22*TearsOfResolution_mvl/mxv
 BYTE   W12
//  #05 //005   ----------------------------------------
 BYTE   VOL   25*TearsOfResolution_mvl/mxv
 BYTE   N92  Dn2
 BYTE   N92  An2
 BYTE   N92  Dn3
 BYTE   N92  An3
 BYTE   W12
 BYTE   VOL   27*TearsOfResolution_mvl/mxv
 BYTE   W12
 BYTE   VOL   29*TearsOfResolution_mvl/mxv
 BYTE   W12
 BYTE   VOL   32*TearsOfResolution_mvl/mxv
 BYTE   W12
 BYTE   VOL   33*TearsOfResolution_mvl/mxv
 BYTE   W12
 BYTE   VOL   31*TearsOfResolution_mvl/mxv
 BYTE   W12
 BYTE   VOL   27*TearsOfResolution_mvl/mxv
 BYTE   W12
 BYTE   VOL   22*TearsOfResolution_mvl/mxv
 BYTE   W12
//  #05 //006   ----------------------------------------
 BYTE   VOL   25*TearsOfResolution_mvl/mxv
 BYTE   N92  Fn2
 BYTE   N92  As2
 BYTE   N92  Fn3
 BYTE   N92  As3
 BYTE   W12
 BYTE   VOL   27*TearsOfResolution_mvl/mxv
 BYTE   W12
 BYTE   VOL   29*TearsOfResolution_mvl/mxv
 BYTE   W12
 BYTE   VOL   32*TearsOfResolution_mvl/mxv
 BYTE   W12
 BYTE   VOL   33*TearsOfResolution_mvl/mxv
 BYTE   W12
 BYTE   VOL   31*TearsOfResolution_mvl/mxv
 BYTE   W12
 BYTE   VOL   27*TearsOfResolution_mvl/mxv
 BYTE   W12
 BYTE   VOL   22*TearsOfResolution_mvl/mxv
 BYTE   W12
//  #05 //007   ----------------------------------------
 BYTE   VOL   25*TearsOfResolution_mvl/mxv
 BYTE   N92  En2
 BYTE   N92  Gn2
 BYTE   N92  En3
 BYTE   N92  Gn3
 BYTE   W12
 BYTE   VOL   27*TearsOfResolution_mvl/mxv
 BYTE   W12
 BYTE   VOL   29*TearsOfResolution_mvl/mxv
 BYTE   W12
 BYTE   VOL   32*TearsOfResolution_mvl/mxv
 BYTE   W12
 BYTE   VOL   33*TearsOfResolution_mvl/mxv
 BYTE   W12
 BYTE   VOL   31*TearsOfResolution_mvl/mxv
 BYTE   W12
 BYTE   VOL   27*TearsOfResolution_mvl/mxv
 BYTE   W12
 BYTE   VOL   22*TearsOfResolution_mvl/mxv
 BYTE   W12
//  #05 //008   ----------------------------------------
 BYTE   VOL   29*TearsOfResolution_mvl/mxv
 BYTE   TIE  Fn2
 BYTE   TIE  An2
 BYTE   W96
//  #05 //009   ----------------------------------------
 BYTE   W92
 BYTE   W02
 BYTE   EOT
 BYTE   Fn2  v057
 BYTE   W02
//  #05 //010   ----------------------------------------
 BYTE   N92  En2
 BYTE   N92  Gn2
 BYTE   W96
//  #05 //011   ----------------------------------------
 BYTE   Fn2
 BYTE   N92  An2
 BYTE   W96
//  #05 //012   ----------------------------------------
 BYTE   Dn2
 BYTE   N92  Fn2
 BYTE   W96
//  #05 //013   ----------------------------------------
 BYTE   En2
 BYTE   N92  Gn2
 BYTE   W96
//  #05 //014   ----------------------------------------
 BYTE   Fn2
 BYTE   N92  An2
 BYTE   W96
//  #05 //015   ----------------------------------------
 BYTE   Gn2
 BYTE   N92  Cn3
 BYTE   W96
//  #05 //016   ----------------------------------------
 BYTE   TIE  Fn2
 BYTE   TIE  An2
 BYTE   W96
//  #05 //017   ----------------------------------------
 BYTE   W92
 BYTE   W02
 BYTE   EOT
 BYTE   Fn2  v057
 BYTE   W02
//  #05 //018   ----------------------------------------
 BYTE   N92  En2
 BYTE   N92  Gn2
 BYTE   W96
//  #05 //019   ----------------------------------------
 BYTE   Fn2
 BYTE   N92  An2
 BYTE   W96
//  #05 //020   ----------------------------------------
 BYTE   Dn2
 BYTE   N92  Fn2
 BYTE   W96
//  #05 //021   ----------------------------------------
 BYTE   En2
 BYTE   N92  Gn2
 BYTE   W96
//  #05 //022   ----------------------------------------
 BYTE   Fn2
 BYTE   N92  An2
 BYTE   W96
//  #05 //023   ----------------------------------------
 BYTE   Gn2
 BYTE   N92  Cn3
 BYTE   W96
//  #05 //024   ----------------------------------------
 BYTE   Dn2
 BYTE   N92  Fn2
 BYTE   W96
//  #05 //025   ----------------------------------------
 BYTE   En2
 BYTE   N92  Gn2
 BYTE   W96
//  #05 //026   ----------------------------------------
 BYTE   Dn2
 BYTE   N92  Fn2
 BYTE   W96
//  #05 //027   ----------------------------------------
 BYTE   En2
 BYTE   N92  Gn2
 BYTE   W96
//  #05 //028   ----------------------------------------
 BYTE   Dn2
 BYTE   N92  Fn2
 BYTE   W96
//  #05 //029   ----------------------------------------
 BYTE   En2
 BYTE   N92  Gn2
 BYTE   W96
//  #05 //030   ----------------------------------------
 BYTE   Dn2
 BYTE   N92  Fn2
 BYTE   W96
//  #05 //031   ----------------------------------------
 BYTE   En2
 BYTE   N92  Gn2
 BYTE   W96
//  #05 //032   ----------------------------------------
Label_01014296:
 BYTE   TIE  Dn2  v100
 BYTE   TIE  Fn2
 BYTE   W96
 BYTE   PEND 
//  #05 //033   ----------------------------------------
 BYTE   W92
 BYTE   W02
 BYTE   EOT
 BYTE   Dn2  v053
 BYTE   W02
//  #05 //034   ----------------------------------------
Label_010142A3:
 BYTE   TIE  Cn2  v100
 BYTE   TIE  En2
 BYTE   W96
 BYTE   PEND 
//  #05 //035   ----------------------------------------
 BYTE   W92
 BYTE   W02
 BYTE   EOT
 BYTE   Cn2  v052
 BYTE   W02
//  #05 //036   ----------------------------------------
Label_010142B0:
 BYTE   TIE  As1  v100
 BYTE   TIE  Dn2
 BYTE   W96
 BYTE   PEND 
//  #05 //037   ----------------------------------------
 BYTE   W92
 BYTE   W02
 BYTE   EOT
 BYTE   As1  v050
 BYTE   W02
//  #05 //038   ----------------------------------------
Label_010142BD:
 BYTE   TIE  Cn2  v100
 BYTE   TIE  Fn2
 BYTE   W96
 BYTE   PEND 
//  #05 //039   ----------------------------------------
 BYTE   W92
 BYTE   W02
 BYTE   EOT
 BYTE   Cn2  v053
 BYTE   W02
//  #05 //040   ----------------------------------------
Label_010142CA:
 BYTE   TIE  As1  v100
 BYTE   TIE  Gn2
 BYTE   W96
 BYTE   PEND 
//  #05 //041   ----------------------------------------
 BYTE   W92
 BYTE   W02
 BYTE   EOT
 BYTE   As1  v055
 BYTE   W02
//  #05 //042   ----------------------------------------
Label_010142D7:
 BYTE   TIE  An1  v100
 BYTE   TIE  Fn2
 BYTE   W96
 BYTE   PEND 
//  #05 //043   ----------------------------------------
 BYTE   W92
 BYTE   W02
 BYTE   EOT
 BYTE   An1  v053
 BYTE   W02
//  #05 //044   ----------------------------------------
 BYTE   PATT
  POIN2 Label_010142CA
//  #05 //045   ----------------------------------------
 BYTE   W92
 BYTE   W02
 BYTE   EOT
 BYTE   As1  v055
 BYTE   W02
//  #05 //046   ----------------------------------------
 BYTE   N92  An1  v100
 BYTE   N92  Dn2
 BYTE   W96
//  #05 //047   ----------------------------------------
 BYTE   An1
 BYTE   N92  Cs2
 BYTE   W96
//  #05 //048   ----------------------------------------
 BYTE   PATT
  POIN2 Label_01014296
//  #05 //049   ----------------------------------------
 BYTE   W92
 BYTE   W02
 BYTE   EOT
 BYTE   Dn2  v053
 BYTE   W02
//  #05 //050   ----------------------------------------
 BYTE   PATT
  POIN2 Label_010142A3
//  #05 //051   ----------------------------------------
 BYTE   W92
 BYTE   W02
 BYTE   EOT
 BYTE   Cn2  v052
 BYTE   W02
//  #05 //052   ----------------------------------------
 BYTE   PATT
  POIN2 Label_010142B0
//  #05 //053   ----------------------------------------
 BYTE   W92
 BYTE   W02
 BYTE   EOT
 BYTE   As1  v050
 BYTE   W02
//  #05 //054   ----------------------------------------
 BYTE   PATT
  POIN2 Label_010142BD
//  #05 //055   ----------------------------------------
 BYTE   W92
 BYTE   W02
 BYTE   EOT
 BYTE   Cn2  v053
 BYTE   W02
//  #05 //056   ----------------------------------------
 BYTE   PATT
  POIN2 Label_010142CA
//  #05 //057   ----------------------------------------
 BYTE   W92
 BYTE   W02
 BYTE   EOT
 BYTE   As1  v055
 BYTE   W02
//  #05 //058   ----------------------------------------
 BYTE   PATT
  POIN2 Label_010142D7
//  #05 //059   ----------------------------------------
 BYTE   W92
 BYTE   W02
 BYTE   EOT
 BYTE   An1  v053
 BYTE   W02
//  #05 //060   ----------------------------------------
 BYTE   PATT
  POIN2 Label_010142CA
//  #05 //061   ----------------------------------------
 BYTE   W92
 BYTE   W02
 BYTE   EOT
 BYTE   As1  v055
 BYTE   W02
//  #05 //062   ----------------------------------------
 BYTE   N92  An1  v100
 BYTE   N92  Gn2
 BYTE   W96
//  #05 //063   ----------------------------------------
 BYTE   An1
 BYTE   N92  Fn2
 BYTE   W96
//  #05 //064   ----------------------------------------
 BYTE   PATT
  POIN2 Label_010142CA
//  #05 //065   ----------------------------------------
 BYTE   W92
 BYTE   W02
 BYTE   EOT
 BYTE   As1  v055
 BYTE   W02
//  #05 //066   ----------------------------------------
 BYTE   PATT
  POIN2 Label_010142D7
//  #05 //067   ----------------------------------------
 BYTE   W92
 BYTE   W02
 BYTE   EOT
 BYTE   An1  v053
 BYTE   W02
//  #05 //068   ----------------------------------------
 BYTE   PATT
  POIN2 Label_010142CA
//  #05 //069   ----------------------------------------
 BYTE   W92
 BYTE   W02
 BYTE   EOT
 BYTE   As1  v055
 BYTE   W02
//  #05 //070   ----------------------------------------
 BYTE   PATT
  POIN2 Label_010142D7
//  #05 //071   ----------------------------------------
 BYTE   W92
 BYTE   W02
 BYTE   EOT
 BYTE   An1  v053
 BYTE   W02
//  #05 //072   ----------------------------------------
 BYTE   PATT
  POIN2 Label_010142CA
//  #05 //073   ----------------------------------------
 BYTE   W92
 BYTE   W02
 BYTE   EOT
 BYTE   As1  v055
 BYTE   W02
//  #05 //074   ----------------------------------------
 BYTE   TIE  An1  v100
 BYTE   TIE  Dn2
 BYTE   W96
//  #05 //075   ----------------------------------------
 BYTE   W92
 BYTE   W02
 BYTE   EOT
 BYTE   An1  v050
 BYTE   W02
//  #05 //076   ----------------------------------------
 BYTE   N44  Dn3
 BYTE   N44  Fn3
 BYTE   W96
//  #05 //077   ----------------------------------------
 BYTE   Dn3
 BYTE   N44  Fn3
 BYTE   W96
//  #05 //078   ----------------------------------------
 BYTE   Dn3
 BYTE   N44  Fn3
 BYTE   W96
//  #05 //079   ----------------------------------------
 BYTE   PATT
  POIN2 Label_010141BC
//  #05 //080   ----------------------------------------
 BYTE   GoTo
  POIN2 Label_010141C7
//  #05 //081   ----------------------------------------
 BYTE   VOICE   48
 BYTE   PAN   c_v+0
 BYTE   VOL   29*TearsOfResolution_mvl/mxv
 BYTE   PAN   c_v+0
 BYTE   VOL   29*TearsOfResolution_mvl/mxv
 BYTE   PAN   c_v+0
 BYTE   VOL   29*TearsOfResolution_mvl/mxv
 BYTE   BEND   c_v+0
 BYTE   FINE

//**************** Track 6 (Midi-Chn.5) ****************//

TearsOfResolution_006:
//  #06 //000   ----------------------------------------
 BYTE   KEYSH   TearsOfResolution_key+0
 BYTE   VOICE   34
 BYTE   PAN   c_v+0
 BYTE   VOL   31*TearsOfResolution_mvl/mxv
 BYTE   PAN   c_v+0
 BYTE   VOL   31*TearsOfResolution_mvl/mxv
 BYTE   PAN   c_v+0
 BYTE   VOL   31*TearsOfResolution_mvl/mxv
 BYTE   PAN   c_v+0
 BYTE   VOL   31*TearsOfResolution_mvl/mxv
 BYTE   PAN   c_v+0
 BYTE   VOL   31*TearsOfResolution_mvl/mxv
 BYTE   BEND   c_v+0
 BYTE   W96
//  #06 //001   ----------------------------------------
 BYTE   W96
//  #06 //002   ----------------------------------------
 BYTE   W96
//  #06 //003   ----------------------------------------
 BYTE   W96
//  #06 //004   ----------------------------------------
Label_01429A16:
 BYTE   N04  Fs1  v100
 BYTE   W12
 BYTE   N04
 BYTE   W12
 BYTE   N04
 BYTE   W12
 BYTE   N04
 BYTE   W12
 BYTE   N04
 BYTE   W12
 BYTE   N04
 BYTE   W12
 BYTE   N04
 BYTE   W12
 BYTE   N04
 BYTE   W12
 BYTE   PEND 
//  #06 //005   ----------------------------------------
 BYTE   PATT
  POIN2 Label_01429A16
//  #06 //006   ----------------------------------------
 BYTE   PATT
  POIN2 Label_01429A16
//  #06 //007   ----------------------------------------
 BYTE   PATT
  POIN2 Label_01429A16
//  #06 //008   ----------------------------------------
 BYTE   PATT
  POIN2 Label_01429A16
//  #06 //009   ----------------------------------------
 BYTE   PATT
  POIN2 Label_01429A16
//  #06 //010   ----------------------------------------
 BYTE   PATT
  POIN2 Label_01429A16
//  #06 //011   ----------------------------------------
 BYTE   PATT
  POIN2 Label_01429A16
//  #06 //012   ----------------------------------------
 BYTE   PATT
  POIN2 Label_01429A16
//  #06 //013   ----------------------------------------
 BYTE   PATT
  POIN2 Label_01429A16
//  #06 //014   ----------------------------------------
 BYTE   PATT
  POIN2 Label_01429A16
//  #06 //015   ----------------------------------------
 BYTE   PATT
  POIN2 Label_01429A16
//  #06 //016   ----------------------------------------
 BYTE   PATT
  POIN2 Label_01429A16
//  #06 //017   ----------------------------------------
 BYTE   PATT
  POIN2 Label_01429A16
//  #06 //018   ----------------------------------------
 BYTE   PATT
  POIN2 Label_01429A16
//  #06 //019   ----------------------------------------
 BYTE   PATT
  POIN2 Label_01429A16
//  #06 //020   ----------------------------------------
 BYTE   PATT
  POIN2 Label_01429A16
//  #06 //021   ----------------------------------------
 BYTE   PATT
  POIN2 Label_01429A16
//  #06 //022   ----------------------------------------
 BYTE   PATT
  POIN2 Label_01429A16
//  #06 //023   ----------------------------------------
 BYTE   PATT
  POIN2 Label_01429A16
//  #06 //024   ----------------------------------------
Label_01429A88:
 BYTE   N04  Fs1  v100
 BYTE   W12
 BYTE   As1
 BYTE   W12
 BYTE   Fs1
 BYTE   W12
 BYTE   As1
 BYTE   W12
 BYTE   Fs1
 BYTE   W12
 BYTE   As1
 BYTE   W12
 BYTE   Fs1
 BYTE   W12
 BYTE   As1
 BYTE   W12
 BYTE   PEND 
//  #06 //025   ----------------------------------------
 BYTE   PATT
  POIN2 Label_01429A88
//  #06 //026   ----------------------------------------
 BYTE   PATT
  POIN2 Label_01429A88
//  #06 //027   ----------------------------------------
 BYTE   PATT
  POIN2 Label_01429A88
//  #06 //028   ----------------------------------------
Label_01429AAA:
 BYTE   N04  Fs1  v100
 BYTE   W06
 BYTE   N04
 BYTE   W06
 BYTE   As1
 BYTE   W24
 BYTE   N04
 BYTE   W12
 BYTE   Fs1
 BYTE   W12
 BYTE   As1
 BYTE   W06
 BYTE   Fs1
 BYTE   W06
 BYTE   N04
 BYTE   W12
 BYTE   As1
 BYTE   W12
 BYTE   PEND 
//  #06 //029   ----------------------------------------
 BYTE   PATT
  POIN2 Label_01429AAA
//  #06 //030   ----------------------------------------
 BYTE   PATT
  POIN2 Label_01429AAA
//  #06 //031   ----------------------------------------
 BYTE   PATT
  POIN2 Label_01429A88
//  #06 //032   ----------------------------------------
Label_01429ACE:
 BYTE   N04  Fs1  v100
 BYTE   W12
 BYTE   N04
 BYTE   W12
 BYTE   N04
 BYTE   W12
 BYTE   N04
 BYTE   W12
 BYTE   N04
 BYTE   W12
 BYTE   N04
 BYTE   W12
 BYTE   N04
 BYTE   W12
 BYTE   As1
 BYTE   W12
 BYTE   PEND 
//  #06 //033   ----------------------------------------
 BYTE   PATT
  POIN2 Label_01429ACE
//  #06 //034   ----------------------------------------
 BYTE   PATT
  POIN2 Label_01429ACE
//  #06 //035   ----------------------------------------
 BYTE   PATT
  POIN2 Label_01429ACE
//  #06 //036   ----------------------------------------
 BYTE   PATT
  POIN2 Label_01429ACE
//  #06 //037   ----------------------------------------
 BYTE   PATT
  POIN2 Label_01429ACE
//  #06 //038   ----------------------------------------
 BYTE   PATT
  POIN2 Label_01429ACE
//  #06 //039   ----------------------------------------
 BYTE   PATT
  POIN2 Label_01429ACE
//  #06 //040   ----------------------------------------
 BYTE   PATT
  POIN2 Label_01429ACE
//  #06 //041   ----------------------------------------
 BYTE   PATT
  POIN2 Label_01429ACE
//  #06 //042   ----------------------------------------
 BYTE   PATT
  POIN2 Label_01429ACE
//  #06 //043   ----------------------------------------
 BYTE   PATT
  POIN2 Label_01429ACE
//  #06 //044   ----------------------------------------
 BYTE   PATT
  POIN2 Label_01429ACE
//  #06 //045   ----------------------------------------
 BYTE   PATT
  POIN2 Label_01429ACE
//  #06 //046   ----------------------------------------
 BYTE   PATT
  POIN2 Label_01429ACE
//  #06 //047   ----------------------------------------
 BYTE   PATT
  POIN2 Label_01429ACE
//  #06 //048   ----------------------------------------
 BYTE   PATT
  POIN2 Label_01429ACE
//  #06 //049   ----------------------------------------
 BYTE   PATT
  POIN2 Label_01429ACE
//  #06 //050   ----------------------------------------
 BYTE   PATT
  POIN2 Label_01429ACE
//  #06 //051   ----------------------------------------
 BYTE   PATT
  POIN2 Label_01429ACE
//  #06 //052   ----------------------------------------
 BYTE   PATT
  POIN2 Label_01429ACE
//  #06 //053   ----------------------------------------
 BYTE   PATT
  POIN2 Label_01429ACE
//  #06 //054   ----------------------------------------
 BYTE   PATT
  POIN2 Label_01429ACE
//  #06 //055   ----------------------------------------
 BYTE   PATT
  POIN2 Label_01429ACE
//  #06 //056   ----------------------------------------
 BYTE   PATT
  POIN2 Label_01429ACE
//  #06 //057   ----------------------------------------
 BYTE   PATT
  POIN2 Label_01429ACE
//  #06 //058   ----------------------------------------
 BYTE   PATT
  POIN2 Label_01429ACE
//  #06 //059   ----------------------------------------
 BYTE   PATT
  POIN2 Label_01429ACE
//  #06 //060   ----------------------------------------
 BYTE   PATT
  POIN2 Label_01429ACE
//  #06 //061   ----------------------------------------
 BYTE   PATT
  POIN2 Label_01429ACE
//  #06 //062   ----------------------------------------
 BYTE   PATT
  POIN2 Label_01429ACE
//  #06 //063   ----------------------------------------
 BYTE   PATT
  POIN2 Label_01429ACE
//  #06 //064   ----------------------------------------
 BYTE   PATT
  POIN2 Label_01429ACE
//  #06 //065   ----------------------------------------
 BYTE   PATT
  POIN2 Label_01429ACE
//  #06 //066   ----------------------------------------
 BYTE   PATT
  POIN2 Label_01429ACE
//  #06 //067   ----------------------------------------
 BYTE   PATT
  POIN2 Label_01429ACE
//  #06 //068   ----------------------------------------
 BYTE   PATT
  POIN2 Label_01429ACE
//  #06 //069   ----------------------------------------
 BYTE   PATT
  POIN2 Label_01429ACE
//  #06 //070   ----------------------------------------
 BYTE   PATT
  POIN2 Label_01429ACE
//  #06 //071   ----------------------------------------
 BYTE   PATT
  POIN2 Label_01429ACE
//  #06 //072   ----------------------------------------
 BYTE   PATT
  POIN2 Label_01429ACE
//  #06 //073   ----------------------------------------
 BYTE   PATT
  POIN2 Label_01429ACE
//  #06 //074   ----------------------------------------
 BYTE   PATT
  POIN2 Label_01429ACE
//  #06 //075   ----------------------------------------
 BYTE   W96
//  #06 //076   ----------------------------------------
 BYTE   PATT
  POIN2 Label_01429A16
//  #06 //077   ----------------------------------------
 BYTE   PATT
  POIN2 Label_01429A16
//  #06 //078   ----------------------------------------
 BYTE   PATT
  POIN2 Label_01429A16
//  #06 //079   ----------------------------------------
 BYTE   PATT
  POIN2 Label_01429A16
//  #06 //080   ----------------------------------------
 BYTE   GoTo
  POIN2 Label_01429A16
//  #06 //081   ----------------------------------------
 BYTE   VOICE   34
 BYTE   PAN   c_v+0
 BYTE   VOL   31*TearsOfResolution_mvl/mxv
 BYTE   PAN   c_v+0
 BYTE   VOL   31*TearsOfResolution_mvl/mxv
 BYTE   PAN   c_v+0
 BYTE   VOL   31*TearsOfResolution_mvl/mxv
 BYTE   BEND   c_v+0
 BYTE   FINE

//**************** Track 7 (Midi-Chn.6) ****************//

TearsOfResolution_007:
//  #07 //000   ----------------------------------------
 BYTE   KEYSH   TearsOfResolution_key+0
 BYTE   VOICE   124
 BYTE   PAN   c_v+0
 BYTE   VOL   32*TearsOfResolution_mvl/mxv
 BYTE   PAN   c_v+0
 BYTE   VOL   32*TearsOfResolution_mvl/mxv
 BYTE   PAN   c_v+0
 BYTE   VOL   32*TearsOfResolution_mvl/mxv
 BYTE   PAN   c_v+0
 BYTE   VOL   32*TearsOfResolution_mvl/mxv
 BYTE   PAN   c_v+0
 BYTE   VOL   32*TearsOfResolution_mvl/mxv
 BYTE   BEND   c_v+0
 BYTE   N04  Bn4  v100
 BYTE   W48
 BYTE   N04
 BYTE   W48
//  #07 //001   ----------------------------------------
Label_010143EC:
 BYTE   N04  Bn4  v100
 BYTE   W48
 BYTE   N04
 BYTE   W48
 BYTE   PEND 
//  #07 //002   ----------------------------------------
 BYTE   PATT
  POIN2 Label_010143EC
//  #07 //003   ----------------------------------------
 BYTE   N04  Bn4  v100
 BYTE   W48
 BYTE   Dn1
 BYTE   N04  Bn4
 BYTE   W12
 BYTE   Cn1  v120
 BYTE   W12
 BYTE   Dn1  v100
 BYTE   W12
 BYTE   Cn1  v120
 BYTE   W12
//  #07 //004   ----------------------------------------
Label_01014409:
 BYTE   N04  Cn1  v120
 BYTE   W36
 BYTE   N04
 BYTE   W24
 BYTE   N04
 BYTE   W12
 BYTE   Dn1  v100
 BYTE   W12
 BYTE   Cn1  v120
 BYTE   W12
 BYTE   PEND 
//  #07 //005   ----------------------------------------
 BYTE   PATT
  POIN2 Label_01014409
//  #07 //006   ----------------------------------------
 BYTE   PATT
  POIN2 Label_01014409
//  #07 //007   ----------------------------------------
 BYTE   PATT
  POIN2 Label_01014409
//  #07 //008   ----------------------------------------
Label_01014427:
 BYTE   N04  Cn1  v120
 BYTE   W36
 BYTE   N04
 BYTE   W36
 BYTE   N04
 BYTE   N04  Dn1  v100
 BYTE   W24
 BYTE   PEND 
//  #07 //009   ----------------------------------------
 BYTE   PATT
  POIN2 Label_01014427
//  #07 //010   ----------------------------------------
 BYTE   PATT
  POIN2 Label_01014427
//  #07 //011   ----------------------------------------
Label_0101443D:
 BYTE   N04  Cn1  v120
 BYTE   W36
 BYTE   N04
 BYTE   W36
 BYTE   N04
 BYTE   N04  Dn1  v100
 BYTE   W12
 BYTE   Cn1  v120
 BYTE   W12
 BYTE   PEND 
//  #07 //012   ----------------------------------------
 BYTE   PATT
  POIN2 Label_01014427
//  #07 //013   ----------------------------------------
 BYTE   PATT
  POIN2 Label_0101443D
//  #07 //014   ----------------------------------------
 BYTE   PATT
  POIN2 Label_01014427
//  #07 //015   ----------------------------------------
 BYTE   PATT
  POIN2 Label_0101443D
//  #07 //016   ----------------------------------------
 BYTE   PATT
  POIN2 Label_01014427
//  #07 //017   ----------------------------------------
 BYTE   PATT
  POIN2 Label_0101443D
//  #07 //018   ----------------------------------------
 BYTE   PATT
  POIN2 Label_01014427
//  #07 //019   ----------------------------------------
 BYTE   PATT
  POIN2 Label_0101443D
//  #07 //020   ----------------------------------------
 BYTE   PATT
  POIN2 Label_01014427
//  #07 //021   ----------------------------------------
 BYTE   PATT
  POIN2 Label_0101443D
//  #07 //022   ----------------------------------------
 BYTE   PATT
  POIN2 Label_01014427
//  #07 //023   ----------------------------------------
 BYTE   PATT
  POIN2 Label_0101443D
//  #07 //024   ----------------------------------------
Label_01014488:
 BYTE   N04  Cn1  v120
 BYTE   W24
 BYTE   N04
 BYTE   N04  Dn1  v100
 BYTE   W24
 BYTE   Cn1  v120
 BYTE   W24
 BYTE   N04
 BYTE   N04  Dn1  v100
 BYTE   W24
 BYTE   PEND 
//  #07 //025   ----------------------------------------
 BYTE   PATT
  POIN2 Label_01014488
//  #07 //026   ----------------------------------------
 BYTE   PATT
  POIN2 Label_01014488
//  #07 //027   ----------------------------------------
 BYTE   PATT
  POIN2 Label_01014488
//  #07 //028   ----------------------------------------
Label_010144A9:
 BYTE   N04  Cn1  v120
 BYTE   N04  Dn1  v100
 BYTE   W12
 BYTE   Cn1  v120
 BYTE   W12
 BYTE   N04
 BYTE   N04  Dn1  v100
 BYTE   W12
 BYTE   Cn1  v120
 BYTE   W12
 BYTE   N04
 BYTE   N04  Dn1  v100
 BYTE   W12
 BYTE   Cn1  v120
 BYTE   W12
 BYTE   N04
 BYTE   N04  Dn1  v100
 BYTE   W12
 BYTE   Cn1  v120
 BYTE   W12
 BYTE   PEND 
//  #07 //029   ----------------------------------------
 BYTE   PATT
  POIN2 Label_010144A9
//  #07 //030   ----------------------------------------
 BYTE   PATT
  POIN2 Label_010144A9
//  #07 //031   ----------------------------------------
 BYTE   N04  Cn1  v120
 BYTE   N04  Dn1  v100
 BYTE   W12
 BYTE   Cn1  v120
 BYTE   N04  Dn1  v100
 BYTE   W12
 BYTE   Cn1  v120
 BYTE   W12
 BYTE   N04
 BYTE   N04  Dn1  v100
 BYTE   W12
 BYTE   Cn1  v120
 BYTE   N04  Dn1  v100
 BYTE   W12
 BYTE   Cn1  v120
 BYTE   W12
 BYTE   N04
 BYTE   N04  Dn1  v100
 BYTE   W06
 BYTE   N04
 BYTE   W06
 BYTE   Cn1  v120
 BYTE   N04  Dn1  v100
 BYTE   W06
 BYTE   N04
 BYTE   W06
//  #07 //032   ----------------------------------------
Label_01014503:
 BYTE   N04  Cn1  v120
 BYTE   N04  Dn1  v100
 BYTE   W36
 BYTE   N04
 BYTE   W36
 BYTE   N04
 BYTE   W12
 BYTE   Cn1  v120
 BYTE   W12
 BYTE   PEND 
//  #07 //033   ----------------------------------------
 BYTE   PATT
  POIN2 Label_01014503
//  #07 //034   ----------------------------------------
 BYTE   PATT
  POIN2 Label_01014503
//  #07 //035   ----------------------------------------
Label_0101451C:
 BYTE   N04  Cn1  v120
 BYTE   N04  Dn1  v100
 BYTE   W36
 BYTE   Cn1  v120
 BYTE   N04  Dn1  v100
 BYTE   W12
 BYTE   Cn1  v120
 BYTE   W12
 BYTE   N04
 BYTE   W12
 BYTE   N04
 BYTE   N04  Dn1  v100
 BYTE   W12
 BYTE   Cn1  v120
 BYTE   W12
 BYTE   PEND 
//  #07 //036   ----------------------------------------
 BYTE   PATT
  POIN2 Label_01014503
//  #07 //037   ----------------------------------------
 BYTE   PATT
  POIN2 Label_01014503
//  #07 //038   ----------------------------------------
 BYTE   PATT
  POIN2 Label_01014503
//  #07 //039   ----------------------------------------
 BYTE   PATT
  POIN2 Label_01014503
//  #07 //040   ----------------------------------------
 BYTE   PATT
  POIN2 Label_01014503
//  #07 //041   ----------------------------------------
 BYTE   PATT
  POIN2 Label_01014503
//  #07 //042   ----------------------------------------
 BYTE   PATT
  POIN2 Label_01014503
//  #07 //043   ----------------------------------------
 BYTE   PATT
  POIN2 Label_01014503
//  #07 //044   ----------------------------------------
 BYTE   PATT
  POIN2 Label_01014503
//  #07 //045   ----------------------------------------
 BYTE   PATT
  POIN2 Label_01014503
//  #07 //046   ----------------------------------------
 BYTE   PATT
  POIN2 Label_01014503
//  #07 //047   ----------------------------------------
 BYTE   N04  Cn1  v120
 BYTE   N04  Dn1  v100
 BYTE   W36
 BYTE   N04
 BYTE   W36
 BYTE   Cn1  v120
 BYTE   N04  Dn1  v100
 BYTE   W06
 BYTE   N04
 BYTE   W06
 BYTE   Cn1  v120
 BYTE   N04  Dn1  v100
 BYTE   W06
 BYTE   N04
 BYTE   W06
//  #07 //048   ----------------------------------------
 BYTE   PATT
  POIN2 Label_01014503
//  #07 //049   ----------------------------------------
 BYTE   PATT
  POIN2 Label_01014503
//  #07 //050   ----------------------------------------
 BYTE   PATT
  POIN2 Label_01014503
//  #07 //051   ----------------------------------------
 BYTE   PATT
  POIN2 Label_0101451C
//  #07 //052   ----------------------------------------
 BYTE   PATT
  POIN2 Label_01014503
//  #07 //053   ----------------------------------------
 BYTE   PATT
  POIN2 Label_01014503
//  #07 //054   ----------------------------------------
 BYTE   PATT
  POIN2 Label_01014503
//  #07 //055   ----------------------------------------
 BYTE   PATT
  POIN2 Label_01014503
//  #07 //056   ----------------------------------------
 BYTE   PATT
  POIN2 Label_01014503
//  #07 //057   ----------------------------------------
 BYTE   PATT
  POIN2 Label_01014503
//  #07 //058   ----------------------------------------
 BYTE   PATT
  POIN2 Label_01014503
//  #07 //059   ----------------------------------------
 BYTE   PATT
  POIN2 Label_01014503
//  #07 //060   ----------------------------------------
 BYTE   PATT
  POIN2 Label_01014503
//  #07 //061   ----------------------------------------
 BYTE   PATT
  POIN2 Label_01014503
//  #07 //062   ----------------------------------------
 BYTE   PATT
  POIN2 Label_01014503
//  #07 //063   ----------------------------------------
Label_010145D2:
 BYTE   N04  Cn1  v120
 BYTE   N04  Dn1  v100
 BYTE   W36
 BYTE   N04
 BYTE   W36
 BYTE   Cn1  v120
 BYTE   N04  Dn1  v100
 BYTE   W12
 BYTE   Cn1  v120
 BYTE   W12
 BYTE   PEND 
//  #07 //064   ----------------------------------------
 BYTE   PATT
  POIN2 Label_010145D2
//  #07 //065   ----------------------------------------
 BYTE   PATT
  POIN2 Label_01014503
//  #07 //066   ----------------------------------------
 BYTE   PATT
  POIN2 Label_010145D2
//  #07 //067   ----------------------------------------
 BYTE   PATT
  POIN2 Label_01014503
//  #07 //068   ----------------------------------------
 BYTE   PATT
  POIN2 Label_010145D2
//  #07 //069   ----------------------------------------
 BYTE   PATT
  POIN2 Label_01014503
//  #07 //070   ----------------------------------------
 BYTE   PATT
  POIN2 Label_010145D2
//  #07 //071   ----------------------------------------
 BYTE   PATT
  POIN2 Label_01014503
//  #07 //072   ----------------------------------------
 BYTE   PATT
  POIN2 Label_010145D2
//  #07 //073   ----------------------------------------
 BYTE   PATT
  POIN2 Label_01014503
//  #07 //074   ----------------------------------------
 BYTE   PATT
  POIN2 Label_01014503
//  #07 //075   ----------------------------------------
 BYTE   N04  Cn1  v120
 BYTE   W12
 BYTE   Dn1  v028
 BYTE   W12
 BYTE   Dn1  v040
 BYTE   W12
 BYTE   Dn1  v052
 BYTE   W12
 BYTE   Dn1  v068
 BYTE   W12
 BYTE   Dn1  v080
 BYTE   W12
 BYTE   Dn1  v100
 BYTE   W06
 BYTE   N04
 BYTE   W06
 BYTE   N04
 BYTE   W12
//  #07 //076   ----------------------------------------
Label_01014636:
 BYTE   N04  Cn1  v120
 BYTE   N04  Bn4  v100
 BYTE   W36
 BYTE   Cn1  v120
 BYTE   W12
 BYTE   Bn4  v100
 BYTE   W12
 BYTE   Cn1  v120
 BYTE   W12
 BYTE   Dn1  v100
 BYTE   W12
 BYTE   Cn1  v120
 BYTE   W12
 BYTE   PEND 
//  #07 //077   ----------------------------------------
 BYTE   PATT
  POIN2 Label_01014636
//  #07 //078   ----------------------------------------
 BYTE   PATT
  POIN2 Label_01014636
//  #07 //079   ----------------------------------------
 BYTE   PATT
  POIN2 Label_01014636
//  #07 //080   ----------------------------------------
 BYTE   GoTo
  POIN2 Label_01014409
//  #07 //081   ----------------------------------------
 BYTE   VOICE   124
 BYTE   PAN   c_v+0
 BYTE   VOL   32*TearsOfResolution_mvl/mxv
 BYTE   PAN   c_v+0
 BYTE   VOL   32*TearsOfResolution_mvl/mxv
 BYTE   PAN   c_v+0
 BYTE   VOL   32*TearsOfResolution_mvl/mxv
 BYTE   BEND   c_v+0
 BYTE   FINE

//******************************************************//
	ALIGN 4

TearsOfResolution:
	BYTE	7	// NumTrks
	BYTE	0	// NumBlks
	BYTE	TearsOfResolution_pri	// Priority
	BYTE	TearsOfResolution_rev	// Reverb.
    
	POIN2	TearsOfResolution_grp
    
	POIN2	TearsOfResolution_001
	POIN2	TearsOfResolution_002
	POIN2	TearsOfResolution_003
	POIN2	TearsOfResolution_004
	POIN2	TearsOfResolution_005
	POIN2	TearsOfResolution_006
	POIN2	TearsOfResolution_007

	
