//Event file generated from Sappy .s format.
	#include "MPlayDef.event"

	#define	Terra_grp  voicegroup000
	#define	Terra_pri  0
	#define	Terra_rev  0
	#define	Terra_mvl  127
	#define	Terra_key  0
	#define	Terra_tbs  1
	#define	Terra_exg  0
	#define	Terra_cmp  1

	// .rodata
	//	Terra
	ALIGN 4


//**************** Track 1 (Midi-Chn.0) ****************//

Terra_001:
//  #01 //000   ----------------------------------------
 BYTE   VOL   33*Terra_mvl/mxv
 BYTE   KEYSH   Terra_key+0
 BYTE   TEMPO   160*Terra_tbs/2
 BYTE   VOICE   75
 BYTE   PAN   c_v-35
 BYTE   W96
//  #01 //001   ----------------------------------------
 BYTE   W96
//  #01 //002   ----------------------------------------
 BYTE   W96
//  #01 //003   ----------------------------------------
Label_010072D5:
 BYTE   W72
 BYTE   N08  Gs4  v100
 BYTE   W12
 BYTE   As4
 BYTE   W12
 BYTE   PEND 
//  #01 //004   ----------------------------------------
Label_010072DD:
 BYTE   N08  Bn4  v108
 BYTE   W12
 BYTE   Ds5
 BYTE   W12
 BYTE   TIE  Bn4
 BYTE   W72
 BYTE   PEND 
//  #01 //005   ----------------------------------------
 BYTE   W64
 BYTE   EOT
 BYTE   W08
 BYTE   N08  As4
 BYTE   W12
 BYTE   Gs4
 BYTE   W12
//  #01 //006   ----------------------------------------
Label_010072EF:
 BYTE   N44  As4  v108
 BYTE   W48
 BYTE   TIE  Ds4
 BYTE   W48
 BYTE   PEND 
//  #01 //007   ----------------------------------------
 BYTE   W68
 BYTE   W03
 BYTE   EOT
 BYTE   W01
 BYTE   N08  Gs4
 BYTE   W12
 BYTE   As4
 BYTE   W12
//  #01 //008   ----------------------------------------
 BYTE   PATT
  POIN2 Label_010072DD
//  #01 //009   ----------------------------------------
 BYTE   W68
 BYTE   W03
 BYTE   EOT
 BYTE   Bn4
 BYTE   W01
 BYTE   N08  As4  v108
 BYTE   W12
 BYTE   Gs4
 BYTE   W12
//  #01 //010   ----------------------------------------
Label_01007310:
 BYTE   N44  As4  v108
 BYTE   W48
 BYTE   TIE  Ds5
 BYTE   W48
 BYTE   PEND 
//  #01 //011   ----------------------------------------
 BYTE   W68
 BYTE   W03
 BYTE   EOT
 BYTE   W01
 BYTE   N08  Bn4
 BYTE   W12
 BYTE   Cs5
 BYTE   W12
//  #01 //012   ----------------------------------------
Label_01007321:
 BYTE   N08  Ds5  v108
 BYTE   W12
 BYTE   Fs5
 BYTE   W12
 BYTE   TIE  Ds5
 BYTE   W72
 BYTE   PEND 
//  #01 //013   ----------------------------------------
 BYTE   W68
 BYTE   W03
 BYTE   EOT
 BYTE   W01
 BYTE   N08  Cs5
 BYTE   W12
 BYTE   Bn4
 BYTE   W12
//  #01 //014   ----------------------------------------
Label_01007334:
 BYTE   N44  Cs5  v108
 BYTE   W48
 BYTE   TIE  Fs4
 BYTE   W48
 BYTE   PEND 
//  #01 //015   ----------------------------------------
 BYTE   W68
 BYTE   W03
 BYTE   EOT
 BYTE   W01
 BYTE   N08  Bn4
 BYTE   W12
 BYTE   As4
 BYTE   W12
//  #01 //016   ----------------------------------------
 BYTE   TIE  Gs4
 BYTE   W96
//  #01 //017   ----------------------------------------
 BYTE   W68
 BYTE   W03
 BYTE   EOT
 BYTE   W01
 BYTE   N08  Bn4
 BYTE   W12
 BYTE   As4
 BYTE   W12
//  #01 //018   ----------------------------------------
 BYTE   TIE  Gs4
 BYTE   W96
//  #01 //019   ----------------------------------------
 BYTE   W68
 BYTE   W03
 BYTE   EOT
 BYTE   W01
 BYTE   N08
 BYTE   W12
 BYTE   As4
 BYTE   W12
//  #01 //020   ----------------------------------------
 BYTE   PATT
  POIN2 Label_010072DD
//  #01 //021   ----------------------------------------
 BYTE   W64
 BYTE   EOT
 BYTE   Bn4
 BYTE   W08
 BYTE   N08  As4  v108
 BYTE   W12
 BYTE   Gs4
 BYTE   W12
//  #01 //022   ----------------------------------------
 BYTE   PATT
  POIN2 Label_010072EF
//  #01 //023   ----------------------------------------
 BYTE   W68
 BYTE   W03
 BYTE   EOT
 BYTE   Ds4
 BYTE   W01
 BYTE   N08  Gs4  v108
 BYTE   W12
 BYTE   As4
 BYTE   W12
//  #01 //024   ----------------------------------------
 BYTE   PATT
  POIN2 Label_010072DD
//  #01 //025   ----------------------------------------
 BYTE   W68
 BYTE   W03
 BYTE   EOT
 BYTE   Bn4
 BYTE   W01
 BYTE   N08  As4  v108
 BYTE   W12
 BYTE   Gs4
 BYTE   W12
//  #01 //026   ----------------------------------------
 BYTE   PATT
  POIN2 Label_01007310
//  #01 //027   ----------------------------------------
 BYTE   W68
 BYTE   W03
 BYTE   EOT
 BYTE   Ds5
 BYTE   W01
 BYTE   N08  Bn4  v108
 BYTE   W12
 BYTE   Cs5
 BYTE   W12
//  #01 //028   ----------------------------------------
 BYTE   PATT
  POIN2 Label_01007321
//  #01 //029   ----------------------------------------
 BYTE   W68
 BYTE   W03
 BYTE   EOT
 BYTE   Ds5
 BYTE   W01
 BYTE   N08  Cs5  v108
 BYTE   W12
 BYTE   Bn4
 BYTE   W12
//  #01 //030   ----------------------------------------
 BYTE   PATT
  POIN2 Label_01007334
//  #01 //031   ----------------------------------------
 BYTE   W68
 BYTE   W03
 BYTE   EOT
 BYTE   Fs4
 BYTE   W01
 BYTE   N08  Bn4  v108
 BYTE   W12
 BYTE   As4
 BYTE   W12
//  #01 //032   ----------------------------------------
 BYTE   TIE  Gs4
 BYTE   W96
//  #01 //033   ----------------------------------------
 BYTE   W68
 BYTE   W03
 BYTE   EOT
 BYTE   W01
 BYTE   N08  Bn4
 BYTE   W12
 BYTE   As4
 BYTE   W12
//  #01 //034   ----------------------------------------
 BYTE   TIE  Gs4
 BYTE   W96
//  #01 //035   ----------------------------------------
 BYTE   W68
 BYTE   W03
 BYTE   EOT
 BYTE   W01
 BYTE   N08  Bn4
 BYTE   W12
 BYTE   Cs5
 BYTE   W12
//  #01 //036   ----------------------------------------
 BYTE   PATT
  POIN2 Label_01007321
//  #01 //037   ----------------------------------------
 BYTE   W68
 BYTE   W03
 BYTE   EOT
 BYTE   Ds5
 BYTE   W01
 BYTE   N08  Cs5  v108
 BYTE   W12
 BYTE   Bn4
 BYTE   W12
//  #01 //038   ----------------------------------------
 BYTE   PATT
  POIN2 Label_01007334
//  #01 //039   ----------------------------------------
 BYTE   W68
 BYTE   W03
 BYTE   EOT
 BYTE   Fs4
 BYTE   W01
 BYTE   N08  Bn4  v108
 BYTE   W12
 BYTE   Cs5
 BYTE   W12
//  #01 //040   ----------------------------------------
 BYTE   PATT
  POIN2 Label_01007321
//  #01 //041   ----------------------------------------
 BYTE   W68
 BYTE   W03
 BYTE   EOT
 BYTE   Ds5
 BYTE   W01
 BYTE   N08  Cs5  v108
 BYTE   W12
 BYTE   Bn4
 BYTE   W12
//  #01 //042   ----------------------------------------
Label_01007403:
 BYTE   N44  Cs5  v108
 BYTE   W48
 BYTE   TIE  Fs5
 BYTE   W48
 BYTE   PEND 
//  #01 //043   ----------------------------------------
 BYTE   W68
 BYTE   W03
 BYTE   EOT
 BYTE   W01
 BYTE   N08  Gs4
 BYTE   W12
 BYTE   As4
 BYTE   W12
//  #01 //044   ----------------------------------------
 BYTE   PATT
  POIN2 Label_010072DD
//  #01 //045   ----------------------------------------
 BYTE   W64
 BYTE   EOT
 BYTE   Bn4
 BYTE   W08
 BYTE   N08  As4  v108
 BYTE   W12
 BYTE   Gs4
 BYTE   W12
//  #01 //046   ----------------------------------------
 BYTE   PATT
  POIN2 Label_010072EF
//  #01 //047   ----------------------------------------
 BYTE   W68
 BYTE   W03
 BYTE   EOT
 BYTE   Ds4
 BYTE   W01
 BYTE   N08  Bn4  v108
 BYTE   W12
 BYTE   As4
 BYTE   W12
//  #01 //048   ----------------------------------------
 BYTE   TIE  Gs4
 BYTE   W96
//  #01 //049   ----------------------------------------
 BYTE   W68
 BYTE   W03
 BYTE   EOT
 BYTE   W01
 BYTE   N08  Bn4
 BYTE   W12
 BYTE   As4
 BYTE   W12
//  #01 //050   ----------------------------------------
 BYTE   TIE  Gs4
 BYTE   W96
//  #01 //051   ----------------------------------------
 BYTE   W68
 BYTE   W03
 BYTE   EOT
 BYTE   W24
 BYTE   W01
//  #01 //052   ----------------------------------------
 BYTE   W96
//  #01 //053   ----------------------------------------
 BYTE   W96
//  #01 //054   ----------------------------------------
 BYTE   W96
//  #01 //055   ----------------------------------------
 BYTE   W96
//  #01 //056   ----------------------------------------
 BYTE   W96
//  #01 //057   ----------------------------------------
 BYTE   W96
//  #01 //058   ----------------------------------------
 BYTE   W96
//  #01 //059   ----------------------------------------
 BYTE   W96
//  #01 //060   ----------------------------------------
 BYTE   W96
//  #01 //061   ----------------------------------------
 BYTE   W96
//  #01 //062   ----------------------------------------
 BYTE   W96
//  #01 //063   ----------------------------------------
 BYTE   W96
//  #01 //064   ----------------------------------------
 BYTE   W96
//  #01 //065   ----------------------------------------
 BYTE   W96
//  #01 //066   ----------------------------------------
 BYTE   W96
//  #01 //067   ----------------------------------------
 BYTE   W96
//  #01 //068   ----------------------------------------
 BYTE   W96
//  #01 //069   ----------------------------------------
 BYTE   W96
//  #01 //070   ----------------------------------------
 BYTE   W96
//  #01 //071   ----------------------------------------
 BYTE   W96
//  #01 //072   ----------------------------------------
 BYTE   W96
//  #01 //073   ----------------------------------------
 BYTE   PATT
  POIN2 Label_010072D5
//  #01 //074   ----------------------------------------
 BYTE   PATT
  POIN2 Label_010072DD
//  #01 //075   ----------------------------------------
 BYTE   W64
 BYTE   EOT
 BYTE   Bn4
 BYTE   W08
 BYTE   N08  As4  v108
 BYTE   W12
 BYTE   Gs4
 BYTE   W12
//  #01 //076   ----------------------------------------
 BYTE   PATT
  POIN2 Label_010072EF
//  #01 //077   ----------------------------------------
 BYTE   W68
 BYTE   W03
 BYTE   EOT
 BYTE   Ds4
 BYTE   W01
 BYTE   N08  Gs4  v108
 BYTE   W12
 BYTE   As4
 BYTE   W12
//  #01 //078   ----------------------------------------
 BYTE   PATT
  POIN2 Label_010072DD
//  #01 //079   ----------------------------------------
 BYTE   W68
 BYTE   W03
 BYTE   EOT
 BYTE   Bn4
 BYTE   W01
 BYTE   N08  As4  v108
 BYTE   W12
 BYTE   Gs4
 BYTE   W12
//  #01 //080   ----------------------------------------
 BYTE   PATT
  POIN2 Label_01007310
//  #01 //081   ----------------------------------------
 BYTE   W68
 BYTE   W03
 BYTE   EOT
 BYTE   Ds5
 BYTE   W01
 BYTE   N08  Bn4  v108
 BYTE   W12
 BYTE   Cs5
 BYTE   W12
//  #01 //082   ----------------------------------------
 BYTE   PATT
  POIN2 Label_01007321
//  #01 //083   ----------------------------------------
 BYTE   W68
 BYTE   W03
 BYTE   EOT
 BYTE   Ds5
 BYTE   W01
 BYTE   N08  Cs5  v108
 BYTE   W12
 BYTE   Bn4
 BYTE   W12
//  #01 //084   ----------------------------------------
 BYTE   PATT
  POIN2 Label_01007334
//  #01 //085   ----------------------------------------
 BYTE   W68
 BYTE   W03
 BYTE   EOT
 BYTE   Fs4
 BYTE   W01
 BYTE   N08  Bn4  v108
 BYTE   W12
 BYTE   As4
 BYTE   W12
//  #01 //086   ----------------------------------------
 BYTE   TIE  Gs4
 BYTE   W96
//  #01 //087   ----------------------------------------
 BYTE   W68
 BYTE   W03
 BYTE   EOT
 BYTE   W01
 BYTE   N08  Bn4
 BYTE   W12
 BYTE   As4
 BYTE   W12
//  #01 //088   ----------------------------------------
 BYTE   TIE  Gs4
 BYTE   W96
//  #01 //089   ----------------------------------------
 BYTE   W68
 BYTE   W03
 BYTE   EOT
 BYTE   W01
 BYTE   N08
 BYTE   W12
 BYTE   As4
 BYTE   W12
//  #01 //090   ----------------------------------------
 BYTE   PATT
  POIN2 Label_010072DD
//  #01 //091   ----------------------------------------
 BYTE   W64
 BYTE   EOT
 BYTE   Bn4
 BYTE   W08
 BYTE   N08  As4  v108
 BYTE   W12
 BYTE   Gs4
 BYTE   W12
//  #01 //092   ----------------------------------------
 BYTE   PATT
  POIN2 Label_010072EF
//  #01 //093   ----------------------------------------
 BYTE   W68
 BYTE   W03
 BYTE   EOT
 BYTE   Ds4
 BYTE   W01
 BYTE   N08  Gs4  v108
 BYTE   W12
 BYTE   As4
 BYTE   W12
//  #01 //094   ----------------------------------------
 BYTE   PATT
  POIN2 Label_010072DD
//  #01 //095   ----------------------------------------
 BYTE   W68
 BYTE   W03
 BYTE   EOT
 BYTE   Bn4
 BYTE   W01
 BYTE   N08  As4  v108
 BYTE   W12
 BYTE   Gs4
 BYTE   W12
//  #01 //096   ----------------------------------------
 BYTE   PATT
  POIN2 Label_01007310
//  #01 //097   ----------------------------------------
 BYTE   W68
 BYTE   W03
 BYTE   EOT
 BYTE   Ds5
 BYTE   W01
 BYTE   N08  Bn4  v108
 BYTE   W12
 BYTE   Cs5
 BYTE   W12
//  #01 //098   ----------------------------------------
 BYTE   PATT
  POIN2 Label_01007321
//  #01 //099   ----------------------------------------
 BYTE   W68
 BYTE   W03
 BYTE   EOT
 BYTE   Ds5
 BYTE   W01
 BYTE   N08  Cs5  v108
 BYTE   W12
 BYTE   Bn4
 BYTE   W12
//  #01 //100   ----------------------------------------
 BYTE   PATT
  POIN2 Label_01007334
//  #01 //101   ----------------------------------------
 BYTE   W68
 BYTE   W03
 BYTE   EOT
 BYTE   Fs4
 BYTE   W01
 BYTE   N08  Bn4  v108
 BYTE   W12
 BYTE   As4
 BYTE   W12
//  #01 //102   ----------------------------------------
 BYTE   TIE  Gs4
 BYTE   W96
//  #01 //103   ----------------------------------------
 BYTE   W68
 BYTE   W03
 BYTE   EOT
 BYTE   W01
 BYTE   N08  Bn4
 BYTE   W12
 BYTE   As4
 BYTE   W12
//  #01 //104   ----------------------------------------
 BYTE   TIE  Gs4
 BYTE   W96
//  #01 //105   ----------------------------------------
 BYTE   W68
 BYTE   W03
 BYTE   EOT
 BYTE   W01
 BYTE   N08  Bn4
 BYTE   W12
 BYTE   Cs5
 BYTE   W12
//  #01 //106   ----------------------------------------
 BYTE   PATT
  POIN2 Label_01007321
//  #01 //107   ----------------------------------------
 BYTE   W68
 BYTE   W03
 BYTE   EOT
 BYTE   Ds5
 BYTE   W01
 BYTE   N08  Cs5  v108
 BYTE   W12
 BYTE   Bn4
 BYTE   W12
//  #01 //108   ----------------------------------------
 BYTE   PATT
  POIN2 Label_01007334
//  #01 //109   ----------------------------------------
 BYTE   W68
 BYTE   W03
 BYTE   EOT
 BYTE   Fs4
 BYTE   W01
 BYTE   N08  Bn4  v108
 BYTE   W12
 BYTE   Cs5
 BYTE   W12
//  #01 //110   ----------------------------------------
 BYTE   PATT
  POIN2 Label_01007321
//  #01 //111   ----------------------------------------
 BYTE   W68
 BYTE   W03
 BYTE   EOT
 BYTE   Ds5
 BYTE   W01
 BYTE   N08  Cs5  v108
 BYTE   W12
 BYTE   Bn4
 BYTE   W12
//  #01 //112   ----------------------------------------
 BYTE   PATT
  POIN2 Label_01007403
//  #01 //113   ----------------------------------------
 BYTE   W68
 BYTE   W03
 BYTE   EOT
 BYTE   Fs5
 BYTE   W01
 BYTE   N08  Gs4  v108
 BYTE   W12
 BYTE   As4
 BYTE   W12
//  #01 //114   ----------------------------------------
 BYTE   PATT
  POIN2 Label_010072DD
//  #01 //115   ----------------------------------------
 BYTE   W64
 BYTE   EOT
 BYTE   Bn4
 BYTE   W08
 BYTE   N08  As4  v108
 BYTE   W12
 BYTE   Gs4
 BYTE   W12
//  #01 //116   ----------------------------------------
 BYTE   PATT
  POIN2 Label_010072EF
//  #01 //117   ----------------------------------------
 BYTE   W68
 BYTE   W03
 BYTE   EOT
 BYTE   Ds4
 BYTE   W01
 BYTE   N08  Bn4  v108
 BYTE   W12
 BYTE   As4
 BYTE   W12
//  #01 //118   ----------------------------------------
 BYTE   TIE  Gs4
 BYTE   W96
//  #01 //119   ----------------------------------------
 BYTE   W68
 BYTE   W03
 BYTE   EOT
 BYTE   W01
 BYTE   N08  Bn4
 BYTE   W12
 BYTE   As4
 BYTE   W12
//  #01 //120   ----------------------------------------
 BYTE   TIE  Gs4
 BYTE   W96
//  #01 //121   ----------------------------------------
 BYTE   W68
 BYTE   W03
 BYTE   EOT
 BYTE   W24
 BYTE   W01
//  #01 //122   ----------------------------------------
 BYTE   W96
//  #01 //123   ----------------------------------------
 BYTE   W96
//  #01 //124   ----------------------------------------
 BYTE   W96
//  #01 //125   ----------------------------------------
 BYTE   W96
//  #01 //126   ----------------------------------------
 BYTE   W96
//  #01 //127   ----------------------------------------
 BYTE   W96
//  #01 //128   ----------------------------------------
 BYTE   W96
//  #01 //129   ----------------------------------------
 BYTE   W96
//  #01 //130   ----------------------------------------
 BYTE   W96
//  #01 //131   ----------------------------------------
 BYTE   W96
//  #01 //132   ----------------------------------------
 BYTE   W96
//  #01 //133   ----------------------------------------
 BYTE   W96
//  #01 //134   ----------------------------------------
 BYTE   W96
//  #01 //135   ----------------------------------------
 BYTE   W96
//  #01 //136   ----------------------------------------
 BYTE   W96
//  #01 //137   ----------------------------------------
 BYTE   W96
//  #01 //138   ----------------------------------------
 BYTE   W96
//  #01 //139   ----------------------------------------
 BYTE   W96
//  #01 //140   ----------------------------------------
 BYTE   W96
//  #01 //141   ----------------------------------------
 BYTE   W96
//  #01 //142   ----------------------------------------
 BYTE   W96
//  #01 //143   ----------------------------------------
 BYTE   PATT
  POIN2 Label_010072D5
//  #01 //144   ----------------------------------------
 BYTE   GoTo
  POIN2 Label_010072DD
//  #01 //145   ----------------------------------------
 BYTE   N08  Bn4  v096
 BYTE   W12
 BYTE   Ds5  v092
 BYTE   W12
 BYTE   TIE  Bn4  v088
 BYTE   W72
//  #01 //146   ----------------------------------------
 BYTE   W64
 BYTE   EOT
 BYTE   W08
 BYTE   N08  As4  v052
 BYTE   W12
 BYTE   Gs4  v048
 BYTE   W12
//  #01 //147   ----------------------------------------
 BYTE   N44  As4  v044
 BYTE   W48
 BYTE   TIE  Ds4  v032
 BYTE   W48
//  #01 //148   ----------------------------------------
 BYTE   W68
 BYTE   W03
 BYTE   EOT
 BYTE   W24
 BYTE   FINE

//**************** Track 2 (Midi-Chn.1) ****************//

Terra_002:
//  #02 //000   ----------------------------------------
 BYTE   VOL   33*Terra_mvl/mxv
 BYTE   KEYSH   Terra_key+0
 BYTE   VOICE   34
 BYTE   PAN   c_v-1
 BYTE   W96
//  #02 //001   ----------------------------------------
 BYTE   W96
//  #02 //002   ----------------------------------------
 BYTE   W96
//  #02 //003   ----------------------------------------
 BYTE   W96
//  #02 //004   ----------------------------------------
Label_01008630:
 BYTE   N16  Gs1  v120
 BYTE   W24
 BYTE   N16
 BYTE   W24
 BYTE   N16
 BYTE   W24
 BYTE   N04
 BYTE   W06
 BYTE   N04
 BYTE   W06
 BYTE   N08
 BYTE   W12
 BYTE   PEND 
//  #02 //005   ----------------------------------------
Label_0100863F:
 BYTE   N16  Gs1  v120
 BYTE   W24
 BYTE   N04
 BYTE   W06
 BYTE   N04
 BYTE   W06
 BYTE   N08
 BYTE   W12
 BYTE   N16
 BYTE   W24
 BYTE   N08
 BYTE   W12
 BYTE   N08
 BYTE   W12
 BYTE   PEND 
//  #02 //006   ----------------------------------------
Label_01008650:
 BYTE   N16  Ds1  v120
 BYTE   W24
 BYTE   N16
 BYTE   W24
 BYTE   N16
 BYTE   W24
 BYTE   N04
 BYTE   W06
 BYTE   N04
 BYTE   W06
 BYTE   N08
 BYTE   W12
 BYTE   PEND 
//  #02 //007   ----------------------------------------
Label_0100865F:
 BYTE   N16  Ds1  v120
 BYTE   W24
 BYTE   N04
 BYTE   W06
 BYTE   N04
 BYTE   W06
 BYTE   N08
 BYTE   W12
 BYTE   N16
 BYTE   W24
 BYTE   N08
 BYTE   W12
 BYTE   N08
 BYTE   W12
 BYTE   PEND 
//  #02 //008   ----------------------------------------
 BYTE   PATT
  POIN2 Label_01008630
//  #02 //009   ----------------------------------------
 BYTE   PATT
  POIN2 Label_0100863F
//  #02 //010   ----------------------------------------
 BYTE   PATT
  POIN2 Label_01008650
//  #02 //011   ----------------------------------------
 BYTE   PATT
  POIN2 Label_0100865F
//  #02 //012   ----------------------------------------
Label_01008684:
 BYTE   N16  Bn1  v120
 BYTE   W24
 BYTE   N16
 BYTE   W24
 BYTE   N16
 BYTE   W24
 BYTE   N04
 BYTE   W06
 BYTE   N04
 BYTE   W06
 BYTE   N08
 BYTE   W12
 BYTE   PEND 
//  #02 //013   ----------------------------------------
Label_01008693:
 BYTE   N16  Bn1  v120
 BYTE   W24
 BYTE   N04
 BYTE   W06
 BYTE   N04
 BYTE   W06
 BYTE   N08
 BYTE   W12
 BYTE   N16
 BYTE   W24
 BYTE   N08
 BYTE   W12
 BYTE   N08
 BYTE   W12
 BYTE   PEND 
//  #02 //014   ----------------------------------------
Label_010086A4:
 BYTE   N16  Fs1  v120
 BYTE   W24
 BYTE   N16
 BYTE   W24
 BYTE   N16
 BYTE   W24
 BYTE   N04
 BYTE   W06
 BYTE   N04
 BYTE   W06
 BYTE   N08
 BYTE   W12
 BYTE   PEND 
//  #02 //015   ----------------------------------------
Label_010086B3:
 BYTE   N16  Fs1  v120
 BYTE   W24
 BYTE   N04
 BYTE   W06
 BYTE   N04
 BYTE   W06
 BYTE   N08
 BYTE   W12
 BYTE   N16
 BYTE   W24
 BYTE   N08
 BYTE   W12
 BYTE   N08
 BYTE   W12
 BYTE   PEND 
//  #02 //016   ----------------------------------------
Label_010086C4:
 BYTE   N16  En1  v120
 BYTE   W24
 BYTE   N16
 BYTE   W24
 BYTE   N16
 BYTE   W24
 BYTE   N04
 BYTE   W06
 BYTE   N04
 BYTE   W06
 BYTE   N08
 BYTE   W12
 BYTE   PEND 
//  #02 //017   ----------------------------------------
Label_010086D3:
 BYTE   N16  Cs1  v120
 BYTE   W24
 BYTE   N04
 BYTE   W06
 BYTE   N04
 BYTE   W06
 BYTE   N08
 BYTE   W12
 BYTE   N16
 BYTE   W24
 BYTE   N08
 BYTE   W12
 BYTE   N08
 BYTE   W12
 BYTE   PEND 
//  #02 //018   ----------------------------------------
 BYTE   PATT
  POIN2 Label_01008630
//  #02 //019   ----------------------------------------
 BYTE   PATT
  POIN2 Label_0100863F
//  #02 //020   ----------------------------------------
 BYTE   PATT
  POIN2 Label_01008630
//  #02 //021   ----------------------------------------
 BYTE   PATT
  POIN2 Label_0100863F
//  #02 //022   ----------------------------------------
 BYTE   PATT
  POIN2 Label_01008650
//  #02 //023   ----------------------------------------
 BYTE   PATT
  POIN2 Label_0100865F
//  #02 //024   ----------------------------------------
 BYTE   PATT
  POIN2 Label_01008630
//  #02 //025   ----------------------------------------
 BYTE   PATT
  POIN2 Label_0100863F
//  #02 //026   ----------------------------------------
 BYTE   PATT
  POIN2 Label_01008650
//  #02 //027   ----------------------------------------
 BYTE   PATT
  POIN2 Label_0100865F
//  #02 //028   ----------------------------------------
 BYTE   PATT
  POIN2 Label_01008684
//  #02 //029   ----------------------------------------
 BYTE   PATT
  POIN2 Label_01008693
//  #02 //030   ----------------------------------------
 BYTE   PATT
  POIN2 Label_010086A4
//  #02 //031   ----------------------------------------
 BYTE   PATT
  POIN2 Label_010086B3
//  #02 //032   ----------------------------------------
 BYTE   PATT
  POIN2 Label_010086C4
//  #02 //033   ----------------------------------------
 BYTE   PATT
  POIN2 Label_010086D3
//  #02 //034   ----------------------------------------
 BYTE   PATT
  POIN2 Label_01008630
//  #02 //035   ----------------------------------------
 BYTE   PATT
  POIN2 Label_0100863F
//  #02 //036   ----------------------------------------
 BYTE   PATT
  POIN2 Label_01008684
//  #02 //037   ----------------------------------------
 BYTE   PATT
  POIN2 Label_01008693
//  #02 //038   ----------------------------------------
 BYTE   PATT
  POIN2 Label_010086A4
//  #02 //039   ----------------------------------------
 BYTE   PATT
  POIN2 Label_010086B3
//  #02 //040   ----------------------------------------
 BYTE   PATT
  POIN2 Label_01008684
//  #02 //041   ----------------------------------------
 BYTE   PATT
  POIN2 Label_01008693
//  #02 //042   ----------------------------------------
 BYTE   PATT
  POIN2 Label_010086A4
//  #02 //043   ----------------------------------------
 BYTE   PATT
  POIN2 Label_010086B3
//  #02 //044   ----------------------------------------
 BYTE   PATT
  POIN2 Label_01008630
//  #02 //045   ----------------------------------------
 BYTE   PATT
  POIN2 Label_0100863F
//  #02 //046   ----------------------------------------
 BYTE   PATT
  POIN2 Label_01008650
//  #02 //047   ----------------------------------------
 BYTE   PATT
  POIN2 Label_0100865F
//  #02 //048   ----------------------------------------
 BYTE   PATT
  POIN2 Label_010086C4
//  #02 //049   ----------------------------------------
 BYTE   PATT
  POIN2 Label_010086D3
//  #02 //050   ----------------------------------------
 BYTE   PATT
  POIN2 Label_01008630
//  #02 //051   ----------------------------------------
 BYTE   PATT
  POIN2 Label_0100863F
//  #02 //052   ----------------------------------------
Label_0100878E:
 BYTE   N08  Bn1  v127
 BYTE   W12
 BYTE   N08
 BYTE   W12
 BYTE   N08
 BYTE   W12
 BYTE   N08
 BYTE   W12
 BYTE   N08
 BYTE   W12
 BYTE   N08
 BYTE   W36
 BYTE   PEND 
//  #02 //053   ----------------------------------------
 BYTE   PATT
  POIN2 Label_0100878E
//  #02 //054   ----------------------------------------
Label_010087A2:
 BYTE   N08  Gs1  v127
 BYTE   W12
 BYTE   N08
 BYTE   W12
 BYTE   N08
 BYTE   W12
 BYTE   N08
 BYTE   W12
 BYTE   N08
 BYTE   W12
 BYTE   N08
 BYTE   W36
 BYTE   PEND 
//  #02 //055   ----------------------------------------
 BYTE   PATT
  POIN2 Label_010087A2
//  #02 //056   ----------------------------------------
Label_010087B6:
 BYTE   N08  Cs2  v127
 BYTE   W12
 BYTE   N08
 BYTE   W12
 BYTE   N08
 BYTE   W12
 BYTE   N08
 BYTE   W12
 BYTE   N08
 BYTE   W12
 BYTE   N08
 BYTE   W36
 BYTE   PEND 
//  #02 //057   ----------------------------------------
 BYTE   PATT
  POIN2 Label_010087B6
//  #02 //058   ----------------------------------------
Label_010087CA:
 BYTE   N08  As1  v127
 BYTE   W12
 BYTE   N08
 BYTE   W12
 BYTE   N08
 BYTE   W12
 BYTE   N08
 BYTE   W12
 BYTE   N08
 BYTE   W12
 BYTE   N08
 BYTE   W36
 BYTE   PEND 
//  #02 //059   ----------------------------------------
 BYTE   PATT
  POIN2 Label_010087CA
//  #02 //060   ----------------------------------------
Label_010087DE:
 BYTE   N08  Ds2  v127
 BYTE   W12
 BYTE   N08
 BYTE   W12
 BYTE   N08
 BYTE   W12
 BYTE   N08
 BYTE   W12
 BYTE   N08
 BYTE   W12
 BYTE   N08
 BYTE   W36
 BYTE   PEND 
//  #02 //061   ----------------------------------------
 BYTE   PATT
  POIN2 Label_010087DE
//  #02 //062   ----------------------------------------
 BYTE   PATT
  POIN2 Label_0100878E
//  #02 //063   ----------------------------------------
 BYTE   PATT
  POIN2 Label_0100878E
//  #02 //064   ----------------------------------------
 BYTE   PATT
  POIN2 Label_010087A2
//  #02 //065   ----------------------------------------
 BYTE   PATT
  POIN2 Label_010087A2
//  #02 //066   ----------------------------------------
 BYTE   PATT
  POIN2 Label_0100878E
//  #02 //067   ----------------------------------------
 BYTE   PATT
  POIN2 Label_0100878E
//  #02 //068   ----------------------------------------
 BYTE   PATT
  POIN2 Label_010087CA
//  #02 //069   ----------------------------------------
 BYTE   PATT
  POIN2 Label_010087CA
//  #02 //070   ----------------------------------------
 BYTE   W96
//  #02 //071   ----------------------------------------
 BYTE   W96
//  #02 //072   ----------------------------------------
 BYTE   W96
//  #02 //073   ----------------------------------------
 BYTE   W96
//  #02 //074   ----------------------------------------
 BYTE   PATT
  POIN2 Label_01008630
//  #02 //075   ----------------------------------------
 BYTE   PATT
  POIN2 Label_0100863F
//  #02 //076   ----------------------------------------
 BYTE   PATT
  POIN2 Label_01008650
//  #02 //077   ----------------------------------------
 BYTE   PATT
  POIN2 Label_0100865F
//  #02 //078   ----------------------------------------
 BYTE   PATT
  POIN2 Label_01008630
//  #02 //079   ----------------------------------------
 BYTE   PATT
  POIN2 Label_0100863F
//  #02 //080   ----------------------------------------
 BYTE   PATT
  POIN2 Label_01008650
//  #02 //081   ----------------------------------------
 BYTE   PATT
  POIN2 Label_0100865F
//  #02 //082   ----------------------------------------
 BYTE   PATT
  POIN2 Label_01008684
//  #02 //083   ----------------------------------------
 BYTE   PATT
  POIN2 Label_01008693
//  #02 //084   ----------------------------------------
 BYTE   PATT
  POIN2 Label_010086A4
//  #02 //085   ----------------------------------------
 BYTE   PATT
  POIN2 Label_010086B3
//  #02 //086   ----------------------------------------
 BYTE   PATT
  POIN2 Label_010086C4
//  #02 //087   ----------------------------------------
 BYTE   PATT
  POIN2 Label_010086D3
//  #02 //088   ----------------------------------------
 BYTE   PATT
  POIN2 Label_01008630
//  #02 //089   ----------------------------------------
 BYTE   PATT
  POIN2 Label_0100863F
//  #02 //090   ----------------------------------------
 BYTE   PATT
  POIN2 Label_01008630
//  #02 //091   ----------------------------------------
 BYTE   PATT
  POIN2 Label_0100863F
//  #02 //092   ----------------------------------------
 BYTE   PATT
  POIN2 Label_01008650
//  #02 //093   ----------------------------------------
 BYTE   PATT
  POIN2 Label_0100865F
//  #02 //094   ----------------------------------------
 BYTE   PATT
  POIN2 Label_01008630
//  #02 //095   ----------------------------------------
 BYTE   PATT
  POIN2 Label_0100863F
//  #02 //096   ----------------------------------------
 BYTE   PATT
  POIN2 Label_01008650
//  #02 //097   ----------------------------------------
 BYTE   PATT
  POIN2 Label_0100865F
//  #02 //098   ----------------------------------------
 BYTE   PATT
  POIN2 Label_01008684
//  #02 //099   ----------------------------------------
 BYTE   PATT
  POIN2 Label_01008693
//  #02 //100   ----------------------------------------
 BYTE   PATT
  POIN2 Label_010086A4
//  #02 //101   ----------------------------------------
 BYTE   PATT
  POIN2 Label_010086B3
//  #02 //102   ----------------------------------------
 BYTE   PATT
  POIN2 Label_010086C4
//  #02 //103   ----------------------------------------
 BYTE   PATT
  POIN2 Label_010086D3
//  #02 //104   ----------------------------------------
 BYTE   PATT
  POIN2 Label_01008630
//  #02 //105   ----------------------------------------
 BYTE   PATT
  POIN2 Label_0100863F
//  #02 //106   ----------------------------------------
 BYTE   PATT
  POIN2 Label_01008684
//  #02 //107   ----------------------------------------
 BYTE   PATT
  POIN2 Label_01008693
//  #02 //108   ----------------------------------------
 BYTE   PATT
  POIN2 Label_010086A4
//  #02 //109   ----------------------------------------
 BYTE   PATT
  POIN2 Label_010086B3
//  #02 //110   ----------------------------------------
 BYTE   PATT
  POIN2 Label_01008684
//  #02 //111   ----------------------------------------
 BYTE   PATT
  POIN2 Label_01008693
//  #02 //112   ----------------------------------------
 BYTE   PATT
  POIN2 Label_010086A4
//  #02 //113   ----------------------------------------
 BYTE   PATT
  POIN2 Label_010086B3
//  #02 //114   ----------------------------------------
 BYTE   PATT
  POIN2 Label_01008630
//  #02 //115   ----------------------------------------
 BYTE   PATT
  POIN2 Label_0100863F
//  #02 //116   ----------------------------------------
 BYTE   PATT
  POIN2 Label_01008650
//  #02 //117   ----------------------------------------
 BYTE   PATT
  POIN2 Label_0100865F
//  #02 //118   ----------------------------------------
 BYTE   PATT
  POIN2 Label_010086C4
//  #02 //119   ----------------------------------------
 BYTE   PATT
  POIN2 Label_010086D3
//  #02 //120   ----------------------------------------
 BYTE   PATT
  POIN2 Label_01008630
//  #02 //121   ----------------------------------------
 BYTE   PATT
  POIN2 Label_0100863F
//  #02 //122   ----------------------------------------
 BYTE   PATT
  POIN2 Label_0100878E
//  #02 //123   ----------------------------------------
 BYTE   PATT
  POIN2 Label_0100878E
//  #02 //124   ----------------------------------------
 BYTE   PATT
  POIN2 Label_010087A2
//  #02 //125   ----------------------------------------
 BYTE   PATT
  POIN2 Label_010087A2
//  #02 //126   ----------------------------------------
 BYTE   PATT
  POIN2 Label_010087B6
//  #02 //127   ----------------------------------------
 BYTE   PATT
  POIN2 Label_010087B6
//  #02 //128   ----------------------------------------
 BYTE   PATT
  POIN2 Label_010087CA
//  #02 //129   ----------------------------------------
 BYTE   PATT
  POIN2 Label_010087CA
//  #02 //130   ----------------------------------------
 BYTE   PATT
  POIN2 Label_010087DE
//  #02 //131   ----------------------------------------
 BYTE   PATT
  POIN2 Label_010087DE
//  #02 //132   ----------------------------------------
 BYTE   PATT
  POIN2 Label_0100878E
//  #02 //133   ----------------------------------------
 BYTE   PATT
  POIN2 Label_0100878E
//  #02 //134   ----------------------------------------
 BYTE   PATT
  POIN2 Label_010087A2
//  #02 //135   ----------------------------------------
 BYTE   PATT
  POIN2 Label_010087A2
//  #02 //136   ----------------------------------------
 BYTE   PATT
  POIN2 Label_0100878E
//  #02 //137   ----------------------------------------
 BYTE   PATT
  POIN2 Label_0100878E
//  #02 //138   ----------------------------------------
 BYTE   PATT
  POIN2 Label_010087CA
//  #02 //139   ----------------------------------------
 BYTE   PATT
  POIN2 Label_010087CA
//  #02 //140   ----------------------------------------
 BYTE   W96
//  #02 //141   ----------------------------------------
 BYTE   W96
//  #02 //142   ----------------------------------------
 BYTE   W96
//  #02 //143   ----------------------------------------
 BYTE   W96
//  #02 //144   ----------------------------------------
 BYTE   GoTo
  POIN2 Label_01008630
//  #02 //145   ----------------------------------------
 BYTE   N16  Gs1  v100
 BYTE   W24
 BYTE   Gs1  v096
 BYTE   W24
 BYTE   Gs1  v092
 BYTE   W24
 BYTE   N04  Gs1  v088
 BYTE   W06
 BYTE   Gs1  v084
 BYTE   W06
 BYTE   N08
 BYTE   W12
//  #02 //146   ----------------------------------------
 BYTE   N16  Gs1  v080
 BYTE   W24
 BYTE   N04  Gs1  v076
 BYTE   W06
 BYTE   N04
 BYTE   W06
 BYTE   N08
 BYTE   W12
 BYTE   N16  Gs1  v072
 BYTE   W24
 BYTE   N08  Gs1  v068
 BYTE   W12
 BYTE   Gs1  v064
 BYTE   W12
//  #02 //147   ----------------------------------------
 BYTE   N16  Ds1  v060
 BYTE   W24
 BYTE   Ds1  v056
 BYTE   W24
 BYTE   Ds1  v052
 BYTE   W24
 BYTE   N04  Ds1  v048
 BYTE   W06
 BYTE   Ds1  v044
 BYTE   W06
 BYTE   N08
 BYTE   W12
//  #02 //148   ----------------------------------------
 BYTE   N16  Ds1  v040
 BYTE   W24
 BYTE   N04  Ds1  v036
 BYTE   W06
 BYTE   N04
 BYTE   W06
 BYTE   N08
 BYTE   W12
 BYTE   N16  Ds1  v032
 BYTE   W24
 BYTE   N08  Ds1  v028
 BYTE   W12
 BYTE   Ds1  v024
 BYTE   W11
 BYTE   FINE

//**************** Track 3 (Midi-Chn.2) ****************//

Terra_003:
//  #03 //000   ----------------------------------------
 BYTE   VOL   33*Terra_mvl/mxv
 BYTE   KEYSH   Terra_key+0
 BYTE   VOICE   92
 BYTE   PAN   c_v+33
 BYTE   TIE  Gs2  v072
 BYTE   TIE  Gs3
 BYTE   W96
//  #03 //001   ----------------------------------------
 BYTE   W96
//  #03 //002   ----------------------------------------
 BYTE   W96
//  #03 //003   ----------------------------------------
 BYTE   W64
 BYTE   EOT
 BYTE   Gs2  v068
 BYTE   W32
//  #03 //004   ----------------------------------------
Label_010089ED:
 BYTE   N96  Gs3  v100
 BYTE   W48
 BYTE   N44  Ds3
 BYTE   W48
 BYTE   PEND 
//  #03 //005   ----------------------------------------
Label_010089F5:
 BYTE   N44  Gs3  v100
 BYTE   W48
 BYTE   As3
 BYTE   W48
 BYTE   PEND 
//  #03 //006   ----------------------------------------
Label_010089FC:
 BYTE   TIE  Ds4  v100
 BYTE   W48
 BYTE   N44  Cs4
 BYTE   W48
 BYTE   PEND 
//  #03 //007   ----------------------------------------
Label_01008A04:
 BYTE   N44  Bn3  v100
 BYTE   W48
 BYTE   As3
 BYTE   W44
 BYTE   W03
 BYTE   PEND 
 BYTE   EOT
 BYTE   Ds4
 BYTE   W01
//  #03 //008   ----------------------------------------
 BYTE   PATT
  POIN2 Label_010089ED
//  #03 //009   ----------------------------------------
 BYTE   PATT
  POIN2 Label_010089F5
//  #03 //010   ----------------------------------------
 BYTE   PATT
  POIN2 Label_010089FC
//  #03 //011   ----------------------------------------
 BYTE   PATT
  POIN2 Label_01008A04
//  #03 //012   ----------------------------------------
 BYTE   EOT
 BYTE   Ds4
 BYTE   W01
Label_01008A26:
 BYTE   TIE  Bn3  v100
 BYTE   W48
 BYTE   N44  Ds3
 BYTE   W48
 BYTE   PEND 
//  #03 //013   ----------------------------------------
Label_01008A2E:
 BYTE   N44  Gs3  v100
 BYTE   W48
 BYTE   Cs4
 BYTE   W44
 BYTE   W03
 BYTE   PEND 
 BYTE   EOT
 BYTE   Bn3
 BYTE   W01
//  #03 //014   ----------------------------------------
Label_01008A39:
 BYTE   TIE  Cs4  v100
 BYTE   N44  Fs4
 BYTE   W48
 BYTE   En4
 BYTE   W48
 BYTE   PEND 
//  #03 //015   ----------------------------------------
 BYTE   Ds4
 BYTE   W48
 BYTE   EOT
 BYTE   Cs4
 BYTE   N44
 BYTE   W48
//  #03 //016   ----------------------------------------
 BYTE   N92  Bn3
 BYTE   N92  Ds4
 BYTE   W96
//  #03 //017   ----------------------------------------
 BYTE   Cs4
 BYTE   N92  En4
 BYTE   W96
//  #03 //018   ----------------------------------------
Label_01008A51:
 BYTE   TIE  Bn3  v100
 BYTE   TIE  Ds4
 BYTE   W96
 BYTE   PEND 
//  #03 //019   ----------------------------------------
 BYTE   W92
 BYTE   W03
 BYTE   EOT
 BYTE   Bn3  v075
 BYTE   W01
//  #03 //020   ----------------------------------------
 BYTE   PATT
  POIN2 Label_010089ED
//  #03 //021   ----------------------------------------
 BYTE   PATT
  POIN2 Label_010089F5
//  #03 //022   ----------------------------------------
 BYTE   PATT
  POIN2 Label_010089FC
//  #03 //023   ----------------------------------------
 BYTE   PATT
  POIN2 Label_01008A04
//  #03 //024   ----------------------------------------
 BYTE   EOT
 BYTE   Ds4
 BYTE   W01
//  #03 //025   ----------------------------------------
 BYTE   PATT
  POIN2 Label_010089ED
//  #03 //026   ----------------------------------------
 BYTE   PATT
  POIN2 Label_010089F5
//  #03 //027   ----------------------------------------
 BYTE   PATT
  POIN2 Label_010089FC
//  #03 //028   ----------------------------------------
 BYTE   PATT
  POIN2 Label_01008A04
//  #03 //029   ----------------------------------------
 BYTE   EOT
 BYTE   Ds4
 BYTE   W01
//  #03 //030   ----------------------------------------
 BYTE   PATT
  POIN2 Label_01008A26
//  #03 //031   ----------------------------------------
 BYTE   PATT
  POIN2 Label_01008A2E
//  #03 //032   ----------------------------------------
 BYTE   EOT
 BYTE   Bn3
 BYTE   W01
//  #03 //033   ----------------------------------------
 BYTE   PATT
  POIN2 Label_01008A39
//  #03 //034   ----------------------------------------
 BYTE   N44  Ds4  v100
 BYTE   W48
 BYTE   EOT
 BYTE   Cs4
 BYTE   N44
 BYTE   W48
//  #03 //035   ----------------------------------------
 BYTE   N92  Bn3
 BYTE   N92  Ds4
 BYTE   W96
//  #03 //036   ----------------------------------------
 BYTE   Cs4
 BYTE   N92  En4
 BYTE   W96
//  #03 //037   ----------------------------------------
 BYTE   PATT
  POIN2 Label_01008A51
//  #03 //038   ----------------------------------------
 BYTE   W92
 BYTE   W03
 BYTE   EOT
 BYTE   Bn3  v075
 BYTE   W01
//  #03 //039   ----------------------------------------
Label_01008ABA:
 BYTE   N96  Bn3  v100
 BYTE   W48
 BYTE   N44  Fs3
 BYTE   W48
 BYTE   PEND 
//  #03 //040   ----------------------------------------
Label_01008AC2:
 BYTE   N44  Bn3  v100
 BYTE   W48
 BYTE   Ds4
 BYTE   W48
 BYTE   PEND 
//  #03 //041   ----------------------------------------
Label_01008AC9:
 BYTE   TIE  Cs4  v100
 BYTE   TIE  Fs4
 BYTE   W96
 BYTE   PEND 
//  #03 //042   ----------------------------------------
 BYTE   W92
 BYTE   W03
 BYTE   EOT
 BYTE   Cs4  v078
 BYTE   W01
//  #03 //043   ----------------------------------------
 BYTE   PATT
  POIN2 Label_01008ABA
//  #03 //044   ----------------------------------------
 BYTE   PATT
  POIN2 Label_01008AC2
//  #03 //045   ----------------------------------------
 BYTE   PATT
  POIN2 Label_01008AC9
//  #03 //046   ----------------------------------------
 BYTE   W92
 BYTE   W03
 BYTE   EOT
 BYTE   Cs4  v078
 BYTE   W01
//  #03 //047   ----------------------------------------
Label_01008AEB:
 BYTE   TIE  Bn3  v100
 BYTE   W48
 BYTE   N44  Gs3
 BYTE   W48
 BYTE   PEND 
//  #03 //048   ----------------------------------------
Label_01008AF3:
 BYTE   N44  Ds4  v100
 BYTE   W48
 BYTE   Gs4
 BYTE   W44
 BYTE   W03
 BYTE   PEND 
 BYTE   EOT
 BYTE   Bn3
 BYTE   W01
//  #03 //049   ----------------------------------------
 BYTE   TIE  Fs4
 BYTE   W96
//  #03 //050   ----------------------------------------
 BYTE   W92
 BYTE   W03
 BYTE   EOT
 BYTE   W01
//  #03 //051   ----------------------------------------
Label_01008B05:
 BYTE   TIE  Bn3  v100
 BYTE   TIE  Gs4
 BYTE   W96
 BYTE   PEND 
//  #03 //052   ----------------------------------------
 BYTE   W92
 BYTE   W03
 BYTE   EOT
 BYTE   Bn3  v080
 BYTE   W01
//  #03 //053   ----------------------------------------
Label_01008B12:
 BYTE   TIE  Gs3  v100
 BYTE   TIE  Gs4
 BYTE   W96
 BYTE   PEND 
//  #03 //054   ----------------------------------------
 BYTE   W92
 BYTE   W03
 BYTE   EOT
 BYTE   Gs3  v080
 BYTE   W01
//  #03 //055   ----------------------------------------
Label_01008B1F:
 BYTE   N92  Bn3  v100
 BYTE   N96  Ds4
 BYTE   W96
 BYTE   PEND 
//  #03 //056   ----------------------------------------
Label_01008B26:
 BYTE   N44  Ds4  v100
 BYTE   W48
 BYTE   Bn3
 BYTE   W48
 BYTE   PEND 
//  #03 //057   ----------------------------------------
 BYTE   TIE  Gs3
 BYTE   W96
//  #03 //058   ----------------------------------------
 BYTE   W92
 BYTE   W03
 BYTE   EOT
 BYTE   W01
//  #03 //059   ----------------------------------------
Label_01008B34:
 BYTE   N92  Cs4  v100
 BYTE   N96  En4
 BYTE   W96
 BYTE   PEND 
//  #03 //060   ----------------------------------------
Label_01008B3B:
 BYTE   N44  En4  v100
 BYTE   W48
 BYTE   Cs4
 BYTE   W48
 BYTE   PEND 
//  #03 //061   ----------------------------------------
 BYTE   TIE  As3
 BYTE   W96
//  #03 //062   ----------------------------------------
 BYTE   W92
 BYTE   W03
 BYTE   EOT
 BYTE   W01
//  #03 //063   ----------------------------------------
 BYTE   N92  Ds4
 BYTE   W96
//  #03 //064   ----------------------------------------
Label_01008B4C:
 BYTE   N44  Fs4  v100
 BYTE   W48
 BYTE   Ds4
 BYTE   W48
 BYTE   PEND 
//  #03 //065   ----------------------------------------
 BYTE   TIE  Bn3
 BYTE   W96
//  #03 //066   ----------------------------------------
 BYTE   W44
 BYTE   W03
 BYTE   EOT
 BYTE   W01
 BYTE   N23  Cs4
 BYTE   W24
 BYTE   Ds4
 BYTE   W24
//  #03 //067   ----------------------------------------
Label_01008B5F:
 BYTE   N48  Gs3  v100
 BYTE   N44  Cs4
 BYTE   W48
 BYTE   N92  Gs3
 BYTE   W48
 BYTE   PEND 
//  #03 //068   ----------------------------------------
 BYTE   W48
 BYTE   N44  As3
 BYTE   W48
//  #03 //069   ----------------------------------------
Label_01008B6D:
 BYTE   TIE  Bn2  v100
 BYTE   TIE  Bn3
 BYTE   W96
 BYTE   PEND 
//  #03 //070   ----------------------------------------
 BYTE   W92
 BYTE   W03
 BYTE   EOT
 BYTE   Bn2  v071
 BYTE   W01
//  #03 //071   ----------------------------------------
Label_01008B7A:
 BYTE   TIE  Cs3  v100
 BYTE   TIE  As3
 BYTE   W96
 BYTE   PEND 
//  #03 //072   ----------------------------------------
 BYTE   W92
 BYTE   W03
 BYTE   EOT
 BYTE   Cs3  v070
 BYTE   W01
//  #03 //073   ----------------------------------------
 BYTE   N92  Gs3
 BYTE   N92  Bn3
 BYTE   W96
//  #03 //074   ----------------------------------------
 BYTE   N92
 BYTE   N92  Ds4
 BYTE   W96
//  #03 //075   ----------------------------------------
 BYTE   N92
 BYTE   N92  Gs4
 BYTE   W96
//  #03 //076   ----------------------------------------
 BYTE   N92
 BYTE   N92  Bn4
 BYTE   W96
//  #03 //077   ----------------------------------------
 BYTE   PATT
  POIN2 Label_010089ED
//  #03 //078   ----------------------------------------
 BYTE   PATT
  POIN2 Label_010089F5
//  #03 //079   ----------------------------------------
 BYTE   PATT
  POIN2 Label_010089FC
//  #03 //080   ----------------------------------------
 BYTE   PATT
  POIN2 Label_01008A04
//  #03 //081   ----------------------------------------
 BYTE   EOT
 BYTE   Ds4
 BYTE   W01
//  #03 //082   ----------------------------------------
 BYTE   PATT
  POIN2 Label_010089ED
//  #03 //083   ----------------------------------------
 BYTE   PATT
  POIN2 Label_010089F5
//  #03 //084   ----------------------------------------
 BYTE   PATT
  POIN2 Label_010089FC
//  #03 //085   ----------------------------------------
 BYTE   PATT
  POIN2 Label_01008A04
//  #03 //086   ----------------------------------------
 BYTE   EOT
 BYTE   Ds4
 BYTE   W01
//  #03 //087   ----------------------------------------
 BYTE   PATT
  POIN2 Label_01008A26
//  #03 //088   ----------------------------------------
 BYTE   PATT
  POIN2 Label_01008A2E
//  #03 //089   ----------------------------------------
 BYTE   EOT
 BYTE   Bn3
 BYTE   W01
//  #03 //090   ----------------------------------------
 BYTE   PATT
  POIN2 Label_01008A39
//  #03 //091   ----------------------------------------
 BYTE   N44  Ds4  v100
 BYTE   W48
 BYTE   EOT
 BYTE   Cs4
 BYTE   N44
 BYTE   W48
//  #03 //092   ----------------------------------------
 BYTE   N92  Bn3
 BYTE   N92  Ds4
 BYTE   W96
//  #03 //093   ----------------------------------------
 BYTE   Cs4
 BYTE   N92  En4
 BYTE   W96
//  #03 //094   ----------------------------------------
 BYTE   PATT
  POIN2 Label_01008A51
//  #03 //095   ----------------------------------------
 BYTE   W92
 BYTE   W03
 BYTE   EOT
 BYTE   Bn3  v075
 BYTE   W01
//  #03 //096   ----------------------------------------
 BYTE   PATT
  POIN2 Label_010089ED
//  #03 //097   ----------------------------------------
 BYTE   PATT
  POIN2 Label_010089F5
//  #03 //098   ----------------------------------------
 BYTE   PATT
  POIN2 Label_010089FC
//  #03 //099   ----------------------------------------
 BYTE   PATT
  POIN2 Label_01008A04
//  #03 //100   ----------------------------------------
 BYTE   EOT
 BYTE   Ds4
 BYTE   W01
//  #03 //101   ----------------------------------------
 BYTE   PATT
  POIN2 Label_010089ED
//  #03 //102   ----------------------------------------
 BYTE   PATT
  POIN2 Label_010089F5
//  #03 //103   ----------------------------------------
 BYTE   PATT
  POIN2 Label_010089FC
//  #03 //104   ----------------------------------------
 BYTE   PATT
  POIN2 Label_01008A04
//  #03 //105   ----------------------------------------
 BYTE   EOT
 BYTE   Ds4
 BYTE   W01
//  #03 //106   ----------------------------------------
 BYTE   PATT
  POIN2 Label_01008A26
//  #03 //107   ----------------------------------------
 BYTE   PATT
  POIN2 Label_01008A2E
//  #03 //108   ----------------------------------------
 BYTE   EOT
 BYTE   Bn3
 BYTE   W01
//  #03 //109   ----------------------------------------
 BYTE   PATT
  POIN2 Label_01008A39
//  #03 //110   ----------------------------------------
 BYTE   N44  Ds4  v100
 BYTE   W48
 BYTE   EOT
 BYTE   Cs4
 BYTE   N44
 BYTE   W48
//  #03 //111   ----------------------------------------
 BYTE   N92  Bn3
 BYTE   N92  Ds4
 BYTE   W96
//  #03 //112   ----------------------------------------
 BYTE   Cs4
 BYTE   N92  En4
 BYTE   W96
//  #03 //113   ----------------------------------------
 BYTE   PATT
  POIN2 Label_01008A51
//  #03 //114   ----------------------------------------
 BYTE   W92
 BYTE   W03
 BYTE   EOT
 BYTE   Bn3  v075
 BYTE   W01
//  #03 //115   ----------------------------------------
 BYTE   PATT
  POIN2 Label_01008ABA
//  #03 //116   ----------------------------------------
 BYTE   PATT
  POIN2 Label_01008AC2
//  #03 //117   ----------------------------------------
 BYTE   PATT
  POIN2 Label_01008AC9
//  #03 //118   ----------------------------------------
 BYTE   W92
 BYTE   W03
 BYTE   EOT
 BYTE   Cs4  v078
 BYTE   W01
//  #03 //119   ----------------------------------------
 BYTE   PATT
  POIN2 Label_01008ABA
//  #03 //120   ----------------------------------------
 BYTE   PATT
  POIN2 Label_01008AC2
//  #03 //121   ----------------------------------------
 BYTE   PATT
  POIN2 Label_01008AC9
//  #03 //122   ----------------------------------------
 BYTE   W92
 BYTE   W03
 BYTE   EOT
 BYTE   Cs4  v078
 BYTE   W01
//  #03 //123   ----------------------------------------
 BYTE   PATT
  POIN2 Label_01008AEB
//  #03 //124   ----------------------------------------
 BYTE   PATT
  POIN2 Label_01008AF3
//  #03 //125   ----------------------------------------
 BYTE   EOT
 BYTE   Bn3
 BYTE   W01
 BYTE   TIE  Fs4  v100
 BYTE   W96
//  #03 //126   ----------------------------------------
 BYTE   W92
 BYTE   W03
 BYTE   EOT
 BYTE   W01
//  #03 //127   ----------------------------------------
 BYTE   PATT
  POIN2 Label_01008B05
//  #03 //128   ----------------------------------------
 BYTE   W92
 BYTE   W03
 BYTE   EOT
 BYTE   Bn3  v080
 BYTE   W01
//  #03 //129   ----------------------------------------
 BYTE   PATT
  POIN2 Label_01008B12
//  #03 //130   ----------------------------------------
 BYTE   W92
 BYTE   W03
 BYTE   EOT
 BYTE   Gs3  v080
 BYTE   W01
//  #03 //131   ----------------------------------------
 BYTE   PATT
  POIN2 Label_01008B1F
//  #03 //132   ----------------------------------------
 BYTE   PATT
  POIN2 Label_01008B26
//  #03 //133   ----------------------------------------
 BYTE   TIE  Gs3  v100
 BYTE   W96
//  #03 //134   ----------------------------------------
 BYTE   W92
 BYTE   W03
 BYTE   EOT
 BYTE   W01
//  #03 //135   ----------------------------------------
 BYTE   PATT
  POIN2 Label_01008B34
//  #03 //136   ----------------------------------------
 BYTE   PATT
  POIN2 Label_01008B3B
//  #03 //137   ----------------------------------------
 BYTE   TIE  As3  v100
 BYTE   W96
//  #03 //138   ----------------------------------------
 BYTE   W92
 BYTE   W03
 BYTE   EOT
 BYTE   W01
//  #03 //139   ----------------------------------------
 BYTE   N92  Ds4
 BYTE   W96
//  #03 //140   ----------------------------------------
 BYTE   PATT
  POIN2 Label_01008B4C
//  #03 //141   ----------------------------------------
 BYTE   TIE  Bn3  v100
 BYTE   W96
//  #03 //142   ----------------------------------------
 BYTE   W44
 BYTE   W03
 BYTE   EOT
 BYTE   W01
 BYTE   N23  Cs4
 BYTE   W24
 BYTE   Ds4
 BYTE   W24
//  #03 //143   ----------------------------------------
 BYTE   PATT
  POIN2 Label_01008B5F
//  #03 //144   ----------------------------------------
 BYTE   W48
 BYTE   N44  As3  v100
 BYTE   W48
//  #03 //145   ----------------------------------------
 BYTE   PATT
  POIN2 Label_01008B6D
//  #03 //146   ----------------------------------------
 BYTE   W92
 BYTE   W03
 BYTE   EOT
 BYTE   Bn2  v071
 BYTE   W01
//  #03 //147   ----------------------------------------
 BYTE   PATT
  POIN2 Label_01008B7A
//  #03 //148   ----------------------------------------
 BYTE   W92
 BYTE   W03
 BYTE   EOT
 BYTE   Cs3  v070
 BYTE   W01
//  #03 //149   ----------------------------------------
 BYTE   N92  Gs3  v100
 BYTE   N92  Bn3
 BYTE   W96
//  #03 //150   ----------------------------------------
 BYTE   N92
 BYTE   N92  Ds4
 BYTE   W96
//  #03 //151   ----------------------------------------
 BYTE   N92
 BYTE   N92  Gs4
 BYTE   W96
//  #03 //152   ----------------------------------------
 BYTE   N92
 BYTE   N92  Bn4
 BYTE   W96
//  #03 //153   ----------------------------------------
 BYTE   GoTo
  POIN2 Label_010089ED
//  #03 //154   ----------------------------------------
 BYTE   N96  Gs3  v100
 BYTE   W48
 BYTE   N44  Ds3  v092
 BYTE   W48
//  #03 //155   ----------------------------------------
 BYTE   Gs3  v080
 BYTE   W48
 BYTE   As3  v072
 BYTE   W48
//  #03 //156   ----------------------------------------
 BYTE   TIE  Ds4  v060
 BYTE   W48
 BYTE   N44  Cs4  v052
 BYTE   W48
//  #03 //157   ----------------------------------------
 BYTE   Bn3  v040
 BYTE   W48
 BYTE   As3  v032
 BYTE   W44
 BYTE   W03
 BYTE   EOT
 BYTE   Ds4
 BYTE   FINE

//**************** Track 4 (Midi-Chn.3) ****************//

Terra_004:
//  #04 //000   ----------------------------------------
 BYTE   VOL   33*Terra_mvl/mxv
 BYTE   KEYSH   Terra_key+0
 BYTE   VOICE   60
 BYTE   PAN   c_v+34
 BYTE   W96
//  #04 //001   ----------------------------------------
 BYTE   W96
//  #04 //002   ----------------------------------------
 BYTE   W96
//  #04 //003   ----------------------------------------
 BYTE   W96
//  #04 //004   ----------------------------------------
Label_010083BC:
 BYTE   W96
//  #04 //005   ----------------------------------------
 BYTE   W96
//  #04 //006   ----------------------------------------
 BYTE   W96
//  #04 //007   ----------------------------------------
 BYTE   W96
//  #04 //008   ----------------------------------------
 BYTE   W96
//  #04 //009   ----------------------------------------
 BYTE   W96
//  #04 //010   ----------------------------------------
 BYTE   W96
//  #04 //011   ----------------------------------------
 BYTE   W96
//  #04 //012   ----------------------------------------
 BYTE   W96
//  #04 //013   ----------------------------------------
 BYTE   W96
//  #04 //014   ----------------------------------------
 BYTE   W96
//  #04 //015   ----------------------------------------
 BYTE   W96
//  #04 //016   ----------------------------------------
 BYTE   W96
//  #04 //017   ----------------------------------------
 BYTE   W96
//  #04 //018   ----------------------------------------
 BYTE   W96
//  #04 //019   ----------------------------------------
 BYTE   W96
//  #04 //020   ----------------------------------------
 BYTE   W96
//  #04 //021   ----------------------------------------
 BYTE   W96
//  #04 //022   ----------------------------------------
 BYTE   W96
//  #04 //023   ----------------------------------------
 BYTE   W96
//  #04 //024   ----------------------------------------
 BYTE   W96
//  #04 //025   ----------------------------------------
 BYTE   W96
//  #04 //026   ----------------------------------------
 BYTE   W96
//  #04 //027   ----------------------------------------
 BYTE   W96
//  #04 //028   ----------------------------------------
 BYTE   W96
//  #04 //029   ----------------------------------------
 BYTE   W96
//  #04 //030   ----------------------------------------
 BYTE   W96
//  #04 //031   ----------------------------------------
 BYTE   W96
//  #04 //032   ----------------------------------------
 BYTE   W96
//  #04 //033   ----------------------------------------
 BYTE   W96
//  #04 //034   ----------------------------------------
 BYTE   W96
//  #04 //035   ----------------------------------------
 BYTE   W96
//  #04 //036   ----------------------------------------
 BYTE   W48
 BYTE   N44  Fs2  v112
 BYTE   W48
//  #04 //037   ----------------------------------------
Label_010083E1:
 BYTE   N44  Bn2  v112
 BYTE   W48
 BYTE   Ds3
 BYTE   W48
 BYTE   PEND 
//  #04 //038   ----------------------------------------
 BYTE   TIE  Cs3
 BYTE   W96
//  #04 //039   ----------------------------------------
 BYTE   W92
 BYTE   W03
 BYTE   EOT
 BYTE   W01
//  #04 //040   ----------------------------------------
 BYTE   W48
 BYTE   N44  Fs2
 BYTE   W48
//  #04 //041   ----------------------------------------
 BYTE   PATT
  POIN2 Label_010083E1
//  #04 //042   ----------------------------------------
 BYTE   TIE  Cs3  v112
 BYTE   W96
//  #04 //043   ----------------------------------------
 BYTE   W92
 BYTE   W03
 BYTE   EOT
 BYTE   W01
//  #04 //044   ----------------------------------------
 BYTE   W48
 BYTE   N44  Gs2
 BYTE   W48
//  #04 //045   ----------------------------------------
Label_01008404:
 BYTE   N44  Ds3  v120
 BYTE   W48
 BYTE   Gs3
 BYTE   W48
 BYTE   PEND 
//  #04 //046   ----------------------------------------
 BYTE   TIE  Fs3
 BYTE   W96
//  #04 //047   ----------------------------------------
 BYTE   W92
 BYTE   W03
 BYTE   EOT
 BYTE   W01
//  #04 //048   ----------------------------------------
Label_01008412:
 BYTE   N68  Gs3  v120
 BYTE   W72
 BYTE   N05
 BYTE   W06
 BYTE   N05
 BYTE   W06
 BYTE   N11
 BYTE   W12
 BYTE   PEND 
//  #04 //049   ----------------------------------------
Label_0100841D:
 BYTE   N68  Gs3  v120
 BYTE   W72
 BYTE   N11
 BYTE   W12
 BYTE   N11
 BYTE   W12
 BYTE   PEND 
//  #04 //050   ----------------------------------------
 BYTE   N92  Ds3  v116
 BYTE   N92  Gs3
 BYTE   W96
//  #04 //051   ----------------------------------------
 BYTE   Ds3  v100
 BYTE   N92  Gs3
 BYTE   W96
//  #04 //052   ----------------------------------------
 BYTE   Bn2  v112
 BYTE   W96
//  #04 //053   ----------------------------------------
Label_01008434:
 BYTE   N44  Ds3  v112
 BYTE   W48
 BYTE   Bn2
 BYTE   W48
 BYTE   PEND 
//  #04 //054   ----------------------------------------
 BYTE   TIE  Gs2
 BYTE   W96
//  #04 //055   ----------------------------------------
 BYTE   W92
 BYTE   W03
 BYTE   EOT
 BYTE   W01
//  #04 //056   ----------------------------------------
 BYTE   N92  Cs3
 BYTE   W96
//  #04 //057   ----------------------------------------
 BYTE   N44  En3
 BYTE   W48
 BYTE   Cs3
 BYTE   W48
//  #04 //058   ----------------------------------------
 BYTE   TIE  As2
 BYTE   W96
//  #04 //059   ----------------------------------------
 BYTE   W92
 BYTE   W03
 BYTE   EOT
 BYTE   W01
//  #04 //060   ----------------------------------------
 BYTE   N92  Ds3
 BYTE   W96
//  #04 //061   ----------------------------------------
Label_01008454:
 BYTE   N44  Fs3  v112
 BYTE   W48
 BYTE   Ds3
 BYTE   W48
 BYTE   PEND 
//  #04 //062   ----------------------------------------
 BYTE   TIE  Bn2
 BYTE   W96
//  #04 //063   ----------------------------------------
 BYTE   W44
 BYTE   W03
 BYTE   EOT
 BYTE   W01
 BYTE   N23  Cs3
 BYTE   W24
 BYTE   Ds3
 BYTE   W24
//  #04 //064   ----------------------------------------
Label_01008467:
 BYTE   N44  Cs3  v112
 BYTE   W48
 BYTE   N92  Gs2
 BYTE   W48
 BYTE   PEND 
//  #04 //065   ----------------------------------------
 BYTE   W48
 BYTE   N44  As2
 BYTE   W48
//  #04 //066   ----------------------------------------
 BYTE   TIE  Bn2
 BYTE   W96
//  #04 //067   ----------------------------------------
 BYTE   W92
 BYTE   W03
 BYTE   EOT
 BYTE   W01
//  #04 //068   ----------------------------------------
 BYTE   TIE  As2
 BYTE   W96
//  #04 //069   ----------------------------------------
 BYTE   W92
 BYTE   W03
 BYTE   EOT
 BYTE   W01
//  #04 //070   ----------------------------------------
 BYTE   TIE  Bn2  v092
 BYTE   W96
//  #04 //071   ----------------------------------------
 BYTE   W96
//  #04 //072   ----------------------------------------
 BYTE   W96
//  #04 //073   ----------------------------------------
 BYTE   EOT
 BYTE   W96
//  #04 //074   ----------------------------------------
 BYTE   W96
//  #04 //075   ----------------------------------------
 BYTE   W96
//  #04 //076   ----------------------------------------
 BYTE   W96
//  #04 //077   ----------------------------------------
 BYTE   W96
//  #04 //078   ----------------------------------------
 BYTE   W96
//  #04 //079   ----------------------------------------
 BYTE   W96
//  #04 //080   ----------------------------------------
 BYTE   W96
//  #04 //081   ----------------------------------------
 BYTE   W96
//  #04 //082   ----------------------------------------
 BYTE   W96
//  #04 //083   ----------------------------------------
 BYTE   W96
//  #04 //084   ----------------------------------------
 BYTE   W96
//  #04 //085   ----------------------------------------
 BYTE   W96
//  #04 //086   ----------------------------------------
 BYTE   W96
//  #04 //087   ----------------------------------------
 BYTE   W96
//  #04 //088   ----------------------------------------
 BYTE   W96
//  #04 //089   ----------------------------------------
 BYTE   W96
//  #04 //090   ----------------------------------------
 BYTE   W96
//  #04 //091   ----------------------------------------
 BYTE   W96
//  #04 //092   ----------------------------------------
 BYTE   W96
//  #04 //093   ----------------------------------------
 BYTE   W96
//  #04 //094   ----------------------------------------
 BYTE   W96
//  #04 //095   ----------------------------------------
 BYTE   W96
//  #04 //096   ----------------------------------------
 BYTE   W96
//  #04 //097   ----------------------------------------
 BYTE   W96
//  #04 //098   ----------------------------------------
 BYTE   W96
//  #04 //099   ----------------------------------------
 BYTE   W96
//  #04 //100   ----------------------------------------
 BYTE   W96
//  #04 //101   ----------------------------------------
 BYTE   W96
//  #04 //102   ----------------------------------------
 BYTE   W96
//  #04 //103   ----------------------------------------
 BYTE   W96
//  #04 //104   ----------------------------------------
 BYTE   W96
//  #04 //105   ----------------------------------------
 BYTE   W96
//  #04 //106   ----------------------------------------
 BYTE   W48
 BYTE   N44  Fs2  v112
 BYTE   W48
//  #04 //107   ----------------------------------------
 BYTE   PATT
  POIN2 Label_010083E1
//  #04 //108   ----------------------------------------
 BYTE   TIE  Cs3  v112
 BYTE   W96
//  #04 //109   ----------------------------------------
 BYTE   W92
 BYTE   W03
 BYTE   EOT
 BYTE   W01
//  #04 //110   ----------------------------------------
 BYTE   W48
 BYTE   N44  Fs2
 BYTE   W48
//  #04 //111   ----------------------------------------
 BYTE   PATT
  POIN2 Label_010083E1
//  #04 //112   ----------------------------------------
 BYTE   TIE  Cs3  v112
 BYTE   W96
//  #04 //113   ----------------------------------------
 BYTE   W92
 BYTE   W03
 BYTE   EOT
 BYTE   W01
//  #04 //114   ----------------------------------------
 BYTE   W48
 BYTE   N44  Gs2
 BYTE   W48
//  #04 //115   ----------------------------------------
 BYTE   PATT
  POIN2 Label_01008404
//  #04 //116   ----------------------------------------
 BYTE   TIE  Fs3  v120
 BYTE   W96
//  #04 //117   ----------------------------------------
 BYTE   W92
 BYTE   W03
 BYTE   EOT
 BYTE   W01
//  #04 //118   ----------------------------------------
 BYTE   PATT
  POIN2 Label_01008412
//  #04 //119   ----------------------------------------
 BYTE   PATT
  POIN2 Label_0100841D
//  #04 //120   ----------------------------------------
 BYTE   N92  Ds3  v116
 BYTE   N92  Gs3
 BYTE   W96
//  #04 //121   ----------------------------------------
 BYTE   Ds3  v100
 BYTE   N92  Gs3
 BYTE   W96
//  #04 //122   ----------------------------------------
 BYTE   Bn2  v112
 BYTE   W96
//  #04 //123   ----------------------------------------
 BYTE   PATT
  POIN2 Label_01008434
//  #04 //124   ----------------------------------------
 BYTE   TIE  Gs2  v112
 BYTE   W96
//  #04 //125   ----------------------------------------
 BYTE   W92
 BYTE   W03
 BYTE   EOT
 BYTE   W01
//  #04 //126   ----------------------------------------
 BYTE   N92  Cs3
 BYTE   W96
//  #04 //127   ----------------------------------------
 BYTE   N44  En3
 BYTE   W48
 BYTE   Cs3
 BYTE   W48
//  #04 //128   ----------------------------------------
 BYTE   TIE  As2
 BYTE   W96
//  #04 //129   ----------------------------------------
 BYTE   W92
 BYTE   W03
 BYTE   EOT
 BYTE   W01
//  #04 //130   ----------------------------------------
 BYTE   N92  Ds3
 BYTE   W96
//  #04 //131   ----------------------------------------
 BYTE   PATT
  POIN2 Label_01008454
//  #04 //132   ----------------------------------------
 BYTE   TIE  Bn2  v112
 BYTE   W96
//  #04 //133   ----------------------------------------
 BYTE   W44
 BYTE   W03
 BYTE   EOT
 BYTE   W01
 BYTE   N23  Cs3
 BYTE   W24
 BYTE   Ds3
 BYTE   W24
//  #04 //134   ----------------------------------------
 BYTE   PATT
  POIN2 Label_01008467
//  #04 //135   ----------------------------------------
 BYTE   W48
 BYTE   N44  As2  v112
 BYTE   W48
//  #04 //136   ----------------------------------------
 BYTE   TIE  Bn2
 BYTE   W96
//  #04 //137   ----------------------------------------
 BYTE   W92
 BYTE   W03
 BYTE   EOT
 BYTE   W01
//  #04 //138   ----------------------------------------
 BYTE   TIE  As2
 BYTE   W96
//  #04 //139   ----------------------------------------
 BYTE   W92
 BYTE   W03
 BYTE   EOT
 BYTE   W01
//  #04 //140   ----------------------------------------
 BYTE   TIE  Bn2  v092
 BYTE   W96
//  #04 //141   ----------------------------------------
 BYTE   W96
//  #04 //142   ----------------------------------------
 BYTE   W96
//  #04 //143   ----------------------------------------
 BYTE   W92
 BYTE   W03
 BYTE   EOT
 BYTE   W01
//  #04 //144   ----------------------------------------
 BYTE   GoTo
  POIN2 Label_010083BC
//  #04 //145   ----------------------------------------
 BYTE   W96
//  #04 //146   ----------------------------------------
 BYTE   W96
//  #04 //147   ----------------------------------------
 BYTE   W96
//  #04 //148   ----------------------------------------
 BYTE   W92
 BYTE   W03
 BYTE   FINE

//**************** Track 5 (Midi-Chn.4) ****************//

Terra_005:
//  #05 //000   ----------------------------------------
 BYTE   VOL   33*Terra_mvl/mxv
 BYTE   KEYSH   Terra_key+0
 BYTE   VOICE   47
 BYTE   PAN   c_v-22
 BYTE   W96
//  #05 //001   ----------------------------------------
 BYTE   W96
//  #05 //002   ----------------------------------------
 BYTE   W96
//  #05 //003   ----------------------------------------
 BYTE   W96
//  #05 //004   ----------------------------------------
Label_01006B98:
 BYTE   W96
//  #05 //005   ----------------------------------------
 BYTE   W96
//  #05 //006   ----------------------------------------
 BYTE   W96
//  #05 //007   ----------------------------------------
 BYTE   W96
//  #05 //008   ----------------------------------------
 BYTE   W96
//  #05 //009   ----------------------------------------
 BYTE   W96
//  #05 //010   ----------------------------------------
 BYTE   W96
//  #05 //011   ----------------------------------------
 BYTE   W96
//  #05 //012   ----------------------------------------
 BYTE   W96
//  #05 //013   ----------------------------------------
 BYTE   W96
//  #05 //014   ----------------------------------------
 BYTE   W96
//  #05 //015   ----------------------------------------
 BYTE   W96
//  #05 //016   ----------------------------------------
 BYTE   W96
//  #05 //017   ----------------------------------------
 BYTE   W96
//  #05 //018   ----------------------------------------
 BYTE   W96
//  #05 //019   ----------------------------------------
 BYTE   W96
//  #05 //020   ----------------------------------------
 BYTE   W96
//  #05 //021   ----------------------------------------
 BYTE   W96
//  #05 //022   ----------------------------------------
 BYTE   W96
//  #05 //023   ----------------------------------------
 BYTE   W96
//  #05 //024   ----------------------------------------
 BYTE   W96
//  #05 //025   ----------------------------------------
 BYTE   W96
//  #05 //026   ----------------------------------------
 BYTE   W96
//  #05 //027   ----------------------------------------
 BYTE   W96
//  #05 //028   ----------------------------------------
 BYTE   W96
//  #05 //029   ----------------------------------------
 BYTE   W96
//  #05 //030   ----------------------------------------
 BYTE   W96
//  #05 //031   ----------------------------------------
 BYTE   W96
//  #05 //032   ----------------------------------------
 BYTE   W96
//  #05 //033   ----------------------------------------
 BYTE   W96
//  #05 //034   ----------------------------------------
 BYTE   W96
//  #05 //035   ----------------------------------------
 BYTE   W96
//  #05 //036   ----------------------------------------
 BYTE   W96
//  #05 //037   ----------------------------------------
 BYTE   W96
//  #05 //038   ----------------------------------------
 BYTE   W96
//  #05 //039   ----------------------------------------
 BYTE   W96
//  #05 //040   ----------------------------------------
 BYTE   W96
//  #05 //041   ----------------------------------------
 BYTE   W96
//  #05 //042   ----------------------------------------
 BYTE   W96
//  #05 //043   ----------------------------------------
 BYTE   W96
//  #05 //044   ----------------------------------------
 BYTE   W96
//  #05 //045   ----------------------------------------
 BYTE   W96
//  #05 //046   ----------------------------------------
 BYTE   W96
//  #05 //047   ----------------------------------------
 BYTE   W96
//  #05 //048   ----------------------------------------
 BYTE   W96
//  #05 //049   ----------------------------------------
 BYTE   W96
//  #05 //050   ----------------------------------------
 BYTE   W96
//  #05 //051   ----------------------------------------
Label_01006BC7:
 BYTE   W72
 BYTE   N04  Bn1  v127
 BYTE   W06
 BYTE   N04
 BYTE   W06
 BYTE   N04
 BYTE   W06
 BYTE   N04
 BYTE   W06
 BYTE   PEND 
//  #05 //052   ----------------------------------------
 BYTE   W96
//  #05 //053   ----------------------------------------
 BYTE   W96
//  #05 //054   ----------------------------------------
 BYTE   W96
//  #05 //055   ----------------------------------------
 BYTE   PATT
  POIN2 Label_01006BC7
//  #05 //056   ----------------------------------------
 BYTE   W96
//  #05 //057   ----------------------------------------
 BYTE   W96
//  #05 //058   ----------------------------------------
 BYTE   W96
//  #05 //059   ----------------------------------------
 BYTE   PATT
  POIN2 Label_01006BC7
//  #05 //060   ----------------------------------------
 BYTE   W96
//  #05 //061   ----------------------------------------
 BYTE   W96
//  #05 //062   ----------------------------------------
 BYTE   W96
//  #05 //063   ----------------------------------------
Label_01006BE6:
 BYTE   N16  Bn1  v127
 BYTE   W48
 BYTE   N16
 BYTE   W48
 BYTE   PEND 
//  #05 //064   ----------------------------------------
 BYTE   Gs1
 BYTE   W96
//  #05 //065   ----------------------------------------
Label_01006BEF:
 BYTE   N16  Gs1  v127
 BYTE   W48
 BYTE   As1
 BYTE   W48
 BYTE   PEND 
//  #05 //066   ----------------------------------------
 BYTE   Bn1
 BYTE   W96
//  #05 //067   ----------------------------------------
 BYTE   N16
 BYTE   W96
//  #05 //068   ----------------------------------------
Label_01006BFA:
 BYTE   N16  Cs2  v127
 BYTE   W48
 BYTE   Bn1
 BYTE   W48
 BYTE   PEND 
//  #05 //069   ----------------------------------------
Label_01006C01:
 BYTE   N16  Cs2  v127
 BYTE   W48
 BYTE   As1
 BYTE   W48
 BYTE   PEND 
//  #05 //070   ----------------------------------------
 BYTE   Bn1
 BYTE   W96
//  #05 //071   ----------------------------------------
 BYTE   W96
//  #05 //072   ----------------------------------------
 BYTE   W96
//  #05 //073   ----------------------------------------
 BYTE   W96
//  #05 //074   ----------------------------------------
 BYTE   W96
//  #05 //075   ----------------------------------------
 BYTE   W96
//  #05 //076   ----------------------------------------
 BYTE   W96
//  #05 //077   ----------------------------------------
 BYTE   W96
//  #05 //078   ----------------------------------------
 BYTE   W96
//  #05 //079   ----------------------------------------
 BYTE   W96
//  #05 //080   ----------------------------------------
 BYTE   W96
//  #05 //081   ----------------------------------------
 BYTE   W96
//  #05 //082   ----------------------------------------
 BYTE   W96
//  #05 //083   ----------------------------------------
 BYTE   W96
//  #05 //084   ----------------------------------------
 BYTE   W96
//  #05 //085   ----------------------------------------
 BYTE   W96
//  #05 //086   ----------------------------------------
 BYTE   W96
//  #05 //087   ----------------------------------------
 BYTE   W96
//  #05 //088   ----------------------------------------
 BYTE   W96
//  #05 //089   ----------------------------------------
 BYTE   W96
//  #05 //090   ----------------------------------------
 BYTE   W96
//  #05 //091   ----------------------------------------
 BYTE   W96
//  #05 //092   ----------------------------------------
 BYTE   W96
//  #05 //093   ----------------------------------------
 BYTE   W96
//  #05 //094   ----------------------------------------
 BYTE   W96
//  #05 //095   ----------------------------------------
 BYTE   W96
//  #05 //096   ----------------------------------------
 BYTE   W96
//  #05 //097   ----------------------------------------
 BYTE   W96
//  #05 //098   ----------------------------------------
 BYTE   W96
//  #05 //099   ----------------------------------------
 BYTE   W96
//  #05 //100   ----------------------------------------
 BYTE   W96
//  #05 //101   ----------------------------------------
 BYTE   W96
//  #05 //102   ----------------------------------------
 BYTE   W96
//  #05 //103   ----------------------------------------
 BYTE   W96
//  #05 //104   ----------------------------------------
 BYTE   W96
//  #05 //105   ----------------------------------------
 BYTE   W96
//  #05 //106   ----------------------------------------
 BYTE   W96
//  #05 //107   ----------------------------------------
 BYTE   W96
//  #05 //108   ----------------------------------------
 BYTE   W96
//  #05 //109   ----------------------------------------
 BYTE   W96
//  #05 //110   ----------------------------------------
 BYTE   W96
//  #05 //111   ----------------------------------------
 BYTE   W96
//  #05 //112   ----------------------------------------
 BYTE   W96
//  #05 //113   ----------------------------------------
 BYTE   W96
//  #05 //114   ----------------------------------------
 BYTE   W96
//  #05 //115   ----------------------------------------
 BYTE   W96
//  #05 //116   ----------------------------------------
 BYTE   W96
//  #05 //117   ----------------------------------------
 BYTE   W96
//  #05 //118   ----------------------------------------
 BYTE   W96
//  #05 //119   ----------------------------------------
 BYTE   W96
//  #05 //120   ----------------------------------------
 BYTE   W96
//  #05 //121   ----------------------------------------
 BYTE   PATT
  POIN2 Label_01006BC7
//  #05 //122   ----------------------------------------
 BYTE   W96
//  #05 //123   ----------------------------------------
 BYTE   W96
//  #05 //124   ----------------------------------------
 BYTE   W96
//  #05 //125   ----------------------------------------
 BYTE   PATT
  POIN2 Label_01006BC7
//  #05 //126   ----------------------------------------
 BYTE   W96
//  #05 //127   ----------------------------------------
 BYTE   W96
//  #05 //128   ----------------------------------------
 BYTE   W96
//  #05 //129   ----------------------------------------
 BYTE   PATT
  POIN2 Label_01006BC7
//  #05 //130   ----------------------------------------
 BYTE   W96
//  #05 //131   ----------------------------------------
 BYTE   W96
//  #05 //132   ----------------------------------------
 BYTE   W96
//  #05 //133   ----------------------------------------
 BYTE   PATT
  POIN2 Label_01006BE6
//  #05 //134   ----------------------------------------
 BYTE   N16  Gs1  v127
 BYTE   W96
//  #05 //135   ----------------------------------------
 BYTE   PATT
  POIN2 Label_01006BEF
//  #05 //136   ----------------------------------------
 BYTE   N16  Bn1  v127
 BYTE   W96
//  #05 //137   ----------------------------------------
 BYTE   N16
 BYTE   W96
//  #05 //138   ----------------------------------------
 BYTE   PATT
  POIN2 Label_01006BFA
//  #05 //139   ----------------------------------------
 BYTE   PATT
  POIN2 Label_01006C01
//  #05 //140   ----------------------------------------
 BYTE   N16  Bn1  v127
 BYTE   W96
//  #05 //141   ----------------------------------------
 BYTE   W96
//  #05 //142   ----------------------------------------
 BYTE   W96
//  #05 //143   ----------------------------------------
 BYTE   W96
//  #05 //144   ----------------------------------------
 BYTE   GoTo
  POIN2 Label_01006B98
//  #05 //145   ----------------------------------------
 BYTE   W96
//  #05 //146   ----------------------------------------
 BYTE   W96
//  #05 //147   ----------------------------------------
 BYTE   W96
//  #05 //148   ----------------------------------------
 BYTE   W92
 BYTE   W03
 BYTE   FINE

//**************** Track 6 (Midi-Chn.5) ****************//

Terra_006:
//  #06 //000   ----------------------------------------
 BYTE   VOL   33*Terra_mvl/mxv
 BYTE   KEYSH   Terra_key+0
 BYTE   VOICE   28
 BYTE   PAN   c_v-25
 BYTE   N08  Ds3  v036
 BYTE   W12
 BYTE   Gs3
 BYTE   W12
 BYTE   N16  Bn3
 BYTE   W24
 BYTE   N08  Ds3
 BYTE   W12
 BYTE   Gs3
 BYTE   W12
 BYTE   Bn3
 BYTE   W12
 BYTE   Gs3  v040
 BYTE   W12
//  #06 //001   ----------------------------------------
 BYTE   Ds3
 BYTE   W12
 BYTE   Gs3
 BYTE   W12
 BYTE   N16  Bn3
 BYTE   W24
 BYTE   N08  Ds3
 BYTE   W12
 BYTE   Gs3  v044
 BYTE   W12
 BYTE   Bn3
 BYTE   W12
 BYTE   Gs3
 BYTE   W12
//  #06 //002   ----------------------------------------
 BYTE   Ds3
 BYTE   W12
 BYTE   Gs3
 BYTE   W12
 BYTE   N16  Bn3  v048
 BYTE   W24
 BYTE   N08  Ds3
 BYTE   W12
 BYTE   Gs3
 BYTE   W12
 BYTE   Bn3
 BYTE   W12
 BYTE   Gs3
 BYTE   W12
//  #06 //003   ----------------------------------------
Label_01008D85:
 BYTE   N08  Ds3  v052
 BYTE   W12
 BYTE   Gs3
 BYTE   W12
 BYTE   N16  Bn3
 BYTE   W24
 BYTE   N08  Ds3
 BYTE   W12
 BYTE   Gs3  v056
 BYTE   W12
 BYTE   Bn3
 BYTE   W12
 BYTE   Gs3
 BYTE   W12
 BYTE   PEND 
//  #06 //004   ----------------------------------------
Label_01008D99:
 BYTE   W96
//  #06 //005   ----------------------------------------
 BYTE   W96
//  #06 //006   ----------------------------------------
 BYTE   W96
//  #06 //007   ----------------------------------------
 BYTE   W96
//  #06 //008   ----------------------------------------
 BYTE   W96
//  #06 //009   ----------------------------------------
 BYTE   W96
//  #06 //010   ----------------------------------------
 BYTE   W96
//  #06 //011   ----------------------------------------
 BYTE   W96
//  #06 //012   ----------------------------------------
 BYTE   W96
//  #06 //013   ----------------------------------------
 BYTE   W96
//  #06 //014   ----------------------------------------
 BYTE   W96
//  #06 //015   ----------------------------------------
 BYTE   W96
//  #06 //016   ----------------------------------------
 BYTE   W96
//  #06 //017   ----------------------------------------
 BYTE   W96
//  #06 //018   ----------------------------------------
 BYTE   W96
//  #06 //019   ----------------------------------------
 BYTE   W96
//  #06 //020   ----------------------------------------
 BYTE   W96
//  #06 //021   ----------------------------------------
 BYTE   W96
//  #06 //022   ----------------------------------------
 BYTE   W96
//  #06 //023   ----------------------------------------
 BYTE   W96
//  #06 //024   ----------------------------------------
 BYTE   W96
//  #06 //025   ----------------------------------------
 BYTE   W96
//  #06 //026   ----------------------------------------
 BYTE   W96
//  #06 //027   ----------------------------------------
 BYTE   W96
//  #06 //028   ----------------------------------------
 BYTE   W96
//  #06 //029   ----------------------------------------
 BYTE   W96
//  #06 //030   ----------------------------------------
 BYTE   W96
//  #06 //031   ----------------------------------------
 BYTE   W96
//  #06 //032   ----------------------------------------
 BYTE   W96
//  #06 //033   ----------------------------------------
 BYTE   W96
//  #06 //034   ----------------------------------------
 BYTE   W96
//  #06 //035   ----------------------------------------
 BYTE   W96
//  #06 //036   ----------------------------------------
Label_01008DB9:
 BYTE   N08  Fs3  v052
 BYTE   W12
 BYTE   Bn3
 BYTE   W12
 BYTE   N16  Ds4
 BYTE   W24
 BYTE   N08  Fs3
 BYTE   W12
 BYTE   Bn3
 BYTE   W12
 BYTE   Ds4
 BYTE   W12
 BYTE   Bn3
 BYTE   W12
 BYTE   PEND 
//  #06 //037   ----------------------------------------
 BYTE   PATT
  POIN2 Label_01008DB9
//  #06 //038   ----------------------------------------
Label_01008DD1:
 BYTE   N08  Fs3  v052
 BYTE   W12
 BYTE   As3
 BYTE   W12
 BYTE   N16  Cs4
 BYTE   W24
 BYTE   N08  Fs3
 BYTE   W12
 BYTE   As3
 BYTE   W12
 BYTE   Cs4
 BYTE   W12
 BYTE   As3
 BYTE   W12
 BYTE   PEND 
//  #06 //039   ----------------------------------------
 BYTE   PATT
  POIN2 Label_01008DD1
//  #06 //040   ----------------------------------------
 BYTE   PATT
  POIN2 Label_01008DB9
//  #06 //041   ----------------------------------------
 BYTE   PATT
  POIN2 Label_01008DB9
//  #06 //042   ----------------------------------------
 BYTE   PATT
  POIN2 Label_01008DD1
//  #06 //043   ----------------------------------------
 BYTE   PATT
  POIN2 Label_01008DD1
//  #06 //044   ----------------------------------------
Label_01008DFD:
 BYTE   N08  Ds3  v052
 BYTE   W12
 BYTE   Gs3
 BYTE   W12
 BYTE   N16  Bn3
 BYTE   W24
 BYTE   N08  Ds3
 BYTE   W12
 BYTE   Gs3
 BYTE   W12
 BYTE   Bn3
 BYTE   W12
 BYTE   Gs3
 BYTE   W12
 BYTE   PEND 
//  #06 //045   ----------------------------------------
 BYTE   PATT
  POIN2 Label_01008DFD
//  #06 //046   ----------------------------------------
 BYTE   PATT
  POIN2 Label_01008DD1
//  #06 //047   ----------------------------------------
 BYTE   PATT
  POIN2 Label_01008DD1
//  #06 //048   ----------------------------------------
 BYTE   PATT
  POIN2 Label_01008DFD
//  #06 //049   ----------------------------------------
 BYTE   PATT
  POIN2 Label_01008DFD
//  #06 //050   ----------------------------------------
 BYTE   PATT
  POIN2 Label_01008DFD
//  #06 //051   ----------------------------------------
 BYTE   PATT
  POIN2 Label_01008DFD
//  #06 //052   ----------------------------------------
Label_01008E33:
 BYTE   N04  Bn3  v056
 BYTE   W06
 BYTE   N04
 BYTE   W06
 BYTE   N04
 BYTE   W06
 BYTE   N04
 BYTE   W06
 BYTE   N04
 BYTE   W06
 BYTE   N04
 BYTE   W06
 BYTE   N04
 BYTE   W06
 BYTE   N04
 BYTE   W06
 BYTE   N04
 BYTE   W06
 BYTE   N04
 BYTE   W06
 BYTE   Bn3  v052
 BYTE   W06
 BYTE   N04
 BYTE   W06
 BYTE   N04
 BYTE   W06
 BYTE   N04
 BYTE   W06
 BYTE   N04
 BYTE   W06
 BYTE   N04
 BYTE   W06
 BYTE   PEND 
//  #06 //053   ----------------------------------------
Label_01008E57:
 BYTE   N04  Bn3  v052
 BYTE   W06
 BYTE   N04
 BYTE   W06
 BYTE   N04
 BYTE   W06
 BYTE   N04
 BYTE   W06
 BYTE   N04
 BYTE   W06
 BYTE   N04
 BYTE   W06
 BYTE   Bn3  v048
 BYTE   W06
 BYTE   N04
 BYTE   W06
 BYTE   N04
 BYTE   W06
 BYTE   N04
 BYTE   W06
 BYTE   N04
 BYTE   W06
 BYTE   N04
 BYTE   W06
 BYTE   N04
 BYTE   W06
 BYTE   N04
 BYTE   W06
 BYTE   N04
 BYTE   W06
 BYTE   N04
 BYTE   W06
 BYTE   PEND 
//  #06 //054   ----------------------------------------
Label_01008E7B:
 BYTE   N04  Gs3  v056
 BYTE   W06
 BYTE   N04
 BYTE   W06
 BYTE   N04
 BYTE   W06
 BYTE   N04
 BYTE   W06
 BYTE   N04
 BYTE   W06
 BYTE   N04
 BYTE   W06
 BYTE   N04
 BYTE   W06
 BYTE   N04
 BYTE   W06
 BYTE   N04
 BYTE   W06
 BYTE   N04
 BYTE   W06
 BYTE   Gs3  v052
 BYTE   W06
 BYTE   N04
 BYTE   W06
 BYTE   N04
 BYTE   W06
 BYTE   N04
 BYTE   W06
 BYTE   N04
 BYTE   W06
 BYTE   N04
 BYTE   W06
 BYTE   PEND 
//  #06 //055   ----------------------------------------
Label_01008E9F:
 BYTE   N04  Gs3  v052
 BYTE   W06
 BYTE   N04
 BYTE   W06
 BYTE   N04
 BYTE   W06
 BYTE   N04
 BYTE   W06
 BYTE   N04
 BYTE   W06
 BYTE   N04
 BYTE   W06
 BYTE   Gs3  v048
 BYTE   W06
 BYTE   N04
 BYTE   W06
 BYTE   N04
 BYTE   W06
 BYTE   N04
 BYTE   W06
 BYTE   N04
 BYTE   W06
 BYTE   N04
 BYTE   W06
 BYTE   N04
 BYTE   W06
 BYTE   N04
 BYTE   W06
 BYTE   N04
 BYTE   W06
 BYTE   N04
 BYTE   W06
 BYTE   PEND 
//  #06 //056   ----------------------------------------
Label_01008EC3:
 BYTE   N04  Cs4  v056
 BYTE   W06
 BYTE   N04
 BYTE   W06
 BYTE   N04
 BYTE   W06
 BYTE   N04
 BYTE   W06
 BYTE   N04
 BYTE   W06
 BYTE   N04
 BYTE   W06
 BYTE   N04
 BYTE   W06
 BYTE   N04
 BYTE   W06
 BYTE   N04
 BYTE   W06
 BYTE   N04
 BYTE   W06
 BYTE   Cs4  v052
 BYTE   W06
 BYTE   N04
 BYTE   W06
 BYTE   N04
 BYTE   W06
 BYTE   N04
 BYTE   W06
 BYTE   N04
 BYTE   W06
 BYTE   N04
 BYTE   W06
 BYTE   PEND 
//  #06 //057   ----------------------------------------
Label_01008EE7:
 BYTE   N04  Cs4  v052
 BYTE   W06
 BYTE   N04
 BYTE   W06
 BYTE   N04
 BYTE   W06
 BYTE   N04
 BYTE   W06
 BYTE   N04
 BYTE   W06
 BYTE   N04
 BYTE   W06
 BYTE   Cs4  v048
 BYTE   W06
 BYTE   N04
 BYTE   W06
 BYTE   N04
 BYTE   W06
 BYTE   N04
 BYTE   W06
 BYTE   N04
 BYTE   W06
 BYTE   N04
 BYTE   W06
 BYTE   N04
 BYTE   W06
 BYTE   N04
 BYTE   W06
 BYTE   N04
 BYTE   W06
 BYTE   N04
 BYTE   W06
 BYTE   PEND 
//  #06 //058   ----------------------------------------
Label_01008F0B:
 BYTE   N04  As3  v056
 BYTE   W06
 BYTE   N04
 BYTE   W06
 BYTE   N04
 BYTE   W06
 BYTE   N04
 BYTE   W06
 BYTE   N04
 BYTE   W06
 BYTE   N04
 BYTE   W06
 BYTE   N04
 BYTE   W06
 BYTE   N04
 BYTE   W06
 BYTE   N04
 BYTE   W06
 BYTE   N04
 BYTE   W06
 BYTE   As3  v052
 BYTE   W06
 BYTE   N04
 BYTE   W06
 BYTE   N04
 BYTE   W06
 BYTE   N04
 BYTE   W06
 BYTE   N04
 BYTE   W06
 BYTE   N04
 BYTE   W06
 BYTE   PEND 
//  #06 //059   ----------------------------------------
Label_01008F2F:
 BYTE   N04  As3  v052
 BYTE   W06
 BYTE   N04
 BYTE   W06
 BYTE   N04
 BYTE   W06
 BYTE   N04
 BYTE   W06
 BYTE   N04
 BYTE   W06
 BYTE   N04
 BYTE   W06
 BYTE   As3  v048
 BYTE   W06
 BYTE   N04
 BYTE   W06
 BYTE   N04
 BYTE   W06
 BYTE   N04
 BYTE   W06
 BYTE   N04
 BYTE   W06
 BYTE   N04
 BYTE   W06
 BYTE   N04
 BYTE   W06
 BYTE   N04
 BYTE   W06
 BYTE   N04
 BYTE   W06
 BYTE   N04
 BYTE   W06
 BYTE   PEND 
//  #06 //060   ----------------------------------------
Label_01008F53:
 BYTE   N04  Ds4  v056
 BYTE   W06
 BYTE   N04
 BYTE   W06
 BYTE   N04
 BYTE   W06
 BYTE   N04
 BYTE   W06
 BYTE   N04
 BYTE   W06
 BYTE   N04
 BYTE   W06
 BYTE   N04
 BYTE   W06
 BYTE   N04
 BYTE   W06
 BYTE   N04
 BYTE   W06
 BYTE   N04
 BYTE   W06
 BYTE   Ds4  v052
 BYTE   W06
 BYTE   N04
 BYTE   W06
 BYTE   N04
 BYTE   W06
 BYTE   N04
 BYTE   W06
 BYTE   N04
 BYTE   W06
 BYTE   N04
 BYTE   W06
 BYTE   PEND 
//  #06 //061   ----------------------------------------
Label_01008F77:
 BYTE   N04  Ds4  v052
 BYTE   W06
 BYTE   N04
 BYTE   W06
 BYTE   N04
 BYTE   W06
 BYTE   N04
 BYTE   W06
 BYTE   N04
 BYTE   W06
 BYTE   N04
 BYTE   W06
 BYTE   Ds4  v048
 BYTE   W06
 BYTE   N04
 BYTE   W06
 BYTE   N04
 BYTE   W06
 BYTE   N04
 BYTE   W06
 BYTE   N04
 BYTE   W06
 BYTE   N04
 BYTE   W06
 BYTE   N04
 BYTE   W06
 BYTE   N04
 BYTE   W06
 BYTE   N04
 BYTE   W06
 BYTE   N04
 BYTE   W06
 BYTE   PEND 
//  #06 //062   ----------------------------------------
 BYTE   PATT
  POIN2 Label_01008E33
//  #06 //063   ----------------------------------------
 BYTE   PATT
  POIN2 Label_01008E57
//  #06 //064   ----------------------------------------
 BYTE   PATT
  POIN2 Label_01008E7B
//  #06 //065   ----------------------------------------
 BYTE   PATT
  POIN2 Label_01008E9F
//  #06 //066   ----------------------------------------
 BYTE   PATT
  POIN2 Label_01008E33
//  #06 //067   ----------------------------------------
 BYTE   PATT
  POIN2 Label_01008E57
//  #06 //068   ----------------------------------------
 BYTE   PATT
  POIN2 Label_01008F0B
//  #06 //069   ----------------------------------------
 BYTE   PATT
  POIN2 Label_01008F2F
//  #06 //070   ----------------------------------------
Label_01008FC3:
 BYTE   N08  Ds3  v044
 BYTE   W12
 BYTE   Gs3
 BYTE   W12
 BYTE   N16  Bn3
 BYTE   W24
 BYTE   N08  Ds3
 BYTE   W12
 BYTE   Gs3  v048
 BYTE   W12
 BYTE   Bn3
 BYTE   W12
 BYTE   Gs3
 BYTE   W12
 BYTE   PEND 
//  #06 //071   ----------------------------------------
Label_01008FD7:
 BYTE   N08  Ds3  v048
 BYTE   W12
 BYTE   Gs3
 BYTE   W12
 BYTE   N16  Bn3
 BYTE   W24
 BYTE   N08  Ds3
 BYTE   W12
 BYTE   Gs3
 BYTE   W12
 BYTE   Bn3
 BYTE   W12
 BYTE   Gs3
 BYTE   W12
 BYTE   PEND 
//  #06 //072   ----------------------------------------
 BYTE   PATT
  POIN2 Label_01008DFD
//  #06 //073   ----------------------------------------
 BYTE   PATT
  POIN2 Label_01008D85
//  #06 //074   ----------------------------------------
 BYTE   W96
//  #06 //075   ----------------------------------------
 BYTE   W96
//  #06 //076   ----------------------------------------
 BYTE   W96
//  #06 //077   ----------------------------------------
 BYTE   W96
//  #06 //078   ----------------------------------------
 BYTE   W96
//  #06 //079   ----------------------------------------
 BYTE   W96
//  #06 //080   ----------------------------------------
 BYTE   W96
//  #06 //081   ----------------------------------------
 BYTE   W96
//  #06 //082   ----------------------------------------
 BYTE   W96
//  #06 //083   ----------------------------------------
 BYTE   W96
//  #06 //084   ----------------------------------------
 BYTE   W96
//  #06 //085   ----------------------------------------
 BYTE   W96
//  #06 //086   ----------------------------------------
 BYTE   W96
//  #06 //087   ----------------------------------------
 BYTE   W96
//  #06 //088   ----------------------------------------
 BYTE   W96
//  #06 //089   ----------------------------------------
 BYTE   W96
//  #06 //090   ----------------------------------------
 BYTE   W96
//  #06 //091   ----------------------------------------
 BYTE   W96
//  #06 //092   ----------------------------------------
 BYTE   W96
//  #06 //093   ----------------------------------------
 BYTE   W96
//  #06 //094   ----------------------------------------
 BYTE   W96
//  #06 //095   ----------------------------------------
 BYTE   W96
//  #06 //096   ----------------------------------------
 BYTE   W96
//  #06 //097   ----------------------------------------
 BYTE   W96
//  #06 //098   ----------------------------------------
 BYTE   W96
//  #06 //099   ----------------------------------------
 BYTE   W96
//  #06 //100   ----------------------------------------
 BYTE   W96
//  #06 //101   ----------------------------------------
 BYTE   W96
//  #06 //102   ----------------------------------------
 BYTE   W96
//  #06 //103   ----------------------------------------
 BYTE   W96
//  #06 //104   ----------------------------------------
 BYTE   W96
//  #06 //105   ----------------------------------------
 BYTE   W96
//  #06 //106   ----------------------------------------
 BYTE   PATT
  POIN2 Label_01008DB9
//  #06 //107   ----------------------------------------
 BYTE   PATT
  POIN2 Label_01008DB9
//  #06 //108   ----------------------------------------
 BYTE   PATT
  POIN2 Label_01008DD1
//  #06 //109   ----------------------------------------
 BYTE   PATT
  POIN2 Label_01008DD1
//  #06 //110   ----------------------------------------
 BYTE   PATT
  POIN2 Label_01008DB9
//  #06 //111   ----------------------------------------
 BYTE   PATT
  POIN2 Label_01008DB9
//  #06 //112   ----------------------------------------
 BYTE   PATT
  POIN2 Label_01008DD1
//  #06 //113   ----------------------------------------
 BYTE   PATT
  POIN2 Label_01008DD1
//  #06 //114   ----------------------------------------
 BYTE   PATT
  POIN2 Label_01008DFD
//  #06 //115   ----------------------------------------
 BYTE   PATT
  POIN2 Label_01008DFD
//  #06 //116   ----------------------------------------
 BYTE   PATT
  POIN2 Label_01008DD1
//  #06 //117   ----------------------------------------
 BYTE   PATT
  POIN2 Label_01008DD1
//  #06 //118   ----------------------------------------
 BYTE   PATT
  POIN2 Label_01008DFD
//  #06 //119   ----------------------------------------
 BYTE   PATT
  POIN2 Label_01008DFD
//  #06 //120   ----------------------------------------
 BYTE   PATT
  POIN2 Label_01008DFD
//  #06 //121   ----------------------------------------
 BYTE   PATT
  POIN2 Label_01008DFD
//  #06 //122   ----------------------------------------
 BYTE   PATT
  POIN2 Label_01008E33
//  #06 //123   ----------------------------------------
 BYTE   PATT
  POIN2 Label_01008E57
//  #06 //124   ----------------------------------------
 BYTE   PATT
  POIN2 Label_01008E7B
//  #06 //125   ----------------------------------------
 BYTE   PATT
  POIN2 Label_01008E9F
//  #06 //126   ----------------------------------------
 BYTE   PATT
  POIN2 Label_01008EC3
//  #06 //127   ----------------------------------------
 BYTE   PATT
  POIN2 Label_01008EE7
//  #06 //128   ----------------------------------------
 BYTE   PATT
  POIN2 Label_01008F0B
//  #06 //129   ----------------------------------------
 BYTE   PATT
  POIN2 Label_01008F2F
//  #06 //130   ----------------------------------------
 BYTE   PATT
  POIN2 Label_01008F53
//  #06 //131   ----------------------------------------
 BYTE   PATT
  POIN2 Label_01008F77
//  #06 //132   ----------------------------------------
 BYTE   PATT
  POIN2 Label_01008E33
//  #06 //133   ----------------------------------------
 BYTE   PATT
  POIN2 Label_01008E57
//  #06 //134   ----------------------------------------
 BYTE   PATT
  POIN2 Label_01008E7B
//  #06 //135   ----------------------------------------
 BYTE   PATT
  POIN2 Label_01008E9F
//  #06 //136   ----------------------------------------
 BYTE   PATT
  POIN2 Label_01008E33
//  #06 //137   ----------------------------------------
 BYTE   PATT
  POIN2 Label_01008E57
//  #06 //138   ----------------------------------------
 BYTE   PATT
  POIN2 Label_01008F0B
//  #06 //139   ----------------------------------------
 BYTE   PATT
  POIN2 Label_01008F2F
//  #06 //140   ----------------------------------------
 BYTE   PATT
  POIN2 Label_01008FC3
//  #06 //141   ----------------------------------------
 BYTE   PATT
  POIN2 Label_01008FD7
//  #06 //142   ----------------------------------------
 BYTE   PATT
  POIN2 Label_01008DFD
//  #06 //143   ----------------------------------------
 BYTE   PATT
  POIN2 Label_01008D85
//  #06 //144   ----------------------------------------
 BYTE   GoTo
  POIN2 Label_01008D99
//  #06 //145   ----------------------------------------
 BYTE   W96
//  #06 //146   ----------------------------------------
 BYTE   W96
//  #06 //147   ----------------------------------------
 BYTE   W96
//  #06 //148   ----------------------------------------
 BYTE   W92
 BYTE   W03
 BYTE   FINE

//**************** Track 7 (Midi-Chn.6) ****************//

Terra_007:
//  #07 //000   ----------------------------------------
 BYTE   VOL   23*Terra_mvl/mxv
 BYTE   KEYSH   Terra_key+0
 BYTE   VOICE   121
 BYTE   N16  En1  v052
 BYTE   W24
 BYTE   N16
 BYTE   W24
 BYTE   En1  v056
 BYTE   W24
 BYTE   N04
 BYTE   W06
 BYTE   N04
 BYTE   W06
 BYTE   N08
 BYTE   W12
//  #07 //001   ----------------------------------------
 BYTE   N16
 BYTE   W24
 BYTE   En1  v060
 BYTE   W24
 BYTE   N16
 BYTE   W24
 BYTE   N04
 BYTE   W06
 BYTE   En1  v064
 BYTE   W06
 BYTE   N08
 BYTE   W12
//  #07 //002   ----------------------------------------
 BYTE   N16
 BYTE   W24
 BYTE   N16
 BYTE   W24
 BYTE   En1  v068
 BYTE   W24
 BYTE   N04
 BYTE   W06
 BYTE   N04
 BYTE   W06
 BYTE   N08
 BYTE   W12
//  #07 //003   ----------------------------------------
Label_01009120:
 BYTE   N16  En1  v068
 BYTE   W24
 BYTE   En1  v072
 BYTE   W24
 BYTE   N16
 BYTE   W24
 BYTE   N04  En1  v076
 BYTE   W06
 BYTE   N04
 BYTE   W06
 BYTE   N08
 BYTE   W12
 BYTE   PEND 
//  #07 //004   ----------------------------------------
Label_01009132:
 BYTE   N16  En1  v076
 BYTE   W24
 BYTE   N16
 BYTE   W24
 BYTE   N16
 BYTE   W24
 BYTE   N04
 BYTE   W06
 BYTE   N04
 BYTE   W06
 BYTE   N08
 BYTE   W12
 BYTE   PEND 
//  #07 //005   ----------------------------------------
Label_01009141:
 BYTE   N16  En1  v076
 BYTE   W24
 BYTE   N04
 BYTE   W06
 BYTE   N04
 BYTE   W06
 BYTE   N08
 BYTE   W12
 BYTE   N16
 BYTE   W24
 BYTE   N08
 BYTE   W12
 BYTE   N08
 BYTE   W12
 BYTE   PEND 
//  #07 //006   ----------------------------------------
 BYTE   PATT
  POIN2 Label_01009132
//  #07 //007   ----------------------------------------
 BYTE   PATT
  POIN2 Label_01009141
//  #07 //008   ----------------------------------------
 BYTE   PATT
  POIN2 Label_01009132
//  #07 //009   ----------------------------------------
 BYTE   PATT
  POIN2 Label_01009141
//  #07 //010   ----------------------------------------
 BYTE   PATT
  POIN2 Label_01009132
//  #07 //011   ----------------------------------------
 BYTE   PATT
  POIN2 Label_01009141
//  #07 //012   ----------------------------------------
 BYTE   PATT
  POIN2 Label_01009132
//  #07 //013   ----------------------------------------
 BYTE   PATT
  POIN2 Label_01009141
//  #07 //014   ----------------------------------------
 BYTE   PATT
  POIN2 Label_01009132
//  #07 //015   ----------------------------------------
 BYTE   PATT
  POIN2 Label_01009141
//  #07 //016   ----------------------------------------
 BYTE   PATT
  POIN2 Label_01009132
//  #07 //017   ----------------------------------------
 BYTE   PATT
  POIN2 Label_01009141
//  #07 //018   ----------------------------------------
 BYTE   PATT
  POIN2 Label_01009132
//  #07 //019   ----------------------------------------
 BYTE   PATT
  POIN2 Label_01009141
//  #07 //020   ----------------------------------------
 BYTE   PATT
  POIN2 Label_01009132
//  #07 //021   ----------------------------------------
 BYTE   PATT
  POIN2 Label_01009141
//  #07 //022   ----------------------------------------
 BYTE   PATT
  POIN2 Label_01009132
//  #07 //023   ----------------------------------------
 BYTE   PATT
  POIN2 Label_01009141
//  #07 //024   ----------------------------------------
 BYTE   PATT
  POIN2 Label_01009132
//  #07 //025   ----------------------------------------
 BYTE   PATT
  POIN2 Label_01009141
//  #07 //026   ----------------------------------------
 BYTE   PATT
  POIN2 Label_01009132
//  #07 //027   ----------------------------------------
 BYTE   PATT
  POIN2 Label_01009141
//  #07 //028   ----------------------------------------
 BYTE   PATT
  POIN2 Label_01009132
//  #07 //029   ----------------------------------------
 BYTE   PATT
  POIN2 Label_01009141
//  #07 //030   ----------------------------------------
 BYTE   PATT
  POIN2 Label_01009132
//  #07 //031   ----------------------------------------
 BYTE   PATT
  POIN2 Label_01009141
//  #07 //032   ----------------------------------------
 BYTE   PATT
  POIN2 Label_01009132
//  #07 //033   ----------------------------------------
 BYTE   PATT
  POIN2 Label_01009141
//  #07 //034   ----------------------------------------
 BYTE   PATT
  POIN2 Label_01009132
//  #07 //035   ----------------------------------------
 BYTE   PATT
  POIN2 Label_01009141
//  #07 //036   ----------------------------------------
 BYTE   PATT
  POIN2 Label_01009132
//  #07 //037   ----------------------------------------
 BYTE   PATT
  POIN2 Label_01009141
//  #07 //038   ----------------------------------------
 BYTE   PATT
  POIN2 Label_01009132
//  #07 //039   ----------------------------------------
 BYTE   PATT
  POIN2 Label_01009141
//  #07 //040   ----------------------------------------
 BYTE   PATT
  POIN2 Label_01009132
//  #07 //041   ----------------------------------------
 BYTE   PATT
  POIN2 Label_01009141
//  #07 //042   ----------------------------------------
 BYTE   PATT
  POIN2 Label_01009132
//  #07 //043   ----------------------------------------
 BYTE   PATT
  POIN2 Label_01009141
//  #07 //044   ----------------------------------------
 BYTE   PATT
  POIN2 Label_01009132
//  #07 //045   ----------------------------------------
 BYTE   PATT
  POIN2 Label_01009141
//  #07 //046   ----------------------------------------
 BYTE   PATT
  POIN2 Label_01009132
//  #07 //047   ----------------------------------------
 BYTE   PATT
  POIN2 Label_01009141
//  #07 //048   ----------------------------------------
 BYTE   PATT
  POIN2 Label_01009132
//  #07 //049   ----------------------------------------
 BYTE   PATT
  POIN2 Label_01009141
//  #07 //050   ----------------------------------------
 BYTE   PATT
  POIN2 Label_01009132
//  #07 //051   ----------------------------------------
 BYTE   PATT
  POIN2 Label_01009141
//  #07 //052   ----------------------------------------
Label_01009238:
 BYTE   N08  En1  v076
 BYTE   N23  Cs2  v127
 BYTE   W12
 BYTE   N08  En1  v076
 BYTE   W12
 BYTE   N08
 BYTE   W12
 BYTE   N08
 BYTE   W12
 BYTE   N08
 BYTE   W12
 BYTE   N08
 BYTE   W12
 BYTE   En1  v064
 BYTE   W12
 BYTE   N08
 BYTE   W12
 BYTE   PEND 
//  #07 //053   ----------------------------------------
Label_01009251:
 BYTE   N08  En1  v076
 BYTE   W12
 BYTE   N08
 BYTE   W12
 BYTE   N08
 BYTE   W12
 BYTE   N08
 BYTE   W12
 BYTE   N08
 BYTE   W12
 BYTE   N08
 BYTE   W12
 BYTE   En1  v064
 BYTE   W12
 BYTE   N08
 BYTE   W12
 BYTE   PEND 
//  #07 //054   ----------------------------------------
 BYTE   PATT
  POIN2 Label_01009251
//  #07 //055   ----------------------------------------
 BYTE   PATT
  POIN2 Label_01009251
//  #07 //056   ----------------------------------------
 BYTE   PATT
  POIN2 Label_01009238
//  #07 //057   ----------------------------------------
 BYTE   PATT
  POIN2 Label_01009251
//  #07 //058   ----------------------------------------
Label_01009279:
 BYTE   N08  En1  v076
 BYTE   W12
 BYTE   N08
 BYTE   W12
 BYTE   N08
 BYTE   W12
 BYTE   N08
 BYTE   W12
 BYTE   N08
 BYTE   W12
 BYTE   N08
 BYTE   W36
 BYTE   PEND 
//  #07 //059   ----------------------------------------
 BYTE   PATT
  POIN2 Label_01009251
//  #07 //060   ----------------------------------------
 BYTE   PATT
  POIN2 Label_01009238
//  #07 //061   ----------------------------------------
 BYTE   PATT
  POIN2 Label_01009251
//  #07 //062   ----------------------------------------
 BYTE   PATT
  POIN2 Label_01009251
//  #07 //063   ----------------------------------------
 BYTE   PATT
  POIN2 Label_01009251
//  #07 //064   ----------------------------------------
 BYTE   PATT
  POIN2 Label_01009238
//  #07 //065   ----------------------------------------
 BYTE   PATT
  POIN2 Label_01009251
//  #07 //066   ----------------------------------------
 BYTE   PATT
  POIN2 Label_01009238
//  #07 //067   ----------------------------------------
 BYTE   PATT
  POIN2 Label_01009251
//  #07 //068   ----------------------------------------
 BYTE   PATT
  POIN2 Label_01009238
//  #07 //069   ----------------------------------------
 BYTE   PATT
  POIN2 Label_01009251
//  #07 //070   ----------------------------------------
Label_010092BF:
 BYTE   N16  En1  v076
 BYTE   N16  Cs2
 BYTE   W24
 BYTE   En1
 BYTE   W24
 BYTE   N16
 BYTE   W24
 BYTE   N04
 BYTE   W06
 BYTE   N04
 BYTE   W06
 BYTE   N08
 BYTE   W12
 BYTE   PEND 
//  #07 //071   ----------------------------------------
 BYTE   PATT
  POIN2 Label_01009132
//  #07 //072   ----------------------------------------
 BYTE   PATT
  POIN2 Label_01009132
//  #07 //073   ----------------------------------------
 BYTE   PATT
  POIN2 Label_01009120
//  #07 //074   ----------------------------------------
 BYTE   PATT
  POIN2 Label_01009132
//  #07 //075   ----------------------------------------
 BYTE   PATT
  POIN2 Label_01009141
//  #07 //076   ----------------------------------------
 BYTE   PATT
  POIN2 Label_01009132
//  #07 //077   ----------------------------------------
 BYTE   PATT
  POIN2 Label_01009141
//  #07 //078   ----------------------------------------
 BYTE   PATT
  POIN2 Label_01009132
//  #07 //079   ----------------------------------------
 BYTE   PATT
  POIN2 Label_01009141
//  #07 //080   ----------------------------------------
 BYTE   PATT
  POIN2 Label_01009132
//  #07 //081   ----------------------------------------
 BYTE   PATT
  POIN2 Label_01009141
//  #07 //082   ----------------------------------------
 BYTE   PATT
  POIN2 Label_01009132
//  #07 //083   ----------------------------------------
 BYTE   PATT
  POIN2 Label_01009141
//  #07 //084   ----------------------------------------
 BYTE   PATT
  POIN2 Label_01009132
//  #07 //085   ----------------------------------------
 BYTE   PATT
  POIN2 Label_01009141
//  #07 //086   ----------------------------------------
 BYTE   PATT
  POIN2 Label_01009132
//  #07 //087   ----------------------------------------
 BYTE   PATT
  POIN2 Label_01009141
//  #07 //088   ----------------------------------------
 BYTE   PATT
  POIN2 Label_01009132
//  #07 //089   ----------------------------------------
 BYTE   PATT
  POIN2 Label_01009141
//  #07 //090   ----------------------------------------
 BYTE   PATT
  POIN2 Label_01009132
//  #07 //091   ----------------------------------------
 BYTE   PATT
  POIN2 Label_01009141
//  #07 //092   ----------------------------------------
 BYTE   PATT
  POIN2 Label_01009132
//  #07 //093   ----------------------------------------
 BYTE   PATT
  POIN2 Label_01009141
//  #07 //094   ----------------------------------------
 BYTE   PATT
  POIN2 Label_01009132
//  #07 //095   ----------------------------------------
 BYTE   PATT
  POIN2 Label_01009141
//  #07 //096   ----------------------------------------
 BYTE   PATT
  POIN2 Label_01009132
//  #07 //097   ----------------------------------------
 BYTE   PATT
  POIN2 Label_01009141
//  #07 //098   ----------------------------------------
 BYTE   PATT
  POIN2 Label_01009132
//  #07 //099   ----------------------------------------
 BYTE   PATT
  POIN2 Label_01009141
//  #07 //100   ----------------------------------------
 BYTE   PATT
  POIN2 Label_01009132
//  #07 //101   ----------------------------------------
 BYTE   PATT
  POIN2 Label_01009141
//  #07 //102   ----------------------------------------
 BYTE   PATT
  POIN2 Label_01009132
//  #07 //103   ----------------------------------------
 BYTE   PATT
  POIN2 Label_01009141
//  #07 //104   ----------------------------------------
 BYTE   PATT
  POIN2 Label_01009132
//  #07 //105   ----------------------------------------
 BYTE   PATT
  POIN2 Label_01009141
//  #07 //106   ----------------------------------------
 BYTE   PATT
  POIN2 Label_01009132
//  #07 //107   ----------------------------------------
 BYTE   PATT
  POIN2 Label_01009141
//  #07 //108   ----------------------------------------
 BYTE   PATT
  POIN2 Label_01009132
//  #07 //109   ----------------------------------------
 BYTE   PATT
  POIN2 Label_01009141
//  #07 //110   ----------------------------------------
 BYTE   PATT
  POIN2 Label_01009132
//  #07 //111   ----------------------------------------
 BYTE   PATT
  POIN2 Label_01009141
//  #07 //112   ----------------------------------------
 BYTE   PATT
  POIN2 Label_01009132
//  #07 //113   ----------------------------------------
 BYTE   PATT
  POIN2 Label_01009141
//  #07 //114   ----------------------------------------
 BYTE   PATT
  POIN2 Label_01009132
//  #07 //115   ----------------------------------------
 BYTE   PATT
  POIN2 Label_01009141
//  #07 //116   ----------------------------------------
 BYTE   PATT
  POIN2 Label_01009132
//  #07 //117   ----------------------------------------
 BYTE   PATT
  POIN2 Label_01009141
//  #07 //118   ----------------------------------------
 BYTE   PATT
  POIN2 Label_01009132
//  #07 //119   ----------------------------------------
 BYTE   PATT
  POIN2 Label_01009141
//  #07 //120   ----------------------------------------
 BYTE   PATT
  POIN2 Label_01009132
//  #07 //121   ----------------------------------------
 BYTE   PATT
  POIN2 Label_01009141
//  #07 //122   ----------------------------------------
 BYTE   PATT
  POIN2 Label_01009238
//  #07 //123   ----------------------------------------
 BYTE   PATT
  POIN2 Label_01009251
//  #07 //124   ----------------------------------------
 BYTE   PATT
  POIN2 Label_01009251
//  #07 //125   ----------------------------------------
 BYTE   PATT
  POIN2 Label_01009251
//  #07 //126   ----------------------------------------
 BYTE   PATT
  POIN2 Label_01009238
//  #07 //127   ----------------------------------------
 BYTE   PATT
  POIN2 Label_01009251
//  #07 //128   ----------------------------------------
 BYTE   PATT
  POIN2 Label_01009279
//  #07 //129   ----------------------------------------
 BYTE   PATT
  POIN2 Label_01009251
//  #07 //130   ----------------------------------------
 BYTE   PATT
  POIN2 Label_01009238
//  #07 //131   ----------------------------------------
 BYTE   PATT
  POIN2 Label_01009251
//  #07 //132   ----------------------------------------
 BYTE   PATT
  POIN2 Label_01009251
//  #07 //133   ----------------------------------------
 BYTE   PATT
  POIN2 Label_01009251
//  #07 //134   ----------------------------------------
 BYTE   PATT
  POIN2 Label_01009238
//  #07 //135   ----------------------------------------
 BYTE   PATT
  POIN2 Label_01009251
//  #07 //136   ----------------------------------------
 BYTE   PATT
  POIN2 Label_01009238
//  #07 //137   ----------------------------------------
 BYTE   PATT
  POIN2 Label_01009251
//  #07 //138   ----------------------------------------
 BYTE   PATT
  POIN2 Label_01009238
//  #07 //139   ----------------------------------------
 BYTE   PATT
  POIN2 Label_01009251
//  #07 //140   ----------------------------------------
 BYTE   PATT
  POIN2 Label_010092BF
//  #07 //141   ----------------------------------------
 BYTE   PATT
  POIN2 Label_01009132
//  #07 //142   ----------------------------------------
 BYTE   PATT
  POIN2 Label_01009132
//  #07 //143   ----------------------------------------
 BYTE   PATT
  POIN2 Label_01009120
//  #07 //144   ----------------------------------------
 BYTE   GoTo
  POIN2 Label_01009132
//  #07 //145   ----------------------------------------
 BYTE   N16  En1  v100
 BYTE   W24
 BYTE   En1  v096
 BYTE   W24
 BYTE   En1  v092
 BYTE   W24
 BYTE   N04  En1  v088
 BYTE   W06
 BYTE   En1  v084
 BYTE   W06
 BYTE   N08
 BYTE   W12
//  #07 //146   ----------------------------------------
 BYTE   N16  En1  v080
 BYTE   W24
 BYTE   N04  En1  v076
 BYTE   W06
 BYTE   N04
 BYTE   W06
 BYTE   N08
 BYTE   W12
 BYTE   N16  En1  v072
 BYTE   W24
 BYTE   N08  En1  v068
 BYTE   W12
 BYTE   En1  v064
 BYTE   W12
//  #07 //147   ----------------------------------------
 BYTE   N16  En1  v060
 BYTE   W24
 BYTE   En1  v056
 BYTE   W24
 BYTE   En1  v052
 BYTE   W24
 BYTE   N04  En1  v048
 BYTE   W06
 BYTE   En1  v044
 BYTE   W06
 BYTE   N08
 BYTE   W12
//  #07 //148   ----------------------------------------
 BYTE   N16  En1  v040
 BYTE   W24
 BYTE   N04  En1  v036
 BYTE   W06
 BYTE   N04
 BYTE   W06
 BYTE   N08
 BYTE   W12
 BYTE   N16  En1  v032
 BYTE   W24
 BYTE   N08  En1  v028
 BYTE   W12
 BYTE   En1  v024
 BYTE   W11
 BYTE   FINE

//******************************************************//
	ALIGN 4

Terra:
	BYTE	7	// NumTrks
	BYTE	0	// NumBlks
	BYTE	Terra_pri	// Priority
	BYTE	Terra_rev	// Reverb.
    
	POIN2	Terra_grp
    
	POIN2	Terra_001
	POIN2	Terra_002
	POIN2	Terra_003
	POIN2	Terra_004
	POIN2	Terra_005
	POIN2	Terra_006
	POIN2	Terra_007

	
