//Event file generated from Sappy .s format.
	#include "MPlayDef.event"

	#define	TheirOwnBrandOfJustice_grp  voicegroup000
	#define	TheirOwnBrandOfJustice_pri  0
	#define	TheirOwnBrandOfJustice_rev  0
	#define	TheirOwnBrandOfJustice_mvl  127
	#define	TheirOwnBrandOfJustice_key  0
	#define	TheirOwnBrandOfJustice_tbs  1
	#define	TheirOwnBrandOfJustice_exg  0
	#define	TheirOwnBrandOfJustice_cmp  1

	// .rodata
	//	TheirOwnBrandOfJustice
	ALIGN 4


//**************** Track 1 (Midi-Chn.0) ****************//

TheirOwnBrandOfJustice_001:
//  #01 //000   ----------------------------------------
 BYTE   KEYSH   TheirOwnBrandOfJustice_key+0
Label_01541DBE:
 BYTE   TEMPO   180*TheirOwnBrandOfJustice_tbs/2
 BYTE   VOICE   124
 BYTE   VOL   28*TheirOwnBrandOfJustice_mvl/mxv
 BYTE   PAN   c_v+0
 BYTE   N02  Dn1  v112
 BYTE   N92  Dn2  v127
 BYTE   W24
 BYTE   N05  Ds2  v076
 BYTE   W48
 BYTE   N05
 BYTE   W24
//  #01 //001   ----------------------------------------
 BYTE   W24
 BYTE   N05
 BYTE   W72
//  #01 //002   ----------------------------------------
Label_01541DD6:
 BYTE   N02  Dn1  v112
 BYTE   N92  Dn2  v127
 BYTE   W24
 BYTE   N05  Ds2  v076
 BYTE   W48
 BYTE   N05
 BYTE   W24
 BYTE   PEND 
//  #01 //003   ----------------------------------------
 BYTE   W96
//  #01 //004   ----------------------------------------
 BYTE   PATT
  POIN2 Label_01541DD6
//  #01 //005   ----------------------------------------
 BYTE   W24
 BYTE   N05  Ds2  v076
 BYTE   W72
//  #01 //006   ----------------------------------------
 BYTE   N02  Dn1  v112
 BYTE   N92  Dn2  v127
 BYTE   W96
//  #01 //007   ----------------------------------------
 BYTE   W96
//  #01 //008   ----------------------------------------
 BYTE   W96
//  #01 //009   ----------------------------------------
 BYTE   W96
//  #01 //010   ----------------------------------------
Label_01541DF9:
 BYTE   N02  Dn1  v112
 BYTE   N92  Dn2  v127
 BYTE   W15
 BYTE   N02  Dn1  v076
 BYTE   W08
 BYTE   Dn1  v084
 BYTE   W01
 BYTE   Dn1  v124
 BYTE   N02  Dn1  v127
 BYTE   W07
 BYTE   Dn1  v084
 BYTE   W09
 BYTE   N02
 BYTE   W07
 BYTE   N02
 BYTE   W01
 BYTE   N07  Dn1  v120
 BYTE   W15
 BYTE   N02  Dn1  v096
 BYTE   W09
 BYTE   Dn1  v092
 BYTE   N02  Dn1  v124
 BYTE   N02  Dn1  v127
 BYTE   W07
 BYTE   Dn1  v080
 BYTE   W08
 BYTE   Dn1  v092
 BYTE   W08
 BYTE   Dn1  v096
 BYTE   W01
 BYTE   PEND 
//  #01 //011   ----------------------------------------
Label_01541E2F:
 BYTE   N07  Dn1  v120
 BYTE   W15
 BYTE   N02  Dn1  v088
 BYTE   W08
 BYTE   Dn1  v092
 BYTE   W01
 BYTE   N07  Dn1  v124
 BYTE   N02  Dn1  v127
 BYTE   W07
 BYTE   Dn1  v080
 BYTE   W08
 BYTE   Dn1  v092
 BYTE   W08
 BYTE   Dn1  v108
 BYTE   W01
 BYTE   N07  Dn1  v120
 BYTE   W15
 BYTE   N02  Dn1  v088
 BYTE   W01
 BYTE   N07  Dn1  v108
 BYTE   W07
 BYTE   N02  Dn1  v092
 BYTE   N02  Dn1  v127
 BYTE   W08
 BYTE   Dn1  v084
 BYTE   N07  Dn1  v116
 BYTE   W08
 BYTE   N02  Dn1  v088
 BYTE   W08
 BYTE   Dn1  v108
 BYTE   W01
 BYTE   PEND 
//  #01 //012   ----------------------------------------
Label_01541E6B:
 BYTE   N07  Dn1  v120
 BYTE   W15
 BYTE   N02  Dn1  v088
 BYTE   W08
 BYTE   Dn1  v100
 BYTE   N02  Dn1  v127
 BYTE   W01
 BYTE   N07  Dn1  v120
 BYTE   W07
 BYTE   N02  Dn1  v080
 BYTE   W08
 BYTE   Dn1  v088
 BYTE   W08
 BYTE   Dn1  v108
 BYTE   W01
 BYTE   N07  Dn1  v120
 BYTE   W15
 BYTE   N02  Dn1  v088
 BYTE   W08
 BYTE   Dn1  v108
 BYTE   N02  Dn1  v127
 BYTE   W01
 BYTE   N07  Dn1  v124
 BYTE   W07
 BYTE   N02  Dn1  v088
 BYTE   W08
 BYTE   Dn1  v084
 BYTE   W08
 BYTE   Dn1  v104
 BYTE   W01
 BYTE   PEND 
//  #01 //013   ----------------------------------------
Label_01541EA4:
 BYTE   N07  Dn1  v120
 BYTE   W15
 BYTE   N02  Dn1  v088
 BYTE   W08
 BYTE   Dn1  v108
 BYTE   N02  Dn1  v127
 BYTE   W01
 BYTE   N07  Dn1  v124
 BYTE   W08
 BYTE   N02  Dn1  v084
 BYTE   W07
 BYTE   Dn1  v088
 BYTE   W08
 BYTE   Dn1  v100
 BYTE   W01
 BYTE   N07  Dn1  v120
 BYTE   W15
 BYTE   N02  Dn1  v108
 BYTE   W01
 BYTE   N07  Dn1
 BYTE   W07
 BYTE   N02  Dn1  v127
 BYTE   W01
 BYTE   Dn1  v100
 BYTE   W07
 BYTE   Dn1  v104
 BYTE   N02  Dn1  v116
 BYTE   W09
 BYTE   Dn1  v112
 BYTE   W08
 BYTE   PEND 
//  #01 //014   ----------------------------------------
 BYTE   PATT
  POIN2 Label_01541DF9
//  #01 //015   ----------------------------------------
 BYTE   PATT
  POIN2 Label_01541E2F
//  #01 //016   ----------------------------------------
 BYTE   PATT
  POIN2 Label_01541E6B
//  #01 //017   ----------------------------------------
 BYTE   PATT
  POIN2 Label_01541EA4
//  #01 //018   ----------------------------------------
Label_01541EF0:
 BYTE   N02  Dn1  v112
 BYTE   N92  Dn2  v127
 BYTE   W15
 BYTE   N02  Dn1  v076
 BYTE   W08
 BYTE   Dn1  v084
 BYTE   W01
 BYTE   Dn1  v116
 BYTE   N02  Dn1  v127
 BYTE   W07
 BYTE   Dn1  v084
 BYTE   W09
 BYTE   N02
 BYTE   W07
 BYTE   N02
 BYTE   W01
 BYTE   N07  Dn1  v112
 BYTE   W07
 BYTE   N02  Dn1  v076
 BYTE   W08
 BYTE   Dn1  v096
 BYTE   W09
 BYTE   Dn1  v092
 BYTE   N02  Dn1  v116
 BYTE   N02  Dn1  v127
 BYTE   W07
 BYTE   Dn1  v080
 BYTE   W08
 BYTE   Dn1  v092
 BYTE   W08
 BYTE   Dn1  v096
 BYTE   W01
 BYTE   PEND 
//  #01 //019   ----------------------------------------
Label_01541F29:
 BYTE   N07  Dn1  v108
 BYTE   W15
 BYTE   N02  Dn1  v088
 BYTE   W08
 BYTE   Dn1  v092
 BYTE   W01
 BYTE   N07  Dn1  v108
 BYTE   N02  Dn1  v127
 BYTE   W07
 BYTE   Dn1  v080
 BYTE   W08
 BYTE   Dn1  v092
 BYTE   W08
 BYTE   Dn1  v108
 BYTE   W01
 BYTE   N07  Dn1  v096
 BYTE   W15
 BYTE   N02  Dn1  v088
 BYTE   W01
 BYTE   N07  Dn1  v096
 BYTE   W07
 BYTE   N02  Dn1  v092
 BYTE   N02  Dn1  v127
 BYTE   W08
 BYTE   Dn1  v084
 BYTE   W01
 BYTE   N07  Dn1  v108
 BYTE   W07
 BYTE   N02  Dn1  v088
 BYTE   W08
 BYTE   Dn1  v108
 BYTE   W01
 BYTE   PEND 
//  #01 //020   ----------------------------------------
Label_01541F66:
 BYTE   N07  Dn1  v112
 BYTE   W15
 BYTE   N02  Dn1  v088
 BYTE   W08
 BYTE   Dn1  v100
 BYTE   N02  Dn1  v127
 BYTE   W01
 BYTE   N07  Dn1  v112
 BYTE   W07
 BYTE   N02  Dn1  v080
 BYTE   W08
 BYTE   Dn1  v088
 BYTE   W08
 BYTE   Dn1  v108
 BYTE   W01
 BYTE   N07  Dn1  v112
 BYTE   W15
 BYTE   N02  Dn1  v088
 BYTE   W08
 BYTE   Dn1  v108
 BYTE   N02  Dn1  v127
 BYTE   W01
 BYTE   N07  Dn1  v116
 BYTE   W07
 BYTE   N02  Dn1  v088
 BYTE   W08
 BYTE   Dn1  v084
 BYTE   W08
 BYTE   Dn1  v104
 BYTE   W01
 BYTE   PEND 
//  #01 //021   ----------------------------------------
Label_01541F9F:
 BYTE   N07  Dn1  v108
 BYTE   W15
 BYTE   N02  Dn1  v088
 BYTE   W08
 BYTE   Dn1  v108
 BYTE   N02  Dn1  v127
 BYTE   W01
 BYTE   N07  Dn1  v108
 BYTE   W08
 BYTE   N02  Dn1  v084
 BYTE   W07
 BYTE   Dn1  v088
 BYTE   W08
 BYTE   Dn1  v100
 BYTE   W01
 BYTE   N07  Dn1  v096
 BYTE   W15
 BYTE   N02  Dn1  v108
 BYTE   W01
 BYTE   N07  Dn1  v096
 BYTE   W07
 BYTE   N02  Dn1  v127
 BYTE   W01
 BYTE   Dn1  v100
 BYTE   W07
 BYTE   Dn1  v104
 BYTE   W01
 BYTE   N07  Dn1  v108
 BYTE   W08
 BYTE   N02  Dn1  v112
 BYTE   W07
 BYTE   N02
 BYTE   W01
 BYTE   PEND 
//  #01 //022   ----------------------------------------
Label_01541FDC:
 BYTE   N07  Dn1  v112
 BYTE   W15
 BYTE   N02  Dn1  v084
 BYTE   W08
 BYTE   Dn1  v088
 BYTE   N02  Dn1  v127
 BYTE   W01
 BYTE   N07  Dn1  v112
 BYTE   W07
 BYTE   N02  Dn1  v080
 BYTE   W08
 BYTE   Dn1  v100
 BYTE   W08
 BYTE   Dn1  v104
 BYTE   W01
 BYTE   N07  Dn1  v112
 BYTE   W15
 BYTE   N02  Dn1  v088
 BYTE   W08
 BYTE   Dn1  v108
 BYTE   N02  Dn1  v127
 BYTE   W01
 BYTE   N07  Dn1  v116
 BYTE   W07
 BYTE   N02  Dn1  v080
 BYTE   W08
 BYTE   Dn1  v084
 BYTE   W08
 BYTE   Dn1  v104
 BYTE   W01
 BYTE   PEND 
//  #01 //023   ----------------------------------------
Label_01542015:
 BYTE   N07  Dn1  v108
 BYTE   W15
 BYTE   N02  Dn1  v084
 BYTE   W08
 BYTE   Dn1  v108
 BYTE   N02  Dn1  v127
 BYTE   W01
 BYTE   N07  Dn1  v108
 BYTE   W07
 BYTE   N02  Dn1  v080
 BYTE   W08
 BYTE   N02
 BYTE   W08
 BYTE   Dn1  v108
 BYTE   W01
 BYTE   N07  Dn1  v096
 BYTE   W15
 BYTE   N02  Dn1  v080
 BYTE   W01
 BYTE   N07  Dn1  v096
 BYTE   W07
 BYTE   N02  Dn1  v104
 BYTE   N02  Dn1  v127
 BYTE   W08
 BYTE   Dn1  v080
 BYTE   W01
 BYTE   N07  Dn1  v108
 BYTE   W07
 BYTE   N02  Dn1  v084
 BYTE   W08
 BYTE   Dn1  v108
 BYTE   W01
 BYTE   PEND 
//  #01 //024   ----------------------------------------
Label_01542052:
 BYTE   N07  Dn1  v112
 BYTE   W15
 BYTE   N02  Dn1  v084
 BYTE   W08
 BYTE   Dn1  v116
 BYTE   W01
 BYTE   Dn1  v112
 BYTE   N02  Dn1  v127
 BYTE   W08
 BYTE   Dn1  v084
 BYTE   W08
 BYTE   N02
 BYTE   W08
 BYTE   Dn1  v108
 BYTE   N07  Dn1  v112
 BYTE   W15
 BYTE   N02  Dn1  v092
 BYTE   W08
 BYTE   Dn1  v108
 BYTE   W01
 BYTE   Dn1  v116
 BYTE   N02  Dn1  v127
 BYTE   W07
 BYTE   Dn1  v100
 BYTE   W09
 BYTE   Dn1  v092
 BYTE   W08
 BYTE   PEND 
//  #01 //025   ----------------------------------------
Label_01542082:
 BYTE   N02  Dn1  v127
 BYTE   N92  Dn2  v100
 BYTE   W08
 BYTE   N02  Dn1  v108
 BYTE   W07
 BYTE   Bn3  v112
 BYTE   W09
 BYTE   Dn1  v088
 BYTE   W08
 BYTE   An3  v127
 BYTE   W07
 BYTE   Dn1  v080
 BYTE   W09
 BYTE   An3  v127
 BYTE   W09
 BYTE   An3  v112
 BYTE   W07
 BYTE   Dn1  v084
 BYTE   W08
 BYTE   Dn1  v112
 BYTE   W08
 BYTE   Dn1  v104
 BYTE   W07
 BYTE   Dn1  v127
 BYTE   W09
 BYTE   PEND 
//  #01 //026   ----------------------------------------
 BYTE   PATT
  POIN2 Label_01541DF9
//  #01 //027   ----------------------------------------
 BYTE   PATT
  POIN2 Label_01541E2F
//  #01 //028   ----------------------------------------
 BYTE   PATT
  POIN2 Label_01541E6B
//  #01 //029   ----------------------------------------
 BYTE   PATT
  POIN2 Label_01541EA4
//  #01 //030   ----------------------------------------
 BYTE   PATT
  POIN2 Label_01541DF9
//  #01 //031   ----------------------------------------
 BYTE   PATT
  POIN2 Label_01541E2F
//  #01 //032   ----------------------------------------
 BYTE   PATT
  POIN2 Label_01541E6B
//  #01 //033   ----------------------------------------
 BYTE   PATT
  POIN2 Label_01541EA4
//  #01 //034   ----------------------------------------
 BYTE   PATT
  POIN2 Label_01541EF0
//  #01 //035   ----------------------------------------
 BYTE   PATT
  POIN2 Label_01541F29
//  #01 //036   ----------------------------------------
 BYTE   PATT
  POIN2 Label_01541F66
//  #01 //037   ----------------------------------------
 BYTE   PATT
  POIN2 Label_01541F9F
//  #01 //038   ----------------------------------------
 BYTE   PATT
  POIN2 Label_01541FDC
//  #01 //039   ----------------------------------------
 BYTE   PATT
  POIN2 Label_01542015
//  #01 //040   ----------------------------------------
 BYTE   PATT
  POIN2 Label_01542052
//  #01 //041   ----------------------------------------
 BYTE   PATT
  POIN2 Label_01542082
//  #01 //042   ----------------------------------------
Label_015420FC:
 BYTE   N02  Dn1  v112
 BYTE   N92  Dn2  v127
 BYTE   W15
 BYTE   N02  Dn1  v076
 BYTE   W08
 BYTE   Dn1  v084
 BYTE   W01
 BYTE   Dn1  v127
 BYTE   N02  Ds2  v088
 BYTE   W07
 BYTE   Dn1  v084
 BYTE   W09
 BYTE   N02
 BYTE   W07
 BYTE   N02
 BYTE   W01
 BYTE   Ds2  v088
 BYTE   W15
 BYTE   Dn1  v096
 BYTE   W09
 BYTE   Dn1  v092
 BYTE   N02  Dn1  v127
 BYTE   N02  Ds2  v084
 BYTE   W07
 BYTE   Dn1  v080
 BYTE   W08
 BYTE   Dn1  v092
 BYTE   W08
 BYTE   Dn1  v096
 BYTE   W01
 BYTE   PEND 
//  #01 //043   ----------------------------------------
Label_01542130:
 BYTE   N02  Ds2  v092
 BYTE   W15
 BYTE   Dn1  v088
 BYTE   W08
 BYTE   Dn1  v092
 BYTE   W01
 BYTE   Dn1  v127
 BYTE   N02  Ds2  v088
 BYTE   W07
 BYTE   Dn1  v080
 BYTE   W08
 BYTE   Dn1  v092
 BYTE   W08
 BYTE   Dn1  v108
 BYTE   W01
 BYTE   Ds2  v088
 BYTE   W15
 BYTE   Dn1
 BYTE   W08
 BYTE   Dn1  v092
 BYTE   N02  Dn1  v127
 BYTE   W01
 BYTE   Ds2  v084
 BYTE   W07
 BYTE   Dn1
 BYTE   W08
 BYTE   Dn1  v088
 BYTE   W08
 BYTE   Dn1  v108
 BYTE   W01
 BYTE   PEND 
//  #01 //044   ----------------------------------------
Label_01542160:
 BYTE   N02  Ds2  v092
 BYTE   W15
 BYTE   Dn1  v088
 BYTE   W08
 BYTE   Dn1  v100
 BYTE   N02  Dn1  v127
 BYTE   W01
 BYTE   Ds2  v088
 BYTE   W07
 BYTE   Dn1  v080
 BYTE   W08
 BYTE   Dn1  v088
 BYTE   W08
 BYTE   Dn1  v108
 BYTE   W01
 BYTE   Ds2  v088
 BYTE   W15
 BYTE   Dn1
 BYTE   W08
 BYTE   Dn1  v108
 BYTE   N02  Dn1  v127
 BYTE   W01
 BYTE   Ds2  v084
 BYTE   W07
 BYTE   Dn1  v088
 BYTE   W08
 BYTE   Dn1  v084
 BYTE   W08
 BYTE   Dn1  v104
 BYTE   W01
 BYTE   PEND 
//  #01 //045   ----------------------------------------
Label_01542191:
 BYTE   N02  Ds2  v092
 BYTE   W15
 BYTE   Dn1  v088
 BYTE   W08
 BYTE   Dn1  v108
 BYTE   N02  Dn1  v127
 BYTE   W01
 BYTE   Ds2  v088
 BYTE   W08
 BYTE   Dn1  v084
 BYTE   W07
 BYTE   Dn1  v088
 BYTE   W08
 BYTE   Dn1  v100
 BYTE   W01
 BYTE   Ds2  v088
 BYTE   W15
 BYTE   Dn1  v108
 BYTE   W08
 BYTE   Dn1  v127
 BYTE   W01
 BYTE   Dn1  v100
 BYTE   N02  Ds2  v084
 BYTE   W07
 BYTE   Dn1  v104
 BYTE   W09
 BYTE   Dn1  v112
 BYTE   W08
 BYTE   PEND 
//  #01 //046   ----------------------------------------
 BYTE   PATT
  POIN2 Label_015420FC
//  #01 //047   ----------------------------------------
 BYTE   PATT
  POIN2 Label_01542130
//  #01 //048   ----------------------------------------
 BYTE   PATT
  POIN2 Label_01542160
//  #01 //049   ----------------------------------------
 BYTE   W96
//  #01 //050   ----------------------------------------
Label_015421D0:
 BYTE   N02  Dn1  v112
 BYTE   N72  Dn2  v127
 BYTE   W15
 BYTE   N02  Dn1  v076
 BYTE   W08
 BYTE   Dn1  v084
 BYTE   W01
 BYTE   Dn1  v092
 BYTE   N02  Dn1  v127
 BYTE   W08
 BYTE   N02
 BYTE   W08
 BYTE   N02
 BYTE   W07
 BYTE   Dn1  v084
 BYTE   W01
 BYTE   N07  Dn1  v088
 BYTE   N02  Dn1  v127
 BYTE   W24
 BYTE   Dn1  v092
 BYTE   N02  Dn1  v127
 BYTE   N23  Dn2
 BYTE   W23
 BYTE   N02  Dn1  v096
 BYTE   W01
 BYTE   PEND 
//  #01 //051   ----------------------------------------
Label_015421FF:
 BYTE   N68  Dn2  v127
 BYTE   W15
 BYTE   N02  Dn1  v088
 BYTE   W01
 BYTE   N07  Dn1  v080
 BYTE   W07
 BYTE   N02  Dn1  v092
 BYTE   W01
 BYTE   Dn1  v127
 BYTE   W07
 BYTE   Dn1  v080
 BYTE   W01
 BYTE   N07  Dn1  v072
 BYTE   W07
 BYTE   N02  Dn1  v092
 BYTE   W08
 BYTE   Dn1  v108
 BYTE   W01
 BYTE   N07  Dn1  v076
 BYTE   W15
 BYTE   N02  Dn1  v088
 BYTE   W01
 BYTE   N07  Dn1  v076
 BYTE   W07
 BYTE   N02  Dn1  v092
 BYTE   N02  Dn1  v127
 BYTE   W08
 BYTE   Dn1  v084
 BYTE   W01
 BYTE   N07  Dn1
 BYTE   W07
 BYTE   N02  Dn1  v088
 BYTE   W01
 BYTE   Dn1  v127
 BYTE   W08
 BYTE   PEND 
//  #01 //052   ----------------------------------------
 BYTE   PATT
  POIN2 Label_015421D0
//  #01 //053   ----------------------------------------
 BYTE   PATT
  POIN2 Label_015421FF
//  #01 //054   ----------------------------------------
Label_0154224B:
 BYTE   N02  Dn1  v112
 BYTE   N92  Dn2  v124
 BYTE   W15
 BYTE   N02  Dn1  v076
 BYTE   W08
 BYTE   Dn1  v084
 BYTE   W01
 BYTE   Dn1  v092
 BYTE   N02  Dn1  v127
 BYTE   W07
 BYTE   Dn1  v084
 BYTE   W09
 BYTE   N02
 BYTE   W07
 BYTE   N02
 BYTE   W01
 BYTE   N07  Dn1  v088
 BYTE   W15
 BYTE   N02  Dn1  v096
 BYTE   W09
 BYTE   Dn1  v092
 BYTE   N07  Dn1
 BYTE   N02  Dn1  v127
 BYTE   W07
 BYTE   Dn1  v080
 BYTE   W08
 BYTE   Dn1  v092
 BYTE   W08
 BYTE   Dn1  v096
 BYTE   W01
 BYTE   PEND 
//  #01 //055   ----------------------------------------
Label_01542280:
 BYTE   N07  Dn1  v084
 BYTE   W15
 BYTE   N02  Dn1  v088
 BYTE   W01
 BYTE   N07  Dn1  v080
 BYTE   W07
 BYTE   N02  Dn1  v092
 BYTE   W01
 BYTE   Dn1  v127
 BYTE   W07
 BYTE   Dn1  v080
 BYTE   W01
 BYTE   N07  Dn1  v072
 BYTE   W07
 BYTE   N02  Dn1  v092
 BYTE   W08
 BYTE   Dn1  v108
 BYTE   W01
 BYTE   N07  Dn1  v076
 BYTE   W15
 BYTE   N02  Dn1  v088
 BYTE   W01
 BYTE   N07  Dn1  v076
 BYTE   W07
 BYTE   N02  Dn1  v092
 BYTE   N02  Dn1  v127
 BYTE   W08
 BYTE   Dn1  v084
 BYTE   W01
 BYTE   N07  Dn1
 BYTE   W07
 BYTE   N02  Dn1  v088
 BYTE   W08
 BYTE   Dn1  v108
 BYTE   W01
 BYTE   PEND 
//  #01 //056   ----------------------------------------
 BYTE   N07  Dn1  v088
 BYTE   W15
 BYTE   N02  Dn1
 BYTE   W08
 BYTE   Dn1  v100
 BYTE   N02  Dn1  v088
 BYTE   N02  Dn1  v127
 BYTE   W08
 BYTE   Dn1  v080
 BYTE   W08
 BYTE   Dn1  v088
 BYTE   W08
 BYTE   Dn1  v108
 BYTE   N02  Dn1  v088
 BYTE   W16
 BYTE   Dn1
 BYTE   W08
 BYTE   Dn1  v108
 BYTE   N02  Dn1  v092
 BYTE   N02  Dn1  v127
 BYTE   W08
 BYTE   Dn1  v088
 BYTE   W08
 BYTE   Dn1  v084
 BYTE   W08
 BYTE   Dn1  v104
 BYTE   N08  Dn1  v084
 BYTE   W01
//  #01 //057   ----------------------------------------
 BYTE   W15
 BYTE   N02  Dn1  v088
 BYTE   N07  Dn1  v076
 BYTE   W08
 BYTE   N02  Dn1  v108
 BYTE   N02  Dn1  v127
 BYTE   W09
 BYTE   Dn1  v084
 BYTE   N07  Dn1  v080
 BYTE   W07
 BYTE   N02  Dn1  v088
 BYTE   W08
 BYTE   Dn1  v100
 BYTE   W01
 BYTE   N07  Dn1  v088
 BYTE   W15
 BYTE   N02  Dn1  v108
 BYTE   W01
 BYTE   N07  Dn1  v080
 BYTE   W07
 BYTE   N02  Dn1  v127
 BYTE   W01
 BYTE   Dn1  v100
 BYTE   W07
 BYTE   Dn1  v104
 BYTE   N02  Dn1  v084
 BYTE   W09
 BYTE   Dn1  v112
 BYTE   W08
//  #01 //058   ----------------------------------------
 BYTE   PATT
  POIN2 Label_015421D0
//  #01 //059   ----------------------------------------
 BYTE   PATT
  POIN2 Label_015421FF
//  #01 //060   ----------------------------------------
 BYTE   PATT
  POIN2 Label_015421D0
//  #01 //061   ----------------------------------------
 BYTE   PATT
  POIN2 Label_015421FF
//  #01 //062   ----------------------------------------
 BYTE   PATT
  POIN2 Label_0154224B
//  #01 //063   ----------------------------------------
 BYTE   PATT
  POIN2 Label_01542280
//  #01 //064   ----------------------------------------
 BYTE   N07  Dn1  v088
 BYTE   W15
 BYTE   N02  Dn1
 BYTE   W08
 BYTE   Dn1  v100
 BYTE   N02  Dn1  v088
 BYTE   N02  Dn1  v127
 BYTE   W08
 BYTE   Dn1  v080
 BYTE   W08
 BYTE   Dn1  v088
 BYTE   W08
 BYTE   Dn1  v108
 BYTE   N02  Dn1  v088
 BYTE   W16
 BYTE   Dn1
 BYTE   W08
 BYTE   Dn1  v108
 BYTE   N02  Dn1  v092
 BYTE   N02  Dn1  v127
 BYTE   W08
 BYTE   Dn1  v088
 BYTE   W08
 BYTE   Dn1  v084
 BYTE   W09
//  #01 //065   ----------------------------------------
 BYTE   W96
//  #01 //066   ----------------------------------------
 BYTE   PATT
  POIN2 Label_015420FC
//  #01 //067   ----------------------------------------
 BYTE   PATT
  POIN2 Label_01542130
//  #01 //068   ----------------------------------------
 BYTE   PATT
  POIN2 Label_01542160
//  #01 //069   ----------------------------------------
 BYTE   PATT
  POIN2 Label_01542191
//  #01 //070   ----------------------------------------
 BYTE   PATT
  POIN2 Label_015420FC
//  #01 //071   ----------------------------------------
Label_01542392:
 BYTE   N02  Ds2  v092
 BYTE   W15
 BYTE   Dn1  v088
 BYTE   W08
 BYTE   Dn1  v092
 BYTE   W01
 BYTE   Dn1  v127
 BYTE   N02  Ds2  v088
 BYTE   W07
 BYTE   Dn1  v080
 BYTE   W08
 BYTE   Dn1  v092
 BYTE   W08
 BYTE   Dn1  v108
 BYTE   W01
 BYTE   Ds2  v088
 BYTE   W15
 BYTE   Dn1
 BYTE   W08
 BYTE   Dn1  v092
 BYTE   N02  Dn1  v127
 BYTE   W01
 BYTE   Ds2  v084
 BYTE   W07
 BYTE   Dn1
 BYTE   W08
 BYTE   Dn1  v088
 BYTE   W08
 BYTE   N01  Dn1  v108
 BYTE   W01
 BYTE   PEND 
//  #01 //072   ----------------------------------------
 BYTE   PATT
  POIN2 Label_015420FC
//  #01 //073   ----------------------------------------
 BYTE   PATT
  POIN2 Label_01542392
//  #01 //074   ----------------------------------------
 BYTE   PATT
  POIN2 Label_015420FC
//  #01 //075   ----------------------------------------
 BYTE   PATT
  POIN2 Label_01542392
//  #01 //076   ----------------------------------------
 BYTE   PATT
  POIN2 Label_015420FC
//  #01 //077   ----------------------------------------
 BYTE   PATT
  POIN2 Label_01542392
//  #01 //078   ----------------------------------------
 BYTE   N02  Dn1  v112
 BYTE   N02  Ds2  v127
 BYTE   W15
 BYTE   Dn1  v076
 BYTE   W08
 BYTE   Dn1  v084
 BYTE   W01
 BYTE   Dn1  v127
 BYTE   N48  Dn2
 BYTE   W07
 BYTE   N02  Dn1  v084
 BYTE   W09
 BYTE   N02
 BYTE   W07
 BYTE   N02
 BYTE   W01
 BYTE   Ds2  v127
 BYTE   W15
 BYTE   Dn1  v096
 BYTE   W09
 BYTE   Dn1  v092
 BYTE   N02  Dn1  v127
 BYTE   N44  Dn2
 BYTE   W07
 BYTE   N02  Dn1  v080
 BYTE   W08
 BYTE   Dn1  v092
 BYTE   W08
 BYTE   Dn1  v096
 BYTE   W01
//  #01 //079   ----------------------------------------
 BYTE   W96
//  #01 //080   ----------------------------------------
Label_01542414:
 BYTE   N02  Dn1  v112
 BYTE   N48  Dn2  v127
 BYTE   W24
 BYTE   N02  En2
 BYTE   W08
 BYTE   Dn1  v048
 BYTE   W08
 BYTE   Dn1  v072
 BYTE   W07
 BYTE   Dn1  v127
 BYTE   W01
 BYTE   Dn1
 BYTE   N44  Dn2
 BYTE   N02  En2
 BYTE   W24
 BYTE   N02
 BYTE   W24
 BYTE   PEND 
//  #01 //081   ----------------------------------------
Label_01542430:
 BYTE   N02  Dn1  v127
 BYTE   N02  Dn1
 BYTE   W08
 BYTE   N02
 BYTE   W08
 BYTE   N02
 BYTE   W08
 BYTE   Dn1
 BYTE   N02  Dn1
 BYTE   W24
 BYTE   An2  v084
 BYTE   W24
 BYTE   An2  v127
 BYTE   W24
 BYTE   PEND 
//  #01 //082   ----------------------------------------
 BYTE   PATT
  POIN2 Label_01542414
//  #01 //083   ----------------------------------------
 BYTE   PATT
  POIN2 Label_01542430
//  #01 //084   ----------------------------------------
 BYTE   PATT
  POIN2 Label_01542414
//  #01 //085   ----------------------------------------
 BYTE   PATT
  POIN2 Label_01542430
//  #01 //086   ----------------------------------------
 BYTE   N02  Dn1  v112
 BYTE   N92  Dn2  v127
 BYTE   W24
 BYTE   N02  En2
 BYTE   W08
 BYTE   Dn1  v048
 BYTE   W08
 BYTE   Dn1  v072
 BYTE   W07
 BYTE   Dn1  v127
 BYTE   W01
 BYTE   Dn1
 BYTE   N02  En2
 BYTE   W24
 BYTE   N02
 BYTE   W08
 BYTE   Dn1  v048
 BYTE   W08
 BYTE   Dn1  v072
 BYTE   W08
//  #01 //087   ----------------------------------------
 BYTE   Dn1  v127
 BYTE   N02  Dn1
 BYTE   N92  Dn2
 BYTE   W24
 BYTE   N02  En2
 BYTE   W08
 BYTE   Dn1  v048
 BYTE   W08
 BYTE   Dn1  v072
 BYTE   W07
 BYTE   Dn1  v127
 BYTE   W01
 BYTE   Dn1
 BYTE   N02  En2
 BYTE   W24
 BYTE   N02
 BYTE   W08
 BYTE   Dn1  v048
 BYTE   W08
 BYTE   Dn1  v072
 BYTE   W08
//  #01 //088   ----------------------------------------
 BYTE   Dn1  v112
 BYTE   N92  Dn2  v127
 BYTE   W24
 BYTE   N02  Dn1
 BYTE   N02  Dn1
 BYTE   W08
 BYTE   Dn1  v048
 BYTE   W08
 BYTE   Dn1  v072
 BYTE   W07
 BYTE   Dn1  v127
 BYTE   W01
 BYTE   Dn1
 BYTE   W08
 BYTE   Dn1  v048
 BYTE   W08
 BYTE   Dn1  v072
 BYTE   W07
 BYTE   Dn1  v127
 BYTE   W01
 BYTE   Dn1
 BYTE   W08
 BYTE   Dn1  v048
 BYTE   W08
 BYTE   Dn1  v072
 BYTE   W07
 BYTE   Dn1  v127
 BYTE   W01
//  #01 //089   ----------------------------------------
 BYTE   Dn1
 BYTE   W08
 BYTE   Dn1  v096
 BYTE   W08
 BYTE   Dn1  v108
 BYTE   W07
 BYTE   Dn1  v127
 BYTE   W01
 BYTE   Dn1
 BYTE   W08
 BYTE   Dn1  v116
 BYTE   W08
 BYTE   N02
 BYTE   W07
 BYTE   Dn1  v127
 BYTE   W01
 BYTE   Dn1
 BYTE   W08
 BYTE   Dn1  v120
 BYTE   W08
 BYTE   N02
 BYTE   W08
 BYTE   Dn1  v127
 BYTE   W08
 BYTE   N02
 BYTE   W08
 BYTE   N02
 BYTE   W08
//  #01 //090   ----------------------------------------
 BYTE   PATT
  POIN2 Label_015420FC
//  #01 //091   ----------------------------------------
 BYTE   PATT
  POIN2 Label_01542392
//  #01 //092   ----------------------------------------
 BYTE   PATT
  POIN2 Label_015420FC
//  #01 //093   ----------------------------------------
 BYTE   PATT
  POIN2 Label_01542392
//  #01 //094   ----------------------------------------
Label_015424F8:
 BYTE   N02  Dn1  v112
 BYTE   N02  Ds2  v084
 BYTE   W15
 BYTE   Dn1  v076
 BYTE   W08
 BYTE   Dn1  v084
 BYTE   W01
 BYTE   Dn1  v127
 BYTE   N92  Dn2
 BYTE   W07
 BYTE   N02  Dn1  v084
 BYTE   W09
 BYTE   N02
 BYTE   W07
 BYTE   N02
 BYTE   W01
 BYTE   Ds2  v088
 BYTE   W15
 BYTE   Dn1  v096
 BYTE   W09
 BYTE   Dn1  v092
 BYTE   N02  Dn1  v127
 BYTE   N02  Ds2  v092
 BYTE   W07
 BYTE   Dn1  v080
 BYTE   W08
 BYTE   Dn1  v092
 BYTE   W08
 BYTE   Dn1  v096
 BYTE   W01
 BYTE   PEND 
//  #01 //095   ----------------------------------------
Label_0154252B:
 BYTE   N02  Ds2  v084
 BYTE   W15
 BYTE   Dn1  v088
 BYTE   W08
 BYTE   Dn1  v092
 BYTE   N92  Dn2  v127
 BYTE   W01
 BYTE   N02  Dn1
 BYTE   W07
 BYTE   Dn1  v080
 BYTE   W08
 BYTE   Dn1  v092
 BYTE   W08
 BYTE   Dn1  v108
 BYTE   W01
 BYTE   Ds2  v088
 BYTE   W15
 BYTE   Dn1
 BYTE   W08
 BYTE   Dn1  v092
 BYTE   N02  Dn1  v127
 BYTE   W01
 BYTE   Ds2  v092
 BYTE   W07
 BYTE   Dn1  v084
 BYTE   W08
 BYTE   Dn1  v088
 BYTE   W08
 BYTE   N01  Dn1  v108
 BYTE   W01
 BYTE   PEND 
//  #01 //096   ----------------------------------------
 BYTE   PATT
  POIN2 Label_015424F8
//  #01 //097   ----------------------------------------
 BYTE   PATT
  POIN2 Label_0154252B
//  #01 //098   ----------------------------------------
Label_01542567:
 BYTE   N02  Dn1  v112
 BYTE   N02  Dn1  v127
 BYTE   W08
 BYTE   Dn1  v084
 BYTE   N02  Dn1  v124
 BYTE   W08
 BYTE   Dn1  v076
 BYTE   N02  Dn1  v127
 BYTE   W08
 BYTE   Dn1  v084
 BYTE   N02  Dn1  v127
 BYTE   N02  Ds2  v120
 BYTE   W24
 BYTE   Ds2  v127
 BYTE   W24
 BYTE   Dn1  v092
 BYTE   N02  Dn1  v127
 BYTE   W07
 BYTE   Dn1  v080
 BYTE   W01
 BYTE   Dn1  v127
 BYTE   W07
 BYTE   Dn1  v092
 BYTE   W01
 BYTE   Dn1  v127
 BYTE   W07
 BYTE   Dn1
 BYTE   W01
 BYTE   PEND 
//  #01 //099   ----------------------------------------
 BYTE   Dn1
 BYTE   W24
 BYTE   Ds2  v104
 BYTE   W24
 BYTE   Ds2  v116
 BYTE   W24
 BYTE   Ds2  v127
 BYTE   W24
//  #01 //100   ----------------------------------------
 BYTE   PATT
  POIN2 Label_01542567
//  #01 //101   ----------------------------------------
 BYTE   N02  Dn1  v127
 BYTE   W24
 BYTE   Ds2  v104
 BYTE   W72
//  #01 //102   ----------------------------------------
 BYTE   GoTo
  POIN2 Label_01541DBE
 BYTE   FINE

//**************** Track 2 (Midi-Chn.1) ****************//

TheirOwnBrandOfJustice_002:
//  #02 //000   ----------------------------------------
 BYTE   KEYSH   TheirOwnBrandOfJustice_key+0
Label_01540582:
 BYTE   VOICE   124
 BYTE   VOL   28*TheirOwnBrandOfJustice_mvl/mxv
 BYTE   PAN   c_v+0
 BYTE   W96
//  #02 //001   ----------------------------------------
 BYTE   W72
 BYTE   N01  Dn1  v124
 BYTE   N07  Cn2  v088
 BYTE   W07
 BYTE   N08  Dn1  v124
 BYTE   W09
 BYTE   N07  Dn1  v127
 BYTE   W08
//  #02 //002   ----------------------------------------
 BYTE   W96
//  #02 //003   ----------------------------------------
 BYTE   N01  Dn1  v124
 BYTE   N02  Cn2  v088
 BYTE   W03
 BYTE   N04  Dn1  v124
 BYTE   W04
 BYTE   N07  Dn1  v100
 BYTE   W08
 BYTE   N08  Dn1  v116
 BYTE   W09
 BYTE   N01  Dn1  v127
 BYTE   N07  Cn2  v088
 BYTE   W07
 BYTE   N08  Dn1  v127
 BYTE   W09
 BYTE   N07  Dn1  v124
 BYTE   W07
 BYTE   N01  Dn1  v127
 BYTE   W01
 BYTE   N07  Cn2  v088
 BYTE   W07
 BYTE   Dn1  v116
 BYTE   W08
 BYTE   N08  Dn1  v127
 BYTE   W09
 BYTE   N01  Dn1  v116
 BYTE   N07  Cn2  v088
 BYTE   W07
 BYTE   N08  Dn1  v127
 BYTE   W09
 BYTE   N07
 BYTE   W08
//  #02 //004   ----------------------------------------
 BYTE   W96
//  #02 //005   ----------------------------------------
 BYTE   W96
//  #02 //006   ----------------------------------------
 BYTE   W96
//  #02 //007   ----------------------------------------
 BYTE   W96
//  #02 //008   ----------------------------------------
 BYTE   W96
//  #02 //009   ----------------------------------------
 BYTE   N01  En1
 BYTE   N07  Cn2  v088
 BYTE   W07
 BYTE   N04  En1  v080
 BYTE   W05
 BYTE   N03  En1  v108
 BYTE   W03
 BYTE   N08  En1  v127
 BYTE   W09
 BYTE   N01  En1  v092
 BYTE   N07  Cn2  v088
 BYTE   W07
 BYTE   N08  En1  v127
 BYTE   W09
 BYTE   N07
 BYTE   W07
 BYTE   N01  Dn1
 BYTE   W01
 BYTE   N07  Cn2  v088
 BYTE   W07
 BYTE   N04  Dn1  v124
 BYTE   W05
 BYTE   N03  Dn1  v108
 BYTE   W03
 BYTE   N08  Dn1  v127
 BYTE   W09
 BYTE   N01  Dn1  v124
 BYTE   N07  Cn2  v088
 BYTE   W07
 BYTE   N08  Dn1  v124
 BYTE   W09
 BYTE   N07  Dn1  v127
 BYTE   W08
//  #02 //010   ----------------------------------------
 BYTE   W96
//  #02 //011   ----------------------------------------
 BYTE   W96
//  #02 //012   ----------------------------------------
 BYTE   W96
//  #02 //013   ----------------------------------------
 BYTE   W96
//  #02 //014   ----------------------------------------
 BYTE   W96
//  #02 //015   ----------------------------------------
 BYTE   W96
//  #02 //016   ----------------------------------------
 BYTE   W96
//  #02 //017   ----------------------------------------
 BYTE   W96
//  #02 //018   ----------------------------------------
 BYTE   W96
//  #02 //019   ----------------------------------------
 BYTE   W96
//  #02 //020   ----------------------------------------
 BYTE   W96
//  #02 //021   ----------------------------------------
 BYTE   W96
//  #02 //022   ----------------------------------------
 BYTE   W96
//  #02 //023   ----------------------------------------
 BYTE   W96
//  #02 //024   ----------------------------------------
 BYTE   W96
//  #02 //025   ----------------------------------------
 BYTE   W96
//  #02 //026   ----------------------------------------
 BYTE   W96
//  #02 //027   ----------------------------------------
 BYTE   W96
//  #02 //028   ----------------------------------------
 BYTE   W96
//  #02 //029   ----------------------------------------
 BYTE   W96
//  #02 //030   ----------------------------------------
 BYTE   W96
//  #02 //031   ----------------------------------------
 BYTE   W96
//  #02 //032   ----------------------------------------
 BYTE   W96
//  #02 //033   ----------------------------------------
 BYTE   W96
//  #02 //034   ----------------------------------------
 BYTE   W96
//  #02 //035   ----------------------------------------
 BYTE   W96
//  #02 //036   ----------------------------------------
 BYTE   W96
//  #02 //037   ----------------------------------------
 BYTE   W96
//  #02 //038   ----------------------------------------
 BYTE   W96
//  #02 //039   ----------------------------------------
 BYTE   W96
//  #02 //040   ----------------------------------------
 BYTE   W96
//  #02 //041   ----------------------------------------
 BYTE   W96
//  #02 //042   ----------------------------------------
 BYTE   W96
//  #02 //043   ----------------------------------------
 BYTE   W96
//  #02 //044   ----------------------------------------
 BYTE   W96
//  #02 //045   ----------------------------------------
 BYTE   W96
//  #02 //046   ----------------------------------------
 BYTE   W96
//  #02 //047   ----------------------------------------
 BYTE   W96
//  #02 //048   ----------------------------------------
 BYTE   W96
//  #02 //049   ----------------------------------------
 BYTE   N02  Dn1
 BYTE   N08  Fn4  v100
 BYTE   W08
 BYTE   N06  Dn1  v092
 BYTE   W07
 BYTE   N08  Dn1  v112
 BYTE   W09
 BYTE   Dn1  v076
 BYTE   W08
 BYTE   N07  Dn1  v127
 BYTE   W07
 BYTE   N08  Dn1  v068
 BYTE   W09
 BYTE   Dn1  v127
 BYTE   W09
 BYTE   N06  Dn1  v112
 BYTE   W07
 BYTE   N07  Dn1  v084
 BYTE   W08
 BYTE   Dn1  v112
 BYTE   W08
 BYTE   Dn1  v104
 BYTE   W07
 BYTE   Dn1  v127
 BYTE   W09
//  #02 //050   ----------------------------------------
 BYTE   W96
//  #02 //051   ----------------------------------------
 BYTE   W96
//  #02 //052   ----------------------------------------
 BYTE   W96
//  #02 //053   ----------------------------------------
 BYTE   W96
//  #02 //054   ----------------------------------------
 BYTE   W96
//  #02 //055   ----------------------------------------
 BYTE   W96
//  #02 //056   ----------------------------------------
 BYTE   W96
//  #02 //057   ----------------------------------------
 BYTE   W96
//  #02 //058   ----------------------------------------
 BYTE   W96
//  #02 //059   ----------------------------------------
 BYTE   W96
//  #02 //060   ----------------------------------------
 BYTE   W96
//  #02 //061   ----------------------------------------
 BYTE   W96
//  #02 //062   ----------------------------------------
 BYTE   W96
//  #02 //063   ----------------------------------------
 BYTE   W96
//  #02 //064   ----------------------------------------
 BYTE   W96
//  #02 //065   ----------------------------------------
 BYTE   N01  En1
 BYTE   N07  Cn2  v088
 BYTE   W07
 BYTE   En1  v108
 BYTE   W08
 BYTE   N08  En1  v124
 BYTE   W09
 BYTE   N01  En1  v108
 BYTE   N07  Cn2  v088
 BYTE   W07
 BYTE   N08  En1  v127
 BYTE   W09
 BYTE   N07  En1  v124
 BYTE   W07
 BYTE   N01  Dn1  v127
 BYTE   W01
 BYTE   N07  Cn2  v088
 BYTE   W07
 BYTE   Dn1  v124
 BYTE   W08
 BYTE   N08  Dn1  v127
 BYTE   W09
 BYTE   N01  Dn1  v108
 BYTE   N07  Cn2  v088
 BYTE   W07
 BYTE   N08  En1  v127
 BYTE   W09
 BYTE   N07  Dn1
 BYTE   W08
//  #02 //066   ----------------------------------------
 BYTE   W96
//  #02 //067   ----------------------------------------
 BYTE   W96
//  #02 //068   ----------------------------------------
 BYTE   W96
//  #02 //069   ----------------------------------------
 BYTE   W96
//  #02 //070   ----------------------------------------
 BYTE   W96
//  #02 //071   ----------------------------------------
 BYTE   W96
//  #02 //072   ----------------------------------------
 BYTE   W96
//  #02 //073   ----------------------------------------
 BYTE   W96
//  #02 //074   ----------------------------------------
 BYTE   W96
//  #02 //075   ----------------------------------------
 BYTE   W96
//  #02 //076   ----------------------------------------
 BYTE   W96
//  #02 //077   ----------------------------------------
 BYTE   W96
//  #02 //078   ----------------------------------------
 BYTE   W96
//  #02 //079   ----------------------------------------
 BYTE   Dn1  v100
 BYTE   N07  Gn2  v127
 BYTE   W15
 BYTE   Dn1  v060
 BYTE   W08
 BYTE   N02  Dn1  v072
 BYTE   W01
 BYTE   N07  Dn1  v127
 BYTE   N02  Fn4
 BYTE   W07
 BYTE   Dn1  v072
 BYTE   W09
 BYTE   N08
 BYTE   W08
 BYTE   Dn1  v127
 BYTE   W09
 BYTE   N06  Dn1  v112
 BYTE   W07
 BYTE   N07  Dn1  v084
 BYTE   W08
 BYTE   Dn1  v112
 BYTE   W08
 BYTE   Dn1  v104
 BYTE   W07
 BYTE   Dn1  v127
 BYTE   W09
//  #02 //080   ----------------------------------------
 BYTE   W96
//  #02 //081   ----------------------------------------
 BYTE   W96
//  #02 //082   ----------------------------------------
 BYTE   W96
//  #02 //083   ----------------------------------------
 BYTE   W96
//  #02 //084   ----------------------------------------
 BYTE   W96
//  #02 //085   ----------------------------------------
 BYTE   W96
//  #02 //086   ----------------------------------------
 BYTE   W96
//  #02 //087   ----------------------------------------
 BYTE   W96
//  #02 //088   ----------------------------------------
 BYTE   W96
//  #02 //089   ----------------------------------------
 BYTE   W96
//  #02 //090   ----------------------------------------
 BYTE   W96
//  #02 //091   ----------------------------------------
 BYTE   W96
//  #02 //092   ----------------------------------------
 BYTE   W96
//  #02 //093   ----------------------------------------
 BYTE   W96
//  #02 //094   ----------------------------------------
 BYTE   W96
//  #02 //095   ----------------------------------------
 BYTE   W96
//  #02 //096   ----------------------------------------
 BYTE   W96
//  #02 //097   ----------------------------------------
 BYTE   W96
//  #02 //098   ----------------------------------------
 BYTE   W96
//  #02 //099   ----------------------------------------
 BYTE   W96
//  #02 //100   ----------------------------------------
 BYTE   W96
//  #02 //101   ----------------------------------------
 BYTE   W48
 BYTE   N03  Cn4
 BYTE   W03
 BYTE   N12
 BYTE   W13
 BYTE   N01  Dn1
 BYTE   W01
 BYTE   N14
 BYTE   W15
 BYTE   N15  Dn1  v092
 BYTE   W16
//  #02 //102   ----------------------------------------
 BYTE   GoTo
  POIN2 Label_01540582
 BYTE   FINE

//**************** Track 3 (Midi-Chn.2) ****************//

TheirOwnBrandOfJustice_003:
//  #03 //000   ----------------------------------------
 BYTE   KEYSH   TheirOwnBrandOfJustice_key+0
Label_0154078E:
 BYTE   VOICE   28
 BYTE   VOL   44*TheirOwnBrandOfJustice_mvl/mxv
 BYTE   PAN   c_v+62
 BYTE   TIE  Dn2  v048
 BYTE   W96
//  #03 //001   ----------------------------------------
 BYTE   W78
 BYTE   W01
 BYTE   EOT
 BYTE   W17
//  #03 //002   ----------------------------------------
 BYTE   TIE  Cn2
 BYTE   W96
//  #03 //003   ----------------------------------------
 BYTE   W78
 BYTE   W01
 BYTE   EOT
 BYTE   W05
 BYTE   N03  Fn1  v036
 BYTE   W04
 BYTE   Gn1
 BYTE   W04
 BYTE   An1
 BYTE   W04
//  #03 //004   ----------------------------------------
 BYTE   N92  As1  v048
 BYTE   W96
//  #03 //005   ----------------------------------------
 BYTE   Gn1
 BYTE   W96
//  #03 //006   ----------------------------------------
 BYTE   TIE  An1
 BYTE   W96
//  #03 //007   ----------------------------------------
 BYTE   W96
//  #03 //008   ----------------------------------------
 BYTE   W92
 BYTE   W03
 BYTE   EOT
 BYTE   W01
//  #03 //009   ----------------------------------------
 BYTE   N44  An1  v008
 BYTE   W96
//  #03 //010   ----------------------------------------
 BYTE   W96
//  #03 //011   ----------------------------------------
 BYTE   W96
//  #03 //012   ----------------------------------------
 BYTE   W96
//  #03 //013   ----------------------------------------
 BYTE   W96
//  #03 //014   ----------------------------------------
 BYTE   W96
//  #03 //015   ----------------------------------------
 BYTE   W96
//  #03 //016   ----------------------------------------
 BYTE   W96
//  #03 //017   ----------------------------------------
 BYTE   W96
//  #03 //018   ----------------------------------------
 BYTE   W96
//  #03 //019   ----------------------------------------
 BYTE   W96
//  #03 //020   ----------------------------------------
 BYTE   W96
//  #03 //021   ----------------------------------------
 BYTE   W96
//  #03 //022   ----------------------------------------
 BYTE   W96
//  #03 //023   ----------------------------------------
 BYTE   W96
//  #03 //024   ----------------------------------------
 BYTE   W96
//  #03 //025   ----------------------------------------
 BYTE   W96
//  #03 //026   ----------------------------------------
 BYTE   W96
//  #03 //027   ----------------------------------------
 BYTE   W96
//  #03 //028   ----------------------------------------
 BYTE   W96
//  #03 //029   ----------------------------------------
 BYTE   W96
//  #03 //030   ----------------------------------------
 BYTE   W96
//  #03 //031   ----------------------------------------
 BYTE   W96
//  #03 //032   ----------------------------------------
 BYTE   W96
//  #03 //033   ----------------------------------------
 BYTE   W96
//  #03 //034   ----------------------------------------
 BYTE   W96
//  #03 //035   ----------------------------------------
 BYTE   W96
//  #03 //036   ----------------------------------------
 BYTE   W96
//  #03 //037   ----------------------------------------
 BYTE   W96
//  #03 //038   ----------------------------------------
 BYTE   W96
//  #03 //039   ----------------------------------------
 BYTE   W96
//  #03 //040   ----------------------------------------
 BYTE   W96
//  #03 //041   ----------------------------------------
 BYTE   W96
//  #03 //042   ----------------------------------------
 BYTE   W24
 BYTE   N56  Dn3  v044
 BYTE   W72
//  #03 //043   ----------------------------------------
 BYTE   W24
 BYTE   N56
 BYTE   W72
//  #03 //044   ----------------------------------------
 BYTE   W24
 BYTE   N54  Cs3
 BYTE   W72
//  #03 //045   ----------------------------------------
 BYTE   W24
 BYTE   Cn3
 BYTE   W72
//  #03 //046   ----------------------------------------
 BYTE   W24
 BYTE   Bn2
 BYTE   W72
//  #03 //047   ----------------------------------------
 BYTE   W24
 BYTE   N54
 BYTE   W72
//  #03 //048   ----------------------------------------
 BYTE   W24
 BYTE   N54
 BYTE   W72
//  #03 //049   ----------------------------------------
 BYTE   W24
 BYTE   An2
 BYTE   W72
//  #03 //050   ----------------------------------------
 BYTE   W96
//  #03 //051   ----------------------------------------
 BYTE   W96
//  #03 //052   ----------------------------------------
 BYTE   W96
//  #03 //053   ----------------------------------------
 BYTE   W96
//  #03 //054   ----------------------------------------
 BYTE   W96
//  #03 //055   ----------------------------------------
 BYTE   W96
//  #03 //056   ----------------------------------------
 BYTE   W96
//  #03 //057   ----------------------------------------
 BYTE   W96
//  #03 //058   ----------------------------------------
 BYTE   W96
//  #03 //059   ----------------------------------------
 BYTE   W96
//  #03 //060   ----------------------------------------
 BYTE   W96
//  #03 //061   ----------------------------------------
 BYTE   W96
//  #03 //062   ----------------------------------------
 BYTE   W96
//  #03 //063   ----------------------------------------
 BYTE   W96
//  #03 //064   ----------------------------------------
 BYTE   W96
//  #03 //065   ----------------------------------------
 BYTE   W96
//  #03 //066   ----------------------------------------
 BYTE   W96
//  #03 //067   ----------------------------------------
 BYTE   W96
//  #03 //068   ----------------------------------------
 BYTE   W96
//  #03 //069   ----------------------------------------
 BYTE   W96
//  #03 //070   ----------------------------------------
 BYTE   W96
//  #03 //071   ----------------------------------------
 BYTE   W96
//  #03 //072   ----------------------------------------
 BYTE   W96
//  #03 //073   ----------------------------------------
 BYTE   W96
//  #03 //074   ----------------------------------------
 BYTE   W96
//  #03 //075   ----------------------------------------
 BYTE   W96
//  #03 //076   ----------------------------------------
 BYTE   W96
//  #03 //077   ----------------------------------------
 BYTE   W96
//  #03 //078   ----------------------------------------
 BYTE   W96
//  #03 //079   ----------------------------------------
 BYTE   W96
//  #03 //080   ----------------------------------------
Label_01540816:
 BYTE   N28  En2  v084
 BYTE   W48
 BYTE   N44  En1  v060
 BYTE   W48
 BYTE   PEND 
//  #03 //081   ----------------------------------------
Label_0154081F:
 BYTE   W72
 BYTE   N07  En1  v060
 BYTE   W08
 BYTE   Gn1
 BYTE   W08
 BYTE   Bn1
 BYTE   W08
 BYTE   PEND 
//  #03 //082   ----------------------------------------
Label_01540829:
 BYTE   N24  Dn2  v076
 BYTE   W48
 BYTE   N32  Dn1  v064
 BYTE   W48
 BYTE   PEND 
//  #03 //083   ----------------------------------------
Label_01540832:
 BYTE   W72
 BYTE   N07  Dn1  v060
 BYTE   W08
 BYTE   Fs1
 BYTE   W08
 BYTE   Bn1
 BYTE   W08
 BYTE   PEND 
//  #03 //084   ----------------------------------------
 BYTE   N32  Cs2  v064
 BYTE   W48
 BYTE   Cs1
 BYTE   W48
//  #03 //085   ----------------------------------------
 BYTE   W96
//  #03 //086   ----------------------------------------
Label_01540843:
 BYTE   N32  Fs2  v064
 BYTE   W48
 BYTE   Fs1
 BYTE   W48
 BYTE   PEND 
//  #03 //087   ----------------------------------------
 BYTE   PATT
  POIN2 Label_01540843
//  #03 //088   ----------------------------------------
 BYTE   N15  Fs2  v064
 BYTE   W24
 BYTE   N19  Fs1
 BYTE   W24
 BYTE   N19
 BYTE   W24
 BYTE   N19
 BYTE   W24
//  #03 //089   ----------------------------------------
 BYTE   N03
 BYTE   W08
 BYTE   N03
 BYTE   W08
 BYTE   N03
 BYTE   W08
 BYTE   N03
 BYTE   W08
 BYTE   N03
 BYTE   W08
 BYTE   N03
 BYTE   W08
 BYTE   N03
 BYTE   W08
 BYTE   N03
 BYTE   W08
 BYTE   N03
 BYTE   W08
 BYTE   N03
 BYTE   W08
 BYTE   N03
 BYTE   W08
 BYTE   N03
 BYTE   W08
//  #03 //090   ----------------------------------------
 BYTE   PATT
  POIN2 Label_01540816
//  #03 //091   ----------------------------------------
 BYTE   PATT
  POIN2 Label_0154081F
//  #03 //092   ----------------------------------------
 BYTE   PATT
  POIN2 Label_01540829
//  #03 //093   ----------------------------------------
 BYTE   PATT
  POIN2 Label_01540832
//  #03 //094   ----------------------------------------
 BYTE   N32  Cs2  v064
 BYTE   W48
 BYTE   N23  Cs1
 BYTE   W24
 BYTE   N07  Cs1  v060
 BYTE   W08
 BYTE   Fn1
 BYTE   W08
 BYTE   Bn1
 BYTE   W08
//  #03 //095   ----------------------------------------
 BYTE   N32  Dn2  v064
 BYTE   W48
 BYTE   N23  Dn1
 BYTE   W24
 BYTE   N07  Dn1  v060
 BYTE   W08
 BYTE   Fs1
 BYTE   W08
 BYTE   Bn1
 BYTE   W08
//  #03 //096   ----------------------------------------
 BYTE   N32  En2  v064
 BYTE   W48
 BYTE   N23  En1
 BYTE   W24
 BYTE   N07  En1  v060
 BYTE   W08
 BYTE   Bn1
 BYTE   W08
 BYTE   En2
 BYTE   W08
//  #03 //097   ----------------------------------------
 BYTE   N32  Fn2  v064
 BYTE   W48
 BYTE   N23  Fn1
 BYTE   W24
 BYTE   N07  Fn1  v060
 BYTE   W08
 BYTE   Cs2
 BYTE   W08
 BYTE   Fn2
 BYTE   W08
//  #03 //098   ----------------------------------------
Label_015408C2:
 BYTE   N07  Fs2  v064
 BYTE   W08
 BYTE   N07
 BYTE   W08
 BYTE   N07
 BYTE   W08
 BYTE   N07
 BYTE   W48
 BYTE   N07
 BYTE   W08
 BYTE   N07
 BYTE   W08
 BYTE   N07
 BYTE   W08
 BYTE   PEND 
//  #03 //099   ----------------------------------------
 BYTE   N07
 BYTE   W96
//  #03 //100   ----------------------------------------
 BYTE   PATT
  POIN2 Label_015408C2
//  #03 //101   ----------------------------------------
 BYTE   N07  Fs2  v064
 BYTE   W84
 BYTE   N03  An1  v036
 BYTE   W04
 BYTE   Bn1
 BYTE   W04
 BYTE   Cs2
 BYTE   W04
//  #03 //102   ----------------------------------------
 BYTE   GoTo
  POIN2 Label_0154078E
 BYTE   FINE

//**************** Track 4 (Midi-Chn.3) ****************//

TheirOwnBrandOfJustice_004:
//  #04 //000   ----------------------------------------
 BYTE   KEYSH   TheirOwnBrandOfJustice_key+0
Label_015411B6:
 BYTE   VOICE   18
 BYTE   VOL   44*TheirOwnBrandOfJustice_mvl/mxv
 BYTE   PAN   c_v-62
 BYTE   N66  An4  v060
 BYTE   W72
 BYTE   N03
 BYTE   W08
 BYTE   Fn4
 BYTE   W08
 BYTE   An4
 BYTE   W08
//  #04 //001   ----------------------------------------
 BYTE   N92  As4
 BYTE   W96
//  #04 //002   ----------------------------------------
 BYTE   N66  Gn4
 BYTE   W72
 BYTE   N03
 BYTE   W08
 BYTE   En4
 BYTE   W08
 BYTE   Gn4
 BYTE   W08
//  #04 //003   ----------------------------------------
 BYTE   N92  An4
 BYTE   W96
//  #04 //004   ----------------------------------------
 BYTE   N60  Fn4
 BYTE   W72
 BYTE   N03
 BYTE   W08
 BYTE   Dn4
 BYTE   W08
 BYTE   Fn4
 BYTE   W08
//  #04 //005   ----------------------------------------
 BYTE   N92  Gn4
 BYTE   W96
//  #04 //006   ----------------------------------------
 BYTE   TIE  An4
 BYTE   W96
//  #04 //007   ----------------------------------------
 BYTE   W96
//  #04 //008   ----------------------------------------
 BYTE   W96
//  #04 //009   ----------------------------------------
 BYTE   W05
 BYTE   EOT
 BYTE   W07
 BYTE   N32  An4  v024
 BYTE   W42
 BYTE   An4  v008
 BYTE   W42
//  #04 //010   ----------------------------------------
 BYTE   W96
//  #04 //011   ----------------------------------------
 BYTE   W96
//  #04 //012   ----------------------------------------
 BYTE   W96
//  #04 //013   ----------------------------------------
 BYTE   W96
//  #04 //014   ----------------------------------------
 BYTE   W96
//  #04 //015   ----------------------------------------
 BYTE   W96
//  #04 //016   ----------------------------------------
 BYTE   W96
//  #04 //017   ----------------------------------------
 BYTE   W96
//  #04 //018   ----------------------------------------
 BYTE   W96
//  #04 //019   ----------------------------------------
 BYTE   W96
//  #04 //020   ----------------------------------------
 BYTE   W96
//  #04 //021   ----------------------------------------
 BYTE   W96
//  #04 //022   ----------------------------------------
 BYTE   W96
//  #04 //023   ----------------------------------------
 BYTE   W96
//  #04 //024   ----------------------------------------
 BYTE   W96
//  #04 //025   ----------------------------------------
 BYTE   W96
//  #04 //026   ----------------------------------------
 BYTE   W96
//  #04 //027   ----------------------------------------
 BYTE   W96
//  #04 //028   ----------------------------------------
 BYTE   W96
//  #04 //029   ----------------------------------------
 BYTE   W96
//  #04 //030   ----------------------------------------
 BYTE   W96
//  #04 //031   ----------------------------------------
 BYTE   W96
//  #04 //032   ----------------------------------------
 BYTE   W96
//  #04 //033   ----------------------------------------
 BYTE   W96
//  #04 //034   ----------------------------------------
 BYTE   W96
//  #04 //035   ----------------------------------------
 BYTE   W96
//  #04 //036   ----------------------------------------
 BYTE   W96
//  #04 //037   ----------------------------------------
 BYTE   W96
//  #04 //038   ----------------------------------------
 BYTE   W96
//  #04 //039   ----------------------------------------
 BYTE   W96
//  #04 //040   ----------------------------------------
 BYTE   W96
//  #04 //041   ----------------------------------------
 BYTE   W96
//  #04 //042   ----------------------------------------
 BYTE   W96
//  #04 //043   ----------------------------------------
 BYTE   W96
//  #04 //044   ----------------------------------------
 BYTE   W96
//  #04 //045   ----------------------------------------
 BYTE   W96
//  #04 //046   ----------------------------------------
 BYTE   W96
//  #04 //047   ----------------------------------------
 BYTE   W96
//  #04 //048   ----------------------------------------
 BYTE   W96
//  #04 //049   ----------------------------------------
 BYTE   W96
//  #04 //050   ----------------------------------------
 BYTE   W96
//  #04 //051   ----------------------------------------
 BYTE   W96
//  #04 //052   ----------------------------------------
 BYTE   W96
//  #04 //053   ----------------------------------------
 BYTE   W96
//  #04 //054   ----------------------------------------
 BYTE   W96
//  #04 //055   ----------------------------------------
 BYTE   W96
//  #04 //056   ----------------------------------------
 BYTE   W96
//  #04 //057   ----------------------------------------
 BYTE   W96
//  #04 //058   ----------------------------------------
 BYTE   W96
//  #04 //059   ----------------------------------------
 BYTE   W96
//  #04 //060   ----------------------------------------
 BYTE   W96
//  #04 //061   ----------------------------------------
 BYTE   W96
//  #04 //062   ----------------------------------------
 BYTE   W96
//  #04 //063   ----------------------------------------
 BYTE   W96
//  #04 //064   ----------------------------------------
 BYTE   W96
//  #04 //065   ----------------------------------------
 BYTE   W96
//  #04 //066   ----------------------------------------
 BYTE   N60  Dn4  v072
 BYTE   W72
 BYTE   N07  An3  v076
 BYTE   W08
 BYTE   Dn4
 BYTE   W08
 BYTE   Fn4
 BYTE   W08
//  #04 //067   ----------------------------------------
 BYTE   N68  En4  v084
 BYTE   W72
 BYTE   N07  Gn4  v072
 BYTE   W24
//  #04 //068   ----------------------------------------
 BYTE   N60  Cs4  v080
 BYTE   W72
 BYTE   N07  Gn3  v064
 BYTE   W08
 BYTE   Cs4
 BYTE   W08
 BYTE   En4
 BYTE   W08
//  #04 //069   ----------------------------------------
 BYTE   N56  Dn4  v084
 BYTE   W72
 BYTE   N07  Cn4  v064
 BYTE   W08
 BYTE   Dn4
 BYTE   W08
 BYTE   Cn4
 BYTE   W08
//  #04 //070   ----------------------------------------
 BYTE   N56  As3  v084
 BYTE   W72
 BYTE   N07  Dn3  v064
 BYTE   W08
 BYTE   Gn3
 BYTE   W08
 BYTE   As3
 BYTE   W08
//  #04 //071   ----------------------------------------
 BYTE   N56  An3  v068
 BYTE   W72
 BYTE   N07  An2  v064
 BYTE   W08
 BYTE   Cs3
 BYTE   W08
 BYTE   En3
 BYTE   W08
//  #04 //072   ----------------------------------------
 BYTE   N56  Fn3  v068
 BYTE   W72
 BYTE   N07  An2  v064
 BYTE   W08
 BYTE   Dn3
 BYTE   W08
 BYTE   Fn3
 BYTE   W08
//  #04 //073   ----------------------------------------
 BYTE   N56  Fs3  v068
 BYTE   W72
 BYTE   N07  Bn2  v064
 BYTE   W08
 BYTE   Ds3
 BYTE   W08
 BYTE   Fs3
 BYTE   W08
//  #04 //074   ----------------------------------------
 BYTE   N56  Gn3  v068
 BYTE   W72
 BYTE   N07  Bn2  v064
 BYTE   W08
 BYTE   Dn3
 BYTE   W08
 BYTE   Gn3
 BYTE   W08
//  #04 //075   ----------------------------------------
 BYTE   N56  Gs3  v068
 BYTE   W72
 BYTE   N07  Bn2  v064
 BYTE   W08
 BYTE   En3
 BYTE   W08
 BYTE   Gs3
 BYTE   W08
//  #04 //076   ----------------------------------------
 BYTE   N56  An3  v068
 BYTE   W72
 BYTE   N07  Cn3  v064
 BYTE   W08
 BYTE   En3
 BYTE   W08
 BYTE   An3
 BYTE   W08
//  #04 //077   ----------------------------------------
 BYTE   N56  As3  v068
 BYTE   W72
 BYTE   N07  Cs3  v064
 BYTE   W08
 BYTE   Fs3
 BYTE   W08
 BYTE   As3
 BYTE   W08
//  #04 //078   ----------------------------------------
 BYTE   N30  Bn3  v068
 BYTE   W48
 BYTE   N30
 BYTE   W48
//  #04 //079   ----------------------------------------
 BYTE   N30
 BYTE   W48
 BYTE   As3
 BYTE   W48
//  #04 //080   ----------------------------------------
Label_015412BE:
 BYTE   N07  Bn3  v064
 BYTE   W08
 BYTE   Gn3
 BYTE   W08
 BYTE   En3
 BYTE   W08
 BYTE   Bn3
 BYTE   W08
 BYTE   Gn3
 BYTE   W08
 BYTE   En3
 BYTE   W08
 BYTE   Bn3
 BYTE   W08
 BYTE   Gn3
 BYTE   W08
 BYTE   En3
 BYTE   W08
 BYTE   Bn3
 BYTE   W08
 BYTE   Gn3
 BYTE   W08
 BYTE   En3
 BYTE   W08
 BYTE   PEND 
//  #04 //081   ----------------------------------------
 BYTE   En4
 BYTE   W08
 BYTE   Dn4
 BYTE   W08
 BYTE   Cs4
 BYTE   W08
 BYTE   Bn3
 BYTE   W08
 BYTE   An3
 BYTE   W08
 BYTE   Gn3
 BYTE   W08
 BYTE   N07
 BYTE   W08
 BYTE   Fs3
 BYTE   W08
 BYTE   En3
 BYTE   W08
 BYTE   N07
 BYTE   W08
 BYTE   Dn3
 BYTE   W08
 BYTE   Cs3
 BYTE   W08
//  #04 //082   ----------------------------------------
Label_015412F1:
 BYTE   N07  Bn3  v064
 BYTE   W08
 BYTE   Fs3
 BYTE   W08
 BYTE   Dn3
 BYTE   W08
 BYTE   Bn3
 BYTE   W08
 BYTE   Fs3
 BYTE   W08
 BYTE   Dn3
 BYTE   W08
 BYTE   Bn3
 BYTE   W08
 BYTE   Fs3
 BYTE   W08
 BYTE   Dn3
 BYTE   W08
 BYTE   Bn3
 BYTE   W08
 BYTE   Fs3
 BYTE   W08
 BYTE   Dn3
 BYTE   W08
 BYTE   PEND 
//  #04 //083   ----------------------------------------
Label_0154130C:
 BYTE   N07  Fs4  v064
 BYTE   W08
 BYTE   En4
 BYTE   W08
 BYTE   Dn4
 BYTE   W08
 BYTE   N07
 BYTE   W08
 BYTE   Cs4
 BYTE   W08
 BYTE   Bn3
 BYTE   W08
 BYTE   N07
 BYTE   W08
 BYTE   An3
 BYTE   W08
 BYTE   Gn3
 BYTE   W08
 BYTE   Fs3
 BYTE   W08
 BYTE   En3
 BYTE   W08
 BYTE   Dn3
 BYTE   W08
 BYTE   PEND 
//  #04 //084   ----------------------------------------
Label_01541327:
 BYTE   N07  Bn3  v064
 BYTE   W08
 BYTE   Fn3
 BYTE   W08
 BYTE   Cs3
 BYTE   W08
 BYTE   Bn3
 BYTE   W08
 BYTE   Fn3
 BYTE   W08
 BYTE   Cs3
 BYTE   W08
 BYTE   Bn3
 BYTE   W08
 BYTE   Fn3
 BYTE   W08
 BYTE   Cs3
 BYTE   W08
 BYTE   Bn3
 BYTE   W08
 BYTE   Fn3
 BYTE   W08
 BYTE   Cs3
 BYTE   W08
 BYTE   PEND 
//  #04 //085   ----------------------------------------
 BYTE   N07
 BYTE   W08
 BYTE   Cn3
 BYTE   W08
 BYTE   Cs3
 BYTE   W08
 BYTE   Ds3
 BYTE   W08
 BYTE   Fn3
 BYTE   W08
 BYTE   Fs3
 BYTE   W08
 BYTE   Gs3
 BYTE   W08
 BYTE   Gn3
 BYTE   W08
 BYTE   Gs3
 BYTE   W08
 BYTE   As3
 BYTE   W08
 BYTE   Bn3
 BYTE   W08
 BYTE   Cs4
 BYTE   W08
//  #04 //086   ----------------------------------------
 BYTE   Dn4
 BYTE   W08
 BYTE   Bn3
 BYTE   W08
 BYTE   Fs3
 BYTE   W08
 BYTE   Dn3
 BYTE   W08
 BYTE   Fs3
 BYTE   W08
 BYTE   Bn3
 BYTE   W08
 BYTE   Dn4
 BYTE   W08
 BYTE   Bn3
 BYTE   W08
 BYTE   Fs3
 BYTE   W08
 BYTE   Bn3
 BYTE   W08
 BYTE   Fs3
 BYTE   W08
 BYTE   Dn3
 BYTE   W08
//  #04 //087   ----------------------------------------
 BYTE   Cs4
 BYTE   W08
 BYTE   As3
 BYTE   W08
 BYTE   Fs3
 BYTE   W08
 BYTE   Cs3
 BYTE   W08
 BYTE   Fs3
 BYTE   W08
 BYTE   As3
 BYTE   W08
 BYTE   Cs4
 BYTE   W08
 BYTE   As3
 BYTE   W08
 BYTE   Fs3
 BYTE   W08
 BYTE   As3
 BYTE   W08
 BYTE   Fs3
 BYTE   W08
 BYTE   Cs3
 BYTE   W08
//  #04 //088   ----------------------------------------
 BYTE   Dn4
 BYTE   W08
 BYTE   Bn3
 BYTE   W08
 BYTE   Fs3
 BYTE   W08
 BYTE   Bn3
 BYTE   W08
 BYTE   Dn4
 BYTE   W08
 BYTE   Fs4
 BYTE   W08
 BYTE   Bn4
 BYTE   W08
 BYTE   Fs4
 BYTE   W08
 BYTE   Dn4
 BYTE   W08
 BYTE   Bn3
 BYTE   W08
 BYTE   Fs3
 BYTE   W08
 BYTE   Dn3
 BYTE   W08
//  #04 //089   ----------------------------------------
 BYTE   Cs4
 BYTE   W08
 BYTE   As3
 BYTE   W08
 BYTE   Fs3
 BYTE   W08
 BYTE   As3
 BYTE   W08
 BYTE   Cs4
 BYTE   W08
 BYTE   Fs4
 BYTE   W08
 BYTE   As4
 BYTE   W08
 BYTE   Fs4
 BYTE   W08
 BYTE   Cs4
 BYTE   W08
 BYTE   As3
 BYTE   W08
 BYTE   Fs3
 BYTE   W08
 BYTE   Cs3
 BYTE   W08
//  #04 //090   ----------------------------------------
 BYTE   PATT
  POIN2 Label_015412BE
//  #04 //091   ----------------------------------------
 BYTE   N07  Bn4  v064
 BYTE   W08
 BYTE   An4
 BYTE   W08
 BYTE   Gn4
 BYTE   W08
 BYTE   N07
 BYTE   W08
 BYTE   Fs4
 BYTE   W08
 BYTE   En4
 BYTE   W08
 BYTE   Dn4
 BYTE   W08
 BYTE   Cs4
 BYTE   W08
 BYTE   Bn3
 BYTE   W08
 BYTE   Cs4
 BYTE   W08
 BYTE   Dn4
 BYTE   W08
 BYTE   En4
 BYTE   W08
//  #04 //092   ----------------------------------------
 BYTE   PATT
  POIN2 Label_015412F1
//  #04 //093   ----------------------------------------
 BYTE   PATT
  POIN2 Label_0154130C
//  #04 //094   ----------------------------------------
 BYTE   PATT
  POIN2 Label_01541327
//  #04 //095   ----------------------------------------
 BYTE   PATT
  POIN2 Label_015412F1
//  #04 //096   ----------------------------------------
 BYTE   PATT
  POIN2 Label_015412BE
//  #04 //097   ----------------------------------------
 BYTE   N07  Cs4  v064
 BYTE   W08
 BYTE   Gs3
 BYTE   W08
 BYTE   Fn3
 BYTE   W08
 BYTE   Cs4
 BYTE   W08
 BYTE   Gs3
 BYTE   W08
 BYTE   Fn3
 BYTE   W08
 BYTE   Cs4
 BYTE   W08
 BYTE   Gs3
 BYTE   W08
 BYTE   Fn3
 BYTE   W08
 BYTE   Cs4
 BYTE   W08
 BYTE   Gs3
 BYTE   W08
 BYTE   Fn3
 BYTE   W08
//  #04 //098   ----------------------------------------
 BYTE   Dn4
 BYTE   W08
 BYTE   Bn3
 BYTE   W08
 BYTE   Fs3
 BYTE   W08
 BYTE   Bn3
 BYTE   W08
 BYTE   Fs3
 BYTE   W08
 BYTE   Dn3
 BYTE   W08
 BYTE   Fs3
 BYTE   W08
 BYTE   Bn3
 BYTE   W08
 BYTE   Dn4
 BYTE   W08
 BYTE   Bn3
 BYTE   W08
 BYTE   Dn4
 BYTE   W08
 BYTE   Fs4
 BYTE   W08
//  #04 //099   ----------------------------------------
 BYTE   Bn4
 BYTE   W08
 BYTE   Fs4
 BYTE   W08
 BYTE   Dn4
 BYTE   W08
 BYTE   Fs4
 BYTE   W08
 BYTE   Dn4
 BYTE   W08
 BYTE   Bn3
 BYTE   W08
 BYTE   Dn4
 BYTE   W08
 BYTE   Bn3
 BYTE   W08
 BYTE   Fs3
 BYTE   W08
 BYTE   Bn3
 BYTE   W08
 BYTE   Fs3
 BYTE   W08
 BYTE   Dn3
 BYTE   W08
//  #04 //100   ----------------------------------------
 BYTE   Cs4
 BYTE   W08
 BYTE   As3
 BYTE   W08
 BYTE   Fs3
 BYTE   W08
 BYTE   As3
 BYTE   W08
 BYTE   Fs3
 BYTE   W08
 BYTE   Cs3
 BYTE   W08
 BYTE   Fs3
 BYTE   W08
 BYTE   As3
 BYTE   W08
 BYTE   Cs4
 BYTE   W08
 BYTE   As3
 BYTE   W08
 BYTE   Cs4
 BYTE   W08
 BYTE   Fs4
 BYTE   W08
//  #04 //101   ----------------------------------------
 BYTE   As4
 BYTE   W08
 BYTE   Fs4
 BYTE   W08
 BYTE   Cs4
 BYTE   W08
 BYTE   Fs4
 BYTE   W08
 BYTE   Cs4
 BYTE   W08
 BYTE   As3
 BYTE   W08
 BYTE   Cs4
 BYTE   W08
 BYTE   As3
 BYTE   W08
 BYTE   Fs3
 BYTE   W08
 BYTE   As3
 BYTE   W08
 BYTE   Fs3
 BYTE   W08
 BYTE   Cs3
 BYTE   W08
//  #04 //102   ----------------------------------------
 BYTE   GoTo
  POIN2 Label_015411B6
 BYTE   FINE

//**************** Track 5 (Midi-Chn.4) ****************//

TheirOwnBrandOfJustice_005:
//  #05 //000   ----------------------------------------
 BYTE   KEYSH   TheirOwnBrandOfJustice_key+0
Label_015414BA:
 BYTE   VOICE   18
 BYTE   VOL   42*TheirOwnBrandOfJustice_mvl/mxv
 BYTE   PAN   c_v+62
 BYTE   W96
//  #05 //001   ----------------------------------------
 BYTE   W96
//  #05 //002   ----------------------------------------
 BYTE   W96
//  #05 //003   ----------------------------------------
 BYTE   W96
//  #05 //004   ----------------------------------------
 BYTE   W96
//  #05 //005   ----------------------------------------
 BYTE   W96
//  #05 //006   ----------------------------------------
 BYTE   W96
//  #05 //007   ----------------------------------------
 BYTE   W96
//  #05 //008   ----------------------------------------
 BYTE   W96
//  #05 //009   ----------------------------------------
 BYTE   W96
//  #05 //010   ----------------------------------------
Label_015414CA:
 BYTE   N08  Dn3  v072
 BYTE   W08
 BYTE   N06  Fn3
 BYTE   W08
 BYTE   N09  An3
 BYTE   W08
 BYTE   TIE  Dn4
 BYTE   W24
 BYTE   W48
 BYTE   PEND 
//  #05 //011   ----------------------------------------
 BYTE   W30
 BYTE   EOT
 BYTE   W10
 BYTE   N08  An3
 BYTE   W04
 BYTE   N07  Dn4
 BYTE   W04
 BYTE   N20  Fn4
 BYTE   W18
 BYTE   N14  En4
 BYTE   W13
 BYTE   N10  Dn4
 BYTE   W17
//  #05 //012   ----------------------------------------
Label_015414EB:
 BYTE   N80  Dn4  v072
 BYTE   W84
 BYTE   N05  Cn4
 BYTE   W04
 BYTE   N07  Dn4
 BYTE   W08
 BYTE   PEND 
//  #05 //013   ----------------------------------------
Label_015414F6:
 BYTE   N80  Cn4  v072
 BYTE   W80
 BYTE   N03  Gn3  v036
 BYTE   W04
 BYTE   Dn3  v032
 BYTE   W12
 BYTE   PEND 
//  #05 //014   ----------------------------------------
Label_01541502:
 BYTE   N09  As2  v072
 BYTE   W08
 BYTE   N05  Dn3
 BYTE   W08
 BYTE   N10  Fn3
 BYTE   W08
 BYTE   TIE  As3
 BYTE   W72
 BYTE   PEND 
//  #05 //015   ----------------------------------------
 BYTE   W28
 BYTE   EOT
 BYTE   W09
 BYTE   N08  Fn3
 BYTE   W06
 BYTE   As3
 BYTE   W06
 BYTE   N18  Dn4
 BYTE   W17
 BYTE   N16  Cn4
 BYTE   W14
 BYTE   N11  As3
 BYTE   W16
//  #05 //016   ----------------------------------------
Label_01541521:
 BYTE   N80  As3  v072
 BYTE   W80
 BYTE   W02
 BYTE   N05  An3
 BYTE   W06
 BYTE   N08  As3
 BYTE   W06
 BYTE   N78  An3
 BYTE   W02
 BYTE   PEND 
//  #05 //017   ----------------------------------------
Label_01541530:
 BYTE   W80
 BYTE   N03  Fs3  v036
 BYTE   W04
 BYTE   Dn3
 BYTE   W12
 BYTE   PEND 
//  #05 //018   ----------------------------------------
Label_01541538:
 BYTE   N10  An2  v072
 BYTE   W08
 BYTE   N07  Cn3
 BYTE   W08
 BYTE   N09  Fs3
 BYTE   W08
 BYTE   TIE  An3
 BYTE   W72
 BYTE   PEND 
//  #05 //019   ----------------------------------------
 BYTE   W24
 BYTE   W01
 BYTE   EOT
 BYTE   W10
 BYTE   N05  Fs3
 BYTE   W06
 BYTE   N07  An3
 BYTE   W07
 BYTE   N17  Ds4
 BYTE   W17
 BYTE   Dn4
 BYTE   W15
 BYTE   N12  Cn4
 BYTE   W16
//  #05 //020   ----------------------------------------
Label_01541558:
 BYTE   N88  Cn4  v072
 BYTE   W84
 BYTE   W02
 BYTE   N05  As3
 BYTE   W06
 BYTE   N10  An3
 BYTE   W04
 BYTE   PEND 
//  #05 //021   ----------------------------------------
Label_01541564:
 BYTE   W03
 BYTE   N72  As3  v072
 BYTE   W76
 BYTE   W01
 BYTE   N03  Gn3  v036
 BYTE   W04
 BYTE   Dn3
 BYTE   W08
 BYTE   Fs3  v060
 BYTE   W04
 BYTE   PEND 
//  #05 //022   ----------------------------------------
Label_01541574:
 BYTE   N11  Gs3  v072
 BYTE   W08
 BYTE   N06  Bn3
 BYTE   W08
 BYTE   N08  Dn4
 BYTE   W08
 BYTE   TIE  Fn4
 BYTE   W72
 BYTE   PEND 
//  #05 //023   ----------------------------------------
 BYTE   W30
 BYTE   W01
 BYTE   EOT
 BYTE   W04
 BYTE   N08  Dn4
 BYTE   W04
 BYTE   En4
 BYTE   W06
 BYTE   N21  Fn4
 BYTE   W19
 BYTE   N18  En4
 BYTE   W17
 BYTE   N14  Dn4
 BYTE   W15
//  #05 //024   ----------------------------------------
 BYTE   TIE  An4
 BYTE   W96
//  #05 //025   ----------------------------------------
 BYTE   W78
 BYTE   EOT
 BYTE   W18
//  #05 //026   ----------------------------------------
 BYTE   PATT
  POIN2 Label_015414CA
//  #05 //027   ----------------------------------------
 BYTE   W30
 BYTE   EOT
 BYTE   Dn4
 BYTE   W10
 BYTE   N08  An3  v072
 BYTE   W04
 BYTE   N07  Dn4
 BYTE   W04
 BYTE   N20  Fn4
 BYTE   W18
 BYTE   N14  En4
 BYTE   W13
 BYTE   N10  Dn4
 BYTE   W17
//  #05 //028   ----------------------------------------
 BYTE   PATT
  POIN2 Label_015414EB
//  #05 //029   ----------------------------------------
 BYTE   PATT
  POIN2 Label_015414F6
//  #05 //030   ----------------------------------------
 BYTE   PATT
  POIN2 Label_01541502
//  #05 //031   ----------------------------------------
 BYTE   W28
 BYTE   EOT
 BYTE   As3
 BYTE   W09
 BYTE   N08  Fn3  v072
 BYTE   W06
 BYTE   As3
 BYTE   W06
 BYTE   N18  Dn4
 BYTE   W17
 BYTE   N16  Cn4
 BYTE   W14
 BYTE   N11  As3
 BYTE   W16
//  #05 //032   ----------------------------------------
 BYTE   PATT
  POIN2 Label_01541521
//  #05 //033   ----------------------------------------
 BYTE   PATT
  POIN2 Label_01541530
//  #05 //034   ----------------------------------------
 BYTE   PATT
  POIN2 Label_01541538
//  #05 //035   ----------------------------------------
 BYTE   W24
 BYTE   W01
 BYTE   EOT
 BYTE   An3
 BYTE   W10
 BYTE   N05  Fs3  v072
 BYTE   W06
 BYTE   N07  An3
 BYTE   W07
 BYTE   N17  Ds4
 BYTE   W17
 BYTE   Dn4
 BYTE   W15
 BYTE   N12  Cn4
 BYTE   W16
//  #05 //036   ----------------------------------------
 BYTE   PATT
  POIN2 Label_01541558
//  #05 //037   ----------------------------------------
 BYTE   PATT
  POIN2 Label_01541564
//  #05 //038   ----------------------------------------
 BYTE   PATT
  POIN2 Label_01541574
//  #05 //039   ----------------------------------------
 BYTE   W30
 BYTE   W01
 BYTE   EOT
 BYTE   Fn4
 BYTE   W04
 BYTE   N08  Dn4  v072
 BYTE   W04
 BYTE   En4
 BYTE   W06
 BYTE   N21  Fn4
 BYTE   W19
 BYTE   N18  En4
 BYTE   W17
 BYTE   N14  Dn4
 BYTE   W15
//  #05 //040   ----------------------------------------
 BYTE   TIE  An4
 BYTE   W96
//  #05 //041   ----------------------------------------
 BYTE   W78
 BYTE   EOT
 BYTE   W18
//  #05 //042   ----------------------------------------
 BYTE   W96
//  #05 //043   ----------------------------------------
 BYTE   W96
//  #05 //044   ----------------------------------------
 BYTE   W96
//  #05 //045   ----------------------------------------
 BYTE   W96
//  #05 //046   ----------------------------------------
 BYTE   W96
//  #05 //047   ----------------------------------------
 BYTE   W96
//  #05 //048   ----------------------------------------
 BYTE   W96
//  #05 //049   ----------------------------------------
 BYTE   W96
//  #05 //050   ----------------------------------------
 BYTE   W96
//  #05 //051   ----------------------------------------
 BYTE   W96
//  #05 //052   ----------------------------------------
 BYTE   W96
//  #05 //053   ----------------------------------------
 BYTE   W96
//  #05 //054   ----------------------------------------
 BYTE   W96
//  #05 //055   ----------------------------------------
 BYTE   W96
//  #05 //056   ----------------------------------------
 BYTE   W96
//  #05 //057   ----------------------------------------
 BYTE   W96
//  #05 //058   ----------------------------------------
 BYTE   W96
//  #05 //059   ----------------------------------------
 BYTE   W96
//  #05 //060   ----------------------------------------
 BYTE   W96
//  #05 //061   ----------------------------------------
 BYTE   W96
//  #05 //062   ----------------------------------------
 BYTE   W96
//  #05 //063   ----------------------------------------
 BYTE   W96
//  #05 //064   ----------------------------------------
 BYTE   W96
//  #05 //065   ----------------------------------------
 BYTE   N07  An4  v060
 BYTE   W08
 BYTE   As4
 BYTE   W08
 BYTE   An4
 BYTE   W08
 BYTE   Gn4
 BYTE   W08
 BYTE   Fn4
 BYTE   W08
 BYTE   En4
 BYTE   W08
 BYTE   Cs4
 BYTE   W08
 BYTE   Dn4
 BYTE   W08
 BYTE   Cs4
 BYTE   W08
 BYTE   As3
 BYTE   W08
 BYTE   An3
 BYTE   W08
 BYTE   Gn3
 BYTE   W08
//  #05 //066   ----------------------------------------
 BYTE   N60  Dn4  v072
 BYTE   W72
 BYTE   N07  An3  v076
 BYTE   W08
 BYTE   Dn4
 BYTE   W08
 BYTE   Fn4
 BYTE   W08
//  #05 //067   ----------------------------------------
 BYTE   N68  En4  v084
 BYTE   W72
 BYTE   N07  Gn4  v072
 BYTE   W24
//  #05 //068   ----------------------------------------
 BYTE   N60  Cs4  v080
 BYTE   W72
 BYTE   N07  Gn3  v064
 BYTE   W08
 BYTE   Cs4
 BYTE   W08
 BYTE   En4
 BYTE   W08
//  #05 //069   ----------------------------------------
 BYTE   N56  Dn4  v084
 BYTE   W72
 BYTE   N07  Cn4  v064
 BYTE   W08
 BYTE   Dn4
 BYTE   W08
 BYTE   Cn4
 BYTE   W08
//  #05 //070   ----------------------------------------
 BYTE   N56  As3  v084
 BYTE   W72
 BYTE   N07  Dn3  v064
 BYTE   W08
 BYTE   Gn3
 BYTE   W08
 BYTE   As3
 BYTE   W08
//  #05 //071   ----------------------------------------
 BYTE   N56  An3  v068
 BYTE   W72
 BYTE   N07  An2  v064
 BYTE   W08
 BYTE   Cs3
 BYTE   W08
 BYTE   En3
 BYTE   W08
//  #05 //072   ----------------------------------------
 BYTE   N56  Fn3  v068
 BYTE   W72
 BYTE   N07  An2  v064
 BYTE   W08
 BYTE   Dn3
 BYTE   W08
 BYTE   Fn3
 BYTE   W08
//  #05 //073   ----------------------------------------
 BYTE   N56  Fs3  v068
 BYTE   W72
 BYTE   N07  Bn2  v064
 BYTE   W08
 BYTE   Ds3
 BYTE   W08
 BYTE   Fs3
 BYTE   W08
//  #05 //074   ----------------------------------------
 BYTE   N56  Gn3  v068
 BYTE   W72
 BYTE   N07  Bn2  v064
 BYTE   W08
 BYTE   Dn3
 BYTE   W08
 BYTE   Gn3
 BYTE   W08
//  #05 //075   ----------------------------------------
 BYTE   N56  Gs3  v068
 BYTE   W72
 BYTE   N07  Bn2  v064
 BYTE   W08
 BYTE   En3
 BYTE   W08
 BYTE   Gs3
 BYTE   W08
//  #05 //076   ----------------------------------------
 BYTE   N56  An3  v068
 BYTE   W72
 BYTE   N07  Cn3  v064
 BYTE   W08
 BYTE   En3
 BYTE   W08
 BYTE   An3
 BYTE   W08
//  #05 //077   ----------------------------------------
 BYTE   N56  As3  v068
 BYTE   W72
 BYTE   N07  Cs3  v064
 BYTE   W08
 BYTE   Fs3
 BYTE   W08
 BYTE   As3
 BYTE   W08
//  #05 //078   ----------------------------------------
 BYTE   N30  Bn3  v068
 BYTE   W48
 BYTE   N30
 BYTE   W48
//  #05 //079   ----------------------------------------
 BYTE   N30
 BYTE   W48
 BYTE   As3
 BYTE   W48
//  #05 //080   ----------------------------------------
Label_015416E8:
 BYTE   N07  Bn3  v064
 BYTE   W08
 BYTE   Gn3
 BYTE   W08
 BYTE   En3
 BYTE   W08
 BYTE   Bn3
 BYTE   W08
 BYTE   Gn3
 BYTE   W08
 BYTE   En3
 BYTE   W08
 BYTE   Bn3
 BYTE   W08
 BYTE   Gn3
 BYTE   W08
 BYTE   En3
 BYTE   W08
 BYTE   Bn3
 BYTE   W08
 BYTE   Gn3
 BYTE   W08
 BYTE   En3
 BYTE   W08
 BYTE   PEND 
//  #05 //081   ----------------------------------------
 BYTE   En4
 BYTE   W08
 BYTE   Dn4
 BYTE   W08
 BYTE   Cs4
 BYTE   W08
 BYTE   Bn3
 BYTE   W08
 BYTE   An3
 BYTE   W08
 BYTE   Gn3
 BYTE   W08
 BYTE   N07
 BYTE   W08
 BYTE   Fs3
 BYTE   W08
 BYTE   En3
 BYTE   W08
 BYTE   N07
 BYTE   W08
 BYTE   Dn3
 BYTE   W08
 BYTE   Cs3
 BYTE   W08
//  #05 //082   ----------------------------------------
Label_0154171B:
 BYTE   N07  Bn3  v064
 BYTE   W08
 BYTE   Fs3
 BYTE   W08
 BYTE   Dn3
 BYTE   W08
 BYTE   Bn3
 BYTE   W08
 BYTE   Fs3
 BYTE   W08
 BYTE   Dn3
 BYTE   W08
 BYTE   Bn3
 BYTE   W08
 BYTE   Fs3
 BYTE   W08
 BYTE   Dn3
 BYTE   W08
 BYTE   Bn3
 BYTE   W08
 BYTE   Fs3
 BYTE   W08
 BYTE   Dn3
 BYTE   W08
 BYTE   PEND 
//  #05 //083   ----------------------------------------
Label_01541736:
 BYTE   N07  Fs4  v064
 BYTE   W08
 BYTE   En4
 BYTE   W08
 BYTE   Dn4
 BYTE   W08
 BYTE   N07
 BYTE   W08
 BYTE   Cs4
 BYTE   W08
 BYTE   Bn3
 BYTE   W08
 BYTE   N07
 BYTE   W08
 BYTE   An3
 BYTE   W08
 BYTE   Gn3
 BYTE   W08
 BYTE   Fs3
 BYTE   W08
 BYTE   En3
 BYTE   W08
 BYTE   Dn3
 BYTE   W08
 BYTE   PEND 
//  #05 //084   ----------------------------------------
Label_01541751:
 BYTE   N07  Bn3  v064
 BYTE   W08
 BYTE   Fn3
 BYTE   W08
 BYTE   Cs3
 BYTE   W08
 BYTE   Bn3
 BYTE   W08
 BYTE   Fn3
 BYTE   W08
 BYTE   Cs3
 BYTE   W08
 BYTE   Bn3
 BYTE   W08
 BYTE   Fn3
 BYTE   W08
 BYTE   Cs3
 BYTE   W08
 BYTE   Bn3
 BYTE   W08
 BYTE   Fn3
 BYTE   W08
 BYTE   Cs3
 BYTE   W08
 BYTE   PEND 
//  #05 //085   ----------------------------------------
 BYTE   N07
 BYTE   W08
 BYTE   Cn3
 BYTE   W08
 BYTE   Cs3
 BYTE   W08
 BYTE   Ds3
 BYTE   W08
 BYTE   Fn3
 BYTE   W08
 BYTE   Fs3
 BYTE   W08
 BYTE   Gs3
 BYTE   W08
 BYTE   Gn3
 BYTE   W08
 BYTE   Gs3
 BYTE   W08
 BYTE   As3
 BYTE   W08
 BYTE   Bn3
 BYTE   W08
 BYTE   Cs4
 BYTE   W08
//  #05 //086   ----------------------------------------
 BYTE   Dn4
 BYTE   W08
 BYTE   Bn3
 BYTE   W08
 BYTE   Fs3
 BYTE   W08
 BYTE   Dn3
 BYTE   W08
 BYTE   Fs3
 BYTE   W08
 BYTE   Bn3
 BYTE   W08
 BYTE   Dn4
 BYTE   W08
 BYTE   Bn3
 BYTE   W08
 BYTE   Fs3
 BYTE   W08
 BYTE   Bn3
 BYTE   W08
 BYTE   Fs3
 BYTE   W08
 BYTE   Dn3
 BYTE   W08
//  #05 //087   ----------------------------------------
 BYTE   Cs4
 BYTE   W08
 BYTE   As3
 BYTE   W08
 BYTE   Fs3
 BYTE   W08
 BYTE   Cs3
 BYTE   W08
 BYTE   Fs3
 BYTE   W08
 BYTE   As3
 BYTE   W08
 BYTE   Cs4
 BYTE   W08
 BYTE   As3
 BYTE   W08
 BYTE   Fs3
 BYTE   W08
 BYTE   As3
 BYTE   W08
 BYTE   Fs3
 BYTE   W08
 BYTE   Cs3
 BYTE   W08
//  #05 //088   ----------------------------------------
 BYTE   Dn4
 BYTE   W08
 BYTE   Bn3
 BYTE   W08
 BYTE   Fs3
 BYTE   W08
 BYTE   Bn3
 BYTE   W08
 BYTE   Dn4
 BYTE   W08
 BYTE   Fs4
 BYTE   W08
 BYTE   Bn4
 BYTE   W08
 BYTE   Fs4
 BYTE   W08
 BYTE   Dn4
 BYTE   W08
 BYTE   Bn3
 BYTE   W08
 BYTE   Fs3
 BYTE   W08
 BYTE   Dn3
 BYTE   W08
//  #05 //089   ----------------------------------------
 BYTE   Cs4
 BYTE   W08
 BYTE   As3
 BYTE   W08
 BYTE   Fs3
 BYTE   W08
 BYTE   As3
 BYTE   W08
 BYTE   Cs4
 BYTE   W08
 BYTE   Fs4
 BYTE   W08
 BYTE   As4
 BYTE   W08
 BYTE   Fs4
 BYTE   W08
 BYTE   Cs4
 BYTE   W08
 BYTE   As3
 BYTE   W08
 BYTE   Fs3
 BYTE   W08
 BYTE   Cs3
 BYTE   W08
//  #05 //090   ----------------------------------------
 BYTE   PATT
  POIN2 Label_015416E8
//  #05 //091   ----------------------------------------
 BYTE   N07  Bn4  v064
 BYTE   W08
 BYTE   An4
 BYTE   W08
 BYTE   Gn4
 BYTE   W08
 BYTE   N07
 BYTE   W08
 BYTE   Fs4
 BYTE   W08
 BYTE   En4
 BYTE   W08
 BYTE   Dn4
 BYTE   W08
 BYTE   Cs4
 BYTE   W08
 BYTE   Bn3
 BYTE   W08
 BYTE   Cs4
 BYTE   W08
 BYTE   Dn4
 BYTE   W08
 BYTE   En4
 BYTE   W08
//  #05 //092   ----------------------------------------
 BYTE   PATT
  POIN2 Label_0154171B
//  #05 //093   ----------------------------------------
 BYTE   PATT
  POIN2 Label_01541736
//  #05 //094   ----------------------------------------
 BYTE   PATT
  POIN2 Label_01541751
//  #05 //095   ----------------------------------------
 BYTE   PATT
  POIN2 Label_0154171B
//  #05 //096   ----------------------------------------
 BYTE   PATT
  POIN2 Label_015416E8
//  #05 //097   ----------------------------------------
 BYTE   N07  Cs4  v064
 BYTE   W08
 BYTE   Gs3
 BYTE   W08
 BYTE   Fn3
 BYTE   W08
 BYTE   Cs4
 BYTE   W08
 BYTE   Gs3
 BYTE   W08
 BYTE   Fn3
 BYTE   W08
 BYTE   Cs4
 BYTE   W08
 BYTE   Gs3
 BYTE   W08
 BYTE   Fn3
 BYTE   W08
 BYTE   Cs4
 BYTE   W08
 BYTE   Gs3
 BYTE   W08
 BYTE   Fn3
 BYTE   W08
//  #05 //098   ----------------------------------------
 BYTE   Dn4
 BYTE   W08
 BYTE   Bn3
 BYTE   W08
 BYTE   Fs3
 BYTE   W08
 BYTE   Bn3
 BYTE   W08
 BYTE   Fs3
 BYTE   W08
 BYTE   Dn3
 BYTE   W08
 BYTE   Fs3
 BYTE   W08
 BYTE   Bn3
 BYTE   W08
 BYTE   Dn4
 BYTE   W08
 BYTE   Bn3
 BYTE   W08
 BYTE   Dn4
 BYTE   W08
 BYTE   Fs4
 BYTE   W08
//  #05 //099   ----------------------------------------
 BYTE   Bn4
 BYTE   W08
 BYTE   Fs4
 BYTE   W08
 BYTE   Dn4
 BYTE   W08
 BYTE   Fs4
 BYTE   W08
 BYTE   Dn4
 BYTE   W08
 BYTE   Bn3
 BYTE   W08
 BYTE   Dn4
 BYTE   W08
 BYTE   Bn3
 BYTE   W08
 BYTE   Fs3
 BYTE   W08
 BYTE   Bn3
 BYTE   W08
 BYTE   Fs3
 BYTE   W08
 BYTE   Dn3
 BYTE   W08
//  #05 //100   ----------------------------------------
 BYTE   Cs4
 BYTE   W08
 BYTE   As3
 BYTE   W08
 BYTE   Fs3
 BYTE   W08
 BYTE   As3
 BYTE   W08
 BYTE   Fs3
 BYTE   W08
 BYTE   Cs3
 BYTE   W08
 BYTE   Fs3
 BYTE   W08
 BYTE   As3
 BYTE   W08
 BYTE   Cs4
 BYTE   W08
 BYTE   As3
 BYTE   W08
 BYTE   Cs4
 BYTE   W08
 BYTE   Fs4
 BYTE   W08
//  #05 //101   ----------------------------------------
 BYTE   As4
 BYTE   W08
 BYTE   Fs4
 BYTE   W08
 BYTE   Cs4
 BYTE   W08
 BYTE   Fs4
 BYTE   W08
 BYTE   Cs4
 BYTE   W08
 BYTE   As3
 BYTE   W08
 BYTE   Cs4
 BYTE   W08
 BYTE   As3
 BYTE   W08
 BYTE   Fs3
 BYTE   W08
 BYTE   As3
 BYTE   W08
 BYTE   Fs3
 BYTE   W08
 BYTE   Cs3
 BYTE   W08
//  #05 //102   ----------------------------------------
 BYTE   GoTo
  POIN2 Label_015414BA
 BYTE   FINE

//**************** Track 6 (Midi-Chn.5) ****************//

TheirOwnBrandOfJustice_006:
//  #06 //000   ----------------------------------------
 BYTE   KEYSH   TheirOwnBrandOfJustice_key+0
Label_0153FEBA:
 BYTE   VOICE   18
 BYTE   VOL   50*TheirOwnBrandOfJustice_mvl/mxv
 BYTE   PAN   c_v+62
 BYTE   TIE  Dn1  v060
 BYTE   TIE  Dn3
 BYTE   TIE  Fn3
 BYTE   W96
//  #06 //001   ----------------------------------------
 BYTE   W92
 BYTE   W03
 BYTE   EOT
 BYTE   Dn1  v062
 BYTE   Fn3
 BYTE   W01
//  #06 //002   ----------------------------------------
 BYTE   TIE  Cn1
 BYTE   TIE  Cn3
 BYTE   TIE  En3
 BYTE   W96
//  #06 //003   ----------------------------------------
 BYTE   W92
 BYTE   W03
 BYTE   EOT
 BYTE   Cn1  v060
 BYTE   En3
 BYTE   W01
//  #06 //004   ----------------------------------------
 BYTE   N92  As0
 BYTE   TIE  As2
 BYTE   TIE  Dn3
 BYTE   W96
//  #06 //005   ----------------------------------------
 BYTE   N92  Gn0
 BYTE   W92
 BYTE   W03
 BYTE   EOT
 BYTE   As2  v062
 BYTE   W01
//  #06 //006   ----------------------------------------
 BYTE   TIE  An0
 BYTE   TIE  An2
 BYTE   TIE  Dn3
 BYTE   W96
//  #06 //007   ----------------------------------------
 BYTE   W92
 BYTE   W03
 BYTE   EOT
 BYTE   W01
//  #06 //008   ----------------------------------------
 BYTE   TIE  Cs3
 BYTE   W96
//  #06 //009   ----------------------------------------
 BYTE   W05
 BYTE   EOT
 BYTE   An0  v057
 BYTE   Cs3
 BYTE   W07
 BYTE   N32  Cs3  v024
 BYTE   W42
 BYTE   Cs3  v008
 BYTE   W42
//  #06 //010   ----------------------------------------
 BYTE   W96
//  #06 //011   ----------------------------------------
 BYTE   W96
//  #06 //012   ----------------------------------------
 BYTE   W96
//  #06 //013   ----------------------------------------
 BYTE   W96
//  #06 //014   ----------------------------------------
 BYTE   W96
//  #06 //015   ----------------------------------------
 BYTE   W96
//  #06 //016   ----------------------------------------
 BYTE   W96
//  #06 //017   ----------------------------------------
 BYTE   W96
//  #06 //018   ----------------------------------------
 BYTE   W96
//  #06 //019   ----------------------------------------
 BYTE   W96
//  #06 //020   ----------------------------------------
 BYTE   W96
//  #06 //021   ----------------------------------------
 BYTE   W96
//  #06 //022   ----------------------------------------
 BYTE   W96
//  #06 //023   ----------------------------------------
 BYTE   W96
//  #06 //024   ----------------------------------------
 BYTE   W96
//  #06 //025   ----------------------------------------
 BYTE   W96
//  #06 //026   ----------------------------------------
 BYTE   W96
//  #06 //027   ----------------------------------------
 BYTE   W96
//  #06 //028   ----------------------------------------
 BYTE   W96
//  #06 //029   ----------------------------------------
 BYTE   W96
//  #06 //030   ----------------------------------------
 BYTE   W96
//  #06 //031   ----------------------------------------
 BYTE   W96
//  #06 //032   ----------------------------------------
 BYTE   W96
//  #06 //033   ----------------------------------------
 BYTE   W96
//  #06 //034   ----------------------------------------
 BYTE   W96
//  #06 //035   ----------------------------------------
 BYTE   W96
//  #06 //036   ----------------------------------------
 BYTE   W96
//  #06 //037   ----------------------------------------
 BYTE   W96
//  #06 //038   ----------------------------------------
 BYTE   W96
//  #06 //039   ----------------------------------------
 BYTE   W96
//  #06 //040   ----------------------------------------
 BYTE   W96
//  #06 //041   ----------------------------------------
 BYTE   W96
//  #06 //042   ----------------------------------------
 BYTE   W24
 BYTE   N60  Fn3  v048
 BYTE   N60  An3
 BYTE   N60  Dn4
 BYTE   W72
//  #06 //043   ----------------------------------------
 BYTE   W24
 BYTE   Gn3
 BYTE   N60  As3
 BYTE   N60  Dn4
 BYTE   W72
//  #06 //044   ----------------------------------------
 BYTE   W24
 BYTE   En3
 BYTE   N60  Gn3
 BYTE   N60  As3
 BYTE   N60  Cs4
 BYTE   W72
//  #06 //045   ----------------------------------------
 BYTE   W24
 BYTE   Fs3
 BYTE   N60  An3
 BYTE   N60  Cn4
 BYTE   N60  Ds4
 BYTE   W72
//  #06 //046   ----------------------------------------
 BYTE   W24
 BYTE   N54  Fn3
 BYTE   N54  Gs3
 BYTE   N54  Bn3
 BYTE   N60  Dn4
 BYTE   W72
//  #06 //047   ----------------------------------------
 BYTE   W24
 BYTE   Gs3
 BYTE   N60  Bn3
 BYTE   N60  Dn4
 BYTE   N60  Fn4
 BYTE   W72
//  #06 //048   ----------------------------------------
 BYTE   W24
 BYTE   Bn3
 BYTE   N60  Dn4
 BYTE   N60  Fn4
 BYTE   N60  Gs4
 BYTE   W72
//  #06 //049   ----------------------------------------
 BYTE   W24
 BYTE   N54  An3
 BYTE   N54  Cs4
 BYTE   N54  En4
 BYTE   N54  An4
 BYTE   W72
//  #06 //050   ----------------------------------------
 BYTE   W96
//  #06 //051   ----------------------------------------
 BYTE   W96
//  #06 //052   ----------------------------------------
 BYTE   W96
//  #06 //053   ----------------------------------------
 BYTE   W96
//  #06 //054   ----------------------------------------
 BYTE   W96
//  #06 //055   ----------------------------------------
 BYTE   W96
//  #06 //056   ----------------------------------------
 BYTE   W96
//  #06 //057   ----------------------------------------
 BYTE   W96
//  #06 //058   ----------------------------------------
 BYTE   W96
//  #06 //059   ----------------------------------------
 BYTE   W96
//  #06 //060   ----------------------------------------
 BYTE   W96
//  #06 //061   ----------------------------------------
 BYTE   W96
//  #06 //062   ----------------------------------------
 BYTE   W96
//  #06 //063   ----------------------------------------
 BYTE   W96
//  #06 //064   ----------------------------------------
 BYTE   W96
//  #06 //065   ----------------------------------------
 BYTE   W96
//  #06 //066   ----------------------------------------
 BYTE   N60  Fn3  v064
 BYTE   N60  An3  v056
 BYTE   W96
//  #06 //067   ----------------------------------------
 BYTE   N68  Gn3  v068
 BYTE   N72  As3  v056
 BYTE   W96
//  #06 //068   ----------------------------------------
 BYTE   N60  En3
 BYTE   N60  An3  v052
 BYTE   W96
//  #06 //069   ----------------------------------------
 BYTE   N56  Fs3  v068
 BYTE   N56  An3  v072
 BYTE   W96
//  #06 //070   ----------------------------------------
 BYTE   Dn3  v068
 BYTE   N56  Gn3  v072
 BYTE   W96
//  #06 //071   ----------------------------------------
 BYTE   Cs3  v060
 BYTE   N54  En3  v068
 BYTE   W96
//  #06 //072   ----------------------------------------
 BYTE   N56  An2
 BYTE   N56  Dn3
 BYTE   W96
//  #06 //073   ----------------------------------------
 BYTE   Bn2
 BYTE   N56  Ds3
 BYTE   W96
//  #06 //074   ----------------------------------------
 BYTE   Bn2
 BYTE   N56  Dn3
 BYTE   W96
//  #06 //075   ----------------------------------------
 BYTE   Bn2
 BYTE   N56  En3
 BYTE   W96
//  #06 //076   ----------------------------------------
 BYTE   Cn3
 BYTE   N56  En3
 BYTE   W96
//  #06 //077   ----------------------------------------
 BYTE   Cs3
 BYTE   N56  Fs3
 BYTE   W96
//  #06 //078   ----------------------------------------
 BYTE   N30  Dn3
 BYTE   N30  Fs3
 BYTE   W48
 BYTE   En3
 BYTE   N30  Gn3
 BYTE   W48
//  #06 //079   ----------------------------------------
 BYTE   Dn3
 BYTE   N30  Fs3
 BYTE   W48
 BYTE   Cs3
 BYTE   N30  Fs3
 BYTE   W48
//  #06 //080   ----------------------------------------
 BYTE   N30  Gn3
 BYTE   N28  Bn3  v076
 BYTE   W48
 BYTE   N32  En3
 BYTE   W04
 BYTE   N24  Bn2  v064
 BYTE   W44
//  #06 //081   ----------------------------------------
 BYTE   W96
//  #06 //082   ----------------------------------------
Label_0153FFDE:
 BYTE   N28  Fs3  v076
 BYTE   N24  Bn3  v080
 BYTE   W48
 BYTE   N30  Bn2  v064
 BYTE   N32  Dn3  v076
 BYTE   W48
 BYTE   PEND 
//  #06 //083   ----------------------------------------
 BYTE   W96
//  #06 //084   ----------------------------------------
 BYTE   N28  Fn3
 BYTE   N24  Bn3  v080
 BYTE   W48
 BYTE   N32  Cs3  v076
 BYTE   N30  Fn3  v064
 BYTE   W48
//  #06 //085   ----------------------------------------
 BYTE   W96
//  #06 //086   ----------------------------------------
 BYTE   N24  Fs3  v068
 BYTE   N24  Bn3
 BYTE   W48
 BYTE   Bn2
 BYTE   N24  Dn3
 BYTE   W48
//  #06 //087   ----------------------------------------
 BYTE   Fs3
 BYTE   N24  As3
 BYTE   W48
 BYTE   As2
 BYTE   N24  Cs3
 BYTE   W48
//  #06 //088   ----------------------------------------
 BYTE   N15  Fs3
 BYTE   N15  Bn3
 BYTE   W24
 BYTE   Dn3
 BYTE   N15  Fs3
 BYTE   W24
 BYTE   N15
 BYTE   N15  Bn3
 BYTE   W24
 BYTE   Dn3
 BYTE   N15  Fs3
 BYTE   W24
//  #06 //089   ----------------------------------------
 BYTE   N15
 BYTE   N15  As3
 BYTE   W24
 BYTE   Cs3
 BYTE   N15  Fs3
 BYTE   W24
 BYTE   N15
 BYTE   N15  As3
 BYTE   W24
 BYTE   Cs3
 BYTE   N15  Fs3
 BYTE   W24
//  #06 //090   ----------------------------------------
 BYTE   N30  Gn3
 BYTE   N28  Bn3  v076
 BYTE   W48
 BYTE   N30  Bn2  v064
 BYTE   N32  En3  v076
 BYTE   W48
//  #06 //091   ----------------------------------------
 BYTE   W96
//  #06 //092   ----------------------------------------
 BYTE   PATT
  POIN2 Label_0153FFDE
//  #06 //093   ----------------------------------------
 BYTE   W96
//  #06 //094   ----------------------------------------
 BYTE   N24  Fn3  v076
 BYTE   N24  Bn3  v080
 BYTE   W48
 BYTE   N30  Cs3  v076
 BYTE   N30  Fn3
 BYTE   W48
//  #06 //095   ----------------------------------------
 BYTE   N24  Fs3
 BYTE   N24  Bn3  v080
 BYTE   W48
 BYTE   N30  Dn3  v076
 BYTE   N30  Fs3
 BYTE   W48
//  #06 //096   ----------------------------------------
 BYTE   N24  Gn3
 BYTE   N24  Bn3  v080
 BYTE   W48
 BYTE   En3  v076
 BYTE   N24  Gn3  v080
 BYTE   W48
//  #06 //097   ----------------------------------------
 BYTE   Gs3  v076
 BYTE   N24  Cs4  v080
 BYTE   W48
 BYTE   Fn3  v076
 BYTE   N24  Gs3
 BYTE   W48
//  #06 //098   ----------------------------------------
 BYTE   N03  Fs3  v080
 BYTE   N03  Bn3
 BYTE   W08
 BYTE   Fs3
 BYTE   N03  Bn3
 BYTE   W08
 BYTE   Fs3
 BYTE   N03  Bn3
 BYTE   W08
 BYTE   Fs3
 BYTE   N03  Bn3
 BYTE   W48
 BYTE   Fs3
 BYTE   N03  Bn3
 BYTE   W08
 BYTE   Fs3
 BYTE   N03  Bn3
 BYTE   W08
 BYTE   Fs3
 BYTE   N03  Bn3
 BYTE   W08
//  #06 //099   ----------------------------------------
 BYTE   Fs3
 BYTE   N03  Bn3
 BYTE   W96
//  #06 //100   ----------------------------------------
 BYTE   Fs3
 BYTE   N03  As3
 BYTE   W08
 BYTE   Fs3
 BYTE   N03  As3
 BYTE   W08
 BYTE   Fs3
 BYTE   N03  As3
 BYTE   W08
 BYTE   Fs3
 BYTE   N03  As3
 BYTE   W48
 BYTE   Fs3
 BYTE   N03  As3
 BYTE   W08
 BYTE   Fs3
 BYTE   N03  As3
 BYTE   W08
 BYTE   Fs3
 BYTE   N03  As3
 BYTE   W08
//  #06 //101   ----------------------------------------
 BYTE   Fs3
 BYTE   N03  As3
 BYTE   W96
//  #06 //102   ----------------------------------------
 BYTE   GoTo
  POIN2 Label_0153FEBA
 BYTE   FINE

//**************** Track 8 (Midi-Chn.7) ****************//

TheirOwnBrandOfJustice_008:
//  #08 //000   ----------------------------------------
 BYTE   VOL   53*TheirOwnBrandOfJustice_mvl/mxv
 BYTE   KEYSH   TheirOwnBrandOfJustice_key+0
Label_016D4B84:
 BYTE   VOICE   18
 BYTE   W96
//  #08 //001   ----------------------------------------
 BYTE   W96
//  #08 //002   ----------------------------------------
 BYTE   W96
//  #08 //003   ----------------------------------------
 BYTE   W96
//  #08 //004   ----------------------------------------
 BYTE   W96
//  #08 //005   ----------------------------------------
 BYTE   W96
//  #08 //006   ----------------------------------------
 BYTE   W96
//  #08 //007   ----------------------------------------
 BYTE   W96
//  #08 //008   ----------------------------------------
 BYTE   W96
//  #08 //009   ----------------------------------------
 BYTE   W96
//  #08 //010   ----------------------------------------
 BYTE   W96
//  #08 //011   ----------------------------------------
 BYTE   W96
//  #08 //012   ----------------------------------------
 BYTE   W96
//  #08 //013   ----------------------------------------
 BYTE   W96
//  #08 //014   ----------------------------------------
 BYTE   W96
//  #08 //015   ----------------------------------------
 BYTE   W96
//  #08 //016   ----------------------------------------
 BYTE   W96
//  #08 //017   ----------------------------------------
 BYTE   W96
//  #08 //018   ----------------------------------------
 BYTE   W96
//  #08 //019   ----------------------------------------
 BYTE   W96
//  #08 //020   ----------------------------------------
 BYTE   W96
//  #08 //021   ----------------------------------------
 BYTE   W96
//  #08 //022   ----------------------------------------
 BYTE   W96
//  #08 //023   ----------------------------------------
 BYTE   W96
//  #08 //024   ----------------------------------------
 BYTE   W96
//  #08 //025   ----------------------------------------
 BYTE   W96
//  #08 //026   ----------------------------------------
 BYTE   W96
//  #08 //027   ----------------------------------------
 BYTE   W96
//  #08 //028   ----------------------------------------
 BYTE   W96
//  #08 //029   ----------------------------------------
 BYTE   W96
//  #08 //030   ----------------------------------------
 BYTE   W96
//  #08 //031   ----------------------------------------
 BYTE   W96
//  #08 //032   ----------------------------------------
 BYTE   W96
//  #08 //033   ----------------------------------------
 BYTE   W96
//  #08 //034   ----------------------------------------
 BYTE   W96
//  #08 //035   ----------------------------------------
 BYTE   W96
//  #08 //036   ----------------------------------------
 BYTE   W96
//  #08 //037   ----------------------------------------
 BYTE   W96
//  #08 //038   ----------------------------------------
 BYTE   W96
//  #08 //039   ----------------------------------------
 BYTE   W96
//  #08 //040   ----------------------------------------
 BYTE   W96
//  #08 //041   ----------------------------------------
 BYTE   W96
//  #08 //042   ----------------------------------------
 BYTE   W96
//  #08 //043   ----------------------------------------
 BYTE   W96
//  #08 //044   ----------------------------------------
 BYTE   W96
//  #08 //045   ----------------------------------------
 BYTE   W96
//  #08 //046   ----------------------------------------
 BYTE   W96
//  #08 //047   ----------------------------------------
 BYTE   W96
//  #08 //048   ----------------------------------------
 BYTE   W96
//  #08 //049   ----------------------------------------
 BYTE   W96
//  #08 //050   ----------------------------------------
 BYTE   W96
//  #08 //051   ----------------------------------------
 BYTE   W96
//  #08 //052   ----------------------------------------
 BYTE   W96
//  #08 //053   ----------------------------------------
 BYTE   W96
//  #08 //054   ----------------------------------------
 BYTE   W96
//  #08 //055   ----------------------------------------
 BYTE   W96
//  #08 //056   ----------------------------------------
 BYTE   W96
//  #08 //057   ----------------------------------------
 BYTE   W96
//  #08 //058   ----------------------------------------
 BYTE   W96
//  #08 //059   ----------------------------------------
 BYTE   W96
//  #08 //060   ----------------------------------------
 BYTE   W96
//  #08 //061   ----------------------------------------
 BYTE   W96
//  #08 //062   ----------------------------------------
 BYTE   W96
//  #08 //063   ----------------------------------------
 BYTE   W96
//  #08 //064   ----------------------------------------
 BYTE   W96
//  #08 //065   ----------------------------------------
 BYTE   W96
//  #08 //066   ----------------------------------------
 BYTE   W96
//  #08 //067   ----------------------------------------
 BYTE   W96
//  #08 //068   ----------------------------------------
 BYTE   W96
//  #08 //069   ----------------------------------------
 BYTE   W96
//  #08 //070   ----------------------------------------
 BYTE   W96
//  #08 //071   ----------------------------------------
 BYTE   W96
//  #08 //072   ----------------------------------------
 BYTE   W96
//  #08 //073   ----------------------------------------
 BYTE   W96
//  #08 //074   ----------------------------------------
 BYTE   W96
//  #08 //075   ----------------------------------------
 BYTE   W96
//  #08 //076   ----------------------------------------
 BYTE   W96
//  #08 //077   ----------------------------------------
 BYTE   W96
//  #08 //078   ----------------------------------------
 BYTE   W96
//  #08 //079   ----------------------------------------
 BYTE   W96
//  #08 //080   ----------------------------------------
 BYTE   N92  En1  v068
 BYTE   W96
//  #08 //081   ----------------------------------------
 BYTE   W96
//  #08 //082   ----------------------------------------
 BYTE   Dn1
 BYTE   W96
//  #08 //083   ----------------------------------------
 BYTE   W96
//  #08 //084   ----------------------------------------
 BYTE   Cs1
 BYTE   W96
//  #08 //085   ----------------------------------------
 BYTE   W96
//  #08 //086   ----------------------------------------
 BYTE   Fs1
 BYTE   W96
//  #08 //087   ----------------------------------------
 BYTE   N92
 BYTE   W96
//  #08 //088   ----------------------------------------
 BYTE   N92
 BYTE   W96
//  #08 //089   ----------------------------------------
 BYTE   N92
 BYTE   W96
//  #08 //090   ----------------------------------------
 BYTE   W96
//  #08 //091   ----------------------------------------
 BYTE   W96
//  #08 //092   ----------------------------------------
 BYTE   W96
//  #08 //093   ----------------------------------------
 BYTE   W96
//  #08 //094   ----------------------------------------
 BYTE   W96
//  #08 //095   ----------------------------------------
 BYTE   W96
//  #08 //096   ----------------------------------------
 BYTE   W96
//  #08 //097   ----------------------------------------
 BYTE   W96
//  #08 //098   ----------------------------------------
 BYTE   W96
//  #08 //099   ----------------------------------------
 BYTE   W96
//  #08 //100   ----------------------------------------
 BYTE   W96
//  #08 //101   ----------------------------------------
 BYTE   W96
//  #08 //102   ----------------------------------------
 BYTE   GoTo
  POIN2 Label_016D4B84
 BYTE   FINE

//**************** Track 9 (Midi-Chn.8) ****************//

TheirOwnBrandOfJustice_009:
//  #09 //000   ----------------------------------------
 BYTE   KEYSH   TheirOwnBrandOfJustice_key+0
Label_0153F39E:
 BYTE   VOICE   30
 BYTE   VOL   50*TheirOwnBrandOfJustice_mvl/mxv
 BYTE   PAN   c_v+0
 BYTE   N07  Dn4  v076
 BYTE   W08
 BYTE   An3  v072
 BYTE   W08
 BYTE   Fn3  v068
 BYTE   W08
 BYTE   Dn4
 BYTE   W08
 BYTE   An3
 BYTE   W08
 BYTE   Fn3
 BYTE   W08
 BYTE   N07  Dn4
 BYTE   W08
 BYTE   An3  v064
 BYTE   W08
 BYTE   Fn3
 BYTE   W08
 BYTE   Dn4
 BYTE   W08
 BYTE   An3  v060
 BYTE   W08
 BYTE   Fn3
 BYTE   W08
//  #09 //001   ----------------------------------------
 BYTE   Dn4
 BYTE   W08
 BYTE   As3
 BYTE   W08
 BYTE   Fn3
 BYTE   W08
 BYTE   Dn4
 BYTE   W08
 BYTE   As3
 BYTE   W08
 BYTE   Fn3  v056
 BYTE   W08
 BYTE   Dn4
 BYTE   W08
 BYTE   As3
 BYTE   W08
 BYTE   Fn3
 BYTE   W08
 BYTE   Dn4
 BYTE   W08
 BYTE   As3
 BYTE   W08
 BYTE   Fn3
 BYTE   W08
//  #09 //002   ----------------------------------------
 BYTE   Cn4
 BYTE   W08
 BYTE   Gn3
 BYTE   W08
 BYTE   En3
 BYTE   W08
 BYTE   Cn4
 BYTE   W08
 BYTE   Gn3
 BYTE   W08
 BYTE   En3
 BYTE   W08
 BYTE   Cn4
 BYTE   W08
 BYTE   Gn3
 BYTE   W08
 BYTE   En3
 BYTE   W08
 BYTE   Cn4
 BYTE   W08
 BYTE   Gn3
 BYTE   W08
 BYTE   En3
 BYTE   W08
//  #09 //003   ----------------------------------------
 BYTE   Cn4
 BYTE   W08
 BYTE   An3
 BYTE   W08
 BYTE   En3
 BYTE   W08
 BYTE   Cn4
 BYTE   W08
 BYTE   An3
 BYTE   W08
 BYTE   En3
 BYTE   W08
 BYTE   Cn4
 BYTE   W08
 BYTE   An3
 BYTE   W08
 BYTE   En3
 BYTE   W08
 BYTE   Cn4
 BYTE   W08
 BYTE   An3
 BYTE   W08
 BYTE   En3
 BYTE   W08
//  #09 //004   ----------------------------------------
 BYTE   Dn4  v076
 BYTE   W08
 BYTE   As3  v072
 BYTE   W08
 BYTE   Fn3  v068
 BYTE   W08
 BYTE   Dn4
 BYTE   W08
 BYTE   As3
 BYTE   W08
 BYTE   Fn3
 BYTE   W08
 BYTE   N07  Dn4
 BYTE   W08
 BYTE   As3  v064
 BYTE   W08
 BYTE   Fn3
 BYTE   W08
 BYTE   Dn4
 BYTE   W08
 BYTE   As3  v060
 BYTE   W08
 BYTE   Fn3
 BYTE   W08
//  #09 //005   ----------------------------------------
 BYTE   Dn4
 BYTE   W08
 BYTE   As3
 BYTE   W08
 BYTE   Gn3
 BYTE   W08
 BYTE   Dn4
 BYTE   W08
 BYTE   As3
 BYTE   W08
 BYTE   Gn3  v056
 BYTE   W08
 BYTE   Dn4
 BYTE   W08
 BYTE   As3
 BYTE   W08
 BYTE   Gn3
 BYTE   W08
 BYTE   Dn4
 BYTE   W08
 BYTE   As3
 BYTE   W08
 BYTE   Gn3
 BYTE   W08
//  #09 //006   ----------------------------------------
Label_0153F443:
 BYTE   N07  Dn4  v056
 BYTE   W08
 BYTE   An3
 BYTE   W08
 BYTE   En3
 BYTE   W08
 BYTE   Dn4
 BYTE   W08
 BYTE   An3
 BYTE   W08
 BYTE   En3
 BYTE   W08
 BYTE   Dn4
 BYTE   W08
 BYTE   An3
 BYTE   W08
 BYTE   En3
 BYTE   W08
 BYTE   Dn4
 BYTE   W08
 BYTE   An3
 BYTE   W08
 BYTE   En3
 BYTE   W08
 BYTE   PEND 
//  #09 //007   ----------------------------------------
 BYTE   PATT
  POIN2 Label_0153F443
//  #09 //008   ----------------------------------------
 BYTE   N07  Cs4  v056
 BYTE   W08
 BYTE   An3
 BYTE   W08
 BYTE   En3
 BYTE   W08
 BYTE   Cs4
 BYTE   W08
 BYTE   An3
 BYTE   W08
 BYTE   En3
 BYTE   W08
 BYTE   Cs4
 BYTE   W08
 BYTE   An3
 BYTE   W08
 BYTE   En3
 BYTE   W08
 BYTE   Cs4
 BYTE   W08
 BYTE   An3
 BYTE   W08
 BYTE   En3
 BYTE   W08
//  #09 //009   ----------------------------------------
 BYTE   Cs4
 BYTE   W08
 BYTE   An3
 BYTE   W08
 BYTE   En3
 BYTE   W08
 BYTE   Cs4
 BYTE   W08
 BYTE   An3
 BYTE   W08
 BYTE   En3
 BYTE   W08
 BYTE   Cs4  v020
 BYTE   W08
 BYTE   An3
 BYTE   W08
 BYTE   En3
 BYTE   W08
 BYTE   Cs4
 BYTE   W08
 BYTE   An3
 BYTE   W08
 BYTE   En3
 BYTE   W08
//  #09 //010   ----------------------------------------
Label_0153F496:
 BYTE   N08  Dn3  v072
 BYTE   W08
 BYTE   N06  Fn3
 BYTE   W08
 BYTE   N09  An3
 BYTE   W08
 BYTE   TIE  Dn4
 BYTE   W24
 BYTE   W48
 BYTE   PEND 
//  #09 //011   ----------------------------------------
 BYTE   W30
 BYTE   EOT
 BYTE   W10
 BYTE   N08  An3
 BYTE   W04
 BYTE   N07  Dn4
 BYTE   W04
 BYTE   N20  Fn4
 BYTE   W18
 BYTE   N14  En4
 BYTE   W13
 BYTE   N10  Dn4
 BYTE   W17
//  #09 //012   ----------------------------------------
Label_0153F4B7:
 BYTE   N80  Dn4  v072
 BYTE   W84
 BYTE   N05  Cn4
 BYTE   W04
 BYTE   N07  Dn4
 BYTE   W08
 BYTE   PEND 
//  #09 //013   ----------------------------------------
Label_0153F4C2:
 BYTE   N80  Cn4  v072
 BYTE   W80
 BYTE   N03  Gn3  v036
 BYTE   W04
 BYTE   Dn3  v032
 BYTE   W12
 BYTE   PEND 
//  #09 //014   ----------------------------------------
Label_0153F4CE:
 BYTE   N09  As2  v072
 BYTE   W08
 BYTE   N05  Dn3
 BYTE   W08
 BYTE   N10  Fn3
 BYTE   W08
 BYTE   TIE  As3
 BYTE   W72
 BYTE   PEND 
//  #09 //015   ----------------------------------------
 BYTE   W28
 BYTE   EOT
 BYTE   W09
 BYTE   N08  Fn3
 BYTE   W06
 BYTE   As3
 BYTE   W06
 BYTE   N18  Dn4
 BYTE   W17
 BYTE   N16  Cn4
 BYTE   W14
 BYTE   N11  As3
 BYTE   W16
//  #09 //016   ----------------------------------------
Label_0153F4ED:
 BYTE   N80  As3  v072
 BYTE   W80
 BYTE   W02
 BYTE   N05  An3
 BYTE   W06
 BYTE   N08  As3
 BYTE   W06
 BYTE   N78  An3
 BYTE   W02
 BYTE   PEND 
//  #09 //017   ----------------------------------------
Label_0153F4FC:
 BYTE   W80
 BYTE   N03  Fs3  v036
 BYTE   W04
 BYTE   Dn3
 BYTE   W12
 BYTE   PEND 
//  #09 //018   ----------------------------------------
Label_0153F504:
 BYTE   N10  An2  v072
 BYTE   W08
 BYTE   N07  Cn3
 BYTE   W08
 BYTE   N09  Fs3
 BYTE   W08
 BYTE   TIE  An3
 BYTE   W72
 BYTE   PEND 
//  #09 //019   ----------------------------------------
 BYTE   W24
 BYTE   W01
 BYTE   EOT
 BYTE   W10
 BYTE   N05  Fs3
 BYTE   W06
 BYTE   N07  An3
 BYTE   W07
 BYTE   N17  Ds4
 BYTE   W17
 BYTE   Dn4
 BYTE   W15
 BYTE   N12  Cn4
 BYTE   W16
//  #09 //020   ----------------------------------------
Label_0153F524:
 BYTE   N88  Cn4  v072
 BYTE   W84
 BYTE   W02
 BYTE   N05  As3
 BYTE   W06
 BYTE   N10  An3
 BYTE   W04
 BYTE   PEND 
//  #09 //021   ----------------------------------------
Label_0153F530:
 BYTE   W03
 BYTE   N72  As3  v072
 BYTE   W76
 BYTE   W01
 BYTE   N03  Gn3  v036
 BYTE   W04
 BYTE   Dn3
 BYTE   W08
 BYTE   Fs3  v060
 BYTE   W04
 BYTE   PEND 
//  #09 //022   ----------------------------------------
Label_0153F540:
 BYTE   N11  Gs3  v072
 BYTE   W08
 BYTE   N06  Bn3
 BYTE   W08
 BYTE   N08  Dn4
 BYTE   W08
 BYTE   TIE  Fn4
 BYTE   W72
 BYTE   PEND 
//  #09 //023   ----------------------------------------
 BYTE   W30
 BYTE   W01
 BYTE   EOT
 BYTE   W04
 BYTE   N08  Dn4
 BYTE   W04
 BYTE   En4
 BYTE   W06
 BYTE   N21  Fn4
 BYTE   W19
 BYTE   N18  En4
 BYTE   W17
 BYTE   N14  Dn4
 BYTE   W15
//  #09 //024   ----------------------------------------
 BYTE   TIE  An4
 BYTE   W96
//  #09 //025   ----------------------------------------
 BYTE   W78
 BYTE   EOT
 BYTE   W18
//  #09 //026   ----------------------------------------
 BYTE   PATT
  POIN2 Label_0153F496
//  #09 //027   ----------------------------------------
 BYTE   W30
 BYTE   EOT
 BYTE   Dn4
 BYTE   W10
 BYTE   N08  An3  v072
 BYTE   W04
 BYTE   N07  Dn4
 BYTE   W04
 BYTE   N20  Fn4
 BYTE   W18
 BYTE   N14  En4
 BYTE   W13
 BYTE   N10  Dn4
 BYTE   W17
//  #09 //028   ----------------------------------------
 BYTE   PATT
  POIN2 Label_0153F4B7
//  #09 //029   ----------------------------------------
 BYTE   PATT
  POIN2 Label_0153F4C2
//  #09 //030   ----------------------------------------
 BYTE   PATT
  POIN2 Label_0153F4CE
//  #09 //031   ----------------------------------------
 BYTE   W28
 BYTE   EOT
 BYTE   As3
 BYTE   W09
 BYTE   N08  Fn3  v072
 BYTE   W06
 BYTE   As3
 BYTE   W06
 BYTE   N18  Dn4
 BYTE   W17
 BYTE   N16  Cn4
 BYTE   W14
 BYTE   N11  As3
 BYTE   W16
//  #09 //032   ----------------------------------------
 BYTE   PATT
  POIN2 Label_0153F4ED
//  #09 //033   ----------------------------------------
 BYTE   PATT
  POIN2 Label_0153F4FC
//  #09 //034   ----------------------------------------
 BYTE   PATT
  POIN2 Label_0153F504
//  #09 //035   ----------------------------------------
 BYTE   W24
 BYTE   W01
 BYTE   EOT
 BYTE   An3
 BYTE   W10
 BYTE   N05  Fs3  v072
 BYTE   W06
 BYTE   N07  An3
 BYTE   W07
 BYTE   N17  Ds4
 BYTE   W17
 BYTE   Dn4
 BYTE   W15
 BYTE   N12  Cn4
 BYTE   W16
//  #09 //036   ----------------------------------------
 BYTE   PATT
  POIN2 Label_0153F524
//  #09 //037   ----------------------------------------
 BYTE   PATT
  POIN2 Label_0153F530
//  #09 //038   ----------------------------------------
 BYTE   PATT
  POIN2 Label_0153F540
//  #09 //039   ----------------------------------------
 BYTE   W30
 BYTE   W01
 BYTE   EOT
 BYTE   Fn4
 BYTE   W04
 BYTE   N08  Dn4  v072
 BYTE   W04
 BYTE   En4
 BYTE   W06
 BYTE   N21  Fn4
 BYTE   W19
 BYTE   N18  En4
 BYTE   W17
 BYTE   N14  Dn4
 BYTE   W15
//  #09 //040   ----------------------------------------
 BYTE   TIE  An4
 BYTE   W96
//  #09 //041   ----------------------------------------
 BYTE   W78
 BYTE   EOT
 BYTE   W18
//  #09 //042   ----------------------------------------
 BYTE   W96
//  #09 //043   ----------------------------------------
 BYTE   W96
//  #09 //044   ----------------------------------------
 BYTE   W96
//  #09 //045   ----------------------------------------
 BYTE   W96
//  #09 //046   ----------------------------------------
 BYTE   W96
//  #09 //047   ----------------------------------------
 BYTE   W96
//  #09 //048   ----------------------------------------
 BYTE   W96
//  #09 //049   ----------------------------------------
 BYTE   W96
//  #09 //050   ----------------------------------------
 BYTE   N07  An4  v088
 BYTE   W08
 BYTE   As4
 BYTE   W08
 BYTE   An4
 BYTE   W08
 BYTE   Gn4
 BYTE   W08
 BYTE   Fn4
 BYTE   W08
 BYTE   En4
 BYTE   W08
 BYTE   Fn4
 BYTE   W08
 BYTE   Gn4
 BYTE   W08
 BYTE   Fn4
 BYTE   W08
 BYTE   En4
 BYTE   W08
 BYTE   Dn4
 BYTE   W08
 BYTE   Cn4
 BYTE   W08
//  #09 //051   ----------------------------------------
Label_0153F60F:
 BYTE   N07  As3  v088
 BYTE   W08
 BYTE   Gn3
 BYTE   W08
 BYTE   Fn3
 BYTE   W08
 BYTE   Gn3
 BYTE   W08
 BYTE   Fn3
 BYTE   W08
 BYTE   En3
 BYTE   W08
 BYTE   Fn3
 BYTE   W08
 BYTE   An3
 BYTE   W08
 BYTE   Cn4
 BYTE   W08
 BYTE   Fn3
 BYTE   W08
 BYTE   An3
 BYTE   W08
 BYTE   Cn4
 BYTE   W08
 BYTE   PEND 
//  #09 //052   ----------------------------------------
Label_0153F62A:
 BYTE   N07  En4  v088
 BYTE   W08
 BYTE   Fn4
 BYTE   W08
 BYTE   En4
 BYTE   W08
 BYTE   Dn4
 BYTE   W08
 BYTE   Cn4
 BYTE   W08
 BYTE   Bn3
 BYTE   W08
 BYTE   Cn4
 BYTE   W08
 BYTE   Dn4
 BYTE   W08
 BYTE   Cn4
 BYTE   W08
 BYTE   Bn3
 BYTE   W08
 BYTE   An3
 BYTE   W08
 BYTE   Gn3
 BYTE   W08
 BYTE   PEND 
//  #09 //053   ----------------------------------------
Label_0153F645:
 BYTE   N07  Fn3  v088
 BYTE   W08
 BYTE   En3
 BYTE   W08
 BYTE   Dn3
 BYTE   W08
 BYTE   N07
 BYTE   W08
 BYTE   Cn3
 BYTE   W08
 BYTE   Bn2
 BYTE   W08
 BYTE   Cn3
 BYTE   W08
 BYTE   En3
 BYTE   W08
 BYTE   Gn3
 BYTE   W08
 BYTE   Cn3
 BYTE   W08
 BYTE   En3
 BYTE   W08
 BYTE   Gn3
 BYTE   W08
 BYTE   PEND 
//  #09 //054   ----------------------------------------
Label_0153F660:
 BYTE   N07  An3  v088
 BYTE   W08
 BYTE   As3
 BYTE   W08
 BYTE   An3
 BYTE   W08
 BYTE   Gn3
 BYTE   W08
 BYTE   Fn3
 BYTE   W08
 BYTE   En3
 BYTE   W08
 BYTE   An3
 BYTE   W08
 BYTE   As3
 BYTE   W08
 BYTE   An3
 BYTE   W08
 BYTE   Gn3
 BYTE   W08
 BYTE   Fn3
 BYTE   W08
 BYTE   En3
 BYTE   W08
 BYTE   PEND 
//  #09 //055   ----------------------------------------
 BYTE   PATT
  POIN2 Label_0153F660
//  #09 //056   ----------------------------------------
 BYTE   PATT
  POIN2 Label_0153F660
//  #09 //057   ----------------------------------------
 BYTE   PATT
  POIN2 Label_0153F660
//  #09 //058   ----------------------------------------
 BYTE   N07  An4  v088
 BYTE   W08
 BYTE   As4
 BYTE   W08
 BYTE   An4
 BYTE   W08
 BYTE   Gn4
 BYTE   W08
 BYTE   Fn4
 BYTE   W08
 BYTE   En4
 BYTE   W08
 BYTE   Fn4
 BYTE   W08
 BYTE   Gn4
 BYTE   W08
 BYTE   Fn4
 BYTE   W08
 BYTE   En4
 BYTE   W08
 BYTE   Dn4
 BYTE   W08
 BYTE   Cn4
 BYTE   W08
//  #09 //059   ----------------------------------------
 BYTE   PATT
  POIN2 Label_0153F60F
//  #09 //060   ----------------------------------------
 BYTE   PATT
  POIN2 Label_0153F62A
//  #09 //061   ----------------------------------------
 BYTE   PATT
  POIN2 Label_0153F645
//  #09 //062   ----------------------------------------
 BYTE   PATT
  POIN2 Label_0153F660
//  #09 //063   ----------------------------------------
 BYTE   PATT
  POIN2 Label_0153F660
//  #09 //064   ----------------------------------------
 BYTE   PATT
  POIN2 Label_0153F660
//  #09 //065   ----------------------------------------
 BYTE   N07  An3  v088
 BYTE   W08
 BYTE   As3
 BYTE   W08
 BYTE   An3
 BYTE   W08
 BYTE   Gn3
 BYTE   W08
 BYTE   Fn3
 BYTE   W08
 BYTE   En3
 BYTE   W08
 BYTE   Cs3
 BYTE   W08
 BYTE   Dn3
 BYTE   W08
 BYTE   Cs3
 BYTE   W08
 BYTE   As2
 BYTE   W08
 BYTE   An2
 BYTE   W08
 BYTE   Gn2
 BYTE   W08
//  #09 //066   ----------------------------------------
 BYTE   N07  An3  v052
 BYTE   W08
 BYTE   Fn3
 BYTE   W08
 BYTE   Dn3
 BYTE   W08
 BYTE   An3
 BYTE   W08
 BYTE   Fn3
 BYTE   W08
 BYTE   Dn3
 BYTE   W08
 BYTE   An3
 BYTE   W08
 BYTE   Fn3
 BYTE   W08
 BYTE   Dn3
 BYTE   W08
 BYTE   An3
 BYTE   W08
 BYTE   Fn3
 BYTE   W08
 BYTE   Dn3
 BYTE   W08
//  #09 //067   ----------------------------------------
 BYTE   As3
 BYTE   W08
 BYTE   Gn3
 BYTE   W08
 BYTE   Dn3
 BYTE   W08
 BYTE   As3
 BYTE   W08
 BYTE   Gn3
 BYTE   W08
 BYTE   Dn3
 BYTE   W08
 BYTE   As3
 BYTE   W08
 BYTE   Gn3
 BYTE   W08
 BYTE   Dn3
 BYTE   W08
 BYTE   As3
 BYTE   W08
 BYTE   Gn3
 BYTE   W08
 BYTE   Dn3
 BYTE   W08
//  #09 //068   ----------------------------------------
Label_0153F70E:
 BYTE   N07  An3  v052
 BYTE   W08
 BYTE   En3
 BYTE   W08
 BYTE   Cs3
 BYTE   W08
 BYTE   An3
 BYTE   W08
 BYTE   En3
 BYTE   W08
 BYTE   Cs3
 BYTE   W08
 BYTE   An3
 BYTE   W08
 BYTE   En3
 BYTE   W08
 BYTE   Cs3
 BYTE   W08
 BYTE   An3
 BYTE   W08
 BYTE   En3
 BYTE   W08
 BYTE   Cs3
 BYTE   W08
 BYTE   PEND 
//  #09 //069   ----------------------------------------
 BYTE   An3
 BYTE   W08
 BYTE   Fs3
 BYTE   W08
 BYTE   Dn3
 BYTE   W08
 BYTE   An3
 BYTE   W08
 BYTE   Fs3
 BYTE   W08
 BYTE   Dn3
 BYTE   W08
 BYTE   An3
 BYTE   W08
 BYTE   Fs3
 BYTE   W08
 BYTE   Dn3
 BYTE   W08
 BYTE   An3
 BYTE   W08
 BYTE   Fs3
 BYTE   W08
 BYTE   Dn3
 BYTE   W08
//  #09 //070   ----------------------------------------
 BYTE   Gn3
 BYTE   W08
 BYTE   Dn3
 BYTE   W08
 BYTE   As2
 BYTE   W08
 BYTE   Gn3
 BYTE   W08
 BYTE   Dn3
 BYTE   W08
 BYTE   As2
 BYTE   W08
 BYTE   Gn3
 BYTE   W08
 BYTE   Dn3
 BYTE   W08
 BYTE   As2
 BYTE   W08
 BYTE   Gn3
 BYTE   W08
 BYTE   Dn3
 BYTE   W08
 BYTE   As2
 BYTE   W08
//  #09 //071   ----------------------------------------
 BYTE   PATT
  POIN2 Label_0153F70E
//  #09 //072   ----------------------------------------
 BYTE   N07  Fn3  v064
 BYTE   W08
 BYTE   Dn3
 BYTE   W08
 BYTE   An2
 BYTE   W08
 BYTE   Fn3
 BYTE   W08
 BYTE   Dn3
 BYTE   W08
 BYTE   An2
 BYTE   W08
 BYTE   Fn3
 BYTE   W08
 BYTE   Dn3
 BYTE   W08
 BYTE   An2
 BYTE   W08
 BYTE   Fn3
 BYTE   W08
 BYTE   Dn3
 BYTE   W08
 BYTE   An2
 BYTE   W08
//  #09 //073   ----------------------------------------
 BYTE   Fs3
 BYTE   W08
 BYTE   Ds3
 BYTE   W08
 BYTE   Bn2
 BYTE   W08
 BYTE   Fs3
 BYTE   W08
 BYTE   Ds3
 BYTE   W08
 BYTE   Bn2
 BYTE   W08
 BYTE   Fs3
 BYTE   W08
 BYTE   Ds3
 BYTE   W08
 BYTE   Bn2
 BYTE   W08
 BYTE   Fs3
 BYTE   W08
 BYTE   Ds3
 BYTE   W08
 BYTE   Bn2
 BYTE   W08
//  #09 //074   ----------------------------------------
 BYTE   Gn3
 BYTE   W08
 BYTE   Dn3
 BYTE   W08
 BYTE   Bn2
 BYTE   W08
 BYTE   Gn3
 BYTE   W08
 BYTE   Dn3
 BYTE   W08
 BYTE   Bn2
 BYTE   W08
 BYTE   Gn3
 BYTE   W08
 BYTE   Dn3
 BYTE   W08
 BYTE   Bn2
 BYTE   W08
 BYTE   Gn3
 BYTE   W08
 BYTE   Dn3
 BYTE   W08
 BYTE   Bn2
 BYTE   W08
//  #09 //075   ----------------------------------------
 BYTE   Gs3
 BYTE   W08
 BYTE   En3
 BYTE   W08
 BYTE   Bn2
 BYTE   W08
 BYTE   Gs3
 BYTE   W08
 BYTE   En3
 BYTE   W08
 BYTE   Bn2
 BYTE   W08
 BYTE   Gs3
 BYTE   W08
 BYTE   En3
 BYTE   W08
 BYTE   Bn2
 BYTE   W08
 BYTE   Gs3
 BYTE   W08
 BYTE   En3
 BYTE   W08
 BYTE   Bn2
 BYTE   W08
//  #09 //076   ----------------------------------------
 BYTE   An3
 BYTE   W08
 BYTE   En3
 BYTE   W08
 BYTE   Cn3
 BYTE   W08
 BYTE   An3
 BYTE   W08
 BYTE   En3
 BYTE   W08
 BYTE   Cn3
 BYTE   W08
 BYTE   An3
 BYTE   W08
 BYTE   En3
 BYTE   W08
 BYTE   Cn3
 BYTE   W08
 BYTE   An3
 BYTE   W08
 BYTE   En3
 BYTE   W08
 BYTE   Cn3
 BYTE   W08
//  #09 //077   ----------------------------------------
 BYTE   As3
 BYTE   W08
 BYTE   Fs3
 BYTE   W08
 BYTE   Cs3
 BYTE   W08
 BYTE   As3
 BYTE   W08
 BYTE   Fs3
 BYTE   W08
 BYTE   Cs3
 BYTE   W08
 BYTE   As3
 BYTE   W08
 BYTE   Fs3
 BYTE   W08
 BYTE   Cs3
 BYTE   W08
 BYTE   As3
 BYTE   W08
 BYTE   Fs3
 BYTE   W08
 BYTE   Cs3
 BYTE   W08
//  #09 //078   ----------------------------------------
 BYTE   Bn3
 BYTE   W08
 BYTE   Fs3
 BYTE   W08
 BYTE   Dn3
 BYTE   W08
 BYTE   Bn3
 BYTE   W08
 BYTE   Fs3
 BYTE   W08
 BYTE   Dn3
 BYTE   W08
 BYTE   Bn3
 BYTE   W08
 BYTE   Gn3
 BYTE   W08
 BYTE   En3
 BYTE   W08
 BYTE   Bn3
 BYTE   W08
 BYTE   Gn3
 BYTE   W08
 BYTE   En3
 BYTE   W08
//  #09 //079   ----------------------------------------
 BYTE   Bn3
 BYTE   W08
 BYTE   Fs3
 BYTE   W08
 BYTE   Dn3
 BYTE   W08
 BYTE   Bn3
 BYTE   W08
 BYTE   Fs3
 BYTE   W08
 BYTE   Dn3
 BYTE   W08
 BYTE   As3
 BYTE   W08
 BYTE   Fs3
 BYTE   W08
 BYTE   Cs3
 BYTE   W08
 BYTE   As3
 BYTE   W08
 BYTE   Fs3
 BYTE   W08
 BYTE   Cs3
 BYTE   W08
//  #09 //080   ----------------------------------------
 BYTE   W96
//  #09 //081   ----------------------------------------
 BYTE   W96
//  #09 //082   ----------------------------------------
 BYTE   W96
//  #09 //083   ----------------------------------------
 BYTE   W96
//  #09 //084   ----------------------------------------
 BYTE   W96
//  #09 //085   ----------------------------------------
 BYTE   W96
//  #09 //086   ----------------------------------------
 BYTE   W96
//  #09 //087   ----------------------------------------
 BYTE   W96
//  #09 //088   ----------------------------------------
 BYTE   W96
//  #09 //089   ----------------------------------------
 BYTE   W96
//  #09 //090   ----------------------------------------
 BYTE   W96
//  #09 //091   ----------------------------------------
 BYTE   W96
//  #09 //092   ----------------------------------------
 BYTE   W96
//  #09 //093   ----------------------------------------
 BYTE   W96
//  #09 //094   ----------------------------------------
 BYTE   W96
//  #09 //095   ----------------------------------------
 BYTE   W96
//  #09 //096   ----------------------------------------
 BYTE   W96
//  #09 //097   ----------------------------------------
 BYTE   W96
//  #09 //098   ----------------------------------------
 BYTE   W96
//  #09 //099   ----------------------------------------
 BYTE   W96
//  #09 //100   ----------------------------------------
 BYTE   W96
//  #09 //101   ----------------------------------------
 BYTE   W96
//  #09 //102   ----------------------------------------
 BYTE   GoTo
  POIN2 Label_0153F39E
 BYTE   FINE

//**************** Track 10 (Midi-Chn.9) ****************//

TheirOwnBrandOfJustice_010:
//  #10 //000   ----------------------------------------
 BYTE   KEYSH   TheirOwnBrandOfJustice_key+0
Label_015418DE:
 BYTE   VOICE   30
 BYTE   VOL   55*TheirOwnBrandOfJustice_mvl/mxv
 BYTE   PAN   c_v+62
 BYTE   W96
//  #10 //001   ----------------------------------------
 BYTE   W96
//  #10 //002   ----------------------------------------
 BYTE   W96
//  #10 //003   ----------------------------------------
 BYTE   W96
//  #10 //004   ----------------------------------------
 BYTE   W96
//  #10 //005   ----------------------------------------
 BYTE   W96
//  #10 //006   ----------------------------------------
 BYTE   W96
//  #10 //007   ----------------------------------------
 BYTE   W96
//  #10 //008   ----------------------------------------
 BYTE   W96
//  #10 //009   ----------------------------------------
 BYTE   W96
//  #10 //010   ----------------------------------------
 BYTE   W96
//  #10 //011   ----------------------------------------
 BYTE   W96
//  #10 //012   ----------------------------------------
 BYTE   W96
//  #10 //013   ----------------------------------------
 BYTE   W96
//  #10 //014   ----------------------------------------
 BYTE   W96
//  #10 //015   ----------------------------------------
 BYTE   W96
//  #10 //016   ----------------------------------------
 BYTE   W96
//  #10 //017   ----------------------------------------
 BYTE   W96
//  #10 //018   ----------------------------------------
 BYTE   W96
//  #10 //019   ----------------------------------------
 BYTE   W96
//  #10 //020   ----------------------------------------
 BYTE   W96
//  #10 //021   ----------------------------------------
 BYTE   W96
//  #10 //022   ----------------------------------------
 BYTE   W96
//  #10 //023   ----------------------------------------
 BYTE   W96
//  #10 //024   ----------------------------------------
 BYTE   W96
//  #10 //025   ----------------------------------------
 BYTE   W96
//  #10 //026   ----------------------------------------
 BYTE   W96
//  #10 //027   ----------------------------------------
 BYTE   W96
//  #10 //028   ----------------------------------------
 BYTE   W96
//  #10 //029   ----------------------------------------
 BYTE   W96
//  #10 //030   ----------------------------------------
 BYTE   W96
//  #10 //031   ----------------------------------------
 BYTE   W96
//  #10 //032   ----------------------------------------
 BYTE   W96
//  #10 //033   ----------------------------------------
 BYTE   W96
//  #10 //034   ----------------------------------------
 BYTE   W96
//  #10 //035   ----------------------------------------
 BYTE   W96
//  #10 //036   ----------------------------------------
 BYTE   W96
//  #10 //037   ----------------------------------------
 BYTE   W96
//  #10 //038   ----------------------------------------
 BYTE   W96
//  #10 //039   ----------------------------------------
 BYTE   W96
//  #10 //040   ----------------------------------------
 BYTE   W96
//  #10 //041   ----------------------------------------
 BYTE   W96
//  #10 //042   ----------------------------------------
 BYTE   W96
//  #10 //043   ----------------------------------------
 BYTE   W96
//  #10 //044   ----------------------------------------
 BYTE   W96
//  #10 //045   ----------------------------------------
 BYTE   W96
//  #10 //046   ----------------------------------------
 BYTE   W96
//  #10 //047   ----------------------------------------
 BYTE   W96
//  #10 //048   ----------------------------------------
 BYTE   W96
//  #10 //049   ----------------------------------------
 BYTE   W96
//  #10 //050   ----------------------------------------
 BYTE   W96
//  #10 //051   ----------------------------------------
 BYTE   W96
//  #10 //052   ----------------------------------------
 BYTE   W96
//  #10 //053   ----------------------------------------
 BYTE   W96
//  #10 //054   ----------------------------------------
Label_0154191A:
 BYTE   W48
 BYTE   N07  Cs3  v080
 BYTE   W08
 BYTE   Dn3
 BYTE   W08
 BYTE   Cs3
 BYTE   W08
 BYTE   As2
 BYTE   W08
 BYTE   An2
 BYTE   W08
 BYTE   Gn2
 BYTE   W08
 BYTE   PEND 
//  #10 //055   ----------------------------------------
Label_0154192A:
 BYTE   W48
 BYTE   N07  Cs2  v080
 BYTE   W08
 BYTE   Dn2
 BYTE   W08
 BYTE   Cs2
 BYTE   W08
 BYTE   As1
 BYTE   W08
 BYTE   An1
 BYTE   W08
 BYTE   Gn1
 BYTE   W08
 BYTE   PEND 
//  #10 //056   ----------------------------------------
 BYTE   PATT
  POIN2 Label_0154191A
//  #10 //057   ----------------------------------------
 BYTE   PATT
  POIN2 Label_0154192A
//  #10 //058   ----------------------------------------
 BYTE   W96
//  #10 //059   ----------------------------------------
 BYTE   W96
//  #10 //060   ----------------------------------------
 BYTE   W96
//  #10 //061   ----------------------------------------
 BYTE   W96
//  #10 //062   ----------------------------------------
 BYTE   PATT
  POIN2 Label_0154191A
//  #10 //063   ----------------------------------------
 BYTE   PATT
  POIN2 Label_0154192A
//  #10 //064   ----------------------------------------
 BYTE   PATT
  POIN2 Label_0154191A
//  #10 //065   ----------------------------------------
 BYTE   W48
 BYTE   N07  Cs2  v080
 BYTE   N07  Cs3  v064
 BYTE   W08
 BYTE   Dn2  v080
 BYTE   N07  Dn3  v064
 BYTE   W08
 BYTE   Cs2  v080
 BYTE   N07  Cs3  v064
 BYTE   W08
 BYTE   As1  v080
 BYTE   N07  As2  v064
 BYTE   W08
 BYTE   An1  v080
 BYTE   N07  An2  v064
 BYTE   W08
 BYTE   Gn1  v080
 BYTE   N07  Gn2  v064
 BYTE   W08
//  #10 //066   ----------------------------------------
 BYTE   W96
//  #10 //067   ----------------------------------------
 BYTE   W96
//  #10 //068   ----------------------------------------
 BYTE   W96
//  #10 //069   ----------------------------------------
 BYTE   W96
//  #10 //070   ----------------------------------------
 BYTE   W96
//  #10 //071   ----------------------------------------
 BYTE   W96
//  #10 //072   ----------------------------------------
 BYTE   W96
//  #10 //073   ----------------------------------------
 BYTE   W96
//  #10 //074   ----------------------------------------
 BYTE   W96
//  #10 //075   ----------------------------------------
 BYTE   W96
//  #10 //076   ----------------------------------------
 BYTE   W96
//  #10 //077   ----------------------------------------
 BYTE   W96
//  #10 //078   ----------------------------------------
 BYTE   W96
//  #10 //079   ----------------------------------------
 BYTE   W96
//  #10 //080   ----------------------------------------
 BYTE   W96
//  #10 //081   ----------------------------------------
 BYTE   W96
//  #10 //082   ----------------------------------------
 BYTE   W96
//  #10 //083   ----------------------------------------
 BYTE   W96
//  #10 //084   ----------------------------------------
 BYTE   W96
//  #10 //085   ----------------------------------------
 BYTE   W96
//  #10 //086   ----------------------------------------
 BYTE   W96
//  #10 //087   ----------------------------------------
 BYTE   W96
//  #10 //088   ----------------------------------------
 BYTE   W96
//  #10 //089   ----------------------------------------
 BYTE   W96
//  #10 //090   ----------------------------------------
 BYTE   W96
//  #10 //091   ----------------------------------------
 BYTE   W96
//  #10 //092   ----------------------------------------
 BYTE   W96
//  #10 //093   ----------------------------------------
 BYTE   W96
//  #10 //094   ----------------------------------------
 BYTE   W96
//  #10 //095   ----------------------------------------
 BYTE   W96
//  #10 //096   ----------------------------------------
 BYTE   W96
//  #10 //097   ----------------------------------------
 BYTE   W96
//  #10 //098   ----------------------------------------
 BYTE   W96
//  #10 //099   ----------------------------------------
 BYTE   W96
//  #10 //100   ----------------------------------------
 BYTE   W96
//  #10 //101   ----------------------------------------
 BYTE   W96
//  #10 //102   ----------------------------------------
 BYTE   GoTo
  POIN2 Label_015418DE
 BYTE   FINE

//**************** Track 11 (Midi-Chn.10) ****************//

TheirOwnBrandOfJustice_011:
//  #11 //000   ----------------------------------------
 BYTE   KEYSH   TheirOwnBrandOfJustice_key+0
Label_0154018A:
 BYTE   VOICE   30
 BYTE   VOL   44*TheirOwnBrandOfJustice_mvl/mxv
 BYTE   PAN   c_v+0
 BYTE   W09
 BYTE   N07  Dn4  v076
 BYTE   W08
 BYTE   An3  v072
 BYTE   W08
 BYTE   Fn3  v068
 BYTE   W08
 BYTE   Dn4
 BYTE   W08
 BYTE   An3
 BYTE   W08
 BYTE   Fn3
 BYTE   W08
 BYTE   N07  Dn4
 BYTE   W08
 BYTE   An3  v064
 BYTE   W08
 BYTE   Fn3
 BYTE   W08
 BYTE   Dn4
 BYTE   W08
 BYTE   An3  v060
 BYTE   W07
//  #11 //001   ----------------------------------------
 BYTE   W01
 BYTE   Fn3
 BYTE   W08
 BYTE   Dn4
 BYTE   W08
 BYTE   As3
 BYTE   W08
 BYTE   Fn3
 BYTE   W08
 BYTE   Dn4
 BYTE   W08
 BYTE   As3
 BYTE   W08
 BYTE   Fn3  v056
 BYTE   W08
 BYTE   Dn4
 BYTE   W08
 BYTE   As3
 BYTE   W08
 BYTE   Fn3
 BYTE   W08
 BYTE   Dn4
 BYTE   W08
 BYTE   As3
 BYTE   W07
//  #11 //002   ----------------------------------------
 BYTE   W01
 BYTE   Fn3
 BYTE   W08
 BYTE   Cn4
 BYTE   W08
 BYTE   Gn3
 BYTE   W08
 BYTE   En3
 BYTE   W08
 BYTE   Cn4
 BYTE   W08
 BYTE   Gn3
 BYTE   W08
 BYTE   En3
 BYTE   W08
 BYTE   Cn4
 BYTE   W08
 BYTE   Gn3
 BYTE   W08
 BYTE   En3
 BYTE   W08
 BYTE   Cn4
 BYTE   W08
 BYTE   Gn3
 BYTE   W07
//  #11 //003   ----------------------------------------
 BYTE   W01
 BYTE   En3
 BYTE   W08
 BYTE   Cn4
 BYTE   W08
 BYTE   An3
 BYTE   W08
 BYTE   En3
 BYTE   W08
 BYTE   Cn4
 BYTE   W08
 BYTE   An3
 BYTE   W08
 BYTE   En3
 BYTE   W08
 BYTE   Cn4
 BYTE   W08
 BYTE   An3
 BYTE   W08
 BYTE   En3
 BYTE   W08
 BYTE   Cn4
 BYTE   W08
 BYTE   An3
 BYTE   W07
//  #11 //004   ----------------------------------------
 BYTE   W01
 BYTE   En3
 BYTE   W08
 BYTE   Dn4  v076
 BYTE   W08
 BYTE   As3  v072
 BYTE   W08
 BYTE   Fn3  v068
 BYTE   W08
 BYTE   Dn4
 BYTE   W08
 BYTE   As3
 BYTE   W08
 BYTE   Fn3
 BYTE   W08
 BYTE   N07  Dn4
 BYTE   W08
 BYTE   As3  v064
 BYTE   W08
 BYTE   Fn3
 BYTE   W08
 BYTE   Dn4
 BYTE   W08
 BYTE   As3  v060
 BYTE   W07
//  #11 //005   ----------------------------------------
 BYTE   W01
 BYTE   Fn3
 BYTE   W08
 BYTE   Dn4
 BYTE   W08
 BYTE   As3
 BYTE   W08
 BYTE   Gn3
 BYTE   W08
 BYTE   Dn4
 BYTE   W08
 BYTE   As3
 BYTE   W08
 BYTE   Gn3  v056
 BYTE   W08
 BYTE   Dn4
 BYTE   W08
 BYTE   As3
 BYTE   W08
 BYTE   Gn3
 BYTE   W08
 BYTE   Dn4
 BYTE   W08
 BYTE   As3
 BYTE   W07
//  #11 //006   ----------------------------------------
 BYTE   W01
 BYTE   Gn3
 BYTE   W08
 BYTE   Dn4
 BYTE   W08
 BYTE   An3
 BYTE   W08
 BYTE   En3
 BYTE   W08
 BYTE   Dn4
 BYTE   W08
 BYTE   An3
 BYTE   W08
 BYTE   En3
 BYTE   W08
 BYTE   Dn4
 BYTE   W08
 BYTE   An3
 BYTE   W08
 BYTE   En3
 BYTE   W08
 BYTE   Dn4
 BYTE   W08
 BYTE   An3
 BYTE   W07
//  #11 //007   ----------------------------------------
 BYTE   W01
 BYTE   En3
 BYTE   W08
 BYTE   Dn4
 BYTE   W08
 BYTE   An3
 BYTE   W08
 BYTE   En3
 BYTE   W08
 BYTE   Dn4
 BYTE   W08
 BYTE   An3
 BYTE   W08
 BYTE   En3
 BYTE   W08
 BYTE   Dn4
 BYTE   W08
 BYTE   An3
 BYTE   W08
 BYTE   En3
 BYTE   W08
 BYTE   Dn4
 BYTE   W08
 BYTE   An3
 BYTE   W07
//  #11 //008   ----------------------------------------
 BYTE   W01
 BYTE   En3
 BYTE   W08
 BYTE   Cs4
 BYTE   W08
 BYTE   An3
 BYTE   W08
 BYTE   En3
 BYTE   W08
 BYTE   Cs4
 BYTE   W08
 BYTE   An3
 BYTE   W08
 BYTE   En3
 BYTE   W08
 BYTE   Cs4
 BYTE   W08
 BYTE   An3
 BYTE   W08
 BYTE   En3
 BYTE   W08
 BYTE   Cs4
 BYTE   W08
 BYTE   An3
 BYTE   W07
//  #11 //009   ----------------------------------------
 BYTE   W01
 BYTE   En3
 BYTE   W08
 BYTE   Cs4  v024
 BYTE   W08
 BYTE   An3
 BYTE   W08
 BYTE   En3
 BYTE   W08
 BYTE   Cs4
 BYTE   W08
 BYTE   An3
 BYTE   W08
 BYTE   En3
 BYTE   W08
 BYTE   Cs4  v020
 BYTE   W08
 BYTE   An3
 BYTE   W08
 BYTE   En3
 BYTE   W08
 BYTE   Cs4
 BYTE   W08
 BYTE   An3
 BYTE   W07
//  #11 //010   ----------------------------------------
 BYTE   W01
 BYTE   En3
 BYTE   W08
 BYTE   N08  Dn3  v072
 BYTE   W08
 BYTE   N06  Fn3
 BYTE   W08
 BYTE   N09  An3
 BYTE   W08
 BYTE   TIE  Dn4
 BYTE   W24
 BYTE   W36
 BYTE   W03
//  #11 //011   ----------------------------------------
 BYTE   W36
 BYTE   W03
 BYTE   EOT
 BYTE   W10
 BYTE   N08  An3
 BYTE   W04
 BYTE   N07  Dn4
 BYTE   W04
 BYTE   N20  Fn4
 BYTE   W19
 BYTE   N14  En4
 BYTE   W13
 BYTE   N10  Dn4
 BYTE   W07
//  #11 //012   ----------------------------------------
Label_015402BE:
 BYTE   W10
 BYTE   N80  Dn4  v072
 BYTE   W80
 BYTE   W03
 BYTE   N05  Cn4
 BYTE   W03
 BYTE   PEND 
//  #11 //013   ----------------------------------------
Label_015402C8:
 BYTE   W01
 BYTE   N07  Dn4  v072
 BYTE   W08
 BYTE   N80  Cn4
 BYTE   W80
 BYTE   N03  Gn3  v036
 BYTE   W04
 BYTE   Dn3  v032
 BYTE   W03
 BYTE   PEND 
//  #11 //014   ----------------------------------------
Label_015402D8:
 BYTE   W09
 BYTE   N09  As2  v072
 BYTE   W08
 BYTE   N05  Dn3
 BYTE   W08
 BYTE   N10  Fn3
 BYTE   W08
 BYTE   TIE  As3
 BYTE   W60
 BYTE   W03
 BYTE   PEND 
//  #11 //015   ----------------------------------------
 BYTE   W36
 BYTE   W01
 BYTE   EOT
 BYTE   W09
 BYTE   N08  Fn3
 BYTE   W06
 BYTE   As3
 BYTE   W07
 BYTE   N18  Dn4
 BYTE   W16
 BYTE   N16  Cn4
 BYTE   W14
 BYTE   N11  As3
 BYTE   W07
//  #11 //016   ----------------------------------------
Label_015402FA:
 BYTE   W09
 BYTE   N80  As3  v072
 BYTE   W80
 BYTE   W03
 BYTE   N05  An3
 BYTE   W04
 BYTE   PEND 
//  #11 //017   ----------------------------------------
Label_01540304:
 BYTE   W02
 BYTE   N08  As3  v072
 BYTE   W06
 BYTE   N78  An3
 BYTE   W80
 BYTE   W01
 BYTE   N03  Fs3  v036
 BYTE   W04
 BYTE   Dn3
 BYTE   W03
 BYTE   PEND 
//  #11 //018   ----------------------------------------
Label_01540314:
 BYTE   W09
 BYTE   N10  An2  v072
 BYTE   W08
 BYTE   N07  Cn3
 BYTE   W08
 BYTE   N09  Fs3
 BYTE   W08
 BYTE   TIE  An3
 BYTE   W60
 BYTE   W03
 BYTE   PEND 
//  #11 //019   ----------------------------------------
 BYTE   W32
 BYTE   W02
 BYTE   EOT
 BYTE   W11
 BYTE   N05  Fs3
 BYTE   W05
 BYTE   N07  An3
 BYTE   W07
 BYTE   N17  Ds4
 BYTE   W17
 BYTE   Dn4
 BYTE   W15
 BYTE   N12  Cn4
 BYTE   W07
//  #11 //020   ----------------------------------------
Label_01540336:
 BYTE   W10
 BYTE   N88  Cn4  v072
 BYTE   W84
 BYTE   W02
 BYTE   PEND 
//  #11 //021   ----------------------------------------
Label_0154033D:
 BYTE   N05  As3  v072
 BYTE   W05
 BYTE   N10  An3
 BYTE   W08
 BYTE   N72  As3
 BYTE   W76
 BYTE   N03  Gn3  v036
 BYTE   W04
 BYTE   Dn3
 BYTE   W03
 BYTE   PEND 
//  #11 //022   ----------------------------------------
Label_0154034E:
 BYTE   W05
 BYTE   N03  Fs3  v060
 BYTE   W04
 BYTE   N11  Gs3  v072
 BYTE   W08
 BYTE   N06  Bn3
 BYTE   W08
 BYTE   N08  Dn4
 BYTE   W08
 BYTE   TIE  Fn4
 BYTE   W60
 BYTE   W03
 BYTE   PEND 
//  #11 //023   ----------------------------------------
 BYTE   W40
 BYTE   EOT
 BYTE   W04
 BYTE   N08  Dn4
 BYTE   W05
 BYTE   En4
 BYTE   W06
 BYTE   N21  Fn4
 BYTE   W19
 BYTE   N18  En4
 BYTE   W17
 BYTE   N14  Dn4
 BYTE   W05
//  #11 //024   ----------------------------------------
Label_01540373:
 BYTE   W09
 BYTE   TIE  An4  v072
 BYTE   W84
 BYTE   W03
 BYTE   PEND 
//  #11 //025   ----------------------------------------
 BYTE   W84
 BYTE   W03
 BYTE   EOT
 BYTE   W09
//  #11 //026   ----------------------------------------
 BYTE   W09
 BYTE   N08  Dn3
 BYTE   W08
 BYTE   N06  Fn3
 BYTE   W08
 BYTE   N09  An3
 BYTE   W08
 BYTE   TIE  Dn4
 BYTE   W24
 BYTE   W36
 BYTE   W03
//  #11 //027   ----------------------------------------
 BYTE   W36
 BYTE   W03
 BYTE   EOT
 BYTE   W10
 BYTE   N08  An3
 BYTE   W04
 BYTE   N07  Dn4
 BYTE   W04
 BYTE   N20  Fn4
 BYTE   W19
 BYTE   N14  En4
 BYTE   W13
 BYTE   N10  Dn4
 BYTE   W07
//  #11 //028   ----------------------------------------
 BYTE   PATT
  POIN2 Label_015402BE
//  #11 //029   ----------------------------------------
 BYTE   PATT
  POIN2 Label_015402C8
//  #11 //030   ----------------------------------------
 BYTE   PATT
  POIN2 Label_015402D8
//  #11 //031   ----------------------------------------
 BYTE   W36
 BYTE   W01
 BYTE   EOT
 BYTE   As3
 BYTE   W09
 BYTE   N08  Fn3  v072
 BYTE   W06
 BYTE   As3
 BYTE   W07
 BYTE   N18  Dn4
 BYTE   W16
 BYTE   N16  Cn4
 BYTE   W14
 BYTE   N11  As3
 BYTE   W07
//  #11 //032   ----------------------------------------
 BYTE   PATT
  POIN2 Label_015402FA
//  #11 //033   ----------------------------------------
 BYTE   PATT
  POIN2 Label_01540304
//  #11 //034   ----------------------------------------
 BYTE   PATT
  POIN2 Label_01540314
//  #11 //035   ----------------------------------------
 BYTE   W32
 BYTE   W02
 BYTE   EOT
 BYTE   An3
 BYTE   W11
 BYTE   N05  Fs3  v072
 BYTE   W05
 BYTE   N07  An3
 BYTE   W07
 BYTE   N17  Ds4
 BYTE   W17
 BYTE   Dn4
 BYTE   W15
 BYTE   N12  Cn4
 BYTE   W07
//  #11 //036   ----------------------------------------
 BYTE   PATT
  POIN2 Label_01540336
//  #11 //037   ----------------------------------------
 BYTE   PATT
  POIN2 Label_0154033D
//  #11 //038   ----------------------------------------
 BYTE   PATT
  POIN2 Label_0154034E
//  #11 //039   ----------------------------------------
 BYTE   W40
 BYTE   EOT
 BYTE   Fn4
 BYTE   W04
 BYTE   N08  Dn4  v072
 BYTE   W05
 BYTE   En4
 BYTE   W06
 BYTE   N21  Fn4
 BYTE   W19
 BYTE   N18  En4
 BYTE   W17
 BYTE   N14  Dn4
 BYTE   W05
//  #11 //040   ----------------------------------------
 BYTE   PATT
  POIN2 Label_01540373
//  #11 //041   ----------------------------------------
 BYTE   W84
 BYTE   W03
 BYTE   EOT
 BYTE   An4
 BYTE   W09
//  #11 //042   ----------------------------------------
 BYTE   W96
//  #11 //043   ----------------------------------------
 BYTE   W96
//  #11 //044   ----------------------------------------
 BYTE   W96
//  #11 //045   ----------------------------------------
 BYTE   W96
//  #11 //046   ----------------------------------------
 BYTE   W96
//  #11 //047   ----------------------------------------
 BYTE   W96
//  #11 //048   ----------------------------------------
 BYTE   W96
//  #11 //049   ----------------------------------------
 BYTE   W96
//  #11 //050   ----------------------------------------
 BYTE   W09
 BYTE   N07  An4  v076
 BYTE   W08
 BYTE   As4
 BYTE   W08
 BYTE   An4
 BYTE   W08
 BYTE   Gn4
 BYTE   W08
 BYTE   Fn4
 BYTE   W08
 BYTE   En4
 BYTE   W08
 BYTE   Fn4
 BYTE   W08
 BYTE   Gn4
 BYTE   W08
 BYTE   Fn4
 BYTE   W08
 BYTE   En4
 BYTE   W08
 BYTE   Dn4
 BYTE   W07
//  #11 //051   ----------------------------------------
Label_01540433:
 BYTE   W01
 BYTE   N07  Cn4  v076
 BYTE   W08
 BYTE   As3
 BYTE   W08
 BYTE   Gn3
 BYTE   W08
 BYTE   Fn3
 BYTE   W08
 BYTE   Gn3
 BYTE   W08
 BYTE   Fn3
 BYTE   W08
 BYTE   En3
 BYTE   W08
 BYTE   Fn3
 BYTE   W08
 BYTE   An3
 BYTE   W08
 BYTE   Cn4
 BYTE   W08
 BYTE   Fn3
 BYTE   W08
 BYTE   An3
 BYTE   W07
 BYTE   PEND 
//  #11 //052   ----------------------------------------
Label_0154044F:
 BYTE   W01
 BYTE   N07  Cn4  v076
 BYTE   W08
 BYTE   En4
 BYTE   W08
 BYTE   Fn4
 BYTE   W08
 BYTE   En4
 BYTE   W08
 BYTE   Dn4
 BYTE   W08
 BYTE   Cn4
 BYTE   W08
 BYTE   Bn3
 BYTE   W08
 BYTE   Cn4
 BYTE   W08
 BYTE   Dn4
 BYTE   W08
 BYTE   Cn4
 BYTE   W08
 BYTE   Bn3
 BYTE   W08
 BYTE   An3
 BYTE   W07
 BYTE   PEND 
//  #11 //053   ----------------------------------------
Label_0154046B:
 BYTE   W01
 BYTE   N07  Gn3  v076
 BYTE   W08
 BYTE   Fn3
 BYTE   W08
 BYTE   En3
 BYTE   W08
 BYTE   Dn3
 BYTE   W08
 BYTE   N07
 BYTE   W08
 BYTE   Cn3
 BYTE   W08
 BYTE   Bn2
 BYTE   W08
 BYTE   Cn3
 BYTE   W08
 BYTE   En3
 BYTE   W08
 BYTE   Gn3
 BYTE   W08
 BYTE   Cn3
 BYTE   W08
 BYTE   En3
 BYTE   W07
 BYTE   PEND 
//  #11 //054   ----------------------------------------
Label_01540487:
 BYTE   W01
 BYTE   N07  Gn3  v076
 BYTE   W08
 BYTE   An3
 BYTE   W08
 BYTE   As3
 BYTE   W08
 BYTE   An3
 BYTE   W08
 BYTE   Gn3
 BYTE   W08
 BYTE   Fn3
 BYTE   W08
 BYTE   En3
 BYTE   W08
 BYTE   An3
 BYTE   W08
 BYTE   As3
 BYTE   W08
 BYTE   An3
 BYTE   W08
 BYTE   Gn3
 BYTE   W08
 BYTE   Fn3
 BYTE   W07
 BYTE   PEND 
//  #11 //055   ----------------------------------------
Label_015404A3:
 BYTE   W01
 BYTE   N07  En3  v076
 BYTE   W08
 BYTE   An3
 BYTE   W08
 BYTE   As3
 BYTE   W08
 BYTE   An3
 BYTE   W08
 BYTE   Gn3
 BYTE   W08
 BYTE   Fn3
 BYTE   W08
 BYTE   En3
 BYTE   W08
 BYTE   An3
 BYTE   W08
 BYTE   As3
 BYTE   W08
 BYTE   An3
 BYTE   W08
 BYTE   Gn3
 BYTE   W08
 BYTE   Fn3
 BYTE   W07
 BYTE   PEND 
//  #11 //056   ----------------------------------------
 BYTE   PATT
  POIN2 Label_015404A3
//  #11 //057   ----------------------------------------
 BYTE   PATT
  POIN2 Label_015404A3
//  #11 //058   ----------------------------------------
 BYTE   W01
 BYTE   N07  En3  v076
 BYTE   W08
 BYTE   An4
 BYTE   W08
 BYTE   As4
 BYTE   W08
 BYTE   An4
 BYTE   W08
 BYTE   Gn4
 BYTE   W08
 BYTE   Fn4
 BYTE   W08
 BYTE   En4
 BYTE   W08
 BYTE   Fn4
 BYTE   W08
 BYTE   Gn4
 BYTE   W08
 BYTE   Fn4
 BYTE   W08
 BYTE   En4
 BYTE   W08
 BYTE   Dn4
 BYTE   W07
//  #11 //059   ----------------------------------------
 BYTE   PATT
  POIN2 Label_01540433
//  #11 //060   ----------------------------------------
 BYTE   PATT
  POIN2 Label_0154044F
//  #11 //061   ----------------------------------------
 BYTE   PATT
  POIN2 Label_0154046B
//  #11 //062   ----------------------------------------
 BYTE   PATT
  POIN2 Label_01540487
//  #11 //063   ----------------------------------------
 BYTE   PATT
  POIN2 Label_015404A3
//  #11 //064   ----------------------------------------
 BYTE   PATT
  POIN2 Label_015404A3
//  #11 //065   ----------------------------------------
 BYTE   W01
 BYTE   N07  En3  v076
 BYTE   W08
 BYTE   An3
 BYTE   W08
 BYTE   As3
 BYTE   W08
 BYTE   An3
 BYTE   W08
 BYTE   Gn3
 BYTE   W08
 BYTE   Fn3
 BYTE   W08
 BYTE   En3
 BYTE   W08
 BYTE   Cs3
 BYTE   W08
 BYTE   Dn3
 BYTE   W08
 BYTE   Cs3
 BYTE   W08
 BYTE   As2
 BYTE   W08
 BYTE   An2
 BYTE   W07
//  #11 //066   ----------------------------------------
 BYTE   W96
//  #11 //067   ----------------------------------------
 BYTE   W96
//  #11 //068   ----------------------------------------
 BYTE   W96
//  #11 //069   ----------------------------------------
 BYTE   W96
//  #11 //070   ----------------------------------------
 BYTE   W96
//  #11 //071   ----------------------------------------
 BYTE   W96
//  #11 //072   ----------------------------------------
 BYTE   W96
//  #11 //073   ----------------------------------------
 BYTE   W96
//  #11 //074   ----------------------------------------
 BYTE   W96
//  #11 //075   ----------------------------------------
 BYTE   W96
//  #11 //076   ----------------------------------------
 BYTE   W96
//  #11 //077   ----------------------------------------
 BYTE   W96
//  #11 //078   ----------------------------------------
 BYTE   W96
//  #11 //079   ----------------------------------------
 BYTE   W96
//  #11 //080   ----------------------------------------
 BYTE   W96
//  #11 //081   ----------------------------------------
 BYTE   W96
//  #11 //082   ----------------------------------------
 BYTE   W96
//  #11 //083   ----------------------------------------
 BYTE   W96
//  #11 //084   ----------------------------------------
 BYTE   W96
//  #11 //085   ----------------------------------------
 BYTE   W96
//  #11 //086   ----------------------------------------
 BYTE   W96
//  #11 //087   ----------------------------------------
 BYTE   W96
//  #11 //088   ----------------------------------------
 BYTE   W96
//  #11 //089   ----------------------------------------
 BYTE   W96
//  #11 //090   ----------------------------------------
 BYTE   W96
//  #11 //091   ----------------------------------------
 BYTE   W96
//  #11 //092   ----------------------------------------
 BYTE   W96
//  #11 //093   ----------------------------------------
 BYTE   W96
//  #11 //094   ----------------------------------------
 BYTE   W96
//  #11 //095   ----------------------------------------
 BYTE   W96
//  #11 //096   ----------------------------------------
 BYTE   W96
//  #11 //097   ----------------------------------------
 BYTE   W96
//  #11 //098   ----------------------------------------
 BYTE   W96
//  #11 //099   ----------------------------------------
 BYTE   W96
//  #11 //100   ----------------------------------------
 BYTE   W96
//  #11 //101   ----------------------------------------
 BYTE   W96
//  #11 //102   ----------------------------------------
 BYTE   GoTo
  POIN2 Label_0154018A
 BYTE   FINE

//**************** Track 12 (Midi-Chn.11) ****************//

TheirOwnBrandOfJustice_012:
//  #12 //000   ----------------------------------------
 BYTE   KEYSH   TheirOwnBrandOfJustice_key+0
Label_01541A4E:
 BYTE   VOICE   40
 BYTE   VOL   60*TheirOwnBrandOfJustice_mvl/mxv
 BYTE   PAN   c_v+0
 BYTE   TIE  Fn3  v056
 BYTE   N92  An3
 BYTE   W96
//  #12 //001   ----------------------------------------
 BYTE   As3
 BYTE   W92
 BYTE   W03
 BYTE   EOT
 BYTE   Fn3
 BYTE   W01
//  #12 //002   ----------------------------------------
 BYTE   TIE  En3
 BYTE   N92  Gn3
 BYTE   W96
//  #12 //003   ----------------------------------------
 BYTE   An3
 BYTE   W92
 BYTE   W03
 BYTE   EOT
 BYTE   En3
 BYTE   W01
//  #12 //004   ----------------------------------------
 BYTE   N92  Fn3
 BYTE   N92  Dn4
 BYTE   W96
//  #12 //005   ----------------------------------------
 BYTE   Gn3
 BYTE   N92  Dn4
 BYTE   W96
//  #12 //006   ----------------------------------------
 BYTE   TIE  An3
 BYTE   TIE  Dn4
 BYTE   W96
//  #12 //007   ----------------------------------------
 BYTE   W92
 BYTE   W03
 BYTE   EOT
 BYTE   W01
//  #12 //008   ----------------------------------------
 BYTE   TIE  Cs4
 BYTE   W96
//  #12 //009   ----------------------------------------
 BYTE   W05
 BYTE   EOT
 BYTE   An3  v073
 BYTE   W90
 BYTE   W01
//  #12 //010   ----------------------------------------
Label_01541A86:
 BYTE   TIE  Fn3  v036
 BYTE   TIE  An3  v048
 BYTE   TIE  Dn4  v052
 BYTE   W96
 BYTE   PEND 
//  #12 //011   ----------------------------------------
 BYTE   W84
 BYTE   W01
 BYTE   EOT
 BYTE   Fn3
 BYTE   W02
 BYTE   Dn4
 BYTE   W02
 BYTE   An3
 BYTE   W07
//  #12 //012   ----------------------------------------
Label_01541A9A:
 BYTE   TIE  En3  v056
 BYTE   TIE  Gn3  v072
 BYTE   TIE  Dn4  v068
 BYTE   W96
 BYTE   PEND 
//  #12 //013   ----------------------------------------
 BYTE   N92  Cn4  v072
 BYTE   W02
 BYTE   EOT
 BYTE   Dn4
 BYTE   W80
 BYTE   W01
 BYTE   Gn3
 BYTE   W02
 BYTE   En3
 BYTE   W11
//  #12 //014   ----------------------------------------
Label_01541AB1:
 BYTE   TIE  Dn3  v060
 BYTE   TIE  Fn3  v048
 BYTE   TIE  As3  v064
 BYTE   W96
 BYTE   PEND 
//  #12 //015   ----------------------------------------
 BYTE   W72
 BYTE   W03
 BYTE   EOT
 BYTE   Fn3
 BYTE   W06
 BYTE   Dn3
 BYTE   W05
 BYTE   As3
 BYTE   W10
//  #12 //016   ----------------------------------------
Label_01541AC5:
 BYTE   TIE  Cs3  v060
 BYTE   TIE  En3  v056
 BYTE   TIE  As3  v052
 BYTE   W96
 BYTE   PEND 
//  #12 //017   ----------------------------------------
 BYTE   N80  An3  v068
 BYTE   W07
 BYTE   EOT
 BYTE   As3
 BYTE   W76
 BYTE   W01
 BYTE   Cs3
 BYTE   W01
 BYTE   En3
 BYTE   W11
//  #12 //018   ----------------------------------------
Label_01541ADC:
 BYTE   TIE  Cn3  v052
 BYTE   TIE  Ds3  v048
 BYTE   TIE  An3  v056
 BYTE   W96
 BYTE   PEND 
//  #12 //019   ----------------------------------------
 BYTE   W92
 BYTE   W01
 BYTE   EOT
 BYTE   W03
//  #12 //020   ----------------------------------------
 BYTE   TIE  Fs3  v068
 BYTE   W80
 BYTE   EOT
 BYTE   Cn3
 BYTE   W03
 BYTE   Ds3
 BYTE   W13
//  #12 //021   ----------------------------------------
Label_01541AF4:
 BYTE   N78  As2  v052
 BYTE   N80  Dn3  v048
 BYTE   N80  Gn3  v064
 BYTE   W03
 BYTE   PEND 
 BYTE   EOT
 BYTE   Fs3
 BYTE   W92
 BYTE   W01
//  #12 //022   ----------------------------------------
Label_01541B03:
 BYTE   N90  Dn3  v068
 BYTE   N90  Fn3
 BYTE   N92  Gs3  v064
 BYTE   W96
 BYTE   PEND 
//  #12 //023   ----------------------------------------
Label_01541B0D:
 BYTE   N32  Dn3  v060
 BYTE   N32  Fn3
 BYTE   N36  Gs3  v072
 BYTE   W48
 BYTE   Fn3  v068
 BYTE   N40  Gs3  v072
 BYTE   N40  Dn4  v088
 BYTE   W48
 BYTE   PEND 
//  #12 //024   ----------------------------------------
Label_01541B20:
 BYTE   N88  En3  v064
 BYTE   N88  An3  v072
 BYTE   N92  Dn4  v080
 BYTE   W96
 BYTE   PEND 
//  #12 //025   ----------------------------------------
Label_01541B2B:
 BYTE   N88  En3  v060
 BYTE   N84  An3  v072
 BYTE   N88  Cs4
 BYTE   W96
 BYTE   PEND 
//  #12 //026   ----------------------------------------
 BYTE   PATT
  POIN2 Label_01541A86
//  #12 //027   ----------------------------------------
 BYTE   W84
 BYTE   W01
 BYTE   EOT
 BYTE   Fn3
 BYTE   W02
 BYTE   Dn4
 BYTE   W02
 BYTE   An3
 BYTE   W07
//  #12 //028   ----------------------------------------
 BYTE   PATT
  POIN2 Label_01541A9A
//  #12 //029   ----------------------------------------
 BYTE   N92  Cn4  v072
 BYTE   W02
 BYTE   EOT
 BYTE   Dn4
 BYTE   W80
 BYTE   W01
 BYTE   Gn3
 BYTE   W02
 BYTE   En3
 BYTE   W11
//  #12 //030   ----------------------------------------
 BYTE   PATT
  POIN2 Label_01541AB1
//  #12 //031   ----------------------------------------
 BYTE   W72
 BYTE   W03
 BYTE   EOT
 BYTE   Fn3
 BYTE   W06
 BYTE   Dn3
 BYTE   W05
 BYTE   As3
 BYTE   W10
//  #12 //032   ----------------------------------------
 BYTE   PATT
  POIN2 Label_01541AC5
//  #12 //033   ----------------------------------------
 BYTE   N80  An3  v068
 BYTE   W07
 BYTE   EOT
 BYTE   As3
 BYTE   W76
 BYTE   W01
 BYTE   Cs3
 BYTE   W01
 BYTE   En3
 BYTE   W11
//  #12 //034   ----------------------------------------
 BYTE   PATT
  POIN2 Label_01541ADC
//  #12 //035   ----------------------------------------
 BYTE   W92
 BYTE   W01
 BYTE   EOT
 BYTE   An3
 BYTE   W03
//  #12 //036   ----------------------------------------
 BYTE   TIE  Fs3  v068
 BYTE   W80
 BYTE   EOT
 BYTE   Cn3
 BYTE   W03
 BYTE   Ds3
 BYTE   W13
//  #12 //037   ----------------------------------------
 BYTE   PATT
  POIN2 Label_01541AF4
//  #12 //038   ----------------------------------------
 BYTE   EOT
 BYTE   Fs3
 BYTE   W92
 BYTE   W01
//  #12 //039   ----------------------------------------
 BYTE   PATT
  POIN2 Label_01541B03
//  #12 //040   ----------------------------------------
 BYTE   PATT
  POIN2 Label_01541B0D
//  #12 //041   ----------------------------------------
 BYTE   PATT
  POIN2 Label_01541B20
//  #12 //042   ----------------------------------------
 BYTE   PATT
  POIN2 Label_01541B2B
//  #12 //043   ----------------------------------------
 BYTE   N84  Fn3  v068
 BYTE   N84  An3
 BYTE   N84  Dn4
 BYTE   W96
//  #12 //044   ----------------------------------------
 BYTE   Gn3
 BYTE   N84  As3
 BYTE   N84  Dn4
 BYTE   W96
//  #12 //045   ----------------------------------------
 BYTE   Gn3
 BYTE   N84  As3
 BYTE   N84  Cs4
 BYTE   W96
//  #12 //046   ----------------------------------------
 BYTE   An3
 BYTE   N84  Cn4
 BYTE   N84  Ds4
 BYTE   W96
//  #12 //047   ----------------------------------------
 BYTE   N78  Gs3
 BYTE   N78  Bn3
 BYTE   N84  Dn4
 BYTE   W96
//  #12 //048   ----------------------------------------
 BYTE   Bn3
 BYTE   N84  Dn4
 BYTE   N84  Fn4
 BYTE   W96
//  #12 //049   ----------------------------------------
 BYTE   Dn4
 BYTE   N84  Fn4
 BYTE   N84  Gs4
 BYTE   W96
//  #12 //050   ----------------------------------------
 BYTE   N78  Cs4
 BYTE   N78  En4
 BYTE   N78  An4
 BYTE   W96
//  #12 //051   ----------------------------------------
 BYTE   W96
//  #12 //052   ----------------------------------------
 BYTE   W96
//  #12 //053   ----------------------------------------
 BYTE   W96
//  #12 //054   ----------------------------------------
 BYTE   W96
//  #12 //055   ----------------------------------------
 BYTE   W96
//  #12 //056   ----------------------------------------
 BYTE   W96
//  #12 //057   ----------------------------------------
 BYTE   W96
//  #12 //058   ----------------------------------------
 BYTE   W96
//  #12 //059   ----------------------------------------
 BYTE   W96
//  #12 //060   ----------------------------------------
 BYTE   W96
//  #12 //061   ----------------------------------------
 BYTE   W96
//  #12 //062   ----------------------------------------
 BYTE   W96
//  #12 //063   ----------------------------------------
 BYTE   W96
//  #12 //064   ----------------------------------------
 BYTE   W96
//  #12 //065   ----------------------------------------
 BYTE   W96
//  #12 //066   ----------------------------------------
 BYTE   W96
//  #12 //067   ----------------------------------------
 BYTE   N92  An3
 BYTE   N92  Dn4
 BYTE   W96
//  #12 //068   ----------------------------------------
 BYTE   As3
 BYTE   N92  En4
 BYTE   W96
//  #12 //069   ----------------------------------------
 BYTE   TIE  An3
 BYTE   N92  Cs4
 BYTE   W96
//  #12 //070   ----------------------------------------
 BYTE   Dn4
 BYTE   W92
 BYTE   W03
 BYTE   EOT
 BYTE   An3
 BYTE   W01
//  #12 //071   ----------------------------------------
 BYTE   N92  Gn3
 BYTE   N92  As3
 BYTE   W96
//  #12 //072   ----------------------------------------
 BYTE   En3
 BYTE   N92  An3
 BYTE   W96
//  #12 //073   ----------------------------------------
 BYTE   Fn3
 BYTE   N92  An3
 BYTE   W96
//  #12 //074   ----------------------------------------
 BYTE   Fs3
 BYTE   N92  Bn3
 BYTE   W96
//  #12 //075   ----------------------------------------
 BYTE   Gn3
 BYTE   N92  Bn3
 BYTE   W96
//  #12 //076   ----------------------------------------
 BYTE   Gs3
 BYTE   N92  Bn3
 BYTE   W96
//  #12 //077   ----------------------------------------
 BYTE   An3
 BYTE   N92  Cn4
 BYTE   W96
//  #12 //078   ----------------------------------------
 BYTE   As3
 BYTE   N92  Cs4
 BYTE   W96
//  #12 //079   ----------------------------------------
 BYTE   Bn3
 BYTE   N44  Dn4
 BYTE   W48
 BYTE   En4
 BYTE   W48
//  #12 //080   ----------------------------------------
 BYTE   Bn3
 BYTE   N44  Dn4
 BYTE   W48
 BYTE   As3
 BYTE   N44  Cs4
 BYTE   W48
//  #12 //081   ----------------------------------------
Label_01541C2A:
 BYTE   N44  Gn3  v080
 BYTE   N44  Bn3
 BYTE   N44  En4
 BYTE   W48
 BYTE   Gn3  v056
 BYTE   N44  Bn3
 BYTE   N44  En4
 BYTE   W48
 BYTE   PEND 
//  #12 //082   ----------------------------------------
Label_01541C3A:
 BYTE   N44  Gn3  v020
 BYTE   N44  Bn3
 BYTE   N44  En4
 BYTE   W48
 BYTE   Gn3  v004
 BYTE   N44  Bn3
 BYTE   W48
 BYTE   PEND 
//  #12 //083   ----------------------------------------
Label_01541C48:
 BYTE   N44  Fs3  v080
 BYTE   N44  Bn3
 BYTE   N44  Dn4
 BYTE   W48
 BYTE   Fs3  v056
 BYTE   N44  Bn3
 BYTE   N44  Dn4
 BYTE   W48
 BYTE   PEND 
//  #12 //084   ----------------------------------------
Label_01541C58:
 BYTE   N44  Fs3  v020
 BYTE   N44  Bn3
 BYTE   N44  Dn4
 BYTE   W48
 BYTE   Fs3  v004
 BYTE   N44  Bn3
 BYTE   W48
 BYTE   PEND 
//  #12 //085   ----------------------------------------
Label_01541C66:
 BYTE   N44  Fn3  v080
 BYTE   N44  Bn3
 BYTE   N44  Cs4
 BYTE   W48
 BYTE   Fn3  v056
 BYTE   N44  Bn3
 BYTE   N44  Cs4
 BYTE   W48
 BYTE   PEND 
//  #12 //086   ----------------------------------------
 BYTE   Fn3  v020
 BYTE   N44  Bn3
 BYTE   N44  Cs4
 BYTE   W48
 BYTE   Fn3  v004
 BYTE   N44  Bn3
 BYTE   W48
//  #12 //087   ----------------------------------------
 BYTE   PATT
  POIN2 Label_01541C48
//  #12 //088   ----------------------------------------
Label_01541C87:
 BYTE   N44  Fs3  v080
 BYTE   N44  As3
 BYTE   N44  Cs4
 BYTE   W48
 BYTE   Fs3  v056
 BYTE   N44  As3
 BYTE   N44  Cs4
 BYTE   W48
 BYTE   PEND 
//  #12 //089   ----------------------------------------
 BYTE   PATT
  POIN2 Label_01541C48
//  #12 //090   ----------------------------------------
 BYTE   PATT
  POIN2 Label_01541C87
//  #12 //091   ----------------------------------------
 BYTE   PATT
  POIN2 Label_01541C2A
//  #12 //092   ----------------------------------------
 BYTE   PATT
  POIN2 Label_01541C3A
//  #12 //093   ----------------------------------------
 BYTE   PATT
  POIN2 Label_01541C48
//  #12 //094   ----------------------------------------
 BYTE   PATT
  POIN2 Label_01541C58
//  #12 //095   ----------------------------------------
 BYTE   PATT
  POIN2 Label_01541C66
//  #12 //096   ----------------------------------------
 BYTE   PATT
  POIN2 Label_01541C48
//  #12 //097   ----------------------------------------
 BYTE   PATT
  POIN2 Label_01541C2A
//  #12 //098   ----------------------------------------
 BYTE   N44  Gs3  v080
 BYTE   N44  Cs4
 BYTE   N44  Fn4
 BYTE   W48
 BYTE   Gs3  v056
 BYTE   N44  Cs4
 BYTE   N44  Fn4
 BYTE   W48
//  #12 //099   ----------------------------------------
 BYTE   N23  Bn3  v080
 BYTE   N23  Dn4
 BYTE   N23  Fs4
 BYTE   W24
 BYTE   Bn3  v056
 BYTE   N23  Dn4
 BYTE   N23  Fs4
 BYTE   W24
 BYTE   Bn3  v020
 BYTE   N23  Dn4
 BYTE   N23  Fs4
 BYTE   W24
 BYTE   Bn3  v056
 BYTE   N23  Dn4
 BYTE   N23  Fs4
 BYTE   W24
//  #12 //100   ----------------------------------------
 BYTE   N15  Bn3  v080
 BYTE   N15  Dn4
 BYTE   N15  Fs4
 BYTE   W24
 BYTE   Bn3  v028
 BYTE   N15  Dn4
 BYTE   N15  Fs4
 BYTE   W24
 BYTE   Bn3  v008
 BYTE   N15  Dn4
 BYTE   N15  Fs4
 BYTE   W48
//  #12 //101   ----------------------------------------
 BYTE   N23  As3  v080
 BYTE   N23  Cs4
 BYTE   N23  Fs4
 BYTE   W24
 BYTE   As3  v056
 BYTE   N23  Cs4
 BYTE   N23  Fs4
 BYTE   W24
 BYTE   As3  v020
 BYTE   N23  Cs4
 BYTE   N23  Fs4
 BYTE   W24
 BYTE   As3  v056
 BYTE   N23  Cs4
 BYTE   N23  Fs4
 BYTE   W24
//  #12 //102   ----------------------------------------
 BYTE   N15  As3  v080
 BYTE   N15  Cs4
 BYTE   N15  Fs4
 BYTE   W24
 BYTE   As3  v028
 BYTE   N15  Cs4
 BYTE   N15  Fs4
 BYTE   W24
 BYTE   As3  v008
 BYTE   N15  Cs4
 BYTE   N15  Fs4
 BYTE   W48
//  #12 //103   ----------------------------------------
 BYTE   GoTo
  POIN2 Label_01541A4E
 BYTE   FINE

//**************** Track 13 (Midi-Chn.12) ****************//

TheirOwnBrandOfJustice_013:
//  #13 //000   ----------------------------------------
 BYTE   KEYSH   TheirOwnBrandOfJustice_key+0
Label_01540922:
 BYTE   VOICE   38
 BYTE   VOL   53*TheirOwnBrandOfJustice_mvl/mxv
 BYTE   PAN   c_v+0
 BYTE   N78  Dn1  v060
 BYTE   W80
 BYTE   N07  An1  v032
 BYTE   W08
 BYTE   Cn2  v036
 BYTE   W08
//  #13 //001   ----------------------------------------
 BYTE   N80  Dn2  v048
 BYTE   W84
 BYTE   N02  An1  v044
 BYTE   W03
 BYTE   Fn1
 BYTE   W03
 BYTE   Dn1  v048
 BYTE   W06
//  #13 //002   ----------------------------------------
 BYTE   N68  Cn1  v060
 BYTE   W72
 BYTE   N07  Gn1  v032
 BYTE   W08
 BYTE   Cn1
 BYTE   W08
 BYTE   Gn1
 BYTE   W08
//  #13 //003   ----------------------------------------
 BYTE   N84  Cn2  v060
 BYTE   W84
 BYTE   W03
 BYTE   N02  Gn1  v044
 BYTE   W03
 BYTE   En1
 BYTE   W03
 BYTE   Cn1  v048
 BYTE   W03
//  #13 //004   ----------------------------------------
 BYTE   N68  As0  v060
 BYTE   W72
 BYTE   N07  As0  v048
 BYTE   W08
 BYTE   An0
 BYTE   W08
 BYTE   Fn0
 BYTE   W08
//  #13 //005   ----------------------------------------
 BYTE   N68  Gn0  v060
 BYTE   W72
 BYTE   N07  Gn0  v056
 BYTE   W08
 BYTE   Gn0  v048
 BYTE   W08
 BYTE   N07
 BYTE   W08
//  #13 //006   ----------------------------------------
 BYTE   TIE  An0  v060
 BYTE   W96
//  #13 //007   ----------------------------------------
 BYTE   W68
 BYTE   W03
 BYTE   EOT
 BYTE   W01
 BYTE   N07  An0  v032
 BYTE   W08
 BYTE   Cs1  v036
 BYTE   W08
 BYTE   En1  v044
 BYTE   W08
//  #13 //008   ----------------------------------------
 BYTE   TIE  An1  v060
 BYTE   W96
//  #13 //009   ----------------------------------------
 BYTE   W68
 BYTE   W03
 BYTE   EOT
 BYTE   W16
 BYTE   N02  An1  v036
 BYTE   W03
 BYTE   En1
 BYTE   W03
 BYTE   Cs1  v024
 BYTE   W03
//  #13 //010   ----------------------------------------
Label_01540996:
 BYTE   N07  Dn1  v048
 BYTE   W16
 BYTE   N07
 BYTE   W08
 BYTE   Dn2
 BYTE   W08
 BYTE   Dn1
 BYTE   W08
 BYTE   N07
 BYTE   W08
 BYTE   N07
 BYTE   W16
 BYTE   N07
 BYTE   W08
 BYTE   Dn2
 BYTE   W08
 BYTE   Dn1
 BYTE   W08
 BYTE   N07
 BYTE   W08
 BYTE   PEND 
//  #13 //011   ----------------------------------------
 BYTE   PATT
  POIN2 Label_01540996
//  #13 //012   ----------------------------------------
 BYTE   PATT
  POIN2 Label_01540996
//  #13 //013   ----------------------------------------
 BYTE   PATT
  POIN2 Label_01540996
//  #13 //014   ----------------------------------------
 BYTE   PATT
  POIN2 Label_01540996
//  #13 //015   ----------------------------------------
 BYTE   PATT
  POIN2 Label_01540996
//  #13 //016   ----------------------------------------
 BYTE   PATT
  POIN2 Label_01540996
//  #13 //017   ----------------------------------------
 BYTE   PATT
  POIN2 Label_01540996
//  #13 //018   ----------------------------------------
 BYTE   PATT
  POIN2 Label_01540996
//  #13 //019   ----------------------------------------
 BYTE   PATT
  POIN2 Label_01540996
//  #13 //020   ----------------------------------------
 BYTE   PATT
  POIN2 Label_01540996
//  #13 //021   ----------------------------------------
 BYTE   PATT
  POIN2 Label_01540996
//  #13 //022   ----------------------------------------
Label_015409E4:
 BYTE   N07  En1  v048
 BYTE   W16
 BYTE   N07
 BYTE   W08
 BYTE   En2
 BYTE   W08
 BYTE   En1
 BYTE   W08
 BYTE   N07
 BYTE   W08
 BYTE   N07
 BYTE   W16
 BYTE   N07
 BYTE   W08
 BYTE   En2
 BYTE   W08
 BYTE   En1
 BYTE   W08
 BYTE   N07
 BYTE   W08
 BYTE   PEND 
//  #13 //023   ----------------------------------------
Label_015409FB:
 BYTE   N07  As0  v048
 BYTE   W16
 BYTE   N07
 BYTE   W08
 BYTE   As1
 BYTE   W08
 BYTE   As0
 BYTE   W08
 BYTE   N07
 BYTE   W08
 BYTE   N07
 BYTE   W16
 BYTE   N07
 BYTE   W08
 BYTE   As1
 BYTE   W08
 BYTE   As0
 BYTE   W08
 BYTE   N07
 BYTE   W08
 BYTE   PEND 
//  #13 //024   ----------------------------------------
Label_01540A12:
 BYTE   N07  An0  v048
 BYTE   W16
 BYTE   N07
 BYTE   W08
 BYTE   An1
 BYTE   W08
 BYTE   An0
 BYTE   W08
 BYTE   N07
 BYTE   W08
 BYTE   N07
 BYTE   W16
 BYTE   N07
 BYTE   W08
 BYTE   An1
 BYTE   W08
 BYTE   An0
 BYTE   W08
 BYTE   N07
 BYTE   W08
 BYTE   PEND 
//  #13 //025   ----------------------------------------
 BYTE   PATT
  POIN2 Label_01540A12
//  #13 //026   ----------------------------------------
 BYTE   PATT
  POIN2 Label_01540996
//  #13 //027   ----------------------------------------
 BYTE   PATT
  POIN2 Label_01540996
//  #13 //028   ----------------------------------------
 BYTE   PATT
  POIN2 Label_01540996
//  #13 //029   ----------------------------------------
 BYTE   PATT
  POIN2 Label_01540996
//  #13 //030   ----------------------------------------
 BYTE   PATT
  POIN2 Label_01540996
//  #13 //031   ----------------------------------------
 BYTE   PATT
  POIN2 Label_01540996
//  #13 //032   ----------------------------------------
 BYTE   PATT
  POIN2 Label_01540996
//  #13 //033   ----------------------------------------
 BYTE   PATT
  POIN2 Label_01540996
//  #13 //034   ----------------------------------------
 BYTE   PATT
  POIN2 Label_01540996
//  #13 //035   ----------------------------------------
 BYTE   PATT
  POIN2 Label_01540996
//  #13 //036   ----------------------------------------
 BYTE   PATT
  POIN2 Label_01540996
//  #13 //037   ----------------------------------------
 BYTE   PATT
  POIN2 Label_01540996
//  #13 //038   ----------------------------------------
 BYTE   PATT
  POIN2 Label_015409E4
//  #13 //039   ----------------------------------------
 BYTE   PATT
  POIN2 Label_015409FB
//  #13 //040   ----------------------------------------
 BYTE   PATT
  POIN2 Label_01540A12
//  #13 //041   ----------------------------------------
 BYTE   PATT
  POIN2 Label_01540A12
//  #13 //042   ----------------------------------------
Label_01540A7E:
 BYTE   N07  Dn1  v048
 BYTE   W16
 BYTE   N07
 BYTE   W08
 BYTE   Dn2
 BYTE   W08
 BYTE   Dn1
 BYTE   W08
 BYTE   Dn2
 BYTE   W08
 BYTE   Dn1
 BYTE   W16
 BYTE   N07
 BYTE   W08
 BYTE   Dn2
 BYTE   W08
 BYTE   Dn1
 BYTE   W08
 BYTE   Dn2
 BYTE   W08
 BYTE   PEND 
//  #13 //043   ----------------------------------------
 BYTE   PATT
  POIN2 Label_01540A7E
//  #13 //044   ----------------------------------------
 BYTE   PATT
  POIN2 Label_01540A7E
//  #13 //045   ----------------------------------------
 BYTE   PATT
  POIN2 Label_01540A7E
//  #13 //046   ----------------------------------------
 BYTE   PATT
  POIN2 Label_01540A7E
//  #13 //047   ----------------------------------------
 BYTE   PATT
  POIN2 Label_01540A7E
//  #13 //048   ----------------------------------------
 BYTE   PATT
  POIN2 Label_01540A7E
//  #13 //049   ----------------------------------------
 BYTE   N07  An0  v048
 BYTE   W16
 BYTE   N07
 BYTE   W08
 BYTE   An1
 BYTE   W08
 BYTE   An0
 BYTE   W08
 BYTE   An1
 BYTE   W08
 BYTE   An0
 BYTE   W16
 BYTE   N07
 BYTE   W08
 BYTE   An1
 BYTE   W08
 BYTE   An0
 BYTE   W08
 BYTE   An1
 BYTE   W08
//  #13 //050   ----------------------------------------
Label_01540AC9:
 BYTE   N07  Dn1  v048
 BYTE   W16
 BYTE   N07
 BYTE   W08
 BYTE   Dn2
 BYTE   W08
 BYTE   Dn1
 BYTE   W08
 BYTE   N07
 BYTE   W08
 BYTE   N07
 BYTE   W16
 BYTE   Dn1  v024
 BYTE   W08
 BYTE   Cn1  v048
 BYTE   W08
 BYTE   Cn2
 BYTE   W08
 BYTE   Cn1
 BYTE   W08
 BYTE   PEND 
//  #13 //051   ----------------------------------------
Label_01540AE2:
 BYTE   N07  Fn1  v048
 BYTE   W16
 BYTE   N07
 BYTE   W08
 BYTE   Fn2
 BYTE   W08
 BYTE   Fn1
 BYTE   W08
 BYTE   N07
 BYTE   W08
 BYTE   Fn2
 BYTE   W08
 BYTE   Fn1
 BYTE   W08
 BYTE   Fn2
 BYTE   W08
 BYTE   Fn1
 BYTE   W08
 BYTE   Fn2
 BYTE   W08
 BYTE   Fn1
 BYTE   W08
 BYTE   PEND 
//  #13 //052   ----------------------------------------
Label_01540AFB:
 BYTE   N07  An0  v048
 BYTE   W16
 BYTE   N07
 BYTE   W08
 BYTE   An1
 BYTE   W08
 BYTE   An0
 BYTE   W08
 BYTE   N07
 BYTE   W08
 BYTE   N07
 BYTE   W16
 BYTE   An0  v024
 BYTE   W08
 BYTE   Gn0  v048
 BYTE   W08
 BYTE   Gn1
 BYTE   W08
 BYTE   Gn0
 BYTE   W08
 BYTE   PEND 
//  #13 //053   ----------------------------------------
Label_01540B14:
 BYTE   N07  Cn1  v048
 BYTE   W16
 BYTE   N07
 BYTE   W08
 BYTE   Cn2
 BYTE   W08
 BYTE   Cn1
 BYTE   W08
 BYTE   N07
 BYTE   W08
 BYTE   Cn2
 BYTE   W08
 BYTE   Cn1
 BYTE   W08
 BYTE   Cn2
 BYTE   W08
 BYTE   Cn1
 BYTE   W08
 BYTE   Cn2
 BYTE   W08
 BYTE   Cn1
 BYTE   W08
 BYTE   PEND 
//  #13 //054   ----------------------------------------
 BYTE   PATT
  POIN2 Label_01540A12
//  #13 //055   ----------------------------------------
 BYTE   PATT
  POIN2 Label_01540A12
//  #13 //056   ----------------------------------------
 BYTE   PATT
  POIN2 Label_01540A12
//  #13 //057   ----------------------------------------
 BYTE   PATT
  POIN2 Label_01540A12
//  #13 //058   ----------------------------------------
 BYTE   PATT
  POIN2 Label_01540AC9
//  #13 //059   ----------------------------------------
 BYTE   PATT
  POIN2 Label_01540AE2
//  #13 //060   ----------------------------------------
 BYTE   PATT
  POIN2 Label_01540AFB
//  #13 //061   ----------------------------------------
 BYTE   PATT
  POIN2 Label_01540B14
//  #13 //062   ----------------------------------------
 BYTE   PATT
  POIN2 Label_01540A12
//  #13 //063   ----------------------------------------
 BYTE   PATT
  POIN2 Label_01540A12
//  #13 //064   ----------------------------------------
 BYTE   PATT
  POIN2 Label_01540A12
//  #13 //065   ----------------------------------------
 BYTE   N07  An1  v048
 BYTE   W08
 BYTE   As1
 BYTE   W08
 BYTE   An1
 BYTE   W08
 BYTE   Gn1
 BYTE   W08
 BYTE   Fn1
 BYTE   W08
 BYTE   En1
 BYTE   W08
 BYTE   Cs1
 BYTE   W08
 BYTE   Dn1
 BYTE   W08
 BYTE   Cs1
 BYTE   W08
 BYTE   As0
 BYTE   W08
 BYTE   An0
 BYTE   W08
 BYTE   Gn0
 BYTE   W08
//  #13 //066   ----------------------------------------
 BYTE   PATT
  POIN2 Label_01540996
//  #13 //067   ----------------------------------------
 BYTE   PATT
  POIN2 Label_01540996
//  #13 //068   ----------------------------------------
 BYTE   N07  An0  v048
 BYTE   W16
 BYTE   N07
 BYTE   W08
 BYTE   An1
 BYTE   W08
 BYTE   An0
 BYTE   W08
 BYTE   N07
 BYTE   W08
 BYTE   Gn1
 BYTE   W16
 BYTE   N07
 BYTE   W08
 BYTE   Gn2
 BYTE   W08
 BYTE   Gn1
 BYTE   W08
 BYTE   N07
 BYTE   W08
//  #13 //069   ----------------------------------------
 BYTE   Fs1
 BYTE   W16
 BYTE   N07
 BYTE   W08
 BYTE   Fs2
 BYTE   W08
 BYTE   Fs1
 BYTE   W08
 BYTE   N07
 BYTE   W08
 BYTE   Dn1
 BYTE   W16
 BYTE   N07
 BYTE   W08
 BYTE   Dn2
 BYTE   W08
 BYTE   Dn1
 BYTE   W08
 BYTE   N07
 BYTE   W08
//  #13 //070   ----------------------------------------
Label_01540BB2:
 BYTE   N07  En1  v048
 BYTE   W16
 BYTE   N07
 BYTE   W08
 BYTE   En2
 BYTE   W08
 BYTE   En1
 BYTE   W08
 BYTE   N07
 BYTE   W08
 BYTE   Dn1
 BYTE   W16
 BYTE   N07
 BYTE   W08
 BYTE   Dn2
 BYTE   W08
 BYTE   Dn1
 BYTE   W08
 BYTE   N07
 BYTE   W08
 BYTE   PEND 
//  #13 //071   ----------------------------------------
 BYTE   Cs1
 BYTE   W16
 BYTE   N07
 BYTE   W08
 BYTE   Cs2
 BYTE   W08
 BYTE   Cs1
 BYTE   W08
 BYTE   N07
 BYTE   W08
 BYTE   An0
 BYTE   W16
 BYTE   N07
 BYTE   W08
 BYTE   An1
 BYTE   W08
 BYTE   An0
 BYTE   W08
 BYTE   N07
 BYTE   W08
//  #13 //072   ----------------------------------------
 BYTE   Dn1
 BYTE   W16
 BYTE   N07
 BYTE   W08
 BYTE   Dn2
 BYTE   W08
 BYTE   Dn1
 BYTE   W08
 BYTE   N07
 BYTE   W08
 BYTE   Cn1
 BYTE   W16
 BYTE   N07
 BYTE   W08
 BYTE   Cn2
 BYTE   W08
 BYTE   Cn1
 BYTE   W08
 BYTE   N07
 BYTE   W08
//  #13 //073   ----------------------------------------
 BYTE   Bn0
 BYTE   W16
 BYTE   N07
 BYTE   W08
 BYTE   Bn1
 BYTE   W08
 BYTE   Bn0
 BYTE   W08
 BYTE   N07
 BYTE   W08
 BYTE   An1
 BYTE   W16
 BYTE   N07
 BYTE   W08
 BYTE   An2
 BYTE   W08
 BYTE   An1
 BYTE   W08
 BYTE   N07
 BYTE   W08
//  #13 //074   ----------------------------------------
 BYTE   Gn1
 BYTE   W16
 BYTE   N07
 BYTE   W08
 BYTE   Gn2
 BYTE   W08
 BYTE   Gn1
 BYTE   W08
 BYTE   N07
 BYTE   W08
 BYTE   Fn1
 BYTE   W16
 BYTE   N07
 BYTE   W08
 BYTE   Fn2
 BYTE   W08
 BYTE   Fn1
 BYTE   W08
 BYTE   N07
 BYTE   W08
//  #13 //075   ----------------------------------------
 BYTE   PATT
  POIN2 Label_01540BB2
//  #13 //076   ----------------------------------------
 BYTE   N07  Cn1  v048
 BYTE   W16
 BYTE   N07
 BYTE   W08
 BYTE   Cn2
 BYTE   W08
 BYTE   Cn1
 BYTE   W08
 BYTE   N07
 BYTE   W08
 BYTE   Bn0
 BYTE   W16
 BYTE   N07
 BYTE   W08
 BYTE   Bn1
 BYTE   W08
 BYTE   Bn0
 BYTE   W08
 BYTE   N07
 BYTE   W08
//  #13 //077   ----------------------------------------
 BYTE   Fs1
 BYTE   W16
 BYTE   N07
 BYTE   W08
 BYTE   Fs2
 BYTE   W08
 BYTE   Fs1
 BYTE   W08
 BYTE   N07
 BYTE   W08
 BYTE   En1
 BYTE   W16
 BYTE   N07
 BYTE   W08
 BYTE   En2
 BYTE   W08
 BYTE   En1
 BYTE   W08
 BYTE   N07
 BYTE   W08
//  #13 //078   ----------------------------------------
 BYTE   Dn1
 BYTE   W16
 BYTE   N07
 BYTE   W08
 BYTE   Dn2
 BYTE   W08
 BYTE   Dn1
 BYTE   W08
 BYTE   N07
 BYTE   W08
 BYTE   En1
 BYTE   W16
 BYTE   N07
 BYTE   W08
 BYTE   En2
 BYTE   W08
 BYTE   En1
 BYTE   W08
 BYTE   N07
 BYTE   W08
//  #13 //079   ----------------------------------------
 BYTE   Fs1
 BYTE   W16
 BYTE   N07
 BYTE   W08
 BYTE   Fs2
 BYTE   W08
 BYTE   Fs1
 BYTE   W08
 BYTE   N07
 BYTE   W08
 BYTE   N07
 BYTE   W16
 BYTE   N07
 BYTE   W08
 BYTE   Fs2
 BYTE   W08
 BYTE   Fs1
 BYTE   W08
 BYTE   N07
 BYTE   W08
//  #13 //080   ----------------------------------------
 BYTE   N28  En1  v092
 BYTE   W48
 BYTE   N30  En0  v068
 BYTE   W48
//  #13 //081   ----------------------------------------
 BYTE   W72
 BYTE   N07
 BYTE   W08
 BYTE   Gn0
 BYTE   W08
 BYTE   Bn0
 BYTE   W08
//  #13 //082   ----------------------------------------
 BYTE   N24  Dn1  v084
 BYTE   W48
 BYTE   N30  Dn0  v072
 BYTE   W48
//  #13 //083   ----------------------------------------
 BYTE   W72
 BYTE   N07  Dn0  v068
 BYTE   W08
 BYTE   Fs0
 BYTE   W08
 BYTE   Bn0
 BYTE   W08
//  #13 //084   ----------------------------------------
 BYTE   N32  Cs1  v072
 BYTE   W48
 BYTE   Cs1  v068
 BYTE   W48
//  #13 //085   ----------------------------------------
 BYTE   W96
//  #13 //086   ----------------------------------------
Label_01540C98:
 BYTE   N32  Fs0  v072
 BYTE   W48
 BYTE   N32
 BYTE   W48
 BYTE   PEND 
//  #13 //087   ----------------------------------------
 BYTE   PATT
  POIN2 Label_01540C98
//  #13 //088   ----------------------------------------
 BYTE   N15  Fs0  v072
 BYTE   W24
 BYTE   N19
 BYTE   W24
 BYTE   N19
 BYTE   W24
 BYTE   N19
 BYTE   W24
//  #13 //089   ----------------------------------------
 BYTE   N03
 BYTE   W08
 BYTE   N03
 BYTE   W08
 BYTE   N03
 BYTE   W08
 BYTE   N03
 BYTE   W08
 BYTE   N03
 BYTE   W08
 BYTE   N03
 BYTE   W08
 BYTE   N03
 BYTE   W08
 BYTE   N03
 BYTE   W08
 BYTE   N03
 BYTE   W08
 BYTE   N03
 BYTE   W08
 BYTE   N03
 BYTE   W08
 BYTE   N03
 BYTE   W08
//  #13 //090   ----------------------------------------
 BYTE   PATT
  POIN2 Label_015409E4
//  #13 //091   ----------------------------------------
 BYTE   PATT
  POIN2 Label_015409E4
//  #13 //092   ----------------------------------------
 BYTE   PATT
  POIN2 Label_01540996
//  #13 //093   ----------------------------------------
 BYTE   PATT
  POIN2 Label_01540996
//  #13 //094   ----------------------------------------
 BYTE   N07  Cs1  v048
 BYTE   W16
 BYTE   N07
 BYTE   W08
 BYTE   Cs2
 BYTE   W08
 BYTE   Cs1
 BYTE   W08
 BYTE   N07
 BYTE   W08
 BYTE   N07
 BYTE   W16
 BYTE   N07
 BYTE   W08
 BYTE   Cs2
 BYTE   W08
 BYTE   Cs1
 BYTE   W08
 BYTE   N07
 BYTE   W08
//  #13 //095   ----------------------------------------
 BYTE   PATT
  POIN2 Label_01540996
//  #13 //096   ----------------------------------------
 BYTE   PATT
  POIN2 Label_015409E4
//  #13 //097   ----------------------------------------
 BYTE   N07  Fn1  v048
 BYTE   W16
 BYTE   N07
 BYTE   W08
 BYTE   Fn2
 BYTE   W08
 BYTE   Fn1
 BYTE   W08
 BYTE   N07
 BYTE   W08
 BYTE   N07
 BYTE   W16
 BYTE   N07
 BYTE   W08
 BYTE   Fn2
 BYTE   W08
 BYTE   Fn1
 BYTE   W08
 BYTE   N07
 BYTE   W08
//  #13 //098   ----------------------------------------
Label_01540D10:
 BYTE   N04  Fs1  v048
 BYTE   W08
 BYTE   N04
 BYTE   W08
 BYTE   N04
 BYTE   W08
 BYTE   N07
 BYTE   W48
 BYTE   N04
 BYTE   W08
 BYTE   N04
 BYTE   W08
 BYTE   N04
 BYTE   W08
 BYTE   PEND 
//  #13 //099   ----------------------------------------
 BYTE   N07
 BYTE   W96
//  #13 //100   ----------------------------------------
 BYTE   PATT
  POIN2 Label_01540D10
//  #13 //101   ----------------------------------------
 BYTE   N07  Fs1  v048
 BYTE   W96
//  #13 //102   ----------------------------------------
 BYTE   GoTo
  POIN2 Label_01540922
 BYTE   FINE

//**************** Track 14 (Midi-Chn.13) ****************//

TheirOwnBrandOfJustice_014:
//  #14 //000   ----------------------------------------
 BYTE   KEYSH   TheirOwnBrandOfJustice_key+0
Label_0153FD42:
 BYTE   VOICE   19
 BYTE   VOL   50*TheirOwnBrandOfJustice_mvl/mxv
 BYTE   PAN   c_v-62
 BYTE   W96
//  #14 //001   ----------------------------------------
 BYTE   W96
//  #14 //002   ----------------------------------------
 BYTE   W96
//  #14 //003   ----------------------------------------
 BYTE   W96
//  #14 //004   ----------------------------------------
 BYTE   W96
//  #14 //005   ----------------------------------------
 BYTE   W96
//  #14 //006   ----------------------------------------
 BYTE   W96
//  #14 //007   ----------------------------------------
 BYTE   W96
//  #14 //008   ----------------------------------------
 BYTE   W96
//  #14 //009   ----------------------------------------
 BYTE   W96
//  #14 //010   ----------------------------------------
 BYTE   W96
//  #14 //011   ----------------------------------------
 BYTE   W96
//  #14 //012   ----------------------------------------
 BYTE   W96
//  #14 //013   ----------------------------------------
 BYTE   W96
//  #14 //014   ----------------------------------------
 BYTE   W96
//  #14 //015   ----------------------------------------
 BYTE   W96
//  #14 //016   ----------------------------------------
 BYTE   W96
//  #14 //017   ----------------------------------------
 BYTE   W96
//  #14 //018   ----------------------------------------
 BYTE   W96
//  #14 //019   ----------------------------------------
 BYTE   W96
//  #14 //020   ----------------------------------------
 BYTE   W96
//  #14 //021   ----------------------------------------
 BYTE   W96
//  #14 //022   ----------------------------------------
 BYTE   W96
//  #14 //023   ----------------------------------------
 BYTE   W96
//  #14 //024   ----------------------------------------
 BYTE   W96
//  #14 //025   ----------------------------------------
 BYTE   W96
//  #14 //026   ----------------------------------------
 BYTE   W96
//  #14 //027   ----------------------------------------
 BYTE   W96
//  #14 //028   ----------------------------------------
 BYTE   W96
//  #14 //029   ----------------------------------------
 BYTE   W96
//  #14 //030   ----------------------------------------
 BYTE   W96
//  #14 //031   ----------------------------------------
 BYTE   W96
//  #14 //032   ----------------------------------------
 BYTE   W96
//  #14 //033   ----------------------------------------
 BYTE   W96
//  #14 //034   ----------------------------------------
 BYTE   W96
//  #14 //035   ----------------------------------------
 BYTE   W96
//  #14 //036   ----------------------------------------
 BYTE   W96
//  #14 //037   ----------------------------------------
 BYTE   W96
//  #14 //038   ----------------------------------------
 BYTE   W96
//  #14 //039   ----------------------------------------
 BYTE   W96
//  #14 //040   ----------------------------------------
 BYTE   W96
//  #14 //041   ----------------------------------------
 BYTE   W96
//  #14 //042   ----------------------------------------
 BYTE   W96
//  #14 //043   ----------------------------------------
 BYTE   W96
//  #14 //044   ----------------------------------------
 BYTE   W96
//  #14 //045   ----------------------------------------
 BYTE   W96
//  #14 //046   ----------------------------------------
 BYTE   W96
//  #14 //047   ----------------------------------------
 BYTE   W96
//  #14 //048   ----------------------------------------
 BYTE   W96
//  #14 //049   ----------------------------------------
 BYTE   W96
//  #14 //050   ----------------------------------------
 BYTE   N54  Fn2  v060
 BYTE   N54  An2
 BYTE   N54  Dn3
 BYTE   W08
 BYTE   W64
 BYTE   N15  En2
 BYTE   N15  Gn2
 BYTE   N15  Cn3
 BYTE   W24
//  #14 //051   ----------------------------------------
Label_0153FD8A:
 BYTE   N78  An2  v060
 BYTE   N78  Cn3
 BYTE   N78  Fn3
 BYTE   W96
 BYTE   PEND 
//  #14 //052   ----------------------------------------
Label_0153FD93:
 BYTE   N54  En2  v060
 BYTE   N54  An2
 BYTE   N54  Cn3
 BYTE   W72
 BYTE   N15  Dn2
 BYTE   N15  Gn2
 BYTE   N15  Bn2
 BYTE   W24
 BYTE   PEND 
//  #14 //053   ----------------------------------------
Label_0153FDA3:
 BYTE   N78  Gn2  v060
 BYTE   N78  Cn3
 BYTE   N78  En3
 BYTE   W96
 BYTE   PEND 
//  #14 //054   ----------------------------------------
Label_0153FDAC:
 BYTE   N30  An2  v060
 BYTE   N30  Cn3
 BYTE   N32  En3
 BYTE   W48
 BYTE   An2
 BYTE   N32  Cs3
 BYTE   N36  En3
 BYTE   W48
 BYTE   PEND 
//  #14 //055   ----------------------------------------
Label_0153FDBB:
 BYTE   N30  An2  v060
 BYTE   N32  Cn3
 BYTE   N32  En3
 BYTE   W48
 BYTE   N28  An2
 BYTE   N32  Cs3
 BYTE   N30  En3
 BYTE   W48
 BYTE   PEND 
//  #14 //056   ----------------------------------------
Label_0153FDCB:
 BYTE   N32  An2  v060
 BYTE   N32  Cn3
 BYTE   N32  En3
 BYTE   W48
 BYTE   N28  An2
 BYTE   N30  Cs3
 BYTE   N32  En3
 BYTE   W48
 BYTE   PEND 
//  #14 //057   ----------------------------------------
 BYTE   N30  An2
 BYTE   N30  Cn3
 BYTE   N32  En3
 BYTE   W48
 BYTE   N28  An2
 BYTE   N30  Cs3
 BYTE   N28  En3
 BYTE   W48
//  #14 //058   ----------------------------------------
 BYTE   N54  Fn2
 BYTE   N54  An2
 BYTE   N54  Dn3
 BYTE   W72
 BYTE   N15  En2
 BYTE   N15  Gn2
 BYTE   N15  Cn3
 BYTE   W24
//  #14 //059   ----------------------------------------
 BYTE   PATT
  POIN2 Label_0153FD8A
//  #14 //060   ----------------------------------------
 BYTE   PATT
  POIN2 Label_0153FD93
//  #14 //061   ----------------------------------------
 BYTE   PATT
  POIN2 Label_0153FDA3
//  #14 //062   ----------------------------------------
 BYTE   PATT
  POIN2 Label_0153FDAC
//  #14 //063   ----------------------------------------
 BYTE   PATT
  POIN2 Label_0153FDBB
//  #14 //064   ----------------------------------------
 BYTE   PATT
  POIN2 Label_0153FDCB
//  #14 //065   ----------------------------------------
 BYTE   W44
 BYTE   W03
 BYTE   N07  Cs3  v060
 BYTE   W08
 BYTE   Dn3
 BYTE   W08
 BYTE   Cs3
 BYTE   W08
 BYTE   As2
 BYTE   W08
 BYTE   An2
 BYTE   W08
 BYTE   Gn2  v032
 BYTE   W09
//  #14 //066   ----------------------------------------
 BYTE   W96
//  #14 //067   ----------------------------------------
 BYTE   W96
//  #14 //068   ----------------------------------------
 BYTE   W96
//  #14 //069   ----------------------------------------
 BYTE   W96
//  #14 //070   ----------------------------------------
 BYTE   W96
//  #14 //071   ----------------------------------------
 BYTE   W96
//  #14 //072   ----------------------------------------
 BYTE   W24
 BYTE   Fn3  v072
 BYTE   W08
 BYTE   An3
 BYTE   W08
 BYTE   Dn4
 BYTE   W08
 BYTE   N19  Fn4  v088
 BYTE   W48
//  #14 //073   ----------------------------------------
 BYTE   W24
 BYTE   N07  Fs3  v072
 BYTE   W08
 BYTE   Bn3
 BYTE   W08
 BYTE   Ds4
 BYTE   W08
 BYTE   N15  Fs4  v088
 BYTE   W48
//  #14 //074   ----------------------------------------
 BYTE   W24
 BYTE   N07  Gn3  v072
 BYTE   W08
 BYTE   Bn3
 BYTE   W08
 BYTE   Dn4
 BYTE   W08
 BYTE   N15  Gn4  v088
 BYTE   W48
//  #14 //075   ----------------------------------------
 BYTE   W24
 BYTE   N07  Gs3  v072
 BYTE   W08
 BYTE   Bn3
 BYTE   W08
 BYTE   En4
 BYTE   W08
 BYTE   N15  Gs4  v088
 BYTE   W48
//  #14 //076   ----------------------------------------
 BYTE   W24
 BYTE   N07  An3  v072
 BYTE   W08
 BYTE   Cn4
 BYTE   W08
 BYTE   En4
 BYTE   W08
 BYTE   N15  An4  v088
 BYTE   W48
//  #14 //077   ----------------------------------------
 BYTE   W24
 BYTE   N07  As3  v072
 BYTE   W08
 BYTE   Cs4
 BYTE   W08
 BYTE   Fs4
 BYTE   W08
 BYTE   N15  As4  v088
 BYTE   W48
//  #14 //078   ----------------------------------------
 BYTE   W96
//  #14 //079   ----------------------------------------
 BYTE   W96
//  #14 //080   ----------------------------------------
 BYTE   W96
//  #14 //081   ----------------------------------------
 BYTE   W96
//  #14 //082   ----------------------------------------
 BYTE   W96
//  #14 //083   ----------------------------------------
 BYTE   W96
//  #14 //084   ----------------------------------------
 BYTE   W96
//  #14 //085   ----------------------------------------
 BYTE   W96
//  #14 //086   ----------------------------------------
 BYTE   W96
//  #14 //087   ----------------------------------------
 BYTE   W96
//  #14 //088   ----------------------------------------
 BYTE   W96
//  #14 //089   ----------------------------------------
 BYTE   W96
//  #14 //090   ----------------------------------------
 BYTE   W96
//  #14 //091   ----------------------------------------
 BYTE   W96
//  #14 //092   ----------------------------------------
 BYTE   W96
//  #14 //093   ----------------------------------------
 BYTE   W96
//  #14 //094   ----------------------------------------
 BYTE   W96
//  #14 //095   ----------------------------------------
 BYTE   W96
//  #14 //096   ----------------------------------------
 BYTE   W96
//  #14 //097   ----------------------------------------
 BYTE   W96
//  #14 //098   ----------------------------------------
 BYTE   W96
//  #14 //099   ----------------------------------------
 BYTE   W96
//  #14 //100   ----------------------------------------
 BYTE   W96
//  #14 //101   ----------------------------------------
 BYTE   W96
//  #14 //102   ----------------------------------------
 BYTE   GoTo
  POIN2 Label_0153FD42
 BYTE   FINE

//**************** Track 15 (Midi-Chn.14) ****************//

TheirOwnBrandOfJustice_015:
//  #15 //000   ----------------------------------------
 BYTE   KEYSH   TheirOwnBrandOfJustice_key+0
Label_01540DDA:
 BYTE   VOICE   104
 BYTE   VOL   55*TheirOwnBrandOfJustice_mvl/mxv
 BYTE   PAN   c_v+0
 BYTE   W96
//  #15 //001   ----------------------------------------
 BYTE   W96
//  #15 //002   ----------------------------------------
 BYTE   W96
//  #15 //003   ----------------------------------------
 BYTE   W96
//  #15 //004   ----------------------------------------
 BYTE   W96
//  #15 //005   ----------------------------------------
 BYTE   W96
//  #15 //006   ----------------------------------------
 BYTE   W96
//  #15 //007   ----------------------------------------
 BYTE   W96
//  #15 //008   ----------------------------------------
 BYTE   W96
//  #15 //009   ----------------------------------------
 BYTE   W96
//  #15 //010   ----------------------------------------
 BYTE   W96
//  #15 //011   ----------------------------------------
 BYTE   W96
//  #15 //012   ----------------------------------------
 BYTE   W96
//  #15 //013   ----------------------------------------
 BYTE   W96
//  #15 //014   ----------------------------------------
 BYTE   W96
//  #15 //015   ----------------------------------------
 BYTE   W96
//  #15 //016   ----------------------------------------
 BYTE   W96
//  #15 //017   ----------------------------------------
 BYTE   W96
//  #15 //018   ----------------------------------------
 BYTE   W96
//  #15 //019   ----------------------------------------
 BYTE   W96
//  #15 //020   ----------------------------------------
 BYTE   W96
//  #15 //021   ----------------------------------------
 BYTE   W96
//  #15 //022   ----------------------------------------
 BYTE   W96
//  #15 //023   ----------------------------------------
 BYTE   W96
//  #15 //024   ----------------------------------------
 BYTE   W96
//  #15 //025   ----------------------------------------
 BYTE   W96
//  #15 //026   ----------------------------------------
 BYTE   W48
 BYTE   N07  Dn3  v072
 BYTE   W08
 BYTE   Fn3
 BYTE   W08
 BYTE   An3
 BYTE   W08
 BYTE   N23  Dn4
 BYTE   W24
//  #15 //027   ----------------------------------------
 BYTE   N07  Dn3  v036
 BYTE   W08
 BYTE   Fn3
 BYTE   W08
 BYTE   An3
 BYTE   W08
 BYTE   N23  Dn4
 BYTE   W24
 BYTE   N07  Dn3  v016
 BYTE   W08
 BYTE   Fn3
 BYTE   W08
 BYTE   An3
 BYTE   W08
 BYTE   N23  Dn4
 BYTE   W24
//  #15 //028   ----------------------------------------
 BYTE   N60  Dn4  v072
 BYTE   W96
//  #15 //029   ----------------------------------------
 BYTE   N68  Cn4
 BYTE   W96
//  #15 //030   ----------------------------------------
 BYTE   W48
 BYTE   N07  As2
 BYTE   W08
 BYTE   Dn3
 BYTE   W08
 BYTE   Fn3
 BYTE   W08
 BYTE   N23  As3
 BYTE   W24
//  #15 //031   ----------------------------------------
 BYTE   N07  As2  v036
 BYTE   W08
 BYTE   Dn3
 BYTE   W08
 BYTE   Fn3
 BYTE   W08
 BYTE   N23  As3
 BYTE   W24
 BYTE   N07  As2  v016
 BYTE   W08
 BYTE   Dn3
 BYTE   W08
 BYTE   Fn3
 BYTE   W08
 BYTE   N23  As3
 BYTE   W24
//  #15 //032   ----------------------------------------
 BYTE   N68  As3  v072
 BYTE   W96
//  #15 //033   ----------------------------------------
 BYTE   N84  An3
 BYTE   W96
//  #15 //034   ----------------------------------------
 BYTE   W48
 BYTE   N07  An2
 BYTE   W08
 BYTE   Cn3
 BYTE   W08
 BYTE   Fs3
 BYTE   W08
 BYTE   N23  An3
 BYTE   W24
//  #15 //035   ----------------------------------------
 BYTE   N07  An2  v036
 BYTE   W08
 BYTE   Cn3
 BYTE   W08
 BYTE   Fs3
 BYTE   W08
 BYTE   N23  An3
 BYTE   W24
 BYTE   N07  An2  v016
 BYTE   W08
 BYTE   Cn3
 BYTE   W08
 BYTE   Fs3
 BYTE   W08
 BYTE   N23  An3
 BYTE   W24
//  #15 //036   ----------------------------------------
 BYTE   N68  Fs3  v072
 BYTE   W96
//  #15 //037   ----------------------------------------
 BYTE   Gn3
 BYTE   W96
//  #15 //038   ----------------------------------------
 BYTE   W48
 BYTE   N07  Gs3
 BYTE   W08
 BYTE   Bn3
 BYTE   W08
 BYTE   Dn4
 BYTE   W08
 BYTE   N23  Fn4
 BYTE   W24
//  #15 //039   ----------------------------------------
 BYTE   N07  Gs3  v036
 BYTE   W08
 BYTE   Bn3
 BYTE   W08
 BYTE   Dn4
 BYTE   W08
 BYTE   N23  Fn4
 BYTE   W24
 BYTE   N15  Fn4  v072
 BYTE   W16
 BYTE   En4
 BYTE   W16
 BYTE   N07  Dn4
 BYTE   W16
//  #15 //040   ----------------------------------------
 BYTE   N84  An4
 BYTE   W96
//  #15 //041   ----------------------------------------
 BYTE   W96
//  #15 //042   ----------------------------------------
 BYTE   N07  Dn3
 BYTE   W08
 BYTE   Fn3
 BYTE   W08
 BYTE   An3
 BYTE   W08
 BYTE   Dn4
 BYTE   W08
 BYTE   An3
 BYTE   W08
 BYTE   Fn3
 BYTE   W08
 BYTE   Dn3
 BYTE   W08
 BYTE   Fn3
 BYTE   W08
 BYTE   An3
 BYTE   W08
 BYTE   Dn4
 BYTE   W08
 BYTE   An3
 BYTE   W08
 BYTE   Fn3
 BYTE   W08
//  #15 //043   ----------------------------------------
 BYTE   Dn3
 BYTE   W08
 BYTE   Gn3
 BYTE   W08
 BYTE   As3
 BYTE   W08
 BYTE   Dn4
 BYTE   W08
 BYTE   As3
 BYTE   W08
 BYTE   Gn3
 BYTE   W08
 BYTE   Dn3
 BYTE   W08
 BYTE   Gn3
 BYTE   W08
 BYTE   As3
 BYTE   W08
 BYTE   Dn4
 BYTE   W08
 BYTE   As3
 BYTE   W08
 BYTE   Gn3
 BYTE   W08
//  #15 //044   ----------------------------------------
 BYTE   En3
 BYTE   W08
 BYTE   Gn3
 BYTE   W08
 BYTE   As3
 BYTE   W08
 BYTE   Cs4
 BYTE   W08
 BYTE   As3
 BYTE   W08
 BYTE   Gn3
 BYTE   W08
 BYTE   En3
 BYTE   W08
 BYTE   Gn3
 BYTE   W08
 BYTE   As3
 BYTE   W08
 BYTE   Cs4
 BYTE   W08
 BYTE   As3
 BYTE   W08
 BYTE   Gn3
 BYTE   W08
//  #15 //045   ----------------------------------------
 BYTE   Fs3
 BYTE   W08
 BYTE   An3
 BYTE   W08
 BYTE   Cn4
 BYTE   W08
 BYTE   Ds4
 BYTE   W08
 BYTE   Cn4
 BYTE   W08
 BYTE   An3
 BYTE   W08
 BYTE   Fs3
 BYTE   W08
 BYTE   An3
 BYTE   W08
 BYTE   Cn4
 BYTE   W08
 BYTE   Ds4
 BYTE   W08
 BYTE   Cn4
 BYTE   W08
 BYTE   An3
 BYTE   W08
//  #15 //046   ----------------------------------------
 BYTE   Fn3
 BYTE   W08
 BYTE   Gs3
 BYTE   W08
 BYTE   Bn3
 BYTE   W08
 BYTE   Dn4
 BYTE   W08
 BYTE   Bn3
 BYTE   W08
 BYTE   Gs3
 BYTE   W08
 BYTE   Fn3
 BYTE   W08
 BYTE   Gs3
 BYTE   W08
 BYTE   Bn3
 BYTE   W08
 BYTE   Dn4
 BYTE   W08
 BYTE   Bn3
 BYTE   W08
 BYTE   Fn3
 BYTE   W08
//  #15 //047   ----------------------------------------
 BYTE   Gs3
 BYTE   W08
 BYTE   Bn3
 BYTE   W08
 BYTE   Dn4
 BYTE   W08
 BYTE   Fn4
 BYTE   W08
 BYTE   Dn4
 BYTE   W08
 BYTE   Bn3
 BYTE   W08
 BYTE   Gs3
 BYTE   W08
 BYTE   Bn3
 BYTE   W08
 BYTE   Dn4
 BYTE   W08
 BYTE   Fn4
 BYTE   W08
 BYTE   Dn4
 BYTE   W08
 BYTE   Bn3
 BYTE   W08
//  #15 //048   ----------------------------------------
 BYTE   N07
 BYTE   W08
 BYTE   Dn4
 BYTE   W08
 BYTE   Fn4
 BYTE   W08
 BYTE   Gs4
 BYTE   W08
 BYTE   Fn4
 BYTE   W08
 BYTE   Dn4
 BYTE   W08
 BYTE   Bn3
 BYTE   W08
 BYTE   Dn4
 BYTE   W08
 BYTE   Fn4
 BYTE   W08
 BYTE   Gs4
 BYTE   W08
 BYTE   Fn4
 BYTE   W08
 BYTE   Dn4
 BYTE   W08
//  #15 //049   ----------------------------------------
 BYTE   An3
 BYTE   W08
 BYTE   Cs4
 BYTE   W08
 BYTE   En4
 BYTE   W08
 BYTE   An4
 BYTE   W08
 BYTE   En4
 BYTE   W08
 BYTE   Cs4
 BYTE   W08
 BYTE   An3
 BYTE   W08
 BYTE   Cs4
 BYTE   W08
 BYTE   En4
 BYTE   W08
 BYTE   An4
 BYTE   W08
 BYTE   En4
 BYTE   W08
 BYTE   Cs4
 BYTE   W08
//  #15 //050   ----------------------------------------
 BYTE   W96
//  #15 //051   ----------------------------------------
 BYTE   W96
//  #15 //052   ----------------------------------------
 BYTE   W96
//  #15 //053   ----------------------------------------
 BYTE   W96
//  #15 //054   ----------------------------------------
 BYTE   W96
//  #15 //055   ----------------------------------------
 BYTE   W96
//  #15 //056   ----------------------------------------
 BYTE   W96
//  #15 //057   ----------------------------------------
 BYTE   W96
//  #15 //058   ----------------------------------------
 BYTE   W96
//  #15 //059   ----------------------------------------
 BYTE   W96
//  #15 //060   ----------------------------------------
 BYTE   W96
//  #15 //061   ----------------------------------------
 BYTE   W96
//  #15 //062   ----------------------------------------
 BYTE   W96
//  #15 //063   ----------------------------------------
 BYTE   W96
//  #15 //064   ----------------------------------------
 BYTE   W96
//  #15 //065   ----------------------------------------
 BYTE   W96
//  #15 //066   ----------------------------------------
 BYTE   An3  v052
 BYTE   W08
 BYTE   Fn3
 BYTE   W08
 BYTE   Dn3
 BYTE   W08
 BYTE   An3
 BYTE   W08
 BYTE   Fn3
 BYTE   W08
 BYTE   Dn3
 BYTE   W08
 BYTE   An3
 BYTE   W08
 BYTE   Fn3
 BYTE   W08
 BYTE   Dn3
 BYTE   W08
 BYTE   An3
 BYTE   W08
 BYTE   Fn3
 BYTE   W08
 BYTE   Dn3
 BYTE   W08
//  #15 //067   ----------------------------------------
 BYTE   As3
 BYTE   W08
 BYTE   Gn3
 BYTE   W08
 BYTE   Dn3
 BYTE   W08
 BYTE   As3
 BYTE   W08
 BYTE   Gn3
 BYTE   W08
 BYTE   Dn3
 BYTE   W08
 BYTE   As3
 BYTE   W08
 BYTE   Gn3
 BYTE   W08
 BYTE   Dn3
 BYTE   W08
 BYTE   As3
 BYTE   W08
 BYTE   Gn3
 BYTE   W08
 BYTE   Dn3
 BYTE   W08
//  #15 //068   ----------------------------------------
Label_01540F97:
 BYTE   N07  An3  v052
 BYTE   W08
 BYTE   En3
 BYTE   W08
 BYTE   Cs3
 BYTE   W08
 BYTE   An3
 BYTE   W08
 BYTE   En3
 BYTE   W08
 BYTE   Cs3
 BYTE   W08
 BYTE   An3
 BYTE   W08
 BYTE   En3
 BYTE   W08
 BYTE   Cs3
 BYTE   W08
 BYTE   An3
 BYTE   W08
 BYTE   En3
 BYTE   W08
 BYTE   Cs3
 BYTE   W08
 BYTE   PEND 
//  #15 //069   ----------------------------------------
 BYTE   An3
 BYTE   W08
 BYTE   Fs3
 BYTE   W08
 BYTE   Dn3
 BYTE   W08
 BYTE   An3
 BYTE   W08
 BYTE   Fs3
 BYTE   W08
 BYTE   Dn3
 BYTE   W08
 BYTE   An3
 BYTE   W08
 BYTE   Fs3
 BYTE   W08
 BYTE   Dn3
 BYTE   W08
 BYTE   An3
 BYTE   W08
 BYTE   Fs3
 BYTE   W08
 BYTE   Dn3
 BYTE   W08
//  #15 //070   ----------------------------------------
 BYTE   Gn3
 BYTE   W08
 BYTE   Dn3
 BYTE   W08
 BYTE   As2
 BYTE   W08
 BYTE   Gn3
 BYTE   W08
 BYTE   Dn3
 BYTE   W08
 BYTE   As2
 BYTE   W08
 BYTE   Gn3
 BYTE   W08
 BYTE   Dn3
 BYTE   W08
 BYTE   As2
 BYTE   W08
 BYTE   Gn3
 BYTE   W08
 BYTE   Dn3
 BYTE   W08
 BYTE   As2
 BYTE   W08
//  #15 //071   ----------------------------------------
 BYTE   PATT
  POIN2 Label_01540F97
//  #15 //072   ----------------------------------------
 BYTE   N07  Fn3  v064
 BYTE   W08
 BYTE   Dn3
 BYTE   W08
 BYTE   An2
 BYTE   W08
 BYTE   Fn3
 BYTE   W08
 BYTE   Dn3
 BYTE   W08
 BYTE   An2
 BYTE   W08
 BYTE   Fn3
 BYTE   W08
 BYTE   Dn3
 BYTE   W08
 BYTE   An2
 BYTE   W08
 BYTE   Fn3
 BYTE   W08
 BYTE   Dn3
 BYTE   W08
 BYTE   An2
 BYTE   W08
//  #15 //073   ----------------------------------------
 BYTE   Fs3
 BYTE   W08
 BYTE   Ds3
 BYTE   W08
 BYTE   Bn2
 BYTE   W08
 BYTE   Fs3
 BYTE   W08
 BYTE   Ds3
 BYTE   W08
 BYTE   Bn2
 BYTE   W08
 BYTE   Fs3
 BYTE   W08
 BYTE   Ds3
 BYTE   W08
 BYTE   Bn2
 BYTE   W08
 BYTE   Fs3
 BYTE   W08
 BYTE   Ds3
 BYTE   W08
 BYTE   Bn2
 BYTE   W08
//  #15 //074   ----------------------------------------
 BYTE   Gn3
 BYTE   W08
 BYTE   Dn3
 BYTE   W08
 BYTE   Bn2
 BYTE   W08
 BYTE   Gn3
 BYTE   W08
 BYTE   Dn3
 BYTE   W08
 BYTE   Bn2
 BYTE   W08
 BYTE   Gn3
 BYTE   W08
 BYTE   Dn3
 BYTE   W08
 BYTE   Bn2
 BYTE   W08
 BYTE   Gn3
 BYTE   W08
 BYTE   Dn3
 BYTE   W08
 BYTE   Bn2
 BYTE   W08
//  #15 //075   ----------------------------------------
 BYTE   Gs3
 BYTE   W08
 BYTE   En3
 BYTE   W08
 BYTE   Bn2
 BYTE   W08
 BYTE   Gs3
 BYTE   W08
 BYTE   En3
 BYTE   W08
 BYTE   Bn2
 BYTE   W08
 BYTE   Gs3
 BYTE   W08
 BYTE   En3
 BYTE   W08
 BYTE   Bn2
 BYTE   W08
 BYTE   Gs3
 BYTE   W08
 BYTE   En3
 BYTE   W08
 BYTE   Bn2
 BYTE   W08
//  #15 //076   ----------------------------------------
 BYTE   An3
 BYTE   W08
 BYTE   En3
 BYTE   W08
 BYTE   Cn3
 BYTE   W08
 BYTE   An3
 BYTE   W08
 BYTE   En3
 BYTE   W08
 BYTE   Cn3
 BYTE   W08
 BYTE   An3
 BYTE   W08
 BYTE   En3
 BYTE   W08
 BYTE   Cn3
 BYTE   W08
 BYTE   An3
 BYTE   W08
 BYTE   En3
 BYTE   W08
 BYTE   Cn3
 BYTE   W08
//  #15 //077   ----------------------------------------
 BYTE   As3
 BYTE   W08
 BYTE   Fs3
 BYTE   W08
 BYTE   Cs3
 BYTE   W08
 BYTE   As3
 BYTE   W08
 BYTE   Fs3
 BYTE   W08
 BYTE   Cs3
 BYTE   W08
 BYTE   As3
 BYTE   W08
 BYTE   Fs3
 BYTE   W08
 BYTE   Cs3
 BYTE   W08
 BYTE   As3
 BYTE   W08
 BYTE   Fs3
 BYTE   W08
 BYTE   Cs3
 BYTE   W08
//  #15 //078   ----------------------------------------
 BYTE   Bn3
 BYTE   W08
 BYTE   Fs3
 BYTE   W08
 BYTE   Dn3
 BYTE   W08
 BYTE   Bn3
 BYTE   W08
 BYTE   Fs3
 BYTE   W08
 BYTE   Dn3
 BYTE   W08
 BYTE   Bn3
 BYTE   W08
 BYTE   Gn3
 BYTE   W08
 BYTE   En3
 BYTE   W08
 BYTE   Bn3
 BYTE   W08
 BYTE   Gn3
 BYTE   W08
 BYTE   En3
 BYTE   W08
//  #15 //079   ----------------------------------------
 BYTE   Bn3
 BYTE   W08
 BYTE   Fs3
 BYTE   W08
 BYTE   Dn3
 BYTE   W08
 BYTE   Bn3
 BYTE   W08
 BYTE   Fs3
 BYTE   W08
 BYTE   Dn3
 BYTE   W08
 BYTE   As3
 BYTE   W08
 BYTE   Fs3
 BYTE   W08
 BYTE   Cs3
 BYTE   W08
 BYTE   As3
 BYTE   W08
 BYTE   Fs3
 BYTE   W08
 BYTE   Cs3
 BYTE   W08
//  #15 //080   ----------------------------------------
 BYTE   W96
//  #15 //081   ----------------------------------------
 BYTE   En4
 BYTE   W08
 BYTE   Dn4
 BYTE   W08
 BYTE   Cs4
 BYTE   W08
 BYTE   Bn3
 BYTE   W08
 BYTE   An3
 BYTE   W08
 BYTE   Gn3
 BYTE   W08
 BYTE   N07
 BYTE   W08
 BYTE   Fs3
 BYTE   W08
 BYTE   En3
 BYTE   W08
 BYTE   N07
 BYTE   W08
 BYTE   Dn3
 BYTE   W08
 BYTE   Cs3
 BYTE   W08
//  #15 //082   ----------------------------------------
 BYTE   W96
//  #15 //083   ----------------------------------------
 BYTE   Fs4
 BYTE   W08
 BYTE   En4
 BYTE   W08
 BYTE   Dn4
 BYTE   W08
 BYTE   N07
 BYTE   W08
 BYTE   Cs4
 BYTE   W08
 BYTE   Bn3
 BYTE   W08
 BYTE   N07
 BYTE   W08
 BYTE   An3
 BYTE   W08
 BYTE   Gn3
 BYTE   W08
 BYTE   Fs3
 BYTE   W08
 BYTE   En3
 BYTE   W08
 BYTE   Dn3
 BYTE   W08
//  #15 //084   ----------------------------------------
 BYTE   W96
//  #15 //085   ----------------------------------------
 BYTE   Cs3
 BYTE   W08
 BYTE   Cn3
 BYTE   W08
 BYTE   Cs3
 BYTE   W08
 BYTE   Ds3
 BYTE   W08
 BYTE   Fn3
 BYTE   W08
 BYTE   Fs3
 BYTE   W08
 BYTE   Gs3
 BYTE   W08
 BYTE   Gn3
 BYTE   W08
 BYTE   Gs3
 BYTE   W08
 BYTE   As3
 BYTE   W08
 BYTE   Bn3
 BYTE   W08
 BYTE   Cs4
 BYTE   W08
//  #15 //086   ----------------------------------------
 BYTE   W96
//  #15 //087   ----------------------------------------
 BYTE   W96
//  #15 //088   ----------------------------------------
 BYTE   Dn4
 BYTE   W08
 BYTE   Bn3
 BYTE   W08
 BYTE   Fs3
 BYTE   W08
 BYTE   Bn3
 BYTE   W08
 BYTE   Dn4
 BYTE   W08
 BYTE   Fs4
 BYTE   W08
 BYTE   Bn4
 BYTE   W08
 BYTE   Fs4
 BYTE   W08
 BYTE   Dn4
 BYTE   W08
 BYTE   Bn3
 BYTE   W08
 BYTE   Fs3
 BYTE   W08
 BYTE   Dn3
 BYTE   W08
//  #15 //089   ----------------------------------------
 BYTE   Cs4
 BYTE   W08
 BYTE   As3
 BYTE   W08
 BYTE   Fs3
 BYTE   W08
 BYTE   As3
 BYTE   W08
 BYTE   Cs4
 BYTE   W08
 BYTE   Fs4
 BYTE   W08
 BYTE   As4
 BYTE   W08
 BYTE   Fs4
 BYTE   W08
 BYTE   Cs4
 BYTE   W08
 BYTE   As3
 BYTE   W08
 BYTE   Fs3
 BYTE   W08
 BYTE   Cs3
 BYTE   W08
//  #15 //090   ----------------------------------------
 BYTE   W96
//  #15 //091   ----------------------------------------
 BYTE   W96
//  #15 //092   ----------------------------------------
 BYTE   W96
//  #15 //093   ----------------------------------------
 BYTE   W96
//  #15 //094   ----------------------------------------
 BYTE   W96
//  #15 //095   ----------------------------------------
 BYTE   W96
//  #15 //096   ----------------------------------------
 BYTE   W96
//  #15 //097   ----------------------------------------
 BYTE   W96
//  #15 //098   ----------------------------------------
 BYTE   W96
//  #15 //099   ----------------------------------------
 BYTE   W96
//  #15 //100   ----------------------------------------
 BYTE   W96
//  #15 //101   ----------------------------------------
 BYTE   W96
//  #15 //102   ----------------------------------------
 BYTE   GoTo
  POIN2 Label_01540DDA
 BYTE   FINE

//******************************************************//
	ALIGN 4

TheirOwnBrandOfJustice:
	BYTE	14	// NumTrks
	BYTE	0	// NumBlks
	BYTE	TheirOwnBrandOfJustice_pri	// Priority
	BYTE	TheirOwnBrandOfJustice_rev	// Reverb.
    
	POIN2	TheirOwnBrandOfJustice_grp
    
	POIN2	TheirOwnBrandOfJustice_001
	POIN2	TheirOwnBrandOfJustice_002
	POIN2	TheirOwnBrandOfJustice_003
	POIN2	TheirOwnBrandOfJustice_004
	POIN2	TheirOwnBrandOfJustice_005
	POIN2	TheirOwnBrandOfJustice_006
	POIN2	TheirOwnBrandOfJustice_008
	POIN2	TheirOwnBrandOfJustice_009
	POIN2	TheirOwnBrandOfJustice_010
	POIN2	TheirOwnBrandOfJustice_011
	POIN2	TheirOwnBrandOfJustice_012
	POIN2	TheirOwnBrandOfJustice_013
	POIN2	TheirOwnBrandOfJustice_014
	POIN2	TheirOwnBrandOfJustice_015

	
