//Event file generated from Sappy .s format.
	#include "MPlayDef.event"

	#define	TheOnlyThingTheyFearIsYou_grp  voicegroup000
	#define	TheOnlyThingTheyFearIsYou_pri  0
	#define	TheOnlyThingTheyFearIsYou_rev  0
	#define	TheOnlyThingTheyFearIsYou_mvl  127
	#define	TheOnlyThingTheyFearIsYou_key  0
	#define	TheOnlyThingTheyFearIsYou_tbs  1
	#define	TheOnlyThingTheyFearIsYou_exg  0
	#define	TheOnlyThingTheyFearIsYou_cmp  1

	// .rodata
	//	TheOnlyThingTheyFearIsYou
	ALIGN 4


//**************** Track 1 (Midi-Chn.0) ****************//

TheOnlyThingTheyFearIsYou_001:
//  #01 //000   ----------------------------------------
 BYTE   KEYSH   TheOnlyThingTheyFearIsYou_key+0
Label_0160C79A:
 BYTE   TEMPO   100*TheOnlyThingTheyFearIsYou_tbs/2
 BYTE   VOICE   30
 BYTE   PAN   c_v+0
 BYTE   VOL   61*TheOnlyThingTheyFearIsYou_mvl/mxv
 BYTE   PAN   c_v+0
 BYTE   VOL   61*TheOnlyThingTheyFearIsYou_mvl/mxv
 BYTE   PAN   c_v+0
 BYTE   VOL   61*TheOnlyThingTheyFearIsYou_mvl/mxv
 BYTE   PAN   c_v+0
 BYTE   VOL   61*TheOnlyThingTheyFearIsYou_mvl/mxv
 BYTE   BEND   c_v+0
 BYTE   N12  Ds3  v100
 BYTE   W12
 BYTE   Ds2
 BYTE   W18
 BYTE   N12
 BYTE   W18
 BYTE   N12
 BYTE   W18
 BYTE   N12
 BYTE   W18
 BYTE   N06  Ds3
 BYTE   W06
 BYTE   En3
 BYTE   W06
//  #01 //001   ----------------------------------------
Label_0160C7C1:
 BYTE   N12  Ds3  v100
 BYTE   W12
 BYTE   Ds2
 BYTE   W18
 BYTE   N12
 BYTE   W18
 BYTE   En2
 BYTE   W18
 BYTE   N30  En3
 BYTE   W30
 BYTE   PEND 
//  #01 //002   ----------------------------------------
Label_0160C7CF:
 BYTE   N12  Ds3  v100
 BYTE   W12
 BYTE   Ds2
 BYTE   W18
 BYTE   N12
 BYTE   W18
 BYTE   N12
 BYTE   W12
 BYTE   N06
 BYTE   W06
 BYTE   N12
 BYTE   W18
 BYTE   N06  Ds3
 BYTE   W06
 BYTE   En3
 BYTE   W06
 BYTE   PEND 
//  #01 //003   ----------------------------------------
 BYTE   N12  Ds3
 BYTE   W12
 BYTE   Ds2
 BYTE   W18
 BYTE   N06
 BYTE   W06
 BYTE   Ds3
 BYTE   W06
 BYTE   En3
 BYTE   W06
 BYTE   Ds3
 BYTE   W06
 BYTE   Ds2
 BYTE   W12
 BYTE   N06
 BYTE   W30
//  #01 //004   ----------------------------------------
Label_0160C7F4:
 BYTE   N12  Ds3  v100
 BYTE   W12
 BYTE   Ds2
 BYTE   W18
 BYTE   N12
 BYTE   W18
 BYTE   N12
 BYTE   W18
 BYTE   N12
 BYTE   W18
 BYTE   N06  Ds3
 BYTE   W06
 BYTE   En3
 BYTE   W06
 BYTE   PEND 
//  #01 //005   ----------------------------------------
 BYTE   PATT
  POIN2 Label_0160C7C1
//  #01 //006   ----------------------------------------
 BYTE   PATT
  POIN2 Label_0160C7CF
//  #01 //007   ----------------------------------------
Label_0160C810:
 BYTE   N12  Ds3  v104
 BYTE   W12
 BYTE   Ds2  v100
 BYTE   W18
 BYTE   N06
 BYTE   W06
 BYTE   Dn3
 BYTE   W06
 BYTE   Ds3
 BYTE   W06
 BYTE   Dn3
 BYTE   W06
 BYTE   N18  Dn2
 BYTE   W18
 BYTE   N06  Dn3
 BYTE   W06
 BYTE   N18  Dn2
 BYTE   W18
 BYTE   PEND 
//  #01 //008   ----------------------------------------
 BYTE   PATT
  POIN2 Label_0160C7F4
//  #01 //009   ----------------------------------------
 BYTE   PATT
  POIN2 Label_0160C7C1
//  #01 //010   ----------------------------------------
 BYTE   PATT
  POIN2 Label_0160C7CF
//  #01 //011   ----------------------------------------
 BYTE   PATT
  POIN2 Label_0160C810
//  #01 //012   ----------------------------------------
 BYTE   PATT
  POIN2 Label_0160C7F4
//  #01 //013   ----------------------------------------
 BYTE   PATT
  POIN2 Label_0160C7C1
//  #01 //014   ----------------------------------------
 BYTE   PATT
  POIN2 Label_0160C7CF
//  #01 //015   ----------------------------------------
 BYTE   PATT
  POIN2 Label_0160C810
//  #01 //016   ----------------------------------------
 BYTE   PATT
  POIN2 Label_0160C7F4
//  #01 //017   ----------------------------------------
 BYTE   PATT
  POIN2 Label_0160C7C1
//  #01 //018   ----------------------------------------
 BYTE   PATT
  POIN2 Label_0160C7CF
//  #01 //019   ----------------------------------------
 BYTE   PATT
  POIN2 Label_0160C810
//  #01 //020   ----------------------------------------
 BYTE   PATT
  POIN2 Label_0160C7F4
//  #01 //021   ----------------------------------------
 BYTE   PATT
  POIN2 Label_0160C7C1
//  #01 //022   ----------------------------------------
 BYTE   PATT
  POIN2 Label_0160C7CF
//  #01 //023   ----------------------------------------
 BYTE   PATT
  POIN2 Label_0160C810
//  #01 //024   ----------------------------------------
 BYTE   PATT
  POIN2 Label_0160C7F4
//  #01 //025   ----------------------------------------
 BYTE   PATT
  POIN2 Label_0160C7C1
//  #01 //026   ----------------------------------------
 BYTE   PATT
  POIN2 Label_0160C7CF
//  #01 //027   ----------------------------------------
 BYTE   PATT
  POIN2 Label_0160C810
//  #01 //028   ----------------------------------------
Label_0160C88D:
 BYTE   W06
 BYTE   N06  Ds2  v100
 BYTE   W12
 BYTE   N06
 BYTE   W06
 BYTE   En2
 BYTE   W12
 BYTE   Dn2
 BYTE   W12
 BYTE   N06
 BYTE   W12
 BYTE   Fn2
 BYTE   W12
 BYTE   N06
 BYTE   W12
 BYTE   Dn2
 BYTE   W06
 BYTE   En2
 BYTE   W06
 BYTE   PEND 
//  #01 //029   ----------------------------------------
Label_0160C8A3:
 BYTE   W06
 BYTE   N06  Ds2  v100
 BYTE   W12
 BYTE   N06
 BYTE   W06
 BYTE   En2
 BYTE   W12
 BYTE   Dn2
 BYTE   W12
 BYTE   N06
 BYTE   W12
 BYTE   Fs2
 BYTE   W12
 BYTE   N06
 BYTE   W12
 BYTE   Ds2
 BYTE   W06
 BYTE   En2
 BYTE   W06
 BYTE   PEND 
//  #01 //030   ----------------------------------------
 BYTE   PATT
  POIN2 Label_0160C88D
//  #01 //031   ----------------------------------------
 BYTE   PATT
  POIN2 Label_0160C8A3
//  #01 //032   ----------------------------------------
 BYTE   PATT
  POIN2 Label_0160C88D
//  #01 //033   ----------------------------------------
 BYTE   PATT
  POIN2 Label_0160C8A3
//  #01 //034   ----------------------------------------
 BYTE   PATT
  POIN2 Label_0160C88D
//  #01 //035   ----------------------------------------
 BYTE   W06
 BYTE   N06  Ds2  v100
 BYTE   W12
 BYTE   N06
 BYTE   W06
 BYTE   En2
 BYTE   W12
 BYTE   Dn2
 BYTE   W60
//  #01 //036   ----------------------------------------
 BYTE   PATT
  POIN2 Label_0160C7F4
//  #01 //037   ----------------------------------------
 BYTE   PATT
  POIN2 Label_0160C7C1
//  #01 //038   ----------------------------------------
 BYTE   PATT
  POIN2 Label_0160C7CF
//  #01 //039   ----------------------------------------
 BYTE   PATT
  POIN2 Label_0160C810
//  #01 //040   ----------------------------------------
 BYTE   PATT
  POIN2 Label_0160C7F4
//  #01 //041   ----------------------------------------
 BYTE   PATT
  POIN2 Label_0160C7C1
//  #01 //042   ----------------------------------------
 BYTE   PATT
  POIN2 Label_0160C7CF
//  #01 //043   ----------------------------------------
 BYTE   PATT
  POIN2 Label_0160C810
//  #01 //044   ----------------------------------------
 BYTE   PATT
  POIN2 Label_0160C7F4
//  #01 //045   ----------------------------------------
 BYTE   PATT
  POIN2 Label_0160C7C1
//  #01 //046   ----------------------------------------
 BYTE   PATT
  POIN2 Label_0160C7CF
//  #01 //047   ----------------------------------------
 BYTE   PATT
  POIN2 Label_0160C810
//  #01 //048   ----------------------------------------
 BYTE   N12  Bn2  v100
 BYTE   W12
 BYTE   N12
 BYTE   W18
 BYTE   N12
 BYTE   W18
 BYTE   N12
 BYTE   W18
 BYTE   N12
 BYTE   W18
 BYTE   N06
 BYTE   W06
 BYTE   N06
 BYTE   W06
//  #01 //049   ----------------------------------------
 BYTE   N12
 BYTE   W12
 BYTE   Gs2
 BYTE   W18
 BYTE   N12
 BYTE   W18
 BYTE   Gn2
 BYTE   W18
 BYTE   N30  En3
 BYTE   W30
//  #01 //050   ----------------------------------------
 BYTE   PATT
  POIN2 Label_0160C7CF
//  #01 //051   ----------------------------------------
 BYTE   PATT
  POIN2 Label_0160C810
//  #01 //052   ----------------------------------------
Label_0160C93E:
 BYTE   N12  Fs2  v100
 BYTE   W12
 BYTE   N18  Fn2
 BYTE   W18
 BYTE   N12
 BYTE   W12
 BYTE   N06
 BYTE   W06
 BYTE   N12
 BYTE   W12
 BYTE   En2
 BYTE   W12
 BYTE   Ds3
 BYTE   W12
 BYTE   Ds2
 BYTE   W12
 BYTE   PEND 
//  #01 //053   ----------------------------------------
Label_0160C952:
 BYTE   W06
 BYTE   N18  Fs2  v100
 BYTE   W18
 BYTE   Fn2
 BYTE   W18
 BYTE   N06
 BYTE   W06
 BYTE   N12
 BYTE   W12
 BYTE   En2
 BYTE   W12
 BYTE   Ds3
 BYTE   W12
 BYTE   Ds2
 BYTE   W12
 BYTE   PEND 
//  #01 //054   ----------------------------------------
 BYTE   PATT
  POIN2 Label_0160C93E
//  #01 //055   ----------------------------------------
 BYTE   PATT
  POIN2 Label_0160C952
//  #01 //056   ----------------------------------------
 BYTE   PATT
  POIN2 Label_0160C93E
//  #01 //057   ----------------------------------------
 BYTE   PATT
  POIN2 Label_0160C952
//  #01 //058   ----------------------------------------
 BYTE   PATT
  POIN2 Label_0160C93E
//  #01 //059   ----------------------------------------
 BYTE   PATT
  POIN2 Label_0160C952
//  #01 //060   ----------------------------------------
 BYTE   W96
//  #01 //061   ----------------------------------------
 BYTE   W96
//  #01 //062   ----------------------------------------
 BYTE   W96
//  #01 //063   ----------------------------------------
 BYTE   W96
//  #01 //064   ----------------------------------------
 BYTE   W96
//  #01 //065   ----------------------------------------
 BYTE   W96
//  #01 //066   ----------------------------------------
 BYTE   W96
//  #01 //067   ----------------------------------------
 BYTE   W96
//  #01 //068   ----------------------------------------
Label_0160C98A:
 BYTE   N24  Ds2  v100
 BYTE   W24
 BYTE   N24
 BYTE   W24
 BYTE   N06  Ds3
 BYTE   W06
 BYTE   N18  Ds2
 BYTE   W18
 BYTE   N06  Ds3
 BYTE   W06
 BYTE   N18  Ds2
 BYTE   W18
 BYTE   PEND 
//  #01 //069   ----------------------------------------
Label_0160C99D:
 BYTE   N24  Dn2  v100
 BYTE   W24
 BYTE   N24
 BYTE   W24
 BYTE   N06  Dn3
 BYTE   W06
 BYTE   N18  Dn2
 BYTE   W18
 BYTE   N24  En2
 BYTE   W24
 BYTE   PEND 
//  #01 //070   ----------------------------------------
 BYTE   PATT
  POIN2 Label_0160C98A
//  #01 //071   ----------------------------------------
Label_0160C9B2:
 BYTE   N24  En2  v100
 BYTE   W24
 BYTE   N24
 BYTE   W24
 BYTE   N06  En3
 BYTE   W06
 BYTE   N18  En2
 BYTE   W18
 BYTE   N06  Gn3
 BYTE   W06
 BYTE   N18  En2
 BYTE   W18
 BYTE   PEND 
//  #01 //072   ----------------------------------------
 BYTE   PATT
  POIN2 Label_0160C98A
//  #01 //073   ----------------------------------------
 BYTE   PATT
  POIN2 Label_0160C99D
//  #01 //074   ----------------------------------------
 BYTE   PATT
  POIN2 Label_0160C98A
//  #01 //075   ----------------------------------------
 BYTE   PATT
  POIN2 Label_0160C9B2
//  #01 //076   ----------------------------------------
 BYTE   PATT
  POIN2 Label_0160C98A
//  #01 //077   ----------------------------------------
 BYTE   PATT
  POIN2 Label_0160C99D
//  #01 //078   ----------------------------------------
 BYTE   PATT
  POIN2 Label_0160C98A
//  #01 //079   ----------------------------------------
 BYTE   PATT
  POIN2 Label_0160C9B2
//  #01 //080   ----------------------------------------
 BYTE   PATT
  POIN2 Label_0160C98A
//  #01 //081   ----------------------------------------
 BYTE   PATT
  POIN2 Label_0160C99D
//  #01 //082   ----------------------------------------
 BYTE   PATT
  POIN2 Label_0160C98A
//  #01 //083   ----------------------------------------
 BYTE   PATT
  POIN2 Label_0160C9B2
//  #01 //084   ----------------------------------------
 BYTE   PATT
  POIN2 Label_0160C98A
//  #01 //085   ----------------------------------------
 BYTE   PATT
  POIN2 Label_0160C99D
//  #01 //086   ----------------------------------------
 BYTE   PATT
  POIN2 Label_0160C98A
//  #01 //087   ----------------------------------------
 BYTE   PATT
  POIN2 Label_0160C9B2
//  #01 //088   ----------------------------------------
 BYTE   PATT
  POIN2 Label_0160C98A
//  #01 //089   ----------------------------------------
 BYTE   PATT
  POIN2 Label_0160C99D
//  #01 //090   ----------------------------------------
 BYTE   PATT
  POIN2 Label_0160C98A
//  #01 //091   ----------------------------------------
 BYTE   PATT
  POIN2 Label_0160C9B2
//  #01 //092   ----------------------------------------
 BYTE   PATT
  POIN2 Label_0160C98A
//  #01 //093   ----------------------------------------
 BYTE   PATT
  POIN2 Label_0160C99D
//  #01 //094   ----------------------------------------
 BYTE   PATT
  POIN2 Label_0160C98A
//  #01 //095   ----------------------------------------
 BYTE   PATT
  POIN2 Label_0160C9B2
//  #01 //096   ----------------------------------------
 BYTE   PATT
  POIN2 Label_0160C98A
//  #01 //097   ----------------------------------------
 BYTE   PATT
  POIN2 Label_0160C99D
//  #01 //098   ----------------------------------------
 BYTE   PATT
  POIN2 Label_0160C98A
//  #01 //099   ----------------------------------------
 BYTE   N24  En2  v100
 BYTE   W24
 BYTE   N24
 BYTE   W24
 BYTE   N06  En3
 BYTE   W06
 BYTE   N18  En2
 BYTE   W18
 BYTE   N06  Gn3
 BYTE   W06
 BYTE   N17  En2
 BYTE   W18
//  #01 //100   ----------------------------------------
 BYTE   GoTo
  POIN2 Label_0160C79A
//  #01 //101   ----------------------------------------
 BYTE   VOICE   30
 BYTE   PAN   c_v+0
 BYTE   VOL   61*TheOnlyThingTheyFearIsYou_mvl/mxv
 BYTE   BEND   c_v+0
 BYTE   W90
 BYTE   VOICE   30
 BYTE   PAN   c_v+0
 BYTE   VOL   61*TheOnlyThingTheyFearIsYou_mvl/mxv
 BYTE   BEND   c_v+0
 BYTE   FINE

//**************** Track 2 (Midi-Chn.1) ****************//

TheOnlyThingTheyFearIsYou_002:
//  #02 //000   ----------------------------------------
 BYTE   KEYSH   TheOnlyThingTheyFearIsYou_key+0
Label_0160CA8A:
 BYTE   VOICE   36
 BYTE   PAN   c_v+0
 BYTE   VOL   55*TheOnlyThingTheyFearIsYou_mvl/mxv
 BYTE   PAN   c_v+0
 BYTE   VOL   55*TheOnlyThingTheyFearIsYou_mvl/mxv
 BYTE   PAN   c_v+0
 BYTE   VOL   55*TheOnlyThingTheyFearIsYou_mvl/mxv
 BYTE   PAN   c_v+0
 BYTE   VOL   55*TheOnlyThingTheyFearIsYou_mvl/mxv
 BYTE   BEND   c_v+0
 BYTE   N12  Ds2  v100
 BYTE   W12
 BYTE   Ds1
 BYTE   W18
 BYTE   N12
 BYTE   W18
 BYTE   N12
 BYTE   W18
 BYTE   N12
 BYTE   W18
 BYTE   N06  Ds2
 BYTE   W06
 BYTE   En2
 BYTE   W06
//  #02 //001   ----------------------------------------
Label_0160CAAF:
 BYTE   N12  Ds2  v100
 BYTE   W12
 BYTE   Ds1
 BYTE   W18
 BYTE   N12
 BYTE   W18
 BYTE   En1
 BYTE   W18
 BYTE   N30  En2
 BYTE   W30
 BYTE   PEND 
//  #02 //002   ----------------------------------------
Label_0160CABD:
 BYTE   N12  Ds2  v100
 BYTE   W12
 BYTE   Ds1
 BYTE   W18
 BYTE   N12
 BYTE   W18
 BYTE   N12
 BYTE   W12
 BYTE   N06
 BYTE   W06
 BYTE   N12
 BYTE   W18
 BYTE   N06  Ds2
 BYTE   W06
 BYTE   En2
 BYTE   W06
 BYTE   PEND 
//  #02 //003   ----------------------------------------
 BYTE   N12  Ds2
 BYTE   W12
 BYTE   Ds1
 BYTE   W18
 BYTE   N06
 BYTE   W06
 BYTE   Ds2
 BYTE   W06
 BYTE   En2
 BYTE   W06
 BYTE   Ds2
 BYTE   W06
 BYTE   Ds1
 BYTE   W12
 BYTE   N06
 BYTE   W30
//  #02 //004   ----------------------------------------
Label_0160CAE2:
 BYTE   N12  Ds2  v100
 BYTE   W12
 BYTE   Ds1
 BYTE   W18
 BYTE   N12
 BYTE   W18
 BYTE   N12
 BYTE   W18
 BYTE   N12
 BYTE   W18
 BYTE   N06  Ds2
 BYTE   W06
 BYTE   En2
 BYTE   W06
 BYTE   PEND 
//  #02 //005   ----------------------------------------
 BYTE   PATT
  POIN2 Label_0160CAAF
//  #02 //006   ----------------------------------------
 BYTE   PATT
  POIN2 Label_0160CABD
//  #02 //007   ----------------------------------------
Label_0160CAFE:
 BYTE   N12  Ds2  v104
 BYTE   W12
 BYTE   Ds1  v100
 BYTE   W18
 BYTE   N06
 BYTE   W06
 BYTE   Dn2
 BYTE   W06
 BYTE   Ds2
 BYTE   W06
 BYTE   Dn2
 BYTE   W06
 BYTE   N18  Dn1
 BYTE   W18
 BYTE   N06  Dn2
 BYTE   W06
 BYTE   N18  Dn1
 BYTE   W18
 BYTE   PEND 
//  #02 //008   ----------------------------------------
 BYTE   PATT
  POIN2 Label_0160CAE2
//  #02 //009   ----------------------------------------
 BYTE   PATT
  POIN2 Label_0160CAAF
//  #02 //010   ----------------------------------------
 BYTE   PATT
  POIN2 Label_0160CABD
//  #02 //011   ----------------------------------------
 BYTE   PATT
  POIN2 Label_0160CAFE
//  #02 //012   ----------------------------------------
 BYTE   PATT
  POIN2 Label_0160CAE2
//  #02 //013   ----------------------------------------
 BYTE   PATT
  POIN2 Label_0160CAAF
//  #02 //014   ----------------------------------------
 BYTE   PATT
  POIN2 Label_0160CABD
//  #02 //015   ----------------------------------------
 BYTE   PATT
  POIN2 Label_0160CAFE
//  #02 //016   ----------------------------------------
 BYTE   PATT
  POIN2 Label_0160CAE2
//  #02 //017   ----------------------------------------
 BYTE   PATT
  POIN2 Label_0160CAAF
//  #02 //018   ----------------------------------------
 BYTE   PATT
  POIN2 Label_0160CABD
//  #02 //019   ----------------------------------------
 BYTE   PATT
  POIN2 Label_0160CAFE
//  #02 //020   ----------------------------------------
 BYTE   PATT
  POIN2 Label_0160CAE2
//  #02 //021   ----------------------------------------
 BYTE   PATT
  POIN2 Label_0160CAAF
//  #02 //022   ----------------------------------------
 BYTE   PATT
  POIN2 Label_0160CABD
//  #02 //023   ----------------------------------------
 BYTE   PATT
  POIN2 Label_0160CAFE
//  #02 //024   ----------------------------------------
 BYTE   PATT
  POIN2 Label_0160CAE2
//  #02 //025   ----------------------------------------
 BYTE   PATT
  POIN2 Label_0160CAAF
//  #02 //026   ----------------------------------------
 BYTE   PATT
  POIN2 Label_0160CABD
//  #02 //027   ----------------------------------------
 BYTE   PATT
  POIN2 Label_0160CAFE
//  #02 //028   ----------------------------------------
Label_0160CB7B:
 BYTE   W06
 BYTE   N06  Ds1  v100
 BYTE   W12
 BYTE   N06
 BYTE   W06
 BYTE   En1
 BYTE   W12
 BYTE   Dn1
 BYTE   W12
 BYTE   N06
 BYTE   W12
 BYTE   Fn1
 BYTE   W12
 BYTE   N06
 BYTE   W12
 BYTE   Dn1
 BYTE   W06
 BYTE   En1
 BYTE   W06
 BYTE   PEND 
//  #02 //029   ----------------------------------------
Label_0160CB91:
 BYTE   W06
 BYTE   N06  Ds1  v100
 BYTE   W12
 BYTE   N06
 BYTE   W06
 BYTE   En1
 BYTE   W12
 BYTE   Dn1
 BYTE   W12
 BYTE   N06
 BYTE   W12
 BYTE   Fs1
 BYTE   W12
 BYTE   N06
 BYTE   W12
 BYTE   Ds1
 BYTE   W06
 BYTE   En1
 BYTE   W06
 BYTE   PEND 
//  #02 //030   ----------------------------------------
 BYTE   PATT
  POIN2 Label_0160CB7B
//  #02 //031   ----------------------------------------
 BYTE   PATT
  POIN2 Label_0160CB91
//  #02 //032   ----------------------------------------
 BYTE   PATT
  POIN2 Label_0160CB7B
//  #02 //033   ----------------------------------------
 BYTE   PATT
  POIN2 Label_0160CB91
//  #02 //034   ----------------------------------------
 BYTE   PATT
  POIN2 Label_0160CB7B
//  #02 //035   ----------------------------------------
 BYTE   W06
 BYTE   N06  Ds1  v100
 BYTE   W12
 BYTE   N06
 BYTE   W06
 BYTE   En1
 BYTE   W12
 BYTE   Dn1
 BYTE   W60
//  #02 //036   ----------------------------------------
 BYTE   PATT
  POIN2 Label_0160CAE2
//  #02 //037   ----------------------------------------
 BYTE   PATT
  POIN2 Label_0160CAAF
//  #02 //038   ----------------------------------------
 BYTE   PATT
  POIN2 Label_0160CABD
//  #02 //039   ----------------------------------------
 BYTE   PATT
  POIN2 Label_0160CAFE
//  #02 //040   ----------------------------------------
 BYTE   PATT
  POIN2 Label_0160CAE2
//  #02 //041   ----------------------------------------
 BYTE   PATT
  POIN2 Label_0160CAAF
//  #02 //042   ----------------------------------------
 BYTE   PATT
  POIN2 Label_0160CABD
//  #02 //043   ----------------------------------------
 BYTE   PATT
  POIN2 Label_0160CAFE
//  #02 //044   ----------------------------------------
 BYTE   PATT
  POIN2 Label_0160CAE2
//  #02 //045   ----------------------------------------
 BYTE   PATT
  POIN2 Label_0160CAAF
//  #02 //046   ----------------------------------------
 BYTE   PATT
  POIN2 Label_0160CABD
//  #02 //047   ----------------------------------------
 BYTE   PATT
  POIN2 Label_0160CAFE
//  #02 //048   ----------------------------------------
 BYTE   N12  Bn1  v100
 BYTE   W12
 BYTE   N12
 BYTE   W18
 BYTE   N12
 BYTE   W18
 BYTE   N12
 BYTE   W18
 BYTE   N12
 BYTE   W18
 BYTE   N06
 BYTE   W06
 BYTE   N06
 BYTE   W06
//  #02 //049   ----------------------------------------
 BYTE   N12
 BYTE   W12
 BYTE   Gs1
 BYTE   W18
 BYTE   N12
 BYTE   W18
 BYTE   Gn1
 BYTE   W18
 BYTE   N30  En2
 BYTE   W30
//  #02 //050   ----------------------------------------
 BYTE   PATT
  POIN2 Label_0160CABD
//  #02 //051   ----------------------------------------
 BYTE   PATT
  POIN2 Label_0160CAFE
//  #02 //052   ----------------------------------------
Label_0160CC2C:
 BYTE   N12  Fs1  v100
 BYTE   W12
 BYTE   N18  Fn1
 BYTE   W18
 BYTE   N12
 BYTE   W12
 BYTE   N06
 BYTE   W06
 BYTE   N12
 BYTE   W12
 BYTE   En1
 BYTE   W12
 BYTE   Ds2
 BYTE   W12
 BYTE   Ds1
 BYTE   W12
 BYTE   PEND 
//  #02 //053   ----------------------------------------
Label_0160CC40:
 BYTE   W06
 BYTE   N18  Fs1  v100
 BYTE   W18
 BYTE   Fn1
 BYTE   W18
 BYTE   N06
 BYTE   W06
 BYTE   N12
 BYTE   W12
 BYTE   En1
 BYTE   W12
 BYTE   Ds2
 BYTE   W12
 BYTE   Ds1
 BYTE   W12
 BYTE   PEND 
//  #02 //054   ----------------------------------------
 BYTE   PATT
  POIN2 Label_0160CC2C
//  #02 //055   ----------------------------------------
 BYTE   PATT
  POIN2 Label_0160CC40
//  #02 //056   ----------------------------------------
 BYTE   PATT
  POIN2 Label_0160CC2C
//  #02 //057   ----------------------------------------
 BYTE   PATT
  POIN2 Label_0160CC40
//  #02 //058   ----------------------------------------
 BYTE   PATT
  POIN2 Label_0160CC2C
//  #02 //059   ----------------------------------------
 BYTE   PATT
  POIN2 Label_0160CC40
//  #02 //060   ----------------------------------------
Label_0160CC70:
 BYTE   N24  Ds1  v100
 BYTE   W24
 BYTE   N24
 BYTE   W24
 BYTE   N06  Ds2
 BYTE   W06
 BYTE   N18  Ds1
 BYTE   W18
 BYTE   N06  Ds2
 BYTE   W06
 BYTE   N18  Ds1
 BYTE   W18
 BYTE   PEND 
//  #02 //061   ----------------------------------------
Label_0160CC83:
 BYTE   N24  Dn1  v100
 BYTE   W24
 BYTE   N24
 BYTE   W24
 BYTE   N06  Dn2
 BYTE   W06
 BYTE   N18  Dn1
 BYTE   W18
 BYTE   N24  En1
 BYTE   W24
 BYTE   PEND 
//  #02 //062   ----------------------------------------
 BYTE   PATT
  POIN2 Label_0160CC70
//  #02 //063   ----------------------------------------
Label_0160CC98:
 BYTE   N24  En1  v100
 BYTE   W24
 BYTE   N24
 BYTE   W24
 BYTE   N06  En2
 BYTE   W06
 BYTE   N18  En1
 BYTE   W18
 BYTE   N06  Gn2
 BYTE   W06
 BYTE   N18  En1
 BYTE   W18
 BYTE   PEND 
//  #02 //064   ----------------------------------------
 BYTE   PATT
  POIN2 Label_0160CC70
//  #02 //065   ----------------------------------------
 BYTE   PATT
  POIN2 Label_0160CC83
//  #02 //066   ----------------------------------------
 BYTE   PATT
  POIN2 Label_0160CC70
//  #02 //067   ----------------------------------------
 BYTE   PATT
  POIN2 Label_0160CC98
//  #02 //068   ----------------------------------------
 BYTE   PATT
  POIN2 Label_0160CC70
//  #02 //069   ----------------------------------------
 BYTE   PATT
  POIN2 Label_0160CC83
//  #02 //070   ----------------------------------------
 BYTE   PATT
  POIN2 Label_0160CC70
//  #02 //071   ----------------------------------------
 BYTE   PATT
  POIN2 Label_0160CC98
//  #02 //072   ----------------------------------------
 BYTE   PATT
  POIN2 Label_0160CC70
//  #02 //073   ----------------------------------------
 BYTE   PATT
  POIN2 Label_0160CC83
//  #02 //074   ----------------------------------------
 BYTE   PATT
  POIN2 Label_0160CC70
//  #02 //075   ----------------------------------------
 BYTE   PATT
  POIN2 Label_0160CC98
//  #02 //076   ----------------------------------------
 BYTE   PATT
  POIN2 Label_0160CC70
//  #02 //077   ----------------------------------------
 BYTE   PATT
  POIN2 Label_0160CC83
//  #02 //078   ----------------------------------------
 BYTE   PATT
  POIN2 Label_0160CC70
//  #02 //079   ----------------------------------------
 BYTE   PATT
  POIN2 Label_0160CC98
//  #02 //080   ----------------------------------------
 BYTE   PATT
  POIN2 Label_0160CC70
//  #02 //081   ----------------------------------------
 BYTE   PATT
  POIN2 Label_0160CC83
//  #02 //082   ----------------------------------------
 BYTE   PATT
  POIN2 Label_0160CC70
//  #02 //083   ----------------------------------------
 BYTE   PATT
  POIN2 Label_0160CC98
//  #02 //084   ----------------------------------------
 BYTE   PATT
  POIN2 Label_0160CC70
//  #02 //085   ----------------------------------------
 BYTE   PATT
  POIN2 Label_0160CC83
//  #02 //086   ----------------------------------------
 BYTE   PATT
  POIN2 Label_0160CC70
//  #02 //087   ----------------------------------------
 BYTE   PATT
  POIN2 Label_0160CC98
//  #02 //088   ----------------------------------------
 BYTE   PATT
  POIN2 Label_0160CC70
//  #02 //089   ----------------------------------------
 BYTE   PATT
  POIN2 Label_0160CC83
//  #02 //090   ----------------------------------------
 BYTE   PATT
  POIN2 Label_0160CC70
//  #02 //091   ----------------------------------------
 BYTE   PATT
  POIN2 Label_0160CC98
//  #02 //092   ----------------------------------------
 BYTE   PATT
  POIN2 Label_0160CC70
//  #02 //093   ----------------------------------------
 BYTE   PATT
  POIN2 Label_0160CC83
//  #02 //094   ----------------------------------------
 BYTE   PATT
  POIN2 Label_0160CC70
//  #02 //095   ----------------------------------------
 BYTE   PATT
  POIN2 Label_0160CC98
//  #02 //096   ----------------------------------------
 BYTE   PATT
  POIN2 Label_0160CC70
//  #02 //097   ----------------------------------------
 BYTE   PATT
  POIN2 Label_0160CC83
//  #02 //098   ----------------------------------------
 BYTE   PATT
  POIN2 Label_0160CC70
//  #02 //099   ----------------------------------------
 BYTE   N24  En1  v100
 BYTE   W24
 BYTE   N24
 BYTE   W24
 BYTE   N06  En2
 BYTE   W06
 BYTE   N18  En1
 BYTE   W18
 BYTE   N06  Gn2
 BYTE   W06
 BYTE   N17  En1
 BYTE   W18
//  #02 //100   ----------------------------------------
 BYTE   GoTo
  POIN2 Label_0160CA8A
//  #02 //101   ----------------------------------------
 BYTE   VOICE   36
 BYTE   PAN   c_v+0
 BYTE   VOL   55*TheOnlyThingTheyFearIsYou_mvl/mxv
 BYTE   BEND   c_v+0
 BYTE   W90
 BYTE   VOICE   36
 BYTE   PAN   c_v+0
 BYTE   VOL   55*TheOnlyThingTheyFearIsYou_mvl/mxv
 BYTE   BEND   c_v+0
 BYTE   FINE

//**************** Track 3 (Midi-Chn.2) ****************//

TheOnlyThingTheyFearIsYou_003:
//  #03 //000   ----------------------------------------
 BYTE   KEYSH   TheOnlyThingTheyFearIsYou_key+0
Label_0160CD96:
 BYTE   VOICE   24
 BYTE   PAN   c_v+0
 BYTE   VOL   64*TheOnlyThingTheyFearIsYou_mvl/mxv
 BYTE   PAN   c_v+0
 BYTE   VOL   64*TheOnlyThingTheyFearIsYou_mvl/mxv
 BYTE   PAN   c_v+0
 BYTE   VOL   64*TheOnlyThingTheyFearIsYou_mvl/mxv
 BYTE   PAN   c_v+0
 BYTE   VOL   64*TheOnlyThingTheyFearIsYou_mvl/mxv
 BYTE   BEND   c_v+0
 BYTE   W96
//  #03 //001   ----------------------------------------
 BYTE   W96
//  #03 //002   ----------------------------------------
 BYTE   W96
//  #03 //003   ----------------------------------------
 BYTE   W96
//  #03 //004   ----------------------------------------
 BYTE   W96
//  #03 //005   ----------------------------------------
 BYTE   W96
//  #03 //006   ----------------------------------------
 BYTE   W96
//  #03 //007   ----------------------------------------
 BYTE   W96
//  #03 //008   ----------------------------------------
Label_0160CDB2:
 BYTE   N12  As2  v100
 BYTE   W12
 BYTE   N12
 BYTE   W18
 BYTE   N12
 BYTE   W18
 BYTE   N12
 BYTE   W18
 BYTE   N12
 BYTE   W18
 BYTE   N06
 BYTE   W06
 BYTE   Bn2
 BYTE   W06
 BYTE   PEND 
//  #03 //009   ----------------------------------------
Label_0160CDC3:
 BYTE   N12  As2  v100
 BYTE   W12
 BYTE   N12
 BYTE   W18
 BYTE   N12
 BYTE   W18
 BYTE   Bn2
 BYTE   W18
 BYTE   N30
 BYTE   W30
 BYTE   PEND 
//  #03 //010   ----------------------------------------
Label_0160CDD0:
 BYTE   N12  As2  v100
 BYTE   W12
 BYTE   N12
 BYTE   W18
 BYTE   N12
 BYTE   W18
 BYTE   N12
 BYTE   W12
 BYTE   N06
 BYTE   W06
 BYTE   N12
 BYTE   W18
 BYTE   N06
 BYTE   W06
 BYTE   Bn2
 BYTE   W06
 BYTE   PEND 
//  #03 //011   ----------------------------------------
Label_0160CDE3:
 BYTE   N12  As2  v104
 BYTE   W12
 BYTE   As2  v100
 BYTE   W18
 BYTE   N06
 BYTE   W06
 BYTE   An2
 BYTE   W06
 BYTE   As2
 BYTE   W06
 BYTE   An2
 BYTE   W06
 BYTE   N18  Dn2
 BYTE   W18
 BYTE   N06  An2
 BYTE   W06
 BYTE   N18  Dn2
 BYTE   W18
 BYTE   PEND 
//  #03 //012   ----------------------------------------
 BYTE   PATT
  POIN2 Label_0160CDB2
//  #03 //013   ----------------------------------------
 BYTE   PATT
  POIN2 Label_0160CDC3
//  #03 //014   ----------------------------------------
 BYTE   PATT
  POIN2 Label_0160CDD0
//  #03 //015   ----------------------------------------
 BYTE   PATT
  POIN2 Label_0160CDE3
//  #03 //016   ----------------------------------------
 BYTE   PATT
  POIN2 Label_0160CDB2
//  #03 //017   ----------------------------------------
 BYTE   PATT
  POIN2 Label_0160CDC3
//  #03 //018   ----------------------------------------
 BYTE   PATT
  POIN2 Label_0160CDD0
//  #03 //019   ----------------------------------------
 BYTE   PATT
  POIN2 Label_0160CDE3
//  #03 //020   ----------------------------------------
 BYTE   PATT
  POIN2 Label_0160CDB2
//  #03 //021   ----------------------------------------
 BYTE   PATT
  POIN2 Label_0160CDC3
//  #03 //022   ----------------------------------------
 BYTE   PATT
  POIN2 Label_0160CDD0
//  #03 //023   ----------------------------------------
 BYTE   PATT
  POIN2 Label_0160CDE3
//  #03 //024   ----------------------------------------
 BYTE   PATT
  POIN2 Label_0160CDB2
//  #03 //025   ----------------------------------------
 BYTE   PATT
  POIN2 Label_0160CDC3
//  #03 //026   ----------------------------------------
 BYTE   PATT
  POIN2 Label_0160CDD0
//  #03 //027   ----------------------------------------
 BYTE   PATT
  POIN2 Label_0160CDE3
//  #03 //028   ----------------------------------------
Label_0160CE4C:
 BYTE   W06
 BYTE   N06  As2  v100
 BYTE   W12
 BYTE   N06
 BYTE   W06
 BYTE   Bn2
 BYTE   W12
 BYTE   An2
 BYTE   W12
 BYTE   N06
 BYTE   W12
 BYTE   Cn3
 BYTE   W12
 BYTE   N06
 BYTE   W12
 BYTE   An2
 BYTE   W06
 BYTE   Bn2
 BYTE   W06
 BYTE   PEND 
//  #03 //029   ----------------------------------------
Label_0160CE62:
 BYTE   W06
 BYTE   N06  As2  v100
 BYTE   W12
 BYTE   N06
 BYTE   W06
 BYTE   Bn2
 BYTE   W12
 BYTE   An2
 BYTE   W12
 BYTE   N06
 BYTE   W12
 BYTE   Cs3
 BYTE   W12
 BYTE   N06
 BYTE   W12
 BYTE   As2
 BYTE   W06
 BYTE   Bn2
 BYTE   W06
 BYTE   PEND 
//  #03 //030   ----------------------------------------
 BYTE   PATT
  POIN2 Label_0160CE4C
//  #03 //031   ----------------------------------------
 BYTE   PATT
  POIN2 Label_0160CE62
//  #03 //032   ----------------------------------------
 BYTE   PATT
  POIN2 Label_0160CE4C
//  #03 //033   ----------------------------------------
 BYTE   PATT
  POIN2 Label_0160CE62
//  #03 //034   ----------------------------------------
 BYTE   PATT
  POIN2 Label_0160CE4C
//  #03 //035   ----------------------------------------
 BYTE   W06
 BYTE   N06  As2  v100
 BYTE   W12
 BYTE   N06
 BYTE   W06
 BYTE   Bn2
 BYTE   W12
 BYTE   An2
 BYTE   W60
//  #03 //036   ----------------------------------------
 BYTE   PATT
  POIN2 Label_0160CDB2
//  #03 //037   ----------------------------------------
 BYTE   PATT
  POIN2 Label_0160CDC3
//  #03 //038   ----------------------------------------
 BYTE   PATT
  POIN2 Label_0160CDD0
//  #03 //039   ----------------------------------------
 BYTE   PATT
  POIN2 Label_0160CDE3
//  #03 //040   ----------------------------------------
 BYTE   PATT
  POIN2 Label_0160CDB2
//  #03 //041   ----------------------------------------
 BYTE   PATT
  POIN2 Label_0160CDC3
//  #03 //042   ----------------------------------------
 BYTE   PATT
  POIN2 Label_0160CDD0
//  #03 //043   ----------------------------------------
 BYTE   PATT
  POIN2 Label_0160CDE3
//  #03 //044   ----------------------------------------
 BYTE   PATT
  POIN2 Label_0160CDB2
//  #03 //045   ----------------------------------------
 BYTE   PATT
  POIN2 Label_0160CDC3
//  #03 //046   ----------------------------------------
 BYTE   PATT
  POIN2 Label_0160CDD0
//  #03 //047   ----------------------------------------
 BYTE   PATT
  POIN2 Label_0160CDE3
//  #03 //048   ----------------------------------------
 BYTE   N12  Fs2  v100
 BYTE   W12
 BYTE   N12
 BYTE   W18
 BYTE   N12
 BYTE   W18
 BYTE   N12
 BYTE   W18
 BYTE   N12
 BYTE   W18
 BYTE   N06
 BYTE   W06
 BYTE   N06
 BYTE   W06
//  #03 //049   ----------------------------------------
 BYTE   N12
 BYTE   W12
 BYTE   N12
 BYTE   W18
 BYTE   N12
 BYTE   W18
 BYTE   En2
 BYTE   W18
 BYTE   N30
 BYTE   W30
//  #03 //050   ----------------------------------------
 BYTE   PATT
  POIN2 Label_0160CDD0
//  #03 //051   ----------------------------------------
 BYTE   PATT
  POIN2 Label_0160CDE3
//  #03 //052   ----------------------------------------
 BYTE   W96
//  #03 //053   ----------------------------------------
 BYTE   W96
//  #03 //054   ----------------------------------------
 BYTE   W96
//  #03 //055   ----------------------------------------
 BYTE   W96
//  #03 //056   ----------------------------------------
Label_0160CF00:
 BYTE   N12  Bn2  v100
 BYTE   W12
 BYTE   N18  As2
 BYTE   W18
 BYTE   N12
 BYTE   W12
 BYTE   N06
 BYTE   W06
 BYTE   N12
 BYTE   W12
 BYTE   An2
 BYTE   W12
 BYTE   Gs3
 BYTE   W12
 BYTE   Gs2
 BYTE   W12
 BYTE   PEND 
//  #03 //057   ----------------------------------------
Label_0160CF14:
 BYTE   W06
 BYTE   N18  Bn2  v100
 BYTE   W18
 BYTE   As2
 BYTE   W18
 BYTE   N06
 BYTE   W06
 BYTE   N12
 BYTE   W12
 BYTE   An2
 BYTE   W12
 BYTE   Gs3
 BYTE   W12
 BYTE   Gs2
 BYTE   W12
 BYTE   PEND 
//  #03 //058   ----------------------------------------
 BYTE   PATT
  POIN2 Label_0160CF00
//  #03 //059   ----------------------------------------
 BYTE   PATT
  POIN2 Label_0160CF14
//  #03 //060   ----------------------------------------
 BYTE   W96
//  #03 //061   ----------------------------------------
 BYTE   W96
//  #03 //062   ----------------------------------------
 BYTE   W96
//  #03 //063   ----------------------------------------
 BYTE   W96
//  #03 //064   ----------------------------------------
 BYTE   W96
//  #03 //065   ----------------------------------------
 BYTE   W96
//  #03 //066   ----------------------------------------
 BYTE   W96
//  #03 //067   ----------------------------------------
 BYTE   W96
//  #03 //068   ----------------------------------------
Label_0160CF38:
 BYTE   N24  As2  v100
 BYTE   W24
 BYTE   N24
 BYTE   W24
 BYTE   N06  As3
 BYTE   W06
 BYTE   N18  As2
 BYTE   W18
 BYTE   N06  As3
 BYTE   W06
 BYTE   N18  As2
 BYTE   W18
 BYTE   PEND 
//  #03 //069   ----------------------------------------
Label_0160CF4B:
 BYTE   N24  An2  v100
 BYTE   W24
 BYTE   N24
 BYTE   W24
 BYTE   N06  An3
 BYTE   W06
 BYTE   N18  An2
 BYTE   W18
 BYTE   N24  Bn2
 BYTE   W24
 BYTE   PEND 
//  #03 //070   ----------------------------------------
 BYTE   PATT
  POIN2 Label_0160CF38
//  #03 //071   ----------------------------------------
Label_0160CF60:
 BYTE   N24  Bn2  v100
 BYTE   W24
 BYTE   N24
 BYTE   W24
 BYTE   N06  Bn3
 BYTE   W06
 BYTE   N18  Bn2
 BYTE   W18
 BYTE   N24
 BYTE   W24
 BYTE   PEND 
//  #03 //072   ----------------------------------------
 BYTE   PATT
  POIN2 Label_0160CF38
//  #03 //073   ----------------------------------------
 BYTE   PATT
  POIN2 Label_0160CF4B
//  #03 //074   ----------------------------------------
 BYTE   PATT
  POIN2 Label_0160CF38
//  #03 //075   ----------------------------------------
 BYTE   PATT
  POIN2 Label_0160CF60
//  #03 //076   ----------------------------------------
 BYTE   PATT
  POIN2 Label_0160CF38
//  #03 //077   ----------------------------------------
 BYTE   PATT
  POIN2 Label_0160CF4B
//  #03 //078   ----------------------------------------
 BYTE   PATT
  POIN2 Label_0160CF38
//  #03 //079   ----------------------------------------
 BYTE   PATT
  POIN2 Label_0160CF60
//  #03 //080   ----------------------------------------
 BYTE   PATT
  POIN2 Label_0160CF38
//  #03 //081   ----------------------------------------
 BYTE   PATT
  POIN2 Label_0160CF4B
//  #03 //082   ----------------------------------------
 BYTE   PATT
  POIN2 Label_0160CF38
//  #03 //083   ----------------------------------------
 BYTE   PATT
  POIN2 Label_0160CF60
//  #03 //084   ----------------------------------------
 BYTE   PATT
  POIN2 Label_0160CF38
//  #03 //085   ----------------------------------------
 BYTE   PATT
  POIN2 Label_0160CF4B
//  #03 //086   ----------------------------------------
 BYTE   PATT
  POIN2 Label_0160CF38
//  #03 //087   ----------------------------------------
 BYTE   PATT
  POIN2 Label_0160CF60
//  #03 //088   ----------------------------------------
 BYTE   PATT
  POIN2 Label_0160CF38
//  #03 //089   ----------------------------------------
 BYTE   PATT
  POIN2 Label_0160CF4B
//  #03 //090   ----------------------------------------
 BYTE   PATT
  POIN2 Label_0160CF38
//  #03 //091   ----------------------------------------
 BYTE   PATT
  POIN2 Label_0160CF60
//  #03 //092   ----------------------------------------
 BYTE   PATT
  POIN2 Label_0160CF38
//  #03 //093   ----------------------------------------
 BYTE   PATT
  POIN2 Label_0160CF4B
//  #03 //094   ----------------------------------------
 BYTE   PATT
  POIN2 Label_0160CF38
//  #03 //095   ----------------------------------------
 BYTE   PATT
  POIN2 Label_0160CF60
//  #03 //096   ----------------------------------------
 BYTE   PATT
  POIN2 Label_0160CF38
//  #03 //097   ----------------------------------------
 BYTE   PATT
  POIN2 Label_0160CF4B
//  #03 //098   ----------------------------------------
 BYTE   PATT
  POIN2 Label_0160CF38
//  #03 //099   ----------------------------------------
 BYTE   N24  Bn2  v100
 BYTE   W24
 BYTE   N24
 BYTE   W24
 BYTE   N06  Bn3
 BYTE   W06
 BYTE   N18  Bn2
 BYTE   W18
 BYTE   N23
 BYTE   W24
//  #03 //100   ----------------------------------------
 BYTE   GoTo
  POIN2 Label_0160CD96
//  #03 //101   ----------------------------------------
 BYTE   VOICE   24
 BYTE   PAN   c_v+0
 BYTE   VOL   64*TheOnlyThingTheyFearIsYou_mvl/mxv
 BYTE   BEND   c_v+0
 BYTE   W90
 BYTE   VOICE   24
 BYTE   PAN   c_v+0
 BYTE   VOL   64*TheOnlyThingTheyFearIsYou_mvl/mxv
 BYTE   BEND   c_v+0
 BYTE   FINE

//**************** Track 4 (Midi-Chn.3) ****************//

TheOnlyThingTheyFearIsYou_004:
//  #04 //000   ----------------------------------------
 BYTE   KEYSH   TheOnlyThingTheyFearIsYou_key+0
Label_0160D02E:
 BYTE   VOICE   6
 BYTE   PAN   c_v+0
 BYTE   VOL   62*TheOnlyThingTheyFearIsYou_mvl/mxv
 BYTE   PAN   c_v+0
 BYTE   VOL   62*TheOnlyThingTheyFearIsYou_mvl/mxv
 BYTE   PAN   c_v+0
 BYTE   VOL   62*TheOnlyThingTheyFearIsYou_mvl/mxv
 BYTE   PAN   c_v+0
 BYTE   VOL   62*TheOnlyThingTheyFearIsYou_mvl/mxv
 BYTE   BEND   c_v+0
 BYTE   W96
//  #04 //001   ----------------------------------------
 BYTE   W96
//  #04 //002   ----------------------------------------
 BYTE   W96
//  #04 //003   ----------------------------------------
 BYTE   W96
//  #04 //004   ----------------------------------------
 BYTE   W96
//  #04 //005   ----------------------------------------
 BYTE   W96
//  #04 //006   ----------------------------------------
 BYTE   W96
//  #04 //007   ----------------------------------------
 BYTE   W96
//  #04 //008   ----------------------------------------
 BYTE   W96
//  #04 //009   ----------------------------------------
 BYTE   W96
//  #04 //010   ----------------------------------------
 BYTE   W96
//  #04 //011   ----------------------------------------
 BYTE   W96
//  #04 //012   ----------------------------------------
 BYTE   W96
//  #04 //013   ----------------------------------------
 BYTE   W96
//  #04 //014   ----------------------------------------
 BYTE   W96
//  #04 //015   ----------------------------------------
 BYTE   W96
//  #04 //016   ----------------------------------------
 BYTE   W96
//  #04 //017   ----------------------------------------
 BYTE   W96
//  #04 //018   ----------------------------------------
 BYTE   W96
//  #04 //019   ----------------------------------------
 BYTE   W96
//  #04 //020   ----------------------------------------
 BYTE   W96
//  #04 //021   ----------------------------------------
 BYTE   W96
//  #04 //022   ----------------------------------------
 BYTE   W96
//  #04 //023   ----------------------------------------
 BYTE   W96
//  #04 //024   ----------------------------------------
 BYTE   W96
//  #04 //025   ----------------------------------------
 BYTE   W96
//  #04 //026   ----------------------------------------
 BYTE   W96
//  #04 //027   ----------------------------------------
 BYTE   W96
//  #04 //028   ----------------------------------------
Label_0160D05E:
 BYTE   N12  Ds1  v100
 BYTE   W12
 BYTE   As1
 BYTE   W12
 BYTE   N12
 BYTE   W12
 BYTE   Ds1
 BYTE   W12
 BYTE   Bn1
 BYTE   W12
 BYTE   N12
 BYTE   W12
 BYTE   Gs1
 BYTE   W12
 BYTE   As1
 BYTE   W12
 BYTE   PEND 
//  #04 //029   ----------------------------------------
Label_0160D071:
 BYTE   N12  As1  v100
 BYTE   W12
 BYTE   Ds1
 BYTE   W12
 BYTE   Gs1
 BYTE   W12
 BYTE   N12
 BYTE   W12
 BYTE   Fs1
 BYTE   W12
 BYTE   Gs1
 BYTE   W12
 BYTE   Fs1
 BYTE   W12
 BYTE   Fn1
 BYTE   W12
 BYTE   PEND 
//  #04 //030   ----------------------------------------
 BYTE   PATT
  POIN2 Label_0160D05E
//  #04 //031   ----------------------------------------
 BYTE   PATT
  POIN2 Label_0160D071
//  #04 //032   ----------------------------------------
 BYTE   PATT
  POIN2 Label_0160D05E
//  #04 //033   ----------------------------------------
 BYTE   PATT
  POIN2 Label_0160D071
//  #04 //034   ----------------------------------------
 BYTE   PATT
  POIN2 Label_0160D05E
//  #04 //035   ----------------------------------------
 BYTE   N12  As1  v100
 BYTE   W12
 BYTE   Ds1
 BYTE   W12
 BYTE   Gs1
 BYTE   W12
 BYTE   N12
 BYTE   W60
//  #04 //036   ----------------------------------------
 BYTE   W96
//  #04 //037   ----------------------------------------
 BYTE   W96
//  #04 //038   ----------------------------------------
 BYTE   W96
//  #04 //039   ----------------------------------------
 BYTE   W96
//  #04 //040   ----------------------------------------
 BYTE   W96
//  #04 //041   ----------------------------------------
 BYTE   W96
//  #04 //042   ----------------------------------------
 BYTE   W96
//  #04 //043   ----------------------------------------
 BYTE   W96
//  #04 //044   ----------------------------------------
 BYTE   W96
//  #04 //045   ----------------------------------------
 BYTE   W96
//  #04 //046   ----------------------------------------
 BYTE   W96
//  #04 //047   ----------------------------------------
 BYTE   W96
//  #04 //048   ----------------------------------------
 BYTE   W96
//  #04 //049   ----------------------------------------
 BYTE   W96
//  #04 //050   ----------------------------------------
 BYTE   W96
//  #04 //051   ----------------------------------------
 BYTE   W96
//  #04 //052   ----------------------------------------
 BYTE   W96
//  #04 //053   ----------------------------------------
 BYTE   W96
//  #04 //054   ----------------------------------------
 BYTE   W96
//  #04 //055   ----------------------------------------
 BYTE   W96
//  #04 //056   ----------------------------------------
 BYTE   W96
//  #04 //057   ----------------------------------------
 BYTE   W96
//  #04 //058   ----------------------------------------
 BYTE   W96
//  #04 //059   ----------------------------------------
 BYTE   W96
//  #04 //060   ----------------------------------------
 BYTE   W96
//  #04 //061   ----------------------------------------
 BYTE   W96
//  #04 //062   ----------------------------------------
 BYTE   W96
//  #04 //063   ----------------------------------------
 BYTE   W96
//  #04 //064   ----------------------------------------
 BYTE   W96
//  #04 //065   ----------------------------------------
 BYTE   W96
//  #04 //066   ----------------------------------------
 BYTE   W96
//  #04 //067   ----------------------------------------
 BYTE   W96
//  #04 //068   ----------------------------------------
 BYTE   W96
//  #04 //069   ----------------------------------------
 BYTE   W96
//  #04 //070   ----------------------------------------
 BYTE   W96
//  #04 //071   ----------------------------------------
 BYTE   W96
//  #04 //072   ----------------------------------------
 BYTE   W96
//  #04 //073   ----------------------------------------
 BYTE   W96
//  #04 //074   ----------------------------------------
 BYTE   W96
//  #04 //075   ----------------------------------------
 BYTE   W96
//  #04 //076   ----------------------------------------
 BYTE   W96
//  #04 //077   ----------------------------------------
 BYTE   W96
//  #04 //078   ----------------------------------------
 BYTE   W96
//  #04 //079   ----------------------------------------
 BYTE   W96
//  #04 //080   ----------------------------------------
 BYTE   W96
//  #04 //081   ----------------------------------------
 BYTE   W96
//  #04 //082   ----------------------------------------
 BYTE   W96
//  #04 //083   ----------------------------------------
 BYTE   W96
//  #04 //084   ----------------------------------------
 BYTE   W96
//  #04 //085   ----------------------------------------
 BYTE   W96
//  #04 //086   ----------------------------------------
 BYTE   W96
//  #04 //087   ----------------------------------------
 BYTE   W96
//  #04 //088   ----------------------------------------
 BYTE   W96
//  #04 //089   ----------------------------------------
 BYTE   W96
//  #04 //090   ----------------------------------------
 BYTE   W96
//  #04 //091   ----------------------------------------
 BYTE   W96
//  #04 //092   ----------------------------------------
 BYTE   W96
//  #04 //093   ----------------------------------------
 BYTE   W96
//  #04 //094   ----------------------------------------
 BYTE   W96
//  #04 //095   ----------------------------------------
 BYTE   W96
//  #04 //096   ----------------------------------------
 BYTE   W96
//  #04 //097   ----------------------------------------
 BYTE   W96
//  #04 //098   ----------------------------------------
 BYTE   W96
//  #04 //099   ----------------------------------------
 BYTE   W96
//  #04 //100   ----------------------------------------
 BYTE   GoTo
  POIN2 Label_0160D02E
//  #04 //101   ----------------------------------------
 BYTE   VOICE   6
 BYTE   PAN   c_v+0
 BYTE   VOL   62*TheOnlyThingTheyFearIsYou_mvl/mxv
 BYTE   BEND   c_v+0
 BYTE   W90
 BYTE   VOICE   6
 BYTE   PAN   c_v+0
 BYTE   VOL   62*TheOnlyThingTheyFearIsYou_mvl/mxv
 BYTE   BEND   c_v+0
 BYTE   FINE

//**************** Track 5 (Midi-Chn.4) ****************//

TheOnlyThingTheyFearIsYou_005:
//  #05 //000   ----------------------------------------
 BYTE   KEYSH   TheOnlyThingTheyFearIsYou_key+0
Label_0160D112:
 BYTE   VOICE   80
 BYTE   PAN   c_v+0
 BYTE   VOL   62*TheOnlyThingTheyFearIsYou_mvl/mxv
 BYTE   PAN   c_v+0
 BYTE   VOL   62*TheOnlyThingTheyFearIsYou_mvl/mxv
 BYTE   PAN   c_v+0
 BYTE   VOL   62*TheOnlyThingTheyFearIsYou_mvl/mxv
 BYTE   PAN   c_v+0
 BYTE   VOL   62*TheOnlyThingTheyFearIsYou_mvl/mxv
 BYTE   BEND   c_v+0
 BYTE   W96
//  #05 //001   ----------------------------------------
 BYTE   W96
//  #05 //002   ----------------------------------------
 BYTE   W96
//  #05 //003   ----------------------------------------
 BYTE   W96
//  #05 //004   ----------------------------------------
 BYTE   W96
//  #05 //005   ----------------------------------------
 BYTE   W96
//  #05 //006   ----------------------------------------
 BYTE   W96
//  #05 //007   ----------------------------------------
 BYTE   W96
//  #05 //008   ----------------------------------------
 BYTE   W96
//  #05 //009   ----------------------------------------
 BYTE   W96
//  #05 //010   ----------------------------------------
 BYTE   W96
//  #05 //011   ----------------------------------------
 BYTE   W96
//  #05 //012   ----------------------------------------
Label_0160D132:
 BYTE   N24  Ds2  v100
 BYTE   W24
 BYTE   Dn3
 BYTE   W24
 BYTE   Bn2
 BYTE   W24
 BYTE   As2
 BYTE   W24
 BYTE   PEND 
//  #05 //013   ----------------------------------------
 BYTE   Ds3
 BYTE   W24
 BYTE   Dn3
 BYTE   W24
 BYTE   Bn2
 BYTE   W24
 BYTE   As2
 BYTE   W24
//  #05 //014   ----------------------------------------
 BYTE   Gs2
 BYTE   W24
 BYTE   TIE  Gn2
 BYTE   W72
//  #05 //015   ----------------------------------------
 BYTE   W96
//  #05 //016   ----------------------------------------
 BYTE   EOT
//  #05 //017   ----------------------------------------
 BYTE   PATT
  POIN2 Label_0160D132
//  #05 //018   ----------------------------------------
 BYTE   N24  Ds3  v100
 BYTE   W24
 BYTE   Dn3
 BYTE   W24
 BYTE   Bn2
 BYTE   W24
 BYTE   En3
 BYTE   W24
//  #05 //019   ----------------------------------------
 BYTE   TIE  Ds3
 BYTE   W96
//  #05 //020   ----------------------------------------
 BYTE   W96
//  #05 //021   ----------------------------------------
 BYTE   EOT
Label_0160D160:
 BYTE   N24  Ds4  v100
 BYTE   W24
 BYTE   Dn5
 BYTE   W24
 BYTE   Bn4
 BYTE   W24
 BYTE   As4
 BYTE   W24
 BYTE   PEND 
//  #05 //022   ----------------------------------------
Label_0160D16B:
 BYTE   N24  Ds5  v100
 BYTE   W24
 BYTE   Dn5
 BYTE   W24
 BYTE   Bn4
 BYTE   W24
 BYTE   As4
 BYTE   W24
 BYTE   PEND 
//  #05 //023   ----------------------------------------
Label_0160D176:
 BYTE   N24  Gs4  v100
 BYTE   W24
 BYTE   TIE  Gn4
 BYTE   W72
 BYTE   PEND 
//  #05 //024   ----------------------------------------
 BYTE   W96
//  #05 //025   ----------------------------------------
 BYTE   EOT
//  #05 //026   ----------------------------------------
 BYTE   PATT
  POIN2 Label_0160D160
//  #05 //027   ----------------------------------------
Label_0160D185:
 BYTE   N24  Ds5  v100
 BYTE   W24
 BYTE   Dn5
 BYTE   W24
 BYTE   Bn4
 BYTE   W24
 BYTE   En5
 BYTE   W24
 BYTE   PEND 
//  #05 //028   ----------------------------------------
 BYTE   TIE  Ds5
 BYTE   W96
//  #05 //029   ----------------------------------------
 BYTE   W96
//  #05 //030   ----------------------------------------
 BYTE   EOT
 BYTE   W96
//  #05 //031   ----------------------------------------
 BYTE   W96
//  #05 //032   ----------------------------------------
 BYTE   W96
//  #05 //033   ----------------------------------------
 BYTE   W96
//  #05 //034   ----------------------------------------
 BYTE   W96
//  #05 //035   ----------------------------------------
 BYTE   W96
//  #05 //036   ----------------------------------------
 BYTE   W96
//  #05 //037   ----------------------------------------
 BYTE   W96
//  #05 //038   ----------------------------------------
 BYTE   PATT
  POIN2 Label_0160D160
//  #05 //039   ----------------------------------------
 BYTE   PATT
  POIN2 Label_0160D16B
//  #05 //040   ----------------------------------------
 BYTE   PATT
  POIN2 Label_0160D176
//  #05 //041   ----------------------------------------
 BYTE   W96
//  #05 //042   ----------------------------------------
 BYTE   EOT
 BYTE   Gn4
//  #05 //043   ----------------------------------------
 BYTE   PATT
  POIN2 Label_0160D160
//  #05 //044   ----------------------------------------
 BYTE   PATT
  POIN2 Label_0160D185
//  #05 //045   ----------------------------------------
 BYTE   TIE  Ds5  v100
 BYTE   W96
//  #05 //046   ----------------------------------------
 BYTE   W96
//  #05 //047   ----------------------------------------
 BYTE   EOT
//  #05 //048   ----------------------------------------
 BYTE   PATT
  POIN2 Label_0160D160
//  #05 //049   ----------------------------------------
 BYTE   PATT
  POIN2 Label_0160D16B
//  #05 //050   ----------------------------------------
 BYTE   PATT
  POIN2 Label_0160D176
//  #05 //051   ----------------------------------------
 BYTE   W96
//  #05 //052   ----------------------------------------
 BYTE   EOT
 BYTE   Gn4
//  #05 //053   ----------------------------------------
 BYTE   PATT
  POIN2 Label_0160D160
//  #05 //054   ----------------------------------------
 BYTE   PATT
  POIN2 Label_0160D185
//  #05 //055   ----------------------------------------
 BYTE   TIE  Ds5  v100
 BYTE   W96
//  #05 //056   ----------------------------------------
 BYTE   W96
//  #05 //057   ----------------------------------------
 BYTE   EOT
 BYTE   W96
//  #05 //058   ----------------------------------------
 BYTE   W96
//  #05 //059   ----------------------------------------
 BYTE   W96
//  #05 //060   ----------------------------------------
 BYTE   W96
//  #05 //061   ----------------------------------------
 BYTE   W96
//  #05 //062   ----------------------------------------
 BYTE   W96
//  #05 //063   ----------------------------------------
 BYTE   W96
//  #05 //064   ----------------------------------------
 BYTE   W96
//  #05 //065   ----------------------------------------
Label_0160D1E9:
 BYTE   N18  Ds4  v100
 BYTE   W18
 BYTE   Ds3
 BYTE   W18
 BYTE   Bn3
 BYTE   W18
 BYTE   TIE  As3
 BYTE   W42
 BYTE   PEND 
//  #05 //066   ----------------------------------------
 BYTE   W96
//  #05 //067   ----------------------------------------
 BYTE   EOT
Label_0160D1F7:
 BYTE   N18  Ds4  v100
 BYTE   W18
 BYTE   Ds3
 BYTE   W18
 BYTE   Bn3
 BYTE   W18
 BYTE   As3
 BYTE   W18
 BYTE   TIE  En3
 BYTE   W24
 BYTE   PEND 
//  #05 //068   ----------------------------------------
 BYTE   W96
//  #05 //069   ----------------------------------------
 BYTE   EOT
//  #05 //070   ----------------------------------------
 BYTE   PATT
  POIN2 Label_0160D1E9
//  #05 //071   ----------------------------------------
 BYTE   W96
//  #05 //072   ----------------------------------------
 BYTE   EOT
 BYTE   As3
//  #05 //073   ----------------------------------------
 BYTE   PATT
  POIN2 Label_0160D1F7
//  #05 //074   ----------------------------------------
 BYTE   W96
//  #05 //075   ----------------------------------------
 BYTE   EOT
 BYTE   En3
 BYTE   W96
//  #05 //076   ----------------------------------------
 BYTE   W96
//  #05 //077   ----------------------------------------
 BYTE   W96
//  #05 //078   ----------------------------------------
 BYTE   W96
//  #05 //079   ----------------------------------------
 BYTE   W96
//  #05 //080   ----------------------------------------
 BYTE   W96
//  #05 //081   ----------------------------------------
 BYTE   W96
//  #05 //082   ----------------------------------------
 BYTE   W96
//  #05 //083   ----------------------------------------
 BYTE   PATT
  POIN2 Label_0160D1E9
//  #05 //084   ----------------------------------------
 BYTE   W96
//  #05 //085   ----------------------------------------
 BYTE   EOT
 BYTE   As3
//  #05 //086   ----------------------------------------
 BYTE   PATT
  POIN2 Label_0160D1F7
//  #05 //087   ----------------------------------------
 BYTE   W96
//  #05 //088   ----------------------------------------
 BYTE   EOT
 BYTE   En3
Label_0160D22F:
 BYTE   N18  Ds5  v100
 BYTE   W18
 BYTE   Ds4
 BYTE   W18
 BYTE   Bn4
 BYTE   W18
 BYTE   TIE  As4
 BYTE   W42
 BYTE   PEND 
//  #05 //089   ----------------------------------------
 BYTE   W96
//  #05 //090   ----------------------------------------
 BYTE   EOT
Label_0160D23D:
 BYTE   N18  Ds5  v100
 BYTE   W18
 BYTE   Ds4
 BYTE   W18
 BYTE   Bn4
 BYTE   W18
 BYTE   As4
 BYTE   W18
 BYTE   TIE  En4
 BYTE   W24
 BYTE   PEND 
//  #05 //091   ----------------------------------------
 BYTE   W96
//  #05 //092   ----------------------------------------
 BYTE   EOT
 BYTE   N18  Ds6
 BYTE   W18
 BYTE   Ds5
 BYTE   W18
 BYTE   Bn5
 BYTE   W18
 BYTE   N42  As5
 BYTE   W42
//  #05 //093   ----------------------------------------
 BYTE   N18  Dn4
 BYTE   W18
 BYTE   Ds3
 BYTE   W18
 BYTE   Bn3
 BYTE   W18
 BYTE   N42  As3
 BYTE   W42
//  #05 //094   ----------------------------------------
 BYTE   N18  Ds2
 BYTE   W18
 BYTE   Ds1
 BYTE   W18
 BYTE   Bn1
 BYTE   W18
 BYTE   As1
 BYTE   W18
 BYTE   TIE  En1
 BYTE   W24
//  #05 //095   ----------------------------------------
 BYTE   W96
//  #05 //096   ----------------------------------------
 BYTE   EOT
 BYTE   N18  Ds6
 BYTE   W18
 BYTE   Ds5
 BYTE   W18
 BYTE   Bn5
 BYTE   W18
 BYTE   TIE  As5
 BYTE   W42
//  #05 //097   ----------------------------------------
 BYTE   W96
//  #05 //098   ----------------------------------------
 BYTE   EOT
 BYTE   N18  Ds6
 BYTE   W18
 BYTE   Ds5
 BYTE   W18
 BYTE   Bn5
 BYTE   W18
 BYTE   As5
 BYTE   W18
 BYTE   TIE  En5
 BYTE   W24
//  #05 //099   ----------------------------------------
 BYTE   W96
//  #05 //100   ----------------------------------------
 BYTE   EOT
//  #05 //101   ----------------------------------------
 BYTE   PATT
  POIN2 Label_0160D1E9
//  #05 //102   ----------------------------------------
 BYTE   W96
//  #05 //103   ----------------------------------------
 BYTE   EOT
 BYTE   As3
//  #05 //104   ----------------------------------------
 BYTE   PATT
  POIN2 Label_0160D1F7
//  #05 //105   ----------------------------------------
 BYTE   W96
//  #05 //106   ----------------------------------------
 BYTE   EOT
 BYTE   En3
//  #05 //107   ----------------------------------------
 BYTE   PATT
  POIN2 Label_0160D22F
//  #05 //108   ----------------------------------------
 BYTE   W96
//  #05 //109   ----------------------------------------
 BYTE   EOT
 BYTE   As4
//  #05 //110   ----------------------------------------
 BYTE   PATT
  POIN2 Label_0160D23D
//  #05 //111   ----------------------------------------
 BYTE   W92
 BYTE   W03
 BYTE   EOT
 BYTE   En4
 BYTE   W01
//  #05 //112   ----------------------------------------
 BYTE   GoTo
  POIN2 Label_0160D112
//  #05 //113   ----------------------------------------
 BYTE   VOICE   80
 BYTE   PAN   c_v+0
 BYTE   VOL   62*TheOnlyThingTheyFearIsYou_mvl/mxv
 BYTE   BEND   c_v+0
 BYTE   W90
 BYTE   VOICE   80
 BYTE   PAN   c_v+0
 BYTE   VOL   62*TheOnlyThingTheyFearIsYou_mvl/mxv
 BYTE   BEND   c_v+0
 BYTE   FINE

//**************** Track 6 (Midi-Chn.5) ****************//

TheOnlyThingTheyFearIsYou_006:
//  #06 //000   ----------------------------------------
 BYTE   KEYSH   TheOnlyThingTheyFearIsYou_key+0
Label_0160D2D6:
 BYTE   VOICE   52
 BYTE   PAN   c_v+0
 BYTE   VOL   62*TheOnlyThingTheyFearIsYou_mvl/mxv
 BYTE   PAN   c_v+0
 BYTE   VOL   62*TheOnlyThingTheyFearIsYou_mvl/mxv
 BYTE   PAN   c_v+0
 BYTE   VOL   62*TheOnlyThingTheyFearIsYou_mvl/mxv
 BYTE   PAN   c_v+0
 BYTE   VOL   62*TheOnlyThingTheyFearIsYou_mvl/mxv
 BYTE   BEND   c_v+0
 BYTE   W96
//  #06 //001   ----------------------------------------
 BYTE   W96
//  #06 //002   ----------------------------------------
 BYTE   W96
//  #06 //003   ----------------------------------------
 BYTE   W96
//  #06 //004   ----------------------------------------
 BYTE   W96
//  #06 //005   ----------------------------------------
 BYTE   W96
//  #06 //006   ----------------------------------------
 BYTE   W96
//  #06 //007   ----------------------------------------
 BYTE   W96
//  #06 //008   ----------------------------------------
 BYTE   W96
//  #06 //009   ----------------------------------------
 BYTE   W96
//  #06 //010   ----------------------------------------
 BYTE   W96
//  #06 //011   ----------------------------------------
 BYTE   W96
//  #06 //012   ----------------------------------------
 BYTE   W96
//  #06 //013   ----------------------------------------
 BYTE   W96
//  #06 //014   ----------------------------------------
 BYTE   W96
//  #06 //015   ----------------------------------------
 BYTE   W96
//  #06 //016   ----------------------------------------
 BYTE   W96
//  #06 //017   ----------------------------------------
 BYTE   W96
//  #06 //018   ----------------------------------------
 BYTE   W96
//  #06 //019   ----------------------------------------
 BYTE   W96
//  #06 //020   ----------------------------------------
Label_0160D2FE:
 BYTE   N24  Ds3  v100
 BYTE   W24
 BYTE   Dn4
 BYTE   W24
 BYTE   Bn3
 BYTE   W24
 BYTE   As3
 BYTE   W24
 BYTE   PEND 
//  #06 //021   ----------------------------------------
Label_0160D309:
 BYTE   N24  Ds4  v100
 BYTE   W24
 BYTE   Dn4
 BYTE   W24
 BYTE   Bn3
 BYTE   W24
 BYTE   As3
 BYTE   W24
 BYTE   PEND 
//  #06 //022   ----------------------------------------
Label_0160D314:
 BYTE   N24  Gs3  v100
 BYTE   W24
 BYTE   TIE  Gn3
 BYTE   W72
 BYTE   PEND 
//  #06 //023   ----------------------------------------
 BYTE   W96
//  #06 //024   ----------------------------------------
 BYTE   EOT
//  #06 //025   ----------------------------------------
 BYTE   PATT
  POIN2 Label_0160D2FE
//  #06 //026   ----------------------------------------
Label_0160D323:
 BYTE   N24  Ds4  v100
 BYTE   W24
 BYTE   Dn4
 BYTE   W24
 BYTE   Bn3
 BYTE   W24
 BYTE   En4
 BYTE   W24
 BYTE   PEND 
//  #06 //027   ----------------------------------------
 BYTE   TIE  Ds4
 BYTE   W96
//  #06 //028   ----------------------------------------
 BYTE   W96
//  #06 //029   ----------------------------------------
 BYTE   EOT
 BYTE   W96
//  #06 //030   ----------------------------------------
 BYTE   W96
//  #06 //031   ----------------------------------------
 BYTE   W96
//  #06 //032   ----------------------------------------
 BYTE   W96
//  #06 //033   ----------------------------------------
 BYTE   W96
//  #06 //034   ----------------------------------------
 BYTE   W96
//  #06 //035   ----------------------------------------
 BYTE   W96
//  #06 //036   ----------------------------------------
 BYTE   W96
//  #06 //037   ----------------------------------------
 BYTE   PATT
  POIN2 Label_0160D2FE
//  #06 //038   ----------------------------------------
 BYTE   PATT
  POIN2 Label_0160D309
//  #06 //039   ----------------------------------------
 BYTE   PATT
  POIN2 Label_0160D314
//  #06 //040   ----------------------------------------
 BYTE   W96
//  #06 //041   ----------------------------------------
 BYTE   EOT
 BYTE   Gn3
//  #06 //042   ----------------------------------------
 BYTE   PATT
  POIN2 Label_0160D2FE
//  #06 //043   ----------------------------------------
 BYTE   PATT
  POIN2 Label_0160D323
//  #06 //044   ----------------------------------------
 BYTE   TIE  Ds4  v100
 BYTE   W96
//  #06 //045   ----------------------------------------
 BYTE   W96
//  #06 //046   ----------------------------------------
 BYTE   EOT
//  #06 //047   ----------------------------------------
 BYTE   PATT
  POIN2 Label_0160D2FE
//  #06 //048   ----------------------------------------
 BYTE   PATT
  POIN2 Label_0160D309
//  #06 //049   ----------------------------------------
 BYTE   PATT
  POIN2 Label_0160D314
//  #06 //050   ----------------------------------------
 BYTE   W96
//  #06 //051   ----------------------------------------
 BYTE   EOT
 BYTE   Gn3
//  #06 //052   ----------------------------------------
 BYTE   PATT
  POIN2 Label_0160D2FE
//  #06 //053   ----------------------------------------
 BYTE   PATT
  POIN2 Label_0160D323
//  #06 //054   ----------------------------------------
 BYTE   TIE  Ds4  v100
 BYTE   W96
//  #06 //055   ----------------------------------------
 BYTE   W96
//  #06 //056   ----------------------------------------
 BYTE   EOT
 BYTE   W96
//  #06 //057   ----------------------------------------
 BYTE   W96
//  #06 //058   ----------------------------------------
 BYTE   W96
//  #06 //059   ----------------------------------------
 BYTE   W96
//  #06 //060   ----------------------------------------
 BYTE   W96
//  #06 //061   ----------------------------------------
 BYTE   W96
//  #06 //062   ----------------------------------------
 BYTE   W96
//  #06 //063   ----------------------------------------
 BYTE   W96
//  #06 //064   ----------------------------------------
Label_0160D387:
 BYTE   N18  Ds3  v100
 BYTE   W18
 BYTE   Ds2
 BYTE   W18
 BYTE   Bn2
 BYTE   W18
 BYTE   TIE  As2
 BYTE   W42
 BYTE   PEND 
//  #06 //065   ----------------------------------------
 BYTE   W96
//  #06 //066   ----------------------------------------
 BYTE   EOT
Label_0160D395:
 BYTE   N18  Ds3  v100
 BYTE   W18
 BYTE   Ds2
 BYTE   W18
 BYTE   Bn2
 BYTE   W18
 BYTE   As2
 BYTE   W18
 BYTE   TIE  En2
 BYTE   W24
 BYTE   PEND 
//  #06 //067   ----------------------------------------
 BYTE   W96
//  #06 //068   ----------------------------------------
 BYTE   EOT
//  #06 //069   ----------------------------------------
 BYTE   PATT
  POIN2 Label_0160D387
//  #06 //070   ----------------------------------------
 BYTE   W96
//  #06 //071   ----------------------------------------
 BYTE   EOT
 BYTE   As2
//  #06 //072   ----------------------------------------
 BYTE   PATT
  POIN2 Label_0160D395
//  #06 //073   ----------------------------------------
 BYTE   W96
//  #06 //074   ----------------------------------------
 BYTE   EOT
 BYTE   En2
 BYTE   W96
//  #06 //075   ----------------------------------------
 BYTE   W96
//  #06 //076   ----------------------------------------
 BYTE   W96
//  #06 //077   ----------------------------------------
 BYTE   W96
//  #06 //078   ----------------------------------------
 BYTE   W96
//  #06 //079   ----------------------------------------
 BYTE   W96
//  #06 //080   ----------------------------------------
 BYTE   W96
//  #06 //081   ----------------------------------------
 BYTE   W96
//  #06 //082   ----------------------------------------
Label_0160D3BD:
 BYTE   N18  Ds4  v100
 BYTE   W18
 BYTE   Ds3
 BYTE   W18
 BYTE   Bn3
 BYTE   W18
 BYTE   TIE  As3
 BYTE   W42
 BYTE   PEND 
//  #06 //083   ----------------------------------------
 BYTE   W96
//  #06 //084   ----------------------------------------
 BYTE   EOT
Label_0160D3CB:
 BYTE   N18  Ds4  v100
 BYTE   W18
 BYTE   Ds3
 BYTE   W18
 BYTE   Bn3
 BYTE   W18
 BYTE   As3
 BYTE   W18
 BYTE   TIE  En3
 BYTE   W24
 BYTE   PEND 
//  #06 //085   ----------------------------------------
 BYTE   W96
//  #06 //086   ----------------------------------------
 BYTE   EOT
Label_0160D3DB:
 BYTE   N18  Ds5  v100
 BYTE   W18
 BYTE   Ds4
 BYTE   W18
 BYTE   Bn4
 BYTE   W18
 BYTE   TIE  As4
 BYTE   W42
 BYTE   PEND 
//  #06 //087   ----------------------------------------
 BYTE   W96
//  #06 //088   ----------------------------------------
 BYTE   EOT
Label_0160D3E9:
 BYTE   N18  Ds5  v100
 BYTE   W18
 BYTE   Ds4
 BYTE   W18
 BYTE   Bn4
 BYTE   W18
 BYTE   As4
 BYTE   W18
 BYTE   TIE  En4
 BYTE   W24
 BYTE   PEND 
//  #06 //089   ----------------------------------------
 BYTE   W96
//  #06 //090   ----------------------------------------
 BYTE   EOT
 BYTE   N18  Ds6
 BYTE   W18
 BYTE   Ds5
 BYTE   W18
 BYTE   Bn5
 BYTE   W18
 BYTE   N42  As5
 BYTE   W42
//  #06 //091   ----------------------------------------
 BYTE   N18  Dn4
 BYTE   W18
 BYTE   Ds3
 BYTE   W18
 BYTE   Bn3
 BYTE   W18
 BYTE   N42  As3
 BYTE   W42
//  #06 //092   ----------------------------------------
 BYTE   N18  Ds2
 BYTE   W18
 BYTE   Ds1
 BYTE   W18
 BYTE   Bn1
 BYTE   W18
 BYTE   As1
 BYTE   W18
 BYTE   TIE  En1
 BYTE   W24
//  #06 //093   ----------------------------------------
 BYTE   W96
//  #06 //094   ----------------------------------------
 BYTE   EOT
 BYTE   N18  Ds6
 BYTE   W18
 BYTE   Ds5
 BYTE   W18
 BYTE   Bn5
 BYTE   W18
 BYTE   TIE  As5
 BYTE   W42
//  #06 //095   ----------------------------------------
 BYTE   W96
//  #06 //096   ----------------------------------------
 BYTE   EOT
 BYTE   N18  Ds6
 BYTE   W18
 BYTE   Ds5
 BYTE   W18
 BYTE   Bn5
 BYTE   W18
 BYTE   As5
 BYTE   W18
 BYTE   TIE  En5
 BYTE   W24
//  #06 //097   ----------------------------------------
 BYTE   W96
//  #06 //098   ----------------------------------------
 BYTE   EOT
//  #06 //099   ----------------------------------------
 BYTE   PATT
  POIN2 Label_0160D3BD
//  #06 //100   ----------------------------------------
 BYTE   W96
//  #06 //101   ----------------------------------------
 BYTE   EOT
 BYTE   As3
//  #06 //102   ----------------------------------------
 BYTE   PATT
  POIN2 Label_0160D3CB
//  #06 //103   ----------------------------------------
 BYTE   W96
//  #06 //104   ----------------------------------------
 BYTE   EOT
 BYTE   En3
//  #06 //105   ----------------------------------------
 BYTE   PATT
  POIN2 Label_0160D3DB
//  #06 //106   ----------------------------------------
 BYTE   W96
//  #06 //107   ----------------------------------------
 BYTE   EOT
 BYTE   As4
//  #06 //108   ----------------------------------------
 BYTE   PATT
  POIN2 Label_0160D3E9
//  #06 //109   ----------------------------------------
 BYTE   W92
 BYTE   W03
 BYTE   EOT
 BYTE   En4
 BYTE   W01
//  #06 //110   ----------------------------------------
 BYTE   GoTo
  POIN2 Label_0160D2D6
//  #06 //111   ----------------------------------------
 BYTE   VOICE   52
 BYTE   PAN   c_v+0
 BYTE   VOL   62*TheOnlyThingTheyFearIsYou_mvl/mxv
 BYTE   BEND   c_v+0
 BYTE   W90
 BYTE   VOICE   52
 BYTE   PAN   c_v+0
 BYTE   VOL   62*TheOnlyThingTheyFearIsYou_mvl/mxv
 BYTE   BEND   c_v+0
 BYTE   FINE

//**************** Track 7 (Midi-Chn.6) ****************//

TheOnlyThingTheyFearIsYou_007:
//  #07 //000   ----------------------------------------
 BYTE   KEYSH   TheOnlyThingTheyFearIsYou_key+0
Label_0160D482:
 BYTE   VOICE   121
 BYTE   PAN   c_v+0
 BYTE   VOL   62*TheOnlyThingTheyFearIsYou_mvl/mxv
 BYTE   PAN   c_v+0
 BYTE   VOL   62*TheOnlyThingTheyFearIsYou_mvl/mxv
 BYTE   PAN   c_v+0
 BYTE   VOL   62*TheOnlyThingTheyFearIsYou_mvl/mxv
 BYTE   PAN   c_v+0
 BYTE   VOL   62*TheOnlyThingTheyFearIsYou_mvl/mxv
 BYTE   PAN   c_v+0
 BYTE   VOL   62*TheOnlyThingTheyFearIsYou_mvl/mxv
 BYTE   PAN   c_v+0
 BYTE   VOL   62*TheOnlyThingTheyFearIsYou_mvl/mxv
 BYTE   PAN   c_v+0
 BYTE   VOL   62*TheOnlyThingTheyFearIsYou_mvl/mxv
 BYTE   PAN   c_v+0
 BYTE   VOL   62*TheOnlyThingTheyFearIsYou_mvl/mxv
 BYTE   PAN   c_v+0
 BYTE   VOL   62*TheOnlyThingTheyFearIsYou_mvl/mxv
 BYTE   PAN   c_v+0
 BYTE   VOL   62*TheOnlyThingTheyFearIsYou_mvl/mxv
 BYTE   PAN   c_v+0
 BYTE   VOL   62*TheOnlyThingTheyFearIsYou_mvl/mxv
 BYTE   PAN   c_v+0
 BYTE   VOL   62*TheOnlyThingTheyFearIsYou_mvl/mxv
 BYTE   BEND   c_v+0
 BYTE   N12  Cn1  v100
 BYTE   N24  Gs1
 BYTE   N96  As1
 BYTE   N96  Cs2
 BYTE   W24
 BYTE   N24  Gs1
 BYTE   W24
 BYTE   N12  Cn1
 BYTE   N24  Gs1
 BYTE   W24
 BYTE   N24
 BYTE   W24
//  #07 //001   ----------------------------------------
Label_0160D4CA:
 BYTE   N12  Cn1  v100
 BYTE   N24  Gs1
 BYTE   W24
 BYTE   N24
 BYTE   W24
 BYTE   N12  Cn1
 BYTE   N24  Gs1
 BYTE   W24
 BYTE   N24
 BYTE   W24
 BYTE   PEND 
//  #07 //002   ----------------------------------------
 BYTE   PATT
  POIN2 Label_0160D4CA
//  #07 //003   ----------------------------------------
 BYTE   N12  Cn1  v100
 BYTE   N24  Gs1
 BYTE   W24
 BYTE   N24
 BYTE   W24
 BYTE   N12  En1
 BYTE   N12  Gs1
 BYTE   N12  As1
 BYTE   W06
 BYTE   N06  Cn1
 BYTE   W06
 BYTE   N06
 BYTE   N12  Gs1
 BYTE   W06
 BYTE   En1
 BYTE   N12  Cs2
 BYTE   W06
 BYTE   N06  Cn1
 BYTE   N12  Gs1
 BYTE   W06
 BYTE   N06  Cn1
 BYTE   W06
 BYTE   N12  En1
 BYTE   N12  Gs1
 BYTE   N12  As1
 BYTE   W06
 BYTE   N06  Cn1
 BYTE   W06
//  #07 //004   ----------------------------------------
Label_0160D50B:
 BYTE   N12  Cn1  v100
 BYTE   N12  Gs1
 BYTE   N96  As1
 BYTE   N96  Cs2
 BYTE   W12
 BYTE   N12  En1
 BYTE   N12  Gs1
 BYTE   W12
 BYTE   N06  Cn1
 BYTE   N12  Gs1
 BYTE   W06
 BYTE   N06  Cn1
 BYTE   W06
 BYTE   N12  En1
 BYTE   N12  Gs1
 BYTE   W12
 BYTE   N06  Cn1
 BYTE   N12  Gs1
 BYTE   W06
 BYTE   N06  Cn1
 BYTE   W06
 BYTE   N12  En1
 BYTE   N12  Gs1
 BYTE   W06
 BYTE   Cn1
 BYTE   W06
 BYTE   Gs1
 BYTE   W06
 BYTE   Cn1
 BYTE   W06
 BYTE   En1
 BYTE   N12  Gs1
 BYTE   W06
 BYTE   N06  Cn1
 BYTE   W06
 BYTE   PEND 
//  #07 //005   ----------------------------------------
Label_0160D542:
 BYTE   N12  Cn1  v100
 BYTE   N12  Gs1
 BYTE   W12
 BYTE   En1
 BYTE   N12  Gs1
 BYTE   W12
 BYTE   N06  Cn1
 BYTE   N12  Gs1
 BYTE   W06
 BYTE   N06  Cn1
 BYTE   W06
 BYTE   N12  En1
 BYTE   N12  Gs1
 BYTE   W12
 BYTE   N06  Cn1
 BYTE   N12  Gs1
 BYTE   W06
 BYTE   N06  Cn1
 BYTE   W06
 BYTE   N12  En1
 BYTE   N12  Gs1
 BYTE   W06
 BYTE   Cn1
 BYTE   W06
 BYTE   Gs1
 BYTE   W06
 BYTE   Cn1
 BYTE   W06
 BYTE   En1
 BYTE   N12  Gs1
 BYTE   W06
 BYTE   N06  Cn1
 BYTE   W06
 BYTE   PEND 
//  #07 //006   ----------------------------------------
 BYTE   PATT
  POIN2 Label_0160D542
//  #07 //007   ----------------------------------------
 BYTE   PATT
  POIN2 Label_0160D542
//  #07 //008   ----------------------------------------
 BYTE   PATT
  POIN2 Label_0160D50B
//  #07 //009   ----------------------------------------
 BYTE   PATT
  POIN2 Label_0160D542
//  #07 //010   ----------------------------------------
 BYTE   PATT
  POIN2 Label_0160D542
//  #07 //011   ----------------------------------------
 BYTE   PATT
  POIN2 Label_0160D542
//  #07 //012   ----------------------------------------
 BYTE   PATT
  POIN2 Label_0160D50B
//  #07 //013   ----------------------------------------
 BYTE   PATT
  POIN2 Label_0160D542
//  #07 //014   ----------------------------------------
 BYTE   PATT
  POIN2 Label_0160D542
//  #07 //015   ----------------------------------------
 BYTE   PATT
  POIN2 Label_0160D542
//  #07 //016   ----------------------------------------
 BYTE   PATT
  POIN2 Label_0160D50B
//  #07 //017   ----------------------------------------
 BYTE   PATT
  POIN2 Label_0160D542
//  #07 //018   ----------------------------------------
 BYTE   PATT
  POIN2 Label_0160D542
//  #07 //019   ----------------------------------------
Label_0160D5B5:
 BYTE   N12  Cn1  v100
 BYTE   N12  Gs1
 BYTE   W12
 BYTE   En1
 BYTE   N12  Gs1
 BYTE   W12
 BYTE   N06  Cn1
 BYTE   N12  Gs1
 BYTE   W06
 BYTE   N06  Cn1
 BYTE   W06
 BYTE   N12  En1
 BYTE   N12  Gs1
 BYTE   W12
 BYTE   En1
 BYTE   N12  Gs1
 BYTE   N12  As1
 BYTE   W06
 BYTE   N06  Cn1
 BYTE   W06
 BYTE   N06
 BYTE   N12  Gs1
 BYTE   W06
 BYTE   En1
 BYTE   N12  Cs2
 BYTE   W06
 BYTE   N06  Cn1
 BYTE   N12  Gs1
 BYTE   W06
 BYTE   N06  Cn1
 BYTE   W06
 BYTE   N12  En1
 BYTE   N12  Gs1
 BYTE   N12  As1
 BYTE   W06
 BYTE   N06  Cn1
 BYTE   W06
 BYTE   PEND 
//  #07 //020   ----------------------------------------
 BYTE   PATT
  POIN2 Label_0160D50B
//  #07 //021   ----------------------------------------
 BYTE   PATT
  POIN2 Label_0160D542
//  #07 //022   ----------------------------------------
 BYTE   PATT
  POIN2 Label_0160D542
//  #07 //023   ----------------------------------------
 BYTE   PATT
  POIN2 Label_0160D542
//  #07 //024   ----------------------------------------
 BYTE   PATT
  POIN2 Label_0160D50B
//  #07 //025   ----------------------------------------
 BYTE   PATT
  POIN2 Label_0160D542
//  #07 //026   ----------------------------------------
 BYTE   PATT
  POIN2 Label_0160D542
//  #07 //027   ----------------------------------------
 BYTE   PATT
  POIN2 Label_0160D5B5
//  #07 //028   ----------------------------------------
 BYTE   PATT
  POIN2 Label_0160D50B
//  #07 //029   ----------------------------------------
 BYTE   PATT
  POIN2 Label_0160D542
//  #07 //030   ----------------------------------------
 BYTE   PATT
  POIN2 Label_0160D542
//  #07 //031   ----------------------------------------
 BYTE   PATT
  POIN2 Label_0160D542
//  #07 //032   ----------------------------------------
 BYTE   PATT
  POIN2 Label_0160D50B
//  #07 //033   ----------------------------------------
 BYTE   PATT
  POIN2 Label_0160D542
//  #07 //034   ----------------------------------------
 BYTE   PATT
  POIN2 Label_0160D542
//  #07 //035   ----------------------------------------
 BYTE   W48
 BYTE   N12  En1  v100
 BYTE   N12  Gs1
 BYTE   N12  As1
 BYTE   W06
 BYTE   N06  Cn1
 BYTE   W06
 BYTE   N06
 BYTE   N12  Gs1
 BYTE   W06
 BYTE   En1
 BYTE   N12  Cs2
 BYTE   W06
 BYTE   N06  Cn1
 BYTE   N12  Gs1
 BYTE   W06
 BYTE   N06  Cn1
 BYTE   W06
 BYTE   N12  En1
 BYTE   N12  Gs1
 BYTE   N12  As1
 BYTE   W06
 BYTE   N06  Cn1
 BYTE   W06
//  #07 //036   ----------------------------------------
 BYTE   PATT
  POIN2 Label_0160D50B
//  #07 //037   ----------------------------------------
 BYTE   PATT
  POIN2 Label_0160D542
//  #07 //038   ----------------------------------------
 BYTE   PATT
  POIN2 Label_0160D542
//  #07 //039   ----------------------------------------
 BYTE   PATT
  POIN2 Label_0160D542
//  #07 //040   ----------------------------------------
 BYTE   PATT
  POIN2 Label_0160D50B
//  #07 //041   ----------------------------------------
 BYTE   PATT
  POIN2 Label_0160D542
//  #07 //042   ----------------------------------------
 BYTE   PATT
  POIN2 Label_0160D542
//  #07 //043   ----------------------------------------
 BYTE   PATT
  POIN2 Label_0160D542
//  #07 //044   ----------------------------------------
 BYTE   PATT
  POIN2 Label_0160D50B
//  #07 //045   ----------------------------------------
 BYTE   PATT
  POIN2 Label_0160D542
//  #07 //046   ----------------------------------------
 BYTE   PATT
  POIN2 Label_0160D542
//  #07 //047   ----------------------------------------
 BYTE   PATT
  POIN2 Label_0160D542
//  #07 //048   ----------------------------------------
 BYTE   PATT
  POIN2 Label_0160D50B
//  #07 //049   ----------------------------------------
 BYTE   PATT
  POIN2 Label_0160D542
//  #07 //050   ----------------------------------------
 BYTE   PATT
  POIN2 Label_0160D50B
//  #07 //051   ----------------------------------------
 BYTE   PATT
  POIN2 Label_0160D5B5
//  #07 //052   ----------------------------------------
Label_0160D6B1:
 BYTE   N12  Cn1  v100
 BYTE   N24  Gs1
 BYTE   N96  As1
 BYTE   N96  Cs2
 BYTE   N24  An2
 BYTE   W24
 BYTE   N12  Dn1
 BYTE   N24  Gs1
 BYTE   N24  An2
 BYTE   W18
 BYTE   N06  Cn1
 BYTE   W06
 BYTE   N12
 BYTE   N24  Gs1
 BYTE   N24  An2
 BYTE   W12
 BYTE   N12  Cn1
 BYTE   W12
 BYTE   Dn1
 BYTE   N24  Gs1
 BYTE   N24  An2
 BYTE   W24
 BYTE   PEND 
//  #07 //053   ----------------------------------------
Label_0160D6D7:
 BYTE   N12  Cn1  v100
 BYTE   N24  Gs1
 BYTE   N24  An2
 BYTE   W24
 BYTE   N12  Dn1
 BYTE   N24  Gs1
 BYTE   N24  An2
 BYTE   W18
 BYTE   N06  Cn1
 BYTE   W06
 BYTE   N12
 BYTE   N24  Gs1
 BYTE   N24  An2
 BYTE   W12
 BYTE   N12  Cn1
 BYTE   W12
 BYTE   Dn1
 BYTE   N24  Gs1
 BYTE   N24  An2
 BYTE   W24
 BYTE   PEND 
//  #07 //054   ----------------------------------------
 BYTE   PATT
  POIN2 Label_0160D6D7
//  #07 //055   ----------------------------------------
 BYTE   PATT
  POIN2 Label_0160D6D7
//  #07 //056   ----------------------------------------
 BYTE   PATT
  POIN2 Label_0160D6B1
//  #07 //057   ----------------------------------------
 BYTE   PATT
  POIN2 Label_0160D6D7
//  #07 //058   ----------------------------------------
 BYTE   PATT
  POIN2 Label_0160D6D7
//  #07 //059   ----------------------------------------
 BYTE   W96
//  #07 //060   ----------------------------------------
Label_0160D713:
 BYTE   N12  Cn1  v100
 BYTE   N24  Gs1
 BYTE   N96  As1
 BYTE   N96  Cs2
 BYTE   W24
 BYTE   N24  Gs1
 BYTE   W24
 BYTE   N12  Cn1
 BYTE   N24  Gs1
 BYTE   W24
 BYTE   N24
 BYTE   W24
 BYTE   PEND 
//  #07 //061   ----------------------------------------
 BYTE   PATT
  POIN2 Label_0160D4CA
//  #07 //062   ----------------------------------------
 BYTE   PATT
  POIN2 Label_0160D4CA
//  #07 //063   ----------------------------------------
 BYTE   PATT
  POIN2 Label_0160D4CA
//  #07 //064   ----------------------------------------
 BYTE   PATT
  POIN2 Label_0160D713
//  #07 //065   ----------------------------------------
 BYTE   PATT
  POIN2 Label_0160D4CA
//  #07 //066   ----------------------------------------
 BYTE   PATT
  POIN2 Label_0160D4CA
//  #07 //067   ----------------------------------------
 BYTE   PATT
  POIN2 Label_0160D4CA
//  #07 //068   ----------------------------------------
Label_0160D74B:
 BYTE   N12  Cn1  v100
 BYTE   N24  Gs1
 BYTE   N96  As1
 BYTE   N24  Cs2
 BYTE   W24
 BYTE   N12  Cn1
 BYTE   N12  En1
 BYTE   N24  Gs1
 BYTE   N24  Cs2
 BYTE   W24
 BYTE   N12  Cn1
 BYTE   N24  Gs1
 BYTE   N24  Cs2
 BYTE   W24
 BYTE   N12  Cn1
 BYTE   N12  En1
 BYTE   N24  Gs1
 BYTE   N24  Cs2
 BYTE   W24
 BYTE   PEND 
//  #07 //069   ----------------------------------------
Label_0160D76F:
 BYTE   N12  Cn1  v100
 BYTE   N24  Gs1
 BYTE   N24  Cs2
 BYTE   W24
 BYTE   N12  Cn1
 BYTE   N12  En1
 BYTE   N24  Gs1
 BYTE   N24  Cs2
 BYTE   W24
 BYTE   N12  Cn1
 BYTE   N24  Gs1
 BYTE   N24  Cs2
 BYTE   W24
 BYTE   N12  Cn1
 BYTE   N12  En1
 BYTE   N24  Gs1
 BYTE   N24  Cs2
 BYTE   W24
 BYTE   PEND 
//  #07 //070   ----------------------------------------
 BYTE   PATT
  POIN2 Label_0160D76F
//  #07 //071   ----------------------------------------
 BYTE   PATT
  POIN2 Label_0160D76F
//  #07 //072   ----------------------------------------
 BYTE   PATT
  POIN2 Label_0160D74B
//  #07 //073   ----------------------------------------
 BYTE   PATT
  POIN2 Label_0160D76F
//  #07 //074   ----------------------------------------
 BYTE   PATT
  POIN2 Label_0160D76F
//  #07 //075   ----------------------------------------
 BYTE   PATT
  POIN2 Label_0160D76F
//  #07 //076   ----------------------------------------
 BYTE   PATT
  POIN2 Label_0160D74B
//  #07 //077   ----------------------------------------
 BYTE   PATT
  POIN2 Label_0160D76F
//  #07 //078   ----------------------------------------
 BYTE   PATT
  POIN2 Label_0160D76F
//  #07 //079   ----------------------------------------
 BYTE   PATT
  POIN2 Label_0160D76F
//  #07 //080   ----------------------------------------
 BYTE   PATT
  POIN2 Label_0160D74B
//  #07 //081   ----------------------------------------
 BYTE   PATT
  POIN2 Label_0160D76F
//  #07 //082   ----------------------------------------
 BYTE   PATT
  POIN2 Label_0160D76F
//  #07 //083   ----------------------------------------
 BYTE   PATT
  POIN2 Label_0160D76F
//  #07 //084   ----------------------------------------
 BYTE   PATT
  POIN2 Label_0160D74B
//  #07 //085   ----------------------------------------
 BYTE   PATT
  POIN2 Label_0160D76F
//  #07 //086   ----------------------------------------
 BYTE   PATT
  POIN2 Label_0160D76F
//  #07 //087   ----------------------------------------
 BYTE   PATT
  POIN2 Label_0160D76F
//  #07 //088   ----------------------------------------
 BYTE   PATT
  POIN2 Label_0160D74B
//  #07 //089   ----------------------------------------
 BYTE   PATT
  POIN2 Label_0160D76F
//  #07 //090   ----------------------------------------
 BYTE   PATT
  POIN2 Label_0160D76F
//  #07 //091   ----------------------------------------
 BYTE   PATT
  POIN2 Label_0160D76F
//  #07 //092   ----------------------------------------
 BYTE   PATT
  POIN2 Label_0160D74B
//  #07 //093   ----------------------------------------
 BYTE   PATT
  POIN2 Label_0160D76F
//  #07 //094   ----------------------------------------
 BYTE   PATT
  POIN2 Label_0160D76F
//  #07 //095   ----------------------------------------
 BYTE   PATT
  POIN2 Label_0160D76F
//  #07 //096   ----------------------------------------
 BYTE   PATT
  POIN2 Label_0160D74B
//  #07 //097   ----------------------------------------
 BYTE   PATT
  POIN2 Label_0160D76F
//  #07 //098   ----------------------------------------
 BYTE   PATT
  POIN2 Label_0160D76F
//  #07 //099   ----------------------------------------
 BYTE   N12  Cn1  v100
 BYTE   N24  Gs1
 BYTE   N24  Cs2
 BYTE   W24
 BYTE   N12  Cn1
 BYTE   N12  En1
 BYTE   N24  Gs1
 BYTE   N24  Cs2
 BYTE   W24
 BYTE   N12  Cn1
 BYTE   N24  Gs1
 BYTE   N24  Cs2
 BYTE   W24
 BYTE   N12  Cn1
 BYTE   N12  En1
 BYTE   N23  Gs1
 BYTE   N23  Cs2
 BYTE   W24
//  #07 //100   ----------------------------------------
 BYTE   GoTo
  POIN2 Label_0160D482
//  #07 //101   ----------------------------------------
 BYTE   VOICE   121
 BYTE   PAN   c_v+0
 BYTE   VOL   62*TheOnlyThingTheyFearIsYou_mvl/mxv
 BYTE   PAN   c_v+0
 BYTE   VOL   62*TheOnlyThingTheyFearIsYou_mvl/mxv
 BYTE   PAN   c_v+0
 BYTE   VOL   62*TheOnlyThingTheyFearIsYou_mvl/mxv
 BYTE   BEND   c_v+0
 BYTE   W90
 BYTE   VOICE   121
 BYTE   PAN   c_v+0
 BYTE   VOL   62*TheOnlyThingTheyFearIsYou_mvl/mxv
 BYTE   PAN   c_v+0
 BYTE   VOL   62*TheOnlyThingTheyFearIsYou_mvl/mxv
 BYTE   PAN   c_v+0
 BYTE   VOL   62*TheOnlyThingTheyFearIsYou_mvl/mxv
 BYTE   BEND   c_v+0
 BYTE   FINE

//**************** Track 8 (Midi-Chn.7) ****************//

TheOnlyThingTheyFearIsYou_008:
//  #08 //000   ----------------------------------------
 BYTE   KEYSH   TheOnlyThingTheyFearIsYou_key+0
Label_0160D87E:
 BYTE   VOICE   63
 BYTE   PAN   c_v+0
 BYTE   VOL   66*TheOnlyThingTheyFearIsYou_mvl/mxv
 BYTE   PAN   c_v+0
 BYTE   VOL   66*TheOnlyThingTheyFearIsYou_mvl/mxv
 BYTE   PAN   c_v+0
 BYTE   VOL   66*TheOnlyThingTheyFearIsYou_mvl/mxv
 BYTE   PAN   c_v+0
 BYTE   VOL   66*TheOnlyThingTheyFearIsYou_mvl/mxv
 BYTE   BEND   c_v+0
 BYTE   W96
//  #08 //001   ----------------------------------------
 BYTE   W96
//  #08 //002   ----------------------------------------
 BYTE   W96
//  #08 //003   ----------------------------------------
 BYTE   W96
//  #08 //004   ----------------------------------------
 BYTE   W96
//  #08 //005   ----------------------------------------
 BYTE   W96
//  #08 //006   ----------------------------------------
 BYTE   W96
//  #08 //007   ----------------------------------------
 BYTE   W96
//  #08 //008   ----------------------------------------
 BYTE   W96
//  #08 //009   ----------------------------------------
 BYTE   W96
//  #08 //010   ----------------------------------------
 BYTE   W96
//  #08 //011   ----------------------------------------
 BYTE   W96
//  #08 //012   ----------------------------------------
 BYTE   W96
//  #08 //013   ----------------------------------------
 BYTE   W96
//  #08 //014   ----------------------------------------
 BYTE   W96
//  #08 //015   ----------------------------------------
 BYTE   W96
//  #08 //016   ----------------------------------------
 BYTE   W96
//  #08 //017   ----------------------------------------
 BYTE   W96
//  #08 //018   ----------------------------------------
 BYTE   W96
//  #08 //019   ----------------------------------------
 BYTE   W96
//  #08 //020   ----------------------------------------
 BYTE   W96
//  #08 //021   ----------------------------------------
 BYTE   W96
//  #08 //022   ----------------------------------------
 BYTE   W96
//  #08 //023   ----------------------------------------
 BYTE   W96
//  #08 //024   ----------------------------------------
 BYTE   W96
//  #08 //025   ----------------------------------------
 BYTE   W96
//  #08 //026   ----------------------------------------
 BYTE   W96
//  #08 //027   ----------------------------------------
 BYTE   W96
//  #08 //028   ----------------------------------------
 BYTE   W96
//  #08 //029   ----------------------------------------
 BYTE   W96
//  #08 //030   ----------------------------------------
 BYTE   W96
//  #08 //031   ----------------------------------------
 BYTE   W96
//  #08 //032   ----------------------------------------
 BYTE   W96
//  #08 //033   ----------------------------------------
 BYTE   W96
//  #08 //034   ----------------------------------------
 BYTE   W96
//  #08 //035   ----------------------------------------
 BYTE   W96
//  #08 //036   ----------------------------------------
 BYTE   W96
//  #08 //037   ----------------------------------------
 BYTE   W96
//  #08 //038   ----------------------------------------
 BYTE   W96
//  #08 //039   ----------------------------------------
 BYTE   W96
//  #08 //040   ----------------------------------------
 BYTE   W96
//  #08 //041   ----------------------------------------
 BYTE   W96
//  #08 //042   ----------------------------------------
 BYTE   W96
//  #08 //043   ----------------------------------------
 BYTE   W96
//  #08 //044   ----------------------------------------
Label_0160D8BE:
 BYTE   N24  Ds3  v100
 BYTE   W24
 BYTE   Dn4
 BYTE   W24
 BYTE   Bn3
 BYTE   W24
 BYTE   As3
 BYTE   W24
 BYTE   PEND 
//  #08 //045   ----------------------------------------
 BYTE   Ds4
 BYTE   W24
 BYTE   Dn4
 BYTE   W24
 BYTE   Bn3
 BYTE   W24
 BYTE   As3
 BYTE   W24
//  #08 //046   ----------------------------------------
 BYTE   Gs3
 BYTE   W24
 BYTE   TIE  Gn3
 BYTE   W72
//  #08 //047   ----------------------------------------
 BYTE   W96
//  #08 //048   ----------------------------------------
 BYTE   EOT
//  #08 //049   ----------------------------------------
 BYTE   PATT
  POIN2 Label_0160D8BE
//  #08 //050   ----------------------------------------
 BYTE   N24  Ds4  v100
 BYTE   W24
 BYTE   Dn4
 BYTE   W24
 BYTE   Bn3
 BYTE   W24
 BYTE   En4
 BYTE   W24
//  #08 //051   ----------------------------------------
 BYTE   TIE  Ds4
 BYTE   W96
//  #08 //052   ----------------------------------------
 BYTE   W96
//  #08 //053   ----------------------------------------
 BYTE   EOT
 BYTE   W96
//  #08 //054   ----------------------------------------
 BYTE   W96
//  #08 //055   ----------------------------------------
 BYTE   W96
//  #08 //056   ----------------------------------------
 BYTE   W96
//  #08 //057   ----------------------------------------
 BYTE   W96
//  #08 //058   ----------------------------------------
 BYTE   W96
//  #08 //059   ----------------------------------------
 BYTE   W96
//  #08 //060   ----------------------------------------
 BYTE   W96
//  #08 //061   ----------------------------------------
 BYTE   W96
//  #08 //062   ----------------------------------------
 BYTE   W96
//  #08 //063   ----------------------------------------
 BYTE   W96
//  #08 //064   ----------------------------------------
 BYTE   W96
//  #08 //065   ----------------------------------------
 BYTE   W96
//  #08 //066   ----------------------------------------
 BYTE   W96
//  #08 //067   ----------------------------------------
 BYTE   W96
//  #08 //068   ----------------------------------------
 BYTE   W96
//  #08 //069   ----------------------------------------
 BYTE   W96
//  #08 //070   ----------------------------------------
 BYTE   W96
//  #08 //071   ----------------------------------------
 BYTE   W96
//  #08 //072   ----------------------------------------
 BYTE   W96
//  #08 //073   ----------------------------------------
 BYTE   W96
//  #08 //074   ----------------------------------------
 BYTE   W96
//  #08 //075   ----------------------------------------
 BYTE   W96
//  #08 //076   ----------------------------------------
 BYTE   W96
//  #08 //077   ----------------------------------------
 BYTE   W96
//  #08 //078   ----------------------------------------
 BYTE   W96
//  #08 //079   ----------------------------------------
 BYTE   W96
//  #08 //080   ----------------------------------------
 BYTE   W96
//  #08 //081   ----------------------------------------
 BYTE   W96
//  #08 //082   ----------------------------------------
 BYTE   W96
//  #08 //083   ----------------------------------------
 BYTE   W96
//  #08 //084   ----------------------------------------
 BYTE   W96
//  #08 //085   ----------------------------------------
 BYTE   W96
//  #08 //086   ----------------------------------------
 BYTE   W96
//  #08 //087   ----------------------------------------
 BYTE   W96
//  #08 //088   ----------------------------------------
 BYTE   W96
//  #08 //089   ----------------------------------------
 BYTE   W96
//  #08 //090   ----------------------------------------
 BYTE   W96
//  #08 //091   ----------------------------------------
 BYTE   W96
//  #08 //092   ----------------------------------------
 BYTE   W96
//  #08 //093   ----------------------------------------
 BYTE   W96
//  #08 //094   ----------------------------------------
 BYTE   W96
//  #08 //095   ----------------------------------------
 BYTE   W96
//  #08 //096   ----------------------------------------
 BYTE   W96
//  #08 //097   ----------------------------------------
 BYTE   W96
//  #08 //098   ----------------------------------------
 BYTE   W96
//  #08 //099   ----------------------------------------
 BYTE   W96
//  #08 //100   ----------------------------------------
 BYTE   W96
//  #08 //101   ----------------------------------------
 BYTE   GoTo
  POIN2 Label_0160D87E
//  #08 //102   ----------------------------------------
 BYTE   VOICE   63
 BYTE   PAN   c_v+0
 BYTE   VOL   66*TheOnlyThingTheyFearIsYou_mvl/mxv
 BYTE   BEND   c_v+0
 BYTE   W90
 BYTE   VOICE   63
 BYTE   PAN   c_v+0
 BYTE   VOL   66*TheOnlyThingTheyFearIsYou_mvl/mxv
 BYTE   BEND   c_v+0
 BYTE   FINE

//**************** Track 9 (Midi-Chn.8) ****************//

TheOnlyThingTheyFearIsYou_009:
//  #09 //000   ----------------------------------------
 BYTE   KEYSH   TheOnlyThingTheyFearIsYou_key+0
Label_0160D946:
 BYTE   VOICE   30
 BYTE   PAN   c_v+14
 BYTE   VOL   62*TheOnlyThingTheyFearIsYou_mvl/mxv
 BYTE   PAN   c_v+14
 BYTE   VOL   62*TheOnlyThingTheyFearIsYou_mvl/mxv
 BYTE   PAN   c_v+14
 BYTE   VOL   62*TheOnlyThingTheyFearIsYou_mvl/mxv
 BYTE   PAN   c_v+14
 BYTE   VOL   62*TheOnlyThingTheyFearIsYou_mvl/mxv
 BYTE   BEND   c_v+0
 BYTE   W96
//  #09 //001   ----------------------------------------
 BYTE   W96
//  #09 //002   ----------------------------------------
 BYTE   W96
//  #09 //003   ----------------------------------------
 BYTE   W96
//  #09 //004   ----------------------------------------
 BYTE   W96
//  #09 //005   ----------------------------------------
 BYTE   W96
//  #09 //006   ----------------------------------------
 BYTE   W96
//  #09 //007   ----------------------------------------
 BYTE   W96
//  #09 //008   ----------------------------------------
 BYTE   W96
//  #09 //009   ----------------------------------------
 BYTE   W96
//  #09 //010   ----------------------------------------
 BYTE   W96
//  #09 //011   ----------------------------------------
 BYTE   W96
//  #09 //012   ----------------------------------------
 BYTE   W96
//  #09 //013   ----------------------------------------
 BYTE   W96
//  #09 //014   ----------------------------------------
 BYTE   W96
//  #09 //015   ----------------------------------------
 BYTE   W96
//  #09 //016   ----------------------------------------
 BYTE   W96
//  #09 //017   ----------------------------------------
 BYTE   W96
//  #09 //018   ----------------------------------------
 BYTE   W96
//  #09 //019   ----------------------------------------
 BYTE   W96
//  #09 //020   ----------------------------------------
 BYTE   W96
//  #09 //021   ----------------------------------------
 BYTE   W96
//  #09 //022   ----------------------------------------
 BYTE   W96
//  #09 //023   ----------------------------------------
 BYTE   W96
//  #09 //024   ----------------------------------------
 BYTE   W96
//  #09 //025   ----------------------------------------
 BYTE   W96
//  #09 //026   ----------------------------------------
 BYTE   W96
//  #09 //027   ----------------------------------------
 BYTE   W96
//  #09 //028   ----------------------------------------
 BYTE   W96
//  #09 //029   ----------------------------------------
 BYTE   W96
//  #09 //030   ----------------------------------------
 BYTE   W96
//  #09 //031   ----------------------------------------
 BYTE   W96
//  #09 //032   ----------------------------------------
 BYTE   W96
//  #09 //033   ----------------------------------------
 BYTE   W96
//  #09 //034   ----------------------------------------
 BYTE   W96
//  #09 //035   ----------------------------------------
 BYTE   W96
//  #09 //036   ----------------------------------------
 BYTE   W96
//  #09 //037   ----------------------------------------
 BYTE   W96
//  #09 //038   ----------------------------------------
 BYTE   W96
//  #09 //039   ----------------------------------------
 BYTE   W96
//  #09 //040   ----------------------------------------
 BYTE   W96
//  #09 //041   ----------------------------------------
 BYTE   W96
//  #09 //042   ----------------------------------------
 BYTE   W96
//  #09 //043   ----------------------------------------
 BYTE   W96
//  #09 //044   ----------------------------------------
 BYTE   W96
//  #09 //045   ----------------------------------------
 BYTE   W96
//  #09 //046   ----------------------------------------
 BYTE   W96
//  #09 //047   ----------------------------------------
 BYTE   W96
//  #09 //048   ----------------------------------------
 BYTE   W96
//  #09 //049   ----------------------------------------
 BYTE   W96
//  #09 //050   ----------------------------------------
 BYTE   W96
//  #09 //051   ----------------------------------------
 BYTE   W96
//  #09 //052   ----------------------------------------
 BYTE   W96
//  #09 //053   ----------------------------------------
 BYTE   W96
//  #09 //054   ----------------------------------------
 BYTE   W96
//  #09 //055   ----------------------------------------
 BYTE   W96
//  #09 //056   ----------------------------------------
Label_0160D992:
 BYTE   N06  Ds1  v100
 BYTE   W06
 BYTE   N06
 BYTE   W06
 BYTE   Ds2
 BYTE   W06
 BYTE   Ds1
 BYTE   W06
 BYTE   N06
 BYTE   W06
 BYTE   Cs2
 BYTE   W06
 BYTE   Ds1
 BYTE   W06
 BYTE   N06
 BYTE   W06
 BYTE   Bn1
 BYTE   W06
 BYTE   Ds1
 BYTE   W06
 BYTE   N06
 BYTE   W06
 BYTE   An1
 BYTE   W06
 BYTE   Ds1
 BYTE   W06
 BYTE   N06
 BYTE   W06
 BYTE   An1
 BYTE   W06
 BYTE   Bn1
 BYTE   W06
 BYTE   PEND 
//  #09 //057   ----------------------------------------
Label_0160D9B5:
 BYTE   N06  Ds1  v100
 BYTE   W06
 BYTE   N06
 BYTE   W06
 BYTE   Ds2
 BYTE   W06
 BYTE   Ds1
 BYTE   W06
 BYTE   N06
 BYTE   W06
 BYTE   Cs2
 BYTE   W06
 BYTE   Ds1
 BYTE   W06
 BYTE   N06
 BYTE   W06
 BYTE   Bn1
 BYTE   W06
 BYTE   Ds1
 BYTE   W06
 BYTE   N06
 BYTE   W06
 BYTE   N30  An1
 BYTE   W30
 BYTE   PEND 
//  #09 //058   ----------------------------------------
 BYTE   PATT
  POIN2 Label_0160D992
//  #09 //059   ----------------------------------------
 BYTE   PATT
  POIN2 Label_0160D9B5
//  #09 //060   ----------------------------------------
 BYTE   W96
//  #09 //061   ----------------------------------------
 BYTE   W96
//  #09 //062   ----------------------------------------
 BYTE   W96
//  #09 //063   ----------------------------------------
 BYTE   W96
//  #09 //064   ----------------------------------------
 BYTE   W96
//  #09 //065   ----------------------------------------
 BYTE   W96
//  #09 //066   ----------------------------------------
 BYTE   W96
//  #09 //067   ----------------------------------------
 BYTE   W96
//  #09 //068   ----------------------------------------
 BYTE   W96
//  #09 //069   ----------------------------------------
 BYTE   W96
//  #09 //070   ----------------------------------------
 BYTE   W96
//  #09 //071   ----------------------------------------
 BYTE   W96
//  #09 //072   ----------------------------------------
 BYTE   W96
//  #09 //073   ----------------------------------------
 BYTE   W96
//  #09 //074   ----------------------------------------
 BYTE   W96
//  #09 //075   ----------------------------------------
 BYTE   W96
//  #09 //076   ----------------------------------------
 BYTE   W96
//  #09 //077   ----------------------------------------
 BYTE   W96
//  #09 //078   ----------------------------------------
 BYTE   W96
//  #09 //079   ----------------------------------------
 BYTE   W96
//  #09 //080   ----------------------------------------
 BYTE   W96
//  #09 //081   ----------------------------------------
 BYTE   W96
//  #09 //082   ----------------------------------------
 BYTE   W96
//  #09 //083   ----------------------------------------
 BYTE   W96
//  #09 //084   ----------------------------------------
 BYTE   W96
//  #09 //085   ----------------------------------------
 BYTE   W96
//  #09 //086   ----------------------------------------
 BYTE   W96
//  #09 //087   ----------------------------------------
 BYTE   W96
//  #09 //088   ----------------------------------------
 BYTE   W96
//  #09 //089   ----------------------------------------
 BYTE   W96
//  #09 //090   ----------------------------------------
 BYTE   W96
//  #09 //091   ----------------------------------------
 BYTE   W96
//  #09 //092   ----------------------------------------
 BYTE   W96
//  #09 //093   ----------------------------------------
 BYTE   W96
//  #09 //094   ----------------------------------------
 BYTE   W96
//  #09 //095   ----------------------------------------
 BYTE   W96
//  #09 //096   ----------------------------------------
 BYTE   W96
//  #09 //097   ----------------------------------------
 BYTE   W96
//  #09 //098   ----------------------------------------
 BYTE   W96
//  #09 //099   ----------------------------------------
 BYTE   W96
//  #09 //100   ----------------------------------------
 BYTE   GoTo
  POIN2 Label_0160D946
//  #09 //101   ----------------------------------------
 BYTE   VOICE   30
 BYTE   PAN   c_v+14
 BYTE   VOL   62*TheOnlyThingTheyFearIsYou_mvl/mxv
 BYTE   BEND   c_v+0
 BYTE   W90
 BYTE   VOICE   30
 BYTE   PAN   c_v+14
 BYTE   VOL   62*TheOnlyThingTheyFearIsYou_mvl/mxv
 BYTE   BEND   c_v+0
 BYTE   FINE

//**************** Track 10 (Midi-Chn.9) ****************//

TheOnlyThingTheyFearIsYou_010:
//  #10 //000   ----------------------------------------
 BYTE   KEYSH   TheOnlyThingTheyFearIsYou_key+0
Label_0160DA2E:
 BYTE   VOICE   33
 BYTE   PAN   c_v+0
 BYTE   VOL   62*TheOnlyThingTheyFearIsYou_mvl/mxv
 BYTE   PAN   c_v+0
 BYTE   VOL   62*TheOnlyThingTheyFearIsYou_mvl/mxv
 BYTE   PAN   c_v+0
 BYTE   VOL   62*TheOnlyThingTheyFearIsYou_mvl/mxv
 BYTE   PAN   c_v+0
 BYTE   VOL   62*TheOnlyThingTheyFearIsYou_mvl/mxv
 BYTE   BEND   c_v+0
 BYTE   N12  Ds0  v100
 BYTE   W12
 BYTE   N12
 BYTE   W18
 BYTE   N12
 BYTE   W18
 BYTE   N12
 BYTE   W18
 BYTE   N12
 BYTE   W18
 BYTE   N06
 BYTE   W06
 BYTE   En0
 BYTE   W06
//  #10 //001   ----------------------------------------
Label_0160DA52:
 BYTE   N12  Ds0  v100
 BYTE   W12
 BYTE   N12
 BYTE   W18
 BYTE   N12
 BYTE   W18
 BYTE   En0
 BYTE   W18
 BYTE   N30
 BYTE   W30
 BYTE   PEND 
//  #10 //002   ----------------------------------------
Label_0160DA5F:
 BYTE   N12  Ds0  v100
 BYTE   W12
 BYTE   N12
 BYTE   W18
 BYTE   N12
 BYTE   W18
 BYTE   N12
 BYTE   W12
 BYTE   N06
 BYTE   W06
 BYTE   N12
 BYTE   W18
 BYTE   N06
 BYTE   W06
 BYTE   En0
 BYTE   W06
 BYTE   PEND 
//  #10 //003   ----------------------------------------
 BYTE   N12  Ds0
 BYTE   W12
 BYTE   N12
 BYTE   W18
 BYTE   N06
 BYTE   W06
 BYTE   N06
 BYTE   W06
 BYTE   En0
 BYTE   W06
 BYTE   Ds0
 BYTE   W06
 BYTE   N06
 BYTE   W12
 BYTE   N06
 BYTE   W30
//  #10 //004   ----------------------------------------
Label_0160DA83:
 BYTE   N12  Ds0  v100
 BYTE   W12
 BYTE   N12
 BYTE   W18
 BYTE   N12
 BYTE   W18
 BYTE   N12
 BYTE   W18
 BYTE   N12
 BYTE   W18
 BYTE   N06
 BYTE   W06
 BYTE   En0
 BYTE   W06
 BYTE   PEND 
//  #10 //005   ----------------------------------------
 BYTE   PATT
  POIN2 Label_0160DA52
//  #10 //006   ----------------------------------------
 BYTE   PATT
  POIN2 Label_0160DA5F
//  #10 //007   ----------------------------------------
Label_0160DA9E:
 BYTE   N12  Ds0  v100
 BYTE   W12
 BYTE   N12
 BYTE   W18
 BYTE   N06
 BYTE   W06
 BYTE   Dn0
 BYTE   W06
 BYTE   Ds0
 BYTE   W06
 BYTE   Dn0
 BYTE   W06
 BYTE   N12
 BYTE   W18
 BYTE   N06
 BYTE   W06
 BYTE   N12
 BYTE   W18
 BYTE   PEND 
//  #10 //008   ----------------------------------------
 BYTE   PATT
  POIN2 Label_0160DA83
//  #10 //009   ----------------------------------------
 BYTE   PATT
  POIN2 Label_0160DA52
//  #10 //010   ----------------------------------------
 BYTE   PATT
  POIN2 Label_0160DA5F
//  #10 //011   ----------------------------------------
 BYTE   PATT
  POIN2 Label_0160DA9E
//  #10 //012   ----------------------------------------
 BYTE   PATT
  POIN2 Label_0160DA83
//  #10 //013   ----------------------------------------
 BYTE   PATT
  POIN2 Label_0160DA52
//  #10 //014   ----------------------------------------
 BYTE   PATT
  POIN2 Label_0160DA5F
//  #10 //015   ----------------------------------------
 BYTE   PATT
  POIN2 Label_0160DA9E
//  #10 //016   ----------------------------------------
 BYTE   PATT
  POIN2 Label_0160DA83
//  #10 //017   ----------------------------------------
 BYTE   PATT
  POIN2 Label_0160DA52
//  #10 //018   ----------------------------------------
 BYTE   PATT
  POIN2 Label_0160DA5F
//  #10 //019   ----------------------------------------
 BYTE   PATT
  POIN2 Label_0160DA9E
//  #10 //020   ----------------------------------------
 BYTE   PATT
  POIN2 Label_0160DA83
//  #10 //021   ----------------------------------------
 BYTE   PATT
  POIN2 Label_0160DA52
//  #10 //022   ----------------------------------------
 BYTE   PATT
  POIN2 Label_0160DA5F
//  #10 //023   ----------------------------------------
 BYTE   PATT
  POIN2 Label_0160DA9E
//  #10 //024   ----------------------------------------
 BYTE   PATT
  POIN2 Label_0160DA83
//  #10 //025   ----------------------------------------
 BYTE   PATT
  POIN2 Label_0160DA52
//  #10 //026   ----------------------------------------
 BYTE   PATT
  POIN2 Label_0160DA5F
//  #10 //027   ----------------------------------------
 BYTE   PATT
  POIN2 Label_0160DA9E
//  #10 //028   ----------------------------------------
Label_0160DB17:
 BYTE   W06
 BYTE   N06  Ds0  v100
 BYTE   W12
 BYTE   N06
 BYTE   W06
 BYTE   En0
 BYTE   W12
 BYTE   Dn0
 BYTE   W12
 BYTE   N06
 BYTE   W12
 BYTE   Fn0
 BYTE   W12
 BYTE   N06
 BYTE   W12
 BYTE   Dn0
 BYTE   W06
 BYTE   En0
 BYTE   W06
 BYTE   PEND 
//  #10 //029   ----------------------------------------
Label_0160DB2D:
 BYTE   W06
 BYTE   N06  Ds0  v100
 BYTE   W12
 BYTE   N06
 BYTE   W06
 BYTE   En0
 BYTE   W12
 BYTE   Dn0
 BYTE   W12
 BYTE   N06
 BYTE   W12
 BYTE   Fs0
 BYTE   W12
 BYTE   N06
 BYTE   W12
 BYTE   Ds0
 BYTE   W06
 BYTE   En0
 BYTE   W06
 BYTE   PEND 
//  #10 //030   ----------------------------------------
 BYTE   PATT
  POIN2 Label_0160DB17
//  #10 //031   ----------------------------------------
 BYTE   PATT
  POIN2 Label_0160DB2D
//  #10 //032   ----------------------------------------
 BYTE   PATT
  POIN2 Label_0160DB17
//  #10 //033   ----------------------------------------
 BYTE   PATT
  POIN2 Label_0160DB2D
//  #10 //034   ----------------------------------------
 BYTE   PATT
  POIN2 Label_0160DB17
//  #10 //035   ----------------------------------------
 BYTE   W06
 BYTE   N06  Ds0  v100
 BYTE   W12
 BYTE   N06
 BYTE   W06
 BYTE   En0
 BYTE   W12
 BYTE   Dn0
 BYTE   W60
//  #10 //036   ----------------------------------------
 BYTE   PATT
  POIN2 Label_0160DA83
//  #10 //037   ----------------------------------------
 BYTE   PATT
  POIN2 Label_0160DA52
//  #10 //038   ----------------------------------------
 BYTE   PATT
  POIN2 Label_0160DA5F
//  #10 //039   ----------------------------------------
 BYTE   PATT
  POIN2 Label_0160DA9E
//  #10 //040   ----------------------------------------
 BYTE   PATT
  POIN2 Label_0160DA83
//  #10 //041   ----------------------------------------
 BYTE   PATT
  POIN2 Label_0160DA52
//  #10 //042   ----------------------------------------
 BYTE   PATT
  POIN2 Label_0160DA5F
//  #10 //043   ----------------------------------------
 BYTE   PATT
  POIN2 Label_0160DA9E
//  #10 //044   ----------------------------------------
 BYTE   PATT
  POIN2 Label_0160DA83
//  #10 //045   ----------------------------------------
 BYTE   PATT
  POIN2 Label_0160DA52
//  #10 //046   ----------------------------------------
 BYTE   PATT
  POIN2 Label_0160DA5F
//  #10 //047   ----------------------------------------
 BYTE   PATT
  POIN2 Label_0160DA9E
//  #10 //048   ----------------------------------------
 BYTE   N12  Bn0  v100
 BYTE   W12
 BYTE   N12
 BYTE   W18
 BYTE   N12
 BYTE   W18
 BYTE   N12
 BYTE   W18
 BYTE   N12
 BYTE   W18
 BYTE   N06
 BYTE   W06
 BYTE   N06
 BYTE   W06
//  #10 //049   ----------------------------------------
 BYTE   N12
 BYTE   W12
 BYTE   Gs0
 BYTE   W18
 BYTE   N12
 BYTE   W18
 BYTE   Gn0
 BYTE   W18
 BYTE   N30  En1
 BYTE   W30
//  #10 //050   ----------------------------------------
 BYTE   PATT
  POIN2 Label_0160DA5F
//  #10 //051   ----------------------------------------
 BYTE   PATT
  POIN2 Label_0160DA9E
//  #10 //052   ----------------------------------------
Label_0160DBC8:
 BYTE   N12  Fs0  v100
 BYTE   W12
 BYTE   N18  Fn0
 BYTE   W18
 BYTE   N12
 BYTE   W12
 BYTE   N06
 BYTE   W06
 BYTE   N12
 BYTE   W12
 BYTE   En0
 BYTE   W12
 BYTE   Ds1
 BYTE   W12
 BYTE   Ds0
 BYTE   W12
 BYTE   PEND 
//  #10 //053   ----------------------------------------
Label_0160DBDC:
 BYTE   W06
 BYTE   N18  Fs0  v100
 BYTE   W18
 BYTE   Fn0
 BYTE   W18
 BYTE   N06
 BYTE   W06
 BYTE   N12
 BYTE   W12
 BYTE   En0
 BYTE   W12
 BYTE   Ds1
 BYTE   W12
 BYTE   Ds0
 BYTE   W12
 BYTE   PEND 
//  #10 //054   ----------------------------------------
 BYTE   PATT
  POIN2 Label_0160DBC8
//  #10 //055   ----------------------------------------
 BYTE   PATT
  POIN2 Label_0160DBDC
//  #10 //056   ----------------------------------------
 BYTE   PATT
  POIN2 Label_0160DBC8
//  #10 //057   ----------------------------------------
 BYTE   PATT
  POIN2 Label_0160DBDC
//  #10 //058   ----------------------------------------
 BYTE   PATT
  POIN2 Label_0160DBC8
//  #10 //059   ----------------------------------------
 BYTE   PATT
  POIN2 Label_0160DBDC
//  #10 //060   ----------------------------------------
Label_0160DC0C:
 BYTE   N24  Ds0  v100
 BYTE   W24
 BYTE   N24
 BYTE   W24
 BYTE   N06  Ds1
 BYTE   W06
 BYTE   N18  Ds0
 BYTE   W18
 BYTE   N06  Ds1
 BYTE   W06
 BYTE   N18  Ds0
 BYTE   W18
 BYTE   PEND 
//  #10 //061   ----------------------------------------
Label_0160DC1F:
 BYTE   N24  Dn0  v100
 BYTE   W24
 BYTE   N24
 BYTE   W24
 BYTE   N06  Dn1
 BYTE   W06
 BYTE   N18  Dn0
 BYTE   W18
 BYTE   N24  En0
 BYTE   W24
 BYTE   PEND 
//  #10 //062   ----------------------------------------
 BYTE   PATT
  POIN2 Label_0160DC0C
//  #10 //063   ----------------------------------------
Label_0160DC34:
 BYTE   N24  En0  v100
 BYTE   W24
 BYTE   N24
 BYTE   W24
 BYTE   N06  En1
 BYTE   W06
 BYTE   N18  En0
 BYTE   W18
 BYTE   N06  Gn1
 BYTE   W06
 BYTE   N18  En0
 BYTE   W18
 BYTE   PEND 
//  #10 //064   ----------------------------------------
 BYTE   PATT
  POIN2 Label_0160DC0C
//  #10 //065   ----------------------------------------
 BYTE   PATT
  POIN2 Label_0160DC1F
//  #10 //066   ----------------------------------------
 BYTE   PATT
  POIN2 Label_0160DC0C
//  #10 //067   ----------------------------------------
 BYTE   PATT
  POIN2 Label_0160DC34
//  #10 //068   ----------------------------------------
 BYTE   PATT
  POIN2 Label_0160DC0C
//  #10 //069   ----------------------------------------
 BYTE   PATT
  POIN2 Label_0160DC1F
//  #10 //070   ----------------------------------------
 BYTE   PATT
  POIN2 Label_0160DC0C
//  #10 //071   ----------------------------------------
 BYTE   PATT
  POIN2 Label_0160DC34
//  #10 //072   ----------------------------------------
 BYTE   PATT
  POIN2 Label_0160DC0C
//  #10 //073   ----------------------------------------
 BYTE   PATT
  POIN2 Label_0160DC1F
//  #10 //074   ----------------------------------------
 BYTE   PATT
  POIN2 Label_0160DC0C
//  #10 //075   ----------------------------------------
 BYTE   PATT
  POIN2 Label_0160DC34
//  #10 //076   ----------------------------------------
 BYTE   PATT
  POIN2 Label_0160DC0C
//  #10 //077   ----------------------------------------
 BYTE   PATT
  POIN2 Label_0160DC1F
//  #10 //078   ----------------------------------------
 BYTE   PATT
  POIN2 Label_0160DC0C
//  #10 //079   ----------------------------------------
 BYTE   PATT
  POIN2 Label_0160DC34
//  #10 //080   ----------------------------------------
 BYTE   PATT
  POIN2 Label_0160DC0C
//  #10 //081   ----------------------------------------
 BYTE   PATT
  POIN2 Label_0160DC1F
//  #10 //082   ----------------------------------------
 BYTE   PATT
  POIN2 Label_0160DC0C
//  #10 //083   ----------------------------------------
 BYTE   PATT
  POIN2 Label_0160DC34
//  #10 //084   ----------------------------------------
 BYTE   PATT
  POIN2 Label_0160DC0C
//  #10 //085   ----------------------------------------
 BYTE   PATT
  POIN2 Label_0160DC1F
//  #10 //086   ----------------------------------------
 BYTE   PATT
  POIN2 Label_0160DC0C
//  #10 //087   ----------------------------------------
 BYTE   PATT
  POIN2 Label_0160DC34
//  #10 //088   ----------------------------------------
 BYTE   PATT
  POIN2 Label_0160DC0C
//  #10 //089   ----------------------------------------
 BYTE   PATT
  POIN2 Label_0160DC1F
//  #10 //090   ----------------------------------------
 BYTE   PATT
  POIN2 Label_0160DC0C
//  #10 //091   ----------------------------------------
 BYTE   PATT
  POIN2 Label_0160DC34
//  #10 //092   ----------------------------------------
 BYTE   PATT
  POIN2 Label_0160DC0C
//  #10 //093   ----------------------------------------
 BYTE   PATT
  POIN2 Label_0160DC1F
//  #10 //094   ----------------------------------------
 BYTE   PATT
  POIN2 Label_0160DC0C
//  #10 //095   ----------------------------------------
 BYTE   PATT
  POIN2 Label_0160DC34
//  #10 //096   ----------------------------------------
 BYTE   PATT
  POIN2 Label_0160DC0C
//  #10 //097   ----------------------------------------
 BYTE   PATT
  POIN2 Label_0160DC1F
//  #10 //098   ----------------------------------------
 BYTE   PATT
  POIN2 Label_0160DC0C
//  #10 //099   ----------------------------------------
 BYTE   N24  En0  v100
 BYTE   W24
 BYTE   N24
 BYTE   W24
 BYTE   N06  En1
 BYTE   W06
 BYTE   N18  En0
 BYTE   W18
 BYTE   N06  Gn1
 BYTE   W06
 BYTE   N17  En0
 BYTE   W18
//  #10 //100   ----------------------------------------
 BYTE   GoTo
  POIN2 Label_0160DA2E
//  #10 //101   ----------------------------------------
 BYTE   VOICE   33
 BYTE   PAN   c_v+0
 BYTE   VOL   62*TheOnlyThingTheyFearIsYou_mvl/mxv
 BYTE   BEND   c_v+0
 BYTE   W90
 BYTE   VOICE   33
 BYTE   PAN   c_v+0
 BYTE   VOL   62*TheOnlyThingTheyFearIsYou_mvl/mxv
 BYTE   BEND   c_v+0
 BYTE   FINE

//**************** Track 11 (Midi-Chn.10) ****************//

TheOnlyThingTheyFearIsYou_011:
//  #11 //000   ----------------------------------------
 BYTE   KEYSH   TheOnlyThingTheyFearIsYou_key+0
Label_0160DD32:
 BYTE   VOICE   49
 BYTE   PAN   c_v+0
 BYTE   VOL   29*TheOnlyThingTheyFearIsYou_mvl/mxv
 BYTE   PAN   c_v+0
 BYTE   VOL   29*TheOnlyThingTheyFearIsYou_mvl/mxv
 BYTE   PAN   c_v+0
 BYTE   VOL   29*TheOnlyThingTheyFearIsYou_mvl/mxv
 BYTE   PAN   c_v+0
 BYTE   VOL   29*TheOnlyThingTheyFearIsYou_mvl/mxv
 BYTE   BEND   c_v+0
 BYTE   TIE  Ds5  v100
 BYTE   W96
//  #11 //001   ----------------------------------------
 BYTE   W96
//  #11 //002   ----------------------------------------
 BYTE   EOT
 BYTE   TIE
 BYTE   W96
//  #11 //003   ----------------------------------------
 BYTE   W96
//  #11 //004   ----------------------------------------
 BYTE   EOT
 BYTE   TIE
 BYTE   W96
//  #11 //005   ----------------------------------------
 BYTE   W96
//  #11 //006   ----------------------------------------
 BYTE   EOT
 BYTE   TIE
 BYTE   W96
//  #11 //007   ----------------------------------------
 BYTE   W48
 BYTE   EOT
 BYTE   N48  Dn5
 BYTE   W48
//  #11 //008   ----------------------------------------
 BYTE   TIE  Ds5
 BYTE   W96
//  #11 //009   ----------------------------------------
 BYTE   W96
//  #11 //010   ----------------------------------------
 BYTE   EOT
 BYTE   TIE
 BYTE   W96
//  #11 //011   ----------------------------------------
 BYTE   W48
 BYTE   EOT
 BYTE   N48  Dn5
 BYTE   W48
//  #11 //012   ----------------------------------------
 BYTE   TIE  Ds5
 BYTE   W96
//  #11 //013   ----------------------------------------
 BYTE   W96
//  #11 //014   ----------------------------------------
 BYTE   EOT
 BYTE   TIE
 BYTE   W96
//  #11 //015   ----------------------------------------
 BYTE   W48
 BYTE   EOT
 BYTE   N48  Dn5
 BYTE   W48
//  #11 //016   ----------------------------------------
 BYTE   TIE  Ds5
 BYTE   W96
//  #11 //017   ----------------------------------------
 BYTE   W96
//  #11 //018   ----------------------------------------
 BYTE   EOT
 BYTE   TIE
 BYTE   W96
//  #11 //019   ----------------------------------------
 BYTE   W48
 BYTE   EOT
 BYTE   N48  Dn5
 BYTE   W48
//  #11 //020   ----------------------------------------
 BYTE   TIE  Ds5
 BYTE   W96
//  #11 //021   ----------------------------------------
 BYTE   W96
//  #11 //022   ----------------------------------------
 BYTE   EOT
 BYTE   TIE
 BYTE   W96
//  #11 //023   ----------------------------------------
 BYTE   W48
 BYTE   EOT
 BYTE   N48  Dn5
 BYTE   W48
//  #11 //024   ----------------------------------------
 BYTE   TIE  Ds5
 BYTE   W96
//  #11 //025   ----------------------------------------
 BYTE   W96
//  #11 //026   ----------------------------------------
 BYTE   EOT
 BYTE   TIE
 BYTE   W96
//  #11 //027   ----------------------------------------
 BYTE   W48
 BYTE   EOT
 BYTE   N48  Dn5
 BYTE   W48
//  #11 //028   ----------------------------------------
 BYTE   TIE  Ds5
 BYTE   W96
//  #11 //029   ----------------------------------------
 BYTE   W96
//  #11 //030   ----------------------------------------
 BYTE   EOT
 BYTE   TIE
 BYTE   W96
//  #11 //031   ----------------------------------------
 BYTE   W48
 BYTE   EOT
 BYTE   N48  Dn5
 BYTE   W48
//  #11 //032   ----------------------------------------
 BYTE   TIE  Ds5
 BYTE   W96
//  #11 //033   ----------------------------------------
 BYTE   W96
//  #11 //034   ----------------------------------------
 BYTE   EOT
 BYTE   TIE
 BYTE   W96
//  #11 //035   ----------------------------------------
 BYTE   W48
 BYTE   EOT
 BYTE   W48
//  #11 //036   ----------------------------------------
 BYTE   TIE
 BYTE   W96
//  #11 //037   ----------------------------------------
 BYTE   W96
//  #11 //038   ----------------------------------------
 BYTE   EOT
 BYTE   TIE
 BYTE   W96
//  #11 //039   ----------------------------------------
 BYTE   W48
 BYTE   EOT
 BYTE   N48  Dn5
 BYTE   W48
//  #11 //040   ----------------------------------------
 BYTE   TIE  Ds5
 BYTE   W96
//  #11 //041   ----------------------------------------
 BYTE   W96
//  #11 //042   ----------------------------------------
 BYTE   EOT
 BYTE   TIE
 BYTE   W96
//  #11 //043   ----------------------------------------
 BYTE   W48
 BYTE   EOT
 BYTE   N48  Dn5
 BYTE   W48
//  #11 //044   ----------------------------------------
 BYTE   TIE  Ds5
 BYTE   W96
//  #11 //045   ----------------------------------------
 BYTE   W96
//  #11 //046   ----------------------------------------
 BYTE   EOT
 BYTE   TIE
 BYTE   W96
//  #11 //047   ----------------------------------------
 BYTE   W48
 BYTE   EOT
 BYTE   N48  Dn5
 BYTE   W48
//  #11 //048   ----------------------------------------
 BYTE   TIE  Ds5
 BYTE   W96
//  #11 //049   ----------------------------------------
 BYTE   W96
//  #11 //050   ----------------------------------------
 BYTE   EOT
 BYTE   TIE
 BYTE   W96
//  #11 //051   ----------------------------------------
 BYTE   W48
 BYTE   EOT
 BYTE   N48  Dn5
 BYTE   W48
//  #11 //052   ----------------------------------------
 BYTE   W96
//  #11 //053   ----------------------------------------
 BYTE   W96
//  #11 //054   ----------------------------------------
 BYTE   W96
//  #11 //055   ----------------------------------------
 BYTE   W96
//  #11 //056   ----------------------------------------
 BYTE   W96
//  #11 //057   ----------------------------------------
 BYTE   W96
//  #11 //058   ----------------------------------------
 BYTE   W96
//  #11 //059   ----------------------------------------
 BYTE   W96
//  #11 //060   ----------------------------------------
 BYTE   N96  Ds5
 BYTE   W96
//  #11 //061   ----------------------------------------
 BYTE   Dn5
 BYTE   W96
//  #11 //062   ----------------------------------------
 BYTE   Ds5
 BYTE   W96
//  #11 //063   ----------------------------------------
 BYTE   En5
 BYTE   W96
//  #11 //064   ----------------------------------------
 BYTE   Ds5
 BYTE   W96
//  #11 //065   ----------------------------------------
 BYTE   Dn5
 BYTE   W96
//  #11 //066   ----------------------------------------
 BYTE   Ds5
 BYTE   W96
//  #11 //067   ----------------------------------------
 BYTE   En5
 BYTE   W96
//  #11 //068   ----------------------------------------
 BYTE   Ds5
 BYTE   W96
//  #11 //069   ----------------------------------------
 BYTE   Dn5
 BYTE   W96
//  #11 //070   ----------------------------------------
 BYTE   Ds5
 BYTE   W96
//  #11 //071   ----------------------------------------
 BYTE   En5
 BYTE   W96
//  #11 //072   ----------------------------------------
 BYTE   Ds5
 BYTE   W96
//  #11 //073   ----------------------------------------
 BYTE   Dn5
 BYTE   W96
//  #11 //074   ----------------------------------------
 BYTE   Ds5
 BYTE   W96
//  #11 //075   ----------------------------------------
 BYTE   En5
 BYTE   W96
//  #11 //076   ----------------------------------------
 BYTE   Ds5
 BYTE   W96
//  #11 //077   ----------------------------------------
 BYTE   Dn5
 BYTE   W96
//  #11 //078   ----------------------------------------
 BYTE   Ds5
 BYTE   W96
//  #11 //079   ----------------------------------------
 BYTE   En5
 BYTE   W96
//  #11 //080   ----------------------------------------
 BYTE   Ds5
 BYTE   W96
//  #11 //081   ----------------------------------------
 BYTE   Dn5
 BYTE   W96
//  #11 //082   ----------------------------------------
 BYTE   Ds5
 BYTE   W96
//  #11 //083   ----------------------------------------
 BYTE   En5
 BYTE   W96
//  #11 //084   ----------------------------------------
 BYTE   Ds5
 BYTE   W96
//  #11 //085   ----------------------------------------
 BYTE   Dn5
 BYTE   W96
//  #11 //086   ----------------------------------------
 BYTE   Ds5
 BYTE   W96
//  #11 //087   ----------------------------------------
 BYTE   En5
 BYTE   W96
//  #11 //088   ----------------------------------------
 BYTE   Ds5
 BYTE   W96
//  #11 //089   ----------------------------------------
 BYTE   Dn5
 BYTE   W96
//  #11 //090   ----------------------------------------
 BYTE   Ds5
 BYTE   W96
//  #11 //091   ----------------------------------------
 BYTE   En5
 BYTE   W96
//  #11 //092   ----------------------------------------
 BYTE   Ds5
 BYTE   W96
//  #11 //093   ----------------------------------------
 BYTE   Dn5
 BYTE   W96
//  #11 //094   ----------------------------------------
 BYTE   Ds5
 BYTE   W96
//  #11 //095   ----------------------------------------
 BYTE   En5
 BYTE   W96
//  #11 //096   ----------------------------------------
 BYTE   Ds5
 BYTE   W96
//  #11 //097   ----------------------------------------
 BYTE   Dn5
 BYTE   W96
//  #11 //098   ----------------------------------------
 BYTE   Ds5
 BYTE   W96
//  #11 //099   ----------------------------------------
 BYTE   N92  En5
 BYTE   W96
//  #11 //100   ----------------------------------------
 BYTE   GoTo
  POIN2 Label_0160DD32
//  #11 //101   ----------------------------------------
 BYTE   VOICE   49
 BYTE   PAN   c_v+0
 BYTE   VOL   29*TheOnlyThingTheyFearIsYou_mvl/mxv
 BYTE   BEND   c_v+0
 BYTE   W90
 BYTE   VOICE   49
 BYTE   PAN   c_v+0
 BYTE   VOL   29*TheOnlyThingTheyFearIsYou_mvl/mxv
 BYTE   BEND   c_v+0
 BYTE   FINE

//**************** Track 12 (Midi-Chn.11) ****************//

TheOnlyThingTheyFearIsYou_012:
//  #12 //000   ----------------------------------------
 BYTE   KEYSH   TheOnlyThingTheyFearIsYou_key+0
Label_0160DE62:
 BYTE   VOICE   49
 BYTE   PAN   c_v+0
 BYTE   VOL   30*TheOnlyThingTheyFearIsYou_mvl/mxv
 BYTE   PAN   c_v+0
 BYTE   VOL   30*TheOnlyThingTheyFearIsYou_mvl/mxv
 BYTE   PAN   c_v+0
 BYTE   VOL   30*TheOnlyThingTheyFearIsYou_mvl/mxv
 BYTE   PAN   c_v+0
 BYTE   VOL   30*TheOnlyThingTheyFearIsYou_mvl/mxv
 BYTE   BEND   c_v+0
 BYTE   W96
//  #12 //001   ----------------------------------------
 BYTE   W96
//  #12 //002   ----------------------------------------
 BYTE   W96
//  #12 //003   ----------------------------------------
 BYTE   W96
//  #12 //004   ----------------------------------------
 BYTE   TIE  As4  v100
 BYTE   W96
//  #12 //005   ----------------------------------------
 BYTE   W48
 BYTE   EOT
 BYTE   N48  Bn4
 BYTE   W48
//  #12 //006   ----------------------------------------
 BYTE   TIE  As4
 BYTE   W96
//  #12 //007   ----------------------------------------
 BYTE   W48
 BYTE   EOT
 BYTE   N48  An4
 BYTE   W48
//  #12 //008   ----------------------------------------
 BYTE   TIE  As4
 BYTE   W96
//  #12 //009   ----------------------------------------
 BYTE   W48
 BYTE   EOT
 BYTE   N48  Bn4
 BYTE   W48
//  #12 //010   ----------------------------------------
 BYTE   TIE  As4
 BYTE   W96
//  #12 //011   ----------------------------------------
 BYTE   W48
 BYTE   EOT
 BYTE   N48  An4
 BYTE   W48
//  #12 //012   ----------------------------------------
 BYTE   TIE  As4
 BYTE   W96
//  #12 //013   ----------------------------------------
 BYTE   W48
 BYTE   EOT
 BYTE   N48  Bn4
 BYTE   W48
//  #12 //014   ----------------------------------------
 BYTE   TIE  As4
 BYTE   W96
//  #12 //015   ----------------------------------------
 BYTE   W48
 BYTE   EOT
 BYTE   N48  An4
 BYTE   W48
//  #12 //016   ----------------------------------------
 BYTE   TIE  As4
 BYTE   W96
//  #12 //017   ----------------------------------------
 BYTE   W48
 BYTE   EOT
 BYTE   N48  Bn4
 BYTE   W48
//  #12 //018   ----------------------------------------
 BYTE   TIE  As4
 BYTE   W96
//  #12 //019   ----------------------------------------
 BYTE   W48
 BYTE   EOT
 BYTE   N48  An4
 BYTE   W48
//  #12 //020   ----------------------------------------
 BYTE   TIE  As4
 BYTE   W96
//  #12 //021   ----------------------------------------
 BYTE   W48
 BYTE   EOT
 BYTE   N48  Bn4
 BYTE   W48
//  #12 //022   ----------------------------------------
 BYTE   TIE  As4
 BYTE   W96
//  #12 //023   ----------------------------------------
 BYTE   W48
 BYTE   EOT
 BYTE   N48  An4
 BYTE   W48
//  #12 //024   ----------------------------------------
 BYTE   TIE  As4
 BYTE   W96
//  #12 //025   ----------------------------------------
 BYTE   W48
 BYTE   EOT
 BYTE   N48  Bn4
 BYTE   W48
//  #12 //026   ----------------------------------------
 BYTE   TIE  As4
 BYTE   W96
//  #12 //027   ----------------------------------------
 BYTE   W48
 BYTE   EOT
 BYTE   N48  An4
 BYTE   W48
//  #12 //028   ----------------------------------------
 BYTE   TIE  As4
 BYTE   W96
//  #12 //029   ----------------------------------------
 BYTE   W48
 BYTE   EOT
 BYTE   N48  Bn4
 BYTE   W48
//  #12 //030   ----------------------------------------
 BYTE   TIE  As4
 BYTE   W96
//  #12 //031   ----------------------------------------
 BYTE   W48
 BYTE   EOT
 BYTE   N48  An4
 BYTE   W48
//  #12 //032   ----------------------------------------
 BYTE   TIE  As4
 BYTE   W96
//  #12 //033   ----------------------------------------
 BYTE   W48
 BYTE   EOT
 BYTE   N48  Bn4
 BYTE   W48
//  #12 //034   ----------------------------------------
 BYTE   TIE  As4
 BYTE   W96
//  #12 //035   ----------------------------------------
 BYTE   W48
 BYTE   EOT
 BYTE   W48
//  #12 //036   ----------------------------------------
 BYTE   TIE
 BYTE   W96
//  #12 //037   ----------------------------------------
 BYTE   W48
 BYTE   EOT
 BYTE   N48  Bn4
 BYTE   W48
//  #12 //038   ----------------------------------------
 BYTE   TIE  As4
 BYTE   W96
//  #12 //039   ----------------------------------------
 BYTE   W48
 BYTE   EOT
 BYTE   N48  An4
 BYTE   W48
//  #12 //040   ----------------------------------------
 BYTE   TIE  As4
 BYTE   W96
//  #12 //041   ----------------------------------------
 BYTE   W48
 BYTE   EOT
 BYTE   N48  Bn4
 BYTE   W48
//  #12 //042   ----------------------------------------
 BYTE   TIE  As4
 BYTE   W96
//  #12 //043   ----------------------------------------
 BYTE   W48
 BYTE   EOT
 BYTE   N48  An4
 BYTE   W48
//  #12 //044   ----------------------------------------
 BYTE   TIE  As4
 BYTE   W96
//  #12 //045   ----------------------------------------
 BYTE   W48
 BYTE   EOT
 BYTE   N48  Bn4
 BYTE   W48
//  #12 //046   ----------------------------------------
 BYTE   TIE  As4
 BYTE   W96
//  #12 //047   ----------------------------------------
 BYTE   W48
 BYTE   EOT
 BYTE   N48  An4
 BYTE   W48
//  #12 //048   ----------------------------------------
 BYTE   TIE  As4
 BYTE   W96
//  #12 //049   ----------------------------------------
 BYTE   W48
 BYTE   EOT
 BYTE   N48  Bn4
 BYTE   W48
//  #12 //050   ----------------------------------------
 BYTE   TIE  As4
 BYTE   W96
//  #12 //051   ----------------------------------------
 BYTE   W48
 BYTE   EOT
 BYTE   N48  An4
 BYTE   W48
//  #12 //052   ----------------------------------------
 BYTE   W96
//  #12 //053   ----------------------------------------
 BYTE   W96
//  #12 //054   ----------------------------------------
 BYTE   W96
//  #12 //055   ----------------------------------------
 BYTE   W96
//  #12 //056   ----------------------------------------
 BYTE   W96
//  #12 //057   ----------------------------------------
 BYTE   W96
//  #12 //058   ----------------------------------------
 BYTE   W96
//  #12 //059   ----------------------------------------
 BYTE   W96
//  #12 //060   ----------------------------------------
 BYTE   N96  As4
 BYTE   W96
//  #12 //061   ----------------------------------------
 BYTE   An4
 BYTE   W96
//  #12 //062   ----------------------------------------
 BYTE   As4
 BYTE   W96
//  #12 //063   ----------------------------------------
 BYTE   Bn4
 BYTE   W96
//  #12 //064   ----------------------------------------
 BYTE   As4
 BYTE   W96
//  #12 //065   ----------------------------------------
 BYTE   An4
 BYTE   W96
//  #12 //066   ----------------------------------------
 BYTE   As4
 BYTE   W96
//  #12 //067   ----------------------------------------
 BYTE   Bn4
 BYTE   W96
//  #12 //068   ----------------------------------------
 BYTE   As4
 BYTE   W96
//  #12 //069   ----------------------------------------
 BYTE   An4
 BYTE   W96
//  #12 //070   ----------------------------------------
 BYTE   As4
 BYTE   W96
//  #12 //071   ----------------------------------------
 BYTE   Bn4
 BYTE   W96
//  #12 //072   ----------------------------------------
 BYTE   As4
 BYTE   W96
//  #12 //073   ----------------------------------------
 BYTE   An4
 BYTE   W96
//  #12 //074   ----------------------------------------
 BYTE   As4
 BYTE   W96
//  #12 //075   ----------------------------------------
 BYTE   Bn4
 BYTE   W96
//  #12 //076   ----------------------------------------
 BYTE   As4
 BYTE   W96
//  #12 //077   ----------------------------------------
 BYTE   An4
 BYTE   W96
//  #12 //078   ----------------------------------------
 BYTE   As4
 BYTE   W96
//  #12 //079   ----------------------------------------
 BYTE   Bn4
 BYTE   W96
//  #12 //080   ----------------------------------------
 BYTE   As4
 BYTE   W96
//  #12 //081   ----------------------------------------
 BYTE   An4
 BYTE   W96
//  #12 //082   ----------------------------------------
 BYTE   As4
 BYTE   W96
//  #12 //083   ----------------------------------------
 BYTE   Bn4
 BYTE   W96
//  #12 //084   ----------------------------------------
 BYTE   As4
 BYTE   W96
//  #12 //085   ----------------------------------------
 BYTE   An4
 BYTE   W96
//  #12 //086   ----------------------------------------
 BYTE   As4
 BYTE   W96
//  #12 //087   ----------------------------------------
 BYTE   Bn4
 BYTE   W96
//  #12 //088   ----------------------------------------
 BYTE   As4
 BYTE   W96
//  #12 //089   ----------------------------------------
 BYTE   An4
 BYTE   W96
//  #12 //090   ----------------------------------------
 BYTE   As4
 BYTE   W96
//  #12 //091   ----------------------------------------
 BYTE   Bn4
 BYTE   W96
//  #12 //092   ----------------------------------------
 BYTE   As4
 BYTE   W96
//  #12 //093   ----------------------------------------
 BYTE   An4
 BYTE   W96
//  #12 //094   ----------------------------------------
 BYTE   As4
 BYTE   W96
//  #12 //095   ----------------------------------------
 BYTE   Bn4
 BYTE   W96
//  #12 //096   ----------------------------------------
 BYTE   As4
 BYTE   W96
//  #12 //097   ----------------------------------------
 BYTE   An4
 BYTE   W96
//  #12 //098   ----------------------------------------
 BYTE   As4
 BYTE   W96
//  #12 //099   ----------------------------------------
 BYTE   N92  Bn4
 BYTE   W96
//  #12 //100   ----------------------------------------
 BYTE   GoTo
  POIN2 Label_0160DE62
//  #12 //101   ----------------------------------------
 BYTE   VOICE   49
 BYTE   PAN   c_v+0
 BYTE   VOL   30*TheOnlyThingTheyFearIsYou_mvl/mxv
 BYTE   BEND   c_v+0
 BYTE   W90
 BYTE   VOICE   49
 BYTE   PAN   c_v+0
 BYTE   VOL   30*TheOnlyThingTheyFearIsYou_mvl/mxv
 BYTE   BEND   c_v+0
 BYTE   FINE

//******************************************************//
	ALIGN 4

TheOnlyThingTheyFearIsYou:
	BYTE	12	// NumTrks
	BYTE	0	// NumBlks
	BYTE	TheOnlyThingTheyFearIsYou_pri	// Priority
	BYTE	TheOnlyThingTheyFearIsYou_rev	// Reverb.
    
	POIN2	TheOnlyThingTheyFearIsYou_grp
    
	POIN2	TheOnlyThingTheyFearIsYou_001
	POIN2	TheOnlyThingTheyFearIsYou_002
	POIN2	TheOnlyThingTheyFearIsYou_003
	POIN2	TheOnlyThingTheyFearIsYou_004
	POIN2	TheOnlyThingTheyFearIsYou_005
	POIN2	TheOnlyThingTheyFearIsYou_006
	POIN2	TheOnlyThingTheyFearIsYou_007
	POIN2	TheOnlyThingTheyFearIsYou_008
	POIN2	TheOnlyThingTheyFearIsYou_009
	POIN2	TheOnlyThingTheyFearIsYou_010
	POIN2	TheOnlyThingTheyFearIsYou_011
	POIN2	TheOnlyThingTheyFearIsYou_012

	
