//Event file generated from Sappy .s format.
	#include "MPlayDef.event"

	#define	TheSwan_grp  voicegroup000
	#define	TheSwan_pri  0
	#define	TheSwan_rev  0
	#define	TheSwan_mvl  127
	#define	TheSwan_key  0
	#define	TheSwan_tbs  1
	#define	TheSwan_exg  0
	#define	TheSwan_cmp  1

	// .rodata
	//	TheSwan
	ALIGN 4


//**************** Track 1 (Midi-Chn.0) ****************//

TheSwan_001:
//  #01 //000   ----------------------------------------
 BYTE   KEYSH   TheSwan_key+0
Label_0161FE7E:
 BYTE   TEMPO   66*TheSwan_tbs/2
 BYTE   VOICE   20
 BYTE   VOL   55*TheSwan_mvl/mxv
 BYTE   PAN   c_v-22
 BYTE   VOL   55*TheSwan_mvl/mxv
 BYTE   BEND   c_v+2
 BYTE   N06  Bn2  v048
 BYTE   W06
 BYTE   Dn3
 BYTE   W06
 BYTE   Bn3
 BYTE   W06
 BYTE   Gn3
 BYTE   W06
 BYTE   Bn2
 BYTE   W06
 BYTE   Dn3
 BYTE   W06
 BYTE   Bn3
 BYTE   W06
 BYTE   Gn3
 BYTE   W06
 BYTE   Bn2
 BYTE   W06
 BYTE   Dn3
 BYTE   W06
 BYTE   Bn3
 BYTE   W06
 BYTE   Gn3
 BYTE   W06
 BYTE   Bn2
 BYTE   W06
 BYTE   Dn3
 BYTE   W06
 BYTE   Bn3
 BYTE   W06
 BYTE   Gn3
 BYTE   W06
//  #01 //001   ----------------------------------------
 BYTE   Bn2
 BYTE   W06
 BYTE   Dn3
 BYTE   W06
 BYTE   Bn3
 BYTE   W06
 BYTE   Gn3
 BYTE   W06
 BYTE   Bn2
 BYTE   W06
 BYTE   Dn3
 BYTE   W06
 BYTE   Bn3
 BYTE   W06
 BYTE   N05  Gn3
 BYTE   W06
 BYTE   TEMPO   66*TheSwan_tbs/2
 BYTE   N06  Bn2
 BYTE   W06
 BYTE   Dn3
 BYTE   W06
 BYTE   Bn3
 BYTE   W06
 BYTE   Gn3
 BYTE   W06
 BYTE   Bn2
 BYTE   W06
 BYTE   Dn3
 BYTE   W06
 BYTE   Bn3
 BYTE   W06
 BYTE   Gn3
 BYTE   W06
//  #01 //002   ----------------------------------------
 BYTE   TEMPO   60*TheSwan_tbs/2
 BYTE   Bn2
 BYTE   W06
 BYTE   Dn3
 BYTE   W06
 BYTE   Bn3
 BYTE   W06
 BYTE   Gn3
 BYTE   W06
 BYTE   TEMPO   66*TheSwan_tbs/2
 BYTE   Bn2
 BYTE   W06
 BYTE   Dn3
 BYTE   W06
 BYTE   Bn3
 BYTE   W06
 BYTE   Gn3
 BYTE   W06
 BYTE   Bn2
 BYTE   W06
 BYTE   Dn3
 BYTE   W06
 BYTE   Bn3
 BYTE   W06
 BYTE   Gn3
 BYTE   W06
 BYTE   TEMPO   60*TheSwan_tbs/2
 BYTE   Bn2  v052
 BYTE   W06
 BYTE   Dn3
 BYTE   W06
 BYTE   Bn3
 BYTE   W06
 BYTE   N05  Gn3
 BYTE   W06
//  #01 //003   ----------------------------------------
 BYTE   Cn3  v056
 BYTE   W06
 BYTE   En3
 BYTE   W06
 BYTE   Cn4
 BYTE   W06
 BYTE   An3
 BYTE   W06
 BYTE   Cn3
 BYTE   W06
 BYTE   En3
 BYTE   W06
 BYTE   Cn4
 BYTE   W06
 BYTE   An3
 BYTE   W06
 BYTE   Cn3
 BYTE   W06
 BYTE   En3
 BYTE   W06
 BYTE   Cn4
 BYTE   W06
 BYTE   An3
 BYTE   W06
 BYTE   Cn3
 BYTE   W06
 BYTE   En3
 BYTE   W06
 BYTE   Cn4
 BYTE   W06
 BYTE   An3
 BYTE   W06
//  #01 //004   ----------------------------------------
 BYTE   Cn3
 BYTE   W06
 BYTE   En3  v052
 BYTE   W06
 BYTE   Cn4
 BYTE   W06
 BYTE   An3
 BYTE   W06
 BYTE   Cn3
 BYTE   W06
 BYTE   En3  v048
 BYTE   W06
 BYTE   Cn4
 BYTE   W06
 BYTE   An3
 BYTE   W06
 BYTE   Cn3
 BYTE   W06
 BYTE   En3
 BYTE   W06
 BYTE   Cn4
 BYTE   W06
 BYTE   An3
 BYTE   W06
 BYTE   Cn3
 BYTE   W06
 BYTE   En3
 BYTE   W06
 BYTE   Cn4
 BYTE   W06
 BYTE   An3
 BYTE   W06
//  #01 //005   ----------------------------------------
 BYTE   TEMPO   64*TheSwan_tbs/2
 BYTE   Cn3
 BYTE   W06
 BYTE   En3
 BYTE   W06
 BYTE   Cn4
 BYTE   W06
 BYTE   An3
 BYTE   W06
 BYTE   TEMPO   64*TheSwan_tbs/2
 BYTE   Cn3
 BYTE   W06
 BYTE   Fs3
 BYTE   W06
 BYTE   Cn4
 BYTE   W06
 BYTE   An3
 BYTE   W06
 BYTE   TEMPO   64*TheSwan_tbs/2
 BYTE   Cn3
 BYTE   W06
 BYTE   Fs3
 BYTE   W06
 BYTE   Cn4
 BYTE   W06
 BYTE   An3
 BYTE   W06
 BYTE   TEMPO   62*TheSwan_tbs/2
 BYTE   Cn3
 BYTE   W06
 BYTE   Fs3
 BYTE   W06
 BYTE   Cn4
 BYTE   W06
 BYTE   An3
 BYTE   W06
//  #01 //006   ----------------------------------------
 BYTE   TEMPO   60*TheSwan_tbs/2
 BYTE   Bn2
 BYTE   W06
 BYTE   Dn3
 BYTE   W06
 BYTE   Bn3
 BYTE   W06
 BYTE   Gn3
 BYTE   W06
 BYTE   Bn2
 BYTE   W06
 BYTE   Dn3
 BYTE   W06
 BYTE   Bn3
 BYTE   W06
 BYTE   Gn3
 BYTE   W06
 BYTE   Bn2
 BYTE   W06
 BYTE   Dn3
 BYTE   W06
 BYTE   Bn3
 BYTE   W06
 BYTE   Gn3
 BYTE   W06
 BYTE   Bn2
 BYTE   W06
 BYTE   Dn3
 BYTE   W06
 BYTE   Bn3
 BYTE   W06
 BYTE   Gn3
 BYTE   W06
//  #01 //007   ----------------------------------------
 BYTE   Bn2
 BYTE   W06
 BYTE   Dn3
 BYTE   W06
 BYTE   Bn3
 BYTE   W06
 BYTE   Gn3
 BYTE   W06
 BYTE   Bn2
 BYTE   W06
 BYTE   Dn3
 BYTE   W06
 BYTE   Bn3
 BYTE   W06
 BYTE   Gn3
 BYTE   W06
 BYTE   TEMPO   66*TheSwan_tbs/2
 BYTE   Bn2
 BYTE   W06
 BYTE   Dn3
 BYTE   W06
 BYTE   Bn3
 BYTE   W06
 BYTE   Gn3
 BYTE   W06
 BYTE   Bn2
 BYTE   W06
 BYTE   Dn3
 BYTE   W06
 BYTE   Bn3
 BYTE   W06
 BYTE   Gn3
 BYTE   W06
//  #01 //008   ----------------------------------------
 BYTE   TEMPO   60*TheSwan_tbs/2
 BYTE   Bn2
 BYTE   W06
 BYTE   Dn3
 BYTE   W06
 BYTE   Bn3
 BYTE   W06
 BYTE   Gn3
 BYTE   W06
 BYTE   TEMPO   66*TheSwan_tbs/2
 BYTE   Bn2
 BYTE   W06
 BYTE   Dn3
 BYTE   W06
 BYTE   Bn3
 BYTE   W06
 BYTE   Gn3
 BYTE   W06
 BYTE   Bn2
 BYTE   W06
 BYTE   Dn3
 BYTE   W06
 BYTE   Bn3
 BYTE   W06
 BYTE   Gn3
 BYTE   W06
 BYTE   TEMPO   60*TheSwan_tbs/2
 BYTE   Bn2
 BYTE   W06
 BYTE   Dn3
 BYTE   W06
 BYTE   Bn3
 BYTE   W06
 BYTE   Gn3
 BYTE   W06
//  #01 //009   ----------------------------------------
 BYTE   Cs3
 BYTE   W06
 BYTE   En3
 BYTE   W06
 BYTE   Cs4
 BYTE   W06
 BYTE   As3
 BYTE   W06
 BYTE   Cs3
 BYTE   W06
 BYTE   En3
 BYTE   W06
 BYTE   Cs4
 BYTE   W06
 BYTE   As3
 BYTE   W06
 BYTE   Cs3
 BYTE   W06
 BYTE   En3
 BYTE   W06
 BYTE   Cs4
 BYTE   W06
 BYTE   As3
 BYTE   W06
 BYTE   Cs3
 BYTE   W06
 BYTE   En3
 BYTE   W06
 BYTE   Cs4
 BYTE   W06
 BYTE   As3
 BYTE   W06
//  #01 //010   ----------------------------------------
 BYTE   Cs3
 BYTE   W06
 BYTE   En3
 BYTE   W06
 BYTE   Cs4
 BYTE   W06
 BYTE   As3
 BYTE   W06
 BYTE   Cs3
 BYTE   W06
 BYTE   En3
 BYTE   W06
 BYTE   Cs4
 BYTE   W06
 BYTE   As3
 BYTE   W06
 BYTE   Bn2
 BYTE   W06
 BYTE   Dn3
 BYTE   W06
 BYTE   Bn3
 BYTE   W06
 BYTE   Fs3
 BYTE   W06
 BYTE   Bn2
 BYTE   W06
 BYTE   Dn3
 BYTE   W06
 BYTE   Bn3
 BYTE   W06
 BYTE   Fs3
 BYTE   W06
//  #01 //011   ----------------------------------------
 BYTE   Bn2
 BYTE   W06
 BYTE   Dn3
 BYTE   W06
 BYTE   TEMPO   62*TheSwan_tbs/2
 BYTE   Bn3
 BYTE   W06
 BYTE   Fs3
 BYTE   W06
 BYTE   TEMPO   64*TheSwan_tbs/2
 BYTE   As2
 BYTE   W06
 BYTE   En3
 BYTE   W06
 BYTE   TEMPO   64*TheSwan_tbs/2
 BYTE   As3
 BYTE   W06
 BYTE   Fs3
 BYTE   W06
 BYTE   TEMPO   64*TheSwan_tbs/2
 BYTE   As2
 BYTE   W06
 BYTE   En3
 BYTE   W06
 BYTE   TEMPO   64*TheSwan_tbs/2
 BYTE   As3
 BYTE   W06
 BYTE   Fs3
 BYTE   W06
 BYTE   TEMPO   64*TheSwan_tbs/2
 BYTE   As2  v052
 BYTE   W06
 BYTE   En3
 BYTE   W06
 BYTE   TEMPO   62*TheSwan_tbs/2
 BYTE   As3
 BYTE   W06
 BYTE   Fs3
 BYTE   W06
//  #01 //012   ----------------------------------------
 BYTE   TEMPO   60*TheSwan_tbs/2
 BYTE   Dn3  v056
 BYTE   W06
 BYTE   Fs3
 BYTE   W06
 BYTE   Bn3
 BYTE   W06
 BYTE   Fs3
 BYTE   W06
 BYTE   Dn3
 BYTE   W06
 BYTE   Fs3  v052
 BYTE   W06
 BYTE   Bn3
 BYTE   W06
 BYTE   Fs3
 BYTE   W06
 BYTE   Dn3
 BYTE   W06
 BYTE   Fs3  v048
 BYTE   W06
 BYTE   Bn3
 BYTE   W06
 BYTE   Fs3
 BYTE   W06
 BYTE   Dn3
 BYTE   W06
 BYTE   Fs3
 BYTE   W06
 BYTE   Bn3
 BYTE   W06
 BYTE   Fs3
 BYTE   W06
//  #01 //013   ----------------------------------------
 BYTE   Dn3
 BYTE   W06
 BYTE   Fs3
 BYTE   W06
 BYTE   Bn3
 BYTE   W06
 BYTE   Fs3
 BYTE   W06
 BYTE   Dn3
 BYTE   W06
 BYTE   Fs3
 BYTE   W06
 BYTE   Bn3
 BYTE   W06
 BYTE   Fs3
 BYTE   W06
 BYTE   TEMPO   64*TheSwan_tbs/2
 BYTE   Dn3
 BYTE   W06
 BYTE   Gn3
 BYTE   W06
 BYTE   Dn4
 BYTE   W06
 BYTE   Bn3
 BYTE   W06
 BYTE   Dn3
 BYTE   W06
 BYTE   Gn3
 BYTE   W06
 BYTE   Dn4
 BYTE   W06
 BYTE   Bn3
 BYTE   W06
//  #01 //014   ----------------------------------------
 BYTE   TEMPO   60*TheSwan_tbs/2
 BYTE   Dn3
 BYTE   W06
 BYTE   Gn3
 BYTE   W06
 BYTE   Dn4
 BYTE   W06
 BYTE   Bn3
 BYTE   W06
 BYTE   TEMPO   64*TheSwan_tbs/2
 BYTE   Cs3
 BYTE   W06
 BYTE   En3
 BYTE   W06
 BYTE   Cs4
 BYTE   W06
 BYTE   Gn3
 BYTE   W06
 BYTE   Cs3
 BYTE   W06
 BYTE   En3
 BYTE   W06
 BYTE   Cs4
 BYTE   W06
 BYTE   Gn3
 BYTE   W06
 BYTE   TEMPO   60*TheSwan_tbs/2
 BYTE   Cs3
 BYTE   W06
 BYTE   En3
 BYTE   W06
 BYTE   Cs4
 BYTE   W06
 BYTE   Gn3
 BYTE   W06
//  #01 //015   ----------------------------------------
 BYTE   Cn3
 BYTE   W06
 BYTE   Dn3
 BYTE   W06
 BYTE   Cn4
 BYTE   W06
 BYTE   Gn3
 BYTE   W06
 BYTE   Cn3
 BYTE   W06
 BYTE   Dn3
 BYTE   W06
 BYTE   Cn4
 BYTE   W06
 BYTE   Gn3
 BYTE   W06
 BYTE   Cn3
 BYTE   W06
 BYTE   Dn3
 BYTE   W06
 BYTE   Cn4
 BYTE   W06
 BYTE   Gn3
 BYTE   W06
 BYTE   Cn3
 BYTE   W06
 BYTE   Dn3
 BYTE   W06
 BYTE   Cn4
 BYTE   W06
 BYTE   Gn3
 BYTE   W06
//  #01 //016   ----------------------------------------
 BYTE   Cn3
 BYTE   W06
 BYTE   Dn3
 BYTE   W06
 BYTE   Cn4
 BYTE   W06
 BYTE   Gn3
 BYTE   W06
 BYTE   Cn3
 BYTE   W06
 BYTE   Dn3
 BYTE   W06
 BYTE   Cn4
 BYTE   W06
 BYTE   Gn3
 BYTE   W06
 BYTE   TEMPO   64*TheSwan_tbs/2
 BYTE   Cn3
 BYTE   W06
 BYTE   Fn3
 BYTE   W06
 BYTE   Cn4
 BYTE   W06
 BYTE   An3
 BYTE   W06
 BYTE   Cn3
 BYTE   W06
 BYTE   Fn3
 BYTE   W06
 BYTE   Cn4
 BYTE   W06
 BYTE   An3
 BYTE   W06
//  #01 //017   ----------------------------------------
 BYTE   TEMPO   60*TheSwan_tbs/2
 BYTE   Cn3
 BYTE   W06
 BYTE   Fn3
 BYTE   W06
 BYTE   Cn4
 BYTE   W06
 BYTE   An3
 BYTE   W06
 BYTE   TEMPO   64*TheSwan_tbs/2
 BYTE   Bn2
 BYTE   W06
 BYTE   Dn3
 BYTE   W06
 BYTE   Bn3
 BYTE   W06
 BYTE   Fn3
 BYTE   W06
 BYTE   Bn2
 BYTE   W06
 BYTE   Dn3
 BYTE   W06
 BYTE   Bn3
 BYTE   W06
 BYTE   Fn3
 BYTE   W06
 BYTE   TEMPO   60*TheSwan_tbs/2
 BYTE   Bn2
 BYTE   W06
 BYTE   Dn3
 BYTE   W06
 BYTE   Bn3
 BYTE   W06
 BYTE   Fn3
 BYTE   W06
//  #01 //018   ----------------------------------------
 BYTE   As2
 BYTE   W06
 BYTE   Cn3
 BYTE   W06
 BYTE   As3
 BYTE   W06
 BYTE   Fn3
 BYTE   W06
 BYTE   As2
 BYTE   W06
 BYTE   Cn3
 BYTE   W06
 BYTE   As3
 BYTE   W06
 BYTE   Fn3
 BYTE   W06
 BYTE   As2
 BYTE   W06
 BYTE   Cn3
 BYTE   W06
 BYTE   As3
 BYTE   W06
 BYTE   Fn3
 BYTE   W06
 BYTE   As2
 BYTE   W06
 BYTE   Cn3
 BYTE   W06
 BYTE   As3
 BYTE   W06
 BYTE   En3
 BYTE   W06
//  #01 //019   ----------------------------------------
 BYTE   As2
 BYTE   W06
 BYTE   Cn3
 BYTE   W06
 BYTE   As3
 BYTE   W06
 BYTE   En3
 BYTE   W06
 BYTE   As2
 BYTE   W06
 BYTE   Cn3
 BYTE   W06
 BYTE   As3
 BYTE   W06
 BYTE   En3
 BYTE   W06
 BYTE   TEMPO   64*TheSwan_tbs/2
 BYTE   An2
 BYTE   W06
 BYTE   En3
 BYTE   W06
 BYTE   An3
 BYTE   W06
 BYTE   En3
 BYTE   W06
 BYTE   An2
 BYTE   W06
 BYTE   En3
 BYTE   W06
 BYTE   An3
 BYTE   W06
 BYTE   En3
 BYTE   W06
//  #01 //020   ----------------------------------------
 BYTE   An2
 BYTE   W06
 BYTE   Bn2
 BYTE   W06
 BYTE   An3
 BYTE   W06
 BYTE   Dn3
 BYTE   W06
 BYTE   An2
 BYTE   W06
 BYTE   Cn3
 BYTE   W06
 BYTE   An3
 BYTE   W06
 BYTE   En3
 BYTE   W06
 BYTE   An2
 BYTE   W06
 BYTE   Cn3
 BYTE   W06
 BYTE   An3
 BYTE   W06
 BYTE   En3
 BYTE   W06
 BYTE   An2
 BYTE   W06
 BYTE   Cn3
 BYTE   W06
 BYTE   An3
 BYTE   W06
 BYTE   En3
 BYTE   W06
//  #01 //021   ----------------------------------------
 BYTE   TEMPO   60*TheSwan_tbs/2
 BYTE   An2
 BYTE   W06
 BYTE   Dn3
 BYTE   W06
 BYTE   An3
 BYTE   W06
 BYTE   Fs3
 BYTE   W06
 BYTE   An2
 BYTE   W06
 BYTE   Dn3
 BYTE   W06
 BYTE   An3
 BYTE   W06
 BYTE   Fs3
 BYTE   W06
 BYTE   An2
 BYTE   W06
 BYTE   Dn3
 BYTE   W06
 BYTE   An3
 BYTE   W06
 BYTE   Fs3
 BYTE   W06
 BYTE   An2
 BYTE   W06
 BYTE   Cn3
 BYTE   W06
 BYTE   An3
 BYTE   W06
 BYTE   En3
 BYTE   W06
//  #01 //022   ----------------------------------------
 BYTE   An2
 BYTE   W06
 BYTE   Cn3
 BYTE   W06
 BYTE   An3
 BYTE   W06
 BYTE   En3
 BYTE   W06
 BYTE   An2
 BYTE   W06
 BYTE   Cn3
 BYTE   W06
 BYTE   An3
 BYTE   W06
 BYTE   En3
 BYTE   W06
 BYTE   TEMPO   64*TheSwan_tbs/2
 BYTE   An2
 BYTE   W06
 BYTE   Bn2
 BYTE   W06
 BYTE   An3
 BYTE   W06
 BYTE   Dn3
 BYTE   W06
 BYTE   An2
 BYTE   W06
 BYTE   Bn2
 BYTE   W06
 BYTE   An3
 BYTE   W06
 BYTE   Dn3
 BYTE   W06
//  #01 //023   ----------------------------------------
 BYTE   An2
 BYTE   W06
 BYTE   Bn2
 BYTE   W06
 BYTE   An3
 BYTE   W06
 BYTE   Dn3
 BYTE   W06
 BYTE   An2
 BYTE   W06
 BYTE   Cs3
 BYTE   W06
 BYTE   An3  v052
 BYTE   W06
 BYTE   En3
 BYTE   W06
 BYTE   An2  v056
 BYTE   W06
 BYTE   Cs3
 BYTE   W06
 BYTE   An3  v060
 BYTE   W06
 BYTE   En3
 BYTE   W06
 BYTE   An2  v064
 BYTE   W06
 BYTE   Cs3  v068
 BYTE   W06
 BYTE   An3  v072
 BYTE   W06
 BYTE   En3
 BYTE   W06
//  #01 //024   ----------------------------------------
 BYTE   An2  v076
 BYTE   W06
 BYTE   Dn3
 BYTE   W06
 BYTE   An3
 BYTE   W01
 BYTE   TEMPO   64*TheSwan_tbs/2
 BYTE   W05
 BYTE   Fn3
 BYTE   W06
 BYTE   Bn2
 BYTE   W02
 BYTE   TEMPO   62*TheSwan_tbs/2
 BYTE   W04
 BYTE   Dn3  v072
 BYTE   W06
 BYTE   An3
 BYTE   W03
 BYTE   TEMPO   60*TheSwan_tbs/2
 BYTE   W03
 BYTE   Fn3
 BYTE   W06
 BYTE   Cn3
 BYTE   W04
 BYTE   TEMPO   60*TheSwan_tbs/2
 BYTE   W02
 BYTE   Dn3  v068
 BYTE   W06
 BYTE   An3
 BYTE   W05
 BYTE   TEMPO   60*TheSwan_tbs/2
 BYTE   W01
 BYTE   Fn3
 BYTE   W06
 BYTE   Cn3
 BYTE   W06
 BYTE   TEMPO   58*TheSwan_tbs/2
 BYTE   Dn3  v064
 BYTE   W06
 BYTE   An3
 BYTE   W06
 BYTE   Fs3
 BYTE   W01
 BYTE   TEMPO   56*TheSwan_tbs/2
 BYTE   W05
//  #01 //025   ----------------------------------------
 BYTE   Cn3
 BYTE   W06
 BYTE   Dn3  v060
 BYTE   W02
 BYTE   TEMPO   56*TheSwan_tbs/2
 BYTE   W04
 BYTE   Bn3
 BYTE   W06
 BYTE   Fs3
 BYTE   W03
 BYTE   TEMPO   54*TheSwan_tbs/2
 BYTE   W03
 BYTE   Cn3
 BYTE   W06
 BYTE   Dn3  v056
 BYTE   W04
 BYTE   TEMPO   54*TheSwan_tbs/2
 BYTE   W02
 BYTE   Bn3
 BYTE   W06
 BYTE   Fs3
 BYTE   W06
 BYTE   TEMPO   54*TheSwan_tbs/2
 BYTE   Bn2
 BYTE   W01
 BYTE   TEMPO   54*TheSwan_tbs/2
 BYTE   W02
 BYTE   TEMPO   54*TheSwan_tbs/2
 BYTE   W02
 BYTE   TEMPO   56*TheSwan_tbs/2
 BYTE   W01
 BYTE   Dn3
 BYTE   W01
 BYTE   TEMPO   56*TheSwan_tbs/2
 BYTE   W02
 BYTE   TEMPO   58*TheSwan_tbs/2
 BYTE   W02
 BYTE   TEMPO   60*TheSwan_tbs/2
 BYTE   W01
 BYTE   TEMPO   60*TheSwan_tbs/2
 BYTE   Bn3
 BYTE   W02
 BYTE   TEMPO   60*TheSwan_tbs/2
 BYTE   W02
 BYTE   TEMPO   62*TheSwan_tbs/2
 BYTE   W02
 BYTE   TEMPO   64*TheSwan_tbs/2
 BYTE   Gn3
 BYTE   W02
 BYTE   TEMPO   64*TheSwan_tbs/2
 BYTE   W02
 BYTE   TEMPO   64*TheSwan_tbs/2
 BYTE   W02
 BYTE   TEMPO   66*TheSwan_tbs/2
 BYTE   Bn2
 BYTE   W06
 BYTE   Dn3
 BYTE   W06
 BYTE   Bn3
 BYTE   W06
 BYTE   Gn3
 BYTE   W06
//  #01 //026   ----------------------------------------
 BYTE   TEMPO   60*TheSwan_tbs/2
 BYTE   Bn2
 BYTE   W06
 BYTE   Dn3
 BYTE   W06
 BYTE   Bn3
 BYTE   W06
 BYTE   Gn3
 BYTE   W06
 BYTE   Bn2
 BYTE   W04
 BYTE   TEMPO   62*TheSwan_tbs/2
 BYTE   W02
 BYTE   Dn3
 BYTE   W03
 BYTE   TEMPO   64*TheSwan_tbs/2
 BYTE   W03
 BYTE   Bn3
 BYTE   W02
 BYTE   TEMPO   64*TheSwan_tbs/2
 BYTE   W04
 BYTE   Gn3
 BYTE   W01
 BYTE   TEMPO   64*TheSwan_tbs/2
 BYTE   W05
 BYTE   TEMPO   66*TheSwan_tbs/2
 BYTE   Bn2
 BYTE   W06
 BYTE   Dn3
 BYTE   W06
 BYTE   Bn3
 BYTE   W06
 BYTE   Gn3
 BYTE   W06
 BYTE   TEMPO   60*TheSwan_tbs/2
 BYTE   Bn2
 BYTE   W06
 BYTE   Dn3
 BYTE   W06
 BYTE   Bn3
 BYTE   W06
 BYTE   Gn3
 BYTE   W06
//  #01 //027   ----------------------------------------
 BYTE   Cn3
 BYTE   W06
 BYTE   En3
 BYTE   W06
 BYTE   Cn4
 BYTE   W06
 BYTE   An3
 BYTE   W06
 BYTE   Cn3
 BYTE   W06
 BYTE   En3
 BYTE   W06
 BYTE   Cn4
 BYTE   W06
 BYTE   An3
 BYTE   W06
 BYTE   Cn3
 BYTE   W06
 BYTE   En3
 BYTE   W06
 BYTE   Cn4
 BYTE   W06
 BYTE   An3
 BYTE   W06
 BYTE   Cn3
 BYTE   W06
 BYTE   En3
 BYTE   W06
 BYTE   Cn4
 BYTE   W06
 BYTE   An3
 BYTE   W06
//  #01 //028   ----------------------------------------
 BYTE   Cn3
 BYTE   W06
 BYTE   En3
 BYTE   W06
 BYTE   Cn4
 BYTE   W06
 BYTE   An3
 BYTE   W06
 BYTE   Cn3
 BYTE   W06
 BYTE   En3
 BYTE   W06
 BYTE   Cn4
 BYTE   W06
 BYTE   An3
 BYTE   W06
 BYTE   Cn3
 BYTE   W06
 BYTE   En3
 BYTE   W06
 BYTE   Cn4
 BYTE   W06
 BYTE   An3
 BYTE   W06
 BYTE   Cn3
 BYTE   W06
 BYTE   En3
 BYTE   W06
 BYTE   Cn4
 BYTE   W06
 BYTE   An3
 BYTE   W06
//  #01 //029   ----------------------------------------
 BYTE   Cn3
 BYTE   W06
 BYTE   En3
 BYTE   W03
 BYTE   TEMPO   62*TheSwan_tbs/2
 BYTE   W03
 BYTE   Cn4
 BYTE   W06
 BYTE   An3
 BYTE   W01
 BYTE   TEMPO   64*TheSwan_tbs/2
 BYTE   W05
 BYTE   Cn3
 BYTE   W04
 BYTE   TEMPO   64*TheSwan_tbs/2
 BYTE   W02
 BYTE   Fs3
 BYTE   W06
 BYTE   Cn4
 BYTE   W02
 BYTE   TEMPO   64*TheSwan_tbs/2
 BYTE   W04
 BYTE   An3
 BYTE   W06
 BYTE   TEMPO   66*TheSwan_tbs/2
 BYTE   Cn3
 BYTE   W05
 BYTE   TEMPO   64*TheSwan_tbs/2
 BYTE   W01
 BYTE   Fs3
 BYTE   W04
 BYTE   TEMPO   64*TheSwan_tbs/2
 BYTE   W02
 BYTE   Cn4
 BYTE   W04
 BYTE   TEMPO   64*TheSwan_tbs/2
 BYTE   W02
 BYTE   An3
 BYTE   W03
 BYTE   TEMPO   62*TheSwan_tbs/2
 BYTE   W03
 BYTE   Cn3
 BYTE   W02
 BYTE   TEMPO   60*TheSwan_tbs/2
 BYTE   W04
 BYTE   Fs3
 BYTE   W02
 BYTE   TEMPO   60*TheSwan_tbs/2
 BYTE   W04
 BYTE   Cn4
 BYTE   W01
 BYTE   TEMPO   60*TheSwan_tbs/2
 BYTE   W05
 BYTE   TEMPO   58*TheSwan_tbs/2
 BYTE   An3
 BYTE   W06
//  #01 //030   ----------------------------------------
 BYTE   TEMPO   56*TheSwan_tbs/2
 BYTE   Bn2
 BYTE   W06
 BYTE   Dn3
 BYTE   W06
 BYTE   Bn3
 BYTE   W06
 BYTE   Fn3
 BYTE   W06
 BYTE   Bn2  v060
 BYTE   W06
 BYTE   Dn3
 BYTE   W06
 BYTE   Bn3
 BYTE   W06
 BYTE   Fn3
 BYTE   W06
 BYTE   Bn2  v064
 BYTE   W06
 BYTE   Dn3
 BYTE   W06
 BYTE   Bn3
 BYTE   W06
 BYTE   Gn3  v068
 BYTE   W06
 BYTE   Bn2
 BYTE   W06
 BYTE   Gs3  v072
 BYTE   W06
 BYTE   Dn4
 BYTE   W06
 BYTE   Bn3  v076
 BYTE   W06
//  #01 //031   ----------------------------------------
 BYTE   Bn2
 BYTE   W06
 BYTE   Gs3  v080
 BYTE   W06
 BYTE   Dn4
 BYTE   W06
 BYTE   Bn3  v084
 BYTE   W06
 BYTE   Bn2
 BYTE   W06
 BYTE   Gs3  v088
 BYTE   W06
 BYTE   Dn4
 BYTE   W06
 BYTE   Bn3  v092
 BYTE   W06
 BYTE   TEMPO   64*TheSwan_tbs/2
 BYTE   Cn3
 BYTE   W06
 BYTE   En3
 BYTE   W06
 BYTE   Cn4
 BYTE   W06
 BYTE   An3
 BYTE   W06
 BYTE   Cn3  v088
 BYTE   W06
 BYTE   En3
 BYTE   W06
 BYTE   Cn4
 BYTE   W06
 BYTE   An3
 BYTE   W06
//  #01 //032   ----------------------------------------
 BYTE   Cn3  v084
 BYTE   W06
 BYTE   En3
 BYTE   W06
 BYTE   Cn4
 BYTE   W06
 BYTE   An3
 BYTE   W06
 BYTE   Cn3  v080
 BYTE   W06
 BYTE   Fs3
 BYTE   W06
 BYTE   Cn4
 BYTE   W06
 BYTE   An3
 BYTE   W06
 BYTE   Cn3  v076
 BYTE   W06
 BYTE   Fs3
 BYTE   W06
 BYTE   Cn4
 BYTE   W06
 BYTE   An3
 BYTE   W06
 BYTE   Cn3  v072
 BYTE   W06
 BYTE   Fs3
 BYTE   W06
 BYTE   Cn4
 BYTE   W06
 BYTE   An3
 BYTE   W06
//  #01 //033   ----------------------------------------
 BYTE   Bn2  v068
 BYTE   W06
 BYTE   Dn3
 BYTE   W06
 BYTE   Bn3
 BYTE   W06
 BYTE   Gn3
 BYTE   W06
 BYTE   Bn2  v064
 BYTE   W06
 BYTE   Dn3
 BYTE   W06
 BYTE   Bn3
 BYTE   W06
 BYTE   Gn3
 BYTE   W06
 BYTE   Bn2  v060
 BYTE   W06
 BYTE   Dn3
 BYTE   W06
 BYTE   Bn3
 BYTE   W06
 BYTE   Gn3  v056
 BYTE   W06
 BYTE   N66  An2
 BYTE   N66  Cn3
 BYTE   N66  Gn3
 BYTE   W72
//  #01 //034   ----------------------------------------
 BYTE   N05  Bn2
 BYTE   W06
 BYTE   Dn3
 BYTE   W06
 BYTE   Bn3
 BYTE   W06
 BYTE   Gn3
 BYTE   W06
 BYTE   Dn3
 BYTE   W06
 BYTE   Gn3
 BYTE   W06
 BYTE   Dn4
 BYTE   W06
 BYTE   Bn3
 BYTE   W06
 BYTE   Gn3
 BYTE   W06
 BYTE   Bn3
 BYTE   W06
 BYTE   Gn4
 BYTE   W06
 BYTE   Dn4
 BYTE   W06
 BYTE   W72
//  #01 //035   ----------------------------------------
 BYTE   Bn2
 BYTE   W03
 BYTE   TEMPO   64*TheSwan_tbs/2
 BYTE   W03
 BYTE   Dn3
 BYTE   W01
 BYTE   TEMPO   62*TheSwan_tbs/2
 BYTE   W03
 BYTE   TEMPO   60*TheSwan_tbs/2
 BYTE   W02
 BYTE   Bn3
 BYTE   W02
 BYTE   TEMPO   60*TheSwan_tbs/2
 BYTE   W03
 BYTE   TEMPO   60*TheSwan_tbs/2
 BYTE   W01
 BYTE   Gn3
 BYTE   W03
 BYTE   TEMPO   58*TheSwan_tbs/2
 BYTE   W03
 BYTE   Dn3
 BYTE   W01
 BYTE   TEMPO   56*TheSwan_tbs/2
 BYTE   W03
 BYTE   TEMPO   56*TheSwan_tbs/2
 BYTE   W02
 BYTE   Gn3
 BYTE   W02
 BYTE   TEMPO   54*TheSwan_tbs/2
 BYTE   W03
 BYTE   TEMPO   54*TheSwan_tbs/2
 BYTE   W01
 BYTE   Dn4
 BYTE   W03
 BYTE   TEMPO   54*TheSwan_tbs/2
 BYTE   W03
 BYTE   Bn3
 BYTE   W01
 BYTE   TEMPO   52*TheSwan_tbs/2
 BYTE   W03
 BYTE   TEMPO   52*TheSwan_tbs/2
 BYTE   W02
 BYTE   Gn3
 BYTE   W02
 BYTE   TEMPO   50*TheSwan_tbs/2
 BYTE   W03
 BYTE   TEMPO   50*TheSwan_tbs/2
 BYTE   W01
 BYTE   Bn3
 BYTE   W03
 BYTE   TEMPO   48*TheSwan_tbs/2
 BYTE   W03
 BYTE   Gn4
 BYTE   W01
 BYTE   TEMPO   48*TheSwan_tbs/2
 BYTE   W03
 BYTE   TEMPO   46*TheSwan_tbs/2
 BYTE   W02
 BYTE   En4
 BYTE   W02
 BYTE   TEMPO   44*TheSwan_tbs/2
 BYTE   W04
 BYTE   TEMPO   44*TheSwan_tbs/2
 BYTE   N11  Dn3
 BYTE   N11  An3
 BYTE   N11  Cn4
 BYTE   W24
//  #01 //036   ----------------------------------------
 BYTE   W48
 BYTE   TEMPO   64*TheSwan_tbs/2
 BYTE   W24
 BYTE   N05  En5  v068
 BYTE   W06
 BYTE   Gn5
 BYTE   W06
 BYTE   En6
 BYTE   W06
 BYTE   Bn5
 BYTE   W06
//  #01 //037   ----------------------------------------
 BYTE   Dn5
 BYTE   W06
 BYTE   Gn5
 BYTE   W06
 BYTE   Dn6
 BYTE   W06
 BYTE   Bn5
 BYTE   W06
 BYTE   Bn4
 BYTE   W06
 BYTE   En5
 BYTE   W06
 BYTE   Bn5
 BYTE   W06
 BYTE   Gn5
 BYTE   W06
 BYTE   Bn4
 BYTE   W06
 BYTE   Dn5
 BYTE   W06
 BYTE   Bn5
 BYTE   W06
 BYTE   Gn5
 BYTE   W06
 BYTE   En4
 BYTE   W06
 BYTE   Gn4
 BYTE   W06
 BYTE   En5  v064
 BYTE   W06
 BYTE   Bn4
 BYTE   W06
//  #01 //038   ----------------------------------------
 BYTE   En4
 BYTE   W06
 BYTE   Gn4
 BYTE   W06
 BYTE   Dn5  v060
 BYTE   W06
 BYTE   Bn4
 BYTE   W06
 BYTE   Bn3
 BYTE   W06
 BYTE   En4
 BYTE   W06
 BYTE   Bn4  v056
 BYTE   W06
 BYTE   Gn4
 BYTE   W06
 BYTE   Bn3
 BYTE   W06
 BYTE   Dn4
 BYTE   W06
 BYTE   Bn4  v052
 BYTE   W06
 BYTE   Gn4
 BYTE   W06
 BYTE   En3
 BYTE   W02
 BYTE   TEMPO   64*TheSwan_tbs/2
 BYTE   W02
 BYTE   TEMPO   62*TheSwan_tbs/2
 BYTE   W02
 BYTE   TEMPO   60*TheSwan_tbs/2
 BYTE   Gn3
 BYTE   W03
 BYTE   TEMPO   60*TheSwan_tbs/2
 BYTE   W02
 BYTE   TEMPO   60*TheSwan_tbs/2
 BYTE   W01
 BYTE   En4  v048
 BYTE   W01
 BYTE   TEMPO   58*TheSwan_tbs/2
 BYTE   W03
 BYTE   TEMPO   56*TheSwan_tbs/2
 BYTE   W02
 BYTE   TEMPO   56*TheSwan_tbs/2
 BYTE   Bn3
 BYTE   W02
 BYTE   TEMPO   54*TheSwan_tbs/2
 BYTE   W03
 BYTE   TEMPO   54*TheSwan_tbs/2
 BYTE   W01
//  #01 //039   ----------------------------------------
 BYTE   Dn3
 BYTE   W01
 BYTE   TEMPO   54*TheSwan_tbs/2
 BYTE   W02
 BYTE   TEMPO   52*TheSwan_tbs/2
 BYTE   W03
 BYTE   TEMPO   52*TheSwan_tbs/2
 BYTE   Gn3
 BYTE   W02
 BYTE   TEMPO   50*TheSwan_tbs/2
 BYTE   W02
 BYTE   TEMPO   50*TheSwan_tbs/2
 BYTE   W02
 BYTE   Dn4  v044
 BYTE   W01
 BYTE   TEMPO   48*TheSwan_tbs/2
 BYTE   W02
 BYTE   TEMPO   48*TheSwan_tbs/2
 BYTE   W02
 BYTE   TEMPO   46*TheSwan_tbs/2
 BYTE   W01
 BYTE   Bn3
 BYTE   W02
 BYTE   TEMPO   44*TheSwan_tbs/2
 BYTE   W02
 BYTE   TEMPO   44*TheSwan_tbs/2
 BYTE   W02
 BYTE   TEMPO   44*TheSwan_tbs/2
 BYTE   Bn2
 BYTE   W03
 BYTE   TEMPO   42*TheSwan_tbs/2
 BYTE   W02
 BYTE   TEMPO   42*TheSwan_tbs/2
 BYTE   W01
 BYTE   Dn3
 BYTE   W01
 BYTE   TEMPO   40*TheSwan_tbs/2
 BYTE   W03
 BYTE   TEMPO   40*TheSwan_tbs/2
 BYTE   W02
 BYTE   TEMPO   38*TheSwan_tbs/2
 BYTE   Bn3  v040
 BYTE   W02
 BYTE   TEMPO   38*TheSwan_tbs/2
 BYTE   W03
 BYTE   TEMPO   36*TheSwan_tbs/2
 BYTE   W01
 BYTE   Gn3
 BYTE   W01
 BYTE   TEMPO   34*TheSwan_tbs/2
 BYTE   W02
 BYTE   TEMPO   34*TheSwan_tbs/2
 BYTE   W03
 BYTE   TEMPO   32*TheSwan_tbs/2
 BYTE   N11  Bn2
 BYTE   W01
 BYTE   TEMPO   30*TheSwan_tbs/2
 BYTE   W01
 BYTE   TEMPO   30*TheSwan_tbs/2
 BYTE   W01
 BYTE   TEMPO   28*TheSwan_tbs/2
 BYTE   W01
 BYTE   TEMPO   26*TheSwan_tbs/2
 BYTE   W01
 BYTE   TEMPO   24*TheSwan_tbs/2
 BYTE   W01
 BYTE   TEMPO   22*TheSwan_tbs/2
 BYTE   W01
 BYTE   TEMPO   20*TheSwan_tbs/2
 BYTE   W01
 BYTE   TEMPO   20*TheSwan_tbs/2
 BYTE   W01
 BYTE   TEMPO   18*TheSwan_tbs/2
 BYTE   W01
 BYTE   TEMPO   16*TheSwan_tbs/2
 BYTE   W01
 BYTE   TEMPO   16*TheSwan_tbs/2
 BYTE   W01
 BYTE   TEMPO   14*TheSwan_tbs/2
 BYTE   W12
 BYTE   TEMPO   250*TheSwan_tbs/2
 BYTE   W24
//  #01 //040   ----------------------------------------
 BYTE   W96
//  #01 //041   ----------------------------------------
 BYTE   GoTo
  POIN2 Label_0161FE7E
//  #01 //042   ----------------------------------------
 BYTE   W02
 BYTE   FINE

//**************** Track 2 (Midi-Chn.1) ****************//

TheSwan_002:
//  #02 //000   ----------------------------------------
 BYTE   KEYSH   TheSwan_key+0
Label_0162052A:
 BYTE   VOICE   106
 BYTE   VOL   55*TheSwan_mvl/mxv
 BYTE   PAN   c_v-50
 BYTE   VOL   55*TheSwan_mvl/mxv
 BYTE   BEND   c_v+2
 BYTE   N12  Gn1  v048
 BYTE   W12
 BYTE   Dn2
 BYTE   W12
 BYTE   Gn2
 BYTE   W12
 BYTE   Dn2
 BYTE   W12
 BYTE   Gn1
 BYTE   W12
 BYTE   Dn2
 BYTE   W12
 BYTE   Gn1
 BYTE   W12
 BYTE   Dn2
 BYTE   W12
//  #02 //001   ----------------------------------------
 BYTE   Gn2
 BYTE   W12
 BYTE   Dn2
 BYTE   W12
 BYTE   Gn1
 BYTE   W12
 BYTE   N11  Dn2
 BYTE   W12
 BYTE   N12  Gn1
 BYTE   W12
 BYTE   Dn2
 BYTE   W12
 BYTE   Gn2
 BYTE   W12
 BYTE   Dn2
 BYTE   W12
//  #02 //002   ----------------------------------------
 BYTE   Gn1
 BYTE   W12
 BYTE   Dn2
 BYTE   W12
 BYTE   Gn1
 BYTE   W12
 BYTE   Dn2
 BYTE   W12
 BYTE   Gn2  v052
 BYTE   W12
 BYTE   Dn2
 BYTE   W12
 BYTE   Gn1
 BYTE   W12
 BYTE   N11  Dn2
 BYTE   W12
//  #02 //003   ----------------------------------------
 BYTE   Gn1  v056
 BYTE   W12
 BYTE   En2
 BYTE   W12
 BYTE   An2
 BYTE   W12
 BYTE   En2
 BYTE   W12
 BYTE   Gn1
 BYTE   W12
 BYTE   En2
 BYTE   W12
 BYTE   Gn1
 BYTE   W12
 BYTE   En2  v052
 BYTE   W12
//  #02 //004   ----------------------------------------
 BYTE   An2
 BYTE   W12
 BYTE   En2
 BYTE   W12
 BYTE   Gn1
 BYTE   W12
 BYTE   En2  v048
 BYTE   W12
 BYTE   Gn1
 BYTE   W12
 BYTE   En2
 BYTE   W12
 BYTE   An2
 BYTE   W12
 BYTE   En2
 BYTE   W12
//  #02 //005   ----------------------------------------
 BYTE   Gn1
 BYTE   W12
 BYTE   En2
 BYTE   W12
 BYTE   Gn1
 BYTE   W12
 BYTE   Dn2
 BYTE   W12
 BYTE   An2
 BYTE   W12
 BYTE   Dn2
 BYTE   W12
 BYTE   Gn1
 BYTE   W12
 BYTE   Dn2
 BYTE   W12
//  #02 //006   ----------------------------------------
Label_0162059D:
 BYTE   N11  Gn1  v048
 BYTE   W12
 BYTE   Dn2
 BYTE   W12
 BYTE   Gn2
 BYTE   W12
 BYTE   Dn2
 BYTE   W12
 BYTE   Gn1
 BYTE   W12
 BYTE   Dn2
 BYTE   W12
 BYTE   Gn1
 BYTE   W12
 BYTE   Dn2
 BYTE   W12
//  #02 //007   ----------------------------------------
 BYTE   Gn2
 BYTE   W12
 BYTE   Dn2
 BYTE   W12
 BYTE   Gn1
 BYTE   W12
 BYTE   Dn2
 BYTE   W12
 BYTE   PEND 
//  #02 //008   ----------------------------------------
 BYTE   PATT
  POIN2 Label_0162059D
//  #02 //009   ----------------------------------------
 BYTE   N11  Gn1  v048
 BYTE   W12
 BYTE   En2
 BYTE   W12
 BYTE   As2
 BYTE   W12
 BYTE   En2
 BYTE   W12
 BYTE   Gn1
 BYTE   W12
 BYTE   En2
 BYTE   W12
 BYTE   Fs1
 BYTE   W12
 BYTE   En2
 BYTE   W12
//  #02 //010   ----------------------------------------
 BYTE   As2
 BYTE   W12
 BYTE   En2
 BYTE   W12
 BYTE   Fs1
 BYTE   W12
 BYTE   En2
 BYTE   W12
 BYTE   Fs1
 BYTE   W12
 BYTE   Dn2
 BYTE   W12
 BYTE   Fs2
 BYTE   W12
 BYTE   Dn2
 BYTE   W12
//  #02 //011   ----------------------------------------
 BYTE   Fs1
 BYTE   W12
 BYTE   Dn2
 BYTE   W12
 BYTE   Fs1
 BYTE   W12
 BYTE   Cs2
 BYTE   W12
 BYTE   Fs2
 BYTE   W12
 BYTE   Cs2
 BYTE   W12
 BYTE   Fs1  v052
 BYTE   W12
 BYTE   Cs2
 BYTE   W12
//  #02 //012   ----------------------------------------
 BYTE   Bn1  v056
 BYTE   W12
 BYTE   Fs2  v052
 BYTE   W12
 BYTE   Bn2
 BYTE   W12
 BYTE   Fs2
 BYTE   W12
 BYTE   Bn1
 BYTE   W12
 BYTE   Fs2  v048
 BYTE   W12
 BYTE   Bn1
 BYTE   W12
 BYTE   Fs2
 BYTE   W12
//  #02 //013   ----------------------------------------
 BYTE   Bn2
 BYTE   W12
 BYTE   Fs2
 BYTE   W12
 BYTE   Bn1
 BYTE   W12
 BYTE   Fs2
 BYTE   W12
 BYTE   Bn1
 BYTE   W12
 BYTE   Dn2
 BYTE   W12
 BYTE   Bn2
 BYTE   W12
 BYTE   Dn2
 BYTE   W12
//  #02 //014   ----------------------------------------
 BYTE   Bn1
 BYTE   W12
 BYTE   Dn2
 BYTE   W12
 BYTE   As1
 BYTE   W12
 BYTE   Dn2
 BYTE   W12
 BYTE   As2
 BYTE   W12
 BYTE   Dn2
 BYTE   W12
 BYTE   As1
 BYTE   W12
 BYTE   Dn2
 BYTE   W12
//  #02 //015   ----------------------------------------
 BYTE   An1
 BYTE   W12
 BYTE   Dn2
 BYTE   W12
 BYTE   An2
 BYTE   W12
 BYTE   Dn2
 BYTE   W12
 BYTE   An1
 BYTE   W12
 BYTE   Dn2
 BYTE   W12
 BYTE   Dn1
 BYTE   W12
 BYTE   Dn2
 BYTE   W12
//  #02 //016   ----------------------------------------
 BYTE   An2
 BYTE   W12
 BYTE   Dn2
 BYTE   W12
 BYTE   Dn1
 BYTE   W12
 BYTE   Dn2
 BYTE   W12
 BYTE   An1
 BYTE   W12
 BYTE   Cn2
 BYTE   W12
 BYTE   An2
 BYTE   W12
 BYTE   Cn2
 BYTE   W12
//  #02 //017   ----------------------------------------
 BYTE   An1
 BYTE   W12
 BYTE   Cn2
 BYTE   W12
 BYTE   Gs1
 BYTE   W12
 BYTE   Cn2
 BYTE   W12
 BYTE   Gs2
 BYTE   W12
 BYTE   Cn2
 BYTE   W12
 BYTE   Gs1
 BYTE   W12
 BYTE   Cn2
 BYTE   W12
//  #02 //018   ----------------------------------------
 BYTE   Gn1
 BYTE   W12
 BYTE   Cn2
 BYTE   W12
 BYTE   Gn2
 BYTE   W12
 BYTE   Cn2
 BYTE   W12
 BYTE   Gn1
 BYTE   W12
 BYTE   Cn2
 BYTE   W12
 BYTE   Cn1
 BYTE   W12
 BYTE   Cn2
 BYTE   W12
//  #02 //019   ----------------------------------------
 BYTE   Gn2
 BYTE   W12
 BYTE   Cn2
 BYTE   W12
 BYTE   Cn1
 BYTE   W12
 BYTE   Cn2
 BYTE   W12
 BYTE   Fn1
 BYTE   W12
 BYTE   An1
 BYTE   W12
 BYTE   Fn2
 BYTE   W12
 BYTE   An1
 BYTE   W12
//  #02 //020   ----------------------------------------
 BYTE   Fn1
 BYTE   W12
 BYTE   An1
 BYTE   W12
 BYTE   En1
 BYTE   W12
 BYTE   An1
 BYTE   W12
 BYTE   En2
 BYTE   W12
 BYTE   An1
 BYTE   W12
 BYTE   En1
 BYTE   W12
 BYTE   An1
 BYTE   W12
//  #02 //021   ----------------------------------------
 BYTE   Dn1
 BYTE   W12
 BYTE   An1
 BYTE   W12
 BYTE   Dn2
 BYTE   W12
 BYTE   An1
 BYTE   W12
 BYTE   Dn1
 BYTE   W12
 BYTE   An1
 BYTE   W12
 BYTE   En1
 BYTE   W12
 BYTE   An1
 BYTE   W12
//  #02 //022   ----------------------------------------
 BYTE   En2
 BYTE   W12
 BYTE   An1
 BYTE   W12
 BYTE   En1
 BYTE   W12
 BYTE   An1
 BYTE   W12
 BYTE   Fn1
 BYTE   W12
 BYTE   An1
 BYTE   W12
 BYTE   Fn2
 BYTE   W12
 BYTE   An1
 BYTE   W12
//  #02 //023   ----------------------------------------
 BYTE   Fn1
 BYTE   W12
 BYTE   An1
 BYTE   W12
 BYTE   En1
 BYTE   W12
 BYTE   An1  v052
 BYTE   W12
 BYTE   En2  v056
 BYTE   W12
 BYTE   An1  v060
 BYTE   W12
 BYTE   En1  v068
 BYTE   W12
 BYTE   An1  v072
 BYTE   W12
//  #02 //024   ----------------------------------------
 BYTE   Dn1  v076
 BYTE   W12
 BYTE   An1
 BYTE   W12
 BYTE   Dn2
 BYTE   W12
 BYTE   An1  v072
 BYTE   W12
 BYTE   Dn1
 BYTE   W12
 BYTE   An1  v068
 BYTE   W12
 BYTE   Cn2
 BYTE   W12
 BYTE   Cn1  v064
 BYTE   W12
//  #02 //025   ----------------------------------------
 BYTE   Bn1
 BYTE   W12
 BYTE   Bn0  v060
 BYTE   W12
 BYTE   An1
 BYTE   W12
 BYTE   An0  v056
 BYTE   W12
 BYTE   N12  Gn1
 BYTE   W12
 BYTE   Dn2
 BYTE   W12
 BYTE   Gn2
 BYTE   W12
 BYTE   Dn2
 BYTE   W12
//  #02 //026   ----------------------------------------
 BYTE   Gn1
 BYTE   W12
 BYTE   Dn2
 BYTE   W12
 BYTE   Gn1
 BYTE   W12
 BYTE   Dn2
 BYTE   W12
 BYTE   Gn2
 BYTE   W12
 BYTE   Dn2
 BYTE   W12
 BYTE   Gn1
 BYTE   W12
 BYTE   N11  Dn2
 BYTE   W12
//  #02 //027   ----------------------------------------
 BYTE   Gn1
 BYTE   W12
 BYTE   En2
 BYTE   W12
 BYTE   An2
 BYTE   W12
 BYTE   En2
 BYTE   W12
 BYTE   Gn1
 BYTE   W12
 BYTE   En2
 BYTE   W12
 BYTE   Gn1
 BYTE   W12
 BYTE   En2
 BYTE   W12
//  #02 //028   ----------------------------------------
 BYTE   An2
 BYTE   W12
 BYTE   En2
 BYTE   W12
 BYTE   Gn1
 BYTE   W12
 BYTE   En2
 BYTE   W12
 BYTE   Gn1
 BYTE   W12
 BYTE   En2
 BYTE   W12
 BYTE   An2
 BYTE   W12
 BYTE   En2
 BYTE   W12
//  #02 //029   ----------------------------------------
 BYTE   Gn1
 BYTE   W12
 BYTE   En2
 BYTE   W12
 BYTE   Gn1
 BYTE   W12
 BYTE   Dn2
 BYTE   W12
 BYTE   An2
 BYTE   W12
 BYTE   Dn2
 BYTE   W12
 BYTE   Gn1
 BYTE   W12
 BYTE   Dn2
 BYTE   W12
//  #02 //030   ----------------------------------------
 BYTE   Gn1
 BYTE   W12
 BYTE   En2
 BYTE   W12
 BYTE   An2  v060
 BYTE   W12
 BYTE   En2  v064
 BYTE   W12
 BYTE   Fn1  v068
 BYTE   W12
 BYTE   En2
 BYTE   W12
 BYTE   En1  v072
 BYTE   W12
 BYTE   Bn1  v076
 BYTE   W12
//  #02 //031   ----------------------------------------
 BYTE   Gs2  v080
 BYTE   W12
 BYTE   Bn1
 BYTE   W12
 BYTE   En1  v084
 BYTE   W12
 BYTE   Bn1  v088
 BYTE   W12
 BYTE   An1  v092
 BYTE   W12
 BYTE   En2
 BYTE   W12
 BYTE   An2  v088
 BYTE   W12
 BYTE   En2
 BYTE   W12
//  #02 //032   ----------------------------------------
 BYTE   An1  v084
 BYTE   W12
 BYTE   En2
 BYTE   W12
 BYTE   An1  v080
 BYTE   W12
 BYTE   Fs2
 BYTE   W12
 BYTE   An2  v076
 BYTE   W12
 BYTE   Fs2
 BYTE   W12
 BYTE   An1  v072
 BYTE   W12
 BYTE   Fs2
 BYTE   W12
//  #02 //033   ----------------------------------------
 BYTE   Bn1  v068
 BYTE   W12
 BYTE   Dn2
 BYTE   W12
 BYTE   Gn2  v064
 BYTE   W12
 BYTE   Dn2
 BYTE   W12
 BYTE   Bn1  v060
 BYTE   W12
 BYTE   Dn2  v056
 BYTE   W12
 BYTE   N68  En1
 BYTE   N68  En2
 BYTE   W68
//  #02 //034   ----------------------------------------
 BYTE   W01
 BYTE   N03  Dn1
 BYTE   W03
 BYTE   N11  Dn2
 BYTE   W12
 BYTE   Gn2
 BYTE   W12
 BYTE   Bn2
 BYTE   W12
 BYTE   Gn2
 BYTE   W12
 BYTE   Dn3
 BYTE   W12
 BYTE   Bn2
 BYTE   W12
 BYTE   W72
//  #02 //035   ----------------------------------------
 BYTE   N20  Dn1
 BYTE   N20  Dn2
 BYTE   W96
//  #02 //036   ----------------------------------------
 BYTE   W48
 BYTE   W24
 BYTE   N11  Bn4  v068
 BYTE   W12
 BYTE   En4
 BYTE   W12
//  #02 //037   ----------------------------------------
 BYTE   Bn4
 BYTE   W12
 BYTE   Dn4
 BYTE   W12
 BYTE   En4  v064
 BYTE   W12
 BYTE   Bn3
 BYTE   W12
 BYTE   Dn4
 BYTE   W12
 BYTE   Bn3
 BYTE   W12
 BYTE   Bn3  v060
 BYTE   W12
 BYTE   En3
 BYTE   W12
//  #02 //038   ----------------------------------------
 BYTE   Bn3
 BYTE   W12
 BYTE   Dn3
 BYTE   W12
 BYTE   En3  v056
 BYTE   W12
 BYTE   Bn2
 BYTE   W12
 BYTE   Dn3
 BYTE   W12
 BYTE   Bn2  v052
 BYTE   W12
 BYTE   N11
 BYTE   W12
 BYTE   En2  v048
 BYTE   W12
//  #02 //039   ----------------------------------------
 BYTE   Bn2
 BYTE   W12
 BYTE   Dn2  v044
 BYTE   W12
 BYTE   Gn2
 BYTE   W12
 BYTE   Dn2  v040
 BYTE   W12
 BYTE   Gn1
 BYTE   W48
//  #02 //040   ----------------------------------------
 BYTE   W96
//  #02 //041   ----------------------------------------
 BYTE   GoTo
  POIN2 Label_0162052A
//  #02 //042   ----------------------------------------
 BYTE   W02
 BYTE   FINE

//**************** Track 3 (Midi-Chn.2) ****************//

TheSwan_003:
//  #03 //000   ----------------------------------------
 BYTE   KEYSH   TheSwan_key+0
Label_016207DE:
 BYTE   VOICE   24
 BYTE   VOL   55*TheSwan_mvl/mxv
 BYTE   PAN   c_v+50
 BYTE   BEND   c_v-3
 BYTE   W01
 BYTE   VOL   55*TheSwan_mvl/mxv
 BYTE   N20  Bn2  v048
 BYTE   N20  Dn3
 BYTE   W24
 BYTE   W48
 BYTE   N23  Bn2
 BYTE   W02
 BYTE   N21  Dn3
 BYTE   W02
 BYTE   N19  Gn3
 BYTE   W02
 BYTE   N17  Bn3
 BYTE   W02
 BYTE   N15  Dn4
 BYTE   W02
 BYTE   N13  Gn4
 BYTE   W02
 BYTE   N11  Bn4
 BYTE   W12
//  #03 //001   ----------------------------------------
 BYTE   W44
 BYTE   W03
 BYTE   W01
 BYTE   N20  Bn2  v056
 BYTE   N20  Dn3
 BYTE   W24
 BYTE   W48
//  #03 //002   ----------------------------------------
 BYTE   N23  Bn2  v060
 BYTE   W02
 BYTE   N21  Dn3
 BYTE   W02
 BYTE   N19  Gn3
 BYTE   W02
 BYTE   N17  Bn3
 BYTE   W02
 BYTE   N15  Dn4
 BYTE   W02
 BYTE   N13  Gn4
 BYTE   W02
 BYTE   N11  Bn4
 BYTE   W12
 BYTE   W44
 BYTE   W03
 BYTE   W01
 BYTE   N20  Gn2
 BYTE   N20  Bn2
 BYTE   N20  Dn3
 BYTE   W24
//  #03 //003   ----------------------------------------
 BYTE   W48
 BYTE   N23  Gn2  v068
 BYTE   W02
 BYTE   N21  En3
 BYTE   W02
 BYTE   N19  An3
 BYTE   W02
 BYTE   N17  Cn4
 BYTE   W02
 BYTE   N15  En4
 BYTE   W02
 BYTE   N13  An4
 BYTE   W02
 BYTE   N11  Cn5
 BYTE   W12
 BYTE   W44
//  #03 //004   ----------------------------------------
 BYTE   W03
 BYTE   W01
 BYTE   W06
 BYTE   N17  Cn3  v060
 BYTE   W02
 BYTE   N15  En3
 BYTE   W02
 BYTE   N13  An3
 BYTE   W02
 BYTE   N11  Cn4
 BYTE   W12
 BYTE   W48
 BYTE   W06
 BYTE   N17  Cn3
 BYTE   W02
 BYTE   N15  Fs3
 BYTE   W02
 BYTE   N13  Cn4
 BYTE   W14
//  #03 //005   ----------------------------------------
 BYTE   W44
 BYTE   W03
 BYTE   W01
 BYTE   W06
 BYTE   N17  Bn2
 BYTE   W02
 BYTE   N15  Gn3
 BYTE   W02
 BYTE   N13  Bn3
 BYTE   W14
 BYTE   W48
//  #03 //006   ----------------------------------------
 BYTE   N23  Bn2
 BYTE   W02
 BYTE   N22  Dn3
 BYTE   W01
 BYTE   N20  Gn3
 BYTE   W02
 BYTE   N19  Bn3
 BYTE   W01
 BYTE   N17  Dn4
 BYTE   W02
 BYTE   N16  Gn4
 BYTE   W01
 BYTE   N14  Bn4
 BYTE   W02
 BYTE   N13  Dn5
 BYTE   W13
 BYTE   W44
 BYTE   W03
 BYTE   W01
 BYTE   N20  Bn2
 BYTE   N20  Dn3
 BYTE   W24
//  #03 //007   ----------------------------------------
 BYTE   W48
 BYTE   N23  Bn2  v068
 BYTE   W02
 BYTE   N21  Dn3
 BYTE   W02
 BYTE   N19  Gn3
 BYTE   W02
 BYTE   N17  Bn3
 BYTE   W02
 BYTE   N15  Dn4
 BYTE   W02
 BYTE   N13  Gn4
 BYTE   W02
 BYTE   N11  Bn4
 BYTE   W12
 BYTE   W44
//  #03 //008   ----------------------------------------
 BYTE   W03
 BYTE   W01
 BYTE   N23  As2
 BYTE   W02
 BYTE   N21  Cs3
 BYTE   W02
 BYTE   N19  En3
 BYTE   W02
 BYTE   N17  As3
 BYTE   W66
 BYTE   N23
 BYTE   W02
 BYTE   N21  Cs4
 BYTE   W02
 BYTE   N19  En4
 BYTE   W02
 BYTE   N17  As4
 BYTE   W64
//  #03 //009   ----------------------------------------
 BYTE   W01
 BYTE   W01
 BYTE   W06
 BYTE   Dn3
 BYTE   W02
 BYTE   N15  Fs3
 BYTE   W02
 BYTE   N13  Bn3
 BYTE   W02
 BYTE   N11  Dn4
 BYTE   W12
 BYTE   W48
 BYTE   W06
 BYTE   N17  As2
 BYTE   W02
 BYTE   N15  En3
 BYTE   W02
 BYTE   N13  Fs3
 BYTE   W02
 BYTE   N11  As3
 BYTE   W12
//  #03 //010   ----------------------------------------
 BYTE   W44
 BYTE   W03
 BYTE   W01
 BYTE   W06
 BYTE   N17  Dn3
 BYTE   W02
 BYTE   N15  Fs3
 BYTE   W02
 BYTE   N13  Bn3
 BYTE   W02
 BYTE   N11  Bn2
 BYTE   W12
 BYTE   W48
//  #03 //011   ----------------------------------------
 BYTE   N23  Fs3
 BYTE   W02
 BYTE   N22  Bn3
 BYTE   W01
 BYTE   N20  Dn4
 BYTE   W02
 BYTE   N19  Fs4
 BYTE   W01
 BYTE   N17  Bn4
 BYTE   W02
 BYTE   N16  Dn5
 BYTE   W01
 BYTE   N14  Fs5
 BYTE   W02
 BYTE   N13  Bn5
 BYTE   W13
 BYTE   W44
 BYTE   W03
 BYTE   W24
 BYTE   W01
//  #03 //012   ----------------------------------------
 BYTE   N20  Dn5
 BYTE   N20  Dn6
 BYTE   W24
 BYTE   Dn5
 BYTE   N20  Dn6
 BYTE   W24
 BYTE   Dn5
 BYTE   N20  Dn6
 BYTE   W24
 BYTE   Dn5
 BYTE   N20  Dn6
 BYTE   W24
//  #03 //013   ----------------------------------------
 BYTE   Dn5
 BYTE   N20  Dn6
 BYTE   W23
 BYTE   W01
 BYTE   W24
 BYTE   Dn5
 BYTE   N20  Dn6
 BYTE   W24
 BYTE   Dn5
 BYTE   N20  Dn6
 BYTE   W24
//  #03 //014   ----------------------------------------
 BYTE   Dn5
 BYTE   N20  Dn6
 BYTE   W24
 BYTE   Dn5
 BYTE   N20  Dn6
 BYTE   W24
 BYTE   Dn5
 BYTE   N20  Dn6
 BYTE   W23
 BYTE   W01
 BYTE   W24
//  #03 //015   ----------------------------------------
 BYTE   Cn5
 BYTE   N20  Cn6
 BYTE   W24
 BYTE   Cn5
 BYTE   N20  Cn6
 BYTE   W24
 BYTE   Cn5
 BYTE   N20  Cn6
 BYTE   W24
 BYTE   Cn5
 BYTE   N20  Cn6
 BYTE   W24
//  #03 //016   ----------------------------------------
 BYTE   Cn5
 BYTE   N20  Cn6
 BYTE   W23
 BYTE   W01
 BYTE   W24
 BYTE   Cn5
 BYTE   N20  Cn6
 BYTE   W24
 BYTE   Cn5
 BYTE   N20  Cn6
 BYTE   W24
//  #03 //017   ----------------------------------------
 BYTE   W24
 BYTE   Cn5
 BYTE   N20  Cn6
 BYTE   W24
 BYTE   Cn5
 BYTE   N20  Cn6
 BYTE   W23
Label_0162095E:
 BYTE   W01
 BYTE   W96
//  #03 //018   ----------------------------------------
 BYTE   W44
 BYTE   W03
 BYTE   PEND 
 BYTE   W01
 BYTE   N72  An3  v068
 BYTE   N72  Dn4
 BYTE   N72  Fs4
 BYTE   W72
//  #03 //019   ----------------------------------------
 BYTE   N42  An3
 BYTE   N42  Cn4
 BYTE   N42  En4
 BYTE   W68
 BYTE   W03
//  #03 //020   ----------------------------------------
 BYTE   PATT
  POIN2 Label_0162095E
//  #03 //021   ----------------------------------------
 BYTE   W01
 BYTE   TIE  Dn3  v092
 BYTE   N72  Fn3
 BYTE   TIE  Dn4
 BYTE   N72  Fn4
 BYTE   W72
 BYTE   N66  Fs3
 BYTE   N66  Fs4
 BYTE   W66
//  #03 //022   ----------------------------------------
 BYTE   EOT
 BYTE   Dn3  v074
 BYTE   W05
 BYTE   W01
 BYTE   N20  Gn3  v068
 BYTE   N20  Dn4
 BYTE   N20  Gn4
 BYTE   W24
 BYTE   W48
 BYTE   N23  Bn2
 BYTE   W02
 BYTE   N22  Dn3
 BYTE   W01
 BYTE   N20  Gn3
 BYTE   W02
 BYTE   N19  Bn3
 BYTE   W01
 BYTE   N17  Dn4
 BYTE   W02
 BYTE   N16  Gn4
 BYTE   W01
 BYTE   N14  Bn4
 BYTE   W15
//  #03 //023   ----------------------------------------
 BYTE   W44
 BYTE   W03
 BYTE   W01
 BYTE   N20  An2  v060
 BYTE   N20  Cn3
 BYTE   N20  En3
 BYTE   W24
 BYTE   W48
//  #03 //024   ----------------------------------------
 BYTE   N23  Gn2  v068
 BYTE   W02
 BYTE   N22  En3
 BYTE   W01
 BYTE   N20  An3
 BYTE   W02
 BYTE   N19  Cn4
 BYTE   W01
 BYTE   N17  En4
 BYTE   W02
 BYTE   N16  An4
 BYTE   W01
 BYTE   N14  Cn5
 BYTE   W15
 BYTE   W44
 BYTE   W03
 BYTE   W01
 BYTE   N20  Cn3  v060
 BYTE   N20  En3
 BYTE   N20  An3
 BYTE   N20  Cn4
 BYTE   W24
//  #03 //025   ----------------------------------------
 BYTE   W48
 BYTE   W06
 BYTE   N17  Cn3  v076
 BYTE   W02
 BYTE   N15  Fs3
 BYTE   W02
 BYTE   N13  Cn4
 BYTE   W14
 BYTE   W44
//  #03 //026   ----------------------------------------
 BYTE   W03
 BYTE   W01
 BYTE   W72
 BYTE   W24
//  #03 //027   ----------------------------------------
 BYTE   N15  Dn3  v092
 BYTE   N15  Gs3
 BYTE   W24
 BYTE   N06  Dn3
 BYTE   N06  Gs3
 BYTE   N06  Dn4
 BYTE   W23
 BYTE   W01
 BYTE   N11  Cn3
 BYTE   W12
 BYTE   En3
 BYTE   W12
 BYTE   Cn4
 BYTE   W12
 BYTE   En3
 BYTE   W12
//  #03 //028   ----------------------------------------
 BYTE   Cn3  v088
 BYTE   W12
 BYTE   En3
 BYTE   W12
 BYTE   Cn3
 BYTE   W12
 BYTE   Fs3
 BYTE   W12
 BYTE   Cn4  v084
 BYTE   W12
 BYTE   Fs3
 BYTE   W12
 BYTE   Cn3
 BYTE   W12
 BYTE   Fs3
 BYTE   W11
 BYTE   W01
//  #03 //029   ----------------------------------------
 BYTE   N66  Bn2  v080
 BYTE   N66  Dn3
 BYTE   N66  Gn3
 BYTE   N66  Bn3
 BYTE   W72
 BYTE   An2  v072
 BYTE   N66  Cn3
 BYTE   N66  Gn3
 BYTE   W68
//  #03 //030   ----------------------------------------
 BYTE   W03
 BYTE   W01
 BYTE   Dn3  v060
 BYTE   W72
 BYTE   W68
//  #03 //031   ----------------------------------------
 BYTE   W03
 BYTE   W96
//  #03 //032   ----------------------------------------
 BYTE   W48
 BYTE   W96
//  #03 //033   ----------------------------------------
 BYTE   W48
 BYTE   W01
 BYTE   N23  Bn2
 BYTE   W02
 BYTE   N21  Gn3
 BYTE   W02
 BYTE   N19  Bn3
 BYTE   W02
 BYTE   N17  Gn4
 BYTE   W02
 BYTE   N15  Bn4
 BYTE   W16
 BYTE   W96
//  #03 //034   ----------------------------------------
 BYTE   W23
 BYTE   W01
 BYTE   W06
 BYTE   N17  Gn3  v056
 BYTE   W02
 BYTE   N15  Bn3
 BYTE   W02
 BYTE   N13  Dn4
 BYTE   W02
 BYTE   N11  Gn4  v048
 BYTE   W36
 BYTE   W92
//  #03 //035   ----------------------------------------
 BYTE   W03
 BYTE   GoTo
  POIN2 Label_016207DE
//  #03 //036   ----------------------------------------
 BYTE   W01
 BYTE   W01
 BYTE   FINE

//**************** Track 4 (Midi-Chn.3) ****************//

TheSwan_004:
//  #04 //000   ----------------------------------------
 BYTE   KEYSH   TheSwan_key+0
Label_017E2232:
 BYTE   VOICE   106
 BYTE   VOL   55*TheSwan_mvl/mxv
 BYTE   PAN   c_v+22
 BYTE   BEND   c_v-3
 BYTE   W01
 BYTE   VOL   55*TheSwan_mvl/mxv
 BYTE   N20  Gn1  v048
 BYTE   N20  Dn2
 BYTE   W24
 BYTE   W96
//  #04 //001   ----------------------------------------
 BYTE   W23
 BYTE   W01
 BYTE   Gn1  v056
 BYTE   N20  Dn2
 BYTE   W24
 BYTE   W96
//  #04 //002   ----------------------------------------
 BYTE   W23
Label_017E224D:
 BYTE   W01
 BYTE   N20  Gn1  v060
 BYTE   N20  En2
 BYTE   W24
 BYTE   W96
//  #04 //003   ----------------------------------------
 BYTE   W23
 BYTE   PEND 
 BYTE   W01
 BYTE   N23  Gn1
 BYTE   W02
 BYTE   N21  En2
 BYTE   W02
 BYTE   N19  An2
 BYTE   W20
 BYTE   W48
//  #04 //004   ----------------------------------------
 BYTE   N23  Gn1
 BYTE   W02
 BYTE   N21  Dn2
 BYTE   W02
 BYTE   N19  An2
 BYTE   W20
 BYTE   W44
 BYTE   W03
 BYTE   W01
 BYTE   N23  Gn1
 BYTE   W02
 BYTE   N21  Dn2
 BYTE   W02
 BYTE   N19  Gn2
 BYTE   W20
//  #04 //005   ----------------------------------------
 BYTE   W96
//  #04 //006   ----------------------------------------
 BYTE   W23
 BYTE   W01
 BYTE   N20  Gn1
 BYTE   N20  Dn2
 BYTE   W24
 BYTE   W96
//  #04 //007   ----------------------------------------
 BYTE   W23
 BYTE   W01
 BYTE   N72  Gn1  v068
 BYTE   W72
//  #04 //008   ----------------------------------------
 BYTE   N66  Fs1
 BYTE   W68
 BYTE   W03
 BYTE   W01
 BYTE   N23
 BYTE   W02
 BYTE   N21  Dn2
 BYTE   W02
 BYTE   N19  Fs2
 BYTE   W02
 BYTE   N17  Bn2
 BYTE   W18
//  #04 //009   ----------------------------------------
 BYTE   W48
 BYTE   N23  Fs1
 BYTE   W02
 BYTE   N21  Cs2
 BYTE   W02
 BYTE   N19  Fs2
 BYTE   W20
 BYTE   W44
//  #04 //010   ----------------------------------------
 BYTE   W03
 BYTE   W01
 BYTE   N23  Bn0
 BYTE   W02
 BYTE   N21  Bn1
 BYTE   W02
 BYTE   N19  Bn2
 BYTE   W20
 BYTE   W96
//  #04 //011   ----------------------------------------
 BYTE   W23
 BYTE   W96
//  #04 //012   ----------------------------------------
 BYTE   W48
 BYTE   W96
//  #04 //013   ----------------------------------------
 BYTE   W48
 BYTE   W96
//  #04 //014   ----------------------------------------
 BYTE   W48
 BYTE   W96
//  #04 //015   ----------------------------------------
 BYTE   W48
 BYTE   W96
//  #04 //016   ----------------------------------------
 BYTE   W48
 BYTE   W01
 BYTE   N72  An2
 BYTE   N72  Dn3
 BYTE   N72  Fs3
 BYTE   W72
//  #04 //017   ----------------------------------------
 BYTE   N42  An2
 BYTE   N42  Cn3
 BYTE   N42  En3
 BYTE   W68
 BYTE   W03
 BYTE   W01
 BYTE   W96
//  #04 //018   ----------------------------------------
 BYTE   W44
 BYTE   W03
 BYTE   W01
 BYTE   N96  An2  v108
 BYTE   W96
//  #04 //019   ----------------------------------------
 BYTE   N24  Bn2
 BYTE   W24
 BYTE   N20  Cn3
 BYTE   W23
 BYTE   W01
 BYTE   Bn2  v084
 BYTE   N20  Dn3
 BYTE   W24
 BYTE   W96
//  #04 //020   ----------------------------------------
 BYTE   W23
//  #04 //021   ----------------------------------------
 BYTE   PATT
  POIN2 Label_017E224D
//  #04 //022   ----------------------------------------
 BYTE   W01
 BYTE   N20  Gn1  v060
 BYTE   N20  En2
 BYTE   N20  An2
 BYTE   W24
 BYTE   W48
 BYTE   N23  Gn1  v076
 BYTE   W02
 BYTE   N21  En2
 BYTE   W02
 BYTE   N19  An2
 BYTE   W20
//  #04 //023   ----------------------------------------
 BYTE   W44
 BYTE   W03
 BYTE   W01
 BYTE   N48  Gn1  v092
 BYTE   W48
//  #04 //024   ----------------------------------------
 BYTE   N20  Fn1
 BYTE   W24
 BYTE   N68  En1
 BYTE   W03
 BYTE   N64  Bn1
 BYTE   W03
 BYTE   N60  Gs2
 BYTE   W64
 BYTE   W01
 BYTE   W01
//  #04 //025   ----------------------------------------
 BYTE   N24  An1
 BYTE   W24
 BYTE   En2
 BYTE   W24
 BYTE   N20  An2  v088
 BYTE   W24
 BYTE   N24  An1
 BYTE   W24
//  #04 //026   ----------------------------------------
 BYTE   En2  v084
 BYTE   W24
 BYTE   N20  An2
 BYTE   W23
 BYTE   W01
 BYTE   N66  Bn0  v080
 BYTE   N66  Bn1
 BYTE   W72
//  #04 //027   ----------------------------------------
 BYTE   En1  v072
 BYTE   N66  En2
 BYTE   W68
 BYTE   W03
 BYTE   W01
 BYTE   Dn1  v060
 BYTE   N66  Dn2
 BYTE   W72
//  #04 //028   ----------------------------------------
 BYTE   W68
 BYTE   W03
 BYTE   W96
//  #04 //029   ----------------------------------------
 BYTE   W48
 BYTE   W96
//  #04 //030   ----------------------------------------
 BYTE   W48
 BYTE   W96
//  #04 //031   ----------------------------------------
 BYTE   W48
 BYTE   W01
 BYTE   N23  Gn1
 BYTE   W02
 BYTE   N21  Dn2
 BYTE   W02
 BYTE   N19  Bn2
 BYTE   W44
//  #04 //032   ----------------------------------------
 BYTE   W92
 BYTE   W03
 BYTE   GoTo
  POIN2 Label_017E2232
//  #04 //033   ----------------------------------------
 BYTE   W01
 BYTE   W01
 BYTE   FINE

//**************** Track 5 (Midi-Chn.4) ****************//

TheSwan_005:
//  #05 //000   ----------------------------------------
 BYTE   KEYSH   TheSwan_key+0
Label_01620A72:
 BYTE   VOICE   42
 BYTE   VOL   55*TheSwan_mvl/mxv
 BYTE   PAN   c_v+36
 BYTE   BEND   c_v-3
 BYTE   W96
//  #05 //001   ----------------------------------------
 BYTE   W48
 BYTE   W02
 BYTE   VOL   12*TheSwan_mvl/mxv
 BYTE   N24  Gn3  v092
 BYTE   W01
 BYTE   VOL   13*TheSwan_mvl/mxv
 BYTE   W01
 BYTE   VOL   14*TheSwan_mvl/mxv
 BYTE   W01
 BYTE   VOL   15*TheSwan_mvl/mxv
 BYTE   W01
 BYTE   VOL   16*TheSwan_mvl/mxv
 BYTE   W01
 BYTE   VOL   17*TheSwan_mvl/mxv
 BYTE   W01
 BYTE   VOL   18*TheSwan_mvl/mxv
 BYTE   W01
 BYTE   VOL   19*TheSwan_mvl/mxv
 BYTE   W01
 BYTE   VOL   19*TheSwan_mvl/mxv
 BYTE   W01
 BYTE   VOL   20*TheSwan_mvl/mxv
 BYTE   W01
 BYTE   VOL   21*TheSwan_mvl/mxv
 BYTE   W01
 BYTE   VOL   22*TheSwan_mvl/mxv
 BYTE   W01
 BYTE   VOL   23*TheSwan_mvl/mxv
 BYTE   W01
 BYTE   VOL   24*TheSwan_mvl/mxv
 BYTE   W01
 BYTE   VOL   25*TheSwan_mvl/mxv
 BYTE   W01
 BYTE   VOL   25*TheSwan_mvl/mxv
 BYTE   W01
 BYTE   VOL   26*TheSwan_mvl/mxv
 BYTE   W01
 BYTE   VOL   27*TheSwan_mvl/mxv
 BYTE   W01
 BYTE   VOL   28*TheSwan_mvl/mxv
 BYTE   W01
 BYTE   VOL   29*TheSwan_mvl/mxv
 BYTE   W01
 BYTE   VOL   30*TheSwan_mvl/mxv
 BYTE   W01
 BYTE   VOL   31*TheSwan_mvl/mxv
 BYTE   W01
 BYTE   VOL   32*TheSwan_mvl/mxv
 BYTE   W01
 BYTE   VOL   32*TheSwan_mvl/mxv
 BYTE   W01
 BYTE   VOL   33*TheSwan_mvl/mxv
 BYTE   N24  Fs3
 BYTE   W01
 BYTE   VOL   34*TheSwan_mvl/mxv
 BYTE   W01
 BYTE   VOL   35*TheSwan_mvl/mxv
 BYTE   W01
 BYTE   VOL   36*TheSwan_mvl/mxv
 BYTE   W01
 BYTE   VOL   37*TheSwan_mvl/mxv
 BYTE   W01
 BYTE   VOL   38*TheSwan_mvl/mxv
 BYTE   W01
 BYTE   VOL   38*TheSwan_mvl/mxv
 BYTE   W01
 BYTE   VOL   39*TheSwan_mvl/mxv
 BYTE   W01
 BYTE   VOL   40*TheSwan_mvl/mxv
 BYTE   W01
 BYTE   VOL   41*TheSwan_mvl/mxv
 BYTE   W01
 BYTE   VOL   42*TheSwan_mvl/mxv
 BYTE   W01
 BYTE   VOL   43*TheSwan_mvl/mxv
 BYTE   W01
 BYTE   VOL   44*TheSwan_mvl/mxv
 BYTE   W01
 BYTE   VOL   45*TheSwan_mvl/mxv
 BYTE   W01
 BYTE   VOL   45*TheSwan_mvl/mxv
 BYTE   W01
 BYTE   VOL   46*TheSwan_mvl/mxv
 BYTE   W01
 BYTE   VOL   47*TheSwan_mvl/mxv
 BYTE   W01
 BYTE   VOL   48*TheSwan_mvl/mxv
 BYTE   W01
 BYTE   VOL   49*TheSwan_mvl/mxv
 BYTE   W01
 BYTE   VOL   50*TheSwan_mvl/mxv
 BYTE   W01
 BYTE   VOL   51*TheSwan_mvl/mxv
 BYTE   W01
 BYTE   VOL   51*TheSwan_mvl/mxv
 BYTE   W01
//  #05 //002   ----------------------------------------
 BYTE   VOL   52*TheSwan_mvl/mxv
 BYTE   W01
 BYTE   VOL   53*TheSwan_mvl/mxv
 BYTE   W01
 BYTE   VOL   55*TheSwan_mvl/mxv
 BYTE   N24  Bn2
 BYTE   W04
 BYTE   VOL   54*TheSwan_mvl/mxv
 BYTE   W04
 BYTE   VOL   53*TheSwan_mvl/mxv
 BYTE   W04
 BYTE   VOL   52*TheSwan_mvl/mxv
 BYTE   W04
 BYTE   VOL   51*TheSwan_mvl/mxv
 BYTE   W04
 BYTE   VOL   50*TheSwan_mvl/mxv
 BYTE   W04
 BYTE   N24  En3
 BYTE   W01
 BYTE   VOL   49*TheSwan_mvl/mxv
 BYTE   W04
 BYTE   VOL   48*TheSwan_mvl/mxv
 BYTE   W04
 BYTE   VOL   48*TheSwan_mvl/mxv
 BYTE   W04
 BYTE   VOL   47*TheSwan_mvl/mxv
 BYTE   W04
 BYTE   VOL   46*TheSwan_mvl/mxv
 BYTE   W04
 BYTE   VOL   45*TheSwan_mvl/mxv
 BYTE   W03
 BYTE   N24  Dn3
 BYTE   W02
 BYTE   VOL   44*TheSwan_mvl/mxv
 BYTE   W04
 BYTE   VOL   43*TheSwan_mvl/mxv
 BYTE   W04
 BYTE   VOL   42*TheSwan_mvl/mxv
 BYTE   W04
 BYTE   VOL   42*TheSwan_mvl/mxv
 BYTE   W04
 BYTE   VOL   41*TheSwan_mvl/mxv
 BYTE   W04
 BYTE   VOL   40*TheSwan_mvl/mxv
 BYTE   W02
 BYTE   N24  Gn2
 BYTE   W03
 BYTE   VOL   39*TheSwan_mvl/mxv
 BYTE   W04
 BYTE   VOL   38*TheSwan_mvl/mxv
 BYTE   W04
 BYTE   VOL   37*TheSwan_mvl/mxv
 BYTE   W04
 BYTE   VOL   36*TheSwan_mvl/mxv
 BYTE   W04
 BYTE   VOL   35*TheSwan_mvl/mxv
 BYTE   W03
//  #05 //003   ----------------------------------------
 BYTE   W02
 BYTE   VOL   34*TheSwan_mvl/mxv
 BYTE   N56  An2  v100
 BYTE   W02
 BYTE   VOL   35*TheSwan_mvl/mxv
 BYTE   W02
 BYTE   VOL   36*TheSwan_mvl/mxv
 BYTE   W02
 BYTE   VOL   37*TheSwan_mvl/mxv
 BYTE   W02
 BYTE   VOL   38*TheSwan_mvl/mxv
 BYTE   W02
 BYTE   VOL   38*TheSwan_mvl/mxv
 BYTE   W02
 BYTE   VOL   39*TheSwan_mvl/mxv
 BYTE   W02
 BYTE   VOL   40*TheSwan_mvl/mxv
 BYTE   W02
 BYTE   VOL   41*TheSwan_mvl/mxv
 BYTE   W02
 BYTE   VOL   42*TheSwan_mvl/mxv
 BYTE   W02
 BYTE   VOL   43*TheSwan_mvl/mxv
 BYTE   W02
 BYTE   VOL   44*TheSwan_mvl/mxv
 BYTE   W03
 BYTE   VOL   45*TheSwan_mvl/mxv
 BYTE   W02
 BYTE   VOL   45*TheSwan_mvl/mxv
 BYTE   W02
 BYTE   VOL   46*TheSwan_mvl/mxv
 BYTE   W02
 BYTE   VOL   47*TheSwan_mvl/mxv
 BYTE   W02
 BYTE   VOL   48*TheSwan_mvl/mxv
 BYTE   W02
 BYTE   VOL   49*TheSwan_mvl/mxv
 BYTE   W02
 BYTE   VOL   50*TheSwan_mvl/mxv
 BYTE   W02
 BYTE   VOL   51*TheSwan_mvl/mxv
 BYTE   W02
 BYTE   VOL   51*TheSwan_mvl/mxv
 BYTE   W02
 BYTE   VOL   52*TheSwan_mvl/mxv
 BYTE   W02
 BYTE   VOL   53*TheSwan_mvl/mxv
 BYTE   W03
 BYTE   VOL   54*TheSwan_mvl/mxv
 BYTE   W01
 BYTE   VOL   54*TheSwan_mvl/mxv
 BYTE   W01
 BYTE   VOL   53*TheSwan_mvl/mxv
 BYTE   W01
 BYTE   VOL   53*TheSwan_mvl/mxv
 BYTE   W01
 BYTE   VOL   52*TheSwan_mvl/mxv
 BYTE   W01
 BYTE   VOL   51*TheSwan_mvl/mxv
 BYTE   W01
 BYTE   VOL   51*TheSwan_mvl/mxv
 BYTE   W01
 BYTE   VOL   51*TheSwan_mvl/mxv
 BYTE   W01
 BYTE   VOL   50*TheSwan_mvl/mxv
 BYTE   W01
 BYTE   VOL   49*TheSwan_mvl/mxv
 BYTE   W01
 BYTE   VOL   49*TheSwan_mvl/mxv
 BYTE   W01
 BYTE   VOL   48*TheSwan_mvl/mxv
 BYTE   W01
 BYTE   VOL   48*TheSwan_mvl/mxv
 BYTE   N11  Bn2
 BYTE   W01
 BYTE   VOL   48*TheSwan_mvl/mxv
 BYTE   W01
 BYTE   VOL   47*TheSwan_mvl/mxv
 BYTE   W01
 BYTE   VOL   46*TheSwan_mvl/mxv
 BYTE   W01
 BYTE   VOL   46*TheSwan_mvl/mxv
 BYTE   W01
 BYTE   VOL   45*TheSwan_mvl/mxv
 BYTE   W01
 BYTE   VOL   45*TheSwan_mvl/mxv
 BYTE   W01
 BYTE   VOL   44*TheSwan_mvl/mxv
 BYTE   W01
 BYTE   VOL   44*TheSwan_mvl/mxv
 BYTE   W01
 BYTE   VOL   43*TheSwan_mvl/mxv
 BYTE   W01
 BYTE   VOL   43*TheSwan_mvl/mxv
 BYTE   W01
 BYTE   VOL   42*TheSwan_mvl/mxv
 BYTE   W01
 BYTE   VOL   42*TheSwan_mvl/mxv
 BYTE   N42  Cn3
 BYTE   W01
 BYTE   VOL   41*TheSwan_mvl/mxv
 BYTE   W01
 BYTE   VOL   41*TheSwan_mvl/mxv
 BYTE   W01
 BYTE   VOL   40*TheSwan_mvl/mxv
 BYTE   W01
 BYTE   VOL   39*TheSwan_mvl/mxv
 BYTE   W01
 BYTE   VOL   39*TheSwan_mvl/mxv
 BYTE   W01
 BYTE   VOL   38*TheSwan_mvl/mxv
 BYTE   W01
 BYTE   VOL   38*TheSwan_mvl/mxv
 BYTE   W01
 BYTE   VOL   38*TheSwan_mvl/mxv
 BYTE   W01
 BYTE   VOL   37*TheSwan_mvl/mxv
 BYTE   W01
 BYTE   VOL   36*TheSwan_mvl/mxv
 BYTE   W01
 BYTE   VOL   36*TheSwan_mvl/mxv
 BYTE   W01
 BYTE   VOL   35*TheSwan_mvl/mxv
 BYTE   W01
 BYTE   VOL   35*TheSwan_mvl/mxv
 BYTE   W01
 BYTE   VOL   34*TheSwan_mvl/mxv
 BYTE   W01
 BYTE   VOL   34*TheSwan_mvl/mxv
 BYTE   W01
 BYTE   VOL   33*TheSwan_mvl/mxv
 BYTE   W01
 BYTE   VOL   33*TheSwan_mvl/mxv
 BYTE   W01
 BYTE   VOL   32*TheSwan_mvl/mxv
 BYTE   W01
 BYTE   VOL   32*TheSwan_mvl/mxv
 BYTE   W01
 BYTE   VOL   31*TheSwan_mvl/mxv
 BYTE   W01
 BYTE   VOL   31*TheSwan_mvl/mxv
 BYTE   W01
//  #05 //004   ----------------------------------------
 BYTE   VOL   30*TheSwan_mvl/mxv
 BYTE   W01
 BYTE   VOL   30*TheSwan_mvl/mxv
 BYTE   W01
 BYTE   VOL   29*TheSwan_mvl/mxv
 BYTE   W01
 BYTE   VOL   29*TheSwan_mvl/mxv
 BYTE   W01
 BYTE   VOL   28*TheSwan_mvl/mxv
 BYTE   W01
 BYTE   VOL   28*TheSwan_mvl/mxv
 BYTE   W01
 BYTE   VOL   27*TheSwan_mvl/mxv
 BYTE   W01
 BYTE   VOL   26*TheSwan_mvl/mxv
 BYTE   W01
 BYTE   VOL   26*TheSwan_mvl/mxv
 BYTE   W01
 BYTE   VOL   25*TheSwan_mvl/mxv
 BYTE   W01
 BYTE   VOL   25*TheSwan_mvl/mxv
 BYTE   W01
 BYTE   VOL   24*TheSwan_mvl/mxv
 BYTE   W01
 BYTE   VOL   24*TheSwan_mvl/mxv
 BYTE   W01
 BYTE   VOL   23*TheSwan_mvl/mxv
 BYTE   W01
 BYTE   VOL   23*TheSwan_mvl/mxv
 BYTE   W01
 BYTE   VOL   22*TheSwan_mvl/mxv
 BYTE   W01
 BYTE   VOL   22*TheSwan_mvl/mxv
 BYTE   W01
 BYTE   VOL   21*TheSwan_mvl/mxv
 BYTE   W01
 BYTE   VOL   21*TheSwan_mvl/mxv
 BYTE   W01
 BYTE   VOL   20*TheSwan_mvl/mxv
 BYTE   W01
 BYTE   VOL   20*TheSwan_mvl/mxv
 BYTE   W01
 BYTE   VOL   19*TheSwan_mvl/mxv
 BYTE   W01
 BYTE   VOL   19*TheSwan_mvl/mxv
 BYTE   W01
 BYTE   VOL   18*TheSwan_mvl/mxv
 BYTE   W01
 BYTE   VOL   18*TheSwan_mvl/mxv
 BYTE   W01
 BYTE   VOL   17*TheSwan_mvl/mxv
 BYTE   W01
 BYTE   VOL   17*TheSwan_mvl/mxv
 BYTE   W22
 BYTE   W02
 BYTE   VOL   34*TheSwan_mvl/mxv
 BYTE   N42  En2
 BYTE   W02
 BYTE   VOL   35*TheSwan_mvl/mxv
 BYTE   W03
 BYTE   VOL   35*TheSwan_mvl/mxv
 BYTE   W02
 BYTE   VOL   35*TheSwan_mvl/mxv
 BYTE   W03
 BYTE   VOL   36*TheSwan_mvl/mxv
 BYTE   W02
 BYTE   VOL   36*TheSwan_mvl/mxv
 BYTE   W03
 BYTE   VOL   37*TheSwan_mvl/mxv
 BYTE   W03
 BYTE   VOL   37*TheSwan_mvl/mxv
 BYTE   W02
 BYTE   VOL   38*TheSwan_mvl/mxv
 BYTE   W03
 BYTE   VOL   38*TheSwan_mvl/mxv
 BYTE   W02
 BYTE   VOL   38*TheSwan_mvl/mxv
 BYTE   W03
 BYTE   VOL   39*TheSwan_mvl/mxv
 BYTE   W03
 BYTE   VOL   39*TheSwan_mvl/mxv
 BYTE   W02
 BYTE   VOL   40*TheSwan_mvl/mxv
 BYTE   W03
 BYTE   VOL   40*TheSwan_mvl/mxv
 BYTE   W02
 BYTE   VOL   41*TheSwan_mvl/mxv
 BYTE   W03
 BYTE   VOL   41*TheSwan_mvl/mxv
 BYTE   W03
 BYTE   VOL   42*TheSwan_mvl/mxv
 BYTE   W02
//  #05 //005   ----------------------------------------
 BYTE   VOL   42*TheSwan_mvl/mxv
 BYTE   W02
 BYTE   N12  Fs2
 BYTE   W01
 BYTE   VOL   42*TheSwan_mvl/mxv
 BYTE   W02
 BYTE   VOL   43*TheSwan_mvl/mxv
 BYTE   W03
 BYTE   VOL   43*TheSwan_mvl/mxv
 BYTE   W03
 BYTE   VOL   44*TheSwan_mvl/mxv
 BYTE   W02
 BYTE   VOL   44*TheSwan_mvl/mxv
 BYTE   W01
 BYTE   N11  Gn2
 BYTE   W02
 BYTE   VOL   45*TheSwan_mvl/mxv
 BYTE   W02
 BYTE   VOL   45*TheSwan_mvl/mxv
 BYTE   W03
 BYTE   VOL   45*TheSwan_mvl/mxv
 BYTE   W03
 BYTE   VOL   46*TheSwan_mvl/mxv
 BYTE   W02
 BYTE   VOL   46*TheSwan_mvl/mxv
 BYTE   N12  An2
 BYTE   W03
 BYTE   VOL   47*TheSwan_mvl/mxv
 BYTE   W02
 BYTE   VOL   47*TheSwan_mvl/mxv
 BYTE   W03
 BYTE   VOL   48*TheSwan_mvl/mxv
 BYTE   W03
 BYTE   VOL   48*TheSwan_mvl/mxv
 BYTE   W01
 BYTE   N11  Bn2
 BYTE   W01
 BYTE   VOL   48*TheSwan_mvl/mxv
 BYTE   W03
 BYTE   VOL   49*TheSwan_mvl/mxv
 BYTE   W02
 BYTE   VOL   49*TheSwan_mvl/mxv
 BYTE   W03
 BYTE   VOL   50*TheSwan_mvl/mxv
 BYTE   W03
 BYTE   VOL   50*TheSwan_mvl/mxv
 BYTE   N12  Cn3
 BYTE   W04
 BYTE   VOL   50*TheSwan_mvl/mxv
 BYTE   W05
 BYTE   VOL   49*TheSwan_mvl/mxv
 BYTE   W03
 BYTE   N11  Dn3
 BYTE   W02
 BYTE   VOL   49*TheSwan_mvl/mxv
 BYTE   W05
 BYTE   VOL   48*TheSwan_mvl/mxv
 BYTE   W05
 BYTE   VOL   48*TheSwan_mvl/mxv
 BYTE   N12  En3
 BYTE   W04
 BYTE   VOL   48*TheSwan_mvl/mxv
 BYTE   W05
 BYTE   VOL   47*TheSwan_mvl/mxv
 BYTE   W03
 BYTE   N11  Fs3
 BYTE   W02
 BYTE   VOL   47*TheSwan_mvl/mxv
 BYTE   W05
 BYTE   VOL   46*TheSwan_mvl/mxv
 BYTE   W03
//  #05 //006   ----------------------------------------
 BYTE   W02
 BYTE   VOL   45*TheSwan_mvl/mxv
 BYTE   N80  Bn3
 BYTE   W01
 BYTE   VOL   45*TheSwan_mvl/mxv
 BYTE   W01
 BYTE   VOL   45*TheSwan_mvl/mxv
 BYTE   W01
 BYTE   VOL   44*TheSwan_mvl/mxv
 BYTE   W01
 BYTE   VOL   43*TheSwan_mvl/mxv
 BYTE   W01
 BYTE   VOL   43*TheSwan_mvl/mxv
 BYTE   W01
 BYTE   VOL   42*TheSwan_mvl/mxv
 BYTE   W01
 BYTE   VOL   42*TheSwan_mvl/mxv
 BYTE   W01
 BYTE   VOL   42*TheSwan_mvl/mxv
 BYTE   W01
 BYTE   VOL   41*TheSwan_mvl/mxv
 BYTE   W01
 BYTE   VOL   40*TheSwan_mvl/mxv
 BYTE   W01
 BYTE   VOL   40*TheSwan_mvl/mxv
 BYTE   W01
 BYTE   VOL   39*TheSwan_mvl/mxv
 BYTE   W01
 BYTE   VOL   39*TheSwan_mvl/mxv
 BYTE   W01
 BYTE   VOL   38*TheSwan_mvl/mxv
 BYTE   W01
 BYTE   VOL   38*TheSwan_mvl/mxv
 BYTE   W01
 BYTE   VOL   37*TheSwan_mvl/mxv
 BYTE   W01
 BYTE   VOL   37*TheSwan_mvl/mxv
 BYTE   W01
 BYTE   VOL   36*TheSwan_mvl/mxv
 BYTE   W01
 BYTE   VOL   35*TheSwan_mvl/mxv
 BYTE   W01
 BYTE   VOL   35*TheSwan_mvl/mxv
 BYTE   W01
 BYTE   VOL   35*TheSwan_mvl/mxv
 BYTE   W01
 BYTE   VOL   34*TheSwan_mvl/mxv
 BYTE   W01
 BYTE   VOL   34*TheSwan_mvl/mxv
 BYTE   W01
 BYTE   VOL   33*TheSwan_mvl/mxv
 BYTE   W01
 BYTE   VOL   32*TheSwan_mvl/mxv
 BYTE   W01
 BYTE   VOL   32*TheSwan_mvl/mxv
 BYTE   W01
 BYTE   VOL   32*TheSwan_mvl/mxv
 BYTE   W01
 BYTE   VOL   31*TheSwan_mvl/mxv
 BYTE   W01
 BYTE   VOL   30*TheSwan_mvl/mxv
 BYTE   W01
 BYTE   VOL   30*TheSwan_mvl/mxv
 BYTE   W01
 BYTE   VOL   29*TheSwan_mvl/mxv
 BYTE   W01
 BYTE   VOL   29*TheSwan_mvl/mxv
 BYTE   W01
 BYTE   VOL   28*TheSwan_mvl/mxv
 BYTE   W01
 BYTE   VOL   28*TheSwan_mvl/mxv
 BYTE   W01
 BYTE   VOL   27*TheSwan_mvl/mxv
 BYTE   W01
 BYTE   VOL   27*TheSwan_mvl/mxv
 BYTE   W01
 BYTE   VOL   26*TheSwan_mvl/mxv
 BYTE   W01
 BYTE   VOL   25*TheSwan_mvl/mxv
 BYTE   W01
 BYTE   VOL   25*TheSwan_mvl/mxv
 BYTE   W01
 BYTE   VOL   25*TheSwan_mvl/mxv
 BYTE   W01
 BYTE   VOL   24*TheSwan_mvl/mxv
 BYTE   W01
 BYTE   VOL   24*TheSwan_mvl/mxv
 BYTE   W01
 BYTE   VOL   23*TheSwan_mvl/mxv
 BYTE   W01
 BYTE   VOL   22*TheSwan_mvl/mxv
 BYTE   W01
 BYTE   VOL   22*TheSwan_mvl/mxv
 BYTE   W01
 BYTE   VOL   22*TheSwan_mvl/mxv
 BYTE   W01
 BYTE   VOL   21*TheSwan_mvl/mxv
 BYTE   W01
 BYTE   VOL   20*TheSwan_mvl/mxv
 BYTE   W01
 BYTE   VOL   20*TheSwan_mvl/mxv
 BYTE   W01
 BYTE   VOL   19*TheSwan_mvl/mxv
 BYTE   W01
 BYTE   VOL   19*TheSwan_mvl/mxv
 BYTE   W01
 BYTE   VOL   18*TheSwan_mvl/mxv
 BYTE   W01
 BYTE   VOL   18*TheSwan_mvl/mxv
 BYTE   W01
 BYTE   VOL   17*TheSwan_mvl/mxv
 BYTE   W01
 BYTE   VOL   17*TheSwan_mvl/mxv
 BYTE   W01
 BYTE   VOL   16*TheSwan_mvl/mxv
 BYTE   W01
 BYTE   VOL   16*TheSwan_mvl/mxv
 BYTE   W01
 BYTE   VOL   15*TheSwan_mvl/mxv
 BYTE   W01
 BYTE   VOL   15*TheSwan_mvl/mxv
 BYTE   W01
 BYTE   VOL   14*TheSwan_mvl/mxv
 BYTE   W01
 BYTE   VOL   14*TheSwan_mvl/mxv
 BYTE   W01
 BYTE   VOL   13*TheSwan_mvl/mxv
 BYTE   W01
 BYTE   VOL   12*TheSwan_mvl/mxv
 BYTE   W01
 BYTE   VOL   12*TheSwan_mvl/mxv
 BYTE   W01
 BYTE   VOL   12*TheSwan_mvl/mxv
 BYTE   W01
 BYTE   VOL   11*TheSwan_mvl/mxv
 BYTE   W01
 BYTE   VOL   10*TheSwan_mvl/mxv
 BYTE   W01
 BYTE   VOL   10*TheSwan_mvl/mxv
 BYTE   W01
 BYTE   VOL   9*TheSwan_mvl/mxv
 BYTE   W01
 BYTE   VOL   9*TheSwan_mvl/mxv
 BYTE   W01
 BYTE   VOL   9*TheSwan_mvl/mxv
 BYTE   W01
 BYTE   VOL   8*TheSwan_mvl/mxv
 BYTE   W68
//  #05 //007   ----------------------------------------
 BYTE   W02
 BYTE   W02
 BYTE   VOL   25*TheSwan_mvl/mxv
 BYTE   N24  Gn3
 BYTE   W01
 BYTE   VOL   26*TheSwan_mvl/mxv
 BYTE   W01
 BYTE   VOL   26*TheSwan_mvl/mxv
 BYTE   W01
 BYTE   VOL   27*TheSwan_mvl/mxv
 BYTE   W01
 BYTE   VOL   27*TheSwan_mvl/mxv
 BYTE   W01
 BYTE   VOL   28*TheSwan_mvl/mxv
 BYTE   W01
 BYTE   VOL   28*TheSwan_mvl/mxv
 BYTE   W01
 BYTE   VOL   29*TheSwan_mvl/mxv
 BYTE   W01
 BYTE   VOL   29*TheSwan_mvl/mxv
 BYTE   W01
 BYTE   VOL   29*TheSwan_mvl/mxv
 BYTE   W01
 BYTE   VOL   30*TheSwan_mvl/mxv
 BYTE   W01
 BYTE   VOL   30*TheSwan_mvl/mxv
 BYTE   W01
 BYTE   VOL   31*TheSwan_mvl/mxv
 BYTE   W01
 BYTE   VOL   31*TheSwan_mvl/mxv
 BYTE   W02
 BYTE   VOL   32*TheSwan_mvl/mxv
 BYTE   W01
 BYTE   VOL   32*TheSwan_mvl/mxv
 BYTE   W01
 BYTE   VOL   32*TheSwan_mvl/mxv
 BYTE   W01
 BYTE   VOL   33*TheSwan_mvl/mxv
 BYTE   W01
 BYTE   VOL   33*TheSwan_mvl/mxv
 BYTE   W01
 BYTE   VOL   34*TheSwan_mvl/mxv
 BYTE   W01
 BYTE   VOL   34*TheSwan_mvl/mxv
 BYTE   W01
 BYTE   VOL   35*TheSwan_mvl/mxv
 BYTE   W01
 BYTE   VOL   35*TheSwan_mvl/mxv
 BYTE   W01
 BYTE   VOL   35*TheSwan_mvl/mxv
 BYTE   N24  Fs3
 BYTE   W01
 BYTE   VOL   36*TheSwan_mvl/mxv
 BYTE   W01
 BYTE   VOL   36*TheSwan_mvl/mxv
 BYTE   W01
 BYTE   VOL   37*TheSwan_mvl/mxv
 BYTE   W02
 BYTE   VOL   37*TheSwan_mvl/mxv
 BYTE   W01
 BYTE   VOL   38*TheSwan_mvl/mxv
 BYTE   W01
 BYTE   VOL   38*TheSwan_mvl/mxv
 BYTE   W01
 BYTE   VOL   38*TheSwan_mvl/mxv
 BYTE   W01
 BYTE   VOL   39*TheSwan_mvl/mxv
 BYTE   W01
 BYTE   VOL   39*TheSwan_mvl/mxv
 BYTE   W01
 BYTE   VOL   40*TheSwan_mvl/mxv
 BYTE   W01
 BYTE   VOL   40*TheSwan_mvl/mxv
 BYTE   W01
 BYTE   VOL   41*TheSwan_mvl/mxv
 BYTE   W01
 BYTE   VOL   41*TheSwan_mvl/mxv
 BYTE   W01
 BYTE   VOL   42*TheSwan_mvl/mxv
 BYTE   W01
 BYTE   VOL   42*TheSwan_mvl/mxv
 BYTE   W01
 BYTE   VOL   42*TheSwan_mvl/mxv
 BYTE   W01
 BYTE   VOL   43*TheSwan_mvl/mxv
 BYTE   W02
 BYTE   VOL   43*TheSwan_mvl/mxv
 BYTE   W01
 BYTE   VOL   44*TheSwan_mvl/mxv
 BYTE   W01
 BYTE   VOL   44*TheSwan_mvl/mxv
 BYTE   W01
 BYTE   VOL   45*TheSwan_mvl/mxv
 BYTE   W01
 BYTE   VOL   45*TheSwan_mvl/mxv
 BYTE   N24  Bn2
 BYTE   W01
 BYTE   VOL   45*TheSwan_mvl/mxv
 BYTE   W01
 BYTE   VOL   46*TheSwan_mvl/mxv
 BYTE   W01
 BYTE   VOL   46*TheSwan_mvl/mxv
 BYTE   W01
 BYTE   VOL   47*TheSwan_mvl/mxv
 BYTE   W01
 BYTE   VOL   47*TheSwan_mvl/mxv
 BYTE   W01
 BYTE   VOL   48*TheSwan_mvl/mxv
 BYTE   W01
 BYTE   VOL   48*TheSwan_mvl/mxv
 BYTE   W01
 BYTE   VOL   48*TheSwan_mvl/mxv
 BYTE   W02
 BYTE   VOL   49*TheSwan_mvl/mxv
 BYTE   W01
 BYTE   VOL   49*TheSwan_mvl/mxv
 BYTE   W01
 BYTE   VOL   50*TheSwan_mvl/mxv
 BYTE   W01
 BYTE   VOL   50*TheSwan_mvl/mxv
 BYTE   W01
 BYTE   VOL   51*TheSwan_mvl/mxv
 BYTE   W01
 BYTE   VOL   51*TheSwan_mvl/mxv
 BYTE   W01
 BYTE   VOL   51*TheSwan_mvl/mxv
 BYTE   W01
 BYTE   VOL   52*TheSwan_mvl/mxv
 BYTE   W01
 BYTE   VOL   52*TheSwan_mvl/mxv
 BYTE   W01
 BYTE   VOL   53*TheSwan_mvl/mxv
 BYTE   W01
 BYTE   VOL   53*TheSwan_mvl/mxv
 BYTE   W01
 BYTE   VOL   54*TheSwan_mvl/mxv
 BYTE   W01
 BYTE   VOL   54*TheSwan_mvl/mxv
 BYTE   W02
 BYTE   VOL   55*TheSwan_mvl/mxv
 BYTE   N24  En3
 BYTE   W01
 BYTE   VOL   54*TheSwan_mvl/mxv
 BYTE   W02
 BYTE   VOL   54*TheSwan_mvl/mxv
 BYTE   W01
 BYTE   VOL   53*TheSwan_mvl/mxv
 BYTE   W02
 BYTE   VOL   53*TheSwan_mvl/mxv
 BYTE   W01
 BYTE   VOL   52*TheSwan_mvl/mxv
 BYTE   W02
 BYTE   VOL   52*TheSwan_mvl/mxv
 BYTE   W01
 BYTE   VOL   51*TheSwan_mvl/mxv
 BYTE   W02
 BYTE   VOL   51*TheSwan_mvl/mxv
 BYTE   W01
 BYTE   VOL   51*TheSwan_mvl/mxv
 BYTE   W02
 BYTE   VOL   50*TheSwan_mvl/mxv
 BYTE   W01
 BYTE   VOL   50*TheSwan_mvl/mxv
 BYTE   W02
 BYTE   VOL   49*TheSwan_mvl/mxv
 BYTE   W01
 BYTE   VOL   49*TheSwan_mvl/mxv
 BYTE   W02
//  #05 //008   ----------------------------------------
 BYTE   VOL   48*TheSwan_mvl/mxv
 BYTE   W01
 BYTE   VOL   48*TheSwan_mvl/mxv
 BYTE   W02
 BYTE   VOL   48*TheSwan_mvl/mxv
 BYTE   N24  Dn3
 BYTE   W02
 BYTE   VOL   47*TheSwan_mvl/mxv
 BYTE   W01
 BYTE   VOL   47*TheSwan_mvl/mxv
 BYTE   W02
 BYTE   VOL   46*TheSwan_mvl/mxv
 BYTE   W01
 BYTE   VOL   46*TheSwan_mvl/mxv
 BYTE   W02
 BYTE   VOL   45*TheSwan_mvl/mxv
 BYTE   W01
 BYTE   VOL   45*TheSwan_mvl/mxv
 BYTE   W02
 BYTE   VOL   45*TheSwan_mvl/mxv
 BYTE   W01
 BYTE   VOL   44*TheSwan_mvl/mxv
 BYTE   W02
 BYTE   VOL   44*TheSwan_mvl/mxv
 BYTE   W01
 BYTE   VOL   43*TheSwan_mvl/mxv
 BYTE   W02
 BYTE   VOL   43*TheSwan_mvl/mxv
 BYTE   W01
 BYTE   VOL   42*TheSwan_mvl/mxv
 BYTE   W02
 BYTE   VOL   42*TheSwan_mvl/mxv
 BYTE   W01
 BYTE   VOL   42*TheSwan_mvl/mxv
 BYTE   W02
 BYTE   VOL   41*TheSwan_mvl/mxv
 BYTE   W01
 BYTE   N24  Gn2
 BYTE   W01
 BYTE   VOL   41*TheSwan_mvl/mxv
 BYTE   W01
 BYTE   VOL   40*TheSwan_mvl/mxv
 BYTE   W02
 BYTE   VOL   40*TheSwan_mvl/mxv
 BYTE   W01
 BYTE   VOL   39*TheSwan_mvl/mxv
 BYTE   W02
 BYTE   VOL   39*TheSwan_mvl/mxv
 BYTE   W01
 BYTE   VOL   38*TheSwan_mvl/mxv
 BYTE   W02
 BYTE   VOL   38*TheSwan_mvl/mxv
 BYTE   W01
 BYTE   VOL   38*TheSwan_mvl/mxv
 BYTE   W02
 BYTE   VOL   37*TheSwan_mvl/mxv
 BYTE   W01
 BYTE   VOL   37*TheSwan_mvl/mxv
 BYTE   W02
 BYTE   VOL   36*TheSwan_mvl/mxv
 BYTE   W01
 BYTE   VOL   36*TheSwan_mvl/mxv
 BYTE   W02
 BYTE   VOL   35*TheSwan_mvl/mxv
 BYTE   W01
 BYTE   VOL   35*TheSwan_mvl/mxv
 BYTE   W02
 BYTE   VOL   35*TheSwan_mvl/mxv
 BYTE   W02
 BYTE   VOL   34*TheSwan_mvl/mxv
 BYTE   N56  As2
 BYTE   W01
 BYTE   VOL   35*TheSwan_mvl/mxv
 BYTE   W01
 BYTE   VOL   35*TheSwan_mvl/mxv
 BYTE   W01
 BYTE   VOL   35*TheSwan_mvl/mxv
 BYTE   W01
 BYTE   VOL   36*TheSwan_mvl/mxv
 BYTE   W01
 BYTE   VOL   36*TheSwan_mvl/mxv
 BYTE   W01
 BYTE   VOL   37*TheSwan_mvl/mxv
 BYTE   W01
 BYTE   VOL   37*TheSwan_mvl/mxv
 BYTE   W01
 BYTE   VOL   38*TheSwan_mvl/mxv
 BYTE   W01
 BYTE   VOL   38*TheSwan_mvl/mxv
 BYTE   W01
 BYTE   VOL   38*TheSwan_mvl/mxv
 BYTE   W01
 BYTE   VOL   39*TheSwan_mvl/mxv
 BYTE   W01
 BYTE   VOL   39*TheSwan_mvl/mxv
 BYTE   W01
 BYTE   VOL   40*TheSwan_mvl/mxv
 BYTE   W01
 BYTE   VOL   40*TheSwan_mvl/mxv
 BYTE   W01
 BYTE   VOL   41*TheSwan_mvl/mxv
 BYTE   W01
 BYTE   VOL   41*TheSwan_mvl/mxv
 BYTE   W01
 BYTE   VOL   42*TheSwan_mvl/mxv
 BYTE   W01
 BYTE   VOL   42*TheSwan_mvl/mxv
 BYTE   W01
 BYTE   VOL   42*TheSwan_mvl/mxv
 BYTE   W01
 BYTE   VOL   43*TheSwan_mvl/mxv
 BYTE   W01
 BYTE   VOL   43*TheSwan_mvl/mxv
 BYTE   W01
 BYTE   VOL   44*TheSwan_mvl/mxv
 BYTE   W01
 BYTE   VOL   44*TheSwan_mvl/mxv
 BYTE   W01
 BYTE   VOL   45*TheSwan_mvl/mxv
 BYTE   W01
 BYTE   VOL   45*TheSwan_mvl/mxv
 BYTE   W01
 BYTE   VOL   45*TheSwan_mvl/mxv
 BYTE   W01
 BYTE   VOL   46*TheSwan_mvl/mxv
 BYTE   W01
 BYTE   VOL   46*TheSwan_mvl/mxv
 BYTE   W01
 BYTE   VOL   47*TheSwan_mvl/mxv
 BYTE   W01
 BYTE   VOL   47*TheSwan_mvl/mxv
 BYTE   W01
 BYTE   VOL   48*TheSwan_mvl/mxv
 BYTE   W01
 BYTE   VOL   48*TheSwan_mvl/mxv
 BYTE   W01
 BYTE   VOL   48*TheSwan_mvl/mxv
 BYTE   W01
 BYTE   VOL   49*TheSwan_mvl/mxv
 BYTE   W01
 BYTE   VOL   49*TheSwan_mvl/mxv
 BYTE   W01
 BYTE   VOL   50*TheSwan_mvl/mxv
 BYTE   W01
 BYTE   VOL   50*TheSwan_mvl/mxv
 BYTE   W01
 BYTE   VOL   51*TheSwan_mvl/mxv
 BYTE   W01
 BYTE   VOL   51*TheSwan_mvl/mxv
 BYTE   W01
 BYTE   VOL   51*TheSwan_mvl/mxv
 BYTE   W01
 BYTE   VOL   52*TheSwan_mvl/mxv
 BYTE   W01
 BYTE   VOL   52*TheSwan_mvl/mxv
 BYTE   W01
 BYTE   VOL   53*TheSwan_mvl/mxv
 BYTE   W01
 BYTE   VOL   53*TheSwan_mvl/mxv
 BYTE   W01
//  #05 //009   ----------------------------------------
 BYTE   VOL   54*TheSwan_mvl/mxv
 BYTE   W01
 BYTE   VOL   54*TheSwan_mvl/mxv
 BYTE   W02
 BYTE   VOL   55*TheSwan_mvl/mxv
 BYTE   W01
 BYTE   VOL   54*TheSwan_mvl/mxv
 BYTE   W01
 BYTE   VOL   54*TheSwan_mvl/mxv
 BYTE   W01
 BYTE   VOL   53*TheSwan_mvl/mxv
 BYTE   W01
 BYTE   VOL   53*TheSwan_mvl/mxv
 BYTE   W02
 BYTE   VOL   52*TheSwan_mvl/mxv
 BYTE   W01
 BYTE   VOL   52*TheSwan_mvl/mxv
 BYTE   W01
 BYTE   VOL   51*TheSwan_mvl/mxv
 BYTE   W01
 BYTE   VOL   51*TheSwan_mvl/mxv
 BYTE   W02
 BYTE   VOL   51*TheSwan_mvl/mxv
 BYTE   W01
 BYTE   VOL   50*TheSwan_mvl/mxv
 BYTE   N11  Bn2
 BYTE   W01
 BYTE   VOL   50*TheSwan_mvl/mxv
 BYTE   W01
 BYTE   VOL   49*TheSwan_mvl/mxv
 BYTE   W02
 BYTE   VOL   49*TheSwan_mvl/mxv
 BYTE   W01
 BYTE   VOL   48*TheSwan_mvl/mxv
 BYTE   W01
 BYTE   VOL   48*TheSwan_mvl/mxv
 BYTE   W01
 BYTE   VOL   48*TheSwan_mvl/mxv
 BYTE   W02
 BYTE   VOL   47*TheSwan_mvl/mxv
 BYTE   W01
 BYTE   VOL   47*TheSwan_mvl/mxv
 BYTE   W01
 BYTE   VOL   46*TheSwan_mvl/mxv
 BYTE   W01
 BYTE   VOL   46*TheSwan_mvl/mxv
 BYTE   N66  Cs3
 BYTE   W02
 BYTE   VOL   45*TheSwan_mvl/mxv
 BYTE   W01
 BYTE   VOL   45*TheSwan_mvl/mxv
 BYTE   W01
 BYTE   VOL   45*TheSwan_mvl/mxv
 BYTE   W01
 BYTE   VOL   44*TheSwan_mvl/mxv
 BYTE   W02
 BYTE   VOL   44*TheSwan_mvl/mxv
 BYTE   W01
 BYTE   VOL   43*TheSwan_mvl/mxv
 BYTE   W01
 BYTE   VOL   43*TheSwan_mvl/mxv
 BYTE   W01
 BYTE   VOL   42*TheSwan_mvl/mxv
 BYTE   W02
 BYTE   VOL   42*TheSwan_mvl/mxv
 BYTE   W01
 BYTE   VOL   42*TheSwan_mvl/mxv
 BYTE   W01
 BYTE   VOL   41*TheSwan_mvl/mxv
 BYTE   W01
 BYTE   VOL   41*TheSwan_mvl/mxv
 BYTE   W02
 BYTE   VOL   40*TheSwan_mvl/mxv
 BYTE   W01
 BYTE   VOL   40*TheSwan_mvl/mxv
 BYTE   W01
 BYTE   VOL   39*TheSwan_mvl/mxv
 BYTE   W01
 BYTE   VOL   39*TheSwan_mvl/mxv
 BYTE   W02
 BYTE   VOL   38*TheSwan_mvl/mxv
 BYTE   W01
 BYTE   VOL   38*TheSwan_mvl/mxv
 BYTE   W01
 BYTE   VOL   38*TheSwan_mvl/mxv
 BYTE   W01
 BYTE   VOL   37*TheSwan_mvl/mxv
 BYTE   W02
 BYTE   VOL   37*TheSwan_mvl/mxv
 BYTE   W01
 BYTE   VOL   36*TheSwan_mvl/mxv
 BYTE   W01
 BYTE   VOL   36*TheSwan_mvl/mxv
 BYTE   W01
 BYTE   VOL   35*TheSwan_mvl/mxv
 BYTE   W02
 BYTE   VOL   35*TheSwan_mvl/mxv
 BYTE   W01
 BYTE   VOL   35*TheSwan_mvl/mxv
 BYTE   W01
 BYTE   VOL   34*TheSwan_mvl/mxv
 BYTE   W01
 BYTE   VOL   34*TheSwan_mvl/mxv
 BYTE   W02
 BYTE   VOL   33*TheSwan_mvl/mxv
 BYTE   W01
 BYTE   VOL   33*TheSwan_mvl/mxv
 BYTE   W01
 BYTE   VOL   32*TheSwan_mvl/mxv
 BYTE   W01
 BYTE   VOL   32*TheSwan_mvl/mxv
 BYTE   W02
 BYTE   VOL   32*TheSwan_mvl/mxv
 BYTE   W01
 BYTE   VOL   31*TheSwan_mvl/mxv
 BYTE   W01
 BYTE   VOL   31*TheSwan_mvl/mxv
 BYTE   W01
 BYTE   VOL   30*TheSwan_mvl/mxv
 BYTE   W02
 BYTE   VOL   30*TheSwan_mvl/mxv
 BYTE   W01
 BYTE   VOL   29*TheSwan_mvl/mxv
 BYTE   W01
 BYTE   VOL   29*TheSwan_mvl/mxv
 BYTE   W01
 BYTE   VOL   29*TheSwan_mvl/mxv
 BYTE   W02
 BYTE   VOL   28*TheSwan_mvl/mxv
 BYTE   W01
 BYTE   VOL   28*TheSwan_mvl/mxv
 BYTE   W01
 BYTE   VOL   27*TheSwan_mvl/mxv
 BYTE   W01
 BYTE   VOL   27*TheSwan_mvl/mxv
 BYTE   W02
 BYTE   VOL   26*TheSwan_mvl/mxv
 BYTE   W01
 BYTE   VOL   26*TheSwan_mvl/mxv
 BYTE   W01
 BYTE   VOL   25*TheSwan_mvl/mxv
 BYTE   W01
 BYTE   VOL   25*TheSwan_mvl/mxv
 BYTE   W02
 BYTE   VOL   25*TheSwan_mvl/mxv
 BYTE   W01
 BYTE   VOL   24*TheSwan_mvl/mxv
 BYTE   W01
 BYTE   VOL   24*TheSwan_mvl/mxv
 BYTE   W01
 BYTE   VOL   23*TheSwan_mvl/mxv
 BYTE   W02
 BYTE   VOL   23*TheSwan_mvl/mxv
 BYTE   W01
 BYTE   VOL   22*TheSwan_mvl/mxv
 BYTE   W01
//  #05 //010   ----------------------------------------
 BYTE   VOL   22*TheSwan_mvl/mxv
 BYTE   W01
 BYTE   VOL   22*TheSwan_mvl/mxv
 BYTE   W02
 BYTE   VOL   25*TheSwan_mvl/mxv
 BYTE   N32  Fs2
 BYTE   W01
 BYTE   VOL   26*TheSwan_mvl/mxv
 BYTE   W02
 BYTE   VOL   26*TheSwan_mvl/mxv
 BYTE   W02
 BYTE   VOL   27*TheSwan_mvl/mxv
 BYTE   W01
 BYTE   VOL   27*TheSwan_mvl/mxv
 BYTE   W02
 BYTE   VOL   28*TheSwan_mvl/mxv
 BYTE   W02
 BYTE   VOL   28*TheSwan_mvl/mxv
 BYTE   W01
 BYTE   VOL   29*TheSwan_mvl/mxv
 BYTE   W02
 BYTE   VOL   29*TheSwan_mvl/mxv
 BYTE   W02
 BYTE   VOL   29*TheSwan_mvl/mxv
 BYTE   W01
 BYTE   VOL   30*TheSwan_mvl/mxv
 BYTE   W02
 BYTE   VOL   30*TheSwan_mvl/mxv
 BYTE   W02
 BYTE   VOL   31*TheSwan_mvl/mxv
 BYTE   W01
 BYTE   VOL   31*TheSwan_mvl/mxv
 BYTE   W02
 BYTE   VOL   32*TheSwan_mvl/mxv
 BYTE   W02
 BYTE   VOL   32*TheSwan_mvl/mxv
 BYTE   W01
 BYTE   VOL   32*TheSwan_mvl/mxv
 BYTE   W02
 BYTE   VOL   33*TheSwan_mvl/mxv
 BYTE   W02
 BYTE   VOL   33*TheSwan_mvl/mxv
 BYTE   W02
 BYTE   VOL   34*TheSwan_mvl/mxv
 BYTE   W01
 BYTE   VOL   34*TheSwan_mvl/mxv
 BYTE   W02
 BYTE   VOL   35*TheSwan_mvl/mxv
 BYTE   W01
 BYTE   N12  Gs2
 BYTE   W01
 BYTE   VOL   35*TheSwan_mvl/mxv
 BYTE   W01
 BYTE   VOL   35*TheSwan_mvl/mxv
 BYTE   W02
 BYTE   VOL   36*TheSwan_mvl/mxv
 BYTE   W02
 BYTE   VOL   36*TheSwan_mvl/mxv
 BYTE   W01
 BYTE   VOL   37*TheSwan_mvl/mxv
 BYTE   W02
 BYTE   VOL   37*TheSwan_mvl/mxv
 BYTE   W02
 BYTE   VOL   38*TheSwan_mvl/mxv
 BYTE   W01
 BYTE   VOL   38*TheSwan_mvl/mxv
 BYTE   N11  As2
 BYTE   W02
 BYTE   VOL   38*TheSwan_mvl/mxv
 BYTE   W02
 BYTE   VOL   39*TheSwan_mvl/mxv
 BYTE   W01
 BYTE   VOL   39*TheSwan_mvl/mxv
 BYTE   W02
 BYTE   VOL   40*TheSwan_mvl/mxv
 BYTE   W02
 BYTE   VOL   40*TheSwan_mvl/mxv
 BYTE   W01
 BYTE   VOL   41*TheSwan_mvl/mxv
 BYTE   W02
 BYTE   VOL   41*TheSwan_mvl/mxv
 BYTE   N12  Bn2
 BYTE   W02
 BYTE   VOL   42*TheSwan_mvl/mxv
 BYTE   W02
 BYTE   VOL   42*TheSwan_mvl/mxv
 BYTE   W01
 BYTE   VOL   42*TheSwan_mvl/mxv
 BYTE   W02
 BYTE   VOL   43*TheSwan_mvl/mxv
 BYTE   W02
 BYTE   VOL   43*TheSwan_mvl/mxv
 BYTE   W01
 BYTE   VOL   44*TheSwan_mvl/mxv
 BYTE   W02
 BYTE   VOL   44*TheSwan_mvl/mxv
 BYTE   N11  Cs3
 BYTE   W02
 BYTE   VOL   45*TheSwan_mvl/mxv
 BYTE   W01
 BYTE   VOL   45*TheSwan_mvl/mxv
 BYTE   W02
 BYTE   VOL   45*TheSwan_mvl/mxv
 BYTE   W02
 BYTE   VOL   46*TheSwan_mvl/mxv
 BYTE   W01
 BYTE   VOL   46*TheSwan_mvl/mxv
 BYTE   W02
 BYTE   VOL   47*TheSwan_mvl/mxv
 BYTE   W02
 BYTE   VOL   47*TheSwan_mvl/mxv
 BYTE   N12  Dn3
 BYTE   W01
 BYTE   VOL   48*TheSwan_mvl/mxv
 BYTE   W02
 BYTE   VOL   48*TheSwan_mvl/mxv
 BYTE   W02
 BYTE   VOL   48*TheSwan_mvl/mxv
 BYTE   W01
 BYTE   VOL   49*TheSwan_mvl/mxv
 BYTE   W02
 BYTE   VOL   49*TheSwan_mvl/mxv
 BYTE   W02
//  #05 //011   ----------------------------------------
 BYTE   VOL   50*TheSwan_mvl/mxv
 BYTE   W02
 BYTE   VOL   50*TheSwan_mvl/mxv
 BYTE   N11  En3
 BYTE   W04
 BYTE   VOL   50*TheSwan_mvl/mxv
 BYTE   W05
 BYTE   VOL   49*TheSwan_mvl/mxv
 BYTE   W03
 BYTE   N12  Fs3
 BYTE   W02
 BYTE   VOL   49*TheSwan_mvl/mxv
 BYTE   W05
 BYTE   VOL   48*TheSwan_mvl/mxv
 BYTE   W05
 BYTE   VOL   48*TheSwan_mvl/mxv
 BYTE   N11  Gs3
 BYTE   W04
 BYTE   VOL   48*TheSwan_mvl/mxv
 BYTE   W05
 BYTE   VOL   47*TheSwan_mvl/mxv
 BYTE   W03
 BYTE   N12  As3
 BYTE   W02
 BYTE   VOL   47*TheSwan_mvl/mxv
 BYTE   W05
 BYTE   VOL   46*TheSwan_mvl/mxv
 BYTE   W03
 BYTE   W02
 BYTE   VOL   45*TheSwan_mvl/mxv
 BYTE   N80  Dn4
 BYTE   W01
 BYTE   VOL   45*TheSwan_mvl/mxv
 BYTE   W01
 BYTE   VOL   45*TheSwan_mvl/mxv
 BYTE   W01
 BYTE   VOL   44*TheSwan_mvl/mxv
 BYTE   W01
 BYTE   VOL   43*TheSwan_mvl/mxv
 BYTE   W01
 BYTE   VOL   43*TheSwan_mvl/mxv
 BYTE   W01
 BYTE   VOL   42*TheSwan_mvl/mxv
 BYTE   W01
 BYTE   VOL   42*TheSwan_mvl/mxv
 BYTE   W01
 BYTE   VOL   42*TheSwan_mvl/mxv
 BYTE   W01
 BYTE   VOL   41*TheSwan_mvl/mxv
 BYTE   W01
 BYTE   VOL   40*TheSwan_mvl/mxv
 BYTE   W01
 BYTE   VOL   40*TheSwan_mvl/mxv
 BYTE   W01
 BYTE   VOL   39*TheSwan_mvl/mxv
 BYTE   W01
 BYTE   VOL   39*TheSwan_mvl/mxv
 BYTE   W01
 BYTE   VOL   38*TheSwan_mvl/mxv
 BYTE   W01
 BYTE   VOL   38*TheSwan_mvl/mxv
 BYTE   W01
 BYTE   VOL   37*TheSwan_mvl/mxv
 BYTE   W01
 BYTE   VOL   37*TheSwan_mvl/mxv
 BYTE   W01
 BYTE   VOL   36*TheSwan_mvl/mxv
 BYTE   W01
 BYTE   VOL   35*TheSwan_mvl/mxv
 BYTE   W01
 BYTE   VOL   35*TheSwan_mvl/mxv
 BYTE   W01
 BYTE   VOL   35*TheSwan_mvl/mxv
 BYTE   W01
 BYTE   VOL   34*TheSwan_mvl/mxv
 BYTE   W01
 BYTE   VOL   34*TheSwan_mvl/mxv
 BYTE   W01
 BYTE   VOL   33*TheSwan_mvl/mxv
 BYTE   W01
 BYTE   VOL   32*TheSwan_mvl/mxv
 BYTE   W01
 BYTE   VOL   32*TheSwan_mvl/mxv
 BYTE   W01
 BYTE   VOL   32*TheSwan_mvl/mxv
 BYTE   W01
 BYTE   VOL   31*TheSwan_mvl/mxv
 BYTE   W01
 BYTE   VOL   30*TheSwan_mvl/mxv
 BYTE   W01
 BYTE   VOL   30*TheSwan_mvl/mxv
 BYTE   W01
 BYTE   VOL   29*TheSwan_mvl/mxv
 BYTE   W01
 BYTE   VOL   29*TheSwan_mvl/mxv
 BYTE   W01
 BYTE   VOL   28*TheSwan_mvl/mxv
 BYTE   W01
 BYTE   VOL   28*TheSwan_mvl/mxv
 BYTE   W01
 BYTE   VOL   27*TheSwan_mvl/mxv
 BYTE   W01
 BYTE   VOL   27*TheSwan_mvl/mxv
 BYTE   W01
 BYTE   VOL   26*TheSwan_mvl/mxv
 BYTE   W01
 BYTE   VOL   25*TheSwan_mvl/mxv
 BYTE   W01
 BYTE   VOL   25*TheSwan_mvl/mxv
 BYTE   W01
 BYTE   VOL   25*TheSwan_mvl/mxv
 BYTE   W01
 BYTE   VOL   24*TheSwan_mvl/mxv
 BYTE   W01
 BYTE   VOL   24*TheSwan_mvl/mxv
 BYTE   W01
 BYTE   VOL   23*TheSwan_mvl/mxv
 BYTE   W01
 BYTE   VOL   22*TheSwan_mvl/mxv
 BYTE   W01
 BYTE   VOL   22*TheSwan_mvl/mxv
 BYTE   W01
//  #05 //012   ----------------------------------------
 BYTE   VOL   22*TheSwan_mvl/mxv
 BYTE   W01
 BYTE   VOL   21*TheSwan_mvl/mxv
 BYTE   W01
 BYTE   VOL   20*TheSwan_mvl/mxv
 BYTE   W01
 BYTE   VOL   20*TheSwan_mvl/mxv
 BYTE   W01
 BYTE   VOL   19*TheSwan_mvl/mxv
 BYTE   W01
 BYTE   VOL   19*TheSwan_mvl/mxv
 BYTE   W01
 BYTE   VOL   18*TheSwan_mvl/mxv
 BYTE   W01
 BYTE   VOL   18*TheSwan_mvl/mxv
 BYTE   W01
 BYTE   VOL   17*TheSwan_mvl/mxv
 BYTE   W01
 BYTE   VOL   17*TheSwan_mvl/mxv
 BYTE   W01
 BYTE   VOL   16*TheSwan_mvl/mxv
 BYTE   W01
 BYTE   VOL   16*TheSwan_mvl/mxv
 BYTE   W01
 BYTE   VOL   15*TheSwan_mvl/mxv
 BYTE   W01
 BYTE   VOL   15*TheSwan_mvl/mxv
 BYTE   W01
 BYTE   VOL   14*TheSwan_mvl/mxv
 BYTE   W01
 BYTE   VOL   14*TheSwan_mvl/mxv
 BYTE   W01
 BYTE   VOL   13*TheSwan_mvl/mxv
 BYTE   W01
 BYTE   VOL   12*TheSwan_mvl/mxv
 BYTE   W01
 BYTE   VOL   12*TheSwan_mvl/mxv
 BYTE   W01
 BYTE   VOL   12*TheSwan_mvl/mxv
 BYTE   W01
 BYTE   VOL   11*TheSwan_mvl/mxv
 BYTE   W01
 BYTE   VOL   10*TheSwan_mvl/mxv
 BYTE   W01
 BYTE   VOL   10*TheSwan_mvl/mxv
 BYTE   W01
 BYTE   VOL   9*TheSwan_mvl/mxv
 BYTE   W01
 BYTE   VOL   9*TheSwan_mvl/mxv
 BYTE   W01
 BYTE   VOL   9*TheSwan_mvl/mxv
 BYTE   W01
 BYTE   VOL   8*TheSwan_mvl/mxv
 BYTE   W68
 BYTE   W02
//  #05 //013   ----------------------------------------
 BYTE   W02
 BYTE   VOL   30*TheSwan_mvl/mxv
 BYTE   N24
 BYTE   W01
 BYTE   VOL   30*TheSwan_mvl/mxv
 BYTE   W01
 BYTE   VOL   31*TheSwan_mvl/mxv
 BYTE   W01
 BYTE   VOL   31*TheSwan_mvl/mxv
 BYTE   W02
 BYTE   VOL   32*TheSwan_mvl/mxv
 BYTE   W01
 BYTE   VOL   32*TheSwan_mvl/mxv
 BYTE   W01
 BYTE   VOL   32*TheSwan_mvl/mxv
 BYTE   W01
 BYTE   VOL   33*TheSwan_mvl/mxv
 BYTE   W02
 BYTE   VOL   33*TheSwan_mvl/mxv
 BYTE   W01
 BYTE   VOL   34*TheSwan_mvl/mxv
 BYTE   W01
 BYTE   VOL   34*TheSwan_mvl/mxv
 BYTE   W01
 BYTE   VOL   35*TheSwan_mvl/mxv
 BYTE   W02
 BYTE   VOL   35*TheSwan_mvl/mxv
 BYTE   W01
 BYTE   VOL   35*TheSwan_mvl/mxv
 BYTE   W01
 BYTE   VOL   36*TheSwan_mvl/mxv
 BYTE   W01
 BYTE   VOL   36*TheSwan_mvl/mxv
 BYTE   W02
 BYTE   VOL   37*TheSwan_mvl/mxv
 BYTE   W01
 BYTE   VOL   37*TheSwan_mvl/mxv
 BYTE   W01
 BYTE   VOL   38*TheSwan_mvl/mxv
 BYTE   W01
 BYTE   VOL   38*TheSwan_mvl/mxv
 BYTE   W01
 BYTE   N24  Bn3
 BYTE   W01
 BYTE   VOL   38*TheSwan_mvl/mxv
 BYTE   W01
 BYTE   VOL   39*TheSwan_mvl/mxv
 BYTE   W01
 BYTE   VOL   39*TheSwan_mvl/mxv
 BYTE   W02
 BYTE   VOL   40*TheSwan_mvl/mxv
 BYTE   W01
 BYTE   VOL   40*TheSwan_mvl/mxv
 BYTE   W01
 BYTE   VOL   41*TheSwan_mvl/mxv
 BYTE   W01
 BYTE   VOL   41*TheSwan_mvl/mxv
 BYTE   W02
 BYTE   VOL   42*TheSwan_mvl/mxv
 BYTE   W01
 BYTE   VOL   42*TheSwan_mvl/mxv
 BYTE   W01
 BYTE   VOL   42*TheSwan_mvl/mxv
 BYTE   W01
 BYTE   VOL   43*TheSwan_mvl/mxv
 BYTE   W02
 BYTE   VOL   43*TheSwan_mvl/mxv
 BYTE   W01
 BYTE   VOL   44*TheSwan_mvl/mxv
 BYTE   W01
 BYTE   VOL   44*TheSwan_mvl/mxv
 BYTE   W01
 BYTE   VOL   45*TheSwan_mvl/mxv
 BYTE   W02
 BYTE   VOL   45*TheSwan_mvl/mxv
 BYTE   W01
 BYTE   VOL   45*TheSwan_mvl/mxv
 BYTE   W01
 BYTE   VOL   46*TheSwan_mvl/mxv
 BYTE   W01
 BYTE   VOL   46*TheSwan_mvl/mxv
 BYTE   W01
 BYTE   N24  Gn3
 BYTE   W01
 BYTE   VOL   47*TheSwan_mvl/mxv
 BYTE   W01
 BYTE   VOL   47*TheSwan_mvl/mxv
 BYTE   W01
 BYTE   VOL   48*TheSwan_mvl/mxv
 BYTE   W02
 BYTE   VOL   48*TheSwan_mvl/mxv
 BYTE   W01
 BYTE   VOL   48*TheSwan_mvl/mxv
 BYTE   W01
 BYTE   VOL   49*TheSwan_mvl/mxv
 BYTE   W01
 BYTE   VOL   49*TheSwan_mvl/mxv
 BYTE   W02
 BYTE   VOL   50*TheSwan_mvl/mxv
 BYTE   W01
 BYTE   VOL   50*TheSwan_mvl/mxv
 BYTE   W01
 BYTE   VOL   51*TheSwan_mvl/mxv
 BYTE   W01
 BYTE   VOL   51*TheSwan_mvl/mxv
 BYTE   W02
 BYTE   VOL   51*TheSwan_mvl/mxv
 BYTE   W01
 BYTE   VOL   52*TheSwan_mvl/mxv
 BYTE   W01
 BYTE   VOL   52*TheSwan_mvl/mxv
 BYTE   W01
 BYTE   VOL   53*TheSwan_mvl/mxv
 BYTE   W02
 BYTE   VOL   53*TheSwan_mvl/mxv
 BYTE   W01
 BYTE   VOL   54*TheSwan_mvl/mxv
 BYTE   W01
 BYTE   VOL   54*TheSwan_mvl/mxv
 BYTE   W02
 BYTE   VOL   55*TheSwan_mvl/mxv
 BYTE   N24  En3
 BYTE   W01
 BYTE   VOL   54*TheSwan_mvl/mxv
 BYTE   W01
 BYTE   VOL   54*TheSwan_mvl/mxv
 BYTE   W01
 BYTE   VOL   53*TheSwan_mvl/mxv
 BYTE   W02
 BYTE   VOL   53*TheSwan_mvl/mxv
 BYTE   W01
 BYTE   VOL   52*TheSwan_mvl/mxv
 BYTE   W01
 BYTE   VOL   52*TheSwan_mvl/mxv
 BYTE   W01
 BYTE   VOL   51*TheSwan_mvl/mxv
 BYTE   W02
 BYTE   VOL   51*TheSwan_mvl/mxv
 BYTE   W01
 BYTE   VOL   51*TheSwan_mvl/mxv
 BYTE   W01
 BYTE   VOL   50*TheSwan_mvl/mxv
 BYTE   W01
 BYTE   VOL   50*TheSwan_mvl/mxv
 BYTE   W02
 BYTE   VOL   49*TheSwan_mvl/mxv
 BYTE   W01
 BYTE   VOL   49*TheSwan_mvl/mxv
 BYTE   W01
 BYTE   VOL   48*TheSwan_mvl/mxv
 BYTE   W01
 BYTE   VOL   48*TheSwan_mvl/mxv
 BYTE   W02
 BYTE   VOL   48*TheSwan_mvl/mxv
 BYTE   W01
 BYTE   VOL   47*TheSwan_mvl/mxv
 BYTE   W01
//  #05 //014   ----------------------------------------
 BYTE   VOL   47*TheSwan_mvl/mxv
 BYTE   W01
 BYTE   VOL   46*TheSwan_mvl/mxv
 BYTE   W01
 BYTE   N24  Fs3
 BYTE   W01
 BYTE   VOL   46*TheSwan_mvl/mxv
 BYTE   W01
 BYTE   VOL   45*TheSwan_mvl/mxv
 BYTE   W01
 BYTE   VOL   45*TheSwan_mvl/mxv
 BYTE   W02
 BYTE   VOL   45*TheSwan_mvl/mxv
 BYTE   W01
 BYTE   VOL   44*TheSwan_mvl/mxv
 BYTE   W01
 BYTE   VOL   44*TheSwan_mvl/mxv
 BYTE   W01
 BYTE   VOL   43*TheSwan_mvl/mxv
 BYTE   W02
 BYTE   VOL   43*TheSwan_mvl/mxv
 BYTE   W01
 BYTE   VOL   42*TheSwan_mvl/mxv
 BYTE   W01
 BYTE   VOL   42*TheSwan_mvl/mxv
 BYTE   W01
 BYTE   VOL   42*TheSwan_mvl/mxv
 BYTE   W02
 BYTE   VOL   41*TheSwan_mvl/mxv
 BYTE   W01
 BYTE   VOL   41*TheSwan_mvl/mxv
 BYTE   W01
 BYTE   VOL   40*TheSwan_mvl/mxv
 BYTE   W01
 BYTE   VOL   40*TheSwan_mvl/mxv
 BYTE   W02
 BYTE   VOL   39*TheSwan_mvl/mxv
 BYTE   W01
 BYTE   VOL   39*TheSwan_mvl/mxv
 BYTE   W01
 BYTE   VOL   38*TheSwan_mvl/mxv
 BYTE   W01
 BYTE   VOL   38*TheSwan_mvl/mxv
 BYTE   W01
 BYTE   N24  Gn3
 BYTE   W01
 BYTE   VOL   38*TheSwan_mvl/mxv
 BYTE   W01
 BYTE   VOL   37*TheSwan_mvl/mxv
 BYTE   W01
 BYTE   VOL   37*TheSwan_mvl/mxv
 BYTE   W02
 BYTE   VOL   36*TheSwan_mvl/mxv
 BYTE   W01
 BYTE   VOL   36*TheSwan_mvl/mxv
 BYTE   W01
 BYTE   VOL   35*TheSwan_mvl/mxv
 BYTE   W01
 BYTE   VOL   35*TheSwan_mvl/mxv
 BYTE   W02
 BYTE   VOL   35*TheSwan_mvl/mxv
 BYTE   W01
 BYTE   VOL   34*TheSwan_mvl/mxv
 BYTE   W01
 BYTE   VOL   34*TheSwan_mvl/mxv
 BYTE   W01
 BYTE   VOL   33*TheSwan_mvl/mxv
 BYTE   W02
 BYTE   VOL   33*TheSwan_mvl/mxv
 BYTE   W01
 BYTE   VOL   32*TheSwan_mvl/mxv
 BYTE   W01
 BYTE   VOL   32*TheSwan_mvl/mxv
 BYTE   W01
 BYTE   VOL   32*TheSwan_mvl/mxv
 BYTE   W02
 BYTE   VOL   31*TheSwan_mvl/mxv
 BYTE   W01
 BYTE   VOL   31*TheSwan_mvl/mxv
 BYTE   W01
 BYTE   VOL   30*TheSwan_mvl/mxv
 BYTE   W02
 BYTE   VOL   30*TheSwan_mvl/mxv
 BYTE   N56  Dn3
 BYTE   W01
 BYTE   VOL   31*TheSwan_mvl/mxv
 BYTE   W01
 BYTE   VOL   31*TheSwan_mvl/mxv
 BYTE   W01
 BYTE   VOL   32*TheSwan_mvl/mxv
 BYTE   W01
 BYTE   VOL   32*TheSwan_mvl/mxv
 BYTE   W01
 BYTE   VOL   33*TheSwan_mvl/mxv
 BYTE   W01
 BYTE   VOL   33*TheSwan_mvl/mxv
 BYTE   W01
 BYTE   VOL   34*TheSwan_mvl/mxv
 BYTE   W01
 BYTE   VOL   34*TheSwan_mvl/mxv
 BYTE   W01
 BYTE   VOL   35*TheSwan_mvl/mxv
 BYTE   W01
 BYTE   VOL   35*TheSwan_mvl/mxv
 BYTE   W01
 BYTE   VOL   36*TheSwan_mvl/mxv
 BYTE   W01
 BYTE   VOL   36*TheSwan_mvl/mxv
 BYTE   W01
 BYTE   VOL   37*TheSwan_mvl/mxv
 BYTE   W01
 BYTE   VOL   37*TheSwan_mvl/mxv
 BYTE   W01
 BYTE   VOL   38*TheSwan_mvl/mxv
 BYTE   W01
 BYTE   VOL   38*TheSwan_mvl/mxv
 BYTE   W01
 BYTE   VOL   39*TheSwan_mvl/mxv
 BYTE   W01
 BYTE   VOL   39*TheSwan_mvl/mxv
 BYTE   W01
 BYTE   VOL   40*TheSwan_mvl/mxv
 BYTE   W01
 BYTE   VOL   40*TheSwan_mvl/mxv
 BYTE   W01
 BYTE   VOL   41*TheSwan_mvl/mxv
 BYTE   W01
 BYTE   VOL   42*TheSwan_mvl/mxv
 BYTE   W01
 BYTE   VOL   42*TheSwan_mvl/mxv
 BYTE   W01
 BYTE   VOL   42*TheSwan_mvl/mxv
 BYTE   W01
 BYTE   VOL   43*TheSwan_mvl/mxv
 BYTE   W01
 BYTE   VOL   44*TheSwan_mvl/mxv
 BYTE   W01
 BYTE   VOL   44*TheSwan_mvl/mxv
 BYTE   W01
 BYTE   VOL   45*TheSwan_mvl/mxv
 BYTE   W01
 BYTE   VOL   45*TheSwan_mvl/mxv
 BYTE   W01
 BYTE   VOL   45*TheSwan_mvl/mxv
 BYTE   W01
 BYTE   VOL   46*TheSwan_mvl/mxv
 BYTE   W01
 BYTE   VOL   47*TheSwan_mvl/mxv
 BYTE   W01
 BYTE   VOL   47*TheSwan_mvl/mxv
 BYTE   W01
 BYTE   VOL   48*TheSwan_mvl/mxv
 BYTE   W01
 BYTE   VOL   48*TheSwan_mvl/mxv
 BYTE   W01
 BYTE   VOL   48*TheSwan_mvl/mxv
 BYTE   W01
 BYTE   VOL   49*TheSwan_mvl/mxv
 BYTE   W01
 BYTE   VOL   50*TheSwan_mvl/mxv
 BYTE   W01
 BYTE   VOL   50*TheSwan_mvl/mxv
 BYTE   W01
 BYTE   VOL   51*TheSwan_mvl/mxv
 BYTE   W01
 BYTE   VOL   51*TheSwan_mvl/mxv
 BYTE   W01
 BYTE   VOL   52*TheSwan_mvl/mxv
 BYTE   W01
 BYTE   VOL   52*TheSwan_mvl/mxv
 BYTE   W01
 BYTE   VOL   53*TheSwan_mvl/mxv
 BYTE   W01
 BYTE   VOL   53*TheSwan_mvl/mxv
 BYTE   W01
//  #05 //015   ----------------------------------------
 BYTE   VOL   54*TheSwan_mvl/mxv
 BYTE   W01
 BYTE   VOL   54*TheSwan_mvl/mxv
 BYTE   W01
 BYTE   VOL   54*TheSwan_mvl/mxv
 BYTE   W01
 BYTE   VOL   53*TheSwan_mvl/mxv
 BYTE   W01
 BYTE   VOL   53*TheSwan_mvl/mxv
 BYTE   W01
 BYTE   VOL   52*TheSwan_mvl/mxv
 BYTE   W01
 BYTE   VOL   51*TheSwan_mvl/mxv
 BYTE   W01
 BYTE   VOL   51*TheSwan_mvl/mxv
 BYTE   W01
 BYTE   VOL   50*TheSwan_mvl/mxv
 BYTE   W01
 BYTE   VOL   49*TheSwan_mvl/mxv
 BYTE   W01
 BYTE   VOL   48*TheSwan_mvl/mxv
 BYTE   W01
 BYTE   VOL   48*TheSwan_mvl/mxv
 BYTE   W01
 BYTE   VOL   47*TheSwan_mvl/mxv
 BYTE   W01
 BYTE   VOL   46*TheSwan_mvl/mxv
 BYTE   W01
 BYTE   VOL   46*TheSwan_mvl/mxv
 BYTE   N11  En3
 BYTE   W01
 BYTE   VOL   45*TheSwan_mvl/mxv
 BYTE   W01
 BYTE   VOL   44*TheSwan_mvl/mxv
 BYTE   W01
 BYTE   VOL   44*TheSwan_mvl/mxv
 BYTE   W01
 BYTE   VOL   43*TheSwan_mvl/mxv
 BYTE   W01
 BYTE   VOL   42*TheSwan_mvl/mxv
 BYTE   W01
 BYTE   VOL   42*TheSwan_mvl/mxv
 BYTE   W01
 BYTE   VOL   41*TheSwan_mvl/mxv
 BYTE   W01
 BYTE   VOL   40*TheSwan_mvl/mxv
 BYTE   W01
 BYTE   VOL   39*TheSwan_mvl/mxv
 BYTE   W01
 BYTE   VOL   39*TheSwan_mvl/mxv
 BYTE   W01
 BYTE   VOL   38*TheSwan_mvl/mxv
 BYTE   W01
 BYTE   VOL   37*TheSwan_mvl/mxv
 BYTE   N42  Fs3
 BYTE   W01
 BYTE   VOL   37*TheSwan_mvl/mxv
 BYTE   W01
 BYTE   VOL   36*TheSwan_mvl/mxv
 BYTE   W01
 BYTE   VOL   35*TheSwan_mvl/mxv
 BYTE   W01
 BYTE   VOL   35*TheSwan_mvl/mxv
 BYTE   W01
 BYTE   VOL   34*TheSwan_mvl/mxv
 BYTE   W01
 BYTE   VOL   33*TheSwan_mvl/mxv
 BYTE   W01
 BYTE   VOL   32*TheSwan_mvl/mxv
 BYTE   W01
 BYTE   VOL   32*TheSwan_mvl/mxv
 BYTE   W01
 BYTE   VOL   31*TheSwan_mvl/mxv
 BYTE   W01
 BYTE   VOL   30*TheSwan_mvl/mxv
 BYTE   W01
 BYTE   VOL   30*TheSwan_mvl/mxv
 BYTE   W01
 BYTE   VOL   29*TheSwan_mvl/mxv
 BYTE   W01
 BYTE   VOL   29*TheSwan_mvl/mxv
 BYTE   W01
 BYTE   VOL   28*TheSwan_mvl/mxv
 BYTE   W01
 BYTE   VOL   27*TheSwan_mvl/mxv
 BYTE   W01
 BYTE   VOL   26*TheSwan_mvl/mxv
 BYTE   W01
 BYTE   VOL   25*TheSwan_mvl/mxv
 BYTE   W01
 BYTE   VOL   25*TheSwan_mvl/mxv
 BYTE   W01
 BYTE   VOL   24*TheSwan_mvl/mxv
 BYTE   W01
 BYTE   VOL   23*TheSwan_mvl/mxv
 BYTE   W01
 BYTE   VOL   23*TheSwan_mvl/mxv
 BYTE   W01
 BYTE   VOL   22*TheSwan_mvl/mxv
 BYTE   W01
 BYTE   VOL   22*TheSwan_mvl/mxv
 BYTE   W01
 BYTE   VOL   21*TheSwan_mvl/mxv
 BYTE   W44
 BYTE   W02
//  #05 //016   ----------------------------------------
 BYTE   W02
 BYTE   VOL   25*TheSwan_mvl/mxv
 BYTE   N24  Cn4
 BYTE   W01
 BYTE   VOL   26*TheSwan_mvl/mxv
 BYTE   W01
 BYTE   VOL   26*TheSwan_mvl/mxv
 BYTE   W01
 BYTE   VOL   27*TheSwan_mvl/mxv
 BYTE   W02
 BYTE   VOL   27*TheSwan_mvl/mxv
 BYTE   W01
 BYTE   VOL   28*TheSwan_mvl/mxv
 BYTE   W01
 BYTE   VOL   28*TheSwan_mvl/mxv
 BYTE   W02
 BYTE   VOL   29*TheSwan_mvl/mxv
 BYTE   W01
 BYTE   VOL   29*TheSwan_mvl/mxv
 BYTE   W01
 BYTE   VOL   29*TheSwan_mvl/mxv
 BYTE   W01
 BYTE   VOL   30*TheSwan_mvl/mxv
 BYTE   W02
 BYTE   VOL   30*TheSwan_mvl/mxv
 BYTE   W01
 BYTE   VOL   31*TheSwan_mvl/mxv
 BYTE   W01
 BYTE   VOL   31*TheSwan_mvl/mxv
 BYTE   W02
 BYTE   VOL   32*TheSwan_mvl/mxv
 BYTE   W01
 BYTE   VOL   32*TheSwan_mvl/mxv
 BYTE   W01
 BYTE   VOL   32*TheSwan_mvl/mxv
 BYTE   W02
 BYTE   VOL   33*TheSwan_mvl/mxv
 BYTE   W01
 BYTE   VOL   33*TheSwan_mvl/mxv
 BYTE   W01
 BYTE   VOL   34*TheSwan_mvl/mxv
 BYTE   N24  An3
 BYTE   W01
 BYTE   VOL   34*TheSwan_mvl/mxv
 BYTE   W02
 BYTE   VOL   35*TheSwan_mvl/mxv
 BYTE   W01
 BYTE   VOL   35*TheSwan_mvl/mxv
 BYTE   W01
 BYTE   VOL   35*TheSwan_mvl/mxv
 BYTE   W02
 BYTE   VOL   36*TheSwan_mvl/mxv
 BYTE   W01
 BYTE   VOL   36*TheSwan_mvl/mxv
 BYTE   W01
 BYTE   VOL   37*TheSwan_mvl/mxv
 BYTE   W02
 BYTE   VOL   37*TheSwan_mvl/mxv
 BYTE   W01
 BYTE   VOL   38*TheSwan_mvl/mxv
 BYTE   W01
 BYTE   VOL   38*TheSwan_mvl/mxv
 BYTE   W01
 BYTE   VOL   38*TheSwan_mvl/mxv
 BYTE   W02
 BYTE   VOL   39*TheSwan_mvl/mxv
 BYTE   W01
 BYTE   VOL   39*TheSwan_mvl/mxv
 BYTE   W01
 BYTE   VOL   40*TheSwan_mvl/mxv
 BYTE   W02
 BYTE   VOL   40*TheSwan_mvl/mxv
 BYTE   W01
 BYTE   VOL   41*TheSwan_mvl/mxv
 BYTE   W01
 BYTE   VOL   41*TheSwan_mvl/mxv
 BYTE   W02
 BYTE   VOL   42*TheSwan_mvl/mxv
 BYTE   N24  Fn3
 BYTE   W01
 BYTE   VOL   41*TheSwan_mvl/mxv
 BYTE   W01
 BYTE   VOL   41*TheSwan_mvl/mxv
 BYTE   W01
 BYTE   VOL   40*TheSwan_mvl/mxv
 BYTE   W01
 BYTE   VOL   40*TheSwan_mvl/mxv
 BYTE   W01
 BYTE   VOL   39*TheSwan_mvl/mxv
 BYTE   W01
 BYTE   VOL   39*TheSwan_mvl/mxv
 BYTE   W01
 BYTE   VOL   38*TheSwan_mvl/mxv
 BYTE   W01
 BYTE   VOL   38*TheSwan_mvl/mxv
 BYTE   W01
 BYTE   VOL   38*TheSwan_mvl/mxv
 BYTE   W01
 BYTE   VOL   37*TheSwan_mvl/mxv
 BYTE   W01
 BYTE   VOL   37*TheSwan_mvl/mxv
 BYTE   W01
 BYTE   VOL   36*TheSwan_mvl/mxv
 BYTE   W01
 BYTE   VOL   36*TheSwan_mvl/mxv
 BYTE   W01
 BYTE   VOL   35*TheSwan_mvl/mxv
 BYTE   W01
 BYTE   VOL   35*TheSwan_mvl/mxv
 BYTE   W01
 BYTE   VOL   35*TheSwan_mvl/mxv
 BYTE   W01
 BYTE   VOL   34*TheSwan_mvl/mxv
 BYTE   W01
 BYTE   VOL   34*TheSwan_mvl/mxv
 BYTE   W01
 BYTE   VOL   33*TheSwan_mvl/mxv
 BYTE   W01
 BYTE   VOL   33*TheSwan_mvl/mxv
 BYTE   W01
 BYTE   VOL   32*TheSwan_mvl/mxv
 BYTE   W01
 BYTE   VOL   32*TheSwan_mvl/mxv
 BYTE   W01
 BYTE   VOL   32*TheSwan_mvl/mxv
 BYTE   W01
 BYTE   VOL   31*TheSwan_mvl/mxv
 BYTE   N24  Dn3
 BYTE   W01
 BYTE   VOL   31*TheSwan_mvl/mxv
 BYTE   W01
 BYTE   VOL   30*TheSwan_mvl/mxv
 BYTE   W01
 BYTE   VOL   30*TheSwan_mvl/mxv
 BYTE   W01
 BYTE   VOL   29*TheSwan_mvl/mxv
 BYTE   W01
 BYTE   VOL   29*TheSwan_mvl/mxv
 BYTE   W01
 BYTE   VOL   29*TheSwan_mvl/mxv
 BYTE   W01
 BYTE   VOL   28*TheSwan_mvl/mxv
 BYTE   W01
 BYTE   VOL   28*TheSwan_mvl/mxv
 BYTE   W01
 BYTE   VOL   27*TheSwan_mvl/mxv
 BYTE   W01
 BYTE   VOL   27*TheSwan_mvl/mxv
 BYTE   W01
 BYTE   VOL   26*TheSwan_mvl/mxv
 BYTE   W01
 BYTE   VOL   26*TheSwan_mvl/mxv
 BYTE   W01
 BYTE   VOL   25*TheSwan_mvl/mxv
 BYTE   W01
 BYTE   VOL   25*TheSwan_mvl/mxv
 BYTE   W01
 BYTE   VOL   25*TheSwan_mvl/mxv
 BYTE   W01
 BYTE   VOL   24*TheSwan_mvl/mxv
 BYTE   W01
 BYTE   VOL   24*TheSwan_mvl/mxv
 BYTE   W01
 BYTE   VOL   23*TheSwan_mvl/mxv
 BYTE   W01
 BYTE   VOL   23*TheSwan_mvl/mxv
 BYTE   W01
 BYTE   VOL   22*TheSwan_mvl/mxv
 BYTE   W01
 BYTE   VOL   22*TheSwan_mvl/mxv
 BYTE   W01
//  #05 //017   ----------------------------------------
 BYTE   VOL   22*TheSwan_mvl/mxv
 BYTE   W02
 BYTE   VOL   21*TheSwan_mvl/mxv
 BYTE   N24  En3
 BYTE   W01
 BYTE   VOL   22*TheSwan_mvl/mxv
 BYTE   W02
 BYTE   VOL   22*TheSwan_mvl/mxv
 BYTE   W01
 BYTE   VOL   22*TheSwan_mvl/mxv
 BYTE   W02
 BYTE   VOL   23*TheSwan_mvl/mxv
 BYTE   W01
 BYTE   VOL   23*TheSwan_mvl/mxv
 BYTE   W02
 BYTE   VOL   24*TheSwan_mvl/mxv
 BYTE   W01
 BYTE   VOL   24*TheSwan_mvl/mxv
 BYTE   W02
 BYTE   VOL   25*TheSwan_mvl/mxv
 BYTE   W01
 BYTE   VOL   25*TheSwan_mvl/mxv
 BYTE   W02
 BYTE   VOL   25*TheSwan_mvl/mxv
 BYTE   W01
 BYTE   VOL   26*TheSwan_mvl/mxv
 BYTE   W02
 BYTE   VOL   26*TheSwan_mvl/mxv
 BYTE   W01
 BYTE   VOL   27*TheSwan_mvl/mxv
 BYTE   W02
 BYTE   VOL   27*TheSwan_mvl/mxv
 BYTE   W01
 BYTE   VOL   28*TheSwan_mvl/mxv
 BYTE   W02
 BYTE   VOL   28*TheSwan_mvl/mxv
 BYTE   N24  Fn3
 BYTE   W02
 BYTE   VOL   29*TheSwan_mvl/mxv
 BYTE   W01
 BYTE   VOL   29*TheSwan_mvl/mxv
 BYTE   W02
 BYTE   VOL   29*TheSwan_mvl/mxv
 BYTE   W01
 BYTE   VOL   30*TheSwan_mvl/mxv
 BYTE   W02
 BYTE   VOL   30*TheSwan_mvl/mxv
 BYTE   W01
 BYTE   VOL   31*TheSwan_mvl/mxv
 BYTE   W02
 BYTE   VOL   31*TheSwan_mvl/mxv
 BYTE   W01
 BYTE   VOL   32*TheSwan_mvl/mxv
 BYTE   W02
 BYTE   VOL   32*TheSwan_mvl/mxv
 BYTE   W01
 BYTE   VOL   32*TheSwan_mvl/mxv
 BYTE   W02
 BYTE   VOL   33*TheSwan_mvl/mxv
 BYTE   W01
 BYTE   VOL   33*TheSwan_mvl/mxv
 BYTE   W02
 BYTE   VOL   34*TheSwan_mvl/mxv
 BYTE   W01
 BYTE   VOL   34*TheSwan_mvl/mxv
 BYTE   W01
 BYTE   W01
 BYTE   VOL   35*TheSwan_mvl/mxv
 BYTE   W01
 BYTE   N56  Cn3
 BYTE   W01
 BYTE   VOL   35*TheSwan_mvl/mxv
 BYTE   W01
 BYTE   VOL   35*TheSwan_mvl/mxv
 BYTE   W02
 BYTE   VOL   36*TheSwan_mvl/mxv
 BYTE   W01
 BYTE   VOL   36*TheSwan_mvl/mxv
 BYTE   W02
 BYTE   VOL   37*TheSwan_mvl/mxv
 BYTE   W01
 BYTE   VOL   37*TheSwan_mvl/mxv
 BYTE   W02
 BYTE   VOL   38*TheSwan_mvl/mxv
 BYTE   W01
 BYTE   VOL   38*TheSwan_mvl/mxv
 BYTE   W02
 BYTE   VOL   38*TheSwan_mvl/mxv
 BYTE   W01
 BYTE   VOL   39*TheSwan_mvl/mxv
 BYTE   W02
 BYTE   VOL   39*TheSwan_mvl/mxv
 BYTE   W01
 BYTE   VOL   40*TheSwan_mvl/mxv
 BYTE   W02
 BYTE   VOL   40*TheSwan_mvl/mxv
 BYTE   W01
 BYTE   VOL   41*TheSwan_mvl/mxv
 BYTE   W02
 BYTE   VOL   41*TheSwan_mvl/mxv
 BYTE   W02
 BYTE   VOL   42*TheSwan_mvl/mxv
 BYTE   W24
//  #05 //018   ----------------------------------------
 BYTE   VOL   42*TheSwan_mvl/mxv
 BYTE   W01
 BYTE   VOL   41*TheSwan_mvl/mxv
 BYTE   W01
 BYTE   VOL   41*TheSwan_mvl/mxv
 BYTE   W01
 BYTE   VOL   40*TheSwan_mvl/mxv
 BYTE   W02
 BYTE   VOL   40*TheSwan_mvl/mxv
 BYTE   W01
 BYTE   VOL   39*TheSwan_mvl/mxv
 BYTE   W01
 BYTE   VOL   39*TheSwan_mvl/mxv
 BYTE   W01
 BYTE   VOL   38*TheSwan_mvl/mxv
 BYTE   W02
 BYTE   VOL   38*TheSwan_mvl/mxv
 BYTE   W01
 BYTE   VOL   38*TheSwan_mvl/mxv
 BYTE   W01
 BYTE   VOL   37*TheSwan_mvl/mxv
 BYTE   N11  Dn3
 BYTE   W01
 BYTE   VOL   37*TheSwan_mvl/mxv
 BYTE   W02
 BYTE   VOL   36*TheSwan_mvl/mxv
 BYTE   W01
 BYTE   VOL   36*TheSwan_mvl/mxv
 BYTE   W01
 BYTE   VOL   35*TheSwan_mvl/mxv
 BYTE   W01
 BYTE   VOL   35*TheSwan_mvl/mxv
 BYTE   W02
 BYTE   VOL   35*TheSwan_mvl/mxv
 BYTE   W01
 BYTE   VOL   34*TheSwan_mvl/mxv
 BYTE   W01
 BYTE   VOL   34*TheSwan_mvl/mxv
 BYTE   W01
 BYTE   VOL   33*TheSwan_mvl/mxv
 BYTE   W01
 BYTE   N42  En3
 BYTE   W01
 BYTE   VOL   33*TheSwan_mvl/mxv
 BYTE   W01
 BYTE   VOL   32*TheSwan_mvl/mxv
 BYTE   W01
 BYTE   VOL   32*TheSwan_mvl/mxv
 BYTE   W02
 BYTE   VOL   32*TheSwan_mvl/mxv
 BYTE   W01
 BYTE   VOL   31*TheSwan_mvl/mxv
 BYTE   W01
 BYTE   VOL   31*TheSwan_mvl/mxv
 BYTE   W01
 BYTE   VOL   30*TheSwan_mvl/mxv
 BYTE   W02
 BYTE   VOL   30*TheSwan_mvl/mxv
 BYTE   W01
 BYTE   VOL   29*TheSwan_mvl/mxv
 BYTE   W01
 BYTE   VOL   29*TheSwan_mvl/mxv
 BYTE   W01
 BYTE   VOL   29*TheSwan_mvl/mxv
 BYTE   W02
 BYTE   VOL   28*TheSwan_mvl/mxv
 BYTE   W01
 BYTE   VOL   28*TheSwan_mvl/mxv
 BYTE   W01
 BYTE   VOL   27*TheSwan_mvl/mxv
 BYTE   W01
 BYTE   VOL   27*TheSwan_mvl/mxv
 BYTE   W02
 BYTE   VOL   26*TheSwan_mvl/mxv
 BYTE   W01
 BYTE   VOL   26*TheSwan_mvl/mxv
 BYTE   W01
 BYTE   VOL   25*TheSwan_mvl/mxv
 BYTE   W01
 BYTE   VOL   25*TheSwan_mvl/mxv
 BYTE   W02
 BYTE   VOL   25*TheSwan_mvl/mxv
 BYTE   W01
 BYTE   VOL   24*TheSwan_mvl/mxv
 BYTE   W01
 BYTE   VOL   24*TheSwan_mvl/mxv
 BYTE   W02
 BYTE   VOL   23*TheSwan_mvl/mxv
 BYTE   W01
 BYTE   VOL   23*TheSwan_mvl/mxv
 BYTE   W01
 BYTE   VOL   22*TheSwan_mvl/mxv
 BYTE   W01
 BYTE   VOL   22*TheSwan_mvl/mxv
 BYTE   W02
 BYTE   VOL   22*TheSwan_mvl/mxv
 BYTE   W01
 BYTE   VOL   21*TheSwan_mvl/mxv
 BYTE   W01
 BYTE   VOL   21*TheSwan_mvl/mxv
 BYTE   W01
 BYTE   VOL   20*TheSwan_mvl/mxv
 BYTE   W02
 BYTE   VOL   20*TheSwan_mvl/mxv
 BYTE   W01
 BYTE   VOL   19*TheSwan_mvl/mxv
 BYTE   W01
 BYTE   VOL   19*TheSwan_mvl/mxv
 BYTE   W01
 BYTE   VOL   19*TheSwan_mvl/mxv
 BYTE   W02
 BYTE   VOL   18*TheSwan_mvl/mxv
 BYTE   W01
 BYTE   VOL   18*TheSwan_mvl/mxv
 BYTE   W01
 BYTE   VOL   17*TheSwan_mvl/mxv
 BYTE   W02
 BYTE   VOL   17*TheSwan_mvl/mxv
 BYTE   W22
 BYTE   W02
//  #05 //019   ----------------------------------------
 BYTE   VOL   30*TheSwan_mvl/mxv
 BYTE   N24  En3  v108
 BYTE   W01
 BYTE   VOL   30*TheSwan_mvl/mxv
 BYTE   W01
 BYTE   VOL   31*TheSwan_mvl/mxv
 BYTE   W01
 BYTE   VOL   31*TheSwan_mvl/mxv
 BYTE   W02
 BYTE   VOL   32*TheSwan_mvl/mxv
 BYTE   W01
 BYTE   VOL   32*TheSwan_mvl/mxv
 BYTE   W01
 BYTE   VOL   32*TheSwan_mvl/mxv
 BYTE   W01
 BYTE   VOL   33*TheSwan_mvl/mxv
 BYTE   W02
 BYTE   VOL   33*TheSwan_mvl/mxv
 BYTE   W01
 BYTE   VOL   34*TheSwan_mvl/mxv
 BYTE   W01
 BYTE   VOL   34*TheSwan_mvl/mxv
 BYTE   W01
 BYTE   VOL   35*TheSwan_mvl/mxv
 BYTE   W02
 BYTE   VOL   35*TheSwan_mvl/mxv
 BYTE   W01
 BYTE   VOL   35*TheSwan_mvl/mxv
 BYTE   W01
 BYTE   VOL   36*TheSwan_mvl/mxv
 BYTE   W01
 BYTE   VOL   36*TheSwan_mvl/mxv
 BYTE   W02
 BYTE   VOL   37*TheSwan_mvl/mxv
 BYTE   W01
 BYTE   VOL   37*TheSwan_mvl/mxv
 BYTE   W01
 BYTE   VOL   38*TheSwan_mvl/mxv
 BYTE   W01
 BYTE   VOL   38*TheSwan_mvl/mxv
 BYTE   W01
 BYTE   N24  An2
 BYTE   W01
 BYTE   VOL   38*TheSwan_mvl/mxv
 BYTE   W01
 BYTE   VOL   39*TheSwan_mvl/mxv
 BYTE   W01
 BYTE   VOL   39*TheSwan_mvl/mxv
 BYTE   W02
 BYTE   VOL   40*TheSwan_mvl/mxv
 BYTE   W01
 BYTE   VOL   40*TheSwan_mvl/mxv
 BYTE   W01
 BYTE   VOL   41*TheSwan_mvl/mxv
 BYTE   W01
 BYTE   VOL   41*TheSwan_mvl/mxv
 BYTE   W02
 BYTE   VOL   42*TheSwan_mvl/mxv
 BYTE   W01
 BYTE   VOL   42*TheSwan_mvl/mxv
 BYTE   W01
 BYTE   VOL   42*TheSwan_mvl/mxv
 BYTE   W01
 BYTE   VOL   43*TheSwan_mvl/mxv
 BYTE   W02
 BYTE   VOL   43*TheSwan_mvl/mxv
 BYTE   W01
 BYTE   VOL   44*TheSwan_mvl/mxv
 BYTE   W01
 BYTE   VOL   44*TheSwan_mvl/mxv
 BYTE   W01
 BYTE   VOL   45*TheSwan_mvl/mxv
 BYTE   W02
 BYTE   VOL   45*TheSwan_mvl/mxv
 BYTE   W01
 BYTE   VOL   45*TheSwan_mvl/mxv
 BYTE   W01
 BYTE   VOL   46*TheSwan_mvl/mxv
 BYTE   W01
 BYTE   VOL   46*TheSwan_mvl/mxv
 BYTE   W01
 BYTE   N24  Bn2
 BYTE   W01
 BYTE   VOL   47*TheSwan_mvl/mxv
 BYTE   W01
 BYTE   VOL   47*TheSwan_mvl/mxv
 BYTE   W01
 BYTE   VOL   48*TheSwan_mvl/mxv
 BYTE   W02
 BYTE   VOL   48*TheSwan_mvl/mxv
 BYTE   W01
 BYTE   VOL   48*TheSwan_mvl/mxv
 BYTE   W01
 BYTE   VOL   49*TheSwan_mvl/mxv
 BYTE   W01
 BYTE   VOL   49*TheSwan_mvl/mxv
 BYTE   W02
 BYTE   VOL   50*TheSwan_mvl/mxv
 BYTE   W01
 BYTE   VOL   50*TheSwan_mvl/mxv
 BYTE   W01
 BYTE   VOL   51*TheSwan_mvl/mxv
 BYTE   W01
 BYTE   VOL   51*TheSwan_mvl/mxv
 BYTE   W02
 BYTE   VOL   51*TheSwan_mvl/mxv
 BYTE   W01
 BYTE   VOL   52*TheSwan_mvl/mxv
 BYTE   W01
 BYTE   VOL   52*TheSwan_mvl/mxv
 BYTE   W01
 BYTE   VOL   53*TheSwan_mvl/mxv
 BYTE   W02
 BYTE   VOL   53*TheSwan_mvl/mxv
 BYTE   W01
 BYTE   VOL   54*TheSwan_mvl/mxv
 BYTE   W01
 BYTE   VOL   54*TheSwan_mvl/mxv
 BYTE   W02
 BYTE   VOL   55*TheSwan_mvl/mxv
 BYTE   N42  Cn3
 BYTE   W01
 BYTE   VOL   54*TheSwan_mvl/mxv
 BYTE   W02
 BYTE   VOL   54*TheSwan_mvl/mxv
 BYTE   W01
 BYTE   VOL   53*TheSwan_mvl/mxv
 BYTE   W02
 BYTE   VOL   53*TheSwan_mvl/mxv
 BYTE   W01
 BYTE   VOL   52*TheSwan_mvl/mxv
 BYTE   W02
 BYTE   VOL   52*TheSwan_mvl/mxv
 BYTE   W01
 BYTE   VOL   51*TheSwan_mvl/mxv
 BYTE   W02
 BYTE   VOL   51*TheSwan_mvl/mxv
 BYTE   W01
 BYTE   VOL   51*TheSwan_mvl/mxv
 BYTE   W02
 BYTE   VOL   50*TheSwan_mvl/mxv
 BYTE   W01
 BYTE   VOL   50*TheSwan_mvl/mxv
 BYTE   W02
 BYTE   VOL   49*TheSwan_mvl/mxv
 BYTE   W01
 BYTE   VOL   49*TheSwan_mvl/mxv
 BYTE   W02
 BYTE   VOL   48*TheSwan_mvl/mxv
 BYTE   W01
 BYTE   VOL   48*TheSwan_mvl/mxv
 BYTE   W02
//  #05 //020   ----------------------------------------
 BYTE   VOL   48*TheSwan_mvl/mxv
 BYTE   W02
 BYTE   VOL   47*TheSwan_mvl/mxv
 BYTE   W01
 BYTE   VOL   47*TheSwan_mvl/mxv
 BYTE   W02
 BYTE   VOL   46*TheSwan_mvl/mxv
 BYTE   W01
 BYTE   VOL   46*TheSwan_mvl/mxv
 BYTE   W02
 BYTE   VOL   45*TheSwan_mvl/mxv
 BYTE   W01
 BYTE   VOL   45*TheSwan_mvl/mxv
 BYTE   W02
 BYTE   VOL   45*TheSwan_mvl/mxv
 BYTE   W01
 BYTE   VOL   44*TheSwan_mvl/mxv
 BYTE   W02
 BYTE   VOL   44*TheSwan_mvl/mxv
 BYTE   W01
 BYTE   VOL   43*TheSwan_mvl/mxv
 BYTE   W02
 BYTE   VOL   43*TheSwan_mvl/mxv
 BYTE   W01
 BYTE   VOL   42*TheSwan_mvl/mxv
 BYTE   W02
 BYTE   VOL   42*TheSwan_mvl/mxv
 BYTE   W01
 BYTE   VOL   42*TheSwan_mvl/mxv
 BYTE   W02
 BYTE   VOL   41*TheSwan_mvl/mxv
 BYTE   W01
 BYTE   N11  Dn3
 BYTE   W01
 BYTE   VOL   41*TheSwan_mvl/mxv
 BYTE   W01
 BYTE   VOL   40*TheSwan_mvl/mxv
 BYTE   W02
 BYTE   VOL   40*TheSwan_mvl/mxv
 BYTE   W01
 BYTE   VOL   39*TheSwan_mvl/mxv
 BYTE   W02
 BYTE   VOL   39*TheSwan_mvl/mxv
 BYTE   W01
 BYTE   VOL   38*TheSwan_mvl/mxv
 BYTE   W02
 BYTE   VOL   38*TheSwan_mvl/mxv
 BYTE   W01
 BYTE   VOL   38*TheSwan_mvl/mxv
 BYTE   W01
 BYTE   N11  En3
 BYTE   W01
 BYTE   VOL   37*TheSwan_mvl/mxv
 BYTE   W01
 BYTE   VOL   37*TheSwan_mvl/mxv
 BYTE   W02
 BYTE   VOL   36*TheSwan_mvl/mxv
 BYTE   W01
 BYTE   VOL   36*TheSwan_mvl/mxv
 BYTE   W02
 BYTE   VOL   35*TheSwan_mvl/mxv
 BYTE   W01
 BYTE   VOL   35*TheSwan_mvl/mxv
 BYTE   W02
 BYTE   VOL   35*TheSwan_mvl/mxv
 BYTE   W02
 BYTE   VOL   34*TheSwan_mvl/mxv
 BYTE   N72  Fs3
 BYTE   W01
 BYTE   VOL   35*TheSwan_mvl/mxv
 BYTE   W02
 BYTE   VOL   35*TheSwan_mvl/mxv
 BYTE   W01
 BYTE   VOL   35*TheSwan_mvl/mxv
 BYTE   W02
 BYTE   VOL   36*TheSwan_mvl/mxv
 BYTE   W01
 BYTE   VOL   36*TheSwan_mvl/mxv
 BYTE   W02
 BYTE   VOL   37*TheSwan_mvl/mxv
 BYTE   W01
 BYTE   VOL   37*TheSwan_mvl/mxv
 BYTE   W02
 BYTE   VOL   38*TheSwan_mvl/mxv
 BYTE   W01
 BYTE   VOL   38*TheSwan_mvl/mxv
 BYTE   W02
 BYTE   VOL   38*TheSwan_mvl/mxv
 BYTE   W01
 BYTE   VOL   39*TheSwan_mvl/mxv
 BYTE   W02
 BYTE   VOL   39*TheSwan_mvl/mxv
 BYTE   W01
 BYTE   VOL   40*TheSwan_mvl/mxv
 BYTE   W02
 BYTE   VOL   40*TheSwan_mvl/mxv
 BYTE   W01
 BYTE   VOL   41*TheSwan_mvl/mxv
 BYTE   W02
 BYTE   VOL   41*TheSwan_mvl/mxv
 BYTE   W02
 BYTE   VOL   42*TheSwan_mvl/mxv
 BYTE   W01
 BYTE   VOL   42*TheSwan_mvl/mxv
 BYTE   W02
 BYTE   VOL   42*TheSwan_mvl/mxv
 BYTE   W01
 BYTE   VOL   43*TheSwan_mvl/mxv
 BYTE   W02
 BYTE   VOL   43*TheSwan_mvl/mxv
 BYTE   W01
 BYTE   VOL   44*TheSwan_mvl/mxv
 BYTE   W02
 BYTE   VOL   44*TheSwan_mvl/mxv
 BYTE   W01
 BYTE   VOL   45*TheSwan_mvl/mxv
 BYTE   W02
 BYTE   VOL   45*TheSwan_mvl/mxv
 BYTE   W01
 BYTE   VOL   45*TheSwan_mvl/mxv
 BYTE   W02
 BYTE   VOL   46*TheSwan_mvl/mxv
 BYTE   W01
 BYTE   VOL   46*TheSwan_mvl/mxv
 BYTE   W02
 BYTE   VOL   47*TheSwan_mvl/mxv
 BYTE   W01
 BYTE   VOL   47*TheSwan_mvl/mxv
 BYTE   W02
 BYTE   VOL   48*TheSwan_mvl/mxv
 BYTE   W02
//  #05 //021   ----------------------------------------
 BYTE   VOL   48*TheSwan_mvl/mxv
 BYTE   W01
 BYTE   VOL   48*TheSwan_mvl/mxv
 BYTE   W02
 BYTE   VOL   49*TheSwan_mvl/mxv
 BYTE   W01
 BYTE   VOL   49*TheSwan_mvl/mxv
 BYTE   W02
 BYTE   VOL   50*TheSwan_mvl/mxv
 BYTE   W01
 BYTE   VOL   50*TheSwan_mvl/mxv
 BYTE   W02
 BYTE   VOL   51*TheSwan_mvl/mxv
 BYTE   W01
 BYTE   VOL   51*TheSwan_mvl/mxv
 BYTE   W02
 BYTE   VOL   51*TheSwan_mvl/mxv
 BYTE   W01
 BYTE   VOL   52*TheSwan_mvl/mxv
 BYTE   W02
 BYTE   VOL   52*TheSwan_mvl/mxv
 BYTE   W01
 BYTE   VOL   53*TheSwan_mvl/mxv
 BYTE   W02
 BYTE   VOL   53*TheSwan_mvl/mxv
 BYTE   W01
 BYTE   VOL   54*TheSwan_mvl/mxv
 BYTE   W02
 BYTE   VOL   54*TheSwan_mvl/mxv
 BYTE   W02
 BYTE   VOL   54*TheSwan_mvl/mxv
 BYTE   N42  En3
 BYTE   W01
 BYTE   VOL   53*TheSwan_mvl/mxv
 BYTE   W01
 BYTE   VOL   52*TheSwan_mvl/mxv
 BYTE   W01
 BYTE   VOL   51*TheSwan_mvl/mxv
 BYTE   W01
 BYTE   VOL   50*TheSwan_mvl/mxv
 BYTE   W01
 BYTE   VOL   49*TheSwan_mvl/mxv
 BYTE   W01
 BYTE   VOL   48*TheSwan_mvl/mxv
 BYTE   W01
 BYTE   VOL   48*TheSwan_mvl/mxv
 BYTE   W01
 BYTE   VOL   47*TheSwan_mvl/mxv
 BYTE   W01
 BYTE   VOL   46*TheSwan_mvl/mxv
 BYTE   W01
 BYTE   VOL   45*TheSwan_mvl/mxv
 BYTE   W01
 BYTE   VOL   44*TheSwan_mvl/mxv
 BYTE   W01
 BYTE   VOL   43*TheSwan_mvl/mxv
 BYTE   W01
 BYTE   VOL   42*TheSwan_mvl/mxv
 BYTE   W01
 BYTE   VOL   42*TheSwan_mvl/mxv
 BYTE   W01
 BYTE   VOL   41*TheSwan_mvl/mxv
 BYTE   W01
 BYTE   VOL   40*TheSwan_mvl/mxv
 BYTE   W01
 BYTE   VOL   39*TheSwan_mvl/mxv
 BYTE   W01
 BYTE   VOL   38*TheSwan_mvl/mxv
 BYTE   W01
 BYTE   VOL   37*TheSwan_mvl/mxv
 BYTE   W01
 BYTE   VOL   36*TheSwan_mvl/mxv
 BYTE   W01
 BYTE   VOL   35*TheSwan_mvl/mxv
 BYTE   W01
 BYTE   VOL   35*TheSwan_mvl/mxv
 BYTE   W01
 BYTE   VOL   34*TheSwan_mvl/mxv
 BYTE   W01
 BYTE   VOL   33*TheSwan_mvl/mxv
 BYTE   W01
 BYTE   VOL   32*TheSwan_mvl/mxv
 BYTE   W01
 BYTE   VOL   31*TheSwan_mvl/mxv
 BYTE   W01
 BYTE   VOL   30*TheSwan_mvl/mxv
 BYTE   W01
 BYTE   VOL   29*TheSwan_mvl/mxv
 BYTE   W01
 BYTE   VOL   29*TheSwan_mvl/mxv
 BYTE   W01
 BYTE   VOL   28*TheSwan_mvl/mxv
 BYTE   W01
 BYTE   VOL   27*TheSwan_mvl/mxv
 BYTE   W01
 BYTE   VOL   26*TheSwan_mvl/mxv
 BYTE   W01
 BYTE   VOL   25*TheSwan_mvl/mxv
 BYTE   W01
 BYTE   VOL   24*TheSwan_mvl/mxv
 BYTE   W01
 BYTE   VOL   23*TheSwan_mvl/mxv
 BYTE   W01
 BYTE   VOL   22*TheSwan_mvl/mxv
 BYTE   W01
 BYTE   VOL   22*TheSwan_mvl/mxv
 BYTE   W01
 BYTE   VOL   21*TheSwan_mvl/mxv
 BYTE   W01
 BYTE   VOL   20*TheSwan_mvl/mxv
 BYTE   W01
 BYTE   VOL   19*TheSwan_mvl/mxv
 BYTE   W01
 BYTE   VOL   18*TheSwan_mvl/mxv
 BYTE   W01
 BYTE   VOL   17*TheSwan_mvl/mxv
 BYTE   W01
 BYTE   VOL   16*TheSwan_mvl/mxv
 BYTE   W01
 BYTE   VOL   16*TheSwan_mvl/mxv
 BYTE   W01
 BYTE   VOL   15*TheSwan_mvl/mxv
 BYTE   W01
 BYTE   VOL   14*TheSwan_mvl/mxv
 BYTE   W01
 BYTE   VOL   13*TheSwan_mvl/mxv
 BYTE   W01
 BYTE   VOL   12*TheSwan_mvl/mxv
 BYTE   W22
 BYTE   W02
 BYTE   VOL   30*TheSwan_mvl/mxv
 BYTE   N24
 BYTE   W02
//  #05 //022   ----------------------------------------
 BYTE   VOL   30*TheSwan_mvl/mxv
 BYTE   W03
 BYTE   VOL   31*TheSwan_mvl/mxv
 BYTE   W02
 BYTE   VOL   31*TheSwan_mvl/mxv
 BYTE   W03
 BYTE   VOL   32*TheSwan_mvl/mxv
 BYTE   W02
 BYTE   VOL   32*TheSwan_mvl/mxv
 BYTE   W03
 BYTE   VOL   32*TheSwan_mvl/mxv
 BYTE   W02
 BYTE   VOL   33*TheSwan_mvl/mxv
 BYTE   W03
 BYTE   VOL   33*TheSwan_mvl/mxv
 BYTE   W02
 BYTE   VOL   34*TheSwan_mvl/mxv
 BYTE   W02
 BYTE   N24  An2
 BYTE   W01
 BYTE   VOL   34*TheSwan_mvl/mxv
 BYTE   W02
 BYTE   VOL   35*TheSwan_mvl/mxv
 BYTE   W03
 BYTE   VOL   35*TheSwan_mvl/mxv
 BYTE   W02
 BYTE   VOL   35*TheSwan_mvl/mxv
 BYTE   W03
 BYTE   VOL   36*TheSwan_mvl/mxv
 BYTE   W02
 BYTE   VOL   36*TheSwan_mvl/mxv
 BYTE   W03
 BYTE   VOL   37*TheSwan_mvl/mxv
 BYTE   W02
 BYTE   VOL   37*TheSwan_mvl/mxv
 BYTE   W03
 BYTE   VOL   38*TheSwan_mvl/mxv
 BYTE   W02
 BYTE   VOL   38*TheSwan_mvl/mxv
 BYTE   W01
 BYTE   N24  Bn2
 BYTE   W02
 BYTE   VOL   38*TheSwan_mvl/mxv
 BYTE   W03
 BYTE   VOL   39*TheSwan_mvl/mxv
 BYTE   W02
 BYTE   VOL   39*TheSwan_mvl/mxv
 BYTE   W03
 BYTE   VOL   40*TheSwan_mvl/mxv
 BYTE   W02
 BYTE   VOL   40*TheSwan_mvl/mxv
 BYTE   W03
 BYTE   VOL   41*TheSwan_mvl/mxv
 BYTE   W02
 BYTE   VOL   41*TheSwan_mvl/mxv
 BYTE   W03
 BYTE   VOL   42*TheSwan_mvl/mxv
 BYTE   W02
 BYTE   VOL   42*TheSwan_mvl/mxv
 BYTE   W02
 BYTE   N42  Cs3
 BYTE   W01
 BYTE   VOL   42*TheSwan_mvl/mxv
 BYTE   W02
 BYTE   VOL   43*TheSwan_mvl/mxv
 BYTE   W03
 BYTE   VOL   43*TheSwan_mvl/mxv
 BYTE   W02
 BYTE   VOL   44*TheSwan_mvl/mxv
 BYTE   W03
 BYTE   VOL   44*TheSwan_mvl/mxv
 BYTE   W02
 BYTE   VOL   45*TheSwan_mvl/mxv
 BYTE   W03
 BYTE   VOL   45*TheSwan_mvl/mxv
 BYTE   W02
 BYTE   VOL   45*TheSwan_mvl/mxv
 BYTE   W03
 BYTE   VOL   46*TheSwan_mvl/mxv
 BYTE   W02
 BYTE   VOL   46*TheSwan_mvl/mxv
 BYTE   W03
//  #05 //023   ----------------------------------------
 BYTE   VOL   47*TheSwan_mvl/mxv
 BYTE   W03
 BYTE   VOL   47*TheSwan_mvl/mxv
 BYTE   W02
 BYTE   VOL   48*TheSwan_mvl/mxv
 BYTE   W03
 BYTE   VOL   48*TheSwan_mvl/mxv
 BYTE   W02
 BYTE   VOL   48*TheSwan_mvl/mxv
 BYTE   W03
 BYTE   VOL   49*TheSwan_mvl/mxv
 BYTE   W02
 BYTE   VOL   49*TheSwan_mvl/mxv
 BYTE   W03
 BYTE   VOL   50*TheSwan_mvl/mxv
 BYTE   W02
 BYTE   VOL   50*TheSwan_mvl/mxv
 BYTE   W02
 BYTE   N11  Dn3
 BYTE   W01
 BYTE   VOL   51*TheSwan_mvl/mxv
 BYTE   W02
 BYTE   VOL   51*TheSwan_mvl/mxv
 BYTE   W03
 BYTE   VOL   51*TheSwan_mvl/mxv
 BYTE   W02
 BYTE   VOL   52*TheSwan_mvl/mxv
 BYTE   W03
 BYTE   VOL   52*TheSwan_mvl/mxv
 BYTE   W01
 BYTE   N11  En3
 BYTE   W01
 BYTE   VOL   53*TheSwan_mvl/mxv
 BYTE   W03
 BYTE   VOL   53*TheSwan_mvl/mxv
 BYTE   W02
 BYTE   VOL   54*TheSwan_mvl/mxv
 BYTE   W03
 BYTE   VOL   54*TheSwan_mvl/mxv
 BYTE   W01
 BYTE   W02
 BYTE   VOL   55*TheSwan_mvl/mxv
 BYTE   N72  Fn3
 BYTE   W01
 BYTE   VOL   54*TheSwan_mvl/mxv
 BYTE   W02
 BYTE   VOL   54*TheSwan_mvl/mxv
 BYTE   W02
 BYTE   VOL   53*TheSwan_mvl/mxv
 BYTE   W02
 BYTE   VOL   53*TheSwan_mvl/mxv
 BYTE   W02
 BYTE   VOL   52*TheSwan_mvl/mxv
 BYTE   W02
 BYTE   VOL   52*TheSwan_mvl/mxv
 BYTE   W02
 BYTE   VOL   51*TheSwan_mvl/mxv
 BYTE   W01
 BYTE   VOL   51*TheSwan_mvl/mxv
 BYTE   W02
 BYTE   VOL   51*TheSwan_mvl/mxv
 BYTE   W02
 BYTE   VOL   50*TheSwan_mvl/mxv
 BYTE   W02
 BYTE   VOL   50*TheSwan_mvl/mxv
 BYTE   W02
 BYTE   VOL   49*TheSwan_mvl/mxv
 BYTE   W02
 BYTE   VOL   49*TheSwan_mvl/mxv
 BYTE   W02
 BYTE   VOL   48*TheSwan_mvl/mxv
 BYTE   W02
 BYTE   VOL   48*TheSwan_mvl/mxv
 BYTE   W01
 BYTE   VOL   48*TheSwan_mvl/mxv
 BYTE   W02
 BYTE   VOL   47*TheSwan_mvl/mxv
 BYTE   W02
 BYTE   VOL   47*TheSwan_mvl/mxv
 BYTE   W02
 BYTE   VOL   46*TheSwan_mvl/mxv
 BYTE   W02
 BYTE   VOL   46*TheSwan_mvl/mxv
 BYTE   W02
 BYTE   VOL   45*TheSwan_mvl/mxv
 BYTE   W02
 BYTE   VOL   45*TheSwan_mvl/mxv
 BYTE   W02
 BYTE   VOL   45*TheSwan_mvl/mxv
 BYTE   W01
 BYTE   VOL   44*TheSwan_mvl/mxv
 BYTE   W02
 BYTE   VOL   44*TheSwan_mvl/mxv
 BYTE   W02
 BYTE   VOL   43*TheSwan_mvl/mxv
 BYTE   W02
//  #05 //024   ----------------------------------------
 BYTE   VOL   43*TheSwan_mvl/mxv
 BYTE   W02
 BYTE   VOL   42*TheSwan_mvl/mxv
 BYTE   W02
 BYTE   VOL   42*TheSwan_mvl/mxv
 BYTE   W02
 BYTE   VOL   42*TheSwan_mvl/mxv
 BYTE   W01
 BYTE   VOL   41*TheSwan_mvl/mxv
 BYTE   W02
 BYTE   VOL   41*TheSwan_mvl/mxv
 BYTE   W02
 BYTE   VOL   40*TheSwan_mvl/mxv
 BYTE   W02
 BYTE   VOL   40*TheSwan_mvl/mxv
 BYTE   W02
 BYTE   VOL   39*TheSwan_mvl/mxv
 BYTE   W02
 BYTE   VOL   39*TheSwan_mvl/mxv
 BYTE   W02
 BYTE   VOL   38*TheSwan_mvl/mxv
 BYTE   W02
 BYTE   VOL   38*TheSwan_mvl/mxv
 BYTE   W01
 BYTE   VOL   38*TheSwan_mvl/mxv
 BYTE   N66  Fs3
 BYTE   W02
 BYTE   VOL   37*TheSwan_mvl/mxv
 BYTE   W02
 BYTE   VOL   37*TheSwan_mvl/mxv
 BYTE   W02
 BYTE   VOL   36*TheSwan_mvl/mxv
 BYTE   W02
 BYTE   VOL   36*TheSwan_mvl/mxv
 BYTE   W02
 BYTE   VOL   35*TheSwan_mvl/mxv
 BYTE   W02
 BYTE   VOL   35*TheSwan_mvl/mxv
 BYTE   W02
 BYTE   VOL   35*TheSwan_mvl/mxv
 BYTE   W01
 BYTE   VOL   34*TheSwan_mvl/mxv
 BYTE   W02
 BYTE   VOL   34*TheSwan_mvl/mxv
 BYTE   W02
 BYTE   VOL   33*TheSwan_mvl/mxv
 BYTE   W02
 BYTE   VOL   33*TheSwan_mvl/mxv
 BYTE   W02
 BYTE   VOL   32*TheSwan_mvl/mxv
 BYTE   W02
 BYTE   VOL   32*TheSwan_mvl/mxv
 BYTE   W02
 BYTE   VOL   32*TheSwan_mvl/mxv
 BYTE   W01
 BYTE   VOL   31*TheSwan_mvl/mxv
 BYTE   W02
 BYTE   VOL   31*TheSwan_mvl/mxv
 BYTE   W02
 BYTE   VOL   30*TheSwan_mvl/mxv
 BYTE   W02
 BYTE   VOL   30*TheSwan_mvl/mxv
 BYTE   W02
 BYTE   VOL   29*TheSwan_mvl/mxv
 BYTE   W02
 BYTE   VOL   29*TheSwan_mvl/mxv
 BYTE   W02
 BYTE   VOL   29*TheSwan_mvl/mxv
 BYTE   W02
 BYTE   VOL   28*TheSwan_mvl/mxv
 BYTE   W01
 BYTE   VOL   28*TheSwan_mvl/mxv
 BYTE   W02
 BYTE   VOL   27*TheSwan_mvl/mxv
 BYTE   W02
 BYTE   VOL   27*TheSwan_mvl/mxv
 BYTE   W02
 BYTE   VOL   26*TheSwan_mvl/mxv
 BYTE   W02
 BYTE   VOL   26*TheSwan_mvl/mxv
 BYTE   W02
 BYTE   VOL   25*TheSwan_mvl/mxv
 BYTE   W02
 BYTE   VOL   25*TheSwan_mvl/mxv
 BYTE   W02
 BYTE   VOL   25*TheSwan_mvl/mxv
 BYTE   W01
 BYTE   VOL   24*TheSwan_mvl/mxv
 BYTE   W02
 BYTE   VOL   24*TheSwan_mvl/mxv
 BYTE   W02
 BYTE   VOL   23*TheSwan_mvl/mxv
 BYTE   W02
 BYTE   VOL   23*TheSwan_mvl/mxv
 BYTE   W02
 BYTE   VOL   22*TheSwan_mvl/mxv
 BYTE   W02
 BYTE   VOL   22*TheSwan_mvl/mxv
 BYTE   W02
 BYTE   VOL   22*TheSwan_mvl/mxv
 BYTE   W02
 BYTE   VOL   30*TheSwan_mvl/mxv
 BYTE   N24  Gn3
 BYTE   W01
 BYTE   VOL   30*TheSwan_mvl/mxv
 BYTE   W01
//  #05 //025   ----------------------------------------
 BYTE   VOL   31*TheSwan_mvl/mxv
 BYTE   W01
 BYTE   VOL   31*TheSwan_mvl/mxv
 BYTE   W02
 BYTE   VOL   32*TheSwan_mvl/mxv
 BYTE   W01
 BYTE   VOL   32*TheSwan_mvl/mxv
 BYTE   W01
 BYTE   VOL   32*TheSwan_mvl/mxv
 BYTE   W01
 BYTE   VOL   33*TheSwan_mvl/mxv
 BYTE   W02
 BYTE   VOL   33*TheSwan_mvl/mxv
 BYTE   W01
 BYTE   VOL   34*TheSwan_mvl/mxv
 BYTE   W01
 BYTE   VOL   34*TheSwan_mvl/mxv
 BYTE   W01
 BYTE   VOL   35*TheSwan_mvl/mxv
 BYTE   W02
 BYTE   VOL   35*TheSwan_mvl/mxv
 BYTE   W01
 BYTE   VOL   35*TheSwan_mvl/mxv
 BYTE   W01
 BYTE   VOL   36*TheSwan_mvl/mxv
 BYTE   W01
 BYTE   VOL   36*TheSwan_mvl/mxv
 BYTE   W02
 BYTE   VOL   37*TheSwan_mvl/mxv
 BYTE   W01
 BYTE   VOL   37*TheSwan_mvl/mxv
 BYTE   W01
 BYTE   VOL   38*TheSwan_mvl/mxv
 BYTE   W01
 BYTE   VOL   38*TheSwan_mvl/mxv
 BYTE   W01
 BYTE   N24  Fs3
 BYTE   W01
 BYTE   VOL   38*TheSwan_mvl/mxv
 BYTE   W01
 BYTE   VOL   39*TheSwan_mvl/mxv
 BYTE   W01
 BYTE   VOL   39*TheSwan_mvl/mxv
 BYTE   W02
 BYTE   VOL   40*TheSwan_mvl/mxv
 BYTE   W01
 BYTE   VOL   40*TheSwan_mvl/mxv
 BYTE   W01
 BYTE   VOL   41*TheSwan_mvl/mxv
 BYTE   W01
 BYTE   VOL   41*TheSwan_mvl/mxv
 BYTE   W02
 BYTE   VOL   42*TheSwan_mvl/mxv
 BYTE   W01
 BYTE   VOL   42*TheSwan_mvl/mxv
 BYTE   W01
 BYTE   VOL   42*TheSwan_mvl/mxv
 BYTE   W01
 BYTE   VOL   43*TheSwan_mvl/mxv
 BYTE   W02
 BYTE   VOL   43*TheSwan_mvl/mxv
 BYTE   W01
 BYTE   VOL   44*TheSwan_mvl/mxv
 BYTE   W01
 BYTE   VOL   44*TheSwan_mvl/mxv
 BYTE   W01
 BYTE   VOL   45*TheSwan_mvl/mxv
 BYTE   W02
 BYTE   VOL   45*TheSwan_mvl/mxv
 BYTE   W01
 BYTE   VOL   45*TheSwan_mvl/mxv
 BYTE   W01
 BYTE   VOL   46*TheSwan_mvl/mxv
 BYTE   W01
 BYTE   VOL   46*TheSwan_mvl/mxv
 BYTE   W01
 BYTE   N24  Bn2
 BYTE   W01
 BYTE   VOL   47*TheSwan_mvl/mxv
 BYTE   W01
 BYTE   VOL   47*TheSwan_mvl/mxv
 BYTE   W01
 BYTE   VOL   48*TheSwan_mvl/mxv
 BYTE   W02
 BYTE   VOL   48*TheSwan_mvl/mxv
 BYTE   W01
 BYTE   VOL   48*TheSwan_mvl/mxv
 BYTE   W01
 BYTE   VOL   49*TheSwan_mvl/mxv
 BYTE   W01
 BYTE   VOL   49*TheSwan_mvl/mxv
 BYTE   W02
 BYTE   VOL   50*TheSwan_mvl/mxv
 BYTE   W01
 BYTE   VOL   50*TheSwan_mvl/mxv
 BYTE   W01
 BYTE   VOL   51*TheSwan_mvl/mxv
 BYTE   W01
 BYTE   VOL   51*TheSwan_mvl/mxv
 BYTE   W02
 BYTE   VOL   51*TheSwan_mvl/mxv
 BYTE   W01
 BYTE   VOL   52*TheSwan_mvl/mxv
 BYTE   W01
 BYTE   VOL   52*TheSwan_mvl/mxv
 BYTE   W01
 BYTE   VOL   53*TheSwan_mvl/mxv
 BYTE   W02
 BYTE   VOL   53*TheSwan_mvl/mxv
 BYTE   W01
 BYTE   VOL   54*TheSwan_mvl/mxv
 BYTE   W01
 BYTE   VOL   54*TheSwan_mvl/mxv
 BYTE   W02
 BYTE   VOL   55*TheSwan_mvl/mxv
 BYTE   N24  En3
 BYTE   W01
 BYTE   VOL   54*TheSwan_mvl/mxv
 BYTE   W02
 BYTE   VOL   54*TheSwan_mvl/mxv
 BYTE   W01
 BYTE   VOL   53*TheSwan_mvl/mxv
 BYTE   W02
 BYTE   VOL   53*TheSwan_mvl/mxv
 BYTE   W01
 BYTE   VOL   52*TheSwan_mvl/mxv
 BYTE   W02
 BYTE   VOL   52*TheSwan_mvl/mxv
 BYTE   W01
 BYTE   VOL   51*TheSwan_mvl/mxv
 BYTE   W02
 BYTE   VOL   51*TheSwan_mvl/mxv
 BYTE   W01
 BYTE   VOL   51*TheSwan_mvl/mxv
 BYTE   W02
 BYTE   VOL   50*TheSwan_mvl/mxv
 BYTE   W01
 BYTE   VOL   50*TheSwan_mvl/mxv
 BYTE   W02
 BYTE   VOL   49*TheSwan_mvl/mxv
 BYTE   W01
 BYTE   VOL   49*TheSwan_mvl/mxv
 BYTE   W02
 BYTE   VOL   48*TheSwan_mvl/mxv
 BYTE   W01
 BYTE   VOL   48*TheSwan_mvl/mxv
 BYTE   W02
 BYTE   VOL   48*TheSwan_mvl/mxv
 BYTE   N24  Dn3
 BYTE   W02
//  #05 //026   ----------------------------------------
 BYTE   VOL   47*TheSwan_mvl/mxv
 BYTE   W01
 BYTE   VOL   47*TheSwan_mvl/mxv
 BYTE   W02
 BYTE   VOL   46*TheSwan_mvl/mxv
 BYTE   W01
 BYTE   VOL   46*TheSwan_mvl/mxv
 BYTE   W02
 BYTE   VOL   45*TheSwan_mvl/mxv
 BYTE   W01
 BYTE   VOL   45*TheSwan_mvl/mxv
 BYTE   W02
 BYTE   VOL   45*TheSwan_mvl/mxv
 BYTE   W01
 BYTE   VOL   44*TheSwan_mvl/mxv
 BYTE   W02
 BYTE   VOL   44*TheSwan_mvl/mxv
 BYTE   W01
 BYTE   VOL   43*TheSwan_mvl/mxv
 BYTE   W02
 BYTE   VOL   43*TheSwan_mvl/mxv
 BYTE   W01
 BYTE   VOL   42*TheSwan_mvl/mxv
 BYTE   W02
 BYTE   VOL   42*TheSwan_mvl/mxv
 BYTE   W01
 BYTE   VOL   42*TheSwan_mvl/mxv
 BYTE   W02
 BYTE   VOL   41*TheSwan_mvl/mxv
 BYTE   W01
 BYTE   N24  Gn2
 BYTE   W01
 BYTE   VOL   41*TheSwan_mvl/mxv
 BYTE   W01
 BYTE   VOL   40*TheSwan_mvl/mxv
 BYTE   W02
 BYTE   VOL   40*TheSwan_mvl/mxv
 BYTE   W01
 BYTE   VOL   39*TheSwan_mvl/mxv
 BYTE   W02
 BYTE   VOL   39*TheSwan_mvl/mxv
 BYTE   W01
 BYTE   VOL   38*TheSwan_mvl/mxv
 BYTE   W02
 BYTE   VOL   38*TheSwan_mvl/mxv
 BYTE   W01
 BYTE   VOL   38*TheSwan_mvl/mxv
 BYTE   W02
 BYTE   VOL   37*TheSwan_mvl/mxv
 BYTE   W01
 BYTE   VOL   37*TheSwan_mvl/mxv
 BYTE   W02
 BYTE   VOL   36*TheSwan_mvl/mxv
 BYTE   W01
 BYTE   VOL   36*TheSwan_mvl/mxv
 BYTE   W02
 BYTE   VOL   35*TheSwan_mvl/mxv
 BYTE   W01
 BYTE   VOL   35*TheSwan_mvl/mxv
 BYTE   W02
 BYTE   VOL   35*TheSwan_mvl/mxv
 BYTE   W02
 BYTE   VOL   34*TheSwan_mvl/mxv
 BYTE   N56  An2
 BYTE   W01
 BYTE   VOL   35*TheSwan_mvl/mxv
 BYTE   W01
 BYTE   VOL   35*TheSwan_mvl/mxv
 BYTE   W01
 BYTE   VOL   35*TheSwan_mvl/mxv
 BYTE   W01
 BYTE   VOL   36*TheSwan_mvl/mxv
 BYTE   W01
 BYTE   VOL   36*TheSwan_mvl/mxv
 BYTE   W01
 BYTE   VOL   37*TheSwan_mvl/mxv
 BYTE   W01
 BYTE   VOL   37*TheSwan_mvl/mxv
 BYTE   W01
 BYTE   VOL   38*TheSwan_mvl/mxv
 BYTE   W01
 BYTE   VOL   38*TheSwan_mvl/mxv
 BYTE   W01
 BYTE   VOL   38*TheSwan_mvl/mxv
 BYTE   W01
 BYTE   VOL   39*TheSwan_mvl/mxv
 BYTE   W01
 BYTE   VOL   39*TheSwan_mvl/mxv
 BYTE   W01
 BYTE   VOL   40*TheSwan_mvl/mxv
 BYTE   W01
 BYTE   VOL   40*TheSwan_mvl/mxv
 BYTE   W01
 BYTE   VOL   41*TheSwan_mvl/mxv
 BYTE   W01
 BYTE   VOL   41*TheSwan_mvl/mxv
 BYTE   W01
 BYTE   VOL   42*TheSwan_mvl/mxv
 BYTE   W01
 BYTE   VOL   42*TheSwan_mvl/mxv
 BYTE   W01
 BYTE   VOL   42*TheSwan_mvl/mxv
 BYTE   W01
 BYTE   VOL   43*TheSwan_mvl/mxv
 BYTE   W01
 BYTE   VOL   43*TheSwan_mvl/mxv
 BYTE   W01
 BYTE   VOL   44*TheSwan_mvl/mxv
 BYTE   W01
 BYTE   VOL   44*TheSwan_mvl/mxv
 BYTE   W01
 BYTE   VOL   45*TheSwan_mvl/mxv
 BYTE   W01
 BYTE   VOL   45*TheSwan_mvl/mxv
 BYTE   W01
 BYTE   VOL   45*TheSwan_mvl/mxv
 BYTE   W01
 BYTE   VOL   46*TheSwan_mvl/mxv
 BYTE   W01
 BYTE   VOL   46*TheSwan_mvl/mxv
 BYTE   W01
 BYTE   VOL   47*TheSwan_mvl/mxv
 BYTE   W01
 BYTE   VOL   47*TheSwan_mvl/mxv
 BYTE   W01
 BYTE   VOL   48*TheSwan_mvl/mxv
 BYTE   W01
 BYTE   VOL   48*TheSwan_mvl/mxv
 BYTE   W01
 BYTE   VOL   48*TheSwan_mvl/mxv
 BYTE   W01
 BYTE   VOL   49*TheSwan_mvl/mxv
 BYTE   W01
 BYTE   VOL   49*TheSwan_mvl/mxv
 BYTE   W01
 BYTE   VOL   50*TheSwan_mvl/mxv
 BYTE   W01
 BYTE   VOL   50*TheSwan_mvl/mxv
 BYTE   W01
 BYTE   VOL   51*TheSwan_mvl/mxv
 BYTE   W01
 BYTE   VOL   51*TheSwan_mvl/mxv
 BYTE   W01
 BYTE   VOL   51*TheSwan_mvl/mxv
 BYTE   W01
 BYTE   VOL   52*TheSwan_mvl/mxv
 BYTE   W01
 BYTE   VOL   52*TheSwan_mvl/mxv
 BYTE   W01
 BYTE   VOL   53*TheSwan_mvl/mxv
 BYTE   W01
 BYTE   VOL   53*TheSwan_mvl/mxv
 BYTE   W01
 BYTE   VOL   54*TheSwan_mvl/mxv
 BYTE   W01
 BYTE   VOL   54*TheSwan_mvl/mxv
 BYTE   W02
 BYTE   VOL   54*TheSwan_mvl/mxv
 BYTE   W01
 BYTE   VOL   54*TheSwan_mvl/mxv
 BYTE   W01
//  #05 //027   ----------------------------------------
 BYTE   VOL   53*TheSwan_mvl/mxv
 BYTE   W01
 BYTE   VOL   53*TheSwan_mvl/mxv
 BYTE   W01
 BYTE   VOL   52*TheSwan_mvl/mxv
 BYTE   W01
 BYTE   VOL   51*TheSwan_mvl/mxv
 BYTE   W01
 BYTE   VOL   51*TheSwan_mvl/mxv
 BYTE   W01
 BYTE   VOL   51*TheSwan_mvl/mxv
 BYTE   W01
 BYTE   VOL   50*TheSwan_mvl/mxv
 BYTE   W01
 BYTE   VOL   49*TheSwan_mvl/mxv
 BYTE   W01
 BYTE   VOL   49*TheSwan_mvl/mxv
 BYTE   W01
 BYTE   VOL   48*TheSwan_mvl/mxv
 BYTE   W01
 BYTE   VOL   48*TheSwan_mvl/mxv
 BYTE   N11  Bn2
 BYTE   W01
 BYTE   VOL   48*TheSwan_mvl/mxv
 BYTE   W01
 BYTE   VOL   47*TheSwan_mvl/mxv
 BYTE   W01
 BYTE   VOL   46*TheSwan_mvl/mxv
 BYTE   W01
 BYTE   VOL   46*TheSwan_mvl/mxv
 BYTE   W01
 BYTE   VOL   45*TheSwan_mvl/mxv
 BYTE   W01
 BYTE   VOL   45*TheSwan_mvl/mxv
 BYTE   W01
 BYTE   VOL   44*TheSwan_mvl/mxv
 BYTE   W01
 BYTE   VOL   44*TheSwan_mvl/mxv
 BYTE   W01
 BYTE   VOL   43*TheSwan_mvl/mxv
 BYTE   W01
 BYTE   VOL   43*TheSwan_mvl/mxv
 BYTE   W01
 BYTE   VOL   42*TheSwan_mvl/mxv
 BYTE   W01
 BYTE   VOL   42*TheSwan_mvl/mxv
 BYTE   N42  Cn3
 BYTE   W01
 BYTE   VOL   41*TheSwan_mvl/mxv
 BYTE   W01
 BYTE   VOL   41*TheSwan_mvl/mxv
 BYTE   W01
 BYTE   VOL   40*TheSwan_mvl/mxv
 BYTE   W01
 BYTE   VOL   39*TheSwan_mvl/mxv
 BYTE   W01
 BYTE   VOL   39*TheSwan_mvl/mxv
 BYTE   W01
 BYTE   VOL   38*TheSwan_mvl/mxv
 BYTE   W01
 BYTE   VOL   38*TheSwan_mvl/mxv
 BYTE   W01
 BYTE   VOL   38*TheSwan_mvl/mxv
 BYTE   W01
 BYTE   VOL   37*TheSwan_mvl/mxv
 BYTE   W01
 BYTE   VOL   36*TheSwan_mvl/mxv
 BYTE   W01
 BYTE   VOL   36*TheSwan_mvl/mxv
 BYTE   W01
 BYTE   VOL   35*TheSwan_mvl/mxv
 BYTE   W01
 BYTE   VOL   35*TheSwan_mvl/mxv
 BYTE   W01
 BYTE   VOL   34*TheSwan_mvl/mxv
 BYTE   W01
 BYTE   VOL   34*TheSwan_mvl/mxv
 BYTE   W01
 BYTE   VOL   33*TheSwan_mvl/mxv
 BYTE   W01
 BYTE   VOL   33*TheSwan_mvl/mxv
 BYTE   W01
 BYTE   VOL   32*TheSwan_mvl/mxv
 BYTE   W01
 BYTE   VOL   32*TheSwan_mvl/mxv
 BYTE   W01
 BYTE   VOL   31*TheSwan_mvl/mxv
 BYTE   W01
 BYTE   VOL   31*TheSwan_mvl/mxv
 BYTE   W01
 BYTE   VOL   30*TheSwan_mvl/mxv
 BYTE   W01
 BYTE   VOL   30*TheSwan_mvl/mxv
 BYTE   W01
 BYTE   VOL   29*TheSwan_mvl/mxv
 BYTE   W01
 BYTE   VOL   29*TheSwan_mvl/mxv
 BYTE   W01
 BYTE   VOL   28*TheSwan_mvl/mxv
 BYTE   W01
 BYTE   VOL   28*TheSwan_mvl/mxv
 BYTE   W01
 BYTE   VOL   27*TheSwan_mvl/mxv
 BYTE   W01
 BYTE   VOL   26*TheSwan_mvl/mxv
 BYTE   W01
 BYTE   VOL   26*TheSwan_mvl/mxv
 BYTE   W01
 BYTE   VOL   25*TheSwan_mvl/mxv
 BYTE   W01
 BYTE   VOL   25*TheSwan_mvl/mxv
 BYTE   W01
 BYTE   VOL   24*TheSwan_mvl/mxv
 BYTE   W01
 BYTE   VOL   24*TheSwan_mvl/mxv
 BYTE   W01
 BYTE   VOL   23*TheSwan_mvl/mxv
 BYTE   W01
 BYTE   VOL   23*TheSwan_mvl/mxv
 BYTE   W01
 BYTE   VOL   22*TheSwan_mvl/mxv
 BYTE   W01
 BYTE   VOL   22*TheSwan_mvl/mxv
 BYTE   W01
 BYTE   VOL   21*TheSwan_mvl/mxv
 BYTE   W01
 BYTE   VOL   21*TheSwan_mvl/mxv
 BYTE   W01
 BYTE   VOL   20*TheSwan_mvl/mxv
 BYTE   W01
 BYTE   VOL   20*TheSwan_mvl/mxv
 BYTE   W01
 BYTE   VOL   19*TheSwan_mvl/mxv
 BYTE   W01
 BYTE   VOL   19*TheSwan_mvl/mxv
 BYTE   W01
 BYTE   VOL   18*TheSwan_mvl/mxv
 BYTE   W01
 BYTE   VOL   18*TheSwan_mvl/mxv
 BYTE   W01
 BYTE   VOL   17*TheSwan_mvl/mxv
 BYTE   W01
 BYTE   VOL   17*TheSwan_mvl/mxv
 BYTE   W22
 BYTE   W02
 BYTE   VOL   34*TheSwan_mvl/mxv
 BYTE   N42  En2
 BYTE   W02
//  #05 //028   ----------------------------------------
 BYTE   VOL   35*TheSwan_mvl/mxv
 BYTE   W02
 BYTE   VOL   35*TheSwan_mvl/mxv
 BYTE   W02
 BYTE   VOL   35*TheSwan_mvl/mxv
 BYTE   W02
 BYTE   VOL   36*TheSwan_mvl/mxv
 BYTE   W02
 BYTE   VOL   36*TheSwan_mvl/mxv
 BYTE   W02
 BYTE   VOL   37*TheSwan_mvl/mxv
 BYTE   W02
 BYTE   VOL   37*TheSwan_mvl/mxv
 BYTE   W02
 BYTE   VOL   38*TheSwan_mvl/mxv
 BYTE   W02
 BYTE   VOL   38*TheSwan_mvl/mxv
 BYTE   W02
 BYTE   VOL   38*TheSwan_mvl/mxv
 BYTE   W02
 BYTE   VOL   39*TheSwan_mvl/mxv
 BYTE   W02
 BYTE   VOL   39*TheSwan_mvl/mxv
 BYTE   W02
 BYTE   VOL   40*TheSwan_mvl/mxv
 BYTE   W02
 BYTE   VOL   40*TheSwan_mvl/mxv
 BYTE   W02
 BYTE   VOL   41*TheSwan_mvl/mxv
 BYTE   W02
 BYTE   VOL   41*TheSwan_mvl/mxv
 BYTE   W02
 BYTE   VOL   42*TheSwan_mvl/mxv
 BYTE   W02
 BYTE   VOL   42*TheSwan_mvl/mxv
 BYTE   W02
 BYTE   VOL   42*TheSwan_mvl/mxv
 BYTE   W02
 BYTE   VOL   43*TheSwan_mvl/mxv
 BYTE   W02
 BYTE   VOL   43*TheSwan_mvl/mxv
 BYTE   W02
 BYTE   VOL   44*TheSwan_mvl/mxv
 BYTE   W02
 BYTE   VOL   44*TheSwan_mvl/mxv
 BYTE   W02
 BYTE   N12  Fs2
 BYTE   W01
 BYTE   VOL   45*TheSwan_mvl/mxv
 BYTE   W02
 BYTE   VOL   45*TheSwan_mvl/mxv
 BYTE   W02
 BYTE   VOL   45*TheSwan_mvl/mxv
 BYTE   W02
 BYTE   VOL   46*TheSwan_mvl/mxv
 BYTE   W02
 BYTE   VOL   46*TheSwan_mvl/mxv
 BYTE   W02
 BYTE   VOL   47*TheSwan_mvl/mxv
 BYTE   W01
 BYTE   N11  Gn2
 BYTE   W01
 BYTE   VOL   47*TheSwan_mvl/mxv
 BYTE   W02
 BYTE   VOL   48*TheSwan_mvl/mxv
 BYTE   W02
 BYTE   VOL   48*TheSwan_mvl/mxv
 BYTE   W02
 BYTE   VOL   48*TheSwan_mvl/mxv
 BYTE   W02
 BYTE   VOL   49*TheSwan_mvl/mxv
 BYTE   W02
 BYTE   VOL   49*TheSwan_mvl/mxv
 BYTE   W01
 BYTE   N12  An2
 BYTE   W01
 BYTE   VOL   50*TheSwan_mvl/mxv
 BYTE   W02
 BYTE   VOL   50*TheSwan_mvl/mxv
 BYTE   W02
 BYTE   VOL   51*TheSwan_mvl/mxv
 BYTE   W02
 BYTE   VOL   51*TheSwan_mvl/mxv
 BYTE   W02
 BYTE   VOL   51*TheSwan_mvl/mxv
 BYTE   W02
 BYTE   VOL   52*TheSwan_mvl/mxv
 BYTE   W01
 BYTE   N11  Bn2
 BYTE   W01
 BYTE   VOL   52*TheSwan_mvl/mxv
 BYTE   W02
 BYTE   VOL   53*TheSwan_mvl/mxv
 BYTE   W02
 BYTE   VOL   53*TheSwan_mvl/mxv
 BYTE   W02
 BYTE   VOL   54*TheSwan_mvl/mxv
 BYTE   W02
 BYTE   VOL   54*TheSwan_mvl/mxv
 BYTE   W03
 BYTE   VOL   55*TheSwan_mvl/mxv
 BYTE   N12  Cn3
 BYTE   W01
 BYTE   VOL   54*TheSwan_mvl/mxv
 BYTE   W02
//  #05 //029   ----------------------------------------
 BYTE   VOL   54*TheSwan_mvl/mxv
 BYTE   W01
 BYTE   VOL   53*TheSwan_mvl/mxv
 BYTE   W02
 BYTE   VOL   53*TheSwan_mvl/mxv
 BYTE   W02
 BYTE   VOL   52*TheSwan_mvl/mxv
 BYTE   W01
 BYTE   VOL   52*TheSwan_mvl/mxv
 BYTE   W02
 BYTE   VOL   51*TheSwan_mvl/mxv
 BYTE   W01
 BYTE   VOL   51*TheSwan_mvl/mxv
 BYTE   N11  Dn3
 BYTE   W02
 BYTE   VOL   51*TheSwan_mvl/mxv
 BYTE   W02
 BYTE   VOL   50*TheSwan_mvl/mxv
 BYTE   W01
 BYTE   VOL   50*TheSwan_mvl/mxv
 BYTE   W02
 BYTE   VOL   49*TheSwan_mvl/mxv
 BYTE   W01
 BYTE   VOL   49*TheSwan_mvl/mxv
 BYTE   W02
 BYTE   VOL   48*TheSwan_mvl/mxv
 BYTE   W02
 BYTE   VOL   48*TheSwan_mvl/mxv
 BYTE   N12  En3
 BYTE   W01
 BYTE   VOL   48*TheSwan_mvl/mxv
 BYTE   W02
 BYTE   VOL   47*TheSwan_mvl/mxv
 BYTE   W01
 BYTE   VOL   47*TheSwan_mvl/mxv
 BYTE   W02
 BYTE   VOL   46*TheSwan_mvl/mxv
 BYTE   W02
 BYTE   VOL   46*TheSwan_mvl/mxv
 BYTE   W01
 BYTE   VOL   45*TheSwan_mvl/mxv
 BYTE   W02
 BYTE   VOL   45*TheSwan_mvl/mxv
 BYTE   W01
 BYTE   VOL   45*TheSwan_mvl/mxv
 BYTE   N11  Fs3
 BYTE   W02
 BYTE   VOL   44*TheSwan_mvl/mxv
 BYTE   W02
 BYTE   VOL   44*TheSwan_mvl/mxv
 BYTE   W01
 BYTE   VOL   43*TheSwan_mvl/mxv
 BYTE   W02
 BYTE   VOL   43*TheSwan_mvl/mxv
 BYTE   W01
 BYTE   VOL   42*TheSwan_mvl/mxv
 BYTE   W02
 BYTE   VOL   42*TheSwan_mvl/mxv
 BYTE   W02
 BYTE   VOL   34*TheSwan_mvl/mxv
 BYTE   TIE  Bn3  v127
 BYTE   W01
 BYTE   VOL   35*TheSwan_mvl/mxv
 BYTE   W02
 BYTE   VOL   35*TheSwan_mvl/mxv
 BYTE   W01
 BYTE   VOL   35*TheSwan_mvl/mxv
 BYTE   W02
 BYTE   VOL   36*TheSwan_mvl/mxv
 BYTE   W01
 BYTE   VOL   36*TheSwan_mvl/mxv
 BYTE   W02
 BYTE   VOL   37*TheSwan_mvl/mxv
 BYTE   W01
 BYTE   VOL   37*TheSwan_mvl/mxv
 BYTE   W02
 BYTE   VOL   38*TheSwan_mvl/mxv
 BYTE   W01
 BYTE   VOL   38*TheSwan_mvl/mxv
 BYTE   W02
 BYTE   VOL   38*TheSwan_mvl/mxv
 BYTE   W01
 BYTE   VOL   39*TheSwan_mvl/mxv
 BYTE   W02
 BYTE   VOL   39*TheSwan_mvl/mxv
 BYTE   W01
 BYTE   VOL   40*TheSwan_mvl/mxv
 BYTE   W02
 BYTE   VOL   40*TheSwan_mvl/mxv
 BYTE   W01
 BYTE   VOL   41*TheSwan_mvl/mxv
 BYTE   W02
 BYTE   VOL   41*TheSwan_mvl/mxv
 BYTE   W02
 BYTE   VOL   42*TheSwan_mvl/mxv
 BYTE   W01
 BYTE   VOL   42*TheSwan_mvl/mxv
 BYTE   W02
 BYTE   VOL   42*TheSwan_mvl/mxv
 BYTE   W01
 BYTE   VOL   43*TheSwan_mvl/mxv
 BYTE   W02
 BYTE   VOL   43*TheSwan_mvl/mxv
 BYTE   W01
 BYTE   VOL   44*TheSwan_mvl/mxv
 BYTE   W02
 BYTE   VOL   44*TheSwan_mvl/mxv
 BYTE   W01
 BYTE   VOL   45*TheSwan_mvl/mxv
 BYTE   W02
 BYTE   VOL   45*TheSwan_mvl/mxv
 BYTE   W01
 BYTE   VOL   45*TheSwan_mvl/mxv
 BYTE   W02
 BYTE   VOL   46*TheSwan_mvl/mxv
 BYTE   W01
 BYTE   VOL   46*TheSwan_mvl/mxv
 BYTE   W02
 BYTE   VOL   47*TheSwan_mvl/mxv
 BYTE   W01
 BYTE   VOL   47*TheSwan_mvl/mxv
 BYTE   W02
 BYTE   VOL   48*TheSwan_mvl/mxv
 BYTE   W02
 BYTE   VOL   48*TheSwan_mvl/mxv
 BYTE   W01
 BYTE   VOL   48*TheSwan_mvl/mxv
 BYTE   W02
//  #05 //030   ----------------------------------------
 BYTE   VOL   49*TheSwan_mvl/mxv
 BYTE   W01
 BYTE   VOL   49*TheSwan_mvl/mxv
 BYTE   W02
 BYTE   VOL   50*TheSwan_mvl/mxv
 BYTE   W01
 BYTE   VOL   50*TheSwan_mvl/mxv
 BYTE   W02
 BYTE   VOL   51*TheSwan_mvl/mxv
 BYTE   W01
 BYTE   VOL   51*TheSwan_mvl/mxv
 BYTE   W02
 BYTE   VOL   51*TheSwan_mvl/mxv
 BYTE   W01
 BYTE   VOL   52*TheSwan_mvl/mxv
 BYTE   W02
 BYTE   VOL   52*TheSwan_mvl/mxv
 BYTE   W01
 BYTE   VOL   53*TheSwan_mvl/mxv
 BYTE   W02
 BYTE   VOL   53*TheSwan_mvl/mxv
 BYTE   W01
 BYTE   VOL   54*TheSwan_mvl/mxv
 BYTE   W02
 BYTE   VOL   54*TheSwan_mvl/mxv
 BYTE   W02
 BYTE   VOL   55*TheSwan_mvl/mxv
 BYTE   W66
 BYTE   EOT
 BYTE   W04
 BYTE   W02
 BYTE   VOL   55*TheSwan_mvl/mxv
 BYTE   N24
 BYTE   W02
 BYTE   VOL   54*TheSwan_mvl/mxv
 BYTE   W03
//  #05 //031   ----------------------------------------
 BYTE   VOL   54*TheSwan_mvl/mxv
 BYTE   W02
 BYTE   VOL   53*TheSwan_mvl/mxv
 BYTE   W03
 BYTE   VOL   53*TheSwan_mvl/mxv
 BYTE   W02
 BYTE   VOL   52*TheSwan_mvl/mxv
 BYTE   W03
 BYTE   VOL   52*TheSwan_mvl/mxv
 BYTE   W02
 BYTE   VOL   51*TheSwan_mvl/mxv
 BYTE   W03
 BYTE   VOL   51*TheSwan_mvl/mxv
 BYTE   W02
 BYTE   VOL   51*TheSwan_mvl/mxv
 BYTE   W02
 BYTE   N24  An3
 BYTE   W01
 BYTE   VOL   50*TheSwan_mvl/mxv
 BYTE   W02
 BYTE   VOL   50*TheSwan_mvl/mxv
 BYTE   W03
 BYTE   VOL   49*TheSwan_mvl/mxv
 BYTE   W02
 BYTE   VOL   49*TheSwan_mvl/mxv
 BYTE   W03
 BYTE   VOL   48*TheSwan_mvl/mxv
 BYTE   W02
 BYTE   VOL   48*TheSwan_mvl/mxv
 BYTE   W03
 BYTE   VOL   48*TheSwan_mvl/mxv
 BYTE   W02
 BYTE   VOL   47*TheSwan_mvl/mxv
 BYTE   W03
 BYTE   VOL   47*TheSwan_mvl/mxv
 BYTE   W02
 BYTE   VOL   46*TheSwan_mvl/mxv
 BYTE   W01
 BYTE   N20  En3  v124
 BYTE   W02
 BYTE   VOL   46*TheSwan_mvl/mxv
 BYTE   W03
 BYTE   VOL   45*TheSwan_mvl/mxv
 BYTE   W02
 BYTE   VOL   45*TheSwan_mvl/mxv
 BYTE   W03
 BYTE   VOL   45*TheSwan_mvl/mxv
 BYTE   W02
 BYTE   VOL   44*TheSwan_mvl/mxv
 BYTE   W03
 BYTE   VOL   44*TheSwan_mvl/mxv
 BYTE   W02
 BYTE   VOL   43*TheSwan_mvl/mxv
 BYTE   W03
 BYTE   VOL   43*TheSwan_mvl/mxv
 BYTE   W02
 BYTE   VOL   42*TheSwan_mvl/mxv
 BYTE   W02
 BYTE   N24  Gn3  v120
 BYTE   W01
 BYTE   VOL   42*TheSwan_mvl/mxv
 BYTE   W02
 BYTE   VOL   42*TheSwan_mvl/mxv
 BYTE   W03
 BYTE   VOL   41*TheSwan_mvl/mxv
 BYTE   W02
 BYTE   VOL   41*TheSwan_mvl/mxv
 BYTE   W03
 BYTE   VOL   40*TheSwan_mvl/mxv
 BYTE   W02
 BYTE   VOL   40*TheSwan_mvl/mxv
 BYTE   W03
 BYTE   VOL   39*TheSwan_mvl/mxv
 BYTE   W02
 BYTE   VOL   39*TheSwan_mvl/mxv
 BYTE   W03
 BYTE   VOL   38*TheSwan_mvl/mxv
 BYTE   W02
 BYTE   VOL   38*TheSwan_mvl/mxv
 BYTE   W01
 BYTE   N24  Fs3  v116
 BYTE   W02
 BYTE   VOL   38*TheSwan_mvl/mxv
 BYTE   W03
//  #05 //032   ----------------------------------------
 BYTE   VOL   37*TheSwan_mvl/mxv
 BYTE   W02
 BYTE   VOL   37*TheSwan_mvl/mxv
 BYTE   W03
 BYTE   VOL   36*TheSwan_mvl/mxv
 BYTE   W02
 BYTE   VOL   36*TheSwan_mvl/mxv
 BYTE   W03
 BYTE   VOL   35*TheSwan_mvl/mxv
 BYTE   W02
 BYTE   VOL   35*TheSwan_mvl/mxv
 BYTE   W03
 BYTE   VOL   35*TheSwan_mvl/mxv
 BYTE   W02
 BYTE   VOL   34*TheSwan_mvl/mxv
 BYTE   W02
 BYTE   N20  Cn3
 BYTE   W01
 BYTE   VOL   34*TheSwan_mvl/mxv
 BYTE   W02
 BYTE   VOL   33*TheSwan_mvl/mxv
 BYTE   W03
 BYTE   VOL   33*TheSwan_mvl/mxv
 BYTE   W02
 BYTE   VOL   32*TheSwan_mvl/mxv
 BYTE   W03
 BYTE   VOL   32*TheSwan_mvl/mxv
 BYTE   W02
 BYTE   VOL   32*TheSwan_mvl/mxv
 BYTE   W03
 BYTE   VOL   31*TheSwan_mvl/mxv
 BYTE   W02
 BYTE   VOL   31*TheSwan_mvl/mxv
 BYTE   W03
 BYTE   VOL   30*TheSwan_mvl/mxv
 BYTE   W01
 BYTE   W02
 BYTE   VOL   30*TheSwan_mvl/mxv
 BYTE   N24  En3  v112
 BYTE   W02
 BYTE   VOL   30*TheSwan_mvl/mxv
 BYTE   W02
 BYTE   VOL   31*TheSwan_mvl/mxv
 BYTE   W02
 BYTE   VOL   31*TheSwan_mvl/mxv
 BYTE   W02
 BYTE   VOL   32*TheSwan_mvl/mxv
 BYTE   W02
 BYTE   VOL   32*TheSwan_mvl/mxv
 BYTE   W02
 BYTE   VOL   32*TheSwan_mvl/mxv
 BYTE   W02
 BYTE   VOL   33*TheSwan_mvl/mxv
 BYTE   W02
 BYTE   VOL   33*TheSwan_mvl/mxv
 BYTE   W02
 BYTE   VOL   34*TheSwan_mvl/mxv
 BYTE   W03
 BYTE   VOL   34*TheSwan_mvl/mxv
 BYTE   W02
 BYTE   VOL   35*TheSwan_mvl/mxv
 BYTE   W01
 BYTE   N24  Dn3  v108
 BYTE   W01
 BYTE   VOL   35*TheSwan_mvl/mxv
 BYTE   W02
 BYTE   VOL   35*TheSwan_mvl/mxv
 BYTE   W02
 BYTE   VOL   36*TheSwan_mvl/mxv
 BYTE   W02
 BYTE   VOL   36*TheSwan_mvl/mxv
 BYTE   W02
 BYTE   VOL   37*TheSwan_mvl/mxv
 BYTE   W02
 BYTE   VOL   37*TheSwan_mvl/mxv
 BYTE   W02
 BYTE   VOL   38*TheSwan_mvl/mxv
 BYTE   W03
 BYTE   VOL   38*TheSwan_mvl/mxv
 BYTE   W02
 BYTE   VOL   38*TheSwan_mvl/mxv
 BYTE   W02
 BYTE   VOL   39*TheSwan_mvl/mxv
 BYTE   W02
 BYTE   VOL   39*TheSwan_mvl/mxv
 BYTE   W02
 BYTE   VOL   40*TheSwan_mvl/mxv
 BYTE   N20  Gn2  v104
 BYTE   W02
 BYTE   VOL   40*TheSwan_mvl/mxv
 BYTE   W02
 BYTE   VOL   41*TheSwan_mvl/mxv
 BYTE   W02
//  #05 //033   ----------------------------------------
 BYTE   VOL   41*TheSwan_mvl/mxv
 BYTE   W02
 BYTE   VOL   42*TheSwan_mvl/mxv
 BYTE   W02
 BYTE   VOL   42*TheSwan_mvl/mxv
 BYTE   W03
 BYTE   VOL   42*TheSwan_mvl/mxv
 BYTE   W02
 BYTE   VOL   43*TheSwan_mvl/mxv
 BYTE   W02
 BYTE   VOL   43*TheSwan_mvl/mxv
 BYTE   W02
 BYTE   VOL   44*TheSwan_mvl/mxv
 BYTE   W02
 BYTE   VOL   44*TheSwan_mvl/mxv
 BYTE   W02
 BYTE   VOL   45*TheSwan_mvl/mxv
 BYTE   W01
 BYTE   N24  An2
 BYTE   W01
 BYTE   VOL   45*TheSwan_mvl/mxv
 BYTE   W02
 BYTE   VOL   45*TheSwan_mvl/mxv
 BYTE   W02
 BYTE   VOL   46*TheSwan_mvl/mxv
 BYTE   W03
 BYTE   VOL   46*TheSwan_mvl/mxv
 BYTE   W02
 BYTE   VOL   47*TheSwan_mvl/mxv
 BYTE   W02
 BYTE   VOL   47*TheSwan_mvl/mxv
 BYTE   W02
 BYTE   VOL   48*TheSwan_mvl/mxv
 BYTE   W02
 BYTE   VOL   48*TheSwan_mvl/mxv
 BYTE   W02
 BYTE   VOL   48*TheSwan_mvl/mxv
 BYTE   W02
 BYTE   VOL   49*TheSwan_mvl/mxv
 BYTE   W02
 BYTE   VOL   49*TheSwan_mvl/mxv
 BYTE   W02
 BYTE   VOL   50*TheSwan_mvl/mxv
 BYTE   N24  Bn2  v100
 BYTE   W02
 BYTE   VOL   50*TheSwan_mvl/mxv
 BYTE   W03
 BYTE   VOL   51*TheSwan_mvl/mxv
 BYTE   W02
 BYTE   VOL   51*TheSwan_mvl/mxv
 BYTE   W02
 BYTE   VOL   51*TheSwan_mvl/mxv
 BYTE   W02
 BYTE   VOL   52*TheSwan_mvl/mxv
 BYTE   W02
 BYTE   VOL   52*TheSwan_mvl/mxv
 BYTE   W02
 BYTE   VOL   53*TheSwan_mvl/mxv
 BYTE   W02
 BYTE   VOL   53*TheSwan_mvl/mxv
 BYTE   W02
 BYTE   VOL   54*TheSwan_mvl/mxv
 BYTE   W02
 BYTE   VOL   54*TheSwan_mvl/mxv
 BYTE   W03
 BYTE   VOL   54*TheSwan_mvl/mxv
 BYTE   N20  Gn2  v096
 BYTE   W01
 BYTE   VOL   53*TheSwan_mvl/mxv
 BYTE   W01
 BYTE   VOL   53*TheSwan_mvl/mxv
 BYTE   W01
 BYTE   VOL   52*TheSwan_mvl/mxv
 BYTE   W01
 BYTE   VOL   51*TheSwan_mvl/mxv
 BYTE   W01
 BYTE   VOL   51*TheSwan_mvl/mxv
 BYTE   W01
 BYTE   VOL   50*TheSwan_mvl/mxv
 BYTE   W01
 BYTE   VOL   49*TheSwan_mvl/mxv
 BYTE   W01
 BYTE   VOL   49*TheSwan_mvl/mxv
 BYTE   W01
 BYTE   VOL   48*TheSwan_mvl/mxv
 BYTE   W01
 BYTE   VOL   48*TheSwan_mvl/mxv
 BYTE   W01
 BYTE   VOL   47*TheSwan_mvl/mxv
 BYTE   W01
 BYTE   VOL   46*TheSwan_mvl/mxv
 BYTE   W01
 BYTE   VOL   45*TheSwan_mvl/mxv
 BYTE   W01
 BYTE   VOL   45*TheSwan_mvl/mxv
 BYTE   W01
 BYTE   VOL   44*TheSwan_mvl/mxv
 BYTE   W01
 BYTE   VOL   43*TheSwan_mvl/mxv
 BYTE   W01
 BYTE   VOL   43*TheSwan_mvl/mxv
 BYTE   W01
 BYTE   VOL   42*TheSwan_mvl/mxv
 BYTE   W01
 BYTE   VOL   42*TheSwan_mvl/mxv
 BYTE   W01
 BYTE   VOL   41*TheSwan_mvl/mxv
 BYTE   W01
 BYTE   VOL   40*TheSwan_mvl/mxv
 BYTE   W01
 BYTE   VOL   39*TheSwan_mvl/mxv
 BYTE   W01
 BYTE   VOL   39*TheSwan_mvl/mxv
 BYTE   W01
 BYTE   VOL   54*TheSwan_mvl/mxv
 BYTE   N66  Bn2  v108
 BYTE   W01
 BYTE   VOL   53*TheSwan_mvl/mxv
 BYTE   W01
 BYTE   VOL   53*TheSwan_mvl/mxv
 BYTE   W01
 BYTE   VOL   52*TheSwan_mvl/mxv
 BYTE   W01
 BYTE   VOL   51*TheSwan_mvl/mxv
 BYTE   W01
 BYTE   VOL   51*TheSwan_mvl/mxv
 BYTE   W01
//  #05 //034   ----------------------------------------
 BYTE   VOL   50*TheSwan_mvl/mxv
 BYTE   W01
 BYTE   VOL   49*TheSwan_mvl/mxv
 BYTE   W01
 BYTE   VOL   49*TheSwan_mvl/mxv
 BYTE   W01
 BYTE   VOL   48*TheSwan_mvl/mxv
 BYTE   W01
 BYTE   VOL   48*TheSwan_mvl/mxv
 BYTE   W01
 BYTE   VOL   47*TheSwan_mvl/mxv
 BYTE   W01
 BYTE   VOL   46*TheSwan_mvl/mxv
 BYTE   W01
 BYTE   VOL   45*TheSwan_mvl/mxv
 BYTE   W01
 BYTE   VOL   45*TheSwan_mvl/mxv
 BYTE   W01
 BYTE   VOL   44*TheSwan_mvl/mxv
 BYTE   W01
 BYTE   VOL   43*TheSwan_mvl/mxv
 BYTE   W01
 BYTE   VOL   43*TheSwan_mvl/mxv
 BYTE   W01
 BYTE   VOL   42*TheSwan_mvl/mxv
 BYTE   W01
 BYTE   VOL   42*TheSwan_mvl/mxv
 BYTE   W01
 BYTE   VOL   41*TheSwan_mvl/mxv
 BYTE   W01
 BYTE   VOL   40*TheSwan_mvl/mxv
 BYTE   W01
 BYTE   VOL   39*TheSwan_mvl/mxv
 BYTE   W01
 BYTE   VOL   39*TheSwan_mvl/mxv
 BYTE   W01
 BYTE   VOL   38*TheSwan_mvl/mxv
 BYTE   W08
 BYTE   VOL   38*TheSwan_mvl/mxv
 BYTE   W09
 BYTE   VOL   38*TheSwan_mvl/mxv
 BYTE   W09
 BYTE   VOL   37*TheSwan_mvl/mxv
 BYTE   W09
 BYTE   VOL   37*TheSwan_mvl/mxv
 BYTE   W09
 BYTE   VOL   36*TheSwan_mvl/mxv
 BYTE   W04
 BYTE   N24  Cn3
 BYTE   W04
 BYTE   VOL   36*TheSwan_mvl/mxv
 BYTE   W09
 BYTE   VOL   35*TheSwan_mvl/mxv
 BYTE   W09
 BYTE   VOL   35*TheSwan_mvl/mxv
 BYTE   W02
 BYTE   N24  Dn3
 BYTE   W07
//  #05 //035   ----------------------------------------
 BYTE   VOL   35*TheSwan_mvl/mxv
 BYTE   W09
 BYTE   VOL   34*TheSwan_mvl/mxv
 BYTE   W08
 BYTE   VOL   34*TheSwan_mvl/mxv
 BYTE   N20  Bn2
 BYTE   W09
 BYTE   VOL   33*TheSwan_mvl/mxv
 BYTE   W09
 BYTE   VOL   33*TheSwan_mvl/mxv
 BYTE   W04
 BYTE   W02
 BYTE   N66  En3
 BYTE   W03
 BYTE   VOL   32*TheSwan_mvl/mxv
 BYTE   W09
 BYTE   VOL   32*TheSwan_mvl/mxv
 BYTE   W08
 BYTE   VOL   32*TheSwan_mvl/mxv
 BYTE   W09
 BYTE   VOL   31*TheSwan_mvl/mxv
 BYTE   W09
 BYTE   VOL   31*TheSwan_mvl/mxv
 BYTE   W09
 BYTE   VOL   30*TheSwan_mvl/mxv
 BYTE   W09
//  #05 //036   ----------------------------------------
 BYTE   VOL   30*TheSwan_mvl/mxv
 BYTE   W08
 BYTE   VOL   29*TheSwan_mvl/mxv
 BYTE   W08
 BYTE   N24
 BYTE   W01
 BYTE   VOL   29*TheSwan_mvl/mxv
 BYTE   W09
 BYTE   VOL   29*TheSwan_mvl/mxv
 BYTE   W09
 BYTE   VOL   28*TheSwan_mvl/mxv
 BYTE   W05
 BYTE   N24  Fs3
 BYTE   W04
 BYTE   VOL   28*TheSwan_mvl/mxv
 BYTE   W08
 BYTE   VOL   27*TheSwan_mvl/mxv
 BYTE   W09
 BYTE   VOL   27*TheSwan_mvl/mxv
 BYTE   W03
 BYTE   N20  Dn3
 BYTE   W06
 BYTE   VOL   26*TheSwan_mvl/mxv
 BYTE   W09
 BYTE   VOL   26*TheSwan_mvl/mxv
 BYTE   W07
 BYTE   W02
 BYTE   VOL   25*TheSwan_mvl/mxv
 BYTE   TIE  Gn3
 BYTE   W05
 BYTE   VOL   25*TheSwan_mvl/mxv
 BYTE   W05
//  #05 //037   ----------------------------------------
 BYTE   VOL   25*TheSwan_mvl/mxv
 BYTE   W06
 BYTE   VOL   24*TheSwan_mvl/mxv
 BYTE   W05
 BYTE   VOL   24*TheSwan_mvl/mxv
 BYTE   W06
 BYTE   VOL   23*TheSwan_mvl/mxv
 BYTE   W05
 BYTE   VOL   23*TheSwan_mvl/mxv
 BYTE   W05
 BYTE   VOL   22*TheSwan_mvl/mxv
 BYTE   W06
 BYTE   VOL   22*TheSwan_mvl/mxv
 BYTE   W05
 BYTE   VOL   22*TheSwan_mvl/mxv
 BYTE   W06
 BYTE   VOL   21*TheSwan_mvl/mxv
 BYTE   W05
 BYTE   VOL   21*TheSwan_mvl/mxv
 BYTE   W05
 BYTE   VOL   20*TheSwan_mvl/mxv
 BYTE   W06
 BYTE   VOL   20*TheSwan_mvl/mxv
 BYTE   W05
 BYTE   VOL   19*TheSwan_mvl/mxv
 BYTE   W06
 BYTE   VOL   19*TheSwan_mvl/mxv
 BYTE   W05
 BYTE   VOL   19*TheSwan_mvl/mxv
 BYTE   W05
 BYTE   VOL   18*TheSwan_mvl/mxv
 BYTE   W06
 BYTE   VOL   18*TheSwan_mvl/mxv
 BYTE   W05
 BYTE   VOL   17*TheSwan_mvl/mxv
 BYTE   W06
//  #05 //038   ----------------------------------------
 BYTE   VOL   17*TheSwan_mvl/mxv
 BYTE   W05
 BYTE   VOL   16*TheSwan_mvl/mxv
 BYTE   W05
 BYTE   VOL   16*TheSwan_mvl/mxv
 BYTE   W06
 BYTE   VOL   16*TheSwan_mvl/mxv
 BYTE   W05
 BYTE   VOL   15*TheSwan_mvl/mxv
 BYTE   W06
 BYTE   VOL   15*TheSwan_mvl/mxv
 BYTE   W05
 BYTE   VOL   14*TheSwan_mvl/mxv
 BYTE   W02
 BYTE   W03
 BYTE   VOL   14*TheSwan_mvl/mxv
 BYTE   W06
 BYTE   VOL   13*TheSwan_mvl/mxv
 BYTE   W05
 BYTE   VOL   13*TheSwan_mvl/mxv
 BYTE   W06
 BYTE   VOL   12*TheSwan_mvl/mxv
 BYTE   W05
 BYTE   VOL   12*TheSwan_mvl/mxv
 BYTE   W05
 BYTE   VOL   12*TheSwan_mvl/mxv
 BYTE   W06
 BYTE   VOL   11*TheSwan_mvl/mxv
 BYTE   W05
 BYTE   VOL   11*TheSwan_mvl/mxv
 BYTE   W06
 BYTE   VOL   10*TheSwan_mvl/mxv
 BYTE   W05
 BYTE   VOL   10*TheSwan_mvl/mxv
 BYTE   W05
 BYTE   VOL   9*TheSwan_mvl/mxv
 BYTE   W06
//  #05 //039   ----------------------------------------
 BYTE   VOL   9*TheSwan_mvl/mxv
 BYTE   W05
 BYTE   VOL   9*TheSwan_mvl/mxv
 BYTE   W06
 BYTE   VOL   8*TheSwan_mvl/mxv
 BYTE   W11
 BYTE   EOT
 BYTE   W56
 BYTE   W03
 BYTE   W96
//  #05 //040   ----------------------------------------
 BYTE   W48
 BYTE   GoTo
  POIN2 Label_01620A72
//  #05 //041   ----------------------------------------
 BYTE   W02
 BYTE   FINE

//******************************************************//
	ALIGN 4

TheSwan:
	BYTE	5	// NumTrks
	BYTE	0	// NumBlks
	BYTE	TheSwan_pri	// Priority
	BYTE	TheSwan_rev	// Reverb.
    
	POIN2	TheSwan_grp
    
	POIN2	TheSwan_001
	POIN2	TheSwan_002
	POIN2	TheSwan_003
	POIN2	TheSwan_004
	POIN2	TheSwan_005

	
