//Event file generated from Sappy .s format.
	#include "MPlayDef.event"

	#define	TheWeightOfLife_grp  voicegroup000
	#define	TheWeightOfLife_pri  0
	#define	TheWeightOfLife_rev  0
	#define	TheWeightOfLife_mvl  127
	#define	TheWeightOfLife_key  0
	#define	TheWeightOfLife_tbs  1
	#define	TheWeightOfLife_exg  0
	#define	TheWeightOfLife_cmp  1

	// .rodata
	//	TheWeightOfLife
	ALIGN 4


//**************** Track 1 (Midi-Chn.0) ****************//

TheWeightOfLife_001:
//  #01 //000   ----------------------------------------
 BYTE   KEYSH   TheWeightOfLife_key+0
 BYTE   TEMPO   114*TheWeightOfLife_tbs/2
 BYTE   VOICE   73
 BYTE   VOL   42*TheWeightOfLife_mvl/mxv
 BYTE   PAN   c_v+0
 BYTE   VOL   42*TheWeightOfLife_mvl/mxv
 BYTE   PAN   c_v+0
 BYTE   W24
Label_01006B47:
 BYTE   W72
//  #01 //001   ----------------------------------------
 BYTE   W24
 BYTE   TEMPO   116*TheWeightOfLife_tbs/2
 BYTE   W72
//  #01 //002   ----------------------------------------
 BYTE   TEMPO   126*TheWeightOfLife_tbs/2
 BYTE   W24
 BYTE   TEMPO   120*TheWeightOfLife_tbs/2
 BYTE   W72
//  #01 //003   ----------------------------------------
 BYTE   TEMPO   120*TheWeightOfLife_tbs/2
 BYTE   W24
 BYTE   TEMPO   120*TheWeightOfLife_tbs/2
 BYTE   W48
 BYTE   TEMPO   122*TheWeightOfLife_tbs/2
 BYTE   W24
//  #01 //004   ----------------------------------------
 BYTE   W96
//  #01 //005   ----------------------------------------
 BYTE   W96
//  #01 //006   ----------------------------------------
 BYTE   W96
//  #01 //007   ----------------------------------------
 BYTE   W96
//  #01 //008   ----------------------------------------
 BYTE   W24
 BYTE   TEMPO   168*TheWeightOfLife_tbs/2
 BYTE   W72
//  #01 //009   ----------------------------------------
 BYTE   W96
//  #01 //010   ----------------------------------------
 BYTE   W96
//  #01 //011   ----------------------------------------
 BYTE   W96
//  #01 //012   ----------------------------------------
 BYTE   W96
//  #01 //013   ----------------------------------------
 BYTE   W96
//  #01 //014   ----------------------------------------
 BYTE   W96
//  #01 //015   ----------------------------------------
 BYTE   W96
//  #01 //016   ----------------------------------------
 BYTE   W96
//  #01 //017   ----------------------------------------
 BYTE   W96
//  #01 //018   ----------------------------------------
 BYTE   W96
//  #01 //019   ----------------------------------------
 BYTE   W96
//  #01 //020   ----------------------------------------
 BYTE   W96
//  #01 //021   ----------------------------------------
 BYTE   W96
//  #01 //022   ----------------------------------------
 BYTE   W96
//  #01 //023   ----------------------------------------
 BYTE   W96
//  #01 //024   ----------------------------------------
 BYTE   W96
//  #01 //025   ----------------------------------------
 BYTE   W96
//  #01 //026   ----------------------------------------
 BYTE   W96
//  #01 //027   ----------------------------------------
 BYTE   W96
//  #01 //028   ----------------------------------------
 BYTE   W96
//  #01 //029   ----------------------------------------
 BYTE   W96
//  #01 //030   ----------------------------------------
 BYTE   W96
//  #01 //031   ----------------------------------------
 BYTE   W96
//  #01 //032   ----------------------------------------
 BYTE   W96
//  #01 //033   ----------------------------------------
 BYTE   W24
 BYTE   N52  Fs3  v112
 BYTE   W60
 BYTE   N11  En3
 BYTE   W12
//  #01 //034   ----------------------------------------
 BYTE   Dn3
 BYTE   W12
 BYTE   N52  Cs3
 BYTE   W12
 BYTE   W48
 BYTE   N23  Bn2
 BYTE   W24
//  #01 //035   ----------------------------------------
 BYTE   En3
 BYTE   W24
 BYTE   N64  Cs3  v096
 BYTE   W72
//  #01 //036   ----------------------------------------
 BYTE   N11  An2
 BYTE   W12
 BYTE   TIE  Fs2
 BYTE   W12
 BYTE   W72
//  #01 //037   ----------------------------------------
 BYTE   W17
 BYTE   EOT
 BYTE   W07
 BYTE   N52  Fs3  v112
 BYTE   W60
 BYTE   N11  En3
 BYTE   W12
//  #01 //038   ----------------------------------------
 BYTE   Dn3
 BYTE   W12
 BYTE   N52  Cs3
 BYTE   W12
 BYTE   W48
 BYTE   N23  Fs2
 BYTE   W24
//  #01 //039   ----------------------------------------
 BYTE   En3
 BYTE   W24
 BYTE   N32  Cs3
 BYTE   W36
 BYTE   TIE  Dn3
 BYTE   W12
 BYTE   W24
//  #01 //040   ----------------------------------------
 BYTE   W24
 BYTE   W72
//  #01 //041   ----------------------------------------
 BYTE   W23
 BYTE   EOT
 BYTE   W72
 BYTE   W01
//  #01 //042   ----------------------------------------
 BYTE   W96
//  #01 //043   ----------------------------------------
 BYTE   W96
//  #01 //044   ----------------------------------------
 BYTE   W96
//  #01 //045   ----------------------------------------
Label_01006BBE:
 BYTE   W24
 BYTE   N11  Fs3  v112
 BYTE   W36
 BYTE   N11
 BYTE   W36
 BYTE   PEND 
//  #01 //046   ----------------------------------------
 BYTE   PATT
  POIN2 Label_01006BBE
//  #01 //047   ----------------------------------------
 BYTE   W96
//  #01 //048   ----------------------------------------
 BYTE   W96
//  #01 //049   ----------------------------------------
 BYTE   W96
//  #01 //050   ----------------------------------------
 BYTE   W96
//  #01 //051   ----------------------------------------
 BYTE   W96
//  #01 //052   ----------------------------------------
 BYTE   W96
//  #01 //053   ----------------------------------------
Label_01006BD1:
 BYTE   W24
 BYTE   TIE  Bn1  v096
 BYTE   W72
 BYTE   PEND 
//  #01 //054   ----------------------------------------
 BYTE   W24
 BYTE   W72
//  #01 //055   ----------------------------------------
 BYTE   W23
 BYTE   EOT
 BYTE   W01
 BYTE   TIE  An1
 BYTE   W72
//  #01 //056   ----------------------------------------
 BYTE   W24
 BYTE   W72
//  #01 //057   ----------------------------------------
 BYTE   W23
 BYTE   EOT
 BYTE   W01
 BYTE   TIE  Gn1
 BYTE   W72
//  #01 //058   ----------------------------------------
 BYTE   W24
 BYTE   W72
//  #01 //059   ----------------------------------------
 BYTE   W23
 BYTE   EOT
 BYTE   W01
 BYTE   N92  Fs1
 BYTE   W72
//  #01 //060   ----------------------------------------
 BYTE   W72
 BYTE   N23  Dn3  v112
 BYTE   W24
//  #01 //061   ----------------------------------------
Label_01006BF4:
 BYTE   N23  En3  v112
 BYTE   W24
 BYTE   N68  Fs3
 BYTE   W72
 BYTE   PEND 
//  #01 //062   ----------------------------------------
Label_01006BFC:
 BYTE   N11  En3  v112
 BYTE   W12
 BYTE   N32  An3
 BYTE   W12
 BYTE   W24
 BYTE   N23  Gn3
 BYTE   W24
 BYTE   Fs3
 BYTE   W24
 BYTE   PEND 
//  #01 //063   ----------------------------------------
 BYTE   PATT
  POIN2 Label_01006BF4
//  #01 //064   ----------------------------------------
 BYTE   PATT
  POIN2 Label_01006BFC
//  #01 //065   ----------------------------------------
 BYTE   N23  En3  v112
 BYTE   W24
 BYTE   Fs3
 BYTE   W24
 BYTE   N11  En3
 BYTE   W12
 BYTE   N80  Bn2
 BYTE   W12
 BYTE   W24
//  #01 //066   ----------------------------------------
 BYTE   W24
 BYTE   W24
 BYTE   N23
 BYTE   W24
 BYTE   As2
 BYTE   W24
//  #01 //067   ----------------------------------------
 BYTE   N11  Bn2
 BYTE   W12
 BYTE   TIE  Cs3
 BYTE   W12
 BYTE   W72
//  #01 //068   ----------------------------------------
 BYTE   W17
 BYTE   EOT
 BYTE   W78
 BYTE   W01
//  #01 //069   ----------------------------------------
 BYTE   PATT
  POIN2 Label_01006BD1
//  #01 //070   ----------------------------------------
 BYTE   W24
 BYTE   W72
//  #01 //071   ----------------------------------------
 BYTE   W23
 BYTE   EOT
 BYTE   Bn1
 BYTE   W01
 BYTE   TIE  An1  v096
 BYTE   W72
//  #01 //072   ----------------------------------------
 BYTE   W24
 BYTE   W72
//  #01 //073   ----------------------------------------
 BYTE   W23
 BYTE   EOT
 BYTE   W01
 BYTE   TIE  Gn1
 BYTE   W72
//  #01 //074   ----------------------------------------
 BYTE   W24
 BYTE   W72
//  #01 //075   ----------------------------------------
 BYTE   W23
 BYTE   EOT
 BYTE   W01
 BYTE   N92  Fs1
 BYTE   W72
//  #01 //076   ----------------------------------------
 BYTE   W96
//  #01 //077   ----------------------------------------
 BYTE   W96
//  #01 //078   ----------------------------------------
 BYTE   W96
//  #01 //079   ----------------------------------------
 BYTE   W96
//  #01 //080   ----------------------------------------
 BYTE   W96
//  #01 //081   ----------------------------------------
 BYTE   W96
//  #01 //082   ----------------------------------------
 BYTE   W96
//  #01 //083   ----------------------------------------
 BYTE   W96
//  #01 //084   ----------------------------------------
 BYTE   W96
//  #01 //085   ----------------------------------------
 BYTE   W96
//  #01 //086   ----------------------------------------
 BYTE   W96
//  #01 //087   ----------------------------------------
 BYTE   W96
//  #01 //088   ----------------------------------------
 BYTE   W96
//  #01 //089   ----------------------------------------
 BYTE   W96
//  #01 //090   ----------------------------------------
 BYTE   W96
//  #01 //091   ----------------------------------------
 BYTE   W96
//  #01 //092   ----------------------------------------
 BYTE   W96
//  #01 //093   ----------------------------------------
 BYTE   W96
//  #01 //094   ----------------------------------------
 BYTE   W96
//  #01 //095   ----------------------------------------
 BYTE   W96
//  #01 //096   ----------------------------------------
 BYTE   W96
//  #01 //097   ----------------------------------------
 BYTE   W96
//  #01 //098   ----------------------------------------
 BYTE   W96
//  #01 //099   ----------------------------------------
 BYTE   W96
//  #01 //100   ----------------------------------------
 BYTE   W96
//  #01 //101   ----------------------------------------
 BYTE   W96
//  #01 //102   ----------------------------------------
 BYTE   W96
//  #01 //103   ----------------------------------------
 BYTE   W96
//  #01 //104   ----------------------------------------
 BYTE   W96
//  #01 //105   ----------------------------------------
 BYTE   W96
//  #01 //106   ----------------------------------------
 BYTE   W96
//  #01 //107   ----------------------------------------
 BYTE   W96
//  #01 //108   ----------------------------------------
 BYTE   W96
//  #01 //109   ----------------------------------------
 BYTE   W96
//  #01 //110   ----------------------------------------
 BYTE   W96
//  #01 //111   ----------------------------------------
 BYTE   W96
//  #01 //112   ----------------------------------------
 BYTE   W96
//  #01 //113   ----------------------------------------
 BYTE   W96
//  #01 //114   ----------------------------------------
 BYTE   W96
//  #01 //115   ----------------------------------------
 BYTE   W96
//  #01 //116   ----------------------------------------
 BYTE   W96
//  #01 //117   ----------------------------------------
 BYTE   W96
//  #01 //118   ----------------------------------------
 BYTE   W96
//  #01 //119   ----------------------------------------
 BYTE   W96
//  #01 //120   ----------------------------------------
 BYTE   W72
 BYTE   N11  Cs4  v127
 BYTE   W12
 BYTE   Ds4
 BYTE   W12
//  #01 //121   ----------------------------------------
 BYTE   Fn4
 BYTE   W12
 BYTE   Gs4
 BYTE   W12
 BYTE   N05  As4
 BYTE   W06
 BYTE   Gs4
 BYTE   W06
 BYTE   N68  As4
 BYTE   W60
//  #01 //122   ----------------------------------------
 BYTE   W12
 BYTE   N11
 BYTE   W12
 BYTE   N68  Cn5
 BYTE   W48
 BYTE   W24
//  #01 //123   ----------------------------------------
 BYTE   N05  Cs5
 BYTE   W06
 BYTE   Cn5
 BYTE   W06
 BYTE   Gs4
 BYTE   W06
 BYTE   N96  Fn4
 BYTE   W06
 BYTE   W48
 BYTE   W24
//  #01 //124   ----------------------------------------
 BYTE   W24
 BYTE   N22  Ds4
 BYTE   W24
 BYTE   Fn4
 BYTE   W24
 BYTE   N44  Cs4
 BYTE   W24
//  #01 //125   ----------------------------------------
 BYTE   W24
 BYTE   N90  Cn4
 BYTE   W48
 BYTE   W24
//  #01 //126   ----------------------------------------
 BYTE   W24
 BYTE   N02  As3
 BYTE   W02
 BYTE   Cn4
 BYTE   W04
 BYTE   N36  As3
 BYTE   W42
 BYTE   N44  Gs3
 BYTE   W24
//  #01 //127   ----------------------------------------
 BYTE   W24
 BYTE   As3
 BYTE   W48
 BYTE   N11
 BYTE   N11  Fn4
 BYTE   W12
 BYTE   N02  Fs4
 BYTE   N02  As4
 BYTE   W03
 BYTE   Fn4
 BYTE   N02  Gs4
 BYTE   W03
 BYTE   Fs4
 BYTE   N02  As4
 BYTE   W03
 BYTE   N24  Fn4
 BYTE   N24  Gs4
 BYTE   W03
//  #01 //128   ----------------------------------------
 BYTE   W24
 BYTE   N90  Ds4
 BYTE   N90  Cn5
 BYTE   W24
 BYTE   TEMPO   160*TheWeightOfLife_tbs/2
 BYTE   W12
 BYTE   TEMPO   148*TheWeightOfLife_tbs/2
 BYTE   W12
 BYTE   TEMPO   136*TheWeightOfLife_tbs/2
 BYTE   W12
 BYTE   TEMPO   126*TheWeightOfLife_tbs/2
 BYTE   W12
//  #01 //129   ----------------------------------------
 BYTE   TEMPO   118*TheWeightOfLife_tbs/2
 BYTE   W12
 BYTE   TEMPO   108*TheWeightOfLife_tbs/2
 BYTE   W12
 BYTE   TEMPO   168*TheWeightOfLife_tbs/2
 BYTE   W06
 BYTE   N05  Fs4
 BYTE   N05  Fs5
 BYTE   W06
 BYTE   N44  Fn4
 BYTE   N44  Fn5
 BYTE   W36
 BYTE   W12
 BYTE   N02  Fn4
 BYTE   N02  Fn5
 BYTE   W02
 BYTE   Fn4
 BYTE   N02  Fn5
 BYTE   W03
 BYTE   Fn4
 BYTE   N02  Fn5
 BYTE   W03
 BYTE   Fn4
 BYTE   N02  Fn5
 BYTE   W03
 BYTE   Fn4
 BYTE   N02  Fn5
 BYTE   W01
//  #01 //130   ----------------------------------------
 BYTE   W02
 BYTE   Fn4
 BYTE   N02  Fn5
 BYTE   W03
 BYTE   Fn4
 BYTE   N02  Fn5
 BYTE   W03
 BYTE   Fn4
 BYTE   N02  Fn5
 BYTE   W03
 BYTE   Fn4
 BYTE   N02  Fn5
 BYTE   W03
 BYTE   Fn4
 BYTE   N02  Fn5
 BYTE   W03
 BYTE   Fn4
 BYTE   N02  Fn5
 BYTE   W03
 BYTE   Fn4
 BYTE   N02  Fn5
 BYTE   W04
 BYTE   N01  Fn4
 BYTE   N01  Fn5
 BYTE   W01
 BYTE   Fn4
 BYTE   N01  Fn5
 BYTE   W02
 BYTE   Fn4
 BYTE   N01  Fn5
 BYTE   W01
 BYTE   Fn4
 BYTE   N01  Fn5
 BYTE   W02
 BYTE   Fn4
 BYTE   N01  Fn5
 BYTE   W01
 BYTE   Fn4
 BYTE   N01  Fn5
 BYTE   W02
 BYTE   Fn4
 BYTE   N01  Fn5
 BYTE   W01
 BYTE   Fn4
 BYTE   N01  Fn5
 BYTE   W02
 BYTE   N02  Fn4
 BYTE   N02  Fn5
 BYTE   W02
 BYTE   Fn4
 BYTE   N02  Fn5
 BYTE   W03
 BYTE   Fn4
 BYTE   N02  Fn5
 BYTE   W03
 BYTE   Fn4
 BYTE   N02  Fn5
 BYTE   W03
 BYTE   Fn4
 BYTE   N02  Fn5
 BYTE   W03
 BYTE   Fn4
 BYTE   N02  Fn5
 BYTE   W03
 BYTE   Fn4
 BYTE   N02  Fn5
 BYTE   W03
 BYTE   Fn4
 BYTE   N02  Fn5
 BYTE   W03
 BYTE   Fn4
 BYTE   N02  Fn5
 BYTE   W03
 BYTE   Fn4
 BYTE   N02  Fn5
 BYTE   W03
 BYTE   Fn4
 BYTE   N02  Fn5
 BYTE   W03
 BYTE   Fn4
 BYTE   N02  Fn5
 BYTE   W04
 BYTE   Fn4
 BYTE   N02  Fn5
 BYTE   W02
 BYTE   Fn4
 BYTE   N02  Fn5
 BYTE   W03
 BYTE   Fn4
 BYTE   N02  Fn5
 BYTE   W03
 BYTE   Fn4
 BYTE   N02  Fn5
 BYTE   W03
 BYTE   Fn4
 BYTE   N02  Fn5
 BYTE   W03
 BYTE   Fn4
 BYTE   N02  Fn5
 BYTE   W03
 BYTE   Fn4
 BYTE   N02  Fn5
 BYTE   W03
 BYTE   Fn4
 BYTE   N02  Fn5
 BYTE   W03
 BYTE   Fn4
 BYTE   N02  Fn5
 BYTE   W01
//  #01 //131   ----------------------------------------
 BYTE   W02
 BYTE   Fn4
 BYTE   N02  Fn5
 BYTE   W03
 BYTE   Fn4
 BYTE   N02  Fn5
 BYTE   W03
 BYTE   Fn4
 BYTE   N02  Fn5
 BYTE   W88
//  #01 //132   ----------------------------------------
 BYTE   W96
//  #01 //133   ----------------------------------------
 BYTE   PATT
  POIN2 Label_01006BD1
//  #01 //134   ----------------------------------------
 BYTE   W24
 BYTE   W72
//  #01 //135   ----------------------------------------
 BYTE   W23
 BYTE   EOT
 BYTE   Bn1
 BYTE   W01
 BYTE   TIE  An1  v096
 BYTE   W72
//  #01 //136   ----------------------------------------
 BYTE   W24
 BYTE   W44
 BYTE   W03
 BYTE   EOT
 BYTE   W01
 BYTE   N44  Fs3  v112
 BYTE   W24
//  #01 //137   ----------------------------------------
 BYTE   W24
 BYTE   N68  Dn4
 BYTE   W72
//  #01 //138   ----------------------------------------
 BYTE   N11  Cs4
 BYTE   W12
 BYTE   N80  An3
 BYTE   W12
 BYTE   W48
 BYTE   W24
//  #01 //139   ----------------------------------------
 BYTE   W24
 BYTE   N68
 BYTE   W48
 BYTE   W24
//  #01 //140   ----------------------------------------
 BYTE   N11  Gn3
 BYTE   W12
 BYTE   TIE  Fs3
 BYTE   W12
 BYTE   W06
 BYTE   W06
 BYTE   W06
 BYTE   W06
 BYTE   W06
 BYTE   W06
 BYTE   W06
 BYTE   W06
 BYTE   N44  Fs4  v096
 BYTE   W06
 BYTE   W06
 BYTE   W06
 BYTE   W06
//  #01 //141   ----------------------------------------
 BYTE   W06
 BYTE   W06
 BYTE   W06
 BYTE   W05
 BYTE   EOT
 BYTE   Fs3
 BYTE   W01
 BYTE   N05  Bn4  v127
 BYTE   W06
 BYTE   An4
 BYTE   W06
 BYTE   N68  Bn4
 BYTE   W48
 BYTE   W12
//  #01 //142   ----------------------------------------
 BYTE   W12
 BYTE   N05
 BYTE   W06
 BYTE   An4
 BYTE   W06
 BYTE   N32  Bn4
 BYTE   W36
 BYTE   N05
 BYTE   W06
 BYTE   An4
 BYTE   W06
 BYTE   N32  Cs5
 BYTE   W24
//  #01 //143   ----------------------------------------
 BYTE   W12
 BYTE   N05  Dn5
 BYTE   W06
 BYTE   Cs5
 BYTE   W06
 BYTE   N68  Fs4
 BYTE   W48
 BYTE   W24
//  #01 //144   ----------------------------------------
 BYTE   N11  En4
 BYTE   W12
 BYTE   N32  An4
 BYTE   W12
 BYTE   W24
 BYTE   N22  Gn4
 BYTE   W24
 BYTE   Fs4
 BYTE   W24
//  #01 //145   ----------------------------------------
 BYTE   En4
 BYTE   W24
 BYTE   Fs4
 BYTE   W24
 BYTE   N11  En4
 BYTE   W12
 BYTE   N56  Bn3
 BYTE   W36
//  #01 //146   ----------------------------------------
 BYTE   W24
 BYTE   N22  Cs4
 BYTE   W24
 BYTE   Bn3
 BYTE   W24
 BYTE   As3
 BYTE   W24
//  #01 //147   ----------------------------------------
 BYTE   N11  Bn3
 BYTE   W12
 BYTE   N78  Cs4
 BYTE   W60
 BYTE   W24
//  #01 //148   ----------------------------------------
 BYTE   N11
 BYTE   N11  Cs5
 BYTE   W12
 BYTE   N48  Fs4
 BYTE   N48  Fs5
 BYTE   W84
//  #01 //149   ----------------------------------------
 BYTE   W24
 BYTE   TIE  Bn1  v096
 BYTE   N78  Bn4  v127
 BYTE   W72
//  #01 //150   ----------------------------------------
 BYTE   W12
 BYTE   TIE  Fs5
 BYTE   W12
 BYTE   W72
//  #01 //151   ----------------------------------------
 BYTE   W18
 BYTE   EOT
 BYTE   W05
 BYTE   EOT
 BYTE   Bn1
 BYTE   W01
 BYTE   TIE  An1  v096
 BYTE   N28  Bn5  v127
 BYTE   W24
 BYTE   W06
 BYTE   N02  Fs5
 BYTE   W03
 BYTE   An5
 BYTE   W03
 BYTE   N11  Bn5
 BYTE   W12
 BYTE   N02
 BYTE   W03
 BYTE   Cs6
 BYTE   W03
 BYTE   N22  Bn5
 BYTE   W18
//  #01 //152   ----------------------------------------
 BYTE   W06
 BYTE   N02  Fs5
 BYTE   W03
 BYTE   An5
 BYTE   W03
 BYTE   N11  Bn5
 BYTE   W12
 BYTE   N02
 BYTE   W02
 BYTE   Cs6
 BYTE   W04
 BYTE   N36  Bn5
 BYTE   W42
 BYTE   N44  An5
 BYTE   W24
//  #01 //153   ----------------------------------------
 BYTE   W23
 BYTE   EOT
 BYTE   An1
 BYTE   W01
 BYTE   TIE  Gn1  v096
 BYTE   TIE  Fs5  v127
 BYTE   W72
//  #01 //154   ----------------------------------------
 BYTE   W24
 BYTE   W48
 BYTE   W15
 BYTE   EOT
 BYTE   W09
//  #01 //155   ----------------------------------------
 BYTE   N22
 BYTE   W23
 BYTE   EOT
 BYTE   Gn1
 BYTE   W01
 BYTE   N92  Fs1  v096
 BYTE   N44  Bn5  v127
 BYTE   W48
 BYTE   N02  Dn6
 BYTE   W02
 BYTE   En6
 BYTE   W03
 BYTE   N28  Dn6
 BYTE   W19
//  #01 //156   ----------------------------------------
 BYTE   W12
 BYTE   N05  Cs6
 BYTE   W06
 BYTE   Bn5
 BYTE   W06
 BYTE   N90  An5
 BYTE   W72
//  #01 //157   ----------------------------------------
 BYTE   W96
//  #01 //158   ----------------------------------------
 BYTE   W96
//  #01 //159   ----------------------------------------
 BYTE   W96
//  #01 //160   ----------------------------------------
 BYTE   W48
 BYTE   N22
 BYTE   W24
 BYTE   Bn5
 BYTE   W24
//  #01 //161   ----------------------------------------
 BYTE   Cs6
 BYTE   W24
 BYTE   N22
 BYTE   W24
 BYTE   N11  Dn6
 BYTE   W12
 BYTE   TIE  Bn5
 BYTE   W12
 BYTE   W24
//  #01 //162   ----------------------------------------
 BYTE   W24
 BYTE   W64
 BYTE   W01
 BYTE   EOT
 BYTE   W07
//  #01 //163   ----------------------------------------
 BYTE   N11  Fs5
 BYTE   W12
 BYTE   Bn5
 BYTE   W12
 BYTE   N22  Cs6
 BYTE   W24
 BYTE   N11  Dn6
 BYTE   W12
 BYTE   Bn5
 BYTE   W12
 BYTE   N02
 BYTE   W02
 BYTE   Cs6
 BYTE   W04
 BYTE   N84  Bn5
 BYTE   W18
//  #01 //164   ----------------------------------------
 BYTE   W24
 BYTE   W48
 BYTE   N44  An5
 BYTE   W24
//  #01 //165   ----------------------------------------
 BYTE   W24
 BYTE   TIE  Bn4
 BYTE   TIE  Bn5
 BYTE   W05
 BYTE   W66
 BYTE   W01
//  #01 //166   ----------------------------------------
Label_01006EEA:
 BYTE   W24
 BYTE   W05
 BYTE   W66
 BYTE   W01
 BYTE   PEND 
//  #01 //167   ----------------------------------------
 BYTE   PATT
  POIN2 Label_01006EEA
//  #01 //168   ----------------------------------------
 BYTE   PATT
  POIN2 Label_01006EEA
//  #01 //169   ----------------------------------------
 BYTE   W04
 BYTE   EOT
 BYTE   Bn4
 BYTE   W19
 BYTE   Bn5
 BYTE   W01
 BYTE   TIE  Cs5  v127
 BYTE   TIE  Cs6
 BYTE   W05
 BYTE   W66
 BYTE   W01
//  #01 //170   ----------------------------------------
 BYTE   W24
 BYTE   W05
 BYTE   W56
 BYTE   W02
 BYTE   EOT
 BYTE   Cs5
 BYTE   W08
 BYTE   Cs6
 BYTE   W01
//  #01 //171   ----------------------------------------
 BYTE   N05  Dn5
 BYTE   N05  Dn6
 BYTE   W05
 BYTE   W01
 BYTE   Cs5
 BYTE   N05  Cs6
 BYTE   W05
 BYTE   W01
 BYTE   Bn4
 BYTE   N05  Bn5
 BYTE   W05
 BYTE   W01
 BYTE   An4
 BYTE   N05  An5
 BYTE   W05
 BYTE   W01
 BYTE   TIE  Bn4
 BYTE   TIE  Bn5
 BYTE   W05
 BYTE   W66
 BYTE   W01
//  #01 //172   ----------------------------------------
 BYTE   W96
//  #01 //173   ----------------------------------------
 BYTE   W14
 BYTE   EOT
 BYTE   Bn4
 BYTE   W05
 BYTE   Bn5
 BYTE   W76
 BYTE   W01
//  #01 //174   ----------------------------------------
 BYTE   W96
//  #01 //175   ----------------------------------------
 BYTE   W96
//  #01 //176   ----------------------------------------
 BYTE   W96
//  #01 //177   ----------------------------------------
 BYTE   W96
//  #01 //178   ----------------------------------------
 BYTE   W24
 BYTE   TIE  En4  v080
 BYTE   TIE  Bn4  v112
 BYTE   TIE  Bn5
 BYTE   W01
 BYTE   W02
 BYTE   W01
 BYTE   W02
 BYTE   W01
 BYTE   W02
 BYTE   W01
 BYTE   W02
 BYTE   W01
 BYTE   W02
 BYTE   W01
 BYTE   W02
 BYTE   W01
 BYTE   W02
 BYTE   W01
 BYTE   W02
 BYTE   W01
 BYTE   W02
 BYTE   W44
 BYTE   W01
//  #01 //179   ----------------------------------------
 BYTE   W24
 BYTE   W72
//  #01 //180   ----------------------------------------
 BYTE   W24
 BYTE   W72
//  #01 //181   ----------------------------------------
 BYTE   W09
 BYTE   EOT
 BYTE   Bn4  v095
 BYTE   W14
 BYTE   En4
 BYTE   W72
 BYTE   W01
//  #01 //182   ----------------------------------------
 BYTE   GoTo
  POIN2 Label_01006B47
 BYTE   FINE

//**************** Track 2 (Midi-Chn.1) ****************//

TheWeightOfLife_002:
//  #02 //000   ----------------------------------------
 BYTE   KEYSH   TheWeightOfLife_key+0
 BYTE   VOICE   1
 BYTE   VOL   42*TheWeightOfLife_mvl/mxv
 BYTE   PAN   c_v+0
 BYTE   VOL   42*TheWeightOfLife_mvl/mxv
 BYTE   PAN   c_v+0
 BYTE   W24
Label_01009A15:
 BYTE   N68  Dn5  v096
 BYTE   W48
 BYTE   W24
//  #02 //001   ----------------------------------------
 BYTE   N11  Cs5
 BYTE   W12
 BYTE   Dn5
 BYTE   W12
 BYTE   N68  An4
 BYTE   W48
 BYTE   W24
//  #02 //002   ----------------------------------------
 BYTE   N11  Fs4
 BYTE   W12
 BYTE   Gn4
 BYTE   W12
 BYTE   N68  Fs4
 BYTE   W48
 BYTE   W24
//  #02 //003   ----------------------------------------
 BYTE   N23  En4
 BYTE   W24
 BYTE   N56  Fs4
 BYTE   W48
 BYTE   W12
 BYTE   N11  Dn4
 BYTE   W12
//  #02 //004   ----------------------------------------
 BYTE   Fs4
 BYTE   W12
 BYTE   An4
 BYTE   W12
 BYTE   N68  Bn4
 BYTE   W48
 BYTE   W24
//  #02 //005   ----------------------------------------
 BYTE   N11  An4
 BYTE   W12
 BYTE   Bn4
 BYTE   W12
 BYTE   N56  Cs5
 BYTE   W12
 BYTE   W12
 BYTE   W12
 BYTE   W12
 BYTE   W12
 BYTE   N11  Fs4  v104
 BYTE   W12
//  #02 //006   ----------------------------------------
 BYTE   An4
 BYTE   W12
 BYTE   Cs5
 BYTE   W12
 BYTE   N68  Dn5
 BYTE   W12
 BYTE   W12
 BYTE   W12
 BYTE   W12
 BYTE   W12
 BYTE   W12
//  #02 //007   ----------------------------------------
 BYTE   N11  En5  v112
 BYTE   W12
 BYTE   Fn5
 BYTE   W12
 BYTE   N88  Fs5
 BYTE   W48
 BYTE   W24
//  #02 //008   ----------------------------------------
 BYTE   W96
//  #02 //009   ----------------------------------------
 BYTE   W96
//  #02 //010   ----------------------------------------
 BYTE   W96
//  #02 //011   ----------------------------------------
 BYTE   W96
//  #02 //012   ----------------------------------------
 BYTE   W96
//  #02 //013   ----------------------------------------
 BYTE   W24
 BYTE   TIE  Fs4  v080
 BYTE   W18
 BYTE   W18
 BYTE   W18
 BYTE   W18
//  #02 //014   ----------------------------------------
 BYTE   W18
 BYTE   W06
 BYTE   W12
 BYTE   W18
 BYTE   W18
 BYTE   W18
 BYTE   W06
//  #02 //015   ----------------------------------------
 BYTE   W12
 BYTE   W12
 BYTE   W06
 BYTE   W18
 BYTE   W18
 BYTE   W18
 BYTE   W12
//  #02 //016   ----------------------------------------
 BYTE   W06
 BYTE   W17
 BYTE   EOT
 BYTE   W01
 BYTE   N11  Bn3  v127
 BYTE   W02
 BYTE   W01
 BYTE   W01
 BYTE   W01
 BYTE   W07
 BYTE   Cs4
 BYTE   W02
 BYTE   W01
 BYTE   W01
 BYTE   W01
 BYTE   W07
 BYTE   An4
 BYTE   W02
 BYTE   W01
 BYTE   W01
 BYTE   W01
 BYTE   W07
 BYTE   N23  En4
 BYTE   W01
 BYTE   W01
 BYTE   W01
 BYTE   W01
 BYTE   W01
 BYTE   W01
 BYTE   W03
 BYTE   W03
 BYTE   W03
 BYTE   W03
 BYTE   W03
 BYTE   W03
 BYTE   N11  Dn4
 BYTE   W01
 BYTE   W01
 BYTE   W01
 BYTE   W01
 BYTE   W01
 BYTE   W01
 BYTE   W03
 BYTE   W03
//  #02 //017   ----------------------------------------
 BYTE   Cs4
 BYTE   W01
 BYTE   W01
 BYTE   W01
 BYTE   W01
 BYTE   W01
 BYTE   W01
 BYTE   W03
 BYTE   W03
 BYTE   An3  v120
 BYTE   W01
 BYTE   W01
 BYTE   W01
 BYTE   W01
 BYTE   W01
 BYTE   W07
 BYTE   N80  Dn4  v080
 BYTE   W48
 BYTE   W24
//  #02 //018   ----------------------------------------
 BYTE   W12
 BYTE   N11  Cs4
 BYTE   W12
 BYTE   N32  Dn4
 BYTE   W36
 BYTE   Cs4
 BYTE   W12
 BYTE   W24
//  #02 //019   ----------------------------------------
 BYTE   N23  An3
 BYTE   W24
 BYTE   N32
 BYTE   W36
 BYTE   TIE  Bn3
 BYTE   W36
//  #02 //020   ----------------------------------------
 BYTE   W72
 BYTE   W23
 BYTE   EOT
 BYTE   W01
//  #02 //021   ----------------------------------------
 BYTE   N11  Dn4
 BYTE   W12
 BYTE   En4
 BYTE   W12
 BYTE   N44  Fs4
 BYTE   W48
 BYTE   N11
 BYTE   W12
 BYTE   An4
 BYTE   W12
//  #02 //022   ----------------------------------------
 BYTE   Gn4
 BYTE   W12
 BYTE   N32  En4
 BYTE   W12
 BYTE   W24
 BYTE   N23  Dn4
 BYTE   W24
 BYTE   Cs4
 BYTE   W24
//  #02 //023   ----------------------------------------
 BYTE   Dn4
 BYTE   W24
 BYTE   N32  Bn3
 BYTE   W36
 BYTE   TIE  Fs4
 BYTE   W12
 BYTE   W24
//  #02 //024   ----------------------------------------
 BYTE   W24
 BYTE   W72
//  #02 //025   ----------------------------------------
 BYTE   W23
 BYTE   EOT
 BYTE   W01
 BYTE   N80  Dn4  v096
 BYTE   W48
 BYTE   W24
//  #02 //026   ----------------------------------------
 BYTE   W12
 BYTE   N11  Cs4
 BYTE   W12
 BYTE   N32  Dn4
 BYTE   W36
 BYTE   Cs4
 BYTE   W12
 BYTE   W24
//  #02 //027   ----------------------------------------
 BYTE   N23  An3
 BYTE   W24
 BYTE   N32
 BYTE   W36
 BYTE   TIE  Bn3
 BYTE   W12
 BYTE   W24
//  #02 //028   ----------------------------------------
 BYTE   W24
 BYTE   W48
 BYTE   W23
 BYTE   EOT
 BYTE   W01
//  #02 //029   ----------------------------------------
 BYTE   N11  Dn4
 BYTE   W12
 BYTE   En4
 BYTE   W12
 BYTE   N44  Fs4
 BYTE   W48
 BYTE   N11
 BYTE   W12
 BYTE   An4
 BYTE   W12
//  #02 //030   ----------------------------------------
 BYTE   Gn4
 BYTE   W12
 BYTE   N56  En4
 BYTE   W12
 BYTE   W48
 BYTE   N23  Dn4
 BYTE   W24
//  #02 //031   ----------------------------------------
 BYTE   En4
 BYTE   W24
 BYTE   N44  Fs4
 BYTE   W48
 BYTE   N11
 BYTE   W12
 BYTE   N23  Cs5
 BYTE   W12
//  #02 //032   ----------------------------------------
 BYTE   W12
 BYTE   TIE  An4
 BYTE   W12
 BYTE   W06
 BYTE   W06
 BYTE   W06
 BYTE   W06
 BYTE   W06
 BYTE   W06
 BYTE   W06
 BYTE   W06
 BYTE   W06
 BYTE   W06
 BYTE   W06
 BYTE   W06
//  #02 //033   ----------------------------------------
 BYTE   W06
 BYTE   W06
 BYTE   W06
 BYTE   W05
 BYTE   EOT
 BYTE   W01
 BYTE   W72
//  #02 //034   ----------------------------------------
 BYTE   W96
//  #02 //035   ----------------------------------------
 BYTE   W96
//  #02 //036   ----------------------------------------
 BYTE   W96
//  #02 //037   ----------------------------------------
 BYTE   W96
//  #02 //038   ----------------------------------------
 BYTE   W96
//  #02 //039   ----------------------------------------
 BYTE   W96
//  #02 //040   ----------------------------------------
 BYTE   W72
 BYTE   N05  Dn4  v112
 BYTE   W06
 BYTE   Cs4
 BYTE   W06
 BYTE   Dn4
 BYTE   W06
 BYTE   Cs4
 BYTE   W06
//  #02 //041   ----------------------------------------
 BYTE   Dn4
 BYTE   W06
 BYTE   En4
 BYTE   W06
 BYTE   Fs4
 BYTE   W06
 BYTE   Gs4
 BYTE   W06
 BYTE   N68  Bn4
 BYTE   W72
//  #02 //042   ----------------------------------------
 BYTE   N11  An4
 BYTE   W12
 BYTE   N56  Bn4
 BYTE   W12
 BYTE   W48
 BYTE   N23  An4
 BYTE   W24
//  #02 //043   ----------------------------------------
 BYTE   Bn4
 BYTE   W24
 BYTE   N68  Cs5
 BYTE   W72
//  #02 //044   ----------------------------------------
 BYTE   N11  Bn4
 BYTE   W12
 BYTE   N56  Cs5
 BYTE   W12
 BYTE   W48
 BYTE   N23  Dn4
 BYTE   W24
//  #02 //045   ----------------------------------------
 BYTE   En4
 BYTE   W24
 BYTE   N11  Fs4
 BYTE   W12
 BYTE   En4
 BYTE   W12
 BYTE   An4
 BYTE   W12
 BYTE   N44  Fs4
 BYTE   W36
//  #02 //046   ----------------------------------------
 BYTE   W24
 BYTE   N11
 BYTE   W12
 BYTE   En4
 BYTE   W12
 BYTE   Cs5
 BYTE   W12
 BYTE   N44  An4
 BYTE   W36
//  #02 //047   ----------------------------------------
 BYTE   W24
 BYTE   TIE  Bn4
 BYTE   W72
//  #02 //048   ----------------------------------------
 BYTE   W24
 BYTE   W06
 BYTE   W07
 BYTE   W02
 BYTE   EOT
 BYTE   W01
 BYTE   N15  An4  v116
 BYTE   W04
 BYTE   W07
 BYTE   W05
 BYTE   Gn4
 BYTE   W02
 BYTE   W07
 BYTE   W07
 BYTE   Fs4  v120
 BYTE   W06
 BYTE   W07
 BYTE   W03
 BYTE   En4  v124
 BYTE   W04
 BYTE   W04
//  #02 //049   ----------------------------------------
 BYTE   W03
 BYTE   W05
 BYTE   Gn4
 BYTE   W02
 BYTE   W07
 BYTE   W07
 BYTE   TIE  Fs4  v127
 BYTE   W72
//  #02 //050   ----------------------------------------
 BYTE   W24
 BYTE   W11
 BYTE   EOT
 BYTE   W13
 BYTE   N23
 BYTE   W24
 BYTE   N11  Bn4
 BYTE   W12
 BYTE   As4
 BYTE   W12
//  #02 //051   ----------------------------------------
 BYTE   W12
 BYTE   TIE  Fs4
 BYTE   W12
 BYTE   W24
 BYTE   N11  As4
 BYTE   W12
 BYTE   Bn4
 BYTE   W12
 BYTE   Cs5
 BYTE   W12
 BYTE   Dn5
 BYTE   W12
//  #02 //052   ----------------------------------------
 BYTE   En5
 BYTE   W12
 BYTE   Fn5
 BYTE   W11
 BYTE   EOT
 BYTE   Fs4
 BYTE   W01
 BYTE   N11  Fs5
 BYTE   W12
 BYTE   N11
 BYTE   W36
 BYTE   N23  Bn4  v112
 BYTE   W24
//  #02 //053   ----------------------------------------
Label_01009BEE:
 BYTE   N23  Cs5  v112
 BYTE   W24
 BYTE   N68  Dn5
 BYTE   W72
 BYTE   PEND 
//  #02 //054   ----------------------------------------
Label_01009BF6:
 BYTE   N11  Cs5  v112
 BYTE   W12
 BYTE   N56  An4
 BYTE   W12
 BYTE   W48
 BYTE   N23  Fs4
 BYTE   W24
 BYTE   PEND 
//  #02 //055   ----------------------------------------
Label_01009C02:
 BYTE   N23  Fs5  v112
 BYTE   W24
 BYTE   En5
 BYTE   W24
 BYTE   N11  Fs5
 BYTE   W12
 BYTE   TIE  Cs5
 BYTE   W12
 BYTE   W24
 BYTE   PEND 
//  #02 //056   ----------------------------------------
 BYTE   W24
 BYTE   W72
//  #02 //057   ----------------------------------------
 BYTE   W23
 BYTE   EOT
 BYTE   W01
 BYTE   N68  Dn5
 BYTE   W72
//  #02 //058   ----------------------------------------
 BYTE   PATT
  POIN2 Label_01009BF6
//  #02 //059   ----------------------------------------
Label_01009C1D:
 BYTE   N23  Fs5  v112
 BYTE   W24
 BYTE   En5
 BYTE   W24
 BYTE   N11  An5
 BYTE   W12
 BYTE   TIE  Cs5
 BYTE   W12
 BYTE   W24
 BYTE   PEND 
//  #02 //060   ----------------------------------------
 BYTE   W24
 BYTE   W72
//  #02 //061   ----------------------------------------
 BYTE   W23
 BYTE   EOT
 BYTE   W01
 BYTE   N92  Fs4  v096
 BYTE   W09
 BYTE   W10
 BYTE   W09
 BYTE   W10
 BYTE   W10
 BYTE   W09
 BYTE   W10
 BYTE   W05
//  #02 //062   ----------------------------------------
 BYTE   W04
 BYTE   W10
 BYTE   W10
 BYTE   An4  v108
 BYTE   W09
 BYTE   W10
 BYTE   W09
 BYTE   W10
 BYTE   W10
 BYTE   W09
 BYTE   W10
 BYTE   W05
//  #02 //063   ----------------------------------------
 BYTE   W04
 BYTE   W10
 BYTE   W10
 BYTE   Bn4  v116
 BYTE   W09
 BYTE   W10
 BYTE   W09
 BYTE   W10
 BYTE   W10
 BYTE   W09
 BYTE   W10
 BYTE   W05
//  #02 //064   ----------------------------------------
 BYTE   W04
 BYTE   W10
 BYTE   W10
 BYTE   N44  Cs5  v127
 BYTE   W48
 BYTE   N23  Dn5
 BYTE   W24
//  #02 //065   ----------------------------------------
Label_01009C5F:
 BYTE   N23  En5  v127
 BYTE   W24
 BYTE   TIE  Fs5
 BYTE   W72
 BYTE   PEND 
//  #02 //066   ----------------------------------------
 BYTE   W24
 BYTE   W72
//  #02 //067   ----------------------------------------
 BYTE   W23
 BYTE   EOT
 BYTE   W01
 BYTE   N88  Cs5
 BYTE   W72
//  #02 //068   ----------------------------------------
 BYTE   W24
 BYTE   N32  Fs5
 BYTE   W01
 BYTE   W01
 BYTE   W01
 BYTE   W01
 BYTE   W01
 BYTE   W42
 BYTE   W01
 BYTE   N23  Bn4  v112
 BYTE   W24
//  #02 //069   ----------------------------------------
 BYTE   PATT
  POIN2 Label_01009BEE
//  #02 //070   ----------------------------------------
 BYTE   PATT
  POIN2 Label_01009BF6
//  #02 //071   ----------------------------------------
 BYTE   PATT
  POIN2 Label_01009C02
//  #02 //072   ----------------------------------------
 BYTE   W24
 BYTE   W72
//  #02 //073   ----------------------------------------
 BYTE   W23
 BYTE   EOT
 BYTE   Cs5
 BYTE   W01
 BYTE   N68  Dn5  v112
 BYTE   W72
//  #02 //074   ----------------------------------------
 BYTE   PATT
  POIN2 Label_01009BF6
//  #02 //075   ----------------------------------------
 BYTE   PATT
  POIN2 Label_01009C1D
//  #02 //076   ----------------------------------------
Label_01009CA0:
 BYTE   W24
 BYTE   W44
 BYTE   W03
 BYTE   PEND 
 BYTE   EOT
 BYTE   Cs5
 BYTE   W01
 BYTE   N23  Dn4  v096
 BYTE   W24
//  #02 //077   ----------------------------------------
Label_01009CAB:
 BYTE   N23  En4  v096
 BYTE   W24
 BYTE   N68  Fs4
 BYTE   W72
 BYTE   PEND 
//  #02 //078   ----------------------------------------
Label_01009CB3:
 BYTE   N11  En4  v096
 BYTE   W12
 BYTE   N32  An4
 BYTE   W36
 BYTE   N23  Gn4
 BYTE   W24
 BYTE   Fs4
 BYTE   W24
 BYTE   PEND 
//  #02 //079   ----------------------------------------
Label_01009CC0:
 BYTE   N23  En4  v096
 BYTE   W24
 BYTE   N68  Fs4
 BYTE   W72
 BYTE   PEND 
//  #02 //080   ----------------------------------------
 BYTE   N11  En4
 BYTE   W12
 BYTE   N32  Fs4
 BYTE   W36
 BYTE   N23  An4  v127
 BYTE   W24
 BYTE   Bn4
 BYTE   W24
//  #02 //081   ----------------------------------------
 BYTE   Cs5
 BYTE   W24
 BYTE   N23
 BYTE   W24
 BYTE   N11  Dn5
 BYTE   W12
 BYTE   TIE  Bn4
 BYTE   W36
//  #02 //082   ----------------------------------------
 BYTE   W92
 BYTE   W03
 BYTE   EOT
 BYTE   W01
//  #02 //083   ----------------------------------------
 BYTE   N11  Fs4
 BYTE   W12
 BYTE   Bn4
 BYTE   W12
 BYTE   N23  Cs5
 BYTE   W24
 BYTE   N11  Dn5
 BYTE   W12
 BYTE   N56  Bn4
 BYTE   W36
//  #02 //084   ----------------------------------------
 BYTE   W24
 BYTE   N92  Fs5
 BYTE   W72
//  #02 //085   ----------------------------------------
 BYTE   W96
//  #02 //086   ----------------------------------------
 BYTE   W96
//  #02 //087   ----------------------------------------
 BYTE   W96
//  #02 //088   ----------------------------------------
 BYTE   W96
//  #02 //089   ----------------------------------------
 BYTE   W24
 BYTE   N11  Fs4  v112
 BYTE   W12
 BYTE   N11
 BYTE   W24
 BYTE   Gn4
 BYTE   W12
 BYTE   N11
 BYTE   W24
//  #02 //090   ----------------------------------------
 BYTE   An4
 BYTE   W12
 BYTE   N11
 BYTE   W24
 BYTE   En4
 BYTE   W12
 BYTE   N11
 BYTE   W24
 BYTE   Gn4
 BYTE   W12
 BYTE   Fs4
 BYTE   W12
//  #02 //091   ----------------------------------------
 BYTE   En4
 BYTE   W12
 BYTE   Gn4
 BYTE   W12
 BYTE   Fs4
 BYTE   W12
 BYTE   N11
 BYTE   W24
 BYTE   Gn4
 BYTE   W12
 BYTE   N11
 BYTE   W24
//  #02 //092   ----------------------------------------
 BYTE   An4
 BYTE   W12
 BYTE   N11
 BYTE   W24
 BYTE   En4
 BYTE   W12
 BYTE   N11
 BYTE   W24
 BYTE   N23  Bn4  v064
 BYTE   W03
 BYTE   W03
 BYTE   W03
 BYTE   W03
 BYTE   W03
 BYTE   W03
 BYTE   W03
 BYTE   W03
//  #02 //093   ----------------------------------------
 BYTE   Cs5  v072
 BYTE   W03
 BYTE   W03
 BYTE   W03
 BYTE   W03
 BYTE   W03
 BYTE   W03
 BYTE   W03
 BYTE   W03
 BYTE   N32  Dn5  v080
 BYTE   W36
 BYTE   Cs5
 BYTE   W36
//  #02 //094   ----------------------------------------
 BYTE   N11  An4
 BYTE   W12
 BYTE   TIE  Fs4
 BYTE   W12
 BYTE   W72
//  #02 //095   ----------------------------------------
 BYTE   W23
 BYTE   EOT
 BYTE   W01
 BYTE   N32  Dn5
 BYTE   W36
 BYTE   Cs5
 BYTE   W36
//  #02 //096   ----------------------------------------
 BYTE   N11  Dn5
 BYTE   W12
 BYTE   N32  En5
 BYTE   W12
 BYTE   W24
 BYTE   N23  Fs5
 BYTE   W24
 BYTE   Cs5
 BYTE   W24
//  #02 //097   ----------------------------------------
 BYTE   An4
 BYTE   W24
 BYTE   TIE  Bn4
 BYTE   W72
//  #02 //098   ----------------------------------------
 BYTE   W24
 BYTE   W15
 BYTE   EOT
 BYTE   W01
 BYTE   N15  An4
 BYTE   W16
 BYTE   Gn4
 BYTE   W16
 BYTE   Fs4
 BYTE   W16
 BYTE   En4
 BYTE   W08
//  #02 //099   ----------------------------------------
 BYTE   W08
 BYTE   Gn4
 BYTE   W16
 BYTE   N92  Fs4
 BYTE   W72
//  #02 //100   ----------------------------------------
 BYTE   W24
 BYTE   N23  Gn4
 BYTE   W24
 BYTE   Fs4
 BYTE   W24
 BYTE   Gn4
 BYTE   W24
//  #02 //101   ----------------------------------------
 BYTE   An4
 BYTE   W96
//  #02 //102   ----------------------------------------
 BYTE   W96
//  #02 //103   ----------------------------------------
 BYTE   W96
//  #02 //104   ----------------------------------------
 BYTE   W96
//  #02 //105   ----------------------------------------
 BYTE   W96
//  #02 //106   ----------------------------------------
 BYTE   W96
//  #02 //107   ----------------------------------------
 BYTE   W96
//  #02 //108   ----------------------------------------
 BYTE   W96
//  #02 //109   ----------------------------------------
 BYTE   W96
//  #02 //110   ----------------------------------------
 BYTE   W96
//  #02 //111   ----------------------------------------
 BYTE   W96
//  #02 //112   ----------------------------------------
 BYTE   W96
//  #02 //113   ----------------------------------------
 BYTE   W96
//  #02 //114   ----------------------------------------
 BYTE   W96
//  #02 //115   ----------------------------------------
 BYTE   W96
//  #02 //116   ----------------------------------------
 BYTE   W96
//  #02 //117   ----------------------------------------
 BYTE   W24
 BYTE   TIE  Fn5  v036
 BYTE   W06
 BYTE   W06
 BYTE   W06
 BYTE   W06
 BYTE   W06
 BYTE   W06
 BYTE   W06
 BYTE   W07
 BYTE   W06
 BYTE   W06
 BYTE   W06
 BYTE   W05
//  #02 //118   ----------------------------------------
 BYTE   W01
 BYTE   W06
 BYTE   W06
 BYTE   W06
 BYTE   W07
 BYTE   W06
 BYTE   W06
 BYTE   W06
 BYTE   W06
 BYTE   W06
 BYTE   W06
 BYTE   W06
 BYTE   W07
 BYTE   W06
 BYTE   W06
 BYTE   W06
 BYTE   W03
//  #02 //119   ----------------------------------------
 BYTE   W03
 BYTE   W06
 BYTE   W06
 BYTE   W07
 BYTE   W06
 BYTE   W06
 BYTE   W06
 BYTE   W06
 BYTE   W06
 BYTE   W06
 BYTE   W06
 BYTE   W07
 BYTE   W06
 BYTE   W06
 BYTE   W06
 BYTE   W06
 BYTE   W01
//  #02 //120   ----------------------------------------
 BYTE   W05
 BYTE   W06
 BYTE   W06
 BYTE   W06
 BYTE   EOT
 BYTE   W01
 BYTE   N92  Gs5  v080
 BYTE   W48
 BYTE   W24
//  #02 //121   ----------------------------------------
 BYTE   W24
 BYTE   Fn5  v052
 BYTE   W72
//  #02 //122   ----------------------------------------
 BYTE   W24
 BYTE   Cn5
 BYTE   W07
 BYTE   W08
 BYTE   W08
 BYTE   W08
 BYTE   W07
 BYTE   W08
 BYTE   W08
 BYTE   W07
 BYTE   W08
 BYTE   W03
//  #02 //123   ----------------------------------------
 BYTE   W05
 BYTE   W08
 BYTE   W07
 BYTE   W04
 BYTE   TIE  Fn5  v064
 BYTE   W04
 BYTE   W08
 BYTE   W08
 BYTE   W07
 BYTE   W08
 BYTE   W08
 BYTE   W08
 BYTE   W07
 BYTE   W08
 BYTE   W06
//  #02 //124   ----------------------------------------
 BYTE   W02
 BYTE   W08
 BYTE   W07
 BYTE   W07
 BYTE   W01
 BYTE   W08
 BYTE   W08
 BYTE   W07
 BYTE   W08
 BYTE   W08
 BYTE   W07
 BYTE   EOT
 BYTE   W01
 BYTE   N23  Cn5  v080
 BYTE   W24
//  #02 //125   ----------------------------------------
 BYTE   N11  Cs5
 BYTE   W12
 BYTE   Ds5
 BYTE   W12
 BYTE   N80  Fn5
 BYTE   W48
 BYTE   W24
//  #02 //126   ----------------------------------------
 BYTE   W12
 BYTE   TIE  Ds5
 BYTE   W12
 BYTE   W48
 BYTE   W24
//  #02 //127   ----------------------------------------
 BYTE   W23
 BYTE   EOT
 BYTE   W01
 BYTE   N56  Cn5
 BYTE   W48
 BYTE   W12
 BYTE   N32  Fn5
 BYTE   W12
//  #02 //128   ----------------------------------------
 BYTE   W24
 BYTE   TIE  Ds5
 BYTE   W48
 BYTE   W24
//  #02 //129   ----------------------------------------
 BYTE   W24
 BYTE   W11
 BYTE   EOT
 BYTE   W01
 BYTE   TIE  Fn5
 BYTE   W36
 BYTE   W12
 BYTE   W12
//  #02 //130   ----------------------------------------
 BYTE   W24
 BYTE   W12
 BYTE   W36
 BYTE   W24
//  #02 //131   ----------------------------------------
 BYTE   W11
 BYTE   EOT
 BYTE   W84
 BYTE   W01
//  #02 //132   ----------------------------------------
 BYTE   W72
 BYTE   N23  Bn4  v112
 BYTE   W24
//  #02 //133   ----------------------------------------
 BYTE   PATT
  POIN2 Label_01009BEE
//  #02 //134   ----------------------------------------
 BYTE   PATT
  POIN2 Label_01009BF6
//  #02 //135   ----------------------------------------
 BYTE   PATT
  POIN2 Label_01009C02
//  #02 //136   ----------------------------------------
 BYTE   W24
 BYTE   W72
//  #02 //137   ----------------------------------------
 BYTE   W23
 BYTE   EOT
 BYTE   Cs5
 BYTE   W01
 BYTE   N68  Dn5  v112
 BYTE   W72
//  #02 //138   ----------------------------------------
 BYTE   PATT
  POIN2 Label_01009BF6
//  #02 //139   ----------------------------------------
 BYTE   PATT
  POIN2 Label_01009C1D
//  #02 //140   ----------------------------------------
 BYTE   W24
 BYTE   W44
 BYTE   W03
 BYTE   EOT
 BYTE   Cs5
 BYTE   W01
 BYTE   N11  Fs4  v127
 BYTE   W04
 BYTE   W01
 BYTE   W07
 BYTE   An4
 BYTE   W04
 BYTE   W01
 BYTE   W07
//  #02 //141   ----------------------------------------
 BYTE   Cs5
 BYTE   W04
 BYTE   W01
 BYTE   W07
 BYTE   En5
 BYTE   W04
 BYTE   W01
 BYTE   W07
 BYTE   N92  Fs4  v080
 BYTE   N92  Fs5
 BYTE   W06
 BYTE   W06
 BYTE   W06
 BYTE   W07
 BYTE   W06
 BYTE   W06
 BYTE   W06
 BYTE   W07
 BYTE   W06
 BYTE   W06
 BYTE   W06
 BYTE   W04
//  #02 //142   ----------------------------------------
 BYTE   W03
 BYTE   W06
 BYTE   W06
 BYTE   W06
 BYTE   W03
 BYTE   N44  Bn4  v096
 BYTE   W04
 BYTE   W06
 BYTE   W06
 BYTE   W07
 BYTE   W06
 BYTE   W06
 BYTE   W06
 BYTE   W07
 BYTE   Cs5  v104
 BYTE   W06
 BYTE   W06
 BYTE   W06
 BYTE   W06
//  #02 //143   ----------------------------------------
 BYTE   W01
 BYTE   W06
 BYTE   W06
 BYTE   W06
 BYTE   W05
 BYTE   N92  An4  v112
 BYTE   W02
 BYTE   W06
 BYTE   W06
 BYTE   W06
 BYTE   W07
 BYTE   W06
 BYTE   W06
 BYTE   W06
 BYTE   W07
 BYTE   W06
 BYTE   W06
 BYTE   W07
 BYTE   W01
//  #02 //144   ----------------------------------------
 BYTE   W05
 BYTE   W06
 BYTE   W06
 BYTE   W07
 BYTE   N44  Cs5  v127
 BYTE   W48
 BYTE   N23  Dn5
 BYTE   W24
//  #02 //145   ----------------------------------------
 BYTE   PATT
  POIN2 Label_01009C5F
//  #02 //146   ----------------------------------------
 BYTE   W24
 BYTE   W72
//  #02 //147   ----------------------------------------
 BYTE   W23
 BYTE   EOT
 BYTE   Fs5
 BYTE   W01
 BYTE   N92  Cs5  v127
 BYTE   W72
//  #02 //148   ----------------------------------------
 BYTE   W24
 BYTE   N40  Fs5
 BYTE   W48
 BYTE   N23  Bn4  v112
 BYTE   W24
//  #02 //149   ----------------------------------------
 BYTE   PATT
  POIN2 Label_01009BEE
//  #02 //150   ----------------------------------------
 BYTE   PATT
  POIN2 Label_01009BF6
//  #02 //151   ----------------------------------------
 BYTE   PATT
  POIN2 Label_01009C02
//  #02 //152   ----------------------------------------
 BYTE   W24
 BYTE   W72
//  #02 //153   ----------------------------------------
 BYTE   W23
 BYTE   EOT
 BYTE   Cs5
 BYTE   W01
 BYTE   N68  Dn5  v112
 BYTE   W72
//  #02 //154   ----------------------------------------
 BYTE   PATT
  POIN2 Label_01009BF6
//  #02 //155   ----------------------------------------
 BYTE   PATT
  POIN2 Label_01009C1D
//  #02 //156   ----------------------------------------
 BYTE   PATT
  POIN2 Label_01009CA0
//  #02 //157   ----------------------------------------
 BYTE   EOT
 BYTE   Cs5
 BYTE   W01
 BYTE   N23  Dn4  v096
 BYTE   W24
//  #02 //158   ----------------------------------------
 BYTE   PATT
  POIN2 Label_01009CAB
//  #02 //159   ----------------------------------------
 BYTE   PATT
  POIN2 Label_01009CB3
//  #02 //160   ----------------------------------------
 BYTE   PATT
  POIN2 Label_01009CC0
//  #02 //161   ----------------------------------------
 BYTE   N11  En4  v096
 BYTE   W12
 BYTE   N32  Fs4
 BYTE   W36
 BYTE   N23  An4  v127
 BYTE   W24
 BYTE   Bn4
 BYTE   W24
//  #02 //162   ----------------------------------------
 BYTE   Cs5
 BYTE   W24
 BYTE   N23
 BYTE   W24
 BYTE   N11  Dn5
 BYTE   W12
 BYTE   TIE  Bn4
 BYTE   W12
 BYTE   W24
//  #02 //163   ----------------------------------------
 BYTE   W24
 BYTE   W68
 BYTE   W03
 BYTE   EOT
 BYTE   W01
//  #02 //164   ----------------------------------------
 BYTE   N11  Fs4
 BYTE   W12
 BYTE   Bn4
 BYTE   W12
 BYTE   N23  Cs5
 BYTE   W24
 BYTE   N11  Dn5
 BYTE   W12
 BYTE   TIE  Bn4
 BYTE   W12
 BYTE   W24
//  #02 //165   ----------------------------------------
 BYTE   W24
 BYTE   W44
 BYTE   W03
 BYTE   EOT
 BYTE   W01
 BYTE   N44  An4
 BYTE   W24
//  #02 //166   ----------------------------------------
 BYTE   W24
 BYTE   TIE  Bn4  v096
 BYTE   W72
//  #02 //167   ----------------------------------------
 BYTE   W24
 BYTE   W72
//  #02 //168   ----------------------------------------
 BYTE   W23
 BYTE   EOT
 BYTE   W01
 BYTE   TIE  An4
 BYTE   W72
//  #02 //169   ----------------------------------------
 BYTE   W24
 BYTE   W72
//  #02 //170   ----------------------------------------
 BYTE   W23
 BYTE   EOT
 BYTE   W01
 BYTE   TIE  Cs5
 BYTE   W72
//  #02 //171   ----------------------------------------
 BYTE   W24
 BYTE   W72
//  #02 //172   ----------------------------------------
 BYTE   W23
 BYTE   EOT
 BYTE   W01
 BYTE   TIE  Bn4
 BYTE   W72
//  #02 //173   ----------------------------------------
 BYTE   PATT
  POIN2 Label_01009CA0
//  #02 //174   ----------------------------------------
 BYTE   EOT
 BYTE   Bn4
 BYTE   W01
 BYTE   N05  Dn5  v127
 BYTE   W05
 BYTE   W07
 BYTE   Cs5
 BYTE   W05
 BYTE   W07
 BYTE   An4
 BYTE   W05
 BYTE   W07
 BYTE   Fs4
 BYTE   W05
 BYTE   W78
//  #02 //175   ----------------------------------------
 BYTE   W01
 BYTE   W96
//  #02 //176   ----------------------------------------
 BYTE   W96
//  #02 //177   ----------------------------------------
 BYTE   W96
//  #02 //178   ----------------------------------------
 BYTE   W96
//  #02 //179   ----------------------------------------
 BYTE   W24
 BYTE   TIE  Bn4  v112
 BYTE   W01
 BYTE   W02
 BYTE   W01
 BYTE   W02
 BYTE   W01
 BYTE   W02
 BYTE   W01
 BYTE   W02
 BYTE   W01
 BYTE   W02
 BYTE   W01
 BYTE   W02
 BYTE   W01
 BYTE   W02
 BYTE   W01
 BYTE   W02
 BYTE   W01
 BYTE   W02
 BYTE   W44
 BYTE   W01
//  #02 //180   ----------------------------------------
 BYTE   W24
 BYTE   W72
//  #02 //181   ----------------------------------------
 BYTE   W24
 BYTE   W72
//  #02 //182   ----------------------------------------
 BYTE   W23
 BYTE   EOT
 BYTE   W72
 BYTE   W01
//  #02 //183   ----------------------------------------
 BYTE   GoTo
  POIN2 Label_01009A15
 BYTE   FINE

//**************** Track 3 (Midi-Chn.2) ****************//

TheWeightOfLife_003:
//  #03 //000   ----------------------------------------
 BYTE   KEYSH   TheWeightOfLife_key+0
 BYTE   VOICE   45
 BYTE   VOL   42*TheWeightOfLife_mvl/mxv
 BYTE   PAN   c_v+0
 BYTE   VOL   42*TheWeightOfLife_mvl/mxv
 BYTE   PAN   c_v+0
 BYTE   W24
Label_01008E1D:
 BYTE   W72
//  #03 //001   ----------------------------------------
 BYTE   W96
//  #03 //002   ----------------------------------------
 BYTE   W96
//  #03 //003   ----------------------------------------
 BYTE   W96
//  #03 //004   ----------------------------------------
 BYTE   W96
//  #03 //005   ----------------------------------------
 BYTE   W96
//  #03 //006   ----------------------------------------
 BYTE   W96
//  #03 //007   ----------------------------------------
 BYTE   W96
//  #03 //008   ----------------------------------------
 BYTE   W96
//  #03 //009   ----------------------------------------
 BYTE   W96
//  #03 //010   ----------------------------------------
 BYTE   W96
//  #03 //011   ----------------------------------------
 BYTE   W96
//  #03 //012   ----------------------------------------
 BYTE   W96
//  #03 //013   ----------------------------------------
 BYTE   W96
//  #03 //014   ----------------------------------------
 BYTE   W96
//  #03 //015   ----------------------------------------
 BYTE   W96
//  #03 //016   ----------------------------------------
 BYTE   W96
//  #03 //017   ----------------------------------------
 BYTE   W96
//  #03 //018   ----------------------------------------
 BYTE   W96
//  #03 //019   ----------------------------------------
 BYTE   W96
//  #03 //020   ----------------------------------------
 BYTE   W96
//  #03 //021   ----------------------------------------
 BYTE   W96
//  #03 //022   ----------------------------------------
 BYTE   W96
//  #03 //023   ----------------------------------------
 BYTE   W96
//  #03 //024   ----------------------------------------
 BYTE   W96
//  #03 //025   ----------------------------------------
 BYTE   W96
//  #03 //026   ----------------------------------------
 BYTE   W96
//  #03 //027   ----------------------------------------
 BYTE   W96
//  #03 //028   ----------------------------------------
 BYTE   W96
//  #03 //029   ----------------------------------------
 BYTE   W96
//  #03 //030   ----------------------------------------
 BYTE   W96
//  #03 //031   ----------------------------------------
 BYTE   W96
//  #03 //032   ----------------------------------------
 BYTE   W96
//  #03 //033   ----------------------------------------
 BYTE   W96
//  #03 //034   ----------------------------------------
 BYTE   W96
//  #03 //035   ----------------------------------------
 BYTE   W96
//  #03 //036   ----------------------------------------
 BYTE   W96
//  #03 //037   ----------------------------------------
 BYTE   W96
//  #03 //038   ----------------------------------------
 BYTE   W96
//  #03 //039   ----------------------------------------
 BYTE   W96
//  #03 //040   ----------------------------------------
 BYTE   W96
//  #03 //041   ----------------------------------------
 BYTE   W24
 BYTE   N11  En2  v064
 BYTE   W12
 BYTE   Gn2
 BYTE   W12
 BYTE   Bn2
 BYTE   W12
 BYTE   N23  En3
 BYTE   W24
 BYTE   N11  Bn2
 BYTE   W12
//  #03 //042   ----------------------------------------
 BYTE   En2
 BYTE   W12
 BYTE   N23  En3
 BYTE   W12
 BYTE   W12
 BYTE   N11  Bn2
 BYTE   W12
 BYTE   En2
 BYTE   W12
 BYTE   Bn2
 BYTE   W12
 BYTE   N11
 BYTE   W12
 BYTE   En2
 BYTE   W12
//  #03 //043   ----------------------------------------
 BYTE   N23  Cs3
 BYTE   W24
 BYTE   N11  Fs2
 BYTE   W12
 BYTE   An2
 BYTE   W12
 BYTE   Cs3
 BYTE   W12
 BYTE   N23  Fs3
 BYTE   W24
 BYTE   N11  Cs3
 BYTE   W12
//  #03 //044   ----------------------------------------
 BYTE   Fs2
 BYTE   W12
 BYTE   N23  Fs3
 BYTE   W12
 BYTE   W12
 BYTE   N11  Cs3
 BYTE   W12
 BYTE   Fs2
 BYTE   W12
 BYTE   Cs3
 BYTE   W12
 BYTE   N11
 BYTE   W12
 BYTE   Fs2
 BYTE   W12
//  #03 //045   ----------------------------------------
 BYTE   N23  Cs3
 BYTE   W24
 BYTE   N11  Dn3
 BYTE   W12
 BYTE   Dn2
 BYTE   W12
 BYTE   N11
 BYTE   W12
 BYTE   N23  Bn2
 BYTE   W24
 BYTE   N11  Gn2
 BYTE   W12
//  #03 //046   ----------------------------------------
 BYTE   Dn3
 BYTE   W12
 BYTE   Gn2
 BYTE   W12
 BYTE   Cs3
 BYTE   W12
 BYTE   Cs2
 BYTE   W12
 BYTE   N11
 BYTE   W12
 BYTE   N23  An2
 BYTE   W24
 BYTE   N11  Fs2
 BYTE   W12
//  #03 //047   ----------------------------------------
 BYTE   Cs3
 BYTE   W12
 BYTE   Fs2
 BYTE   W12
 BYTE   TIE  Bn2
 BYTE   W72
//  #03 //048   ----------------------------------------
 BYTE   W24
 BYTE   W06
 BYTE   W06
 BYTE   W03
 BYTE   EOT
 BYTE   W01
 BYTE   N15  An2  v068
 BYTE   W02
 BYTE   W06
 BYTE   W06
 BYTE   W02
 BYTE   Gn2  v072
 BYTE   W04
 BYTE   W06
 BYTE   W06
 BYTE   Fs2
 BYTE   W06
 BYTE   W06
 BYTE   W04
 BYTE   En2  v076
 BYTE   W02
 BYTE   W06
//  #03 //049   ----------------------------------------
 BYTE   W06
 BYTE   W02
 BYTE   Gn2  v080
 BYTE   W04
 BYTE   W06
 BYTE   W06
 BYTE   TIE  Fs2
 BYTE   W72
//  #03 //050   ----------------------------------------
 BYTE   W24
 BYTE   W06
 BYTE   W06
 BYTE   W06
 BYTE   W05
 BYTE   EOT
 BYTE   W01
 BYTE   N23  Fs2  v084
 BYTE   W06
 BYTE   W06
 BYTE   W06
 BYTE   W06
 BYTE   N11  Bn2  v088
 BYTE   W06
 BYTE   W06
 BYTE   N23  As2  v092
 BYTE   W06
 BYTE   W06
//  #03 //051   ----------------------------------------
 BYTE   W06
 BYTE   W06
 BYTE   TIE  Cs3  v096
 BYTE   W06
 BYTE   W06
 BYTE   W06
 BYTE   W06
 BYTE   W06
 BYTE   W06
 BYTE   W06
 BYTE   W06
 BYTE   W06
 BYTE   W06
 BYTE   W06
 BYTE   W06
 BYTE   W06
 BYTE   W06
//  #03 //052   ----------------------------------------
 BYTE   W06
 BYTE   W06
 BYTE   W06
 BYTE   W05
 BYTE   EOT
 BYTE   W01
 BYTE   N11  Cs3  v112
 BYTE   W12
 BYTE   N11
 BYTE   W60
//  #03 //053   ----------------------------------------
 BYTE   W96
//  #03 //054   ----------------------------------------
 BYTE   W96
//  #03 //055   ----------------------------------------
 BYTE   W96
//  #03 //056   ----------------------------------------
 BYTE   W96
//  #03 //057   ----------------------------------------
 BYTE   W96
//  #03 //058   ----------------------------------------
 BYTE   W96
//  #03 //059   ----------------------------------------
 BYTE   W96
//  #03 //060   ----------------------------------------
 BYTE   W96
//  #03 //061   ----------------------------------------
 BYTE   W96
//  #03 //062   ----------------------------------------
 BYTE   W96
//  #03 //063   ----------------------------------------
 BYTE   W96
//  #03 //064   ----------------------------------------
 BYTE   W96
//  #03 //065   ----------------------------------------
 BYTE   W96
//  #03 //066   ----------------------------------------
 BYTE   W96
//  #03 //067   ----------------------------------------
 BYTE   W96
//  #03 //068   ----------------------------------------
 BYTE   W96
//  #03 //069   ----------------------------------------
 BYTE   W96
//  #03 //070   ----------------------------------------
 BYTE   W96
//  #03 //071   ----------------------------------------
 BYTE   W96
//  #03 //072   ----------------------------------------
 BYTE   W96
//  #03 //073   ----------------------------------------
 BYTE   W96
//  #03 //074   ----------------------------------------
 BYTE   W96
//  #03 //075   ----------------------------------------
 BYTE   W96
//  #03 //076   ----------------------------------------
 BYTE   W96
//  #03 //077   ----------------------------------------
Label_01008F21:
 BYTE   W24
 BYTE   TIE  Dn3  v096
 BYTE   W72
 BYTE   PEND 
//  #03 //078   ----------------------------------------
 BYTE   W24
 BYTE   W72
//  #03 //079   ----------------------------------------
 BYTE   W23
 BYTE   EOT
 BYTE   W01
 BYTE   TIE  Cs3
 BYTE   W72
//  #03 //080   ----------------------------------------
 BYTE   W24
 BYTE   W72
//  #03 //081   ----------------------------------------
 BYTE   W23
 BYTE   EOT
 BYTE   W01
 BYTE   TIE  Bn2
 BYTE   W72
//  #03 //082   ----------------------------------------
 BYTE   W24
 BYTE   W72
//  #03 //083   ----------------------------------------
 BYTE   W23
 BYTE   EOT
 BYTE   W01
 BYTE   N92  As2
 BYTE   W72
//  #03 //084   ----------------------------------------
 BYTE   W24
 BYTE   N92
 BYTE   N92  Fs3
 BYTE   W72
//  #03 //085   ----------------------------------------
 BYTE   W96
//  #03 //086   ----------------------------------------
 BYTE   W96
//  #03 //087   ----------------------------------------
 BYTE   W96
//  #03 //088   ----------------------------------------
 BYTE   W96
//  #03 //089   ----------------------------------------
 BYTE   W96
//  #03 //090   ----------------------------------------
 BYTE   W96
//  #03 //091   ----------------------------------------
 BYTE   W96
//  #03 //092   ----------------------------------------
 BYTE   W96
//  #03 //093   ----------------------------------------
 BYTE   W96
//  #03 //094   ----------------------------------------
 BYTE   W96
//  #03 //095   ----------------------------------------
 BYTE   W96
//  #03 //096   ----------------------------------------
 BYTE   W96
//  #03 //097   ----------------------------------------
 BYTE   W24
 BYTE   TIE  Bn2  v052
 BYTE   W72
//  #03 //098   ----------------------------------------
 BYTE   W24
 BYTE   W15
 BYTE   EOT
 BYTE   W01
 BYTE   N15  An2
 BYTE   W16
 BYTE   Gn2
 BYTE   W16
 BYTE   Fs2
 BYTE   W16
 BYTE   En2
 BYTE   W08
//  #03 //099   ----------------------------------------
 BYTE   W08
 BYTE   Gn2
 BYTE   W16
 BYTE   N92  Fs2
 BYTE   W72
//  #03 //100   ----------------------------------------
 BYTE   W24
 BYTE   N23  Gn2
 BYTE   W24
 BYTE   Fs2
 BYTE   W24
 BYTE   Gn2
 BYTE   W24
//  #03 //101   ----------------------------------------
 BYTE   An2
 BYTE   W24
 BYTE   TIE  Bn2
 BYTE   W72
//  #03 //102   ----------------------------------------
 BYTE   W24
 BYTE   W72
//  #03 //103   ----------------------------------------
 BYTE   W23
 BYTE   EOT
 BYTE   W01
 BYTE   N92  Fs2
 BYTE   W72
//  #03 //104   ----------------------------------------
Label_01008F7D:
 BYTE   W24
 BYTE   N92  Dn2  v052
 BYTE   W72
 BYTE   PEND 
//  #03 //105   ----------------------------------------
 BYTE   PATT
  POIN2 Label_01008F7D
//  #03 //106   ----------------------------------------
 BYTE   W24
 BYTE   N44  Gs2  v052
 BYTE   W48
 BYTE   An2
 BYTE   W24
//  #03 //107   ----------------------------------------
 BYTE   W24
 BYTE   N92  Cs3
 BYTE   W72
//  #03 //108   ----------------------------------------
 BYTE   W24
 BYTE   En3
 BYTE   W72
//  #03 //109   ----------------------------------------
 BYTE   W96
//  #03 //110   ----------------------------------------
 BYTE   W96
//  #03 //111   ----------------------------------------
 BYTE   W96
//  #03 //112   ----------------------------------------
 BYTE   W96
//  #03 //113   ----------------------------------------
 BYTE   W96
//  #03 //114   ----------------------------------------
 BYTE   W96
//  #03 //115   ----------------------------------------
 BYTE   W96
//  #03 //116   ----------------------------------------
 BYTE   W96
//  #03 //117   ----------------------------------------
 BYTE   W96
//  #03 //118   ----------------------------------------
 BYTE   W96
//  #03 //119   ----------------------------------------
 BYTE   W96
//  #03 //120   ----------------------------------------
 BYTE   W96
//  #03 //121   ----------------------------------------
 BYTE   W96
//  #03 //122   ----------------------------------------
 BYTE   W96
//  #03 //123   ----------------------------------------
 BYTE   W96
//  #03 //124   ----------------------------------------
 BYTE   W96
//  #03 //125   ----------------------------------------
 BYTE   W96
//  #03 //126   ----------------------------------------
 BYTE   W96
//  #03 //127   ----------------------------------------
 BYTE   W96
//  #03 //128   ----------------------------------------
 BYTE   W96
//  #03 //129   ----------------------------------------
 BYTE   W96
//  #03 //130   ----------------------------------------
 BYTE   W96
//  #03 //131   ----------------------------------------
 BYTE   W96
//  #03 //132   ----------------------------------------
 BYTE   W96
//  #03 //133   ----------------------------------------
 BYTE   W96
//  #03 //134   ----------------------------------------
 BYTE   W96
//  #03 //135   ----------------------------------------
 BYTE   W96
//  #03 //136   ----------------------------------------
 BYTE   W96
//  #03 //137   ----------------------------------------
 BYTE   W96
//  #03 //138   ----------------------------------------
 BYTE   W96
//  #03 //139   ----------------------------------------
 BYTE   W96
//  #03 //140   ----------------------------------------
 BYTE   W96
//  #03 //141   ----------------------------------------
 BYTE   W24
 BYTE   TIE  Bn2  v096
 BYTE   W72
//  #03 //142   ----------------------------------------
 BYTE   W24
 BYTE   W72
//  #03 //143   ----------------------------------------
 BYTE   W23
 BYTE   EOT
 BYTE   W01
 BYTE   TIE  An2
 BYTE   W72
//  #03 //144   ----------------------------------------
 BYTE   W24
 BYTE   W72
//  #03 //145   ----------------------------------------
 BYTE   W23
 BYTE   EOT
 BYTE   W01
 BYTE   TIE  Gn2
 BYTE   W72
//  #03 //146   ----------------------------------------
 BYTE   W24
 BYTE   W72
//  #03 //147   ----------------------------------------
 BYTE   W23
 BYTE   EOT
 BYTE   W01
 BYTE   N92  Fs2
 BYTE   W72
//  #03 //148   ----------------------------------------
 BYTE   W24
 BYTE   N40  Fs3
 BYTE   W72
//  #03 //149   ----------------------------------------
 BYTE   W96
//  #03 //150   ----------------------------------------
 BYTE   W96
//  #03 //151   ----------------------------------------
 BYTE   W96
//  #03 //152   ----------------------------------------
 BYTE   W96
//  #03 //153   ----------------------------------------
 BYTE   W96
//  #03 //154   ----------------------------------------
 BYTE   W96
//  #03 //155   ----------------------------------------
 BYTE   W96
//  #03 //156   ----------------------------------------
 BYTE   W96
//  #03 //157   ----------------------------------------
 BYTE   PATT
  POIN2 Label_01008F21
//  #03 //158   ----------------------------------------
 BYTE   W24
 BYTE   W72
//  #03 //159   ----------------------------------------
 BYTE   W23
 BYTE   EOT
 BYTE   Dn3
 BYTE   W01
 BYTE   TIE  Cs3  v096
 BYTE   W72
//  #03 //160   ----------------------------------------
 BYTE   W24
 BYTE   W72
//  #03 //161   ----------------------------------------
 BYTE   W23
 BYTE   EOT
 BYTE   W01
 BYTE   TIE  Bn2
 BYTE   W72
//  #03 //162   ----------------------------------------
 BYTE   W24
 BYTE   W72
//  #03 //163   ----------------------------------------
 BYTE   W23
 BYTE   EOT
 BYTE   W01
 BYTE   TIE
 BYTE   W72
//  #03 //164   ----------------------------------------
 BYTE   W24
 BYTE   W44
 BYTE   W03
 BYTE   EOT
 BYTE   W01
 BYTE   N44  Gn2
 BYTE   W24
//  #03 //165   ----------------------------------------
 BYTE   W24
 BYTE   TIE  Bn2  v080
 BYTE   W72
//  #03 //166   ----------------------------------------
 BYTE   W24
 BYTE   W72
//  #03 //167   ----------------------------------------
 BYTE   W23
 BYTE   EOT
 BYTE   W01
 BYTE   TIE  An2
 BYTE   W72
//  #03 //168   ----------------------------------------
 BYTE   W24
 BYTE   W72
//  #03 //169   ----------------------------------------
 BYTE   W23
 BYTE   EOT
 BYTE   W72
 BYTE   W01
//  #03 //170   ----------------------------------------
 BYTE   W96
//  #03 //171   ----------------------------------------
 BYTE   W96
//  #03 //172   ----------------------------------------
 BYTE   W96
//  #03 //173   ----------------------------------------
 BYTE   W96
//  #03 //174   ----------------------------------------
 BYTE   W96
//  #03 //175   ----------------------------------------
 BYTE   W96
//  #03 //176   ----------------------------------------
 BYTE   W96
//  #03 //177   ----------------------------------------
 BYTE   W96
//  #03 //178   ----------------------------------------
 BYTE   W24
 BYTE   TIE  Fs3
 BYTE   W72
//  #03 //179   ----------------------------------------
 BYTE   W24
 BYTE   W72
//  #03 //180   ----------------------------------------
 BYTE   W24
 BYTE   W72
//  #03 //181   ----------------------------------------
 BYTE   W23
 BYTE   EOT
 BYTE   W72
 BYTE   W01
//  #03 //182   ----------------------------------------
 BYTE   GoTo
  POIN2 Label_01008E1D
 BYTE   FINE

//**************** Track 4 (Midi-Chn.3) ****************//

TheWeightOfLife_004:
//  #04 //000   ----------------------------------------
 BYTE   KEYSH   TheWeightOfLife_key+0
 BYTE   VOICE   45
 BYTE   VOL   42*TheWeightOfLife_mvl/mxv
 BYTE   PAN   c_v+0
 BYTE   VOL   42*TheWeightOfLife_mvl/mxv
 BYTE   PAN   c_v+0
 BYTE   W24
Label_010088E9:
 BYTE   W72
//  #04 //001   ----------------------------------------
 BYTE   W96
//  #04 //002   ----------------------------------------
 BYTE   W96
//  #04 //003   ----------------------------------------
 BYTE   W96
//  #04 //004   ----------------------------------------
 BYTE   W96
//  #04 //005   ----------------------------------------
 BYTE   W96
//  #04 //006   ----------------------------------------
 BYTE   W96
//  #04 //007   ----------------------------------------
 BYTE   W96
//  #04 //008   ----------------------------------------
 BYTE   W96
//  #04 //009   ----------------------------------------
 BYTE   W96
//  #04 //010   ----------------------------------------
 BYTE   W96
//  #04 //011   ----------------------------------------
 BYTE   W96
//  #04 //012   ----------------------------------------
 BYTE   W96
//  #04 //013   ----------------------------------------
 BYTE   W96
//  #04 //014   ----------------------------------------
 BYTE   W96
//  #04 //015   ----------------------------------------
 BYTE   W96
//  #04 //016   ----------------------------------------
 BYTE   W96
//  #04 //017   ----------------------------------------
 BYTE   W96
//  #04 //018   ----------------------------------------
 BYTE   W96
//  #04 //019   ----------------------------------------
 BYTE   W96
//  #04 //020   ----------------------------------------
 BYTE   W96
//  #04 //021   ----------------------------------------
 BYTE   W96
//  #04 //022   ----------------------------------------
 BYTE   W96
//  #04 //023   ----------------------------------------
 BYTE   W96
//  #04 //024   ----------------------------------------
 BYTE   W96
//  #04 //025   ----------------------------------------
 BYTE   W96
//  #04 //026   ----------------------------------------
 BYTE   W96
//  #04 //027   ----------------------------------------
 BYTE   W96
//  #04 //028   ----------------------------------------
 BYTE   W96
//  #04 //029   ----------------------------------------
 BYTE   W96
//  #04 //030   ----------------------------------------
 BYTE   W96
//  #04 //031   ----------------------------------------
 BYTE   W96
//  #04 //032   ----------------------------------------
 BYTE   W96
//  #04 //033   ----------------------------------------
 BYTE   W96
//  #04 //034   ----------------------------------------
 BYTE   W96
//  #04 //035   ----------------------------------------
 BYTE   W96
//  #04 //036   ----------------------------------------
 BYTE   W96
//  #04 //037   ----------------------------------------
 BYTE   W96
//  #04 //038   ----------------------------------------
 BYTE   W96
//  #04 //039   ----------------------------------------
 BYTE   W96
//  #04 //040   ----------------------------------------
 BYTE   W96
//  #04 //041   ----------------------------------------
 BYTE   W24
 BYTE   N11  En1  v064
 BYTE   W36
 BYTE   N23  Bn1
 BYTE   W36
//  #04 //042   ----------------------------------------
 BYTE   W12
 BYTE   N23
 BYTE   W12
 BYTE   W48
 BYTE   N11  Gn1
 BYTE   W24
//  #04 //043   ----------------------------------------
 BYTE   N23  An1
 BYTE   W24
 BYTE   N11  Fs1
 BYTE   W36
 BYTE   N23  Cs2
 BYTE   W36
//  #04 //044   ----------------------------------------
 BYTE   W12
 BYTE   N23
 BYTE   W12
 BYTE   W48
 BYTE   N11  An1
 BYTE   W24
//  #04 //045   ----------------------------------------
 BYTE   N23
 BYTE   W24
 BYTE   N11  Gn1
 BYTE   W36
 BYTE   N23
 BYTE   W36
//  #04 //046   ----------------------------------------
 BYTE   W24
 BYTE   N11  Fs1
 BYTE   W36
 BYTE   N23
 BYTE   W36
//  #04 //047   ----------------------------------------
 BYTE   W24
 BYTE   N11  En2
 BYTE   W12
 BYTE   Bn1
 BYTE   W12
 BYTE   En2
 BYTE   W12
 BYTE   Bn1
 BYTE   W12
 BYTE   En2
 BYTE   W12
 BYTE   Bn1
 BYTE   W12
//  #04 //048   ----------------------------------------
 BYTE   En2
 BYTE   W12
 BYTE   Bn1
 BYTE   W12
 BYTE   N15  Dn2  v052
 BYTE   W03
 BYTE   W03
 BYTE   W03
 BYTE   W03
 BYTE   W03
 BYTE   W01
 BYTE   Dn2  v056
 BYTE   W02
 BYTE   W03
 BYTE   W03
 BYTE   W03
 BYTE   W04
 BYTE   W01
 BYTE   Dn2  v060
 BYTE   W02
 BYTE   W03
 BYTE   W03
 BYTE   W03
 BYTE   W03
 BYTE   W02
 BYTE   Dn2  v064
 BYTE   W01
 BYTE   W03
 BYTE   W03
 BYTE   W03
 BYTE   W03
 BYTE   W03
 BYTE   Dn2  v072
 BYTE   W01
 BYTE   W03
 BYTE   W03
 BYTE   W01
//  #04 //049   ----------------------------------------
 BYTE   W02
 BYTE   W03
 BYTE   W03
 BYTE   Dn2  v076
 BYTE   W03
 BYTE   W03
 BYTE   W03
 BYTE   W03
 BYTE   W04
 BYTE   N11  Cs2  v080
 BYTE   W12
 BYTE   Gn1
 BYTE   W12
 BYTE   Cs2
 BYTE   W12
 BYTE   Gn1
 BYTE   W12
 BYTE   Cs2
 BYTE   W12
 BYTE   Gn1
 BYTE   W12
//  #04 //050   ----------------------------------------
 BYTE   Cs2
 BYTE   W12
 BYTE   Gn1
 BYTE   W12
 BYTE   Cs2
 BYTE   W06
 BYTE   W06
 BYTE   Gn1  v084
 BYTE   W06
 BYTE   W06
 BYTE   Cs2
 BYTE   W06
 BYTE   W06
 BYTE   Gn1  v088
 BYTE   W06
 BYTE   W06
 BYTE   Cs2
 BYTE   W06
 BYTE   W06
 BYTE   N23  Cs2  v092
 BYTE   W06
 BYTE   W06
//  #04 //051   ----------------------------------------
 BYTE   W06
 BYTE   W06
 BYTE   An1  v096
 BYTE   W06
 BYTE   W06
 BYTE   W06
 BYTE   W06
 BYTE   N11  Cs2  v100
 BYTE   W06
 BYTE   W06
 BYTE   An1
 BYTE   W06
 BYTE   W06
 BYTE   Cs2  v104
 BYTE   W06
 BYTE   W06
 BYTE   An1
 BYTE   W06
 BYTE   W06
 BYTE   Cs2  v108
 BYTE   W06
 BYTE   W06
//  #04 //052   ----------------------------------------
 BYTE   An1
 BYTE   W06
 BYTE   W06
 BYTE   Cs2  v112
 BYTE   W06
 BYTE   W06
 BYTE   Fs1
 BYTE   W12
 BYTE   N11
 BYTE   W60
//  #04 //053   ----------------------------------------
Label_010089CF:
 BYTE   W24
 BYTE   TIE  Bn1  v096
 BYTE   W72
 BYTE   PEND 
//  #04 //054   ----------------------------------------
 BYTE   W24
 BYTE   W72
//  #04 //055   ----------------------------------------
 BYTE   W23
 BYTE   EOT
 BYTE   W01
 BYTE   TIE  An1
 BYTE   W72
//  #04 //056   ----------------------------------------
 BYTE   W24
 BYTE   W72
//  #04 //057   ----------------------------------------
 BYTE   W23
 BYTE   EOT
 BYTE   W01
 BYTE   TIE  Gn1
 BYTE   W72
//  #04 //058   ----------------------------------------
 BYTE   W24
 BYTE   W72
//  #04 //059   ----------------------------------------
 BYTE   W23
 BYTE   EOT
 BYTE   W01
 BYTE   TIE  Fs1
 BYTE   W72
//  #04 //060   ----------------------------------------
 BYTE   W24
 BYTE   W72
//  #04 //061   ----------------------------------------
 BYTE   W23
 BYTE   EOT
 BYTE   W01
 BYTE   N11  En2
 BYTE   W36
 BYTE   N11
 BYTE   W36
//  #04 //062   ----------------------------------------
Label_010089F7:
 BYTE   N11  En2  v096
 BYTE   W36
 BYTE   N11
 BYTE   W36
 BYTE   N11
 BYTE   W24
 BYTE   PEND 
//  #04 //063   ----------------------------------------
 BYTE   N11
 BYTE   W24
 BYTE   Dn2
 BYTE   W36
 BYTE   N11
 BYTE   W36
//  #04 //064   ----------------------------------------
Label_01008A06:
 BYTE   N11  Dn2  v096
 BYTE   W36
 BYTE   N11
 BYTE   W36
 BYTE   N11
 BYTE   W24
 BYTE   PEND 
//  #04 //065   ----------------------------------------
Label_01008A0F:
 BYTE   N11  Dn2  v096
 BYTE   W24
 BYTE   TIE  Cs2
 BYTE   W72
 BYTE   PEND 
//  #04 //066   ----------------------------------------
 BYTE   W24
 BYTE   W72
//  #04 //067   ----------------------------------------
 BYTE   W23
 BYTE   EOT
 BYTE   W01
 BYTE   N92  Bn1
 BYTE   W72
//  #04 //068   ----------------------------------------
 BYTE   W24
 BYTE   N23  As1  v127
 BYTE   W01
 BYTE   W01
 BYTE   W01
 BYTE   W01
 BYTE   W01
 BYTE   W66
 BYTE   W01
//  #04 //069   ----------------------------------------
 BYTE   PATT
  POIN2 Label_010089CF
//  #04 //070   ----------------------------------------
 BYTE   W24
 BYTE   W72
//  #04 //071   ----------------------------------------
 BYTE   W23
 BYTE   EOT
 BYTE   Bn1
 BYTE   W01
 BYTE   TIE  An1  v096
 BYTE   W72
//  #04 //072   ----------------------------------------
 BYTE   W24
 BYTE   W72
//  #04 //073   ----------------------------------------
 BYTE   W23
 BYTE   EOT
 BYTE   W01
 BYTE   TIE  Gn1
 BYTE   W72
//  #04 //074   ----------------------------------------
 BYTE   W24
 BYTE   W72
//  #04 //075   ----------------------------------------
 BYTE   W23
 BYTE   EOT
 BYTE   W01
 BYTE   TIE  Fs1
 BYTE   W72
//  #04 //076   ----------------------------------------
 BYTE   W24
 BYTE   W72
//  #04 //077   ----------------------------------------
 BYTE   W23
 BYTE   EOT
 BYTE   W01
 BYTE   N11  En2
 BYTE   W36
 BYTE   N11
 BYTE   W36
//  #04 //078   ----------------------------------------
 BYTE   PATT
  POIN2 Label_010089F7
//  #04 //079   ----------------------------------------
Label_01008A58:
 BYTE   N11  En2  v096
 BYTE   W24
 BYTE   Dn2
 BYTE   W36
 BYTE   N11
 BYTE   W36
 BYTE   PEND 
//  #04 //080   ----------------------------------------
 BYTE   PATT
  POIN2 Label_01008A06
//  #04 //081   ----------------------------------------
 BYTE   PATT
  POIN2 Label_01008A0F
//  #04 //082   ----------------------------------------
 BYTE   W24
 BYTE   W72
//  #04 //083   ----------------------------------------
 BYTE   W23
 BYTE   EOT
 BYTE   Cs2
 BYTE   W01
 BYTE   N92  Bn1  v096
 BYTE   W72
//  #04 //084   ----------------------------------------
 BYTE   W24
 BYTE   As1
 BYTE   W72
//  #04 //085   ----------------------------------------
 BYTE   W96
//  #04 //086   ----------------------------------------
 BYTE   W96
//  #04 //087   ----------------------------------------
 BYTE   W96
//  #04 //088   ----------------------------------------
 BYTE   W96
//  #04 //089   ----------------------------------------
 BYTE   W96
//  #04 //090   ----------------------------------------
 BYTE   W96
//  #04 //091   ----------------------------------------
 BYTE   W96
//  #04 //092   ----------------------------------------
 BYTE   W96
//  #04 //093   ----------------------------------------
Label_01008A80:
 BYTE   W24
 BYTE   TIE  Bn1  v052
 BYTE   W72
 BYTE   PEND 
//  #04 //094   ----------------------------------------
 BYTE   W24
 BYTE   W44
 BYTE   W03
 BYTE   EOT
 BYTE   W01
 BYTE   N44  Cs2
 BYTE   W24
//  #04 //095   ----------------------------------------
 BYTE   PATT
  POIN2 Label_01008A80
//  #04 //096   ----------------------------------------
 BYTE   W24
 BYTE   W72
//  #04 //097   ----------------------------------------
 BYTE   W23
 BYTE   EOT
 BYTE   Bn1
 BYTE   W01
 BYTE   N92  Fs1  v052
 BYTE   W72
//  #04 //098   ----------------------------------------
 BYTE   W24
 BYTE   N15  Dn2
 BYTE   W16
 BYTE   N15
 BYTE   W16
 BYTE   N15
 BYTE   W16
 BYTE   N15
 BYTE   W16
 BYTE   N15
 BYTE   W08
//  #04 //099   ----------------------------------------
 BYTE   W08
 BYTE   N15
 BYTE   W88
//  #04 //100   ----------------------------------------
 BYTE   W96
//  #04 //101   ----------------------------------------
 BYTE   PATT
  POIN2 Label_01008A80
//  #04 //102   ----------------------------------------
 BYTE   W24
 BYTE   W72
//  #04 //103   ----------------------------------------
 BYTE   W23
 BYTE   EOT
 BYTE   Bn1
 BYTE   W01
 BYTE   TIE  En2  v052
 BYTE   W72
//  #04 //104   ----------------------------------------
 BYTE   W24
 BYTE   W72
//  #04 //105   ----------------------------------------
 BYTE   W23
 BYTE   EOT
 BYTE   W01
 BYTE   N92  Bn1
 BYTE   W72
//  #04 //106   ----------------------------------------
 BYTE   W24
 BYTE   An1
 BYTE   W72
//  #04 //107   ----------------------------------------
 BYTE   W24
 BYTE   Cs2
 BYTE   W72
//  #04 //108   ----------------------------------------
 BYTE   W24
 BYTE   Fs1
 BYTE   W72
//  #04 //109   ----------------------------------------
 BYTE   W96
//  #04 //110   ----------------------------------------
 BYTE   W96
//  #04 //111   ----------------------------------------
 BYTE   W96
//  #04 //112   ----------------------------------------
 BYTE   W96
//  #04 //113   ----------------------------------------
 BYTE   W96
//  #04 //114   ----------------------------------------
 BYTE   W96
//  #04 //115   ----------------------------------------
 BYTE   W96
//  #04 //116   ----------------------------------------
 BYTE   W96
//  #04 //117   ----------------------------------------
 BYTE   W96
//  #04 //118   ----------------------------------------
 BYTE   W96
//  #04 //119   ----------------------------------------
 BYTE   W96
//  #04 //120   ----------------------------------------
 BYTE   W96
//  #04 //121   ----------------------------------------
 BYTE   W96
//  #04 //122   ----------------------------------------
 BYTE   W96
//  #04 //123   ----------------------------------------
 BYTE   W96
//  #04 //124   ----------------------------------------
 BYTE   W96
//  #04 //125   ----------------------------------------
 BYTE   W96
//  #04 //126   ----------------------------------------
 BYTE   W96
//  #04 //127   ----------------------------------------
 BYTE   W96
//  #04 //128   ----------------------------------------
 BYTE   W96
//  #04 //129   ----------------------------------------
 BYTE   W96
//  #04 //130   ----------------------------------------
 BYTE   W96
//  #04 //131   ----------------------------------------
 BYTE   W96
//  #04 //132   ----------------------------------------
 BYTE   W96
//  #04 //133   ----------------------------------------
 BYTE   PATT
  POIN2 Label_010089CF
//  #04 //134   ----------------------------------------
 BYTE   W24
 BYTE   W72
//  #04 //135   ----------------------------------------
 BYTE   W23
 BYTE   EOT
 BYTE   Bn1
 BYTE   W01
 BYTE   TIE  An1  v096
 BYTE   W72
//  #04 //136   ----------------------------------------
 BYTE   W24
 BYTE   W72
//  #04 //137   ----------------------------------------
 BYTE   W23
 BYTE   EOT
 BYTE   W01
 BYTE   TIE  Gn1
 BYTE   W72
//  #04 //138   ----------------------------------------
 BYTE   W24
 BYTE   W72
//  #04 //139   ----------------------------------------
 BYTE   W23
 BYTE   EOT
 BYTE   W01
 BYTE   TIE  Fs1
 BYTE   W72
//  #04 //140   ----------------------------------------
 BYTE   W24
 BYTE   W72
//  #04 //141   ----------------------------------------
 BYTE   W23
 BYTE   EOT
 BYTE   W01
 BYTE   TIE  Bn2
 BYTE   W72
//  #04 //142   ----------------------------------------
 BYTE   W24
 BYTE   W72
//  #04 //143   ----------------------------------------
 BYTE   W23
 BYTE   EOT
 BYTE   W01
 BYTE   TIE  An2
 BYTE   W72
//  #04 //144   ----------------------------------------
 BYTE   W24
 BYTE   W72
//  #04 //145   ----------------------------------------
 BYTE   W23
 BYTE   EOT
 BYTE   W01
 BYTE   TIE  Gn2
 BYTE   W72
//  #04 //146   ----------------------------------------
 BYTE   W24
 BYTE   W72
//  #04 //147   ----------------------------------------
 BYTE   W23
 BYTE   EOT
 BYTE   W01
 BYTE   N92  Fs2
 BYTE   W72
//  #04 //148   ----------------------------------------
 BYTE   W24
 BYTE   N40  Fs3
 BYTE   W72
//  #04 //149   ----------------------------------------
 BYTE   PATT
  POIN2 Label_010089CF
//  #04 //150   ----------------------------------------
 BYTE   W24
 BYTE   W72
//  #04 //151   ----------------------------------------
 BYTE   W23
 BYTE   EOT
 BYTE   Bn1
 BYTE   W01
 BYTE   TIE  An1  v096
 BYTE   W72
//  #04 //152   ----------------------------------------
 BYTE   W24
 BYTE   W72
//  #04 //153   ----------------------------------------
 BYTE   W23
 BYTE   EOT
 BYTE   W01
 BYTE   TIE  Gn1
 BYTE   W72
//  #04 //154   ----------------------------------------
 BYTE   W24
 BYTE   W72
//  #04 //155   ----------------------------------------
 BYTE   W23
 BYTE   EOT
 BYTE   W01
 BYTE   TIE  Fs1
 BYTE   W72
//  #04 //156   ----------------------------------------
 BYTE   W24
 BYTE   W72
//  #04 //157   ----------------------------------------
 BYTE   W23
 BYTE   EOT
 BYTE   W01
 BYTE   N11  En2
 BYTE   W36
 BYTE   N11
 BYTE   W36
//  #04 //158   ----------------------------------------
 BYTE   PATT
  POIN2 Label_010089F7
//  #04 //159   ----------------------------------------
 BYTE   PATT
  POIN2 Label_01008A58
//  #04 //160   ----------------------------------------
 BYTE   PATT
  POIN2 Label_01008A06
//  #04 //161   ----------------------------------------
 BYTE   PATT
  POIN2 Label_01008A0F
//  #04 //162   ----------------------------------------
 BYTE   W24
 BYTE   W72
//  #04 //163   ----------------------------------------
 BYTE   W23
 BYTE   EOT
 BYTE   Cs2
 BYTE   W01
 BYTE   TIE  Cs2  v096
 BYTE   W72
//  #04 //164   ----------------------------------------
 BYTE   W24
 BYTE   W44
 BYTE   W03
 BYTE   EOT
 BYTE   W01
 BYTE   N44  En2
 BYTE   W24
//  #04 //165   ----------------------------------------
 BYTE   W24
 BYTE   TIE  Cs2  v080
 BYTE   W72
//  #04 //166   ----------------------------------------
 BYTE   W24
 BYTE   W72
//  #04 //167   ----------------------------------------
 BYTE   W23
 BYTE   EOT
 BYTE   W01
 BYTE   TIE  Bn1
 BYTE   W72
//  #04 //168   ----------------------------------------
 BYTE   W24
 BYTE   W72
//  #04 //169   ----------------------------------------
 BYTE   W23
 BYTE   EOT
 BYTE   W72
 BYTE   W01
//  #04 //170   ----------------------------------------
 BYTE   W96
//  #04 //171   ----------------------------------------
 BYTE   W96
//  #04 //172   ----------------------------------------
 BYTE   W96
//  #04 //173   ----------------------------------------
 BYTE   W96
//  #04 //174   ----------------------------------------
 BYTE   W96
//  #04 //175   ----------------------------------------
 BYTE   W96
//  #04 //176   ----------------------------------------
 BYTE   W96
//  #04 //177   ----------------------------------------
 BYTE   W96
//  #04 //178   ----------------------------------------
 BYTE   W24
 BYTE   TIE
 BYTE   W72
//  #04 //179   ----------------------------------------
 BYTE   W24
 BYTE   W72
//  #04 //180   ----------------------------------------
 BYTE   W24
 BYTE   W72
//  #04 //181   ----------------------------------------
 BYTE   W23
 BYTE   EOT
 BYTE   W72
 BYTE   W01
//  #04 //182   ----------------------------------------
 BYTE   GoTo
  POIN2 Label_010088E9
 BYTE   FINE

//**************** Track 5 (Midi-Chn.4) ****************//

TheWeightOfLife_005:
//  #05 //000   ----------------------------------------
 BYTE   KEYSH   TheWeightOfLife_key+0
 BYTE   VOICE   30
 BYTE   VOL   42*TheWeightOfLife_mvl/mxv
 BYTE   PAN   c_v+0
 BYTE   W24
Label_010057B5:
 BYTE   W72
//  #05 //001   ----------------------------------------
 BYTE   W96
//  #05 //002   ----------------------------------------
 BYTE   W96
//  #05 //003   ----------------------------------------
 BYTE   W96
//  #05 //004   ----------------------------------------
 BYTE   W96
//  #05 //005   ----------------------------------------
 BYTE   W96
//  #05 //006   ----------------------------------------
 BYTE   W96
//  #05 //007   ----------------------------------------
 BYTE   W96
//  #05 //008   ----------------------------------------
 BYTE   W96
//  #05 //009   ----------------------------------------
 BYTE   W96
//  #05 //010   ----------------------------------------
 BYTE   W96
//  #05 //011   ----------------------------------------
 BYTE   W96
//  #05 //012   ----------------------------------------
 BYTE   W96
//  #05 //013   ----------------------------------------
 BYTE   W96
//  #05 //014   ----------------------------------------
 BYTE   W96
//  #05 //015   ----------------------------------------
 BYTE   W96
//  #05 //016   ----------------------------------------
 BYTE   W96
//  #05 //017   ----------------------------------------
 BYTE   W96
//  #05 //018   ----------------------------------------
 BYTE   W96
//  #05 //019   ----------------------------------------
 BYTE   W96
//  #05 //020   ----------------------------------------
 BYTE   W96
//  #05 //021   ----------------------------------------
 BYTE   W96
//  #05 //022   ----------------------------------------
 BYTE   W96
//  #05 //023   ----------------------------------------
 BYTE   W96
//  #05 //024   ----------------------------------------
 BYTE   W96
//  #05 //025   ----------------------------------------
Label_010057CE:
 BYTE   W24
 BYTE   N11  Fs2  v036
 BYTE   W12
 BYTE   An2
 BYTE   W12
 BYTE   Cs3
 BYTE   W12
 BYTE   N23  Fs3
 BYTE   W36
 BYTE   PEND 
//  #05 //026   ----------------------------------------
 BYTE   PATT
  POIN2 Label_010057CE
//  #05 //027   ----------------------------------------
 BYTE   W24
 BYTE   N23  Fs2  v052
 BYTE   W24
 BYTE   N11  An2
 BYTE   W12
 BYTE   N23  Fs3
 BYTE   W24
 BYTE   Dn3
 BYTE   W12
//  #05 //028   ----------------------------------------
 BYTE   W12
 BYTE   Fs3
 BYTE   W24
 BYTE   Bn2
 BYTE   W24
 BYTE   N11  Fs2
 BYTE   W12
 BYTE   N44  Bn2
 BYTE   W24
//  #05 //029   ----------------------------------------
 BYTE   PATT
  POIN2 Label_010057CE
//  #05 //030   ----------------------------------------
 BYTE   W12
 BYTE   N23  Fs2  v052
 BYTE   W24
 BYTE   N11  An2
 BYTE   W12
 BYTE   Cs3
 BYTE   W12
 BYTE   N44  Fs3
 BYTE   W36
//  #05 //031   ----------------------------------------
 BYTE   W24
 BYTE   N11  Fs2
 BYTE   W12
 BYTE   An2
 BYTE   W12
 BYTE   Cs3
 BYTE   W12
 BYTE   N23  Fs3
 BYTE   W36
//  #05 //032   ----------------------------------------
 BYTE   W24
 BYTE   N11  Fs2
 BYTE   W12
 BYTE   An2
 BYTE   W12
 BYTE   Cs3
 BYTE   W12
 BYTE   N23  Fs3
 BYTE   W24
 BYTE   Cs3
 BYTE   W12
//  #05 //033   ----------------------------------------
 BYTE   W96
//  #05 //034   ----------------------------------------
 BYTE   W96
//  #05 //035   ----------------------------------------
 BYTE   W96
//  #05 //036   ----------------------------------------
 BYTE   W96
//  #05 //037   ----------------------------------------
 BYTE   W96
//  #05 //038   ----------------------------------------
 BYTE   W96
//  #05 //039   ----------------------------------------
 BYTE   W96
//  #05 //040   ----------------------------------------
 BYTE   W96
//  #05 //041   ----------------------------------------
 BYTE   W96
//  #05 //042   ----------------------------------------
 BYTE   W96
//  #05 //043   ----------------------------------------
 BYTE   W96
//  #05 //044   ----------------------------------------
 BYTE   W96
//  #05 //045   ----------------------------------------
 BYTE   W96
//  #05 //046   ----------------------------------------
 BYTE   W96
//  #05 //047   ----------------------------------------
 BYTE   W96
//  #05 //048   ----------------------------------------
 BYTE   W96
//  #05 //049   ----------------------------------------
 BYTE   W96
//  #05 //050   ----------------------------------------
 BYTE   W96
//  #05 //051   ----------------------------------------
 BYTE   W96
//  #05 //052   ----------------------------------------
 BYTE   W96
//  #05 //053   ----------------------------------------
 BYTE   W96
//  #05 //054   ----------------------------------------
 BYTE   W96
//  #05 //055   ----------------------------------------
 BYTE   W96
//  #05 //056   ----------------------------------------
 BYTE   W96
//  #05 //057   ----------------------------------------
 BYTE   W96
//  #05 //058   ----------------------------------------
 BYTE   W96
//  #05 //059   ----------------------------------------
 BYTE   W96
//  #05 //060   ----------------------------------------
 BYTE   W96
//  #05 //061   ----------------------------------------
 BYTE   W96
//  #05 //062   ----------------------------------------
 BYTE   W96
//  #05 //063   ----------------------------------------
 BYTE   W96
//  #05 //064   ----------------------------------------
 BYTE   W96
//  #05 //065   ----------------------------------------
 BYTE   W96
//  #05 //066   ----------------------------------------
 BYTE   W96
//  #05 //067   ----------------------------------------
 BYTE   W96
//  #05 //068   ----------------------------------------
 BYTE   W96
//  #05 //069   ----------------------------------------
 BYTE   W96
//  #05 //070   ----------------------------------------
 BYTE   W96
//  #05 //071   ----------------------------------------
 BYTE   W96
//  #05 //072   ----------------------------------------
 BYTE   W96
//  #05 //073   ----------------------------------------
 BYTE   W96
//  #05 //074   ----------------------------------------
 BYTE   W96
//  #05 //075   ----------------------------------------
 BYTE   W96
//  #05 //076   ----------------------------------------
 BYTE   W96
//  #05 //077   ----------------------------------------
 BYTE   W96
//  #05 //078   ----------------------------------------
 BYTE   W96
//  #05 //079   ----------------------------------------
 BYTE   W96
//  #05 //080   ----------------------------------------
 BYTE   W96
//  #05 //081   ----------------------------------------
 BYTE   W96
//  #05 //082   ----------------------------------------
 BYTE   W96
//  #05 //083   ----------------------------------------
 BYTE   W96
//  #05 //084   ----------------------------------------
 BYTE   W96
//  #05 //085   ----------------------------------------
 BYTE   W96
//  #05 //086   ----------------------------------------
 BYTE   W96
//  #05 //087   ----------------------------------------
 BYTE   W96
//  #05 //088   ----------------------------------------
 BYTE   W96
//  #05 //089   ----------------------------------------
 BYTE   W96
//  #05 //090   ----------------------------------------
 BYTE   W96
//  #05 //091   ----------------------------------------
 BYTE   W96
//  #05 //092   ----------------------------------------
 BYTE   W96
//  #05 //093   ----------------------------------------
 BYTE   W96
//  #05 //094   ----------------------------------------
 BYTE   W96
//  #05 //095   ----------------------------------------
 BYTE   W96
//  #05 //096   ----------------------------------------
 BYTE   W96
//  #05 //097   ----------------------------------------
 BYTE   W96
//  #05 //098   ----------------------------------------
 BYTE   W96
//  #05 //099   ----------------------------------------
 BYTE   W96
//  #05 //100   ----------------------------------------
 BYTE   W96
//  #05 //101   ----------------------------------------
 BYTE   W96
//  #05 //102   ----------------------------------------
 BYTE   W96
//  #05 //103   ----------------------------------------
 BYTE   W96
//  #05 //104   ----------------------------------------
 BYTE   W96
//  #05 //105   ----------------------------------------
 BYTE   W96
//  #05 //106   ----------------------------------------
 BYTE   W36
 BYTE   N11  Fs1
 BYTE   W12
 BYTE   An1
 BYTE   W12
 BYTE   Bn1
 BYTE   W12
 BYTE   N44  Cs2
 BYTE   W24
//  #05 //107   ----------------------------------------
 BYTE   W24
 BYTE   TIE  Fs2
 BYTE   W72
//  #05 //108   ----------------------------------------
 BYTE   W96
//  #05 //109   ----------------------------------------
 BYTE   W23
 BYTE   EOT
 BYTE   W72
 BYTE   W01
//  #05 //110   ----------------------------------------
 BYTE   W96
//  #05 //111   ----------------------------------------
 BYTE   W96
//  #05 //112   ----------------------------------------
 BYTE   W96
//  #05 //113   ----------------------------------------
 BYTE   W96
//  #05 //114   ----------------------------------------
 BYTE   W96
//  #05 //115   ----------------------------------------
 BYTE   W96
//  #05 //116   ----------------------------------------
 BYTE   W96
//  #05 //117   ----------------------------------------
 BYTE   W96
//  #05 //118   ----------------------------------------
 BYTE   W96
//  #05 //119   ----------------------------------------
 BYTE   W96
//  #05 //120   ----------------------------------------
 BYTE   W96
//  #05 //121   ----------------------------------------
 BYTE   W96
//  #05 //122   ----------------------------------------
 BYTE   W96
//  #05 //123   ----------------------------------------
 BYTE   W96
//  #05 //124   ----------------------------------------
 BYTE   W96
//  #05 //125   ----------------------------------------
 BYTE   W96
//  #05 //126   ----------------------------------------
 BYTE   W96
//  #05 //127   ----------------------------------------
 BYTE   W96
//  #05 //128   ----------------------------------------
 BYTE   W96
//  #05 //129   ----------------------------------------
 BYTE   W96
//  #05 //130   ----------------------------------------
 BYTE   W96
//  #05 //131   ----------------------------------------
 BYTE   W96
//  #05 //132   ----------------------------------------
 BYTE   W96
//  #05 //133   ----------------------------------------
 BYTE   W96
//  #05 //134   ----------------------------------------
 BYTE   W96
//  #05 //135   ----------------------------------------
 BYTE   W96
//  #05 //136   ----------------------------------------
 BYTE   W24
 BYTE   N05  Bn2  v096
 BYTE   W06
 BYTE   Dn3
 BYTE   W06
 BYTE   N11  Cs3
 BYTE   W60
//  #05 //137   ----------------------------------------
 BYTE   W96
//  #05 //138   ----------------------------------------
 BYTE   W96
//  #05 //139   ----------------------------------------
 BYTE   W96
//  #05 //140   ----------------------------------------
 BYTE   W96
//  #05 //141   ----------------------------------------
 BYTE   W96
//  #05 //142   ----------------------------------------
 BYTE   W96
//  #05 //143   ----------------------------------------
 BYTE   W96
//  #05 //144   ----------------------------------------
 BYTE   W96
//  #05 //145   ----------------------------------------
 BYTE   W96
//  #05 //146   ----------------------------------------
 BYTE   W96
//  #05 //147   ----------------------------------------
 BYTE   W96
//  #05 //148   ----------------------------------------
 BYTE   W96
//  #05 //149   ----------------------------------------
 BYTE   W96
//  #05 //150   ----------------------------------------
 BYTE   W96
//  #05 //151   ----------------------------------------
 BYTE   W96
//  #05 //152   ----------------------------------------
 BYTE   W96
//  #05 //153   ----------------------------------------
 BYTE   W96
//  #05 //154   ----------------------------------------
 BYTE   W96
//  #05 //155   ----------------------------------------
 BYTE   W96
//  #05 //156   ----------------------------------------
 BYTE   W96
//  #05 //157   ----------------------------------------
 BYTE   W96
//  #05 //158   ----------------------------------------
 BYTE   W96
//  #05 //159   ----------------------------------------
 BYTE   W96
//  #05 //160   ----------------------------------------
 BYTE   W96
//  #05 //161   ----------------------------------------
 BYTE   W96
//  #05 //162   ----------------------------------------
 BYTE   W96
//  #05 //163   ----------------------------------------
 BYTE   W96
//  #05 //164   ----------------------------------------
 BYTE   W96
//  #05 //165   ----------------------------------------
 BYTE   W96
//  #05 //166   ----------------------------------------
 BYTE   W96
//  #05 //167   ----------------------------------------
 BYTE   W96
//  #05 //168   ----------------------------------------
 BYTE   W96
//  #05 //169   ----------------------------------------
 BYTE   W96
//  #05 //170   ----------------------------------------
 BYTE   W96
//  #05 //171   ----------------------------------------
 BYTE   W96
//  #05 //172   ----------------------------------------
 BYTE   W96
//  #05 //173   ----------------------------------------
 BYTE   W96
//  #05 //174   ----------------------------------------
 BYTE   W96
//  #05 //175   ----------------------------------------
 BYTE   W96
//  #05 //176   ----------------------------------------
 BYTE   W96
//  #05 //177   ----------------------------------------
 BYTE   W96
//  #05 //178   ----------------------------------------
 BYTE   W96
//  #05 //179   ----------------------------------------
 BYTE   W96
//  #05 //180   ----------------------------------------
 BYTE   W96
//  #05 //181   ----------------------------------------
 BYTE   W96
//  #05 //182   ----------------------------------------
 BYTE   GoTo
  POIN2 Label_010057B5
 BYTE   FINE

//**************** Track 6 (Midi-Chn.5) ****************//

TheWeightOfLife_006:
//  #06 //000   ----------------------------------------
 BYTE   KEYSH   TheWeightOfLife_key+0
 BYTE   VOICE   1
 BYTE   VOL   42*TheWeightOfLife_mvl/mxv
 BYTE   PAN   c_v+0
 BYTE   W24
Label_01009FB1:
 BYTE   W72
//  #06 //001   ----------------------------------------
 BYTE   W96
//  #06 //002   ----------------------------------------
 BYTE   W96
//  #06 //003   ----------------------------------------
 BYTE   W96
//  #06 //004   ----------------------------------------
 BYTE   W96
//  #06 //005   ----------------------------------------
 BYTE   W96
//  #06 //006   ----------------------------------------
 BYTE   W96
//  #06 //007   ----------------------------------------
 BYTE   W96
//  #06 //008   ----------------------------------------
 BYTE   W96
//  #06 //009   ----------------------------------------
 BYTE   W24
 BYTE   N11  An4  v096
 BYTE   W12
 BYTE   Bn3
 BYTE   W12
 BYTE   Dn4
 BYTE   W12
 BYTE   An4
 BYTE   W12
 BYTE   Bn3
 BYTE   W12
 BYTE   Dn4
 BYTE   W12
//  #06 //010   ----------------------------------------
Label_01009FC9:
 BYTE   N11  An4  v096
 BYTE   W12
 BYTE   Bn3
 BYTE   W12
 BYTE   Dn4
 BYTE   W12
 BYTE   An4
 BYTE   W12
 BYTE   Bn3
 BYTE   W12
 BYTE   Dn4
 BYTE   W12
 BYTE   An4
 BYTE   W12
 BYTE   Bn3
 BYTE   W12
 BYTE   PEND 
//  #06 //011   ----------------------------------------
 BYTE   Dn4
 BYTE   W12
 BYTE   An4
 BYTE   W12
 BYTE   Bn3
 BYTE   W12
 BYTE   Dn4
 BYTE   W12
 BYTE   An4
 BYTE   W12
 BYTE   Bn3
 BYTE   W12
 BYTE   Dn4
 BYTE   W12
 BYTE   An4
 BYTE   W12
//  #06 //012   ----------------------------------------
 BYTE   Bn3
 BYTE   W12
 BYTE   Dn4
 BYTE   W12
 BYTE   An4
 BYTE   W12
 BYTE   Bn3
 BYTE   W12
 BYTE   Dn4
 BYTE   W12
 BYTE   An4
 BYTE   W12
 BYTE   Bn3
 BYTE   W12
 BYTE   Bn4
 BYTE   W12
//  #06 //013   ----------------------------------------
 BYTE   An4
 BYTE   W12
 BYTE   Dn4
 BYTE   W12
 BYTE   Bn3
 BYTE   W12
 BYTE   Dn4
 BYTE   W12
 BYTE   An4
 BYTE   W12
 BYTE   Bn3
 BYTE   W12
 BYTE   Dn4
 BYTE   W12
 BYTE   An4
 BYTE   W12
//  #06 //014   ----------------------------------------
 BYTE   Bn3
 BYTE   W12
 BYTE   Dn4
 BYTE   W12
 BYTE   An4
 BYTE   W12
 BYTE   Bn3
 BYTE   W12
 BYTE   Dn4
 BYTE   W12
 BYTE   An4
 BYTE   W12
 BYTE   Bn3
 BYTE   W12
 BYTE   Dn4
 BYTE   W12
//  #06 //015   ----------------------------------------
 BYTE   PATT
  POIN2 Label_01009FC9
//  #06 //016   ----------------------------------------
 BYTE   N11  Dn4  v096
 BYTE   W12
 BYTE   An4
 BYTE   W12
 BYTE   N05  Bn3  v127
 BYTE   W12
 BYTE   Dn4
 BYTE   W12
 BYTE   An4
 BYTE   W12
 BYTE   N11  En4
 BYTE   W24
 BYTE   N05  Dn4
 BYTE   W12
//  #06 //017   ----------------------------------------
 BYTE   Cs4
 BYTE   W12
 BYTE   N32  An3  v096
 BYTE   W84
//  #06 //018   ----------------------------------------
 BYTE   W96
//  #06 //019   ----------------------------------------
 BYTE   W96
//  #06 //020   ----------------------------------------
 BYTE   W96
//  #06 //021   ----------------------------------------
 BYTE   W96
//  #06 //022   ----------------------------------------
 BYTE   W96
//  #06 //023   ----------------------------------------
 BYTE   W96
//  #06 //024   ----------------------------------------
 BYTE   W96
//  #06 //025   ----------------------------------------
 BYTE   W96
//  #06 //026   ----------------------------------------
 BYTE   W96
//  #06 //027   ----------------------------------------
 BYTE   W96
//  #06 //028   ----------------------------------------
 BYTE   W96
//  #06 //029   ----------------------------------------
 BYTE   W96
//  #06 //030   ----------------------------------------
 BYTE   W96
//  #06 //031   ----------------------------------------
 BYTE   W96
//  #06 //032   ----------------------------------------
 BYTE   W96
//  #06 //033   ----------------------------------------
 BYTE   W24
 BYTE   N56  Fs4  v112
 BYTE   W60
 BYTE   N11  En4
 BYTE   W12
//  #06 //034   ----------------------------------------
 BYTE   Dn4
 BYTE   W12
 BYTE   N56  Cs4
 BYTE   W60
 BYTE   N22  Bn3
 BYTE   W24
//  #06 //035   ----------------------------------------
 BYTE   En4
 BYTE   W24
 BYTE   N68  Cs4
 BYTE   W72
//  #06 //036   ----------------------------------------
 BYTE   N11  An3
 BYTE   W12
 BYTE   TIE  Fs3
 BYTE   W84
//  #06 //037   ----------------------------------------
 BYTE   W18
 BYTE   EOT
 BYTE   W06
 BYTE   N56  Fs4
 BYTE   W60
 BYTE   N11  En4
 BYTE   W12
//  #06 //038   ----------------------------------------
 BYTE   Dn4
 BYTE   W12
 BYTE   N56  Cs4
 BYTE   W60
 BYTE   N22  Fs3
 BYTE   W24
//  #06 //039   ----------------------------------------
 BYTE   En4
 BYTE   W24
 BYTE   N32  Cs4
 BYTE   W36
 BYTE   TIE  Dn4
 BYTE   W36
//  #06 //040   ----------------------------------------
 BYTE   W96
//  #06 //041   ----------------------------------------
 BYTE   W16
 BYTE   EOT
 BYTE   W08
 BYTE   N11  En2  v080
 BYTE   N11  En3
 BYTE   W12
 BYTE   Gn2
 BYTE   N11  Gn3
 BYTE   W12
 BYTE   Bn2
 BYTE   N11  Bn3
 BYTE   W12
 BYTE   N22  En3
 BYTE   N22  En4
 BYTE   W24
 BYTE   N11  Bn2
 BYTE   N11  Bn3
 BYTE   W12
//  #06 //042   ----------------------------------------
 BYTE   En2
 BYTE   N11  En3
 BYTE   W12
 BYTE   N22
 BYTE   N22  En4
 BYTE   W24
 BYTE   N11  Bn2
 BYTE   N11  Bn3
 BYTE   W12
 BYTE   En2
 BYTE   N11  En3
 BYTE   W12
 BYTE   Bn2
 BYTE   N11  Bn3
 BYTE   W12
 BYTE   Bn2
 BYTE   N11  Bn3
 BYTE   W12
 BYTE   En2
 BYTE   N11  En3
 BYTE   W12
//  #06 //043   ----------------------------------------
 BYTE   N22  Cs3
 BYTE   N22  Cs4
 BYTE   W24
 BYTE   N11  Fs2
 BYTE   N11  Fs3
 BYTE   W12
 BYTE   An2
 BYTE   N11  An3
 BYTE   W12
 BYTE   Cs3
 BYTE   N11  Cs4
 BYTE   W12
 BYTE   N22  Fs3
 BYTE   N22  Fs4
 BYTE   W24
 BYTE   N11  Cs3
 BYTE   N11  Cs4
 BYTE   W12
//  #06 //044   ----------------------------------------
 BYTE   Fs2
 BYTE   N11  Fs3
 BYTE   W12
 BYTE   N22
 BYTE   N22  Fs4
 BYTE   W24
 BYTE   N11  Cs3
 BYTE   N11  Cs4
 BYTE   W12
 BYTE   Fs2
 BYTE   N11  Fs3
 BYTE   W12
 BYTE   Cs3
 BYTE   N11  Cs4
 BYTE   W12
 BYTE   Cs3
 BYTE   N11  Cs4
 BYTE   W12
 BYTE   Fs2
 BYTE   N11  Fs3
 BYTE   W12
//  #06 //045   ----------------------------------------
 BYTE   N22  Cs3
 BYTE   N22  Cs4
 BYTE   W24
 BYTE   N11  An2
 BYTE   N11  Fs3
 BYTE   N11  Fs4
 BYTE   W12
 BYTE   Fs2
 BYTE   W24
 BYTE   N44
 BYTE   N11  Fs3
 BYTE   N11  Fs4
 BYTE   W36
//  #06 //046   ----------------------------------------
 BYTE   W24
 BYTE   N22  Fs3
 BYTE   N22  Fs4
 BYTE   W36
 BYTE   Fs3
 BYTE   N22  Fs4
 BYTE   W36
//  #06 //047   ----------------------------------------
 BYTE   W96
//  #06 //048   ----------------------------------------
 BYTE   W96
//  #06 //049   ----------------------------------------
 BYTE   W96
//  #06 //050   ----------------------------------------
 BYTE   W96
//  #06 //051   ----------------------------------------
 BYTE   W48
 BYTE   N11  As4  v108
 BYTE   W12
 BYTE   Bn4  v112
 BYTE   W12
 BYTE   Cs5  v116
 BYTE   W12
 BYTE   Dn5  v120
 BYTE   W12
//  #06 //052   ----------------------------------------
 BYTE   En5
 BYTE   W12
 BYTE   Fn5  v124
 BYTE   W12
 BYTE   Fs5  v127
 BYTE   W12
 BYTE   N11
 BYTE   W36
 BYTE   N22  Bn2
 BYTE   N22  Bn4
 BYTE   W24
//  #06 //053   ----------------------------------------
Label_0100A12F:
 BYTE   N22  Cs3  v127
 BYTE   N22  Cs5
 BYTE   W24
 BYTE   N68  Dn3
 BYTE   N68  Dn5
 BYTE   W72
 BYTE   PEND 
//  #06 //054   ----------------------------------------
Label_0100A13B:
 BYTE   N11  Cs3  v127
 BYTE   N11  Cs5
 BYTE   W12
 BYTE   N56  An2
 BYTE   N56  An4
 BYTE   W60
 BYTE   N22  Fs2
 BYTE   N22  Fs4
 BYTE   W24
 BYTE   PEND 
//  #06 //055   ----------------------------------------
Label_0100A14C:
 BYTE   N22  Fs3  v127
 BYTE   N22  Fs5
 BYTE   W24
 BYTE   En3
 BYTE   N22  En5
 BYTE   W24
 BYTE   N11  Fs3
 BYTE   N11  Fs5
 BYTE   W12
 BYTE   TIE  Cs3
 BYTE   TIE  Cs5
 BYTE   W36
 BYTE   PEND 
//  #06 //056   ----------------------------------------
 BYTE   W96
//  #06 //057   ----------------------------------------
 BYTE   W16
 BYTE   EOT
 BYTE   Cs3  v085
 BYTE   W08
 BYTE   N68  Dn3
 BYTE   N68  Dn5
 BYTE   W72
//  #06 //058   ----------------------------------------
 BYTE   PATT
  POIN2 Label_0100A13B
//  #06 //059   ----------------------------------------
Label_0100A171:
 BYTE   N22  Fs3  v127
 BYTE   N22  Fs5
 BYTE   W24
 BYTE   En3
 BYTE   N22  En5
 BYTE   W24
 BYTE   N11  An3
 BYTE   N11  An5
 BYTE   W12
 BYTE   TIE  Cs3
 BYTE   TIE  Cs5
 BYTE   W36
 BYTE   PEND 
//  #06 //060   ----------------------------------------
 BYTE   W96
//  #06 //061   ----------------------------------------
 BYTE   W16
 BYTE   EOT
 BYTE   Cs3  v085
 BYTE   W80
//  #06 //062   ----------------------------------------
 BYTE   W96
//  #06 //063   ----------------------------------------
 BYTE   W96
//  #06 //064   ----------------------------------------
 BYTE   W96
//  #06 //065   ----------------------------------------
 BYTE   W96
//  #06 //066   ----------------------------------------
 BYTE   W96
//  #06 //067   ----------------------------------------
 BYTE   W96
//  #06 //068   ----------------------------------------
Label_0100A192:
 BYTE   W72
 BYTE   N22  Bn2  v127
 BYTE   N22  Bn4
 BYTE   W24
 BYTE   PEND 
//  #06 //069   ----------------------------------------
 BYTE   PATT
  POIN2 Label_0100A12F
//  #06 //070   ----------------------------------------
 BYTE   PATT
  POIN2 Label_0100A13B
//  #06 //071   ----------------------------------------
 BYTE   PATT
  POIN2 Label_0100A14C
//  #06 //072   ----------------------------------------
 BYTE   W96
//  #06 //073   ----------------------------------------
 BYTE   W16
 BYTE   EOT
 BYTE   Cs3  v085
 BYTE   W08
 BYTE   N68  Dn3  v127
 BYTE   N68  Dn5
 BYTE   W72
//  #06 //074   ----------------------------------------
 BYTE   PATT
  POIN2 Label_0100A13B
//  #06 //075   ----------------------------------------
 BYTE   PATT
  POIN2 Label_0100A171
//  #06 //076   ----------------------------------------
 BYTE   W96
//  #06 //077   ----------------------------------------
 BYTE   W16
 BYTE   EOT
 BYTE   Cs3  v085
 BYTE   W80
//  #06 //078   ----------------------------------------
 BYTE   W96
//  #06 //079   ----------------------------------------
 BYTE   W96
//  #06 //080   ----------------------------------------
 BYTE   W96
//  #06 //081   ----------------------------------------
 BYTE   W96
//  #06 //082   ----------------------------------------
 BYTE   W96
//  #06 //083   ----------------------------------------
 BYTE   W96
//  #06 //084   ----------------------------------------
 BYTE   W96
//  #06 //085   ----------------------------------------
 BYTE   W96
//  #06 //086   ----------------------------------------
 BYTE   W96
//  #06 //087   ----------------------------------------
 BYTE   W96
//  #06 //088   ----------------------------------------
 BYTE   W96
//  #06 //089   ----------------------------------------
 BYTE   W96
//  #06 //090   ----------------------------------------
 BYTE   W96
//  #06 //091   ----------------------------------------
 BYTE   W96
//  #06 //092   ----------------------------------------
 BYTE   W72
 BYTE   N22  Bn3  v064
 BYTE   N22  Bn4
 BYTE   W24
//  #06 //093   ----------------------------------------
 BYTE   Cs4  v072
 BYTE   N22  Cs5
 BYTE   W24
 BYTE   N32  Dn4  v080
 BYTE   N32  Dn5
 BYTE   W36
 BYTE   Cs4
 BYTE   N32  Cs5
 BYTE   W36
//  #06 //094   ----------------------------------------
 BYTE   N11  An3
 BYTE   N11  An4
 BYTE   W12
 BYTE   TIE  Fs3
 BYTE   TIE  Fs4
 BYTE   W84
//  #06 //095   ----------------------------------------
 BYTE   W18
 BYTE   EOT
 BYTE   Fs3  v078
 BYTE   W06
 BYTE   N32  Dn4
 BYTE   N32  Dn5
 BYTE   W36
 BYTE   Cs4
 BYTE   N32  Cs5
 BYTE   W36
//  #06 //096   ----------------------------------------
 BYTE   N11  Dn4
 BYTE   N11  Dn5
 BYTE   W12
 BYTE   N32  En4
 BYTE   N32  En5
 BYTE   W36
 BYTE   N22  Fs4
 BYTE   N22  Fs5
 BYTE   W24
 BYTE   Cs4
 BYTE   N22  Cs5
 BYTE   W24
//  #06 //097   ----------------------------------------
 BYTE   An3
 BYTE   N22  An4
 BYTE   W24
 BYTE   TIE  Bn3
 BYTE   N44  Bn4
 BYTE   W48
 BYTE   N11  Fs2  v096
 BYTE   W12
 BYTE   An3
 BYTE   W12
//  #06 //098   ----------------------------------------
 BYTE   Dn4
 BYTE   W12
 BYTE   Fs4
 BYTE   W12
 BYTE   N15  Fs5  v080
 BYTE   W10
 BYTE   EOT
 BYTE   Bn3
 BYTE   W06
 BYTE   N15  An3  v084
 BYTE   N15  An4
 BYTE   W16
 BYTE   Gn3  v088
 BYTE   N15  Gn4
 BYTE   W16
 BYTE   Fs3
 BYTE   N15  Fs4
 BYTE   W16
 BYTE   En3  v092
 BYTE   N15  En4
 BYTE   W08
//  #06 //099   ----------------------------------------
 BYTE   W08
 BYTE   Gn3  v096
 BYTE   N15  Gn4
 BYTE   W16
 BYTE   N68  Fs4
 BYTE   W72
//  #06 //100   ----------------------------------------
 BYTE   N22  Fs3
 BYTE   W24
 BYTE   Gn3
 BYTE   W24
 BYTE   Fs3
 BYTE   W24
 BYTE   Gn3
 BYTE   W24
//  #06 //101   ----------------------------------------
 BYTE   An3
 BYTE   W24
 BYTE   Dn5
 BYTE   W24
 BYTE   Cs5
 BYTE   W24
 BYTE   Bn4
 BYTE   W24
//  #06 //102   ----------------------------------------
 BYTE   An4
 BYTE   W24
 BYTE   Bn4
 BYTE   W24
 BYTE   Cs5
 BYTE   W24
 BYTE   Dn5
 BYTE   W24
//  #06 //103   ----------------------------------------
 BYTE   En5
 BYTE   W24
 BYTE   N11  Fs5
 BYTE   W12
 BYTE   Cs5
 BYTE   W12
 BYTE   Ds5
 BYTE   W12
 BYTE   Fn5
 BYTE   W12
 BYTE   Gs5
 BYTE   W12
 BYTE   Cs5
 BYTE   W12
//  #06 //104   ----------------------------------------
 BYTE   Fs5
 BYTE   W12
 BYTE   Gs5
 BYTE   W12
 BYTE   An5
 BYTE   W12
 BYTE   Cs5
 BYTE   W12
 BYTE   Fs5
 BYTE   W12
 BYTE   An5
 BYTE   W12
 BYTE   Bn5
 BYTE   W12
 BYTE   Cs5
 BYTE   W12
//  #06 //105   ----------------------------------------
 BYTE   Fs5
 BYTE   W12
 BYTE   Bn5
 BYTE   W12
 BYTE   N32  Fs5
 BYTE   W36
 BYTE   N05  Gs5
 BYTE   W06
 BYTE   An5
 BYTE   W06
 BYTE   N11  Gs5
 BYTE   W12
 BYTE   En5
 BYTE   W12
//  #06 //106   ----------------------------------------
 BYTE   Cs5
 BYTE   W12
 BYTE   Bn4
 BYTE   W12
 BYTE   An4
 BYTE   W12
 BYTE   Fs4
 BYTE   W12
 BYTE   En4
 BYTE   W12
 BYTE   Cs4
 BYTE   W12
 BYTE   Bn3
 BYTE   W12
 BYTE   An3
 BYTE   W12
//  #06 //107   ----------------------------------------
 BYTE   Fs3
 BYTE   W12
 BYTE   En3
 BYTE   W12
 BYTE   N44  Cs3
 BYTE   W60
 BYTE   N11  En3
 BYTE   W12
//  #06 //108   ----------------------------------------
 BYTE   Cs3
 BYTE   W12
 BYTE   En3
 BYTE   W12
 BYTE   N44  Fs3
 BYTE   W48
 BYTE   Fs4
 BYTE   W04
 BYTE   N42  Cs5
 BYTE   W20
//  #06 //109   ----------------------------------------
 BYTE   W24
 BYTE   N11
 BYTE   W12
 BYTE   Dn5
 BYTE   W12
 BYTE   An5
 BYTE   W12
 BYTE   Cs5
 BYTE   W12
 BYTE   Dn5
 BYTE   W12
 BYTE   An5
 BYTE   W12
//  #06 //110   ----------------------------------------
 BYTE   Cs5
 BYTE   W12
 BYTE   Dn5
 BYTE   W12
 BYTE   An5
 BYTE   W12
 BYTE   Cs5
 BYTE   W12
 BYTE   Dn5
 BYTE   W12
 BYTE   An5
 BYTE   W12
 BYTE   Cs5
 BYTE   W12
 BYTE   Dn5
 BYTE   W12
//  #06 //111   ----------------------------------------
 BYTE   Fs5
 BYTE   W12
 BYTE   An5
 BYTE   W12
 BYTE   TIE
 BYTE   W02
 BYTE   En6
 BYTE   W68
 BYTE   W02
//  #06 //112   ----------------------------------------
 BYTE   W90
 BYTE   W01
 BYTE   EOT
 BYTE   W01
 BYTE   EOT
 BYTE   An5
 BYTE   W04
//  #06 //113   ----------------------------------------
 BYTE   W24
 BYTE   N44  Gs4  v076
 BYTE   W02
 BYTE   N78  Cs5
 BYTE   W68
 BYTE   W02
//  #06 //114   ----------------------------------------
 BYTE   W12
 BYTE   N11  Cn5
 BYTE   W12
 BYTE   N90  Gs3  v052
 BYTE   N32  Cs5  v076
 BYTE   W36
 BYTE   Cn5
 BYTE   W36
//  #06 //115   ----------------------------------------
 BYTE   N23  Gs4
 BYTE   W24
 BYTE   N22  Fn3  v052
 BYTE   N32  Gs4  v076
 BYTE   W24
 BYTE   N11  Gs3  v052
 BYTE   W12
 BYTE   TIE  As3
 BYTE   TIE  As4  v076
 BYTE   W36
//  #06 //116   ----------------------------------------
 BYTE   W66
 BYTE   EOT
 BYTE   As3
 BYTE   W06
 BYTE   N44  Fn3  v052
 BYTE   W17
 BYTE   EOT
 BYTE   As4
 BYTE   W07
//  #06 //117   ----------------------------------------
 BYTE   N11  Cs5  v076
 BYTE   W12
 BYTE   Ds5
 BYTE   W12
 BYTE   N68  Ds3  v052
 BYTE   N44  Fn5  v076
 BYTE   W48
 BYTE   N11
 BYTE   W12
 BYTE   Gs5
 BYTE   W12
//  #06 //118   ----------------------------------------
 BYTE   TIE  Fn3  v052
 BYTE   N11  Fs5  v076
 BYTE   W12
 BYTE   N32  Ds5
 BYTE   W36
 BYTE   N23  Cs5
 BYTE   W24
 BYTE   Cn5
 BYTE   W24
//  #06 //119   ----------------------------------------
 BYTE   Cs5
 BYTE   W17
 BYTE   EOT
 BYTE   Fn3
 BYTE   W07
 BYTE   N32  As3  v052
 BYTE   N32  As4  v076
 BYTE   W36
 BYTE   TIE  Fn4  v052
 BYTE   TIE  Fn5  v076
 BYTE   W36
//  #06 //120   ----------------------------------------
 BYTE   W96
//  #06 //121   ----------------------------------------
 BYTE   W16
 BYTE   EOT
 BYTE   Fn4  v089
 BYTE   W80
//  #06 //122   ----------------------------------------
 BYTE   W96
//  #06 //123   ----------------------------------------
 BYTE   W96
//  #06 //124   ----------------------------------------
 BYTE   W96
//  #06 //125   ----------------------------------------
 BYTE   N11  Cs4  v096
 BYTE   N11  Cs5  v127
 BYTE   W12
 BYTE   Ds4  v096
 BYTE   N11  Ds5  v127
 BYTE   W12
 BYTE   Gs1  v096
 BYTE   N44  Fn4
 BYTE   N44  Fn5  v127
 BYTE   W12
 BYTE   N11  As1  v096
 BYTE   W12
 BYTE   Cs2
 BYTE   W12
 BYTE   N44  Ds2
 BYTE   W12
 BYTE   N11  Fn4
 BYTE   N11  Fn5  v127
 BYTE   W12
 BYTE   Gs4  v096
 BYTE   N11  Gs5  v127
 BYTE   W12
//  #06 //126   ----------------------------------------
 BYTE   Fs4  v096
 BYTE   N11  Fs5  v127
 BYTE   W12
 BYTE   N22  Gs1  v096
 BYTE   N56  Ds4
 BYTE   N56  Ds5  v127
 BYTE   W24
 BYTE   N11  As1  v096
 BYTE   W12
 BYTE   Cs2
 BYTE   W12
 BYTE   N44  Ds2
 BYTE   W12
 BYTE   N22  Cs4
 BYTE   N23  Cs5  v127
 BYTE   W24
//  #06 //127   ----------------------------------------
 BYTE   N22  Ds4  v096
 BYTE   N23  Ds5  v127
 BYTE   W24
 BYTE   N11  Gs1  v096
 BYTE   N44  Fn4
 BYTE   N44  Fn5  v127
 BYTE   W12
 BYTE   N11  As1  v096
 BYTE   W12
 BYTE   Cs2
 BYTE   W12
 BYTE   N44  Ds2
 BYTE   W12
 BYTE   N11  Fn4
 BYTE   N11  Fn5  v127
 BYTE   W12
 BYTE   N32  Cn5  v096
 BYTE   N32  Cn6  v127
 BYTE   W12
//  #06 //128   ----------------------------------------
 BYTE   W24
 BYTE   N90  Gs1  v096
 BYTE   N22  Gs3
 BYTE   N72  Gs4
 BYTE   W24
 BYTE   N11  Cn3  v127
 BYTE   W12
 BYTE   As3
 BYTE   W12
 BYTE   Cs4
 BYTE   W12
 BYTE   Fn4
 BYTE   W12
//  #06 //129   ----------------------------------------
 BYTE   N19  Gs4
 BYTE   W12
 BYTE   N11  Cn5
 BYTE   W12
 BYTE   TIE  Fn5
 BYTE   W72
//  #06 //130   ----------------------------------------
 BYTE   W64
 BYTE   W01
 BYTE   EOT
 BYTE   W30
 BYTE   W01
//  #06 //131   ----------------------------------------
 BYTE   W96
//  #06 //132   ----------------------------------------
 BYTE   W96
//  #06 //133   ----------------------------------------
 BYTE   W96
//  #06 //134   ----------------------------------------
 BYTE   W96
//  #06 //135   ----------------------------------------
 BYTE   W96
//  #06 //136   ----------------------------------------
 BYTE   W96
//  #06 //137   ----------------------------------------
 BYTE   W96
//  #06 //138   ----------------------------------------
 BYTE   W96
//  #06 //139   ----------------------------------------
 BYTE   W96
//  #06 //140   ----------------------------------------
 BYTE   W96
//  #06 //141   ----------------------------------------
 BYTE   W96
//  #06 //142   ----------------------------------------
 BYTE   W96
//  #06 //143   ----------------------------------------
 BYTE   W96
//  #06 //144   ----------------------------------------
 BYTE   W96
//  #06 //145   ----------------------------------------
 BYTE   W96
//  #06 //146   ----------------------------------------
 BYTE   W96
//  #06 //147   ----------------------------------------
 BYTE   W96
//  #06 //148   ----------------------------------------
 BYTE   PATT
  POIN2 Label_0100A192
//  #06 //149   ----------------------------------------
 BYTE   PATT
  POIN2 Label_0100A12F
//  #06 //150   ----------------------------------------
 BYTE   PATT
  POIN2 Label_0100A13B
//  #06 //151   ----------------------------------------
 BYTE   PATT
  POIN2 Label_0100A14C
//  #06 //152   ----------------------------------------
 BYTE   W96
//  #06 //153   ----------------------------------------
 BYTE   W16
 BYTE   EOT
 BYTE   Cs3  v085
 BYTE   W08
 BYTE   N68  Dn3  v127
 BYTE   N68  Dn5
 BYTE   W72
//  #06 //154   ----------------------------------------
 BYTE   PATT
  POIN2 Label_0100A13B
//  #06 //155   ----------------------------------------
 BYTE   PATT
  POIN2 Label_0100A171
//  #06 //156   ----------------------------------------
 BYTE   W66
 BYTE   EOT
 BYTE   Cs3  v085
 BYTE   W06
 BYTE   N22  Dn3  v096
 BYTE   N22  Dn5
 BYTE   W24
//  #06 //157   ----------------------------------------
Label_0100A42D:
 BYTE   N22  En3  v096
 BYTE   N22  En5
 BYTE   W24
 BYTE   N68  Fs3
 BYTE   N68  Fs5
 BYTE   W72
 BYTE   PEND 
//  #06 //158   ----------------------------------------
 BYTE   N11  En3
 BYTE   N11  En5
 BYTE   W12
 BYTE   N32  An3
 BYTE   N32  An5
 BYTE   W36
 BYTE   N22  Gn3
 BYTE   N22  Gn5
 BYTE   W24
 BYTE   Fs3
 BYTE   N22  Fs5
 BYTE   W24
//  #06 //159   ----------------------------------------
 BYTE   PATT
  POIN2 Label_0100A42D
//  #06 //160   ----------------------------------------
 BYTE   N11  En3  v096
 BYTE   N11  En5
 BYTE   W12
 BYTE   N32  Fs3
 BYTE   N32  Fs5
 BYTE   W36
 BYTE   N22  An3  v112
 BYTE   N22  An5
 BYTE   W24
 BYTE   Bn3
 BYTE   N22  Bn5
 BYTE   W24
//  #06 //161   ----------------------------------------
 BYTE   Cs4
 BYTE   N22  Cs6
 BYTE   W24
 BYTE   Cs4
 BYTE   N22  Cs6
 BYTE   W24
 BYTE   N11  Dn4
 BYTE   N11  Dn6
 BYTE   W12
 BYTE   TIE  Bn3
 BYTE   TIE  Bn5
 BYTE   W36
//  #06 //162   ----------------------------------------
 BYTE   W88
 BYTE   W01
 BYTE   EOT
 BYTE   Bn3  v095
 BYTE   W07
//  #06 //163   ----------------------------------------
 BYTE   N11  Fs3
 BYTE   N11  Fs5
 BYTE   W12
 BYTE   Bn3
 BYTE   N11  Bn5
 BYTE   W12
 BYTE   N22  Cs4
 BYTE   N22  Cs6
 BYTE   W24
 BYTE   N11  Dn4
 BYTE   N11  Dn6
 BYTE   W12
 BYTE   TIE  Bn3
 BYTE   TIE  Bn5
 BYTE   W36
//  #06 //164   ----------------------------------------
 BYTE   W66
 BYTE   EOT
 BYTE   Bn3  v095
 BYTE   W06
 BYTE   N44  An3
 BYTE   N44  An5
 BYTE   W24
//  #06 //165   ----------------------------------------
 BYTE   W24
 BYTE   N11  Bn3  v127
 BYTE   W12
 BYTE   Cs4
 BYTE   W12
 BYTE   Fs4
 BYTE   W12
 BYTE   Bn3
 BYTE   W12
 BYTE   Cs4
 BYTE   W12
 BYTE   Fs4
 BYTE   W12
//  #06 //166   ----------------------------------------
 BYTE   Bn3
 BYTE   W12
 BYTE   Cs4
 BYTE   W12
 BYTE   Fs4
 BYTE   W12
 BYTE   Bn3
 BYTE   W12
 BYTE   Cs4
 BYTE   W12
 BYTE   Fs4
 BYTE   W12
 BYTE   Bn3
 BYTE   W12
 BYTE   Cs4
 BYTE   W12
//  #06 //167   ----------------------------------------
 BYTE   Fs4
 BYTE   W12
 BYTE   Bn3
 BYTE   W12
 BYTE   Cs4
 BYTE   W12
 BYTE   En4
 BYTE   W12
 BYTE   Bn4
 BYTE   W12
 BYTE   Cs4
 BYTE   W12
 BYTE   En4
 BYTE   W12
 BYTE   Bn4
 BYTE   W12
//  #06 //168   ----------------------------------------
 BYTE   Cs4
 BYTE   W12
 BYTE   En4
 BYTE   W12
 BYTE   Bn4
 BYTE   W12
 BYTE   Cs4
 BYTE   W12
 BYTE   En4
 BYTE   W12
 BYTE   Bn4
 BYTE   W12
 BYTE   Cs4
 BYTE   W12
 BYTE   En4
 BYTE   W12
//  #06 //169   ----------------------------------------
 BYTE   Bn4
 BYTE   W12
 BYTE   Cs4
 BYTE   W12
 BYTE   N11
 BYTE   W12
 BYTE   Fs3
 BYTE   W12
 BYTE   An3
 BYTE   W12
 BYTE   Cs4
 BYTE   W12
 BYTE   Fs3
 BYTE   W12
 BYTE   An3
 BYTE   W12
//  #06 //170   ----------------------------------------
 BYTE   Cs4
 BYTE   W12
 BYTE   Fs3
 BYTE   W12
 BYTE   An3
 BYTE   W12
 BYTE   Cs4
 BYTE   W12
 BYTE   Fs3
 BYTE   W12
 BYTE   An3
 BYTE   W12
 BYTE   Cs4
 BYTE   W12
 BYTE   Fs3
 BYTE   W12
//  #06 //171   ----------------------------------------
 BYTE   An3
 BYTE   W12
 BYTE   Cs4
 BYTE   W12
 BYTE   Bn3
 BYTE   W12
 BYTE   Dn4
 BYTE   W12
 BYTE   Bn4
 BYTE   W12
 BYTE   Bn3
 BYTE   W12
 BYTE   Dn4
 BYTE   W12
 BYTE   Bn4
 BYTE   W12
//  #06 //172   ----------------------------------------
 BYTE   Bn3
 BYTE   W12
 BYTE   Dn4
 BYTE   W12
 BYTE   Bn4
 BYTE   W12
 BYTE   Bn3
 BYTE   W12
 BYTE   Dn4
 BYTE   W12
 BYTE   Bn4
 BYTE   W12
 BYTE   Dn5
 BYTE   W12
 BYTE   Cs5
 BYTE   W12
//  #06 //173   ----------------------------------------
 BYTE   Dn4
 BYTE   W12
 BYTE   Bn3
 BYTE   W84
//  #06 //174   ----------------------------------------
 BYTE   W96
//  #06 //175   ----------------------------------------
 BYTE   W96
//  #06 //176   ----------------------------------------
 BYTE   W96
//  #06 //177   ----------------------------------------
 BYTE   W96
//  #06 //178   ----------------------------------------
 BYTE   W24
 BYTE   TIE  Dn3  v112
 BYTE   TIE  Bn3
 BYTE   TIE  Fs4
 BYTE   W72
//  #06 //179   ----------------------------------------
 BYTE   W96
//  #06 //180   ----------------------------------------
 BYTE   W96
//  #06 //181   ----------------------------------------
 BYTE   W09
 BYTE   EOT
 BYTE   Dn3  v071
 BYTE   Fs4
 BYTE   W84
 BYTE   W03
//  #06 //182   ----------------------------------------
 BYTE   GoTo
  POIN2 Label_01009FB1
 BYTE   FINE

//**************** Track 7 (Midi-Chn.6) ****************//

TheWeightOfLife_007:
//  #07 //000   ----------------------------------------
 BYTE   KEYSH   TheWeightOfLife_key+0
 BYTE   VOICE   41
 BYTE   VOL   42*TheWeightOfLife_mvl/mxv
 BYTE   PAN   c_v+0
 BYTE   W12
 BYTE   N11  An2  v036
 BYTE   W12
Label_01007649:
 BYTE   TIE  Bn2  v036
 BYTE   W72
//  #07 //001   ----------------------------------------
 BYTE   W24
 BYTE   W72
//  #07 //002   ----------------------------------------
 BYTE   W23
 BYTE   EOT
 BYTE   W01
 BYTE   N92  Cs3
 BYTE   W72
//  #07 //003   ----------------------------------------
 BYTE   W24
 BYTE   TIE  Bn2
 BYTE   W72
//  #07 //004   ----------------------------------------
 BYTE   W24
 BYTE   W72
//  #07 //005   ----------------------------------------
 BYTE   W23
 BYTE   EOT
 BYTE   W01
 BYTE   N92  Cs3
 BYTE   W06
 BYTE   W06
 BYTE   W06
 BYTE   W06
 BYTE   W07
 BYTE   W06
 BYTE   W06
 BYTE   W06
 BYTE   W06
 BYTE   W06
 BYTE   W07
 BYTE   W04
//  #07 //006   ----------------------------------------
 BYTE   W02
 BYTE   W06
 BYTE   W06
 BYTE   W06
 BYTE   W04
 BYTE   Dn3  v048
 BYTE   W03
 BYTE   W06
 BYTE   W06
 BYTE   W06
 BYTE   W06
 BYTE   W07
 BYTE   W06
 BYTE   W06
 BYTE   W06
 BYTE   W06
 BYTE   W07
 BYTE   W06
 BYTE   W01
//  #07 //007   ----------------------------------------
 BYTE   W05
 BYTE   W06
 BYTE   W06
 BYTE   W07
 BYTE   N88  Cs3  v064
 BYTE   W48
 BYTE   W24
//  #07 //008   ----------------------------------------
 BYTE   W96
//  #07 //009   ----------------------------------------
 BYTE   W24
 BYTE   N92  Fs3
 BYTE   W72
//  #07 //010   ----------------------------------------
 BYTE   W24
 BYTE   En3
 BYTE   W72
//  #07 //011   ----------------------------------------
Label_01007691:
 BYTE   W24
 BYTE   N92  Cs3  v064
 BYTE   W72
 BYTE   PEND 
//  #07 //012   ----------------------------------------
 BYTE   W24
 BYTE   N44  Dn3  v080
 BYTE   W48
 BYTE   En3
 BYTE   W24
//  #07 //013   ----------------------------------------
 BYTE   W24
 BYTE   N92  Fs3  v064
 BYTE   W18
 BYTE   W18
 BYTE   W18
 BYTE   W18
//  #07 //014   ----------------------------------------
 BYTE   W18
 BYTE   W06
 BYTE   En3  v072
 BYTE   W12
 BYTE   W18
 BYTE   W18
 BYTE   W18
 BYTE   W06
//  #07 //015   ----------------------------------------
 BYTE   W12
 BYTE   W12
 BYTE   N68  Dn3  v076
 BYTE   W06
 BYTE   W18
 BYTE   W18
 BYTE   W18
 BYTE   W12
//  #07 //016   ----------------------------------------
 BYTE   N23  Fs3  v080
 BYTE   W06
 BYTE   W18
 BYTE   N92  En3
 BYTE   W72
//  #07 //017   ----------------------------------------
Label_010076C1:
 BYTE   W24
 BYTE   TIE  Fs2  v064
 BYTE   W72
 BYTE   PEND 
//  #07 //018   ----------------------------------------
Label_010076C7:
 BYTE   W24
 BYTE   W32
 BYTE   W03
 BYTE   PEND 
 BYTE   EOT
 BYTE   Fs2
 BYTE   W01
 BYTE   N56  En2  v064
 BYTE   W12
 BYTE   W24
//  #07 //019   ----------------------------------------
 BYTE   PATT
  POIN2 Label_010076C1
//  #07 //020   ----------------------------------------
 BYTE   W24
 BYTE   W48
 BYTE   W23
 BYTE   EOT
 BYTE   Fs2
 BYTE   W01
//  #07 //021   ----------------------------------------
 BYTE   N23  Bn2  v064
 BYTE   W24
 BYTE   N92
 BYTE   W72
//  #07 //022   ----------------------------------------
 BYTE   PATT
  POIN2 Label_01007691
//  #07 //023   ----------------------------------------
 BYTE   W24
 BYTE   N32  Cs3  v064
 BYTE   W36
 BYTE   TIE  Bn2
 BYTE   W12
 BYTE   W24
//  #07 //024   ----------------------------------------
 BYTE   W24
 BYTE   W72
//  #07 //025   ----------------------------------------
 BYTE   W23
 BYTE   EOT
 BYTE   W01
 BYTE   TIE  Fs2
 BYTE   W72
//  #07 //026   ----------------------------------------
 BYTE   PATT
  POIN2 Label_010076C7
//  #07 //027   ----------------------------------------
 BYTE   EOT
 BYTE   Fs2
 BYTE   W01
 BYTE   N56  En2  v064
 BYTE   W36
 BYTE   W24
 BYTE   N32
 BYTE   W36
//  #07 //028   ----------------------------------------
 BYTE   TIE  Fs2
 BYTE   W12
 BYTE   W24
 BYTE   W24
 BYTE   W68
//  #07 //029   ----------------------------------------
 BYTE   W03
 BYTE   EOT
 BYTE   W01
 BYTE   N11
 BYTE   W12
 BYTE   An2
 BYTE   W12
 BYTE   N80  Bn2
 BYTE   W72
//  #07 //030   ----------------------------------------
Label_01007719:
 BYTE   W12
 BYTE   TIE  Cs3  v064
 BYTE   W12
 BYTE   W72
 BYTE   PEND 
//  #07 //031   ----------------------------------------
 BYTE   W23
 BYTE   EOT
 BYTE   W01
 BYTE   N80  Bn2
 BYTE   W72
//  #07 //032   ----------------------------------------
 BYTE   PATT
  POIN2 Label_01007719
//  #07 //033   ----------------------------------------
 BYTE   W23
 BYTE   EOT
 BYTE   Cs3
 BYTE   W01
 BYTE   TIE  Bn2  v064
 BYTE   W72
//  #07 //034   ----------------------------------------
 BYTE   W24
 BYTE   W72
//  #07 //035   ----------------------------------------
 BYTE   W23
 BYTE   EOT
 BYTE   W01
 BYTE   N80  En3
 BYTE   W72
//  #07 //036   ----------------------------------------
 BYTE   W12
 BYTE   TIE  Fs3
 BYTE   W12
 BYTE   W72
//  #07 //037   ----------------------------------------
 BYTE   W23
 BYTE   EOT
 BYTE   W01
 BYTE   TIE  Bn2
 BYTE   W72
//  #07 //038   ----------------------------------------
 BYTE   W24
 BYTE   W72
//  #07 //039   ----------------------------------------
 BYTE   W23
 BYTE   EOT
 BYTE   W01
 BYTE   N32  En3
 BYTE   W36
 BYTE   TIE  Fs3
 BYTE   W12
 BYTE   W24
//  #07 //040   ----------------------------------------
 BYTE   W24
 BYTE   W72
//  #07 //041   ----------------------------------------
 BYTE   W23
 BYTE   EOT
 BYTE   W01
 BYTE   N11  Bn2
 BYTE   W36
 BYTE   N23  Gn3
 BYTE   W36
//  #07 //042   ----------------------------------------
 BYTE   W12
 BYTE   N23
 BYTE   W12
 BYTE   W72
//  #07 //043   ----------------------------------------
 BYTE   W24
 BYTE   N11  Cs3
 BYTE   W36
 BYTE   N23  An3
 BYTE   W36
//  #07 //044   ----------------------------------------
 BYTE   W12
 BYTE   N23
 BYTE   W12
 BYTE   W48
 BYTE   N11  Cs3
 BYTE   W24
//  #07 //045   ----------------------------------------
 BYTE   N23
 BYTE   W24
 BYTE   N11  Bn2
 BYTE   W36
 BYTE   N23
 BYTE   W36
//  #07 //046   ----------------------------------------
 BYTE   W24
 BYTE   N11  An2
 BYTE   W36
 BYTE   N23
 BYTE   W36
//  #07 //047   ----------------------------------------
 BYTE   W24
 BYTE   N05  Gn3  v096
 BYTE   W01
 BYTE   W01
 BYTE   W01
 BYTE   W01
 BYTE   W01
 BYTE   W19
 BYTE   N05
 BYTE   W01
 BYTE   W01
 BYTE   W01
 BYTE   W01
 BYTE   W01
 BYTE   W19
 BYTE   N05
 BYTE   W01
 BYTE   W01
 BYTE   W01
 BYTE   W01
 BYTE   W01
 BYTE   W19
//  #07 //048   ----------------------------------------
 BYTE   N05
 BYTE   W01
 BYTE   W01
 BYTE   W01
 BYTE   W01
 BYTE   W01
 BYTE   W19
 BYTE   N15  Fs3  v052
 BYTE   W06
 BYTE   W06
 BYTE   W04
 BYTE   Dn3
 BYTE   W03
 BYTE   W06
 BYTE   W07
 BYTE   Dn3  v056
 BYTE   W06
 BYTE   W06
 BYTE   W04
 BYTE   Fs3
 BYTE   W03
 BYTE   W06
 BYTE   W07
 BYTE   Dn3  v060
 BYTE   W06
 BYTE   W02
//  #07 //049   ----------------------------------------
 BYTE   W04
 BYTE   W04
 BYTE   Dn3  v064
 BYTE   W03
 BYTE   W06
 BYTE   W07
 BYTE   N05  En3  v096
 BYTE   W01
 BYTE   W01
 BYTE   W01
 BYTE   W01
 BYTE   W01
 BYTE   W19
 BYTE   N05
 BYTE   W01
 BYTE   W01
 BYTE   W01
 BYTE   W01
 BYTE   W01
 BYTE   W19
 BYTE   N05
 BYTE   W01
 BYTE   W01
 BYTE   W01
 BYTE   W01
 BYTE   W01
 BYTE   W19
//  #07 //050   ----------------------------------------
 BYTE   N05
 BYTE   W01
 BYTE   W01
 BYTE   W01
 BYTE   W01
 BYTE   W01
 BYTE   W19
 BYTE   N11  En3  v064
 BYTE   W02
 BYTE   W02
 BYTE   W02
 BYTE   W03
 BYTE   W02
 BYTE   W13
 BYTE   En3  v076
 BYTE   W03
 BYTE   W02
 BYTE   W02
 BYTE   W02
 BYTE   W03
 BYTE   W02
 BYTE   W02
 BYTE   W02
 BYTE   W03
 BYTE   W02
 BYTE   W01
 BYTE   En3  v088
 BYTE   W01
 BYTE   W02
 BYTE   W03
 BYTE   W02
 BYTE   W02
 BYTE   W02
 BYTE   N23  Gn3  v092
 BYTE   W03
 BYTE   W02
 BYTE   W02
 BYTE   W02
 BYTE   W03
//  #07 //051   ----------------------------------------
 BYTE   W02
 BYTE   W02
 BYTE   W02
 BYTE   W03
 BYTE   W02
 BYTE   W01
 BYTE   Fs3  v104
 BYTE   W01
 BYTE   W02
 BYTE   W03
 BYTE   W02
 BYTE   W02
 BYTE   W02
 BYTE   W03
 BYTE   W02
 BYTE   W02
 BYTE   W02
 BYTE   W03
 BYTE   W12
 BYTE   N11  As3  v112
 BYTE   W12
 BYTE   Bn3
 BYTE   W12
 BYTE   Cs4
 BYTE   W12
 BYTE   Dn4
 BYTE   W12
//  #07 //052   ----------------------------------------
 BYTE   En4
 BYTE   W12
 BYTE   Fn4
 BYTE   W12
 BYTE   Fs3  v127
 BYTE   W01
 BYTE   W01
 BYTE   W01
 BYTE   W01
 BYTE   W01
 BYTE   W07
 BYTE   N11
 BYTE   W01
 BYTE   W01
 BYTE   W01
 BYTE   W01
 BYTE   W01
 BYTE   W30
 BYTE   W01
 BYTE   N23  Bn3  v112
 BYTE   W24
//  #07 //053   ----------------------------------------
Label_01007833:
 BYTE   N23  Cs4  v112
 BYTE   W24
 BYTE   N68  Dn4
 BYTE   W72
 BYTE   PEND 
//  #07 //054   ----------------------------------------
Label_0100783B:
 BYTE   N11  Cs4  v112
 BYTE   W12
 BYTE   N56  An3
 BYTE   W12
 BYTE   W48
 BYTE   N23  Fs3
 BYTE   W24
 BYTE   PEND 
//  #07 //055   ----------------------------------------
Label_01007847:
 BYTE   N23  Fs4  v112
 BYTE   W24
 BYTE   En4
 BYTE   W24
 BYTE   N11  Fs4
 BYTE   W12
 BYTE   TIE  Cs4
 BYTE   W12
 BYTE   W24
 BYTE   PEND 
//  #07 //056   ----------------------------------------
 BYTE   W24
 BYTE   W72
//  #07 //057   ----------------------------------------
 BYTE   W23
 BYTE   EOT
 BYTE   W01
 BYTE   N68  Dn4
 BYTE   W72
//  #07 //058   ----------------------------------------
 BYTE   PATT
  POIN2 Label_0100783B
//  #07 //059   ----------------------------------------
Label_01007862:
 BYTE   N23  Fs4  v112
 BYTE   W24
 BYTE   En4
 BYTE   W24
 BYTE   N11  An4
 BYTE   W12
 BYTE   TIE  Cs4
 BYTE   W12
 BYTE   W24
 BYTE   PEND 
//  #07 //060   ----------------------------------------
 BYTE   W24
 BYTE   W72
//  #07 //061   ----------------------------------------
 BYTE   W23
 BYTE   EOT
 BYTE   W01
 BYTE   TIE  Dn3  v096
 BYTE   W72
//  #07 //062   ----------------------------------------
 BYTE   W24
 BYTE   W72
//  #07 //063   ----------------------------------------
 BYTE   W23
 BYTE   EOT
 BYTE   W01
 BYTE   TIE  Cs3
 BYTE   W72
//  #07 //064   ----------------------------------------
 BYTE   W24
 BYTE   W72
//  #07 //065   ----------------------------------------
 BYTE   W23
 BYTE   EOT
 BYTE   W01
 BYTE   TIE  Bn2
 BYTE   W72
//  #07 //066   ----------------------------------------
 BYTE   W24
 BYTE   W72
//  #07 //067   ----------------------------------------
 BYTE   W23
 BYTE   EOT
 BYTE   W01
 BYTE   N88  As2
 BYTE   W72
//  #07 //068   ----------------------------------------
 BYTE   W24
 BYTE   N32  Fs2  v127
 BYTE   N32  Fs3
 BYTE   W01
 BYTE   W01
 BYTE   W01
 BYTE   W01
 BYTE   W01
 BYTE   W42
 BYTE   W01
 BYTE   N23  Bn3  v112
 BYTE   W24
//  #07 //069   ----------------------------------------
 BYTE   PATT
  POIN2 Label_01007833
//  #07 //070   ----------------------------------------
 BYTE   PATT
  POIN2 Label_0100783B
//  #07 //071   ----------------------------------------
 BYTE   PATT
  POIN2 Label_01007847
//  #07 //072   ----------------------------------------
 BYTE   W24
 BYTE   W72
//  #07 //073   ----------------------------------------
 BYTE   W23
 BYTE   EOT
 BYTE   Cs4
 BYTE   W01
 BYTE   N68  Dn4  v112
 BYTE   W72
//  #07 //074   ----------------------------------------
 BYTE   PATT
  POIN2 Label_0100783B
//  #07 //075   ----------------------------------------
 BYTE   PATT
  POIN2 Label_01007862
//  #07 //076   ----------------------------------------
 BYTE   W24
 BYTE   W72
//  #07 //077   ----------------------------------------
 BYTE   W23
 BYTE   EOT
 BYTE   Cs4
 BYTE   W01
 BYTE   TIE  Dn3  v096
 BYTE   W72
//  #07 //078   ----------------------------------------
 BYTE   W24
 BYTE   W72
//  #07 //079   ----------------------------------------
 BYTE   W23
 BYTE   EOT
 BYTE   W01
 BYTE   TIE  Cs3
 BYTE   W72
//  #07 //080   ----------------------------------------
 BYTE   W24
 BYTE   W72
//  #07 //081   ----------------------------------------
 BYTE   W23
 BYTE   EOT
 BYTE   W01
 BYTE   TIE  Bn2
 BYTE   W72
//  #07 //082   ----------------------------------------
 BYTE   W24
 BYTE   W72
//  #07 //083   ----------------------------------------
 BYTE   W23
 BYTE   EOT
 BYTE   W01
 BYTE   N92  As2
 BYTE   W72
//  #07 //084   ----------------------------------------
 BYTE   W24
 BYTE   N92
 BYTE   N92  Fs3
 BYTE   W72
//  #07 //085   ----------------------------------------
 BYTE   W24
 BYTE   N11  Dn3  v080
 BYTE   W12
 BYTE   N11
 BYTE   W24
 BYTE   En3
 BYTE   W12
 BYTE   N11
 BYTE   W24
//  #07 //086   ----------------------------------------
Label_010078F7:
 BYTE   N11  Fs3  v080
 BYTE   W12
 BYTE   N11
 BYTE   W24
 BYTE   Cs3
 BYTE   W12
 BYTE   N11
 BYTE   W24
 BYTE   En3
 BYTE   W12
 BYTE   Dn3
 BYTE   W12
 BYTE   PEND 
//  #07 //087   ----------------------------------------
Label_01007906:
 BYTE   N11  Cs3  v080
 BYTE   W12
 BYTE   En3
 BYTE   W12
 BYTE   Dn3
 BYTE   W12
 BYTE   N11
 BYTE   W24
 BYTE   En3
 BYTE   W12
 BYTE   N11
 BYTE   W24
 BYTE   PEND 
//  #07 //088   ----------------------------------------
 BYTE   PATT
  POIN2 Label_010078F7
//  #07 //089   ----------------------------------------
 BYTE   PATT
  POIN2 Label_01007906
//  #07 //090   ----------------------------------------
 BYTE   PATT
  POIN2 Label_010078F7
//  #07 //091   ----------------------------------------
 BYTE   N11  Cs3  v080
 BYTE   W12
 BYTE   En3
 BYTE   W12
 BYTE   Dn3
 BYTE   W12
 BYTE   N11
 BYTE   W24
 BYTE   N11
 BYTE   W12
 BYTE   N11
 BYTE   W24
//  #07 //092   ----------------------------------------
 BYTE   N11
 BYTE   W12
 BYTE   N11
 BYTE   W24
 BYTE   N11
 BYTE   W12
 BYTE   N11
 BYTE   W24
 BYTE   N23  Bn3  v064
 BYTE   W03
 BYTE   W03
 BYTE   W03
 BYTE   W03
 BYTE   W03
 BYTE   W03
 BYTE   W03
 BYTE   W03
//  #07 //093   ----------------------------------------
 BYTE   Cs4  v072
 BYTE   W03
 BYTE   W03
 BYTE   W03
 BYTE   W03
 BYTE   W03
 BYTE   W03
 BYTE   W03
 BYTE   W03
 BYTE   N32  Dn4  v080
 BYTE   W36
 BYTE   Cs4
 BYTE   W36
//  #07 //094   ----------------------------------------
 BYTE   N11  An3
 BYTE   W12
 BYTE   TIE  Fs3
 BYTE   W12
 BYTE   W72
//  #07 //095   ----------------------------------------
 BYTE   W23
 BYTE   EOT
 BYTE   W01
 BYTE   N32  Dn4
 BYTE   W36
 BYTE   Cs4
 BYTE   W36
//  #07 //096   ----------------------------------------
 BYTE   N11  Dn4
 BYTE   W12
 BYTE   N32  En4
 BYTE   W12
 BYTE   W24
 BYTE   N23  Fs4
 BYTE   W24
 BYTE   Cs4
 BYTE   W24
//  #07 //097   ----------------------------------------
 BYTE   An3
 BYTE   W24
 BYTE   TIE  Bn3
 BYTE   W72
//  #07 //098   ----------------------------------------
 BYTE   W24
 BYTE   W15
 BYTE   EOT
 BYTE   W01
 BYTE   N15  An3
 BYTE   W16
 BYTE   Gn3
 BYTE   W16
 BYTE   Fs3
 BYTE   W16
 BYTE   En3
 BYTE   W08
//  #07 //099   ----------------------------------------
 BYTE   W08
 BYTE   Gn3
 BYTE   W16
 BYTE   N92  Fs3
 BYTE   W72
//  #07 //100   ----------------------------------------
 BYTE   W24
 BYTE   N23  Gn3
 BYTE   W24
 BYTE   Fs3
 BYTE   W24
 BYTE   Gn3
 BYTE   W24
//  #07 //101   ----------------------------------------
 BYTE   An3
 BYTE   W96
//  #07 //102   ----------------------------------------
 BYTE   W96
//  #07 //103   ----------------------------------------
 BYTE   W96
//  #07 //104   ----------------------------------------
 BYTE   W96
//  #07 //105   ----------------------------------------
 BYTE   W96
//  #07 //106   ----------------------------------------
 BYTE   W96
//  #07 //107   ----------------------------------------
 BYTE   W96
//  #07 //108   ----------------------------------------
 BYTE   W96
//  #07 //109   ----------------------------------------
 BYTE   W96
//  #07 //110   ----------------------------------------
 BYTE   W96
//  #07 //111   ----------------------------------------
 BYTE   W96
//  #07 //112   ----------------------------------------
 BYTE   W96
//  #07 //113   ----------------------------------------
 BYTE   W96
//  #07 //114   ----------------------------------------
 BYTE   W96
//  #07 //115   ----------------------------------------
 BYTE   W96
//  #07 //116   ----------------------------------------
 BYTE   W96
//  #07 //117   ----------------------------------------
 BYTE   W96
//  #07 //118   ----------------------------------------
 BYTE   W96
//  #07 //119   ----------------------------------------
 BYTE   W96
//  #07 //120   ----------------------------------------
 BYTE   W24
 BYTE   N44  Gs3
 BYTE   W48
 BYTE   Ds3
 BYTE   W24
//  #07 //121   ----------------------------------------
 BYTE   W24
 BYTE   N92  Cs3
 BYTE   W72
//  #07 //122   ----------------------------------------
 BYTE   W24
 BYTE   Ds3
 BYTE   W72
//  #07 //123   ----------------------------------------
 BYTE   W24
 BYTE   Fn3
 BYTE   W72
//  #07 //124   ----------------------------------------
 BYTE   W24
 BYTE   N44  Cn3
 BYTE   W48
 BYTE   Cs3
 BYTE   W24
//  #07 //125   ----------------------------------------
 BYTE   W24
 BYTE   N92  As2
 BYTE   W72
//  #07 //126   ----------------------------------------
 BYTE   W24
 BYTE   Gs2
 BYTE   W72
//  #07 //127   ----------------------------------------
 BYTE   W24
 BYTE   N56  As2
 BYTE   W48
 BYTE   W12
 BYTE   N32  Fn3
 BYTE   W12
//  #07 //128   ----------------------------------------
 BYTE   W24
 BYTE   TIE  Ds3
 BYTE   W48
 BYTE   W24
//  #07 //129   ----------------------------------------
 BYTE   W24
 BYTE   W11
 BYTE   EOT
 BYTE   W01
 BYTE   TIE  Fn3
 BYTE   W36
 BYTE   W12
 BYTE   W12
//  #07 //130   ----------------------------------------
 BYTE   W24
 BYTE   W12
 BYTE   W36
 BYTE   W24
//  #07 //131   ----------------------------------------
 BYTE   W11
 BYTE   EOT
 BYTE   W84
 BYTE   W01
//  #07 //132   ----------------------------------------
 BYTE   W72
 BYTE   N23  Bn3  v112
 BYTE   W24
//  #07 //133   ----------------------------------------
 BYTE   PATT
  POIN2 Label_01007833
//  #07 //134   ----------------------------------------
 BYTE   PATT
  POIN2 Label_0100783B
//  #07 //135   ----------------------------------------
 BYTE   PATT
  POIN2 Label_01007847
//  #07 //136   ----------------------------------------
 BYTE   W24
 BYTE   W72
//  #07 //137   ----------------------------------------
 BYTE   W23
 BYTE   EOT
 BYTE   Cs4
 BYTE   W01
 BYTE   N68  Dn4  v112
 BYTE   W72
//  #07 //138   ----------------------------------------
 BYTE   PATT
  POIN2 Label_0100783B
//  #07 //139   ----------------------------------------
 BYTE   PATT
  POIN2 Label_01007862
//  #07 //140   ----------------------------------------
 BYTE   W24
 BYTE   W72
//  #07 //141   ----------------------------------------
 BYTE   W23
 BYTE   EOT
 BYTE   Cs4
 BYTE   W01
 BYTE   TIE  Dn3  v096
 BYTE   W72
//  #07 //142   ----------------------------------------
 BYTE   W24
 BYTE   W72
//  #07 //143   ----------------------------------------
 BYTE   W23
 BYTE   EOT
 BYTE   W01
 BYTE   TIE  Cs3
 BYTE   W72
//  #07 //144   ----------------------------------------
 BYTE   W24
 BYTE   W72
//  #07 //145   ----------------------------------------
 BYTE   W23
 BYTE   EOT
 BYTE   W01
 BYTE   TIE  Bn2
 BYTE   W72
//  #07 //146   ----------------------------------------
 BYTE   W24
 BYTE   W72
//  #07 //147   ----------------------------------------
 BYTE   W23
 BYTE   EOT
 BYTE   W01
 BYTE   N92  As2
 BYTE   W72
//  #07 //148   ----------------------------------------
 BYTE   W24
 BYTE   N40  Fs3
 BYTE   W48
 BYTE   N23  Bn3  v112
 BYTE   W24
//  #07 //149   ----------------------------------------
 BYTE   PATT
  POIN2 Label_01007833
//  #07 //150   ----------------------------------------
 BYTE   PATT
  POIN2 Label_0100783B
//  #07 //151   ----------------------------------------
 BYTE   PATT
  POIN2 Label_01007847
//  #07 //152   ----------------------------------------
 BYTE   W24
 BYTE   W72
//  #07 //153   ----------------------------------------
 BYTE   W23
 BYTE   EOT
 BYTE   Cs4
 BYTE   W01
 BYTE   N68  Dn4  v112
 BYTE   W72
//  #07 //154   ----------------------------------------
 BYTE   PATT
  POIN2 Label_0100783B
//  #07 //155   ----------------------------------------
 BYTE   PATT
  POIN2 Label_01007862
//  #07 //156   ----------------------------------------
 BYTE   W24
 BYTE   W72
//  #07 //157   ----------------------------------------
 BYTE   W23
 BYTE   EOT
 BYTE   Cs4
 BYTE   W01
 BYTE   TIE  Dn3  v096
 BYTE   W72
//  #07 //158   ----------------------------------------
 BYTE   W24
 BYTE   W72
//  #07 //159   ----------------------------------------
 BYTE   W23
 BYTE   EOT
 BYTE   W01
 BYTE   TIE  Cs3
 BYTE   W72
//  #07 //160   ----------------------------------------
 BYTE   W24
 BYTE   W72
//  #07 //161   ----------------------------------------
 BYTE   W23
 BYTE   EOT
 BYTE   W01
 BYTE   TIE  Bn2
 BYTE   W72
//  #07 //162   ----------------------------------------
 BYTE   W24
 BYTE   W72
//  #07 //163   ----------------------------------------
 BYTE   W23
 BYTE   EOT
 BYTE   W01
 BYTE   TIE
 BYTE   W72
//  #07 //164   ----------------------------------------
 BYTE   W24
 BYTE   W44
 BYTE   W03
 BYTE   EOT
 BYTE   W01
 BYTE   N44  An2
 BYTE   W24
//  #07 //165   ----------------------------------------
 BYTE   W24
 BYTE   TIE  Bn2  v080
 BYTE   W72
//  #07 //166   ----------------------------------------
 BYTE   W24
 BYTE   W72
//  #07 //167   ----------------------------------------
 BYTE   W23
 BYTE   EOT
 BYTE   W01
 BYTE   TIE  Dn3
 BYTE   W72
//  #07 //168   ----------------------------------------
 BYTE   W24
 BYTE   W72
//  #07 //169   ----------------------------------------
 BYTE   W23
 BYTE   EOT
 BYTE   W01
 BYTE   TIE  Cs3
 BYTE   W72
//  #07 //170   ----------------------------------------
 BYTE   W24
 BYTE   W72
//  #07 //171   ----------------------------------------
 BYTE   W23
 BYTE   EOT
 BYTE   W01
 BYTE   TIE  Bn2
 BYTE   W72
//  #07 //172   ----------------------------------------
 BYTE   W24
 BYTE   W72
//  #07 //173   ----------------------------------------
 BYTE   W23
 BYTE   EOT
 BYTE   W72
 BYTE   W01
//  #07 //174   ----------------------------------------
 BYTE   W96
//  #07 //175   ----------------------------------------
 BYTE   W96
//  #07 //176   ----------------------------------------
 BYTE   W96
//  #07 //177   ----------------------------------------
 BYTE   W96
//  #07 //178   ----------------------------------------
 BYTE   W24
 BYTE   TIE  Fs3
 BYTE   W72
//  #07 //179   ----------------------------------------
 BYTE   W24
 BYTE   W72
//  #07 //180   ----------------------------------------
 BYTE   W24
 BYTE   W72
//  #07 //181   ----------------------------------------
 BYTE   W23
 BYTE   EOT
 BYTE   W72
 BYTE   W01
//  #07 //182   ----------------------------------------
 BYTE   GoTo
  POIN2 Label_01007649
 BYTE   FINE

//**************** Track 8 (Midi-Chn.7) ****************//

TheWeightOfLife_008:
//  #08 //000   ----------------------------------------
 BYTE   KEYSH   TheWeightOfLife_key+0
 BYTE   VOICE   48
 BYTE   VOL   42*TheWeightOfLife_mvl/mxv
 BYTE   PAN   c_v+0
 BYTE   W12
 BYTE   N11  An1  v036
 BYTE   W12
Label_01007D6D:
 BYTE   N92  Bn1  v036
 BYTE   W72
//  #08 //001   ----------------------------------------
 BYTE   W24
 BYTE   En2
 BYTE   W72
//  #08 //002   ----------------------------------------
 BYTE   W24
 BYTE   Cs2
 BYTE   W72
//  #08 //003   ----------------------------------------
 BYTE   W24
 BYTE   Bn1
 BYTE   W72
//  #08 //004   ----------------------------------------
 BYTE   W24
 BYTE   Fs1
 BYTE   W72
//  #08 //005   ----------------------------------------
 BYTE   W24
 BYTE   An1
 BYTE   W12
 BYTE   W12
 BYTE   W12
 BYTE   W12
 BYTE   W12
 BYTE   W12
//  #08 //006   ----------------------------------------
 BYTE   W12
 BYTE   W12
 BYTE   As1  v044
 BYTE   N92  Fn2
 BYTE   W12
 BYTE   W12
 BYTE   W12
 BYTE   W12
 BYTE   W12
 BYTE   W12
//  #08 //007   ----------------------------------------
 BYTE   W12
 BYTE   W12
 BYTE   N88  An1  v052
 BYTE   N88  En2
 BYTE   W48
 BYTE   W24
//  #08 //008   ----------------------------------------
 BYTE   W96
//  #08 //009   ----------------------------------------
 BYTE   W24
 BYTE   N11  Bn1  v080
 BYTE   W12
 BYTE   N11
 BYTE   W12
 BYTE   N11
 BYTE   W12
 BYTE   N11
 BYTE   W12
 BYTE   N11
 BYTE   W12
 BYTE   N11
 BYTE   W12
//  #08 //010   ----------------------------------------
Label_01007DAA:
 BYTE   N11  Bn1  v080
 BYTE   W12
 BYTE   N11
 BYTE   W12
 BYTE   N11
 BYTE   W12
 BYTE   N11
 BYTE   W12
 BYTE   N11
 BYTE   W12
 BYTE   N11
 BYTE   W12
 BYTE   N11
 BYTE   W12
 BYTE   N11
 BYTE   W12
 BYTE   PEND 
//  #08 //011   ----------------------------------------
 BYTE   PATT
  POIN2 Label_01007DAA
//  #08 //012   ----------------------------------------
 BYTE   N11  Bn1  v080
 BYTE   W12
 BYTE   N11
 BYTE   W12
 BYTE   N11
 BYTE   W12
 BYTE   N11
 BYTE   W12
 BYTE   N11
 BYTE   W12
 BYTE   N11
 BYTE   W12
 BYTE   N11
 BYTE   W12
 BYTE   N11
 BYTE   W12
//  #08 //013   ----------------------------------------
 BYTE   N11
 BYTE   W12
 BYTE   N11
 BYTE   W12
 BYTE   N11
 BYTE   W12
 BYTE   N11
 BYTE   W06
 BYTE   W06
 BYTE   Bn1  v084
 BYTE   W12
 BYTE   N11
 BYTE   W12
 BYTE   N11
 BYTE   W06
 BYTE   W06
 BYTE   N11
 BYTE   W12
//  #08 //014   ----------------------------------------
 BYTE   N11
 BYTE   W12
 BYTE   N11
 BYTE   W06
 BYTE   W06
 BYTE   Bn1  v088
 BYTE   W12
 BYTE   N11
 BYTE   W12
 BYTE   N11
 BYTE   W06
 BYTE   W06
 BYTE   N11
 BYTE   W12
 BYTE   N11
 BYTE   W12
 BYTE   N11
 BYTE   W06
 BYTE   W06
//  #08 //015   ----------------------------------------
 BYTE   Bn1  v092
 BYTE   W12
 BYTE   N11
 BYTE   W12
 BYTE   Gn1
 BYTE   W06
 BYTE   W06
 BYTE   N11
 BYTE   W12
 BYTE   N11
 BYTE   W12
 BYTE   N11
 BYTE   W06
 BYTE   W06
 BYTE   Gn1  v096
 BYTE   W12
 BYTE   N11
 BYTE   W12
//  #08 //016   ----------------------------------------
 BYTE   N11
 BYTE   W06
 BYTE   W06
 BYTE   N11
 BYTE   W12
 BYTE   Bn2
 BYTE   W12
 BYTE   Dn3
 BYTE   W12
 BYTE   An3
 BYTE   W12
 BYTE   N23  En3
 BYTE   W01
 BYTE   W01
 BYTE   W01
 BYTE   W01
 BYTE   W01
 BYTE   W01
 BYTE   W01
 BYTE   W01
 BYTE   W01
 BYTE   W01
 BYTE   W01
 BYTE   W01
 BYTE   W01
 BYTE   W01
 BYTE   W01
 BYTE   W01
 BYTE   W01
 BYTE   W01
 BYTE   W01
 BYTE   W01
 BYTE   W01
 BYTE   W01
 BYTE   W01
 BYTE   W01
 BYTE   N11  Dn3  v076
 BYTE   W01
 BYTE   W01
 BYTE   W01
 BYTE   W01
 BYTE   W01
 BYTE   W01
 BYTE   W01
 BYTE   W01
 BYTE   W01
 BYTE   W01
 BYTE   W01
 BYTE   W01
//  #08 //017   ----------------------------------------
 BYTE   Cs3  v064
 BYTE   W01
 BYTE   W01
 BYTE   W01
 BYTE   W01
 BYTE   W01
 BYTE   W01
 BYTE   W01
 BYTE   W01
 BYTE   W02
 BYTE   W01
 BYTE   W01
 BYTE   An2  v052
 BYTE   W12
 BYTE   TIE  Bn1  v064
 BYTE   W72
//  #08 //018   ----------------------------------------
 BYTE   W24
 BYTE   W72
//  #08 //019   ----------------------------------------
 BYTE   W23
 BYTE   EOT
 BYTE   W01
 BYTE   N92  Fs1
 BYTE   W72
//  #08 //020   ----------------------------------------
 BYTE   W24
 BYTE   Bn1
 BYTE   W72
//  #08 //021   ----------------------------------------
 BYTE   W24
 BYTE   N80  Gn1
 BYTE   W72
//  #08 //022   ----------------------------------------
Label_01007E66:
 BYTE   W12
 BYTE   TIE  An1  v064
 BYTE   W12
 BYTE   W72
 BYTE   PEND 
//  #08 //023   ----------------------------------------
 BYTE   W23
 BYTE   EOT
 BYTE   W01
 BYTE   N32  En1
 BYTE   W36
 BYTE   TIE  Bn1
 BYTE   W12
 BYTE   W24
//  #08 //024   ----------------------------------------
 BYTE   W24
 BYTE   W72
//  #08 //025   ----------------------------------------
 BYTE   W23
 BYTE   EOT
 BYTE   W01
 BYTE   TIE
 BYTE   W72
//  #08 //026   ----------------------------------------
 BYTE   W24
 BYTE   W72
//  #08 //027   ----------------------------------------
 BYTE   W24
 BYTE   W72
//  #08 //028   ----------------------------------------
 BYTE   W24
 BYTE   W72
//  #08 //029   ----------------------------------------
 BYTE   W23
 BYTE   EOT
 BYTE   W01
 BYTE   N80  Gn1
 BYTE   W72
//  #08 //030   ----------------------------------------
 BYTE   PATT
  POIN2 Label_01007E66
//  #08 //031   ----------------------------------------
 BYTE   W23
 BYTE   EOT
 BYTE   An1
 BYTE   W01
 BYTE   N80  Gn1  v064
 BYTE   W72
//  #08 //032   ----------------------------------------
 BYTE   W12
 BYTE   N56  An1
 BYTE   W12
 BYTE   W06
 BYTE   W06
 BYTE   W06
 BYTE   W06
 BYTE   W06
 BYTE   W06
 BYTE   W06
 BYTE   W06
 BYTE   N44  An1  v072
 BYTE   W06
 BYTE   W06
 BYTE   W06
 BYTE   W06
//  #08 //033   ----------------------------------------
 BYTE   W06
 BYTE   W06
 BYTE   W06
 BYTE   W06
 BYTE   TIE  Gn1  v080
 BYTE   W72
//  #08 //034   ----------------------------------------
 BYTE   W24
 BYTE   W72
//  #08 //035   ----------------------------------------
 BYTE   W23
 BYTE   EOT
 BYTE   W01
 BYTE   N80  An1
 BYTE   W72
//  #08 //036   ----------------------------------------
 BYTE   W12
 BYTE   TIE  Bn1
 BYTE   W12
 BYTE   W72
//  #08 //037   ----------------------------------------
 BYTE   W23
 BYTE   EOT
 BYTE   W01
 BYTE   TIE  Gn1
 BYTE   W72
//  #08 //038   ----------------------------------------
 BYTE   W24
 BYTE   W72
//  #08 //039   ----------------------------------------
 BYTE   W23
 BYTE   EOT
 BYTE   W01
 BYTE   N32  An1
 BYTE   W36
 BYTE   TIE  Bn1
 BYTE   W12
 BYTE   W24
//  #08 //040   ----------------------------------------
 BYTE   W24
 BYTE   W72
//  #08 //041   ----------------------------------------
 BYTE   W23
 BYTE   EOT
 BYTE   W01
 BYTE   N11  En1
 BYTE   W36
 BYTE   N23  Bn1
 BYTE   W36
//  #08 //042   ----------------------------------------
 BYTE   W12
 BYTE   N23
 BYTE   W12
 BYTE   W48
 BYTE   N11  Gn1
 BYTE   W24
//  #08 //043   ----------------------------------------
 BYTE   N23  An1
 BYTE   W24
 BYTE   N11  Fs1
 BYTE   W36
 BYTE   N23  Cs2
 BYTE   W36
//  #08 //044   ----------------------------------------
 BYTE   W12
 BYTE   N23
 BYTE   W12
 BYTE   W48
 BYTE   N11  An1
 BYTE   W24
//  #08 //045   ----------------------------------------
 BYTE   N23
 BYTE   W24
 BYTE   N11  Gn1
 BYTE   W36
 BYTE   N23
 BYTE   W36
//  #08 //046   ----------------------------------------
 BYTE   W24
 BYTE   N11  Fs1
 BYTE   W36
 BYTE   N23
 BYTE   W36
//  #08 //047   ----------------------------------------
 BYTE   W24
 BYTE   N05  En2  v120
 BYTE   W01
 BYTE   W01
 BYTE   W01
 BYTE   W01
 BYTE   W01
 BYTE   W19
 BYTE   N05
 BYTE   W01
 BYTE   W01
 BYTE   W01
 BYTE   W01
 BYTE   W01
 BYTE   W19
 BYTE   N05
 BYTE   W01
 BYTE   W01
 BYTE   W01
 BYTE   W01
 BYTE   W01
 BYTE   W19
//  #08 //048   ----------------------------------------
 BYTE   N05
 BYTE   W01
 BYTE   W01
 BYTE   W01
 BYTE   W01
 BYTE   W01
 BYTE   W19
 BYTE   N15  Dn2  v052
 BYTE   W03
 BYTE   W03
 BYTE   W03
 BYTE   W03
 BYTE   W03
 BYTE   W01
 BYTE   Dn2  v056
 BYTE   W02
 BYTE   W03
 BYTE   W03
 BYTE   W03
 BYTE   W04
 BYTE   W01
 BYTE   Dn2  v060
 BYTE   W02
 BYTE   W03
 BYTE   W03
 BYTE   W03
 BYTE   W03
 BYTE   W02
 BYTE   Dn2  v064
 BYTE   W01
 BYTE   W03
 BYTE   W03
 BYTE   W03
 BYTE   W03
 BYTE   W03
 BYTE   Dn2  v072
 BYTE   W01
 BYTE   W03
 BYTE   W03
 BYTE   W01
//  #08 //049   ----------------------------------------
 BYTE   W02
 BYTE   W03
 BYTE   W03
 BYTE   Dn2  v076
 BYTE   W03
 BYTE   W03
 BYTE   W03
 BYTE   W03
 BYTE   W04
 BYTE   N05  Cs2  v120
 BYTE   W01
 BYTE   W01
 BYTE   W01
 BYTE   W01
 BYTE   W01
 BYTE   W19
 BYTE   N05
 BYTE   W01
 BYTE   W01
 BYTE   W01
 BYTE   W01
 BYTE   W01
 BYTE   W19
 BYTE   N05
 BYTE   W01
 BYTE   W01
 BYTE   W01
 BYTE   W01
 BYTE   W01
 BYTE   W19
//  #08 //050   ----------------------------------------
 BYTE   N05
 BYTE   W01
 BYTE   W01
 BYTE   W01
 BYTE   W01
 BYTE   W01
 BYTE   W19
 BYTE   N11  Cs2  v080
 BYTE   W12
 BYTE   Gn1  v084
 BYTE   W12
 BYTE   Cs2
 BYTE   W12
 BYTE   Gn1
 BYTE   W12
 BYTE   Cs2
 BYTE   W12
 BYTE   N23  Cs2  v088
 BYTE   W12
//  #08 //051   ----------------------------------------
 BYTE   W12
 BYTE   An1
 BYTE   W12
 BYTE   W12
 BYTE   N11  Cs2  v092
 BYTE   W12
 BYTE   An1
 BYTE   W12
 BYTE   Cs2
 BYTE   W12
 BYTE   An1
 BYTE   W12
 BYTE   Cs2  v096
 BYTE   W12
//  #08 //052   ----------------------------------------
 BYTE   An1
 BYTE   W12
 BYTE   Cs2
 BYTE   W12
 BYTE   Fs1  v127
 BYTE   W01
 BYTE   W01
 BYTE   W01
 BYTE   W01
 BYTE   W01
 BYTE   W07
 BYTE   N11
 BYTE   W01
 BYTE   W01
 BYTE   W01
 BYTE   W01
 BYTE   W01
 BYTE   W30
 BYTE   W01
 BYTE   N23  Bn2  v096
 BYTE   W24
//  #08 //053   ----------------------------------------
 BYTE   Cs3
 BYTE   W24
 BYTE   N68  Dn3
 BYTE   W72
//  #08 //054   ----------------------------------------
Label_01007FAD:
 BYTE   N11  Cs3  v096
 BYTE   W12
 BYTE   N56  An2
 BYTE   W12
 BYTE   W48
 BYTE   N23  Fs2
 BYTE   W24
 BYTE   PEND 
//  #08 //055   ----------------------------------------
Label_01007FB9:
 BYTE   N23  Fs3  v096
 BYTE   W24
 BYTE   En3
 BYTE   W24
 BYTE   N11  Fs3
 BYTE   W12
 BYTE   TIE  Cs3
 BYTE   W12
 BYTE   W24
 BYTE   PEND 
//  #08 //056   ----------------------------------------
 BYTE   W24
 BYTE   W72
//  #08 //057   ----------------------------------------
 BYTE   W23
 BYTE   EOT
 BYTE   W01
 BYTE   N68  Dn3
 BYTE   W72
//  #08 //058   ----------------------------------------
 BYTE   PATT
  POIN2 Label_01007FAD
//  #08 //059   ----------------------------------------
Label_01007FD4:
 BYTE   N23  Fs3  v096
 BYTE   W24
 BYTE   En3
 BYTE   W24
 BYTE   N11  An2
 BYTE   W12
 BYTE   TIE  Cs3
 BYTE   W12
 BYTE   W24
 BYTE   PEND 
//  #08 //060   ----------------------------------------
 BYTE   W24
 BYTE   W72
//  #08 //061   ----------------------------------------
 BYTE   W23
 BYTE   EOT
 BYTE   W01
 BYTE   TIE  Bn1
 BYTE   W72
//  #08 //062   ----------------------------------------
 BYTE   W24
 BYTE   W72
//  #08 //063   ----------------------------------------
 BYTE   W23
 BYTE   EOT
 BYTE   W01
 BYTE   TIE  An1
 BYTE   W72
//  #08 //064   ----------------------------------------
 BYTE   W24
 BYTE   W72
//  #08 //065   ----------------------------------------
 BYTE   W23
 BYTE   EOT
 BYTE   W01
 BYTE   TIE  Gn1
 BYTE   W72
//  #08 //066   ----------------------------------------
 BYTE   W24
 BYTE   W72
//  #08 //067   ----------------------------------------
 BYTE   W23
 BYTE   EOT
 BYTE   W01
 BYTE   N88  Fs1
 BYTE   W72
//  #08 //068   ----------------------------------------
 BYTE   W24
 BYTE   N32  As1  v127
 BYTE   W01
 BYTE   W01
 BYTE   W01
 BYTE   W01
 BYTE   W01
 BYTE   W66
 BYTE   W01
//  #08 //069   ----------------------------------------
Label_0100800D:
 BYTE   W24
 BYTE   N68  Dn3  v096
 BYTE   W72
 BYTE   PEND 
//  #08 //070   ----------------------------------------
 BYTE   PATT
  POIN2 Label_01007FAD
//  #08 //071   ----------------------------------------
 BYTE   PATT
  POIN2 Label_01007FB9
//  #08 //072   ----------------------------------------
 BYTE   W24
 BYTE   W72
//  #08 //073   ----------------------------------------
 BYTE   W23
 BYTE   EOT
 BYTE   Cs3
 BYTE   W01
 BYTE   N68  Dn3  v096
 BYTE   W72
//  #08 //074   ----------------------------------------
 BYTE   PATT
  POIN2 Label_01007FAD
//  #08 //075   ----------------------------------------
 BYTE   PATT
  POIN2 Label_01007FD4
//  #08 //076   ----------------------------------------
 BYTE   W24
 BYTE   W72
//  #08 //077   ----------------------------------------
 BYTE   W23
 BYTE   EOT
 BYTE   Cs3
 BYTE   W01
 BYTE   TIE  Bn1  v096
 BYTE   W72
//  #08 //078   ----------------------------------------
 BYTE   W24
 BYTE   W72
//  #08 //079   ----------------------------------------
 BYTE   W23
 BYTE   EOT
 BYTE   W01
 BYTE   TIE  An1
 BYTE   W72
//  #08 //080   ----------------------------------------
 BYTE   W24
 BYTE   W72
//  #08 //081   ----------------------------------------
 BYTE   W23
 BYTE   EOT
 BYTE   W01
 BYTE   TIE  Gn1
 BYTE   W72
//  #08 //082   ----------------------------------------
 BYTE   W24
 BYTE   W72
//  #08 //083   ----------------------------------------
 BYTE   W23
 BYTE   EOT
 BYTE   W01
 BYTE   N92  Fs1
 BYTE   W72
//  #08 //084   ----------------------------------------
 BYTE   W24
 BYTE   As1
 BYTE   W72
//  #08 //085   ----------------------------------------
 BYTE   W24
 BYTE   N11  Fs3  v112
 BYTE   W12
 BYTE   N11
 BYTE   W24
 BYTE   Gn3
 BYTE   W12
 BYTE   N11
 BYTE   W24
//  #08 //086   ----------------------------------------
Label_01008061:
 BYTE   N11  An3  v112
 BYTE   W12
 BYTE   N11
 BYTE   W24
 BYTE   En3
 BYTE   W12
 BYTE   N11
 BYTE   W24
 BYTE   Gn3
 BYTE   W12
 BYTE   Fs3
 BYTE   W12
 BYTE   PEND 
//  #08 //087   ----------------------------------------
Label_01008070:
 BYTE   N11  En3  v112
 BYTE   W12
 BYTE   Gn3
 BYTE   W12
 BYTE   Fs3
 BYTE   W12
 BYTE   N11
 BYTE   W24
 BYTE   Gn3
 BYTE   W12
 BYTE   N11
 BYTE   W24
 BYTE   PEND 
//  #08 //088   ----------------------------------------
 BYTE   PATT
  POIN2 Label_01008061
//  #08 //089   ----------------------------------------
 BYTE   PATT
  POIN2 Label_01008070
//  #08 //090   ----------------------------------------
 BYTE   PATT
  POIN2 Label_01008061
//  #08 //091   ----------------------------------------
 BYTE   PATT
  POIN2 Label_01008070
//  #08 //092   ----------------------------------------
 BYTE   N11  An3  v112
 BYTE   W12
 BYTE   N11
 BYTE   W24
 BYTE   En3
 BYTE   W12
 BYTE   N11
 BYTE   W48
//  #08 //093   ----------------------------------------
Label_0100809D:
 BYTE   W24
 BYTE   TIE  Bn1  v052
 BYTE   W72
 BYTE   PEND 
//  #08 //094   ----------------------------------------
 BYTE   W24
 BYTE   W44
 BYTE   W03
 BYTE   EOT
 BYTE   W01
 BYTE   N44  Cs2
 BYTE   W24
//  #08 //095   ----------------------------------------
 BYTE   PATT
  POIN2 Label_0100809D
//  #08 //096   ----------------------------------------
 BYTE   W24
 BYTE   W72
//  #08 //097   ----------------------------------------
 BYTE   W23
 BYTE   EOT
 BYTE   Bn1
 BYTE   W01
 BYTE   N92  Bn1  v052
 BYTE   W72
//  #08 //098   ----------------------------------------
 BYTE   W24
 BYTE   N15  Dn2
 BYTE   W16
 BYTE   N15
 BYTE   W16
 BYTE   N15
 BYTE   W16
 BYTE   N15
 BYTE   W16
 BYTE   N15
 BYTE   W08
//  #08 //099   ----------------------------------------
 BYTE   W08
 BYTE   N15
 BYTE   W16
 BYTE   N92  Bn1
 BYTE   W72
//  #08 //100   ----------------------------------------
 BYTE   W96
//  #08 //101   ----------------------------------------
 BYTE   W96
//  #08 //102   ----------------------------------------
 BYTE   W96
//  #08 //103   ----------------------------------------
 BYTE   W96
//  #08 //104   ----------------------------------------
 BYTE   W96
//  #08 //105   ----------------------------------------
 BYTE   W96
//  #08 //106   ----------------------------------------
 BYTE   W96
//  #08 //107   ----------------------------------------
 BYTE   W96
//  #08 //108   ----------------------------------------
 BYTE   W96
//  #08 //109   ----------------------------------------
 BYTE   W96
//  #08 //110   ----------------------------------------
 BYTE   W96
//  #08 //111   ----------------------------------------
 BYTE   W96
//  #08 //112   ----------------------------------------
 BYTE   W96
//  #08 //113   ----------------------------------------
 BYTE   W96
//  #08 //114   ----------------------------------------
 BYTE   W96
//  #08 //115   ----------------------------------------
 BYTE   W96
//  #08 //116   ----------------------------------------
 BYTE   W96
//  #08 //117   ----------------------------------------
 BYTE   W96
//  #08 //118   ----------------------------------------
 BYTE   W96
//  #08 //119   ----------------------------------------
 BYTE   W96
//  #08 //120   ----------------------------------------
 BYTE   W72
 BYTE   N44  Gs1
 BYTE   W24
//  #08 //121   ----------------------------------------
Label_010080E4:
 BYTE   W24
 BYTE   N92  As1  v052
 BYTE   W72
 BYTE   PEND 
//  #08 //122   ----------------------------------------
 BYTE   W24
 BYTE   Cn2
 BYTE   W72
//  #08 //123   ----------------------------------------
 BYTE   W24
 BYTE   Cs2
 BYTE   N92  Fn2
 BYTE   W72
//  #08 //124   ----------------------------------------
 BYTE   W24
 BYTE   Ds2
 BYTE   W72
//  #08 //125   ----------------------------------------
 BYTE   PATT
  POIN2 Label_010080E4
//  #08 //126   ----------------------------------------
 BYTE   W24
 BYTE   N92  Gs1  v052
 BYTE   W72
//  #08 //127   ----------------------------------------
 BYTE   PATT
  POIN2 Label_010080E4
//  #08 //128   ----------------------------------------
 BYTE   W24
 BYTE   TIE  Ds2  v052
 BYTE   W72
//  #08 //129   ----------------------------------------
 BYTE   W24
 BYTE   W11
 BYTE   EOT
 BYTE   W01
 BYTE   TIE  Fn2
 BYTE   W36
 BYTE   W12
 BYTE   W12
//  #08 //130   ----------------------------------------
 BYTE   W24
 BYTE   W12
 BYTE   W36
 BYTE   W24
//  #08 //131   ----------------------------------------
 BYTE   W11
 BYTE   EOT
 BYTE   W84
 BYTE   W01
//  #08 //132   ----------------------------------------
 BYTE   W96
//  #08 //133   ----------------------------------------
 BYTE   PATT
  POIN2 Label_0100800D
//  #08 //134   ----------------------------------------
 BYTE   PATT
  POIN2 Label_01007FAD
//  #08 //135   ----------------------------------------
 BYTE   PATT
  POIN2 Label_01007FB9
//  #08 //136   ----------------------------------------
 BYTE   W24
 BYTE   W72
//  #08 //137   ----------------------------------------
 BYTE   W23
 BYTE   EOT
 BYTE   Cs3
 BYTE   W01
 BYTE   N68  Dn3  v096
 BYTE   W72
//  #08 //138   ----------------------------------------
 BYTE   PATT
  POIN2 Label_01007FAD
//  #08 //139   ----------------------------------------
 BYTE   PATT
  POIN2 Label_01007FD4
//  #08 //140   ----------------------------------------
 BYTE   W24
 BYTE   W72
//  #08 //141   ----------------------------------------
 BYTE   W23
 BYTE   EOT
 BYTE   Cs3
 BYTE   W01
 BYTE   TIE  Bn1  v096
 BYTE   W72
//  #08 //142   ----------------------------------------
 BYTE   W24
 BYTE   W72
//  #08 //143   ----------------------------------------
 BYTE   W23
 BYTE   EOT
 BYTE   W01
 BYTE   TIE  An1
 BYTE   W72
//  #08 //144   ----------------------------------------
 BYTE   W24
 BYTE   W72
//  #08 //145   ----------------------------------------
 BYTE   W23
 BYTE   EOT
 BYTE   W01
 BYTE   TIE  Gn1
 BYTE   W72
//  #08 //146   ----------------------------------------
 BYTE   W24
 BYTE   W72
//  #08 //147   ----------------------------------------
 BYTE   W23
 BYTE   EOT
 BYTE   W01
 BYTE   TIE  Fs1
 BYTE   W72
//  #08 //148   ----------------------------------------
 BYTE   W24
 BYTE   W40
 BYTE   W01
 BYTE   EOT
 BYTE   W30
 BYTE   W01
//  #08 //149   ----------------------------------------
 BYTE   PATT
  POIN2 Label_0100800D
//  #08 //150   ----------------------------------------
 BYTE   PATT
  POIN2 Label_01007FAD
//  #08 //151   ----------------------------------------
 BYTE   PATT
  POIN2 Label_01007FB9
//  #08 //152   ----------------------------------------
 BYTE   W24
 BYTE   W72
//  #08 //153   ----------------------------------------
 BYTE   W23
 BYTE   EOT
 BYTE   Cs3
 BYTE   W01
 BYTE   N68  Dn3  v096
 BYTE   W72
//  #08 //154   ----------------------------------------
 BYTE   PATT
  POIN2 Label_01007FAD
//  #08 //155   ----------------------------------------
 BYTE   PATT
  POIN2 Label_01007FD4
//  #08 //156   ----------------------------------------
 BYTE   W24
 BYTE   W72
//  #08 //157   ----------------------------------------
 BYTE   W23
 BYTE   EOT
 BYTE   Cs3
 BYTE   W01
 BYTE   TIE  Bn1  v096
 BYTE   W72
//  #08 //158   ----------------------------------------
 BYTE   W24
 BYTE   W72
//  #08 //159   ----------------------------------------
 BYTE   W23
 BYTE   EOT
 BYTE   W01
 BYTE   TIE  An1
 BYTE   W72
//  #08 //160   ----------------------------------------
 BYTE   W24
 BYTE   W72
//  #08 //161   ----------------------------------------
 BYTE   W23
 BYTE   EOT
 BYTE   W01
 BYTE   TIE  Gn1
 BYTE   W72
//  #08 //162   ----------------------------------------
 BYTE   W24
 BYTE   W72
//  #08 //163   ----------------------------------------
 BYTE   W23
 BYTE   EOT
 BYTE   W01
 BYTE   TIE
 BYTE   W72
//  #08 //164   ----------------------------------------
 BYTE   W24
 BYTE   W44
 BYTE   W03
 BYTE   EOT
 BYTE   W24
 BYTE   W01
//  #08 //165   ----------------------------------------
 BYTE   W24
 BYTE   TIE  Gn1  v080
 BYTE   W72
//  #08 //166   ----------------------------------------
 BYTE   W24
 BYTE   W72
//  #08 //167   ----------------------------------------
 BYTE   W23
 BYTE   EOT
 BYTE   W01
 BYTE   TIE
 BYTE   W72
//  #08 //168   ----------------------------------------
 BYTE   W24
 BYTE   W72
//  #08 //169   ----------------------------------------
 BYTE   W23
 BYTE   EOT
 BYTE   W01
 BYTE   TIE  An1
 BYTE   W72
//  #08 //170   ----------------------------------------
 BYTE   W24
 BYTE   W72
//  #08 //171   ----------------------------------------
 BYTE   W23
 BYTE   EOT
 BYTE   W01
 BYTE   TIE  Gn1
 BYTE   W72
//  #08 //172   ----------------------------------------
 BYTE   W24
 BYTE   W72
//  #08 //173   ----------------------------------------
 BYTE   W23
 BYTE   EOT
 BYTE   W72
 BYTE   W01
//  #08 //174   ----------------------------------------
 BYTE   W96
//  #08 //175   ----------------------------------------
 BYTE   W96
//  #08 //176   ----------------------------------------
 BYTE   W96
//  #08 //177   ----------------------------------------
 BYTE   W96
//  #08 //178   ----------------------------------------
 BYTE   W24
 BYTE   TIE  Bn1
 BYTE   W72
//  #08 //179   ----------------------------------------
 BYTE   W24
 BYTE   W72
//  #08 //180   ----------------------------------------
 BYTE   W24
 BYTE   W72
//  #08 //181   ----------------------------------------
 BYTE   W23
 BYTE   EOT
 BYTE   W72
 BYTE   W01
//  #08 //182   ----------------------------------------
 BYTE   GoTo
  POIN2 Label_01007D6D
 BYTE   FINE

//**************** Track 9 (Midi-Chn.8) ****************//

TheWeightOfLife_009:
//  #09 //000   ----------------------------------------
 BYTE   KEYSH   TheWeightOfLife_key+0
 BYTE   VOICE   48
 BYTE   VOL   42*TheWeightOfLife_mvl/mxv
 BYTE   PAN   c_v+0
 BYTE   W24
Label_0100969D:
 BYTE   W72
//  #09 //001   ----------------------------------------
 BYTE   W96
//  #09 //002   ----------------------------------------
 BYTE   W96
//  #09 //003   ----------------------------------------
 BYTE   W96
//  #09 //004   ----------------------------------------
 BYTE   W96
//  #09 //005   ----------------------------------------
 BYTE   W96
//  #09 //006   ----------------------------------------
 BYTE   W96
//  #09 //007   ----------------------------------------
 BYTE   W96
//  #09 //008   ----------------------------------------
 BYTE   W96
//  #09 //009   ----------------------------------------
 BYTE   W96
//  #09 //010   ----------------------------------------
 BYTE   W96
//  #09 //011   ----------------------------------------
 BYTE   W96
//  #09 //012   ----------------------------------------
 BYTE   W96
//  #09 //013   ----------------------------------------
 BYTE   W96
//  #09 //014   ----------------------------------------
 BYTE   W96
//  #09 //015   ----------------------------------------
 BYTE   W96
//  #09 //016   ----------------------------------------
 BYTE   W96
//  #09 //017   ----------------------------------------
 BYTE   W96
//  #09 //018   ----------------------------------------
 BYTE   W96
//  #09 //019   ----------------------------------------
 BYTE   W96
//  #09 //020   ----------------------------------------
 BYTE   W96
//  #09 //021   ----------------------------------------
 BYTE   W96
//  #09 //022   ----------------------------------------
 BYTE   W96
//  #09 //023   ----------------------------------------
 BYTE   W96
//  #09 //024   ----------------------------------------
 BYTE   W96
//  #09 //025   ----------------------------------------
 BYTE   W96
//  #09 //026   ----------------------------------------
 BYTE   W96
//  #09 //027   ----------------------------------------
 BYTE   W96
//  #09 //028   ----------------------------------------
 BYTE   W96
//  #09 //029   ----------------------------------------
 BYTE   W96
//  #09 //030   ----------------------------------------
 BYTE   W96
//  #09 //031   ----------------------------------------
 BYTE   W96
//  #09 //032   ----------------------------------------
 BYTE   W96
//  #09 //033   ----------------------------------------
 BYTE   W96
//  #09 //034   ----------------------------------------
 BYTE   W96
//  #09 //035   ----------------------------------------
 BYTE   W96
//  #09 //036   ----------------------------------------
 BYTE   W96
//  #09 //037   ----------------------------------------
 BYTE   W96
//  #09 //038   ----------------------------------------
 BYTE   W96
//  #09 //039   ----------------------------------------
 BYTE   W96
//  #09 //040   ----------------------------------------
 BYTE   W96
//  #09 //041   ----------------------------------------
 BYTE   W24
 BYTE   N11  Bn2  v064
 BYTE   W36
 BYTE   N23  Gn3
 BYTE   W36
//  #09 //042   ----------------------------------------
 BYTE   W12
 BYTE   N23
 BYTE   W12
 BYTE   W72
//  #09 //043   ----------------------------------------
 BYTE   W24
 BYTE   N11  Cs3
 BYTE   W36
 BYTE   N23  An3
 BYTE   W36
//  #09 //044   ----------------------------------------
 BYTE   W12
 BYTE   N23
 BYTE   W12
 BYTE   W48
 BYTE   N11  Cs3
 BYTE   W24
//  #09 //045   ----------------------------------------
 BYTE   N23
 BYTE   W24
 BYTE   N11  Bn2
 BYTE   W36
 BYTE   N23
 BYTE   W36
//  #09 //046   ----------------------------------------
 BYTE   W24
 BYTE   N11  An2
 BYTE   W36
 BYTE   N23
 BYTE   W36
//  #09 //047   ----------------------------------------
 BYTE   W24
 BYTE   N11  Gn3
 BYTE   W24
 BYTE   N11
 BYTE   W24
 BYTE   N11
 BYTE   W24
//  #09 //048   ----------------------------------------
 BYTE   N11
 BYTE   W24
 BYTE   N15  Fs3  v036
 BYTE   W03
 BYTE   W03
 BYTE   W03
 BYTE   W03
 BYTE   W03
 BYTE   W01
 BYTE   Dn3  v040
 BYTE   W02
 BYTE   W03
 BYTE   W03
 BYTE   W03
 BYTE   W04
 BYTE   W01
 BYTE   Dn3  v044
 BYTE   W02
 BYTE   W03
 BYTE   W03
 BYTE   W03
 BYTE   W03
 BYTE   W02
 BYTE   Fs3  v048
 BYTE   W01
 BYTE   W03
 BYTE   W03
 BYTE   W03
 BYTE   W03
 BYTE   W03
 BYTE   Dn3  v056
 BYTE   W01
 BYTE   W03
 BYTE   W03
 BYTE   W01
//  #09 //049   ----------------------------------------
 BYTE   W02
 BYTE   W03
 BYTE   W03
 BYTE   Dn3  v060
 BYTE   W03
 BYTE   W03
 BYTE   W03
 BYTE   W03
 BYTE   W04
 BYTE   N11  En3  v064
 BYTE   W24
 BYTE   N11
 BYTE   W24
 BYTE   N11
 BYTE   W24
//  #09 //050   ----------------------------------------
 BYTE   N11
 BYTE   W24
 BYTE   N11
 BYTE   W04
 BYTE   W04
 BYTE   W04
 BYTE   W12
 BYTE   En3  v072
 BYTE   W04
 BYTE   W04
 BYTE   W04
 BYTE   W04
 BYTE   W04
 BYTE   W04
 BYTE   En3  v076
 BYTE   W04
 BYTE   W04
 BYTE   W04
 BYTE   N23  Gn3  v080
 BYTE   W04
 BYTE   W04
 BYTE   W04
//  #09 //051   ----------------------------------------
 BYTE   W04
 BYTE   W04
 BYTE   W04
 BYTE   Fs3  v088
 BYTE   W04
 BYTE   W04
 BYTE   W04
 BYTE   W04
 BYTE   W04
 BYTE   W04
 BYTE   W04
 BYTE   W04
 BYTE   W04
 BYTE   N11  Fs3  v096
 BYTE   W04
 BYTE   W04
 BYTE   W04
 BYTE   W04
 BYTE   W04
 BYTE   W04
 BYTE   Fs3  v100
 BYTE   W04
 BYTE   W04
 BYTE   W04
 BYTE   W04
 BYTE   W04
 BYTE   W04
//  #09 //052   ----------------------------------------
 BYTE   Fs3  v108
 BYTE   W04
 BYTE   W04
 BYTE   W04
 BYTE   W04
 BYTE   W04
 BYTE   W04
 BYTE   Fs3  v112
 BYTE   W12
 BYTE   N11
 BYTE   W60
//  #09 //053   ----------------------------------------
 BYTE   W96
//  #09 //054   ----------------------------------------
 BYTE   W96
//  #09 //055   ----------------------------------------
 BYTE   W96
//  #09 //056   ----------------------------------------
 BYTE   W96
//  #09 //057   ----------------------------------------
 BYTE   W96
//  #09 //058   ----------------------------------------
 BYTE   W96
//  #09 //059   ----------------------------------------
 BYTE   W96
//  #09 //060   ----------------------------------------
 BYTE   W72
 BYTE   N23  Dn4
 BYTE   W24
//  #09 //061   ----------------------------------------
Label_01009781:
 BYTE   N23  En4  v112
 BYTE   W24
 BYTE   N68  Fs4
 BYTE   W72
 BYTE   PEND 
//  #09 //062   ----------------------------------------
Label_01009789:
 BYTE   N11  En4  v112
 BYTE   W12
 BYTE   N32  An4
 BYTE   W12
 BYTE   W24
 BYTE   N23  Gn4
 BYTE   W24
 BYTE   Fs4
 BYTE   W24
 BYTE   PEND 
//  #09 //063   ----------------------------------------
 BYTE   PATT
  POIN2 Label_01009781
//  #09 //064   ----------------------------------------
 BYTE   PATT
  POIN2 Label_01009789
//  #09 //065   ----------------------------------------
 BYTE   N23  En4  v112
 BYTE   W24
 BYTE   Fs4
 BYTE   W24
 BYTE   N11  En4
 BYTE   W12
 BYTE   N80  Bn3
 BYTE   W12
 BYTE   W24
//  #09 //066   ----------------------------------------
 BYTE   W24
 BYTE   W24
 BYTE   N23
 BYTE   W24
 BYTE   As3
 BYTE   W24
//  #09 //067   ----------------------------------------
 BYTE   N11  Bn3
 BYTE   W12
 BYTE   TIE  Cs4
 BYTE   W12
 BYTE   W72
//  #09 //068   ----------------------------------------
 BYTE   W17
 BYTE   EOT
 BYTE   W78
 BYTE   W01
//  #09 //069   ----------------------------------------
 BYTE   W96
//  #09 //070   ----------------------------------------
 BYTE   W96
//  #09 //071   ----------------------------------------
 BYTE   W96
//  #09 //072   ----------------------------------------
 BYTE   W96
//  #09 //073   ----------------------------------------
 BYTE   W96
//  #09 //074   ----------------------------------------
 BYTE   W96
//  #09 //075   ----------------------------------------
 BYTE   W96
//  #09 //076   ----------------------------------------
 BYTE   W96
//  #09 //077   ----------------------------------------
 BYTE   W96
//  #09 //078   ----------------------------------------
 BYTE   W96
//  #09 //079   ----------------------------------------
 BYTE   W96
//  #09 //080   ----------------------------------------
 BYTE   W96
//  #09 //081   ----------------------------------------
 BYTE   W96
//  #09 //082   ----------------------------------------
 BYTE   W96
//  #09 //083   ----------------------------------------
 BYTE   W96
//  #09 //084   ----------------------------------------
 BYTE   W96
//  #09 //085   ----------------------------------------
 BYTE   W96
//  #09 //086   ----------------------------------------
 BYTE   W96
//  #09 //087   ----------------------------------------
 BYTE   W96
//  #09 //088   ----------------------------------------
 BYTE   W96
//  #09 //089   ----------------------------------------
 BYTE   W96
//  #09 //090   ----------------------------------------
 BYTE   W96
//  #09 //091   ----------------------------------------
 BYTE   W96
//  #09 //092   ----------------------------------------
 BYTE   W96
//  #09 //093   ----------------------------------------
 BYTE   W96
//  #09 //094   ----------------------------------------
 BYTE   W96
//  #09 //095   ----------------------------------------
 BYTE   W96
//  #09 //096   ----------------------------------------
 BYTE   W96
//  #09 //097   ----------------------------------------
 BYTE   W96
//  #09 //098   ----------------------------------------
 BYTE   W24
 BYTE   N15  Fs3  v052
 BYTE   W16
 BYTE   Dn3
 BYTE   W16
 BYTE   N15
 BYTE   W16
 BYTE   Fs3
 BYTE   W16
 BYTE   Dn3
 BYTE   W08
//  #09 //099   ----------------------------------------
 BYTE   W08
 BYTE   N15
 BYTE   W88
//  #09 //100   ----------------------------------------
 BYTE   W96
//  #09 //101   ----------------------------------------
 BYTE   W24
 BYTE   TIE  Gn3
 BYTE   W72
//  #09 //102   ----------------------------------------
 BYTE   W24
 BYTE   W72
//  #09 //103   ----------------------------------------
 BYTE   W23
 BYTE   EOT
 BYTE   W01
 BYTE   TIE  Fs3
 BYTE   W72
//  #09 //104   ----------------------------------------
 BYTE   W24
 BYTE   W72
//  #09 //105   ----------------------------------------
 BYTE   W24
 BYTE   W72
//  #09 //106   ----------------------------------------
 BYTE   W23
 BYTE   EOT
 BYTE   W01
 BYTE   N92  En3
 BYTE   W72
//  #09 //107   ----------------------------------------
 BYTE   W24
 BYTE   An2
 BYTE   W72
//  #09 //108   ----------------------------------------
 BYTE   W24
 BYTE   En3
 BYTE   W72
//  #09 //109   ----------------------------------------
 BYTE   W24
 BYTE   TIE  Fs3  v036
 BYTE   W72
//  #09 //110   ----------------------------------------
 BYTE   W96
//  #09 //111   ----------------------------------------
 BYTE   W23
 BYTE   EOT
 BYTE   W72
 BYTE   W01
//  #09 //112   ----------------------------------------
 BYTE   W96
//  #09 //113   ----------------------------------------
 BYTE   W96
//  #09 //114   ----------------------------------------
 BYTE   W96
//  #09 //115   ----------------------------------------
 BYTE   W96
//  #09 //116   ----------------------------------------
 BYTE   W96
//  #09 //117   ----------------------------------------
 BYTE   W96
//  #09 //118   ----------------------------------------
 BYTE   W96
//  #09 //119   ----------------------------------------
 BYTE   W96
//  #09 //120   ----------------------------------------
 BYTE   W96
//  #09 //121   ----------------------------------------
 BYTE   W96
//  #09 //122   ----------------------------------------
 BYTE   W96
//  #09 //123   ----------------------------------------
 BYTE   W96
//  #09 //124   ----------------------------------------
 BYTE   W96
//  #09 //125   ----------------------------------------
 BYTE   W96
//  #09 //126   ----------------------------------------
 BYTE   W96
//  #09 //127   ----------------------------------------
 BYTE   W96
//  #09 //128   ----------------------------------------
 BYTE   W96
//  #09 //129   ----------------------------------------
 BYTE   W96
//  #09 //130   ----------------------------------------
 BYTE   W96
//  #09 //131   ----------------------------------------
 BYTE   W96
//  #09 //132   ----------------------------------------
 BYTE   W96
//  #09 //133   ----------------------------------------
 BYTE   W96
//  #09 //134   ----------------------------------------
 BYTE   W96
//  #09 //135   ----------------------------------------
 BYTE   W96
//  #09 //136   ----------------------------------------
 BYTE   W96
//  #09 //137   ----------------------------------------
 BYTE   W96
//  #09 //138   ----------------------------------------
 BYTE   W96
//  #09 //139   ----------------------------------------
 BYTE   W96
//  #09 //140   ----------------------------------------
 BYTE   W96
//  #09 //141   ----------------------------------------
 BYTE   W24
 BYTE   TIE  Dn3  v096
 BYTE   W72
//  #09 //142   ----------------------------------------
 BYTE   W24
 BYTE   W72
//  #09 //143   ----------------------------------------
 BYTE   W23
 BYTE   EOT
 BYTE   W01
 BYTE   TIE  Cs3
 BYTE   W72
//  #09 //144   ----------------------------------------
 BYTE   W24
 BYTE   W72
//  #09 //145   ----------------------------------------
 BYTE   W23
 BYTE   EOT
 BYTE   W01
 BYTE   TIE  Bn2
 BYTE   W72
//  #09 //146   ----------------------------------------
 BYTE   W24
 BYTE   W72
//  #09 //147   ----------------------------------------
 BYTE   W23
 BYTE   EOT
 BYTE   W01
 BYTE   N92  As2
 BYTE   W72
//  #09 //148   ----------------------------------------
 BYTE   W24
 BYTE   N40  Fs3
 BYTE   W72
//  #09 //149   ----------------------------------------
 BYTE   W96
//  #09 //150   ----------------------------------------
 BYTE   W96
//  #09 //151   ----------------------------------------
 BYTE   W96
//  #09 //152   ----------------------------------------
 BYTE   W96
//  #09 //153   ----------------------------------------
 BYTE   W96
//  #09 //154   ----------------------------------------
 BYTE   W96
//  #09 //155   ----------------------------------------
 BYTE   W96
//  #09 //156   ----------------------------------------
 BYTE   W96
//  #09 //157   ----------------------------------------
 BYTE   W96
//  #09 //158   ----------------------------------------
 BYTE   W96
//  #09 //159   ----------------------------------------
 BYTE   W96
//  #09 //160   ----------------------------------------
 BYTE   W96
//  #09 //161   ----------------------------------------
 BYTE   W96
//  #09 //162   ----------------------------------------
 BYTE   W96
//  #09 //163   ----------------------------------------
 BYTE   W96
//  #09 //164   ----------------------------------------
 BYTE   W96
//  #09 //165   ----------------------------------------
 BYTE   W96
//  #09 //166   ----------------------------------------
 BYTE   W96
//  #09 //167   ----------------------------------------
 BYTE   W96
//  #09 //168   ----------------------------------------
 BYTE   W96
//  #09 //169   ----------------------------------------
 BYTE   W96
//  #09 //170   ----------------------------------------
 BYTE   W96
//  #09 //171   ----------------------------------------
 BYTE   W96
//  #09 //172   ----------------------------------------
 BYTE   W96
//  #09 //173   ----------------------------------------
 BYTE   W96
//  #09 //174   ----------------------------------------
 BYTE   W96
//  #09 //175   ----------------------------------------
 BYTE   W96
//  #09 //176   ----------------------------------------
 BYTE   W96
//  #09 //177   ----------------------------------------
 BYTE   W96
//  #09 //178   ----------------------------------------
 BYTE   W24
 BYTE   TIE  Fs3  v080
 BYTE   W72
//  #09 //179   ----------------------------------------
 BYTE   W24
 BYTE   W72
//  #09 //180   ----------------------------------------
 BYTE   W24
 BYTE   W72
//  #09 //181   ----------------------------------------
 BYTE   W23
 BYTE   EOT
 BYTE   W72
 BYTE   W01
//  #09 //182   ----------------------------------------
 BYTE   GoTo
  POIN2 Label_0100969D
 BYTE   FINE

//**************** Track 10 (Midi-Chn.9) ****************//

TheWeightOfLife_010:
//  #10 //000   ----------------------------------------
 BYTE   KEYSH   TheWeightOfLife_key+0
 BYTE   VOICE   30
 BYTE   VOL   42*TheWeightOfLife_mvl/mxv
 BYTE   PAN   c_v+0
 BYTE   W24
Label_0100A559:
 BYTE   W72
//  #10 //001   ----------------------------------------
 BYTE   W96
//  #10 //002   ----------------------------------------
 BYTE   W96
//  #10 //003   ----------------------------------------
 BYTE   W96
//  #10 //004   ----------------------------------------
 BYTE   W96
//  #10 //005   ----------------------------------------
 BYTE   W96
//  #10 //006   ----------------------------------------
 BYTE   W96
//  #10 //007   ----------------------------------------
 BYTE   W96
//  #10 //008   ----------------------------------------
 BYTE   W96
//  #10 //009   ----------------------------------------
 BYTE   W24
 BYTE   TIE  Bn2  v112
 BYTE   TIE  Bn3
 BYTE   W72
//  #10 //010   ----------------------------------------
 BYTE   W92
 BYTE   W03
 BYTE   EOT
 BYTE   Bn2  v071
 BYTE   W01
//  #10 //011   ----------------------------------------
 BYTE   N23  En4  v127
 BYTE   W24
 BYTE   TIE  Fs4
 BYTE   W72
//  #10 //012   ----------------------------------------
 BYTE   W96
//  #10 //013   ----------------------------------------
 BYTE   W23
 BYTE   EOT
 BYTE   W72
 BYTE   W01
//  #10 //014   ----------------------------------------
 BYTE   W96
//  #10 //015   ----------------------------------------
 BYTE   W96
//  #10 //016   ----------------------------------------
 BYTE   W96
//  #10 //017   ----------------------------------------
 BYTE   W96
//  #10 //018   ----------------------------------------
 BYTE   W96
//  #10 //019   ----------------------------------------
 BYTE   W96
//  #10 //020   ----------------------------------------
 BYTE   W96
//  #10 //021   ----------------------------------------
 BYTE   W96
//  #10 //022   ----------------------------------------
 BYTE   W96
//  #10 //023   ----------------------------------------
 BYTE   W96
//  #10 //024   ----------------------------------------
 BYTE   W96
//  #10 //025   ----------------------------------------
 BYTE   W96
//  #10 //026   ----------------------------------------
 BYTE   W96
//  #10 //027   ----------------------------------------
 BYTE   W96
//  #10 //028   ----------------------------------------
 BYTE   W96
//  #10 //029   ----------------------------------------
 BYTE   W96
//  #10 //030   ----------------------------------------
 BYTE   W96
//  #10 //031   ----------------------------------------
 BYTE   W96
//  #10 //032   ----------------------------------------
 BYTE   W96
//  #10 //033   ----------------------------------------
 BYTE   W96
//  #10 //034   ----------------------------------------
 BYTE   W96
//  #10 //035   ----------------------------------------
 BYTE   W96
//  #10 //036   ----------------------------------------
 BYTE   W96
//  #10 //037   ----------------------------------------
 BYTE   W96
//  #10 //038   ----------------------------------------
 BYTE   W96
//  #10 //039   ----------------------------------------
 BYTE   W96
//  #10 //040   ----------------------------------------
 BYTE   W96
//  #10 //041   ----------------------------------------
 BYTE   W96
//  #10 //042   ----------------------------------------
 BYTE   W96
//  #10 //043   ----------------------------------------
 BYTE   W96
//  #10 //044   ----------------------------------------
 BYTE   W96
//  #10 //045   ----------------------------------------
 BYTE   W96
//  #10 //046   ----------------------------------------
 BYTE   W96
//  #10 //047   ----------------------------------------
 BYTE   W96
//  #10 //048   ----------------------------------------
 BYTE   W96
//  #10 //049   ----------------------------------------
 BYTE   W96
//  #10 //050   ----------------------------------------
 BYTE   W96
//  #10 //051   ----------------------------------------
 BYTE   W96
//  #10 //052   ----------------------------------------
 BYTE   W96
//  #10 //053   ----------------------------------------
Label_0100A5A2:
 BYTE   W24
 BYTE   TIE  Bn2  v096
 BYTE   W72
 BYTE   PEND 
//  #10 //054   ----------------------------------------
 BYTE   W96
//  #10 //055   ----------------------------------------
 BYTE   W23
 BYTE   EOT
 BYTE   W01
 BYTE   TIE  An2
 BYTE   W72
//  #10 //056   ----------------------------------------
 BYTE   W96
//  #10 //057   ----------------------------------------
 BYTE   W23
 BYTE   EOT
 BYTE   W01
 BYTE   TIE  Gn2
 BYTE   W72
//  #10 //058   ----------------------------------------
 BYTE   W96
//  #10 //059   ----------------------------------------
 BYTE   W23
 BYTE   EOT
 BYTE   W01
 BYTE   TIE  Fs2
 BYTE   W72
//  #10 //060   ----------------------------------------
 BYTE   W96
//  #10 //061   ----------------------------------------
 BYTE   W23
 BYTE   EOT
 BYTE   W72
 BYTE   W01
//  #10 //062   ----------------------------------------
 BYTE   W96
//  #10 //063   ----------------------------------------
 BYTE   W96
//  #10 //064   ----------------------------------------
 BYTE   W96
//  #10 //065   ----------------------------------------
 BYTE   W96
//  #10 //066   ----------------------------------------
 BYTE   W96
//  #10 //067   ----------------------------------------
 BYTE   W96
//  #10 //068   ----------------------------------------
 BYTE   W96
//  #10 //069   ----------------------------------------
 BYTE   PATT
  POIN2 Label_0100A5A2
//  #10 //070   ----------------------------------------
 BYTE   W96
//  #10 //071   ----------------------------------------
 BYTE   W23
 BYTE   EOT
 BYTE   Bn2
 BYTE   W01
 BYTE   TIE  An2  v096
 BYTE   W72
//  #10 //072   ----------------------------------------
 BYTE   W96
//  #10 //073   ----------------------------------------
 BYTE   W23
 BYTE   EOT
 BYTE   W01
 BYTE   TIE  Gn2
 BYTE   W72
//  #10 //074   ----------------------------------------
 BYTE   W96
//  #10 //075   ----------------------------------------
 BYTE   W23
 BYTE   EOT
 BYTE   W01
 BYTE   TIE  Fs2
 BYTE   W72
//  #10 //076   ----------------------------------------
 BYTE   W68
 BYTE   W03
 BYTE   EOT
 BYTE   W01
 BYTE   N23  Dn3  v112
 BYTE   N23  Dn4
 BYTE   W24
//  #10 //077   ----------------------------------------
Label_0100A5EF:
 BYTE   N23  En3  v112
 BYTE   N23  En4
 BYTE   W24
 BYTE   N68  Fs3
 BYTE   N68  Fs4
 BYTE   W72
 BYTE   PEND 
//  #10 //078   ----------------------------------------
 BYTE   N11  En3
 BYTE   N11  En4
 BYTE   W12
 BYTE   N32  An3
 BYTE   N32  An4
 BYTE   W36
 BYTE   N23  Gn3
 BYTE   N23  Gn4
 BYTE   W24
 BYTE   Fs3
 BYTE   N23  Fs4
 BYTE   W24
//  #10 //079   ----------------------------------------
 BYTE   PATT
  POIN2 Label_0100A5EF
//  #10 //080   ----------------------------------------
 BYTE   N11  En3  v112
 BYTE   N11  En4
 BYTE   W12
 BYTE   N32  Fs3
 BYTE   N32  Fs4
 BYTE   W36
 BYTE   N23  An3
 BYTE   N23  An4
 BYTE   W24
 BYTE   Bn3
 BYTE   N23  Bn4
 BYTE   W24
//  #10 //081   ----------------------------------------
 BYTE   Cs4
 BYTE   N23  Cs5
 BYTE   W24
 BYTE   Cs4
 BYTE   N23  Cs5
 BYTE   W24
 BYTE   N11  Dn4
 BYTE   N11  Dn5
 BYTE   W12
 BYTE   TIE  Bn3
 BYTE   TIE  Bn4
 BYTE   W36
//  #10 //082   ----------------------------------------
 BYTE   W92
 BYTE   W03
 BYTE   EOT
 BYTE   Bn3  v083
 BYTE   W01
//  #10 //083   ----------------------------------------
 BYTE   N11  Fs3
 BYTE   N11  Fs4
 BYTE   W12
 BYTE   Bn3
 BYTE   N11  Bn4
 BYTE   W12
 BYTE   N23  Cs4
 BYTE   N23  Cs5
 BYTE   W24
 BYTE   N11  Dn4
 BYTE   N11  Dn5
 BYTE   W12
 BYTE   N56  Bn3
 BYTE   N56  Bn4
 BYTE   W36
//  #10 //084   ----------------------------------------
 BYTE   W24
 BYTE   N92  Fs3
 BYTE   N92  Fs4
 BYTE   W72
//  #10 //085   ----------------------------------------
 BYTE   W48
 BYTE   N11  Bn3  v127
 BYTE   W12
 BYTE   TIE  Fs4
 BYTE   W36
//  #10 //086   ----------------------------------------
 BYTE   W96
//  #10 //087   ----------------------------------------
 BYTE   W23
 BYTE   EOT
 BYTE   W01
 BYTE   N11  Fs2  v096
 BYTE   W12
 BYTE   N11
 BYTE   W24
 BYTE   Gn2
 BYTE   W12
 BYTE   N11
 BYTE   W24
//  #10 //088   ----------------------------------------
Label_0100A673:
 BYTE   N11  An2  v096
 BYTE   W12
 BYTE   N11
 BYTE   W24
 BYTE   En2
 BYTE   W12
 BYTE   N11
 BYTE   W24
 BYTE   Gn2
 BYTE   W12
 BYTE   Fs2
 BYTE   W12
 BYTE   PEND 
//  #10 //089   ----------------------------------------
Label_0100A682:
 BYTE   N11  En2  v096
 BYTE   W12
 BYTE   Gn2
 BYTE   W12
 BYTE   Fs2
 BYTE   W12
 BYTE   N11
 BYTE   W24
 BYTE   Gn2
 BYTE   W12
 BYTE   N11
 BYTE   W24
 BYTE   PEND 
//  #10 //090   ----------------------------------------
 BYTE   PATT
  POIN2 Label_0100A673
//  #10 //091   ----------------------------------------
 BYTE   PATT
  POIN2 Label_0100A682
//  #10 //092   ----------------------------------------
 BYTE   N11  An2  v096
 BYTE   W12
 BYTE   N11
 BYTE   W24
 BYTE   En2
 BYTE   W12
 BYTE   N11
 BYTE   W48
//  #10 //093   ----------------------------------------
 BYTE   W96
//  #10 //094   ----------------------------------------
 BYTE   W96
//  #10 //095   ----------------------------------------
 BYTE   W96
//  #10 //096   ----------------------------------------
 BYTE   W96
//  #10 //097   ----------------------------------------
 BYTE   W96
//  #10 //098   ----------------------------------------
 BYTE   W96
//  #10 //099   ----------------------------------------
 BYTE   W96
//  #10 //100   ----------------------------------------
 BYTE   W96
//  #10 //101   ----------------------------------------
 BYTE   W24
 BYTE   TIE  Bn3  v112
 BYTE   W72
//  #10 //102   ----------------------------------------
 BYTE   W92
 BYTE   W03
 BYTE   EOT
 BYTE   W01
//  #10 //103   ----------------------------------------
 BYTE   N11  As3
 BYTE   W12
 BYTE   Bn3
 BYTE   W12
 BYTE   N44  Cs4
 BYTE   W48
 BYTE   Bn3
 BYTE   W24
//  #10 //104   ----------------------------------------
 BYTE   W24
 BYTE   An3
 BYTE   W48
 BYTE   Gs3
 BYTE   W24
//  #10 //105   ----------------------------------------
 BYTE   W24
 BYTE   N68  Fs3
 BYTE   W72
//  #10 //106   ----------------------------------------
 BYTE   N11  Fn3
 BYTE   W12
 BYTE   Fs3
 BYTE   W12
 BYTE   N44  Gs3
 BYTE   W48
 BYTE   An3
 BYTE   W24
//  #10 //107   ----------------------------------------
 BYTE   W24
 BYTE   N92  Cs4
 BYTE   W72
//  #10 //108   ----------------------------------------
 BYTE   W24
 BYTE   En4
 BYTE   W72
//  #10 //109   ----------------------------------------
 BYTE   W24
 BYTE   TIE  Fs4
 BYTE   W72
//  #10 //110   ----------------------------------------
 BYTE   W96
//  #10 //111   ----------------------------------------
 BYTE   W96
//  #10 //112   ----------------------------------------
 BYTE   W92
 BYTE   W03
 BYTE   EOT
 BYTE   W01
//  #10 //113   ----------------------------------------
 BYTE   W96
//  #10 //114   ----------------------------------------
 BYTE   W96
//  #10 //115   ----------------------------------------
 BYTE   W96
//  #10 //116   ----------------------------------------
 BYTE   W96
//  #10 //117   ----------------------------------------
 BYTE   W96
//  #10 //118   ----------------------------------------
 BYTE   W96
//  #10 //119   ----------------------------------------
 BYTE   W96
//  #10 //120   ----------------------------------------
 BYTE   W96
//  #10 //121   ----------------------------------------
 BYTE   W96
//  #10 //122   ----------------------------------------
 BYTE   W96
//  #10 //123   ----------------------------------------
 BYTE   W96
//  #10 //124   ----------------------------------------
 BYTE   W96
//  #10 //125   ----------------------------------------
 BYTE   W96
//  #10 //126   ----------------------------------------
 BYTE   W96
//  #10 //127   ----------------------------------------
 BYTE   W96
//  #10 //128   ----------------------------------------
 BYTE   W96
//  #10 //129   ----------------------------------------
 BYTE   W96
//  #10 //130   ----------------------------------------
 BYTE   W96
//  #10 //131   ----------------------------------------
 BYTE   W96
//  #10 //132   ----------------------------------------
 BYTE   W96
//  #10 //133   ----------------------------------------
 BYTE   W96
//  #10 //134   ----------------------------------------
 BYTE   W96
//  #10 //135   ----------------------------------------
 BYTE   W96
//  #10 //136   ----------------------------------------
 BYTE   W24
 BYTE   N05  Bn2  v096
 BYTE   W06
 BYTE   Dn3
 BYTE   W06
 BYTE   N23  Cs3
 BYTE   W60
//  #10 //137   ----------------------------------------
 BYTE   W96
//  #10 //138   ----------------------------------------
 BYTE   W96
//  #10 //139   ----------------------------------------
 BYTE   W96
//  #10 //140   ----------------------------------------
 BYTE   W72
 BYTE   N11  Fs2  v112
 BYTE   N11  Fs3  v127
 BYTE   N44  Bn3  v112
 BYTE   W12
 BYTE   N11  An2
 BYTE   N11  An3  v127
 BYTE   W12
//  #10 //141   ----------------------------------------
 BYTE   Cs3  v112
 BYTE   N11  Cs4  v127
 BYTE   W12
 BYTE   En3  v112
 BYTE   N11  En4  v127
 BYTE   W12
 BYTE   TIE  Bn2  v112
 BYTE   W72
//  #10 //142   ----------------------------------------
 BYTE   W96
//  #10 //143   ----------------------------------------
 BYTE   W23
 BYTE   EOT
 BYTE   W01
 BYTE   TIE  An2
 BYTE   W72
//  #10 //144   ----------------------------------------
 BYTE   W96
//  #10 //145   ----------------------------------------
 BYTE   W23
 BYTE   EOT
 BYTE   W01
 BYTE   TIE  Gn2
 BYTE   W72
//  #10 //146   ----------------------------------------
 BYTE   W96
//  #10 //147   ----------------------------------------
 BYTE   W23
 BYTE   EOT
 BYTE   W01
 BYTE   TIE  Fs2
 BYTE   W72
//  #10 //148   ----------------------------------------
 BYTE   W64
 BYTE   W01
 BYTE   EOT
 BYTE   W30
 BYTE   W01
//  #10 //149   ----------------------------------------
 BYTE   PATT
  POIN2 Label_0100A5A2
//  #10 //150   ----------------------------------------
 BYTE   W96
//  #10 //151   ----------------------------------------
 BYTE   W23
 BYTE   EOT
 BYTE   Bn2
 BYTE   W01
 BYTE   TIE  An2  v096
 BYTE   W72
//  #10 //152   ----------------------------------------
 BYTE   W96
//  #10 //153   ----------------------------------------
 BYTE   W23
 BYTE   EOT
 BYTE   W01
 BYTE   TIE  Gn2
 BYTE   W72
//  #10 //154   ----------------------------------------
 BYTE   W96
//  #10 //155   ----------------------------------------
 BYTE   W23
 BYTE   EOT
 BYTE   W01
 BYTE   TIE  Fs2
 BYTE   W72
//  #10 //156   ----------------------------------------
 BYTE   W68
 BYTE   W03
 BYTE   EOT
 BYTE   W01
 BYTE   N23  Dn3  v127
 BYTE   N23  Dn4
 BYTE   W24
//  #10 //157   ----------------------------------------
Label_0100A769:
 BYTE   N23  En3  v127
 BYTE   N23  En4
 BYTE   W24
 BYTE   N68  Fs3
 BYTE   N68  Fs4
 BYTE   W72
 BYTE   PEND 
//  #10 //158   ----------------------------------------
 BYTE   N11  En3
 BYTE   N11  En4
 BYTE   W12
 BYTE   N32  An3
 BYTE   N32  An4
 BYTE   W36
 BYTE   N23  Gn3
 BYTE   N23  Gn4
 BYTE   W24
 BYTE   Fs3
 BYTE   N23  Fs4
 BYTE   W24
//  #10 //159   ----------------------------------------
 BYTE   PATT
  POIN2 Label_0100A769
//  #10 //160   ----------------------------------------
 BYTE   N11  En3  v127
 BYTE   N11  En4
 BYTE   W12
 BYTE   N32  Fs3
 BYTE   N32  Fs4
 BYTE   W36
 BYTE   N23  An3
 BYTE   N23  An4
 BYTE   W24
 BYTE   Bn3
 BYTE   N23  Bn4
 BYTE   W24
//  #10 //161   ----------------------------------------
 BYTE   Cs4
 BYTE   N23  Cs5
 BYTE   W24
 BYTE   Cs4
 BYTE   N23  Cs5
 BYTE   W24
 BYTE   N11  Dn4
 BYTE   N11  Dn5
 BYTE   W12
 BYTE   TIE  Bn3
 BYTE   TIE  Bn4
 BYTE   W36
//  #10 //162   ----------------------------------------
 BYTE   W92
 BYTE   W03
 BYTE   EOT
 BYTE   Bn3  v083
 BYTE   W01
//  #10 //163   ----------------------------------------
 BYTE   N11  Fs3
 BYTE   N11  Fs4
 BYTE   W12
 BYTE   Bn3
 BYTE   N11  Bn4
 BYTE   W12
 BYTE   N23  Cs4
 BYTE   N23  Cs5
 BYTE   W24
 BYTE   N11  Dn4
 BYTE   N11  Dn5
 BYTE   W12
 BYTE   TIE  Bn3
 BYTE   TIE  Bn4
 BYTE   W36
//  #10 //164   ----------------------------------------
 BYTE   W68
 BYTE   W03
 BYTE   EOT
 BYTE   Bn3  v083
 BYTE   W01
 BYTE   N44  An3
 BYTE   N44  An4
 BYTE   W24
//  #10 //165   ----------------------------------------
 BYTE   W24
 BYTE   TIE  Bn3  v096
 BYTE   TIE  Bn4
 BYTE   W72
//  #10 //166   ----------------------------------------
 BYTE   W96
//  #10 //167   ----------------------------------------
 BYTE   W23
 BYTE   EOT
 BYTE   Bn3  v083
 BYTE   W01
 BYTE   TIE  An3
 BYTE   TIE  An4
 BYTE   W72
//  #10 //168   ----------------------------------------
 BYTE   W96
//  #10 //169   ----------------------------------------
 BYTE   W23
 BYTE   EOT
 BYTE   An3  v081
 BYTE   W01
 BYTE   TIE  Cs4
 BYTE   TIE  Cs5
 BYTE   W72
//  #10 //170   ----------------------------------------
 BYTE   W96
//  #10 //171   ----------------------------------------
 BYTE   W23
 BYTE   EOT
 BYTE   Cs4  v085
 BYTE   W01
 BYTE   TIE  Bn3
 BYTE   TIE  Bn4
 BYTE   W72
//  #10 //172   ----------------------------------------
 BYTE   W96
//  #10 //173   ----------------------------------------
 BYTE   W23
 BYTE   EOT
 BYTE   Bn3  v083
 BYTE   W72
 BYTE   W01
//  #10 //174   ----------------------------------------
 BYTE   W96
//  #10 //175   ----------------------------------------
 BYTE   W96
//  #10 //176   ----------------------------------------
 BYTE   W96
//  #10 //177   ----------------------------------------
 BYTE   W96
//  #10 //178   ----------------------------------------
 BYTE   W96
//  #10 //179   ----------------------------------------
 BYTE   W96
//  #10 //180   ----------------------------------------
 BYTE   W96
//  #10 //181   ----------------------------------------
 BYTE   W96
//  #10 //182   ----------------------------------------
 BYTE   GoTo
  POIN2 Label_0100A559
 BYTE   FINE

//**************** Track 11 (Midi-Chn.10) ****************//

TheWeightOfLife_011:
//  #11 //000   ----------------------------------------
 BYTE   KEYSH   TheWeightOfLife_key+0
 BYTE   VOICE   124
 BYTE   VOL   42*TheWeightOfLife_mvl/mxv
 BYTE   PAN   c_v+0
 BYTE   N02  Bn2  v036
 BYTE   W03
 BYTE   N02
 BYTE   W03
 BYTE   N02
 BYTE   W03
 BYTE   N02
 BYTE   W03
 BYTE   N02
 BYTE   W03
 BYTE   N02
 BYTE   W09
Label_0100AC56:
 BYTE   N23  Gn2  v064
 BYTE   N23  An2
 BYTE   W72
//  #11 //001   ----------------------------------------
 BYTE   W96
//  #11 //002   ----------------------------------------
 BYTE   W96
//  #11 //003   ----------------------------------------
 BYTE   W96
//  #11 //004   ----------------------------------------
 BYTE   W96
//  #11 //005   ----------------------------------------
 BYTE   W96
//  #11 //006   ----------------------------------------
 BYTE   W96
//  #11 //007   ----------------------------------------
 BYTE   W96
//  #11 //008   ----------------------------------------
 BYTE   W24
 BYTE   Cn1  v096
 BYTE   N05  Fn1
 BYTE   N05  En2
 BYTE   W06
 BYTE   N17  En1  v127
 BYTE   W18
 BYTE   N05  Cn1  v096
 BYTE   N05  En1  v127
 BYTE   W06
 BYTE   N11  Cn1  v096
 BYTE   N05  Fn1
 BYTE   W06
 BYTE   N05
 BYTE   W06
 BYTE   N05
 BYTE   W06
 BYTE   Dn1  v127
 BYTE   W06
 BYTE   En1  v096
 BYTE   W06
 BYTE   N05
 BYTE   W06
 BYTE   N05
 BYTE   W06
//  #11 //009   ----------------------------------------
 BYTE   Dn1  v127
 BYTE   W06
 BYTE   Fn1  v096
 BYTE   W06
 BYTE   N05
 BYTE   W06
 BYTE   N05
 BYTE   W06
 BYTE   N23  Cn1  v080
 BYTE   N23  Cs2  v072
 BYTE   W24
 BYTE   N11  Cn1  v080
 BYTE   W12
 BYTE   Fs1  v060
 BYTE   W12
 BYTE   Cn1  v080
 BYTE   W12
 BYTE   Fs1  v060
 BYTE   W12
//  #11 //010   ----------------------------------------
Label_0100ACA8:
 BYTE   N23  Cn1  v080
 BYTE   N23  Fs1  v060
 BYTE   W24
 BYTE   Cn1  v080
 BYTE   N23  Fs1  v060
 BYTE   W24
 BYTE   N11  Cn1  v080
 BYTE   W12
 BYTE   Fs1  v060
 BYTE   W12
 BYTE   Cn1  v080
 BYTE   W12
 BYTE   Fs1  v060
 BYTE   W12
 BYTE   PEND 
//  #11 //011   ----------------------------------------
 BYTE   PATT
  POIN2 Label_0100ACA8
//  #11 //012   ----------------------------------------
 BYTE   PATT
  POIN2 Label_0100ACA8
//  #11 //013   ----------------------------------------
 BYTE   N23  Cn1  v080
 BYTE   N23  Fs1  v060
 BYTE   W24
 BYTE   Cn1  v080
 BYTE   N23  Cs2  v072
 BYTE   W24
 BYTE   N11  Cn1  v084
 BYTE   W12
 BYTE   Fs1  v064
 BYTE   W12
 BYTE   Cn1  v088
 BYTE   W12
 BYTE   Fs1  v068
 BYTE   W12
//  #11 //014   ----------------------------------------
 BYTE   N23  Cn1  v088
 BYTE   N23  Fs1  v068
 BYTE   W24
 BYTE   Cn1  v092
 BYTE   N23  Fs1  v068
 BYTE   W24
 BYTE   N11  Cn1  v096
 BYTE   W12
 BYTE   Fs1  v072
 BYTE   W12
 BYTE   Cn1  v096
 BYTE   W12
 BYTE   Fs1  v076
 BYTE   W12
//  #11 //015   ----------------------------------------
 BYTE   N23  Cn1  v100
 BYTE   N23  Fs1  v076
 BYTE   W24
 BYTE   Cn1  v104
 BYTE   N23  Fs1  v076
 BYTE   W24
 BYTE   N11  Cn1  v104
 BYTE   W12
 BYTE   Fs1  v080
 BYTE   W12
 BYTE   Cn1  v108
 BYTE   W12
 BYTE   Fs1  v084
 BYTE   W12
//  #11 //016   ----------------------------------------
 BYTE   N23  Cn1  v112
 BYTE   N23  Fs1  v084
 BYTE   W24
 BYTE   Cn1  v112
 BYTE   N23  Fs1  v084
 BYTE   W24
 BYTE   N11  Cn1  v112
 BYTE   N11  Fs1  v084
 BYTE   W12
 BYTE   As1  v104
 BYTE   W24
 BYTE   Dn2  v112
 BYTE   W12
//  #11 //017   ----------------------------------------
 BYTE   Bn1
 BYTE   W24
 BYTE   N23  Cn1  v080
 BYTE   N23  An2  v072
 BYTE   W72
//  #11 //018   ----------------------------------------
 BYTE   W96
//  #11 //019   ----------------------------------------
 BYTE   W96
//  #11 //020   ----------------------------------------
 BYTE   W60
 BYTE   N11  Bn2  v052
 BYTE   W12
 BYTE   N11
 BYTE   W24
//  #11 //021   ----------------------------------------
 BYTE   W12
 BYTE   N11
 BYTE   W12
 BYTE   N11
 BYTE   W72
//  #11 //022   ----------------------------------------
 BYTE   W96
//  #11 //023   ----------------------------------------
 BYTE   W96
//  #11 //024   ----------------------------------------
 BYTE   W24
 BYTE   N11
 BYTE   W36
 BYTE   N11
 BYTE   W24
 BYTE   N11
 BYTE   W12
//  #11 //025   ----------------------------------------
 BYTE   N11
 BYTE   W96
//  #11 //026   ----------------------------------------
 BYTE   W96
//  #11 //027   ----------------------------------------
 BYTE   W96
//  #11 //028   ----------------------------------------
 BYTE   W96
//  #11 //029   ----------------------------------------
 BYTE   W96
//  #11 //030   ----------------------------------------
 BYTE   W96
//  #11 //031   ----------------------------------------
 BYTE   W96
//  #11 //032   ----------------------------------------
 BYTE   W96
//  #11 //033   ----------------------------------------
 BYTE   N23  Fn1  v080
 BYTE   W24
 BYTE   Cn1
 BYTE   N23  Gs1
 BYTE   N23  Cs2  v072
 BYTE   W24
 BYTE   N11  Cn1  v080
 BYTE   W12
 BYTE   Gs1
 BYTE   W12
 BYTE   Cn1
 BYTE   W24
//  #11 //034   ----------------------------------------
Label_0100AD71:
 BYTE   N23  Cn1  v080
 BYTE   N23  Gs1
 BYTE   W24
 BYTE   Cn1
 BYTE   N23  Gs1
 BYTE   W24
 BYTE   N11  Cn1
 BYTE   W12
 BYTE   Gs1
 BYTE   W12
 BYTE   Cn1
 BYTE   W24
 BYTE   PEND 
//  #11 //035   ----------------------------------------
 BYTE   PATT
  POIN2 Label_0100AD71
//  #11 //036   ----------------------------------------
 BYTE   PATT
  POIN2 Label_0100AD71
//  #11 //037   ----------------------------------------
 BYTE   PATT
  POIN2 Label_0100AD71
//  #11 //038   ----------------------------------------
 BYTE   PATT
  POIN2 Label_0100AD71
//  #11 //039   ----------------------------------------
 BYTE   PATT
  POIN2 Label_0100AD71
//  #11 //040   ----------------------------------------
 BYTE   N23  Cn1  v080
 BYTE   N23  Gs1
 BYTE   W24
 BYTE   Cn1
 BYTE   N23  Gs1
 BYTE   W24
 BYTE   Cn1
 BYTE   W12
 BYTE   N11  Gs1
 BYTE   W12
 BYTE   Cn1
 BYTE   W12
 BYTE   N05  Dn1
 BYTE   W06
 BYTE   N05
 BYTE   W06
//  #11 //041   ----------------------------------------
 BYTE   Cn1
 BYTE   N05  Dn1
 BYTE   N23  Gs1
 BYTE   W06
 BYTE   N05  Dn1
 BYTE   W06
 BYTE   N05
 BYTE   W06
 BYTE   N05
 BYTE   W06
 BYTE   N11  Cn1
 BYTE   N11  Fs1  v060
 BYTE   W12
 BYTE   Cn1  v080
 BYTE   W12
 BYTE   Dn1  v120
 BYTE   W12
 BYTE   Cn1  v080
 BYTE   N11  Fs1  v060
 BYTE   W36
//  #11 //042   ----------------------------------------
Label_0100ADD1:
 BYTE   N11  Cn1  v080
 BYTE   N11  Fs1  v060
 BYTE   W12
 BYTE   N11
 BYTE   W12
 BYTE   Cn1  v080
 BYTE   N11  Fs1  v092
 BYTE   W12
 BYTE   Fs1  v060
 BYTE   W12
 BYTE   N11
 BYTE   W12
 BYTE   Fs1  v092
 BYTE   W12
 BYTE   Cn1  v080
 BYTE   N11  Fs1  v060
 BYTE   W12
 BYTE   N11
 BYTE   W12
 BYTE   PEND 
//  #11 //043   ----------------------------------------
 BYTE   Cn1  v080
 BYTE   N11  Fs1  v092
 BYTE   W12
 BYTE   Fs1  v060
 BYTE   W12
 BYTE   Cn1  v080
 BYTE   N11  Fs1  v060
 BYTE   W12
 BYTE   Cn1  v080
 BYTE   W12
 BYTE   Dn1  v120
 BYTE   W12
 BYTE   Cn1  v080
 BYTE   N11  Fs1  v060
 BYTE   W36
//  #11 //044   ----------------------------------------
 BYTE   PATT
  POIN2 Label_0100ADD1
//  #11 //045   ----------------------------------------
 BYTE   N11  Cn1  v080
 BYTE   N11  Fs1  v092
 BYTE   W12
 BYTE   Fs1  v060
 BYTE   W12
 BYTE   Cn1  v080
 BYTE   N11  Fs1  v060
 BYTE   W12
 BYTE   Cn1  v080
 BYTE   W12
 BYTE   Dn1  v120
 BYTE   N11  Fs1  v092
 BYTE   W12
 BYTE   Cn1  v080
 BYTE   W12
 BYTE   Fs1  v060
 BYTE   W12
 BYTE   Cn1  v080
 BYTE   W12
//  #11 //046   ----------------------------------------
 BYTE   Dn1  v120
 BYTE   N11  Fs1  v092
 BYTE   W12
 BYTE   Cn1  v080
 BYTE   W12
 BYTE   N11
 BYTE   N11  Fs1  v060
 BYTE   W12
 BYTE   Cn1  v080
 BYTE   W12
 BYTE   Dn1  v120
 BYTE   N11  Fs1  v092
 BYTE   W12
 BYTE   Cn1  v080
 BYTE   W12
 BYTE   Fs1  v060
 BYTE   W12
 BYTE   Cn1  v080
 BYTE   W12
//  #11 //047   ----------------------------------------
 BYTE   Dn1  v120
 BYTE   N11  Fs1  v092
 BYTE   W24
 BYTE   N23  Cn1  v080
 BYTE   N23  An2  v072
 BYTE   W24
 BYTE   Cn1  v080
 BYTE   N23  Fs1  v060
 BYTE   W24
 BYTE   Cn1  v080
 BYTE   N23  Fs1  v060
 BYTE   W24
//  #11 //048   ----------------------------------------
 BYTE   Cn1  v080
 BYTE   N23  As1  v072
 BYTE   W24
 BYTE   N15  Cn1  v096
 BYTE   N15  As1  v088
 BYTE   W16
 BYTE   Cn1  v096
 BYTE   N15  As1  v088
 BYTE   W16
 BYTE   Cn1  v096
 BYTE   N15  As1  v088
 BYTE   W16
 BYTE   Dn1  v096
 BYTE   N15  As1  v088
 BYTE   W16
 BYTE   Cn1  v096
 BYTE   W08
//  #11 //049   ----------------------------------------
 BYTE   W08
 BYTE   N15
 BYTE   W16
 BYTE   N11
 BYTE   N11  Dn1
 BYTE   N11  Cs2  v088
 BYTE   W12
 BYTE   Dn1  v064
 BYTE   W12
 BYTE   Cn1
 BYTE   N11  Dn1
 BYTE   W12
 BYTE   Dn1  v096
 BYTE   W12
 BYTE   Cn1  v064
 BYTE   N11  Dn1
 BYTE   W12
 BYTE   N11
 BYTE   W12
//  #11 //050   ----------------------------------------
 BYTE   Cn1  v096
 BYTE   N11  Dn1
 BYTE   W12
 BYTE   Dn1  v064
 BYTE   W12
 BYTE   Cn1  v096
 BYTE   N11  Dn1
 BYTE   W12
 BYTE   Dn1  v068
 BYTE   W12
 BYTE   Cn1
 BYTE   N11  Dn1
 BYTE   W12
 BYTE   Dn1  v100
 BYTE   W12
 BYTE   Cn1  v068
 BYTE   N11  Dn1
 BYTE   W12
 BYTE   Dn1  v072
 BYTE   W12
//  #11 //051   ----------------------------------------
 BYTE   Cn1  v108
 BYTE   N11  Dn1
 BYTE   W12
 BYTE   Dn1  v072
 BYTE   N11  Cs2  v064
 BYTE   W12
 BYTE   Cn1  v108
 BYTE   N11  Dn1
 BYTE   W12
 BYTE   Dn1  v076
 BYTE   W12
 BYTE   Cn1
 BYTE   N11  Dn1
 BYTE   W12
 BYTE   Dn1  v112
 BYTE   W12
 BYTE   Cn1  v076
 BYTE   N11  Dn1
 BYTE   W12
 BYTE   Dn1  v080
 BYTE   W12
//  #11 //052   ----------------------------------------
 BYTE   Cn1  v120
 BYTE   N11  Dn1
 BYTE   W12
 BYTE   Dn1  v080
 BYTE   W12
 BYTE   Cn1  v120
 BYTE   N11  Dn1
 BYTE   N11  Fs1  v092
 BYTE   W12
 BYTE   Cn1  v120
 BYTE   N11  Dn1
 BYTE   N11  Fs1  v092
 BYTE   W60
//  #11 //053   ----------------------------------------
Label_0100AF02:
 BYTE   W24
 BYTE   N11  Cn1  v096
 BYTE   N11  Dn1
 BYTE   N11  Cs2  v088
 BYTE   W12
 BYTE   Fn1  v096
 BYTE   W12
 BYTE   N11
 BYTE   W12
 BYTE   Cn1
 BYTE   N11  Dn1
 BYTE   N11  Gs1  v072
 BYTE   W12
 BYTE   Fn1  v096
 BYTE   W12
 BYTE   N11
 BYTE   W12
 BYTE   PEND 
//  #11 //054   ----------------------------------------
Label_0100AF1E:
 BYTE   N11  Cn1  v096
 BYTE   N11  Dn1
 BYTE   N11  Gs1  v072
 BYTE   W12
 BYTE   Fn1  v096
 BYTE   W12
 BYTE   N11
 BYTE   W12
 BYTE   Cn1
 BYTE   N11  Dn1
 BYTE   N11  Gs1  v072
 BYTE   W12
 BYTE   Fn1  v096
 BYTE   W12
 BYTE   N11
 BYTE   W12
 BYTE   Cn1
 BYTE   N11  Dn1
 BYTE   N11  Gs1  v072
 BYTE   W12
 BYTE   N05  Fn1  v096
 BYTE   W06
 BYTE   N05
 BYTE   W06
 BYTE   PEND 
//  #11 //055   ----------------------------------------
Label_0100AF46:
 BYTE   N11  Cn1  v096
 BYTE   N11  Dn1
 BYTE   N11  Gs1  v072
 BYTE   W12
 BYTE   N05  Fn1  v096
 BYTE   W06
 BYTE   N05
 BYTE   W06
 BYTE   N11  Cn1
 BYTE   N11  Dn1
 BYTE   N11  Gs1  v072
 BYTE   W12
 BYTE   Fn1  v096
 BYTE   W12
 BYTE   N11
 BYTE   W12
 BYTE   Cn1
 BYTE   N11  Dn1
 BYTE   N11  Gs1  v072
 BYTE   W12
 BYTE   Fn1  v096
 BYTE   W12
 BYTE   N11
 BYTE   W12
 BYTE   PEND 
//  #11 //056   ----------------------------------------
 BYTE   PATT
  POIN2 Label_0100AF1E
//  #11 //057   ----------------------------------------
 BYTE   PATT
  POIN2 Label_0100AF46
//  #11 //058   ----------------------------------------
 BYTE   PATT
  POIN2 Label_0100AF1E
//  #11 //059   ----------------------------------------
 BYTE   PATT
  POIN2 Label_0100AF46
//  #11 //060   ----------------------------------------
Label_0100AF83:
 BYTE   N11  Cn1  v096
 BYTE   N11  Dn1
 BYTE   N11  Gs1  v072
 BYTE   W12
 BYTE   Fn1  v096
 BYTE   W12
 BYTE   N11
 BYTE   W12
 BYTE   Cn1
 BYTE   N11  Dn1
 BYTE   N11  Gs1  v072
 BYTE   W12
 BYTE   Fn1  v096
 BYTE   W12
 BYTE   N11
 BYTE   W12
 BYTE   Cn1
 BYTE   N11  Dn1
 BYTE   N11  As1  v088
 BYTE   W12
 BYTE   N05  Fn1  v096
 BYTE   W06
 BYTE   N05
 BYTE   W06
 BYTE   PEND 
//  #11 //061   ----------------------------------------
Label_0100AFAB:
 BYTE   N11  Cn1  v096
 BYTE   N11  Dn1
 BYTE   N11  As1  v088
 BYTE   W12
 BYTE   N05  Fn1  v096
 BYTE   W06
 BYTE   N05
 BYTE   W06
 BYTE   Dn1
 BYTE   N05  Fn1
 BYTE   N05  An2  v088
 BYTE   W06
 BYTE   Fn1  v096
 BYTE   W06
 BYTE   N11
 BYTE   W12
 BYTE   N11
 BYTE   W12
 BYTE   N05  Dn1
 BYTE   N05  Fn1
 BYTE   N05  Gs1  v072
 BYTE   W06
 BYTE   Fn1  v096
 BYTE   W06
 BYTE   N11
 BYTE   W12
 BYTE   N11
 BYTE   W12
 BYTE   PEND 
//  #11 //062   ----------------------------------------
Label_0100AFD8:
 BYTE   N05  Dn1  v096
 BYTE   N05  Fn1
 BYTE   N05  Gs1  v072
 BYTE   W06
 BYTE   Fn1  v096
 BYTE   W06
 BYTE   N05
 BYTE   W06
 BYTE   N05
 BYTE   W06
 BYTE   N11
 BYTE   W12
 BYTE   N05  Dn1
 BYTE   N05  Fn1
 BYTE   N05  Gs1  v072
 BYTE   W06
 BYTE   Fn1  v096
 BYTE   W06
 BYTE   N11
 BYTE   W12
 BYTE   N11
 BYTE   W12
 BYTE   N05  Dn1
 BYTE   N05  Gs1  v072
 BYTE   W06
 BYTE   Fn1  v096
 BYTE   W06
 BYTE   N05
 BYTE   W06
 BYTE   N05
 BYTE   W06
 BYTE   PEND 
//  #11 //063   ----------------------------------------
Label_0100B007:
 BYTE   N05  Dn1  v096
 BYTE   N05  Gs1  v072
 BYTE   W06
 BYTE   Fn1  v096
 BYTE   W06
 BYTE   N05
 BYTE   W06
 BYTE   N05
 BYTE   W06
 BYTE   Dn1
 BYTE   N05  Fn1
 BYTE   N05  Gs1  v072
 BYTE   W06
 BYTE   Fn1  v096
 BYTE   W06
 BYTE   N11
 BYTE   W12
 BYTE   N11
 BYTE   W12
 BYTE   N05  Dn1
 BYTE   N05  Fn1
 BYTE   N05  Gs1  v072
 BYTE   W06
 BYTE   Fn1  v096
 BYTE   W06
 BYTE   N11
 BYTE   W12
 BYTE   N11
 BYTE   W12
 BYTE   PEND 
//  #11 //064   ----------------------------------------
 BYTE   PATT
  POIN2 Label_0100AFD8
//  #11 //065   ----------------------------------------
 BYTE   PATT
  POIN2 Label_0100B007
//  #11 //066   ----------------------------------------
 BYTE   PATT
  POIN2 Label_0100AFD8
//  #11 //067   ----------------------------------------
 BYTE   N05  Dn1  v096
 BYTE   N05  Gs1  v072
 BYTE   W06
 BYTE   Fn1  v096
 BYTE   W06
 BYTE   N05
 BYTE   W06
 BYTE   N05
 BYTE   W06
 BYTE   N23  An2  v088
 BYTE   W72
//  #11 //068   ----------------------------------------
 BYTE   W96
//  #11 //069   ----------------------------------------
 BYTE   PATT
  POIN2 Label_0100AF02
//  #11 //070   ----------------------------------------
 BYTE   PATT
  POIN2 Label_0100AF1E
//  #11 //071   ----------------------------------------
 BYTE   PATT
  POIN2 Label_0100AF46
//  #11 //072   ----------------------------------------
 BYTE   PATT
  POIN2 Label_0100AF1E
//  #11 //073   ----------------------------------------
 BYTE   PATT
  POIN2 Label_0100AF46
//  #11 //074   ----------------------------------------
 BYTE   PATT
  POIN2 Label_0100AF1E
//  #11 //075   ----------------------------------------
 BYTE   PATT
  POIN2 Label_0100AF46
//  #11 //076   ----------------------------------------
 BYTE   PATT
  POIN2 Label_0100AF83
//  #11 //077   ----------------------------------------
 BYTE   PATT
  POIN2 Label_0100AFAB
//  #11 //078   ----------------------------------------
 BYTE   PATT
  POIN2 Label_0100AFD8
//  #11 //079   ----------------------------------------
 BYTE   PATT
  POIN2 Label_0100B007
//  #11 //080   ----------------------------------------
 BYTE   PATT
  POIN2 Label_0100AFD8
//  #11 //081   ----------------------------------------
Label_0100B091:
 BYTE   N05  Dn1  v096
 BYTE   N05  Gs1  v072
 BYTE   W06
 BYTE   Fn1  v096
 BYTE   W06
 BYTE   N05
 BYTE   W06
 BYTE   N05
 BYTE   W06
 BYTE   Dn1
 BYTE   N05  Fn1
 BYTE   N05  An2  v088
 BYTE   W06
 BYTE   Fn1  v096
 BYTE   W06
 BYTE   N11
 BYTE   W12
 BYTE   N11
 BYTE   W12
 BYTE   N05  Dn1
 BYTE   N05  Fn1
 BYTE   N05  Gs1  v072
 BYTE   W06
 BYTE   Fn1  v096
 BYTE   W06
 BYTE   N11
 BYTE   W12
 BYTE   N11
 BYTE   W12
 BYTE   PEND 
//  #11 //082   ----------------------------------------
 BYTE   PATT
  POIN2 Label_0100AFD8
//  #11 //083   ----------------------------------------
 BYTE   PATT
  POIN2 Label_0100B091
//  #11 //084   ----------------------------------------
 BYTE   PATT
  POIN2 Label_0100AFD8
//  #11 //085   ----------------------------------------
 BYTE   PATT
  POIN2 Label_0100B091
//  #11 //086   ----------------------------------------
 BYTE   PATT
  POIN2 Label_0100AFD8
//  #11 //087   ----------------------------------------
 BYTE   PATT
  POIN2 Label_0100B091
//  #11 //088   ----------------------------------------
 BYTE   PATT
  POIN2 Label_0100AFD8
//  #11 //089   ----------------------------------------
 BYTE   PATT
  POIN2 Label_0100B091
//  #11 //090   ----------------------------------------
 BYTE   PATT
  POIN2 Label_0100AFD8
//  #11 //091   ----------------------------------------
 BYTE   N05  Dn1  v096
 BYTE   N05  Gs1  v072
 BYTE   W06
 BYTE   Fn1  v096
 BYTE   W06
 BYTE   N05
 BYTE   W06
 BYTE   N05
 BYTE   W06
 BYTE   Dn1
 BYTE   N05  Fn1
 BYTE   N05  An2  v088
 BYTE   W06
 BYTE   Fn1  v096
 BYTE   W06
 BYTE   N11
 BYTE   W24
 BYTE   N05  Dn1
 BYTE   N05  Fn1
 BYTE   N05  Gs1  v072
 BYTE   W06
 BYTE   Fn1  v096
 BYTE   W06
 BYTE   N11
 BYTE   W24
//  #11 //092   ----------------------------------------
 BYTE   N05  Dn1
 BYTE   N05  Fn1
 BYTE   N05  Gs1  v072
 BYTE   W06
 BYTE   Fn1  v096
 BYTE   W06
 BYTE   N11
 BYTE   W24
 BYTE   N05  Dn1
 BYTE   N05  Fn1
 BYTE   N05  Gs1  v072
 BYTE   W06
 BYTE   Fn1  v096
 BYTE   W06
 BYTE   N11
 BYTE   W12
 BYTE   N11
 BYTE   W12
 BYTE   Dn1
 BYTE   N11  Gs1  v072
 BYTE   W12
 BYTE   Dn2  v096
 BYTE   W12
//  #11 //093   ----------------------------------------
 BYTE   Bn1  v088
 BYTE   W12
 BYTE   An1  v076
 BYTE   W12
 BYTE   An2  v088
 BYTE   W12
 BYTE   Fs1  v048
 BYTE   W12
 BYTE   N11
 BYTE   W12
 BYTE   N11
 BYTE   W24
 BYTE   N11
 BYTE   W12
//  #11 //094   ----------------------------------------
Label_0100B147:
 BYTE   N11  Fs1  v048
 BYTE   W12
 BYTE   N05
 BYTE   W06
 BYTE   N05
 BYTE   W06
 BYTE   N11
 BYTE   W12
 BYTE   N11
 BYTE   W12
 BYTE   N11
 BYTE   W12
 BYTE   N11
 BYTE   W24
 BYTE   N11
 BYTE   W12
 BYTE   PEND 
//  #11 //095   ----------------------------------------
 BYTE   PATT
  POIN2 Label_0100B147
//  #11 //096   ----------------------------------------
 BYTE   PATT
  POIN2 Label_0100B147
//  #11 //097   ----------------------------------------
 BYTE   PATT
  POIN2 Label_0100B147
//  #11 //098   ----------------------------------------
 BYTE   PATT
  POIN2 Label_0100B147
//  #11 //099   ----------------------------------------
 BYTE   PATT
  POIN2 Label_0100B147
//  #11 //100   ----------------------------------------
 BYTE   N11  Fs1  v048
 BYTE   W12
 BYTE   N05
 BYTE   W06
 BYTE   N05
 BYTE   W06
 BYTE   N11
 BYTE   W12
 BYTE   N11
 BYTE   W12
 BYTE   N11
 BYTE   W12
 BYTE   Dn1  v064
 BYTE   N11  Fs1  v048
 BYTE   W24
 BYTE   N11
 BYTE   W12
//  #11 //101   ----------------------------------------
 BYTE   PATT
  POIN2 Label_0100B147
//  #11 //102   ----------------------------------------
 BYTE   PATT
  POIN2 Label_0100B147
//  #11 //103   ----------------------------------------
 BYTE   PATT
  POIN2 Label_0100B147
//  #11 //104   ----------------------------------------
 BYTE   PATT
  POIN2 Label_0100B147
//  #11 //105   ----------------------------------------
 BYTE   PATT
  POIN2 Label_0100B147
//  #11 //106   ----------------------------------------
 BYTE   PATT
  POIN2 Label_0100B147
//  #11 //107   ----------------------------------------
 BYTE   PATT
  POIN2 Label_0100B147
//  #11 //108   ----------------------------------------
 BYTE   PATT
  POIN2 Label_0100B147
//  #11 //109   ----------------------------------------
 BYTE   N11  Fs1  v048
 BYTE   W12
 BYTE   N05
 BYTE   W06
 BYTE   N05
 BYTE   W06
 BYTE   N44  Gn2  v064
 BYTE   N44  An2
 BYTE   W72
//  #11 //110   ----------------------------------------
 BYTE   W96
//  #11 //111   ----------------------------------------
 BYTE   W96
//  #11 //112   ----------------------------------------
 BYTE   W96
//  #11 //113   ----------------------------------------
 BYTE   W96
//  #11 //114   ----------------------------------------
 BYTE   W96
//  #11 //115   ----------------------------------------
 BYTE   W96
//  #11 //116   ----------------------------------------
 BYTE   W96
//  #11 //117   ----------------------------------------
 BYTE   W96
//  #11 //118   ----------------------------------------
 BYTE   W96
//  #11 //119   ----------------------------------------
 BYTE   W96
//  #11 //120   ----------------------------------------
 BYTE   W96
//  #11 //121   ----------------------------------------
 BYTE   W96
//  #11 //122   ----------------------------------------
 BYTE   W96
//  #11 //123   ----------------------------------------
 BYTE   W96
//  #11 //124   ----------------------------------------
 BYTE   W96
//  #11 //125   ----------------------------------------
 BYTE   W96
//  #11 //126   ----------------------------------------
 BYTE   W96
//  #11 //127   ----------------------------------------
 BYTE   W96
//  #11 //128   ----------------------------------------
 BYTE   W96
//  #11 //129   ----------------------------------------
 BYTE   W96
//  #11 //130   ----------------------------------------
 BYTE   W96
//  #11 //131   ----------------------------------------
 BYTE   W96
//  #11 //132   ----------------------------------------
 BYTE   W96
//  #11 //133   ----------------------------------------
 BYTE   W24
 BYTE   N92  Gn2  v112
 BYTE   N92  An2
 BYTE   W72
//  #11 //134   ----------------------------------------
 BYTE   W96
//  #11 //135   ----------------------------------------
 BYTE   W96
//  #11 //136   ----------------------------------------
 BYTE   W96
//  #11 //137   ----------------------------------------
 BYTE   W96
//  #11 //138   ----------------------------------------
 BYTE   W96
//  #11 //139   ----------------------------------------
 BYTE   W96
//  #11 //140   ----------------------------------------
 BYTE   W72
 BYTE   N11  En1  v096
 BYTE   N11  Fn1
 BYTE   W12
 BYTE   En1
 BYTE   N11  Fn1
 BYTE   W12
//  #11 //141   ----------------------------------------
 BYTE   En1
 BYTE   N11  Fn1
 BYTE   W12
 BYTE   En1
 BYTE   N11  Fn1
 BYTE   W12
 BYTE   N05  Dn1
 BYTE   N05  Fn1
 BYTE   N05  An2  v088
 BYTE   W06
 BYTE   Fn1  v096
 BYTE   W06
 BYTE   N11
 BYTE   W12
 BYTE   N11
 BYTE   W12
 BYTE   N05  Dn1
 BYTE   N05  Fn1
 BYTE   N05  Gs1  v072
 BYTE   W06
 BYTE   Fn1  v096
 BYTE   W06
 BYTE   N11
 BYTE   W12
 BYTE   N11
 BYTE   W12
//  #11 //142   ----------------------------------------
 BYTE   PATT
  POIN2 Label_0100AFD8
//  #11 //143   ----------------------------------------
 BYTE   PATT
  POIN2 Label_0100B007
//  #11 //144   ----------------------------------------
 BYTE   PATT
  POIN2 Label_0100AFD8
//  #11 //145   ----------------------------------------
 BYTE   PATT
  POIN2 Label_0100B091
//  #11 //146   ----------------------------------------
 BYTE   PATT
  POIN2 Label_0100AFD8
//  #11 //147   ----------------------------------------
 BYTE   PATT
  POIN2 Label_0100B091
//  #11 //148   ----------------------------------------
 BYTE   N05  Dn1  v096
 BYTE   N05  Fn1
 BYTE   N05  Gs1  v072
 BYTE   W06
 BYTE   Fn1  v096
 BYTE   W06
 BYTE   N05
 BYTE   W06
 BYTE   N05
 BYTE   W06
 BYTE   N23  Gn2
 BYTE   N23  An2  v088
 BYTE   W72
//  #11 //149   ----------------------------------------
 BYTE   PATT
  POIN2 Label_0100AF02
//  #11 //150   ----------------------------------------
 BYTE   PATT
  POIN2 Label_0100AF1E
//  #11 //151   ----------------------------------------
 BYTE   PATT
  POIN2 Label_0100AF46
//  #11 //152   ----------------------------------------
 BYTE   PATT
  POIN2 Label_0100AF1E
//  #11 //153   ----------------------------------------
 BYTE   PATT
  POIN2 Label_0100AF46
//  #11 //154   ----------------------------------------
 BYTE   PATT
  POIN2 Label_0100AF1E
//  #11 //155   ----------------------------------------
 BYTE   PATT
  POIN2 Label_0100AF46
//  #11 //156   ----------------------------------------
 BYTE   PATT
  POIN2 Label_0100AF83
//  #11 //157   ----------------------------------------
 BYTE   PATT
  POIN2 Label_0100AFAB
//  #11 //158   ----------------------------------------
 BYTE   PATT
  POIN2 Label_0100AFD8
//  #11 //159   ----------------------------------------
 BYTE   PATT
  POIN2 Label_0100B007
//  #11 //160   ----------------------------------------
 BYTE   PATT
  POIN2 Label_0100AFD8
//  #11 //161   ----------------------------------------
 BYTE   PATT
  POIN2 Label_0100B091
//  #11 //162   ----------------------------------------
 BYTE   PATT
  POIN2 Label_0100AFD8
//  #11 //163   ----------------------------------------
 BYTE   PATT
  POIN2 Label_0100B091
//  #11 //164   ----------------------------------------
 BYTE   PATT
  POIN2 Label_0100AFD8
//  #11 //165   ----------------------------------------
 BYTE   PATT
  POIN2 Label_0100B091
//  #11 //166   ----------------------------------------
 BYTE   PATT
  POIN2 Label_0100AFD8
//  #11 //167   ----------------------------------------
 BYTE   PATT
  POIN2 Label_0100B091
//  #11 //168   ----------------------------------------
 BYTE   PATT
  POIN2 Label_0100AFD8
//  #11 //169   ----------------------------------------
 BYTE   PATT
  POIN2 Label_0100B091
//  #11 //170   ----------------------------------------
 BYTE   PATT
  POIN2 Label_0100AFD8
//  #11 //171   ----------------------------------------
 BYTE   PATT
  POIN2 Label_0100B091
//  #11 //172   ----------------------------------------
 BYTE   PATT
  POIN2 Label_0100AFD8
//  #11 //173   ----------------------------------------
 BYTE   PATT
  POIN2 Label_0100B091
//  #11 //174   ----------------------------------------
 BYTE   PATT
  POIN2 Label_0100AFD8
//  #11 //175   ----------------------------------------
 BYTE   PATT
  POIN2 Label_0100B091
//  #11 //176   ----------------------------------------
 BYTE   N05  Dn1  v096
 BYTE   N05  Fn1
 BYTE   N05  Gs1  v072
 BYTE   W06
 BYTE   Fn1  v096
 BYTE   W06
 BYTE   N05
 BYTE   W06
 BYTE   N05
 BYTE   W06
 BYTE   N11
 BYTE   W12
 BYTE   N05  Dn1
 BYTE   N05  Fn1
 BYTE   N05  Gs1  v072
 BYTE   W06
 BYTE   Fn1  v096
 BYTE   W06
 BYTE   N11
 BYTE   W12
 BYTE   N11
 BYTE   W12
 BYTE   En1
 BYTE   N11  Fn1
 BYTE   W12
 BYTE   En1
 BYTE   N11  Fn1
 BYTE   W12
//  #11 //177   ----------------------------------------
 BYTE   En1
 BYTE   N11  Fn1
 BYTE   W12
 BYTE   En1
 BYTE   N11  Fn1
 BYTE   W84
//  #11 //178   ----------------------------------------
 BYTE   W24
 BYTE   TIE  Dn1
 BYTE   TIE  Fn1
 BYTE   TIE  Gs1  v072
 BYTE   TIE  As1  v096
 BYTE   TIE  An2
 BYTE   W72
//  #11 //179   ----------------------------------------
 BYTE   W96
//  #11 //180   ----------------------------------------
 BYTE   W96
//  #11 //181   ----------------------------------------
 BYTE   W23
 BYTE   EOT
 BYTE   Dn1  v041
 BYTE   Gs1  v046
 BYTE   An2
 BYTE   W72
 BYTE   W01
//  #11 //182   ----------------------------------------
 BYTE   GoTo
  POIN2 Label_0100AC56
 BYTE   FINE

//******************************************************//
	ALIGN 4

TheWeightOfLife:
	BYTE	11	// NumTrks
	BYTE	0	// NumBlks
	BYTE	TheWeightOfLife_pri	// Priority
	BYTE	TheWeightOfLife_rev	// Reverb.
    
	POIN2	TheWeightOfLife_grp
    
	POIN2	TheWeightOfLife_001
	POIN2	TheWeightOfLife_002
	POIN2	TheWeightOfLife_003
	POIN2	TheWeightOfLife_004
	POIN2	TheWeightOfLife_005
	POIN2	TheWeightOfLife_006
	POIN2	TheWeightOfLife_007
	POIN2	TheWeightOfLife_008
	POIN2	TheWeightOfLife_009
	POIN2	TheWeightOfLife_010
	POIN2	TheWeightOfLife_011

	
