//Event file generated from Sappy .s format.
	#include "MPlayDef.event"

	#define	ThraciaAdvance_grp  voicegroup000
	#define	ThraciaAdvance_pri  0
	#define	ThraciaAdvance_rev  0
	#define	ThraciaAdvance_mvl  127
	#define	ThraciaAdvance_key  0
	#define	ThraciaAdvance_tbs  1
	#define	ThraciaAdvance_exg  0
	#define	ThraciaAdvance_cmp  1

	// .rodata
	//	ThraciaAdvance
	ALIGN 4


//**************** Track 1 (Midi-Chn.0) ****************//

ThraciaAdvance_001:
//  #01 //000   ----------------------------------------
 BYTE   KEYSH   ThraciaAdvance_key+0
Label_F8BBEE:
 BYTE   TEMPO   122*ThraciaAdvance_tbs/2
 BYTE   VOICE   48
 BYTE   VOL   72*ThraciaAdvance_mvl/mxv
 BYTE   W96
//  #01 //001   ----------------------------------------
Label_F8BBF5:
 BYTE   N08  An2  v100
 BYTE   W08
 BYTE   Dn3
 BYTE   W08
 BYTE   En3
 BYTE   W08
 BYTE   N24  Gn3
 BYTE   W24
 BYTE   N08  Fs3
 BYTE   W08
 BYTE   Gn3
 BYTE   W08
 BYTE   Fs3
 BYTE   W08
 BYTE   N24  En3
 BYTE   W24
 BYTE   PEND 
//  #01 //002   ----------------------------------------
 BYTE   N08  Dn3
 BYTE   W08
 BYTE   En3
 BYTE   W08
 BYTE   Fs3
 BYTE   W08
 BYTE   N48  En3
 BYTE   W72
//  #01 //003   ----------------------------------------
 BYTE   PATT
  POIN2 Label_F8BBF5
//  #01 //004   ----------------------------------------
 BYTE   N08  Dn3  v100
 BYTE   W08
 BYTE   En3
 BYTE   W08
 BYTE   N56  Bn3
 BYTE   W80
//  #01 //005   ----------------------------------------
 BYTE   N08  An3
 BYTE   W16
 BYTE   Gn3
 BYTE   W08
 BYTE   N72  An3
 BYTE   W72
//  #01 //006   ----------------------------------------
 BYTE   W24
 BYTE   N08
 BYTE   W16
 BYTE   Gn3
 BYTE   W08
 BYTE   N24  An3
 BYTE   W24
 BYTE   N08
 BYTE   W16
 BYTE   Gn3
 BYTE   W08
//  #01 //007   ----------------------------------------
 BYTE   N72  An3
 BYTE   W88
 BYTE   N08  Fs3
 BYTE   W08
//  #01 //008   ----------------------------------------
 BYTE   N72  En3
 BYTE   W96
//  #01 //009   ----------------------------------------
 BYTE   N36  Gn2
 BYTE   W48
 BYTE   N72  Fn2
 BYTE   W48
//  #01 //010   ----------------------------------------
 BYTE   W48
 BYTE   N36  En2
 BYTE   W48
//  #01 //011   ----------------------------------------
 BYTE   N72  Ds2
 BYTE   W96
//  #01 //012   ----------------------------------------
 BYTE   W96
//  #01 //013   ----------------------------------------
 BYTE   W96
//  #01 //014   ----------------------------------------
 BYTE   W96
//  #01 //015   ----------------------------------------
 BYTE   W96
//  #01 //016   ----------------------------------------
 BYTE   W96
//  #01 //017   ----------------------------------------
 BYTE   W96
//  #01 //018   ----------------------------------------
 BYTE   W96
//  #01 //019   ----------------------------------------
Label_F8BC54:
 BYTE   W48
 BYTE   N08  An2  v100
 BYTE   W08
 BYTE   Dn3
 BYTE   W08
 BYTE   En3
 BYTE   W08
 BYTE   N24  Gn3
 BYTE   W24
 BYTE   PEND 
//  #01 //020   ----------------------------------------
 BYTE   N08  Fs3
 BYTE   W08
 BYTE   Gn3
 BYTE   W08
 BYTE   Fs3
 BYTE   W08
 BYTE   N24  En3
 BYTE   W24
 BYTE   N08  Dn3
 BYTE   W08
 BYTE   En3
 BYTE   W08
 BYTE   Fs3
 BYTE   W08
 BYTE   N48  En3
 BYTE   W24
//  #01 //021   ----------------------------------------
 BYTE   PATT
  POIN2 Label_F8BC54
//  #01 //022   ----------------------------------------
 BYTE   N08  Fs3  v100
 BYTE   W08
 BYTE   Gn3
 BYTE   W08
 BYTE   Fs3
 BYTE   W08
 BYTE   N24  En3
 BYTE   W24
 BYTE   N08  Dn3
 BYTE   W08
 BYTE   En3
 BYTE   W08
 BYTE   N56  Bn3
 BYTE   W32
//  #01 //023   ----------------------------------------
 BYTE   W48
 BYTE   N08  An3
 BYTE   W16
 BYTE   Gn3
 BYTE   W08
 BYTE   N72  An3
 BYTE   W24
//  #01 //024   ----------------------------------------
 BYTE   W72
 BYTE   N08
 BYTE   W16
 BYTE   Gn3
 BYTE   W08
//  #01 //025   ----------------------------------------
 BYTE   N24  An3
 BYTE   W24
 BYTE   N08
 BYTE   W16
 BYTE   Gn3
 BYTE   W08
 BYTE   N72  An3
 BYTE   W48
//  #01 //026   ----------------------------------------
 BYTE   W40
 BYTE   N08  Fs3
 BYTE   W08
 BYTE   N72  En3
 BYTE   W48
//  #01 //027   ----------------------------------------
 BYTE   W48
 BYTE   N36  Gn2
 BYTE   W48
//  #01 //028   ----------------------------------------
 BYTE   N72  Fn2
 BYTE   W96
//  #01 //029   ----------------------------------------
 BYTE   N36  En2
 BYTE   W48
 BYTE   N72  Ds2
 BYTE   W48
//  #01 //030   ----------------------------------------
 BYTE   W96
//  #01 //031   ----------------------------------------
 BYTE   W96
//  #01 //032   ----------------------------------------
 BYTE   W96
//  #01 //033   ----------------------------------------
 BYTE   W96
//  #01 //034   ----------------------------------------
 BYTE   W96
//  #01 //035   ----------------------------------------
 BYTE   W96
//  #01 //036   ----------------------------------------
 BYTE   W92
 BYTE   W03
 BYTE   GoTo
  POIN2 Label_F8BBEE
//  #01 //037   ----------------------------------------
 BYTE   W01
 BYTE   FINE

//**************** Track 2 (Midi-Chn.1) ****************//

ThraciaAdvance_002:
//  #02 //000   ----------------------------------------
 BYTE   KEYSH   ThraciaAdvance_key+0
Label_F8B782:
 BYTE   VOICE   71
 BYTE   VOL   57*ThraciaAdvance_mvl/mxv
 BYTE   W96
//  #02 //001   ----------------------------------------
 BYTE   W96
//  #02 //002   ----------------------------------------
 BYTE   W96
//  #02 //003   ----------------------------------------
 BYTE   W96
//  #02 //004   ----------------------------------------
 BYTE   W48
 BYTE   N08  Dn3  v100
 BYTE   W08
 BYTE   En3
 BYTE   W08
 BYTE   N32  Bn3
 BYTE   W32
//  #02 //005   ----------------------------------------
 BYTE   W96
//  #02 //006   ----------------------------------------
 BYTE   W96
//  #02 //007   ----------------------------------------
 BYTE   W96
//  #02 //008   ----------------------------------------
 BYTE   W54
 BYTE   N06  An2
 BYTE   W06
 BYTE   Bn2
 BYTE   W06
 BYTE   Cs3
 BYTE   W06
 BYTE   Dn3
 BYTE   W06
 BYTE   En3
 BYTE   W06
 BYTE   Fs3
 BYTE   W06
 BYTE   Gn3
 BYTE   W06
//  #02 //009   ----------------------------------------
 BYTE   W96
//  #02 //010   ----------------------------------------
 BYTE   W96
//  #02 //011   ----------------------------------------
 BYTE   W96
//  #02 //012   ----------------------------------------
 BYTE   W96
//  #02 //013   ----------------------------------------
 BYTE   W96
//  #02 //014   ----------------------------------------
 BYTE   W96
//  #02 //015   ----------------------------------------
 BYTE   W96
//  #02 //016   ----------------------------------------
 BYTE   W96
//  #02 //017   ----------------------------------------
 BYTE   W96
//  #02 //018   ----------------------------------------
 BYTE   W48
 BYTE   VOL   57*ThraciaAdvance_mvl/mxv
 BYTE   W48
//  #02 //019   ----------------------------------------
 BYTE   W96
//  #02 //020   ----------------------------------------
 BYTE   W96
//  #02 //021   ----------------------------------------
 BYTE   W96
//  #02 //022   ----------------------------------------
 BYTE   W96
//  #02 //023   ----------------------------------------
 BYTE   N08  Dn3
 BYTE   W08
 BYTE   En3
 BYTE   W08
 BYTE   N32  Bn3
 BYTE   W80
//  #02 //024   ----------------------------------------
 BYTE   W96
//  #02 //025   ----------------------------------------
 BYTE   W96
//  #02 //026   ----------------------------------------
 BYTE   W96
//  #02 //027   ----------------------------------------
 BYTE   W06
 BYTE   N06  An2
 BYTE   W06
 BYTE   Bn2
 BYTE   W06
 BYTE   Cs3
 BYTE   W06
 BYTE   Dn3
 BYTE   W06
 BYTE   En3
 BYTE   W06
 BYTE   Fs3
 BYTE   W06
 BYTE   Gn3
 BYTE   W54
//  #02 //028   ----------------------------------------
 BYTE   W96
//  #02 //029   ----------------------------------------
 BYTE   W96
//  #02 //030   ----------------------------------------
 BYTE   W96
//  #02 //031   ----------------------------------------
 BYTE   W96
//  #02 //032   ----------------------------------------
 BYTE   W96
//  #02 //033   ----------------------------------------
 BYTE   W96
//  #02 //034   ----------------------------------------
 BYTE   W96
//  #02 //035   ----------------------------------------
 BYTE   W96
//  #02 //036   ----------------------------------------
 BYTE   W92
 BYTE   W03
 BYTE   GoTo
  POIN2 Label_F8B782
//  #02 //037   ----------------------------------------
 BYTE   W01
 BYTE   FINE

//**************** Track 3 (Midi-Chn.2) ****************//

ThraciaAdvance_003:
//  #03 //000   ----------------------------------------
 BYTE   KEYSH   ThraciaAdvance_key+0
Label_01005EFE:
 BYTE   VOICE   48
 BYTE   VOL   68*ThraciaAdvance_mvl/mxv
 BYTE   W96
//  #03 //001   ----------------------------------------
 BYTE   W96
//  #03 //002   ----------------------------------------
 BYTE   W96
//  #03 //003   ----------------------------------------
 BYTE   W96
//  #03 //004   ----------------------------------------
 BYTE   W96
//  #03 //005   ----------------------------------------
 BYTE   W96
//  #03 //006   ----------------------------------------
 BYTE   W96
//  #03 //007   ----------------------------------------
 BYTE   W96
//  #03 //008   ----------------------------------------
 BYTE   W96
//  #03 //009   ----------------------------------------
 BYTE   N08  Dn3  v100
 BYTE   W08
 BYTE   N08
 BYTE   W08
 BYTE   N20
 BYTE   W32
 BYTE   N08
 BYTE   W16
 BYTE   N08
 BYTE   W08
 BYTE   N48
 BYTE   W24
//  #03 //010   ----------------------------------------
 BYTE   W48
 BYTE   N08  Gn3
 BYTE   W16
 BYTE   N20
 BYTE   W32
//  #03 //011   ----------------------------------------
 BYTE   N08
 BYTE   W16
 BYTE   N08
 BYTE   W08
 BYTE   N72
 BYTE   W72
//  #03 //012   ----------------------------------------
 BYTE   W44
 BYTE   W03
 BYTE   N32  An3
 BYTE   W32
 BYTE   N08  Gn3
 BYTE   W08
 BYTE   N08
 BYTE   W09
//  #03 //013   ----------------------------------------
 BYTE   N32
 BYTE   W32
 BYTE   N08  Fn3
 BYTE   W16
 BYTE   N32
 BYTE   W32
 BYTE   N08
 BYTE   W08
 BYTE   N08
 BYTE   W08
//  #03 //014   ----------------------------------------
 BYTE   N12
 BYTE   W24
 BYTE   N12
 BYTE   W24
 BYTE   N48  Cn3
 BYTE   W48
//  #03 //015   ----------------------------------------
 BYTE   N24
 BYTE   W24
 BYTE   N16  En3
 BYTE   W16
 BYTE   N08  Cn3
 BYTE   W08
 BYTE   N24  Dn3
 BYTE   W24
 BYTE   N08  An2
 BYTE   W08
 BYTE   Dn3
 BYTE   W08
 BYTE   Fs3
 BYTE   W08
//  #03 //016   ----------------------------------------
 BYTE   N36  An3
 BYTE   W48
 BYTE   N24  Dn3
 BYTE   W40
 BYTE   N08  Gn2
 BYTE   W08
//  #03 //017   ----------------------------------------
 BYTE   N24  En3  v060
 BYTE   W24
 BYTE   Cn3  v100
 BYTE   W24
 BYTE   N16  Dn3
 BYTE   W16
 BYTE   N08  En3
 BYTE   W08
 BYTE   N48  Fs3
 BYTE   W24
//  #03 //018   ----------------------------------------
 BYTE   W48
 BYTE   VOL   68*ThraciaAdvance_mvl/mxv
 BYTE   W48
//  #03 //019   ----------------------------------------
 BYTE   W96
//  #03 //020   ----------------------------------------
 BYTE   W96
//  #03 //021   ----------------------------------------
 BYTE   W96
//  #03 //022   ----------------------------------------
 BYTE   W96
//  #03 //023   ----------------------------------------
 BYTE   W96
//  #03 //024   ----------------------------------------
 BYTE   W96
//  #03 //025   ----------------------------------------
 BYTE   W96
//  #03 //026   ----------------------------------------
 BYTE   W96
//  #03 //027   ----------------------------------------
 BYTE   W48
 BYTE   N08  Dn3
 BYTE   W08
 BYTE   N08
 BYTE   W08
 BYTE   N20
 BYTE   W32
//  #03 //028   ----------------------------------------
 BYTE   N08
 BYTE   W16
 BYTE   N08
 BYTE   W08
 BYTE   N48
 BYTE   W72
//  #03 //029   ----------------------------------------
 BYTE   N08  Gn3
 BYTE   W16
 BYTE   N20
 BYTE   W32
 BYTE   N08
 BYTE   W16
 BYTE   N08
 BYTE   W08
 BYTE   N72
 BYTE   W24
//  #03 //030   ----------------------------------------
 BYTE   W92
 BYTE   W03
 BYTE   N32  An3
 BYTE   W01
//  #03 //031   ----------------------------------------
 BYTE   W30
 BYTE   W01
 BYTE   N08  Gn3
 BYTE   W08
 BYTE   N08
 BYTE   W09
 BYTE   N32
 BYTE   W32
 BYTE   N08  Fn3
 BYTE   W16
//  #03 //032   ----------------------------------------
 BYTE   N32
 BYTE   W32
 BYTE   N08
 BYTE   W08
 BYTE   N08
 BYTE   W08
 BYTE   N12
 BYTE   W24
 BYTE   N12
 BYTE   W24
//  #03 //033   ----------------------------------------
 BYTE   N48  Cn3
 BYTE   W48
 BYTE   N24
 BYTE   W24
 BYTE   N16  En3
 BYTE   W16
 BYTE   N08  Cn3
 BYTE   W08
//  #03 //034   ----------------------------------------
 BYTE   N24  Dn3
 BYTE   W24
 BYTE   N08  An2
 BYTE   W08
 BYTE   Dn3
 BYTE   W08
 BYTE   Fs3
 BYTE   W08
 BYTE   N36  An3
 BYTE   W48
//  #03 //035   ----------------------------------------
 BYTE   N24  Dn3
 BYTE   W40
 BYTE   N08  Gn2
 BYTE   W08
 BYTE   N24  En3  v060
 BYTE   W24
 BYTE   Cn3  v100
 BYTE   W24
//  #03 //036   ----------------------------------------
 BYTE   N16  Dn3
 BYTE   W16
 BYTE   N08  En3
 BYTE   W08
 BYTE   N48  Fs3
 BYTE   W68
 BYTE   W03
 BYTE   GoTo
  POIN2 Label_01005EFE
//  #03 //037   ----------------------------------------
 BYTE   W01
 BYTE   FINE

//**************** Track 4 (Midi-Chn.3) ****************//

ThraciaAdvance_004:
//  #04 //000   ----------------------------------------
 BYTE   KEYSH   ThraciaAdvance_key+0
Label_F8B7E6:
 BYTE   VOICE   57
 BYTE   VOL   60*ThraciaAdvance_mvl/mxv
 BYTE   W48
 BYTE   TIE  Dn3  v100
 BYTE   W48
//  #04 //001   ----------------------------------------
 BYTE   W96
//  #04 //002   ----------------------------------------
 BYTE   EOT
Label_F8B7F1:
 BYTE   W72
 BYTE   N06  Dn3  v100
 BYTE   W18
 BYTE   N06
 BYTE   W06
 BYTE   PEND 
//  #04 //003   ----------------------------------------
 BYTE   N96
 BYTE   W96
//  #04 //004   ----------------------------------------
 BYTE   PATT
  POIN2 Label_F8B7F1
//  #04 //005   ----------------------------------------
 BYTE   N96  Dn3  v100
 BYTE   W96
//  #04 //006   ----------------------------------------
 BYTE   W96
//  #04 //007   ----------------------------------------
 BYTE   TIE
 BYTE   W96
//  #04 //008   ----------------------------------------
 BYTE   W24
 BYTE   EOT
 BYTE   W18
 BYTE   N06
 BYTE   W06
 BYTE   N48  Cs3
 BYTE   W48
//  #04 //009   ----------------------------------------
 BYTE   W96
//  #04 //010   ----------------------------------------
 BYTE   W96
//  #04 //011   ----------------------------------------
 BYTE   W96
//  #04 //012   ----------------------------------------
 BYTE   W96
//  #04 //013   ----------------------------------------
 BYTE   W96
//  #04 //014   ----------------------------------------
 BYTE   W96
//  #04 //015   ----------------------------------------
 BYTE   W96
//  #04 //016   ----------------------------------------
 BYTE   W96
//  #04 //017   ----------------------------------------
 BYTE   W96
//  #04 //018   ----------------------------------------
 BYTE   W96
//  #04 //019   ----------------------------------------
 BYTE   TIE  Dn3
 BYTE   W96
//  #04 //020   ----------------------------------------
 BYTE   W48
 BYTE   EOT
 BYTE   W48
//  #04 //021   ----------------------------------------
Label_F8B81F:
 BYTE   W24
 BYTE   N06  Dn3  v100
 BYTE   W18
 BYTE   N06
 BYTE   W06
 BYTE   N96
 BYTE   W48
 BYTE   PEND 
//  #04 //022   ----------------------------------------
 BYTE   W96
//  #04 //023   ----------------------------------------
 BYTE   PATT
  POIN2 Label_F8B81F
//  #04 //024   ----------------------------------------
 BYTE   W96
//  #04 //025   ----------------------------------------
 BYTE   W48
 BYTE   TIE  Dn3  v100
 BYTE   W48
//  #04 //026   ----------------------------------------
 BYTE   W72
 BYTE   EOT
 BYTE   W18
 BYTE   N06
 BYTE   W06
//  #04 //027   ----------------------------------------
 BYTE   N48  Cs3
 BYTE   W96
//  #04 //028   ----------------------------------------
 BYTE   W96
//  #04 //029   ----------------------------------------
 BYTE   W96
//  #04 //030   ----------------------------------------
 BYTE   W96
//  #04 //031   ----------------------------------------
 BYTE   W96
//  #04 //032   ----------------------------------------
 BYTE   W96
//  #04 //033   ----------------------------------------
 BYTE   W96
//  #04 //034   ----------------------------------------
 BYTE   W96
//  #04 //035   ----------------------------------------
 BYTE   W96
//  #04 //036   ----------------------------------------
 BYTE   W92
 BYTE   W03
 BYTE   GoTo
  POIN2 Label_F8B7E6
//  #04 //037   ----------------------------------------
 BYTE   W01
 BYTE   FINE

//**************** Track 5 (Midi-Chn.4) ****************//

ThraciaAdvance_005:
//  #05 //000   ----------------------------------------
 BYTE   KEYSH   ThraciaAdvance_key+0
Label_01004D22:
 BYTE   VOICE   48
 BYTE   VOL   68*ThraciaAdvance_mvl/mxv
 BYTE   W96
//  #05 //001   ----------------------------------------
 BYTE   W96
//  #05 //002   ----------------------------------------
 BYTE   W96
//  #05 //003   ----------------------------------------
 BYTE   W96
//  #05 //004   ----------------------------------------
 BYTE   W96
//  #05 //005   ----------------------------------------
 BYTE   W96
//  #05 //006   ----------------------------------------
 BYTE   W96
//  #05 //007   ----------------------------------------
 BYTE   W96
//  #05 //008   ----------------------------------------
 BYTE   W96
//  #05 //009   ----------------------------------------
 BYTE   N08  An3  v100
 BYTE   W08
 BYTE   Bn3
 BYTE   W08
 BYTE   N20  Gn3
 BYTE   W32
 BYTE   N08
 BYTE   W16
 BYTE   N08
 BYTE   W08
 BYTE   N48  Dn4
 BYTE   W24
//  #05 //010   ----------------------------------------
 BYTE   W48
 BYTE   N08
 BYTE   W08
 BYTE   En4
 BYTE   W08
 BYTE   N20  Cn4
 BYTE   W32
//  #05 //011   ----------------------------------------
 BYTE   N08
 BYTE   W16
 BYTE   As3
 BYTE   W08
 BYTE   N72  Fn4
 BYTE   W72
//  #05 //012   ----------------------------------------
 BYTE   W48
 BYTE   N32
 BYTE   W32
 BYTE   N08  En4
 BYTE   W08
 BYTE   N08
 BYTE   W08
//  #05 //013   ----------------------------------------
 BYTE   N32
 BYTE   W32
 BYTE   N08  Dn4
 BYTE   W16
 BYTE   N32
 BYTE   W32
 BYTE   N08  Cn4
 BYTE   W08
 BYTE   N08
 BYTE   W08
//  #05 //014   ----------------------------------------
 BYTE   N12
 BYTE   W24
 BYTE   Dn4
 BYTE   W24
 BYTE   N36  En3
 BYTE   W36
 BYTE   N06  Cn3
 BYTE   W06
 BYTE   Dn3
 BYTE   W06
//  #05 //015   ----------------------------------------
 BYTE   N24  En3
 BYTE   W24
 BYTE   N16  Gn3
 BYTE   W16
 BYTE   N08  En3
 BYTE   W08
 BYTE   N72  Fs3
 BYTE   W48
//  #05 //016   ----------------------------------------
 BYTE   W48
 BYTE   N36  En3
 BYTE   W36
 BYTE   N06  Cn3
 BYTE   W06
 BYTE   Dn3
 BYTE   W06
//  #05 //017   ----------------------------------------
 BYTE   N24  En3
 BYTE   W24
 BYTE   N16  Gn3
 BYTE   W16
 BYTE   N08  En3
 BYTE   W08
 BYTE   N17  Fs3
 BYTE   W17
 BYTE   N08  Gn3
 BYTE   W08
 BYTE   N48  An3
 BYTE   W23
//  #05 //018   ----------------------------------------
 BYTE   W48
 BYTE   W01
 BYTE   VOL   68*ThraciaAdvance_mvl/mxv
 BYTE   W44
 BYTE   W03
//  #05 //019   ----------------------------------------
 BYTE   W96
//  #05 //020   ----------------------------------------
 BYTE   W96
//  #05 //021   ----------------------------------------
 BYTE   W96
//  #05 //022   ----------------------------------------
 BYTE   W96
//  #05 //023   ----------------------------------------
 BYTE   W96
//  #05 //024   ----------------------------------------
 BYTE   W96
//  #05 //025   ----------------------------------------
 BYTE   W96
//  #05 //026   ----------------------------------------
 BYTE   W96
//  #05 //027   ----------------------------------------
 BYTE   W48
 BYTE   W01
 BYTE   N08
 BYTE   W08
 BYTE   Bn3
 BYTE   W08
 BYTE   N20  Gn3
 BYTE   W30
 BYTE   W01
//  #05 //028   ----------------------------------------
 BYTE   W01
 BYTE   N08
 BYTE   W16
 BYTE   N08
 BYTE   W08
 BYTE   N48  Dn4
 BYTE   W68
 BYTE   W03
//  #05 //029   ----------------------------------------
 BYTE   W01
 BYTE   N08
 BYTE   W08
 BYTE   En4
 BYTE   W08
 BYTE   N20  Cn4
 BYTE   W32
 BYTE   N08
 BYTE   W16
 BYTE   As3
 BYTE   W08
 BYTE   N72  Fn4
 BYTE   W23
//  #05 //030   ----------------------------------------
 BYTE   W96
//  #05 //031   ----------------------------------------
 BYTE   W01
 BYTE   N32
 BYTE   W32
 BYTE   N08  En4
 BYTE   W08
 BYTE   N08
 BYTE   W08
 BYTE   N32
 BYTE   W32
 BYTE   N08  Dn4
 BYTE   W15
//  #05 //032   ----------------------------------------
 BYTE   W01
 BYTE   N32
 BYTE   W32
 BYTE   N08  Cn4
 BYTE   W08
 BYTE   N08
 BYTE   W08
 BYTE   N12
 BYTE   W24
 BYTE   Dn4
 BYTE   W23
//  #05 //033   ----------------------------------------
Label_01004DDF:
 BYTE   W01
 BYTE   N36  En3  v100
 BYTE   W36
 BYTE   N06  Cn3
 BYTE   W06
 BYTE   Dn3
 BYTE   W06
 BYTE   N24  En3
 BYTE   W24
 BYTE   N16  Gn3
 BYTE   W16
 BYTE   N08  En3
 BYTE   W07
 BYTE   PEND 
//  #05 //034   ----------------------------------------
 BYTE   W01
 BYTE   N72  Fs3
 BYTE   W92
 BYTE   W03
//  #05 //035   ----------------------------------------
 BYTE   PATT
  POIN2 Label_01004DDF
//  #05 //036   ----------------------------------------
 BYTE   W01
 BYTE   N17  Fs3  v100
 BYTE   W17
 BYTE   N08  Gn3
 BYTE   W08
 BYTE   N48  An3
 BYTE   W68
 BYTE   W01
 BYTE   GoTo
  POIN2 Label_01004D22
//  #05 //037   ----------------------------------------
 BYTE   W01
 BYTE   FINE

//**************** Track 6 (Midi-Chn.5) ****************//

ThraciaAdvance_006:
//  #06 //000   ----------------------------------------
 BYTE   KEYSH   ThraciaAdvance_key+0
Label_01004E12:
 BYTE   VOICE   57
 BYTE   VOL   60*ThraciaAdvance_mvl/mxv
 BYTE   W48
 BYTE   TIE  An3  v100
 BYTE   W48
//  #06 //001   ----------------------------------------
 BYTE   W96
//  #06 //002   ----------------------------------------
 BYTE   EOT
Label_01004E1D:
 BYTE   W72
 BYTE   N06  An3  v100
 BYTE   W18
 BYTE   N06
 BYTE   W06
 BYTE   PEND 
//  #06 //003   ----------------------------------------
 BYTE   N96
 BYTE   W96
//  #06 //004   ----------------------------------------
 BYTE   PATT
  POIN2 Label_01004E1D
//  #06 //005   ----------------------------------------
 BYTE   N96  An3  v100
 BYTE   W96
//  #06 //006   ----------------------------------------
 BYTE   W96
//  #06 //007   ----------------------------------------
 BYTE   TIE
 BYTE   W96
//  #06 //008   ----------------------------------------
 BYTE   W24
 BYTE   EOT
 BYTE   W18
 BYTE   N06  Fs3
 BYTE   W06
 BYTE   N48  En3
 BYTE   W48
//  #06 //009   ----------------------------------------
 BYTE   An3
 BYTE   W48
 BYTE   Gn3
 BYTE   W48
//  #06 //010   ----------------------------------------
 BYTE   Dn4
 BYTE   W48
 BYTE   N48
 BYTE   W48
//  #06 //011   ----------------------------------------
 BYTE   Cn4
 BYTE   W48
 BYTE   N72  Fn4
 BYTE   W48
//  #06 //012   ----------------------------------------
 BYTE   W48
 BYTE   N48  Dn4
 BYTE   W48
//  #06 //013   ----------------------------------------
 BYTE   Cn4
 BYTE   W48
 BYTE   Bn3
 BYTE   W48
//  #06 //014   ----------------------------------------
 BYTE   N24  Cn4
 BYTE   W24
 BYTE   Dn4
 BYTE   W24
 BYTE   N48  En4
 BYTE   W48
//  #06 //015   ----------------------------------------
 BYTE   Gn3
 BYTE   W48
 BYTE   An3
 BYTE   W48
//  #06 //016   ----------------------------------------
 BYTE   En4
 BYTE   W48
 BYTE   Dn4
 BYTE   W48
//  #06 //017   ----------------------------------------
 BYTE   N24  Gn3
 BYTE   W48
 BYTE   N72  An3
 BYTE   W48
//  #06 //018   ----------------------------------------
 BYTE   W96
//  #06 //019   ----------------------------------------
 BYTE   TIE
 BYTE   W96
//  #06 //020   ----------------------------------------
 BYTE   W48
 BYTE   EOT
 BYTE   W48
//  #06 //021   ----------------------------------------
Label_01004E6D:
 BYTE   W24
 BYTE   N06  An3  v100
 BYTE   W18
 BYTE   N06
 BYTE   W06
 BYTE   N96
 BYTE   W48
 BYTE   PEND 
//  #06 //022   ----------------------------------------
 BYTE   W96
//  #06 //023   ----------------------------------------
 BYTE   PATT
  POIN2 Label_01004E6D
//  #06 //024   ----------------------------------------
 BYTE   W96
//  #06 //025   ----------------------------------------
 BYTE   W48
 BYTE   TIE  An3  v100
 BYTE   W48
//  #06 //026   ----------------------------------------
 BYTE   W72
 BYTE   EOT
 BYTE   W18
 BYTE   N06  Fs3
 BYTE   W06
//  #06 //027   ----------------------------------------
 BYTE   N48  En3
 BYTE   W48
 BYTE   An3
 BYTE   W48
//  #06 //028   ----------------------------------------
 BYTE   Gn3
 BYTE   W48
 BYTE   Dn4
 BYTE   W48
//  #06 //029   ----------------------------------------
Label_01004E92:
 BYTE   N48  Dn4  v100
 BYTE   W48
 BYTE   Cn4
 BYTE   W48
 BYTE   PEND 
//  #06 //030   ----------------------------------------
 BYTE   N72  Fn4
 BYTE   W96
//  #06 //031   ----------------------------------------
 BYTE   PATT
  POIN2 Label_01004E92
//  #06 //032   ----------------------------------------
 BYTE   N48  Bn3  v100
 BYTE   W48
 BYTE   N24  Cn4
 BYTE   W24
 BYTE   Dn4
 BYTE   W24
//  #06 //033   ----------------------------------------
 BYTE   N48  En4
 BYTE   W48
 BYTE   Gn3
 BYTE   W48
//  #06 //034   ----------------------------------------
 BYTE   An3
 BYTE   W48
 BYTE   En4
 BYTE   W48
//  #06 //035   ----------------------------------------
 BYTE   Dn4
 BYTE   W48
 BYTE   N24  Gn3
 BYTE   W48
//  #06 //036   ----------------------------------------
 BYTE   N72  An3
 BYTE   W92
 BYTE   W03
 BYTE   GoTo
  POIN2 Label_01004E12
//  #06 //037   ----------------------------------------
 BYTE   W01
 BYTE   FINE

//**************** Track 7 (Midi-Chn.6) ****************//

ThraciaAdvance_007:
//  #07 //000   ----------------------------------------
 BYTE   KEYSH   ThraciaAdvance_key+0
Label_01004EC6:
 BYTE   VOICE   47
 BYTE   VOL   49*ThraciaAdvance_mvl/mxv
 BYTE   N24  An2  v100
 BYTE   W24
 BYTE   Fn2
 BYTE   W24
 BYTE   An2
 BYTE   W24
 BYTE   Fn2
 BYTE   W24
//  #07 //001   ----------------------------------------
Label_01004ED4:
 BYTE   N24  An2  v100
 BYTE   W24
 BYTE   Fn2
 BYTE   W24
 BYTE   An2
 BYTE   W24
 BYTE   N08  Fn2
 BYTE   W08
 BYTE   N08
 BYTE   W08
 BYTE   N08
 BYTE   W08
 BYTE   PEND 
//  #07 //002   ----------------------------------------
Label_01004EE4:
 BYTE   N24  An2  v100
 BYTE   W24
 BYTE   Fn2
 BYTE   W24
 BYTE   An2
 BYTE   W24
 BYTE   Fn2
 BYTE   W24
 BYTE   PEND 
//  #07 //003   ----------------------------------------
 BYTE   PATT
  POIN2 Label_01004EE4
//  #07 //004   ----------------------------------------
 BYTE   PATT
  POIN2 Label_01004EE4
//  #07 //005   ----------------------------------------
 BYTE   PATT
  POIN2 Label_01004EE4
//  #07 //006   ----------------------------------------
 BYTE   PATT
  POIN2 Label_01004EE4
//  #07 //007   ----------------------------------------
 BYTE   PATT
  POIN2 Label_01004EE4
//  #07 //008   ----------------------------------------
 BYTE   PATT
  POIN2 Label_01004ED4
//  #07 //009   ----------------------------------------
Label_01004F0D:
 BYTE   N24  An2  v100
 BYTE   W48
 BYTE   N24
 BYTE   W48
 BYTE   PEND 
//  #07 //010   ----------------------------------------
 BYTE   N16
 BYTE   W16
 BYTE   N16
 BYTE   W16
 BYTE   N16
 BYTE   W16
 BYTE   N24
 BYTE   W48
//  #07 //011   ----------------------------------------
Label_01004F1C:
 BYTE   N24  An2  v100
 BYTE   W48
 BYTE   N16
 BYTE   W16
 BYTE   N16
 BYTE   W16
 BYTE   N16
 BYTE   W16
 BYTE   PEND 
//  #07 //012   ----------------------------------------
Label_01004F27:
 BYTE   N08  An2  v100
 BYTE   W08
 BYTE   Fn2
 BYTE   W08
 BYTE   An2
 BYTE   W08
 BYTE   Fn2
 BYTE   W08
 BYTE   An2
 BYTE   W08
 BYTE   Fn2
 BYTE   W08
 BYTE   An2
 BYTE   W08
 BYTE   Fn2
 BYTE   W08
 BYTE   An2
 BYTE   W08
 BYTE   Fn2
 BYTE   W08
 BYTE   An2
 BYTE   W08
 BYTE   Fn2
 BYTE   W08
 BYTE   PEND 
//  #07 //013   ----------------------------------------
 BYTE   PATT
  POIN2 Label_01004F27
//  #07 //014   ----------------------------------------
 BYTE   N08  An2  v100
 BYTE   W08
 BYTE   Fn2
 BYTE   W08
 BYTE   An2
 BYTE   W08
 BYTE   Fn2
 BYTE   W08
 BYTE   An2
 BYTE   W08
 BYTE   Fn2
 BYTE   W08
 BYTE   N24  An2
 BYTE   W48
//  #07 //015   ----------------------------------------
Label_01004F58:
 BYTE   N24  Fn2  v100
 BYTE   W48
 BYTE   An2
 BYTE   W48
 BYTE   PEND 
//  #07 //016   ----------------------------------------
 BYTE   PATT
  POIN2 Label_01004F58
//  #07 //017   ----------------------------------------
 BYTE   PATT
  POIN2 Label_01004F58
//  #07 //018   ----------------------------------------
 BYTE   N08  An2  v100
 BYTE   W08
 BYTE   Fn2
 BYTE   W08
 BYTE   An2
 BYTE   W08
 BYTE   Fn2
 BYTE   W08
 BYTE   An2
 BYTE   W08
 BYTE   Fn2
 BYTE   W08
 BYTE   VOL   49*ThraciaAdvance_mvl/mxv
 BYTE   N24  An2
 BYTE   W24
 BYTE   Fn2
 BYTE   W24
//  #07 //019   ----------------------------------------
 BYTE   PATT
  POIN2 Label_01004EE4
//  #07 //020   ----------------------------------------
 BYTE   N24  An2  v100
 BYTE   W24
 BYTE   N08  Fn2
 BYTE   W08
 BYTE   N08
 BYTE   W08
 BYTE   N08
 BYTE   W08
 BYTE   N24  An2
 BYTE   W24
 BYTE   Fn2
 BYTE   W24
//  #07 //021   ----------------------------------------
 BYTE   PATT
  POIN2 Label_01004EE4
//  #07 //022   ----------------------------------------
 BYTE   PATT
  POIN2 Label_01004EE4
//  #07 //023   ----------------------------------------
 BYTE   PATT
  POIN2 Label_01004EE4
//  #07 //024   ----------------------------------------
 BYTE   PATT
  POIN2 Label_01004EE4
//  #07 //025   ----------------------------------------
 BYTE   PATT
  POIN2 Label_01004EE4
//  #07 //026   ----------------------------------------
 BYTE   PATT
  POIN2 Label_01004EE4
//  #07 //027   ----------------------------------------
 BYTE   N24  An2  v100
 BYTE   W24
 BYTE   N08  Fn2
 BYTE   W08
 BYTE   N08
 BYTE   W08
 BYTE   N08
 BYTE   W08
 BYTE   N24  An2
 BYTE   W48
//  #07 //028   ----------------------------------------
 BYTE   PATT
  POIN2 Label_01004F1C
//  #07 //029   ----------------------------------------
 BYTE   PATT
  POIN2 Label_01004F0D
//  #07 //030   ----------------------------------------
 BYTE   N16  An2  v100
 BYTE   W16
 BYTE   N16
 BYTE   W16
 BYTE   N16
 BYTE   W16
 BYTE   N08
 BYTE   W08
 BYTE   Fn2
 BYTE   W08
 BYTE   An2
 BYTE   W08
 BYTE   Fn2
 BYTE   W08
 BYTE   An2
 BYTE   W08
 BYTE   Fn2
 BYTE   W08
//  #07 //031   ----------------------------------------
 BYTE   PATT
  POIN2 Label_01004F27
//  #07 //032   ----------------------------------------
 BYTE   PATT
  POIN2 Label_01004F27
//  #07 //033   ----------------------------------------
Label_01004FE7:
 BYTE   N24  An2  v100
 BYTE   W48
 BYTE   Fn2
 BYTE   W48
 BYTE   PEND 
//  #07 //034   ----------------------------------------
 BYTE   PATT
  POIN2 Label_01004FE7
//  #07 //035   ----------------------------------------
 BYTE   PATT
  POIN2 Label_01004FE7
//  #07 //036   ----------------------------------------
 BYTE   N24  An2  v100
 BYTE   W48
 BYTE   N08
 BYTE   W08
 BYTE   Fn2
 BYTE   W08
 BYTE   An2
 BYTE   W08
 BYTE   Fn2
 BYTE   W08
 BYTE   An2
 BYTE   W08
 BYTE   Fn2
 BYTE   W07
 BYTE   GoTo
  POIN2 Label_01004EC6
//  #07 //037   ----------------------------------------
 BYTE   W01
 BYTE   FINE

//**************** Track 8 (Midi-Chn.7) ****************//

ThraciaAdvance_008:
//  #08 //000   ----------------------------------------
 BYTE   KEYSH   ThraciaAdvance_key+0
Label_01005012:
 BYTE   VOICE   124
 BYTE   VOL   44*ThraciaAdvance_mvl/mxv
 BYTE   N06  Dn1  v112
 BYTE   W16
 BYTE   Dn1  v100
 BYTE   W08
 BYTE   Dn1  v096
 BYTE   W08
 BYTE   N06
 BYTE   W08
 BYTE   N06
 BYTE   W08
 BYTE   Dn1  v100
 BYTE   W16
 BYTE   N06
 BYTE   W16
 BYTE   N06
 BYTE   W08
 BYTE   N06
 BYTE   W08
//  #08 //001   ----------------------------------------
Label_0100502D:
 BYTE   N06  Dn1  v112
 BYTE   W16
 BYTE   Dn1  v100
 BYTE   W08
 BYTE   Dn1  v096
 BYTE   W08
 BYTE   N06
 BYTE   W08
 BYTE   N06
 BYTE   W08
 BYTE   Dn1  v100
 BYTE   W16
 BYTE   N06
 BYTE   W16
 BYTE   N06
 BYTE   W08
 BYTE   N06
 BYTE   W08
 BYTE   PEND 
//  #08 //002   ----------------------------------------
 BYTE   PATT
  POIN2 Label_0100502D
//  #08 //003   ----------------------------------------
 BYTE   PATT
  POIN2 Label_0100502D
//  #08 //004   ----------------------------------------
 BYTE   PATT
  POIN2 Label_0100502D
//  #08 //005   ----------------------------------------
 BYTE   PATT
  POIN2 Label_0100502D
//  #08 //006   ----------------------------------------
 BYTE   PATT
  POIN2 Label_0100502D
//  #08 //007   ----------------------------------------
 BYTE   PATT
  POIN2 Label_0100502D
//  #08 //008   ----------------------------------------
 BYTE   PATT
  POIN2 Label_0100502D
//  #08 //009   ----------------------------------------
 BYTE   PATT
  POIN2 Label_0100502D
//  #08 //010   ----------------------------------------
 BYTE   N06  Dn1  v112
 BYTE   W16
 BYTE   Dn1  v100
 BYTE   W08
 BYTE   Dn1  v096
 BYTE   W08
 BYTE   N06
 BYTE   W08
 BYTE   N06
 BYTE   W08
 BYTE   Dn1  v112
 BYTE   W16
 BYTE   Dn1  v100
 BYTE   W08
 BYTE   Dn1  v096
 BYTE   W08
 BYTE   N06
 BYTE   W08
 BYTE   N06
 BYTE   W08
//  #08 //011   ----------------------------------------
Label_01005088:
 BYTE   N06  Dn1  v100
 BYTE   W16
 BYTE   N06
 BYTE   W16
 BYTE   N06
 BYTE   W08
 BYTE   N06
 BYTE   W08
 BYTE   Dn1  v112
 BYTE   W16
 BYTE   Dn1  v100
 BYTE   W08
 BYTE   Dn1  v096
 BYTE   W08
 BYTE   N06
 BYTE   W08
 BYTE   N06
 BYTE   W08
 BYTE   PEND 
//  #08 //012   ----------------------------------------
 BYTE   Dn1  v100
 BYTE   W16
 BYTE   N06
 BYTE   W16
 BYTE   N06
 BYTE   W08
 BYTE   N06
 BYTE   W08
 BYTE   N06
 BYTE   W24
 BYTE   N06
 BYTE   W08
 BYTE   N06
 BYTE   W08
 BYTE   N06
 BYTE   W08
//  #08 //013   ----------------------------------------
Label_010050B1:
 BYTE   N06  Dn1  v100
 BYTE   W24
 BYTE   N06
 BYTE   W08
 BYTE   N06
 BYTE   W08
 BYTE   N06
 BYTE   W08
 BYTE   N06
 BYTE   W24
 BYTE   N06
 BYTE   W08
 BYTE   N06
 BYTE   W08
 BYTE   N06
 BYTE   W08
 BYTE   PEND 
//  #08 //014   ----------------------------------------
 BYTE   PATT
  POIN2 Label_010050B1
//  #08 //015   ----------------------------------------
Label_010050C9:
 BYTE   N03  Dn1  v100
 BYTE   W24
 BYTE   Dn1  v092
 BYTE   W04
 BYTE   Dn1  v072
 BYTE   W04
 BYTE   Dn1  v092
 BYTE   W04
 BYTE   Dn1  v072
 BYTE   W04
 BYTE   Dn1  v092
 BYTE   W04
 BYTE   Dn1  v072
 BYTE   W04
 BYTE   N06  Dn1  v100
 BYTE   W24
 BYTE   N06
 BYTE   W08
 BYTE   N06
 BYTE   W08
 BYTE   N06
 BYTE   W08
 BYTE   PEND 
//  #08 //016   ----------------------------------------
 BYTE   PATT
  POIN2 Label_010050C9
//  #08 //017   ----------------------------------------
 BYTE   PATT
  POIN2 Label_010050C9
//  #08 //018   ----------------------------------------
 BYTE   N03  Dn1  v100
 BYTE   W24
 BYTE   Dn1  v092
 BYTE   W04
 BYTE   Dn1  v072
 BYTE   W04
 BYTE   Dn1  v092
 BYTE   W04
 BYTE   Dn1  v072
 BYTE   W04
 BYTE   Dn1  v092
 BYTE   W04
 BYTE   Dn1  v072
 BYTE   W04
 BYTE   VOL   44*ThraciaAdvance_mvl/mxv
 BYTE   N06  Dn1  v112
 BYTE   W16
 BYTE   Dn1  v100
 BYTE   W08
 BYTE   Dn1  v096
 BYTE   W08
 BYTE   N06
 BYTE   W08
 BYTE   N06
 BYTE   W08
//  #08 //019   ----------------------------------------
 BYTE   PATT
  POIN2 Label_01005088
//  #08 //020   ----------------------------------------
 BYTE   PATT
  POIN2 Label_01005088
//  #08 //021   ----------------------------------------
 BYTE   PATT
  POIN2 Label_01005088
//  #08 //022   ----------------------------------------
 BYTE   PATT
  POIN2 Label_01005088
//  #08 //023   ----------------------------------------
 BYTE   PATT
  POIN2 Label_01005088
//  #08 //024   ----------------------------------------
 BYTE   PATT
  POIN2 Label_01005088
//  #08 //025   ----------------------------------------
 BYTE   PATT
  POIN2 Label_01005088
//  #08 //026   ----------------------------------------
 BYTE   PATT
  POIN2 Label_01005088
//  #08 //027   ----------------------------------------
 BYTE   PATT
  POIN2 Label_01005088
//  #08 //028   ----------------------------------------
 BYTE   PATT
  POIN2 Label_01005088
//  #08 //029   ----------------------------------------
 BYTE   PATT
  POIN2 Label_0100502D
//  #08 //030   ----------------------------------------
 BYTE   PATT
  POIN2 Label_0100502D
//  #08 //031   ----------------------------------------
 BYTE   PATT
  POIN2 Label_010050B1
//  #08 //032   ----------------------------------------
 BYTE   PATT
  POIN2 Label_010050B1
//  #08 //033   ----------------------------------------
Label_01005160:
 BYTE   N06  Dn1  v100
 BYTE   W24
 BYTE   N06
 BYTE   W08
 BYTE   N06
 BYTE   W08
 BYTE   N06
 BYTE   W08
 BYTE   N03
 BYTE   W24
 BYTE   Dn1  v092
 BYTE   W04
 BYTE   Dn1  v072
 BYTE   W04
 BYTE   Dn1  v092
 BYTE   W04
 BYTE   Dn1  v072
 BYTE   W04
 BYTE   Dn1  v092
 BYTE   W04
 BYTE   Dn1  v072
 BYTE   W04
 BYTE   PEND 
//  #08 //034   ----------------------------------------
 BYTE   PATT
  POIN2 Label_01005160
//  #08 //035   ----------------------------------------
 BYTE   PATT
  POIN2 Label_01005160
//  #08 //036   ----------------------------------------
 BYTE   N06  Dn1  v100
 BYTE   W24
 BYTE   N06
 BYTE   W08
 BYTE   N06
 BYTE   W08
 BYTE   N06
 BYTE   W08
 BYTE   N03
 BYTE   W24
 BYTE   Dn1  v092
 BYTE   W04
 BYTE   Dn1  v072
 BYTE   W04
 BYTE   Dn1  v092
 BYTE   W04
 BYTE   Dn1  v072
 BYTE   W04
 BYTE   Dn1  v092
 BYTE   W04
 BYTE   Dn1  v072
 BYTE   W03
 BYTE   GoTo
  POIN2 Label_01005012
//  #08 //037   ----------------------------------------
 BYTE   W01
 BYTE   FINE

//**************** Track 9 (Midi-Chn.8) ****************//

ThraciaAdvance_009:
//  #09 //000   ----------------------------------------
 BYTE   KEYSH   ThraciaAdvance_key+0
Label_01005272:
 BYTE   VOICE   47
 BYTE   VOL   60*ThraciaAdvance_mvl/mxv
 BYTE   N24  An1  v100
 BYTE   W24
 BYTE   Fn1
 BYTE   W24
 BYTE   An1
 BYTE   W24
 BYTE   Fn1
 BYTE   W24
//  #09 //001   ----------------------------------------
Label_01005280:
 BYTE   N24  An1  v100
 BYTE   W24
 BYTE   Fn1
 BYTE   W24
 BYTE   An1
 BYTE   W24
 BYTE   N08  Fn1
 BYTE   W08
 BYTE   N08
 BYTE   W08
 BYTE   N08
 BYTE   W08
 BYTE   PEND 
//  #09 //002   ----------------------------------------
Label_01005290:
 BYTE   N24  An1  v100
 BYTE   W24
 BYTE   Fn1
 BYTE   W24
 BYTE   An1
 BYTE   W24
 BYTE   Fn1
 BYTE   W24
 BYTE   PEND 
//  #09 //003   ----------------------------------------
 BYTE   PATT
  POIN2 Label_01005290
//  #09 //004   ----------------------------------------
 BYTE   PATT
  POIN2 Label_01005290
//  #09 //005   ----------------------------------------
 BYTE   PATT
  POIN2 Label_01005290
//  #09 //006   ----------------------------------------
 BYTE   PATT
  POIN2 Label_01005290
//  #09 //007   ----------------------------------------
 BYTE   PATT
  POIN2 Label_01005290
//  #09 //008   ----------------------------------------
 BYTE   PATT
  POIN2 Label_01005280
//  #09 //009   ----------------------------------------
Label_010052B9:
 BYTE   N24  An1  v100
 BYTE   W48
 BYTE   N24
 BYTE   W48
 BYTE   PEND 
//  #09 //010   ----------------------------------------
 BYTE   N16
 BYTE   W16
 BYTE   N16
 BYTE   W16
 BYTE   N16
 BYTE   W16
 BYTE   N24
 BYTE   W48
//  #09 //011   ----------------------------------------
Label_010052C8:
 BYTE   N24  An1  v100
 BYTE   W48
 BYTE   N16
 BYTE   W16
 BYTE   N16
 BYTE   W16
 BYTE   N16
 BYTE   W16
 BYTE   PEND 
//  #09 //012   ----------------------------------------
Label_010052D3:
 BYTE   N08  An1  v100
 BYTE   W08
 BYTE   Fn1
 BYTE   W08
 BYTE   An1
 BYTE   W08
 BYTE   Fn1
 BYTE   W08
 BYTE   An1
 BYTE   W08
 BYTE   Fn1
 BYTE   W08
 BYTE   An1
 BYTE   W08
 BYTE   Fn1
 BYTE   W08
 BYTE   An1
 BYTE   W08
 BYTE   Fn1
 BYTE   W08
 BYTE   An1
 BYTE   W08
 BYTE   Fn1
 BYTE   W08
 BYTE   PEND 
//  #09 //013   ----------------------------------------
 BYTE   PATT
  POIN2 Label_010052D3
//  #09 //014   ----------------------------------------
 BYTE   N08  An1  v100
 BYTE   W08
 BYTE   Fn1
 BYTE   W08
 BYTE   An1
 BYTE   W08
 BYTE   Fn1
 BYTE   W08
 BYTE   An1
 BYTE   W08
 BYTE   Fn1
 BYTE   W08
 BYTE   N24  An1
 BYTE   W48
//  #09 //015   ----------------------------------------
Label_01005304:
 BYTE   N24  Fn1  v100
 BYTE   W48
 BYTE   An1
 BYTE   W48
 BYTE   PEND 
//  #09 //016   ----------------------------------------
 BYTE   PATT
  POIN2 Label_01005304
//  #09 //017   ----------------------------------------
 BYTE   PATT
  POIN2 Label_01005304
//  #09 //018   ----------------------------------------
 BYTE   N08  An1  v100
 BYTE   W08
 BYTE   Fn1
 BYTE   W08
 BYTE   An1
 BYTE   W08
 BYTE   Fn1
 BYTE   W08
 BYTE   An1
 BYTE   W08
 BYTE   Fn1
 BYTE   W08
 BYTE   VOL   60*ThraciaAdvance_mvl/mxv
 BYTE   N24  An1
 BYTE   W24
 BYTE   Fn1
 BYTE   W24
//  #09 //019   ----------------------------------------
 BYTE   PATT
  POIN2 Label_01005290
//  #09 //020   ----------------------------------------
 BYTE   N24  An1  v100
 BYTE   W24
 BYTE   N08  Fn1
 BYTE   W08
 BYTE   N08
 BYTE   W08
 BYTE   N08
 BYTE   W08
 BYTE   N24  An1
 BYTE   W24
 BYTE   Fn1
 BYTE   W24
//  #09 //021   ----------------------------------------
 BYTE   PATT
  POIN2 Label_01005290
//  #09 //022   ----------------------------------------
 BYTE   PATT
  POIN2 Label_01005290
//  #09 //023   ----------------------------------------
 BYTE   PATT
  POIN2 Label_01005290
//  #09 //024   ----------------------------------------
 BYTE   PATT
  POIN2 Label_01005290
//  #09 //025   ----------------------------------------
 BYTE   PATT
  POIN2 Label_01005290
//  #09 //026   ----------------------------------------
 BYTE   PATT
  POIN2 Label_01005290
//  #09 //027   ----------------------------------------
 BYTE   N24  An1  v100
 BYTE   W24
 BYTE   N08  Fn1
 BYTE   W08
 BYTE   N08
 BYTE   W08
 BYTE   N08
 BYTE   W08
 BYTE   N24  An1
 BYTE   W48
//  #09 //028   ----------------------------------------
 BYTE   PATT
  POIN2 Label_010052C8
//  #09 //029   ----------------------------------------
 BYTE   PATT
  POIN2 Label_010052B9
//  #09 //030   ----------------------------------------
 BYTE   N16  An1  v100
 BYTE   W16
 BYTE   N16
 BYTE   W16
 BYTE   N16
 BYTE   W16
 BYTE   N08
 BYTE   W08
 BYTE   Fn1
 BYTE   W08
 BYTE   An1
 BYTE   W08
 BYTE   Fn1
 BYTE   W08
 BYTE   An1
 BYTE   W08
 BYTE   Fn1
 BYTE   W08
//  #09 //031   ----------------------------------------
 BYTE   PATT
  POIN2 Label_010052D3
//  #09 //032   ----------------------------------------
 BYTE   PATT
  POIN2 Label_010052D3
//  #09 //033   ----------------------------------------
Label_01005393:
 BYTE   N24  An1  v100
 BYTE   W48
 BYTE   Fn1
 BYTE   W48
 BYTE   PEND 
//  #09 //034   ----------------------------------------
 BYTE   PATT
  POIN2 Label_01005393
//  #09 //035   ----------------------------------------
 BYTE   PATT
  POIN2 Label_01005393
//  #09 //036   ----------------------------------------
 BYTE   N24  An1  v100
 BYTE   W48
 BYTE   N08
 BYTE   W08
 BYTE   Fn1
 BYTE   W08
 BYTE   An1
 BYTE   W08
 BYTE   Fn1
 BYTE   W08
 BYTE   An1
 BYTE   W08
 BYTE   Fn1
 BYTE   W07
 BYTE   GoTo
  POIN2 Label_01005272
//  #09 //037   ----------------------------------------
 BYTE   W01
 BYTE   FINE

//******************************************************//
	ALIGN 4

ThraciaAdvance:
	BYTE	9	// NumTrks
	BYTE	0	// NumBlks
	BYTE	ThraciaAdvance_pri	// Priority
	BYTE	ThraciaAdvance_rev	// Reverb.
    
	POIN2	ThraciaAdvance_grp
    
	POIN2	ThraciaAdvance_001
	POIN2	ThraciaAdvance_002
	POIN2	ThraciaAdvance_003
	POIN2	ThraciaAdvance_004
	POIN2	ThraciaAdvance_005
	POIN2	ThraciaAdvance_006
	POIN2	ThraciaAdvance_007
	POIN2	ThraciaAdvance_008
	POIN2	ThraciaAdvance_009

	
