//Event file generated from Sappy .s format.
	#include "MPlayDef.event"

	#define	TimeToMakeHistory_grp  voicegroup000
	#define	TimeToMakeHistory_pri  0
	#define	TimeToMakeHistory_rev  0
	#define	TimeToMakeHistory_mvl  127
	#define	TimeToMakeHistory_key  0
	#define	TimeToMakeHistory_tbs  1
	#define	TimeToMakeHistory_exg  0
	#define	TimeToMakeHistory_cmp  1

	// .rodata
	//	TimeToMakeHistory
	ALIGN 4


//**************** Track 1 (Midi-Chn.0) ****************//

TimeToMakeHistory_001:
//  #01 //000   ----------------------------------------
 BYTE   KEYSH   TimeToMakeHistory_key+0
 BYTE   TEMPO   100*TimeToMakeHistory_tbs/2
 BYTE   VOICE   52
 BYTE   VOL   44*TimeToMakeHistory_mvl/mxv
 BYTE   W96
//  #01 //001   ----------------------------------------
 BYTE   W96
//  #01 //002   ----------------------------------------
Label_01004F12:
 BYTE   W12
 BYTE   N23  Gn2  v080
 BYTE   N23  As2
 BYTE   W24
 BYTE   Dn3
 BYTE   N23  Fn3
 BYTE   W24
 BYTE   N17  Cn3
 BYTE   N17  En3
 BYTE   W18
 BYTE   N28  Fn2  v080  gtp1
 BYTE   An2
 BYTE   W18
 BYTE   PEND 
//  #01 //003   ----------------------------------------
 BYTE   PATT
  POIN2 Label_01004F12
//  #01 //004   ----------------------------------------
 BYTE   PATT
  POIN2 Label_01004F12
//  #01 //005   ----------------------------------------
Label_01004F33:
 BYTE   W12
 BYTE   N23  Gn2  v080
 BYTE   N23  As2
 BYTE   W24
 BYTE   Dn3
 BYTE   N23  Fn3
 BYTE   W54
 BYTE   N05  Cn4
 BYTE   W06
 BYTE   PEND 
//  #01 //006   ----------------------------------------
Label_01004F42:
 BYTE   N11  Gn3  v080
 BYTE   W12
 BYTE   N05  Cn4
 BYTE   W12
 BYTE   Gn3
 BYTE   W06
 BYTE   Cn4
 BYTE   W18
 BYTE   Cn4
 BYTE   W06
 BYTE   Gn3
 BYTE   W06
 BYTE   As3
 BYTE   W30
 BYTE   Cn4
 BYTE   W06
 BYTE   PEND 
//  #01 //007   ----------------------------------------
Label_01004F56:
 BYTE   N11  As3  v080
 BYTE   W12
 BYTE   N05  Cs4
 BYTE   W12
 BYTE   Gn3
 BYTE   W06
 BYTE   Gn3
 BYTE   W12
 BYTE   Cs4
 BYTE   W06
 BYTE   Cn4
 BYTE   W06
 BYTE   As3
 BYTE   W06
 BYTE   Cn4
 BYTE   W12
 BYTE   Cn4
 BYTE   W06
 BYTE   As3
 BYTE   W06
 BYTE   Cn4
 BYTE   W12
 BYTE   PEND 
//  #01 //008   ----------------------------------------
Label_01004F70:
 BYTE   N05  Cn4  v080
 BYTE   W06
 BYTE   As3
 BYTE   W06
 BYTE   Cs4
 BYTE   W12
 BYTE   Gn3
 BYTE   W06
 BYTE   Fn3
 BYTE   W06
 BYTE   As3
 BYTE   W12
 BYTE   As3
 BYTE   W06
 BYTE   Fn3
 BYTE   W06
 BYTE   Gn3
 BYTE   N05  Cn4
 BYTE   W12
 BYTE   Gn3
 BYTE   W06
 BYTE   Fn3
 BYTE   W06
 BYTE   Cn4
 BYTE   W06
 BYTE   Gn3
 BYTE   W06
 BYTE   PEND 
//  #01 //009   ----------------------------------------
Label_01004F8F:
 BYTE   W06
 BYTE   N05  As3  v080
 BYTE   W18
 BYTE   As3
 BYTE   W06
 BYTE   As3
 BYTE   W06
 BYTE   Bn3
 BYTE   W06
 BYTE   Bn3
 BYTE   W12
 BYTE   Gn3
 BYTE   N05  Cn4
 BYTE   W12
 BYTE   Gn3
 BYTE   N05  Cn4
 BYTE   W06
 BYTE   Gn3
 BYTE   N05  Cn4
 BYTE   W12
 BYTE   Fn3
 BYTE   N05  As3
 BYTE   W12
 BYTE   PEND 
//  #01 //010   ----------------------------------------
Label_01004FAD:
 BYTE   N05  Gn3  v080
 BYTE   W06
 BYTE   As3
 BYTE   W06
 BYTE   Gn3
 BYTE   N05  Cn4
 BYTE   W12
 BYTE   Gn3
 BYTE   W06
 BYTE   As3
 BYTE   W18
 BYTE   N08
 BYTE   W09
 BYTE   As3
 BYTE   W09
 BYTE   N05
 BYTE   W06
 BYTE   N08  Cn4
 BYTE   W09
 BYTE   Gn3
 BYTE   W09
 BYTE   N05  As3
 BYTE   W06
 BYTE   PEND 
//  #01 //011   ----------------------------------------
Label_01004FCA:
 BYTE   W18
 BYTE   N05  Gn3  v080
 BYTE   W06
 BYTE   Gn3
 BYTE   W12
 BYTE   As3
 BYTE   W24
 BYTE   As3
 BYTE   W06
 BYTE   Gn3
 BYTE   W12
 BYTE   As3
 BYTE   W12
 BYTE   Gn3
 BYTE   W06
 BYTE   PEND 
//  #01 //012   ----------------------------------------
Label_01004FDC:
 BYTE   N05  Fn3  v080
 BYTE   W42
 BYTE   Gn3
 BYTE   W06
 BYTE   As3
 BYTE   W12
 BYTE   Gn3
 BYTE   W36
 BYTE   PEND 
//  #01 //013   ----------------------------------------
Label_01004FE7:
 BYTE   W12
 BYTE   N05  As3  v080
 BYTE   W06
 BYTE   Gn3
 BYTE   W12
 BYTE   As3
 BYTE   W12
 BYTE   Gn3
 BYTE   W06
 BYTE   Fn3
 BYTE   W42
 BYTE   Dn4
 BYTE   W06
 BYTE   PEND 
//  #01 //014   ----------------------------------------
Label_01004FF7:
 BYTE   N11  Dn4  v080
 BYTE   W12
 BYTE   Gn3
 BYTE   N11  Dn4
 BYTE   W12
 BYTE   N05  Gn3
 BYTE   W06
 BYTE   N11  Dn3
 BYTE   N11  As3
 BYTE   W36
 BYTE   N05  Cn3
 BYTE   N05  An3
 BYTE   W06
 BYTE   Cn3
 BYTE   N05  An3
 BYTE   W12
 BYTE   N11  Cn3
 BYTE   N11  An3
 BYTE   W12
 BYTE   PEND 
//  #01 //015   ----------------------------------------
Label_01005016:
 BYTE   N05  Cn3  v080
 BYTE   N05  An3
 BYTE   W06
 BYTE   N11  Cn3
 BYTE   N11  An3
 BYTE   W12
 BYTE   N05  Dn3
 BYTE   N05  As3
 BYTE   W06
 BYTE   N11  Dn3
 BYTE   N11  As3
 BYTE   W42
 BYTE   N05  Cn3
 BYTE   N05  An3
 BYTE   W06
 BYTE   Cn3
 BYTE   N05  An3
 BYTE   W06
 BYTE   Cn3
 BYTE   N05  An3
 BYTE   W06
 BYTE   N11  Cn3
 BYTE   N11  An3
 BYTE   W12
 BYTE   PEND 
//  #01 //016   ----------------------------------------
Label_0100503E:
 BYTE   N05  Cn3  v080
 BYTE   N05  An3
 BYTE   W06
 BYTE   N11  Cn3
 BYTE   N11  An3
 BYTE   W12
 BYTE   N05  Dn3
 BYTE   N05  As3
 BYTE   W06
 BYTE   N11  Dn3
 BYTE   N11  As3
 BYTE   W42
 BYTE   N05  Cn3
 BYTE   N05  An3
 BYTE   N05  Fn4
 BYTE   W06
 BYTE   Cn3
 BYTE   N05  An3
 BYTE   N05  Fn4
 BYTE   W12
 BYTE   N11  Cn3
 BYTE   N11  An3
 BYTE   N11  Fn4
 BYTE   W12
 BYTE   PEND 
//  #01 //017   ----------------------------------------
Label_01005068:
 BYTE   N05  Cn3  v080
 BYTE   N05  An3
 BYTE   N05  Fn4
 BYTE   W06
 BYTE   N11  Cn3
 BYTE   N11  An3
 BYTE   N11  Fn4
 BYTE   W12
 BYTE   N05  Dn3
 BYTE   N05  As3
 BYTE   N05  Gn4
 BYTE   W06
 BYTE   N11  Dn3
 BYTE   N11  As3
 BYTE   N11  Gn4
 BYTE   W60
 BYTE   N23  Fn3
 BYTE   W12
 BYTE   PEND 
//  #01 //018   ----------------------------------------
Label_01005089:
 BYTE   W12
 BYTE   N23  As3  v112
 BYTE   W24
 BYTE   Cn4
 BYTE   W24
 BYTE   Ds4
 BYTE   W24
 BYTE   N05  Fn4
 BYTE   W06
 BYTE   Gn4
 BYTE   W06
//  #01 //019   ----------------------------------------
 BYTE   W06
 BYTE   N76  An4  v112  gtp1
 BYTE   W78
 BYTE   N05
 BYTE   W06
 BYTE   As4
 BYTE   W06
//  #01 //020   ----------------------------------------
 BYTE   W06
 BYTE   N28  Cn5  v112  gtp1
 BYTE   W30
 BYTE   N05  An4
 BYTE   W06
 BYTE   As4
 BYTE   W12
 BYTE   Cn5
 BYTE   W12
 BYTE   Cn5
 BYTE   W12
 BYTE   As4
 BYTE   W06
 BYTE   N11  An4
 BYTE   W12
//  #01 //021   ----------------------------------------
 BYTE   Fn4
 BYTE   W12
 BYTE   N23  As4
 BYTE   W24
 BYTE   An4
 BYTE   N23  Cn5
 BYTE   W24
 BYTE   N44  Gs4  v112  gtp3
 BYTE   Dn5
 BYTE   W36
//  #01 //022   ----------------------------------------
 BYTE   W12
 BYTE   N23  Dn4
 BYTE   W24
 BYTE   Ds4
 BYTE   W24
 BYTE   Fn4
 BYTE   W24
 BYTE   N05
 BYTE   W06
 BYTE   Gn4
 BYTE   W06
//  #01 //023   ----------------------------------------
 BYTE   W06
 BYTE   N76  An4  v112  gtp1
 BYTE   W78
 BYTE   N11  Dn4
 BYTE   W12
//  #01 //024   ----------------------------------------
 BYTE   Fn4
 BYTE   W12
 BYTE   Gn4
 BYTE   W12
 BYTE   An4
 BYTE   W12
 BYTE   N44  As4  v112  gtp3
 BYTE   W60
//  #01 //025   ----------------------------------------
 BYTE   N11  Fn4
 BYTE   W12
 BYTE   Gn4
 BYTE   W12
 BYTE   An4
 BYTE   W12
 BYTE   N23  As4
 BYTE   W24
 BYTE   N02
 BYTE   W02
 BYTE   N09  Cn5
 BYTE   W10
 BYTE   N11  As4
 BYTE   W12
 BYTE   As4
 BYTE   W12
//  #01 //026   ----------------------------------------
 BYTE   TIE
 BYTE   W96
//  #01 //027   ----------------------------------------
 BYTE   W11
 BYTE   EOT
 BYTE   W84
 BYTE   W01
//  #01 //028   ----------------------------------------
 BYTE   W96
//  #01 //029   ----------------------------------------
 BYTE   W96
//  #01 //030   ----------------------------------------
 BYTE   PATT
  POIN2 Label_01004F12
//  #01 //031   ----------------------------------------
 BYTE   PATT
  POIN2 Label_01004F12
//  #01 //032   ----------------------------------------
 BYTE   PATT
  POIN2 Label_01004F12
//  #01 //033   ----------------------------------------
 BYTE   PATT
  POIN2 Label_01004F33
//  #01 //034   ----------------------------------------
 BYTE   PATT
  POIN2 Label_01004F42
//  #01 //035   ----------------------------------------
 BYTE   PATT
  POIN2 Label_01004F56
//  #01 //036   ----------------------------------------
 BYTE   PATT
  POIN2 Label_01004F70
//  #01 //037   ----------------------------------------
 BYTE   PATT
  POIN2 Label_01004F8F
//  #01 //038   ----------------------------------------
 BYTE   PATT
  POIN2 Label_01004FAD
//  #01 //039   ----------------------------------------
 BYTE   PATT
  POIN2 Label_01004FCA
//  #01 //040   ----------------------------------------
 BYTE   PATT
  POIN2 Label_01004FDC
//  #01 //041   ----------------------------------------
 BYTE   PATT
  POIN2 Label_01004FE7
//  #01 //042   ----------------------------------------
 BYTE   PATT
  POIN2 Label_01004FF7
//  #01 //043   ----------------------------------------
 BYTE   PATT
  POIN2 Label_01005016
//  #01 //044   ----------------------------------------
 BYTE   PATT
  POIN2 Label_0100503E
//  #01 //045   ----------------------------------------
 BYTE   PATT
  POIN2 Label_01005068
//  #01 //046   ----------------------------------------
 BYTE   GoTo
  POIN2 Label_01005089
//  #01 //047   ----------------------------------------
 BYTE   W12
 BYTE   N23  As3  v112
 BYTE   W24
 BYTE   Cn4
 BYTE   W24
 BYTE   Ds4
 BYTE   W24
 BYTE   N05  Fn4
 BYTE   W06
 BYTE   Gn4
 BYTE   W06
 BYTE   FINE

//**************** Track 2 (Midi-Chn.1) ****************//

TimeToMakeHistory_002:
//  #02 //000   ----------------------------------------
 BYTE   KEYSH   TimeToMakeHistory_key+0
 BYTE   VOICE   18
 BYTE   VOL   40*TimeToMakeHistory_mvl/mxv
 BYTE   W96
//  #02 //001   ----------------------------------------
 BYTE   W96
//  #02 //002   ----------------------------------------
Label_01005A98:
 BYTE   W12
 BYTE   N05  Gn0  v120
 BYTE   W06
 BYTE   Gn1
 BYTE   W06
 BYTE   Gn0
 BYTE   W06
 BYTE   Gn1
 BYTE   W06
 BYTE   As0
 BYTE   W06
 BYTE   As1
 BYTE   W06
 BYTE   As0
 BYTE   W06
 BYTE   As1
 BYTE   W06
 BYTE   Cn1
 BYTE   W06
 BYTE   Cn2  v080
 BYTE   W06
 BYTE   Cn1
 BYTE   W06
 BYTE   N11  Fn1  v120
 BYTE   W12
 BYTE   N05  Fn0  v080
 BYTE   W06
 BYTE   PEND 
//  #02 //003   ----------------------------------------
Label_01005ABB:
 BYTE   N05  Fn1  v080
 BYTE   W06
 BYTE   Fs0
 BYTE   W06
 BYTE   Gn0  v120
 BYTE   W06
 BYTE   Gn1
 BYTE   W06
 BYTE   Gn0
 BYTE   W06
 BYTE   Gn1
 BYTE   W06
 BYTE   As0
 BYTE   W06
 BYTE   As1
 BYTE   W06
 BYTE   As0
 BYTE   W06
 BYTE   As1
 BYTE   W06
 BYTE   Cn1
 BYTE   W06
 BYTE   Cn2  v080
 BYTE   W06
 BYTE   Cn1
 BYTE   W06
 BYTE   N11  Fn1  v120
 BYTE   W12
 BYTE   N05  Fn0  v080
 BYTE   W06
 BYTE   PEND 
//  #02 //004   ----------------------------------------
 BYTE   PATT
  POIN2 Label_01005ABB
//  #02 //005   ----------------------------------------
Label_01005AE7:
 BYTE   N05  Fn1  v080
 BYTE   W06
 BYTE   Fs0
 BYTE   W06
 BYTE   Gn0  v120
 BYTE   W06
 BYTE   Gn1
 BYTE   W06
 BYTE   Gn0
 BYTE   W06
 BYTE   Gn1
 BYTE   W06
 BYTE   As0
 BYTE   W06
 BYTE   As1
 BYTE   W06
 BYTE   As0
 BYTE   W06
 BYTE   As1
 BYTE   W42
 BYTE   PEND 
//  #02 //006   ----------------------------------------
 BYTE   PATT
  POIN2 Label_01005A98
//  #02 //007   ----------------------------------------
 BYTE   PATT
  POIN2 Label_01005ABB
//  #02 //008   ----------------------------------------
 BYTE   PATT
  POIN2 Label_01005ABB
//  #02 //009   ----------------------------------------
 BYTE   PATT
  POIN2 Label_01005ABB
//  #02 //010   ----------------------------------------
Label_01005B13:
 BYTE   N05  Fn1  v080
 BYTE   W06
 BYTE   Fs0
 BYTE   W06
 BYTE   Gn0  v120
 BYTE   N05  Gn2  v080
 BYTE   N05  As2
 BYTE   W06
 BYTE   Gn1  v120
 BYTE   N05  Gn2  v080
 BYTE   N05  As2
 BYTE   W06
 BYTE   Gn0  v120
 BYTE   W06
 BYTE   Gn1
 BYTE   W06
 BYTE   As0
 BYTE   N05  As2  v080
 BYTE   N05  Dn3
 BYTE   W06
 BYTE   As1  v120
 BYTE   N05  As2  v080
 BYTE   N05  Dn3
 BYTE   W06
 BYTE   As0  v120
 BYTE   W06
 BYTE   As1
 BYTE   W06
 BYTE   Cn1
 BYTE   N05  Cn3  v080
 BYTE   N05  En3
 BYTE   W06
 BYTE   Cn2
 BYTE   N05  Cn3
 BYTE   N05  En3
 BYTE   W06
 BYTE   Cn1
 BYTE   W06
 BYTE   N11  Fn1  v120
 BYTE   N05  Fn2  v080
 BYTE   N05  An2
 BYTE   W12
 BYTE   Fn0
 BYTE   N11  Fn2
 BYTE   N11  An2
 BYTE   W06
 BYTE   PEND 
//  #02 //011   ----------------------------------------
Label_01005B61:
 BYTE   N05  Fn1  v080
 BYTE   W06
 BYTE   Fs0
 BYTE   N05  An2
 BYTE   N05  Cn3
 BYTE   W06
 BYTE   Gn0  v120
 BYTE   N05  As2  v080
 BYTE   N05  Dn3
 BYTE   W06
 BYTE   Gn1  v120
 BYTE   N05  As2  v080
 BYTE   N05  Dn3
 BYTE   W06
 BYTE   Gn0  v120
 BYTE   W06
 BYTE   Gn1
 BYTE   N05  As2  v080
 BYTE   N05  Dn3
 BYTE   W06
 BYTE   As0  v120
 BYTE   W06
 BYTE   As1
 BYTE   N05  Cn3  v080
 BYTE   N05  En3
 BYTE   W06
 BYTE   As0  v120
 BYTE   W06
 BYTE   As1
 BYTE   N05  Cn3  v080
 BYTE   N05  En3
 BYTE   W06
 BYTE   Cn1  v120
 BYTE   W06
 BYTE   Cn2  v080
 BYTE   N05  Cn3
 BYTE   N05  En3
 BYTE   W06
 BYTE   Cn1
 BYTE   W06
 BYTE   N11  Fn1  v120
 BYTE   N05  An2  v080
 BYTE   N05  Cn3
 BYTE   W12
 BYTE   Fn0
 BYTE   N11  An2
 BYTE   N11  Cn3
 BYTE   W06
 BYTE   PEND 
//  #02 //012   ----------------------------------------
Label_01005BB5:
 BYTE   N05  Fn1  v080
 BYTE   W06
 BYTE   Fs0
 BYTE   N05  An2
 BYTE   N05  Cn3
 BYTE   W06
 BYTE   Gn0  v120
 BYTE   N05  Gn2  v080
 BYTE   N05  As2
 BYTE   W06
 BYTE   Gn1  v120
 BYTE   N05  Gn2  v080
 BYTE   N05  As2
 BYTE   W06
 BYTE   Gn0  v120
 BYTE   W06
 BYTE   Gn1
 BYTE   W06
 BYTE   As0
 BYTE   N05  As2  v080
 BYTE   N05  Dn3
 BYTE   W06
 BYTE   As1  v120
 BYTE   N05  As2  v080
 BYTE   N05  Dn3
 BYTE   W06
 BYTE   As0  v120
 BYTE   W06
 BYTE   As1
 BYTE   W06
 BYTE   Cn1
 BYTE   N05  Cn3  v080
 BYTE   N05  En3
 BYTE   W06
 BYTE   Cn2
 BYTE   N05  Cn3
 BYTE   N05  En3
 BYTE   W06
 BYTE   Cn1
 BYTE   W06
 BYTE   N11  Fn1  v120
 BYTE   N05  Fn2  v080
 BYTE   N05  An2
 BYTE   W12
 BYTE   Fn0
 BYTE   N11  Fn2
 BYTE   N11  An2
 BYTE   W06
 BYTE   PEND 
//  #02 //013   ----------------------------------------
Label_01005C07:
 BYTE   N05  Fn1  v080
 BYTE   W06
 BYTE   Fs0
 BYTE   N05  An2
 BYTE   N05  Cn3
 BYTE   W06
 BYTE   Gn0  v120
 BYTE   N05  As2  v080
 BYTE   N05  Dn3
 BYTE   W06
 BYTE   Gn1  v120
 BYTE   N05  As2  v080
 BYTE   N05  Dn3
 BYTE   W06
 BYTE   Gn0  v120
 BYTE   W06
 BYTE   Gn1
 BYTE   N05  As2  v080
 BYTE   N05  Dn3
 BYTE   W06
 BYTE   As0  v120
 BYTE   W06
 BYTE   As1
 BYTE   N05  Cn3  v080
 BYTE   N05  En3
 BYTE   W06
 BYTE   As0  v120
 BYTE   W06
 BYTE   As1
 BYTE   N05  Cn3  v080
 BYTE   N05  En3
 BYTE   W06
 BYTE   Cn1  v120
 BYTE   W06
 BYTE   Cn2  v080
 BYTE   W06
 BYTE   Cn1
 BYTE   W06
 BYTE   N11  Fn1  v120
 BYTE   W12
 BYTE   N05  Fn0  v080
 BYTE   W06
 BYTE   PEND 
//  #02 //014   ----------------------------------------
Label_01005C50:
 BYTE   N05  Fn1  v080
 BYTE   W06
 BYTE   Fs0
 BYTE   W90
 BYTE   PEND 
//  #02 //015   ----------------------------------------
 BYTE   W96
//  #02 //016   ----------------------------------------
 BYTE   W96
//  #02 //017   ----------------------------------------
 BYTE   W96
//  #02 //018   ----------------------------------------
Label_01005C5A:
 BYTE   W12
 BYTE   N05  Ds0  v080
 BYTE   N23  Dn4  v096
 BYTE   W06
 BYTE   N05  Ds1  v080
 BYTE   W06
 BYTE   Ds0
 BYTE   W06
 BYTE   Ds1
 BYTE   W06
 BYTE   Ds0
 BYTE   N23  Ds4  v096
 BYTE   W06
 BYTE   N05  Ds1  v080
 BYTE   W06
 BYTE   Ds0
 BYTE   W06
 BYTE   Ds1
 BYTE   W06
 BYTE   Ds0
 BYTE   N23  Fn4  v096
 BYTE   W06
 BYTE   N05  Ds1  v080
 BYTE   W06
 BYTE   Ds0
 BYTE   W06
 BYTE   Ds1
 BYTE   W06
 BYTE   Ds0
 BYTE   N05  An4  v096
 BYTE   W06
 BYTE   Ds1  v080
 BYTE   N05  As4  v096
 BYTE   W06
//  #02 //019   ----------------------------------------
 BYTE   Ds0  v080
 BYTE   W06
 BYTE   Ds1
 BYTE   N76  Cn5  v096  gtp1
 BYTE   W06
 BYTE   N05  Dn0  v080
 BYTE   W06
 BYTE   Dn1
 BYTE   W06
 BYTE   Dn0
 BYTE   W06
 BYTE   Dn1
 BYTE   W06
 BYTE   Dn0
 BYTE   W06
 BYTE   Dn1
 BYTE   W06
 BYTE   Dn0
 BYTE   W06
 BYTE   Dn1
 BYTE   W06
 BYTE   Gn0
 BYTE   W06
 BYTE   Gn1
 BYTE   W06
 BYTE   Gn0
 BYTE   W06
 BYTE   Gn1
 BYTE   W06
 BYTE   Gn0
 BYTE   N05  Fn4  v096
 BYTE   W06
 BYTE   Gn1  v080
 BYTE   N05  Gn4  v096
 BYTE   W06
//  #02 //020   ----------------------------------------
 BYTE   Gn0  v080
 BYTE   W06
 BYTE   Gn1
 BYTE   N28  An4  v096  gtp1
 BYTE   W06
 BYTE   N05  Cn1  v080
 BYTE   W06
 BYTE   Cn2
 BYTE   W06
 BYTE   Cn1
 BYTE   W06
 BYTE   Cn2
 BYTE   W06
 BYTE   Cn1
 BYTE   N05  Fn4  v096
 BYTE   W06
 BYTE   Cn2  v080
 BYTE   N05  Gn4  v096
 BYTE   W06
 BYTE   Cn1  v080
 BYTE   W06
 BYTE   Cn2
 BYTE   N05  An4  v096
 BYTE   W06
 BYTE   Fn0  v080
 BYTE   W06
 BYTE   Fn1
 BYTE   N05  An4  v096
 BYTE   W06
 BYTE   Fn0  v080
 BYTE   W06
 BYTE   Fn1
 BYTE   N05  Gn4  v096
 BYTE   W06
 BYTE   Fn0  v080
 BYTE   N11  Fn4  v096
 BYTE   W06
 BYTE   N05  Fn1  v080
 BYTE   W06
//  #02 //021   ----------------------------------------
 BYTE   Fn0
 BYTE   N11  Dn4  v096
 BYTE   W06
 BYTE   N05  Fn1  v080
 BYTE   W06
 BYTE   As0
 BYTE   N23  Fn4  v096
 BYTE   W06
 BYTE   N05  As1  v080
 BYTE   W06
 BYTE   As0
 BYTE   W06
 BYTE   As1
 BYTE   W06
 BYTE   As0
 BYTE   N23  Ds4  v096
 BYTE   N23  Gn4
 BYTE   W06
 BYTE   N05  As1  v080
 BYTE   W06
 BYTE   As0
 BYTE   W06
 BYTE   As1
 BYTE   W06
 BYTE   As0
 BYTE   N44  Fn4  v096  gtp3
 BYTE   Gs4
 BYTE   W06
 BYTE   N05  As1  v080
 BYTE   W06
 BYTE   As0
 BYTE   W06
 BYTE   As1
 BYTE   W06
 BYTE   As0
 BYTE   W06
 BYTE   As1
 BYTE   W06
//  #02 //022   ----------------------------------------
 BYTE   As0
 BYTE   W06
 BYTE   As1
 BYTE   W06
 BYTE   Ds0
 BYTE   N23  As3  v096
 BYTE   W06
 BYTE   N05  Ds1  v080
 BYTE   W06
 BYTE   Ds0
 BYTE   W06
 BYTE   Ds1
 BYTE   W06
 BYTE   Ds0
 BYTE   N23  Cn4  v096
 BYTE   W06
 BYTE   N05  Ds1  v080
 BYTE   W06
 BYTE   Ds0
 BYTE   W06
 BYTE   Ds1
 BYTE   W06
 BYTE   Ds0
 BYTE   N23  Dn4  v096
 BYTE   W06
 BYTE   N05  Ds1  v080
 BYTE   W06
 BYTE   Ds0
 BYTE   W06
 BYTE   Ds1
 BYTE   W06
 BYTE   Ds0
 BYTE   N05  Dn4  v096
 BYTE   W06
 BYTE   Ds1  v080
 BYTE   N05  Ds4  v096
 BYTE   W06
//  #02 //023   ----------------------------------------
 BYTE   Ds0  v080
 BYTE   W06
 BYTE   Ds1
 BYTE   N76  Fn4  v096  gtp1
 BYTE   W06
 BYTE   N05  Dn0  v080
 BYTE   W06
 BYTE   Dn1
 BYTE   W06
 BYTE   Dn0
 BYTE   W06
 BYTE   Dn1
 BYTE   W06
 BYTE   Dn0
 BYTE   W06
 BYTE   Dn1
 BYTE   W06
 BYTE   Dn0
 BYTE   W06
 BYTE   Dn1
 BYTE   W06
 BYTE   Gn0
 BYTE   W06
 BYTE   Gn1
 BYTE   W06
 BYTE   Gn0
 BYTE   W06
 BYTE   Gn1
 BYTE   W06
 BYTE   Gn0
 BYTE   W06
 BYTE   Gn1
 BYTE   W06
//  #02 //024   ----------------------------------------
 BYTE   Gn0
 BYTE   W06
 BYTE   Gn1
 BYTE   W06
 BYTE   Cn1
 BYTE   N11  Ds4  v096
 BYTE   W06
 BYTE   N05  Cn2  v080
 BYTE   W06
 BYTE   Cn1
 BYTE   N11  Fn4  v096
 BYTE   W06
 BYTE   N05  Cn2  v080
 BYTE   W06
 BYTE   Cn1
 BYTE   N44  Gn4  v096  gtp3
 BYTE   W06
 BYTE   N05  Cn2  v080
 BYTE   W06
 BYTE   Cn1
 BYTE   W06
 BYTE   Cn2
 BYTE   W06
 BYTE   Cn1
 BYTE   W06
 BYTE   Cn2
 BYTE   W06
 BYTE   Cn1
 BYTE   W06
 BYTE   Cn2
 BYTE   W06
 BYTE   Cn1
 BYTE   W06
 BYTE   Cn2
 BYTE   W06
//  #02 //025   ----------------------------------------
 BYTE   Cn1
 BYTE   W06
 BYTE   Cn2
 BYTE   W06
 BYTE   Fn0
 BYTE   N11  Ds4  v096
 BYTE   W06
 BYTE   N05  Fn1  v080
 BYTE   W06
 BYTE   Fn0
 BYTE   N11  Fn4  v096
 BYTE   W06
 BYTE   N05  Fn1  v080
 BYTE   W06
 BYTE   Fn0
 BYTE   N23  Gn4  v096
 BYTE   W06
 BYTE   N05  Fn1  v080
 BYTE   W06
 BYTE   Fn0
 BYTE   W06
 BYTE   Fn1
 BYTE   W06
 BYTE   Fn0
 BYTE   N02  Gn4  v096
 BYTE   W02
 BYTE   N09  An4
 BYTE   W04
 BYTE   N05  Fn1  v080
 BYTE   W06
 BYTE   Fn0
 BYTE   N11  Gn4  v096
 BYTE   W06
 BYTE   N05  Fn1  v080
 BYTE   W06
 BYTE   Fn0
 BYTE   N11  Fn4  v096
 BYTE   W06
 BYTE   N05  Fn1  v080
 BYTE   W06
//  #02 //026   ----------------------------------------
 BYTE   Fn0
 BYTE   TIE  Gn4  v096
 BYTE   W06
 BYTE   N05  Fn1  v080
 BYTE   W06
 BYTE   Gn0  v120
 BYTE   W06
 BYTE   Gn1
 BYTE   W06
 BYTE   Gn0
 BYTE   W06
 BYTE   Gn1
 BYTE   W06
 BYTE   As0
 BYTE   W06
 BYTE   As1
 BYTE   W06
 BYTE   As0
 BYTE   W06
 BYTE   As1
 BYTE   W06
 BYTE   Cn1
 BYTE   W06
 BYTE   Cn2  v080
 BYTE   W06
 BYTE   Cn1
 BYTE   W06
 BYTE   N11  Fn1  v120
 BYTE   W12
 BYTE   N05  Fn0  v080
 BYTE   W06
//  #02 //027   ----------------------------------------
 BYTE   Fn1
 BYTE   W06
 BYTE   Fs0
 BYTE   W05
 BYTE   EOT
 BYTE   Gn4
 BYTE   W01
 BYTE   N05  Gn0  v120
 BYTE   W06
 BYTE   Gn1
 BYTE   W06
 BYTE   Gn0
 BYTE   W06
 BYTE   Gn1
 BYTE   W06
 BYTE   As0
 BYTE   W06
 BYTE   As1
 BYTE   W06
 BYTE   As0
 BYTE   W06
 BYTE   As1
 BYTE   W06
 BYTE   Cn1
 BYTE   W06
 BYTE   Cn2  v080
 BYTE   W06
 BYTE   Cn1
 BYTE   W06
 BYTE   N11  Fn1  v120
 BYTE   W12
 BYTE   N05  Fn0  v080
 BYTE   W06
//  #02 //028   ----------------------------------------
 BYTE   PATT
  POIN2 Label_01005ABB
//  #02 //029   ----------------------------------------
 BYTE   PATT
  POIN2 Label_01005ABB
//  #02 //030   ----------------------------------------
 BYTE   PATT
  POIN2 Label_01005ABB
//  #02 //031   ----------------------------------------
 BYTE   PATT
  POIN2 Label_01005ABB
//  #02 //032   ----------------------------------------
 BYTE   PATT
  POIN2 Label_01005ABB
//  #02 //033   ----------------------------------------
 BYTE   PATT
  POIN2 Label_01005AE7
//  #02 //034   ----------------------------------------
 BYTE   PATT
  POIN2 Label_01005A98
//  #02 //035   ----------------------------------------
 BYTE   PATT
  POIN2 Label_01005ABB
//  #02 //036   ----------------------------------------
 BYTE   PATT
  POIN2 Label_01005ABB
//  #02 //037   ----------------------------------------
 BYTE   PATT
  POIN2 Label_01005ABB
//  #02 //038   ----------------------------------------
 BYTE   PATT
  POIN2 Label_01005B13
//  #02 //039   ----------------------------------------
 BYTE   PATT
  POIN2 Label_01005B61
//  #02 //040   ----------------------------------------
 BYTE   PATT
  POIN2 Label_01005BB5
//  #02 //041   ----------------------------------------
 BYTE   PATT
  POIN2 Label_01005C07
//  #02 //042   ----------------------------------------
 BYTE   PATT
  POIN2 Label_01005C50
//  #02 //043   ----------------------------------------
 BYTE   W96
//  #02 //044   ----------------------------------------
 BYTE   W96
//  #02 //045   ----------------------------------------
 BYTE   W96
//  #02 //046   ----------------------------------------
 BYTE   GoTo
  POIN2 Label_01005C5A
//  #02 //047   ----------------------------------------
 BYTE   W12
 BYTE   N05  Ds0  v080
 BYTE   N23  Dn4  v096
 BYTE   W06
 BYTE   N05  Ds1  v080
 BYTE   W06
 BYTE   Ds0
 BYTE   W06
 BYTE   Ds1
 BYTE   W06
 BYTE   Ds0
 BYTE   N23  Ds4  v096
 BYTE   W06
 BYTE   N05  Ds1  v080
 BYTE   W06
 BYTE   Ds0
 BYTE   W06
 BYTE   Ds1
 BYTE   W06
 BYTE   Ds0
 BYTE   N23  Fn4  v096
 BYTE   W06
 BYTE   N05  Ds1  v080
 BYTE   W06
 BYTE   Ds0
 BYTE   W06
 BYTE   Ds1
 BYTE   W06
 BYTE   Ds0
 BYTE   N05  An4  v096
 BYTE   W06
 BYTE   Ds1  v080
 BYTE   N05  As4  v096
 BYTE   W06
 BYTE   FINE

//**************** Track 3 (Midi-Chn.2) ****************//

TimeToMakeHistory_003:
//  #03 //000   ----------------------------------------
 BYTE   KEYSH   TimeToMakeHistory_key+0
 BYTE   VOICE   30
 BYTE   VOL   40*TimeToMakeHistory_mvl/mxv
 BYTE   N05  Fn1  v080
 BYTE   W06
 BYTE   Fs1
 BYTE   W06
 BYTE   Gn1
 BYTE   W06
 BYTE   As1
 BYTE   W12
 BYTE   As1
 BYTE   W12
 BYTE   As1
 BYTE   W06
 BYTE   N11  Cn2
 BYTE   W48
//  #03 //001   ----------------------------------------
 BYTE   N05  Fn1
 BYTE   W06
 BYTE   Gn1
 BYTE   W06
 BYTE   Gn1
 BYTE   W06
 BYTE   As1
 BYTE   W12
 BYTE   As1
 BYTE   W12
 BYTE   As1
 BYTE   W06
 BYTE   N11  Fn1
 BYTE   W48
//  #03 //002   ----------------------------------------
Label_010055FB:
 BYTE   W12
 BYTE   N05  Gn1  v096
 BYTE   W06
 BYTE   Gn1
 BYTE   W06
 BYTE   Gn1
 BYTE   W06
 BYTE   Gn1
 BYTE   W06
 BYTE   As1
 BYTE   W06
 BYTE   As1
 BYTE   W06
 BYTE   As1
 BYTE   W06
 BYTE   As1
 BYTE   W06
 BYTE   Cn2
 BYTE   W06
 BYTE   Cn2
 BYTE   W06
 BYTE   Cn2
 BYTE   W06
 BYTE   N11  Fn1
 BYTE   W12
 BYTE   N05
 BYTE   W06
 BYTE   PEND 
//  #03 //003   ----------------------------------------
Label_0100561A:
 BYTE   N05  Fn1  v096
 BYTE   W06
 BYTE   Fs1
 BYTE   W06
 BYTE   Gn1
 BYTE   W06
 BYTE   Gn1
 BYTE   W06
 BYTE   Gn1
 BYTE   W06
 BYTE   Gn1
 BYTE   W06
 BYTE   As1
 BYTE   W06
 BYTE   As1
 BYTE   W06
 BYTE   As1
 BYTE   W06
 BYTE   As1
 BYTE   W06
 BYTE   Cn2
 BYTE   W06
 BYTE   Cn2
 BYTE   W06
 BYTE   Cn2
 BYTE   W06
 BYTE   N11  Fn1
 BYTE   W12
 BYTE   N05
 BYTE   W06
 BYTE   PEND 
//  #03 //004   ----------------------------------------
 BYTE   PATT
  POIN2 Label_0100561A
//  #03 //005   ----------------------------------------
Label_01005641:
 BYTE   N05  Fn1  v096
 BYTE   W06
 BYTE   Fs1
 BYTE   W06
 BYTE   Gn1
 BYTE   W06
 BYTE   Gn1
 BYTE   W06
 BYTE   Gn1
 BYTE   W06
 BYTE   Gn1
 BYTE   W06
 BYTE   As1
 BYTE   W06
 BYTE   As1
 BYTE   W06
 BYTE   As1
 BYTE   W06
 BYTE   As1
 BYTE   W06
 BYTE   N11  Cn2
 BYTE   W12
 BYTE   N05
 BYTE   W06
 BYTE   N23  Fn1
 BYTE   W18
 BYTE   PEND 
//  #03 //006   ----------------------------------------
 BYTE   W96
//  #03 //007   ----------------------------------------
 BYTE   W96
//  #03 //008   ----------------------------------------
 BYTE   W96
//  #03 //009   ----------------------------------------
 BYTE   W96
//  #03 //010   ----------------------------------------
 BYTE   PATT
  POIN2 Label_010055FB
//  #03 //011   ----------------------------------------
 BYTE   PATT
  POIN2 Label_0100561A
//  #03 //012   ----------------------------------------
 BYTE   PATT
  POIN2 Label_0100561A
//  #03 //013   ----------------------------------------
 BYTE   PATT
  POIN2 Label_0100561A
//  #03 //014   ----------------------------------------
Label_01005678:
 BYTE   N05  Fn1  v096
 BYTE   W06
 BYTE   Fs1
 BYTE   W06
 BYTE   Gn1
 BYTE   W06
 BYTE   Gn1
 BYTE   W18
 BYTE   As1
 BYTE   W06
 BYTE   As1
 BYTE   W18
 BYTE   Cn2
 BYTE   W06
 BYTE   Cn2
 BYTE   W12
 BYTE   N11  Fn1
 BYTE   W12
 BYTE   N05
 BYTE   W06
 BYTE   PEND 
//  #03 //015   ----------------------------------------
Label_01005690:
 BYTE   N05  Fn1  v096
 BYTE   W06
 BYTE   Fs1
 BYTE   W06
 BYTE   Gn1
 BYTE   W06
 BYTE   As1
 BYTE   W12
 BYTE   As1
 BYTE   W12
 BYTE   As1
 BYTE   W12
 BYTE   Cn2
 BYTE   W12
 BYTE   Cn2
 BYTE   W12
 BYTE   N11  Fn1
 BYTE   W12
 BYTE   N05
 BYTE   W06
 BYTE   PEND 
//  #03 //016   ----------------------------------------
 BYTE   PATT
  POIN2 Label_01005678
//  #03 //017   ----------------------------------------
 BYTE   PATT
  POIN2 Label_01005690
//  #03 //018   ----------------------------------------
Label_010056B2:
 BYTE   N05  Fn1  v096
 BYTE   W06
 BYTE   Fn1
 BYTE   W06
 BYTE   Ds1
 BYTE   W06
 BYTE   Ds1
 BYTE   W06
 BYTE   Ds1
 BYTE   W06
 BYTE   Ds1
 BYTE   W06
 BYTE   Ds1
 BYTE   W06
 BYTE   Ds1
 BYTE   W06
 BYTE   Ds1
 BYTE   W06
 BYTE   Ds1
 BYTE   W06
 BYTE   Ds2
 BYTE   W06
 BYTE   Ds2
 BYTE   W06
 BYTE   Ds2
 BYTE   W06
 BYTE   Ds2
 BYTE   W06
 BYTE   Ds2
 BYTE   W06
 BYTE   Ds2
 BYTE   W06
//  #03 //019   ----------------------------------------
Label_010056D4:
 BYTE   N05  Ds2  v096
 BYTE   W06
 BYTE   Ds2
 BYTE   W06
 BYTE   Dn2
 BYTE   W06
 BYTE   Dn2
 BYTE   W06
 BYTE   Dn2
 BYTE   W06
 BYTE   Dn2
 BYTE   W06
 BYTE   Dn2
 BYTE   W06
 BYTE   Dn2
 BYTE   W06
 BYTE   Dn2
 BYTE   W06
 BYTE   N11  Gn1
 BYTE   W12
 BYTE   Gn1
 BYTE   W12
 BYTE   N05
 BYTE   W06
 BYTE   Gn1
 BYTE   W06
 BYTE   Gn1
 BYTE   W06
 BYTE   PEND 
//  #03 //020   ----------------------------------------
 BYTE   Gn1
 BYTE   W06
 BYTE   Gn1
 BYTE   W06
 BYTE   Cn2
 BYTE   W06
 BYTE   Cn2
 BYTE   W06
 BYTE   Cn2
 BYTE   W06
 BYTE   Cn2
 BYTE   W06
 BYTE   Cn2
 BYTE   W06
 BYTE   Cn2
 BYTE   W06
 BYTE   Cn2
 BYTE   W06
 BYTE   Cn2
 BYTE   W06
 BYTE   Fn1
 BYTE   W06
 BYTE   Fn1
 BYTE   W06
 BYTE   Fn1
 BYTE   W06
 BYTE   Fn1
 BYTE   W06
 BYTE   Fn1
 BYTE   W06
 BYTE   Fn1
 BYTE   W06
//  #03 //021   ----------------------------------------
 BYTE   Fn1
 BYTE   W06
 BYTE   Fn1
 BYTE   W06
 BYTE   As1
 BYTE   W06
 BYTE   As1
 BYTE   W06
 BYTE   As1
 BYTE   W06
 BYTE   As1
 BYTE   W06
 BYTE   As1
 BYTE   W06
 BYTE   As1
 BYTE   W06
 BYTE   As1
 BYTE   W06
 BYTE   As1
 BYTE   W06
 BYTE   As1
 BYTE   W06
 BYTE   As1
 BYTE   W06
 BYTE   As1
 BYTE   W06
 BYTE   As1
 BYTE   W06
 BYTE   As1
 BYTE   W06
 BYTE   As1
 BYTE   W06
//  #03 //022   ----------------------------------------
 BYTE   As1
 BYTE   W06
 BYTE   As1
 BYTE   W06
 BYTE   Ds1
 BYTE   W06
 BYTE   Ds1
 BYTE   W06
 BYTE   Ds1
 BYTE   W06
 BYTE   Ds1
 BYTE   W06
 BYTE   Ds1
 BYTE   W06
 BYTE   Ds1
 BYTE   W06
 BYTE   Ds1
 BYTE   W06
 BYTE   Ds1
 BYTE   W06
 BYTE   Ds2
 BYTE   W06
 BYTE   Ds2
 BYTE   W06
 BYTE   Ds2
 BYTE   W06
 BYTE   Ds2
 BYTE   W06
 BYTE   Ds2
 BYTE   W06
 BYTE   Ds2
 BYTE   W06
//  #03 //023   ----------------------------------------
 BYTE   PATT
  POIN2 Label_010056D4
//  #03 //024   ----------------------------------------
 BYTE   N05  Gn1  v096
 BYTE   W06
 BYTE   Gn1
 BYTE   W06
 BYTE   Cn2
 BYTE   W06
 BYTE   Cn2
 BYTE   W06
 BYTE   Cn2
 BYTE   W06
 BYTE   Cn2
 BYTE   W06
 BYTE   Cn2
 BYTE   W06
 BYTE   Cn2
 BYTE   W06
 BYTE   Cn2
 BYTE   W06
 BYTE   Cn2
 BYTE   W06
 BYTE   Cn2
 BYTE   W06
 BYTE   Cn2
 BYTE   W06
 BYTE   Cn2
 BYTE   W06
 BYTE   Cn2
 BYTE   W06
 BYTE   Cn2
 BYTE   W06
 BYTE   Cn2
 BYTE   W06
//  #03 //025   ----------------------------------------
 BYTE   Cn2
 BYTE   W06
 BYTE   Cn2
 BYTE   W06
 BYTE   Fn1
 BYTE   W06
 BYTE   Fn1
 BYTE   W06
 BYTE   Fn1
 BYTE   W06
 BYTE   Fn1
 BYTE   W06
 BYTE   Fn1
 BYTE   W06
 BYTE   Fn1
 BYTE   W06
 BYTE   Fn1
 BYTE   W06
 BYTE   Fn1
 BYTE   W06
 BYTE   Fn1
 BYTE   W06
 BYTE   Fn1
 BYTE   W06
 BYTE   Fn1
 BYTE   W06
 BYTE   Fn1
 BYTE   W06
 BYTE   Fn1
 BYTE   W06
 BYTE   Fn1
 BYTE   W06
//  #03 //026   ----------------------------------------
 BYTE   Fn1
 BYTE   W06
 BYTE   Fs1
 BYTE   W90
//  #03 //027   ----------------------------------------
 BYTE   W96
//  #03 //028   ----------------------------------------
 BYTE   W96
//  #03 //029   ----------------------------------------
 BYTE   W96
//  #03 //030   ----------------------------------------
 BYTE   PATT
  POIN2 Label_010055FB
//  #03 //031   ----------------------------------------
 BYTE   PATT
  POIN2 Label_0100561A
//  #03 //032   ----------------------------------------
 BYTE   PATT
  POIN2 Label_0100561A
//  #03 //033   ----------------------------------------
 BYTE   PATT
  POIN2 Label_01005641
//  #03 //034   ----------------------------------------
 BYTE   W96
//  #03 //035   ----------------------------------------
 BYTE   W96
//  #03 //036   ----------------------------------------
 BYTE   W96
//  #03 //037   ----------------------------------------
 BYTE   W96
//  #03 //038   ----------------------------------------
 BYTE   PATT
  POIN2 Label_010055FB
//  #03 //039   ----------------------------------------
 BYTE   PATT
  POIN2 Label_0100561A
//  #03 //040   ----------------------------------------
 BYTE   PATT
  POIN2 Label_0100561A
//  #03 //041   ----------------------------------------
 BYTE   PATT
  POIN2 Label_0100561A
//  #03 //042   ----------------------------------------
 BYTE   PATT
  POIN2 Label_01005678
//  #03 //043   ----------------------------------------
 BYTE   PATT
  POIN2 Label_01005690
//  #03 //044   ----------------------------------------
 BYTE   PATT
  POIN2 Label_01005678
//  #03 //045   ----------------------------------------
 BYTE   PATT
  POIN2 Label_01005690
//  #03 //046   ----------------------------------------
 BYTE   N05  Fn1  v096
 BYTE   GoTo
  POIN2 Label_010056B2
//  #03 //047   ----------------------------------------
 BYTE   W06
 BYTE   Fn1
 BYTE   W06
 BYTE   Ds1
 BYTE   W06
 BYTE   Ds1
 BYTE   W06
 BYTE   Ds1
 BYTE   W06
 BYTE   Ds1
 BYTE   W06
 BYTE   Ds1
 BYTE   W06
 BYTE   Ds1
 BYTE   W06
 BYTE   Ds1
 BYTE   W06
 BYTE   Ds1
 BYTE   W06
 BYTE   Ds2
 BYTE   W06
 BYTE   Ds2
 BYTE   W06
 BYTE   Ds2
 BYTE   W06
 BYTE   Ds2
 BYTE   W06
 BYTE   Ds2
 BYTE   W06
 BYTE   Ds2
 BYTE   W06
 BYTE   FINE

//**************** Track 4 (Midi-Chn.3) ****************//

TimeToMakeHistory_004:
//  #04 //000   ----------------------------------------
 BYTE   KEYSH   TimeToMakeHistory_key+0
 BYTE   VOICE   38
 BYTE   VOL   40*TimeToMakeHistory_mvl/mxv
 BYTE   N05  Fn0  v080
 BYTE   W06
 BYTE   Fs0
 BYTE   W06
 BYTE   Gn0
 BYTE   W06
 BYTE   As0
 BYTE   W12
 BYTE   As0
 BYTE   W12
 BYTE   As0
 BYTE   W06
 BYTE   N11  Cn1
 BYTE   W48
//  #04 //001   ----------------------------------------
 BYTE   N05  Fn0
 BYTE   W06
 BYTE   Fn0
 BYTE   W06
 BYTE   Gn0
 BYTE   W06
 BYTE   As0
 BYTE   W12
 BYTE   As0
 BYTE   W12
 BYTE   As0
 BYTE   W06
 BYTE   N11  Fn0
 BYTE   W48
//  #04 //002   ----------------------------------------
 BYTE   W12
 BYTE   N05  Gn0  v096
 BYTE   W06
 BYTE   Gn0
 BYTE   W06
 BYTE   Gn0
 BYTE   W06
 BYTE   Gn0
 BYTE   W06
 BYTE   As0
 BYTE   W06
 BYTE   As0
 BYTE   W06
 BYTE   As0
 BYTE   W06
 BYTE   As0
 BYTE   W06
 BYTE   Cn1
 BYTE   W06
 BYTE   Cn1
 BYTE   W06
 BYTE   Cn1
 BYTE   W06
 BYTE   N11  Fn0
 BYTE   W12
 BYTE   N05
 BYTE   W06
//  #04 //003   ----------------------------------------
Label_01005861:
 BYTE   N05  Fn0  v096
 BYTE   W06
 BYTE   Fs0
 BYTE   W06
 BYTE   Gn0
 BYTE   W06
 BYTE   Gn0
 BYTE   W06
 BYTE   Gn0
 BYTE   W06
 BYTE   Gn0
 BYTE   W06
 BYTE   As0
 BYTE   W06
 BYTE   As0
 BYTE   W06
 BYTE   As0
 BYTE   W06
 BYTE   As0
 BYTE   W06
 BYTE   Cn1
 BYTE   W06
 BYTE   Cn1
 BYTE   W06
 BYTE   Cn1
 BYTE   W06
 BYTE   N11  Fn0
 BYTE   W12
 BYTE   N05
 BYTE   W06
 BYTE   PEND 
//  #04 //004   ----------------------------------------
 BYTE   PATT
  POIN2 Label_01005861
//  #04 //005   ----------------------------------------
Label_01005888:
 BYTE   N05  Fn0  v096
 BYTE   W06
 BYTE   Fs0
 BYTE   W06
 BYTE   Gn0
 BYTE   W06
 BYTE   Gn0
 BYTE   W06
 BYTE   Gn0
 BYTE   W06
 BYTE   Gn0
 BYTE   W06
 BYTE   As0
 BYTE   W06
 BYTE   As0
 BYTE   W06
 BYTE   As0
 BYTE   W06
 BYTE   As0
 BYTE   W06
 BYTE   N11  Cn1
 BYTE   W12
 BYTE   N05
 BYTE   W06
 BYTE   N17  Fn0
 BYTE   W18
 BYTE   PEND 
//  #04 //006   ----------------------------------------
 BYTE   PATT
  POIN2 Label_01005861
//  #04 //007   ----------------------------------------
 BYTE   PATT
  POIN2 Label_01005861
//  #04 //008   ----------------------------------------
 BYTE   PATT
  POIN2 Label_01005861
//  #04 //009   ----------------------------------------
 BYTE   PATT
  POIN2 Label_01005861
//  #04 //010   ----------------------------------------
 BYTE   PATT
  POIN2 Label_01005861
//  #04 //011   ----------------------------------------
 BYTE   PATT
  POIN2 Label_01005861
//  #04 //012   ----------------------------------------
 BYTE   PATT
  POIN2 Label_01005861
//  #04 //013   ----------------------------------------
 BYTE   PATT
  POIN2 Label_01005861
//  #04 //014   ----------------------------------------
Label_010058CF:
 BYTE   N05  Fn0  v096
 BYTE   W06
 BYTE   Fs0
 BYTE   W06
 BYTE   Gn0
 BYTE   W06
 BYTE   Gn0
 BYTE   W18
 BYTE   As0
 BYTE   W06
 BYTE   As0
 BYTE   W18
 BYTE   Cn1
 BYTE   W06
 BYTE   Cn1
 BYTE   W12
 BYTE   N11  Fn0
 BYTE   W12
 BYTE   N05
 BYTE   W06
 BYTE   PEND 
//  #04 //015   ----------------------------------------
Label_010058E7:
 BYTE   N05  Fn0  v096
 BYTE   W06
 BYTE   Fs0
 BYTE   W06
 BYTE   Gn0
 BYTE   W06
 BYTE   As0
 BYTE   W12
 BYTE   As0
 BYTE   W12
 BYTE   As0
 BYTE   W12
 BYTE   Cn1
 BYTE   W12
 BYTE   Cn1
 BYTE   W12
 BYTE   N11  Fn0
 BYTE   W12
 BYTE   N05
 BYTE   W06
 BYTE   PEND 
//  #04 //016   ----------------------------------------
 BYTE   PATT
  POIN2 Label_010058CF
//  #04 //017   ----------------------------------------
 BYTE   PATT
  POIN2 Label_010058E7
//  #04 //018   ----------------------------------------
Label_01005909:
 BYTE   N05  Fn0  v096
 BYTE   W06
 BYTE   Fn0
 BYTE   W06
 BYTE   Ds0
 BYTE   W06
 BYTE   Ds0
 BYTE   W06
 BYTE   Ds0
 BYTE   W06
 BYTE   Ds0
 BYTE   W06
 BYTE   Ds0
 BYTE   W06
 BYTE   Ds0
 BYTE   W06
 BYTE   Ds0
 BYTE   W06
 BYTE   Ds0
 BYTE   W06
 BYTE   Ds1
 BYTE   W06
 BYTE   Ds1
 BYTE   W06
 BYTE   Ds1
 BYTE   W06
 BYTE   Ds1
 BYTE   W06
 BYTE   Ds1
 BYTE   W06
 BYTE   Ds1
 BYTE   W06
//  #04 //019   ----------------------------------------
Label_0100592B:
 BYTE   N05  Ds1  v096
 BYTE   W06
 BYTE   Ds1
 BYTE   W06
 BYTE   Dn1
 BYTE   W06
 BYTE   Dn1
 BYTE   W06
 BYTE   Dn1
 BYTE   W06
 BYTE   Dn1
 BYTE   W06
 BYTE   Dn1
 BYTE   W06
 BYTE   Dn1
 BYTE   W06
 BYTE   Dn1
 BYTE   W06
 BYTE   N11  Gn0
 BYTE   W12
 BYTE   Gn0
 BYTE   W12
 BYTE   N05
 BYTE   W06
 BYTE   Gn0
 BYTE   W06
 BYTE   Gn0
 BYTE   W06
 BYTE   PEND 
//  #04 //020   ----------------------------------------
 BYTE   Gn0
 BYTE   W06
 BYTE   Gn0
 BYTE   W06
 BYTE   Cn1
 BYTE   W06
 BYTE   Cn1
 BYTE   W06
 BYTE   Cn1
 BYTE   W06
 BYTE   Cn1
 BYTE   W06
 BYTE   Cn1
 BYTE   W06
 BYTE   Cn1
 BYTE   W06
 BYTE   Cn1
 BYTE   W06
 BYTE   Cn1
 BYTE   W06
 BYTE   Fn0
 BYTE   W06
 BYTE   Fn0
 BYTE   W06
 BYTE   Fn0
 BYTE   W06
 BYTE   Fn0
 BYTE   W06
 BYTE   Fn0
 BYTE   W06
 BYTE   Fn0
 BYTE   W06
//  #04 //021   ----------------------------------------
 BYTE   Fn0
 BYTE   W06
 BYTE   Fn0
 BYTE   W06
 BYTE   As0
 BYTE   W06
 BYTE   As0
 BYTE   W06
 BYTE   As0
 BYTE   W06
 BYTE   As0
 BYTE   W06
 BYTE   As0
 BYTE   W06
 BYTE   As0
 BYTE   W06
 BYTE   As0
 BYTE   W06
 BYTE   As0
 BYTE   W06
 BYTE   As0
 BYTE   W06
 BYTE   As0
 BYTE   W06
 BYTE   As0
 BYTE   W06
 BYTE   As0
 BYTE   W06
 BYTE   As0
 BYTE   W06
 BYTE   As0
 BYTE   W06
//  #04 //022   ----------------------------------------
 BYTE   As0
 BYTE   W06
 BYTE   As0
 BYTE   W06
 BYTE   Ds0
 BYTE   W06
 BYTE   Ds0
 BYTE   W06
 BYTE   Ds0
 BYTE   W06
 BYTE   Ds0
 BYTE   W06
 BYTE   Ds0
 BYTE   W06
 BYTE   Ds0
 BYTE   W06
 BYTE   Ds0
 BYTE   W06
 BYTE   Ds0
 BYTE   W06
 BYTE   Ds1
 BYTE   W06
 BYTE   Ds1
 BYTE   W06
 BYTE   Ds1
 BYTE   W06
 BYTE   Ds1
 BYTE   W06
 BYTE   Ds1
 BYTE   W06
 BYTE   Ds1
 BYTE   W06
//  #04 //023   ----------------------------------------
 BYTE   PATT
  POIN2 Label_0100592B
//  #04 //024   ----------------------------------------
 BYTE   N05  Gn0  v096
 BYTE   W06
 BYTE   Gn0
 BYTE   W06
 BYTE   Cn1
 BYTE   W06
 BYTE   Cn1
 BYTE   W06
 BYTE   Cn1
 BYTE   W06
 BYTE   Cn1
 BYTE   W06
 BYTE   Cn1
 BYTE   W06
 BYTE   Cn1
 BYTE   W06
 BYTE   Cn1
 BYTE   W06
 BYTE   Cn1
 BYTE   W06
 BYTE   Cn1
 BYTE   W06
 BYTE   Cn1
 BYTE   W06
 BYTE   Cn1
 BYTE   W06
 BYTE   Cn1
 BYTE   W06
 BYTE   Cn1
 BYTE   W06
 BYTE   Cn1
 BYTE   W06
//  #04 //025   ----------------------------------------
 BYTE   Cn1
 BYTE   W06
 BYTE   Cn1
 BYTE   W06
 BYTE   Fn0
 BYTE   W06
 BYTE   Fn0
 BYTE   W06
 BYTE   Fn0
 BYTE   W06
 BYTE   Fn0
 BYTE   W06
 BYTE   Fn0
 BYTE   W06
 BYTE   Fn0
 BYTE   W06
 BYTE   Fn0
 BYTE   W06
 BYTE   Fn0
 BYTE   W06
 BYTE   Fn0
 BYTE   W06
 BYTE   Fn0
 BYTE   W06
 BYTE   Fn0
 BYTE   W06
 BYTE   Fn0
 BYTE   W06
 BYTE   Fn0
 BYTE   W06
 BYTE   Fn0
 BYTE   W06
//  #04 //026   ----------------------------------------
 BYTE   PATT
  POIN2 Label_01005861
//  #04 //027   ----------------------------------------
 BYTE   PATT
  POIN2 Label_01005861
//  #04 //028   ----------------------------------------
 BYTE   PATT
  POIN2 Label_01005861
//  #04 //029   ----------------------------------------
 BYTE   PATT
  POIN2 Label_01005861
//  #04 //030   ----------------------------------------
 BYTE   PATT
  POIN2 Label_01005861
//  #04 //031   ----------------------------------------
 BYTE   PATT
  POIN2 Label_01005861
//  #04 //032   ----------------------------------------
 BYTE   PATT
  POIN2 Label_01005861
//  #04 //033   ----------------------------------------
 BYTE   PATT
  POIN2 Label_01005888
//  #04 //034   ----------------------------------------
 BYTE   PATT
  POIN2 Label_01005861
//  #04 //035   ----------------------------------------
 BYTE   PATT
  POIN2 Label_01005861
//  #04 //036   ----------------------------------------
 BYTE   PATT
  POIN2 Label_01005861
//  #04 //037   ----------------------------------------
 BYTE   PATT
  POIN2 Label_01005861
//  #04 //038   ----------------------------------------
 BYTE   PATT
  POIN2 Label_01005861
//  #04 //039   ----------------------------------------
 BYTE   PATT
  POIN2 Label_01005861
//  #04 //040   ----------------------------------------
 BYTE   PATT
  POIN2 Label_01005861
//  #04 //041   ----------------------------------------
 BYTE   PATT
  POIN2 Label_01005861
//  #04 //042   ----------------------------------------
 BYTE   PATT
  POIN2 Label_010058CF
//  #04 //043   ----------------------------------------
 BYTE   PATT
  POIN2 Label_010058E7
//  #04 //044   ----------------------------------------
 BYTE   PATT
  POIN2 Label_010058CF
//  #04 //045   ----------------------------------------
 BYTE   PATT
  POIN2 Label_010058E7
//  #04 //046   ----------------------------------------
 BYTE   N05  Fn0  v096
 BYTE   GoTo
  POIN2 Label_01005909
//  #04 //047   ----------------------------------------
 BYTE   W06
 BYTE   Fn0
 BYTE   W06
 BYTE   Ds0
 BYTE   W06
 BYTE   Ds0
 BYTE   W06
 BYTE   Ds0
 BYTE   W06
 BYTE   Ds0
 BYTE   W06
 BYTE   Ds0
 BYTE   W06
 BYTE   Ds0
 BYTE   W06
 BYTE   Ds0
 BYTE   W06
 BYTE   Ds0
 BYTE   W06
 BYTE   Ds1
 BYTE   W06
 BYTE   Ds1
 BYTE   W06
 BYTE   Ds1
 BYTE   W06
 BYTE   Ds1
 BYTE   W06
 BYTE   Ds1
 BYTE   W06
 BYTE   Ds1
 BYTE   W06
 BYTE   FINE

//**************** Track 5 (Midi-Chn.4) ****************//

TimeToMakeHistory_005:
//  #05 //000   ----------------------------------------
 BYTE   KEYSH   TimeToMakeHistory_key+0
 BYTE   VOICE   124
 BYTE   VOL   40*TimeToMakeHistory_mvl/mxv
 BYTE   N11  As1  v080
 BYTE   W12
 BYTE   Fs1
 BYTE   N11  Cs2
 BYTE   N44  Cn1  v080  gtp3
 BYTE   W12
 BYTE   N11  Fs1
 BYTE   W12
 BYTE   Fs1
 BYTE   W12
 BYTE   Fs1
 BYTE   W12
 BYTE   N05  Cn1
 BYTE   W06
 BYTE   As1
 BYTE   W06
 BYTE   En1
 BYTE   N05  Gs1
 BYTE   W06
 BYTE   Cn1
 BYTE   W06
 BYTE   As1
 BYTE   W06
 BYTE   En1
 BYTE   N05  Gs1
 BYTE   W06
//  #05 //001   ----------------------------------------
 BYTE   N11  Fs1
 BYTE   W12
 BYTE   Fs1
 BYTE   N44  Cn1  v080  gtp3
 BYTE   W12
 BYTE   N11  Fs1
 BYTE   W12
 BYTE   Fs1
 BYTE   W12
 BYTE   Fs1
 BYTE   W12
 BYTE   N02  Dn2
 BYTE   N11  Cn1
 BYTE   W03
 BYTE   N02  Dn2  v049
 BYTE   W03
 BYTE   Dn2
 BYTE   W03
 BYTE   Dn2
 BYTE   W03
 BYTE   Cn2  v080
 BYTE   N11  Cn1
 BYTE   W03
 BYTE   N02  Cn2  v049
 BYTE   W03
 BYTE   Cn2
 BYTE   W03
 BYTE   Cn2
 BYTE   W03
 BYTE   An1  v080
 BYTE   N11  Cn1
 BYTE   W03
 BYTE   N02  An1  v049
 BYTE   W03
 BYTE   An1
 BYTE   W03
 BYTE   An1
 BYTE   W03
//  #05 //002   ----------------------------------------
 BYTE   Fn1  v080
 BYTE   N02  Dn1
 BYTE   N02  As1
 BYTE   N11  Cn1
 BYTE   W03
 BYTE   N02  Fn1  v049
 BYTE   W03
 BYTE   Fn1
 BYTE   W03
 BYTE   Fn1
 BYTE   W03
 BYTE   N05  Fs1  v080
 BYTE   N05  Cs2
 BYTE   N05  Cn1
 BYTE   W06
 BYTE   Fs1
 BYTE   N05  Cn1
 BYTE   W06
 BYTE   Dn1
 BYTE   N05  Fs1
 BYTE   W06
 BYTE   Fs1
 BYTE   N05  Cn1
 BYTE   W06
 BYTE   Fs1
 BYTE   N05  Cn1
 BYTE   W06
 BYTE   Fs1
 BYTE   N05  Cn1
 BYTE   W06
 BYTE   Dn1
 BYTE   N05  Fs1
 BYTE   W06
 BYTE   Fs1
 BYTE   N05  Cn1
 BYTE   W06
 BYTE   Fs1
 BYTE   N05  Cn1
 BYTE   W06
 BYTE   Fs1
 BYTE   N05  Cn1
 BYTE   W06
 BYTE   Dn1
 BYTE   N05  Fs1
 BYTE   W06
 BYTE   N11  As1
 BYTE   N05  Cn1
 BYTE   W06
 BYTE   Cn1
 BYTE   W06
 BYTE   Fs1
 BYTE   N05  Cn1
 BYTE   W06
//  #05 //003   ----------------------------------------
Label_01006049:
 BYTE   N05  Dn1  v080
 BYTE   N05  Fs1
 BYTE   W06
 BYTE   Fs1
 BYTE   N05  Cn1
 BYTE   W06
 BYTE   Fs1
 BYTE   N05  Cn1
 BYTE   W06
 BYTE   Fs1
 BYTE   N05  Cn1
 BYTE   W06
 BYTE   Dn1
 BYTE   N05  Fs1
 BYTE   W06
 BYTE   Fs1
 BYTE   N05  Cn1
 BYTE   W06
 BYTE   Fs1
 BYTE   N05  Cn1
 BYTE   W06
 BYTE   Fs1
 BYTE   N05  Cn1
 BYTE   W06
 BYTE   Dn1
 BYTE   N05  Fs1
 BYTE   W06
 BYTE   Fs1
 BYTE   N05  Cn1
 BYTE   W06
 BYTE   Fs1
 BYTE   N05  Cn1
 BYTE   W06
 BYTE   Fs1
 BYTE   N05  Cn1
 BYTE   W06
 BYTE   Dn1
 BYTE   N05  Fs1
 BYTE   W06
 BYTE   N11  As1
 BYTE   N05  Cn1
 BYTE   W06
 BYTE   Cn1
 BYTE   W06
 BYTE   Fs1
 BYTE   N05  Cn1
 BYTE   W06
 BYTE   PEND 
//  #05 //004   ----------------------------------------
Label_0100608B:
 BYTE   N05  Dn1  v080
 BYTE   N05  Fs1
 BYTE   W06
 BYTE   Fs1
 BYTE   N05  Cn1
 BYTE   W06
 BYTE   Fs1
 BYTE   N05  Cs2
 BYTE   N05  Cn1
 BYTE   W06
 BYTE   Fs1
 BYTE   N05  Cn1
 BYTE   W06
 BYTE   Dn1
 BYTE   N05  Fs1
 BYTE   W06
 BYTE   Fs1
 BYTE   N05  Cn1
 BYTE   W06
 BYTE   Fs1
 BYTE   N05  Cn1
 BYTE   W06
 BYTE   Fs1
 BYTE   N05  Cn1
 BYTE   W06
 BYTE   Dn1
 BYTE   N05  Fs1
 BYTE   W06
 BYTE   Fs1
 BYTE   N05  Cn1
 BYTE   W06
 BYTE   Fs1
 BYTE   N05  Cn1
 BYTE   W06
 BYTE   Fs1
 BYTE   N05  Cn1
 BYTE   W06
 BYTE   Dn1
 BYTE   N05  Fs1
 BYTE   W06
 BYTE   N11  As1
 BYTE   N05  Cn1
 BYTE   W06
 BYTE   Cn1
 BYTE   W06
 BYTE   Fs1
 BYTE   N05  Cn1
 BYTE   W06
 BYTE   PEND 
//  #05 //005   ----------------------------------------
Label_010060CF:
 BYTE   N05  Dn1  v080
 BYTE   N05  Fs1
 BYTE   W06
 BYTE   Fs1
 BYTE   N05  Cn1
 BYTE   W06
 BYTE   Fs1
 BYTE   N05  Cn1
 BYTE   W06
 BYTE   Fs1
 BYTE   N05  Cn1
 BYTE   W06
 BYTE   Dn1
 BYTE   N05  Fs1
 BYTE   W06
 BYTE   Fs1
 BYTE   N05  Cn1
 BYTE   W06
 BYTE   Fs1
 BYTE   N05  Cn1
 BYTE   W06
 BYTE   Fs1
 BYTE   N05  Cn1
 BYTE   W06
 BYTE   Dn1
 BYTE   N05  Fs1
 BYTE   W06
 BYTE   Fs1
 BYTE   N05  Cn1
 BYTE   W06
 BYTE   As1
 BYTE   N05  Cn1
 BYTE   W36
 BYTE   PEND 
//  #05 //006   ----------------------------------------
Label_010060FE:
 BYTE   N05  Fs1  v080
 BYTE   W06
 BYTE   Fs1
 BYTE   W06
 BYTE   Fs1
 BYTE   N05  Cs2
 BYTE   N05  Cn1
 BYTE   W06
 BYTE   Fs1
 BYTE   N05  Cn1
 BYTE   W06
 BYTE   Dn1
 BYTE   N05  Fs1
 BYTE   W06
 BYTE   Fs1
 BYTE   N05  Cn1
 BYTE   W06
 BYTE   Fs1
 BYTE   N05  Cn1
 BYTE   W06
 BYTE   Fs1
 BYTE   N05  Cn1
 BYTE   W06
 BYTE   Dn1
 BYTE   N05  Fs1
 BYTE   W06
 BYTE   Fs1
 BYTE   N05  Cn1
 BYTE   W06
 BYTE   Fs1
 BYTE   N05  Cn1
 BYTE   W06
 BYTE   Fs1
 BYTE   N05  Cn1
 BYTE   W06
 BYTE   Dn1
 BYTE   N05  Fs1
 BYTE   W06
 BYTE   N11  As1
 BYTE   N05  Cn1
 BYTE   W06
 BYTE   Cn1
 BYTE   W06
 BYTE   Fs1
 BYTE   N05  Cn1
 BYTE   W06
 BYTE   PEND 
//  #05 //007   ----------------------------------------
 BYTE   PATT
  POIN2 Label_01006049
//  #05 //008   ----------------------------------------
 BYTE   PATT
  POIN2 Label_0100608B
//  #05 //009   ----------------------------------------
 BYTE   PATT
  POIN2 Label_01006049
//  #05 //010   ----------------------------------------
 BYTE   PATT
  POIN2 Label_0100608B
//  #05 //011   ----------------------------------------
 BYTE   PATT
  POIN2 Label_01006049
//  #05 //012   ----------------------------------------
 BYTE   PATT
  POIN2 Label_0100608B
//  #05 //013   ----------------------------------------
 BYTE   PATT
  POIN2 Label_01006049
//  #05 //014   ----------------------------------------
Label_01006161:
 BYTE   N05  Dn1  v080
 BYTE   N05  Fs1
 BYTE   W06
 BYTE   Fs1
 BYTE   N05  Cn1
 BYTE   W06
 BYTE   N11  Fs1
 BYTE   N11  Cs2
 BYTE   N11  Cn1
 BYTE   W12
 BYTE   Dn1
 BYTE   N11  Fs1
 BYTE   W06
 BYTE   N05  Cn1
 BYTE   W06
 BYTE   N11  Fs1
 BYTE   N11  Cn1
 BYTE   W12
 BYTE   Dn1
 BYTE   N11  Fs1
 BYTE   W06
 BYTE   N05  Cn1
 BYTE   W06
 BYTE   N11  Fs1
 BYTE   N11  Cn1
 BYTE   W12
 BYTE   Dn1
 BYTE   N11  Fs1
 BYTE   W06
 BYTE   N05  Cn1
 BYTE   W06
 BYTE   N11  Fs1
 BYTE   W12
 BYTE   PEND 
//  #05 //015   ----------------------------------------
Label_01006195:
 BYTE   N11  Dn1  v080
 BYTE   N11  Fs1
 BYTE   W06
 BYTE   N05  Cn1
 BYTE   W06
 BYTE   N11  Fs1
 BYTE   N11  Cn1
 BYTE   W12
 BYTE   Dn1
 BYTE   N11  Fs1
 BYTE   W06
 BYTE   N05  Cn1
 BYTE   W06
 BYTE   N11  Fs1
 BYTE   N11  Cn1
 BYTE   W12
 BYTE   Dn1
 BYTE   N11  Fs1
 BYTE   W06
 BYTE   N05  Cn1
 BYTE   W06
 BYTE   N11  Fs1
 BYTE   N11  Cn1
 BYTE   W12
 BYTE   Dn1
 BYTE   N11  Fs1
 BYTE   W06
 BYTE   N05  Cn1
 BYTE   W06
 BYTE   N11  Fs1
 BYTE   W12
 BYTE   PEND 
//  #05 //016   ----------------------------------------
 BYTE   PATT
  POIN2 Label_01006195
//  #05 //017   ----------------------------------------
Label_010061CB:
 BYTE   N11  Dn1  v080
 BYTE   N11  Fs1
 BYTE   W06
 BYTE   N05  Cn1
 BYTE   W06
 BYTE   N23  Cs2
 BYTE   N23  Cn1
 BYTE   W48
 BYTE   N02  Dn2
 BYTE   N11  Cn1
 BYTE   W03
 BYTE   N02  Dn2  v049
 BYTE   W03
 BYTE   Dn2
 BYTE   W03
 BYTE   Dn2
 BYTE   W03
 BYTE   Cn2  v080
 BYTE   N11  Cn1
 BYTE   W03
 BYTE   N02  Cn2  v049
 BYTE   W03
 BYTE   Cn2
 BYTE   W03
 BYTE   Cn2
 BYTE   W03
 BYTE   An1  v080
 BYTE   N11  Cn1
 BYTE   W03
 BYTE   N02  An1  v049
 BYTE   W03
 BYTE   An1
 BYTE   W03
 BYTE   An1
 BYTE   W03
 BYTE   PEND 
//  #05 //018   ----------------------------------------
Label_01006201:
 BYTE   N02  Fn1  v080
 BYTE   N02  Dn1
 BYTE   N02  As1
 BYTE   N11  Cn1
 BYTE   W03
 BYTE   N02  Fn1  v049
 BYTE   W03
 BYTE   Fn1
 BYTE   W03
 BYTE   Fn1
 BYTE   W03
 BYTE   N11  Fn1  v080
 BYTE   N11  Cs2
 BYTE   N05  Cn1
 BYTE   W06
 BYTE   Cn1
 BYTE   W06
 BYTE   N11  Dn1
 BYTE   N11  Fn1
 BYTE   W06
 BYTE   N05  Cn1
 BYTE   W06
 BYTE   N11  Fn1
 BYTE   N05  Cn1
 BYTE   W06
 BYTE   Cn1
 BYTE   W06
 BYTE   N11  Dn1
 BYTE   N11  Fn1
 BYTE   W06
 BYTE   N05  Cn1
 BYTE   W06
 BYTE   N11  Fn1
 BYTE   N05  Cn1
 BYTE   W06
 BYTE   Cn1
 BYTE   W06
 BYTE   N11  Dn1
 BYTE   N11  Fn1
 BYTE   W06
 BYTE   N05  Cn1
 BYTE   W06
 BYTE   N11  Fn1
 BYTE   N05  Cn1
 BYTE   W06
 BYTE   Cn1
 BYTE   W06
//  #05 //019   ----------------------------------------
Label_0100624A:
 BYTE   N11  Dn1  v080
 BYTE   N11  Fn1
 BYTE   W06
 BYTE   N05  Cn1
 BYTE   W06
 BYTE   N11  Fn1
 BYTE   N05  Cn1
 BYTE   W06
 BYTE   Cn1
 BYTE   W06
 BYTE   N11  Dn1
 BYTE   N11  Fn1
 BYTE   W06
 BYTE   N05  Cn1
 BYTE   W06
 BYTE   N11  Fn1
 BYTE   N05  Cn1
 BYTE   W06
 BYTE   Cn1
 BYTE   W06
 BYTE   Dn1
 BYTE   N05  Fn1
 BYTE   W06
 BYTE   Cs2
 BYTE   N05  Cn1
 BYTE   W06
 BYTE   N11  Fn1
 BYTE   N05  Cn1
 BYTE   W06
 BYTE   Cn1
 BYTE   W06
 BYTE   N11  Dn1
 BYTE   N11  Fn1
 BYTE   W06
 BYTE   N05  Cn1
 BYTE   W06
 BYTE   N11  Fn1
 BYTE   N05  Cn1
 BYTE   W06
 BYTE   Cn1
 BYTE   W06
 BYTE   PEND 
//  #05 //020   ----------------------------------------
Label_01006288:
 BYTE   N11  Dn1  v080
 BYTE   N11  Fn1
 BYTE   W06
 BYTE   N05  Cn1
 BYTE   W06
 BYTE   N11  Fn1
 BYTE   N05  Cn1
 BYTE   W06
 BYTE   Cn1
 BYTE   W06
 BYTE   N11  Dn1
 BYTE   N11  Fn1
 BYTE   W06
 BYTE   N05  Cn1
 BYTE   W06
 BYTE   N11  Fn1
 BYTE   N05  Cn1
 BYTE   W06
 BYTE   Cn1
 BYTE   W06
 BYTE   N11  Dn1
 BYTE   N11  Fn1
 BYTE   W06
 BYTE   N05  Cn1
 BYTE   W06
 BYTE   N11  Fn1
 BYTE   N05  Cn1
 BYTE   W06
 BYTE   Cn1
 BYTE   W06
 BYTE   N11  Dn1
 BYTE   N11  Fn1
 BYTE   W06
 BYTE   N05  Cn1
 BYTE   W06
 BYTE   N11  Fn1
 BYTE   N05  Cn1
 BYTE   W06
 BYTE   Cn1
 BYTE   W06
 BYTE   PEND 
//  #05 //021   ----------------------------------------
 BYTE   PATT
  POIN2 Label_01006288
//  #05 //022   ----------------------------------------
 BYTE   N11  Dn1  v080
 BYTE   N11  Fn1
 BYTE   W06
 BYTE   N05  Cn1
 BYTE   W06
 BYTE   N11  Fn1
 BYTE   N11  Cs2
 BYTE   N05  Cn1
 BYTE   W06
 BYTE   Cn1
 BYTE   W06
 BYTE   N11  Dn1
 BYTE   N11  Fn1
 BYTE   W06
 BYTE   N05  Cn1
 BYTE   W06
 BYTE   N11  Fn1
 BYTE   N05  Cn1
 BYTE   W06
 BYTE   Cn1
 BYTE   W06
 BYTE   N11  Dn1
 BYTE   N11  Fn1
 BYTE   W06
 BYTE   N05  Cn1
 BYTE   W06
 BYTE   N11  Fn1
 BYTE   N05  Cn1
 BYTE   W06
 BYTE   Cn1
 BYTE   W06
 BYTE   N11  Dn1
 BYTE   N11  Fn1
 BYTE   W06
 BYTE   N05  Cn1
 BYTE   W06
 BYTE   N11  Fn1
 BYTE   N05  Cn1
 BYTE   W06
 BYTE   Cn1
 BYTE   W06
//  #05 //023   ----------------------------------------
 BYTE   PATT
  POIN2 Label_0100624A
//  #05 //024   ----------------------------------------
 BYTE   PATT
  POIN2 Label_01006288
//  #05 //025   ----------------------------------------
 BYTE   PATT
  POIN2 Label_01006288
//  #05 //026   ----------------------------------------
 BYTE   N11  Dn1  v080
 BYTE   N11  Fn1
 BYTE   W06
 BYTE   N05  Cn1
 BYTE   W06
 BYTE   Fs1
 BYTE   N05  Cs2
 BYTE   N05  Cn1
 BYTE   W06
 BYTE   Fs1  v049
 BYTE   W06
 BYTE   Fs1  v080
 BYTE   W06
 BYTE   Fs1  v049
 BYTE   W06
 BYTE   Fs1  v080
 BYTE   W06
 BYTE   Fs1  v049
 BYTE   W06
 BYTE   Fs1  v080
 BYTE   W06
 BYTE   Fs1  v049
 BYTE   W06
 BYTE   Fs1  v080
 BYTE   W06
 BYTE   Fs1  v049
 BYTE   W06
 BYTE   Fs1  v080
 BYTE   W06
 BYTE   Fs1  v049
 BYTE   W06
 BYTE   Fs1  v080
 BYTE   W06
 BYTE   Fs1  v049
 BYTE   W06
//  #05 //027   ----------------------------------------
Label_0100634F:
 BYTE   N05  Fs1  v080
 BYTE   W06
 BYTE   Fs1  v049
 BYTE   W06
 BYTE   Fs1  v080
 BYTE   W06
 BYTE   Fs1  v049
 BYTE   W06
 BYTE   Fs1  v080
 BYTE   W06
 BYTE   Fs1  v049
 BYTE   W06
 BYTE   Fs1  v080
 BYTE   W06
 BYTE   Fs1  v049
 BYTE   W06
 BYTE   Fs1  v080
 BYTE   W06
 BYTE   Fs1  v049
 BYTE   W06
 BYTE   Fs1  v080
 BYTE   W06
 BYTE   Fs1  v049
 BYTE   W06
 BYTE   Fs1  v080
 BYTE   W06
 BYTE   Fs1  v049
 BYTE   W06
 BYTE   Fs1  v080
 BYTE   W06
 BYTE   Fs1  v049
 BYTE   W06
 BYTE   PEND 
//  #05 //028   ----------------------------------------
 BYTE   Fs1  v080
 BYTE   W06
 BYTE   Fs1  v049
 BYTE   W06
 BYTE   Fs1  v080
 BYTE   N05  Cs2
 BYTE   N05  Cn1
 BYTE   W06
 BYTE   Fs1  v049
 BYTE   W06
 BYTE   Fs1  v080
 BYTE   W06
 BYTE   Fs1  v049
 BYTE   W06
 BYTE   Fs1  v080
 BYTE   W06
 BYTE   Fs1  v049
 BYTE   W06
 BYTE   Fs1  v080
 BYTE   W06
 BYTE   Fs1  v049
 BYTE   W06
 BYTE   Fs1  v080
 BYTE   W06
 BYTE   Fs1  v049
 BYTE   W06
 BYTE   Fs1  v080
 BYTE   W06
 BYTE   Fs1  v049
 BYTE   W06
 BYTE   Fs1  v080
 BYTE   W06
 BYTE   Fs1  v049
 BYTE   W06
//  #05 //029   ----------------------------------------
 BYTE   PATT
  POIN2 Label_0100634F
//  #05 //030   ----------------------------------------
 BYTE   N05  Fs1  v080
 BYTE   W06
 BYTE   Fs1  v049
 BYTE   W06
 BYTE   Fs1  v080
 BYTE   N05  Cs2
 BYTE   N05  Cn1
 BYTE   W06
 BYTE   Fs1
 BYTE   N05  Cn1
 BYTE   W06
 BYTE   Dn1
 BYTE   N05  Fs1
 BYTE   W06
 BYTE   Fs1
 BYTE   N05  Cn1
 BYTE   W06
 BYTE   Fs1
 BYTE   N05  Cn1
 BYTE   W06
 BYTE   Fs1
 BYTE   N05  Cn1
 BYTE   W06
 BYTE   Dn1
 BYTE   N05  Fs1
 BYTE   W06
 BYTE   Fs1
 BYTE   N05  Cn1
 BYTE   W06
 BYTE   Fs1
 BYTE   N05  Cn1
 BYTE   W06
 BYTE   Fs1
 BYTE   N05  Cn1
 BYTE   W06
 BYTE   Dn1
 BYTE   N05  Fs1
 BYTE   W06
 BYTE   N11  As1
 BYTE   N05  Cn1
 BYTE   W06
 BYTE   Cn1
 BYTE   W06
 BYTE   Fs1
 BYTE   N05  Cn1
 BYTE   W06
//  #05 //031   ----------------------------------------
 BYTE   PATT
  POIN2 Label_01006049
//  #05 //032   ----------------------------------------
 BYTE   PATT
  POIN2 Label_0100608B
//  #05 //033   ----------------------------------------
 BYTE   PATT
  POIN2 Label_010060CF
//  #05 //034   ----------------------------------------
 BYTE   PATT
  POIN2 Label_010060FE
//  #05 //035   ----------------------------------------
 BYTE   PATT
  POIN2 Label_01006049
//  #05 //036   ----------------------------------------
 BYTE   PATT
  POIN2 Label_0100608B
//  #05 //037   ----------------------------------------
 BYTE   PATT
  POIN2 Label_01006049
//  #05 //038   ----------------------------------------
 BYTE   PATT
  POIN2 Label_0100608B
//  #05 //039   ----------------------------------------
 BYTE   PATT
  POIN2 Label_01006049
//  #05 //040   ----------------------------------------
 BYTE   PATT
  POIN2 Label_0100608B
//  #05 //041   ----------------------------------------
 BYTE   PATT
  POIN2 Label_01006049
//  #05 //042   ----------------------------------------
 BYTE   PATT
  POIN2 Label_01006161
//  #05 //043   ----------------------------------------
 BYTE   PATT
  POIN2 Label_01006195
//  #05 //044   ----------------------------------------
 BYTE   PATT
  POIN2 Label_01006195
//  #05 //045   ----------------------------------------
 BYTE   PATT
  POIN2 Label_010061CB
//  #05 //046   ----------------------------------------
 BYTE   N02  Fn1  v080
 BYTE   N02  Dn1
 BYTE   N02  As1
 BYTE   N11  Cn1
 BYTE   GoTo
  POIN2 Label_01006201
//  #05 //047   ----------------------------------------
 BYTE   W03
 BYTE   N02  Fn1  v049
 BYTE   W03
 BYTE   Fn1
 BYTE   W03
 BYTE   Fn1
 BYTE   W03
 BYTE   N11  Fn1  v080
 BYTE   N11  Cs2
 BYTE   N05  Cn1
 BYTE   W06
 BYTE   Cn1
 BYTE   W06
 BYTE   N11  Dn1
 BYTE   N11  Fn1
 BYTE   W06
 BYTE   N05  Cn1
 BYTE   W06
 BYTE   N11  Fn1
 BYTE   N05  Cn1
 BYTE   W06
 BYTE   Cn1
 BYTE   W06
 BYTE   N11  Dn1
 BYTE   N11  Fn1
 BYTE   W06
 BYTE   N05  Cn1
 BYTE   W06
 BYTE   N11  Fn1
 BYTE   N05  Cn1
 BYTE   W06
 BYTE   Cn1
 BYTE   W06
 BYTE   N11  Dn1
 BYTE   N11  Fn1
 BYTE   W06
 BYTE   N05  Cn1
 BYTE   W06
 BYTE   N11  Fn1
 BYTE   N05  Cn1
 BYTE   W06
 BYTE   Cn1
 BYTE   W06
 BYTE   FINE

//******************************************************//
	ALIGN 4

TimeToMakeHistory:
	BYTE	5	// NumTrks
	BYTE	0	// NumBlks
	BYTE	TimeToMakeHistory_pri	// Priority
	BYTE	TimeToMakeHistory_rev	// Reverb.
    
	POIN2	TimeToMakeHistory_grp
    
	POIN2	TimeToMakeHistory_001
	POIN2	TimeToMakeHistory_002
	POIN2	TimeToMakeHistory_003
	POIN2	TimeToMakeHistory_004
	POIN2	TimeToMakeHistory_005

	
