//Event file generated from Sappy .s format.
	#include "MPlayDef.event"

	#define	TremblingEarth_grp  voicegroup000
	#define	TremblingEarth_pri  0
	#define	TremblingEarth_rev  0
	#define	TremblingEarth_mvl  127
	#define	TremblingEarth_key  0
	#define	TremblingEarth_tbs  1
	#define	TremblingEarth_exg  0
	#define	TremblingEarth_cmp  1

	// .rodata
	//	TremblingEarth
	ALIGN 4


//**************** Track 1 (Midi-Chn.0) ****************//

TremblingEarth_001:
//  #01 //000   ----------------------------------------
 BYTE   KEYSH   TremblingEarth_key+0
 BYTE   TEMPO   180*TremblingEarth_tbs/2
 BYTE   VOICE   19
 BYTE   VOL   32*TremblingEarth_mvl/mxv
 BYTE   PAN   c_v-2
 BYTE   W96
//  #01 //001   ----------------------------------------
 BYTE   W96
//  #01 //002   ----------------------------------------
 BYTE   W96
//  #01 //003   ----------------------------------------
 BYTE   W96
//  #01 //004   ----------------------------------------
 BYTE   W96
//  #01 //005   ----------------------------------------
 BYTE   W96
//  #01 //006   ----------------------------------------
Label_018E39D4:
 BYTE   W24
 BYTE   N24  Fs3  v092
 BYTE   N24  As3  v120
 BYTE   W24
 BYTE   Fs3  v092
 BYTE   N24  Gs3  v120
 BYTE   W24
 BYTE   N96  Gs3  v092
 BYTE   N96  Bn3  v120
 BYTE   W24
 BYTE   PEND 
//  #01 //007   ----------------------------------------
Label_018E39EA:
 BYTE   W72
 BYTE   N24  Ds3  v092
 BYTE   N24  Gs3  v120
 BYTE   W24
 BYTE   PEND 
//  #01 //008   ----------------------------------------
Label_018E39F3:
 BYTE   N24  Ds3  v092
 BYTE   N24  Fs3  v120
 BYTE   W24
 BYTE   N96  Fs3  v092
 BYTE   N96  As3  v120
 BYTE   W72
 BYTE   PEND 
//  #01 //009   ----------------------------------------
Label_018E3A02:
 BYTE   W24
 BYTE   N24  Cs3  v092
 BYTE   N24  Fn3  v120
 BYTE   W24
 BYTE   Ds3  v092
 BYTE   N24  Fs3  v120
 BYTE   W24
 BYTE   N96  Ds3  v092
 BYTE   N96  Gs3  v120
 BYTE   W24
 BYTE   PEND 
//  #01 //010   ----------------------------------------
Label_018E3A18:
 BYTE   W72
 BYTE   N24  As2  v092
 BYTE   N24  Ds3  v120
 BYTE   W24
 BYTE   PEND 
//  #01 //011   ----------------------------------------
Label_018E3A21:
 BYTE   N24  Cs3  v092
 BYTE   N24  Fn3  v120
 BYTE   W24
 BYTE   N72  Ds3  v092
 BYTE   N72  Fs3  v120
 BYTE   W72
 BYTE   PEND 
//  #01 //012   ----------------------------------------
 BYTE   PATT
  POIN2 Label_018E39D4
//  #01 //013   ----------------------------------------
 BYTE   PATT
  POIN2 Label_018E39EA
//  #01 //014   ----------------------------------------
 BYTE   PATT
  POIN2 Label_018E39F3
//  #01 //015   ----------------------------------------
 BYTE   PATT
  POIN2 Label_018E3A02
//  #01 //016   ----------------------------------------
 BYTE   PATT
  POIN2 Label_018E3A18
//  #01 //017   ----------------------------------------
 BYTE   PATT
  POIN2 Label_018E3A21
//  #01 //018   ----------------------------------------
 BYTE   W96
//  #01 //019   ----------------------------------------
 BYTE   W96
//  #01 //020   ----------------------------------------
 BYTE   W96
//  #01 //021   ----------------------------------------
 BYTE   W96
//  #01 //022   ----------------------------------------
 BYTE   W96
//  #01 //023   ----------------------------------------
 BYTE   W96
//  #01 //024   ----------------------------------------
 BYTE   W96
//  #01 //025   ----------------------------------------
 BYTE   W96
//  #01 //026   ----------------------------------------
 BYTE   W96
//  #01 //027   ----------------------------------------
 BYTE   W96
//  #01 //028   ----------------------------------------
 BYTE   W96
//  #01 //029   ----------------------------------------
 BYTE   W96
//  #01 //030   ----------------------------------------
 BYTE   W96
//  #01 //031   ----------------------------------------
 BYTE   W96
//  #01 //032   ----------------------------------------
 BYTE   W96
//  #01 //033   ----------------------------------------
 BYTE   PATT
  POIN2 Label_018E39D4
//  #01 //034   ----------------------------------------
 BYTE   PATT
  POIN2 Label_018E39EA
//  #01 //035   ----------------------------------------
 BYTE   PATT
  POIN2 Label_018E39F3
//  #01 //036   ----------------------------------------
 BYTE   PATT
  POIN2 Label_018E3A02
//  #01 //037   ----------------------------------------
 BYTE   PATT
  POIN2 Label_018E3A18
//  #01 //038   ----------------------------------------
 BYTE   PATT
  POIN2 Label_018E3A21
//  #01 //039   ----------------------------------------
 BYTE   W48
 BYTE   N48  Fs2  v092
 BYTE   N48  As2  v120
 BYTE   W48
//  #01 //040   ----------------------------------------
 BYTE   As2  v092
 BYTE   N48  Ds3  v120
 BYTE   W48
 BYTE   Ds3  v092
 BYTE   N48  Fs3  v120
 BYTE   W48
//  #01 //041   ----------------------------------------
 BYTE   Fn3  v092
 BYTE   N48  Gs3  v120
 BYTE   W48
 BYTE   Fs3  v092
 BYTE   N48  As3  v120
 BYTE   W48
//  #01 //042   ----------------------------------------
 BYTE   Gs3  v092
 BYTE   N48  Bn3  v120
 BYTE   W48
 BYTE   Fs3  v092
 BYTE   N48  As3  v120
 BYTE   W48
//  #01 //043   ----------------------------------------
 BYTE   TIE  Fn3  v092
 BYTE   TIE  Gs3  v120
 BYTE   W96
//  #01 //044   ----------------------------------------
 BYTE   W96
//  #01 //045   ----------------------------------------
 BYTE   EOT
 BYTE   Fn3  v068
Label_018E3AB2:
 BYTE   TIE  Ds3  v092
 BYTE   TIE  Fs3  v120
 BYTE   W96
 BYTE   PEND 
//  #01 //046   ----------------------------------------
 BYTE   W96
//  #01 //047   ----------------------------------------
 BYTE   EOT
 BYTE   Ds3  v066
 BYTE   TIE  Cs3  v092
 BYTE   TIE  Fn3  v120
 BYTE   W96
//  #01 //048   ----------------------------------------
 BYTE   W96
//  #01 //049   ----------------------------------------
 BYTE   EOT
 BYTE   Cs3  v065
//  #01 //050   ----------------------------------------
 BYTE   PATT
  POIN2 Label_018E3AB2
//  #01 //051   ----------------------------------------
 BYTE   W96
//  #01 //052   ----------------------------------------
 BYTE   EOT
 BYTE   Ds3  v066
 BYTE   TIE  Ds3  v112
 BYTE   TIE  As3
 BYTE   W96
//  #01 //053   ----------------------------------------
 BYTE   W96
//  #01 //054   ----------------------------------------
 BYTE   EOT
 BYTE   Ds3  v070
 BYTE   TIE  Dn3
 BYTE   TIE  Gs3
 BYTE   W96
//  #01 //055   ----------------------------------------
 BYTE   W96
//  #01 //056   ----------------------------------------
 BYTE   EOT
 BYTE   Dn3  v068
 BYTE   TIE  Cs3
 BYTE   TIE  Gn3
 BYTE   W96
//  #01 //057   ----------------------------------------
 BYTE   W48
 BYTE   EOT
 BYTE   N24  Gs3
 BYTE   W24
 BYTE   As3
 BYTE   W24
//  #01 //058   ----------------------------------------
 BYTE   EOT
 BYTE   Cs3
 BYTE   TIE  Ds3
 BYTE   TIE  Bn3
 BYTE   W96
//  #01 //059   ----------------------------------------
 BYTE   W96
//  #01 //060   ----------------------------------------
 BYTE   EOT
 BYTE   Ds3  v071
 BYTE   TIE  Fn3
 BYTE   TIE  Bn3
 BYTE   W96
//  #01 //061   ----------------------------------------
 BYTE   W48
 BYTE   EOT
 BYTE   N24  Cn4
 BYTE   W24
 BYTE   Dn4
 BYTE   W24
//  #01 //062   ----------------------------------------
 BYTE   EOT
 BYTE   Fn3
 BYTE   TIE  Gn3
 BYTE   TIE  Ds4
 BYTE   W96
//  #01 //063   ----------------------------------------
 BYTE   W96
//  #01 //064   ----------------------------------------
 BYTE   EOT
 BYTE   Gn3  v075
 BYTE   N12  Gn3  v100
 BYTE   W12
 BYTE   Dn4
 BYTE   W12
 BYTE   Cn4
 BYTE   W12
 BYTE   Dn4
 BYTE   W12
 BYTE   Ds4
 BYTE   W12
 BYTE   Cn4
 BYTE   W12
 BYTE   Dn4
 BYTE   W12
 BYTE   Bn3
 BYTE   W12
//  #01 //065   ----------------------------------------
 BYTE   Cn4
 BYTE   W12
 BYTE   An3
 BYTE   W12
 BYTE   Bn3
 BYTE   W12
 BYTE   Cn4
 BYTE   W12
 BYTE   Bn3
 BYTE   W12
 BYTE   Cn4
 BYTE   W12
 BYTE   Bn3
 BYTE   W12
 BYTE   An3
 BYTE   W12
//  #01 //066   ----------------------------------------
 BYTE   Bn3
 BYTE   W12
 BYTE   Gn3
 BYTE   W12
 BYTE   Dn3
 BYTE   W12
 BYTE   Ds3
 BYTE   W12
 BYTE   Fn3
 BYTE   W12
 BYTE   Gn3
 BYTE   W12
 BYTE   Gs3
 BYTE   W12
 BYTE   Fn3
 BYTE   W12
//  #01 //067   ----------------------------------------
 BYTE   Gn3
 BYTE   W12
 BYTE   Ds4
 BYTE   W12
 BYTE   Dn4
 BYTE   W12
 BYTE   Ds4
 BYTE   W12
 BYTE   Fn4
 BYTE   W12
 BYTE   Dn4
 BYTE   W12
 BYTE   Ds4
 BYTE   W12
 BYTE   Cn4
 BYTE   W12
//  #01 //068   ----------------------------------------
 BYTE   Dn4
 BYTE   W12
 BYTE   Bn3
 BYTE   W12
 BYTE   Cn4
 BYTE   W12
 BYTE   Dn4
 BYTE   W12
 BYTE   Cn4
 BYTE   W12
 BYTE   Dn4
 BYTE   W12
 BYTE   Cn4
 BYTE   W12
 BYTE   Bn3
 BYTE   W12
//  #01 //069   ----------------------------------------
 BYTE   Cn4
 BYTE   W12
 BYTE   Gs3
 BYTE   W12
 BYTE   Fn3
 BYTE   W12
 BYTE   Gn3
 BYTE   W12
 BYTE   Fn3
 BYTE   W12
 BYTE   Ds3
 BYTE   W12
 BYTE   Dn3
 BYTE   W12
 BYTE   Cn3
 BYTE   W12
//  #01 //070   ----------------------------------------
 BYTE   W96
//  #01 //071   ----------------------------------------
 BYTE   W96
//  #01 //072   ----------------------------------------
 BYTE   W96
//  #01 //073   ----------------------------------------
 BYTE   W96
//  #01 //074   ----------------------------------------
 BYTE   W96
//  #01 //075   ----------------------------------------
 BYTE   W96
//  #01 //076   ----------------------------------------
 BYTE   W96
//  #01 //077   ----------------------------------------
 BYTE   W96
//  #01 //078   ----------------------------------------
 BYTE   W96
//  #01 //079   ----------------------------------------
 BYTE   W96
//  #01 //080   ----------------------------------------
 BYTE   W96
//  #01 //081   ----------------------------------------
 BYTE   W96
//  #01 //082   ----------------------------------------
 BYTE   W96
//  #01 //083   ----------------------------------------
 BYTE   W96
//  #01 //084   ----------------------------------------
 BYTE   W96
//  #01 //085   ----------------------------------------
 BYTE   GoTo
  POIN2 Label_018E39D4
 BYTE   FINE

//**************** Track 2 (Midi-Chn.1) ****************//

TremblingEarth_002:
//  #02 //000   ----------------------------------------
 BYTE   KEYSH   TremblingEarth_key+0
 BYTE   VOICE   19
 BYTE   VOL   31*TremblingEarth_mvl/mxv
 BYTE   PAN   c_v-1
 BYTE   TIE  Ds2  v120
 BYTE   W96
//  #02 //001   ----------------------------------------
 BYTE   W48
 BYTE   En2
 BYTE   W48
//  #02 //002   ----------------------------------------
 BYTE   W96
//  #02 //003   ----------------------------------------
 BYTE   EOT
 BYTE   Ds2  v052
Label_018E3B9D:
 BYTE   TIE  Ds2  v120
 BYTE   TIE  Fs2  v112
 BYTE   W96
 BYTE   PEND 
//  #02 //004   ----------------------------------------
 BYTE   W96
//  #02 //005   ----------------------------------------
 BYTE   W96
//  #02 //006   ----------------------------------------
 BYTE   EOT
 BYTE   Ds2  v054
Label_018E3BAA:
//  #02 //007   ----------------------------------------
 BYTE   PATT
  POIN2 Label_018E3B9D
//  #02 //008   ----------------------------------------
 BYTE   W96
//  #02 //009   ----------------------------------------
 BYTE   W96
//  #02 //010   ----------------------------------------
 BYTE   EOT
 BYTE   Ds2  v054
//  #02 //011   ----------------------------------------
 BYTE   PATT
  POIN2 Label_018E3B9D
//  #02 //012   ----------------------------------------
 BYTE   W96
//  #02 //013   ----------------------------------------
 BYTE   W96
//  #02 //014   ----------------------------------------
 BYTE   EOT
 BYTE   Ds2  v054
//  #02 //015   ----------------------------------------
 BYTE   PATT
  POIN2 Label_018E3B9D
//  #02 //016   ----------------------------------------
 BYTE   W96
//  #02 //017   ----------------------------------------
 BYTE   W96
//  #02 //018   ----------------------------------------
 BYTE   EOT
 BYTE   Ds2  v054
//  #02 //019   ----------------------------------------
 BYTE   PATT
  POIN2 Label_018E3B9D
//  #02 //020   ----------------------------------------
 BYTE   W96
//  #02 //021   ----------------------------------------
 BYTE   W96
//  #02 //022   ----------------------------------------
 BYTE   EOT
 BYTE   Ds2  v054
 BYTE   TIE  Ds2  v127
 BYTE   TIE  As2
 BYTE   W96
//  #02 //023   ----------------------------------------
 BYTE   W96
//  #02 //024   ----------------------------------------
 BYTE   W96
//  #02 //025   ----------------------------------------
 BYTE   EOT
 BYTE   Ds2  v058
 BYTE   W96
//  #02 //026   ----------------------------------------
 BYTE   W96
//  #02 //027   ----------------------------------------
 BYTE   W96
//  #02 //028   ----------------------------------------
 BYTE   W96
//  #02 //029   ----------------------------------------
 BYTE   W96
//  #02 //030   ----------------------------------------
 BYTE   W96
//  #02 //031   ----------------------------------------
 BYTE   W96
//  #02 //032   ----------------------------------------
 BYTE   W96
//  #02 //033   ----------------------------------------
 BYTE   W96
//  #02 //034   ----------------------------------------
 BYTE   W96
//  #02 //035   ----------------------------------------
 BYTE   W96
//  #02 //036   ----------------------------------------
 BYTE   W96
//  #02 //037   ----------------------------------------
 BYTE   PATT
  POIN2 Label_018E3B9D
//  #02 //038   ----------------------------------------
 BYTE   W96
//  #02 //039   ----------------------------------------
 BYTE   W96
//  #02 //040   ----------------------------------------
 BYTE   EOT
 BYTE   Ds2  v054
//  #02 //041   ----------------------------------------
 BYTE   PATT
  POIN2 Label_018E3B9D
//  #02 //042   ----------------------------------------
 BYTE   W96
//  #02 //043   ----------------------------------------
 BYTE   W96
//  #02 //044   ----------------------------------------
 BYTE   EOT
 BYTE   Ds2  v054
 BYTE   W96
//  #02 //045   ----------------------------------------
 BYTE   W96
//  #02 //046   ----------------------------------------
 BYTE   W96
//  #02 //047   ----------------------------------------
 BYTE   W96
//  #02 //048   ----------------------------------------
 BYTE   W96
//  #02 //049   ----------------------------------------
 BYTE   W96
//  #02 //050   ----------------------------------------
 BYTE   W96
//  #02 //051   ----------------------------------------
 BYTE   W96
//  #02 //052   ----------------------------------------
 BYTE   W96
//  #02 //053   ----------------------------------------
 BYTE   W96
//  #02 //054   ----------------------------------------
 BYTE   W96
//  #02 //055   ----------------------------------------
 BYTE   W96
//  #02 //056   ----------------------------------------
 BYTE   W96
//  #02 //057   ----------------------------------------
 BYTE   W96
//  #02 //058   ----------------------------------------
 BYTE   W96
//  #02 //059   ----------------------------------------
 BYTE   W96
//  #02 //060   ----------------------------------------
 BYTE   W96
//  #02 //061   ----------------------------------------
 BYTE   W96
//  #02 //062   ----------------------------------------
 BYTE   W96
//  #02 //063   ----------------------------------------
 BYTE   W96
//  #02 //064   ----------------------------------------
 BYTE   W96
//  #02 //065   ----------------------------------------
 BYTE   W96
//  #02 //066   ----------------------------------------
 BYTE   W96
//  #02 //067   ----------------------------------------
 BYTE   W96
//  #02 //068   ----------------------------------------
 BYTE   N12  Dn3  v127
 BYTE   W12
 BYTE   Bn3
 BYTE   W12
 BYTE   An3
 BYTE   W12
 BYTE   Bn3
 BYTE   W12
 BYTE   Cn4
 BYTE   W12
 BYTE   An3
 BYTE   W12
 BYTE   Bn3
 BYTE   W12
 BYTE   Gn3
 BYTE   W12
//  #02 //069   ----------------------------------------
 BYTE   Gs3
 BYTE   W12
 BYTE   Fn3
 BYTE   W12
 BYTE   Gn3
 BYTE   W12
 BYTE   Gs3
 BYTE   W12
 BYTE   Gn3
 BYTE   W12
 BYTE   Gs3
 BYTE   W12
 BYTE   Gn3
 BYTE   W12
 BYTE   Fn3
 BYTE   W12
//  #02 //070   ----------------------------------------
 BYTE   Gn3
 BYTE   W12
 BYTE   Dn3
 BYTE   W12
 BYTE   Bn2
 BYTE   W12
 BYTE   Cn3
 BYTE   W12
 BYTE   Dn3
 BYTE   W12
 BYTE   Ds3
 BYTE   W12
 BYTE   Fn3
 BYTE   W12
 BYTE   Dn3
 BYTE   W12
//  #02 //071   ----------------------------------------
 BYTE   Ds3
 BYTE   W12
 BYTE   Cn4
 BYTE   W12
 BYTE   Bn3
 BYTE   W12
 BYTE   Cn4
 BYTE   W12
 BYTE   Dn4
 BYTE   W12
 BYTE   Bn3
 BYTE   W12
 BYTE   Cn4
 BYTE   W12
 BYTE   Gn3
 BYTE   W12
//  #02 //072   ----------------------------------------
 BYTE   Bn3
 BYTE   W12
 BYTE   Gn3
 BYTE   W12
 BYTE   An3
 BYTE   W12
 BYTE   Bn3
 BYTE   W12
 BYTE   Gs3
 BYTE   W12
 BYTE   As3
 BYTE   W12
 BYTE   Gs3
 BYTE   W12
 BYTE   Gn3
 BYTE   W12
//  #02 //073   ----------------------------------------
 BYTE   Gs3
 BYTE   W12
 BYTE   Fn3
 BYTE   W12
 BYTE   Dn3
 BYTE   W12
 BYTE   Ds3
 BYTE   W12
 BYTE   Dn3
 BYTE   W12
 BYTE   Cn3
 BYTE   W12
 BYTE   As2
 BYTE   W12
 BYTE   Gs2
 BYTE   W12
//  #02 //074   ----------------------------------------
 BYTE   W96
//  #02 //075   ----------------------------------------
 BYTE   W96
//  #02 //076   ----------------------------------------
 BYTE   W96
//  #02 //077   ----------------------------------------
 BYTE   W96
//  #02 //078   ----------------------------------------
 BYTE   W96
//  #02 //079   ----------------------------------------
 BYTE   W96
//  #02 //080   ----------------------------------------
 BYTE   W96
//  #02 //081   ----------------------------------------
 BYTE   W96
//  #02 //082   ----------------------------------------
 BYTE   W96
//  #02 //083   ----------------------------------------
 BYTE   W96
//  #02 //084   ----------------------------------------
 BYTE   W96
//  #02 //085   ----------------------------------------
 BYTE   W96
//  #02 //086   ----------------------------------------
 BYTE   PATT
  POIN2 Label_018E3B9D
//  #02 //087   ----------------------------------------
 BYTE   W96
//  #02 //088   ----------------------------------------
 BYTE   W96
//  #02 //089   ----------------------------------------
 BYTE   EOT
 BYTE   Ds2  v054
 BYTE   GoTo
  POIN2 Label_018E3BAA
 BYTE   FINE

//**************** Track 3 (Midi-Chn.2) ****************//

TremblingEarth_003:
//  #03 //000   ----------------------------------------
 BYTE   KEYSH   TremblingEarth_key+0
 BYTE   VOICE   40
 BYTE   VOL   28*TremblingEarth_mvl/mxv
 BYTE   PAN   c_v-24
 BYTE   W96
//  #03 //001   ----------------------------------------
 BYTE   W96
//  #03 //002   ----------------------------------------
 BYTE   W96
//  #03 //003   ----------------------------------------
 BYTE   W96
//  #03 //004   ----------------------------------------
 BYTE   W96
//  #03 //005   ----------------------------------------
 BYTE   W96
//  #03 //006   ----------------------------------------
Label_018E3CA1:
 BYTE   W96
//  #03 //007   ----------------------------------------
 BYTE   W96
//  #03 //008   ----------------------------------------
 BYTE   W96
//  #03 //009   ----------------------------------------
 BYTE   W96
//  #03 //010   ----------------------------------------
 BYTE   W96
//  #03 //011   ----------------------------------------
 BYTE   W96
//  #03 //012   ----------------------------------------
 BYTE   W96
//  #03 //013   ----------------------------------------
 BYTE   W96
//  #03 //014   ----------------------------------------
 BYTE   W96
//  #03 //015   ----------------------------------------
 BYTE   W96
//  #03 //016   ----------------------------------------
 BYTE   W96
//  #03 //017   ----------------------------------------
 BYTE   W96
//  #03 //018   ----------------------------------------
 BYTE   W72
 BYTE   N72  As3  v100
 BYTE   W24
//  #03 //019   ----------------------------------------
 BYTE   W48
 BYTE   Ds4
 BYTE   W48
//  #03 //020   ----------------------------------------
 BYTE   W24
 BYTE   Gs4
 BYTE   W72
//  #03 //021   ----------------------------------------
 BYTE   TIE  Fs4  v092
 BYTE   W72
 BYTE   W01
 BYTE   W01
 BYTE   W01
 BYTE   W01
 BYTE   W01
 BYTE   W01
 BYTE   W01
 BYTE   W01
 BYTE   W01
 BYTE   W01
 BYTE   W01
 BYTE   W01
 BYTE   W01
 BYTE   W01
 BYTE   W01
 BYTE   W01
 BYTE   W01
 BYTE   W01
 BYTE   W01
 BYTE   W01
 BYTE   W01
 BYTE   W01
 BYTE   W01
 BYTE   W01
//  #03 //022   ----------------------------------------
 BYTE   W01
 BYTE   W01
 BYTE   W01
 BYTE   W01
 BYTE   W01
 BYTE   W01
 BYTE   W01
 BYTE   W01
 BYTE   W01
 BYTE   W01
 BYTE   W01
 BYTE   W01
 BYTE   W01
 BYTE   W01
 BYTE   W01
 BYTE   W01
 BYTE   W01
 BYTE   W01
 BYTE   W01
 BYTE   W01
 BYTE   W01
 BYTE   W01
 BYTE   W01
 BYTE   W01
 BYTE   W01
 BYTE   W01
 BYTE   W01
 BYTE   W01
 BYTE   W01
 BYTE   W01
 BYTE   W01
 BYTE   W01
 BYTE   W01
 BYTE   W01
 BYTE   W01
 BYTE   W01
 BYTE   W01
 BYTE   W01
 BYTE   W01
 BYTE   W01
 BYTE   W01
 BYTE   W01
 BYTE   W01
 BYTE   W01
 BYTE   W01
 BYTE   W01
 BYTE   W01
 BYTE   W01
 BYTE   EOT
 BYTE   W48
//  #03 //023   ----------------------------------------
 BYTE   W24
 BYTE   W72
//  #03 //024   ----------------------------------------
 BYTE   W96
//  #03 //025   ----------------------------------------
 BYTE   W96
//  #03 //026   ----------------------------------------
 BYTE   W96
//  #03 //027   ----------------------------------------
 BYTE   N48  Ds4  v112
 BYTE   W48
 BYTE   N12  Fn4
 BYTE   W12
 BYTE   Fs4
 BYTE   W12
 BYTE   N24  Gs4
 BYTE   W24
//  #03 //028   ----------------------------------------
 BYTE   Fs4
 BYTE   W24
 BYTE   Fn4
 BYTE   W24
 BYTE   N48  Ds4
 BYTE   W48
//  #03 //029   ----------------------------------------
 BYTE   N12  Fn4
 BYTE   W12
 BYTE   Fs4
 BYTE   W12
 BYTE   N24  Gs4
 BYTE   W24
 BYTE   As4
 BYTE   W24
 BYTE   Fn4
 BYTE   W24
//  #03 //030   ----------------------------------------
 BYTE   N48  Fs4
 BYTE   W48
 BYTE   N12  Gs4
 BYTE   W12
 BYTE   An4
 BYTE   W12
 BYTE   N24  Bn4
 BYTE   W24
//  #03 //031   ----------------------------------------
 BYTE   An4
 BYTE   W24
 BYTE   Gs4
 BYTE   W24
 BYTE   N48  Fs4
 BYTE   W48
//  #03 //032   ----------------------------------------
 BYTE   N12  Gs4
 BYTE   W12
 BYTE   An4
 BYTE   W12
 BYTE   N24  Bn4
 BYTE   W24
 BYTE   Cs5
 BYTE   W24
 BYTE   Gs4
 BYTE   W24
//  #03 //033   ----------------------------------------
 BYTE   W96
//  #03 //034   ----------------------------------------
 BYTE   W96
//  #03 //035   ----------------------------------------
 BYTE   W96
//  #03 //036   ----------------------------------------
 BYTE   W96
//  #03 //037   ----------------------------------------
 BYTE   W96
//  #03 //038   ----------------------------------------
 BYTE   W96
//  #03 //039   ----------------------------------------
 BYTE   W96
//  #03 //040   ----------------------------------------
 BYTE   W96
//  #03 //041   ----------------------------------------
 BYTE   W96
//  #03 //042   ----------------------------------------
 BYTE   W96
//  #03 //043   ----------------------------------------
 BYTE   W96
//  #03 //044   ----------------------------------------
 BYTE   W96
//  #03 //045   ----------------------------------------
 BYTE   W96
//  #03 //046   ----------------------------------------
 BYTE   W96
//  #03 //047   ----------------------------------------
 BYTE   W96
//  #03 //048   ----------------------------------------
 BYTE   W96
//  #03 //049   ----------------------------------------
 BYTE   W96
//  #03 //050   ----------------------------------------
 BYTE   W96
//  #03 //051   ----------------------------------------
 BYTE   W96
//  #03 //052   ----------------------------------------
 BYTE   W96
//  #03 //053   ----------------------------------------
 BYTE   W48
 BYTE   N48  Bn3  v108
 BYTE   W48
//  #03 //054   ----------------------------------------
 BYTE   Fn4  v100
 BYTE   W48
 BYTE   Dn4
 BYTE   N48  Gs4  v108
 BYTE   W48
//  #03 //055   ----------------------------------------
 BYTE   TIE  Ds4  v100
 BYTE   TIE  Gn4
 BYTE   W96
//  #03 //056   ----------------------------------------
 BYTE   W01
 BYTE   W01
 BYTE   W01
 BYTE   W01
 BYTE   W01
 BYTE   W01
 BYTE   W01
 BYTE   W01
 BYTE   W01
 BYTE   W01
 BYTE   W01
 BYTE   W01
 BYTE   W01
 BYTE   W01
 BYTE   W01
 BYTE   W01
 BYTE   W01
 BYTE   W01
 BYTE   W01
 BYTE   W01
 BYTE   W01
 BYTE   W01
 BYTE   W01
 BYTE   W01
 BYTE   W01
 BYTE   W01
 BYTE   W01
 BYTE   W01
 BYTE   W01
 BYTE   W01
 BYTE   W01
 BYTE   W01
 BYTE   W01
 BYTE   W01
 BYTE   W01
 BYTE   W01
 BYTE   W02
 BYTE   W01
 BYTE   W01
 BYTE   W01
 BYTE   W01
 BYTE   W01
 BYTE   W01
 BYTE   W01
 BYTE   W01
 BYTE   W02
 BYTE   W01
 BYTE   W01
 BYTE   W01
 BYTE   W01
 BYTE   W01
 BYTE   W01
 BYTE   W01
 BYTE   W01
 BYTE   W02
 BYTE   W01
 BYTE   W01
 BYTE   W01
 BYTE   W01
 BYTE   W01
 BYTE   W01
 BYTE   W01
 BYTE   W01
 BYTE   W02
 BYTE   W01
 BYTE   W01
 BYTE   W01
 BYTE   W01
 BYTE   W01
 BYTE   W01
 BYTE   W01
 BYTE   W01
 BYTE   W01
 BYTE   W01
 BYTE   W01
 BYTE   W01
 BYTE   W01
 BYTE   W01
 BYTE   W01
 BYTE   W01
 BYTE   W01
 BYTE   W01
 BYTE   W01
 BYTE   W01
 BYTE   W01
 BYTE   W01
 BYTE   W01
 BYTE   W01
 BYTE   W01
 BYTE   W01
 BYTE   W01
 BYTE   W01
//  #03 //057   ----------------------------------------
 BYTE   EOT
 BYTE   Ds4  v079
 BYTE   W96
//  #03 //058   ----------------------------------------
 BYTE   W96
//  #03 //059   ----------------------------------------
 BYTE   W96
//  #03 //060   ----------------------------------------
 BYTE   W96
//  #03 //061   ----------------------------------------
 BYTE   W96
//  #03 //062   ----------------------------------------
 BYTE   W96
//  #03 //063   ----------------------------------------
 BYTE   W24
 BYTE   N24  Gn4  v116
 BYTE   W48
 BYTE   N36  Gn4  v112
 BYTE   W24
//  #03 //064   ----------------------------------------
 BYTE   W12
 BYTE   N12  Fn4
 BYTE   W12
 BYTE   Gn4
 BYTE   W24
 BYTE   N36  Bn4  v116
 BYTE   W36
 BYTE   N12  An4  v120
 BYTE   W12
//  #03 //065   ----------------------------------------
 BYTE   N24  Bn4  v112
 BYTE   W24
 BYTE   Fn5
 BYTE   W24
 BYTE   N12  Ds5  v120
 BYTE   W24
 BYTE   Dn5
 BYTE   W24
//  #03 //066   ----------------------------------------
 BYTE   TIE  Cn5  v100
 BYTE   W24
 BYTE   W01
 BYTE   W01
 BYTE   W01
 BYTE   W01
 BYTE   W01
 BYTE   W01
 BYTE   W01
 BYTE   W02
 BYTE   W01
 BYTE   W01
 BYTE   W01
 BYTE   W02
 BYTE   W01
 BYTE   W01
 BYTE   W01
 BYTE   W01
 BYTE   W01
 BYTE   W01
 BYTE   W01
 BYTE   W02
 BYTE   W01
 BYTE   W01
 BYTE   W01
 BYTE   W02
 BYTE   W01
 BYTE   W01
 BYTE   W01
 BYTE   W02
 BYTE   W01
 BYTE   W01
 BYTE   W01
 BYTE   W01
 BYTE   W01
 BYTE   W01
 BYTE   W01
 BYTE   W02
 BYTE   W01
 BYTE   W01
 BYTE   W01
 BYTE   W02
 BYTE   W01
 BYTE   W01
 BYTE   W01
 BYTE   W01
 BYTE   W01
 BYTE   W01
 BYTE   W01
 BYTE   W02
 BYTE   W01
 BYTE   W01
 BYTE   W01
 BYTE   W02
 BYTE   W01
 BYTE   W01
 BYTE   W01
 BYTE   W02
 BYTE   W01
 BYTE   W01
 BYTE   W01
 BYTE   W01
 BYTE   W01
 BYTE   W01
//  #03 //067   ----------------------------------------
 BYTE   W01
 BYTE   W02
 BYTE   W01
 BYTE   W01
 BYTE   W01
 BYTE   W02
 BYTE   W01
 BYTE   W01
 BYTE   W01
 BYTE   W02
 BYTE   W01
 BYTE   W01
 BYTE   W01
 BYTE   W01
 BYTE   W01
 BYTE   W01
 BYTE   W01
 BYTE   W02
 BYTE   W01
 BYTE   W01
 BYTE   W01
 BYTE   W02
 BYTE   W01
 BYTE   W01
 BYTE   W01
 BYTE   W01
 BYTE   W01
 BYTE   W01
 BYTE   W01
 BYTE   W02
 BYTE   W01
 BYTE   W01
 BYTE   W01
 BYTE   W02
 BYTE   W01
 BYTE   W01
 BYTE   W01
 BYTE   W02
 BYTE   W01
 BYTE   W01
 BYTE   EOT
 BYTE   W48
//  #03 //068   ----------------------------------------
 BYTE   W24
 BYTE   W72
//  #03 //069   ----------------------------------------
 BYTE   N48  Gn3  v112
 BYTE   W48
 BYTE   N24  Cn4
 BYTE   W24
 BYTE   N96  Gn4
 BYTE   W24
//  #03 //070   ----------------------------------------
 BYTE   W96
//  #03 //071   ----------------------------------------
 BYTE   N24  Ds4  v116
 BYTE   W48
 BYTE   Ds4  v112
 BYTE   W24
 BYTE   Fn4
 BYTE   W24
//  #03 //072   ----------------------------------------
 BYTE   N48  Gn4
 BYTE   W48
 BYTE   TIE  Cn4
 BYTE   W48
//  #03 //073   ----------------------------------------
 BYTE   W72
 BYTE   EOT
 BYTE   W24
//  #03 //074   ----------------------------------------
 BYTE   N24  Gn4  v120
 BYTE   W48
 BYTE   Dn4  v112
 BYTE   W24
 BYTE   Cn4
 BYTE   W24
//  #03 //075   ----------------------------------------
 BYTE   W60
 BYTE   N12  Ds4
 BYTE   W12
 BYTE   N24  Fn4
 BYTE   W24
//  #03 //076   ----------------------------------------
 BYTE   Ds4
 BYTE   W24
 BYTE   Dn4
 BYTE   W24
 BYTE   N48  Cn4
 BYTE   W48
//  #03 //077   ----------------------------------------
 BYTE   W12
 BYTE   N12  Ds4
 BYTE   W36
 BYTE   N24  Gn4
 BYTE   W24
 BYTE   Dn4
 BYTE   W24
//  #03 //078   ----------------------------------------
 BYTE   TIE  Ds4  v100
 BYTE   W48
 BYTE   W01
 BYTE   W01
 BYTE   W01
 BYTE   W01
 BYTE   W01
 BYTE   W01
 BYTE   W01
 BYTE   W02
 BYTE   W01
 BYTE   W01
 BYTE   W01
 BYTE   W02
 BYTE   W01
 BYTE   W01
 BYTE   W01
 BYTE   W01
 BYTE   W01
 BYTE   W01
 BYTE   W01
 BYTE   W02
 BYTE   W01
 BYTE   W01
 BYTE   W01
 BYTE   W02
 BYTE   W01
 BYTE   W01
 BYTE   W01
 BYTE   W02
 BYTE   W01
 BYTE   W01
 BYTE   W01
 BYTE   W01
 BYTE   W01
 BYTE   W01
 BYTE   W01
 BYTE   W02
 BYTE   W01
 BYTE   W01
 BYTE   W01
 BYTE   W02
 BYTE   W01
//  #03 //079   ----------------------------------------
 BYTE   W01
 BYTE   W01
 BYTE   W01
 BYTE   W01
 BYTE   W01
 BYTE   W01
 BYTE   W02
 BYTE   W01
 BYTE   W01
 BYTE   W01
 BYTE   W02
 BYTE   W01
 BYTE   W01
 BYTE   W01
 BYTE   W02
 BYTE   W01
 BYTE   W01
 BYTE   W01
 BYTE   W01
 BYTE   W01
 BYTE   W01
 BYTE   W01
 BYTE   W02
 BYTE   W01
 BYTE   W01
 BYTE   W01
 BYTE   W02
 BYTE   W01
 BYTE   W01
 BYTE   W01
 BYTE   W02
 BYTE   W01
 BYTE   W01
 BYTE   W01
 BYTE   W01
 BYTE   W01
 BYTE   W01
 BYTE   W01
 BYTE   W02
 BYTE   W01
 BYTE   W01
 BYTE   W01
 BYTE   W02
 BYTE   W01
 BYTE   W01
 BYTE   W01
 BYTE   W01
 BYTE   W01
 BYTE   W01
 BYTE   W01
 BYTE   W02
 BYTE   W01
 BYTE   W01
 BYTE   W01
 BYTE   W02
 BYTE   W01
 BYTE   W01
 BYTE   W01
 BYTE   W02
 BYTE   W01
 BYTE   W01
 BYTE   EOT
 BYTE   W24
//  #03 //080   ----------------------------------------
 BYTE   W24
 BYTE   W72
//  #03 //081   ----------------------------------------
 BYTE   W96
//  #03 //082   ----------------------------------------
 BYTE   W96
//  #03 //083   ----------------------------------------
 BYTE   W96
//  #03 //084   ----------------------------------------
 BYTE   GoTo
  POIN2 Label_018E3CA1
 BYTE   FINE

//**************** Track 4 (Midi-Chn.3) ****************//

TremblingEarth_004:
//  #04 //000   ----------------------------------------
 BYTE   KEYSH   TremblingEarth_key+0
 BYTE   VOICE   40
 BYTE   VOL   28*TremblingEarth_mvl/mxv
 BYTE   PAN   c_v-24
 BYTE   W96
//  #04 //001   ----------------------------------------
 BYTE   W96
//  #04 //002   ----------------------------------------
 BYTE   W96
//  #04 //003   ----------------------------------------
 BYTE   W96
//  #04 //004   ----------------------------------------
 BYTE   W96
//  #04 //005   ----------------------------------------
 BYTE   W96
//  #04 //006   ----------------------------------------
Label_018E3F27:
 BYTE   W96
//  #04 //007   ----------------------------------------
 BYTE   W96
//  #04 //008   ----------------------------------------
 BYTE   W96
//  #04 //009   ----------------------------------------
 BYTE   W96
//  #04 //010   ----------------------------------------
 BYTE   W96
//  #04 //011   ----------------------------------------
 BYTE   W96
//  #04 //012   ----------------------------------------
 BYTE   W96
//  #04 //013   ----------------------------------------
 BYTE   W96
//  #04 //014   ----------------------------------------
 BYTE   W96
//  #04 //015   ----------------------------------------
 BYTE   W96
//  #04 //016   ----------------------------------------
 BYTE   W96
//  #04 //017   ----------------------------------------
 BYTE   W96
//  #04 //018   ----------------------------------------
 BYTE   W96
//  #04 //019   ----------------------------------------
 BYTE   W96
//  #04 //020   ----------------------------------------
 BYTE   W96
//  #04 //021   ----------------------------------------
 BYTE   W96
//  #04 //022   ----------------------------------------
 BYTE   W96
//  #04 //023   ----------------------------------------
 BYTE   W96
//  #04 //024   ----------------------------------------
 BYTE   W96
//  #04 //025   ----------------------------------------
 BYTE   W96
//  #04 //026   ----------------------------------------
 BYTE   W96
//  #04 //027   ----------------------------------------
 BYTE   W96
//  #04 //028   ----------------------------------------
 BYTE   W96
//  #04 //029   ----------------------------------------
 BYTE   W96
//  #04 //030   ----------------------------------------
 BYTE   W96
//  #04 //031   ----------------------------------------
 BYTE   W96
//  #04 //032   ----------------------------------------
 BYTE   W96
//  #04 //033   ----------------------------------------
 BYTE   W96
//  #04 //034   ----------------------------------------
 BYTE   W96
//  #04 //035   ----------------------------------------
 BYTE   W96
//  #04 //036   ----------------------------------------
 BYTE   W96
//  #04 //037   ----------------------------------------
 BYTE   W96
//  #04 //038   ----------------------------------------
 BYTE   W96
//  #04 //039   ----------------------------------------
 BYTE   W96
//  #04 //040   ----------------------------------------
 BYTE   W96
//  #04 //041   ----------------------------------------
 BYTE   W96
//  #04 //042   ----------------------------------------
 BYTE   W96
//  #04 //043   ----------------------------------------
 BYTE   W96
//  #04 //044   ----------------------------------------
 BYTE   W96
//  #04 //045   ----------------------------------------
 BYTE   W96
//  #04 //046   ----------------------------------------
 BYTE   W96
//  #04 //047   ----------------------------------------
 BYTE   W96
//  #04 //048   ----------------------------------------
 BYTE   W96
//  #04 //049   ----------------------------------------
 BYTE   W96
//  #04 //050   ----------------------------------------
 BYTE   W96
//  #04 //051   ----------------------------------------
 BYTE   W96
//  #04 //052   ----------------------------------------
 BYTE   W96
//  #04 //053   ----------------------------------------
 BYTE   W96
//  #04 //054   ----------------------------------------
 BYTE   W96
//  #04 //055   ----------------------------------------
 BYTE   W96
//  #04 //056   ----------------------------------------
 BYTE   W96
//  #04 //057   ----------------------------------------
 BYTE   W96
//  #04 //058   ----------------------------------------
 BYTE   W96
//  #04 //059   ----------------------------------------
 BYTE   W96
//  #04 //060   ----------------------------------------
 BYTE   W96
//  #04 //061   ----------------------------------------
 BYTE   W96
//  #04 //062   ----------------------------------------
 BYTE   W96
//  #04 //063   ----------------------------------------
 BYTE   N12  Dn4  v108
 BYTE   W48
 BYTE   Gs4  v096
 BYTE   W48
//  #04 //064   ----------------------------------------
 BYTE   W96
//  #04 //065   ----------------------------------------
 BYTE   W96
//  #04 //066   ----------------------------------------
 BYTE   W96
//  #04 //067   ----------------------------------------
 BYTE   W96
//  #04 //068   ----------------------------------------
 BYTE   W96
//  #04 //069   ----------------------------------------
 BYTE   W96
//  #04 //070   ----------------------------------------
 BYTE   W72
 BYTE   N24  Fn4  v092
 BYTE   W24
//  #04 //071   ----------------------------------------
 BYTE   W24
 BYTE   Dn4
 BYTE   W72
//  #04 //072   ----------------------------------------
 BYTE   W96
//  #04 //073   ----------------------------------------
 BYTE   W72
 BYTE   Fn4  v100
 BYTE   W24
//  #04 //074   ----------------------------------------
 BYTE   W24
 BYTE   Ds4  v096
 BYTE   W72
//  #04 //075   ----------------------------------------
 BYTE   N48  Cn4
 BYTE   W48
 BYTE   N12  Dn4  v100
 BYTE   W48
//  #04 //076   ----------------------------------------
 BYTE   W96
//  #04 //077   ----------------------------------------
 BYTE   Dn4  v096
 BYTE   W24
 BYTE   N24  Fn4  v100
 BYTE   W72
//  #04 //078   ----------------------------------------
 BYTE   W96
//  #04 //079   ----------------------------------------
 BYTE   W96
//  #04 //080   ----------------------------------------
 BYTE   W96
//  #04 //081   ----------------------------------------
 BYTE   W96
//  #04 //082   ----------------------------------------
 BYTE   W96
//  #04 //083   ----------------------------------------
 BYTE   W96
//  #04 //084   ----------------------------------------
 BYTE   GoTo
  POIN2 Label_018E3F27
 BYTE   FINE

//**************** Track 5 (Midi-Chn.4) ****************//

TremblingEarth_005:
//  #05 //000   ----------------------------------------
 BYTE   KEYSH   TremblingEarth_key+0
 BYTE   VOICE   60
 BYTE   VOL   39*TremblingEarth_mvl/mxv
 BYTE   PAN   c_v+4
 BYTE   W96
//  #05 //001   ----------------------------------------
 BYTE   W96
//  #05 //002   ----------------------------------------
 BYTE   W96
//  #05 //003   ----------------------------------------
 BYTE   W96
//  #05 //004   ----------------------------------------
 BYTE   W96
//  #05 //005   ----------------------------------------
 BYTE   W96
//  #05 //006   ----------------------------------------
Label_018E3FA7:
 BYTE   W96
//  #05 //007   ----------------------------------------
 BYTE   W96
//  #05 //008   ----------------------------------------
 BYTE   W96
//  #05 //009   ----------------------------------------
 BYTE   W96
//  #05 //010   ----------------------------------------
 BYTE   W96
//  #05 //011   ----------------------------------------
 BYTE   W96
//  #05 //012   ----------------------------------------
 BYTE   W96
//  #05 //013   ----------------------------------------
 BYTE   W96
//  #05 //014   ----------------------------------------
 BYTE   W96
//  #05 //015   ----------------------------------------
 BYTE   W96
//  #05 //016   ----------------------------------------
 BYTE   W96
//  #05 //017   ----------------------------------------
 BYTE   W96
//  #05 //018   ----------------------------------------
 BYTE   W96
//  #05 //019   ----------------------------------------
 BYTE   W96
//  #05 //020   ----------------------------------------
 BYTE   W96
//  #05 //021   ----------------------------------------
 BYTE   W96
//  #05 //022   ----------------------------------------
 BYTE   W96
//  #05 //023   ----------------------------------------
 BYTE   W96
//  #05 //024   ----------------------------------------
 BYTE   W96
//  #05 //025   ----------------------------------------
 BYTE   W96
//  #05 //026   ----------------------------------------
 BYTE   W96
//  #05 //027   ----------------------------------------
 BYTE   W96
//  #05 //028   ----------------------------------------
 BYTE   W96
//  #05 //029   ----------------------------------------
 BYTE   W96
//  #05 //030   ----------------------------------------
 BYTE   W96
//  #05 //031   ----------------------------------------
 BYTE   W96
//  #05 //032   ----------------------------------------
 BYTE   W96
//  #05 //033   ----------------------------------------
 BYTE   W96
//  #05 //034   ----------------------------------------
 BYTE   W96
//  #05 //035   ----------------------------------------
 BYTE   W96
//  #05 //036   ----------------------------------------
 BYTE   W96
//  #05 //037   ----------------------------------------
 BYTE   W96
//  #05 //038   ----------------------------------------
 BYTE   W96
//  #05 //039   ----------------------------------------
 BYTE   W96
//  #05 //040   ----------------------------------------
 BYTE   W96
//  #05 //041   ----------------------------------------
 BYTE   W96
//  #05 //042   ----------------------------------------
 BYTE   W96
//  #05 //043   ----------------------------------------
 BYTE   W96
//  #05 //044   ----------------------------------------
 BYTE   W96
//  #05 //045   ----------------------------------------
 BYTE   W96
//  #05 //046   ----------------------------------------
 BYTE   W96
//  #05 //047   ----------------------------------------
 BYTE   W96
//  #05 //048   ----------------------------------------
 BYTE   W96
//  #05 //049   ----------------------------------------
 BYTE   W96
//  #05 //050   ----------------------------------------
 BYTE   W96
//  #05 //051   ----------------------------------------
 BYTE   W96
//  #05 //052   ----------------------------------------
 BYTE   W96
//  #05 //053   ----------------------------------------
 BYTE   W96
//  #05 //054   ----------------------------------------
 BYTE   W96
//  #05 //055   ----------------------------------------
 BYTE   W48
 BYTE   N48  Ds2  v127
 BYTE   W48
//  #05 //056   ----------------------------------------
 BYTE   Gn2
 BYTE   W48
 BYTE   Cs3
 BYTE   W48
//  #05 //057   ----------------------------------------
 BYTE   TIE  Ds3
 BYTE   W96
//  #05 //058   ----------------------------------------
 BYTE   W96
//  #05 //059   ----------------------------------------
 BYTE   EOT
 BYTE   N96  Bn2
 BYTE   W96
//  #05 //060   ----------------------------------------
 BYTE   Fn2
 BYTE   W96
//  #05 //061   ----------------------------------------
 BYTE   Gn2
 BYTE   W96
//  #05 //062   ----------------------------------------
 BYTE   Cn3
 BYTE   W96
//  #05 //063   ----------------------------------------
 BYTE   TIE  Dn3  v120
 BYTE   W96
//  #05 //064   ----------------------------------------
 BYTE   W48
 BYTE   EOT
 BYTE   W48
//  #05 //065   ----------------------------------------
 BYTE   W96
//  #05 //066   ----------------------------------------
 BYTE   W96
//  #05 //067   ----------------------------------------
 BYTE   W96
//  #05 //068   ----------------------------------------
 BYTE   W96
//  #05 //069   ----------------------------------------
 BYTE   W72
 BYTE   N72  Gn2  v112
 BYTE   W24
//  #05 //070   ----------------------------------------
 BYTE   W48
 BYTE   TIE  Cn3
 BYTE   TIE  Gn3  v120
 BYTE   W48
//  #05 //071   ----------------------------------------
 BYTE   W72
 BYTE   EOT
 BYTE   N24  Fn3
 BYTE   W24
//  #05 //072   ----------------------------------------
 BYTE   EOT
 BYTE   Cn3
 BYTE   TIE  Cn3  v112
 BYTE   TIE  Ds3  v120
 BYTE   W96
//  #05 //073   ----------------------------------------
 BYTE   W48
 BYTE   EOT
 BYTE   TIE  Fn3
 BYTE   W48
//  #05 //074   ----------------------------------------
 BYTE   W96
//  #05 //075   ----------------------------------------
 BYTE   EOT
 BYTE   Cn3  v065
 BYTE   N72  Cn3  v112
 BYTE   N72  Gn3  v120
 BYTE   W36
 BYTE   W01
 BYTE   W01
 BYTE   W01
 BYTE   W01
 BYTE   W01
 BYTE   W01
 BYTE   W01
 BYTE   W01
 BYTE   W01
 BYTE   W01
 BYTE   W01
 BYTE   W01
 BYTE   W01
 BYTE   W01
 BYTE   W01
 BYTE   W01
 BYTE   W01
 BYTE   W01
 BYTE   W01
 BYTE   W01
 BYTE   W01
 BYTE   W01
 BYTE   W01
 BYTE   W01
 BYTE   W01
 BYTE   W01
 BYTE   W01
 BYTE   W01
 BYTE   W01
 BYTE   W01
 BYTE   W01
 BYTE   W01
 BYTE   W01
 BYTE   W01
 BYTE   W01
 BYTE   W01
 BYTE   W24
//  #05 //076   ----------------------------------------
 BYTE   W48
 BYTE   W48
//  #05 //077   ----------------------------------------
 BYTE   W96
//  #05 //078   ----------------------------------------
 BYTE   W96
//  #05 //079   ----------------------------------------
 BYTE   W96
//  #05 //080   ----------------------------------------
 BYTE   W96
//  #05 //081   ----------------------------------------
 BYTE   W96
//  #05 //082   ----------------------------------------
 BYTE   W96
//  #05 //083   ----------------------------------------
 BYTE   W96
//  #05 //084   ----------------------------------------
 BYTE   GoTo
  POIN2 Label_018E3FA7
 BYTE   FINE

//**************** Track 6 (Midi-Chn.5) ****************//

TremblingEarth_006:
//  #06 //000   ----------------------------------------
 BYTE   KEYSH   TremblingEarth_key+0
 BYTE   VOICE   1
 BYTE   VOL   28*TremblingEarth_mvl/mxv
 BYTE   PAN   c_v+11
 BYTE   W96
//  #06 //001   ----------------------------------------
 BYTE   W96
//  #06 //002   ----------------------------------------
 BYTE   W96
//  #06 //003   ----------------------------------------
 BYTE   W96
//  #06 //004   ----------------------------------------
 BYTE   W96
//  #06 //005   ----------------------------------------
 BYTE   W96
//  #06 //006   ----------------------------------------
Label_018E4066:
 BYTE   W96
//  #06 //007   ----------------------------------------
 BYTE   W96
//  #06 //008   ----------------------------------------
 BYTE   W96
//  #06 //009   ----------------------------------------
 BYTE   W96
//  #06 //010   ----------------------------------------
 BYTE   W96
//  #06 //011   ----------------------------------------
 BYTE   W96
//  #06 //012   ----------------------------------------
Label_018E406C:
 BYTE   N06  Ds4  v088
 BYTE   N06  Ds5
 BYTE   W12
 BYTE   N09  Ds4  v096
 BYTE   N09  Ds5
 BYTE   W24
 BYTE   N06  Ds4  v088
 BYTE   N06  Ds5
 BYTE   W12
 BYTE   N09  Ds4  v092
 BYTE   N09  Ds5
 BYTE   W36
 BYTE   Ds4  v100
 BYTE   N09  Ds5
 BYTE   W12
 BYTE   PEND 
//  #06 //013   ----------------------------------------
Label_018E408A:
 BYTE   W12
 BYTE   N06  Ds4  v088
 BYTE   N06  Ds5
 BYTE   W12
 BYTE   Ds4  v092
 BYTE   N06  Ds5
 BYTE   W12
 BYTE   N12  Ds4  v088
 BYTE   N12  Ds5
 BYTE   W12
 BYTE   N06  Ds4
 BYTE   N06  Ds5
 BYTE   W12
 BYTE   N09  Ds4  v096
 BYTE   N09  Ds5
 BYTE   W24
 BYTE   N06  Ds4  v088
 BYTE   N06  Ds5
 BYTE   W12
 BYTE   PEND 
//  #06 //014   ----------------------------------------
Label_018E40AE:
 BYTE   N09  Ds4  v092
 BYTE   N09  Ds5
 BYTE   W36
 BYTE   Ds4  v100
 BYTE   N09  Ds5
 BYTE   W24
 BYTE   N06  Ds4  v088
 BYTE   N06  Ds5
 BYTE   W12
 BYTE   Ds4  v092
 BYTE   N06  Ds5
 BYTE   W12
 BYTE   N12  Ds4  v088
 BYTE   N12  Ds5
 BYTE   W12
 BYTE   PEND 
//  #06 //015   ----------------------------------------
 BYTE   PATT
  POIN2 Label_018E406C
//  #06 //016   ----------------------------------------
 BYTE   PATT
  POIN2 Label_018E408A
//  #06 //017   ----------------------------------------
 BYTE   PATT
  POIN2 Label_018E40AE
//  #06 //018   ----------------------------------------
 BYTE   W96
//  #06 //019   ----------------------------------------
 BYTE   W96
//  #06 //020   ----------------------------------------
 BYTE   W96
//  #06 //021   ----------------------------------------
 BYTE   N48  As3  v127
 BYTE   N48  Ds4
 BYTE   N48  As4
 BYTE   W48
 BYTE   N24  Ds4
 BYTE   N24  As4
 BYTE   N24  Ds5
 BYTE   W24
 BYTE   N96  As4
 BYTE   N96  Ds5
 BYTE   N96  As5
 BYTE   W24
//  #06 //022   ----------------------------------------
 BYTE   W72
 BYTE   N24  Gs4
 BYTE   N48  Bn4
 BYTE   N24  Gs5
 BYTE   W24
//  #06 //023   ----------------------------------------
 BYTE   Fs4
 BYTE   N24  Fs5
 BYTE   W24
 BYTE   En4
 BYTE   N48  Gs4
 BYTE   N24  En5
 BYTE   W24
 BYTE   Fs4
 BYTE   N24  Fs5
 BYTE   W24
 BYTE   Gs4
 BYTE   N24  Bn4
 BYTE   N24  Gs5
 BYTE   W24
//  #06 //024   ----------------------------------------
 BYTE   N48  As4
 BYTE   N48  Ds5
 BYTE   N48  As5
 BYTE   W48
 BYTE   TIE  Ds4
 BYTE   TIE  As4
 BYTE   TIE  Ds5
 BYTE   W48
//  #06 //025   ----------------------------------------
 BYTE   W72
 BYTE   EOT
 BYTE   Ds4  v082
 BYTE   Ds5
 BYTE   N24  Gs4
 BYTE   N48  En5
 BYTE   N24  Gs5
 BYTE   W24
//  #06 //026   ----------------------------------------
 BYTE   As4
 BYTE   N24  As5
 BYTE   W24
 BYTE   Fs4
 BYTE   N48  Bn4
 BYTE   N24  Fs5
 BYTE   W24
 BYTE   En4
 BYTE   N24  En5
 BYTE   W24
 BYTE   Ds4
 BYTE   N24  Bn4
 BYTE   N24  Ds5
 BYTE   W24
//  #06 //027   ----------------------------------------
Label_018E413D:
 BYTE   N48  Ds4  v127
 BYTE   N48  As4
 BYTE   N48  Ds5
 BYTE   W48
 BYTE   N12  Fn4
 BYTE   N12  As4
 BYTE   N12  Fn5
 BYTE   W12
 BYTE   Fs4
 BYTE   N12  As4
 BYTE   N12  Fs5
 BYTE   W12
 BYTE   N24  Gs4
 BYTE   N24  Ds5
 BYTE   N24  Gs5
 BYTE   W24
 BYTE   PEND 
//  #06 //028   ----------------------------------------
 BYTE   Fs4
 BYTE   N24  Ds5
 BYTE   N24  Fs5
 BYTE   W24
 BYTE   Fn4
 BYTE   N24  Bn4
 BYTE   N24  Fn5
 BYTE   W24
 BYTE   N48  Ds4
 BYTE   N48  As4
 BYTE   N48  Ds5
 BYTE   W48
//  #06 //029   ----------------------------------------
 BYTE   N12  Fn4
 BYTE   N12  As4
 BYTE   N12  Fn5
 BYTE   W12
 BYTE   Fs4
 BYTE   N12  As4
 BYTE   N12  Fs5
 BYTE   W12
 BYTE   N24  Gs4
 BYTE   N24  Ds5
 BYTE   N24  Gs5
 BYTE   W24
 BYTE   As4
 BYTE   N24  Ds5
 BYTE   N24  As5
 BYTE   W24
 BYTE   Fn4
 BYTE   N24  Gs4
 BYTE   N24  Fn5
 BYTE   W24
//  #06 //030   ----------------------------------------
 BYTE   N48  Fs4
 BYTE   N48  Cs5
 BYTE   N48  Fs5
 BYTE   W48
 BYTE   N12  Gs4
 BYTE   N12  Cs5
 BYTE   N12  Gs5
 BYTE   W12
 BYTE   An4
 BYTE   N12  Cs5
 BYTE   N12  An5
 BYTE   W12
 BYTE   N24  Bn4
 BYTE   N24  Fs5
 BYTE   N24  Bn5
 BYTE   W24
//  #06 //031   ----------------------------------------
 BYTE   An4
 BYTE   N24  Fs5
 BYTE   N24  An5
 BYTE   W24
 BYTE   Gs4
 BYTE   N24  Dn5
 BYTE   N24  Gs5
 BYTE   W24
 BYTE   N48  Fs4
 BYTE   N48  Cs5
 BYTE   N48  Fs5
 BYTE   W48
//  #06 //032   ----------------------------------------
 BYTE   N12  Gs4
 BYTE   N12  Cs5
 BYTE   N12  Gs5
 BYTE   W12
 BYTE   An4
 BYTE   N12  Cs5
 BYTE   N12  An5
 BYTE   W12
 BYTE   N24  Bn4
 BYTE   N24  Fs5
 BYTE   N24  Bn5
 BYTE   W24
 BYTE   Cs5
 BYTE   N24  Fs5
 BYTE   N24  Cs6
 BYTE   W24
 BYTE   Gs4
 BYTE   N24  Bn4
 BYTE   N24  Gs5
 BYTE   W24
//  #06 //033   ----------------------------------------
 BYTE   N48  As4
 BYTE   N48  Ds5
 BYTE   N48  As5
 BYTE   W96
//  #06 //034   ----------------------------------------
 BYTE   W96
//  #06 //035   ----------------------------------------
 BYTE   W96
//  #06 //036   ----------------------------------------
 BYTE   W96
//  #06 //037   ----------------------------------------
 BYTE   W96
//  #06 //038   ----------------------------------------
 BYTE   W96
//  #06 //039   ----------------------------------------
 BYTE   W96
//  #06 //040   ----------------------------------------
 BYTE   W96
//  #06 //041   ----------------------------------------
 BYTE   W96
//  #06 //042   ----------------------------------------
 BYTE   W96
//  #06 //043   ----------------------------------------
 BYTE   W96
//  #06 //044   ----------------------------------------
 BYTE   W96
//  #06 //045   ----------------------------------------
 BYTE   W96
//  #06 //046   ----------------------------------------
 BYTE   W96
//  #06 //047   ----------------------------------------
 BYTE   W96
//  #06 //048   ----------------------------------------
 BYTE   W96
//  #06 //049   ----------------------------------------
 BYTE   W96
//  #06 //050   ----------------------------------------
 BYTE   W96
//  #06 //051   ----------------------------------------
 BYTE   W48
 BYTE   As2  v112
 BYTE   N48  Ds3  v100
 BYTE   N48  As3  v116
 BYTE   W48
//  #06 //052   ----------------------------------------
 BYTE   Ds3  v112
 BYTE   N48  Fs3  v100
 BYTE   N48  Ds4  v120
 BYTE   W48
 BYTE   Fs3  v112
 BYTE   N48  Ds4
 BYTE   N48  Fs4  v127
 BYTE   W48
//  #06 //053   ----------------------------------------
 BYTE   Fn3  v116
 BYTE   N48  Gs3  v112
 BYTE   N48  Fn4  v127
 BYTE   W48
 BYTE   Bn2  v112
 BYTE   N48  Fn3  v108
 BYTE   N48  Bn3  v112
 BYTE   W48
//  #06 //054   ----------------------------------------
 BYTE   Fn3
 BYTE   N48  Gs3  v108
 BYTE   N48  Fn4  v116
 BYTE   W48
 BYTE   Gs3  v112
 BYTE   N48  Dn4  v108
 BYTE   N48  Gs4  v116
 BYTE   W48
//  #06 //055   ----------------------------------------
 BYTE   Gn3  v112
 BYTE   N48  Ds4  v108
 BYTE   N48  Gn4  v116
 BYTE   W48
 BYTE   Ds3  v112
 BYTE   N48  As3  v108
 BYTE   N48  Ds4  v116
 BYTE   W48
//  #06 //056   ----------------------------------------
 BYTE   Gn3  v100
 BYTE   N48  Ds4  v096
 BYTE   N48  Gn4  v108
 BYTE   W48
 BYTE   Cs4
 BYTE   N48  Gn4  v100
 BYTE   N48  Cs5  v112
 BYTE   W48
//  #06 //057   ----------------------------------------
 BYTE   Cs4  v108
 BYTE   N96  Gs4  v096
 BYTE   N48  Cs5  v116
 BYTE   W48
 BYTE   Bn3  v100
 BYTE   N48  Bn4  v108
 BYTE   W48
//  #06 //058   ----------------------------------------
 BYTE   Gs3  v100
 BYTE   N96  Bn3  v096
 BYTE   N48  Gs4  v108
 BYTE   W48
 BYTE   Ds3  v096
 BYTE   N48  Ds4  v100
 BYTE   W48
//  #06 //059   ----------------------------------------
 BYTE   Bn3
 BYTE   N48  Gn4  v096
 BYTE   N48  Bn4  v108
 BYTE   W48
 BYTE   Gn3  v100
 BYTE   N48  Dn4  v096
 BYTE   N48  Gn4  v108
 BYTE   W48
//  #06 //060   ----------------------------------------
 BYTE   Bn3  v100
 BYTE   N48  Gn4  v096
 BYTE   N48  Bn4  v108
 BYTE   W48
 BYTE   Fn4
 BYTE   N48  Bn4  v100
 BYTE   N48  Fn5  v112
 BYTE   W48
//  #06 //061   ----------------------------------------
 BYTE   Fn4  v108
 BYTE   N96  Cn5  v096
 BYTE   N48  Fn5  v116
 BYTE   W48
 BYTE   Ds4  v100
 BYTE   N48  Ds5  v108
 BYTE   W48
//  #06 //062   ----------------------------------------
 BYTE   Cn4  v100
 BYTE   N96  Ds4  v096
 BYTE   N48  Cn5  v108
 BYTE   W48
 BYTE   Gn3  v096
 BYTE   N48  Gn4  v100
 BYTE   W48
//  #06 //063   ----------------------------------------
 BYTE   N72  Gn3  v112
 BYTE   N72  Dn4
 BYTE   N72  Gn4  v120
 BYTE   W72
 BYTE   Fn3  v112
 BYTE   N72  Dn4  v100
 BYTE   N72  Fn4  v112
 BYTE   W24
//  #06 //064   ----------------------------------------
 BYTE   W48
 BYTE   Ds3
 BYTE   N72  Gn3
 BYTE   N72  Ds4  v120
 BYTE   W48
//  #06 //065   ----------------------------------------
 BYTE   W24
 BYTE   Dn3
 BYTE   N72  Gn3  v112
 BYTE   N72  Dn4
 BYTE   W72
//  #06 //066   ----------------------------------------
 BYTE   Cn4
 BYTE   N72  Gn4
 BYTE   N72  Cn5  v120
 BYTE   W72
 BYTE   As3  v112
 BYTE   N72  Gn4  v100
 BYTE   N72  As4  v112
 BYTE   W24
//  #06 //067   ----------------------------------------
 BYTE   W48
 BYTE   Gs3
 BYTE   N72  Fn4
 BYTE   N72  Gs4  v120
 BYTE   W48
//  #06 //068   ----------------------------------------
 BYTE   W24
 BYTE   Cn4
 BYTE   N72  Fn4  v112
 BYTE   N72  Cn5
 BYTE   W72
//  #06 //069   ----------------------------------------
 BYTE   Cn4
 BYTE   N72  Gn4
 BYTE   N72  Cn5  v120
 BYTE   W72
 BYTE   Cn4  v112
 BYTE   N72  Gn4  v100
 BYTE   N72  Cn5  v120
 BYTE   W24
//  #06 //070   ----------------------------------------
 BYTE   W48
 BYTE   As3  v112
 BYTE   N72  Fn4
 BYTE   N72  As4  v120
 BYTE   W48
//  #06 //071   ----------------------------------------
 BYTE   W24
 BYTE   Gs3  v112
 BYTE   N72  Fn4
 BYTE   N72  Gs4  v120
 BYTE   W72
//  #06 //072   ----------------------------------------
 BYTE   Gn3  v112
 BYTE   N72  Cn4
 BYTE   N72  Gn4  v120
 BYTE   W72
 BYTE   Cn4  v112
 BYTE   N72  Gn4  v100
 BYTE   N72  Cn5  v120
 BYTE   W24
//  #06 //073   ----------------------------------------
 BYTE   W48
 BYTE   Dn4  v108
 BYTE   N72  Fn4
 BYTE   N72  Dn5  v116
 BYTE   W48
//  #06 //074   ----------------------------------------
 BYTE   W24
 BYTE   N36  Ds4  v108
 BYTE   N36  Gs4
 BYTE   N36  Ds5  v112
 BYTE   W36
 BYTE   Fn4  v108
 BYTE   N36  Gs4
 BYTE   N36  Fn5  v112
 BYTE   W36
//  #06 //075   ----------------------------------------
 BYTE   TIE  Gn4  v116
 BYTE   TIE  Cn5  v112
 BYTE   TIE  Gn5  v127
 BYTE   W96
//  #06 //076   ----------------------------------------
 BYTE   W24
 BYTE   EOT
 BYTE   Gn4  v084
 BYTE   Gn5
 BYTE   W48
 BYTE   N24  Gn3  v100
 BYTE   N24  Cn4
 BYTE   N24  Gn4
 BYTE   W24
//  #06 //077   ----------------------------------------
 BYTE   Gs3
 BYTE   N24  Gs4
 BYTE   W24
 BYTE   N48  Cn4
 BYTE   N48  Fn4  v108
 BYTE   N48  Cn5  v100
 BYTE   W48
 BYTE   N24  Dn4  v112
 BYTE   N24  Fn4
 BYTE   N24  Dn5  v116
 BYTE   W24
//  #06 //078   ----------------------------------------
 BYTE   PATT
  POIN2 Label_018E413D
//  #06 //079   ----------------------------------------
 BYTE   N24  Fs4  v127
 BYTE   N24  Ds5
 BYTE   N24  Fs5
 BYTE   W24
 BYTE   Fn4
 BYTE   N24  As4
 BYTE   N24  Fn5
 BYTE   W24
 BYTE   N48  Ds4
 BYTE   N48  As4
 BYTE   N48  Ds5
 BYTE   W48
//  #06 //080   ----------------------------------------
 BYTE   N12  Fn4
 BYTE   N12  As4
 BYTE   N12  Fn5
 BYTE   W12
 BYTE   Fs4
 BYTE   N12  As4
 BYTE   N12  Fs5
 BYTE   W12
 BYTE   N24  Gs4
 BYTE   N24  Ds5
 BYTE   N24  Gs5
 BYTE   W24
 BYTE   As4  v120
 BYTE   N24  Ds5
 BYTE   N24  As5
 BYTE   W24
 BYTE   Fn4  v116
 BYTE   N24  Gs4
 BYTE   N24  Fn5
 BYTE   W24
//  #06 //081   ----------------------------------------
 BYTE   N72  Ds4  v100
 BYTE   N72  As4
 BYTE   N72  Ds5
 BYTE   W96
//  #06 //082   ----------------------------------------
 BYTE   W96
//  #06 //083   ----------------------------------------
 BYTE   W96
//  #06 //084   ----------------------------------------
 BYTE   GoTo
  POIN2 Label_018E4066
 BYTE   FINE

//**************** Track 7 (Midi-Chn.6) ****************//

TremblingEarth_007:
//  #07 //000   ----------------------------------------
 BYTE   KEYSH   TremblingEarth_key+0
 BYTE   VOICE   1
 BYTE   VOL   28*TremblingEarth_mvl/mxv
 BYTE   PAN   c_v+0
 BYTE   W96
//  #07 //001   ----------------------------------------
 BYTE   W96
//  #07 //002   ----------------------------------------
 BYTE   W96
//  #07 //003   ----------------------------------------
 BYTE   W96
//  #07 //004   ----------------------------------------
 BYTE   W96
//  #07 //005   ----------------------------------------
 BYTE   W96
//  #07 //006   ----------------------------------------
Label_018E43CA:
 BYTE   W96
//  #07 //007   ----------------------------------------
 BYTE   W96
//  #07 //008   ----------------------------------------
 BYTE   W96
//  #07 //009   ----------------------------------------
 BYTE   W96
//  #07 //010   ----------------------------------------
 BYTE   W96
//  #07 //011   ----------------------------------------
 BYTE   W96
//  #07 //012   ----------------------------------------
 BYTE   W96
//  #07 //013   ----------------------------------------
 BYTE   W96
//  #07 //014   ----------------------------------------
 BYTE   W96
//  #07 //015   ----------------------------------------
 BYTE   W96
//  #07 //016   ----------------------------------------
 BYTE   W96
//  #07 //017   ----------------------------------------
 BYTE   W96
//  #07 //018   ----------------------------------------
 BYTE   W96
//  #07 //019   ----------------------------------------
 BYTE   W96
//  #07 //020   ----------------------------------------
 BYTE   W96
//  #07 //021   ----------------------------------------
 BYTE   W96
//  #07 //022   ----------------------------------------
 BYTE   W96
//  #07 //023   ----------------------------------------
 BYTE   W96
//  #07 //024   ----------------------------------------
 BYTE   W96
//  #07 //025   ----------------------------------------
 BYTE   W96
//  #07 //026   ----------------------------------------
 BYTE   W96
//  #07 //027   ----------------------------------------
 BYTE   W96
//  #07 //028   ----------------------------------------
 BYTE   W96
//  #07 //029   ----------------------------------------
 BYTE   W96
//  #07 //030   ----------------------------------------
 BYTE   W96
//  #07 //031   ----------------------------------------
 BYTE   W96
//  #07 //032   ----------------------------------------
 BYTE   W96
//  #07 //033   ----------------------------------------
 BYTE   W96
//  #07 //034   ----------------------------------------
 BYTE   W96
//  #07 //035   ----------------------------------------
 BYTE   W96
//  #07 //036   ----------------------------------------
 BYTE   W96
//  #07 //037   ----------------------------------------
 BYTE   W96
//  #07 //038   ----------------------------------------
 BYTE   W96
//  #07 //039   ----------------------------------------
 BYTE   W96
//  #07 //040   ----------------------------------------
 BYTE   W96
//  #07 //041   ----------------------------------------
 BYTE   W96
//  #07 //042   ----------------------------------------
 BYTE   W96
//  #07 //043   ----------------------------------------
 BYTE   W96
//  #07 //044   ----------------------------------------
 BYTE   W96
//  #07 //045   ----------------------------------------
 BYTE   W96
//  #07 //046   ----------------------------------------
 BYTE   W96
//  #07 //047   ----------------------------------------
 BYTE   W96
//  #07 //048   ----------------------------------------
 BYTE   W96
//  #07 //049   ----------------------------------------
 BYTE   W96
//  #07 //050   ----------------------------------------
 BYTE   W96
//  #07 //051   ----------------------------------------
Label_018E43F7:
 BYTE   TIE  Ds0  v112
 BYTE   TIE  Ds1  v120
 BYTE   W96
 BYTE   PEND 
//  #07 //052   ----------------------------------------
 BYTE   W96
//  #07 //053   ----------------------------------------
 BYTE   EOT
 BYTE   Ds0  v039
 BYTE   TIE  Dn0  v112
 BYTE   TIE  Dn1  v120
 BYTE   W96
//  #07 //054   ----------------------------------------
 BYTE   W96
//  #07 //055   ----------------------------------------
 BYTE   EOT
 BYTE   Dn0  v038
 BYTE   TIE  Cs1
 BYTE   TIE  Cs2  v112
 BYTE   W96
//  #07 //056   ----------------------------------------
 BYTE   W96
//  #07 //057   ----------------------------------------
 BYTE   EOT
 BYTE   Cs1  v049
 BYTE   TIE  Bn0  v120
 BYTE   TIE  Bn1  v112
 BYTE   W96
//  #07 //058   ----------------------------------------
 BYTE   W96
//  #07 //059   ----------------------------------------
 BYTE   EOT
 BYTE   Bn0  v047
 BYTE   TIE  Fn0
 BYTE   TIE  Fn1  v120
 BYTE   W96
//  #07 //060   ----------------------------------------
 BYTE   W96
//  #07 //061   ----------------------------------------
 BYTE   EOT
 BYTE   Fn0  v041
//  #07 //062   ----------------------------------------
 BYTE   PATT
  POIN2 Label_018E43F7
//  #07 //063   ----------------------------------------
 BYTE   W96
//  #07 //064   ----------------------------------------
 BYTE   EOT
 BYTE   Ds0  v039
 BYTE   W96
//  #07 //065   ----------------------------------------
 BYTE   W96
//  #07 //066   ----------------------------------------
 BYTE   W96
//  #07 //067   ----------------------------------------
 BYTE   W96
//  #07 //068   ----------------------------------------
 BYTE   W96
//  #07 //069   ----------------------------------------
 BYTE   W96
//  #07 //070   ----------------------------------------
 BYTE   W96
//  #07 //071   ----------------------------------------
 BYTE   W96
//  #07 //072   ----------------------------------------
 BYTE   W96
//  #07 //073   ----------------------------------------
 BYTE   W96
//  #07 //074   ----------------------------------------
 BYTE   W96
//  #07 //075   ----------------------------------------
 BYTE   W96
//  #07 //076   ----------------------------------------
 BYTE   W96
//  #07 //077   ----------------------------------------
 BYTE   W96
//  #07 //078   ----------------------------------------
 BYTE   W96
//  #07 //079   ----------------------------------------
 BYTE   W96
//  #07 //080   ----------------------------------------
 BYTE   W96
//  #07 //081   ----------------------------------------
 BYTE   W96
//  #07 //082   ----------------------------------------
 BYTE   W96
//  #07 //083   ----------------------------------------
 BYTE   W96
//  #07 //084   ----------------------------------------
 BYTE   W96
//  #07 //085   ----------------------------------------
 BYTE   GoTo
  POIN2 Label_018E43CA
 BYTE   FINE

//**************** Track 8 (Midi-Chn.7) ****************//

TremblingEarth_008:
//  #08 //000   ----------------------------------------
 BYTE   KEYSH   TremblingEarth_key+0
 BYTE   VOICE   48
 BYTE   VOL   29*TremblingEarth_mvl/mxv
 BYTE   PAN   c_v-2
 BYTE   W96
//  #08 //001   ----------------------------------------
 BYTE   W96
//  #08 //002   ----------------------------------------
 BYTE   W96
//  #08 //003   ----------------------------------------
Label_018E445C:
 BYTE   N06  Ds3  v108
 BYTE   N06  Fs3  v116
 BYTE   N06  As3
 BYTE   W36
 BYTE   Ds3  v092
 BYTE   N06  Fs3  v100
 BYTE   N06  As3
 BYTE   W12
 BYTE   Ds3  v108
 BYTE   N06  Fs3  v116
 BYTE   N06  As3
 BYTE   W48
 BYTE   PEND 
//  #08 //004   ----------------------------------------
Label_018E4476:
 BYTE   N06  Ds3  v108
 BYTE   N06  Fs3
 BYTE   N06  As3  v112
 BYTE   W24
 BYTE   Ds3
 BYTE   N06  Fs3
 BYTE   N06  As3  v116
 BYTE   W24
 BYTE   Ds3  v108
 BYTE   N06  Fs3  v112
 BYTE   N06  As3
 BYTE   W12
 BYTE   Ds3  v108
 BYTE   N06  Fs3  v116
 BYTE   N06  As3
 BYTE   W24
 BYTE   Ds3  v096
 BYTE   N06  Fs3  v100
 BYTE   N06  As3
 BYTE   W12
 BYTE   PEND 
//  #08 //005   ----------------------------------------
Label_018E449F:
 BYTE   N06  Ds3  v096
 BYTE   N06  Fs3  v100
 BYTE   N06  As3
 BYTE   W48
 BYTE   Ds3  v108
 BYTE   N06  Fs3  v112
 BYTE   N06  As3
 BYTE   W24
 BYTE   Ds3
 BYTE   N06  Fs3  v116
 BYTE   N06  As3
 BYTE   W24
 BYTE   PEND 
//  #08 //006   ----------------------------------------
Label_018E44B8:
//  #08 //007   ----------------------------------------
 BYTE   PATT
  POIN2 Label_018E445C
//  #08 //008   ----------------------------------------
 BYTE   PATT
  POIN2 Label_018E4476
//  #08 //009   ----------------------------------------
 BYTE   PATT
  POIN2 Label_018E449F
//  #08 //010   ----------------------------------------
 BYTE   PATT
  POIN2 Label_018E445C
//  #08 //011   ----------------------------------------
 BYTE   PATT
  POIN2 Label_018E4476
//  #08 //012   ----------------------------------------
 BYTE   PATT
  POIN2 Label_018E449F
//  #08 //013   ----------------------------------------
 BYTE   PATT
  POIN2 Label_018E445C
//  #08 //014   ----------------------------------------
 BYTE   PATT
  POIN2 Label_018E4476
//  #08 //015   ----------------------------------------
 BYTE   PATT
  POIN2 Label_018E449F
//  #08 //016   ----------------------------------------
 BYTE   PATT
  POIN2 Label_018E445C
//  #08 //017   ----------------------------------------
 BYTE   PATT
  POIN2 Label_018E4476
//  #08 //018   ----------------------------------------
 BYTE   PATT
  POIN2 Label_018E449F
//  #08 //019   ----------------------------------------
 BYTE   PATT
  POIN2 Label_018E445C
//  #08 //020   ----------------------------------------
 BYTE   PATT
  POIN2 Label_018E4476
//  #08 //021   ----------------------------------------
 BYTE   PATT
  POIN2 Label_018E449F
//  #08 //022   ----------------------------------------
 BYTE   PATT
  POIN2 Label_018E445C
//  #08 //023   ----------------------------------------
Label_018E4508:
 BYTE   N06  Ds3  v108
 BYTE   N06  Fs3
 BYTE   N06  As3  v112
 BYTE   W24
 BYTE   Ds3
 BYTE   N06  Fs3
 BYTE   N06  As3  v116
 BYTE   W24
 BYTE   En3  v108
 BYTE   N06  Gs3  v112
 BYTE   N06  Bn3
 BYTE   W12
 BYTE   En3  v108
 BYTE   N06  Gs3  v116
 BYTE   N06  Bn3
 BYTE   W24
 BYTE   En3  v096
 BYTE   N06  Gs3  v100
 BYTE   N06  Bn3
 BYTE   W12
 BYTE   PEND 
//  #08 //024   ----------------------------------------
Label_018E4531:
 BYTE   N06  En3  v096
 BYTE   N06  Gs3  v100
 BYTE   N06  Bn3
 BYTE   W48
 BYTE   En3  v108
 BYTE   N06  Gs3  v112
 BYTE   N06  Bn3
 BYTE   W24
 BYTE   En3
 BYTE   N06  Gs3  v116
 BYTE   N06  Bn3
 BYTE   W24
 BYTE   PEND 
//  #08 //025   ----------------------------------------
 BYTE   PATT
  POIN2 Label_018E445C
//  #08 //026   ----------------------------------------
 BYTE   PATT
  POIN2 Label_018E4508
//  #08 //027   ----------------------------------------
 BYTE   PATT
  POIN2 Label_018E4531
//  #08 //028   ----------------------------------------
 BYTE   PATT
  POIN2 Label_018E445C
//  #08 //029   ----------------------------------------
Label_018E455E:
 BYTE   N06  Ds3  v108
 BYTE   N06  Gs3
 BYTE   N06  Bn3  v112
 BYTE   W24
 BYTE   Ds3
 BYTE   N06  Gs3
 BYTE   N06  Bn3  v116
 BYTE   W24
 BYTE   Ds3  v108
 BYTE   N06  Fs3  v116
 BYTE   N06  As3
 BYTE   W36
 BYTE   Ds3  v092
 BYTE   N06  Fs3  v100
 BYTE   N06  As3
 BYTE   W12
 BYTE   PEND 
//  #08 //030   ----------------------------------------
Label_018E457F:
 BYTE   N06  Ds3  v108
 BYTE   N06  Fs3  v116
 BYTE   N06  As3
 BYTE   W48
 BYTE   Ds3  v108
 BYTE   N06  Gs3
 BYTE   N06  Bn3  v112
 BYTE   W24
 BYTE   Ds3
 BYTE   N06  Gs3
 BYTE   N06  Bn3  v116
 BYTE   W24
 BYTE   PEND 
//  #08 //031   ----------------------------------------
 BYTE   Cs3  v108
 BYTE   N06  Fs3  v116
 BYTE   N06  An3
 BYTE   W36
 BYTE   Cs3  v092
 BYTE   N06  Fs3  v100
 BYTE   N06  An3
 BYTE   W12
 BYTE   Cs3  v108
 BYTE   N06  Fs3  v116
 BYTE   N06  An3
 BYTE   W48
//  #08 //032   ----------------------------------------
 BYTE   Dn3  v108
 BYTE   N06  Fs3
 BYTE   N06  Bn3  v112
 BYTE   W24
 BYTE   Dn3
 BYTE   N06  Fs3
 BYTE   N06  Bn3  v116
 BYTE   W24
 BYTE   Cs3  v108
 BYTE   N06  Fs3  v116
 BYTE   N06  An3
 BYTE   W36
 BYTE   Cs3  v092
 BYTE   N06  Fs3  v100
 BYTE   N06  An3
 BYTE   W12
//  #08 //033   ----------------------------------------
 BYTE   Cs3  v108
 BYTE   N06  Fs3  v116
 BYTE   N06  An3
 BYTE   W48
 BYTE   Dn3  v108
 BYTE   N06  Fs3
 BYTE   N06  Bn3  v112
 BYTE   W24
 BYTE   Dn3
 BYTE   N06  Fs3
 BYTE   N06  Bn3  v116
 BYTE   W24
//  #08 //034   ----------------------------------------
 BYTE   PATT
  POIN2 Label_018E445C
//  #08 //035   ----------------------------------------
 BYTE   PATT
  POIN2 Label_018E4476
//  #08 //036   ----------------------------------------
 BYTE   PATT
  POIN2 Label_018E449F
//  #08 //037   ----------------------------------------
 BYTE   PATT
  POIN2 Label_018E445C
//  #08 //038   ----------------------------------------
 BYTE   PATT
  POIN2 Label_018E4476
//  #08 //039   ----------------------------------------
 BYTE   PATT
  POIN2 Label_018E449F
//  #08 //040   ----------------------------------------
Label_018E4604:
 BYTE   N06  Ds3  v108
 BYTE   N06  Fs3  v120
 BYTE   N06  As3
 BYTE   W36
 BYTE   Ds3  v096
 BYTE   N06  Fs3  v104
 BYTE   N06  As3
 BYTE   W24
 BYTE   Ds3  v096
 BYTE   N06  Fs3  v104
 BYTE   N06  As3
 BYTE   W24
 BYTE   Ds3  v100
 BYTE   N06  Fs3  v108
 BYTE   N06  As3
 BYTE   W12
 BYTE   PEND 
//  #08 //041   ----------------------------------------
Label_018E4626:
 BYTE   N06  Ds3  v108
 BYTE   N06  Fs3  v120
 BYTE   N06  As3
 BYTE   W12
 BYTE   Ds3  v088
 BYTE   N06  Fs3  v100
 BYTE   N06  As3
 BYTE   W24
 BYTE   Ds3  v096
 BYTE   N06  Fs3  v104
 BYTE   N06  As3
 BYTE   W24
 BYTE   Ds3  v096
 BYTE   N06  Fs3  v104
 BYTE   N06  As3
 BYTE   W24
 BYTE   Ds3  v100
 BYTE   N06  Fs3  v108
 BYTE   N06  As3
 BYTE   W12
 BYTE   PEND 
//  #08 //042   ----------------------------------------
 BYTE   PATT
  POIN2 Label_018E4604
//  #08 //043   ----------------------------------------
 BYTE   PATT
  POIN2 Label_018E4626
//  #08 //044   ----------------------------------------
 BYTE   PATT
  POIN2 Label_018E4604
//  #08 //045   ----------------------------------------
 BYTE   PATT
  POIN2 Label_018E4626
//  #08 //046   ----------------------------------------
 BYTE   PATT
  POIN2 Label_018E4604
//  #08 //047   ----------------------------------------
 BYTE   PATT
  POIN2 Label_018E4626
//  #08 //048   ----------------------------------------
 BYTE   PATT
  POIN2 Label_018E4604
//  #08 //049   ----------------------------------------
 BYTE   PATT
  POIN2 Label_018E4626
//  #08 //050   ----------------------------------------
 BYTE   PATT
  POIN2 Label_018E4604
//  #08 //051   ----------------------------------------
 BYTE   PATT
  POIN2 Label_018E4626
//  #08 //052   ----------------------------------------
 BYTE   N06  Fs3  v120
 BYTE   N06  As3
 BYTE   W36
 BYTE   Fs3  v108
 BYTE   N06  As3
 BYTE   W24
 BYTE   Fs3
 BYTE   N06  As3
 BYTE   W24
 BYTE   Fs3  v112
 BYTE   N06  As3
 BYTE   W12
//  #08 //053   ----------------------------------------
 BYTE   Fs3  v120
 BYTE   N06  As3
 BYTE   W12
 BYTE   Fs3  v100
 BYTE   N06  As3
 BYTE   W24
 BYTE   Fs3  v108
 BYTE   N06  As3
 BYTE   W24
 BYTE   Fs3
 BYTE   N06  As3
 BYTE   W24
 BYTE   Fs3  v112
 BYTE   N06  As3
 BYTE   W12
//  #08 //054   ----------------------------------------
 BYTE   Fn3  v120
 BYTE   N06  As3
 BYTE   W36
 BYTE   Fn3  v108
 BYTE   N06  As3
 BYTE   W24
 BYTE   Fn3
 BYTE   N06  As3
 BYTE   W24
 BYTE   Fn3  v112
 BYTE   N06  As3
 BYTE   W12
//  #08 //055   ----------------------------------------
 BYTE   Fn3  v120
 BYTE   N06  As3
 BYTE   W12
 BYTE   Fn3  v100
 BYTE   N06  As3
 BYTE   W24
 BYTE   Fn3  v108
 BYTE   N06  As3
 BYTE   W24
 BYTE   Fn3
 BYTE   N06  As3
 BYTE   W24
 BYTE   Fn3  v112
 BYTE   N06  As3
 BYTE   W12
//  #08 //056   ----------------------------------------
 BYTE   Gn3  v120
 BYTE   N06  As3
 BYTE   W36
 BYTE   Gn3  v108
 BYTE   N06  As3
 BYTE   W24
 BYTE   Gn3
 BYTE   N06  As3
 BYTE   W24
 BYTE   Gn3  v112
 BYTE   N06  As3
 BYTE   W12
//  #08 //057   ----------------------------------------
 BYTE   Gn3  v120
 BYTE   N06  As3
 BYTE   W12
 BYTE   Gn3  v100
 BYTE   N06  As3
 BYTE   W24
 BYTE   Gn3  v108
 BYTE   N06  As3
 BYTE   W24
 BYTE   Gn3
 BYTE   N06  As3
 BYTE   W24
 BYTE   Gn3  v112
 BYTE   N06  As3
 BYTE   W12
//  #08 //058   ----------------------------------------
 BYTE   Ds3  v127
 BYTE   N06  Gs3
 BYTE   W36
 BYTE   Ds3  v112
 BYTE   N06  Gs3
 BYTE   W24
 BYTE   Ds3
 BYTE   N06  Gs3
 BYTE   W24
 BYTE   Ds3  v116
 BYTE   N06  Gs3
 BYTE   W12
//  #08 //059   ----------------------------------------
 BYTE   Ds3  v127
 BYTE   N06  Gs3
 BYTE   W12
 BYTE   Ds3  v108
 BYTE   N06  Gs3
 BYTE   W24
 BYTE   Ds3  v112
 BYTE   N06  Gs3
 BYTE   W24
 BYTE   Ds3
 BYTE   N06  Gs3
 BYTE   W24
 BYTE   Ds3  v116
 BYTE   N06  Gs3
 BYTE   W12
//  #08 //060   ----------------------------------------
 BYTE   Dn3  v127
 BYTE   N06  Gn3
 BYTE   W36
 BYTE   Dn3  v112
 BYTE   N06  Gn3
 BYTE   W24
 BYTE   Dn3
 BYTE   N06  Gn3
 BYTE   W24
 BYTE   Dn3  v116
 BYTE   N06  Gn3
 BYTE   W12
//  #08 //061   ----------------------------------------
 BYTE   Dn3  v127
 BYTE   N06  Gn3
 BYTE   W12
 BYTE   Dn3  v108
 BYTE   N06  Gn3
 BYTE   W24
 BYTE   Dn3  v112
 BYTE   N06  Gn3
 BYTE   W24
 BYTE   Dn3
 BYTE   N06  Gn3
 BYTE   W24
 BYTE   Dn3  v116
 BYTE   N06  Gn3
 BYTE   W12
//  #08 //062   ----------------------------------------
 BYTE   Ds3  v127
 BYTE   N06  Gn3
 BYTE   W36
 BYTE   Ds3  v112
 BYTE   N06  Gn3
 BYTE   W24
 BYTE   Ds3
 BYTE   N06  Gn3
 BYTE   W24
 BYTE   Ds3  v116
 BYTE   N06  Gn3
 BYTE   W12
//  #08 //063   ----------------------------------------
 BYTE   Ds3  v127
 BYTE   N06  Gn3
 BYTE   W12
 BYTE   Ds3  v108
 BYTE   N06  Gn3
 BYTE   W24
 BYTE   Ds3  v112
 BYTE   N06  Gn3
 BYTE   W24
 BYTE   Ds3
 BYTE   N06  Gn3
 BYTE   W24
 BYTE   Ds3  v116
 BYTE   N06  Gn3
 BYTE   W12
//  #08 //064   ----------------------------------------
 BYTE   Gn3  v120
 BYTE   N06  Bn3
 BYTE   W12
 BYTE   Gn3  v100
 BYTE   N06  As3
 BYTE   W24
 BYTE   Gn3  v108
 BYTE   N06  Bn3
 BYTE   W24
 BYTE   Gn3
 BYTE   N06  Bn3
 BYTE   W12
 BYTE   Gn3  v120
 BYTE   N06  Bn3
 BYTE   W12
 BYTE   Gn3  v100
 BYTE   N06  Bn3
 BYTE   W12
//  #08 //065   ----------------------------------------
 BYTE   W12
 BYTE   Gn3  v116
 BYTE   N06  Bn3
 BYTE   W12
 BYTE   Gn3  v108
 BYTE   N06  Bn3
 BYTE   W12
 BYTE   Gn3
 BYTE   N06  Bn3
 BYTE   W12
 BYTE   Gn3  v120
 BYTE   N06  Bn3
 BYTE   W12
 BYTE   Gn3  v100
 BYTE   N06  Bn3
 BYTE   W24
 BYTE   Gn3  v108
 BYTE   N06  Bn3
 BYTE   W12
//  #08 //066   ----------------------------------------
 BYTE   W12
 BYTE   Gn3
 BYTE   N06  Bn3
 BYTE   W12
 BYTE   Gn3  v120
 BYTE   N06  Bn3
 BYTE   W12
 BYTE   Gn3  v100
 BYTE   N06  Bn3
 BYTE   W24
 BYTE   Gn3  v116
 BYTE   N06  Bn3
 BYTE   W12
 BYTE   Gn3  v108
 BYTE   N06  Bn3
 BYTE   W12
 BYTE   Gn3
 BYTE   N06  Bn3
 BYTE   W12
//  #08 //067   ----------------------------------------
 BYTE   Gn3  v120
 BYTE   N06  Cn4
 BYTE   W12
 BYTE   Gn3  v100
 BYTE   N06  Cn4
 BYTE   W24
 BYTE   Gn3  v108
 BYTE   N06  Cn4
 BYTE   W24
 BYTE   Gn3
 BYTE   N06  Cn4
 BYTE   W12
 BYTE   Gn3  v120
 BYTE   N06  Cn4
 BYTE   W12
 BYTE   Gn3  v100
 BYTE   N06  Cn4
 BYTE   W12
//  #08 //068   ----------------------------------------
 BYTE   W12
 BYTE   Gn3  v116
 BYTE   N06  Cn4
 BYTE   W12
 BYTE   Gn3  v108
 BYTE   N06  Cn4
 BYTE   W12
 BYTE   Gn3
 BYTE   N06  Cn4
 BYTE   W12
 BYTE   Gn3  v120
 BYTE   N06  Cn4
 BYTE   W12
 BYTE   Gn3  v100
 BYTE   N06  Cn4
 BYTE   W24
 BYTE   Gn3  v108
 BYTE   N06  Cn4
 BYTE   W12
//  #08 //069   ----------------------------------------
 BYTE   W12
 BYTE   Gn3
 BYTE   N06  Cn4
 BYTE   W12
 BYTE   Gn3  v120
 BYTE   N06  Cn4
 BYTE   W12
 BYTE   Gn3  v100
 BYTE   N06  Cn4
 BYTE   W24
 BYTE   Gn3  v116
 BYTE   N06  Cn4
 BYTE   W12
 BYTE   Gn3  v108
 BYTE   N06  Cn4
 BYTE   W12
 BYTE   Gn3
 BYTE   N06  Cn4
 BYTE   W12
//  #08 //070   ----------------------------------------
Label_018E4835:
 BYTE   N06  Gn3  v116
 BYTE   N06  Cn4  v108
 BYTE   W36
 BYTE   Gn3  v100
 BYTE   N06  Cn4  v092
 BYTE   W12
 BYTE   Gn3  v116
 BYTE   N06  Cn4  v108
 BYTE   W48
 BYTE   PEND 
//  #08 //071   ----------------------------------------
Label_018E4849:
 BYTE   N06  Gn3  v112
 BYTE   N06  Cn4  v108
 BYTE   W24
 BYTE   Gn3  v116
 BYTE   N06  Cn4  v112
 BYTE   W24
 BYTE   Gs3  v116
 BYTE   N06  Cn4  v108
 BYTE   W36
 BYTE   Gs3  v100
 BYTE   N06  Cn4  v092
 BYTE   W12
 BYTE   PEND 
//  #08 //072   ----------------------------------------
Label_018E4863:
 BYTE   N06  Gs3  v116
 BYTE   N06  Cn4  v108
 BYTE   W48
 BYTE   Gs3  v112
 BYTE   N06  Cn4  v108
 BYTE   W24
 BYTE   Gs3  v116
 BYTE   N06  Cn4  v112
 BYTE   W24
 BYTE   PEND 
//  #08 //073   ----------------------------------------
 BYTE   PATT
  POIN2 Label_018E4835
//  #08 //074   ----------------------------------------
 BYTE   PATT
  POIN2 Label_018E4849
//  #08 //075   ----------------------------------------
 BYTE   PATT
  POIN2 Label_018E4863
//  #08 //076   ----------------------------------------
 BYTE   N06  Ds3  v116
 BYTE   N06  Gn3
 BYTE   N06  Cn4  v108
 BYTE   W36
 BYTE   Ds3  v100
 BYTE   N06  Gn3
 BYTE   N06  Cn4  v092
 BYTE   W12
 BYTE   Ds3  v116
 BYTE   N06  Gn3
 BYTE   N06  Cn4  v108
 BYTE   W48
//  #08 //077   ----------------------------------------
 BYTE   Fn3
 BYTE   N06  Gs3  v112
 BYTE   N06  Cn4  v108
 BYTE   W24
 BYTE   Fn3  v112
 BYTE   N06  Gs3  v116
 BYTE   N06  Cn4  v112
 BYTE   W24
 BYTE   Ds3  v116
 BYTE   N06  Gn3
 BYTE   N06  Cn4  v108
 BYTE   W36
 BYTE   Ds3  v100
 BYTE   N06  Gn3
 BYTE   N06  Cn4  v092
 BYTE   W12
//  #08 //078   ----------------------------------------
 BYTE   Ds3  v116
 BYTE   N06  Gn3
 BYTE   N06  Cn4  v108
 BYTE   W48
 BYTE   Fn3
 BYTE   N06  Gs3  v112
 BYTE   N06  Cn4  v108
 BYTE   W24
 BYTE   Fn3  v112
 BYTE   N06  Gs3  v116
 BYTE   N06  Cn4  v112
 BYTE   W24
//  #08 //079   ----------------------------------------
 BYTE   PATT
  POIN2 Label_018E445C
//  #08 //080   ----------------------------------------
 BYTE   PATT
  POIN2 Label_018E455E
//  #08 //081   ----------------------------------------
 BYTE   PATT
  POIN2 Label_018E457F
//  #08 //082   ----------------------------------------
 BYTE   PATT
  POIN2 Label_018E445C
//  #08 //083   ----------------------------------------
 BYTE   PATT
  POIN2 Label_018E4476
//  #08 //084   ----------------------------------------
 BYTE   PATT
  POIN2 Label_018E449F
//  #08 //085   ----------------------------------------
 BYTE   GoTo
  POIN2 Label_018E44B8
 BYTE   FINE

//**************** Track 9 (Midi-Chn.8) ****************//

TremblingEarth_009:
//  #09 //000   ----------------------------------------
 BYTE   KEYSH   TremblingEarth_key+0
 BYTE   VOICE   52
 BYTE   VOL   28*TremblingEarth_mvl/mxv
 BYTE   PAN   c_v-4
 BYTE   W96
//  #09 //001   ----------------------------------------
 BYTE   W96
//  #09 //002   ----------------------------------------
 BYTE   W96
//  #09 //003   ----------------------------------------
 BYTE   W96
//  #09 //004   ----------------------------------------
 BYTE   W96
//  #09 //005   ----------------------------------------
 BYTE   W96
//  #09 //006   ----------------------------------------
Label_018E490B:
 BYTE   W96
//  #09 //007   ----------------------------------------
 BYTE   W96
//  #09 //008   ----------------------------------------
 BYTE   W96
//  #09 //009   ----------------------------------------
 BYTE   W96
//  #09 //010   ----------------------------------------
 BYTE   W96
//  #09 //011   ----------------------------------------
 BYTE   W96
//  #09 //012   ----------------------------------------
 BYTE   W96
//  #09 //013   ----------------------------------------
 BYTE   W96
//  #09 //014   ----------------------------------------
 BYTE   W96
//  #09 //015   ----------------------------------------
 BYTE   W96
//  #09 //016   ----------------------------------------
 BYTE   W96
//  #09 //017   ----------------------------------------
 BYTE   W96
//  #09 //018   ----------------------------------------
Label_018E4917:
 BYTE   TIE  Ds3  v092
 BYTE   TIE  As3
 BYTE   W96
 BYTE   PEND 
//  #09 //019   ----------------------------------------
 BYTE   W96
//  #09 //020   ----------------------------------------
 BYTE   W96
//  #09 //021   ----------------------------------------
 BYTE   EOT
 BYTE   Ds3  v070
//  #09 //022   ----------------------------------------
 BYTE   PATT
  POIN2 Label_018E4917
//  #09 //023   ----------------------------------------
 BYTE   W48
 BYTE   EOT
 BYTE   Ds3  v070
 BYTE   N72  En3  v092
 BYTE   N72  Gs3
 BYTE   W48
//  #09 //024   ----------------------------------------
 BYTE   W24
 BYTE   N72
 BYTE   N72  Bn3
 BYTE   W72
//  #09 //025   ----------------------------------------
 BYTE   TIE  Fs3
 BYTE   TIE  As3
 BYTE   W96
//  #09 //026   ----------------------------------------
 BYTE   W48
 BYTE   EOT
 BYTE   Fs3  v070
 BYTE   N72  En3
 BYTE   N72  Gs3
 BYTE   W48
//  #09 //027   ----------------------------------------
 BYTE   W24
 BYTE   Bn2
 BYTE   N72  En3
 BYTE   W72
//  #09 //028   ----------------------------------------
Label_018E494A:
 BYTE   N72  As2  v092
 BYTE   TIE  Ds3
 BYTE   W72
 BYTE   N72  Bn2
 BYTE   W24
 BYTE   PEND 
//  #09 //029   ----------------------------------------
 BYTE   W48
 BYTE   EOT
 BYTE   Ds3
 BYTE   N72  As2
 BYTE   TIE  Ds3
 BYTE   W48
//  #09 //030   ----------------------------------------
 BYTE   W24
 BYTE   N72  Bn2
 BYTE   W72
//  #09 //031   ----------------------------------------
 BYTE   EOT
 BYTE   Ds3
 BYTE   N72  Cs3
 BYTE   TIE  Fs3
 BYTE   W72
 BYTE   N72  Dn3
 BYTE   W24
//  #09 //032   ----------------------------------------
 BYTE   W48
 BYTE   EOT
 BYTE   Fs3
 BYTE   N72  Cs3
 BYTE   TIE  Fs3
 BYTE   W48
//  #09 //033   ----------------------------------------
 BYTE   W24
 BYTE   N72  Dn3
 BYTE   W72
//  #09 //034   ----------------------------------------
 BYTE   EOT
 BYTE   Fs3
 BYTE   TIE  Ds3  v100
 BYTE   TIE  As3
 BYTE   W96
//  #09 //035   ----------------------------------------
 BYTE   W96
//  #09 //036   ----------------------------------------
 BYTE   W96
//  #09 //037   ----------------------------------------
 BYTE   W96
//  #09 //038   ----------------------------------------
 BYTE   W96
//  #09 //039   ----------------------------------------
 BYTE   W96
//  #09 //040   ----------------------------------------
 BYTE   EOT
 BYTE   Ds3  v070
 BYTE   TIE  Ds2  v092
 BYTE   TIE  As2
 BYTE   W96
//  #09 //041   ----------------------------------------
 BYTE   W96
//  #09 //042   ----------------------------------------
 BYTE   W96
//  #09 //043   ----------------------------------------
 BYTE   W96
//  #09 //044   ----------------------------------------
 BYTE   EOT
 BYTE   Ds2  v058
 BYTE   W96
//  #09 //045   ----------------------------------------
 BYTE   W96
//  #09 //046   ----------------------------------------
 BYTE   W96
//  #09 //047   ----------------------------------------
 BYTE   W96
//  #09 //048   ----------------------------------------
 BYTE   W96
//  #09 //049   ----------------------------------------
 BYTE   W96
//  #09 //050   ----------------------------------------
 BYTE   W96
//  #09 //051   ----------------------------------------
 BYTE   W96
//  #09 //052   ----------------------------------------
 BYTE   W96
//  #09 //053   ----------------------------------------
 BYTE   W96
//  #09 //054   ----------------------------------------
 BYTE   W96
//  #09 //055   ----------------------------------------
 BYTE   W96
//  #09 //056   ----------------------------------------
 BYTE   W96
//  #09 //057   ----------------------------------------
 BYTE   W96
//  #09 //058   ----------------------------------------
 BYTE   W96
//  #09 //059   ----------------------------------------
 BYTE   W96
//  #09 //060   ----------------------------------------
 BYTE   TIE  Bn2  v100
 BYTE   TIE  Fn3
 BYTE   W96
//  #09 //061   ----------------------------------------
 BYTE   W96
//  #09 //062   ----------------------------------------
 BYTE   EOT
 BYTE   Bn2  v065
Label_018E49AC:
 BYTE   TIE  Cn3  v100
 BYTE   TIE  Gn3
 BYTE   W96
 BYTE   PEND 
//  #09 //063   ----------------------------------------
 BYTE   W96
//  #09 //064   ----------------------------------------
 BYTE   EOT
 BYTE   Cn3  v067
 BYTE   TIE  Bn2  v120
 BYTE   TIE  Gn3
 BYTE   W96
//  #09 //065   ----------------------------------------
 BYTE   W96
//  #09 //066   ----------------------------------------
 BYTE   EOT
 BYTE   Bn2  v067
 BYTE   W96
//  #09 //067   ----------------------------------------
 BYTE   W96
//  #09 //068   ----------------------------------------
 BYTE   W96
//  #09 //069   ----------------------------------------
 BYTE   W96
//  #09 //070   ----------------------------------------
 BYTE   PATT
  POIN2 Label_018E49AC
//  #09 //071   ----------------------------------------
 BYTE   W48
 BYTE   EOT
 BYTE   Gn3
 BYTE   TIE  Fn3  v100
 BYTE   W48
//  #09 //072   ----------------------------------------
 BYTE   W96
//  #09 //073   ----------------------------------------
 BYTE   EOT
 BYTE   Cn3  v065
//  #09 //074   ----------------------------------------
 BYTE   PATT
  POIN2 Label_018E49AC
//  #09 //075   ----------------------------------------
 BYTE   W48
 BYTE   EOT
 BYTE   Gn3
 BYTE   N72  Gs3  v100
 BYTE   W48
//  #09 //076   ----------------------------------------
 BYTE   W24
 BYTE   Fn3
 BYTE   W72
//  #09 //077   ----------------------------------------
 BYTE   EOT
 BYTE   Cn3
 BYTE   N72  Gn2  v092
 BYTE   TIE  Cn3
 BYTE   W72
 BYTE   N72  Gs2
 BYTE   W24
//  #09 //078   ----------------------------------------
 BYTE   W48
 BYTE   EOT
 BYTE   Cn3
 BYTE   N72  Gn2
 BYTE   TIE  Cn3
 BYTE   W48
//  #09 //079   ----------------------------------------
 BYTE   W24
 BYTE   N72  Gs2
 BYTE   W72
//  #09 //080   ----------------------------------------
 BYTE   EOT
 BYTE   Cn3
//  #09 //081   ----------------------------------------
 BYTE   PATT
  POIN2 Label_018E494A
//  #09 //082   ----------------------------------------
 BYTE   W48
 BYTE   EOT
 BYTE   Ds3
 BYTE   N72  As2  v092
 BYTE   TIE  Ds3
 BYTE   W48
//  #09 //083   ----------------------------------------
 BYTE   W24
 BYTE   N72  Bn2
 BYTE   W72
//  #09 //084   ----------------------------------------
 BYTE   EOT
 BYTE   Ds3
 BYTE   TIE  As2
 BYTE   TIE  Ds3
 BYTE   W72
 BYTE   W01
 BYTE   W03
 BYTE   W01
 BYTE   W03
 BYTE   W01
 BYTE   W01
 BYTE   W03
 BYTE   W01
 BYTE   W03
 BYTE   W01
 BYTE   W01
 BYTE   W03
 BYTE   W01
 BYTE   W01
//  #09 //085   ----------------------------------------
 BYTE   W01
 BYTE   W03
 BYTE   W01
 BYTE   W03
 BYTE   W01
 BYTE   W01
 BYTE   W03
 BYTE   W01
 BYTE   W03
 BYTE   W01
 BYTE   W02
 BYTE   W01
 BYTE   W02
 BYTE   W01
 BYTE   W01
 BYTE   W02
 BYTE   W01
 BYTE   W01
 BYTE   W03
 BYTE   W01
 BYTE   W03
 BYTE   W01
 BYTE   W02
 BYTE   W01
 BYTE   W02
 BYTE   W01
 BYTE   W01
 BYTE   W03
 BYTE   W01
 BYTE   W03
 BYTE   W01
 BYTE   W01
 BYTE   W03
 BYTE   W01
 BYTE   W03
 BYTE   W01
 BYTE   W02
 BYTE   W01
 BYTE   W02
 BYTE   W01
 BYTE   W01
 BYTE   W03
 BYTE   W01
 BYTE   W03
 BYTE   W01
 BYTE   W03
 BYTE   W01
 BYTE   W02
 BYTE   W01
 BYTE   W02
 BYTE   W01
 BYTE   W01
 BYTE   W03
 BYTE   W01
 BYTE   W03
 BYTE   W01
 BYTE   W01
//  #09 //086   ----------------------------------------
 BYTE   W03
 BYTE   W03
 BYTE   W03
 BYTE   W01
 BYTE   W03
 BYTE   W01
 BYTE   W01
 BYTE   W03
 BYTE   W01
 BYTE   W03
 BYTE   W01
 BYTE   W01
 BYTE   EOT
 BYTE   As2  v063
 BYTE   W72
//  #09 //087   ----------------------------------------
 BYTE   GoTo
  POIN2 Label_018E490B
 BYTE   FINE

//**************** Track 10 (Midi-Chn.9) ****************//

TremblingEarth_010:
//  #10 //000   ----------------------------------------
 BYTE   KEYSH   TremblingEarth_key+0
 BYTE   VOICE   127
 BYTE   VOL   28*TremblingEarth_mvl/mxv
 BYTE   PAN   c_v+0
 BYTE   W96
//  #10 //001   ----------------------------------------
 BYTE   W96
//  #10 //002   ----------------------------------------
 BYTE   W96
//  #10 //003   ----------------------------------------
Label_018E4A7E:
 BYTE   N12  Dn1  v092
 BYTE   W12
 BYTE   N24  Dn1  v100
 BYTE   W24
 BYTE   N12  Dn1  v092
 BYTE   W12
 BYTE   N06  Dn1  v100
 BYTE   W06
 BYTE   Dn1  v092
 BYTE   W06
 BYTE   N12
 BYTE   W12
 BYTE   N12
 BYTE   W12
 BYTE   N24  Dn1  v100
 BYTE   W12
 BYTE   PEND 
//  #10 //004   ----------------------------------------
Label_018E4A9A:
 BYTE   W12
 BYTE   N12  Dn1  v092
 BYTE   W12
 BYTE   N06  Dn1  v100
 BYTE   W06
 BYTE   Dn1  v092
 BYTE   W06
 BYTE   N06
 BYTE   W06
 BYTE   N06
 BYTE   W06
 BYTE   N12
 BYTE   W12
 BYTE   N24  Dn1  v100
 BYTE   W24
 BYTE   N12  Dn1  v092
 BYTE   W12
 BYTE   PEND 
//  #10 //005   ----------------------------------------
Label_018E4AB5:
 BYTE   N06  Dn1  v100
 BYTE   W06
 BYTE   Dn1  v092
 BYTE   W06
 BYTE   N12
 BYTE   W12
 BYTE   N12
 BYTE   W12
 BYTE   N24  Dn1  v100
 BYTE   W24
 BYTE   N12  Dn1  v092
 BYTE   W12
 BYTE   N06  Dn1  v100
 BYTE   W06
 BYTE   Dn1  v092
 BYTE   W06
 BYTE   N06
 BYTE   W06
 BYTE   N06
 BYTE   W06
 BYTE   PEND 
//  #10 //006   ----------------------------------------
Label_018E4AD4:
//  #10 //007   ----------------------------------------
 BYTE   PATT
  POIN2 Label_018E4A7E
//  #10 //008   ----------------------------------------
 BYTE   PATT
  POIN2 Label_018E4A9A
//  #10 //009   ----------------------------------------
 BYTE   PATT
  POIN2 Label_018E4AB5
//  #10 //010   ----------------------------------------
 BYTE   PATT
  POIN2 Label_018E4A7E
//  #10 //011   ----------------------------------------
 BYTE   PATT
  POIN2 Label_018E4A9A
//  #10 //012   ----------------------------------------
 BYTE   PATT
  POIN2 Label_018E4AB5
//  #10 //013   ----------------------------------------
 BYTE   PATT
  POIN2 Label_018E4A7E
//  #10 //014   ----------------------------------------
 BYTE   PATT
  POIN2 Label_018E4A9A
//  #10 //015   ----------------------------------------
 BYTE   PATT
  POIN2 Label_018E4AB5
//  #10 //016   ----------------------------------------
 BYTE   PATT
  POIN2 Label_018E4A7E
//  #10 //017   ----------------------------------------
 BYTE   PATT
  POIN2 Label_018E4A9A
//  #10 //018   ----------------------------------------
 BYTE   PATT
  POIN2 Label_018E4AB5
//  #10 //019   ----------------------------------------
 BYTE   PATT
  POIN2 Label_018E4A7E
//  #10 //020   ----------------------------------------
 BYTE   PATT
  POIN2 Label_018E4A9A
//  #10 //021   ----------------------------------------
 BYTE   PATT
  POIN2 Label_018E4AB5
//  #10 //022   ----------------------------------------
 BYTE   PATT
  POIN2 Label_018E4A7E
//  #10 //023   ----------------------------------------
 BYTE   PATT
  POIN2 Label_018E4A9A
//  #10 //024   ----------------------------------------
 BYTE   PATT
  POIN2 Label_018E4AB5
//  #10 //025   ----------------------------------------
 BYTE   PATT
  POIN2 Label_018E4A7E
//  #10 //026   ----------------------------------------
 BYTE   PATT
  POIN2 Label_018E4A9A
//  #10 //027   ----------------------------------------
 BYTE   PATT
  POIN2 Label_018E4AB5
//  #10 //028   ----------------------------------------
 BYTE   PATT
  POIN2 Label_018E4A7E
//  #10 //029   ----------------------------------------
 BYTE   PATT
  POIN2 Label_018E4A9A
//  #10 //030   ----------------------------------------
 BYTE   PATT
  POIN2 Label_018E4AB5
//  #10 //031   ----------------------------------------
 BYTE   PATT
  POIN2 Label_018E4A7E
//  #10 //032   ----------------------------------------
 BYTE   PATT
  POIN2 Label_018E4A9A
//  #10 //033   ----------------------------------------
 BYTE   PATT
  POIN2 Label_018E4AB5
//  #10 //034   ----------------------------------------
 BYTE   PATT
  POIN2 Label_018E4A7E
//  #10 //035   ----------------------------------------
 BYTE   PATT
  POIN2 Label_018E4A9A
//  #10 //036   ----------------------------------------
 BYTE   PATT
  POIN2 Label_018E4AB5
//  #10 //037   ----------------------------------------
 BYTE   PATT
  POIN2 Label_018E4A7E
//  #10 //038   ----------------------------------------
 BYTE   PATT
  POIN2 Label_018E4A9A
//  #10 //039   ----------------------------------------
 BYTE   N06  Dn1  v100
 BYTE   W06
 BYTE   Dn1  v092
 BYTE   W06
 BYTE   N12
 BYTE   W12
 BYTE   N12
 BYTE   W12
 BYTE   N24  Dn1  v100
 BYTE   W24
 BYTE   N12  Dn1  v092
 BYTE   W12
 BYTE   N06  Dn1  v120
 BYTE   W06
 BYTE   Dn1  v112
 BYTE   W06
 BYTE   N06
 BYTE   W06
 BYTE   N06
 BYTE   W06
//  #10 //040   ----------------------------------------
Label_018E4B92:
 BYTE   N12  Dn1  v092
 BYTE   W12
 BYTE   N24  Dn1  v100
 BYTE   W24
 BYTE   N12  Dn1  v092
 BYTE   W12
 BYTE   Dn1  v080
 BYTE   W12
 BYTE   Dn1  v092
 BYTE   W12
 BYTE   N06  Dn1  v100
 BYTE   W06
 BYTE   Dn1  v092
 BYTE   W06
 BYTE   N12
 BYTE   W12
 BYTE   PEND 
//  #10 //041   ----------------------------------------
Label_018E4BAE:
 BYTE   N12  Dn1  v092
 BYTE   W12
 BYTE   N24  Dn1  v100
 BYTE   W24
 BYTE   N12  Dn1  v092
 BYTE   W12
 BYTE   Dn1  v080
 BYTE   W12
 BYTE   Dn1  v092
 BYTE   W12
 BYTE   N06  Dn1  v100
 BYTE   W06
 BYTE   Dn1  v092
 BYTE   W06
 BYTE   N06
 BYTE   W06
 BYTE   N06
 BYTE   W06
 BYTE   PEND 
//  #10 //042   ----------------------------------------
 BYTE   PATT
  POIN2 Label_018E4B92
//  #10 //043   ----------------------------------------
 BYTE   PATT
  POIN2 Label_018E4BAE
//  #10 //044   ----------------------------------------
 BYTE   PATT
  POIN2 Label_018E4B92
//  #10 //045   ----------------------------------------
 BYTE   PATT
  POIN2 Label_018E4BAE
//  #10 //046   ----------------------------------------
 BYTE   PATT
  POIN2 Label_018E4B92
//  #10 //047   ----------------------------------------
 BYTE   PATT
  POIN2 Label_018E4BAE
//  #10 //048   ----------------------------------------
 BYTE   PATT
  POIN2 Label_018E4B92
//  #10 //049   ----------------------------------------
 BYTE   PATT
  POIN2 Label_018E4BAE
//  #10 //050   ----------------------------------------
 BYTE   PATT
  POIN2 Label_018E4B92
//  #10 //051   ----------------------------------------
 BYTE   PATT
  POIN2 Label_018E4BAE
//  #10 //052   ----------------------------------------
 BYTE   PATT
  POIN2 Label_018E4B92
//  #10 //053   ----------------------------------------
 BYTE   PATT
  POIN2 Label_018E4BAE
//  #10 //054   ----------------------------------------
 BYTE   PATT
  POIN2 Label_018E4B92
//  #10 //055   ----------------------------------------
 BYTE   PATT
  POIN2 Label_018E4BAE
//  #10 //056   ----------------------------------------
 BYTE   PATT
  POIN2 Label_018E4B92
//  #10 //057   ----------------------------------------
 BYTE   PATT
  POIN2 Label_018E4BAE
//  #10 //058   ----------------------------------------
 BYTE   PATT
  POIN2 Label_018E4B92
//  #10 //059   ----------------------------------------
 BYTE   PATT
  POIN2 Label_018E4BAE
//  #10 //060   ----------------------------------------
 BYTE   PATT
  POIN2 Label_018E4B92
//  #10 //061   ----------------------------------------
 BYTE   PATT
  POIN2 Label_018E4BAE
//  #10 //062   ----------------------------------------
 BYTE   PATT
  POIN2 Label_018E4B92
//  #10 //063   ----------------------------------------
 BYTE   PATT
  POIN2 Label_018E4BAE
//  #10 //064   ----------------------------------------
 BYTE   PATT
  POIN2 Label_018E4A7E
//  #10 //065   ----------------------------------------
 BYTE   PATT
  POIN2 Label_018E4A9A
//  #10 //066   ----------------------------------------
 BYTE   PATT
  POIN2 Label_018E4AB5
//  #10 //067   ----------------------------------------
 BYTE   PATT
  POIN2 Label_018E4A7E
//  #10 //068   ----------------------------------------
 BYTE   PATT
  POIN2 Label_018E4A9A
//  #10 //069   ----------------------------------------
 BYTE   PATT
  POIN2 Label_018E4AB5
//  #10 //070   ----------------------------------------
 BYTE   PATT
  POIN2 Label_018E4A7E
//  #10 //071   ----------------------------------------
 BYTE   PATT
  POIN2 Label_018E4A9A
//  #10 //072   ----------------------------------------
 BYTE   PATT
  POIN2 Label_018E4AB5
//  #10 //073   ----------------------------------------
 BYTE   PATT
  POIN2 Label_018E4A7E
//  #10 //074   ----------------------------------------
 BYTE   PATT
  POIN2 Label_018E4A9A
//  #10 //075   ----------------------------------------
 BYTE   PATT
  POIN2 Label_018E4AB5
//  #10 //076   ----------------------------------------
 BYTE   PATT
  POIN2 Label_018E4A7E
//  #10 //077   ----------------------------------------
 BYTE   PATT
  POIN2 Label_018E4A9A
//  #10 //078   ----------------------------------------
 BYTE   PATT
  POIN2 Label_018E4AB5
//  #10 //079   ----------------------------------------
 BYTE   PATT
  POIN2 Label_018E4A7E
//  #10 //080   ----------------------------------------
 BYTE   PATT
  POIN2 Label_018E4A9A
//  #10 //081   ----------------------------------------
 BYTE   PATT
  POIN2 Label_018E4AB5
//  #10 //082   ----------------------------------------
 BYTE   PATT
  POIN2 Label_018E4A7E
//  #10 //083   ----------------------------------------
 BYTE   PATT
  POIN2 Label_018E4A9A
//  #10 //084   ----------------------------------------
 BYTE   PATT
  POIN2 Label_018E4AB5
//  #10 //085   ----------------------------------------
 BYTE   GoTo
  POIN2 Label_018E4AD4
 BYTE   FINE

//**************** Track 11 (Midi-Chn.10) ****************//

TremblingEarth_011:
//  #11 //000   ----------------------------------------
 BYTE   KEYSH   TremblingEarth_key+0
 BYTE   VOICE   48
 BYTE   VOL   31*TremblingEarth_mvl/mxv
 BYTE   PAN   c_v+6
 BYTE   N12  Ds1  v088
 BYTE   W12
 BYTE   As1
 BYTE   W12
 BYTE   Ds2
 BYTE   W12
 BYTE   En2  v092
 BYTE   W12
 BYTE   Cs2
 BYTE   W12
 BYTE   Ds2
 BYTE   W12
 BYTE   Ds1  v096
 BYTE   W12
 BYTE   As1
 BYTE   W12
//  #11 //001   ----------------------------------------
 BYTE   Ds2
 BYTE   W12
 BYTE   En2  v100
 BYTE   W12
 BYTE   Fs2
 BYTE   W12
 BYTE   Ds2
 BYTE   W12
 BYTE   Ds1  v108
 BYTE   W12
 BYTE   As1
 BYTE   W12
 BYTE   Ds2
 BYTE   W12
 BYTE   En2  v112
 BYTE   W12
//  #11 //002   ----------------------------------------
 BYTE   Cs2
 BYTE   W12
 BYTE   Ds2
 BYTE   W12
 BYTE   Ds1  v116
 BYTE   W12
 BYTE   Ds2
 BYTE   W12
 BYTE   Cs2
 BYTE   W12
 BYTE   Ds2  v120
 BYTE   W12
 BYTE   Bn1
 BYTE   W12
 BYTE   Ds2
 BYTE   W12
//  #11 //003   ----------------------------------------
Label_018E4CEA:
 BYTE   N12  Ds1  v120
 BYTE   W12
 BYTE   As1
 BYTE   W12
 BYTE   Ds2
 BYTE   W12
 BYTE   En2
 BYTE   W12
 BYTE   Cs2
 BYTE   W12
 BYTE   Ds2
 BYTE   W12
 BYTE   Ds1
 BYTE   W12
 BYTE   As1
 BYTE   W12
 BYTE   PEND 
//  #11 //004   ----------------------------------------
Label_018E4CFD:
 BYTE   N12  Ds2  v120
 BYTE   W12
 BYTE   En2
 BYTE   W12
 BYTE   Fs2
 BYTE   W12
 BYTE   Ds2
 BYTE   W12
 BYTE   Ds1
 BYTE   W12
 BYTE   As1
 BYTE   W12
 BYTE   Ds2
 BYTE   W12
 BYTE   En2
 BYTE   W12
 BYTE   PEND 
//  #11 //005   ----------------------------------------
Label_018E4D10:
 BYTE   N12  Cs2  v120
 BYTE   W12
 BYTE   Ds2
 BYTE   W12
 BYTE   Ds1
 BYTE   W12
 BYTE   Ds2
 BYTE   W12
 BYTE   Cs2
 BYTE   W12
 BYTE   Ds2
 BYTE   W12
 BYTE   Bn1
 BYTE   W12
 BYTE   Ds2
 BYTE   W12
 BYTE   PEND 
//  #11 //006   ----------------------------------------
Label_018E4D23:
//  #11 //007   ----------------------------------------
 BYTE   PATT
  POIN2 Label_018E4CEA
//  #11 //008   ----------------------------------------
 BYTE   PATT
  POIN2 Label_018E4CFD
//  #11 //009   ----------------------------------------
 BYTE   PATT
  POIN2 Label_018E4D10
//  #11 //010   ----------------------------------------
 BYTE   PATT
  POIN2 Label_018E4CEA
//  #11 //011   ----------------------------------------
 BYTE   PATT
  POIN2 Label_018E4CFD
//  #11 //012   ----------------------------------------
 BYTE   PATT
  POIN2 Label_018E4D10
//  #11 //013   ----------------------------------------
 BYTE   PATT
  POIN2 Label_018E4CEA
//  #11 //014   ----------------------------------------
 BYTE   PATT
  POIN2 Label_018E4CFD
//  #11 //015   ----------------------------------------
 BYTE   PATT
  POIN2 Label_018E4D10
//  #11 //016   ----------------------------------------
 BYTE   PATT
  POIN2 Label_018E4CEA
//  #11 //017   ----------------------------------------
 BYTE   PATT
  POIN2 Label_018E4CFD
//  #11 //018   ----------------------------------------
 BYTE   PATT
  POIN2 Label_018E4D10
//  #11 //019   ----------------------------------------
 BYTE   PATT
  POIN2 Label_018E4CEA
//  #11 //020   ----------------------------------------
 BYTE   PATT
  POIN2 Label_018E4CFD
//  #11 //021   ----------------------------------------
 BYTE   PATT
  POIN2 Label_018E4D10
//  #11 //022   ----------------------------------------
 BYTE   PATT
  POIN2 Label_018E4CEA
//  #11 //023   ----------------------------------------
Label_018E4D73:
 BYTE   N12  Ds2  v120
 BYTE   W12
 BYTE   En2
 BYTE   W12
 BYTE   Fs2
 BYTE   W12
 BYTE   Ds2
 BYTE   W12
 BYTE   En1
 BYTE   W12
 BYTE   Bn1
 BYTE   W12
 BYTE   En2
 BYTE   W12
 BYTE   Fs2
 BYTE   W12
 BYTE   PEND 
//  #11 //024   ----------------------------------------
 BYTE   Ds2
 BYTE   W12
 BYTE   En2
 BYTE   W12
 BYTE   En1
 BYTE   W12
 BYTE   Bn1
 BYTE   W12
 BYTE   En2
 BYTE   W12
 BYTE   Fs2
 BYTE   W12
 BYTE   Gs2
 BYTE   W12
 BYTE   En2
 BYTE   W12
//  #11 //025   ----------------------------------------
 BYTE   PATT
  POIN2 Label_018E4CEA
//  #11 //026   ----------------------------------------
 BYTE   PATT
  POIN2 Label_018E4D73
//  #11 //027   ----------------------------------------
 BYTE   N12  Ds2  v120
 BYTE   W12
 BYTE   En2
 BYTE   W12
 BYTE   En1
 BYTE   W12
 BYTE   En2
 BYTE   W12
 BYTE   Ds2
 BYTE   W12
 BYTE   En2
 BYTE   W12
 BYTE   Bn1
 BYTE   W12
 BYTE   En2
 BYTE   W12
//  #11 //028   ----------------------------------------
 BYTE   Ds1
 BYTE   W12
 BYTE   As1
 BYTE   W12
 BYTE   Ds2
 BYTE   W12
 BYTE   Fn2
 BYTE   W12
 BYTE   Cs2
 BYTE   W12
 BYTE   Ds2
 BYTE   W12
 BYTE   Ds1
 BYTE   W12
 BYTE   Gs1
 BYTE   W12
//  #11 //029   ----------------------------------------
 BYTE   Ds2
 BYTE   W12
 BYTE   Fn2
 BYTE   W12
 BYTE   Gs2
 BYTE   W12
 BYTE   Bn2
 BYTE   W12
 BYTE   Ds1
 BYTE   W12
 BYTE   As1
 BYTE   W12
 BYTE   Ds2
 BYTE   W12
 BYTE   Fn2
 BYTE   W12
//  #11 //030   ----------------------------------------
 BYTE   Cs2
 BYTE   W12
 BYTE   Ds2
 BYTE   W12
 BYTE   Ds1
 BYTE   W12
 BYTE   Gs1
 BYTE   W12
 BYTE   Ds2
 BYTE   W12
 BYTE   Fn2
 BYTE   W12
 BYTE   Gs2
 BYTE   W12
 BYTE   Bn2
 BYTE   W12
//  #11 //031   ----------------------------------------
 BYTE   Fs1
 BYTE   W12
 BYTE   Cs2
 BYTE   W12
 BYTE   Fs2
 BYTE   W12
 BYTE   Gs2
 BYTE   W12
 BYTE   En2
 BYTE   W12
 BYTE   Fs2
 BYTE   W12
 BYTE   Fs1
 BYTE   W12
 BYTE   Bn1
 BYTE   W12
//  #11 //032   ----------------------------------------
 BYTE   Fs2
 BYTE   W12
 BYTE   Gs2
 BYTE   W12
 BYTE   Bn2
 BYTE   W12
 BYTE   Dn3
 BYTE   W12
 BYTE   Fs1
 BYTE   W12
 BYTE   Cs2
 BYTE   W12
 BYTE   Fs2
 BYTE   W12
 BYTE   Gs2
 BYTE   W12
//  #11 //033   ----------------------------------------
 BYTE   En2
 BYTE   W12
 BYTE   Fs2
 BYTE   W12
 BYTE   Fs1
 BYTE   W12
 BYTE   Bn1
 BYTE   W12
 BYTE   Fs2
 BYTE   W12
 BYTE   Gs2
 BYTE   W12
 BYTE   Bn2
 BYTE   W12
 BYTE   Dn3
 BYTE   W12
//  #11 //034   ----------------------------------------
 BYTE   PATT
  POIN2 Label_018E4CEA
//  #11 //035   ----------------------------------------
 BYTE   PATT
  POIN2 Label_018E4CFD
//  #11 //036   ----------------------------------------
 BYTE   PATT
  POIN2 Label_018E4D10
//  #11 //037   ----------------------------------------
 BYTE   PATT
  POIN2 Label_018E4CEA
//  #11 //038   ----------------------------------------
 BYTE   PATT
  POIN2 Label_018E4CFD
//  #11 //039   ----------------------------------------
 BYTE   PATT
  POIN2 Label_018E4D10
//  #11 //040   ----------------------------------------
Label_018E4E30:
 BYTE   N12  Ds1  v120
 BYTE   W12
 BYTE   As1
 BYTE   W12
 BYTE   Ds2
 BYTE   W12
 BYTE   Fn2
 BYTE   W12
 BYTE   Cs2
 BYTE   W12
 BYTE   Ds2
 BYTE   W12
 BYTE   Bn1
 BYTE   W12
 BYTE   Cs2
 BYTE   W12
 BYTE   PEND 
//  #11 //041   ----------------------------------------
Label_018E4E43:
 BYTE   N12  Ds1  v120
 BYTE   W12
 BYTE   As1
 BYTE   W12
 BYTE   Ds2
 BYTE   W12
 BYTE   Fn2
 BYTE   W12
 BYTE   Fs2
 BYTE   W12
 BYTE   Gs2
 BYTE   W12
 BYTE   Fn2
 BYTE   W12
 BYTE   Ds2
 BYTE   W12
 BYTE   PEND 
//  #11 //042   ----------------------------------------
 BYTE   PATT
  POIN2 Label_018E4E30
//  #11 //043   ----------------------------------------
 BYTE   N12  Ds1  v120
 BYTE   W12
 BYTE   Ds2
 BYTE   W12
 BYTE   Cs2
 BYTE   W12
 BYTE   Ds2
 BYTE   W12
 BYTE   Bn1
 BYTE   W12
 BYTE   Ds2
 BYTE   W12
 BYTE   As1
 BYTE   W12
 BYTE   Ds2
 BYTE   W12
//  #11 //044   ----------------------------------------
 BYTE   PATT
  POIN2 Label_018E4E30
//  #11 //045   ----------------------------------------
 BYTE   PATT
  POIN2 Label_018E4E43
//  #11 //046   ----------------------------------------
 BYTE   PATT
  POIN2 Label_018E4E30
//  #11 //047   ----------------------------------------
Label_018E4E7C:
 BYTE   N12  Ds1  v120
 BYTE   W12
 BYTE   Ds2
 BYTE   W12
 BYTE   Cs2
 BYTE   W12
 BYTE   Ds2
 BYTE   W12
 BYTE   Bn1
 BYTE   W12
 BYTE   Ds2  v127
 BYTE   W12
 BYTE   As1
 BYTE   W12
 BYTE   Ds2
 BYTE   W12
 BYTE   PEND 
//  #11 //048   ----------------------------------------
 BYTE   PATT
  POIN2 Label_018E4E30
//  #11 //049   ----------------------------------------
 BYTE   PATT
  POIN2 Label_018E4E43
//  #11 //050   ----------------------------------------
 BYTE   PATT
  POIN2 Label_018E4E30
//  #11 //051   ----------------------------------------
 BYTE   PATT
  POIN2 Label_018E4E7C
//  #11 //052   ----------------------------------------
 BYTE   N12  Ds1  v127
 BYTE   W12
 BYTE   As1
 BYTE   W12
 BYTE   Ds2
 BYTE   W12
 BYTE   Fn2
 BYTE   W12
 BYTE   Cs2
 BYTE   W12
 BYTE   Ds2
 BYTE   W12
 BYTE   Bn1
 BYTE   W12
 BYTE   Cs2
 BYTE   W12
//  #11 //053   ----------------------------------------
 BYTE   Ds1
 BYTE   W12
 BYTE   As1
 BYTE   W12
 BYTE   Ds2
 BYTE   W12
 BYTE   Fn2
 BYTE   W12
 BYTE   Fs2
 BYTE   W12
 BYTE   Gs2
 BYTE   W12
 BYTE   Fn2
 BYTE   W12
 BYTE   Ds2
 BYTE   W12
//  #11 //054   ----------------------------------------
 BYTE   Dn1
 BYTE   W12
 BYTE   As1
 BYTE   W12
 BYTE   Dn2
 BYTE   W12
 BYTE   Ds2
 BYTE   W12
 BYTE   Cn2
 BYTE   W12
 BYTE   Dn2
 BYTE   W12
 BYTE   As1
 BYTE   W12
 BYTE   Cn2
 BYTE   W12
//  #11 //055   ----------------------------------------
 BYTE   Dn1
 BYTE   W12
 BYTE   As1
 BYTE   W12
 BYTE   Dn2
 BYTE   W12
 BYTE   Ds2
 BYTE   W12
 BYTE   Fn2
 BYTE   W12
 BYTE   Fs2
 BYTE   W12
 BYTE   Gs2
 BYTE   W12
 BYTE   Fn2
 BYTE   W12
//  #11 //056   ----------------------------------------
 BYTE   Cs1
 BYTE   W12
 BYTE   As1
 BYTE   W12
 BYTE   Cs2
 BYTE   W12
 BYTE   Ds2
 BYTE   W12
 BYTE   As1
 BYTE   W12
 BYTE   Cs2
 BYTE   W12
 BYTE   Gn1
 BYTE   W12
 BYTE   As1
 BYTE   W12
//  #11 //057   ----------------------------------------
 BYTE   Cs1
 BYTE   W12
 BYTE   As1
 BYTE   W12
 BYTE   Cs2
 BYTE   W12
 BYTE   Ds2
 BYTE   W12
 BYTE   Fn2
 BYTE   W12
 BYTE   Cs2
 BYTE   W12
 BYTE   Gn2
 BYTE   W12
 BYTE   Cs2
 BYTE   W12
//  #11 //058   ----------------------------------------
 BYTE   Bn0
 BYTE   W12
 BYTE   Gs1
 BYTE   W12
 BYTE   Bn1
 BYTE   W12
 BYTE   Cs2
 BYTE   W12
 BYTE   Ds2
 BYTE   W12
 BYTE   En2
 BYTE   W12
 BYTE   Cs2
 BYTE   W12
 BYTE   Ds2
 BYTE   W12
//  #11 //059   ----------------------------------------
 BYTE   Bn0
 BYTE   W12
 BYTE   Bn1
 BYTE   W12
 BYTE   As1
 BYTE   W12
 BYTE   Bn1
 BYTE   W12
 BYTE   Gs1
 BYTE   W12
 BYTE   Bn1
 BYTE   W12
 BYTE   Ds1
 BYTE   W12
 BYTE   Bn1
 BYTE   W12
//  #11 //060   ----------------------------------------
 BYTE   Fn1
 BYTE   W12
 BYTE   Dn2
 BYTE   W12
 BYTE   Fn2
 BYTE   W12
 BYTE   Gn2
 BYTE   W12
 BYTE   Dn2
 BYTE   W12
 BYTE   Fn2
 BYTE   W12
 BYTE   Bn1
 BYTE   W12
 BYTE   Dn2
 BYTE   W12
//  #11 //061   ----------------------------------------
 BYTE   Fn1
 BYTE   W12
 BYTE   Dn2
 BYTE   W12
 BYTE   Fn2
 BYTE   W12
 BYTE   Gn2
 BYTE   W12
 BYTE   An2
 BYTE   W12
 BYTE   Fn2
 BYTE   W12
 BYTE   Bn2
 BYTE   W12
 BYTE   Fn2
 BYTE   W12
//  #11 //062   ----------------------------------------
 BYTE   Ds1
 BYTE   W12
 BYTE   Cn2
 BYTE   W12
 BYTE   Ds2
 BYTE   W12
 BYTE   Fn2
 BYTE   W12
 BYTE   Gn2
 BYTE   W12
 BYTE   Gs2
 BYTE   W12
 BYTE   Fn2
 BYTE   W12
 BYTE   Gn2
 BYTE   W12
//  #11 //063   ----------------------------------------
 BYTE   Ds1
 BYTE   W12
 BYTE   Ds2
 BYTE   W12
 BYTE   Dn2
 BYTE   W12
 BYTE   Ds2
 BYTE   W12
 BYTE   Cn2
 BYTE   W12
 BYTE   Ds2
 BYTE   W12
 BYTE   Gn1
 BYTE   W12
 BYTE   Ds2
 BYTE   W12
//  #11 //064   ----------------------------------------
 BYTE   Gn1
 BYTE   W12
 BYTE   Dn2
 BYTE   W12
 BYTE   Gn2
 BYTE   W12
 BYTE   Gs2
 BYTE   W12
 BYTE   Fn2
 BYTE   W12
 BYTE   Gn2
 BYTE   W12
 BYTE   Gn1
 BYTE   W12
 BYTE   Dn2
 BYTE   W12
//  #11 //065   ----------------------------------------
 BYTE   Gn2
 BYTE   W12
 BYTE   An2
 BYTE   W12
 BYTE   Bn2
 BYTE   W12
 BYTE   Gn2
 BYTE   W12
 BYTE   Gn1
 BYTE   W12
 BYTE   Dn2
 BYTE   W12
 BYTE   Gn2
 BYTE   W12
 BYTE   Gs2
 BYTE   W12
//  #11 //066   ----------------------------------------
 BYTE   Fn2
 BYTE   W12
 BYTE   Gn2
 BYTE   W12
 BYTE   Gn1
 BYTE   W12
 BYTE   Gn2
 BYTE   W12
 BYTE   Fn2
 BYTE   W12
 BYTE   Gn2
 BYTE   W12
 BYTE   Dn2
 BYTE   W12
 BYTE   Gn2
 BYTE   W12
//  #11 //067   ----------------------------------------
Label_018E4F96:
 BYTE   N12  Cn2  v108
 BYTE   W12
 BYTE   Gn2
 BYTE   W12
 BYTE   Cn3
 BYTE   W12
 BYTE   Cs3
 BYTE   W12
 BYTE   As2
 BYTE   W12
 BYTE   Cn3
 BYTE   W12
 BYTE   Cn2
 BYTE   W12
 BYTE   Gn2
 BYTE   W12
 BYTE   PEND 
//  #11 //068   ----------------------------------------
 BYTE   Cn3
 BYTE   W12
 BYTE   Cs3
 BYTE   W12
 BYTE   Ds3
 BYTE   W12
 BYTE   Cn3
 BYTE   W12
 BYTE   Cn2
 BYTE   W12
 BYTE   Gn2
 BYTE   W12
 BYTE   Cn3
 BYTE   W12
 BYTE   Cs3
 BYTE   W12
//  #11 //069   ----------------------------------------
 BYTE   As2
 BYTE   W12
 BYTE   Cn3
 BYTE   W12
 BYTE   Cn2
 BYTE   W12
 BYTE   Cn3
 BYTE   W12
 BYTE   As2
 BYTE   W12
 BYTE   Cn3
 BYTE   W12
 BYTE   Gn2
 BYTE   W12
 BYTE   Cn3
 BYTE   W12
//  #11 //070   ----------------------------------------
 BYTE   PATT
  POIN2 Label_018E4F96
//  #11 //071   ----------------------------------------
Label_018E4FCE:
 BYTE   N12  Cn3  v108
 BYTE   W12
 BYTE   Cs3
 BYTE   W12
 BYTE   Ds3
 BYTE   W12
 BYTE   Cn3
 BYTE   W12
 BYTE   Cn2
 BYTE   W12
 BYTE   Gs2
 BYTE   W12
 BYTE   Cn3
 BYTE   W12
 BYTE   Cs3
 BYTE   W12
 BYTE   PEND 
//  #11 //072   ----------------------------------------
Label_018E4FE1:
 BYTE   N12  As2  v108
 BYTE   W12
 BYTE   Cn3
 BYTE   W12
 BYTE   Cn2
 BYTE   W12
 BYTE   Gs2
 BYTE   W12
 BYTE   Cn3
 BYTE   W12
 BYTE   Cs3
 BYTE   W12
 BYTE   Ds3
 BYTE   W12
 BYTE   Cn3
 BYTE   W12
 BYTE   PEND 
//  #11 //073   ----------------------------------------
 BYTE   PATT
  POIN2 Label_018E4F96
//  #11 //074   ----------------------------------------
 BYTE   PATT
  POIN2 Label_018E4FCE
//  #11 //075   ----------------------------------------
 BYTE   PATT
  POIN2 Label_018E4FE1
//  #11 //076   ----------------------------------------
 BYTE   N12  Cn2  v108
 BYTE   W12
 BYTE   Gn2
 BYTE   W12
 BYTE   Cn3
 BYTE   W12
 BYTE   Dn3
 BYTE   W12
 BYTE   As2
 BYTE   W12
 BYTE   Cn3
 BYTE   W12
 BYTE   Cn2
 BYTE   W12
 BYTE   Fn2
 BYTE   W12
//  #11 //077   ----------------------------------------
 BYTE   Cn3
 BYTE   W12
 BYTE   Dn3
 BYTE   W12
 BYTE   Fn3
 BYTE   W12
 BYTE   Gs3
 BYTE   W12
 BYTE   Cn2
 BYTE   W12
 BYTE   Gn2
 BYTE   W12
 BYTE   Cn3
 BYTE   W12
 BYTE   Dn3
 BYTE   W12
//  #11 //078   ----------------------------------------
 BYTE   As2
 BYTE   W12
 BYTE   Cn3
 BYTE   W12
 BYTE   Cn2
 BYTE   W12
 BYTE   Fn2
 BYTE   W12
 BYTE   Cn3
 BYTE   W12
 BYTE   Dn3
 BYTE   W12
 BYTE   Fn3
 BYTE   W12
 BYTE   Gs3
 BYTE   W12
//  #11 //079   ----------------------------------------
 BYTE   Ds1  v127
 BYTE   W12
 BYTE   As1
 BYTE   W12
 BYTE   Ds2
 BYTE   W12
 BYTE   Fn2
 BYTE   W12
 BYTE   Cs2
 BYTE   W12
 BYTE   Ds2
 BYTE   W12
 BYTE   Ds1
 BYTE   W12
 BYTE   Gs1
 BYTE   W12
//  #11 //080   ----------------------------------------
 BYTE   Ds2
 BYTE   W12
 BYTE   Fn2
 BYTE   W12
 BYTE   Gs2
 BYTE   W12
 BYTE   Bn2
 BYTE   W12
 BYTE   Ds1
 BYTE   W12
 BYTE   As1
 BYTE   W12
 BYTE   Ds2
 BYTE   W12
 BYTE   Fn2
 BYTE   W12
//  #11 //081   ----------------------------------------
 BYTE   Cs2
 BYTE   W12
 BYTE   Ds2
 BYTE   W12
 BYTE   Ds1
 BYTE   W12
 BYTE   Gs1
 BYTE   W12
 BYTE   Ds2
 BYTE   W12
 BYTE   Fn2
 BYTE   W12
 BYTE   Gs2
 BYTE   W12
 BYTE   Bn2
 BYTE   W12
//  #11 //082   ----------------------------------------
 BYTE   PATT
  POIN2 Label_018E4CEA
//  #11 //083   ----------------------------------------
 BYTE   PATT
  POIN2 Label_018E4CFD
//  #11 //084   ----------------------------------------
 BYTE   PATT
  POIN2 Label_018E4D10
//  #11 //085   ----------------------------------------
 BYTE   GoTo
  POIN2 Label_018E4D23
 BYTE   FINE

//**************** Track 12 (Midi-Chn.11) ****************//

TremblingEarth_012:
//  #12 //000   ----------------------------------------
 BYTE   KEYSH   TremblingEarth_key+0
 BYTE   VOICE   14
 BYTE   VOL   26*TremblingEarth_mvl/mxv
 BYTE   PAN   c_v+12
 BYTE   N72  Ds3  v080
 BYTE   W02
 BYTE   N68  As3  v100
 BYTE   W92
 BYTE   W02
//  #12 //001   ----------------------------------------
 BYTE   W48
 BYTE   N72  Ds3  v080
 BYTE   W02
 BYTE   N68  As3  v100
 BYTE   W44
 BYTE   W02
//  #12 //002   ----------------------------------------
 BYTE   W96
//  #12 //003   ----------------------------------------
Label_018E5097:
 BYTE   N72  Ds3  v092
 BYTE   W02
 BYTE   N68  As3  v112
 BYTE   W92
 BYTE   W02
 BYTE   PEND 
//  #12 //004   ----------------------------------------
 BYTE   W96
//  #12 //005   ----------------------------------------
 BYTE   W96
//  #12 //006   ----------------------------------------
Label_018E50A3:
 BYTE   N72  Ds3  v100
 BYTE   W02
 BYTE   N68  As3  v120
 BYTE   W92
 BYTE   W02
 BYTE   PEND 
//  #12 //007   ----------------------------------------
 BYTE   W96
//  #12 //008   ----------------------------------------
 BYTE   W96
//  #12 //009   ----------------------------------------
 BYTE   W96
//  #12 //010   ----------------------------------------
 BYTE   W96
//  #12 //011   ----------------------------------------
 BYTE   W96
//  #12 //012   ----------------------------------------
 BYTE   PATT
  POIN2 Label_018E50A3
//  #12 //013   ----------------------------------------
 BYTE   W96
//  #12 //014   ----------------------------------------
 BYTE   W96
//  #12 //015   ----------------------------------------
 BYTE   W96
//  #12 //016   ----------------------------------------
 BYTE   W96
//  #12 //017   ----------------------------------------
 BYTE   W96
//  #12 //018   ----------------------------------------
 BYTE   W96
//  #12 //019   ----------------------------------------
 BYTE   W96
//  #12 //020   ----------------------------------------
 BYTE   W96
//  #12 //021   ----------------------------------------
 BYTE   W96
//  #12 //022   ----------------------------------------
 BYTE   W96
//  #12 //023   ----------------------------------------
 BYTE   W96
//  #12 //024   ----------------------------------------
 BYTE   W96
//  #12 //025   ----------------------------------------
 BYTE   W96
//  #12 //026   ----------------------------------------
 BYTE   W96
//  #12 //027   ----------------------------------------
 BYTE   PATT
  POIN2 Label_018E50A3
//  #12 //028   ----------------------------------------
 BYTE   W96
//  #12 //029   ----------------------------------------
 BYTE   W96
//  #12 //030   ----------------------------------------
 BYTE   N72  Fs3  v100
 BYTE   W02
 BYTE   N68  Cs4  v120
 BYTE   W92
 BYTE   W02
//  #12 //031   ----------------------------------------
 BYTE   W96
//  #12 //032   ----------------------------------------
 BYTE   W96
//  #12 //033   ----------------------------------------
 BYTE   PATT
  POIN2 Label_018E50A3
//  #12 //034   ----------------------------------------
 BYTE   W96
//  #12 //035   ----------------------------------------
 BYTE   W96
//  #12 //036   ----------------------------------------
 BYTE   W96
//  #12 //037   ----------------------------------------
 BYTE   W96
//  #12 //038   ----------------------------------------
 BYTE   W96
//  #12 //039   ----------------------------------------
Label_018E50E1:
 BYTE   TIE  Ds3  v120
 BYTE   W04
 BYTE   As3  v127
 BYTE   W92
 BYTE   PEND 
//  #12 //040   ----------------------------------------
 BYTE   W96
//  #12 //041   ----------------------------------------
 BYTE   EOT
 BYTE   Ds3
 BYTE   W04
 BYTE   As3
 BYTE   W92
//  #12 //042   ----------------------------------------
 BYTE   W96
//  #12 //043   ----------------------------------------
 BYTE   W96
//  #12 //044   ----------------------------------------
 BYTE   W96
//  #12 //045   ----------------------------------------
 BYTE   W96
//  #12 //046   ----------------------------------------
 BYTE   W96
//  #12 //047   ----------------------------------------
 BYTE   W96
//  #12 //048   ----------------------------------------
 BYTE   W96
//  #12 //049   ----------------------------------------
 BYTE   W96
//  #12 //050   ----------------------------------------
 BYTE   W96
//  #12 //051   ----------------------------------------
 BYTE   PATT
  POIN2 Label_018E50E1
//  #12 //052   ----------------------------------------
 BYTE   W96
//  #12 //053   ----------------------------------------
 BYTE   EOT
 BYTE   Ds3
 BYTE   W04
 BYTE   As3
 BYTE   W92
//  #12 //054   ----------------------------------------
 BYTE   W96
//  #12 //055   ----------------------------------------
 BYTE   TIE  Cs3  v127
 BYTE   W04
 BYTE   Gn3
 BYTE   W92
//  #12 //056   ----------------------------------------
 BYTE   W96
//  #12 //057   ----------------------------------------
 BYTE   EOT
 BYTE   Cs3
 BYTE   TIE  Bn2
 BYTE   W04
 BYTE   EOT
 BYTE   Gn3
 BYTE   TIE  Gs3
 BYTE   W92
//  #12 //058   ----------------------------------------
 BYTE   W96
//  #12 //059   ----------------------------------------
 BYTE   EOT
 BYTE   Bn2
 BYTE   TIE
 BYTE   W04
 BYTE   EOT
 BYTE   Gs3
 BYTE   TIE  Fn3
 BYTE   W92
//  #12 //060   ----------------------------------------
 BYTE   W96
//  #12 //061   ----------------------------------------
 BYTE   EOT
 BYTE   Bn2
 BYTE   TIE  Cn3
 BYTE   W04
 BYTE   EOT
 BYTE   Fn3
 BYTE   TIE  Gn3
 BYTE   W92
//  #12 //062   ----------------------------------------
 BYTE   W96
//  #12 //063   ----------------------------------------
 BYTE   EOT
 BYTE   Cn3
 BYTE   W04
 BYTE   Gn3
 BYTE   W92
//  #12 //064   ----------------------------------------
 BYTE   W96
//  #12 //065   ----------------------------------------
 BYTE   W96
//  #12 //066   ----------------------------------------
 BYTE   W96
//  #12 //067   ----------------------------------------
 BYTE   W96
//  #12 //068   ----------------------------------------
 BYTE   W96
//  #12 //069   ----------------------------------------
 BYTE   W96
//  #12 //070   ----------------------------------------
 BYTE   W96
//  #12 //071   ----------------------------------------
 BYTE   W96
//  #12 //072   ----------------------------------------
 BYTE   W96
//  #12 //073   ----------------------------------------
 BYTE   W96
//  #12 //074   ----------------------------------------
 BYTE   W96
//  #12 //075   ----------------------------------------
 BYTE   W96
//  #12 //076   ----------------------------------------
 BYTE   W96
//  #12 //077   ----------------------------------------
 BYTE   W96
//  #12 //078   ----------------------------------------
 BYTE   W96
//  #12 //079   ----------------------------------------
 BYTE   W96
//  #12 //080   ----------------------------------------
 BYTE   W96
//  #12 //081   ----------------------------------------
 BYTE   PATT
  POIN2 Label_018E5097
//  #12 //082   ----------------------------------------
 BYTE   W96
//  #12 //083   ----------------------------------------
 BYTE   W96
//  #12 //084   ----------------------------------------
 BYTE   GoTo
  POIN2 Label_018E50A3
 BYTE   FINE

//**************** Track 13 (Midi-Chn.12) ****************//

TremblingEarth_013:
//  #13 //000   ----------------------------------------
 BYTE   KEYSH   TremblingEarth_key+0
 BYTE   VOICE   47
 BYTE   VOL   37*TremblingEarth_mvl/mxv
 BYTE   PAN   c_v+0
 BYTE   W96
//  #13 //001   ----------------------------------------
 BYTE   W96
//  #13 //002   ----------------------------------------
 BYTE   W72
 BYTE   N06  Ds1  v120
 BYTE   W06
 BYTE   Ds1  v112
 BYTE   W06
 BYTE   N12  Ds1  v127
 BYTE   W12
//  #13 //003   ----------------------------------------
Label_018E5164:
 BYTE   N12  Ds1  v100
 BYTE   W12
 BYTE   N24  Ds1  v112
 BYTE   W24
 BYTE   N12  Ds1  v100
 BYTE   W12
 BYTE   N24  Ds1  v112
 BYTE   W48
 BYTE   PEND 
//  #13 //004   ----------------------------------------
Label_018E5175:
 BYTE   N24  Ds1  v100
 BYTE   W24
 BYTE   Ds1  v112
 BYTE   W24
 BYTE   N12  Ds1  v100
 BYTE   W12
 BYTE   N24  Ds1  v112
 BYTE   W24
 BYTE   N12  Ds1  v100
 BYTE   W12
 BYTE   PEND 
//  #13 //005   ----------------------------------------
Label_018E5189:
 BYTE   N24  Ds1  v112
 BYTE   W48
 BYTE   Ds1  v100
 BYTE   W24
 BYTE   N12  Ds1  v112
 BYTE   W12
 BYTE   N12
 BYTE   W12
 BYTE   PEND 
//  #13 //006   ----------------------------------------
Label_018E5197:
//  #13 //007   ----------------------------------------
 BYTE   PATT
  POIN2 Label_018E5164
//  #13 //008   ----------------------------------------
 BYTE   PATT
  POIN2 Label_018E5175
//  #13 //009   ----------------------------------------
 BYTE   PATT
  POIN2 Label_018E5189
//  #13 //010   ----------------------------------------
 BYTE   PATT
  POIN2 Label_018E5164
//  #13 //011   ----------------------------------------
 BYTE   PATT
  POIN2 Label_018E5175
//  #13 //012   ----------------------------------------
 BYTE   PATT
  POIN2 Label_018E5189
//  #13 //013   ----------------------------------------
 BYTE   PATT
  POIN2 Label_018E5164
//  #13 //014   ----------------------------------------
 BYTE   PATT
  POIN2 Label_018E5175
//  #13 //015   ----------------------------------------
 BYTE   PATT
  POIN2 Label_018E5189
//  #13 //016   ----------------------------------------
 BYTE   PATT
  POIN2 Label_018E5164
//  #13 //017   ----------------------------------------
 BYTE   PATT
  POIN2 Label_018E5175
//  #13 //018   ----------------------------------------
 BYTE   PATT
  POIN2 Label_018E5189
//  #13 //019   ----------------------------------------
 BYTE   PATT
  POIN2 Label_018E5164
//  #13 //020   ----------------------------------------
 BYTE   PATT
  POIN2 Label_018E5175
//  #13 //021   ----------------------------------------
 BYTE   PATT
  POIN2 Label_018E5189
//  #13 //022   ----------------------------------------
 BYTE   PATT
  POIN2 Label_018E5164
//  #13 //023   ----------------------------------------
Label_018E51E7:
 BYTE   N24  Ds1  v100
 BYTE   W24
 BYTE   Ds1  v112
 BYTE   W24
 BYTE   N12  En1  v100
 BYTE   W12
 BYTE   N24  En1  v112
 BYTE   W24
 BYTE   N12  En1  v100
 BYTE   W12
 BYTE   PEND 
//  #13 //024   ----------------------------------------
 BYTE   N24  En1  v112
 BYTE   W48
 BYTE   En1  v100
 BYTE   W24
 BYTE   N12  En1  v112
 BYTE   W12
 BYTE   N12
 BYTE   W12
//  #13 //025   ----------------------------------------
 BYTE   PATT
  POIN2 Label_018E5164
//  #13 //026   ----------------------------------------
 BYTE   PATT
  POIN2 Label_018E51E7
//  #13 //027   ----------------------------------------
 BYTE   N24  En1  v112
 BYTE   W48
 BYTE   N24
 BYTE   W24
 BYTE   N12  En1  v120
 BYTE   W12
 BYTE   En1  v127
 BYTE   W12
//  #13 //028   ----------------------------------------
Label_018E521F:
 BYTE   N12  Ds1  v120
 BYTE   W12
 BYTE   N24  Ds1  v127
 BYTE   W24
 BYTE   N12  Ds1  v120
 BYTE   W12
 BYTE   N24  Ds1  v127
 BYTE   W48
 BYTE   PEND 
//  #13 //029   ----------------------------------------
Label_018E5230:
 BYTE   N24  Gs1  v120
 BYTE   W24
 BYTE   Gs1  v127
 BYTE   W24
 BYTE   N12  Ds1  v120
 BYTE   W12
 BYTE   N24  Ds1  v127
 BYTE   W24
 BYTE   N12  Ds1  v120
 BYTE   W12
 BYTE   PEND 
//  #13 //030   ----------------------------------------
Label_018E5244:
 BYTE   N24  Ds1  v127
 BYTE   W48
 BYTE   Gs1  v120
 BYTE   W24
 BYTE   N12  Gs1  v127
 BYTE   W12
 BYTE   N12
 BYTE   W12
 BYTE   PEND 
//  #13 //031   ----------------------------------------
 BYTE   Fs1  v120
 BYTE   W12
 BYTE   N24  Fs1  v127
 BYTE   W24
 BYTE   N12  Fs1  v120
 BYTE   W12
 BYTE   N24  Fs1  v127
 BYTE   W48
//  #13 //032   ----------------------------------------
 BYTE   Bn1  v120
 BYTE   W24
 BYTE   Bn1  v127
 BYTE   W24
 BYTE   N12  Fs1  v120
 BYTE   W12
 BYTE   N24  Fs1  v127
 BYTE   W24
 BYTE   N12  Fs1  v120
 BYTE   W12
//  #13 //033   ----------------------------------------
 BYTE   N24  Fs1  v127
 BYTE   W48
 BYTE   Bn1  v120
 BYTE   W24
 BYTE   N12  Bn1  v127
 BYTE   W12
 BYTE   N12
 BYTE   W12
//  #13 //034   ----------------------------------------
 BYTE   PATT
  POIN2 Label_018E5164
//  #13 //035   ----------------------------------------
 BYTE   PATT
  POIN2 Label_018E5175
//  #13 //036   ----------------------------------------
 BYTE   PATT
  POIN2 Label_018E5189
//  #13 //037   ----------------------------------------
 BYTE   PATT
  POIN2 Label_018E5164
//  #13 //038   ----------------------------------------
 BYTE   PATT
  POIN2 Label_018E5175
//  #13 //039   ----------------------------------------
 BYTE   PATT
  POIN2 Label_018E5189
//  #13 //040   ----------------------------------------
Label_018E529E:
 BYTE   N12  Ds1  v120
 BYTE   W12
 BYTE   N24  Ds1  v127
 BYTE   W24
 BYTE   N12  Ds1  v120
 BYTE   W24
 BYTE   Ds1  v127
 BYTE   W12
 BYTE   N24  As1  v120
 BYTE   W24
 BYTE   PEND 
//  #13 //041   ----------------------------------------
Label_018E52B2:
 BYTE   N12  Ds1  v120
 BYTE   W12
 BYTE   N24  Ds1  v127
 BYTE   W24
 BYTE   N12  Ds1  v120
 BYTE   W24
 BYTE   Ds1  v127
 BYTE   W12
 BYTE   As1
 BYTE   W12
 BYTE   Ds1  v120
 BYTE   W12
 BYTE   PEND 
//  #13 //042   ----------------------------------------
 BYTE   PATT
  POIN2 Label_018E529E
//  #13 //043   ----------------------------------------
Label_018E52CC:
 BYTE   N12  Ds1  v120
 BYTE   W12
 BYTE   N24  Ds1  v127
 BYTE   W24
 BYTE   N12  Ds1  v120
 BYTE   W24
 BYTE   N06  Ds1  v127
 BYTE   W06
 BYTE   Ds1  v120
 BYTE   W06
 BYTE   N12  As1  v127
 BYTE   W12
 BYTE   Ds1  v120
 BYTE   W12
 BYTE   PEND 
//  #13 //044   ----------------------------------------
 BYTE   PATT
  POIN2 Label_018E529E
//  #13 //045   ----------------------------------------
 BYTE   PATT
  POIN2 Label_018E52B2
//  #13 //046   ----------------------------------------
 BYTE   PATT
  POIN2 Label_018E529E
//  #13 //047   ----------------------------------------
 BYTE   PATT
  POIN2 Label_018E52CC
//  #13 //048   ----------------------------------------
 BYTE   PATT
  POIN2 Label_018E529E
//  #13 //049   ----------------------------------------
 BYTE   PATT
  POIN2 Label_018E52B2
//  #13 //050   ----------------------------------------
 BYTE   PATT
  POIN2 Label_018E529E
//  #13 //051   ----------------------------------------
 BYTE   PATT
  POIN2 Label_018E52CC
//  #13 //052   ----------------------------------------
 BYTE   PATT
  POIN2 Label_018E529E
//  #13 //053   ----------------------------------------
 BYTE   PATT
  POIN2 Label_018E52B2
//  #13 //054   ----------------------------------------
 BYTE   N12  Dn1  v120
 BYTE   W12
 BYTE   N24  Dn1  v127
 BYTE   W24
 BYTE   N12  Dn1  v120
 BYTE   W24
 BYTE   Dn1  v127
 BYTE   W12
 BYTE   N24  As1  v120
 BYTE   W24
//  #13 //055   ----------------------------------------
 BYTE   N12  Dn1
 BYTE   W12
 BYTE   N24  Dn1  v127
 BYTE   W24
 BYTE   N12  Ds1  v120
 BYTE   W24
 BYTE   N06  Dn1  v127
 BYTE   W06
 BYTE   Dn1  v120
 BYTE   W06
 BYTE   N12  As1  v127
 BYTE   W12
 BYTE   Dn1  v120
 BYTE   W12
//  #13 //056   ----------------------------------------
 BYTE   Cs2
 BYTE   W12
 BYTE   N24  Cs2  v127
 BYTE   W24
 BYTE   N12  Cs2  v120
 BYTE   W24
 BYTE   Cs2  v127
 BYTE   W12
 BYTE   N24  As1  v120
 BYTE   W24
//  #13 //057   ----------------------------------------
 BYTE   N12  Cs2
 BYTE   W12
 BYTE   N24  Cs2  v127
 BYTE   W24
 BYTE   N12  Cs2  v120
 BYTE   W24
 BYTE   Cs2  v127
 BYTE   W12
 BYTE   As1
 BYTE   W12
 BYTE   Cs2  v120
 BYTE   W12
//  #13 //058   ----------------------------------------
 BYTE   Bn1
 BYTE   W12
 BYTE   N24  Bn1  v127
 BYTE   W24
 BYTE   N12  Bn1  v120
 BYTE   W24
 BYTE   Bn1  v127
 BYTE   W12
 BYTE   N24  Gs1  v120
 BYTE   W24
//  #13 //059   ----------------------------------------
 BYTE   N12  Bn1
 BYTE   W12
 BYTE   N24  Bn1  v127
 BYTE   W24
 BYTE   N12  Bn1  v120
 BYTE   W24
 BYTE   N06  Bn1  v127
 BYTE   W06
 BYTE   Bn1  v120
 BYTE   W06
 BYTE   N12  Gs1  v127
 BYTE   W12
 BYTE   Bn1  v120
 BYTE   W12
//  #13 //060   ----------------------------------------
 BYTE   Fn1
 BYTE   W12
 BYTE   N24  Fn1  v127
 BYTE   W24
 BYTE   N12  Fn1  v120
 BYTE   W24
 BYTE   Fn1  v127
 BYTE   W12
 BYTE   N24  Dn1  v120
 BYTE   W24
//  #13 //061   ----------------------------------------
 BYTE   N12  Fn1
 BYTE   W12
 BYTE   N24  Fn1  v127
 BYTE   W24
 BYTE   N12  Fn1  v120
 BYTE   W24
 BYTE   Fn1  v127
 BYTE   W12
 BYTE   Dn1
 BYTE   W12
 BYTE   Fn1  v120
 BYTE   W12
//  #13 //062   ----------------------------------------
 BYTE   Ds1
 BYTE   W12
 BYTE   N24  Ds1  v127
 BYTE   W24
 BYTE   N12  Ds1  v120
 BYTE   W24
 BYTE   Ds1  v127
 BYTE   W12
 BYTE   N24  Cn2  v120
 BYTE   W24
//  #13 //063   ----------------------------------------
 BYTE   N12  Ds1
 BYTE   W12
 BYTE   N24  Ds1  v127
 BYTE   W24
 BYTE   N12  Ds1  v120
 BYTE   W24
 BYTE   N06  Ds1  v127
 BYTE   W06
 BYTE   Ds1  v120
 BYTE   W06
 BYTE   N12  Cn2  v127
 BYTE   W12
 BYTE   Ds1  v120
 BYTE   W12
//  #13 //064   ----------------------------------------
 BYTE   N36  Gn1  v127
 BYTE   W36
 BYTE   N12  Dn1  v100
 BYTE   W12
 BYTE   N24  Gn1  v120
 BYTE   W48
//  #13 //065   ----------------------------------------
 BYTE   Gn1  v112
 BYTE   W24
 BYTE   Gn1  v120
 BYTE   W24
 BYTE   N36  Gn1  v127
 BYTE   W36
 BYTE   N12  Dn1  v100
 BYTE   W12
//  #13 //066   ----------------------------------------
 BYTE   N24  Gn1  v120
 BYTE   W24
 BYTE   N24
 BYTE   W24
 BYTE   Gn1  v112
 BYTE   W24
 BYTE   Gn1  v120
 BYTE   W24
//  #13 //067   ----------------------------------------
 BYTE   N36  Cn2  v127
 BYTE   W36
 BYTE   N12  Gn1  v100
 BYTE   W12
 BYTE   N24  Cn2  v120
 BYTE   W48
//  #13 //068   ----------------------------------------
 BYTE   Cn2  v112
 BYTE   W24
 BYTE   Cn2  v120
 BYTE   W24
 BYTE   N36  Cn2  v127
 BYTE   W36
 BYTE   N12  Gn1  v100
 BYTE   W12
//  #13 //069   ----------------------------------------
 BYTE   N24  Cn2  v120
 BYTE   W24
 BYTE   N24
 BYTE   W24
 BYTE   Cn2  v112
 BYTE   W24
 BYTE   Cn2  v120
 BYTE   W24
//  #13 //070   ----------------------------------------
Label_018E542D:
 BYTE   N12  Cn2  v100
 BYTE   W12
 BYTE   N24  Cn2  v112
 BYTE   W24
 BYTE   N12  Cn2  v100
 BYTE   W12
 BYTE   N24  Cn2  v112
 BYTE   W48
 BYTE   PEND 
//  #13 //071   ----------------------------------------
Label_018E543E:
 BYTE   N24  Cn2  v100
 BYTE   W24
 BYTE   Cn2  v112
 BYTE   W24
 BYTE   N12  Cn2  v100
 BYTE   W12
 BYTE   N24  Cn2  v112
 BYTE   W24
 BYTE   N12  Cn2  v100
 BYTE   W12
 BYTE   PEND 
//  #13 //072   ----------------------------------------
Label_018E5452:
 BYTE   N24  Cn2  v112
 BYTE   W48
 BYTE   Cn2  v100
 BYTE   W24
 BYTE   N12  Cn2  v112
 BYTE   W12
 BYTE   N12
 BYTE   W12
 BYTE   PEND 
//  #13 //073   ----------------------------------------
 BYTE   PATT
  POIN2 Label_018E542D
//  #13 //074   ----------------------------------------
 BYTE   PATT
  POIN2 Label_018E543E
//  #13 //075   ----------------------------------------
 BYTE   PATT
  POIN2 Label_018E5452
//  #13 //076   ----------------------------------------
 BYTE   N12  Cn2  v120
 BYTE   W12
 BYTE   N24  Cn2  v127
 BYTE   W24
 BYTE   N12  Cn2  v120
 BYTE   W12
 BYTE   N24  Cn2  v127
 BYTE   W48
//  #13 //077   ----------------------------------------
 BYTE   Fn1  v120
 BYTE   W24
 BYTE   Fn1  v127
 BYTE   W24
 BYTE   N12  Cn2  v120
 BYTE   W12
 BYTE   N24  Cn2  v127
 BYTE   W24
 BYTE   N12  Cn2  v120
 BYTE   W12
//  #13 //078   ----------------------------------------
 BYTE   N24  Cn2  v127
 BYTE   W48
 BYTE   Fn1  v120
 BYTE   W24
 BYTE   N12  Fn1  v127
 BYTE   W12
 BYTE   N12
 BYTE   W12
//  #13 //079   ----------------------------------------
 BYTE   PATT
  POIN2 Label_018E521F
//  #13 //080   ----------------------------------------
 BYTE   PATT
  POIN2 Label_018E5230
//  #13 //081   ----------------------------------------
 BYTE   PATT
  POIN2 Label_018E5244
//  #13 //082   ----------------------------------------
 BYTE   PATT
  POIN2 Label_018E5164
//  #13 //083   ----------------------------------------
 BYTE   PATT
  POIN2 Label_018E5175
//  #13 //084   ----------------------------------------
 BYTE   PATT
  POIN2 Label_018E5189
//  #13 //085   ----------------------------------------
 BYTE   GoTo
  POIN2 Label_018E5197
 BYTE   FINE

//**************** Track 14 (Midi-Chn.13) ****************//

TremblingEarth_014:
//  #14 //000   ----------------------------------------
 BYTE   KEYSH   TremblingEarth_key+0
 BYTE   VOICE   52
 BYTE   VOL   28*TremblingEarth_mvl/mxv
 BYTE   PAN   c_v+4
 BYTE   W96
//  #14 //001   ----------------------------------------
 BYTE   W96
//  #14 //002   ----------------------------------------
 BYTE   W96
//  #14 //003   ----------------------------------------
 BYTE   W96
//  #14 //004   ----------------------------------------
 BYTE   W96
//  #14 //005   ----------------------------------------
 BYTE   W96
//  #14 //006   ----------------------------------------
Label_018E54D0:
 BYTE   W96
//  #14 //007   ----------------------------------------
 BYTE   W96
//  #14 //008   ----------------------------------------
 BYTE   W96
//  #14 //009   ----------------------------------------
 BYTE   W96
//  #14 //010   ----------------------------------------
 BYTE   W96
//  #14 //011   ----------------------------------------
 BYTE   W96
//  #14 //012   ----------------------------------------
 BYTE   W96
//  #14 //013   ----------------------------------------
 BYTE   W96
//  #14 //014   ----------------------------------------
 BYTE   W96
//  #14 //015   ----------------------------------------
 BYTE   W96
//  #14 //016   ----------------------------------------
 BYTE   W96
//  #14 //017   ----------------------------------------
 BYTE   W96
//  #14 //018   ----------------------------------------
 BYTE   W96
//  #14 //019   ----------------------------------------
 BYTE   W96
//  #14 //020   ----------------------------------------
 BYTE   W96
//  #14 //021   ----------------------------------------
Label_018E54DF:
 BYTE   TIE  Ds2  v112
 BYTE   TIE  As2
 BYTE   W96
 BYTE   PEND 
//  #14 //022   ----------------------------------------
 BYTE   W48
 BYTE   EOT
 BYTE   Ds2  v058
 BYTE   TIE  En2
 BYTE   N72  Bn2
 BYTE   W48
//  #14 //023   ----------------------------------------
 BYTE   W24
 BYTE   Gs2
 BYTE   W72
//  #14 //024   ----------------------------------------
 BYTE   EOT
 BYTE   En2
//  #14 //025   ----------------------------------------
 BYTE   PATT
  POIN2 Label_018E54DF
//  #14 //026   ----------------------------------------
 BYTE   W48
 BYTE   EOT
 BYTE   Ds2  v058
 BYTE   TIE  En2  v112
 BYTE   N72  Gs2
 BYTE   W48
//  #14 //027   ----------------------------------------
 BYTE   W24
 BYTE   N72
 BYTE   W72
//  #14 //028   ----------------------------------------
 BYTE   EOT
 BYTE   En2
Label_018E5508:
 BYTE   TIE  Ds2  v112
 BYTE   N72  As2
 BYTE   W72
 BYTE   Gs2
 BYTE   W24
 BYTE   PEND 
//  #14 //029   ----------------------------------------
 BYTE   W48
 BYTE   EOT
 BYTE   Ds2
 BYTE   TIE
 BYTE   N72  As2
 BYTE   W48
//  #14 //030   ----------------------------------------
 BYTE   W24
 BYTE   Gs2
 BYTE   W72
//  #14 //031   ----------------------------------------
 BYTE   EOT
 BYTE   Ds2
 BYTE   TIE  Fs2
 BYTE   N72  Cs3
 BYTE   W72
 BYTE   Bn2
 BYTE   W24
//  #14 //032   ----------------------------------------
 BYTE   W48
 BYTE   EOT
 BYTE   Fs2
 BYTE   TIE
 BYTE   N72  Cs3
 BYTE   W48
//  #14 //033   ----------------------------------------
 BYTE   W24
 BYTE   Bn2
 BYTE   W72
//  #14 //034   ----------------------------------------
 BYTE   EOT
 BYTE   Fs2
 BYTE   W96
//  #14 //035   ----------------------------------------
 BYTE   W96
//  #14 //036   ----------------------------------------
 BYTE   W96
//  #14 //037   ----------------------------------------
 BYTE   W96
//  #14 //038   ----------------------------------------
 BYTE   W96
//  #14 //039   ----------------------------------------
 BYTE   W96
//  #14 //040   ----------------------------------------
 BYTE   W96
//  #14 //041   ----------------------------------------
 BYTE   W96
//  #14 //042   ----------------------------------------
 BYTE   W96
//  #14 //043   ----------------------------------------
 BYTE   W96
//  #14 //044   ----------------------------------------
 BYTE   W96
//  #14 //045   ----------------------------------------
 BYTE   W96
//  #14 //046   ----------------------------------------
 BYTE   W96
//  #14 //047   ----------------------------------------
 BYTE   W96
//  #14 //048   ----------------------------------------
 BYTE   W96
//  #14 //049   ----------------------------------------
 BYTE   W96
//  #14 //050   ----------------------------------------
 BYTE   W96
//  #14 //051   ----------------------------------------
 BYTE   W96
//  #14 //052   ----------------------------------------
 BYTE   W96
//  #14 //053   ----------------------------------------
 BYTE   W96
//  #14 //054   ----------------------------------------
 BYTE   W96
//  #14 //055   ----------------------------------------
 BYTE   W96
//  #14 //056   ----------------------------------------
 BYTE   W96
//  #14 //057   ----------------------------------------
 BYTE   W96
//  #14 //058   ----------------------------------------
 BYTE   W96
//  #14 //059   ----------------------------------------
 BYTE   W96
//  #14 //060   ----------------------------------------
 BYTE   W96
//  #14 //061   ----------------------------------------
 BYTE   W96
//  #14 //062   ----------------------------------------
 BYTE   W96
//  #14 //063   ----------------------------------------
 BYTE   W96
//  #14 //064   ----------------------------------------
 BYTE   W96
//  #14 //065   ----------------------------------------
 BYTE   W96
//  #14 //066   ----------------------------------------
 BYTE   W96
//  #14 //067   ----------------------------------------
 BYTE   W96
//  #14 //068   ----------------------------------------
 BYTE   W96
//  #14 //069   ----------------------------------------
 BYTE   W96
//  #14 //070   ----------------------------------------
Label_018E5554:
 BYTE   TIE  Cn2  v112
 BYTE   TIE  Gn2
 BYTE   W96
 BYTE   PEND 
//  #14 //071   ----------------------------------------
 BYTE   W48
 BYTE   EOT
 BYTE   Cn2  v055
 BYTE   TIE  Cn2
 BYTE   TIE  Gs2
 BYTE   W48
//  #14 //072   ----------------------------------------
 BYTE   W96
//  #14 //073   ----------------------------------------
 BYTE   EOT
 BYTE   Cn2  v056
//  #14 //074   ----------------------------------------
 BYTE   PATT
  POIN2 Label_018E5554
//  #14 //075   ----------------------------------------
 BYTE   W48
 BYTE   EOT
 BYTE   Cn2  v055
 BYTE   TIE  Cn2  v112
 BYTE   TIE  Gs2
 BYTE   W48
//  #14 //076   ----------------------------------------
 BYTE   W96
//  #14 //077   ----------------------------------------
 BYTE   EOT
 BYTE   Cn2  v056
 BYTE   TIE  Cn2
 BYTE   N72  Gn2
 BYTE   W72
 BYTE   Fn2
 BYTE   W24
//  #14 //078   ----------------------------------------
 BYTE   W48
 BYTE   EOT
 BYTE   Cn2
 BYTE   TIE
 BYTE   N72  Gn2
 BYTE   W48
//  #14 //079   ----------------------------------------
 BYTE   W24
 BYTE   Fn2
 BYTE   W72
//  #14 //080   ----------------------------------------
 BYTE   EOT
 BYTE   Cn2
//  #14 //081   ----------------------------------------
 BYTE   PATT
  POIN2 Label_018E5508
//  #14 //082   ----------------------------------------
 BYTE   W48
 BYTE   EOT
 BYTE   Ds2
 BYTE   TIE  Ds2  v112
 BYTE   N72  As2
 BYTE   W48
//  #14 //083   ----------------------------------------
 BYTE   W24
 BYTE   Gs2
 BYTE   W72
//  #14 //084   ----------------------------------------
 BYTE   EOT
 BYTE   Ds2
//  #14 //085   ----------------------------------------
 BYTE   PATT
  POIN2 Label_018E54DF
//  #14 //086   ----------------------------------------
 BYTE   W96
//  #14 //087   ----------------------------------------
 BYTE   W24
 BYTE   EOT
 BYTE   Ds2  v058
 BYTE   W72
//  #14 //088   ----------------------------------------
 BYTE   GoTo
  POIN2 Label_018E54D0
 BYTE   FINE

//**************** Track 15 (Midi-Chn.14) ****************//

TremblingEarth_015:
//  #15 //000   ----------------------------------------
 BYTE   KEYSH   TremblingEarth_key+0
 BYTE   VOICE   127
 BYTE   VOL   31*TremblingEarth_mvl/mxv
 BYTE   PAN   c_v+0
 BYTE   W96
//  #15 //001   ----------------------------------------
 BYTE   W96
//  #15 //002   ----------------------------------------
 BYTE   W96
//  #15 //003   ----------------------------------------
 BYTE   W96
//  #15 //004   ----------------------------------------
 BYTE   W96
//  #15 //005   ----------------------------------------
 BYTE   W96
//  #15 //006   ----------------------------------------
Label_018E55C0:
 BYTE   W96
//  #15 //007   ----------------------------------------
 BYTE   W96
//  #15 //008   ----------------------------------------
 BYTE   W96
//  #15 //009   ----------------------------------------
 BYTE   W96
//  #15 //010   ----------------------------------------
 BYTE   W96
//  #15 //011   ----------------------------------------
 BYTE   W96
//  #15 //012   ----------------------------------------
 BYTE   W96
//  #15 //013   ----------------------------------------
 BYTE   W96
//  #15 //014   ----------------------------------------
 BYTE   W96
//  #15 //015   ----------------------------------------
 BYTE   W96
//  #15 //016   ----------------------------------------
 BYTE   W96
//  #15 //017   ----------------------------------------
 BYTE   W96
//  #15 //018   ----------------------------------------
 BYTE   W96
//  #15 //019   ----------------------------------------
Label_018E55CD:
 BYTE   W48
 BYTE   TIE  En2  v092
 BYTE   W48
 BYTE   PEND 
//  #15 //020   ----------------------------------------
 BYTE   W96
//  #15 //021   ----------------------------------------
 BYTE   N72  Cs2
 BYTE   W48
 BYTE   EOT
 BYTE   En2
 BYTE   W48
//  #15 //022   ----------------------------------------
 BYTE   W96
//  #15 //023   ----------------------------------------
 BYTE   W96
//  #15 //024   ----------------------------------------
 BYTE   W96
//  #15 //025   ----------------------------------------
 BYTE   W96
//  #15 //026   ----------------------------------------
 BYTE   W96
//  #15 //027   ----------------------------------------
 BYTE   W96
//  #15 //028   ----------------------------------------
 BYTE   W96
//  #15 //029   ----------------------------------------
 BYTE   W96
//  #15 //030   ----------------------------------------
 BYTE   W96
//  #15 //031   ----------------------------------------
 BYTE   PATT
  POIN2 Label_018E55CD
//  #15 //032   ----------------------------------------
 BYTE   W96
//  #15 //033   ----------------------------------------
 BYTE   N72  Cs2  v092
 BYTE   N24  An2  v120
 BYTE   W36
 BYTE   An2  v100
 BYTE   W12
 BYTE   EOT
 BYTE   En2
 BYTE   W48
//  #15 //034   ----------------------------------------
 BYTE   W96
//  #15 //035   ----------------------------------------
 BYTE   W96
//  #15 //036   ----------------------------------------
 BYTE   N24  An2  v120
 BYTE   W36
 BYTE   An2  v100
 BYTE   W60
//  #15 //037   ----------------------------------------
 BYTE   W96
//  #15 //038   ----------------------------------------
 BYTE   W96
//  #15 //039   ----------------------------------------
 BYTE   TIE  Cs2  v060
 BYTE   W96
//  #15 //040   ----------------------------------------
 BYTE   W96
//  #15 //041   ----------------------------------------
 BYTE   EOT
 BYTE   W96
//  #15 //042   ----------------------------------------
 BYTE   W96
//  #15 //043   ----------------------------------------
 BYTE   W96
//  #15 //044   ----------------------------------------
 BYTE   W96
//  #15 //045   ----------------------------------------
 BYTE   W96
//  #15 //046   ----------------------------------------
 BYTE   W96
//  #15 //047   ----------------------------------------
 BYTE   W96
//  #15 //048   ----------------------------------------
 BYTE   W96
//  #15 //049   ----------------------------------------
 BYTE   W96
//  #15 //050   ----------------------------------------
 BYTE   W96
//  #15 //051   ----------------------------------------
 BYTE   W96
//  #15 //052   ----------------------------------------
 BYTE   W96
//  #15 //053   ----------------------------------------
 BYTE   W96
//  #15 //054   ----------------------------------------
 BYTE   W96
//  #15 //055   ----------------------------------------
 BYTE   TIE  En2  v092
 BYTE   W96
//  #15 //056   ----------------------------------------
 BYTE   W96
//  #15 //057   ----------------------------------------
 BYTE   EOT
 BYTE   TIE  Cs2
 BYTE   W96
//  #15 //058   ----------------------------------------
 BYTE   W96
//  #15 //059   ----------------------------------------
 BYTE   EOT
 BYTE   W96
//  #15 //060   ----------------------------------------
 BYTE   W96
//  #15 //061   ----------------------------------------
 BYTE   W96
//  #15 //062   ----------------------------------------
 BYTE   W96
//  #15 //063   ----------------------------------------
 BYTE   N96
 BYTE   N24  An2  v120
 BYTE   W96
//  #15 //064   ----------------------------------------
 BYTE   W96
//  #15 //065   ----------------------------------------
 BYTE   W96
//  #15 //066   ----------------------------------------
 BYTE   W96
//  #15 //067   ----------------------------------------
 BYTE   W96
//  #15 //068   ----------------------------------------
 BYTE   W96
//  #15 //069   ----------------------------------------
 BYTE   W96
//  #15 //070   ----------------------------------------
 BYTE   W96
//  #15 //071   ----------------------------------------
 BYTE   W96
//  #15 //072   ----------------------------------------
 BYTE   W96
//  #15 //073   ----------------------------------------
 BYTE   W96
//  #15 //074   ----------------------------------------
 BYTE   W96
//  #15 //075   ----------------------------------------
 BYTE   W96
//  #15 //076   ----------------------------------------
 BYTE   W96
//  #15 //077   ----------------------------------------
 BYTE   W96
//  #15 //078   ----------------------------------------
 BYTE   W96
//  #15 //079   ----------------------------------------
 BYTE   W96
//  #15 //080   ----------------------------------------
 BYTE   W96
//  #15 //081   ----------------------------------------
 BYTE   W96
//  #15 //082   ----------------------------------------
 BYTE   W96
//  #15 //083   ----------------------------------------
 BYTE   W96
//  #15 //084   ----------------------------------------
 BYTE   GoTo
  POIN2 Label_018E55C0
 BYTE   FINE

//******************************************************//
	ALIGN 4

TremblingEarth:
	BYTE	15	// NumTrks
	BYTE	0	// NumBlks
	BYTE	TremblingEarth_pri	// Priority
	BYTE	TremblingEarth_rev	// Reverb.
    
	POIN2	TremblingEarth_grp
    
	POIN2	TremblingEarth_001
	POIN2	TremblingEarth_002
	POIN2	TremblingEarth_003
	POIN2	TremblingEarth_004
	POIN2	TremblingEarth_005
	POIN2	TremblingEarth_006
	POIN2	TremblingEarth_007
	POIN2	TremblingEarth_008
	POIN2	TremblingEarth_009
	POIN2	TremblingEarth_010
	POIN2	TremblingEarth_011
	POIN2	TremblingEarth_012
	POIN2	TremblingEarth_013
	POIN2	TremblingEarth_014
	POIN2	TremblingEarth_015

	
