	.include "MPlayDef.s"

	.equ	song013A_grp, voicegroup000
	.equ	song013A_pri, 0
	.equ	song013A_rev, 0
	.equ	song013A_mvl, 127
	.equ	song013A_key, 0
	.equ	song013A_tbs, 1
	.equ	song013A_exg, 0
	.equ	song013A_cmp, 1

	.section .rodata
	.global	song013A
	.align	2


@**************** Track 1 (Midi-Chn.0) ****************@

song013A_001:
@  #01 @000   ----------------------------------------
 .byte   KEYSH , song013A_key+0
Label_0165E676:
 .byte   TEMPO , 200*song013A_tbs/2
 .byte   VOICE , 1
 .byte   VOL , 47*song013A_mvl/mxv
 .byte   PAN , c_v+0
 .byte   VOL , 47*song013A_mvl/mxv
 .byte   PAN , c_v+0
 .byte   N32 ,As3 ,v080
 .byte   W36
 .byte   An3
 .byte   W36
 .byte   N22 ,As3
 .byte   W24
@  #01 @001   ----------------------------------------
Label_0165E68B:
 .byte   N44 ,Dn4 ,v080
 .byte   W48
 .byte   An3
 .byte   W48
 .byte   PEND 
@  #01 @002   ----------------------------------------
 .byte   N90 ,Gn3
 .byte   W96
@  #01 @003   ----------------------------------------
 .byte   An3
 .byte   W96
@  #01 @004   ----------------------------------------
Label_0165E697:
 .byte   N32 ,As3 ,v080
 .byte   W36
 .byte   An3
 .byte   W36
 .byte   N22 ,As3
 .byte   W24
 .byte   PEND 
@  #01 @005   ----------------------------------------
 .byte   PATT
  .word Label_0165E68B
@  #01 @006   ----------------------------------------
 .byte   N90 ,Gn3 ,v080
 .byte   W96
@  #01 @007   ----------------------------------------
 .byte   An3
 .byte   W96
@  #01 @008   ----------------------------------------
 .byte   W96
@  #01 @009   ----------------------------------------
 .byte   W96
@  #01 @010   ----------------------------------------
 .byte   W96
@  #01 @011   ----------------------------------------
 .byte   W96
@  #01 @012   ----------------------------------------
 .byte   W96
@  #01 @013   ----------------------------------------
 .byte   W96
@  #01 @014   ----------------------------------------
 .byte   W96
@  #01 @015   ----------------------------------------
 .byte   W96
@  #01 @016   ----------------------------------------
 .byte   W96
@  #01 @017   ----------------------------------------
 .byte   W96
@  #01 @018   ----------------------------------------
 .byte   W96
@  #01 @019   ----------------------------------------
 .byte   W96
@  #01 @020   ----------------------------------------
 .byte   W96
@  #01 @021   ----------------------------------------
 .byte   W96
@  #01 @022   ----------------------------------------
 .byte   W96
@  #01 @023   ----------------------------------------
 .byte   W96
@  #01 @024   ----------------------------------------
 .byte   W96
@  #01 @025   ----------------------------------------
 .byte   W96
@  #01 @026   ----------------------------------------
 .byte   W96
@  #01 @027   ----------------------------------------
 .byte   W96
@  #01 @028   ----------------------------------------
 .byte   W96
@  #01 @029   ----------------------------------------
 .byte   W96
@  #01 @030   ----------------------------------------
 .byte   W96
@  #01 @031   ----------------------------------------
 .byte   W96
@  #01 @032   ----------------------------------------
 .byte   W96
@  #01 @033   ----------------------------------------
 .byte   W96
@  #01 @034   ----------------------------------------
 .byte   W96
@  #01 @035   ----------------------------------------
 .byte   W96
@  #01 @036   ----------------------------------------
 .byte   W96
@  #01 @037   ----------------------------------------
 .byte   W96
@  #01 @038   ----------------------------------------
 .byte   W96
@  #01 @039   ----------------------------------------
 .byte   W96
@  #01 @040   ----------------------------------------
 .byte   W96
@  #01 @041   ----------------------------------------
 .byte   W96
@  #01 @042   ----------------------------------------
 .byte   W96
@  #01 @043   ----------------------------------------
 .byte   W96
@  #01 @044   ----------------------------------------
 .byte   W96
@  #01 @045   ----------------------------------------
 .byte   W96
@  #01 @046   ----------------------------------------
 .byte   W96
@  #01 @047   ----------------------------------------
 .byte   W96
@  #01 @048   ----------------------------------------
 .byte   W96
@  #01 @049   ----------------------------------------
 .byte   W96
@  #01 @050   ----------------------------------------
 .byte   W96
@  #01 @051   ----------------------------------------
 .byte   W96
@  #01 @052   ----------------------------------------
 .byte   W96
@  #01 @053   ----------------------------------------
 .byte   W96
@  #01 @054   ----------------------------------------
 .byte   W96
@  #01 @055   ----------------------------------------
 .byte   W96
@  #01 @056   ----------------------------------------
 .byte   W96
@  #01 @057   ----------------------------------------
 .byte   W96
@  #01 @058   ----------------------------------------
 .byte   W96
@  #01 @059   ----------------------------------------
 .byte   W96
@  #01 @060   ----------------------------------------
 .byte   W96
@  #01 @061   ----------------------------------------
 .byte   W96
@  #01 @062   ----------------------------------------
 .byte   W96
@  #01 @063   ----------------------------------------
 .byte   W96
@  #01 @064   ----------------------------------------
 .byte   W96
@  #01 @065   ----------------------------------------
 .byte   W96
@  #01 @066   ----------------------------------------
 .byte   W96
@  #01 @067   ----------------------------------------
 .byte   W96
@  #01 @068   ----------------------------------------
 .byte   W96
@  #01 @069   ----------------------------------------
 .byte   W96
@  #01 @070   ----------------------------------------
 .byte   W96
@  #01 @071   ----------------------------------------
 .byte   W96
@  #01 @072   ----------------------------------------
 .byte   W96
@  #01 @073   ----------------------------------------
 .byte   W96
@  #01 @074   ----------------------------------------
 .byte   W96
@  #01 @075   ----------------------------------------
 .byte   W96
@  #01 @076   ----------------------------------------
 .byte   W96
@  #01 @077   ----------------------------------------
 .byte   W96
@  #01 @078   ----------------------------------------
 .byte   W96
@  #01 @079   ----------------------------------------
 .byte   W96
@  #01 @080   ----------------------------------------
 .byte   W96
@  #01 @081   ----------------------------------------
 .byte   W96
@  #01 @082   ----------------------------------------
 .byte   W96
@  #01 @083   ----------------------------------------
 .byte   W96
@  #01 @084   ----------------------------------------
 .byte   W96
@  #01 @085   ----------------------------------------
 .byte   W96
@  #01 @086   ----------------------------------------
 .byte   W96
@  #01 @087   ----------------------------------------
 .byte   W96
@  #01 @088   ----------------------------------------
 .byte   W96
@  #01 @089   ----------------------------------------
 .byte   W96
@  #01 @090   ----------------------------------------
 .byte   W96
@  #01 @091   ----------------------------------------
 .byte   W96
@  #01 @092   ----------------------------------------
 .byte   W96
@  #01 @093   ----------------------------------------
 .byte   W96
@  #01 @094   ----------------------------------------
 .byte   W96
@  #01 @095   ----------------------------------------
 .byte   W96
@  #01 @096   ----------------------------------------
 .byte   W96
@  #01 @097   ----------------------------------------
 .byte   W96
@  #01 @098   ----------------------------------------
 .byte   W96
@  #01 @099   ----------------------------------------
 .byte   W96
@  #01 @100   ----------------------------------------
 .byte   W96
@  #01 @101   ----------------------------------------
 .byte   W96
@  #01 @102   ----------------------------------------
 .byte   W96
@  #01 @103   ----------------------------------------
 .byte   W96
@  #01 @104   ----------------------------------------
 .byte   W96
@  #01 @105   ----------------------------------------
 .byte   W96
@  #01 @106   ----------------------------------------
 .byte   W96
@  #01 @107   ----------------------------------------
 .byte   W96
@  #01 @108   ----------------------------------------
 .byte   W96
@  #01 @109   ----------------------------------------
 .byte   W96
@  #01 @110   ----------------------------------------
 .byte   W96
@  #01 @111   ----------------------------------------
 .byte   W96
@  #01 @112   ----------------------------------------
 .byte   W96
@  #01 @113   ----------------------------------------
 .byte   W96
@  #01 @114   ----------------------------------------
 .byte   W96
@  #01 @115   ----------------------------------------
 .byte   W96
@  #01 @116   ----------------------------------------
 .byte   W96
@  #01 @117   ----------------------------------------
 .byte   W96
@  #01 @118   ----------------------------------------
 .byte   W96
@  #01 @119   ----------------------------------------
 .byte   W96
@  #01 @120   ----------------------------------------
 .byte   W96
@  #01 @121   ----------------------------------------
 .byte   W96
@  #01 @122   ----------------------------------------
 .byte   W96
@  #01 @123   ----------------------------------------
 .byte   W96
@  #01 @124   ----------------------------------------
 .byte   W96
@  #01 @125   ----------------------------------------
 .byte   W96
@  #01 @126   ----------------------------------------
 .byte   W96
@  #01 @127   ----------------------------------------
 .byte   W96
@  #01 @128   ----------------------------------------
 .byte   W96
@  #01 @129   ----------------------------------------
 .byte   W96
@  #01 @130   ----------------------------------------
 .byte   W96
@  #01 @131   ----------------------------------------
 .byte   W96
@  #01 @132   ----------------------------------------
 .byte   W96
@  #01 @133   ----------------------------------------
 .byte   W96
@  #01 @134   ----------------------------------------
 .byte   W96
@  #01 @135   ----------------------------------------
 .byte   W96
@  #01 @136   ----------------------------------------
 .byte   W96
@  #01 @137   ----------------------------------------
 .byte   W96
@  #01 @138   ----------------------------------------
 .byte   W96
@  #01 @139   ----------------------------------------
 .byte   W96
@  #01 @140   ----------------------------------------
 .byte   W96
@  #01 @141   ----------------------------------------
 .byte   W96
@  #01 @142   ----------------------------------------
 .byte   W96
@  #01 @143   ----------------------------------------
 .byte   W96
@  #01 @144   ----------------------------------------
 .byte   W96
@  #01 @145   ----------------------------------------
 .byte   W96
@  #01 @146   ----------------------------------------
 .byte   W96
@  #01 @147   ----------------------------------------
 .byte   W96
@  #01 @148   ----------------------------------------
 .byte   W96
@  #01 @149   ----------------------------------------
 .byte   W96
@  #01 @150   ----------------------------------------
 .byte   W96
@  #01 @151   ----------------------------------------
 .byte   W96
@  #01 @152   ----------------------------------------
 .byte   W96
@  #01 @153   ----------------------------------------
 .byte   W96
@  #01 @154   ----------------------------------------
 .byte   W96
@  #01 @155   ----------------------------------------
 .byte   W96
@  #01 @156   ----------------------------------------
 .byte   W96
@  #01 @157   ----------------------------------------
 .byte   W96
@  #01 @158   ----------------------------------------
 .byte   W96
@  #01 @159   ----------------------------------------
 .byte   W96
@  #01 @160   ----------------------------------------
 .byte   W96
@  #01 @161   ----------------------------------------
 .byte   W96
@  #01 @162   ----------------------------------------
 .byte   W96
@  #01 @163   ----------------------------------------
 .byte   W96
@  #01 @164   ----------------------------------------
 .byte   W96
@  #01 @165   ----------------------------------------
 .byte   W96
@  #01 @166   ----------------------------------------
 .byte   W96
@  #01 @167   ----------------------------------------
 .byte   W96
@  #01 @168   ----------------------------------------
 .byte   W96
@  #01 @169   ----------------------------------------
 .byte   W96
@  #01 @170   ----------------------------------------
 .byte   W96
@  #01 @171   ----------------------------------------
 .byte   W96
@  #01 @172   ----------------------------------------
 .byte   W96
@  #01 @173   ----------------------------------------
 .byte   W96
@  #01 @174   ----------------------------------------
 .byte   W96
@  #01 @175   ----------------------------------------
 .byte   W96
@  #01 @176   ----------------------------------------
 .byte   W96
@  #01 @177   ----------------------------------------
 .byte   W96
@  #01 @178   ----------------------------------------
 .byte   W96
@  #01 @179   ----------------------------------------
 .byte   W96
@  #01 @180   ----------------------------------------
 .byte   W96
@  #01 @181   ----------------------------------------
 .byte   W96
@  #01 @182   ----------------------------------------
 .byte   W96
@  #01 @183   ----------------------------------------
 .byte   W96
@  #01 @184   ----------------------------------------
 .byte   W96
@  #01 @185   ----------------------------------------
 .byte   W96
@  #01 @186   ----------------------------------------
 .byte   W96
@  #01 @187   ----------------------------------------
 .byte   W96
@  #01 @188   ----------------------------------------
 .byte   W96
@  #01 @189   ----------------------------------------
 .byte   W96
@  #01 @190   ----------------------------------------
 .byte   W96
@  #01 @191   ----------------------------------------
 .byte   W96
@  #01 @192   ----------------------------------------
 .byte   W96
@  #01 @193   ----------------------------------------
 .byte   W96
@  #01 @194   ----------------------------------------
 .byte   W96
@  #01 @195   ----------------------------------------
 .byte   W96
@  #01 @196   ----------------------------------------
 .byte   W96
@  #01 @197   ----------------------------------------
 .byte   PATT
  .word Label_0165E697
@  #01 @198   ----------------------------------------
 .byte   PATT
  .word Label_0165E68B
@  #01 @199   ----------------------------------------
 .byte   N90 ,Gn3 ,v080
 .byte   W96
@  #01 @200   ----------------------------------------
 .byte   An3
 .byte   W96
@  #01 @201   ----------------------------------------
 .byte   PATT
  .word Label_0165E697
@  #01 @202   ----------------------------------------
 .byte   PATT
  .word Label_0165E68B
@  #01 @203   ----------------------------------------
 .byte   N90 ,Gn3 ,v080
 .byte   W96
@  #01 @204   ----------------------------------------
 .byte   An3
 .byte   W96
@  #01 @205   ----------------------------------------
 .byte   PATT
  .word Label_0165E697
@  #01 @206   ----------------------------------------
 .byte   PATT
  .word Label_0165E68B
@  #01 @207   ----------------------------------------
 .byte   N90 ,Gn3 ,v080
 .byte   W96
@  #01 @208   ----------------------------------------
 .byte   An3
 .byte   W96
@  #01 @209   ----------------------------------------
 .byte   PATT
  .word Label_0165E697
@  #01 @210   ----------------------------------------
 .byte   PATT
  .word Label_0165E68B
@  #01 @211   ----------------------------------------
 .byte   N90 ,Gn3 ,v080
 .byte   W96
@  #01 @212   ----------------------------------------
 .byte   An3
 .byte   W96
@  #01 @213   ----------------------------------------
 .byte   W72
 .byte   GOTO
  .word Label_0165E676
 .byte   FINE

@**************** Track 2 (Midi-Chn.1) ****************@

song013A_002:
@  #02 @000   ----------------------------------------
 .byte   KEYSH , song013A_key+0
Label_01511546:
 .byte   VOICE , 104
 .byte   VOL , 28*song013A_mvl/mxv
 .byte   PAN , c_v+0
 .byte   PAN , c_v+0
 .byte   W48
 .byte   N44 ,Dn3 ,v127
 .byte   W48
@  #02 @001   ----------------------------------------
Label_01511552:
 .byte   N44 ,Gn3 ,v127
 .byte   W48
 .byte   As3
 .byte   W48
 .byte   PEND 
@  #02 @002   ----------------------------------------
Label_01511559:
 .byte   N44 ,An3 ,v127
 .byte   W48
 .byte   N23
 .byte   W24
 .byte   Gn3
 .byte   W24
 .byte   PEND 
@  #02 @003   ----------------------------------------
 .byte   An3
 .byte   W24
 .byte   Gn3
 .byte   W24
 .byte   N92 ,Dn3
 .byte   W48
@  #02 @004   ----------------------------------------
 .byte   W48
 .byte   N44
 .byte   W48
@  #02 @005   ----------------------------------------
 .byte   PATT
  .word Label_01511552
@  #02 @006   ----------------------------------------
 .byte   PATT
  .word Label_01511559
@  #02 @007   ----------------------------------------
 .byte   N44 ,An3 ,v127
 .byte   W48
 .byte   N23 ,Gn3
 .byte   W24
 .byte   N44 ,As3
 .byte   W24
@  #02 @008   ----------------------------------------
 .byte   W96
@  #02 @009   ----------------------------------------
 .byte   W96
@  #02 @010   ----------------------------------------
 .byte   W96
@  #02 @011   ----------------------------------------
 .byte   W96
@  #02 @012   ----------------------------------------
 .byte   W96
@  #02 @013   ----------------------------------------
 .byte   W96
@  #02 @014   ----------------------------------------
 .byte   W96
@  #02 @015   ----------------------------------------
 .byte   W96
@  #02 @016   ----------------------------------------
 .byte   W96
@  #02 @017   ----------------------------------------
 .byte   W96
@  #02 @018   ----------------------------------------
 .byte   W96
@  #02 @019   ----------------------------------------
 .byte   W96
@  #02 @020   ----------------------------------------
 .byte   W96
@  #02 @021   ----------------------------------------
 .byte   W96
@  #02 @022   ----------------------------------------
 .byte   W96
@  #02 @023   ----------------------------------------
 .byte   W96
@  #02 @024   ----------------------------------------
 .byte   W48
 .byte   N11 ,Gn3
 .byte   N11 ,Gn4
 .byte   W12
 .byte   Gn3
 .byte   N11 ,Gn4
 .byte   W12
 .byte   Gn3
 .byte   N11 ,Gn4
 .byte   W12
 .byte   Gn3
 .byte   N11 ,Gn4
 .byte   W12
@  #02 @025   ----------------------------------------
 .byte   N23 ,Gn3
 .byte   N23 ,Gn4
 .byte   W24
 .byte   N11 ,Gn3
 .byte   N11 ,Gn4
 .byte   W12
 .byte   Gn3
 .byte   N11 ,Gn4
 .byte   W12
 .byte   Gn3
 .byte   N11 ,Gn4
 .byte   W12
 .byte   Gn3
 .byte   N11 ,Gn4
 .byte   W12
 .byte   N23 ,Gn3
 .byte   N23 ,Gn4
 .byte   W24
@  #02 @026   ----------------------------------------
 .byte   W24
 .byte   Gn3
 .byte   N23 ,Gn4
 .byte   W24
 .byte   Gn3
 .byte   N23 ,Gn4
 .byte   W24
 .byte   Gn3
 .byte   N23 ,Gn4
 .byte   W24
@  #02 @027   ----------------------------------------
 .byte   Fn3
 .byte   N23 ,Fn4
 .byte   W24
 .byte   Gn3
 .byte   N23 ,Gn4
 .byte   W24
 .byte   Gs3
 .byte   N23 ,Gs4
 .byte   W24
 .byte   Gn3
 .byte   N23 ,Gn4
 .byte   W24
@  #02 @028   ----------------------------------------
 .byte   W48
 .byte   N11 ,Dn3
 .byte   N11 ,Gn3
 .byte   N11 ,Gn4
 .byte   W12
 .byte   Dn3
 .byte   N11 ,Gn3
 .byte   N11 ,Gn4
 .byte   W12
 .byte   Dn3
 .byte   N11 ,Gn3
 .byte   N11 ,Gn4
 .byte   W12
 .byte   Dn3
 .byte   N11 ,Gn3
 .byte   N11 ,Gn4
 .byte   W12
@  #02 @029   ----------------------------------------
 .byte   Dn3
 .byte   N11 ,Gn3
 .byte   N11 ,Gn4
 .byte   W12
 .byte   Dn3
 .byte   N11 ,Gn3
 .byte   N11 ,Gn4
 .byte   W12
 .byte   Dn3
 .byte   N11 ,Gn3
 .byte   N11 ,Gn4
 .byte   W12
 .byte   Dn3
 .byte   N11 ,Gn3
 .byte   N11 ,Gn4
 .byte   W12
 .byte   Dn3
 .byte   N11 ,Gn3
 .byte   N11 ,Gn4
 .byte   W12
 .byte   Dn3
 .byte   N11 ,Gn3
 .byte   N11 ,Gn4
 .byte   W12
 .byte   N23 ,Dn3
 .byte   N23 ,Gn3
 .byte   N23 ,Gn4
 .byte   W24
@  #02 @030   ----------------------------------------
 .byte   W24
 .byte   Dn3
 .byte   N23 ,Gn3
 .byte   N23 ,Gn4
 .byte   W24
 .byte   Dn3
 .byte   N23 ,Gn3
 .byte   N23 ,Gn4
 .byte   W24
 .byte   Dn3
 .byte   N23 ,Gn3
 .byte   N23 ,Gn4
 .byte   W24
@  #02 @031   ----------------------------------------
 .byte   Cn3
 .byte   N23 ,Fn3
 .byte   N23 ,Fn4
 .byte   W24
 .byte   Dn3
 .byte   N23 ,Gn3
 .byte   N23 ,Gn4
 .byte   W24
 .byte   Ds3
 .byte   N23 ,Gs3
 .byte   N23 ,Gs4
 .byte   W24
 .byte   Dn3
 .byte   N23 ,Gn3
 .byte   N23 ,Gn4
 .byte   W24
@  #02 @032   ----------------------------------------
 .byte   W48
 .byte   N11 ,As2
 .byte   N11 ,Dn3
 .byte   W12
 .byte   As2
 .byte   N11 ,Dn3
 .byte   W12
 .byte   As2
 .byte   N11 ,Dn3
 .byte   W12
 .byte   As2
 .byte   N11 ,Dn3
 .byte   W12
@  #02 @033   ----------------------------------------
 .byte   N23 ,As2
 .byte   N23 ,Ds3
 .byte   W24
 .byte   N11 ,As2
 .byte   N11 ,Ds3
 .byte   W12
 .byte   As2
 .byte   N11 ,Ds3
 .byte   W12
 .byte   As2
 .byte   N11 ,Ds3
 .byte   W12
 .byte   As2
 .byte   N11 ,Ds3
 .byte   W12
 .byte   N23 ,As2
 .byte   N23 ,Dn3
 .byte   W24
@  #02 @034   ----------------------------------------
 .byte   W24
 .byte   Cn3
 .byte   N23 ,Gn3
 .byte   N23 ,Cn4
 .byte   W24
 .byte   Cn3
 .byte   N23 ,Gn3
 .byte   N23 ,Cn4
 .byte   W24
 .byte   Cn3
 .byte   N23 ,Gn3
 .byte   N23 ,Cn4
 .byte   W24
@  #02 @035   ----------------------------------------
 .byte   Gn3
 .byte   N23 ,Dn4
 .byte   N23 ,Gn4
 .byte   W24
 .byte   Fn3
 .byte   N23 ,Cn4
 .byte   N23 ,Fn4
 .byte   W24
 .byte   Fn3
 .byte   N23 ,Cn4
 .byte   N23 ,Fn4
 .byte   W24
 .byte   Ds3
 .byte   N23 ,As3
 .byte   N23 ,Ds4
 .byte   W24
@  #02 @036   ----------------------------------------
 .byte   W24
 .byte   Cn3
 .byte   N23 ,Gn3
 .byte   N23 ,Gn4
 .byte   W24
 .byte   Cn3
 .byte   N23 ,Gn3
 .byte   N23 ,Gn4
 .byte   W24
 .byte   Dn3
 .byte   N23 ,An3
 .byte   N23 ,An4
 .byte   W24
@  #02 @037   ----------------------------------------
 .byte   Ds3
 .byte   N23 ,As3
 .byte   N23 ,As4
 .byte   W24
 .byte   Dn3
 .byte   N23 ,An3
 .byte   N23 ,An4
 .byte   W24
 .byte   N44 ,Dn3
 .byte   N44 ,An3
 .byte   N44 ,An4
 .byte   W48
@  #02 @038   ----------------------------------------
 .byte   W24
 .byte   N23 ,Cn3
 .byte   N23 ,Gn3
 .byte   N23 ,As3
 .byte   N23 ,Gn4
 .byte   W24
 .byte   Cn3
 .byte   N23 ,Gn3
 .byte   N23 ,As3
 .byte   N23 ,Gn4
 .byte   W24
 .byte   Dn3
 .byte   N23 ,An3
 .byte   N23 ,Cn4
 .byte   N23 ,An4
 .byte   W24
@  #02 @039   ----------------------------------------
 .byte   Ds3
 .byte   N23 ,As3
 .byte   N23 ,Cs4
 .byte   N23 ,As4
 .byte   W24
 .byte   Dn3
 .byte   N23 ,An3
 .byte   N23 ,Cn4
 .byte   N23 ,An4
 .byte   W24
 .byte   Dn3
 .byte   N23 ,An3
 .byte   N23 ,Cn4
 .byte   N23 ,An4
 .byte   W24
 .byte   Cn3
 .byte   N23 ,Gn3
 .byte   N23 ,As3
 .byte   N23 ,Gn4
 .byte   W24
@  #02 @040   ----------------------------------------
 .byte   W96
@  #02 @041   ----------------------------------------
 .byte   W96
@  #02 @042   ----------------------------------------
 .byte   W96
@  #02 @043   ----------------------------------------
 .byte   W96
@  #02 @044   ----------------------------------------
 .byte   W96
@  #02 @045   ----------------------------------------
 .byte   W96
@  #02 @046   ----------------------------------------
 .byte   W96
@  #02 @047   ----------------------------------------
 .byte   W96
@  #02 @048   ----------------------------------------
 .byte   W96
@  #02 @049   ----------------------------------------
 .byte   W96
@  #02 @050   ----------------------------------------
 .byte   W96
@  #02 @051   ----------------------------------------
Label_0151170D:
 .byte   W24
 .byte   N23 ,An3 ,v127
 .byte   N23 ,Dn4
 .byte   W24
 .byte   Cn4
 .byte   N23 ,Fn4
 .byte   W24
 .byte   Dn4
 .byte   N23 ,Gn4
 .byte   W24
 .byte   PEND 
@  #02 @052   ----------------------------------------
Label_0151171D:
 .byte   N44 ,En4 ,v127
 .byte   N44 ,As4
 .byte   W48
 .byte   Fn4
 .byte   N44 ,An4
 .byte   W48
 .byte   PEND 
@  #02 @053   ----------------------------------------
Label_01511728:
 .byte   TIE ,Gn3 ,v127
 .byte   TIE ,Dn4
 .byte   TIE ,Gn4
 .byte   W96
 .byte   PEND 
@  #02 @054   ----------------------------------------
 .byte   W23
 .byte   EOT
 .byte   Gn3 ,v074
 .byte   Gn4
 .byte   W01
 .byte   N23 ,Fn3
 .byte   N23 ,Cn4
 .byte   N23 ,Fn4
 .byte   W24
 .byte   Gn3
 .byte   N23 ,Dn4
 .byte   N23 ,Gn4
 .byte   W24
 .byte   An3
 .byte   N23 ,En4
 .byte   N23 ,An4
 .byte   W24
@  #02 @055   ----------------------------------------
Label_0151174A:
 .byte   N44 ,As3 ,v127
 .byte   N44 ,Fn4
 .byte   N44 ,As4
 .byte   W48
 .byte   An3
 .byte   N44 ,En4
 .byte   N44 ,An4
 .byte   W48
 .byte   PEND 
@  #02 @056   ----------------------------------------
Label_01511759:
 .byte   N32 ,Fn3 ,v127
 .byte   N32 ,Cn4
 .byte   N32 ,Fn4
 .byte   W36
 .byte   Gn3
 .byte   N32 ,Dn4
 .byte   N32 ,Gn4
 .byte   W36
 .byte   TIE ,An3
 .byte   TIE ,En4
 .byte   TIE ,An4
 .byte   W24
 .byte   PEND 
@  #02 @057   ----------------------------------------
 .byte   W96
@  #02 @058   ----------------------------------------
 .byte   W23
 .byte   EOT
 .byte   An3 ,v076
 .byte   An4
 .byte   W01
 .byte   N23 ,Fn3
 .byte   N23 ,Cn4
 .byte   N23 ,Fn4
 .byte   W24
 .byte   Gn3
 .byte   N23 ,Dn4
 .byte   N23 ,Gn4
 .byte   W24
 .byte   An3
 .byte   N23 ,En4
 .byte   N23 ,An4
 .byte   W24
@  #02 @059   ----------------------------------------
Label_01511789:
 .byte   N44 ,As3 ,v127
 .byte   N44 ,Fn4
 .byte   N44 ,As4
 .byte   W48
 .byte   Cn4
 .byte   N44 ,Gn4
 .byte   N44 ,Cn5
 .byte   W48
 .byte   PEND 
@  #02 @060   ----------------------------------------
Label_01511798:
 .byte   N44 ,An3 ,v127
 .byte   N44 ,En4
 .byte   N44 ,An4
 .byte   W48
 .byte   N23 ,Gn3
 .byte   N23 ,Dn4
 .byte   N23 ,Gn4
 .byte   W24
 .byte   N96 ,As3
 .byte   TIE ,Gn4
 .byte   TIE ,As4
 .byte   W24
 .byte   PEND 
@  #02 @061   ----------------------------------------
Label_015117AF:
 .byte   N32 ,Dn4 ,v127
 .byte   W36
 .byte   Cn4
 .byte   W60
 .byte   PEND 
@  #02 @062   ----------------------------------------
 .byte   W23
 .byte   EOT
 .byte   Gn4 ,v082
 .byte   W01
 .byte   N23 ,Fn3
 .byte   N23 ,Cn4
 .byte   N23 ,Fn4
 .byte   W24
 .byte   Gn3
 .byte   N23 ,Dn4
 .byte   N23 ,Gn4
 .byte   W24
 .byte   An3
 .byte   N23 ,En4
 .byte   N23 ,An4
 .byte   W24
@  #02 @063   ----------------------------------------
 .byte   PATT
  .word Label_0151174A
@  #02 @064   ----------------------------------------
Label_015117D3:
 .byte   N32 ,Fn3 ,v127
 .byte   N32 ,Cn4
 .byte   N32 ,Fn4
 .byte   W36
 .byte   As3
 .byte   N32 ,En4
 .byte   N32 ,As4
 .byte   W36
 .byte   TIE ,Dn4
 .byte   TIE ,An4
 .byte   TIE ,Dn5
 .byte   W24
 .byte   PEND 
@  #02 @065   ----------------------------------------
 .byte   W96
@  #02 @066   ----------------------------------------
 .byte   W23
 .byte   EOT
 .byte   Dn4 ,v081
 .byte   Dn5
 .byte   W01
 .byte   N23 ,Dn4
 .byte   N23 ,An4
 .byte   N23 ,Dn5
 .byte   W24
 .byte   Cn4
 .byte   N23 ,Gn4
 .byte   N23 ,Cn5
 .byte   W24
 .byte   As3
 .byte   N23 ,Fn4
 .byte   N23 ,As4
 .byte   W24
@  #02 @067   ----------------------------------------
Label_01511803:
 .byte   N32 ,Cn4 ,v127
 .byte   N32 ,Gn4
 .byte   N32 ,Cn5
 .byte   W36
 .byte   Cn4
 .byte   N32 ,Gn4
 .byte   N32 ,Cn5
 .byte   W36
 .byte   Cn4
 .byte   N32 ,Gn4
 .byte   N32 ,Cn5
 .byte   W24
 .byte   PEND 
@  #02 @068   ----------------------------------------
 .byte   W12
 .byte   As3
 .byte   N32 ,Fn4
 .byte   N32 ,As4
 .byte   W36
 .byte   N44 ,Gn3
 .byte   N44 ,Dn4
 .byte   N44 ,Gn4
 .byte   W48
@  #02 @069   ----------------------------------------
Label_01511826:
 .byte   W48
 .byte   N44 ,Dn3 ,v127
 .byte   N44 ,Gn3
 .byte   N44 ,Dn4
 .byte   W48
 .byte   PEND 
@  #02 @070   ----------------------------------------
Label_01511830:
 .byte   N44 ,Gn3 ,v127
 .byte   N44 ,Cn4
 .byte   N44 ,Gn4
 .byte   W48
 .byte   As3
 .byte   N44 ,Ds4
 .byte   N44 ,As4
 .byte   W48
 .byte   PEND 
@  #02 @071   ----------------------------------------
Label_0151183F:
 .byte   N44 ,An3 ,v127
 .byte   N44 ,Dn4
 .byte   N44 ,An4
 .byte   W48
 .byte   N23 ,An3
 .byte   N23 ,Dn4
 .byte   N23 ,An4
 .byte   W24
 .byte   Gn3
 .byte   N23 ,Cn4
 .byte   N23 ,Gn4
 .byte   W24
 .byte   PEND 
@  #02 @072   ----------------------------------------
Label_01511855:
 .byte   N23 ,An3 ,v127
 .byte   N23 ,Dn4
 .byte   N23 ,An4
 .byte   W24
 .byte   Gn3
 .byte   N23 ,Cn4
 .byte   N23 ,Gn4
 .byte   W24
 .byte   N92 ,Dn3
 .byte   N92 ,Gn3
 .byte   N92 ,Dn4
 .byte   W48
 .byte   PEND 
@  #02 @073   ----------------------------------------
 .byte   PATT
  .word Label_01511826
@  #02 @074   ----------------------------------------
 .byte   PATT
  .word Label_01511830
@  #02 @075   ----------------------------------------
 .byte   PATT
  .word Label_0151183F
@  #02 @076   ----------------------------------------
Label_0151187A:
 .byte   N44 ,An3 ,v127
 .byte   N44 ,Dn4
 .byte   N44 ,An4
 .byte   W48
 .byte   N23 ,Gn3
 .byte   N23 ,Cn4
 .byte   N23 ,Gn4
 .byte   W24
 .byte   N68 ,As3
 .byte   N68 ,Ds4
 .byte   N68 ,As4
 .byte   W24
 .byte   PEND 
@  #02 @077   ----------------------------------------
 .byte   PATT
  .word Label_01511826
@  #02 @078   ----------------------------------------
 .byte   PATT
  .word Label_01511830
@  #02 @079   ----------------------------------------
Label_0151189B:
 .byte   N44 ,Cn4 ,v127
 .byte   N44 ,Fn4
 .byte   N44 ,Cn5
 .byte   W48
 .byte   N23 ,Cn4
 .byte   N23 ,Fn4
 .byte   N23 ,Cn5
 .byte   W24
 .byte   As3
 .byte   N23 ,Ds4
 .byte   N23 ,As4
 .byte   W24
 .byte   PEND 
@  #02 @080   ----------------------------------------
Label_015118B1:
 .byte   N23 ,Dn4 ,v127
 .byte   N23 ,Gn4
 .byte   N23 ,Dn5
 .byte   W24
 .byte   Gn3
 .byte   N23 ,Cn4
 .byte   N23 ,Gn4
 .byte   W24
 .byte   Gn3
 .byte   N23 ,Cn4
 .byte   N23 ,Gn4
 .byte   W24
 .byte   As3
 .byte   N23 ,Ds4
 .byte   N23 ,As4
 .byte   W24
 .byte   PEND 
@  #02 @081   ----------------------------------------
Label_015118CC:
 .byte   W48
 .byte   N44 ,Dn4 ,v127
 .byte   N44 ,Gn4
 .byte   N44 ,Dn5
 .byte   W48
 .byte   PEND 
@  #02 @082   ----------------------------------------
 .byte   PATT
  .word Label_01511830
@  #02 @083   ----------------------------------------
 .byte   PATT
  .word Label_0151183F
@  #02 @084   ----------------------------------------
 .byte   PATT
  .word Label_0151187A
@  #02 @085   ----------------------------------------
 .byte   W96
@  #02 @086   ----------------------------------------
 .byte   W96
@  #02 @087   ----------------------------------------
Label_015118E7:
 .byte   W72
 .byte   N23 ,As3 ,v127
 .byte   N23 ,Ds4
 .byte   N23 ,As4
 .byte   W24
 .byte   PEND 
@  #02 @088   ----------------------------------------
 .byte   An3
 .byte   N23 ,Dn4
 .byte   N23 ,An4
 .byte   W24
 .byte   An3
 .byte   N23 ,Dn4
 .byte   N23 ,An4
 .byte   W24
 .byte   Gn3
 .byte   N23 ,Cn4
 .byte   N23 ,Gn4
 .byte   W24
 .byte   N92 ,As3
 .byte   N92 ,Ds4
 .byte   N92 ,As4
 .byte   W24
@  #02 @089   ----------------------------------------
 .byte   W72
 .byte   N03 ,As3
 .byte   N03 ,Ds4
 .byte   N03 ,As4
 .byte   W03
 .byte   An3
 .byte   N03 ,Dn4
 .byte   N03 ,An4
 .byte   W04
 .byte   Gs3
 .byte   N03 ,Cs4
 .byte   N03 ,Gs4
 .byte   W05
 .byte   N11 ,Gn3
 .byte   N11 ,Cn4
 .byte   N11 ,Gn4
 .byte   W12
@  #02 @090   ----------------------------------------
 .byte   W96
@  #02 @091   ----------------------------------------
 .byte   PATT
  .word Label_015118E7
@  #02 @092   ----------------------------------------
 .byte   N23 ,An3 ,v127
 .byte   N23 ,Dn4
 .byte   N23 ,An4
 .byte   W24
 .byte   An3
 .byte   N23 ,Dn4
 .byte   N23 ,An4
 .byte   W24
 .byte   Gn3
 .byte   N23 ,Cn4
 .byte   N23 ,Gn4
 .byte   W24
 .byte   As3
 .byte   N23 ,Ds4
 .byte   N23 ,As4
 .byte   W24
@  #02 @093   ----------------------------------------
 .byte   N03 ,As3
 .byte   N03 ,Ds4
 .byte   N03 ,As4
 .byte   W03
 .byte   An3
 .byte   N03 ,Dn4
 .byte   N03 ,An4
 .byte   W04
 .byte   Gs3
 .byte   N03 ,Cs4
 .byte   N03 ,Gs4
 .byte   W05
 .byte   N11 ,Gn3
 .byte   N11 ,Cn4
 .byte   N11 ,Gn4
 .byte   W84
@  #02 @094   ----------------------------------------
 .byte   W96
@  #02 @095   ----------------------------------------
 .byte   PATT
  .word Label_015118E7
@  #02 @096   ----------------------------------------
 .byte   N23 ,Dn4 ,v127
 .byte   N23 ,Gn4
 .byte   N23 ,Dn5
 .byte   W24
 .byte   Cn4
 .byte   N23 ,Fn4
 .byte   N23 ,Cn5
 .byte   W24
 .byte   As3
 .byte   N23 ,Ds4
 .byte   N23 ,As4
 .byte   W24
 .byte   TIE ,Cn4
 .byte   TIE ,Fn4
 .byte   TIE ,Cn5
 .byte   W24
@  #02 @097   ----------------------------------------
 .byte   W96
@  #02 @098   ----------------------------------------
 .byte   W44
 .byte   W03
 .byte   EOT
 .byte   Cn4 ,v077
 .byte   Cn5
 .byte   W01
 .byte   N23 ,Dn4
 .byte   N23 ,Gn4
 .byte   N23 ,Dn5
 .byte   W24
 .byte   TIE ,As3
 .byte   TIE ,Ds4
 .byte   TIE ,As4
 .byte   W24
@  #02 @099   ----------------------------------------
 .byte   W96
@  #02 @100   ----------------------------------------
 .byte   W92
 .byte   W03
 .byte   EOT
 .byte   As3 ,v075
 .byte   As4
 .byte   W01
@  #02 @101   ----------------------------------------
 .byte   W96
@  #02 @102   ----------------------------------------
 .byte   W96
@  #02 @103   ----------------------------------------
 .byte   W96
@  #02 @104   ----------------------------------------
 .byte   W96
@  #02 @105   ----------------------------------------
 .byte   W96
@  #02 @106   ----------------------------------------
 .byte   W96
@  #02 @107   ----------------------------------------
 .byte   W96
@  #02 @108   ----------------------------------------
 .byte   W96
@  #02 @109   ----------------------------------------
 .byte   W96
@  #02 @110   ----------------------------------------
 .byte   W96
@  #02 @111   ----------------------------------------
 .byte   W96
@  #02 @112   ----------------------------------------
 .byte   W96
@  #02 @113   ----------------------------------------
 .byte   W96
@  #02 @114   ----------------------------------------
 .byte   W96
@  #02 @115   ----------------------------------------
 .byte   W96
@  #02 @116   ----------------------------------------
 .byte   W96
@  #02 @117   ----------------------------------------
Label_015119AE:
 .byte   W24
 .byte   N23 ,As3 ,v127
 .byte   W24
 .byte   N23
 .byte   W24
 .byte   An3
 .byte   W24
 .byte   PEND 
@  #02 @118   ----------------------------------------
Label_015119B8:
 .byte   N23 ,An3 ,v127
 .byte   W24
 .byte   Gn3
 .byte   W24
 .byte   N44
 .byte   W48
 .byte   PEND 
@  #02 @119   ----------------------------------------
 .byte   N23
 .byte   N23 ,Cn4
 .byte   W24
 .byte   N23
 .byte   N23 ,Fn4
 .byte   W24
 .byte   Cn4
 .byte   N23 ,Fn4
 .byte   W24
 .byte   As3
 .byte   N23 ,Ds4
 .byte   W24
@  #02 @120   ----------------------------------------
 .byte   As3
 .byte   N23 ,Ds4
 .byte   W24
 .byte   An3
 .byte   N23 ,Dn4
 .byte   W24
 .byte   An3
 .byte   N23 ,Dn4
 .byte   W24
 .byte   As3
 .byte   N23 ,Ds4
 .byte   W24
@  #02 @121   ----------------------------------------
 .byte   PATT
  .word Label_015119AE
@  #02 @122   ----------------------------------------
 .byte   PATT
  .word Label_015119B8
@  #02 @123   ----------------------------------------
 .byte   W24
 .byte   N23 ,Gn3 ,v127
 .byte   N23 ,Gn4
 .byte   W24
 .byte   Gn3
 .byte   N23 ,Gn4
 .byte   W24
 .byte   Fn3
 .byte   N23 ,Fn4
 .byte   W24
@  #02 @124   ----------------------------------------
 .byte   N32 ,Gn3
 .byte   N32 ,Gn4
 .byte   W36
 .byte   Fn3
 .byte   N32 ,Fn4
 .byte   W36
 .byte   N23 ,Dn3
 .byte   N23 ,Dn4
 .byte   W24
@  #02 @125   ----------------------------------------
 .byte   Cn3
 .byte   N23 ,Cn4
 .byte   W24
 .byte   As3
 .byte   W24
 .byte   N23
 .byte   W24
 .byte   An3
 .byte   W24
@  #02 @126   ----------------------------------------
 .byte   PATT
  .word Label_015119B8
@  #02 @127   ----------------------------------------
 .byte   W24
 .byte   N23 ,Cn4 ,v127
 .byte   W24
 .byte   N23
 .byte   W24
 .byte   As3
 .byte   W24
@  #02 @128   ----------------------------------------
 .byte   N32 ,Dn4
 .byte   W36
 .byte   N32
 .byte   W36
 .byte   BEND , c_v+32
 .byte   N23 ,Gn3
 .byte   W18
 .byte   BEND , c_v+27
 .byte   W01
 .byte   BEND , c_v+23
 .byte   W01
 .byte   BEND , c_v+19
 .byte   W01
 .byte   BEND , c_v+14
 .byte   W01
 .byte   BEND , c_v+6
 .byte   W01
 .byte   BEND , c_v+2
 .byte   W01
@  #02 @129   ----------------------------------------
 .byte   BEND , c_v+0
 .byte   W24
 .byte   N23 ,As3
 .byte   W24
 .byte   N23
 .byte   W24
 .byte   An3
 .byte   W24
@  #02 @130   ----------------------------------------
 .byte   PATT
  .word Label_015119B8
@  #02 @131   ----------------------------------------
 .byte   PATT
  .word Label_0151170D
@  #02 @132   ----------------------------------------
 .byte   PATT
  .word Label_0151171D
@  #02 @133   ----------------------------------------
 .byte   PATT
  .word Label_01511728
@  #02 @134   ----------------------------------------
 .byte   W23
 .byte   EOT
 .byte   Gn3 ,v074
 .byte   Gn4
 .byte   W01
 .byte   N23 ,Fn3 ,v127
 .byte   N23 ,Cn4
 .byte   N23 ,Fn4
 .byte   W24
 .byte   Gn3
 .byte   N23 ,Dn4
 .byte   N23 ,Gn4
 .byte   W24
 .byte   An3
 .byte   N23 ,En4
 .byte   N23 ,An4
 .byte   W24
@  #02 @135   ----------------------------------------
 .byte   PATT
  .word Label_0151174A
@  #02 @136   ----------------------------------------
 .byte   PATT
  .word Label_01511759
@  #02 @137   ----------------------------------------
 .byte   W96
@  #02 @138   ----------------------------------------
 .byte   W23
 .byte   EOT
 .byte   An3 ,v076
 .byte   An4
 .byte   W01
 .byte   N23 ,Fn3 ,v127
 .byte   N23 ,Cn4
 .byte   N23 ,Fn4
 .byte   W24
 .byte   Gn3
 .byte   N23 ,Dn4
 .byte   N23 ,Gn4
 .byte   W24
 .byte   An3
 .byte   N23 ,En4
 .byte   N23 ,An4
 .byte   W24
@  #02 @139   ----------------------------------------
 .byte   PATT
  .word Label_01511789
@  #02 @140   ----------------------------------------
 .byte   PATT
  .word Label_01511798
@  #02 @141   ----------------------------------------
 .byte   PATT
  .word Label_015117AF
@  #02 @142   ----------------------------------------
 .byte   W23
 .byte   EOT
 .byte   Gn4 ,v082
 .byte   W01
 .byte   N23 ,Fn3 ,v127
 .byte   N23 ,Cn4
 .byte   N23 ,Fn4
 .byte   W24
 .byte   Gn3
 .byte   N23 ,Dn4
 .byte   N23 ,Gn4
 .byte   W24
 .byte   An3
 .byte   N23 ,En4
 .byte   N23 ,An4
 .byte   W24
@  #02 @143   ----------------------------------------
 .byte   PATT
  .word Label_0151174A
@  #02 @144   ----------------------------------------
 .byte   PATT
  .word Label_015117D3
@  #02 @145   ----------------------------------------
 .byte   W96
@  #02 @146   ----------------------------------------
 .byte   W23
 .byte   EOT
 .byte   Dn4 ,v081
 .byte   Dn5
 .byte   W01
 .byte   N23 ,Dn4 ,v127
 .byte   N23 ,An4
 .byte   N23 ,Dn5
 .byte   W24
 .byte   Cn4
 .byte   N23 ,Gn4
 .byte   N23 ,Cn5
 .byte   W24
 .byte   As3
 .byte   N23 ,Fn4
 .byte   N23 ,As4
 .byte   W24
@  #02 @147   ----------------------------------------
 .byte   PATT
  .word Label_01511803
@  #02 @148   ----------------------------------------
 .byte   W12
 .byte   N32 ,Cn4 ,v127
 .byte   N32 ,Gn4
 .byte   N32 ,Cn5
 .byte   W36
 .byte   N23 ,Dn4
 .byte   N23 ,An4
 .byte   N23 ,Dn5
 .byte   W24
 .byte   N11 ,Cn4
 .byte   N11 ,Gn4
 .byte   N11 ,Cn5
 .byte   W12
 .byte   As3
 .byte   N11 ,Fn4
 .byte   N11 ,As4
 .byte   W12
@  #02 @149   ----------------------------------------
 .byte   PATT
  .word Label_01511826
@  #02 @150   ----------------------------------------
 .byte   PATT
  .word Label_01511830
@  #02 @151   ----------------------------------------
 .byte   PATT
  .word Label_0151183F
@  #02 @152   ----------------------------------------
 .byte   PATT
  .word Label_01511855
@  #02 @153   ----------------------------------------
 .byte   PATT
  .word Label_01511826
@  #02 @154   ----------------------------------------
 .byte   PATT
  .word Label_01511830
@  #02 @155   ----------------------------------------
 .byte   PATT
  .word Label_0151183F
@  #02 @156   ----------------------------------------
 .byte   PATT
  .word Label_0151187A
@  #02 @157   ----------------------------------------
 .byte   PATT
  .word Label_01511826
@  #02 @158   ----------------------------------------
 .byte   PATT
  .word Label_01511830
@  #02 @159   ----------------------------------------
 .byte   PATT
  .word Label_0151189B
@  #02 @160   ----------------------------------------
 .byte   PATT
  .word Label_015118B1
@  #02 @161   ----------------------------------------
 .byte   PATT
  .word Label_015118CC
@  #02 @162   ----------------------------------------
 .byte   PATT
  .word Label_01511830
@  #02 @163   ----------------------------------------
 .byte   PATT
  .word Label_0151183F
@  #02 @164   ----------------------------------------
 .byte   N44 ,An3 ,v127
 .byte   N44 ,Dn4
 .byte   N44 ,An4
 .byte   W48
 .byte   N23 ,Gn3
 .byte   N23 ,Cn4
 .byte   N23 ,Gn4
 .byte   W24
 .byte   N44 ,As3
 .byte   N44 ,Ds4
 .byte   N44 ,As4
 .byte   W24
@  #02 @165   ----------------------------------------
 .byte   W96
@  #02 @166   ----------------------------------------
 .byte   W96
@  #02 @167   ----------------------------------------
 .byte   W96
@  #02 @168   ----------------------------------------
 .byte   W96
@  #02 @169   ----------------------------------------
 .byte   W96
@  #02 @170   ----------------------------------------
 .byte   W96
@  #02 @171   ----------------------------------------
 .byte   W96
@  #02 @172   ----------------------------------------
 .byte   W96
@  #02 @173   ----------------------------------------
 .byte   W96
@  #02 @174   ----------------------------------------
 .byte   W96
@  #02 @175   ----------------------------------------
 .byte   W96
@  #02 @176   ----------------------------------------
 .byte   W96
@  #02 @177   ----------------------------------------
 .byte   W96
@  #02 @178   ----------------------------------------
 .byte   W96
@  #02 @179   ----------------------------------------
 .byte   W96
@  #02 @180   ----------------------------------------
 .byte   W96
@  #02 @181   ----------------------------------------
 .byte   N48 ,Dn3
 .byte   N48 ,Gn3
 .byte   N48 ,Dn4
 .byte   W48
 .byte   N44 ,Dn3
 .byte   N44 ,Gn3
 .byte   N44 ,Dn4
 .byte   W48
@  #02 @182   ----------------------------------------
 .byte   PATT
  .word Label_01511830
@  #02 @183   ----------------------------------------
 .byte   PATT
  .word Label_0151183F
@  #02 @184   ----------------------------------------
 .byte   N23 ,An3 ,v127
 .byte   N23 ,Dn4
 .byte   N23 ,An4
 .byte   W24
 .byte   Gn3
 .byte   N23 ,Cn4
 .byte   N23 ,Gn4
 .byte   W24
 .byte   N92 ,Dn3
 .byte   N24 ,Gn3
 .byte   N92 ,Dn4
 .byte   W24
 .byte   N23 ,Gn4
 .byte   W24
@  #02 @185   ----------------------------------------
 .byte   N44 ,Gn3
 .byte   N32 ,Gn4
 .byte   W36
 .byte   Fn3
 .byte   N32 ,Fn4
 .byte   W12
 .byte   N24 ,Dn3
 .byte   N44 ,Gn3
 .byte   N24 ,Dn4
 .byte   W48
@  #02 @186   ----------------------------------------
 .byte   PATT
  .word Label_01511830
@  #02 @187   ----------------------------------------
 .byte   PATT
  .word Label_0151183F
@  #02 @188   ----------------------------------------
 .byte   PATT
  .word Label_0151187A
@  #02 @189   ----------------------------------------
 .byte   N32 ,Dn4 ,v127
 .byte   N32 ,Dn5
 .byte   W36
 .byte   Cn4
 .byte   N32 ,Cn5
 .byte   W12
 .byte   N44 ,Dn3
 .byte   N44 ,Gn3
 .byte   N44 ,Dn4
 .byte   W24
 .byte   N72 ,As3
 .byte   N72 ,As4
 .byte   W24
@  #02 @190   ----------------------------------------
 .byte   PATT
  .word Label_01511830
@  #02 @191   ----------------------------------------
 .byte   PATT
  .word Label_0151189B
@  #02 @192   ----------------------------------------
 .byte   PATT
  .word Label_015118B1
@  #02 @193   ----------------------------------------
 .byte   N32 ,Dn4 ,v127
 .byte   N32 ,Dn5
 .byte   W36
 .byte   Cn4
 .byte   N32 ,Cn5
 .byte   W12
 .byte   N44 ,Dn4
 .byte   N44 ,Gn4
 .byte   N44 ,Dn5
 .byte   W24
 .byte   N72 ,As3
 .byte   N72 ,As4
 .byte   W24
@  #02 @194   ----------------------------------------
 .byte   PATT
  .word Label_01511830
@  #02 @195   ----------------------------------------
 .byte   PATT
  .word Label_01511559
@  #02 @196   ----------------------------------------
 .byte   N44 ,An3 ,v127
 .byte   W48
 .byte   N23 ,Gn3
 .byte   W24
 .byte   N68 ,As3
 .byte   W24
@  #02 @197   ----------------------------------------
Label_01511C11:
 .byte   W48
 .byte   N11 ,Fn3 ,v127
 .byte   W12
 .byte   N11
 .byte   W12
 .byte   N11
 .byte   W12
 .byte   N11
 .byte   W12
 .byte   PEND 
@  #02 @198   ----------------------------------------
Label_01511C1D:
 .byte   N23 ,Fn3 ,v127
 .byte   W24
 .byte   N11
 .byte   W12
 .byte   N11
 .byte   W12
 .byte   Gn3
 .byte   W12
 .byte   Dn3
 .byte   W12
 .byte   N23
 .byte   W24
 .byte   PEND 
@  #02 @199   ----------------------------------------
 .byte   W48
 .byte   N23
 .byte   N23 ,Gn3
 .byte   W24
 .byte   Dn3
 .byte   N23 ,Gn3
 .byte   W24
@  #02 @200   ----------------------------------------
Label_01511C35:
 .byte   N23 ,Dn3 ,v127
 .byte   N23 ,Gn3
 .byte   W24
 .byte   Cn3
 .byte   N23 ,Fn3
 .byte   W24
 .byte   Ds3
 .byte   N23 ,Gs3
 .byte   W24
 .byte   Dn3
 .byte   N23 ,Gn3
 .byte   W24
 .byte   PEND 
@  #02 @201   ----------------------------------------
 .byte   PATT
  .word Label_01511C11
@  #02 @202   ----------------------------------------
 .byte   N11 ,Fn3 ,v127
 .byte   W12
 .byte   N11
 .byte   W12
 .byte   N11
 .byte   W12
 .byte   N11
 .byte   W12
 .byte   Gn3
 .byte   W12
 .byte   Dn3
 .byte   W12
 .byte   N23
 .byte   W24
@  #02 @203   ----------------------------------------
 .byte   Cn3
 .byte   W24
 .byte   N23
 .byte   N23 ,Fn3
 .byte   W24
 .byte   Cn3
 .byte   N23 ,Fn3
 .byte   W24
 .byte   As2
 .byte   N23 ,Ds3
 .byte   W24
@  #02 @204   ----------------------------------------
 .byte   Cn3
 .byte   N23 ,Fn3
 .byte   W24
 .byte   As2
 .byte   N23 ,Ds3
 .byte   W24
 .byte   N23
 .byte   N23 ,Gs3
 .byte   W24
 .byte   Dn3
 .byte   N23 ,Gn3
 .byte   W24
@  #02 @205   ----------------------------------------
 .byte   PATT
  .word Label_01511C11
@  #02 @206   ----------------------------------------
 .byte   PATT
  .word Label_01511C1D
@  #02 @207   ----------------------------------------
Label_01511C85:
 .byte   W24
 .byte   N23 ,Dn3 ,v127
 .byte   N23 ,Gn3
 .byte   W24
 .byte   Dn3
 .byte   N23 ,Gn3
 .byte   W24
 .byte   Dn3
 .byte   N23 ,Gn3
 .byte   W24
 .byte   PEND 
@  #02 @208   ----------------------------------------
 .byte   PATT
  .word Label_01511C35
@  #02 @209   ----------------------------------------
 .byte   PATT
  .word Label_01511C85
@  #02 @210   ----------------------------------------
 .byte   N23 ,Dn3 ,v127
 .byte   N23 ,Gn3
 .byte   W24
 .byte   As2
 .byte   N23 ,Ds3
 .byte   W24
 .byte   N44 ,Cn3
 .byte   N44 ,Fn3
 .byte   W48
@  #02 @211   ----------------------------------------
 .byte   W24
 .byte   N23 ,As2
 .byte   W24
 .byte   Cn3
 .byte   W24
 .byte   As2
 .byte   W24
@  #02 @212   ----------------------------------------
 .byte   Cn3
 .byte   W24
 .byte   Dn3
 .byte   W24
 .byte   Cn3
 .byte   W24
 .byte   As2
 .byte   W24
@  #02 @213   ----------------------------------------
 .byte   As2 ,v052
 .byte   W24
 .byte   As2 ,v036
 .byte   W24
 .byte   As2 ,v016
 .byte   W24
 .byte   GOTO
  .word Label_01511546
 .byte   FINE

@**************** Track 3 (Midi-Chn.2) ****************@

song013A_003:
@  #03 @000   ----------------------------------------
 .byte   KEYSH , song013A_key+0
Label_0165DB16:
 .byte   VOICE , 18
 .byte   VOL , 34*song013A_mvl/mxv
 .byte   PAN , c_v+0
 .byte   PAN , c_v+0
 .byte   W12
 .byte   N11 ,Dn4 ,v080
 .byte   W12
 .byte   As3
 .byte   W12
 .byte   N11
 .byte   W12
 .byte   Dn4
 .byte   W12
 .byte   As3
 .byte   W12
 .byte   N11
 .byte   W12
 .byte   N11
 .byte   W12
@  #03 @001   ----------------------------------------
Label_0165DB2E:
 .byte   W12
 .byte   N11 ,An3 ,v080
 .byte   W12
 .byte   N11
 .byte   W12
 .byte   N11
 .byte   W12
 .byte   N01 ,Gn3
 .byte   W01
 .byte   Gs3
 .byte   W02
 .byte   An3
 .byte   W02
 .byte   As3
 .byte   W01
 .byte   Bn3
 .byte   W02
 .byte   Cn4
 .byte   W02
 .byte   Cs4
 .byte   W02
 .byte   N11 ,Dn4
 .byte   W24
 .byte   Gn3
 .byte   W12
 .byte   PEND 
@  #03 @002   ----------------------------------------
Label_0165DB4C:
 .byte   N11 ,Gn3 ,v080
 .byte   W12
 .byte   Dn4
 .byte   W12
 .byte   Gn3
 .byte   W12
 .byte   N11
 .byte   W12
 .byte   Dn4
 .byte   W12
 .byte   Gn3
 .byte   W12
 .byte   N11
 .byte   W12
 .byte   Dn4
 .byte   W12
 .byte   PEND 
@  #03 @003   ----------------------------------------
Label_0165DB5F:
 .byte   W12
 .byte   N11 ,As3 ,v080
 .byte   W12
 .byte   Cn4
 .byte   W12
 .byte   Dn4
 .byte   W12
 .byte   Fn4
 .byte   W24
 .byte   As3
 .byte   W12
 .byte   N11
 .byte   W12
 .byte   PEND 
@  #03 @004   ----------------------------------------
Label_0165DB6F:
 .byte   W12
 .byte   N11 ,Dn4 ,v080
 .byte   W12
 .byte   As3
 .byte   W12
 .byte   N11
 .byte   W12
 .byte   Dn4
 .byte   W12
 .byte   As3
 .byte   W12
 .byte   N11
 .byte   W12
 .byte   N11
 .byte   W12
 .byte   PEND 
@  #03 @005   ----------------------------------------
 .byte   PATT
  .word Label_0165DB2E
@  #03 @006   ----------------------------------------
 .byte   PATT
  .word Label_0165DB4C
@  #03 @007   ----------------------------------------
 .byte   PATT
  .word Label_0165DB5F
@  #03 @008   ----------------------------------------
 .byte   W96
@  #03 @009   ----------------------------------------
 .byte   W96
@  #03 @010   ----------------------------------------
 .byte   W96
@  #03 @011   ----------------------------------------
 .byte   W96
@  #03 @012   ----------------------------------------
 .byte   W96
@  #03 @013   ----------------------------------------
 .byte   W96
@  #03 @014   ----------------------------------------
 .byte   W96
@  #03 @015   ----------------------------------------
 .byte   W96
@  #03 @016   ----------------------------------------
 .byte   W96
@  #03 @017   ----------------------------------------
 .byte   W96
@  #03 @018   ----------------------------------------
 .byte   W96
@  #03 @019   ----------------------------------------
 .byte   W96
@  #03 @020   ----------------------------------------
 .byte   W96
@  #03 @021   ----------------------------------------
 .byte   W96
@  #03 @022   ----------------------------------------
 .byte   W96
@  #03 @023   ----------------------------------------
 .byte   W96
@  #03 @024   ----------------------------------------
 .byte   W96
@  #03 @025   ----------------------------------------
 .byte   W96
@  #03 @026   ----------------------------------------
 .byte   W96
@  #03 @027   ----------------------------------------
 .byte   W96
@  #03 @028   ----------------------------------------
 .byte   W96
@  #03 @029   ----------------------------------------
 .byte   W96
@  #03 @030   ----------------------------------------
 .byte   W96
@  #03 @031   ----------------------------------------
 .byte   W96
@  #03 @032   ----------------------------------------
 .byte   W96
@  #03 @033   ----------------------------------------
 .byte   W96
@  #03 @034   ----------------------------------------
 .byte   W96
@  #03 @035   ----------------------------------------
 .byte   W96
@  #03 @036   ----------------------------------------
 .byte   W96
@  #03 @037   ----------------------------------------
 .byte   W96
@  #03 @038   ----------------------------------------
 .byte   W96
@  #03 @039   ----------------------------------------
 .byte   W96
@  #03 @040   ----------------------------------------
 .byte   W96
@  #03 @041   ----------------------------------------
 .byte   W96
@  #03 @042   ----------------------------------------
 .byte   W96
@  #03 @043   ----------------------------------------
 .byte   W96
@  #03 @044   ----------------------------------------
 .byte   W96
@  #03 @045   ----------------------------------------
 .byte   W96
@  #03 @046   ----------------------------------------
 .byte   W96
@  #03 @047   ----------------------------------------
 .byte   W96
@  #03 @048   ----------------------------------------
 .byte   W96
@  #03 @049   ----------------------------------------
 .byte   W96
@  #03 @050   ----------------------------------------
 .byte   W96
@  #03 @051   ----------------------------------------
 .byte   W96
@  #03 @052   ----------------------------------------
 .byte   W96
@  #03 @053   ----------------------------------------
Label_0165DBBD:
 .byte   N11 ,Dn4 ,v080
 .byte   W12
 .byte   Gn3
 .byte   W12
 .byte   N11
 .byte   W12
 .byte   Dn4
 .byte   W12
 .byte   Gn3
 .byte   W12
 .byte   N11
 .byte   W12
 .byte   Dn4
 .byte   W12
 .byte   Gn3
 .byte   W12
 .byte   PEND 
@  #03 @054   ----------------------------------------
Label_0165DBD0:
 .byte   N11 ,Gn3 ,v080
 .byte   W12
 .byte   Dn4
 .byte   W12
 .byte   Gn3
 .byte   W12
 .byte   N11
 .byte   W12
 .byte   N23 ,Ds4
 .byte   W24
 .byte   Dn4
 .byte   W24
 .byte   PEND 
@  #03 @055   ----------------------------------------
 .byte   PATT
  .word Label_0165DBBD
@  #03 @056   ----------------------------------------
 .byte   PATT
  .word Label_0165DBD0
@  #03 @057   ----------------------------------------
 .byte   PATT
  .word Label_0165DBBD
@  #03 @058   ----------------------------------------
 .byte   PATT
  .word Label_0165DBD0
@  #03 @059   ----------------------------------------
Label_0165DBF4:
 .byte   N11 ,An3 ,v080
 .byte   W12
 .byte   N11
 .byte   W12
 .byte   N11
 .byte   W12
 .byte   Cn4
 .byte   W12
 .byte   N11
 .byte   W12
 .byte   N11
 .byte   W12
 .byte   N11
 .byte   W12
 .byte   N11
 .byte   W12
 .byte   PEND 
@  #03 @060   ----------------------------------------
Label_0165DC07:
 .byte   N11 ,Fn3 ,v080
 .byte   W12
 .byte   N11
 .byte   W12
 .byte   N11
 .byte   W12
 .byte   N11
 .byte   W12
 .byte   En3
 .byte   W12
 .byte   N11
 .byte   W12
 .byte   Cn4
 .byte   W12
 .byte   N11
 .byte   W12
 .byte   PEND 
@  #03 @061   ----------------------------------------
 .byte   PATT
  .word Label_0165DBBD
@  #03 @062   ----------------------------------------
 .byte   PATT
  .word Label_0165DBD0
@  #03 @063   ----------------------------------------
 .byte   PATT
  .word Label_0165DBBD
@  #03 @064   ----------------------------------------
 .byte   PATT
  .word Label_0165DBD0
@  #03 @065   ----------------------------------------
 .byte   PATT
  .word Label_0165DBBD
@  #03 @066   ----------------------------------------
 .byte   PATT
  .word Label_0165DBD0
@  #03 @067   ----------------------------------------
 .byte   W96
@  #03 @068   ----------------------------------------
Label_0165DC39:
 .byte   N11 ,Fn4 ,v080
 .byte   W12
 .byte   Dn4
 .byte   W12
 .byte   Fn4
 .byte   W12
 .byte   Gn4
 .byte   W12
 .byte   Fn4
 .byte   W12
 .byte   Dn4
 .byte   W12
 .byte   Fn4
 .byte   W12
 .byte   Dn4
 .byte   W12
 .byte   PEND 
@  #03 @069   ----------------------------------------
Label_0165DC4C:
 .byte   N44 ,Gs3 ,v080
 .byte   W48
 .byte   Dn4
 .byte   W48
 .byte   PEND 
@  #03 @070   ----------------------------------------
Label_0165DC53:
 .byte   N44 ,Gn3 ,v080
 .byte   W48
 .byte   Dn4
 .byte   W48
 .byte   PEND 
@  #03 @071   ----------------------------------------
Label_0165DC5A:
 .byte   N44 ,Gs3 ,v080
 .byte   W48
 .byte   As3
 .byte   W48
 .byte   PEND 
@  #03 @072   ----------------------------------------
Label_0165DC61:
 .byte   N44 ,Gn3 ,v080
 .byte   W48
 .byte   As3
 .byte   W48
 .byte   PEND 
@  #03 @073   ----------------------------------------
 .byte   PATT
  .word Label_0165DC4C
@  #03 @074   ----------------------------------------
 .byte   PATT
  .word Label_0165DC53
@  #03 @075   ----------------------------------------
Label_0165DC72:
 .byte   N44 ,Dn4 ,v080
 .byte   W48
 .byte   N23
 .byte   W24
 .byte   Cn4
 .byte   W24
 .byte   PEND 
@  #03 @076   ----------------------------------------
Label_0165DC7B:
 .byte   N44 ,Dn4 ,v080
 .byte   W48
 .byte   N23 ,Cn4
 .byte   W24
 .byte   Ds4
 .byte   W24
 .byte   PEND 
@  #03 @077   ----------------------------------------
 .byte   PATT
  .word Label_0165DC4C
@  #03 @078   ----------------------------------------
 .byte   PATT
  .word Label_0165DC53
@  #03 @079   ----------------------------------------
 .byte   PATT
  .word Label_0165DC5A
@  #03 @080   ----------------------------------------
 .byte   PATT
  .word Label_0165DC61
@  #03 @081   ----------------------------------------
 .byte   PATT
  .word Label_0165DC4C
@  #03 @082   ----------------------------------------
 .byte   PATT
  .word Label_0165DC53
@  #03 @083   ----------------------------------------
 .byte   PATT
  .word Label_0165DC72
@  #03 @084   ----------------------------------------
 .byte   PATT
  .word Label_0165DC7B
@  #03 @085   ----------------------------------------
 .byte   W96
@  #03 @086   ----------------------------------------
 .byte   W96
@  #03 @087   ----------------------------------------
 .byte   W96
@  #03 @088   ----------------------------------------
 .byte   W96
@  #03 @089   ----------------------------------------
 .byte   W96
@  #03 @090   ----------------------------------------
 .byte   W96
@  #03 @091   ----------------------------------------
 .byte   W96
@  #03 @092   ----------------------------------------
 .byte   W96
@  #03 @093   ----------------------------------------
Label_0165DCB5:
 .byte   N11 ,Cn4 ,v080
 .byte   W12
 .byte   N11
 .byte   W12
 .byte   N11
 .byte   W12
 .byte   As3
 .byte   W12
 .byte   N11
 .byte   W12
 .byte   N11
 .byte   W12
 .byte   An3
 .byte   W12
 .byte   N11
 .byte   W12
 .byte   PEND 
@  #03 @094   ----------------------------------------
 .byte   As3
 .byte   W12
 .byte   N11
 .byte   W12
 .byte   N23 ,Gn3
 .byte   W24
 .byte   N11 ,As3
 .byte   W12
 .byte   Gn3
 .byte   W12
 .byte   N11
 .byte   W12
 .byte   N11
 .byte   W12
@  #03 @095   ----------------------------------------
 .byte   PATT
  .word Label_0165DCB5
@  #03 @096   ----------------------------------------
 .byte   N11 ,As3 ,v080
 .byte   W12
 .byte   Gn3
 .byte   W12
 .byte   N11
 .byte   W12
 .byte   N11
 .byte   W12
 .byte   As3
 .byte   W12
 .byte   N11
 .byte   W12
 .byte   Gn3
 .byte   W12
 .byte   N11
 .byte   W12
@  #03 @097   ----------------------------------------
 .byte   PATT
  .word Label_0165DC4C
@  #03 @098   ----------------------------------------
 .byte   PATT
  .word Label_0165DC53
@  #03 @099   ----------------------------------------
 .byte   TIE ,Gn3 ,v080
 .byte   W96
@  #03 @100   ----------------------------------------
 .byte   W92
 .byte   W03
 .byte   EOT
 .byte   W01
@  #03 @101   ----------------------------------------
 .byte   W96
@  #03 @102   ----------------------------------------
 .byte   W96
@  #03 @103   ----------------------------------------
 .byte   W96
@  #03 @104   ----------------------------------------
 .byte   W96
@  #03 @105   ----------------------------------------
 .byte   W96
@  #03 @106   ----------------------------------------
 .byte   W96
@  #03 @107   ----------------------------------------
 .byte   W96
@  #03 @108   ----------------------------------------
 .byte   W96
@  #03 @109   ----------------------------------------
 .byte   W96
@  #03 @110   ----------------------------------------
 .byte   W96
@  #03 @111   ----------------------------------------
 .byte   W96
@  #03 @112   ----------------------------------------
 .byte   W96
@  #03 @113   ----------------------------------------
 .byte   W96
@  #03 @114   ----------------------------------------
 .byte   W96
@  #03 @115   ----------------------------------------
 .byte   W96
@  #03 @116   ----------------------------------------
 .byte   W96
@  #03 @117   ----------------------------------------
 .byte   W96
@  #03 @118   ----------------------------------------
 .byte   W96
@  #03 @119   ----------------------------------------
 .byte   W96
@  #03 @120   ----------------------------------------
 .byte   W96
@  #03 @121   ----------------------------------------
 .byte   W96
@  #03 @122   ----------------------------------------
 .byte   W96
@  #03 @123   ----------------------------------------
 .byte   W96
@  #03 @124   ----------------------------------------
 .byte   W96
@  #03 @125   ----------------------------------------
 .byte   W96
@  #03 @126   ----------------------------------------
 .byte   W96
@  #03 @127   ----------------------------------------
 .byte   W96
@  #03 @128   ----------------------------------------
 .byte   W96
@  #03 @129   ----------------------------------------
 .byte   W96
@  #03 @130   ----------------------------------------
 .byte   W96
@  #03 @131   ----------------------------------------
 .byte   W96
@  #03 @132   ----------------------------------------
 .byte   W96
@  #03 @133   ----------------------------------------
 .byte   PATT
  .word Label_0165DBBD
@  #03 @134   ----------------------------------------
 .byte   PATT
  .word Label_0165DBD0
@  #03 @135   ----------------------------------------
 .byte   PATT
  .word Label_0165DBBD
@  #03 @136   ----------------------------------------
 .byte   PATT
  .word Label_0165DBD0
@  #03 @137   ----------------------------------------
 .byte   PATT
  .word Label_0165DBBD
@  #03 @138   ----------------------------------------
 .byte   PATT
  .word Label_0165DBD0
@  #03 @139   ----------------------------------------
 .byte   PATT
  .word Label_0165DBF4
@  #03 @140   ----------------------------------------
 .byte   PATT
  .word Label_0165DC07
@  #03 @141   ----------------------------------------
 .byte   PATT
  .word Label_0165DBBD
@  #03 @142   ----------------------------------------
 .byte   PATT
  .word Label_0165DBD0
@  #03 @143   ----------------------------------------
 .byte   PATT
  .word Label_0165DBBD
@  #03 @144   ----------------------------------------
 .byte   PATT
  .word Label_0165DBD0
@  #03 @145   ----------------------------------------
 .byte   PATT
  .word Label_0165DBBD
@  #03 @146   ----------------------------------------
 .byte   PATT
  .word Label_0165DBD0
@  #03 @147   ----------------------------------------
 .byte   W96
@  #03 @148   ----------------------------------------
 .byte   PATT
  .word Label_0165DC39
@  #03 @149   ----------------------------------------
 .byte   PATT
  .word Label_0165DC4C
@  #03 @150   ----------------------------------------
 .byte   PATT
  .word Label_0165DC53
@  #03 @151   ----------------------------------------
 .byte   PATT
  .word Label_0165DC5A
@  #03 @152   ----------------------------------------
 .byte   PATT
  .word Label_0165DC61
@  #03 @153   ----------------------------------------
 .byte   PATT
  .word Label_0165DC4C
@  #03 @154   ----------------------------------------
 .byte   PATT
  .word Label_0165DC53
@  #03 @155   ----------------------------------------
 .byte   PATT
  .word Label_0165DC72
@  #03 @156   ----------------------------------------
 .byte   PATT
  .word Label_0165DC7B
@  #03 @157   ----------------------------------------
 .byte   PATT
  .word Label_0165DC4C
@  #03 @158   ----------------------------------------
 .byte   PATT
  .word Label_0165DC53
@  #03 @159   ----------------------------------------
 .byte   PATT
  .word Label_0165DC5A
@  #03 @160   ----------------------------------------
 .byte   PATT
  .word Label_0165DC61
@  #03 @161   ----------------------------------------
 .byte   PATT
  .word Label_0165DC4C
@  #03 @162   ----------------------------------------
 .byte   PATT
  .word Label_0165DC53
@  #03 @163   ----------------------------------------
 .byte   PATT
  .word Label_0165DC72
@  #03 @164   ----------------------------------------
 .byte   PATT
  .word Label_0165DC7B
@  #03 @165   ----------------------------------------
 .byte   PATT
  .word Label_0165DBBD
@  #03 @166   ----------------------------------------
 .byte   PATT
  .word Label_0165DBD0
@  #03 @167   ----------------------------------------
 .byte   PATT
  .word Label_0165DBBD
@  #03 @168   ----------------------------------------
 .byte   PATT
  .word Label_0165DBD0
@  #03 @169   ----------------------------------------
 .byte   PATT
  .word Label_0165DBBD
@  #03 @170   ----------------------------------------
 .byte   PATT
  .word Label_0165DBD0
@  #03 @171   ----------------------------------------
 .byte   PATT
  .word Label_0165DBF4
@  #03 @172   ----------------------------------------
 .byte   PATT
  .word Label_0165DC07
@  #03 @173   ----------------------------------------
 .byte   PATT
  .word Label_0165DBBD
@  #03 @174   ----------------------------------------
 .byte   PATT
  .word Label_0165DBD0
@  #03 @175   ----------------------------------------
 .byte   PATT
  .word Label_0165DBBD
@  #03 @176   ----------------------------------------
 .byte   PATT
  .word Label_0165DBD0
@  #03 @177   ----------------------------------------
 .byte   PATT
  .word Label_0165DBBD
@  #03 @178   ----------------------------------------
 .byte   PATT
  .word Label_0165DBD0
@  #03 @179   ----------------------------------------
 .byte   W96
@  #03 @180   ----------------------------------------
 .byte   PATT
  .word Label_0165DC39
@  #03 @181   ----------------------------------------
 .byte   PATT
  .word Label_0165DC4C
@  #03 @182   ----------------------------------------
 .byte   PATT
  .word Label_0165DC53
@  #03 @183   ----------------------------------------
 .byte   PATT
  .word Label_0165DC5A
@  #03 @184   ----------------------------------------
 .byte   PATT
  .word Label_0165DC61
@  #03 @185   ----------------------------------------
 .byte   PATT
  .word Label_0165DC4C
@  #03 @186   ----------------------------------------
 .byte   PATT
  .word Label_0165DC53
@  #03 @187   ----------------------------------------
 .byte   PATT
  .word Label_0165DC72
@  #03 @188   ----------------------------------------
 .byte   PATT
  .word Label_0165DC7B
@  #03 @189   ----------------------------------------
 .byte   PATT
  .word Label_0165DC4C
@  #03 @190   ----------------------------------------
 .byte   PATT
  .word Label_0165DC53
@  #03 @191   ----------------------------------------
 .byte   PATT
  .word Label_0165DC5A
@  #03 @192   ----------------------------------------
 .byte   PATT
  .word Label_0165DC61
@  #03 @193   ----------------------------------------
 .byte   PATT
  .word Label_0165DC4C
@  #03 @194   ----------------------------------------
 .byte   PATT
  .word Label_0165DC53
@  #03 @195   ----------------------------------------
 .byte   PATT
  .word Label_0165DC72
@  #03 @196   ----------------------------------------
 .byte   PATT
  .word Label_0165DC7B
@  #03 @197   ----------------------------------------
 .byte   PATT
  .word Label_0165DB6F
@  #03 @198   ----------------------------------------
 .byte   PATT
  .word Label_0165DB2E
@  #03 @199   ----------------------------------------
 .byte   PATT
  .word Label_0165DB4C
@  #03 @200   ----------------------------------------
 .byte   PATT
  .word Label_0165DB5F
@  #03 @201   ----------------------------------------
 .byte   PATT
  .word Label_0165DB6F
@  #03 @202   ----------------------------------------
 .byte   PATT
  .word Label_0165DB2E
@  #03 @203   ----------------------------------------
 .byte   PATT
  .word Label_0165DB4C
@  #03 @204   ----------------------------------------
 .byte   PATT
  .word Label_0165DB5F
@  #03 @205   ----------------------------------------
 .byte   PATT
  .word Label_0165DB6F
@  #03 @206   ----------------------------------------
 .byte   PATT
  .word Label_0165DB2E
@  #03 @207   ----------------------------------------
 .byte   PATT
  .word Label_0165DB4C
@  #03 @208   ----------------------------------------
 .byte   PATT
  .word Label_0165DB5F
@  #03 @209   ----------------------------------------
 .byte   PATT
  .word Label_0165DB6F
@  #03 @210   ----------------------------------------
 .byte   PATT
  .word Label_0165DB2E
@  #03 @211   ----------------------------------------
 .byte   PATT
  .word Label_0165DB4C
@  #03 @212   ----------------------------------------
 .byte   PATT
  .word Label_0165DB5F
@  #03 @213   ----------------------------------------
 .byte   W72
 .byte   GOTO
  .word Label_0165DB16
 .byte   FINE

@**************** Track 4 (Midi-Chn.3) ****************@

song013A_004:
@  #04 @000   ----------------------------------------
 .byte   KEYSH , song013A_key+0
Label_0165E9DA:
 .byte   VOICE , 30
 .byte   VOL , 43*song013A_mvl/mxv
 .byte   PAN , c_v+0
 .byte   PAN , c_v+0
 .byte   W96
@  #04 @001   ----------------------------------------
 .byte   W96
@  #04 @002   ----------------------------------------
 .byte   W96
@  #04 @003   ----------------------------------------
 .byte   W96
@  #04 @004   ----------------------------------------
 .byte   W96
@  #04 @005   ----------------------------------------
 .byte   W96
@  #04 @006   ----------------------------------------
 .byte   W96
@  #04 @007   ----------------------------------------
 .byte   W96
@  #04 @008   ----------------------------------------
Label_0165E9E9:
 .byte   N11 ,Gn2 ,v080
 .byte   W12
 .byte   Gn1
 .byte   W24
 .byte   N11
 .byte   W24
 .byte   N11
 .byte   W24
 .byte   N11
 .byte   W12
 .byte   PEND 
@  #04 @009   ----------------------------------------
Label_0165E9F6:
 .byte   N11 ,An1 ,v080
 .byte   W12
 .byte   As1
 .byte   W12
 .byte   Cn2
 .byte   W12
 .byte   Gn1
 .byte   W12
 .byte   An1
 .byte   W12
 .byte   As1
 .byte   W12
 .byte   An1
 .byte   W12
 .byte   Gn1
 .byte   W12
 .byte   PEND 
@  #04 @010   ----------------------------------------
 .byte   PATT
  .word Label_0165E9E9
@  #04 @011   ----------------------------------------
Label_0165EA0E:
 .byte   N11 ,Cs2 ,v080
 .byte   W12
 .byte   N11
 .byte   W12
 .byte   N11
 .byte   W12
 .byte   N11
 .byte   W12
 .byte   Gs1
 .byte   W12
 .byte   N11
 .byte   W12
 .byte   N11
 .byte   W12
 .byte   N11
 .byte   W12
 .byte   PEND 
@  #04 @012   ----------------------------------------
 .byte   PATT
  .word Label_0165E9E9
@  #04 @013   ----------------------------------------
 .byte   PATT
  .word Label_0165E9F6
@  #04 @014   ----------------------------------------
 .byte   PATT
  .word Label_0165E9E9
@  #04 @015   ----------------------------------------
Label_0165EA30:
 .byte   N11 ,As1 ,v080
 .byte   W12
 .byte   N11
 .byte   W12
 .byte   N11
 .byte   W12
 .byte   N11
 .byte   W12
 .byte   Cn2
 .byte   W12
 .byte   N11
 .byte   W12
 .byte   Gs1
 .byte   W12
 .byte   N11
 .byte   W12
 .byte   PEND 
@  #04 @016   ----------------------------------------
 .byte   PATT
  .word Label_0165E9E9
@  #04 @017   ----------------------------------------
 .byte   PATT
  .word Label_0165E9F6
@  #04 @018   ----------------------------------------
 .byte   PATT
  .word Label_0165E9E9
@  #04 @019   ----------------------------------------
 .byte   PATT
  .word Label_0165EA0E
@  #04 @020   ----------------------------------------
 .byte   PATT
  .word Label_0165E9E9
@  #04 @021   ----------------------------------------
 .byte   PATT
  .word Label_0165E9F6
@  #04 @022   ----------------------------------------
 .byte   PATT
  .word Label_0165E9E9
@  #04 @023   ----------------------------------------
 .byte   PATT
  .word Label_0165EA30
@  #04 @024   ----------------------------------------
 .byte   PATT
  .word Label_0165E9E9
@  #04 @025   ----------------------------------------
 .byte   PATT
  .word Label_0165E9F6
@  #04 @026   ----------------------------------------
 .byte   PATT
  .word Label_0165E9E9
@  #04 @027   ----------------------------------------
 .byte   PATT
  .word Label_0165EA0E
@  #04 @028   ----------------------------------------
 .byte   PATT
  .word Label_0165E9E9
@  #04 @029   ----------------------------------------
 .byte   PATT
  .word Label_0165E9F6
@  #04 @030   ----------------------------------------
 .byte   PATT
  .word Label_0165E9E9
@  #04 @031   ----------------------------------------
 .byte   PATT
  .word Label_0165EA30
@  #04 @032   ----------------------------------------
 .byte   PATT
  .word Label_0165E9E9
@  #04 @033   ----------------------------------------
 .byte   PATT
  .word Label_0165E9F6
@  #04 @034   ----------------------------------------
 .byte   PATT
  .word Label_0165E9E9
@  #04 @035   ----------------------------------------
 .byte   PATT
  .word Label_0165EA0E
@  #04 @036   ----------------------------------------
 .byte   PATT
  .word Label_0165E9E9
@  #04 @037   ----------------------------------------
 .byte   PATT
  .word Label_0165E9F6
@  #04 @038   ----------------------------------------
 .byte   PATT
  .word Label_0165E9E9
@  #04 @039   ----------------------------------------
 .byte   PATT
  .word Label_0165EA30
@  #04 @040   ----------------------------------------
Label_0165EABB:
 .byte   N44 ,Gn1 ,v080
 .byte   W48
 .byte   Fs1
 .byte   W48
 .byte   PEND 
@  #04 @041   ----------------------------------------
Label_0165EAC2:
 .byte   W24
 .byte   N11 ,Fs1 ,v080
 .byte   W36
 .byte   N11
 .byte   W36
 .byte   PEND 
@  #04 @042   ----------------------------------------
Label_0165EACA:
 .byte   N11 ,Fs1 ,v080
 .byte   W36
 .byte   N11
 .byte   W24
 .byte   N11
 .byte   W12
 .byte   N11
 .byte   W12
 .byte   N11
 .byte   W12
 .byte   PEND 
@  #04 @043   ----------------------------------------
 .byte   PATT
  .word Label_0165EABB
@  #04 @044   ----------------------------------------
 .byte   PATT
  .word Label_0165EAC2
@  #04 @045   ----------------------------------------
 .byte   PATT
  .word Label_0165EACA
@  #04 @046   ----------------------------------------
 .byte   PATT
  .word Label_0165EABB
@  #04 @047   ----------------------------------------
 .byte   PATT
  .word Label_0165EAC2
@  #04 @048   ----------------------------------------
 .byte   PATT
  .word Label_0165EACA
@  #04 @049   ----------------------------------------
 .byte   PATT
  .word Label_0165EABB
@  #04 @050   ----------------------------------------
 .byte   PATT
  .word Label_0165EAC2
@  #04 @051   ----------------------------------------
 .byte   PATT
  .word Label_0165EACA
@  #04 @052   ----------------------------------------
Label_0165EB04:
 .byte   N11 ,Ds1 ,v080
 .byte   W12
 .byte   N11
 .byte   W12
 .byte   N11
 .byte   N11 ,Gn1
 .byte   W12
 .byte   Ds1
 .byte   N11 ,Gn1
 .byte   W12
 .byte   Fn1
 .byte   N11 ,An1
 .byte   N11 ,Cn2
 .byte   W12
 .byte   Fn1
 .byte   N11 ,An1
 .byte   N11 ,Cn2
 .byte   W12
 .byte   Fn1
 .byte   N11 ,An1
 .byte   N11 ,Cn2
 .byte   W12
 .byte   Fn1
 .byte   N11 ,An1
 .byte   N11 ,Cn2
 .byte   W12
 .byte   PEND 
@  #04 @053   ----------------------------------------
Label_0165EB2B:
 .byte   N11 ,Gn1 ,v080
 .byte   W12
 .byte   N11
 .byte   W12
 .byte   N11
 .byte   W12
 .byte   N11
 .byte   W12
 .byte   N11
 .byte   W12
 .byte   N11
 .byte   W12
 .byte   N11
 .byte   W12
 .byte   N11
 .byte   W12
 .byte   PEND 
@  #04 @054   ----------------------------------------
 .byte   PATT
  .word Label_0165EB2B
@  #04 @055   ----------------------------------------
Label_0165EB43:
 .byte   N11 ,Ds1 ,v080
 .byte   W12
 .byte   N11
 .byte   W12
 .byte   N11
 .byte   W12
 .byte   N11
 .byte   W12
 .byte   N11
 .byte   W12
 .byte   N11
 .byte   W12
 .byte   N11
 .byte   W12
 .byte   N11
 .byte   W12
 .byte   PEND 
@  #04 @056   ----------------------------------------
Label_0165EB56:
 .byte   N11 ,Ds1 ,v080
 .byte   W12
 .byte   N11
 .byte   W12
 .byte   N11
 .byte   W12
 .byte   N11
 .byte   W12
 .byte   Dn1
 .byte   W12
 .byte   N11
 .byte   W12
 .byte   N11
 .byte   W12
 .byte   N11
 .byte   W12
 .byte   PEND 
@  #04 @057   ----------------------------------------
Label_0165EB69:
 .byte   N11 ,Cn1 ,v080
 .byte   W12
 .byte   N11
 .byte   W12
 .byte   N11
 .byte   W12
 .byte   N11
 .byte   W12
 .byte   N11
 .byte   W12
 .byte   N11
 .byte   W12
 .byte   N11
 .byte   W12
 .byte   N11
 .byte   W12
 .byte   PEND 
@  #04 @058   ----------------------------------------
 .byte   PATT
  .word Label_0165EB69
@  #04 @059   ----------------------------------------
Label_0165EB81:
 .byte   N11 ,Fn1 ,v080
 .byte   W12
 .byte   N11
 .byte   W12
 .byte   N11
 .byte   W12
 .byte   N11
 .byte   W12
 .byte   N11
 .byte   W12
 .byte   N11
 .byte   W12
 .byte   N11
 .byte   W12
 .byte   N11
 .byte   W12
 .byte   PEND 
@  #04 @060   ----------------------------------------
Label_0165EB94:
 .byte   N11 ,Dn1 ,v080
 .byte   W12
 .byte   N11
 .byte   W12
 .byte   N11
 .byte   W12
 .byte   N11
 .byte   W12
 .byte   N11
 .byte   W12
 .byte   N11
 .byte   W12
 .byte   N11
 .byte   W12
 .byte   N11
 .byte   W12
 .byte   PEND 
@  #04 @061   ----------------------------------------
 .byte   PATT
  .word Label_0165EB2B
@  #04 @062   ----------------------------------------
 .byte   PATT
  .word Label_0165EB2B
@  #04 @063   ----------------------------------------
 .byte   PATT
  .word Label_0165EB43
@  #04 @064   ----------------------------------------
 .byte   PATT
  .word Label_0165EB56
@  #04 @065   ----------------------------------------
 .byte   PATT
  .word Label_0165EB69
@  #04 @066   ----------------------------------------
 .byte   PATT
  .word Label_0165EB69
@  #04 @067   ----------------------------------------
 .byte   PATT
  .word Label_0165EB81
@  #04 @068   ----------------------------------------
 .byte   PATT
  .word Label_0165EB94
@  #04 @069   ----------------------------------------
Label_0165EBCF:
 .byte   N23 ,Ds1 ,v080
 .byte   W24
 .byte   N11
 .byte   W12
 .byte   N11
 .byte   W12
 .byte   N11
 .byte   W12
 .byte   N11
 .byte   W12
 .byte   N11
 .byte   W12
 .byte   N11
 .byte   W12
 .byte   PEND 
@  #04 @070   ----------------------------------------
 .byte   PATT
  .word Label_0165EB81
@  #04 @071   ----------------------------------------
Label_0165EBE5:
 .byte   N23 ,Gn1 ,v080
 .byte   W24
 .byte   N11
 .byte   W12
 .byte   N11
 .byte   W12
 .byte   N11
 .byte   W12
 .byte   N11
 .byte   W12
 .byte   N11
 .byte   W12
 .byte   N11
 .byte   W12
 .byte   PEND 
@  #04 @072   ----------------------------------------
 .byte   PATT
  .word Label_0165EB2B
@  #04 @073   ----------------------------------------
 .byte   PATT
  .word Label_0165EBCF
@  #04 @074   ----------------------------------------
 .byte   PATT
  .word Label_0165EB81
@  #04 @075   ----------------------------------------
Label_0165EC05:
 .byte   N23 ,Gn1 ,v080
 .byte   W24
 .byte   N11
 .byte   W12
 .byte   N11
 .byte   W12
 .byte   N11
 .byte   W12
 .byte   N11
 .byte   W12
 .byte   N11
 .byte   W12
 .byte   N23
 .byte   W12
 .byte   PEND 
@  #04 @076   ----------------------------------------
Label_0165EC16:
 .byte   W12
 .byte   N11 ,Gn1 ,v080
 .byte   W12
 .byte   N11
 .byte   W12
 .byte   N11
 .byte   W12
 .byte   N11
 .byte   W12
 .byte   N11
 .byte   W12
 .byte   N11
 .byte   W12
 .byte   N11
 .byte   W12
 .byte   PEND 
@  #04 @077   ----------------------------------------
 .byte   PATT
  .word Label_0165EBCF
@  #04 @078   ----------------------------------------
 .byte   PATT
  .word Label_0165EB81
@  #04 @079   ----------------------------------------
 .byte   PATT
  .word Label_0165EBE5
@  #04 @080   ----------------------------------------
 .byte   PATT
  .word Label_0165EB2B
@  #04 @081   ----------------------------------------
 .byte   PATT
  .word Label_0165EBCF
@  #04 @082   ----------------------------------------
 .byte   PATT
  .word Label_0165EB81
@  #04 @083   ----------------------------------------
Label_0165EC46:
 .byte   N23 ,Gn1 ,v080
 .byte   W24
 .byte   N11
 .byte   W12
 .byte   N11
 .byte   W12
 .byte   N11
 .byte   W12
 .byte   N11
 .byte   W12
 .byte   N11
 .byte   W12
 .byte   N23 ,En2
 .byte   W12
 .byte   PEND 
@  #04 @084   ----------------------------------------
Label_0165EC58:
 .byte   W12
 .byte   N11 ,Dn2 ,v080
 .byte   W12
 .byte   Bn1
 .byte   W12
 .byte   Dn2
 .byte   W12
 .byte   Bn1
 .byte   W12
 .byte   An1
 .byte   W12
 .byte   N23 ,En1
 .byte   W24
 .byte   PEND 
@  #04 @085   ----------------------------------------
Label_0165EC69:
 .byte   N23 ,Ds1 ,v080
 .byte   W24
 .byte   N23
 .byte   W36
 .byte   N23
 .byte   W24
 .byte   N11
 .byte   W12
 .byte   PEND 
@  #04 @086   ----------------------------------------
Label_0165EC74:
 .byte   N23 ,Fn1 ,v080
 .byte   W24
 .byte   N23
 .byte   W36
 .byte   N23
 .byte   W24
 .byte   N11
 .byte   W12
 .byte   PEND 
@  #04 @087   ----------------------------------------
Label_0165EC7F:
 .byte   N23 ,Gn1 ,v080
 .byte   W24
 .byte   N11
 .byte   W12
 .byte   N11
 .byte   W12
 .byte   N11
 .byte   W12
 .byte   N11
 .byte   W12
 .byte   N11
 .byte   W12
 .byte   N23 ,Fs1
 .byte   W12
 .byte   PEND 
@  #04 @088   ----------------------------------------
Label_0165EC91:
 .byte   W12
 .byte   N11 ,Fs1 ,v080
 .byte   W12
 .byte   N11
 .byte   W12
 .byte   N11
 .byte   W12
 .byte   N11
 .byte   W12
 .byte   N11
 .byte   W12
 .byte   N11
 .byte   W12
 .byte   N11
 .byte   W12
 .byte   PEND 
@  #04 @089   ----------------------------------------
 .byte   PATT
  .word Label_0165EC69
@  #04 @090   ----------------------------------------
 .byte   PATT
  .word Label_0165EC74
@  #04 @091   ----------------------------------------
 .byte   PATT
  .word Label_0165EC7F
@  #04 @092   ----------------------------------------
 .byte   PATT
  .word Label_0165EC91
@  #04 @093   ----------------------------------------
 .byte   PATT
  .word Label_0165EB43
@  #04 @094   ----------------------------------------
 .byte   PATT
  .word Label_0165EB81
@  #04 @095   ----------------------------------------
 .byte   PATT
  .word Label_0165EB2B
@  #04 @096   ----------------------------------------
 .byte   N11 ,Fs1 ,v080
 .byte   W12
 .byte   N11
 .byte   W12
 .byte   N11
 .byte   W12
 .byte   N11
 .byte   W12
 .byte   N11
 .byte   W12
 .byte   N11
 .byte   W12
 .byte   N11
 .byte   W12
 .byte   N11
 .byte   W12
@  #04 @097   ----------------------------------------
 .byte   N44 ,En1
 .byte   W48
 .byte   N44
 .byte   W48
@  #04 @098   ----------------------------------------
 .byte   Fn1
 .byte   W48
 .byte   N44
 .byte   W48
@  #04 @099   ----------------------------------------
 .byte   N23 ,Gn1
 .byte   W24
 .byte   N11 ,Fn1
 .byte   W12
 .byte   N23 ,Gn1
 .byte   W24
 .byte   Fn1
 .byte   W24
 .byte   TIE ,Gn1
 .byte   W12
@  #04 @100   ----------------------------------------
 .byte   W92
 .byte   W03
 .byte   EOT
 .byte   W01
@  #04 @101   ----------------------------------------
 .byte   PATT
  .word Label_0165E9E9
@  #04 @102   ----------------------------------------
 .byte   PATT
  .word Label_0165E9F6
@  #04 @103   ----------------------------------------
 .byte   PATT
  .word Label_0165E9E9
@  #04 @104   ----------------------------------------
 .byte   PATT
  .word Label_0165EA0E
@  #04 @105   ----------------------------------------
 .byte   PATT
  .word Label_0165E9E9
@  #04 @106   ----------------------------------------
 .byte   PATT
  .word Label_0165E9F6
@  #04 @107   ----------------------------------------
 .byte   PATT
  .word Label_0165E9E9
@  #04 @108   ----------------------------------------
 .byte   PATT
  .word Label_0165EA0E
@  #04 @109   ----------------------------------------
 .byte   PATT
  .word Label_0165E9E9
@  #04 @110   ----------------------------------------
 .byte   PATT
  .word Label_0165E9F6
@  #04 @111   ----------------------------------------
 .byte   PATT
  .word Label_0165E9E9
@  #04 @112   ----------------------------------------
 .byte   PATT
  .word Label_0165EA30
@  #04 @113   ----------------------------------------
 .byte   PATT
  .word Label_0165E9E9
@  #04 @114   ----------------------------------------
 .byte   PATT
  .word Label_0165E9F6
@  #04 @115   ----------------------------------------
 .byte   PATT
  .word Label_0165E9E9
@  #04 @116   ----------------------------------------
 .byte   PATT
  .word Label_0165EA0E
@  #04 @117   ----------------------------------------
 .byte   PATT
  .word Label_0165E9E9
@  #04 @118   ----------------------------------------
 .byte   PATT
  .word Label_0165E9F6
@  #04 @119   ----------------------------------------
 .byte   PATT
  .word Label_0165E9E9
@  #04 @120   ----------------------------------------
 .byte   PATT
  .word Label_0165EA0E
@  #04 @121   ----------------------------------------
 .byte   PATT
  .word Label_0165E9E9
@  #04 @122   ----------------------------------------
 .byte   PATT
  .word Label_0165E9F6
@  #04 @123   ----------------------------------------
 .byte   PATT
  .word Label_0165E9E9
@  #04 @124   ----------------------------------------
 .byte   PATT
  .word Label_0165EA30
@  #04 @125   ----------------------------------------
 .byte   PATT
  .word Label_0165E9E9
@  #04 @126   ----------------------------------------
 .byte   PATT
  .word Label_0165E9F6
@  #04 @127   ----------------------------------------
 .byte   PATT
  .word Label_0165E9E9
@  #04 @128   ----------------------------------------
 .byte   PATT
  .word Label_0165EA0E
@  #04 @129   ----------------------------------------
 .byte   PATT
  .word Label_0165E9E9
@  #04 @130   ----------------------------------------
 .byte   PATT
  .word Label_0165E9F6
@  #04 @131   ----------------------------------------
 .byte   PATT
  .word Label_0165E9E9
@  #04 @132   ----------------------------------------
 .byte   PATT
  .word Label_0165EB04
@  #04 @133   ----------------------------------------
 .byte   PATT
  .word Label_0165EB2B
@  #04 @134   ----------------------------------------
 .byte   PATT
  .word Label_0165EB2B
@  #04 @135   ----------------------------------------
 .byte   PATT
  .word Label_0165EB43
@  #04 @136   ----------------------------------------
 .byte   PATT
  .word Label_0165EB56
@  #04 @137   ----------------------------------------
 .byte   PATT
  .word Label_0165EB69
@  #04 @138   ----------------------------------------
 .byte   PATT
  .word Label_0165EB69
@  #04 @139   ----------------------------------------
 .byte   PATT
  .word Label_0165EB81
@  #04 @140   ----------------------------------------
 .byte   PATT
  .word Label_0165EB94
@  #04 @141   ----------------------------------------
 .byte   PATT
  .word Label_0165EB2B
@  #04 @142   ----------------------------------------
 .byte   PATT
  .word Label_0165EB2B
@  #04 @143   ----------------------------------------
 .byte   PATT
  .word Label_0165EB43
@  #04 @144   ----------------------------------------
 .byte   PATT
  .word Label_0165EB56
@  #04 @145   ----------------------------------------
 .byte   PATT
  .word Label_0165EB69
@  #04 @146   ----------------------------------------
 .byte   PATT
  .word Label_0165EB69
@  #04 @147   ----------------------------------------
 .byte   PATT
  .word Label_0165EB81
@  #04 @148   ----------------------------------------
 .byte   PATT
  .word Label_0165EB94
@  #04 @149   ----------------------------------------
 .byte   PATT
  .word Label_0165EBCF
@  #04 @150   ----------------------------------------
 .byte   PATT
  .word Label_0165EB81
@  #04 @151   ----------------------------------------
 .byte   PATT
  .word Label_0165EBE5
@  #04 @152   ----------------------------------------
 .byte   PATT
  .word Label_0165EB2B
@  #04 @153   ----------------------------------------
 .byte   PATT
  .word Label_0165EBCF
@  #04 @154   ----------------------------------------
 .byte   PATT
  .word Label_0165EB81
@  #04 @155   ----------------------------------------
 .byte   PATT
  .word Label_0165EC05
@  #04 @156   ----------------------------------------
 .byte   PATT
  .word Label_0165EC16
@  #04 @157   ----------------------------------------
 .byte   PATT
  .word Label_0165EBCF
@  #04 @158   ----------------------------------------
 .byte   PATT
  .word Label_0165EB81
@  #04 @159   ----------------------------------------
 .byte   PATT
  .word Label_0165EBE5
@  #04 @160   ----------------------------------------
 .byte   PATT
  .word Label_0165EB2B
@  #04 @161   ----------------------------------------
 .byte   PATT
  .word Label_0165EBCF
@  #04 @162   ----------------------------------------
 .byte   PATT
  .word Label_0165EB81
@  #04 @163   ----------------------------------------
 .byte   PATT
  .word Label_0165EC46
@  #04 @164   ----------------------------------------
 .byte   PATT
  .word Label_0165EC58
@  #04 @165   ----------------------------------------
 .byte   PATT
  .word Label_0165EB2B
@  #04 @166   ----------------------------------------
 .byte   PATT
  .word Label_0165EB2B
@  #04 @167   ----------------------------------------
 .byte   PATT
  .word Label_0165EB43
@  #04 @168   ----------------------------------------
 .byte   PATT
  .word Label_0165EB56
@  #04 @169   ----------------------------------------
 .byte   PATT
  .word Label_0165EB69
@  #04 @170   ----------------------------------------
 .byte   PATT
  .word Label_0165EB69
@  #04 @171   ----------------------------------------
 .byte   PATT
  .word Label_0165EB81
@  #04 @172   ----------------------------------------
 .byte   PATT
  .word Label_0165EB94
@  #04 @173   ----------------------------------------
 .byte   PATT
  .word Label_0165EB2B
@  #04 @174   ----------------------------------------
 .byte   PATT
  .word Label_0165EB2B
@  #04 @175   ----------------------------------------
 .byte   PATT
  .word Label_0165EB43
@  #04 @176   ----------------------------------------
 .byte   PATT
  .word Label_0165EB56
@  #04 @177   ----------------------------------------
 .byte   PATT
  .word Label_0165EB69
@  #04 @178   ----------------------------------------
 .byte   PATT
  .word Label_0165EB69
@  #04 @179   ----------------------------------------
 .byte   PATT
  .word Label_0165EB81
@  #04 @180   ----------------------------------------
 .byte   PATT
  .word Label_0165EB94
@  #04 @181   ----------------------------------------
 .byte   PATT
  .word Label_0165EBCF
@  #04 @182   ----------------------------------------
 .byte   PATT
  .word Label_0165EB81
@  #04 @183   ----------------------------------------
 .byte   PATT
  .word Label_0165EBE5
@  #04 @184   ----------------------------------------
 .byte   PATT
  .word Label_0165EB2B
@  #04 @185   ----------------------------------------
 .byte   PATT
  .word Label_0165EBCF
@  #04 @186   ----------------------------------------
 .byte   PATT
  .word Label_0165EB81
@  #04 @187   ----------------------------------------
 .byte   PATT
  .word Label_0165EC05
@  #04 @188   ----------------------------------------
 .byte   PATT
  .word Label_0165EC16
@  #04 @189   ----------------------------------------
 .byte   PATT
  .word Label_0165EBCF
@  #04 @190   ----------------------------------------
 .byte   PATT
  .word Label_0165EB81
@  #04 @191   ----------------------------------------
 .byte   PATT
  .word Label_0165EBE5
@  #04 @192   ----------------------------------------
 .byte   PATT
  .word Label_0165EB2B
@  #04 @193   ----------------------------------------
 .byte   PATT
  .word Label_0165EBCF
@  #04 @194   ----------------------------------------
 .byte   PATT
  .word Label_0165EB81
@  #04 @195   ----------------------------------------
 .byte   PATT
  .word Label_0165EC46
@  #04 @196   ----------------------------------------
 .byte   PATT
  .word Label_0165EC58
@  #04 @197   ----------------------------------------
 .byte   W96
@  #04 @198   ----------------------------------------
 .byte   W96
@  #04 @199   ----------------------------------------
 .byte   W96
@  #04 @200   ----------------------------------------
 .byte   W96
@  #04 @201   ----------------------------------------
 .byte   W96
@  #04 @202   ----------------------------------------
 .byte   W96
@  #04 @203   ----------------------------------------
 .byte   W96
@  #04 @204   ----------------------------------------
 .byte   W96
@  #04 @205   ----------------------------------------
 .byte   W96
@  #04 @206   ----------------------------------------
 .byte   W96
@  #04 @207   ----------------------------------------
 .byte   W96
@  #04 @208   ----------------------------------------
 .byte   W96
@  #04 @209   ----------------------------------------
 .byte   W96
@  #04 @210   ----------------------------------------
 .byte   W96
@  #04 @211   ----------------------------------------
 .byte   W96
@  #04 @212   ----------------------------------------
 .byte   W96
@  #04 @213   ----------------------------------------
 .byte   W72
 .byte   GOTO
  .word Label_0165E9DA
 .byte   FINE

@**************** Track 5 (Midi-Chn.4) ****************@

song013A_005:
@  #05 @000   ----------------------------------------
 .byte   KEYSH , song013A_key+0
Label_0165FD5A:
 .byte   VOICE , 38
 .byte   VOL , 47*song013A_mvl/mxv
 .byte   PAN , c_v+0
 .byte   VOL , 27*song013A_mvl/mxv
 .byte   PAN , c_v+0
 .byte   W96
@  #05 @001   ----------------------------------------
 .byte   W96
@  #05 @002   ----------------------------------------
 .byte   W96
@  #05 @003   ----------------------------------------
 .byte   W96
@  #05 @004   ----------------------------------------
 .byte   W96
@  #05 @005   ----------------------------------------
 .byte   W96
@  #05 @006   ----------------------------------------
 .byte   W96
@  #05 @007   ----------------------------------------
 .byte   W96
@  #05 @008   ----------------------------------------
 .byte   W96
@  #05 @009   ----------------------------------------
 .byte   W96
@  #05 @010   ----------------------------------------
 .byte   W96
@  #05 @011   ----------------------------------------
 .byte   W96
@  #05 @012   ----------------------------------------
Label_0165FD70:
 .byte   N12 ,Gn1 ,v080
 .byte   N11 ,Gn2
 .byte   W12
 .byte   Gn1
 .byte   W24
 .byte   N11
 .byte   W24
 .byte   N11
 .byte   W24
 .byte   N11
 .byte   W12
 .byte   PEND 
@  #05 @013   ----------------------------------------
Label_0165FD7F:
 .byte   N11 ,An1 ,v080
 .byte   W12
 .byte   As1
 .byte   W12
 .byte   Cn2
 .byte   W12
 .byte   Gn1
 .byte   W12
 .byte   An1
 .byte   W12
 .byte   As1
 .byte   W12
 .byte   An1
 .byte   W12
 .byte   Gn1
 .byte   W12
 .byte   PEND 
@  #05 @014   ----------------------------------------
 .byte   PATT
  .word Label_0165FD70
@  #05 @015   ----------------------------------------
Label_0165FD97:
 .byte   N11 ,As1 ,v080
 .byte   W12
 .byte   N11
 .byte   W12
 .byte   N11
 .byte   W12
 .byte   N11
 .byte   W12
 .byte   Cn2
 .byte   W12
 .byte   N11
 .byte   W12
 .byte   Gs1
 .byte   W12
 .byte   N11
 .byte   W12
 .byte   PEND 
@  #05 @016   ----------------------------------------
 .byte   PATT
  .word Label_0165FD70
@  #05 @017   ----------------------------------------
 .byte   PATT
  .word Label_0165FD7F
@  #05 @018   ----------------------------------------
 .byte   PATT
  .word Label_0165FD70
@  #05 @019   ----------------------------------------
Label_0165FDB9:
 .byte   N11 ,Cs2 ,v080
 .byte   W12
 .byte   N11
 .byte   W12
 .byte   N11
 .byte   W12
 .byte   N11
 .byte   W12
 .byte   Gs1
 .byte   W12
 .byte   N11
 .byte   W12
 .byte   N11
 .byte   W12
 .byte   N11
 .byte   W12
 .byte   PEND 
@  #05 @020   ----------------------------------------
 .byte   PATT
  .word Label_0165FD70
@  #05 @021   ----------------------------------------
 .byte   PATT
  .word Label_0165FD7F
@  #05 @022   ----------------------------------------
 .byte   PATT
  .word Label_0165FD70
@  #05 @023   ----------------------------------------
 .byte   PATT
  .word Label_0165FD97
@  #05 @024   ----------------------------------------
 .byte   PATT
  .word Label_0165FD70
@  #05 @025   ----------------------------------------
 .byte   PATT
  .word Label_0165FD7F
@  #05 @026   ----------------------------------------
 .byte   PATT
  .word Label_0165FD70
@  #05 @027   ----------------------------------------
Label_0165FDEF:
 .byte   N92 ,As1 ,v080
 .byte   N11 ,Cs2
 .byte   W12
 .byte   N11
 .byte   W12
 .byte   N11
 .byte   W12
 .byte   N11
 .byte   W12
 .byte   Gs1
 .byte   W12
 .byte   N11
 .byte   W12
 .byte   N11
 .byte   W12
 .byte   N11
 .byte   W12
 .byte   PEND 
@  #05 @028   ----------------------------------------
 .byte   PATT
  .word Label_0165FD70
@  #05 @029   ----------------------------------------
 .byte   PATT
  .word Label_0165FD7F
@  #05 @030   ----------------------------------------
 .byte   PATT
  .word Label_0165FD70
@  #05 @031   ----------------------------------------
Label_0165FE13:
 .byte   N11 ,As1 ,v080
 .byte   N92 ,Cs2
 .byte   W12
 .byte   N11 ,As1
 .byte   W12
 .byte   N11
 .byte   W12
 .byte   N11
 .byte   W12
 .byte   Cn2
 .byte   W12
 .byte   N11
 .byte   W12
 .byte   Gs1
 .byte   W12
 .byte   N11
 .byte   W12
 .byte   PEND 
@  #05 @032   ----------------------------------------
 .byte   PATT
  .word Label_0165FD70
@  #05 @033   ----------------------------------------
 .byte   PATT
  .word Label_0165FD7F
@  #05 @034   ----------------------------------------
 .byte   PATT
  .word Label_0165FD70
@  #05 @035   ----------------------------------------
 .byte   PATT
  .word Label_0165FDEF
@  #05 @036   ----------------------------------------
 .byte   PATT
  .word Label_0165FD70
@  #05 @037   ----------------------------------------
 .byte   PATT
  .word Label_0165FD7F
@  #05 @038   ----------------------------------------
 .byte   PATT
  .word Label_0165FD70
@  #05 @039   ----------------------------------------
 .byte   PATT
  .word Label_0165FE13
@  #05 @040   ----------------------------------------
Label_0165FE51:
 .byte   N44 ,Gn1 ,v080
 .byte   W48
 .byte   Fs1
 .byte   W48
 .byte   PEND 
@  #05 @041   ----------------------------------------
Label_0165FE58:
 .byte   W24
 .byte   N11 ,Fs1 ,v080
 .byte   W36
 .byte   N11
 .byte   W36
 .byte   PEND 
@  #05 @042   ----------------------------------------
Label_0165FE60:
 .byte   N11 ,Fs1 ,v080
 .byte   W36
 .byte   N11
 .byte   W24
 .byte   N11
 .byte   W12
 .byte   N11
 .byte   W12
 .byte   N11
 .byte   W12
 .byte   PEND 
@  #05 @043   ----------------------------------------
 .byte   PATT
  .word Label_0165FE51
@  #05 @044   ----------------------------------------
 .byte   PATT
  .word Label_0165FE58
@  #05 @045   ----------------------------------------
Label_0165FE77:
 .byte   N11 ,Fs1 ,v080
 .byte   W36
 .byte   N11
 .byte   W24
 .byte   Cs2
 .byte   W12
 .byte   As1
 .byte   W12
 .byte   Fs1
 .byte   W12
 .byte   PEND 
@  #05 @046   ----------------------------------------
 .byte   PATT
  .word Label_0165FE51
@  #05 @047   ----------------------------------------
 .byte   PATT
  .word Label_0165FE58
@  #05 @048   ----------------------------------------
 .byte   PATT
  .word Label_0165FE60
@  #05 @049   ----------------------------------------
 .byte   PATT
  .word Label_0165FE51
@  #05 @050   ----------------------------------------
 .byte   PATT
  .word Label_0165FE58
@  #05 @051   ----------------------------------------
 .byte   PATT
  .word Label_0165FE77
@  #05 @052   ----------------------------------------
Label_0165FEA2:
 .byte   N11 ,Ds2 ,v080
 .byte   W12
 .byte   N11
 .byte   W12
 .byte   N11
 .byte   W12
 .byte   N11
 .byte   W12
 .byte   Fn2
 .byte   W12
 .byte   N11
 .byte   W12
 .byte   N11
 .byte   W12
 .byte   N11
 .byte   W12
 .byte   PEND 
@  #05 @053   ----------------------------------------
Label_0165FEB5:
 .byte   TIE ,Gn1 ,v080
 .byte   N11 ,Gn2
 .byte   W12
 .byte   N11
 .byte   W12
 .byte   N11
 .byte   W12
 .byte   N11
 .byte   W12
 .byte   N11
 .byte   W12
 .byte   N11
 .byte   W12
 .byte   N11
 .byte   W12
 .byte   N11
 .byte   W12
 .byte   PEND 
@  #05 @054   ----------------------------------------
Label_0165FECA:
 .byte   N11 ,Gn2 ,v080
 .byte   W12
 .byte   N11
 .byte   W12
 .byte   N11
 .byte   W12
 .byte   N11
 .byte   W12
 .byte   N11
 .byte   W12
 .byte   N11
 .byte   W12
 .byte   N11
 .byte   W12
 .byte   N11
 .byte   W11
 .byte   PEND 
 .byte   EOT
 .byte   Gn1
 .byte   W01
@  #05 @055   ----------------------------------------
Label_0165FEE0:
 .byte   TIE ,Ds1 ,v080
 .byte   N11 ,Ds2
 .byte   W12
 .byte   N11
 .byte   W12
 .byte   N11
 .byte   W12
 .byte   N11
 .byte   W12
 .byte   N11
 .byte   W12
 .byte   N11
 .byte   W12
 .byte   N11
 .byte   W12
 .byte   N11
 .byte   W12
 .byte   PEND 
@  #05 @056   ----------------------------------------
Label_0165FEF5:
 .byte   N11 ,Ds2 ,v080
 .byte   W12
 .byte   N11
 .byte   W12
 .byte   N11
 .byte   W12
 .byte   N11
 .byte   W11
 .byte   PEND 
 .byte   EOT
 .byte   Ds1
 .byte   W01
 .byte   N44 ,Dn1
 .byte   N11 ,Dn2
 .byte   W12
 .byte   N11
 .byte   W12
 .byte   N11
 .byte   W12
 .byte   N11
 .byte   W12
@  #05 @057   ----------------------------------------
Label_0165FF0E:
 .byte   TIE ,Cn1 ,v080
 .byte   N11 ,Cn2
 .byte   W12
 .byte   N11
 .byte   W12
 .byte   N11
 .byte   W12
 .byte   N11
 .byte   W12
 .byte   N11
 .byte   W12
 .byte   N11
 .byte   W12
 .byte   N11
 .byte   W12
 .byte   N11
 .byte   W12
 .byte   PEND 
@  #05 @058   ----------------------------------------
Label_0165FF23:
 .byte   N11 ,Cn2 ,v080
 .byte   W12
 .byte   N11
 .byte   W12
 .byte   N11
 .byte   W12
 .byte   N11
 .byte   W12
 .byte   N11
 .byte   W12
 .byte   N11
 .byte   W12
 .byte   N11
 .byte   W12
 .byte   N11
 .byte   W11
 .byte   PEND 
 .byte   EOT
 .byte   Cn1
 .byte   W01
@  #05 @059   ----------------------------------------
Label_0165FF39:
 .byte   N92 ,Fn1 ,v080
 .byte   N11 ,Fn2
 .byte   W12
 .byte   N11
 .byte   W12
 .byte   N11
 .byte   W12
 .byte   N11
 .byte   W12
 .byte   N11
 .byte   W12
 .byte   N11
 .byte   W12
 .byte   N11
 .byte   W12
 .byte   N11
 .byte   W12
 .byte   PEND 
@  #05 @060   ----------------------------------------
Label_0165FF4E:
 .byte   N92 ,Dn1 ,v080
 .byte   N11 ,Dn2
 .byte   W12
 .byte   N11
 .byte   W12
 .byte   N11
 .byte   W12
 .byte   N11
 .byte   W12
 .byte   N11
 .byte   W12
 .byte   N11
 .byte   W12
 .byte   N11
 .byte   W12
 .byte   N11
 .byte   W12
 .byte   PEND 
@  #05 @061   ----------------------------------------
 .byte   PATT
  .word Label_0165FEB5
@  #05 @062   ----------------------------------------
 .byte   PATT
  .word Label_0165FECA
@  #05 @063   ----------------------------------------
 .byte   EOT
 .byte   Gn1
 .byte   W01
@  #05 @064   ----------------------------------------
 .byte   PATT
  .word Label_0165FEE0
@  #05 @065   ----------------------------------------
 .byte   PATT
  .word Label_0165FEF5
@  #05 @066   ----------------------------------------
 .byte   EOT
 .byte   Ds1
 .byte   W01
 .byte   N44 ,Dn1 ,v080
 .byte   N11 ,Dn2
 .byte   W12
 .byte   N11
 .byte   W12
 .byte   N11
 .byte   W12
 .byte   N11
 .byte   W12
@  #05 @067   ----------------------------------------
 .byte   PATT
  .word Label_0165FF0E
@  #05 @068   ----------------------------------------
 .byte   PATT
  .word Label_0165FF23
@  #05 @069   ----------------------------------------
 .byte   EOT
 .byte   Cn1
 .byte   W01
@  #05 @070   ----------------------------------------
 .byte   PATT
  .word Label_0165FF39
@  #05 @071   ----------------------------------------
 .byte   PATT
  .word Label_0165FF4E
@  #05 @072   ----------------------------------------
Label_0165FFA0:
 .byte   N92 ,Ds1 ,v080
 .byte   N23 ,Ds2
 .byte   W24
 .byte   N11
 .byte   W12
 .byte   N11
 .byte   W12
 .byte   N11
 .byte   W12
 .byte   N11
 .byte   W12
 .byte   N11
 .byte   W12
 .byte   N11
 .byte   W12
 .byte   PEND 
@  #05 @073   ----------------------------------------
 .byte   PATT
  .word Label_0165FF39
@  #05 @074   ----------------------------------------
Label_0165FFB8:
 .byte   TIE ,Gn1 ,v080
 .byte   N23 ,Gn2
 .byte   W24
 .byte   N11
 .byte   W12
 .byte   N11
 .byte   W12
 .byte   N11
 .byte   W12
 .byte   N11
 .byte   W12
 .byte   N11
 .byte   W12
 .byte   N11
 .byte   W12
 .byte   PEND 
@  #05 @075   ----------------------------------------
 .byte   PATT
  .word Label_0165FECA
@  #05 @076   ----------------------------------------
 .byte   EOT
 .byte   Gn1
 .byte   W01
@  #05 @077   ----------------------------------------
 .byte   PATT
  .word Label_0165FFA0
@  #05 @078   ----------------------------------------
 .byte   PATT
  .word Label_0165FF39
@  #05 @079   ----------------------------------------
Label_0165FFDD:
 .byte   TIE ,Gn1 ,v080
 .byte   N23 ,Gn2
 .byte   W24
 .byte   N11
 .byte   W12
 .byte   N11
 .byte   W12
 .byte   N11
 .byte   W12
 .byte   N11
 .byte   W12
 .byte   N11
 .byte   W12
 .byte   N23
 .byte   W12
 .byte   PEND 
@  #05 @080   ----------------------------------------
Label_0165FFF0:
 .byte   W12
 .byte   N11 ,Gn2 ,v080
 .byte   W12
 .byte   N11
 .byte   W12
 .byte   N11
 .byte   W12
 .byte   N11
 .byte   W12
 .byte   N11
 .byte   W12
 .byte   N11
 .byte   W12
 .byte   N11
 .byte   W11
 .byte   PEND 
 .byte   EOT
 .byte   Gn1
 .byte   W01
@  #05 @081   ----------------------------------------
 .byte   PATT
  .word Label_0165FFA0
@  #05 @082   ----------------------------------------
 .byte   PATT
  .word Label_0165FF39
@  #05 @083   ----------------------------------------
 .byte   PATT
  .word Label_0165FFB8
@  #05 @084   ----------------------------------------
 .byte   PATT
  .word Label_0165FECA
@  #05 @085   ----------------------------------------
 .byte   EOT
 .byte   Gn1
 .byte   W01
@  #05 @086   ----------------------------------------
 .byte   PATT
  .word Label_0165FFA0
@  #05 @087   ----------------------------------------
 .byte   PATT
  .word Label_0165FF39
@  #05 @088   ----------------------------------------
Label_01660026:
 .byte   N23 ,Gn1 ,v080
 .byte   N23 ,Gn2
 .byte   W72
 .byte   N11 ,Gn1
 .byte   N11 ,Gn2
 .byte   W12
 .byte   N23 ,Gn1
 .byte   N23 ,Gn2
 .byte   W12
 .byte   PEND 
@  #05 @089   ----------------------------------------
Label_01660037:
 .byte   W12
 .byte   N11 ,Gn1 ,v080
 .byte   N11 ,Gn2
 .byte   W12
 .byte   Gn1
 .byte   N11 ,Gn2
 .byte   W12
 .byte   Gn1
 .byte   N11 ,Gn2
 .byte   W12
 .byte   Gn1
 .byte   N11 ,Gn2
 .byte   W12
 .byte   Gn1
 .byte   N11 ,Gn2
 .byte   W12
 .byte   Gn1
 .byte   N11 ,Gn2
 .byte   W12
 .byte   Gn1
 .byte   N11 ,Gn2
 .byte   W12
 .byte   PEND 
@  #05 @090   ----------------------------------------
Label_01660057:
 .byte   N23 ,Ds2 ,v080
 .byte   W24
 .byte   N23
 .byte   W36
 .byte   N23
 .byte   W24
 .byte   N11
 .byte   W12
 .byte   PEND 
@  #05 @091   ----------------------------------------
Label_01660062:
 .byte   N23 ,Fn2 ,v080
 .byte   W24
 .byte   N23
 .byte   W36
 .byte   N23
 .byte   W24
 .byte   N11
 .byte   W12
 .byte   PEND 
@  #05 @092   ----------------------------------------
Label_0166006D:
 .byte   N23 ,Gn2 ,v080
 .byte   W24
 .byte   N11
 .byte   W12
 .byte   N11
 .byte   W12
 .byte   N11
 .byte   W12
 .byte   N11
 .byte   W12
 .byte   N11
 .byte   W12
 .byte   N23 ,Fs2
 .byte   W12
 .byte   PEND 
@  #05 @093   ----------------------------------------
Label_0166007F:
 .byte   W12
 .byte   N11 ,Fs2 ,v080
 .byte   W12
 .byte   N11
 .byte   W12
 .byte   N11
 .byte   W12
 .byte   N11
 .byte   W12
 .byte   N11
 .byte   W12
 .byte   N11
 .byte   W12
 .byte   N11
 .byte   W12
 .byte   PEND 
@  #05 @094   ----------------------------------------
 .byte   PATT
  .word Label_01660057
@  #05 @095   ----------------------------------------
 .byte   PATT
  .word Label_01660062
@  #05 @096   ----------------------------------------
 .byte   PATT
  .word Label_0166006D
@  #05 @097   ----------------------------------------
 .byte   PATT
  .word Label_0166007F
@  #05 @098   ----------------------------------------
Label_016600A5:
 .byte   N11 ,Ds2 ,v080
 .byte   W12
 .byte   N11
 .byte   W12
 .byte   N11
 .byte   W12
 .byte   N11
 .byte   W12
 .byte   N11
 .byte   W12
 .byte   N11
 .byte   W12
 .byte   N11
 .byte   W12
 .byte   N11
 .byte   W12
 .byte   PEND 
@  #05 @099   ----------------------------------------
Label_016600B8:
 .byte   N11 ,Fn2 ,v080
 .byte   W12
 .byte   N11
 .byte   W12
 .byte   N11
 .byte   W12
 .byte   N11
 .byte   W12
 .byte   N11
 .byte   W12
 .byte   N11
 .byte   W12
 .byte   N11
 .byte   W12
 .byte   N11
 .byte   W12
 .byte   PEND 
@  #05 @100   ----------------------------------------
Label_016600CB:
 .byte   N11 ,Gn2 ,v080
 .byte   W12
 .byte   N11
 .byte   W12
 .byte   N11
 .byte   W12
 .byte   N11
 .byte   W12
 .byte   N11
 .byte   W12
 .byte   N11
 .byte   W12
 .byte   N11
 .byte   W12
 .byte   N11
 .byte   W12
 .byte   PEND 
@  #05 @101   ----------------------------------------
 .byte   Fs2
 .byte   W12
 .byte   N11
 .byte   W12
 .byte   N11
 .byte   W12
 .byte   N11
 .byte   W12
 .byte   N11
 .byte   W12
 .byte   N11
 .byte   W12
 .byte   N11
 .byte   W12
 .byte   N11
 .byte   W12
@  #05 @102   ----------------------------------------
 .byte   N44 ,En2
 .byte   W48
 .byte   N44
 .byte   W48
@  #05 @103   ----------------------------------------
 .byte   N23 ,Fn2
 .byte   W24
 .byte   N11
 .byte   W12
 .byte   N05
 .byte   W06
 .byte   N05
 .byte   W06
 .byte   N11
 .byte   W12
 .byte   N11
 .byte   W12
 .byte   N11
 .byte   W12
 .byte   N11
 .byte   W12
@  #05 @104   ----------------------------------------
 .byte   N23 ,Gn2
 .byte   W24
 .byte   N11 ,Fn2
 .byte   W12
 .byte   N23 ,Gn2
 .byte   W24
 .byte   Fn2
 .byte   W24
 .byte   TIE ,Gn2
 .byte   W12
@  #05 @105   ----------------------------------------
 .byte   W92
 .byte   W03
 .byte   EOT
 .byte   W01
@  #05 @106   ----------------------------------------
 .byte   W96
@  #05 @107   ----------------------------------------
 .byte   W96
@  #05 @108   ----------------------------------------
 .byte   W96
@  #05 @109   ----------------------------------------
 .byte   W96
@  #05 @110   ----------------------------------------
 .byte   W96
@  #05 @111   ----------------------------------------
 .byte   W96
@  #05 @112   ----------------------------------------
 .byte   W96
@  #05 @113   ----------------------------------------
 .byte   W96
@  #05 @114   ----------------------------------------
 .byte   PATT
  .word Label_0165FD70
@  #05 @115   ----------------------------------------
 .byte   PATT
  .word Label_0165FD7F
@  #05 @116   ----------------------------------------
 .byte   PATT
  .word Label_0165FD70
@  #05 @117   ----------------------------------------
 .byte   PATT
  .word Label_0165FD97
@  #05 @118   ----------------------------------------
 .byte   PATT
  .word Label_0165FD70
@  #05 @119   ----------------------------------------
 .byte   PATT
  .word Label_0165FD7F
@  #05 @120   ----------------------------------------
 .byte   PATT
  .word Label_0165FD70
@  #05 @121   ----------------------------------------
 .byte   PATT
  .word Label_0165FDB9
@  #05 @122   ----------------------------------------
 .byte   PATT
  .word Label_0165FD70
@  #05 @123   ----------------------------------------
 .byte   PATT
  .word Label_0165FD7F
@  #05 @124   ----------------------------------------
 .byte   PATT
  .word Label_0165FD70
@  #05 @125   ----------------------------------------
 .byte   PATT
  .word Label_0165FDEF
@  #05 @126   ----------------------------------------
 .byte   PATT
  .word Label_0165FD70
@  #05 @127   ----------------------------------------
 .byte   PATT
  .word Label_0165FD7F
@  #05 @128   ----------------------------------------
 .byte   PATT
  .word Label_0165FD70
@  #05 @129   ----------------------------------------
 .byte   PATT
  .word Label_0165FE13
@  #05 @130   ----------------------------------------
 .byte   PATT
  .word Label_0165FD70
@  #05 @131   ----------------------------------------
 .byte   PATT
  .word Label_0165FD7F
@  #05 @132   ----------------------------------------
 .byte   PATT
  .word Label_0165FD70
@  #05 @133   ----------------------------------------
 .byte   PATT
  .word Label_0165FDEF
@  #05 @134   ----------------------------------------
 .byte   PATT
  .word Label_0165FD70
@  #05 @135   ----------------------------------------
 .byte   PATT
  .word Label_0165FD7F
@  #05 @136   ----------------------------------------
 .byte   PATT
  .word Label_0165FD70
@  #05 @137   ----------------------------------------
 .byte   PATT
  .word Label_0165FEA2
@  #05 @138   ----------------------------------------
 .byte   PATT
  .word Label_0165FEB5
@  #05 @139   ----------------------------------------
 .byte   PATT
  .word Label_0165FECA
@  #05 @140   ----------------------------------------
 .byte   EOT
 .byte   Gn1
 .byte   W01
@  #05 @141   ----------------------------------------
 .byte   PATT
  .word Label_0165FEE0
@  #05 @142   ----------------------------------------
 .byte   PATT
  .word Label_0165FEF5
@  #05 @143   ----------------------------------------
 .byte   EOT
 .byte   Ds1
 .byte   W01
 .byte   N44 ,Dn1 ,v080
 .byte   N11 ,Dn2
 .byte   W12
 .byte   N11
 .byte   W12
 .byte   N11
 .byte   W12
 .byte   N11
 .byte   W12
@  #05 @144   ----------------------------------------
 .byte   PATT
  .word Label_0165FF0E
@  #05 @145   ----------------------------------------
 .byte   PATT
  .word Label_0165FF23
@  #05 @146   ----------------------------------------
 .byte   EOT
 .byte   Cn1
 .byte   W01
@  #05 @147   ----------------------------------------
 .byte   PATT
  .word Label_0165FF39
@  #05 @148   ----------------------------------------
 .byte   PATT
  .word Label_0165FF4E
@  #05 @149   ----------------------------------------
 .byte   PATT
  .word Label_0165FEB5
@  #05 @150   ----------------------------------------
 .byte   PATT
  .word Label_0165FECA
@  #05 @151   ----------------------------------------
 .byte   EOT
 .byte   Gn1
 .byte   W01
@  #05 @152   ----------------------------------------
 .byte   PATT
  .word Label_0165FEE0
@  #05 @153   ----------------------------------------
 .byte   PATT
  .word Label_0165FEF5
@  #05 @154   ----------------------------------------
 .byte   EOT
 .byte   Ds1
 .byte   W01
 .byte   N44 ,Dn1 ,v080
 .byte   N11 ,Dn2
 .byte   W12
 .byte   N11
 .byte   W12
 .byte   N11
 .byte   W12
 .byte   N11
 .byte   W12
@  #05 @155   ----------------------------------------
 .byte   PATT
  .word Label_0165FF0E
@  #05 @156   ----------------------------------------
 .byte   PATT
  .word Label_0165FF23
@  #05 @157   ----------------------------------------
 .byte   EOT
 .byte   Cn1
 .byte   W01
@  #05 @158   ----------------------------------------
 .byte   PATT
  .word Label_0165FF39
@  #05 @159   ----------------------------------------
 .byte   PATT
  .word Label_0165FF4E
@  #05 @160   ----------------------------------------
 .byte   PATT
  .word Label_0165FFA0
@  #05 @161   ----------------------------------------
 .byte   PATT
  .word Label_0165FF39
@  #05 @162   ----------------------------------------
 .byte   PATT
  .word Label_0165FFB8
@  #05 @163   ----------------------------------------
 .byte   PATT
  .word Label_0165FECA
@  #05 @164   ----------------------------------------
 .byte   EOT
 .byte   Gn1
 .byte   W01
@  #05 @165   ----------------------------------------
 .byte   PATT
  .word Label_0165FFA0
@  #05 @166   ----------------------------------------
 .byte   PATT
  .word Label_0165FF39
@  #05 @167   ----------------------------------------
 .byte   PATT
  .word Label_0165FFDD
@  #05 @168   ----------------------------------------
 .byte   PATT
  .word Label_0165FFF0
@  #05 @169   ----------------------------------------
 .byte   EOT
 .byte   Gn1
 .byte   W01
@  #05 @170   ----------------------------------------
 .byte   PATT
  .word Label_0165FFA0
@  #05 @171   ----------------------------------------
 .byte   PATT
  .word Label_0165FF39
@  #05 @172   ----------------------------------------
 .byte   PATT
  .word Label_0165FFB8
@  #05 @173   ----------------------------------------
 .byte   PATT
  .word Label_0165FECA
@  #05 @174   ----------------------------------------
 .byte   EOT
 .byte   Gn1
 .byte   W01
@  #05 @175   ----------------------------------------
 .byte   PATT
  .word Label_0165FFA0
@  #05 @176   ----------------------------------------
 .byte   PATT
  .word Label_0165FF39
@  #05 @177   ----------------------------------------
 .byte   PATT
  .word Label_01660026
@  #05 @178   ----------------------------------------
 .byte   PATT
  .word Label_01660037
@  #05 @179   ----------------------------------------
 .byte   PATT
  .word Label_016600CB
@  #05 @180   ----------------------------------------
 .byte   PATT
  .word Label_016600CB
@  #05 @181   ----------------------------------------
 .byte   PATT
  .word Label_016600A5
@  #05 @182   ----------------------------------------
Label_01660278:
 .byte   N11 ,Ds2 ,v080
 .byte   W12
 .byte   N11
 .byte   W12
 .byte   N11
 .byte   W12
 .byte   N11
 .byte   W12
 .byte   Dn2
 .byte   W12
 .byte   N11
 .byte   W12
 .byte   N11
 .byte   W12
 .byte   N11
 .byte   W12
 .byte   PEND 
@  #05 @183   ----------------------------------------
Label_0166028B:
 .byte   N11 ,Cn2 ,v080
 .byte   W12
 .byte   N11
 .byte   W12
 .byte   N11
 .byte   W12
 .byte   N11
 .byte   W12
 .byte   N11
 .byte   W12
 .byte   N11
 .byte   W12
 .byte   N11
 .byte   W12
 .byte   N11
 .byte   W12
 .byte   PEND 
@  #05 @184   ----------------------------------------
 .byte   PATT
  .word Label_0166028B
@  #05 @185   ----------------------------------------
 .byte   PATT
  .word Label_016600B8
@  #05 @186   ----------------------------------------
Label_016602A8:
 .byte   N11 ,Dn2 ,v080
 .byte   W12
 .byte   N11
 .byte   W12
 .byte   N11
 .byte   W12
 .byte   N11
 .byte   W12
 .byte   N11
 .byte   W12
 .byte   N11
 .byte   W12
 .byte   N11
 .byte   W12
 .byte   N11
 .byte   W12
 .byte   PEND 
@  #05 @187   ----------------------------------------
 .byte   PATT
  .word Label_016600CB
@  #05 @188   ----------------------------------------
 .byte   PATT
  .word Label_016600CB
@  #05 @189   ----------------------------------------
 .byte   PATT
  .word Label_016600A5
@  #05 @190   ----------------------------------------
 .byte   PATT
  .word Label_01660278
@  #05 @191   ----------------------------------------
 .byte   PATT
  .word Label_0166028B
@  #05 @192   ----------------------------------------
 .byte   PATT
  .word Label_0166028B
@  #05 @193   ----------------------------------------
 .byte   PATT
  .word Label_016600B8
@  #05 @194   ----------------------------------------
 .byte   PATT
  .word Label_016602A8
@  #05 @195   ----------------------------------------
 .byte   PATT
  .word Label_0165FFA0
@  #05 @196   ----------------------------------------
 .byte   PATT
  .word Label_0165FF39
@  #05 @197   ----------------------------------------
 .byte   PATT
  .word Label_0165FFB8
@  #05 @198   ----------------------------------------
 .byte   PATT
  .word Label_0165FECA
@  #05 @199   ----------------------------------------
 .byte   EOT
 .byte   Gn1
 .byte   W01
@  #05 @200   ----------------------------------------
 .byte   PATT
  .word Label_0165FFA0
@  #05 @201   ----------------------------------------
 .byte   PATT
  .word Label_0165FF39
@  #05 @202   ----------------------------------------
 .byte   PATT
  .word Label_0165FFDD
@  #05 @203   ----------------------------------------
 .byte   PATT
  .word Label_0165FFF0
@  #05 @204   ----------------------------------------
 .byte   EOT
 .byte   Gn1
 .byte   W01
@  #05 @205   ----------------------------------------
 .byte   PATT
  .word Label_0165FFA0
@  #05 @206   ----------------------------------------
 .byte   PATT
  .word Label_0165FF39
@  #05 @207   ----------------------------------------
 .byte   PATT
  .word Label_0165FFB8
@  #05 @208   ----------------------------------------
 .byte   PATT
  .word Label_0165FECA
@  #05 @209   ----------------------------------------
 .byte   EOT
 .byte   Gn1
 .byte   W01
@  #05 @210   ----------------------------------------
 .byte   PATT
  .word Label_0165FFA0
@  #05 @211   ----------------------------------------
 .byte   PATT
  .word Label_0165FF39
@  #05 @212   ----------------------------------------
 .byte   PATT
  .word Label_01660026
@  #05 @213   ----------------------------------------
 .byte   PATT
  .word Label_01660037
@  #05 @214   ----------------------------------------
 .byte   W96
@  #05 @215   ----------------------------------------
 .byte   W96
@  #05 @216   ----------------------------------------
 .byte   W96
@  #05 @217   ----------------------------------------
 .byte   W96
@  #05 @218   ----------------------------------------
 .byte   W96
@  #05 @219   ----------------------------------------
 .byte   W96
@  #05 @220   ----------------------------------------
 .byte   W96
@  #05 @221   ----------------------------------------
 .byte   W96
@  #05 @222   ----------------------------------------
 .byte   W96
@  #05 @223   ----------------------------------------
 .byte   W96
@  #05 @224   ----------------------------------------
 .byte   W96
@  #05 @225   ----------------------------------------
 .byte   W96
@  #05 @226   ----------------------------------------
 .byte   W96
@  #05 @227   ----------------------------------------
 .byte   W96
@  #05 @228   ----------------------------------------
 .byte   W96
@  #05 @229   ----------------------------------------
 .byte   W96
@  #05 @230   ----------------------------------------
 .byte   W72
 .byte   GOTO
  .word Label_0165FD5A
 .byte   FINE

@**************** Track 6 (Midi-Chn.5) ****************@

song013A_006:
@  #06 @000   ----------------------------------------
 .byte   KEYSH , song013A_key+0
Label_0165FA8E:
 .byte   VOICE , 28
 .byte   VOL , 47*song013A_mvl/mxv
 .byte   PAN , c_v+0
 .byte   VOL , 47*song013A_mvl/mxv
 .byte   PAN , c_v+0
 .byte   W96
@  #06 @001   ----------------------------------------
 .byte   W96
@  #06 @002   ----------------------------------------
 .byte   W96
@  #06 @003   ----------------------------------------
 .byte   W96
@  #06 @004   ----------------------------------------
 .byte   W96
@  #06 @005   ----------------------------------------
 .byte   W96
@  #06 @006   ----------------------------------------
 .byte   W96
@  #06 @007   ----------------------------------------
 .byte   N92 ,Gn3 ,v080
 .byte   W96
@  #06 @008   ----------------------------------------
 .byte   W96
@  #06 @009   ----------------------------------------
 .byte   W96
@  #06 @010   ----------------------------------------
 .byte   W96
@  #06 @011   ----------------------------------------
 .byte   W96
@  #06 @012   ----------------------------------------
 .byte   W96
@  #06 @013   ----------------------------------------
 .byte   W96
@  #06 @014   ----------------------------------------
 .byte   W96
@  #06 @015   ----------------------------------------
 .byte   W96
@  #06 @016   ----------------------------------------
 .byte   W96
@  #06 @017   ----------------------------------------
 .byte   W96
@  #06 @018   ----------------------------------------
 .byte   W96
@  #06 @019   ----------------------------------------
 .byte   W96
@  #06 @020   ----------------------------------------
 .byte   W96
@  #06 @021   ----------------------------------------
 .byte   W96
@  #06 @022   ----------------------------------------
 .byte   W96
@  #06 @023   ----------------------------------------
 .byte   W96
@  #06 @024   ----------------------------------------
 .byte   W96
@  #06 @025   ----------------------------------------
 .byte   W96
@  #06 @026   ----------------------------------------
 .byte   W96
@  #06 @027   ----------------------------------------
 .byte   W96
@  #06 @028   ----------------------------------------
 .byte   W96
@  #06 @029   ----------------------------------------
 .byte   W96
@  #06 @030   ----------------------------------------
 .byte   W96
@  #06 @031   ----------------------------------------
 .byte   W96
@  #06 @032   ----------------------------------------
 .byte   W96
@  #06 @033   ----------------------------------------
 .byte   W96
@  #06 @034   ----------------------------------------
 .byte   W96
@  #06 @035   ----------------------------------------
 .byte   W96
@  #06 @036   ----------------------------------------
 .byte   W96
@  #06 @037   ----------------------------------------
 .byte   W96
@  #06 @038   ----------------------------------------
 .byte   W96
@  #06 @039   ----------------------------------------
 .byte   W96
@  #06 @040   ----------------------------------------
 .byte   W96
@  #06 @041   ----------------------------------------
 .byte   W96
@  #06 @042   ----------------------------------------
 .byte   W96
@  #06 @043   ----------------------------------------
 .byte   W96
@  #06 @044   ----------------------------------------
 .byte   W96
@  #06 @045   ----------------------------------------
 .byte   W96
@  #06 @046   ----------------------------------------
 .byte   W96
@  #06 @047   ----------------------------------------
 .byte   W96
@  #06 @048   ----------------------------------------
 .byte   W96
@  #06 @049   ----------------------------------------
 .byte   W96
@  #06 @050   ----------------------------------------
 .byte   W96
@  #06 @051   ----------------------------------------
 .byte   W96
@  #06 @052   ----------------------------------------
 .byte   W96
@  #06 @053   ----------------------------------------
 .byte   W96
@  #06 @054   ----------------------------------------
 .byte   W96
@  #06 @055   ----------------------------------------
 .byte   W96
@  #06 @056   ----------------------------------------
 .byte   W96
@  #06 @057   ----------------------------------------
 .byte   W96
@  #06 @058   ----------------------------------------
 .byte   W96
@  #06 @059   ----------------------------------------
 .byte   W96
@  #06 @060   ----------------------------------------
 .byte   W96
@  #06 @061   ----------------------------------------
 .byte   W96
@  #06 @062   ----------------------------------------
 .byte   W96
@  #06 @063   ----------------------------------------
 .byte   W96
@  #06 @064   ----------------------------------------
 .byte   W96
@  #06 @065   ----------------------------------------
 .byte   W96
@  #06 @066   ----------------------------------------
 .byte   W96
@  #06 @067   ----------------------------------------
 .byte   W96
@  #06 @068   ----------------------------------------
 .byte   W96
@  #06 @069   ----------------------------------------
 .byte   W96
@  #06 @070   ----------------------------------------
 .byte   W96
@  #06 @071   ----------------------------------------
 .byte   W96
@  #06 @072   ----------------------------------------
 .byte   W96
@  #06 @073   ----------------------------------------
 .byte   W96
@  #06 @074   ----------------------------------------
 .byte   W96
@  #06 @075   ----------------------------------------
 .byte   W96
@  #06 @076   ----------------------------------------
 .byte   W96
@  #06 @077   ----------------------------------------
 .byte   W96
@  #06 @078   ----------------------------------------
 .byte   W96
@  #06 @079   ----------------------------------------
 .byte   W96
@  #06 @080   ----------------------------------------
 .byte   W96
@  #06 @081   ----------------------------------------
 .byte   W96
@  #06 @082   ----------------------------------------
 .byte   W96
@  #06 @083   ----------------------------------------
 .byte   W96
@  #06 @084   ----------------------------------------
 .byte   W96
@  #06 @085   ----------------------------------------
 .byte   W96
@  #06 @086   ----------------------------------------
 .byte   W96
@  #06 @087   ----------------------------------------
 .byte   W96
@  #06 @088   ----------------------------------------
 .byte   W96
@  #06 @089   ----------------------------------------
 .byte   W96
@  #06 @090   ----------------------------------------
 .byte   W96
@  #06 @091   ----------------------------------------
 .byte   W96
@  #06 @092   ----------------------------------------
 .byte   W96
@  #06 @093   ----------------------------------------
 .byte   W96
@  #06 @094   ----------------------------------------
 .byte   W96
@  #06 @095   ----------------------------------------
 .byte   W96
@  #06 @096   ----------------------------------------
 .byte   W96
@  #06 @097   ----------------------------------------
 .byte   W96
@  #06 @098   ----------------------------------------
 .byte   W96
@  #06 @099   ----------------------------------------
 .byte   W96
@  #06 @100   ----------------------------------------
 .byte   W96
@  #06 @101   ----------------------------------------
 .byte   W96
@  #06 @102   ----------------------------------------
 .byte   W96
@  #06 @103   ----------------------------------------
 .byte   W96
@  #06 @104   ----------------------------------------
 .byte   W96
@  #06 @105   ----------------------------------------
 .byte   W96
@  #06 @106   ----------------------------------------
 .byte   W96
@  #06 @107   ----------------------------------------
 .byte   W96
@  #06 @108   ----------------------------------------
 .byte   N92
 .byte   W96
@  #06 @109   ----------------------------------------
 .byte   W96
@  #06 @110   ----------------------------------------
 .byte   W96
@  #06 @111   ----------------------------------------
 .byte   W96
@  #06 @112   ----------------------------------------
 .byte   W96
@  #06 @113   ----------------------------------------
 .byte   W96
@  #06 @114   ----------------------------------------
 .byte   W96
@  #06 @115   ----------------------------------------
 .byte   W96
@  #06 @116   ----------------------------------------
 .byte   W96
@  #06 @117   ----------------------------------------
 .byte   W96
@  #06 @118   ----------------------------------------
 .byte   W96
@  #06 @119   ----------------------------------------
 .byte   W96
@  #06 @120   ----------------------------------------
 .byte   W96
@  #06 @121   ----------------------------------------
 .byte   W96
@  #06 @122   ----------------------------------------
 .byte   W96
@  #06 @123   ----------------------------------------
 .byte   W96
@  #06 @124   ----------------------------------------
 .byte   W96
@  #06 @125   ----------------------------------------
 .byte   W96
@  #06 @126   ----------------------------------------
 .byte   W96
@  #06 @127   ----------------------------------------
 .byte   W96
@  #06 @128   ----------------------------------------
 .byte   W96
@  #06 @129   ----------------------------------------
 .byte   W96
@  #06 @130   ----------------------------------------
 .byte   W96
@  #06 @131   ----------------------------------------
 .byte   W96
@  #06 @132   ----------------------------------------
 .byte   W96
@  #06 @133   ----------------------------------------
 .byte   W96
@  #06 @134   ----------------------------------------
 .byte   W96
@  #06 @135   ----------------------------------------
 .byte   W96
@  #06 @136   ----------------------------------------
 .byte   W96
@  #06 @137   ----------------------------------------
 .byte   W96
@  #06 @138   ----------------------------------------
 .byte   W96
@  #06 @139   ----------------------------------------
 .byte   W96
@  #06 @140   ----------------------------------------
 .byte   W96
@  #06 @141   ----------------------------------------
 .byte   W96
@  #06 @142   ----------------------------------------
 .byte   W96
@  #06 @143   ----------------------------------------
 .byte   W96
@  #06 @144   ----------------------------------------
 .byte   W96
@  #06 @145   ----------------------------------------
 .byte   W96
@  #06 @146   ----------------------------------------
 .byte   W96
@  #06 @147   ----------------------------------------
 .byte   W96
@  #06 @148   ----------------------------------------
 .byte   W96
@  #06 @149   ----------------------------------------
 .byte   W96
@  #06 @150   ----------------------------------------
 .byte   W96
@  #06 @151   ----------------------------------------
 .byte   W96
@  #06 @152   ----------------------------------------
 .byte   W96
@  #06 @153   ----------------------------------------
 .byte   W96
@  #06 @154   ----------------------------------------
 .byte   W96
@  #06 @155   ----------------------------------------
 .byte   W96
@  #06 @156   ----------------------------------------
 .byte   W96
@  #06 @157   ----------------------------------------
 .byte   W96
@  #06 @158   ----------------------------------------
 .byte   W96
@  #06 @159   ----------------------------------------
 .byte   W96
@  #06 @160   ----------------------------------------
 .byte   W96
@  #06 @161   ----------------------------------------
 .byte   W96
@  #06 @162   ----------------------------------------
 .byte   W96
@  #06 @163   ----------------------------------------
 .byte   W96
@  #06 @164   ----------------------------------------
 .byte   W96
@  #06 @165   ----------------------------------------
 .byte   W96
@  #06 @166   ----------------------------------------
 .byte   W96
@  #06 @167   ----------------------------------------
 .byte   W96
@  #06 @168   ----------------------------------------
 .byte   W96
@  #06 @169   ----------------------------------------
 .byte   W96
@  #06 @170   ----------------------------------------
 .byte   W96
@  #06 @171   ----------------------------------------
 .byte   W96
@  #06 @172   ----------------------------------------
 .byte   W96
@  #06 @173   ----------------------------------------
 .byte   W96
@  #06 @174   ----------------------------------------
 .byte   W96
@  #06 @175   ----------------------------------------
 .byte   W96
@  #06 @176   ----------------------------------------
 .byte   W96
@  #06 @177   ----------------------------------------
 .byte   W96
@  #06 @178   ----------------------------------------
 .byte   W96
@  #06 @179   ----------------------------------------
 .byte   W96
@  #06 @180   ----------------------------------------
 .byte   W96
@  #06 @181   ----------------------------------------
 .byte   W96
@  #06 @182   ----------------------------------------
 .byte   W96
@  #06 @183   ----------------------------------------
 .byte   W96
@  #06 @184   ----------------------------------------
 .byte   W96
@  #06 @185   ----------------------------------------
 .byte   W96
@  #06 @186   ----------------------------------------
 .byte   W96
@  #06 @187   ----------------------------------------
 .byte   W96
@  #06 @188   ----------------------------------------
 .byte   W96
@  #06 @189   ----------------------------------------
 .byte   W96
@  #06 @190   ----------------------------------------
 .byte   W96
@  #06 @191   ----------------------------------------
 .byte   W96
@  #06 @192   ----------------------------------------
 .byte   W96
@  #06 @193   ----------------------------------------
 .byte   W96
@  #06 @194   ----------------------------------------
 .byte   W96
@  #06 @195   ----------------------------------------
 .byte   W96
@  #06 @196   ----------------------------------------
 .byte   N92
 .byte   W96
@  #06 @197   ----------------------------------------
 .byte   W96
@  #06 @198   ----------------------------------------
 .byte   W96
@  #06 @199   ----------------------------------------
 .byte   W96
@  #06 @200   ----------------------------------------
 .byte   W96
@  #06 @201   ----------------------------------------
 .byte   W96
@  #06 @202   ----------------------------------------
 .byte   W96
@  #06 @203   ----------------------------------------
 .byte   W96
@  #06 @204   ----------------------------------------
 .byte   N92
 .byte   W96
@  #06 @205   ----------------------------------------
 .byte   W96
@  #06 @206   ----------------------------------------
 .byte   W96
@  #06 @207   ----------------------------------------
 .byte   W96
@  #06 @208   ----------------------------------------
 .byte   W96
@  #06 @209   ----------------------------------------
 .byte   W96
@  #06 @210   ----------------------------------------
 .byte   W96
@  #06 @211   ----------------------------------------
 .byte   W96
@  #06 @212   ----------------------------------------
 .byte   W96
@  #06 @213   ----------------------------------------
 .byte   W72
 .byte   GOTO
  .word Label_0165FA8E
 .byte   FINE

@**************** Track 7 (Midi-Chn.6) ****************@

song013A_007:
@  #07 @000   ----------------------------------------
 .byte   KEYSH , song013A_key+0
Label_01511CE2:
 .byte   VOICE , 30
 .byte   VOL , 47*song013A_mvl/mxv
 .byte   PAN , c_v+0
 .byte   W96
@  #07 @001   ----------------------------------------
 .byte   W96
@  #07 @002   ----------------------------------------
 .byte   W96
@  #07 @003   ----------------------------------------
 .byte   W96
@  #07 @004   ----------------------------------------
 .byte   W96
@  #07 @005   ----------------------------------------
 .byte   W96
@  #07 @006   ----------------------------------------
 .byte   W96
@  #07 @007   ----------------------------------------
 .byte   W96
@  #07 @008   ----------------------------------------
 .byte   W96
@  #07 @009   ----------------------------------------
 .byte   W96
@  #07 @010   ----------------------------------------
 .byte   W96
@  #07 @011   ----------------------------------------
 .byte   W96
@  #07 @012   ----------------------------------------
 .byte   W96
@  #07 @013   ----------------------------------------
 .byte   W96
@  #07 @014   ----------------------------------------
 .byte   W96
@  #07 @015   ----------------------------------------
 .byte   W96
@  #07 @016   ----------------------------------------
 .byte   W96
@  #07 @017   ----------------------------------------
 .byte   W96
@  #07 @018   ----------------------------------------
 .byte   W96
@  #07 @019   ----------------------------------------
 .byte   W96
@  #07 @020   ----------------------------------------
 .byte   W96
@  #07 @021   ----------------------------------------
 .byte   W96
@  #07 @022   ----------------------------------------
 .byte   W96
@  #07 @023   ----------------------------------------
 .byte   W96
@  #07 @024   ----------------------------------------
 .byte   W96
@  #07 @025   ----------------------------------------
 .byte   W96
@  #07 @026   ----------------------------------------
 .byte   W96
@  #07 @027   ----------------------------------------
 .byte   W96
@  #07 @028   ----------------------------------------
 .byte   W96
@  #07 @029   ----------------------------------------
 .byte   W96
@  #07 @030   ----------------------------------------
 .byte   W96
@  #07 @031   ----------------------------------------
 .byte   W96
@  #07 @032   ----------------------------------------
 .byte   W96
@  #07 @033   ----------------------------------------
 .byte   W96
@  #07 @034   ----------------------------------------
 .byte   W96
@  #07 @035   ----------------------------------------
 .byte   W96
@  #07 @036   ----------------------------------------
 .byte   W96
@  #07 @037   ----------------------------------------
 .byte   W96
@  #07 @038   ----------------------------------------
 .byte   W96
@  #07 @039   ----------------------------------------
 .byte   W96
@  #07 @040   ----------------------------------------
 .byte   W96
@  #07 @041   ----------------------------------------
 .byte   W96
@  #07 @042   ----------------------------------------
 .byte   W96
@  #07 @043   ----------------------------------------
 .byte   W96
@  #07 @044   ----------------------------------------
 .byte   W96
@  #07 @045   ----------------------------------------
 .byte   W96
@  #07 @046   ----------------------------------------
 .byte   W96
@  #07 @047   ----------------------------------------
 .byte   W96
@  #07 @048   ----------------------------------------
 .byte   W96
@  #07 @049   ----------------------------------------
 .byte   W96
@  #07 @050   ----------------------------------------
 .byte   W96
@  #07 @051   ----------------------------------------
 .byte   W96
@  #07 @052   ----------------------------------------
Label_01511D1C:
 .byte   N11 ,Ds2 ,v080
 .byte   W12
 .byte   N11
 .byte   W12
 .byte   N11
 .byte   W12
 .byte   N11
 .byte   W12
 .byte   Fn2
 .byte   W12
 .byte   N11
 .byte   W12
 .byte   N11
 .byte   W12
 .byte   N11
 .byte   W12
 .byte   PEND 
@  #07 @053   ----------------------------------------
Label_01511D2F:
 .byte   N11 ,Dn2 ,v080
 .byte   W12
 .byte   N11
 .byte   W12
 .byte   N11
 .byte   W12
 .byte   N11
 .byte   W12
 .byte   N11
 .byte   W12
 .byte   N11
 .byte   W12
 .byte   N11
 .byte   W12
 .byte   N11
 .byte   W12
 .byte   PEND 
@  #07 @054   ----------------------------------------
 .byte   PATT
  .word Label_01511D2F
@  #07 @055   ----------------------------------------
Label_01511D47:
 .byte   N11 ,As1 ,v080
 .byte   W12
 .byte   N11
 .byte   W12
 .byte   N11
 .byte   W12
 .byte   N11
 .byte   W12
 .byte   N11
 .byte   W12
 .byte   N11
 .byte   W12
 .byte   N11
 .byte   W12
 .byte   N11
 .byte   W12
 .byte   PEND 
@  #07 @056   ----------------------------------------
Label_01511D5A:
 .byte   N11 ,As1 ,v080
 .byte   W12
 .byte   N11
 .byte   W12
 .byte   N11
 .byte   W12
 .byte   N11
 .byte   W12
 .byte   An1
 .byte   W12
 .byte   N11
 .byte   W12
 .byte   N11
 .byte   W12
 .byte   N11
 .byte   W12
 .byte   PEND 
@  #07 @057   ----------------------------------------
Label_01511D6D:
 .byte   N11 ,Gn1 ,v080
 .byte   W12
 .byte   N11
 .byte   W12
 .byte   N11
 .byte   W12
 .byte   N11
 .byte   W12
 .byte   N11
 .byte   W12
 .byte   N11
 .byte   W12
 .byte   N11
 .byte   W12
 .byte   N11
 .byte   W12
 .byte   PEND 
@  #07 @058   ----------------------------------------
 .byte   PATT
  .word Label_01511D6D
@  #07 @059   ----------------------------------------
Label_01511D85:
 .byte   N11 ,Cn2 ,v080
 .byte   W12
 .byte   N11
 .byte   W12
 .byte   N11
 .byte   W12
 .byte   N11
 .byte   W12
 .byte   N11
 .byte   W12
 .byte   N11
 .byte   W12
 .byte   N11
 .byte   W12
 .byte   N11
 .byte   W12
 .byte   PEND 
@  #07 @060   ----------------------------------------
Label_01511D98:
 .byte   N11 ,An1 ,v080
 .byte   W12
 .byte   N11
 .byte   W12
 .byte   N11
 .byte   W12
 .byte   N11
 .byte   W12
 .byte   N11
 .byte   W12
 .byte   N11
 .byte   W12
 .byte   N11
 .byte   W12
 .byte   N11
 .byte   W12
 .byte   PEND 
@  #07 @061   ----------------------------------------
 .byte   PATT
  .word Label_01511D2F
@  #07 @062   ----------------------------------------
 .byte   PATT
  .word Label_01511D2F
@  #07 @063   ----------------------------------------
 .byte   PATT
  .word Label_01511D47
@  #07 @064   ----------------------------------------
 .byte   PATT
  .word Label_01511D5A
@  #07 @065   ----------------------------------------
 .byte   PATT
  .word Label_01511D6D
@  #07 @066   ----------------------------------------
 .byte   PATT
  .word Label_01511D6D
@  #07 @067   ----------------------------------------
 .byte   PATT
  .word Label_01511D85
@  #07 @068   ----------------------------------------
 .byte   PATT
  .word Label_01511D98
@  #07 @069   ----------------------------------------
Label_01511DD3:
 .byte   N23 ,As1 ,v080
 .byte   W24
 .byte   N11
 .byte   W12
 .byte   N11
 .byte   W12
 .byte   N11
 .byte   W12
 .byte   N11
 .byte   W12
 .byte   N11
 .byte   W12
 .byte   N11
 .byte   W12
 .byte   PEND 
@  #07 @070   ----------------------------------------
 .byte   PATT
  .word Label_01511D85
@  #07 @071   ----------------------------------------
Label_01511DE9:
 .byte   N23 ,Dn2 ,v080
 .byte   W24
 .byte   N11
 .byte   W12
 .byte   N11
 .byte   W12
 .byte   N11
 .byte   W12
 .byte   N11
 .byte   W12
 .byte   N11
 .byte   W12
 .byte   N11
 .byte   W12
 .byte   PEND 
@  #07 @072   ----------------------------------------
 .byte   PATT
  .word Label_01511D2F
@  #07 @073   ----------------------------------------
 .byte   PATT
  .word Label_01511DD3
@  #07 @074   ----------------------------------------
 .byte   PATT
  .word Label_01511D85
@  #07 @075   ----------------------------------------
Label_01511E09:
 .byte   N23 ,Dn2 ,v080
 .byte   W24
 .byte   N11
 .byte   W12
 .byte   N11
 .byte   W12
 .byte   N11
 .byte   W12
 .byte   N11
 .byte   W12
 .byte   N11
 .byte   W12
 .byte   N23
 .byte   W12
 .byte   PEND 
@  #07 @076   ----------------------------------------
Label_01511E1A:
 .byte   W12
 .byte   N11 ,Dn2 ,v080
 .byte   W12
 .byte   N11
 .byte   W12
 .byte   N11
 .byte   W12
 .byte   N11
 .byte   W12
 .byte   N11
 .byte   W12
 .byte   N11
 .byte   W12
 .byte   N11
 .byte   W12
 .byte   PEND 
@  #07 @077   ----------------------------------------
 .byte   PATT
  .word Label_01511DD3
@  #07 @078   ----------------------------------------
 .byte   PATT
  .word Label_01511D85
@  #07 @079   ----------------------------------------
 .byte   PATT
  .word Label_01511DE9
@  #07 @080   ----------------------------------------
 .byte   PATT
  .word Label_01511D2F
@  #07 @081   ----------------------------------------
 .byte   PATT
  .word Label_01511DD3
@  #07 @082   ----------------------------------------
 .byte   PATT
  .word Label_01511D85
@  #07 @083   ----------------------------------------
 .byte   PATT
  .word Label_01511E09
@  #07 @084   ----------------------------------------
 .byte   PATT
  .word Label_01511E1A
@  #07 @085   ----------------------------------------
Label_01511E54:
 .byte   N23 ,As1 ,v080
 .byte   W24
 .byte   N23
 .byte   W36
 .byte   N23
 .byte   W24
 .byte   N11
 .byte   W12
 .byte   PEND 
@  #07 @086   ----------------------------------------
Label_01511E5F:
 .byte   N23 ,Cn2 ,v080
 .byte   W24
 .byte   N23
 .byte   W36
 .byte   N23
 .byte   W24
 .byte   N11
 .byte   W12
 .byte   PEND 
@  #07 @087   ----------------------------------------
Label_01511E6A:
 .byte   N23 ,Dn2 ,v080
 .byte   W24
 .byte   N11
 .byte   W12
 .byte   N11
 .byte   W12
 .byte   N11
 .byte   W12
 .byte   N11
 .byte   W12
 .byte   N11
 .byte   W12
 .byte   N23 ,Cs2
 .byte   W12
 .byte   PEND 
@  #07 @088   ----------------------------------------
Label_01511E7C:
 .byte   W12
 .byte   N11 ,Cs2 ,v080
 .byte   W12
 .byte   N11
 .byte   W12
 .byte   N11
 .byte   W12
 .byte   N11
 .byte   W12
 .byte   N11
 .byte   W12
 .byte   N11
 .byte   W12
 .byte   N11
 .byte   W12
 .byte   PEND 
@  #07 @089   ----------------------------------------
 .byte   PATT
  .word Label_01511E54
@  #07 @090   ----------------------------------------
 .byte   PATT
  .word Label_01511E5F
@  #07 @091   ----------------------------------------
 .byte   PATT
  .word Label_01511E6A
@  #07 @092   ----------------------------------------
 .byte   PATT
  .word Label_01511E7C
@  #07 @093   ----------------------------------------
 .byte   PATT
  .word Label_01511D47
@  #07 @094   ----------------------------------------
 .byte   PATT
  .word Label_01511D85
@  #07 @095   ----------------------------------------
 .byte   PATT
  .word Label_01511D2F
@  #07 @096   ----------------------------------------
 .byte   N11 ,Cs2 ,v080
 .byte   W12
 .byte   N11
 .byte   W12
 .byte   N11
 .byte   W12
 .byte   N11
 .byte   W12
 .byte   N11
 .byte   W12
 .byte   N11
 .byte   W12
 .byte   N11
 .byte   W12
 .byte   N11
 .byte   W12
@  #07 @097   ----------------------------------------
 .byte   N44 ,Bn1
 .byte   W48
 .byte   N44
 .byte   W48
@  #07 @098   ----------------------------------------
 .byte   N23 ,Cn2
 .byte   W24
 .byte   N11
 .byte   W12
 .byte   N05
 .byte   W06
 .byte   N05
 .byte   W06
 .byte   N11
 .byte   W12
 .byte   N11
 .byte   W12
 .byte   N11
 .byte   W12
 .byte   N11
 .byte   W12
@  #07 @099   ----------------------------------------
 .byte   N23 ,Dn2
 .byte   W24
 .byte   N11 ,Cn2
 .byte   W12
 .byte   N23 ,Dn2
 .byte   W24
 .byte   Cn2
 .byte   W24
 .byte   TIE ,Dn2
 .byte   W12
@  #07 @100   ----------------------------------------
 .byte   W92
 .byte   W03
 .byte   EOT
 .byte   W01
@  #07 @101   ----------------------------------------
 .byte   W48
 .byte   N44 ,Gn4
 .byte   W48
@  #07 @102   ----------------------------------------
Label_01511EEF:
 .byte   N44 ,Dn4 ,v080
 .byte   W48
 .byte   Fn4
 .byte   W48
 .byte   PEND 
@  #07 @103   ----------------------------------------
Label_01511EF6:
 .byte   N44 ,Ds4 ,v080
 .byte   W48
 .byte   Cn4
 .byte   W48
 .byte   PEND 
@  #07 @104   ----------------------------------------
Label_01511EFD:
 .byte   N44 ,Cs4 ,v080
 .byte   W48
 .byte   Gs3
 .byte   W48
 .byte   PEND 
@  #07 @105   ----------------------------------------
 .byte   W48
 .byte   Gn4
 .byte   W48
@  #07 @106   ----------------------------------------
 .byte   PATT
  .word Label_01511EEF
@  #07 @107   ----------------------------------------
 .byte   PATT
  .word Label_01511EF6
@  #07 @108   ----------------------------------------
 .byte   PATT
  .word Label_01511EFD
@  #07 @109   ----------------------------------------
 .byte   W96
@  #07 @110   ----------------------------------------
 .byte   W96
@  #07 @111   ----------------------------------------
 .byte   W96
@  #07 @112   ----------------------------------------
 .byte   W96
@  #07 @113   ----------------------------------------
 .byte   W96
@  #07 @114   ----------------------------------------
 .byte   W96
@  #07 @115   ----------------------------------------
 .byte   W96
@  #07 @116   ----------------------------------------
 .byte   W96
@  #07 @117   ----------------------------------------
 .byte   W96
@  #07 @118   ----------------------------------------
 .byte   W96
@  #07 @119   ----------------------------------------
 .byte   W96
@  #07 @120   ----------------------------------------
 .byte   W96
@  #07 @121   ----------------------------------------
 .byte   W96
@  #07 @122   ----------------------------------------
 .byte   W96
@  #07 @123   ----------------------------------------
 .byte   W96
@  #07 @124   ----------------------------------------
 .byte   W96
@  #07 @125   ----------------------------------------
 .byte   W96
@  #07 @126   ----------------------------------------
 .byte   W96
@  #07 @127   ----------------------------------------
 .byte   W96
@  #07 @128   ----------------------------------------
 .byte   W96
@  #07 @129   ----------------------------------------
 .byte   W96
@  #07 @130   ----------------------------------------
 .byte   W96
@  #07 @131   ----------------------------------------
 .byte   W96
@  #07 @132   ----------------------------------------
 .byte   PATT
  .word Label_01511D1C
@  #07 @133   ----------------------------------------
 .byte   PATT
  .word Label_01511D2F
@  #07 @134   ----------------------------------------
 .byte   PATT
  .word Label_01511D2F
@  #07 @135   ----------------------------------------
 .byte   PATT
  .word Label_01511D47
@  #07 @136   ----------------------------------------
 .byte   PATT
  .word Label_01511D5A
@  #07 @137   ----------------------------------------
 .byte   PATT
  .word Label_01511D6D
@  #07 @138   ----------------------------------------
 .byte   PATT
  .word Label_01511D6D
@  #07 @139   ----------------------------------------
 .byte   PATT
  .word Label_01511D85
@  #07 @140   ----------------------------------------
 .byte   PATT
  .word Label_01511D98
@  #07 @141   ----------------------------------------
 .byte   PATT
  .word Label_01511D2F
@  #07 @142   ----------------------------------------
 .byte   PATT
  .word Label_01511D2F
@  #07 @143   ----------------------------------------
 .byte   PATT
  .word Label_01511D47
@  #07 @144   ----------------------------------------
 .byte   PATT
  .word Label_01511D5A
@  #07 @145   ----------------------------------------
 .byte   PATT
  .word Label_01511D6D
@  #07 @146   ----------------------------------------
 .byte   PATT
  .word Label_01511D6D
@  #07 @147   ----------------------------------------
 .byte   PATT
  .word Label_01511D85
@  #07 @148   ----------------------------------------
 .byte   PATT
  .word Label_01511D98
@  #07 @149   ----------------------------------------
 .byte   PATT
  .word Label_01511DD3
@  #07 @150   ----------------------------------------
 .byte   PATT
  .word Label_01511D85
@  #07 @151   ----------------------------------------
 .byte   PATT
  .word Label_01511DE9
@  #07 @152   ----------------------------------------
 .byte   PATT
  .word Label_01511D2F
@  #07 @153   ----------------------------------------
 .byte   PATT
  .word Label_01511DD3
@  #07 @154   ----------------------------------------
 .byte   PATT
  .word Label_01511D85
@  #07 @155   ----------------------------------------
 .byte   PATT
  .word Label_01511E09
@  #07 @156   ----------------------------------------
 .byte   PATT
  .word Label_01511E1A
@  #07 @157   ----------------------------------------
 .byte   PATT
  .word Label_01511DD3
@  #07 @158   ----------------------------------------
 .byte   PATT
  .word Label_01511D85
@  #07 @159   ----------------------------------------
 .byte   PATT
  .word Label_01511DE9
@  #07 @160   ----------------------------------------
 .byte   PATT
  .word Label_01511D2F
@  #07 @161   ----------------------------------------
 .byte   PATT
  .word Label_01511DD3
@  #07 @162   ----------------------------------------
 .byte   PATT
  .word Label_01511D85
@  #07 @163   ----------------------------------------
 .byte   PATT
  .word Label_01511E09
@  #07 @164   ----------------------------------------
 .byte   PATT
  .word Label_01511E1A
@  #07 @165   ----------------------------------------
Label_01511FD2:
 .byte   N05 ,Dn4 ,v080
 .byte   W06
 .byte   Gn3
 .byte   W06
 .byte   N05
 .byte   W06
 .byte   Fn3
 .byte   W06
 .byte   Gn3
 .byte   W06
 .byte   N05
 .byte   W06
 .byte   Dn4
 .byte   W06
 .byte   Gn3
 .byte   W06
 .byte   N05
 .byte   W06
 .byte   Fn3
 .byte   W06
 .byte   Gn3
 .byte   W06
 .byte   N05
 .byte   W06
 .byte   Dn4
 .byte   W06
 .byte   Gn3
 .byte   W06
 .byte   N05
 .byte   W06
 .byte   N05
 .byte   W06
 .byte   PEND 
@  #07 @166   ----------------------------------------
 .byte   Ds4
 .byte   W06
 .byte   An3
 .byte   W06
 .byte   N05
 .byte   W06
 .byte   Gn3
 .byte   W06
 .byte   An3
 .byte   W06
 .byte   N05
 .byte   W06
 .byte   Ds4
 .byte   W06
 .byte   An3
 .byte   W06
 .byte   N05
 .byte   W06
 .byte   Gn3
 .byte   W06
 .byte   An3
 .byte   W06
 .byte   N05
 .byte   W06
 .byte   Ds4
 .byte   W06
 .byte   An3
 .byte   W06
 .byte   N05
 .byte   W06
 .byte   N05
 .byte   W06
@  #07 @167   ----------------------------------------
 .byte   PATT
  .word Label_01511FD2
@  #07 @168   ----------------------------------------
 .byte   N05 ,Cn4 ,v080
 .byte   W06
 .byte   Gn3
 .byte   W06
 .byte   N05
 .byte   W06
 .byte   Fn3
 .byte   W06
 .byte   Gn3
 .byte   W06
 .byte   N05
 .byte   W06
 .byte   Cn4
 .byte   W06
 .byte   Gn3
 .byte   W06
 .byte   N05
 .byte   W06
 .byte   Fn3
 .byte   W06
 .byte   Gn3
 .byte   W06
 .byte   N05
 .byte   W06
 .byte   Cn4
 .byte   W06
 .byte   Gn3
 .byte   W06
 .byte   N05
 .byte   W06
 .byte   N05
 .byte   W06
@  #07 @169   ----------------------------------------
 .byte   BEND , c_v+0
 .byte   N92 ,Cn4
 .byte   W01
 .byte   BEND , c_v+0
 .byte   W01
 .byte   BEND , c_v+1
 .byte   W01
 .byte   BEND , c_v+1
 .byte   W01
 .byte   BEND , c_v+2
 .byte   W01
 .byte   BEND , c_v+2
 .byte   W01
 .byte   BEND , c_v+2
 .byte   W01
 .byte   BEND , c_v+3
 .byte   W01
 .byte   BEND , c_v+3
 .byte   W01
 .byte   BEND , c_v+4
 .byte   W01
 .byte   BEND , c_v+4
 .byte   W01
 .byte   BEND , c_v+4
 .byte   W01
 .byte   BEND , c_v+5
 .byte   W01
 .byte   BEND , c_v+5
 .byte   W01
 .byte   BEND , c_v+6
 .byte   W01
 .byte   BEND , c_v+6
 .byte   W01
 .byte   BEND , c_v+7
 .byte   W01
 .byte   BEND , c_v+7
 .byte   W01
 .byte   BEND , c_v+8
 .byte   W01
 .byte   BEND , c_v+8
 .byte   W01
 .byte   BEND , c_v+9
 .byte   W01
 .byte   BEND , c_v+9
 .byte   W01
 .byte   BEND , c_v+9
 .byte   W01
 .byte   BEND , c_v+10
 .byte   W01
 .byte   BEND , c_v+10
 .byte   W72
@  #07 @170   ----------------------------------------
 .byte   BEND , c_v+0
 .byte   N05 ,Dn4
 .byte   W06
 .byte   Cs4
 .byte   W06
 .byte   Bn3
 .byte   W06
 .byte   Cs4
 .byte   W06
 .byte   Dn4
 .byte   W06
 .byte   En4
 .byte   W06
 .byte   Fn4
 .byte   W06
 .byte   Gs4
 .byte   W06
 .byte   An4
 .byte   W06
 .byte   Gs4
 .byte   W06
 .byte   Fn4
 .byte   W06
 .byte   En4
 .byte   W06
 .byte   Dn4
 .byte   W06
 .byte   Cs4
 .byte   W06
 .byte   Bn3
 .byte   W06
 .byte   An3
 .byte   W06
@  #07 @171   ----------------------------------------
 .byte   Dn4
 .byte   W06
 .byte   Cn4
 .byte   W06
 .byte   Bn3
 .byte   W06
 .byte   As3
 .byte   W06
 .byte   Gn3
 .byte   W06
 .byte   Fn3
 .byte   W06
 .byte   Cn4
 .byte   W06
 .byte   Bn3
 .byte   W06
 .byte   As3
 .byte   W06
 .byte   Gn3
 .byte   W06
 .byte   Fn3
 .byte   W06
 .byte   En3
 .byte   W06
 .byte   Bn3
 .byte   W06
 .byte   As3
 .byte   W06
 .byte   Gn3
 .byte   W06
 .byte   Fn3
 .byte   W06
@  #07 @172   ----------------------------------------
 .byte   En3
 .byte   W06
 .byte   Dn3
 .byte   W06
 .byte   As3
 .byte   W06
 .byte   Gn3
 .byte   W06
 .byte   Fn3
 .byte   W06
 .byte   En3
 .byte   W06
 .byte   Dn3
 .byte   W06
 .byte   Cs3
 .byte   W06
 .byte   Gn3
 .byte   W06
 .byte   As3
 .byte   W06
 .byte   Bn3
 .byte   W06
 .byte   Cs4
 .byte   W06
 .byte   Dn4
 .byte   W06
 .byte   En4
 .byte   W06
 .byte   Fn4
 .byte   W06
 .byte   Gs4
 .byte   W06
@  #07 @173   ----------------------------------------
 .byte   N68 ,Dn3
 .byte   N68 ,Fn3
 .byte   W72
 .byte   N11 ,Dn3
 .byte   N11 ,Fn3
 .byte   W12
 .byte   TIE ,Dn4
 .byte   TIE ,Gn4
 .byte   W12
@  #07 @174   ----------------------------------------
 .byte   W92
 .byte   W03
 .byte   EOT
 .byte   Dn4 ,v079
 .byte   W01
@  #07 @175   ----------------------------------------
 .byte   N17 ,Dn4
 .byte   N17 ,Gn4
 .byte   W18
 .byte   Fn4
 .byte   N17 ,As4
 .byte   W18
 .byte   N11 ,Dn4
 .byte   N11 ,Gn4
 .byte   W12
 .byte   N17 ,Dn4
 .byte   N17 ,Gn4
 .byte   W18
 .byte   Fn4
 .byte   N17 ,Cn5
 .byte   W18
 .byte   N11 ,Dn4
 .byte   N11 ,Gn4
 .byte   W12
@  #07 @176   ----------------------------------------
 .byte   BEND , c_v+1
 .byte   N92 ,Gs4
 .byte   N92 ,En5
 .byte   W01
 .byte   BEND , c_v+2
 .byte   W01
 .byte   BEND , c_v+3
 .byte   W01
 .byte   BEND , c_v+4
 .byte   W01
 .byte   BEND , c_v+6
 .byte   W01
 .byte   BEND , c_v+7
 .byte   W01
 .byte   BEND , c_v+8
 .byte   W01
 .byte   BEND , c_v+9
 .byte   W01
 .byte   BEND , c_v+11
 .byte   W01
 .byte   BEND , c_v+12
 .byte   W01
 .byte   BEND , c_v+13
 .byte   W01
 .byte   BEND , c_v+14
 .byte   W01
 .byte   BEND , c_v+17
 .byte   W01
 .byte   BEND , c_v+18
 .byte   W01
 .byte   BEND , c_v+19
 .byte   W01
 .byte   BEND , c_v+20
 .byte   W01
 .byte   BEND , c_v+22
 .byte   W01
 .byte   BEND , c_v+23
 .byte   W01
 .byte   BEND , c_v+24
 .byte   W01
 .byte   BEND , c_v+25
 .byte   W01
 .byte   BEND , c_v+27
 .byte   W01
 .byte   BEND , c_v+28
 .byte   W01
 .byte   BEND , c_v+29
 .byte   W01
 .byte   BEND , c_v+30
 .byte   W01
 .byte   BEND , c_v+32
 .byte   W72
@  #07 @177   ----------------------------------------
 .byte   BEND , c_v+0
 .byte   N05 ,Fn4
 .byte   W06
 .byte   Cs4
 .byte   W06
 .byte   N11 ,Bn3
 .byte   W12
 .byte   An3
 .byte   W12
 .byte   N23 ,Fn4
 .byte   W24
 .byte   N11 ,Gn3
 .byte   W12
 .byte   Fn4
 .byte   W12
 .byte   Fs4
 .byte   W12
@  #07 @178   ----------------------------------------
 .byte   N05 ,Gn4
 .byte   W06
 .byte   Fn4
 .byte   W06
 .byte   N11 ,Dn4
 .byte   W12
 .byte   Bn3
 .byte   W12
 .byte   N23 ,Gn4
 .byte   W24
 .byte   N11 ,Bn3
 .byte   W12
 .byte   Gn4
 .byte   W12
 .byte   An4
 .byte   W12
@  #07 @179   ----------------------------------------
 .byte   N05 ,Fn4
 .byte   N05 ,Cs5
 .byte   W06
 .byte   En4
 .byte   N05 ,Bn4
 .byte   W06
 .byte   Dn4
 .byte   N05 ,An4
 .byte   W06
 .byte   Cn4
 .byte   N05 ,Gn4
 .byte   W06
 .byte   Bn3
 .byte   N05 ,Fs4
 .byte   W06
 .byte   An3
 .byte   N05 ,En4
 .byte   W06
 .byte   Gn3
 .byte   N05 ,Dn4
 .byte   W06
 .byte   Fn3
 .byte   N05 ,Cn4
 .byte   W06
 .byte   En4
 .byte   N05 ,Bn4
 .byte   W06
 .byte   Dn4
 .byte   N05 ,An4
 .byte   W06
 .byte   Cn4
 .byte   N05 ,Gn4
 .byte   W06
 .byte   Bn3
 .byte   N05 ,Fs4
 .byte   W06
 .byte   An3
 .byte   N05 ,En4
 .byte   W06
 .byte   Gn3
 .byte   N05 ,Dn4
 .byte   W06
 .byte   Fn3
 .byte   N05 ,Cn4
 .byte   W06
 .byte   En3
 .byte   N05 ,Cn4
 .byte   W06
@  #07 @180   ----------------------------------------
 .byte   Dn4
 .byte   N05 ,An4
 .byte   W06
 .byte   Cn4
 .byte   N05 ,Gn4
 .byte   W06
 .byte   Bn3
 .byte   N05 ,Fs4
 .byte   W06
 .byte   An3
 .byte   N05 ,En4
 .byte   W06
 .byte   Gn3
 .byte   N05 ,Dn4
 .byte   W06
 .byte   Fn3
 .byte   N05 ,Cn4
 .byte   W06
 .byte   En3
 .byte   N05 ,Cn4
 .byte   W06
 .byte   Dn3
 .byte   N05 ,An3
 .byte   W06
 .byte   Cn4
 .byte   N05 ,Gn4
 .byte   W06
 .byte   Bn3
 .byte   N05 ,Fs4
 .byte   W06
 .byte   An3
 .byte   N05 ,En4
 .byte   W06
 .byte   Gn3
 .byte   N05 ,Dn4
 .byte   W06
 .byte   Fn3
 .byte   N05 ,Cn4
 .byte   W06
 .byte   En3
 .byte   N05 ,Cn4
 .byte   W06
 .byte   Dn3
 .byte   N05 ,An3
 .byte   W06
 .byte   Cn3
 .byte   N05 ,Gn3
 .byte   W06
@  #07 @181   ----------------------------------------
 .byte   PATT
  .word Label_01511DD3
@  #07 @182   ----------------------------------------
 .byte   PATT
  .word Label_01511D85
@  #07 @183   ----------------------------------------
 .byte   PATT
  .word Label_01511DE9
@  #07 @184   ----------------------------------------
 .byte   PATT
  .word Label_01511D2F
@  #07 @185   ----------------------------------------
 .byte   PATT
  .word Label_01511DD3
@  #07 @186   ----------------------------------------
 .byte   PATT
  .word Label_01511D85
@  #07 @187   ----------------------------------------
 .byte   PATT
  .word Label_01511E09
@  #07 @188   ----------------------------------------
 .byte   PATT
  .word Label_01511E1A
@  #07 @189   ----------------------------------------
 .byte   PATT
  .word Label_01511DD3
@  #07 @190   ----------------------------------------
 .byte   PATT
  .word Label_01511D85
@  #07 @191   ----------------------------------------
 .byte   PATT
  .word Label_01511DE9
@  #07 @192   ----------------------------------------
 .byte   PATT
  .word Label_01511D2F
@  #07 @193   ----------------------------------------
 .byte   PATT
  .word Label_01511DD3
@  #07 @194   ----------------------------------------
 .byte   PATT
  .word Label_01511D85
@  #07 @195   ----------------------------------------
 .byte   PATT
  .word Label_01511E09
@  #07 @196   ----------------------------------------
 .byte   PATT
  .word Label_01511E1A
@  #07 @197   ----------------------------------------
 .byte   W96
@  #07 @198   ----------------------------------------
 .byte   W96
@  #07 @199   ----------------------------------------
 .byte   W96
@  #07 @200   ----------------------------------------
 .byte   W96
@  #07 @201   ----------------------------------------
 .byte   W96
@  #07 @202   ----------------------------------------
 .byte   W96
@  #07 @203   ----------------------------------------
 .byte   W96
@  #07 @204   ----------------------------------------
 .byte   W96
@  #07 @205   ----------------------------------------
 .byte   W96
@  #07 @206   ----------------------------------------
 .byte   W96
@  #07 @207   ----------------------------------------
 .byte   W96
@  #07 @208   ----------------------------------------
 .byte   W96
@  #07 @209   ----------------------------------------
 .byte   W96
@  #07 @210   ----------------------------------------
 .byte   W96
@  #07 @211   ----------------------------------------
 .byte   W96
@  #07 @212   ----------------------------------------
 .byte   W96
@  #07 @213   ----------------------------------------
 .byte   W72
 .byte   GOTO
  .word Label_01511CE2
 .byte   FINE

@**************** Track 8 (Midi-Chn.7) ****************@

song013A_008:
@  #08 @000   ----------------------------------------
 .byte   KEYSH , song013A_key+0
Label_01512262:
 .byte   VOICE , 124
 .byte   VOL , 42*song013A_mvl/mxv
 .byte   PAN , c_v+0
 .byte   W96
@  #08 @001   ----------------------------------------
 .byte   W96
@  #08 @002   ----------------------------------------
 .byte   W96
@  #08 @003   ----------------------------------------
 .byte   W96
@  #08 @004   ----------------------------------------
 .byte   W96
@  #08 @005   ----------------------------------------
 .byte   W96
@  #08 @006   ----------------------------------------
 .byte   W96
@  #08 @007   ----------------------------------------
 .byte   W96
@  #08 @008   ----------------------------------------
Label_01512270:
 .byte   N11 ,Cn1 ,v080
 .byte   N11 ,Cs2
 .byte   W12
 .byte   Cn1
 .byte   N11 ,Cs2
 .byte   W84
 .byte   PEND 
@  #08 @009   ----------------------------------------
 .byte   W96
@  #08 @010   ----------------------------------------
 .byte   W96
@  #08 @011   ----------------------------------------
Label_0151227D:
 .byte   N05 ,Dn1 ,v080
 .byte   W06
 .byte   N05
 .byte   W06
 .byte   N05
 .byte   W06
 .byte   N05
 .byte   W06
 .byte   Cn1
 .byte   W06
 .byte   N05
 .byte   W06
 .byte   N05
 .byte   W06
 .byte   N05
 .byte   W06
 .byte   Dn1
 .byte   W06
 .byte   N05
 .byte   W06
 .byte   N05
 .byte   W06
 .byte   N05
 .byte   W06
 .byte   Cn1
 .byte   W06
 .byte   N05
 .byte   W06
 .byte   N05
 .byte   W06
 .byte   N05
 .byte   W06
 .byte   PEND 
@  #08 @012   ----------------------------------------
Label_015122A0:
 .byte   N11 ,Cn1 ,v080
 .byte   N11 ,Cs2
 .byte   W12
 .byte   Dn1
 .byte   W12
 .byte   N05 ,Cn1
 .byte   N11 ,As1
 .byte   W06
 .byte   N05 ,Cn1
 .byte   W06
 .byte   N11 ,Dn1
 .byte   W12
 .byte   Cn1
 .byte   N11 ,As1
 .byte   W12
 .byte   Dn1
 .byte   W12
 .byte   N05 ,Cn1
 .byte   N11 ,As1
 .byte   W06
 .byte   N05 ,Cn1
 .byte   W06
 .byte   N11 ,Dn1
 .byte   W12
 .byte   PEND 
@  #08 @013   ----------------------------------------
Label_015122C5:
 .byte   N11 ,Cn1 ,v080
 .byte   N11 ,As1
 .byte   W12
 .byte   Dn1
 .byte   W12
 .byte   N05 ,Cn1
 .byte   N11 ,As1
 .byte   W06
 .byte   N05 ,Cn1
 .byte   W06
 .byte   N11 ,Dn1
 .byte   W12
 .byte   Cn1
 .byte   N11 ,As1
 .byte   W12
 .byte   Dn1
 .byte   W12
 .byte   N05 ,Cn1
 .byte   N11 ,As1
 .byte   W06
 .byte   N05 ,Cn1
 .byte   W06
 .byte   N11 ,Dn1
 .byte   W12
 .byte   PEND 
@  #08 @014   ----------------------------------------
 .byte   PATT
  .word Label_015122A0
@  #08 @015   ----------------------------------------
 .byte   PATT
  .word Label_015122C5
@  #08 @016   ----------------------------------------
 .byte   PATT
  .word Label_015122A0
@  #08 @017   ----------------------------------------
 .byte   PATT
  .word Label_015122C5
@  #08 @018   ----------------------------------------
 .byte   PATT
  .word Label_015122A0
@  #08 @019   ----------------------------------------
 .byte   N11 ,Cn1 ,v080
 .byte   N11 ,As1
 .byte   W12
 .byte   Dn1
 .byte   W12
 .byte   N05 ,Cn1
 .byte   N11 ,As1
 .byte   W06
 .byte   N05 ,Cn1
 .byte   W06
 .byte   N11 ,Dn1
 .byte   N11 ,Fs1
 .byte   W12
 .byte   N05 ,Dn1
 .byte   N05 ,Cs2
 .byte   W06
 .byte   Bn1
 .byte   W06
 .byte   N05
 .byte   W06
 .byte   An1
 .byte   W06
 .byte   N05
 .byte   W06
 .byte   Fn1
 .byte   W06
 .byte   N05
 .byte   W06
 .byte   N05
 .byte   W06
@  #08 @020   ----------------------------------------
 .byte   PATT
  .word Label_015122A0
@  #08 @021   ----------------------------------------
 .byte   PATT
  .word Label_015122C5
@  #08 @022   ----------------------------------------
Label_01512335:
 .byte   N05 ,Dn1 ,v080
 .byte   N05 ,Cs2
 .byte   W06
 .byte   Cn1
 .byte   W06
 .byte   N05
 .byte   W06
 .byte   N05
 .byte   W06
 .byte   N05
 .byte   N05 ,As1
 .byte   W06
 .byte   Cn1
 .byte   W06
 .byte   N05
 .byte   W06
 .byte   N05
 .byte   W06
 .byte   Dn1
 .byte   N05 ,Cs2
 .byte   W06
 .byte   Cn1
 .byte   W06
 .byte   N05
 .byte   W06
 .byte   N05
 .byte   W06
 .byte   N05
 .byte   N05 ,As1
 .byte   W06
 .byte   Cn1
 .byte   W06
 .byte   N05
 .byte   W06
 .byte   N05
 .byte   W06
 .byte   PEND 
@  #08 @023   ----------------------------------------
Label_01512360:
 .byte   N05 ,Dn1 ,v080
 .byte   N05 ,Cs2
 .byte   W06
 .byte   Cn1
 .byte   W06
 .byte   N05
 .byte   W06
 .byte   N05
 .byte   W06
 .byte   N05
 .byte   N05 ,As1
 .byte   W06
 .byte   Cn1
 .byte   W06
 .byte   N05
 .byte   W06
 .byte   N05
 .byte   W06
 .byte   Dn1
 .byte   N05 ,Cs2
 .byte   W06
 .byte   Bn1
 .byte   W06
 .byte   N05
 .byte   W06
 .byte   An1
 .byte   W06
 .byte   N05
 .byte   W06
 .byte   Fn1
 .byte   W06
 .byte   N05
 .byte   W06
 .byte   N05
 .byte   W06
 .byte   PEND 
@  #08 @024   ----------------------------------------
Label_01512389:
 .byte   N11 ,Cn1 ,v080
 .byte   N11 ,Fs1
 .byte   W12
 .byte   Cn1
 .byte   W12
 .byte   Dn1
 .byte   N11 ,Cs2
 .byte   W12
 .byte   Cn1
 .byte   W12
 .byte   Cs2
 .byte   W12
 .byte   N05 ,Cn1
 .byte   W06
 .byte   N05
 .byte   W06
 .byte   N11 ,Dn1
 .byte   N11 ,Cs2
 .byte   W12
 .byte   N05 ,Cn1
 .byte   W06
 .byte   N05
 .byte   W06
 .byte   PEND 
@  #08 @025   ----------------------------------------
Label_015123A9:
 .byte   N11 ,Cn1 ,v080
 .byte   N11 ,Cs2
 .byte   W12
 .byte   Cn1
 .byte   W12
 .byte   Dn1
 .byte   N11 ,Cs2
 .byte   W12
 .byte   Cn1
 .byte   W12
 .byte   Dn1
 .byte   N11 ,Cs2
 .byte   W12
 .byte   N05 ,Cn2
 .byte   W06
 .byte   Bn1
 .byte   W06
 .byte   An1
 .byte   W06
 .byte   Gn1
 .byte   W06
 .byte   Fn1
 .byte   W06
 .byte   N05
 .byte   W06
 .byte   PEND 
@  #08 @026   ----------------------------------------
 .byte   PATT
  .word Label_01512389
@  #08 @027   ----------------------------------------
 .byte   PATT
  .word Label_015123A9
@  #08 @028   ----------------------------------------
 .byte   PATT
  .word Label_01512389
@  #08 @029   ----------------------------------------
 .byte   PATT
  .word Label_015123A9
@  #08 @030   ----------------------------------------
 .byte   PATT
  .word Label_01512389
@  #08 @031   ----------------------------------------
Label_015123E2:
 .byte   N05 ,Cn2 ,v080
 .byte   W06
 .byte   N05
 .byte   W06
 .byte   Dn2
 .byte   W06
 .byte   N05
 .byte   W06
 .byte   Bn1
 .byte   W06
 .byte   N05
 .byte   W06
 .byte   An1
 .byte   W06
 .byte   N05
 .byte   W06
 .byte   Gn1
 .byte   W06
 .byte   N05
 .byte   W06
 .byte   Fn1
 .byte   W06
 .byte   N05
 .byte   W06
 .byte   Dn1
 .byte   W06
 .byte   N05
 .byte   W06
 .byte   N05
 .byte   W06
 .byte   N05
 .byte   W06
 .byte   PEND 
@  #08 @032   ----------------------------------------
 .byte   PATT
  .word Label_01512389
@  #08 @033   ----------------------------------------
 .byte   PATT
  .word Label_015123A9
@  #08 @034   ----------------------------------------
 .byte   PATT
  .word Label_01512389
@  #08 @035   ----------------------------------------
 .byte   PATT
  .word Label_015123A9
@  #08 @036   ----------------------------------------
 .byte   PATT
  .word Label_01512389
@  #08 @037   ----------------------------------------
 .byte   PATT
  .word Label_015123A9
@  #08 @038   ----------------------------------------
 .byte   PATT
  .word Label_01512389
@  #08 @039   ----------------------------------------
 .byte   PATT
  .word Label_015123E2
@  #08 @040   ----------------------------------------
Label_0151242D:
 .byte   N23 ,Cn1 ,v080
 .byte   N23 ,Cs2
 .byte   W24
 .byte   Dn1
 .byte   W24
 .byte   N05 ,Cn1
 .byte   W06
 .byte   N05
 .byte   W06
 .byte   N05
 .byte   W06
 .byte   N05
 .byte   W06
 .byte   N05
 .byte   N05 ,Ds2
 .byte   W06
 .byte   Cn1
 .byte   W06
 .byte   N05
 .byte   W06
 .byte   N05
 .byte   W06
 .byte   PEND 
@  #08 @041   ----------------------------------------
Label_01512449:
 .byte   N05 ,Cn1 ,v080
 .byte   W06
 .byte   N05
 .byte   W06
 .byte   N05
 .byte   W06
 .byte   N05
 .byte   W06
 .byte   Dn1
 .byte   N05 ,Ds2
 .byte   W24
 .byte   N11 ,Cn1
 .byte   W12
 .byte   Dn1
 .byte   W12
 .byte   Ds2
 .byte   W12
 .byte   Cn1
 .byte   W12
 .byte   PEND 
@  #08 @042   ----------------------------------------
Label_01512461:
 .byte   N05 ,Dn1 ,v080
 .byte   W06
 .byte   Cn1
 .byte   W06
 .byte   N05
 .byte   W06
 .byte   N05
 .byte   W06
 .byte   N05
 .byte   N05 ,Ds2
 .byte   W06
 .byte   Cn1
 .byte   W06
 .byte   N11 ,Dn1
 .byte   W12
 .byte   Cn1
 .byte   W12
 .byte   Dn1
 .byte   W12
 .byte   N11
 .byte   N11 ,Ds2
 .byte   W12
 .byte   Dn1
 .byte   W12
 .byte   PEND 
@  #08 @043   ----------------------------------------
 .byte   PATT
  .word Label_0151242D
@  #08 @044   ----------------------------------------
 .byte   PATT
  .word Label_01512449
@  #08 @045   ----------------------------------------
Label_01512489:
 .byte   N11 ,Dn1 ,v080
 .byte   W12
 .byte   N05 ,Cn1
 .byte   W06
 .byte   N05
 .byte   W06
 .byte   N05
 .byte   N11 ,Ds2
 .byte   W06
 .byte   N05 ,Cn1
 .byte   W06
 .byte   N11 ,Dn1
 .byte   W12
 .byte   N05 ,Cn1
 .byte   W06
 .byte   N05
 .byte   W06
 .byte   Dn1
 .byte   W06
 .byte   N05
 .byte   W06
 .byte   Cn2
 .byte   W06
 .byte   Bn1
 .byte   W06
 .byte   An1
 .byte   W06
 .byte   Fn1
 .byte   W06
 .byte   PEND 
@  #08 @046   ----------------------------------------
 .byte   PATT
  .word Label_0151242D
@  #08 @047   ----------------------------------------
 .byte   PATT
  .word Label_01512449
@  #08 @048   ----------------------------------------
 .byte   PATT
  .word Label_01512461
@  #08 @049   ----------------------------------------
 .byte   PATT
  .word Label_0151242D
@  #08 @050   ----------------------------------------
 .byte   PATT
  .word Label_01512449
@  #08 @051   ----------------------------------------
 .byte   PATT
  .word Label_01512489
@  #08 @052   ----------------------------------------
Label_015124CC:
 .byte   N05 ,Dn1 ,v080
 .byte   W06
 .byte   N05
 .byte   W06
 .byte   N05
 .byte   W06
 .byte   N05
 .byte   W06
 .byte   N05
 .byte   W06
 .byte   N05
 .byte   W06
 .byte   N05
 .byte   W06
 .byte   N05
 .byte   W06
 .byte   N03 ,Dn1 ,v096
 .byte   W06
 .byte   N03
 .byte   W06
 .byte   N03
 .byte   W06
 .byte   N03
 .byte   W06
 .byte   N03
 .byte   W06
 .byte   N03
 .byte   W06
 .byte   N03
 .byte   W06
 .byte   N03
 .byte   W06
 .byte   PEND 
@  #08 @053   ----------------------------------------
Label_015124F1:
 .byte   N11 ,Cn1 ,v080
 .byte   N11 ,Cs2
 .byte   W12
 .byte   Cn1
 .byte   W12
 .byte   Dn1
 .byte   N11 ,As1
 .byte   W12
 .byte   Cn1
 .byte   W12
 .byte   N11
 .byte   N11 ,As1
 .byte   W12
 .byte   Cn1
 .byte   W12
 .byte   Dn1
 .byte   N11 ,As1
 .byte   W12
 .byte   Cn1
 .byte   W12
 .byte   PEND 
@  #08 @054   ----------------------------------------
Label_0151250C:
 .byte   N11 ,Cn1 ,v080
 .byte   N11 ,As1
 .byte   W12
 .byte   Cn1
 .byte   W12
 .byte   Dn1
 .byte   N11 ,As1
 .byte   W12
 .byte   Cn1
 .byte   W12
 .byte   N11
 .byte   N11 ,As1
 .byte   W12
 .byte   Cn1
 .byte   W12
 .byte   Dn1
 .byte   N11 ,As1
 .byte   W12
 .byte   N05 ,Cn1
 .byte   W06
 .byte   N05
 .byte   W06
 .byte   PEND 
@  #08 @055   ----------------------------------------
Label_0151252A:
 .byte   N11 ,Cn1 ,v080
 .byte   N11 ,As1
 .byte   W12
 .byte   Cn1
 .byte   W12
 .byte   Dn1
 .byte   N11 ,As1
 .byte   W12
 .byte   Cn1
 .byte   W12
 .byte   N11
 .byte   N11 ,As1
 .byte   W12
 .byte   Cn1
 .byte   W12
 .byte   Dn1
 .byte   N11 ,As1
 .byte   W12
 .byte   Cn1
 .byte   W12
 .byte   PEND 
@  #08 @056   ----------------------------------------
Label_01512545:
 .byte   N11 ,Cn1 ,v080
 .byte   N11 ,As1
 .byte   W12
 .byte   Cn1
 .byte   W12
 .byte   Dn1
 .byte   N11 ,As1
 .byte   W12
 .byte   Cn1
 .byte   W12
 .byte   N11
 .byte   N11 ,As1
 .byte   W12
 .byte   Dn1
 .byte   W12
 .byte   N11
 .byte   N11 ,As1
 .byte   W12
 .byte   N05 ,Cn1
 .byte   N11 ,Dn1
 .byte   N11 ,Fs1
 .byte   W06
 .byte   N05 ,Cn1
 .byte   W06
 .byte   PEND 
@  #08 @057   ----------------------------------------
 .byte   PATT
  .word Label_015124F1
@  #08 @058   ----------------------------------------
 .byte   PATT
  .word Label_0151250C
@  #08 @059   ----------------------------------------
 .byte   PATT
  .word Label_0151252A
@  #08 @060   ----------------------------------------
Label_01512577:
 .byte   N11 ,Cn1 ,v080
 .byte   N11 ,As1
 .byte   W12
 .byte   Cn1
 .byte   W12
 .byte   Dn1
 .byte   N11 ,As1
 .byte   W12
 .byte   Cn1
 .byte   W12
 .byte   N05 ,Bn1
 .byte   W06
 .byte   N05
 .byte   W06
 .byte   Cn2
 .byte   W06
 .byte   N05
 .byte   W06
 .byte   An1
 .byte   W06
 .byte   N05
 .byte   W06
 .byte   Fn1
 .byte   W06
 .byte   N05
 .byte   W06
 .byte   PEND 
@  #08 @061   ----------------------------------------
 .byte   PATT
  .word Label_015124F1
@  #08 @062   ----------------------------------------
 .byte   PATT
  .word Label_0151250C
@  #08 @063   ----------------------------------------
 .byte   PATT
  .word Label_0151252A
@  #08 @064   ----------------------------------------
 .byte   PATT
  .word Label_01512545
@  #08 @065   ----------------------------------------
 .byte   PATT
  .word Label_015124F1
@  #08 @066   ----------------------------------------
 .byte   PATT
  .word Label_0151250C
@  #08 @067   ----------------------------------------
 .byte   PATT
  .word Label_0151252A
@  #08 @068   ----------------------------------------
 .byte   PATT
  .word Label_01512577
@  #08 @069   ----------------------------------------
Label_015125BF:
 .byte   N23 ,Cn1 ,v080
 .byte   N23 ,Cs2
 .byte   W24
 .byte   Dn1
 .byte   N23 ,As1
 .byte   W24
 .byte   N05 ,Cn1
 .byte   N23 ,As1
 .byte   W06
 .byte   N05 ,Cn1
 .byte   W06
 .byte   N11
 .byte   W12
 .byte   N23 ,Dn1
 .byte   N23 ,As1
 .byte   W24
 .byte   PEND 
@  #08 @070   ----------------------------------------
Label_015125D9:
 .byte   N05 ,Cn1 ,v080
 .byte   N23 ,As1
 .byte   W06
 .byte   N05 ,Cn1
 .byte   W06
 .byte   N11
 .byte   W12
 .byte   N23 ,Dn1
 .byte   N23 ,As1
 .byte   W24
 .byte   N11 ,Cn1
 .byte   N23 ,As1
 .byte   W12
 .byte   N05 ,Cn1
 .byte   W06
 .byte   N05
 .byte   W06
 .byte   N23 ,Dn1
 .byte   N23 ,As1
 .byte   W12
 .byte   N11 ,Cn1
 .byte   W12
 .byte   PEND 
@  #08 @071   ----------------------------------------
Label_015125FC:
 .byte   N23 ,Cn1 ,v080
 .byte   N23 ,Cs2
 .byte   W24
 .byte   Dn1
 .byte   N23 ,As1
 .byte   W24
 .byte   N05 ,Cn1
 .byte   N23 ,As1
 .byte   W06
 .byte   N05 ,Cn1
 .byte   W06
 .byte   N11
 .byte   W12
 .byte   N23 ,Dn1
 .byte   N23 ,As1
 .byte   W12
 .byte   N11 ,Cn1
 .byte   W12
 .byte   PEND 
@  #08 @072   ----------------------------------------
Label_01512619:
 .byte   N23 ,As1 ,v080
 .byte   W12
 .byte   N05 ,Cn1
 .byte   W06
 .byte   N05
 .byte   W06
 .byte   N23 ,Dn1
 .byte   N23 ,As1
 .byte   W12
 .byte   N11 ,Cn1
 .byte   W12
 .byte   N23 ,Dn1
 .byte   N23 ,Cs2
 .byte   W12
 .byte   N05 ,Cn1
 .byte   W06
 .byte   N05
 .byte   W06
 .byte   N11 ,Dn1
 .byte   N11 ,As1
 .byte   W12
 .byte   Dn1
 .byte   W12
 .byte   PEND 
@  #08 @073   ----------------------------------------
 .byte   PATT
  .word Label_015125BF
@  #08 @074   ----------------------------------------
 .byte   PATT
  .word Label_015125D9
@  #08 @075   ----------------------------------------
 .byte   PATT
  .word Label_015125FC
@  #08 @076   ----------------------------------------
Label_0151264B:
 .byte   N23 ,As1 ,v080
 .byte   W12
 .byte   N05 ,Cn1
 .byte   W06
 .byte   N05
 .byte   W06
 .byte   N23 ,Dn1
 .byte   N23 ,As1
 .byte   W12
 .byte   N11 ,Cn1
 .byte   W12
 .byte   N05 ,Bn1
 .byte   W06
 .byte   N05
 .byte   W06
 .byte   Cn2
 .byte   W06
 .byte   N05
 .byte   W06
 .byte   An1
 .byte   W06
 .byte   N05
 .byte   W06
 .byte   Fn1
 .byte   W06
 .byte   N05
 .byte   W06
 .byte   PEND 
@  #08 @077   ----------------------------------------
 .byte   PATT
  .word Label_015125BF
@  #08 @078   ----------------------------------------
 .byte   PATT
  .word Label_015125D9
@  #08 @079   ----------------------------------------
 .byte   PATT
  .word Label_015125FC
@  #08 @080   ----------------------------------------
 .byte   PATT
  .word Label_01512619
@  #08 @081   ----------------------------------------
 .byte   PATT
  .word Label_015125BF
@  #08 @082   ----------------------------------------
 .byte   PATT
  .word Label_015125D9
@  #08 @083   ----------------------------------------
 .byte   PATT
  .word Label_015125FC
@  #08 @084   ----------------------------------------
 .byte   PATT
  .word Label_0151264B
@  #08 @085   ----------------------------------------
Label_01512696:
 .byte   N23 ,Cn1 ,v080
 .byte   N23 ,Ds2
 .byte   W24
 .byte   Cn1
 .byte   N23 ,Cs2
 .byte   W24
 .byte   N11 ,Cn1
 .byte   W12
 .byte   Dn1
 .byte   N11 ,Cs2
 .byte   W24
 .byte   Dn1
 .byte   W12
 .byte   PEND 
@  #08 @086   ----------------------------------------
Label_015126AA:
 .byte   N23 ,Cn1 ,v080
 .byte   N23 ,Ds2
 .byte   W24
 .byte   Cn1
 .byte   N23 ,Cs2
 .byte   W24
 .byte   N11 ,Cn1
 .byte   W12
 .byte   Dn1
 .byte   N11 ,Cs2
 .byte   W12
 .byte   Gn1
 .byte   W12
 .byte   N11
 .byte   W12
 .byte   PEND 
@  #08 @087   ----------------------------------------
Label_015126C0:
 .byte   N23 ,Cn1 ,v080
 .byte   N23 ,Ds2
 .byte   W24
 .byte   N11 ,Cn1
 .byte   N23 ,Cs2
 .byte   W12
 .byte   N05 ,Cn1
 .byte   W06
 .byte   N05
 .byte   W06
 .byte   N11 ,Dn1
 .byte   N11 ,Cs2
 .byte   W24
 .byte   Dn1
 .byte   N11 ,Ds2
 .byte   W12
 .byte   Cn1
 .byte   N11 ,Cs2
 .byte   W12
 .byte   PEND 
@  #08 @088   ----------------------------------------
Label_015126DE:
 .byte   W12
 .byte   N11 ,Dn1 ,v080
 .byte   N11 ,Cs2
 .byte   W12
 .byte   Cn1
 .byte   W12
 .byte   N11
 .byte   W12
 .byte   Dn1
 .byte   N11 ,Cs2
 .byte   W12
 .byte   Cn1
 .byte   W12
 .byte   Dn1
 .byte   N11 ,Cs2
 .byte   W12
 .byte   Dn1
 .byte   W12
 .byte   PEND 
@  #08 @089   ----------------------------------------
 .byte   PATT
  .word Label_01512696
@  #08 @090   ----------------------------------------
 .byte   PATT
  .word Label_015126AA
@  #08 @091   ----------------------------------------
 .byte   PATT
  .word Label_015126C0
@  #08 @092   ----------------------------------------
 .byte   PATT
  .word Label_015126DE
@  #08 @093   ----------------------------------------
Label_0151270A:
 .byte   N11 ,Cn1 ,v080
 .byte   N11 ,Cs2
 .byte   W12
 .byte   Cn1
 .byte   W12
 .byte   N11
 .byte   N11 ,Cs2
 .byte   W12
 .byte   Cn1
 .byte   W12
 .byte   N11
 .byte   N11 ,Cs2
 .byte   W12
 .byte   Cn1
 .byte   W12
 .byte   N11
 .byte   N11 ,Dn1
 .byte   N11 ,Cs2
 .byte   W12
 .byte   Cn1
 .byte   W12
 .byte   PEND 
@  #08 @094   ----------------------------------------
Label_01512727:
 .byte   N11 ,Cn1 ,v080
 .byte   N11 ,Cs2
 .byte   W12
 .byte   Cn1
 .byte   N11 ,Dn1
 .byte   W12
 .byte   Cn1
 .byte   N11 ,Cs2
 .byte   W12
 .byte   Cn1
 .byte   W12
 .byte   N11
 .byte   N11 ,Cs2
 .byte   W12
 .byte   Cn1
 .byte   W12
 .byte   N11
 .byte   N11 ,Dn1
 .byte   N11 ,Cs2
 .byte   W12
 .byte   Cn1
 .byte   W12
 .byte   PEND 
@  #08 @095   ----------------------------------------
 .byte   PATT
  .word Label_0151270A
@  #08 @096   ----------------------------------------
 .byte   PATT
  .word Label_01512727
@  #08 @097   ----------------------------------------
 .byte   N23 ,Cn1 ,v080
 .byte   N44 ,Cs2
 .byte   W48
 .byte   N05 ,Cn1
 .byte   N44 ,As1
 .byte   W06
 .byte   N05 ,Cn1
 .byte   W06
 .byte   N05
 .byte   W06
 .byte   N05
 .byte   W06
 .byte   N05
 .byte   W06
 .byte   N05
 .byte   W06
 .byte   N05
 .byte   W06
 .byte   N05
 .byte   W06
@  #08 @098   ----------------------------------------
 .byte   N23
 .byte   N44 ,Dn1
 .byte   N44 ,Cs2
 .byte   W36
 .byte   N05 ,Cn1
 .byte   W06
 .byte   N05
 .byte   W06
 .byte   N11
 .byte   N23 ,Cs2
 .byte   W12
 .byte   N11 ,Cn1
 .byte   W12
 .byte   N11
 .byte   N23 ,Cs2
 .byte   W12
 .byte   N11 ,Cn1
 .byte   W12
@  #08 @099   ----------------------------------------
 .byte   N23 ,Dn1
 .byte   N23 ,Cs2
 .byte   W24
 .byte   N11 ,Cn1
 .byte   W12
 .byte   Dn1
 .byte   W12
 .byte   Cn1
 .byte   W12
 .byte   N11
 .byte   W12
 .byte   N23 ,Dn1
 .byte   N23 ,Cs2
 .byte   W24
@  #08 @100   ----------------------------------------
 .byte   N05 ,Dn1
 .byte   W06
 .byte   N05
 .byte   W06
 .byte   N05
 .byte   W06
 .byte   N05
 .byte   W06
 .byte   N11
 .byte   W12
 .byte   Cn1
 .byte   N11 ,As1
 .byte   W12
 .byte   Dn1
 .byte   W12
 .byte   N11
 .byte   W12
 .byte   N11
 .byte   W12
 .byte   N11
 .byte   W12
@  #08 @101   ----------------------------------------
 .byte   PATT
  .word Label_01512270
@  #08 @102   ----------------------------------------
 .byte   W96
@  #08 @103   ----------------------------------------
 .byte   W96
@  #08 @104   ----------------------------------------
 .byte   W60
 .byte   N11 ,Cn1 ,v080
 .byte   N11 ,Dn1
 .byte   W12
 .byte   Cn1
 .byte   N11 ,Dn1
 .byte   W12
 .byte   Cn1
 .byte   N11 ,Dn1
 .byte   W12
@  #08 @105   ----------------------------------------
 .byte   Cn1
 .byte   N11 ,Cs2
 .byte   W12
 .byte   Cn1
 .byte   N11 ,Cs2
 .byte   W36
 .byte   N23 ,Cn1
 .byte   W48
@  #08 @106   ----------------------------------------
Label_015127CE:
 .byte   N23 ,Cn1 ,v080
 .byte   W48
 .byte   N23
 .byte   W48
 .byte   PEND 
@  #08 @107   ----------------------------------------
 .byte   PATT
  .word Label_015127CE
@  #08 @108   ----------------------------------------
 .byte   PATT
  .word Label_0151227D
@  #08 @109   ----------------------------------------
Label_015127DF:
 .byte   N23 ,Cn1 ,v080
 .byte   N23 ,As1
 .byte   N23 ,Cs2
 .byte   W24
 .byte   Cn1
 .byte   N23 ,As1
 .byte   W24
 .byte   Cn1
 .byte   N23 ,Dn1
 .byte   N23 ,As1
 .byte   W24
 .byte   Cn1
 .byte   N23 ,As1
 .byte   W24
 .byte   PEND 
@  #08 @110   ----------------------------------------
Label_015127F6:
 .byte   N23 ,Cn1 ,v080
 .byte   N23 ,As1
 .byte   W24
 .byte   Cn1
 .byte   N23 ,As1
 .byte   W24
 .byte   Cn1
 .byte   N23 ,Dn1
 .byte   N23 ,As1
 .byte   W24
 .byte   Cn1
 .byte   N23 ,As1
 .byte   W24
 .byte   PEND 
@  #08 @111   ----------------------------------------
 .byte   PATT
  .word Label_015127DF
@  #08 @112   ----------------------------------------
 .byte   PATT
  .word Label_015127F6
@  #08 @113   ----------------------------------------
 .byte   PATT
  .word Label_015127DF
@  #08 @114   ----------------------------------------
 .byte   PATT
  .word Label_015127F6
@  #08 @115   ----------------------------------------
 .byte   PATT
  .word Label_01512335
@  #08 @116   ----------------------------------------
 .byte   PATT
  .word Label_01512360
@  #08 @117   ----------------------------------------
 .byte   PATT
  .word Label_01512389
@  #08 @118   ----------------------------------------
 .byte   PATT
  .word Label_015123A9
@  #08 @119   ----------------------------------------
 .byte   PATT
  .word Label_01512389
@  #08 @120   ----------------------------------------
 .byte   PATT
  .word Label_015123A9
@  #08 @121   ----------------------------------------
 .byte   PATT
  .word Label_01512389
@  #08 @122   ----------------------------------------
 .byte   PATT
  .word Label_015123A9
@  #08 @123   ----------------------------------------
 .byte   PATT
  .word Label_01512389
@  #08 @124   ----------------------------------------
 .byte   PATT
  .word Label_015123E2
@  #08 @125   ----------------------------------------
 .byte   PATT
  .word Label_01512389
@  #08 @126   ----------------------------------------
 .byte   PATT
  .word Label_015123A9
@  #08 @127   ----------------------------------------
 .byte   PATT
  .word Label_01512389
@  #08 @128   ----------------------------------------
 .byte   PATT
  .word Label_015123A9
@  #08 @129   ----------------------------------------
 .byte   PATT
  .word Label_01512389
@  #08 @130   ----------------------------------------
 .byte   PATT
  .word Label_015123A9
@  #08 @131   ----------------------------------------
 .byte   PATT
  .word Label_01512489
@  #08 @132   ----------------------------------------
 .byte   PATT
  .word Label_015124CC
@  #08 @133   ----------------------------------------
 .byte   PATT
  .word Label_015124F1
@  #08 @134   ----------------------------------------
 .byte   PATT
  .word Label_0151250C
@  #08 @135   ----------------------------------------
 .byte   PATT
  .word Label_0151252A
@  #08 @136   ----------------------------------------
 .byte   PATT
  .word Label_01512545
@  #08 @137   ----------------------------------------
 .byte   PATT
  .word Label_015124F1
@  #08 @138   ----------------------------------------
 .byte   PATT
  .word Label_0151250C
@  #08 @139   ----------------------------------------
 .byte   PATT
  .word Label_0151252A
@  #08 @140   ----------------------------------------
 .byte   PATT
  .word Label_01512577
@  #08 @141   ----------------------------------------
 .byte   PATT
  .word Label_015124F1
@  #08 @142   ----------------------------------------
 .byte   PATT
  .word Label_0151250C
@  #08 @143   ----------------------------------------
 .byte   PATT
  .word Label_0151252A
@  #08 @144   ----------------------------------------
 .byte   PATT
  .word Label_01512545
@  #08 @145   ----------------------------------------
 .byte   PATT
  .word Label_015124F1
@  #08 @146   ----------------------------------------
 .byte   PATT
  .word Label_0151250C
@  #08 @147   ----------------------------------------
 .byte   PATT
  .word Label_0151252A
@  #08 @148   ----------------------------------------
 .byte   PATT
  .word Label_01512577
@  #08 @149   ----------------------------------------
 .byte   PATT
  .word Label_015125BF
@  #08 @150   ----------------------------------------
 .byte   PATT
  .word Label_015125D9
@  #08 @151   ----------------------------------------
 .byte   PATT
  .word Label_015125FC
@  #08 @152   ----------------------------------------
 .byte   PATT
  .word Label_01512619
@  #08 @153   ----------------------------------------
 .byte   PATT
  .word Label_015125BF
@  #08 @154   ----------------------------------------
 .byte   PATT
  .word Label_015125D9
@  #08 @155   ----------------------------------------
 .byte   PATT
  .word Label_015125FC
@  #08 @156   ----------------------------------------
 .byte   PATT
  .word Label_0151264B
@  #08 @157   ----------------------------------------
 .byte   PATT
  .word Label_015125BF
@  #08 @158   ----------------------------------------
 .byte   PATT
  .word Label_015125D9
@  #08 @159   ----------------------------------------
 .byte   PATT
  .word Label_015125FC
@  #08 @160   ----------------------------------------
 .byte   PATT
  .word Label_01512619
@  #08 @161   ----------------------------------------
 .byte   PATT
  .word Label_015125BF
@  #08 @162   ----------------------------------------
 .byte   PATT
  .word Label_015125D9
@  #08 @163   ----------------------------------------
 .byte   PATT
  .word Label_015125FC
@  #08 @164   ----------------------------------------
 .byte   PATT
  .word Label_0151264B
@  #08 @165   ----------------------------------------
 .byte   PATT
  .word Label_015124F1
@  #08 @166   ----------------------------------------
 .byte   PATT
  .word Label_0151250C
@  #08 @167   ----------------------------------------
 .byte   PATT
  .word Label_0151252A
@  #08 @168   ----------------------------------------
 .byte   PATT
  .word Label_01512545
@  #08 @169   ----------------------------------------
 .byte   PATT
  .word Label_015124F1
@  #08 @170   ----------------------------------------
 .byte   PATT
  .word Label_0151250C
@  #08 @171   ----------------------------------------
 .byte   PATT
  .word Label_0151252A
@  #08 @172   ----------------------------------------
 .byte   PATT
  .word Label_01512577
@  #08 @173   ----------------------------------------
 .byte   PATT
  .word Label_015124F1
@  #08 @174   ----------------------------------------
 .byte   PATT
  .word Label_0151250C
@  #08 @175   ----------------------------------------
 .byte   PATT
  .word Label_0151252A
@  #08 @176   ----------------------------------------
 .byte   PATT
  .word Label_01512545
@  #08 @177   ----------------------------------------
 .byte   PATT
  .word Label_015124F1
@  #08 @178   ----------------------------------------
 .byte   PATT
  .word Label_0151250C
@  #08 @179   ----------------------------------------
 .byte   PATT
  .word Label_0151252A
@  #08 @180   ----------------------------------------
 .byte   PATT
  .word Label_01512577
@  #08 @181   ----------------------------------------
 .byte   PATT
  .word Label_015125BF
@  #08 @182   ----------------------------------------
 .byte   PATT
  .word Label_015125D9
@  #08 @183   ----------------------------------------
 .byte   PATT
  .word Label_015125FC
@  #08 @184   ----------------------------------------
 .byte   PATT
  .word Label_01512619
@  #08 @185   ----------------------------------------
 .byte   PATT
  .word Label_015125BF
@  #08 @186   ----------------------------------------
 .byte   PATT
  .word Label_015125D9
@  #08 @187   ----------------------------------------
 .byte   PATT
  .word Label_015125FC
@  #08 @188   ----------------------------------------
 .byte   PATT
  .word Label_0151264B
@  #08 @189   ----------------------------------------
 .byte   PATT
  .word Label_015125BF
@  #08 @190   ----------------------------------------
 .byte   PATT
  .word Label_015125D9
@  #08 @191   ----------------------------------------
 .byte   PATT
  .word Label_015125FC
@  #08 @192   ----------------------------------------
 .byte   PATT
  .word Label_01512619
@  #08 @193   ----------------------------------------
 .byte   PATT
  .word Label_015125BF
@  #08 @194   ----------------------------------------
 .byte   PATT
  .word Label_015125D9
@  #08 @195   ----------------------------------------
 .byte   PATT
  .word Label_015125FC
@  #08 @196   ----------------------------------------
 .byte   PATT
  .word Label_0151264B
@  #08 @197   ----------------------------------------
 .byte   N92 ,Cs2 ,v080
 .byte   W96
@  #08 @198   ----------------------------------------
 .byte   W96
@  #08 @199   ----------------------------------------
 .byte   W96
@  #08 @200   ----------------------------------------
 .byte   W96
@  #08 @201   ----------------------------------------
 .byte   W96
@  #08 @202   ----------------------------------------
 .byte   W96
@  #08 @203   ----------------------------------------
 .byte   W96
@  #08 @204   ----------------------------------------
 .byte   W96
@  #08 @205   ----------------------------------------
 .byte   N92
 .byte   W96
@  #08 @206   ----------------------------------------
 .byte   W96
@  #08 @207   ----------------------------------------
 .byte   W96
@  #08 @208   ----------------------------------------
 .byte   W96
@  #08 @209   ----------------------------------------
 .byte   W96
@  #08 @210   ----------------------------------------
 .byte   W96
@  #08 @211   ----------------------------------------
 .byte   W96
@  #08 @212   ----------------------------------------
 .byte   W96
@  #08 @213   ----------------------------------------
 .byte   W72
 .byte   GOTO
  .word Label_01512262
 .byte   FINE

@******************************************************@
	.align	2

song013A:
	.byte	8	@ NumTrks
	.byte	0	@ NumBlks
	.byte	song013A_pri	@ Priority
	.byte	song013A_rev	@ Reverb.
    
	.word	song013A_grp
    
	.word	song013A_001
	.word	song013A_002
	.word	song013A_003
	.word	song013A_004
	.word	song013A_005
	.word	song013A_006
	.word	song013A_007
	.word	song013A_008

	.end
