//Event file generated from Sappy .s format.
	#include "MPlayDef.event"

	#define	UnmarkedGrave_grp  voicegroup000
	#define	UnmarkedGrave_pri  0
	#define	UnmarkedGrave_rev  0
	#define	UnmarkedGrave_mvl  127
	#define	UnmarkedGrave_key  0
	#define	UnmarkedGrave_tbs  1
	#define	UnmarkedGrave_exg  0
	#define	UnmarkedGrave_cmp  1

	// .rodata
	//	UnmarkedGrave
	ALIGN 4


//**************** Track 1 (Midi-Chn.0) ****************//

UnmarkedGrave_001:
//  #01 //000   ----------------------------------------
 BYTE   KEYSH   UnmarkedGrave_key+0
 BYTE   TEMPO   92*UnmarkedGrave_tbs/2
 BYTE   VOICE   18
 BYTE   VOL   39*UnmarkedGrave_mvl/mxv
 BYTE   PAN   c_v+0
 BYTE   W96
//  #01 //001   ----------------------------------------
Label_0163F686:
 BYTE   W96
//  #01 //002   ----------------------------------------
 BYTE   W96
//  #01 //003   ----------------------------------------
 BYTE   W96
//  #01 //004   ----------------------------------------
 BYTE   W96
//  #01 //005   ----------------------------------------
 BYTE   W96
//  #01 //006   ----------------------------------------
 BYTE   W96
//  #01 //007   ----------------------------------------
 BYTE   W96
//  #01 //008   ----------------------------------------
 BYTE   W96
//  #01 //009   ----------------------------------------
 BYTE   W96
//  #01 //010   ----------------------------------------
 BYTE   W96
//  #01 //011   ----------------------------------------
 BYTE   W96
//  #01 //012   ----------------------------------------
 BYTE   W96
//  #01 //013   ----------------------------------------
 BYTE   W96
//  #01 //014   ----------------------------------------
 BYTE   W96
//  #01 //015   ----------------------------------------
 BYTE   W96
//  #01 //016   ----------------------------------------
 BYTE   W96
//  #01 //017   ----------------------------------------
 BYTE   W96
//  #01 //018   ----------------------------------------
 BYTE   W96
//  #01 //019   ----------------------------------------
 BYTE   W96
//  #01 //020   ----------------------------------------
 BYTE   W96
//  #01 //021   ----------------------------------------
 BYTE   W96
//  #01 //022   ----------------------------------------
 BYTE   W96
//  #01 //023   ----------------------------------------
 BYTE   W96
//  #01 //024   ----------------------------------------
 BYTE   W96
//  #01 //025   ----------------------------------------
 BYTE   W96
//  #01 //026   ----------------------------------------
 BYTE   W96
//  #01 //027   ----------------------------------------
 BYTE   W96
//  #01 //028   ----------------------------------------
 BYTE   W96
//  #01 //029   ----------------------------------------
 BYTE   W96
//  #01 //030   ----------------------------------------
 BYTE   W96
//  #01 //031   ----------------------------------------
 BYTE   W96
//  #01 //032   ----------------------------------------
 BYTE   W96
//  #01 //033   ----------------------------------------
 BYTE   W96
//  #01 //034   ----------------------------------------
 BYTE   W96
//  #01 //035   ----------------------------------------
 BYTE   W96
//  #01 //036   ----------------------------------------
 BYTE   W96
//  #01 //037   ----------------------------------------
 BYTE   W48
 BYTE   N11  As4  v036
 BYTE   W12
 BYTE   An4
 BYTE   W12
 BYTE   N11
 BYTE   W12
 BYTE   Gn4
 BYTE   W12
//  #01 //038   ----------------------------------------
 BYTE   N11
 BYTE   W12
 BYTE   Cn5
 BYTE   W12
 BYTE   N23  An4
 BYTE   W24
 BYTE   N32  Fn4
 BYTE   W48
//  #01 //039   ----------------------------------------
 BYTE   N11  As4
 BYTE   W12
 BYTE   An4
 BYTE   W12
 BYTE   N11
 BYTE   W12
 BYTE   Gn4  v040
 BYTE   W12
 BYTE   N11
 BYTE   W12
 BYTE   Dn5
 BYTE   W12
 BYTE   Cn5
 BYTE   W12
 BYTE   Fn5
 BYTE   W12
//  #01 //040   ----------------------------------------
 BYTE   N23  Cn5
 BYTE   W48
 BYTE   N11  As4
 BYTE   W12
 BYTE   An4
 BYTE   W12
 BYTE   N11
 BYTE   W12
 BYTE   Gn4
 BYTE   W12
//  #01 //041   ----------------------------------------
 BYTE   An4
 BYTE   W12
 BYTE   As4  v044
 BYTE   W12
 BYTE   Cn5
 BYTE   W12
 BYTE   As4
 BYTE   W12
 BYTE   An4
 BYTE   W12
 BYTE   As4
 BYTE   W12
 BYTE   Cn5
 BYTE   W24
//  #01 //042   ----------------------------------------
 BYTE   Dn5
 BYTE   W12
 BYTE   Cn5
 BYTE   W12
 BYTE   As4  v048
 BYTE   W12
 BYTE   Cn5
 BYTE   W12
 BYTE   Dn5
 BYTE   W12
 BYTE   Gn5
 BYTE   W12
 BYTE   En5
 BYTE   W12
 BYTE   Dn5
 BYTE   W12
//  #01 //043   ----------------------------------------
 BYTE   Cs5
 BYTE   W12
 BYTE   Dn5  v052
 BYTE   W12
 BYTE   En5
 BYTE   W12
 BYTE   As5
 BYTE   W12
 BYTE   N24  An4  v056
 BYTE   W24
 BYTE   En4
 BYTE   W24
//  #01 //044   ----------------------------------------
 BYTE   Fn4
 BYTE   W24
 BYTE   N36  Dn4
 BYTE   W48
 BYTE   N11
 BYTE   W12
 BYTE   N08  Cn4
 BYTE   W12
//  #01 //045   ----------------------------------------
 BYTE   N11
 BYTE   W12
 BYTE   N09  As3
 BYTE   W12
 BYTE   N36
 BYTE   W36
 BYTE   N10  An3  v052
 BYTE   W12
 BYTE   N23
 BYTE   W24
//  #01 //046   ----------------------------------------
 BYTE   N24  Gn3  v048
 BYTE   W48
 BYTE   N68  An2
 BYTE   N68  Fn4
 BYTE   W48
//  #01 //047   ----------------------------------------
 BYTE   W24
 BYTE   N23  An2
 BYTE   N44  Fs4
 BYTE   W24
 BYTE   N40  Dn3  v052
 BYTE   W24
 BYTE   N23  An4  v048
 BYTE   W24
//  #01 //048   ----------------------------------------
 BYTE   N44  Dn3  v056
 BYTE   N44  As4  v048
 BYTE   W48
 BYTE   N23  Gn3  v056
 BYTE   N23  Dn5  v048
 BYTE   W24
 BYTE   N44  En3  v064
 BYTE   N32  Cs5  v052
 BYTE   W24
//  #01 //049   ----------------------------------------
 BYTE   W12
 BYTE   N11  Dn5
 BYTE   W12
 BYTE   N17  An3  v064
 BYTE   N23  En5  v052
 BYTE   W24
 BYTE   N44  An3  v064
 BYTE   N32  Gn5  v056
 BYTE   W36
 BYTE   N11  Fn5  v052
 BYTE   W12
//  #01 //050   ----------------------------------------
 BYTE   N23  Dn3  v056
 BYTE   N11  Fn5  v052
 BYTE   W12
 BYTE   En5
 BYTE   W12
 BYTE   N23  Dn3  v056
 BYTE   N23  En5  v052
 BYTE   W24
 BYTE   Gn3  v056
 BYTE   N23  Dn5  v052
 BYTE   W48
//  #01 //051   ----------------------------------------
 BYTE   N68  Gn2  v048
 BYTE   W72
 BYTE   N64  Cn3  v044
 BYTE   W24
//  #01 //052   ----------------------------------------
 BYTE   W96
//  #01 //053   ----------------------------------------
 BYTE   W96
//  #01 //054   ----------------------------------------
 BYTE   W96
//  #01 //055   ----------------------------------------
 BYTE   W96
//  #01 //056   ----------------------------------------
 BYTE   W96
//  #01 //057   ----------------------------------------
 BYTE   W96
//  #01 //058   ----------------------------------------
 BYTE   W96
//  #01 //059   ----------------------------------------
 BYTE   W96
//  #01 //060   ----------------------------------------
 BYTE   W96
//  #01 //061   ----------------------------------------
 BYTE   W96
//  #01 //062   ----------------------------------------
 BYTE   GoTo
  POIN2 Label_0163F686
 BYTE   FINE

//**************** Track 2 (Midi-Chn.1) ****************//

UnmarkedGrave_002:
//  #02 //000   ----------------------------------------
 BYTE   KEYSH   UnmarkedGrave_key+0
 BYTE   VOICE   1
 BYTE   VOL   48*UnmarkedGrave_mvl/mxv
 BYTE   PAN   c_v-50
 BYTE   W96
//  #02 //001   ----------------------------------------
Label_0163F21A:
 BYTE   W96
//  #02 //002   ----------------------------------------
 BYTE   W96
//  #02 //003   ----------------------------------------
 BYTE   W96
//  #02 //004   ----------------------------------------
 BYTE   W96
//  #02 //005   ----------------------------------------
 BYTE   W96
//  #02 //006   ----------------------------------------
 BYTE   W96
//  #02 //007   ----------------------------------------
 BYTE   W96
//  #02 //008   ----------------------------------------
 BYTE   W96
//  #02 //009   ----------------------------------------
 BYTE   W96
//  #02 //010   ----------------------------------------
 BYTE   W96
//  #02 //011   ----------------------------------------
 BYTE   W96
//  #02 //012   ----------------------------------------
 BYTE   W96
//  #02 //013   ----------------------------------------
 BYTE   W96
//  #02 //014   ----------------------------------------
 BYTE   W96
//  #02 //015   ----------------------------------------
 BYTE   W96
//  #02 //016   ----------------------------------------
 BYTE   W96
//  #02 //017   ----------------------------------------
 BYTE   W96
//  #02 //018   ----------------------------------------
 BYTE   W96
//  #02 //019   ----------------------------------------
 BYTE   W96
//  #02 //020   ----------------------------------------
 BYTE   W24
 BYTE   N36  Ds3  v064
 BYTE   W72
//  #02 //021   ----------------------------------------
 BYTE   W72
 BYTE   N48  Cs3
 BYTE   W24
//  #02 //022   ----------------------------------------
 BYTE   W96
//  #02 //023   ----------------------------------------
 BYTE   W24
 BYTE   N10  Gn3
 BYTE   W24
 BYTE   N24  Fn3
 BYTE   W48
//  #02 //024   ----------------------------------------
 BYTE   W72
 BYTE   N08  As2  v060
 BYTE   W24
//  #02 //025   ----------------------------------------
 BYTE   N21  An2  v064
 BYTE   W96
//  #02 //026   ----------------------------------------
 BYTE   W24
 BYTE   N05  An3
 BYTE   W24
 BYTE   N04  Dn3
 BYTE   W24
 BYTE   N05  An2
 BYTE   W24
//  #02 //027   ----------------------------------------
 BYTE   Dn2
 BYTE   W72
 BYTE   Gn3
 BYTE   W24
//  #02 //028   ----------------------------------------
 BYTE   N04  Dn3
 BYTE   W24
 BYTE   N05  Gn2
 BYTE   W72
//  #02 //029   ----------------------------------------
 BYTE   W24
 BYTE   N04
 BYTE   W24
 BYTE   Cn3
 BYTE   W24
 BYTE   Gn3
 BYTE   W24
//  #02 //030   ----------------------------------------
 BYTE   W72
 BYTE   Cn3  v068
 BYTE   W24
//  #02 //031   ----------------------------------------
 BYTE   Gn3
 BYTE   W24
 BYTE   N03  Cn4  v084
 BYTE   W72
//  #02 //032   ----------------------------------------
 BYTE   W96
//  #02 //033   ----------------------------------------
 BYTE   W96
//  #02 //034   ----------------------------------------
 BYTE   W96
//  #02 //035   ----------------------------------------
 BYTE   W96
//  #02 //036   ----------------------------------------
 BYTE   W96
//  #02 //037   ----------------------------------------
 BYTE   W96
//  #02 //038   ----------------------------------------
 BYTE   W96
//  #02 //039   ----------------------------------------
 BYTE   W96
//  #02 //040   ----------------------------------------
 BYTE   W96
//  #02 //041   ----------------------------------------
 BYTE   W96
//  #02 //042   ----------------------------------------
 BYTE   W96
//  #02 //043   ----------------------------------------
 BYTE   W48
 BYTE   N05  An3  v104
 BYTE   W24
 BYTE   N04  En3
 BYTE   W24
//  #02 //044   ----------------------------------------
 BYTE   Fn3
 BYTE   W24
 BYTE   N05  Dn3
 BYTE   W72
//  #02 //045   ----------------------------------------
 BYTE   W96
//  #02 //046   ----------------------------------------
 BYTE   W96
//  #02 //047   ----------------------------------------
 BYTE   W96
//  #02 //048   ----------------------------------------
 BYTE   W96
//  #02 //049   ----------------------------------------
 BYTE   W48
 BYTE   N04  Gn3  v100
 BYTE   W32
 BYTE   W02
 BYTE   N03  Fn3  v084
 BYTE   W12
 BYTE   Fn3  v092
 BYTE   W02
//  #02 //050   ----------------------------------------
 BYTE   W11
 BYTE   En3  v088
 BYTE   W13
 BYTE   N04  En3  v084
 BYTE   W24
 BYTE   Dn3  v080
 BYTE   W48
//  #02 //051   ----------------------------------------
 BYTE   W96
//  #02 //052   ----------------------------------------
 BYTE   W96
//  #02 //053   ----------------------------------------
Label_0163F2A9:
 BYTE   W24
 BYTE   N24  Gn2  v064
 BYTE   W24
 BYTE   N44  Dn3  v056
 BYTE   W48
 BYTE   PEND 
//  #02 //054   ----------------------------------------
 BYTE   W72
 BYTE   N24  Cn3  v064
 BYTE   W24
//  #02 //055   ----------------------------------------
 BYTE   N42  Gn3  v056
 BYTE   W96
//  #02 //056   ----------------------------------------
 BYTE   PATT
  POIN2 Label_0163F2A9
//  #02 //057   ----------------------------------------
 BYTE   W72
 BYTE   N24  Cn3  v064
 BYTE   W24
//  #02 //058   ----------------------------------------
 BYTE   N42  Gn3  v056
 BYTE   W96
//  #02 //059   ----------------------------------------
 BYTE   W24
 BYTE   N24  Ds3  v064
 BYTE   W24
 BYTE   N42  As3  v056
 BYTE   W48
//  #02 //060   ----------------------------------------
 BYTE   W96
//  #02 //061   ----------------------------------------
 BYTE   W96
//  #02 //062   ----------------------------------------
 BYTE   GoTo
  POIN2 Label_0163F21A
 BYTE   FINE

//**************** Track 3 (Midi-Chn.2) ****************//

UnmarkedGrave_003:
//  #03 //000   ----------------------------------------
 BYTE   KEYSH   UnmarkedGrave_key+0
 BYTE   VOICE   1
 BYTE   VOL   42*UnmarkedGrave_mvl/mxv
 BYTE   PAN   c_v+0
 BYTE   W96
//  #03 //001   ----------------------------------------
Label_014C09C6:
 BYTE   W48
 BYTE   N68  Ds1  v084
 BYTE   N44  As2  v052
 BYTE   W01
 BYTE   Cs3
 BYTE   W01
 BYTE   Fn3  v080
 BYTE   W10
 BYTE   N68  As1
 BYTE   W12
 BYTE   N44  Fn2
 BYTE   W24
//  #03 //002   ----------------------------------------
 BYTE   Fs2
 BYTE   N11  Ds3
 BYTE   W12
 BYTE   As3
 BYTE   W12
 BYTE   N68  Ds1  v084
 BYTE   N48  As2  v052
 BYTE   N44  Cs3
 BYTE   N44  Fn3  v080
 BYTE   W12
 BYTE   N68  As1
 BYTE   W12
 BYTE   N44  Fn2
 BYTE   W44
 BYTE   W01
 BYTE   N68  As2  v052
 BYTE   W02
 BYTE   N66  Cs3
 BYTE   W01
//  #03 //003   ----------------------------------------
 BYTE   N68  Ds1  v084
 BYTE   N44  Fn3  v080
 BYTE   W12
 BYTE   N68  As1
 BYTE   W12
 BYTE   N44  Fn2
 BYTE   W24
 BYTE   Fs2
 BYTE   N11  Ds3
 BYTE   W12
 BYTE   As3
 BYTE   W12
 BYTE   N68  Ds1  v084
 BYTE   N66  Cs3  v052
 BYTE   N36  Fn3
 BYTE   N23  Gs3  v080
 BYTE   W12
 BYTE   N56  Cs2
 BYTE   W12
//  #03 //004   ----------------------------------------
 BYTE   N44  Gs2
 BYTE   N23  Cs4
 BYTE   W24
 BYTE   As1
 BYTE   N23  Fn3
 BYTE   W23
 BYTE   N68  Fs2  v052
 BYTE   W01
 BYTE   Bn0  v084
 BYTE   N66  As2  v052
 BYTE   W01
 BYTE   N44  Ds3  v080
 BYTE   W11
 BYTE   N68  Fs1
 BYTE   W12
 BYTE   N44  Cs2
 BYTE   W24
//  #03 //005   ----------------------------------------
Label_014C0A3F:
 BYTE   N44  Ds2  v080
 BYTE   N11  Cs3
 BYTE   W12
 BYTE   Gs3
 BYTE   W12
 BYTE   N68  Bn0  v084
 BYTE   N68  Fs2  v052
 BYTE   N66  As2
 BYTE   N44  Ds3  v080
 BYTE   W12
 BYTE   N68  Fs1
 BYTE   W12
 BYTE   N44  Cs2
 BYTE   W44
 BYTE   W03
 BYTE   N68  Fs2  v052
 BYTE   W01
 BYTE   PEND 
//  #03 //006   ----------------------------------------
 BYTE   Bn0  v084
 BYTE   N66  As2  v052
 BYTE   W01
 BYTE   N44  Ds3  v080
 BYTE   W11
 BYTE   N68  Fs1
 BYTE   W12
 BYTE   N44  Cs2
 BYTE   W24
 BYTE   Ds2
 BYTE   N11  Cs3
 BYTE   W12
 BYTE   Gs3
 BYTE   W12
 BYTE   N68  Bn0  v084
 BYTE   N68  Fs2  v052
 BYTE   N66  As2
 BYTE   N32  Ds3  v080
 BYTE   W12
 BYTE   N56  Fs1
 BYTE   W12
//  #03 //007   ----------------------------------------
 BYTE   N44  Cs2
 BYTE   N23  Cs3
 BYTE   W24
 BYTE   Ds3
 BYTE   W24
 BYTE   N68  Ds0  v084
 BYTE   N44  As2  v052
 BYTE   W01
 BYTE   Cs3
 BYTE   W01
 BYTE   Fn3  v080
 BYTE   W10
 BYTE   N68  As0
 BYTE   W12
 BYTE   N44  Fn1
 BYTE   W24
//  #03 //008   ----------------------------------------
 BYTE   Fs1
 BYTE   N11  Ds3
 BYTE   W12
 BYTE   As3
 BYTE   W12
 BYTE   N68  Ds0  v084
 BYTE   N48  As2  v052
 BYTE   N44  Cs3
 BYTE   N44  Fn3  v080
 BYTE   W12
 BYTE   N68  As0
 BYTE   W12
 BYTE   N44  Fn1
 BYTE   W44
 BYTE   W01
 BYTE   N68  As2  v052
 BYTE   W02
 BYTE   N66  Cs3
 BYTE   W01
//  #03 //009   ----------------------------------------
 BYTE   N68  Ds0  v084
 BYTE   N44  Fn3  v080
 BYTE   W12
 BYTE   N68  As0
 BYTE   W12
 BYTE   N44  Fn1
 BYTE   W24
 BYTE   Fs1
 BYTE   N11  Ds3
 BYTE   W12
 BYTE   As3
 BYTE   W12
 BYTE   N68  Ds0  v084
 BYTE   N66  Cs3  v052
 BYTE   N36  Fn3
 BYTE   N23  Gs3  v080
 BYTE   W12
 BYTE   N56  Cs1
 BYTE   W12
//  #03 //010   ----------------------------------------
 BYTE   N44  Gs1
 BYTE   N23  Cs4
 BYTE   W24
 BYTE   Cs2  v076
 BYTE   N23  Fn3  v080
 BYTE   W23
 BYTE   N68  Fs2  v052
 BYTE   W01
 BYTE   Bn0  v084
 BYTE   N66  As2  v052
 BYTE   W01
 BYTE   N44  Ds3  v080
 BYTE   W11
 BYTE   N68  Fs1
 BYTE   W12
 BYTE   N44  Cs2
 BYTE   W24
//  #03 //011   ----------------------------------------
 BYTE   PATT
  POIN2 Label_014C0A3F
//  #03 //012   ----------------------------------------
 BYTE   N68  Bn0  v084
 BYTE   N66  As2  v052
 BYTE   W01
 BYTE   N44  Ds3  v080
 BYTE   W11
 BYTE   N68  Fs1
 BYTE   W12
 BYTE   N44  Cs2
 BYTE   W24
 BYTE   Ds2
 BYTE   N11  Cs3
 BYTE   W12
 BYTE   Gs3
 BYTE   W12
 BYTE   N68  Bn0  v084
 BYTE   N23  Fn2  v052
 BYTE   N44  As2
 BYTE   N23  Fn3  v080
 BYTE   W12
 BYTE   N56  Fs1
 BYTE   W11
 BYTE   N24  Fs2  v052
 BYTE   W01
//  #03 //013   ----------------------------------------
 BYTE   N44  Bn1  v080
 BYTE   N23  Ds3
 BYTE   W24
 BYTE   N44  Cs2
 BYTE   N24  Gs2  v052
 BYTE   N44  Cs3  v080
 BYTE   W23
 BYTE   N68  Fn2  v052
 BYTE   W01
 BYTE   As0  v084
 BYTE   N36  As2  v052
 BYTE   N44  Cn3  v080
 BYTE   W12
 BYTE   N68  Fn1
 BYTE   W12
 BYTE   N44  Cn2
 BYTE   W24
//  #03 //014   ----------------------------------------
 BYTE   Cs2
 BYTE   N11  As2
 BYTE   W12
 BYTE   Fn3
 BYTE   W11
 BYTE   N68  Fn2  v052
 BYTE   W01
 BYTE   As0  v084
 BYTE   N36  As2  v052
 BYTE   N44  Cn3  v080
 BYTE   W12
 BYTE   N68  Fn1
 BYTE   W12
 BYTE   N44  Ds2
 BYTE   W44
 BYTE   W03
 BYTE   N68  Fn2  v052
 BYTE   W01
//  #03 //015   ----------------------------------------
 BYTE   As0  v084
 BYTE   N36  As2  v052
 BYTE   N44  Cn3  v080
 BYTE   W12
 BYTE   N68  Fn1
 BYTE   W12
 BYTE   N44  Cn2
 BYTE   W24
 BYTE   N23  Cs2
 BYTE   N11  As2
 BYTE   W12
 BYTE   N10  Fn3
 BYTE   W12
 BYTE   N68  As0  v084
 BYTE   N44  Ds3  v052
 BYTE   N44  Fn3
 BYTE   N23  As3  v080
 BYTE   W12
 BYTE   N68  Fn1
 BYTE   W12
//  #03 //016   ----------------------------------------
 BYTE   N44  Ds2
 BYTE   N23  Cn4
 BYTE   W24
 BYTE   N44  Cn2
 BYTE   N23  Fn3  v052
 BYTE   N23  Gs3  v080
 BYTE   W23
 BYTE   N44  Gs2  v052
 BYTE   W01
 BYTE   N68  Fn0  v084
 BYTE   N44  Cn3  v052
 BYTE   N32  Gn3  v080
 BYTE   W12
 BYTE   N68  Cn1
 BYTE   W12
 BYTE   N44  Gn1
 BYTE   W12
 BYTE   N11  Fn3
 BYTE   W12
//  #03 //017   ----------------------------------------
 BYTE   N44  Gs1
 BYTE   N23  Gn3
 BYTE   W24
 BYTE   N68  Fn0  v084
 BYTE   N68  Fn2  v052
 BYTE   N68  Gn2
 BYTE   N66  Cn3  v080
 BYTE   W12
 BYTE   N68  Cn1
 BYTE   W12
 BYTE   N44  Gn1
 BYTE   W44
 BYTE   W02
 BYTE   Gs2  v052
 BYTE   W02
//  #03 //018   ----------------------------------------
 BYTE   N68  Fn0  v084
 BYTE   N44  Cn3  v052
 BYTE   W01
 BYTE   N32  Gn3  v080
 BYTE   W11
 BYTE   N68  Cn1
 BYTE   W12
 BYTE   N44  Gn1
 BYTE   W12
 BYTE   N11  Fn3
 BYTE   W12
 BYTE   N44  Gs1
 BYTE   N23  Gn3
 BYTE   W23
 BYTE   N68  Fn2  v052
 BYTE   W01
 BYTE   Fn0  v084
 BYTE   N68  Gn2  v052
 BYTE   N23  Cn3  v080
 BYTE   W12
 BYTE   N56  Cn1
 BYTE   W12
//  #03 //019   ----------------------------------------
 BYTE   N44  Gn1
 BYTE   N23  Fn3  v076
 BYTE   W24
 BYTE   As1  v072
 BYTE   N23  Dn3  v076
 BYTE   W24
 BYTE   TIE  Fn0  v080
 BYTE   TIE  Cn1  v072
 BYTE   TIE  Gs1
 BYTE   N23  Ds2  v080
 BYTE   W12
 BYTE   Fn2
 BYTE   W12
 BYTE   Dn2
 BYTE   W12
 BYTE   Ds2
 BYTE   W12
//  #03 //020   ----------------------------------------
 BYTE   Fn2
 BYTE   W12
 BYTE   Dn2
 BYTE   W12
 BYTE   N56  Ds2
 BYTE   W56
 BYTE   W03
 BYTE   EOT
 BYTE   Fn0  v036
 BYTE   Gs1
 BYTE   W13
//  #03 //021   ----------------------------------------
 BYTE   TIE  En0
 BYTE   TIE  Bn0  v072
 BYTE   TIE  Gs1
 BYTE   N23  Ds2  v080
 BYTE   W12
 BYTE   N11  Cs2
 BYTE   W12
 BYTE   N23
 BYTE   W12
 BYTE   Bn1
 BYTE   W12
 BYTE   Cs2
 BYTE   W12
 BYTE   Gs2
 BYTE   W12
 BYTE   N56  Cs2
 BYTE   W24
//  #03 //022   ----------------------------------------
 BYTE   W32
 BYTE   W03
 BYTE   EOT
 BYTE   En0  v035
 BYTE   Gs1
 BYTE   W13
 BYTE   TIE  Fn0
 BYTE   TIE  Cn1  v072
 BYTE   TIE  Gs1
 BYTE   N23  Ds2  v080
 BYTE   W12
 BYTE   Dn2
 BYTE   W12
 BYTE   Gn2
 BYTE   W12
 BYTE   N11  Cn3
 BYTE   W12
//  #03 //023   ----------------------------------------
 BYTE   N22
 BYTE   W12
 BYTE   N23  Ds3
 BYTE   W10
 BYTE   N60  Gs2  v060
 BYTE   W01
 BYTE   Cn3
 BYTE   W01
 BYTE   N23  Gn3  v080
 BYTE   W12
 BYTE   N11  Fn3
 BYTE   W12
 BYTE   N32
 BYTE   W32
 BYTE   W03
 BYTE   EOT
 BYTE   Fn0  v036
 BYTE   Gs1
 BYTE   W13
//  #03 //024   ----------------------------------------
 BYTE   TIE  Cn1  v072
 BYTE   TIE  Fs1  v060
 BYTE   N68  As1
 BYTE   N68  Ds2
 BYTE   N23  Cn3  v076
 BYTE   W12
 BYTE   N11  As2
 BYTE   W12
 BYTE   N23
 BYTE   W12
 BYTE   N11  Ds3
 BYTE   W12
 BYTE   N23
 BYTE   W12
 BYTE   N11  As2
 BYTE   W12
 BYTE   N56  An1  v060
 BYTE   N32  Ds2  v052
 BYTE   N23  As2  v076
 BYTE   W12
 BYTE   N11  An2
 BYTE   W12
//  #03 //025   ----------------------------------------
 BYTE   N32  Dn2  v052
 BYTE   N32  An2  v076
 BYTE   W32
 BYTE   W03
 BYTE   EOT
 BYTE   Cn1  v042
 BYTE   W11
 BYTE   N32  As1  v060
 BYTE   W01
 BYTE   Dn2  v056
 BYTE   W01
 BYTE   N68  As0  v076
 BYTE   N68  Gn1  v072
 BYTE   N68  An1
 BYTE   N23  An2  v080
 BYTE   W12
 BYTE   N11  Gn2
 BYTE   W12
 BYTE   N23
 BYTE   W12
 BYTE   N11  Dn2
 BYTE   W12
//  #03 //026   ----------------------------------------
 BYTE   N11
 BYTE   W12
 BYTE   Cn2
 BYTE   W12
 BYTE   N68  As0  v076
 BYTE   N68  Fs1  v072
 BYTE   N68  An1  v060
 BYTE   N32  Dn2  v080
 BYTE   W24
 BYTE   N44  Dn3
 BYTE   W44
 BYTE   W02
 BYTE   N32  As1  v060
 BYTE   W01
 BYTE   Dn2
 BYTE   W01
//  #03 //027   ----------------------------------------
 BYTE   N68  As0  v076
 BYTE   N68  Fn1  v072
 BYTE   N68  An1
 BYTE   N23  An2  v080
 BYTE   W12
 BYTE   N11  Gn2
 BYTE   W12
 BYTE   N23
 BYTE   W12
 BYTE   N11  Dn2
 BYTE   W12
 BYTE   N11
 BYTE   W12
 BYTE   Cn2
 BYTE   W12
 BYTE   N68  As0  v076
 BYTE   N68  En1  v072
 BYTE   N68  An1  v060
 BYTE   N32  Dn2  v080
 BYTE   W12
 BYTE   N11  Gn2
 BYTE   W12
//  #03 //028   ----------------------------------------
 BYTE   N23
 BYTE   W12
 BYTE   N11  Dn3
 BYTE   W12
 BYTE   N23
 BYTE   W22
 BYTE   N68  Gn2  v064
 BYTE   W01
 BYTE   N32  Cn3  v052
 BYTE   W01
 BYTE   N68  Ds1  v080
 BYTE   N68  Dn2  v072
 BYTE   N23  Fn3  v080
 BYTE   W12
 BYTE   N11  Ds3
 BYTE   W12
 BYTE   N23
 BYTE   W12
 BYTE   N11  Dn3
 BYTE   W12
//  #03 //029   ----------------------------------------
 BYTE   N11
 BYTE   W12
 BYTE   Cn3
 BYTE   W12
 BYTE   N68  Ds1  v060
 BYTE   N68  Cn2
 BYTE   N66  Gn2
 BYTE   N64  Cn3  v080
 BYTE   W68
 BYTE   W02
 BYTE   N68  Gn2  v072
 BYTE   W01
 BYTE   N48  Bn2  v052
 BYTE   W01
//  #03 //030   ----------------------------------------
 BYTE   N68  Ds1  v080
 BYTE   N68  Bn1  v072
 BYTE   N23  Fn3  v080
 BYTE   W12
 BYTE   N11  Ds3
 BYTE   W12
 BYTE   N23
 BYTE   W12
 BYTE   N11  Dn3
 BYTE   W12
 BYTE   N11
 BYTE   W12
 BYTE   Cn3
 BYTE   W12
 BYTE   N68  Ds1  v060
 BYTE   N68  An1
 BYTE   N68  Gn2
 BYTE   N68  Cn3  v080
 BYTE   W24
//  #03 //031   ----------------------------------------
 BYTE   N44  Gn3
 BYTE   W24
 BYTE   N23  Cn4  v060
 BYTE   W24
 BYTE   N68  Gn0  v092
 BYTE   N68  Dn2  v080
 BYTE   N23  As2  v092
 BYTE   W12
 BYTE   Dn1  v072
 BYTE   N11  An2  v092
 BYTE   W12
 BYTE   N23  As1  v072
 BYTE   N23  An2  v092
 BYTE   W12
 BYTE   Dn1  v072
 BYTE   N11  Gn2  v092
 BYTE   W12
//  #03 //032   ----------------------------------------
Label_014C0D83:
 BYTE   N23  As1  v072
 BYTE   N11  Gn2  v092
 BYTE   W12
 BYTE   Cn3
 BYTE   W12
 BYTE   N68  Gn0
 BYTE   N56  Cn2  v080
 BYTE   N23  An2  v092
 BYTE   W12
 BYTE   Fn1  v072
 BYTE   W12
 BYTE   An1
 BYTE   N32  Fn2  v092
 BYTE   W12
 BYTE   N23  Fn1  v072
 BYTE   W12
 BYTE   An1
 BYTE   W24
 BYTE   PEND 
//  #03 //033   ----------------------------------------
Label_014C0DA4:
 BYTE   N68  Gn0  v092
 BYTE   N68  Dn2  v080
 BYTE   N23  As2  v092
 BYTE   W12
 BYTE   Dn1  v072
 BYTE   N11  An2  v092
 BYTE   W12
 BYTE   N23  As1  v072
 BYTE   N23  An2  v092
 BYTE   W12
 BYTE   Dn1  v072
 BYTE   N11  Gn2  v092
 BYTE   W12
 BYTE   N23  As1  v072
 BYTE   N11  Gn2  v092
 BYTE   W12
 BYTE   Dn3
 BYTE   W12
 BYTE   N68  Gn0
 BYTE   N56  Fn2  v080
 BYTE   N23  Cn3  v092
 BYTE   W12
 BYTE   Fn1  v072
 BYTE   N23  Fn3  v092
 BYTE   W12
 BYTE   PEND 
//  #03 //034   ----------------------------------------
Label_014C0DDA:
 BYTE   N23  An1  v072
 BYTE   N23  Cn3  v092
 BYTE   W12
 BYTE   Fn1  v072
 BYTE   W12
 BYTE   Cn2
 BYTE   W24
 BYTE   N68  Gn0  v092
 BYTE   N68  Dn2  v080
 BYTE   N23  As2  v092
 BYTE   W12
 BYTE   Dn1  v072
 BYTE   N11  An2  v092
 BYTE   W12
 BYTE   N23  As1  v072
 BYTE   N23  An2  v092
 BYTE   W12
 BYTE   Dn1  v072
 BYTE   N11  Gn2  v092
 BYTE   W12
 BYTE   PEND 
//  #03 //035   ----------------------------------------
 BYTE   PATT
  POIN2 Label_014C0D83
//  #03 //036   ----------------------------------------
 BYTE   N68  Ds0  v092
 BYTE   N56  As1  v080
 BYTE   N23  Gn2  v092
 BYTE   W12
 BYTE   As0  v072
 BYTE   N11  Fn2  v092
 BYTE   W12
 BYTE   N23  Fn1  v072
 BYTE   N23  Fn2  v092
 BYTE   W12
 BYTE   As0  v072
 BYTE   N11  Ds2  v092
 BYTE   W12
 BYTE   N23  Gn1  v072
 BYTE   N11  Ds2  v092
 BYTE   W12
 BYTE   Gn2
 BYTE   W12
 BYTE   N68  Fn0
 BYTE   N44  An1  v080
 BYTE   N23  Dn2  v092
 BYTE   W12
 BYTE   Cn1  v072
 BYTE   W12
//  #03 //037   ----------------------------------------
 BYTE   Fn1
 BYTE   N44  Cn2  v092
 BYTE   W12
 BYTE   N23  Gn1  v072
 BYTE   W12
 BYTE   An1
 BYTE   W24
 BYTE   N68  Gn0  v092
 BYTE   N68  Dn2  v080
 BYTE   N23  As2  v092
 BYTE   W12
 BYTE   Dn1  v072
 BYTE   N11  An2  v092
 BYTE   W12
 BYTE   N23  As1  v072
 BYTE   N23  An2  v092
 BYTE   W12
 BYTE   Dn1  v072
 BYTE   N11  Gn2  v092
 BYTE   W12
//  #03 //038   ----------------------------------------
 BYTE   PATT
  POIN2 Label_014C0D83
//  #03 //039   ----------------------------------------
 BYTE   PATT
  POIN2 Label_014C0DA4
//  #03 //040   ----------------------------------------
 BYTE   PATT
  POIN2 Label_014C0DDA
//  #03 //041   ----------------------------------------
 BYTE   N23  As1  v072
 BYTE   N11  An2  v092
 BYTE   W12
 BYTE   As2
 BYTE   W12
 BYTE   N68  Fn0
 BYTE   N56  Cn2  v080
 BYTE   N56  Fn2
 BYTE   N23  Cn3  v092
 BYTE   W12
 BYTE   Cn1  v072
 BYTE   N11  As2  v092
 BYTE   W12
 BYTE   N23  An1  v072
 BYTE   N23  An2  v092
 BYTE   W12
 BYTE   Cn1  v072
 BYTE   N23  As2  v092
 BYTE   W12
 BYTE   An1  v072
 BYTE   N11  Cn3  v092
 BYTE   W12
 BYTE   Fn2
 BYTE   W12
//  #03 //042   ----------------------------------------
 BYTE   N68  As0
 BYTE   N56  Fn2  v080
 BYTE   N23  Dn3  v092
 BYTE   W12
 BYTE   Fn1  v072
 BYTE   N11  Cn3  v092
 BYTE   W12
 BYTE   N23  Dn2  v072
 BYTE   N23  As2  v092
 BYTE   W12
 BYTE   Fn1  v072
 BYTE   N11  Cn3  v092
 BYTE   W12
 BYTE   N23  As1  v072
 BYTE   N11  Dn3  v092
 BYTE   W12
 BYTE   N23  Gn3
 BYTE   W12
 BYTE   N68  An0
 BYTE   N56  Gn2  v072
 BYTE   N56  An2  v080
 BYTE   N23  En3  v092
 BYTE   W12
 BYTE   En1  v072
 BYTE   N11  Dn3  v092
 BYTE   W12
//  #03 //043   ----------------------------------------
 BYTE   N23  Cs2  v072
 BYTE   N23  Cs3  v092
 BYTE   W12
 BYTE   En1  v072
 BYTE   N11  Dn3  v092
 BYTE   W12
 BYTE   N23  An1  v072
 BYTE   N23  En3  v092
 BYTE   W12
 BYTE   N11  As3
 BYTE   W12
 BYTE   N68  Dn0
 BYTE   N23  Dn3  v072
 BYTE   N23  An3  v092
 BYTE   W12
 BYTE   An0  v080
 BYTE   W12
 BYTE   En1  v072
 BYTE   N23  Gn2
 BYTE   N23  En3  v092
 BYTE   W12
 BYTE   Fn1  v072
 BYTE   W12
//  #03 //044   ----------------------------------------
 BYTE   An1
 BYTE   N23  An2
 BYTE   N23  Fn3  v092
 BYTE   W12
 BYTE   Cn2  v072
 BYTE   W12
 BYTE   N68  As0  v092
 BYTE   N44  Fn2  v080
 BYTE   N32  Dn3  v092
 BYTE   W12
 BYTE   N23  Fn1  v080
 BYTE   W12
 BYTE   Dn2  v072
 BYTE   W12
 BYTE   Cn2
 BYTE   W12
 BYTE   As1
 BYTE   N23  Fn2  v080
 BYTE   N23  Dn3  v092
 BYTE   W12
 BYTE   An1  v072
 BYTE   N11  Cn3  v092
 BYTE   W12
//  #03 //045   ----------------------------------------
 BYTE   N68  Gn1
 BYTE   N23  Fn2  v080
 BYTE   N23  Cn3  v092
 BYTE   W12
 BYTE   N11  As2
 BYTE   W12
 BYTE   N44  Dn1
 BYTE   N32  As2
 BYTE   W24
 BYTE   N23  As0
 BYTE   W12
 BYTE   N11  An2
 BYTE   W12
 BYTE   N68  Ds0
 BYTE   N56  As1  v080
 BYTE   N23  An2  v092
 BYTE   W12
 BYTE   As0  v080
 BYTE   W12
//  #03 //046   ----------------------------------------
 BYTE   Ds1  v072
 BYTE   N32  Gn2  v092
 BYTE   W12
 BYTE   N23  Fn1  v072
 BYTE   W12
 BYTE   Gn1
 BYTE   W24
 BYTE   N68  Fn0  v092
 BYTE   N68  Cn2  v080
 BYTE   N68  Fn2  v092
 BYTE   W12
 BYTE   N23  Cn1  v080
 BYTE   W12
 BYTE   An1  v072
 BYTE   W12
 BYTE   Gn1
 BYTE   W12
//  #03 //047   ----------------------------------------
 BYTE   An1
 BYTE   W12
 BYTE   Cn1
 BYTE   W12
 BYTE   N68  Dn0  v092
 BYTE   N44  Cn2  v080
 BYTE   N44  Fs2  v092
 BYTE   W12
 BYTE   N23  An0  v080
 BYTE   W12
 BYTE   Fs1  v072
 BYTE   W12
 BYTE   En1
 BYTE   W12
 BYTE   Fs1
 BYTE   N23  Cn2  v076
 BYTE   N23  An2  v084
 BYTE   W12
 BYTE   Dn1  v072
 BYTE   W12
//  #03 //048   ----------------------------------------
 BYTE   N68  Gn0  v092
 BYTE   N68  Dn2  v080
 BYTE   N68  As2  v092
 BYTE   W12
 BYTE   N23  Dn1  v080
 BYTE   W12
 BYTE   As1  v072
 BYTE   W12
 BYTE   An1
 BYTE   W12
 BYTE   As1
 BYTE   N23  Gn2  v080
 BYTE   N23  Dn3  v092
 BYTE   W12
 BYTE   Gn1  v072
 BYTE   W12
 BYTE   N68  An0  v092
 BYTE   N44  En2  v080
 BYTE   N32  Cs3  v092
 BYTE   W12
 BYTE   N23  En1  v080
 BYTE   W12
//  #03 //049   ----------------------------------------
 BYTE   Cs2  v072
 BYTE   W12
 BYTE   Bn1
 BYTE   N32  Dn3  v092
 BYTE   W12
 BYTE   N23  Cs2  v072
 BYTE   N23  An2
 BYTE   N23  En3  v092
 BYTE   W12
 BYTE   N11  An1  v072
 BYTE   W12
 BYTE   N68  Dn1  v092
 BYTE   N44  An2  v080
 BYTE   N32  Gn3  v092
 BYTE   W12
 BYTE   N23  An1  v080
 BYTE   W12
 BYTE   En2  v072
 BYTE   W12
 BYTE   Dn2
 BYTE   N11  Fn3  v092
 BYTE   W12
//  #03 //050   ----------------------------------------
 BYTE   N23  En2  v072
 BYTE   N23  An2  v080
 BYTE   N11  Fn3  v092
 BYTE   W12
 BYTE   N23  Fn2  v072
 BYTE   N11  En3  v092
 BYTE   W12
 BYTE   N68  Gn0
 BYTE   N56  Gn2  v080
 BYTE   N56  As2  v072
 BYTE   N32  En3  v092
 BYTE   W12
 BYTE   N23  Dn1  v080
 BYTE   W12
 BYTE   N32  As1  v072
 BYTE   N23  Dn2
 BYTE   N32  Dn3  v092
 BYTE   W12
 BYTE   N23  Cn2  v072
 BYTE   W12
 BYTE   Dn2
 BYTE   W24
//  #03 //051   ----------------------------------------
 BYTE   N68  Cn0  v092
 BYTE   N72  Gn1  v080
 BYTE   N68  Cn2  v072
 BYTE   N56  Fn2  v092
 BYTE   W12
 BYTE   N23  Gn0  v080
 BYTE   W12
 BYTE   Cn1  v072
 BYTE   W12
 BYTE   Gn0
 BYTE   W12
 BYTE   Fn1
 BYTE   W12
 BYTE   N11  Gn2  v092
 BYTE   W12
 BYTE   N56  Cn0
 BYTE   N23  Gn1  v080
 BYTE   N56  Cn2  v072
 BYTE   N56  En2  v092
 BYTE   W12
 BYTE   N23  Gn0  v080
 BYTE   W12
//  #03 //052   ----------------------------------------
 BYTE   Cn1  v072
 BYTE   W12
 BYTE   Gn0
 BYTE   W12
 BYTE   N11  Gn1  v056
 BYTE   W24
 BYTE   TIE  Dn0  v100
 BYTE   N23  Fn1  v076
 BYTE   N68  As1
 BYTE   W12
 BYTE   N23  As0  v092
 BYTE   W12
 BYTE   Fn1
 BYTE   W12
 BYTE   N92  As0
 BYTE   W12
//  #03 //053   ----------------------------------------
Label_014C1064:
 BYTE   N23  Fn1  v092
 BYTE   W12
 BYTE   Gn1
 BYTE   W11
 BYTE   N56  Dn2  v064
 BYTE   W01
 BYTE   Gn2
 BYTE   N56  As2
 BYTE   W01
 BYTE   Dn3  v080
 BYTE   W56
 BYTE   W02
 BYTE   PEND 
 BYTE   EOT
 BYTE   Dn0
 BYTE   W13
//  #03 //054   ----------------------------------------
 BYTE   TIE  Gs0  v100
 BYTE   N32  Gn1  v076
 BYTE   N23  Cn2  v092
 BYTE   W12
 BYTE   TIE  Ds1
 BYTE   W12
 BYTE   N23  Cn2  v080
 BYTE   W12
 BYTE   Gn1
 BYTE   W12
 BYTE   N11  Cn2
 BYTE   W12
 BYTE   N23  Ds2  v092
 BYTE   W11
 BYTE   N56  Gn2  v064
 BYTE   W01
 BYTE   Cn3
 BYTE   N56  Ds3
 BYTE   W01
 BYTE   Gn3  v080
 BYTE   W23
//  #03 //055   ----------------------------------------
 BYTE   W32
 BYTE   W03
 BYTE   EOT
 BYTE   Gs0  v039
 BYTE   W13
 BYTE   TIE  Dn0  v100
 BYTE   N68  As1  v076
 BYTE   W12
 BYTE   N23  As0  v092
 BYTE   W12
 BYTE   Fn1
 BYTE   W12
 BYTE   N92  As0
 BYTE   W12
//  #03 //056   ----------------------------------------
 BYTE   PATT
  POIN2 Label_014C1064
//  #03 //057   ----------------------------------------
 BYTE   EOT
 BYTE   Dn0
 BYTE   W13
 BYTE   TIE  Gs0  v100
 BYTE   N32  Gn1  v076
 BYTE   N23  Cn2  v092
 BYTE   W12
 BYTE   TIE  Ds1
 BYTE   W12
 BYTE   N23  Cn2  v080
 BYTE   W12
 BYTE   N28  Gn1
 BYTE   W12
 BYTE   N17  Cn2
 BYTE   W12
 BYTE   N23  Ds2  v092
 BYTE   W11
 BYTE   N56  Gn2  v064
 BYTE   W01
 BYTE   Cn3
 BYTE   N56  Ds3
 BYTE   W01
 BYTE   Gn3  v080
 BYTE   W23
//  #03 //058   ----------------------------------------
 BYTE   W32
 BYTE   W03
 BYTE   EOT
 BYTE   Gs0  v039
 BYTE   W13
 BYTE   TIE  Bn0  v100
 BYTE   N32  As1  v076
 BYTE   N23  Ds2
 BYTE   W12
 BYTE   TIE  Fs1  v092
 BYTE   W12
 BYTE   N23  Ds2  v080
 BYTE   W12
 BYTE   N28  As1
 BYTE   W12
//  #03 //059   ----------------------------------------
 BYTE   N11  Ds2
 BYTE   W12
 BYTE   Fn2
 BYTE   W11
 BYTE   TIE  Bn2  v064
 BYTE   W01
 BYTE   Ds3
 BYTE   TIE  Fn3
 BYTE   W01
 BYTE   As3  v080
 BYTE   W68
 BYTE   W03
//  #03 //060   ----------------------------------------
 BYTE   W96
//  #03 //061   ----------------------------------------
 BYTE   W22
 BYTE   EOT
 BYTE   Bn2
 BYTE   W01
 BYTE   Bn0  v063
 BYTE   Fn3
 BYTE   W01
 BYTE   Fs1  v070
 BYTE   W72
//  #03 //062   ----------------------------------------
 BYTE   GoTo
  POIN2 Label_014C09C6
 BYTE   FINE

//**************** Track 4 (Midi-Chn.3) ****************//

UnmarkedGrave_004:
//  #04 //000   ----------------------------------------
 BYTE   KEYSH   UnmarkedGrave_key+0
 BYTE   VOICE   49
 BYTE   VOL   14*UnmarkedGrave_mvl/mxv
 BYTE   PAN   c_v+0
 BYTE   TIE  As3  v068
 BYTE   TIE  Fn4
 BYTE   W01
 BYTE   W05
 BYTE   W15
 BYTE   W08
 BYTE   W12
 BYTE   W01
 BYTE   W04
 BYTE   W05
 BYTE   W03
 BYTE   W04
 BYTE   W06
 BYTE   W04
 BYTE   W03
 BYTE   W03
 BYTE   W04
 BYTE   W01
 BYTE   W02
 BYTE   W03
 BYTE   W03
 BYTE   W04
 BYTE   W02
 BYTE   W02
 BYTE   W01
//  #04 //001   ----------------------------------------
Label_014C1132:
 BYTE   W02
 BYTE   W02
 BYTE   W02
 BYTE   W01
 BYTE   W02
 BYTE   W02
 BYTE   W02
 BYTE   W04
 BYTE   W01
 BYTE   W01
 BYTE   W01
 BYTE   W02
 BYTE   W02
 BYTE   W04
 BYTE   W01
 BYTE   W01
 BYTE   W01
 BYTE   W01
 BYTE   W03
 BYTE   W01
 BYTE   W01
 BYTE   W02
 BYTE   W01
 BYTE   W03
 BYTE   W01
 BYTE   W02
 BYTE   EOT
 BYTE   As3  v077
 BYTE   W02
 BYTE   TIE  As3
 BYTE   TIE  Fn4
 BYTE   W04
 BYTE   W02
 BYTE   W03
 BYTE   W02
 BYTE   W04
 BYTE   W02
 BYTE   W02
 BYTE   W06
 BYTE   W02
 BYTE   W02
 BYTE   W03
 BYTE   W06
 BYTE   W02
 BYTE   W01
 BYTE   W03
 BYTE   W02
 BYTE   W02
//  #04 //002   ----------------------------------------
 BYTE   W06
 BYTE   W03
 BYTE   W01
 BYTE   W01
 BYTE   W04
 BYTE   W04
 BYTE   W04
 BYTE   W06
 BYTE   W03
 BYTE   W02
 BYTE   W04
 BYTE   W04
 BYTE   W10
 BYTE   W04
 BYTE   W04
 BYTE   W03
 BYTE   W05
 BYTE   W05
 BYTE   W23
//  #04 //003   ----------------------------------------
 BYTE   W96
//  #04 //004   ----------------------------------------
 BYTE   W44
 BYTE   W03
 BYTE   EOT
 BYTE   As3  v077
 BYTE   W01
 BYTE   TIE  As3
 BYTE   TIE  Ds4
 BYTE   W48
//  #04 //005   ----------------------------------------
 BYTE   W96
//  #04 //006   ----------------------------------------
 BYTE   W96
//  #04 //007   ----------------------------------------
 BYTE   W44
 BYTE   W03
 BYTE   EOT
 BYTE   As3  v075
 BYTE   W01
 BYTE   TIE  Ds1  v072
 BYTE   TIE  As3  v068
 BYTE   TIE  Fn4
 BYTE   W48
//  #04 //008   ----------------------------------------
 BYTE   W96
//  #04 //009   ----------------------------------------
 BYTE   W96
//  #04 //010   ----------------------------------------
 BYTE   W44
 BYTE   W03
 BYTE   EOT
 BYTE   Ds1  v070
 BYTE   Fn4
 BYTE   W01
 BYTE   TIE  Bn1  v072
 BYTE   TIE  As3  v068
 BYTE   TIE  Ds4
 BYTE   W48
//  #04 //011   ----------------------------------------
 BYTE   W96
//  #04 //012   ----------------------------------------
 BYTE   W96
//  #04 //013   ----------------------------------------
 BYTE   W44
 BYTE   W03
 BYTE   EOT
 BYTE   Bn1  v070
 BYTE   Ds4
 BYTE   W01
 BYTE   TIE  As1  v072
 BYTE   TIE  Cn4  v068
 BYTE   TIE  Fn4
 BYTE   W48
//  #04 //014   ----------------------------------------
 BYTE   W96
//  #04 //015   ----------------------------------------
 BYTE   W96
//  #04 //016   ----------------------------------------
 BYTE   W44
 BYTE   W03
 BYTE   EOT
 BYTE   As1  v072
 BYTE   Fn4
 BYTE   W01
 BYTE   TIE  Fn1  v072
 BYTE   TIE  Cn4  v068
 BYTE   TIE  Gn4
 BYTE   W48
//  #04 //017   ----------------------------------------
 BYTE   W96
//  #04 //018   ----------------------------------------
 BYTE   W24
 BYTE   W01
 BYTE   W10
 BYTE   W13
 BYTE   W06
 BYTE   W06
 BYTE   W04
 BYTE   W07
 BYTE   W06
 BYTE   W02
 BYTE   W04
 BYTE   W04
 BYTE   W05
 BYTE   W04
//  #04 //019   ----------------------------------------
 BYTE   W02
 BYTE   W04
 BYTE   W06
 BYTE   W02
 BYTE   W02
 BYTE   W04
 BYTE   W03
 BYTE   W02
 BYTE   W04
 BYTE   W02
 BYTE   W02
 BYTE   W04
 BYTE   W02
 BYTE   W02
 BYTE   W02
 BYTE   W04
 BYTE   EOT
 BYTE   Fn1  v072
 BYTE   Gn4
 BYTE   W01
 BYTE   TIE  Fn1  v112
 BYTE   TIE  Cn2  v100
 BYTE   TIE  Gs2
 BYTE   W48
//  #04 //020   ----------------------------------------
 BYTE   W80
 BYTE   W03
 BYTE   EOT
 BYTE   Fn1  v048
 BYTE   Gs2
 BYTE   W13
//  #04 //021   ----------------------------------------
 BYTE   TIE  En1  v112
 BYTE   TIE  Bn1  v100
 BYTE   TIE  Gs2
 BYTE   W96
//  #04 //022   ----------------------------------------
 BYTE   W32
 BYTE   W03
 BYTE   EOT
 BYTE   En1  v047
 BYTE   Gs2
 BYTE   W13
 BYTE   TIE  Fn1  v112
 BYTE   TIE  Cn2  v100
 BYTE   TIE  Gs2
 BYTE   W48
//  #04 //023   ----------------------------------------
 BYTE   W80
 BYTE   W03
 BYTE   EOT
 BYTE   Fn1  v048
 BYTE   Gs2
 BYTE   W13
//  #04 //024   ----------------------------------------
 BYTE   TIE  Cn2  v112
 BYTE   TIE  Fs2  v100
 BYTE   N68  As2
 BYTE   N68  Ds3
 BYTE   W72
 BYTE   An2
 BYTE   N32  Ds3  v092
 BYTE   W24
//  #04 //025   ----------------------------------------
 BYTE   N44  Dn3
 BYTE   W42
 BYTE   W01
 BYTE   W02
 BYTE   W02
 BYTE   EOT
 BYTE   Cn2  v054
 BYTE   W01
 BYTE   N68  As1  v116
 BYTE   N68  Gn2  v112
 BYTE   N68  An2
 BYTE   TIE  Dn3  v096
 BYTE   N23  An3
 BYTE   W24
 BYTE   N44  Gn3
 BYTE   W24
//  #04 //026   ----------------------------------------
 BYTE   W24
 BYTE   N68  As1  v116
 BYTE   N68  Fs2  v112
 BYTE   N68  An2  v100
 BYTE   N68  An3  v096
 BYTE   W44
 BYTE   W01
 BYTE   W24
 BYTE   W03
//  #04 //027   ----------------------------------------
 BYTE   As1  v116
 BYTE   N68  Fn2  v112
 BYTE   N68  An2
 BYTE   N23  An3  v096
 BYTE   W24
 BYTE   N44  Gn3
 BYTE   W01
 BYTE   W44
 BYTE   W03
 BYTE   N68  As1  v116
 BYTE   N68  En2  v112
 BYTE   N68  An2  v100
 BYTE   N68  An3  v096
 BYTE   W22
 BYTE   W02
//  #04 //028   ----------------------------------------
 BYTE   W24
 BYTE   W03
 BYTE   W20
 BYTE   EOT
 BYTE   Dn3
 BYTE   W01
 BYTE   N68  Ds2  v120
 BYTE   N68  Dn3  v112
 BYTE   N68  Gn3  v108
 BYTE   TIE  Cn4  v092
 BYTE   W06
 BYTE   W23
 BYTE   W19
//  #04 //029   ----------------------------------------
 BYTE   W23
 BYTE   W01
 BYTE   N68  Ds2  v100
 BYTE   N68  Cn3
 BYTE   N64  Gn3
 BYTE   TIE  Gn4  v096
 BYTE   W20
 BYTE   W17
 BYTE   W20
 BYTE   W15
//  #04 //030   ----------------------------------------
 BYTE   N68  Ds2  v120
 BYTE   N68  Bn2  v112
 BYTE   N68  Gn3
 BYTE   W02
 BYTE   W30
 BYTE   W01
 BYTE   W15
 BYTE   W15
 BYTE   W09
 BYTE   N52  Ds2  v100
 BYTE   N52  An2
 BYTE   N52  Gn3
 BYTE   W07
 BYTE   W17
//  #04 //031   ----------------------------------------
 BYTE   W10
 BYTE   W13
 BYTE   EOT
 BYTE   Cn4  v079
 BYTE   W14
 BYTE   W11
 BYTE   TIE  Gn3  v088
 BYTE   N68  Dn4
 BYTE   W48
//  #04 //032   ----------------------------------------
Label_014C12E4:
 BYTE   W24
 BYTE   N23  Cn4  v088
 BYTE   W24
 BYTE   N44  Fn4
 BYTE   W44
 BYTE   W03
 BYTE   PEND 
 BYTE   EOT
 BYTE   Gn3
 BYTE   W01
//  #04 //033   ----------------------------------------
Label_014C12F1:
 BYTE   TIE  Gn3  v088
 BYTE   N68  Dn4
 BYTE   W72
 BYTE   N23  Cn4
 BYTE   W24
 BYTE   PEND 
//  #04 //034   ----------------------------------------
Label_014C12FB:
 BYTE   N44  Fn4  v088
 BYTE   W44
 BYTE   W03
 BYTE   PEND 
 BYTE   EOT
 BYTE   Gn3
 BYTE   W01
 BYTE   N92
 BYTE   N68  Dn4
 BYTE   W48
//  #04 //035   ----------------------------------------
 BYTE   W24
 BYTE   N23  Cn4
 BYTE   W24
 BYTE   N44  Fn3
 BYTE   N44  An3
 BYTE   W48
//  #04 //036   ----------------------------------------
 BYTE   N68  Fn3
 BYTE   N68  As3
 BYTE   W72
 BYTE   Gn3
 BYTE   N68  Cn4
 BYTE   W24
//  #04 //037   ----------------------------------------
 BYTE   W48
 BYTE   TIE  Gn3
 BYTE   N68  Dn4
 BYTE   W48
//  #04 //038   ----------------------------------------
 BYTE   PATT
  POIN2 Label_014C12E4
//  #04 //039   ----------------------------------------
 BYTE   EOT
 BYTE   Gn3
 BYTE   W01
//  #04 //040   ----------------------------------------
 BYTE   PATT
  POIN2 Label_014C12F1
//  #04 //041   ----------------------------------------
 BYTE   PATT
  POIN2 Label_014C12FB
//  #04 //042   ----------------------------------------
 BYTE   EOT
 BYTE   Gn3
 BYTE   W01
 BYTE   N68  Gn3  v088
 BYTE   N68  Dn4
 BYTE   W48
 BYTE   W24
 BYTE   N44  Gn3
 BYTE   N68  Cn4
 BYTE   W48
//  #04 //043   ----------------------------------------
 BYTE   N23  Fn3
 BYTE   W24
 BYTE   N44  Cn4
 BYTE   N68  Fn4
 BYTE   W48
 BYTE   N23  As3
 BYTE   W24
//  #04 //044   ----------------------------------------
 BYTE   An3
 BYTE   N68  En4
 BYTE   W24
 BYTE   N23  Cs4
 BYTE   W24
 BYTE   An4
 BYTE   W24
 BYTE   N68  En4
 BYTE   TIE  An4
 BYTE   W48
//  #04 //045   ----------------------------------------
 BYTE   W24
 BYTE   N68  Dn4
 BYTE   W68
 BYTE   W03
 BYTE   EOT
 BYTE   An4
 BYTE   W01
//  #04 //046   ----------------------------------------
 BYTE   N92  Dn4
 BYTE   N92  Gn4
 BYTE   W96
//  #04 //047   ----------------------------------------
 BYTE   N44  As3
 BYTE   N23  Fn4
 BYTE   W24
 BYTE   Ds4
 BYTE   W22
 BYTE   W02
 BYTE   N68  An3
 BYTE   N23  Dn4
 BYTE   N68  Fn4
 BYTE   W24
 BYTE   N44  Cn4
 BYTE   W24
//  #04 //048   ----------------------------------------
 BYTE   W15
 BYTE   W09
 BYTE   N68  An3
 BYTE   N23  Dn4
 BYTE   N68  Fs4
 BYTE   W18
 BYTE   W06
 BYTE   N44  Cn4
 BYTE   W14
 BYTE   W17
 BYTE   W15
 BYTE   W02
//  #04 //049   ----------------------------------------
 BYTE   N23  An3
 BYTE   N68  Dn4
 BYTE   N68  Gn4
 BYTE   W24
 BYTE   N44  Gn3
 BYTE   W01
 BYTE   W10
 BYTE   W11
 BYTE   W11
 BYTE   W15
 BYTE   N23
 BYTE   N68  En4
 BYTE   N68  An4
 BYTE   W04
 BYTE   W09
 BYTE   W09
 BYTE   W02
//  #04 //050   ----------------------------------------
 BYTE   N44  An3
 BYTE   W06
 BYTE   W08
 BYTE   W15
 BYTE   W08
 BYTE   W08
 BYTE   W03
 BYTE   Dn4
 BYTE   N68  En4
 BYTE   N68  An4
 BYTE   W03
 BYTE   W14
 BYTE   W06
 BYTE   W24
 BYTE   W01
//  #04 //051   ----------------------------------------
 BYTE   N23  An3
 BYTE   W01
 BYTE   W04
 BYTE   W02
 BYTE   W01
 BYTE   W03
 BYTE   W03
 BYTE   W02
 BYTE   W02
 BYTE   W03
 BYTE   W02
 BYTE   W01
 BYTE   N56  Gn3
 BYTE   N28  En4
 BYTE   N23  An4
 BYTE   W03
 BYTE   W02
 BYTE   W03
 BYTE   W02
 BYTE   W05
 BYTE   W04
 BYTE   W02
 BYTE   W03
 BYTE   N32  Gn4
 BYTE   W01
 BYTE   Dn4
 BYTE   W04
 BYTE   W07
 BYTE   W05
 BYTE   W06
 BYTE   W08
 BYTE   W17
//  #04 //052   ----------------------------------------
 BYTE   TIE  Gn3  v084
 BYTE   TIE  Cn4
 BYTE   TIE  Gn4
 BYTE   W01
 BYTE   W10
 BYTE   W07
 BYTE   W03
 BYTE   W02
 BYTE   W02
 BYTE   W10
 BYTE   W01
 BYTE   W01
 BYTE   W03
 BYTE   W03
 BYTE   W02
 BYTE   W01
 BYTE   W02
 BYTE   W03
 BYTE   W01
 BYTE   W01
 BYTE   W02
 BYTE   W02
 BYTE   W01
 BYTE   W01
 BYTE   W02
 BYTE   W01
 BYTE   W01
 BYTE   W02
 BYTE   W02
 BYTE   W01
 BYTE   W02
 BYTE   W01
 BYTE   W01
 BYTE   W02
 BYTE   W02
 BYTE   W01
 BYTE   W01
 BYTE   W01
 BYTE   W01
 BYTE   W02
 BYTE   W02
 BYTE   W01
 BYTE   W02
 BYTE   W02
 BYTE   W01
 BYTE   W01
 BYTE   W01
 BYTE   W01
 BYTE   W01
 BYTE   W02
//  #04 //053   ----------------------------------------
 BYTE   W01
 BYTE   W01
 BYTE   W02
 BYTE   W02
 BYTE   W01
 BYTE   W01
 BYTE   W01
 BYTE   W01
 BYTE   W01
 BYTE   W02
 BYTE   W01
 BYTE   W01
 BYTE   W01
 BYTE   W01
 BYTE   W01
 BYTE   W01
 BYTE   W01
 BYTE   W01
 BYTE   W02
 BYTE   W01
 BYTE   W01
 BYTE   W01
 BYTE   W01
 BYTE   W01
 BYTE   W01
 BYTE   W01
 BYTE   W02
 BYTE   W01
 BYTE   W01
 BYTE   W02
 BYTE   W01
 BYTE   W02
 BYTE   W01
 BYTE   W01
 BYTE   EOT
 BYTE   Cn4
 BYTE   W01
 BYTE   Gn3  v079
 BYTE   W01
 BYTE   W01
 BYTE   W01
 BYTE   W01
 BYTE   W01
 BYTE   W01
 BYTE   TIE  Dn1  v100
 BYTE   TIE  As2
 BYTE   TIE  Fn3
 BYTE   W01
 BYTE   W02
 BYTE   W01
 BYTE   W01
 BYTE   W02
 BYTE   W01
 BYTE   W01
 BYTE   W04
 BYTE   W02
 BYTE   W04
 BYTE   W05
 BYTE   W04
 BYTE   W01
 BYTE   W03
 BYTE   W03
 BYTE   W01
 BYTE   W01
 BYTE   W07
 BYTE   W03
 BYTE   W01
//  #04 //054   ----------------------------------------
 BYTE   W02
 BYTE   W01
 BYTE   W04
 BYTE   W06
 BYTE   W03
 BYTE   W02
 BYTE   W04
 BYTE   W01
 BYTE   W03
 BYTE   W01
 BYTE   W01
 BYTE   W06
 BYTE   W02
 BYTE   W04
 BYTE   W02
 BYTE   W01
 BYTE   W04
 BYTE   W03
 BYTE   W02
 BYTE   W05
 BYTE   W14
 BYTE   W06
 BYTE   EOT
 BYTE   Dn1  v058
 BYTE   Fn3
 BYTE   W03
 BYTE   W12
 BYTE   W03
 BYTE   TIE  Gs1
 BYTE   TIE  Gn3
 BYTE   W01
//  #04 //055   ----------------------------------------
 BYTE   Ds3
 BYTE   W96
//  #04 //056   ----------------------------------------
 BYTE   W28
 BYTE   EOT
 BYTE   Gs1  v067
 BYTE   W01
 BYTE   Ds3
 BYTE   W19
 BYTE   TIE  Dn1
 BYTE   TIE  As2
 BYTE   TIE  Fn3
 BYTE   W48
//  #04 //057   ----------------------------------------
 BYTE   W76
 BYTE   W01
 BYTE   EOT
 BYTE   Dn1  v058
 BYTE   Fn3
 BYTE   W18
 BYTE   TIE  Gs1
 BYTE   TIE  Gn3
 BYTE   W01
//  #04 //058   ----------------------------------------
 BYTE   Ds3
 BYTE   W96
//  #04 //059   ----------------------------------------
 BYTE   W28
 BYTE   EOT
 BYTE   Gs1  v067
 BYTE   W01
 BYTE   Ds3
 BYTE   W19
 BYTE   TIE  Bn1
 BYTE   TIE  As2
 BYTE   TIE  Ds3
 BYTE   W36
 BYTE   W01
 BYTE   W11
//  #04 //060   ----------------------------------------
 BYTE   W21
 BYTE   W23
 BYTE   W08
 BYTE   W08
 BYTE   W08
 BYTE   W11
 BYTE   W06
 BYTE   W04
 BYTE   W05
 BYTE   W02
//  #04 //061   ----------------------------------------
 BYTE   W02
 BYTE   W10
 BYTE   W04
 BYTE   W04
 BYTE   W03
 BYTE   W08
 BYTE   W04
 BYTE   W04
 BYTE   W02
 BYTE   W04
 BYTE   W07
 BYTE   W02
 BYTE   W04
 BYTE   W02
 BYTE   W06
 BYTE   W04
 BYTE   W02
 BYTE   W03
 BYTE   W06
 BYTE   W02
 BYTE   W02
 BYTE   W04
 BYTE   W02
 BYTE   W05
//  #04 //062   ----------------------------------------
 BYTE   W01
 BYTE   W01
 BYTE   W02
 BYTE   W02
 BYTE   W06
 BYTE   W02
 BYTE   W02
 BYTE   W02
 BYTE   W05
 BYTE   EOT
 BYTE   Bn1  v058
 BYTE   Ds3
 BYTE   W01
 BYTE   W02
 BYTE   W01
 BYTE   W02
 BYTE   W02
 BYTE   W04
 BYTE   W60
 BYTE   W01
//  #04 //063   ----------------------------------------
 BYTE   EOT
 BYTE   GoTo
  POIN2 Label_014C1132
 BYTE   FINE

//**************** Track 5 (Midi-Chn.4) ****************//

UnmarkedGrave_005:
//  #05 //000   ----------------------------------------
 BYTE   VOL   39*UnmarkedGrave_mvl/mxv
 BYTE   KEYSH   UnmarkedGrave_key+0
 BYTE   VOICE   124
 BYTE   W96
//  #05 //001   ----------------------------------------
Label_0163F4E0:
Label_0163F4E3:
 BYTE   W48
 BYTE   TIE  Cn3  v060
 BYTE   W48
 BYTE   PEND 
//  #05 //002   ----------------------------------------
 BYTE   W92
 BYTE   W03
 BYTE   EOT
 BYTE   W01
//  #05 //003   ----------------------------------------
 BYTE   W96
//  #05 //004   ----------------------------------------
 BYTE   W96
//  #05 //005   ----------------------------------------
 BYTE   W96
//  #05 //006   ----------------------------------------
 BYTE   W96
//  #05 //007   ----------------------------------------
 BYTE   PATT
  POIN2 Label_0163F4E3
//  #05 //008   ----------------------------------------
 BYTE   W92
 BYTE   W03
 BYTE   EOT
 BYTE   Cn3
 BYTE   W01
//  #05 //009   ----------------------------------------
 BYTE   W96
//  #05 //010   ----------------------------------------
 BYTE   W96
//  #05 //011   ----------------------------------------
 BYTE   W96
//  #05 //012   ----------------------------------------
 BYTE   W96
//  #05 //013   ----------------------------------------
 BYTE   W96
//  #05 //014   ----------------------------------------
 BYTE   W96
//  #05 //015   ----------------------------------------
 BYTE   W96
//  #05 //016   ----------------------------------------
 BYTE   W96
//  #05 //017   ----------------------------------------
 BYTE   W96
//  #05 //018   ----------------------------------------
 BYTE   W96
//  #05 //019   ----------------------------------------
 BYTE   PATT
  POIN2 Label_0163F4E3
//  #05 //020   ----------------------------------------
 BYTE   W92
 BYTE   W03
 BYTE   EOT
 BYTE   Cn3
 BYTE   W01
//  #05 //021   ----------------------------------------
 BYTE   W96
//  #05 //022   ----------------------------------------
 BYTE   W96
//  #05 //023   ----------------------------------------
 BYTE   W96
//  #05 //024   ----------------------------------------
 BYTE   W96
//  #05 //025   ----------------------------------------
 BYTE   W96
//  #05 //026   ----------------------------------------
 BYTE   W96
//  #05 //027   ----------------------------------------
 BYTE   W96
//  #05 //028   ----------------------------------------
 BYTE   W96
//  #05 //029   ----------------------------------------
 BYTE   W96
//  #05 //030   ----------------------------------------
 BYTE   W96
//  #05 //031   ----------------------------------------
 BYTE   PATT
  POIN2 Label_0163F4E3
//  #05 //032   ----------------------------------------
 BYTE   W92
 BYTE   W03
 BYTE   EOT
 BYTE   Cn3
 BYTE   W01
//  #05 //033   ----------------------------------------
 BYTE   W96
//  #05 //034   ----------------------------------------
 BYTE   W96
//  #05 //035   ----------------------------------------
 BYTE   W96
//  #05 //036   ----------------------------------------
 BYTE   W96
//  #05 //037   ----------------------------------------
 BYTE   PATT
  POIN2 Label_0163F4E3
//  #05 //038   ----------------------------------------
 BYTE   W92
 BYTE   W03
 BYTE   EOT
 BYTE   Cn3
 BYTE   W01
//  #05 //039   ----------------------------------------
 BYTE   W96
//  #05 //040   ----------------------------------------
 BYTE   W96
//  #05 //041   ----------------------------------------
 BYTE   W96
//  #05 //042   ----------------------------------------
 BYTE   W96
//  #05 //043   ----------------------------------------
 BYTE   W48
 BYTE   TIE  Cn3  v080
 BYTE   W48
//  #05 //044   ----------------------------------------
 BYTE   W92
 BYTE   W03
 BYTE   EOT
 BYTE   W01
//  #05 //045   ----------------------------------------
 BYTE   W96
//  #05 //046   ----------------------------------------
 BYTE   W96
//  #05 //047   ----------------------------------------
 BYTE   W96
//  #05 //048   ----------------------------------------
 BYTE   W96
//  #05 //049   ----------------------------------------
 BYTE   W48
 BYTE   TIE  Cn3  v072
 BYTE   W48
//  #05 //050   ----------------------------------------
 BYTE   W92
 BYTE   W03
 BYTE   EOT
 BYTE   W01
//  #05 //051   ----------------------------------------
 BYTE   W96
//  #05 //052   ----------------------------------------
 BYTE   W96
//  #05 //053   ----------------------------------------
 BYTE   W96
//  #05 //054   ----------------------------------------
 BYTE   W96
//  #05 //055   ----------------------------------------
 BYTE   W96
//  #05 //056   ----------------------------------------
 BYTE   W96
//  #05 //057   ----------------------------------------
 BYTE   W96
//  #05 //058   ----------------------------------------
 BYTE   W96
//  #05 //059   ----------------------------------------
 BYTE   W96
//  #05 //060   ----------------------------------------
 BYTE   W96
//  #05 //061   ----------------------------------------
 BYTE   W96
//  #05 //062   ----------------------------------------
 BYTE   GoTo
  POIN2 Label_0163F4E0
 BYTE   FINE

//**************** Track 6 (Midi-Chn.5) ****************//

UnmarkedGrave_006:
//  #06 //000   ----------------------------------------
 BYTE   KEYSH   UnmarkedGrave_key+0
 BYTE   VOICE   124
 BYTE   VOL   39*UnmarkedGrave_mvl/mxv
 BYTE   PAN   c_v+60
 BYTE   W96
//  #06 //001   ----------------------------------------
Label_014C14F6:
Label_014C14FD:
 BYTE   W48
 BYTE   W01
 BYTE   TIE  Cn3  v064
 BYTE   W44
 BYTE   W03
 BYTE   PEND 
//  #06 //002   ----------------------------------------
 BYTE   W72
 BYTE   W03
 BYTE   EOT
 BYTE   W21
//  #06 //003   ----------------------------------------
 BYTE   W96
//  #06 //004   ----------------------------------------
 BYTE   W96
//  #06 //005   ----------------------------------------
 BYTE   W96
//  #06 //006   ----------------------------------------
 BYTE   W96
//  #06 //007   ----------------------------------------
 BYTE   PATT
  POIN2 Label_014C14FD
//  #06 //008   ----------------------------------------
 BYTE   W72
 BYTE   W03
 BYTE   EOT
 BYTE   Cn3
 BYTE   W21
//  #06 //009   ----------------------------------------
 BYTE   W96
//  #06 //010   ----------------------------------------
 BYTE   W96
//  #06 //011   ----------------------------------------
 BYTE   W96
//  #06 //012   ----------------------------------------
 BYTE   W96
//  #06 //013   ----------------------------------------
 BYTE   W96
//  #06 //014   ----------------------------------------
 BYTE   W96
//  #06 //015   ----------------------------------------
 BYTE   W96
//  #06 //016   ----------------------------------------
 BYTE   W96
//  #06 //017   ----------------------------------------
 BYTE   W96
//  #06 //018   ----------------------------------------
 BYTE   W96
//  #06 //019   ----------------------------------------
 BYTE   W96
//  #06 //020   ----------------------------------------
 BYTE   W96
//  #06 //021   ----------------------------------------
 BYTE   W96
//  #06 //022   ----------------------------------------
 BYTE   W96
//  #06 //023   ----------------------------------------
 BYTE   W96
//  #06 //024   ----------------------------------------
 BYTE   W96
//  #06 //025   ----------------------------------------
 BYTE   W96
//  #06 //026   ----------------------------------------
 BYTE   W96
//  #06 //027   ----------------------------------------
 BYTE   W96
//  #06 //028   ----------------------------------------
 BYTE   W96
//  #06 //029   ----------------------------------------
 BYTE   W96
//  #06 //030   ----------------------------------------
 BYTE   W96
//  #06 //031   ----------------------------------------
 BYTE   W96
//  #06 //032   ----------------------------------------
 BYTE   W96
//  #06 //033   ----------------------------------------
 BYTE   W96
//  #06 //034   ----------------------------------------
 BYTE   W96
//  #06 //035   ----------------------------------------
 BYTE   W96
//  #06 //036   ----------------------------------------
 BYTE   W96
//  #06 //037   ----------------------------------------
 BYTE   W96
//  #06 //038   ----------------------------------------
 BYTE   W96
//  #06 //039   ----------------------------------------
 BYTE   W96
//  #06 //040   ----------------------------------------
 BYTE   W96
//  #06 //041   ----------------------------------------
 BYTE   W96
//  #06 //042   ----------------------------------------
 BYTE   W96
//  #06 //043   ----------------------------------------
 BYTE   W96
//  #06 //044   ----------------------------------------
 BYTE   W96
//  #06 //045   ----------------------------------------
 BYTE   W96
//  #06 //046   ----------------------------------------
 BYTE   W96
//  #06 //047   ----------------------------------------
 BYTE   W96
//  #06 //048   ----------------------------------------
 BYTE   W96
//  #06 //049   ----------------------------------------
 BYTE   W96
//  #06 //050   ----------------------------------------
 BYTE   W96
//  #06 //051   ----------------------------------------
 BYTE   W96
//  #06 //052   ----------------------------------------
 BYTE   W96
//  #06 //053   ----------------------------------------
Label_014C1543:
 BYTE   W24
 BYTE   W01
 BYTE   N48  Cn3  v064
 BYTE   W68
 BYTE   W03
 BYTE   PEND 
//  #06 //054   ----------------------------------------
Label_014C154B:
 BYTE   W72
 BYTE   W01
 BYTE   N48  Cn3  v064
 BYTE   W23
 BYTE   PEND 
//  #06 //055   ----------------------------------------
 BYTE   W96
//  #06 //056   ----------------------------------------
 BYTE   PATT
  POIN2 Label_014C1543
//  #06 //057   ----------------------------------------
 BYTE   PATT
  POIN2 Label_014C154B
//  #06 //058   ----------------------------------------
 BYTE   W96
//  #06 //059   ----------------------------------------
 BYTE   PATT
  POIN2 Label_014C1543
//  #06 //060   ----------------------------------------
 BYTE   W96
//  #06 //061   ----------------------------------------
 BYTE   W96
//  #06 //062   ----------------------------------------
 BYTE   GoTo
  POIN2 Label_014C14F6
 BYTE   FINE

//**************** Track 7 (Midi-Chn.6) ****************//

UnmarkedGrave_007:
//  #07 //000   ----------------------------------------
 BYTE   KEYSH   UnmarkedGrave_key+0
 BYTE   VOICE   124
 BYTE   VOL   39*UnmarkedGrave_mvl/mxv
 BYTE   PAN   c_v+0
 BYTE   W80
 BYTE   W04
 BYTE   N56  Cn3  v064
 BYTE   W01
 BYTE   W02
 BYTE   W02
 BYTE   W01
 BYTE   W01
 BYTE   W02
 BYTE   W01
 BYTE   W01
 BYTE   W01
//  #07 //001   ----------------------------------------
Label_014C166E:
Label_014C1682:
 BYTE   W01
 BYTE   W01
 BYTE   W01
 BYTE   W01
 BYTE   W01
 BYTE   W01
 BYTE   W01
 BYTE   W01
 BYTE   W01
 BYTE   W01
 BYTE   W01
 BYTE   W01
 BYTE   W01
 BYTE   W01
 BYTE   W01
 BYTE   W01
 BYTE   W01
 BYTE   W01
 BYTE   W01
 BYTE   W01
 BYTE   W01
 BYTE   W01
 BYTE   W01
 BYTE   W01
 BYTE   W01
 BYTE   W01
 BYTE   W01
 BYTE   W01
 BYTE   W01
 BYTE   W01
 BYTE   W01
 BYTE   W01
 BYTE   W01
 BYTE   W01
 BYTE   W01
 BYTE   W01
 BYTE   W01
 BYTE   W01
 BYTE   W01
 BYTE   W56
 BYTE   W01
 BYTE   PEND 
//  #07 //002   ----------------------------------------
 BYTE   W96
//  #07 //003   ----------------------------------------
 BYTE   W96
//  #07 //004   ----------------------------------------
 BYTE   W96
//  #07 //005   ----------------------------------------
 BYTE   W96
//  #07 //006   ----------------------------------------
Label_014C16B0:
 BYTE   W80
 BYTE   W04
 BYTE   N56  Cn3  v064
 BYTE   W01
 BYTE   W02
 BYTE   W02
 BYTE   W01
 BYTE   W01
 BYTE   W02
 BYTE   W01
 BYTE   W01
 BYTE   W01
 BYTE   PEND 
//  #07 //007   ----------------------------------------
 BYTE   PATT
  POIN2 Label_014C1682
//  #07 //008   ----------------------------------------
 BYTE   W96
//  #07 //009   ----------------------------------------
 BYTE   W96
//  #07 //010   ----------------------------------------
 BYTE   W96
//  #07 //011   ----------------------------------------
 BYTE   W96
//  #07 //012   ----------------------------------------
 BYTE   W96
//  #07 //013   ----------------------------------------
 BYTE   W96
//  #07 //014   ----------------------------------------
 BYTE   W96
//  #07 //015   ----------------------------------------
 BYTE   W96
//  #07 //016   ----------------------------------------
 BYTE   W96
//  #07 //017   ----------------------------------------
 BYTE   W96
//  #07 //018   ----------------------------------------
 BYTE   PATT
  POIN2 Label_014C16B0
//  #07 //019   ----------------------------------------
 BYTE   PATT
  POIN2 Label_014C1682
//  #07 //020   ----------------------------------------
 BYTE   W96
//  #07 //021   ----------------------------------------
 BYTE   W96
//  #07 //022   ----------------------------------------
 BYTE   W96
//  #07 //023   ----------------------------------------
 BYTE   W96
//  #07 //024   ----------------------------------------
 BYTE   W96
//  #07 //025   ----------------------------------------
 BYTE   W96
//  #07 //026   ----------------------------------------
 BYTE   W96
//  #07 //027   ----------------------------------------
 BYTE   W96
//  #07 //028   ----------------------------------------
 BYTE   W96
//  #07 //029   ----------------------------------------
 BYTE   W96
//  #07 //030   ----------------------------------------
 BYTE   PATT
  POIN2 Label_014C16B0
//  #07 //031   ----------------------------------------
 BYTE   PATT
  POIN2 Label_014C1682
//  #07 //032   ----------------------------------------
 BYTE   W96
//  #07 //033   ----------------------------------------
 BYTE   W96
//  #07 //034   ----------------------------------------
 BYTE   W96
//  #07 //035   ----------------------------------------
 BYTE   W96
//  #07 //036   ----------------------------------------
 BYTE   W96
//  #07 //037   ----------------------------------------
 BYTE   W96
//  #07 //038   ----------------------------------------
 BYTE   W96
//  #07 //039   ----------------------------------------
 BYTE   W96
//  #07 //040   ----------------------------------------
 BYTE   W96
//  #07 //041   ----------------------------------------
 BYTE   W96
//  #07 //042   ----------------------------------------
 BYTE   PATT
  POIN2 Label_014C16B0
//  #07 //043   ----------------------------------------
 BYTE   PATT
  POIN2 Label_014C1682
//  #07 //044   ----------------------------------------
 BYTE   W96
//  #07 //045   ----------------------------------------
 BYTE   W96
//  #07 //046   ----------------------------------------
 BYTE   W96
//  #07 //047   ----------------------------------------
 BYTE   W96
//  #07 //048   ----------------------------------------
 BYTE   PATT
  POIN2 Label_014C16B0
//  #07 //049   ----------------------------------------
 BYTE   PATT
  POIN2 Label_014C1682
//  #07 //050   ----------------------------------------
 BYTE   W96
//  #07 //051   ----------------------------------------
 BYTE   W96
//  #07 //052   ----------------------------------------
 BYTE   W96
//  #07 //053   ----------------------------------------
 BYTE   W96
//  #07 //054   ----------------------------------------
 BYTE   W96
//  #07 //055   ----------------------------------------
 BYTE   W96
//  #07 //056   ----------------------------------------
 BYTE   W96
//  #07 //057   ----------------------------------------
 BYTE   W96
//  #07 //058   ----------------------------------------
 BYTE   W96
//  #07 //059   ----------------------------------------
 BYTE   W96
//  #07 //060   ----------------------------------------
 BYTE   PATT
  POIN2 Label_014C16B0
//  #07 //061   ----------------------------------------
 BYTE   PATT
  POIN2 Label_014C1682
//  #07 //062   ----------------------------------------
 BYTE   GoTo
  POIN2 Label_014C166E
 BYTE   FINE

//**************** Track 8 (Midi-Chn.7) ****************//

UnmarkedGrave_008:
//  #08 //000   ----------------------------------------
 BYTE   KEYSH   UnmarkedGrave_key+0
 BYTE   VOICE   10
 BYTE   W96
//  #08 //001   ----------------------------------------
Label_014C157E:
 BYTE   W96
//  #08 //002   ----------------------------------------
 BYTE   W96
//  #08 //003   ----------------------------------------
 BYTE   W96
//  #08 //004   ----------------------------------------
 BYTE   W96
//  #08 //005   ----------------------------------------
 BYTE   W96
//  #08 //006   ----------------------------------------
 BYTE   W96
//  #08 //007   ----------------------------------------
 BYTE   W96
//  #08 //008   ----------------------------------------
 BYTE   W96
//  #08 //009   ----------------------------------------
 BYTE   W96
//  #08 //010   ----------------------------------------
 BYTE   W96
//  #08 //011   ----------------------------------------
 BYTE   W96
//  #08 //012   ----------------------------------------
 BYTE   W96
//  #08 //013   ----------------------------------------
 BYTE   W96
//  #08 //014   ----------------------------------------
 BYTE   W96
//  #08 //015   ----------------------------------------
 BYTE   W96
//  #08 //016   ----------------------------------------
 BYTE   W96
//  #08 //017   ----------------------------------------
 BYTE   W96
//  #08 //018   ----------------------------------------
 BYTE   W96
//  #08 //019   ----------------------------------------
 BYTE   W96
//  #08 //020   ----------------------------------------
 BYTE   W96
//  #08 //021   ----------------------------------------
 BYTE   W96
//  #08 //022   ----------------------------------------
 BYTE   W96
//  #08 //023   ----------------------------------------
 BYTE   W96
//  #08 //024   ----------------------------------------
 BYTE   W96
//  #08 //025   ----------------------------------------
 BYTE   W96
//  #08 //026   ----------------------------------------
 BYTE   W96
//  #08 //027   ----------------------------------------
 BYTE   W96
//  #08 //028   ----------------------------------------
 BYTE   W96
//  #08 //029   ----------------------------------------
 BYTE   W96
//  #08 //030   ----------------------------------------
 BYTE   W96
//  #08 //031   ----------------------------------------
 BYTE   W96
//  #08 //032   ----------------------------------------
 BYTE   W96
//  #08 //033   ----------------------------------------
 BYTE   W96
//  #08 //034   ----------------------------------------
 BYTE   W96
//  #08 //035   ----------------------------------------
 BYTE   W96
//  #08 //036   ----------------------------------------
 BYTE   W96
//  #08 //037   ----------------------------------------
 BYTE   W96
//  #08 //038   ----------------------------------------
 BYTE   W96
//  #08 //039   ----------------------------------------
 BYTE   W96
//  #08 //040   ----------------------------------------
 BYTE   W96
//  #08 //041   ----------------------------------------
 BYTE   W96
//  #08 //042   ----------------------------------------
Label_014C15AA:
 BYTE   W68
 BYTE   W01
 BYTE   VOL   16*UnmarkedGrave_mvl/mxv
 BYTE   W03
 BYTE   N72  An1  v127
 BYTE   W05
 BYTE   VOL   17*UnmarkedGrave_mvl/mxv
 BYTE   W07
 BYTE   VOL   17*UnmarkedGrave_mvl/mxv
 BYTE   W02
 BYTE   VOL   17*UnmarkedGrave_mvl/mxv
 BYTE   W02
 BYTE   VOL   18*UnmarkedGrave_mvl/mxv
 BYTE   W02
 BYTE   VOL   18*UnmarkedGrave_mvl/mxv
 BYTE   W03
 BYTE   VOL   18*UnmarkedGrave_mvl/mxv
 BYTE   W02
 BYTE   VOL   19*UnmarkedGrave_mvl/mxv
 BYTE   W01
 BYTE   PEND 
//  #08 //043   ----------------------------------------
Label_014C15C3:
 BYTE   VOL   19*UnmarkedGrave_mvl/mxv
 BYTE   W01
 BYTE   VOL   20*UnmarkedGrave_mvl/mxv
 BYTE   W03
 BYTE   VOL   20*UnmarkedGrave_mvl/mxv
 BYTE   W01
 BYTE   VOL   20*UnmarkedGrave_mvl/mxv
 BYTE   W01
 BYTE   VOL   21*UnmarkedGrave_mvl/mxv
 BYTE   W01
 BYTE   VOL   21*UnmarkedGrave_mvl/mxv
 BYTE   W02
 BYTE   VOL   22*UnmarkedGrave_mvl/mxv
 BYTE   W01
 BYTE   VOL   22*UnmarkedGrave_mvl/mxv
 BYTE   W01
 BYTE   VOL   22*UnmarkedGrave_mvl/mxv
 BYTE   W01
 BYTE   VOL   23*UnmarkedGrave_mvl/mxv
 BYTE   W01
 BYTE   VOL   23*UnmarkedGrave_mvl/mxv
 BYTE   W02
 BYTE   VOL   23*UnmarkedGrave_mvl/mxv
 BYTE   W01
 BYTE   VOL   24*UnmarkedGrave_mvl/mxv
 BYTE   W01
 BYTE   VOL   25*UnmarkedGrave_mvl/mxv
 BYTE   W02
 BYTE   VOL   25*UnmarkedGrave_mvl/mxv
 BYTE   W01
 BYTE   VOL   25*UnmarkedGrave_mvl/mxv
 BYTE   W01
 BYTE   VOL   26*UnmarkedGrave_mvl/mxv
 BYTE   W01
 BYTE   VOL   27*UnmarkedGrave_mvl/mxv
 BYTE   W02
 BYTE   VOL   27*UnmarkedGrave_mvl/mxv
 BYTE   W01
 BYTE   VOL   28*UnmarkedGrave_mvl/mxv
 BYTE   W01
 BYTE   VOL   28*UnmarkedGrave_mvl/mxv
 BYTE   W01
 BYTE   VOL   28*UnmarkedGrave_mvl/mxv
 BYTE   W01
 BYTE   VOL   29*UnmarkedGrave_mvl/mxv
 BYTE   W01
 BYTE   VOL   30*UnmarkedGrave_mvl/mxv
 BYTE   W01
 BYTE   VOL   30*UnmarkedGrave_mvl/mxv
 BYTE   W01
 BYTE   VOL   30*UnmarkedGrave_mvl/mxv
 BYTE   W01
 BYTE   VOL   31*UnmarkedGrave_mvl/mxv
 BYTE   W01
 BYTE   VOL   32*UnmarkedGrave_mvl/mxv
 BYTE   W01
 BYTE   VOL   32*UnmarkedGrave_mvl/mxv
 BYTE   W01
 BYTE   VOL   32*UnmarkedGrave_mvl/mxv
 BYTE   W01
 BYTE   VOL   33*UnmarkedGrave_mvl/mxv
 BYTE   W01
 BYTE   VOL   33*UnmarkedGrave_mvl/mxv
 BYTE   W01
 BYTE   VOL   34*UnmarkedGrave_mvl/mxv
 BYTE   W01
 BYTE   VOL   35*UnmarkedGrave_mvl/mxv
 BYTE   W01
 BYTE   VOL   35*UnmarkedGrave_mvl/mxv
 BYTE   W01
 BYTE   VOL   36*UnmarkedGrave_mvl/mxv
 BYTE   W01
 BYTE   VOL   37*UnmarkedGrave_mvl/mxv
 BYTE   W01
 BYTE   VOL   37*UnmarkedGrave_mvl/mxv
 BYTE   W01
 BYTE   VOL   38*UnmarkedGrave_mvl/mxv
 BYTE   W01
 BYTE   VOL   39*UnmarkedGrave_mvl/mxv
 BYTE   W48
 BYTE   W03
 BYTE   PEND 
//  #08 //044   ----------------------------------------
 BYTE   W96
//  #08 //045   ----------------------------------------
 BYTE   W96
//  #08 //046   ----------------------------------------
 BYTE   W96
//  #08 //047   ----------------------------------------
 BYTE   W96
//  #08 //048   ----------------------------------------
 BYTE   PATT
  POIN2 Label_014C15AA
//  #08 //049   ----------------------------------------
 BYTE   PATT
  POIN2 Label_014C15C3
//  #08 //050   ----------------------------------------
 BYTE   W96
//  #08 //051   ----------------------------------------
 BYTE   W96
//  #08 //052   ----------------------------------------
 BYTE   W96
//  #08 //053   ----------------------------------------
 BYTE   W96
//  #08 //054   ----------------------------------------
 BYTE   W96
//  #08 //055   ----------------------------------------
 BYTE   W96
//  #08 //056   ----------------------------------------
 BYTE   W96
//  #08 //057   ----------------------------------------
 BYTE   W96
//  #08 //058   ----------------------------------------
 BYTE   W96
//  #08 //059   ----------------------------------------
 BYTE   W96
//  #08 //060   ----------------------------------------
 BYTE   W96
//  #08 //061   ----------------------------------------
 BYTE   W96
//  #08 //062   ----------------------------------------
 BYTE   GoTo
  POIN2 Label_014C157E
 BYTE   FINE

//**************** Track 9 (Midi-Chn.8) ****************//

UnmarkedGrave_009:
//  #09 //000   ----------------------------------------
 BYTE   KEYSH   UnmarkedGrave_key+0
 BYTE   VOICE   36
 BYTE   VOL   27*UnmarkedGrave_mvl/mxv
 BYTE   PAN   c_v+50
 BYTE   W96
//  #09 //001   ----------------------------------------
Label_014C173A:
 BYTE   W96
//  #09 //002   ----------------------------------------
 BYTE   W96
//  #09 //003   ----------------------------------------
 BYTE   W96
//  #09 //004   ----------------------------------------
 BYTE   W96
//  #09 //005   ----------------------------------------
 BYTE   W96
//  #09 //006   ----------------------------------------
 BYTE   W96
//  #09 //007   ----------------------------------------
 BYTE   W96
//  #09 //008   ----------------------------------------
 BYTE   W96
//  #09 //009   ----------------------------------------
 BYTE   W96
//  #09 //010   ----------------------------------------
 BYTE   W96
//  #09 //011   ----------------------------------------
 BYTE   W96
//  #09 //012   ----------------------------------------
 BYTE   W96
//  #09 //013   ----------------------------------------
 BYTE   W96
//  #09 //014   ----------------------------------------
 BYTE   W96
//  #09 //015   ----------------------------------------
 BYTE   W96
//  #09 //016   ----------------------------------------
 BYTE   W96
//  #09 //017   ----------------------------------------
 BYTE   W96
//  #09 //018   ----------------------------------------
 BYTE   W96
//  #09 //019   ----------------------------------------
 BYTE   W60
 BYTE   BEND   c_v+1
 BYTE   W36
//  #09 //020   ----------------------------------------
 BYTE   W36
 BYTE   N05  Ds3  v044
 BYTE   W18
 BYTE   Ds3  v028
 BYTE   W42
//  #09 //021   ----------------------------------------
 BYTE   W84
 BYTE   Cs3  v044
 BYTE   W12
//  #09 //022   ----------------------------------------
 BYTE   W06
 BYTE   Cs3  v028
 BYTE   W90
//  #09 //023   ----------------------------------------
 BYTE   W36
 BYTE   Gn3  v044
 BYTE   W18
 BYTE   Gn3  v032
 BYTE   W06
 BYTE   Fn3  v044
 BYTE   W18
 BYTE   Fn3  v032
 BYTE   W18
//  #09 //024   ----------------------------------------
 BYTE   W84
 BYTE   As2  v040
 BYTE   W12
//  #09 //025   ----------------------------------------
 BYTE   W06
 BYTE   As2  v032
 BYTE   W06
 BYTE   An2  v044
 BYTE   W18
 BYTE   An2  v032
 BYTE   W66
//  #09 //026   ----------------------------------------
 BYTE   W36
 BYTE   An3  v044
 BYTE   W18
 BYTE   An3  v028
 BYTE   W06
 BYTE   N04  Dn3  v044
 BYTE   W18
 BYTE   Dn3  v028
 BYTE   W06
 BYTE   N05  An2  v044
 BYTE   W12
//  #09 //027   ----------------------------------------
 BYTE   W06
 BYTE   An2  v028
 BYTE   W06
 BYTE   Dn2  v044
 BYTE   W18
 BYTE   Dn2  v028
 BYTE   W54
 BYTE   Gn3  v044
 BYTE   W12
//  #09 //028   ----------------------------------------
 BYTE   W06
 BYTE   Gn3  v028
 BYTE   W06
 BYTE   N04  Dn3  v044
 BYTE   W18
 BYTE   Dn3  v028
 BYTE   W06
 BYTE   N05  Gn2  v044
 BYTE   W18
 BYTE   Gn2  v028
 BYTE   W42
//  #09 //029   ----------------------------------------
 BYTE   W36
 BYTE   N04  Gn2  v044
 BYTE   W18
 BYTE   Gn2  v032
 BYTE   W06
 BYTE   Cn3  v044
 BYTE   W18
 BYTE   Cn3  v032
 BYTE   W06
 BYTE   Gn3  v044
 BYTE   W12
//  #09 //030   ----------------------------------------
 BYTE   W06
 BYTE   Gn3  v032
 BYTE   W78
 BYTE   Cn3  v048
 BYTE   W12
//  #09 //031   ----------------------------------------
 BYTE   W06
 BYTE   Cn3  v032
 BYTE   W06
 BYTE   Gn3  v048
 BYTE   W18
 BYTE   Gn3  v036
 BYTE   W06
 BYTE   N03  Cn4  v064
 BYTE   W18
 BYTE   Cn4  v048
 BYTE   W42
//  #09 //032   ----------------------------------------
 BYTE   W96
//  #09 //033   ----------------------------------------
 BYTE   W96
//  #09 //034   ----------------------------------------
 BYTE   W96
//  #09 //035   ----------------------------------------
 BYTE   W96
//  #09 //036   ----------------------------------------
 BYTE   W96
//  #09 //037   ----------------------------------------
 BYTE   W96
//  #09 //038   ----------------------------------------
 BYTE   W96
//  #09 //039   ----------------------------------------
 BYTE   W96
//  #09 //040   ----------------------------------------
 BYTE   W96
//  #09 //041   ----------------------------------------
 BYTE   W96
//  #09 //042   ----------------------------------------
 BYTE   W96
//  #09 //043   ----------------------------------------
 BYTE   W60
 BYTE   N05  An3  v084
 BYTE   W18
 BYTE   An3  v048
 BYTE   W06
 BYTE   N04  En3  v084
 BYTE   W12
//  #09 //044   ----------------------------------------
 BYTE   W06
 BYTE   En3  v048
 BYTE   W06
 BYTE   Fn3  v084
 BYTE   W18
 BYTE   Fn3  v048
 BYTE   W06
 BYTE   N05  Dn3  v084
 BYTE   W18
 BYTE   Dn3  v048
 BYTE   W42
//  #09 //045   ----------------------------------------
 BYTE   W96
//  #09 //046   ----------------------------------------
 BYTE   W96
//  #09 //047   ----------------------------------------
 BYTE   W96
//  #09 //048   ----------------------------------------
 BYTE   W96
//  #09 //049   ----------------------------------------
 BYTE   W60
 BYTE   N04  Gn3  v080
 BYTE   W18
 BYTE   Gn3  v052
 BYTE   W16
 BYTE   N03  Fn3  v064
 BYTE   W02
//  #09 //050   ----------------------------------------
 BYTE   W10
 BYTE   Fn3  v072
 BYTE   W13
 BYTE   En3  v068
 BYTE   W05
 BYTE   Fn3  v048
 BYTE   W08
 BYTE   N04  En3  v064
 BYTE   W17
 BYTE   En3  v040
 BYTE   W07
 BYTE   Dn3  v060
 BYTE   W17
 BYTE   Dn3  v036
 BYTE   W19
//  #09 //051   ----------------------------------------
 BYTE   W96
//  #09 //052   ----------------------------------------
 BYTE   W96
//  #09 //053   ----------------------------------------
Label_014C182D:
 BYTE   W36
 BYTE   N05  Gn2  v044
 BYTE   W18
 BYTE   Gn2  v024
 BYTE   W06
 BYTE   Dn3  v036
 BYTE   W18
 BYTE   Dn3  v016
 BYTE   W18
 BYTE   PEND 
//  #09 //054   ----------------------------------------
 BYTE   W84
 BYTE   N06  Cn3  v044
 BYTE   W12
//  #09 //055   ----------------------------------------
Label_014C1841:
 BYTE   W06
 BYTE   N06  Cn3  v024
 BYTE   W06
 BYTE   N03  Gn3  v036
 BYTE   W18
 BYTE   Gn3  v016
 BYTE   W66
 BYTE   PEND 
//  #09 //056   ----------------------------------------
 BYTE   PATT
  POIN2 Label_014C182D
//  #09 //057   ----------------------------------------
 BYTE   W84
 BYTE   N06  Cn3  v044
 BYTE   W12
//  #09 //058   ----------------------------------------
 BYTE   PATT
  POIN2 Label_014C1841
//  #09 //059   ----------------------------------------
 BYTE   W36
 BYTE   N06  Ds3  v044
 BYTE   W18
 BYTE   Ds3  v024
 BYTE   W06
 BYTE   N03  As3  v036
 BYTE   W18
 BYTE   As3  v016
 BYTE   W18
//  #09 //060   ----------------------------------------
 BYTE   W96
//  #09 //061   ----------------------------------------
 BYTE   W96
//  #09 //062   ----------------------------------------
 BYTE   GoTo
  POIN2 Label_014C173A
 BYTE   FINE

//**************** Track 10 (Midi-Chn.9) ****************//

UnmarkedGrave_010:
//  #10 //000   ----------------------------------------
 BYTE   KEYSH   UnmarkedGrave_key+0
 BYTE   VOICE   10
 BYTE   VOL   39*UnmarkedGrave_mvl/mxv
 BYTE   PAN   c_v+0
 BYTE   W96
//  #10 //001   ----------------------------------------
Label_014C188A:
 BYTE   W96
//  #10 //002   ----------------------------------------
 BYTE   W96
//  #10 //003   ----------------------------------------
 BYTE   W96
//  #10 //004   ----------------------------------------
 BYTE   W96
//  #10 //005   ----------------------------------------
 BYTE   W96
//  #10 //006   ----------------------------------------
 BYTE   W96
//  #10 //007   ----------------------------------------
 BYTE   W96
//  #10 //008   ----------------------------------------
 BYTE   W96
//  #10 //009   ----------------------------------------
 BYTE   W96
//  #10 //010   ----------------------------------------
 BYTE   W96
//  #10 //011   ----------------------------------------
 BYTE   W96
//  #10 //012   ----------------------------------------
 BYTE   W96
//  #10 //013   ----------------------------------------
 BYTE   W96
//  #10 //014   ----------------------------------------
 BYTE   W96
//  #10 //015   ----------------------------------------
 BYTE   W96
//  #10 //016   ----------------------------------------
 BYTE   W96
//  #10 //017   ----------------------------------------
 BYTE   W96
//  #10 //018   ----------------------------------------
 BYTE   W96
//  #10 //019   ----------------------------------------
 BYTE   W96
//  #10 //020   ----------------------------------------
 BYTE   W96
//  #10 //021   ----------------------------------------
 BYTE   W96
//  #10 //022   ----------------------------------------
 BYTE   W96
//  #10 //023   ----------------------------------------
 BYTE   W96
//  #10 //024   ----------------------------------------
 BYTE   W96
//  #10 //025   ----------------------------------------
 BYTE   W96
//  #10 //026   ----------------------------------------
 BYTE   W96
//  #10 //027   ----------------------------------------
 BYTE   W96
//  #10 //028   ----------------------------------------
 BYTE   W96
//  #10 //029   ----------------------------------------
 BYTE   W96
//  #10 //030   ----------------------------------------
 BYTE   W96
//  #10 //031   ----------------------------------------
 BYTE   W48
 BYTE   N44  Gn1  v076
 BYTE   W48
//  #10 //032   ----------------------------------------
 BYTE   W96
//  #10 //033   ----------------------------------------
 BYTE   W96
//  #10 //034   ----------------------------------------
 BYTE   W96
//  #10 //035   ----------------------------------------
 BYTE   W96
//  #10 //036   ----------------------------------------
 BYTE   W96
//  #10 //037   ----------------------------------------
 BYTE   W96
//  #10 //038   ----------------------------------------
 BYTE   W96
//  #10 //039   ----------------------------------------
 BYTE   W96
//  #10 //040   ----------------------------------------
 BYTE   W96
//  #10 //041   ----------------------------------------
 BYTE   W96
//  #10 //042   ----------------------------------------
 BYTE   W96
//  #10 //043   ----------------------------------------
 BYTE   W48
 BYTE   Dn1  v127
 BYTE   W48
//  #10 //044   ----------------------------------------
 BYTE   W96
//  #10 //045   ----------------------------------------
 BYTE   W96
//  #10 //046   ----------------------------------------
 BYTE   W96
//  #10 //047   ----------------------------------------
 BYTE   W96
//  #10 //048   ----------------------------------------
 BYTE   W96
//  #10 //049   ----------------------------------------
 BYTE   W48
 BYTE   N44
 BYTE   W48
//  #10 //050   ----------------------------------------
 BYTE   W96
//  #10 //051   ----------------------------------------
 BYTE   W96
//  #10 //052   ----------------------------------------
 BYTE   W96
//  #10 //053   ----------------------------------------
 BYTE   W96
//  #10 //054   ----------------------------------------
 BYTE   W96
//  #10 //055   ----------------------------------------
 BYTE   W96
//  #10 //056   ----------------------------------------
 BYTE   W96
//  #10 //057   ----------------------------------------
 BYTE   W96
//  #10 //058   ----------------------------------------
 BYTE   W96
//  #10 //059   ----------------------------------------
 BYTE   W96
//  #10 //060   ----------------------------------------
 BYTE   W96
//  #10 //061   ----------------------------------------
 BYTE   W96
//  #10 //062   ----------------------------------------
 BYTE   GoTo
  POIN2 Label_014C188A
 BYTE   FINE

//**************** Track 11 (Midi-Chn.10) ****************//

UnmarkedGrave_011:
//  #11 //000   ----------------------------------------
 BYTE   KEYSH   UnmarkedGrave_key+0
 BYTE   VOICE   1
 BYTE   VOL   23*UnmarkedGrave_mvl/mxv
 BYTE   PAN   c_v+0
 BYTE   W96
//  #11 //001   ----------------------------------------
Label_014C18F2:
 BYTE   W66
 BYTE   BEND   c_v+2
 BYTE   W02
 BYTE   N44  Fn3  v080
 BYTE   W28
//  #11 //002   ----------------------------------------
Label_014C1901:
 BYTE   W18
 BYTE   N11  Ds3  v080
 BYTE   W12
 BYTE   As3
 BYTE   W12
 BYTE   N44  Fn3
 BYTE   W54
 BYTE   PEND 
//  #11 //003   ----------------------------------------
Label_014C190C:
 BYTE   W18
 BYTE   N44  Fn3  v080
 BYTE   W48
 BYTE   N11  Ds3
 BYTE   W12
 BYTE   As3
 BYTE   W12
 BYTE   N23  Gs3
 BYTE   W06
 BYTE   PEND 
//  #11 //004   ----------------------------------------
Label_014C191A:
 BYTE   W18
 BYTE   N23  Cs4  v080
 BYTE   W24
 BYTE   Fn3
 BYTE   W24
 BYTE   W01
 BYTE   N44  Ds3
 BYTE   W28
 BYTE   W01
 BYTE   PEND 
//  #11 //005   ----------------------------------------
Label_014C1927:
 BYTE   W18
 BYTE   N11  Cs3  v080
 BYTE   W12
 BYTE   Gs3
 BYTE   W12
 BYTE   N44  Ds3
 BYTE   W54
 BYTE   PEND 
//  #11 //006   ----------------------------------------
 BYTE   W19
 BYTE   N44
 BYTE   W44
 BYTE   W03
 BYTE   N11  Cs3
 BYTE   W12
 BYTE   Gs3
 BYTE   W12
 BYTE   N32  Ds3
 BYTE   W06
//  #11 //007   ----------------------------------------
 BYTE   W18
 BYTE   N23  Cs3
 BYTE   W24
 BYTE   Ds3
 BYTE   W24
 BYTE   W02
 BYTE   N44  Fn3
 BYTE   W28
//  #11 //008   ----------------------------------------
 BYTE   PATT
  POIN2 Label_014C1901
//  #11 //009   ----------------------------------------
 BYTE   PATT
  POIN2 Label_014C190C
//  #11 //010   ----------------------------------------
 BYTE   PATT
  POIN2 Label_014C191A
//  #11 //011   ----------------------------------------
 BYTE   PATT
  POIN2 Label_014C1927
//  #11 //012   ----------------------------------------
 BYTE   W19
 BYTE   N44  Ds3  v080
 BYTE   W44
 BYTE   W03
 BYTE   N11  Cs3
 BYTE   W12
 BYTE   Gs3
 BYTE   W12
 BYTE   N23  Fn3
 BYTE   W06
//  #11 //013   ----------------------------------------
 BYTE   W18
 BYTE   Ds3
 BYTE   W24
 BYTE   N44  Cs3
 BYTE   W24
 BYTE   Cn3
 BYTE   W30
//  #11 //014   ----------------------------------------
 BYTE   W18
 BYTE   N11  As2
 BYTE   W12
 BYTE   Fn3
 BYTE   W12
 BYTE   N44  Cn3
 BYTE   W54
//  #11 //015   ----------------------------------------
 BYTE   W18
 BYTE   N44
 BYTE   W48
 BYTE   N11  As2
 BYTE   W12
 BYTE   N10  Fn3
 BYTE   W12
 BYTE   N23  As3
 BYTE   W06
//  #11 //016   ----------------------------------------
 BYTE   W18
 BYTE   Cn4
 BYTE   W24
 BYTE   Gs3
 BYTE   W24
 BYTE   N32  Gn3
 BYTE   W30
//  #11 //017   ----------------------------------------
 BYTE   W06
 BYTE   N11  Fn3
 BYTE   W12
 BYTE   N23  Gn3
 BYTE   W24
 BYTE   N66  Cn3
 BYTE   W54
//  #11 //018   ----------------------------------------
 BYTE   W19
 BYTE   N32  Gn3
 BYTE   W32
 BYTE   W03
 BYTE   N11  Fn3
 BYTE   W12
 BYTE   N23  Gn3
 BYTE   W24
 BYTE   Cn3
 BYTE   W06
//  #11 //019   ----------------------------------------
 BYTE   W18
 BYTE   Fn3  v076
 BYTE   W24
 BYTE   Dn3
 BYTE   W24
 BYTE   Ds2  v080
 BYTE   W12
 BYTE   Fn2
 BYTE   W12
 BYTE   Dn2
 BYTE   W06
//  #11 //020   ----------------------------------------
 BYTE   W06
 BYTE   Ds2
 BYTE   W12
 BYTE   Fn2
 BYTE   W12
 BYTE   Dn2
 BYTE   W12
 BYTE   N56  Ds2
 BYTE   W54
//  #11 //021   ----------------------------------------
 BYTE   W18
 BYTE   N23
 BYTE   W12
 BYTE   N11  Cs2
 BYTE   W12
 BYTE   N23
 BYTE   W12
 BYTE   Bn1
 BYTE   W12
 BYTE   Cs2
 BYTE   W12
 BYTE   Gs2
 BYTE   W12
 BYTE   N56  Cs2
 BYTE   W06
//  #11 //022   ----------------------------------------
 BYTE   W66
 BYTE   N23  Ds2
 BYTE   W12
 BYTE   Dn2
 BYTE   W12
 BYTE   Gn2
 BYTE   W06
//  #11 //023   ----------------------------------------
 BYTE   W06
 BYTE   N11  Cn3
 BYTE   W12
 BYTE   N22
 BYTE   W12
 BYTE   N23  Ds3
 BYTE   W12
 BYTE   Gn3
 BYTE   W12
 BYTE   N11  Fn3
 BYTE   W12
 BYTE   N32
 BYTE   W30
//  #11 //024   ----------------------------------------
 BYTE   W18
 BYTE   N23  Cn3  v076
 BYTE   W12
 BYTE   N11  As2
 BYTE   W12
 BYTE   N23
 BYTE   W12
 BYTE   N11  Ds3
 BYTE   W12
 BYTE   N23
 BYTE   W12
 BYTE   N11  As2
 BYTE   W12
 BYTE   N23
 BYTE   W06
//  #11 //025   ----------------------------------------
 BYTE   W06
 BYTE   N11  An2
 BYTE   W12
 BYTE   N32
 BYTE   W48
 BYTE   N23  An2  v080
 BYTE   W12
 BYTE   N11  Gn2
 BYTE   W12
 BYTE   N23
 BYTE   W06
//  #11 //026   ----------------------------------------
 BYTE   W06
 BYTE   N11  Dn2
 BYTE   W12
 BYTE   N11
 BYTE   W12
 BYTE   Cn2
 BYTE   W12
 BYTE   N32  Dn2
 BYTE   W24
 BYTE   N44  Dn3
 BYTE   W30
//  #11 //027   ----------------------------------------
 BYTE   W18
 BYTE   N23  An2
 BYTE   W12
 BYTE   N11  Gn2
 BYTE   W12
 BYTE   N23
 BYTE   W12
 BYTE   N11  Dn2
 BYTE   W12
 BYTE   N11
 BYTE   W12
 BYTE   Cn2
 BYTE   W12
 BYTE   N32  Dn2
 BYTE   W06
//  #11 //028   ----------------------------------------
 BYTE   W06
 BYTE   N11  Gn2
 BYTE   W12
 BYTE   N23
 BYTE   W12
 BYTE   N11  Dn3
 BYTE   W12
 BYTE   N23
 BYTE   W24
 BYTE   Fn3
 BYTE   W12
 BYTE   N11  Ds3
 BYTE   W12
 BYTE   N23
 BYTE   W06
//  #11 //029   ----------------------------------------
 BYTE   W06
 BYTE   N11  Dn3
 BYTE   W12
 BYTE   N11
 BYTE   W12
 BYTE   Cn3
 BYTE   W12
 BYTE   N64
 BYTE   W54
//  #11 //030   ----------------------------------------
 BYTE   W18
 BYTE   N23  Fn3
 BYTE   W12
 BYTE   N11  Ds3
 BYTE   W12
 BYTE   N23
 BYTE   W12
 BYTE   N11  Dn3
 BYTE   W12
 BYTE   N11
 BYTE   W12
 BYTE   Cn3
 BYTE   W12
 BYTE   N68
 BYTE   W06
//  #11 //031   ----------------------------------------
 BYTE   W18
 BYTE   N44  Gn3
 BYTE   W24
 BYTE   N23  Cn4  v060
 BYTE   W24
 BYTE   As2  v092
 BYTE   W12
 BYTE   N11  An2
 BYTE   W12
 BYTE   N23
 BYTE   W06
//  #11 //032   ----------------------------------------
Label_014C1A68:
 BYTE   W06
 BYTE   N11  Gn2  v092
 BYTE   W12
 BYTE   N11
 BYTE   W12
 BYTE   Cn3
 BYTE   W12
 BYTE   N23  An2
 BYTE   W24
 BYTE   N32  Fn2
 BYTE   W30
 BYTE   PEND 
//  #11 //033   ----------------------------------------
Label_014C1A78:
 BYTE   W18
 BYTE   N23  As2  v092
 BYTE   W12
 BYTE   N11  An2
 BYTE   W12
 BYTE   N23
 BYTE   W12
 BYTE   N11  Gn2
 BYTE   W12
 BYTE   N11
 BYTE   W12
 BYTE   Dn3
 BYTE   W12
 BYTE   N23  Cn3
 BYTE   W06
 BYTE   PEND 
//  #11 //034   ----------------------------------------
Label_014C1A8D:
 BYTE   W06
 BYTE   N23  Fn3  v092
 BYTE   W12
 BYTE   Cn3
 BYTE   W48
 BYTE   As2
 BYTE   W12
 BYTE   N11  An2
 BYTE   W12
 BYTE   N23
 BYTE   W06
 BYTE   PEND 
//  #11 //035   ----------------------------------------
 BYTE   PATT
  POIN2 Label_014C1A68
//  #11 //036   ----------------------------------------
 BYTE   W18
 BYTE   N23  Gn2  v092
 BYTE   W12
 BYTE   N11  Fn2
 BYTE   W12
 BYTE   N23
 BYTE   W12
 BYTE   N11  Ds2
 BYTE   W12
 BYTE   N11
 BYTE   W12
 BYTE   Gn2
 BYTE   W12
 BYTE   N23  Dn2
 BYTE   W06
//  #11 //037   ----------------------------------------
 BYTE   W18
 BYTE   N44  Cn2
 BYTE   W48
 BYTE   N23  As2
 BYTE   W12
 BYTE   N11  An2
 BYTE   W12
 BYTE   N23
 BYTE   W06
//  #11 //038   ----------------------------------------
 BYTE   PATT
  POIN2 Label_014C1A68
//  #11 //039   ----------------------------------------
 BYTE   PATT
  POIN2 Label_014C1A78
//  #11 //040   ----------------------------------------
 BYTE   PATT
  POIN2 Label_014C1A8D
//  #11 //041   ----------------------------------------
 BYTE   W06
 BYTE   N11  Gn2  v092
 BYTE   W12
 BYTE   An2
 BYTE   W12
 BYTE   As2
 BYTE   W12
 BYTE   N23  Cn3
 BYTE   W12
 BYTE   N11  As2
 BYTE   W12
 BYTE   N23  An2
 BYTE   W12
 BYTE   As2
 BYTE   W12
 BYTE   N11  Cn3
 BYTE   W06
//  #11 //042   ----------------------------------------
 BYTE   W06
 BYTE   Fn2
 BYTE   W12
 BYTE   N23  Dn3
 BYTE   W12
 BYTE   N11  Cn3
 BYTE   W12
 BYTE   N23  As2
 BYTE   W12
 BYTE   N11  Cn3
 BYTE   W12
 BYTE   Dn3
 BYTE   W12
 BYTE   N23  Gn3
 BYTE   W12
 BYTE   En3
 BYTE   W06
//  #11 //043   ----------------------------------------
 BYTE   W06
 BYTE   N11  Dn3
 BYTE   W12
 BYTE   N23  Cs3
 BYTE   W12
 BYTE   N11  Dn3
 BYTE   W12
 BYTE   N23  En3
 BYTE   W12
 BYTE   N11  As3
 BYTE   W12
 BYTE   N23  Dn3  v072
 BYTE   N23  An3  v092
 BYTE   W24
 BYTE   En3
 BYTE   W06
//  #11 //044   ----------------------------------------
 BYTE   W18
 BYTE   Fn3
 BYTE   W24
 BYTE   N32  Dn3
 BYTE   W48
 BYTE   N23
 BYTE   W06
//  #11 //045   ----------------------------------------
 BYTE   W06
 BYTE   N11  Cn3
 BYTE   W12
 BYTE   N23
 BYTE   W12
 BYTE   N11  As2
 BYTE   W12
 BYTE   N32
 BYTE   W36
 BYTE   N11  An2
 BYTE   W12
 BYTE   N23
 BYTE   W06
//  #11 //046   ----------------------------------------
 BYTE   W18
 BYTE   N32  Gn2
 BYTE   W48
 BYTE   N68  Fn2
 BYTE   W30
//  #11 //047   ----------------------------------------
 BYTE   W42
 BYTE   N44  Fs2
 BYTE   W48
 BYTE   N23  An2  v084
 BYTE   W06
//  #11 //048   ----------------------------------------
 BYTE   W18
 BYTE   N68  As2  v092
 BYTE   W48
 BYTE   N23  Dn3
 BYTE   W24
 BYTE   N32  Cs3
 BYTE   W06
//  #11 //049   ----------------------------------------
 BYTE   W30
 BYTE   Dn3
 BYTE   W12
 BYTE   N23  En3
 BYTE   W24
 BYTE   N32  Gn3
 BYTE   W30
//  #11 //050   ----------------------------------------
 BYTE   W06
 BYTE   N11  Fn3
 BYTE   W12
 BYTE   N11
 BYTE   W12
 BYTE   En3
 BYTE   W12
 BYTE   N32
 BYTE   W24
 BYTE   Dn3
 BYTE   W30
//  #11 //051   ----------------------------------------
 BYTE   W18
 BYTE   N56  Fn2
 BYTE   W60
 BYTE   N11  Gn2
 BYTE   W12
 BYTE   N56  En2
 BYTE   W06
//  #11 //052   ----------------------------------------
 BYTE   W66
 BYTE   N23  Fn1  v076
 BYTE   N68  As1
 BYTE   W12
 BYTE   N23  As0  v092
 BYTE   W12
 BYTE   Fn1
 BYTE   W06
//  #11 //053   ----------------------------------------
Label_014C1B74:
 BYTE   W18
 BYTE   N23  Fn1  v092
 BYTE   W12
 BYTE   Gn1
 BYTE   W13
 BYTE   N56  Dn3  v080
 BYTE   W52
 BYTE   W01
 BYTE   PEND 
//  #11 //054   ----------------------------------------
 BYTE   W18
 BYTE   N32  Gn1  v076
 BYTE   N23  Cn2  v092
 BYTE   W24
 BYTE   Cn2  v080
 BYTE   W12
 BYTE   Gn1
 BYTE   W12
 BYTE   N11  Cn2
 BYTE   W12
 BYTE   N23  Ds2  v092
 BYTE   W13
 BYTE   N56  Gn3  v080
 BYTE   W05
//  #11 //055   ----------------------------------------
 BYTE   W66
 BYTE   N68  As1  v076
 BYTE   W12
 BYTE   N23  As0  v092
 BYTE   W12
 BYTE   Fn1
 BYTE   W06
//  #11 //056   ----------------------------------------
 BYTE   PATT
  POIN2 Label_014C1B74
//  #11 //057   ----------------------------------------
 BYTE   W18
 BYTE   N23  Cn2  v092
 BYTE   W24
 BYTE   Cn2  v080
 BYTE   W12
 BYTE   N28  Gn1
 BYTE   W12
 BYTE   N17  Cn2
 BYTE   W12
 BYTE   N23  Ds2  v092
 BYTE   W13
 BYTE   N56  Gn3  v080
 BYTE   W05
//  #11 //058   ----------------------------------------
 BYTE   W66
 BYTE   N23  Ds2  v076
 BYTE   W24
 BYTE   Ds2  v080
 BYTE   W06
//  #11 //059   ----------------------------------------
 BYTE   W06
 BYTE   N28  As1
 BYTE   W12
 BYTE   N11  Ds2
 BYTE   W12
 BYTE   Fn2
 BYTE   W13
 BYTE   TIE  As3
 BYTE   W52
 BYTE   W01
//  #11 //060   ----------------------------------------
 BYTE   W96
//  #11 //061   ----------------------------------------
 BYTE   W42
 BYTE   EOT
 BYTE   W54
//  #11 //062   ----------------------------------------
 BYTE   GoTo
  POIN2 Label_014C18F2
 BYTE   FINE

//******************************************************//
	ALIGN 4

UnmarkedGrave:
	BYTE	11	// NumTrks
	BYTE	0	// NumBlks
	BYTE	UnmarkedGrave_pri	// Priority
	BYTE	UnmarkedGrave_rev	// Reverb.
    
	POIN2	UnmarkedGrave_grp
    
	POIN2	UnmarkedGrave_001
	POIN2	UnmarkedGrave_002
	POIN2	UnmarkedGrave_003
	POIN2	UnmarkedGrave_004
	POIN2	UnmarkedGrave_005
	POIN2	UnmarkedGrave_006
	POIN2	UnmarkedGrave_007
	POIN2	UnmarkedGrave_008
	POIN2	UnmarkedGrave_009
	POIN2	UnmarkedGrave_010
	POIN2	UnmarkedGrave_011

	
