//Event file generated from Sappy .s format.
	#include "MPlayDef.event"

	#define	WaterBattle_grp  voicegroup000
	#define	WaterBattle_pri  10
	#define	WaterBattle_rev  128
	#define	WaterBattle_mvl  127
	#define	WaterBattle_key  0
	#define	WaterBattle_tbs  1
	#define	WaterBattle_exg  0
	#define	WaterBattle_cmp  1

	// .rodata
	//	WaterBattle
	ALIGN 4


//**************** Track 1 (Midi-Chn.0) ****************//

WaterBattle_001:
//  #01 //000   ----------------------------------------
 BYTE   KEYSH   WaterBattle_key+0
 BYTE   TEMPO   94*WaterBattle_tbs/2
 BYTE   VOICE   71
 BYTE   VOL   37*WaterBattle_mvl/mxv
 BYTE   W96
//  #01 //001   ----------------------------------------
 BYTE   W96
//  #01 //002   ----------------------------------------
 BYTE   W96
//  #01 //003   ----------------------------------------
 BYTE   W96
//  #01 //004   ----------------------------------------
 BYTE   W96
//  #01 //005   ----------------------------------------
 BYTE   W96
//  #01 //006   ----------------------------------------
 BYTE   W96
//  #01 //007   ----------------------------------------
 BYTE   W96
//  #01 //008   ----------------------------------------
 BYTE   W96
//  #01 //009   ----------------------------------------
 BYTE   W96
//  #01 //010   ----------------------------------------
 BYTE   W96
//  #01 //011   ----------------------------------------
 BYTE   W96
//  #01 //012   ----------------------------------------
Label_01712E8C:
 BYTE   W96
//  #01 //013   ----------------------------------------
 BYTE   W96
//  #01 //014   ----------------------------------------
 BYTE   W96
//  #01 //015   ----------------------------------------
 BYTE   W96
//  #01 //016   ----------------------------------------
 BYTE   W96
//  #01 //017   ----------------------------------------
 BYTE   W96
//  #01 //018   ----------------------------------------
 BYTE   W96
//  #01 //019   ----------------------------------------
 BYTE   W96
//  #01 //020   ----------------------------------------
 BYTE   W96
//  #01 //021   ----------------------------------------
 BYTE   W96
//  #01 //022   ----------------------------------------
 BYTE   W72
 BYTE   N12  Dn4  v100
 BYTE   W12
 BYTE   Cn4
 BYTE   W12
//  #01 //023   ----------------------------------------
 BYTE   N48  Gs3
 BYTE   W48
 BYTE   N24  Cn4
 BYTE   W24
 BYTE   Dn4
 BYTE   W24
//  #01 //024   ----------------------------------------
 BYTE   N96  Gn3
 BYTE   W96
//  #01 //025   ----------------------------------------
 BYTE   TIE
 BYTE   W96
//  #01 //026   ----------------------------------------
 BYTE   W24
 BYTE   EOT
 BYTE   N24
 BYTE   W24
 BYTE   Cn4
 BYTE   W24
 BYTE   Dn4
 BYTE   W24
//  #01 //027   ----------------------------------------
 BYTE   N48  Fn4
 BYTE   W48
 BYTE   Gn4
 BYTE   W48
//  #01 //028   ----------------------------------------
 BYTE   GoTo
  POIN2 Label_01712E8C
 BYTE   FINE

//**************** Track 2 (Midi-Chn.1) ****************//

WaterBattle_002:
//  #02 //000   ----------------------------------------
 BYTE   KEYSH   WaterBattle_key+0
 BYTE   VOICE   33
 BYTE   VOL   37*WaterBattle_mvl/mxv
 BYTE   W96
//  #02 //001   ----------------------------------------
 BYTE   W96
//  #02 //002   ----------------------------------------
 BYTE   W96
//  #02 //003   ----------------------------------------
 BYTE   W96
//  #02 //004   ----------------------------------------
 BYTE   W96
//  #02 //005   ----------------------------------------
 BYTE   W96
//  #02 //006   ----------------------------------------
 BYTE   W96
//  #02 //007   ----------------------------------------
 BYTE   W96
//  #02 //008   ----------------------------------------
 BYTE   W96
//  #02 //009   ----------------------------------------
 BYTE   W96
//  #02 //010   ----------------------------------------
 BYTE   W96
//  #02 //011   ----------------------------------------
 BYTE   W96
//  #02 //012   ----------------------------------------
Label_01712C86:
 BYTE   W96
//  #02 //013   ----------------------------------------
 BYTE   W96
//  #02 //014   ----------------------------------------
 BYTE   W96
//  #02 //015   ----------------------------------------
 BYTE   W96
//  #02 //016   ----------------------------------------
 BYTE   W96
//  #02 //017   ----------------------------------------
 BYTE   W96
//  #02 //018   ----------------------------------------
 BYTE   W96
//  #02 //019   ----------------------------------------
 BYTE   W96
//  #02 //020   ----------------------------------------
Label_01712C8E:
 BYTE   N12  Gn1  v100
 BYTE   W12
 BYTE   N12
 BYTE   W24
 BYTE   N12
 BYTE   W24
 BYTE   N12
 BYTE   W12
 BYTE   N24
 BYTE   W24
 BYTE   PEND 
//  #02 //021   ----------------------------------------
Label_01712C9B:
 BYTE   N12  Gs1  v100
 BYTE   W12
 BYTE   N12
 BYTE   W24
 BYTE   N12
 BYTE   W24
 BYTE   N12
 BYTE   W12
 BYTE   N24
 BYTE   W24
 BYTE   PEND 
//  #02 //022   ----------------------------------------
 BYTE   PATT
  POIN2 Label_01712C8E
//  #02 //023   ----------------------------------------
 BYTE   PATT
  POIN2 Label_01712C9B
//  #02 //024   ----------------------------------------
 BYTE   PATT
  POIN2 Label_01712C8E
//  #02 //025   ----------------------------------------
 BYTE   PATT
  POIN2 Label_01712C9B
//  #02 //026   ----------------------------------------
 BYTE   PATT
  POIN2 Label_01712C8E
//  #02 //027   ----------------------------------------
 BYTE   N48  Ds2  v100
 BYTE   W48
 BYTE   Fn2
 BYTE   W48
//  #02 //028   ----------------------------------------
 BYTE   GoTo
  POIN2 Label_01712C86
 BYTE   FINE

//**************** Track 3 (Midi-Chn.2) ****************//

WaterBattle_003:
//  #03 //000   ----------------------------------------
 BYTE   KEYSH   WaterBattle_key+0
 BYTE   VOICE   4
 BYTE   VOL   37*WaterBattle_mvl/mxv
 BYTE   N06  Gn4  v100
 BYTE   W06
 BYTE   Fn4
 BYTE   W06
 BYTE   Dn4
 BYTE   W06
 BYTE   Cn4
 BYTE   W06
 BYTE   Gn4
 BYTE   W06
 BYTE   Fn4
 BYTE   W06
 BYTE   Dn4
 BYTE   W06
 BYTE   Cn4
 BYTE   W06
 BYTE   Gn4
 BYTE   W06
 BYTE   Fn4
 BYTE   W06
 BYTE   Dn4
 BYTE   W06
 BYTE   Cn4
 BYTE   W06
 BYTE   Gn4
 BYTE   W06
 BYTE   Fn4
 BYTE   W06
 BYTE   Dn4
 BYTE   W06
 BYTE   Cn4
 BYTE   W06
//  #03 //001   ----------------------------------------
Label_0171296C:
 BYTE   N06  Gs3  v100
 BYTE   W06
 BYTE   Cn4
 BYTE   W06
 BYTE   Dn4
 BYTE   W06
 BYTE   Fn4
 BYTE   W06
 BYTE   Gs3
 BYTE   W06
 BYTE   Cn4
 BYTE   W06
 BYTE   Dn4
 BYTE   W06
 BYTE   Fn4
 BYTE   W06
 BYTE   N24  Gs3
 BYTE   W48
 BYTE   PEND 
//  #03 //002   ----------------------------------------
Label_01712982:
 BYTE   N06  Gn4  v100
 BYTE   W06
 BYTE   Fn4
 BYTE   W06
 BYTE   Dn4
 BYTE   W06
 BYTE   Cn4
 BYTE   W06
 BYTE   Gn4
 BYTE   W06
 BYTE   Fn4
 BYTE   W06
 BYTE   Dn4
 BYTE   W06
 BYTE   Cn4
 BYTE   W06
 BYTE   Gn4
 BYTE   W06
 BYTE   Fn4
 BYTE   W06
 BYTE   Dn4
 BYTE   W06
 BYTE   Cn4
 BYTE   W06
 BYTE   Gn4
 BYTE   W06
 BYTE   Fn4
 BYTE   W06
 BYTE   Dn4
 BYTE   W06
 BYTE   Cn4
 BYTE   W06
 BYTE   PEND 
//  #03 //003   ----------------------------------------
 BYTE   PATT
  POIN2 Label_0171296C
//  #03 //004   ----------------------------------------
 BYTE   PATT
  POIN2 Label_01712982
//  #03 //005   ----------------------------------------
 BYTE   PATT
  POIN2 Label_0171296C
//  #03 //006   ----------------------------------------
 BYTE   PATT
  POIN2 Label_01712982
//  #03 //007   ----------------------------------------
 BYTE   PATT
  POIN2 Label_0171296C
//  #03 //008   ----------------------------------------
 BYTE   PATT
  POIN2 Label_01712982
//  #03 //009   ----------------------------------------
 BYTE   PATT
  POIN2 Label_0171296C
//  #03 //010   ----------------------------------------
 BYTE   PATT
  POIN2 Label_01712982
//  #03 //011   ----------------------------------------
Label_017129CD:
 BYTE   N06  As3  v100
 BYTE   W06
 BYTE   Gn3
 BYTE   W06
 BYTE   As3
 BYTE   W06
 BYTE   Cn4
 BYTE   W06
 BYTE   Dn4
 BYTE   W05
 BYTE   Gn3
 BYTE   W06
 BYTE   As3
 BYTE   W07
 BYTE   Dn4
 BYTE   W06
 BYTE   Cn4
 BYTE   W06
 BYTE   Gn3
 BYTE   W06
 BYTE   Cn4
 BYTE   W06
 BYTE   Dn4
 BYTE   W06
 BYTE   An3
 BYTE   W06
 BYTE   Gn3
 BYTE   W06
 BYTE   An3
 BYTE   W06
 BYTE   Cn4
 BYTE   W06
 BYTE   PEND 
//  #03 //012   ----------------------------------------
Label_017129F0:
//  #03 //013   ----------------------------------------
 BYTE   PATT
  POIN2 Label_01712982
//  #03 //014   ----------------------------------------
 BYTE   PATT
  POIN2 Label_0171296C
//  #03 //015   ----------------------------------------
 BYTE   PATT
  POIN2 Label_01712982
//  #03 //016   ----------------------------------------
 BYTE   PATT
  POIN2 Label_0171296C
//  #03 //017   ----------------------------------------
 BYTE   PATT
  POIN2 Label_01712982
//  #03 //018   ----------------------------------------
 BYTE   PATT
  POIN2 Label_0171296C
//  #03 //019   ----------------------------------------
 BYTE   PATT
  POIN2 Label_01712982
//  #03 //020   ----------------------------------------
 BYTE   PATT
  POIN2 Label_017129CD
//  #03 //021   ----------------------------------------
 BYTE   PATT
  POIN2 Label_01712982
//  #03 //022   ----------------------------------------
 BYTE   PATT
  POIN2 Label_0171296C
//  #03 //023   ----------------------------------------
 BYTE   PATT
  POIN2 Label_01712982
//  #03 //024   ----------------------------------------
 BYTE   PATT
  POIN2 Label_0171296C
//  #03 //025   ----------------------------------------
 BYTE   PATT
  POIN2 Label_01712982
//  #03 //026   ----------------------------------------
 BYTE   PATT
  POIN2 Label_0171296C
//  #03 //027   ----------------------------------------
 BYTE   PATT
  POIN2 Label_01712982
//  #03 //028   ----------------------------------------
 BYTE   N06  As3  v100
 BYTE   W06
 BYTE   Gn3
 BYTE   W06
 BYTE   As3
 BYTE   W06
 BYTE   Cn4
 BYTE   W06
 BYTE   Dn4
 BYTE   W05
 BYTE   Gn3
 BYTE   W06
 BYTE   As3
 BYTE   W07
 BYTE   Dn4
 BYTE   W06
 BYTE   Cn4
 BYTE   W06
 BYTE   Gn3
 BYTE   W06
 BYTE   Cn4
 BYTE   W06
 BYTE   Dn4
 BYTE   W06
 BYTE   Fn4
 BYTE   W06
 BYTE   Cn4
 BYTE   W06
 BYTE   Dn4
 BYTE   W06
 BYTE   Fn4
 BYTE   W06
//  #03 //029   ----------------------------------------
 BYTE   GoTo
  POIN2 Label_017129F0
 BYTE   FINE

//**************** Track 4 (Midi-Chn.3) ****************//

WaterBattle_004:
//  #04 //000   ----------------------------------------
 BYTE   KEYSH   WaterBattle_key+0
 BYTE   VOICE   100
 BYTE   VOL   69*WaterBattle_mvl/mxv
 BYTE   W96
//  #04 //001   ----------------------------------------
 BYTE   W90
 BYTE   N06  Gs4  v100
 BYTE   W06
//  #04 //002   ----------------------------------------
 BYTE   W96
//  #04 //003   ----------------------------------------
Label_01712611:
 BYTE   W84
 BYTE   N04  Gs4  v100
 BYTE   W04
 BYTE   Gn4
 BYTE   W04
 BYTE   Fn4
 BYTE   W04
 BYTE   PEND 
//  #04 //004   ----------------------------------------
Label_0171261B:
 BYTE   N24  Dn4  v100
 BYTE   W24
 BYTE   N12
 BYTE   W12
 BYTE   Cn4
 BYTE   W12
 BYTE   N24  Dn4
 BYTE   W24
 BYTE   Gn3
 BYTE   W24
 BYTE   PEND 
//  #04 //005   ----------------------------------------
Label_01712629:
 BYTE   W12
 BYTE   N12  Gs3  v100
 BYTE   W12
 BYTE   N12
 BYTE   W12
 BYTE   Cn4
 BYTE   W12
 BYTE   N12
 BYTE   W12
 BYTE   Dn4
 BYTE   W12
 BYTE   N12
 BYTE   W12
 BYTE   N06  Cn4
 BYTE   W06
 BYTE   Gs3
 BYTE   W06
 BYTE   PEND 
//  #04 //006   ----------------------------------------
Label_0171263E:
 BYTE   N24  Gn3  v100
 BYTE   W24
 BYTE   N12
 BYTE   W12
 BYTE   Fn3
 BYTE   W12
 BYTE   N48  Dn3
 BYTE   W48
 BYTE   PEND 
//  #04 //007   ----------------------------------------
 BYTE   PATT
  POIN2 Label_01712611
//  #04 //008   ----------------------------------------
Label_0171264F:
 BYTE   N24  Dn4  v100
 BYTE   W24
 BYTE   N18
 BYTE   W18
 BYTE   N06  Cn4
 BYTE   W06
 BYTE   N24  Dn4
 BYTE   W24
 BYTE   Gn3
 BYTE   W24
 BYTE   PEND 
//  #04 //009   ----------------------------------------
 BYTE   PATT
  POIN2 Label_01712629
//  #04 //010   ----------------------------------------
Label_01712663:
 BYTE   N24  Gn3  v100
 BYTE   W24
 BYTE   N18
 BYTE   W18
 BYTE   N06  Fn3
 BYTE   W06
 BYTE   N48  Dn3
 BYTE   W48
 BYTE   PEND 
//  #04 //011   ----------------------------------------
 BYTE   W96
//  #04 //012   ----------------------------------------
Label_01712671:
 BYTE   W36
 BYTE   N04  Dn4  v100
 BYTE   W04
 BYTE   N04
 BYTE   W04
 BYTE   N04
 BYTE   W04
 BYTE   N04
 BYTE   W04
 BYTE   N04
 BYTE   W04
 BYTE   N04
 BYTE   W04
 BYTE   N04
 BYTE   W04
 BYTE   N04
 BYTE   W04
 BYTE   N04
 BYTE   W04
 BYTE   N04
 BYTE   W04
 BYTE   N04
 BYTE   W04
 BYTE   N04
 BYTE   W04
 BYTE   N04
 BYTE   W04
 BYTE   N04
 BYTE   W04
 BYTE   N04
 BYTE   W04
//  #04 //013   ----------------------------------------
 BYTE   N42
 BYTE   W42
 BYTE   N03  Cn4
 BYTE   W03
 BYTE   Dn4
 BYTE   W03
 BYTE   N36  Gs3
 BYTE   W48
//  #04 //014   ----------------------------------------
 BYTE   N42  Gn3
 BYTE   W42
 BYTE   N06  Cn4
 BYTE   W06
 BYTE   N36  Gn3
 BYTE   W48
//  #04 //015   ----------------------------------------
 BYTE   W60
 BYTE   N04  Gn4
 BYTE   W04
 BYTE   N04
 BYTE   W04
 BYTE   N04
 BYTE   W04
 BYTE   N04
 BYTE   W04
 BYTE   N04
 BYTE   W04
 BYTE   N04
 BYTE   W04
 BYTE   N04
 BYTE   W04
 BYTE   N04
 BYTE   W04
 BYTE   N04
 BYTE   W04
//  #04 //016   ----------------------------------------
 BYTE   N04
 BYTE   W92
 BYTE   W01
 BYTE   N03  Fn4
 BYTE   W03
//  #04 //017   ----------------------------------------
 BYTE   N24  Dn4
 BYTE   W48
 BYTE   Gs3
 BYTE   W48
//  #04 //018   ----------------------------------------
 BYTE   N12  Cn4
 BYTE   W12
 BYTE   N24  Gn3
 BYTE   W84
//  #04 //019   ----------------------------------------
 BYTE   PATT
  POIN2 Label_01712611
//  #04 //020   ----------------------------------------
 BYTE   PATT
  POIN2 Label_0171261B
//  #04 //021   ----------------------------------------
 BYTE   PATT
  POIN2 Label_01712629
//  #04 //022   ----------------------------------------
 BYTE   PATT
  POIN2 Label_0171263E
//  #04 //023   ----------------------------------------
 BYTE   PATT
  POIN2 Label_01712611
//  #04 //024   ----------------------------------------
 BYTE   PATT
  POIN2 Label_0171264F
//  #04 //025   ----------------------------------------
 BYTE   PATT
  POIN2 Label_01712629
//  #04 //026   ----------------------------------------
 BYTE   PATT
  POIN2 Label_01712663
//  #04 //027   ----------------------------------------
 BYTE   W96
//  #04 //028   ----------------------------------------
 BYTE   GoTo
  POIN2 Label_01712671
 BYTE   FINE

//**************** Track 5 (Midi-Chn.4) ****************//

WaterBattle_005:
//  #05 //000   ----------------------------------------
 BYTE   KEYSH   WaterBattle_key+0
 BYTE   VOICE   48
 BYTE   VOL   27*WaterBattle_mvl/mxv
 BYTE   N12  Gn2  v100
 BYTE   N12  Cn3
 BYTE   N12  Dn3
 BYTE   W12
 BYTE   Gn2
 BYTE   N12  Cn3
 BYTE   N12  Dn3
 BYTE   W24
 BYTE   Gn2
 BYTE   N12  Cn3
 BYTE   N12  Dn3
 BYTE   W24
 BYTE   Gn2
 BYTE   N12  Cn3
 BYTE   N12  Dn3
 BYTE   W12
 BYTE   N24  Gn2
 BYTE   N24  Cn3
 BYTE   N24  Dn3
 BYTE   W24
//  #05 //001   ----------------------------------------
Label_01570B6F:
 BYTE   N12  Gs2  v100
 BYTE   N12  Cn3
 BYTE   N12  Dn3
 BYTE   W12
 BYTE   Gs2
 BYTE   N12  Cn3
 BYTE   N12  Dn3
 BYTE   W24
 BYTE   Gs2
 BYTE   N12  Cn3
 BYTE   N12  Dn3
 BYTE   W24
 BYTE   Gs2
 BYTE   N12  Cn3
 BYTE   N12  Dn3
 BYTE   W12
 BYTE   N24  Gs2
 BYTE   N24  Cn3
 BYTE   N24  Dn3
 BYTE   W24
 BYTE   PEND 
//  #05 //002   ----------------------------------------
Label_01570B91:
 BYTE   N12  Gn2  v100
 BYTE   N12  Cn3
 BYTE   N12  Dn3
 BYTE   W12
 BYTE   Gn2
 BYTE   N12  Cn3
 BYTE   N12  Dn3
 BYTE   W24
 BYTE   Gn2
 BYTE   N12  Cn3
 BYTE   N12  Dn3
 BYTE   W24
 BYTE   Gn2
 BYTE   N12  Cn3
 BYTE   N12  Dn3
 BYTE   W12
 BYTE   N24  Gn2
 BYTE   N24  Cn3
 BYTE   N24  Dn3
 BYTE   W24
 BYTE   PEND 
//  #05 //003   ----------------------------------------
Label_01570BB3:
 BYTE   N12  Gs2  v100
 BYTE   N12  Cn3
 BYTE   N12  Dn3
 BYTE   W12
 BYTE   Gs2
 BYTE   N12  Cn3
 BYTE   W24
 BYTE   Gs2
 BYTE   N12  Cn3
 BYTE   N12  Dn3
 BYTE   W24
 BYTE   Gs2
 BYTE   N12  Cn3
 BYTE   N12  Dn3
 BYTE   W12
 BYTE   N24  Gs2
 BYTE   N24  Cn3
 BYTE   N24  Dn3
 BYTE   W24
 BYTE   PEND 
//  #05 //004   ----------------------------------------
 BYTE   N12  Gn2
 BYTE   N12  Cn3
 BYTE   W12
 BYTE   N12
 BYTE   N12  Dn3
 BYTE   W24
 BYTE   Gn2
 BYTE   N12  Cn3
 BYTE   N12  Dn3
 BYTE   W24
 BYTE   Gn2
 BYTE   N12  Cn3
 BYTE   N12  Dn3
 BYTE   W12
 BYTE   N24  Gn2
 BYTE   N24  Dn3
 BYTE   W24
//  #05 //005   ----------------------------------------
 BYTE   PATT
  POIN2 Label_01570B6F
//  #05 //006   ----------------------------------------
 BYTE   PATT
  POIN2 Label_01570B91
//  #05 //007   ----------------------------------------
 BYTE   N12  Gs2  v100
 BYTE   N12  Cn3
 BYTE   N12  Dn3
 BYTE   W12
 BYTE   Cn3
 BYTE   N12  Dn3
 BYTE   W24
 BYTE   Gs2
 BYTE   N12  Cn3
 BYTE   N12  Dn3
 BYTE   W24
 BYTE   Gs2
 BYTE   N12  Cn3
 BYTE   N12  Dn3
 BYTE   W12
 BYTE   N24  Gs2
 BYTE   N24  Dn3
 BYTE   W24
//  #05 //008   ----------------------------------------
 BYTE   PATT
  POIN2 Label_01570B91
//  #05 //009   ----------------------------------------
 BYTE   PATT
  POIN2 Label_01570B6F
//  #05 //010   ----------------------------------------
Label_01570C1E:
 BYTE   N12  Gn2  v100
 BYTE   N12  Cn3
 BYTE   N12  Dn3
 BYTE   W12
 BYTE   Gn2
 BYTE   N12  Cn3
 BYTE   W24
 BYTE   Gn2
 BYTE   N12  Cn3
 BYTE   N12  Dn3
 BYTE   W24
 BYTE   Gn2
 BYTE   N12  Cn3
 BYTE   N12  Dn3
 BYTE   W12
 BYTE   N24  Gn2
 BYTE   N24  Cn3
 BYTE   N24  Dn3
 BYTE   W24
 BYTE   PEND 
//  #05 //011   ----------------------------------------
Label_01570C3E:
 BYTE   N48  Ds3  v100
 BYTE   N48  Gn3
 BYTE   N48  As3
 BYTE   W48
 BYTE   Fn3
 BYTE   N48  An3
 BYTE   N48  Cn4
 BYTE   W48
 BYTE   PEND 
//  #05 //012   ----------------------------------------
Label_01570C4D:
 BYTE   TIE  Gn2  v100
 BYTE   N96  Dn3
 BYTE   N96  Gn3
 BYTE   W96
//  #05 //013   ----------------------------------------
 BYTE   N48  Fn3
 BYTE   W48
 BYTE   EOT
 BYTE   Gn2
 BYTE   N48  Gs2
 BYTE   N48  Dn3
 BYTE   N48  Fn3
 BYTE   W48
//  #05 //014   ----------------------------------------
Label_01570C61:
 BYTE   N96  Gn2  v100
 BYTE   N96  Dn3
 BYTE   N96  Gn3
 BYTE   W96
 BYTE   PEND 
//  #05 //015   ----------------------------------------
Label_01570C6A:
 BYTE   N96  Gn2  v100
 BYTE   N48  Dn3
 BYTE   N48  Fn3
 BYTE   W48
 BYTE   N48
 BYTE   N48  Gs3
 BYTE   W48
 BYTE   PEND 
//  #05 //016   ----------------------------------------
 BYTE   PATT
  POIN2 Label_01570C61
//  #05 //017   ----------------------------------------
 BYTE   PATT
  POIN2 Label_01570C6A
//  #05 //018   ----------------------------------------
 BYTE   PATT
  POIN2 Label_01570C61
//  #05 //019   ----------------------------------------
 BYTE   PATT
  POIN2 Label_01570C3E
//  #05 //020   ----------------------------------------
 BYTE   PATT
  POIN2 Label_01570C1E
//  #05 //021   ----------------------------------------
 BYTE   PATT
  POIN2 Label_01570BB3
//  #05 //022   ----------------------------------------
 BYTE   N12  Gn2  v100
 BYTE   N12  Cn3
 BYTE   N12  Dn3
 BYTE   W12
 BYTE   Cn3
 BYTE   N12  Dn3
 BYTE   W24
 BYTE   Gn2
 BYTE   N12  Cn3
 BYTE   N12  Dn3
 BYTE   W24
 BYTE   Gn2
 BYTE   N12  Cn3
 BYTE   N12  Dn3
 BYTE   W12
 BYTE   N24  Gn2
 BYTE   N24  Cn3
 BYTE   N24  Dn3
 BYTE   W24
//  #05 //023   ----------------------------------------
 BYTE   PATT
  POIN2 Label_01570B6F
//  #05 //024   ----------------------------------------
 BYTE   PATT
  POIN2 Label_01570B91
//  #05 //025   ----------------------------------------
 BYTE   N12  Gs2  v100
 BYTE   N12  Cn3
 BYTE   N12  Dn3
 BYTE   W12
 BYTE   Gs2
 BYTE   W24
 BYTE   N12
 BYTE   N12  Cn3
 BYTE   N12  Dn3
 BYTE   W24
 BYTE   Gs2
 BYTE   N12  Cn3
 BYTE   N12  Dn3
 BYTE   W12
 BYTE   N24  Gs2
 BYTE   N24  Cn3
 BYTE   N24  Dn3
 BYTE   W24
//  #05 //026   ----------------------------------------
 BYTE   N12  Gn2
 BYTE   N12  Cn3
 BYTE   N12  Dn3
 BYTE   W12
 BYTE   Cn3
 BYTE   N12  Dn3
 BYTE   W24
 BYTE   Gn2
 BYTE   N12  Cn3
 BYTE   N12  Dn3
 BYTE   W24
 BYTE   Gn2
 BYTE   N12  Cn3
 BYTE   N12  Dn3
 BYTE   W12
 BYTE   N24  Gn2
 BYTE   N24  Cn3
 BYTE   W24
//  #05 //027   ----------------------------------------
 BYTE   PATT
  POIN2 Label_01570C3E
//  #05 //028   ----------------------------------------
 BYTE   GoTo
  POIN2 Label_01570C4D
 BYTE   FINE

//**************** Track 6 (Midi-Chn.5) ****************//

WaterBattle_006:
//  #06 //000   ----------------------------------------
 BYTE   KEYSH   WaterBattle_key+0
 BYTE   VOICE   124
 BYTE   VOL   37*WaterBattle_mvl/mxv
 BYTE   N06  Cn1  v127
 BYTE   W06
 BYTE   Fs1
 BYTE   W06
 BYTE   Cn1
 BYTE   W12
 BYTE   Dn1
 BYTE   W24
 BYTE   Cn1
 BYTE   W06
 BYTE   Fs1
 BYTE   W06
 BYTE   Cn1
 BYTE   W12
 BYTE   Dn1
 BYTE   W24
//  #06 //001   ----------------------------------------
Label_01570D2C:
 BYTE   N06  Cn1  v127
 BYTE   W06
 BYTE   Fs1
 BYTE   W06
 BYTE   Cn1
 BYTE   W12
 BYTE   Dn1
 BYTE   W24
 BYTE   Cn1
 BYTE   W06
 BYTE   Fs1
 BYTE   W06
 BYTE   Cn1
 BYTE   W12
 BYTE   Dn1
 BYTE   W24
 BYTE   PEND 
//  #06 //002   ----------------------------------------
 BYTE   PATT
  POIN2 Label_01570D2C
//  #06 //003   ----------------------------------------
 BYTE   PATT
  POIN2 Label_01570D2C
//  #06 //004   ----------------------------------------
 BYTE   PATT
  POIN2 Label_01570D2C
//  #06 //005   ----------------------------------------
 BYTE   PATT
  POIN2 Label_01570D2C
//  #06 //006   ----------------------------------------
 BYTE   PATT
  POIN2 Label_01570D2C
//  #06 //007   ----------------------------------------
 BYTE   PATT
  POIN2 Label_01570D2C
//  #06 //008   ----------------------------------------
 BYTE   PATT
  POIN2 Label_01570D2C
//  #06 //009   ----------------------------------------
 BYTE   PATT
  POIN2 Label_01570D2C
//  #06 //010   ----------------------------------------
 BYTE   PATT
  POIN2 Label_01570D2C
//  #06 //011   ----------------------------------------
 BYTE   PATT
  POIN2 Label_01570D2C
//  #06 //012   ----------------------------------------
Label_01570D71:
//  #06 //013   ----------------------------------------
 BYTE   PATT
  POIN2 Label_01570D2C
//  #06 //014   ----------------------------------------
 BYTE   PATT
  POIN2 Label_01570D2C
//  #06 //015   ----------------------------------------
 BYTE   PATT
  POIN2 Label_01570D2C
//  #06 //016   ----------------------------------------
 BYTE   PATT
  POIN2 Label_01570D2C
//  #06 //017   ----------------------------------------
 BYTE   PATT
  POIN2 Label_01570D2C
//  #06 //018   ----------------------------------------
 BYTE   PATT
  POIN2 Label_01570D2C
//  #06 //019   ----------------------------------------
 BYTE   PATT
  POIN2 Label_01570D2C
//  #06 //020   ----------------------------------------
 BYTE   PATT
  POIN2 Label_01570D2C
//  #06 //021   ----------------------------------------
Label_01570D99:
 BYTE   N06  Cn1  v127
 BYTE   N06  Fs1
 BYTE   W12
 BYTE   Cn1
 BYTE   N06  Fs1
 BYTE   W12
 BYTE   Dn1
 BYTE   N06  Fs1
 BYTE   W12
 BYTE   N06
 BYTE   W12
 BYTE   Cn1
 BYTE   N06  Fs1
 BYTE   W12
 BYTE   Cn1
 BYTE   N06  Fs1
 BYTE   W12
 BYTE   Dn1
 BYTE   N06  Fs1
 BYTE   W12
 BYTE   N06
 BYTE   W12
 BYTE   PEND 
//  #06 //022   ----------------------------------------
 BYTE   PATT
  POIN2 Label_01570D99
//  #06 //023   ----------------------------------------
 BYTE   PATT
  POIN2 Label_01570D99
//  #06 //024   ----------------------------------------
 BYTE   PATT
  POIN2 Label_01570D99
//  #06 //025   ----------------------------------------
 BYTE   PATT
  POIN2 Label_01570D99
//  #06 //026   ----------------------------------------
 BYTE   PATT
  POIN2 Label_01570D99
//  #06 //027   ----------------------------------------
 BYTE   PATT
  POIN2 Label_01570D99
//  #06 //028   ----------------------------------------
 BYTE   PATT
  POIN2 Label_01570D99
//  #06 //029   ----------------------------------------
 BYTE   GoTo
  POIN2 Label_01570D71
 BYTE   FINE

//******************************************************//
	ALIGN 4

WaterBattle:
	BYTE	6	// NumTrks
	BYTE	0	// NumBlks
	BYTE	WaterBattle_pri	// Priority
	BYTE	WaterBattle_rev	// Reverb.
    
	POIN2	WaterBattle_grp
    
	POIN2	WaterBattle_001
	POIN2	WaterBattle_002
	POIN2	WaterBattle_003
	POIN2	WaterBattle_004
	POIN2	WaterBattle_005
	POIN2	WaterBattle_006

	
