//Event file generated from Sappy .s format.
	#include "MPlayDef.event"

	#define	Water_grp  voicegroup000
	#define	Water_pri  0
	#define	Water_rev  0
	#define	Water_mvl  127
	#define	Water_key  0
	#define	Water_tbs  1
	#define	Water_exg  0
	#define	Water_cmp  1

	// .rodata
	//	Water
	ALIGN 4


//**************** Track 1 (Midi-Chn.0) ****************//

Water_001:
// 000   ----------------------------------------
 BYTE   KEYSH   Water_key+0
Label_0_BBA4DA:
 BYTE   TEMPO   284*Water_tbs/2
 BYTE   VOICE   1
 BYTE   VOL   29*Water_mvl/mxv
 BYTE   PAN   c_v+0
 BYTE   N11  En5  v112
 BYTE   W12
 BYTE   En5  v080
 BYTE   W12
 BYTE   En5  v048
 BYTE   W24
 BYTE   En5  v112
 BYTE   W12
 BYTE   En5  v080
 BYTE   W12
 BYTE   En5  v048
 BYTE   W24
// 001   ----------------------------------------
Label_0_BBA4F5:
 BYTE   N11  En5  v112
 BYTE   W12
 BYTE   En5  v080
 BYTE   W12
 BYTE   En5  v048
 BYTE   W24
 BYTE   En5  v112
 BYTE   W12
 BYTE   En5  v080
 BYTE   W12
 BYTE   En5  v048
 BYTE   W24
 BYTE   PEND 
// 002   ----------------------------------------
 BYTE   PATT
  POIN2 Label_0_BBA4F5
// 003   ----------------------------------------
 BYTE   PATT
  POIN2 Label_0_BBA4F5
// 004   ----------------------------------------
 BYTE   PATT
  POIN2 Label_0_BBA4F5
// 005   ----------------------------------------
 BYTE   PATT
  POIN2 Label_0_BBA4F5
// 006   ----------------------------------------
 BYTE   PATT
  POIN2 Label_0_BBA4F5
// 007   ----------------------------------------
 BYTE   PATT
  POIN2 Label_0_BBA4F5
// 008   ----------------------------------------
 BYTE   W96
// 009   ----------------------------------------
 BYTE   W96
// 010   ----------------------------------------
 BYTE   W96
// 011   ----------------------------------------
 BYTE   W96
// 012   ----------------------------------------
 BYTE   W96
// 013   ----------------------------------------
 BYTE   W96
// 014   ----------------------------------------
 BYTE   W96
// 015   ----------------------------------------
 BYTE   W96
// 016   ----------------------------------------
 BYTE   W96
// 017   ----------------------------------------
 BYTE   W96
// 018   ----------------------------------------
 BYTE   W96
// 019   ----------------------------------------
 BYTE   W96
// 020   ----------------------------------------
 BYTE   W96
// 021   ----------------------------------------
 BYTE   W96
// 022   ----------------------------------------
 BYTE   W96
// 023   ----------------------------------------
 BYTE   W96
// 024   ----------------------------------------
 BYTE   W96
// 025   ----------------------------------------
 BYTE   W96
// 026   ----------------------------------------
 BYTE   W96
// 027   ----------------------------------------
 BYTE   W96
// 028   ----------------------------------------
 BYTE   W96
// 029   ----------------------------------------
 BYTE   W96
// 030   ----------------------------------------
 BYTE   W96
// 031   ----------------------------------------
 BYTE   W96
// 032   ----------------------------------------
 BYTE   W96
// 033   ----------------------------------------
 BYTE   W96
// 034   ----------------------------------------
 BYTE   W96
// 035   ----------------------------------------
 BYTE   W96
// 036   ----------------------------------------
 BYTE   W96
// 037   ----------------------------------------
 BYTE   W96
// 038   ----------------------------------------
 BYTE   W96
// 039   ----------------------------------------
 BYTE   W96
// 040   ----------------------------------------
 BYTE   W96
// 041   ----------------------------------------
 BYTE   W96
// 042   ----------------------------------------
 BYTE   W96
// 043   ----------------------------------------
 BYTE   W96
// 044   ----------------------------------------
 BYTE   W96
// 045   ----------------------------------------
 BYTE   W96
// 046   ----------------------------------------
 BYTE   W96
// 047   ----------------------------------------
 BYTE   W96
// 048   ----------------------------------------
 BYTE   W96
// 049   ----------------------------------------
 BYTE   W96
// 050   ----------------------------------------
 BYTE   W96
// 051   ----------------------------------------
 BYTE   W96
// 052   ----------------------------------------
 BYTE   W96
// 053   ----------------------------------------
 BYTE   W96
// 054   ----------------------------------------
 BYTE   W96
// 055   ----------------------------------------
 BYTE   W96
// 056   ----------------------------------------
 BYTE   W96
// 057   ----------------------------------------
 BYTE   W96
// 058   ----------------------------------------
 BYTE   W96
// 059   ----------------------------------------
 BYTE   W96
// 060   ----------------------------------------
 BYTE   W96
// 061   ----------------------------------------
 BYTE   W96
// 062   ----------------------------------------
 BYTE   W96
// 063   ----------------------------------------
 BYTE   W96
// 064   ----------------------------------------
 BYTE   W96
// 065   ----------------------------------------
 BYTE   W96
// 066   ----------------------------------------
 BYTE   W96
// 067   ----------------------------------------
 BYTE   W96
// 068   ----------------------------------------
 BYTE   GoTo
  POIN2 Label_0_BBA4DA
 BYTE   FINE

//**************** Track 2 (Midi-Chn.1) ****************//

Water_002:
// 000   ----------------------------------------
 BYTE   KEYSH   Water_key+0
Label_1_BBA56B:
 BYTE   VOICE   18
 BYTE   VOL   26*Water_mvl/mxv
 BYTE   PAN   c_v+0
 BYTE   N11  En5  v112
 BYTE   W12
 BYTE   En5  v080
 BYTE   W12
 BYTE   En5  v048
 BYTE   W24
 BYTE   En5  v112
 BYTE   W12
 BYTE   En5  v080
 BYTE   W12
 BYTE   En5  v048
 BYTE   W24
// 001   ----------------------------------------
Label_1_BBA584:
 BYTE   N11  En5  v112
 BYTE   W12
 BYTE   En5  v080
 BYTE   W12
 BYTE   En5  v048
 BYTE   W24
 BYTE   En5  v112
 BYTE   W12
 BYTE   En5  v080
 BYTE   W12
 BYTE   En5  v048
 BYTE   W24
 BYTE   PEND 
// 002   ----------------------------------------
 BYTE   PATT
  POIN2 Label_1_BBA584
// 003   ----------------------------------------
 BYTE   PATT
  POIN2 Label_1_BBA584
// 004   ----------------------------------------
 BYTE   PATT
  POIN2 Label_1_BBA584
// 005   ----------------------------------------
 BYTE   PATT
  POIN2 Label_1_BBA584
// 006   ----------------------------------------
 BYTE   PATT
  POIN2 Label_1_BBA584
// 007   ----------------------------------------
 BYTE   PATT
  POIN2 Label_1_BBA584
// 008   ----------------------------------------
 BYTE   W96
// 009   ----------------------------------------
 BYTE   W96
// 010   ----------------------------------------
 BYTE   W96
// 011   ----------------------------------------
 BYTE   W96
// 012   ----------------------------------------
 BYTE   W96
// 013   ----------------------------------------
 BYTE   W96
// 014   ----------------------------------------
 BYTE   W96
// 015   ----------------------------------------
 BYTE   W96
// 016   ----------------------------------------
 BYTE   W96
// 017   ----------------------------------------
 BYTE   W96
// 018   ----------------------------------------
 BYTE   W96
// 019   ----------------------------------------
 BYTE   W96
// 020   ----------------------------------------
 BYTE   W96
// 021   ----------------------------------------
 BYTE   W96
// 022   ----------------------------------------
 BYTE   W96
// 023   ----------------------------------------
 BYTE   W96
// 024   ----------------------------------------
 BYTE   W96
// 025   ----------------------------------------
 BYTE   W96
// 026   ----------------------------------------
 BYTE   W96
// 027   ----------------------------------------
 BYTE   W96
// 028   ----------------------------------------
 BYTE   W96
// 029   ----------------------------------------
 BYTE   W96
// 030   ----------------------------------------
 BYTE   W96
// 031   ----------------------------------------
 BYTE   W96
// 032   ----------------------------------------
 BYTE   W96
// 033   ----------------------------------------
 BYTE   W96
// 034   ----------------------------------------
 BYTE   W96
// 035   ----------------------------------------
 BYTE   W96
// 036   ----------------------------------------
 BYTE   W96
// 037   ----------------------------------------
 BYTE   W96
// 038   ----------------------------------------
 BYTE   W96
// 039   ----------------------------------------
 BYTE   W96
// 040   ----------------------------------------
 BYTE   W96
// 041   ----------------------------------------
 BYTE   W96
// 042   ----------------------------------------
 BYTE   W96
// 043   ----------------------------------------
 BYTE   W96
// 044   ----------------------------------------
 BYTE   W96
// 045   ----------------------------------------
 BYTE   W96
// 046   ----------------------------------------
 BYTE   W96
// 047   ----------------------------------------
 BYTE   W96
// 048   ----------------------------------------
 BYTE   W96
// 049   ----------------------------------------
 BYTE   W96
// 050   ----------------------------------------
 BYTE   W96
// 051   ----------------------------------------
 BYTE   W96
// 052   ----------------------------------------
 BYTE   W96
// 053   ----------------------------------------
 BYTE   W96
// 054   ----------------------------------------
 BYTE   W96
// 055   ----------------------------------------
 BYTE   W96
// 056   ----------------------------------------
 BYTE   W96
// 057   ----------------------------------------
 BYTE   W96
// 058   ----------------------------------------
 BYTE   W96
// 059   ----------------------------------------
 BYTE   W96
// 060   ----------------------------------------
 BYTE   W96
// 061   ----------------------------------------
 BYTE   W96
// 062   ----------------------------------------
 BYTE   W96
// 063   ----------------------------------------
 BYTE   W96
// 064   ----------------------------------------
 BYTE   W96
// 065   ----------------------------------------
 BYTE   W96
// 066   ----------------------------------------
 BYTE   W96
// 067   ----------------------------------------
 BYTE   W96
// 068   ----------------------------------------
 BYTE   GoTo
  POIN2 Label_1_BBA56B
 BYTE   FINE

//**************** Track 3 (Midi-Chn.2) ****************//

Water_003:
// 000   ----------------------------------------
 BYTE   KEYSH   Water_key+0
Label_2_BBA5FA:
 BYTE   VOICE   72
 BYTE   VOL   42*Water_mvl/mxv
 BYTE   PAN   c_v+0
 BYTE   W96
// 001   ----------------------------------------
 BYTE   W96
// 002   ----------------------------------------
 BYTE   W96
// 003   ----------------------------------------
 BYTE   W96
// 004   ----------------------------------------
 BYTE   TIE  En1  v127
 BYTE   W96
// 005   ----------------------------------------
 BYTE   W96
// 006   ----------------------------------------
 BYTE   W96
// 007   ----------------------------------------
 BYTE   W92
 BYTE   W03
 BYTE   EOT
 BYTE   W01
// 008   ----------------------------------------
 BYTE   W96
// 009   ----------------------------------------
 BYTE   W96
// 010   ----------------------------------------
 BYTE   W96
// 011   ----------------------------------------
 BYTE   W96
// 012   ----------------------------------------
 BYTE   W96
// 013   ----------------------------------------
 BYTE   W96
// 014   ----------------------------------------
 BYTE   W96
// 015   ----------------------------------------
 BYTE   W96
// 016   ----------------------------------------
 BYTE   W96
// 017   ----------------------------------------
 BYTE   W96
// 018   ----------------------------------------
 BYTE   W96
// 019   ----------------------------------------
 BYTE   W96
// 020   ----------------------------------------
 BYTE   W96
// 021   ----------------------------------------
 BYTE   W96
// 022   ----------------------------------------
 BYTE   W96
// 023   ----------------------------------------
 BYTE   W96
// 024   ----------------------------------------
 BYTE   W96
// 025   ----------------------------------------
 BYTE   W96
// 026   ----------------------------------------
 BYTE   W96
// 027   ----------------------------------------
 BYTE   W96
// 028   ----------------------------------------
 BYTE   W96
// 029   ----------------------------------------
 BYTE   W96
// 030   ----------------------------------------
 BYTE   W96
// 031   ----------------------------------------
 BYTE   W96
// 032   ----------------------------------------
 BYTE   W96
// 033   ----------------------------------------
 BYTE   W96
// 034   ----------------------------------------
 BYTE   W96
// 035   ----------------------------------------
 BYTE   W96
// 036   ----------------------------------------
 BYTE   W96
// 037   ----------------------------------------
 BYTE   W96
// 038   ----------------------------------------
 BYTE   W96
// 039   ----------------------------------------
 BYTE   W96
// 040   ----------------------------------------
 BYTE   W96
// 041   ----------------------------------------
 BYTE   W96
// 042   ----------------------------------------
 BYTE   W96
// 043   ----------------------------------------
 BYTE   W96
// 044   ----------------------------------------
 BYTE   W96
// 045   ----------------------------------------
 BYTE   W96
// 046   ----------------------------------------
 BYTE   W96
// 047   ----------------------------------------
 BYTE   W96
// 048   ----------------------------------------
 BYTE   W96
// 049   ----------------------------------------
 BYTE   W96
// 050   ----------------------------------------
 BYTE   W96
// 051   ----------------------------------------
 BYTE   W96
// 052   ----------------------------------------
 BYTE   W96
// 053   ----------------------------------------
 BYTE   W96
// 054   ----------------------------------------
 BYTE   W96
// 055   ----------------------------------------
 BYTE   W96
// 056   ----------------------------------------
 BYTE   W96
// 057   ----------------------------------------
 BYTE   W96
// 058   ----------------------------------------
 BYTE   W96
// 059   ----------------------------------------
 BYTE   W96
// 060   ----------------------------------------
 BYTE   W96
// 061   ----------------------------------------
 BYTE   W96
// 062   ----------------------------------------
 BYTE   W96
// 063   ----------------------------------------
 BYTE   W96
// 064   ----------------------------------------
 BYTE   W96
// 065   ----------------------------------------
 BYTE   W96
// 066   ----------------------------------------
 BYTE   W96
// 067   ----------------------------------------
 BYTE   W96
// 068   ----------------------------------------
 BYTE   GoTo
  POIN2 Label_2_BBA5FA
 BYTE   FINE

//**************** Track 4 (Midi-Chn.3) ****************//

Water_004:
// 000   ----------------------------------------
 BYTE   KEYSH   Water_key+0
Label_3_BBA652:
 BYTE   VOICE   52
 BYTE   VOL   42*Water_mvl/mxv
 BYTE   PAN   c_v+63
 BYTE   W96
// 001   ----------------------------------------
 BYTE   W96
// 002   ----------------------------------------
 BYTE   W96
// 003   ----------------------------------------
 BYTE   W96
// 004   ----------------------------------------
 BYTE   W96
// 005   ----------------------------------------
 BYTE   W96
// 006   ----------------------------------------
 BYTE   N11  En3  v080
 BYTE   N11  Gn3
 BYTE   W12
 BYTE   En3
 BYTE   N11  Gn3
 BYTE   W12
 BYTE   PAN   c_v-64
 BYTE   N11  En3
 BYTE   N11  Gn3
 BYTE   W12
 BYTE   En3
 BYTE   N11  Gn3
 BYTE   W12
 BYTE   PAN   c_v+63
 BYTE   N11  En3  v096
 BYTE   N11  Gn3
 BYTE   W12
 BYTE   En3
 BYTE   N11  Gn3
 BYTE   W12
 BYTE   PAN   c_v-64
 BYTE   N11  En3
 BYTE   N11  Gn3
 BYTE   W12
 BYTE   En3
 BYTE   N11  Gn3
 BYTE   W12
// 007   ----------------------------------------
 BYTE   PAN   c_v+63
 BYTE   N11  En3  v112
 BYTE   N11  Gn3
 BYTE   W12
 BYTE   En3
 BYTE   N11  Gn3
 BYTE   W12
 BYTE   PAN   c_v-64
 BYTE   N11  En3
 BYTE   N11  Gn3
 BYTE   W12
 BYTE   En3
 BYTE   N11  Gn3
 BYTE   W12
 BYTE   PAN   c_v+63
 BYTE   N11  En3  v127
 BYTE   N11  Gn3
 BYTE   W12
 BYTE   En3
 BYTE   N11  Gn3
 BYTE   W12
 BYTE   PAN   c_v-64
 BYTE   N11  En3
 BYTE   N11  Gn3
 BYTE   W12
 BYTE   En3
 BYTE   N11  Gn3
 BYTE   W12
// 008   ----------------------------------------
 BYTE   W96
// 009   ----------------------------------------
 BYTE   W96
// 010   ----------------------------------------
 BYTE   W96
// 011   ----------------------------------------
 BYTE   W96
// 012   ----------------------------------------
 BYTE   W96
// 013   ----------------------------------------
 BYTE   W96
// 014   ----------------------------------------
 BYTE   W96
// 015   ----------------------------------------
 BYTE   W96
// 016   ----------------------------------------
 BYTE   W96
// 017   ----------------------------------------
 BYTE   W96
// 018   ----------------------------------------
 BYTE   W96
// 019   ----------------------------------------
 BYTE   W96
// 020   ----------------------------------------
 BYTE   W96
// 021   ----------------------------------------
 BYTE   W96
// 022   ----------------------------------------
 BYTE   W96
// 023   ----------------------------------------
 BYTE   W96
// 024   ----------------------------------------
 BYTE   W96
// 025   ----------------------------------------
 BYTE   W96
// 026   ----------------------------------------
 BYTE   W96
// 027   ----------------------------------------
 BYTE   W96
// 028   ----------------------------------------
 BYTE   W96
// 029   ----------------------------------------
 BYTE   W96
// 030   ----------------------------------------
 BYTE   W96
// 031   ----------------------------------------
 BYTE   W96
// 032   ----------------------------------------
 BYTE   W96
// 033   ----------------------------------------
 BYTE   W96
// 034   ----------------------------------------
 BYTE   W96
// 035   ----------------------------------------
 BYTE   W96
// 036   ----------------------------------------
 BYTE   W96
// 037   ----------------------------------------
 BYTE   W96
// 038   ----------------------------------------
 BYTE   W96
// 039   ----------------------------------------
 BYTE   W96
// 040   ----------------------------------------
 BYTE   W96
// 041   ----------------------------------------
 BYTE   W96
// 042   ----------------------------------------
 BYTE   W96
// 043   ----------------------------------------
 BYTE   W96
// 044   ----------------------------------------
 BYTE   W96
// 045   ----------------------------------------
 BYTE   W96
// 046   ----------------------------------------
 BYTE   W96
// 047   ----------------------------------------
 BYTE   W96
// 048   ----------------------------------------
 BYTE   W96
// 049   ----------------------------------------
 BYTE   W96
// 050   ----------------------------------------
 BYTE   W96
// 051   ----------------------------------------
 BYTE   W96
// 052   ----------------------------------------
 BYTE   W96
// 053   ----------------------------------------
 BYTE   W96
// 054   ----------------------------------------
 BYTE   W96
// 055   ----------------------------------------
 BYTE   W96
// 056   ----------------------------------------
 BYTE   W96
// 057   ----------------------------------------
 BYTE   W96
// 058   ----------------------------------------
 BYTE   W96
// 059   ----------------------------------------
 BYTE   W96
// 060   ----------------------------------------
 BYTE   W96
// 061   ----------------------------------------
 BYTE   W96
// 062   ----------------------------------------
 BYTE   W96
// 063   ----------------------------------------
 BYTE   W96
// 064   ----------------------------------------
 BYTE   W96
// 065   ----------------------------------------
 BYTE   W96
// 066   ----------------------------------------
 BYTE   W96
// 067   ----------------------------------------
 BYTE   W96
// 068   ----------------------------------------
 BYTE   GoTo
  POIN2 Label_3_BBA652
 BYTE   FINE

//**************** Track 5 (Midi-Chn.4) ****************//

Water_005:
// 000   ----------------------------------------
 BYTE   KEYSH   Water_key+0
Label_4_BBA6FC:
 BYTE   VOICE   28
 BYTE   VOL   42*Water_mvl/mxv
 BYTE   PAN   c_v+0
 BYTE   N11  En1  v096
 BYTE   W24
 BYTE   En2
 BYTE   W12
 BYTE   N11
 BYTE   W12
 BYTE   En1
 BYTE   W24
 BYTE   En2
 BYTE   W12
 BYTE   N11
 BYTE   W12
// 001   ----------------------------------------
Label_4_BBA710:
 BYTE   N11  En1  v096
 BYTE   W24
 BYTE   En2
 BYTE   W12
 BYTE   N11
 BYTE   W12
 BYTE   En1
 BYTE   W24
 BYTE   En2
 BYTE   W12
 BYTE   N11
 BYTE   W12
 BYTE   PEND 
// 002   ----------------------------------------
 BYTE   PATT
  POIN2 Label_4_BBA710
// 003   ----------------------------------------
 BYTE   PATT
  POIN2 Label_4_BBA710
// 004   ----------------------------------------
 BYTE   PATT
  POIN2 Label_4_BBA710
// 005   ----------------------------------------
 BYTE   PATT
  POIN2 Label_4_BBA710
// 006   ----------------------------------------
 BYTE   PATT
  POIN2 Label_4_BBA710
// 007   ----------------------------------------
 BYTE   PATT
  POIN2 Label_4_BBA710
// 008   ----------------------------------------
Label_4_BBA73D:
 BYTE   N11  En1  v112
 BYTE   W24
 BYTE   En2
 BYTE   W12
 BYTE   N11
 BYTE   W12
 BYTE   En1
 BYTE   W24
 BYTE   En2
 BYTE   W12
 BYTE   N11
 BYTE   W12
 BYTE   PEND 
// 009   ----------------------------------------
 BYTE   PATT
  POIN2 Label_4_BBA73D
// 010   ----------------------------------------
Label_4_BBA751:
 BYTE   N11  Dn1  v112
 BYTE   W24
 BYTE   Dn2
 BYTE   W12
 BYTE   N11
 BYTE   W12
 BYTE   Dn1
 BYTE   W24
 BYTE   Dn2
 BYTE   W12
 BYTE   N11
 BYTE   W12
 BYTE   PEND 
// 011   ----------------------------------------
 BYTE   PATT
  POIN2 Label_4_BBA751
// 012   ----------------------------------------
 BYTE   PATT
  POIN2 Label_4_BBA73D
// 013   ----------------------------------------
 BYTE   PATT
  POIN2 Label_4_BBA73D
// 014   ----------------------------------------
 BYTE   PATT
  POIN2 Label_4_BBA751
// 015   ----------------------------------------
Label_4_BBA774:
 BYTE   N11  Cn1  v112
 BYTE   W24
 BYTE   Cn2
 BYTE   W12
 BYTE   N11
 BYTE   W12
 BYTE   Cn1
 BYTE   W24
 BYTE   Cn2
 BYTE   W12
 BYTE   N11
 BYTE   W12
 BYTE   PEND 
// 016   ----------------------------------------
Label_4_BBA783:
 BYTE   N11  Bn0  v112
 BYTE   W24
 BYTE   Bn1
 BYTE   W12
 BYTE   N11
 BYTE   W12
 BYTE   Bn0
 BYTE   W12
 BYTE   Bn1
 BYTE   W12
 BYTE   Bn0
 BYTE   W12
 BYTE   Bn1
 BYTE   W12
 BYTE   PEND 
// 017   ----------------------------------------
Label_4_BBA794:
 BYTE   N11  Gn0  v112
 BYTE   W24
 BYTE   Gn1
 BYTE   W12
 BYTE   N11
 BYTE   W12
 BYTE   An0
 BYTE   W24
 BYTE   An1
 BYTE   W12
 BYTE   N11
 BYTE   W12
 BYTE   PEND 
// 018   ----------------------------------------
 BYTE   PATT
  POIN2 Label_4_BBA783
// 019   ----------------------------------------
 BYTE   PATT
  POIN2 Label_4_BBA794
// 020   ----------------------------------------
 BYTE   PATT
  POIN2 Label_4_BBA73D
// 021   ----------------------------------------
 BYTE   PATT
  POIN2 Label_4_BBA73D
// 022   ----------------------------------------
 BYTE   PATT
  POIN2 Label_4_BBA751
// 023   ----------------------------------------
 BYTE   PATT
  POIN2 Label_4_BBA751
// 024   ----------------------------------------
 BYTE   PATT
  POIN2 Label_4_BBA73D
// 025   ----------------------------------------
 BYTE   PATT
  POIN2 Label_4_BBA73D
// 026   ----------------------------------------
 BYTE   PATT
  POIN2 Label_4_BBA751
// 027   ----------------------------------------
 BYTE   PATT
  POIN2 Label_4_BBA774
// 028   ----------------------------------------
 BYTE   PATT
  POIN2 Label_4_BBA783
// 029   ----------------------------------------
 BYTE   PATT
  POIN2 Label_4_BBA794
// 030   ----------------------------------------
 BYTE   PATT
  POIN2 Label_4_BBA783
// 031   ----------------------------------------
 BYTE   PATT
  POIN2 Label_4_BBA794
// 032   ----------------------------------------
 BYTE   PATT
  POIN2 Label_4_BBA774
// 033   ----------------------------------------
 BYTE   PATT
  POIN2 Label_4_BBA774
// 034   ----------------------------------------
 BYTE   PATT
  POIN2 Label_4_BBA73D
// 035   ----------------------------------------
 BYTE   PATT
  POIN2 Label_4_BBA73D
// 036   ----------------------------------------
 BYTE   PATT
  POIN2 Label_4_BBA774
// 037   ----------------------------------------
 BYTE   PATT
  POIN2 Label_4_BBA774
// 038   ----------------------------------------
 BYTE   PATT
  POIN2 Label_4_BBA73D
// 039   ----------------------------------------
 BYTE   PATT
  POIN2 Label_4_BBA73D
// 040   ----------------------------------------
 BYTE   PATT
  POIN2 Label_4_BBA774
// 041   ----------------------------------------
 BYTE   PATT
  POIN2 Label_4_BBA774
// 042   ----------------------------------------
 BYTE   PATT
  POIN2 Label_4_BBA73D
// 043   ----------------------------------------
 BYTE   PATT
  POIN2 Label_4_BBA73D
// 044   ----------------------------------------
 BYTE   PATT
  POIN2 Label_4_BBA751
// 045   ----------------------------------------
 BYTE   PATT
  POIN2 Label_4_BBA751
// 046   ----------------------------------------
Label_4_BBA82F:
 BYTE   N11  Bn0  v112
 BYTE   W24
 BYTE   Bn1
 BYTE   W12
 BYTE   N11
 BYTE   W12
 BYTE   Bn0
 BYTE   W24
 BYTE   Bn1
 BYTE   W12
 BYTE   N11
 BYTE   W12
 BYTE   PEND 
// 047   ----------------------------------------
 BYTE   PATT
  POIN2 Label_4_BBA751
// 048   ----------------------------------------
 BYTE   PATT
  POIN2 Label_4_BBA774
// 049   ----------------------------------------
 BYTE   PATT
  POIN2 Label_4_BBA774
// 050   ----------------------------------------
 BYTE   PATT
  POIN2 Label_4_BBA73D
// 051   ----------------------------------------
 BYTE   PATT
  POIN2 Label_4_BBA73D
// 052   ----------------------------------------
 BYTE   PATT
  POIN2 Label_4_BBA774
// 053   ----------------------------------------
 BYTE   PATT
  POIN2 Label_4_BBA774
// 054   ----------------------------------------
 BYTE   PATT
  POIN2 Label_4_BBA73D
// 055   ----------------------------------------
 BYTE   PATT
  POIN2 Label_4_BBA73D
// 056   ----------------------------------------
 BYTE   PATT
  POIN2 Label_4_BBA774
// 057   ----------------------------------------
 BYTE   PATT
  POIN2 Label_4_BBA774
// 058   ----------------------------------------
 BYTE   PATT
  POIN2 Label_4_BBA73D
// 059   ----------------------------------------
 BYTE   PATT
  POIN2 Label_4_BBA73D
// 060   ----------------------------------------
 BYTE   PATT
  POIN2 Label_4_BBA751
// 061   ----------------------------------------
 BYTE   PATT
  POIN2 Label_4_BBA751
// 062   ----------------------------------------
 BYTE   PATT
  POIN2 Label_4_BBA82F
// 063   ----------------------------------------
 BYTE   PATT
  POIN2 Label_4_BBA751
// 064   ----------------------------------------
 BYTE   PATT
  POIN2 Label_4_BBA73D
// 065   ----------------------------------------
 BYTE   PATT
  POIN2 Label_4_BBA73D
// 066   ----------------------------------------
 BYTE   PATT
  POIN2 Label_4_BBA751
// 067   ----------------------------------------
 BYTE   PATT
  POIN2 Label_4_BBA751
// 068   ----------------------------------------
 BYTE   GoTo
  POIN2 Label_4_BBA6FC
 BYTE   FINE

//**************** Track 6 (Midi-Chn.5) ****************//

Water_006:
// 000   ----------------------------------------
 BYTE   KEYSH   Water_key+0
Label_5_BBA8AF:
 BYTE   VOICE   72
 BYTE   VOL   45*Water_mvl/mxv
 BYTE   PAN   c_v+0
 BYTE   W96
// 001   ----------------------------------------
 BYTE   W96
// 002   ----------------------------------------
 BYTE   W96
// 003   ----------------------------------------
 BYTE   W96
// 004   ----------------------------------------
 BYTE   W96
// 005   ----------------------------------------
 BYTE   W96
// 006   ----------------------------------------
 BYTE   W96
// 007   ----------------------------------------
 BYTE   W96
// 008   ----------------------------------------
 BYTE   N92  En3  v127
 BYTE   W96
// 009   ----------------------------------------
Label_5_BBA8C1:
 BYTE   N68  Bn3  v127
 BYTE   W72
 BYTE   N11  An3
 BYTE   W12
 BYTE   Bn3
 BYTE   W12
 BYTE   PEND 
// 010   ----------------------------------------
Label_5_BBA8CB:
 BYTE   N68  An3  v127
 BYTE   W72
 BYTE   N23  Gn3
 BYTE   W24
 BYTE   PEND 
// 011   ----------------------------------------
Label_5_BBA8D3:
 BYTE   N32  Fs3  v127
 BYTE   W36
 BYTE   Gn3
 BYTE   W36
 BYTE   N23  An3
 BYTE   W24
 BYTE   PEND 
// 012   ----------------------------------------
 BYTE   N92  En3
 BYTE   W96
// 013   ----------------------------------------
 BYTE   PATT
  POIN2 Label_5_BBA8C1
// 014   ----------------------------------------
 BYTE   PATT
  POIN2 Label_5_BBA8CB
// 015   ----------------------------------------
Label_5_BBA8EA:
 BYTE   N32  Cn3  v127
 BYTE   W36
 BYTE   En3
 BYTE   W36
 BYTE   N23  Gn3
 BYTE   W24
 BYTE   PEND 
// 016   ----------------------------------------
 BYTE   TIE  Fs3
 BYTE   W96
// 017   ----------------------------------------
 BYTE   W92
 BYTE   W03
 BYTE   EOT
 BYTE   W01
// 018   ----------------------------------------
 BYTE   W96
// 019   ----------------------------------------
 BYTE   W96
// 020   ----------------------------------------
 BYTE   N92  En3
 BYTE   W96
// 021   ----------------------------------------
 BYTE   PATT
  POIN2 Label_5_BBA8C1
// 022   ----------------------------------------
 BYTE   PATT
  POIN2 Label_5_BBA8CB
// 023   ----------------------------------------
 BYTE   PATT
  POIN2 Label_5_BBA8D3
// 024   ----------------------------------------
 BYTE   N92  En3  v127
 BYTE   W96
// 025   ----------------------------------------
 BYTE   PATT
  POIN2 Label_5_BBA8C1
// 026   ----------------------------------------
 BYTE   PATT
  POIN2 Label_5_BBA8CB
// 027   ----------------------------------------
 BYTE   PATT
  POIN2 Label_5_BBA8EA
// 028   ----------------------------------------
 BYTE   TIE  Fs3  v127
 BYTE   W96
// 029   ----------------------------------------
 BYTE   W92
 BYTE   W03
 BYTE   EOT
 BYTE   W01
// 030   ----------------------------------------
 BYTE   W96
// 031   ----------------------------------------
 BYTE   W96
// 032   ----------------------------------------
 BYTE   W96
// 033   ----------------------------------------
 BYTE   W96
// 034   ----------------------------------------
 BYTE   W96
// 035   ----------------------------------------
 BYTE   W96
// 036   ----------------------------------------
 BYTE   W96
// 037   ----------------------------------------
 BYTE   W96
// 038   ----------------------------------------
 BYTE   W96
// 039   ----------------------------------------
 BYTE   W96
// 040   ----------------------------------------
 BYTE   W96
// 041   ----------------------------------------
 BYTE   W96
// 042   ----------------------------------------
 BYTE   W96
// 043   ----------------------------------------
 BYTE   W96
// 044   ----------------------------------------
 BYTE   W96
// 045   ----------------------------------------
 BYTE   W96
// 046   ----------------------------------------
 BYTE   W96
// 047   ----------------------------------------
 BYTE   W96
// 048   ----------------------------------------
 BYTE   W96
// 049   ----------------------------------------
 BYTE   W96
// 050   ----------------------------------------
 BYTE   W96
// 051   ----------------------------------------
 BYTE   W96
// 052   ----------------------------------------
 BYTE   W96
// 053   ----------------------------------------
 BYTE   W96
// 054   ----------------------------------------
 BYTE   W96
// 055   ----------------------------------------
 BYTE   W96
// 056   ----------------------------------------
 BYTE   W96
// 057   ----------------------------------------
 BYTE   W96
// 058   ----------------------------------------
 BYTE   W96
// 059   ----------------------------------------
 BYTE   W96
// 060   ----------------------------------------
 BYTE   W96
// 061   ----------------------------------------
 BYTE   W96
// 062   ----------------------------------------
 BYTE   W96
// 063   ----------------------------------------
 BYTE   W96
// 064   ----------------------------------------
 BYTE   N92  En3
 BYTE   W96
// 065   ----------------------------------------
 BYTE   PATT
  POIN2 Label_5_BBA8C1
// 066   ----------------------------------------
 BYTE   TIE  An3  v127
 BYTE   W96
// 067   ----------------------------------------
 BYTE   W96
// 068   ----------------------------------------
 BYTE   EOT
 BYTE   GoTo
  POIN2 Label_5_BBA8AF
 BYTE   FINE

//**************** Track 7 (Midi-Chn.6) ****************//

Water_007:
// 000   ----------------------------------------
 BYTE   KEYSH   Water_key+0
Label_6_BBA962:
 BYTE   VOICE   49
 BYTE   VOL   35*Water_mvl/mxv
 BYTE   PAN   c_v+3
 BYTE   W96
// 001   ----------------------------------------
 BYTE   W96
// 002   ----------------------------------------
 BYTE   W96
// 003   ----------------------------------------
 BYTE   W96
// 004   ----------------------------------------
 BYTE   W96
// 005   ----------------------------------------
 BYTE   W96
// 006   ----------------------------------------
 BYTE   W96
// 007   ----------------------------------------
 BYTE   W96
// 008   ----------------------------------------
 BYTE   W96
// 009   ----------------------------------------
 BYTE   W96
// 010   ----------------------------------------
 BYTE   W96
// 011   ----------------------------------------
 BYTE   W96
// 012   ----------------------------------------
 BYTE   W96
// 013   ----------------------------------------
 BYTE   W96
// 014   ----------------------------------------
 BYTE   W96
// 015   ----------------------------------------
 BYTE   W96
// 016   ----------------------------------------
 BYTE   W96
// 017   ----------------------------------------
 BYTE   W96
// 018   ----------------------------------------
 BYTE   W96
// 019   ----------------------------------------
 BYTE   W96
// 020   ----------------------------------------
 BYTE   W96
// 021   ----------------------------------------
 BYTE   W96
// 022   ----------------------------------------
 BYTE   W96
// 023   ----------------------------------------
 BYTE   W96
// 024   ----------------------------------------
 BYTE   W96
// 025   ----------------------------------------
 BYTE   W96
// 026   ----------------------------------------
 BYTE   W96
// 027   ----------------------------------------
 BYTE   W96
// 028   ----------------------------------------
 BYTE   W96
// 029   ----------------------------------------
 BYTE   W96
// 030   ----------------------------------------
 BYTE   W96
// 031   ----------------------------------------
 BYTE   W96
// 032   ----------------------------------------
 BYTE   N92  Cn4  v127
 BYTE   W96
// 033   ----------------------------------------
Label_6_BBA98C:
 BYTE   N23  Gn3  v127
 BYTE   W24
 BYTE   N44
 BYTE   W48
 BYTE   N23  An3
 BYTE   W24
 BYTE   PEND 
// 034   ----------------------------------------
 BYTE   TIE  Bn3
 BYTE   W96
// 035   ----------------------------------------
 BYTE   W92
 BYTE   W03
 BYTE   EOT
 BYTE   W01
// 036   ----------------------------------------
 BYTE   N92  Cn4
 BYTE   W96
// 037   ----------------------------------------
 BYTE   PATT
  POIN2 Label_6_BBA98C
// 038   ----------------------------------------
 BYTE   TIE  Bn3  v127
 BYTE   W96
// 039   ----------------------------------------
 BYTE   W92
 BYTE   W03
 BYTE   EOT
 BYTE   W01
// 040   ----------------------------------------
 BYTE   N92  Cn4
 BYTE   W96
// 041   ----------------------------------------
 BYTE   PATT
  POIN2 Label_6_BBA98C
// 042   ----------------------------------------
 BYTE   TIE  Bn3  v127
 BYTE   W96
// 043   ----------------------------------------
 BYTE   W92
 BYTE   W03
 BYTE   EOT
 BYTE   W01
// 044   ----------------------------------------
 BYTE   TIE  Dn4
 BYTE   W96
// 045   ----------------------------------------
 BYTE   W92
 BYTE   W03
 BYTE   EOT
 BYTE   W01
// 046   ----------------------------------------
 BYTE   N92  Bn3
 BYTE   W96
// 047   ----------------------------------------
 BYTE   Dn4
 BYTE   W96
// 048   ----------------------------------------
 BYTE   Cn4
 BYTE   W96
// 049   ----------------------------------------
 BYTE   PATT
  POIN2 Label_6_BBA98C
// 050   ----------------------------------------
 BYTE   TIE  Bn3  v127
 BYTE   W96
// 051   ----------------------------------------
 BYTE   W92
 BYTE   W03
 BYTE   EOT
 BYTE   W01
// 052   ----------------------------------------
 BYTE   N92  Cn4
 BYTE   W96
// 053   ----------------------------------------
 BYTE   PATT
  POIN2 Label_6_BBA98C
// 054   ----------------------------------------
 BYTE   TIE  Bn3  v127
 BYTE   W96
// 055   ----------------------------------------
 BYTE   W92
 BYTE   W03
 BYTE   EOT
 BYTE   W01
// 056   ----------------------------------------
 BYTE   N92  Cn4
 BYTE   W96
// 057   ----------------------------------------
 BYTE   PATT
  POIN2 Label_6_BBA98C
// 058   ----------------------------------------
 BYTE   TIE  Bn3  v127
 BYTE   W96
// 059   ----------------------------------------
 BYTE   W92
 BYTE   W03
 BYTE   EOT
 BYTE   W01
// 060   ----------------------------------------
 BYTE   TIE  Dn4
 BYTE   W96
// 061   ----------------------------------------
 BYTE   W92
 BYTE   W03
 BYTE   EOT
 BYTE   W01
// 062   ----------------------------------------
 BYTE   N92  Bn3
 BYTE   W96
// 063   ----------------------------------------
 BYTE   Dn4
 BYTE   W96
// 064   ----------------------------------------
 BYTE   En3
 BYTE   W96
// 065   ----------------------------------------
 BYTE   N68  Bn3
 BYTE   W72
 BYTE   N11  An3
 BYTE   W12
 BYTE   Bn3
 BYTE   W12
// 066   ----------------------------------------
 BYTE   TIE  An3
 BYTE   W96
// 067   ----------------------------------------
 BYTE   W96
// 068   ----------------------------------------
 BYTE   EOT
 BYTE   GoTo
  POIN2 Label_6_BBA962
 BYTE   FINE

//**************** Track 8 (Midi-Chn.7) ****************//

Water_008:
// 000   ----------------------------------------
 BYTE   KEYSH   Water_key+0
Label_7_BBAA1B:
 BYTE   VOICE   109
 BYTE   PAN   c_v-5
 BYTE   VOL   38*Water_mvl/mxv
 BYTE   W96
// 001   ----------------------------------------
 BYTE   W96
// 002   ----------------------------------------
 BYTE   W96
// 003   ----------------------------------------
 BYTE   W96
// 004   ----------------------------------------
 BYTE   W96
// 005   ----------------------------------------
 BYTE   W96
// 006   ----------------------------------------
 BYTE   W96
// 007   ----------------------------------------
 BYTE   W96
// 008   ----------------------------------------
 BYTE   W96
// 009   ----------------------------------------
 BYTE   W96
// 010   ----------------------------------------
 BYTE   W96
// 011   ----------------------------------------
 BYTE   W96
// 012   ----------------------------------------
 BYTE   W96
// 013   ----------------------------------------
 BYTE   W96
// 014   ----------------------------------------
 BYTE   W96
// 015   ----------------------------------------
 BYTE   W96
// 016   ----------------------------------------
 BYTE   W96
// 017   ----------------------------------------
 BYTE   W96
// 018   ----------------------------------------
 BYTE   W96
// 019   ----------------------------------------
 BYTE   W96
// 020   ----------------------------------------
 BYTE   W96
// 021   ----------------------------------------
 BYTE   W96
// 022   ----------------------------------------
 BYTE   W96
// 023   ----------------------------------------
 BYTE   W96
// 024   ----------------------------------------
 BYTE   W96
// 025   ----------------------------------------
 BYTE   W96
// 026   ----------------------------------------
 BYTE   W96
// 027   ----------------------------------------
 BYTE   W96
// 028   ----------------------------------------
 BYTE   W96
// 029   ----------------------------------------
 BYTE   W96
// 030   ----------------------------------------
 BYTE   W96
// 031   ----------------------------------------
 BYTE   W96
// 032   ----------------------------------------
 BYTE   N92  Cn4  v127
 BYTE   W96
// 033   ----------------------------------------
Label_7_BBAA45:
 BYTE   N23  Gn3  v127
 BYTE   W24
 BYTE   N44
 BYTE   W48
 BYTE   N23  An3
 BYTE   W24
 BYTE   PEND 
// 034   ----------------------------------------
 BYTE   TIE  Bn3
 BYTE   W96
// 035   ----------------------------------------
 BYTE   W92
 BYTE   W03
 BYTE   EOT
 BYTE   W01
// 036   ----------------------------------------
 BYTE   N92  Cn4
 BYTE   W96
// 037   ----------------------------------------
 BYTE   PATT
  POIN2 Label_7_BBAA45
// 038   ----------------------------------------
 BYTE   TIE  Bn3  v127
 BYTE   W96
// 039   ----------------------------------------
 BYTE   W92
 BYTE   W03
 BYTE   EOT
 BYTE   W01
// 040   ----------------------------------------
 BYTE   N92  Cn4
 BYTE   W96
// 041   ----------------------------------------
 BYTE   PATT
  POIN2 Label_7_BBAA45
// 042   ----------------------------------------
 BYTE   TIE  Bn3  v127
 BYTE   W96
// 043   ----------------------------------------
 BYTE   W92
 BYTE   W03
 BYTE   EOT
 BYTE   W01
// 044   ----------------------------------------
 BYTE   TIE  Dn4
 BYTE   W96
// 045   ----------------------------------------
 BYTE   W92
 BYTE   W03
 BYTE   EOT
 BYTE   W01
// 046   ----------------------------------------
 BYTE   N92  Bn3
 BYTE   W96
// 047   ----------------------------------------
 BYTE   Dn4
 BYTE   W96
// 048   ----------------------------------------
 BYTE   Cn4
 BYTE   W96
// 049   ----------------------------------------
 BYTE   PATT
  POIN2 Label_7_BBAA45
// 050   ----------------------------------------
 BYTE   TIE  Bn3  v127
 BYTE   W96
// 051   ----------------------------------------
 BYTE   W92
 BYTE   W03
 BYTE   EOT
 BYTE   W01
// 052   ----------------------------------------
 BYTE   N92  Cn4
 BYTE   W96
// 053   ----------------------------------------
 BYTE   PATT
  POIN2 Label_7_BBAA45
// 054   ----------------------------------------
 BYTE   TIE  Bn3  v127
 BYTE   W96
// 055   ----------------------------------------
 BYTE   W92
 BYTE   W03
 BYTE   EOT
 BYTE   W01
// 056   ----------------------------------------
 BYTE   N92  Cn4
 BYTE   W96
// 057   ----------------------------------------
 BYTE   PATT
  POIN2 Label_7_BBAA45
// 058   ----------------------------------------
 BYTE   TIE  Bn3  v127
 BYTE   W96
// 059   ----------------------------------------
 BYTE   W92
 BYTE   W03
 BYTE   EOT
 BYTE   W01
// 060   ----------------------------------------
 BYTE   TIE  Dn4
 BYTE   W96
// 061   ----------------------------------------
 BYTE   W92
 BYTE   W03
 BYTE   EOT
 BYTE   W01
// 062   ----------------------------------------
 BYTE   N92  Bn3
 BYTE   W96
// 063   ----------------------------------------
 BYTE   Dn4
 BYTE   W96
// 064   ----------------------------------------
 BYTE   W96
// 065   ----------------------------------------
 BYTE   W96
// 066   ----------------------------------------
 BYTE   W96
// 067   ----------------------------------------
 BYTE   W96
// 068   ----------------------------------------
 BYTE   GoTo
  POIN2 Label_7_BBAA1B
 BYTE   FINE

//**************** Track 9 (Midi-Chn.8) ****************//

Water_009:
// 000   ----------------------------------------
 BYTE   KEYSH   Water_key+0
Label_8_BBAAC9:
 BYTE   VOICE   52
 BYTE   PAN   c_v-1
 BYTE   VOL   51*Water_mvl/mxv
 BYTE   W96
// 001   ----------------------------------------
 BYTE   W96
// 002   ----------------------------------------
 BYTE   W96
// 003   ----------------------------------------
 BYTE   W96
// 004   ----------------------------------------
 BYTE   W96
// 005   ----------------------------------------
 BYTE   W96
// 006   ----------------------------------------
 BYTE   W96
// 007   ----------------------------------------
 BYTE   W96
// 008   ----------------------------------------
 BYTE   TIE  Gn3  v096
 BYTE   W96
// 009   ----------------------------------------
 BYTE   W92
 BYTE   W03
 BYTE   EOT
 BYTE   W01
// 010   ----------------------------------------
 BYTE   TIE  Fs3
 BYTE   W96
// 011   ----------------------------------------
 BYTE   W92
 BYTE   W03
 BYTE   EOT
 BYTE   W01
// 012   ----------------------------------------
 BYTE   TIE  Gn3
 BYTE   W96
// 013   ----------------------------------------
 BYTE   W92
 BYTE   W03
 BYTE   EOT
 BYTE   W01
// 014   ----------------------------------------
 BYTE   N92  Fs3
 BYTE   W96
// 015   ----------------------------------------
 BYTE   Gn3
 BYTE   W96
// 016   ----------------------------------------
 BYTE   TIE  Fs3
 BYTE   W96
// 017   ----------------------------------------
 BYTE   W92
 BYTE   W03
 BYTE   EOT
 BYTE   W01
// 018   ----------------------------------------
Label_8_BBAAF9:
 BYTE   N44  Fs3  v096
 BYTE   W48
 BYTE   N44
 BYTE   W48
 BYTE   PEND 
// 019   ----------------------------------------
 BYTE   PATT
  POIN2 Label_8_BBAAF9
// 020   ----------------------------------------
 BYTE   TIE  Gn3  v096
 BYTE   W96
// 021   ----------------------------------------
 BYTE   W92
 BYTE   W03
 BYTE   EOT
 BYTE   W01
// 022   ----------------------------------------
 BYTE   TIE  Fs3
 BYTE   W96
// 023   ----------------------------------------
 BYTE   W92
 BYTE   W03
 BYTE   EOT
 BYTE   W01
// 024   ----------------------------------------
 BYTE   TIE  Gn3
 BYTE   W96
// 025   ----------------------------------------
 BYTE   W92
 BYTE   W03
 BYTE   EOT
 BYTE   W01
// 026   ----------------------------------------
 BYTE   N92  Fs3
 BYTE   W96
// 027   ----------------------------------------
 BYTE   Gn3
 BYTE   W96
// 028   ----------------------------------------
 BYTE   TIE  Fs3
 BYTE   W96
// 029   ----------------------------------------
 BYTE   W92
 BYTE   W03
 BYTE   EOT
 BYTE   W01
// 030   ----------------------------------------
 BYTE   PATT
  POIN2 Label_8_BBAAF9
// 031   ----------------------------------------
 BYTE   PATT
  POIN2 Label_8_BBAAF9
// 032   ----------------------------------------
 BYTE   TIE  En3  v096
 BYTE   W96
// 033   ----------------------------------------
 BYTE   W92
 BYTE   W03
 BYTE   EOT
 BYTE   W01
// 034   ----------------------------------------
 BYTE   TIE
 BYTE   W96
// 035   ----------------------------------------
 BYTE   W92
 BYTE   W03
 BYTE   EOT
 BYTE   W01
// 036   ----------------------------------------
 BYTE   TIE
 BYTE   W96
// 037   ----------------------------------------
 BYTE   W92
 BYTE   W03
 BYTE   EOT
 BYTE   W01
// 038   ----------------------------------------
 BYTE   TIE
 BYTE   W96
// 039   ----------------------------------------
 BYTE   W92
 BYTE   W03
 BYTE   EOT
 BYTE   W01
// 040   ----------------------------------------
 BYTE   TIE
 BYTE   W96
// 041   ----------------------------------------
 BYTE   W92
 BYTE   W03
 BYTE   EOT
 BYTE   W01
// 042   ----------------------------------------
 BYTE   TIE
 BYTE   W96
// 043   ----------------------------------------
 BYTE   W92
 BYTE   W03
 BYTE   EOT
 BYTE   W01
// 044   ----------------------------------------
 BYTE   TIE  Gn3
 BYTE   W96
// 045   ----------------------------------------
 BYTE   W92
 BYTE   W03
 BYTE   EOT
 BYTE   W01
// 046   ----------------------------------------
 BYTE   N92  En3
 BYTE   W96
// 047   ----------------------------------------
 BYTE   Gn3
 BYTE   W96
// 048   ----------------------------------------
 BYTE   TIE  En3
 BYTE   W96
// 049   ----------------------------------------
 BYTE   W92
 BYTE   W03
 BYTE   EOT
 BYTE   W01
// 050   ----------------------------------------
 BYTE   TIE
 BYTE   W96
// 051   ----------------------------------------
 BYTE   W92
 BYTE   W03
 BYTE   EOT
 BYTE   W01
// 052   ----------------------------------------
 BYTE   TIE
 BYTE   W96
// 053   ----------------------------------------
 BYTE   W92
 BYTE   W03
 BYTE   EOT
 BYTE   W01
// 054   ----------------------------------------
 BYTE   TIE
 BYTE   W96
// 055   ----------------------------------------
 BYTE   W92
 BYTE   W03
 BYTE   EOT
 BYTE   W01
// 056   ----------------------------------------
 BYTE   TIE
 BYTE   W96
// 057   ----------------------------------------
 BYTE   W92
 BYTE   W03
 BYTE   EOT
 BYTE   W01
// 058   ----------------------------------------
 BYTE   TIE
 BYTE   W96
// 059   ----------------------------------------
 BYTE   W92
 BYTE   W03
 BYTE   EOT
 BYTE   W01
// 060   ----------------------------------------
 BYTE   TIE  Gn3
 BYTE   W96
// 061   ----------------------------------------
 BYTE   W92
 BYTE   W03
 BYTE   EOT
 BYTE   W01
// 062   ----------------------------------------
 BYTE   N92  En3
 BYTE   W96
// 063   ----------------------------------------
 BYTE   Gn3
 BYTE   W96
// 064   ----------------------------------------
 BYTE   W96
// 065   ----------------------------------------
 BYTE   W96
// 066   ----------------------------------------
 BYTE   W96
// 067   ----------------------------------------
 BYTE   W96
// 068   ----------------------------------------
 BYTE   GoTo
  POIN2 Label_8_BBAAC9
 BYTE   FINE

//**************** Track 10 (Midi-Chn.9) ****************//

Water_010:
// 000   ----------------------------------------
 BYTE   KEYSH   Water_key+0
Label_9_BBABA0:
 BYTE   VOICE   85
 BYTE   PAN   c_v-1
 BYTE   VOL   48*Water_mvl/mxv
 BYTE   W96
// 001   ----------------------------------------
 BYTE   W96
// 002   ----------------------------------------
 BYTE   W96
// 003   ----------------------------------------
 BYTE   W96
// 004   ----------------------------------------
 BYTE   W96
// 005   ----------------------------------------
 BYTE   W96
// 006   ----------------------------------------
 BYTE   W96
// 007   ----------------------------------------
 BYTE   W96
// 008   ----------------------------------------
 BYTE   TIE  En3  v096
 BYTE   W96
// 009   ----------------------------------------
 BYTE   W92
 BYTE   W03
 BYTE   EOT
 BYTE   W01
// 010   ----------------------------------------
 BYTE   TIE  Dn3
 BYTE   W96
// 011   ----------------------------------------
 BYTE   W92
 BYTE   W03
 BYTE   EOT
 BYTE   W01
// 012   ----------------------------------------
 BYTE   TIE  En3
 BYTE   W96
// 013   ----------------------------------------
 BYTE   W92
 BYTE   W03
 BYTE   EOT
 BYTE   W01
// 014   ----------------------------------------
 BYTE   N92  Dn3
 BYTE   W96
// 015   ----------------------------------------
 BYTE   En3
 BYTE   W96
// 016   ----------------------------------------
 BYTE   TIE  Ds3
 BYTE   W96
// 017   ----------------------------------------
 BYTE   W92
 BYTE   W03
 BYTE   EOT
 BYTE   W01
// 018   ----------------------------------------
Label_9_BBABD0:
 BYTE   N44  Ds3  v096
 BYTE   W48
 BYTE   N44
 BYTE   W48
 BYTE   PEND 
// 019   ----------------------------------------
 BYTE   PATT
  POIN2 Label_9_BBABD0
// 020   ----------------------------------------
 BYTE   TIE  En3  v096
 BYTE   W96
// 021   ----------------------------------------
 BYTE   W92
 BYTE   W03
 BYTE   EOT
 BYTE   W01
// 022   ----------------------------------------
 BYTE   TIE  Dn3
 BYTE   W96
// 023   ----------------------------------------
 BYTE   W92
 BYTE   W03
 BYTE   EOT
 BYTE   W01
// 024   ----------------------------------------
 BYTE   TIE  En3
 BYTE   W96
// 025   ----------------------------------------
 BYTE   W92
 BYTE   W03
 BYTE   EOT
 BYTE   W01
// 026   ----------------------------------------
 BYTE   N92  Dn3
 BYTE   W96
// 027   ----------------------------------------
 BYTE   En3
 BYTE   W96
// 028   ----------------------------------------
 BYTE   TIE  Ds3
 BYTE   W96
// 029   ----------------------------------------
 BYTE   W92
 BYTE   W03
 BYTE   EOT
 BYTE   W01
// 030   ----------------------------------------
 BYTE   PATT
  POIN2 Label_9_BBABD0
// 031   ----------------------------------------
 BYTE   PATT
  POIN2 Label_9_BBABD0
// 032   ----------------------------------------
 BYTE   TIE  Cn3  v096
 BYTE   W96
// 033   ----------------------------------------
 BYTE   W92
 BYTE   W03
 BYTE   EOT
 BYTE   W01
// 034   ----------------------------------------
 BYTE   TIE  Bn2
 BYTE   W96
// 035   ----------------------------------------
 BYTE   W92
 BYTE   W03
 BYTE   EOT
 BYTE   W01
// 036   ----------------------------------------
 BYTE   TIE  Cn3
 BYTE   W96
// 037   ----------------------------------------
 BYTE   W92
 BYTE   W03
 BYTE   EOT
 BYTE   W01
// 038   ----------------------------------------
 BYTE   TIE  Bn2
 BYTE   W96
// 039   ----------------------------------------
 BYTE   W92
 BYTE   W03
 BYTE   EOT
 BYTE   W01
// 040   ----------------------------------------
 BYTE   TIE  Cn3
 BYTE   W96
// 041   ----------------------------------------
 BYTE   W92
 BYTE   W03
 BYTE   EOT
 BYTE   W01
// 042   ----------------------------------------
 BYTE   TIE  Bn2
 BYTE   W96
// 043   ----------------------------------------
 BYTE   W92
 BYTE   W03
 BYTE   EOT
 BYTE   W01
// 044   ----------------------------------------
 BYTE   TIE  Dn3
 BYTE   W96
// 045   ----------------------------------------
 BYTE   W92
 BYTE   W03
 BYTE   EOT
 BYTE   W01
// 046   ----------------------------------------
 BYTE   N92  Bn2
 BYTE   W96
// 047   ----------------------------------------
 BYTE   Dn3
 BYTE   W96
// 048   ----------------------------------------
 BYTE   TIE  Cn3
 BYTE   W96
// 049   ----------------------------------------
 BYTE   W92
 BYTE   W03
 BYTE   EOT
 BYTE   W01
// 050   ----------------------------------------
 BYTE   TIE  Bn2
 BYTE   W96
// 051   ----------------------------------------
 BYTE   W92
 BYTE   W03
 BYTE   EOT
 BYTE   W01
// 052   ----------------------------------------
 BYTE   TIE  Cn3
 BYTE   W96
// 053   ----------------------------------------
 BYTE   W92
 BYTE   W03
 BYTE   EOT
 BYTE   W01
// 054   ----------------------------------------
 BYTE   TIE  Bn2
 BYTE   W96
// 055   ----------------------------------------
 BYTE   W92
 BYTE   W03
 BYTE   EOT
 BYTE   W01
// 056   ----------------------------------------
 BYTE   TIE  Cn3
 BYTE   W96
// 057   ----------------------------------------
 BYTE   W92
 BYTE   W03
 BYTE   EOT
 BYTE   W01
// 058   ----------------------------------------
 BYTE   TIE  Bn2
 BYTE   W96
// 059   ----------------------------------------
 BYTE   W92
 BYTE   W03
 BYTE   EOT
 BYTE   W01
// 060   ----------------------------------------
 BYTE   TIE  Dn3
 BYTE   W96
// 061   ----------------------------------------
 BYTE   W92
 BYTE   W03
 BYTE   EOT
 BYTE   W01
// 062   ----------------------------------------
 BYTE   N92  Bn2
 BYTE   W96
// 063   ----------------------------------------
 BYTE   Dn3
 BYTE   W96
// 064   ----------------------------------------
 BYTE   En3  v127
 BYTE   W96
// 065   ----------------------------------------
 BYTE   N68  Bn3
 BYTE   W72
 BYTE   N11  An3
 BYTE   W12
 BYTE   Bn3
 BYTE   W12
// 066   ----------------------------------------
 BYTE   TIE  An3
 BYTE   W96
// 067   ----------------------------------------
 BYTE   W96
// 068   ----------------------------------------
 BYTE   EOT
 BYTE   GoTo
  POIN2 Label_9_BBABA0
 BYTE   FINE

//**************** Track 11 (Midi-Chn.10) ****************//

Water_011:
// 000   ----------------------------------------
 BYTE   KEYSH   Water_key+0
Label_10_BBAC8D:
 BYTE   VOICE   73
 BYTE   VOL   45*Water_mvl/mxv
 BYTE   PAN   c_v-64
 BYTE   W96
// 001   ----------------------------------------
 BYTE   W96
// 002   ----------------------------------------
 BYTE   W96
// 003   ----------------------------------------
 BYTE   W96
// 004   ----------------------------------------
 BYTE   W96
// 005   ----------------------------------------
 BYTE   W96
// 006   ----------------------------------------
 BYTE   W96
// 007   ----------------------------------------
 BYTE   W96
// 008   ----------------------------------------
 BYTE   TIE  En1  v096
 BYTE   W96
// 009   ----------------------------------------
 BYTE   W92
 BYTE   W03
 BYTE   EOT
 BYTE   W01
// 010   ----------------------------------------
 BYTE   TIE  Dn1
 BYTE   W96
// 011   ----------------------------------------
 BYTE   W92
 BYTE   W03
 BYTE   EOT
 BYTE   W01
// 012   ----------------------------------------
 BYTE   TIE  En1
 BYTE   W96
// 013   ----------------------------------------
 BYTE   W92
 BYTE   W03
 BYTE   EOT
 BYTE   W01
// 014   ----------------------------------------
 BYTE   N92  Dn1
 BYTE   W96
// 015   ----------------------------------------
 BYTE   Cn2
 BYTE   W96
// 016   ----------------------------------------
 BYTE   TIE  Bn1
 BYTE   W96
// 017   ----------------------------------------
 BYTE   W92
 BYTE   W03
 BYTE   EOT
 BYTE   W01
// 018   ----------------------------------------
Label_10_BBACBD:
 BYTE   N11  Bn1  v096
 BYTE   W24
 BYTE   N11
 BYTE   W12
 BYTE   N11
 BYTE   W12
 BYTE   N11
 BYTE   W24
 BYTE   N11
 BYTE   W12
 BYTE   N11
 BYTE   W12
 BYTE   PEND 
// 019   ----------------------------------------
 BYTE   PATT
  POIN2 Label_10_BBACBD
// 020   ----------------------------------------
 BYTE   TIE  En1  v096
 BYTE   W96
// 021   ----------------------------------------
 BYTE   W92
 BYTE   W03
 BYTE   EOT
 BYTE   W01
// 022   ----------------------------------------
 BYTE   TIE  Dn1
 BYTE   W96
// 023   ----------------------------------------
 BYTE   W92
 BYTE   W03
 BYTE   EOT
 BYTE   W01
// 024   ----------------------------------------
 BYTE   TIE  En1
 BYTE   W96
// 025   ----------------------------------------
 BYTE   W92
 BYTE   W03
 BYTE   EOT
 BYTE   W01
// 026   ----------------------------------------
 BYTE   N92  Dn1
 BYTE   W96
// 027   ----------------------------------------
 BYTE   Cn2
 BYTE   W96
// 028   ----------------------------------------
 BYTE   TIE  Bn1
 BYTE   W96
// 029   ----------------------------------------
 BYTE   W92
 BYTE   W03
 BYTE   EOT
 BYTE   W01
// 030   ----------------------------------------
 BYTE   PATT
  POIN2 Label_10_BBACBD
// 031   ----------------------------------------
 BYTE   PATT
  POIN2 Label_10_BBACBD
// 032   ----------------------------------------
 BYTE   W96
// 033   ----------------------------------------
 BYTE   W96
// 034   ----------------------------------------
 BYTE   W96
// 035   ----------------------------------------
 BYTE   W96
// 036   ----------------------------------------
 BYTE   W96
// 037   ----------------------------------------
 BYTE   W96
// 038   ----------------------------------------
 BYTE   W96
// 039   ----------------------------------------
 BYTE   W96
// 040   ----------------------------------------
 BYTE   W96
// 041   ----------------------------------------
 BYTE   W96
// 042   ----------------------------------------
 BYTE   W96
// 043   ----------------------------------------
 BYTE   W96
// 044   ----------------------------------------
 BYTE   W96
// 045   ----------------------------------------
 BYTE   W96
// 046   ----------------------------------------
 BYTE   W96
// 047   ----------------------------------------
 BYTE   W96
// 048   ----------------------------------------
 BYTE   W96
// 049   ----------------------------------------
 BYTE   W96
// 050   ----------------------------------------
 BYTE   W96
// 051   ----------------------------------------
 BYTE   W96
// 052   ----------------------------------------
 BYTE   W96
// 053   ----------------------------------------
 BYTE   W96
// 054   ----------------------------------------
 BYTE   W96
// 055   ----------------------------------------
 BYTE   W96
// 056   ----------------------------------------
 BYTE   W96
// 057   ----------------------------------------
 BYTE   W96
// 058   ----------------------------------------
 BYTE   W96
// 059   ----------------------------------------
 BYTE   W96
// 060   ----------------------------------------
 BYTE   W96
// 061   ----------------------------------------
 BYTE   W96
// 062   ----------------------------------------
 BYTE   W96
// 063   ----------------------------------------
 BYTE   W96
// 064   ----------------------------------------
 BYTE   W96
// 065   ----------------------------------------
 BYTE   W96
// 066   ----------------------------------------
 BYTE   W96
// 067   ----------------------------------------
 BYTE   W96
// 068   ----------------------------------------
 BYTE   GoTo
  POIN2 Label_10_BBAC8D
 BYTE   FINE

//**************** Track 12 (Midi-Chn.11) ****************//

Water_012:
// 000   ----------------------------------------
 BYTE   KEYSH   Water_key+0
Label_11_BBAD29:
 BYTE   VOICE   85
 BYTE   VOL   51*Water_mvl/mxv
 BYTE   PAN   c_v+0
 BYTE   W96
// 001   ----------------------------------------
 BYTE   W96
// 002   ----------------------------------------
 BYTE   W96
// 003   ----------------------------------------
 BYTE   W96
// 004   ----------------------------------------
 BYTE   W96
// 005   ----------------------------------------
 BYTE   W96
// 006   ----------------------------------------
 BYTE   W96
// 007   ----------------------------------------
 BYTE   W96
// 008   ----------------------------------------
 BYTE   W96
// 009   ----------------------------------------
 BYTE   W96
// 010   ----------------------------------------
 BYTE   W96
// 011   ----------------------------------------
 BYTE   W96
// 012   ----------------------------------------
 BYTE   W96
// 013   ----------------------------------------
 BYTE   W96
// 014   ----------------------------------------
 BYTE   W96
// 015   ----------------------------------------
 BYTE   W96
// 016   ----------------------------------------
 BYTE   W96
// 017   ----------------------------------------
 BYTE   W96
// 018   ----------------------------------------
Label_11_BBAD41:
 BYTE   W24
 BYTE   N11  Dn3  v127
 BYTE   W12
 BYTE   En3
 BYTE   W12
 BYTE   Fs3
 BYTE   W12
 BYTE   Gn3
 BYTE   W24
 BYTE   N11
 BYTE   W12
 BYTE   PEND 
// 019   ----------------------------------------
Label_11_BBAD4F:
 BYTE   W12
 BYTE   N11  Gn3  v127
 BYTE   W24
 BYTE   Fs3
 BYTE   W12
 BYTE   N23  Gn3
 BYTE   W24
 BYTE   N11  An3
 BYTE   W24
 BYTE   PEND 
// 020   ----------------------------------------
 BYTE   W96
// 021   ----------------------------------------
 BYTE   W96
// 022   ----------------------------------------
 BYTE   W96
// 023   ----------------------------------------
 BYTE   W96
// 024   ----------------------------------------
 BYTE   W96
// 025   ----------------------------------------
 BYTE   W96
// 026   ----------------------------------------
 BYTE   W96
// 027   ----------------------------------------
 BYTE   W96
// 028   ----------------------------------------
 BYTE   W96
// 029   ----------------------------------------
 BYTE   W96
// 030   ----------------------------------------
 BYTE   PATT
  POIN2 Label_11_BBAD41
// 031   ----------------------------------------
 BYTE   PATT
  POIN2 Label_11_BBAD4F
// 032   ----------------------------------------
 BYTE   W96
// 033   ----------------------------------------
 BYTE   W96
// 034   ----------------------------------------
 BYTE   W96
// 035   ----------------------------------------
 BYTE   W96
// 036   ----------------------------------------
 BYTE   W96
// 037   ----------------------------------------
 BYTE   W96
// 038   ----------------------------------------
 BYTE   W96
// 039   ----------------------------------------
 BYTE   W96
// 040   ----------------------------------------
 BYTE   W96
// 041   ----------------------------------------
 BYTE   W96
// 042   ----------------------------------------
 BYTE   W96
// 043   ----------------------------------------
 BYTE   W96
// 044   ----------------------------------------
 BYTE   W96
// 045   ----------------------------------------
 BYTE   W96
// 046   ----------------------------------------
 BYTE   W96
// 047   ----------------------------------------
 BYTE   W96
// 048   ----------------------------------------
 BYTE   W96
// 049   ----------------------------------------
 BYTE   W96
// 050   ----------------------------------------
 BYTE   W96
// 051   ----------------------------------------
 BYTE   W96
// 052   ----------------------------------------
 BYTE   W96
// 053   ----------------------------------------
 BYTE   W96
// 054   ----------------------------------------
 BYTE   W96
// 055   ----------------------------------------
 BYTE   W96
// 056   ----------------------------------------
 BYTE   W96
// 057   ----------------------------------------
 BYTE   W96
// 058   ----------------------------------------
 BYTE   W96
// 059   ----------------------------------------
 BYTE   W96
// 060   ----------------------------------------
 BYTE   W96
// 061   ----------------------------------------
 BYTE   W96
// 062   ----------------------------------------
 BYTE   W96
// 063   ----------------------------------------
 BYTE   W96
// 064   ----------------------------------------
 BYTE   W96
// 065   ----------------------------------------
 BYTE   W96
// 066   ----------------------------------------
 BYTE   W96
// 067   ----------------------------------------
 BYTE   W96
// 068   ----------------------------------------
 BYTE   GoTo
  POIN2 Label_11_BBAD29
 BYTE   FINE

//**************** Track 13 (Midi-Chn.12) ****************//

Water_013:
// 000   ----------------------------------------
 BYTE   KEYSH   Water_key+0
Label_12_BBAD9D:
 BYTE   VOICE   124
 BYTE   VOL   48*Water_mvl/mxv
 BYTE   N12  Cn1  v127
 BYTE   N96  Cs2
 BYTE   W48
 BYTE   N12  En1
 BYTE   W48
// 001   ----------------------------------------
Label_12_BBADAA:
 BYTE   N12  Cn1  v127
 BYTE   W48
 BYTE   En1
 BYTE   W48
 BYTE   PEND 
// 002   ----------------------------------------
 BYTE   PATT
  POIN2 Label_12_BBADAA
// 003   ----------------------------------------
 BYTE   PATT
  POIN2 Label_12_BBADAA
// 004   ----------------------------------------
 BYTE   PATT
  POIN2 Label_12_BBADAA
// 005   ----------------------------------------
 BYTE   PATT
  POIN2 Label_12_BBADAA
// 006   ----------------------------------------
 BYTE   PATT
  POIN2 Label_12_BBADAA
// 007   ----------------------------------------
Label_12_BBADCA:
 BYTE   N12  Cn1  v127
 BYTE   W48
 BYTE   En1
 BYTE   W12
 BYTE   N12
 BYTE   W12
 BYTE   N12
 BYTE   W12
 BYTE   N12
 BYTE   W12
 BYTE   PEND 
// 008   ----------------------------------------
Label_12_BBADD7:
 BYTE   N12  Cn1  v127
 BYTE   N96  Cs2
 BYTE   W48
 BYTE   N12  En1
 BYTE   W48
 BYTE   PEND 
// 009   ----------------------------------------
 BYTE   PATT
  POIN2 Label_12_BBADAA
// 010   ----------------------------------------
 BYTE   PATT
  POIN2 Label_12_BBADAA
// 011   ----------------------------------------
 BYTE   PATT
  POIN2 Label_12_BBADAA
// 012   ----------------------------------------
 BYTE   PATT
  POIN2 Label_12_BBADAA
// 013   ----------------------------------------
 BYTE   PATT
  POIN2 Label_12_BBADAA
// 014   ----------------------------------------
 BYTE   PATT
  POIN2 Label_12_BBADAA
// 015   ----------------------------------------
 BYTE   PATT
  POIN2 Label_12_BBADAA
// 016   ----------------------------------------
 BYTE   PATT
  POIN2 Label_12_BBADAA
// 017   ----------------------------------------
 BYTE   PATT
  POIN2 Label_12_BBADAA
// 018   ----------------------------------------
Label_12_BBAE0E:
 BYTE   N12  Cn1  v127
 BYTE   W12
 BYTE   Cn2
 BYTE   W12
 BYTE   N12
 BYTE   W24
 BYTE   Cn1
 BYTE   W12
 BYTE   Cn2
 BYTE   W12
 BYTE   N12
 BYTE   W24
 BYTE   PEND 
// 019   ----------------------------------------
Label_12_BBAE1D:
 BYTE   N12  Cn1  v127
 BYTE   W12
 BYTE   Cn2
 BYTE   W12
 BYTE   N12
 BYTE   W12
 BYTE   An1
 BYTE   W12
 BYTE   N12
 BYTE   W12
 BYTE   N12
 BYTE   W12
 BYTE   N12
 BYTE   W12
 BYTE   Gn1
 BYTE   W12
 BYTE   PEND 
// 020   ----------------------------------------
 BYTE   PATT
  POIN2 Label_12_BBADD7
// 021   ----------------------------------------
 BYTE   PATT
  POIN2 Label_12_BBADAA
// 022   ----------------------------------------
 BYTE   PATT
  POIN2 Label_12_BBADAA
// 023   ----------------------------------------
 BYTE   PATT
  POIN2 Label_12_BBADAA
// 024   ----------------------------------------
 BYTE   PATT
  POIN2 Label_12_BBADAA
// 025   ----------------------------------------
 BYTE   PATT
  POIN2 Label_12_BBADAA
// 026   ----------------------------------------
 BYTE   PATT
  POIN2 Label_12_BBADAA
// 027   ----------------------------------------
 BYTE   PATT
  POIN2 Label_12_BBADAA
// 028   ----------------------------------------
 BYTE   PATT
  POIN2 Label_12_BBADAA
// 029   ----------------------------------------
 BYTE   PATT
  POIN2 Label_12_BBADAA
// 030   ----------------------------------------
 BYTE   PATT
  POIN2 Label_12_BBAE0E
// 031   ----------------------------------------
 BYTE   PATT
  POIN2 Label_12_BBAE1D
// 032   ----------------------------------------
 BYTE   PATT
  POIN2 Label_12_BBADD7
// 033   ----------------------------------------
 BYTE   PATT
  POIN2 Label_12_BBADAA
// 034   ----------------------------------------
 BYTE   PATT
  POIN2 Label_12_BBADAA
// 035   ----------------------------------------
 BYTE   PATT
  POIN2 Label_12_BBADAA
// 036   ----------------------------------------
 BYTE   PATT
  POIN2 Label_12_BBADAA
// 037   ----------------------------------------
 BYTE   PATT
  POIN2 Label_12_BBADAA
// 038   ----------------------------------------
 BYTE   PATT
  POIN2 Label_12_BBADAA
// 039   ----------------------------------------
 BYTE   PATT
  POIN2 Label_12_BBADAA
// 040   ----------------------------------------
 BYTE   PATT
  POIN2 Label_12_BBADAA
// 041   ----------------------------------------
 BYTE   PATT
  POIN2 Label_12_BBADAA
// 042   ----------------------------------------
 BYTE   PATT
  POIN2 Label_12_BBADAA
// 043   ----------------------------------------
 BYTE   PATT
  POIN2 Label_12_BBADAA
// 044   ----------------------------------------
 BYTE   PATT
  POIN2 Label_12_BBADAA
// 045   ----------------------------------------
 BYTE   PATT
  POIN2 Label_12_BBADAA
// 046   ----------------------------------------
 BYTE   PATT
  POIN2 Label_12_BBAE0E
// 047   ----------------------------------------
 BYTE   PATT
  POIN2 Label_12_BBAE1D
// 048   ----------------------------------------
 BYTE   PATT
  POIN2 Label_12_BBADD7
// 049   ----------------------------------------
 BYTE   PATT
  POIN2 Label_12_BBADAA
// 050   ----------------------------------------
 BYTE   PATT
  POIN2 Label_12_BBADAA
// 051   ----------------------------------------
 BYTE   PATT
  POIN2 Label_12_BBADAA
// 052   ----------------------------------------
 BYTE   PATT
  POIN2 Label_12_BBADAA
// 053   ----------------------------------------
 BYTE   PATT
  POIN2 Label_12_BBADAA
// 054   ----------------------------------------
 BYTE   PATT
  POIN2 Label_12_BBADAA
// 055   ----------------------------------------
 BYTE   PATT
  POIN2 Label_12_BBADAA
// 056   ----------------------------------------
 BYTE   PATT
  POIN2 Label_12_BBADAA
// 057   ----------------------------------------
 BYTE   PATT
  POIN2 Label_12_BBADAA
// 058   ----------------------------------------
 BYTE   PATT
  POIN2 Label_12_BBADAA
// 059   ----------------------------------------
 BYTE   PATT
  POIN2 Label_12_BBADAA
// 060   ----------------------------------------
 BYTE   PATT
  POIN2 Label_12_BBADAA
// 061   ----------------------------------------
 BYTE   PATT
  POIN2 Label_12_BBADAA
// 062   ----------------------------------------
 BYTE   PATT
  POIN2 Label_12_BBAE0E
// 063   ----------------------------------------
 BYTE   PATT
  POIN2 Label_12_BBAE1D
// 064   ----------------------------------------
 BYTE   PATT
  POIN2 Label_12_BBADD7
// 065   ----------------------------------------
 BYTE   PATT
  POIN2 Label_12_BBADCA
// 066   ----------------------------------------
 BYTE   PATT
  POIN2 Label_12_BBAE0E
// 067   ----------------------------------------
 BYTE   PATT
  POIN2 Label_12_BBAE1D
// 068   ----------------------------------------
 BYTE   GoTo
  POIN2 Label_12_BBAD9D
 BYTE   FINE

//**************** Track 14 (Midi-Chn.13) ****************//

Water_014:
// 000   ----------------------------------------
 BYTE   KEYSH   Water_key+0
Label_13_BBAF28:
 BYTE   VOICE   85
 BYTE   VOL   45*Water_mvl/mxv
 BYTE   PAN   c_v+0
 BYTE   W96
// 001   ----------------------------------------
 BYTE   W96
// 002   ----------------------------------------
 BYTE   W96
// 003   ----------------------------------------
 BYTE   W96
// 004   ----------------------------------------
 BYTE   W96
// 005   ----------------------------------------
 BYTE   W96
// 006   ----------------------------------------
 BYTE   W96
// 007   ----------------------------------------
 BYTE   W96
// 008   ----------------------------------------
 BYTE   N92  En3  v127
 BYTE   W96
// 009   ----------------------------------------
Label_13_BBAF3A:
 BYTE   N68  Bn3  v127
 BYTE   W72
 BYTE   N11  An3
 BYTE   W12
 BYTE   Bn3
 BYTE   W12
 BYTE   PEND 
// 010   ----------------------------------------
Label_13_BBAF44:
 BYTE   N68  An3  v127
 BYTE   W72
 BYTE   N23  Gn3
 BYTE   W24
 BYTE   PEND 
// 011   ----------------------------------------
Label_13_BBAF4C:
 BYTE   N32  Fs3  v127
 BYTE   W36
 BYTE   Gn3
 BYTE   W36
 BYTE   N23  An3
 BYTE   W24
 BYTE   PEND 
// 012   ----------------------------------------
 BYTE   N92  En3
 BYTE   W96
// 013   ----------------------------------------
 BYTE   PATT
  POIN2 Label_13_BBAF3A
// 014   ----------------------------------------
 BYTE   PATT
  POIN2 Label_13_BBAF44
// 015   ----------------------------------------
Label_13_BBAF63:
 BYTE   N32  Cn3  v127
 BYTE   W36
 BYTE   En3
 BYTE   W36
 BYTE   N23  Gn3
 BYTE   W24
 BYTE   PEND 
// 016   ----------------------------------------
 BYTE   TIE  Fs3
 BYTE   W96
// 017   ----------------------------------------
 BYTE   W92
 BYTE   W03
 BYTE   EOT
 BYTE   W01
// 018   ----------------------------------------
 BYTE   W96
// 019   ----------------------------------------
 BYTE   W96
// 020   ----------------------------------------
 BYTE   N92  En3
 BYTE   W96
// 021   ----------------------------------------
 BYTE   PATT
  POIN2 Label_13_BBAF3A
// 022   ----------------------------------------
 BYTE   PATT
  POIN2 Label_13_BBAF44
// 023   ----------------------------------------
 BYTE   PATT
  POIN2 Label_13_BBAF4C
// 024   ----------------------------------------
 BYTE   N92  En3  v127
 BYTE   W96
// 025   ----------------------------------------
 BYTE   PATT
  POIN2 Label_13_BBAF3A
// 026   ----------------------------------------
 BYTE   PATT
  POIN2 Label_13_BBAF44
// 027   ----------------------------------------
 BYTE   PATT
  POIN2 Label_13_BBAF63
// 028   ----------------------------------------
 BYTE   TIE  Fs3  v127
 BYTE   W96
// 029   ----------------------------------------
 BYTE   W92
 BYTE   W03
 BYTE   EOT
 BYTE   W01
// 030   ----------------------------------------
 BYTE   W96
// 031   ----------------------------------------
 BYTE   W96
// 032   ----------------------------------------
 BYTE   W96
// 033   ----------------------------------------
 BYTE   W96
// 034   ----------------------------------------
 BYTE   W96
// 035   ----------------------------------------
 BYTE   W96
// 036   ----------------------------------------
 BYTE   W96
// 037   ----------------------------------------
 BYTE   W96
// 038   ----------------------------------------
 BYTE   W96
// 039   ----------------------------------------
 BYTE   W96
// 040   ----------------------------------------
 BYTE   W96
// 041   ----------------------------------------
 BYTE   W96
// 042   ----------------------------------------
 BYTE   W96
// 043   ----------------------------------------
 BYTE   W96
// 044   ----------------------------------------
 BYTE   W96
// 045   ----------------------------------------
 BYTE   W96
// 046   ----------------------------------------
 BYTE   W96
// 047   ----------------------------------------
 BYTE   W96
// 048   ----------------------------------------
 BYTE   W96
// 049   ----------------------------------------
 BYTE   W96
// 050   ----------------------------------------
 BYTE   W96
// 051   ----------------------------------------
 BYTE   W96
// 052   ----------------------------------------
 BYTE   W96
// 053   ----------------------------------------
 BYTE   W96
// 054   ----------------------------------------
 BYTE   W96
// 055   ----------------------------------------
 BYTE   W96
// 056   ----------------------------------------
 BYTE   W96
// 057   ----------------------------------------
 BYTE   W96
// 058   ----------------------------------------
 BYTE   W96
// 059   ----------------------------------------
 BYTE   W96
// 060   ----------------------------------------
 BYTE   W96
// 061   ----------------------------------------
 BYTE   W96
// 062   ----------------------------------------
 BYTE   W96
// 063   ----------------------------------------
 BYTE   W96
// 064   ----------------------------------------
 BYTE   W96
// 065   ----------------------------------------
 BYTE   W96
// 066   ----------------------------------------
 BYTE   W96
// 067   ----------------------------------------
 BYTE   W96
// 068   ----------------------------------------
 BYTE   GoTo
  POIN2 Label_13_BBAF28
 BYTE   FINE

//******************************************************//
	ALIGN 4

Water:
	BYTE	14	// NumTrks
	BYTE	0	// NumBlks
	BYTE	Water_pri	// Priority
	BYTE	Water_rev	// Reverb.
    
	POIN2	Water_grp
    
	POIN2	Water_001
	POIN2	Water_002
	POIN2	Water_003
	POIN2	Water_004
	POIN2	Water_005
	POIN2	Water_006
	POIN2	Water_007
	POIN2	Water_008
	POIN2	Water_009
	POIN2	Water_010
	POIN2	Water_011
	POIN2	Water_012
	POIN2	Water_013
	POIN2	Water_014

	
