//Event file generated from Sappy .s format.
	#include "MPlayDef.event"

	#define	WhenMotherWasThere_grp  voicegroup000
	#define	WhenMotherWasThere_pri  0
	#define	WhenMotherWasThere_rev  0
	#define	WhenMotherWasThere_mvl  127
	#define	WhenMotherWasThere_key  0
	#define	WhenMotherWasThere_tbs  1
	#define	WhenMotherWasThere_exg  0
	#define	WhenMotherWasThere_cmp  1

	// .rodata
	//	WhenMotherWasThere
	ALIGN 4


//**************** Track 1 (Midi-Chn.0) ****************//

WhenMotherWasThere_001:
//  #01 //000   ----------------------------------------
 BYTE   KEYSH   WhenMotherWasThere_key+0
 BYTE   TEMPO   102*WhenMotherWasThere_tbs/2
 BYTE   VOICE   30
 BYTE   VOL   40*WhenMotherWasThere_mvl/mxv
 BYTE   PAN   c_v+2
 BYTE   VOL   40*WhenMotherWasThere_mvl/mxv
 BYTE   PAN   c_v+0
 BYTE   W96
//  #01 //001   ----------------------------------------
 BYTE   W96
//  #01 //002   ----------------------------------------
 BYTE   W96
//  #01 //003   ----------------------------------------
 BYTE   W96
//  #01 //004   ----------------------------------------
 BYTE   W96
//  #01 //005   ----------------------------------------
 BYTE   W96
//  #01 //006   ----------------------------------------
 BYTE   W96
//  #01 //007   ----------------------------------------
 BYTE   W96
//  #01 //008   ----------------------------------------
 BYTE   W96
//  #01 //009   ----------------------------------------
 BYTE   W96
//  #01 //010   ----------------------------------------
 BYTE   W96
//  #01 //011   ----------------------------------------
 BYTE   W96
//  #01 //012   ----------------------------------------
 BYTE   W96
//  #01 //013   ----------------------------------------
 BYTE   W96
//  #01 //014   ----------------------------------------
 BYTE   W96
//  #01 //015   ----------------------------------------
 BYTE   W96
//  #01 //016   ----------------------------------------
Label_010052D2:
 BYTE   N02  Dn3  v096
 BYTE   W02
 BYTE   N03  En3
 BYTE   W04
 BYTE   N05  Gn3
 BYTE   W06
 BYTE   N05
 BYTE   W06
 BYTE   En3
 BYTE   W06
 BYTE   Gn3
 BYTE   W12
 BYTE   N02
 BYTE   W02
 BYTE   N09  An3
 BYTE   W10
 BYTE   N44  En3
 BYTE   W48
 BYTE   PEND 
//  #01 //017   ----------------------------------------
 BYTE   W12
 BYTE   N02  Dn3
 BYTE   W02
 BYTE   N09  En3
 BYTE   W10
 BYTE   N05  Gn3
 BYTE   W06
 BYTE   N05
 BYTE   W06
 BYTE   Gn3  v004
 BYTE   W06
 BYTE   En3  v096
 BYTE   W12
 BYTE   Gn3
 BYTE   W06
 BYTE   N11  An3
 BYTE   W12
 BYTE   N05  En3
 BYTE   W12
 BYTE   Dn3
 BYTE   W06
 BYTE   Cn3
 BYTE   W06
//  #01 //018   ----------------------------------------
 BYTE   N68  Bn2
 BYTE   W84
 BYTE   N05
 BYTE   W06
 BYTE   Cn3
 BYTE   W06
//  #01 //019   ----------------------------------------
 BYTE   N11  Bn2
 BYTE   W12
 BYTE   N23  Gn2
 BYTE   W24
 BYTE   N02
 BYTE   W02
 BYTE   N44  An2
 BYTE   W56
 BYTE   W02
//  #01 //020   ----------------------------------------
 BYTE   PATT
  POIN2 Label_010052D2
//  #01 //021   ----------------------------------------
 BYTE   W24
 BYTE   N05  En3  v096
 BYTE   W06
 BYTE   Gn3
 BYTE   W12
 BYTE   An3
 BYTE   W12
 BYTE   BEND   c_v+0
 BYTE   N28  Bn3
 BYTE   W01
 BYTE   BEND   c_v+1
 BYTE   W01
 BYTE   BEND   c_v+2
 BYTE   W01
 BYTE   BEND   c_v+3
 BYTE   W01
 BYTE   BEND   c_v+5
 BYTE   W18
 BYTE   BEND   c_v+5
 BYTE   W01
 BYTE   BEND   c_v+4
 BYTE   W01
 BYTE   BEND   c_v+3
 BYTE   W01
 BYTE   BEND   c_v+2
 BYTE   W01
 BYTE   BEND   c_v+2
 BYTE   W01
 BYTE   BEND   c_v+1
 BYTE   W01
 BYTE   BEND   c_v+0
 BYTE   W01
 BYTE   BEND   c_v+0
 BYTE   W01
 BYTE   BEND   c_v+0
 BYTE   N11  An3
 BYTE   W12
//  #01 //022   ----------------------------------------
 BYTE   N17
 BYTE   W18
 BYTE   N02
 BYTE   W02
 BYTE   N72  Bn3
 BYTE   W76
//  #01 //023   ----------------------------------------
 BYTE   W84
 BYTE   N05  Gn3
 BYTE   W12
//  #01 //024   ----------------------------------------
Label_01005357:
 BYTE   N23  An3  v096
 BYTE   W24
 BYTE   Bn3
 BYTE   W24
 BYTE   Cn4
 BYTE   W24
 BYTE   N05  Dn4
 BYTE   W12
 BYTE   N44  An3
 BYTE   W12
 BYTE   PEND 
//  #01 //025   ----------------------------------------
 BYTE   W36
 BYTE   N05
 BYTE   W12
 BYTE   N02  Dn4
 BYTE   W02
 BYTE   N15  En4
 BYTE   W16
 BYTE   N17  Dn4
 BYTE   W18
 BYTE   N11  Cn4
 BYTE   W12
//  #01 //026   ----------------------------------------
 BYTE   N68  Bn3
 BYTE   W84
 BYTE   N05
 BYTE   W06
 BYTE   Cn4
 BYTE   W06
//  #01 //027   ----------------------------------------
 BYTE   N11  Bn3
 BYTE   W12
 BYTE   Gn3
 BYTE   W12
 BYTE   N11
 BYTE   W12
 BYTE   N05  En3
 BYTE   W12
 BYTE   N17  Gn3
 BYTE   W18
 BYTE   N02
 BYTE   W02
 BYTE   N15  An3
 BYTE   W16
 BYTE   N11  Gn3
 BYTE   W12
//  #01 //028   ----------------------------------------
 BYTE   PATT
  POIN2 Label_01005357
//  #01 //029   ----------------------------------------
 BYTE   W36
 BYTE   N05  An3  v096
 BYTE   W12
 BYTE   N17  Gn4
 BYTE   W18
 BYTE   Fn4
 BYTE   W18
 BYTE   TIE  En4
 BYTE   W12
//  #01 //030   ----------------------------------------
 BYTE   W92
 BYTE   W03
 BYTE   EOT
 BYTE   W01
//  #01 //031   ----------------------------------------
 BYTE   W96
//  #01 //032   ----------------------------------------
 BYTE   N05  Dn4
 BYTE   W06
 BYTE   N08  En4
 BYTE   W18
 BYTE   Cn4
 BYTE   W18
 BYTE   N17  Bn3
 BYTE   W18
 BYTE   Gn3
 BYTE   W18
 BYTE   N17
 BYTE   W18
//  #01 //033   ----------------------------------------
Label_010053B7:
 BYTE   N05  Dn4  v096
 BYTE   W06
 BYTE   N08  En4
 BYTE   W18
 BYTE   Cn4
 BYTE   W18
 BYTE   N17  Bn3
 BYTE   W18
 BYTE   N02  Cn4
 BYTE   W02
 BYTE   N15  Dn4
 BYTE   W16
 BYTE   N17  Cn4
 BYTE   W18
 BYTE   PEND 
//  #01 //034   ----------------------------------------
 BYTE   N92  Bn3
 BYTE   W96
//  #01 //035   ----------------------------------------
Label_010053D0:
 BYTE   N05  Dn4  v096
 BYTE   W06
 BYTE   N08  En4
 BYTE   W18
 BYTE   N05  Cn4
 BYTE   W12
 BYTE   Gn3
 BYTE   W12
 BYTE   N11
 BYTE   W12
 BYTE   An3
 BYTE   W12
 BYTE   Bn3
 BYTE   W12
 BYTE   Cn4
 BYTE   W12
 BYTE   PEND 
//  #01 //036   ----------------------------------------
 BYTE   N02  Dn4
 BYTE   W03
 BYTE   Ds4
 BYTE   W03
 BYTE   N08  En4
 BYTE   W90
//  #01 //037   ----------------------------------------
 BYTE   PATT
  POIN2 Label_010053B7
//  #01 //038   ----------------------------------------
 BYTE   N92  Bn3  v096
 BYTE   W96
//  #01 //039   ----------------------------------------
 BYTE   W24
 BYTE   N05  Gn4
 BYTE   W06
 BYTE   Fn4
 BYTE   W06
 BYTE   N02  En4
 BYTE   W02
 BYTE   N03  Fn4
 BYTE   W04
 BYTE   N05
 BYTE   W06
 BYTE   N02  En4
 BYTE   W02
 BYTE   N03  Fn4
 BYTE   W04
 BYTE   N05  En4
 BYTE   W06
 BYTE   Dn4
 BYTE   W06
 BYTE   Cn4
 BYTE   W06
 BYTE   Bn3
 BYTE   W06
 BYTE   Cn4
 BYTE   W06
 BYTE   Bn3
 BYTE   W06
 BYTE   Gn3
 BYTE   W06
//  #01 //040   ----------------------------------------
 BYTE   N02
 BYTE   W03
 BYTE   Gs3
 BYTE   W03
 BYTE   N17  An3
 BYTE   W18
 BYTE   N23
 BYTE   W60
 BYTE   N05
 BYTE   W06
 BYTE   Bn3
 BYTE   W06
//  #01 //041   ----------------------------------------
 BYTE   Cn4
 BYTE   W06
 BYTE   Bn3
 BYTE   W06
 BYTE   Cn4
 BYTE   W06
 BYTE   N02
 BYTE   W02
 BYTE   N09  Dn4
 BYTE   W10
 BYTE   N08  Cn4
 BYTE   W09
 BYTE   Bn3
 BYTE   W09
 BYTE   Cn4
 BYTE   W09
 BYTE   N02  Bn3
 BYTE   W02
 BYTE   Cn4
 BYTE   W02
 BYTE   N28  Bn3
 BYTE   W32
 BYTE   W03
//  #01 //042   ----------------------------------------
 BYTE   W16
 BYTE   N07  Gn3  v064
 BYTE   W08
 BYTE   N07
 BYTE   W08
 BYTE   En3
 BYTE   W08
 BYTE   N07
 BYTE   W08
 BYTE   N07
 BYTE   W08
 BYTE   Cn3
 BYTE   W08
 BYTE   N07
 BYTE   W08
 BYTE   Bn2
 BYTE   W08
 BYTE   Gn2
 BYTE   W08
 BYTE   Bn2
 BYTE   W08
//  #01 //043   ----------------------------------------
 BYTE   N05
 BYTE   W06
 BYTE   Cn3
 BYTE   W06
 BYTE   N11  Bn2
 BYTE   W84
//  #01 //044   ----------------------------------------
 BYTE   N07  Gn3
 BYTE   W08
 BYTE   N07
 BYTE   W08
 BYTE   N15  En3
 BYTE   W16
 BYTE   N07
 BYTE   W08
 BYTE   N13  Cn3
 BYTE   W14
 BYTE   N05
 BYTE   W06
 BYTE   N11  Bn2
 BYTE   W12
 BYTE   Cn3
 BYTE   W12
 BYTE   N05  Bn2
 BYTE   W06
 BYTE   Gn2
 BYTE   W06
//  #01 //045   ----------------------------------------
 BYTE   N02
 BYTE   W02
 BYTE   N21  An2
 BYTE   W22
 BYTE   N23
 BYTE   W72
//  #01 //046   ----------------------------------------
 BYTE   N05  Dn3
 BYTE   W06
 BYTE   Cn3
 BYTE   W12
 BYTE   N05
 BYTE   W06
 BYTE   N05
 BYTE   W06
 BYTE   Bn2
 BYTE   W12
 BYTE   N17
 BYTE   W30
 BYTE   N02  Ds3  v096
 BYTE   W02
 BYTE   N09  En3
 BYTE   W10
 BYTE   N11  Gn3
 BYTE   W12
//  #01 //047   ----------------------------------------
 BYTE   BEND   c_v+1
 BYTE   N92  An3
 BYTE   W01
 BYTE   BEND   c_v+2
 BYTE   W01
 BYTE   BEND   c_v+3
 BYTE   W01
 BYTE   BEND   c_v+4
 BYTE   W01
 BYTE   BEND   c_v+6
 BYTE   W01
 BYTE   BEND   c_v+7
 BYTE   W01
 BYTE   BEND   c_v+8
 BYTE   W01
 BYTE   BEND   c_v+9
 BYTE   W01
 BYTE   BEND   c_v+10
 BYTE   W56
 BYTE   BEND   c_v+10
 BYTE   W01
 BYTE   BEND   c_v+10
 BYTE   W01
 BYTE   BEND   c_v+10
 BYTE   W01
 BYTE   BEND   c_v+10
 BYTE   W01
 BYTE   BEND   c_v+9
 BYTE   W01
 BYTE   BEND   c_v+9
 BYTE   W01
 BYTE   BEND   c_v+9
 BYTE   W01
 BYTE   BEND   c_v+9
 BYTE   W01
 BYTE   BEND   c_v+9
 BYTE   W01
 BYTE   BEND   c_v+9
 BYTE   W01
 BYTE   BEND   c_v+8
 BYTE   W01
 BYTE   BEND   c_v+8
 BYTE   W01
 BYTE   BEND   c_v+8
 BYTE   W01
 BYTE   BEND   c_v+8
 BYTE   W01
 BYTE   BEND   c_v+8
 BYTE   W01
 BYTE   BEND   c_v+8
 BYTE   W01
 BYTE   BEND   c_v+7
 BYTE   W01
 BYTE   BEND   c_v+7
 BYTE   W01
 BYTE   BEND   c_v+7
 BYTE   W01
 BYTE   BEND   c_v+7
 BYTE   W01
 BYTE   BEND   c_v+7
 BYTE   W01
 BYTE   BEND   c_v+7
 BYTE   W01
 BYTE   BEND   c_v+6
 BYTE   W01
 BYTE   BEND   c_v+6
 BYTE   W01
 BYTE   BEND   c_v+6
 BYTE   W01
 BYTE   BEND   c_v+6
 BYTE   W01
 BYTE   BEND   c_v+6
 BYTE   W01
 BYTE   BEND   c_v+6
 BYTE   W01
 BYTE   BEND   c_v+5
 BYTE   W01
 BYTE   BEND   c_v+5
 BYTE   W01
 BYTE   BEND   c_v+5
 BYTE   W01
 BYTE   BEND   c_v+5
 BYTE   W01
//  #01 //048   ----------------------------------------
Label_010054EC:
 BYTE   BEND   c_v+0
 BYTE   W96
//  #01 //049   ----------------------------------------
 BYTE   W96
//  #01 //050   ----------------------------------------
 BYTE   W96
//  #01 //051   ----------------------------------------
 BYTE   W96
//  #01 //052   ----------------------------------------
 BYTE   W96
//  #01 //053   ----------------------------------------
 BYTE   W96
//  #01 //054   ----------------------------------------
 BYTE   W96
//  #01 //055   ----------------------------------------
 BYTE   W96
//  #01 //056   ----------------------------------------
 BYTE   W96
//  #01 //057   ----------------------------------------
 BYTE   W96
//  #01 //058   ----------------------------------------
 BYTE   W96
//  #01 //059   ----------------------------------------
 BYTE   W96
//  #01 //060   ----------------------------------------
 BYTE   W96
//  #01 //061   ----------------------------------------
 BYTE   W96
//  #01 //062   ----------------------------------------
 BYTE   W96
//  #01 //063   ----------------------------------------
 BYTE   W96
//  #01 //064   ----------------------------------------
 BYTE   W96
//  #01 //065   ----------------------------------------
 BYTE   W96
//  #01 //066   ----------------------------------------
 BYTE   W96
//  #01 //067   ----------------------------------------
 BYTE   W96
//  #01 //068   ----------------------------------------
 BYTE   W96
//  #01 //069   ----------------------------------------
 BYTE   W96
//  #01 //070   ----------------------------------------
 BYTE   W96
//  #01 //071   ----------------------------------------
 BYTE   W96
//  #01 //072   ----------------------------------------
 BYTE   W96
//  #01 //073   ----------------------------------------
 BYTE   W96
//  #01 //074   ----------------------------------------
 BYTE   W96
//  #01 //075   ----------------------------------------
 BYTE   W96
//  #01 //076   ----------------------------------------
 BYTE   W96
//  #01 //077   ----------------------------------------
 BYTE   W96
//  #01 //078   ----------------------------------------
 BYTE   W96
//  #01 //079   ----------------------------------------
 BYTE   W96
//  #01 //080   ----------------------------------------
Label_0100550E:
 BYTE   N05  Dn4  v096
 BYTE   W06
 BYTE   N08  En4
 BYTE   W18
 BYTE   Cn4
 BYTE   W18
 BYTE   N17  Bn3
 BYTE   W18
 BYTE   N32  Gn3
 BYTE   W36
 BYTE   PEND 
//  #01 //081   ----------------------------------------
 BYTE   PATT
  POIN2 Label_010053B7
//  #01 //082   ----------------------------------------
 BYTE   N92  Bn3  v096
 BYTE   W96
//  #01 //083   ----------------------------------------
 BYTE   PATT
  POIN2 Label_010053D0
//  #01 //084   ----------------------------------------
Label_0100552C:
 BYTE   N02  Dn4  v096
 BYTE   W03
 BYTE   Ds4
 BYTE   W03
 BYTE   N08  En4
 BYTE   W18
 BYTE   Cn4  v060
 BYTE   W18
 BYTE   N17  Bn3
 BYTE   W18
 BYTE   N32  Gn3
 BYTE   W36
 BYTE   PEND 
//  #01 //085   ----------------------------------------
 BYTE   PATT
  POIN2 Label_010053B7
//  #01 //086   ----------------------------------------
 BYTE   W96
//  #01 //087   ----------------------------------------
 BYTE   W96
//  #01 //088   ----------------------------------------
 BYTE   PATT
  POIN2 Label_0100550E
//  #01 //089   ----------------------------------------
 BYTE   PATT
  POIN2 Label_010053B7
//  #01 //090   ----------------------------------------
 BYTE   N92  Bn3  v096
 BYTE   W96
//  #01 //091   ----------------------------------------
 BYTE   PATT
  POIN2 Label_010053D0
//  #01 //092   ----------------------------------------
 BYTE   PATT
  POIN2 Label_0100552C
//  #01 //093   ----------------------------------------
 BYTE   PATT
  POIN2 Label_010053B7
//  #01 //094   ----------------------------------------
 BYTE   W96
//  #01 //095   ----------------------------------------
 BYTE   W96
//  #01 //096   ----------------------------------------
 BYTE   GoTo
  POIN2 Label_010054EC
//  #01 //097   ----------------------------------------
 BYTE   W96
//  #01 //098   ----------------------------------------
 BYTE   W96
//  #01 //099   ----------------------------------------
 BYTE   W96
//  #01 //100   ----------------------------------------
 BYTE   W96
//  #01 //101   ----------------------------------------
 BYTE   W96
//  #01 //102   ----------------------------------------
 BYTE   W96
 BYTE   FINE

//**************** Track 2 (Midi-Chn.1) ****************//

WhenMotherWasThere_002:
//  #02 //000   ----------------------------------------
 BYTE   KEYSH   WhenMotherWasThere_key+0
 BYTE   VOICE   74
 BYTE   VOL   42*WhenMotherWasThere_mvl/mxv
 BYTE   PAN   c_v+0
 BYTE   VOL   40*WhenMotherWasThere_mvl/mxv
 BYTE   PAN   c_v+2
 BYTE   N05  Dn3  v072
 BYTE   N05  Dn4
 BYTE   W06
 BYTE   N08  En3
 BYTE   N08  En4
 BYTE   W18
 BYTE   Cn3
 BYTE   N08  Cn4
 BYTE   W18
 BYTE   N17  Bn2
 BYTE   N17  Bn3
 BYTE   W18
 BYTE   N32  Gn2
 BYTE   N32  Gn3
 BYTE   W36
//  #02 //001   ----------------------------------------
Label_018C75A1:
 BYTE   N05  Dn3  v072
 BYTE   N05  Dn4
 BYTE   W06
 BYTE   N08  En3
 BYTE   N08  En4
 BYTE   W18
 BYTE   Cn3
 BYTE   N08  Cn4
 BYTE   W18
 BYTE   N17  Bn2
 BYTE   N17  Bn3
 BYTE   W18
 BYTE   N32  Gn2
 BYTE   N32  Gn3
 BYTE   W36
 BYTE   PEND 
//  #02 //002   ----------------------------------------
 BYTE   PATT
  POIN2 Label_018C75A1
//  #02 //003   ----------------------------------------
 BYTE   PATT
  POIN2 Label_018C75A1
//  #02 //004   ----------------------------------------
 BYTE   PATT
  POIN2 Label_018C75A1
//  #02 //005   ----------------------------------------
 BYTE   PATT
  POIN2 Label_018C75A1
//  #02 //006   ----------------------------------------
 BYTE   PATT
  POIN2 Label_018C75A1
//  #02 //007   ----------------------------------------
 BYTE   PATT
  POIN2 Label_018C75A1
//  #02 //008   ----------------------------------------
 BYTE   PATT
  POIN2 Label_018C75A1
//  #02 //009   ----------------------------------------
 BYTE   PATT
  POIN2 Label_018C75A1
//  #02 //010   ----------------------------------------
 BYTE   PATT
  POIN2 Label_018C75A1
//  #02 //011   ----------------------------------------
 BYTE   PATT
  POIN2 Label_018C75A1
//  #02 //012   ----------------------------------------
 BYTE   PATT
  POIN2 Label_018C75A1
//  #02 //013   ----------------------------------------
 BYTE   PATT
  POIN2 Label_018C75A1
//  #02 //014   ----------------------------------------
 BYTE   PATT
  POIN2 Label_018C75A1
//  #02 //015   ----------------------------------------
 BYTE   PATT
  POIN2 Label_018C75A1
//  #02 //016   ----------------------------------------
 BYTE   W96
//  #02 //017   ----------------------------------------
 BYTE   W96
//  #02 //018   ----------------------------------------
 BYTE   W96
//  #02 //019   ----------------------------------------
 BYTE   W96
//  #02 //020   ----------------------------------------
 BYTE   W96
//  #02 //021   ----------------------------------------
 BYTE   W96
//  #02 //022   ----------------------------------------
 BYTE   W96
//  #02 //023   ----------------------------------------
 BYTE   W96
//  #02 //024   ----------------------------------------
 BYTE   W96
//  #02 //025   ----------------------------------------
 BYTE   W96
//  #02 //026   ----------------------------------------
 BYTE   W96
//  #02 //027   ----------------------------------------
 BYTE   W96
//  #02 //028   ----------------------------------------
 BYTE   W96
//  #02 //029   ----------------------------------------
 BYTE   W96
//  #02 //030   ----------------------------------------
 BYTE   W96
//  #02 //031   ----------------------------------------
 BYTE   W96
//  #02 //032   ----------------------------------------
 BYTE   W96
//  #02 //033   ----------------------------------------
 BYTE   W96
//  #02 //034   ----------------------------------------
 BYTE   W96
//  #02 //035   ----------------------------------------
 BYTE   W96
//  #02 //036   ----------------------------------------
 BYTE   W96
//  #02 //037   ----------------------------------------
 BYTE   W96
//  #02 //038   ----------------------------------------
 BYTE   W96
//  #02 //039   ----------------------------------------
 BYTE   W96
//  #02 //040   ----------------------------------------
 BYTE   W96
//  #02 //041   ----------------------------------------
 BYTE   W96
//  #02 //042   ----------------------------------------
 BYTE   W96
//  #02 //043   ----------------------------------------
 BYTE   W96
//  #02 //044   ----------------------------------------
 BYTE   W96
//  #02 //045   ----------------------------------------
 BYTE   W96
//  #02 //046   ----------------------------------------
 BYTE   W96
//  #02 //047   ----------------------------------------
 BYTE   W96
//  #02 //048   ----------------------------------------
Label_018C7621:
 BYTE   W96
//  #02 //049   ----------------------------------------
 BYTE   W96
//  #02 //050   ----------------------------------------
 BYTE   W96
//  #02 //051   ----------------------------------------
 BYTE   W96
//  #02 //052   ----------------------------------------
 BYTE   W96
//  #02 //053   ----------------------------------------
 BYTE   W96
//  #02 //054   ----------------------------------------
 BYTE   W96
//  #02 //055   ----------------------------------------
 BYTE   W96
//  #02 //056   ----------------------------------------
 BYTE   W96
//  #02 //057   ----------------------------------------
 BYTE   W96
//  #02 //058   ----------------------------------------
 BYTE   W96
//  #02 //059   ----------------------------------------
 BYTE   W96
//  #02 //060   ----------------------------------------
 BYTE   W96
//  #02 //061   ----------------------------------------
 BYTE   W96
//  #02 //062   ----------------------------------------
 BYTE   W96
//  #02 //063   ----------------------------------------
 BYTE   W96
//  #02 //064   ----------------------------------------
 BYTE   W96
//  #02 //065   ----------------------------------------
 BYTE   W96
//  #02 //066   ----------------------------------------
 BYTE   W96
//  #02 //067   ----------------------------------------
 BYTE   W96
//  #02 //068   ----------------------------------------
 BYTE   W96
//  #02 //069   ----------------------------------------
 BYTE   W96
//  #02 //070   ----------------------------------------
 BYTE   W96
//  #02 //071   ----------------------------------------
 BYTE   W96
//  #02 //072   ----------------------------------------
 BYTE   W96
//  #02 //073   ----------------------------------------
 BYTE   W96
//  #02 //074   ----------------------------------------
 BYTE   W96
//  #02 //075   ----------------------------------------
 BYTE   W96
//  #02 //076   ----------------------------------------
 BYTE   W96
//  #02 //077   ----------------------------------------
 BYTE   W96
//  #02 //078   ----------------------------------------
 BYTE   W96
//  #02 //079   ----------------------------------------
 BYTE   W96
//  #02 //080   ----------------------------------------
 BYTE   W96
//  #02 //081   ----------------------------------------
 BYTE   W96
//  #02 //082   ----------------------------------------
 BYTE   W96
//  #02 //083   ----------------------------------------
 BYTE   W96
//  #02 //084   ----------------------------------------
 BYTE   W96
//  #02 //085   ----------------------------------------
 BYTE   W96
//  #02 //086   ----------------------------------------
 BYTE   W96
//  #02 //087   ----------------------------------------
 BYTE   W96
//  #02 //088   ----------------------------------------
 BYTE   W96
//  #02 //089   ----------------------------------------
 BYTE   W96
//  #02 //090   ----------------------------------------
 BYTE   W96
//  #02 //091   ----------------------------------------
 BYTE   W96
//  #02 //092   ----------------------------------------
 BYTE   W96
//  #02 //093   ----------------------------------------
 BYTE   W96
//  #02 //094   ----------------------------------------
 BYTE   W96
//  #02 //095   ----------------------------------------
 BYTE   W96
//  #02 //096   ----------------------------------------
 BYTE   GoTo
  POIN2 Label_018C7621
//  #02 //097   ----------------------------------------
 BYTE   W96
//  #02 //098   ----------------------------------------
 BYTE   W96
//  #02 //099   ----------------------------------------
 BYTE   W96
//  #02 //100   ----------------------------------------
 BYTE   W96
//  #02 //101   ----------------------------------------
 BYTE   W96
//  #02 //102   ----------------------------------------
 BYTE   W96
 BYTE   FINE

//**************** Track 3 (Midi-Chn.2) ****************//

WhenMotherWasThere_003:
//  #03 //000   ----------------------------------------
 BYTE   KEYSH   WhenMotherWasThere_key+0
 BYTE   VOICE   52
 BYTE   VOL   41*WhenMotherWasThere_mvl/mxv
 BYTE   PAN   c_v+0
 BYTE   VOL   40*WhenMotherWasThere_mvl/mxv
 BYTE   PAN   c_v+2
 BYTE   W96
//  #03 //001   ----------------------------------------
 BYTE   W96
//  #03 //002   ----------------------------------------
 BYTE   W96
//  #03 //003   ----------------------------------------
 BYTE   W96
//  #03 //004   ----------------------------------------
 BYTE   W96
//  #03 //005   ----------------------------------------
 BYTE   W96
//  #03 //006   ----------------------------------------
 BYTE   W96
//  #03 //007   ----------------------------------------
 BYTE   W96
//  #03 //008   ----------------------------------------
 BYTE   W96
//  #03 //009   ----------------------------------------
 BYTE   W96
//  #03 //010   ----------------------------------------
 BYTE   W96
//  #03 //011   ----------------------------------------
 BYTE   W96
//  #03 //012   ----------------------------------------
 BYTE   W96
//  #03 //013   ----------------------------------------
 BYTE   W96
//  #03 //014   ----------------------------------------
 BYTE   W96
//  #03 //015   ----------------------------------------
 BYTE   W96
//  #03 //016   ----------------------------------------
 BYTE   W96
//  #03 //017   ----------------------------------------
 BYTE   W96
//  #03 //018   ----------------------------------------
 BYTE   W96
//  #03 //019   ----------------------------------------
 BYTE   W96
//  #03 //020   ----------------------------------------
 BYTE   W96
//  #03 //021   ----------------------------------------
 BYTE   W96
//  #03 //022   ----------------------------------------
 BYTE   W96
//  #03 //023   ----------------------------------------
 BYTE   W84
 BYTE   N05  Gn3  v052
 BYTE   W12
//  #03 //024   ----------------------------------------
Label_018C7138:
 BYTE   N23  En3  v052
 BYTE   N23  An3
 BYTE   W24
 BYTE   Gn3
 BYTE   N23  Bn3
 BYTE   W24
 BYTE   An3
 BYTE   N23  Cn4
 BYTE   W24
 BYTE   N05  Bn3
 BYTE   N05  Dn4
 BYTE   W12
 BYTE   N32  En3
 BYTE   N32  An3
 BYTE   W12
 BYTE   PEND 
//  #03 //025   ----------------------------------------
Label_018C7151:
 BYTE   W24
 BYTE   N23  Gn3  v052
 BYTE   N23  Bn3
 BYTE   W24
 BYTE   An3
 BYTE   N23  Cn4
 BYTE   W24
 BYTE   Bn3
 BYTE   N23  Dn4
 BYTE   W24
 BYTE   PEND 
//  #03 //026   ----------------------------------------
 BYTE   PATT
  POIN2 Label_018C7138
//  #03 //027   ----------------------------------------
 BYTE   PATT
  POIN2 Label_018C7151
//  #03 //028   ----------------------------------------
 BYTE   N92  Cn4  v052
 BYTE   N92  En4
 BYTE   W96
//  #03 //029   ----------------------------------------
 BYTE   W36
 BYTE   N11  Cn4
 BYTE   N11  En4
 BYTE   W12
 BYTE   N17  Bn3
 BYTE   N17  Dn4
 BYTE   W18
 BYTE   An3
 BYTE   N17  Cn4
 BYTE   W18
 BYTE   N05  Gn3
 BYTE   N05  Bn3
 BYTE   W06
 BYTE   An3
 BYTE   N05  Cn4
 BYTE   W06
//  #03 //030   ----------------------------------------
 BYTE   N92  Gn3
 BYTE   N92  Bn3
 BYTE   W96
//  #03 //031   ----------------------------------------
 BYTE   W96
//  #03 //032   ----------------------------------------
 BYTE   W96
//  #03 //033   ----------------------------------------
 BYTE   W96
//  #03 //034   ----------------------------------------
 BYTE   W96
//  #03 //035   ----------------------------------------
 BYTE   W96
//  #03 //036   ----------------------------------------
 BYTE   W96
//  #03 //037   ----------------------------------------
 BYTE   W96
//  #03 //038   ----------------------------------------
 BYTE   W96
//  #03 //039   ----------------------------------------
 BYTE   W96
//  #03 //040   ----------------------------------------
 BYTE   W96
//  #03 //041   ----------------------------------------
 BYTE   W96
//  #03 //042   ----------------------------------------
 BYTE   W96
//  #03 //043   ----------------------------------------
 BYTE   W96
//  #03 //044   ----------------------------------------
 BYTE   W96
//  #03 //045   ----------------------------------------
 BYTE   W96
//  #03 //046   ----------------------------------------
 BYTE   W96
//  #03 //047   ----------------------------------------
 BYTE   W96
//  #03 //048   ----------------------------------------
Label_018C719F:
 BYTE   W96
//  #03 //049   ----------------------------------------
 BYTE   W96
//  #03 //050   ----------------------------------------
 BYTE   W96
//  #03 //051   ----------------------------------------
 BYTE   W96
//  #03 //052   ----------------------------------------
 BYTE   W96
//  #03 //053   ----------------------------------------
 BYTE   W96
//  #03 //054   ----------------------------------------
 BYTE   W96
//  #03 //055   ----------------------------------------
 BYTE   W96
//  #03 //056   ----------------------------------------
 BYTE   W96
//  #03 //057   ----------------------------------------
 BYTE   W96
//  #03 //058   ----------------------------------------
 BYTE   W96
//  #03 //059   ----------------------------------------
 BYTE   W96
//  #03 //060   ----------------------------------------
 BYTE   W96
//  #03 //061   ----------------------------------------
 BYTE   W96
//  #03 //062   ----------------------------------------
 BYTE   W96
//  #03 //063   ----------------------------------------
 BYTE   W96
//  #03 //064   ----------------------------------------
 BYTE   W96
//  #03 //065   ----------------------------------------
 BYTE   W96
//  #03 //066   ----------------------------------------
 BYTE   W96
//  #03 //067   ----------------------------------------
 BYTE   W96
//  #03 //068   ----------------------------------------
 BYTE   W96
//  #03 //069   ----------------------------------------
 BYTE   W96
//  #03 //070   ----------------------------------------
 BYTE   W96
//  #03 //071   ----------------------------------------
 BYTE   W96
//  #03 //072   ----------------------------------------
 BYTE   W96
//  #03 //073   ----------------------------------------
 BYTE   W96
//  #03 //074   ----------------------------------------
 BYTE   W96
//  #03 //075   ----------------------------------------
 BYTE   W96
//  #03 //076   ----------------------------------------
 BYTE   W96
//  #03 //077   ----------------------------------------
 BYTE   W96
//  #03 //078   ----------------------------------------
 BYTE   W96
//  #03 //079   ----------------------------------------
 BYTE   W96
//  #03 //080   ----------------------------------------
 BYTE   W96
//  #03 //081   ----------------------------------------
 BYTE   W96
//  #03 //082   ----------------------------------------
 BYTE   W96
//  #03 //083   ----------------------------------------
 BYTE   W96
//  #03 //084   ----------------------------------------
 BYTE   W96
//  #03 //085   ----------------------------------------
 BYTE   W96
//  #03 //086   ----------------------------------------
 BYTE   W96
//  #03 //087   ----------------------------------------
 BYTE   W96
//  #03 //088   ----------------------------------------
 BYTE   W96
//  #03 //089   ----------------------------------------
 BYTE   W96
//  #03 //090   ----------------------------------------
 BYTE   W96
//  #03 //091   ----------------------------------------
 BYTE   W96
//  #03 //092   ----------------------------------------
 BYTE   W96
//  #03 //093   ----------------------------------------
 BYTE   W96
//  #03 //094   ----------------------------------------
 BYTE   W96
//  #03 //095   ----------------------------------------
 BYTE   W96
//  #03 //096   ----------------------------------------
 BYTE   GoTo
  POIN2 Label_018C719F
//  #03 //097   ----------------------------------------
 BYTE   W96
//  #03 //098   ----------------------------------------
 BYTE   W96
//  #03 //099   ----------------------------------------
 BYTE   W96
//  #03 //100   ----------------------------------------
 BYTE   W96
//  #03 //101   ----------------------------------------
 BYTE   W96
//  #03 //102   ----------------------------------------
 BYTE   W96
 BYTE   FINE

//**************** Track 4 (Midi-Chn.3) ****************//

WhenMotherWasThere_004:
//  #04 //000   ----------------------------------------
 BYTE   KEYSH   WhenMotherWasThere_key+0
 BYTE   VOICE   99
 BYTE   VOL   40*WhenMotherWasThere_mvl/mxv
 BYTE   PAN   c_v+0
 BYTE   VOL   41*WhenMotherWasThere_mvl/mxv
 BYTE   PAN   c_v+0
 BYTE   W18
 BYTE   N17  An2  v064
 BYTE   N17  Cn3
 BYTE   W36
 BYTE   N11  An2
 BYTE   N11  Cn3
 BYTE   W24
 BYTE   N17  An2
 BYTE   N17  Cn3
 BYTE   W18
//  #04 //001   ----------------------------------------
Label_01005699:
 BYTE   W18
 BYTE   N17  An2  v064
 BYTE   N17  Cn3
 BYTE   W36
 BYTE   N11  An2
 BYTE   N11  Cn3
 BYTE   W24
 BYTE   N17  An2
 BYTE   N17  Cn3
 BYTE   W18
 BYTE   PEND 
//  #04 //002   ----------------------------------------
Label_010056AB:
 BYTE   W18
 BYTE   N17  Gn2  v064
 BYTE   N17  Bn2
 BYTE   N17  Cn3
 BYTE   W36
 BYTE   N11  Gn2
 BYTE   N11  Bn2
 BYTE   N11  Cn3
 BYTE   W24
 BYTE   N17  Gn2
 BYTE   N17  Bn2
 BYTE   N17  Cn3
 BYTE   W18
 BYTE   PEND 
//  #04 //003   ----------------------------------------
 BYTE   PATT
  POIN2 Label_010056AB
//  #04 //004   ----------------------------------------
 BYTE   PATT
  POIN2 Label_01005699
//  #04 //005   ----------------------------------------
 BYTE   PATT
  POIN2 Label_01005699
//  #04 //006   ----------------------------------------
 BYTE   PATT
  POIN2 Label_010056AB
//  #04 //007   ----------------------------------------
 BYTE   PATT
  POIN2 Label_010056AB
//  #04 //008   ----------------------------------------
 BYTE   PATT
  POIN2 Label_01005699
//  #04 //009   ----------------------------------------
 BYTE   PATT
  POIN2 Label_01005699
//  #04 //010   ----------------------------------------
 BYTE   PATT
  POIN2 Label_010056AB
//  #04 //011   ----------------------------------------
 BYTE   PATT
  POIN2 Label_010056AB
//  #04 //012   ----------------------------------------
 BYTE   PATT
  POIN2 Label_01005699
//  #04 //013   ----------------------------------------
 BYTE   PATT
  POIN2 Label_01005699
//  #04 //014   ----------------------------------------
 BYTE   PATT
  POIN2 Label_010056AB
//  #04 //015   ----------------------------------------
 BYTE   PATT
  POIN2 Label_010056AB
//  #04 //016   ----------------------------------------
 BYTE   PATT
  POIN2 Label_01005699
//  #04 //017   ----------------------------------------
 BYTE   PATT
  POIN2 Label_01005699
//  #04 //018   ----------------------------------------
 BYTE   PATT
  POIN2 Label_010056AB
//  #04 //019   ----------------------------------------
 BYTE   PATT
  POIN2 Label_010056AB
//  #04 //020   ----------------------------------------
 BYTE   PATT
  POIN2 Label_01005699
//  #04 //021   ----------------------------------------
 BYTE   PATT
  POIN2 Label_01005699
//  #04 //022   ----------------------------------------
 BYTE   PATT
  POIN2 Label_010056AB
//  #04 //023   ----------------------------------------
 BYTE   PATT
  POIN2 Label_010056AB
//  #04 //024   ----------------------------------------
 BYTE   PATT
  POIN2 Label_01005699
//  #04 //025   ----------------------------------------
 BYTE   PATT
  POIN2 Label_01005699
//  #04 //026   ----------------------------------------
 BYTE   PATT
  POIN2 Label_010056AB
//  #04 //027   ----------------------------------------
 BYTE   PATT
  POIN2 Label_010056AB
//  #04 //028   ----------------------------------------
 BYTE   PATT
  POIN2 Label_01005699
//  #04 //029   ----------------------------------------
 BYTE   PATT
  POIN2 Label_01005699
//  #04 //030   ----------------------------------------
 BYTE   PATT
  POIN2 Label_010056AB
//  #04 //031   ----------------------------------------
 BYTE   PATT
  POIN2 Label_010056AB
//  #04 //032   ----------------------------------------
 BYTE   PATT
  POIN2 Label_01005699
//  #04 //033   ----------------------------------------
 BYTE   PATT
  POIN2 Label_01005699
//  #04 //034   ----------------------------------------
 BYTE   PATT
  POIN2 Label_010056AB
//  #04 //035   ----------------------------------------
 BYTE   PATT
  POIN2 Label_010056AB
//  #04 //036   ----------------------------------------
 BYTE   PATT
  POIN2 Label_01005699
//  #04 //037   ----------------------------------------
 BYTE   PATT
  POIN2 Label_01005699
//  #04 //038   ----------------------------------------
 BYTE   PATT
  POIN2 Label_010056AB
//  #04 //039   ----------------------------------------
 BYTE   PATT
  POIN2 Label_010056AB
//  #04 //040   ----------------------------------------
 BYTE   PATT
  POIN2 Label_01005699
//  #04 //041   ----------------------------------------
 BYTE   PATT
  POIN2 Label_01005699
//  #04 //042   ----------------------------------------
 BYTE   PATT
  POIN2 Label_010056AB
//  #04 //043   ----------------------------------------
 BYTE   PATT
  POIN2 Label_010056AB
//  #04 //044   ----------------------------------------
 BYTE   PATT
  POIN2 Label_01005699
//  #04 //045   ----------------------------------------
 BYTE   PATT
  POIN2 Label_01005699
//  #04 //046   ----------------------------------------
 BYTE   PATT
  POIN2 Label_010056AB
//  #04 //047   ----------------------------------------
 BYTE   PATT
  POIN2 Label_010056AB
//  #04 //048   ----------------------------------------
Label_010057A4:
//  #04 //049   ----------------------------------------
 BYTE   PATT
  POIN2 Label_01005699
//  #04 //050   ----------------------------------------
 BYTE   PATT
  POIN2 Label_01005699
//  #04 //051   ----------------------------------------
 BYTE   PATT
  POIN2 Label_010056AB
//  #04 //052   ----------------------------------------
 BYTE   PATT
  POIN2 Label_010056AB
//  #04 //053   ----------------------------------------
 BYTE   PATT
  POIN2 Label_01005699
//  #04 //054   ----------------------------------------
 BYTE   PATT
  POIN2 Label_01005699
//  #04 //055   ----------------------------------------
 BYTE   PATT
  POIN2 Label_010056AB
//  #04 //056   ----------------------------------------
 BYTE   PATT
  POIN2 Label_010056AB
//  #04 //057   ----------------------------------------
 BYTE   PATT
  POIN2 Label_01005699
//  #04 //058   ----------------------------------------
 BYTE   PATT
  POIN2 Label_01005699
//  #04 //059   ----------------------------------------
 BYTE   PATT
  POIN2 Label_010056AB
//  #04 //060   ----------------------------------------
 BYTE   PATT
  POIN2 Label_010056AB
//  #04 //061   ----------------------------------------
 BYTE   PATT
  POIN2 Label_01005699
//  #04 //062   ----------------------------------------
 BYTE   PATT
  POIN2 Label_01005699
//  #04 //063   ----------------------------------------
 BYTE   PATT
  POIN2 Label_010056AB
//  #04 //064   ----------------------------------------
 BYTE   PATT
  POIN2 Label_010056AB
//  #04 //065   ----------------------------------------
 BYTE   W96
//  #04 //066   ----------------------------------------
 BYTE   W96
//  #04 //067   ----------------------------------------
 BYTE   W96
//  #04 //068   ----------------------------------------
 BYTE   W96
//  #04 //069   ----------------------------------------
 BYTE   W96
//  #04 //070   ----------------------------------------
 BYTE   W96
//  #04 //071   ----------------------------------------
 BYTE   W96
//  #04 //072   ----------------------------------------
 BYTE   W96
//  #04 //073   ----------------------------------------
 BYTE   W96
//  #04 //074   ----------------------------------------
 BYTE   W96
//  #04 //075   ----------------------------------------
 BYTE   W96
//  #04 //076   ----------------------------------------
 BYTE   W96
//  #04 //077   ----------------------------------------
 BYTE   W96
//  #04 //078   ----------------------------------------
 BYTE   W96
//  #04 //079   ----------------------------------------
 BYTE   W96
//  #04 //080   ----------------------------------------
 BYTE   W96
//  #04 //081   ----------------------------------------
 BYTE   PATT
  POIN2 Label_01005699
//  #04 //082   ----------------------------------------
 BYTE   PATT
  POIN2 Label_01005699
//  #04 //083   ----------------------------------------
 BYTE   PATT
  POIN2 Label_010056AB
//  #04 //084   ----------------------------------------
 BYTE   PATT
  POIN2 Label_010056AB
//  #04 //085   ----------------------------------------
 BYTE   PATT
  POIN2 Label_01005699
//  #04 //086   ----------------------------------------
 BYTE   PATT
  POIN2 Label_01005699
//  #04 //087   ----------------------------------------
 BYTE   PATT
  POIN2 Label_010056AB
//  #04 //088   ----------------------------------------
 BYTE   PATT
  POIN2 Label_010056AB
//  #04 //089   ----------------------------------------
 BYTE   PATT
  POIN2 Label_01005699
//  #04 //090   ----------------------------------------
 BYTE   PATT
  POIN2 Label_01005699
//  #04 //091   ----------------------------------------
 BYTE   PATT
  POIN2 Label_010056AB
//  #04 //092   ----------------------------------------
 BYTE   PATT
  POIN2 Label_010056AB
//  #04 //093   ----------------------------------------
 BYTE   PATT
  POIN2 Label_01005699
//  #04 //094   ----------------------------------------
 BYTE   PATT
  POIN2 Label_01005699
//  #04 //095   ----------------------------------------
 BYTE   PATT
  POIN2 Label_010056AB
//  #04 //096   ----------------------------------------
 BYTE   PATT
  POIN2 Label_010056AB
//  #04 //097   ----------------------------------------
 BYTE   GoTo
  POIN2 Label_010057A4
//  #04 //098   ----------------------------------------
 BYTE   W18
 BYTE   N17  An2  v064
 BYTE   N17  Cn3
 BYTE   W36
 BYTE   N11  An2  v060
 BYTE   N11  Cn3
 BYTE   W24
 BYTE   N17  An2
 BYTE   N17  Cn3
 BYTE   W18
//  #04 //099   ----------------------------------------
 BYTE   W18
 BYTE   An2  v056
 BYTE   N17  Cn3
 BYTE   W36
 BYTE   N11  An2  v052
 BYTE   N11  Cn3
 BYTE   W24
 BYTE   N17  An2
 BYTE   N17  Cn3
 BYTE   W18
//  #04 //100   ----------------------------------------
 BYTE   W18
 BYTE   Gn2  v048
 BYTE   N17  Bn2
 BYTE   N17  Cn3
 BYTE   W36
 BYTE   N11  Gn2  v044
 BYTE   N11  Bn2
 BYTE   N11  Cn3
 BYTE   W24
 BYTE   N17  Gn2
 BYTE   N17  Bn2
 BYTE   N17  Cn3
 BYTE   W18
//  #04 //101   ----------------------------------------
 BYTE   W18
 BYTE   Gn2  v040
 BYTE   N17  Bn2
 BYTE   N17  Cn3
 BYTE   W36
 BYTE   N11  Gn2  v036
 BYTE   N11  Bn2
 BYTE   N11  Cn3
 BYTE   W24
 BYTE   N17  Gn2
 BYTE   N17  Bn2
 BYTE   N17  Cn3
 BYTE   W18
//  #04 //102   ----------------------------------------
 BYTE   W18
 BYTE   An2  v032
 BYTE   N17  Cn3
 BYTE   W36
 BYTE   N11  An2  v028
 BYTE   N11  Cn3
 BYTE   W24
 BYTE   N17  An2
 BYTE   N17  Cn3
 BYTE   W18
//  #04 //103   ----------------------------------------
 BYTE   W18
 BYTE   An2  v024
 BYTE   N17  Cn3
 BYTE   W36
 BYTE   N11  An2  v020
 BYTE   N11  Cn3
 BYTE   W24
 BYTE   N17  An2
 BYTE   N17  Cn3
 BYTE   W18
 BYTE   FINE

//**************** Track 5 (Midi-Chn.4) ****************//

WhenMotherWasThere_005:
//  #05 //000   ----------------------------------------
 BYTE   KEYSH   WhenMotherWasThere_key+0
 BYTE   VOICE   30
 BYTE   VOL   41*WhenMotherWasThere_mvl/mxv
 BYTE   PAN   c_v+0
 BYTE   VOL   40*WhenMotherWasThere_mvl/mxv
 BYTE   PAN   c_v-3
 BYTE   W96
//  #05 //001   ----------------------------------------
 BYTE   W96
//  #05 //002   ----------------------------------------
 BYTE   W96
//  #05 //003   ----------------------------------------
 BYTE   W96
//  #05 //004   ----------------------------------------
 BYTE   W96
//  #05 //005   ----------------------------------------
 BYTE   W96
//  #05 //006   ----------------------------------------
 BYTE   W96
//  #05 //007   ----------------------------------------
 BYTE   W96
//  #05 //008   ----------------------------------------
 BYTE   W96
//  #05 //009   ----------------------------------------
 BYTE   W96
//  #05 //010   ----------------------------------------
 BYTE   W96
//  #05 //011   ----------------------------------------
 BYTE   W96
//  #05 //012   ----------------------------------------
 BYTE   W96
//  #05 //013   ----------------------------------------
 BYTE   W96
//  #05 //014   ----------------------------------------
 BYTE   W96
//  #05 //015   ----------------------------------------
 BYTE   W96
//  #05 //016   ----------------------------------------
 BYTE   W96
//  #05 //017   ----------------------------------------
 BYTE   W96
//  #05 //018   ----------------------------------------
 BYTE   W96
//  #05 //019   ----------------------------------------
 BYTE   W96
//  #05 //020   ----------------------------------------
 BYTE   W96
//  #05 //021   ----------------------------------------
 BYTE   W96
//  #05 //022   ----------------------------------------
 BYTE   W96
//  #05 //023   ----------------------------------------
 BYTE   W96
//  #05 //024   ----------------------------------------
 BYTE   W96
//  #05 //025   ----------------------------------------
 BYTE   W96
//  #05 //026   ----------------------------------------
 BYTE   W96
//  #05 //027   ----------------------------------------
 BYTE   W96
//  #05 //028   ----------------------------------------
 BYTE   W96
//  #05 //029   ----------------------------------------
 BYTE   W96
//  #05 //030   ----------------------------------------
 BYTE   W96
//  #05 //031   ----------------------------------------
 BYTE   W96
//  #05 //032   ----------------------------------------
Label_01005120:
 BYTE   N05  Dn3  v040
 BYTE   W06
 BYTE   N08  En3
 BYTE   W18
 BYTE   Cn3
 BYTE   W18
 BYTE   N17  Bn2
 BYTE   W18
 BYTE   N32  Gn2
 BYTE   W36
 BYTE   PEND 
//  #05 //033   ----------------------------------------
Label_01005130:
 BYTE   N05  Dn3  v040
 BYTE   W06
 BYTE   N08  En3
 BYTE   W18
 BYTE   Cn3
 BYTE   W18
 BYTE   N17  Bn2
 BYTE   W18
 BYTE   N02  Cn3  v064
 BYTE   W02
 BYTE   N15  Dn3
 BYTE   W16
 BYTE   N17  Cn3
 BYTE   W18
 BYTE   PEND 
//  #05 //034   ----------------------------------------
 BYTE   N92  Bn2
 BYTE   W96
//  #05 //035   ----------------------------------------
Label_0100514A:
 BYTE   N05  Dn3  v040
 BYTE   W06
 BYTE   N08  En3
 BYTE   W18
 BYTE   N05  Cn3
 BYTE   W12
 BYTE   Gn2  v064
 BYTE   W12
 BYTE   N11
 BYTE   W12
 BYTE   An2
 BYTE   W12
 BYTE   Bn2
 BYTE   W12
 BYTE   Cn3
 BYTE   W12
 BYTE   PEND 
//  #05 //036   ----------------------------------------
Label_01005160:
 BYTE   N05  Dn3  v064
 BYTE   W06
 BYTE   N08  En3
 BYTE   W18
 BYTE   Cn3  v040
 BYTE   W18
 BYTE   N17  Bn2
 BYTE   W18
 BYTE   N32  Gn2
 BYTE   W36
 BYTE   PEND 
//  #05 //037   ----------------------------------------
 BYTE   PATT
  POIN2 Label_01005130
//  #05 //038   ----------------------------------------
 BYTE   N92  Bn2  v064
 BYTE   W96
//  #05 //039   ----------------------------------------
 BYTE   PATT
  POIN2 Label_01005120
//  #05 //040   ----------------------------------------
Label_0100517F:
 BYTE   N05  Dn3  v032
 BYTE   W06
 BYTE   N08  En3
 BYTE   W18
 BYTE   Cn3
 BYTE   W18
 BYTE   N17  Bn2
 BYTE   W18
 BYTE   N32  Gn2
 BYTE   W36
 BYTE   PEND 
//  #05 //041   ----------------------------------------
Label_0100518F:
 BYTE   N05  Dn3  v032
 BYTE   W06
 BYTE   N08  En3
 BYTE   W18
 BYTE   Cn3
 BYTE   W18
 BYTE   N17  Bn2
 BYTE   W18
 BYTE   N02  Cn3  v052
 BYTE   W02
 BYTE   N15  Dn3
 BYTE   W16
 BYTE   N17  Cn3
 BYTE   W18
 BYTE   PEND 
//  #05 //042   ----------------------------------------
 BYTE   N92  Bn2
 BYTE   W96
//  #05 //043   ----------------------------------------
 BYTE   N05  Dn3  v032
 BYTE   W06
 BYTE   N08  En3
 BYTE   W18
 BYTE   N05  Cn3
 BYTE   W12
 BYTE   Gn2  v052
 BYTE   W12
 BYTE   N11
 BYTE   W12
 BYTE   An2
 BYTE   W12
 BYTE   Bn2
 BYTE   W12
 BYTE   Cn3
 BYTE   W12
//  #05 //044   ----------------------------------------
 BYTE   N05  Dn3
 BYTE   W06
 BYTE   N08  En3
 BYTE   W18
 BYTE   Cn3  v032
 BYTE   W18
 BYTE   N17  Bn2
 BYTE   W18
 BYTE   N32  Gn2
 BYTE   W36
//  #05 //045   ----------------------------------------
 BYTE   PATT
  POIN2 Label_0100518F
//  #05 //046   ----------------------------------------
 BYTE   N92  Bn2  v052
 BYTE   W96
//  #05 //047   ----------------------------------------
 BYTE   PATT
  POIN2 Label_0100517F
//  #05 //048   ----------------------------------------
Label_010051DB:
 BYTE   W96
//  #05 //049   ----------------------------------------
 BYTE   W96
//  #05 //050   ----------------------------------------
 BYTE   W96
//  #05 //051   ----------------------------------------
 BYTE   W96
//  #05 //052   ----------------------------------------
 BYTE   W96
//  #05 //053   ----------------------------------------
 BYTE   W96
//  #05 //054   ----------------------------------------
 BYTE   W96
//  #05 //055   ----------------------------------------
 BYTE   W96
//  #05 //056   ----------------------------------------
 BYTE   W96
//  #05 //057   ----------------------------------------
 BYTE   W96
//  #05 //058   ----------------------------------------
 BYTE   W96
//  #05 //059   ----------------------------------------
 BYTE   W96
//  #05 //060   ----------------------------------------
 BYTE   W96
//  #05 //061   ----------------------------------------
 BYTE   W96
//  #05 //062   ----------------------------------------
 BYTE   W96
//  #05 //063   ----------------------------------------
 BYTE   W96
//  #05 //064   ----------------------------------------
 BYTE   W96
//  #05 //065   ----------------------------------------
 BYTE   W96
//  #05 //066   ----------------------------------------
 BYTE   W96
//  #05 //067   ----------------------------------------
 BYTE   W96
//  #05 //068   ----------------------------------------
 BYTE   W96
//  #05 //069   ----------------------------------------
 BYTE   W96
//  #05 //070   ----------------------------------------
 BYTE   W96
//  #05 //071   ----------------------------------------
 BYTE   W96
//  #05 //072   ----------------------------------------
 BYTE   W96
//  #05 //073   ----------------------------------------
 BYTE   W96
//  #05 //074   ----------------------------------------
 BYTE   W96
//  #05 //075   ----------------------------------------
 BYTE   W96
//  #05 //076   ----------------------------------------
 BYTE   W96
//  #05 //077   ----------------------------------------
 BYTE   W96
//  #05 //078   ----------------------------------------
 BYTE   W96
//  #05 //079   ----------------------------------------
 BYTE   W96
//  #05 //080   ----------------------------------------
 BYTE   PATT
  POIN2 Label_01005120
//  #05 //081   ----------------------------------------
 BYTE   PATT
  POIN2 Label_01005130
//  #05 //082   ----------------------------------------
 BYTE   N92  Bn2  v064
 BYTE   W96
//  #05 //083   ----------------------------------------
 BYTE   PATT
  POIN2 Label_0100514A
//  #05 //084   ----------------------------------------
 BYTE   PATT
  POIN2 Label_01005160
//  #05 //085   ----------------------------------------
 BYTE   PATT
  POIN2 Label_01005130
//  #05 //086   ----------------------------------------
 BYTE   N92  Bn2  v064
 BYTE   W96
//  #05 //087   ----------------------------------------
 BYTE   PATT
  POIN2 Label_01005120
//  #05 //088   ----------------------------------------
 BYTE   PATT
  POIN2 Label_01005120
//  #05 //089   ----------------------------------------
 BYTE   PATT
  POIN2 Label_01005130
//  #05 //090   ----------------------------------------
 BYTE   N92  Bn2  v064
 BYTE   W96
//  #05 //091   ----------------------------------------
 BYTE   PATT
  POIN2 Label_0100514A
//  #05 //092   ----------------------------------------
 BYTE   PATT
  POIN2 Label_01005160
//  #05 //093   ----------------------------------------
 BYTE   PATT
  POIN2 Label_01005130
//  #05 //094   ----------------------------------------
 BYTE   N92  Bn2  v064
 BYTE   W96
//  #05 //095   ----------------------------------------
 BYTE   PATT
  POIN2 Label_01005120
//  #05 //096   ----------------------------------------
 BYTE   GoTo
  POIN2 Label_010051DB
//  #05 //097   ----------------------------------------
 BYTE   W96
//  #05 //098   ----------------------------------------
 BYTE   W96
//  #05 //099   ----------------------------------------
 BYTE   W96
//  #05 //100   ----------------------------------------
 BYTE   W96
//  #05 //101   ----------------------------------------
 BYTE   W96
//  #05 //102   ----------------------------------------
 BYTE   W96
 BYTE   FINE

//**************** Track 6 (Midi-Chn.5) ****************//

WhenMotherWasThere_006:
//  #06 //000   ----------------------------------------
 BYTE   KEYSH   WhenMotherWasThere_key+0
 BYTE   VOICE   34
 BYTE   VOL   40*WhenMotherWasThere_mvl/mxv
 BYTE   PAN   c_v+0
 BYTE   VOL   40*WhenMotherWasThere_mvl/mxv
 BYTE   PAN   c_v+0
 BYTE   N56  Dn1  v096
 BYTE   W60
 BYTE   N17  An0
 BYTE   W18
 BYTE   Dn1
 BYTE   W18
//  #06 //001   ----------------------------------------
Label_010058F5:
 BYTE   N56  Dn1  v096
 BYTE   W60
 BYTE   N17  An0
 BYTE   W18
 BYTE   Dn1
 BYTE   W18
 BYTE   PEND 
//  #06 //002   ----------------------------------------
Label_010058FF:
 BYTE   N56  An0  v096
 BYTE   W60
 BYTE   N17
 BYTE   W18
 BYTE   En1
 BYTE   W18
 BYTE   PEND 
//  #06 //003   ----------------------------------------
 BYTE   PATT
  POIN2 Label_010058FF
//  #06 //004   ----------------------------------------
 BYTE   PATT
  POIN2 Label_010058F5
//  #06 //005   ----------------------------------------
 BYTE   PATT
  POIN2 Label_010058F5
//  #06 //006   ----------------------------------------
 BYTE   PATT
  POIN2 Label_010058FF
//  #06 //007   ----------------------------------------
 BYTE   PATT
  POIN2 Label_010058FF
//  #06 //008   ----------------------------------------
 BYTE   PATT
  POIN2 Label_010058F5
//  #06 //009   ----------------------------------------
 BYTE   PATT
  POIN2 Label_010058F5
//  #06 //010   ----------------------------------------
 BYTE   PATT
  POIN2 Label_010058FF
//  #06 //011   ----------------------------------------
 BYTE   PATT
  POIN2 Label_010058FF
//  #06 //012   ----------------------------------------
 BYTE   PATT
  POIN2 Label_010058F5
//  #06 //013   ----------------------------------------
 BYTE   PATT
  POIN2 Label_010058F5
//  #06 //014   ----------------------------------------
 BYTE   PATT
  POIN2 Label_010058FF
//  #06 //015   ----------------------------------------
 BYTE   PATT
  POIN2 Label_010058FF
//  #06 //016   ----------------------------------------
Label_01005949:
 BYTE   N56  Dn1  v080
 BYTE   W60
 BYTE   N17  An0
 BYTE   W18
 BYTE   Dn1
 BYTE   W18
 BYTE   PEND 
//  #06 //017   ----------------------------------------
 BYTE   PATT
  POIN2 Label_01005949
//  #06 //018   ----------------------------------------
Label_01005958:
 BYTE   N56  An0  v080
 BYTE   W60
 BYTE   N17
 BYTE   W18
 BYTE   En1
 BYTE   W18
 BYTE   PEND 
//  #06 //019   ----------------------------------------
 BYTE   PATT
  POIN2 Label_01005958
//  #06 //020   ----------------------------------------
 BYTE   PATT
  POIN2 Label_01005949
//  #06 //021   ----------------------------------------
 BYTE   PATT
  POIN2 Label_01005949
//  #06 //022   ----------------------------------------
 BYTE   PATT
  POIN2 Label_01005958
//  #06 //023   ----------------------------------------
 BYTE   PATT
  POIN2 Label_01005958
//  #06 //024   ----------------------------------------
 BYTE   PATT
  POIN2 Label_01005949
//  #06 //025   ----------------------------------------
 BYTE   PATT
  POIN2 Label_01005949
//  #06 //026   ----------------------------------------
 BYTE   PATT
  POIN2 Label_01005958
//  #06 //027   ----------------------------------------
 BYTE   PATT
  POIN2 Label_01005958
//  #06 //028   ----------------------------------------
 BYTE   PATT
  POIN2 Label_01005949
//  #06 //029   ----------------------------------------
 BYTE   PATT
  POIN2 Label_01005949
//  #06 //030   ----------------------------------------
 BYTE   PATT
  POIN2 Label_01005958
//  #06 //031   ----------------------------------------
 BYTE   PATT
  POIN2 Label_01005958
//  #06 //032   ----------------------------------------
 BYTE   PATT
  POIN2 Label_010058F5
//  #06 //033   ----------------------------------------
 BYTE   PATT
  POIN2 Label_010058F5
//  #06 //034   ----------------------------------------
 BYTE   PATT
  POIN2 Label_010058FF
//  #06 //035   ----------------------------------------
 BYTE   PATT
  POIN2 Label_010058FF
//  #06 //036   ----------------------------------------
 BYTE   PATT
  POIN2 Label_010058F5
//  #06 //037   ----------------------------------------
 BYTE   PATT
  POIN2 Label_010058F5
//  #06 //038   ----------------------------------------
 BYTE   PATT
  POIN2 Label_010058FF
//  #06 //039   ----------------------------------------
 BYTE   PATT
  POIN2 Label_010058FF
//  #06 //040   ----------------------------------------
 BYTE   PATT
  POIN2 Label_010058F5
//  #06 //041   ----------------------------------------
 BYTE   PATT
  POIN2 Label_010058F5
//  #06 //042   ----------------------------------------
 BYTE   PATT
  POIN2 Label_010058FF
//  #06 //043   ----------------------------------------
 BYTE   PATT
  POIN2 Label_010058FF
//  #06 //044   ----------------------------------------
 BYTE   PATT
  POIN2 Label_010058F5
//  #06 //045   ----------------------------------------
 BYTE   PATT
  POIN2 Label_010058F5
//  #06 //046   ----------------------------------------
 BYTE   PATT
  POIN2 Label_010058FF
//  #06 //047   ----------------------------------------
 BYTE   PATT
  POIN2 Label_010058FF
//  #06 //048   ----------------------------------------
Label_010059F2:
//  #06 //049   ----------------------------------------
 BYTE   PATT
  POIN2 Label_010058F5
//  #06 //050   ----------------------------------------
 BYTE   PATT
  POIN2 Label_010058F5
//  #06 //051   ----------------------------------------
 BYTE   PATT
  POIN2 Label_010058FF
//  #06 //052   ----------------------------------------
 BYTE   PATT
  POIN2 Label_010058FF
//  #06 //053   ----------------------------------------
 BYTE   PATT
  POIN2 Label_010058F5
//  #06 //054   ----------------------------------------
 BYTE   PATT
  POIN2 Label_010058F5
//  #06 //055   ----------------------------------------
 BYTE   PATT
  POIN2 Label_010058FF
//  #06 //056   ----------------------------------------
 BYTE   PATT
  POIN2 Label_010058FF
//  #06 //057   ----------------------------------------
 BYTE   PATT
  POIN2 Label_010058F5
//  #06 //058   ----------------------------------------
 BYTE   PATT
  POIN2 Label_010058F5
//  #06 //059   ----------------------------------------
 BYTE   PATT
  POIN2 Label_010058FF
//  #06 //060   ----------------------------------------
 BYTE   PATT
  POIN2 Label_010058FF
//  #06 //061   ----------------------------------------
 BYTE   PATT
  POIN2 Label_010058F5
//  #06 //062   ----------------------------------------
 BYTE   PATT
  POIN2 Label_010058F5
//  #06 //063   ----------------------------------------
 BYTE   PATT
  POIN2 Label_010058FF
//  #06 //064   ----------------------------------------
 BYTE   PATT
  POIN2 Label_010058FF
//  #06 //065   ----------------------------------------
 BYTE   W96
//  #06 //066   ----------------------------------------
 BYTE   W96
//  #06 //067   ----------------------------------------
 BYTE   W96
//  #06 //068   ----------------------------------------
 BYTE   W96
//  #06 //069   ----------------------------------------
 BYTE   W96
//  #06 //070   ----------------------------------------
 BYTE   W96
//  #06 //071   ----------------------------------------
 BYTE   W96
//  #06 //072   ----------------------------------------
 BYTE   W96
//  #06 //073   ----------------------------------------
 BYTE   W96
//  #06 //074   ----------------------------------------
 BYTE   W96
//  #06 //075   ----------------------------------------
 BYTE   W96
//  #06 //076   ----------------------------------------
 BYTE   W96
//  #06 //077   ----------------------------------------
 BYTE   PATT
  POIN2 Label_010058F5
//  #06 //078   ----------------------------------------
 BYTE   PATT
  POIN2 Label_010058F5
//  #06 //079   ----------------------------------------
 BYTE   PATT
  POIN2 Label_010058FF
//  #06 //080   ----------------------------------------
 BYTE   PATT
  POIN2 Label_010058FF
//  #06 //081   ----------------------------------------
 BYTE   PATT
  POIN2 Label_010058F5
//  #06 //082   ----------------------------------------
 BYTE   PATT
  POIN2 Label_010058F5
//  #06 //083   ----------------------------------------
 BYTE   PATT
  POIN2 Label_010058FF
//  #06 //084   ----------------------------------------
 BYTE   PATT
  POIN2 Label_010058FF
//  #06 //085   ----------------------------------------
 BYTE   PATT
  POIN2 Label_010058F5
//  #06 //086   ----------------------------------------
 BYTE   PATT
  POIN2 Label_010058F5
//  #06 //087   ----------------------------------------
 BYTE   PATT
  POIN2 Label_010058FF
//  #06 //088   ----------------------------------------
 BYTE   PATT
  POIN2 Label_010058FF
//  #06 //089   ----------------------------------------
 BYTE   PATT
  POIN2 Label_010058F5
//  #06 //090   ----------------------------------------
 BYTE   PATT
  POIN2 Label_010058F5
//  #06 //091   ----------------------------------------
 BYTE   PATT
  POIN2 Label_010058FF
//  #06 //092   ----------------------------------------
 BYTE   PATT
  POIN2 Label_010058FF
//  #06 //093   ----------------------------------------
 BYTE   PATT
  POIN2 Label_010058F5
//  #06 //094   ----------------------------------------
 BYTE   PATT
  POIN2 Label_010058F5
//  #06 //095   ----------------------------------------
 BYTE   PATT
  POIN2 Label_010058FF
//  #06 //096   ----------------------------------------
 BYTE   PATT
  POIN2 Label_010058FF
//  #06 //097   ----------------------------------------
 BYTE   GoTo
  POIN2 Label_010059F2
//  #06 //098   ----------------------------------------
 BYTE   N56  Dn1  v096
 BYTE   W60
 BYTE   N17  An0  v088
 BYTE   W18
 BYTE   Dn1
 BYTE   W18
//  #06 //099   ----------------------------------------
 BYTE   N56  Dn1  v084
 BYTE   W60
 BYTE   N17  An0  v076
 BYTE   W18
 BYTE   Dn1  v072
 BYTE   W18
//  #06 //100   ----------------------------------------
 BYTE   N56  An0
 BYTE   W60
 BYTE   N17  An0  v064
 BYTE   W18
 BYTE   En1  v060
 BYTE   W18
//  #06 //101   ----------------------------------------
 BYTE   N56  An0  v056
 BYTE   W60
 BYTE   N17  An0  v048
 BYTE   W18
 BYTE   En1
 BYTE   W18
//  #06 //102   ----------------------------------------
 BYTE   N56  Dn1  v044
 BYTE   W60
 BYTE   N17  An0  v036
 BYTE   W18
 BYTE   Dn1  v032
 BYTE   W18
//  #06 //103   ----------------------------------------
 BYTE   N56
 BYTE   W60
 BYTE   N17  An0  v024
 BYTE   W18
 BYTE   Dn1  v020
 BYTE   W18
 BYTE   FINE

//**************** Track 7 (Midi-Chn.6) ****************//

WhenMotherWasThere_007:
//  #07 //000   ----------------------------------------
 BYTE   KEYSH   WhenMotherWasThere_key+0
 BYTE   VOICE   75
 BYTE   VOL   40*WhenMotherWasThere_mvl/mxv
 BYTE   PAN   c_v+0
 BYTE   VOL   40*WhenMotherWasThere_mvl/mxv
 BYTE   PAN   c_v-3
 BYTE   W96
//  #07 //001   ----------------------------------------
 BYTE   W96
//  #07 //002   ----------------------------------------
 BYTE   W96
//  #07 //003   ----------------------------------------
 BYTE   W96
//  #07 //004   ----------------------------------------
 BYTE   W96
//  #07 //005   ----------------------------------------
 BYTE   W96
//  #07 //006   ----------------------------------------
 BYTE   W96
//  #07 //007   ----------------------------------------
 BYTE   W96
//  #07 //008   ----------------------------------------
 BYTE   W96
//  #07 //009   ----------------------------------------
 BYTE   W96
//  #07 //010   ----------------------------------------
 BYTE   W96
//  #07 //011   ----------------------------------------
 BYTE   W96
//  #07 //012   ----------------------------------------
 BYTE   W96
//  #07 //013   ----------------------------------------
 BYTE   W96
//  #07 //014   ----------------------------------------
 BYTE   W96
//  #07 //015   ----------------------------------------
 BYTE   W96
//  #07 //016   ----------------------------------------
 BYTE   W96
//  #07 //017   ----------------------------------------
 BYTE   W96
//  #07 //018   ----------------------------------------
 BYTE   W96
//  #07 //019   ----------------------------------------
 BYTE   W96
//  #07 //020   ----------------------------------------
 BYTE   W96
//  #07 //021   ----------------------------------------
 BYTE   W96
//  #07 //022   ----------------------------------------
 BYTE   W96
//  #07 //023   ----------------------------------------
 BYTE   W96
//  #07 //024   ----------------------------------------
 BYTE   W96
//  #07 //025   ----------------------------------------
 BYTE   W96
//  #07 //026   ----------------------------------------
 BYTE   W96
//  #07 //027   ----------------------------------------
 BYTE   W96
//  #07 //028   ----------------------------------------
 BYTE   W96
//  #07 //029   ----------------------------------------
 BYTE   W96
//  #07 //030   ----------------------------------------
 BYTE   W96
//  #07 //031   ----------------------------------------
 BYTE   W96
//  #07 //032   ----------------------------------------
Label_01005B34:
 BYTE   N05  Dn3  v080
 BYTE   N05  Dn4
 BYTE   W06
 BYTE   N08  En3
 BYTE   N08  En4
 BYTE   W18
 BYTE   Cn3
 BYTE   N08  Cn4
 BYTE   W18
 BYTE   N17  Bn2
 BYTE   N17  Bn3
 BYTE   W18
 BYTE   N32  Gn2
 BYTE   N32  Gn3
 BYTE   W36
 BYTE   PEND 
//  #07 //033   ----------------------------------------
 BYTE   PATT
  POIN2 Label_01005B34
//  #07 //034   ----------------------------------------
 BYTE   PATT
  POIN2 Label_01005B34
//  #07 //035   ----------------------------------------
 BYTE   PATT
  POIN2 Label_01005B34
//  #07 //036   ----------------------------------------
 BYTE   PATT
  POIN2 Label_01005B34
//  #07 //037   ----------------------------------------
 BYTE   PATT
  POIN2 Label_01005B34
//  #07 //038   ----------------------------------------
 BYTE   PATT
  POIN2 Label_01005B34
//  #07 //039   ----------------------------------------
 BYTE   PATT
  POIN2 Label_01005B34
//  #07 //040   ----------------------------------------
 BYTE   PATT
  POIN2 Label_01005B34
//  #07 //041   ----------------------------------------
 BYTE   PATT
  POIN2 Label_01005B34
//  #07 //042   ----------------------------------------
 BYTE   PATT
  POIN2 Label_01005B34
//  #07 //043   ----------------------------------------
 BYTE   PATT
  POIN2 Label_01005B34
//  #07 //044   ----------------------------------------
 BYTE   PATT
  POIN2 Label_01005B34
//  #07 //045   ----------------------------------------
 BYTE   PATT
  POIN2 Label_01005B34
//  #07 //046   ----------------------------------------
 BYTE   PATT
  POIN2 Label_01005B34
//  #07 //047   ----------------------------------------
 BYTE   PATT
  POIN2 Label_01005B34
//  #07 //048   ----------------------------------------
Label_01005B99:
 BYTE   N05  Dn3  v060
 BYTE   N05  Dn4
 BYTE   W06
 BYTE   N08  En3
 BYTE   N08  En4
 BYTE   W18
 BYTE   Cn3
 BYTE   N08  Cn4
 BYTE   W18
 BYTE   N17  Bn2
 BYTE   N17  Bn3
 BYTE   W18
 BYTE   N32  Gn2
 BYTE   N32  Gn3
 BYTE   W36
 BYTE   PEND 
//  #07 //049   ----------------------------------------
 BYTE   PATT
  POIN2 Label_01005B99
//  #07 //050   ----------------------------------------
 BYTE   PATT
  POIN2 Label_01005B99
//  #07 //051   ----------------------------------------
 BYTE   PATT
  POIN2 Label_01005B99
//  #07 //052   ----------------------------------------
 BYTE   PATT
  POIN2 Label_01005B99
//  #07 //053   ----------------------------------------
 BYTE   PATT
  POIN2 Label_01005B99
//  #07 //054   ----------------------------------------
 BYTE   PATT
  POIN2 Label_01005B99
//  #07 //055   ----------------------------------------
 BYTE   PATT
  POIN2 Label_01005B99
//  #07 //056   ----------------------------------------
 BYTE   PATT
  POIN2 Label_01005B99
//  #07 //057   ----------------------------------------
 BYTE   PATT
  POIN2 Label_01005B99
//  #07 //058   ----------------------------------------
 BYTE   PATT
  POIN2 Label_01005B99
//  #07 //059   ----------------------------------------
 BYTE   PATT
  POIN2 Label_01005B99
//  #07 //060   ----------------------------------------
 BYTE   PATT
  POIN2 Label_01005B99
//  #07 //061   ----------------------------------------
 BYTE   PATT
  POIN2 Label_01005B99
//  #07 //062   ----------------------------------------
 BYTE   PATT
  POIN2 Label_01005B99
//  #07 //063   ----------------------------------------
 BYTE   PATT
  POIN2 Label_01005B99
//  #07 //064   ----------------------------------------
 BYTE   W96
//  #07 //065   ----------------------------------------
 BYTE   W96
//  #07 //066   ----------------------------------------
 BYTE   W96
//  #07 //067   ----------------------------------------
 BYTE   W96
//  #07 //068   ----------------------------------------
 BYTE   W96
//  #07 //069   ----------------------------------------
 BYTE   W96
//  #07 //070   ----------------------------------------
 BYTE   W96
//  #07 //071   ----------------------------------------
 BYTE   W96
//  #07 //072   ----------------------------------------
 BYTE   W96
//  #07 //073   ----------------------------------------
 BYTE   W96
//  #07 //074   ----------------------------------------
 BYTE   W96
//  #07 //075   ----------------------------------------
 BYTE   W96
//  #07 //076   ----------------------------------------
 BYTE   W96
//  #07 //077   ----------------------------------------
 BYTE   W96
//  #07 //078   ----------------------------------------
 BYTE   W96
//  #07 //079   ----------------------------------------
 BYTE   W96
//  #07 //080   ----------------------------------------
 BYTE   PATT
  POIN2 Label_01005B34
//  #07 //081   ----------------------------------------
 BYTE   PATT
  POIN2 Label_01005B34
//  #07 //082   ----------------------------------------
 BYTE   PATT
  POIN2 Label_01005B34
//  #07 //083   ----------------------------------------
 BYTE   PATT
  POIN2 Label_01005B34
//  #07 //084   ----------------------------------------
 BYTE   PATT
  POIN2 Label_01005B34
//  #07 //085   ----------------------------------------
 BYTE   PATT
  POIN2 Label_01005B34
//  #07 //086   ----------------------------------------
 BYTE   PATT
  POIN2 Label_01005B34
//  #07 //087   ----------------------------------------
 BYTE   PATT
  POIN2 Label_01005B34
//  #07 //088   ----------------------------------------
 BYTE   PATT
  POIN2 Label_01005B34
//  #07 //089   ----------------------------------------
 BYTE   PATT
  POIN2 Label_01005B34
//  #07 //090   ----------------------------------------
 BYTE   PATT
  POIN2 Label_01005B34
//  #07 //091   ----------------------------------------
 BYTE   PATT
  POIN2 Label_01005B34
//  #07 //092   ----------------------------------------
 BYTE   PATT
  POIN2 Label_01005B34
//  #07 //093   ----------------------------------------
 BYTE   PATT
  POIN2 Label_01005B34
//  #07 //094   ----------------------------------------
 BYTE   PATT
  POIN2 Label_01005B34
//  #07 //095   ----------------------------------------
 BYTE   PATT
  POIN2 Label_01005B34
//  #07 //096   ----------------------------------------
 BYTE   GoTo
  POIN2 Label_01005B99
//  #07 //097   ----------------------------------------
 BYTE   N05  Dn3  v080
 BYTE   N05  Dn4
 BYTE   W06
 BYTE   N08  En3
 BYTE   N08  En4
 BYTE   W03
 BYTE   W09
 BYTE   W06
 BYTE   Cn3
 BYTE   N08  Cn4
 BYTE   W03
 BYTE   W09
 BYTE   W06
 BYTE   N17  Bn2  v076
 BYTE   N17  Bn3
 BYTE   W03
 BYTE   W09
 BYTE   W06
 BYTE   N32  Gn2
 BYTE   N32  Gn3
 BYTE   W03
 BYTE   W09
 BYTE   W09
 BYTE   W09
 BYTE   W06
//  #07 //098   ----------------------------------------
 BYTE   N05  Dn3  v072
 BYTE   N05  Dn4
 BYTE   W03
 BYTE   W03
 BYTE   N08  En3
 BYTE   N08  En4
 BYTE   W06
 BYTE   W09
 BYTE   W03
 BYTE   Cn3  v068
 BYTE   N08  Cn4
 BYTE   W06
 BYTE   W09
 BYTE   W03
 BYTE   N17  Bn2
 BYTE   N17  Bn3
 BYTE   W06
 BYTE   W09
 BYTE   W03
 BYTE   N32  Gn2  v064
 BYTE   N32  Gn3
 BYTE   W06
 BYTE   W09
 BYTE   W09
 BYTE   W09
 BYTE   W03
//  #07 //099   ----------------------------------------
 BYTE   N05  Dn3  v060
 BYTE   N05  Dn4
 BYTE   W06
 BYTE   N08  En3
 BYTE   N08  En4
 BYTE   W09
 BYTE   W09
 BYTE   Cn3  v056
 BYTE   N08  Cn4
 BYTE   W09
 BYTE   W09
 BYTE   N17  Bn2
 BYTE   N17  Bn3
 BYTE   W09
 BYTE   W09
 BYTE   N32  Gn2  v052
 BYTE   N32  Gn3
 BYTE   W09
 BYTE   W09
 BYTE   W09
 BYTE   W09
//  #07 //100   ----------------------------------------
 BYTE   N05  Dn3  v048
 BYTE   N05  Dn4
 BYTE   W06
 BYTE   N08  En3
 BYTE   N08  En4
 BYTE   W03
 BYTE   W09
 BYTE   W06
 BYTE   Cn3
 BYTE   N08  Cn4
 BYTE   W03
 BYTE   W09
 BYTE   W06
 BYTE   N17  Bn2  v044
 BYTE   N17  Bn3
 BYTE   W03
 BYTE   W09
 BYTE   W06
 BYTE   N32  Gn2
 BYTE   N32  Gn3
 BYTE   W03
 BYTE   W09
 BYTE   W09
 BYTE   W09
 BYTE   W06
//  #07 //101   ----------------------------------------
 BYTE   N05  Dn3  v040
 BYTE   N05  Dn4
 BYTE   W03
 BYTE   W03
 BYTE   N08  En3
 BYTE   N08  En4
 BYTE   W06
 BYTE   W09
 BYTE   W03
 BYTE   Cn3  v036
 BYTE   N08  Cn4
 BYTE   W06
 BYTE   W09
 BYTE   W03
 BYTE   N17  Bn2
 BYTE   N17  Bn3
 BYTE   W06
 BYTE   W09
 BYTE   W03
 BYTE   N32  Gn2  v032
 BYTE   N32  Gn3
 BYTE   W06
 BYTE   W09
 BYTE   W09
 BYTE   W09
 BYTE   W03
//  #07 //102   ----------------------------------------
 BYTE   N05  Dn3  v028
 BYTE   N05  Dn4
 BYTE   W06
 BYTE   N08  En3
 BYTE   N08  En4
 BYTE   W09
 BYTE   W09
 BYTE   Cn3  v024
 BYTE   N08  Cn4
 BYTE   W09
 BYTE   W09
 BYTE   N17  Bn2
 BYTE   N17  Bn3
 BYTE   W09
 BYTE   W09
 BYTE   N32  Gn2  v020
 BYTE   N32  Gn3
 BYTE   W09
 BYTE   W09
 BYTE   W09
 BYTE   W09
 BYTE   FINE

//**************** Track 8 (Midi-Chn.7) ****************//

WhenMotherWasThere_008:
//  #08 //000   ----------------------------------------
 BYTE   KEYSH   WhenMotherWasThere_key+0
 BYTE   VOICE   48
 BYTE   VOL   40*WhenMotherWasThere_mvl/mxv
 BYTE   PAN   c_v-3
 BYTE   VOL   40*WhenMotherWasThere_mvl/mxv
 BYTE   PAN   c_v+0
 BYTE   W96
//  #08 //001   ----------------------------------------
 BYTE   W96
//  #08 //002   ----------------------------------------
 BYTE   W96
//  #08 //003   ----------------------------------------
 BYTE   W96
//  #08 //004   ----------------------------------------
 BYTE   W96
//  #08 //005   ----------------------------------------
 BYTE   W96
//  #08 //006   ----------------------------------------
 BYTE   W96
//  #08 //007   ----------------------------------------
 BYTE   W96
//  #08 //008   ----------------------------------------
 BYTE   W96
//  #08 //009   ----------------------------------------
 BYTE   W96
//  #08 //010   ----------------------------------------
 BYTE   W96
//  #08 //011   ----------------------------------------
 BYTE   W96
//  #08 //012   ----------------------------------------
 BYTE   W96
//  #08 //013   ----------------------------------------
 BYTE   W96
//  #08 //014   ----------------------------------------
 BYTE   W96
//  #08 //015   ----------------------------------------
 BYTE   W96
//  #08 //016   ----------------------------------------
 BYTE   W96
//  #08 //017   ----------------------------------------
 BYTE   W96
//  #08 //018   ----------------------------------------
 BYTE   W96
//  #08 //019   ----------------------------------------
 BYTE   W96
//  #08 //020   ----------------------------------------
 BYTE   W96
//  #08 //021   ----------------------------------------
 BYTE   W96
//  #08 //022   ----------------------------------------
 BYTE   W96
//  #08 //023   ----------------------------------------
 BYTE   W96
//  #08 //024   ----------------------------------------
 BYTE   W96
//  #08 //025   ----------------------------------------
 BYTE   W96
//  #08 //026   ----------------------------------------
 BYTE   W96
//  #08 //027   ----------------------------------------
 BYTE   W96
//  #08 //028   ----------------------------------------
 BYTE   W96
//  #08 //029   ----------------------------------------
 BYTE   W96
//  #08 //030   ----------------------------------------
 BYTE   W72
 BYTE   N11  En3  v052
 BYTE   W12
 BYTE   Gn3
 BYTE   W12
//  #08 //031   ----------------------------------------
 BYTE   N92  Bn3  v032
 BYTE   N92  Bn4
 BYTE   W01
 BYTE   W01
 BYTE   W02
 BYTE   W01
 BYTE   W02
 BYTE   W01
 BYTE   W02
 BYTE   W01
 BYTE   W02
 BYTE   W01
 BYTE   W02
 BYTE   W01
 BYTE   W01
 BYTE   W02
 BYTE   W01
 BYTE   W02
 BYTE   W01
 BYTE   W02
 BYTE   W01
 BYTE   W02
 BYTE   W01
 BYTE   W02
 BYTE   W01
 BYTE   W01
 BYTE   W02
 BYTE   W01
 BYTE   W02
 BYTE   W01
 BYTE   W02
 BYTE   W01
 BYTE   W02
 BYTE   W01
 BYTE   W02
 BYTE   W01
 BYTE   W01
 BYTE   W02
 BYTE   W01
 BYTE   W02
 BYTE   W01
 BYTE   W02
 BYTE   W01
 BYTE   W02
 BYTE   W01
 BYTE   W02
 BYTE   W01
 BYTE   W01
 BYTE   W02
 BYTE   W01
 BYTE   W02
 BYTE   W01
 BYTE   W02
 BYTE   W01
 BYTE   W02
 BYTE   W01
 BYTE   W02
 BYTE   W01
 BYTE   W01
 BYTE   W02
 BYTE   W01
 BYTE   W02
 BYTE   W01
 BYTE   W02
 BYTE   W01
 BYTE   W02
 BYTE   W01
 BYTE   W02
//  #08 //032   ----------------------------------------
 BYTE   W96
//  #08 //033   ----------------------------------------
 BYTE   W96
//  #08 //034   ----------------------------------------
 BYTE   W96
//  #08 //035   ----------------------------------------
 BYTE   W96
//  #08 //036   ----------------------------------------
 BYTE   W96
//  #08 //037   ----------------------------------------
 BYTE   W96
//  #08 //038   ----------------------------------------
 BYTE   W96
//  #08 //039   ----------------------------------------
 BYTE   W96
//  #08 //040   ----------------------------------------
 BYTE   W96
//  #08 //041   ----------------------------------------
 BYTE   W96
//  #08 //042   ----------------------------------------
 BYTE   W96
//  #08 //043   ----------------------------------------
 BYTE   W96
//  #08 //044   ----------------------------------------
 BYTE   W96
//  #08 //045   ----------------------------------------
 BYTE   W96
//  #08 //046   ----------------------------------------
 BYTE   W96
//  #08 //047   ----------------------------------------
 BYTE   W96
//  #08 //048   ----------------------------------------
Label_01005010:
 BYTE   W96
//  #08 //049   ----------------------------------------
 BYTE   W96
//  #08 //050   ----------------------------------------
 BYTE   W96
//  #08 //051   ----------------------------------------
 BYTE   W96
//  #08 //052   ----------------------------------------
 BYTE   W96
//  #08 //053   ----------------------------------------
 BYTE   W96
//  #08 //054   ----------------------------------------
 BYTE   W96
//  #08 //055   ----------------------------------------
 BYTE   W96
//  #08 //056   ----------------------------------------
 BYTE   W96
//  #08 //057   ----------------------------------------
 BYTE   W96
//  #08 //058   ----------------------------------------
 BYTE   W96
//  #08 //059   ----------------------------------------
 BYTE   W96
//  #08 //060   ----------------------------------------
 BYTE   W96
//  #08 //061   ----------------------------------------
 BYTE   W96
//  #08 //062   ----------------------------------------
 BYTE   W96
//  #08 //063   ----------------------------------------
 BYTE   W96
//  #08 //064   ----------------------------------------
 BYTE   W96
//  #08 //065   ----------------------------------------
 BYTE   W96
//  #08 //066   ----------------------------------------
 BYTE   W96
//  #08 //067   ----------------------------------------
 BYTE   W96
//  #08 //068   ----------------------------------------
 BYTE   W96
//  #08 //069   ----------------------------------------
 BYTE   W96
//  #08 //070   ----------------------------------------
 BYTE   W96
//  #08 //071   ----------------------------------------
 BYTE   W96
//  #08 //072   ----------------------------------------
 BYTE   W96
//  #08 //073   ----------------------------------------
 BYTE   W96
//  #08 //074   ----------------------------------------
 BYTE   W96
//  #08 //075   ----------------------------------------
 BYTE   W96
//  #08 //076   ----------------------------------------
 BYTE   W96
//  #08 //077   ----------------------------------------
 BYTE   N92  Dn3  v036
 BYTE   W03
 BYTE   W04
 BYTE   W04
 BYTE   W03
 BYTE   W04
 BYTE   W04
 BYTE   W03
 BYTE   W04
 BYTE   W04
 BYTE   W04
 BYTE   W03
 BYTE   W04
 BYTE   W04
 BYTE   W03
 BYTE   W04
 BYTE   W04
 BYTE   W03
 BYTE   W04
 BYTE   W04
 BYTE   W04
 BYTE   W03
 BYTE   W04
 BYTE   W04
 BYTE   W03
 BYTE   W04
 BYTE   W04
//  #08 //078   ----------------------------------------
 BYTE   N44  Gn2  v060
 BYTE   N56  Dn3
 BYTE   W04
 BYTE   W03
 BYTE   W04
 BYTE   W04
 BYTE   W03
 BYTE   W04
 BYTE   W04
 BYTE   W03
 BYTE   W04
 BYTE   W04
 BYTE   W04
 BYTE   W03
 BYTE   W04
 BYTE   W04
 BYTE   W03
 BYTE   W04
 BYTE   W01
 BYTE   N17  En3  v076
 BYTE   W03
 BYTE   W03
 BYTE   W04
 BYTE   W04
 BYTE   W04
 BYTE   Gn3  v080
 BYTE   W18
//  #08 //079   ----------------------------------------
 BYTE   N92  Bn2  v052
 BYTE   N92  Dn3
 BYTE   N92  Gn3
 BYTE   N92  Bn3
 BYTE   W02
 BYTE   W02
 BYTE   W02
 BYTE   W02
 BYTE   W02
 BYTE   W02
 BYTE   W02
 BYTE   W02
 BYTE   W02
 BYTE   W02
 BYTE   W02
 BYTE   W02
 BYTE   W02
 BYTE   W02
 BYTE   W02
 BYTE   W02
 BYTE   W02
 BYTE   W02
 BYTE   W02
 BYTE   W02
 BYTE   W02
 BYTE   W02
 BYTE   W03
 BYTE   W02
 BYTE   W02
 BYTE   W02
 BYTE   W02
 BYTE   W02
 BYTE   W02
 BYTE   W02
 BYTE   W02
 BYTE   W02
 BYTE   W02
 BYTE   W02
 BYTE   W02
 BYTE   W02
 BYTE   W02
 BYTE   W02
 BYTE   W02
 BYTE   W02
 BYTE   W02
 BYTE   W02
 BYTE   W02
 BYTE   W02
 BYTE   W02
 BYTE   W03
 BYTE   W02
//  #08 //080   ----------------------------------------
 BYTE   W96
//  #08 //081   ----------------------------------------
 BYTE   W96
//  #08 //082   ----------------------------------------
 BYTE   W96
//  #08 //083   ----------------------------------------
 BYTE   W96
//  #08 //084   ----------------------------------------
 BYTE   W96
//  #08 //085   ----------------------------------------
 BYTE   W96
//  #08 //086   ----------------------------------------
 BYTE   W96
//  #08 //087   ----------------------------------------
 BYTE   W96
//  #08 //088   ----------------------------------------
 BYTE   W96
//  #08 //089   ----------------------------------------
 BYTE   W96
//  #08 //090   ----------------------------------------
 BYTE   W96
//  #08 //091   ----------------------------------------
 BYTE   W96
//  #08 //092   ----------------------------------------
 BYTE   W96
//  #08 //093   ----------------------------------------
 BYTE   W96
//  #08 //094   ----------------------------------------
 BYTE   W96
//  #08 //095   ----------------------------------------
 BYTE   W96
//  #08 //096   ----------------------------------------
 BYTE   GoTo
  POIN2 Label_01005010
//  #08 //097   ----------------------------------------
 BYTE   W96
//  #08 //098   ----------------------------------------
 BYTE   W96
//  #08 //099   ----------------------------------------
 BYTE   W96
//  #08 //100   ----------------------------------------
 BYTE   W96
//  #08 //101   ----------------------------------------
 BYTE   W96
//  #08 //102   ----------------------------------------
 BYTE   W96
 BYTE   FINE

//**************** Track 9 (Midi-Chn.8) ****************//

WhenMotherWasThere_009:
//  #09 //000   ----------------------------------------
 BYTE   KEYSH   WhenMotherWasThere_key+0
 BYTE   VOICE   4
 BYTE   VOL   40*WhenMotherWasThere_mvl/mxv
 BYTE   PAN   c_v+0
 BYTE   VOL   40*WhenMotherWasThere_mvl/mxv
 BYTE   PAN   c_v+0
 BYTE   N92  Dn2  v048
 BYTE   N92  Fn2
 BYTE   N92  An2
 BYTE   N92  Cn3  v080
 BYTE   W96
//  #09 //001   ----------------------------------------
Label_01005D63:
 BYTE   N32  Fn2  v048
 BYTE   N92  En3  v080
 BYTE   W36
 BYTE   N56  Dn2  v096
 BYTE   W60
 BYTE   PEND 
//  #09 //002   ----------------------------------------
Label_01005D6F:
 BYTE   N92  Cn2  v048
 BYTE   N92  En2
 BYTE   N92  Gn2
 BYTE   N92  Bn2
 BYTE   W96
 BYTE   PEND 
//  #09 //003   ----------------------------------------
Label_01005D7A:
 BYTE   N92  En2  v048
 BYTE   N92  Gn2
 BYTE   N32  Cn3  v096
 BYTE   N32  En3
 BYTE   W36
 BYTE   N32
 BYTE   N32  Gn3
 BYTE   W36
 BYTE   N23
 BYTE   N23  Bn3
 BYTE   W24
 BYTE   PEND 
//  #09 //004   ----------------------------------------
Label_01005D8E:
 BYTE   N92  Dn2  v048
 BYTE   N92  Fn2
 BYTE   N92  An2
 BYTE   N92  Cn3  v080
 BYTE   N92  En3  v096
 BYTE   W96
 BYTE   PEND 
//  #09 //005   ----------------------------------------
Label_01005D9D:
 BYTE   N68  Fn2  v048
 BYTE   N92  En3  v080
 BYTE   W72
 BYTE   N23  Dn2  v096
 BYTE   W24
 BYTE   PEND 
//  #09 //006   ----------------------------------------
Label_01005DA9:
 BYTE   N32  Cn2  v048
 BYTE   N32  En2
 BYTE   N32  Gn2
 BYTE   N32  Bn2
 BYTE   W36
 BYTE   N56  En2  v096
 BYTE   W36
 BYTE   N11  Bn2
 BYTE   W12
 BYTE   Cn3
 BYTE   W12
 BYTE   PEND 
//  #09 //007   ----------------------------------------
Label_01005DBD:
 BYTE   N32  En3  v096
 BYTE   W36
 BYTE   N11  Gn2
 BYTE   W24
 BYTE   N23  Gn3
 BYTE   W36
 BYTE   PEND 
//  #09 //008   ----------------------------------------
Label_01005DC8:
 BYTE   N92  Dn2  v048
 BYTE   N92  Fn2
 BYTE   N92  An2
 BYTE   N92  Cn3  v080
 BYTE   W96
 BYTE   PEND 
//  #09 //009   ----------------------------------------
Label_01005DD4:
 BYTE   N92  Fn2  v048
 BYTE   N92  En3  v080
 BYTE   W96
 BYTE   PEND 
//  #09 //010   ----------------------------------------
Label_01005DDC:
 BYTE   N68  Cn2  v048
 BYTE   N68  En2
 BYTE   N68  Gn2
 BYTE   N68  Bn2
 BYTE   N92  Dn3  v096
 BYTE   W72
 BYTE   N11  Gn2
 BYTE   W12
 BYTE   Bn2
 BYTE   W12
 BYTE   PEND 
//  #09 //011   ----------------------------------------
Label_01005DEF:
 BYTE   N32  En3  v096
 BYTE   W36
 BYTE   N32
 BYTE   N32  Gn3
 BYTE   W36
 BYTE   N23
 BYTE   N23  Bn3
 BYTE   W24
 BYTE   PEND 
//  #09 //012   ----------------------------------------
 BYTE   PATT
  POIN2 Label_01005D8E
//  #09 //013   ----------------------------------------
 BYTE   PATT
  POIN2 Label_01005DD4
//  #09 //014   ----------------------------------------
 BYTE   PATT
  POIN2 Label_01005D6F
//  #09 //015   ----------------------------------------
 BYTE   N32  Gn3  v096
 BYTE   W36
 BYTE   N23  Dn3
 BYTE   W24
 BYTE   N32  En3
 BYTE   W36
//  #09 //016   ----------------------------------------
Label_01005E15:
 BYTE   N92  Dn2  v040
 BYTE   N92  Fn2
 BYTE   N92  An2
 BYTE   N92  Cn3  v064
 BYTE   W96
 BYTE   PEND 
//  #09 //017   ----------------------------------------
Label_01005E21:
 BYTE   N32  Fn2  v040
 BYTE   N92  En3  v064
 BYTE   W36
 BYTE   N56  Dn2  v080
 BYTE   W60
 BYTE   PEND 
//  #09 //018   ----------------------------------------
Label_01005E2D:
 BYTE   N92  Cn2  v040
 BYTE   N92  En2
 BYTE   N92  Gn2
 BYTE   N92  Bn2
 BYTE   W96
 BYTE   PEND 
//  #09 //019   ----------------------------------------
Label_01005E38:
 BYTE   N92  En2  v040
 BYTE   N92  Gn2
 BYTE   N32  Cn3  v080
 BYTE   N32  En3
 BYTE   W36
 BYTE   N32
 BYTE   N32  Gn3
 BYTE   W36
 BYTE   N23
 BYTE   N23  Bn3
 BYTE   W24
 BYTE   PEND 
//  #09 //020   ----------------------------------------
Label_01005E4C:
 BYTE   N92  Dn2  v040
 BYTE   N92  Fn2
 BYTE   N92  An2
 BYTE   N92  Cn3  v064
 BYTE   N92  En3  v080
 BYTE   W96
 BYTE   PEND 
//  #09 //021   ----------------------------------------
Label_01005E5B:
 BYTE   N68  Fn2  v040
 BYTE   N92  En3  v064
 BYTE   W72
 BYTE   N23  Dn2  v080
 BYTE   W24
 BYTE   PEND 
//  #09 //022   ----------------------------------------
Label_01005E67:
 BYTE   N32  Cn2  v040
 BYTE   N32  En2
 BYTE   N32  Gn2
 BYTE   N32  Bn2
 BYTE   W36
 BYTE   N56  En2  v080
 BYTE   W36
 BYTE   N11  Bn2
 BYTE   W12
 BYTE   Cn3
 BYTE   W12
 BYTE   PEND 
//  #09 //023   ----------------------------------------
Label_01005E7B:
 BYTE   N32  En3  v080
 BYTE   W36
 BYTE   N11  Gn2
 BYTE   W24
 BYTE   N23  Gn3
 BYTE   W36
 BYTE   PEND 
//  #09 //024   ----------------------------------------
 BYTE   PATT
  POIN2 Label_01005E15
//  #09 //025   ----------------------------------------
Label_01005E8B:
 BYTE   N92  Fn2  v040
 BYTE   N92  En3  v064
 BYTE   W96
 BYTE   PEND 
//  #09 //026   ----------------------------------------
Label_01005E93:
 BYTE   N68  Cn2  v040
 BYTE   N68  En2
 BYTE   N68  Gn2
 BYTE   N68  Bn2
 BYTE   N92  Dn3  v080
 BYTE   W72
 BYTE   N11  Gn2
 BYTE   W12
 BYTE   Bn2
 BYTE   W12
 BYTE   PEND 
//  #09 //027   ----------------------------------------
Label_01005EA6:
 BYTE   N32  En3  v080
 BYTE   W36
 BYTE   N32
 BYTE   N32  Gn3
 BYTE   W36
 BYTE   N23
 BYTE   N23  Bn3
 BYTE   W24
 BYTE   PEND 
//  #09 //028   ----------------------------------------
 BYTE   PATT
  POIN2 Label_01005E4C
//  #09 //029   ----------------------------------------
 BYTE   PATT
  POIN2 Label_01005E8B
//  #09 //030   ----------------------------------------
 BYTE   PATT
  POIN2 Label_01005E2D
//  #09 //031   ----------------------------------------
Label_01005EC2:
 BYTE   N32  Gn3  v080
 BYTE   W36
 BYTE   N23  Dn3
 BYTE   W24
 BYTE   N32  En3
 BYTE   W36
 BYTE   PEND 
//  #09 //032   ----------------------------------------
 BYTE   PATT
  POIN2 Label_01005E15
//  #09 //033   ----------------------------------------
 BYTE   PATT
  POIN2 Label_01005E21
//  #09 //034   ----------------------------------------
 BYTE   PATT
  POIN2 Label_01005E2D
//  #09 //035   ----------------------------------------
 BYTE   PATT
  POIN2 Label_01005E38
//  #09 //036   ----------------------------------------
 BYTE   PATT
  POIN2 Label_01005E4C
//  #09 //037   ----------------------------------------
 BYTE   PATT
  POIN2 Label_01005E5B
//  #09 //038   ----------------------------------------
 BYTE   PATT
  POIN2 Label_01005E67
//  #09 //039   ----------------------------------------
 BYTE   PATT
  POIN2 Label_01005E7B
//  #09 //040   ----------------------------------------
 BYTE   PATT
  POIN2 Label_01005E15
//  #09 //041   ----------------------------------------
 BYTE   PATT
  POIN2 Label_01005E8B
//  #09 //042   ----------------------------------------
 BYTE   PATT
  POIN2 Label_01005E93
//  #09 //043   ----------------------------------------
 BYTE   PATT
  POIN2 Label_01005EA6
//  #09 //044   ----------------------------------------
 BYTE   PATT
  POIN2 Label_01005E4C
//  #09 //045   ----------------------------------------
 BYTE   PATT
  POIN2 Label_01005E8B
//  #09 //046   ----------------------------------------
 BYTE   PATT
  POIN2 Label_01005E2D
//  #09 //047   ----------------------------------------
 BYTE   PATT
  POIN2 Label_01005EC2
//  #09 //048   ----------------------------------------
Label_01005F1D:
//  #09 //049   ----------------------------------------
 BYTE   PATT
  POIN2 Label_01005E15
//  #09 //050   ----------------------------------------
 BYTE   PATT
  POIN2 Label_01005E21
//  #09 //051   ----------------------------------------
 BYTE   PATT
  POIN2 Label_01005E2D
//  #09 //052   ----------------------------------------
 BYTE   PATT
  POIN2 Label_01005E38
//  #09 //053   ----------------------------------------
 BYTE   PATT
  POIN2 Label_01005E4C
//  #09 //054   ----------------------------------------
 BYTE   PATT
  POIN2 Label_01005E5B
//  #09 //055   ----------------------------------------
 BYTE   PATT
  POIN2 Label_01005E67
//  #09 //056   ----------------------------------------
 BYTE   PATT
  POIN2 Label_01005E7B
//  #09 //057   ----------------------------------------
 BYTE   PATT
  POIN2 Label_01005E15
//  #09 //058   ----------------------------------------
 BYTE   PATT
  POIN2 Label_01005E8B
//  #09 //059   ----------------------------------------
 BYTE   PATT
  POIN2 Label_01005E93
//  #09 //060   ----------------------------------------
 BYTE   PATT
  POIN2 Label_01005EA6
//  #09 //061   ----------------------------------------
Label_01005F59:
 BYTE   TIE  Dn2  v040
 BYTE   TIE  Fn2
 BYTE   TIE  An2
 BYTE   TIE  Cn3  v064
 BYTE   N92  En3  v080
 BYTE   W96
 BYTE   PEND 
//  #09 //062   ----------------------------------------
Label_01005F68:
 BYTE   N92  En3  v064
 BYTE   W92
 BYTE   W03
 BYTE   PEND 
 BYTE   EOT
 BYTE   Dn2  v053
 BYTE   An2  v060
 BYTE   W01
//  #09 //063   ----------------------------------------
Label_01005F74:
 BYTE   TIE  Cn2  v040
 BYTE   N92  En2
 BYTE   TIE  Gn2
 BYTE   TIE  Bn2
 BYTE   W96
 BYTE   PEND 
//  #09 //064   ----------------------------------------
Label_01005F7F:
 BYTE   N92  En2  v040
 BYTE   N32  Gn3  v080
 BYTE   W36
 BYTE   N23  Dn3
 BYTE   W24
 BYTE   N32  En3
 BYTE   W32
 BYTE   W03
 BYTE   PEND 
 BYTE   EOT
 BYTE   Cn2  v055
 BYTE   Bn2
 BYTE   W01
//  #09 //065   ----------------------------------------
 BYTE   PATT
  POIN2 Label_01005DC8
//  #09 //066   ----------------------------------------
 BYTE   PATT
  POIN2 Label_01005D63
//  #09 //067   ----------------------------------------
 BYTE   PATT
  POIN2 Label_01005D6F
//  #09 //068   ----------------------------------------
 BYTE   PATT
  POIN2 Label_01005D7A
//  #09 //069   ----------------------------------------
 BYTE   PATT
  POIN2 Label_01005D8E
//  #09 //070   ----------------------------------------
 BYTE   PATT
  POIN2 Label_01005D9D
//  #09 //071   ----------------------------------------
 BYTE   PATT
  POIN2 Label_01005DA9
//  #09 //072   ----------------------------------------
 BYTE   PATT
  POIN2 Label_01005DBD
//  #09 //073   ----------------------------------------
 BYTE   PATT
  POIN2 Label_01005DC8
//  #09 //074   ----------------------------------------
 BYTE   PATT
  POIN2 Label_01005DD4
//  #09 //075   ----------------------------------------
 BYTE   PATT
  POIN2 Label_01005DDC
//  #09 //076   ----------------------------------------
 BYTE   PATT
  POIN2 Label_01005DEF
//  #09 //077   ----------------------------------------
 BYTE   TIE  Dn2  v048
 BYTE   TIE  Fn2
 BYTE   TIE  An2
 BYTE   TIE  Cn3  v080
 BYTE   N92  En3  v096
 BYTE   W96
//  #09 //078   ----------------------------------------
 BYTE   En3  v080
 BYTE   W92
 BYTE   W03
 BYTE   EOT
 BYTE   Dn2  v053
 BYTE   An2  v060
 BYTE   W01
//  #09 //079   ----------------------------------------
 BYTE   TIE  Cn2  v048
 BYTE   N92  En2
 BYTE   TIE  Gn2
 BYTE   TIE  Bn2
 BYTE   W96
//  #09 //080   ----------------------------------------
 BYTE   N92  En2
 BYTE   N32  Gn3  v096
 BYTE   W36
 BYTE   N23  Dn3
 BYTE   W24
 BYTE   N32  En3
 BYTE   W32
 BYTE   W03
 BYTE   EOT
 BYTE   Cn2  v055
 BYTE   Bn2
 BYTE   W01
//  #09 //081   ----------------------------------------
 BYTE   PATT
  POIN2 Label_01005E15
//  #09 //082   ----------------------------------------
 BYTE   PATT
  POIN2 Label_01005E21
//  #09 //083   ----------------------------------------
 BYTE   PATT
  POIN2 Label_01005E2D
//  #09 //084   ----------------------------------------
 BYTE   PATT
  POIN2 Label_01005E38
//  #09 //085   ----------------------------------------
 BYTE   PATT
  POIN2 Label_01005E4C
//  #09 //086   ----------------------------------------
 BYTE   PATT
  POIN2 Label_01005E5B
//  #09 //087   ----------------------------------------
 BYTE   PATT
  POIN2 Label_01005E67
//  #09 //088   ----------------------------------------
 BYTE   PATT
  POIN2 Label_01005E7B
//  #09 //089   ----------------------------------------
 BYTE   PATT
  POIN2 Label_01005E15
//  #09 //090   ----------------------------------------
 BYTE   PATT
  POIN2 Label_01005E8B
//  #09 //091   ----------------------------------------
 BYTE   PATT
  POIN2 Label_01005E93
//  #09 //092   ----------------------------------------
 BYTE   PATT
  POIN2 Label_01005EA6
//  #09 //093   ----------------------------------------
 BYTE   PATT
  POIN2 Label_01005F59
//  #09 //094   ----------------------------------------
 BYTE   PATT
  POIN2 Label_01005F68
//  #09 //095   ----------------------------------------
 BYTE   EOT
 BYTE   Dn2  v053
 BYTE   An2  v060
 BYTE   W01
//  #09 //096   ----------------------------------------
 BYTE   PATT
  POIN2 Label_01005F74
//  #09 //097   ----------------------------------------
 BYTE   PATT
  POIN2 Label_01005F7F
//  #09 //098   ----------------------------------------
 BYTE   EOT
 BYTE   Cn2  v055
 BYTE   Bn2
 BYTE   W01
 BYTE   GoTo
  POIN2 Label_01005F1D
//  #09 //099   ----------------------------------------
 BYTE   PATT
  POIN2 Label_01005E15
//  #09 //100   ----------------------------------------
 BYTE   N32  Fn2  v036
 BYTE   N92  En3  v056
 BYTE   W36
 BYTE   N56  Dn2  v068
 BYTE   W60
//  #09 //101   ----------------------------------------
 BYTE   N92  Cn2  v032
 BYTE   N92  En2
 BYTE   N92  Gn2
 BYTE   N92  Bn2
 BYTE   W96
//  #09 //102   ----------------------------------------
 BYTE   En2  v024
 BYTE   N92  Gn2
 BYTE   N32  Cn3  v048
 BYTE   N32  En3
 BYTE   W36
 BYTE   En3  v044
 BYTE   N32  Gn3
 BYTE   W36
 BYTE   N23  Gn3  v040
 BYTE   N23  Bn3
 BYTE   W24
//  #09 //103   ----------------------------------------
 BYTE   N92  Dn2  v020
 BYTE   N92  Fn2
 BYTE   N92  An2
 BYTE   N92  Cn3  v032
 BYTE   N92  En3  v040
 BYTE   W96
//  #09 //104   ----------------------------------------
 BYTE   N68  Fn2  v016
 BYTE   N92  En3  v024
 BYTE   W72
 BYTE   N23  Dn2  v020
 BYTE   W24
 BYTE   FINE

//**************** Track 10 (Midi-Chn.9) ****************//

WhenMotherWasThere_010:
//  #10 //000   ----------------------------------------
 BYTE   KEYSH   WhenMotherWasThere_key+0
 BYTE   VOICE   124
 BYTE   VOL   40*WhenMotherWasThere_mvl/mxv
 BYTE   PAN   c_v+0
 BYTE   VOL   40*WhenMotherWasThere_mvl/mxv
 BYTE   PAN   c_v+0
 BYTE   VOL   40*WhenMotherWasThere_mvl/mxv
 BYTE   PAN   c_v+0
 BYTE   N11  Cn1  v068
 BYTE   N11  En3  v096
 BYTE   N11  Bn4  v024
 BYTE   W12
 BYTE   N05  Dn3  v096
 BYTE   N11  Bn4  v024
 BYTE   W06
 BYTE   N05  Cn1  v068
 BYTE   N05  Dn3  v096
 BYTE   N05  En3
 BYTE   W06
 BYTE   N11  Bn4  v024
 BYTE   W06
 BYTE   N05  Ds3  v096
 BYTE   W06
 BYTE   Cn1  v068
 BYTE   N11  Bn4  v024
 BYTE   W06
 BYTE   N05  Cn1  v068
 BYTE   N05  En3  v096
 BYTE   W06
 BYTE   N11  Bn4  v024
 BYTE   W06
 BYTE   N05  Dn3  v096
 BYTE   W06
 BYTE   N11  Cn1  v068
 BYTE   N11  Dn3  v096
 BYTE   N11  En3
 BYTE   N11  Bn4  v024
 BYTE   W12
 BYTE   N05  CnM2  v080
 BYTE   N11  Dn3  v096
 BYTE   N11  Bn4  v024
 BYTE   W06
 BYTE   N05  CnM2  v080
 BYTE   W06
 BYTE   N05
 BYTE   N11  Cn1  v068
 BYTE   N11  Bn4  v024
 BYTE   W06
 BYTE   N05  CnM2  v080
 BYTE   W06
//  #10 //001   ----------------------------------------
Label_01006129:
 BYTE   N11  Cn1  v068
 BYTE   N11  En3  v096
 BYTE   N11  Bn4  v024
 BYTE   W12
 BYTE   N05  Dn3  v096
 BYTE   N11  Bn4  v024
 BYTE   W06
 BYTE   N05  Cn1  v068
 BYTE   N05  Dn3  v096
 BYTE   N05  En3
 BYTE   W06
 BYTE   N11  Bn4  v024
 BYTE   W06
 BYTE   N05  Ds3  v096
 BYTE   W06
 BYTE   Cn1  v068
 BYTE   N11  Bn4  v024
 BYTE   W06
 BYTE   N05  Cn1  v068
 BYTE   N05  En3  v096
 BYTE   W06
 BYTE   N11  Bn4  v024
 BYTE   W06
 BYTE   N17  CnM2  v080
 BYTE   N05  Dn3  v096
 BYTE   W06
 BYTE   N11  Cn1  v068
 BYTE   N11  Dn3  v096
 BYTE   N11  En3
 BYTE   N11  Bn4  v024
 BYTE   W12
 BYTE   N05  CnM2  v080
 BYTE   N05  Dn3  v096
 BYTE   N11  Bn4  v024
 BYTE   W06
 BYTE   N05  CnM2  v080
 BYTE   N05  Dn3  v096
 BYTE   W06
 BYTE   CnM2  v080
 BYTE   N05  Cn1  v068
 BYTE   N05  Dn3  v096
 BYTE   N11  Bn4  v024
 BYTE   W06
 BYTE   N05  CnM2  v080
 BYTE   N05  Dn3  v096
 BYTE   W06
 BYTE   PEND 
//  #10 //002   ----------------------------------------
Label_01006194:
 BYTE   N11  Cn1  v068
 BYTE   N11  En3  v096
 BYTE   N11  Bn4  v024
 BYTE   W12
 BYTE   N05  Dn3  v096
 BYTE   N11  Bn4  v024
 BYTE   W06
 BYTE   N05  Cn1  v068
 BYTE   N05  Dn3  v096
 BYTE   N05  En3
 BYTE   W06
 BYTE   N11  Bn4  v024
 BYTE   W06
 BYTE   N05  Ds3  v096
 BYTE   W06
 BYTE   Cn1  v068
 BYTE   N11  Bn4  v024
 BYTE   W06
 BYTE   N05  Cn1  v068
 BYTE   N05  En3  v096
 BYTE   W06
 BYTE   N11  Bn4  v024
 BYTE   W06
 BYTE   N05  Dn3  v096
 BYTE   W06
 BYTE   N11  Cn1  v068
 BYTE   N11  Dn3  v096
 BYTE   N11  En3
 BYTE   N11  Bn4  v024
 BYTE   W12
 BYTE   N05  CnM2  v080
 BYTE   N11  Dn3  v096
 BYTE   N11  Bn4  v024
 BYTE   W06
 BYTE   N05  CnM2  v080
 BYTE   W06
 BYTE   N05
 BYTE   N11  Cn1  v068
 BYTE   N11  Bn4  v024
 BYTE   W06
 BYTE   N05  CnM2  v080
 BYTE   W06
 BYTE   PEND 
//  #10 //003   ----------------------------------------
 BYTE   PATT
  POIN2 Label_01006129
//  #10 //004   ----------------------------------------
 BYTE   PATT
  POIN2 Label_01006194
//  #10 //005   ----------------------------------------
 BYTE   PATT
  POIN2 Label_01006129
//  #10 //006   ----------------------------------------
 BYTE   PATT
  POIN2 Label_01006194
//  #10 //007   ----------------------------------------
 BYTE   N11  Cn1  v068
 BYTE   N11  En3  v096
 BYTE   N11  Bn4  v024
 BYTE   W12
 BYTE   N05  Dn3  v096
 BYTE   N11  Bn4  v024
 BYTE   W06
 BYTE   N05  Cn1  v068
 BYTE   N05  Dn3  v096
 BYTE   N05  En3
 BYTE   W06
 BYTE   N11  Bn4  v024
 BYTE   W06
 BYTE   N05  Ds3  v096
 BYTE   W06
 BYTE   Cn1  v068
 BYTE   N11  Bn4  v024
 BYTE   W06
 BYTE   N05  Cn1  v068
 BYTE   N05  En3  v096
 BYTE   W06
 BYTE   N11  Bn4  v024
 BYTE   W06
 BYTE   N17  CnM2  v080
 BYTE   N05  Dn3  v096
 BYTE   W06
 BYTE   N11  Cn1  v068
 BYTE   N11  Dn3  v096
 BYTE   N11  En3
 BYTE   N11  Bn4  v024
 BYTE   W06
 BYTE   N05  Dn1  v048
 BYTE   W06
 BYTE   CnM2  v080
 BYTE   N05  En1  v127
 BYTE   N05  Dn3  v096
 BYTE   N11  Bn4  v024
 BYTE   W06
 BYTE   N05  CnM2  v080
 BYTE   N05  Dn1  v127
 BYTE   N05  Dn3  v096
 BYTE   W06
 BYTE   CnM2  v080
 BYTE   N05  Cn1  v068
 BYTE   N02  Dn1  v096
 BYTE   N05  Dn3
 BYTE   N11  Bn4  v024
 BYTE   W03
 BYTE   N02  Dn1  v096
 BYTE   W03
 BYTE   N05  CnM2  v080
 BYTE   N02  Dn1  v096
 BYTE   N05  Dn3
 BYTE   W03
 BYTE   N02  En1  v127
 BYTE   W03
//  #10 //008   ----------------------------------------
Label_01006285:
 BYTE   N11  Cn1  v068
 BYTE   N11  Cn1  v096
 BYTE   N11  Cs2
 BYTE   N11  En3
 BYTE   N11  Bn4  v024
 BYTE   W12
 BYTE   Fs1  v096
 BYTE   N05  Dn3
 BYTE   N11  Bn4  v024
 BYTE   W06
 BYTE   N05  Cn1  v068
 BYTE   N05  Dn3  v096
 BYTE   N05  En3
 BYTE   W06
 BYTE   N11  Dn1  v116
 BYTE   N11  Fs1  v096
 BYTE   N11  Bn4  v024
 BYTE   W06
 BYTE   N05  Ds3  v096
 BYTE   W06
 BYTE   Cn1  v068
 BYTE   N05  Fs1  v096
 BYTE   N11  Bn4  v024
 BYTE   W06
 BYTE   N05  Cn1  v068
 BYTE   N05  Cn1  v096
 BYTE   N05  Dn1  v048
 BYTE   N05  En3  v096
 BYTE   W06
 BYTE   Fs1
 BYTE   N11  Bn4  v024
 BYTE   W06
 BYTE   N05  Dn1  v048
 BYTE   N05  Dn3  v096
 BYTE   W06
 BYTE   N11  Cn1  v068
 BYTE   N11  Cn1  v096
 BYTE   N11  Fs1
 BYTE   N11  Dn3
 BYTE   N11  En3
 BYTE   N11  Bn4  v024
 BYTE   W12
 BYTE   N05  CnM2  v080
 BYTE   N11  Dn1  v116
 BYTE   N11  Fs1  v096
 BYTE   N11  Dn3
 BYTE   N11  Bn4  v024
 BYTE   W06
 BYTE   N05  CnM2  v080
 BYTE   W06
 BYTE   N05
 BYTE   N11  Cn1  v068
 BYTE   N05  Fs1  v096
 BYTE   N11  Bn4  v024
 BYTE   W06
 BYTE   N05  CnM2  v080
 BYTE   N05  Dn1  v048
 BYTE   W06
 BYTE   PEND 
//  #10 //009   ----------------------------------------
Label_0100630A:
 BYTE   N11  Cn1  v068
 BYTE   N11  Cn1  v096
 BYTE   N11  Fs1
 BYTE   N11  En3
 BYTE   N11  Bn4  v024
 BYTE   W12
 BYTE   Fs1  v096
 BYTE   N05  Dn3
 BYTE   N11  Bn4  v024
 BYTE   W06
 BYTE   N05  Cn1  v068
 BYTE   N05  Dn3  v096
 BYTE   N05  En3
 BYTE   W06
 BYTE   N11  Dn1  v116
 BYTE   N11  Fs1  v096
 BYTE   N11  Bn4  v024
 BYTE   W06
 BYTE   N05  Ds3  v096
 BYTE   W06
 BYTE   Cn1  v068
 BYTE   N05  Fs1  v096
 BYTE   N11  Bn4  v024
 BYTE   W06
 BYTE   N05  Cn1  v068
 BYTE   N05  Cn1  v096
 BYTE   N05  Dn1  v048
 BYTE   N05  En3  v096
 BYTE   W06
 BYTE   Fs1
 BYTE   N11  Bn4  v024
 BYTE   W06
 BYTE   N17  CnM2  v080
 BYTE   N05  Dn1  v048
 BYTE   N05  Dn3  v096
 BYTE   W06
 BYTE   N11  Cn1  v068
 BYTE   N11  Cn1  v096
 BYTE   N11  Fs1
 BYTE   N11  Dn3
 BYTE   N11  En3
 BYTE   N11  Bn4  v024
 BYTE   W12
 BYTE   N05  CnM2  v080
 BYTE   N11  Dn1  v116
 BYTE   N11  Fs1  v096
 BYTE   N05  Dn3
 BYTE   N11  Bn4  v024
 BYTE   W06
 BYTE   N05  CnM2  v080
 BYTE   N05  Dn3  v096
 BYTE   W06
 BYTE   CnM2  v080
 BYTE   N05  Cn1  v068
 BYTE   N05  Fs1  v096
 BYTE   N05  Dn3
 BYTE   N11  Bn4  v024
 BYTE   W06
 BYTE   N05  CnM2  v080
 BYTE   N02  Dn1  v048
 BYTE   N05  Dn3  v096
 BYTE   W03
 BYTE   N02  Dn1  v048
 BYTE   W03
 BYTE   PEND 
//  #10 //010   ----------------------------------------
Label_0100639F:
 BYTE   N11  Cn1  v068
 BYTE   N11  Cn1  v096
 BYTE   N11  Fs1
 BYTE   N11  En3
 BYTE   N11  Bn4  v024
 BYTE   W12
 BYTE   Fs1  v096
 BYTE   N05  Dn3
 BYTE   N11  Bn4  v024
 BYTE   W06
 BYTE   N05  Cn1  v068
 BYTE   N05  Dn3  v096
 BYTE   N05  En3
 BYTE   W06
 BYTE   N11  Dn1  v116
 BYTE   N11  Fs1  v096
 BYTE   N11  Bn4  v024
 BYTE   W06
 BYTE   N05  Ds3  v096
 BYTE   W06
 BYTE   Cn1  v068
 BYTE   N05  Fs1  v096
 BYTE   N11  Bn4  v024
 BYTE   W06
 BYTE   N05  Cn1  v068
 BYTE   N05  Cn1  v096
 BYTE   N05  Dn1  v048
 BYTE   N05  En3  v096
 BYTE   W06
 BYTE   Fs1
 BYTE   N11  Bn4  v024
 BYTE   W06
 BYTE   N05  Dn1  v048
 BYTE   N05  Dn3  v096
 BYTE   W06
 BYTE   N11  Cn1  v068
 BYTE   N11  Cn1  v096
 BYTE   N11  Fs1
 BYTE   N11  Dn3
 BYTE   N11  En3
 BYTE   N11  Bn4  v024
 BYTE   W12
 BYTE   N05  CnM2  v080
 BYTE   N11  Dn1  v116
 BYTE   N11  Fs1  v096
 BYTE   N11  Dn3
 BYTE   N11  Bn4  v024
 BYTE   W06
 BYTE   N05  CnM2  v080
 BYTE   W06
 BYTE   N05
 BYTE   N11  Cn1  v068
 BYTE   N05  Fs1  v096
 BYTE   N11  Bn4  v024
 BYTE   W06
 BYTE   N05  CnM2  v080
 BYTE   N05  Dn1  v048
 BYTE   W06
 BYTE   PEND 
//  #10 //011   ----------------------------------------
 BYTE   PATT
  POIN2 Label_0100630A
//  #10 //012   ----------------------------------------
 BYTE   PATT
  POIN2 Label_0100639F
//  #10 //013   ----------------------------------------
 BYTE   PATT
  POIN2 Label_0100630A
//  #10 //014   ----------------------------------------
 BYTE   PATT
  POIN2 Label_0100639F
//  #10 //015   ----------------------------------------
 BYTE   PATT
  POIN2 Label_0100630A
//  #10 //016   ----------------------------------------
 BYTE   N11  Cn1  v068
 BYTE   N11  Cn1  v080
 BYTE   N11  Cs2
 BYTE   N11  En3  v096
 BYTE   N11  Bn4  v024
 BYTE   W12
 BYTE   Fs1  v080
 BYTE   N05  Dn3  v096
 BYTE   N11  Bn4  v024
 BYTE   W06
 BYTE   N05  Cn1  v068
 BYTE   N05  Dn3  v096
 BYTE   N05  En3
 BYTE   W06
 BYTE   N11  Dn1
 BYTE   N11  Fs1  v080
 BYTE   N11  Bn4  v024
 BYTE   W06
 BYTE   N05  Ds3  v096
 BYTE   W06
 BYTE   Cn1  v068
 BYTE   N05  Fs1  v080
 BYTE   N11  Bn4  v024
 BYTE   W06
 BYTE   N05  Cn1  v068
 BYTE   N05  Cn1  v080
 BYTE   N05  Dn1  v040
 BYTE   N05  En3  v096
 BYTE   W06
 BYTE   Fs1  v080
 BYTE   N11  Bn4  v024
 BYTE   W06
 BYTE   N05  Dn1  v040
 BYTE   N05  Dn3  v096
 BYTE   W06
 BYTE   N11  Cn1  v068
 BYTE   N11  Cn1  v080
 BYTE   N11  Fs1
 BYTE   N11  Dn3  v096
 BYTE   N11  En3
 BYTE   N11  Bn4  v024
 BYTE   W12
 BYTE   N05  CnM2  v080
 BYTE   N11  Dn1  v096
 BYTE   N11  Fs1  v080
 BYTE   N11  Dn3  v096
 BYTE   N11  Bn4  v024
 BYTE   W06
 BYTE   N05  CnM2  v080
 BYTE   W06
 BYTE   N05
 BYTE   N11  Cn1  v068
 BYTE   N05  Fs1  v080
 BYTE   N11  Bn4  v024
 BYTE   W06
 BYTE   N05  CnM2  v080
 BYTE   N05  Dn1  v040
 BYTE   W06
//  #10 //017   ----------------------------------------
Label_010064C5:
 BYTE   N11  Cn1  v068
 BYTE   N11  Cn1  v080
 BYTE   N11  Fs1
 BYTE   N11  En3  v096
 BYTE   N11  Bn4  v024
 BYTE   W12
 BYTE   Fs1  v080
 BYTE   N05  Dn3  v096
 BYTE   N11  Bn4  v024
 BYTE   W06
 BYTE   N05  Cn1  v068
 BYTE   N05  Dn3  v096
 BYTE   N05  En3
 BYTE   W06
 BYTE   N11  Dn1
 BYTE   N11  Fs1  v080
 BYTE   N11  Bn4  v024
 BYTE   W06
 BYTE   N05  Ds3  v096
 BYTE   W06
 BYTE   Cn1  v068
 BYTE   N05  Fs1  v080
 BYTE   N11  Bn4  v024
 BYTE   W06
 BYTE   N05  Cn1  v068
 BYTE   N05  Cn1  v080
 BYTE   N05  Dn1  v040
 BYTE   N05  En3  v096
 BYTE   W06
 BYTE   Fs1  v080
 BYTE   N11  Bn4  v024
 BYTE   W06
 BYTE   N17  CnM2  v080
 BYTE   N05  Dn1  v040
 BYTE   N05  Dn3  v096
 BYTE   W06
 BYTE   N11  Cn1  v068
 BYTE   N11  Cn1  v080
 BYTE   N11  Fs1
 BYTE   N11  Dn3  v096
 BYTE   N11  En3
 BYTE   N11  Bn4  v024
 BYTE   W12
 BYTE   N05  CnM2  v080
 BYTE   N11  Dn1  v096
 BYTE   N11  Fs1  v080
 BYTE   N05  Dn3  v096
 BYTE   N11  Bn4  v024
 BYTE   W06
 BYTE   N05  CnM2  v080
 BYTE   N05  Dn3  v096
 BYTE   W06
 BYTE   CnM2  v080
 BYTE   N05  Cn1  v068
 BYTE   N05  Fs1  v080
 BYTE   N05  Dn3  v096
 BYTE   N11  Bn4  v024
 BYTE   W06
 BYTE   N05  CnM2  v080
 BYTE   N02  Dn1  v040
 BYTE   N05  Dn3  v096
 BYTE   W03
 BYTE   N02  Dn1  v040
 BYTE   W03
 BYTE   PEND 
//  #10 //018   ----------------------------------------
Label_0100655F:
 BYTE   N11  Cn1  v068
 BYTE   N11  Cn1  v080
 BYTE   N11  Fs1
 BYTE   N11  En3  v096
 BYTE   N11  Bn4  v024
 BYTE   W12
 BYTE   Fs1  v080
 BYTE   N05  Dn3  v096
 BYTE   N11  Bn4  v024
 BYTE   W06
 BYTE   N05  Cn1  v068
 BYTE   N05  Dn3  v096
 BYTE   N05  En3
 BYTE   W06
 BYTE   N11  Dn1
 BYTE   N11  Fs1  v080
 BYTE   N11  Bn4  v024
 BYTE   W06
 BYTE   N05  Ds3  v096
 BYTE   W06
 BYTE   Cn1  v068
 BYTE   N05  Fs1  v080
 BYTE   N11  Bn4  v024
 BYTE   W06
 BYTE   N05  Cn1  v068
 BYTE   N05  Cn1  v080
 BYTE   N05  Dn1  v040
 BYTE   N05  En3  v096
 BYTE   W06
 BYTE   Fs1  v080
 BYTE   N11  Bn4  v024
 BYTE   W06
 BYTE   N05  Dn1  v040
 BYTE   N05  Dn3  v096
 BYTE   W06
 BYTE   N11  Cn1  v068
 BYTE   N11  Cn1  v080
 BYTE   N11  Fs1
 BYTE   N11  Dn3  v096
 BYTE   N11  En3
 BYTE   N11  Bn4  v024
 BYTE   W12
 BYTE   N05  CnM2  v080
 BYTE   N11  Dn1  v096
 BYTE   N11  Fs1  v080
 BYTE   N11  Dn3  v096
 BYTE   N11  Bn4  v024
 BYTE   W06
 BYTE   N05  CnM2  v080
 BYTE   W06
 BYTE   N05
 BYTE   N11  Cn1  v068
 BYTE   N05  Fs1  v080
 BYTE   N11  Bn4  v024
 BYTE   W06
 BYTE   N05  CnM2  v080
 BYTE   N05  Dn1  v040
 BYTE   W06
 BYTE   PEND 
//  #10 //019   ----------------------------------------
 BYTE   PATT
  POIN2 Label_010064C5
//  #10 //020   ----------------------------------------
 BYTE   PATT
  POIN2 Label_0100655F
//  #10 //021   ----------------------------------------
 BYTE   PATT
  POIN2 Label_010064C5
//  #10 //022   ----------------------------------------
 BYTE   PATT
  POIN2 Label_0100655F
//  #10 //023   ----------------------------------------
 BYTE   N11  Cn1  v068
 BYTE   N11  Cn1  v080
 BYTE   N11  Fs1
 BYTE   N11  En3  v096
 BYTE   N11  Bn4  v024
 BYTE   W12
 BYTE   Fs1  v080
 BYTE   N05  Dn3  v096
 BYTE   N11  Bn4  v024
 BYTE   W06
 BYTE   N05  Cn1  v068
 BYTE   N05  Dn3  v096
 BYTE   N05  En3
 BYTE   W06
 BYTE   N11  Dn1
 BYTE   N11  Fs1  v080
 BYTE   N11  Bn4  v024
 BYTE   W06
 BYTE   N05  Ds3  v096
 BYTE   W06
 BYTE   Cn1  v068
 BYTE   N05  Fs1  v080
 BYTE   N11  Bn4  v024
 BYTE   W06
 BYTE   N05  Cn1  v068
 BYTE   N05  Cn1  v080
 BYTE   N05  Dn1  v040
 BYTE   N05  En3  v096
 BYTE   W06
 BYTE   Fs1  v080
 BYTE   N11  Bn4  v024
 BYTE   W06
 BYTE   N17  CnM2  v080
 BYTE   N05  Dn1  v040
 BYTE   N05  Dn3  v096
 BYTE   W06
 BYTE   N11  Cn1  v068
 BYTE   N11  Cn1  v080
 BYTE   N11  Fs1
 BYTE   N11  Dn3  v096
 BYTE   N11  En3
 BYTE   N11  Bn4  v024
 BYTE   W12
 BYTE   N05  CnM2  v080
 BYTE   N11  Dn1  v096
 BYTE   N11  Fs1  v080
 BYTE   N05  Dn3  v096
 BYTE   N11  Bn4  v024
 BYTE   W06
 BYTE   N05  CnM2  v080
 BYTE   N05  Dn3  v096
 BYTE   W06
 BYTE   CnM2  v080
 BYTE   N05  Cn1  v068
 BYTE   N05  Fs1  v080
 BYTE   N05  Dn3  v096
 BYTE   N11  Bn4  v024
 BYTE   W06
 BYTE   N05  CnM2  v080
 BYTE   N02  Dn1  v040
 BYTE   N05  Dn3  v096
 BYTE   W03
 BYTE   N02  Dn1  v040
 BYTE   W03
//  #10 //024   ----------------------------------------
 BYTE   N11  Cn1  v068
 BYTE   N11  Cn1  v080
 BYTE   N11  Cs2
 BYTE   N11  En3  v096
 BYTE   N11  Bn4  v024
 BYTE   W12
 BYTE   Fs1  v080
 BYTE   N05  Dn3  v096
 BYTE   N11  Bn4  v024
 BYTE   W06
 BYTE   N05  Cn1  v068
 BYTE   N05  Dn3  v096
 BYTE   N05  En3
 BYTE   W06
 BYTE   N11  Dn1
 BYTE   N11  Fs1  v080
 BYTE   N11  Bn4  v024
 BYTE   W06
 BYTE   N05  Ds3  v096
 BYTE   W06
 BYTE   Cn1  v068
 BYTE   N05  Fs1  v080
 BYTE   N11  Bn4  v024
 BYTE   W06
 BYTE   N05  Cn1  v068
 BYTE   N05  Cn1  v080
 BYTE   N05  Dn1  v040
 BYTE   N05  En3  v096
 BYTE   W06
 BYTE   Fs1  v080
 BYTE   N11  Bn4  v024
 BYTE   W06
 BYTE   N05  Dn1  v040
 BYTE   N05  Dn3  v096
 BYTE   W06
 BYTE   N11  Cn1  v068
 BYTE   N11  Cn1  v080
 BYTE   N11  Fs1
 BYTE   N11  Dn3  v096
 BYTE   N11  En3
 BYTE   N11  Bn4  v024
 BYTE   W12
 BYTE   N05  CnM2  v080
 BYTE   N11  Dn1  v096
 BYTE   N11  Fs1  v080
 BYTE   N11  Dn3  v096
 BYTE   N11  Bn4  v024
 BYTE   W06
 BYTE   N05  CnM2  v080
 BYTE   W06
 BYTE   N05
 BYTE   N11  Cn1  v068
 BYTE   N05  Fs1  v080
 BYTE   N11  Bn4  v024
 BYTE   W06
 BYTE   N05  CnM2  v080
 BYTE   N05  Dn1  v040
 BYTE   W06
//  #10 //025   ----------------------------------------
Label_0100671D:
 BYTE   N11  Cn1  v068
 BYTE   N11  Cn1  v080
 BYTE   N11  Fs1
 BYTE   N11  En3  v096
 BYTE   N11  Bn4  v024
 BYTE   W12
 BYTE   Fs1  v080
 BYTE   N05  Dn3  v096
 BYTE   N11  Bn4  v024
 BYTE   W06
 BYTE   N05  Cn1  v068
 BYTE   N05  Dn3  v096
 BYTE   N05  En3
 BYTE   W06
 BYTE   N11  Dn1
 BYTE   N11  Fs1  v080
 BYTE   N11  Bn4  v024
 BYTE   W06
 BYTE   N05  Ds3  v096
 BYTE   W06
 BYTE   Cn1  v068
 BYTE   N05  Fs1  v080
 BYTE   N11  Bn4  v024
 BYTE   W06
 BYTE   N05  Cn1  v068
 BYTE   N05  Cn1  v080
 BYTE   N05  Dn1  v040
 BYTE   N05  En3  v096
 BYTE   W06
 BYTE   Fs1  v080
 BYTE   N11  Bn4  v024
 BYTE   W06
 BYTE   N17  CnM2  v080
 BYTE   N05  Dn1  v040
 BYTE   N05  Dn3  v096
 BYTE   W06
 BYTE   N11  Cn1  v068
 BYTE   N11  Cn1  v080
 BYTE   N11  Fs1
 BYTE   N11  Dn3  v096
 BYTE   N11  En3
 BYTE   N11  Bn4  v024
 BYTE   W12
 BYTE   N05  CnM2  v080
 BYTE   N11  Dn1  v096
 BYTE   N11  Fs1  v080
 BYTE   N05  Dn3  v096
 BYTE   N11  Bn4  v024
 BYTE   W06
 BYTE   N05  CnM2  v080
 BYTE   N05  Dn3  v096
 BYTE   W06
 BYTE   CnM2  v080
 BYTE   N05  Cn1  v068
 BYTE   N05  Fs1  v080
 BYTE   N05  Dn3  v096
 BYTE   N11  Bn4  v024
 BYTE   W06
 BYTE   N05  CnM2  v080
 BYTE   N02  Dn1  v040
 BYTE   N05  Dn3  v096
 BYTE   W03
 BYTE   N02  Dn1  v040
 BYTE   W03
 BYTE   PEND 
//  #10 //026   ----------------------------------------
 BYTE   N11  Cn1  v068
 BYTE   N11  Cn1  v080
 BYTE   N11  Fs1
 BYTE   N11  En3  v096
 BYTE   N11  Bn4  v024
 BYTE   W12
 BYTE   Fs1  v080
 BYTE   N05  Dn3  v096
 BYTE   N11  Bn4  v024
 BYTE   W06
 BYTE   N05  Cn1  v068
 BYTE   N05  Dn3  v096
 BYTE   N05  En3
 BYTE   W06
 BYTE   N11  Dn1
 BYTE   N11  Fs1  v080
 BYTE   N11  Bn4  v024
 BYTE   W06
 BYTE   N05  Ds3  v096
 BYTE   W06
 BYTE   Cn1  v068
 BYTE   N05  Fs1  v080
 BYTE   N11  Bn4  v024
 BYTE   W06
 BYTE   N05  Cn1  v068
 BYTE   N05  Cn1  v080
 BYTE   N05  Dn1  v040
 BYTE   N05  En3  v096
 BYTE   W06
 BYTE   Fs1  v080
 BYTE   N11  Bn4  v024
 BYTE   W06
 BYTE   N05  Dn1  v040
 BYTE   N05  Dn3  v096
 BYTE   W06
 BYTE   N11  Cn1  v068
 BYTE   N11  Cn1  v080
 BYTE   N11  Fs1
 BYTE   N11  Dn3  v096
 BYTE   N11  En3
 BYTE   N11  Bn4  v024
 BYTE   W12
 BYTE   N05  CnM2  v080
 BYTE   N11  Dn1  v096
 BYTE   N11  Fs1  v080
 BYTE   N11  Dn3  v096
 BYTE   N11  Bn4  v024
 BYTE   W06
 BYTE   N05  CnM2  v080
 BYTE   W06
 BYTE   N05
 BYTE   N11  Cn1  v068
 BYTE   N05  Fs1  v080
 BYTE   N11  Bn4  v024
 BYTE   W06
 BYTE   N05  CnM2  v080
 BYTE   N05  Dn1  v040
 BYTE   W06
//  #10 //027   ----------------------------------------
 BYTE   PATT
  POIN2 Label_0100671D
//  #10 //028   ----------------------------------------
 BYTE   N11  Cn1  v068
 BYTE   N11  Cn1  v080
 BYTE   N11  Fs1
 BYTE   N11  En3  v096
 BYTE   N11  Bn4  v024
 BYTE   W12
 BYTE   Fs1  v080
 BYTE   N05  Dn3  v096
 BYTE   N11  Bn4  v024
 BYTE   W06
 BYTE   N05  Cn1  v068
 BYTE   N05  Dn3  v096
 BYTE   N05  En3
 BYTE   W06
 BYTE   N11  Dn1
 BYTE   N11  Fs1  v080
 BYTE   N11  Bn4  v024
 BYTE   W06
 BYTE   N05  Ds3  v096
 BYTE   W06
 BYTE   Cn1  v068
 BYTE   N05  Fs1  v080
 BYTE   N11  Bn4  v024
 BYTE   W06
 BYTE   N05  Cn1  v068
 BYTE   N05  Cn1  v080
 BYTE   N05  Dn1  v040
 BYTE   N05  En3  v096
 BYTE   W06
 BYTE   Fs1  v080
 BYTE   N11  Bn4  v024
 BYTE   W06
 BYTE   N05  Dn1  v040
 BYTE   N05  Dn3  v096
 BYTE   W06
 BYTE   N11  Cn1  v068
 BYTE   N11  Cn1  v080
 BYTE   N11  Fs1
 BYTE   N11  Dn3  v096
 BYTE   N11  En3
 BYTE   N11  Bn4  v024
 BYTE   W12
 BYTE   N05  CnM2  v080
 BYTE   N11  Dn1  v096
 BYTE   N11  Fs1  v080
 BYTE   N11  Dn3  v096
 BYTE   N11  Bn4  v024
 BYTE   W06
 BYTE   N05  CnM2  v080
 BYTE   W06
 BYTE   N05
 BYTE   N11  Cn1  v068
 BYTE   N05  Fs1  v080
 BYTE   N11  Bn4  v024
 BYTE   W06
 BYTE   N05  CnM2  v080
 BYTE   N05  Dn1  v040
 BYTE   W06
//  #10 //029   ----------------------------------------
 BYTE   N11  Cn1  v068
 BYTE   N11  Cn1  v080
 BYTE   N11  Fs1
 BYTE   N11  En3  v096
 BYTE   N11  Bn4  v024
 BYTE   W12
 BYTE   Fs1  v080
 BYTE   N05  Dn3  v096
 BYTE   N11  Bn4  v024
 BYTE   W06
 BYTE   N05  Cn1  v068
 BYTE   N05  Dn3  v096
 BYTE   N05  En3
 BYTE   W06
 BYTE   N11  Dn1
 BYTE   N11  Fs1  v080
 BYTE   N11  Bn4  v024
 BYTE   W06
 BYTE   N05  Ds3  v096
 BYTE   W06
 BYTE   Cn1  v068
 BYTE   N05  Fs1  v080
 BYTE   N11  Bn4  v024
 BYTE   W06
 BYTE   N05  Cn1  v068
 BYTE   N05  Cn1  v080
 BYTE   N05  Dn1  v040
 BYTE   N05  En3  v096
 BYTE   W06
 BYTE   Fs1  v080
 BYTE   N11  Bn4  v024
 BYTE   W06
 BYTE   N17  CnM2  v080
 BYTE   N05  Dn1  v040
 BYTE   N05  Dn3  v096
 BYTE   W06
 BYTE   N11  Cn1  v068
 BYTE   N11  Cn1  v080
 BYTE   N11  Fs1
 BYTE   N11  Dn3  v096
 BYTE   N11  En3
 BYTE   N11  Bn4  v024
 BYTE   W12
 BYTE   N05  CnM2  v080
 BYTE   N11  Dn1  v096
 BYTE   N11  Fs1  v080
 BYTE   N05  Dn3  v096
 BYTE   N11  Bn4  v024
 BYTE   W06
 BYTE   N05  CnM2  v080
 BYTE   N05  Dn3  v096
 BYTE   W06
 BYTE   CnM2  v080
 BYTE   N05  Cn1  v068
 BYTE   N05  Fs1  v080
 BYTE   N05  Dn3  v096
 BYTE   N11  Bn4  v024
 BYTE   W06
 BYTE   N05  CnM2  v080
 BYTE   N02  Dn1  v040
 BYTE   N05  Dn3  v096
 BYTE   W03
 BYTE   N02  Dn1  v040
 BYTE   W03
//  #10 //030   ----------------------------------------
 BYTE   N11  Cn1  v068
 BYTE   N11  Cn1  v080
 BYTE   N11  Fs1
 BYTE   N11  En3  v096
 BYTE   N11  Bn4  v024
 BYTE   W12
 BYTE   Fs1  v080
 BYTE   N05  Dn3  v096
 BYTE   N11  Bn4  v024
 BYTE   W06
 BYTE   N05  Cn1  v068
 BYTE   N05  Dn3  v096
 BYTE   N05  En3
 BYTE   W06
 BYTE   N11  Dn1
 BYTE   N11  Fs1  v080
 BYTE   N11  Bn4  v024
 BYTE   W06
 BYTE   N05  Ds3  v096
 BYTE   W06
 BYTE   Cn1  v068
 BYTE   N05  Fs1  v080
 BYTE   N11  Bn4  v024
 BYTE   W06
 BYTE   N05  Cn1  v068
 BYTE   N05  Cn1  v080
 BYTE   N05  Dn1  v040
 BYTE   N05  En3  v096
 BYTE   W06
 BYTE   Fs1  v080
 BYTE   N11  Bn4  v024
 BYTE   W06
 BYTE   N05  Dn1  v040
 BYTE   N05  Dn3  v096
 BYTE   W06
 BYTE   N11  Cn1  v068
 BYTE   N11  Cn1  v080
 BYTE   N11  Fs1
 BYTE   N11  Dn3  v096
 BYTE   N11  En3
 BYTE   N11  Bn4  v024
 BYTE   W12
 BYTE   N05  CnM2  v080
 BYTE   N11  Dn1  v096
 BYTE   N11  Fs1  v080
 BYTE   N11  Dn3  v096
 BYTE   N11  Bn4  v024
 BYTE   W06
 BYTE   N05  CnM2  v080
 BYTE   W06
 BYTE   N05
 BYTE   N11  Cn1  v068
 BYTE   N05  Fs1  v080
 BYTE   N11  Bn4  v024
 BYTE   W06
 BYTE   N05  CnM2  v080
 BYTE   N05  Dn1  v040
 BYTE   W06
//  #10 //031   ----------------------------------------
 BYTE   N11  Cn1  v068
 BYTE   N11  Cn1  v080
 BYTE   N11  Fs1
 BYTE   N11  En3  v096
 BYTE   N11  Bn4  v024
 BYTE   W12
 BYTE   Fs1  v080
 BYTE   N05  Dn3  v096
 BYTE   N11  Bn4  v024
 BYTE   W06
 BYTE   N05  Cn1  v068
 BYTE   N05  Dn3  v096
 BYTE   N05  En3
 BYTE   W06
 BYTE   Dn1  v127
 BYTE   N05  Fs1  v120
 BYTE   N11  Bn4  v024
 BYTE   W06
 BYTE   N05  Dn1  v120
 BYTE   N05  Ds3  v096
 BYTE   W06
 BYTE   Cn1  v068
 BYTE   N05  Fs1  v080
 BYTE   N11  Bn4  v024
 BYTE   W06
 BYTE   N05  Cn1  v068
 BYTE   N05  Cn1  v120
 BYTE   N05  Dn1
 BYTE   N05  En3  v096
 BYTE   W06
 BYTE   Fs1  v080
 BYTE   N11  Bn4  v024
 BYTE   W06
 BYTE   N17  CnM2  v080
 BYTE   N05  Dn1  v120
 BYTE   N05  Dn3  v096
 BYTE   W06
 BYTE   N11  Cn1  v068
 BYTE   N11  Cn1  v080
 BYTE   N11  Fs1
 BYTE   N11  Dn3  v096
 BYTE   N11  En3
 BYTE   N11  Bn4  v024
 BYTE   W12
 BYTE   N05  CnM2  v080
 BYTE   N11  Dn1  v120
 BYTE   N11  Fs1
 BYTE   N05  Dn3  v096
 BYTE   N11  Bn4  v024
 BYTE   W06
 BYTE   N05  CnM2  v080
 BYTE   N05  Dn3  v096
 BYTE   W06
 BYTE   CnM2  v080
 BYTE   N05  Cn1  v068
 BYTE   N05  Dn1  v120
 BYTE   N05  Fs1
 BYTE   N05  Dn3  v096
 BYTE   N11  Bn4  v024
 BYTE   W06
 BYTE   N05  CnM2  v080
 BYTE   N05  Dn1  v120
 BYTE   N05  Dn3  v096
 BYTE   W06
//  #10 //032   ----------------------------------------
 BYTE   PATT
  POIN2 Label_01006285
//  #10 //033   ----------------------------------------
 BYTE   PATT
  POIN2 Label_0100630A
//  #10 //034   ----------------------------------------
 BYTE   PATT
  POIN2 Label_0100639F
//  #10 //035   ----------------------------------------
 BYTE   PATT
  POIN2 Label_0100630A
//  #10 //036   ----------------------------------------
 BYTE   PATT
  POIN2 Label_0100639F
//  #10 //037   ----------------------------------------
 BYTE   PATT
  POIN2 Label_0100630A
//  #10 //038   ----------------------------------------
 BYTE   PATT
  POIN2 Label_0100639F
//  #10 //039   ----------------------------------------
 BYTE   PATT
  POIN2 Label_0100630A
//  #10 //040   ----------------------------------------
 BYTE   PATT
  POIN2 Label_01006285
//  #10 //041   ----------------------------------------
 BYTE   PATT
  POIN2 Label_0100630A
//  #10 //042   ----------------------------------------
 BYTE   PATT
  POIN2 Label_0100639F
//  #10 //043   ----------------------------------------
 BYTE   PATT
  POIN2 Label_0100630A
//  #10 //044   ----------------------------------------
 BYTE   PATT
  POIN2 Label_0100639F
//  #10 //045   ----------------------------------------
 BYTE   PATT
  POIN2 Label_0100630A
//  #10 //046   ----------------------------------------
 BYTE   PATT
  POIN2 Label_0100639F
//  #10 //047   ----------------------------------------
 BYTE   PATT
  POIN2 Label_0100630A
//  #10 //048   ----------------------------------------
Label_01006AD5:
//  #10 //049   ----------------------------------------
 BYTE   PATT
  POIN2 Label_01006285
//  #10 //050   ----------------------------------------
 BYTE   PATT
  POIN2 Label_0100630A
//  #10 //051   ----------------------------------------
 BYTE   PATT
  POIN2 Label_0100639F
//  #10 //052   ----------------------------------------
 BYTE   PATT
  POIN2 Label_0100630A
//  #10 //053   ----------------------------------------
 BYTE   PATT
  POIN2 Label_0100639F
//  #10 //054   ----------------------------------------
 BYTE   PATT
  POIN2 Label_0100630A
//  #10 //055   ----------------------------------------
 BYTE   PATT
  POIN2 Label_0100639F
//  #10 //056   ----------------------------------------
 BYTE   PATT
  POIN2 Label_0100630A
//  #10 //057   ----------------------------------------
 BYTE   PATT
  POIN2 Label_01006285
//  #10 //058   ----------------------------------------
 BYTE   PATT
  POIN2 Label_0100630A
//  #10 //059   ----------------------------------------
 BYTE   PATT
  POIN2 Label_0100639F
//  #10 //060   ----------------------------------------
 BYTE   PATT
  POIN2 Label_0100630A
//  #10 //061   ----------------------------------------
 BYTE   PATT
  POIN2 Label_0100639F
//  #10 //062   ----------------------------------------
 BYTE   PATT
  POIN2 Label_0100630A
//  #10 //063   ----------------------------------------
 BYTE   PATT
  POIN2 Label_0100639F
//  #10 //064   ----------------------------------------
 BYTE   PATT
  POIN2 Label_0100630A
//  #10 //065   ----------------------------------------
 BYTE   N11  Cn1  v112
 BYTE   N11  En3
 BYTE   N11  Bn4  v032
 BYTE   W12
 BYTE   N05  Dn3  v112
 BYTE   N11  Bn4  v032
 BYTE   W06
 BYTE   N05  Cn1  v112
 BYTE   N05  Dn3
 BYTE   N05  En3
 BYTE   W06
 BYTE   N11  Bn4  v032
 BYTE   W06
 BYTE   N05  Ds3  v112
 BYTE   W06
 BYTE   Cn1
 BYTE   N11  Bn4  v032
 BYTE   W06
 BYTE   N05  Cn1  v112
 BYTE   N05  En3
 BYTE   W06
 BYTE   N11  Bn4  v032
 BYTE   W06
 BYTE   N05  Dn3  v112
 BYTE   W06
 BYTE   N11  Cn1
 BYTE   N11  Dn3
 BYTE   N11  En3
 BYTE   N11  Bn4  v032
 BYTE   W12
 BYTE   N05  CnM2  v096
 BYTE   N11  Dn3  v112
 BYTE   N11  Bn4  v032
 BYTE   W06
 BYTE   N05  CnM2  v096
 BYTE   W06
 BYTE   N05
 BYTE   N11  Cn1  v112
 BYTE   N11  Bn4  v032
 BYTE   W06
 BYTE   N05  CnM2  v096
 BYTE   W06
//  #10 //066   ----------------------------------------
Label_01006B7C:
 BYTE   N11  Cn1  v112
 BYTE   N11  En3
 BYTE   N11  Bn4  v032
 BYTE   W12
 BYTE   N05  Dn3  v112
 BYTE   N11  Bn4  v032
 BYTE   W06
 BYTE   N05  Cn1  v112
 BYTE   N05  Dn3
 BYTE   N05  En3
 BYTE   W06
 BYTE   N11  Bn4  v032
 BYTE   W06
 BYTE   N05  Ds3  v112
 BYTE   W06
 BYTE   Cn1
 BYTE   N11  Bn4  v032
 BYTE   W06
 BYTE   N05  Cn1  v112
 BYTE   N05  En3
 BYTE   W06
 BYTE   N11  Bn4  v032
 BYTE   W06
 BYTE   N17  CnM2  v096
 BYTE   N05  Dn3  v112
 BYTE   W06
 BYTE   N11  Cn1
 BYTE   N11  Dn3
 BYTE   N11  En3
 BYTE   N11  Bn4  v032
 BYTE   W12
 BYTE   N05  CnM2  v096
 BYTE   N05  Dn3  v112
 BYTE   N11  Bn4  v032
 BYTE   W06
 BYTE   N05  CnM2  v096
 BYTE   N05  Dn3  v112
 BYTE   W06
 BYTE   CnM2  v096
 BYTE   N05  Cn1  v112
 BYTE   N05  Dn3
 BYTE   N11  Bn4  v032
 BYTE   W06
 BYTE   N05  CnM2  v096
 BYTE   N05  Dn3  v112
 BYTE   W06
 BYTE   PEND 
//  #10 //067   ----------------------------------------
Label_01006BE0:
 BYTE   N11  Cn1  v112
 BYTE   N11  En3
 BYTE   N11  Bn4  v032
 BYTE   W12
 BYTE   N05  Dn3  v112
 BYTE   N11  Bn4  v032
 BYTE   W06
 BYTE   N05  Cn1  v112
 BYTE   N05  Dn3
 BYTE   N05  En3
 BYTE   W06
 BYTE   N11  Bn4  v032
 BYTE   W06
 BYTE   N05  Ds3  v112
 BYTE   W06
 BYTE   Cn1
 BYTE   N11  Bn4  v032
 BYTE   W06
 BYTE   N05  Cn1  v112
 BYTE   N05  En3
 BYTE   W06
 BYTE   N11  Bn4  v032
 BYTE   W06
 BYTE   N05  Dn3  v112
 BYTE   W06
 BYTE   N11  Cn1
 BYTE   N11  Dn3
 BYTE   N11  En3
 BYTE   N11  Bn4  v032
 BYTE   W12
 BYTE   N05  CnM2  v096
 BYTE   N11  Dn3  v112
 BYTE   N11  Bn4  v032
 BYTE   W06
 BYTE   N05  CnM2  v096
 BYTE   W06
 BYTE   N05
 BYTE   N11  Cn1  v112
 BYTE   N11  Bn4  v032
 BYTE   W06
 BYTE   N05  CnM2  v096
 BYTE   W06
 BYTE   PEND 
//  #10 //068   ----------------------------------------
 BYTE   PATT
  POIN2 Label_01006B7C
//  #10 //069   ----------------------------------------
 BYTE   PATT
  POIN2 Label_01006BE0
//  #10 //070   ----------------------------------------
 BYTE   PATT
  POIN2 Label_01006B7C
//  #10 //071   ----------------------------------------
 BYTE   PATT
  POIN2 Label_01006BE0
//  #10 //072   ----------------------------------------
 BYTE   PATT
  POIN2 Label_01006B7C
//  #10 //073   ----------------------------------------
 BYTE   N11  Cn1  v056
 BYTE   N11  En3  v080
 BYTE   N11  Bn4  v020
 BYTE   W12
 BYTE   Cn1  v096
 BYTE   N11  Fs1
 BYTE   N05  Dn3  v080
 BYTE   N11  Bn4  v020
 BYTE   W06
 BYTE   N05  Cn1  v056
 BYTE   N05  Dn3  v080
 BYTE   N05  En3
 BYTE   W06
 BYTE   N11  Fs1  v096
 BYTE   N11  Bn4  v020
 BYTE   W06
 BYTE   N05  Ds3  v080
 BYTE   W06
 BYTE   Cn1  v056
 BYTE   N11  Dn1  v116
 BYTE   N11  Fs1  v096
 BYTE   N11  Bn4  v020
 BYTE   W06
 BYTE   N05  Cn1  v056
 BYTE   N05  En3  v080
 BYTE   W06
 BYTE   Fs1  v096
 BYTE   N11  Bn4  v020
 BYTE   W06
 BYTE   N05  Cn1  v096
 BYTE   N05  Dn1  v048
 BYTE   N05  Dn3  v080
 BYTE   W06
 BYTE   N11  Cn1  v056
 BYTE   N05  Fs1  v096
 BYTE   N11  Dn3  v080
 BYTE   N11  En3
 BYTE   N11  Bn4  v020
 BYTE   W06
 BYTE   N05  Dn1  v048
 BYTE   W06
 BYTE   CnM2  v064
 BYTE   N11  Cn1  v096
 BYTE   N11  Fs1
 BYTE   N11  Dn3  v080
 BYTE   N11  Bn4  v020
 BYTE   W06
 BYTE   N05  CnM2  v064
 BYTE   W06
 BYTE   N05
 BYTE   N11  Cn1  v056
 BYTE   N11  Dn1  v116
 BYTE   N11  Fs1  v096
 BYTE   N11  Bn4  v020
 BYTE   W06
 BYTE   N05  CnM2  v064
 BYTE   W06
//  #10 //074   ----------------------------------------
Label_01006CD4:
 BYTE   N11  Cn1  v056
 BYTE   N05  Fs1  v096
 BYTE   N11  En3  v080
 BYTE   N11  Bn4  v020
 BYTE   W06
 BYTE   N02  Dn1  v048
 BYTE   W03
 BYTE   N02
 BYTE   W03
 BYTE   N11  Cn1  v096
 BYTE   N11  Fs1
 BYTE   N05  Dn3  v080
 BYTE   N11  Bn4  v020
 BYTE   W06
 BYTE   N05  Cn1  v056
 BYTE   N05  Dn3  v080
 BYTE   N05  En3
 BYTE   W06
 BYTE   N11  Fs1  v096
 BYTE   N11  Bn4  v020
 BYTE   W06
 BYTE   N05  Ds3  v080
 BYTE   W06
 BYTE   Cn1  v056
 BYTE   N11  Dn1  v116
 BYTE   N11  Fs1  v096
 BYTE   N11  Bn4  v020
 BYTE   W06
 BYTE   N05  Cn1  v056
 BYTE   N05  En3  v080
 BYTE   W06
 BYTE   Fs1  v096
 BYTE   N11  Bn4  v020
 BYTE   W06
 BYTE   N17  CnM2  v064
 BYTE   N05  Cn1  v096
 BYTE   N05  Dn1  v048
 BYTE   N05  Dn3  v080
 BYTE   W06
 BYTE   N11  Cn1  v056
 BYTE   N05  Fs1  v096
 BYTE   N11  Dn3  v080
 BYTE   N11  En3
 BYTE   N11  Bn4  v020
 BYTE   W06
 BYTE   N05  Dn1  v048
 BYTE   W06
 BYTE   CnM2  v064
 BYTE   N11  Cn1  v096
 BYTE   N11  Fs1
 BYTE   N05  Dn3  v080
 BYTE   N11  Bn4  v020
 BYTE   W06
 BYTE   N05  CnM2  v064
 BYTE   N05  Dn3  v080
 BYTE   W06
 BYTE   CnM2  v064
 BYTE   N05  Cn1  v056
 BYTE   N11  Dn1  v116
 BYTE   N11  Fs1  v096
 BYTE   N05  Dn3  v080
 BYTE   N11  Bn4  v020
 BYTE   W06
 BYTE   N05  CnM2  v064
 BYTE   N05  Dn3  v080
 BYTE   W06
 BYTE   PEND 
//  #10 //075   ----------------------------------------
Label_01006D6F:
 BYTE   N11  Cn1  v056
 BYTE   N05  Fs1  v096
 BYTE   N11  En3  v080
 BYTE   N11  Bn4  v020
 BYTE   W06
 BYTE   N05  Dn1  v048
 BYTE   W06
 BYTE   N11  Cn1  v096
 BYTE   N11  Fs1
 BYTE   N05  Dn3  v080
 BYTE   N11  Bn4  v020
 BYTE   W06
 BYTE   N05  Cn1  v056
 BYTE   N05  Dn3  v080
 BYTE   N05  En3
 BYTE   W06
 BYTE   N11  Fs1  v096
 BYTE   N11  Bn4  v020
 BYTE   W06
 BYTE   N05  Ds3  v080
 BYTE   W06
 BYTE   Cn1  v056
 BYTE   N11  Dn1  v116
 BYTE   N11  Fs1  v096
 BYTE   N11  Bn4  v020
 BYTE   W06
 BYTE   N05  Cn1  v056
 BYTE   N05  En3  v080
 BYTE   W06
 BYTE   Fs1  v096
 BYTE   N11  Bn4  v020
 BYTE   W06
 BYTE   N05  Cn1  v096
 BYTE   N05  Dn1  v048
 BYTE   N05  Dn3  v080
 BYTE   W06
 BYTE   N11  Cn1  v056
 BYTE   N05  Fs1  v096
 BYTE   N11  Dn3  v080
 BYTE   N11  En3
 BYTE   N11  Bn4  v020
 BYTE   W06
 BYTE   N05  Dn1  v048
 BYTE   W06
 BYTE   CnM2  v064
 BYTE   N11  Cn1  v096
 BYTE   N11  Fs1
 BYTE   N11  Dn3  v080
 BYTE   N11  Bn4  v020
 BYTE   W06
 BYTE   N05  CnM2  v064
 BYTE   W06
 BYTE   N05
 BYTE   N11  Cn1  v056
 BYTE   N11  Dn1  v116
 BYTE   N11  Fs1  v096
 BYTE   N11  Bn4  v020
 BYTE   W06
 BYTE   N05  CnM2  v064
 BYTE   W06
 BYTE   PEND 
//  #10 //076   ----------------------------------------
 BYTE   PATT
  POIN2 Label_01006CD4
//  #10 //077   ----------------------------------------
 BYTE   PATT
  POIN2 Label_01006D6F
//  #10 //078   ----------------------------------------
 BYTE   N11  Cn1  v056
 BYTE   N05  Fs1  v096
 BYTE   N11  En3  v080
 BYTE   N11  Bn4  v020
 BYTE   W06
 BYTE   N02  Dn1  v048
 BYTE   W03
 BYTE   N02
 BYTE   W03
 BYTE   N11  Cn1  v096
 BYTE   N11  Fs1
 BYTE   N05  Dn3  v080
 BYTE   N11  Bn4  v020
 BYTE   W06
 BYTE   N05  Cn1  v056
 BYTE   N05  Dn3  v080
 BYTE   N05  En3
 BYTE   W06
 BYTE   N11  Fs1  v096
 BYTE   N11  Bn4  v020
 BYTE   W06
 BYTE   N05  Ds3  v080
 BYTE   W06
 BYTE   Cn1  v056
 BYTE   N11  Dn1  v116
 BYTE   N11  Fs1  v096
 BYTE   N11  Bn4  v020
 BYTE   W06
 BYTE   N05  Cn1  v056
 BYTE   N05  En3  v080
 BYTE   W06
 BYTE   Fs1  v096
 BYTE   N11  Bn4  v020
 BYTE   W06
 BYTE   N17  CnM2  v064
 BYTE   N05  Cn1  v096
 BYTE   N05  Dn1  v048
 BYTE   N05  Dn3  v080
 BYTE   W06
 BYTE   N11  Cn1  v056
 BYTE   N05  Fs1  v096
 BYTE   N11  Dn3  v080
 BYTE   N11  En3
 BYTE   N11  Bn4  v020
 BYTE   W06
 BYTE   N05  Dn1  v048
 BYTE   W06
 BYTE   CnM2  v064
 BYTE   N11  Cn1  v096
 BYTE   N11  Fs1
 BYTE   N05  Dn3  v080
 BYTE   N11  Bn4  v020
 BYTE   W06
 BYTE   N05  CnM2  v064
 BYTE   N05  Dn3  v080
 BYTE   W06
 BYTE   CnM2  v064
 BYTE   N05  Cn1  v056
 BYTE   N11  Dn1  v116
 BYTE   N11  Fs1  v096
 BYTE   N05  Dn3  v080
 BYTE   N11  Bn4  v020
 BYTE   W06
 BYTE   N05  CnM2  v064
 BYTE   N05  Dn3  v080
 BYTE   W06
//  #10 //079   ----------------------------------------
 BYTE   N11  Cn1  v056
 BYTE   N05  Fs1  v096
 BYTE   N11  En3  v080
 BYTE   N11  Bn4  v020
 BYTE   W06
 BYTE   N02  Dn1  v048
 BYTE   W03
 BYTE   N02
 BYTE   W03
 BYTE   N11  Cn1  v096
 BYTE   N11  Fs1
 BYTE   N05  Dn3  v080
 BYTE   N11  Bn4  v020
 BYTE   W06
 BYTE   N05  Cn1  v056
 BYTE   N05  Dn3  v080
 BYTE   N05  En3
 BYTE   W06
 BYTE   N11  Fs1  v096
 BYTE   N11  Bn4  v020
 BYTE   W06
 BYTE   N05  Ds3  v080
 BYTE   W06
 BYTE   Cn1  v056
 BYTE   N11  Dn1  v116
 BYTE   N11  Fs1  v096
 BYTE   N11  Bn4  v020
 BYTE   W06
 BYTE   N05  Cn1  v056
 BYTE   N05  En3  v080
 BYTE   W06
 BYTE   Fs1  v096
 BYTE   N11  Bn4  v020
 BYTE   W06
 BYTE   N05  Cn1  v096
 BYTE   N05  Dn1  v048
 BYTE   N05  Dn3  v080
 BYTE   W06
 BYTE   N11  Cn1  v056
 BYTE   N05  Fs1  v096
 BYTE   N11  Dn3  v080
 BYTE   N11  En3
 BYTE   N11  Bn4  v020
 BYTE   W06
 BYTE   N05  Dn1  v048
 BYTE   W06
 BYTE   CnM2  v064
 BYTE   N11  Cn1  v096
 BYTE   N11  Fs1
 BYTE   N11  Dn3  v080
 BYTE   N11  Bn4  v020
 BYTE   W06
 BYTE   N05  CnM2  v064
 BYTE   W06
 BYTE   N05
 BYTE   N11  Cn1  v056
 BYTE   N11  Dn1  v116
 BYTE   N11  Fs1  v096
 BYTE   N11  Bn4  v020
 BYTE   W06
 BYTE   N05  CnM2  v064
 BYTE   W06
//  #10 //080   ----------------------------------------
 BYTE   N11  Cn1  v056
 BYTE   N11  Fs1  v096
 BYTE   N11  En3  v080
 BYTE   N11  Bn4  v020
 BYTE   W12
 BYTE   N05  Fs1  v096
 BYTE   N05  Dn3  v080
 BYTE   N11  Bn4  v020
 BYTE   W06
 BYTE   N05  Cn1  v056
 BYTE   N05  Dn1  v096
 BYTE   N05  Dn3  v080
 BYTE   N05  En3
 BYTE   W06
 BYTE   Dn1  v096
 BYTE   N05  Fs1
 BYTE   N11  Bn4  v020
 BYTE   W06
 BYTE   N05  Dn1  v096
 BYTE   N05  Ds3  v080
 BYTE   W06
 BYTE   Cn1  v056
 BYTE   N05  En1  v127
 BYTE   N05  Fs1
 BYTE   N11  Bn4  v020
 BYTE   W06
 BYTE   N05  Cn1  v056
 BYTE   N05  Dn1  v127
 BYTE   N05  En3  v080
 BYTE   W06
 BYTE   Fs1  v096
 BYTE   N11  Bn4  v020
 BYTE   W06
 BYTE   N17  CnM2  v064
 BYTE   N05  Dn1  v096
 BYTE   N05  Dn3  v080
 BYTE   W06
 BYTE   N11  Cn1  v056
 BYTE   N05  Dn1  v096
 BYTE   N05  Fs1
 BYTE   N11  Dn3  v080
 BYTE   N11  En3
 BYTE   N11  Bn4  v020
 BYTE   W06
 BYTE   N05  Dn1  v096
 BYTE   W06
 BYTE   CnM2  v064
 BYTE   N05  Dn1  v127
 BYTE   N05  Fs1
 BYTE   N05  Dn3  v080
 BYTE   N11  Bn4  v020
 BYTE   W06
 BYTE   N05  CnM2  v064
 BYTE   N05  Dn1  v096
 BYTE   N05  Dn3  v080
 BYTE   W06
 BYTE   CnM2  v064
 BYTE   N05  Cn1  v056
 BYTE   N05  Dn1  v127
 BYTE   N05  Fs1
 BYTE   N05  Dn3  v080
 BYTE   N11  Bn4  v020
 BYTE   W06
 BYTE   N05  CnM2  v064
 BYTE   N05  Dn1  v127
 BYTE   N05  Dn3  v080
 BYTE   W06
//  #10 //081   ----------------------------------------
Label_01006FCB:
 BYTE   N11  Cn1  v056
 BYTE   N11  Cn1  v096
 BYTE   N11  Cs2
 BYTE   N11  En3  v080
 BYTE   N11  Bn4  v020
 BYTE   W12
 BYTE   Fs1  v096
 BYTE   N05  Dn3  v080
 BYTE   N11  Bn4  v020
 BYTE   W06
 BYTE   N05  Cn1  v056
 BYTE   N05  Dn3  v080
 BYTE   N05  En3
 BYTE   W06
 BYTE   N11  Dn1  v116
 BYTE   N11  Fs1  v096
 BYTE   N11  Bn4  v020
 BYTE   W06
 BYTE   N05  Ds3  v080
 BYTE   W06
 BYTE   Cn1  v056
 BYTE   N05  Fs1  v096
 BYTE   N11  Bn4  v020
 BYTE   W06
 BYTE   N05  Cn1  v056
 BYTE   N05  Cn1  v096
 BYTE   N05  Dn1  v048
 BYTE   N05  En3  v080
 BYTE   W06
 BYTE   Fs1  v096
 BYTE   N11  Bn4  v020
 BYTE   W06
 BYTE   N05  Dn1  v048
 BYTE   N05  Dn3  v080
 BYTE   W06
 BYTE   N11  Cn1  v056
 BYTE   N11  Cn1  v096
 BYTE   N11  Fs1
 BYTE   N11  Dn3  v080
 BYTE   N11  En3
 BYTE   N11  Bn4  v020
 BYTE   W12
 BYTE   N05  CnM2  v064
 BYTE   N11  Dn1  v116
 BYTE   N11  Fs1  v096
 BYTE   N11  Dn3  v080
 BYTE   N11  Bn4  v020
 BYTE   W06
 BYTE   N05  CnM2  v064
 BYTE   W06
 BYTE   N05
 BYTE   N11  Cn1  v056
 BYTE   N05  Fs1  v096
 BYTE   N11  Bn4  v020
 BYTE   W06
 BYTE   N05  CnM2  v064
 BYTE   N05  Dn1  v048
 BYTE   W06
 BYTE   PEND 
//  #10 //082   ----------------------------------------
Label_01007055:
 BYTE   N11  Cn1  v056
 BYTE   N11  Cn1  v096
 BYTE   N11  Fs1
 BYTE   N11  En3  v080
 BYTE   N11  Bn4  v020
 BYTE   W12
 BYTE   Fs1  v096
 BYTE   N05  Dn3  v080
 BYTE   N11  Bn4  v020
 BYTE   W06
 BYTE   N05  Cn1  v056
 BYTE   N05  Dn3  v080
 BYTE   N05  En3
 BYTE   W06
 BYTE   N11  Dn1  v116
 BYTE   N11  Fs1  v096
 BYTE   N11  Bn4  v020
 BYTE   W06
 BYTE   N05  Ds3  v080
 BYTE   W06
 BYTE   Cn1  v056
 BYTE   N05  Fs1  v096
 BYTE   N11  Bn4  v020
 BYTE   W06
 BYTE   N05  Cn1  v056
 BYTE   N05  Cn1  v096
 BYTE   N05  Dn1  v048
 BYTE   N05  En3  v080
 BYTE   W06
 BYTE   Fs1  v096
 BYTE   N11  Bn4  v020
 BYTE   W06
 BYTE   N17  CnM2  v064
 BYTE   N05  Dn1  v048
 BYTE   N05  Dn3  v080
 BYTE   W06
 BYTE   N11  Cn1  v056
 BYTE   N11  Cn1  v096
 BYTE   N11  Fs1
 BYTE   N11  Dn3  v080
 BYTE   N11  En3
 BYTE   N11  Bn4  v020
 BYTE   W12
 BYTE   N05  CnM2  v064
 BYTE   N11  Dn1  v116
 BYTE   N11  Fs1  v096
 BYTE   N05  Dn3  v080
 BYTE   N11  Bn4  v020
 BYTE   W06
 BYTE   N05  CnM2  v064
 BYTE   N05  Dn3  v080
 BYTE   W06
 BYTE   CnM2  v064
 BYTE   N05  Cn1  v056
 BYTE   N05  Fs1  v096
 BYTE   N05  Dn3  v080
 BYTE   N11  Bn4  v020
 BYTE   W06
 BYTE   N05  CnM2  v064
 BYTE   N02  Dn1  v048
 BYTE   N05  Dn3  v080
 BYTE   W03
 BYTE   N02  Dn1  v048
 BYTE   W03
 BYTE   PEND 
//  #10 //083   ----------------------------------------
Label_010070F0:
 BYTE   N11  Cn1  v056
 BYTE   N11  Cn1  v096
 BYTE   N11  Fs1
 BYTE   N11  En3  v080
 BYTE   N11  Bn4  v020
 BYTE   W12
 BYTE   Fs1  v096
 BYTE   N05  Dn3  v080
 BYTE   N11  Bn4  v020
 BYTE   W06
 BYTE   N05  Cn1  v056
 BYTE   N05  Dn3  v080
 BYTE   N05  En3
 BYTE   W06
 BYTE   N11  Dn1  v116
 BYTE   N11  Fs1  v096
 BYTE   N11  Bn4  v020
 BYTE   W06
 BYTE   N05  Ds3  v080
 BYTE   W06
 BYTE   Cn1  v056
 BYTE   N05  Fs1  v096
 BYTE   N11  Bn4  v020
 BYTE   W06
 BYTE   N05  Cn1  v056
 BYTE   N05  Cn1  v096
 BYTE   N05  Dn1  v048
 BYTE   N05  En3  v080
 BYTE   W06
 BYTE   Fs1  v096
 BYTE   N11  Bn4  v020
 BYTE   W06
 BYTE   N05  Dn1  v048
 BYTE   N05  Dn3  v080
 BYTE   W06
 BYTE   N11  Cn1  v056
 BYTE   N11  Cn1  v096
 BYTE   N11  Fs1
 BYTE   N11  Dn3  v080
 BYTE   N11  En3
 BYTE   N11  Bn4  v020
 BYTE   W12
 BYTE   N05  CnM2  v064
 BYTE   N11  Dn1  v116
 BYTE   N11  Fs1  v096
 BYTE   N11  Dn3  v080
 BYTE   N11  Bn4  v020
 BYTE   W06
 BYTE   N05  CnM2  v064
 BYTE   W06
 BYTE   N05
 BYTE   N11  Cn1  v056
 BYTE   N05  Fs1  v096
 BYTE   N11  Bn4  v020
 BYTE   W06
 BYTE   N05  CnM2  v064
 BYTE   N05  Dn1  v048
 BYTE   W06
 BYTE   PEND 
//  #10 //084   ----------------------------------------
 BYTE   PATT
  POIN2 Label_01007055
//  #10 //085   ----------------------------------------
 BYTE   PATT
  POIN2 Label_010070F0
//  #10 //086   ----------------------------------------
 BYTE   PATT
  POIN2 Label_01007055
//  #10 //087   ----------------------------------------
 BYTE   PATT
  POIN2 Label_010070F0
//  #10 //088   ----------------------------------------
 BYTE   PATT
  POIN2 Label_01007055
//  #10 //089   ----------------------------------------
 BYTE   PATT
  POIN2 Label_01006FCB
//  #10 //090   ----------------------------------------
 BYTE   PATT
  POIN2 Label_01007055
//  #10 //091   ----------------------------------------
 BYTE   PATT
  POIN2 Label_010070F0
//  #10 //092   ----------------------------------------
 BYTE   PATT
  POIN2 Label_01007055
//  #10 //093   ----------------------------------------
 BYTE   PATT
  POIN2 Label_010070F0
//  #10 //094   ----------------------------------------
 BYTE   PATT
  POIN2 Label_01007055
//  #10 //095   ----------------------------------------
 BYTE   PATT
  POIN2 Label_010070F0
//  #10 //096   ----------------------------------------
 BYTE   PATT
  POIN2 Label_01007055
//  #10 //097   ----------------------------------------
 BYTE   GoTo
  POIN2 Label_01006AD5
//  #10 //098   ----------------------------------------
 BYTE   N11  Cn1  v056
 BYTE   N11  Cn1  v096
 BYTE   N11  Cs2
 BYTE   N11  En3  v080
 BYTE   N11  Bn4  v020
 BYTE   W12
 BYTE   Fs1  v096
 BYTE   N05  Dn3  v080
 BYTE   N11  Bn4  v020
 BYTE   W06
 BYTE   N05  Cn1  v056
 BYTE   N05  Dn3  v080
 BYTE   N05  En3
 BYTE   W06
 BYTE   N11  Dn1  v112
 BYTE   N11  Fs1  v096
 BYTE   N11  Bn4  v020
 BYTE   W06
 BYTE   N05  Ds3  v080
 BYTE   W06
 BYTE   Cn1  v056
 BYTE   N05  Fs1  v092
 BYTE   N11  Bn4  v020
 BYTE   W06
 BYTE   N05  Cn1  v056
 BYTE   N05  Cn1  v092
 BYTE   N05  Dn1  v048
 BYTE   N05  En3  v076
 BYTE   W06
 BYTE   Fs1  v092
 BYTE   N11  Bn4  v020
 BYTE   W06
 BYTE   N05  Dn1  v048
 BYTE   N05  Dn3  v076
 BYTE   W06
 BYTE   N11  Cn1  v052
 BYTE   N11  Cn1  v088
 BYTE   N11  Fs1
 BYTE   N11  Dn3  v076
 BYTE   N11  En3
 BYTE   N11  Bn4  v020
 BYTE   W12
 BYTE   N05  CnM2  v060
 BYTE   N11  Dn1  v104
 BYTE   N11  Fs1  v088
 BYTE   N11  Dn3  v072
 BYTE   N11  Bn4  v020
 BYTE   W06
 BYTE   N05  CnM2  v060
 BYTE   W06
 BYTE   N05
 BYTE   N11  Cn1  v052
 BYTE   N05  Fs1  v088
 BYTE   N11  Bn4  v020
 BYTE   W06
 BYTE   N05  CnM2  v060
 BYTE   N05  Dn1  v044
 BYTE   W06
//  #10 //099   ----------------------------------------
 BYTE   N11  Cn1  v052
 BYTE   N11  Cn1  v084
 BYTE   N11  Fs1
 BYTE   N11  En3  v072
 BYTE   N11  Bn4  v020
 BYTE   W12
 BYTE   Fs1  v084
 BYTE   N05  Dn3  v068
 BYTE   N11  Bn4  v020
 BYTE   W06
 BYTE   N05  Cn1  v048
 BYTE   N05  Dn3  v068
 BYTE   N05  En3
 BYTE   W06
 BYTE   N11  Dn1  v096
 BYTE   N11  Fs1  v080
 BYTE   N11  Bn4  v020
 BYTE   W06
 BYTE   N05  Ds3  v068
 BYTE   W06
 BYTE   Cn1  v048
 BYTE   N05  Fs1  v080
 BYTE   N11  Bn4  v016
 BYTE   W06
 BYTE   N05  Cn1  v048
 BYTE   N05  Cn1  v080
 BYTE   N05  Dn1  v040
 BYTE   N05  En3  v068
 BYTE   W06
 BYTE   Fs1  v076
 BYTE   N11  Bn4  v016
 BYTE   W06
 BYTE   N17  CnM2  v052
 BYTE   N05  Dn1  v040
 BYTE   N05  Dn3  v064
 BYTE   W06
 BYTE   N11  Cn1  v048
 BYTE   N11  Cn1  v076
 BYTE   N11  Fs1
 BYTE   N11  Dn3  v064
 BYTE   N11  En3
 BYTE   N11  Bn4  v016
 BYTE   W12
 BYTE   N05  CnM2  v052
 BYTE   N11  Dn1  v088
 BYTE   N11  Fs1  v076
 BYTE   N05  Dn3  v064
 BYTE   N11  Bn4  v016
 BYTE   W06
 BYTE   N05  CnM2  v052
 BYTE   N05  Dn3  v064
 BYTE   W06
 BYTE   CnM2  v052
 BYTE   N05  Cn1  v044
 BYTE   N05  Fs1  v072
 BYTE   N05  Dn3  v060
 BYTE   N11  Bn4  v016
 BYTE   W06
 BYTE   N05  CnM2  v052
 BYTE   N02  Dn1  v036
 BYTE   N05  Dn3  v060
 BYTE   W03
 BYTE   N02  Dn1  v036
 BYTE   W03
//  #10 //100   ----------------------------------------
 BYTE   N11  Cn1  v044
 BYTE   N11  Cn1  v072
 BYTE   N11  Fs1
 BYTE   N11  En3  v060
 BYTE   N11  Bn4  v016
 BYTE   W12
 BYTE   Fs1  v068
 BYTE   N05  Dn3  v060
 BYTE   N11  Bn4  v016
 BYTE   W06
 BYTE   N05  Cn1  v040
 BYTE   N05  Dn3  v060
 BYTE   N05  En3
 BYTE   W06
 BYTE   N11  Dn1  v080
 BYTE   N11  Fs1  v068
 BYTE   N11  Bn4  v016
 BYTE   W06
 BYTE   N05  Ds3  v056
 BYTE   W06
 BYTE   Cn1  v040
 BYTE   N05  Fs1  v068
 BYTE   N11  Bn4  v016
 BYTE   W06
 BYTE   N05  Cn1  v040
 BYTE   N05  Cn1  v064
 BYTE   N05  Dn1  v032
 BYTE   N05  En3  v056
 BYTE   W06
 BYTE   Fs1  v064
 BYTE   N11  Bn4  v016
 BYTE   W06
 BYTE   N05  Dn1  v032
 BYTE   N05  Dn3  v056
 BYTE   W06
 BYTE   N11  Cn1  v040
 BYTE   N11  Cn1  v064
 BYTE   N11  Fs1
 BYTE   N11  Dn3  v052
 BYTE   N11  En3
 BYTE   N11  Bn4  v016
 BYTE   W12
 BYTE   N05  CnM2  v044
 BYTE   N11  Dn1  v072
 BYTE   N11  Fs1  v060
 BYTE   N11  Dn3  v052
 BYTE   N11  Bn4  v016
 BYTE   W06
 BYTE   N05  CnM2  v044
 BYTE   W06
 BYTE   N05
 BYTE   N11  Cn1  v036
 BYTE   N05  Fs1  v060
 BYTE   N11  Bn4  v016
 BYTE   W06
 BYTE   N05  CnM2  v044
 BYTE   N05  Dn1  v032
 BYTE   W06
//  #10 //101   ----------------------------------------
 BYTE   N11  Cn1  v036
 BYTE   N11  Cn1  v056
 BYTE   N11  Fs1
 BYTE   N11  En3  v048
 BYTE   N11  Bn4  v012
 BYTE   W12
 BYTE   Fs1  v056
 BYTE   N05  Dn3  v048
 BYTE   N11  Bn4  v012
 BYTE   W06
 BYTE   N05  Cn1  v036
 BYTE   N05  Dn3  v048
 BYTE   N05  En3
 BYTE   W06
 BYTE   N11  Dn1  v064
 BYTE   N11  Fs1  v056
 BYTE   N11  Bn4  v012
 BYTE   W06
 BYTE   N05  Ds3  v048
 BYTE   W06
 BYTE   Cn1  v032
 BYTE   N05  Fs1  v052
 BYTE   N11  Bn4  v012
 BYTE   W06
 BYTE   N05  Cn1  v032
 BYTE   N05  Cn1  v052
 BYTE   N05  Dn1  v028
 BYTE   N05  En3  v044
 BYTE   W06
 BYTE   Fs1  v052
 BYTE   N11  Bn4  v012
 BYTE   W06
 BYTE   N17  CnM2  v036
 BYTE   N05  Dn1  v028
 BYTE   N05  Dn3  v044
 BYTE   W06
 BYTE   N11  Cn1  v032
 BYTE   N11  Cn1  v048
 BYTE   N11  Fs1
 BYTE   N11  Dn3  v044
 BYTE   N11  En3
 BYTE   N11  Bn4  v012
 BYTE   W12
 BYTE   N05  CnM2  v036
 BYTE   N11  Dn1  v056
 BYTE   N11  Fs1  v048
 BYTE   N05  Dn3  v040
 BYTE   N11  Bn4  v012
 BYTE   W06
 BYTE   N05  CnM2  v036
 BYTE   N05  Dn3  v040
 BYTE   W06
 BYTE   CnM2  v036
 BYTE   N05  Cn1  v028
 BYTE   N05  Fs1  v048
 BYTE   N05  Dn3  v040
 BYTE   N11  Bn4  v012
 BYTE   W06
 BYTE   N05  CnM2  v036
 BYTE   N02  Dn1  v024
 BYTE   N05  Dn3  v040
 BYTE   W03
 BYTE   N02  Dn1  v024
 BYTE   W03
//  #10 //102   ----------------------------------------
 BYTE   N11  Cn1  v028
 BYTE   N11  Cn1  v044
 BYTE   N11  Fs1
 BYTE   N11  En3  v040
 BYTE   W12
 BYTE   Fs1  v044
 BYTE   N05  Dn3  v036
 BYTE   W06
 BYTE   Cn1  v028
 BYTE   N05  Dn3  v036
 BYTE   N05  En3
 BYTE   W06
 BYTE   N11  Dn1  v048
 BYTE   N11  Fs1  v040
 BYTE   W06
 BYTE   N05  Ds3  v036
 BYTE   W06
 BYTE   Cn1  v024
 BYTE   N05  Fs1  v040
 BYTE   W06
 BYTE   Cn1  v024
 BYTE   N05  Cn1  v040
 BYTE   N05  Dn1  v020
 BYTE   N05  En3  v036
 BYTE   W06
 BYTE   Fs1
 BYTE   W06
 BYTE   Dn1  v020
 BYTE   N05  Dn3  v032
 BYTE   W06
 BYTE   N11  Cn1  v024
 BYTE   N11  Cn1  v036
 BYTE   N11  Fs1
 BYTE   N11  Dn3  v032
 BYTE   N11  En3
 BYTE   W12
 BYTE   Dn1  v040
 BYTE   N11  Fs1  v036
 BYTE   N11  Dn3  v032
 BYTE   W12
 BYTE   Cn1  v020
 BYTE   N05  Fs1  v032
 BYTE   W06
 BYTE   Dn1  v016
 BYTE   W06
//  #10 //103   ----------------------------------------
 BYTE   N11  Cn1  v020
 BYTE   N11  Cn1  v032
 BYTE   N11  Fs1
 BYTE   N11  En3  v028
 BYTE   W12
 BYTE   Fs1
 BYTE   N05  Dn3
 BYTE   W06
 BYTE   Cn1  v020
 BYTE   N05  Dn3  v028
 BYTE   N05  En3
 BYTE   W06
 BYTE   N11  Dn1  v032
 BYTE   N11  Fs1  v028
 BYTE   W06
 BYTE   N05  Ds3  v024
 BYTE   W06
 BYTE   Cn1  v020
 BYTE   N05  Fs1  v028
 BYTE   W06
 BYTE   Cn1  v016
 BYTE   N05  Cn1  v024
 BYTE   N05  Dn1  v012
 BYTE   N05  En3  v024
 BYTE   W06
 BYTE   Fs1
 BYTE   W06
 BYTE   Dn1  v012
 BYTE   N05  Dn3  v024
 BYTE   W06
 BYTE   N11  Cn1  v016
 BYTE   N11  Cn1  v024
 BYTE   N11  Fs1
 BYTE   N11  Dn3  v020
 BYTE   N11  En3
 BYTE   W12
 BYTE   Dn1  v024
 BYTE   N11  Fs1  v020
 BYTE   N05  Dn3
 BYTE   W06
 BYTE   N05
 BYTE   W06
 BYTE   Cn1  v016
 BYTE   N05  Fs1  v020
 BYTE   N05  Dn3
 BYTE   W06
 BYTE   N02  Dn1  v012
 BYTE   N05  Dn3  v020
 BYTE   W03
 BYTE   N02  Dn1  v012
 BYTE   W03
 BYTE   FINE

//******************************************************//
	ALIGN 4

WhenMotherWasThere:
	BYTE	10	// NumTrks
	BYTE	0	// NumBlks
	BYTE	WhenMotherWasThere_pri	// Priority
	BYTE	WhenMotherWasThere_rev	// Reverb.
    
	POIN2	WhenMotherWasThere_grp
    
	POIN2	WhenMotherWasThere_001
	POIN2	WhenMotherWasThere_002
	POIN2	WhenMotherWasThere_003
	POIN2	WhenMotherWasThere_004
	POIN2	WhenMotherWasThere_005
	POIN2	WhenMotherWasThere_006
	POIN2	WhenMotherWasThere_007
	POIN2	WhenMotherWasThere_008
	POIN2	WhenMotherWasThere_009
	POIN2	WhenMotherWasThere_010

	
