	.include "MPlayDef.s"

	.equ	song04_grp, voicegroup000
	.equ	song04_pri, 0
	.equ	song04_rev, 0
	.equ	song04_mvl, 127
	.equ	song04_key, 0
	.equ	song04_tbs, 1
	.equ	song04_exg, 0
	.equ	song04_cmp, 1

	.section .rodata
	.global	song04
	.align	2


@**************** Track 1 (Midi-Chn.0) ****************@

song04_001:
@  #01 @000   ----------------------------------------
 .byte   KEYSH , song04_key+0
 .byte   TEMPO , 102*song04_tbs/2
 .byte   VOICE , 30
 .byte   VOL , 40*song04_mvl/mxv
 .byte   PAN , c_v+2
 .byte   VOL , 40*song04_mvl/mxv
 .byte   PAN , c_v+0
 .byte   W96
@  #01 @001   ----------------------------------------
 .byte   W96
@  #01 @002   ----------------------------------------
 .byte   W96
@  #01 @003   ----------------------------------------
 .byte   W96
@  #01 @004   ----------------------------------------
 .byte   W96
@  #01 @005   ----------------------------------------
 .byte   W96
@  #01 @006   ----------------------------------------
 .byte   W96
@  #01 @007   ----------------------------------------
 .byte   W96
@  #01 @008   ----------------------------------------
 .byte   W96
@  #01 @009   ----------------------------------------
 .byte   W96
@  #01 @010   ----------------------------------------
 .byte   W96
@  #01 @011   ----------------------------------------
 .byte   W96
@  #01 @012   ----------------------------------------
 .byte   W96
@  #01 @013   ----------------------------------------
 .byte   W96
@  #01 @014   ----------------------------------------
 .byte   W96
@  #01 @015   ----------------------------------------
 .byte   W96
@  #01 @016   ----------------------------------------
Label_010052D2:
 .byte   N02 ,Dn3 ,v096
 .byte   W02
 .byte   N03 ,En3
 .byte   W04
 .byte   N05 ,Gn3
 .byte   W06
 .byte   N05
 .byte   W06
 .byte   En3
 .byte   W06
 .byte   Gn3
 .byte   W12
 .byte   N02
 .byte   W02
 .byte   N09 ,An3
 .byte   W10
 .byte   N44 ,En3
 .byte   W48
 .byte   PEND 
@  #01 @017   ----------------------------------------
 .byte   W12
 .byte   N02 ,Dn3
 .byte   W02
 .byte   N09 ,En3
 .byte   W10
 .byte   N05 ,Gn3
 .byte   W06
 .byte   N05
 .byte   W06
 .byte   Gn3 ,v004
 .byte   W06
 .byte   En3 ,v096
 .byte   W12
 .byte   Gn3
 .byte   W06
 .byte   N11 ,An3
 .byte   W12
 .byte   N05 ,En3
 .byte   W12
 .byte   Dn3
 .byte   W06
 .byte   Cn3
 .byte   W06
@  #01 @018   ----------------------------------------
 .byte   N68 ,Bn2
 .byte   W84
 .byte   N05
 .byte   W06
 .byte   Cn3
 .byte   W06
@  #01 @019   ----------------------------------------
 .byte   N11 ,Bn2
 .byte   W12
 .byte   N23 ,Gn2
 .byte   W24
 .byte   N02
 .byte   W02
 .byte   N44 ,An2
 .byte   W56
 .byte   W02
@  #01 @020   ----------------------------------------
 .byte   PATT
  .word Label_010052D2
@  #01 @021   ----------------------------------------
 .byte   W24
 .byte   N05 ,En3 ,v096
 .byte   W06
 .byte   Gn3
 .byte   W12
 .byte   An3
 .byte   W12
 .byte   BEND , c_v+0
 .byte   N28 ,Bn3
 .byte   W01
 .byte   BEND , c_v+1
 .byte   W01
 .byte   BEND , c_v+2
 .byte   W01
 .byte   BEND , c_v+3
 .byte   W01
 .byte   BEND , c_v+5
 .byte   W18
 .byte   BEND , c_v+5
 .byte   W01
 .byte   BEND , c_v+4
 .byte   W01
 .byte   BEND , c_v+3
 .byte   W01
 .byte   BEND , c_v+2
 .byte   W01
 .byte   BEND , c_v+2
 .byte   W01
 .byte   BEND , c_v+1
 .byte   W01
 .byte   BEND , c_v+0
 .byte   W01
 .byte   BEND , c_v+0
 .byte   W01
 .byte   BEND , c_v+0
 .byte   N11 ,An3
 .byte   W12
@  #01 @022   ----------------------------------------
 .byte   N17
 .byte   W18
 .byte   N02
 .byte   W02
 .byte   N72 ,Bn3
 .byte   W76
@  #01 @023   ----------------------------------------
 .byte   W84
 .byte   N05 ,Gn3
 .byte   W12
@  #01 @024   ----------------------------------------
Label_01005357:
 .byte   N23 ,An3 ,v096
 .byte   W24
 .byte   Bn3
 .byte   W24
 .byte   Cn4
 .byte   W24
 .byte   N05 ,Dn4
 .byte   W12
 .byte   N44 ,An3
 .byte   W12
 .byte   PEND 
@  #01 @025   ----------------------------------------
 .byte   W36
 .byte   N05
 .byte   W12
 .byte   N02 ,Dn4
 .byte   W02
 .byte   N15 ,En4
 .byte   W16
 .byte   N17 ,Dn4
 .byte   W18
 .byte   N11 ,Cn4
 .byte   W12
@  #01 @026   ----------------------------------------
 .byte   N68 ,Bn3
 .byte   W84
 .byte   N05
 .byte   W06
 .byte   Cn4
 .byte   W06
@  #01 @027   ----------------------------------------
 .byte   N11 ,Bn3
 .byte   W12
 .byte   Gn3
 .byte   W12
 .byte   N11
 .byte   W12
 .byte   N05 ,En3
 .byte   W12
 .byte   N17 ,Gn3
 .byte   W18
 .byte   N02
 .byte   W02
 .byte   N15 ,An3
 .byte   W16
 .byte   N11 ,Gn3
 .byte   W12
@  #01 @028   ----------------------------------------
 .byte   PATT
  .word Label_01005357
@  #01 @029   ----------------------------------------
 .byte   W36
 .byte   N05 ,An3 ,v096
 .byte   W12
 .byte   N17 ,Gn4
 .byte   W18
 .byte   Fn4
 .byte   W18
 .byte   TIE ,En4
 .byte   W12
@  #01 @030   ----------------------------------------
 .byte   W92
 .byte   W03
 .byte   EOT
 .byte   W01
@  #01 @031   ----------------------------------------
 .byte   W96
@  #01 @032   ----------------------------------------
 .byte   N05 ,Dn4
 .byte   W06
 .byte   N08 ,En4
 .byte   W18
 .byte   Cn4
 .byte   W18
 .byte   N17 ,Bn3
 .byte   W18
 .byte   Gn3
 .byte   W18
 .byte   N17
 .byte   W18
@  #01 @033   ----------------------------------------
Label_010053B7:
 .byte   N05 ,Dn4 ,v096
 .byte   W06
 .byte   N08 ,En4
 .byte   W18
 .byte   Cn4
 .byte   W18
 .byte   N17 ,Bn3
 .byte   W18
 .byte   N02 ,Cn4
 .byte   W02
 .byte   N15 ,Dn4
 .byte   W16
 .byte   N17 ,Cn4
 .byte   W18
 .byte   PEND 
@  #01 @034   ----------------------------------------
 .byte   N92 ,Bn3
 .byte   W96
@  #01 @035   ----------------------------------------
Label_010053D0:
 .byte   N05 ,Dn4 ,v096
 .byte   W06
 .byte   N08 ,En4
 .byte   W18
 .byte   N05 ,Cn4
 .byte   W12
 .byte   Gn3
 .byte   W12
 .byte   N11
 .byte   W12
 .byte   An3
 .byte   W12
 .byte   Bn3
 .byte   W12
 .byte   Cn4
 .byte   W12
 .byte   PEND 
@  #01 @036   ----------------------------------------
 .byte   N02 ,Dn4
 .byte   W03
 .byte   Ds4
 .byte   W03
 .byte   N08 ,En4
 .byte   W90
@  #01 @037   ----------------------------------------
 .byte   PATT
  .word Label_010053B7
@  #01 @038   ----------------------------------------
 .byte   N92 ,Bn3 ,v096
 .byte   W96
@  #01 @039   ----------------------------------------
 .byte   W24
 .byte   N05 ,Gn4
 .byte   W06
 .byte   Fn4
 .byte   W06
 .byte   N02 ,En4
 .byte   W02
 .byte   N03 ,Fn4
 .byte   W04
 .byte   N05
 .byte   W06
 .byte   N02 ,En4
 .byte   W02
 .byte   N03 ,Fn4
 .byte   W04
 .byte   N05 ,En4
 .byte   W06
 .byte   Dn4
 .byte   W06
 .byte   Cn4
 .byte   W06
 .byte   Bn3
 .byte   W06
 .byte   Cn4
 .byte   W06
 .byte   Bn3
 .byte   W06
 .byte   Gn3
 .byte   W06
@  #01 @040   ----------------------------------------
 .byte   N02
 .byte   W03
 .byte   Gs3
 .byte   W03
 .byte   N17 ,An3
 .byte   W18
 .byte   N23
 .byte   W60
 .byte   N05
 .byte   W06
 .byte   Bn3
 .byte   W06
@  #01 @041   ----------------------------------------
 .byte   Cn4
 .byte   W06
 .byte   Bn3
 .byte   W06
 .byte   Cn4
 .byte   W06
 .byte   N02
 .byte   W02
 .byte   N09 ,Dn4
 .byte   W10
 .byte   N08 ,Cn4
 .byte   W09
 .byte   Bn3
 .byte   W09
 .byte   Cn4
 .byte   W09
 .byte   N02 ,Bn3
 .byte   W02
 .byte   Cn4
 .byte   W02
 .byte   N28 ,Bn3
 .byte   W32
 .byte   W03
@  #01 @042   ----------------------------------------
 .byte   W16
 .byte   N07 ,Gn3 ,v064
 .byte   W08
 .byte   N07
 .byte   W08
 .byte   En3
 .byte   W08
 .byte   N07
 .byte   W08
 .byte   N07
 .byte   W08
 .byte   Cn3
 .byte   W08
 .byte   N07
 .byte   W08
 .byte   Bn2
 .byte   W08
 .byte   Gn2
 .byte   W08
 .byte   Bn2
 .byte   W08
@  #01 @043   ----------------------------------------
 .byte   N05
 .byte   W06
 .byte   Cn3
 .byte   W06
 .byte   N11 ,Bn2
 .byte   W84
@  #01 @044   ----------------------------------------
 .byte   N07 ,Gn3
 .byte   W08
 .byte   N07
 .byte   W08
 .byte   N15 ,En3
 .byte   W16
 .byte   N07
 .byte   W08
 .byte   N13 ,Cn3
 .byte   W14
 .byte   N05
 .byte   W06
 .byte   N11 ,Bn2
 .byte   W12
 .byte   Cn3
 .byte   W12
 .byte   N05 ,Bn2
 .byte   W06
 .byte   Gn2
 .byte   W06
@  #01 @045   ----------------------------------------
 .byte   N02
 .byte   W02
 .byte   N21 ,An2
 .byte   W22
 .byte   N23
 .byte   W72
@  #01 @046   ----------------------------------------
 .byte   N05 ,Dn3
 .byte   W06
 .byte   Cn3
 .byte   W12
 .byte   N05
 .byte   W06
 .byte   N05
 .byte   W06
 .byte   Bn2
 .byte   W12
 .byte   N17
 .byte   W30
 .byte   N02 ,Ds3 ,v096
 .byte   W02
 .byte   N09 ,En3
 .byte   W10
 .byte   N11 ,Gn3
 .byte   W12
@  #01 @047   ----------------------------------------
 .byte   BEND , c_v+1
 .byte   N92 ,An3
 .byte   W01
 .byte   BEND , c_v+2
 .byte   W01
 .byte   BEND , c_v+3
 .byte   W01
 .byte   BEND , c_v+4
 .byte   W01
 .byte   BEND , c_v+6
 .byte   W01
 .byte   BEND , c_v+7
 .byte   W01
 .byte   BEND , c_v+8
 .byte   W01
 .byte   BEND , c_v+9
 .byte   W01
 .byte   BEND , c_v+10
 .byte   W56
 .byte   BEND , c_v+10
 .byte   W01
 .byte   BEND , c_v+10
 .byte   W01
 .byte   BEND , c_v+10
 .byte   W01
 .byte   BEND , c_v+10
 .byte   W01
 .byte   BEND , c_v+9
 .byte   W01
 .byte   BEND , c_v+9
 .byte   W01
 .byte   BEND , c_v+9
 .byte   W01
 .byte   BEND , c_v+9
 .byte   W01
 .byte   BEND , c_v+9
 .byte   W01
 .byte   BEND , c_v+9
 .byte   W01
 .byte   BEND , c_v+8
 .byte   W01
 .byte   BEND , c_v+8
 .byte   W01
 .byte   BEND , c_v+8
 .byte   W01
 .byte   BEND , c_v+8
 .byte   W01
 .byte   BEND , c_v+8
 .byte   W01
 .byte   BEND , c_v+8
 .byte   W01
 .byte   BEND , c_v+7
 .byte   W01
 .byte   BEND , c_v+7
 .byte   W01
 .byte   BEND , c_v+7
 .byte   W01
 .byte   BEND , c_v+7
 .byte   W01
 .byte   BEND , c_v+7
 .byte   W01
 .byte   BEND , c_v+7
 .byte   W01
 .byte   BEND , c_v+6
 .byte   W01
 .byte   BEND , c_v+6
 .byte   W01
 .byte   BEND , c_v+6
 .byte   W01
 .byte   BEND , c_v+6
 .byte   W01
 .byte   BEND , c_v+6
 .byte   W01
 .byte   BEND , c_v+6
 .byte   W01
 .byte   BEND , c_v+5
 .byte   W01
 .byte   BEND , c_v+5
 .byte   W01
 .byte   BEND , c_v+5
 .byte   W01
 .byte   BEND , c_v+5
 .byte   W01
@  #01 @048   ----------------------------------------
Label_010054EC:
 .byte   BEND , c_v+0
 .byte   W96
@  #01 @049   ----------------------------------------
 .byte   W96
@  #01 @050   ----------------------------------------
 .byte   W96
@  #01 @051   ----------------------------------------
 .byte   W96
@  #01 @052   ----------------------------------------
 .byte   W96
@  #01 @053   ----------------------------------------
 .byte   W96
@  #01 @054   ----------------------------------------
 .byte   W96
@  #01 @055   ----------------------------------------
 .byte   W96
@  #01 @056   ----------------------------------------
 .byte   W96
@  #01 @057   ----------------------------------------
 .byte   W96
@  #01 @058   ----------------------------------------
 .byte   W96
@  #01 @059   ----------------------------------------
 .byte   W96
@  #01 @060   ----------------------------------------
 .byte   W96
@  #01 @061   ----------------------------------------
 .byte   W96
@  #01 @062   ----------------------------------------
 .byte   W96
@  #01 @063   ----------------------------------------
 .byte   W96
@  #01 @064   ----------------------------------------
 .byte   W96
@  #01 @065   ----------------------------------------
 .byte   W96
@  #01 @066   ----------------------------------------
 .byte   W96
@  #01 @067   ----------------------------------------
 .byte   W96
@  #01 @068   ----------------------------------------
 .byte   W96
@  #01 @069   ----------------------------------------
 .byte   W96
@  #01 @070   ----------------------------------------
 .byte   W96
@  #01 @071   ----------------------------------------
 .byte   W96
@  #01 @072   ----------------------------------------
 .byte   W96
@  #01 @073   ----------------------------------------
 .byte   W96
@  #01 @074   ----------------------------------------
 .byte   W96
@  #01 @075   ----------------------------------------
 .byte   W96
@  #01 @076   ----------------------------------------
 .byte   W96
@  #01 @077   ----------------------------------------
 .byte   W96
@  #01 @078   ----------------------------------------
 .byte   W96
@  #01 @079   ----------------------------------------
 .byte   W96
@  #01 @080   ----------------------------------------
Label_0100550E:
 .byte   N05 ,Dn4 ,v096
 .byte   W06
 .byte   N08 ,En4
 .byte   W18
 .byte   Cn4
 .byte   W18
 .byte   N17 ,Bn3
 .byte   W18
 .byte   N32 ,Gn3
 .byte   W36
 .byte   PEND 
@  #01 @081   ----------------------------------------
 .byte   PATT
  .word Label_010053B7
@  #01 @082   ----------------------------------------
 .byte   N92 ,Bn3 ,v096
 .byte   W96
@  #01 @083   ----------------------------------------
 .byte   PATT
  .word Label_010053D0
@  #01 @084   ----------------------------------------
Label_0100552C:
 .byte   N02 ,Dn4 ,v096
 .byte   W03
 .byte   Ds4
 .byte   W03
 .byte   N08 ,En4
 .byte   W18
 .byte   Cn4 ,v060
 .byte   W18
 .byte   N17 ,Bn3
 .byte   W18
 .byte   N32 ,Gn3
 .byte   W36
 .byte   PEND 
@  #01 @085   ----------------------------------------
 .byte   PATT
  .word Label_010053B7
@  #01 @086   ----------------------------------------
 .byte   W96
@  #01 @087   ----------------------------------------
 .byte   W96
@  #01 @088   ----------------------------------------
 .byte   PATT
  .word Label_0100550E
@  #01 @089   ----------------------------------------
 .byte   PATT
  .word Label_010053B7
@  #01 @090   ----------------------------------------
 .byte   N92 ,Bn3 ,v096
 .byte   W96
@  #01 @091   ----------------------------------------
 .byte   PATT
  .word Label_010053D0
@  #01 @092   ----------------------------------------
 .byte   PATT
  .word Label_0100552C
@  #01 @093   ----------------------------------------
 .byte   PATT
  .word Label_010053B7
@  #01 @094   ----------------------------------------
 .byte   W96
@  #01 @095   ----------------------------------------
 .byte   W96
@  #01 @096   ----------------------------------------
 .byte   GOTO
  .word Label_010054EC
@  #01 @097   ----------------------------------------
 .byte   W96
@  #01 @098   ----------------------------------------
 .byte   W96
@  #01 @099   ----------------------------------------
 .byte   W96
@  #01 @100   ----------------------------------------
 .byte   W96
@  #01 @101   ----------------------------------------
 .byte   W96
@  #01 @102   ----------------------------------------
 .byte   W96
 .byte   FINE

@**************** Track 2 (Midi-Chn.1) ****************@

song04_002:
@  #02 @000   ----------------------------------------
 .byte   KEYSH , song04_key+0
 .byte   VOICE , 74
 .byte   VOL , 42*song04_mvl/mxv
 .byte   PAN , c_v+0
 .byte   VOL , 40*song04_mvl/mxv
 .byte   PAN , c_v+2
 .byte   N05 ,Dn3 ,v072
 .byte   N05 ,Dn4
 .byte   W06
 .byte   N08 ,En3
 .byte   N08 ,En4
 .byte   W18
 .byte   Cn3
 .byte   N08 ,Cn4
 .byte   W18
 .byte   N17 ,Bn2
 .byte   N17 ,Bn3
 .byte   W18
 .byte   N32 ,Gn2
 .byte   N32 ,Gn3
 .byte   W36
@  #02 @001   ----------------------------------------
Label_018C75A1:
 .byte   N05 ,Dn3 ,v072
 .byte   N05 ,Dn4
 .byte   W06
 .byte   N08 ,En3
 .byte   N08 ,En4
 .byte   W18
 .byte   Cn3
 .byte   N08 ,Cn4
 .byte   W18
 .byte   N17 ,Bn2
 .byte   N17 ,Bn3
 .byte   W18
 .byte   N32 ,Gn2
 .byte   N32 ,Gn3
 .byte   W36
 .byte   PEND 
@  #02 @002   ----------------------------------------
 .byte   PATT
  .word Label_018C75A1
@  #02 @003   ----------------------------------------
 .byte   PATT
  .word Label_018C75A1
@  #02 @004   ----------------------------------------
 .byte   PATT
  .word Label_018C75A1
@  #02 @005   ----------------------------------------
 .byte   PATT
  .word Label_018C75A1
@  #02 @006   ----------------------------------------
 .byte   PATT
  .word Label_018C75A1
@  #02 @007   ----------------------------------------
 .byte   PATT
  .word Label_018C75A1
@  #02 @008   ----------------------------------------
 .byte   PATT
  .word Label_018C75A1
@  #02 @009   ----------------------------------------
 .byte   PATT
  .word Label_018C75A1
@  #02 @010   ----------------------------------------
 .byte   PATT
  .word Label_018C75A1
@  #02 @011   ----------------------------------------
 .byte   PATT
  .word Label_018C75A1
@  #02 @012   ----------------------------------------
 .byte   PATT
  .word Label_018C75A1
@  #02 @013   ----------------------------------------
 .byte   PATT
  .word Label_018C75A1
@  #02 @014   ----------------------------------------
 .byte   PATT
  .word Label_018C75A1
@  #02 @015   ----------------------------------------
 .byte   PATT
  .word Label_018C75A1
@  #02 @016   ----------------------------------------
 .byte   W96
@  #02 @017   ----------------------------------------
 .byte   W96
@  #02 @018   ----------------------------------------
 .byte   W96
@  #02 @019   ----------------------------------------
 .byte   W96
@  #02 @020   ----------------------------------------
 .byte   W96
@  #02 @021   ----------------------------------------
 .byte   W96
@  #02 @022   ----------------------------------------
 .byte   W96
@  #02 @023   ----------------------------------------
 .byte   W96
@  #02 @024   ----------------------------------------
 .byte   W96
@  #02 @025   ----------------------------------------
 .byte   W96
@  #02 @026   ----------------------------------------
 .byte   W96
@  #02 @027   ----------------------------------------
 .byte   W96
@  #02 @028   ----------------------------------------
 .byte   W96
@  #02 @029   ----------------------------------------
 .byte   W96
@  #02 @030   ----------------------------------------
 .byte   W96
@  #02 @031   ----------------------------------------
 .byte   W96
@  #02 @032   ----------------------------------------
 .byte   W96
@  #02 @033   ----------------------------------------
 .byte   W96
@  #02 @034   ----------------------------------------
 .byte   W96
@  #02 @035   ----------------------------------------
 .byte   W96
@  #02 @036   ----------------------------------------
 .byte   W96
@  #02 @037   ----------------------------------------
 .byte   W96
@  #02 @038   ----------------------------------------
 .byte   W96
@  #02 @039   ----------------------------------------
 .byte   W96
@  #02 @040   ----------------------------------------
 .byte   W96
@  #02 @041   ----------------------------------------
 .byte   W96
@  #02 @042   ----------------------------------------
 .byte   W96
@  #02 @043   ----------------------------------------
 .byte   W96
@  #02 @044   ----------------------------------------
 .byte   W96
@  #02 @045   ----------------------------------------
 .byte   W96
@  #02 @046   ----------------------------------------
 .byte   W96
@  #02 @047   ----------------------------------------
 .byte   W96
@  #02 @048   ----------------------------------------
Label_018C7621:
 .byte   W96
@  #02 @049   ----------------------------------------
 .byte   W96
@  #02 @050   ----------------------------------------
 .byte   W96
@  #02 @051   ----------------------------------------
 .byte   W96
@  #02 @052   ----------------------------------------
 .byte   W96
@  #02 @053   ----------------------------------------
 .byte   W96
@  #02 @054   ----------------------------------------
 .byte   W96
@  #02 @055   ----------------------------------------
 .byte   W96
@  #02 @056   ----------------------------------------
 .byte   W96
@  #02 @057   ----------------------------------------
 .byte   W96
@  #02 @058   ----------------------------------------
 .byte   W96
@  #02 @059   ----------------------------------------
 .byte   W96
@  #02 @060   ----------------------------------------
 .byte   W96
@  #02 @061   ----------------------------------------
 .byte   W96
@  #02 @062   ----------------------------------------
 .byte   W96
@  #02 @063   ----------------------------------------
 .byte   W96
@  #02 @064   ----------------------------------------
 .byte   W96
@  #02 @065   ----------------------------------------
 .byte   W96
@  #02 @066   ----------------------------------------
 .byte   W96
@  #02 @067   ----------------------------------------
 .byte   W96
@  #02 @068   ----------------------------------------
 .byte   W96
@  #02 @069   ----------------------------------------
 .byte   W96
@  #02 @070   ----------------------------------------
 .byte   W96
@  #02 @071   ----------------------------------------
 .byte   W96
@  #02 @072   ----------------------------------------
 .byte   W96
@  #02 @073   ----------------------------------------
 .byte   W96
@  #02 @074   ----------------------------------------
 .byte   W96
@  #02 @075   ----------------------------------------
 .byte   W96
@  #02 @076   ----------------------------------------
 .byte   W96
@  #02 @077   ----------------------------------------
 .byte   W96
@  #02 @078   ----------------------------------------
 .byte   W96
@  #02 @079   ----------------------------------------
 .byte   W96
@  #02 @080   ----------------------------------------
 .byte   W96
@  #02 @081   ----------------------------------------
 .byte   W96
@  #02 @082   ----------------------------------------
 .byte   W96
@  #02 @083   ----------------------------------------
 .byte   W96
@  #02 @084   ----------------------------------------
 .byte   W96
@  #02 @085   ----------------------------------------
 .byte   W96
@  #02 @086   ----------------------------------------
 .byte   W96
@  #02 @087   ----------------------------------------
 .byte   W96
@  #02 @088   ----------------------------------------
 .byte   W96
@  #02 @089   ----------------------------------------
 .byte   W96
@  #02 @090   ----------------------------------------
 .byte   W96
@  #02 @091   ----------------------------------------
 .byte   W96
@  #02 @092   ----------------------------------------
 .byte   W96
@  #02 @093   ----------------------------------------
 .byte   W96
@  #02 @094   ----------------------------------------
 .byte   W96
@  #02 @095   ----------------------------------------
 .byte   W96
@  #02 @096   ----------------------------------------
 .byte   GOTO
  .word Label_018C7621
@  #02 @097   ----------------------------------------
 .byte   W96
@  #02 @098   ----------------------------------------
 .byte   W96
@  #02 @099   ----------------------------------------
 .byte   W96
@  #02 @100   ----------------------------------------
 .byte   W96
@  #02 @101   ----------------------------------------
 .byte   W96
@  #02 @102   ----------------------------------------
 .byte   W96
 .byte   FINE

@**************** Track 3 (Midi-Chn.2) ****************@

song04_003:
@  #03 @000   ----------------------------------------
 .byte   KEYSH , song04_key+0
 .byte   VOICE , 52
 .byte   VOL , 41*song04_mvl/mxv
 .byte   PAN , c_v+0
 .byte   VOL , 40*song04_mvl/mxv
 .byte   PAN , c_v+2
 .byte   W96
@  #03 @001   ----------------------------------------
 .byte   W96
@  #03 @002   ----------------------------------------
 .byte   W96
@  #03 @003   ----------------------------------------
 .byte   W96
@  #03 @004   ----------------------------------------
 .byte   W96
@  #03 @005   ----------------------------------------
 .byte   W96
@  #03 @006   ----------------------------------------
 .byte   W96
@  #03 @007   ----------------------------------------
 .byte   W96
@  #03 @008   ----------------------------------------
 .byte   W96
@  #03 @009   ----------------------------------------
 .byte   W96
@  #03 @010   ----------------------------------------
 .byte   W96
@  #03 @011   ----------------------------------------
 .byte   W96
@  #03 @012   ----------------------------------------
 .byte   W96
@  #03 @013   ----------------------------------------
 .byte   W96
@  #03 @014   ----------------------------------------
 .byte   W96
@  #03 @015   ----------------------------------------
 .byte   W96
@  #03 @016   ----------------------------------------
 .byte   W96
@  #03 @017   ----------------------------------------
 .byte   W96
@  #03 @018   ----------------------------------------
 .byte   W96
@  #03 @019   ----------------------------------------
 .byte   W96
@  #03 @020   ----------------------------------------
 .byte   W96
@  #03 @021   ----------------------------------------
 .byte   W96
@  #03 @022   ----------------------------------------
 .byte   W96
@  #03 @023   ----------------------------------------
 .byte   W84
 .byte   N05 ,Gn3 ,v052
 .byte   W12
@  #03 @024   ----------------------------------------
Label_018C7138:
 .byte   N23 ,En3 ,v052
 .byte   N23 ,An3
 .byte   W24
 .byte   Gn3
 .byte   N23 ,Bn3
 .byte   W24
 .byte   An3
 .byte   N23 ,Cn4
 .byte   W24
 .byte   N05 ,Bn3
 .byte   N05 ,Dn4
 .byte   W12
 .byte   N32 ,En3
 .byte   N32 ,An3
 .byte   W12
 .byte   PEND 
@  #03 @025   ----------------------------------------
Label_018C7151:
 .byte   W24
 .byte   N23 ,Gn3 ,v052
 .byte   N23 ,Bn3
 .byte   W24
 .byte   An3
 .byte   N23 ,Cn4
 .byte   W24
 .byte   Bn3
 .byte   N23 ,Dn4
 .byte   W24
 .byte   PEND 
@  #03 @026   ----------------------------------------
 .byte   PATT
  .word Label_018C7138
@  #03 @027   ----------------------------------------
 .byte   PATT
  .word Label_018C7151
@  #03 @028   ----------------------------------------
 .byte   N92 ,Cn4 ,v052
 .byte   N92 ,En4
 .byte   W96
@  #03 @029   ----------------------------------------
 .byte   W36
 .byte   N11 ,Cn4
 .byte   N11 ,En4
 .byte   W12
 .byte   N17 ,Bn3
 .byte   N17 ,Dn4
 .byte   W18
 .byte   An3
 .byte   N17 ,Cn4
 .byte   W18
 .byte   N05 ,Gn3
 .byte   N05 ,Bn3
 .byte   W06
 .byte   An3
 .byte   N05 ,Cn4
 .byte   W06
@  #03 @030   ----------------------------------------
 .byte   N92 ,Gn3
 .byte   N92 ,Bn3
 .byte   W96
@  #03 @031   ----------------------------------------
 .byte   W96
@  #03 @032   ----------------------------------------
 .byte   W96
@  #03 @033   ----------------------------------------
 .byte   W96
@  #03 @034   ----------------------------------------
 .byte   W96
@  #03 @035   ----------------------------------------
 .byte   W96
@  #03 @036   ----------------------------------------
 .byte   W96
@  #03 @037   ----------------------------------------
 .byte   W96
@  #03 @038   ----------------------------------------
 .byte   W96
@  #03 @039   ----------------------------------------
 .byte   W96
@  #03 @040   ----------------------------------------
 .byte   W96
@  #03 @041   ----------------------------------------
 .byte   W96
@  #03 @042   ----------------------------------------
 .byte   W96
@  #03 @043   ----------------------------------------
 .byte   W96
@  #03 @044   ----------------------------------------
 .byte   W96
@  #03 @045   ----------------------------------------
 .byte   W96
@  #03 @046   ----------------------------------------
 .byte   W96
@  #03 @047   ----------------------------------------
 .byte   W96
@  #03 @048   ----------------------------------------
Label_018C719F:
 .byte   W96
@  #03 @049   ----------------------------------------
 .byte   W96
@  #03 @050   ----------------------------------------
 .byte   W96
@  #03 @051   ----------------------------------------
 .byte   W96
@  #03 @052   ----------------------------------------
 .byte   W96
@  #03 @053   ----------------------------------------
 .byte   W96
@  #03 @054   ----------------------------------------
 .byte   W96
@  #03 @055   ----------------------------------------
 .byte   W96
@  #03 @056   ----------------------------------------
 .byte   W96
@  #03 @057   ----------------------------------------
 .byte   W96
@  #03 @058   ----------------------------------------
 .byte   W96
@  #03 @059   ----------------------------------------
 .byte   W96
@  #03 @060   ----------------------------------------
 .byte   W96
@  #03 @061   ----------------------------------------
 .byte   W96
@  #03 @062   ----------------------------------------
 .byte   W96
@  #03 @063   ----------------------------------------
 .byte   W96
@  #03 @064   ----------------------------------------
 .byte   W96
@  #03 @065   ----------------------------------------
 .byte   W96
@  #03 @066   ----------------------------------------
 .byte   W96
@  #03 @067   ----------------------------------------
 .byte   W96
@  #03 @068   ----------------------------------------
 .byte   W96
@  #03 @069   ----------------------------------------
 .byte   W96
@  #03 @070   ----------------------------------------
 .byte   W96
@  #03 @071   ----------------------------------------
 .byte   W96
@  #03 @072   ----------------------------------------
 .byte   W96
@  #03 @073   ----------------------------------------
 .byte   W96
@  #03 @074   ----------------------------------------
 .byte   W96
@  #03 @075   ----------------------------------------
 .byte   W96
@  #03 @076   ----------------------------------------
 .byte   W96
@  #03 @077   ----------------------------------------
 .byte   W96
@  #03 @078   ----------------------------------------
 .byte   W96
@  #03 @079   ----------------------------------------
 .byte   W96
@  #03 @080   ----------------------------------------
 .byte   W96
@  #03 @081   ----------------------------------------
 .byte   W96
@  #03 @082   ----------------------------------------
 .byte   W96
@  #03 @083   ----------------------------------------
 .byte   W96
@  #03 @084   ----------------------------------------
 .byte   W96
@  #03 @085   ----------------------------------------
 .byte   W96
@  #03 @086   ----------------------------------------
 .byte   W96
@  #03 @087   ----------------------------------------
 .byte   W96
@  #03 @088   ----------------------------------------
 .byte   W96
@  #03 @089   ----------------------------------------
 .byte   W96
@  #03 @090   ----------------------------------------
 .byte   W96
@  #03 @091   ----------------------------------------
 .byte   W96
@  #03 @092   ----------------------------------------
 .byte   W96
@  #03 @093   ----------------------------------------
 .byte   W96
@  #03 @094   ----------------------------------------
 .byte   W96
@  #03 @095   ----------------------------------------
 .byte   W96
@  #03 @096   ----------------------------------------
 .byte   GOTO
  .word Label_018C719F
@  #03 @097   ----------------------------------------
 .byte   W96
@  #03 @098   ----------------------------------------
 .byte   W96
@  #03 @099   ----------------------------------------
 .byte   W96
@  #03 @100   ----------------------------------------
 .byte   W96
@  #03 @101   ----------------------------------------
 .byte   W96
@  #03 @102   ----------------------------------------
 .byte   W96
 .byte   FINE

@**************** Track 4 (Midi-Chn.3) ****************@

song04_004:
@  #04 @000   ----------------------------------------
 .byte   KEYSH , song04_key+0
 .byte   VOICE , 99
 .byte   VOL , 40*song04_mvl/mxv
 .byte   PAN , c_v+0
 .byte   VOL , 41*song04_mvl/mxv
 .byte   PAN , c_v+0
 .byte   W18
 .byte   N17 ,An2 ,v064
 .byte   N17 ,Cn3
 .byte   W36
 .byte   N11 ,An2
 .byte   N11 ,Cn3
 .byte   W24
 .byte   N17 ,An2
 .byte   N17 ,Cn3
 .byte   W18
@  #04 @001   ----------------------------------------
Label_01005699:
 .byte   W18
 .byte   N17 ,An2 ,v064
 .byte   N17 ,Cn3
 .byte   W36
 .byte   N11 ,An2
 .byte   N11 ,Cn3
 .byte   W24
 .byte   N17 ,An2
 .byte   N17 ,Cn3
 .byte   W18
 .byte   PEND 
@  #04 @002   ----------------------------------------
Label_010056AB:
 .byte   W18
 .byte   N17 ,Gn2 ,v064
 .byte   N17 ,Bn2
 .byte   N17 ,Cn3
 .byte   W36
 .byte   N11 ,Gn2
 .byte   N11 ,Bn2
 .byte   N11 ,Cn3
 .byte   W24
 .byte   N17 ,Gn2
 .byte   N17 ,Bn2
 .byte   N17 ,Cn3
 .byte   W18
 .byte   PEND 
@  #04 @003   ----------------------------------------
 .byte   PATT
  .word Label_010056AB
@  #04 @004   ----------------------------------------
 .byte   PATT
  .word Label_01005699
@  #04 @005   ----------------------------------------
 .byte   PATT
  .word Label_01005699
@  #04 @006   ----------------------------------------
 .byte   PATT
  .word Label_010056AB
@  #04 @007   ----------------------------------------
 .byte   PATT
  .word Label_010056AB
@  #04 @008   ----------------------------------------
 .byte   PATT
  .word Label_01005699
@  #04 @009   ----------------------------------------
 .byte   PATT
  .word Label_01005699
@  #04 @010   ----------------------------------------
 .byte   PATT
  .word Label_010056AB
@  #04 @011   ----------------------------------------
 .byte   PATT
  .word Label_010056AB
@  #04 @012   ----------------------------------------
 .byte   PATT
  .word Label_01005699
@  #04 @013   ----------------------------------------
 .byte   PATT
  .word Label_01005699
@  #04 @014   ----------------------------------------
 .byte   PATT
  .word Label_010056AB
@  #04 @015   ----------------------------------------
 .byte   PATT
  .word Label_010056AB
@  #04 @016   ----------------------------------------
 .byte   PATT
  .word Label_01005699
@  #04 @017   ----------------------------------------
 .byte   PATT
  .word Label_01005699
@  #04 @018   ----------------------------------------
 .byte   PATT
  .word Label_010056AB
@  #04 @019   ----------------------------------------
 .byte   PATT
  .word Label_010056AB
@  #04 @020   ----------------------------------------
 .byte   PATT
  .word Label_01005699
@  #04 @021   ----------------------------------------
 .byte   PATT
  .word Label_01005699
@  #04 @022   ----------------------------------------
 .byte   PATT
  .word Label_010056AB
@  #04 @023   ----------------------------------------
 .byte   PATT
  .word Label_010056AB
@  #04 @024   ----------------------------------------
 .byte   PATT
  .word Label_01005699
@  #04 @025   ----------------------------------------
 .byte   PATT
  .word Label_01005699
@  #04 @026   ----------------------------------------
 .byte   PATT
  .word Label_010056AB
@  #04 @027   ----------------------------------------
 .byte   PATT
  .word Label_010056AB
@  #04 @028   ----------------------------------------
 .byte   PATT
  .word Label_01005699
@  #04 @029   ----------------------------------------
 .byte   PATT
  .word Label_01005699
@  #04 @030   ----------------------------------------
 .byte   PATT
  .word Label_010056AB
@  #04 @031   ----------------------------------------
 .byte   PATT
  .word Label_010056AB
@  #04 @032   ----------------------------------------
 .byte   PATT
  .word Label_01005699
@  #04 @033   ----------------------------------------
 .byte   PATT
  .word Label_01005699
@  #04 @034   ----------------------------------------
 .byte   PATT
  .word Label_010056AB
@  #04 @035   ----------------------------------------
 .byte   PATT
  .word Label_010056AB
@  #04 @036   ----------------------------------------
 .byte   PATT
  .word Label_01005699
@  #04 @037   ----------------------------------------
 .byte   PATT
  .word Label_01005699
@  #04 @038   ----------------------------------------
 .byte   PATT
  .word Label_010056AB
@  #04 @039   ----------------------------------------
 .byte   PATT
  .word Label_010056AB
@  #04 @040   ----------------------------------------
 .byte   PATT
  .word Label_01005699
@  #04 @041   ----------------------------------------
 .byte   PATT
  .word Label_01005699
@  #04 @042   ----------------------------------------
 .byte   PATT
  .word Label_010056AB
@  #04 @043   ----------------------------------------
 .byte   PATT
  .word Label_010056AB
@  #04 @044   ----------------------------------------
 .byte   PATT
  .word Label_01005699
@  #04 @045   ----------------------------------------
 .byte   PATT
  .word Label_01005699
@  #04 @046   ----------------------------------------
 .byte   PATT
  .word Label_010056AB
@  #04 @047   ----------------------------------------
 .byte   PATT
  .word Label_010056AB
@  #04 @048   ----------------------------------------
Label_010057A4:
@  #04 @049   ----------------------------------------
 .byte   PATT
  .word Label_01005699
@  #04 @050   ----------------------------------------
 .byte   PATT
  .word Label_01005699
@  #04 @051   ----------------------------------------
 .byte   PATT
  .word Label_010056AB
@  #04 @052   ----------------------------------------
 .byte   PATT
  .word Label_010056AB
@  #04 @053   ----------------------------------------
 .byte   PATT
  .word Label_01005699
@  #04 @054   ----------------------------------------
 .byte   PATT
  .word Label_01005699
@  #04 @055   ----------------------------------------
 .byte   PATT
  .word Label_010056AB
@  #04 @056   ----------------------------------------
 .byte   PATT
  .word Label_010056AB
@  #04 @057   ----------------------------------------
 .byte   PATT
  .word Label_01005699
@  #04 @058   ----------------------------------------
 .byte   PATT
  .word Label_01005699
@  #04 @059   ----------------------------------------
 .byte   PATT
  .word Label_010056AB
@  #04 @060   ----------------------------------------
 .byte   PATT
  .word Label_010056AB
@  #04 @061   ----------------------------------------
 .byte   PATT
  .word Label_01005699
@  #04 @062   ----------------------------------------
 .byte   PATT
  .word Label_01005699
@  #04 @063   ----------------------------------------
 .byte   PATT
  .word Label_010056AB
@  #04 @064   ----------------------------------------
 .byte   PATT
  .word Label_010056AB
@  #04 @065   ----------------------------------------
 .byte   W96
@  #04 @066   ----------------------------------------
 .byte   W96
@  #04 @067   ----------------------------------------
 .byte   W96
@  #04 @068   ----------------------------------------
 .byte   W96
@  #04 @069   ----------------------------------------
 .byte   W96
@  #04 @070   ----------------------------------------
 .byte   W96
@  #04 @071   ----------------------------------------
 .byte   W96
@  #04 @072   ----------------------------------------
 .byte   W96
@  #04 @073   ----------------------------------------
 .byte   W96
@  #04 @074   ----------------------------------------
 .byte   W96
@  #04 @075   ----------------------------------------
 .byte   W96
@  #04 @076   ----------------------------------------
 .byte   W96
@  #04 @077   ----------------------------------------
 .byte   W96
@  #04 @078   ----------------------------------------
 .byte   W96
@  #04 @079   ----------------------------------------
 .byte   W96
@  #04 @080   ----------------------------------------
 .byte   W96
@  #04 @081   ----------------------------------------
 .byte   PATT
  .word Label_01005699
@  #04 @082   ----------------------------------------
 .byte   PATT
  .word Label_01005699
@  #04 @083   ----------------------------------------
 .byte   PATT
  .word Label_010056AB
@  #04 @084   ----------------------------------------
 .byte   PATT
  .word Label_010056AB
@  #04 @085   ----------------------------------------
 .byte   PATT
  .word Label_01005699
@  #04 @086   ----------------------------------------
 .byte   PATT
  .word Label_01005699
@  #04 @087   ----------------------------------------
 .byte   PATT
  .word Label_010056AB
@  #04 @088   ----------------------------------------
 .byte   PATT
  .word Label_010056AB
@  #04 @089   ----------------------------------------
 .byte   PATT
  .word Label_01005699
@  #04 @090   ----------------------------------------
 .byte   PATT
  .word Label_01005699
@  #04 @091   ----------------------------------------
 .byte   PATT
  .word Label_010056AB
@  #04 @092   ----------------------------------------
 .byte   PATT
  .word Label_010056AB
@  #04 @093   ----------------------------------------
 .byte   PATT
  .word Label_01005699
@  #04 @094   ----------------------------------------
 .byte   PATT
  .word Label_01005699
@  #04 @095   ----------------------------------------
 .byte   PATT
  .word Label_010056AB
@  #04 @096   ----------------------------------------
 .byte   PATT
  .word Label_010056AB
@  #04 @097   ----------------------------------------
 .byte   GOTO
  .word Label_010057A4
@  #04 @098   ----------------------------------------
 .byte   W18
 .byte   N17 ,An2 ,v064
 .byte   N17 ,Cn3
 .byte   W36
 .byte   N11 ,An2 ,v060
 .byte   N11 ,Cn3
 .byte   W24
 .byte   N17 ,An2
 .byte   N17 ,Cn3
 .byte   W18
@  #04 @099   ----------------------------------------
 .byte   W18
 .byte   An2 ,v056
 .byte   N17 ,Cn3
 .byte   W36
 .byte   N11 ,An2 ,v052
 .byte   N11 ,Cn3
 .byte   W24
 .byte   N17 ,An2
 .byte   N17 ,Cn3
 .byte   W18
@  #04 @100   ----------------------------------------
 .byte   W18
 .byte   Gn2 ,v048
 .byte   N17 ,Bn2
 .byte   N17 ,Cn3
 .byte   W36
 .byte   N11 ,Gn2 ,v044
 .byte   N11 ,Bn2
 .byte   N11 ,Cn3
 .byte   W24
 .byte   N17 ,Gn2
 .byte   N17 ,Bn2
 .byte   N17 ,Cn3
 .byte   W18
@  #04 @101   ----------------------------------------
 .byte   W18
 .byte   Gn2 ,v040
 .byte   N17 ,Bn2
 .byte   N17 ,Cn3
 .byte   W36
 .byte   N11 ,Gn2 ,v036
 .byte   N11 ,Bn2
 .byte   N11 ,Cn3
 .byte   W24
 .byte   N17 ,Gn2
 .byte   N17 ,Bn2
 .byte   N17 ,Cn3
 .byte   W18
@  #04 @102   ----------------------------------------
 .byte   W18
 .byte   An2 ,v032
 .byte   N17 ,Cn3
 .byte   W36
 .byte   N11 ,An2 ,v028
 .byte   N11 ,Cn3
 .byte   W24
 .byte   N17 ,An2
 .byte   N17 ,Cn3
 .byte   W18
@  #04 @103   ----------------------------------------
 .byte   W18
 .byte   An2 ,v024
 .byte   N17 ,Cn3
 .byte   W36
 .byte   N11 ,An2 ,v020
 .byte   N11 ,Cn3
 .byte   W24
 .byte   N17 ,An2
 .byte   N17 ,Cn3
 .byte   W18
 .byte   FINE

@**************** Track 5 (Midi-Chn.4) ****************@

song04_005:
@  #05 @000   ----------------------------------------
 .byte   KEYSH , song04_key+0
 .byte   VOICE , 30
 .byte   VOL , 41*song04_mvl/mxv
 .byte   PAN , c_v+0
 .byte   VOL , 40*song04_mvl/mxv
 .byte   PAN , c_v-3
 .byte   W96
@  #05 @001   ----------------------------------------
 .byte   W96
@  #05 @002   ----------------------------------------
 .byte   W96
@  #05 @003   ----------------------------------------
 .byte   W96
@  #05 @004   ----------------------------------------
 .byte   W96
@  #05 @005   ----------------------------------------
 .byte   W96
@  #05 @006   ----------------------------------------
 .byte   W96
@  #05 @007   ----------------------------------------
 .byte   W96
@  #05 @008   ----------------------------------------
 .byte   W96
@  #05 @009   ----------------------------------------
 .byte   W96
@  #05 @010   ----------------------------------------
 .byte   W96
@  #05 @011   ----------------------------------------
 .byte   W96
@  #05 @012   ----------------------------------------
 .byte   W96
@  #05 @013   ----------------------------------------
 .byte   W96
@  #05 @014   ----------------------------------------
 .byte   W96
@  #05 @015   ----------------------------------------
 .byte   W96
@  #05 @016   ----------------------------------------
 .byte   W96
@  #05 @017   ----------------------------------------
 .byte   W96
@  #05 @018   ----------------------------------------
 .byte   W96
@  #05 @019   ----------------------------------------
 .byte   W96
@  #05 @020   ----------------------------------------
 .byte   W96
@  #05 @021   ----------------------------------------
 .byte   W96
@  #05 @022   ----------------------------------------
 .byte   W96
@  #05 @023   ----------------------------------------
 .byte   W96
@  #05 @024   ----------------------------------------
 .byte   W96
@  #05 @025   ----------------------------------------
 .byte   W96
@  #05 @026   ----------------------------------------
 .byte   W96
@  #05 @027   ----------------------------------------
 .byte   W96
@  #05 @028   ----------------------------------------
 .byte   W96
@  #05 @029   ----------------------------------------
 .byte   W96
@  #05 @030   ----------------------------------------
 .byte   W96
@  #05 @031   ----------------------------------------
 .byte   W96
@  #05 @032   ----------------------------------------
Label_01005120:
 .byte   N05 ,Dn3 ,v040
 .byte   W06
 .byte   N08 ,En3
 .byte   W18
 .byte   Cn3
 .byte   W18
 .byte   N17 ,Bn2
 .byte   W18
 .byte   N32 ,Gn2
 .byte   W36
 .byte   PEND 
@  #05 @033   ----------------------------------------
Label_01005130:
 .byte   N05 ,Dn3 ,v040
 .byte   W06
 .byte   N08 ,En3
 .byte   W18
 .byte   Cn3
 .byte   W18
 .byte   N17 ,Bn2
 .byte   W18
 .byte   N02 ,Cn3 ,v064
 .byte   W02
 .byte   N15 ,Dn3
 .byte   W16
 .byte   N17 ,Cn3
 .byte   W18
 .byte   PEND 
@  #05 @034   ----------------------------------------
 .byte   N92 ,Bn2
 .byte   W96
@  #05 @035   ----------------------------------------
Label_0100514A:
 .byte   N05 ,Dn3 ,v040
 .byte   W06
 .byte   N08 ,En3
 .byte   W18
 .byte   N05 ,Cn3
 .byte   W12
 .byte   Gn2 ,v064
 .byte   W12
 .byte   N11
 .byte   W12
 .byte   An2
 .byte   W12
 .byte   Bn2
 .byte   W12
 .byte   Cn3
 .byte   W12
 .byte   PEND 
@  #05 @036   ----------------------------------------
Label_01005160:
 .byte   N05 ,Dn3 ,v064
 .byte   W06
 .byte   N08 ,En3
 .byte   W18
 .byte   Cn3 ,v040
 .byte   W18
 .byte   N17 ,Bn2
 .byte   W18
 .byte   N32 ,Gn2
 .byte   W36
 .byte   PEND 
@  #05 @037   ----------------------------------------
 .byte   PATT
  .word Label_01005130
@  #05 @038   ----------------------------------------
 .byte   N92 ,Bn2 ,v064
 .byte   W96
@  #05 @039   ----------------------------------------
 .byte   PATT
  .word Label_01005120
@  #05 @040   ----------------------------------------
Label_0100517F:
 .byte   N05 ,Dn3 ,v032
 .byte   W06
 .byte   N08 ,En3
 .byte   W18
 .byte   Cn3
 .byte   W18
 .byte   N17 ,Bn2
 .byte   W18
 .byte   N32 ,Gn2
 .byte   W36
 .byte   PEND 
@  #05 @041   ----------------------------------------
Label_0100518F:
 .byte   N05 ,Dn3 ,v032
 .byte   W06
 .byte   N08 ,En3
 .byte   W18
 .byte   Cn3
 .byte   W18
 .byte   N17 ,Bn2
 .byte   W18
 .byte   N02 ,Cn3 ,v052
 .byte   W02
 .byte   N15 ,Dn3
 .byte   W16
 .byte   N17 ,Cn3
 .byte   W18
 .byte   PEND 
@  #05 @042   ----------------------------------------
 .byte   N92 ,Bn2
 .byte   W96
@  #05 @043   ----------------------------------------
 .byte   N05 ,Dn3 ,v032
 .byte   W06
 .byte   N08 ,En3
 .byte   W18
 .byte   N05 ,Cn3
 .byte   W12
 .byte   Gn2 ,v052
 .byte   W12
 .byte   N11
 .byte   W12
 .byte   An2
 .byte   W12
 .byte   Bn2
 .byte   W12
 .byte   Cn3
 .byte   W12
@  #05 @044   ----------------------------------------
 .byte   N05 ,Dn3
 .byte   W06
 .byte   N08 ,En3
 .byte   W18
 .byte   Cn3 ,v032
 .byte   W18
 .byte   N17 ,Bn2
 .byte   W18
 .byte   N32 ,Gn2
 .byte   W36
@  #05 @045   ----------------------------------------
 .byte   PATT
  .word Label_0100518F
@  #05 @046   ----------------------------------------
 .byte   N92 ,Bn2 ,v052
 .byte   W96
@  #05 @047   ----------------------------------------
 .byte   PATT
  .word Label_0100517F
@  #05 @048   ----------------------------------------
Label_010051DB:
 .byte   W96
@  #05 @049   ----------------------------------------
 .byte   W96
@  #05 @050   ----------------------------------------
 .byte   W96
@  #05 @051   ----------------------------------------
 .byte   W96
@  #05 @052   ----------------------------------------
 .byte   W96
@  #05 @053   ----------------------------------------
 .byte   W96
@  #05 @054   ----------------------------------------
 .byte   W96
@  #05 @055   ----------------------------------------
 .byte   W96
@  #05 @056   ----------------------------------------
 .byte   W96
@  #05 @057   ----------------------------------------
 .byte   W96
@  #05 @058   ----------------------------------------
 .byte   W96
@  #05 @059   ----------------------------------------
 .byte   W96
@  #05 @060   ----------------------------------------
 .byte   W96
@  #05 @061   ----------------------------------------
 .byte   W96
@  #05 @062   ----------------------------------------
 .byte   W96
@  #05 @063   ----------------------------------------
 .byte   W96
@  #05 @064   ----------------------------------------
 .byte   W96
@  #05 @065   ----------------------------------------
 .byte   W96
@  #05 @066   ----------------------------------------
 .byte   W96
@  #05 @067   ----------------------------------------
 .byte   W96
@  #05 @068   ----------------------------------------
 .byte   W96
@  #05 @069   ----------------------------------------
 .byte   W96
@  #05 @070   ----------------------------------------
 .byte   W96
@  #05 @071   ----------------------------------------
 .byte   W96
@  #05 @072   ----------------------------------------
 .byte   W96
@  #05 @073   ----------------------------------------
 .byte   W96
@  #05 @074   ----------------------------------------
 .byte   W96
@  #05 @075   ----------------------------------------
 .byte   W96
@  #05 @076   ----------------------------------------
 .byte   W96
@  #05 @077   ----------------------------------------
 .byte   W96
@  #05 @078   ----------------------------------------
 .byte   W96
@  #05 @079   ----------------------------------------
 .byte   W96
@  #05 @080   ----------------------------------------
 .byte   PATT
  .word Label_01005120
@  #05 @081   ----------------------------------------
 .byte   PATT
  .word Label_01005130
@  #05 @082   ----------------------------------------
 .byte   N92 ,Bn2 ,v064
 .byte   W96
@  #05 @083   ----------------------------------------
 .byte   PATT
  .word Label_0100514A
@  #05 @084   ----------------------------------------
 .byte   PATT
  .word Label_01005160
@  #05 @085   ----------------------------------------
 .byte   PATT
  .word Label_01005130
@  #05 @086   ----------------------------------------
 .byte   N92 ,Bn2 ,v064
 .byte   W96
@  #05 @087   ----------------------------------------
 .byte   PATT
  .word Label_01005120
@  #05 @088   ----------------------------------------
 .byte   PATT
  .word Label_01005120
@  #05 @089   ----------------------------------------
 .byte   PATT
  .word Label_01005130
@  #05 @090   ----------------------------------------
 .byte   N92 ,Bn2 ,v064
 .byte   W96
@  #05 @091   ----------------------------------------
 .byte   PATT
  .word Label_0100514A
@  #05 @092   ----------------------------------------
 .byte   PATT
  .word Label_01005160
@  #05 @093   ----------------------------------------
 .byte   PATT
  .word Label_01005130
@  #05 @094   ----------------------------------------
 .byte   N92 ,Bn2 ,v064
 .byte   W96
@  #05 @095   ----------------------------------------
 .byte   PATT
  .word Label_01005120
@  #05 @096   ----------------------------------------
 .byte   GOTO
  .word Label_010051DB
@  #05 @097   ----------------------------------------
 .byte   W96
@  #05 @098   ----------------------------------------
 .byte   W96
@  #05 @099   ----------------------------------------
 .byte   W96
@  #05 @100   ----------------------------------------
 .byte   W96
@  #05 @101   ----------------------------------------
 .byte   W96
@  #05 @102   ----------------------------------------
 .byte   W96
 .byte   FINE

@**************** Track 6 (Midi-Chn.5) ****************@

song04_006:
@  #06 @000   ----------------------------------------
 .byte   KEYSH , song04_key+0
 .byte   VOICE , 34
 .byte   VOL , 40*song04_mvl/mxv
 .byte   PAN , c_v+0
 .byte   VOL , 40*song04_mvl/mxv
 .byte   PAN , c_v+0
 .byte   N56 ,Dn1 ,v096
 .byte   W60
 .byte   N17 ,An0
 .byte   W18
 .byte   Dn1
 .byte   W18
@  #06 @001   ----------------------------------------
Label_010058F5:
 .byte   N56 ,Dn1 ,v096
 .byte   W60
 .byte   N17 ,An0
 .byte   W18
 .byte   Dn1
 .byte   W18
 .byte   PEND 
@  #06 @002   ----------------------------------------
Label_010058FF:
 .byte   N56 ,An0 ,v096
 .byte   W60
 .byte   N17
 .byte   W18
 .byte   En1
 .byte   W18
 .byte   PEND 
@  #06 @003   ----------------------------------------
 .byte   PATT
  .word Label_010058FF
@  #06 @004   ----------------------------------------
 .byte   PATT
  .word Label_010058F5
@  #06 @005   ----------------------------------------
 .byte   PATT
  .word Label_010058F5
@  #06 @006   ----------------------------------------
 .byte   PATT
  .word Label_010058FF
@  #06 @007   ----------------------------------------
 .byte   PATT
  .word Label_010058FF
@  #06 @008   ----------------------------------------
 .byte   PATT
  .word Label_010058F5
@  #06 @009   ----------------------------------------
 .byte   PATT
  .word Label_010058F5
@  #06 @010   ----------------------------------------
 .byte   PATT
  .word Label_010058FF
@  #06 @011   ----------------------------------------
 .byte   PATT
  .word Label_010058FF
@  #06 @012   ----------------------------------------
 .byte   PATT
  .word Label_010058F5
@  #06 @013   ----------------------------------------
 .byte   PATT
  .word Label_010058F5
@  #06 @014   ----------------------------------------
 .byte   PATT
  .word Label_010058FF
@  #06 @015   ----------------------------------------
 .byte   PATT
  .word Label_010058FF
@  #06 @016   ----------------------------------------
Label_01005949:
 .byte   N56 ,Dn1 ,v080
 .byte   W60
 .byte   N17 ,An0
 .byte   W18
 .byte   Dn1
 .byte   W18
 .byte   PEND 
@  #06 @017   ----------------------------------------
 .byte   PATT
  .word Label_01005949
@  #06 @018   ----------------------------------------
Label_01005958:
 .byte   N56 ,An0 ,v080
 .byte   W60
 .byte   N17
 .byte   W18
 .byte   En1
 .byte   W18
 .byte   PEND 
@  #06 @019   ----------------------------------------
 .byte   PATT
  .word Label_01005958
@  #06 @020   ----------------------------------------
 .byte   PATT
  .word Label_01005949
@  #06 @021   ----------------------------------------
 .byte   PATT
  .word Label_01005949
@  #06 @022   ----------------------------------------
 .byte   PATT
  .word Label_01005958
@  #06 @023   ----------------------------------------
 .byte   PATT
  .word Label_01005958
@  #06 @024   ----------------------------------------
 .byte   PATT
  .word Label_01005949
@  #06 @025   ----------------------------------------
 .byte   PATT
  .word Label_01005949
@  #06 @026   ----------------------------------------
 .byte   PATT
  .word Label_01005958
@  #06 @027   ----------------------------------------
 .byte   PATT
  .word Label_01005958
@  #06 @028   ----------------------------------------
 .byte   PATT
  .word Label_01005949
@  #06 @029   ----------------------------------------
 .byte   PATT
  .word Label_01005949
@  #06 @030   ----------------------------------------
 .byte   PATT
  .word Label_01005958
@  #06 @031   ----------------------------------------
 .byte   PATT
  .word Label_01005958
@  #06 @032   ----------------------------------------
 .byte   PATT
  .word Label_010058F5
@  #06 @033   ----------------------------------------
 .byte   PATT
  .word Label_010058F5
@  #06 @034   ----------------------------------------
 .byte   PATT
  .word Label_010058FF
@  #06 @035   ----------------------------------------
 .byte   PATT
  .word Label_010058FF
@  #06 @036   ----------------------------------------
 .byte   PATT
  .word Label_010058F5
@  #06 @037   ----------------------------------------
 .byte   PATT
  .word Label_010058F5
@  #06 @038   ----------------------------------------
 .byte   PATT
  .word Label_010058FF
@  #06 @039   ----------------------------------------
 .byte   PATT
  .word Label_010058FF
@  #06 @040   ----------------------------------------
 .byte   PATT
  .word Label_010058F5
@  #06 @041   ----------------------------------------
 .byte   PATT
  .word Label_010058F5
@  #06 @042   ----------------------------------------
 .byte   PATT
  .word Label_010058FF
@  #06 @043   ----------------------------------------
 .byte   PATT
  .word Label_010058FF
@  #06 @044   ----------------------------------------
 .byte   PATT
  .word Label_010058F5
@  #06 @045   ----------------------------------------
 .byte   PATT
  .word Label_010058F5
@  #06 @046   ----------------------------------------
 .byte   PATT
  .word Label_010058FF
@  #06 @047   ----------------------------------------
 .byte   PATT
  .word Label_010058FF
@  #06 @048   ----------------------------------------
Label_010059F2:
@  #06 @049   ----------------------------------------
 .byte   PATT
  .word Label_010058F5
@  #06 @050   ----------------------------------------
 .byte   PATT
  .word Label_010058F5
@  #06 @051   ----------------------------------------
 .byte   PATT
  .word Label_010058FF
@  #06 @052   ----------------------------------------
 .byte   PATT
  .word Label_010058FF
@  #06 @053   ----------------------------------------
 .byte   PATT
  .word Label_010058F5
@  #06 @054   ----------------------------------------
 .byte   PATT
  .word Label_010058F5
@  #06 @055   ----------------------------------------
 .byte   PATT
  .word Label_010058FF
@  #06 @056   ----------------------------------------
 .byte   PATT
  .word Label_010058FF
@  #06 @057   ----------------------------------------
 .byte   PATT
  .word Label_010058F5
@  #06 @058   ----------------------------------------
 .byte   PATT
  .word Label_010058F5
@  #06 @059   ----------------------------------------
 .byte   PATT
  .word Label_010058FF
@  #06 @060   ----------------------------------------
 .byte   PATT
  .word Label_010058FF
@  #06 @061   ----------------------------------------
 .byte   PATT
  .word Label_010058F5
@  #06 @062   ----------------------------------------
 .byte   PATT
  .word Label_010058F5
@  #06 @063   ----------------------------------------
 .byte   PATT
  .word Label_010058FF
@  #06 @064   ----------------------------------------
 .byte   PATT
  .word Label_010058FF
@  #06 @065   ----------------------------------------
 .byte   W96
@  #06 @066   ----------------------------------------
 .byte   W96
@  #06 @067   ----------------------------------------
 .byte   W96
@  #06 @068   ----------------------------------------
 .byte   W96
@  #06 @069   ----------------------------------------
 .byte   W96
@  #06 @070   ----------------------------------------
 .byte   W96
@  #06 @071   ----------------------------------------
 .byte   W96
@  #06 @072   ----------------------------------------
 .byte   W96
@  #06 @073   ----------------------------------------
 .byte   W96
@  #06 @074   ----------------------------------------
 .byte   W96
@  #06 @075   ----------------------------------------
 .byte   W96
@  #06 @076   ----------------------------------------
 .byte   W96
@  #06 @077   ----------------------------------------
 .byte   PATT
  .word Label_010058F5
@  #06 @078   ----------------------------------------
 .byte   PATT
  .word Label_010058F5
@  #06 @079   ----------------------------------------
 .byte   PATT
  .word Label_010058FF
@  #06 @080   ----------------------------------------
 .byte   PATT
  .word Label_010058FF
@  #06 @081   ----------------------------------------
 .byte   PATT
  .word Label_010058F5
@  #06 @082   ----------------------------------------
 .byte   PATT
  .word Label_010058F5
@  #06 @083   ----------------------------------------
 .byte   PATT
  .word Label_010058FF
@  #06 @084   ----------------------------------------
 .byte   PATT
  .word Label_010058FF
@  #06 @085   ----------------------------------------
 .byte   PATT
  .word Label_010058F5
@  #06 @086   ----------------------------------------
 .byte   PATT
  .word Label_010058F5
@  #06 @087   ----------------------------------------
 .byte   PATT
  .word Label_010058FF
@  #06 @088   ----------------------------------------
 .byte   PATT
  .word Label_010058FF
@  #06 @089   ----------------------------------------
 .byte   PATT
  .word Label_010058F5
@  #06 @090   ----------------------------------------
 .byte   PATT
  .word Label_010058F5
@  #06 @091   ----------------------------------------
 .byte   PATT
  .word Label_010058FF
@  #06 @092   ----------------------------------------
 .byte   PATT
  .word Label_010058FF
@  #06 @093   ----------------------------------------
 .byte   PATT
  .word Label_010058F5
@  #06 @094   ----------------------------------------
 .byte   PATT
  .word Label_010058F5
@  #06 @095   ----------------------------------------
 .byte   PATT
  .word Label_010058FF
@  #06 @096   ----------------------------------------
 .byte   PATT
  .word Label_010058FF
@  #06 @097   ----------------------------------------
 .byte   GOTO
  .word Label_010059F2
@  #06 @098   ----------------------------------------
 .byte   N56 ,Dn1 ,v096
 .byte   W60
 .byte   N17 ,An0 ,v088
 .byte   W18
 .byte   Dn1
 .byte   W18
@  #06 @099   ----------------------------------------
 .byte   N56 ,Dn1 ,v084
 .byte   W60
 .byte   N17 ,An0 ,v076
 .byte   W18
 .byte   Dn1 ,v072
 .byte   W18
@  #06 @100   ----------------------------------------
 .byte   N56 ,An0
 .byte   W60
 .byte   N17 ,An0 ,v064
 .byte   W18
 .byte   En1 ,v060
 .byte   W18
@  #06 @101   ----------------------------------------
 .byte   N56 ,An0 ,v056
 .byte   W60
 .byte   N17 ,An0 ,v048
 .byte   W18
 .byte   En1
 .byte   W18
@  #06 @102   ----------------------------------------
 .byte   N56 ,Dn1 ,v044
 .byte   W60
 .byte   N17 ,An0 ,v036
 .byte   W18
 .byte   Dn1 ,v032
 .byte   W18
@  #06 @103   ----------------------------------------
 .byte   N56
 .byte   W60
 .byte   N17 ,An0 ,v024
 .byte   W18
 .byte   Dn1 ,v020
 .byte   W18
 .byte   FINE

@**************** Track 7 (Midi-Chn.6) ****************@

song04_007:
@  #07 @000   ----------------------------------------
 .byte   KEYSH , song04_key+0
 .byte   VOICE , 75
 .byte   VOL , 40*song04_mvl/mxv
 .byte   PAN , c_v+0
 .byte   VOL , 40*song04_mvl/mxv
 .byte   PAN , c_v-3
 .byte   W96
@  #07 @001   ----------------------------------------
 .byte   W96
@  #07 @002   ----------------------------------------
 .byte   W96
@  #07 @003   ----------------------------------------
 .byte   W96
@  #07 @004   ----------------------------------------
 .byte   W96
@  #07 @005   ----------------------------------------
 .byte   W96
@  #07 @006   ----------------------------------------
 .byte   W96
@  #07 @007   ----------------------------------------
 .byte   W96
@  #07 @008   ----------------------------------------
 .byte   W96
@  #07 @009   ----------------------------------------
 .byte   W96
@  #07 @010   ----------------------------------------
 .byte   W96
@  #07 @011   ----------------------------------------
 .byte   W96
@  #07 @012   ----------------------------------------
 .byte   W96
@  #07 @013   ----------------------------------------
 .byte   W96
@  #07 @014   ----------------------------------------
 .byte   W96
@  #07 @015   ----------------------------------------
 .byte   W96
@  #07 @016   ----------------------------------------
 .byte   W96
@  #07 @017   ----------------------------------------
 .byte   W96
@  #07 @018   ----------------------------------------
 .byte   W96
@  #07 @019   ----------------------------------------
 .byte   W96
@  #07 @020   ----------------------------------------
 .byte   W96
@  #07 @021   ----------------------------------------
 .byte   W96
@  #07 @022   ----------------------------------------
 .byte   W96
@  #07 @023   ----------------------------------------
 .byte   W96
@  #07 @024   ----------------------------------------
 .byte   W96
@  #07 @025   ----------------------------------------
 .byte   W96
@  #07 @026   ----------------------------------------
 .byte   W96
@  #07 @027   ----------------------------------------
 .byte   W96
@  #07 @028   ----------------------------------------
 .byte   W96
@  #07 @029   ----------------------------------------
 .byte   W96
@  #07 @030   ----------------------------------------
 .byte   W96
@  #07 @031   ----------------------------------------
 .byte   W96
@  #07 @032   ----------------------------------------
Label_01005B34:
 .byte   N05 ,Dn3 ,v080
 .byte   N05 ,Dn4
 .byte   W06
 .byte   N08 ,En3
 .byte   N08 ,En4
 .byte   W18
 .byte   Cn3
 .byte   N08 ,Cn4
 .byte   W18
 .byte   N17 ,Bn2
 .byte   N17 ,Bn3
 .byte   W18
 .byte   N32 ,Gn2
 .byte   N32 ,Gn3
 .byte   W36
 .byte   PEND 
@  #07 @033   ----------------------------------------
 .byte   PATT
  .word Label_01005B34
@  #07 @034   ----------------------------------------
 .byte   PATT
  .word Label_01005B34
@  #07 @035   ----------------------------------------
 .byte   PATT
  .word Label_01005B34
@  #07 @036   ----------------------------------------
 .byte   PATT
  .word Label_01005B34
@  #07 @037   ----------------------------------------
 .byte   PATT
  .word Label_01005B34
@  #07 @038   ----------------------------------------
 .byte   PATT
  .word Label_01005B34
@  #07 @039   ----------------------------------------
 .byte   PATT
  .word Label_01005B34
@  #07 @040   ----------------------------------------
 .byte   PATT
  .word Label_01005B34
@  #07 @041   ----------------------------------------
 .byte   PATT
  .word Label_01005B34
@  #07 @042   ----------------------------------------
 .byte   PATT
  .word Label_01005B34
@  #07 @043   ----------------------------------------
 .byte   PATT
  .word Label_01005B34
@  #07 @044   ----------------------------------------
 .byte   PATT
  .word Label_01005B34
@  #07 @045   ----------------------------------------
 .byte   PATT
  .word Label_01005B34
@  #07 @046   ----------------------------------------
 .byte   PATT
  .word Label_01005B34
@  #07 @047   ----------------------------------------
 .byte   PATT
  .word Label_01005B34
@  #07 @048   ----------------------------------------
Label_01005B99:
 .byte   N05 ,Dn3 ,v060
 .byte   N05 ,Dn4
 .byte   W06
 .byte   N08 ,En3
 .byte   N08 ,En4
 .byte   W18
 .byte   Cn3
 .byte   N08 ,Cn4
 .byte   W18
 .byte   N17 ,Bn2
 .byte   N17 ,Bn3
 .byte   W18
 .byte   N32 ,Gn2
 .byte   N32 ,Gn3
 .byte   W36
 .byte   PEND 
@  #07 @049   ----------------------------------------
 .byte   PATT
  .word Label_01005B99
@  #07 @050   ----------------------------------------
 .byte   PATT
  .word Label_01005B99
@  #07 @051   ----------------------------------------
 .byte   PATT
  .word Label_01005B99
@  #07 @052   ----------------------------------------
 .byte   PATT
  .word Label_01005B99
@  #07 @053   ----------------------------------------
 .byte   PATT
  .word Label_01005B99
@  #07 @054   ----------------------------------------
 .byte   PATT
  .word Label_01005B99
@  #07 @055   ----------------------------------------
 .byte   PATT
  .word Label_01005B99
@  #07 @056   ----------------------------------------
 .byte   PATT
  .word Label_01005B99
@  #07 @057   ----------------------------------------
 .byte   PATT
  .word Label_01005B99
@  #07 @058   ----------------------------------------
 .byte   PATT
  .word Label_01005B99
@  #07 @059   ----------------------------------------
 .byte   PATT
  .word Label_01005B99
@  #07 @060   ----------------------------------------
 .byte   PATT
  .word Label_01005B99
@  #07 @061   ----------------------------------------
 .byte   PATT
  .word Label_01005B99
@  #07 @062   ----------------------------------------
 .byte   PATT
  .word Label_01005B99
@  #07 @063   ----------------------------------------
 .byte   PATT
  .word Label_01005B99
@  #07 @064   ----------------------------------------
 .byte   W96
@  #07 @065   ----------------------------------------
 .byte   W96
@  #07 @066   ----------------------------------------
 .byte   W96
@  #07 @067   ----------------------------------------
 .byte   W96
@  #07 @068   ----------------------------------------
 .byte   W96
@  #07 @069   ----------------------------------------
 .byte   W96
@  #07 @070   ----------------------------------------
 .byte   W96
@  #07 @071   ----------------------------------------
 .byte   W96
@  #07 @072   ----------------------------------------
 .byte   W96
@  #07 @073   ----------------------------------------
 .byte   W96
@  #07 @074   ----------------------------------------
 .byte   W96
@  #07 @075   ----------------------------------------
 .byte   W96
@  #07 @076   ----------------------------------------
 .byte   W96
@  #07 @077   ----------------------------------------
 .byte   W96
@  #07 @078   ----------------------------------------
 .byte   W96
@  #07 @079   ----------------------------------------
 .byte   W96
@  #07 @080   ----------------------------------------
 .byte   PATT
  .word Label_01005B34
@  #07 @081   ----------------------------------------
 .byte   PATT
  .word Label_01005B34
@  #07 @082   ----------------------------------------
 .byte   PATT
  .word Label_01005B34
@  #07 @083   ----------------------------------------
 .byte   PATT
  .word Label_01005B34
@  #07 @084   ----------------------------------------
 .byte   PATT
  .word Label_01005B34
@  #07 @085   ----------------------------------------
 .byte   PATT
  .word Label_01005B34
@  #07 @086   ----------------------------------------
 .byte   PATT
  .word Label_01005B34
@  #07 @087   ----------------------------------------
 .byte   PATT
  .word Label_01005B34
@  #07 @088   ----------------------------------------
 .byte   PATT
  .word Label_01005B34
@  #07 @089   ----------------------------------------
 .byte   PATT
  .word Label_01005B34
@  #07 @090   ----------------------------------------
 .byte   PATT
  .word Label_01005B34
@  #07 @091   ----------------------------------------
 .byte   PATT
  .word Label_01005B34
@  #07 @092   ----------------------------------------
 .byte   PATT
  .word Label_01005B34
@  #07 @093   ----------------------------------------
 .byte   PATT
  .word Label_01005B34
@  #07 @094   ----------------------------------------
 .byte   PATT
  .word Label_01005B34
@  #07 @095   ----------------------------------------
 .byte   PATT
  .word Label_01005B34
@  #07 @096   ----------------------------------------
 .byte   GOTO
  .word Label_01005B99
@  #07 @097   ----------------------------------------
 .byte   N05 ,Dn3 ,v080
 .byte   N05 ,Dn4
 .byte   W06
 .byte   N08 ,En3
 .byte   N08 ,En4
 .byte   W03
 .byte   W09
 .byte   W06
 .byte   Cn3
 .byte   N08 ,Cn4
 .byte   W03
 .byte   W09
 .byte   W06
 .byte   N17 ,Bn2 ,v076
 .byte   N17 ,Bn3
 .byte   W03
 .byte   W09
 .byte   W06
 .byte   N32 ,Gn2
 .byte   N32 ,Gn3
 .byte   W03
 .byte   W09
 .byte   W09
 .byte   W09
 .byte   W06
@  #07 @098   ----------------------------------------
 .byte   N05 ,Dn3 ,v072
 .byte   N05 ,Dn4
 .byte   W03
 .byte   W03
 .byte   N08 ,En3
 .byte   N08 ,En4
 .byte   W06
 .byte   W09
 .byte   W03
 .byte   Cn3 ,v068
 .byte   N08 ,Cn4
 .byte   W06
 .byte   W09
 .byte   W03
 .byte   N17 ,Bn2
 .byte   N17 ,Bn3
 .byte   W06
 .byte   W09
 .byte   W03
 .byte   N32 ,Gn2 ,v064
 .byte   N32 ,Gn3
 .byte   W06
 .byte   W09
 .byte   W09
 .byte   W09
 .byte   W03
@  #07 @099   ----------------------------------------
 .byte   N05 ,Dn3 ,v060
 .byte   N05 ,Dn4
 .byte   W06
 .byte   N08 ,En3
 .byte   N08 ,En4
 .byte   W09
 .byte   W09
 .byte   Cn3 ,v056
 .byte   N08 ,Cn4
 .byte   W09
 .byte   W09
 .byte   N17 ,Bn2
 .byte   N17 ,Bn3
 .byte   W09
 .byte   W09
 .byte   N32 ,Gn2 ,v052
 .byte   N32 ,Gn3
 .byte   W09
 .byte   W09
 .byte   W09
 .byte   W09
@  #07 @100   ----------------------------------------
 .byte   N05 ,Dn3 ,v048
 .byte   N05 ,Dn4
 .byte   W06
 .byte   N08 ,En3
 .byte   N08 ,En4
 .byte   W03
 .byte   W09
 .byte   W06
 .byte   Cn3
 .byte   N08 ,Cn4
 .byte   W03
 .byte   W09
 .byte   W06
 .byte   N17 ,Bn2 ,v044
 .byte   N17 ,Bn3
 .byte   W03
 .byte   W09
 .byte   W06
 .byte   N32 ,Gn2
 .byte   N32 ,Gn3
 .byte   W03
 .byte   W09
 .byte   W09
 .byte   W09
 .byte   W06
@  #07 @101   ----------------------------------------
 .byte   N05 ,Dn3 ,v040
 .byte   N05 ,Dn4
 .byte   W03
 .byte   W03
 .byte   N08 ,En3
 .byte   N08 ,En4
 .byte   W06
 .byte   W09
 .byte   W03
 .byte   Cn3 ,v036
 .byte   N08 ,Cn4
 .byte   W06
 .byte   W09
 .byte   W03
 .byte   N17 ,Bn2
 .byte   N17 ,Bn3
 .byte   W06
 .byte   W09
 .byte   W03
 .byte   N32 ,Gn2 ,v032
 .byte   N32 ,Gn3
 .byte   W06
 .byte   W09
 .byte   W09
 .byte   W09
 .byte   W03
@  #07 @102   ----------------------------------------
 .byte   N05 ,Dn3 ,v028
 .byte   N05 ,Dn4
 .byte   W06
 .byte   N08 ,En3
 .byte   N08 ,En4
 .byte   W09
 .byte   W09
 .byte   Cn3 ,v024
 .byte   N08 ,Cn4
 .byte   W09
 .byte   W09
 .byte   N17 ,Bn2
 .byte   N17 ,Bn3
 .byte   W09
 .byte   W09
 .byte   N32 ,Gn2 ,v020
 .byte   N32 ,Gn3
 .byte   W09
 .byte   W09
 .byte   W09
 .byte   W09
 .byte   FINE

@**************** Track 8 (Midi-Chn.7) ****************@

song04_008:
@  #08 @000   ----------------------------------------
 .byte   KEYSH , song04_key+0
 .byte   VOICE , 48
 .byte   VOL , 40*song04_mvl/mxv
 .byte   PAN , c_v-3
 .byte   VOL , 40*song04_mvl/mxv
 .byte   PAN , c_v+0
 .byte   W96
@  #08 @001   ----------------------------------------
 .byte   W96
@  #08 @002   ----------------------------------------
 .byte   W96
@  #08 @003   ----------------------------------------
 .byte   W96
@  #08 @004   ----------------------------------------
 .byte   W96
@  #08 @005   ----------------------------------------
 .byte   W96
@  #08 @006   ----------------------------------------
 .byte   W96
@  #08 @007   ----------------------------------------
 .byte   W96
@  #08 @008   ----------------------------------------
 .byte   W96
@  #08 @009   ----------------------------------------
 .byte   W96
@  #08 @010   ----------------------------------------
 .byte   W96
@  #08 @011   ----------------------------------------
 .byte   W96
@  #08 @012   ----------------------------------------
 .byte   W96
@  #08 @013   ----------------------------------------
 .byte   W96
@  #08 @014   ----------------------------------------
 .byte   W96
@  #08 @015   ----------------------------------------
 .byte   W96
@  #08 @016   ----------------------------------------
 .byte   W96
@  #08 @017   ----------------------------------------
 .byte   W96
@  #08 @018   ----------------------------------------
 .byte   W96
@  #08 @019   ----------------------------------------
 .byte   W96
@  #08 @020   ----------------------------------------
 .byte   W96
@  #08 @021   ----------------------------------------
 .byte   W96
@  #08 @022   ----------------------------------------
 .byte   W96
@  #08 @023   ----------------------------------------
 .byte   W96
@  #08 @024   ----------------------------------------
 .byte   W96
@  #08 @025   ----------------------------------------
 .byte   W96
@  #08 @026   ----------------------------------------
 .byte   W96
@  #08 @027   ----------------------------------------
 .byte   W96
@  #08 @028   ----------------------------------------
 .byte   W96
@  #08 @029   ----------------------------------------
 .byte   W96
@  #08 @030   ----------------------------------------
 .byte   W72
 .byte   N11 ,En3 ,v052
 .byte   W12
 .byte   Gn3
 .byte   W12
@  #08 @031   ----------------------------------------
 .byte   N92 ,Bn3 ,v032
 .byte   N92 ,Bn4
 .byte   W01
 .byte   W01
 .byte   W02
 .byte   W01
 .byte   W02
 .byte   W01
 .byte   W02
 .byte   W01
 .byte   W02
 .byte   W01
 .byte   W02
 .byte   W01
 .byte   W01
 .byte   W02
 .byte   W01
 .byte   W02
 .byte   W01
 .byte   W02
 .byte   W01
 .byte   W02
 .byte   W01
 .byte   W02
 .byte   W01
 .byte   W01
 .byte   W02
 .byte   W01
 .byte   W02
 .byte   W01
 .byte   W02
 .byte   W01
 .byte   W02
 .byte   W01
 .byte   W02
 .byte   W01
 .byte   W01
 .byte   W02
 .byte   W01
 .byte   W02
 .byte   W01
 .byte   W02
 .byte   W01
 .byte   W02
 .byte   W01
 .byte   W02
 .byte   W01
 .byte   W01
 .byte   W02
 .byte   W01
 .byte   W02
 .byte   W01
 .byte   W02
 .byte   W01
 .byte   W02
 .byte   W01
 .byte   W02
 .byte   W01
 .byte   W01
 .byte   W02
 .byte   W01
 .byte   W02
 .byte   W01
 .byte   W02
 .byte   W01
 .byte   W02
 .byte   W01
 .byte   W02
@  #08 @032   ----------------------------------------
 .byte   W96
@  #08 @033   ----------------------------------------
 .byte   W96
@  #08 @034   ----------------------------------------
 .byte   W96
@  #08 @035   ----------------------------------------
 .byte   W96
@  #08 @036   ----------------------------------------
 .byte   W96
@  #08 @037   ----------------------------------------
 .byte   W96
@  #08 @038   ----------------------------------------
 .byte   W96
@  #08 @039   ----------------------------------------
 .byte   W96
@  #08 @040   ----------------------------------------
 .byte   W96
@  #08 @041   ----------------------------------------
 .byte   W96
@  #08 @042   ----------------------------------------
 .byte   W96
@  #08 @043   ----------------------------------------
 .byte   W96
@  #08 @044   ----------------------------------------
 .byte   W96
@  #08 @045   ----------------------------------------
 .byte   W96
@  #08 @046   ----------------------------------------
 .byte   W96
@  #08 @047   ----------------------------------------
 .byte   W96
@  #08 @048   ----------------------------------------
Label_01005010:
 .byte   W96
@  #08 @049   ----------------------------------------
 .byte   W96
@  #08 @050   ----------------------------------------
 .byte   W96
@  #08 @051   ----------------------------------------
 .byte   W96
@  #08 @052   ----------------------------------------
 .byte   W96
@  #08 @053   ----------------------------------------
 .byte   W96
@  #08 @054   ----------------------------------------
 .byte   W96
@  #08 @055   ----------------------------------------
 .byte   W96
@  #08 @056   ----------------------------------------
 .byte   W96
@  #08 @057   ----------------------------------------
 .byte   W96
@  #08 @058   ----------------------------------------
 .byte   W96
@  #08 @059   ----------------------------------------
 .byte   W96
@  #08 @060   ----------------------------------------
 .byte   W96
@  #08 @061   ----------------------------------------
 .byte   W96
@  #08 @062   ----------------------------------------
 .byte   W96
@  #08 @063   ----------------------------------------
 .byte   W96
@  #08 @064   ----------------------------------------
 .byte   W96
@  #08 @065   ----------------------------------------
 .byte   W96
@  #08 @066   ----------------------------------------
 .byte   W96
@  #08 @067   ----------------------------------------
 .byte   W96
@  #08 @068   ----------------------------------------
 .byte   W96
@  #08 @069   ----------------------------------------
 .byte   W96
@  #08 @070   ----------------------------------------
 .byte   W96
@  #08 @071   ----------------------------------------
 .byte   W96
@  #08 @072   ----------------------------------------
 .byte   W96
@  #08 @073   ----------------------------------------
 .byte   W96
@  #08 @074   ----------------------------------------
 .byte   W96
@  #08 @075   ----------------------------------------
 .byte   W96
@  #08 @076   ----------------------------------------
 .byte   W96
@  #08 @077   ----------------------------------------
 .byte   N92 ,Dn3 ,v036
 .byte   W03
 .byte   W04
 .byte   W04
 .byte   W03
 .byte   W04
 .byte   W04
 .byte   W03
 .byte   W04
 .byte   W04
 .byte   W04
 .byte   W03
 .byte   W04
 .byte   W04
 .byte   W03
 .byte   W04
 .byte   W04
 .byte   W03
 .byte   W04
 .byte   W04
 .byte   W04
 .byte   W03
 .byte   W04
 .byte   W04
 .byte   W03
 .byte   W04
 .byte   W04
@  #08 @078   ----------------------------------------
 .byte   N44 ,Gn2 ,v060
 .byte   N56 ,Dn3
 .byte   W04
 .byte   W03
 .byte   W04
 .byte   W04
 .byte   W03
 .byte   W04
 .byte   W04
 .byte   W03
 .byte   W04
 .byte   W04
 .byte   W04
 .byte   W03
 .byte   W04
 .byte   W04
 .byte   W03
 .byte   W04
 .byte   W01
 .byte   N17 ,En3 ,v076
 .byte   W03
 .byte   W03
 .byte   W04
 .byte   W04
 .byte   W04
 .byte   Gn3 ,v080
 .byte   W18
@  #08 @079   ----------------------------------------
 .byte   N92 ,Bn2 ,v052
 .byte   N92 ,Dn3
 .byte   N92 ,Gn3
 .byte   N92 ,Bn3
 .byte   W02
 .byte   W02
 .byte   W02
 .byte   W02
 .byte   W02
 .byte   W02
 .byte   W02
 .byte   W02
 .byte   W02
 .byte   W02
 .byte   W02
 .byte   W02
 .byte   W02
 .byte   W02
 .byte   W02
 .byte   W02
 .byte   W02
 .byte   W02
 .byte   W02
 .byte   W02
 .byte   W02
 .byte   W02
 .byte   W03
 .byte   W02
 .byte   W02
 .byte   W02
 .byte   W02
 .byte   W02
 .byte   W02
 .byte   W02
 .byte   W02
 .byte   W02
 .byte   W02
 .byte   W02
 .byte   W02
 .byte   W02
 .byte   W02
 .byte   W02
 .byte   W02
 .byte   W02
 .byte   W02
 .byte   W02
 .byte   W02
 .byte   W02
 .byte   W02
 .byte   W03
 .byte   W02
@  #08 @080   ----------------------------------------
 .byte   W96
@  #08 @081   ----------------------------------------
 .byte   W96
@  #08 @082   ----------------------------------------
 .byte   W96
@  #08 @083   ----------------------------------------
 .byte   W96
@  #08 @084   ----------------------------------------
 .byte   W96
@  #08 @085   ----------------------------------------
 .byte   W96
@  #08 @086   ----------------------------------------
 .byte   W96
@  #08 @087   ----------------------------------------
 .byte   W96
@  #08 @088   ----------------------------------------
 .byte   W96
@  #08 @089   ----------------------------------------
 .byte   W96
@  #08 @090   ----------------------------------------
 .byte   W96
@  #08 @091   ----------------------------------------
 .byte   W96
@  #08 @092   ----------------------------------------
 .byte   W96
@  #08 @093   ----------------------------------------
 .byte   W96
@  #08 @094   ----------------------------------------
 .byte   W96
@  #08 @095   ----------------------------------------
 .byte   W96
@  #08 @096   ----------------------------------------
 .byte   GOTO
  .word Label_01005010
@  #08 @097   ----------------------------------------
 .byte   W96
@  #08 @098   ----------------------------------------
 .byte   W96
@  #08 @099   ----------------------------------------
 .byte   W96
@  #08 @100   ----------------------------------------
 .byte   W96
@  #08 @101   ----------------------------------------
 .byte   W96
@  #08 @102   ----------------------------------------
 .byte   W96
 .byte   FINE

@**************** Track 9 (Midi-Chn.8) ****************@

song04_009:
@  #09 @000   ----------------------------------------
 .byte   KEYSH , song04_key+0
 .byte   VOICE , 4
 .byte   VOL , 40*song04_mvl/mxv
 .byte   PAN , c_v+0
 .byte   VOL , 40*song04_mvl/mxv
 .byte   PAN , c_v+0
 .byte   N92 ,Dn2 ,v048
 .byte   N92 ,Fn2
 .byte   N92 ,An2
 .byte   N92 ,Cn3 ,v080
 .byte   W96
@  #09 @001   ----------------------------------------
Label_01005D63:
 .byte   N32 ,Fn2 ,v048
 .byte   N92 ,En3 ,v080
 .byte   W36
 .byte   N56 ,Dn2 ,v096
 .byte   W60
 .byte   PEND 
@  #09 @002   ----------------------------------------
Label_01005D6F:
 .byte   N92 ,Cn2 ,v048
 .byte   N92 ,En2
 .byte   N92 ,Gn2
 .byte   N92 ,Bn2
 .byte   W96
 .byte   PEND 
@  #09 @003   ----------------------------------------
Label_01005D7A:
 .byte   N92 ,En2 ,v048
 .byte   N92 ,Gn2
 .byte   N32 ,Cn3 ,v096
 .byte   N32 ,En3
 .byte   W36
 .byte   N32
 .byte   N32 ,Gn3
 .byte   W36
 .byte   N23
 .byte   N23 ,Bn3
 .byte   W24
 .byte   PEND 
@  #09 @004   ----------------------------------------
Label_01005D8E:
 .byte   N92 ,Dn2 ,v048
 .byte   N92 ,Fn2
 .byte   N92 ,An2
 .byte   N92 ,Cn3 ,v080
 .byte   N92 ,En3 ,v096
 .byte   W96
 .byte   PEND 
@  #09 @005   ----------------------------------------
Label_01005D9D:
 .byte   N68 ,Fn2 ,v048
 .byte   N92 ,En3 ,v080
 .byte   W72
 .byte   N23 ,Dn2 ,v096
 .byte   W24
 .byte   PEND 
@  #09 @006   ----------------------------------------
Label_01005DA9:
 .byte   N32 ,Cn2 ,v048
 .byte   N32 ,En2
 .byte   N32 ,Gn2
 .byte   N32 ,Bn2
 .byte   W36
 .byte   N56 ,En2 ,v096
 .byte   W36
 .byte   N11 ,Bn2
 .byte   W12
 .byte   Cn3
 .byte   W12
 .byte   PEND 
@  #09 @007   ----------------------------------------
Label_01005DBD:
 .byte   N32 ,En3 ,v096
 .byte   W36
 .byte   N11 ,Gn2
 .byte   W24
 .byte   N23 ,Gn3
 .byte   W36
 .byte   PEND 
@  #09 @008   ----------------------------------------
Label_01005DC8:
 .byte   N92 ,Dn2 ,v048
 .byte   N92 ,Fn2
 .byte   N92 ,An2
 .byte   N92 ,Cn3 ,v080
 .byte   W96
 .byte   PEND 
@  #09 @009   ----------------------------------------
Label_01005DD4:
 .byte   N92 ,Fn2 ,v048
 .byte   N92 ,En3 ,v080
 .byte   W96
 .byte   PEND 
@  #09 @010   ----------------------------------------
Label_01005DDC:
 .byte   N68 ,Cn2 ,v048
 .byte   N68 ,En2
 .byte   N68 ,Gn2
 .byte   N68 ,Bn2
 .byte   N92 ,Dn3 ,v096
 .byte   W72
 .byte   N11 ,Gn2
 .byte   W12
 .byte   Bn2
 .byte   W12
 .byte   PEND 
@  #09 @011   ----------------------------------------
Label_01005DEF:
 .byte   N32 ,En3 ,v096
 .byte   W36
 .byte   N32
 .byte   N32 ,Gn3
 .byte   W36
 .byte   N23
 .byte   N23 ,Bn3
 .byte   W24
 .byte   PEND 
@  #09 @012   ----------------------------------------
 .byte   PATT
  .word Label_01005D8E
@  #09 @013   ----------------------------------------
 .byte   PATT
  .word Label_01005DD4
@  #09 @014   ----------------------------------------
 .byte   PATT
  .word Label_01005D6F
@  #09 @015   ----------------------------------------
 .byte   N32 ,Gn3 ,v096
 .byte   W36
 .byte   N23 ,Dn3
 .byte   W24
 .byte   N32 ,En3
 .byte   W36
@  #09 @016   ----------------------------------------
Label_01005E15:
 .byte   N92 ,Dn2 ,v040
 .byte   N92 ,Fn2
 .byte   N92 ,An2
 .byte   N92 ,Cn3 ,v064
 .byte   W96
 .byte   PEND 
@  #09 @017   ----------------------------------------
Label_01005E21:
 .byte   N32 ,Fn2 ,v040
 .byte   N92 ,En3 ,v064
 .byte   W36
 .byte   N56 ,Dn2 ,v080
 .byte   W60
 .byte   PEND 
@  #09 @018   ----------------------------------------
Label_01005E2D:
 .byte   N92 ,Cn2 ,v040
 .byte   N92 ,En2
 .byte   N92 ,Gn2
 .byte   N92 ,Bn2
 .byte   W96
 .byte   PEND 
@  #09 @019   ----------------------------------------
Label_01005E38:
 .byte   N92 ,En2 ,v040
 .byte   N92 ,Gn2
 .byte   N32 ,Cn3 ,v080
 .byte   N32 ,En3
 .byte   W36
 .byte   N32
 .byte   N32 ,Gn3
 .byte   W36
 .byte   N23
 .byte   N23 ,Bn3
 .byte   W24
 .byte   PEND 
@  #09 @020   ----------------------------------------
Label_01005E4C:
 .byte   N92 ,Dn2 ,v040
 .byte   N92 ,Fn2
 .byte   N92 ,An2
 .byte   N92 ,Cn3 ,v064
 .byte   N92 ,En3 ,v080
 .byte   W96
 .byte   PEND 
@  #09 @021   ----------------------------------------
Label_01005E5B:
 .byte   N68 ,Fn2 ,v040
 .byte   N92 ,En3 ,v064
 .byte   W72
 .byte   N23 ,Dn2 ,v080
 .byte   W24
 .byte   PEND 
@  #09 @022   ----------------------------------------
Label_01005E67:
 .byte   N32 ,Cn2 ,v040
 .byte   N32 ,En2
 .byte   N32 ,Gn2
 .byte   N32 ,Bn2
 .byte   W36
 .byte   N56 ,En2 ,v080
 .byte   W36
 .byte   N11 ,Bn2
 .byte   W12
 .byte   Cn3
 .byte   W12
 .byte   PEND 
@  #09 @023   ----------------------------------------
Label_01005E7B:
 .byte   N32 ,En3 ,v080
 .byte   W36
 .byte   N11 ,Gn2
 .byte   W24
 .byte   N23 ,Gn3
 .byte   W36
 .byte   PEND 
@  #09 @024   ----------------------------------------
 .byte   PATT
  .word Label_01005E15
@  #09 @025   ----------------------------------------
Label_01005E8B:
 .byte   N92 ,Fn2 ,v040
 .byte   N92 ,En3 ,v064
 .byte   W96
 .byte   PEND 
@  #09 @026   ----------------------------------------
Label_01005E93:
 .byte   N68 ,Cn2 ,v040
 .byte   N68 ,En2
 .byte   N68 ,Gn2
 .byte   N68 ,Bn2
 .byte   N92 ,Dn3 ,v080
 .byte   W72
 .byte   N11 ,Gn2
 .byte   W12
 .byte   Bn2
 .byte   W12
 .byte   PEND 
@  #09 @027   ----------------------------------------
Label_01005EA6:
 .byte   N32 ,En3 ,v080
 .byte   W36
 .byte   N32
 .byte   N32 ,Gn3
 .byte   W36
 .byte   N23
 .byte   N23 ,Bn3
 .byte   W24
 .byte   PEND 
@  #09 @028   ----------------------------------------
 .byte   PATT
  .word Label_01005E4C
@  #09 @029   ----------------------------------------
 .byte   PATT
  .word Label_01005E8B
@  #09 @030   ----------------------------------------
 .byte   PATT
  .word Label_01005E2D
@  #09 @031   ----------------------------------------
Label_01005EC2:
 .byte   N32 ,Gn3 ,v080
 .byte   W36
 .byte   N23 ,Dn3
 .byte   W24
 .byte   N32 ,En3
 .byte   W36
 .byte   PEND 
@  #09 @032   ----------------------------------------
 .byte   PATT
  .word Label_01005E15
@  #09 @033   ----------------------------------------
 .byte   PATT
  .word Label_01005E21
@  #09 @034   ----------------------------------------
 .byte   PATT
  .word Label_01005E2D
@  #09 @035   ----------------------------------------
 .byte   PATT
  .word Label_01005E38
@  #09 @036   ----------------------------------------
 .byte   PATT
  .word Label_01005E4C
@  #09 @037   ----------------------------------------
 .byte   PATT
  .word Label_01005E5B
@  #09 @038   ----------------------------------------
 .byte   PATT
  .word Label_01005E67
@  #09 @039   ----------------------------------------
 .byte   PATT
  .word Label_01005E7B
@  #09 @040   ----------------------------------------
 .byte   PATT
  .word Label_01005E15
@  #09 @041   ----------------------------------------
 .byte   PATT
  .word Label_01005E8B
@  #09 @042   ----------------------------------------
 .byte   PATT
  .word Label_01005E93
@  #09 @043   ----------------------------------------
 .byte   PATT
  .word Label_01005EA6
@  #09 @044   ----------------------------------------
 .byte   PATT
  .word Label_01005E4C
@  #09 @045   ----------------------------------------
 .byte   PATT
  .word Label_01005E8B
@  #09 @046   ----------------------------------------
 .byte   PATT
  .word Label_01005E2D
@  #09 @047   ----------------------------------------
 .byte   PATT
  .word Label_01005EC2
@  #09 @048   ----------------------------------------
Label_01005F1D:
@  #09 @049   ----------------------------------------
 .byte   PATT
  .word Label_01005E15
@  #09 @050   ----------------------------------------
 .byte   PATT
  .word Label_01005E21
@  #09 @051   ----------------------------------------
 .byte   PATT
  .word Label_01005E2D
@  #09 @052   ----------------------------------------
 .byte   PATT
  .word Label_01005E38
@  #09 @053   ----------------------------------------
 .byte   PATT
  .word Label_01005E4C
@  #09 @054   ----------------------------------------
 .byte   PATT
  .word Label_01005E5B
@  #09 @055   ----------------------------------------
 .byte   PATT
  .word Label_01005E67
@  #09 @056   ----------------------------------------
 .byte   PATT
  .word Label_01005E7B
@  #09 @057   ----------------------------------------
 .byte   PATT
  .word Label_01005E15
@  #09 @058   ----------------------------------------
 .byte   PATT
  .word Label_01005E8B
@  #09 @059   ----------------------------------------
 .byte   PATT
  .word Label_01005E93
@  #09 @060   ----------------------------------------
 .byte   PATT
  .word Label_01005EA6
@  #09 @061   ----------------------------------------
Label_01005F59:
 .byte   TIE ,Dn2 ,v040
 .byte   TIE ,Fn2
 .byte   TIE ,An2
 .byte   TIE ,Cn3 ,v064
 .byte   N92 ,En3 ,v080
 .byte   W96
 .byte   PEND 
@  #09 @062   ----------------------------------------
Label_01005F68:
 .byte   N92 ,En3 ,v064
 .byte   W92
 .byte   W03
 .byte   PEND 
 .byte   EOT
 .byte   Dn2 ,v053
 .byte   An2 ,v060
 .byte   W01
@  #09 @063   ----------------------------------------
Label_01005F74:
 .byte   TIE ,Cn2 ,v040
 .byte   N92 ,En2
 .byte   TIE ,Gn2
 .byte   TIE ,Bn2
 .byte   W96
 .byte   PEND 
@  #09 @064   ----------------------------------------
Label_01005F7F:
 .byte   N92 ,En2 ,v040
 .byte   N32 ,Gn3 ,v080
 .byte   W36
 .byte   N23 ,Dn3
 .byte   W24
 .byte   N32 ,En3
 .byte   W32
 .byte   W03
 .byte   PEND 
 .byte   EOT
 .byte   Cn2 ,v055
 .byte   Bn2
 .byte   W01
@  #09 @065   ----------------------------------------
 .byte   PATT
  .word Label_01005DC8
@  #09 @066   ----------------------------------------
 .byte   PATT
  .word Label_01005D63
@  #09 @067   ----------------------------------------
 .byte   PATT
  .word Label_01005D6F
@  #09 @068   ----------------------------------------
 .byte   PATT
  .word Label_01005D7A
@  #09 @069   ----------------------------------------
 .byte   PATT
  .word Label_01005D8E
@  #09 @070   ----------------------------------------
 .byte   PATT
  .word Label_01005D9D
@  #09 @071   ----------------------------------------
 .byte   PATT
  .word Label_01005DA9
@  #09 @072   ----------------------------------------
 .byte   PATT
  .word Label_01005DBD
@  #09 @073   ----------------------------------------
 .byte   PATT
  .word Label_01005DC8
@  #09 @074   ----------------------------------------
 .byte   PATT
  .word Label_01005DD4
@  #09 @075   ----------------------------------------
 .byte   PATT
  .word Label_01005DDC
@  #09 @076   ----------------------------------------
 .byte   PATT
  .word Label_01005DEF
@  #09 @077   ----------------------------------------
 .byte   TIE ,Dn2 ,v048
 .byte   TIE ,Fn2
 .byte   TIE ,An2
 .byte   TIE ,Cn3 ,v080
 .byte   N92 ,En3 ,v096
 .byte   W96
@  #09 @078   ----------------------------------------
 .byte   En3 ,v080
 .byte   W92
 .byte   W03
 .byte   EOT
 .byte   Dn2 ,v053
 .byte   An2 ,v060
 .byte   W01
@  #09 @079   ----------------------------------------
 .byte   TIE ,Cn2 ,v048
 .byte   N92 ,En2
 .byte   TIE ,Gn2
 .byte   TIE ,Bn2
 .byte   W96
@  #09 @080   ----------------------------------------
 .byte   N92 ,En2
 .byte   N32 ,Gn3 ,v096
 .byte   W36
 .byte   N23 ,Dn3
 .byte   W24
 .byte   N32 ,En3
 .byte   W32
 .byte   W03
 .byte   EOT
 .byte   Cn2 ,v055
 .byte   Bn2
 .byte   W01
@  #09 @081   ----------------------------------------
 .byte   PATT
  .word Label_01005E15
@  #09 @082   ----------------------------------------
 .byte   PATT
  .word Label_01005E21
@  #09 @083   ----------------------------------------
 .byte   PATT
  .word Label_01005E2D
@  #09 @084   ----------------------------------------
 .byte   PATT
  .word Label_01005E38
@  #09 @085   ----------------------------------------
 .byte   PATT
  .word Label_01005E4C
@  #09 @086   ----------------------------------------
 .byte   PATT
  .word Label_01005E5B
@  #09 @087   ----------------------------------------
 .byte   PATT
  .word Label_01005E67
@  #09 @088   ----------------------------------------
 .byte   PATT
  .word Label_01005E7B
@  #09 @089   ----------------------------------------
 .byte   PATT
  .word Label_01005E15
@  #09 @090   ----------------------------------------
 .byte   PATT
  .word Label_01005E8B
@  #09 @091   ----------------------------------------
 .byte   PATT
  .word Label_01005E93
@  #09 @092   ----------------------------------------
 .byte   PATT
  .word Label_01005EA6
@  #09 @093   ----------------------------------------
 .byte   PATT
  .word Label_01005F59
@  #09 @094   ----------------------------------------
 .byte   PATT
  .word Label_01005F68
@  #09 @095   ----------------------------------------
 .byte   EOT
 .byte   Dn2 ,v053
 .byte   An2 ,v060
 .byte   W01
@  #09 @096   ----------------------------------------
 .byte   PATT
  .word Label_01005F74
@  #09 @097   ----------------------------------------
 .byte   PATT
  .word Label_01005F7F
@  #09 @098   ----------------------------------------
 .byte   EOT
 .byte   Cn2 ,v055
 .byte   Bn2
 .byte   W01
 .byte   GOTO
  .word Label_01005F1D
@  #09 @099   ----------------------------------------
 .byte   PATT
  .word Label_01005E15
@  #09 @100   ----------------------------------------
 .byte   N32 ,Fn2 ,v036
 .byte   N92 ,En3 ,v056
 .byte   W36
 .byte   N56 ,Dn2 ,v068
 .byte   W60
@  #09 @101   ----------------------------------------
 .byte   N92 ,Cn2 ,v032
 .byte   N92 ,En2
 .byte   N92 ,Gn2
 .byte   N92 ,Bn2
 .byte   W96
@  #09 @102   ----------------------------------------
 .byte   En2 ,v024
 .byte   N92 ,Gn2
 .byte   N32 ,Cn3 ,v048
 .byte   N32 ,En3
 .byte   W36
 .byte   En3 ,v044
 .byte   N32 ,Gn3
 .byte   W36
 .byte   N23 ,Gn3 ,v040
 .byte   N23 ,Bn3
 .byte   W24
@  #09 @103   ----------------------------------------
 .byte   N92 ,Dn2 ,v020
 .byte   N92 ,Fn2
 .byte   N92 ,An2
 .byte   N92 ,Cn3 ,v032
 .byte   N92 ,En3 ,v040
 .byte   W96
@  #09 @104   ----------------------------------------
 .byte   N68 ,Fn2 ,v016
 .byte   N92 ,En3 ,v024
 .byte   W72
 .byte   N23 ,Dn2 ,v020
 .byte   W24
 .byte   FINE

@**************** Track 10 (Midi-Chn.9) ****************@

song04_010:
@  #10 @000   ----------------------------------------
 .byte   KEYSH , song04_key+0
 .byte   VOICE , 124
 .byte   VOL , 40*song04_mvl/mxv
 .byte   PAN , c_v+0
 .byte   VOL , 40*song04_mvl/mxv
 .byte   PAN , c_v+0
 .byte   VOL , 40*song04_mvl/mxv
 .byte   PAN , c_v+0
 .byte   N11 ,Cn1 ,v068
 .byte   N11 ,En3 ,v096
 .byte   N11 ,Bn4 ,v024
 .byte   W12
 .byte   N05 ,Dn3 ,v096
 .byte   N11 ,Bn4 ,v024
 .byte   W06
 .byte   N05 ,Cn1 ,v068
 .byte   N05 ,Dn3 ,v096
 .byte   N05 ,En3
 .byte   W06
 .byte   N11 ,Bn4 ,v024
 .byte   W06
 .byte   N05 ,Ds3 ,v096
 .byte   W06
 .byte   Cn1 ,v068
 .byte   N11 ,Bn4 ,v024
 .byte   W06
 .byte   N05 ,Cn1 ,v068
 .byte   N05 ,En3 ,v096
 .byte   W06
 .byte   N11 ,Bn4 ,v024
 .byte   W06
 .byte   N05 ,Dn3 ,v096
 .byte   W06
 .byte   N11 ,Cn1 ,v068
 .byte   N11 ,Dn3 ,v096
 .byte   N11 ,En3
 .byte   N11 ,Bn4 ,v024
 .byte   W12
 .byte   N05 ,CnM2 ,v080
 .byte   N11 ,Dn3 ,v096
 .byte   N11 ,Bn4 ,v024
 .byte   W06
 .byte   N05 ,CnM2 ,v080
 .byte   W06
 .byte   N05
 .byte   N11 ,Cn1 ,v068
 .byte   N11 ,Bn4 ,v024
 .byte   W06
 .byte   N05 ,CnM2 ,v080
 .byte   W06
@  #10 @001   ----------------------------------------
Label_01006129:
 .byte   N11 ,Cn1 ,v068
 .byte   N11 ,En3 ,v096
 .byte   N11 ,Bn4 ,v024
 .byte   W12
 .byte   N05 ,Dn3 ,v096
 .byte   N11 ,Bn4 ,v024
 .byte   W06
 .byte   N05 ,Cn1 ,v068
 .byte   N05 ,Dn3 ,v096
 .byte   N05 ,En3
 .byte   W06
 .byte   N11 ,Bn4 ,v024
 .byte   W06
 .byte   N05 ,Ds3 ,v096
 .byte   W06
 .byte   Cn1 ,v068
 .byte   N11 ,Bn4 ,v024
 .byte   W06
 .byte   N05 ,Cn1 ,v068
 .byte   N05 ,En3 ,v096
 .byte   W06
 .byte   N11 ,Bn4 ,v024
 .byte   W06
 .byte   N17 ,CnM2 ,v080
 .byte   N05 ,Dn3 ,v096
 .byte   W06
 .byte   N11 ,Cn1 ,v068
 .byte   N11 ,Dn3 ,v096
 .byte   N11 ,En3
 .byte   N11 ,Bn4 ,v024
 .byte   W12
 .byte   N05 ,CnM2 ,v080
 .byte   N05 ,Dn3 ,v096
 .byte   N11 ,Bn4 ,v024
 .byte   W06
 .byte   N05 ,CnM2 ,v080
 .byte   N05 ,Dn3 ,v096
 .byte   W06
 .byte   CnM2 ,v080
 .byte   N05 ,Cn1 ,v068
 .byte   N05 ,Dn3 ,v096
 .byte   N11 ,Bn4 ,v024
 .byte   W06
 .byte   N05 ,CnM2 ,v080
 .byte   N05 ,Dn3 ,v096
 .byte   W06
 .byte   PEND 
@  #10 @002   ----------------------------------------
Label_01006194:
 .byte   N11 ,Cn1 ,v068
 .byte   N11 ,En3 ,v096
 .byte   N11 ,Bn4 ,v024
 .byte   W12
 .byte   N05 ,Dn3 ,v096
 .byte   N11 ,Bn4 ,v024
 .byte   W06
 .byte   N05 ,Cn1 ,v068
 .byte   N05 ,Dn3 ,v096
 .byte   N05 ,En3
 .byte   W06
 .byte   N11 ,Bn4 ,v024
 .byte   W06
 .byte   N05 ,Ds3 ,v096
 .byte   W06
 .byte   Cn1 ,v068
 .byte   N11 ,Bn4 ,v024
 .byte   W06
 .byte   N05 ,Cn1 ,v068
 .byte   N05 ,En3 ,v096
 .byte   W06
 .byte   N11 ,Bn4 ,v024
 .byte   W06
 .byte   N05 ,Dn3 ,v096
 .byte   W06
 .byte   N11 ,Cn1 ,v068
 .byte   N11 ,Dn3 ,v096
 .byte   N11 ,En3
 .byte   N11 ,Bn4 ,v024
 .byte   W12
 .byte   N05 ,CnM2 ,v080
 .byte   N11 ,Dn3 ,v096
 .byte   N11 ,Bn4 ,v024
 .byte   W06
 .byte   N05 ,CnM2 ,v080
 .byte   W06
 .byte   N05
 .byte   N11 ,Cn1 ,v068
 .byte   N11 ,Bn4 ,v024
 .byte   W06
 .byte   N05 ,CnM2 ,v080
 .byte   W06
 .byte   PEND 
@  #10 @003   ----------------------------------------
 .byte   PATT
  .word Label_01006129
@  #10 @004   ----------------------------------------
 .byte   PATT
  .word Label_01006194
@  #10 @005   ----------------------------------------
 .byte   PATT
  .word Label_01006129
@  #10 @006   ----------------------------------------
 .byte   PATT
  .word Label_01006194
@  #10 @007   ----------------------------------------
 .byte   N11 ,Cn1 ,v068
 .byte   N11 ,En3 ,v096
 .byte   N11 ,Bn4 ,v024
 .byte   W12
 .byte   N05 ,Dn3 ,v096
 .byte   N11 ,Bn4 ,v024
 .byte   W06
 .byte   N05 ,Cn1 ,v068
 .byte   N05 ,Dn3 ,v096
 .byte   N05 ,En3
 .byte   W06
 .byte   N11 ,Bn4 ,v024
 .byte   W06
 .byte   N05 ,Ds3 ,v096
 .byte   W06
 .byte   Cn1 ,v068
 .byte   N11 ,Bn4 ,v024
 .byte   W06
 .byte   N05 ,Cn1 ,v068
 .byte   N05 ,En3 ,v096
 .byte   W06
 .byte   N11 ,Bn4 ,v024
 .byte   W06
 .byte   N17 ,CnM2 ,v080
 .byte   N05 ,Dn3 ,v096
 .byte   W06
 .byte   N11 ,Cn1 ,v068
 .byte   N11 ,Dn3 ,v096
 .byte   N11 ,En3
 .byte   N11 ,Bn4 ,v024
 .byte   W06
 .byte   N05 ,Dn1 ,v048
 .byte   W06
 .byte   CnM2 ,v080
 .byte   N05 ,En1 ,v127
 .byte   N05 ,Dn3 ,v096
 .byte   N11 ,Bn4 ,v024
 .byte   W06
 .byte   N05 ,CnM2 ,v080
 .byte   N05 ,Dn1 ,v127
 .byte   N05 ,Dn3 ,v096
 .byte   W06
 .byte   CnM2 ,v080
 .byte   N05 ,Cn1 ,v068
 .byte   N02 ,Dn1 ,v096
 .byte   N05 ,Dn3
 .byte   N11 ,Bn4 ,v024
 .byte   W03
 .byte   N02 ,Dn1 ,v096
 .byte   W03
 .byte   N05 ,CnM2 ,v080
 .byte   N02 ,Dn1 ,v096
 .byte   N05 ,Dn3
 .byte   W03
 .byte   N02 ,En1 ,v127
 .byte   W03
@  #10 @008   ----------------------------------------
Label_01006285:
 .byte   N11 ,Cn1 ,v068
 .byte   N11 ,Cn1 ,v096
 .byte   N11 ,Cs2
 .byte   N11 ,En3
 .byte   N11 ,Bn4 ,v024
 .byte   W12
 .byte   Fs1 ,v096
 .byte   N05 ,Dn3
 .byte   N11 ,Bn4 ,v024
 .byte   W06
 .byte   N05 ,Cn1 ,v068
 .byte   N05 ,Dn3 ,v096
 .byte   N05 ,En3
 .byte   W06
 .byte   N11 ,Dn1 ,v116
 .byte   N11 ,Fs1 ,v096
 .byte   N11 ,Bn4 ,v024
 .byte   W06
 .byte   N05 ,Ds3 ,v096
 .byte   W06
 .byte   Cn1 ,v068
 .byte   N05 ,Fs1 ,v096
 .byte   N11 ,Bn4 ,v024
 .byte   W06
 .byte   N05 ,Cn1 ,v068
 .byte   N05 ,Cn1 ,v096
 .byte   N05 ,Dn1 ,v048
 .byte   N05 ,En3 ,v096
 .byte   W06
 .byte   Fs1
 .byte   N11 ,Bn4 ,v024
 .byte   W06
 .byte   N05 ,Dn1 ,v048
 .byte   N05 ,Dn3 ,v096
 .byte   W06
 .byte   N11 ,Cn1 ,v068
 .byte   N11 ,Cn1 ,v096
 .byte   N11 ,Fs1
 .byte   N11 ,Dn3
 .byte   N11 ,En3
 .byte   N11 ,Bn4 ,v024
 .byte   W12
 .byte   N05 ,CnM2 ,v080
 .byte   N11 ,Dn1 ,v116
 .byte   N11 ,Fs1 ,v096
 .byte   N11 ,Dn3
 .byte   N11 ,Bn4 ,v024
 .byte   W06
 .byte   N05 ,CnM2 ,v080
 .byte   W06
 .byte   N05
 .byte   N11 ,Cn1 ,v068
 .byte   N05 ,Fs1 ,v096
 .byte   N11 ,Bn4 ,v024
 .byte   W06
 .byte   N05 ,CnM2 ,v080
 .byte   N05 ,Dn1 ,v048
 .byte   W06
 .byte   PEND 
@  #10 @009   ----------------------------------------
Label_0100630A:
 .byte   N11 ,Cn1 ,v068
 .byte   N11 ,Cn1 ,v096
 .byte   N11 ,Fs1
 .byte   N11 ,En3
 .byte   N11 ,Bn4 ,v024
 .byte   W12
 .byte   Fs1 ,v096
 .byte   N05 ,Dn3
 .byte   N11 ,Bn4 ,v024
 .byte   W06
 .byte   N05 ,Cn1 ,v068
 .byte   N05 ,Dn3 ,v096
 .byte   N05 ,En3
 .byte   W06
 .byte   N11 ,Dn1 ,v116
 .byte   N11 ,Fs1 ,v096
 .byte   N11 ,Bn4 ,v024
 .byte   W06
 .byte   N05 ,Ds3 ,v096
 .byte   W06
 .byte   Cn1 ,v068
 .byte   N05 ,Fs1 ,v096
 .byte   N11 ,Bn4 ,v024
 .byte   W06
 .byte   N05 ,Cn1 ,v068
 .byte   N05 ,Cn1 ,v096
 .byte   N05 ,Dn1 ,v048
 .byte   N05 ,En3 ,v096
 .byte   W06
 .byte   Fs1
 .byte   N11 ,Bn4 ,v024
 .byte   W06
 .byte   N17 ,CnM2 ,v080
 .byte   N05 ,Dn1 ,v048
 .byte   N05 ,Dn3 ,v096
 .byte   W06
 .byte   N11 ,Cn1 ,v068
 .byte   N11 ,Cn1 ,v096
 .byte   N11 ,Fs1
 .byte   N11 ,Dn3
 .byte   N11 ,En3
 .byte   N11 ,Bn4 ,v024
 .byte   W12
 .byte   N05 ,CnM2 ,v080
 .byte   N11 ,Dn1 ,v116
 .byte   N11 ,Fs1 ,v096
 .byte   N05 ,Dn3
 .byte   N11 ,Bn4 ,v024
 .byte   W06
 .byte   N05 ,CnM2 ,v080
 .byte   N05 ,Dn3 ,v096
 .byte   W06
 .byte   CnM2 ,v080
 .byte   N05 ,Cn1 ,v068
 .byte   N05 ,Fs1 ,v096
 .byte   N05 ,Dn3
 .byte   N11 ,Bn4 ,v024
 .byte   W06
 .byte   N05 ,CnM2 ,v080
 .byte   N02 ,Dn1 ,v048
 .byte   N05 ,Dn3 ,v096
 .byte   W03
 .byte   N02 ,Dn1 ,v048
 .byte   W03
 .byte   PEND 
@  #10 @010   ----------------------------------------
Label_0100639F:
 .byte   N11 ,Cn1 ,v068
 .byte   N11 ,Cn1 ,v096
 .byte   N11 ,Fs1
 .byte   N11 ,En3
 .byte   N11 ,Bn4 ,v024
 .byte   W12
 .byte   Fs1 ,v096
 .byte   N05 ,Dn3
 .byte   N11 ,Bn4 ,v024
 .byte   W06
 .byte   N05 ,Cn1 ,v068
 .byte   N05 ,Dn3 ,v096
 .byte   N05 ,En3
 .byte   W06
 .byte   N11 ,Dn1 ,v116
 .byte   N11 ,Fs1 ,v096
 .byte   N11 ,Bn4 ,v024
 .byte   W06
 .byte   N05 ,Ds3 ,v096
 .byte   W06
 .byte   Cn1 ,v068
 .byte   N05 ,Fs1 ,v096
 .byte   N11 ,Bn4 ,v024
 .byte   W06
 .byte   N05 ,Cn1 ,v068
 .byte   N05 ,Cn1 ,v096
 .byte   N05 ,Dn1 ,v048
 .byte   N05 ,En3 ,v096
 .byte   W06
 .byte   Fs1
 .byte   N11 ,Bn4 ,v024
 .byte   W06
 .byte   N05 ,Dn1 ,v048
 .byte   N05 ,Dn3 ,v096
 .byte   W06
 .byte   N11 ,Cn1 ,v068
 .byte   N11 ,Cn1 ,v096
 .byte   N11 ,Fs1
 .byte   N11 ,Dn3
 .byte   N11 ,En3
 .byte   N11 ,Bn4 ,v024
 .byte   W12
 .byte   N05 ,CnM2 ,v080
 .byte   N11 ,Dn1 ,v116
 .byte   N11 ,Fs1 ,v096
 .byte   N11 ,Dn3
 .byte   N11 ,Bn4 ,v024
 .byte   W06
 .byte   N05 ,CnM2 ,v080
 .byte   W06
 .byte   N05
 .byte   N11 ,Cn1 ,v068
 .byte   N05 ,Fs1 ,v096
 .byte   N11 ,Bn4 ,v024
 .byte   W06
 .byte   N05 ,CnM2 ,v080
 .byte   N05 ,Dn1 ,v048
 .byte   W06
 .byte   PEND 
@  #10 @011   ----------------------------------------
 .byte   PATT
  .word Label_0100630A
@  #10 @012   ----------------------------------------
 .byte   PATT
  .word Label_0100639F
@  #10 @013   ----------------------------------------
 .byte   PATT
  .word Label_0100630A
@  #10 @014   ----------------------------------------
 .byte   PATT
  .word Label_0100639F
@  #10 @015   ----------------------------------------
 .byte   PATT
  .word Label_0100630A
@  #10 @016   ----------------------------------------
 .byte   N11 ,Cn1 ,v068
 .byte   N11 ,Cn1 ,v080
 .byte   N11 ,Cs2
 .byte   N11 ,En3 ,v096
 .byte   N11 ,Bn4 ,v024
 .byte   W12
 .byte   Fs1 ,v080
 .byte   N05 ,Dn3 ,v096
 .byte   N11 ,Bn4 ,v024
 .byte   W06
 .byte   N05 ,Cn1 ,v068
 .byte   N05 ,Dn3 ,v096
 .byte   N05 ,En3
 .byte   W06
 .byte   N11 ,Dn1
 .byte   N11 ,Fs1 ,v080
 .byte   N11 ,Bn4 ,v024
 .byte   W06
 .byte   N05 ,Ds3 ,v096
 .byte   W06
 .byte   Cn1 ,v068
 .byte   N05 ,Fs1 ,v080
 .byte   N11 ,Bn4 ,v024
 .byte   W06
 .byte   N05 ,Cn1 ,v068
 .byte   N05 ,Cn1 ,v080
 .byte   N05 ,Dn1 ,v040
 .byte   N05 ,En3 ,v096
 .byte   W06
 .byte   Fs1 ,v080
 .byte   N11 ,Bn4 ,v024
 .byte   W06
 .byte   N05 ,Dn1 ,v040
 .byte   N05 ,Dn3 ,v096
 .byte   W06
 .byte   N11 ,Cn1 ,v068
 .byte   N11 ,Cn1 ,v080
 .byte   N11 ,Fs1
 .byte   N11 ,Dn3 ,v096
 .byte   N11 ,En3
 .byte   N11 ,Bn4 ,v024
 .byte   W12
 .byte   N05 ,CnM2 ,v080
 .byte   N11 ,Dn1 ,v096
 .byte   N11 ,Fs1 ,v080
 .byte   N11 ,Dn3 ,v096
 .byte   N11 ,Bn4 ,v024
 .byte   W06
 .byte   N05 ,CnM2 ,v080
 .byte   W06
 .byte   N05
 .byte   N11 ,Cn1 ,v068
 .byte   N05 ,Fs1 ,v080
 .byte   N11 ,Bn4 ,v024
 .byte   W06
 .byte   N05 ,CnM2 ,v080
 .byte   N05 ,Dn1 ,v040
 .byte   W06
@  #10 @017   ----------------------------------------
Label_010064C5:
 .byte   N11 ,Cn1 ,v068
 .byte   N11 ,Cn1 ,v080
 .byte   N11 ,Fs1
 .byte   N11 ,En3 ,v096
 .byte   N11 ,Bn4 ,v024
 .byte   W12
 .byte   Fs1 ,v080
 .byte   N05 ,Dn3 ,v096
 .byte   N11 ,Bn4 ,v024
 .byte   W06
 .byte   N05 ,Cn1 ,v068
 .byte   N05 ,Dn3 ,v096
 .byte   N05 ,En3
 .byte   W06
 .byte   N11 ,Dn1
 .byte   N11 ,Fs1 ,v080
 .byte   N11 ,Bn4 ,v024
 .byte   W06
 .byte   N05 ,Ds3 ,v096
 .byte   W06
 .byte   Cn1 ,v068
 .byte   N05 ,Fs1 ,v080
 .byte   N11 ,Bn4 ,v024
 .byte   W06
 .byte   N05 ,Cn1 ,v068
 .byte   N05 ,Cn1 ,v080
 .byte   N05 ,Dn1 ,v040
 .byte   N05 ,En3 ,v096
 .byte   W06
 .byte   Fs1 ,v080
 .byte   N11 ,Bn4 ,v024
 .byte   W06
 .byte   N17 ,CnM2 ,v080
 .byte   N05 ,Dn1 ,v040
 .byte   N05 ,Dn3 ,v096
 .byte   W06
 .byte   N11 ,Cn1 ,v068
 .byte   N11 ,Cn1 ,v080
 .byte   N11 ,Fs1
 .byte   N11 ,Dn3 ,v096
 .byte   N11 ,En3
 .byte   N11 ,Bn4 ,v024
 .byte   W12
 .byte   N05 ,CnM2 ,v080
 .byte   N11 ,Dn1 ,v096
 .byte   N11 ,Fs1 ,v080
 .byte   N05 ,Dn3 ,v096
 .byte   N11 ,Bn4 ,v024
 .byte   W06
 .byte   N05 ,CnM2 ,v080
 .byte   N05 ,Dn3 ,v096
 .byte   W06
 .byte   CnM2 ,v080
 .byte   N05 ,Cn1 ,v068
 .byte   N05 ,Fs1 ,v080
 .byte   N05 ,Dn3 ,v096
 .byte   N11 ,Bn4 ,v024
 .byte   W06
 .byte   N05 ,CnM2 ,v080
 .byte   N02 ,Dn1 ,v040
 .byte   N05 ,Dn3 ,v096
 .byte   W03
 .byte   N02 ,Dn1 ,v040
 .byte   W03
 .byte   PEND 
@  #10 @018   ----------------------------------------
Label_0100655F:
 .byte   N11 ,Cn1 ,v068
 .byte   N11 ,Cn1 ,v080
 .byte   N11 ,Fs1
 .byte   N11 ,En3 ,v096
 .byte   N11 ,Bn4 ,v024
 .byte   W12
 .byte   Fs1 ,v080
 .byte   N05 ,Dn3 ,v096
 .byte   N11 ,Bn4 ,v024
 .byte   W06
 .byte   N05 ,Cn1 ,v068
 .byte   N05 ,Dn3 ,v096
 .byte   N05 ,En3
 .byte   W06
 .byte   N11 ,Dn1
 .byte   N11 ,Fs1 ,v080
 .byte   N11 ,Bn4 ,v024
 .byte   W06
 .byte   N05 ,Ds3 ,v096
 .byte   W06
 .byte   Cn1 ,v068
 .byte   N05 ,Fs1 ,v080
 .byte   N11 ,Bn4 ,v024
 .byte   W06
 .byte   N05 ,Cn1 ,v068
 .byte   N05 ,Cn1 ,v080
 .byte   N05 ,Dn1 ,v040
 .byte   N05 ,En3 ,v096
 .byte   W06
 .byte   Fs1 ,v080
 .byte   N11 ,Bn4 ,v024
 .byte   W06
 .byte   N05 ,Dn1 ,v040
 .byte   N05 ,Dn3 ,v096
 .byte   W06
 .byte   N11 ,Cn1 ,v068
 .byte   N11 ,Cn1 ,v080
 .byte   N11 ,Fs1
 .byte   N11 ,Dn3 ,v096
 .byte   N11 ,En3
 .byte   N11 ,Bn4 ,v024
 .byte   W12
 .byte   N05 ,CnM2 ,v080
 .byte   N11 ,Dn1 ,v096
 .byte   N11 ,Fs1 ,v080
 .byte   N11 ,Dn3 ,v096
 .byte   N11 ,Bn4 ,v024
 .byte   W06
 .byte   N05 ,CnM2 ,v080
 .byte   W06
 .byte   N05
 .byte   N11 ,Cn1 ,v068
 .byte   N05 ,Fs1 ,v080
 .byte   N11 ,Bn4 ,v024
 .byte   W06
 .byte   N05 ,CnM2 ,v080
 .byte   N05 ,Dn1 ,v040
 .byte   W06
 .byte   PEND 
@  #10 @019   ----------------------------------------
 .byte   PATT
  .word Label_010064C5
@  #10 @020   ----------------------------------------
 .byte   PATT
  .word Label_0100655F
@  #10 @021   ----------------------------------------
 .byte   PATT
  .word Label_010064C5
@  #10 @022   ----------------------------------------
 .byte   PATT
  .word Label_0100655F
@  #10 @023   ----------------------------------------
 .byte   N11 ,Cn1 ,v068
 .byte   N11 ,Cn1 ,v080
 .byte   N11 ,Fs1
 .byte   N11 ,En3 ,v096
 .byte   N11 ,Bn4 ,v024
 .byte   W12
 .byte   Fs1 ,v080
 .byte   N05 ,Dn3 ,v096
 .byte   N11 ,Bn4 ,v024
 .byte   W06
 .byte   N05 ,Cn1 ,v068
 .byte   N05 ,Dn3 ,v096
 .byte   N05 ,En3
 .byte   W06
 .byte   N11 ,Dn1
 .byte   N11 ,Fs1 ,v080
 .byte   N11 ,Bn4 ,v024
 .byte   W06
 .byte   N05 ,Ds3 ,v096
 .byte   W06
 .byte   Cn1 ,v068
 .byte   N05 ,Fs1 ,v080
 .byte   N11 ,Bn4 ,v024
 .byte   W06
 .byte   N05 ,Cn1 ,v068
 .byte   N05 ,Cn1 ,v080
 .byte   N05 ,Dn1 ,v040
 .byte   N05 ,En3 ,v096
 .byte   W06
 .byte   Fs1 ,v080
 .byte   N11 ,Bn4 ,v024
 .byte   W06
 .byte   N17 ,CnM2 ,v080
 .byte   N05 ,Dn1 ,v040
 .byte   N05 ,Dn3 ,v096
 .byte   W06
 .byte   N11 ,Cn1 ,v068
 .byte   N11 ,Cn1 ,v080
 .byte   N11 ,Fs1
 .byte   N11 ,Dn3 ,v096
 .byte   N11 ,En3
 .byte   N11 ,Bn4 ,v024
 .byte   W12
 .byte   N05 ,CnM2 ,v080
 .byte   N11 ,Dn1 ,v096
 .byte   N11 ,Fs1 ,v080
 .byte   N05 ,Dn3 ,v096
 .byte   N11 ,Bn4 ,v024
 .byte   W06
 .byte   N05 ,CnM2 ,v080
 .byte   N05 ,Dn3 ,v096
 .byte   W06
 .byte   CnM2 ,v080
 .byte   N05 ,Cn1 ,v068
 .byte   N05 ,Fs1 ,v080
 .byte   N05 ,Dn3 ,v096
 .byte   N11 ,Bn4 ,v024
 .byte   W06
 .byte   N05 ,CnM2 ,v080
 .byte   N02 ,Dn1 ,v040
 .byte   N05 ,Dn3 ,v096
 .byte   W03
 .byte   N02 ,Dn1 ,v040
 .byte   W03
@  #10 @024   ----------------------------------------
 .byte   N11 ,Cn1 ,v068
 .byte   N11 ,Cn1 ,v080
 .byte   N11 ,Cs2
 .byte   N11 ,En3 ,v096
 .byte   N11 ,Bn4 ,v024
 .byte   W12
 .byte   Fs1 ,v080
 .byte   N05 ,Dn3 ,v096
 .byte   N11 ,Bn4 ,v024
 .byte   W06
 .byte   N05 ,Cn1 ,v068
 .byte   N05 ,Dn3 ,v096
 .byte   N05 ,En3
 .byte   W06
 .byte   N11 ,Dn1
 .byte   N11 ,Fs1 ,v080
 .byte   N11 ,Bn4 ,v024
 .byte   W06
 .byte   N05 ,Ds3 ,v096
 .byte   W06
 .byte   Cn1 ,v068
 .byte   N05 ,Fs1 ,v080
 .byte   N11 ,Bn4 ,v024
 .byte   W06
 .byte   N05 ,Cn1 ,v068
 .byte   N05 ,Cn1 ,v080
 .byte   N05 ,Dn1 ,v040
 .byte   N05 ,En3 ,v096
 .byte   W06
 .byte   Fs1 ,v080
 .byte   N11 ,Bn4 ,v024
 .byte   W06
 .byte   N05 ,Dn1 ,v040
 .byte   N05 ,Dn3 ,v096
 .byte   W06
 .byte   N11 ,Cn1 ,v068
 .byte   N11 ,Cn1 ,v080
 .byte   N11 ,Fs1
 .byte   N11 ,Dn3 ,v096
 .byte   N11 ,En3
 .byte   N11 ,Bn4 ,v024
 .byte   W12
 .byte   N05 ,CnM2 ,v080
 .byte   N11 ,Dn1 ,v096
 .byte   N11 ,Fs1 ,v080
 .byte   N11 ,Dn3 ,v096
 .byte   N11 ,Bn4 ,v024
 .byte   W06
 .byte   N05 ,CnM2 ,v080
 .byte   W06
 .byte   N05
 .byte   N11 ,Cn1 ,v068
 .byte   N05 ,Fs1 ,v080
 .byte   N11 ,Bn4 ,v024
 .byte   W06
 .byte   N05 ,CnM2 ,v080
 .byte   N05 ,Dn1 ,v040
 .byte   W06
@  #10 @025   ----------------------------------------
Label_0100671D:
 .byte   N11 ,Cn1 ,v068
 .byte   N11 ,Cn1 ,v080
 .byte   N11 ,Fs1
 .byte   N11 ,En3 ,v096
 .byte   N11 ,Bn4 ,v024
 .byte   W12
 .byte   Fs1 ,v080
 .byte   N05 ,Dn3 ,v096
 .byte   N11 ,Bn4 ,v024
 .byte   W06
 .byte   N05 ,Cn1 ,v068
 .byte   N05 ,Dn3 ,v096
 .byte   N05 ,En3
 .byte   W06
 .byte   N11 ,Dn1
 .byte   N11 ,Fs1 ,v080
 .byte   N11 ,Bn4 ,v024
 .byte   W06
 .byte   N05 ,Ds3 ,v096
 .byte   W06
 .byte   Cn1 ,v068
 .byte   N05 ,Fs1 ,v080
 .byte   N11 ,Bn4 ,v024
 .byte   W06
 .byte   N05 ,Cn1 ,v068
 .byte   N05 ,Cn1 ,v080
 .byte   N05 ,Dn1 ,v040
 .byte   N05 ,En3 ,v096
 .byte   W06
 .byte   Fs1 ,v080
 .byte   N11 ,Bn4 ,v024
 .byte   W06
 .byte   N17 ,CnM2 ,v080
 .byte   N05 ,Dn1 ,v040
 .byte   N05 ,Dn3 ,v096
 .byte   W06
 .byte   N11 ,Cn1 ,v068
 .byte   N11 ,Cn1 ,v080
 .byte   N11 ,Fs1
 .byte   N11 ,Dn3 ,v096
 .byte   N11 ,En3
 .byte   N11 ,Bn4 ,v024
 .byte   W12
 .byte   N05 ,CnM2 ,v080
 .byte   N11 ,Dn1 ,v096
 .byte   N11 ,Fs1 ,v080
 .byte   N05 ,Dn3 ,v096
 .byte   N11 ,Bn4 ,v024
 .byte   W06
 .byte   N05 ,CnM2 ,v080
 .byte   N05 ,Dn3 ,v096
 .byte   W06
 .byte   CnM2 ,v080
 .byte   N05 ,Cn1 ,v068
 .byte   N05 ,Fs1 ,v080
 .byte   N05 ,Dn3 ,v096
 .byte   N11 ,Bn4 ,v024
 .byte   W06
 .byte   N05 ,CnM2 ,v080
 .byte   N02 ,Dn1 ,v040
 .byte   N05 ,Dn3 ,v096
 .byte   W03
 .byte   N02 ,Dn1 ,v040
 .byte   W03
 .byte   PEND 
@  #10 @026   ----------------------------------------
 .byte   N11 ,Cn1 ,v068
 .byte   N11 ,Cn1 ,v080
 .byte   N11 ,Fs1
 .byte   N11 ,En3 ,v096
 .byte   N11 ,Bn4 ,v024
 .byte   W12
 .byte   Fs1 ,v080
 .byte   N05 ,Dn3 ,v096
 .byte   N11 ,Bn4 ,v024
 .byte   W06
 .byte   N05 ,Cn1 ,v068
 .byte   N05 ,Dn3 ,v096
 .byte   N05 ,En3
 .byte   W06
 .byte   N11 ,Dn1
 .byte   N11 ,Fs1 ,v080
 .byte   N11 ,Bn4 ,v024
 .byte   W06
 .byte   N05 ,Ds3 ,v096
 .byte   W06
 .byte   Cn1 ,v068
 .byte   N05 ,Fs1 ,v080
 .byte   N11 ,Bn4 ,v024
 .byte   W06
 .byte   N05 ,Cn1 ,v068
 .byte   N05 ,Cn1 ,v080
 .byte   N05 ,Dn1 ,v040
 .byte   N05 ,En3 ,v096
 .byte   W06
 .byte   Fs1 ,v080
 .byte   N11 ,Bn4 ,v024
 .byte   W06
 .byte   N05 ,Dn1 ,v040
 .byte   N05 ,Dn3 ,v096
 .byte   W06
 .byte   N11 ,Cn1 ,v068
 .byte   N11 ,Cn1 ,v080
 .byte   N11 ,Fs1
 .byte   N11 ,Dn3 ,v096
 .byte   N11 ,En3
 .byte   N11 ,Bn4 ,v024
 .byte   W12
 .byte   N05 ,CnM2 ,v080
 .byte   N11 ,Dn1 ,v096
 .byte   N11 ,Fs1 ,v080
 .byte   N11 ,Dn3 ,v096
 .byte   N11 ,Bn4 ,v024
 .byte   W06
 .byte   N05 ,CnM2 ,v080
 .byte   W06
 .byte   N05
 .byte   N11 ,Cn1 ,v068
 .byte   N05 ,Fs1 ,v080
 .byte   N11 ,Bn4 ,v024
 .byte   W06
 .byte   N05 ,CnM2 ,v080
 .byte   N05 ,Dn1 ,v040
 .byte   W06
@  #10 @027   ----------------------------------------
 .byte   PATT
  .word Label_0100671D
@  #10 @028   ----------------------------------------
 .byte   N11 ,Cn1 ,v068
 .byte   N11 ,Cn1 ,v080
 .byte   N11 ,Fs1
 .byte   N11 ,En3 ,v096
 .byte   N11 ,Bn4 ,v024
 .byte   W12
 .byte   Fs1 ,v080
 .byte   N05 ,Dn3 ,v096
 .byte   N11 ,Bn4 ,v024
 .byte   W06
 .byte   N05 ,Cn1 ,v068
 .byte   N05 ,Dn3 ,v096
 .byte   N05 ,En3
 .byte   W06
 .byte   N11 ,Dn1
 .byte   N11 ,Fs1 ,v080
 .byte   N11 ,Bn4 ,v024
 .byte   W06
 .byte   N05 ,Ds3 ,v096
 .byte   W06
 .byte   Cn1 ,v068
 .byte   N05 ,Fs1 ,v080
 .byte   N11 ,Bn4 ,v024
 .byte   W06
 .byte   N05 ,Cn1 ,v068
 .byte   N05 ,Cn1 ,v080
 .byte   N05 ,Dn1 ,v040
 .byte   N05 ,En3 ,v096
 .byte   W06
 .byte   Fs1 ,v080
 .byte   N11 ,Bn4 ,v024
 .byte   W06
 .byte   N05 ,Dn1 ,v040
 .byte   N05 ,Dn3 ,v096
 .byte   W06
 .byte   N11 ,Cn1 ,v068
 .byte   N11 ,Cn1 ,v080
 .byte   N11 ,Fs1
 .byte   N11 ,Dn3 ,v096
 .byte   N11 ,En3
 .byte   N11 ,Bn4 ,v024
 .byte   W12
 .byte   N05 ,CnM2 ,v080
 .byte   N11 ,Dn1 ,v096
 .byte   N11 ,Fs1 ,v080
 .byte   N11 ,Dn3 ,v096
 .byte   N11 ,Bn4 ,v024
 .byte   W06
 .byte   N05 ,CnM2 ,v080
 .byte   W06
 .byte   N05
 .byte   N11 ,Cn1 ,v068
 .byte   N05 ,Fs1 ,v080
 .byte   N11 ,Bn4 ,v024
 .byte   W06
 .byte   N05 ,CnM2 ,v080
 .byte   N05 ,Dn1 ,v040
 .byte   W06
@  #10 @029   ----------------------------------------
 .byte   N11 ,Cn1 ,v068
 .byte   N11 ,Cn1 ,v080
 .byte   N11 ,Fs1
 .byte   N11 ,En3 ,v096
 .byte   N11 ,Bn4 ,v024
 .byte   W12
 .byte   Fs1 ,v080
 .byte   N05 ,Dn3 ,v096
 .byte   N11 ,Bn4 ,v024
 .byte   W06
 .byte   N05 ,Cn1 ,v068
 .byte   N05 ,Dn3 ,v096
 .byte   N05 ,En3
 .byte   W06
 .byte   N11 ,Dn1
 .byte   N11 ,Fs1 ,v080
 .byte   N11 ,Bn4 ,v024
 .byte   W06
 .byte   N05 ,Ds3 ,v096
 .byte   W06
 .byte   Cn1 ,v068
 .byte   N05 ,Fs1 ,v080
 .byte   N11 ,Bn4 ,v024
 .byte   W06
 .byte   N05 ,Cn1 ,v068
 .byte   N05 ,Cn1 ,v080
 .byte   N05 ,Dn1 ,v040
 .byte   N05 ,En3 ,v096
 .byte   W06
 .byte   Fs1 ,v080
 .byte   N11 ,Bn4 ,v024
 .byte   W06
 .byte   N17 ,CnM2 ,v080
 .byte   N05 ,Dn1 ,v040
 .byte   N05 ,Dn3 ,v096
 .byte   W06
 .byte   N11 ,Cn1 ,v068
 .byte   N11 ,Cn1 ,v080
 .byte   N11 ,Fs1
 .byte   N11 ,Dn3 ,v096
 .byte   N11 ,En3
 .byte   N11 ,Bn4 ,v024
 .byte   W12
 .byte   N05 ,CnM2 ,v080
 .byte   N11 ,Dn1 ,v096
 .byte   N11 ,Fs1 ,v080
 .byte   N05 ,Dn3 ,v096
 .byte   N11 ,Bn4 ,v024
 .byte   W06
 .byte   N05 ,CnM2 ,v080
 .byte   N05 ,Dn3 ,v096
 .byte   W06
 .byte   CnM2 ,v080
 .byte   N05 ,Cn1 ,v068
 .byte   N05 ,Fs1 ,v080
 .byte   N05 ,Dn3 ,v096
 .byte   N11 ,Bn4 ,v024
 .byte   W06
 .byte   N05 ,CnM2 ,v080
 .byte   N02 ,Dn1 ,v040
 .byte   N05 ,Dn3 ,v096
 .byte   W03
 .byte   N02 ,Dn1 ,v040
 .byte   W03
@  #10 @030   ----------------------------------------
 .byte   N11 ,Cn1 ,v068
 .byte   N11 ,Cn1 ,v080
 .byte   N11 ,Fs1
 .byte   N11 ,En3 ,v096
 .byte   N11 ,Bn4 ,v024
 .byte   W12
 .byte   Fs1 ,v080
 .byte   N05 ,Dn3 ,v096
 .byte   N11 ,Bn4 ,v024
 .byte   W06
 .byte   N05 ,Cn1 ,v068
 .byte   N05 ,Dn3 ,v096
 .byte   N05 ,En3
 .byte   W06
 .byte   N11 ,Dn1
 .byte   N11 ,Fs1 ,v080
 .byte   N11 ,Bn4 ,v024
 .byte   W06
 .byte   N05 ,Ds3 ,v096
 .byte   W06
 .byte   Cn1 ,v068
 .byte   N05 ,Fs1 ,v080
 .byte   N11 ,Bn4 ,v024
 .byte   W06
 .byte   N05 ,Cn1 ,v068
 .byte   N05 ,Cn1 ,v080
 .byte   N05 ,Dn1 ,v040
 .byte   N05 ,En3 ,v096
 .byte   W06
 .byte   Fs1 ,v080
 .byte   N11 ,Bn4 ,v024
 .byte   W06
 .byte   N05 ,Dn1 ,v040
 .byte   N05 ,Dn3 ,v096
 .byte   W06
 .byte   N11 ,Cn1 ,v068
 .byte   N11 ,Cn1 ,v080
 .byte   N11 ,Fs1
 .byte   N11 ,Dn3 ,v096
 .byte   N11 ,En3
 .byte   N11 ,Bn4 ,v024
 .byte   W12
 .byte   N05 ,CnM2 ,v080
 .byte   N11 ,Dn1 ,v096
 .byte   N11 ,Fs1 ,v080
 .byte   N11 ,Dn3 ,v096
 .byte   N11 ,Bn4 ,v024
 .byte   W06
 .byte   N05 ,CnM2 ,v080
 .byte   W06
 .byte   N05
 .byte   N11 ,Cn1 ,v068
 .byte   N05 ,Fs1 ,v080
 .byte   N11 ,Bn4 ,v024
 .byte   W06
 .byte   N05 ,CnM2 ,v080
 .byte   N05 ,Dn1 ,v040
 .byte   W06
@  #10 @031   ----------------------------------------
 .byte   N11 ,Cn1 ,v068
 .byte   N11 ,Cn1 ,v080
 .byte   N11 ,Fs1
 .byte   N11 ,En3 ,v096
 .byte   N11 ,Bn4 ,v024
 .byte   W12
 .byte   Fs1 ,v080
 .byte   N05 ,Dn3 ,v096
 .byte   N11 ,Bn4 ,v024
 .byte   W06
 .byte   N05 ,Cn1 ,v068
 .byte   N05 ,Dn3 ,v096
 .byte   N05 ,En3
 .byte   W06
 .byte   Dn1 ,v127
 .byte   N05 ,Fs1 ,v120
 .byte   N11 ,Bn4 ,v024
 .byte   W06
 .byte   N05 ,Dn1 ,v120
 .byte   N05 ,Ds3 ,v096
 .byte   W06
 .byte   Cn1 ,v068
 .byte   N05 ,Fs1 ,v080
 .byte   N11 ,Bn4 ,v024
 .byte   W06
 .byte   N05 ,Cn1 ,v068
 .byte   N05 ,Cn1 ,v120
 .byte   N05 ,Dn1
 .byte   N05 ,En3 ,v096
 .byte   W06
 .byte   Fs1 ,v080
 .byte   N11 ,Bn4 ,v024
 .byte   W06
 .byte   N17 ,CnM2 ,v080
 .byte   N05 ,Dn1 ,v120
 .byte   N05 ,Dn3 ,v096
 .byte   W06
 .byte   N11 ,Cn1 ,v068
 .byte   N11 ,Cn1 ,v080
 .byte   N11 ,Fs1
 .byte   N11 ,Dn3 ,v096
 .byte   N11 ,En3
 .byte   N11 ,Bn4 ,v024
 .byte   W12
 .byte   N05 ,CnM2 ,v080
 .byte   N11 ,Dn1 ,v120
 .byte   N11 ,Fs1
 .byte   N05 ,Dn3 ,v096
 .byte   N11 ,Bn4 ,v024
 .byte   W06
 .byte   N05 ,CnM2 ,v080
 .byte   N05 ,Dn3 ,v096
 .byte   W06
 .byte   CnM2 ,v080
 .byte   N05 ,Cn1 ,v068
 .byte   N05 ,Dn1 ,v120
 .byte   N05 ,Fs1
 .byte   N05 ,Dn3 ,v096
 .byte   N11 ,Bn4 ,v024
 .byte   W06
 .byte   N05 ,CnM2 ,v080
 .byte   N05 ,Dn1 ,v120
 .byte   N05 ,Dn3 ,v096
 .byte   W06
@  #10 @032   ----------------------------------------
 .byte   PATT
  .word Label_01006285
@  #10 @033   ----------------------------------------
 .byte   PATT
  .word Label_0100630A
@  #10 @034   ----------------------------------------
 .byte   PATT
  .word Label_0100639F
@  #10 @035   ----------------------------------------
 .byte   PATT
  .word Label_0100630A
@  #10 @036   ----------------------------------------
 .byte   PATT
  .word Label_0100639F
@  #10 @037   ----------------------------------------
 .byte   PATT
  .word Label_0100630A
@  #10 @038   ----------------------------------------
 .byte   PATT
  .word Label_0100639F
@  #10 @039   ----------------------------------------
 .byte   PATT
  .word Label_0100630A
@  #10 @040   ----------------------------------------
 .byte   PATT
  .word Label_01006285
@  #10 @041   ----------------------------------------
 .byte   PATT
  .word Label_0100630A
@  #10 @042   ----------------------------------------
 .byte   PATT
  .word Label_0100639F
@  #10 @043   ----------------------------------------
 .byte   PATT
  .word Label_0100630A
@  #10 @044   ----------------------------------------
 .byte   PATT
  .word Label_0100639F
@  #10 @045   ----------------------------------------
 .byte   PATT
  .word Label_0100630A
@  #10 @046   ----------------------------------------
 .byte   PATT
  .word Label_0100639F
@  #10 @047   ----------------------------------------
 .byte   PATT
  .word Label_0100630A
@  #10 @048   ----------------------------------------
Label_01006AD5:
@  #10 @049   ----------------------------------------
 .byte   PATT
  .word Label_01006285
@  #10 @050   ----------------------------------------
 .byte   PATT
  .word Label_0100630A
@  #10 @051   ----------------------------------------
 .byte   PATT
  .word Label_0100639F
@  #10 @052   ----------------------------------------
 .byte   PATT
  .word Label_0100630A
@  #10 @053   ----------------------------------------
 .byte   PATT
  .word Label_0100639F
@  #10 @054   ----------------------------------------
 .byte   PATT
  .word Label_0100630A
@  #10 @055   ----------------------------------------
 .byte   PATT
  .word Label_0100639F
@  #10 @056   ----------------------------------------
 .byte   PATT
  .word Label_0100630A
@  #10 @057   ----------------------------------------
 .byte   PATT
  .word Label_01006285
@  #10 @058   ----------------------------------------
 .byte   PATT
  .word Label_0100630A
@  #10 @059   ----------------------------------------
 .byte   PATT
  .word Label_0100639F
@  #10 @060   ----------------------------------------
 .byte   PATT
  .word Label_0100630A
@  #10 @061   ----------------------------------------
 .byte   PATT
  .word Label_0100639F
@  #10 @062   ----------------------------------------
 .byte   PATT
  .word Label_0100630A
@  #10 @063   ----------------------------------------
 .byte   PATT
  .word Label_0100639F
@  #10 @064   ----------------------------------------
 .byte   PATT
  .word Label_0100630A
@  #10 @065   ----------------------------------------
 .byte   N11 ,Cn1 ,v112
 .byte   N11 ,En3
 .byte   N11 ,Bn4 ,v032
 .byte   W12
 .byte   N05 ,Dn3 ,v112
 .byte   N11 ,Bn4 ,v032
 .byte   W06
 .byte   N05 ,Cn1 ,v112
 .byte   N05 ,Dn3
 .byte   N05 ,En3
 .byte   W06
 .byte   N11 ,Bn4 ,v032
 .byte   W06
 .byte   N05 ,Ds3 ,v112
 .byte   W06
 .byte   Cn1
 .byte   N11 ,Bn4 ,v032
 .byte   W06
 .byte   N05 ,Cn1 ,v112
 .byte   N05 ,En3
 .byte   W06
 .byte   N11 ,Bn4 ,v032
 .byte   W06
 .byte   N05 ,Dn3 ,v112
 .byte   W06
 .byte   N11 ,Cn1
 .byte   N11 ,Dn3
 .byte   N11 ,En3
 .byte   N11 ,Bn4 ,v032
 .byte   W12
 .byte   N05 ,CnM2 ,v096
 .byte   N11 ,Dn3 ,v112
 .byte   N11 ,Bn4 ,v032
 .byte   W06
 .byte   N05 ,CnM2 ,v096
 .byte   W06
 .byte   N05
 .byte   N11 ,Cn1 ,v112
 .byte   N11 ,Bn4 ,v032
 .byte   W06
 .byte   N05 ,CnM2 ,v096
 .byte   W06
@  #10 @066   ----------------------------------------
Label_01006B7C:
 .byte   N11 ,Cn1 ,v112
 .byte   N11 ,En3
 .byte   N11 ,Bn4 ,v032
 .byte   W12
 .byte   N05 ,Dn3 ,v112
 .byte   N11 ,Bn4 ,v032
 .byte   W06
 .byte   N05 ,Cn1 ,v112
 .byte   N05 ,Dn3
 .byte   N05 ,En3
 .byte   W06
 .byte   N11 ,Bn4 ,v032
 .byte   W06
 .byte   N05 ,Ds3 ,v112
 .byte   W06
 .byte   Cn1
 .byte   N11 ,Bn4 ,v032
 .byte   W06
 .byte   N05 ,Cn1 ,v112
 .byte   N05 ,En3
 .byte   W06
 .byte   N11 ,Bn4 ,v032
 .byte   W06
 .byte   N17 ,CnM2 ,v096
 .byte   N05 ,Dn3 ,v112
 .byte   W06
 .byte   N11 ,Cn1
 .byte   N11 ,Dn3
 .byte   N11 ,En3
 .byte   N11 ,Bn4 ,v032
 .byte   W12
 .byte   N05 ,CnM2 ,v096
 .byte   N05 ,Dn3 ,v112
 .byte   N11 ,Bn4 ,v032
 .byte   W06
 .byte   N05 ,CnM2 ,v096
 .byte   N05 ,Dn3 ,v112
 .byte   W06
 .byte   CnM2 ,v096
 .byte   N05 ,Cn1 ,v112
 .byte   N05 ,Dn3
 .byte   N11 ,Bn4 ,v032
 .byte   W06
 .byte   N05 ,CnM2 ,v096
 .byte   N05 ,Dn3 ,v112
 .byte   W06
 .byte   PEND 
@  #10 @067   ----------------------------------------
Label_01006BE0:
 .byte   N11 ,Cn1 ,v112
 .byte   N11 ,En3
 .byte   N11 ,Bn4 ,v032
 .byte   W12
 .byte   N05 ,Dn3 ,v112
 .byte   N11 ,Bn4 ,v032
 .byte   W06
 .byte   N05 ,Cn1 ,v112
 .byte   N05 ,Dn3
 .byte   N05 ,En3
 .byte   W06
 .byte   N11 ,Bn4 ,v032
 .byte   W06
 .byte   N05 ,Ds3 ,v112
 .byte   W06
 .byte   Cn1
 .byte   N11 ,Bn4 ,v032
 .byte   W06
 .byte   N05 ,Cn1 ,v112
 .byte   N05 ,En3
 .byte   W06
 .byte   N11 ,Bn4 ,v032
 .byte   W06
 .byte   N05 ,Dn3 ,v112
 .byte   W06
 .byte   N11 ,Cn1
 .byte   N11 ,Dn3
 .byte   N11 ,En3
 .byte   N11 ,Bn4 ,v032
 .byte   W12
 .byte   N05 ,CnM2 ,v096
 .byte   N11 ,Dn3 ,v112
 .byte   N11 ,Bn4 ,v032
 .byte   W06
 .byte   N05 ,CnM2 ,v096
 .byte   W06
 .byte   N05
 .byte   N11 ,Cn1 ,v112
 .byte   N11 ,Bn4 ,v032
 .byte   W06
 .byte   N05 ,CnM2 ,v096
 .byte   W06
 .byte   PEND 
@  #10 @068   ----------------------------------------
 .byte   PATT
  .word Label_01006B7C
@  #10 @069   ----------------------------------------
 .byte   PATT
  .word Label_01006BE0
@  #10 @070   ----------------------------------------
 .byte   PATT
  .word Label_01006B7C
@  #10 @071   ----------------------------------------
 .byte   PATT
  .word Label_01006BE0
@  #10 @072   ----------------------------------------
 .byte   PATT
  .word Label_01006B7C
@  #10 @073   ----------------------------------------
 .byte   N11 ,Cn1 ,v056
 .byte   N11 ,En3 ,v080
 .byte   N11 ,Bn4 ,v020
 .byte   W12
 .byte   Cn1 ,v096
 .byte   N11 ,Fs1
 .byte   N05 ,Dn3 ,v080
 .byte   N11 ,Bn4 ,v020
 .byte   W06
 .byte   N05 ,Cn1 ,v056
 .byte   N05 ,Dn3 ,v080
 .byte   N05 ,En3
 .byte   W06
 .byte   N11 ,Fs1 ,v096
 .byte   N11 ,Bn4 ,v020
 .byte   W06
 .byte   N05 ,Ds3 ,v080
 .byte   W06
 .byte   Cn1 ,v056
 .byte   N11 ,Dn1 ,v116
 .byte   N11 ,Fs1 ,v096
 .byte   N11 ,Bn4 ,v020
 .byte   W06
 .byte   N05 ,Cn1 ,v056
 .byte   N05 ,En3 ,v080
 .byte   W06
 .byte   Fs1 ,v096
 .byte   N11 ,Bn4 ,v020
 .byte   W06
 .byte   N05 ,Cn1 ,v096
 .byte   N05 ,Dn1 ,v048
 .byte   N05 ,Dn3 ,v080
 .byte   W06
 .byte   N11 ,Cn1 ,v056
 .byte   N05 ,Fs1 ,v096
 .byte   N11 ,Dn3 ,v080
 .byte   N11 ,En3
 .byte   N11 ,Bn4 ,v020
 .byte   W06
 .byte   N05 ,Dn1 ,v048
 .byte   W06
 .byte   CnM2 ,v064
 .byte   N11 ,Cn1 ,v096
 .byte   N11 ,Fs1
 .byte   N11 ,Dn3 ,v080
 .byte   N11 ,Bn4 ,v020
 .byte   W06
 .byte   N05 ,CnM2 ,v064
 .byte   W06
 .byte   N05
 .byte   N11 ,Cn1 ,v056
 .byte   N11 ,Dn1 ,v116
 .byte   N11 ,Fs1 ,v096
 .byte   N11 ,Bn4 ,v020
 .byte   W06
 .byte   N05 ,CnM2 ,v064
 .byte   W06
@  #10 @074   ----------------------------------------
Label_01006CD4:
 .byte   N11 ,Cn1 ,v056
 .byte   N05 ,Fs1 ,v096
 .byte   N11 ,En3 ,v080
 .byte   N11 ,Bn4 ,v020
 .byte   W06
 .byte   N02 ,Dn1 ,v048
 .byte   W03
 .byte   N02
 .byte   W03
 .byte   N11 ,Cn1 ,v096
 .byte   N11 ,Fs1
 .byte   N05 ,Dn3 ,v080
 .byte   N11 ,Bn4 ,v020
 .byte   W06
 .byte   N05 ,Cn1 ,v056
 .byte   N05 ,Dn3 ,v080
 .byte   N05 ,En3
 .byte   W06
 .byte   N11 ,Fs1 ,v096
 .byte   N11 ,Bn4 ,v020
 .byte   W06
 .byte   N05 ,Ds3 ,v080
 .byte   W06
 .byte   Cn1 ,v056
 .byte   N11 ,Dn1 ,v116
 .byte   N11 ,Fs1 ,v096
 .byte   N11 ,Bn4 ,v020
 .byte   W06
 .byte   N05 ,Cn1 ,v056
 .byte   N05 ,En3 ,v080
 .byte   W06
 .byte   Fs1 ,v096
 .byte   N11 ,Bn4 ,v020
 .byte   W06
 .byte   N17 ,CnM2 ,v064
 .byte   N05 ,Cn1 ,v096
 .byte   N05 ,Dn1 ,v048
 .byte   N05 ,Dn3 ,v080
 .byte   W06
 .byte   N11 ,Cn1 ,v056
 .byte   N05 ,Fs1 ,v096
 .byte   N11 ,Dn3 ,v080
 .byte   N11 ,En3
 .byte   N11 ,Bn4 ,v020
 .byte   W06
 .byte   N05 ,Dn1 ,v048
 .byte   W06
 .byte   CnM2 ,v064
 .byte   N11 ,Cn1 ,v096
 .byte   N11 ,Fs1
 .byte   N05 ,Dn3 ,v080
 .byte   N11 ,Bn4 ,v020
 .byte   W06
 .byte   N05 ,CnM2 ,v064
 .byte   N05 ,Dn3 ,v080
 .byte   W06
 .byte   CnM2 ,v064
 .byte   N05 ,Cn1 ,v056
 .byte   N11 ,Dn1 ,v116
 .byte   N11 ,Fs1 ,v096
 .byte   N05 ,Dn3 ,v080
 .byte   N11 ,Bn4 ,v020
 .byte   W06
 .byte   N05 ,CnM2 ,v064
 .byte   N05 ,Dn3 ,v080
 .byte   W06
 .byte   PEND 
@  #10 @075   ----------------------------------------
Label_01006D6F:
 .byte   N11 ,Cn1 ,v056
 .byte   N05 ,Fs1 ,v096
 .byte   N11 ,En3 ,v080
 .byte   N11 ,Bn4 ,v020
 .byte   W06
 .byte   N05 ,Dn1 ,v048
 .byte   W06
 .byte   N11 ,Cn1 ,v096
 .byte   N11 ,Fs1
 .byte   N05 ,Dn3 ,v080
 .byte   N11 ,Bn4 ,v020
 .byte   W06
 .byte   N05 ,Cn1 ,v056
 .byte   N05 ,Dn3 ,v080
 .byte   N05 ,En3
 .byte   W06
 .byte   N11 ,Fs1 ,v096
 .byte   N11 ,Bn4 ,v020
 .byte   W06
 .byte   N05 ,Ds3 ,v080
 .byte   W06
 .byte   Cn1 ,v056
 .byte   N11 ,Dn1 ,v116
 .byte   N11 ,Fs1 ,v096
 .byte   N11 ,Bn4 ,v020
 .byte   W06
 .byte   N05 ,Cn1 ,v056
 .byte   N05 ,En3 ,v080
 .byte   W06
 .byte   Fs1 ,v096
 .byte   N11 ,Bn4 ,v020
 .byte   W06
 .byte   N05 ,Cn1 ,v096
 .byte   N05 ,Dn1 ,v048
 .byte   N05 ,Dn3 ,v080
 .byte   W06
 .byte   N11 ,Cn1 ,v056
 .byte   N05 ,Fs1 ,v096
 .byte   N11 ,Dn3 ,v080
 .byte   N11 ,En3
 .byte   N11 ,Bn4 ,v020
 .byte   W06
 .byte   N05 ,Dn1 ,v048
 .byte   W06
 .byte   CnM2 ,v064
 .byte   N11 ,Cn1 ,v096
 .byte   N11 ,Fs1
 .byte   N11 ,Dn3 ,v080
 .byte   N11 ,Bn4 ,v020
 .byte   W06
 .byte   N05 ,CnM2 ,v064
 .byte   W06
 .byte   N05
 .byte   N11 ,Cn1 ,v056
 .byte   N11 ,Dn1 ,v116
 .byte   N11 ,Fs1 ,v096
 .byte   N11 ,Bn4 ,v020
 .byte   W06
 .byte   N05 ,CnM2 ,v064
 .byte   W06
 .byte   PEND 
@  #10 @076   ----------------------------------------
 .byte   PATT
  .word Label_01006CD4
@  #10 @077   ----------------------------------------
 .byte   PATT
  .word Label_01006D6F
@  #10 @078   ----------------------------------------
 .byte   N11 ,Cn1 ,v056
 .byte   N05 ,Fs1 ,v096
 .byte   N11 ,En3 ,v080
 .byte   N11 ,Bn4 ,v020
 .byte   W06
 .byte   N02 ,Dn1 ,v048
 .byte   W03
 .byte   N02
 .byte   W03
 .byte   N11 ,Cn1 ,v096
 .byte   N11 ,Fs1
 .byte   N05 ,Dn3 ,v080
 .byte   N11 ,Bn4 ,v020
 .byte   W06
 .byte   N05 ,Cn1 ,v056
 .byte   N05 ,Dn3 ,v080
 .byte   N05 ,En3
 .byte   W06
 .byte   N11 ,Fs1 ,v096
 .byte   N11 ,Bn4 ,v020
 .byte   W06
 .byte   N05 ,Ds3 ,v080
 .byte   W06
 .byte   Cn1 ,v056
 .byte   N11 ,Dn1 ,v116
 .byte   N11 ,Fs1 ,v096
 .byte   N11 ,Bn4 ,v020
 .byte   W06
 .byte   N05 ,Cn1 ,v056
 .byte   N05 ,En3 ,v080
 .byte   W06
 .byte   Fs1 ,v096
 .byte   N11 ,Bn4 ,v020
 .byte   W06
 .byte   N17 ,CnM2 ,v064
 .byte   N05 ,Cn1 ,v096
 .byte   N05 ,Dn1 ,v048
 .byte   N05 ,Dn3 ,v080
 .byte   W06
 .byte   N11 ,Cn1 ,v056
 .byte   N05 ,Fs1 ,v096
 .byte   N11 ,Dn3 ,v080
 .byte   N11 ,En3
 .byte   N11 ,Bn4 ,v020
 .byte   W06
 .byte   N05 ,Dn1 ,v048
 .byte   W06
 .byte   CnM2 ,v064
 .byte   N11 ,Cn1 ,v096
 .byte   N11 ,Fs1
 .byte   N05 ,Dn3 ,v080
 .byte   N11 ,Bn4 ,v020
 .byte   W06
 .byte   N05 ,CnM2 ,v064
 .byte   N05 ,Dn3 ,v080
 .byte   W06
 .byte   CnM2 ,v064
 .byte   N05 ,Cn1 ,v056
 .byte   N11 ,Dn1 ,v116
 .byte   N11 ,Fs1 ,v096
 .byte   N05 ,Dn3 ,v080
 .byte   N11 ,Bn4 ,v020
 .byte   W06
 .byte   N05 ,CnM2 ,v064
 .byte   N05 ,Dn3 ,v080
 .byte   W06
@  #10 @079   ----------------------------------------
 .byte   N11 ,Cn1 ,v056
 .byte   N05 ,Fs1 ,v096
 .byte   N11 ,En3 ,v080
 .byte   N11 ,Bn4 ,v020
 .byte   W06
 .byte   N02 ,Dn1 ,v048
 .byte   W03
 .byte   N02
 .byte   W03
 .byte   N11 ,Cn1 ,v096
 .byte   N11 ,Fs1
 .byte   N05 ,Dn3 ,v080
 .byte   N11 ,Bn4 ,v020
 .byte   W06
 .byte   N05 ,Cn1 ,v056
 .byte   N05 ,Dn3 ,v080
 .byte   N05 ,En3
 .byte   W06
 .byte   N11 ,Fs1 ,v096
 .byte   N11 ,Bn4 ,v020
 .byte   W06
 .byte   N05 ,Ds3 ,v080
 .byte   W06
 .byte   Cn1 ,v056
 .byte   N11 ,Dn1 ,v116
 .byte   N11 ,Fs1 ,v096
 .byte   N11 ,Bn4 ,v020
 .byte   W06
 .byte   N05 ,Cn1 ,v056
 .byte   N05 ,En3 ,v080
 .byte   W06
 .byte   Fs1 ,v096
 .byte   N11 ,Bn4 ,v020
 .byte   W06
 .byte   N05 ,Cn1 ,v096
 .byte   N05 ,Dn1 ,v048
 .byte   N05 ,Dn3 ,v080
 .byte   W06
 .byte   N11 ,Cn1 ,v056
 .byte   N05 ,Fs1 ,v096
 .byte   N11 ,Dn3 ,v080
 .byte   N11 ,En3
 .byte   N11 ,Bn4 ,v020
 .byte   W06
 .byte   N05 ,Dn1 ,v048
 .byte   W06
 .byte   CnM2 ,v064
 .byte   N11 ,Cn1 ,v096
 .byte   N11 ,Fs1
 .byte   N11 ,Dn3 ,v080
 .byte   N11 ,Bn4 ,v020
 .byte   W06
 .byte   N05 ,CnM2 ,v064
 .byte   W06
 .byte   N05
 .byte   N11 ,Cn1 ,v056
 .byte   N11 ,Dn1 ,v116
 .byte   N11 ,Fs1 ,v096
 .byte   N11 ,Bn4 ,v020
 .byte   W06
 .byte   N05 ,CnM2 ,v064
 .byte   W06
@  #10 @080   ----------------------------------------
 .byte   N11 ,Cn1 ,v056
 .byte   N11 ,Fs1 ,v096
 .byte   N11 ,En3 ,v080
 .byte   N11 ,Bn4 ,v020
 .byte   W12
 .byte   N05 ,Fs1 ,v096
 .byte   N05 ,Dn3 ,v080
 .byte   N11 ,Bn4 ,v020
 .byte   W06
 .byte   N05 ,Cn1 ,v056
 .byte   N05 ,Dn1 ,v096
 .byte   N05 ,Dn3 ,v080
 .byte   N05 ,En3
 .byte   W06
 .byte   Dn1 ,v096
 .byte   N05 ,Fs1
 .byte   N11 ,Bn4 ,v020
 .byte   W06
 .byte   N05 ,Dn1 ,v096
 .byte   N05 ,Ds3 ,v080
 .byte   W06
 .byte   Cn1 ,v056
 .byte   N05 ,En1 ,v127
 .byte   N05 ,Fs1
 .byte   N11 ,Bn4 ,v020
 .byte   W06
 .byte   N05 ,Cn1 ,v056
 .byte   N05 ,Dn1 ,v127
 .byte   N05 ,En3 ,v080
 .byte   W06
 .byte   Fs1 ,v096
 .byte   N11 ,Bn4 ,v020
 .byte   W06
 .byte   N17 ,CnM2 ,v064
 .byte   N05 ,Dn1 ,v096
 .byte   N05 ,Dn3 ,v080
 .byte   W06
 .byte   N11 ,Cn1 ,v056
 .byte   N05 ,Dn1 ,v096
 .byte   N05 ,Fs1
 .byte   N11 ,Dn3 ,v080
 .byte   N11 ,En3
 .byte   N11 ,Bn4 ,v020
 .byte   W06
 .byte   N05 ,Dn1 ,v096
 .byte   W06
 .byte   CnM2 ,v064
 .byte   N05 ,Dn1 ,v127
 .byte   N05 ,Fs1
 .byte   N05 ,Dn3 ,v080
 .byte   N11 ,Bn4 ,v020
 .byte   W06
 .byte   N05 ,CnM2 ,v064
 .byte   N05 ,Dn1 ,v096
 .byte   N05 ,Dn3 ,v080
 .byte   W06
 .byte   CnM2 ,v064
 .byte   N05 ,Cn1 ,v056
 .byte   N05 ,Dn1 ,v127
 .byte   N05 ,Fs1
 .byte   N05 ,Dn3 ,v080
 .byte   N11 ,Bn4 ,v020
 .byte   W06
 .byte   N05 ,CnM2 ,v064
 .byte   N05 ,Dn1 ,v127
 .byte   N05 ,Dn3 ,v080
 .byte   W06
@  #10 @081   ----------------------------------------
Label_01006FCB:
 .byte   N11 ,Cn1 ,v056
 .byte   N11 ,Cn1 ,v096
 .byte   N11 ,Cs2
 .byte   N11 ,En3 ,v080
 .byte   N11 ,Bn4 ,v020
 .byte   W12
 .byte   Fs1 ,v096
 .byte   N05 ,Dn3 ,v080
 .byte   N11 ,Bn4 ,v020
 .byte   W06
 .byte   N05 ,Cn1 ,v056
 .byte   N05 ,Dn3 ,v080
 .byte   N05 ,En3
 .byte   W06
 .byte   N11 ,Dn1 ,v116
 .byte   N11 ,Fs1 ,v096
 .byte   N11 ,Bn4 ,v020
 .byte   W06
 .byte   N05 ,Ds3 ,v080
 .byte   W06
 .byte   Cn1 ,v056
 .byte   N05 ,Fs1 ,v096
 .byte   N11 ,Bn4 ,v020
 .byte   W06
 .byte   N05 ,Cn1 ,v056
 .byte   N05 ,Cn1 ,v096
 .byte   N05 ,Dn1 ,v048
 .byte   N05 ,En3 ,v080
 .byte   W06
 .byte   Fs1 ,v096
 .byte   N11 ,Bn4 ,v020
 .byte   W06
 .byte   N05 ,Dn1 ,v048
 .byte   N05 ,Dn3 ,v080
 .byte   W06
 .byte   N11 ,Cn1 ,v056
 .byte   N11 ,Cn1 ,v096
 .byte   N11 ,Fs1
 .byte   N11 ,Dn3 ,v080
 .byte   N11 ,En3
 .byte   N11 ,Bn4 ,v020
 .byte   W12
 .byte   N05 ,CnM2 ,v064
 .byte   N11 ,Dn1 ,v116
 .byte   N11 ,Fs1 ,v096
 .byte   N11 ,Dn3 ,v080
 .byte   N11 ,Bn4 ,v020
 .byte   W06
 .byte   N05 ,CnM2 ,v064
 .byte   W06
 .byte   N05
 .byte   N11 ,Cn1 ,v056
 .byte   N05 ,Fs1 ,v096
 .byte   N11 ,Bn4 ,v020
 .byte   W06
 .byte   N05 ,CnM2 ,v064
 .byte   N05 ,Dn1 ,v048
 .byte   W06
 .byte   PEND 
@  #10 @082   ----------------------------------------
Label_01007055:
 .byte   N11 ,Cn1 ,v056
 .byte   N11 ,Cn1 ,v096
 .byte   N11 ,Fs1
 .byte   N11 ,En3 ,v080
 .byte   N11 ,Bn4 ,v020
 .byte   W12
 .byte   Fs1 ,v096
 .byte   N05 ,Dn3 ,v080
 .byte   N11 ,Bn4 ,v020
 .byte   W06
 .byte   N05 ,Cn1 ,v056
 .byte   N05 ,Dn3 ,v080
 .byte   N05 ,En3
 .byte   W06
 .byte   N11 ,Dn1 ,v116
 .byte   N11 ,Fs1 ,v096
 .byte   N11 ,Bn4 ,v020
 .byte   W06
 .byte   N05 ,Ds3 ,v080
 .byte   W06
 .byte   Cn1 ,v056
 .byte   N05 ,Fs1 ,v096
 .byte   N11 ,Bn4 ,v020
 .byte   W06
 .byte   N05 ,Cn1 ,v056
 .byte   N05 ,Cn1 ,v096
 .byte   N05 ,Dn1 ,v048
 .byte   N05 ,En3 ,v080
 .byte   W06
 .byte   Fs1 ,v096
 .byte   N11 ,Bn4 ,v020
 .byte   W06
 .byte   N17 ,CnM2 ,v064
 .byte   N05 ,Dn1 ,v048
 .byte   N05 ,Dn3 ,v080
 .byte   W06
 .byte   N11 ,Cn1 ,v056
 .byte   N11 ,Cn1 ,v096
 .byte   N11 ,Fs1
 .byte   N11 ,Dn3 ,v080
 .byte   N11 ,En3
 .byte   N11 ,Bn4 ,v020
 .byte   W12
 .byte   N05 ,CnM2 ,v064
 .byte   N11 ,Dn1 ,v116
 .byte   N11 ,Fs1 ,v096
 .byte   N05 ,Dn3 ,v080
 .byte   N11 ,Bn4 ,v020
 .byte   W06
 .byte   N05 ,CnM2 ,v064
 .byte   N05 ,Dn3 ,v080
 .byte   W06
 .byte   CnM2 ,v064
 .byte   N05 ,Cn1 ,v056
 .byte   N05 ,Fs1 ,v096
 .byte   N05 ,Dn3 ,v080
 .byte   N11 ,Bn4 ,v020
 .byte   W06
 .byte   N05 ,CnM2 ,v064
 .byte   N02 ,Dn1 ,v048
 .byte   N05 ,Dn3 ,v080
 .byte   W03
 .byte   N02 ,Dn1 ,v048
 .byte   W03
 .byte   PEND 
@  #10 @083   ----------------------------------------
Label_010070F0:
 .byte   N11 ,Cn1 ,v056
 .byte   N11 ,Cn1 ,v096
 .byte   N11 ,Fs1
 .byte   N11 ,En3 ,v080
 .byte   N11 ,Bn4 ,v020
 .byte   W12
 .byte   Fs1 ,v096
 .byte   N05 ,Dn3 ,v080
 .byte   N11 ,Bn4 ,v020
 .byte   W06
 .byte   N05 ,Cn1 ,v056
 .byte   N05 ,Dn3 ,v080
 .byte   N05 ,En3
 .byte   W06
 .byte   N11 ,Dn1 ,v116
 .byte   N11 ,Fs1 ,v096
 .byte   N11 ,Bn4 ,v020
 .byte   W06
 .byte   N05 ,Ds3 ,v080
 .byte   W06
 .byte   Cn1 ,v056
 .byte   N05 ,Fs1 ,v096
 .byte   N11 ,Bn4 ,v020
 .byte   W06
 .byte   N05 ,Cn1 ,v056
 .byte   N05 ,Cn1 ,v096
 .byte   N05 ,Dn1 ,v048
 .byte   N05 ,En3 ,v080
 .byte   W06
 .byte   Fs1 ,v096
 .byte   N11 ,Bn4 ,v020
 .byte   W06
 .byte   N05 ,Dn1 ,v048
 .byte   N05 ,Dn3 ,v080
 .byte   W06
 .byte   N11 ,Cn1 ,v056
 .byte   N11 ,Cn1 ,v096
 .byte   N11 ,Fs1
 .byte   N11 ,Dn3 ,v080
 .byte   N11 ,En3
 .byte   N11 ,Bn4 ,v020
 .byte   W12
 .byte   N05 ,CnM2 ,v064
 .byte   N11 ,Dn1 ,v116
 .byte   N11 ,Fs1 ,v096
 .byte   N11 ,Dn3 ,v080
 .byte   N11 ,Bn4 ,v020
 .byte   W06
 .byte   N05 ,CnM2 ,v064
 .byte   W06
 .byte   N05
 .byte   N11 ,Cn1 ,v056
 .byte   N05 ,Fs1 ,v096
 .byte   N11 ,Bn4 ,v020
 .byte   W06
 .byte   N05 ,CnM2 ,v064
 .byte   N05 ,Dn1 ,v048
 .byte   W06
 .byte   PEND 
@  #10 @084   ----------------------------------------
 .byte   PATT
  .word Label_01007055
@  #10 @085   ----------------------------------------
 .byte   PATT
  .word Label_010070F0
@  #10 @086   ----------------------------------------
 .byte   PATT
  .word Label_01007055
@  #10 @087   ----------------------------------------
 .byte   PATT
  .word Label_010070F0
@  #10 @088   ----------------------------------------
 .byte   PATT
  .word Label_01007055
@  #10 @089   ----------------------------------------
 .byte   PATT
  .word Label_01006FCB
@  #10 @090   ----------------------------------------
 .byte   PATT
  .word Label_01007055
@  #10 @091   ----------------------------------------
 .byte   PATT
  .word Label_010070F0
@  #10 @092   ----------------------------------------
 .byte   PATT
  .word Label_01007055
@  #10 @093   ----------------------------------------
 .byte   PATT
  .word Label_010070F0
@  #10 @094   ----------------------------------------
 .byte   PATT
  .word Label_01007055
@  #10 @095   ----------------------------------------
 .byte   PATT
  .word Label_010070F0
@  #10 @096   ----------------------------------------
 .byte   PATT
  .word Label_01007055
@  #10 @097   ----------------------------------------
 .byte   GOTO
  .word Label_01006AD5
@  #10 @098   ----------------------------------------
 .byte   N11 ,Cn1 ,v056
 .byte   N11 ,Cn1 ,v096
 .byte   N11 ,Cs2
 .byte   N11 ,En3 ,v080
 .byte   N11 ,Bn4 ,v020
 .byte   W12
 .byte   Fs1 ,v096
 .byte   N05 ,Dn3 ,v080
 .byte   N11 ,Bn4 ,v020
 .byte   W06
 .byte   N05 ,Cn1 ,v056
 .byte   N05 ,Dn3 ,v080
 .byte   N05 ,En3
 .byte   W06
 .byte   N11 ,Dn1 ,v112
 .byte   N11 ,Fs1 ,v096
 .byte   N11 ,Bn4 ,v020
 .byte   W06
 .byte   N05 ,Ds3 ,v080
 .byte   W06
 .byte   Cn1 ,v056
 .byte   N05 ,Fs1 ,v092
 .byte   N11 ,Bn4 ,v020
 .byte   W06
 .byte   N05 ,Cn1 ,v056
 .byte   N05 ,Cn1 ,v092
 .byte   N05 ,Dn1 ,v048
 .byte   N05 ,En3 ,v076
 .byte   W06
 .byte   Fs1 ,v092
 .byte   N11 ,Bn4 ,v020
 .byte   W06
 .byte   N05 ,Dn1 ,v048
 .byte   N05 ,Dn3 ,v076
 .byte   W06
 .byte   N11 ,Cn1 ,v052
 .byte   N11 ,Cn1 ,v088
 .byte   N11 ,Fs1
 .byte   N11 ,Dn3 ,v076
 .byte   N11 ,En3
 .byte   N11 ,Bn4 ,v020
 .byte   W12
 .byte   N05 ,CnM2 ,v060
 .byte   N11 ,Dn1 ,v104
 .byte   N11 ,Fs1 ,v088
 .byte   N11 ,Dn3 ,v072
 .byte   N11 ,Bn4 ,v020
 .byte   W06
 .byte   N05 ,CnM2 ,v060
 .byte   W06
 .byte   N05
 .byte   N11 ,Cn1 ,v052
 .byte   N05 ,Fs1 ,v088
 .byte   N11 ,Bn4 ,v020
 .byte   W06
 .byte   N05 ,CnM2 ,v060
 .byte   N05 ,Dn1 ,v044
 .byte   W06
@  #10 @099   ----------------------------------------
 .byte   N11 ,Cn1 ,v052
 .byte   N11 ,Cn1 ,v084
 .byte   N11 ,Fs1
 .byte   N11 ,En3 ,v072
 .byte   N11 ,Bn4 ,v020
 .byte   W12
 .byte   Fs1 ,v084
 .byte   N05 ,Dn3 ,v068
 .byte   N11 ,Bn4 ,v020
 .byte   W06
 .byte   N05 ,Cn1 ,v048
 .byte   N05 ,Dn3 ,v068
 .byte   N05 ,En3
 .byte   W06
 .byte   N11 ,Dn1 ,v096
 .byte   N11 ,Fs1 ,v080
 .byte   N11 ,Bn4 ,v020
 .byte   W06
 .byte   N05 ,Ds3 ,v068
 .byte   W06
 .byte   Cn1 ,v048
 .byte   N05 ,Fs1 ,v080
 .byte   N11 ,Bn4 ,v016
 .byte   W06
 .byte   N05 ,Cn1 ,v048
 .byte   N05 ,Cn1 ,v080
 .byte   N05 ,Dn1 ,v040
 .byte   N05 ,En3 ,v068
 .byte   W06
 .byte   Fs1 ,v076
 .byte   N11 ,Bn4 ,v016
 .byte   W06
 .byte   N17 ,CnM2 ,v052
 .byte   N05 ,Dn1 ,v040
 .byte   N05 ,Dn3 ,v064
 .byte   W06
 .byte   N11 ,Cn1 ,v048
 .byte   N11 ,Cn1 ,v076
 .byte   N11 ,Fs1
 .byte   N11 ,Dn3 ,v064
 .byte   N11 ,En3
 .byte   N11 ,Bn4 ,v016
 .byte   W12
 .byte   N05 ,CnM2 ,v052
 .byte   N11 ,Dn1 ,v088
 .byte   N11 ,Fs1 ,v076
 .byte   N05 ,Dn3 ,v064
 .byte   N11 ,Bn4 ,v016
 .byte   W06
 .byte   N05 ,CnM2 ,v052
 .byte   N05 ,Dn3 ,v064
 .byte   W06
 .byte   CnM2 ,v052
 .byte   N05 ,Cn1 ,v044
 .byte   N05 ,Fs1 ,v072
 .byte   N05 ,Dn3 ,v060
 .byte   N11 ,Bn4 ,v016
 .byte   W06
 .byte   N05 ,CnM2 ,v052
 .byte   N02 ,Dn1 ,v036
 .byte   N05 ,Dn3 ,v060
 .byte   W03
 .byte   N02 ,Dn1 ,v036
 .byte   W03
@  #10 @100   ----------------------------------------
 .byte   N11 ,Cn1 ,v044
 .byte   N11 ,Cn1 ,v072
 .byte   N11 ,Fs1
 .byte   N11 ,En3 ,v060
 .byte   N11 ,Bn4 ,v016
 .byte   W12
 .byte   Fs1 ,v068
 .byte   N05 ,Dn3 ,v060
 .byte   N11 ,Bn4 ,v016
 .byte   W06
 .byte   N05 ,Cn1 ,v040
 .byte   N05 ,Dn3 ,v060
 .byte   N05 ,En3
 .byte   W06
 .byte   N11 ,Dn1 ,v080
 .byte   N11 ,Fs1 ,v068
 .byte   N11 ,Bn4 ,v016
 .byte   W06
 .byte   N05 ,Ds3 ,v056
 .byte   W06
 .byte   Cn1 ,v040
 .byte   N05 ,Fs1 ,v068
 .byte   N11 ,Bn4 ,v016
 .byte   W06
 .byte   N05 ,Cn1 ,v040
 .byte   N05 ,Cn1 ,v064
 .byte   N05 ,Dn1 ,v032
 .byte   N05 ,En3 ,v056
 .byte   W06
 .byte   Fs1 ,v064
 .byte   N11 ,Bn4 ,v016
 .byte   W06
 .byte   N05 ,Dn1 ,v032
 .byte   N05 ,Dn3 ,v056
 .byte   W06
 .byte   N11 ,Cn1 ,v040
 .byte   N11 ,Cn1 ,v064
 .byte   N11 ,Fs1
 .byte   N11 ,Dn3 ,v052
 .byte   N11 ,En3
 .byte   N11 ,Bn4 ,v016
 .byte   W12
 .byte   N05 ,CnM2 ,v044
 .byte   N11 ,Dn1 ,v072
 .byte   N11 ,Fs1 ,v060
 .byte   N11 ,Dn3 ,v052
 .byte   N11 ,Bn4 ,v016
 .byte   W06
 .byte   N05 ,CnM2 ,v044
 .byte   W06
 .byte   N05
 .byte   N11 ,Cn1 ,v036
 .byte   N05 ,Fs1 ,v060
 .byte   N11 ,Bn4 ,v016
 .byte   W06
 .byte   N05 ,CnM2 ,v044
 .byte   N05 ,Dn1 ,v032
 .byte   W06
@  #10 @101   ----------------------------------------
 .byte   N11 ,Cn1 ,v036
 .byte   N11 ,Cn1 ,v056
 .byte   N11 ,Fs1
 .byte   N11 ,En3 ,v048
 .byte   N11 ,Bn4 ,v012
 .byte   W12
 .byte   Fs1 ,v056
 .byte   N05 ,Dn3 ,v048
 .byte   N11 ,Bn4 ,v012
 .byte   W06
 .byte   N05 ,Cn1 ,v036
 .byte   N05 ,Dn3 ,v048
 .byte   N05 ,En3
 .byte   W06
 .byte   N11 ,Dn1 ,v064
 .byte   N11 ,Fs1 ,v056
 .byte   N11 ,Bn4 ,v012
 .byte   W06
 .byte   N05 ,Ds3 ,v048
 .byte   W06
 .byte   Cn1 ,v032
 .byte   N05 ,Fs1 ,v052
 .byte   N11 ,Bn4 ,v012
 .byte   W06
 .byte   N05 ,Cn1 ,v032
 .byte   N05 ,Cn1 ,v052
 .byte   N05 ,Dn1 ,v028
 .byte   N05 ,En3 ,v044
 .byte   W06
 .byte   Fs1 ,v052
 .byte   N11 ,Bn4 ,v012
 .byte   W06
 .byte   N17 ,CnM2 ,v036
 .byte   N05 ,Dn1 ,v028
 .byte   N05 ,Dn3 ,v044
 .byte   W06
 .byte   N11 ,Cn1 ,v032
 .byte   N11 ,Cn1 ,v048
 .byte   N11 ,Fs1
 .byte   N11 ,Dn3 ,v044
 .byte   N11 ,En3
 .byte   N11 ,Bn4 ,v012
 .byte   W12
 .byte   N05 ,CnM2 ,v036
 .byte   N11 ,Dn1 ,v056
 .byte   N11 ,Fs1 ,v048
 .byte   N05 ,Dn3 ,v040
 .byte   N11 ,Bn4 ,v012
 .byte   W06
 .byte   N05 ,CnM2 ,v036
 .byte   N05 ,Dn3 ,v040
 .byte   W06
 .byte   CnM2 ,v036
 .byte   N05 ,Cn1 ,v028
 .byte   N05 ,Fs1 ,v048
 .byte   N05 ,Dn3 ,v040
 .byte   N11 ,Bn4 ,v012
 .byte   W06
 .byte   N05 ,CnM2 ,v036
 .byte   N02 ,Dn1 ,v024
 .byte   N05 ,Dn3 ,v040
 .byte   W03
 .byte   N02 ,Dn1 ,v024
 .byte   W03
@  #10 @102   ----------------------------------------
 .byte   N11 ,Cn1 ,v028
 .byte   N11 ,Cn1 ,v044
 .byte   N11 ,Fs1
 .byte   N11 ,En3 ,v040
 .byte   W12
 .byte   Fs1 ,v044
 .byte   N05 ,Dn3 ,v036
 .byte   W06
 .byte   Cn1 ,v028
 .byte   N05 ,Dn3 ,v036
 .byte   N05 ,En3
 .byte   W06
 .byte   N11 ,Dn1 ,v048
 .byte   N11 ,Fs1 ,v040
 .byte   W06
 .byte   N05 ,Ds3 ,v036
 .byte   W06
 .byte   Cn1 ,v024
 .byte   N05 ,Fs1 ,v040
 .byte   W06
 .byte   Cn1 ,v024
 .byte   N05 ,Cn1 ,v040
 .byte   N05 ,Dn1 ,v020
 .byte   N05 ,En3 ,v036
 .byte   W06
 .byte   Fs1
 .byte   W06
 .byte   Dn1 ,v020
 .byte   N05 ,Dn3 ,v032
 .byte   W06
 .byte   N11 ,Cn1 ,v024
 .byte   N11 ,Cn1 ,v036
 .byte   N11 ,Fs1
 .byte   N11 ,Dn3 ,v032
 .byte   N11 ,En3
 .byte   W12
 .byte   Dn1 ,v040
 .byte   N11 ,Fs1 ,v036
 .byte   N11 ,Dn3 ,v032
 .byte   W12
 .byte   Cn1 ,v020
 .byte   N05 ,Fs1 ,v032
 .byte   W06
 .byte   Dn1 ,v016
 .byte   W06
@  #10 @103   ----------------------------------------
 .byte   N11 ,Cn1 ,v020
 .byte   N11 ,Cn1 ,v032
 .byte   N11 ,Fs1
 .byte   N11 ,En3 ,v028
 .byte   W12
 .byte   Fs1
 .byte   N05 ,Dn3
 .byte   W06
 .byte   Cn1 ,v020
 .byte   N05 ,Dn3 ,v028
 .byte   N05 ,En3
 .byte   W06
 .byte   N11 ,Dn1 ,v032
 .byte   N11 ,Fs1 ,v028
 .byte   W06
 .byte   N05 ,Ds3 ,v024
 .byte   W06
 .byte   Cn1 ,v020
 .byte   N05 ,Fs1 ,v028
 .byte   W06
 .byte   Cn1 ,v016
 .byte   N05 ,Cn1 ,v024
 .byte   N05 ,Dn1 ,v012
 .byte   N05 ,En3 ,v024
 .byte   W06
 .byte   Fs1
 .byte   W06
 .byte   Dn1 ,v012
 .byte   N05 ,Dn3 ,v024
 .byte   W06
 .byte   N11 ,Cn1 ,v016
 .byte   N11 ,Cn1 ,v024
 .byte   N11 ,Fs1
 .byte   N11 ,Dn3 ,v020
 .byte   N11 ,En3
 .byte   W12
 .byte   Dn1 ,v024
 .byte   N11 ,Fs1 ,v020
 .byte   N05 ,Dn3
 .byte   W06
 .byte   N05
 .byte   W06
 .byte   Cn1 ,v016
 .byte   N05 ,Fs1 ,v020
 .byte   N05 ,Dn3
 .byte   W06
 .byte   N02 ,Dn1 ,v012
 .byte   N05 ,Dn3 ,v020
 .byte   W03
 .byte   N02 ,Dn1 ,v012
 .byte   W03
 .byte   FINE

@******************************************************@
	.align	2

song04:
	.byte	10	@ NumTrks
	.byte	0	@ NumBlks
	.byte	song04_pri	@ Priority
	.byte	song04_rev	@ Reverb.
    
	.word	song04_grp
    
	.word	song04_001
	.word	song04_002
	.word	song04_003
	.word	song04_004
	.word	song04_005
	.word	song04_006
	.word	song04_007
	.word	song04_008
	.word	song04_009
	.word	song04_010

	.end
