//Event file generated from Sappy .s format.
	#include "MPlayDef.event"

	#define	WhenMotherWasThereAlt_grp  voicegroup000
	#define	WhenMotherWasThereAlt_pri  0
	#define	WhenMotherWasThereAlt_rev  0
	#define	WhenMotherWasThereAlt_mvl  127
	#define	WhenMotherWasThereAlt_key  0
	#define	WhenMotherWasThereAlt_tbs  1
	#define	WhenMotherWasThereAlt_exg  0
	#define	WhenMotherWasThereAlt_cmp  1

	// .rodata
	//	WhenMotherWasThereAlt
	ALIGN 4


//**************** Track 1 (Midi-Chn.0) ****************//

WhenMotherWasThereAlt_001:
//  #01 //000   ----------------------------------------
 BYTE   KEYSH   WhenMotherWasThereAlt_key+0
Label_01004F8A:
 BYTE   TEMPO   98*WhenMotherWasThereAlt_tbs/2
 BYTE   VOICE   4
 BYTE   VOL   43*WhenMotherWasThereAlt_mvl/mxv
 BYTE   PAN   c_v+0
 BYTE   W96
//  #01 //001   ----------------------------------------
 BYTE   W96
//  #01 //002   ----------------------------------------
 BYTE   W96
//  #01 //003   ----------------------------------------
 BYTE   W96
//  #01 //004   ----------------------------------------
 BYTE   W96
//  #01 //005   ----------------------------------------
 BYTE   W96
//  #01 //006   ----------------------------------------
 BYTE   W96
//  #01 //007   ----------------------------------------
 BYTE   W96
//  #01 //008   ----------------------------------------
 BYTE   W96
//  #01 //009   ----------------------------------------
 BYTE   W96
//  #01 //010   ----------------------------------------
 BYTE   W96
//  #01 //011   ----------------------------------------
 BYTE   W96
//  #01 //012   ----------------------------------------
 BYTE   W96
//  #01 //013   ----------------------------------------
 BYTE   W96
//  #01 //014   ----------------------------------------
 BYTE   W96
//  #01 //015   ----------------------------------------
 BYTE   W96
//  #01 //016   ----------------------------------------
Label_01004FA2:
 BYTE   TIE  Fn2  v096
 BYTE   TIE  An2
 BYTE   N32  En3
 BYTE   W36
 BYTE   N23  Dn3
 BYTE   W24
 BYTE   En3
 BYTE   W24
 BYTE   Gn3
 BYTE   W12
 BYTE   PEND 
//  #01 //017   ----------------------------------------
Label_01004FB2:
 BYTE   W12
 BYTE   N68  Cn3  v096
 BYTE   W80
 BYTE   W03
 BYTE   PEND 
 BYTE   EOT
 BYTE   Fn2  v057
 BYTE   W01
//  #01 //018   ----------------------------------------
Label_01004FBD:
 BYTE   TIE  En2  v096
 BYTE   TIE  Gn2
 BYTE   TIE  Bn2
 BYTE   TIE  Dn3
 BYTE   W96
 BYTE   PEND 
//  #01 //019   ----------------------------------------
 BYTE   W92
 BYTE   W03
 BYTE   EOT
 BYTE   En2  v055
 BYTE   Bn2  v062
 BYTE   W01
//  #01 //020   ----------------------------------------
Label_01004FD0:
 BYTE   N80  Fs2  v096
 BYTE   N80  An2
 BYTE   N32  Cs3
 BYTE   N32  En3
 BYTE   W36
 BYTE   N23  Dn3
 BYTE   W24
 BYTE   En3
 BYTE   W24
 BYTE   TIE  Fn2
 BYTE   TIE  An2
 BYTE   N23  Gn3
 BYTE   W12
 BYTE   PEND 
//  #01 //021   ----------------------------------------
 BYTE   PATT
  POIN2 Label_01004FB2
//  #01 //022   ----------------------------------------
 BYTE   EOT
 BYTE   Fn2  v057
 BYTE   W01
Label_01004FF0:
 BYTE   N92  En2  v096
 BYTE   N92  Gn2
 BYTE   N92  Bn2
 BYTE   TIE  Dn3
 BYTE   W96
 BYTE   PEND 
//  #01 //023   ----------------------------------------
Label_01004FFB:
 BYTE   N92  Ds2  v096
 BYTE   N92  Gn2
 BYTE   N92  As2
 BYTE   W92
 BYTE   W03
 BYTE   PEND 
 BYTE   EOT
 BYTE   Dn3
 BYTE   W01
//  #01 //024   ----------------------------------------
 BYTE   PATT
  POIN2 Label_01004FA2
//  #01 //025   ----------------------------------------
 BYTE   PATT
  POIN2 Label_01004FB2
//  #01 //026   ----------------------------------------
 BYTE   EOT
 BYTE   Fn2  v057
 BYTE   W01
//  #01 //027   ----------------------------------------
 BYTE   PATT
  POIN2 Label_01004FBD
//  #01 //028   ----------------------------------------
 BYTE   W92
 BYTE   W03
 BYTE   EOT
 BYTE   En2  v055
 BYTE   Bn2  v062
 BYTE   W01
//  #01 //029   ----------------------------------------
 BYTE   PATT
  POIN2 Label_01004FD0
//  #01 //030   ----------------------------------------
 BYTE   PATT
  POIN2 Label_01004FB2
//  #01 //031   ----------------------------------------
 BYTE   EOT
 BYTE   Fn2  v057
 BYTE   W01
//  #01 //032   ----------------------------------------
 BYTE   PATT
  POIN2 Label_01004FF0
//  #01 //033   ----------------------------------------
 BYTE   PATT
  POIN2 Label_01004FFB
//  #01 //034   ----------------------------------------
 BYTE   EOT
 BYTE   Dn3
 BYTE   W01
//  #01 //035   ----------------------------------------
 BYTE   PATT
  POIN2 Label_01004FA2
//  #01 //036   ----------------------------------------
 BYTE   PATT
  POIN2 Label_01004FB2
//  #01 //037   ----------------------------------------
 BYTE   EOT
 BYTE   Fn2  v057
 BYTE   W01
 BYTE   W96
//  #01 //038   ----------------------------------------
 BYTE   W96
//  #01 //039   ----------------------------------------
 BYTE   GoTo
  POIN2 Label_01004F8A
//  #01 //040   ----------------------------------------
 BYTE   TEMPO   98*WhenMotherWasThereAlt_tbs/2
 BYTE   W96
//  #01 //041   ----------------------------------------
 BYTE   W96
//  #01 //042   ----------------------------------------
 BYTE   W96
//  #01 //043   ----------------------------------------
 BYTE   W96
//  #01 //044   ----------------------------------------
 BYTE   W96
//  #01 //045   ----------------------------------------
 BYTE   W96
//  #01 //046   ----------------------------------------
 BYTE   W96
//  #01 //047   ----------------------------------------
 BYTE   W96
//  #01 //048   ----------------------------------------
 BYTE   W96
//  #01 //049   ----------------------------------------
 BYTE   W96
//  #01 //050   ----------------------------------------
 BYTE   W96
//  #01 //051   ----------------------------------------
 BYTE   W96
//  #01 //052   ----------------------------------------
 BYTE   W96
//  #01 //053   ----------------------------------------
 BYTE   W96
//  #01 //054   ----------------------------------------
 BYTE   W96
//  #01 //055   ----------------------------------------
 BYTE   W96
//  #01 //056   ----------------------------------------
 BYTE   PATT
  POIN2 Label_01004FA2
//  #01 //057   ----------------------------------------
 BYTE   PATT
  POIN2 Label_01004FB2
//  #01 //058   ----------------------------------------
 BYTE   EOT
 BYTE   Fn2  v057
 BYTE   W01
//  #01 //059   ----------------------------------------
 BYTE   PATT
  POIN2 Label_01004FBD
//  #01 //060   ----------------------------------------
 BYTE   W92
 BYTE   W03
 BYTE   EOT
 BYTE   En2  v055
 BYTE   Bn2  v062
 BYTE   W01
//  #01 //061   ----------------------------------------
 BYTE   PATT
  POIN2 Label_01004FD0
//  #01 //062   ----------------------------------------
 BYTE   PATT
  POIN2 Label_01004FB2
//  #01 //063   ----------------------------------------
 BYTE   EOT
 BYTE   Fn2  v057
 BYTE   W01
//  #01 //064   ----------------------------------------
 BYTE   PATT
  POIN2 Label_01004FF0
//  #01 //065   ----------------------------------------
 BYTE   PATT
  POIN2 Label_01004FFB
//  #01 //066   ----------------------------------------
 BYTE   EOT
 BYTE   Dn3
 BYTE   W01
//  #01 //067   ----------------------------------------
 BYTE   PATT
  POIN2 Label_01004FA2
//  #01 //068   ----------------------------------------
 BYTE   PATT
  POIN2 Label_01004FB2
//  #01 //069   ----------------------------------------
 BYTE   EOT
 BYTE   Fn2  v057
 BYTE   W01
//  #01 //070   ----------------------------------------
 BYTE   PATT
  POIN2 Label_01004FBD
//  #01 //071   ----------------------------------------
 BYTE   W92
 BYTE   W03
 BYTE   EOT
 BYTE   En2  v055
 BYTE   Bn2  v062
 BYTE   W01
//  #01 //072   ----------------------------------------
 BYTE   PATT
  POIN2 Label_01004FD0
//  #01 //073   ----------------------------------------
 BYTE   PATT
  POIN2 Label_01004FB2
//  #01 //074   ----------------------------------------
 BYTE   EOT
 BYTE   Fn2  v057
 BYTE   W01
//  #01 //075   ----------------------------------------
 BYTE   PATT
  POIN2 Label_01004FF0
//  #01 //076   ----------------------------------------
 BYTE   PATT
  POIN2 Label_01004FFB
//  #01 //077   ----------------------------------------
 BYTE   EOT
 BYTE   Dn3
 BYTE   W01
//  #01 //078   ----------------------------------------
 BYTE   PATT
  POIN2 Label_01004FA2
//  #01 //079   ----------------------------------------
 BYTE   PATT
  POIN2 Label_01004FB2
//  #01 //080   ----------------------------------------
 BYTE   EOT
 BYTE   Fn2  v057
 BYTE   W01
 BYTE   W96
//  #01 //081   ----------------------------------------
 BYTE   W92
 BYTE   W03
 BYTE   FINE

//**************** Track 2 (Midi-Chn.1) ****************//

WhenMotherWasThereAlt_002:
//  #02 //000   ----------------------------------------
 BYTE   KEYSH   WhenMotherWasThereAlt_key+0
Label_018C757E:
 BYTE   VOICE   74
 BYTE   VOL   43*WhenMotherWasThereAlt_mvl/mxv
 BYTE   PAN   c_v+0
 BYTE   W96
//  #02 //001   ----------------------------------------
Label_018C7585:
 BYTE   N02  Ds4  v036
 BYTE   W01
 BYTE   W01
 BYTE   N15  En4  v040
 BYTE   W01
 BYTE   W01
 BYTE   W01
 BYTE   W01
 BYTE   W01
 BYTE   W01
 BYTE   W01
 BYTE   W01
 BYTE   W01
 BYTE   W01
 BYTE   W01
 BYTE   W01
 BYTE   W01
 BYTE   W01
 BYTE   W01
 BYTE   W01
 BYTE   N02  Ds4  v064
 BYTE   W01
 BYTE   W01
 BYTE   N15  En4  v068
 BYTE   W01
 BYTE   W01
 BYTE   W01
 BYTE   W01
 BYTE   W01
 BYTE   W01
 BYTE   W01
 BYTE   W01
 BYTE   W01
 BYTE   W01
 BYTE   W01
 BYTE   W01
 BYTE   W01
 BYTE   W01
 BYTE   W01
 BYTE   W01
 BYTE   N02  Ds4  v096
 BYTE   W01
 BYTE   W01
 BYTE   N09  En4
 BYTE   W01
 BYTE   W01
 BYTE   W01
 BYTE   W01
 BYTE   W01
 BYTE   W01
 BYTE   W01
 BYTE   W01
 BYTE   W01
 BYTE   W01
 BYTE   N02  Ds4  v084
 BYTE   W01
 BYTE   W01
 BYTE   N15  En4
 BYTE   W01
 BYTE   W01
 BYTE   W01
 BYTE   W01
 BYTE   W01
 BYTE   W01
 BYTE   W01
 BYTE   W01
 BYTE   W01
 BYTE   W01
 BYTE   W01
 BYTE   W01
 BYTE   W01
 BYTE   W01
 BYTE   W01
 BYTE   W01
 BYTE   N02  Ds4  v068
 BYTE   W01
 BYTE   W01
 BYTE   N15  En4  v064
 BYTE   W01
 BYTE   W01
 BYTE   W01
 BYTE   W01
 BYTE   W01
 BYTE   W01
 BYTE   W01
 BYTE   W01
 BYTE   W01
 BYTE   W01
 BYTE   W01
 BYTE   W01
 BYTE   W01
 BYTE   W01
 BYTE   W01
 BYTE   W01
 BYTE   N02  Ds4  v048
 BYTE   W01
 BYTE   W01
 BYTE   N09  En4  v044
 BYTE   W01
 BYTE   W01
 BYTE   W01
 BYTE   W01
 BYTE   W01
 BYTE   W01
 BYTE   W01
 BYTE   W01
 BYTE   W01
 BYTE   W01
 BYTE   PEND 
//  #02 //002   ----------------------------------------
Label_018C7608:
 BYTE   N02  Ds4  v036
 BYTE   W02
 BYTE   N68  En4
 BYTE   W02
 BYTE   W04
 BYTE   W04
 BYTE   W04
 BYTE   W05
 BYTE   W04
 BYTE   W04
 BYTE   W04
 BYTE   W05
 BYTE   W04
 BYTE   W04
 BYTE   W04
 BYTE   W05
 BYTE   W04
 BYTE   W04
 BYTE   W04
 BYTE   W05
 BYTE   W24
 BYTE   PEND 
//  #02 //003   ----------------------------------------
 BYTE   W96
//  #02 //004   ----------------------------------------
 BYTE   W96
//  #02 //005   ----------------------------------------
 BYTE   PATT
  POIN2 Label_018C7585
//  #02 //006   ----------------------------------------
 BYTE   PATT
  POIN2 Label_018C7608
//  #02 //007   ----------------------------------------
 BYTE   W96
//  #02 //008   ----------------------------------------
 BYTE   W96
//  #02 //009   ----------------------------------------
 BYTE   PATT
  POIN2 Label_018C7585
//  #02 //010   ----------------------------------------
 BYTE   PATT
  POIN2 Label_018C7608
//  #02 //011   ----------------------------------------
 BYTE   W96
//  #02 //012   ----------------------------------------
 BYTE   W96
//  #02 //013   ----------------------------------------
 BYTE   PATT
  POIN2 Label_018C7585
//  #02 //014   ----------------------------------------
 BYTE   PATT
  POIN2 Label_018C7608
//  #02 //015   ----------------------------------------
 BYTE   W96
//  #02 //016   ----------------------------------------
 BYTE   W96
//  #02 //017   ----------------------------------------
 BYTE   W96
//  #02 //018   ----------------------------------------
 BYTE   W96
//  #02 //019   ----------------------------------------
 BYTE   W96
//  #02 //020   ----------------------------------------
 BYTE   W96
//  #02 //021   ----------------------------------------
 BYTE   W96
//  #02 //022   ----------------------------------------
 BYTE   W96
//  #02 //023   ----------------------------------------
 BYTE   W96
//  #02 //024   ----------------------------------------
 BYTE   W96
//  #02 //025   ----------------------------------------
 BYTE   W96
//  #02 //026   ----------------------------------------
 BYTE   W96
//  #02 //027   ----------------------------------------
 BYTE   W96
//  #02 //028   ----------------------------------------
 BYTE   W96
//  #02 //029   ----------------------------------------
 BYTE   W96
//  #02 //030   ----------------------------------------
 BYTE   W96
//  #02 //031   ----------------------------------------
 BYTE   W96
//  #02 //032   ----------------------------------------
 BYTE   W96
//  #02 //033   ----------------------------------------
 BYTE   W96
//  #02 //034   ----------------------------------------
 BYTE   W96
//  #02 //035   ----------------------------------------
 BYTE   W96
//  #02 //036   ----------------------------------------
 BYTE   GoTo
  POIN2 Label_018C757E
//  #02 //037   ----------------------------------------
 BYTE   W96
//  #02 //038   ----------------------------------------
 BYTE   PATT
  POIN2 Label_018C7585
//  #02 //039   ----------------------------------------
 BYTE   PATT
  POIN2 Label_018C7608
//  #02 //040   ----------------------------------------
 BYTE   W96
//  #02 //041   ----------------------------------------
 BYTE   W96
//  #02 //042   ----------------------------------------
 BYTE   PATT
  POIN2 Label_018C7585
//  #02 //043   ----------------------------------------
 BYTE   PATT
  POIN2 Label_018C7608
//  #02 //044   ----------------------------------------
 BYTE   W96
//  #02 //045   ----------------------------------------
 BYTE   W96
//  #02 //046   ----------------------------------------
 BYTE   PATT
  POIN2 Label_018C7585
//  #02 //047   ----------------------------------------
 BYTE   PATT
  POIN2 Label_018C7608
//  #02 //048   ----------------------------------------
 BYTE   W96
//  #02 //049   ----------------------------------------
 BYTE   W96
//  #02 //050   ----------------------------------------
 BYTE   PATT
  POIN2 Label_018C7585
//  #02 //051   ----------------------------------------
 BYTE   PATT
  POIN2 Label_018C7608
//  #02 //052   ----------------------------------------
 BYTE   W96
//  #02 //053   ----------------------------------------
 BYTE   W96
//  #02 //054   ----------------------------------------
 BYTE   W96
//  #02 //055   ----------------------------------------
 BYTE   W96
//  #02 //056   ----------------------------------------
 BYTE   W96
//  #02 //057   ----------------------------------------
 BYTE   W96
//  #02 //058   ----------------------------------------
 BYTE   W96
//  #02 //059   ----------------------------------------
 BYTE   W96
//  #02 //060   ----------------------------------------
 BYTE   W96
//  #02 //061   ----------------------------------------
 BYTE   W96
//  #02 //062   ----------------------------------------
 BYTE   W96
//  #02 //063   ----------------------------------------
 BYTE   W96
//  #02 //064   ----------------------------------------
 BYTE   W96
//  #02 //065   ----------------------------------------
 BYTE   W96
//  #02 //066   ----------------------------------------
 BYTE   W96
//  #02 //067   ----------------------------------------
 BYTE   W96
//  #02 //068   ----------------------------------------
 BYTE   W96
//  #02 //069   ----------------------------------------
 BYTE   W96
//  #02 //070   ----------------------------------------
 BYTE   W96
//  #02 //071   ----------------------------------------
 BYTE   W96
//  #02 //072   ----------------------------------------
 BYTE   W92
 BYTE   W03
 BYTE   FINE

//**************** Track 3 (Midi-Chn.2) ****************//

WhenMotherWasThereAlt_003:
//  #03 //000   ----------------------------------------
 BYTE   KEYSH   WhenMotherWasThereAlt_key+0
Label_010050F6:
 BYTE   VOICE   38
 BYTE   VOL   43*WhenMotherWasThereAlt_mvl/mxv
 BYTE   PAN   c_v+0
 BYTE   N05  An0  v112
 BYTE   W06
 BYTE   An1
 BYTE   W06
 BYTE   Gn1
 BYTE   W06
 BYTE   An1
 BYTE   W06
 BYTE   Cn2
 BYTE   W06
 BYTE   Bn1
 BYTE   W06
 BYTE   Gn1
 BYTE   W48
 BYTE   An0
 BYTE   W06
 BYTE   N05
 BYTE   W06
//  #03 //001   ----------------------------------------
Label_01005110:
 BYTE   W54
 BYTE   N05  An0  v112
 BYTE   W12
 BYTE   N02
 BYTE   W06
 BYTE   N23  Dn1
 BYTE   W24
 BYTE   PEND 
//  #03 //002   ----------------------------------------
Label_0100511B:
 BYTE   N05  An0  v112
 BYTE   W06
 BYTE   An1
 BYTE   W06
 BYTE   Gn1
 BYTE   W06
 BYTE   An1
 BYTE   W06
 BYTE   Cn2
 BYTE   W06
 BYTE   Bn1
 BYTE   W06
 BYTE   Gn1
 BYTE   W48
 BYTE   An0
 BYTE   W06
 BYTE   N05
 BYTE   W06
 BYTE   PEND 
//  #03 //003   ----------------------------------------
Label_01005130:
 BYTE   W42
 BYTE   N05  An0  v112
 BYTE   W06
 BYTE   Dn2
 BYTE   W06
 BYTE   Cn2
 BYTE   W12
 BYTE   Bn1
 BYTE   W12
 BYTE   N17  Gn1
 BYTE   W18
 BYTE   PEND 
//  #03 //004   ----------------------------------------
 BYTE   PATT
  POIN2 Label_0100511B
//  #03 //005   ----------------------------------------
 BYTE   PATT
  POIN2 Label_01005110
//  #03 //006   ----------------------------------------
 BYTE   PATT
  POIN2 Label_0100511B
//  #03 //007   ----------------------------------------
 BYTE   PATT
  POIN2 Label_01005130
//  #03 //008   ----------------------------------------
Label_01005153:
 BYTE   N05  An0  v112
 BYTE   W06
 BYTE   N05
 BYTE   W78
 BYTE   N05
 BYTE   W06
 BYTE   N05
 BYTE   W06
 BYTE   PEND 
//  #03 //009   ----------------------------------------
 BYTE   W96
//  #03 //010   ----------------------------------------
 BYTE   PATT
  POIN2 Label_01005153
//  #03 //011   ----------------------------------------
Label_01005164:
 BYTE   W48
 BYTE   N05  An0  v112
 BYTE   W06
 BYTE   Gn0
 BYTE   W12
 BYTE   An0
 BYTE   W12
 BYTE   N17  Cn1
 BYTE   W18
 BYTE   PEND 
//  #03 //012   ----------------------------------------
 BYTE   PATT
  POIN2 Label_01005153
//  #03 //013   ----------------------------------------
 BYTE   W78
 BYTE   N17  Gn0  v112
 BYTE   W18
//  #03 //014   ----------------------------------------
 BYTE   PATT
  POIN2 Label_01005153
//  #03 //015   ----------------------------------------
 BYTE   PATT
  POIN2 Label_01005164
//  #03 //016   ----------------------------------------
 BYTE   W96
//  #03 //017   ----------------------------------------
 BYTE   W96
//  #03 //018   ----------------------------------------
 BYTE   W96
//  #03 //019   ----------------------------------------
 BYTE   W96
//  #03 //020   ----------------------------------------
 BYTE   W96
//  #03 //021   ----------------------------------------
 BYTE   W96
//  #03 //022   ----------------------------------------
 BYTE   W96
//  #03 //023   ----------------------------------------
Label_0100518C:
 BYTE   W78
 BYTE   N05  An0  v112
 BYTE   W06
 BYTE   Cn1
 BYTE   W06
 BYTE   An0
 BYTE   W06
 BYTE   PEND 
//  #03 //024   ----------------------------------------
Label_01005196:
 BYTE   N11  An1  v112
 BYTE   W12
 BYTE   N05
 BYTE   W06
 BYTE   Gn1
 BYTE   W12
 BYTE   An1
 BYTE   W12
 BYTE   N11  Dn1
 BYTE   W12
 BYTE   N05
 BYTE   W06
 BYTE   Cn1
 BYTE   W36
 BYTE   PEND 
//  #03 //025   ----------------------------------------
Label_010051A8:
 BYTE   W24
 BYTE   N05  Cn1  v112
 BYTE   W06
 BYTE   Dn1
 BYTE   W12
 BYTE   N05
 BYTE   W12
 BYTE   An0
 BYTE   W12
 BYTE   N05
 BYTE   W06
 BYTE   N23  Gn0
 BYTE   W24
 BYTE   PEND 
//  #03 //026   ----------------------------------------
 BYTE   W96
//  #03 //027   ----------------------------------------
Label_010051BA:
 BYTE   W24
 BYTE   N05  An1  v112
 BYTE   W06
 BYTE   En1
 BYTE   W06
 BYTE   An1
 BYTE   W06
 BYTE   Bn1
 BYTE   W06
 BYTE   N11  Cn2
 BYTE   W12
 BYTE   N05  Dn2
 BYTE   W06
 BYTE   En2
 BYTE   W12
 BYTE   N11  An1
 BYTE   W12
 BYTE   N05  An0
 BYTE   W06
 BYTE   PEND 
//  #03 //028   ----------------------------------------
Label_010051D4:
 BYTE   N17  Fs0  v112
 BYTE   W18
 BYTE   N05  Fs1
 BYTE   W06
 BYTE   Cs2
 BYTE   W06
 BYTE   Dn2
 BYTE   W06
 BYTE   Cs2
 BYTE   W06
 BYTE   An1
 BYTE   W06
 BYTE   N17  Fs1
 BYTE   W18
 BYTE   N05
 BYTE   W18
 BYTE   N52  Fn1
 BYTE   W12
 BYTE   PEND 
//  #03 //029   ----------------------------------------
Label_010051EC:
 BYTE   W42
 BYTE   N05  En1  v112
 BYTE   W06
 BYTE   Fn1
 BYTE   W06
 BYTE   Gn1
 BYTE   W12
 BYTE   N23  Fn1
 BYTE   W30
 BYTE   PEND 
//  #03 //030   ----------------------------------------
Label_010051F9:
 BYTE   N32  En0  v112
 BYTE   W36
 BYTE   N11  En1
 BYTE   W12
 BYTE   N17  Dn2
 BYTE   W18
 BYTE   N23  En2
 BYTE   W30
 BYTE   PEND 
//  #03 //031   ----------------------------------------
Label_01005207:
 BYTE   N44  Ds0  v112
 BYTE   W48
 BYTE   N17  Dn2
 BYTE   W18
 BYTE   N23  Ds2
 BYTE   W30
 BYTE   PEND 
//  #03 //032   ----------------------------------------
 BYTE   N92  Dn1
 BYTE   W96
//  #03 //033   ----------------------------------------
 BYTE   W96
//  #03 //034   ----------------------------------------
 BYTE   W96
//  #03 //035   ----------------------------------------
 BYTE   W96
//  #03 //036   ----------------------------------------
 BYTE   GoTo
  POIN2 Label_010050F6
//  #03 //037   ----------------------------------------
 BYTE   PATT
  POIN2 Label_0100511B
//  #03 //038   ----------------------------------------
 BYTE   PATT
  POIN2 Label_01005110
//  #03 //039   ----------------------------------------
 BYTE   PATT
  POIN2 Label_0100511B
//  #03 //040   ----------------------------------------
 BYTE   PATT
  POIN2 Label_01005130
//  #03 //041   ----------------------------------------
 BYTE   PATT
  POIN2 Label_0100511B
//  #03 //042   ----------------------------------------
 BYTE   PATT
  POIN2 Label_01005110
//  #03 //043   ----------------------------------------
 BYTE   PATT
  POIN2 Label_0100511B
//  #03 //044   ----------------------------------------
 BYTE   PATT
  POIN2 Label_01005130
//  #03 //045   ----------------------------------------
 BYTE   PATT
  POIN2 Label_01005153
//  #03 //046   ----------------------------------------
 BYTE   W96
//  #03 //047   ----------------------------------------
 BYTE   PATT
  POIN2 Label_01005153
//  #03 //048   ----------------------------------------
 BYTE   PATT
  POIN2 Label_01005164
//  #03 //049   ----------------------------------------
 BYTE   PATT
  POIN2 Label_01005153
//  #03 //050   ----------------------------------------
 BYTE   W78
 BYTE   N17  Gn0  v112
 BYTE   W18
//  #03 //051   ----------------------------------------
 BYTE   PATT
  POIN2 Label_01005153
//  #03 //052   ----------------------------------------
 BYTE   PATT
  POIN2 Label_01005164
//  #03 //053   ----------------------------------------
 BYTE   W96
//  #03 //054   ----------------------------------------
 BYTE   W96
//  #03 //055   ----------------------------------------
 BYTE   W96
//  #03 //056   ----------------------------------------
 BYTE   W96
//  #03 //057   ----------------------------------------
 BYTE   W96
//  #03 //058   ----------------------------------------
 BYTE   W96
//  #03 //059   ----------------------------------------
 BYTE   W96
//  #03 //060   ----------------------------------------
 BYTE   PATT
  POIN2 Label_0100518C
//  #03 //061   ----------------------------------------
 BYTE   PATT
  POIN2 Label_01005196
//  #03 //062   ----------------------------------------
 BYTE   PATT
  POIN2 Label_010051A8
//  #03 //063   ----------------------------------------
 BYTE   W96
//  #03 //064   ----------------------------------------
 BYTE   PATT
  POIN2 Label_010051BA
//  #03 //065   ----------------------------------------
 BYTE   PATT
  POIN2 Label_010051D4
//  #03 //066   ----------------------------------------
 BYTE   PATT
  POIN2 Label_010051EC
//  #03 //067   ----------------------------------------
 BYTE   PATT
  POIN2 Label_010051F9
//  #03 //068   ----------------------------------------
 BYTE   PATT
  POIN2 Label_01005207
//  #03 //069   ----------------------------------------
 BYTE   N92  Dn1  v112
 BYTE   W96
//  #03 //070   ----------------------------------------
 BYTE   W96
//  #03 //071   ----------------------------------------
 BYTE   W96
//  #03 //072   ----------------------------------------
 BYTE   W92
 BYTE   W03
 BYTE   FINE

//**************** Track 4 (Midi-Chn.3) ****************//

WhenMotherWasThereAlt_004:
//  #04 //000   ----------------------------------------
 BYTE   KEYSH   WhenMotherWasThereAlt_key+0
Label_018C7112:
 BYTE   VOICE   89
 BYTE   VOL   43*WhenMotherWasThereAlt_mvl/mxv
 BYTE   PAN   c_v+0
 BYTE   W24
 BYTE   TIE  An2  v127
 BYTE   W72
//  #04 //001   ----------------------------------------
Label_018C711D:
 BYTE   TIE  An1  v004
 BYTE   W96
 BYTE   PEND 
//  #04 //002   ----------------------------------------
 BYTE   W96
//  #04 //003   ----------------------------------------
 BYTE   W23
 BYTE   EOT
 BYTE   EOT
 BYTE   An2
 BYTE   W01
 BYTE   TIE  An2  v064
 BYTE   TIE  En3  v127
 BYTE   W72
//  #04 //004   ----------------------------------------
 BYTE   W96
//  #04 //005   ----------------------------------------
 BYTE   W96
//  #04 //006   ----------------------------------------
 BYTE   W96
//  #04 //007   ----------------------------------------
Label_018C7132:
 BYTE   W92
 BYTE   W03
 BYTE   PEND 
 BYTE   EOT
 BYTE   An2  v064
 BYTE   W01
//  #04 //008   ----------------------------------------
Label_018C7139:
 BYTE   TIE  An0  v064
 BYTE   TIE  An1
 BYTE   W96
 BYTE   PEND 
//  #04 //009   ----------------------------------------
 BYTE   W96
//  #04 //010   ----------------------------------------
 BYTE   W96
//  #04 //011   ----------------------------------------
Label_018C7142:
 BYTE   TIE  Gn3  v064
 BYTE   W96
 BYTE   PEND 
//  #04 //012   ----------------------------------------
 BYTE   W96
//  #04 //013   ----------------------------------------
 BYTE   W96
//  #04 //014   ----------------------------------------
Label_018C7149:
 BYTE   W06
 BYTE   W06
 BYTE   W06
 BYTE   W06
 BYTE   W07
 BYTE   W06
 BYTE   W06
 BYTE   W06
 BYTE   W06
 BYTE   W06
 BYTE   W07
 BYTE   W06
 BYTE   W06
 BYTE   W06
 BYTE   W06
 BYTE   W04
 BYTE   PEND 
//  #04 //015   ----------------------------------------
Label_018C715A:
 BYTE   W03
 BYTE   W06
 BYTE   W06
 BYTE   W06
 BYTE   W06
 BYTE   W07
 BYTE   W06
 BYTE   W06
 BYTE   W06
 BYTE   W06
 BYTE   W07
 BYTE   W06
 BYTE   W06
 BYTE   W06
 BYTE   W06
 BYTE   W06
 BYTE   PEND 
 BYTE   EOT
 BYTE   An0  v045
 BYTE   Gn3
 BYTE   W01
//  #04 //016   ----------------------------------------
 BYTE   W96
//  #04 //017   ----------------------------------------
 BYTE   W96
//  #04 //018   ----------------------------------------
 BYTE   W96
//  #04 //019   ----------------------------------------
 BYTE   W96
//  #04 //020   ----------------------------------------
 BYTE   W96
//  #04 //021   ----------------------------------------
 BYTE   W96
//  #04 //022   ----------------------------------------
 BYTE   W96
//  #04 //023   ----------------------------------------
 BYTE   W96
//  #04 //024   ----------------------------------------
 BYTE   W96
//  #04 //025   ----------------------------------------
 BYTE   W96
//  #04 //026   ----------------------------------------
 BYTE   W96
//  #04 //027   ----------------------------------------
 BYTE   W96
//  #04 //028   ----------------------------------------
 BYTE   W96
//  #04 //029   ----------------------------------------
 BYTE   W96
//  #04 //030   ----------------------------------------
 BYTE   W96
//  #04 //031   ----------------------------------------
 BYTE   W96
//  #04 //032   ----------------------------------------
 BYTE   W96
//  #04 //033   ----------------------------------------
 BYTE   W96
//  #04 //034   ----------------------------------------
 BYTE   W96
//  #04 //035   ----------------------------------------
 BYTE   W96
//  #04 //036   ----------------------------------------
 BYTE   GoTo
  POIN2 Label_018C7112
//  #04 //037   ----------------------------------------
 BYTE   W24
 BYTE   TIE  An2  v127
 BYTE   W72
//  #04 //038   ----------------------------------------
 BYTE   PATT
  POIN2 Label_018C711D
//  #04 //039   ----------------------------------------
 BYTE   W96
//  #04 //040   ----------------------------------------
 BYTE   W23
 BYTE   EOT
 BYTE   An1  v057
 BYTE   W01
 BYTE   TIE  An2  v064
 BYTE   TIE  En3  v127
 BYTE   W72
//  #04 //041   ----------------------------------------
 BYTE   W96
//  #04 //042   ----------------------------------------
 BYTE   W96
//  #04 //043   ----------------------------------------
 BYTE   W96
//  #04 //044   ----------------------------------------
 BYTE   PATT
  POIN2 Label_018C7132
//  #04 //045   ----------------------------------------
 BYTE   EOT
 BYTE   An2  v064
 BYTE   W01
//  #04 //046   ----------------------------------------
 BYTE   PATT
  POIN2 Label_018C7139
//  #04 //047   ----------------------------------------
 BYTE   W96
//  #04 //048   ----------------------------------------
 BYTE   W96
//  #04 //049   ----------------------------------------
 BYTE   PATT
  POIN2 Label_018C7142
//  #04 //050   ----------------------------------------
 BYTE   W96
//  #04 //051   ----------------------------------------
 BYTE   W96
//  #04 //052   ----------------------------------------
 BYTE   PATT
  POIN2 Label_018C7149
//  #04 //053   ----------------------------------------
 BYTE   PATT
  POIN2 Label_018C715A
//  #04 //054   ----------------------------------------
 BYTE   EOT
 BYTE   An0  v045
 BYTE   Gn3
 BYTE   W01
 BYTE   W96
//  #04 //055   ----------------------------------------
 BYTE   W96
//  #04 //056   ----------------------------------------
 BYTE   W96
//  #04 //057   ----------------------------------------
 BYTE   W96
//  #04 //058   ----------------------------------------
 BYTE   W96
//  #04 //059   ----------------------------------------
 BYTE   W96
//  #04 //060   ----------------------------------------
 BYTE   W96
//  #04 //061   ----------------------------------------
 BYTE   W96
//  #04 //062   ----------------------------------------
 BYTE   W96
//  #04 //063   ----------------------------------------
 BYTE   W96
//  #04 //064   ----------------------------------------
 BYTE   W96
//  #04 //065   ----------------------------------------
 BYTE   W96
//  #04 //066   ----------------------------------------
 BYTE   W96
//  #04 //067   ----------------------------------------
 BYTE   W96
//  #04 //068   ----------------------------------------
 BYTE   W96
//  #04 //069   ----------------------------------------
 BYTE   W96
//  #04 //070   ----------------------------------------
 BYTE   W96
//  #04 //071   ----------------------------------------
 BYTE   W96
//  #04 //072   ----------------------------------------
 BYTE   W96
//  #04 //073   ----------------------------------------
 BYTE   W92
 BYTE   W03
 BYTE   FINE

//**************** Track 5 (Midi-Chn.4) ****************//

WhenMotherWasThereAlt_005:
//  #05 //000   ----------------------------------------
 BYTE   KEYSH   WhenMotherWasThereAlt_key+0
Label_010052B6:
 BYTE   VOICE   124
 BYTE   VOL   43*WhenMotherWasThereAlt_mvl/mxv
 BYTE   PAN   c_v+0
 BYTE   VOL   43*WhenMotherWasThereAlt_mvl/mxv
 BYTE   PAN   c_v+0
 BYTE   N17  Cn1  v096
 BYTE   N05  Dn3  v052
 BYTE   N17  En3  v108
 BYTE   W06
 BYTE   N02  Dn3  v076
 BYTE   W03
 BYTE   Dn3  v052
 BYTE   W03
 BYTE   N05
 BYTE   W06
 BYTE   Cn1  v096
 BYTE   N05  Dn3  v052
 BYTE   N05  En3  v108
 BYTE   W06
 BYTE   N17  En1  v127
 BYTE   N17  Fs1  v096
 BYTE   N11  Dn3  v076
 BYTE   W12
 BYTE   N05  Dn3  v052
 BYTE   W06
 BYTE   As1  v096
 BYTE   N05  Dn3  v076
 BYTE   W06
 BYTE   N23  Fs1  v096
 BYTE   W06
 BYTE   N05  Dn3  v052
 BYTE   W06
 BYTE   N03  Dn3  v116
 BYTE   W06
 BYTE   N05  Dn3  v052
 BYTE   W06
 BYTE   N17  Fs1  v096
 BYTE   N03  Dn3  v116
 BYTE   W06
 BYTE   N05  Dn3  v052
 BYTE   W06
 BYTE   N02
 BYTE   W03
 BYTE   N02
 BYTE   W03
 BYTE   N05  Fs1  v127
 BYTE   N05  Dn3  v052
 BYTE   W06
//  #05 //001   ----------------------------------------
Label_01005316:
 BYTE   N17  Cn1  v096
 BYTE   N17  Fs1
 BYTE   N05  Dn3  v052
 BYTE   N17  En3  v108
 BYTE   W06
 BYTE   N02  Dn3  v076
 BYTE   W03
 BYTE   Dn3  v052
 BYTE   W03
 BYTE   N05
 BYTE   W06
 BYTE   Cn1  v096
 BYTE   N05  Dn3  v052
 BYTE   N05  En3  v108
 BYTE   W06
 BYTE   N23  Fs1  v096
 BYTE   N11  Dn3  v076
 BYTE   W12
 BYTE   N05  Dn3  v052
 BYTE   W06
 BYTE   Dn3  v076
 BYTE   W06
 BYTE   N23  Fs1  v096
 BYTE   W06
 BYTE   N05  Dn3  v052
 BYTE   W06
 BYTE   N03  Dn3  v116
 BYTE   W06
 BYTE   N05  Dn3  v052
 BYTE   W06
 BYTE   N17  Fs1  v096
 BYTE   N01  Dn3  v116
 BYTE   W03
 BYTE   N02  Dn3  v052
 BYTE   W03
 BYTE   N02
 BYTE   W03
 BYTE   Ds3
 BYTE   W03
 BYTE   N05  Dn3
 BYTE   W06
 BYTE   Fs1  v127
 BYTE   N05  Dn3  v052
 BYTE   W06
 BYTE   PEND 
//  #05 //002   ----------------------------------------
Label_0100536B:
 BYTE   N17  Cn1  v096
 BYTE   N05  Dn3  v052
 BYTE   N17  En3  v108
 BYTE   W06
 BYTE   N02  Dn3  v076
 BYTE   W03
 BYTE   Dn3  v052
 BYTE   W03
 BYTE   N05
 BYTE   W06
 BYTE   Cn1  v096
 BYTE   N05  Dn3  v052
 BYTE   N05  En3  v108
 BYTE   W06
 BYTE   N11  En1  v127
 BYTE   N11  Fs1  v096
 BYTE   N11  Dn3  v076
 BYTE   W12
 BYTE   N05  As1  v096
 BYTE   N05  Dn3  v052
 BYTE   W06
 BYTE   As1  v096
 BYTE   N05  Dn3  v076
 BYTE   W06
 BYTE   N23  Fs1  v096
 BYTE   W06
 BYTE   N05  Dn3  v052
 BYTE   W06
 BYTE   N03  Dn3  v116
 BYTE   W06
 BYTE   N05  Dn3  v052
 BYTE   W06
 BYTE   N17  Fs1  v096
 BYTE   N03  Dn3  v116
 BYTE   W06
 BYTE   N05  Dn3  v052
 BYTE   W06
 BYTE   N02
 BYTE   W03
 BYTE   N02
 BYTE   W03
 BYTE   N05  Fs1  v127
 BYTE   N05  Dn3  v052
 BYTE   W06
 BYTE   PEND 
//  #05 //003   ----------------------------------------
Label_010053C5:
 BYTE   N17  Cn1  v096
 BYTE   N17  Fs1
 BYTE   N05  Dn3  v052
 BYTE   N17  En3  v108
 BYTE   W06
 BYTE   N02  Dn3  v076
 BYTE   W03
 BYTE   N02
 BYTE   W03
 BYTE   N05  Dn3  v052
 BYTE   W06
 BYTE   Cn1  v096
 BYTE   N05  As1
 BYTE   N05  Dn3  v052
 BYTE   N05  En3  v108
 BYTE   W06
 BYTE   N23  Fs1  v096
 BYTE   N11  Dn3  v076
 BYTE   W12
 BYTE   N05  Dn3  v052
 BYTE   W06
 BYTE   Dn3  v076
 BYTE   W06
 BYTE   N23  Fs1  v096
 BYTE   W06
 BYTE   N05  Dn3  v052
 BYTE   W06
 BYTE   N03  Dn3  v116
 BYTE   W06
 BYTE   N05  Dn3  v052
 BYTE   W06
 BYTE   N17  Fs1  v096
 BYTE   N01  Dn3  v116
 BYTE   W03
 BYTE   N02  Dn3  v052
 BYTE   W03
 BYTE   N02
 BYTE   W03
 BYTE   Ds3
 BYTE   W03
 BYTE   N05  Dn3
 BYTE   W06
 BYTE   Fs1  v127
 BYTE   N05  Dn3  v052
 BYTE   W06
 BYTE   PEND 
//  #05 //004   ----------------------------------------
Label_0100541D:
 BYTE   N17  Cn1  v096
 BYTE   N05  Dn3  v052
 BYTE   N17  En3  v108
 BYTE   W06
 BYTE   N02  Dn3  v076
 BYTE   W03
 BYTE   Dn3  v052
 BYTE   W03
 BYTE   N05
 BYTE   W06
 BYTE   Cn1  v096
 BYTE   N05  Dn3  v052
 BYTE   N05  En3  v108
 BYTE   W06
 BYTE   N17  En1  v127
 BYTE   N17  Fs1  v096
 BYTE   N11  Dn3  v076
 BYTE   W12
 BYTE   N05  Dn3  v052
 BYTE   W06
 BYTE   As1  v096
 BYTE   N05  Dn3  v076
 BYTE   W06
 BYTE   N23  Fs1  v096
 BYTE   W06
 BYTE   N05  Dn3  v052
 BYTE   W06
 BYTE   N03  Dn3  v116
 BYTE   W06
 BYTE   N05  Dn3  v052
 BYTE   W06
 BYTE   N17  Fs1  v096
 BYTE   N03  Dn3  v116
 BYTE   W06
 BYTE   N05  Dn3  v052
 BYTE   W06
 BYTE   N02
 BYTE   W03
 BYTE   N02
 BYTE   W03
 BYTE   N05  Fs1  v127
 BYTE   N05  Dn3  v052
 BYTE   W06
 BYTE   PEND 
//  #05 //005   ----------------------------------------
 BYTE   PATT
  POIN2 Label_01005316
//  #05 //006   ----------------------------------------
 BYTE   PATT
  POIN2 Label_0100541D
//  #05 //007   ----------------------------------------
Label_0100547E:
 BYTE   N17  Cn1  v096
 BYTE   N17  Fs1
 BYTE   N05  Dn3  v052
 BYTE   N17  En3  v108
 BYTE   W06
 BYTE   N02  Dn3  v076
 BYTE   W03
 BYTE   N02
 BYTE   W03
 BYTE   N05  Dn3  v052
 BYTE   W06
 BYTE   Cn1  v096
 BYTE   N05  Dn3  v052
 BYTE   N05  En3  v108
 BYTE   W06
 BYTE   N23  Fs1  v096
 BYTE   N11  Dn3  v076
 BYTE   W12
 BYTE   N05  Dn3  v052
 BYTE   W06
 BYTE   Dn3  v076
 BYTE   W06
 BYTE   N23  Fs1  v096
 BYTE   W06
 BYTE   N05  Dn3  v052
 BYTE   W06
 BYTE   N03  Dn3  v116
 BYTE   W06
 BYTE   N05  Dn3  v052
 BYTE   W06
 BYTE   N17  Fs1  v096
 BYTE   N01  Dn3  v116
 BYTE   W03
 BYTE   N02  Dn3  v052
 BYTE   W03
 BYTE   N02
 BYTE   W03
 BYTE   Ds3
 BYTE   W03
 BYTE   N05  Dn3
 BYTE   W06
 BYTE   Fs1  v127
 BYTE   N05  Dn3  v052
 BYTE   W06
 BYTE   PEND 
//  #05 //008   ----------------------------------------
 BYTE   PATT
  POIN2 Label_0100541D
//  #05 //009   ----------------------------------------
 BYTE   PATT
  POIN2 Label_01005316
//  #05 //010   ----------------------------------------
 BYTE   PATT
  POIN2 Label_0100536B
//  #05 //011   ----------------------------------------
 BYTE   PATT
  POIN2 Label_010053C5
//  #05 //012   ----------------------------------------
 BYTE   PATT
  POIN2 Label_0100541D
//  #05 //013   ----------------------------------------
 BYTE   PATT
  POIN2 Label_01005316
//  #05 //014   ----------------------------------------
 BYTE   PATT
  POIN2 Label_0100541D
//  #05 //015   ----------------------------------------
 BYTE   PATT
  POIN2 Label_0100547E
//  #05 //016   ----------------------------------------
 BYTE   PATT
  POIN2 Label_0100541D
//  #05 //017   ----------------------------------------
 BYTE   PATT
  POIN2 Label_01005316
//  #05 //018   ----------------------------------------
 BYTE   PATT
  POIN2 Label_0100536B
//  #05 //019   ----------------------------------------
 BYTE   PATT
  POIN2 Label_010053C5
//  #05 //020   ----------------------------------------
 BYTE   PATT
  POIN2 Label_0100541D
//  #05 //021   ----------------------------------------
 BYTE   PATT
  POIN2 Label_01005316
//  #05 //022   ----------------------------------------
 BYTE   PATT
  POIN2 Label_0100541D
//  #05 //023   ----------------------------------------
 BYTE   PATT
  POIN2 Label_0100547E
//  #05 //024   ----------------------------------------
 BYTE   PATT
  POIN2 Label_0100541D
//  #05 //025   ----------------------------------------
 BYTE   PATT
  POIN2 Label_01005316
//  #05 //026   ----------------------------------------
 BYTE   PATT
  POIN2 Label_0100536B
//  #05 //027   ----------------------------------------
 BYTE   PATT
  POIN2 Label_010053C5
//  #05 //028   ----------------------------------------
 BYTE   PATT
  POIN2 Label_0100541D
//  #05 //029   ----------------------------------------
 BYTE   PATT
  POIN2 Label_01005316
//  #05 //030   ----------------------------------------
 BYTE   PATT
  POIN2 Label_0100541D
//  #05 //031   ----------------------------------------
 BYTE   PATT
  POIN2 Label_0100547E
//  #05 //032   ----------------------------------------
 BYTE   PATT
  POIN2 Label_0100541D
//  #05 //033   ----------------------------------------
 BYTE   PATT
  POIN2 Label_01005316
//  #05 //034   ----------------------------------------
 BYTE   PATT
  POIN2 Label_0100536B
//  #05 //035   ----------------------------------------
 BYTE   PATT
  POIN2 Label_010053C5
//  #05 //036   ----------------------------------------
 BYTE   GoTo
  POIN2 Label_010052B6
//  #05 //037   ----------------------------------------
 BYTE   PATT
  POIN2 Label_0100541D
//  #05 //038   ----------------------------------------
 BYTE   PATT
  POIN2 Label_01005316
//  #05 //039   ----------------------------------------
 BYTE   PATT
  POIN2 Label_0100536B
//  #05 //040   ----------------------------------------
 BYTE   PATT
  POIN2 Label_010053C5
//  #05 //041   ----------------------------------------
 BYTE   PATT
  POIN2 Label_0100541D
//  #05 //042   ----------------------------------------
 BYTE   PATT
  POIN2 Label_01005316
//  #05 //043   ----------------------------------------
 BYTE   PATT
  POIN2 Label_0100541D
//  #05 //044   ----------------------------------------
 BYTE   PATT
  POIN2 Label_0100547E
//  #05 //045   ----------------------------------------
 BYTE   PATT
  POIN2 Label_0100541D
//  #05 //046   ----------------------------------------
 BYTE   PATT
  POIN2 Label_01005316
//  #05 //047   ----------------------------------------
 BYTE   PATT
  POIN2 Label_0100536B
//  #05 //048   ----------------------------------------
 BYTE   PATT
  POIN2 Label_010053C5
//  #05 //049   ----------------------------------------
 BYTE   PATT
  POIN2 Label_0100541D
//  #05 //050   ----------------------------------------
 BYTE   PATT
  POIN2 Label_01005316
//  #05 //051   ----------------------------------------
 BYTE   PATT
  POIN2 Label_0100541D
//  #05 //052   ----------------------------------------
 BYTE   PATT
  POIN2 Label_0100547E
//  #05 //053   ----------------------------------------
 BYTE   PATT
  POIN2 Label_0100541D
//  #05 //054   ----------------------------------------
 BYTE   PATT
  POIN2 Label_01005316
//  #05 //055   ----------------------------------------
 BYTE   PATT
  POIN2 Label_0100536B
//  #05 //056   ----------------------------------------
 BYTE   PATT
  POIN2 Label_010053C5
//  #05 //057   ----------------------------------------
 BYTE   PATT
  POIN2 Label_0100541D
//  #05 //058   ----------------------------------------
 BYTE   PATT
  POIN2 Label_01005316
//  #05 //059   ----------------------------------------
 BYTE   PATT
  POIN2 Label_0100541D
//  #05 //060   ----------------------------------------
 BYTE   PATT
  POIN2 Label_0100547E
//  #05 //061   ----------------------------------------
 BYTE   PATT
  POIN2 Label_0100541D
//  #05 //062   ----------------------------------------
 BYTE   PATT
  POIN2 Label_01005316
//  #05 //063   ----------------------------------------
 BYTE   PATT
  POIN2 Label_0100536B
//  #05 //064   ----------------------------------------
 BYTE   PATT
  POIN2 Label_010053C5
//  #05 //065   ----------------------------------------
 BYTE   PATT
  POIN2 Label_0100541D
//  #05 //066   ----------------------------------------
 BYTE   PATT
  POIN2 Label_01005316
//  #05 //067   ----------------------------------------
 BYTE   PATT
  POIN2 Label_0100541D
//  #05 //068   ----------------------------------------
 BYTE   PATT
  POIN2 Label_0100547E
//  #05 //069   ----------------------------------------
 BYTE   PATT
  POIN2 Label_0100541D
//  #05 //070   ----------------------------------------
 BYTE   PATT
  POIN2 Label_01005316
//  #05 //071   ----------------------------------------
 BYTE   PATT
  POIN2 Label_0100536B
//  #05 //072   ----------------------------------------
 BYTE   N17  Cn1  v096
 BYTE   N17  Fs1
 BYTE   N05  Dn3  v052
 BYTE   N17  En3  v108
 BYTE   W06
 BYTE   N02  Dn3  v076
 BYTE   W03
 BYTE   N02
 BYTE   W03
 BYTE   N05  Dn3  v052
 BYTE   W06
 BYTE   Cn1  v096
 BYTE   N05  As1
 BYTE   N05  Dn3  v052
 BYTE   N05  En3  v108
 BYTE   W06
 BYTE   N23  Fs1  v096
 BYTE   N11  Dn3  v076
 BYTE   W12
 BYTE   N05  Dn3  v052
 BYTE   W06
 BYTE   Dn3  v076
 BYTE   W06
 BYTE   N23  Fs1  v096
 BYTE   W06
 BYTE   N05  Dn3  v052
 BYTE   W06
 BYTE   N03  Dn3  v116
 BYTE   W06
 BYTE   N05  Dn3  v052
 BYTE   W06
 BYTE   N17  Fs1  v096
 BYTE   N01  Dn3  v116
 BYTE   W03
 BYTE   N02  Dn3  v052
 BYTE   W03
 BYTE   N02
 BYTE   W03
 BYTE   Ds3
 BYTE   W03
 BYTE   N05  Dn3
 BYTE   W06
 BYTE   Fs1  v127
 BYTE   N05  Dn3  v052
 BYTE   W05
 BYTE   FINE

//******************************************************//
	ALIGN 4

WhenMotherWasThereAlt:
	BYTE	5	// NumTrks
	BYTE	0	// NumBlks
	BYTE	WhenMotherWasThereAlt_pri	// Priority
	BYTE	WhenMotherWasThereAlt_rev	// Reverb.
    
	POIN2	WhenMotherWasThereAlt_grp
    
	POIN2	WhenMotherWasThereAlt_001
	POIN2	WhenMotherWasThereAlt_002
	POIN2	WhenMotherWasThereAlt_003
	POIN2	WhenMotherWasThereAlt_004
	POIN2	WhenMotherWasThereAlt_005

	
