	.include "MPlayDef.s"

	.equ	song04_grp, voicegroup000
	.equ	song04_pri, 0
	.equ	song04_rev, 0
	.equ	song04_mvl, 127
	.equ	song04_key, 0
	.equ	song04_tbs, 1
	.equ	song04_exg, 0
	.equ	song04_cmp, 1

	.section .rodata
	.global	song04
	.align	2


@**************** Track 1 (Midi-Chn.0) ****************@

song04_001:
@  #01 @000   ----------------------------------------
 .byte   KEYSH , song04_key+0
Label_01004F8A:
 .byte   TEMPO , 98*song04_tbs/2
 .byte   VOICE , 4
 .byte   VOL , 43*song04_mvl/mxv
 .byte   PAN , c_v+0
 .byte   W96
@  #01 @001   ----------------------------------------
 .byte   W96
@  #01 @002   ----------------------------------------
 .byte   W96
@  #01 @003   ----------------------------------------
 .byte   W96
@  #01 @004   ----------------------------------------
 .byte   W96
@  #01 @005   ----------------------------------------
 .byte   W96
@  #01 @006   ----------------------------------------
 .byte   W96
@  #01 @007   ----------------------------------------
 .byte   W96
@  #01 @008   ----------------------------------------
 .byte   W96
@  #01 @009   ----------------------------------------
 .byte   W96
@  #01 @010   ----------------------------------------
 .byte   W96
@  #01 @011   ----------------------------------------
 .byte   W96
@  #01 @012   ----------------------------------------
 .byte   W96
@  #01 @013   ----------------------------------------
 .byte   W96
@  #01 @014   ----------------------------------------
 .byte   W96
@  #01 @015   ----------------------------------------
 .byte   W96
@  #01 @016   ----------------------------------------
Label_01004FA2:
 .byte   TIE ,Fn2 ,v096
 .byte   TIE ,An2
 .byte   N32 ,En3
 .byte   W36
 .byte   N23 ,Dn3
 .byte   W24
 .byte   En3
 .byte   W24
 .byte   Gn3
 .byte   W12
 .byte   PEND 
@  #01 @017   ----------------------------------------
Label_01004FB2:
 .byte   W12
 .byte   N68 ,Cn3 ,v096
 .byte   W80
 .byte   W03
 .byte   PEND 
 .byte   EOT
 .byte   Fn2 ,v057
 .byte   W01
@  #01 @018   ----------------------------------------
Label_01004FBD:
 .byte   TIE ,En2 ,v096
 .byte   TIE ,Gn2
 .byte   TIE ,Bn2
 .byte   TIE ,Dn3
 .byte   W96
 .byte   PEND 
@  #01 @019   ----------------------------------------
 .byte   W92
 .byte   W03
 .byte   EOT
 .byte   En2 ,v055
 .byte   Bn2 ,v062
 .byte   W01
@  #01 @020   ----------------------------------------
Label_01004FD0:
 .byte   N80 ,Fs2 ,v096
 .byte   N80 ,An2
 .byte   N32 ,Cs3
 .byte   N32 ,En3
 .byte   W36
 .byte   N23 ,Dn3
 .byte   W24
 .byte   En3
 .byte   W24
 .byte   TIE ,Fn2
 .byte   TIE ,An2
 .byte   N23 ,Gn3
 .byte   W12
 .byte   PEND 
@  #01 @021   ----------------------------------------
 .byte   PATT
  .word Label_01004FB2
@  #01 @022   ----------------------------------------
 .byte   EOT
 .byte   Fn2 ,v057
 .byte   W01
Label_01004FF0:
 .byte   N92 ,En2 ,v096
 .byte   N92 ,Gn2
 .byte   N92 ,Bn2
 .byte   TIE ,Dn3
 .byte   W96
 .byte   PEND 
@  #01 @023   ----------------------------------------
Label_01004FFB:
 .byte   N92 ,Ds2 ,v096
 .byte   N92 ,Gn2
 .byte   N92 ,As2
 .byte   W92
 .byte   W03
 .byte   PEND 
 .byte   EOT
 .byte   Dn3
 .byte   W01
@  #01 @024   ----------------------------------------
 .byte   PATT
  .word Label_01004FA2
@  #01 @025   ----------------------------------------
 .byte   PATT
  .word Label_01004FB2
@  #01 @026   ----------------------------------------
 .byte   EOT
 .byte   Fn2 ,v057
 .byte   W01
@  #01 @027   ----------------------------------------
 .byte   PATT
  .word Label_01004FBD
@  #01 @028   ----------------------------------------
 .byte   W92
 .byte   W03
 .byte   EOT
 .byte   En2 ,v055
 .byte   Bn2 ,v062
 .byte   W01
@  #01 @029   ----------------------------------------
 .byte   PATT
  .word Label_01004FD0
@  #01 @030   ----------------------------------------
 .byte   PATT
  .word Label_01004FB2
@  #01 @031   ----------------------------------------
 .byte   EOT
 .byte   Fn2 ,v057
 .byte   W01
@  #01 @032   ----------------------------------------
 .byte   PATT
  .word Label_01004FF0
@  #01 @033   ----------------------------------------
 .byte   PATT
  .word Label_01004FFB
@  #01 @034   ----------------------------------------
 .byte   EOT
 .byte   Dn3
 .byte   W01
@  #01 @035   ----------------------------------------
 .byte   PATT
  .word Label_01004FA2
@  #01 @036   ----------------------------------------
 .byte   PATT
  .word Label_01004FB2
@  #01 @037   ----------------------------------------
 .byte   EOT
 .byte   Fn2 ,v057
 .byte   W01
 .byte   W96
@  #01 @038   ----------------------------------------
 .byte   W96
@  #01 @039   ----------------------------------------
 .byte   GOTO
  .word Label_01004F8A
@  #01 @040   ----------------------------------------
 .byte   TEMPO , 98*song04_tbs/2
 .byte   W96
@  #01 @041   ----------------------------------------
 .byte   W96
@  #01 @042   ----------------------------------------
 .byte   W96
@  #01 @043   ----------------------------------------
 .byte   W96
@  #01 @044   ----------------------------------------
 .byte   W96
@  #01 @045   ----------------------------------------
 .byte   W96
@  #01 @046   ----------------------------------------
 .byte   W96
@  #01 @047   ----------------------------------------
 .byte   W96
@  #01 @048   ----------------------------------------
 .byte   W96
@  #01 @049   ----------------------------------------
 .byte   W96
@  #01 @050   ----------------------------------------
 .byte   W96
@  #01 @051   ----------------------------------------
 .byte   W96
@  #01 @052   ----------------------------------------
 .byte   W96
@  #01 @053   ----------------------------------------
 .byte   W96
@  #01 @054   ----------------------------------------
 .byte   W96
@  #01 @055   ----------------------------------------
 .byte   W96
@  #01 @056   ----------------------------------------
 .byte   PATT
  .word Label_01004FA2
@  #01 @057   ----------------------------------------
 .byte   PATT
  .word Label_01004FB2
@  #01 @058   ----------------------------------------
 .byte   EOT
 .byte   Fn2 ,v057
 .byte   W01
@  #01 @059   ----------------------------------------
 .byte   PATT
  .word Label_01004FBD
@  #01 @060   ----------------------------------------
 .byte   W92
 .byte   W03
 .byte   EOT
 .byte   En2 ,v055
 .byte   Bn2 ,v062
 .byte   W01
@  #01 @061   ----------------------------------------
 .byte   PATT
  .word Label_01004FD0
@  #01 @062   ----------------------------------------
 .byte   PATT
  .word Label_01004FB2
@  #01 @063   ----------------------------------------
 .byte   EOT
 .byte   Fn2 ,v057
 .byte   W01
@  #01 @064   ----------------------------------------
 .byte   PATT
  .word Label_01004FF0
@  #01 @065   ----------------------------------------
 .byte   PATT
  .word Label_01004FFB
@  #01 @066   ----------------------------------------
 .byte   EOT
 .byte   Dn3
 .byte   W01
@  #01 @067   ----------------------------------------
 .byte   PATT
  .word Label_01004FA2
@  #01 @068   ----------------------------------------
 .byte   PATT
  .word Label_01004FB2
@  #01 @069   ----------------------------------------
 .byte   EOT
 .byte   Fn2 ,v057
 .byte   W01
@  #01 @070   ----------------------------------------
 .byte   PATT
  .word Label_01004FBD
@  #01 @071   ----------------------------------------
 .byte   W92
 .byte   W03
 .byte   EOT
 .byte   En2 ,v055
 .byte   Bn2 ,v062
 .byte   W01
@  #01 @072   ----------------------------------------
 .byte   PATT
  .word Label_01004FD0
@  #01 @073   ----------------------------------------
 .byte   PATT
  .word Label_01004FB2
@  #01 @074   ----------------------------------------
 .byte   EOT
 .byte   Fn2 ,v057
 .byte   W01
@  #01 @075   ----------------------------------------
 .byte   PATT
  .word Label_01004FF0
@  #01 @076   ----------------------------------------
 .byte   PATT
  .word Label_01004FFB
@  #01 @077   ----------------------------------------
 .byte   EOT
 .byte   Dn3
 .byte   W01
@  #01 @078   ----------------------------------------
 .byte   PATT
  .word Label_01004FA2
@  #01 @079   ----------------------------------------
 .byte   PATT
  .word Label_01004FB2
@  #01 @080   ----------------------------------------
 .byte   EOT
 .byte   Fn2 ,v057
 .byte   W01
 .byte   W96
@  #01 @081   ----------------------------------------
 .byte   W92
 .byte   W03
 .byte   FINE

@**************** Track 2 (Midi-Chn.1) ****************@

song04_002:
@  #02 @000   ----------------------------------------
 .byte   KEYSH , song04_key+0
Label_018C757E:
 .byte   VOICE , 74
 .byte   VOL , 43*song04_mvl/mxv
 .byte   PAN , c_v+0
 .byte   W96
@  #02 @001   ----------------------------------------
Label_018C7585:
 .byte   N02 ,Ds4 ,v036
 .byte   W01
 .byte   W01
 .byte   N15 ,En4 ,v040
 .byte   W01
 .byte   W01
 .byte   W01
 .byte   W01
 .byte   W01
 .byte   W01
 .byte   W01
 .byte   W01
 .byte   W01
 .byte   W01
 .byte   W01
 .byte   W01
 .byte   W01
 .byte   W01
 .byte   W01
 .byte   W01
 .byte   N02 ,Ds4 ,v064
 .byte   W01
 .byte   W01
 .byte   N15 ,En4 ,v068
 .byte   W01
 .byte   W01
 .byte   W01
 .byte   W01
 .byte   W01
 .byte   W01
 .byte   W01
 .byte   W01
 .byte   W01
 .byte   W01
 .byte   W01
 .byte   W01
 .byte   W01
 .byte   W01
 .byte   W01
 .byte   W01
 .byte   N02 ,Ds4 ,v096
 .byte   W01
 .byte   W01
 .byte   N09 ,En4
 .byte   W01
 .byte   W01
 .byte   W01
 .byte   W01
 .byte   W01
 .byte   W01
 .byte   W01
 .byte   W01
 .byte   W01
 .byte   W01
 .byte   N02 ,Ds4 ,v084
 .byte   W01
 .byte   W01
 .byte   N15 ,En4
 .byte   W01
 .byte   W01
 .byte   W01
 .byte   W01
 .byte   W01
 .byte   W01
 .byte   W01
 .byte   W01
 .byte   W01
 .byte   W01
 .byte   W01
 .byte   W01
 .byte   W01
 .byte   W01
 .byte   W01
 .byte   W01
 .byte   N02 ,Ds4 ,v068
 .byte   W01
 .byte   W01
 .byte   N15 ,En4 ,v064
 .byte   W01
 .byte   W01
 .byte   W01
 .byte   W01
 .byte   W01
 .byte   W01
 .byte   W01
 .byte   W01
 .byte   W01
 .byte   W01
 .byte   W01
 .byte   W01
 .byte   W01
 .byte   W01
 .byte   W01
 .byte   W01
 .byte   N02 ,Ds4 ,v048
 .byte   W01
 .byte   W01
 .byte   N09 ,En4 ,v044
 .byte   W01
 .byte   W01
 .byte   W01
 .byte   W01
 .byte   W01
 .byte   W01
 .byte   W01
 .byte   W01
 .byte   W01
 .byte   W01
 .byte   PEND 
@  #02 @002   ----------------------------------------
Label_018C7608:
 .byte   N02 ,Ds4 ,v036
 .byte   W02
 .byte   N68 ,En4
 .byte   W02
 .byte   W04
 .byte   W04
 .byte   W04
 .byte   W05
 .byte   W04
 .byte   W04
 .byte   W04
 .byte   W05
 .byte   W04
 .byte   W04
 .byte   W04
 .byte   W05
 .byte   W04
 .byte   W04
 .byte   W04
 .byte   W05
 .byte   W24
 .byte   PEND 
@  #02 @003   ----------------------------------------
 .byte   W96
@  #02 @004   ----------------------------------------
 .byte   W96
@  #02 @005   ----------------------------------------
 .byte   PATT
  .word Label_018C7585
@  #02 @006   ----------------------------------------
 .byte   PATT
  .word Label_018C7608
@  #02 @007   ----------------------------------------
 .byte   W96
@  #02 @008   ----------------------------------------
 .byte   W96
@  #02 @009   ----------------------------------------
 .byte   PATT
  .word Label_018C7585
@  #02 @010   ----------------------------------------
 .byte   PATT
  .word Label_018C7608
@  #02 @011   ----------------------------------------
 .byte   W96
@  #02 @012   ----------------------------------------
 .byte   W96
@  #02 @013   ----------------------------------------
 .byte   PATT
  .word Label_018C7585
@  #02 @014   ----------------------------------------
 .byte   PATT
  .word Label_018C7608
@  #02 @015   ----------------------------------------
 .byte   W96
@  #02 @016   ----------------------------------------
 .byte   W96
@  #02 @017   ----------------------------------------
 .byte   W96
@  #02 @018   ----------------------------------------
 .byte   W96
@  #02 @019   ----------------------------------------
 .byte   W96
@  #02 @020   ----------------------------------------
 .byte   W96
@  #02 @021   ----------------------------------------
 .byte   W96
@  #02 @022   ----------------------------------------
 .byte   W96
@  #02 @023   ----------------------------------------
 .byte   W96
@  #02 @024   ----------------------------------------
 .byte   W96
@  #02 @025   ----------------------------------------
 .byte   W96
@  #02 @026   ----------------------------------------
 .byte   W96
@  #02 @027   ----------------------------------------
 .byte   W96
@  #02 @028   ----------------------------------------
 .byte   W96
@  #02 @029   ----------------------------------------
 .byte   W96
@  #02 @030   ----------------------------------------
 .byte   W96
@  #02 @031   ----------------------------------------
 .byte   W96
@  #02 @032   ----------------------------------------
 .byte   W96
@  #02 @033   ----------------------------------------
 .byte   W96
@  #02 @034   ----------------------------------------
 .byte   W96
@  #02 @035   ----------------------------------------
 .byte   W96
@  #02 @036   ----------------------------------------
 .byte   GOTO
  .word Label_018C757E
@  #02 @037   ----------------------------------------
 .byte   W96
@  #02 @038   ----------------------------------------
 .byte   PATT
  .word Label_018C7585
@  #02 @039   ----------------------------------------
 .byte   PATT
  .word Label_018C7608
@  #02 @040   ----------------------------------------
 .byte   W96
@  #02 @041   ----------------------------------------
 .byte   W96
@  #02 @042   ----------------------------------------
 .byte   PATT
  .word Label_018C7585
@  #02 @043   ----------------------------------------
 .byte   PATT
  .word Label_018C7608
@  #02 @044   ----------------------------------------
 .byte   W96
@  #02 @045   ----------------------------------------
 .byte   W96
@  #02 @046   ----------------------------------------
 .byte   PATT
  .word Label_018C7585
@  #02 @047   ----------------------------------------
 .byte   PATT
  .word Label_018C7608
@  #02 @048   ----------------------------------------
 .byte   W96
@  #02 @049   ----------------------------------------
 .byte   W96
@  #02 @050   ----------------------------------------
 .byte   PATT
  .word Label_018C7585
@  #02 @051   ----------------------------------------
 .byte   PATT
  .word Label_018C7608
@  #02 @052   ----------------------------------------
 .byte   W96
@  #02 @053   ----------------------------------------
 .byte   W96
@  #02 @054   ----------------------------------------
 .byte   W96
@  #02 @055   ----------------------------------------
 .byte   W96
@  #02 @056   ----------------------------------------
 .byte   W96
@  #02 @057   ----------------------------------------
 .byte   W96
@  #02 @058   ----------------------------------------
 .byte   W96
@  #02 @059   ----------------------------------------
 .byte   W96
@  #02 @060   ----------------------------------------
 .byte   W96
@  #02 @061   ----------------------------------------
 .byte   W96
@  #02 @062   ----------------------------------------
 .byte   W96
@  #02 @063   ----------------------------------------
 .byte   W96
@  #02 @064   ----------------------------------------
 .byte   W96
@  #02 @065   ----------------------------------------
 .byte   W96
@  #02 @066   ----------------------------------------
 .byte   W96
@  #02 @067   ----------------------------------------
 .byte   W96
@  #02 @068   ----------------------------------------
 .byte   W96
@  #02 @069   ----------------------------------------
 .byte   W96
@  #02 @070   ----------------------------------------
 .byte   W96
@  #02 @071   ----------------------------------------
 .byte   W96
@  #02 @072   ----------------------------------------
 .byte   W92
 .byte   W03
 .byte   FINE

@**************** Track 3 (Midi-Chn.2) ****************@

song04_003:
@  #03 @000   ----------------------------------------
 .byte   KEYSH , song04_key+0
Label_010050F6:
 .byte   VOICE , 38
 .byte   VOL , 43*song04_mvl/mxv
 .byte   PAN , c_v+0
 .byte   N05 ,An0 ,v112
 .byte   W06
 .byte   An1
 .byte   W06
 .byte   Gn1
 .byte   W06
 .byte   An1
 .byte   W06
 .byte   Cn2
 .byte   W06
 .byte   Bn1
 .byte   W06
 .byte   Gn1
 .byte   W48
 .byte   An0
 .byte   W06
 .byte   N05
 .byte   W06
@  #03 @001   ----------------------------------------
Label_01005110:
 .byte   W54
 .byte   N05 ,An0 ,v112
 .byte   W12
 .byte   N02
 .byte   W06
 .byte   N23 ,Dn1
 .byte   W24
 .byte   PEND 
@  #03 @002   ----------------------------------------
Label_0100511B:
 .byte   N05 ,An0 ,v112
 .byte   W06
 .byte   An1
 .byte   W06
 .byte   Gn1
 .byte   W06
 .byte   An1
 .byte   W06
 .byte   Cn2
 .byte   W06
 .byte   Bn1
 .byte   W06
 .byte   Gn1
 .byte   W48
 .byte   An0
 .byte   W06
 .byte   N05
 .byte   W06
 .byte   PEND 
@  #03 @003   ----------------------------------------
Label_01005130:
 .byte   W42
 .byte   N05 ,An0 ,v112
 .byte   W06
 .byte   Dn2
 .byte   W06
 .byte   Cn2
 .byte   W12
 .byte   Bn1
 .byte   W12
 .byte   N17 ,Gn1
 .byte   W18
 .byte   PEND 
@  #03 @004   ----------------------------------------
 .byte   PATT
  .word Label_0100511B
@  #03 @005   ----------------------------------------
 .byte   PATT
  .word Label_01005110
@  #03 @006   ----------------------------------------
 .byte   PATT
  .word Label_0100511B
@  #03 @007   ----------------------------------------
 .byte   PATT
  .word Label_01005130
@  #03 @008   ----------------------------------------
Label_01005153:
 .byte   N05 ,An0 ,v112
 .byte   W06
 .byte   N05
 .byte   W78
 .byte   N05
 .byte   W06
 .byte   N05
 .byte   W06
 .byte   PEND 
@  #03 @009   ----------------------------------------
 .byte   W96
@  #03 @010   ----------------------------------------
 .byte   PATT
  .word Label_01005153
@  #03 @011   ----------------------------------------
Label_01005164:
 .byte   W48
 .byte   N05 ,An0 ,v112
 .byte   W06
 .byte   Gn0
 .byte   W12
 .byte   An0
 .byte   W12
 .byte   N17 ,Cn1
 .byte   W18
 .byte   PEND 
@  #03 @012   ----------------------------------------
 .byte   PATT
  .word Label_01005153
@  #03 @013   ----------------------------------------
 .byte   W78
 .byte   N17 ,Gn0 ,v112
 .byte   W18
@  #03 @014   ----------------------------------------
 .byte   PATT
  .word Label_01005153
@  #03 @015   ----------------------------------------
 .byte   PATT
  .word Label_01005164
@  #03 @016   ----------------------------------------
 .byte   W96
@  #03 @017   ----------------------------------------
 .byte   W96
@  #03 @018   ----------------------------------------
 .byte   W96
@  #03 @019   ----------------------------------------
 .byte   W96
@  #03 @020   ----------------------------------------
 .byte   W96
@  #03 @021   ----------------------------------------
 .byte   W96
@  #03 @022   ----------------------------------------
 .byte   W96
@  #03 @023   ----------------------------------------
Label_0100518C:
 .byte   W78
 .byte   N05 ,An0 ,v112
 .byte   W06
 .byte   Cn1
 .byte   W06
 .byte   An0
 .byte   W06
 .byte   PEND 
@  #03 @024   ----------------------------------------
Label_01005196:
 .byte   N11 ,An1 ,v112
 .byte   W12
 .byte   N05
 .byte   W06
 .byte   Gn1
 .byte   W12
 .byte   An1
 .byte   W12
 .byte   N11 ,Dn1
 .byte   W12
 .byte   N05
 .byte   W06
 .byte   Cn1
 .byte   W36
 .byte   PEND 
@  #03 @025   ----------------------------------------
Label_010051A8:
 .byte   W24
 .byte   N05 ,Cn1 ,v112
 .byte   W06
 .byte   Dn1
 .byte   W12
 .byte   N05
 .byte   W12
 .byte   An0
 .byte   W12
 .byte   N05
 .byte   W06
 .byte   N23 ,Gn0
 .byte   W24
 .byte   PEND 
@  #03 @026   ----------------------------------------
 .byte   W96
@  #03 @027   ----------------------------------------
Label_010051BA:
 .byte   W24
 .byte   N05 ,An1 ,v112
 .byte   W06
 .byte   En1
 .byte   W06
 .byte   An1
 .byte   W06
 .byte   Bn1
 .byte   W06
 .byte   N11 ,Cn2
 .byte   W12
 .byte   N05 ,Dn2
 .byte   W06
 .byte   En2
 .byte   W12
 .byte   N11 ,An1
 .byte   W12
 .byte   N05 ,An0
 .byte   W06
 .byte   PEND 
@  #03 @028   ----------------------------------------
Label_010051D4:
 .byte   N17 ,Fs0 ,v112
 .byte   W18
 .byte   N05 ,Fs1
 .byte   W06
 .byte   Cs2
 .byte   W06
 .byte   Dn2
 .byte   W06
 .byte   Cs2
 .byte   W06
 .byte   An1
 .byte   W06
 .byte   N17 ,Fs1
 .byte   W18
 .byte   N05
 .byte   W18
 .byte   N52 ,Fn1
 .byte   W12
 .byte   PEND 
@  #03 @029   ----------------------------------------
Label_010051EC:
 .byte   W42
 .byte   N05 ,En1 ,v112
 .byte   W06
 .byte   Fn1
 .byte   W06
 .byte   Gn1
 .byte   W12
 .byte   N23 ,Fn1
 .byte   W30
 .byte   PEND 
@  #03 @030   ----------------------------------------
Label_010051F9:
 .byte   N32 ,En0 ,v112
 .byte   W36
 .byte   N11 ,En1
 .byte   W12
 .byte   N17 ,Dn2
 .byte   W18
 .byte   N23 ,En2
 .byte   W30
 .byte   PEND 
@  #03 @031   ----------------------------------------
Label_01005207:
 .byte   N44 ,Ds0 ,v112
 .byte   W48
 .byte   N17 ,Dn2
 .byte   W18
 .byte   N23 ,Ds2
 .byte   W30
 .byte   PEND 
@  #03 @032   ----------------------------------------
 .byte   N92 ,Dn1
 .byte   W96
@  #03 @033   ----------------------------------------
 .byte   W96
@  #03 @034   ----------------------------------------
 .byte   W96
@  #03 @035   ----------------------------------------
 .byte   W96
@  #03 @036   ----------------------------------------
 .byte   GOTO
  .word Label_010050F6
@  #03 @037   ----------------------------------------
 .byte   PATT
  .word Label_0100511B
@  #03 @038   ----------------------------------------
 .byte   PATT
  .word Label_01005110
@  #03 @039   ----------------------------------------
 .byte   PATT
  .word Label_0100511B
@  #03 @040   ----------------------------------------
 .byte   PATT
  .word Label_01005130
@  #03 @041   ----------------------------------------
 .byte   PATT
  .word Label_0100511B
@  #03 @042   ----------------------------------------
 .byte   PATT
  .word Label_01005110
@  #03 @043   ----------------------------------------
 .byte   PATT
  .word Label_0100511B
@  #03 @044   ----------------------------------------
 .byte   PATT
  .word Label_01005130
@  #03 @045   ----------------------------------------
 .byte   PATT
  .word Label_01005153
@  #03 @046   ----------------------------------------
 .byte   W96
@  #03 @047   ----------------------------------------
 .byte   PATT
  .word Label_01005153
@  #03 @048   ----------------------------------------
 .byte   PATT
  .word Label_01005164
@  #03 @049   ----------------------------------------
 .byte   PATT
  .word Label_01005153
@  #03 @050   ----------------------------------------
 .byte   W78
 .byte   N17 ,Gn0 ,v112
 .byte   W18
@  #03 @051   ----------------------------------------
 .byte   PATT
  .word Label_01005153
@  #03 @052   ----------------------------------------
 .byte   PATT
  .word Label_01005164
@  #03 @053   ----------------------------------------
 .byte   W96
@  #03 @054   ----------------------------------------
 .byte   W96
@  #03 @055   ----------------------------------------
 .byte   W96
@  #03 @056   ----------------------------------------
 .byte   W96
@  #03 @057   ----------------------------------------
 .byte   W96
@  #03 @058   ----------------------------------------
 .byte   W96
@  #03 @059   ----------------------------------------
 .byte   W96
@  #03 @060   ----------------------------------------
 .byte   PATT
  .word Label_0100518C
@  #03 @061   ----------------------------------------
 .byte   PATT
  .word Label_01005196
@  #03 @062   ----------------------------------------
 .byte   PATT
  .word Label_010051A8
@  #03 @063   ----------------------------------------
 .byte   W96
@  #03 @064   ----------------------------------------
 .byte   PATT
  .word Label_010051BA
@  #03 @065   ----------------------------------------
 .byte   PATT
  .word Label_010051D4
@  #03 @066   ----------------------------------------
 .byte   PATT
  .word Label_010051EC
@  #03 @067   ----------------------------------------
 .byte   PATT
  .word Label_010051F9
@  #03 @068   ----------------------------------------
 .byte   PATT
  .word Label_01005207
@  #03 @069   ----------------------------------------
 .byte   N92 ,Dn1 ,v112
 .byte   W96
@  #03 @070   ----------------------------------------
 .byte   W96
@  #03 @071   ----------------------------------------
 .byte   W96
@  #03 @072   ----------------------------------------
 .byte   W92
 .byte   W03
 .byte   FINE

@**************** Track 4 (Midi-Chn.3) ****************@

song04_004:
@  #04 @000   ----------------------------------------
 .byte   KEYSH , song04_key+0
Label_018C7112:
 .byte   VOICE , 89
 .byte   VOL , 43*song04_mvl/mxv
 .byte   PAN , c_v+0
 .byte   W24
 .byte   TIE ,An2 ,v127
 .byte   W72
@  #04 @001   ----------------------------------------
Label_018C711D:
 .byte   TIE ,An1 ,v004
 .byte   W96
 .byte   PEND 
@  #04 @002   ----------------------------------------
 .byte   W96
@  #04 @003   ----------------------------------------
 .byte   W23
 .byte   EOT
 .byte   EOT
 .byte   An2
 .byte   W01
 .byte   TIE ,An2 ,v064
 .byte   TIE ,En3 ,v127
 .byte   W72
@  #04 @004   ----------------------------------------
 .byte   W96
@  #04 @005   ----------------------------------------
 .byte   W96
@  #04 @006   ----------------------------------------
 .byte   W96
@  #04 @007   ----------------------------------------
Label_018C7132:
 .byte   W92
 .byte   W03
 .byte   PEND 
 .byte   EOT
 .byte   An2 ,v064
 .byte   W01
@  #04 @008   ----------------------------------------
Label_018C7139:
 .byte   TIE ,An0 ,v064
 .byte   TIE ,An1
 .byte   W96
 .byte   PEND 
@  #04 @009   ----------------------------------------
 .byte   W96
@  #04 @010   ----------------------------------------
 .byte   W96
@  #04 @011   ----------------------------------------
Label_018C7142:
 .byte   TIE ,Gn3 ,v064
 .byte   W96
 .byte   PEND 
@  #04 @012   ----------------------------------------
 .byte   W96
@  #04 @013   ----------------------------------------
 .byte   W96
@  #04 @014   ----------------------------------------
Label_018C7149:
 .byte   W06
 .byte   W06
 .byte   W06
 .byte   W06
 .byte   W07
 .byte   W06
 .byte   W06
 .byte   W06
 .byte   W06
 .byte   W06
 .byte   W07
 .byte   W06
 .byte   W06
 .byte   W06
 .byte   W06
 .byte   W04
 .byte   PEND 
@  #04 @015   ----------------------------------------
Label_018C715A:
 .byte   W03
 .byte   W06
 .byte   W06
 .byte   W06
 .byte   W06
 .byte   W07
 .byte   W06
 .byte   W06
 .byte   W06
 .byte   W06
 .byte   W07
 .byte   W06
 .byte   W06
 .byte   W06
 .byte   W06
 .byte   W06
 .byte   PEND 
 .byte   EOT
 .byte   An0 ,v045
 .byte   Gn3
 .byte   W01
@  #04 @016   ----------------------------------------
 .byte   W96
@  #04 @017   ----------------------------------------
 .byte   W96
@  #04 @018   ----------------------------------------
 .byte   W96
@  #04 @019   ----------------------------------------
 .byte   W96
@  #04 @020   ----------------------------------------
 .byte   W96
@  #04 @021   ----------------------------------------
 .byte   W96
@  #04 @022   ----------------------------------------
 .byte   W96
@  #04 @023   ----------------------------------------
 .byte   W96
@  #04 @024   ----------------------------------------
 .byte   W96
@  #04 @025   ----------------------------------------
 .byte   W96
@  #04 @026   ----------------------------------------
 .byte   W96
@  #04 @027   ----------------------------------------
 .byte   W96
@  #04 @028   ----------------------------------------
 .byte   W96
@  #04 @029   ----------------------------------------
 .byte   W96
@  #04 @030   ----------------------------------------
 .byte   W96
@  #04 @031   ----------------------------------------
 .byte   W96
@  #04 @032   ----------------------------------------
 .byte   W96
@  #04 @033   ----------------------------------------
 .byte   W96
@  #04 @034   ----------------------------------------
 .byte   W96
@  #04 @035   ----------------------------------------
 .byte   W96
@  #04 @036   ----------------------------------------
 .byte   GOTO
  .word Label_018C7112
@  #04 @037   ----------------------------------------
 .byte   W24
 .byte   TIE ,An2 ,v127
 .byte   W72
@  #04 @038   ----------------------------------------
 .byte   PATT
  .word Label_018C711D
@  #04 @039   ----------------------------------------
 .byte   W96
@  #04 @040   ----------------------------------------
 .byte   W23
 .byte   EOT
 .byte   An1 ,v057
 .byte   W01
 .byte   TIE ,An2 ,v064
 .byte   TIE ,En3 ,v127
 .byte   W72
@  #04 @041   ----------------------------------------
 .byte   W96
@  #04 @042   ----------------------------------------
 .byte   W96
@  #04 @043   ----------------------------------------
 .byte   W96
@  #04 @044   ----------------------------------------
 .byte   PATT
  .word Label_018C7132
@  #04 @045   ----------------------------------------
 .byte   EOT
 .byte   An2 ,v064
 .byte   W01
@  #04 @046   ----------------------------------------
 .byte   PATT
  .word Label_018C7139
@  #04 @047   ----------------------------------------
 .byte   W96
@  #04 @048   ----------------------------------------
 .byte   W96
@  #04 @049   ----------------------------------------
 .byte   PATT
  .word Label_018C7142
@  #04 @050   ----------------------------------------
 .byte   W96
@  #04 @051   ----------------------------------------
 .byte   W96
@  #04 @052   ----------------------------------------
 .byte   PATT
  .word Label_018C7149
@  #04 @053   ----------------------------------------
 .byte   PATT
  .word Label_018C715A
@  #04 @054   ----------------------------------------
 .byte   EOT
 .byte   An0 ,v045
 .byte   Gn3
 .byte   W01
 .byte   W96
@  #04 @055   ----------------------------------------
 .byte   W96
@  #04 @056   ----------------------------------------
 .byte   W96
@  #04 @057   ----------------------------------------
 .byte   W96
@  #04 @058   ----------------------------------------
 .byte   W96
@  #04 @059   ----------------------------------------
 .byte   W96
@  #04 @060   ----------------------------------------
 .byte   W96
@  #04 @061   ----------------------------------------
 .byte   W96
@  #04 @062   ----------------------------------------
 .byte   W96
@  #04 @063   ----------------------------------------
 .byte   W96
@  #04 @064   ----------------------------------------
 .byte   W96
@  #04 @065   ----------------------------------------
 .byte   W96
@  #04 @066   ----------------------------------------
 .byte   W96
@  #04 @067   ----------------------------------------
 .byte   W96
@  #04 @068   ----------------------------------------
 .byte   W96
@  #04 @069   ----------------------------------------
 .byte   W96
@  #04 @070   ----------------------------------------
 .byte   W96
@  #04 @071   ----------------------------------------
 .byte   W96
@  #04 @072   ----------------------------------------
 .byte   W96
@  #04 @073   ----------------------------------------
 .byte   W92
 .byte   W03
 .byte   FINE

@**************** Track 5 (Midi-Chn.4) ****************@

song04_005:
@  #05 @000   ----------------------------------------
 .byte   KEYSH , song04_key+0
Label_010052B6:
 .byte   VOICE , 124
 .byte   VOL , 43*song04_mvl/mxv
 .byte   PAN , c_v+0
 .byte   VOL , 43*song04_mvl/mxv
 .byte   PAN , c_v+0
 .byte   N17 ,Cn1 ,v096
 .byte   N05 ,Dn3 ,v052
 .byte   N17 ,En3 ,v108
 .byte   W06
 .byte   N02 ,Dn3 ,v076
 .byte   W03
 .byte   Dn3 ,v052
 .byte   W03
 .byte   N05
 .byte   W06
 .byte   Cn1 ,v096
 .byte   N05 ,Dn3 ,v052
 .byte   N05 ,En3 ,v108
 .byte   W06
 .byte   N17 ,En1 ,v127
 .byte   N17 ,Fs1 ,v096
 .byte   N11 ,Dn3 ,v076
 .byte   W12
 .byte   N05 ,Dn3 ,v052
 .byte   W06
 .byte   As1 ,v096
 .byte   N05 ,Dn3 ,v076
 .byte   W06
 .byte   N23 ,Fs1 ,v096
 .byte   W06
 .byte   N05 ,Dn3 ,v052
 .byte   W06
 .byte   N03 ,Dn3 ,v116
 .byte   W06
 .byte   N05 ,Dn3 ,v052
 .byte   W06
 .byte   N17 ,Fs1 ,v096
 .byte   N03 ,Dn3 ,v116
 .byte   W06
 .byte   N05 ,Dn3 ,v052
 .byte   W06
 .byte   N02
 .byte   W03
 .byte   N02
 .byte   W03
 .byte   N05 ,Fs1 ,v127
 .byte   N05 ,Dn3 ,v052
 .byte   W06
@  #05 @001   ----------------------------------------
Label_01005316:
 .byte   N17 ,Cn1 ,v096
 .byte   N17 ,Fs1
 .byte   N05 ,Dn3 ,v052
 .byte   N17 ,En3 ,v108
 .byte   W06
 .byte   N02 ,Dn3 ,v076
 .byte   W03
 .byte   Dn3 ,v052
 .byte   W03
 .byte   N05
 .byte   W06
 .byte   Cn1 ,v096
 .byte   N05 ,Dn3 ,v052
 .byte   N05 ,En3 ,v108
 .byte   W06
 .byte   N23 ,Fs1 ,v096
 .byte   N11 ,Dn3 ,v076
 .byte   W12
 .byte   N05 ,Dn3 ,v052
 .byte   W06
 .byte   Dn3 ,v076
 .byte   W06
 .byte   N23 ,Fs1 ,v096
 .byte   W06
 .byte   N05 ,Dn3 ,v052
 .byte   W06
 .byte   N03 ,Dn3 ,v116
 .byte   W06
 .byte   N05 ,Dn3 ,v052
 .byte   W06
 .byte   N17 ,Fs1 ,v096
 .byte   N01 ,Dn3 ,v116
 .byte   W03
 .byte   N02 ,Dn3 ,v052
 .byte   W03
 .byte   N02
 .byte   W03
 .byte   Ds3
 .byte   W03
 .byte   N05 ,Dn3
 .byte   W06
 .byte   Fs1 ,v127
 .byte   N05 ,Dn3 ,v052
 .byte   W06
 .byte   PEND 
@  #05 @002   ----------------------------------------
Label_0100536B:
 .byte   N17 ,Cn1 ,v096
 .byte   N05 ,Dn3 ,v052
 .byte   N17 ,En3 ,v108
 .byte   W06
 .byte   N02 ,Dn3 ,v076
 .byte   W03
 .byte   Dn3 ,v052
 .byte   W03
 .byte   N05
 .byte   W06
 .byte   Cn1 ,v096
 .byte   N05 ,Dn3 ,v052
 .byte   N05 ,En3 ,v108
 .byte   W06
 .byte   N11 ,En1 ,v127
 .byte   N11 ,Fs1 ,v096
 .byte   N11 ,Dn3 ,v076
 .byte   W12
 .byte   N05 ,As1 ,v096
 .byte   N05 ,Dn3 ,v052
 .byte   W06
 .byte   As1 ,v096
 .byte   N05 ,Dn3 ,v076
 .byte   W06
 .byte   N23 ,Fs1 ,v096
 .byte   W06
 .byte   N05 ,Dn3 ,v052
 .byte   W06
 .byte   N03 ,Dn3 ,v116
 .byte   W06
 .byte   N05 ,Dn3 ,v052
 .byte   W06
 .byte   N17 ,Fs1 ,v096
 .byte   N03 ,Dn3 ,v116
 .byte   W06
 .byte   N05 ,Dn3 ,v052
 .byte   W06
 .byte   N02
 .byte   W03
 .byte   N02
 .byte   W03
 .byte   N05 ,Fs1 ,v127
 .byte   N05 ,Dn3 ,v052
 .byte   W06
 .byte   PEND 
@  #05 @003   ----------------------------------------
Label_010053C5:
 .byte   N17 ,Cn1 ,v096
 .byte   N17 ,Fs1
 .byte   N05 ,Dn3 ,v052
 .byte   N17 ,En3 ,v108
 .byte   W06
 .byte   N02 ,Dn3 ,v076
 .byte   W03
 .byte   N02
 .byte   W03
 .byte   N05 ,Dn3 ,v052
 .byte   W06
 .byte   Cn1 ,v096
 .byte   N05 ,As1
 .byte   N05 ,Dn3 ,v052
 .byte   N05 ,En3 ,v108
 .byte   W06
 .byte   N23 ,Fs1 ,v096
 .byte   N11 ,Dn3 ,v076
 .byte   W12
 .byte   N05 ,Dn3 ,v052
 .byte   W06
 .byte   Dn3 ,v076
 .byte   W06
 .byte   N23 ,Fs1 ,v096
 .byte   W06
 .byte   N05 ,Dn3 ,v052
 .byte   W06
 .byte   N03 ,Dn3 ,v116
 .byte   W06
 .byte   N05 ,Dn3 ,v052
 .byte   W06
 .byte   N17 ,Fs1 ,v096
 .byte   N01 ,Dn3 ,v116
 .byte   W03
 .byte   N02 ,Dn3 ,v052
 .byte   W03
 .byte   N02
 .byte   W03
 .byte   Ds3
 .byte   W03
 .byte   N05 ,Dn3
 .byte   W06
 .byte   Fs1 ,v127
 .byte   N05 ,Dn3 ,v052
 .byte   W06
 .byte   PEND 
@  #05 @004   ----------------------------------------
Label_0100541D:
 .byte   N17 ,Cn1 ,v096
 .byte   N05 ,Dn3 ,v052
 .byte   N17 ,En3 ,v108
 .byte   W06
 .byte   N02 ,Dn3 ,v076
 .byte   W03
 .byte   Dn3 ,v052
 .byte   W03
 .byte   N05
 .byte   W06
 .byte   Cn1 ,v096
 .byte   N05 ,Dn3 ,v052
 .byte   N05 ,En3 ,v108
 .byte   W06
 .byte   N17 ,En1 ,v127
 .byte   N17 ,Fs1 ,v096
 .byte   N11 ,Dn3 ,v076
 .byte   W12
 .byte   N05 ,Dn3 ,v052
 .byte   W06
 .byte   As1 ,v096
 .byte   N05 ,Dn3 ,v076
 .byte   W06
 .byte   N23 ,Fs1 ,v096
 .byte   W06
 .byte   N05 ,Dn3 ,v052
 .byte   W06
 .byte   N03 ,Dn3 ,v116
 .byte   W06
 .byte   N05 ,Dn3 ,v052
 .byte   W06
 .byte   N17 ,Fs1 ,v096
 .byte   N03 ,Dn3 ,v116
 .byte   W06
 .byte   N05 ,Dn3 ,v052
 .byte   W06
 .byte   N02
 .byte   W03
 .byte   N02
 .byte   W03
 .byte   N05 ,Fs1 ,v127
 .byte   N05 ,Dn3 ,v052
 .byte   W06
 .byte   PEND 
@  #05 @005   ----------------------------------------
 .byte   PATT
  .word Label_01005316
@  #05 @006   ----------------------------------------
 .byte   PATT
  .word Label_0100541D
@  #05 @007   ----------------------------------------
Label_0100547E:
 .byte   N17 ,Cn1 ,v096
 .byte   N17 ,Fs1
 .byte   N05 ,Dn3 ,v052
 .byte   N17 ,En3 ,v108
 .byte   W06
 .byte   N02 ,Dn3 ,v076
 .byte   W03
 .byte   N02
 .byte   W03
 .byte   N05 ,Dn3 ,v052
 .byte   W06
 .byte   Cn1 ,v096
 .byte   N05 ,Dn3 ,v052
 .byte   N05 ,En3 ,v108
 .byte   W06
 .byte   N23 ,Fs1 ,v096
 .byte   N11 ,Dn3 ,v076
 .byte   W12
 .byte   N05 ,Dn3 ,v052
 .byte   W06
 .byte   Dn3 ,v076
 .byte   W06
 .byte   N23 ,Fs1 ,v096
 .byte   W06
 .byte   N05 ,Dn3 ,v052
 .byte   W06
 .byte   N03 ,Dn3 ,v116
 .byte   W06
 .byte   N05 ,Dn3 ,v052
 .byte   W06
 .byte   N17 ,Fs1 ,v096
 .byte   N01 ,Dn3 ,v116
 .byte   W03
 .byte   N02 ,Dn3 ,v052
 .byte   W03
 .byte   N02
 .byte   W03
 .byte   Ds3
 .byte   W03
 .byte   N05 ,Dn3
 .byte   W06
 .byte   Fs1 ,v127
 .byte   N05 ,Dn3 ,v052
 .byte   W06
 .byte   PEND 
@  #05 @008   ----------------------------------------
 .byte   PATT
  .word Label_0100541D
@  #05 @009   ----------------------------------------
 .byte   PATT
  .word Label_01005316
@  #05 @010   ----------------------------------------
 .byte   PATT
  .word Label_0100536B
@  #05 @011   ----------------------------------------
 .byte   PATT
  .word Label_010053C5
@  #05 @012   ----------------------------------------
 .byte   PATT
  .word Label_0100541D
@  #05 @013   ----------------------------------------
 .byte   PATT
  .word Label_01005316
@  #05 @014   ----------------------------------------
 .byte   PATT
  .word Label_0100541D
@  #05 @015   ----------------------------------------
 .byte   PATT
  .word Label_0100547E
@  #05 @016   ----------------------------------------
 .byte   PATT
  .word Label_0100541D
@  #05 @017   ----------------------------------------
 .byte   PATT
  .word Label_01005316
@  #05 @018   ----------------------------------------
 .byte   PATT
  .word Label_0100536B
@  #05 @019   ----------------------------------------
 .byte   PATT
  .word Label_010053C5
@  #05 @020   ----------------------------------------
 .byte   PATT
  .word Label_0100541D
@  #05 @021   ----------------------------------------
 .byte   PATT
  .word Label_01005316
@  #05 @022   ----------------------------------------
 .byte   PATT
  .word Label_0100541D
@  #05 @023   ----------------------------------------
 .byte   PATT
  .word Label_0100547E
@  #05 @024   ----------------------------------------
 .byte   PATT
  .word Label_0100541D
@  #05 @025   ----------------------------------------
 .byte   PATT
  .word Label_01005316
@  #05 @026   ----------------------------------------
 .byte   PATT
  .word Label_0100536B
@  #05 @027   ----------------------------------------
 .byte   PATT
  .word Label_010053C5
@  #05 @028   ----------------------------------------
 .byte   PATT
  .word Label_0100541D
@  #05 @029   ----------------------------------------
 .byte   PATT
  .word Label_01005316
@  #05 @030   ----------------------------------------
 .byte   PATT
  .word Label_0100541D
@  #05 @031   ----------------------------------------
 .byte   PATT
  .word Label_0100547E
@  #05 @032   ----------------------------------------
 .byte   PATT
  .word Label_0100541D
@  #05 @033   ----------------------------------------
 .byte   PATT
  .word Label_01005316
@  #05 @034   ----------------------------------------
 .byte   PATT
  .word Label_0100536B
@  #05 @035   ----------------------------------------
 .byte   PATT
  .word Label_010053C5
@  #05 @036   ----------------------------------------
 .byte   GOTO
  .word Label_010052B6
@  #05 @037   ----------------------------------------
 .byte   PATT
  .word Label_0100541D
@  #05 @038   ----------------------------------------
 .byte   PATT
  .word Label_01005316
@  #05 @039   ----------------------------------------
 .byte   PATT
  .word Label_0100536B
@  #05 @040   ----------------------------------------
 .byte   PATT
  .word Label_010053C5
@  #05 @041   ----------------------------------------
 .byte   PATT
  .word Label_0100541D
@  #05 @042   ----------------------------------------
 .byte   PATT
  .word Label_01005316
@  #05 @043   ----------------------------------------
 .byte   PATT
  .word Label_0100541D
@  #05 @044   ----------------------------------------
 .byte   PATT
  .word Label_0100547E
@  #05 @045   ----------------------------------------
 .byte   PATT
  .word Label_0100541D
@  #05 @046   ----------------------------------------
 .byte   PATT
  .word Label_01005316
@  #05 @047   ----------------------------------------
 .byte   PATT
  .word Label_0100536B
@  #05 @048   ----------------------------------------
 .byte   PATT
  .word Label_010053C5
@  #05 @049   ----------------------------------------
 .byte   PATT
  .word Label_0100541D
@  #05 @050   ----------------------------------------
 .byte   PATT
  .word Label_01005316
@  #05 @051   ----------------------------------------
 .byte   PATT
  .word Label_0100541D
@  #05 @052   ----------------------------------------
 .byte   PATT
  .word Label_0100547E
@  #05 @053   ----------------------------------------
 .byte   PATT
  .word Label_0100541D
@  #05 @054   ----------------------------------------
 .byte   PATT
  .word Label_01005316
@  #05 @055   ----------------------------------------
 .byte   PATT
  .word Label_0100536B
@  #05 @056   ----------------------------------------
 .byte   PATT
  .word Label_010053C5
@  #05 @057   ----------------------------------------
 .byte   PATT
  .word Label_0100541D
@  #05 @058   ----------------------------------------
 .byte   PATT
  .word Label_01005316
@  #05 @059   ----------------------------------------
 .byte   PATT
  .word Label_0100541D
@  #05 @060   ----------------------------------------
 .byte   PATT
  .word Label_0100547E
@  #05 @061   ----------------------------------------
 .byte   PATT
  .word Label_0100541D
@  #05 @062   ----------------------------------------
 .byte   PATT
  .word Label_01005316
@  #05 @063   ----------------------------------------
 .byte   PATT
  .word Label_0100536B
@  #05 @064   ----------------------------------------
 .byte   PATT
  .word Label_010053C5
@  #05 @065   ----------------------------------------
 .byte   PATT
  .word Label_0100541D
@  #05 @066   ----------------------------------------
 .byte   PATT
  .word Label_01005316
@  #05 @067   ----------------------------------------
 .byte   PATT
  .word Label_0100541D
@  #05 @068   ----------------------------------------
 .byte   PATT
  .word Label_0100547E
@  #05 @069   ----------------------------------------
 .byte   PATT
  .word Label_0100541D
@  #05 @070   ----------------------------------------
 .byte   PATT
  .word Label_01005316
@  #05 @071   ----------------------------------------
 .byte   PATT
  .word Label_0100536B
@  #05 @072   ----------------------------------------
 .byte   N17 ,Cn1 ,v096
 .byte   N17 ,Fs1
 .byte   N05 ,Dn3 ,v052
 .byte   N17 ,En3 ,v108
 .byte   W06
 .byte   N02 ,Dn3 ,v076
 .byte   W03
 .byte   N02
 .byte   W03
 .byte   N05 ,Dn3 ,v052
 .byte   W06
 .byte   Cn1 ,v096
 .byte   N05 ,As1
 .byte   N05 ,Dn3 ,v052
 .byte   N05 ,En3 ,v108
 .byte   W06
 .byte   N23 ,Fs1 ,v096
 .byte   N11 ,Dn3 ,v076
 .byte   W12
 .byte   N05 ,Dn3 ,v052
 .byte   W06
 .byte   Dn3 ,v076
 .byte   W06
 .byte   N23 ,Fs1 ,v096
 .byte   W06
 .byte   N05 ,Dn3 ,v052
 .byte   W06
 .byte   N03 ,Dn3 ,v116
 .byte   W06
 .byte   N05 ,Dn3 ,v052
 .byte   W06
 .byte   N17 ,Fs1 ,v096
 .byte   N01 ,Dn3 ,v116
 .byte   W03
 .byte   N02 ,Dn3 ,v052
 .byte   W03
 .byte   N02
 .byte   W03
 .byte   Ds3
 .byte   W03
 .byte   N05 ,Dn3
 .byte   W06
 .byte   Fs1 ,v127
 .byte   N05 ,Dn3 ,v052
 .byte   W05
 .byte   FINE

@******************************************************@
	.align	2

song04:
	.byte	5	@ NumTrks
	.byte	0	@ NumBlks
	.byte	song04_pri	@ Priority
	.byte	song04_rev	@ Reverb.
    
	.word	song04_grp
    
	.word	song04_001
	.word	song04_002
	.word	song04_003
	.word	song04_004
	.word	song04_005

	.end
