	.include "MPlayDef.s"

	.equ	song04_grp, voicegroup000
	.equ	song04_pri, 0
	.equ	song04_rev, 0
	.equ	song04_mvl, 127
	.equ	song04_key, 0
	.equ	song04_tbs, 1
	.equ	song04_exg, 0
	.equ	song04_cmp, 1

	.section .rodata
	.global	song04
	.align	2


@**************** Track 1 (Midi-Chn.0) ****************@

song04_001:
@  #01 @000   ----------------------------------------
 .byte   KEYSH , song04_key+0
 .byte   TEMPO , 142*song04_tbs/2
 .byte   VOICE , 4
 .byte   VOL , 38*song04_mvl/mxv
 .byte   PAN , c_v+0
 .byte   VOL , 51*song04_mvl/mxv
 .byte   PAN , c_v+0
 .byte   W96
@  #01 @001   ----------------------------------------
 .byte   W96
@  #01 @002   ----------------------------------------
 .byte   W96
@  #01 @003   ----------------------------------------
 .byte   W96
@  #01 @004   ----------------------------------------
 .byte   W96
@  #01 @005   ----------------------------------------
 .byte   W96
@  #01 @006   ----------------------------------------
 .byte   W96
@  #01 @007   ----------------------------------------
 .byte   W96
@  #01 @008   ----------------------------------------
 .byte   W96
@  #01 @009   ----------------------------------------
 .byte   W96
@  #01 @010   ----------------------------------------
 .byte   W96
@  #01 @011   ----------------------------------------
 .byte   W96
@  #01 @012   ----------------------------------------
 .byte   W96
@  #01 @013   ----------------------------------------
 .byte   W96
@  #01 @014   ----------------------------------------
 .byte   W96
@  #01 @015   ----------------------------------------
 .byte   W84
 .byte   N11 ,Gn2 ,v096
 .byte   W12
@  #01 @016   ----------------------------------------
Label_01407B3E:
 .byte   N11 ,Dn3 ,v096
 .byte   W36
 .byte   N11
 .byte   W12
 .byte   N17 ,Cn3
 .byte   W18
 .byte   N17
 .byte   W18
 .byte   N23 ,As2
 .byte   W12
 .byte   PEND 
@  #01 @017   ----------------------------------------
Label_01407B4D:
 .byte   W36
 .byte   N11 ,As2 ,v096
 .byte   W12
 .byte   N17 ,An2
 .byte   W18
 .byte   N17
 .byte   W18
 .byte   N23 ,Gn2
 .byte   W12
 .byte   PEND 
@  #01 @018   ----------------------------------------
 .byte   W96
@  #01 @019   ----------------------------------------
 .byte   W72
 .byte   N23
 .byte   W24
@  #01 @020   ----------------------------------------
Label_01407B5F:
 .byte   N17 ,Dn3 ,v096
 .byte   W18
 .byte   N05 ,Fn3
 .byte   W18
 .byte   N11 ,Cn3
 .byte   W36
 .byte   N23
 .byte   W24
 .byte   PEND 
@  #01 @021   ----------------------------------------
Label_01407B6C:
 .byte   N17 ,As2 ,v096
 .byte   W18
 .byte   N05 ,Dn3
 .byte   W18
 .byte   N11 ,An2
 .byte   W36
 .byte   N23
 .byte   W24
 .byte   PEND 
@  #01 @022   ----------------------------------------
Label_01407B79:
 .byte   N23 ,Gn2 ,v096
 .byte   W24
 .byte   N11 ,Dn3
 .byte   W12
 .byte   N32
 .byte   W60
 .byte   PEND 
@  #01 @023   ----------------------------------------
 .byte   W96
@  #01 @024   ----------------------------------------
 .byte   W96
@  #01 @025   ----------------------------------------
 .byte   W96
@  #01 @026   ----------------------------------------
 .byte   W96
@  #01 @027   ----------------------------------------
 .byte   W96
@  #01 @028   ----------------------------------------
 .byte   W96
@  #01 @029   ----------------------------------------
 .byte   W96
@  #01 @030   ----------------------------------------
 .byte   W96
@  #01 @031   ----------------------------------------
 .byte   W96
@  #01 @032   ----------------------------------------
 .byte   W96
@  #01 @033   ----------------------------------------
 .byte   W96
@  #01 @034   ----------------------------------------
 .byte   W96
@  #01 @035   ----------------------------------------
 .byte   W96
@  #01 @036   ----------------------------------------
 .byte   W96
@  #01 @037   ----------------------------------------
 .byte   W96
@  #01 @038   ----------------------------------------
 .byte   W96
@  #01 @039   ----------------------------------------
 .byte   W96
@  #01 @040   ----------------------------------------
 .byte   W96
@  #01 @041   ----------------------------------------
 .byte   W96
@  #01 @042   ----------------------------------------
 .byte   W96
@  #01 @043   ----------------------------------------
 .byte   W96
@  #01 @044   ----------------------------------------
 .byte   W96
@  #01 @045   ----------------------------------------
 .byte   W96
@  #01 @046   ----------------------------------------
 .byte   W96
@  #01 @047   ----------------------------------------
 .byte   W84
 .byte   N11 ,Gn2
 .byte   W12
@  #01 @048   ----------------------------------------
 .byte   PATT
  .word Label_01407B3E
@  #01 @049   ----------------------------------------
 .byte   PATT
  .word Label_01407B4D
@  #01 @050   ----------------------------------------
 .byte   W96
@  #01 @051   ----------------------------------------
 .byte   W72
 .byte   N23 ,Gn2 ,v096
 .byte   W24
@  #01 @052   ----------------------------------------
 .byte   PATT
  .word Label_01407B5F
@  #01 @053   ----------------------------------------
 .byte   PATT
  .word Label_01407B6C
@  #01 @054   ----------------------------------------
 .byte   PATT
  .word Label_01407B79
@  #01 @055   ----------------------------------------
 .byte   W96
@  #01 @056   ----------------------------------------
 .byte   W96
@  #01 @057   ----------------------------------------
 .byte   W96
@  #01 @058   ----------------------------------------
 .byte   W96
@  #01 @059   ----------------------------------------
 .byte   W96
@  #01 @060   ----------------------------------------
 .byte   W96
@  #01 @061   ----------------------------------------
 .byte   W96
@  #01 @062   ----------------------------------------
 .byte   W96
@  #01 @063   ----------------------------------------
 .byte   W96
@  #01 @064   ----------------------------------------
 .byte   W96
@  #01 @065   ----------------------------------------
 .byte   W96
@  #01 @066   ----------------------------------------
 .byte   W96
@  #01 @067   ----------------------------------------
 .byte   W96
@  #01 @068   ----------------------------------------
 .byte   W96
@  #01 @069   ----------------------------------------
 .byte   W96
@  #01 @070   ----------------------------------------
 .byte   W96
@  #01 @071   ----------------------------------------
 .byte   W96
@  #01 @072   ----------------------------------------
 .byte   W96
@  #01 @073   ----------------------------------------
 .byte   W96
@  #01 @074   ----------------------------------------
 .byte   W96
@  #01 @075   ----------------------------------------
 .byte   W96
@  #01 @076   ----------------------------------------
 .byte   W96
@  #01 @077   ----------------------------------------
 .byte   W96
@  #01 @078   ----------------------------------------
 .byte   W96
@  #01 @079   ----------------------------------------
 .byte   W96
@  #01 @080   ----------------------------------------
 .byte   W96
@  #01 @081   ----------------------------------------
 .byte   W96
@  #01 @082   ----------------------------------------
 .byte   W96
@  #01 @083   ----------------------------------------
 .byte   W96
@  #01 @084   ----------------------------------------
 .byte   W96
@  #01 @085   ----------------------------------------
 .byte   W96
@  #01 @086   ----------------------------------------
 .byte   W96
@  #01 @087   ----------------------------------------
 .byte   W96
@  #01 @088   ----------------------------------------
 .byte   W96
@  #01 @089   ----------------------------------------
 .byte   W96
@  #01 @090   ----------------------------------------
 .byte   W96
@  #01 @091   ----------------------------------------
 .byte   W96
@  #01 @092   ----------------------------------------
 .byte   W96
@  #01 @093   ----------------------------------------
 .byte   W96
@  #01 @094   ----------------------------------------
 .byte   W96
@  #01 @095   ----------------------------------------
 .byte   W84
 .byte   N11 ,Gn2 ,v096
 .byte   W12
@  #01 @096   ----------------------------------------
 .byte   GOTO
  .word Label_01407B3E
@  #01 @097   ----------------------------------------
 .byte   PATT
  .word Label_01407B3E
@  #01 @098   ----------------------------------------
 .byte   PATT
  .word Label_01407B4D
@  #01 @099   ----------------------------------------
 .byte   W96
@  #01 @100   ----------------------------------------
 .byte   W72
 .byte   N23 ,Gn2 ,v096
 .byte   W24
@  #01 @101   ----------------------------------------
 .byte   PATT
  .word Label_01407B5F
@  #01 @102   ----------------------------------------
 .byte   PATT
  .word Label_01407B6C
@  #01 @103   ----------------------------------------
 .byte   PATT
  .word Label_01407B79
@  #01 @104   ----------------------------------------
 .byte   W96
@  #01 @105   ----------------------------------------
 .byte   W96
@  #01 @106   ----------------------------------------
 .byte   W96
@  #01 @107   ----------------------------------------
 .byte   W96
@  #01 @108   ----------------------------------------
 .byte   W96
@  #01 @109   ----------------------------------------
 .byte   W96
@  #01 @110   ----------------------------------------
 .byte   W96
@  #01 @111   ----------------------------------------
 .byte   W96
@  #01 @112   ----------------------------------------
 .byte   W96
@  #01 @113   ----------------------------------------
 .byte   W96
@  #01 @114   ----------------------------------------
 .byte   W96
@  #01 @115   ----------------------------------------
 .byte   W96
@  #01 @116   ----------------------------------------
 .byte   W96
@  #01 @117   ----------------------------------------
 .byte   W96
@  #01 @118   ----------------------------------------
 .byte   W96
@  #01 @119   ----------------------------------------
 .byte   W96
@  #01 @120   ----------------------------------------
 .byte   W96
@  #01 @121   ----------------------------------------
 .byte   W96
@  #01 @122   ----------------------------------------
 .byte   W96
@  #01 @123   ----------------------------------------
 .byte   W96
@  #01 @124   ----------------------------------------
 .byte   W96
@  #01 @125   ----------------------------------------
 .byte   W96
@  #01 @126   ----------------------------------------
 .byte   W96
@  #01 @127   ----------------------------------------
 .byte   W96
@  #01 @128   ----------------------------------------
 .byte   W84
 .byte   N11 ,Gn2 ,v096
 .byte   W12
@  #01 @129   ----------------------------------------
 .byte   PATT
  .word Label_01407B3E
@  #01 @130   ----------------------------------------
 .byte   PATT
  .word Label_01407B4D
@  #01 @131   ----------------------------------------
 .byte   W96
@  #01 @132   ----------------------------------------
 .byte   W72
 .byte   N23 ,Gn2 ,v096
 .byte   W24
@  #01 @133   ----------------------------------------
 .byte   PATT
  .word Label_01407B5F
@  #01 @134   ----------------------------------------
 .byte   PATT
  .word Label_01407B6C
@  #01 @135   ----------------------------------------
 .byte   PATT
  .word Label_01407B79
@  #01 @136   ----------------------------------------
 .byte   W96
@  #01 @137   ----------------------------------------
 .byte   W96
@  #01 @138   ----------------------------------------
 .byte   W96
@  #01 @139   ----------------------------------------
 .byte   W96
@  #01 @140   ----------------------------------------
 .byte   W96
@  #01 @141   ----------------------------------------
 .byte   W96
@  #01 @142   ----------------------------------------
 .byte   W96
@  #01 @143   ----------------------------------------
 .byte   W96
@  #01 @144   ----------------------------------------
 .byte   W96
@  #01 @145   ----------------------------------------
 .byte   W96
@  #01 @146   ----------------------------------------
 .byte   W96
@  #01 @147   ----------------------------------------
 .byte   W96
@  #01 @148   ----------------------------------------
 .byte   W96
@  #01 @149   ----------------------------------------
 .byte   W96
@  #01 @150   ----------------------------------------
 .byte   W96
@  #01 @151   ----------------------------------------
 .byte   W96
@  #01 @152   ----------------------------------------
 .byte   W96
@  #01 @153   ----------------------------------------
 .byte   W96
@  #01 @154   ----------------------------------------
 .byte   W96
@  #01 @155   ----------------------------------------
 .byte   W96
@  #01 @156   ----------------------------------------
 .byte   W96
@  #01 @157   ----------------------------------------
 .byte   W96
@  #01 @158   ----------------------------------------
 .byte   W96
@  #01 @159   ----------------------------------------
 .byte   W96
@  #01 @160   ----------------------------------------
 .byte   W96
@  #01 @161   ----------------------------------------
 .byte   W96
@  #01 @162   ----------------------------------------
 .byte   W96
@  #01 @163   ----------------------------------------
 .byte   W96
@  #01 @164   ----------------------------------------
 .byte   W96
@  #01 @165   ----------------------------------------
 .byte   W96
@  #01 @166   ----------------------------------------
 .byte   W96
@  #01 @167   ----------------------------------------
 .byte   W96
@  #01 @168   ----------------------------------------
 .byte   W96
@  #01 @169   ----------------------------------------
 .byte   W96
@  #01 @170   ----------------------------------------
 .byte   W96
@  #01 @171   ----------------------------------------
 .byte   W96
@  #01 @172   ----------------------------------------
 .byte   W96
@  #01 @173   ----------------------------------------
 .byte   W96
@  #01 @174   ----------------------------------------
 .byte   W96
@  #01 @175   ----------------------------------------
 .byte   W96
@  #01 @176   ----------------------------------------
 .byte   W92
 .byte   W03
 .byte   FINE

@**************** Track 2 (Midi-Chn.1) ****************@

song04_002:
@  #02 @000   ----------------------------------------
 .byte   KEYSH , song04_key+0
 .byte   VOICE , 30
 .byte   VOL , 53*song04_mvl/mxv
 .byte   PAN , c_v+0
 .byte   VOL , 52*song04_mvl/mxv
 .byte   PAN , c_v-1
 .byte   W96
@  #02 @001   ----------------------------------------
 .byte   W96
@  #02 @002   ----------------------------------------
 .byte   W96
@  #02 @003   ----------------------------------------
 .byte   W96
@  #02 @004   ----------------------------------------
 .byte   W96
@  #02 @005   ----------------------------------------
 .byte   W96
@  #02 @006   ----------------------------------------
 .byte   W96
@  #02 @007   ----------------------------------------
 .byte   W96
@  #02 @008   ----------------------------------------
Label_01407C9C:
 .byte   N11 ,Dn2 ,v096
 .byte   N11 ,Dn3
 .byte   W12
 .byte   Dn2
 .byte   N11 ,Dn3
 .byte   W12
 .byte   Dn2
 .byte   N11 ,Dn3
 .byte   W12
 .byte   Dn2
 .byte   N11 ,Dn3
 .byte   W12
 .byte   En2
 .byte   N11 ,En3
 .byte   W12
 .byte   En2
 .byte   N11 ,En3
 .byte   W12
 .byte   En2
 .byte   N11 ,En3
 .byte   W12
 .byte   N23 ,Fn2
 .byte   N23 ,Fn3
 .byte   W12
 .byte   PEND 
@  #02 @009   ----------------------------------------
Label_01407CC0:
 .byte   W12
 .byte   N11 ,Fn2 ,v096
 .byte   N11 ,Fn3
 .byte   W12
 .byte   Fn2
 .byte   N11 ,Fn3
 .byte   W12
 .byte   Fn2
 .byte   N11 ,Fn3
 .byte   W12
 .byte   Fn2
 .byte   N11 ,Fn3
 .byte   W12
 .byte   Fn2
 .byte   N11 ,Fn3
 .byte   W12
 .byte   Fn2
 .byte   N11 ,Fn3
 .byte   W12
 .byte   Fn2
 .byte   N11 ,Fn3
 .byte   W12
 .byte   PEND 
@  #02 @010   ----------------------------------------
 .byte   PATT
  .word Label_01407C9C
@  #02 @011   ----------------------------------------
Label_01407CE5:
 .byte   W12
 .byte   N11 ,Fn2 ,v096
 .byte   N11 ,Fn3
 .byte   W12
 .byte   Fn2
 .byte   N11 ,Fn3
 .byte   W12
 .byte   Fn2
 .byte   N11 ,Fn3
 .byte   W12
 .byte   Gn2
 .byte   N11 ,Gn3
 .byte   W12
 .byte   Gn2
 .byte   N11 ,Gn3
 .byte   W12
 .byte   N23 ,Gn2
 .byte   N23 ,Gn3
 .byte   W24
 .byte   PEND 
@  #02 @012   ----------------------------------------
 .byte   PATT
  .word Label_01407C9C
@  #02 @013   ----------------------------------------
 .byte   PATT
  .word Label_01407CC0
@  #02 @014   ----------------------------------------
 .byte   PATT
  .word Label_01407C9C
@  #02 @015   ----------------------------------------
Label_01407D11:
 .byte   W12
 .byte   N11 ,Fn2 ,v096
 .byte   N11 ,Fn3
 .byte   W12
 .byte   Fn2
 .byte   N11 ,Fn3
 .byte   W12
 .byte   Fn2
 .byte   N11 ,Fn3
 .byte   W12
 .byte   N23 ,Gn2
 .byte   N23 ,Gn3
 .byte   W36
 .byte   N11 ,Gn2 ,v112
 .byte   W12
 .byte   PEND 
@  #02 @016   ----------------------------------------
Label_01407D2A:
 .byte   N11 ,Dn3 ,v112
 .byte   W36
 .byte   N11
 .byte   W12
 .byte   N17 ,Cn3
 .byte   W18
 .byte   N17
 .byte   W18
 .byte   N23 ,As2
 .byte   W12
 .byte   PEND 
@  #02 @017   ----------------------------------------
Label_01407D39:
 .byte   W36
 .byte   N11 ,As2 ,v112
 .byte   W12
 .byte   N17 ,An2
 .byte   W18
 .byte   N17
 .byte   W18
 .byte   N23 ,Gn2
 .byte   W12
 .byte   PEND 
@  #02 @018   ----------------------------------------
 .byte   W96
@  #02 @019   ----------------------------------------
 .byte   W72
 .byte   N23
 .byte   W24
@  #02 @020   ----------------------------------------
Label_01407D4B:
 .byte   N17 ,Dn3 ,v112
 .byte   W18
 .byte   N05 ,Fn3
 .byte   W18
 .byte   N11 ,Cn3
 .byte   W36
 .byte   N23
 .byte   W24
 .byte   PEND 
@  #02 @021   ----------------------------------------
Label_01407D58:
 .byte   N17 ,As2 ,v112
 .byte   W18
 .byte   N05 ,Dn3
 .byte   W18
 .byte   N11 ,An2
 .byte   W36
 .byte   N23
 .byte   W24
 .byte   PEND 
@  #02 @022   ----------------------------------------
Label_01407D65:
 .byte   N23 ,Gn2 ,v112
 .byte   W24
 .byte   N11 ,Dn3
 .byte   W12
 .byte   TIE
 .byte   W60
 .byte   PEND 
@  #02 @023   ----------------------------------------
 .byte   W44
 .byte   W03
 .byte   EOT
 .byte   W36
 .byte   W01
 .byte   N11 ,Cn2
 .byte   N11 ,Cn3
 .byte   W12
@  #02 @024   ----------------------------------------
Label_01407D79:
 .byte   N23 ,Fn2 ,v112
 .byte   N23 ,Fn3
 .byte   W24
 .byte   Fn2
 .byte   N23 ,Fn3
 .byte   W24
 .byte   Fn2
 .byte   N23 ,Fn3
 .byte   W36
 .byte   Fn2
 .byte   N23 ,Fn3
 .byte   W12
 .byte   PEND 
@  #02 @025   ----------------------------------------
Label_01407D8C:
 .byte   W12
 .byte   N23 ,Fn2 ,v112
 .byte   N23 ,Fn3
 .byte   W24
 .byte   N11 ,Fn2
 .byte   N11 ,Fn3
 .byte   W12
 .byte   N23 ,Fn2
 .byte   N23 ,Fn3
 .byte   W24
 .byte   Gn2
 .byte   N23 ,Gn3
 .byte   W24
 .byte   PEND 
@  #02 @026   ----------------------------------------
Label_01407DA2:
 .byte   TIE ,An2 ,v112
 .byte   TIE ,An3
 .byte   W96
 .byte   PEND 
@  #02 @027   ----------------------------------------
 .byte   W92
 .byte   W03
 .byte   EOT
 .byte   An2 ,v069
 .byte   W01
@  #02 @028   ----------------------------------------
Label_01407DAF:
 .byte   N23 ,As2 ,v112
 .byte   N23 ,As3
 .byte   W24
 .byte   As2
 .byte   N23 ,As3
 .byte   W24
 .byte   As2
 .byte   N23 ,As3
 .byte   W36
 .byte   As2
 .byte   N23 ,As3
 .byte   W12
 .byte   PEND 
@  #02 @029   ----------------------------------------
Label_01407DC2:
 .byte   W12
 .byte   N23 ,As2 ,v112
 .byte   N23 ,As3
 .byte   W24
 .byte   N11 ,As2
 .byte   N11 ,As3
 .byte   W12
 .byte   N23 ,As2
 .byte   N23 ,As3
 .byte   W24
 .byte   Cn3
 .byte   N23 ,Cn4
 .byte   W24
 .byte   PEND 
@  #02 @030   ----------------------------------------
 .byte   N92 ,An2
 .byte   N92 ,An3
 .byte   W96
@  #02 @031   ----------------------------------------
 .byte   Gn2
 .byte   N92 ,Gn3
 .byte   W96
@  #02 @032   ----------------------------------------
 .byte   PATT
  .word Label_01407C9C
@  #02 @033   ----------------------------------------
 .byte   PATT
  .word Label_01407CC0
@  #02 @034   ----------------------------------------
 .byte   PATT
  .word Label_01407C9C
@  #02 @035   ----------------------------------------
 .byte   PATT
  .word Label_01407CE5
@  #02 @036   ----------------------------------------
 .byte   PATT
  .word Label_01407C9C
@  #02 @037   ----------------------------------------
 .byte   PATT
  .word Label_01407CC0
@  #02 @038   ----------------------------------------
 .byte   PATT
  .word Label_01407C9C
@  #02 @039   ----------------------------------------
 .byte   PATT
  .word Label_01407CE5
@  #02 @040   ----------------------------------------
 .byte   PATT
  .word Label_01407C9C
@  #02 @041   ----------------------------------------
 .byte   PATT
  .word Label_01407CC0
@  #02 @042   ----------------------------------------
 .byte   PATT
  .word Label_01407C9C
@  #02 @043   ----------------------------------------
 .byte   PATT
  .word Label_01407CE5
@  #02 @044   ----------------------------------------
 .byte   PATT
  .word Label_01407C9C
@  #02 @045   ----------------------------------------
 .byte   PATT
  .word Label_01407CC0
@  #02 @046   ----------------------------------------
 .byte   PATT
  .word Label_01407C9C
@  #02 @047   ----------------------------------------
 .byte   PATT
  .word Label_01407D11
@  #02 @048   ----------------------------------------
 .byte   PATT
  .word Label_01407D2A
@  #02 @049   ----------------------------------------
 .byte   PATT
  .word Label_01407D39
@  #02 @050   ----------------------------------------
 .byte   W96
@  #02 @051   ----------------------------------------
 .byte   W72
 .byte   N23 ,Gn2 ,v112
 .byte   W24
@  #02 @052   ----------------------------------------
 .byte   PATT
  .word Label_01407D4B
@  #02 @053   ----------------------------------------
 .byte   PATT
  .word Label_01407D58
@  #02 @054   ----------------------------------------
 .byte   PATT
  .word Label_01407D65
@  #02 @055   ----------------------------------------
 .byte   W44
 .byte   W03
 .byte   EOT
 .byte   Dn3
 .byte   W36
 .byte   W01
 .byte   N11 ,Cn2 ,v112
 .byte   N11 ,Cn3
 .byte   W12
@  #02 @056   ----------------------------------------
 .byte   PATT
  .word Label_01407D79
@  #02 @057   ----------------------------------------
 .byte   PATT
  .word Label_01407D8C
@  #02 @058   ----------------------------------------
 .byte   PATT
  .word Label_01407DA2
@  #02 @059   ----------------------------------------
 .byte   W92
 .byte   W03
 .byte   EOT
 .byte   An2 ,v069
 .byte   W01
@  #02 @060   ----------------------------------------
 .byte   PATT
  .word Label_01407DAF
@  #02 @061   ----------------------------------------
 .byte   PATT
  .word Label_01407DC2
@  #02 @062   ----------------------------------------
 .byte   N92 ,An2 ,v112
 .byte   N92 ,An3
 .byte   W96
@  #02 @063   ----------------------------------------
Label_01407E81:
 .byte   N44 ,As2 ,v112
 .byte   N44 ,As3
 .byte   W48
 .byte   Fn3
 .byte   N44 ,Fn4
 .byte   W48
 .byte   PEND 
@  #02 @064   ----------------------------------------
Label_01407E8C:
 .byte   N05 ,Ds3 ,v112
 .byte   N05 ,Ds4
 .byte   W06
 .byte   Dn3
 .byte   N05 ,Dn4
 .byte   W06
 .byte   TIE ,Cn3
 .byte   TIE ,Cn4
 .byte   W84
 .byte   PEND 
@  #02 @065   ----------------------------------------
 .byte   W44
 .byte   W03
 .byte   EOT
 .byte   Cn3 ,v072
 .byte   W36
 .byte   W01
 .byte   N05 ,As2
 .byte   N05 ,As3
 .byte   W06
 .byte   An2
 .byte   N05 ,An3
 .byte   W06
@  #02 @066   ----------------------------------------
Label_01407EAC:
 .byte   N05 ,As2 ,v112
 .byte   N05 ,As3
 .byte   W06
 .byte   Cn3
 .byte   N05 ,Cn4
 .byte   W06
 .byte   TIE ,Dn3
 .byte   TIE ,Dn4
 .byte   W84
 .byte   PEND 
@  #02 @067   ----------------------------------------
 .byte   W23
 .byte   EOT
 .byte   Dn3 ,v074
 .byte   W24
 .byte   W01
 .byte   N23 ,As2
 .byte   N23 ,As3
 .byte   W24
 .byte   Fn3
 .byte   N23 ,Fn4
 .byte   W24
@  #02 @068   ----------------------------------------
Label_01407ECB:
 .byte   N05 ,Ds3 ,v112
 .byte   N05 ,Ds4
 .byte   W06
 .byte   Dn3
 .byte   N05 ,Dn4
 .byte   W06
 .byte   N56 ,Cn3
 .byte   N56 ,Cn4
 .byte   W60
 .byte   N23 ,Cn3
 .byte   N23 ,Cn4
 .byte   W24
 .byte   PEND 
@  #02 @069   ----------------------------------------
Label_01407EE0:
 .byte   N23 ,Dn3 ,v112
 .byte   N03 ,Cn4
 .byte   W03
 .byte   N20 ,Dn4
 .byte   W21
 .byte   N23 ,Cn3
 .byte   N23 ,Cn4
 .byte   W24
 .byte   An2
 .byte   N23 ,An3
 .byte   W24
 .byte   Fn2
 .byte   N23 ,Fn3
 .byte   W24
 .byte   PEND 
@  #02 @070   ----------------------------------------
Label_01407EF7:
 .byte   N44 ,As2 ,v112
 .byte   N03 ,An3
 .byte   W03
 .byte   N44 ,As3
 .byte   W44
 .byte   W01
 .byte   N32 ,Cn3
 .byte   N03 ,As3
 .byte   W03
 .byte   N32 ,Cn4
 .byte   W32
 .byte   W01
 .byte   N05 ,As2
 .byte   N05 ,As3
 .byte   W06
 .byte   Cn3
 .byte   N05 ,Cn4
 .byte   W06
 .byte   PEND 
@  #02 @071   ----------------------------------------
Label_01407F14:
 .byte   N05 ,Dn3 ,v112
 .byte   N05 ,Dn4
 .byte   W06
 .byte   Cn3
 .byte   N05 ,Cn4
 .byte   W06
 .byte   N32 ,Dn3
 .byte   N32 ,Dn4
 .byte   W36
 .byte   N23 ,As2
 .byte   N23 ,As3
 .byte   W24
 .byte   Fn3
 .byte   N23 ,Fn4
 .byte   W24
 .byte   PEND 
@  #02 @072   ----------------------------------------
Label_01407F2D:
 .byte   BEND , c_v+1
 .byte   N92 ,Gn3 ,v112
 .byte   N92 ,Fn4
 .byte   W01
 .byte   BEND , c_v+2
 .byte   W01
 .byte   BEND , c_v+3
 .byte   W01
 .byte   BEND , c_v+4
 .byte   W01
 .byte   BEND , c_v+6
 .byte   W01
 .byte   BEND , c_v+7
 .byte   W01
 .byte   BEND , c_v+8
 .byte   W01
 .byte   BEND , c_v+9
 .byte   W01
 .byte   BEND , c_v+10
 .byte   W88
 .byte   PEND 
@  #02 @073   ----------------------------------------
Label_01407F47:
 .byte   BEND , c_v+1
 .byte   N92 ,An3 ,v112
 .byte   N92 ,Gn4
 .byte   W01
 .byte   BEND , c_v+2
 .byte   W01
 .byte   BEND , c_v+3
 .byte   W01
 .byte   BEND , c_v+4
 .byte   W01
 .byte   BEND , c_v+6
 .byte   W01
 .byte   BEND , c_v+7
 .byte   W01
 .byte   BEND , c_v+8
 .byte   W01
 .byte   BEND , c_v+9
 .byte   W01
 .byte   BEND , c_v+10
 .byte   W88
 .byte   PEND 
@  #02 @074   ----------------------------------------
Label_01407F61:
 .byte   BEND , c_v+0
 .byte   N68 ,As3 ,v112
 .byte   N68 ,An4
 .byte   W01
 .byte   BEND , c_v+0
 .byte   W01
 .byte   BEND , c_v+0
 .byte   W01
 .byte   BEND , c_v+0
 .byte   W01
 .byte   BEND , c_v+1
 .byte   W01
 .byte   BEND , c_v+1
 .byte   W01
 .byte   BEND , c_v+1
 .byte   W01
 .byte   BEND , c_v+1
 .byte   W01
 .byte   BEND , c_v+1
 .byte   W01
 .byte   BEND , c_v+2
 .byte   W01
 .byte   BEND , c_v+2
 .byte   W01
 .byte   BEND , c_v+2
 .byte   W01
 .byte   BEND , c_v+2
 .byte   W01
 .byte   BEND , c_v+2
 .byte   W01
 .byte   BEND , c_v+3
 .byte   W01
 .byte   BEND , c_v+3
 .byte   W01
 .byte   BEND , c_v+3
 .byte   W01
 .byte   BEND , c_v+3
 .byte   W01
 .byte   BEND , c_v+4
 .byte   W01
 .byte   BEND , c_v+4
 .byte   W01
 .byte   BEND , c_v+4
 .byte   W01
 .byte   BEND , c_v+4
 .byte   W01
 .byte   BEND , c_v+4
 .byte   W01
 .byte   BEND , c_v+5
 .byte   W01
 .byte   BEND , c_v+5
 .byte   W48
 .byte   BEND , c_v+0
 .byte   N23 ,Fn2
 .byte   N23 ,Fn3
 .byte   W24
 .byte   PEND 
@  #02 @075   ----------------------------------------
Label_01407FA1:
 .byte   BEND , c_v+0
 .byte   N23 ,Gn2 ,v112
 .byte   N23 ,Gn3
 .byte   W18
 .byte   BEND , c_v+4
 .byte   W01
 .byte   BEND , c_v+8
 .byte   W01
 .byte   BEND , c_v+12
 .byte   W01
 .byte   BEND , c_v+17
 .byte   W01
 .byte   BEND , c_v+25
 .byte   W01
 .byte   BEND , c_v+29
 .byte   W01
 .byte   BEND , c_v+0
 .byte   N23 ,Dn3
 .byte   N23 ,Dn4
 .byte   W24
 .byte   BEND , c_v+0
 .byte   N23 ,Cn3
 .byte   N23 ,Cn4
 .byte   W24
 .byte   Fn2
 .byte   N23 ,Fn3
 .byte   W24
 .byte   PEND 
@  #02 @076   ----------------------------------------
Label_01407FC8:
 .byte   TIE ,Gn2 ,v112
 .byte   TIE ,Gn3
 .byte   W96
 .byte   PEND 
@  #02 @077   ----------------------------------------
 .byte   W23
 .byte   EOT
 .byte   Gn2 ,v067
 .byte   W24
 .byte   W01
 .byte   N23 ,Gn2
 .byte   N23 ,Gn3
 .byte   W24
 .byte   Dn3
 .byte   N23 ,Dn4
 .byte   W24
@  #02 @078   ----------------------------------------
 .byte   N92 ,Cn3
 .byte   N92 ,Cn4
 .byte   W96
@  #02 @079   ----------------------------------------
Label_01407FE3:
 .byte   N44 ,Fn3 ,v112
 .byte   N03 ,Ds4
 .byte   W03
 .byte   N44 ,Fn4
 .byte   W44
 .byte   W01
 .byte   Fn3
 .byte   N03 ,Ds4
 .byte   W03
 .byte   N44 ,Fn4
 .byte   W44
 .byte   W01
 .byte   PEND 
@  #02 @080   ----------------------------------------
Label_01407FF6:
 .byte   N11 ,Dn2 ,v096
 .byte   N11 ,Dn3
 .byte   N03 ,Fn4 ,v112
 .byte   W03
 .byte   TIE ,Gn4
 .byte   W09
 .byte   N11 ,Dn2 ,v096
 .byte   N11 ,Dn3
 .byte   W12
 .byte   Dn2
 .byte   N11 ,Dn3
 .byte   W12
 .byte   Dn2
 .byte   N11 ,Dn3
 .byte   W12
 .byte   En2
 .byte   N11 ,En3
 .byte   W12
 .byte   En2
 .byte   N11 ,En3
 .byte   W12
 .byte   En2
 .byte   N11 ,En3
 .byte   W12
 .byte   N23 ,Fn2
 .byte   N23 ,Fn3
 .byte   W12
 .byte   PEND 
@  #02 @081   ----------------------------------------
Label_01408022:
 .byte   W12
 .byte   N11 ,Fn2 ,v096
 .byte   N11 ,Fn3
 .byte   W12
 .byte   Fn2
 .byte   N11 ,Fn3
 .byte   W12
 .byte   Fn2
 .byte   N11 ,Fn3
 .byte   W12
 .byte   Fn2
 .byte   N11 ,Fn3
 .byte   W12
 .byte   Fn2
 .byte   N11 ,Fn3
 .byte   W12
 .byte   Fn2
 .byte   N11 ,Fn3
 .byte   W12
 .byte   Fn2
 .byte   N11 ,Fn3
 .byte   W11
 .byte   PEND 
 .byte   EOT
 .byte   Gn4
 .byte   W01
@  #02 @082   ----------------------------------------
 .byte   PATT
  .word Label_01407C9C
@  #02 @083   ----------------------------------------
 .byte   PATT
  .word Label_01407CE5
@  #02 @084   ----------------------------------------
 .byte   PATT
  .word Label_01407C9C
@  #02 @085   ----------------------------------------
 .byte   PATT
  .word Label_01407CC0
@  #02 @086   ----------------------------------------
 .byte   PATT
  .word Label_01407C9C
@  #02 @087   ----------------------------------------
 .byte   PATT
  .word Label_01407CE5
@  #02 @088   ----------------------------------------
 .byte   PATT
  .word Label_01407C9C
@  #02 @089   ----------------------------------------
 .byte   PATT
  .word Label_01407CC0
@  #02 @090   ----------------------------------------
 .byte   PATT
  .word Label_01407C9C
@  #02 @091   ----------------------------------------
 .byte   PATT
  .word Label_01407CE5
@  #02 @092   ----------------------------------------
 .byte   PATT
  .word Label_01407C9C
@  #02 @093   ----------------------------------------
 .byte   PATT
  .word Label_01407CC0
@  #02 @094   ----------------------------------------
 .byte   PATT
  .word Label_01407C9C
@  #02 @095   ----------------------------------------
 .byte   PATT
  .word Label_01407D11
@  #02 @096   ----------------------------------------
 .byte   GOTO
  .word Label_01407D2A
@  #02 @097   ----------------------------------------
 .byte   PATT
  .word Label_01407D2A
@  #02 @098   ----------------------------------------
 .byte   PATT
  .word Label_01407D39
@  #02 @099   ----------------------------------------
 .byte   W96
@  #02 @100   ----------------------------------------
 .byte   W72
 .byte   N23 ,Gn2 ,v112
 .byte   W24
@  #02 @101   ----------------------------------------
 .byte   PATT
  .word Label_01407D4B
@  #02 @102   ----------------------------------------
 .byte   PATT
  .word Label_01407D58
@  #02 @103   ----------------------------------------
 .byte   PATT
  .word Label_01407D65
@  #02 @104   ----------------------------------------
 .byte   W44
 .byte   W03
 .byte   EOT
 .byte   Dn3
 .byte   W36
 .byte   W01
 .byte   N11 ,Cn2 ,v112
 .byte   N11 ,Cn3
 .byte   W12
@  #02 @105   ----------------------------------------
 .byte   PATT
  .word Label_01407D79
@  #02 @106   ----------------------------------------
 .byte   PATT
  .word Label_01407D8C
@  #02 @107   ----------------------------------------
 .byte   PATT
  .word Label_01407DA2
@  #02 @108   ----------------------------------------
 .byte   W92
 .byte   W03
 .byte   EOT
 .byte   An2 ,v069
 .byte   W01
@  #02 @109   ----------------------------------------
 .byte   PATT
  .word Label_01407DAF
@  #02 @110   ----------------------------------------
 .byte   PATT
  .word Label_01407DC2
@  #02 @111   ----------------------------------------
 .byte   N92 ,An2 ,v112
 .byte   N92 ,An3
 .byte   W96
@  #02 @112   ----------------------------------------
 .byte   Gn2
 .byte   N92 ,Gn3
 .byte   W96
@  #02 @113   ----------------------------------------
 .byte   PATT
  .word Label_01407C9C
@  #02 @114   ----------------------------------------
 .byte   PATT
  .word Label_01407CC0
@  #02 @115   ----------------------------------------
 .byte   PATT
  .word Label_01407C9C
@  #02 @116   ----------------------------------------
 .byte   PATT
  .word Label_01407CE5
@  #02 @117   ----------------------------------------
 .byte   PATT
  .word Label_01407C9C
@  #02 @118   ----------------------------------------
 .byte   PATT
  .word Label_01407CC0
@  #02 @119   ----------------------------------------
 .byte   PATT
  .word Label_01407C9C
@  #02 @120   ----------------------------------------
 .byte   PATT
  .word Label_01407CE5
@  #02 @121   ----------------------------------------
 .byte   PATT
  .word Label_01407C9C
@  #02 @122   ----------------------------------------
 .byte   PATT
  .word Label_01407CC0
@  #02 @123   ----------------------------------------
 .byte   PATT
  .word Label_01407C9C
@  #02 @124   ----------------------------------------
 .byte   PATT
  .word Label_01407CE5
@  #02 @125   ----------------------------------------
 .byte   PATT
  .word Label_01407C9C
@  #02 @126   ----------------------------------------
 .byte   PATT
  .word Label_01407CC0
@  #02 @127   ----------------------------------------
 .byte   PATT
  .word Label_01407C9C
@  #02 @128   ----------------------------------------
 .byte   PATT
  .word Label_01407D11
@  #02 @129   ----------------------------------------
 .byte   PATT
  .word Label_01407D2A
@  #02 @130   ----------------------------------------
 .byte   PATT
  .word Label_01407D39
@  #02 @131   ----------------------------------------
 .byte   W96
@  #02 @132   ----------------------------------------
 .byte   W72
 .byte   N23 ,Gn2 ,v112
 .byte   W24
@  #02 @133   ----------------------------------------
 .byte   PATT
  .word Label_01407D4B
@  #02 @134   ----------------------------------------
 .byte   PATT
  .word Label_01407D58
@  #02 @135   ----------------------------------------
 .byte   PATT
  .word Label_01407D65
@  #02 @136   ----------------------------------------
 .byte   W44
 .byte   W03
 .byte   EOT
 .byte   Dn3
 .byte   W36
 .byte   W01
 .byte   N11 ,Cn2 ,v112
 .byte   N11 ,Cn3
 .byte   W12
@  #02 @137   ----------------------------------------
 .byte   PATT
  .word Label_01407D79
@  #02 @138   ----------------------------------------
 .byte   PATT
  .word Label_01407D8C
@  #02 @139   ----------------------------------------
 .byte   PATT
  .word Label_01407DA2
@  #02 @140   ----------------------------------------
 .byte   W92
 .byte   W03
 .byte   EOT
 .byte   An2 ,v069
 .byte   W01
@  #02 @141   ----------------------------------------
 .byte   PATT
  .word Label_01407DAF
@  #02 @142   ----------------------------------------
 .byte   PATT
  .word Label_01407DC2
@  #02 @143   ----------------------------------------
 .byte   N92 ,An2 ,v112
 .byte   N92 ,An3
 .byte   W96
@  #02 @144   ----------------------------------------
 .byte   PATT
  .word Label_01407E81
@  #02 @145   ----------------------------------------
 .byte   PATT
  .word Label_01407E8C
@  #02 @146   ----------------------------------------
 .byte   W44
 .byte   W03
 .byte   EOT
 .byte   Cn3 ,v072
 .byte   W36
 .byte   W01
 .byte   N05 ,As2 ,v112
 .byte   N05 ,As3
 .byte   W06
 .byte   An2
 .byte   N05 ,An3
 .byte   W06
@  #02 @147   ----------------------------------------
 .byte   PATT
  .word Label_01407EAC
@  #02 @148   ----------------------------------------
 .byte   W23
 .byte   EOT
 .byte   Dn3 ,v074
 .byte   W24
 .byte   W01
 .byte   N23 ,As2 ,v112
 .byte   N23 ,As3
 .byte   W24
 .byte   Fn3
 .byte   N23 ,Fn4
 .byte   W24
@  #02 @149   ----------------------------------------
 .byte   PATT
  .word Label_01407ECB
@  #02 @150   ----------------------------------------
 .byte   PATT
  .word Label_01407EE0
@  #02 @151   ----------------------------------------
 .byte   PATT
  .word Label_01407EF7
@  #02 @152   ----------------------------------------
 .byte   PATT
  .word Label_01407F14
@  #02 @153   ----------------------------------------
 .byte   PATT
  .word Label_01407F2D
@  #02 @154   ----------------------------------------
 .byte   PATT
  .word Label_01407F47
@  #02 @155   ----------------------------------------
 .byte   PATT
  .word Label_01407F61
@  #02 @156   ----------------------------------------
 .byte   PATT
  .word Label_01407FA1
@  #02 @157   ----------------------------------------
 .byte   PATT
  .word Label_01407FC8
@  #02 @158   ----------------------------------------
 .byte   W23
 .byte   EOT
 .byte   Gn2 ,v067
 .byte   W24
 .byte   W01
 .byte   N23 ,Gn2 ,v112
 .byte   N23 ,Gn3
 .byte   W24
 .byte   Dn3
 .byte   N23 ,Dn4
 .byte   W24
@  #02 @159   ----------------------------------------
 .byte   N92 ,Cn3
 .byte   N92 ,Cn4
 .byte   W96
@  #02 @160   ----------------------------------------
 .byte   PATT
  .word Label_01407FE3
@  #02 @161   ----------------------------------------
 .byte   PATT
  .word Label_01407FF6
@  #02 @162   ----------------------------------------
 .byte   PATT
  .word Label_01408022
@  #02 @163   ----------------------------------------
 .byte   EOT
 .byte   Gn4
 .byte   W01
@  #02 @164   ----------------------------------------
 .byte   PATT
  .word Label_01407C9C
@  #02 @165   ----------------------------------------
 .byte   PATT
  .word Label_01407CE5
@  #02 @166   ----------------------------------------
 .byte   PATT
  .word Label_01407C9C
@  #02 @167   ----------------------------------------
 .byte   PATT
  .word Label_01407CC0
@  #02 @168   ----------------------------------------
 .byte   PATT
  .word Label_01407C9C
@  #02 @169   ----------------------------------------
 .byte   PATT
  .word Label_01407CE5
@  #02 @170   ----------------------------------------
 .byte   PATT
  .word Label_01407C9C
@  #02 @171   ----------------------------------------
 .byte   PATT
  .word Label_01407CC0
@  #02 @172   ----------------------------------------
 .byte   PATT
  .word Label_01407C9C
@  #02 @173   ----------------------------------------
 .byte   PATT
  .word Label_01407CE5
@  #02 @174   ----------------------------------------
 .byte   PATT
  .word Label_01407C9C
@  #02 @175   ----------------------------------------
 .byte   PATT
  .word Label_01407CC0
@  #02 @176   ----------------------------------------
 .byte   PATT
  .word Label_01407C9C
@  #02 @177   ----------------------------------------
 .byte   W12
 .byte   N11 ,Fn2 ,v096
 .byte   N11 ,Fn3
 .byte   W12
 .byte   Fn2
 .byte   N11 ,Fn3
 .byte   W12
 .byte   Fn2
 .byte   N11 ,Fn3
 .byte   W12
 .byte   Gn2
 .byte   N11 ,Gn3
 .byte   W12
 .byte   Gn2
 .byte   N11 ,Gn3
 .byte   W12
 .byte   N23 ,Gn2
 .byte   N23 ,Gn3
 .byte   W23
 .byte   FINE

@**************** Track 3 (Midi-Chn.2) ****************@

song04_003:
@  #03 @000   ----------------------------------------
 .byte   KEYSH , song04_key+0
 .byte   VOICE , 104
 .byte   VOL , 31*song04_mvl/mxv
 .byte   PAN , c_v+0
 .byte   N44 ,Gn1 ,v096
 .byte   N44 ,Dn2
 .byte   N44 ,Gn2
 .byte   W48
 .byte   N32 ,An1
 .byte   N32 ,En2
 .byte   N32 ,An2
 .byte   W36
 .byte   TIE ,As1
 .byte   TIE ,Fn2
 .byte   TIE ,As2
 .byte   W12
@  #03 @001   ----------------------------------------
 .byte   W92
 .byte   W03
 .byte   EOT
 .byte   As1 ,v053
 .byte   As2
 .byte   W01
@  #03 @002   ----------------------------------------
Label_0140829D:
 .byte   N44 ,Gn1 ,v096
 .byte   N44 ,Dn2
 .byte   N44 ,Gn2
 .byte   W48
 .byte   N32 ,An1
 .byte   N32 ,En2
 .byte   N32 ,An2
 .byte   W36
 .byte   N56 ,As1
 .byte   N56 ,Fn2
 .byte   N56 ,As2
 .byte   W12
 .byte   PEND 
@  #03 @003   ----------------------------------------
Label_014082B4:
 .byte   W48
 .byte   N44 ,Ds2 ,v096
 .byte   N44 ,As2
 .byte   N44 ,Ds3
 .byte   W48
 .byte   PEND 
@  #03 @004   ----------------------------------------
 .byte   Gn1
 .byte   N44 ,Dn2
 .byte   N44 ,Gn2
 .byte   W48
 .byte   N32 ,An1
 .byte   N32 ,En2
 .byte   N32 ,An2
 .byte   W36
 .byte   TIE ,As1
 .byte   TIE ,Fn2
 .byte   TIE ,As2
 .byte   W12
@  #03 @005   ----------------------------------------
 .byte   W92
 .byte   W03
 .byte   EOT
 .byte   As1 ,v053
 .byte   As2
 .byte   W01
@  #03 @006   ----------------------------------------
 .byte   PATT
  .word Label_0140829D
@  #03 @007   ----------------------------------------
 .byte   PATT
  .word Label_014082B4
@  #03 @008   ----------------------------------------
Label_014082E3:
 .byte   N11 ,Gn1 ,v096
 .byte   N11 ,As1
 .byte   W12
 .byte   Gn1
 .byte   N11 ,As1
 .byte   W12
 .byte   Gn1
 .byte   N11 ,As1
 .byte   W12
 .byte   Gn1
 .byte   N11 ,As1
 .byte   W12
 .byte   An1
 .byte   N11 ,Cn2
 .byte   W12
 .byte   An1
 .byte   N11 ,Cn2
 .byte   W12
 .byte   An1
 .byte   N11 ,Cn2
 .byte   W12
 .byte   As1
 .byte   N11 ,Dn2
 .byte   W12
 .byte   PEND 
@  #03 @009   ----------------------------------------
Label_01408306:
 .byte   N11 ,As1 ,v096
 .byte   N11 ,Dn2
 .byte   W12
 .byte   As1
 .byte   N11 ,Dn2
 .byte   W12
 .byte   As1
 .byte   N11 ,Dn2
 .byte   W12
 .byte   As1
 .byte   N11 ,Dn2
 .byte   W12
 .byte   As1
 .byte   N11 ,Dn2
 .byte   W12
 .byte   As1
 .byte   N11 ,Dn2
 .byte   W12
 .byte   As1
 .byte   N11 ,Dn2
 .byte   W12
 .byte   As1
 .byte   N11 ,Dn2
 .byte   W12
 .byte   PEND 
@  #03 @010   ----------------------------------------
 .byte   PATT
  .word Label_014082E3
@  #03 @011   ----------------------------------------
Label_0140832E:
 .byte   N11 ,As1 ,v096
 .byte   N11 ,Dn2
 .byte   W12
 .byte   As1
 .byte   N11 ,Dn2
 .byte   W12
 .byte   As1
 .byte   N11 ,Dn2
 .byte   W12
 .byte   As1
 .byte   N11 ,Dn2
 .byte   W12
 .byte   As1
 .byte   N11 ,Ds2
 .byte   W12
 .byte   As1
 .byte   N11 ,Ds2
 .byte   W12
 .byte   As1
 .byte   N11 ,Ds2
 .byte   W12
 .byte   As1
 .byte   N11 ,Ds2
 .byte   W12
 .byte   PEND 
@  #03 @012   ----------------------------------------
 .byte   PATT
  .word Label_014082E3
@  #03 @013   ----------------------------------------
 .byte   PATT
  .word Label_01408306
@  #03 @014   ----------------------------------------
 .byte   PATT
  .word Label_014082E3
@  #03 @015   ----------------------------------------
 .byte   PATT
  .word Label_0140832E
@  #03 @016   ----------------------------------------
Label_01408365:
 .byte   N11 ,Gn1 ,v096
 .byte   N11 ,Dn2
 .byte   W12
 .byte   Gn1
 .byte   N11 ,Dn2
 .byte   W12
 .byte   Gn1
 .byte   N11 ,Dn2
 .byte   W12
 .byte   Gn1
 .byte   N11 ,Dn2
 .byte   W12
 .byte   An1
 .byte   N11 ,En2
 .byte   W12
 .byte   An1
 .byte   N11 ,En2
 .byte   W12
 .byte   An1
 .byte   N11 ,En2
 .byte   W12
 .byte   As1
 .byte   N11 ,Fn2
 .byte   W12
 .byte   PEND 
@  #03 @017   ----------------------------------------
Label_01408388:
 .byte   N11 ,As1 ,v096
 .byte   N11 ,Fn2
 .byte   W12
 .byte   As1
 .byte   N11 ,Fn2
 .byte   W12
 .byte   As1
 .byte   N11 ,Fn2
 .byte   W12
 .byte   As1
 .byte   N11 ,Fn2
 .byte   W12
 .byte   Cn2
 .byte   N11 ,Gn2
 .byte   W12
 .byte   Cn2
 .byte   N11 ,Gn2
 .byte   W12
 .byte   Cn2
 .byte   N11 ,Gn2
 .byte   W12
 .byte   Cn2
 .byte   N11 ,Gn2
 .byte   W12
 .byte   PEND 
@  #03 @018   ----------------------------------------
 .byte   PATT
  .word Label_01408365
@  #03 @019   ----------------------------------------
 .byte   PATT
  .word Label_01408388
@  #03 @020   ----------------------------------------
 .byte   PATT
  .word Label_01408365
@  #03 @021   ----------------------------------------
 .byte   PATT
  .word Label_01408388
@  #03 @022   ----------------------------------------
 .byte   PATT
  .word Label_01408365
@  #03 @023   ----------------------------------------
 .byte   PATT
  .word Label_01408388
@  #03 @024   ----------------------------------------
Label_014083C9:
 .byte   N11 ,Ds2 ,v096
 .byte   N11 ,As2
 .byte   N11 ,Ds3
 .byte   W12
 .byte   Ds2
 .byte   N11 ,As2
 .byte   N11 ,Ds3
 .byte   W12
 .byte   Ds2
 .byte   N11 ,As2
 .byte   N11 ,Ds3
 .byte   W12
 .byte   Ds2
 .byte   N11 ,As2
 .byte   N11 ,Ds3
 .byte   W12
 .byte   Ds2
 .byte   N11 ,As2
 .byte   N11 ,Ds3
 .byte   W12
 .byte   Ds2
 .byte   N11 ,As2
 .byte   N11 ,Ds3
 .byte   W12
 .byte   Ds2
 .byte   N11 ,As2
 .byte   N11 ,Ds3
 .byte   W12
 .byte   Ds2
 .byte   N11 ,As2
 .byte   N11 ,Ds3
 .byte   W12
 .byte   PEND 
@  #03 @025   ----------------------------------------
 .byte   PATT
  .word Label_014083C9
@  #03 @026   ----------------------------------------
Label_01408401:
 .byte   N11 ,Gn2 ,v096
 .byte   N11 ,Dn3
 .byte   N11 ,Gn3
 .byte   W12
 .byte   Gn2
 .byte   N11 ,Dn3
 .byte   N11 ,Gn3
 .byte   W12
 .byte   Gn2
 .byte   N11 ,Dn3
 .byte   N11 ,Gn3
 .byte   W12
 .byte   Gn2
 .byte   N11 ,Dn3
 .byte   N11 ,Gn3
 .byte   W12
 .byte   Gn2
 .byte   N11 ,Dn3
 .byte   N11 ,Gn3
 .byte   W12
 .byte   Gn2
 .byte   N11 ,Dn3
 .byte   N11 ,Gn3
 .byte   W12
 .byte   Gn2
 .byte   N11 ,Dn3
 .byte   N11 ,Gn3
 .byte   W12
 .byte   Gn2
 .byte   N11 ,Dn3
 .byte   N11 ,Gn3
 .byte   W12
 .byte   PEND 
@  #03 @027   ----------------------------------------
 .byte   PATT
  .word Label_01408401
@  #03 @028   ----------------------------------------
 .byte   PATT
  .word Label_014083C9
@  #03 @029   ----------------------------------------
 .byte   PATT
  .word Label_014083C9
@  #03 @030   ----------------------------------------
 .byte   PATT
  .word Label_01408401
@  #03 @031   ----------------------------------------
 .byte   PATT
  .word Label_01408401
@  #03 @032   ----------------------------------------
 .byte   PATT
  .word Label_014082E3
@  #03 @033   ----------------------------------------
 .byte   PATT
  .word Label_01408306
@  #03 @034   ----------------------------------------
 .byte   PATT
  .word Label_014082E3
@  #03 @035   ----------------------------------------
 .byte   PATT
  .word Label_0140832E
@  #03 @036   ----------------------------------------
 .byte   PATT
  .word Label_014082E3
@  #03 @037   ----------------------------------------
 .byte   PATT
  .word Label_01408306
@  #03 @038   ----------------------------------------
 .byte   PATT
  .word Label_014082E3
@  #03 @039   ----------------------------------------
 .byte   PATT
  .word Label_0140832E
@  #03 @040   ----------------------------------------
 .byte   PATT
  .word Label_014082E3
@  #03 @041   ----------------------------------------
 .byte   PATT
  .word Label_01408306
@  #03 @042   ----------------------------------------
 .byte   PATT
  .word Label_014082E3
@  #03 @043   ----------------------------------------
 .byte   PATT
  .word Label_0140832E
@  #03 @044   ----------------------------------------
 .byte   PATT
  .word Label_014082E3
@  #03 @045   ----------------------------------------
 .byte   PATT
  .word Label_01408306
@  #03 @046   ----------------------------------------
 .byte   PATT
  .word Label_014082E3
@  #03 @047   ----------------------------------------
 .byte   PATT
  .word Label_0140832E
@  #03 @048   ----------------------------------------
 .byte   PATT
  .word Label_01408365
@  #03 @049   ----------------------------------------
 .byte   PATT
  .word Label_01408388
@  #03 @050   ----------------------------------------
 .byte   PATT
  .word Label_01408365
@  #03 @051   ----------------------------------------
 .byte   PATT
  .word Label_01408388
@  #03 @052   ----------------------------------------
 .byte   PATT
  .word Label_01408365
@  #03 @053   ----------------------------------------
 .byte   PATT
  .word Label_01408388
@  #03 @054   ----------------------------------------
 .byte   PATT
  .word Label_01408365
@  #03 @055   ----------------------------------------
 .byte   PATT
  .word Label_01408388
@  #03 @056   ----------------------------------------
 .byte   PATT
  .word Label_014083C9
@  #03 @057   ----------------------------------------
 .byte   PATT
  .word Label_014083C9
@  #03 @058   ----------------------------------------
 .byte   PATT
  .word Label_01408401
@  #03 @059   ----------------------------------------
 .byte   PATT
  .word Label_01408401
@  #03 @060   ----------------------------------------
 .byte   PATT
  .word Label_014083C9
@  #03 @061   ----------------------------------------
 .byte   PATT
  .word Label_014083C9
@  #03 @062   ----------------------------------------
 .byte   PATT
  .word Label_01408401
@  #03 @063   ----------------------------------------
Label_014084E8:
 .byte   N44 ,Gn2 ,v096
 .byte   N44 ,Dn3
 .byte   N44 ,Gn3
 .byte   W48
 .byte   Fn2
 .byte   N44 ,Cn3
 .byte   N44 ,Fn3
 .byte   W48
 .byte   PEND 
@  #03 @064   ----------------------------------------
 .byte   PATT
  .word Label_014083C9
@  #03 @065   ----------------------------------------
 .byte   PATT
  .word Label_014083C9
@  #03 @066   ----------------------------------------
 .byte   PATT
  .word Label_01408401
@  #03 @067   ----------------------------------------
 .byte   PATT
  .word Label_01408401
@  #03 @068   ----------------------------------------
 .byte   PATT
  .word Label_014083C9
@  #03 @069   ----------------------------------------
Label_01408510:
 .byte   N11 ,Dn2 ,v096
 .byte   N11 ,An2
 .byte   N11 ,Dn3
 .byte   W12
 .byte   Dn2
 .byte   N11 ,An2
 .byte   N11 ,Dn3
 .byte   W12
 .byte   Dn2
 .byte   N11 ,An2
 .byte   N11 ,Dn3
 .byte   W12
 .byte   Dn2
 .byte   N11 ,An2
 .byte   N11 ,Dn3
 .byte   W12
 .byte   Dn2
 .byte   N11 ,An2
 .byte   N11 ,Dn3
 .byte   W12
 .byte   Dn2
 .byte   N11 ,An2
 .byte   N11 ,Dn3
 .byte   W12
 .byte   Dn2
 .byte   N11 ,An2
 .byte   N11 ,Dn3
 .byte   W12
 .byte   Dn2
 .byte   N11 ,An2
 .byte   N11 ,Dn3
 .byte   W12
 .byte   PEND 
@  #03 @070   ----------------------------------------
Label_01408543:
 .byte   N11 ,Gn2 ,v096
 .byte   N11 ,Dn3
 .byte   N11 ,Gn3
 .byte   W12
 .byte   Gn2
 .byte   N11 ,Dn3
 .byte   N11 ,Gn3
 .byte   W12
 .byte   Gn2
 .byte   N11 ,Dn3
 .byte   N11 ,Gn3
 .byte   W12
 .byte   Gn2
 .byte   N11 ,Dn3
 .byte   N11 ,Gn3
 .byte   W12
 .byte   Fs2
 .byte   N11 ,Cs3
 .byte   N11 ,Fs3
 .byte   W12
 .byte   Fs2
 .byte   N11 ,Cs3
 .byte   N11 ,Fs3
 .byte   W12
 .byte   Fs2
 .byte   N11 ,Cs3
 .byte   N11 ,Fs3
 .byte   W12
 .byte   Fs2
 .byte   N11 ,Cs3
 .byte   N11 ,Fs3
 .byte   W12
 .byte   PEND 
@  #03 @071   ----------------------------------------
Label_01408576:
 .byte   N11 ,Fn2 ,v096
 .byte   N11 ,Cn3
 .byte   N11 ,Fn3
 .byte   W12
 .byte   Fn2
 .byte   N11 ,Cn3
 .byte   N11 ,Fn3
 .byte   W12
 .byte   Fn2
 .byte   N11 ,Cn3
 .byte   N11 ,Fn3
 .byte   W12
 .byte   Fn2
 .byte   N11 ,Cn3
 .byte   N11 ,Fn3
 .byte   W12
 .byte   As1
 .byte   N11 ,Fn2
 .byte   N11 ,As2
 .byte   W12
 .byte   As1
 .byte   N11 ,Fn2
 .byte   N11 ,As2
 .byte   W12
 .byte   As1
 .byte   N11 ,Fn2
 .byte   N11 ,As2
 .byte   W12
 .byte   As1
 .byte   N11 ,Fn2
 .byte   N11 ,As2
 .byte   W12
 .byte   PEND 
@  #03 @072   ----------------------------------------
 .byte   PATT
  .word Label_014083C9
@  #03 @073   ----------------------------------------
 .byte   PATT
  .word Label_014083C9
@  #03 @074   ----------------------------------------
 .byte   PATT
  .word Label_01408510
@  #03 @075   ----------------------------------------
 .byte   PATT
  .word Label_01408401
@  #03 @076   ----------------------------------------
Label_014085BD:
 .byte   N11 ,Cn2 ,v096
 .byte   N11 ,Gn2
 .byte   N11 ,Cn3
 .byte   W12
 .byte   Cn2
 .byte   N11 ,Gn2
 .byte   N11 ,Cn3
 .byte   W12
 .byte   Cn2
 .byte   N11 ,Gn2
 .byte   N11 ,Cn3
 .byte   W12
 .byte   Cn2
 .byte   N11 ,Gn2
 .byte   N11 ,Cn3
 .byte   W12
 .byte   Cn2
 .byte   N11 ,Gn2
 .byte   N11 ,Cn3
 .byte   W12
 .byte   Cn2
 .byte   N11 ,Gn2
 .byte   N11 ,Cn3
 .byte   W12
 .byte   Cn2
 .byte   N11 ,Gn2
 .byte   N11 ,Cn3
 .byte   W12
 .byte   Cn2
 .byte   N11 ,Gn2
 .byte   N11 ,Cn3
 .byte   W12
 .byte   PEND 
@  #03 @077   ----------------------------------------
 .byte   PATT
  .word Label_014085BD
@  #03 @078   ----------------------------------------
 .byte   PATT
  .word Label_01408510
@  #03 @079   ----------------------------------------
 .byte   PATT
  .word Label_01408510
@  #03 @080   ----------------------------------------
 .byte   PATT
  .word Label_014082E3
@  #03 @081   ----------------------------------------
 .byte   PATT
  .word Label_01408306
@  #03 @082   ----------------------------------------
 .byte   PATT
  .word Label_014082E3
@  #03 @083   ----------------------------------------
 .byte   PATT
  .word Label_0140832E
@  #03 @084   ----------------------------------------
 .byte   PATT
  .word Label_014082E3
@  #03 @085   ----------------------------------------
 .byte   PATT
  .word Label_01408306
@  #03 @086   ----------------------------------------
 .byte   PATT
  .word Label_014082E3
@  #03 @087   ----------------------------------------
 .byte   PATT
  .word Label_0140832E
@  #03 @088   ----------------------------------------
 .byte   PATT
  .word Label_014082E3
@  #03 @089   ----------------------------------------
 .byte   PATT
  .word Label_01408306
@  #03 @090   ----------------------------------------
 .byte   PATT
  .word Label_014082E3
@  #03 @091   ----------------------------------------
 .byte   PATT
  .word Label_0140832E
@  #03 @092   ----------------------------------------
 .byte   PATT
  .word Label_014082E3
@  #03 @093   ----------------------------------------
 .byte   PATT
  .word Label_01408306
@  #03 @094   ----------------------------------------
 .byte   PATT
  .word Label_014082E3
@  #03 @095   ----------------------------------------
 .byte   PATT
  .word Label_0140832E
@  #03 @096   ----------------------------------------
 .byte   GOTO
  .word Label_01408365
@  #03 @097   ----------------------------------------
 .byte   PATT
  .word Label_01408365
@  #03 @098   ----------------------------------------
 .byte   PATT
  .word Label_01408388
@  #03 @099   ----------------------------------------
 .byte   PATT
  .word Label_01408365
@  #03 @100   ----------------------------------------
 .byte   PATT
  .word Label_01408388
@  #03 @101   ----------------------------------------
 .byte   PATT
  .word Label_01408365
@  #03 @102   ----------------------------------------
 .byte   PATT
  .word Label_01408388
@  #03 @103   ----------------------------------------
 .byte   PATT
  .word Label_01408365
@  #03 @104   ----------------------------------------
 .byte   PATT
  .word Label_01408388
@  #03 @105   ----------------------------------------
 .byte   PATT
  .word Label_014083C9
@  #03 @106   ----------------------------------------
 .byte   PATT
  .word Label_014083C9
@  #03 @107   ----------------------------------------
 .byte   PATT
  .word Label_01408401
@  #03 @108   ----------------------------------------
 .byte   PATT
  .word Label_01408401
@  #03 @109   ----------------------------------------
 .byte   PATT
  .word Label_014083C9
@  #03 @110   ----------------------------------------
 .byte   PATT
  .word Label_014083C9
@  #03 @111   ----------------------------------------
 .byte   PATT
  .word Label_01408401
@  #03 @112   ----------------------------------------
 .byte   PATT
  .word Label_01408401
@  #03 @113   ----------------------------------------
 .byte   PATT
  .word Label_014082E3
@  #03 @114   ----------------------------------------
 .byte   PATT
  .word Label_01408306
@  #03 @115   ----------------------------------------
 .byte   PATT
  .word Label_014082E3
@  #03 @116   ----------------------------------------
 .byte   PATT
  .word Label_0140832E
@  #03 @117   ----------------------------------------
 .byte   PATT
  .word Label_014082E3
@  #03 @118   ----------------------------------------
 .byte   PATT
  .word Label_01408306
@  #03 @119   ----------------------------------------
 .byte   PATT
  .word Label_014082E3
@  #03 @120   ----------------------------------------
 .byte   PATT
  .word Label_0140832E
@  #03 @121   ----------------------------------------
 .byte   PATT
  .word Label_014082E3
@  #03 @122   ----------------------------------------
 .byte   PATT
  .word Label_01408306
@  #03 @123   ----------------------------------------
 .byte   PATT
  .word Label_014082E3
@  #03 @124   ----------------------------------------
 .byte   PATT
  .word Label_0140832E
@  #03 @125   ----------------------------------------
 .byte   PATT
  .word Label_014082E3
@  #03 @126   ----------------------------------------
 .byte   PATT
  .word Label_01408306
@  #03 @127   ----------------------------------------
 .byte   PATT
  .word Label_014082E3
@  #03 @128   ----------------------------------------
 .byte   PATT
  .word Label_0140832E
@  #03 @129   ----------------------------------------
 .byte   PATT
  .word Label_01408365
@  #03 @130   ----------------------------------------
 .byte   PATT
  .word Label_01408388
@  #03 @131   ----------------------------------------
 .byte   PATT
  .word Label_01408365
@  #03 @132   ----------------------------------------
 .byte   PATT
  .word Label_01408388
@  #03 @133   ----------------------------------------
 .byte   PATT
  .word Label_01408365
@  #03 @134   ----------------------------------------
 .byte   PATT
  .word Label_01408388
@  #03 @135   ----------------------------------------
 .byte   PATT
  .word Label_01408365
@  #03 @136   ----------------------------------------
 .byte   PATT
  .word Label_01408388
@  #03 @137   ----------------------------------------
 .byte   PATT
  .word Label_014083C9
@  #03 @138   ----------------------------------------
 .byte   PATT
  .word Label_014083C9
@  #03 @139   ----------------------------------------
 .byte   PATT
  .word Label_01408401
@  #03 @140   ----------------------------------------
 .byte   PATT
  .word Label_01408401
@  #03 @141   ----------------------------------------
 .byte   PATT
  .word Label_014083C9
@  #03 @142   ----------------------------------------
 .byte   PATT
  .word Label_014083C9
@  #03 @143   ----------------------------------------
 .byte   PATT
  .word Label_01408401
@  #03 @144   ----------------------------------------
 .byte   PATT
  .word Label_014084E8
@  #03 @145   ----------------------------------------
 .byte   PATT
  .word Label_014083C9
@  #03 @146   ----------------------------------------
 .byte   PATT
  .word Label_014083C9
@  #03 @147   ----------------------------------------
 .byte   PATT
  .word Label_01408401
@  #03 @148   ----------------------------------------
 .byte   PATT
  .word Label_01408401
@  #03 @149   ----------------------------------------
 .byte   PATT
  .word Label_014083C9
@  #03 @150   ----------------------------------------
 .byte   PATT
  .word Label_01408510
@  #03 @151   ----------------------------------------
 .byte   PATT
  .word Label_01408543
@  #03 @152   ----------------------------------------
 .byte   PATT
  .word Label_01408576
@  #03 @153   ----------------------------------------
 .byte   PATT
  .word Label_014083C9
@  #03 @154   ----------------------------------------
 .byte   PATT
  .word Label_014083C9
@  #03 @155   ----------------------------------------
 .byte   PATT
  .word Label_01408510
@  #03 @156   ----------------------------------------
 .byte   PATT
  .word Label_01408401
@  #03 @157   ----------------------------------------
 .byte   PATT
  .word Label_014085BD
@  #03 @158   ----------------------------------------
 .byte   PATT
  .word Label_014085BD
@  #03 @159   ----------------------------------------
 .byte   PATT
  .word Label_01408510
@  #03 @160   ----------------------------------------
 .byte   PATT
  .word Label_01408510
@  #03 @161   ----------------------------------------
 .byte   PATT
  .word Label_014082E3
@  #03 @162   ----------------------------------------
 .byte   PATT
  .word Label_01408306
@  #03 @163   ----------------------------------------
 .byte   PATT
  .word Label_014082E3
@  #03 @164   ----------------------------------------
 .byte   PATT
  .word Label_0140832E
@  #03 @165   ----------------------------------------
 .byte   PATT
  .word Label_014082E3
@  #03 @166   ----------------------------------------
 .byte   PATT
  .word Label_01408306
@  #03 @167   ----------------------------------------
 .byte   PATT
  .word Label_014082E3
@  #03 @168   ----------------------------------------
 .byte   PATT
  .word Label_0140832E
@  #03 @169   ----------------------------------------
 .byte   PATT
  .word Label_014082E3
@  #03 @170   ----------------------------------------
 .byte   PATT
  .word Label_01408306
@  #03 @171   ----------------------------------------
 .byte   PATT
  .word Label_014082E3
@  #03 @172   ----------------------------------------
 .byte   PATT
  .word Label_0140832E
@  #03 @173   ----------------------------------------
 .byte   PATT
  .word Label_014082E3
@  #03 @174   ----------------------------------------
 .byte   PATT
  .word Label_01408306
@  #03 @175   ----------------------------------------
 .byte   PATT
  .word Label_014082E3
@  #03 @176   ----------------------------------------
 .byte   N11 ,As1 ,v096
 .byte   N11 ,Dn2
 .byte   W12
 .byte   As1
 .byte   N11 ,Dn2
 .byte   W12
 .byte   As1
 .byte   N11 ,Dn2
 .byte   W12
 .byte   As1
 .byte   N11 ,Dn2
 .byte   W12
 .byte   As1
 .byte   N11 ,Ds2
 .byte   W12
 .byte   As1
 .byte   N11 ,Ds2
 .byte   W12
 .byte   N23 ,As1
 .byte   N23 ,Ds2
 .byte   W23
 .byte   FINE

@**************** Track 4 (Midi-Chn.3) ****************@

song04_004:
@  #04 @000   ----------------------------------------
 .byte   KEYSH , song04_key+0
 .byte   VOICE , 38
 .byte   VOL , 51*song04_mvl/mxv
 .byte   PAN , c_v+0
 .byte   N44 ,Gn0 ,v096
 .byte   W48
 .byte   N32 ,An0
 .byte   W36
 .byte   TIE ,As0
 .byte   W12
@  #04 @001   ----------------------------------------
 .byte   W92
 .byte   W03
 .byte   EOT
 .byte   W01
@  #04 @002   ----------------------------------------
Label_01408826:
 .byte   N44 ,Gn0 ,v096
 .byte   W48
 .byte   N32 ,An0
 .byte   W36
 .byte   N56 ,As0
 .byte   W12
 .byte   PEND 
@  #04 @003   ----------------------------------------
 .byte   W48
 .byte   N44 ,Cn1
 .byte   W48
@  #04 @004   ----------------------------------------
 .byte   Gn0
 .byte   W48
 .byte   N32 ,An0
 .byte   W36
 .byte   TIE ,As0
 .byte   W12
@  #04 @005   ----------------------------------------
 .byte   W92
 .byte   W03
 .byte   EOT
 .byte   W01
@  #04 @006   ----------------------------------------
 .byte   PATT
  .word Label_01408826
@  #04 @007   ----------------------------------------
 .byte   W48
 .byte   N44 ,Cn1 ,v096
 .byte   W48
@  #04 @008   ----------------------------------------
Label_0140884B:
 .byte   N11 ,Gn0 ,v096
 .byte   W12
 .byte   N11
 .byte   W12
 .byte   N11
 .byte   W12
 .byte   N11
 .byte   W12
 .byte   An0
 .byte   W12
 .byte   N11
 .byte   W12
 .byte   N11
 .byte   W12
 .byte   As0
 .byte   W12
 .byte   PEND 
@  #04 @009   ----------------------------------------
Label_0140885E:
 .byte   N11 ,As0 ,v096
 .byte   W12
 .byte   N11
 .byte   W12
 .byte   N11
 .byte   W12
 .byte   N11
 .byte   W12
 .byte   N11
 .byte   W12
 .byte   N11
 .byte   W12
 .byte   N11
 .byte   W12
 .byte   N11
 .byte   W12
 .byte   PEND 
@  #04 @010   ----------------------------------------
 .byte   PATT
  .word Label_0140884B
@  #04 @011   ----------------------------------------
Label_01408876:
 .byte   N11 ,As0 ,v096
 .byte   W12
 .byte   N11
 .byte   W12
 .byte   N11
 .byte   W12
 .byte   N11
 .byte   W12
 .byte   Cn1
 .byte   W12
 .byte   N11
 .byte   W12
 .byte   N11
 .byte   W12
 .byte   N11
 .byte   W12
 .byte   PEND 
@  #04 @012   ----------------------------------------
 .byte   PATT
  .word Label_0140884B
@  #04 @013   ----------------------------------------
 .byte   PATT
  .word Label_0140885E
@  #04 @014   ----------------------------------------
 .byte   PATT
  .word Label_0140884B
@  #04 @015   ----------------------------------------
 .byte   PATT
  .word Label_01408876
@  #04 @016   ----------------------------------------
Label_0140889D:
@  #04 @017   ----------------------------------------
 .byte   PATT
  .word Label_0140884B
@  #04 @018   ----------------------------------------
 .byte   PATT
  .word Label_01408876
@  #04 @019   ----------------------------------------
 .byte   PATT
  .word Label_0140884B
@  #04 @020   ----------------------------------------
 .byte   PATT
  .word Label_01408876
@  #04 @021   ----------------------------------------
 .byte   PATT
  .word Label_0140884B
@  #04 @022   ----------------------------------------
 .byte   PATT
  .word Label_01408876
@  #04 @023   ----------------------------------------
 .byte   PATT
  .word Label_0140884B
@  #04 @024   ----------------------------------------
 .byte   PATT
  .word Label_01408876
@  #04 @025   ----------------------------------------
Label_014088C5:
 .byte   N11 ,Ds1 ,v096
 .byte   W12
 .byte   N11
 .byte   W12
 .byte   N11
 .byte   W12
 .byte   N11
 .byte   W12
 .byte   N11
 .byte   W12
 .byte   N11
 .byte   W12
 .byte   N11
 .byte   W12
 .byte   N11
 .byte   W12
 .byte   PEND 
@  #04 @026   ----------------------------------------
 .byte   PATT
  .word Label_014088C5
@  #04 @027   ----------------------------------------
Label_014088DD:
 .byte   N11 ,Gn0 ,v096
 .byte   W12
 .byte   N11
 .byte   W12
 .byte   N11
 .byte   W12
 .byte   N11
 .byte   W12
 .byte   N11
 .byte   W12
 .byte   N11
 .byte   W12
 .byte   N11
 .byte   W12
 .byte   N11
 .byte   W12
 .byte   PEND 
@  #04 @028   ----------------------------------------
 .byte   PATT
  .word Label_014088DD
@  #04 @029   ----------------------------------------
 .byte   PATT
  .word Label_014088C5
@  #04 @030   ----------------------------------------
 .byte   PATT
  .word Label_014088C5
@  #04 @031   ----------------------------------------
 .byte   PATT
  .word Label_014088DD
@  #04 @032   ----------------------------------------
 .byte   PATT
  .word Label_014088DD
@  #04 @033   ----------------------------------------
 .byte   PATT
  .word Label_0140884B
@  #04 @034   ----------------------------------------
 .byte   PATT
  .word Label_0140885E
@  #04 @035   ----------------------------------------
 .byte   PATT
  .word Label_0140884B
@  #04 @036   ----------------------------------------
 .byte   PATT
  .word Label_01408876
@  #04 @037   ----------------------------------------
 .byte   PATT
  .word Label_0140884B
@  #04 @038   ----------------------------------------
 .byte   PATT
  .word Label_0140885E
@  #04 @039   ----------------------------------------
 .byte   PATT
  .word Label_0140884B
@  #04 @040   ----------------------------------------
 .byte   PATT
  .word Label_01408876
@  #04 @041   ----------------------------------------
 .byte   PATT
  .word Label_0140884B
@  #04 @042   ----------------------------------------
 .byte   PATT
  .word Label_0140885E
@  #04 @043   ----------------------------------------
 .byte   PATT
  .word Label_0140884B
@  #04 @044   ----------------------------------------
 .byte   PATT
  .word Label_01408876
@  #04 @045   ----------------------------------------
 .byte   PATT
  .word Label_0140884B
@  #04 @046   ----------------------------------------
 .byte   PATT
  .word Label_0140885E
@  #04 @047   ----------------------------------------
 .byte   PATT
  .word Label_0140884B
@  #04 @048   ----------------------------------------
 .byte   PATT
  .word Label_01408876
@  #04 @049   ----------------------------------------
 .byte   PATT
  .word Label_0140884B
@  #04 @050   ----------------------------------------
 .byte   PATT
  .word Label_01408876
@  #04 @051   ----------------------------------------
 .byte   PATT
  .word Label_0140884B
@  #04 @052   ----------------------------------------
 .byte   PATT
  .word Label_01408876
@  #04 @053   ----------------------------------------
 .byte   PATT
  .word Label_0140884B
@  #04 @054   ----------------------------------------
 .byte   PATT
  .word Label_01408876
@  #04 @055   ----------------------------------------
 .byte   PATT
  .word Label_0140884B
@  #04 @056   ----------------------------------------
 .byte   PATT
  .word Label_01408876
@  #04 @057   ----------------------------------------
 .byte   PATT
  .word Label_014088C5
@  #04 @058   ----------------------------------------
 .byte   PATT
  .word Label_014088C5
@  #04 @059   ----------------------------------------
 .byte   PATT
  .word Label_014088DD
@  #04 @060   ----------------------------------------
 .byte   PATT
  .word Label_014088DD
@  #04 @061   ----------------------------------------
 .byte   PATT
  .word Label_014088C5
@  #04 @062   ----------------------------------------
 .byte   PATT
  .word Label_014088C5
@  #04 @063   ----------------------------------------
 .byte   PATT
  .word Label_014088DD
@  #04 @064   ----------------------------------------
Label_014089A4:
 .byte   N44 ,Gn0 ,v127
 .byte   W48
 .byte   Fn0
 .byte   W48
 .byte   PEND 
@  #04 @065   ----------------------------------------
Label_014089AB:
 .byte   N11 ,Ds0 ,v096
 .byte   W12
 .byte   N11
 .byte   W12
 .byte   N11
 .byte   W12
 .byte   N11
 .byte   W12
 .byte   N11
 .byte   W12
 .byte   N11
 .byte   W12
 .byte   N11
 .byte   W12
 .byte   N11
 .byte   W12
 .byte   PEND 
@  #04 @066   ----------------------------------------
 .byte   PATT
  .word Label_014089AB
@  #04 @067   ----------------------------------------
 .byte   PATT
  .word Label_014088DD
@  #04 @068   ----------------------------------------
 .byte   PATT
  .word Label_014088DD
@  #04 @069   ----------------------------------------
 .byte   PATT
  .word Label_014089AB
@  #04 @070   ----------------------------------------
Label_014089D2:
 .byte   N11 ,Dn0 ,v096
 .byte   W12
 .byte   N11
 .byte   W12
 .byte   N11
 .byte   W12
 .byte   N11
 .byte   W12
 .byte   N11
 .byte   W12
 .byte   N11
 .byte   W12
 .byte   N11
 .byte   W12
 .byte   N11
 .byte   W12
 .byte   PEND 
@  #04 @071   ----------------------------------------
Label_014089E5:
 .byte   N11 ,Gn0 ,v096
 .byte   W12
 .byte   N11
 .byte   W12
 .byte   N11
 .byte   W12
 .byte   N11
 .byte   W12
 .byte   Fs0
 .byte   W12
 .byte   N11
 .byte   W12
 .byte   N11
 .byte   W12
 .byte   N11
 .byte   W12
 .byte   PEND 
@  #04 @072   ----------------------------------------
Label_014089F8:
 .byte   N11 ,Fn0 ,v096
 .byte   W12
 .byte   N11
 .byte   W12
 .byte   N11
 .byte   W12
 .byte   N11
 .byte   W12
 .byte   As0
 .byte   W12
 .byte   N11
 .byte   W12
 .byte   N11
 .byte   W12
 .byte   N11
 .byte   W12
 .byte   PEND 
@  #04 @073   ----------------------------------------
 .byte   PATT
  .word Label_014089AB
@  #04 @074   ----------------------------------------
 .byte   PATT
  .word Label_014089AB
@  #04 @075   ----------------------------------------
 .byte   PATT
  .word Label_014089D2
@  #04 @076   ----------------------------------------
 .byte   PATT
  .word Label_014088DD
@  #04 @077   ----------------------------------------
Label_01408A1F:
 .byte   N11 ,Cn1 ,v096
 .byte   W12
 .byte   N11
 .byte   W12
 .byte   N11
 .byte   W12
 .byte   N11
 .byte   W12
 .byte   N11
 .byte   W12
 .byte   N11
 .byte   W12
 .byte   N11
 .byte   W12
 .byte   N11
 .byte   W12
 .byte   PEND 
@  #04 @078   ----------------------------------------
 .byte   PATT
  .word Label_01408A1F
@  #04 @079   ----------------------------------------
Label_01408A37:
 .byte   N11 ,Dn1 ,v096
 .byte   W12
 .byte   N11
 .byte   W12
 .byte   N11
 .byte   W12
 .byte   N11
 .byte   W12
 .byte   N11
 .byte   W12
 .byte   N11
 .byte   W12
 .byte   N11
 .byte   W12
 .byte   N11
 .byte   W12
 .byte   PEND 
@  #04 @080   ----------------------------------------
 .byte   PATT
  .word Label_014089D2
@  #04 @081   ----------------------------------------
 .byte   PATT
  .word Label_0140884B
@  #04 @082   ----------------------------------------
 .byte   PATT
  .word Label_0140885E
@  #04 @083   ----------------------------------------
 .byte   PATT
  .word Label_0140884B
@  #04 @084   ----------------------------------------
 .byte   PATT
  .word Label_01408876
@  #04 @085   ----------------------------------------
 .byte   PATT
  .word Label_0140884B
@  #04 @086   ----------------------------------------
 .byte   PATT
  .word Label_0140885E
@  #04 @087   ----------------------------------------
 .byte   PATT
  .word Label_0140884B
@  #04 @088   ----------------------------------------
 .byte   PATT
  .word Label_01408876
@  #04 @089   ----------------------------------------
 .byte   PATT
  .word Label_0140884B
@  #04 @090   ----------------------------------------
 .byte   PATT
  .word Label_0140885E
@  #04 @091   ----------------------------------------
 .byte   PATT
  .word Label_0140884B
@  #04 @092   ----------------------------------------
 .byte   PATT
  .word Label_01408876
@  #04 @093   ----------------------------------------
 .byte   PATT
  .word Label_0140884B
@  #04 @094   ----------------------------------------
 .byte   PATT
  .word Label_0140885E
@  #04 @095   ----------------------------------------
 .byte   PATT
  .word Label_0140884B
@  #04 @096   ----------------------------------------
 .byte   PATT
  .word Label_01408876
@  #04 @097   ----------------------------------------
 .byte   GOTO
  .word Label_0140889D
@  #04 @098   ----------------------------------------
 .byte   PATT
  .word Label_0140884B
@  #04 @099   ----------------------------------------
 .byte   PATT
  .word Label_01408876
@  #04 @100   ----------------------------------------
 .byte   PATT
  .word Label_0140884B
@  #04 @101   ----------------------------------------
 .byte   PATT
  .word Label_01408876
@  #04 @102   ----------------------------------------
 .byte   PATT
  .word Label_0140884B
@  #04 @103   ----------------------------------------
 .byte   PATT
  .word Label_01408876
@  #04 @104   ----------------------------------------
 .byte   PATT
  .word Label_0140884B
@  #04 @105   ----------------------------------------
 .byte   PATT
  .word Label_01408876
@  #04 @106   ----------------------------------------
 .byte   PATT
  .word Label_014088C5
@  #04 @107   ----------------------------------------
 .byte   PATT
  .word Label_014088C5
@  #04 @108   ----------------------------------------
 .byte   PATT
  .word Label_014088DD
@  #04 @109   ----------------------------------------
 .byte   PATT
  .word Label_014088DD
@  #04 @110   ----------------------------------------
 .byte   PATT
  .word Label_014088C5
@  #04 @111   ----------------------------------------
 .byte   PATT
  .word Label_014088C5
@  #04 @112   ----------------------------------------
 .byte   PATT
  .word Label_014088DD
@  #04 @113   ----------------------------------------
 .byte   PATT
  .word Label_014088DD
@  #04 @114   ----------------------------------------
 .byte   PATT
  .word Label_0140884B
@  #04 @115   ----------------------------------------
 .byte   PATT
  .word Label_0140885E
@  #04 @116   ----------------------------------------
 .byte   PATT
  .word Label_0140884B
@  #04 @117   ----------------------------------------
 .byte   PATT
  .word Label_01408876
@  #04 @118   ----------------------------------------
 .byte   PATT
  .word Label_0140884B
@  #04 @119   ----------------------------------------
 .byte   PATT
  .word Label_0140885E
@  #04 @120   ----------------------------------------
 .byte   PATT
  .word Label_0140884B
@  #04 @121   ----------------------------------------
 .byte   PATT
  .word Label_01408876
@  #04 @122   ----------------------------------------
 .byte   PATT
  .word Label_0140884B
@  #04 @123   ----------------------------------------
 .byte   PATT
  .word Label_0140885E
@  #04 @124   ----------------------------------------
 .byte   PATT
  .word Label_0140884B
@  #04 @125   ----------------------------------------
 .byte   PATT
  .word Label_01408876
@  #04 @126   ----------------------------------------
 .byte   PATT
  .word Label_0140884B
@  #04 @127   ----------------------------------------
 .byte   PATT
  .word Label_0140885E
@  #04 @128   ----------------------------------------
 .byte   PATT
  .word Label_0140884B
@  #04 @129   ----------------------------------------
 .byte   PATT
  .word Label_01408876
@  #04 @130   ----------------------------------------
 .byte   PATT
  .word Label_0140884B
@  #04 @131   ----------------------------------------
 .byte   PATT
  .word Label_01408876
@  #04 @132   ----------------------------------------
 .byte   PATT
  .word Label_0140884B
@  #04 @133   ----------------------------------------
 .byte   PATT
  .word Label_01408876
@  #04 @134   ----------------------------------------
 .byte   PATT
  .word Label_0140884B
@  #04 @135   ----------------------------------------
 .byte   PATT
  .word Label_01408876
@  #04 @136   ----------------------------------------
 .byte   PATT
  .word Label_0140884B
@  #04 @137   ----------------------------------------
 .byte   PATT
  .word Label_01408876
@  #04 @138   ----------------------------------------
 .byte   PATT
  .word Label_014088C5
@  #04 @139   ----------------------------------------
 .byte   PATT
  .word Label_014088C5
@  #04 @140   ----------------------------------------
 .byte   PATT
  .word Label_014088DD
@  #04 @141   ----------------------------------------
 .byte   PATT
  .word Label_014088DD
@  #04 @142   ----------------------------------------
 .byte   PATT
  .word Label_014088C5
@  #04 @143   ----------------------------------------
 .byte   PATT
  .word Label_014088C5
@  #04 @144   ----------------------------------------
 .byte   PATT
  .word Label_014088DD
@  #04 @145   ----------------------------------------
 .byte   PATT
  .word Label_014089A4
@  #04 @146   ----------------------------------------
 .byte   PATT
  .word Label_014089AB
@  #04 @147   ----------------------------------------
 .byte   PATT
  .word Label_014089AB
@  #04 @148   ----------------------------------------
 .byte   PATT
  .word Label_014088DD
@  #04 @149   ----------------------------------------
 .byte   PATT
  .word Label_014088DD
@  #04 @150   ----------------------------------------
 .byte   PATT
  .word Label_014089AB
@  #04 @151   ----------------------------------------
 .byte   PATT
  .word Label_014089D2
@  #04 @152   ----------------------------------------
 .byte   PATT
  .word Label_014089E5
@  #04 @153   ----------------------------------------
 .byte   PATT
  .word Label_014089F8
@  #04 @154   ----------------------------------------
 .byte   PATT
  .word Label_014089AB
@  #04 @155   ----------------------------------------
 .byte   PATT
  .word Label_014089AB
@  #04 @156   ----------------------------------------
 .byte   PATT
  .word Label_014089D2
@  #04 @157   ----------------------------------------
 .byte   PATT
  .word Label_014088DD
@  #04 @158   ----------------------------------------
 .byte   PATT
  .word Label_01408A1F
@  #04 @159   ----------------------------------------
 .byte   PATT
  .word Label_01408A1F
@  #04 @160   ----------------------------------------
 .byte   PATT
  .word Label_01408A37
@  #04 @161   ----------------------------------------
 .byte   PATT
  .word Label_014089D2
@  #04 @162   ----------------------------------------
 .byte   PATT
  .word Label_0140884B
@  #04 @163   ----------------------------------------
 .byte   PATT
  .word Label_0140885E
@  #04 @164   ----------------------------------------
 .byte   PATT
  .word Label_0140884B
@  #04 @165   ----------------------------------------
 .byte   PATT
  .word Label_01408876
@  #04 @166   ----------------------------------------
 .byte   PATT
  .word Label_0140884B
@  #04 @167   ----------------------------------------
 .byte   PATT
  .word Label_0140885E
@  #04 @168   ----------------------------------------
 .byte   PATT
  .word Label_0140884B
@  #04 @169   ----------------------------------------
 .byte   PATT
  .word Label_01408876
@  #04 @170   ----------------------------------------
 .byte   PATT
  .word Label_0140884B
@  #04 @171   ----------------------------------------
 .byte   PATT
  .word Label_0140885E
@  #04 @172   ----------------------------------------
 .byte   PATT
  .word Label_0140884B
@  #04 @173   ----------------------------------------
 .byte   PATT
  .word Label_01408876
@  #04 @174   ----------------------------------------
 .byte   PATT
  .word Label_0140884B
@  #04 @175   ----------------------------------------
 .byte   PATT
  .word Label_0140885E
@  #04 @176   ----------------------------------------
 .byte   PATT
  .word Label_0140884B
@  #04 @177   ----------------------------------------
 .byte   N11 ,As0 ,v096
 .byte   W12
 .byte   N11
 .byte   W12
 .byte   N11
 .byte   W12
 .byte   N11
 .byte   W12
 .byte   Cn1
 .byte   W12
 .byte   N11
 .byte   W12
 .byte   N23
 .byte   W23
 .byte   FINE

@**************** Track 5 (Midi-Chn.4) ****************@

song04_005:
@  #05 @000   ----------------------------------------
 .byte   KEYSH , song04_key+0
 .byte   VOICE , 124
 .byte   VOL , 38*song04_mvl/mxv
 .byte   PAN , c_v+0
 .byte   N32 ,Cn1 ,v096
 .byte   N23 ,Cs2
 .byte   W24
 .byte   As1
 .byte   W12
 .byte   N11 ,Cn1
 .byte   W12
 .byte   N23 ,Dn1
 .byte   N23 ,As1
 .byte   W24
 .byte   N23
 .byte   W12
 .byte   N11 ,Cn1
 .byte   W12
@  #05 @001   ----------------------------------------
Label_01408C6D:
 .byte   N23 ,As1 ,v096
 .byte   W12
 .byte   N11 ,Cn1
 .byte   W12
 .byte   N23 ,As1
 .byte   W12
 .byte   N11 ,Cn1
 .byte   W12
 .byte   N23 ,Dn1
 .byte   N23 ,As1
 .byte   W24
 .byte   N23
 .byte   W12
 .byte   N11 ,Cn1
 .byte   W12
 .byte   PEND 
@  #05 @002   ----------------------------------------
Label_01408C85:
 .byte   N32 ,Cn1 ,v096
 .byte   N23 ,An2
 .byte   W24
 .byte   As1
 .byte   W12
 .byte   N11 ,Cn1
 .byte   W12
 .byte   N23 ,Dn1
 .byte   N23 ,As1
 .byte   W24
 .byte   N23
 .byte   W12
 .byte   N11 ,Cn1
 .byte   W12
 .byte   PEND 
@  #05 @003   ----------------------------------------
 .byte   PATT
  .word Label_01408C6D
@  #05 @004   ----------------------------------------
 .byte   N32 ,Cn1 ,v096
 .byte   N23 ,Cs2
 .byte   W24
 .byte   As1
 .byte   W12
 .byte   N11 ,Cn1
 .byte   W12
 .byte   N23 ,Dn1
 .byte   N23 ,As1
 .byte   W24
 .byte   N23
 .byte   W12
 .byte   N11 ,Cn1
 .byte   W12
@  #05 @005   ----------------------------------------
 .byte   PATT
  .word Label_01408C6D
@  #05 @006   ----------------------------------------
 .byte   PATT
  .word Label_01408C85
@  #05 @007   ----------------------------------------
 .byte   N23 ,As1 ,v096
 .byte   W12
 .byte   N11 ,Cn1
 .byte   W12
 .byte   N23 ,As1
 .byte   W12
 .byte   N11 ,Cn1
 .byte   W12
 .byte   N44 ,Dn1
 .byte   N44 ,As1
 .byte   W48
@  #05 @008   ----------------------------------------
Label_01408CD1:
 .byte   N23 ,Cn1 ,v096
 .byte   N23 ,Cs2
 .byte   W24
 .byte   Dn1
 .byte   N23 ,As1
 .byte   W12
 .byte   N11 ,Cn1
 .byte   W12
 .byte   N17
 .byte   N23 ,As1
 .byte   W18
 .byte   N05 ,Cn1
 .byte   W06
 .byte   N11 ,Dn1
 .byte   N11 ,As1
 .byte   W12
 .byte   Cn1
 .byte   N11 ,As1 ,v127
 .byte   W12
 .byte   PEND 
@  #05 @009   ----------------------------------------
Label_01408CF0:
 .byte   N23 ,As1 ,v096
 .byte   W12
 .byte   N11 ,Cn1
 .byte   W12
 .byte   N23 ,Dn1
 .byte   N23 ,As1
 .byte   W12
 .byte   N11 ,Cn1
 .byte   W12
 .byte   N17
 .byte   N23 ,As1
 .byte   W18
 .byte   N05 ,Cn1
 .byte   W06
 .byte   N23 ,Dn1
 .byte   N23 ,As1
 .byte   W12
 .byte   N11 ,Cn1
 .byte   W12
 .byte   PEND 
@  #05 @010   ----------------------------------------
Label_01408D0F:
 .byte   N23 ,Cn1 ,v096
 .byte   N23 ,As1
 .byte   W24
 .byte   Dn1
 .byte   N23 ,As1
 .byte   W12
 .byte   N11 ,Cn1
 .byte   W12
 .byte   N17
 .byte   N23 ,As1
 .byte   W18
 .byte   N05 ,Cn1
 .byte   W06
 .byte   N11 ,Dn1
 .byte   N11 ,As1
 .byte   W12
 .byte   Cn1
 .byte   N11 ,As1 ,v127
 .byte   W12
 .byte   PEND 
@  #05 @011   ----------------------------------------
 .byte   PATT
  .word Label_01408CF0
@  #05 @012   ----------------------------------------
 .byte   PATT
  .word Label_01408CD1
@  #05 @013   ----------------------------------------
 .byte   PATT
  .word Label_01408CF0
@  #05 @014   ----------------------------------------
 .byte   PATT
  .word Label_01408D0F
@  #05 @015   ----------------------------------------
 .byte   PATT
  .word Label_01408CF0
@  #05 @016   ----------------------------------------
Label_01408D47:
@  #05 @017   ----------------------------------------
 .byte   PATT
  .word Label_01408CD1
@  #05 @018   ----------------------------------------
 .byte   PATT
  .word Label_01408CF0
@  #05 @019   ----------------------------------------
 .byte   PATT
  .word Label_01408D0F
@  #05 @020   ----------------------------------------
 .byte   PATT
  .word Label_01408CF0
@  #05 @021   ----------------------------------------
 .byte   PATT
  .word Label_01408CD1
@  #05 @022   ----------------------------------------
 .byte   PATT
  .word Label_01408CF0
@  #05 @023   ----------------------------------------
 .byte   PATT
  .word Label_01408D0F
@  #05 @024   ----------------------------------------
 .byte   PATT
  .word Label_01408CF0
@  #05 @025   ----------------------------------------
Label_01408D6F:
 .byte   N23 ,Cn1 ,v096
 .byte   N23 ,Cs2
 .byte   W24
 .byte   Dn1
 .byte   N23 ,Cs2
 .byte   W24
 .byte   N23
 .byte   W12
 .byte   N11 ,Cn1
 .byte   W12
 .byte   N23 ,Dn1
 .byte   N23 ,Cs2
 .byte   W12
 .byte   N11 ,Cn1
 .byte   W12
 .byte   PEND 
@  #05 @026   ----------------------------------------
Label_01408D87:
 .byte   N23 ,Cs2 ,v096
 .byte   W12
 .byte   N11 ,Cn1
 .byte   W12
 .byte   N23 ,Dn1
 .byte   N23 ,Cs2
 .byte   W24
 .byte   N17 ,Cn1
 .byte   N23 ,Cs2
 .byte   W18
 .byte   N05 ,Cn1
 .byte   W06
 .byte   N23 ,Dn1
 .byte   N23 ,Cs2
 .byte   W24
 .byte   PEND 
@  #05 @027   ----------------------------------------
 .byte   PATT
  .word Label_01408D6F
@  #05 @028   ----------------------------------------
Label_01408DA6:
 .byte   N23 ,Cs2 ,v096
 .byte   W12
 .byte   N11 ,Cn1
 .byte   W12
 .byte   N23 ,Dn1
 .byte   N23 ,Cs2
 .byte   W24
 .byte   N11 ,Cn1
 .byte   N23 ,Cs2
 .byte   W12
 .byte   N11 ,Cn1
 .byte   W12
 .byte   N23 ,Dn1
 .byte   N23 ,Cs2
 .byte   W24
 .byte   PEND 
@  #05 @029   ----------------------------------------
 .byte   PATT
  .word Label_01408D6F
@  #05 @030   ----------------------------------------
 .byte   PATT
  .word Label_01408D87
@  #05 @031   ----------------------------------------
 .byte   PATT
  .word Label_01408D6F
@  #05 @032   ----------------------------------------
Label_01408DCF:
 .byte   N23 ,Cs2 ,v096
 .byte   W12
 .byte   N11 ,Cn1
 .byte   W12
 .byte   N23 ,Dn1
 .byte   N23 ,Cs2
 .byte   W24
 .byte   Cn1 ,v127
 .byte   N23 ,Dn1
 .byte   N23 ,As1
 .byte   W24
 .byte   Cn1
 .byte   N23 ,Dn1
 .byte   N23 ,As1
 .byte   W24
 .byte   PEND 
@  #05 @033   ----------------------------------------
 .byte   PATT
  .word Label_01408CD1
@  #05 @034   ----------------------------------------
 .byte   PATT
  .word Label_01408CF0
@  #05 @035   ----------------------------------------
 .byte   PATT
  .word Label_01408D0F
@  #05 @036   ----------------------------------------
 .byte   PATT
  .word Label_01408CF0
@  #05 @037   ----------------------------------------
 .byte   PATT
  .word Label_01408CD1
@  #05 @038   ----------------------------------------
 .byte   PATT
  .word Label_01408CF0
@  #05 @039   ----------------------------------------
 .byte   PATT
  .word Label_01408D0F
@  #05 @040   ----------------------------------------
 .byte   PATT
  .word Label_01408CF0
@  #05 @041   ----------------------------------------
 .byte   PATT
  .word Label_01408CD1
@  #05 @042   ----------------------------------------
 .byte   PATT
  .word Label_01408CF0
@  #05 @043   ----------------------------------------
 .byte   PATT
  .word Label_01408D0F
@  #05 @044   ----------------------------------------
 .byte   PATT
  .word Label_01408CF0
@  #05 @045   ----------------------------------------
 .byte   PATT
  .word Label_01408CD1
@  #05 @046   ----------------------------------------
 .byte   PATT
  .word Label_01408CF0
@  #05 @047   ----------------------------------------
 .byte   PATT
  .word Label_01408D0F
@  #05 @048   ----------------------------------------
 .byte   PATT
  .word Label_01408CF0
@  #05 @049   ----------------------------------------
 .byte   PATT
  .word Label_01408CD1
@  #05 @050   ----------------------------------------
 .byte   PATT
  .word Label_01408CF0
@  #05 @051   ----------------------------------------
 .byte   PATT
  .word Label_01408D0F
@  #05 @052   ----------------------------------------
 .byte   PATT
  .word Label_01408CF0
@  #05 @053   ----------------------------------------
 .byte   PATT
  .word Label_01408CD1
@  #05 @054   ----------------------------------------
 .byte   PATT
  .word Label_01408CF0
@  #05 @055   ----------------------------------------
 .byte   PATT
  .word Label_01408D0F
@  #05 @056   ----------------------------------------
 .byte   PATT
  .word Label_01408CF0
@  #05 @057   ----------------------------------------
 .byte   PATT
  .word Label_01408D6F
@  #05 @058   ----------------------------------------
 .byte   PATT
  .word Label_01408D87
@  #05 @059   ----------------------------------------
 .byte   PATT
  .word Label_01408D6F
@  #05 @060   ----------------------------------------
 .byte   PATT
  .word Label_01408DA6
@  #05 @061   ----------------------------------------
 .byte   PATT
  .word Label_01408D6F
@  #05 @062   ----------------------------------------
 .byte   PATT
  .word Label_01408D87
@  #05 @063   ----------------------------------------
 .byte   PATT
  .word Label_01408D6F
@  #05 @064   ----------------------------------------
Label_01408E84:
 .byte   N44 ,Dn1 ,v127
 .byte   N44 ,Cs2
 .byte   W48
 .byte   Dn1
 .byte   N44 ,Cs2
 .byte   W48
 .byte   PEND 
@  #05 @065   ----------------------------------------
Label_01408E8F:
 .byte   N23 ,Cn1 ,v096
 .byte   N23 ,Cs2
 .byte   W24
 .byte   Dn1
 .byte   N23 ,As1
 .byte   W24
 .byte   N23
 .byte   W12
 .byte   N11 ,Cn1
 .byte   W12
 .byte   Dn1
 .byte   N11 ,As1
 .byte   W12
 .byte   Cn1
 .byte   N11 ,As1
 .byte   W12
 .byte   PEND 
@  #05 @066   ----------------------------------------
Label_01408EA7:
 .byte   N23 ,As1 ,v096
 .byte   W12
 .byte   N11 ,Cn1
 .byte   W12
 .byte   N23 ,Dn1
 .byte   N23 ,As1
 .byte   W24
 .byte   N11 ,Cn1
 .byte   N23 ,As1
 .byte   W12
 .byte   N11 ,Cn1
 .byte   W12
 .byte   Dn1
 .byte   N11 ,As1
 .byte   W12
 .byte   N11
 .byte   W12
 .byte   PEND 
@  #05 @067   ----------------------------------------
Label_01408EC2:
 .byte   N23 ,Cn1 ,v096
 .byte   N23 ,As1
 .byte   W24
 .byte   Dn1
 .byte   N23 ,As1
 .byte   W24
 .byte   N23
 .byte   W12
 .byte   N11 ,Cn1
 .byte   W12
 .byte   Dn1
 .byte   N11 ,As1
 .byte   W12
 .byte   Cn1
 .byte   N11 ,As1
 .byte   W12
 .byte   PEND 
@  #05 @068   ----------------------------------------
Label_01408EDA:
 .byte   N23 ,As1 ,v096
 .byte   W12
 .byte   N11 ,Cn1
 .byte   W12
 .byte   N23 ,Dn1
 .byte   N23 ,As1
 .byte   W24
 .byte   N17 ,Cn1
 .byte   N23 ,As1
 .byte   W18
 .byte   N05 ,Cn1
 .byte   W06
 .byte   N11 ,Dn1
 .byte   N11 ,As1
 .byte   W12
 .byte   N11
 .byte   W12
 .byte   PEND 
@  #05 @069   ----------------------------------------
 .byte   PATT
  .word Label_01408E8F
@  #05 @070   ----------------------------------------
 .byte   PATT
  .word Label_01408EA7
@  #05 @071   ----------------------------------------
 .byte   PATT
  .word Label_01408EC2
@  #05 @072   ----------------------------------------
 .byte   PATT
  .word Label_01408EDA
@  #05 @073   ----------------------------------------
 .byte   PATT
  .word Label_01408E8F
@  #05 @074   ----------------------------------------
 .byte   PATT
  .word Label_01408EA7
@  #05 @075   ----------------------------------------
 .byte   PATT
  .word Label_01408EC2
@  #05 @076   ----------------------------------------
 .byte   PATT
  .word Label_01408EDA
@  #05 @077   ----------------------------------------
 .byte   PATT
  .word Label_01408E8F
@  #05 @078   ----------------------------------------
 .byte   PATT
  .word Label_01408EA7
@  #05 @079   ----------------------------------------
 .byte   PATT
  .word Label_01408EC2
@  #05 @080   ----------------------------------------
 .byte   PATT
  .word Label_01408EDA
@  #05 @081   ----------------------------------------
 .byte   PATT
  .word Label_01408CD1
@  #05 @082   ----------------------------------------
 .byte   PATT
  .word Label_01408CF0
@  #05 @083   ----------------------------------------
 .byte   PATT
  .word Label_01408D0F
@  #05 @084   ----------------------------------------
 .byte   PATT
  .word Label_01408CF0
@  #05 @085   ----------------------------------------
 .byte   PATT
  .word Label_01408CD1
@  #05 @086   ----------------------------------------
 .byte   PATT
  .word Label_01408CF0
@  #05 @087   ----------------------------------------
 .byte   PATT
  .word Label_01408D0F
@  #05 @088   ----------------------------------------
 .byte   PATT
  .word Label_01408CF0
@  #05 @089   ----------------------------------------
 .byte   PATT
  .word Label_01408CD1
@  #05 @090   ----------------------------------------
 .byte   PATT
  .word Label_01408CF0
@  #05 @091   ----------------------------------------
 .byte   PATT
  .word Label_01408D0F
@  #05 @092   ----------------------------------------
 .byte   PATT
  .word Label_01408CF0
@  #05 @093   ----------------------------------------
 .byte   PATT
  .word Label_01408CD1
@  #05 @094   ----------------------------------------
 .byte   PATT
  .word Label_01408CF0
@  #05 @095   ----------------------------------------
 .byte   PATT
  .word Label_01408D0F
@  #05 @096   ----------------------------------------
 .byte   PATT
  .word Label_01408CF0
@  #05 @097   ----------------------------------------
 .byte   GOTO
  .word Label_01408D47
@  #05 @098   ----------------------------------------
 .byte   PATT
  .word Label_01408CD1
@  #05 @099   ----------------------------------------
 .byte   PATT
  .word Label_01408CF0
@  #05 @100   ----------------------------------------
 .byte   PATT
  .word Label_01408D0F
@  #05 @101   ----------------------------------------
 .byte   PATT
  .word Label_01408CF0
@  #05 @102   ----------------------------------------
 .byte   PATT
  .word Label_01408CD1
@  #05 @103   ----------------------------------------
 .byte   PATT
  .word Label_01408CF0
@  #05 @104   ----------------------------------------
 .byte   PATT
  .word Label_01408D0F
@  #05 @105   ----------------------------------------
 .byte   PATT
  .word Label_01408CF0
@  #05 @106   ----------------------------------------
 .byte   PATT
  .word Label_01408D6F
@  #05 @107   ----------------------------------------
 .byte   PATT
  .word Label_01408D87
@  #05 @108   ----------------------------------------
 .byte   PATT
  .word Label_01408D6F
@  #05 @109   ----------------------------------------
 .byte   PATT
  .word Label_01408DA6
@  #05 @110   ----------------------------------------
 .byte   PATT
  .word Label_01408D6F
@  #05 @111   ----------------------------------------
 .byte   PATT
  .word Label_01408D87
@  #05 @112   ----------------------------------------
 .byte   PATT
  .word Label_01408D6F
@  #05 @113   ----------------------------------------
 .byte   PATT
  .word Label_01408DCF
@  #05 @114   ----------------------------------------
 .byte   PATT
  .word Label_01408CD1
@  #05 @115   ----------------------------------------
 .byte   PATT
  .word Label_01408CF0
@  #05 @116   ----------------------------------------
 .byte   PATT
  .word Label_01408D0F
@  #05 @117   ----------------------------------------
 .byte   PATT
  .word Label_01408CF0
@  #05 @118   ----------------------------------------
 .byte   PATT
  .word Label_01408CD1
@  #05 @119   ----------------------------------------
 .byte   PATT
  .word Label_01408CF0
@  #05 @120   ----------------------------------------
 .byte   PATT
  .word Label_01408D0F
@  #05 @121   ----------------------------------------
 .byte   PATT
  .word Label_01408CF0
@  #05 @122   ----------------------------------------
 .byte   PATT
  .word Label_01408CD1
@  #05 @123   ----------------------------------------
 .byte   PATT
  .word Label_01408CF0
@  #05 @124   ----------------------------------------
 .byte   PATT
  .word Label_01408D0F
@  #05 @125   ----------------------------------------
 .byte   PATT
  .word Label_01408CF0
@  #05 @126   ----------------------------------------
 .byte   PATT
  .word Label_01408CD1
@  #05 @127   ----------------------------------------
 .byte   PATT
  .word Label_01408CF0
@  #05 @128   ----------------------------------------
 .byte   PATT
  .word Label_01408D0F
@  #05 @129   ----------------------------------------
 .byte   PATT
  .word Label_01408CF0
@  #05 @130   ----------------------------------------
 .byte   PATT
  .word Label_01408CD1
@  #05 @131   ----------------------------------------
 .byte   PATT
  .word Label_01408CF0
@  #05 @132   ----------------------------------------
 .byte   PATT
  .word Label_01408D0F
@  #05 @133   ----------------------------------------
 .byte   PATT
  .word Label_01408CF0
@  #05 @134   ----------------------------------------
 .byte   PATT
  .word Label_01408CD1
@  #05 @135   ----------------------------------------
 .byte   PATT
  .word Label_01408CF0
@  #05 @136   ----------------------------------------
 .byte   PATT
  .word Label_01408D0F
@  #05 @137   ----------------------------------------
 .byte   PATT
  .word Label_01408CF0
@  #05 @138   ----------------------------------------
 .byte   PATT
  .word Label_01408D6F
@  #05 @139   ----------------------------------------
 .byte   PATT
  .word Label_01408D87
@  #05 @140   ----------------------------------------
 .byte   PATT
  .word Label_01408D6F
@  #05 @141   ----------------------------------------
 .byte   PATT
  .word Label_01408DA6
@  #05 @142   ----------------------------------------
 .byte   PATT
  .word Label_01408D6F
@  #05 @143   ----------------------------------------
 .byte   PATT
  .word Label_01408D87
@  #05 @144   ----------------------------------------
 .byte   PATT
  .word Label_01408D6F
@  #05 @145   ----------------------------------------
 .byte   PATT
  .word Label_01408E84
@  #05 @146   ----------------------------------------
 .byte   PATT
  .word Label_01408E8F
@  #05 @147   ----------------------------------------
 .byte   PATT
  .word Label_01408EA7
@  #05 @148   ----------------------------------------
 .byte   PATT
  .word Label_01408EC2
@  #05 @149   ----------------------------------------
 .byte   PATT
  .word Label_01408EDA
@  #05 @150   ----------------------------------------
 .byte   PATT
  .word Label_01408E8F
@  #05 @151   ----------------------------------------
 .byte   PATT
  .word Label_01408EA7
@  #05 @152   ----------------------------------------
 .byte   PATT
  .word Label_01408EC2
@  #05 @153   ----------------------------------------
 .byte   PATT
  .word Label_01408EDA
@  #05 @154   ----------------------------------------
 .byte   PATT
  .word Label_01408E8F
@  #05 @155   ----------------------------------------
 .byte   PATT
  .word Label_01408EA7
@  #05 @156   ----------------------------------------
 .byte   PATT
  .word Label_01408EC2
@  #05 @157   ----------------------------------------
 .byte   PATT
  .word Label_01408EDA
@  #05 @158   ----------------------------------------
 .byte   PATT
  .word Label_01408E8F
@  #05 @159   ----------------------------------------
 .byte   PATT
  .word Label_01408EA7
@  #05 @160   ----------------------------------------
 .byte   PATT
  .word Label_01408EC2
@  #05 @161   ----------------------------------------
 .byte   PATT
  .word Label_01408EDA
@  #05 @162   ----------------------------------------
 .byte   PATT
  .word Label_01408CD1
@  #05 @163   ----------------------------------------
 .byte   PATT
  .word Label_01408CF0
@  #05 @164   ----------------------------------------
 .byte   PATT
  .word Label_01408D0F
@  #05 @165   ----------------------------------------
 .byte   PATT
  .word Label_01408CF0
@  #05 @166   ----------------------------------------
 .byte   PATT
  .word Label_01408CD1
@  #05 @167   ----------------------------------------
 .byte   PATT
  .word Label_01408CF0
@  #05 @168   ----------------------------------------
 .byte   PATT
  .word Label_01408D0F
@  #05 @169   ----------------------------------------
 .byte   PATT
  .word Label_01408CF0
@  #05 @170   ----------------------------------------
 .byte   PATT
  .word Label_01408CD1
@  #05 @171   ----------------------------------------
 .byte   PATT
  .word Label_01408CF0
@  #05 @172   ----------------------------------------
 .byte   PATT
  .word Label_01408D0F
@  #05 @173   ----------------------------------------
 .byte   PATT
  .word Label_01408CF0
@  #05 @174   ----------------------------------------
 .byte   PATT
  .word Label_01408CD1
@  #05 @175   ----------------------------------------
 .byte   PATT
  .word Label_01408CF0
@  #05 @176   ----------------------------------------
 .byte   PATT
  .word Label_01408D0F
@  #05 @177   ----------------------------------------
 .byte   N23 ,As1 ,v096
 .byte   W12
 .byte   N11 ,Cn1
 .byte   W12
 .byte   N23 ,Dn1
 .byte   N23 ,As1
 .byte   W12
 .byte   N11 ,Cn1
 .byte   W12
 .byte   N11
 .byte   N23 ,Dn1 ,v127
 .byte   N23 ,As1
 .byte   W12
 .byte   N11 ,Gs1 ,v096
 .byte   W12
 .byte   Cn1
 .byte   N23 ,Dn1 ,v127
 .byte   N23 ,As1
 .byte   W12
 .byte   N11 ,Gs1 ,v096
 .byte   W11
 .byte   FINE

@******************************************************@
	.align	2

song04:
	.byte	5	@ NumTrks
	.byte	0	@ NumBlks
	.byte	song04_pri	@ Priority
	.byte	song04_rev	@ Reverb.
    
	.word	song04_grp
    
	.word	song04_001
	.word	song04_002
	.word	song04_003
	.word	song04_004
	.word	song04_005

	.end
