//Event file generated from Sappy .s format.
	#include "MPlayDef.event"

	#define	WistfulWild_grp  voicegroup000
	#define	WistfulWild_pri  0
	#define	WistfulWild_rev  0
	#define	WistfulWild_mvl  127
	#define	WistfulWild_key  0
	#define	WistfulWild_tbs  1
	#define	WistfulWild_exg  0
	#define	WistfulWild_cmp  1

	// .rodata
	//	WistfulWild
	ALIGN 4


//**************** Track 1 (Midi-Chn.0) ****************//

WistfulWild_001:
//  #01 //000   ----------------------------------------
 BYTE   KEYSH   WistfulWild_key+0
 BYTE   TEMPO   108*WistfulWild_tbs/2
 BYTE   VOICE   74
 BYTE   PAN   c_v+25
 BYTE   VOL   50*WistfulWild_mvl/mxv
 BYTE   PAN   c_v+25
 BYTE   VOL   50*WistfulWild_mvl/mxv
 BYTE   PAN   c_v+25
 BYTE   VOL   50*WistfulWild_mvl/mxv
 BYTE   PAN   c_v+25
 BYTE   PAN   c_v+25
 BYTE   VOL   50*WistfulWild_mvl/mxv
 BYTE   PAN   c_v+25
 BYTE   BEND   c_v+0
 BYTE   W96
//  #01 //001   ----------------------------------------
 BYTE   W96
//  #01 //002   ----------------------------------------
 BYTE   W96
//  #01 //003   ----------------------------------------
Label_014CEE22:
 BYTE   W84
 BYTE   N11  Ds3  v068
 BYTE   N11  Cn4  v084
 BYTE   W12
 BYTE   PEND 
//  #01 //004   ----------------------------------------
Label_014CEE2B:
 BYTE   N80  Dn3  v068
 BYTE   N84  As3  v084
 BYTE   W84
 BYTE   N11  Gn2  v068
 BYTE   N11  Ds3  v084
 BYTE   W12
 BYTE   PEND 
//  #01 //005   ----------------------------------------
Label_014CEE3A:
 BYTE   N18  Gs2  v072
 BYTE   N18  Fn3  v088
 BYTE   W18
 BYTE   N05  Gn2  v068
 BYTE   N06  Ds3  v084
 BYTE   W06
 BYTE   N56  Gs2  v068
 BYTE   N56  Fn3  v084
 BYTE   W60
 BYTE   N11  As2  v068
 BYTE   N11  Gn3  v084
 BYTE   W12
 BYTE   PEND 
//  #01 //006   ----------------------------------------
Label_014CEE57:
 BYTE   N36  Cn3  v072
 BYTE   N36  Gs3  v088
 BYTE   W36
 BYTE   N11  Dn3  v068
 BYTE   N11  As3  v084
 BYTE   W12
 BYTE   N17  Ds3  v072
 BYTE   N17  Cn4  v084
 BYTE   W18
 BYTE   As3  v068
 BYTE   N17  Gn4  v084
 BYTE   W18
 BYTE   N11  Gs3  v068
 BYTE   N11  Fn4  v084
 BYTE   W12
 BYTE   PEND 
//  #01 //007   ----------------------------------------
Label_014CEE7A:
 BYTE   N24  Fn3  v072
 BYTE   N24  Cs4  v088
 BYTE   W24
 BYTE   N56  Gn3  v068
 BYTE   N56  Ds4  v084
 BYTE   W60
 BYTE   N11  Gn3  v068
 BYTE   N11  Ds4  v080
 BYTE   W12
 BYTE   PEND 
//  #01 //008   ----------------------------------------
Label_014CEE90:
 BYTE   N48  Gn3  v072
 BYTE   N48  Ds4  v088
 BYTE   W48
 BYTE   N24  Fn3  v072
 BYTE   N24  Dn4  v084
 BYTE   W24
 BYTE   N23  Gs3  v068
 BYTE   N23  Fn4  v084
 BYTE   W24
 BYTE   PEND 
//  #01 //009   ----------------------------------------
Label_014CEEA6:
 BYTE   N24  Cs3  v072
 BYTE   N24  As3  v088
 BYTE   W24
 BYTE   N56  Ds3  v068
 BYTE   N56  Cn4  v084
 BYTE   W60
 BYTE   N11  Cn3  v068
 BYTE   N11  Gs3  v084
 BYTE   W12
 BYTE   PEND 
//  #01 //010   ----------------------------------------
Label_014CEEBC:
 BYTE   N48  Fn3  v072
 BYTE   N48  Cs4  v088
 BYTE   W48
 BYTE   N24  Ds3  v072
 BYTE   N24  Cn4  v084
 BYTE   W24
 BYTE   N23  Cn3  v068
 BYTE   N23  Gs3  v084
 BYTE   W24
 BYTE   PEND 
//  #01 //011   ----------------------------------------
Label_014CEED2:
 BYTE   N24  Gs2  v072
 BYTE   N24  Fn3  v088
 BYTE   W24
 BYTE   N68  As2  v068
 BYTE   N68  Gn3  v084
 BYTE   W72
 BYTE   PEND 
//  #01 //012   ----------------------------------------
 BYTE   W96
//  #01 //013   ----------------------------------------
 BYTE   W96
//  #01 //014   ----------------------------------------
 BYTE   W96
//  #01 //015   ----------------------------------------
 BYTE   PATT
  POIN2 Label_014CEE22
//  #01 //016   ----------------------------------------
 BYTE   PATT
  POIN2 Label_014CEE2B
//  #01 //017   ----------------------------------------
 BYTE   PATT
  POIN2 Label_014CEE3A
//  #01 //018   ----------------------------------------
 BYTE   PATT
  POIN2 Label_014CEE57
//  #01 //019   ----------------------------------------
 BYTE   PATT
  POIN2 Label_014CEE7A
//  #01 //020   ----------------------------------------
 BYTE   PATT
  POIN2 Label_014CEE90
//  #01 //021   ----------------------------------------
 BYTE   PATT
  POIN2 Label_014CEEA6
//  #01 //022   ----------------------------------------
 BYTE   PATT
  POIN2 Label_014CEEBC
//  #01 //023   ----------------------------------------
 BYTE   PATT
  POIN2 Label_014CEED2
//  #01 //024   ----------------------------------------
 BYTE   W96
//  #01 //025   ----------------------------------------
 BYTE   W96
//  #01 //026   ----------------------------------------
 BYTE   W96
//  #01 //027   ----------------------------------------
 BYTE   W96
//  #01 //028   ----------------------------------------
 BYTE   W96
//  #01 //029   ----------------------------------------
 BYTE   W96
//  #01 //030   ----------------------------------------
 BYTE   W96
//  #01 //031   ----------------------------------------
 BYTE   W96
//  #01 //032   ----------------------------------------
Label_014CEF19:
 BYTE   N36  Gs3  v072
 BYTE   N36  Fn4  v088
 BYTE   W36
 BYTE   N11  Ds3  v068
 BYTE   N11  Cn4  v084
 BYTE   W12
 BYTE   N24  Ds3  v072
 BYTE   N24  Cn4  v084
 BYTE   W24
 BYTE   N11  Dn3  v068
 BYTE   N11  Bn3  v084
 BYTE   W12
 BYTE   Bn2  v068
 BYTE   N11  Gn3  v084
 BYTE   W12
 BYTE   PEND 
//  #01 //033   ----------------------------------------
Label_014CEF3C:
 BYTE   W48
 BYTE   N24  Gn3  v072
 BYTE   N24  Ds4  v084
 BYTE   W48
 BYTE   PEND 
//  #01 //034   ----------------------------------------
Label_014CEF45:
 BYTE   N36  Fn3  v072
 BYTE   N36  Dn4  v088
 BYTE   W36
 BYTE   N11  Ds3  v068
 BYTE   N11  Gs3  v084
 BYTE   W12
 BYTE   N24  Ds3  v072
 BYTE   N24  Gs3  v084
 BYTE   W24
 BYTE   N11  Gs2  v068
 BYTE   N11  Fn3  v084
 BYTE   W12
 BYTE   Fn2  v068
 BYTE   N11  Cs3  v084
 BYTE   W12
 BYTE   PEND 
//  #01 //035   ----------------------------------------
Label_014CEF68:
 BYTE   W48
 BYTE   N44  Gn3  v072
 BYTE   N44  Cn4  v084
 BYTE   W48
 BYTE   PEND 
//  #01 //036   ----------------------------------------
 BYTE   PATT
  POIN2 Label_014CEF19
//  #01 //037   ----------------------------------------
 BYTE   PATT
  POIN2 Label_014CEF3C
//  #01 //038   ----------------------------------------
 BYTE   PATT
  POIN2 Label_014CEF45
//  #01 //039   ----------------------------------------
 BYTE   PATT
  POIN2 Label_014CEF68
//  #01 //040   ----------------------------------------
Label_014CEF85:
 BYTE   W96
//  #01 //041   ----------------------------------------
 BYTE   W96
//  #01 //042   ----------------------------------------
 BYTE   W96
//  #01 //043   ----------------------------------------
 BYTE   PATT
  POIN2 Label_014CEE22
//  #01 //044   ----------------------------------------
 BYTE   PATT
  POIN2 Label_014CEE2B
//  #01 //045   ----------------------------------------
 BYTE   PATT
  POIN2 Label_014CEE3A
//  #01 //046   ----------------------------------------
 BYTE   PATT
  POIN2 Label_014CEE57
//  #01 //047   ----------------------------------------
 BYTE   PATT
  POIN2 Label_014CEE7A
//  #01 //048   ----------------------------------------
 BYTE   PATT
  POIN2 Label_014CEE90
//  #01 //049   ----------------------------------------
 BYTE   PATT
  POIN2 Label_014CEEA6
//  #01 //050   ----------------------------------------
 BYTE   PATT
  POIN2 Label_014CEEBC
//  #01 //051   ----------------------------------------
 BYTE   PATT
  POIN2 Label_014CEED2
//  #01 //052   ----------------------------------------
 BYTE   W96
//  #01 //053   ----------------------------------------
 BYTE   W96
//  #01 //054   ----------------------------------------
 BYTE   W96
//  #01 //055   ----------------------------------------
 BYTE   W96
//  #01 //056   ----------------------------------------
 BYTE   W96
//  #01 //057   ----------------------------------------
 BYTE   W96
//  #01 //058   ----------------------------------------
 BYTE   W96
//  #01 //059   ----------------------------------------
 BYTE   W96
//  #01 //060   ----------------------------------------
 BYTE   PATT
  POIN2 Label_014CEF19
//  #01 //061   ----------------------------------------
 BYTE   PATT
  POIN2 Label_014CEF3C
//  #01 //062   ----------------------------------------
 BYTE   PATT
  POIN2 Label_014CEF45
//  #01 //063   ----------------------------------------
 BYTE   PATT
  POIN2 Label_014CEF68
//  #01 //064   ----------------------------------------
 BYTE   PATT
  POIN2 Label_014CEF19
//  #01 //065   ----------------------------------------
 BYTE   PATT
  POIN2 Label_014CEF3C
//  #01 //066   ----------------------------------------
 BYTE   PATT
  POIN2 Label_014CEF45
//  #01 //067   ----------------------------------------
 BYTE   PATT
  POIN2 Label_014CEF68
//  #01 //068   ----------------------------------------
 BYTE   GoTo
  POIN2 Label_014CEF85
//  #01 //069   ----------------------------------------
 BYTE   VOICE   74
 BYTE   PAN   c_v+25
 BYTE   VOL   50*WistfulWild_mvl/mxv
 BYTE   PAN   c_v+25
 BYTE   VOL   50*WistfulWild_mvl/mxv
 BYTE   PAN   c_v+25
 BYTE   VOL   50*WistfulWild_mvl/mxv
 BYTE   BEND   c_v+0
 BYTE   FINE

//**************** Track 2 (Midi-Chn.1) ****************//

WistfulWild_002:
//  #02 //000   ----------------------------------------
 BYTE   KEYSH   WistfulWild_key+0
 BYTE   VOICE   28
 BYTE   PAN   c_v-23
 BYTE   VOL   46*WistfulWild_mvl/mxv
 BYTE   PAN   c_v-23
 BYTE   VOL   46*WistfulWild_mvl/mxv
 BYTE   PAN   c_v-23
 BYTE   VOL   46*WistfulWild_mvl/mxv
 BYTE   PAN   c_v-23
 BYTE   PAN   c_v-23
 BYTE   VOL   46*WistfulWild_mvl/mxv
 BYTE   PAN   c_v-23
 BYTE   BEND   c_v+0
 BYTE   N48  Gn2  v064
 BYTE   W06
 BYTE   N05  Cn2
 BYTE   W06
 BYTE   Cn3
 BYTE   W06
 BYTE   N11  Dn3
 BYTE   W12
 BYTE   N10  Cn3
 BYTE   W12
 BYTE   N05  Dn3
 BYTE   W06
 BYTE   N06  Gn2  v068
 BYTE   W06
 BYTE   N11  Cn3  v064
 BYTE   W12
 BYTE   N05  Dn3
 BYTE   W06
 BYTE   N11  Cn3  v068
 BYTE   W12
 BYTE   Gn2  v064
 BYTE   W12
//  #02 //001   ----------------------------------------
Label_014CF049:
 BYTE   N48  Gs2  v064
 BYTE   W06
 BYTE   N05  Cn2
 BYTE   W06
 BYTE   Cs3
 BYTE   W06
 BYTE   N11  Ds3
 BYTE   W12
 BYTE   N10  Cs3
 BYTE   W12
 BYTE   N05  Ds3
 BYTE   W06
 BYTE   N06  Gs2  v068
 BYTE   W06
 BYTE   N11  Cs3  v064
 BYTE   W12
 BYTE   N05  Ds3
 BYTE   W06
 BYTE   N11  Cs3  v068
 BYTE   W12
 BYTE   Gs2  v064
 BYTE   W12
 BYTE   PEND 
//  #02 //002   ----------------------------------------
Label_014CF06E:
 BYTE   N48  Gn2  v064
 BYTE   W06
 BYTE   N05  Cn2
 BYTE   W06
 BYTE   Cn3
 BYTE   W06
 BYTE   N11  Dn3
 BYTE   W12
 BYTE   N10  Cn3
 BYTE   W12
 BYTE   N05  Dn3
 BYTE   W06
 BYTE   N06  Gn2  v068
 BYTE   W06
 BYTE   N11  Cn3  v064
 BYTE   W12
 BYTE   N05  Dn3
 BYTE   W06
 BYTE   N11  Cn3  v068
 BYTE   W12
 BYTE   Gn2  v064
 BYTE   W12
 BYTE   PEND 
//  #02 //003   ----------------------------------------
 BYTE   PATT
  POIN2 Label_014CF049
//  #02 //004   ----------------------------------------
 BYTE   PATT
  POIN2 Label_014CF06E
//  #02 //005   ----------------------------------------
 BYTE   PATT
  POIN2 Label_014CF049
//  #02 //006   ----------------------------------------
 BYTE   PATT
  POIN2 Label_014CF06E
//  #02 //007   ----------------------------------------
 BYTE   PATT
  POIN2 Label_014CF049
//  #02 //008   ----------------------------------------
Label_014CF0AC:
 BYTE   N48  Fn2  v064
 BYTE   W06
 BYTE   N05  Cn2
 BYTE   W06
 BYTE   As2
 BYTE   W06
 BYTE   N11  Cn3
 BYTE   W12
 BYTE   N10  As2
 BYTE   W12
 BYTE   N05  Cn3
 BYTE   W06
 BYTE   N06  Fn2  v068
 BYTE   W06
 BYTE   N11  As2  v064
 BYTE   W12
 BYTE   N05  Cn3
 BYTE   W06
 BYTE   N11  As2  v068
 BYTE   W12
 BYTE   Fn2  v064
 BYTE   W12
 BYTE   PEND 
//  #02 //009   ----------------------------------------
Label_014CF0D1:
 BYTE   N48  Fs2  v064
 BYTE   W06
 BYTE   N05  Cn2
 BYTE   W06
 BYTE   As2
 BYTE   W06
 BYTE   N11  Cn3
 BYTE   W12
 BYTE   N10  As2
 BYTE   W12
 BYTE   N05  Cn3
 BYTE   W06
 BYTE   N06  Fs2  v068
 BYTE   W06
 BYTE   N11  As2  v064
 BYTE   W12
 BYTE   N05  Cn3
 BYTE   W06
 BYTE   N11  As2  v068
 BYTE   W12
 BYTE   Fs2  v064
 BYTE   W12
 BYTE   PEND 
//  #02 //010   ----------------------------------------
Label_014CF0F6:
 BYTE   N48  Gn2  v064
 BYTE   W06
 BYTE   N05  Cn2
 BYTE   W06
 BYTE   Cs3
 BYTE   W06
 BYTE   N11  Ds3
 BYTE   W12
 BYTE   N10  Cs3
 BYTE   W12
 BYTE   N05  Ds3
 BYTE   W06
 BYTE   N06  Gn2  v068
 BYTE   W06
 BYTE   N11  Cs3  v064
 BYTE   W12
 BYTE   N05  Ds3
 BYTE   W06
 BYTE   N11  Cs3  v068
 BYTE   W12
 BYTE   Gn2  v064
 BYTE   W12
 BYTE   PEND 
//  #02 //011   ----------------------------------------
Label_014CF11B:
 BYTE   N48  Gs2  v064
 BYTE   W06
 BYTE   N05  Cs2
 BYTE   W06
 BYTE   Ds3
 BYTE   W06
 BYTE   N11  Fn3
 BYTE   W12
 BYTE   N10  Ds3
 BYTE   W12
 BYTE   N05  Fn3
 BYTE   W06
 BYTE   N06  Gs2  v068
 BYTE   W06
 BYTE   N11  Ds3  v064
 BYTE   W12
 BYTE   N05  Fn3
 BYTE   W06
 BYTE   N11  Ds3  v068
 BYTE   W12
 BYTE   Gs2  v064
 BYTE   W12
 BYTE   PEND 
//  #02 //012   ----------------------------------------
 BYTE   PATT
  POIN2 Label_014CF06E
//  #02 //013   ----------------------------------------
 BYTE   PATT
  POIN2 Label_014CF049
//  #02 //014   ----------------------------------------
 BYTE   PATT
  POIN2 Label_014CF06E
//  #02 //015   ----------------------------------------
 BYTE   PATT
  POIN2 Label_014CF049
//  #02 //016   ----------------------------------------
 BYTE   PATT
  POIN2 Label_014CF06E
//  #02 //017   ----------------------------------------
 BYTE   PATT
  POIN2 Label_014CF049
//  #02 //018   ----------------------------------------
 BYTE   PATT
  POIN2 Label_014CF06E
//  #02 //019   ----------------------------------------
 BYTE   PATT
  POIN2 Label_014CF049
//  #02 //020   ----------------------------------------
 BYTE   PATT
  POIN2 Label_014CF0AC
//  #02 //021   ----------------------------------------
 BYTE   PATT
  POIN2 Label_014CF0D1
//  #02 //022   ----------------------------------------
 BYTE   PATT
  POIN2 Label_014CF0F6
//  #02 //023   ----------------------------------------
 BYTE   PATT
  POIN2 Label_014CF11B
//  #02 //024   ----------------------------------------
Label_014CF17C:
 BYTE   N48  As2  v064
 BYTE   W06
 BYTE   N05  Ds2
 BYTE   W06
 BYTE   Ds3
 BYTE   W06
 BYTE   N11  Fn3
 BYTE   W12
 BYTE   N10  Ds3
 BYTE   W12
 BYTE   N05  Fn3
 BYTE   W06
 BYTE   N06  As2  v068
 BYTE   W06
 BYTE   N11  Ds3  v064
 BYTE   W12
 BYTE   N05  Fn3
 BYTE   W06
 BYTE   N11  Ds3  v068
 BYTE   W12
 BYTE   As2  v064
 BYTE   W12
 BYTE   PEND 
//  #02 //025   ----------------------------------------
Label_014CF1A1:
 BYTE   N48  Cn3  v064
 BYTE   W06
 BYTE   N05  Ds2
 BYTE   W06
 BYTE   Fn3
 BYTE   W06
 BYTE   N11  Gn3
 BYTE   W12
 BYTE   N10  Fn3
 BYTE   W12
 BYTE   N05  Gn3
 BYTE   W06
 BYTE   N06  Cn3  v068
 BYTE   W06
 BYTE   N11  Fn3  v064
 BYTE   W12
 BYTE   N05  Gn3
 BYTE   W06
 BYTE   N11  Fn3  v068
 BYTE   W12
 BYTE   Cn3  v064
 BYTE   W12
 BYTE   PEND 
//  #02 //026   ----------------------------------------
Label_014CF1C6:
 BYTE   N48  Cs3  v064
 BYTE   W06
 BYTE   N05  Ds2
 BYTE   W06
 BYTE   Fn3
 BYTE   W06
 BYTE   N11  Gn3
 BYTE   W12
 BYTE   N10  Fn3
 BYTE   W12
 BYTE   N05  Gn3
 BYTE   W06
 BYTE   N06  Cs3  v068
 BYTE   W06
 BYTE   N11  Fn3  v064
 BYTE   W12
 BYTE   N05  Gn3
 BYTE   W06
 BYTE   N11  Fn3  v068
 BYTE   W12
 BYTE   Cs3  v064
 BYTE   W12
 BYTE   PEND 
//  #02 //027   ----------------------------------------
Label_014CF1EB:
 BYTE   N48  Cn3  v064
 BYTE   W06
 BYTE   N05  Ds2
 BYTE   W06
 BYTE   Gn3
 BYTE   W06
 BYTE   N11  Gs3
 BYTE   W12
 BYTE   N10  Gn3
 BYTE   W12
 BYTE   N05  Gs3
 BYTE   W06
 BYTE   N06  Cn3  v068
 BYTE   W06
 BYTE   N11  Gn3  v064
 BYTE   W12
 BYTE   N05  Gs3
 BYTE   W06
 BYTE   N11  Gn3  v068
 BYTE   W12
 BYTE   Cn3  v064
 BYTE   W12
 BYTE   PEND 
//  #02 //028   ----------------------------------------
 BYTE   PATT
  POIN2 Label_014CF1C6
//  #02 //029   ----------------------------------------
Label_014CF215:
 BYTE   N48  Cn3  v064
 BYTE   W06
 BYTE   N05  Dn2
 BYTE   W06
 BYTE   Gn3
 BYTE   W06
 BYTE   N11  Gs3
 BYTE   W12
 BYTE   N10  Gn3
 BYTE   W12
 BYTE   N05  Gs3
 BYTE   W06
 BYTE   N06  Cn3  v068
 BYTE   W06
 BYTE   N11  Gn3  v064
 BYTE   W12
 BYTE   N05  Gs3
 BYTE   W06
 BYTE   N11  Gn3  v068
 BYTE   W12
 BYTE   Cn3  v064
 BYTE   W12
 BYTE   PEND 
//  #02 //030   ----------------------------------------
Label_014CF23A:
 BYTE   N48  Bn2  v064
 BYTE   W06
 BYTE   N05  Cs2
 BYTE   W06
 BYTE   Ds3
 BYTE   W06
 BYTE   N11  Fn3
 BYTE   W12
 BYTE   N10  Ds3
 BYTE   W12
 BYTE   N05  Fn3
 BYTE   W06
 BYTE   N06  Bn2  v068
 BYTE   W06
 BYTE   N11  Ds3  v064
 BYTE   W12
 BYTE   N05  Fn3
 BYTE   W06
 BYTE   N11  Ds3  v068
 BYTE   W12
 BYTE   Bn2  v064
 BYTE   W12
 BYTE   PEND 
//  #02 //031   ----------------------------------------
 BYTE   PATT
  POIN2 Label_014CF06E
//  #02 //032   ----------------------------------------
Label_014CF264:
 BYTE   N48  Cn3  v064
 BYTE   W06
 BYTE   N05  Fn2
 BYTE   W06
 BYTE   Fn3
 BYTE   W06
 BYTE   N11  Gn3
 BYTE   W12
 BYTE   N10  Fn3
 BYTE   W12
 BYTE   N05  Gn3
 BYTE   W06
 BYTE   N06  Cn3  v068
 BYTE   W06
 BYTE   N11  Fn3  v064
 BYTE   W12
 BYTE   N05  Gn3
 BYTE   W06
 BYTE   N11  Fn3  v068
 BYTE   W12
 BYTE   Cn3  v064
 BYTE   W12
 BYTE   PEND 
//  #02 //033   ----------------------------------------
Label_014CF289:
 BYTE   N48  Bn2  v064
 BYTE   W06
 BYTE   N05  Fn2
 BYTE   W06
 BYTE   Fn3
 BYTE   W06
 BYTE   N11  Gn3
 BYTE   W12
 BYTE   N10  Fn3
 BYTE   W12
 BYTE   N05  Gn3
 BYTE   W06
 BYTE   N06  Bn2  v068
 BYTE   W06
 BYTE   N11  Fn3  v064
 BYTE   W12
 BYTE   N05  Gn3
 BYTE   W06
 BYTE   N11  Fn3  v068
 BYTE   W12
 BYTE   Bn2  v064
 BYTE   W12
 BYTE   PEND 
//  #02 //034   ----------------------------------------
 BYTE   PATT
  POIN2 Label_014CF17C
//  #02 //035   ----------------------------------------
 BYTE   PATT
  POIN2 Label_014CF289
//  #02 //036   ----------------------------------------
 BYTE   PATT
  POIN2 Label_014CF264
//  #02 //037   ----------------------------------------
 BYTE   PATT
  POIN2 Label_014CF289
//  #02 //038   ----------------------------------------
 BYTE   PATT
  POIN2 Label_014CF17C
//  #02 //039   ----------------------------------------
 BYTE   PATT
  POIN2 Label_014CF289
//  #02 //040   ----------------------------------------
Label_014CF2CC:
//  #02 //041   ----------------------------------------
 BYTE   PATT
  POIN2 Label_014CF06E
//  #02 //042   ----------------------------------------
 BYTE   PATT
  POIN2 Label_014CF049
//  #02 //043   ----------------------------------------
 BYTE   PATT
  POIN2 Label_014CF06E
//  #02 //044   ----------------------------------------
 BYTE   PATT
  POIN2 Label_014CF049
//  #02 //045   ----------------------------------------
 BYTE   PATT
  POIN2 Label_014CF06E
//  #02 //046   ----------------------------------------
 BYTE   PATT
  POIN2 Label_014CF049
//  #02 //047   ----------------------------------------
 BYTE   PATT
  POIN2 Label_014CF06E
//  #02 //048   ----------------------------------------
 BYTE   PATT
  POIN2 Label_014CF049
//  #02 //049   ----------------------------------------
 BYTE   PATT
  POIN2 Label_014CF0AC
//  #02 //050   ----------------------------------------
 BYTE   PATT
  POIN2 Label_014CF0D1
//  #02 //051   ----------------------------------------
 BYTE   PATT
  POIN2 Label_014CF0F6
//  #02 //052   ----------------------------------------
 BYTE   PATT
  POIN2 Label_014CF11B
//  #02 //053   ----------------------------------------
 BYTE   PATT
  POIN2 Label_014CF17C
//  #02 //054   ----------------------------------------
 BYTE   PATT
  POIN2 Label_014CF1A1
//  #02 //055   ----------------------------------------
 BYTE   PATT
  POIN2 Label_014CF1C6
//  #02 //056   ----------------------------------------
 BYTE   PATT
  POIN2 Label_014CF1EB
//  #02 //057   ----------------------------------------
 BYTE   PATT
  POIN2 Label_014CF1C6
//  #02 //058   ----------------------------------------
 BYTE   PATT
  POIN2 Label_014CF215
//  #02 //059   ----------------------------------------
 BYTE   PATT
  POIN2 Label_014CF23A
//  #02 //060   ----------------------------------------
 BYTE   PATT
  POIN2 Label_014CF06E
//  #02 //061   ----------------------------------------
 BYTE   PATT
  POIN2 Label_014CF264
//  #02 //062   ----------------------------------------
 BYTE   PATT
  POIN2 Label_014CF289
//  #02 //063   ----------------------------------------
 BYTE   PATT
  POIN2 Label_014CF17C
//  #02 //064   ----------------------------------------
 BYTE   PATT
  POIN2 Label_014CF289
//  #02 //065   ----------------------------------------
 BYTE   PATT
  POIN2 Label_014CF264
//  #02 //066   ----------------------------------------
 BYTE   PATT
  POIN2 Label_014CF289
//  #02 //067   ----------------------------------------
 BYTE   PATT
  POIN2 Label_014CF17C
//  #02 //068   ----------------------------------------
 BYTE   PATT
  POIN2 Label_014CF289
//  #02 //069   ----------------------------------------
 BYTE   GoTo
  POIN2 Label_014CF2CC
//  #02 //070   ----------------------------------------
 BYTE   PAN   c_v-23
 BYTE   VOL   46*WistfulWild_mvl/mxv
 BYTE   PAN   c_v-23
 BYTE   VOL   46*WistfulWild_mvl/mxv
 BYTE   PAN   c_v-23
 BYTE   VOL   46*WistfulWild_mvl/mxv
 BYTE   BEND   c_v+0
 BYTE   FINE

//**************** Track 3 (Midi-Chn.2) ****************//

WistfulWild_003:
//  #03 //000   ----------------------------------------
 BYTE   KEYSH   WistfulWild_key+0
 BYTE   VOICE   75
 BYTE   PAN   c_v+0
 BYTE   VOL   45*WistfulWild_mvl/mxv
 BYTE   PAN   c_v+0
 BYTE   VOL   45*WistfulWild_mvl/mxv
 BYTE   PAN   c_v+0
 BYTE   VOL   45*WistfulWild_mvl/mxv
 BYTE   PAN   c_v+0
 BYTE   VOL   45*WistfulWild_mvl/mxv
 BYTE   BEND   c_v+0
 BYTE   W96
//  #03 //001   ----------------------------------------
 BYTE   W96
//  #03 //002   ----------------------------------------
 BYTE   W96
//  #03 //003   ----------------------------------------
Label_014CF395:
 BYTE   W84
 BYTE   N11  Ds3  v068
 BYTE   N11  Cn4  v084
 BYTE   W12
 BYTE   PEND 
//  #03 //004   ----------------------------------------
Label_014CF39E:
 BYTE   N80  Dn3  v068
 BYTE   N84  As3  v084
 BYTE   W84
 BYTE   N11  Gn2  v068
 BYTE   N11  Ds3  v084
 BYTE   W12
 BYTE   PEND 
//  #03 //005   ----------------------------------------
Label_014CF3AD:
 BYTE   N18  Gs2  v072
 BYTE   N18  Fn3  v088
 BYTE   W18
 BYTE   N05  Gn2  v068
 BYTE   N06  Ds3  v084
 BYTE   W06
 BYTE   N56  Gs2  v068
 BYTE   N56  Fn3  v084
 BYTE   W60
 BYTE   N11  As2  v068
 BYTE   N11  Gn3  v084
 BYTE   W12
 BYTE   PEND 
//  #03 //006   ----------------------------------------
Label_014CF3CA:
 BYTE   N36  Cn3  v072
 BYTE   N36  Gs3  v088
 BYTE   W36
 BYTE   N11  Dn3  v068
 BYTE   N11  As3  v084
 BYTE   W12
 BYTE   N17  Ds3  v072
 BYTE   N17  Cn4  v084
 BYTE   W18
 BYTE   As3  v068
 BYTE   N17  Gn4  v084
 BYTE   W18
 BYTE   N11  Gs3  v068
 BYTE   N11  Fn4  v084
 BYTE   W12
 BYTE   PEND 
//  #03 //007   ----------------------------------------
Label_014CF3ED:
 BYTE   N24  Fn3  v072
 BYTE   N24  Cs4  v088
 BYTE   W24
 BYTE   N56  Gn3  v068
 BYTE   N56  Ds4  v084
 BYTE   W60
 BYTE   N11  Gn3  v068
 BYTE   N11  Ds4  v080
 BYTE   W12
 BYTE   PEND 
//  #03 //008   ----------------------------------------
Label_014CF403:
 BYTE   N48  Gn3  v072
 BYTE   N48  Ds4  v088
 BYTE   W48
 BYTE   N24  Fn3  v072
 BYTE   N24  Dn4  v084
 BYTE   W24
 BYTE   N23  Gs3  v068
 BYTE   N23  Fn4  v084
 BYTE   W24
 BYTE   PEND 
//  #03 //009   ----------------------------------------
Label_014CF419:
 BYTE   N24  Cs3  v072
 BYTE   N24  As3  v088
 BYTE   W24
 BYTE   N56  Ds3  v068
 BYTE   N56  Cn4  v084
 BYTE   W60
 BYTE   N11  Cn3  v068
 BYTE   N11  Gs3  v084
 BYTE   W12
 BYTE   PEND 
//  #03 //010   ----------------------------------------
Label_014CF42F:
 BYTE   N48  Fn3  v072
 BYTE   N48  Cs4  v088
 BYTE   W48
 BYTE   N24  Ds3  v072
 BYTE   N24  Cn4  v084
 BYTE   W24
 BYTE   N23  Cn3  v068
 BYTE   N23  Gs3  v084
 BYTE   W24
 BYTE   PEND 
//  #03 //011   ----------------------------------------
Label_014CF445:
 BYTE   N24  Gs2  v072
 BYTE   N24  Fn3  v088
 BYTE   W24
 BYTE   N68  As2  v068
 BYTE   N68  Gn3  v084
 BYTE   W72
 BYTE   PEND 
//  #03 //012   ----------------------------------------
 BYTE   W96
//  #03 //013   ----------------------------------------
 BYTE   W96
//  #03 //014   ----------------------------------------
 BYTE   W96
//  #03 //015   ----------------------------------------
 BYTE   PATT
  POIN2 Label_014CF395
//  #03 //016   ----------------------------------------
 BYTE   PATT
  POIN2 Label_014CF39E
//  #03 //017   ----------------------------------------
 BYTE   PATT
  POIN2 Label_014CF3AD
//  #03 //018   ----------------------------------------
 BYTE   PATT
  POIN2 Label_014CF3CA
//  #03 //019   ----------------------------------------
 BYTE   PATT
  POIN2 Label_014CF3ED
//  #03 //020   ----------------------------------------
 BYTE   PATT
  POIN2 Label_014CF403
//  #03 //021   ----------------------------------------
 BYTE   PATT
  POIN2 Label_014CF419
//  #03 //022   ----------------------------------------
 BYTE   PATT
  POIN2 Label_014CF42F
//  #03 //023   ----------------------------------------
 BYTE   PATT
  POIN2 Label_014CF445
//  #03 //024   ----------------------------------------
 BYTE   W96
//  #03 //025   ----------------------------------------
 BYTE   W96
//  #03 //026   ----------------------------------------
 BYTE   W96
//  #03 //027   ----------------------------------------
 BYTE   W96
//  #03 //028   ----------------------------------------
 BYTE   W96
//  #03 //029   ----------------------------------------
 BYTE   W96
//  #03 //030   ----------------------------------------
 BYTE   W96
//  #03 //031   ----------------------------------------
 BYTE   W96
//  #03 //032   ----------------------------------------
Label_014CF48C:
 BYTE   N36  Gs3  v072
 BYTE   N36  Fn4  v088
 BYTE   W36
 BYTE   N11  Ds3  v068
 BYTE   N11  Cn4  v084
 BYTE   W12
 BYTE   N24  Ds3  v072
 BYTE   N24  Cn4  v084
 BYTE   W24
 BYTE   N11  Dn3  v068
 BYTE   N11  Bn3  v084
 BYTE   W12
 BYTE   Bn2  v068
 BYTE   N11  Gn3  v084
 BYTE   W12
 BYTE   PEND 
//  #03 //033   ----------------------------------------
Label_014CF4AF:
 BYTE   W48
 BYTE   N24  Gn3  v072
 BYTE   N24  Ds4  v084
 BYTE   W48
 BYTE   PEND 
//  #03 //034   ----------------------------------------
Label_014CF4B8:
 BYTE   N36  Fn3  v072
 BYTE   N36  Dn4  v088
 BYTE   W36
 BYTE   N11  Ds3  v068
 BYTE   N11  Gs3  v084
 BYTE   W12
 BYTE   N24  Ds3  v072
 BYTE   N24  Gs3  v084
 BYTE   W24
 BYTE   N11  Gs2  v068
 BYTE   N11  Fn3  v084
 BYTE   W12
 BYTE   Fn2  v068
 BYTE   N11  Cs3  v084
 BYTE   W12
 BYTE   PEND 
//  #03 //035   ----------------------------------------
Label_014CF4DB:
 BYTE   W48
 BYTE   N44  Gn3  v072
 BYTE   N44  Cn4  v084
 BYTE   W48
 BYTE   PEND 
//  #03 //036   ----------------------------------------
 BYTE   PATT
  POIN2 Label_014CF48C
//  #03 //037   ----------------------------------------
 BYTE   PATT
  POIN2 Label_014CF4AF
//  #03 //038   ----------------------------------------
 BYTE   PATT
  POIN2 Label_014CF4B8
//  #03 //039   ----------------------------------------
 BYTE   PATT
  POIN2 Label_014CF4DB
//  #03 //040   ----------------------------------------
Label_014CF4F8:
 BYTE   W96
//  #03 //041   ----------------------------------------
 BYTE   W96
//  #03 //042   ----------------------------------------
 BYTE   W96
//  #03 //043   ----------------------------------------
 BYTE   PATT
  POIN2 Label_014CF395
//  #03 //044   ----------------------------------------
 BYTE   PATT
  POIN2 Label_014CF39E
//  #03 //045   ----------------------------------------
 BYTE   PATT
  POIN2 Label_014CF3AD
//  #03 //046   ----------------------------------------
 BYTE   PATT
  POIN2 Label_014CF3CA
//  #03 //047   ----------------------------------------
 BYTE   PATT
  POIN2 Label_014CF3ED
//  #03 //048   ----------------------------------------
 BYTE   PATT
  POIN2 Label_014CF403
//  #03 //049   ----------------------------------------
 BYTE   PATT
  POIN2 Label_014CF419
//  #03 //050   ----------------------------------------
 BYTE   PATT
  POIN2 Label_014CF42F
//  #03 //051   ----------------------------------------
 BYTE   PATT
  POIN2 Label_014CF445
//  #03 //052   ----------------------------------------
 BYTE   W96
//  #03 //053   ----------------------------------------
 BYTE   W96
//  #03 //054   ----------------------------------------
 BYTE   W96
//  #03 //055   ----------------------------------------
 BYTE   W96
//  #03 //056   ----------------------------------------
 BYTE   W96
//  #03 //057   ----------------------------------------
 BYTE   W96
//  #03 //058   ----------------------------------------
 BYTE   W96
//  #03 //059   ----------------------------------------
 BYTE   W96
//  #03 //060   ----------------------------------------
 BYTE   PATT
  POIN2 Label_014CF48C
//  #03 //061   ----------------------------------------
 BYTE   PATT
  POIN2 Label_014CF4AF
//  #03 //062   ----------------------------------------
 BYTE   PATT
  POIN2 Label_014CF4B8
//  #03 //063   ----------------------------------------
 BYTE   PATT
  POIN2 Label_014CF4DB
//  #03 //064   ----------------------------------------
 BYTE   PATT
  POIN2 Label_014CF48C
//  #03 //065   ----------------------------------------
 BYTE   PATT
  POIN2 Label_014CF4AF
//  #03 //066   ----------------------------------------
 BYTE   PATT
  POIN2 Label_014CF4B8
//  #03 //067   ----------------------------------------
 BYTE   PATT
  POIN2 Label_014CF4DB
//  #03 //068   ----------------------------------------
 BYTE   GoTo
  POIN2 Label_014CF4F8
//  #03 //069   ----------------------------------------
 BYTE   VOICE   75
 BYTE   PAN   c_v+0
 BYTE   VOL   45*WistfulWild_mvl/mxv
 BYTE   PAN   c_v+0
 BYTE   VOL   45*WistfulWild_mvl/mxv
 BYTE   PAN   c_v+0
 BYTE   VOL   45*WistfulWild_mvl/mxv
 BYTE   BEND   c_v+0
 BYTE   FINE

//**************** Track 4 (Midi-Chn.3) ****************//

WistfulWild_004:
//  #04 //000   ----------------------------------------
 BYTE   KEYSH   WistfulWild_key+0
 BYTE   VOICE   60
 BYTE   PAN   c_v+0
 BYTE   VOL   45*WistfulWild_mvl/mxv
 BYTE   PAN   c_v+0
 BYTE   VOL   45*WistfulWild_mvl/mxv
 BYTE   PAN   c_v+0
 BYTE   VOL   45*WistfulWild_mvl/mxv
 BYTE   PAN   c_v+0
 BYTE   VOL   45*WistfulWild_mvl/mxv
 BYTE   BEND   c_v+0
 BYTE   W96
//  #04 //001   ----------------------------------------
 BYTE   W96
//  #04 //002   ----------------------------------------
 BYTE   W96
//  #04 //003   ----------------------------------------
 BYTE   W96
//  #04 //004   ----------------------------------------
 BYTE   W96
//  #04 //005   ----------------------------------------
 BYTE   W96
//  #04 //006   ----------------------------------------
 BYTE   W96
//  #04 //007   ----------------------------------------
 BYTE   W96
//  #04 //008   ----------------------------------------
 BYTE   W96
//  #04 //009   ----------------------------------------
 BYTE   W96
//  #04 //010   ----------------------------------------
 BYTE   W96
//  #04 //011   ----------------------------------------
 BYTE   W96
//  #04 //012   ----------------------------------------
 BYTE   W96
//  #04 //013   ----------------------------------------
 BYTE   W96
//  #04 //014   ----------------------------------------
 BYTE   W96
//  #04 //015   ----------------------------------------
 BYTE   W96
//  #04 //016   ----------------------------------------
 BYTE   W96
//  #04 //017   ----------------------------------------
 BYTE   W96
//  #04 //018   ----------------------------------------
 BYTE   W96
//  #04 //019   ----------------------------------------
 BYTE   W96
//  #04 //020   ----------------------------------------
 BYTE   W96
//  #04 //021   ----------------------------------------
 BYTE   W96
//  #04 //022   ----------------------------------------
 BYTE   W96
//  #04 //023   ----------------------------------------
 BYTE   W96
//  #04 //024   ----------------------------------------
Label_014CF5AE:
 BYTE   W36
 BYTE   W01
 BYTE   N11  Gs3  v076
 BYTE   W12
 BYTE   N24  Gs3  v080
 BYTE   W24
 BYTE   N11  Gn3  v076
 BYTE   W12
 BYTE   Ds3
 BYTE   W11
 BYTE   PEND 
//  #04 //025   ----------------------------------------
Label_014CF5BF:
 BYTE   W01
 BYTE   N24  Cn3  v080
 BYTE   W24
 BYTE   N68  Gn3  v076
 BYTE   W68
 BYTE   W03
 BYTE   PEND 
//  #04 //026   ----------------------------------------
Label_014CF5CA:
 BYTE   W36
 BYTE   W01
 BYTE   N11  Gs3  v076
 BYTE   W12
 BYTE   N24  Gs3  v080
 BYTE   W24
 BYTE   N11  Gn3  v076
 BYTE   W12
 BYTE   Gs3
 BYTE   W11
 BYTE   PEND 
//  #04 //027   ----------------------------------------
Label_014CF5DB:
 BYTE   W01
 BYTE   N24  As3  v080
 BYTE   W24
 BYTE   N68  Gs3  v076
 BYTE   W68
 BYTE   W03
 BYTE   PEND 
//  #04 //028   ----------------------------------------
Label_014CF5E6:
 BYTE   W36
 BYTE   W01
 BYTE   N11  As3  v076
 BYTE   W12
 BYTE   N24  As3  v080
 BYTE   W24
 BYTE   N11  Gs3  v076
 BYTE   W12
 BYTE   As3
 BYTE   W11
 BYTE   PEND 
//  #04 //029   ----------------------------------------
 BYTE   W01
 BYTE   N24  Cn4  v080
 BYTE   W24
 BYTE   N23  Fn3  v076
 BYTE   W24
 BYTE   N24  Gn3  v080
 BYTE   W24
 BYTE   N03  Gn3  v076
 BYTE   W04
 BYTE   Gs3
 BYTE   W04
 BYTE   Gn3
 BYTE   W04
 BYTE   N05  Fn3
 BYTE   W05
 BYTE   Gn3
 BYTE   W06
//  #04 //030   ----------------------------------------
 BYTE   W01
 BYTE   N24  Gs3  v080
 BYTE   W24
 BYTE   N23  Ds3  v076
 BYTE   W24
 BYTE   N24  Fn3  v080
 BYTE   W24
 BYTE   N03  Fn3  v076
 BYTE   W04
 BYTE   Gn3
 BYTE   W04
 BYTE   Fn3
 BYTE   W04
 BYTE   N05  Ds3
 BYTE   W05
 BYTE   N06  Fn3
 BYTE   W06
//  #04 //031   ----------------------------------------
Label_014CF62C:
 BYTE   W01
 BYTE   N24  Fn3  v080
 BYTE   W24
 BYTE   N68  Gn3  v076
 BYTE   W68
 BYTE   W03
 BYTE   PEND 
//  #04 //032   ----------------------------------------
 BYTE   W96
//  #04 //033   ----------------------------------------
 BYTE   W96
//  #04 //034   ----------------------------------------
 BYTE   W96
//  #04 //035   ----------------------------------------
 BYTE   W96
//  #04 //036   ----------------------------------------
 BYTE   W96
//  #04 //037   ----------------------------------------
 BYTE   W96
//  #04 //038   ----------------------------------------
 BYTE   W96
//  #04 //039   ----------------------------------------
 BYTE   W96
//  #04 //040   ----------------------------------------
Label_014CF63F:
 BYTE   W96
//  #04 //041   ----------------------------------------
 BYTE   W96
//  #04 //042   ----------------------------------------
 BYTE   W96
//  #04 //043   ----------------------------------------
 BYTE   W96
//  #04 //044   ----------------------------------------
 BYTE   W96
//  #04 //045   ----------------------------------------
 BYTE   W96
//  #04 //046   ----------------------------------------
 BYTE   W96
//  #04 //047   ----------------------------------------
 BYTE   W96
//  #04 //048   ----------------------------------------
 BYTE   W96
//  #04 //049   ----------------------------------------
 BYTE   W96
//  #04 //050   ----------------------------------------
 BYTE   W96
//  #04 //051   ----------------------------------------
 BYTE   W96
//  #04 //052   ----------------------------------------
 BYTE   PATT
  POIN2 Label_014CF5AE
//  #04 //053   ----------------------------------------
 BYTE   PATT
  POIN2 Label_014CF5BF
//  #04 //054   ----------------------------------------
 BYTE   PATT
  POIN2 Label_014CF5CA
//  #04 //055   ----------------------------------------
 BYTE   PATT
  POIN2 Label_014CF5DB
//  #04 //056   ----------------------------------------
 BYTE   PATT
  POIN2 Label_014CF5E6
//  #04 //057   ----------------------------------------
 BYTE   W01
 BYTE   N24  Cn4  v080
 BYTE   W24
 BYTE   N23  Fn3  v076
 BYTE   W24
 BYTE   N24  Gn3  v080
 BYTE   W24
 BYTE   N03  Gn3  v076
 BYTE   W04
 BYTE   Gs3
 BYTE   W04
 BYTE   Gn3
 BYTE   W04
 BYTE   N05  Fn3
 BYTE   W06
 BYTE   Gn3
 BYTE   W05
//  #04 //058   ----------------------------------------
 BYTE   W01
 BYTE   N24  Gs3  v080
 BYTE   W24
 BYTE   N23  Ds3  v076
 BYTE   W24
 BYTE   N24  Fn3  v080
 BYTE   W24
 BYTE   N03  Fn3  v076
 BYTE   W04
 BYTE   Gn3
 BYTE   W04
 BYTE   Fn3
 BYTE   W04
 BYTE   N05  Ds3
 BYTE   W06
 BYTE   N06  Fn3
 BYTE   W05
//  #04 //059   ----------------------------------------
 BYTE   PATT
  POIN2 Label_014CF62C
//  #04 //060   ----------------------------------------
 BYTE   W96
//  #04 //061   ----------------------------------------
 BYTE   W96
//  #04 //062   ----------------------------------------
 BYTE   W96
//  #04 //063   ----------------------------------------
 BYTE   W96
//  #04 //064   ----------------------------------------
 BYTE   W96
//  #04 //065   ----------------------------------------
 BYTE   W96
//  #04 //066   ----------------------------------------
 BYTE   W96
//  #04 //067   ----------------------------------------
 BYTE   W96
//  #04 //068   ----------------------------------------
 BYTE   GoTo
  POIN2 Label_014CF63F
//  #04 //069   ----------------------------------------
 BYTE   VOICE   60
 BYTE   PAN   c_v+0
 BYTE   VOL   45*WistfulWild_mvl/mxv
 BYTE   PAN   c_v+0
 BYTE   VOL   45*WistfulWild_mvl/mxv
 BYTE   PAN   c_v+0
 BYTE   VOL   45*WistfulWild_mvl/mxv
 BYTE   BEND   c_v+0
 BYTE   FINE

//**************** Track 5 (Midi-Chn.4) ****************//

WistfulWild_005:
//  #05 //000   ----------------------------------------
 BYTE   KEYSH   WistfulWild_key+0
 BYTE   VOICE   70
 BYTE   PAN   c_v+0
 BYTE   VOL   45*WistfulWild_mvl/mxv
 BYTE   PAN   c_v+0
 BYTE   VOL   45*WistfulWild_mvl/mxv
 BYTE   PAN   c_v+0
 BYTE   VOL   45*WistfulWild_mvl/mxv
 BYTE   PAN   c_v+0
 BYTE   VOL   45*WistfulWild_mvl/mxv
 BYTE   BEND   c_v+0
 BYTE   W96
//  #05 //001   ----------------------------------------
 BYTE   W96
//  #05 //002   ----------------------------------------
 BYTE   W96
//  #05 //003   ----------------------------------------
 BYTE   W96
//  #05 //004   ----------------------------------------
 BYTE   W96
//  #05 //005   ----------------------------------------
 BYTE   W96
//  #05 //006   ----------------------------------------
 BYTE   W96
//  #05 //007   ----------------------------------------
 BYTE   W96
//  #05 //008   ----------------------------------------
 BYTE   W96
//  #05 //009   ----------------------------------------
 BYTE   W96
//  #05 //010   ----------------------------------------
 BYTE   W96
//  #05 //011   ----------------------------------------
 BYTE   W96
//  #05 //012   ----------------------------------------
 BYTE   W96
//  #05 //013   ----------------------------------------
 BYTE   W96
//  #05 //014   ----------------------------------------
 BYTE   W96
//  #05 //015   ----------------------------------------
 BYTE   W96
//  #05 //016   ----------------------------------------
 BYTE   W96
//  #05 //017   ----------------------------------------
 BYTE   W96
//  #05 //018   ----------------------------------------
 BYTE   W96
//  #05 //019   ----------------------------------------
 BYTE   W96
//  #05 //020   ----------------------------------------
 BYTE   W96
//  #05 //021   ----------------------------------------
 BYTE   W96
//  #05 //022   ----------------------------------------
 BYTE   W96
//  #05 //023   ----------------------------------------
 BYTE   W96
//  #05 //024   ----------------------------------------
Label_014CF6FA:
 BYTE   W36
 BYTE   W01
 BYTE   N11  Gs3  v076
 BYTE   W12
 BYTE   N24  Gs3  v080
 BYTE   W24
 BYTE   N11  Gn3  v076
 BYTE   W12
 BYTE   Ds3
 BYTE   W11
 BYTE   PEND 
//  #05 //025   ----------------------------------------
Label_014CF70B:
 BYTE   W01
 BYTE   N24  Cn3  v080
 BYTE   W24
 BYTE   N68  Gn3  v076
 BYTE   W68
 BYTE   W03
 BYTE   PEND 
//  #05 //026   ----------------------------------------
Label_014CF716:
 BYTE   W36
 BYTE   W01
 BYTE   N11  Gs3  v076
 BYTE   W12
 BYTE   N24  Gs3  v080
 BYTE   W24
 BYTE   N11  Gn3  v076
 BYTE   W12
 BYTE   Gs3
 BYTE   W11
 BYTE   PEND 
//  #05 //027   ----------------------------------------
Label_014CF727:
 BYTE   W01
 BYTE   N24  As3  v080
 BYTE   W24
 BYTE   N68  Gs3  v076
 BYTE   W68
 BYTE   W03
 BYTE   PEND 
//  #05 //028   ----------------------------------------
Label_014CF732:
 BYTE   W36
 BYTE   W01
 BYTE   N11  As3  v076
 BYTE   W12
 BYTE   N24  As3  v080
 BYTE   W24
 BYTE   N11  Gs3  v076
 BYTE   W12
 BYTE   As3
 BYTE   W11
 BYTE   PEND 
//  #05 //029   ----------------------------------------
 BYTE   W01
 BYTE   N24  Cn4  v080
 BYTE   W24
 BYTE   N23  Fn3  v076
 BYTE   W24
 BYTE   N24  Gn3  v080
 BYTE   W24
 BYTE   N03  Gn3  v076
 BYTE   W04
 BYTE   Gs3
 BYTE   W04
 BYTE   Gn3
 BYTE   W04
 BYTE   N05  Fn3
 BYTE   W05
 BYTE   Gn3
 BYTE   W06
//  #05 //030   ----------------------------------------
 BYTE   W01
 BYTE   N24  Gs3  v080
 BYTE   W24
 BYTE   N23  Ds3  v076
 BYTE   W24
 BYTE   N24  Fn3  v080
 BYTE   W24
 BYTE   N03  Fn3  v076
 BYTE   W04
 BYTE   Gn3
 BYTE   W04
 BYTE   Fn3
 BYTE   W04
 BYTE   N05  Ds3
 BYTE   W05
 BYTE   N06  Fn3
 BYTE   W06
//  #05 //031   ----------------------------------------
Label_014CF778:
 BYTE   W01
 BYTE   N24  Fn3  v080
 BYTE   W24
 BYTE   N68  Gn3  v076
 BYTE   W68
 BYTE   W03
 BYTE   PEND 
//  #05 //032   ----------------------------------------
 BYTE   W96
//  #05 //033   ----------------------------------------
 BYTE   W96
//  #05 //034   ----------------------------------------
 BYTE   W96
//  #05 //035   ----------------------------------------
 BYTE   W96
//  #05 //036   ----------------------------------------
 BYTE   W96
//  #05 //037   ----------------------------------------
 BYTE   W96
//  #05 //038   ----------------------------------------
 BYTE   W96
//  #05 //039   ----------------------------------------
 BYTE   W96
//  #05 //040   ----------------------------------------
Label_014CF78B:
 BYTE   W96
//  #05 //041   ----------------------------------------
 BYTE   W96
//  #05 //042   ----------------------------------------
 BYTE   W96
//  #05 //043   ----------------------------------------
 BYTE   W96
//  #05 //044   ----------------------------------------
 BYTE   W96
//  #05 //045   ----------------------------------------
 BYTE   W96
//  #05 //046   ----------------------------------------
 BYTE   W96
//  #05 //047   ----------------------------------------
 BYTE   W96
//  #05 //048   ----------------------------------------
 BYTE   W96
//  #05 //049   ----------------------------------------
 BYTE   W96
//  #05 //050   ----------------------------------------
 BYTE   W96
//  #05 //051   ----------------------------------------
 BYTE   W96
//  #05 //052   ----------------------------------------
 BYTE   PATT
  POIN2 Label_014CF6FA
//  #05 //053   ----------------------------------------
 BYTE   PATT
  POIN2 Label_014CF70B
//  #05 //054   ----------------------------------------
 BYTE   PATT
  POIN2 Label_014CF716
//  #05 //055   ----------------------------------------
 BYTE   PATT
  POIN2 Label_014CF727
//  #05 //056   ----------------------------------------
 BYTE   PATT
  POIN2 Label_014CF732
//  #05 //057   ----------------------------------------
 BYTE   W01
 BYTE   N24  Cn4  v080
 BYTE   W24
 BYTE   N23  Fn3  v076
 BYTE   W24
 BYTE   N24  Gn3  v080
 BYTE   W24
 BYTE   N03  Gn3  v076
 BYTE   W04
 BYTE   Gs3
 BYTE   W04
 BYTE   Gn3
 BYTE   W04
 BYTE   N05  Fn3
 BYTE   W06
 BYTE   Gn3
 BYTE   W05
//  #05 //058   ----------------------------------------
 BYTE   W01
 BYTE   N24  Gs3  v080
 BYTE   W24
 BYTE   N23  Ds3  v076
 BYTE   W24
 BYTE   N24  Fn3  v080
 BYTE   W24
 BYTE   N03  Fn3  v076
 BYTE   W04
 BYTE   Gn3
 BYTE   W04
 BYTE   Fn3
 BYTE   W04
 BYTE   N05  Ds3
 BYTE   W06
 BYTE   N06  Fn3
 BYTE   W05
//  #05 //059   ----------------------------------------
 BYTE   PATT
  POIN2 Label_014CF778
//  #05 //060   ----------------------------------------
 BYTE   W96
//  #05 //061   ----------------------------------------
 BYTE   W96
//  #05 //062   ----------------------------------------
 BYTE   W96
//  #05 //063   ----------------------------------------
 BYTE   W96
//  #05 //064   ----------------------------------------
 BYTE   W96
//  #05 //065   ----------------------------------------
 BYTE   W96
//  #05 //066   ----------------------------------------
 BYTE   W96
//  #05 //067   ----------------------------------------
 BYTE   W96
//  #05 //068   ----------------------------------------
 BYTE   GoTo
  POIN2 Label_014CF78B
//  #05 //069   ----------------------------------------
 BYTE   VOICE   70
 BYTE   PAN   c_v+0
 BYTE   VOL   45*WistfulWild_mvl/mxv
 BYTE   PAN   c_v+0
 BYTE   VOL   45*WistfulWild_mvl/mxv
 BYTE   PAN   c_v+0
 BYTE   VOL   45*WistfulWild_mvl/mxv
 BYTE   BEND   c_v+0
 BYTE   FINE

//******************************************************//
	ALIGN 4

WistfulWild:
	BYTE	5	// NumTrks
	BYTE	0	// NumBlks
	BYTE	WistfulWild_pri	// Priority
	BYTE	WistfulWild_rev	// Reverb.
    
	POIN2	WistfulWild_grp
    
	POIN2	WistfulWild_001
	POIN2	WistfulWild_002
	POIN2	WistfulWild_003
	POIN2	WistfulWild_004
	POIN2	WistfulWild_005

	
