	.include "MPlayDef.s"

	.equ	song04_grp, voicegroup000
	.equ	song04_pri, 0
	.equ	song04_rev, 0
	.equ	song04_mvl, 127
	.equ	song04_key, 0
	.equ	song04_tbs, 1
	.equ	song04_exg, 0
	.equ	song04_cmp, 1

	.section .rodata
	.global	song04
	.align	2


@**************** Track 1 (Midi-Chn.0) ****************@

song04_001:
@  #01 @000   ----------------------------------------
 .byte   KEYSH , song04_key+0
 .byte   TEMPO , 268*song04_tbs/2
 .byte   VOICE , 124
 .byte   VOL , 41*song04_mvl/mxv
 .byte   N12 ,Dn1 ,v120
 .byte   W24
 .byte   N24 ,Cn1 ,v124
 .byte   W24
 .byte   N11 ,Dn1 ,v120
 .byte   W12
 .byte   N12
 .byte   W12
 .byte   N24 ,Cn1 ,v124
 .byte   W24
@  #01 @001   ----------------------------------------
Label_01004F22:
 .byte   N12 ,Dn1 ,v120
 .byte   W24
 .byte   N24 ,Cn1 ,v124
 .byte   W24
 .byte   N11 ,Dn1 ,v120
 .byte   W12
 .byte   N12
 .byte   W12
 .byte   N24 ,Cn1 ,v124
 .byte   W24
 .byte   PEND 
@  #01 @002   ----------------------------------------
 .byte   PATT
  .word Label_01004F22
@  #01 @003   ----------------------------------------
 .byte   PATT
  .word Label_01004F22
@  #01 @004   ----------------------------------------
Label_01004F3F:
@  #01 @005   ----------------------------------------
 .byte   PATT
  .word Label_01004F22
@  #01 @006   ----------------------------------------
 .byte   PATT
  .word Label_01004F22
@  #01 @007   ----------------------------------------
 .byte   PATT
  .word Label_01004F22
@  #01 @008   ----------------------------------------
 .byte   PATT
  .word Label_01004F22
@  #01 @009   ----------------------------------------
 .byte   PATT
  .word Label_01004F22
@  #01 @010   ----------------------------------------
 .byte   PATT
  .word Label_01004F22
@  #01 @011   ----------------------------------------
 .byte   PATT
  .word Label_01004F22
@  #01 @012   ----------------------------------------
 .byte   PATT
  .word Label_01004F22
@  #01 @013   ----------------------------------------
 .byte   PATT
  .word Label_01004F22
@  #01 @014   ----------------------------------------
 .byte   PATT
  .word Label_01004F22
@  #01 @015   ----------------------------------------
 .byte   PATT
  .word Label_01004F22
@  #01 @016   ----------------------------------------
Label_01004F76:
 .byte   N12 ,Dn1 ,v120
 .byte   W12
 .byte   N11 ,Cn1 ,v124
 .byte   W12
 .byte   N23
 .byte   W12
 .byte   N12 ,Dn1 ,v120
 .byte   W12
 .byte   N23 ,Cn1 ,v124
 .byte   W12
 .byte   N12 ,Dn1 ,v120
 .byte   W12
 .byte   N23 ,Cn1 ,v124
 .byte   W12
 .byte   N12 ,Dn1 ,v120
 .byte   W12
 .byte   PEND 
@  #01 @017   ----------------------------------------
Label_01004F95:
 .byte   N23 ,Cn1 ,v124
 .byte   W12
 .byte   N12 ,Dn1 ,v120
 .byte   W12
 .byte   N24 ,Cn1 ,v124
 .byte   W24
 .byte   N11 ,Dn1 ,v120
 .byte   W12
 .byte   N12
 .byte   W12
 .byte   N24 ,Cn1 ,v124
 .byte   W24
 .byte   PEND 
@  #01 @018   ----------------------------------------
Label_01004FAC:
 .byte   N11 ,Dn1 ,v120
 .byte   N06 ,An1 ,v084
 .byte   W12
 .byte   N12 ,Dn1 ,v120
 .byte   N06 ,An1 ,v084
 .byte   W12
 .byte   N24 ,Cn1 ,v124
 .byte   N12 ,An1 ,v084
 .byte   W12
 .byte   Dn1 ,v120
 .byte   W24
 .byte   N23 ,Cn1 ,v124
 .byte   W24
 .byte   N24
 .byte   W12
 .byte   PEND 
@  #01 @019   ----------------------------------------
Label_01004FCB:
 .byte   N12 ,Dn1 ,v120
 .byte   W24
 .byte   N24 ,Cn1 ,v124
 .byte   W24
 .byte   N11 ,Dn1 ,v120
 .byte   N12 ,An1 ,v084
 .byte   W12
 .byte   Dn1 ,v120
 .byte   W12
 .byte   N24 ,Cn1 ,v124
 .byte   W12
 .byte   N12 ,An1 ,v084
 .byte   W12
 .byte   PEND 
@  #01 @020   ----------------------------------------
Label_01004FE6:
 .byte   N11 ,Dn1 ,v120
 .byte   W12
 .byte   N12
 .byte   W12
 .byte   N24 ,Cn1 ,v124
 .byte   W12
 .byte   N12 ,Dn1 ,v120
 .byte   W24
 .byte   N12
 .byte   W12
 .byte   N23 ,Cn1 ,v124
 .byte   W12
 .byte   N12 ,Dn1 ,v120
 .byte   W12
 .byte   PEND 
@  #01 @021   ----------------------------------------
 .byte   PATT
  .word Label_01004F95
@  #01 @022   ----------------------------------------
Label_01005004:
 .byte   N11 ,Dn1 ,v120
 .byte   N06 ,An1 ,v084
 .byte   W12
 .byte   N12 ,Dn1 ,v120
 .byte   N06 ,An1 ,v084
 .byte   W12
 .byte   N24 ,Cn1 ,v124
 .byte   N12 ,An1 ,v084
 .byte   W24
 .byte   Dn1 ,v120
 .byte   W12
 .byte   N23 ,Cn1 ,v124
 .byte   W12
 .byte   N12 ,Dn1 ,v120
 .byte   W12
 .byte   N24 ,Cn1 ,v124
 .byte   W12
 .byte   PEND 
@  #01 @023   ----------------------------------------
 .byte   PATT
  .word Label_01004FCB
@  #01 @024   ----------------------------------------
 .byte   N12 ,Dn1 ,v120
 .byte   W12
 .byte   N11 ,Cn1 ,v124
 .byte   W12
 .byte   N11
 .byte   W12
 .byte   N11
 .byte   W12
 .byte   N11
 .byte   N11 ,Dn1 ,v120
 .byte   W12
 .byte   Cn1 ,v124
 .byte   N12 ,Dn1 ,v120
 .byte   W12
 .byte   N11 ,Cn1 ,v124
 .byte   W12
 .byte   N24
 .byte   N11 ,Dn1 ,v120
 .byte   W12
@  #01 @025   ----------------------------------------
 .byte   PATT
  .word Label_01004F22
@  #01 @026   ----------------------------------------
 .byte   PATT
  .word Label_01004F22
@  #01 @027   ----------------------------------------
 .byte   PATT
  .word Label_01004F22
@  #01 @028   ----------------------------------------
 .byte   PATT
  .word Label_01004F22
@  #01 @029   ----------------------------------------
 .byte   PATT
  .word Label_01004F22
@  #01 @030   ----------------------------------------
 .byte   PATT
  .word Label_01004F22
@  #01 @031   ----------------------------------------
 .byte   PATT
  .word Label_01004F22
@  #01 @032   ----------------------------------------
 .byte   PATT
  .word Label_01004F22
@  #01 @033   ----------------------------------------
 .byte   PATT
  .word Label_01004F22
@  #01 @034   ----------------------------------------
 .byte   PATT
  .word Label_01004F22
@  #01 @035   ----------------------------------------
 .byte   PATT
  .word Label_01004F22
@  #01 @036   ----------------------------------------
 .byte   PATT
  .word Label_01004F22
@  #01 @037   ----------------------------------------
 .byte   PATT
  .word Label_01004F22
@  #01 @038   ----------------------------------------
 .byte   PATT
  .word Label_01004F22
@  #01 @039   ----------------------------------------
 .byte   PATT
  .word Label_01004F22
@  #01 @040   ----------------------------------------
 .byte   PATT
  .word Label_01004F76
@  #01 @041   ----------------------------------------
 .byte   PATT
  .word Label_01004F95
@  #01 @042   ----------------------------------------
 .byte   PATT
  .word Label_01004FAC
@  #01 @043   ----------------------------------------
 .byte   PATT
  .word Label_01004FCB
@  #01 @044   ----------------------------------------
 .byte   PATT
  .word Label_01004FE6
@  #01 @045   ----------------------------------------
 .byte   PATT
  .word Label_01004F95
@  #01 @046   ----------------------------------------
 .byte   PATT
  .word Label_01005004
@  #01 @047   ----------------------------------------
 .byte   PATT
  .word Label_01004FCB
@  #01 @048   ----------------------------------------
Label_010050C1:
 .byte   N12 ,Dn1 ,v120
 .byte   W12
 .byte   N11 ,Cn1 ,v124
 .byte   W12
 .byte   N11
 .byte   W12
 .byte   N11
 .byte   W12
 .byte   N11
 .byte   W12
 .byte   N11
 .byte   W12
 .byte   N11
 .byte   W12
 .byte   N24
 .byte   W12
 .byte   PEND 
@  #01 @049   ----------------------------------------
Label_010050D6:
 .byte   N12 ,Dn1 ,v120
 .byte   W72
 .byte   N12
 .byte   W24
 .byte   PEND 
@  #01 @050   ----------------------------------------
Label_010050DD:
 .byte   N24 ,Cn1 ,v124
 .byte   W48
 .byte   N12 ,Dn1 ,v120
 .byte   W24
 .byte   N12
 .byte   W24
 .byte   PEND 
@  #01 @051   ----------------------------------------
Label_010050E8:
 .byte   N12 ,Dn1 ,v120
 .byte   W24
 .byte   N12
 .byte   W48
 .byte   N11
 .byte   W12
 .byte   N12
 .byte   W12
 .byte   PEND 
@  #01 @052   ----------------------------------------
 .byte   PATT
  .word Label_010050DD
@  #01 @053   ----------------------------------------
 .byte   PATT
  .word Label_010050D6
@  #01 @054   ----------------------------------------
 .byte   PATT
  .word Label_010050DD
@  #01 @055   ----------------------------------------
 .byte   PATT
  .word Label_010050E8
@  #01 @056   ----------------------------------------
 .byte   PATT
  .word Label_010050DD
@  #01 @057   ----------------------------------------
 .byte   PATT
  .word Label_010050D6
@  #01 @058   ----------------------------------------
 .byte   PATT
  .word Label_010050DD
@  #01 @059   ----------------------------------------
 .byte   PATT
  .word Label_010050E8
@  #01 @060   ----------------------------------------
 .byte   PATT
  .word Label_010050DD
@  #01 @061   ----------------------------------------
 .byte   PATT
  .word Label_010050D6
@  #01 @062   ----------------------------------------
 .byte   PATT
  .word Label_010050DD
@  #01 @063   ----------------------------------------
 .byte   N11 ,Dn1 ,v120
 .byte   W12
 .byte   N12
 .byte   W12
 .byte   N24 ,Cn1 ,v124
 .byte   W48
 .byte   N11 ,Dn1 ,v120
 .byte   W12
 .byte   N12
 .byte   W12
@  #01 @064   ----------------------------------------
 .byte   N24 ,Cn1 ,v124
 .byte   W48
 .byte   N11 ,Dn1 ,v120
 .byte   W12
 .byte   N12
 .byte   W12
 .byte   N24 ,Cn1 ,v124
 .byte   W24
@  #01 @065   ----------------------------------------
Label_01005148:
 .byte   N12 ,Dn1 ,v120
 .byte   W48
 .byte   N12
 .byte   W48
 .byte   PEND 
@  #01 @066   ----------------------------------------
 .byte   PATT
  .word Label_01005148
@  #01 @067   ----------------------------------------
 .byte   PATT
  .word Label_01005148
@  #01 @068   ----------------------------------------
 .byte   PATT
  .word Label_01005148
@  #01 @069   ----------------------------------------
 .byte   PATT
  .word Label_01005148
@  #01 @070   ----------------------------------------
 .byte   PATT
  .word Label_01005148
@  #01 @071   ----------------------------------------
 .byte   PATT
  .word Label_01005148
@  #01 @072   ----------------------------------------
 .byte   PATT
  .word Label_01005148
@  #01 @073   ----------------------------------------
 .byte   PATT
  .word Label_01005148
@  #01 @074   ----------------------------------------
 .byte   PATT
  .word Label_01005148
@  #01 @075   ----------------------------------------
 .byte   PATT
  .word Label_01005148
@  #01 @076   ----------------------------------------
 .byte   PATT
  .word Label_01005148
@  #01 @077   ----------------------------------------
 .byte   PATT
  .word Label_01005148
@  #01 @078   ----------------------------------------
 .byte   PATT
  .word Label_01005148
@  #01 @079   ----------------------------------------
 .byte   PATT
  .word Label_01005148
@  #01 @080   ----------------------------------------
 .byte   PATT
  .word Label_01005148
@  #01 @081   ----------------------------------------
Label_0100519A:
 .byte   N12 ,Dn1 ,v120
 .byte   W36
 .byte   Dn1 ,v112
 .byte   W12
 .byte   N24 ,Cn1 ,v127
 .byte   N12 ,Dn1 ,v120
 .byte   W48
 .byte   PEND 
@  #01 @082   ----------------------------------------
Label_010051A9:
 .byte   N12 ,Dn1 ,v120
 .byte   W36
 .byte   Dn1 ,v112
 .byte   W12
 .byte   N24 ,Cn1 ,v127
 .byte   N12 ,Dn1 ,v120
 .byte   W24
 .byte   Dn1 ,v112
 .byte   W24
 .byte   PEND 
@  #01 @083   ----------------------------------------
 .byte   PATT
  .word Label_0100519A
@  #01 @084   ----------------------------------------
 .byte   PATT
  .word Label_0100519A
@  #01 @085   ----------------------------------------
 .byte   PATT
  .word Label_0100519A
@  #01 @086   ----------------------------------------
 .byte   PATT
  .word Label_010051A9
@  #01 @087   ----------------------------------------
 .byte   PATT
  .word Label_0100519A
@  #01 @088   ----------------------------------------
 .byte   PATT
  .word Label_0100519A
@  #01 @089   ----------------------------------------
 .byte   PATT
  .word Label_0100519A
@  #01 @090   ----------------------------------------
 .byte   PATT
  .word Label_010051A9
@  #01 @091   ----------------------------------------
 .byte   PATT
  .word Label_0100519A
@  #01 @092   ----------------------------------------
 .byte   PATT
  .word Label_0100519A
@  #01 @093   ----------------------------------------
 .byte   PATT
  .word Label_0100519A
@  #01 @094   ----------------------------------------
 .byte   PATT
  .word Label_010051A9
@  #01 @095   ----------------------------------------
 .byte   PATT
  .word Label_0100519A
@  #01 @096   ----------------------------------------
 .byte   N12 ,Dn1 ,v120
 .byte   W12
 .byte   N11 ,Cn1 ,v124
 .byte   W12
 .byte   N11
 .byte   W12
 .byte   N11
 .byte   W12
 .byte   N11
 .byte   N12 ,Dn1 ,v120
 .byte   W12
 .byte   N11 ,Cn1 ,v124
 .byte   W12
 .byte   N11
 .byte   W12
 .byte   N11
 .byte   W12
@  #01 @097   ----------------------------------------
 .byte   PATT
  .word Label_01004F95
@  #01 @098   ----------------------------------------
 .byte   PATT
  .word Label_01004FAC
@  #01 @099   ----------------------------------------
 .byte   PATT
  .word Label_01004FCB
@  #01 @100   ----------------------------------------
 .byte   PATT
  .word Label_01004FE6
@  #01 @101   ----------------------------------------
 .byte   PATT
  .word Label_01004F95
@  #01 @102   ----------------------------------------
 .byte   PATT
  .word Label_01005004
@  #01 @103   ----------------------------------------
 .byte   PATT
  .word Label_01004FCB
@  #01 @104   ----------------------------------------
 .byte   PATT
  .word Label_010050C1
@  #01 @105   ----------------------------------------
 .byte   PATT
  .word Label_010050D6
@  #01 @106   ----------------------------------------
 .byte   PATT
  .word Label_010050DD
@  #01 @107   ----------------------------------------
 .byte   PATT
  .word Label_010050E8
@  #01 @108   ----------------------------------------
 .byte   PATT
  .word Label_010050DD
@  #01 @109   ----------------------------------------
 .byte   PATT
  .word Label_010050D6
@  #01 @110   ----------------------------------------
 .byte   PATT
  .word Label_010050DD
@  #01 @111   ----------------------------------------
 .byte   PATT
  .word Label_010050E8
@  #01 @112   ----------------------------------------
 .byte   PATT
  .word Label_010050DD
@  #01 @113   ----------------------------------------
 .byte   PATT
  .word Label_010050D6
@  #01 @114   ----------------------------------------
 .byte   PATT
  .word Label_010050DD
@  #01 @115   ----------------------------------------
 .byte   PATT
  .word Label_010050E8
@  #01 @116   ----------------------------------------
 .byte   PATT
  .word Label_010050DD
@  #01 @117   ----------------------------------------
 .byte   PATT
  .word Label_010050D6
@  #01 @118   ----------------------------------------
 .byte   PATT
  .word Label_010050DD
@  #01 @119   ----------------------------------------
 .byte   N11 ,Cn1 ,v124
 .byte   W12
 .byte   N11
 .byte   W12
 .byte   N24
 .byte   W48
 .byte   N11
 .byte   W12
 .byte   N11
 .byte   W12
@  #01 @120   ----------------------------------------
 .byte   N24
 .byte   W48
 .byte   N11 ,Cn1 ,v092
 .byte   W12
 .byte   Cn1 ,v112
 .byte   W12
 .byte   Cn1 ,v127
 .byte   W12
 .byte   N24
 .byte   W12
@  #01 @121   ----------------------------------------
 .byte   PATT
  .word Label_01004F22
@  #01 @122   ----------------------------------------
 .byte   PATT
  .word Label_01004F22
@  #01 @123   ----------------------------------------
 .byte   PATT
  .word Label_01004F22
@  #01 @124   ----------------------------------------
 .byte   PATT
  .word Label_01004F22
@  #01 @125   ----------------------------------------
 .byte   GOTO
  .word Label_01004F3F
@  #01 @126   ----------------------------------------
 .byte   N12 ,Dn1 ,v120
 .byte   W23
 .byte   FINE

@**************** Track 2 (Midi-Chn.1) ****************@

song04_002:
@  #02 @000   ----------------------------------------
 .byte   KEYSH , song04_key+0
 .byte   VOICE , 38
 .byte   VOL , 49*song04_mvl/mxv
 .byte   BENDR, 6
 .byte   N11 ,Gs0 ,v120
 .byte   W12
 .byte   N11
 .byte   W12
 .byte   N11
 .byte   W12
 .byte   As0
 .byte   W12
 .byte   N11
 .byte   W12
 .byte   N11
 .byte   W12
 .byte   N11
 .byte   W12
 .byte   N11
 .byte   W12
@  #02 @001   ----------------------------------------
Label_010052F6:
 .byte   N11 ,As0 ,v120
 .byte   W12
 .byte   N11
 .byte   W12
 .byte   N11
 .byte   W12
 .byte   N11
 .byte   W12
 .byte   N11
 .byte   W12
 .byte   N11
 .byte   W12
 .byte   N11
 .byte   W12
 .byte   N11
 .byte   W12
 .byte   PEND 
@  #02 @002   ----------------------------------------
 .byte   PATT
  .word Label_010052F6
@  #02 @003   ----------------------------------------
 .byte   PATT
  .word Label_010052F6
@  #02 @004   ----------------------------------------
Label_01005313:
 .byte   N11 ,As0 ,v120
 .byte   W12
 .byte   N11
 .byte   W12
 .byte   N11
 .byte   W12
 .byte   Gs0
 .byte   W12
 .byte   N11
 .byte   W12
 .byte   N11
 .byte   W12
 .byte   N11
 .byte   W12
 .byte   N11
 .byte   W12
 .byte   PEND 
@  #02 @005   ----------------------------------------
Label_01005326:
 .byte   N11 ,Gs0 ,v120
 .byte   W12
 .byte   N11
 .byte   W12
 .byte   N11
 .byte   W12
 .byte   N11
 .byte   W12
 .byte   N11
 .byte   W12
 .byte   N11
 .byte   W12
 .byte   N11
 .byte   W12
 .byte   N11
 .byte   W12
 .byte   PEND 
@  #02 @006   ----------------------------------------
 .byte   PATT
  .word Label_01005326
@  #02 @007   ----------------------------------------
 .byte   PATT
  .word Label_01005326
@  #02 @008   ----------------------------------------
Label_01005343:
 .byte   N11 ,Gs0 ,v120
 .byte   W12
 .byte   N11
 .byte   W12
 .byte   N11
 .byte   W12
 .byte   As0
 .byte   W12
 .byte   N11
 .byte   W12
 .byte   N11
 .byte   W12
 .byte   N11
 .byte   W12
 .byte   N11
 .byte   W12
 .byte   PEND 
@  #02 @009   ----------------------------------------
 .byte   PATT
  .word Label_010052F6
@  #02 @010   ----------------------------------------
 .byte   PATT
  .word Label_010052F6
@  #02 @011   ----------------------------------------
 .byte   PATT
  .word Label_010052F6
@  #02 @012   ----------------------------------------
 .byte   PATT
  .word Label_01005313
@  #02 @013   ----------------------------------------
 .byte   PATT
  .word Label_01005326
@  #02 @014   ----------------------------------------
 .byte   PATT
  .word Label_01005326
@  #02 @015   ----------------------------------------
Label_01005374:
 .byte   N11 ,Gs0 ,v120
 .byte   W12
 .byte   N11
 .byte   W12
 .byte   N11
 .byte   W12
 .byte   N11
 .byte   W12
 .byte   N11
 .byte   W12
 .byte   N11
 .byte   W12
 .byte   N11
 .byte   W12
 .byte   N12
 .byte   W12
 .byte   PEND 
@  #02 @016   ----------------------------------------
 .byte   W96
@  #02 @017   ----------------------------------------
 .byte   W96
@  #02 @018   ----------------------------------------
 .byte   W96
@  #02 @019   ----------------------------------------
 .byte   W96
@  #02 @020   ----------------------------------------
 .byte   W96
@  #02 @021   ----------------------------------------
 .byte   W96
@  #02 @022   ----------------------------------------
 .byte   W96
@  #02 @023   ----------------------------------------
 .byte   W96
@  #02 @024   ----------------------------------------
 .byte   PATT
  .word Label_01005343
@  #02 @025   ----------------------------------------
 .byte   PATT
  .word Label_010052F6
@  #02 @026   ----------------------------------------
 .byte   PATT
  .word Label_010052F6
@  #02 @027   ----------------------------------------
 .byte   PATT
  .word Label_010052F6
@  #02 @028   ----------------------------------------
 .byte   PATT
  .word Label_01005313
@  #02 @029   ----------------------------------------
 .byte   PATT
  .word Label_01005326
@  #02 @030   ----------------------------------------
 .byte   PATT
  .word Label_01005326
@  #02 @031   ----------------------------------------
 .byte   PATT
  .word Label_01005326
@  #02 @032   ----------------------------------------
 .byte   PATT
  .word Label_01005343
@  #02 @033   ----------------------------------------
 .byte   PATT
  .word Label_010052F6
@  #02 @034   ----------------------------------------
 .byte   PATT
  .word Label_010052F6
@  #02 @035   ----------------------------------------
 .byte   PATT
  .word Label_010052F6
@  #02 @036   ----------------------------------------
 .byte   PATT
  .word Label_01005313
@  #02 @037   ----------------------------------------
 .byte   PATT
  .word Label_01005326
@  #02 @038   ----------------------------------------
 .byte   PATT
  .word Label_01005326
@  #02 @039   ----------------------------------------
 .byte   PATT
  .word Label_01005374
@  #02 @040   ----------------------------------------
 .byte   W96
@  #02 @041   ----------------------------------------
 .byte   W96
@  #02 @042   ----------------------------------------
 .byte   W96
@  #02 @043   ----------------------------------------
 .byte   W96
@  #02 @044   ----------------------------------------
 .byte   W96
@  #02 @045   ----------------------------------------
 .byte   W96
@  #02 @046   ----------------------------------------
 .byte   W96
@  #02 @047   ----------------------------------------
 .byte   W96
@  #02 @048   ----------------------------------------
 .byte   TIE ,Gn0 ,v120
 .byte   W96
@  #02 @049   ----------------------------------------
 .byte   W96
@  #02 @050   ----------------------------------------
 .byte   W60
 .byte   EOT
 .byte   W12
 .byte   N06
 .byte   W12
 .byte   N06
 .byte   W12
@  #02 @051   ----------------------------------------
 .byte   N92
 .byte   W96
@  #02 @052   ----------------------------------------
 .byte   TIE ,Gs0
 .byte   W96
@  #02 @053   ----------------------------------------
 .byte   W96
@  #02 @054   ----------------------------------------
 .byte   W60
 .byte   EOT
 .byte   W12
 .byte   N06
 .byte   W12
 .byte   N06
 .byte   W12
@  #02 @055   ----------------------------------------
 .byte   N92
 .byte   W96
@  #02 @056   ----------------------------------------
 .byte   TIE ,Gn0
 .byte   W96
@  #02 @057   ----------------------------------------
 .byte   W96
@  #02 @058   ----------------------------------------
 .byte   W60
 .byte   EOT
 .byte   W12
 .byte   N06
 .byte   W12
 .byte   N06
 .byte   W12
@  #02 @059   ----------------------------------------
 .byte   N92
 .byte   W96
@  #02 @060   ----------------------------------------
 .byte   TIE ,Gs0
 .byte   W96
@  #02 @061   ----------------------------------------
 .byte   W92
 .byte   W03
 .byte   EOT
 .byte   W01
@  #02 @062   ----------------------------------------
Label_01005416:
 .byte   N06 ,As0 ,v120
 .byte   W12
 .byte   N06
 .byte   W12
 .byte   N44
 .byte   W48
 .byte   N06
 .byte   W12
 .byte   N06
 .byte   W12
 .byte   PEND 
@  #02 @063   ----------------------------------------
Label_01005423:
 .byte   N44 ,As0 ,v120
 .byte   W48
 .byte   N06
 .byte   W12
 .byte   N06
 .byte   W12
 .byte   N21
 .byte   W24
 .byte   PEND 
@  #02 @064   ----------------------------------------
 .byte   W96
@  #02 @065   ----------------------------------------
 .byte   W96
@  #02 @066   ----------------------------------------
 .byte   W96
@  #02 @067   ----------------------------------------
 .byte   W96
@  #02 @068   ----------------------------------------
 .byte   W96
@  #02 @069   ----------------------------------------
 .byte   W96
@  #02 @070   ----------------------------------------
 .byte   W96
@  #02 @071   ----------------------------------------
 .byte   W96
@  #02 @072   ----------------------------------------
 .byte   W96
@  #02 @073   ----------------------------------------
 .byte   W96
@  #02 @074   ----------------------------------------
 .byte   W96
@  #02 @075   ----------------------------------------
 .byte   W96
@  #02 @076   ----------------------------------------
 .byte   W96
@  #02 @077   ----------------------------------------
 .byte   W96
@  #02 @078   ----------------------------------------
 .byte   W96
@  #02 @079   ----------------------------------------
 .byte   W96
@  #02 @080   ----------------------------------------
 .byte   W96
@  #02 @081   ----------------------------------------
 .byte   W96
@  #02 @082   ----------------------------------------
 .byte   W96
@  #02 @083   ----------------------------------------
 .byte   W96
@  #02 @084   ----------------------------------------
 .byte   W96
@  #02 @085   ----------------------------------------
 .byte   W96
@  #02 @086   ----------------------------------------
 .byte   W96
@  #02 @087   ----------------------------------------
 .byte   W96
@  #02 @088   ----------------------------------------
 .byte   W96
@  #02 @089   ----------------------------------------
 .byte   W96
@  #02 @090   ----------------------------------------
 .byte   W96
@  #02 @091   ----------------------------------------
 .byte   W96
@  #02 @092   ----------------------------------------
 .byte   W96
@  #02 @093   ----------------------------------------
 .byte   W96
@  #02 @094   ----------------------------------------
 .byte   W96
@  #02 @095   ----------------------------------------
 .byte   W96
@  #02 @096   ----------------------------------------
 .byte   W96
@  #02 @097   ----------------------------------------
 .byte   W96
@  #02 @098   ----------------------------------------
 .byte   W96
@  #02 @099   ----------------------------------------
 .byte   W96
@  #02 @100   ----------------------------------------
 .byte   W96
@  #02 @101   ----------------------------------------
 .byte   W96
@  #02 @102   ----------------------------------------
 .byte   W96
@  #02 @103   ----------------------------------------
 .byte   W96
@  #02 @104   ----------------------------------------
 .byte   TIE ,Gn0
 .byte   W96
@  #02 @105   ----------------------------------------
 .byte   W96
@  #02 @106   ----------------------------------------
 .byte   W60
 .byte   EOT
 .byte   W12
 .byte   N06
 .byte   W12
 .byte   N06
 .byte   W12
@  #02 @107   ----------------------------------------
 .byte   N92
 .byte   W96
@  #02 @108   ----------------------------------------
 .byte   TIE ,Gs0
 .byte   W96
@  #02 @109   ----------------------------------------
 .byte   W96
@  #02 @110   ----------------------------------------
 .byte   W60
 .byte   EOT
 .byte   W12
 .byte   N06
 .byte   W12
 .byte   N06
 .byte   W12
@  #02 @111   ----------------------------------------
 .byte   N92
 .byte   W96
@  #02 @112   ----------------------------------------
 .byte   TIE ,Gn0
 .byte   W96
@  #02 @113   ----------------------------------------
 .byte   W96
@  #02 @114   ----------------------------------------
 .byte   W60
 .byte   EOT
 .byte   W12
 .byte   N06
 .byte   W12
 .byte   N06
 .byte   W12
@  #02 @115   ----------------------------------------
 .byte   N92
 .byte   W96
@  #02 @116   ----------------------------------------
 .byte   TIE ,Gs0
 .byte   W96
@  #02 @117   ----------------------------------------
 .byte   W92
 .byte   W03
 .byte   EOT
 .byte   W01
@  #02 @118   ----------------------------------------
 .byte   PATT
  .word Label_01005416
@  #02 @119   ----------------------------------------
 .byte   PATT
  .word Label_01005423
@  #02 @120   ----------------------------------------
 .byte   PATT
  .word Label_01005343
@  #02 @121   ----------------------------------------
 .byte   PATT
  .word Label_010052F6
@  #02 @122   ----------------------------------------
 .byte   PATT
  .word Label_010052F6
@  #02 @123   ----------------------------------------
 .byte   PATT
  .word Label_010052F6
@  #02 @124   ----------------------------------------
 .byte   GOTO
  .word Label_01005313
@  #02 @125   ----------------------------------------
 .byte   N11 ,As0 ,v120
 .byte   W12
 .byte   N11
 .byte   W11
 .byte   FINE

@**************** Track 3 (Midi-Chn.2) ****************@

song04_003:
@  #03 @000   ----------------------------------------
 .byte   KEYSH , song04_key+0
 .byte   VOICE , 30
 .byte   VOL , 39*song04_mvl/mxv
 .byte   BENDR, 6
 .byte   W96
@  #03 @001   ----------------------------------------
 .byte   W96
@  #03 @002   ----------------------------------------
 .byte   W96
@  #03 @003   ----------------------------------------
 .byte   W96
@  #03 @004   ----------------------------------------
Label_01006094:
 .byte   W96
@  #03 @005   ----------------------------------------
 .byte   W96
@  #03 @006   ----------------------------------------
 .byte   W96
@  #03 @007   ----------------------------------------
 .byte   W96
@  #03 @008   ----------------------------------------
 .byte   W96
@  #03 @009   ----------------------------------------
 .byte   W96
@  #03 @010   ----------------------------------------
 .byte   W96
@  #03 @011   ----------------------------------------
 .byte   W96
@  #03 @012   ----------------------------------------
 .byte   W96
@  #03 @013   ----------------------------------------
 .byte   W96
@  #03 @014   ----------------------------------------
 .byte   W96
@  #03 @015   ----------------------------------------
 .byte   W96
@  #03 @016   ----------------------------------------
 .byte   W96
@  #03 @017   ----------------------------------------
 .byte   W96
@  #03 @018   ----------------------------------------
 .byte   W96
@  #03 @019   ----------------------------------------
 .byte   W96
@  #03 @020   ----------------------------------------
 .byte   W96
@  #03 @021   ----------------------------------------
 .byte   W96
@  #03 @022   ----------------------------------------
 .byte   W96
@  #03 @023   ----------------------------------------
 .byte   W96
@  #03 @024   ----------------------------------------
 .byte   W96
@  #03 @025   ----------------------------------------
 .byte   W96
@  #03 @026   ----------------------------------------
 .byte   W96
@  #03 @027   ----------------------------------------
 .byte   W96
@  #03 @028   ----------------------------------------
 .byte   W96
@  #03 @029   ----------------------------------------
 .byte   W96
@  #03 @030   ----------------------------------------
 .byte   W96
@  #03 @031   ----------------------------------------
 .byte   W96
@  #03 @032   ----------------------------------------
 .byte   W96
@  #03 @033   ----------------------------------------
 .byte   W96
@  #03 @034   ----------------------------------------
 .byte   W96
@  #03 @035   ----------------------------------------
 .byte   W96
@  #03 @036   ----------------------------------------
 .byte   W96
@  #03 @037   ----------------------------------------
 .byte   W96
@  #03 @038   ----------------------------------------
 .byte   W96
@  #03 @039   ----------------------------------------
 .byte   W96
@  #03 @040   ----------------------------------------
 .byte   W96
@  #03 @041   ----------------------------------------
 .byte   W96
@  #03 @042   ----------------------------------------
 .byte   W96
@  #03 @043   ----------------------------------------
 .byte   W96
@  #03 @044   ----------------------------------------
 .byte   W96
@  #03 @045   ----------------------------------------
 .byte   W96
@  #03 @046   ----------------------------------------
 .byte   W96
@  #03 @047   ----------------------------------------
 .byte   W96
@  #03 @048   ----------------------------------------
 .byte   W96
@  #03 @049   ----------------------------------------
 .byte   W96
@  #03 @050   ----------------------------------------
 .byte   W96
@  #03 @051   ----------------------------------------
 .byte   W96
@  #03 @052   ----------------------------------------
 .byte   W96
@  #03 @053   ----------------------------------------
 .byte   W96
@  #03 @054   ----------------------------------------
 .byte   W96
@  #03 @055   ----------------------------------------
 .byte   W96
@  #03 @056   ----------------------------------------
 .byte   W96
@  #03 @057   ----------------------------------------
 .byte   W96
@  #03 @058   ----------------------------------------
 .byte   W96
@  #03 @059   ----------------------------------------
 .byte   W96
@  #03 @060   ----------------------------------------
 .byte   W96
@  #03 @061   ----------------------------------------
 .byte   W96
@  #03 @062   ----------------------------------------
 .byte   W96
@  #03 @063   ----------------------------------------
 .byte   W96
@  #03 @064   ----------------------------------------
 .byte   TIE ,Fn3 ,v127
 .byte   W03
 .byte   BEND , c_v+7
 .byte   W06
 .byte   BEND , c_v+20
 .byte   W84
 .byte   W03
@  #03 @065   ----------------------------------------
 .byte   W96
@  #03 @066   ----------------------------------------
 .byte   W14
 .byte   BEND , c_v+19
 .byte   W12
 .byte   BEND , c_v+15
 .byte   W12
 .byte   BEND , c_v+12
 .byte   W12
 .byte   BEND , c_v+9
 .byte   W12
 .byte   BEND , c_v+6
 .byte   W12
 .byte   BEND , c_v+3
 .byte   W06
 .byte   BEND , c_v+2
 .byte   W13
 .byte   EOT
 .byte   W03
@  #03 @067   ----------------------------------------
 .byte   BEND , c_v+0
 .byte   N09 ,Ds3
 .byte   W12
 .byte   TIE ,Cn3
 .byte   W84
@  #03 @068   ----------------------------------------
 .byte   W60
 .byte   W03
 .byte   EOT
 .byte   W09
 .byte   N10 ,As2
 .byte   W12
 .byte   Cn3
 .byte   W12
@  #03 @069   ----------------------------------------
 .byte   Dn3
 .byte   W12
 .byte   Ds3
 .byte   W12
 .byte   Dn3
 .byte   W12
 .byte   Cn3
 .byte   W12
 .byte   As2
 .byte   W12
 .byte   Cn3
 .byte   W12
 .byte   As2
 .byte   W12
 .byte   Gs2
 .byte   W12
@  #03 @070   ----------------------------------------
 .byte   Gn2
 .byte   W12
 .byte   Gs2
 .byte   W12
 .byte   As2
 .byte   W12
 .byte   Gs2
 .byte   W12
 .byte   Gn2
 .byte   W12
 .byte   Fn2
 .byte   W12
 .byte   Ds2
 .byte   W12
 .byte   Dn2
 .byte   W12
@  #03 @071   ----------------------------------------
 .byte   W72
 .byte   Gn1
 .byte   W12
 .byte   As1
 .byte   W12
@  #03 @072   ----------------------------------------
 .byte   N56 ,Ds3
 .byte   W60
 .byte   N09 ,Cn2
 .byte   W12
 .byte   As1
 .byte   W12
 .byte   Cn2
 .byte   W12
@  #03 @073   ----------------------------------------
 .byte   N44 ,Fn3
 .byte   W60
 .byte   N09 ,Cn2
 .byte   W12
 .byte   As1
 .byte   W12
 .byte   Cn2
 .byte   W12
@  #03 @074   ----------------------------------------
 .byte   Fs3
 .byte   W12
 .byte   Cn2
 .byte   W12
 .byte   As1
 .byte   W12
 .byte   Cn2
 .byte   W12
 .byte   Gn3
 .byte   W12
 .byte   Cn2
 .byte   W12
 .byte   As1
 .byte   W12
 .byte   Cn2
 .byte   W12
@  #03 @075   ----------------------------------------
 .byte   Gs3
 .byte   W12
 .byte   Cn2
 .byte   W12
 .byte   As1
 .byte   W12
 .byte   Cn2
 .byte   W12
 .byte   An3
 .byte   W12
 .byte   Cn2
 .byte   W12
 .byte   As1
 .byte   W12
 .byte   Cn2
 .byte   W12
@  #03 @076   ----------------------------------------
 .byte   TIE ,As3
 .byte   W96
@  #03 @077   ----------------------------------------
 .byte   W92
 .byte   W01
 .byte   EOT
 .byte   W03
@  #03 @078   ----------------------------------------
 .byte   N05 ,Cn3
 .byte   W06
 .byte   As3
 .byte   W06
 .byte   Gs3
 .byte   W06
 .byte   Gn3
 .byte   W06
 .byte   Fn3
 .byte   W06
 .byte   Ds3
 .byte   W06
 .byte   Dn3
 .byte   W06
 .byte   N09 ,Cn3
 .byte   W54
@  #03 @079   ----------------------------------------
 .byte   W96
@  #03 @080   ----------------------------------------
 .byte   W96
@  #03 @081   ----------------------------------------
 .byte   W96
@  #03 @082   ----------------------------------------
 .byte   W96
@  #03 @083   ----------------------------------------
 .byte   W96
@  #03 @084   ----------------------------------------
 .byte   W96
@  #03 @085   ----------------------------------------
 .byte   W96
@  #03 @086   ----------------------------------------
 .byte   W96
@  #03 @087   ----------------------------------------
 .byte   W96
@  #03 @088   ----------------------------------------
 .byte   W96
@  #03 @089   ----------------------------------------
 .byte   W96
@  #03 @090   ----------------------------------------
 .byte   W96
@  #03 @091   ----------------------------------------
 .byte   W96
@  #03 @092   ----------------------------------------
 .byte   W96
@  #03 @093   ----------------------------------------
 .byte   W96
@  #03 @094   ----------------------------------------
 .byte   W96
@  #03 @095   ----------------------------------------
 .byte   W96
@  #03 @096   ----------------------------------------
 .byte   W96
@  #03 @097   ----------------------------------------
 .byte   W96
@  #03 @098   ----------------------------------------
 .byte   W96
@  #03 @099   ----------------------------------------
 .byte   W96
@  #03 @100   ----------------------------------------
 .byte   W96
@  #03 @101   ----------------------------------------
 .byte   W96
@  #03 @102   ----------------------------------------
 .byte   W96
@  #03 @103   ----------------------------------------
 .byte   W96
@  #03 @104   ----------------------------------------
 .byte   W96
@  #03 @105   ----------------------------------------
 .byte   W96
@  #03 @106   ----------------------------------------
 .byte   W96
@  #03 @107   ----------------------------------------
 .byte   W96
@  #03 @108   ----------------------------------------
 .byte   W96
@  #03 @109   ----------------------------------------
 .byte   W96
@  #03 @110   ----------------------------------------
 .byte   W96
@  #03 @111   ----------------------------------------
 .byte   W96
@  #03 @112   ----------------------------------------
 .byte   W96
@  #03 @113   ----------------------------------------
 .byte   W96
@  #03 @114   ----------------------------------------
 .byte   W96
@  #03 @115   ----------------------------------------
 .byte   W96
@  #03 @116   ----------------------------------------
 .byte   W96
@  #03 @117   ----------------------------------------
 .byte   W96
@  #03 @118   ----------------------------------------
 .byte   W96
@  #03 @119   ----------------------------------------
 .byte   W96
@  #03 @120   ----------------------------------------
 .byte   W96
@  #03 @121   ----------------------------------------
 .byte   W96
@  #03 @122   ----------------------------------------
 .byte   W96
@  #03 @123   ----------------------------------------
 .byte   W96
@  #03 @124   ----------------------------------------
 .byte   GOTO
  .word Label_01006094
@  #03 @125   ----------------------------------------
 .byte   W23
 .byte   FINE

@**************** Track 4 (Midi-Chn.3) ****************@

song04_004:
@  #04 @000   ----------------------------------------
 .byte   KEYSH , song04_key+0
 .byte   VOICE , 36
 .byte   VOL , 49*song04_mvl/mxv
 .byte   BENDR, 4
 .byte   W96
@  #04 @001   ----------------------------------------
 .byte   W96
@  #04 @002   ----------------------------------------
 .byte   W96
@  #04 @003   ----------------------------------------
 .byte   W96
@  #04 @004   ----------------------------------------
Label_0100627C:
 .byte   W96
@  #04 @005   ----------------------------------------
 .byte   W96
@  #04 @006   ----------------------------------------
 .byte   W96
@  #04 @007   ----------------------------------------
 .byte   W96
@  #04 @008   ----------------------------------------
 .byte   W96
@  #04 @009   ----------------------------------------
 .byte   W96
@  #04 @010   ----------------------------------------
 .byte   W96
@  #04 @011   ----------------------------------------
 .byte   W96
@  #04 @012   ----------------------------------------
 .byte   W96
@  #04 @013   ----------------------------------------
 .byte   W96
@  #04 @014   ----------------------------------------
 .byte   W96
@  #04 @015   ----------------------------------------
 .byte   W96
@  #04 @016   ----------------------------------------
Label_01006288:
 .byte   N06 ,Cn2 ,v127
 .byte   W12
 .byte   N21 ,As2
 .byte   W12
 .byte   BEND , c_v+29
 .byte   W12
 .byte   BEND , c_v+0
 .byte   N06 ,Cn2
 .byte   W12
 .byte   N21 ,Fn2
 .byte   W12
 .byte   BEND , c_v+35
 .byte   W12
 .byte   BEND , c_v+0
 .byte   N06 ,Cn2
 .byte   W12
 .byte   Ds2
 .byte   W12
 .byte   PEND 
@  #04 @017   ----------------------------------------
Label_010062A5:
 .byte   N06 ,Cn2 ,v127
 .byte   W12
 .byte   N21 ,Fn2
 .byte   W12
 .byte   BEND , c_v+35
 .byte   W12
 .byte   BEND , c_v+0
 .byte   N21 ,Ds2
 .byte   W12
 .byte   BEND , c_v+35
 .byte   W12
 .byte   BEND , c_v+0
 .byte   N18 ,Cn2
 .byte   W24
 .byte   N06
 .byte   W12
 .byte   PEND 
@  #04 @018   ----------------------------------------
 .byte   PATT
  .word Label_01006288
@  #04 @019   ----------------------------------------
Label_010062C4:
 .byte   N06 ,As1 ,v127
 .byte   W12
 .byte   N21 ,Bn1
 .byte   W24
 .byte   Cn2
 .byte   W24
 .byte   Dn2
 .byte   W36
 .byte   PEND 
@  #04 @020   ----------------------------------------
 .byte   PATT
  .word Label_01006288
@  #04 @021   ----------------------------------------
 .byte   PATT
  .word Label_010062A5
@  #04 @022   ----------------------------------------
 .byte   PATT
  .word Label_01006288
@  #04 @023   ----------------------------------------
Label_010062DF:
 .byte   N06 ,Cn2 ,v127
 .byte   W12
 .byte   N09
 .byte   W12
 .byte   As2
 .byte   W12
 .byte   Cn2
 .byte   W12
 .byte   N15 ,As1
 .byte   W12
 .byte   N12 ,As2
 .byte   W12
 .byte   N15 ,As1
 .byte   W12
 .byte   N12 ,As2
 .byte   W12
 .byte   PEND 
@  #04 @024   ----------------------------------------
 .byte   W96
@  #04 @025   ----------------------------------------
 .byte   W96
@  #04 @026   ----------------------------------------
 .byte   W96
@  #04 @027   ----------------------------------------
 .byte   W96
@  #04 @028   ----------------------------------------
 .byte   W96
@  #04 @029   ----------------------------------------
 .byte   W96
@  #04 @030   ----------------------------------------
 .byte   W96
@  #04 @031   ----------------------------------------
 .byte   W96
@  #04 @032   ----------------------------------------
 .byte   W96
@  #04 @033   ----------------------------------------
 .byte   W96
@  #04 @034   ----------------------------------------
 .byte   W96
@  #04 @035   ----------------------------------------
 .byte   W96
@  #04 @036   ----------------------------------------
 .byte   W96
@  #04 @037   ----------------------------------------
 .byte   W96
@  #04 @038   ----------------------------------------
 .byte   W96
@  #04 @039   ----------------------------------------
 .byte   W96
@  #04 @040   ----------------------------------------
 .byte   PATT
  .word Label_01006288
@  #04 @041   ----------------------------------------
 .byte   PATT
  .word Label_010062A5
@  #04 @042   ----------------------------------------
 .byte   PATT
  .word Label_01006288
@  #04 @043   ----------------------------------------
 .byte   PATT
  .word Label_010062C4
@  #04 @044   ----------------------------------------
 .byte   PATT
  .word Label_01006288
@  #04 @045   ----------------------------------------
 .byte   PATT
  .word Label_010062A5
@  #04 @046   ----------------------------------------
 .byte   PATT
  .word Label_01006288
@  #04 @047   ----------------------------------------
 .byte   PATT
  .word Label_010062DF
@  #04 @048   ----------------------------------------
 .byte   W96
@  #04 @049   ----------------------------------------
 .byte   W96
@  #04 @050   ----------------------------------------
 .byte   W96
@  #04 @051   ----------------------------------------
 .byte   W96
@  #04 @052   ----------------------------------------
 .byte   W96
@  #04 @053   ----------------------------------------
 .byte   W96
@  #04 @054   ----------------------------------------
 .byte   W96
@  #04 @055   ----------------------------------------
 .byte   W96
@  #04 @056   ----------------------------------------
 .byte   W96
@  #04 @057   ----------------------------------------
 .byte   W96
@  #04 @058   ----------------------------------------
 .byte   W96
@  #04 @059   ----------------------------------------
 .byte   W96
@  #04 @060   ----------------------------------------
 .byte   W96
@  #04 @061   ----------------------------------------
 .byte   W96
@  #04 @062   ----------------------------------------
 .byte   W96
@  #04 @063   ----------------------------------------
 .byte   W96
@  #04 @064   ----------------------------------------
 .byte   W96
@  #04 @065   ----------------------------------------
 .byte   W96
@  #04 @066   ----------------------------------------
 .byte   W96
@  #04 @067   ----------------------------------------
 .byte   W96
@  #04 @068   ----------------------------------------
 .byte   W96
@  #04 @069   ----------------------------------------
 .byte   W96
@  #04 @070   ----------------------------------------
 .byte   W96
@  #04 @071   ----------------------------------------
 .byte   W96
@  #04 @072   ----------------------------------------
 .byte   W96
@  #04 @073   ----------------------------------------
 .byte   W96
@  #04 @074   ----------------------------------------
 .byte   W96
@  #04 @075   ----------------------------------------
 .byte   W96
@  #04 @076   ----------------------------------------
 .byte   W96
@  #04 @077   ----------------------------------------
 .byte   W96
@  #04 @078   ----------------------------------------
 .byte   W72
 .byte   N21 ,Gn1 ,v124
 .byte   W11
 .byte   BEND , c_v+44
 .byte   W13
@  #04 @079   ----------------------------------------
 .byte   BEND , c_v+0
 .byte   N21
 .byte   W11
 .byte   BEND , c_v+44
 .byte   W13
 .byte   BEND , c_v+0
 .byte   N21 ,Dn2
 .byte   W11
 .byte   BEND , c_v+19
 .byte   W13
 .byte   BEND , c_v+0
 .byte   N21 ,Ds2
 .byte   W11
 .byte   BEND , c_v+31
 .byte   W13
 .byte   BEND , c_v+0
 .byte   N21
 .byte   W11
 .byte   BEND , c_v-15
 .byte   W13
@  #04 @080   ----------------------------------------
 .byte   BEND , c_v+0
 .byte   N09 ,Cn2
 .byte   W12
 .byte   N03
 .byte   W12
 .byte   N21 ,As1
 .byte   W11
 .byte   BEND , c_v+30
 .byte   W13
 .byte   BEND , c_v+0
 .byte   N09 ,Cn2
 .byte   W13
 .byte   N03 ,As2
 .byte   W11
 .byte   N21 ,As1
 .byte   W11
 .byte   BEND , c_v+30
 .byte   W13
@  #04 @081   ----------------------------------------
 .byte   BEND , c_v+0
 .byte   N03 ,Cn2
 .byte   W13
 .byte   N21 ,As2
 .byte   W10
 .byte   BEND , c_v+29
 .byte   W13
 .byte   BEND , c_v+0
 .byte   N03 ,Fn2
 .byte   W11
 .byte   BEND , c_v+29
 .byte   W01
 .byte   N21
 .byte   W11
 .byte   BEND , c_v+29
 .byte   W01
 .byte   BEND , c_v+0
 .byte   W12
 .byte   BEND , c_v+0
 .byte   N21 ,Ds2
 .byte   W11
 .byte   BEND , c_v+29
 .byte   W13
@  #04 @082   ----------------------------------------
 .byte   BEND , c_v+0
 .byte   N09 ,Cn2
 .byte   W12
 .byte   N03
 .byte   W13
 .byte   N21 ,Ds3
 .byte   W10
 .byte   BEND , c_v+30
 .byte   W13
 .byte   BEND , c_v+0
 .byte   N21 ,Ds2
 .byte   W11
 .byte   BEND , c_v+30
 .byte   W13
 .byte   BEND , c_v+0
 .byte   N03 ,Cn2
 .byte   W12
 .byte   N09 ,Ds2
 .byte   W12
@  #04 @083   ----------------------------------------
 .byte   Cn2
 .byte   W12
 .byte   N03
 .byte   W12
 .byte   N21 ,Fn2
 .byte   W11
 .byte   BEND , c_v+30
 .byte   W13
 .byte   BEND , c_v+0
 .byte   N19 ,As1
 .byte   W13
 .byte   N13 ,As2
 .byte   W11
 .byte   N19 ,Bn1
 .byte   W13
 .byte   N13 ,Bn2
 .byte   W11
@  #04 @084   ----------------------------------------
 .byte   N15 ,Cn2
 .byte   W13
 .byte   N03 ,Cn3
 .byte   W11
 .byte   N21 ,Fn2
 .byte   W11
 .byte   BEND , c_v+31
 .byte   W13
 .byte   BEND , c_v+0
 .byte   N09 ,Cn2
 .byte   W12
 .byte   N03
 .byte   W13
 .byte   N21 ,Ds3
 .byte   W10
 .byte   BEND , c_v+30
 .byte   W13
@  #04 @085   ----------------------------------------
 .byte   BEND , c_v+0
 .byte   N03 ,As1
 .byte   W13
 .byte   N21 ,As2
 .byte   W10
 .byte   BEND , c_v+30
 .byte   W13
 .byte   BEND , c_v+0
 .byte   N21 ,As1
 .byte   W13
 .byte   Gs2
 .byte   W10
 .byte   BEND , c_v+30
 .byte   W13
 .byte   BEND , c_v+0
 .byte   N09 ,Ds2
 .byte   W12
 .byte   N03 ,Fn2
 .byte   W12
@  #04 @086   ----------------------------------------
 .byte   N21 ,Cn2
 .byte   W13
 .byte   N03 ,Cn3
 .byte   W11
 .byte   N21 ,Ds2
 .byte   W11
 .byte   BEND , c_v+30
 .byte   W13
 .byte   BEND , c_v+0
 .byte   N09 ,Cn2
 .byte   W12
 .byte   N03 ,As1
 .byte   W12
 .byte   N21 ,As2
 .byte   W24
@  #04 @087   ----------------------------------------
 .byte   As1
 .byte   W13
 .byte   N03 ,Cn3
 .byte   W11
 .byte   N21 ,Fn2
 .byte   W11
 .byte   BEND , c_v+30
 .byte   W13
 .byte   BEND , c_v+0
 .byte   N03 ,As1
 .byte   W12
 .byte   N09 ,Cn3
 .byte   W12
 .byte   N21 ,As2
 .byte   W24
@  #04 @088   ----------------------------------------
 .byte   N15 ,Cn2
 .byte   W12
 .byte   N03 ,Cn3
 .byte   W12
 .byte   N21 ,Ds2
 .byte   W11
 .byte   BEND , c_v+30
 .byte   W13
 .byte   BEND , c_v+0
 .byte   N21 ,Cn2
 .byte   W15
 .byte   N15 ,As2
 .byte   W09
 .byte   N21 ,Cn2
 .byte   W15
 .byte   N15 ,Bn2
 .byte   W09
@  #04 @089   ----------------------------------------
 .byte   N09 ,Cn2
 .byte   W15
 .byte   Ds3
 .byte   W09
 .byte   N21 ,Cn2
 .byte   W13
 .byte   N03 ,Ds3
 .byte   W11
 .byte   N09 ,Cn2
 .byte   W13
 .byte   Ds3
 .byte   W12
 .byte   N21
 .byte   W10
 .byte   BEND , c_v+30
 .byte   W13
@  #04 @090   ----------------------------------------
 .byte   BEND , c_v+0
 .byte   N21 ,Cn2
 .byte   W13
 .byte   N09 ,Ds3
 .byte   W11
 .byte   As1
 .byte   W12
 .byte   N15 ,Bn1
 .byte   W13
 .byte   N09 ,Cn3
 .byte   W11
 .byte   Dn3
 .byte   W12
 .byte   N03 ,As1
 .byte   W12
 .byte   N09
 .byte   W12
@  #04 @091   ----------------------------------------
 .byte   N21
 .byte   W13
 .byte   N04 ,Dn3
 .byte   W11
 .byte   N03 ,Bn1
 .byte   W12
 .byte   N09
 .byte   W12
 .byte   N21 ,Cn2
 .byte   W13
 .byte   N04 ,Cn3
 .byte   W11
 .byte   N03 ,Cn2
 .byte   W12
 .byte   N09
 .byte   W12
@  #04 @092   ----------------------------------------
 .byte   N15
 .byte   W13
 .byte   N03 ,Gn2
 .byte   W11
 .byte   N21 ,Fn2
 .byte   W11
 .byte   BEND , c_v+30
 .byte   W13
 .byte   BEND , c_v+0
 .byte   N44 ,Cn2
 .byte   W48
@  #04 @093   ----------------------------------------
 .byte   N21
 .byte   W13
 .byte   N03 ,Cn3
 .byte   W11
 .byte   N21 ,Fn2
 .byte   W11
 .byte   BEND , c_v+30
 .byte   W13
 .byte   BEND , c_v+0
 .byte   N44 ,As2
 .byte   W48
@  #04 @094   ----------------------------------------
 .byte   N21 ,Cn2
 .byte   W13
 .byte   N03 ,Gn2
 .byte   W11
 .byte   N21 ,Fn2
 .byte   W11
 .byte   BEND , c_v+30
 .byte   W13
 .byte   BEND , c_v+0
 .byte   N21 ,Cn2
 .byte   W13
 .byte   N03 ,As2
 .byte   W11
 .byte   N21 ,Gs2
 .byte   W11
 .byte   BEND , c_v+30
 .byte   W13
@  #04 @095   ----------------------------------------
 .byte   BEND , c_v+0
 .byte   N21 ,Cn2
 .byte   W13
 .byte   N11 ,Cn3
 .byte   W11
 .byte   N21 ,As2
 .byte   W11
 .byte   BEND , c_v+30
 .byte   W13
 .byte   BEND , c_v+0
 .byte   N44 ,Dn3
 .byte   W48
@  #04 @096   ----------------------------------------
 .byte   N18 ,Cn2 ,v127
 .byte   W12
 .byte   N21 ,As2
 .byte   W12
 .byte   BEND , c_v+29
 .byte   W12
 .byte   BEND , c_v+0
 .byte   N06 ,Cn2
 .byte   W12
 .byte   N21 ,Fn2
 .byte   W12
 .byte   BEND , c_v+35
 .byte   W12
 .byte   BEND , c_v+0
 .byte   N06 ,Cn2
 .byte   W12
 .byte   Ds2
 .byte   W12
@  #04 @097   ----------------------------------------
 .byte   PATT
  .word Label_010062A5
@  #04 @098   ----------------------------------------
 .byte   PATT
  .word Label_01006288
@  #04 @099   ----------------------------------------
 .byte   PATT
  .word Label_010062C4
@  #04 @100   ----------------------------------------
 .byte   PATT
  .word Label_01006288
@  #04 @101   ----------------------------------------
 .byte   PATT
  .word Label_010062A5
@  #04 @102   ----------------------------------------
 .byte   PATT
  .word Label_01006288
@  #04 @103   ----------------------------------------
 .byte   PATT
  .word Label_010062DF
@  #04 @104   ----------------------------------------
 .byte   W96
@  #04 @105   ----------------------------------------
 .byte   W96
@  #04 @106   ----------------------------------------
 .byte   W96
@  #04 @107   ----------------------------------------
 .byte   W96
@  #04 @108   ----------------------------------------
 .byte   W96
@  #04 @109   ----------------------------------------
 .byte   W96
@  #04 @110   ----------------------------------------
 .byte   W96
@  #04 @111   ----------------------------------------
 .byte   W96
@  #04 @112   ----------------------------------------
 .byte   W96
@  #04 @113   ----------------------------------------
 .byte   W96
@  #04 @114   ----------------------------------------
 .byte   W96
@  #04 @115   ----------------------------------------
 .byte   W96
@  #04 @116   ----------------------------------------
 .byte   W96
@  #04 @117   ----------------------------------------
 .byte   W96
@  #04 @118   ----------------------------------------
 .byte   W96
@  #04 @119   ----------------------------------------
 .byte   W96
@  #04 @120   ----------------------------------------
 .byte   W96
@  #04 @121   ----------------------------------------
 .byte   W96
@  #04 @122   ----------------------------------------
 .byte   W96
@  #04 @123   ----------------------------------------
 .byte   W96
@  #04 @124   ----------------------------------------
 .byte   GOTO
  .word Label_0100627C
@  #04 @125   ----------------------------------------
 .byte   W23
 .byte   FINE

@**************** Track 5 (Midi-Chn.4) ****************@

song04_005:
@  #05 @000   ----------------------------------------
 .byte   KEYSH , song04_key+0
 .byte   VOICE , 30
 .byte   VOL , 37*song04_mvl/mxv
 .byte   BENDR, 5
 .byte   W96
@  #05 @001   ----------------------------------------
 .byte   W96
@  #05 @002   ----------------------------------------
 .byte   W96
@  #05 @003   ----------------------------------------
 .byte   W96
@  #05 @004   ----------------------------------------
Label_01005904:
 .byte   W96
@  #05 @005   ----------------------------------------
 .byte   W96
@  #05 @006   ----------------------------------------
 .byte   W96
@  #05 @007   ----------------------------------------
 .byte   W96
@  #05 @008   ----------------------------------------
 .byte   W96
@  #05 @009   ----------------------------------------
 .byte   W96
@  #05 @010   ----------------------------------------
 .byte   W96
@  #05 @011   ----------------------------------------
 .byte   W96
@  #05 @012   ----------------------------------------
 .byte   W96
@  #05 @013   ----------------------------------------
 .byte   W96
@  #05 @014   ----------------------------------------
 .byte   W96
@  #05 @015   ----------------------------------------
 .byte   W96
@  #05 @016   ----------------------------------------
 .byte   W96
@  #05 @017   ----------------------------------------
 .byte   W96
@  #05 @018   ----------------------------------------
 .byte   W96
@  #05 @019   ----------------------------------------
 .byte   W96
@  #05 @020   ----------------------------------------
 .byte   W96
@  #05 @021   ----------------------------------------
 .byte   W96
@  #05 @022   ----------------------------------------
 .byte   W96
@  #05 @023   ----------------------------------------
 .byte   W96
@  #05 @024   ----------------------------------------
 .byte   W96
@  #05 @025   ----------------------------------------
 .byte   W96
@  #05 @026   ----------------------------------------
 .byte   W96
@  #05 @027   ----------------------------------------
 .byte   W96
@  #05 @028   ----------------------------------------
 .byte   W96
@  #05 @029   ----------------------------------------
 .byte   W96
@  #05 @030   ----------------------------------------
 .byte   W96
@  #05 @031   ----------------------------------------
 .byte   W96
@  #05 @032   ----------------------------------------
 .byte   W96
@  #05 @033   ----------------------------------------
 .byte   W96
@  #05 @034   ----------------------------------------
 .byte   W96
@  #05 @035   ----------------------------------------
 .byte   W96
@  #05 @036   ----------------------------------------
 .byte   W96
@  #05 @037   ----------------------------------------
 .byte   W96
@  #05 @038   ----------------------------------------
 .byte   W96
@  #05 @039   ----------------------------------------
 .byte   W96
@  #05 @040   ----------------------------------------
 .byte   W96
@  #05 @041   ----------------------------------------
 .byte   W96
@  #05 @042   ----------------------------------------
 .byte   W96
@  #05 @043   ----------------------------------------
 .byte   W96
@  #05 @044   ----------------------------------------
 .byte   W96
@  #05 @045   ----------------------------------------
 .byte   W96
@  #05 @046   ----------------------------------------
 .byte   W96
@  #05 @047   ----------------------------------------
 .byte   W96
@  #05 @048   ----------------------------------------
 .byte   W96
@  #05 @049   ----------------------------------------
 .byte   W96
@  #05 @050   ----------------------------------------
 .byte   W96
@  #05 @051   ----------------------------------------
 .byte   W96
@  #05 @052   ----------------------------------------
 .byte   W96
@  #05 @053   ----------------------------------------
 .byte   W96
@  #05 @054   ----------------------------------------
 .byte   W96
@  #05 @055   ----------------------------------------
 .byte   W96
@  #05 @056   ----------------------------------------
 .byte   W96
@  #05 @057   ----------------------------------------
 .byte   W96
@  #05 @058   ----------------------------------------
 .byte   W96
@  #05 @059   ----------------------------------------
 .byte   W96
@  #05 @060   ----------------------------------------
 .byte   W96
@  #05 @061   ----------------------------------------
 .byte   W96
@  #05 @062   ----------------------------------------
 .byte   W96
@  #05 @063   ----------------------------------------
 .byte   W96
@  #05 @064   ----------------------------------------
 .byte   W24
 .byte   TIE ,Fn3 ,v120
 .byte   W03
 .byte   BEND , c_v+8
 .byte   W06
 .byte   BEND , c_v+21
 .byte   W60
 .byte   W03
@  #05 @065   ----------------------------------------
 .byte   W96
@  #05 @066   ----------------------------------------
 .byte   W36
 .byte   W02
 .byte   BEND , c_v+20
 .byte   W12
 .byte   BEND , c_v+16
 .byte   W12
 .byte   BEND , c_v+13
 .byte   W12
 .byte   BEND , c_v+10
 .byte   W12
 .byte   BEND , c_v+7
 .byte   W10
@  #05 @067   ----------------------------------------
 .byte   W02
 .byte   BEND , c_v+4
 .byte   W06
 .byte   BEND , c_v+3
 .byte   W13
 .byte   EOT
 .byte   W03
 .byte   BEND , c_v+1
 .byte   N09 ,Ds3
 .byte   W12
 .byte   TIE ,Cn3
 .byte   W60
@  #05 @068   ----------------------------------------
 .byte   W84
 .byte   W03
 .byte   EOT
 .byte   W09
@  #05 @069   ----------------------------------------
 .byte   N10 ,As2
 .byte   W12
 .byte   Cn3
 .byte   W12
 .byte   Dn3
 .byte   W12
 .byte   Ds3
 .byte   W12
 .byte   Dn3
 .byte   W12
 .byte   Cn3
 .byte   W12
 .byte   As2
 .byte   W12
 .byte   Cn3
 .byte   W12
@  #05 @070   ----------------------------------------
 .byte   As2
 .byte   W12
 .byte   Gs2
 .byte   W12
 .byte   Gn2
 .byte   W12
 .byte   Gs2
 .byte   W12
 .byte   As2
 .byte   W12
 .byte   Gs2
 .byte   W12
 .byte   Gn2
 .byte   W12
 .byte   Fn2
 .byte   W12
@  #05 @071   ----------------------------------------
 .byte   Ds2
 .byte   W12
 .byte   Dn2
 .byte   W84
@  #05 @072   ----------------------------------------
 .byte   Gn1
 .byte   W12
 .byte   As1
 .byte   W12
 .byte   N56 ,Ds3
 .byte   W60
 .byte   N09 ,Cn2
 .byte   W12
@  #05 @073   ----------------------------------------
 .byte   As1
 .byte   W12
 .byte   Cn2
 .byte   W12
 .byte   N44 ,Fn3
 .byte   W60
 .byte   N09 ,Cn2
 .byte   W12
@  #05 @074   ----------------------------------------
 .byte   As1
 .byte   W12
 .byte   Cn2
 .byte   W12
 .byte   Fs3
 .byte   W12
 .byte   Cn2
 .byte   W12
 .byte   As1
 .byte   W12
 .byte   Cn2
 .byte   W12
 .byte   Gn3
 .byte   W12
 .byte   Cn2
 .byte   W12
@  #05 @075   ----------------------------------------
 .byte   As1
 .byte   W12
 .byte   Cn2
 .byte   W12
 .byte   Gs3
 .byte   W12
 .byte   Cn2
 .byte   W12
 .byte   As1
 .byte   W12
 .byte   Cn2
 .byte   W12
 .byte   An3
 .byte   W12
 .byte   Cn2
 .byte   W12
@  #05 @076   ----------------------------------------
 .byte   As1
 .byte   W12
 .byte   Cn2
 .byte   W12
 .byte   TIE ,As3
 .byte   W72
@  #05 @077   ----------------------------------------
 .byte   W96
@  #05 @078   ----------------------------------------
 .byte   W21
 .byte   EOT
 .byte   W03
 .byte   N09 ,Cn3
 .byte   W06
 .byte   As3
 .byte   W06
 .byte   Gs3
 .byte   W06
 .byte   Gn3
 .byte   W06
 .byte   Fn3
 .byte   W06
 .byte   Ds3
 .byte   W06
 .byte   Dn3
 .byte   W06
 .byte   Cn3
 .byte   W30
@  #05 @079   ----------------------------------------
 .byte   W96
@  #05 @080   ----------------------------------------
 .byte   W96
@  #05 @081   ----------------------------------------
 .byte   W96
@  #05 @082   ----------------------------------------
 .byte   W96
@  #05 @083   ----------------------------------------
 .byte   W96
@  #05 @084   ----------------------------------------
 .byte   W96
@  #05 @085   ----------------------------------------
 .byte   W96
@  #05 @086   ----------------------------------------
 .byte   W96
@  #05 @087   ----------------------------------------
 .byte   W96
@  #05 @088   ----------------------------------------
 .byte   W96
@  #05 @089   ----------------------------------------
 .byte   W96
@  #05 @090   ----------------------------------------
 .byte   W96
@  #05 @091   ----------------------------------------
 .byte   W96
@  #05 @092   ----------------------------------------
 .byte   W96
@  #05 @093   ----------------------------------------
 .byte   W96
@  #05 @094   ----------------------------------------
 .byte   W96
@  #05 @095   ----------------------------------------
 .byte   W96
@  #05 @096   ----------------------------------------
 .byte   W96
@  #05 @097   ----------------------------------------
 .byte   W96
@  #05 @098   ----------------------------------------
 .byte   W96
@  #05 @099   ----------------------------------------
 .byte   W96
@  #05 @100   ----------------------------------------
 .byte   W96
@  #05 @101   ----------------------------------------
 .byte   W96
@  #05 @102   ----------------------------------------
 .byte   W96
@  #05 @103   ----------------------------------------
 .byte   W96
@  #05 @104   ----------------------------------------
 .byte   W96
@  #05 @105   ----------------------------------------
 .byte   W96
@  #05 @106   ----------------------------------------
 .byte   W96
@  #05 @107   ----------------------------------------
 .byte   W96
@  #05 @108   ----------------------------------------
 .byte   W96
@  #05 @109   ----------------------------------------
 .byte   W96
@  #05 @110   ----------------------------------------
 .byte   W96
@  #05 @111   ----------------------------------------
 .byte   W96
@  #05 @112   ----------------------------------------
 .byte   W96
@  #05 @113   ----------------------------------------
 .byte   W96
@  #05 @114   ----------------------------------------
 .byte   W96
@  #05 @115   ----------------------------------------
 .byte   W96
@  #05 @116   ----------------------------------------
 .byte   W96
@  #05 @117   ----------------------------------------
 .byte   W96
@  #05 @118   ----------------------------------------
 .byte   W96
@  #05 @119   ----------------------------------------
 .byte   W96
@  #05 @120   ----------------------------------------
 .byte   W96
@  #05 @121   ----------------------------------------
 .byte   W96
@  #05 @122   ----------------------------------------
 .byte   W96
@  #05 @123   ----------------------------------------
 .byte   W96
@  #05 @124   ----------------------------------------
 .byte   GOTO
  .word Label_01005904
@  #05 @125   ----------------------------------------
 .byte   W23
 .byte   FINE

@**************** Track 6 (Midi-Chn.5) ****************@

song04_006:
@  #06 @000   ----------------------------------------
 .byte   KEYSH , song04_key+0
 .byte   VOICE , 98
 .byte   VOL , 53*song04_mvl/mxv
 .byte   N11 ,As1 ,v116
 .byte   W12
 .byte   Cn2
 .byte   W12
 .byte   Gs1
 .byte   W12
 .byte   As1
 .byte   W12
 .byte   Gn1
 .byte   W12
 .byte   Gs1
 .byte   W12
 .byte   Fn1
 .byte   W12
 .byte   Gn1
 .byte   W12
@  #06 @001   ----------------------------------------
Label_010054E8:
 .byte   N11 ,As1 ,v116
 .byte   W12
 .byte   Cn2
 .byte   W12
 .byte   Gs1
 .byte   W12
 .byte   As1
 .byte   W12
 .byte   Gn1
 .byte   W12
 .byte   Gs1
 .byte   W12
 .byte   Fn1
 .byte   W12
 .byte   Gn1
 .byte   W12
 .byte   PEND 
@  #06 @002   ----------------------------------------
 .byte   PATT
  .word Label_010054E8
@  #06 @003   ----------------------------------------
 .byte   PATT
  .word Label_010054E8
@  #06 @004   ----------------------------------------
Label_01005505:
 .byte   N11 ,Gs1 ,v116
 .byte   W12
 .byte   As1
 .byte   W12
 .byte   Gn1
 .byte   W12
 .byte   Gs1
 .byte   W12
 .byte   Fn1
 .byte   W12
 .byte   Gn1
 .byte   W12
 .byte   Ds1
 .byte   W12
 .byte   Fn1
 .byte   W12
 .byte   PEND 
@  #06 @005   ----------------------------------------
 .byte   PATT
  .word Label_01005505
@  #06 @006   ----------------------------------------
 .byte   PATT
  .word Label_01005505
@  #06 @007   ----------------------------------------
 .byte   PATT
  .word Label_01005505
@  #06 @008   ----------------------------------------
 .byte   PATT
  .word Label_010054E8
@  #06 @009   ----------------------------------------
 .byte   PATT
  .word Label_010054E8
@  #06 @010   ----------------------------------------
 .byte   PATT
  .word Label_010054E8
@  #06 @011   ----------------------------------------
 .byte   PATT
  .word Label_010054E8
@  #06 @012   ----------------------------------------
 .byte   PATT
  .word Label_01005505
@  #06 @013   ----------------------------------------
 .byte   PATT
  .word Label_01005505
@  #06 @014   ----------------------------------------
 .byte   PATT
  .word Label_01005505
@  #06 @015   ----------------------------------------
Label_0100554A:
 .byte   N11 ,Gs1 ,v116
 .byte   W12
 .byte   As1
 .byte   W12
 .byte   Gn1
 .byte   W12
 .byte   Gs1
 .byte   W12
 .byte   Fn1
 .byte   W12
 .byte   Gn1
 .byte   W12
 .byte   Ds1
 .byte   W12
 .byte   N12 ,Fn1
 .byte   W12
 .byte   PEND 
@  #06 @016   ----------------------------------------
 .byte   W96
@  #06 @017   ----------------------------------------
 .byte   W96
@  #06 @018   ----------------------------------------
 .byte   W96
@  #06 @019   ----------------------------------------
 .byte   W96
@  #06 @020   ----------------------------------------
 .byte   W96
@  #06 @021   ----------------------------------------
 .byte   W96
@  #06 @022   ----------------------------------------
 .byte   W96
@  #06 @023   ----------------------------------------
 .byte   W96
@  #06 @024   ----------------------------------------
 .byte   PATT
  .word Label_010054E8
@  #06 @025   ----------------------------------------
 .byte   PATT
  .word Label_010054E8
@  #06 @026   ----------------------------------------
 .byte   PATT
  .word Label_010054E8
@  #06 @027   ----------------------------------------
 .byte   PATT
  .word Label_010054E8
@  #06 @028   ----------------------------------------
 .byte   PATT
  .word Label_01005505
@  #06 @029   ----------------------------------------
 .byte   PATT
  .word Label_01005505
@  #06 @030   ----------------------------------------
 .byte   PATT
  .word Label_01005505
@  #06 @031   ----------------------------------------
 .byte   PATT
  .word Label_01005505
@  #06 @032   ----------------------------------------
 .byte   PATT
  .word Label_010054E8
@  #06 @033   ----------------------------------------
 .byte   PATT
  .word Label_010054E8
@  #06 @034   ----------------------------------------
 .byte   PATT
  .word Label_010054E8
@  #06 @035   ----------------------------------------
 .byte   PATT
  .word Label_010054E8
@  #06 @036   ----------------------------------------
 .byte   PATT
  .word Label_01005505
@  #06 @037   ----------------------------------------
 .byte   PATT
  .word Label_01005505
@  #06 @038   ----------------------------------------
 .byte   PATT
  .word Label_01005505
@  #06 @039   ----------------------------------------
 .byte   PATT
  .word Label_0100554A
@  #06 @040   ----------------------------------------
 .byte   W96
@  #06 @041   ----------------------------------------
 .byte   W96
@  #06 @042   ----------------------------------------
 .byte   W96
@  #06 @043   ----------------------------------------
 .byte   W96
@  #06 @044   ----------------------------------------
 .byte   W96
@  #06 @045   ----------------------------------------
 .byte   W96
@  #06 @046   ----------------------------------------
 .byte   W96
@  #06 @047   ----------------------------------------
 .byte   W96
@  #06 @048   ----------------------------------------
 .byte   W96
@  #06 @049   ----------------------------------------
 .byte   W96
@  #06 @050   ----------------------------------------
 .byte   W96
@  #06 @051   ----------------------------------------
 .byte   W96
@  #06 @052   ----------------------------------------
 .byte   W96
@  #06 @053   ----------------------------------------
 .byte   W96
@  #06 @054   ----------------------------------------
 .byte   W96
@  #06 @055   ----------------------------------------
 .byte   W96
@  #06 @056   ----------------------------------------
 .byte   W96
@  #06 @057   ----------------------------------------
 .byte   W96
@  #06 @058   ----------------------------------------
 .byte   W96
@  #06 @059   ----------------------------------------
 .byte   W96
@  #06 @060   ----------------------------------------
 .byte   W96
@  #06 @061   ----------------------------------------
 .byte   W96
@  #06 @062   ----------------------------------------
 .byte   W96
@  #06 @063   ----------------------------------------
 .byte   W96
@  #06 @064   ----------------------------------------
Label_010055CE:
 .byte   N11 ,As2 ,v088
 .byte   W12
 .byte   As1 ,v076
 .byte   N11 ,Cn3 ,v088
 .byte   W12
 .byte   Cn2 ,v076
 .byte   W12
 .byte   Cn3 ,v088
 .byte   W12
 .byte   Cn2 ,v076
 .byte   N11 ,Cn3 ,v088
 .byte   W12
 .byte   Cn2 ,v076
 .byte   W12
 .byte   As2 ,v088
 .byte   W12
 .byte   As1 ,v076
 .byte   N11 ,Cn3 ,v088
 .byte   W12
 .byte   PEND 
@  #06 @065   ----------------------------------------
Label_010055F1:
 .byte   N11 ,Cn2 ,v076
 .byte   W12
 .byte   Cn3 ,v088
 .byte   W12
 .byte   Cn2 ,v076
 .byte   W12
 .byte   Cn3 ,v088
 .byte   W12
 .byte   Cn2 ,v076
 .byte   N11 ,Cn3 ,v088
 .byte   W12
 .byte   Cn2 ,v076
 .byte   W12
 .byte   Cn3 ,v088
 .byte   W12
 .byte   Cn2 ,v076
 .byte   W12
 .byte   PEND 
@  #06 @066   ----------------------------------------
 .byte   PATT
  .word Label_010055CE
@  #06 @067   ----------------------------------------
 .byte   PATT
  .word Label_010055F1
@  #06 @068   ----------------------------------------
 .byte   PATT
  .word Label_010055CE
@  #06 @069   ----------------------------------------
 .byte   PATT
  .word Label_010055F1
@  #06 @070   ----------------------------------------
 .byte   PATT
  .word Label_010055CE
@  #06 @071   ----------------------------------------
 .byte   PATT
  .word Label_010055F1
@  #06 @072   ----------------------------------------
 .byte   PATT
  .word Label_010055CE
@  #06 @073   ----------------------------------------
 .byte   PATT
  .word Label_010055F1
@  #06 @074   ----------------------------------------
 .byte   PATT
  .word Label_010055CE
@  #06 @075   ----------------------------------------
 .byte   PATT
  .word Label_010055F1
@  #06 @076   ----------------------------------------
 .byte   PATT
  .word Label_010055CE
@  #06 @077   ----------------------------------------
 .byte   PATT
  .word Label_010055F1
@  #06 @078   ----------------------------------------
 .byte   PATT
  .word Label_010055CE
@  #06 @079   ----------------------------------------
 .byte   PATT
  .word Label_010055F1
@  #06 @080   ----------------------------------------
 .byte   PATT
  .word Label_010055CE
@  #06 @081   ----------------------------------------
 .byte   PATT
  .word Label_010055F1
@  #06 @082   ----------------------------------------
 .byte   PATT
  .word Label_010055CE
@  #06 @083   ----------------------------------------
 .byte   PATT
  .word Label_010055F1
@  #06 @084   ----------------------------------------
 .byte   PATT
  .word Label_010055CE
@  #06 @085   ----------------------------------------
 .byte   PATT
  .word Label_010055F1
@  #06 @086   ----------------------------------------
 .byte   PATT
  .word Label_010055CE
@  #06 @087   ----------------------------------------
 .byte   PATT
  .word Label_010055F1
@  #06 @088   ----------------------------------------
 .byte   PATT
  .word Label_010055CE
@  #06 @089   ----------------------------------------
 .byte   PATT
  .word Label_010055F1
@  #06 @090   ----------------------------------------
 .byte   PATT
  .word Label_010055CE
@  #06 @091   ----------------------------------------
 .byte   PATT
  .word Label_010055F1
@  #06 @092   ----------------------------------------
 .byte   PATT
  .word Label_010055CE
@  #06 @093   ----------------------------------------
 .byte   PATT
  .word Label_010055F1
@  #06 @094   ----------------------------------------
 .byte   PATT
  .word Label_010055CE
@  #06 @095   ----------------------------------------
 .byte   N11 ,Cn2 ,v076
 .byte   W12
 .byte   Cn3 ,v088
 .byte   W12
 .byte   Cn2 ,v076
 .byte   W12
 .byte   Cn3 ,v088
 .byte   W12
 .byte   Cn2 ,v076
 .byte   N11 ,Cn3 ,v088
 .byte   W12
 .byte   Cn2 ,v076
 .byte   W12
 .byte   Cn3 ,v088
 .byte   W12
 .byte   N12 ,Cn2 ,v076
 .byte   W12
@  #06 @096   ----------------------------------------
 .byte   W96
@  #06 @097   ----------------------------------------
 .byte   W96
@  #06 @098   ----------------------------------------
 .byte   W96
@  #06 @099   ----------------------------------------
 .byte   W96
@  #06 @100   ----------------------------------------
 .byte   W96
@  #06 @101   ----------------------------------------
 .byte   W96
@  #06 @102   ----------------------------------------
 .byte   W96
@  #06 @103   ----------------------------------------
 .byte   W96
@  #06 @104   ----------------------------------------
 .byte   W96
@  #06 @105   ----------------------------------------
 .byte   W96
@  #06 @106   ----------------------------------------
 .byte   W96
@  #06 @107   ----------------------------------------
 .byte   W96
@  #06 @108   ----------------------------------------
 .byte   W96
@  #06 @109   ----------------------------------------
 .byte   W96
@  #06 @110   ----------------------------------------
 .byte   W96
@  #06 @111   ----------------------------------------
 .byte   W96
@  #06 @112   ----------------------------------------
 .byte   W96
@  #06 @113   ----------------------------------------
 .byte   W96
@  #06 @114   ----------------------------------------
 .byte   W96
@  #06 @115   ----------------------------------------
 .byte   W96
@  #06 @116   ----------------------------------------
 .byte   W96
@  #06 @117   ----------------------------------------
 .byte   W96
@  #06 @118   ----------------------------------------
 .byte   W96
@  #06 @119   ----------------------------------------
 .byte   W96
@  #06 @120   ----------------------------------------
 .byte   PATT
  .word Label_010054E8
@  #06 @121   ----------------------------------------
 .byte   PATT
  .word Label_010054E8
@  #06 @122   ----------------------------------------
 .byte   PATT
  .word Label_010054E8
@  #06 @123   ----------------------------------------
 .byte   PATT
  .word Label_010054E8
@  #06 @124   ----------------------------------------
 .byte   GOTO
  .word Label_01005505
@  #06 @125   ----------------------------------------
 .byte   N11 ,Gs1 ,v116
 .byte   W12
 .byte   As1
 .byte   W11
 .byte   FINE

@**************** Track 7 (Midi-Chn.6) ****************@

song04_007:
@  #07 @000   ----------------------------------------
 .byte   KEYSH , song04_key+0
 .byte   VOICE , 36
 .byte   VOL , 43*song04_mvl/mxv
 .byte   BENDR, 4
 .byte   W96
@  #07 @001   ----------------------------------------
 .byte   W96
@  #07 @002   ----------------------------------------
 .byte   W96
@  #07 @003   ----------------------------------------
 .byte   W96
@  #07 @004   ----------------------------------------
Label_01006568:
 .byte   W96
@  #07 @005   ----------------------------------------
 .byte   W96
@  #07 @006   ----------------------------------------
 .byte   W96
@  #07 @007   ----------------------------------------
 .byte   W96
@  #07 @008   ----------------------------------------
 .byte   W96
@  #07 @009   ----------------------------------------
 .byte   W96
@  #07 @010   ----------------------------------------
 .byte   W96
@  #07 @011   ----------------------------------------
 .byte   W96
@  #07 @012   ----------------------------------------
 .byte   W96
@  #07 @013   ----------------------------------------
 .byte   W96
@  #07 @014   ----------------------------------------
 .byte   W96
@  #07 @015   ----------------------------------------
 .byte   W96
@  #07 @016   ----------------------------------------
Label_01006574:
 .byte   N06 ,Cn2 ,v127
 .byte   W12
 .byte   N21 ,As2
 .byte   W12
 .byte   BEND , c_v+30
 .byte   W12
 .byte   BEND , c_v+1
 .byte   N06 ,Cn2
 .byte   W12
 .byte   N21 ,Fn2
 .byte   W12
 .byte   BEND , c_v+36
 .byte   W12
 .byte   BEND , c_v+1
 .byte   N06 ,Cn2
 .byte   W12
 .byte   Ds2
 .byte   W12
 .byte   PEND 
@  #07 @017   ----------------------------------------
Label_01006591:
 .byte   N06 ,Cn2 ,v127
 .byte   W12
 .byte   N21 ,Fn2
 .byte   W12
 .byte   BEND , c_v+36
 .byte   W12
 .byte   BEND , c_v+1
 .byte   N21 ,Ds2
 .byte   W12
 .byte   BEND , c_v+36
 .byte   W12
 .byte   BEND , c_v+1
 .byte   N18 ,Cn2
 .byte   W24
 .byte   N06
 .byte   W12
 .byte   PEND 
@  #07 @018   ----------------------------------------
 .byte   PATT
  .word Label_01006574
@  #07 @019   ----------------------------------------
Label_010065B0:
 .byte   N06 ,As1 ,v127
 .byte   W12
 .byte   N21 ,Bn1
 .byte   W24
 .byte   Cn2
 .byte   W24
 .byte   Dn2
 .byte   W36
 .byte   PEND 
@  #07 @020   ----------------------------------------
 .byte   PATT
  .word Label_01006574
@  #07 @021   ----------------------------------------
 .byte   PATT
  .word Label_01006591
@  #07 @022   ----------------------------------------
 .byte   PATT
  .word Label_01006574
@  #07 @023   ----------------------------------------
Label_010065CB:
 .byte   N06 ,Cn2 ,v127
 .byte   W12
 .byte   N09
 .byte   W12
 .byte   As2
 .byte   W12
 .byte   Cn2
 .byte   W12
 .byte   N15 ,As1
 .byte   W12
 .byte   N12 ,As2
 .byte   W12
 .byte   N15 ,As1
 .byte   W12
 .byte   N12 ,As2
 .byte   W12
 .byte   PEND 
@  #07 @024   ----------------------------------------
 .byte   W96
@  #07 @025   ----------------------------------------
 .byte   W96
@  #07 @026   ----------------------------------------
 .byte   W96
@  #07 @027   ----------------------------------------
 .byte   W96
@  #07 @028   ----------------------------------------
 .byte   W96
@  #07 @029   ----------------------------------------
 .byte   W96
@  #07 @030   ----------------------------------------
 .byte   W96
@  #07 @031   ----------------------------------------
 .byte   W96
@  #07 @032   ----------------------------------------
 .byte   W96
@  #07 @033   ----------------------------------------
 .byte   W96
@  #07 @034   ----------------------------------------
 .byte   W96
@  #07 @035   ----------------------------------------
 .byte   W96
@  #07 @036   ----------------------------------------
 .byte   W96
@  #07 @037   ----------------------------------------
 .byte   W96
@  #07 @038   ----------------------------------------
 .byte   W96
@  #07 @039   ----------------------------------------
 .byte   W96
@  #07 @040   ----------------------------------------
 .byte   PATT
  .word Label_01006574
@  #07 @041   ----------------------------------------
 .byte   PATT
  .word Label_01006591
@  #07 @042   ----------------------------------------
 .byte   PATT
  .word Label_01006574
@  #07 @043   ----------------------------------------
 .byte   PATT
  .word Label_010065B0
@  #07 @044   ----------------------------------------
 .byte   PATT
  .word Label_01006574
@  #07 @045   ----------------------------------------
 .byte   PATT
  .word Label_01006591
@  #07 @046   ----------------------------------------
 .byte   PATT
  .word Label_01006574
@  #07 @047   ----------------------------------------
 .byte   PATT
  .word Label_010065CB
@  #07 @048   ----------------------------------------
 .byte   W96
@  #07 @049   ----------------------------------------
 .byte   W96
@  #07 @050   ----------------------------------------
 .byte   W96
@  #07 @051   ----------------------------------------
 .byte   W96
@  #07 @052   ----------------------------------------
 .byte   W96
@  #07 @053   ----------------------------------------
 .byte   W96
@  #07 @054   ----------------------------------------
 .byte   W96
@  #07 @055   ----------------------------------------
 .byte   W96
@  #07 @056   ----------------------------------------
 .byte   W96
@  #07 @057   ----------------------------------------
 .byte   W96
@  #07 @058   ----------------------------------------
 .byte   W96
@  #07 @059   ----------------------------------------
 .byte   W96
@  #07 @060   ----------------------------------------
 .byte   W96
@  #07 @061   ----------------------------------------
 .byte   W96
@  #07 @062   ----------------------------------------
 .byte   W96
@  #07 @063   ----------------------------------------
 .byte   W96
@  #07 @064   ----------------------------------------
 .byte   W96
@  #07 @065   ----------------------------------------
 .byte   W96
@  #07 @066   ----------------------------------------
 .byte   W96
@  #07 @067   ----------------------------------------
 .byte   W96
@  #07 @068   ----------------------------------------
 .byte   W96
@  #07 @069   ----------------------------------------
 .byte   W96
@  #07 @070   ----------------------------------------
 .byte   W96
@  #07 @071   ----------------------------------------
 .byte   W96
@  #07 @072   ----------------------------------------
 .byte   W96
@  #07 @073   ----------------------------------------
 .byte   W96
@  #07 @074   ----------------------------------------
 .byte   W96
@  #07 @075   ----------------------------------------
 .byte   W96
@  #07 @076   ----------------------------------------
 .byte   W96
@  #07 @077   ----------------------------------------
 .byte   W96
@  #07 @078   ----------------------------------------
 .byte   W72
 .byte   N21 ,Gn1 ,v124
 .byte   W11
 .byte   BEND , c_v+45
 .byte   W13
@  #07 @079   ----------------------------------------
 .byte   BEND , c_v+1
 .byte   N21
 .byte   W11
 .byte   BEND , c_v+45
 .byte   W13
 .byte   BEND , c_v+1
 .byte   N21 ,Dn2
 .byte   W11
 .byte   BEND , c_v+20
 .byte   W13
 .byte   BEND , c_v+1
 .byte   N21 ,Ds2
 .byte   W11
 .byte   BEND , c_v+32
 .byte   W13
 .byte   BEND , c_v+1
 .byte   N21
 .byte   W11
 .byte   BEND , c_v-14
 .byte   W13
@  #07 @080   ----------------------------------------
 .byte   BEND , c_v+1
 .byte   N09 ,Cn2
 .byte   W12
 .byte   N03
 .byte   W12
 .byte   N21 ,As1
 .byte   W11
 .byte   BEND , c_v+31
 .byte   W13
 .byte   BEND , c_v+1
 .byte   N09 ,Cn2
 .byte   W13
 .byte   N03 ,As2
 .byte   W11
 .byte   N21 ,As1
 .byte   W11
 .byte   BEND , c_v+31
 .byte   W13
@  #07 @081   ----------------------------------------
 .byte   BEND , c_v+1
 .byte   N03 ,Cn2
 .byte   W13
 .byte   N21 ,As2
 .byte   W10
 .byte   BEND , c_v+30
 .byte   W13
 .byte   BEND , c_v+1
 .byte   N03 ,Fn2
 .byte   W11
 .byte   BEND , c_v+30
 .byte   W01
 .byte   N21
 .byte   W11
 .byte   BEND , c_v+30
 .byte   W01
 .byte   BEND , c_v+1
 .byte   W12
 .byte   BEND , c_v+1
 .byte   N21 ,Ds2
 .byte   W11
 .byte   BEND , c_v+30
 .byte   W13
@  #07 @082   ----------------------------------------
 .byte   BEND , c_v+1
 .byte   N09 ,Cn2
 .byte   W12
 .byte   N03
 .byte   W13
 .byte   N21 ,Ds3
 .byte   W10
 .byte   BEND , c_v+31
 .byte   W13
 .byte   BEND , c_v+1
 .byte   N21 ,Ds2
 .byte   W11
 .byte   BEND , c_v+31
 .byte   W13
 .byte   BEND , c_v+1
 .byte   N03 ,Cn2
 .byte   W12
 .byte   N09 ,Ds2
 .byte   W12
@  #07 @083   ----------------------------------------
 .byte   Cn2
 .byte   W12
 .byte   N03
 .byte   W12
 .byte   N21 ,Fn2
 .byte   W11
 .byte   BEND , c_v+31
 .byte   W13
 .byte   BEND , c_v+1
 .byte   N19 ,As1
 .byte   W13
 .byte   N13 ,As2
 .byte   W11
 .byte   N19 ,Bn1
 .byte   W13
 .byte   N13 ,Bn2
 .byte   W11
@  #07 @084   ----------------------------------------
 .byte   N15 ,Cn2
 .byte   W13
 .byte   N03 ,Cn3
 .byte   W11
 .byte   N21 ,Fn2
 .byte   W11
 .byte   BEND , c_v+32
 .byte   W13
 .byte   BEND , c_v+1
 .byte   N09 ,Cn2
 .byte   W12
 .byte   N03
 .byte   W13
 .byte   N21 ,Ds3
 .byte   W10
 .byte   BEND , c_v+31
 .byte   W13
@  #07 @085   ----------------------------------------
 .byte   BEND , c_v+1
 .byte   N03 ,As1
 .byte   W13
 .byte   N21 ,As2
 .byte   W10
 .byte   BEND , c_v+31
 .byte   W13
 .byte   BEND , c_v+1
 .byte   N21 ,As1
 .byte   W13
 .byte   Gs2
 .byte   W10
 .byte   BEND , c_v+31
 .byte   W13
 .byte   BEND , c_v+1
 .byte   N09 ,Ds2
 .byte   W12
 .byte   N03 ,Fn2
 .byte   W12
@  #07 @086   ----------------------------------------
 .byte   N21 ,Cn2
 .byte   W13
 .byte   N03 ,Cn3
 .byte   W11
 .byte   N21 ,Ds2
 .byte   W11
 .byte   BEND , c_v+31
 .byte   W13
 .byte   BEND , c_v+1
 .byte   N09 ,Cn2
 .byte   W12
 .byte   N03 ,As1
 .byte   W12
 .byte   N21 ,As2
 .byte   W24
@  #07 @087   ----------------------------------------
 .byte   As1
 .byte   W13
 .byte   N03 ,Cn3
 .byte   W11
 .byte   N21 ,Fn2
 .byte   W11
 .byte   BEND , c_v+31
 .byte   W13
 .byte   BEND , c_v+1
 .byte   N03 ,As1
 .byte   W12
 .byte   N09 ,Cn3
 .byte   W12
 .byte   N21 ,As2
 .byte   W24
@  #07 @088   ----------------------------------------
 .byte   N15 ,Cn2
 .byte   W12
 .byte   N03 ,Cn3
 .byte   W12
 .byte   N21 ,Ds2
 .byte   W11
 .byte   BEND , c_v+31
 .byte   W13
 .byte   BEND , c_v+1
 .byte   N21 ,Cn2
 .byte   W15
 .byte   N15 ,As2
 .byte   W09
 .byte   N21 ,Cn2
 .byte   W15
 .byte   N15 ,Bn2
 .byte   W09
@  #07 @089   ----------------------------------------
 .byte   N09 ,Cn2
 .byte   W15
 .byte   Ds3
 .byte   W09
 .byte   N21 ,Cn2
 .byte   W13
 .byte   N03 ,Ds3
 .byte   W11
 .byte   N09 ,Cn2
 .byte   W13
 .byte   Ds3
 .byte   W12
 .byte   N21
 .byte   W10
 .byte   BEND , c_v+31
 .byte   W13
@  #07 @090   ----------------------------------------
 .byte   BEND , c_v+1
 .byte   N21 ,Cn2
 .byte   W13
 .byte   N09 ,Ds3
 .byte   W11
 .byte   As1
 .byte   W12
 .byte   N15 ,Bn1
 .byte   W13
 .byte   N09 ,Cn3
 .byte   W11
 .byte   Dn3
 .byte   W12
 .byte   N03 ,As1
 .byte   W12
 .byte   N09
 .byte   W12
@  #07 @091   ----------------------------------------
 .byte   N21
 .byte   W13
 .byte   N04 ,Dn3
 .byte   W11
 .byte   N03 ,Bn1
 .byte   W12
 .byte   N09
 .byte   W12
 .byte   N21 ,Cn2
 .byte   W13
 .byte   N04 ,Cn3
 .byte   W11
 .byte   N03 ,Cn2
 .byte   W12
 .byte   N09
 .byte   W12
@  #07 @092   ----------------------------------------
 .byte   N15
 .byte   W13
 .byte   N03 ,Gn2
 .byte   W11
 .byte   N21 ,Fn2
 .byte   W11
 .byte   BEND , c_v+31
 .byte   W13
 .byte   BEND , c_v+1
 .byte   N44 ,Cn2
 .byte   W48
@  #07 @093   ----------------------------------------
 .byte   N21
 .byte   W13
 .byte   N03 ,Cn3
 .byte   W11
 .byte   N21 ,Fn2
 .byte   W11
 .byte   BEND , c_v+31
 .byte   W13
 .byte   BEND , c_v+1
 .byte   N44 ,As2
 .byte   W48
@  #07 @094   ----------------------------------------
 .byte   N21 ,Cn2
 .byte   W13
 .byte   N03 ,Gn2
 .byte   W11
 .byte   N21 ,Fn2
 .byte   W11
 .byte   BEND , c_v+31
 .byte   W13
 .byte   BEND , c_v+1
 .byte   N21 ,Cn2
 .byte   W13
 .byte   N03 ,As2
 .byte   W11
 .byte   N21 ,Gs2
 .byte   W11
 .byte   BEND , c_v+31
 .byte   W13
@  #07 @095   ----------------------------------------
 .byte   BEND , c_v+1
 .byte   N21 ,Cn2
 .byte   W13
 .byte   N11 ,Cn3
 .byte   W11
 .byte   N21 ,As2
 .byte   W11
 .byte   BEND , c_v+31
 .byte   W13
 .byte   BEND , c_v+1
 .byte   N44 ,Dn3
 .byte   W48
@  #07 @096   ----------------------------------------
 .byte   N18 ,Cn2 ,v127
 .byte   W12
 .byte   N21 ,As2
 .byte   W12
 .byte   BEND , c_v+30
 .byte   W12
 .byte   BEND , c_v+1
 .byte   N06 ,Cn2
 .byte   W12
 .byte   N21 ,Fn2
 .byte   W12
 .byte   BEND , c_v+36
 .byte   W12
 .byte   BEND , c_v+1
 .byte   N06 ,Cn2
 .byte   W12
 .byte   Ds2
 .byte   W12
@  #07 @097   ----------------------------------------
 .byte   PATT
  .word Label_01006591
@  #07 @098   ----------------------------------------
 .byte   PATT
  .word Label_01006574
@  #07 @099   ----------------------------------------
 .byte   PATT
  .word Label_010065B0
@  #07 @100   ----------------------------------------
 .byte   PATT
  .word Label_01006574
@  #07 @101   ----------------------------------------
 .byte   PATT
  .word Label_01006591
@  #07 @102   ----------------------------------------
 .byte   PATT
  .word Label_01006574
@  #07 @103   ----------------------------------------
 .byte   PATT
  .word Label_010065CB
@  #07 @104   ----------------------------------------
 .byte   W96
@  #07 @105   ----------------------------------------
 .byte   W96
@  #07 @106   ----------------------------------------
 .byte   W96
@  #07 @107   ----------------------------------------
 .byte   W96
@  #07 @108   ----------------------------------------
 .byte   W96
@  #07 @109   ----------------------------------------
 .byte   W96
@  #07 @110   ----------------------------------------
 .byte   W96
@  #07 @111   ----------------------------------------
 .byte   W96
@  #07 @112   ----------------------------------------
 .byte   W96
@  #07 @113   ----------------------------------------
 .byte   W96
@  #07 @114   ----------------------------------------
 .byte   W96
@  #07 @115   ----------------------------------------
 .byte   W96
@  #07 @116   ----------------------------------------
 .byte   W96
@  #07 @117   ----------------------------------------
 .byte   W96
@  #07 @118   ----------------------------------------
 .byte   W96
@  #07 @119   ----------------------------------------
 .byte   W96
@  #07 @120   ----------------------------------------
 .byte   W96
@  #07 @121   ----------------------------------------
 .byte   W96
@  #07 @122   ----------------------------------------
 .byte   W96
@  #07 @123   ----------------------------------------
 .byte   W96
@  #07 @124   ----------------------------------------
 .byte   GOTO
  .word Label_01006568
@  #07 @125   ----------------------------------------
 .byte   W23
 .byte   FINE

@**************** Track 8 (Midi-Chn.7) ****************@

song04_008:
@  #08 @000   ----------------------------------------
 .byte   KEYSH , song04_key+0
 .byte   VOICE , 30
 .byte   VOL , 39*song04_mvl/mxv
 .byte   N36 ,Cn3 ,v072
 .byte   N36 ,Cn4
 .byte   W36
 .byte   TIE ,As2
 .byte   TIE ,As3
 .byte   W60
@  #08 @001   ----------------------------------------
 .byte   W96
@  #08 @002   ----------------------------------------
 .byte   W96
@  #08 @003   ----------------------------------------
 .byte   W90
 .byte   EOT
 .byte   As2 ,v070
 .byte   W06
@  #08 @004   ----------------------------------------
Label_01005E44:
 .byte   N36 ,As2 ,v072
 .byte   N36 ,As3
 .byte   W36
 .byte   TIE ,Gs2
 .byte   TIE ,Gs3
 .byte   W60
 .byte   PEND 
@  #08 @005   ----------------------------------------
 .byte   W96
@  #08 @006   ----------------------------------------
 .byte   W96
@  #08 @007   ----------------------------------------
 .byte   W90
 .byte   EOT
 .byte   Gs2 ,v068
 .byte   W06
@  #08 @008   ----------------------------------------
Label_01005E57:
 .byte   N36 ,Cn3 ,v072
 .byte   N36 ,Cn4
 .byte   W36
 .byte   TIE ,As2
 .byte   TIE ,As3
 .byte   W60
 .byte   PEND 
@  #08 @009   ----------------------------------------
 .byte   W96
@  #08 @010   ----------------------------------------
 .byte   W96
@  #08 @011   ----------------------------------------
 .byte   W90
 .byte   EOT
 .byte   As2 ,v070
 .byte   W06
@  #08 @012   ----------------------------------------
 .byte   PATT
  .word Label_01005E44
@  #08 @013   ----------------------------------------
 .byte   W96
@  #08 @014   ----------------------------------------
 .byte   W96
@  #08 @015   ----------------------------------------
 .byte   W90
 .byte   EOT
 .byte   Gs2 ,v068
 .byte   W06
@  #08 @016   ----------------------------------------
 .byte   W96
@  #08 @017   ----------------------------------------
 .byte   W96
@  #08 @018   ----------------------------------------
 .byte   W96
@  #08 @019   ----------------------------------------
 .byte   W96
@  #08 @020   ----------------------------------------
 .byte   W96
@  #08 @021   ----------------------------------------
 .byte   W96
@  #08 @022   ----------------------------------------
 .byte   W96
@  #08 @023   ----------------------------------------
 .byte   W96
@  #08 @024   ----------------------------------------
 .byte   PATT
  .word Label_01005E57
@  #08 @025   ----------------------------------------
 .byte   W96
@  #08 @026   ----------------------------------------
 .byte   W96
@  #08 @027   ----------------------------------------
 .byte   W90
 .byte   EOT
 .byte   As2 ,v070
 .byte   W06
@  #08 @028   ----------------------------------------
 .byte   PATT
  .word Label_01005E44
@  #08 @029   ----------------------------------------
 .byte   W96
@  #08 @030   ----------------------------------------
 .byte   W96
@  #08 @031   ----------------------------------------
 .byte   W90
 .byte   EOT
 .byte   Gs2 ,v068
 .byte   W06
@  #08 @032   ----------------------------------------
 .byte   PATT
  .word Label_01005E57
@  #08 @033   ----------------------------------------
 .byte   W96
@  #08 @034   ----------------------------------------
 .byte   W96
@  #08 @035   ----------------------------------------
 .byte   W90
 .byte   EOT
 .byte   As2 ,v070
 .byte   W06
@  #08 @036   ----------------------------------------
 .byte   PATT
  .word Label_01005E44
@  #08 @037   ----------------------------------------
 .byte   W96
@  #08 @038   ----------------------------------------
 .byte   W96
@  #08 @039   ----------------------------------------
 .byte   W90
 .byte   EOT
 .byte   Gs2 ,v068
 .byte   W06
@  #08 @040   ----------------------------------------
 .byte   W96
@  #08 @041   ----------------------------------------
 .byte   W96
@  #08 @042   ----------------------------------------
 .byte   W96
@  #08 @043   ----------------------------------------
 .byte   W96
@  #08 @044   ----------------------------------------
 .byte   W96
@  #08 @045   ----------------------------------------
 .byte   W96
@  #08 @046   ----------------------------------------
 .byte   W96
@  #08 @047   ----------------------------------------
 .byte   W96
@  #08 @048   ----------------------------------------
 .byte   TIE ,Gn3 ,v076
 .byte   W96
@  #08 @049   ----------------------------------------
 .byte   W96
@  #08 @050   ----------------------------------------
 .byte   W96
@  #08 @051   ----------------------------------------
 .byte   W96
@  #08 @052   ----------------------------------------
 .byte   EOT
 .byte   TIE ,Gs3
 .byte   W96
@  #08 @053   ----------------------------------------
 .byte   W96
@  #08 @054   ----------------------------------------
 .byte   W96
@  #08 @055   ----------------------------------------
 .byte   W96
@  #08 @056   ----------------------------------------
 .byte   EOT
 .byte   TIE ,Gn3
 .byte   W96
@  #08 @057   ----------------------------------------
 .byte   W96
@  #08 @058   ----------------------------------------
 .byte   W96
@  #08 @059   ----------------------------------------
 .byte   W96
@  #08 @060   ----------------------------------------
 .byte   EOT
 .byte   TIE ,Gs3
 .byte   W96
@  #08 @061   ----------------------------------------
 .byte   W96
@  #08 @062   ----------------------------------------
 .byte   EOT
 .byte   TIE ,As3
 .byte   W96
@  #08 @063   ----------------------------------------
 .byte   W96
@  #08 @064   ----------------------------------------
 .byte   EOT
 .byte   W96
@  #08 @065   ----------------------------------------
 .byte   W96
@  #08 @066   ----------------------------------------
 .byte   W96
@  #08 @067   ----------------------------------------
 .byte   W96
@  #08 @068   ----------------------------------------
 .byte   W96
@  #08 @069   ----------------------------------------
 .byte   W96
@  #08 @070   ----------------------------------------
 .byte   W96
@  #08 @071   ----------------------------------------
 .byte   W96
@  #08 @072   ----------------------------------------
 .byte   W96
@  #08 @073   ----------------------------------------
 .byte   W96
@  #08 @074   ----------------------------------------
 .byte   W96
@  #08 @075   ----------------------------------------
 .byte   W96
@  #08 @076   ----------------------------------------
 .byte   W96
@  #08 @077   ----------------------------------------
 .byte   W96
@  #08 @078   ----------------------------------------
 .byte   W96
@  #08 @079   ----------------------------------------
 .byte   W96
@  #08 @080   ----------------------------------------
 .byte   W96
@  #08 @081   ----------------------------------------
 .byte   W96
@  #08 @082   ----------------------------------------
 .byte   W96
@  #08 @083   ----------------------------------------
 .byte   W96
@  #08 @084   ----------------------------------------
 .byte   W96
@  #08 @085   ----------------------------------------
 .byte   W96
@  #08 @086   ----------------------------------------
 .byte   W96
@  #08 @087   ----------------------------------------
 .byte   W96
@  #08 @088   ----------------------------------------
 .byte   W96
@  #08 @089   ----------------------------------------
 .byte   W96
@  #08 @090   ----------------------------------------
 .byte   W96
@  #08 @091   ----------------------------------------
 .byte   W96
@  #08 @092   ----------------------------------------
 .byte   W96
@  #08 @093   ----------------------------------------
 .byte   W96
@  #08 @094   ----------------------------------------
 .byte   W96
@  #08 @095   ----------------------------------------
 .byte   W96
@  #08 @096   ----------------------------------------
 .byte   W96
@  #08 @097   ----------------------------------------
 .byte   W96
@  #08 @098   ----------------------------------------
 .byte   W96
@  #08 @099   ----------------------------------------
 .byte   W96
@  #08 @100   ----------------------------------------
 .byte   W96
@  #08 @101   ----------------------------------------
 .byte   W96
@  #08 @102   ----------------------------------------
 .byte   W96
@  #08 @103   ----------------------------------------
 .byte   W96
@  #08 @104   ----------------------------------------
 .byte   TIE ,Gn3
 .byte   W96
@  #08 @105   ----------------------------------------
 .byte   W96
@  #08 @106   ----------------------------------------
 .byte   W96
@  #08 @107   ----------------------------------------
 .byte   W96
@  #08 @108   ----------------------------------------
 .byte   EOT
 .byte   TIE ,Gs3
 .byte   W96
@  #08 @109   ----------------------------------------
 .byte   W96
@  #08 @110   ----------------------------------------
 .byte   W96
@  #08 @111   ----------------------------------------
 .byte   W96
@  #08 @112   ----------------------------------------
 .byte   EOT
 .byte   TIE ,Gn3
 .byte   W96
@  #08 @113   ----------------------------------------
 .byte   W96
@  #08 @114   ----------------------------------------
 .byte   W96
@  #08 @115   ----------------------------------------
 .byte   W96
@  #08 @116   ----------------------------------------
 .byte   EOT
 .byte   TIE ,Gs3
 .byte   W96
@  #08 @117   ----------------------------------------
 .byte   W96
@  #08 @118   ----------------------------------------
 .byte   EOT
 .byte   TIE ,As3
 .byte   W96
@  #08 @119   ----------------------------------------
 .byte   W96
@  #08 @120   ----------------------------------------
 .byte   EOT
@  #08 @121   ----------------------------------------
 .byte   PATT
  .word Label_01005E57
@  #08 @122   ----------------------------------------
 .byte   W96
@  #08 @123   ----------------------------------------
 .byte   W96
@  #08 @124   ----------------------------------------
 .byte   W90
 .byte   EOT
 .byte   As2 ,v070
 .byte   W06
@  #08 @125   ----------------------------------------
 .byte   GOTO
  .word Label_01005E44
@  #08 @126   ----------------------------------------
 .byte   W23
 .byte   FINE

@**************** Track 9 (Midi-Chn.8) ****************@

song04_009:
@  #09 @000   ----------------------------------------
 .byte   KEYSH , song04_key+0
 .byte   VOICE , 31
 .byte   VOL , 38*song04_mvl/mxv
 .byte   W96
@  #09 @001   ----------------------------------------
 .byte   W96
@  #09 @002   ----------------------------------------
 .byte   W96
@  #09 @003   ----------------------------------------
 .byte   W96
@  #09 @004   ----------------------------------------
Label_01888B2E:
 .byte   W96
@  #09 @005   ----------------------------------------
 .byte   W96
@  #09 @006   ----------------------------------------
 .byte   W96
@  #09 @007   ----------------------------------------
 .byte   W96
@  #09 @008   ----------------------------------------
 .byte   W96
@  #09 @009   ----------------------------------------
 .byte   W96
@  #09 @010   ----------------------------------------
 .byte   W96
@  #09 @011   ----------------------------------------
 .byte   W96
@  #09 @012   ----------------------------------------
 .byte   W96
@  #09 @013   ----------------------------------------
 .byte   W96
@  #09 @014   ----------------------------------------
 .byte   W96
@  #09 @015   ----------------------------------------
 .byte   W96
@  #09 @016   ----------------------------------------
 .byte   N36 ,Cn3 ,v127
 .byte   W96
@  #09 @017   ----------------------------------------
 .byte   W72
 .byte   N23
 .byte   W24
@  #09 @018   ----------------------------------------
 .byte   N36
 .byte   W96
@  #09 @019   ----------------------------------------
 .byte   W96
@  #09 @020   ----------------------------------------
 .byte   N36
 .byte   W96
@  #09 @021   ----------------------------------------
 .byte   W72
 .byte   N23
 .byte   W24
@  #09 @022   ----------------------------------------
 .byte   N36
 .byte   W96
@  #09 @023   ----------------------------------------
 .byte   W96
@  #09 @024   ----------------------------------------
 .byte   W96
@  #09 @025   ----------------------------------------
 .byte   W96
@  #09 @026   ----------------------------------------
 .byte   W96
@  #09 @027   ----------------------------------------
 .byte   W96
@  #09 @028   ----------------------------------------
 .byte   W96
@  #09 @029   ----------------------------------------
 .byte   W96
@  #09 @030   ----------------------------------------
 .byte   W96
@  #09 @031   ----------------------------------------
 .byte   W96
@  #09 @032   ----------------------------------------
 .byte   W96
@  #09 @033   ----------------------------------------
 .byte   W96
@  #09 @034   ----------------------------------------
 .byte   W96
@  #09 @035   ----------------------------------------
 .byte   W96
@  #09 @036   ----------------------------------------
 .byte   W96
@  #09 @037   ----------------------------------------
 .byte   W96
@  #09 @038   ----------------------------------------
 .byte   W96
@  #09 @039   ----------------------------------------
 .byte   W96
@  #09 @040   ----------------------------------------
 .byte   N36
 .byte   W96
@  #09 @041   ----------------------------------------
 .byte   W72
 .byte   N23
 .byte   W24
@  #09 @042   ----------------------------------------
 .byte   N36
 .byte   W96
@  #09 @043   ----------------------------------------
 .byte   W96
@  #09 @044   ----------------------------------------
 .byte   N36
 .byte   W96
@  #09 @045   ----------------------------------------
 .byte   W72
 .byte   N23
 .byte   W24
@  #09 @046   ----------------------------------------
 .byte   N36
 .byte   W96
@  #09 @047   ----------------------------------------
 .byte   W96
@  #09 @048   ----------------------------------------
 .byte   W96
@  #09 @049   ----------------------------------------
 .byte   W96
@  #09 @050   ----------------------------------------
 .byte   W96
@  #09 @051   ----------------------------------------
 .byte   W96
@  #09 @052   ----------------------------------------
 .byte   W96
@  #09 @053   ----------------------------------------
 .byte   W96
@  #09 @054   ----------------------------------------
 .byte   W96
@  #09 @055   ----------------------------------------
 .byte   W96
@  #09 @056   ----------------------------------------
 .byte   W96
@  #09 @057   ----------------------------------------
 .byte   W96
@  #09 @058   ----------------------------------------
 .byte   W96
@  #09 @059   ----------------------------------------
 .byte   W96
@  #09 @060   ----------------------------------------
 .byte   W96
@  #09 @061   ----------------------------------------
 .byte   W96
@  #09 @062   ----------------------------------------
 .byte   W96
@  #09 @063   ----------------------------------------
 .byte   W96
@  #09 @064   ----------------------------------------
 .byte   W96
@  #09 @065   ----------------------------------------
 .byte   W96
@  #09 @066   ----------------------------------------
 .byte   W96
@  #09 @067   ----------------------------------------
 .byte   W96
@  #09 @068   ----------------------------------------
 .byte   W96
@  #09 @069   ----------------------------------------
 .byte   W96
@  #09 @070   ----------------------------------------
 .byte   W96
@  #09 @071   ----------------------------------------
 .byte   W96
@  #09 @072   ----------------------------------------
 .byte   W96
@  #09 @073   ----------------------------------------
 .byte   W96
@  #09 @074   ----------------------------------------
 .byte   W96
@  #09 @075   ----------------------------------------
 .byte   W96
@  #09 @076   ----------------------------------------
 .byte   W96
@  #09 @077   ----------------------------------------
 .byte   W96
@  #09 @078   ----------------------------------------
 .byte   W96
@  #09 @079   ----------------------------------------
 .byte   W96
@  #09 @080   ----------------------------------------
 .byte   W96
@  #09 @081   ----------------------------------------
 .byte   W96
@  #09 @082   ----------------------------------------
 .byte   W96
@  #09 @083   ----------------------------------------
 .byte   W96
@  #09 @084   ----------------------------------------
 .byte   W96
@  #09 @085   ----------------------------------------
 .byte   W96
@  #09 @086   ----------------------------------------
 .byte   W96
@  #09 @087   ----------------------------------------
 .byte   W96
@  #09 @088   ----------------------------------------
 .byte   W96
@  #09 @089   ----------------------------------------
 .byte   W96
@  #09 @090   ----------------------------------------
 .byte   W96
@  #09 @091   ----------------------------------------
 .byte   W96
@  #09 @092   ----------------------------------------
 .byte   W96
@  #09 @093   ----------------------------------------
 .byte   W96
@  #09 @094   ----------------------------------------
 .byte   W96
@  #09 @095   ----------------------------------------
 .byte   W96
@  #09 @096   ----------------------------------------
 .byte   N36
 .byte   W96
@  #09 @097   ----------------------------------------
 .byte   W72
 .byte   N23
 .byte   W24
@  #09 @098   ----------------------------------------
 .byte   N36
 .byte   W96
@  #09 @099   ----------------------------------------
 .byte   W96
@  #09 @100   ----------------------------------------
 .byte   N36
 .byte   W96
@  #09 @101   ----------------------------------------
 .byte   W72
 .byte   N23
 .byte   W24
@  #09 @102   ----------------------------------------
 .byte   N36
 .byte   W96
@  #09 @103   ----------------------------------------
 .byte   W96
@  #09 @104   ----------------------------------------
 .byte   W96
@  #09 @105   ----------------------------------------
 .byte   W96
@  #09 @106   ----------------------------------------
 .byte   W96
@  #09 @107   ----------------------------------------
 .byte   W96
@  #09 @108   ----------------------------------------
 .byte   W96
@  #09 @109   ----------------------------------------
 .byte   W96
@  #09 @110   ----------------------------------------
 .byte   W96
@  #09 @111   ----------------------------------------
 .byte   W96
@  #09 @112   ----------------------------------------
 .byte   W96
@  #09 @113   ----------------------------------------
 .byte   W96
@  #09 @114   ----------------------------------------
 .byte   W96
@  #09 @115   ----------------------------------------
 .byte   W96
@  #09 @116   ----------------------------------------
 .byte   W96
@  #09 @117   ----------------------------------------
 .byte   W96
@  #09 @118   ----------------------------------------
 .byte   W96
@  #09 @119   ----------------------------------------
 .byte   W96
@  #09 @120   ----------------------------------------
 .byte   W96
@  #09 @121   ----------------------------------------
 .byte   W96
@  #09 @122   ----------------------------------------
 .byte   W96
@  #09 @123   ----------------------------------------
 .byte   W96
@  #09 @124   ----------------------------------------
 .byte   GOTO
  .word Label_01888B2E
@  #09 @125   ----------------------------------------
 .byte   W23
 .byte   FINE

@**************** Track 10 (Midi-Chn.9) ****************@

song04_010:
@  #10 @000   ----------------------------------------
 .byte   KEYSH , song04_key+0
 .byte   VOICE , 52
 .byte   VOL , 46*song04_mvl/mxv
 .byte   BENDR, 8
 .byte   W96
@  #10 @001   ----------------------------------------
 .byte   W96
@  #10 @002   ----------------------------------------
 .byte   W96
@  #10 @003   ----------------------------------------
 .byte   W96
@  #10 @004   ----------------------------------------
Label_01005B48:
 .byte   W96
@  #10 @005   ----------------------------------------
 .byte   W96
@  #10 @006   ----------------------------------------
 .byte   W96
@  #10 @007   ----------------------------------------
 .byte   W96
@  #10 @008   ----------------------------------------
 .byte   W96
@  #10 @009   ----------------------------------------
 .byte   W96
@  #10 @010   ----------------------------------------
 .byte   W96
@  #10 @011   ----------------------------------------
 .byte   W96
@  #10 @012   ----------------------------------------
 .byte   W96
@  #10 @013   ----------------------------------------
 .byte   W96
@  #10 @014   ----------------------------------------
 .byte   W96
@  #10 @015   ----------------------------------------
 .byte   W96
@  #10 @016   ----------------------------------------
 .byte   W96
@  #10 @017   ----------------------------------------
 .byte   W96
@  #10 @018   ----------------------------------------
 .byte   W96
@  #10 @019   ----------------------------------------
 .byte   W96
@  #10 @020   ----------------------------------------
 .byte   W96
@  #10 @021   ----------------------------------------
 .byte   W96
@  #10 @022   ----------------------------------------
 .byte   W96
@  #10 @023   ----------------------------------------
 .byte   W96
@  #10 @024   ----------------------------------------
 .byte   W96
@  #10 @025   ----------------------------------------
 .byte   W96
@  #10 @026   ----------------------------------------
 .byte   W96
@  #10 @027   ----------------------------------------
 .byte   W96
@  #10 @028   ----------------------------------------
 .byte   W96
@  #10 @029   ----------------------------------------
 .byte   W96
@  #10 @030   ----------------------------------------
 .byte   W96
@  #10 @031   ----------------------------------------
 .byte   W96
@  #10 @032   ----------------------------------------
 .byte   W96
@  #10 @033   ----------------------------------------
 .byte   W96
@  #10 @034   ----------------------------------------
 .byte   W96
@  #10 @035   ----------------------------------------
 .byte   W96
@  #10 @036   ----------------------------------------
 .byte   W96
@  #10 @037   ----------------------------------------
 .byte   W96
@  #10 @038   ----------------------------------------
 .byte   W96
@  #10 @039   ----------------------------------------
 .byte   W96
@  #10 @040   ----------------------------------------
 .byte   W96
@  #10 @041   ----------------------------------------
 .byte   W96
@  #10 @042   ----------------------------------------
 .byte   W96
@  #10 @043   ----------------------------------------
 .byte   W96
@  #10 @044   ----------------------------------------
 .byte   W96
@  #10 @045   ----------------------------------------
 .byte   W96
@  #10 @046   ----------------------------------------
 .byte   BEND , c_v+0
 .byte   W96
@  #10 @047   ----------------------------------------
Label_01005B75:
 .byte   N92 ,Bn1 ,v076
 .byte   W03
 .byte   BEND , c_v+5
 .byte   W06
 .byte   BEND , c_v+9
 .byte   W06
 .byte   BEND , c_v+13
 .byte   W06
 .byte   BEND , c_v+17
 .byte   W06
 .byte   BEND , c_v+21
 .byte   W06
 .byte   BEND , c_v+25
 .byte   W06
 .byte   BEND , c_v+29
 .byte   W06
 .byte   BEND , c_v+33
 .byte   W06
 .byte   BEND , c_v+37
 .byte   W06
 .byte   BEND , c_v+40
 .byte   W06
 .byte   BEND , c_v+45
 .byte   W06
 .byte   BEND , c_v+49
 .byte   W06
 .byte   BEND , c_v+53
 .byte   W06
 .byte   BEND , c_v+57
 .byte   W06
 .byte   BEND , c_v+60
 .byte   W06
 .byte   BEND , c_v+63
 .byte   W03
 .byte   PEND 
@  #10 @048   ----------------------------------------
Label_01005BAA:
 .byte   BEND , c_v+0
 .byte   TIE ,As2 ,v060
 .byte   TIE ,Dn3
 .byte   W96
 .byte   PEND 
@  #10 @049   ----------------------------------------
 .byte   W96
@  #10 @050   ----------------------------------------
 .byte   W96
@  #10 @051   ----------------------------------------
 .byte   W90
 .byte   W01
 .byte   EOT
 .byte   As2 ,v062
 .byte   W05
@  #10 @052   ----------------------------------------
Label_01005BBB:
 .byte   TIE ,Cn3 ,v060
 .byte   TIE ,Ds3
 .byte   W96
 .byte   PEND 
@  #10 @053   ----------------------------------------
 .byte   W96
@  #10 @054   ----------------------------------------
 .byte   W96
@  #10 @055   ----------------------------------------
 .byte   W90
 .byte   W01
 .byte   EOT
 .byte   Cn3 ,v063
 .byte   W05
@  #10 @056   ----------------------------------------
Label_01005BCA:
 .byte   TIE ,As2 ,v060
 .byte   TIE ,Dn3
 .byte   W96
 .byte   PEND 
@  #10 @057   ----------------------------------------
 .byte   W96
@  #10 @058   ----------------------------------------
 .byte   W96
@  #10 @059   ----------------------------------------
 .byte   W90
 .byte   W01
 .byte   EOT
 .byte   As2 ,v062
 .byte   W05
@  #10 @060   ----------------------------------------
 .byte   PATT
  .word Label_01005BBB
@  #10 @061   ----------------------------------------
 .byte   W90
 .byte   W01
 .byte   EOT
 .byte   Cn3 ,v063
 .byte   W05
@  #10 @062   ----------------------------------------
 .byte   TIE ,Dn3 ,v060
 .byte   TIE ,Fn3
 .byte   W96
@  #10 @063   ----------------------------------------
 .byte   W90
 .byte   W01
 .byte   EOT
 .byte   Dn3 ,v065
 .byte   W05
@  #10 @064   ----------------------------------------
 .byte   W96
@  #10 @065   ----------------------------------------
 .byte   W96
@  #10 @066   ----------------------------------------
 .byte   W96
@  #10 @067   ----------------------------------------
 .byte   W96
@  #10 @068   ----------------------------------------
 .byte   W96
@  #10 @069   ----------------------------------------
 .byte   W96
@  #10 @070   ----------------------------------------
 .byte   W96
@  #10 @071   ----------------------------------------
 .byte   W96
@  #10 @072   ----------------------------------------
 .byte   W96
@  #10 @073   ----------------------------------------
 .byte   W96
@  #10 @074   ----------------------------------------
 .byte   W96
@  #10 @075   ----------------------------------------
 .byte   W96
@  #10 @076   ----------------------------------------
 .byte   W96
@  #10 @077   ----------------------------------------
 .byte   W96
@  #10 @078   ----------------------------------------
 .byte   W96
@  #10 @079   ----------------------------------------
 .byte   W96
@  #10 @080   ----------------------------------------
 .byte   W96
@  #10 @081   ----------------------------------------
 .byte   W96
@  #10 @082   ----------------------------------------
 .byte   W96
@  #10 @083   ----------------------------------------
 .byte   W96
@  #10 @084   ----------------------------------------
 .byte   W96
@  #10 @085   ----------------------------------------
 .byte   W96
@  #10 @086   ----------------------------------------
 .byte   W96
@  #10 @087   ----------------------------------------
 .byte   W96
@  #10 @088   ----------------------------------------
 .byte   W96
@  #10 @089   ----------------------------------------
 .byte   W96
@  #10 @090   ----------------------------------------
 .byte   W96
@  #10 @091   ----------------------------------------
 .byte   W96
@  #10 @092   ----------------------------------------
 .byte   W96
@  #10 @093   ----------------------------------------
 .byte   W96
@  #10 @094   ----------------------------------------
 .byte   W96
@  #10 @095   ----------------------------------------
 .byte   W96
@  #10 @096   ----------------------------------------
 .byte   W96
@  #10 @097   ----------------------------------------
 .byte   W96
@  #10 @098   ----------------------------------------
 .byte   W96
@  #10 @099   ----------------------------------------
 .byte   W96
@  #10 @100   ----------------------------------------
 .byte   W96
@  #10 @101   ----------------------------------------
 .byte   W96
@  #10 @102   ----------------------------------------
 .byte   W96
@  #10 @103   ----------------------------------------
 .byte   PATT
  .word Label_01005B75
@  #10 @104   ----------------------------------------
 .byte   PATT
  .word Label_01005BAA
@  #10 @105   ----------------------------------------
 .byte   W96
@  #10 @106   ----------------------------------------
 .byte   W96
@  #10 @107   ----------------------------------------
 .byte   W90
 .byte   W01
 .byte   EOT
 .byte   As2 ,v062
 .byte   W05
@  #10 @108   ----------------------------------------
 .byte   PATT
  .word Label_01005BBB
@  #10 @109   ----------------------------------------
 .byte   W96
@  #10 @110   ----------------------------------------
 .byte   W96
@  #10 @111   ----------------------------------------
 .byte   W90
 .byte   W01
 .byte   EOT
 .byte   Cn3 ,v063
 .byte   W05
@  #10 @112   ----------------------------------------
 .byte   PATT
  .word Label_01005BCA
@  #10 @113   ----------------------------------------
 .byte   W96
@  #10 @114   ----------------------------------------
 .byte   W96
@  #10 @115   ----------------------------------------
 .byte   W90
 .byte   W01
 .byte   EOT
 .byte   As2 ,v062
 .byte   W05
@  #10 @116   ----------------------------------------
 .byte   PATT
  .word Label_01005BBB
@  #10 @117   ----------------------------------------
 .byte   W90
 .byte   W01
 .byte   EOT
 .byte   Cn3 ,v063
 .byte   W05
@  #10 @118   ----------------------------------------
 .byte   TIE ,As2 ,v076
 .byte   TIE ,Dn3 ,v060
 .byte   TIE ,Fn3
 .byte   W96
@  #10 @119   ----------------------------------------
 .byte   W90
 .byte   W01
 .byte   EOT
 .byte   Dn3 ,v065
 .byte   W05
@  #10 @120   ----------------------------------------
 .byte   As2
 .byte   W96
@  #10 @121   ----------------------------------------
 .byte   W96
@  #10 @122   ----------------------------------------
 .byte   W96
@  #10 @123   ----------------------------------------
 .byte   W96
@  #10 @124   ----------------------------------------
 .byte   GOTO
  .word Label_01005B48
@  #10 @125   ----------------------------------------
 .byte   W23
 .byte   FINE

@**************** Track 11 (Midi-Chn.10) ****************@

song04_011:
@  #11 @000   ----------------------------------------
 .byte   KEYSH , song04_key+0
 .byte   VOICE , 30
 .byte   VOL , 38*song04_mvl/mxv
 .byte   W96
@  #11 @001   ----------------------------------------
 .byte   W96
@  #11 @002   ----------------------------------------
 .byte   W96
@  #11 @003   ----------------------------------------
 .byte   W96
@  #11 @004   ----------------------------------------
Label_01005C76:
 .byte   W96
@  #11 @005   ----------------------------------------
 .byte   W96
@  #11 @006   ----------------------------------------
 .byte   W96
@  #11 @007   ----------------------------------------
 .byte   W96
@  #11 @008   ----------------------------------------
 .byte   W96
@  #11 @009   ----------------------------------------
 .byte   W96
@  #11 @010   ----------------------------------------
 .byte   W96
@  #11 @011   ----------------------------------------
 .byte   W96
@  #11 @012   ----------------------------------------
 .byte   W96
@  #11 @013   ----------------------------------------
 .byte   W96
@  #11 @014   ----------------------------------------
 .byte   W96
@  #11 @015   ----------------------------------------
 .byte   W96
@  #11 @016   ----------------------------------------
 .byte   W96
@  #11 @017   ----------------------------------------
 .byte   W96
@  #11 @018   ----------------------------------------
 .byte   W96
@  #11 @019   ----------------------------------------
 .byte   W96
@  #11 @020   ----------------------------------------
 .byte   W96
@  #11 @021   ----------------------------------------
 .byte   W96
@  #11 @022   ----------------------------------------
 .byte   W96
@  #11 @023   ----------------------------------------
 .byte   W96
@  #11 @024   ----------------------------------------
 .byte   W96
@  #11 @025   ----------------------------------------
 .byte   W96
@  #11 @026   ----------------------------------------
 .byte   W96
@  #11 @027   ----------------------------------------
 .byte   W96
@  #11 @028   ----------------------------------------
 .byte   W96
@  #11 @029   ----------------------------------------
 .byte   W96
@  #11 @030   ----------------------------------------
 .byte   W96
@  #11 @031   ----------------------------------------
 .byte   W96
@  #11 @032   ----------------------------------------
 .byte   W96
@  #11 @033   ----------------------------------------
 .byte   W96
@  #11 @034   ----------------------------------------
 .byte   W96
@  #11 @035   ----------------------------------------
 .byte   W96
@  #11 @036   ----------------------------------------
 .byte   W96
@  #11 @037   ----------------------------------------
 .byte   W96
@  #11 @038   ----------------------------------------
 .byte   W96
@  #11 @039   ----------------------------------------
 .byte   W96
@  #11 @040   ----------------------------------------
 .byte   W96
@  #11 @041   ----------------------------------------
 .byte   W96
@  #11 @042   ----------------------------------------
 .byte   W96
@  #11 @043   ----------------------------------------
 .byte   W96
@  #11 @044   ----------------------------------------
 .byte   W96
@  #11 @045   ----------------------------------------
 .byte   W96
@  #11 @046   ----------------------------------------
 .byte   W96
@  #11 @047   ----------------------------------------
 .byte   W96
@  #11 @048   ----------------------------------------
 .byte   W96
@  #11 @049   ----------------------------------------
 .byte   W96
@  #11 @050   ----------------------------------------
 .byte   W96
@  #11 @051   ----------------------------------------
 .byte   W96
@  #11 @052   ----------------------------------------
 .byte   W96
@  #11 @053   ----------------------------------------
 .byte   W96
@  #11 @054   ----------------------------------------
 .byte   W96
@  #11 @055   ----------------------------------------
 .byte   W96
@  #11 @056   ----------------------------------------
 .byte   W96
@  #11 @057   ----------------------------------------
 .byte   W96
@  #11 @058   ----------------------------------------
 .byte   W96
@  #11 @059   ----------------------------------------
 .byte   W96
@  #11 @060   ----------------------------------------
 .byte   W96
@  #11 @061   ----------------------------------------
 .byte   W96
@  #11 @062   ----------------------------------------
 .byte   W96
@  #11 @063   ----------------------------------------
 .byte   W96
@  #11 @064   ----------------------------------------
Label_01005CB2:
 .byte   TIE ,Cn3 ,v052
 .byte   TIE ,Cn4
 .byte   W96
 .byte   PEND 
@  #11 @065   ----------------------------------------
 .byte   W96
@  #11 @066   ----------------------------------------
Label_01005CBA:
 .byte   VOL , 38*song04_mvl/mxv
 .byte   W12
 .byte   VOL , 37*song04_mvl/mxv
 .byte   W12
 .byte   VOL , 35*song04_mvl/mxv
 .byte   W12
 .byte   VOL , 34*song04_mvl/mxv
 .byte   W12
 .byte   VOL , 33*song04_mvl/mxv
 .byte   W12
 .byte   VOL , 32*song04_mvl/mxv
 .byte   W12
 .byte   VOL , 30*song04_mvl/mxv
 .byte   W12
 .byte   VOL , 29*song04_mvl/mxv
 .byte   W12
 .byte   PEND 
@  #11 @067   ----------------------------------------
Label_01005CD3:
 .byte   VOL , 28*song04_mvl/mxv
 .byte   W12
 .byte   VOL , 27*song04_mvl/mxv
 .byte   W12
 .byte   VOL , 26*song04_mvl/mxv
 .byte   W12
 .byte   VOL , 26*song04_mvl/mxv
 .byte   W12
 .byte   VOL , 26*song04_mvl/mxv
 .byte   W12
 .byte   VOL , 26*song04_mvl/mxv
 .byte   W12
 .byte   VOL , 26*song04_mvl/mxv
 .byte   W12
 .byte   VOL , 26*song04_mvl/mxv
 .byte   W12
 .byte   PEND 
@  #11 @068   ----------------------------------------
 .byte   CnM2
 .byte   W96
@  #11 @069   ----------------------------------------
 .byte   W92
 .byte   W01
 .byte   EOT
 .byte   Cn3 ,v072
 .byte   W03
@  #11 @070   ----------------------------------------
 .byte   W96
@  #11 @071   ----------------------------------------
 .byte   W48
 .byte   VOL , 38*song04_mvl/mxv
 .byte   W48
@  #11 @072   ----------------------------------------
Label_01005CF9:
 .byte   N68 ,Cn3 ,v052
 .byte   N68 ,Cn4
 .byte   W72
 .byte   TIE ,As2
 .byte   TIE ,As3
 .byte   W24
 .byte   PEND 
@  #11 @073   ----------------------------------------
 .byte   W96
@  #11 @074   ----------------------------------------
Label_01005D06:
 .byte   W48
 .byte   VOL , 38*song04_mvl/mxv
 .byte   W12
 .byte   VOL , 37*song04_mvl/mxv
 .byte   W12
 .byte   VOL , 35*song04_mvl/mxv
 .byte   W12
 .byte   VOL , 34*song04_mvl/mxv
 .byte   W12
 .byte   PEND 
@  #11 @075   ----------------------------------------
Label_01005D14:
 .byte   VOL , 33*song04_mvl/mxv
 .byte   W12
 .byte   VOL , 32*song04_mvl/mxv
 .byte   W12
 .byte   VOL , 30*song04_mvl/mxv
 .byte   W12
 .byte   VOL , 29*song04_mvl/mxv
 .byte   W12
 .byte   VOL , 28*song04_mvl/mxv
 .byte   W12
 .byte   VOL , 27*song04_mvl/mxv
 .byte   W12
 .byte   VOL , 26*song04_mvl/mxv
 .byte   W12
 .byte   VOL , 26*song04_mvl/mxv
 .byte   W12
 .byte   PEND 
@  #11 @076   ----------------------------------------
Label_01005D2D:
 .byte   VOL , 26*song04_mvl/mxv
 .byte   W12
 .byte   VOL , 26*song04_mvl/mxv
 .byte   W12
 .byte   VOL , 26*song04_mvl/mxv
 .byte   W12
 .byte   VOL , 26*song04_mvl/mxv
 .byte   W12
 .byte   VOL , 26*song04_mvl/mxv
 .byte   W48
 .byte   PEND 
@  #11 @077   ----------------------------------------
 .byte   W92
 .byte   W01
 .byte   EOT
 .byte   As2 ,v070
 .byte   W03
@  #11 @078   ----------------------------------------
 .byte   VOL , 38*song04_mvl/mxv
 .byte   W96
@  #11 @079   ----------------------------------------
 .byte   W96
@  #11 @080   ----------------------------------------
 .byte   PATT
  .word Label_01005CB2
@  #11 @081   ----------------------------------------
 .byte   W48
 .byte   VOL , 38*song04_mvl/mxv
 .byte   W48
@  #11 @082   ----------------------------------------
 .byte   PATT
  .word Label_01005CBA
@  #11 @083   ----------------------------------------
 .byte   PATT
  .word Label_01005CD3
@  #11 @084   ----------------------------------------
 .byte   VOL , 26*song04_mvl/mxv
 .byte   W96
@  #11 @085   ----------------------------------------
 .byte   W92
 .byte   W01
 .byte   EOT
 .byte   Cn3 ,v072
 .byte   W03
@  #11 @086   ----------------------------------------
 .byte   W96
@  #11 @087   ----------------------------------------
 .byte   W48
 .byte   VOL , 38*song04_mvl/mxv
 .byte   W48
@  #11 @088   ----------------------------------------
 .byte   PATT
  .word Label_01005CF9
@  #11 @089   ----------------------------------------
 .byte   W96
@  #11 @090   ----------------------------------------
 .byte   PATT
  .word Label_01005D06
@  #11 @091   ----------------------------------------
 .byte   PATT
  .word Label_01005D14
@  #11 @092   ----------------------------------------
 .byte   PATT
  .word Label_01005D2D
@  #11 @093   ----------------------------------------
 .byte   W92
 .byte   W01
 .byte   EOT
 .byte   As2 ,v070
 .byte   W03
@  #11 @094   ----------------------------------------
 .byte   VOL , 38*song04_mvl/mxv
 .byte   W96
@  #11 @095   ----------------------------------------
 .byte   W96
@  #11 @096   ----------------------------------------
 .byte   W96
@  #11 @097   ----------------------------------------
 .byte   W48
 .byte   VOL , 38*song04_mvl/mxv
 .byte   W48
@  #11 @098   ----------------------------------------
 .byte   W96
@  #11 @099   ----------------------------------------
 .byte   W96
@  #11 @100   ----------------------------------------
 .byte   W96
@  #11 @101   ----------------------------------------
 .byte   W96
@  #11 @102   ----------------------------------------
 .byte   W96
@  #11 @103   ----------------------------------------
 .byte   W96
@  #11 @104   ----------------------------------------
 .byte   W96
@  #11 @105   ----------------------------------------
 .byte   W96
@  #11 @106   ----------------------------------------
 .byte   W96
@  #11 @107   ----------------------------------------
 .byte   W96
@  #11 @108   ----------------------------------------
 .byte   W96
@  #11 @109   ----------------------------------------
 .byte   W96
@  #11 @110   ----------------------------------------
 .byte   W96
@  #11 @111   ----------------------------------------
 .byte   W96
@  #11 @112   ----------------------------------------
 .byte   W96
@  #11 @113   ----------------------------------------
 .byte   W96
@  #11 @114   ----------------------------------------
 .byte   W96
@  #11 @115   ----------------------------------------
 .byte   W96
@  #11 @116   ----------------------------------------
 .byte   W96
@  #11 @117   ----------------------------------------
 .byte   W96
@  #11 @118   ----------------------------------------
 .byte   W96
@  #11 @119   ----------------------------------------
 .byte   W96
@  #11 @120   ----------------------------------------
 .byte   W96
@  #11 @121   ----------------------------------------
 .byte   W96
@  #11 @122   ----------------------------------------
 .byte   W96
@  #11 @123   ----------------------------------------
 .byte   W96
@  #11 @124   ----------------------------------------
 .byte   GOTO
  .word Label_01005C76
@  #11 @125   ----------------------------------------
 .byte   W23
 .byte   FINE

@**************** Track 12 (Midi-Chn.11) ****************@

song04_012:
@  #12 @000   ----------------------------------------
 .byte   KEYSH , song04_key+0
 .byte   VOICE , 31
 .byte   W24
 .byte   VOL , 34*song04_mvl/mxv
 .byte   BEND , c_v+3
 .byte   W72
@  #12 @001   ----------------------------------------
 .byte   W96
@  #12 @002   ----------------------------------------
 .byte   W96
@  #12 @003   ----------------------------------------
 .byte   W96
@  #12 @004   ----------------------------------------
Label_0188886D:
 .byte   W96
@  #12 @005   ----------------------------------------
 .byte   W96
@  #12 @006   ----------------------------------------
 .byte   W96
@  #12 @007   ----------------------------------------
 .byte   W96
@  #12 @008   ----------------------------------------
 .byte   W96
@  #12 @009   ----------------------------------------
 .byte   W96
@  #12 @010   ----------------------------------------
 .byte   W96
@  #12 @011   ----------------------------------------
 .byte   W96
@  #12 @012   ----------------------------------------
 .byte   W96
@  #12 @013   ----------------------------------------
 .byte   W96
@  #12 @014   ----------------------------------------
 .byte   W96
@  #12 @015   ----------------------------------------
 .byte   W96
@  #12 @016   ----------------------------------------
 .byte   W24
 .byte   N36 ,Cn3 ,v127
 .byte   W72
@  #12 @017   ----------------------------------------
 .byte   W96
@  #12 @018   ----------------------------------------
Label_0188887F:
 .byte   N23 ,Cn3 ,v127
 .byte   W24
 .byte   N36
 .byte   W72
 .byte   PEND 
@  #12 @019   ----------------------------------------
 .byte   W96
@  #12 @020   ----------------------------------------
 .byte   W24
 .byte   N36
 .byte   W72
@  #12 @021   ----------------------------------------
 .byte   W96
@  #12 @022   ----------------------------------------
 .byte   PATT
  .word Label_0188887F
@  #12 @023   ----------------------------------------
 .byte   W96
@  #12 @024   ----------------------------------------
 .byte   W96
@  #12 @025   ----------------------------------------
 .byte   W96
@  #12 @026   ----------------------------------------
 .byte   W96
@  #12 @027   ----------------------------------------
 .byte   W96
@  #12 @028   ----------------------------------------
 .byte   W96
@  #12 @029   ----------------------------------------
 .byte   W96
@  #12 @030   ----------------------------------------
 .byte   W96
@  #12 @031   ----------------------------------------
 .byte   W96
@  #12 @032   ----------------------------------------
 .byte   W96
@  #12 @033   ----------------------------------------
 .byte   W96
@  #12 @034   ----------------------------------------
 .byte   W96
@  #12 @035   ----------------------------------------
 .byte   W96
@  #12 @036   ----------------------------------------
 .byte   W96
@  #12 @037   ----------------------------------------
 .byte   W96
@  #12 @038   ----------------------------------------
 .byte   W96
@  #12 @039   ----------------------------------------
 .byte   W96
@  #12 @040   ----------------------------------------
 .byte   W24
 .byte   N36 ,Cn3 ,v127
 .byte   W72
@  #12 @041   ----------------------------------------
 .byte   W96
@  #12 @042   ----------------------------------------
 .byte   PATT
  .word Label_0188887F
@  #12 @043   ----------------------------------------
 .byte   W96
@  #12 @044   ----------------------------------------
 .byte   W24
 .byte   N36 ,Cn3 ,v127
 .byte   W72
@  #12 @045   ----------------------------------------
 .byte   W96
@  #12 @046   ----------------------------------------
 .byte   PATT
  .word Label_0188887F
@  #12 @047   ----------------------------------------
 .byte   W96
@  #12 @048   ----------------------------------------
 .byte   W96
@  #12 @049   ----------------------------------------
 .byte   W96
@  #12 @050   ----------------------------------------
 .byte   W96
@  #12 @051   ----------------------------------------
 .byte   W96
@  #12 @052   ----------------------------------------
 .byte   W96
@  #12 @053   ----------------------------------------
 .byte   W96
@  #12 @054   ----------------------------------------
 .byte   W96
@  #12 @055   ----------------------------------------
 .byte   W96
@  #12 @056   ----------------------------------------
 .byte   W96
@  #12 @057   ----------------------------------------
 .byte   W96
@  #12 @058   ----------------------------------------
 .byte   W96
@  #12 @059   ----------------------------------------
 .byte   W96
@  #12 @060   ----------------------------------------
 .byte   W96
@  #12 @061   ----------------------------------------
 .byte   W96
@  #12 @062   ----------------------------------------
 .byte   W96
@  #12 @063   ----------------------------------------
 .byte   W96
@  #12 @064   ----------------------------------------
 .byte   W96
@  #12 @065   ----------------------------------------
 .byte   W96
@  #12 @066   ----------------------------------------
 .byte   W96
@  #12 @067   ----------------------------------------
 .byte   W96
@  #12 @068   ----------------------------------------
 .byte   W96
@  #12 @069   ----------------------------------------
 .byte   W96
@  #12 @070   ----------------------------------------
 .byte   W96
@  #12 @071   ----------------------------------------
 .byte   W96
@  #12 @072   ----------------------------------------
 .byte   W96
@  #12 @073   ----------------------------------------
 .byte   W96
@  #12 @074   ----------------------------------------
 .byte   W96
@  #12 @075   ----------------------------------------
 .byte   W96
@  #12 @076   ----------------------------------------
 .byte   W96
@  #12 @077   ----------------------------------------
 .byte   W96
@  #12 @078   ----------------------------------------
 .byte   W96
@  #12 @079   ----------------------------------------
 .byte   W96
@  #12 @080   ----------------------------------------
 .byte   W96
@  #12 @081   ----------------------------------------
 .byte   W96
@  #12 @082   ----------------------------------------
 .byte   W96
@  #12 @083   ----------------------------------------
 .byte   W96
@  #12 @084   ----------------------------------------
 .byte   W96
@  #12 @085   ----------------------------------------
 .byte   W96
@  #12 @086   ----------------------------------------
 .byte   W96
@  #12 @087   ----------------------------------------
 .byte   W96
@  #12 @088   ----------------------------------------
 .byte   W96
@  #12 @089   ----------------------------------------
 .byte   W96
@  #12 @090   ----------------------------------------
 .byte   W96
@  #12 @091   ----------------------------------------
 .byte   W96
@  #12 @092   ----------------------------------------
 .byte   W96
@  #12 @093   ----------------------------------------
 .byte   W96
@  #12 @094   ----------------------------------------
 .byte   W96
@  #12 @095   ----------------------------------------
 .byte   W96
@  #12 @096   ----------------------------------------
 .byte   W24
 .byte   N36 ,Cn3 ,v127
 .byte   W72
@  #12 @097   ----------------------------------------
 .byte   W96
@  #12 @098   ----------------------------------------
 .byte   PATT
  .word Label_0188887F
@  #12 @099   ----------------------------------------
 .byte   W96
@  #12 @100   ----------------------------------------
 .byte   W24
 .byte   N36 ,Cn3 ,v127
 .byte   W72
@  #12 @101   ----------------------------------------
 .byte   W96
@  #12 @102   ----------------------------------------
 .byte   PATT
  .word Label_0188887F
@  #12 @103   ----------------------------------------
 .byte   W96
@  #12 @104   ----------------------------------------
 .byte   W96
@  #12 @105   ----------------------------------------
 .byte   W96
@  #12 @106   ----------------------------------------
 .byte   W96
@  #12 @107   ----------------------------------------
 .byte   W96
@  #12 @108   ----------------------------------------
 .byte   W96
@  #12 @109   ----------------------------------------
 .byte   W96
@  #12 @110   ----------------------------------------
 .byte   W96
@  #12 @111   ----------------------------------------
 .byte   W96
@  #12 @112   ----------------------------------------
 .byte   W96
@  #12 @113   ----------------------------------------
 .byte   W96
@  #12 @114   ----------------------------------------
 .byte   W96
@  #12 @115   ----------------------------------------
 .byte   W96
@  #12 @116   ----------------------------------------
 .byte   W96
@  #12 @117   ----------------------------------------
 .byte   W96
@  #12 @118   ----------------------------------------
 .byte   W96
@  #12 @119   ----------------------------------------
 .byte   W96
@  #12 @120   ----------------------------------------
 .byte   W96
@  #12 @121   ----------------------------------------
 .byte   W96
@  #12 @122   ----------------------------------------
 .byte   W96
@  #12 @123   ----------------------------------------
 .byte   W96
@  #12 @124   ----------------------------------------
 .byte   GOTO
  .word Label_0188886D
@  #12 @125   ----------------------------------------
 .byte   W23
 .byte   FINE

@******************************************************@
	.align	2

song04:
	.byte	12	@ NumTrks
	.byte	0	@ NumBlks
	.byte	song04_pri	@ Priority
	.byte	song04_rev	@ Reverb.
    
	.word	song04_grp
    
	.word	song04_001
	.word	song04_002
	.word	song04_003
	.word	song04_004
	.word	song04_005
	.word	song04_006
	.word	song04_007
	.word	song04_008
	.word	song04_009
	.word	song04_010
	.word	song04_011
	.word	song04_012

	.end
