	.include "MPlayDef.s"

	.equ	Ameno_grp, voicegroup000
	.equ	Ameno_pri, 0
	.equ	Ameno_rev, 0
	.equ	Ameno_mvl, 127
	.equ	Ameno_key, 0
	.equ	Ameno_tbs, 1
	.equ	Ameno_exg, 0
	.equ	Ameno_cmp, 1

	.section .rodata
	.global	Ameno
	.align	2


@**************** Track 1 (Midi-Chn.0) ****************@

Ameno_001:
@ 000   ----------------------------------------
 .byte   KEYSH , Ameno_key+0
 .byte   TEMPO , 102*Ameno_tbs/2
 .byte   VOICE , 40
 .byte   VOL , 31*Ameno_mvl/mxv
 .byte   TIE ,Gs0 ,v100
 .byte   TIE ,Gs1
 .byte   W48
 .byte   W48
@ 001   ----------------------------------------
 .byte   W48
 .byte   W48
@ 002   ----------------------------------------
 .byte   W48
 .byte   W48
@ 003   ----------------------------------------
 .byte   EOT
 .byte   Gs0 ,v044
Label_0_0134AC36:
 .byte   TIE ,En0 ,v100
 .byte   TIE ,En1
 .byte   W48
 .byte   PEND 
 .byte   W48
@ 004   ----------------------------------------
 .byte   W48
 .byte   W48
@ 005   ----------------------------------------
 .byte   EOT
 .byte   En0 ,v040
 .byte   N96 ,Fs0
 .byte   N96 ,Fs1
 .byte   W48
 .byte   W48
@ 006   ----------------------------------------
 .byte   Ds0
 .byte   N96 ,Ds1
 .byte   W48
 .byte   W48
@ 007   ----------------------------------------
Label_0_0134AC4E:
 .byte   TIE ,Gs0 ,v100
 .byte   TIE ,Gs1
 .byte   W48
 .byte   PEND 
 .byte   W48
@ 008   ----------------------------------------
 .byte   W48
 .byte   W48
@ 009   ----------------------------------------
 .byte   EOT
 .byte   Gs0 ,v044
@ 010   ----------------------------------------
 .byte   PATT
  .word Label_0_0134AC4E
@ 011   ----------------------------------------
 .byte   W48
 .byte   W48
@ 012   ----------------------------------------
 .byte   W48
 .byte   EOT
 .byte   Gs0 ,v044
@ 013   ----------------------------------------
 .byte   PATT
  .word Label_0_0134AC36
@ 014   ----------------------------------------
 .byte   W48
 .byte   W48
@ 015   ----------------------------------------
 .byte   W48
 .byte   EOT
 .byte   En0 ,v040
 .byte   N96 ,Fs0 ,v100
 .byte   N96 ,Fs1
 .byte   W48
@ 016   ----------------------------------------
 .byte   W48
 .byte   Ds0
 .byte   N96 ,Ds1
 .byte   W48
@ 017   ----------------------------------------
 .byte   W48
@ 018   ----------------------------------------
 .byte   PATT
  .word Label_0_0134AC4E
@ 019   ----------------------------------------
 .byte   W48
 .byte   W48
@ 020   ----------------------------------------
 .byte   EOT
 .byte   Gs0 ,v044
@ 021   ----------------------------------------
 .byte   PATT
  .word Label_0_0134AC4E
@ 022   ----------------------------------------
 .byte   W48
 .byte   W48
@ 023   ----------------------------------------
 .byte   W48
 .byte   W48
@ 024   ----------------------------------------
 .byte   W48
 .byte   W48
@ 025   ----------------------------------------
 .byte   W48
 .byte   EOT
 .byte   Gs0 ,v044
 .byte   N96 ,Cs1 ,v100
 .byte   N96 ,Cs2
 .byte   W48
@ 026   ----------------------------------------
 .byte   W48
 .byte   Cn1
 .byte   N96 ,Cn2
 .byte   W48
@ 027   ----------------------------------------
 .byte   W48
 .byte   N48 ,Bn0
 .byte   N48 ,Bn1
 .byte   W48
@ 028   ----------------------------------------
 .byte   An0
 .byte   N48 ,An1
 .byte   W48
 .byte   N96 ,Gs0
 .byte   N96 ,Gs1
 .byte   W48
@ 029   ----------------------------------------
 .byte   W48
 .byte   N48 ,An0
 .byte   N48 ,An1
 .byte   W48
@ 030   ----------------------------------------
 .byte   An0
 .byte   N48 ,An1
 .byte   W48
 .byte   N96 ,En1
 .byte   N96 ,En2
 .byte   W48
@ 031   ----------------------------------------
 .byte   W48
 .byte   Cs1
 .byte   N96 ,Cs2
 .byte   W48
@ 032   ----------------------------------------
 .byte   W48
 .byte   Cn1
 .byte   N96 ,Cn2
 .byte   W48
@ 033   ----------------------------------------
 .byte   W48
 .byte   N48 ,Bn0
 .byte   N48 ,Bn1
 .byte   W48
@ 034   ----------------------------------------
 .byte   An0
 .byte   N48 ,An1
 .byte   W48
 .byte   N96 ,Gs0
 .byte   N96 ,Gs1
 .byte   W48
@ 035   ----------------------------------------
 .byte   W48
 .byte   N48 ,An0
 .byte   N48 ,An1
 .byte   W48
@ 036   ----------------------------------------
 .byte   An0
 .byte   N48 ,An1
 .byte   W48
 .byte   N96 ,En1
 .byte   N96 ,En2
 .byte   W48
@ 037   ----------------------------------------
 .byte   W48
@ 038   ----------------------------------------
 .byte   PATT
  .word Label_0_0134AC4E
@ 039   ----------------------------------------
 .byte   W48
 .byte   W48
@ 040   ----------------------------------------
 .byte   W48
 .byte   EOT
 .byte   Gs0 ,v044
@ 041   ----------------------------------------
 .byte   PATT
  .word Label_0_0134AC36
@ 042   ----------------------------------------
 .byte   W48
 .byte   W48
@ 043   ----------------------------------------
 .byte   W48
 .byte   EOT
 .byte   En0 ,v040
 .byte   N96 ,Gs1 ,v048
 .byte   W48
@ 044   ----------------------------------------
 .byte   W48
@ 045   ----------------------------------------
 .byte   PATT
  .word Label_0_0134AC4E
@ 046   ----------------------------------------
 .byte   W48
 .byte   W48
@ 047   ----------------------------------------
 .byte   W48
 .byte   EOT
 .byte   Gs0 ,v044
@ 048   ----------------------------------------
 .byte   PATT
  .word Label_0_0134AC36
@ 049   ----------------------------------------
 .byte   W48
 .byte   W48
@ 050   ----------------------------------------
 .byte   W48
 .byte   EOT
 .byte   En0 ,v040
 .byte   N96 ,Fs0 ,v100
 .byte   N96 ,Fs1
 .byte   W48
@ 051   ----------------------------------------
 .byte   W48
 .byte   Ds0
 .byte   N96 ,Ds1
 .byte   W48
@ 052   ----------------------------------------
 .byte   W48
@ 053   ----------------------------------------
 .byte   PATT
  .word Label_0_0134AC4E
@ 054   ----------------------------------------
 .byte   W48
 .byte   W48
@ 055   ----------------------------------------
 .byte   EOT
 .byte   Gs0 ,v044
@ 056   ----------------------------------------
 .byte   PATT
  .word Label_0_0134AC4E
@ 057   ----------------------------------------
 .byte   W48
 .byte   W48
@ 058   ----------------------------------------
 .byte   W48
 .byte   W48
@ 059   ----------------------------------------
 .byte   W48
 .byte   W48
@ 060   ----------------------------------------
 .byte   W48
 .byte   EOT
 .byte   Gs0 ,v044
 .byte   N96 ,Cs1 ,v100
 .byte   N96 ,Cs2
 .byte   W48
@ 061   ----------------------------------------
 .byte   W48
 .byte   Cn1
 .byte   N96 ,Cn2
 .byte   W48
@ 062   ----------------------------------------
 .byte   W48
 .byte   N48 ,Bn0
 .byte   N48 ,Bn1
 .byte   W48
@ 063   ----------------------------------------
 .byte   An0
 .byte   N48 ,An1
 .byte   W48
 .byte   N96 ,Gs0
 .byte   N96 ,Gs1
 .byte   W48
@ 064   ----------------------------------------
 .byte   W48
 .byte   N48 ,An0
 .byte   N48 ,An1
 .byte   W48
@ 065   ----------------------------------------
 .byte   An0
 .byte   N48 ,An1
 .byte   W48
 .byte   N96 ,En1
 .byte   N96 ,En2
 .byte   W48
@ 066   ----------------------------------------
 .byte   W48
 .byte   Cs1
 .byte   N96 ,Cs2
 .byte   W48
@ 067   ----------------------------------------
 .byte   W48
 .byte   Cn1
 .byte   N96 ,Cn2
 .byte   W48
@ 068   ----------------------------------------
 .byte   W48
 .byte   N48 ,Bn0
 .byte   N48 ,Bn1
 .byte   W48
@ 069   ----------------------------------------
 .byte   An0
 .byte   N48 ,An1
 .byte   W48
 .byte   N96 ,Gs0
 .byte   N96 ,Gs1
 .byte   W48
@ 070   ----------------------------------------
 .byte   W48
 .byte   N48 ,An0
 .byte   N48 ,An1
 .byte   W48
@ 071   ----------------------------------------
 .byte   An0
 .byte   N48 ,An1
 .byte   W48
 .byte   N96 ,En1
 .byte   N96 ,En2
 .byte   W48
@ 072   ----------------------------------------
 .byte   W48
 .byte   Cs1
 .byte   N96 ,Cs2
 .byte   W48
@ 073   ----------------------------------------
 .byte   W48
 .byte   Cn1
 .byte   N96 ,Cn2
 .byte   W48
@ 074   ----------------------------------------
 .byte   W48
 .byte   N48 ,Bn0
 .byte   N48 ,Bn1
 .byte   W48
@ 075   ----------------------------------------
 .byte   An0
 .byte   N48 ,An1
 .byte   W48
 .byte   N96 ,Gs0
 .byte   N96 ,Gs1
 .byte   W48
@ 076   ----------------------------------------
 .byte   W48
 .byte   N48 ,An0
 .byte   N48 ,An1
 .byte   W48
@ 077   ----------------------------------------
 .byte   An0
 .byte   N48 ,An1
 .byte   W48
 .byte   N96 ,En1
 .byte   N96 ,En2
 .byte   W48
@ 078   ----------------------------------------
 .byte   W48
 .byte   Cs1
 .byte   N96 ,Cs2
 .byte   W48
@ 079   ----------------------------------------
 .byte   W48
 .byte   Cn1
 .byte   N96 ,Cn2
 .byte   W48
@ 080   ----------------------------------------
 .byte   W48
 .byte   N48 ,Bn0
 .byte   N48 ,Bn1
 .byte   W48
@ 081   ----------------------------------------
 .byte   An0
 .byte   N48 ,An1
 .byte   W48
 .byte   N96 ,Gs0
 .byte   N96 ,Gs1
 .byte   W48
@ 082   ----------------------------------------
 .byte   W48
 .byte   N48 ,An0
 .byte   N48 ,An1
 .byte   W48
@ 083   ----------------------------------------
 .byte   An0
 .byte   N48 ,An1
 .byte   W48
 .byte   N96 ,En1
 .byte   N96 ,En2
 .byte   W48
@ 084   ----------------------------------------
 .byte   W48
 .byte   TIE ,Gs0 ,v072
 .byte   TIE ,Gs1
 .byte   W48
@ 085   ----------------------------------------
 .byte   W48
 .byte   W48
@ 086   ----------------------------------------
 .byte   W48
 .byte   W48
@ 087   ----------------------------------------
 .byte   W48
 .byte   W48
@ 088   ----------------------------------------
 .byte   W48
 .byte   W48
@ 089   ----------------------------------------
 .byte   W48
 .byte   W48
@ 090   ----------------------------------------
 .byte   W48
 .byte   W48
@ 091   ----------------------------------------
 .byte   EOT
 .byte   Gs0 ,v044
 .byte   N48 ,An0
 .byte   N48 ,An1
 .byte   W48
 .byte   TIE ,En0
 .byte   TIE ,En1
 .byte   W48
@ 092   ----------------------------------------
 .byte   W48
 .byte   W48
@ 093   ----------------------------------------
 .byte   W48
 .byte   W48
@ 094   ----------------------------------------
 .byte   W48
 .byte   EOT
 .byte   En0 ,v040
 .byte   N96 ,Cs1 ,v100
 .byte   N96 ,Cs2
 .byte   W48
@ 095   ----------------------------------------
 .byte   W48
 .byte   Cn1
 .byte   N96 ,Cn2
 .byte   W48
@ 096   ----------------------------------------
 .byte   W48
 .byte   N48 ,Bn0
 .byte   N48 ,Bn1
 .byte   W48
@ 097   ----------------------------------------
 .byte   An0
 .byte   N48 ,An1
 .byte   W48
 .byte   N96 ,Gs0
 .byte   N96 ,Gs1
 .byte   W48
@ 098   ----------------------------------------
 .byte   W48
 .byte   N48 ,An0
 .byte   N48 ,An1
 .byte   W48
@ 099   ----------------------------------------
 .byte   An0
 .byte   N48 ,An1
 .byte   W48
 .byte   N96 ,En1
 .byte   N96 ,En2
 .byte   W48
@ 100   ----------------------------------------
 .byte   W48
Label_0_0134AE31:
 .byte   N96 ,Cs1 ,v100
 .byte   N96 ,Cs2
 .byte   W48
@ 101   ----------------------------------------
 .byte   W48
 .byte   Cn1
 .byte   N96 ,Cn2
 .byte   W48
@ 102   ----------------------------------------
 .byte   W48
 .byte   N48 ,Bn0
 .byte   N48 ,Bn1
 .byte   W48
@ 103   ----------------------------------------
 .byte   An0
 .byte   N48 ,An1
 .byte   W48
 .byte   N96 ,Gs0
 .byte   N96 ,Gs1
 .byte   W48
@ 104   ----------------------------------------
 .byte   W48
 .byte   N48 ,An0
 .byte   N48 ,An1
 .byte   W48
@ 105   ----------------------------------------
 .byte   An0
 .byte   N48 ,An1
 .byte   W48
 .byte   N96 ,En1
 .byte   N96 ,En2
 .byte   W48
@ 106   ----------------------------------------
 .byte   W48
 .byte   Cs1
 .byte   N96 ,Cs2
 .byte   W48
@ 107   ----------------------------------------
 .byte   W48
 .byte   Cn1
 .byte   N96 ,Cn2
 .byte   W48
@ 108   ----------------------------------------
 .byte   W48
 .byte   N48 ,Bn0
 .byte   N48 ,Bn1
 .byte   W48
@ 109   ----------------------------------------
 .byte   An0
 .byte   N48 ,An1
 .byte   W48
 .byte   N96 ,Gs0
 .byte   N96 ,Gs1
 .byte   W48
@ 110   ----------------------------------------
 .byte   W48
 .byte   N48 ,An0
 .byte   N48 ,An1
 .byte   W48
@ 111   ----------------------------------------
 .byte   An0
 .byte   N48 ,An1
 .byte   W48
 .byte   N96 ,En1
 .byte   N96 ,En2
 .byte   W48
@ 112   ----------------------------------------
 .byte   W48
 .byte   GOTO
  .word Label_0_0134AE31
 .byte   FINE

@**************** Track 2 (Midi-Chn.1) ****************@

Ameno_002:
@ 000   ----------------------------------------
 .byte   VOL , 70*Ameno_mvl/mxv
 .byte   KEYSH , Ameno_key+0
 .byte   VOICE , 52
 .byte   PAN , c_v+31
 .byte   W48
 .byte   W48
@ 001   ----------------------------------------
Label_1_01ACC32A:
 .byte   N12 ,Fs2 ,v100
 .byte   N12 ,As2 ,v127
 .byte   W12
 .byte   Gs2 ,v100
 .byte   N12 ,Bn2 ,v127
 .byte   W12
 .byte   N24 ,Gs2 ,v100
 .byte   N24 ,Bn2 ,v127
 .byte   W24
 .byte   PEND 
 .byte   W48
@ 002   ----------------------------------------
Label_1_01ACC340:
 .byte   N12 ,Fs2 ,v100
 .byte   N12 ,As2 ,v127
 .byte   W12
 .byte   Gs2 ,v100
 .byte   N12 ,Bn2 ,v127
 .byte   W12
 .byte   Gs2 ,v100
 .byte   N12 ,Bn2 ,v127
 .byte   W12
 .byte   Gs2 ,v100
 .byte   N12 ,Bn2 ,v127
 .byte   W12
 .byte   PEND 
@ 003   ----------------------------------------
 .byte   PATT
  .word Label_1_01ACC340
@ 004   ----------------------------------------
 .byte   PATT
  .word Label_1_01ACC32A
@ 005   ----------------------------------------
 .byte   W48
Label_1_01ACC365:
 .byte   N12 ,As2 ,v100
 .byte   N12 ,Cs3 ,v127
 .byte   W12
 .byte   Gs2 ,v100
 .byte   N12 ,Bn2 ,v127
 .byte   W12
 .byte   N24 ,Gs2 ,v100
 .byte   N24 ,Bn2 ,v127
 .byte   W24
 .byte   PEND 
@ 006   ----------------------------------------
 .byte   PATT
  .word Label_1_01ACC365
@ 007   ----------------------------------------
Label_1_01ACC37F:
 .byte   N12 ,Gs2 ,v100
 .byte   N12 ,Bn2 ,v127
 .byte   W12
 .byte   Fs2 ,v100
 .byte   N12 ,As2 ,v127
 .byte   W12
 .byte   N24 ,Fs2 ,v100
 .byte   N24 ,As2 ,v127
 .byte   W24
 .byte   PEND 
 .byte   W48
@ 008   ----------------------------------------
 .byte   PATT
  .word Label_1_01ACC37F
@ 009   ----------------------------------------
Label_1_01ACC39A:
 .byte   N24 ,Fs2 ,v100
 .byte   N24 ,As2 ,v127
 .byte   W48
 .byte   PEND 
@ 010   ----------------------------------------
 .byte   PATT
  .word Label_1_01ACC32A
@ 011   ----------------------------------------
 .byte   W48
 .byte   W48
@ 012   ----------------------------------------
 .byte   W48
Label_1_01ACC3AA:
 .byte   N12 ,Fs2 ,v100
 .byte   N12 ,As2
 .byte   N12 ,Cs3 ,v127
 .byte   W12
 .byte   Gs2 ,v100
 .byte   N12 ,Bn2
 .byte   N12 ,Ds3 ,v127
 .byte   W12
 .byte   N24 ,Gs2 ,v100
 .byte   N24 ,Bn2
 .byte   N24 ,Ds3 ,v127
 .byte   W24
 .byte   PEND 
@ 013   ----------------------------------------
 .byte   W48
Label_1_01ACC3C6:
 .byte   N12 ,Fs2 ,v100
 .byte   N12 ,As2
 .byte   N12 ,Cs3 ,v127
 .byte   W12
 .byte   Gs2 ,v100
 .byte   N12 ,Bn2
 .byte   N12 ,Ds3 ,v127
 .byte   W12
 .byte   Gs2 ,v100
 .byte   N12 ,Bn2
 .byte   N12 ,Ds3 ,v127
 .byte   W12
 .byte   Gs2 ,v100
 .byte   N12 ,Bn2
 .byte   N12 ,Ds3 ,v127
 .byte   W12
 .byte   PEND 
@ 014   ----------------------------------------
 .byte   PATT
  .word Label_1_01ACC3C6
@ 015   ----------------------------------------
 .byte   PATT
  .word Label_1_01ACC3AA
@ 016   ----------------------------------------
 .byte   W48
@ 017   ----------------------------------------
 .byte   PATT
  .word Label_1_01ACC365
@ 018   ----------------------------------------
 .byte   PATT
  .word Label_1_01ACC365
@ 019   ----------------------------------------
 .byte   PATT
  .word Label_1_01ACC37F
@ 020   ----------------------------------------
 .byte   W48
@ 021   ----------------------------------------
 .byte   PATT
  .word Label_1_01ACC37F
@ 022   ----------------------------------------
 .byte   PATT
  .word Label_1_01ACC39A
@ 023   ----------------------------------------
 .byte   PATT
  .word Label_1_01ACC32A
@ 024   ----------------------------------------
 .byte   W48
 .byte   W48
@ 025   ----------------------------------------
Label_1_01ACC414:
 .byte   N12 ,Cs3 ,v127
 .byte   W12
 .byte   Ds3
 .byte   W12
 .byte   N12
 .byte   W12
 .byte   N12
 .byte   W12
 .byte   PEND 
@ 026   ----------------------------------------
 .byte   PATT
  .word Label_1_01ACC414
@ 027   ----------------------------------------
Label_1_01ACC424:
 .byte   N12 ,Ds3 ,v127
 .byte   W12
 .byte   En3
 .byte   W12
 .byte   N12
 .byte   W12
 .byte   N12
 .byte   W12
 .byte   PEND 
Label_1_01ACC42F:
 .byte   W12
 .byte   N12 ,Gs3 ,v127
 .byte   W12
 .byte   Ds3
 .byte   W12
 .byte   En3
 .byte   W12
 .byte   PEND 
@ 028   ----------------------------------------
 .byte   PATT
  .word Label_1_01ACC414
@ 029   ----------------------------------------
 .byte   PATT
  .word Label_1_01ACC414
@ 030   ----------------------------------------
 .byte   PATT
  .word Label_1_01ACC424
@ 031   ----------------------------------------
Label_1_01ACC448:
 .byte   W12
 .byte   N12 ,Gs2 ,v127
 .byte   W12
 .byte   Ds2
 .byte   W12
 .byte   En2
 .byte   W12
 .byte   PEND 
 .byte   W48
@ 032   ----------------------------------------
 .byte   PATT
  .word Label_1_01ACC448
@ 033   ----------------------------------------
Label_1_01ACC458:
 .byte   N24 ,Gs2 ,v127
 .byte   W24
 .byte   N24
 .byte   W24
 .byte   PEND 
 .byte   W48
@ 034   ----------------------------------------
Label_1_01ACC460:
 .byte   W12
 .byte   N12 ,Fs2 ,v127
 .byte   W12
 .byte   N12
 .byte   W12
 .byte   N12
 .byte   W12
 .byte   PEND 
Label_1_01ACC46A:
 .byte   N24 ,En2 ,v127
 .byte   W24
 .byte   Gs2
 .byte   W24
 .byte   PEND 
@ 035   ----------------------------------------
 .byte   N24
 .byte   W48
 .byte   W48
@ 036   ----------------------------------------
 .byte   PATT
  .word Label_1_01ACC460
@ 037   ----------------------------------------
Label_1_01ACC479:
 .byte   N24 ,En2 ,v127
 .byte   W24
 .byte   Bn2
 .byte   W24
 .byte   PEND 
 .byte   N24
 .byte   W48
@ 038   ----------------------------------------
 .byte   PATT
  .word Label_1_01ACC448
@ 039   ----------------------------------------
 .byte   N24 ,Gs2 ,v127
 .byte   W48
@ 040   ----------------------------------------
 .byte   PATT
  .word Label_1_01ACC448
@ 041   ----------------------------------------
 .byte   PATT
  .word Label_1_01ACC458
@ 042   ----------------------------------------
 .byte   W48
@ 043   ----------------------------------------
 .byte   PATT
  .word Label_1_01ACC460
@ 044   ----------------------------------------
 .byte   PATT
  .word Label_1_01ACC46A
@ 045   ----------------------------------------
 .byte   N24 ,Gs2 ,v127
 .byte   W48
 .byte   W48
@ 046   ----------------------------------------
 .byte   PATT
  .word Label_1_01ACC460
@ 047   ----------------------------------------
 .byte   PATT
  .word Label_1_01ACC479
@ 048   ----------------------------------------
 .byte   N24 ,Bn2 ,v127
 .byte   W48
Label_1_01ACC4B3:
 .byte   N12 ,An2 ,v127
 .byte   W12
 .byte   Gs2
 .byte   W12
 .byte   Fs2
 .byte   W12
 .byte   En2
 .byte   W12
 .byte   PEND 
@ 049   ----------------------------------------
 .byte   W48
 .byte   W48
@ 050   ----------------------------------------
 .byte   W48
 .byte   W48
@ 051   ----------------------------------------
 .byte   W48
 .byte   W48
@ 052   ----------------------------------------
 .byte   W48
 .byte   W48
@ 053   ----------------------------------------
 .byte   W48
 .byte   W48
@ 054   ----------------------------------------
 .byte   PATT
  .word Label_1_01ACC3AA
@ 055   ----------------------------------------
 .byte   W48
@ 056   ----------------------------------------
 .byte   PATT
  .word Label_1_01ACC3C6
@ 057   ----------------------------------------
 .byte   PATT
  .word Label_1_01ACC3C6
@ 058   ----------------------------------------
 .byte   PATT
  .word Label_1_01ACC3AA
@ 059   ----------------------------------------
 .byte   W48
@ 060   ----------------------------------------
 .byte   PATT
  .word Label_1_01ACC365
@ 061   ----------------------------------------
 .byte   PATT
  .word Label_1_01ACC365
@ 062   ----------------------------------------
 .byte   PATT
  .word Label_1_01ACC37F
@ 063   ----------------------------------------
 .byte   W48
@ 064   ----------------------------------------
 .byte   PATT
  .word Label_1_01ACC37F
@ 065   ----------------------------------------
 .byte   PATT
  .word Label_1_01ACC39A
@ 066   ----------------------------------------
 .byte   PATT
  .word Label_1_01ACC32A
@ 067   ----------------------------------------
 .byte   W48
 .byte   W48
@ 068   ----------------------------------------
 .byte   PATT
  .word Label_1_01ACC414
@ 069   ----------------------------------------
 .byte   PATT
  .word Label_1_01ACC414
@ 070   ----------------------------------------
 .byte   PATT
  .word Label_1_01ACC424
@ 071   ----------------------------------------
 .byte   PATT
  .word Label_1_01ACC42F
@ 072   ----------------------------------------
 .byte   PATT
  .word Label_1_01ACC414
@ 073   ----------------------------------------
 .byte   PATT
  .word Label_1_01ACC414
@ 074   ----------------------------------------
 .byte   PATT
  .word Label_1_01ACC424
@ 075   ----------------------------------------
 .byte   PATT
  .word Label_1_01ACC448
@ 076   ----------------------------------------
 .byte   W48
@ 077   ----------------------------------------
 .byte   PATT
  .word Label_1_01ACC448
@ 078   ----------------------------------------
 .byte   PATT
  .word Label_1_01ACC458
@ 079   ----------------------------------------
 .byte   W48
@ 080   ----------------------------------------
 .byte   PATT
  .word Label_1_01ACC460
@ 081   ----------------------------------------
 .byte   PATT
  .word Label_1_01ACC46A
@ 082   ----------------------------------------
 .byte   N24 ,Gs2 ,v127
 .byte   W48
 .byte   W48
@ 083   ----------------------------------------
 .byte   PATT
  .word Label_1_01ACC460
@ 084   ----------------------------------------
 .byte   PATT
  .word Label_1_01ACC479
@ 085   ----------------------------------------
 .byte   N24 ,Bn2 ,v127
 .byte   W48
@ 086   ----------------------------------------
 .byte   PATT
  .word Label_1_01ACC448
@ 087   ----------------------------------------
 .byte   N24 ,Gs2 ,v127
 .byte   W48
@ 088   ----------------------------------------
 .byte   PATT
  .word Label_1_01ACC448
@ 089   ----------------------------------------
 .byte   PATT
  .word Label_1_01ACC458
@ 090   ----------------------------------------
 .byte   W48
@ 091   ----------------------------------------
 .byte   PATT
  .word Label_1_01ACC460
@ 092   ----------------------------------------
 .byte   PATT
  .word Label_1_01ACC46A
@ 093   ----------------------------------------
 .byte   N24 ,Gs2 ,v127
 .byte   W48
 .byte   W48
@ 094   ----------------------------------------
 .byte   PATT
  .word Label_1_01ACC460
@ 095   ----------------------------------------
 .byte   PATT
  .word Label_1_01ACC479
@ 096   ----------------------------------------
 .byte   N24 ,Bn2 ,v127
 .byte   W48
@ 097   ----------------------------------------
 .byte   PATT
  .word Label_1_01ACC4B3
@ 098   ----------------------------------------
 .byte   W48
 .byte   W48
@ 099   ----------------------------------------
 .byte   W48
 .byte   W48
@ 100   ----------------------------------------
 .byte   W48
 .byte   W48
@ 101   ----------------------------------------
 .byte   W48
 .byte   W48
@ 102   ----------------------------------------
 .byte   W48
 .byte   W48
@ 103   ----------------------------------------
 .byte   W48
 .byte   W48
@ 104   ----------------------------------------
 .byte   W48
 .byte   W48
@ 105   ----------------------------------------
 .byte   W48
 .byte   W48
@ 106   ----------------------------------------
 .byte   PATT
  .word Label_1_01ACC460
@ 107   ----------------------------------------
 .byte   PATT
  .word Label_1_01ACC46A
@ 108   ----------------------------------------
 .byte   N24 ,Gs2 ,v127
 .byte   W48
 .byte   W48
@ 109   ----------------------------------------
 .byte   PATT
  .word Label_1_01ACC460
@ 110   ----------------------------------------
 .byte   PATT
  .word Label_1_01ACC479
@ 111   ----------------------------------------
 .byte   N24 ,Bn2 ,v127
 .byte   W48
@ 112   ----------------------------------------
 .byte   PATT
  .word Label_1_01ACC4B3
@ 113   ----------------------------------------
 .byte   N12 ,An2 ,v100
 .byte   W12
 .byte   Gs2
 .byte   W12
 .byte   Fs2
 .byte   W12
 .byte   En2
 .byte   W12
 .byte   An2 ,v080
 .byte   W12
 .byte   Gs2
 .byte   W12
 .byte   Fs2
 .byte   W12
 .byte   En2
 .byte   W12
@ 114   ----------------------------------------
 .byte   An2 ,v072
 .byte   W12
 .byte   Gs2
 .byte   W12
 .byte   Fs2
 .byte   W12
 .byte   En2
 .byte   W12
 .byte   An2 ,v060
 .byte   W12
 .byte   Gs2
 .byte   W12
 .byte   Fs2
 .byte   W12
 .byte   En2
 .byte   W12
@ 115   ----------------------------------------
 .byte   An2 ,v040
 .byte   W12
 .byte   Gs2
 .byte   W12
 .byte   Fs2
 .byte   W12
 .byte   En2
 .byte   W12
 .byte   An2 ,v020
 .byte   W12
 .byte   Gs2
 .byte   W12
 .byte   Fs2
 .byte   W12
 .byte   En2
 .byte   W12
@ 116   ----------------------------------------
 .byte   W48
@ 117   ----------------------------------------
 .byte   PATT
  .word Label_1_01ACC448
@ 118   ----------------------------------------
 .byte   W48
@ 119   ----------------------------------------
 .byte   PATT
  .word Label_1_01ACC448
@ 120   ----------------------------------------
 .byte   PATT
  .word Label_1_01ACC458
@ 121   ----------------------------------------
 .byte   W48
@ 122   ----------------------------------------
 .byte   PATT
  .word Label_1_01ACC460
@ 123   ----------------------------------------
 .byte   PATT
  .word Label_1_01ACC46A
@ 124   ----------------------------------------
 .byte   N24 ,Gs2 ,v127
 .byte   W48
 .byte   W48
@ 125   ----------------------------------------
 .byte   PATT
  .word Label_1_01ACC460
@ 126   ----------------------------------------
 .byte   PATT
  .word Label_1_01ACC479
@ 127   ----------------------------------------
 .byte   N24 ,Bn2 ,v127
 .byte   W48
@ 128   ----------------------------------------
 .byte   PATT
  .word Label_1_01ACC448
@ 129   ----------------------------------------
 .byte   N24 ,Gs2 ,v127
 .byte   W48
@ 130   ----------------------------------------
 .byte   PATT
  .word Label_1_01ACC448
@ 131   ----------------------------------------
 .byte   PATT
  .word Label_1_01ACC458
@ 132   ----------------------------------------
 .byte   W48
@ 133   ----------------------------------------
 .byte   PATT
  .word Label_1_01ACC460
@ 134   ----------------------------------------
 .byte   PATT
  .word Label_1_01ACC46A
@ 135   ----------------------------------------
 .byte   N24 ,Gs2 ,v127
 .byte   W48
 .byte   W48
@ 136   ----------------------------------------
 .byte   PATT
  .word Label_1_01ACC460
@ 137   ----------------------------------------
 .byte   PATT
  .word Label_1_01ACC479
@ 138   ----------------------------------------
 .byte   N24 ,Bn2 ,v127
 .byte   W48
@ 139   ----------------------------------------
 .byte   PATT
  .word Label_1_01ACC4B3
@ 140   ----------------------------------------
Label_1_01ACC654:
 .byte   N24 ,Gs2 ,v127
 .byte   W48
@ 141   ----------------------------------------
 .byte   PATT
  .word Label_1_01ACC448
@ 142   ----------------------------------------
 .byte   PATT
  .word Label_1_01ACC458
@ 143   ----------------------------------------
 .byte   W48
@ 144   ----------------------------------------
 .byte   PATT
  .word Label_1_01ACC460
@ 145   ----------------------------------------
 .byte   PATT
  .word Label_1_01ACC46A
@ 146   ----------------------------------------
 .byte   N24 ,Gs2 ,v127
 .byte   W48
 .byte   W48
@ 147   ----------------------------------------
 .byte   PATT
  .word Label_1_01ACC460
@ 148   ----------------------------------------
 .byte   PATT
  .word Label_1_01ACC479
@ 149   ----------------------------------------
 .byte   N24 ,Bn2 ,v127
 .byte   W48
@ 150   ----------------------------------------
 .byte   PATT
  .word Label_1_01ACC448
@ 151   ----------------------------------------
 .byte   N24 ,Gs2 ,v127
 .byte   W48
@ 152   ----------------------------------------
 .byte   PATT
  .word Label_1_01ACC448
@ 153   ----------------------------------------
 .byte   PATT
  .word Label_1_01ACC458
@ 154   ----------------------------------------
 .byte   W48
@ 155   ----------------------------------------
 .byte   PATT
  .word Label_1_01ACC460
@ 156   ----------------------------------------
 .byte   PATT
  .word Label_1_01ACC46A
@ 157   ----------------------------------------
 .byte   N24 ,Gs2 ,v127
 .byte   W48
 .byte   W48
@ 158   ----------------------------------------
 .byte   PATT
  .word Label_1_01ACC460
@ 159   ----------------------------------------
 .byte   PATT
  .word Label_1_01ACC479
@ 160   ----------------------------------------
 .byte   N24 ,Bn2 ,v127
 .byte   W48
@ 161   ----------------------------------------
 .byte   PATT
  .word Label_1_01ACC4B3
@ 162   ----------------------------------------
 .byte   GOTO
  .word Label_1_01ACC654
 .byte   FINE

@**************** Track 3 (Midi-Chn.2) ****************@

Ameno_003:
@ 000   ----------------------------------------
 .byte   KEYSH , Ameno_key+0
 .byte   VOICE , 52
 .byte   VOL , 38*Ameno_mvl/mxv
 .byte   PAN , c_v-32
 .byte   W48
 .byte   W48
@ 001   ----------------------------------------
 .byte   W48
 .byte   W48
@ 002   ----------------------------------------
 .byte   W48
 .byte   W48
@ 003   ----------------------------------------
 .byte   W48
 .byte   W48
@ 004   ----------------------------------------
 .byte   W48
 .byte   W48
@ 005   ----------------------------------------
 .byte   W48
 .byte   W48
@ 006   ----------------------------------------
 .byte   W48
 .byte   W48
@ 007   ----------------------------------------
 .byte   W48
 .byte   W48
@ 008   ----------------------------------------
 .byte   W48
 .byte   W48
@ 009   ----------------------------------------
Label_2_01ACC6D6:
 .byte   N12 ,Fs3 ,v100
 .byte   N12 ,As3
 .byte   N12 ,Cs4 ,v127
 .byte   W12
 .byte   Gs3 ,v100
 .byte   N12 ,Bn3
 .byte   N12 ,Ds4 ,v127
 .byte   W12
 .byte   N24 ,Gs3 ,v100
 .byte   N24 ,Bn3
 .byte   N24 ,Ds4 ,v127
 .byte   W24
 .byte   PEND 
 .byte   W48
@ 010   ----------------------------------------
Label_2_01ACC6F2:
 .byte   N12 ,Fs3 ,v100
 .byte   N12 ,As3
 .byte   N12 ,Cs4 ,v127
 .byte   W12
 .byte   Gs3 ,v100
 .byte   N12 ,Bn3
 .byte   N12 ,Ds4 ,v127
 .byte   W12
 .byte   Gs3 ,v100
 .byte   N12 ,Bn3
 .byte   N12 ,Ds4 ,v127
 .byte   W12
 .byte   Gs3 ,v100
 .byte   N12 ,Bn3
 .byte   N12 ,Ds4 ,v127
 .byte   W12
 .byte   PEND 
@ 011   ----------------------------------------
 .byte   PATT
  .word Label_2_01ACC6F2
@ 012   ----------------------------------------
 .byte   PATT
  .word Label_2_01ACC6D6
@ 013   ----------------------------------------
 .byte   W48
Label_2_01ACC71F:
 .byte   N12 ,As3 ,v100
 .byte   N12 ,Cs4 ,v127
 .byte   W12
 .byte   Gs3 ,v100
 .byte   N12 ,Bn3 ,v127
 .byte   W12
 .byte   N24 ,Gs3 ,v100
 .byte   N24 ,Bn3 ,v127
 .byte   W24
 .byte   PEND 
@ 014   ----------------------------------------
 .byte   PATT
  .word Label_2_01ACC71F
@ 015   ----------------------------------------
Label_2_01ACC739:
 .byte   N12 ,Gs3 ,v100
 .byte   N12 ,Bn3 ,v127
 .byte   W12
 .byte   Fs3 ,v100
 .byte   N12 ,As3 ,v127
 .byte   W12
 .byte   N24 ,Fs3 ,v100
 .byte   N24 ,As3 ,v127
 .byte   W24
 .byte   PEND 
 .byte   W48
@ 016   ----------------------------------------
 .byte   PATT
  .word Label_2_01ACC739
@ 017   ----------------------------------------
Label_2_01ACC754:
 .byte   N24 ,Fs3 ,v100
 .byte   N24 ,As3 ,v127
 .byte   W48
 .byte   PEND 
Label_2_01ACC75C:
 .byte   N12 ,Fs3 ,v100
 .byte   N12 ,As3 ,v127
 .byte   W12
 .byte   Gs3 ,v100
 .byte   N12 ,Bn3 ,v127
 .byte   W12
 .byte   N24 ,Gs3 ,v100
 .byte   N24 ,Bn3 ,v127
 .byte   W24
 .byte   PEND 
@ 018   ----------------------------------------
 .byte   W48
 .byte   W48
@ 019   ----------------------------------------
 .byte   W48
 .byte   W48
@ 020   ----------------------------------------
 .byte   W48
 .byte   W48
@ 021   ----------------------------------------
 .byte   W48
 .byte   W48
@ 022   ----------------------------------------
 .byte   W48
Label_2_01ACC77A:
 .byte   W12
 .byte   N12 ,Gs3 ,v127
 .byte   W12
 .byte   Ds3
 .byte   W12
 .byte   En3
 .byte   W12
 .byte   PEND 
@ 023   ----------------------------------------
 .byte   W48
@ 024   ----------------------------------------
 .byte   PATT
  .word Label_2_01ACC77A
@ 025   ----------------------------------------
Label_2_01ACC78A:
 .byte   N24 ,Gs3 ,v127
 .byte   W24
 .byte   N24
 .byte   W24
 .byte   PEND 
 .byte   W48
@ 026   ----------------------------------------
Label_2_01ACC792:
 .byte   W12
 .byte   N12 ,Fs3 ,v127
 .byte   W12
 .byte   N12
 .byte   W12
 .byte   N12
 .byte   W12
 .byte   PEND 
 .byte   N24 ,En3
 .byte   W24
 .byte   Gs3
 .byte   W24
@ 027   ----------------------------------------
 .byte   N24
 .byte   W48
 .byte   W48
@ 028   ----------------------------------------
 .byte   PATT
  .word Label_2_01ACC792
@ 029   ----------------------------------------
 .byte   N24 ,En3 ,v127
 .byte   W24
 .byte   Bn3
 .byte   W24
 .byte   N24
 .byte   W48
@ 030   ----------------------------------------
 .byte   PATT
  .word Label_2_01ACC77A
@ 031   ----------------------------------------
 .byte   N24 ,Gs3 ,v127
 .byte   W48
@ 032   ----------------------------------------
 .byte   PATT
  .word Label_2_01ACC77A
@ 033   ----------------------------------------
 .byte   PATT
  .word Label_2_01ACC78A
@ 034   ----------------------------------------
 .byte   W48
@ 035   ----------------------------------------
 .byte   PATT
  .word Label_2_01ACC792
@ 036   ----------------------------------------
 .byte   N24 ,En3 ,v127
 .byte   W24
 .byte   Gs3
 .byte   W24
 .byte   N24
 .byte   W48
@ 037   ----------------------------------------
 .byte   W48
@ 038   ----------------------------------------
 .byte   PATT
  .word Label_2_01ACC792
@ 039   ----------------------------------------
 .byte   N24 ,En3 ,v127
 .byte   W24
 .byte   Bn3
 .byte   W24
 .byte   N24
 .byte   W48
@ 040   ----------------------------------------
Label_2_01ACC7E0:
 .byte   N12 ,An3 ,v127
 .byte   W12
 .byte   Gs3
 .byte   W12
 .byte   Fs3
 .byte   W12
 .byte   En3
 .byte   W12
 .byte   PEND 
 .byte   W48
@ 041   ----------------------------------------
 .byte   W48
 .byte   W48
@ 042   ----------------------------------------
 .byte   W48
 .byte   W48
@ 043   ----------------------------------------
 .byte   W48
 .byte   W48
@ 044   ----------------------------------------
 .byte   W48
 .byte   W48
@ 045   ----------------------------------------
 .byte   W48
@ 046   ----------------------------------------
 .byte   PATT
  .word Label_2_01ACC6D6
@ 047   ----------------------------------------
 .byte   W48
@ 048   ----------------------------------------
 .byte   PATT
  .word Label_2_01ACC6F2
@ 049   ----------------------------------------
 .byte   PATT
  .word Label_2_01ACC6F2
@ 050   ----------------------------------------
 .byte   PATT
  .word Label_2_01ACC6D6
@ 051   ----------------------------------------
 .byte   W48
@ 052   ----------------------------------------
 .byte   PATT
  .word Label_2_01ACC71F
@ 053   ----------------------------------------
 .byte   PATT
  .word Label_2_01ACC71F
@ 054   ----------------------------------------
 .byte   PATT
  .word Label_2_01ACC739
@ 055   ----------------------------------------
 .byte   W48
@ 056   ----------------------------------------
 .byte   PATT
  .word Label_2_01ACC739
@ 057   ----------------------------------------
 .byte   PATT
  .word Label_2_01ACC754
@ 058   ----------------------------------------
 .byte   PATT
  .word Label_2_01ACC75C
@ 059   ----------------------------------------
 .byte   W48
 .byte   W48
@ 060   ----------------------------------------
 .byte   W48
 .byte   W48
@ 061   ----------------------------------------
 .byte   W48
 .byte   W48
@ 062   ----------------------------------------
 .byte   W48
 .byte   W48
@ 063   ----------------------------------------
 .byte   W48
@ 064   ----------------------------------------
 .byte   PATT
  .word Label_2_01ACC77A
@ 065   ----------------------------------------
 .byte   W48
@ 066   ----------------------------------------
 .byte   PATT
  .word Label_2_01ACC77A
@ 067   ----------------------------------------
 .byte   PATT
  .word Label_2_01ACC78A
@ 068   ----------------------------------------
 .byte   W48
@ 069   ----------------------------------------
 .byte   PATT
  .word Label_2_01ACC792
@ 070   ----------------------------------------
 .byte   N24 ,En3 ,v127
 .byte   W24
 .byte   Gs3
 .byte   W24
 .byte   N24
 .byte   W48
@ 071   ----------------------------------------
 .byte   W48
@ 072   ----------------------------------------
 .byte   PATT
  .word Label_2_01ACC792
@ 073   ----------------------------------------
 .byte   N24 ,En3 ,v127
 .byte   W24
 .byte   Bn3
 .byte   W24
 .byte   N24
 .byte   W48
@ 074   ----------------------------------------
 .byte   PATT
  .word Label_2_01ACC77A
@ 075   ----------------------------------------
 .byte   N24 ,Gs3 ,v127
 .byte   W48
@ 076   ----------------------------------------
 .byte   PATT
  .word Label_2_01ACC77A
@ 077   ----------------------------------------
 .byte   PATT
  .word Label_2_01ACC78A
@ 078   ----------------------------------------
 .byte   W48
@ 079   ----------------------------------------
 .byte   PATT
  .word Label_2_01ACC792
@ 080   ----------------------------------------
 .byte   N24 ,En3 ,v127
 .byte   W24
 .byte   Gs3
 .byte   W24
 .byte   N24
 .byte   W48
@ 081   ----------------------------------------
 .byte   W48
@ 082   ----------------------------------------
 .byte   PATT
  .word Label_2_01ACC792
@ 083   ----------------------------------------
 .byte   N24 ,En3 ,v127
 .byte   W24
 .byte   Bn3
 .byte   W24
 .byte   N24
 .byte   W48
@ 084   ----------------------------------------
 .byte   PATT
  .word Label_2_01ACC7E0
@ 085   ----------------------------------------
 .byte   W48
 .byte   W48
@ 086   ----------------------------------------
 .byte   W48
 .byte   W48
@ 087   ----------------------------------------
 .byte   W48
 .byte   W48
@ 088   ----------------------------------------
 .byte   W48
 .byte   W48
@ 089   ----------------------------------------
 .byte   W48
 .byte   W48
@ 090   ----------------------------------------
 .byte   W48
 .byte   W48
@ 091   ----------------------------------------
 .byte   W48
 .byte   W48
@ 092   ----------------------------------------
 .byte   W48
 .byte   W48
@ 093   ----------------------------------------
 .byte   PATT
  .word Label_2_01ACC792
@ 094   ----------------------------------------
 .byte   N24 ,En3 ,v127
 .byte   W24
 .byte   Gs3
 .byte   W24
 .byte   N24
 .byte   W48
@ 095   ----------------------------------------
 .byte   W48
@ 096   ----------------------------------------
 .byte   PATT
  .word Label_2_01ACC792
@ 097   ----------------------------------------
 .byte   N24 ,En3 ,v127
 .byte   W24
 .byte   Bn3
 .byte   W24
 .byte   N24
 .byte   W48
@ 098   ----------------------------------------
 .byte   PATT
  .word Label_2_01ACC7E0
@ 099   ----------------------------------------
 .byte   N12 ,An3 ,v100
 .byte   W12
 .byte   Gs3
 .byte   W12
 .byte   Fs3
 .byte   W12
 .byte   En3
 .byte   W12
 .byte   An3 ,v080
 .byte   W12
 .byte   Gs3
 .byte   W12
 .byte   Fs3
 .byte   W12
 .byte   En3
 .byte   W12
@ 100   ----------------------------------------
 .byte   An3 ,v072
 .byte   W12
 .byte   Gs3
 .byte   W12
 .byte   Fs3
 .byte   W12
 .byte   En3
 .byte   W12
 .byte   An3 ,v060
 .byte   W12
 .byte   Gs3
 .byte   W12
 .byte   Fs3
 .byte   W12
 .byte   En3
 .byte   W12
@ 101   ----------------------------------------
 .byte   An3 ,v040
 .byte   W12
 .byte   Gs3
 .byte   W12
 .byte   Fs3
 .byte   W12
 .byte   En3
 .byte   W12
 .byte   An3 ,v020
 .byte   W12
 .byte   Gs3
 .byte   W12
 .byte   Fs3
 .byte   W12
 .byte   En3
 .byte   W12
@ 102   ----------------------------------------
 .byte   W48
@ 103   ----------------------------------------
 .byte   PATT
  .word Label_2_01ACC77A
@ 104   ----------------------------------------
 .byte   W48
@ 105   ----------------------------------------
 .byte   PATT
  .word Label_2_01ACC77A
@ 106   ----------------------------------------
 .byte   PATT
  .word Label_2_01ACC78A
@ 107   ----------------------------------------
 .byte   W48
@ 108   ----------------------------------------
 .byte   PATT
  .word Label_2_01ACC792
@ 109   ----------------------------------------
 .byte   N24 ,En3 ,v127
 .byte   W24
 .byte   Gs3
 .byte   W24
 .byte   N24
 .byte   W48
@ 110   ----------------------------------------
 .byte   W48
@ 111   ----------------------------------------
 .byte   PATT
  .word Label_2_01ACC792
@ 112   ----------------------------------------
 .byte   N24 ,En3 ,v127
 .byte   W24
 .byte   Bn3
 .byte   W24
 .byte   N24
 .byte   W48
@ 113   ----------------------------------------
 .byte   PATT
  .word Label_2_01ACC77A
@ 114   ----------------------------------------
 .byte   N24 ,Gs3 ,v127
 .byte   W48
@ 115   ----------------------------------------
 .byte   PATT
  .word Label_2_01ACC77A
@ 116   ----------------------------------------
 .byte   PATT
  .word Label_2_01ACC78A
@ 117   ----------------------------------------
 .byte   W48
@ 118   ----------------------------------------
 .byte   PATT
  .word Label_2_01ACC792
@ 119   ----------------------------------------
 .byte   N24 ,En3 ,v127
 .byte   W24
 .byte   Gs3
 .byte   W24
 .byte   N24
 .byte   W48
@ 120   ----------------------------------------
 .byte   W48
@ 121   ----------------------------------------
 .byte   PATT
  .word Label_2_01ACC792
@ 122   ----------------------------------------
 .byte   N24 ,En3 ,v127
 .byte   W24
 .byte   Bn3
 .byte   W24
 .byte   N24
 .byte   W48
@ 123   ----------------------------------------
 .byte   PATT
  .word Label_2_01ACC7E0
@ 124   ----------------------------------------
Label_2_01ACC95B:
 .byte   N24 ,Gs3 ,v127
 .byte   W48
@ 125   ----------------------------------------
 .byte   PATT
  .word Label_2_01ACC77A
@ 126   ----------------------------------------
 .byte   PATT
  .word Label_2_01ACC78A
@ 127   ----------------------------------------
 .byte   W48
@ 128   ----------------------------------------
 .byte   PATT
  .word Label_2_01ACC792
@ 129   ----------------------------------------
 .byte   N24 ,En3 ,v127
 .byte   W24
 .byte   Gs3
 .byte   W24
 .byte   N24
 .byte   W48
@ 130   ----------------------------------------
 .byte   W48
@ 131   ----------------------------------------
 .byte   PATT
  .word Label_2_01ACC792
@ 132   ----------------------------------------
 .byte   N24 ,En3 ,v127
 .byte   W24
 .byte   Bn3
 .byte   W24
 .byte   N24
 .byte   W48
@ 133   ----------------------------------------
 .byte   PATT
  .word Label_2_01ACC77A
@ 134   ----------------------------------------
 .byte   N24 ,Gs3 ,v127
 .byte   W48
@ 135   ----------------------------------------
 .byte   PATT
  .word Label_2_01ACC77A
@ 136   ----------------------------------------
 .byte   PATT
  .word Label_2_01ACC78A
@ 137   ----------------------------------------
 .byte   W48
@ 138   ----------------------------------------
 .byte   PATT
  .word Label_2_01ACC792
@ 139   ----------------------------------------
 .byte   N24 ,En3 ,v127
 .byte   W24
 .byte   Gs3
 .byte   W24
 .byte   N24
 .byte   W48
@ 140   ----------------------------------------
 .byte   W48
@ 141   ----------------------------------------
 .byte   PATT
  .word Label_2_01ACC792
@ 142   ----------------------------------------
 .byte   N24 ,En3 ,v127
 .byte   W24
 .byte   Bn3
 .byte   W24
 .byte   N24
 .byte   W48
@ 143   ----------------------------------------
 .byte   PATT
  .word Label_2_01ACC7E0
@ 144   ----------------------------------------
 .byte   GOTO
  .word Label_2_01ACC95B
 .byte   FINE

@**************** Track 4 (Midi-Chn.3) ****************@

Ameno_004:
@ 000   ----------------------------------------
 .byte   KEYSH , Ameno_key+0
 .byte   VOICE , 40
 .byte   VOL , 28*Ameno_mvl/mxv
 .byte   PAN , c_v+19
 .byte   W48
 .byte   W48
@ 001   ----------------------------------------
 .byte   W48
 .byte   W48
@ 002   ----------------------------------------
 .byte   W48
 .byte   W48
@ 003   ----------------------------------------
 .byte   W48
 .byte   W48
@ 004   ----------------------------------------
 .byte   W48
 .byte   W48
@ 005   ----------------------------------------
 .byte   W48
 .byte   W48
@ 006   ----------------------------------------
 .byte   W48
 .byte   W48
@ 007   ----------------------------------------
 .byte   W48
 .byte   W48
@ 008   ----------------------------------------
 .byte   W48
 .byte   W48
@ 009   ----------------------------------------
 .byte   W48
 .byte   W48
@ 010   ----------------------------------------
 .byte   W48
 .byte   W48
@ 011   ----------------------------------------
 .byte   W48
 .byte   W48
@ 012   ----------------------------------------
 .byte   W48
 .byte   W48
@ 013   ----------------------------------------
 .byte   W48
 .byte   W48
@ 014   ----------------------------------------
 .byte   W48
 .byte   W48
@ 015   ----------------------------------------
 .byte   W48
 .byte   W48
@ 016   ----------------------------------------
 .byte   W48
 .byte   W48
@ 017   ----------------------------------------
 .byte   W48
 .byte   W48
@ 018   ----------------------------------------
 .byte   W48
 .byte   W48
@ 019   ----------------------------------------
 .byte   W48
 .byte   W48
@ 020   ----------------------------------------
 .byte   W48
Label_3_01ACC9F1:
 .byte   N06 ,Gs2 ,v127
 .byte   N06 ,Cs3
 .byte   N06 ,En3
 .byte   W24
 .byte   Gs2
 .byte   N06 ,Cs3
 .byte   N06 ,En3
 .byte   W24
 .byte   PEND 
@ 021   ----------------------------------------
 .byte   PATT
  .word Label_3_01ACC9F1
@ 022   ----------------------------------------
Label_3_01ACCA05:
 .byte   N06 ,Gs2 ,v127
 .byte   N06 ,Cn3
 .byte   N06 ,Ds3
 .byte   W24
 .byte   Gs2
 .byte   N06 ,Cn3
 .byte   N06 ,Ds3
 .byte   W24
 .byte   PEND 
@ 023   ----------------------------------------
 .byte   PATT
  .word Label_3_01ACCA05
@ 024   ----------------------------------------
Label_3_01ACCA19:
 .byte   N06 ,Fs2 ,v127
 .byte   N06 ,Bn2
 .byte   N06 ,Ds3
 .byte   W24
 .byte   Fs2
 .byte   N06 ,Bn2
 .byte   N06 ,Ds3
 .byte   W24
 .byte   PEND 
Label_3_01ACCA28:
 .byte   N06 ,An2 ,v127
 .byte   N06 ,Cs3
 .byte   N06 ,En3
 .byte   W24
 .byte   An2
 .byte   N06 ,Cs3
 .byte   N06 ,En3
 .byte   W24
 .byte   PEND 
@ 025   ----------------------------------------
Label_3_01ACCA37:
 .byte   N06 ,Gs2 ,v127
 .byte   N06 ,Bn2
 .byte   N06 ,En3
 .byte   W24
 .byte   Gs2
 .byte   N06 ,Bn2
 .byte   N06 ,En3
 .byte   W24
 .byte   PEND 
@ 026   ----------------------------------------
 .byte   PATT
  .word Label_3_01ACCA37
@ 027   ----------------------------------------
 .byte   PATT
  .word Label_3_01ACCA28
@ 028   ----------------------------------------
 .byte   PATT
  .word Label_3_01ACCA28
@ 029   ----------------------------------------
Label_3_01ACCA55:
 .byte   N06 ,Bn2 ,v127
 .byte   N06 ,En3
 .byte   N06 ,Gs3
 .byte   W24
 .byte   Bn2
 .byte   N06 ,En3
 .byte   N06 ,Gs3
 .byte   W24
 .byte   PEND 
Label_3_01ACCA64:
 .byte   N06 ,Bn2 ,v127
 .byte   N06 ,En3
 .byte   N06 ,Gs3
 .byte   W24
 .byte   En2
 .byte   N06 ,Gs2
 .byte   N06 ,Bn2
 .byte   W24
 .byte   PEND 
@ 030   ----------------------------------------
 .byte   PATT
  .word Label_3_01ACC9F1
@ 031   ----------------------------------------
 .byte   PATT
  .word Label_3_01ACC9F1
@ 032   ----------------------------------------
 .byte   PATT
  .word Label_3_01ACCA05
@ 033   ----------------------------------------
 .byte   PATT
  .word Label_3_01ACCA05
@ 034   ----------------------------------------
 .byte   PATT
  .word Label_3_01ACCA19
@ 035   ----------------------------------------
 .byte   PATT
  .word Label_3_01ACCA28
@ 036   ----------------------------------------
 .byte   PATT
  .word Label_3_01ACCA37
@ 037   ----------------------------------------
 .byte   PATT
  .word Label_3_01ACCA37
@ 038   ----------------------------------------
 .byte   PATT
  .word Label_3_01ACCA28
@ 039   ----------------------------------------
 .byte   PATT
  .word Label_3_01ACCA28
@ 040   ----------------------------------------
 .byte   PATT
  .word Label_3_01ACCA55
@ 041   ----------------------------------------
 .byte   PATT
  .word Label_3_01ACCA37
@ 042   ----------------------------------------
 .byte   W48
 .byte   W48
@ 043   ----------------------------------------
 .byte   W48
 .byte   W48
@ 044   ----------------------------------------
 .byte   W48
 .byte   W48
@ 045   ----------------------------------------
 .byte   W48
 .byte   W48
@ 046   ----------------------------------------
 .byte   W48
 .byte   W48
@ 047   ----------------------------------------
 .byte   W48
 .byte   W48
@ 048   ----------------------------------------
 .byte   W48
 .byte   W48
@ 049   ----------------------------------------
 .byte   W48
 .byte   W48
@ 050   ----------------------------------------
 .byte   W48
 .byte   W48
@ 051   ----------------------------------------
 .byte   W48
 .byte   W48
@ 052   ----------------------------------------
 .byte   W48
 .byte   W48
@ 053   ----------------------------------------
 .byte   W48
 .byte   W48
@ 054   ----------------------------------------
 .byte   W48
 .byte   W48
@ 055   ----------------------------------------
 .byte   W48
 .byte   W48
@ 056   ----------------------------------------
 .byte   W48
 .byte   W48
@ 057   ----------------------------------------
 .byte   W48
 .byte   W48
@ 058   ----------------------------------------
 .byte   W48
@ 059   ----------------------------------------
 .byte   PATT
  .word Label_3_01ACC9F1
@ 060   ----------------------------------------
 .byte   PATT
  .word Label_3_01ACC9F1
@ 061   ----------------------------------------
 .byte   PATT
  .word Label_3_01ACCA05
@ 062   ----------------------------------------
 .byte   PATT
  .word Label_3_01ACCA05
@ 063   ----------------------------------------
 .byte   PATT
  .word Label_3_01ACCA19
@ 064   ----------------------------------------
 .byte   PATT
  .word Label_3_01ACCA28
@ 065   ----------------------------------------
 .byte   PATT
  .word Label_3_01ACCA37
@ 066   ----------------------------------------
 .byte   PATT
  .word Label_3_01ACCA37
@ 067   ----------------------------------------
 .byte   PATT
  .word Label_3_01ACCA28
@ 068   ----------------------------------------
 .byte   PATT
  .word Label_3_01ACCA28
@ 069   ----------------------------------------
 .byte   PATT
  .word Label_3_01ACCA55
@ 070   ----------------------------------------
 .byte   PATT
  .word Label_3_01ACCA64
@ 071   ----------------------------------------
 .byte   PATT
  .word Label_3_01ACC9F1
@ 072   ----------------------------------------
 .byte   PATT
  .word Label_3_01ACC9F1
@ 073   ----------------------------------------
 .byte   PATT
  .word Label_3_01ACCA05
@ 074   ----------------------------------------
 .byte   PATT
  .word Label_3_01ACCA05
@ 075   ----------------------------------------
 .byte   PATT
  .word Label_3_01ACCA19
@ 076   ----------------------------------------
 .byte   PATT
  .word Label_3_01ACCA28
@ 077   ----------------------------------------
 .byte   PATT
  .word Label_3_01ACCA37
@ 078   ----------------------------------------
 .byte   PATT
  .word Label_3_01ACCA37
@ 079   ----------------------------------------
 .byte   PATT
  .word Label_3_01ACCA28
@ 080   ----------------------------------------
 .byte   PATT
  .word Label_3_01ACCA28
@ 081   ----------------------------------------
 .byte   PATT
  .word Label_3_01ACCA55
@ 082   ----------------------------------------
 .byte   PATT
  .word Label_3_01ACCA37
@ 083   ----------------------------------------
 .byte   PATT
  .word Label_3_01ACC9F1
@ 084   ----------------------------------------
 .byte   PATT
  .word Label_3_01ACC9F1
@ 085   ----------------------------------------
 .byte   PATT
  .word Label_3_01ACCA05
@ 086   ----------------------------------------
 .byte   PATT
  .word Label_3_01ACCA05
@ 087   ----------------------------------------
 .byte   PATT
  .word Label_3_01ACCA19
@ 088   ----------------------------------------
 .byte   PATT
  .word Label_3_01ACCA28
@ 089   ----------------------------------------
 .byte   PATT
  .word Label_3_01ACCA37
@ 090   ----------------------------------------
 .byte   PATT
  .word Label_3_01ACCA37
@ 091   ----------------------------------------
 .byte   PATT
  .word Label_3_01ACCA28
@ 092   ----------------------------------------
 .byte   PATT
  .word Label_3_01ACCA28
@ 093   ----------------------------------------
 .byte   PATT
  .word Label_3_01ACCA55
@ 094   ----------------------------------------
 .byte   PATT
  .word Label_3_01ACCA64
@ 095   ----------------------------------------
 .byte   PATT
  .word Label_3_01ACC9F1
@ 096   ----------------------------------------
 .byte   PATT
  .word Label_3_01ACC9F1
@ 097   ----------------------------------------
 .byte   PATT
  .word Label_3_01ACCA05
@ 098   ----------------------------------------
 .byte   PATT
  .word Label_3_01ACCA05
@ 099   ----------------------------------------
 .byte   PATT
  .word Label_3_01ACCA19
@ 100   ----------------------------------------
 .byte   PATT
  .word Label_3_01ACCA28
@ 101   ----------------------------------------
 .byte   PATT
  .word Label_3_01ACCA37
@ 102   ----------------------------------------
 .byte   PATT
  .word Label_3_01ACCA37
@ 103   ----------------------------------------
 .byte   PATT
  .word Label_3_01ACCA28
@ 104   ----------------------------------------
 .byte   PATT
  .word Label_3_01ACCA28
@ 105   ----------------------------------------
 .byte   PATT
  .word Label_3_01ACCA55
@ 106   ----------------------------------------
 .byte   PATT
  .word Label_3_01ACCA37
@ 107   ----------------------------------------
Label_3_01ACCBC0:
 .byte   N06 ,Cs3 ,v100
 .byte   N06 ,En3
 .byte   W24
 .byte   Cs3
 .byte   N06 ,En3
 .byte   W24
 .byte   PEND 
@ 108   ----------------------------------------
 .byte   PATT
  .word Label_3_01ACCBC0
@ 109   ----------------------------------------
Label_3_01ACCBD0:
 .byte   N06 ,Cn3 ,v112
 .byte   N06 ,Fs3
 .byte   W24
 .byte   Cn3
 .byte   N06 ,Fs3
 .byte   W24
 .byte   PEND 
@ 110   ----------------------------------------
 .byte   PATT
  .word Label_3_01ACCBD0
@ 111   ----------------------------------------
Label_3_01ACCBE0:
 .byte   N06 ,Fs3 ,v127
 .byte   N06 ,Cn4
 .byte   W24
 .byte   Fs3
 .byte   N06 ,Cn4
 .byte   W24
 .byte   PEND 
@ 112   ----------------------------------------
 .byte   PATT
  .word Label_3_01ACCBE0
@ 113   ----------------------------------------
Label_3_01ACCBF0:
 .byte   N06 ,Gs3 ,v127
 .byte   N06 ,Cn4
 .byte   W24
 .byte   Gs3
 .byte   N06 ,Cn4
 .byte   W24
 .byte   PEND 
@ 114   ----------------------------------------
 .byte   PATT
  .word Label_3_01ACCBF0
@ 115   ----------------------------------------
 .byte   PATT
  .word Label_3_01ACC9F1
@ 116   ----------------------------------------
 .byte   PATT
  .word Label_3_01ACC9F1
@ 117   ----------------------------------------
 .byte   PATT
  .word Label_3_01ACCA05
@ 118   ----------------------------------------
 .byte   PATT
  .word Label_3_01ACCA05
@ 119   ----------------------------------------
 .byte   PATT
  .word Label_3_01ACCA19
@ 120   ----------------------------------------
 .byte   PATT
  .word Label_3_01ACCA28
@ 121   ----------------------------------------
 .byte   PATT
  .word Label_3_01ACCA37
@ 122   ----------------------------------------
 .byte   PATT
  .word Label_3_01ACCA37
@ 123   ----------------------------------------
 .byte   PATT
  .word Label_3_01ACCA28
@ 124   ----------------------------------------
 .byte   PATT
  .word Label_3_01ACCA28
@ 125   ----------------------------------------
 .byte   PATT
  .word Label_3_01ACCA55
@ 126   ----------------------------------------
 .byte   PATT
  .word Label_3_01ACCA64
@ 127   ----------------------------------------
 .byte   PATT
  .word Label_3_01ACC9F1
@ 128   ----------------------------------------
 .byte   PATT
  .word Label_3_01ACC9F1
@ 129   ----------------------------------------
 .byte   PATT
  .word Label_3_01ACCA05
@ 130   ----------------------------------------
 .byte   PATT
  .word Label_3_01ACCA05
@ 131   ----------------------------------------
 .byte   PATT
  .word Label_3_01ACCA19
@ 132   ----------------------------------------
 .byte   PATT
  .word Label_3_01ACCA28
@ 133   ----------------------------------------
 .byte   PATT
  .word Label_3_01ACCA37
@ 134   ----------------------------------------
 .byte   PATT
  .word Label_3_01ACCA37
@ 135   ----------------------------------------
 .byte   PATT
  .word Label_3_01ACCA28
@ 136   ----------------------------------------
 .byte   PATT
  .word Label_3_01ACCA28
@ 137   ----------------------------------------
 .byte   PATT
  .word Label_3_01ACCA55
@ 138   ----------------------------------------
 .byte   PATT
  .word Label_3_01ACCA37
@ 139   ----------------------------------------
Label_3_01ACCC78:
@ 140   ----------------------------------------
 .byte   PATT
  .word Label_3_01ACC9F1
@ 141   ----------------------------------------
 .byte   PATT
  .word Label_3_01ACC9F1
@ 142   ----------------------------------------
 .byte   PATT
  .word Label_3_01ACCA05
@ 143   ----------------------------------------
 .byte   PATT
  .word Label_3_01ACCA05
@ 144   ----------------------------------------
 .byte   PATT
  .word Label_3_01ACCA19
@ 145   ----------------------------------------
 .byte   PATT
  .word Label_3_01ACCA28
@ 146   ----------------------------------------
 .byte   PATT
  .word Label_3_01ACCA37
@ 147   ----------------------------------------
 .byte   PATT
  .word Label_3_01ACCA37
@ 148   ----------------------------------------
 .byte   PATT
  .word Label_3_01ACCA28
@ 149   ----------------------------------------
 .byte   PATT
  .word Label_3_01ACCA28
@ 150   ----------------------------------------
 .byte   PATT
  .word Label_3_01ACCA55
@ 151   ----------------------------------------
 .byte   PATT
  .word Label_3_01ACCA64
@ 152   ----------------------------------------
 .byte   PATT
  .word Label_3_01ACC9F1
@ 153   ----------------------------------------
 .byte   PATT
  .word Label_3_01ACC9F1
@ 154   ----------------------------------------
 .byte   PATT
  .word Label_3_01ACCA05
@ 155   ----------------------------------------
 .byte   PATT
  .word Label_3_01ACCA05
@ 156   ----------------------------------------
 .byte   PATT
  .word Label_3_01ACCA19
@ 157   ----------------------------------------
 .byte   PATT
  .word Label_3_01ACCA28
@ 158   ----------------------------------------
 .byte   PATT
  .word Label_3_01ACCA37
@ 159   ----------------------------------------
 .byte   PATT
  .word Label_3_01ACCA37
@ 160   ----------------------------------------
 .byte   PATT
  .word Label_3_01ACCA28
@ 161   ----------------------------------------
 .byte   PATT
  .word Label_3_01ACCA28
@ 162   ----------------------------------------
 .byte   PATT
  .word Label_3_01ACCA55
@ 163   ----------------------------------------
 .byte   PATT
  .word Label_3_01ACCA64
@ 164   ----------------------------------------
 .byte   GOTO
  .word Label_3_01ACCC78
 .byte   FINE

@**************** Track 5 (Midi-Chn.4) ****************@

Ameno_005:
@ 000   ----------------------------------------
 .byte   KEYSH , Ameno_key+0
 .byte   VOICE , 54
 .byte   VOL , 45*Ameno_mvl/mxv
 .byte   PAN , c_v-19
 .byte   W48
 .byte   W48
@ 001   ----------------------------------------
 .byte   W48
 .byte   W48
@ 002   ----------------------------------------
 .byte   W48
 .byte   W48
@ 003   ----------------------------------------
 .byte   W48
 .byte   W48
@ 004   ----------------------------------------
 .byte   W48
 .byte   W48
@ 005   ----------------------------------------
 .byte   W48
 .byte   W48
@ 006   ----------------------------------------
 .byte   W48
 .byte   W48
@ 007   ----------------------------------------
 .byte   W48
 .byte   W48
@ 008   ----------------------------------------
 .byte   W48
 .byte   W48
@ 009   ----------------------------------------
 .byte   W48
 .byte   W48
@ 010   ----------------------------------------
 .byte   W48
 .byte   W48
@ 011   ----------------------------------------
 .byte   W48
 .byte   W48
@ 012   ----------------------------------------
 .byte   W48
 .byte   W48
@ 013   ----------------------------------------
 .byte   W48
 .byte   W48
@ 014   ----------------------------------------
 .byte   W48
 .byte   W48
@ 015   ----------------------------------------
 .byte   W48
 .byte   W48
@ 016   ----------------------------------------
 .byte   W48
 .byte   W48
@ 017   ----------------------------------------
 .byte   W48
 .byte   W48
@ 018   ----------------------------------------
 .byte   W48
 .byte   W48
@ 019   ----------------------------------------
 .byte   W48
 .byte   W48
@ 020   ----------------------------------------
 .byte   W48
 .byte   W48
@ 021   ----------------------------------------
 .byte   W48
 .byte   W48
@ 022   ----------------------------------------
 .byte   W48
 .byte   W48
@ 023   ----------------------------------------
 .byte   W48
 .byte   W48
@ 024   ----------------------------------------
 .byte   W48
 .byte   W48
@ 025   ----------------------------------------
 .byte   W48
 .byte   W48
@ 026   ----------------------------------------
 .byte   W48
 .byte   W48
@ 027   ----------------------------------------
 .byte   W48
 .byte   W48
@ 028   ----------------------------------------
 .byte   W48
 .byte   W48
@ 029   ----------------------------------------
 .byte   W48
 .byte   W48
@ 030   ----------------------------------------
 .byte   W48
 .byte   W48
@ 031   ----------------------------------------
 .byte   W48
 .byte   W48
@ 032   ----------------------------------------
 .byte   W48
 .byte   W48
@ 033   ----------------------------------------
 .byte   W48
 .byte   W48
@ 034   ----------------------------------------
 .byte   W48
 .byte   W48
@ 035   ----------------------------------------
 .byte   W48
 .byte   W48
@ 036   ----------------------------------------
 .byte   W48
 .byte   W48
@ 037   ----------------------------------------
 .byte   W48
 .byte   W48
@ 038   ----------------------------------------
 .byte   W48
 .byte   W48
@ 039   ----------------------------------------
 .byte   W48
 .byte   W48
@ 040   ----------------------------------------
 .byte   W48
 .byte   W48
@ 041   ----------------------------------------
 .byte   W48
 .byte   W48
@ 042   ----------------------------------------
 .byte   W48
 .byte   W48
@ 043   ----------------------------------------
 .byte   W48
 .byte   W48
@ 044   ----------------------------------------
 .byte   W48
 .byte   W48
@ 045   ----------------------------------------
 .byte   W48
 .byte   W48
@ 046   ----------------------------------------
 .byte   W48
 .byte   W48
@ 047   ----------------------------------------
 .byte   W48
 .byte   W48
@ 048   ----------------------------------------
 .byte   W48
 .byte   W48
@ 049   ----------------------------------------
 .byte   W48
 .byte   W48
@ 050   ----------------------------------------
 .byte   W48
 .byte   W48
@ 051   ----------------------------------------
 .byte   W48
 .byte   W48
@ 052   ----------------------------------------
 .byte   W48
 .byte   W48
@ 053   ----------------------------------------
 .byte   W48
 .byte   W48
@ 054   ----------------------------------------
 .byte   W48
 .byte   W48
@ 055   ----------------------------------------
Label_4_0134AACA:
 .byte   N96 ,Gs2 ,v068
 .byte   N96 ,Cs3
 .byte   N96 ,En3
 .byte   W48
 .byte   PEND 
 .byte   W48
@ 056   ----------------------------------------
Label_4_0134AAD4:
 .byte   N96 ,Gs2 ,v076
 .byte   N96 ,Cn3
 .byte   N96 ,Ds3
 .byte   W48
 .byte   PEND 
 .byte   W48
@ 057   ----------------------------------------
Label_4_0134AADE:
 .byte   N48 ,Fs2 ,v092
 .byte   N48 ,Bn2
 .byte   N48 ,Ds3
 .byte   W48
 .byte   PEND 
Label_4_0134AAE7:
 .byte   N48 ,An2 ,v092
 .byte   N48 ,Cs3
 .byte   N48 ,En3
 .byte   W48
 .byte   PEND 
@ 058   ----------------------------------------
Label_4_0134AAF0:
 .byte   N96 ,Gs2 ,v092
 .byte   N96 ,Bn2
 .byte   N96 ,En3
 .byte   W48
 .byte   PEND 
 .byte   W48
@ 059   ----------------------------------------
Label_4_0134AAFA:
 .byte   N96 ,An2 ,v092
 .byte   N96 ,Cs3
 .byte   N96 ,En3
 .byte   W48
 .byte   PEND 
 .byte   W48
@ 060   ----------------------------------------
Label_4_0134AB04:
 .byte   N96 ,Bn2 ,v100
 .byte   N96 ,En3
 .byte   N96 ,Gs3
 .byte   W48
 .byte   PEND 
 .byte   W48
@ 061   ----------------------------------------
 .byte   W48
 .byte   W48
@ 062   ----------------------------------------
 .byte   W48
 .byte   W48
@ 063   ----------------------------------------
 .byte   W48
 .byte   W48
@ 064   ----------------------------------------
 .byte   W48
 .byte   W48
@ 065   ----------------------------------------
 .byte   W48
 .byte   W48
@ 066   ----------------------------------------
 .byte   W48
 .byte   W48
@ 067   ----------------------------------------
 .byte   PATT
  .word Label_4_0134AACA
@ 068   ----------------------------------------
 .byte   W48
@ 069   ----------------------------------------
 .byte   PATT
  .word Label_4_0134AAD4
@ 070   ----------------------------------------
 .byte   W48
@ 071   ----------------------------------------
 .byte   PATT
  .word Label_4_0134AADE
@ 072   ----------------------------------------
 .byte   PATT
  .word Label_4_0134AAE7
@ 073   ----------------------------------------
 .byte   PATT
  .word Label_4_0134AAF0
@ 074   ----------------------------------------
 .byte   W48
@ 075   ----------------------------------------
 .byte   PATT
  .word Label_4_0134AAFA
@ 076   ----------------------------------------
 .byte   W48
@ 077   ----------------------------------------
 .byte   PATT
  .word Label_4_0134AB04
@ 078   ----------------------------------------
 .byte   W48
 .byte   W48
@ 079   ----------------------------------------
 .byte   W48
 .byte   W48
@ 080   ----------------------------------------
 .byte   W48
 .byte   W48
@ 081   ----------------------------------------
 .byte   W48
 .byte   W48
@ 082   ----------------------------------------
 .byte   W48
 .byte   W48
@ 083   ----------------------------------------
 .byte   W48
 .byte   W48
@ 084   ----------------------------------------
 .byte   W48
 .byte   W48
@ 085   ----------------------------------------
 .byte   W48
 .byte   W48
@ 086   ----------------------------------------
 .byte   W48
 .byte   W48
@ 087   ----------------------------------------
 .byte   W48
 .byte   W48
@ 088   ----------------------------------------
 .byte   W48
@ 089   ----------------------------------------
 .byte   PATT
  .word Label_4_0134AACA
@ 090   ----------------------------------------
 .byte   W48
@ 091   ----------------------------------------
 .byte   PATT
  .word Label_4_0134AAD4
@ 092   ----------------------------------------
 .byte   W48
@ 093   ----------------------------------------
 .byte   PATT
  .word Label_4_0134AADE
@ 094   ----------------------------------------
 .byte   PATT
  .word Label_4_0134AAE7
@ 095   ----------------------------------------
 .byte   PATT
  .word Label_4_0134AAF0
@ 096   ----------------------------------------
 .byte   W48
@ 097   ----------------------------------------
 .byte   PATT
  .word Label_4_0134AAFA
@ 098   ----------------------------------------
 .byte   W48
@ 099   ----------------------------------------
 .byte   PATT
  .word Label_4_0134AB04
@ 100   ----------------------------------------
 .byte   W48
Label_4_0134AB7E:
 .byte   N96 ,Gs2 ,v092
 .byte   N96 ,Cs3
 .byte   N96 ,En3
 .byte   W48
 .byte   PEND 
@ 101   ----------------------------------------
 .byte   W48
Label_4_0134AB88:
 .byte   N96 ,Gs2 ,v092
 .byte   N96 ,Cn3
 .byte   N96 ,Ds3
 .byte   W48
 .byte   PEND 
@ 102   ----------------------------------------
 .byte   W48
@ 103   ----------------------------------------
 .byte   PATT
  .word Label_4_0134AADE
@ 104   ----------------------------------------
 .byte   PATT
  .word Label_4_0134AAE7
@ 105   ----------------------------------------
 .byte   PATT
  .word Label_4_0134AAF0
@ 106   ----------------------------------------
 .byte   W48
@ 107   ----------------------------------------
 .byte   PATT
  .word Label_4_0134AAFA
@ 108   ----------------------------------------
 .byte   W48
@ 109   ----------------------------------------
 .byte   PATT
  .word Label_4_0134AB04
@ 110   ----------------------------------------
 .byte   W48
@ 111   ----------------------------------------
 .byte   PATT
  .word Label_4_0134AB7E
@ 112   ----------------------------------------
 .byte   W48
@ 113   ----------------------------------------
 .byte   PATT
  .word Label_4_0134AB88
@ 114   ----------------------------------------
 .byte   W48
@ 115   ----------------------------------------
 .byte   PATT
  .word Label_4_0134AADE
@ 116   ----------------------------------------
 .byte   PATT
  .word Label_4_0134AAE7
@ 117   ----------------------------------------
 .byte   PATT
  .word Label_4_0134AAF0
@ 118   ----------------------------------------
 .byte   W48
@ 119   ----------------------------------------
 .byte   PATT
  .word Label_4_0134AAFA
@ 120   ----------------------------------------
 .byte   W48
@ 121   ----------------------------------------
 .byte   PATT
  .word Label_4_0134AB04
@ 122   ----------------------------------------
 .byte   W48
 .byte   GOTO
  .word Label_4_0134AB7E
 .byte   FINE

@**************** Track 6 (Midi-Chn.5) ****************@

Ameno_006:
@ 000   ----------------------------------------
 .byte   VOL , 70*Ameno_mvl/mxv
 .byte   KEYSH , Ameno_key+0
 .byte   VOICE , 57
 .byte   W48
 .byte   W48
@ 001   ----------------------------------------
 .byte   W48
 .byte   W48
@ 002   ----------------------------------------
 .byte   W48
 .byte   W48
@ 003   ----------------------------------------
 .byte   W48
 .byte   W48
@ 004   ----------------------------------------
 .byte   W48
 .byte   W48
@ 005   ----------------------------------------
 .byte   W48
 .byte   W48
@ 006   ----------------------------------------
 .byte   W48
 .byte   W48
@ 007   ----------------------------------------
 .byte   W48
 .byte   W48
@ 008   ----------------------------------------
 .byte   W48
 .byte   W48
@ 009   ----------------------------------------
 .byte   W48
 .byte   W48
@ 010   ----------------------------------------
 .byte   W48
 .byte   W48
@ 011   ----------------------------------------
 .byte   W48
 .byte   W48
@ 012   ----------------------------------------
 .byte   W48
 .byte   W48
@ 013   ----------------------------------------
 .byte   W48
 .byte   W48
@ 014   ----------------------------------------
 .byte   W48
 .byte   W48
@ 015   ----------------------------------------
 .byte   W48
 .byte   W48
@ 016   ----------------------------------------
 .byte   W48
 .byte   W48
@ 017   ----------------------------------------
 .byte   W48
 .byte   W48
@ 018   ----------------------------------------
 .byte   W48
 .byte   W48
@ 019   ----------------------------------------
 .byte   W48
 .byte   W48
@ 020   ----------------------------------------
 .byte   W48
 .byte   W48
@ 021   ----------------------------------------
 .byte   W48
 .byte   W48
@ 022   ----------------------------------------
 .byte   W48
 .byte   W48
@ 023   ----------------------------------------
 .byte   W48
 .byte   W48
@ 024   ----------------------------------------
 .byte   W48
 .byte   W48
@ 025   ----------------------------------------
 .byte   W48
 .byte   W48
@ 026   ----------------------------------------
 .byte   W48
 .byte   W48
@ 027   ----------------------------------------
 .byte   W48
 .byte   W48
@ 028   ----------------------------------------
 .byte   W48
 .byte   W48
@ 029   ----------------------------------------
 .byte   W48
 .byte   W48
@ 030   ----------------------------------------
 .byte   W48
 .byte   W48
@ 031   ----------------------------------------
 .byte   W48
 .byte   W48
@ 032   ----------------------------------------
 .byte   W48
 .byte   N24 ,Gs2 ,v100
 .byte   W24
 .byte   N72 ,Bn3
 .byte   W24
@ 033   ----------------------------------------
 .byte   W48
 .byte   N84 ,As3
 .byte   W48
@ 034   ----------------------------------------
 .byte   W36
 .byte   N03 ,Bn2
 .byte   W03
 .byte   Cs3
 .byte   W04
 .byte   N04 ,An2
 .byte   W05
 .byte   N24 ,Bn2
 .byte   W24
 .byte   N72 ,Bn3
 .byte   W24
@ 035   ----------------------------------------
 .byte   W48
 .byte   N24 ,As3
 .byte   W24
 .byte   N60 ,Gs3
 .byte   W24
@ 036   ----------------------------------------
 .byte   W36
 .byte   N12 ,Cs4
 .byte   W12
 .byte   N96 ,Ds4
 .byte   W48
@ 037   ----------------------------------------
 .byte   W48
 .byte   W48
@ 038   ----------------------------------------
 .byte   W48
 .byte   W48
@ 039   ----------------------------------------
 .byte   W48
 .byte   W48
@ 040   ----------------------------------------
 .byte   W48
 .byte   W48
@ 041   ----------------------------------------
 .byte   W48
 .byte   W48
@ 042   ----------------------------------------
 .byte   W48
 .byte   W48
@ 043   ----------------------------------------
 .byte   W48
 .byte   W48
@ 044   ----------------------------------------
 .byte   W48
 .byte   W48
@ 045   ----------------------------------------
 .byte   W48
 .byte   W48
@ 046   ----------------------------------------
 .byte   W48
 .byte   W48
@ 047   ----------------------------------------
 .byte   W48
 .byte   W48
@ 048   ----------------------------------------
 .byte   W48
 .byte   W48
@ 049   ----------------------------------------
 .byte   W48
 .byte   W48
@ 050   ----------------------------------------
 .byte   W48
 .byte   W48
@ 051   ----------------------------------------
 .byte   W48
 .byte   W48
@ 052   ----------------------------------------
 .byte   W48
 .byte   W48
@ 053   ----------------------------------------
 .byte   W48
 .byte   W48
@ 054   ----------------------------------------
 .byte   W48
 .byte   W48
@ 055   ----------------------------------------
 .byte   W48
 .byte   W48
@ 056   ----------------------------------------
 .byte   W48
 .byte   W48
@ 057   ----------------------------------------
 .byte   W48
 .byte   W48
@ 058   ----------------------------------------
 .byte   W48
 .byte   W48
@ 059   ----------------------------------------
 .byte   W48
 .byte   W48
@ 060   ----------------------------------------
 .byte   W48
 .byte   W48
@ 061   ----------------------------------------
 .byte   N60 ,Cs3
 .byte   W48
 .byte   W12
 .byte   N18 ,En3
 .byte   W18
 .byte   An3
 .byte   W18
@ 062   ----------------------------------------
 .byte   N36 ,Gs3
 .byte   W36
 .byte   N06 ,Fs3
 .byte   W06
 .byte   En3
 .byte   W06
 .byte   N42 ,Ds3
 .byte   W42
 .byte   N06 ,En3
 .byte   W06
@ 063   ----------------------------------------
 .byte   N36 ,Fs3
 .byte   W36
 .byte   N12 ,Gs3
 .byte   W12
 .byte   N24 ,An3
 .byte   W24
 .byte   Bn3
 .byte   W24
@ 064   ----------------------------------------
 .byte   N48
 .byte   W48
 .byte   W12
 .byte   N18 ,Ds3
 .byte   W18
 .byte   En3
 .byte   W18
@ 065   ----------------------------------------
 .byte   N60 ,Cs4
 .byte   W48
 .byte   W12
 .byte   N18 ,Ds4
 .byte   W18
 .byte   En4
 .byte   W18
@ 066   ----------------------------------------
 .byte   N36
 .byte   W36
 .byte   N06 ,Ds4
 .byte   W06
 .byte   Bn3
 .byte   W06
 .byte   Gs4
 .byte   W06
 .byte   An4
 .byte   W06
 .byte   Gs4
 .byte   W06
 .byte   En4
 .byte   W06
 .byte   Bn3
 .byte   W06
 .byte   Gs3
 .byte   W06
 .byte   En3
 .byte   W06
 .byte   Bn2
 .byte   W06
@ 067   ----------------------------------------
 .byte   Cs3
 .byte   W06
 .byte   Ds3
 .byte   W06
 .byte   Fs3
 .byte   W06
 .byte   Gs3
 .byte   W06
 .byte   N36 ,Cs4
 .byte   W24
 .byte   W12
 .byte   N30 ,Fs4
 .byte   W30
 .byte   N06 ,En4
 .byte   W06
@ 068   ----------------------------------------
 .byte   N24 ,Ds4
 .byte   W24
 .byte   N03
 .byte   W03
 .byte   Fn4
 .byte   W04
 .byte   N04 ,Gn4
 .byte   W05
 .byte   N03 ,An4
 .byte   W03
 .byte   As4
 .byte   W04
 .byte   N04 ,Bn4
 .byte   W05
 .byte   N36 ,Cn5
 .byte   W36
 .byte   Ds5
 .byte   W12
@ 069   ----------------------------------------
 .byte   W24
 .byte   N03 ,Cs5
 .byte   W03
 .byte   An4
 .byte   W04
 .byte   N04 ,Bn4
 .byte   W05
 .byte   N12 ,Cs5
 .byte   W12
 .byte   N07 ,An4
 .byte   W07
 .byte   N08 ,Bn4
 .byte   W08
 .byte   Cs5
 .byte   W09
 .byte   N07 ,Cs3
 .byte   W07
 .byte   N08
 .byte   W08
 .byte   Ds3
 .byte   W09
@ 070   ----------------------------------------
 .byte   N72 ,En3
 .byte   W48
 .byte   W24
 .byte   N06 ,Bn2
 .byte   W06
 .byte   En3
 .byte   W06
 .byte   Gs3
 .byte   W06
 .byte   Bn3
 .byte   W06
@ 071   ----------------------------------------
 .byte   N12
 .byte   W12
 .byte   N48 ,Cs4
 .byte   W36
 .byte   W12
 .byte   N18 ,En4
 .byte   W18
 .byte   Ds4
 .byte   W18
@ 072   ----------------------------------------
 .byte   N06
 .byte   W06
 .byte   N42 ,Bn3
 .byte   W42
 .byte   N18 ,Bn4
 .byte   W18
 .byte   An4
 .byte   W18
 .byte   N12 ,Gs4
 .byte   W12
@ 073   ----------------------------------------
 .byte   N96
 .byte   W48
 .byte   W48
@ 074   ----------------------------------------
 .byte   W48
 .byte   W48
@ 075   ----------------------------------------
 .byte   W48
 .byte   W48
@ 076   ----------------------------------------
 .byte   W48
 .byte   W48
@ 077   ----------------------------------------
 .byte   W48
 .byte   W48
@ 078   ----------------------------------------
 .byte   W48
 .byte   W48
@ 079   ----------------------------------------
 .byte   W48
 .byte   W48
@ 080   ----------------------------------------
 .byte   W48
 .byte   W48
@ 081   ----------------------------------------
 .byte   W48
 .byte   W48
@ 082   ----------------------------------------
 .byte   W48
 .byte   W48
@ 083   ----------------------------------------
 .byte   W48
 .byte   W48
@ 084   ----------------------------------------
 .byte   W48
 .byte   W48
@ 085   ----------------------------------------
 .byte   W48
 .byte   W48
@ 086   ----------------------------------------
 .byte   W48
 .byte   W48
@ 087   ----------------------------------------
 .byte   W48
 .byte   W48
@ 088   ----------------------------------------
 .byte   W48
 .byte   W48
@ 089   ----------------------------------------
Label_5_0134B0A3:
 .byte   W48
 .byte   W48
@ 090   ----------------------------------------
 .byte   W48
 .byte   W48
@ 091   ----------------------------------------
 .byte   W48
 .byte   W48
@ 092   ----------------------------------------
 .byte   W48
 .byte   W48
@ 093   ----------------------------------------
 .byte   W48
 .byte   W48
@ 094   ----------------------------------------
 .byte   W48
 .byte   W48
@ 095   ----------------------------------------
 .byte   W48
 .byte   W48
@ 096   ----------------------------------------
 .byte   W48
 .byte   W48
@ 097   ----------------------------------------
 .byte   W48
 .byte   W48
@ 098   ----------------------------------------
 .byte   W48
 .byte   W48
@ 099   ----------------------------------------
 .byte   W48
 .byte   W48
@ 100   ----------------------------------------
 .byte   W48
 .byte   W48
@ 101   ----------------------------------------
 .byte   GOTO
  .word Label_5_0134B0A3
 .byte   FINE

@**************** Track 7 (Midi-Chn.6) ****************@

Ameno_007:
@ 000   ----------------------------------------
 .byte   VOL , 70*Ameno_mvl/mxv
 .byte   KEYSH , Ameno_key+0
 .byte   VOICE , 127
 .byte   W48
 .byte   W48
@ 001   ----------------------------------------
 .byte   W48
 .byte   W48
@ 002   ----------------------------------------
 .byte   W48
 .byte   W48
@ 003   ----------------------------------------
 .byte   W48
 .byte   W48
@ 004   ----------------------------------------
 .byte   W48
 .byte   W48
@ 005   ----------------------------------------
 .byte   W48
 .byte   W48
@ 006   ----------------------------------------
 .byte   W48
 .byte   W48
@ 007   ----------------------------------------
 .byte   W48
 .byte   W48
@ 008   ----------------------------------------
 .byte   W48
 .byte   W48
@ 009   ----------------------------------------
 .byte   W48
 .byte   W48
@ 010   ----------------------------------------
 .byte   W48
 .byte   W48
@ 011   ----------------------------------------
 .byte   W48
 .byte   W48
@ 012   ----------------------------------------
 .byte   W48
 .byte   W48
@ 013   ----------------------------------------
 .byte   W48
 .byte   W48
@ 014   ----------------------------------------
 .byte   W48
 .byte   W48
@ 015   ----------------------------------------
 .byte   W48
Label_6_01ACCD1D:
 .byte   N06 ,Fs2 ,v052
 .byte   W06
 .byte   Fs2 ,v032
 .byte   W06
 .byte   N06
 .byte   W06
 .byte   N06
 .byte   W06
 .byte   Fs2 ,v052
 .byte   W06
 .byte   Fs2 ,v032
 .byte   W06
 .byte   N06
 .byte   W06
 .byte   N06
 .byte   W06
 .byte   PEND 
@ 016   ----------------------------------------
Label_6_01ACCD33:
 .byte   N06 ,Fs2 ,v052
 .byte   W06
 .byte   Fs2 ,v032
 .byte   W06
 .byte   N06
 .byte   W03
 .byte   N03 ,Cn1 ,v060
 .byte   W03
 .byte   Cn1 ,v064
 .byte   N06 ,Fs2 ,v032
 .byte   W03
 .byte   N03 ,Cn1 ,v084
 .byte   W03
 .byte   N12 ,Cn1 ,v108
 .byte   N06 ,Fs2 ,v052
 .byte   W06
 .byte   Fs2 ,v032
 .byte   W06
 .byte   N06
 .byte   W06
 .byte   N06
 .byte   W06
 .byte   PEND 
Label_6_01ACCD59:
 .byte   N06 ,Fs2 ,v052
 .byte   W06
 .byte   Fs2 ,v032
 .byte   W06
 .byte   N06
 .byte   W06
 .byte   N06
 .byte   W06
 .byte   N24 ,Cn1 ,v060
 .byte   N06 ,Fs2 ,v052
 .byte   W06
 .byte   Fs2 ,v032
 .byte   W06
 .byte   N06
 .byte   W06
 .byte   N06
 .byte   W06
 .byte   PEND 
@ 017   ----------------------------------------
 .byte   PATT
  .word Label_6_01ACCD1D
@ 018   ----------------------------------------
 .byte   PATT
  .word Label_6_01ACCD59
@ 019   ----------------------------------------
 .byte   PATT
  .word Label_6_01ACCD1D
@ 020   ----------------------------------------
 .byte   PATT
  .word Label_6_01ACCD59
@ 021   ----------------------------------------
 .byte   PATT
  .word Label_6_01ACCD1D
@ 022   ----------------------------------------
 .byte   N06 ,Fs2 ,v052
 .byte   W06
 .byte   Fs2 ,v032
 .byte   W06
 .byte   N06
 .byte   W06
 .byte   N06
 .byte   W06
 .byte   N24 ,Cn1 ,v060
 .byte   N72 ,En2 ,v096
 .byte   N06 ,Fs2 ,v052
 .byte   W06
 .byte   Fs2 ,v032
 .byte   W06
 .byte   N06
 .byte   W06
 .byte   N06
 .byte   W06
@ 023   ----------------------------------------
 .byte   PATT
  .word Label_6_01ACCD1D
@ 024   ----------------------------------------
 .byte   PATT
  .word Label_6_01ACCD1D
@ 025   ----------------------------------------
 .byte   PATT
  .word Label_6_01ACCD1D
@ 026   ----------------------------------------
 .byte   PATT
  .word Label_6_01ACCD1D
@ 027   ----------------------------------------
 .byte   PATT
  .word Label_6_01ACCD1D
@ 028   ----------------------------------------
 .byte   PATT
  .word Label_6_01ACCD1D
@ 029   ----------------------------------------
 .byte   PATT
  .word Label_6_01ACCD1D
@ 030   ----------------------------------------
 .byte   PATT
  .word Label_6_01ACCD1D
@ 031   ----------------------------------------
 .byte   PATT
  .word Label_6_01ACCD1D
@ 032   ----------------------------------------
 .byte   PATT
  .word Label_6_01ACCD1D
@ 033   ----------------------------------------
 .byte   PATT
  .word Label_6_01ACCD1D
@ 034   ----------------------------------------
 .byte   PATT
  .word Label_6_01ACCD1D
@ 035   ----------------------------------------
 .byte   N48 ,En2 ,v084
 .byte   N06 ,Fs2 ,v052
 .byte   W06
 .byte   Fs2 ,v032
 .byte   W06
 .byte   N06
 .byte   W06
 .byte   N06
 .byte   W06
 .byte   Fs2 ,v052
 .byte   W06
 .byte   Fs2 ,v032
 .byte   W06
 .byte   N06
 .byte   W06
 .byte   N06
 .byte   W06
@ 036   ----------------------------------------
 .byte   PATT
  .word Label_6_01ACCD1D
@ 037   ----------------------------------------
 .byte   PATT
  .word Label_6_01ACCD1D
@ 038   ----------------------------------------
 .byte   PATT
  .word Label_6_01ACCD1D
@ 039   ----------------------------------------
 .byte   PATT
  .word Label_6_01ACCD1D
@ 040   ----------------------------------------
 .byte   PATT
  .word Label_6_01ACCD1D
@ 041   ----------------------------------------
 .byte   PATT
  .word Label_6_01ACCD1D
@ 042   ----------------------------------------
 .byte   PATT
  .word Label_6_01ACCD1D
@ 043   ----------------------------------------
 .byte   PATT
  .word Label_6_01ACCD1D
@ 044   ----------------------------------------
 .byte   PATT
  .word Label_6_01ACCD1D
@ 045   ----------------------------------------
 .byte   PATT
  .word Label_6_01ACCD1D
@ 046   ----------------------------------------
 .byte   PATT
  .word Label_6_01ACCD1D
@ 047   ----------------------------------------
 .byte   PATT
  .word Label_6_01ACCD1D
@ 048   ----------------------------------------
 .byte   PATT
  .word Label_6_01ACCD1D
@ 049   ----------------------------------------
Label_6_01ACCE3D:
 .byte   N06 ,Dn2 ,v104
 .byte   N06 ,Fs2 ,v052
 .byte   W06
 .byte   Dn2 ,v104
 .byte   N06 ,Fs2 ,v032
 .byte   W06
 .byte   N06
 .byte   W06
 .byte   Bn1 ,v104
 .byte   N06 ,Fs2 ,v032
 .byte   W06
 .byte   Gn1 ,v104
 .byte   N06 ,Fs2 ,v052
 .byte   W06
 .byte   Fs2 ,v032
 .byte   W06
 .byte   Gn1 ,v104
 .byte   N06 ,Fs2 ,v032
 .byte   W06
 .byte   N06
 .byte   W06
 .byte   PEND 
@ 050   ----------------------------------------
 .byte   PATT
  .word Label_6_01ACCD1D
@ 051   ----------------------------------------
Label_6_01ACCE69:
 .byte   N12 ,Cn1 ,v084
 .byte   N06 ,Fs2 ,v052
 .byte   W06
 .byte   Fs2 ,v032
 .byte   W06
 .byte   N12 ,Cn1 ,v064
 .byte   N06 ,Fs2 ,v032
 .byte   W06
 .byte   N06
 .byte   W06
 .byte   Fs2 ,v052
 .byte   W06
 .byte   Fs2 ,v032
 .byte   W06
 .byte   N06
 .byte   W06
 .byte   N06
 .byte   W06
 .byte   PEND 
@ 052   ----------------------------------------
 .byte   PATT
  .word Label_6_01ACCD1D
@ 053   ----------------------------------------
 .byte   PATT
  .word Label_6_01ACCE3D
@ 054   ----------------------------------------
 .byte   PATT
  .word Label_6_01ACCE3D
@ 055   ----------------------------------------
 .byte   PATT
  .word Label_6_01ACCE69
@ 056   ----------------------------------------
 .byte   W48
 .byte   W48
@ 057   ----------------------------------------
 .byte   PATT
  .word Label_6_01ACCD1D
@ 058   ----------------------------------------
 .byte   PATT
  .word Label_6_01ACCD1D
@ 059   ----------------------------------------
 .byte   PATT
  .word Label_6_01ACCD1D
@ 060   ----------------------------------------
 .byte   PATT
  .word Label_6_01ACCD1D
@ 061   ----------------------------------------
 .byte   PATT
  .word Label_6_01ACCD1D
@ 062   ----------------------------------------
 .byte   PATT
  .word Label_6_01ACCE69
@ 063   ----------------------------------------
 .byte   PATT
  .word Label_6_01ACCD1D
@ 064   ----------------------------------------
 .byte   PATT
  .word Label_6_01ACCD1D
@ 065   ----------------------------------------
 .byte   PATT
  .word Label_6_01ACCD1D
@ 066   ----------------------------------------
 .byte   PATT
  .word Label_6_01ACCE69
@ 067   ----------------------------------------
 .byte   PATT
  .word Label_6_01ACCD1D
@ 068   ----------------------------------------
 .byte   PATT
  .word Label_6_01ACCE69
@ 069   ----------------------------------------
 .byte   PATT
  .word Label_6_01ACCD1D
@ 070   ----------------------------------------
 .byte   PATT
  .word Label_6_01ACCD1D
@ 071   ----------------------------------------
 .byte   PATT
  .word Label_6_01ACCD33
@ 072   ----------------------------------------
 .byte   PATT
  .word Label_6_01ACCD1D
@ 073   ----------------------------------------
 .byte   PATT
  .word Label_6_01ACCD1D
@ 074   ----------------------------------------
 .byte   PATT
  .word Label_6_01ACCD1D
@ 075   ----------------------------------------
 .byte   PATT
  .word Label_6_01ACCD1D
@ 076   ----------------------------------------
 .byte   PATT
  .word Label_6_01ACCD1D
@ 077   ----------------------------------------
 .byte   PATT
  .word Label_6_01ACCD1D
@ 078   ----------------------------------------
Label_6_01ACCF06:
 .byte   N06 ,Fs2 ,v052
 .byte   W06
 .byte   Fs2 ,v032
 .byte   W06
 .byte   N06
 .byte   W06
 .byte   N06
 .byte   W06
 .byte   N72 ,En2 ,v096
 .byte   N06 ,Fs2 ,v052
 .byte   W06
 .byte   Fs2 ,v032
 .byte   W06
 .byte   N06
 .byte   W06
 .byte   N06
 .byte   W06
 .byte   PEND 
@ 079   ----------------------------------------
 .byte   PATT
  .word Label_6_01ACCD1D
@ 080   ----------------------------------------
Label_6_01ACCF25:
 .byte   N06 ,Dn2 ,v104
 .byte   N06 ,Fs2 ,v052
 .byte   N06 ,Cn5 ,v104
 .byte   W06
 .byte   An1
 .byte   N06 ,Fs2 ,v032
 .byte   W06
 .byte   N06
 .byte   W06
 .byte   N06
 .byte   N06 ,Cn5 ,v104
 .byte   W06
 .byte   Fs2 ,v052
 .byte   N24 ,Dn5 ,v104
 .byte   W06
 .byte   N06 ,Fs2 ,v032
 .byte   W06
 .byte   N06
 .byte   N06 ,Cn5 ,v104
 .byte   W06
 .byte   Fs2 ,v032
 .byte   W06
 .byte   PEND 
Label_6_01ACCF4E:
 .byte   N06 ,Fs2 ,v052
 .byte   W06
 .byte   Fs2 ,v032
 .byte   W06
 .byte   N06
 .byte   W06
 .byte   N06
 .byte   W06
 .byte   Fs2 ,v052
 .byte   N24 ,Dn5 ,v104
 .byte   W06
 .byte   N06 ,Fs2 ,v032
 .byte   W06
 .byte   N06
 .byte   W06
 .byte   N06
 .byte   W06
 .byte   PEND 
@ 081   ----------------------------------------
 .byte   PATT
  .word Label_6_01ACCF25
@ 082   ----------------------------------------
 .byte   PATT
  .word Label_6_01ACCF4E
@ 083   ----------------------------------------
Label_6_01ACCF72:
 .byte   N06 ,Dn2 ,v104
 .byte   N06 ,Fs2 ,v052
 .byte   N06 ,Cn5 ,v104
 .byte   W06
 .byte   An1
 .byte   N06 ,Fs2 ,v032
 .byte   W06
 .byte   N06
 .byte   W06
 .byte   N06
 .byte   N06 ,Cn5 ,v104
 .byte   W06
 .byte   Fs2 ,v052
 .byte   N24 ,Dn5 ,v104
 .byte   W06
 .byte   N06 ,Fs2 ,v032
 .byte   W06
 .byte   Dn2 ,v104
 .byte   N06 ,Fs2 ,v032
 .byte   N06 ,Cn5 ,v104
 .byte   W06
 .byte   Fs2 ,v032
 .byte   W06
 .byte   PEND 
Label_6_01ACCF9F:
 .byte   N06 ,An1 ,v104
 .byte   N06 ,Fs2 ,v052
 .byte   W06
 .byte   Fs2 ,v032
 .byte   W06
 .byte   N06
 .byte   W06
 .byte   N06
 .byte   W06
 .byte   Fs2 ,v052
 .byte   N24 ,Dn5 ,v104
 .byte   W06
 .byte   N06 ,Fs2 ,v032
 .byte   W06
 .byte   N06
 .byte   W06
 .byte   N06
 .byte   W06
 .byte   PEND 
@ 084   ----------------------------------------
 .byte   PATT
  .word Label_6_01ACCF25
@ 085   ----------------------------------------
 .byte   PATT
  .word Label_6_01ACCF4E
@ 086   ----------------------------------------
 .byte   PATT
  .word Label_6_01ACCF72
@ 087   ----------------------------------------
 .byte   PATT
  .word Label_6_01ACCF9F
@ 088   ----------------------------------------
 .byte   PATT
  .word Label_6_01ACCF25
@ 089   ----------------------------------------
 .byte   PATT
  .word Label_6_01ACCF4E
@ 090   ----------------------------------------
 .byte   PATT
  .word Label_6_01ACCF25
@ 091   ----------------------------------------
 .byte   PATT
  .word Label_6_01ACCF4E
@ 092   ----------------------------------------
 .byte   PATT
  .word Label_6_01ACCF25
@ 093   ----------------------------------------
 .byte   PATT
  .word Label_6_01ACCF4E
@ 094   ----------------------------------------
 .byte   PATT
  .word Label_6_01ACCF72
@ 095   ----------------------------------------
 .byte   PATT
  .word Label_6_01ACCF9F
@ 096   ----------------------------------------
 .byte   PATT
  .word Label_6_01ACCF25
@ 097   ----------------------------------------
 .byte   PATT
  .word Label_6_01ACCF4E
@ 098   ----------------------------------------
 .byte   PATT
  .word Label_6_01ACCF72
@ 099   ----------------------------------------
 .byte   PATT
  .word Label_6_01ACCF9F
@ 100   ----------------------------------------
 .byte   PATT
  .word Label_6_01ACCF25
@ 101   ----------------------------------------
 .byte   PATT
  .word Label_6_01ACCF4E
@ 102   ----------------------------------------
 .byte   PATT
  .word Label_6_01ACCF25
@ 103   ----------------------------------------
 .byte   PATT
  .word Label_6_01ACCF4E
@ 104   ----------------------------------------
 .byte   PATT
  .word Label_6_01ACCF25
@ 105   ----------------------------------------
 .byte   PATT
  .word Label_6_01ACCF4E
@ 106   ----------------------------------------
 .byte   PATT
  .word Label_6_01ACCF72
@ 107   ----------------------------------------
 .byte   PATT
  .word Label_6_01ACCF9F
@ 108   ----------------------------------------
 .byte   PATT
  .word Label_6_01ACCF25
@ 109   ----------------------------------------
 .byte   PATT
  .word Label_6_01ACCF4E
@ 110   ----------------------------------------
 .byte   PATT
  .word Label_6_01ACCF72
@ 111   ----------------------------------------
 .byte   PATT
  .word Label_6_01ACCF9F
@ 112   ----------------------------------------
 .byte   PATT
  .word Label_6_01ACCF25
@ 113   ----------------------------------------
 .byte   PATT
  .word Label_6_01ACCF4E
@ 114   ----------------------------------------
 .byte   PATT
  .word Label_6_01ACCF25
@ 115   ----------------------------------------
 .byte   PATT
  .word Label_6_01ACCF4E
@ 116   ----------------------------------------
 .byte   PATT
  .word Label_6_01ACCF25
@ 117   ----------------------------------------
 .byte   PATT
  .word Label_6_01ACCF4E
@ 118   ----------------------------------------
 .byte   PATT
  .word Label_6_01ACCF72
@ 119   ----------------------------------------
 .byte   PATT
  .word Label_6_01ACCF9F
@ 120   ----------------------------------------
 .byte   PATT
  .word Label_6_01ACCF25
@ 121   ----------------------------------------
 .byte   PATT
  .word Label_6_01ACCF4E
@ 122   ----------------------------------------
 .byte   PATT
  .word Label_6_01ACCF72
@ 123   ----------------------------------------
 .byte   PATT
  .word Label_6_01ACCF9F
@ 124   ----------------------------------------
 .byte   PATT
  .word Label_6_01ACCF25
@ 125   ----------------------------------------
 .byte   N06 ,Fs2 ,v052
 .byte   W06
 .byte   Fs2 ,v032
 .byte   W06
 .byte   N06
 .byte   W06
 .byte   N06
 .byte   W06
 .byte   Fs2 ,v052
 .byte   N24 ,Dn5 ,v104
 .byte   W06
 .byte   N06 ,Fs2 ,v032
 .byte   W06
 .byte   N06
 .byte   W06
 .byte   N06
 .byte   N06 ,Cn5 ,v104
 .byte   W06
Label_6_01ACD0A5:
 .byte   N06 ,Fs2 ,v052
 .byte   N06 ,Cn5 ,v104
 .byte   W06
 .byte   Fs2 ,v032
 .byte   W06
 .byte   N06
 .byte   W06
 .byte   N06
 .byte   W06
 .byte   Fs2 ,v052
 .byte   W06
 .byte   Fs2 ,v032
 .byte   W06
 .byte   N06
 .byte   W06
 .byte   N06
 .byte   W06
 .byte   PEND 
@ 126   ----------------------------------------
Label_6_01ACD0BE:
 .byte   N06 ,Fs2 ,v052
 .byte   W06
 .byte   Fs2 ,v032
 .byte   W06
 .byte   N06
 .byte   W06
 .byte   N06
 .byte   W06
 .byte   Fs2 ,v052
 .byte   W06
 .byte   Fs2 ,v032
 .byte   W06
 .byte   N06
 .byte   W06
 .byte   N06
 .byte   N06 ,Cn5 ,v104
 .byte   W06
 .byte   PEND 
@ 127   ----------------------------------------
 .byte   PATT
  .word Label_6_01ACD0A5
@ 128   ----------------------------------------
 .byte   PATT
  .word Label_6_01ACD0BE
@ 129   ----------------------------------------
 .byte   PATT
  .word Label_6_01ACD0A5
@ 130   ----------------------------------------
 .byte   PATT
  .word Label_6_01ACD0BE
@ 131   ----------------------------------------
 .byte   N06 ,Fs2 ,v052
 .byte   N06 ,Cn5 ,v104
 .byte   W06
 .byte   Fs2 ,v032
 .byte   W06
 .byte   N06
 .byte   W06
 .byte   N06
 .byte   W06
 .byte   Fs2 ,v052
 .byte   W06
 .byte   Dn2 ,v104
 .byte   N06 ,Fs2 ,v032
 .byte   W06
 .byte   N06
 .byte   W06
 .byte   N06
 .byte   W06
 .byte   An1 ,v104
 .byte   N06 ,Fs2 ,v052
 .byte   W06
 .byte   Fs2 ,v032
 .byte   W06
 .byte   N06
 .byte   W06
 .byte   Gn1 ,v104
 .byte   N06 ,Fs2 ,v032
 .byte   W06
 .byte   Fs2 ,v052
 .byte   W06
 .byte   Fs2 ,v032
 .byte   W06
 .byte   N06
 .byte   W06
 .byte   N06
 .byte   W06
@ 132   ----------------------------------------
 .byte   PATT
  .word Label_6_01ACCD1D
@ 133   ----------------------------------------
 .byte   PATT
  .word Label_6_01ACCD1D
@ 134   ----------------------------------------
 .byte   PATT
  .word Label_6_01ACCD1D
@ 135   ----------------------------------------
 .byte   PATT
  .word Label_6_01ACCD1D
@ 136   ----------------------------------------
 .byte   PATT
  .word Label_6_01ACCD1D
@ 137   ----------------------------------------
 .byte   PATT
  .word Label_6_01ACCD1D
@ 138   ----------------------------------------
 .byte   PATT
  .word Label_6_01ACCD1D
@ 139   ----------------------------------------
 .byte   PATT
  .word Label_6_01ACCD1D
@ 140   ----------------------------------------
 .byte   PATT
  .word Label_6_01ACCD1D
@ 141   ----------------------------------------
 .byte   PATT
  .word Label_6_01ACCD1D
@ 142   ----------------------------------------
 .byte   PATT
  .word Label_6_01ACCF06
@ 143   ----------------------------------------
 .byte   PATT
  .word Label_6_01ACCD1D
@ 144   ----------------------------------------
 .byte   PATT
  .word Label_6_01ACCF25
@ 145   ----------------------------------------
 .byte   PATT
  .word Label_6_01ACCF4E
@ 146   ----------------------------------------
 .byte   PATT
  .word Label_6_01ACCF25
@ 147   ----------------------------------------
 .byte   PATT
  .word Label_6_01ACCF4E
@ 148   ----------------------------------------
 .byte   PATT
  .word Label_6_01ACCF72
@ 149   ----------------------------------------
 .byte   PATT
  .word Label_6_01ACCF9F
@ 150   ----------------------------------------
 .byte   PATT
  .word Label_6_01ACCF25
@ 151   ----------------------------------------
 .byte   PATT
  .word Label_6_01ACCF4E
@ 152   ----------------------------------------
 .byte   PATT
  .word Label_6_01ACCF72
@ 153   ----------------------------------------
 .byte   PATT
  .word Label_6_01ACCF9F
@ 154   ----------------------------------------
 .byte   PATT
  .word Label_6_01ACCF25
@ 155   ----------------------------------------
 .byte   PATT
  .word Label_6_01ACCF4E
@ 156   ----------------------------------------
Label_6_01ACD199:
@ 157   ----------------------------------------
 .byte   PATT
  .word Label_6_01ACCF25
@ 158   ----------------------------------------
 .byte   PATT
  .word Label_6_01ACCF4E
@ 159   ----------------------------------------
 .byte   PATT
  .word Label_6_01ACCF25
@ 160   ----------------------------------------
 .byte   PATT
  .word Label_6_01ACCF4E
@ 161   ----------------------------------------
 .byte   PATT
  .word Label_6_01ACCF72
@ 162   ----------------------------------------
 .byte   PATT
  .word Label_6_01ACCF9F
@ 163   ----------------------------------------
 .byte   PATT
  .word Label_6_01ACCF25
@ 164   ----------------------------------------
 .byte   PATT
  .word Label_6_01ACCF4E
@ 165   ----------------------------------------
 .byte   PATT
  .word Label_6_01ACCF72
@ 166   ----------------------------------------
 .byte   PATT
  .word Label_6_01ACCF9F
@ 167   ----------------------------------------
 .byte   PATT
  .word Label_6_01ACCF25
@ 168   ----------------------------------------
 .byte   PATT
  .word Label_6_01ACCF4E
@ 169   ----------------------------------------
 .byte   PATT
  .word Label_6_01ACCF25
@ 170   ----------------------------------------
 .byte   PATT
  .word Label_6_01ACCF4E
@ 171   ----------------------------------------
 .byte   PATT
  .word Label_6_01ACCF25
@ 172   ----------------------------------------
 .byte   PATT
  .word Label_6_01ACCF4E
@ 173   ----------------------------------------
 .byte   PATT
  .word Label_6_01ACCF72
@ 174   ----------------------------------------
 .byte   PATT
  .word Label_6_01ACCF9F
@ 175   ----------------------------------------
 .byte   PATT
  .word Label_6_01ACCF25
@ 176   ----------------------------------------
 .byte   PATT
  .word Label_6_01ACCF4E
@ 177   ----------------------------------------
 .byte   PATT
  .word Label_6_01ACCF72
@ 178   ----------------------------------------
 .byte   PATT
  .word Label_6_01ACCF9F
@ 179   ----------------------------------------
 .byte   PATT
  .word Label_6_01ACCF25
@ 180   ----------------------------------------
 .byte   PATT
  .word Label_6_01ACCF4E
@ 181   ----------------------------------------
 .byte   GOTO
  .word Label_6_01ACD199
 .byte   FINE

@**************** Track 8 (Midi-Chn.7) ****************@

Ameno_008:
@ 000   ----------------------------------------
 .byte   VOL , 70*Ameno_mvl/mxv
 .byte   KEYSH , Ameno_key+0
 .byte   VOICE , 111
 .byte   W48
 .byte   W48
@ 001   ----------------------------------------
 .byte   W48
 .byte   W48
@ 002   ----------------------------------------
 .byte   W48
 .byte   W48
@ 003   ----------------------------------------
 .byte   W48
 .byte   W48
@ 004   ----------------------------------------
 .byte   W48
 .byte   W48
@ 005   ----------------------------------------
 .byte   W48
 .byte   W48
@ 006   ----------------------------------------
 .byte   W48
 .byte   W48
@ 007   ----------------------------------------
 .byte   W48
 .byte   W48
@ 008   ----------------------------------------
 .byte   W48
 .byte   W48
@ 009   ----------------------------------------
 .byte   W48
 .byte   W48
@ 010   ----------------------------------------
 .byte   W48
 .byte   W48
@ 011   ----------------------------------------
 .byte   W48
 .byte   W48
@ 012   ----------------------------------------
 .byte   W48
 .byte   W48
@ 013   ----------------------------------------
 .byte   W48
 .byte   W48
@ 014   ----------------------------------------
 .byte   W48
 .byte   W48
@ 015   ----------------------------------------
 .byte   W48
 .byte   W48
@ 016   ----------------------------------------
 .byte   W48
 .byte   W48
@ 017   ----------------------------------------
 .byte   W48
 .byte   W48
@ 018   ----------------------------------------
 .byte   W48
 .byte   W48
@ 019   ----------------------------------------
 .byte   W48
 .byte   W48
@ 020   ----------------------------------------
 .byte   W48
 .byte   W48
@ 021   ----------------------------------------
 .byte   W48
 .byte   W48
@ 022   ----------------------------------------
 .byte   W48
 .byte   W48
@ 023   ----------------------------------------
 .byte   W48
 .byte   W48
@ 024   ----------------------------------------
 .byte   W48
 .byte   W48
@ 025   ----------------------------------------
 .byte   W48
 .byte   W48
@ 026   ----------------------------------------
 .byte   W48
 .byte   W48
@ 027   ----------------------------------------
 .byte   W48
 .byte   W48
@ 028   ----------------------------------------
 .byte   W48
 .byte   W48
@ 029   ----------------------------------------
 .byte   W48
 .byte   W48
@ 030   ----------------------------------------
 .byte   W48
 .byte   W48
@ 031   ----------------------------------------
 .byte   W48
 .byte   W48
@ 032   ----------------------------------------
 .byte   W48
 .byte   W48
@ 033   ----------------------------------------
 .byte   W48
 .byte   W48
@ 034   ----------------------------------------
 .byte   W48
 .byte   W48
@ 035   ----------------------------------------
 .byte   W48
 .byte   W48
@ 036   ----------------------------------------
 .byte   W48
 .byte   N96 ,Dn2 ,v064
 .byte   W48
@ 037   ----------------------------------------
 .byte   W48
 .byte   W48
@ 038   ----------------------------------------
 .byte   W48
 .byte   W48
@ 039   ----------------------------------------
 .byte   W48
 .byte   W48
@ 040   ----------------------------------------
 .byte   W48
 .byte   W48
@ 041   ----------------------------------------
 .byte   W48
 .byte   W48
@ 042   ----------------------------------------
 .byte   W48
 .byte   W48
@ 043   ----------------------------------------
 .byte   W48
 .byte   W48
@ 044   ----------------------------------------
 .byte   W48
 .byte   W48
@ 045   ----------------------------------------
 .byte   W48
 .byte   W48
@ 046   ----------------------------------------
 .byte   W48
 .byte   W48
@ 047   ----------------------------------------
 .byte   W48
 .byte   W48
@ 048   ----------------------------------------
 .byte   W48
 .byte   W48
@ 049   ----------------------------------------
 .byte   W48
 .byte   W48
@ 050   ----------------------------------------
 .byte   W48
 .byte   W48
@ 051   ----------------------------------------
 .byte   W48
 .byte   W48
@ 052   ----------------------------------------
 .byte   W48
 .byte   W48
@ 053   ----------------------------------------
 .byte   W48
 .byte   W48
@ 054   ----------------------------------------
 .byte   W48
 .byte   W48
@ 055   ----------------------------------------
 .byte   W48
 .byte   W48
@ 056   ----------------------------------------
 .byte   W48
 .byte   W48
@ 057   ----------------------------------------
 .byte   W48
 .byte   W48
@ 058   ----------------------------------------
 .byte   W48
 .byte   W48
@ 059   ----------------------------------------
 .byte   W48
 .byte   W48
@ 060   ----------------------------------------
 .byte   W48
 .byte   W48
@ 061   ----------------------------------------
 .byte   W48
 .byte   W48
@ 062   ----------------------------------------
 .byte   W48
 .byte   W48
@ 063   ----------------------------------------
 .byte   W48
 .byte   W48
@ 064   ----------------------------------------
 .byte   W48
 .byte   W48
@ 065   ----------------------------------------
 .byte   W48
 .byte   W48
@ 066   ----------------------------------------
 .byte   W48
 .byte   W48
@ 067   ----------------------------------------
 .byte   W48
 .byte   W48
@ 068   ----------------------------------------
 .byte   W48
 .byte   W48
@ 069   ----------------------------------------
 .byte   W48
 .byte   W48
@ 070   ----------------------------------------
 .byte   W48
 .byte   W48
@ 071   ----------------------------------------
 .byte   W48
 .byte   W48
@ 072   ----------------------------------------
 .byte   W48
 .byte   W48
@ 073   ----------------------------------------
 .byte   W48
 .byte   W48
@ 074   ----------------------------------------
 .byte   W48
 .byte   W48
@ 075   ----------------------------------------
 .byte   W48
 .byte   W48
@ 076   ----------------------------------------
 .byte   W48
 .byte   W48
@ 077   ----------------------------------------
 .byte   N96
 .byte   W48
 .byte   W48
@ 078   ----------------------------------------
 .byte   W48
 .byte   W48
@ 079   ----------------------------------------
 .byte   W48
 .byte   W48
@ 080   ----------------------------------------
 .byte   W48
 .byte   W48
@ 081   ----------------------------------------
 .byte   W48
 .byte   W48
@ 082   ----------------------------------------
 .byte   W48
 .byte   W48
@ 083   ----------------------------------------
 .byte   W48
 .byte   W48
@ 084   ----------------------------------------
 .byte   W48
 .byte   W48
@ 085   ----------------------------------------
 .byte   W48
 .byte   W48
@ 086   ----------------------------------------
 .byte   W48
 .byte   W48
@ 087   ----------------------------------------
 .byte   W48
 .byte   W48
@ 088   ----------------------------------------
 .byte   W48
 .byte   W48
@ 089   ----------------------------------------
Label_7_0134A954:
 .byte   W48
 .byte   W48
@ 090   ----------------------------------------
 .byte   W48
 .byte   W48
@ 091   ----------------------------------------
 .byte   W48
 .byte   W48
@ 092   ----------------------------------------
 .byte   W48
 .byte   W48
@ 093   ----------------------------------------
 .byte   W48
 .byte   W48
@ 094   ----------------------------------------
 .byte   W48
 .byte   W48
@ 095   ----------------------------------------
 .byte   W48
 .byte   W48
@ 096   ----------------------------------------
 .byte   W48
 .byte   W48
@ 097   ----------------------------------------
 .byte   W48
 .byte   W48
@ 098   ----------------------------------------
 .byte   W48
 .byte   W48
@ 099   ----------------------------------------
 .byte   W48
 .byte   W48
@ 100   ----------------------------------------
 .byte   W48
 .byte   W48
@ 101   ----------------------------------------
 .byte   GOTO
  .word Label_7_0134A954
 .byte   FINE

@******************************************************@
	.align	2

Ameno:
	.byte	8	@ NumTrks
	.byte	0	@ NumBlks
	.byte	Ameno_pri	@ Priority
	.byte	Ameno_rev	@ Reverb.
    
	.word	Ameno_grp
    
	.word	Ameno_001
	.word	Ameno_002
	.word	Ameno_003
	.word	Ameno_004
	.word	Ameno_005
	.word	Ameno_006
	.word	Ameno_007
	.word	Ameno_008

	.end
