	.include "MPlayDef.s"

	.equ	Metamorphosis_grp, voicegroup000
	.equ	Metamorphosis_pri, 0
	.equ	Metamorphosis_rev, 0
	.equ	Metamorphosis_mvl, 127
	.equ	Metamorphosis_key, 0
	.equ	Metamorphosis_tbs, 1
	.equ	Metamorphosis_exg, 0
	.equ	Metamorphosis_cmp, 1

	.section .rodata
	.global	Metamorphosis
	.align	2


@**************** Track 1 (Midi-Chn.0) ****************@

Metamorphosis_001:
@  #01 @000   ----------------------------------------
 .byte   KEYSH , Metamorphosis_key+0
 .byte   TEMPO , 100*Metamorphosis_tbs/2
 .byte   VOICE , 41
 .byte   VOL , 43*Metamorphosis_mvl/mxv
 .byte   N03 ,Fs3 ,v100
 .byte   N03 ,Cn4
 .byte   W04
 .byte   Gn3
 .byte   N03 ,Cs4
 .byte   W04
 .byte   Gs3
 .byte   N03 ,Dn4
 .byte   W04
 .byte   An3
 .byte   N03 ,Ds4
 .byte   W04
 .byte   As3
 .byte   N03 ,En4
 .byte   W04
 .byte   Bn3
 .byte   N03 ,Fn4
 .byte   W04
 .byte   Cn4
 .byte   N03 ,Fs4
 .byte   W04
 .byte   Cs4
 .byte   N03 ,Gn4
 .byte   W04
 .byte   Dn4
 .byte   N03 ,Gs4
 .byte   W04
 .byte   Ds4
 .byte   N03 ,An4
 .byte   W04
 .byte   En4
 .byte   N03 ,As4
 .byte   W04
 .byte   Fn4
 .byte   N03 ,Bn4
 .byte   W04
 .byte   TEMPO , 148*Metamorphosis_tbs/2
 .byte   N44 ,Fs4 ,v080
 .byte   N44 ,Cn5
 .byte   W48
@  #01 @001   ----------------------------------------
 .byte   N08 ,Cn4
 .byte   N08 ,Fs4
 .byte   W08
 .byte   Bn3
 .byte   N08 ,Fn4
 .byte   W08
 .byte   N06 ,As3 ,v100
 .byte   N06 ,En4
 .byte   W08
 .byte   An3
 .byte   N06 ,Ds4
 .byte   W08
 .byte   Gs3
 .byte   N06 ,Dn4
 .byte   W08
 .byte   Gn3
 .byte   N06 ,Cs4
 .byte   W08
Label_01210AC1:
 .byte   N56 ,Fs3 ,v080
 .byte   N56 ,Cn4
 .byte   W96
@  #01 @002   ----------------------------------------
Label_01210AC7:
 .byte   N44 ,Fs4 ,v080
 .byte   N44 ,Cn5
 .byte   W48
 .byte   N08 ,Cn4
 .byte   N08 ,Fs4
 .byte   W08
 .byte   Bn3
 .byte   N08 ,Fn4
 .byte   W08
 .byte   N06 ,As3 ,v100
 .byte   N06 ,En4
 .byte   W08
 .byte   An3
 .byte   N06 ,Ds4
 .byte   W08
 .byte   Gs3
 .byte   N06 ,Dn4
 .byte   W08
 .byte   Gn3
 .byte   N06 ,Cs4
 .byte   W08
 .byte   PEND 
@  #01 @003   ----------------------------------------
 .byte   N56 ,Fs3 ,v080
 .byte   N56 ,Cn4
 .byte   W96
@  #01 @004   ----------------------------------------
 .byte   PATT
  .word Label_01210AC7
@  #01 @005   ----------------------------------------
 .byte   N56 ,Fs3 ,v080
 .byte   N56 ,Cn4
 .byte   W96
@  #01 @006   ----------------------------------------
 .byte   PATT
  .word Label_01210AC7
@  #01 @007   ----------------------------------------
Label_01210AFF:
 .byte   N36 ,Fs3 ,v080
 .byte   N36 ,Cn4
 .byte   W48
 .byte   N22 ,An3
 .byte   N22 ,An4
 .byte   W24
 .byte   Bn3
 .byte   N22 ,Bn4
 .byte   W24
 .byte   PEND 
@  #01 @008   ----------------------------------------
Label_01210B0F:
 .byte   N19 ,Cn4 ,v080
 .byte   N19 ,Cn5
 .byte   W24
 .byte   Ds4
 .byte   N19 ,Ds5
 .byte   W24
 .byte   N92 ,Cn4
 .byte   N92 ,Cn5
 .byte   W48
 .byte   PEND 
@  #01 @009   ----------------------------------------
Label_01210B1F:
 .byte   W48
 .byte   N19 ,Bn3 ,v080
 .byte   N19 ,Bn4
 .byte   W24
 .byte   Cn4
 .byte   N19 ,Cn5
 .byte   W24
 .byte   PEND 
@  #01 @010   ----------------------------------------
Label_01210B2B:
 .byte   N19 ,Dn4 ,v100
 .byte   N19 ,Dn5
 .byte   W24
 .byte   Fn4
 .byte   N19 ,Fn5
 .byte   W24
 .byte   N92 ,Dn4
 .byte   N92 ,Dn5
 .byte   W48
 .byte   PEND 
@  #01 @011   ----------------------------------------
Label_01210B3B:
 .byte   W48
 .byte   N19 ,Cn4 ,v080
 .byte   N19 ,Cn5
 .byte   W24
 .byte   Dn4
 .byte   N19 ,Dn5
 .byte   W24
 .byte   PEND 
@  #01 @012   ----------------------------------------
Label_01210B47:
 .byte   N19 ,Ds4 ,v080
 .byte   N19 ,Ds5
 .byte   W24
 .byte   Fs4
 .byte   N19 ,Fs5
 .byte   W24
 .byte   N11 ,Ds4
 .byte   N11 ,Ds5
 .byte   W48
 .byte   PEND 
@  #01 @013   ----------------------------------------
Label_01210B57:
 .byte   W48
 .byte   N19 ,Dn4 ,v080
 .byte   N19 ,Dn5
 .byte   W24
 .byte   Ds4
 .byte   N19 ,Ds5
 .byte   W24
 .byte   PEND 
@  #01 @014   ----------------------------------------
Label_01210B63:
 .byte   N19 ,Fn4 ,v080
 .byte   N19 ,Fn5
 .byte   W24
 .byte   Gs4
 .byte   N19 ,Gs5
 .byte   W24
 .byte   N11 ,Fn4
 .byte   N11 ,Fn5
 .byte   W48
 .byte   PEND 
@  #01 @015   ----------------------------------------
 .byte   W96
@  #01 @016   ----------------------------------------
Label_01210B74:
 .byte   N08 ,Cn4 ,v080
 .byte   W08
 .byte   Dn4
 .byte   W08
 .byte   Ds4
 .byte   W08
 .byte   Fn4
 .byte   W08
 .byte   Fs4
 .byte   W08
 .byte   Gs4
 .byte   W08
 .byte   An4
 .byte   W08
 .byte   N06 ,Gs4
 .byte   W08
 .byte   N08 ,Fs4 ,v100
 .byte   W08
 .byte   Fn4
 .byte   W08
 .byte   N06 ,Ds4
 .byte   W08
 .byte   Dn4
 .byte   W08
 .byte   PEND 
@  #01 @017   ----------------------------------------
 .byte   PATT
  .word Label_01210B74
@  #01 @018   ----------------------------------------
Label_01210B98:
 .byte   N08 ,Bn3 ,v080
 .byte   W08
 .byte   Cn4
 .byte   W08
 .byte   Dn4
 .byte   W08
 .byte   Ds4
 .byte   W08
 .byte   Fn4
 .byte   W08
 .byte   Gn4
 .byte   W08
 .byte   Gs4
 .byte   W08
 .byte   N06 ,Gn4
 .byte   W08
 .byte   N08 ,Fn4 ,v100
 .byte   W08
 .byte   Ds4
 .byte   W08
 .byte   N06 ,Dn4
 .byte   W08
 .byte   Cn4
 .byte   W08
 .byte   PEND 
@  #01 @019   ----------------------------------------
Label_01210BB7:
 .byte   N08 ,Bn3 ,v080
 .byte   W08
 .byte   Cn4
 .byte   W08
 .byte   Dn4
 .byte   W08
 .byte   Ds4
 .byte   W08
 .byte   Fn4
 .byte   W08
 .byte   Gn4
 .byte   W08
 .byte   Gs4
 .byte   W08
 .byte   N06 ,Gn4
 .byte   W08
 .byte   N08 ,Fn4 ,v100
 .byte   W08
 .byte   Ds4
 .byte   W08
 .byte   N06 ,Dn4
 .byte   W08
 .byte   Bn3
 .byte   W08
 .byte   PEND 
@  #01 @020   ----------------------------------------
 .byte   PATT
  .word Label_01210B74
@  #01 @021   ----------------------------------------
 .byte   PATT
  .word Label_01210B74
@  #01 @022   ----------------------------------------
Label_01210BE0:
 .byte   N06 ,Bn3 ,v080
 .byte   W08
 .byte   Cn4
 .byte   W08
 .byte   Dn4
 .byte   W08
 .byte   Gs3
 .byte   W08
 .byte   An3
 .byte   W08
 .byte   Bn3
 .byte   W08
 .byte   Fn3
 .byte   W08
 .byte   Gn3
 .byte   W08
 .byte   Gs3
 .byte   W08
 .byte   Dn3
 .byte   W08
 .byte   Ds3
 .byte   W08
 .byte   Fn3
 .byte   W08
 .byte   PEND 
@  #01 @023   ----------------------------------------
Label_01210BFB:
 .byte   N06 ,Bn2 ,v080
 .byte   W08
 .byte   Fn3
 .byte   W08
 .byte   Bn2
 .byte   W08
 .byte   N08 ,Dn3
 .byte   W08
 .byte   Gs3
 .byte   W08
 .byte   Fn3
 .byte   W08
 .byte   Dn3
 .byte   W08
 .byte   Fn3
 .byte   W08
 .byte   Gs3
 .byte   W08
 .byte   Bn3
 .byte   W08
 .byte   Dn4
 .byte   W08
 .byte   N06 ,Fn4
 .byte   W08
 .byte   PEND 
@  #01 @024   ----------------------------------------
 .byte   PATT
  .word Label_01210AC7
@  #01 @025   ----------------------------------------
 .byte   GOTO
  .word Label_01210AC1
@  #01 @026   ----------------------------------------
 .byte   N56 ,Fs3 ,v080
 .byte   N56 ,Cn4
 .byte   W96
@  #01 @027   ----------------------------------------
 .byte   PATT
  .word Label_01210AC7
@  #01 @028   ----------------------------------------
 .byte   N56 ,Fs3 ,v080
 .byte   N56 ,Cn4
 .byte   W96
@  #01 @029   ----------------------------------------
 .byte   PATT
  .word Label_01210AC7
@  #01 @030   ----------------------------------------
 .byte   N56 ,Fs3 ,v080
 .byte   N56 ,Cn4
 .byte   W96
@  #01 @031   ----------------------------------------
 .byte   PATT
  .word Label_01210AC7
@  #01 @032   ----------------------------------------
 .byte   PATT
  .word Label_01210AFF
@  #01 @033   ----------------------------------------
 .byte   PATT
  .word Label_01210B0F
@  #01 @034   ----------------------------------------
 .byte   PATT
  .word Label_01210B1F
@  #01 @035   ----------------------------------------
 .byte   PATT
  .word Label_01210B2B
@  #01 @036   ----------------------------------------
 .byte   PATT
  .word Label_01210B3B
@  #01 @037   ----------------------------------------
 .byte   PATT
  .word Label_01210B47
@  #01 @038   ----------------------------------------
 .byte   PATT
  .word Label_01210B57
@  #01 @039   ----------------------------------------
 .byte   PATT
  .word Label_01210B63
@  #01 @040   ----------------------------------------
 .byte   W96
@  #01 @041   ----------------------------------------
 .byte   PATT
  .word Label_01210B74
@  #01 @042   ----------------------------------------
 .byte   PATT
  .word Label_01210B74
@  #01 @043   ----------------------------------------
 .byte   PATT
  .word Label_01210B98
@  #01 @044   ----------------------------------------
 .byte   PATT
  .word Label_01210BB7
@  #01 @045   ----------------------------------------
 .byte   PATT
  .word Label_01210B74
@  #01 @046   ----------------------------------------
 .byte   PATT
  .word Label_01210B74
@  #01 @047   ----------------------------------------
 .byte   PATT
  .word Label_01210BE0
@  #01 @048   ----------------------------------------
 .byte   PATT
  .word Label_01210BFB
@  #01 @049   ----------------------------------------
 .byte   PATT
  .word Label_01210AC7
@  #01 @050   ----------------------------------------
 .byte   N56 ,Fs3 ,v080
 .byte   N56 ,Cn4
 .byte   W96
@  #01 @051   ----------------------------------------
 .byte   PATT
  .word Label_01210AC7
@  #01 @052   ----------------------------------------
 .byte   N56 ,Fs3 ,v080
 .byte   N56 ,Cn4
 .byte   W96
@  #01 @053   ----------------------------------------
 .byte   N44 ,Fs4 ,v108
 .byte   N44 ,Cn5
 .byte   W48
 .byte   N08 ,Cn4 ,v096
 .byte   N08 ,Fs4
 .byte   W08
 .byte   Bn3
 .byte   N08 ,Fn4
 .byte   W08
 .byte   N06 ,As3 ,v092
 .byte   N06 ,En4
 .byte   W08
 .byte   An3 ,v088
 .byte   N06 ,Ds4
 .byte   W08
 .byte   Gs3
 .byte   N06 ,Dn4
 .byte   W08
 .byte   Gn3 ,v084
 .byte   N06 ,Cs4
 .byte   W08
@  #01 @054   ----------------------------------------
 .byte   N56 ,Fs3
 .byte   N56 ,Cn4
 .byte   W96
@  #01 @055   ----------------------------------------
 .byte   N44 ,Fs4 ,v056
 .byte   N44 ,Cn5
 .byte   W48
 .byte   N08 ,Cn4 ,v044
 .byte   N08 ,Fs4
 .byte   W08
 .byte   Bn3 ,v040
 .byte   N08 ,Fn4
 .byte   W08
 .byte   N06 ,As3
 .byte   N06 ,En4
 .byte   W08
 .byte   An3 ,v036
 .byte   N06 ,Ds4
 .byte   W08
 .byte   Gs3
 .byte   N06 ,Dn4
 .byte   W08
 .byte   Gn3 ,v032
 .byte   N06 ,Cs4
 .byte   W08
@  #01 @056   ----------------------------------------
 .byte   N56 ,Fs3 ,v028
 .byte   N56 ,Cn4
 .byte   W92
 .byte   W03
 .byte   FINE

@**************** Track 2 (Midi-Chn.1) ****************@

Metamorphosis_002:
@  #02 @000   ----------------------------------------
 .byte   KEYSH , Metamorphosis_key+0
 .byte   VOICE , 57
 .byte   VOL , 42*Metamorphosis_mvl/mxv
 .byte   W48
Label_01212F17:
 .byte   W48
@  #02 @001   ----------------------------------------
 .byte   N36 ,Fs2 ,v080
 .byte   N36 ,Cn3
 .byte   W48
 .byte   PEND 
Label_01212F1F:
 .byte   W48
@  #02 @002   ----------------------------------------
 .byte   N08 ,Fs2 ,v080
 .byte   N08 ,Cn3
 .byte   W08
 .byte   Gn2
 .byte   N08 ,Cs3
 .byte   W08
 .byte   Gs2
 .byte   N08 ,Dn3
 .byte   W08
 .byte   An2
 .byte   N08 ,Ds3
 .byte   W08
 .byte   As2
 .byte   N08 ,En3
 .byte   W08
 .byte   Bn2
 .byte   N08 ,Fn3
 .byte   W08
 .byte   PEND 
@  #02 @003   ----------------------------------------
 .byte   PATT
  .word Label_01212F17
@  #02 @004   ----------------------------------------
Label_01212F40:
 .byte   W48
 .byte   N06 ,Fs2 ,v100
 .byte   N06 ,Cn3
 .byte   W08
 .byte   Fn2
 .byte   N06 ,Bn2
 .byte   W08
 .byte   En2
 .byte   N06 ,As2
 .byte   W08
 .byte   Ds2
 .byte   N06 ,An2
 .byte   W08
 .byte   Dn2
 .byte   N06 ,Gs2
 .byte   W08
 .byte   Cs2
 .byte   N06 ,Gn2
 .byte   W08
 .byte   PEND 
@  #02 @005   ----------------------------------------
 .byte   PATT
  .word Label_01212F17
@  #02 @006   ----------------------------------------
 .byte   PATT
  .word Label_01212F1F
@  #02 @007   ----------------------------------------
 .byte   PATT
  .word Label_01212F17
@  #02 @008   ----------------------------------------
 .byte   PATT
  .word Label_01212F40
@  #02 @009   ----------------------------------------
 .byte   W96
@  #02 @010   ----------------------------------------
 .byte   W96
@  #02 @011   ----------------------------------------
 .byte   W96
@  #02 @012   ----------------------------------------
 .byte   W96
@  #02 @013   ----------------------------------------
 .byte   W96
@  #02 @014   ----------------------------------------
 .byte   W96
@  #02 @015   ----------------------------------------
 .byte   W96
@  #02 @016   ----------------------------------------
 .byte   W96
@  #02 @017   ----------------------------------------
 .byte   W96
@  #02 @018   ----------------------------------------
 .byte   W96
@  #02 @019   ----------------------------------------
 .byte   W96
@  #02 @020   ----------------------------------------
 .byte   W96
@  #02 @021   ----------------------------------------
 .byte   W96
@  #02 @022   ----------------------------------------
 .byte   W96
@  #02 @023   ----------------------------------------
 .byte   W96
@  #02 @024   ----------------------------------------
 .byte   W96
@  #02 @025   ----------------------------------------
 .byte   PATT
  .word Label_01212F17
@  #02 @026   ----------------------------------------
 .byte   GOTO
  .word Label_01212F1F
@  #02 @027   ----------------------------------------
 .byte   PATT
  .word Label_01212F1F
@  #02 @028   ----------------------------------------
 .byte   PATT
  .word Label_01212F17
@  #02 @029   ----------------------------------------
 .byte   PATT
  .word Label_01212F40
@  #02 @030   ----------------------------------------
 .byte   PATT
  .word Label_01212F17
@  #02 @031   ----------------------------------------
 .byte   PATT
  .word Label_01212F1F
@  #02 @032   ----------------------------------------
 .byte   PATT
  .word Label_01212F17
@  #02 @033   ----------------------------------------
 .byte   PATT
  .word Label_01212F40
@  #02 @034   ----------------------------------------
 .byte   W96
@  #02 @035   ----------------------------------------
 .byte   W96
@  #02 @036   ----------------------------------------
 .byte   W96
@  #02 @037   ----------------------------------------
 .byte   W96
@  #02 @038   ----------------------------------------
 .byte   W96
@  #02 @039   ----------------------------------------
 .byte   W96
@  #02 @040   ----------------------------------------
 .byte   W96
@  #02 @041   ----------------------------------------
 .byte   W96
@  #02 @042   ----------------------------------------
 .byte   W96
@  #02 @043   ----------------------------------------
 .byte   W96
@  #02 @044   ----------------------------------------
 .byte   W96
@  #02 @045   ----------------------------------------
 .byte   W96
@  #02 @046   ----------------------------------------
 .byte   W96
@  #02 @047   ----------------------------------------
 .byte   W96
@  #02 @048   ----------------------------------------
 .byte   W96
@  #02 @049   ----------------------------------------
 .byte   W96
@  #02 @050   ----------------------------------------
 .byte   PATT
  .word Label_01212F17
@  #02 @051   ----------------------------------------
 .byte   PATT
  .word Label_01212F1F
@  #02 @052   ----------------------------------------
 .byte   PATT
  .word Label_01212F17
@  #02 @053   ----------------------------------------
 .byte   PATT
  .word Label_01212F40
@  #02 @054   ----------------------------------------
 .byte   W48
 .byte   N36 ,Fs2 ,v092
 .byte   N36 ,Cn3
 .byte   W48
@  #02 @055   ----------------------------------------
 .byte   W48
 .byte   N08 ,Fs2 ,v068
 .byte   N08 ,Cn3
 .byte   W08
 .byte   Gn2 ,v064
 .byte   N08 ,Cs3
 .byte   W08
 .byte   Gs2
 .byte   N08 ,Dn3
 .byte   W08
 .byte   An2 ,v060
 .byte   N08 ,Ds3
 .byte   W08
 .byte   As2
 .byte   N08 ,En3
 .byte   W08
 .byte   Bn2 ,v056
 .byte   N08 ,Fn3
 .byte   W08
@  #02 @056   ----------------------------------------
 .byte   W48
 .byte   N36 ,Fs2 ,v040
 .byte   N36 ,Cn3
 .byte   W48
@  #02 @057   ----------------------------------------
 .byte   W48
 .byte   N06 ,Fs2 ,v016
 .byte   N06 ,Cn3
 .byte   W08
 .byte   Fn2 ,v012
 .byte   N06 ,Bn2
 .byte   W08
 .byte   En2
 .byte   N06 ,As2
 .byte   W08
 .byte   Ds2 ,v008
 .byte   N06 ,An2
 .byte   W08
 .byte   Dn2
 .byte   N06 ,Gs2
 .byte   W08
 .byte   Cs2 ,v004
 .byte   N06 ,Gn2
 .byte   W07
 .byte   FINE

@**************** Track 3 (Midi-Chn.2) ****************@

Metamorphosis_003:
@  #03 @000   ----------------------------------------
 .byte   KEYSH , Metamorphosis_key+0
 .byte   VOICE , 57
 .byte   VOL , 45*Metamorphosis_mvl/mxv
 .byte   W48
 .byte   W96
@  #03 @001   ----------------------------------------
Label_0121319C:
 .byte   W96
@  #03 @002   ----------------------------------------
 .byte   W96
@  #03 @003   ----------------------------------------
 .byte   W96
@  #03 @004   ----------------------------------------
 .byte   W96
@  #03 @005   ----------------------------------------
 .byte   W96
@  #03 @006   ----------------------------------------
 .byte   W96
@  #03 @007   ----------------------------------------
 .byte   W96
@  #03 @008   ----------------------------------------
Label_012131A3:
 .byte   N76 ,An2 ,v100
 .byte   N76 ,Cn3
 .byte   N76 ,Ds3
 .byte   W96
 .byte   PEND 
@  #03 @009   ----------------------------------------
 .byte   PATT
  .word Label_012131A3
@  #03 @010   ----------------------------------------
Label_012131B1:
 .byte   N76 ,Bn2 ,v100
 .byte   N76 ,Dn3
 .byte   N76 ,Fn3
 .byte   W96
 .byte   PEND 
@  #03 @011   ----------------------------------------
 .byte   PATT
  .word Label_012131B1
@  #03 @012   ----------------------------------------
Label_012131BF:
 .byte   N44 ,An2 ,v080
 .byte   N44 ,Cn3
 .byte   N44 ,Ds3
 .byte   W96
 .byte   PEND 
@  #03 @013   ----------------------------------------
 .byte   W96
@  #03 @014   ----------------------------------------
Label_012131C9:
 .byte   N36 ,Bn2 ,v080
 .byte   N36 ,Dn3
 .byte   N36 ,Fn3
 .byte   W96
 .byte   PEND 
@  #03 @015   ----------------------------------------
Label_012131D2:
 .byte   W48
 .byte   N19 ,An2 ,v080
 .byte   N19 ,Cn3
 .byte   W24
 .byte   Bn2
 .byte   N19 ,Dn3
 .byte   W24
 .byte   PEND 
@  #03 @016   ----------------------------------------
Label_012131DE:
 .byte   N19 ,Cn3 ,v080
 .byte   N19 ,Ds3
 .byte   W24
 .byte   N19
 .byte   N19 ,Fs3
 .byte   W24
 .byte   N84 ,Cn3
 .byte   N84 ,Ds3
 .byte   W48
 .byte   PEND 
@  #03 @017   ----------------------------------------
Label_012131EE:
 .byte   W48
 .byte   N19 ,Bn2 ,v080
 .byte   N19 ,Dn3
 .byte   W24
 .byte   An2
 .byte   N19 ,Cn3
 .byte   W24
 .byte   PEND 
@  #03 @018   ----------------------------------------
Label_012131FA:
 .byte   N36 ,Bn2 ,v080
 .byte   N36 ,Dn3
 .byte   W48
 .byte   N84 ,En2
 .byte   N84 ,Gs2
 .byte   W48
 .byte   PEND 
@  #03 @019   ----------------------------------------
 .byte   PATT
  .word Label_012131D2
@  #03 @020   ----------------------------------------
 .byte   PATT
  .word Label_012131DE
@  #03 @021   ----------------------------------------
 .byte   PATT
  .word Label_012131EE
@  #03 @022   ----------------------------------------
Label_01213215:
 .byte   N44 ,Bn2 ,v080
 .byte   N44 ,Dn3
 .byte   W48
 .byte   N44
 .byte   N44 ,Fn3
 .byte   W48
 .byte   PEND 
@  #03 @023   ----------------------------------------
Label_01213220:
 .byte   N44 ,Fn3 ,v080
 .byte   N44 ,Gs3
 .byte   W48
 .byte   N44
 .byte   N44 ,Bn3
 .byte   W48
 .byte   PEND 
@  #03 @024   ----------------------------------------
 .byte   W96
@  #03 @025   ----------------------------------------
 .byte   GOTO
  .word Label_0121319C
@  #03 @026   ----------------------------------------
 .byte   W96
@  #03 @027   ----------------------------------------
 .byte   W96
@  #03 @028   ----------------------------------------
 .byte   W96
@  #03 @029   ----------------------------------------
 .byte   W96
@  #03 @030   ----------------------------------------
 .byte   W96
@  #03 @031   ----------------------------------------
 .byte   W96
@  #03 @032   ----------------------------------------
 .byte   W96
@  #03 @033   ----------------------------------------
 .byte   PATT
  .word Label_012131A3
@  #03 @034   ----------------------------------------
 .byte   PATT
  .word Label_012131A3
@  #03 @035   ----------------------------------------
 .byte   PATT
  .word Label_012131B1
@  #03 @036   ----------------------------------------
 .byte   PATT
  .word Label_012131B1
@  #03 @037   ----------------------------------------
 .byte   PATT
  .word Label_012131BF
@  #03 @038   ----------------------------------------
 .byte   W96
@  #03 @039   ----------------------------------------
 .byte   PATT
  .word Label_012131C9
@  #03 @040   ----------------------------------------
 .byte   PATT
  .word Label_012131D2
@  #03 @041   ----------------------------------------
 .byte   PATT
  .word Label_012131DE
@  #03 @042   ----------------------------------------
 .byte   PATT
  .word Label_012131EE
@  #03 @043   ----------------------------------------
 .byte   PATT
  .word Label_012131FA
@  #03 @044   ----------------------------------------
 .byte   PATT
  .word Label_012131D2
@  #03 @045   ----------------------------------------
 .byte   PATT
  .word Label_012131DE
@  #03 @046   ----------------------------------------
 .byte   PATT
  .word Label_012131EE
@  #03 @047   ----------------------------------------
 .byte   PATT
  .word Label_01213215
@  #03 @048   ----------------------------------------
 .byte   PATT
  .word Label_01213220
@  #03 @049   ----------------------------------------
 .byte   W96
@  #03 @050   ----------------------------------------
 .byte   W96
@  #03 @051   ----------------------------------------
 .byte   W96
@  #03 @052   ----------------------------------------
 .byte   W96
@  #03 @053   ----------------------------------------
 .byte   W96
@  #03 @054   ----------------------------------------
 .byte   W96
@  #03 @055   ----------------------------------------
 .byte   W96
@  #03 @056   ----------------------------------------
 .byte   W92
 .byte   W03
 .byte   FINE

@**************** Track 4 (Midi-Chn.3) ****************@

Metamorphosis_004:
@  #04 @000   ----------------------------------------
 .byte   KEYSH , Metamorphosis_key+0
 .byte   VOICE , 47
 .byte   VOL , 33*Metamorphosis_mvl/mxv
 .byte   W48
 .byte   W96
@  #04 @001   ----------------------------------------
Label_01210D08:
 .byte   W96
@  #04 @002   ----------------------------------------
 .byte   W96
@  #04 @003   ----------------------------------------
 .byte   W96
@  #04 @004   ----------------------------------------
 .byte   W96
@  #04 @005   ----------------------------------------
 .byte   W96
@  #04 @006   ----------------------------------------
 .byte   W96
@  #04 @007   ----------------------------------------
 .byte   W96
@  #04 @008   ----------------------------------------
 .byte   W96
@  #04 @009   ----------------------------------------
Label_01210D10:
 .byte   W08
 .byte   N06 ,An1 ,v080
 .byte   W08
 .byte   Gn1
 .byte   W08
 .byte   Fn1
 .byte   W08
 .byte   En1
 .byte   W08
 .byte   Dn1
 .byte   W08
 .byte   Cn1
 .byte   W48
 .byte   PEND 
@  #04 @010   ----------------------------------------
 .byte   W96
@  #04 @011   ----------------------------------------
Label_01210D21:
 .byte   W08
 .byte   N06 ,Bn1 ,v080
 .byte   W08
 .byte   An1
 .byte   W08
 .byte   Gn1
 .byte   W08
 .byte   Fn1
 .byte   W08
 .byte   En1
 .byte   W08
 .byte   Dn1
 .byte   W48
 .byte   PEND 
@  #04 @012   ----------------------------------------
Label_01210D31:
 .byte   N08 ,Cn2 ,v080
 .byte   W08
 .byte   Bn1
 .byte   W08
 .byte   An1
 .byte   W08
 .byte   Bn1
 .byte   W08
 .byte   An1
 .byte   W08
 .byte   Gn1
 .byte   W08
 .byte   N06 ,Fn1
 .byte   W48
 .byte   PEND 
@  #04 @013   ----------------------------------------
 .byte   W96
@  #04 @014   ----------------------------------------
Label_01210D44:
 .byte   N06 ,Dn2 ,v080
 .byte   W08
 .byte   Cn2
 .byte   W08
 .byte   Bn1
 .byte   W08
 .byte   Cn2
 .byte   W08
 .byte   Bn1
 .byte   W08
 .byte   An1
 .byte   W08
 .byte   Gn1
 .byte   W48
 .byte   PEND 
@  #04 @015   ----------------------------------------
 .byte   W96
@  #04 @016   ----------------------------------------
 .byte   W96
@  #04 @017   ----------------------------------------
 .byte   W96
@  #04 @018   ----------------------------------------
 .byte   W96
@  #04 @019   ----------------------------------------
 .byte   W96
@  #04 @020   ----------------------------------------
 .byte   W96
@  #04 @021   ----------------------------------------
 .byte   W96
@  #04 @022   ----------------------------------------
 .byte   W96
@  #04 @023   ----------------------------------------
 .byte   W96
@  #04 @024   ----------------------------------------
 .byte   W96
@  #04 @025   ----------------------------------------
 .byte   GOTO
  .word Label_01210D08
@  #04 @026   ----------------------------------------
 .byte   W96
@  #04 @027   ----------------------------------------
 .byte   W96
@  #04 @028   ----------------------------------------
 .byte   W96
@  #04 @029   ----------------------------------------
 .byte   W96
@  #04 @030   ----------------------------------------
 .byte   W96
@  #04 @031   ----------------------------------------
 .byte   W96
@  #04 @032   ----------------------------------------
 .byte   W96
@  #04 @033   ----------------------------------------
 .byte   W96
@  #04 @034   ----------------------------------------
 .byte   PATT
  .word Label_01210D10
@  #04 @035   ----------------------------------------
 .byte   W96
@  #04 @036   ----------------------------------------
 .byte   PATT
  .word Label_01210D21
@  #04 @037   ----------------------------------------
 .byte   PATT
  .word Label_01210D31
@  #04 @038   ----------------------------------------
 .byte   W96
@  #04 @039   ----------------------------------------
 .byte   PATT
  .word Label_01210D44
@  #04 @040   ----------------------------------------
 .byte   W96
@  #04 @041   ----------------------------------------
 .byte   W96
@  #04 @042   ----------------------------------------
 .byte   W96
@  #04 @043   ----------------------------------------
 .byte   W96
@  #04 @044   ----------------------------------------
 .byte   W96
@  #04 @045   ----------------------------------------
 .byte   W96
@  #04 @046   ----------------------------------------
 .byte   W96
@  #04 @047   ----------------------------------------
 .byte   W96
@  #04 @048   ----------------------------------------
 .byte   W96
@  #04 @049   ----------------------------------------
 .byte   W96
@  #04 @050   ----------------------------------------
 .byte   W96
@  #04 @051   ----------------------------------------
 .byte   W96
@  #04 @052   ----------------------------------------
 .byte   W96
@  #04 @053   ----------------------------------------
 .byte   W96
@  #04 @054   ----------------------------------------
 .byte   W96
@  #04 @055   ----------------------------------------
 .byte   W96
@  #04 @056   ----------------------------------------
 .byte   W92
 .byte   W03
 .byte   FINE

@**************** Track 5 (Midi-Chn.4) ****************@

Metamorphosis_005:
@  #05 @000   ----------------------------------------
 .byte   KEYSH , Metamorphosis_key+0
 .byte   VOICE , 33
 .byte   VOL , 51*Metamorphosis_mvl/mxv
 .byte   W48
Label_01213297:
 .byte   N28 ,Cn2 ,v080
 .byte   W36
 .byte   N21
 .byte   W24
@  #05 @001   ----------------------------------------
 .byte   N09
 .byte   W12
 .byte   Dn2
 .byte   W12
 .byte   Ds2
 .byte   W12
 .byte   PEND 
Label_012132A4:
 .byte   N11 ,Fs1 ,v080
 .byte   W24
 .byte   N22
 .byte   W72
 .byte   PEND 
@  #05 @002   ----------------------------------------
 .byte   PATT
  .word Label_01213297
@  #05 @003   ----------------------------------------
Label_012132B0:
 .byte   N09 ,Fs1 ,v080
 .byte   W12
 .byte   N09
 .byte   W84
 .byte   PEND 
@  #05 @004   ----------------------------------------
Label_012132B7:
 .byte   N28 ,Cn2 ,v080
 .byte   W36
 .byte   N09
 .byte   W12
 .byte   N09
 .byte   W12
 .byte   N09
 .byte   W12
 .byte   Dn2
 .byte   W12
 .byte   Ds2
 .byte   W12
 .byte   PEND 
@  #05 @005   ----------------------------------------
 .byte   PATT
  .word Label_012132A4
@  #05 @006   ----------------------------------------
 .byte   PATT
  .word Label_012132B7
@  #05 @007   ----------------------------------------
 .byte   PATT
  .word Label_012132B0
@  #05 @008   ----------------------------------------
 .byte   W72
 .byte   N22 ,Ds2 ,v080
 .byte   W24
@  #05 @009   ----------------------------------------
 .byte   N44 ,An2
 .byte   W96
@  #05 @010   ----------------------------------------
 .byte   W72
 .byte   N22 ,Fn2
 .byte   W24
@  #05 @011   ----------------------------------------
 .byte   N44 ,Bn2
 .byte   W96
@  #05 @012   ----------------------------------------
Label_012132E4:
 .byte   N19 ,Cn2 ,v080
 .byte   W24
 .byte   Bn1
 .byte   W24
 .byte   As1
 .byte   W48
 .byte   PEND 
@  #05 @013   ----------------------------------------
 .byte   W96
@  #05 @014   ----------------------------------------
Label_012132EE:
 .byte   N19 ,Dn2 ,v080
 .byte   W24
 .byte   Cn2
 .byte   W24
 .byte   Bn1
 .byte   W48
 .byte   PEND 
@  #05 @015   ----------------------------------------
 .byte   W96
@  #05 @016   ----------------------------------------
Label_012132F8:
 .byte   N19 ,Cn1 ,v080
 .byte   W24
 .byte   N05
 .byte   W12
 .byte   N05
 .byte   W12
 .byte   N19
 .byte   W24
 .byte   N05
 .byte   W12
 .byte   N05
 .byte   W12
 .byte   PEND 
@  #05 @017   ----------------------------------------
Label_01213307:
 .byte   N19 ,Cn1 ,v080
 .byte   W24
 .byte   N05
 .byte   W12
 .byte   N05
 .byte   W12
 .byte   N09
 .byte   W12
 .byte   Ds1
 .byte   W12
 .byte   En1
 .byte   W12
 .byte   Fn1
 .byte   W12
 .byte   PEND 
@  #05 @018   ----------------------------------------
Label_01213318:
 .byte   N19 ,Bn0 ,v080
 .byte   W24
 .byte   N04
 .byte   W12
 .byte   N04
 .byte   W12
 .byte   N19
 .byte   W24
 .byte   N04
 .byte   W12
 .byte   N04
 .byte   W12
 .byte   PEND 
@  #05 @019   ----------------------------------------
Label_01213327:
 .byte   N19 ,Bn0 ,v080
 .byte   W24
 .byte   N04
 .byte   W12
 .byte   N04
 .byte   W12
 .byte   N09
 .byte   W12
 .byte   Cn1
 .byte   W12
 .byte   Ds1
 .byte   W12
 .byte   En1
 .byte   W12
 .byte   PEND 
@  #05 @020   ----------------------------------------
 .byte   PATT
  .word Label_012132F8
@  #05 @021   ----------------------------------------
 .byte   PATT
  .word Label_01213307
@  #05 @022   ----------------------------------------
 .byte   PATT
  .word Label_01213318
@  #05 @023   ----------------------------------------
Label_01213347:
 .byte   N19 ,Bn0 ,v080
 .byte   W24
 .byte   N04
 .byte   W12
 .byte   N04
 .byte   W12
 .byte   N09
 .byte   W12
 .byte   Cn1
 .byte   W12
 .byte   Dn1
 .byte   W12
 .byte   Gn1
 .byte   W12
 .byte   PEND 
@  #05 @024   ----------------------------------------
 .byte   PATT
  .word Label_012132B7
@  #05 @025   ----------------------------------------
 .byte   GOTO
  .word Label_012132A4
@  #05 @026   ----------------------------------------
 .byte   PATT
  .word Label_012132A4
@  #05 @027   ----------------------------------------
 .byte   PATT
  .word Label_012132B7
@  #05 @028   ----------------------------------------
 .byte   PATT
  .word Label_012132B0
@  #05 @029   ----------------------------------------
 .byte   PATT
  .word Label_012132B7
@  #05 @030   ----------------------------------------
 .byte   PATT
  .word Label_012132A4
@  #05 @031   ----------------------------------------
 .byte   PATT
  .word Label_012132B7
@  #05 @032   ----------------------------------------
 .byte   PATT
  .word Label_012132B0
@  #05 @033   ----------------------------------------
 .byte   W72
 .byte   N22 ,Ds2 ,v080
 .byte   W24
@  #05 @034   ----------------------------------------
 .byte   N44 ,An2
 .byte   W96
@  #05 @035   ----------------------------------------
 .byte   W72
 .byte   N22 ,Fn2
 .byte   W24
@  #05 @036   ----------------------------------------
 .byte   N44 ,Bn2
 .byte   W96
@  #05 @037   ----------------------------------------
 .byte   PATT
  .word Label_012132E4
@  #05 @038   ----------------------------------------
 .byte   W96
@  #05 @039   ----------------------------------------
 .byte   PATT
  .word Label_012132EE
@  #05 @040   ----------------------------------------
 .byte   W96
@  #05 @041   ----------------------------------------
 .byte   PATT
  .word Label_012132F8
@  #05 @042   ----------------------------------------
 .byte   PATT
  .word Label_01213307
@  #05 @043   ----------------------------------------
 .byte   PATT
  .word Label_01213318
@  #05 @044   ----------------------------------------
 .byte   PATT
  .word Label_01213327
@  #05 @045   ----------------------------------------
 .byte   PATT
  .word Label_012132F8
@  #05 @046   ----------------------------------------
 .byte   PATT
  .word Label_01213307
@  #05 @047   ----------------------------------------
 .byte   PATT
  .word Label_01213318
@  #05 @048   ----------------------------------------
 .byte   PATT
  .word Label_01213347
@  #05 @049   ----------------------------------------
 .byte   PATT
  .word Label_012132B7
@  #05 @050   ----------------------------------------
 .byte   PATT
  .word Label_012132A4
@  #05 @051   ----------------------------------------
 .byte   PATT
  .word Label_012132B7
@  #05 @052   ----------------------------------------
 .byte   PATT
  .word Label_012132B0
@  #05 @053   ----------------------------------------
 .byte   N28 ,Cn2 ,v127
 .byte   W36
 .byte   N09 ,Cn2 ,v116
 .byte   W12
 .byte   Cn2 ,v112
 .byte   W12
 .byte   Cn2 ,v108
 .byte   W12
 .byte   Dn2 ,v104
 .byte   W12
 .byte   Ds2 ,v100
 .byte   W12
@  #05 @054   ----------------------------------------
 .byte   N11 ,Fs1 ,v096
 .byte   W24
 .byte   N22 ,Fs1 ,v088
 .byte   W72
@  #05 @055   ----------------------------------------
 .byte   N28 ,Cn2 ,v064
 .byte   W36
 .byte   N09 ,Cn2 ,v056
 .byte   W12
 .byte   Cn2 ,v052
 .byte   W12
 .byte   Cn2 ,v048
 .byte   W12
 .byte   Dn2 ,v044
 .byte   W12
 .byte   Ds2 ,v040
 .byte   W12
@  #05 @056   ----------------------------------------
 .byte   Fs1 ,v036
 .byte   W12
 .byte   Fs1 ,v032
 .byte   W80
 .byte   W03
 .byte   FINE

@**************** Track 6 (Midi-Chn.5) ****************@

Metamorphosis_006:
@  #06 @000   ----------------------------------------
 .byte   KEYSH , Metamorphosis_key+0
 .byte   VOICE , 33
 .byte   VOL , 38*Metamorphosis_mvl/mxv
 .byte   W48
 .byte   W96
@  #06 @001   ----------------------------------------
Label_0121341C:
 .byte   W96
@  #06 @002   ----------------------------------------
 .byte   W96
@  #06 @003   ----------------------------------------
 .byte   W96
@  #06 @004   ----------------------------------------
 .byte   W96
@  #06 @005   ----------------------------------------
 .byte   W96
@  #06 @006   ----------------------------------------
 .byte   W96
@  #06 @007   ----------------------------------------
 .byte   W96
@  #06 @008   ----------------------------------------
 .byte   W72
 .byte   N22 ,Ds2 ,v080
 .byte   W24
@  #06 @009   ----------------------------------------
 .byte   N36 ,An2
 .byte   W96
@  #06 @010   ----------------------------------------
 .byte   W72
 .byte   N22 ,Fn2
 .byte   W24
@  #06 @011   ----------------------------------------
 .byte   N36 ,Bn2
 .byte   W96
@  #06 @012   ----------------------------------------
 .byte   W96
@  #06 @013   ----------------------------------------
 .byte   W96
@  #06 @014   ----------------------------------------
 .byte   W96
@  #06 @015   ----------------------------------------
 .byte   W96
@  #06 @016   ----------------------------------------
 .byte   W96
@  #06 @017   ----------------------------------------
 .byte   W96
@  #06 @018   ----------------------------------------
 .byte   W96
@  #06 @019   ----------------------------------------
 .byte   W96
@  #06 @020   ----------------------------------------
 .byte   W96
@  #06 @021   ----------------------------------------
 .byte   W96
@  #06 @022   ----------------------------------------
 .byte   W96
@  #06 @023   ----------------------------------------
 .byte   W96
@  #06 @024   ----------------------------------------
 .byte   W96
@  #06 @025   ----------------------------------------
 .byte   GOTO
  .word Label_0121341C
@  #06 @026   ----------------------------------------
 .byte   W96
@  #06 @027   ----------------------------------------
 .byte   W96
@  #06 @028   ----------------------------------------
 .byte   W96
@  #06 @029   ----------------------------------------
 .byte   W96
@  #06 @030   ----------------------------------------
 .byte   W96
@  #06 @031   ----------------------------------------
 .byte   W96
@  #06 @032   ----------------------------------------
 .byte   W96
@  #06 @033   ----------------------------------------
 .byte   W72
 .byte   N22 ,Ds2 ,v080
 .byte   W24
@  #06 @034   ----------------------------------------
 .byte   N36 ,An2
 .byte   W96
@  #06 @035   ----------------------------------------
 .byte   W72
 .byte   N22 ,Fn2
 .byte   W24
@  #06 @036   ----------------------------------------
 .byte   N36 ,Bn2
 .byte   W96
@  #06 @037   ----------------------------------------
 .byte   W96
@  #06 @038   ----------------------------------------
 .byte   W96
@  #06 @039   ----------------------------------------
 .byte   W96
@  #06 @040   ----------------------------------------
 .byte   W96
@  #06 @041   ----------------------------------------
 .byte   W96
@  #06 @042   ----------------------------------------
 .byte   W96
@  #06 @043   ----------------------------------------
 .byte   W96
@  #06 @044   ----------------------------------------
 .byte   W96
@  #06 @045   ----------------------------------------
 .byte   W96
@  #06 @046   ----------------------------------------
 .byte   W96
@  #06 @047   ----------------------------------------
 .byte   W96
@  #06 @048   ----------------------------------------
 .byte   W96
@  #06 @049   ----------------------------------------
 .byte   W96
@  #06 @050   ----------------------------------------
 .byte   W96
@  #06 @051   ----------------------------------------
 .byte   W96
@  #06 @052   ----------------------------------------
 .byte   W96
@  #06 @053   ----------------------------------------
 .byte   W96
@  #06 @054   ----------------------------------------
 .byte   W96
@  #06 @055   ----------------------------------------
 .byte   W96
@  #06 @056   ----------------------------------------
 .byte   W92
 .byte   W03
 .byte   FINE

@**************** Track 7 (Midi-Chn.6) ****************@

Metamorphosis_007:
@  #07 @000   ----------------------------------------
 .byte   KEYSH , Metamorphosis_key+0
 .byte   VOICE , 121
 .byte   VOL , 45*Metamorphosis_mvl/mxv
 .byte   W48
Label_012110FB:
 .byte   N11 ,Cn1 ,v080
 .byte   W48
@  #07 @001   ----------------------------------------
 .byte   Dn1
 .byte   W48
 .byte   PEND 
Label_01211102:
 .byte   N11 ,Cn1 ,v080
 .byte   W24
 .byte   N11
 .byte   W24
@  #07 @002   ----------------------------------------
 .byte   Dn1
 .byte   W48
 .byte   PEND 
@  #07 @003   ----------------------------------------
 .byte   PATT
  .word Label_012110FB
@  #07 @004   ----------------------------------------
Label_01211110:
 .byte   N11 ,Cn1 ,v080
 .byte   W24
 .byte   N11
 .byte   W24
 .byte   Dn1
 .byte   W24
 .byte   N11
 .byte   W12
 .byte   N11
 .byte   W12
 .byte   PEND 
@  #07 @005   ----------------------------------------
 .byte   PATT
  .word Label_012110FB
@  #07 @006   ----------------------------------------
 .byte   PATT
  .word Label_01211102
@  #07 @007   ----------------------------------------
 .byte   PATT
  .word Label_012110FB
@  #07 @008   ----------------------------------------
 .byte   PATT
  .word Label_01211110
@  #07 @009   ----------------------------------------
Label_01211131:
 .byte   N09 ,Dn1 ,v100
 .byte   W12
 .byte   Cn1
 .byte   W24
 .byte   N09
 .byte   W12
 .byte   Dn1
 .byte   W12
 .byte   Cn1
 .byte   W24
 .byte   N09
 .byte   W12
 .byte   PEND 
@  #07 @010   ----------------------------------------
 .byte   PATT
  .word Label_01211131
@  #07 @011   ----------------------------------------
 .byte   PATT
  .word Label_01211131
@  #07 @012   ----------------------------------------
 .byte   PATT
  .word Label_01211131
@  #07 @013   ----------------------------------------
Label_0121114F:
 .byte   N19 ,Dn1 ,v080
 .byte   W24
 .byte   N19
 .byte   W24
 .byte   N19
 .byte   W48
 .byte   PEND 
@  #07 @014   ----------------------------------------
 .byte   W96
@  #07 @015   ----------------------------------------
 .byte   PATT
  .word Label_0121114F
@  #07 @016   ----------------------------------------
Label_0121115E:
 .byte   N06 ,Dn1 ,v080
 .byte   W08
 .byte   Cn1
 .byte   W08
 .byte   N06
 .byte   W08
 .byte   Fn1
 .byte   W08
 .byte   Cn1
 .byte   W08
 .byte   N06
 .byte   W08
 .byte   N06
 .byte   N06 ,Cs1
 .byte   W08
 .byte   Cn1
 .byte   W08
 .byte   N06
 .byte   W08
 .byte   N19 ,Dn1
 .byte   W24
 .byte   PEND 
@  #07 @017   ----------------------------------------
Label_01211178:
 .byte   N11 ,Cn1 ,v080
 .byte   W48
 .byte   N19 ,Dn1
 .byte   W36
 .byte   N09 ,Cn1
 .byte   W12
 .byte   PEND 
@  #07 @018   ----------------------------------------
Label_01211183:
 .byte   N11 ,Cn1 ,v080
 .byte   W24
 .byte   N11
 .byte   W24
 .byte   Dn1
 .byte   W36
 .byte   N09 ,Cn1
 .byte   W12
 .byte   PEND 
@  #07 @019   ----------------------------------------
 .byte   PATT
  .word Label_01211178
@  #07 @020   ----------------------------------------
 .byte   PATT
  .word Label_01211183
@  #07 @021   ----------------------------------------
 .byte   PATT
  .word Label_01211178
@  #07 @022   ----------------------------------------
 .byte   PATT
  .word Label_01211183
@  #07 @023   ----------------------------------------
 .byte   PATT
  .word Label_01211178
@  #07 @024   ----------------------------------------
 .byte   PATT
  .word Label_01211183
@  #07 @025   ----------------------------------------
 .byte   PATT
  .word Label_012110FB
@  #07 @026   ----------------------------------------
 .byte   GOTO
  .word Label_01211102
@  #07 @027   ----------------------------------------
 .byte   PATT
  .word Label_01211102
@  #07 @028   ----------------------------------------
 .byte   PATT
  .word Label_012110FB
@  #07 @029   ----------------------------------------
 .byte   PATT
  .word Label_01211110
@  #07 @030   ----------------------------------------
 .byte   PATT
  .word Label_012110FB
@  #07 @031   ----------------------------------------
 .byte   PATT
  .word Label_01211102
@  #07 @032   ----------------------------------------
 .byte   PATT
  .word Label_012110FB
@  #07 @033   ----------------------------------------
 .byte   PATT
  .word Label_01211110
@  #07 @034   ----------------------------------------
 .byte   PATT
  .word Label_01211131
@  #07 @035   ----------------------------------------
 .byte   PATT
  .word Label_01211131
@  #07 @036   ----------------------------------------
 .byte   PATT
  .word Label_01211131
@  #07 @037   ----------------------------------------
 .byte   PATT
  .word Label_01211131
@  #07 @038   ----------------------------------------
 .byte   PATT
  .word Label_0121114F
@  #07 @039   ----------------------------------------
 .byte   W96
@  #07 @040   ----------------------------------------
 .byte   PATT
  .word Label_0121114F
@  #07 @041   ----------------------------------------
 .byte   PATT
  .word Label_0121115E
@  #07 @042   ----------------------------------------
 .byte   PATT
  .word Label_01211178
@  #07 @043   ----------------------------------------
 .byte   PATT
  .word Label_01211183
@  #07 @044   ----------------------------------------
 .byte   PATT
  .word Label_01211178
@  #07 @045   ----------------------------------------
 .byte   PATT
  .word Label_01211183
@  #07 @046   ----------------------------------------
 .byte   PATT
  .word Label_01211178
@  #07 @047   ----------------------------------------
 .byte   PATT
  .word Label_01211183
@  #07 @048   ----------------------------------------
 .byte   PATT
  .word Label_01211178
@  #07 @049   ----------------------------------------
 .byte   PATT
  .word Label_01211183
@  #07 @050   ----------------------------------------
 .byte   PATT
  .word Label_012110FB
@  #07 @051   ----------------------------------------
 .byte   PATT
  .word Label_01211102
@  #07 @052   ----------------------------------------
 .byte   PATT
  .word Label_012110FB
@  #07 @053   ----------------------------------------
 .byte   PATT
  .word Label_01211110
@  #07 @054   ----------------------------------------
 .byte   N11 ,Cn1 ,v116
 .byte   W48
 .byte   Dn1 ,v100
 .byte   W48
@  #07 @055   ----------------------------------------
 .byte   Cn1 ,v088
 .byte   W24
 .byte   Cn1 ,v080
 .byte   W24
 .byte   Dn1 ,v072
 .byte   W48
@  #07 @056   ----------------------------------------
 .byte   Cn1 ,v060
 .byte   W48
 .byte   Dn1 ,v044
 .byte   W48
@  #07 @057   ----------------------------------------
 .byte   Cn1 ,v032
 .byte   W24
 .byte   Cn1 ,v024
 .byte   W24
 .byte   Dn1 ,v016
 .byte   W24
 .byte   Dn1 ,v008
 .byte   W12
 .byte   N11
 .byte   W11
 .byte   FINE

@******************************************************@
	.align	2

Metamorphosis:
	.byte	7	@ NumTrks
	.byte	0	@ NumBlks
	.byte	Metamorphosis_pri	@ Priority
	.byte	Metamorphosis_rev	@ Reverb.
    
	.word	Metamorphosis_grp
    
	.word	Metamorphosis_001
	.word	Metamorphosis_002
	.word	Metamorphosis_003
	.word	Metamorphosis_004
	.word	Metamorphosis_005
	.word	Metamorphosis_006
	.word	Metamorphosis_007

	.end
