	.include "MPlayDef.s"

	.equ	SMT4B4_grp, voicegroup000
	.equ	SMT4B4_pri, 0
	.equ	SMT4B4_rev, 0
	.equ	SMT4B4_mvl, 127
	.equ	SMT4B4_key, 0
	.equ	SMT4B4_tbs, 1
	.equ	SMT4B4_exg, 0
	.equ	SMT4B4_cmp, 1

	.section .rodata
	.global	SMT4B4
	.align	2


@**************** Track 1 (Midi-Chn.0) ****************@

SMT4B4_001:
@  #01 @000   ----------------------------------------
 .byte   VOL , 50*SMT4B4_mvl/mxv
 .byte   KEYSH , SMT4B4_key+0
 .byte   TEMPO , 132*SMT4B4_tbs/2
 .byte   VOICE , 34
 .byte   W96
@  #01 @001   ----------------------------------------
 .byte   W96
@  #01 @002   ----------------------------------------
 .byte   W96
@  #01 @003   ----------------------------------------
 .byte   W96
@  #01 @004   ----------------------------------------
 .byte   W96
@  #01 @005   ----------------------------------------
 .byte   W96
@  #01 @006   ----------------------------------------
Label_010043CE:
 .byte   N24 ,En0 ,v104
 .byte   W30
 .byte   N06
 .byte   W42
 .byte   N12
 .byte   W18
 .byte   N06
 .byte   W06
 .byte   PEND 
@  #01 @007   ----------------------------------------
Label_010043D9:
 .byte   W48
 .byte   N12 ,En0 ,v104
 .byte   W18
 .byte   N06
 .byte   W30
 .byte   PEND 
@  #01 @008   ----------------------------------------
Label_010043E1:
 .byte   W24
 .byte   N12 ,En0 ,v104
 .byte   W18
 .byte   N06
 .byte   W12
 .byte   N12
 .byte   W42
 .byte   PEND 
@  #01 @009   ----------------------------------------
 .byte   PATT
  .word Label_010043CE
@  #01 @010   ----------------------------------------
 .byte   PATT
  .word Label_010043D9
@  #01 @011   ----------------------------------------
 .byte   PATT
  .word Label_010043E1
@  #01 @012   ----------------------------------------
 .byte   PATT
  .word Label_010043CE
@  #01 @013   ----------------------------------------
 .byte   PATT
  .word Label_010043D9
@  #01 @014   ----------------------------------------
 .byte   PATT
  .word Label_010043E1
@  #01 @015   ----------------------------------------
 .byte   PATT
  .word Label_010043CE
@  #01 @016   ----------------------------------------
 .byte   PATT
  .word Label_010043D9
@  #01 @017   ----------------------------------------
 .byte   PATT
  .word Label_010043E1
@  #01 @018   ----------------------------------------
Label_01004418:
 .byte   N18 ,En0 ,v104
 .byte   W18
 .byte   N06
 .byte   W12
 .byte   N06
 .byte   W06
 .byte   Dn0
 .byte   W18
 .byte   En0
 .byte   W18
 .byte   N18
 .byte   W18
 .byte   N06
 .byte   W06
 .byte   PEND 
@  #01 @019   ----------------------------------------
Label_01004429:
 .byte   W06
 .byte   N06 ,En0 ,v104
 .byte   W18
 .byte   N12 ,Dn0
 .byte   W12
 .byte   N06 ,En0
 .byte   W12
 .byte   N18
 .byte   W18
 .byte   N06
 .byte   W18
 .byte   N12 ,Dn0
 .byte   W12
 .byte   PEND 
@  #01 @020   ----------------------------------------
Label_0100443C:
 .byte   W06
 .byte   N06 ,En0 ,v104
 .byte   W18
 .byte   N12
 .byte   W18
 .byte   N06
 .byte   W12
 .byte   N06
 .byte   W18
 .byte   Dn0
 .byte   W12
 .byte   En0
 .byte   W12
 .byte   PEND 
@  #01 @021   ----------------------------------------
 .byte   PATT
  .word Label_01004418
@  #01 @022   ----------------------------------------
 .byte   PATT
  .word Label_01004429
@  #01 @023   ----------------------------------------
 .byte   PATT
  .word Label_0100443C
@  #01 @024   ----------------------------------------
 .byte   PATT
  .word Label_01004418
@  #01 @025   ----------------------------------------
 .byte   PATT
  .word Label_01004429
@  #01 @026   ----------------------------------------
 .byte   PATT
  .word Label_0100443C
@  #01 @027   ----------------------------------------
 .byte   PATT
  .word Label_01004418
@  #01 @028   ----------------------------------------
 .byte   PATT
  .word Label_01004429
@  #01 @029   ----------------------------------------
Label_01004474:
 .byte   W06
 .byte   N06 ,En0 ,v104
 .byte   W18
 .byte   N12
 .byte   W18
 .byte   N06
 .byte   W54
 .byte   PEND 
@  #01 @030   ----------------------------------------
Label_0100447E:
 .byte   N18 ,Fn0 ,v096
 .byte   W18
 .byte   N18
 .byte   W18
 .byte   N12
 .byte   W12
 .byte   N09 ,Ds1
 .byte   W12
 .byte   N18 ,Fn0
 .byte   W18
 .byte   N12
 .byte   W12
 .byte   N09 ,Ds1
 .byte   W06
 .byte   PEND 
@  #01 @031   ----------------------------------------
Label_01004492:
 .byte   W06
 .byte   N18 ,Fn0 ,v096
 .byte   W18
 .byte   N12
 .byte   W12
 .byte   N09 ,Ds1
 .byte   W12
 .byte   N18 ,Fn0
 .byte   W18
 .byte   N18
 .byte   W18
 .byte   N12
 .byte   W12
 .byte   PEND 
@  #01 @032   ----------------------------------------
Label_010044A4:
 .byte   N09 ,Ds1 ,v096
 .byte   W12
 .byte   N12 ,Fn0
 .byte   W12
 .byte   N09 ,Ds1
 .byte   W12
 .byte   Fn1
 .byte   W12
 .byte   N06 ,Fn0
 .byte   W06
 .byte   N06
 .byte   W06
 .byte   Gn1
 .byte   W06
 .byte   Gs1
 .byte   W06
 .byte   N09 ,Gn1
 .byte   W12
 .byte   Ds1
 .byte   W12
 .byte   PEND 
@  #01 @033   ----------------------------------------
Label_010044BF:
 .byte   N18 ,Fn0 ,v096
 .byte   W18
 .byte   N06
 .byte   W12
 .byte   N06
 .byte   W06
 .byte   Ds1
 .byte   W06
 .byte   Fn1
 .byte   W06
 .byte   N12
 .byte   W12
 .byte   N18 ,Fn0
 .byte   W30
 .byte   N06
 .byte   W06
 .byte   PEND 
@  #01 @034   ----------------------------------------
Label_010044D3:
 .byte   N06 ,Ds1 ,v096
 .byte   W12
 .byte   N12 ,Fn1
 .byte   W12
 .byte   N12
 .byte   W12
 .byte   N06
 .byte   W06
 .byte   Ds1
 .byte   W06
 .byte   Fn1
 .byte   W06
 .byte   N12 ,Fn0
 .byte   W18
 .byte   N06
 .byte   W06
 .byte   Ds1
 .byte   W06
 .byte   Fn1
 .byte   W12
 .byte   PEND 
@  #01 @035   ----------------------------------------
Label_010044EC:
 .byte   N12 ,Fn1 ,v096
 .byte   W12
 .byte   Fn0
 .byte   W12
 .byte   N06 ,Gn1
 .byte   W06
 .byte   Gs1
 .byte   W06
 .byte   Gn1
 .byte   W06
 .byte   As0
 .byte   W06
 .byte   Ds1
 .byte   W18
 .byte   N18 ,Bn0
 .byte   W18
 .byte   N12 ,Ds1
 .byte   W12
 .byte   PEND 
@  #01 @036   ----------------------------------------
 .byte   PATT
  .word Label_0100447E
@  #01 @037   ----------------------------------------
 .byte   PATT
  .word Label_01004492
@  #01 @038   ----------------------------------------
 .byte   PATT
  .word Label_010044A4
@  #01 @039   ----------------------------------------
 .byte   PATT
  .word Label_010044BF
@  #01 @040   ----------------------------------------
Label_01004518:
 .byte   N06 ,Ds1 ,v096
 .byte   W12
 .byte   Fn1
 .byte   W06
 .byte   N18
 .byte   W18
 .byte   N06
 .byte   W06
 .byte   Ds1
 .byte   W06
 .byte   Fn1
 .byte   W06
 .byte   N12 ,Fn0
 .byte   W18
 .byte   N06
 .byte   W12
 .byte   N06
 .byte   W12
 .byte   PEND 
@  #01 @041   ----------------------------------------
Label_0100452E:
 .byte   N12 ,Fn1 ,v096
 .byte   W12
 .byte   Fn0
 .byte   W18
 .byte   N06
 .byte   W12
 .byte   Fn1
 .byte   W06
 .byte   Gn1
 .byte   W06
 .byte   N03 ,Gs1
 .byte   W06
 .byte   N12 ,Fn1
 .byte   W12
 .byte   Ds1
 .byte   W12
 .byte   Fn1
 .byte   W12
 .byte   PEND 
@  #01 @042   ----------------------------------------
Label_01004545:
 .byte   N24 ,En0 ,v096
 .byte   W24
 .byte   N24
 .byte   W24
 .byte   N24
 .byte   W24
 .byte   N24
 .byte   W24
 .byte   PEND 
@  #01 @043   ----------------------------------------
 .byte   PATT
  .word Label_01004545
@  #01 @044   ----------------------------------------
 .byte   PATT
  .word Label_01004545
@  #01 @045   ----------------------------------------
 .byte   PATT
  .word Label_01004545
@  #01 @046   ----------------------------------------
 .byte   PATT
  .word Label_01004545
@  #01 @047   ----------------------------------------
 .byte   PATT
  .word Label_01004545
@  #01 @048   ----------------------------------------
 .byte   PATT
  .word Label_01004545
@  #01 @049   ----------------------------------------
 .byte   PATT
  .word Label_01004545
@  #01 @050   ----------------------------------------
 .byte   PATT
  .word Label_01004545
@  #01 @051   ----------------------------------------
 .byte   PATT
  .word Label_01004545
@  #01 @052   ----------------------------------------
 .byte   PATT
  .word Label_01004545
@  #01 @053   ----------------------------------------
 .byte   PATT
  .word Label_01004545
@  #01 @054   ----------------------------------------
 .byte   PATT
  .word Label_01004545
@  #01 @055   ----------------------------------------
 .byte   PATT
  .word Label_01004545
@  #01 @056   ----------------------------------------
 .byte   PATT
  .word Label_01004545
@  #01 @057   ----------------------------------------
 .byte   PATT
  .word Label_01004545
@  #01 @058   ----------------------------------------
 .byte   PATT
  .word Label_01004545
@  #01 @059   ----------------------------------------
 .byte   PATT
  .word Label_01004545
@  #01 @060   ----------------------------------------
 .byte   PATT
  .word Label_01004545
@  #01 @061   ----------------------------------------
 .byte   PATT
  .word Label_01004545
@  #01 @062   ----------------------------------------
 .byte   PATT
  .word Label_01004545
@  #01 @063   ----------------------------------------
 .byte   PATT
  .word Label_01004545
@  #01 @064   ----------------------------------------
 .byte   PATT
  .word Label_01004545
@  #01 @065   ----------------------------------------
 .byte   PATT
  .word Label_01004545
@  #01 @066   ----------------------------------------
 .byte   N24 ,En0 ,v096
 .byte   W96
@  #01 @067   ----------------------------------------
 .byte   W48
 .byte   N24
 .byte   W48
@  #01 @068   ----------------------------------------
 .byte   W96
@  #01 @069   ----------------------------------------
 .byte   GOTO
  .word Label_010043CE
@  #01 @070   ----------------------------------------
 .byte   PATT
  .word Label_010043CE
@  #01 @071   ----------------------------------------
 .byte   PATT
  .word Label_010043D9
@  #01 @072   ----------------------------------------
 .byte   PATT
  .word Label_010043E1
@  #01 @073   ----------------------------------------
 .byte   PATT
  .word Label_010043CE
@  #01 @074   ----------------------------------------
 .byte   PATT
  .word Label_010043D9
@  #01 @075   ----------------------------------------
 .byte   PATT
  .word Label_010043E1
@  #01 @076   ----------------------------------------
 .byte   PATT
  .word Label_010043CE
@  #01 @077   ----------------------------------------
 .byte   PATT
  .word Label_010043D9
@  #01 @078   ----------------------------------------
 .byte   PATT
  .word Label_010043E1
@  #01 @079   ----------------------------------------
 .byte   PATT
  .word Label_010043CE
@  #01 @080   ----------------------------------------
 .byte   PATT
  .word Label_010043D9
@  #01 @081   ----------------------------------------
 .byte   PATT
  .word Label_010043E1
@  #01 @082   ----------------------------------------
 .byte   PATT
  .word Label_01004418
@  #01 @083   ----------------------------------------
 .byte   PATT
  .word Label_01004429
@  #01 @084   ----------------------------------------
 .byte   PATT
  .word Label_0100443C
@  #01 @085   ----------------------------------------
 .byte   PATT
  .word Label_01004418
@  #01 @086   ----------------------------------------
 .byte   PATT
  .word Label_01004429
@  #01 @087   ----------------------------------------
 .byte   PATT
  .word Label_0100443C
@  #01 @088   ----------------------------------------
 .byte   PATT
  .word Label_01004418
@  #01 @089   ----------------------------------------
 .byte   PATT
  .word Label_01004429
@  #01 @090   ----------------------------------------
 .byte   PATT
  .word Label_0100443C
@  #01 @091   ----------------------------------------
 .byte   PATT
  .word Label_01004418
@  #01 @092   ----------------------------------------
 .byte   PATT
  .word Label_01004429
@  #01 @093   ----------------------------------------
 .byte   PATT
  .word Label_01004474
@  #01 @094   ----------------------------------------
 .byte   PATT
  .word Label_0100447E
@  #01 @095   ----------------------------------------
 .byte   PATT
  .word Label_01004492
@  #01 @096   ----------------------------------------
 .byte   PATT
  .word Label_010044A4
@  #01 @097   ----------------------------------------
 .byte   PATT
  .word Label_010044BF
@  #01 @098   ----------------------------------------
 .byte   PATT
  .word Label_010044D3
@  #01 @099   ----------------------------------------
 .byte   PATT
  .word Label_010044EC
@  #01 @100   ----------------------------------------
 .byte   PATT
  .word Label_0100447E
@  #01 @101   ----------------------------------------
 .byte   PATT
  .word Label_01004492
@  #01 @102   ----------------------------------------
 .byte   PATT
  .word Label_010044A4
@  #01 @103   ----------------------------------------
 .byte   PATT
  .word Label_010044BF
@  #01 @104   ----------------------------------------
 .byte   PATT
  .word Label_01004518
@  #01 @105   ----------------------------------------
 .byte   PATT
  .word Label_0100452E
@  #01 @106   ----------------------------------------
 .byte   PATT
  .word Label_01004545
@  #01 @107   ----------------------------------------
 .byte   PATT
  .word Label_01004545
@  #01 @108   ----------------------------------------
 .byte   PATT
  .word Label_01004545
@  #01 @109   ----------------------------------------
 .byte   PATT
  .word Label_01004545
@  #01 @110   ----------------------------------------
 .byte   PATT
  .word Label_01004545
@  #01 @111   ----------------------------------------
 .byte   PATT
  .word Label_01004545
@  #01 @112   ----------------------------------------
 .byte   PATT
  .word Label_01004545
@  #01 @113   ----------------------------------------
 .byte   PATT
  .word Label_01004545
@  #01 @114   ----------------------------------------
 .byte   PATT
  .word Label_01004545
@  #01 @115   ----------------------------------------
 .byte   PATT
  .word Label_01004545
@  #01 @116   ----------------------------------------
 .byte   PATT
  .word Label_01004545
@  #01 @117   ----------------------------------------
 .byte   PATT
  .word Label_01004545
@  #01 @118   ----------------------------------------
 .byte   PATT
  .word Label_01004545
@  #01 @119   ----------------------------------------
 .byte   PATT
  .word Label_01004545
@  #01 @120   ----------------------------------------
 .byte   PATT
  .word Label_01004545
@  #01 @121   ----------------------------------------
 .byte   PATT
  .word Label_01004545
@  #01 @122   ----------------------------------------
 .byte   PATT
  .word Label_01004545
@  #01 @123   ----------------------------------------
 .byte   PATT
  .word Label_01004545
@  #01 @124   ----------------------------------------
 .byte   PATT
  .word Label_01004545
@  #01 @125   ----------------------------------------
 .byte   PATT
  .word Label_01004545
@  #01 @126   ----------------------------------------
 .byte   PATT
  .word Label_01004545
@  #01 @127   ----------------------------------------
 .byte   PATT
  .word Label_01004545
@  #01 @128   ----------------------------------------
 .byte   PATT
  .word Label_01004545
@  #01 @129   ----------------------------------------
 .byte   PATT
  .word Label_01004545
@  #01 @130   ----------------------------------------
 .byte   N24 ,En0 ,v096
 .byte   W96
@  #01 @131   ----------------------------------------
 .byte   W48
 .byte   N24
 .byte   W48
@  #01 @132   ----------------------------------------
 .byte   W96
 .byte   FINE

@**************** Track 2 (Midi-Chn.1) ****************@

SMT4B4_002:
@  #02 @000   ----------------------------------------
 .byte   KEYSH , SMT4B4_key+0
 .byte   VOICE , 40
 .byte   VOL , 40*SMT4B4_mvl/mxv
 .byte   PAN , c_v+29
 .byte   VOL , 40*SMT4B4_mvl/mxv
 .byte   PAN , c_v+29
 .byte   N18 ,Fs3 ,v096
 .byte   N18 ,Fs4
 .byte   W96
@  #02 @001   ----------------------------------------
Label_F52072:
 .byte   W48
 .byte   N18 ,Dn3 ,v096
 .byte   N18 ,Dn4
 .byte   W48
 .byte   PEND 
@  #02 @002   ----------------------------------------
 .byte   W96
@  #02 @003   ----------------------------------------
 .byte   Fs3
 .byte   N18 ,Fs4
 .byte   W96
@  #02 @004   ----------------------------------------
 .byte   PATT
  .word Label_F52072
@  #02 @005   ----------------------------------------
 .byte   W96
@  #02 @006   ----------------------------------------
Label_F52085:
 .byte   W96
@  #02 @007   ----------------------------------------
 .byte   W96
@  #02 @008   ----------------------------------------
 .byte   W96
@  #02 @009   ----------------------------------------
 .byte   W96
@  #02 @010   ----------------------------------------
 .byte   W96
@  #02 @011   ----------------------------------------
 .byte   W96
@  #02 @012   ----------------------------------------
 .byte   W96
@  #02 @013   ----------------------------------------
 .byte   W96
@  #02 @014   ----------------------------------------
 .byte   W96
@  #02 @015   ----------------------------------------
 .byte   W96
@  #02 @016   ----------------------------------------
 .byte   W96
@  #02 @017   ----------------------------------------
 .byte   W96
@  #02 @018   ----------------------------------------
 .byte   W96
@  #02 @019   ----------------------------------------
 .byte   W96
@  #02 @020   ----------------------------------------
 .byte   W96
@  #02 @021   ----------------------------------------
 .byte   W96
@  #02 @022   ----------------------------------------
 .byte   W96
@  #02 @023   ----------------------------------------
 .byte   W96
@  #02 @024   ----------------------------------------
 .byte   W96
@  #02 @025   ----------------------------------------
 .byte   W96
@  #02 @026   ----------------------------------------
 .byte   W96
@  #02 @027   ----------------------------------------
 .byte   W96
@  #02 @028   ----------------------------------------
 .byte   W96
@  #02 @029   ----------------------------------------
 .byte   W96
@  #02 @030   ----------------------------------------
Label_F5209D:
 .byte   VOL , 50*SMT4B4_mvl/mxv
 .byte   PAN , c_v-7
 .byte   VOL , 50*SMT4B4_mvl/mxv
 .byte   PAN , c_v-7
 .byte   N09 ,Cn3 ,v120
 .byte   N09 ,Fn3
 .byte   W18
 .byte   Cn3
 .byte   N09 ,Fn3
 .byte   W54
 .byte   As2
 .byte   N09 ,Ds3
 .byte   W18
 .byte   As2
 .byte   N09 ,Ds3
 .byte   W06
 .byte   PEND 
@  #02 @031   ----------------------------------------
Label_F520B8:
 .byte   W48
 .byte   N09 ,Gs2 ,v120
 .byte   N09 ,Cs3
 .byte   W18
 .byte   Gs2
 .byte   N09 ,Cs3
 .byte   W30
 .byte   PEND 
@  #02 @032   ----------------------------------------
Label_F520C4:
 .byte   W24
 .byte   N09 ,As2 ,v120
 .byte   N09 ,Ds3
 .byte   W18
 .byte   As2
 .byte   N09 ,Ds3
 .byte   W54
 .byte   PEND 
@  #02 @033   ----------------------------------------
Label_F520D0:
 .byte   N09 ,Cn3 ,v120
 .byte   N09 ,Fn3
 .byte   W18
 .byte   Cn3
 .byte   N09 ,Fn3
 .byte   W54
 .byte   As2
 .byte   N09 ,Ds3
 .byte   W18
 .byte   As2
 .byte   N09 ,Ds3
 .byte   W06
 .byte   PEND 
@  #02 @034   ----------------------------------------
 .byte   PATT
  .word Label_F520B8
@  #02 @035   ----------------------------------------
 .byte   PATT
  .word Label_F520C4
@  #02 @036   ----------------------------------------
 .byte   PATT
  .word Label_F520D0
@  #02 @037   ----------------------------------------
 .byte   PATT
  .word Label_F520B8
@  #02 @038   ----------------------------------------
 .byte   PATT
  .word Label_F520C4
@  #02 @039   ----------------------------------------
 .byte   PATT
  .word Label_F520D0
@  #02 @040   ----------------------------------------
 .byte   PATT
  .word Label_F520B8
@  #02 @041   ----------------------------------------
Label_F52106:
 .byte   W24
 .byte   N09 ,Gn2 ,v120
 .byte   N09 ,Cn3
 .byte   W24
 .byte   Gs2
 .byte   N09 ,Cs3
 .byte   W24
 .byte   As2
 .byte   N09 ,Ds3
 .byte   W24
 .byte   PEND 
@  #02 @042   ----------------------------------------
 .byte   W96
@  #02 @043   ----------------------------------------
 .byte   W96
@  #02 @044   ----------------------------------------
 .byte   W96
@  #02 @045   ----------------------------------------
 .byte   W96
@  #02 @046   ----------------------------------------
 .byte   W96
@  #02 @047   ----------------------------------------
 .byte   W96
@  #02 @048   ----------------------------------------
 .byte   W96
@  #02 @049   ----------------------------------------
 .byte   W96
@  #02 @050   ----------------------------------------
 .byte   W96
@  #02 @051   ----------------------------------------
 .byte   W96
@  #02 @052   ----------------------------------------
 .byte   W96
@  #02 @053   ----------------------------------------
 .byte   W96
@  #02 @054   ----------------------------------------
 .byte   W96
@  #02 @055   ----------------------------------------
 .byte   W96
@  #02 @056   ----------------------------------------
 .byte   W96
@  #02 @057   ----------------------------------------
 .byte   W96
@  #02 @058   ----------------------------------------
 .byte   W96
@  #02 @059   ----------------------------------------
 .byte   W96
@  #02 @060   ----------------------------------------
 .byte   W96
@  #02 @061   ----------------------------------------
 .byte   W96
@  #02 @062   ----------------------------------------
 .byte   W96
@  #02 @063   ----------------------------------------
 .byte   W96
@  #02 @064   ----------------------------------------
 .byte   W96
@  #02 @065   ----------------------------------------
 .byte   W96
@  #02 @066   ----------------------------------------
 .byte   W96
@  #02 @067   ----------------------------------------
 .byte   W96
@  #02 @068   ----------------------------------------
 .byte   W96
@  #02 @069   ----------------------------------------
 .byte   GOTO
  .word Label_F52085
@  #02 @070   ----------------------------------------
 .byte   W96
@  #02 @071   ----------------------------------------
 .byte   W96
@  #02 @072   ----------------------------------------
 .byte   W96
@  #02 @073   ----------------------------------------
 .byte   W96
@  #02 @074   ----------------------------------------
 .byte   W96
@  #02 @075   ----------------------------------------
 .byte   W96
@  #02 @076   ----------------------------------------
 .byte   W96
@  #02 @077   ----------------------------------------
 .byte   W96
@  #02 @078   ----------------------------------------
 .byte   W96
@  #02 @079   ----------------------------------------
 .byte   W96
@  #02 @080   ----------------------------------------
 .byte   W96
@  #02 @081   ----------------------------------------
 .byte   W96
@  #02 @082   ----------------------------------------
 .byte   W96
@  #02 @083   ----------------------------------------
 .byte   W96
@  #02 @084   ----------------------------------------
 .byte   W96
@  #02 @085   ----------------------------------------
 .byte   W96
@  #02 @086   ----------------------------------------
 .byte   W96
@  #02 @087   ----------------------------------------
 .byte   W96
@  #02 @088   ----------------------------------------
 .byte   W96
@  #02 @089   ----------------------------------------
 .byte   W96
@  #02 @090   ----------------------------------------
 .byte   W96
@  #02 @091   ----------------------------------------
 .byte   W96
@  #02 @092   ----------------------------------------
 .byte   W96
@  #02 @093   ----------------------------------------
 .byte   W96
@  #02 @094   ----------------------------------------
 .byte   PATT
  .word Label_F5209D
@  #02 @095   ----------------------------------------
 .byte   PATT
  .word Label_F520B8
@  #02 @096   ----------------------------------------
 .byte   PATT
  .word Label_F520C4
@  #02 @097   ----------------------------------------
 .byte   PATT
  .word Label_F520D0
@  #02 @098   ----------------------------------------
 .byte   PATT
  .word Label_F520B8
@  #02 @099   ----------------------------------------
 .byte   PATT
  .word Label_F520C4
@  #02 @100   ----------------------------------------
 .byte   PATT
  .word Label_F520D0
@  #02 @101   ----------------------------------------
 .byte   PATT
  .word Label_F520B8
@  #02 @102   ----------------------------------------
 .byte   PATT
  .word Label_F520C4
@  #02 @103   ----------------------------------------
 .byte   PATT
  .word Label_F520D0
@  #02 @104   ----------------------------------------
 .byte   PATT
  .word Label_F520B8
@  #02 @105   ----------------------------------------
 .byte   PATT
  .word Label_F52106
@  #02 @106   ----------------------------------------
 .byte   W96
@  #02 @107   ----------------------------------------
 .byte   W96
@  #02 @108   ----------------------------------------
 .byte   W96
@  #02 @109   ----------------------------------------
 .byte   W96
@  #02 @110   ----------------------------------------
 .byte   W96
@  #02 @111   ----------------------------------------
 .byte   W96
@  #02 @112   ----------------------------------------
 .byte   W96
@  #02 @113   ----------------------------------------
 .byte   W96
@  #02 @114   ----------------------------------------
 .byte   W96
@  #02 @115   ----------------------------------------
 .byte   W96
@  #02 @116   ----------------------------------------
 .byte   W96
@  #02 @117   ----------------------------------------
 .byte   W96
@  #02 @118   ----------------------------------------
 .byte   W96
@  #02 @119   ----------------------------------------
 .byte   W96
@  #02 @120   ----------------------------------------
 .byte   W96
@  #02 @121   ----------------------------------------
 .byte   W96
@  #02 @122   ----------------------------------------
 .byte   W96
@  #02 @123   ----------------------------------------
 .byte   W96
@  #02 @124   ----------------------------------------
 .byte   W96
@  #02 @125   ----------------------------------------
 .byte   W96
@  #02 @126   ----------------------------------------
 .byte   W96
@  #02 @127   ----------------------------------------
 .byte   W96
@  #02 @128   ----------------------------------------
 .byte   W96
@  #02 @129   ----------------------------------------
 .byte   W96
@  #02 @130   ----------------------------------------
 .byte   W96
@  #02 @131   ----------------------------------------
 .byte   W96
@  #02 @132   ----------------------------------------
 .byte   W96
 .byte   FINE

@**************** Track 3 (Midi-Chn.2) ****************@

SMT4B4_003:
@  #03 @000   ----------------------------------------
 .byte   KEYSH , SMT4B4_key+0
 .byte   VOICE , 33
 .byte   W96
@  #03 @001   ----------------------------------------
 .byte   W96
@  #03 @002   ----------------------------------------
 .byte   W96
@  #03 @003   ----------------------------------------
 .byte   W96
@  #03 @004   ----------------------------------------
 .byte   W96
@  #03 @005   ----------------------------------------
 .byte   W96
@  #03 @006   ----------------------------------------
Label_01004722:
 .byte   VOL , 31*SMT4B4_mvl/mxv
 .byte   PAN , c_v-23
 .byte   VOL , 31*SMT4B4_mvl/mxv
 .byte   PAN , c_v-23
 .byte   N12 ,En1 ,v112
 .byte   N12 ,En2 ,v088
 .byte   W12
 .byte   N18 ,En1 ,v096
 .byte   N18 ,En2 ,v064
 .byte   W18
 .byte   N06 ,En1 ,v112
 .byte   N06 ,En2 ,v080
 .byte   W06
 .byte   En1 ,v088
 .byte   N06 ,En2 ,v060
 .byte   W06
 .byte   En1 ,v088
 .byte   N06 ,En2 ,v056
 .byte   W06
 .byte   En1 ,v092
 .byte   N06 ,En2 ,v060
 .byte   W06
 .byte   En1 ,v096
 .byte   N06 ,En2 ,v068
 .byte   W06
 .byte   En1 ,v096
 .byte   N06 ,En2 ,v068
 .byte   W06
 .byte   En1 ,v096
 .byte   N06 ,En2 ,v068
 .byte   W06
 .byte   N12 ,En1 ,v108
 .byte   N12 ,En2 ,v088
 .byte   W12
 .byte   N18 ,En1 ,v096
 .byte   N18 ,En2 ,v064
 .byte   W12
 .byte   PEND 
@  #03 @007   ----------------------------------------
Label_01004772:
 .byte   W06
 .byte   N06 ,En1 ,v108
 .byte   N06 ,En2 ,v076
 .byte   W06
 .byte   En1 ,v088
 .byte   N06 ,En2 ,v056
 .byte   W06
 .byte   En1 ,v084
 .byte   N06 ,En2 ,v052
 .byte   W06
 .byte   En1 ,v088
 .byte   N06 ,En2 ,v056
 .byte   W06
 .byte   En1 ,v096
 .byte   N06 ,En2 ,v064
 .byte   W06
 .byte   En1 ,v096
 .byte   N06 ,En2 ,v064
 .byte   W06
 .byte   En1 ,v096
 .byte   N06 ,En2 ,v064
 .byte   W06
 .byte   N12 ,En1 ,v112
 .byte   N12 ,En2 ,v088
 .byte   W12
 .byte   N18 ,En1 ,v096
 .byte   N18 ,En2 ,v064
 .byte   W18
 .byte   N06 ,En1 ,v112
 .byte   N06 ,En2 ,v080
 .byte   W06
 .byte   En1 ,v088
 .byte   N06 ,En2 ,v060
 .byte   W06
 .byte   En1 ,v088
 .byte   N06 ,En2 ,v056
 .byte   W06
 .byte   PEND 
@  #03 @008   ----------------------------------------
Label_010047C0:
 .byte   N06 ,En1 ,v092
 .byte   N06 ,En2 ,v060
 .byte   W06
 .byte   En1 ,v096
 .byte   N06 ,En2 ,v068
 .byte   W06
 .byte   En1 ,v096
 .byte   N06 ,En2 ,v068
 .byte   W06
 .byte   En1 ,v096
 .byte   N06 ,En2 ,v068
 .byte   W06
 .byte   N12 ,En1 ,v108
 .byte   N12 ,En2 ,v088
 .byte   W12
 .byte   N18 ,En1 ,v096
 .byte   N18 ,En2 ,v064
 .byte   W18
 .byte   N06 ,En1 ,v108
 .byte   N06 ,En2 ,v076
 .byte   W06
 .byte   En1 ,v088
 .byte   N06 ,En2 ,v056
 .byte   W06
 .byte   En1 ,v084
 .byte   N06 ,En2 ,v052
 .byte   W06
 .byte   En1 ,v088
 .byte   N06 ,En2 ,v056
 .byte   W06
 .byte   En1 ,v096
 .byte   N06 ,En2 ,v064
 .byte   W06
 .byte   En1 ,v096
 .byte   N06 ,En2 ,v064
 .byte   W06
 .byte   En1 ,v096
 .byte   N06 ,En2 ,v064
 .byte   W06
 .byte   PEND 
@  #03 @009   ----------------------------------------
Label_01004813:
 .byte   N12 ,En1 ,v112
 .byte   N12 ,En2 ,v088
 .byte   W12
 .byte   N18 ,En1 ,v096
 .byte   N18 ,En2 ,v064
 .byte   W18
 .byte   N06 ,En1 ,v112
 .byte   N06 ,En2 ,v080
 .byte   W06
 .byte   En1 ,v088
 .byte   N06 ,En2 ,v060
 .byte   W06
 .byte   En1 ,v088
 .byte   N06 ,En2 ,v056
 .byte   W06
 .byte   En1 ,v092
 .byte   N06 ,En2 ,v060
 .byte   W06
 .byte   En1 ,v096
 .byte   N06 ,En2 ,v068
 .byte   W06
 .byte   En1 ,v096
 .byte   N06 ,En2 ,v068
 .byte   W06
 .byte   En1 ,v096
 .byte   N06 ,En2 ,v068
 .byte   W06
 .byte   N12 ,En1 ,v108
 .byte   N12 ,En2 ,v088
 .byte   W12
 .byte   N18 ,En1 ,v096
 .byte   N18 ,En2 ,v064
 .byte   W12
 .byte   PEND 
@  #03 @010   ----------------------------------------
 .byte   PATT
  .word Label_01004772
@  #03 @011   ----------------------------------------
 .byte   PATT
  .word Label_010047C0
@  #03 @012   ----------------------------------------
 .byte   PATT
  .word Label_01004813
@  #03 @013   ----------------------------------------
 .byte   PATT
  .word Label_01004772
@  #03 @014   ----------------------------------------
 .byte   PATT
  .word Label_010047C0
@  #03 @015   ----------------------------------------
 .byte   PATT
  .word Label_01004813
@  #03 @016   ----------------------------------------
 .byte   PATT
  .word Label_01004772
@  #03 @017   ----------------------------------------
 .byte   PATT
  .word Label_010047C0
@  #03 @018   ----------------------------------------
 .byte   PATT
  .word Label_01004813
@  #03 @019   ----------------------------------------
 .byte   PATT
  .word Label_01004772
@  #03 @020   ----------------------------------------
 .byte   PATT
  .word Label_010047C0
@  #03 @021   ----------------------------------------
 .byte   PATT
  .word Label_01004813
@  #03 @022   ----------------------------------------
 .byte   PATT
  .word Label_01004772
@  #03 @023   ----------------------------------------
 .byte   PATT
  .word Label_010047C0
@  #03 @024   ----------------------------------------
 .byte   PATT
  .word Label_01004813
@  #03 @025   ----------------------------------------
 .byte   PATT
  .word Label_01004772
@  #03 @026   ----------------------------------------
 .byte   PATT
  .word Label_010047C0
@  #03 @027   ----------------------------------------
 .byte   PATT
  .word Label_01004813
@  #03 @028   ----------------------------------------
 .byte   PATT
  .word Label_01004772
@  #03 @029   ----------------------------------------
 .byte   PATT
  .word Label_010047C0
@  #03 @030   ----------------------------------------
Label_010048BF:
 .byte   VOL , 31*SMT4B4_mvl/mxv
 .byte   PAN , c_v-23
 .byte   VOL , 31*SMT4B4_mvl/mxv
 .byte   PAN , c_v-23
 .byte   N12 ,Fn1 ,v112
 .byte   N12 ,Fn2 ,v088
 .byte   W12
 .byte   N18 ,Fn1 ,v096
 .byte   N18 ,Fn2 ,v064
 .byte   W18
 .byte   N06 ,Fn1 ,v112
 .byte   N06 ,Fn2 ,v080
 .byte   W06
 .byte   Fn1 ,v088
 .byte   N06 ,Fn2 ,v060
 .byte   W06
 .byte   Fn1 ,v088
 .byte   N06 ,Fn2 ,v056
 .byte   W06
 .byte   Fn1 ,v092
 .byte   N06 ,Fn2 ,v060
 .byte   W06
 .byte   Fn1 ,v096
 .byte   N06 ,Fn2 ,v068
 .byte   W06
 .byte   Fn1 ,v096
 .byte   N06 ,Fn2 ,v068
 .byte   W06
 .byte   Fn1 ,v096
 .byte   N06 ,Fn2 ,v068
 .byte   W06
 .byte   N12 ,Fn1 ,v108
 .byte   N12 ,Fn2 ,v088
 .byte   W12
 .byte   N18 ,Fn1 ,v096
 .byte   N18 ,Fn2 ,v064
 .byte   W12
 .byte   PEND 
@  #03 @031   ----------------------------------------
Label_0100490F:
 .byte   W06
 .byte   N06 ,Fn1 ,v108
 .byte   N06 ,Fn2 ,v076
 .byte   W06
 .byte   Fn1 ,v088
 .byte   N06 ,Fn2 ,v056
 .byte   W06
 .byte   Fn1 ,v084
 .byte   N06 ,Fn2 ,v052
 .byte   W06
 .byte   Fn1 ,v088
 .byte   N06 ,Fn2 ,v056
 .byte   W06
 .byte   Fn1 ,v096
 .byte   N06 ,Fn2 ,v064
 .byte   W06
 .byte   Fn1 ,v096
 .byte   N06 ,Fn2 ,v064
 .byte   W06
 .byte   Fn1 ,v096
 .byte   N06 ,Fn2 ,v064
 .byte   W06
 .byte   N12 ,Fn1 ,v112
 .byte   N12 ,Fn2 ,v088
 .byte   W12
 .byte   N18 ,Fn1 ,v096
 .byte   N18 ,Fn2 ,v064
 .byte   W18
 .byte   N06 ,Fn1 ,v112
 .byte   N06 ,Fn2 ,v080
 .byte   W06
 .byte   Fn1 ,v088
 .byte   N06 ,Fn2 ,v060
 .byte   W06
 .byte   Fn1 ,v088
 .byte   N06 ,Fn2 ,v056
 .byte   W06
 .byte   PEND 
@  #03 @032   ----------------------------------------
Label_0100495D:
 .byte   N06 ,Fn1 ,v092
 .byte   N06 ,Fn2 ,v060
 .byte   W06
 .byte   Fn1 ,v096
 .byte   N06 ,Fn2 ,v068
 .byte   W06
 .byte   Fn1 ,v096
 .byte   N06 ,Fn2 ,v068
 .byte   W06
 .byte   Fn1 ,v096
 .byte   N06 ,Fn2 ,v068
 .byte   W06
 .byte   N12 ,Fn1 ,v108
 .byte   N12 ,Fn2 ,v088
 .byte   W12
 .byte   N18 ,Fn1 ,v096
 .byte   N18 ,Fn2 ,v064
 .byte   W18
 .byte   N06 ,Fn1 ,v108
 .byte   N06 ,Fn2 ,v076
 .byte   W06
 .byte   Fn1 ,v088
 .byte   N06 ,Fn2 ,v056
 .byte   W06
 .byte   Fn1 ,v084
 .byte   N06 ,Fn2 ,v052
 .byte   W06
 .byte   Fn1 ,v088
 .byte   N06 ,Fn2 ,v056
 .byte   W06
 .byte   Fn1 ,v096
 .byte   N06 ,Fn2 ,v064
 .byte   W06
 .byte   Fn1 ,v096
 .byte   N06 ,Fn2 ,v064
 .byte   W06
 .byte   Fn1 ,v096
 .byte   N06 ,Fn2 ,v064
 .byte   W06
 .byte   PEND 
@  #03 @033   ----------------------------------------
Label_010049B0:
 .byte   N12 ,Fn1 ,v112
 .byte   N12 ,Fn2 ,v088
 .byte   W12
 .byte   N18 ,Fn1 ,v096
 .byte   N18 ,Fn2 ,v064
 .byte   W18
 .byte   N06 ,Fn1 ,v112
 .byte   N06 ,Fn2 ,v080
 .byte   W06
 .byte   Fn1 ,v088
 .byte   N06 ,Fn2 ,v060
 .byte   W06
 .byte   Fn1 ,v088
 .byte   N06 ,Fn2 ,v056
 .byte   W06
 .byte   Fn1 ,v092
 .byte   N06 ,Fn2 ,v060
 .byte   W06
 .byte   Fn1 ,v096
 .byte   N06 ,Fn2 ,v068
 .byte   W06
 .byte   Fn1 ,v096
 .byte   N06 ,Fn2 ,v068
 .byte   W06
 .byte   Fn1 ,v096
 .byte   N06 ,Fn2 ,v068
 .byte   W06
 .byte   N12 ,Fn1 ,v108
 .byte   N12 ,Fn2 ,v088
 .byte   W12
 .byte   N18 ,Fn1 ,v096
 .byte   N18 ,Fn2 ,v064
 .byte   W12
 .byte   PEND 
@  #03 @034   ----------------------------------------
 .byte   PATT
  .word Label_0100490F
@  #03 @035   ----------------------------------------
 .byte   PATT
  .word Label_0100495D
@  #03 @036   ----------------------------------------
 .byte   PATT
  .word Label_010049B0
@  #03 @037   ----------------------------------------
 .byte   PATT
  .word Label_0100490F
@  #03 @038   ----------------------------------------
 .byte   PATT
  .word Label_0100495D
@  #03 @039   ----------------------------------------
 .byte   PATT
  .word Label_010049B0
@  #03 @040   ----------------------------------------
 .byte   PATT
  .word Label_0100490F
@  #03 @041   ----------------------------------------
 .byte   PATT
  .word Label_0100495D
@  #03 @042   ----------------------------------------
 .byte   W96
@  #03 @043   ----------------------------------------
 .byte   W96
@  #03 @044   ----------------------------------------
 .byte   W96
@  #03 @045   ----------------------------------------
 .byte   W96
@  #03 @046   ----------------------------------------
 .byte   W96
@  #03 @047   ----------------------------------------
 .byte   W96
@  #03 @048   ----------------------------------------
 .byte   W96
@  #03 @049   ----------------------------------------
 .byte   W96
@  #03 @050   ----------------------------------------
 .byte   W96
@  #03 @051   ----------------------------------------
 .byte   W96
@  #03 @052   ----------------------------------------
 .byte   W96
@  #03 @053   ----------------------------------------
 .byte   W96
@  #03 @054   ----------------------------------------
 .byte   W96
@  #03 @055   ----------------------------------------
 .byte   W96
@  #03 @056   ----------------------------------------
 .byte   W96
@  #03 @057   ----------------------------------------
 .byte   W96
@  #03 @058   ----------------------------------------
 .byte   W96
@  #03 @059   ----------------------------------------
 .byte   W96
@  #03 @060   ----------------------------------------
 .byte   W96
@  #03 @061   ----------------------------------------
 .byte   W96
@  #03 @062   ----------------------------------------
 .byte   W96
@  #03 @063   ----------------------------------------
 .byte   W96
@  #03 @064   ----------------------------------------
 .byte   W96
@  #03 @065   ----------------------------------------
 .byte   W96
@  #03 @066   ----------------------------------------
 .byte   W96
@  #03 @067   ----------------------------------------
 .byte   W96
@  #03 @068   ----------------------------------------
 .byte   W96
@  #03 @069   ----------------------------------------
 .byte   GOTO
  .word Label_01004722
@  #03 @070   ----------------------------------------
 .byte   PATT
  .word Label_01004722
@  #03 @071   ----------------------------------------
 .byte   PATT
  .word Label_01004772
@  #03 @072   ----------------------------------------
 .byte   PATT
  .word Label_010047C0
@  #03 @073   ----------------------------------------
 .byte   PATT
  .word Label_01004813
@  #03 @074   ----------------------------------------
 .byte   PATT
  .word Label_01004772
@  #03 @075   ----------------------------------------
 .byte   PATT
  .word Label_010047C0
@  #03 @076   ----------------------------------------
 .byte   PATT
  .word Label_01004813
@  #03 @077   ----------------------------------------
 .byte   PATT
  .word Label_01004772
@  #03 @078   ----------------------------------------
 .byte   PATT
  .word Label_010047C0
@  #03 @079   ----------------------------------------
 .byte   PATT
  .word Label_01004813
@  #03 @080   ----------------------------------------
 .byte   PATT
  .word Label_01004772
@  #03 @081   ----------------------------------------
 .byte   PATT
  .word Label_010047C0
@  #03 @082   ----------------------------------------
 .byte   PATT
  .word Label_01004813
@  #03 @083   ----------------------------------------
 .byte   PATT
  .word Label_01004772
@  #03 @084   ----------------------------------------
 .byte   PATT
  .word Label_010047C0
@  #03 @085   ----------------------------------------
 .byte   PATT
  .word Label_01004813
@  #03 @086   ----------------------------------------
 .byte   PATT
  .word Label_01004772
@  #03 @087   ----------------------------------------
 .byte   PATT
  .word Label_010047C0
@  #03 @088   ----------------------------------------
 .byte   PATT
  .word Label_01004813
@  #03 @089   ----------------------------------------
 .byte   PATT
  .word Label_01004772
@  #03 @090   ----------------------------------------
 .byte   PATT
  .word Label_010047C0
@  #03 @091   ----------------------------------------
 .byte   PATT
  .word Label_01004813
@  #03 @092   ----------------------------------------
 .byte   PATT
  .word Label_01004772
@  #03 @093   ----------------------------------------
 .byte   PATT
  .word Label_010047C0
@  #03 @094   ----------------------------------------
 .byte   PATT
  .word Label_010048BF
@  #03 @095   ----------------------------------------
 .byte   PATT
  .word Label_0100490F
@  #03 @096   ----------------------------------------
 .byte   PATT
  .word Label_0100495D
@  #03 @097   ----------------------------------------
 .byte   PATT
  .word Label_010049B0
@  #03 @098   ----------------------------------------
 .byte   PATT
  .word Label_0100490F
@  #03 @099   ----------------------------------------
 .byte   PATT
  .word Label_0100495D
@  #03 @100   ----------------------------------------
 .byte   PATT
  .word Label_010049B0
@  #03 @101   ----------------------------------------
 .byte   PATT
  .word Label_0100490F
@  #03 @102   ----------------------------------------
 .byte   PATT
  .word Label_0100495D
@  #03 @103   ----------------------------------------
 .byte   PATT
  .word Label_010049B0
@  #03 @104   ----------------------------------------
 .byte   PATT
  .word Label_0100490F
@  #03 @105   ----------------------------------------
 .byte   PATT
  .word Label_0100495D
@  #03 @106   ----------------------------------------
 .byte   W96
@  #03 @107   ----------------------------------------
 .byte   W96
@  #03 @108   ----------------------------------------
 .byte   W96
@  #03 @109   ----------------------------------------
 .byte   W96
@  #03 @110   ----------------------------------------
 .byte   W96
@  #03 @111   ----------------------------------------
 .byte   W96
@  #03 @112   ----------------------------------------
 .byte   W96
@  #03 @113   ----------------------------------------
 .byte   W96
@  #03 @114   ----------------------------------------
 .byte   W96
@  #03 @115   ----------------------------------------
 .byte   W96
@  #03 @116   ----------------------------------------
 .byte   W96
@  #03 @117   ----------------------------------------
 .byte   W96
@  #03 @118   ----------------------------------------
 .byte   W96
@  #03 @119   ----------------------------------------
 .byte   W96
@  #03 @120   ----------------------------------------
 .byte   W96
@  #03 @121   ----------------------------------------
 .byte   W96
@  #03 @122   ----------------------------------------
 .byte   W96
@  #03 @123   ----------------------------------------
 .byte   W96
@  #03 @124   ----------------------------------------
 .byte   W96
@  #03 @125   ----------------------------------------
 .byte   W96
@  #03 @126   ----------------------------------------
 .byte   W96
@  #03 @127   ----------------------------------------
 .byte   W96
@  #03 @128   ----------------------------------------
 .byte   W96
@  #03 @129   ----------------------------------------
 .byte   W96
@  #03 @130   ----------------------------------------
 .byte   W96
@  #03 @131   ----------------------------------------
 .byte   W96
@  #03 @132   ----------------------------------------
 .byte   W96
 .byte   FINE

@**************** Track 4 (Midi-Chn.3) ****************@

SMT4B4_004:
@  #04 @000   ----------------------------------------
 .byte   KEYSH , SMT4B4_key+0
 .byte   VOICE , 40
 .byte   VOL , 44*SMT4B4_mvl/mxv
 .byte   PAN , c_v+0
 .byte   VOL , 44*SMT4B4_mvl/mxv
 .byte   PAN , c_v+0
 .byte   N24 ,En1 ,v096
 .byte   N24 ,En2
 .byte   W96
@  #04 @001   ----------------------------------------
Label_F51C06:
 .byte   W48
 .byte   N24 ,En1 ,v096
 .byte   N24 ,En2
 .byte   W48
 .byte   PEND 
@  #04 @002   ----------------------------------------
 .byte   W96
@  #04 @003   ----------------------------------------
 .byte   En1
 .byte   N24 ,En2
 .byte   W96
@  #04 @004   ----------------------------------------
 .byte   PATT
  .word Label_F51C06
@  #04 @005   ----------------------------------------
 .byte   W96
@  #04 @006   ----------------------------------------
Label_F51C19:
 .byte   W96
@  #04 @007   ----------------------------------------
 .byte   W96
@  #04 @008   ----------------------------------------
 .byte   W96
@  #04 @009   ----------------------------------------
 .byte   W96
@  #04 @010   ----------------------------------------
 .byte   W96
@  #04 @011   ----------------------------------------
 .byte   W96
@  #04 @012   ----------------------------------------
 .byte   W96
@  #04 @013   ----------------------------------------
 .byte   W96
@  #04 @014   ----------------------------------------
 .byte   W96
@  #04 @015   ----------------------------------------
 .byte   W96
@  #04 @016   ----------------------------------------
 .byte   W96
@  #04 @017   ----------------------------------------
 .byte   W96
@  #04 @018   ----------------------------------------
 .byte   W96
@  #04 @019   ----------------------------------------
 .byte   W96
@  #04 @020   ----------------------------------------
 .byte   W96
@  #04 @021   ----------------------------------------
 .byte   W96
@  #04 @022   ----------------------------------------
 .byte   W96
@  #04 @023   ----------------------------------------
 .byte   W96
@  #04 @024   ----------------------------------------
 .byte   W96
@  #04 @025   ----------------------------------------
 .byte   W96
@  #04 @026   ----------------------------------------
 .byte   W96
@  #04 @027   ----------------------------------------
 .byte   W96
@  #04 @028   ----------------------------------------
 .byte   W96
@  #04 @029   ----------------------------------------
 .byte   W96
@  #04 @030   ----------------------------------------
 .byte   W96
@  #04 @031   ----------------------------------------
 .byte   W96
@  #04 @032   ----------------------------------------
 .byte   W96
@  #04 @033   ----------------------------------------
 .byte   W96
@  #04 @034   ----------------------------------------
 .byte   W96
@  #04 @035   ----------------------------------------
 .byte   W96
@  #04 @036   ----------------------------------------
 .byte   W96
@  #04 @037   ----------------------------------------
 .byte   W96
@  #04 @038   ----------------------------------------
 .byte   W96
@  #04 @039   ----------------------------------------
 .byte   W96
@  #04 @040   ----------------------------------------
 .byte   W96
@  #04 @041   ----------------------------------------
 .byte   W96
@  #04 @042   ----------------------------------------
 .byte   W96
@  #04 @043   ----------------------------------------
 .byte   W96
@  #04 @044   ----------------------------------------
 .byte   W96
@  #04 @045   ----------------------------------------
 .byte   W96
@  #04 @046   ----------------------------------------
 .byte   W96
@  #04 @047   ----------------------------------------
 .byte   W96
@  #04 @048   ----------------------------------------
 .byte   W96
@  #04 @049   ----------------------------------------
 .byte   W96
@  #04 @050   ----------------------------------------
 .byte   W96
@  #04 @051   ----------------------------------------
 .byte   W96
@  #04 @052   ----------------------------------------
 .byte   W96
@  #04 @053   ----------------------------------------
 .byte   W96
@  #04 @054   ----------------------------------------
 .byte   W96
@  #04 @055   ----------------------------------------
 .byte   W96
@  #04 @056   ----------------------------------------
 .byte   W96
@  #04 @057   ----------------------------------------
 .byte   W96
@  #04 @058   ----------------------------------------
 .byte   W96
@  #04 @059   ----------------------------------------
 .byte   W96
@  #04 @060   ----------------------------------------
 .byte   W96
@  #04 @061   ----------------------------------------
 .byte   W96
@  #04 @062   ----------------------------------------
 .byte   W96
@  #04 @063   ----------------------------------------
 .byte   W96
@  #04 @064   ----------------------------------------
 .byte   W96
@  #04 @065   ----------------------------------------
 .byte   W96
@  #04 @066   ----------------------------------------
Label_F51C55:
 .byte   VOL , 44*SMT4B4_mvl/mxv
 .byte   PAN , c_v+0
 .byte   VOL , 44*SMT4B4_mvl/mxv
 .byte   PAN , c_v+0
 .byte   N24 ,En1 ,v096
 .byte   N24 ,En2
 .byte   W96
 .byte   PEND 
@  #04 @067   ----------------------------------------
 .byte   PATT
  .word Label_F51C06
@  #04 @068   ----------------------------------------
 .byte   W96
@  #04 @069   ----------------------------------------
 .byte   GOTO
  .word Label_F51C19
@  #04 @070   ----------------------------------------
 .byte   W96
@  #04 @071   ----------------------------------------
 .byte   W96
@  #04 @072   ----------------------------------------
 .byte   W96
@  #04 @073   ----------------------------------------
 .byte   W96
@  #04 @074   ----------------------------------------
 .byte   W96
@  #04 @075   ----------------------------------------
 .byte   W96
@  #04 @076   ----------------------------------------
 .byte   W96
@  #04 @077   ----------------------------------------
 .byte   W96
@  #04 @078   ----------------------------------------
 .byte   W96
@  #04 @079   ----------------------------------------
 .byte   W96
@  #04 @080   ----------------------------------------
 .byte   W96
@  #04 @081   ----------------------------------------
 .byte   W96
@  #04 @082   ----------------------------------------
 .byte   W96
@  #04 @083   ----------------------------------------
 .byte   W96
@  #04 @084   ----------------------------------------
 .byte   W96
@  #04 @085   ----------------------------------------
 .byte   W96
@  #04 @086   ----------------------------------------
 .byte   W96
@  #04 @087   ----------------------------------------
 .byte   W96
@  #04 @088   ----------------------------------------
 .byte   W96
@  #04 @089   ----------------------------------------
 .byte   W96
@  #04 @090   ----------------------------------------
 .byte   W96
@  #04 @091   ----------------------------------------
 .byte   W96
@  #04 @092   ----------------------------------------
 .byte   W96
@  #04 @093   ----------------------------------------
 .byte   W96
@  #04 @094   ----------------------------------------
 .byte   W96
@  #04 @095   ----------------------------------------
 .byte   W96
@  #04 @096   ----------------------------------------
 .byte   W96
@  #04 @097   ----------------------------------------
 .byte   W96
@  #04 @098   ----------------------------------------
 .byte   W96
@  #04 @099   ----------------------------------------
 .byte   W96
@  #04 @100   ----------------------------------------
 .byte   W96
@  #04 @101   ----------------------------------------
 .byte   W96
@  #04 @102   ----------------------------------------
 .byte   W96
@  #04 @103   ----------------------------------------
 .byte   W96
@  #04 @104   ----------------------------------------
 .byte   W96
@  #04 @105   ----------------------------------------
 .byte   W96
@  #04 @106   ----------------------------------------
 .byte   W96
@  #04 @107   ----------------------------------------
 .byte   W96
@  #04 @108   ----------------------------------------
 .byte   W96
@  #04 @109   ----------------------------------------
 .byte   W96
@  #04 @110   ----------------------------------------
 .byte   W96
@  #04 @111   ----------------------------------------
 .byte   W96
@  #04 @112   ----------------------------------------
 .byte   W96
@  #04 @113   ----------------------------------------
 .byte   W96
@  #04 @114   ----------------------------------------
 .byte   W96
@  #04 @115   ----------------------------------------
 .byte   W96
@  #04 @116   ----------------------------------------
 .byte   W96
@  #04 @117   ----------------------------------------
 .byte   W96
@  #04 @118   ----------------------------------------
 .byte   W96
@  #04 @119   ----------------------------------------
 .byte   W96
@  #04 @120   ----------------------------------------
 .byte   W96
@  #04 @121   ----------------------------------------
 .byte   W96
@  #04 @122   ----------------------------------------
 .byte   W96
@  #04 @123   ----------------------------------------
 .byte   W96
@  #04 @124   ----------------------------------------
 .byte   W96
@  #04 @125   ----------------------------------------
 .byte   W96
@  #04 @126   ----------------------------------------
 .byte   W96
@  #04 @127   ----------------------------------------
 .byte   W96
@  #04 @128   ----------------------------------------
 .byte   W96
@  #04 @129   ----------------------------------------
 .byte   W96
@  #04 @130   ----------------------------------------
 .byte   PATT
  .word Label_F51C55
@  #04 @131   ----------------------------------------
 .byte   PATT
  .word Label_F51C06
@  #04 @132   ----------------------------------------
 .byte   W96
 .byte   FINE

@**************** Track 5 (Midi-Chn.4) ****************@

SMT4B4_005:
@  #05 @000   ----------------------------------------
 .byte   KEYSH , SMT4B4_key+0
 .byte   VOICE , 89
 .byte   W96
@  #05 @001   ----------------------------------------
 .byte   W96
@  #05 @002   ----------------------------------------
 .byte   W96
@  #05 @003   ----------------------------------------
 .byte   W96
@  #05 @004   ----------------------------------------
 .byte   W96
@  #05 @005   ----------------------------------------
 .byte   W96
@  #05 @006   ----------------------------------------
Label_01004B2A:
 .byte   PAN , c_v+22
 .byte   VOL , 18*SMT4B4_mvl/mxv
 .byte   PAN , c_v+22
 .byte   VOL , 19*SMT4B4_mvl/mxv
 .byte   TIE ,Bn2 ,v100
 .byte   TIE ,En3
 .byte   W01
 .byte   VOL , 20*SMT4B4_mvl/mxv
 .byte   W01
 .byte   VOL , 22*SMT4B4_mvl/mxv
 .byte   W01
 .byte   VOL , 24*SMT4B4_mvl/mxv
 .byte   W01
 .byte   VOL , 25*SMT4B4_mvl/mxv
 .byte   W01
 .byte   VOL , 27*SMT4B4_mvl/mxv
 .byte   W01
 .byte   VOL , 29*SMT4B4_mvl/mxv
 .byte   W01
 .byte   VOL , 30*SMT4B4_mvl/mxv
 .byte   W01
 .byte   VOL , 31*SMT4B4_mvl/mxv
 .byte   W01
 .byte   VOL , 34*SMT4B4_mvl/mxv
 .byte   W01
 .byte   VOL , 35*SMT4B4_mvl/mxv
 .byte   W01
 .byte   VOL , 37*SMT4B4_mvl/mxv
 .byte   W01
 .byte   VOL , 38*SMT4B4_mvl/mxv
 .byte   W48
 .byte   VOL , 37*SMT4B4_mvl/mxv
 .byte   W01
 .byte   VOL , 36*SMT4B4_mvl/mxv
 .byte   W01
 .byte   VOL , 35*SMT4B4_mvl/mxv
 .byte   W01
 .byte   VOL , 34*SMT4B4_mvl/mxv
 .byte   W01
 .byte   VOL , 33*SMT4B4_mvl/mxv
 .byte   W01
 .byte   VOL , 32*SMT4B4_mvl/mxv
 .byte   W01
 .byte   VOL , 31*SMT4B4_mvl/mxv
 .byte   W01
 .byte   VOL , 30*SMT4B4_mvl/mxv
 .byte   W01
 .byte   VOL , 29*SMT4B4_mvl/mxv
 .byte   W01
 .byte   VOL , 28*SMT4B4_mvl/mxv
 .byte   W01
 .byte   VOL , 27*SMT4B4_mvl/mxv
 .byte   W01
 .byte   VOL , 26*SMT4B4_mvl/mxv
 .byte   W01
 .byte   VOL , 27*SMT4B4_mvl/mxv
 .byte   W01
 .byte   VOL , 29*SMT4B4_mvl/mxv
 .byte   W01
 .byte   VOL , 30*SMT4B4_mvl/mxv
 .byte   W01
 .byte   VOL , 33*SMT4B4_mvl/mxv
 .byte   W01
 .byte   VOL , 35*SMT4B4_mvl/mxv
 .byte   W01
 .byte   VOL , 36*SMT4B4_mvl/mxv
 .byte   W01
 .byte   VOL , 38*SMT4B4_mvl/mxv
 .byte   W18
 .byte   PEND 
@  #05 @007   ----------------------------------------
Label_01004B78:
 .byte   W32
 .byte   W01
 .byte   VOL , 37*SMT4B4_mvl/mxv
 .byte   W01
 .byte   VOL , 36*SMT4B4_mvl/mxv
 .byte   W01
 .byte   VOL , 35*SMT4B4_mvl/mxv
 .byte   W01
 .byte   VOL , 34*SMT4B4_mvl/mxv
 .byte   W01
 .byte   VOL , 33*SMT4B4_mvl/mxv
 .byte   W01
 .byte   VOL , 32*SMT4B4_mvl/mxv
 .byte   W01
 .byte   VOL , 31*SMT4B4_mvl/mxv
 .byte   W01
 .byte   VOL , 30*SMT4B4_mvl/mxv
 .byte   W01
 .byte   VOL , 29*SMT4B4_mvl/mxv
 .byte   W01
 .byte   VOL , 27*SMT4B4_mvl/mxv
 .byte   W01
 .byte   VOL , 27*SMT4B4_mvl/mxv
 .byte   W01
 .byte   VOL , 26*SMT4B4_mvl/mxv
 .byte   W01
 .byte   VOL , 24*SMT4B4_mvl/mxv
 .byte   W01
 .byte   VOL , 24*SMT4B4_mvl/mxv
 .byte   W01
 .byte   VOL , 23*SMT4B4_mvl/mxv
 .byte   W01
 .byte   VOL , 23*SMT4B4_mvl/mxv
 .byte   W01
 .byte   VOL , 24*SMT4B4_mvl/mxv
 .byte   W01
 .byte   VOL , 25*SMT4B4_mvl/mxv
 .byte   W01
 .byte   VOL , 27*SMT4B4_mvl/mxv
 .byte   W01
 .byte   VOL , 28*SMT4B4_mvl/mxv
 .byte   W01
 .byte   VOL , 29*SMT4B4_mvl/mxv
 .byte   W01
 .byte   VOL , 31*SMT4B4_mvl/mxv
 .byte   W01
 .byte   VOL , 32*SMT4B4_mvl/mxv
 .byte   W01
 .byte   VOL , 33*SMT4B4_mvl/mxv
 .byte   W01
 .byte   VOL , 35*SMT4B4_mvl/mxv
 .byte   W01
 .byte   VOL , 36*SMT4B4_mvl/mxv
 .byte   W01
 .byte   VOL , 37*SMT4B4_mvl/mxv
 .byte   W01
 .byte   VOL , 38*SMT4B4_mvl/mxv
 .byte   W36
 .byte   PEND 
@  #05 @008   ----------------------------------------
Label_01004BB4:
 .byte   W09
 .byte   VOL , 37*SMT4B4_mvl/mxv
 .byte   W01
 .byte   VOL , 37*SMT4B4_mvl/mxv
 .byte   W01
 .byte   VOL , 36*SMT4B4_mvl/mxv
 .byte   W01
 .byte   VOL , 35*SMT4B4_mvl/mxv
 .byte   W01
 .byte   VOL , 35*SMT4B4_mvl/mxv
 .byte   W01
 .byte   VOL , 34*SMT4B4_mvl/mxv
 .byte   W01
 .byte   VOL , 33*SMT4B4_mvl/mxv
 .byte   W01
 .byte   VOL , 33*SMT4B4_mvl/mxv
 .byte   W01
 .byte   VOL , 32*SMT4B4_mvl/mxv
 .byte   W01
 .byte   VOL , 31*SMT4B4_mvl/mxv
 .byte   W01
 .byte   VOL , 30*SMT4B4_mvl/mxv
 .byte   W01
 .byte   VOL , 30*SMT4B4_mvl/mxv
 .byte   W01
 .byte   VOL , 29*SMT4B4_mvl/mxv
 .byte   W01
 .byte   VOL , 28*SMT4B4_mvl/mxv
 .byte   W01
 .byte   VOL , 27*SMT4B4_mvl/mxv
 .byte   W01
 .byte   VOL , 28*SMT4B4_mvl/mxv
 .byte   W01
 .byte   VOL , 28*SMT4B4_mvl/mxv
 .byte   W01
 .byte   VOL , 29*SMT4B4_mvl/mxv
 .byte   W01
 .byte   VOL , 30*SMT4B4_mvl/mxv
 .byte   W01
 .byte   VOL , 31*SMT4B4_mvl/mxv
 .byte   W01
 .byte   VOL , 32*SMT4B4_mvl/mxv
 .byte   W01
 .byte   VOL , 33*SMT4B4_mvl/mxv
 .byte   W01
 .byte   VOL , 34*SMT4B4_mvl/mxv
 .byte   W01
 .byte   VOL , 35*SMT4B4_mvl/mxv
 .byte   W01
 .byte   VOL , 36*SMT4B4_mvl/mxv
 .byte   W01
 .byte   VOL , 37*SMT4B4_mvl/mxv
 .byte   W01
 .byte   VOL , 37*SMT4B4_mvl/mxv
 .byte   W01
 .byte   VOL , 38*SMT4B4_mvl/mxv
 .byte   W32
 .byte   W01
 .byte   VOL , 38*SMT4B4_mvl/mxv
 .byte   W01
 .byte   VOL , 37*SMT4B4_mvl/mxv
 .byte   W02
 .byte   VOL , 37*SMT4B4_mvl/mxv
 .byte   W01
 .byte   VOL , 37*SMT4B4_mvl/mxv
 .byte   W02
 .byte   VOL , 36*SMT4B4_mvl/mxv
 .byte   W01
 .byte   VOL , 36*SMT4B4_mvl/mxv
 .byte   W02
 .byte   VOL , 35*SMT4B4_mvl/mxv
 .byte   W01
 .byte   VOL , 35*SMT4B4_mvl/mxv
 .byte   W02
 .byte   VOL , 35*SMT4B4_mvl/mxv
 .byte   W01
 .byte   VOL , 34*SMT4B4_mvl/mxv
 .byte   W02
 .byte   VOL , 34*SMT4B4_mvl/mxv
 .byte   W01
 .byte   VOL , 33*SMT4B4_mvl/mxv
 .byte   W02
 .byte   VOL , 33*SMT4B4_mvl/mxv
 .byte   W01
 .byte   VOL , 33*SMT4B4_mvl/mxv
 .byte   W02
 .byte   VOL , 32*SMT4B4_mvl/mxv
 .byte   W01
 .byte   VOL , 32*SMT4B4_mvl/mxv
 .byte   W02
 .byte   VOL , 28*SMT4B4_mvl/mxv
 .byte   W01
 .byte   VOL , 25*SMT4B4_mvl/mxv
 .byte   W01
 .byte   VOL , 22*SMT4B4_mvl/mxv
 .byte   W01
 .byte   PEND 
@  #05 @009   ----------------------------------------
 .byte   EOT
 .byte   Bn2 ,v064
Label_01004C19:
 .byte   VOL , 19*SMT4B4_mvl/mxv
 .byte   TIE ,Cn3 ,v100
 .byte   TIE ,En3
 .byte   W01
 .byte   VOL , 20*SMT4B4_mvl/mxv
 .byte   W01
 .byte   VOL , 22*SMT4B4_mvl/mxv
 .byte   W01
 .byte   VOL , 24*SMT4B4_mvl/mxv
 .byte   W01
 .byte   VOL , 25*SMT4B4_mvl/mxv
 .byte   W01
 .byte   VOL , 27*SMT4B4_mvl/mxv
 .byte   W01
 .byte   VOL , 29*SMT4B4_mvl/mxv
 .byte   W01
 .byte   VOL , 30*SMT4B4_mvl/mxv
 .byte   W01
 .byte   VOL , 31*SMT4B4_mvl/mxv
 .byte   W01
 .byte   VOL , 34*SMT4B4_mvl/mxv
 .byte   W01
 .byte   VOL , 35*SMT4B4_mvl/mxv
 .byte   W01
 .byte   VOL , 37*SMT4B4_mvl/mxv
 .byte   W01
 .byte   VOL , 38*SMT4B4_mvl/mxv
 .byte   W48
 .byte   VOL , 37*SMT4B4_mvl/mxv
 .byte   W01
 .byte   VOL , 36*SMT4B4_mvl/mxv
 .byte   W01
 .byte   VOL , 35*SMT4B4_mvl/mxv
 .byte   W01
 .byte   VOL , 34*SMT4B4_mvl/mxv
 .byte   W01
 .byte   VOL , 33*SMT4B4_mvl/mxv
 .byte   W01
 .byte   VOL , 32*SMT4B4_mvl/mxv
 .byte   W01
 .byte   VOL , 31*SMT4B4_mvl/mxv
 .byte   W01
 .byte   VOL , 30*SMT4B4_mvl/mxv
 .byte   W01
 .byte   VOL , 29*SMT4B4_mvl/mxv
 .byte   W01
 .byte   VOL , 28*SMT4B4_mvl/mxv
 .byte   W01
 .byte   VOL , 27*SMT4B4_mvl/mxv
 .byte   W01
 .byte   VOL , 26*SMT4B4_mvl/mxv
 .byte   W01
 .byte   VOL , 27*SMT4B4_mvl/mxv
 .byte   W01
 .byte   VOL , 29*SMT4B4_mvl/mxv
 .byte   W01
 .byte   VOL , 30*SMT4B4_mvl/mxv
 .byte   W01
 .byte   VOL , 33*SMT4B4_mvl/mxv
 .byte   W01
 .byte   VOL , 35*SMT4B4_mvl/mxv
 .byte   W01
 .byte   VOL , 36*SMT4B4_mvl/mxv
 .byte   W01
 .byte   VOL , 38*SMT4B4_mvl/mxv
 .byte   W18
 .byte   PEND 
@  #05 @010   ----------------------------------------
 .byte   PATT
  .word Label_01004B78
@  #05 @011   ----------------------------------------
Label_01004C66:
 .byte   W09
 .byte   VOL , 37*SMT4B4_mvl/mxv
 .byte   W01
 .byte   VOL , 37*SMT4B4_mvl/mxv
 .byte   W01
 .byte   VOL , 36*SMT4B4_mvl/mxv
 .byte   W01
 .byte   VOL , 35*SMT4B4_mvl/mxv
 .byte   W01
 .byte   VOL , 35*SMT4B4_mvl/mxv
 .byte   W01
 .byte   VOL , 34*SMT4B4_mvl/mxv
 .byte   W01
 .byte   VOL , 33*SMT4B4_mvl/mxv
 .byte   W01
 .byte   VOL , 33*SMT4B4_mvl/mxv
 .byte   W01
 .byte   VOL , 32*SMT4B4_mvl/mxv
 .byte   W01
 .byte   VOL , 31*SMT4B4_mvl/mxv
 .byte   W01
 .byte   VOL , 30*SMT4B4_mvl/mxv
 .byte   W01
 .byte   VOL , 30*SMT4B4_mvl/mxv
 .byte   W01
 .byte   VOL , 29*SMT4B4_mvl/mxv
 .byte   W01
 .byte   VOL , 28*SMT4B4_mvl/mxv
 .byte   W01
 .byte   VOL , 27*SMT4B4_mvl/mxv
 .byte   W01
 .byte   VOL , 28*SMT4B4_mvl/mxv
 .byte   W01
 .byte   VOL , 28*SMT4B4_mvl/mxv
 .byte   W01
 .byte   VOL , 29*SMT4B4_mvl/mxv
 .byte   W01
 .byte   VOL , 30*SMT4B4_mvl/mxv
 .byte   W01
 .byte   VOL , 31*SMT4B4_mvl/mxv
 .byte   W01
 .byte   VOL , 32*SMT4B4_mvl/mxv
 .byte   W01
 .byte   VOL , 33*SMT4B4_mvl/mxv
 .byte   W01
 .byte   VOL , 34*SMT4B4_mvl/mxv
 .byte   W01
 .byte   VOL , 35*SMT4B4_mvl/mxv
 .byte   W01
 .byte   VOL , 36*SMT4B4_mvl/mxv
 .byte   W01
 .byte   VOL , 37*SMT4B4_mvl/mxv
 .byte   W01
 .byte   VOL , 37*SMT4B4_mvl/mxv
 .byte   W01
 .byte   VOL , 38*SMT4B4_mvl/mxv
 .byte   W32
 .byte   W01
 .byte   VOL , 37*SMT4B4_mvl/mxv
 .byte   W01
 .byte   VOL , 37*SMT4B4_mvl/mxv
 .byte   W01
 .byte   VOL , 37*SMT4B4_mvl/mxv
 .byte   W01
 .byte   VOL , 36*SMT4B4_mvl/mxv
 .byte   W01
 .byte   VOL , 36*SMT4B4_mvl/mxv
 .byte   W01
 .byte   VOL , 35*SMT4B4_mvl/mxv
 .byte   W01
 .byte   VOL , 35*SMT4B4_mvl/mxv
 .byte   W01
 .byte   VOL , 34*SMT4B4_mvl/mxv
 .byte   W01
 .byte   VOL , 34*SMT4B4_mvl/mxv
 .byte   W01
 .byte   VOL , 33*SMT4B4_mvl/mxv
 .byte   W02
 .byte   VOL , 33*SMT4B4_mvl/mxv
 .byte   W01
 .byte   VOL , 32*SMT4B4_mvl/mxv
 .byte   W01
 .byte   VOL , 31*SMT4B4_mvl/mxv
 .byte   W01
 .byte   VOL , 31*SMT4B4_mvl/mxv
 .byte   W01
 .byte   VOL , 30*SMT4B4_mvl/mxv
 .byte   W01
 .byte   VOL , 30*SMT4B4_mvl/mxv
 .byte   W01
 .byte   VOL , 29*SMT4B4_mvl/mxv
 .byte   W01
 .byte   VOL , 29*SMT4B4_mvl/mxv
 .byte   W01
 .byte   VOL , 29*SMT4B4_mvl/mxv
 .byte   W01
 .byte   VOL , 28*SMT4B4_mvl/mxv
 .byte   W01
 .byte   VOL , 27*SMT4B4_mvl/mxv
 .byte   W01
 .byte   VOL , 25*SMT4B4_mvl/mxv
 .byte   W01
 .byte   VOL , 24*SMT4B4_mvl/mxv
 .byte   W01
 .byte   VOL , 22*SMT4B4_mvl/mxv
 .byte   W01
 .byte   VOL , 20*SMT4B4_mvl/mxv
 .byte   W01
 .byte   VOL , 19*SMT4B4_mvl/mxv
 .byte   W01
 .byte   PEND 
@  #05 @012   ----------------------------------------
 .byte   EOT
 .byte   Cn3 ,v064
Label_01004CD9:
 .byte   VOL , 19*SMT4B4_mvl/mxv
 .byte   TIE ,Cs3 ,v100
 .byte   TIE ,En3
 .byte   W01
 .byte   VOL , 20*SMT4B4_mvl/mxv
 .byte   W01
 .byte   VOL , 22*SMT4B4_mvl/mxv
 .byte   W01
 .byte   VOL , 24*SMT4B4_mvl/mxv
 .byte   W01
 .byte   VOL , 25*SMT4B4_mvl/mxv
 .byte   W01
 .byte   VOL , 27*SMT4B4_mvl/mxv
 .byte   W01
 .byte   VOL , 29*SMT4B4_mvl/mxv
 .byte   W01
 .byte   VOL , 30*SMT4B4_mvl/mxv
 .byte   W01
 .byte   VOL , 31*SMT4B4_mvl/mxv
 .byte   W01
 .byte   VOL , 34*SMT4B4_mvl/mxv
 .byte   W01
 .byte   VOL , 35*SMT4B4_mvl/mxv
 .byte   W01
 .byte   VOL , 37*SMT4B4_mvl/mxv
 .byte   W01
 .byte   VOL , 38*SMT4B4_mvl/mxv
 .byte   W48
 .byte   VOL , 37*SMT4B4_mvl/mxv
 .byte   W01
 .byte   VOL , 36*SMT4B4_mvl/mxv
 .byte   W01
 .byte   VOL , 35*SMT4B4_mvl/mxv
 .byte   W01
 .byte   VOL , 34*SMT4B4_mvl/mxv
 .byte   W01
 .byte   VOL , 33*SMT4B4_mvl/mxv
 .byte   W01
 .byte   VOL , 32*SMT4B4_mvl/mxv
 .byte   W01
 .byte   VOL , 31*SMT4B4_mvl/mxv
 .byte   W01
 .byte   VOL , 30*SMT4B4_mvl/mxv
 .byte   W01
 .byte   VOL , 29*SMT4B4_mvl/mxv
 .byte   W01
 .byte   VOL , 28*SMT4B4_mvl/mxv
 .byte   W01
 .byte   VOL , 27*SMT4B4_mvl/mxv
 .byte   W01
 .byte   VOL , 26*SMT4B4_mvl/mxv
 .byte   W01
 .byte   VOL , 27*SMT4B4_mvl/mxv
 .byte   W01
 .byte   VOL , 29*SMT4B4_mvl/mxv
 .byte   W01
 .byte   VOL , 30*SMT4B4_mvl/mxv
 .byte   W01
 .byte   VOL , 33*SMT4B4_mvl/mxv
 .byte   W01
 .byte   VOL , 35*SMT4B4_mvl/mxv
 .byte   W01
 .byte   VOL , 36*SMT4B4_mvl/mxv
 .byte   W01
 .byte   VOL , 37*SMT4B4_mvl/mxv
 .byte   W01
 .byte   VOL , 36*SMT4B4_mvl/mxv
 .byte   W01
 .byte   VOL , 35*SMT4B4_mvl/mxv
 .byte   W01
 .byte   VOL , 34*SMT4B4_mvl/mxv
 .byte   W01
 .byte   VOL , 34*SMT4B4_mvl/mxv
 .byte   W02
 .byte   VOL , 35*SMT4B4_mvl/mxv
 .byte   W01
 .byte   VOL , 35*SMT4B4_mvl/mxv
 .byte   W02
 .byte   VOL , 36*SMT4B4_mvl/mxv
 .byte   W01
 .byte   VOL , 37*SMT4B4_mvl/mxv
 .byte   W02
 .byte   VOL , 37*SMT4B4_mvl/mxv
 .byte   W06
 .byte   PEND 
@  #05 @013   ----------------------------------------
Label_01004D33:
 .byte   W03
 .byte   VOL , 37*SMT4B4_mvl/mxv
 .byte   W20
 .byte   VOL , 38*SMT4B4_mvl/mxv
 .byte   W10
 .byte   VOL , 37*SMT4B4_mvl/mxv
 .byte   W01
 .byte   VOL , 36*SMT4B4_mvl/mxv
 .byte   W01
 .byte   VOL , 35*SMT4B4_mvl/mxv
 .byte   W01
 .byte   VOL , 34*SMT4B4_mvl/mxv
 .byte   W01
 .byte   VOL , 33*SMT4B4_mvl/mxv
 .byte   W01
 .byte   VOL , 32*SMT4B4_mvl/mxv
 .byte   W01
 .byte   VOL , 31*SMT4B4_mvl/mxv
 .byte   W01
 .byte   VOL , 30*SMT4B4_mvl/mxv
 .byte   W01
 .byte   VOL , 29*SMT4B4_mvl/mxv
 .byte   W01
 .byte   VOL , 27*SMT4B4_mvl/mxv
 .byte   W01
 .byte   VOL , 27*SMT4B4_mvl/mxv
 .byte   W01
 .byte   VOL , 26*SMT4B4_mvl/mxv
 .byte   W01
 .byte   VOL , 24*SMT4B4_mvl/mxv
 .byte   W01
 .byte   VOL , 24*SMT4B4_mvl/mxv
 .byte   W01
 .byte   VOL , 23*SMT4B4_mvl/mxv
 .byte   W01
 .byte   VOL , 23*SMT4B4_mvl/mxv
 .byte   W01
 .byte   VOL , 24*SMT4B4_mvl/mxv
 .byte   W01
 .byte   VOL , 25*SMT4B4_mvl/mxv
 .byte   W01
 .byte   VOL , 27*SMT4B4_mvl/mxv
 .byte   W01
 .byte   VOL , 28*SMT4B4_mvl/mxv
 .byte   W01
 .byte   VOL , 29*SMT4B4_mvl/mxv
 .byte   W01
 .byte   VOL , 31*SMT4B4_mvl/mxv
 .byte   W01
 .byte   VOL , 32*SMT4B4_mvl/mxv
 .byte   W01
 .byte   VOL , 33*SMT4B4_mvl/mxv
 .byte   W01
 .byte   VOL , 35*SMT4B4_mvl/mxv
 .byte   W01
 .byte   VOL , 36*SMT4B4_mvl/mxv
 .byte   W01
 .byte   VOL , 37*SMT4B4_mvl/mxv
 .byte   W01
 .byte   VOL , 38*SMT4B4_mvl/mxv
 .byte   W36
 .byte   PEND 
@  #05 @014   ----------------------------------------
 .byte   PATT
  .word Label_01004C66
@  #05 @015   ----------------------------------------
 .byte   EOT
 .byte   Cs3 ,v064
Label_01004D7A:
 .byte   VOL , 19*SMT4B4_mvl/mxv
 .byte   TIE ,Cn3 ,v100
 .byte   TIE ,En3
 .byte   W01
 .byte   VOL , 20*SMT4B4_mvl/mxv
 .byte   W01
 .byte   VOL , 22*SMT4B4_mvl/mxv
 .byte   W01
 .byte   VOL , 24*SMT4B4_mvl/mxv
 .byte   W01
 .byte   VOL , 25*SMT4B4_mvl/mxv
 .byte   W01
 .byte   VOL , 27*SMT4B4_mvl/mxv
 .byte   W01
 .byte   VOL , 29*SMT4B4_mvl/mxv
 .byte   W01
 .byte   VOL , 30*SMT4B4_mvl/mxv
 .byte   W01
 .byte   VOL , 31*SMT4B4_mvl/mxv
 .byte   W01
 .byte   VOL , 34*SMT4B4_mvl/mxv
 .byte   W01
 .byte   VOL , 35*SMT4B4_mvl/mxv
 .byte   W01
 .byte   VOL , 37*SMT4B4_mvl/mxv
 .byte   W01
 .byte   VOL , 38*SMT4B4_mvl/mxv
 .byte   W48
 .byte   VOL , 37*SMT4B4_mvl/mxv
 .byte   W01
 .byte   VOL , 36*SMT4B4_mvl/mxv
 .byte   W01
 .byte   VOL , 35*SMT4B4_mvl/mxv
 .byte   W01
 .byte   VOL , 34*SMT4B4_mvl/mxv
 .byte   W01
 .byte   VOL , 33*SMT4B4_mvl/mxv
 .byte   W01
 .byte   VOL , 32*SMT4B4_mvl/mxv
 .byte   W01
 .byte   VOL , 31*SMT4B4_mvl/mxv
 .byte   W01
 .byte   VOL , 30*SMT4B4_mvl/mxv
 .byte   W01
 .byte   VOL , 29*SMT4B4_mvl/mxv
 .byte   W01
 .byte   VOL , 28*SMT4B4_mvl/mxv
 .byte   W01
 .byte   VOL , 27*SMT4B4_mvl/mxv
 .byte   W01
 .byte   VOL , 26*SMT4B4_mvl/mxv
 .byte   W01
 .byte   VOL , 27*SMT4B4_mvl/mxv
 .byte   W01
 .byte   VOL , 29*SMT4B4_mvl/mxv
 .byte   W01
 .byte   VOL , 30*SMT4B4_mvl/mxv
 .byte   W01
 .byte   VOL , 33*SMT4B4_mvl/mxv
 .byte   W01
 .byte   VOL , 35*SMT4B4_mvl/mxv
 .byte   W01
 .byte   VOL , 36*SMT4B4_mvl/mxv
 .byte   W01
 .byte   VOL , 37*SMT4B4_mvl/mxv
 .byte   W01
 .byte   VOL , 36*SMT4B4_mvl/mxv
 .byte   W01
 .byte   VOL , 35*SMT4B4_mvl/mxv
 .byte   W01
 .byte   VOL , 34*SMT4B4_mvl/mxv
 .byte   W01
 .byte   VOL , 34*SMT4B4_mvl/mxv
 .byte   W02
 .byte   VOL , 35*SMT4B4_mvl/mxv
 .byte   W01
 .byte   VOL , 35*SMT4B4_mvl/mxv
 .byte   W02
 .byte   VOL , 36*SMT4B4_mvl/mxv
 .byte   W01
 .byte   VOL , 37*SMT4B4_mvl/mxv
 .byte   W02
 .byte   VOL , 37*SMT4B4_mvl/mxv
 .byte   W06
 .byte   PEND 
@  #05 @016   ----------------------------------------
 .byte   PATT
  .word Label_01004D33
@  #05 @017   ----------------------------------------
 .byte   PATT
  .word Label_01004C66
@  #05 @018   ----------------------------------------
 .byte   EOT
 .byte   Cn3 ,v064
Label_01004DE1:
 .byte   VOL , 19*SMT4B4_mvl/mxv
 .byte   TIE ,Bn2 ,v100
 .byte   TIE ,En3
 .byte   W01
 .byte   VOL , 20*SMT4B4_mvl/mxv
 .byte   W01
 .byte   VOL , 22*SMT4B4_mvl/mxv
 .byte   W01
 .byte   VOL , 24*SMT4B4_mvl/mxv
 .byte   W01
 .byte   VOL , 25*SMT4B4_mvl/mxv
 .byte   W01
 .byte   VOL , 27*SMT4B4_mvl/mxv
 .byte   W01
 .byte   VOL , 29*SMT4B4_mvl/mxv
 .byte   W01
 .byte   VOL , 30*SMT4B4_mvl/mxv
 .byte   W01
 .byte   VOL , 31*SMT4B4_mvl/mxv
 .byte   W01
 .byte   VOL , 34*SMT4B4_mvl/mxv
 .byte   W01
 .byte   VOL , 35*SMT4B4_mvl/mxv
 .byte   W01
 .byte   VOL , 37*SMT4B4_mvl/mxv
 .byte   W01
 .byte   VOL , 38*SMT4B4_mvl/mxv
 .byte   W48
 .byte   VOL , 37*SMT4B4_mvl/mxv
 .byte   W01
 .byte   VOL , 36*SMT4B4_mvl/mxv
 .byte   W01
 .byte   VOL , 35*SMT4B4_mvl/mxv
 .byte   W01
 .byte   VOL , 34*SMT4B4_mvl/mxv
 .byte   W01
 .byte   VOL , 33*SMT4B4_mvl/mxv
 .byte   W01
 .byte   VOL , 32*SMT4B4_mvl/mxv
 .byte   W01
 .byte   VOL , 31*SMT4B4_mvl/mxv
 .byte   W01
 .byte   VOL , 30*SMT4B4_mvl/mxv
 .byte   W01
 .byte   VOL , 29*SMT4B4_mvl/mxv
 .byte   W01
 .byte   VOL , 28*SMT4B4_mvl/mxv
 .byte   W01
 .byte   VOL , 27*SMT4B4_mvl/mxv
 .byte   W01
 .byte   VOL , 26*SMT4B4_mvl/mxv
 .byte   W01
 .byte   VOL , 27*SMT4B4_mvl/mxv
 .byte   W01
 .byte   VOL , 29*SMT4B4_mvl/mxv
 .byte   W01
 .byte   VOL , 30*SMT4B4_mvl/mxv
 .byte   W01
 .byte   VOL , 33*SMT4B4_mvl/mxv
 .byte   W01
 .byte   VOL , 35*SMT4B4_mvl/mxv
 .byte   W01
 .byte   VOL , 36*SMT4B4_mvl/mxv
 .byte   W01
 .byte   VOL , 38*SMT4B4_mvl/mxv
 .byte   W18
 .byte   PEND 
@  #05 @019   ----------------------------------------
 .byte   PATT
  .word Label_01004B78
@  #05 @020   ----------------------------------------
 .byte   PATT
  .word Label_01004BB4
@  #05 @021   ----------------------------------------
 .byte   EOT
 .byte   Bn2 ,v064
@  #05 @022   ----------------------------------------
 .byte   PATT
  .word Label_01004C19
@  #05 @023   ----------------------------------------
 .byte   PATT
  .word Label_01004B78
@  #05 @024   ----------------------------------------
 .byte   PATT
  .word Label_01004C66
@  #05 @025   ----------------------------------------
 .byte   EOT
 .byte   Cn3 ,v064
@  #05 @026   ----------------------------------------
 .byte   PATT
  .word Label_01004CD9
@  #05 @027   ----------------------------------------
 .byte   PATT
  .word Label_01004D33
@  #05 @028   ----------------------------------------
 .byte   PATT
  .word Label_01004C66
@  #05 @029   ----------------------------------------
 .byte   EOT
 .byte   Cs3 ,v064
@  #05 @030   ----------------------------------------
 .byte   PATT
  .word Label_01004D7A
@  #05 @031   ----------------------------------------
 .byte   PATT
  .word Label_01004D33
@  #05 @032   ----------------------------------------
Label_01004E64:
 .byte   W09
 .byte   VOL , 37*SMT4B4_mvl/mxv
 .byte   W01
 .byte   VOL , 37*SMT4B4_mvl/mxv
 .byte   W01
 .byte   VOL , 36*SMT4B4_mvl/mxv
 .byte   W01
 .byte   VOL , 35*SMT4B4_mvl/mxv
 .byte   W01
 .byte   VOL , 35*SMT4B4_mvl/mxv
 .byte   W01
 .byte   VOL , 34*SMT4B4_mvl/mxv
 .byte   W01
 .byte   VOL , 33*SMT4B4_mvl/mxv
 .byte   W01
 .byte   VOL , 33*SMT4B4_mvl/mxv
 .byte   W01
 .byte   VOL , 32*SMT4B4_mvl/mxv
 .byte   W01
 .byte   VOL , 31*SMT4B4_mvl/mxv
 .byte   W01
 .byte   VOL , 30*SMT4B4_mvl/mxv
 .byte   W01
 .byte   VOL , 30*SMT4B4_mvl/mxv
 .byte   W01
 .byte   VOL , 29*SMT4B4_mvl/mxv
 .byte   W01
 .byte   VOL , 28*SMT4B4_mvl/mxv
 .byte   W01
 .byte   VOL , 27*SMT4B4_mvl/mxv
 .byte   W01
 .byte   VOL , 28*SMT4B4_mvl/mxv
 .byte   W01
 .byte   VOL , 28*SMT4B4_mvl/mxv
 .byte   W01
 .byte   VOL , 29*SMT4B4_mvl/mxv
 .byte   W01
 .byte   VOL , 30*SMT4B4_mvl/mxv
 .byte   W01
 .byte   VOL , 31*SMT4B4_mvl/mxv
 .byte   W01
 .byte   VOL , 32*SMT4B4_mvl/mxv
 .byte   W01
 .byte   VOL , 33*SMT4B4_mvl/mxv
 .byte   W01
 .byte   VOL , 34*SMT4B4_mvl/mxv
 .byte   W01
 .byte   VOL , 35*SMT4B4_mvl/mxv
 .byte   W01
 .byte   VOL , 36*SMT4B4_mvl/mxv
 .byte   W01
 .byte   VOL , 37*SMT4B4_mvl/mxv
 .byte   W01
 .byte   VOL , 37*SMT4B4_mvl/mxv
 .byte   W01
 .byte   VOL , 38*SMT4B4_mvl/mxv
 .byte   W32
 .byte   W01
 .byte   VOL , 37*SMT4B4_mvl/mxv
 .byte   W01
 .byte   VOL , 37*SMT4B4_mvl/mxv
 .byte   W01
 .byte   VOL , 37*SMT4B4_mvl/mxv
 .byte   W01
 .byte   VOL , 36*SMT4B4_mvl/mxv
 .byte   W01
 .byte   VOL , 36*SMT4B4_mvl/mxv
 .byte   W01
 .byte   VOL , 35*SMT4B4_mvl/mxv
 .byte   W01
 .byte   VOL , 35*SMT4B4_mvl/mxv
 .byte   W01
 .byte   VOL , 34*SMT4B4_mvl/mxv
 .byte   W01
 .byte   VOL , 34*SMT4B4_mvl/mxv
 .byte   W01
 .byte   VOL , 33*SMT4B4_mvl/mxv
 .byte   W02
 .byte   VOL , 33*SMT4B4_mvl/mxv
 .byte   W01
 .byte   VOL , 32*SMT4B4_mvl/mxv
 .byte   W01
 .byte   VOL , 31*SMT4B4_mvl/mxv
 .byte   W01
 .byte   VOL , 31*SMT4B4_mvl/mxv
 .byte   W01
 .byte   VOL , 30*SMT4B4_mvl/mxv
 .byte   W01
 .byte   VOL , 30*SMT4B4_mvl/mxv
 .byte   W01
 .byte   VOL , 29*SMT4B4_mvl/mxv
 .byte   W01
 .byte   VOL , 29*SMT4B4_mvl/mxv
 .byte   W01
 .byte   VOL , 29*SMT4B4_mvl/mxv
 .byte   W01
 .byte   VOL , 28*SMT4B4_mvl/mxv
 .byte   W01
 .byte   VOL , 28*SMT4B4_mvl/mxv
 .byte   W06
 .byte   PEND 
@  #05 @033   ----------------------------------------
 .byte   EOT
 .byte   Cn3 ,v064
 .byte   W96
@  #05 @034   ----------------------------------------
 .byte   W96
@  #05 @035   ----------------------------------------
 .byte   W96
@  #05 @036   ----------------------------------------
 .byte   W96
@  #05 @037   ----------------------------------------
 .byte   W96
@  #05 @038   ----------------------------------------
 .byte   W96
@  #05 @039   ----------------------------------------
Label_01004ED3:
 .byte   VOL , 18*SMT4B4_mvl/mxv
 .byte   PAN , c_v+22
 .byte   VOL , 19*SMT4B4_mvl/mxv
 .byte   TIE ,Cn3 ,v100
 .byte   TIE ,Fn3
 .byte   W01
 .byte   VOL , 20*SMT4B4_mvl/mxv
 .byte   W01
 .byte   VOL , 22*SMT4B4_mvl/mxv
 .byte   W01
 .byte   VOL , 24*SMT4B4_mvl/mxv
 .byte   W01
 .byte   VOL , 25*SMT4B4_mvl/mxv
 .byte   W01
 .byte   VOL , 27*SMT4B4_mvl/mxv
 .byte   W01
 .byte   VOL , 29*SMT4B4_mvl/mxv
 .byte   W01
 .byte   VOL , 30*SMT4B4_mvl/mxv
 .byte   W01
 .byte   VOL , 31*SMT4B4_mvl/mxv
 .byte   W01
 .byte   VOL , 34*SMT4B4_mvl/mxv
 .byte   W01
 .byte   VOL , 35*SMT4B4_mvl/mxv
 .byte   W01
 .byte   VOL , 37*SMT4B4_mvl/mxv
 .byte   W01
 .byte   VOL , 38*SMT4B4_mvl/mxv
 .byte   W48
 .byte   VOL , 37*SMT4B4_mvl/mxv
 .byte   W01
 .byte   VOL , 36*SMT4B4_mvl/mxv
 .byte   W01
 .byte   VOL , 35*SMT4B4_mvl/mxv
 .byte   W01
 .byte   VOL , 34*SMT4B4_mvl/mxv
 .byte   W01
 .byte   VOL , 33*SMT4B4_mvl/mxv
 .byte   W01
 .byte   VOL , 32*SMT4B4_mvl/mxv
 .byte   W01
 .byte   VOL , 31*SMT4B4_mvl/mxv
 .byte   W01
 .byte   VOL , 30*SMT4B4_mvl/mxv
 .byte   W01
 .byte   VOL , 29*SMT4B4_mvl/mxv
 .byte   W01
 .byte   VOL , 28*SMT4B4_mvl/mxv
 .byte   W01
 .byte   VOL , 27*SMT4B4_mvl/mxv
 .byte   W01
 .byte   VOL , 26*SMT4B4_mvl/mxv
 .byte   W01
 .byte   VOL , 27*SMT4B4_mvl/mxv
 .byte   W01
 .byte   VOL , 29*SMT4B4_mvl/mxv
 .byte   W01
 .byte   VOL , 30*SMT4B4_mvl/mxv
 .byte   W01
 .byte   VOL , 33*SMT4B4_mvl/mxv
 .byte   W01
 .byte   VOL , 35*SMT4B4_mvl/mxv
 .byte   W01
 .byte   VOL , 36*SMT4B4_mvl/mxv
 .byte   W01
 .byte   VOL , 38*SMT4B4_mvl/mxv
 .byte   W18
 .byte   PEND 
@  #05 @040   ----------------------------------------
 .byte   PATT
  .word Label_01004B78
@  #05 @041   ----------------------------------------
 .byte   PATT
  .word Label_01004BB4
@  #05 @042   ----------------------------------------
 .byte   EOT
 .byte   Cn3 ,v065
@  #05 @043   ----------------------------------------
 .byte   PATT
  .word Label_01004ED3
@  #05 @044   ----------------------------------------
 .byte   PATT
  .word Label_01004B78
@  #05 @045   ----------------------------------------
 .byte   PATT
  .word Label_01004BB4
@  #05 @046   ----------------------------------------
 .byte   EOT
 .byte   Cn3 ,v065
Label_01004F3E:
 .byte   VOL , 18*SMT4B4_mvl/mxv
 .byte   PAN , c_v+22
 .byte   VOL , 19*SMT4B4_mvl/mxv
 .byte   TIE ,Bn1 ,v100
 .byte   TIE ,En2
 .byte   W01
 .byte   VOL , 20*SMT4B4_mvl/mxv
 .byte   W01
 .byte   VOL , 22*SMT4B4_mvl/mxv
 .byte   W01
 .byte   VOL , 24*SMT4B4_mvl/mxv
 .byte   W01
 .byte   VOL , 25*SMT4B4_mvl/mxv
 .byte   W01
 .byte   VOL , 27*SMT4B4_mvl/mxv
 .byte   W01
 .byte   VOL , 29*SMT4B4_mvl/mxv
 .byte   W01
 .byte   VOL , 30*SMT4B4_mvl/mxv
 .byte   W01
 .byte   VOL , 31*SMT4B4_mvl/mxv
 .byte   W01
 .byte   VOL , 34*SMT4B4_mvl/mxv
 .byte   W01
 .byte   VOL , 35*SMT4B4_mvl/mxv
 .byte   W01
 .byte   VOL , 37*SMT4B4_mvl/mxv
 .byte   W01
 .byte   VOL , 38*SMT4B4_mvl/mxv
 .byte   W48
 .byte   VOL , 37*SMT4B4_mvl/mxv
 .byte   W01
 .byte   VOL , 36*SMT4B4_mvl/mxv
 .byte   W01
 .byte   VOL , 35*SMT4B4_mvl/mxv
 .byte   W01
 .byte   VOL , 34*SMT4B4_mvl/mxv
 .byte   W01
 .byte   VOL , 33*SMT4B4_mvl/mxv
 .byte   W01
 .byte   VOL , 32*SMT4B4_mvl/mxv
 .byte   W01
 .byte   VOL , 31*SMT4B4_mvl/mxv
 .byte   W01
 .byte   VOL , 30*SMT4B4_mvl/mxv
 .byte   W01
 .byte   VOL , 29*SMT4B4_mvl/mxv
 .byte   W01
 .byte   VOL , 28*SMT4B4_mvl/mxv
 .byte   W01
 .byte   VOL , 27*SMT4B4_mvl/mxv
 .byte   W01
 .byte   VOL , 26*SMT4B4_mvl/mxv
 .byte   W01
 .byte   VOL , 27*SMT4B4_mvl/mxv
 .byte   W01
 .byte   VOL , 29*SMT4B4_mvl/mxv
 .byte   W01
 .byte   VOL , 30*SMT4B4_mvl/mxv
 .byte   W01
 .byte   VOL , 33*SMT4B4_mvl/mxv
 .byte   W01
 .byte   VOL , 35*SMT4B4_mvl/mxv
 .byte   W01
 .byte   VOL , 36*SMT4B4_mvl/mxv
 .byte   W01
 .byte   VOL , 38*SMT4B4_mvl/mxv
 .byte   W18
 .byte   PEND 
@  #05 @047   ----------------------------------------
 .byte   PATT
  .word Label_01004B78
@  #05 @048   ----------------------------------------
 .byte   PATT
  .word Label_01004BB4
@  #05 @049   ----------------------------------------
 .byte   EOT
 .byte   Bn1 ,v052
Label_01004F97:
 .byte   VOL , 19*SMT4B4_mvl/mxv
 .byte   TIE ,Cn2 ,v100
 .byte   TIE ,En2
 .byte   W01
 .byte   VOL , 20*SMT4B4_mvl/mxv
 .byte   W01
 .byte   VOL , 22*SMT4B4_mvl/mxv
 .byte   W01
 .byte   VOL , 24*SMT4B4_mvl/mxv
 .byte   W01
 .byte   VOL , 25*SMT4B4_mvl/mxv
 .byte   W01
 .byte   VOL , 27*SMT4B4_mvl/mxv
 .byte   W01
 .byte   VOL , 29*SMT4B4_mvl/mxv
 .byte   W01
 .byte   VOL , 30*SMT4B4_mvl/mxv
 .byte   W01
 .byte   VOL , 31*SMT4B4_mvl/mxv
 .byte   W01
 .byte   VOL , 34*SMT4B4_mvl/mxv
 .byte   W01
 .byte   VOL , 35*SMT4B4_mvl/mxv
 .byte   W01
 .byte   VOL , 37*SMT4B4_mvl/mxv
 .byte   W01
 .byte   VOL , 38*SMT4B4_mvl/mxv
 .byte   W48
 .byte   VOL , 37*SMT4B4_mvl/mxv
 .byte   W01
 .byte   VOL , 36*SMT4B4_mvl/mxv
 .byte   W01
 .byte   VOL , 35*SMT4B4_mvl/mxv
 .byte   W01
 .byte   VOL , 34*SMT4B4_mvl/mxv
 .byte   W01
 .byte   VOL , 33*SMT4B4_mvl/mxv
 .byte   W01
 .byte   VOL , 32*SMT4B4_mvl/mxv
 .byte   W01
 .byte   VOL , 31*SMT4B4_mvl/mxv
 .byte   W01
 .byte   VOL , 30*SMT4B4_mvl/mxv
 .byte   W01
 .byte   VOL , 29*SMT4B4_mvl/mxv
 .byte   W01
 .byte   VOL , 28*SMT4B4_mvl/mxv
 .byte   W01
 .byte   VOL , 27*SMT4B4_mvl/mxv
 .byte   W01
 .byte   VOL , 26*SMT4B4_mvl/mxv
 .byte   W01
 .byte   VOL , 27*SMT4B4_mvl/mxv
 .byte   W01
 .byte   VOL , 29*SMT4B4_mvl/mxv
 .byte   W01
 .byte   VOL , 30*SMT4B4_mvl/mxv
 .byte   W01
 .byte   VOL , 33*SMT4B4_mvl/mxv
 .byte   W01
 .byte   VOL , 35*SMT4B4_mvl/mxv
 .byte   W01
 .byte   VOL , 36*SMT4B4_mvl/mxv
 .byte   W01
 .byte   VOL , 38*SMT4B4_mvl/mxv
 .byte   W18
 .byte   PEND 
@  #05 @050   ----------------------------------------
 .byte   PATT
  .word Label_01004B78
@  #05 @051   ----------------------------------------
 .byte   PATT
  .word Label_01004C66
@  #05 @052   ----------------------------------------
 .byte   EOT
 .byte   Cn2 ,v052
Label_01004FEC:
 .byte   VOL , 19*SMT4B4_mvl/mxv
 .byte   TIE ,Bn1 ,v100
 .byte   TIE ,En2
 .byte   W01
 .byte   VOL , 20*SMT4B4_mvl/mxv
 .byte   W01
 .byte   VOL , 22*SMT4B4_mvl/mxv
 .byte   W01
 .byte   VOL , 24*SMT4B4_mvl/mxv
 .byte   W01
 .byte   VOL , 25*SMT4B4_mvl/mxv
 .byte   W01
 .byte   VOL , 27*SMT4B4_mvl/mxv
 .byte   W01
 .byte   VOL , 29*SMT4B4_mvl/mxv
 .byte   W01
 .byte   VOL , 30*SMT4B4_mvl/mxv
 .byte   W01
 .byte   VOL , 31*SMT4B4_mvl/mxv
 .byte   W01
 .byte   VOL , 34*SMT4B4_mvl/mxv
 .byte   W01
 .byte   VOL , 35*SMT4B4_mvl/mxv
 .byte   W01
 .byte   VOL , 37*SMT4B4_mvl/mxv
 .byte   W01
 .byte   VOL , 38*SMT4B4_mvl/mxv
 .byte   W48
 .byte   VOL , 37*SMT4B4_mvl/mxv
 .byte   W01
 .byte   VOL , 36*SMT4B4_mvl/mxv
 .byte   W01
 .byte   VOL , 35*SMT4B4_mvl/mxv
 .byte   W01
 .byte   VOL , 34*SMT4B4_mvl/mxv
 .byte   W01
 .byte   VOL , 33*SMT4B4_mvl/mxv
 .byte   W01
 .byte   VOL , 32*SMT4B4_mvl/mxv
 .byte   W01
 .byte   VOL , 31*SMT4B4_mvl/mxv
 .byte   W01
 .byte   VOL , 30*SMT4B4_mvl/mxv
 .byte   W01
 .byte   VOL , 29*SMT4B4_mvl/mxv
 .byte   W01
 .byte   VOL , 28*SMT4B4_mvl/mxv
 .byte   W01
 .byte   VOL , 27*SMT4B4_mvl/mxv
 .byte   W01
 .byte   VOL , 26*SMT4B4_mvl/mxv
 .byte   W01
 .byte   VOL , 27*SMT4B4_mvl/mxv
 .byte   W01
 .byte   VOL , 29*SMT4B4_mvl/mxv
 .byte   W01
 .byte   VOL , 30*SMT4B4_mvl/mxv
 .byte   W01
 .byte   VOL , 33*SMT4B4_mvl/mxv
 .byte   W01
 .byte   VOL , 35*SMT4B4_mvl/mxv
 .byte   W01
 .byte   VOL , 36*SMT4B4_mvl/mxv
 .byte   W01
 .byte   VOL , 37*SMT4B4_mvl/mxv
 .byte   W01
 .byte   VOL , 36*SMT4B4_mvl/mxv
 .byte   W01
 .byte   VOL , 35*SMT4B4_mvl/mxv
 .byte   W01
 .byte   VOL , 34*SMT4B4_mvl/mxv
 .byte   W01
 .byte   VOL , 34*SMT4B4_mvl/mxv
 .byte   W02
 .byte   VOL , 35*SMT4B4_mvl/mxv
 .byte   W01
 .byte   VOL , 35*SMT4B4_mvl/mxv
 .byte   W02
 .byte   VOL , 36*SMT4B4_mvl/mxv
 .byte   W01
 .byte   VOL , 37*SMT4B4_mvl/mxv
 .byte   W02
 .byte   VOL , 37*SMT4B4_mvl/mxv
 .byte   W06
 .byte   PEND 
@  #05 @053   ----------------------------------------
 .byte   PATT
  .word Label_01004D33
@  #05 @054   ----------------------------------------
 .byte   PATT
  .word Label_01004C66
@  #05 @055   ----------------------------------------
 .byte   EOT
 .byte   Bn1 ,v052
Label_01005053:
 .byte   VOL , 19*SMT4B4_mvl/mxv
 .byte   TIE ,Cn2 ,v100
 .byte   TIE ,En2
 .byte   W01
 .byte   VOL , 20*SMT4B4_mvl/mxv
 .byte   W01
 .byte   VOL , 22*SMT4B4_mvl/mxv
 .byte   W01
 .byte   VOL , 24*SMT4B4_mvl/mxv
 .byte   W01
 .byte   VOL , 25*SMT4B4_mvl/mxv
 .byte   W01
 .byte   VOL , 27*SMT4B4_mvl/mxv
 .byte   W01
 .byte   VOL , 29*SMT4B4_mvl/mxv
 .byte   W01
 .byte   VOL , 30*SMT4B4_mvl/mxv
 .byte   W01
 .byte   VOL , 31*SMT4B4_mvl/mxv
 .byte   W01
 .byte   VOL , 34*SMT4B4_mvl/mxv
 .byte   W01
 .byte   VOL , 35*SMT4B4_mvl/mxv
 .byte   W01
 .byte   VOL , 37*SMT4B4_mvl/mxv
 .byte   W01
 .byte   VOL , 38*SMT4B4_mvl/mxv
 .byte   W48
 .byte   VOL , 37*SMT4B4_mvl/mxv
 .byte   W01
 .byte   VOL , 36*SMT4B4_mvl/mxv
 .byte   W01
 .byte   VOL , 35*SMT4B4_mvl/mxv
 .byte   W01
 .byte   VOL , 34*SMT4B4_mvl/mxv
 .byte   W01
 .byte   VOL , 33*SMT4B4_mvl/mxv
 .byte   W01
 .byte   VOL , 32*SMT4B4_mvl/mxv
 .byte   W01
 .byte   VOL , 31*SMT4B4_mvl/mxv
 .byte   W01
 .byte   VOL , 30*SMT4B4_mvl/mxv
 .byte   W01
 .byte   VOL , 29*SMT4B4_mvl/mxv
 .byte   W01
 .byte   VOL , 28*SMT4B4_mvl/mxv
 .byte   W01
 .byte   VOL , 27*SMT4B4_mvl/mxv
 .byte   W01
 .byte   VOL , 26*SMT4B4_mvl/mxv
 .byte   W01
 .byte   VOL , 27*SMT4B4_mvl/mxv
 .byte   W01
 .byte   VOL , 29*SMT4B4_mvl/mxv
 .byte   W01
 .byte   VOL , 30*SMT4B4_mvl/mxv
 .byte   W01
 .byte   VOL , 33*SMT4B4_mvl/mxv
 .byte   W01
 .byte   VOL , 35*SMT4B4_mvl/mxv
 .byte   W01
 .byte   VOL , 36*SMT4B4_mvl/mxv
 .byte   W01
 .byte   VOL , 37*SMT4B4_mvl/mxv
 .byte   W01
 .byte   VOL , 36*SMT4B4_mvl/mxv
 .byte   W01
 .byte   VOL , 35*SMT4B4_mvl/mxv
 .byte   W01
 .byte   VOL , 34*SMT4B4_mvl/mxv
 .byte   W01
 .byte   VOL , 34*SMT4B4_mvl/mxv
 .byte   W02
 .byte   VOL , 35*SMT4B4_mvl/mxv
 .byte   W01
 .byte   VOL , 35*SMT4B4_mvl/mxv
 .byte   W02
 .byte   VOL , 36*SMT4B4_mvl/mxv
 .byte   W01
 .byte   VOL , 37*SMT4B4_mvl/mxv
 .byte   W02
 .byte   VOL , 37*SMT4B4_mvl/mxv
 .byte   W06
 .byte   PEND 
@  #05 @056   ----------------------------------------
 .byte   PATT
  .word Label_01004D33
@  #05 @057   ----------------------------------------
 .byte   PATT
  .word Label_01004C66
@  #05 @058   ----------------------------------------
 .byte   EOT
 .byte   Cn2 ,v052
Label_010050BA:
 .byte   VOL , 19*SMT4B4_mvl/mxv
 .byte   TIE ,Bn1 ,v100
 .byte   TIE ,En2
 .byte   W01
 .byte   VOL , 20*SMT4B4_mvl/mxv
 .byte   W01
 .byte   VOL , 22*SMT4B4_mvl/mxv
 .byte   W01
 .byte   VOL , 24*SMT4B4_mvl/mxv
 .byte   W01
 .byte   VOL , 25*SMT4B4_mvl/mxv
 .byte   W01
 .byte   VOL , 27*SMT4B4_mvl/mxv
 .byte   W01
 .byte   VOL , 29*SMT4B4_mvl/mxv
 .byte   W01
 .byte   VOL , 30*SMT4B4_mvl/mxv
 .byte   W01
 .byte   VOL , 31*SMT4B4_mvl/mxv
 .byte   W01
 .byte   VOL , 34*SMT4B4_mvl/mxv
 .byte   W01
 .byte   VOL , 35*SMT4B4_mvl/mxv
 .byte   W01
 .byte   VOL , 37*SMT4B4_mvl/mxv
 .byte   W01
 .byte   VOL , 38*SMT4B4_mvl/mxv
 .byte   W48
 .byte   VOL , 37*SMT4B4_mvl/mxv
 .byte   W01
 .byte   VOL , 36*SMT4B4_mvl/mxv
 .byte   W01
 .byte   VOL , 35*SMT4B4_mvl/mxv
 .byte   W01
 .byte   VOL , 34*SMT4B4_mvl/mxv
 .byte   W01
 .byte   VOL , 33*SMT4B4_mvl/mxv
 .byte   W01
 .byte   VOL , 32*SMT4B4_mvl/mxv
 .byte   W01
 .byte   VOL , 31*SMT4B4_mvl/mxv
 .byte   W01
 .byte   VOL , 30*SMT4B4_mvl/mxv
 .byte   W01
 .byte   VOL , 29*SMT4B4_mvl/mxv
 .byte   W01
 .byte   VOL , 28*SMT4B4_mvl/mxv
 .byte   W01
 .byte   VOL , 27*SMT4B4_mvl/mxv
 .byte   W01
 .byte   VOL , 26*SMT4B4_mvl/mxv
 .byte   W01
 .byte   VOL , 27*SMT4B4_mvl/mxv
 .byte   W01
 .byte   VOL , 29*SMT4B4_mvl/mxv
 .byte   W01
 .byte   VOL , 30*SMT4B4_mvl/mxv
 .byte   W01
 .byte   VOL , 33*SMT4B4_mvl/mxv
 .byte   W01
 .byte   VOL , 35*SMT4B4_mvl/mxv
 .byte   W01
 .byte   VOL , 36*SMT4B4_mvl/mxv
 .byte   W01
 .byte   VOL , 38*SMT4B4_mvl/mxv
 .byte   W18
 .byte   PEND 
@  #05 @059   ----------------------------------------
 .byte   PATT
  .word Label_01004B78
@  #05 @060   ----------------------------------------
 .byte   PATT
  .word Label_01004BB4
@  #05 @061   ----------------------------------------
 .byte   EOT
 .byte   Bn1 ,v052
@  #05 @062   ----------------------------------------
 .byte   PATT
  .word Label_01004F97
@  #05 @063   ----------------------------------------
 .byte   PATT
  .word Label_01004B78
@  #05 @064   ----------------------------------------
 .byte   PATT
  .word Label_01004C66
@  #05 @065   ----------------------------------------
 .byte   EOT
 .byte   Cn2 ,v052
@  #05 @066   ----------------------------------------
 .byte   PATT
  .word Label_01004FEC
@  #05 @067   ----------------------------------------
 .byte   PATT
  .word Label_01004D33
@  #05 @068   ----------------------------------------
 .byte   PATT
  .word Label_01004C66
@  #05 @069   ----------------------------------------
 .byte   EOT
 .byte   Bn1 ,v052
@  #05 @070   ----------------------------------------
 .byte   PATT
  .word Label_01005053
@  #05 @071   ----------------------------------------
 .byte   PATT
  .word Label_01004D33
@  #05 @072   ----------------------------------------
 .byte   PATT
  .word Label_01004E64
@  #05 @073   ----------------------------------------
 .byte   EOT
 .byte   Cn2 ,v052
 .byte   W96
@  #05 @074   ----------------------------------------
 .byte   W96
@  #05 @075   ----------------------------------------
 .byte   W96
@  #05 @076   ----------------------------------------
 .byte   GOTO
  .word Label_01004B2A
@  #05 @077   ----------------------------------------
 .byte   PATT
  .word Label_01004B2A
@  #05 @078   ----------------------------------------
 .byte   PATT
  .word Label_01004B78
@  #05 @079   ----------------------------------------
 .byte   PATT
  .word Label_01004BB4
@  #05 @080   ----------------------------------------
 .byte   EOT
 .byte   Bn2 ,v064
@  #05 @081   ----------------------------------------
 .byte   PATT
  .word Label_01004C19
@  #05 @082   ----------------------------------------
 .byte   PATT
  .word Label_01004B78
@  #05 @083   ----------------------------------------
 .byte   PATT
  .word Label_01004C66
@  #05 @084   ----------------------------------------
 .byte   EOT
 .byte   Cn3 ,v064
@  #05 @085   ----------------------------------------
 .byte   PATT
  .word Label_01004CD9
@  #05 @086   ----------------------------------------
 .byte   PATT
  .word Label_01004D33
@  #05 @087   ----------------------------------------
 .byte   PATT
  .word Label_01004C66
@  #05 @088   ----------------------------------------
 .byte   EOT
 .byte   Cs3 ,v064
@  #05 @089   ----------------------------------------
 .byte   PATT
  .word Label_01004D7A
@  #05 @090   ----------------------------------------
 .byte   PATT
  .word Label_01004D33
@  #05 @091   ----------------------------------------
 .byte   PATT
  .word Label_01004C66
@  #05 @092   ----------------------------------------
 .byte   EOT
 .byte   Cn3 ,v064
@  #05 @093   ----------------------------------------
 .byte   PATT
  .word Label_01004DE1
@  #05 @094   ----------------------------------------
 .byte   PATT
  .word Label_01004B78
@  #05 @095   ----------------------------------------
 .byte   PATT
  .word Label_01004BB4
@  #05 @096   ----------------------------------------
 .byte   EOT
 .byte   Bn2 ,v064
@  #05 @097   ----------------------------------------
 .byte   PATT
  .word Label_01004C19
@  #05 @098   ----------------------------------------
 .byte   PATT
  .word Label_01004B78
@  #05 @099   ----------------------------------------
 .byte   PATT
  .word Label_01004C66
@  #05 @100   ----------------------------------------
 .byte   EOT
 .byte   Cn3 ,v064
@  #05 @101   ----------------------------------------
 .byte   PATT
  .word Label_01004CD9
@  #05 @102   ----------------------------------------
 .byte   PATT
  .word Label_01004D33
@  #05 @103   ----------------------------------------
 .byte   PATT
  .word Label_01004C66
@  #05 @104   ----------------------------------------
 .byte   EOT
 .byte   Cs3 ,v064
@  #05 @105   ----------------------------------------
 .byte   PATT
  .word Label_01004D7A
@  #05 @106   ----------------------------------------
 .byte   PATT
  .word Label_01004D33
@  #05 @107   ----------------------------------------
 .byte   PATT
  .word Label_01004E64
@  #05 @108   ----------------------------------------
 .byte   EOT
 .byte   Cn3 ,v064
 .byte   W96
@  #05 @109   ----------------------------------------
 .byte   W96
@  #05 @110   ----------------------------------------
 .byte   W96
@  #05 @111   ----------------------------------------
 .byte   W96
@  #05 @112   ----------------------------------------
 .byte   W96
@  #05 @113   ----------------------------------------
 .byte   W96
@  #05 @114   ----------------------------------------
 .byte   PATT
  .word Label_01004ED3
@  #05 @115   ----------------------------------------
 .byte   PATT
  .word Label_01004B78
@  #05 @116   ----------------------------------------
 .byte   PATT
  .word Label_01004BB4
@  #05 @117   ----------------------------------------
 .byte   EOT
 .byte   Cn3 ,v065
@  #05 @118   ----------------------------------------
 .byte   PATT
  .word Label_01004ED3
@  #05 @119   ----------------------------------------
 .byte   PATT
  .word Label_01004B78
@  #05 @120   ----------------------------------------
 .byte   PATT
  .word Label_01004BB4
@  #05 @121   ----------------------------------------
 .byte   EOT
 .byte   Cn3 ,v065
@  #05 @122   ----------------------------------------
 .byte   PATT
  .word Label_01004F3E
@  #05 @123   ----------------------------------------
 .byte   PATT
  .word Label_01004B78
@  #05 @124   ----------------------------------------
 .byte   PATT
  .word Label_01004BB4
@  #05 @125   ----------------------------------------
 .byte   EOT
 .byte   Bn1 ,v052
@  #05 @126   ----------------------------------------
 .byte   PATT
  .word Label_01004F97
@  #05 @127   ----------------------------------------
 .byte   PATT
  .word Label_01004B78
@  #05 @128   ----------------------------------------
 .byte   PATT
  .word Label_01004C66
@  #05 @129   ----------------------------------------
 .byte   EOT
 .byte   Cn2 ,v052
@  #05 @130   ----------------------------------------
 .byte   PATT
  .word Label_01004FEC
@  #05 @131   ----------------------------------------
 .byte   PATT
  .word Label_01004D33
@  #05 @132   ----------------------------------------
 .byte   PATT
  .word Label_01004C66
@  #05 @133   ----------------------------------------
 .byte   EOT
 .byte   Bn1 ,v052
@  #05 @134   ----------------------------------------
 .byte   PATT
  .word Label_01005053
@  #05 @135   ----------------------------------------
 .byte   PATT
  .word Label_01004D33
@  #05 @136   ----------------------------------------
 .byte   PATT
  .word Label_01004C66
@  #05 @137   ----------------------------------------
 .byte   EOT
 .byte   Cn2 ,v052
@  #05 @138   ----------------------------------------
 .byte   PATT
  .word Label_010050BA
@  #05 @139   ----------------------------------------
 .byte   PATT
  .word Label_01004B78
@  #05 @140   ----------------------------------------
 .byte   PATT
  .word Label_01004BB4
@  #05 @141   ----------------------------------------
 .byte   EOT
 .byte   Bn1 ,v052
@  #05 @142   ----------------------------------------
 .byte   PATT
  .word Label_01004F97
@  #05 @143   ----------------------------------------
 .byte   PATT
  .word Label_01004B78
@  #05 @144   ----------------------------------------
 .byte   PATT
  .word Label_01004C66
@  #05 @145   ----------------------------------------
 .byte   EOT
 .byte   Cn2 ,v052
@  #05 @146   ----------------------------------------
 .byte   PATT
  .word Label_01004FEC
@  #05 @147   ----------------------------------------
 .byte   PATT
  .word Label_01004D33
@  #05 @148   ----------------------------------------
 .byte   PATT
  .word Label_01004C66
@  #05 @149   ----------------------------------------
 .byte   EOT
 .byte   Bn1 ,v052
@  #05 @150   ----------------------------------------
 .byte   PATT
  .word Label_01005053
@  #05 @151   ----------------------------------------
 .byte   PATT
  .word Label_01004D33
@  #05 @152   ----------------------------------------
 .byte   PATT
  .word Label_01004E64
@  #05 @153   ----------------------------------------
 .byte   EOT
 .byte   Cn2 ,v052
 .byte   W96
@  #05 @154   ----------------------------------------
 .byte   W96
@  #05 @155   ----------------------------------------
 .byte   W96
 .byte   FINE

@**************** Track 6 (Midi-Chn.5) ****************@

SMT4B4_006:
@  #06 @000   ----------------------------------------
 .byte   KEYSH , SMT4B4_key+0
 .byte   VOICE , 40
 .byte   VOL , 45*SMT4B4_mvl/mxv
 .byte   PAN , c_v-21
 .byte   VOL , 45*SMT4B4_mvl/mxv
 .byte   PAN , c_v-21
 .byte   W36
 .byte   N24 ,Bn2 ,v096
 .byte   W24
 .byte   N12 ,Cn3
 .byte   W12
 .byte   N18 ,Bn2
 .byte   W24
@  #06 @001   ----------------------------------------
Label_010052C3:
 .byte   N24 ,Dn3 ,v096
 .byte   W24
 .byte   N18 ,Bn2
 .byte   W60
 .byte   N24
 .byte   W12
 .byte   PEND 
@  #06 @002   ----------------------------------------
 .byte   W12
 .byte   N12 ,Cn3
 .byte   W12
 .byte   N18 ,Bn2
 .byte   W24
 .byte   N24 ,Dn3
 .byte   W24
 .byte   N18 ,Bn2
 .byte   W24
@  #06 @003   ----------------------------------------
 .byte   W36
 .byte   N24
 .byte   W24
 .byte   N12 ,Cn3
 .byte   W12
 .byte   N18 ,Bn2
 .byte   W24
@  #06 @004   ----------------------------------------
 .byte   PATT
  .word Label_010052C3
@  #06 @005   ----------------------------------------
Label_010052E8:
 .byte   W12
 .byte   N12 ,Cn3 ,v096
 .byte   W12
 .byte   Bn2
 .byte   W12
 .byte   N24 ,Dn3
 .byte   W24
 .byte   En3
 .byte   W24
 .byte   N12 ,Fs3
 .byte   W12
 .byte   PEND 
@  #06 @006   ----------------------------------------
Label_010052F8:
 .byte   VOL , 45*SMT4B4_mvl/mxv
 .byte   PAN , c_v-21
 .byte   VOL , 44*SMT4B4_mvl/mxv
 .byte   PAN , c_v+0
 .byte   VOL , 44*SMT4B4_mvl/mxv
 .byte   PAN , c_v+0
 .byte   N72 ,En4 ,v096
 .byte   W72
 .byte   N06 ,Dn4
 .byte   W06
 .byte   TIE ,En4
 .byte   W18
 .byte   PEND 
@  #06 @007   ----------------------------------------
 .byte   W90
 .byte   EOT
 .byte   N06 ,Dn4
 .byte   W06
@  #06 @008   ----------------------------------------
Label_01005314:
 .byte   N24 ,En4 ,v096
 .byte   W24
 .byte   N36 ,Fs4
 .byte   W36
 .byte   Dn4
 .byte   W36
 .byte   PEND 
@  #06 @009   ----------------------------------------
 .byte   TIE
 .byte   W96
@  #06 @010   ----------------------------------------
 .byte   W84
 .byte   EOT
 .byte   N36 ,En4
 .byte   W12
@  #06 @011   ----------------------------------------
Label_01005325:
 .byte   W24
 .byte   N24 ,Cn4 ,v096
 .byte   W24
 .byte   N42 ,Dn4
 .byte   W42
 .byte   N03
 .byte   W03
 .byte   Cn4
 .byte   W03
 .byte   PEND 
@  #06 @012   ----------------------------------------
Label_01005332:
 .byte   N72 ,Bn3 ,v096
 .byte   W72
 .byte   N06 ,An3
 .byte   W06
 .byte   N90 ,Bn3
 .byte   W18
 .byte   PEND 
@  #06 @013   ----------------------------------------
 .byte   W72
 .byte   N24 ,Fs4
 .byte   W24
@  #06 @014   ----------------------------------------
Label_01005341:
 .byte   N24 ,Gn4 ,v096
 .byte   W24
 .byte   Fs4
 .byte   W24
 .byte   N48 ,En4
 .byte   W48
 .byte   PEND 
@  #06 @015   ----------------------------------------
Label_0100534B:
 .byte   N72 ,Dn4 ,v096
 .byte   W72
 .byte   N66 ,Cn4
 .byte   W24
 .byte   PEND 
@  #06 @016   ----------------------------------------
Label_01005353:
 .byte   W42
 .byte   N03 ,Cn4 ,v096
 .byte   W03
 .byte   As3
 .byte   W03
 .byte   N48 ,An3
 .byte   W48
 .byte   PEND 
@  #06 @017   ----------------------------------------
Label_0100535E:
 .byte   N24 ,Bn3 ,v096
 .byte   W24
 .byte   Cn4
 .byte   W24
 .byte   Dn4
 .byte   W24
 .byte   Fs4
 .byte   W24
 .byte   PEND 
@  #06 @018   ----------------------------------------
Label_01005369:
 .byte   N72 ,En4 ,v096
 .byte   W72
 .byte   N06 ,Dn4
 .byte   W06
 .byte   TIE ,En4
 .byte   W18
 .byte   PEND 
@  #06 @019   ----------------------------------------
 .byte   W90
 .byte   EOT
 .byte   N06 ,Dn4
 .byte   W06
@  #06 @020   ----------------------------------------
 .byte   PATT
  .word Label_01005314
@  #06 @021   ----------------------------------------
 .byte   TIE ,Dn4 ,v096
 .byte   W96
@  #06 @022   ----------------------------------------
 .byte   W84
 .byte   EOT
 .byte   N36 ,En4
 .byte   W12
@  #06 @023   ----------------------------------------
 .byte   PATT
  .word Label_01005325
@  #06 @024   ----------------------------------------
 .byte   PATT
  .word Label_01005332
@  #06 @025   ----------------------------------------
 .byte   W72
 .byte   N24 ,Fs4 ,v096
 .byte   W24
@  #06 @026   ----------------------------------------
 .byte   PATT
  .word Label_01005341
@  #06 @027   ----------------------------------------
Label_0100539B:
 .byte   N48 ,An4 ,v096
 .byte   W48
 .byte   N24 ,Bn4
 .byte   W24
 .byte   Fs4
 .byte   W24
 .byte   PEND 
@  #06 @028   ----------------------------------------
Label_010053A5:
 .byte   N36 ,Gn4 ,v096
 .byte   W36
 .byte   N06 ,Dn4
 .byte   W06
 .byte   Cs4
 .byte   W06
 .byte   N48 ,Cn4
 .byte   W48
 .byte   PEND 
@  #06 @029   ----------------------------------------
 .byte   PATT
  .word Label_0100535E
@  #06 @030   ----------------------------------------
Label_010053B7:
 .byte   VOL , 39*SMT4B4_mvl/mxv
 .byte   N66 ,Cn5 ,v100
 .byte   W66
 .byte   N06 ,As4
 .byte   W06
 .byte   N72 ,Cn5
 .byte   W24
 .byte   PEND 
@  #06 @031   ----------------------------------------
Label_010053C4:
 .byte   W48
 .byte   N24 ,Cn5 ,v100
 .byte   W24
 .byte   N36 ,Fn5
 .byte   W24
 .byte   PEND 
@  #06 @032   ----------------------------------------
Label_010053CD:
 .byte   W12
 .byte   N12 ,Gn5 ,v100
 .byte   W12
 .byte   N72 ,Ds5
 .byte   W72
 .byte   PEND 
@  #06 @033   ----------------------------------------
Label_010053D6:
 .byte   N54 ,Fn5 ,v100
 .byte   W54
 .byte   N06 ,Cn5
 .byte   W06
 .byte   N12 ,As4
 .byte   W12
 .byte   N72
 .byte   W24
 .byte   PEND 
@  #06 @034   ----------------------------------------
Label_010053E3:
 .byte   W48
 .byte   N24 ,As4 ,v100
 .byte   W24
 .byte   N36 ,Ds5
 .byte   W01
 .byte   VOL , 39*SMT4B4_mvl/mxv
 .byte   W23
 .byte   PEND 
@  #06 @035   ----------------------------------------
Label_010053EF:
 .byte   W12
 .byte   N03 ,Gs4 ,v100
 .byte   W03
 .byte   As4
 .byte   W03
 .byte   Gs4
 .byte   W03
 .byte   Fn4
 .byte   W03
 .byte   N54 ,Gn4
 .byte   W54
 .byte   N12 ,Gs4
 .byte   W12
 .byte   N06 ,As4
 .byte   W06
 .byte   PEND 
@  #06 @036   ----------------------------------------
Label_01005404:
 .byte   N66 ,Cn5 ,v100
 .byte   W66
 .byte   N06 ,As4
 .byte   W06
 .byte   N72 ,Cn5
 .byte   W24
 .byte   PEND 
@  #06 @037   ----------------------------------------
Label_0100540F:
 .byte   W48
 .byte   N24 ,Cn5 ,v100
 .byte   W24
 .byte   N30 ,Ds5
 .byte   W24
 .byte   PEND 
@  #06 @038   ----------------------------------------
Label_01005418:
 .byte   W06
 .byte   N06 ,Dn5 ,v100
 .byte   W06
 .byte   Cs5
 .byte   W06
 .byte   Cn5
 .byte   W06
 .byte   N24 ,Fn5
 .byte   W24
 .byte   Gn5
 .byte   W24
 .byte   Ds5
 .byte   W24
 .byte   PEND 
@  #06 @039   ----------------------------------------
Label_01005429:
 .byte   N48 ,Ds5 ,v100
 .byte   W48
 .byte   TIE ,Fn5
 .byte   W03
 .byte   VOL , 39*SMT4B4_mvl/mxv
 .byte   W03
 .byte   VOL , 39*SMT4B4_mvl/mxv
 .byte   W04
 .byte   VOL , 38*SMT4B4_mvl/mxv
 .byte   W05
 .byte   VOL , 38*SMT4B4_mvl/mxv
 .byte   W04
 .byte   VOL , 38*SMT4B4_mvl/mxv
 .byte   W05
 .byte   VOL , 37*SMT4B4_mvl/mxv
 .byte   W04
 .byte   VOL , 37*SMT4B4_mvl/mxv
 .byte   W05
 .byte   VOL , 37*SMT4B4_mvl/mxv
 .byte   W04
 .byte   VOL , 36*SMT4B4_mvl/mxv
 .byte   W05
 .byte   VOL , 36*SMT4B4_mvl/mxv
 .byte   W04
 .byte   VOL , 35*SMT4B4_mvl/mxv
 .byte   W02
 .byte   PEND 
@  #06 @040   ----------------------------------------
Label_01005448:
 .byte   W03
 .byte   VOL , 35*SMT4B4_mvl/mxv
 .byte   W04
 .byte   VOL , 35*SMT4B4_mvl/mxv
 .byte   W05
 .byte   VOL , 34*SMT4B4_mvl/mxv
 .byte   W04
 .byte   VOL , 34*SMT4B4_mvl/mxv
 .byte   W05
 .byte   VOL , 33*SMT4B4_mvl/mxv
 .byte   W04
 .byte   VOL , 33*SMT4B4_mvl/mxv
 .byte   W05
 .byte   VOL , 33*SMT4B4_mvl/mxv
 .byte   W04
 .byte   VOL , 32*SMT4B4_mvl/mxv
 .byte   W02
 .byte   VOL , 32*SMT4B4_mvl/mxv
 .byte   W01
 .byte   VOL , 32*SMT4B4_mvl/mxv
 .byte   W03
 .byte   VOL , 31*SMT4B4_mvl/mxv
 .byte   W02
 .byte   VOL , 31*SMT4B4_mvl/mxv
 .byte   W03
 .byte   VOL , 31*SMT4B4_mvl/mxv
 .byte   W03
 .byte   VOL , 30*SMT4B4_mvl/mxv
 .byte   W03
 .byte   VOL , 30*SMT4B4_mvl/mxv
 .byte   W03
 .byte   VOL , 29*SMT4B4_mvl/mxv
 .byte   W02
 .byte   VOL , 29*SMT4B4_mvl/mxv
 .byte   W03
 .byte   VOL , 29*SMT4B4_mvl/mxv
 .byte   W03
 .byte   VOL , 28*SMT4B4_mvl/mxv
 .byte   W02
 .byte   VOL , 28*SMT4B4_mvl/mxv
 .byte   W03
 .byte   VOL , 27*SMT4B4_mvl/mxv
 .byte   W02
 .byte   VOL , 27*SMT4B4_mvl/mxv
 .byte   W03
 .byte   VOL , 27*SMT4B4_mvl/mxv
 .byte   W03
 .byte   VOL , 26*SMT4B4_mvl/mxv
 .byte   W03
 .byte   VOL , 26*SMT4B4_mvl/mxv
 .byte   W03
 .byte   VOL , 25*SMT4B4_mvl/mxv
 .byte   W02
 .byte   VOL , 25*SMT4B4_mvl/mxv
 .byte   W03
 .byte   VOL , 25*SMT4B4_mvl/mxv
 .byte   W02
 .byte   VOL , 24*SMT4B4_mvl/mxv
 .byte   W03
 .byte   VOL , 24*SMT4B4_mvl/mxv
 .byte   W03
 .byte   VOL , 24*SMT4B4_mvl/mxv
 .byte   W02
 .byte   PEND 
@  #06 @041   ----------------------------------------
Label_01005489:
 .byte   VOL , 23*SMT4B4_mvl/mxv
 .byte   W03
 .byte   VOL , 23*SMT4B4_mvl/mxv
 .byte   W03
 .byte   VOL , 22*SMT4B4_mvl/mxv
 .byte   W03
 .byte   VOL , 22*SMT4B4_mvl/mxv
 .byte   W03
 .byte   VOL , 22*SMT4B4_mvl/mxv
 .byte   W02
 .byte   VOL , 21*SMT4B4_mvl/mxv
 .byte   W03
 .byte   VOL , 21*SMT4B4_mvl/mxv
 .byte   W02
 .byte   VOL , 20*SMT4B4_mvl/mxv
 .byte   W03
 .byte   VOL , 20*SMT4B4_mvl/mxv
 .byte   W02
 .byte   VOL , 20*SMT4B4_mvl/mxv
 .byte   W03
 .byte   VOL , 19*SMT4B4_mvl/mxv
 .byte   W03
 .byte   VOL , 19*SMT4B4_mvl/mxv
 .byte   W03
 .byte   VOL , 18*SMT4B4_mvl/mxv
 .byte   W03
 .byte   VOL , 18*SMT4B4_mvl/mxv
 .byte   W02
 .byte   VOL , 18*SMT4B4_mvl/mxv
 .byte   W03
 .byte   VOL , 17*SMT4B4_mvl/mxv
 .byte   W03
 .byte   VOL , 17*SMT4B4_mvl/mxv
 .byte   W02
 .byte   VOL , 16*SMT4B4_mvl/mxv
 .byte   W03
 .byte   VOL , 16*SMT4B4_mvl/mxv
 .byte   W02
 .byte   VOL , 16*SMT4B4_mvl/mxv
 .byte   W03
 .byte   VOL , 15*SMT4B4_mvl/mxv
 .byte   W03
 .byte   VOL , 15*SMT4B4_mvl/mxv
 .byte   W03
 .byte   VOL , 14*SMT4B4_mvl/mxv
 .byte   W03
 .byte   VOL , 14*SMT4B4_mvl/mxv
 .byte   W02
 .byte   VOL , 14*SMT4B4_mvl/mxv
 .byte   W03
 .byte   VOL , 13*SMT4B4_mvl/mxv
 .byte   W02
 .byte   VOL , 13*SMT4B4_mvl/mxv
 .byte   W03
 .byte   VOL , 12*SMT4B4_mvl/mxv
 .byte   W03
 .byte   VOL , 12*SMT4B4_mvl/mxv
 .byte   W02
 .byte   VOL , 12*SMT4B4_mvl/mxv
 .byte   W03
 .byte   VOL , 11*SMT4B4_mvl/mxv
 .byte   W03
 .byte   VOL , 11*SMT4B4_mvl/mxv
 .byte   W03
 .byte   VOL , 11*SMT4B4_mvl/mxv
 .byte   W03
 .byte   VOL , 10*SMT4B4_mvl/mxv
 .byte   W02
 .byte   VOL , 10*SMT4B4_mvl/mxv
 .byte   W03
 .byte   VOL , 9*SMT4B4_mvl/mxv
 .byte   W01
 .byte   PEND 
@  #06 @042   ----------------------------------------
 .byte   EOT
 .byte   Fn5
 .byte   W96
@  #06 @043   ----------------------------------------
 .byte   W96
@  #06 @044   ----------------------------------------
 .byte   W96
@  #06 @045   ----------------------------------------
 .byte   W96
@  #06 @046   ----------------------------------------
 .byte   W96
@  #06 @047   ----------------------------------------
 .byte   W96
@  #06 @048   ----------------------------------------
 .byte   W96
@  #06 @049   ----------------------------------------
 .byte   W96
@  #06 @050   ----------------------------------------
 .byte   W96
@  #06 @051   ----------------------------------------
 .byte   W96
@  #06 @052   ----------------------------------------
 .byte   W96
@  #06 @053   ----------------------------------------
 .byte   W96
@  #06 @054   ----------------------------------------
Label_010054E1:
 .byte   VOL , 41*SMT4B4_mvl/mxv
 .byte   BEND , c_v-58
 .byte   TIE ,En4 ,v076
 .byte   W01
 .byte   BEND , c_v-52
 .byte   W01
 .byte   BEND , c_v-45
 .byte   W01
 .byte   BEND , c_v-33
 .byte   W01
 .byte   BEND , c_v-26
 .byte   W01
 .byte   BEND , c_v-20
 .byte   W01
 .byte   BEND , c_v-7
 .byte   W01
 .byte   BEND , c_v+0
 .byte   W88
 .byte   W01
 .byte   PEND 
@  #06 @055   ----------------------------------------
 .byte   W96
@  #06 @056   ----------------------------------------
 .byte   W96
@  #06 @057   ----------------------------------------
 .byte   EOT
@  #06 @058   ----------------------------------------
 .byte   PATT
  .word Label_010054E1
@  #06 @059   ----------------------------------------
 .byte   W96
@  #06 @060   ----------------------------------------
 .byte   W96
@  #06 @061   ----------------------------------------
 .byte   EOT
 .byte   En4
@  #06 @062   ----------------------------------------
 .byte   PATT
  .word Label_010054E1
@  #06 @063   ----------------------------------------
 .byte   W96
@  #06 @064   ----------------------------------------
Label_0100550C:
 .byte   W92
 .byte   W01
 .byte   BEND , c_v+0
 .byte   W03
 .byte   PEND 
@  #06 @065   ----------------------------------------
 .byte   EOT
 .byte   En4
Label_01005514:
 .byte   VOL , 41*SMT4B4_mvl/mxv
 .byte   BEND , c_v-58
 .byte   TIE ,An4 ,v076
 .byte   W01
 .byte   BEND , c_v-52
 .byte   W01
 .byte   BEND , c_v-45
 .byte   W01
 .byte   BEND , c_v-33
 .byte   W01
 .byte   BEND , c_v-26
 .byte   W01
 .byte   BEND , c_v-20
 .byte   W01
 .byte   BEND , c_v-7
 .byte   W01
 .byte   BEND , c_v+0
 .byte   W88
 .byte   W01
 .byte   PEND 
@  #06 @066   ----------------------------------------
 .byte   W96
@  #06 @067   ----------------------------------------
 .byte   W96
@  #06 @068   ----------------------------------------
 .byte   EOT
Label_01005530:
 .byte   VOL , 45*SMT4B4_mvl/mxv
 .byte   PAN , c_v-21
 .byte   W36
 .byte   N24 ,Bn2 ,v096
 .byte   W24
 .byte   N12 ,Cn3
 .byte   W12
 .byte   N18 ,Bn2
 .byte   W24
 .byte   PEND 
@  #06 @069   ----------------------------------------
 .byte   PATT
  .word Label_010052C3
@  #06 @070   ----------------------------------------
 .byte   PATT
  .word Label_010052E8
@  #06 @071   ----------------------------------------
 .byte   GOTO
  .word Label_010052F8
@  #06 @072   ----------------------------------------
 .byte   PATT
  .word Label_010052F8
@  #06 @073   ----------------------------------------
 .byte   W90
 .byte   EOT
 .byte   En4
 .byte   N06 ,Dn4 ,v096
 .byte   W06
@  #06 @074   ----------------------------------------
 .byte   PATT
  .word Label_01005314
@  #06 @075   ----------------------------------------
 .byte   TIE ,Dn4 ,v096
 .byte   W96
@  #06 @076   ----------------------------------------
 .byte   W84
 .byte   EOT
 .byte   N36 ,En4
 .byte   W12
@  #06 @077   ----------------------------------------
 .byte   PATT
  .word Label_01005325
@  #06 @078   ----------------------------------------
 .byte   PATT
  .word Label_01005332
@  #06 @079   ----------------------------------------
 .byte   W72
 .byte   N24 ,Fs4 ,v096
 .byte   W24
@  #06 @080   ----------------------------------------
 .byte   PATT
  .word Label_01005341
@  #06 @081   ----------------------------------------
 .byte   PATT
  .word Label_0100534B
@  #06 @082   ----------------------------------------
 .byte   PATT
  .word Label_01005353
@  #06 @083   ----------------------------------------
 .byte   PATT
  .word Label_0100535E
@  #06 @084   ----------------------------------------
 .byte   PATT
  .word Label_01005369
@  #06 @085   ----------------------------------------
 .byte   W90
 .byte   EOT
 .byte   En4
 .byte   N06 ,Dn4 ,v096
 .byte   W06
@  #06 @086   ----------------------------------------
 .byte   PATT
  .word Label_01005314
@  #06 @087   ----------------------------------------
 .byte   TIE ,Dn4 ,v096
 .byte   W96
@  #06 @088   ----------------------------------------
 .byte   W84
 .byte   EOT
 .byte   N36 ,En4
 .byte   W12
@  #06 @089   ----------------------------------------
 .byte   PATT
  .word Label_01005325
@  #06 @090   ----------------------------------------
 .byte   PATT
  .word Label_01005332
@  #06 @091   ----------------------------------------
 .byte   W72
 .byte   N24 ,Fs4 ,v096
 .byte   W24
@  #06 @092   ----------------------------------------
 .byte   PATT
  .word Label_01005341
@  #06 @093   ----------------------------------------
 .byte   PATT
  .word Label_0100539B
@  #06 @094   ----------------------------------------
 .byte   PATT
  .word Label_010053A5
@  #06 @095   ----------------------------------------
 .byte   PATT
  .word Label_0100535E
@  #06 @096   ----------------------------------------
 .byte   PATT
  .word Label_010053B7
@  #06 @097   ----------------------------------------
 .byte   PATT
  .word Label_010053C4
@  #06 @098   ----------------------------------------
 .byte   PATT
  .word Label_010053CD
@  #06 @099   ----------------------------------------
 .byte   PATT
  .word Label_010053D6
@  #06 @100   ----------------------------------------
 .byte   PATT
  .word Label_010053E3
@  #06 @101   ----------------------------------------
 .byte   PATT
  .word Label_010053EF
@  #06 @102   ----------------------------------------
 .byte   PATT
  .word Label_01005404
@  #06 @103   ----------------------------------------
 .byte   PATT
  .word Label_0100540F
@  #06 @104   ----------------------------------------
 .byte   PATT
  .word Label_01005418
@  #06 @105   ----------------------------------------
 .byte   PATT
  .word Label_01005429
@  #06 @106   ----------------------------------------
 .byte   PATT
  .word Label_01005448
@  #06 @107   ----------------------------------------
 .byte   PATT
  .word Label_01005489
@  #06 @108   ----------------------------------------
 .byte   EOT
 .byte   Fn5
 .byte   W96
@  #06 @109   ----------------------------------------
 .byte   W96
@  #06 @110   ----------------------------------------
 .byte   W96
@  #06 @111   ----------------------------------------
 .byte   W96
@  #06 @112   ----------------------------------------
 .byte   W96
@  #06 @113   ----------------------------------------
 .byte   W96
@  #06 @114   ----------------------------------------
 .byte   W96
@  #06 @115   ----------------------------------------
 .byte   W96
@  #06 @116   ----------------------------------------
 .byte   W96
@  #06 @117   ----------------------------------------
 .byte   W96
@  #06 @118   ----------------------------------------
 .byte   W96
@  #06 @119   ----------------------------------------
 .byte   W96
@  #06 @120   ----------------------------------------
 .byte   PATT
  .word Label_010054E1
@  #06 @121   ----------------------------------------
 .byte   W96
@  #06 @122   ----------------------------------------
 .byte   W96
@  #06 @123   ----------------------------------------
 .byte   EOT
 .byte   En4
@  #06 @124   ----------------------------------------
 .byte   PATT
  .word Label_010054E1
@  #06 @125   ----------------------------------------
 .byte   W96
@  #06 @126   ----------------------------------------
 .byte   W96
@  #06 @127   ----------------------------------------
 .byte   EOT
 .byte   En4
@  #06 @128   ----------------------------------------
 .byte   PATT
  .word Label_010054E1
@  #06 @129   ----------------------------------------
 .byte   W96
@  #06 @130   ----------------------------------------
 .byte   PATT
  .word Label_0100550C
@  #06 @131   ----------------------------------------
 .byte   EOT
 .byte   En4
@  #06 @132   ----------------------------------------
 .byte   PATT
  .word Label_01005514
@  #06 @133   ----------------------------------------
 .byte   W96
@  #06 @134   ----------------------------------------
 .byte   W96
@  #06 @135   ----------------------------------------
 .byte   EOT
 .byte   An4
@  #06 @136   ----------------------------------------
 .byte   PATT
  .word Label_01005530
@  #06 @137   ----------------------------------------
 .byte   PATT
  .word Label_010052C3
@  #06 @138   ----------------------------------------
 .byte   PATT
  .word Label_010052E8
 .byte   FINE

@**************** Track 7 (Midi-Chn.6) ****************@

SMT4B4_007:
@  #07 @000   ----------------------------------------
 .byte   VOL , 50*SMT4B4_mvl/mxv
 .byte   KEYSH , SMT4B4_key+0
 .byte   VOICE , 85
 .byte   W96
@  #07 @001   ----------------------------------------
 .byte   W96
@  #07 @002   ----------------------------------------
 .byte   W96
@  #07 @003   ----------------------------------------
 .byte   W96
@  #07 @004   ----------------------------------------
 .byte   W96
@  #07 @005   ----------------------------------------
 .byte   W96
@  #07 @006   ----------------------------------------
Label_0100566C:
 .byte   W96
@  #07 @007   ----------------------------------------
 .byte   W96
@  #07 @008   ----------------------------------------
 .byte   W96
@  #07 @009   ----------------------------------------
 .byte   W96
@  #07 @010   ----------------------------------------
 .byte   W96
@  #07 @011   ----------------------------------------
 .byte   W96
@  #07 @012   ----------------------------------------
 .byte   W96
@  #07 @013   ----------------------------------------
 .byte   W96
@  #07 @014   ----------------------------------------
 .byte   W96
@  #07 @015   ----------------------------------------
 .byte   W96
@  #07 @016   ----------------------------------------
 .byte   W96
@  #07 @017   ----------------------------------------
 .byte   W96
@  #07 @018   ----------------------------------------
 .byte   W96
@  #07 @019   ----------------------------------------
 .byte   W96
@  #07 @020   ----------------------------------------
 .byte   W96
@  #07 @021   ----------------------------------------
 .byte   W96
@  #07 @022   ----------------------------------------
 .byte   W96
@  #07 @023   ----------------------------------------
 .byte   W96
@  #07 @024   ----------------------------------------
 .byte   W96
@  #07 @025   ----------------------------------------
 .byte   W96
@  #07 @026   ----------------------------------------
 .byte   W96
@  #07 @027   ----------------------------------------
 .byte   W96
@  #07 @028   ----------------------------------------
 .byte   W96
@  #07 @029   ----------------------------------------
 .byte   W96
@  #07 @030   ----------------------------------------
 .byte   W96
@  #07 @031   ----------------------------------------
 .byte   W96
@  #07 @032   ----------------------------------------
 .byte   W96
@  #07 @033   ----------------------------------------
 .byte   W96
@  #07 @034   ----------------------------------------
 .byte   W96
@  #07 @035   ----------------------------------------
 .byte   W96
@  #07 @036   ----------------------------------------
 .byte   W96
@  #07 @037   ----------------------------------------
 .byte   W96
@  #07 @038   ----------------------------------------
 .byte   W96
@  #07 @039   ----------------------------------------
 .byte   W96
@  #07 @040   ----------------------------------------
 .byte   W96
@  #07 @041   ----------------------------------------
 .byte   W96
@  #07 @042   ----------------------------------------
 .byte   W96
@  #07 @043   ----------------------------------------
 .byte   W96
@  #07 @044   ----------------------------------------
Label_01005692:
 .byte   W24
 .byte   BEND , c_v-48
 .byte   N72 ,Bn3 ,v120
 .byte   W01
 .byte   BEND , c_v-33
 .byte   W01
 .byte   BEND , c_v-18
 .byte   W01
 .byte   BEND , c_v+0
 .byte   W68
 .byte   W01
 .byte   PEND 
@  #07 @045   ----------------------------------------
 .byte   TIE ,An3
 .byte   W96
@  #07 @046   ----------------------------------------
 .byte   W96
@  #07 @047   ----------------------------------------
 .byte   W24
 .byte   EOT
 .byte   BEND , c_v+0
 .byte   W18
 .byte   BEND , c_v-1
 .byte   W01
 .byte   BEND , c_v-1
 .byte   W01
 .byte   BEND , c_v-2
 .byte   W01
 .byte   BEND , c_v-2
 .byte   W01
 .byte   BEND , c_v-3
 .byte   W01
 .byte   BEND , c_v-3
 .byte   W01
 .byte   BEND , c_v-4
 .byte   W01
 .byte   BEND , c_v-4
 .byte   W01
 .byte   BEND , c_v-5
 .byte   W01
 .byte   BEND , c_v-5
 .byte   W01
 .byte   BEND , c_v-6
 .byte   W01
 .byte   BEND , c_v-6
 .byte   W01
 .byte   BEND , c_v-7
 .byte   W01
 .byte   BEND , c_v-7
 .byte   W01
 .byte   BEND , c_v-7
 .byte   W01
 .byte   BEND , c_v-8
 .byte   W01
 .byte   BEND , c_v-9
 .byte   W01
 .byte   BEND , c_v-9
 .byte   W01
 .byte   BEND , c_v-10
 .byte   W01
 .byte   BEND , c_v-10
 .byte   W01
 .byte   BEND , c_v-10
 .byte   W01
 .byte   BEND , c_v-11
 .byte   W01
 .byte   BEND , c_v-12
 .byte   W01
 .byte   BEND , c_v-12
 .byte   W01
 .byte   BEND , c_v-13
 .byte   W01
 .byte   BEND , c_v-13
 .byte   W01
 .byte   BEND , c_v-13
 .byte   W01
 .byte   BEND , c_v-14
 .byte   W01
 .byte   BEND , c_v-14
 .byte   W01
 .byte   BEND , c_v-15
 .byte   W01
 .byte   BEND , c_v-16
 .byte   W01
 .byte   BEND , c_v-16
 .byte   W01
 .byte   BEND , c_v-16
 .byte   W01
 .byte   BEND , c_v-17
 .byte   W01
 .byte   BEND , c_v-17
 .byte   W01
 .byte   BEND , c_v-18
 .byte   W01
 .byte   BEND , c_v-19
 .byte   W01
 .byte   BEND , c_v-19
 .byte   W01
 .byte   BEND , c_v-19
 .byte   W01
 .byte   BEND , c_v-20
 .byte   W01
 .byte   BEND , c_v-20
 .byte   W01
 .byte   BEND , c_v-21
 .byte   W01
 .byte   BEND , c_v-21
 .byte   W01
 .byte   BEND , c_v-22
 .byte   W01
 .byte   BEND , c_v-22
 .byte   W01
 .byte   BEND , c_v-23
 .byte   W01
 .byte   BEND , c_v-23
 .byte   W01
 .byte   BEND , c_v-24
 .byte   W01
 .byte   BEND , c_v-24
 .byte   W01
 .byte   BEND , c_v-25
 .byte   W01
 .byte   BEND , c_v-25
 .byte   W01
 .byte   BEND , c_v-26
 .byte   W01
 .byte   BEND , c_v-26
 .byte   W01
 .byte   BEND , c_v-27
 .byte   W01
@  #07 @048   ----------------------------------------
Label_01005717:
 .byte   BEND , c_v-27
 .byte   W01
 .byte   BEND , c_v-28
 .byte   W01
 .byte   BEND , c_v-28
 .byte   W01
 .byte   BEND , c_v-29
 .byte   W01
 .byte   BEND , c_v-29
 .byte   W01
 .byte   BEND , c_v-30
 .byte   W01
 .byte   BEND , c_v-30
 .byte   W01
 .byte   BEND , c_v-31
 .byte   W01
 .byte   BEND , c_v-31
 .byte   W01
 .byte   BEND , c_v-32
 .byte   W01
 .byte   BEND , c_v-32
 .byte   W01
 .byte   BEND , c_v-33
 .byte   W01
 .byte   BEND , c_v-33
 .byte   W01
 .byte   BEND , c_v-34
 .byte   W01
 .byte   BEND , c_v-34
 .byte   W01
 .byte   BEND , c_v-35
 .byte   W01
 .byte   BEND , c_v-35
 .byte   W01
 .byte   BEND , c_v-35
 .byte   W01
 .byte   BEND , c_v-36
 .byte   W01
 .byte   BEND , c_v-37
 .byte   W01
 .byte   BEND , c_v-37
 .byte   W01
 .byte   BEND , c_v-38
 .byte   W01
 .byte   BEND , c_v-38
 .byte   W01
 .byte   BEND , c_v-38
 .byte   W01
 .byte   BEND , c_v-39
 .byte   W01
 .byte   BEND , c_v-40
 .byte   W01
 .byte   BEND , c_v-40
 .byte   W01
 .byte   BEND , c_v-41
 .byte   W01
 .byte   BEND , c_v-41
 .byte   W01
 .byte   BEND , c_v-41
 .byte   W01
 .byte   BEND , c_v-42
 .byte   W01
 .byte   BEND , c_v-42
 .byte   W01
 .byte   BEND , c_v-43
 .byte   W01
 .byte   BEND , c_v-44
 .byte   W01
 .byte   BEND , c_v-44
 .byte   W01
 .byte   BEND , c_v-44
 .byte   W01
 .byte   BEND , c_v-45
 .byte   W01
 .byte   BEND , c_v-45
 .byte   W01
 .byte   BEND , c_v-46
 .byte   W01
 .byte   BEND , c_v-47
 .byte   W01
 .byte   BEND , c_v-47
 .byte   W01
 .byte   BEND , c_v-47
 .byte   W01
 .byte   BEND , c_v-48
 .byte   W01
 .byte   BEND , c_v-48
 .byte   W01
 .byte   BEND , c_v-49
 .byte   W01
 .byte   BEND , c_v-49
 .byte   W01
 .byte   BEND , c_v-50
 .byte   W01
 .byte   BEND , c_v-50
 .byte   W01
 .byte   BEND , c_v-51
 .byte   W01
 .byte   BEND , c_v-51
 .byte   W01
 .byte   BEND , c_v-52
 .byte   W01
 .byte   BEND , c_v-52
 .byte   W01
 .byte   BEND , c_v-53
 .byte   W01
 .byte   BEND , c_v-53
 .byte   W01
 .byte   BEND , c_v-54
 .byte   W01
 .byte   BEND , c_v-54
 .byte   W01
 .byte   BEND , c_v-55
 .byte   W01
 .byte   BEND , c_v-55
 .byte   W01
 .byte   BEND , c_v-56
 .byte   W01
 .byte   BEND , c_v-56
 .byte   W01
 .byte   BEND , c_v-57
 .byte   W01
 .byte   BEND , c_v-57
 .byte   W01
 .byte   BEND , c_v-58
 .byte   W01
 .byte   BEND , c_v-58
 .byte   W01
 .byte   BEND , c_v-59
 .byte   W01
 .byte   BEND , c_v-59
 .byte   W01
 .byte   BEND , c_v-60
 .byte   W01
 .byte   BEND , c_v-60
 .byte   W01
 .byte   BEND , c_v-61
 .byte   W01
 .byte   BEND , c_v-61
 .byte   W01
 .byte   BEND , c_v-62
 .byte   W01
 .byte   BEND , c_v-62
 .byte   W01
 .byte   BEND , c_v-48
 .byte   N72 ,Dn4 ,v120
 .byte   W01
 .byte   BEND , c_v-33
 .byte   W01
 .byte   BEND , c_v-18
 .byte   W01
 .byte   BEND , c_v+0
 .byte   W21
 .byte   PEND 
@  #07 @049   ----------------------------------------
 .byte   W48
 .byte   N72 ,Cs4
 .byte   W48
@  #07 @050   ----------------------------------------
 .byte   W24
 .byte   An3
 .byte   W72
@  #07 @051   ----------------------------------------
Label_010057BC:
 .byte   W21
 .byte   BEND , c_v+0
 .byte   W06
 .byte   BEND , c_v-2
 .byte   W01
 .byte   BEND , c_v-3
 .byte   W01
 .byte   BEND , c_v-4
 .byte   W01
 .byte   BEND , c_v-6
 .byte   W01
 .byte   BEND , c_v-7
 .byte   W01
 .byte   BEND , c_v-8
 .byte   W01
 .byte   BEND , c_v-10
 .byte   W01
 .byte   BEND , c_v-11
 .byte   W01
 .byte   BEND , c_v-12
 .byte   W01
 .byte   BEND , c_v-14
 .byte   W01
 .byte   BEND , c_v-15
 .byte   W01
 .byte   BEND , c_v-16
 .byte   W01
 .byte   BEND , c_v-18
 .byte   W01
 .byte   BEND , c_v-19
 .byte   W01
 .byte   BEND , c_v-20
 .byte   W01
 .byte   BEND , c_v-22
 .byte   W01
 .byte   BEND , c_v-23
 .byte   W01
 .byte   BEND , c_v-24
 .byte   W01
 .byte   BEND , c_v-26
 .byte   W01
 .byte   BEND , c_v-27
 .byte   W01
 .byte   BEND , c_v-28
 .byte   W01
 .byte   BEND , c_v-30
 .byte   W01
 .byte   BEND , c_v-31
 .byte   W01
 .byte   BEND , c_v-32
 .byte   W01
 .byte   BEND , c_v-35
 .byte   W01
 .byte   BEND , c_v-36
 .byte   W01
 .byte   BEND , c_v-37
 .byte   W01
 .byte   BEND , c_v-39
 .byte   W01
 .byte   BEND , c_v-40
 .byte   W01
 .byte   BEND , c_v-41
 .byte   W01
 .byte   BEND , c_v-43
 .byte   W01
 .byte   BEND , c_v-44
 .byte   W01
 .byte   BEND , c_v-45
 .byte   W01
 .byte   BEND , c_v-47
 .byte   W01
 .byte   BEND , c_v-48
 .byte   W01
 .byte   BEND , c_v-49
 .byte   W01
 .byte   BEND , c_v-51
 .byte   W01
 .byte   BEND , c_v-52
 .byte   W01
 .byte   BEND , c_v-53
 .byte   W01
 .byte   BEND , c_v-55
 .byte   W01
 .byte   BEND , c_v-56
 .byte   W01
 .byte   BEND , c_v-57
 .byte   W01
 .byte   BEND , c_v-59
 .byte   W01
 .byte   BEND , c_v-60
 .byte   W01
 .byte   BEND , c_v-61
 .byte   W01
 .byte   BEND , c_v-48
 .byte   N72 ,Bn3 ,v120
 .byte   W01
 .byte   BEND , c_v-33
 .byte   W01
 .byte   BEND , c_v-18
 .byte   W01
 .byte   BEND , c_v+0
 .byte   W21
 .byte   PEND 
@  #07 @052   ----------------------------------------
 .byte   W48
 .byte   N72 ,Gn3
 .byte   W48
@  #07 @053   ----------------------------------------
 .byte   W24
 .byte   An3
 .byte   W72
@  #07 @054   ----------------------------------------
 .byte   W96
@  #07 @055   ----------------------------------------
 .byte   W96
@  #07 @056   ----------------------------------------
 .byte   W96
@  #07 @057   ----------------------------------------
 .byte   W96
@  #07 @058   ----------------------------------------
 .byte   W96
@  #07 @059   ----------------------------------------
 .byte   W96
@  #07 @060   ----------------------------------------
 .byte   W96
@  #07 @061   ----------------------------------------
 .byte   W96
@  #07 @062   ----------------------------------------
 .byte   W96
@  #07 @063   ----------------------------------------
 .byte   W96
@  #07 @064   ----------------------------------------
 .byte   W96
@  #07 @065   ----------------------------------------
 .byte   W96
@  #07 @066   ----------------------------------------
 .byte   W96
@  #07 @067   ----------------------------------------
 .byte   W96
@  #07 @068   ----------------------------------------
 .byte   W96
@  #07 @069   ----------------------------------------
 .byte   GOTO
  .word Label_0100566C
@  #07 @070   ----------------------------------------
 .byte   W96
@  #07 @071   ----------------------------------------
 .byte   W96
@  #07 @072   ----------------------------------------
 .byte   W96
@  #07 @073   ----------------------------------------
 .byte   W96
@  #07 @074   ----------------------------------------
 .byte   W96
@  #07 @075   ----------------------------------------
 .byte   W96
@  #07 @076   ----------------------------------------
 .byte   W96
@  #07 @077   ----------------------------------------
 .byte   W96
@  #07 @078   ----------------------------------------
 .byte   W96
@  #07 @079   ----------------------------------------
 .byte   W96
@  #07 @080   ----------------------------------------
 .byte   W96
@  #07 @081   ----------------------------------------
 .byte   W96
@  #07 @082   ----------------------------------------
 .byte   W96
@  #07 @083   ----------------------------------------
 .byte   W96
@  #07 @084   ----------------------------------------
 .byte   W96
@  #07 @085   ----------------------------------------
 .byte   W96
@  #07 @086   ----------------------------------------
 .byte   W96
@  #07 @087   ----------------------------------------
 .byte   W96
@  #07 @088   ----------------------------------------
 .byte   W96
@  #07 @089   ----------------------------------------
 .byte   W96
@  #07 @090   ----------------------------------------
 .byte   W96
@  #07 @091   ----------------------------------------
 .byte   W96
@  #07 @092   ----------------------------------------
 .byte   W96
@  #07 @093   ----------------------------------------
 .byte   W96
@  #07 @094   ----------------------------------------
 .byte   W96
@  #07 @095   ----------------------------------------
 .byte   W96
@  #07 @096   ----------------------------------------
 .byte   W96
@  #07 @097   ----------------------------------------
 .byte   W96
@  #07 @098   ----------------------------------------
 .byte   W96
@  #07 @099   ----------------------------------------
 .byte   W96
@  #07 @100   ----------------------------------------
 .byte   W96
@  #07 @101   ----------------------------------------
 .byte   W96
@  #07 @102   ----------------------------------------
 .byte   W96
@  #07 @103   ----------------------------------------
 .byte   W96
@  #07 @104   ----------------------------------------
 .byte   W96
@  #07 @105   ----------------------------------------
 .byte   W96
@  #07 @106   ----------------------------------------
 .byte   W96
@  #07 @107   ----------------------------------------
 .byte   W96
@  #07 @108   ----------------------------------------
 .byte   PATT
  .word Label_01005692
@  #07 @109   ----------------------------------------
 .byte   TIE ,An3 ,v120
 .byte   W96
@  #07 @110   ----------------------------------------
 .byte   W96
@  #07 @111   ----------------------------------------
 .byte   W24
 .byte   EOT
 .byte   BEND , c_v+0
 .byte   W18
 .byte   BEND , c_v-1
 .byte   W01
 .byte   BEND , c_v-1
 .byte   W01
 .byte   BEND , c_v-2
 .byte   W01
 .byte   BEND , c_v-2
 .byte   W01
 .byte   BEND , c_v-3
 .byte   W01
 .byte   BEND , c_v-3
 .byte   W01
 .byte   BEND , c_v-4
 .byte   W01
 .byte   BEND , c_v-4
 .byte   W01
 .byte   BEND , c_v-5
 .byte   W01
 .byte   BEND , c_v-5
 .byte   W01
 .byte   BEND , c_v-6
 .byte   W01
 .byte   BEND , c_v-6
 .byte   W01
 .byte   BEND , c_v-7
 .byte   W01
 .byte   BEND , c_v-7
 .byte   W01
 .byte   BEND , c_v-7
 .byte   W01
 .byte   BEND , c_v-8
 .byte   W01
 .byte   BEND , c_v-9
 .byte   W01
 .byte   BEND , c_v-9
 .byte   W01
 .byte   BEND , c_v-10
 .byte   W01
 .byte   BEND , c_v-10
 .byte   W01
 .byte   BEND , c_v-10
 .byte   W01
 .byte   BEND , c_v-11
 .byte   W01
 .byte   BEND , c_v-12
 .byte   W01
 .byte   BEND , c_v-12
 .byte   W01
 .byte   BEND , c_v-13
 .byte   W01
 .byte   BEND , c_v-13
 .byte   W01
 .byte   BEND , c_v-13
 .byte   W01
 .byte   BEND , c_v-14
 .byte   W01
 .byte   BEND , c_v-14
 .byte   W01
 .byte   BEND , c_v-15
 .byte   W01
 .byte   BEND , c_v-16
 .byte   W01
 .byte   BEND , c_v-16
 .byte   W01
 .byte   BEND , c_v-16
 .byte   W01
 .byte   BEND , c_v-17
 .byte   W01
 .byte   BEND , c_v-17
 .byte   W01
 .byte   BEND , c_v-18
 .byte   W01
 .byte   BEND , c_v-19
 .byte   W01
 .byte   BEND , c_v-19
 .byte   W01
 .byte   BEND , c_v-19
 .byte   W01
 .byte   BEND , c_v-20
 .byte   W01
 .byte   BEND , c_v-20
 .byte   W01
 .byte   BEND , c_v-21
 .byte   W01
 .byte   BEND , c_v-21
 .byte   W01
 .byte   BEND , c_v-22
 .byte   W01
 .byte   BEND , c_v-22
 .byte   W01
 .byte   BEND , c_v-23
 .byte   W01
 .byte   BEND , c_v-23
 .byte   W01
 .byte   BEND , c_v-24
 .byte   W01
 .byte   BEND , c_v-24
 .byte   W01
 .byte   BEND , c_v-25
 .byte   W01
 .byte   BEND , c_v-25
 .byte   W01
 .byte   BEND , c_v-26
 .byte   W01
 .byte   BEND , c_v-26
 .byte   W01
 .byte   BEND , c_v-27
 .byte   W01
@  #07 @112   ----------------------------------------
 .byte   PATT
  .word Label_01005717
@  #07 @113   ----------------------------------------
 .byte   W48
 .byte   N72 ,Cs4 ,v120
 .byte   W48
@  #07 @114   ----------------------------------------
 .byte   W24
 .byte   An3
 .byte   W72
@  #07 @115   ----------------------------------------
 .byte   PATT
  .word Label_010057BC
@  #07 @116   ----------------------------------------
 .byte   W48
 .byte   N72 ,Gn3 ,v120
 .byte   W48
@  #07 @117   ----------------------------------------
 .byte   W24
 .byte   An3
 .byte   W72
@  #07 @118   ----------------------------------------
 .byte   W96
@  #07 @119   ----------------------------------------
 .byte   W96
@  #07 @120   ----------------------------------------
 .byte   W96
@  #07 @121   ----------------------------------------
 .byte   W96
@  #07 @122   ----------------------------------------
 .byte   W96
@  #07 @123   ----------------------------------------
 .byte   W96
@  #07 @124   ----------------------------------------
 .byte   W96
@  #07 @125   ----------------------------------------
 .byte   W96
@  #07 @126   ----------------------------------------
 .byte   W96
@  #07 @127   ----------------------------------------
 .byte   W96
@  #07 @128   ----------------------------------------
 .byte   W96
@  #07 @129   ----------------------------------------
 .byte   W96
@  #07 @130   ----------------------------------------
 .byte   W96
@  #07 @131   ----------------------------------------
 .byte   W96
@  #07 @132   ----------------------------------------
 .byte   W96
 .byte   FINE

@**************** Track 8 (Midi-Chn.7) ****************@

SMT4B4_008:
@  #08 @000   ----------------------------------------
 .byte   VOL , 50*SMT4B4_mvl/mxv
 .byte   KEYSH , SMT4B4_key+0
 .byte   VOICE , 52
 .byte   W96
@  #08 @001   ----------------------------------------
 .byte   W96
@  #08 @002   ----------------------------------------
 .byte   W96
@  #08 @003   ----------------------------------------
 .byte   W96
@  #08 @004   ----------------------------------------
 .byte   W96
@  #08 @005   ----------------------------------------
 .byte   W96
@  #08 @006   ----------------------------------------
Label_0100592C:
 .byte   W96
@  #08 @007   ----------------------------------------
 .byte   W96
@  #08 @008   ----------------------------------------
 .byte   W96
@  #08 @009   ----------------------------------------
 .byte   W96
@  #08 @010   ----------------------------------------
 .byte   W96
@  #08 @011   ----------------------------------------
 .byte   W96
@  #08 @012   ----------------------------------------
 .byte   W96
@  #08 @013   ----------------------------------------
 .byte   W96
@  #08 @014   ----------------------------------------
 .byte   W96
@  #08 @015   ----------------------------------------
 .byte   W96
@  #08 @016   ----------------------------------------
 .byte   W96
@  #08 @017   ----------------------------------------
 .byte   W96
@  #08 @018   ----------------------------------------
 .byte   W96
@  #08 @019   ----------------------------------------
 .byte   W96
@  #08 @020   ----------------------------------------
 .byte   W96
@  #08 @021   ----------------------------------------
 .byte   W96
@  #08 @022   ----------------------------------------
 .byte   W96
@  #08 @023   ----------------------------------------
 .byte   W96
@  #08 @024   ----------------------------------------
 .byte   W96
@  #08 @025   ----------------------------------------
 .byte   W96
@  #08 @026   ----------------------------------------
 .byte   W96
@  #08 @027   ----------------------------------------
 .byte   W96
@  #08 @028   ----------------------------------------
 .byte   W96
@  #08 @029   ----------------------------------------
 .byte   W96
@  #08 @030   ----------------------------------------
 .byte   W96
@  #08 @031   ----------------------------------------
 .byte   W96
@  #08 @032   ----------------------------------------
 .byte   W96
@  #08 @033   ----------------------------------------
 .byte   W96
@  #08 @034   ----------------------------------------
 .byte   W96
@  #08 @035   ----------------------------------------
 .byte   W96
@  #08 @036   ----------------------------------------
 .byte   W96
@  #08 @037   ----------------------------------------
 .byte   W96
@  #08 @038   ----------------------------------------
 .byte   W96
@  #08 @039   ----------------------------------------
 .byte   W96
@  #08 @040   ----------------------------------------
 .byte   W96
@  #08 @041   ----------------------------------------
 .byte   W96
@  #08 @042   ----------------------------------------
Label_01005950:
 .byte   PAN , c_v-38
 .byte   W15
 .byte   N06 ,An3 ,v072
 .byte   W06
 .byte   N06
 .byte   W06
 .byte   N06
 .byte   W12
 .byte   Dn3
 .byte   W15
 .byte   N06
 .byte   W06
 .byte   En3
 .byte   W09
 .byte   N06
 .byte   W09
 .byte   N06
 .byte   W12
 .byte   An3
 .byte   W06
 .byte   PEND 
@  #08 @043   ----------------------------------------
Label_01005968:
 .byte   W03
 .byte   N06 ,An3 ,v072
 .byte   W18
 .byte   Fs3
 .byte   W09
 .byte   N06
 .byte   W15
 .byte   Dn3
 .byte   W06
 .byte   En3
 .byte   W06
 .byte   N06
 .byte   W06
 .byte   N06
 .byte   W15
 .byte   N06
 .byte   W06
 .byte   An3
 .byte   W12
 .byte   PEND 
@  #08 @044   ----------------------------------------
Label_0100597E:
 .byte   W03
 .byte   N06 ,Fs3 ,v072
 .byte   W12
 .byte   Dn3
 .byte   W18
 .byte   En3
 .byte   W06
 .byte   N06
 .byte   W12
 .byte   N06
 .byte   W18
 .byte   An3
 .byte   W06
 .byte   N06
 .byte   W12
 .byte   Fs3
 .byte   W09
 .byte   PEND 
@  #08 @045   ----------------------------------------
Label_01005992:
 .byte   W15
 .byte   N06 ,An3 ,v072
 .byte   W06
 .byte   N06
 .byte   W06
 .byte   N06
 .byte   W12
 .byte   Dn3
 .byte   W15
 .byte   N06
 .byte   W06
 .byte   En3
 .byte   W09
 .byte   N06
 .byte   W09
 .byte   N06
 .byte   W12
 .byte   An3
 .byte   W06
 .byte   PEND 
@  #08 @046   ----------------------------------------
 .byte   PATT
  .word Label_01005968
@  #08 @047   ----------------------------------------
 .byte   PATT
  .word Label_0100597E
@  #08 @048   ----------------------------------------
Label_010059B2:
 .byte   N03 ,Fs3 ,v072
 .byte   W06
 .byte   Gn3
 .byte   W06
 .byte   Gs3
 .byte   W03
 .byte   N06 ,An3
 .byte   W06
 .byte   N06
 .byte   W06
 .byte   N06
 .byte   W12
 .byte   Dn3
 .byte   W15
 .byte   N06
 .byte   W06
 .byte   En3
 .byte   W09
 .byte   N06
 .byte   W09
 .byte   N06
 .byte   W12
 .byte   An3
 .byte   W06
 .byte   PEND 
@  #08 @049   ----------------------------------------
 .byte   PATT
  .word Label_01005968
@  #08 @050   ----------------------------------------
 .byte   PATT
  .word Label_0100597E
@  #08 @051   ----------------------------------------
 .byte   PATT
  .word Label_01005992
@  #08 @052   ----------------------------------------
 .byte   PATT
  .word Label_01005968
@  #08 @053   ----------------------------------------
 .byte   PATT
  .word Label_0100597E
@  #08 @054   ----------------------------------------
 .byte   PATT
  .word Label_01005992
@  #08 @055   ----------------------------------------
 .byte   PATT
  .word Label_01005968
@  #08 @056   ----------------------------------------
 .byte   PATT
  .word Label_0100597E
@  #08 @057   ----------------------------------------
 .byte   PATT
  .word Label_01005992
@  #08 @058   ----------------------------------------
 .byte   PATT
  .word Label_01005968
@  #08 @059   ----------------------------------------
 .byte   PATT
  .word Label_0100597E
@  #08 @060   ----------------------------------------
 .byte   PATT
  .word Label_010059B2
@  #08 @061   ----------------------------------------
 .byte   PATT
  .word Label_01005968
@  #08 @062   ----------------------------------------
 .byte   PATT
  .word Label_0100597E
@  #08 @063   ----------------------------------------
 .byte   PATT
  .word Label_01005992
@  #08 @064   ----------------------------------------
 .byte   PATT
  .word Label_01005968
@  #08 @065   ----------------------------------------
 .byte   PATT
  .word Label_0100597E
@  #08 @066   ----------------------------------------
 .byte   W96
@  #08 @067   ----------------------------------------
 .byte   W96
@  #08 @068   ----------------------------------------
 .byte   W96
@  #08 @069   ----------------------------------------
 .byte   GOTO
  .word Label_0100592C
@  #08 @070   ----------------------------------------
 .byte   W96
@  #08 @071   ----------------------------------------
 .byte   W96
@  #08 @072   ----------------------------------------
 .byte   W96
@  #08 @073   ----------------------------------------
 .byte   W96
@  #08 @074   ----------------------------------------
 .byte   W96
@  #08 @075   ----------------------------------------
 .byte   W96
@  #08 @076   ----------------------------------------
 .byte   W96
@  #08 @077   ----------------------------------------
 .byte   W96
@  #08 @078   ----------------------------------------
 .byte   W96
@  #08 @079   ----------------------------------------
 .byte   W96
@  #08 @080   ----------------------------------------
 .byte   W96
@  #08 @081   ----------------------------------------
 .byte   W96
@  #08 @082   ----------------------------------------
 .byte   W96
@  #08 @083   ----------------------------------------
 .byte   W96
@  #08 @084   ----------------------------------------
 .byte   W96
@  #08 @085   ----------------------------------------
 .byte   W96
@  #08 @086   ----------------------------------------
 .byte   W96
@  #08 @087   ----------------------------------------
 .byte   W96
@  #08 @088   ----------------------------------------
 .byte   W96
@  #08 @089   ----------------------------------------
 .byte   W96
@  #08 @090   ----------------------------------------
 .byte   W96
@  #08 @091   ----------------------------------------
 .byte   W96
@  #08 @092   ----------------------------------------
 .byte   W96
@  #08 @093   ----------------------------------------
 .byte   W96
@  #08 @094   ----------------------------------------
 .byte   W96
@  #08 @095   ----------------------------------------
 .byte   W96
@  #08 @096   ----------------------------------------
 .byte   W96
@  #08 @097   ----------------------------------------
 .byte   W96
@  #08 @098   ----------------------------------------
 .byte   W96
@  #08 @099   ----------------------------------------
 .byte   W96
@  #08 @100   ----------------------------------------
 .byte   W96
@  #08 @101   ----------------------------------------
 .byte   W96
@  #08 @102   ----------------------------------------
 .byte   W96
@  #08 @103   ----------------------------------------
 .byte   W96
@  #08 @104   ----------------------------------------
 .byte   W96
@  #08 @105   ----------------------------------------
 .byte   W96
@  #08 @106   ----------------------------------------
 .byte   PATT
  .word Label_01005950
@  #08 @107   ----------------------------------------
 .byte   PATT
  .word Label_01005968
@  #08 @108   ----------------------------------------
 .byte   PATT
  .word Label_0100597E
@  #08 @109   ----------------------------------------
 .byte   PATT
  .word Label_01005992
@  #08 @110   ----------------------------------------
 .byte   PATT
  .word Label_01005968
@  #08 @111   ----------------------------------------
 .byte   PATT
  .word Label_0100597E
@  #08 @112   ----------------------------------------
 .byte   PATT
  .word Label_010059B2
@  #08 @113   ----------------------------------------
 .byte   PATT
  .word Label_01005968
@  #08 @114   ----------------------------------------
 .byte   PATT
  .word Label_0100597E
@  #08 @115   ----------------------------------------
 .byte   PATT
  .word Label_01005992
@  #08 @116   ----------------------------------------
 .byte   PATT
  .word Label_01005968
@  #08 @117   ----------------------------------------
 .byte   PATT
  .word Label_0100597E
@  #08 @118   ----------------------------------------
 .byte   PATT
  .word Label_01005992
@  #08 @119   ----------------------------------------
 .byte   PATT
  .word Label_01005968
@  #08 @120   ----------------------------------------
 .byte   PATT
  .word Label_0100597E
@  #08 @121   ----------------------------------------
 .byte   PATT
  .word Label_01005992
@  #08 @122   ----------------------------------------
 .byte   PATT
  .word Label_01005968
@  #08 @123   ----------------------------------------
 .byte   PATT
  .word Label_0100597E
@  #08 @124   ----------------------------------------
 .byte   PATT
  .word Label_010059B2
@  #08 @125   ----------------------------------------
 .byte   PATT
  .word Label_01005968
@  #08 @126   ----------------------------------------
 .byte   PATT
  .word Label_0100597E
@  #08 @127   ----------------------------------------
 .byte   PATT
  .word Label_01005992
@  #08 @128   ----------------------------------------
 .byte   PATT
  .word Label_01005968
@  #08 @129   ----------------------------------------
 .byte   PATT
  .word Label_0100597E
@  #08 @130   ----------------------------------------
 .byte   W96
@  #08 @131   ----------------------------------------
 .byte   W96
@  #08 @132   ----------------------------------------
 .byte   W96
 .byte   FINE

@**************** Track 9 (Midi-Chn.8) ****************@

SMT4B4_009:
@  #09 @000   ----------------------------------------
 .byte   KEYSH , SMT4B4_key+0
 .byte   VOICE , 14
 .byte   W96
@  #09 @001   ----------------------------------------
 .byte   W96
@  #09 @002   ----------------------------------------
 .byte   W96
@  #09 @003   ----------------------------------------
 .byte   W96
@  #09 @004   ----------------------------------------
 .byte   W96
@  #09 @005   ----------------------------------------
 .byte   W96
@  #09 @006   ----------------------------------------
Label_01005AE6:
 .byte   W96
@  #09 @007   ----------------------------------------
 .byte   W96
@  #09 @008   ----------------------------------------
 .byte   W96
@  #09 @009   ----------------------------------------
 .byte   W96
@  #09 @010   ----------------------------------------
 .byte   W96
@  #09 @011   ----------------------------------------
 .byte   W96
@  #09 @012   ----------------------------------------
 .byte   W96
@  #09 @013   ----------------------------------------
 .byte   W96
@  #09 @014   ----------------------------------------
 .byte   W96
@  #09 @015   ----------------------------------------
 .byte   W96
@  #09 @016   ----------------------------------------
 .byte   W96
@  #09 @017   ----------------------------------------
 .byte   W96
@  #09 @018   ----------------------------------------
 .byte   W96
@  #09 @019   ----------------------------------------
 .byte   W96
@  #09 @020   ----------------------------------------
 .byte   W96
@  #09 @021   ----------------------------------------
 .byte   W96
@  #09 @022   ----------------------------------------
 .byte   W96
@  #09 @023   ----------------------------------------
 .byte   W96
@  #09 @024   ----------------------------------------
 .byte   W96
@  #09 @025   ----------------------------------------
 .byte   W96
@  #09 @026   ----------------------------------------
 .byte   W96
@  #09 @027   ----------------------------------------
 .byte   W96
@  #09 @028   ----------------------------------------
 .byte   W96
@  #09 @029   ----------------------------------------
 .byte   W96
@  #09 @030   ----------------------------------------
 .byte   W96
@  #09 @031   ----------------------------------------
 .byte   W96
@  #09 @032   ----------------------------------------
 .byte   W96
@  #09 @033   ----------------------------------------
 .byte   W96
@  #09 @034   ----------------------------------------
 .byte   W96
@  #09 @035   ----------------------------------------
 .byte   W96
@  #09 @036   ----------------------------------------
 .byte   W96
@  #09 @037   ----------------------------------------
 .byte   W96
@  #09 @038   ----------------------------------------
 .byte   W96
@  #09 @039   ----------------------------------------
 .byte   W96
@  #09 @040   ----------------------------------------
 .byte   W96
@  #09 @041   ----------------------------------------
 .byte   W96
@  #09 @042   ----------------------------------------
Label_01005B0A:
 .byte   VOL , 27*SMT4B4_mvl/mxv
 .byte   N72 ,En5 ,v080
 .byte   W96
 .byte   PEND 
@  #09 @043   ----------------------------------------
 .byte   W48
 .byte   N72
 .byte   W48
@  #09 @044   ----------------------------------------
 .byte   W96
@  #09 @045   ----------------------------------------
 .byte   N72
 .byte   W96
@  #09 @046   ----------------------------------------
 .byte   W48
 .byte   N72
 .byte   W48
@  #09 @047   ----------------------------------------
 .byte   W96
@  #09 @048   ----------------------------------------
 .byte   N72
 .byte   W96
@  #09 @049   ----------------------------------------
 .byte   W48
 .byte   N72
 .byte   W48
@  #09 @050   ----------------------------------------
 .byte   W96
@  #09 @051   ----------------------------------------
 .byte   N72
 .byte   W96
@  #09 @052   ----------------------------------------
 .byte   W48
 .byte   N72
 .byte   W48
@  #09 @053   ----------------------------------------
 .byte   W96
@  #09 @054   ----------------------------------------
Label_01005B27:
 .byte   N12 ,En4 ,v092
 .byte   N72 ,En5 ,v080
 .byte   W12
 .byte   N06 ,Dn4 ,v092
 .byte   W06
 .byte   Bn3
 .byte   W12
 .byte   Dn4
 .byte   W56
 .byte   W01
 .byte   N03 ,Bn3
 .byte   W03
 .byte   N06 ,Dn4
 .byte   W06
 .byte   PEND 
@  #09 @055   ----------------------------------------
Label_01005B3E:
 .byte   N12 ,En4 ,v092
 .byte   W12
 .byte   N09 ,Dn4
 .byte   W09
 .byte   An3
 .byte   W09
 .byte   N15 ,Bn3
 .byte   W18
 .byte   N09 ,An4
 .byte   N72 ,En5 ,v080
 .byte   W09
 .byte   N09 ,En4 ,v092
 .byte   W09
 .byte   N06 ,Dn4
 .byte   W06
 .byte   N09 ,En4
 .byte   W24
 .byte   PEND 
@  #09 @056   ----------------------------------------
Label_01005B5B:
 .byte   W21
 .byte   N09 ,Bn3 ,v092
 .byte   W12
 .byte   N06 ,Dn4
 .byte   W06
 .byte   N09 ,An3
 .byte   W36
 .byte   W03
 .byte   Bn4
 .byte   W09
 .byte   N06 ,En4
 .byte   W09
 .byte   PEND 
@  #09 @057   ----------------------------------------
Label_01005B6D:
 .byte   N09 ,Fs4 ,v092
 .byte   N72 ,En5 ,v080
 .byte   W09
 .byte   N06 ,En4 ,v092
 .byte   W09
 .byte   Dn4
 .byte   W09
 .byte   En4
 .byte   W06
 .byte   Bn3
 .byte   W36
 .byte   W03
 .byte   N12 ,Bn4
 .byte   W12
 .byte   N18 ,An4
 .byte   W09
 .byte   N09 ,En4
 .byte   W03
 .byte   PEND 
@  #09 @058   ----------------------------------------
Label_01005B89:
 .byte   W06
 .byte   N09 ,Dn4 ,v092
 .byte   W12
 .byte   En4
 .byte   W30
 .byte   N72 ,En5 ,v080
 .byte   W15
 .byte   N03 ,Bn3 ,v092
 .byte   W03
 .byte   N06 ,Dn4
 .byte   W06
 .byte   N12 ,En4
 .byte   W12
 .byte   N09 ,Dn4
 .byte   W09
 .byte   An3
 .byte   W03
 .byte   PEND 
@  #09 @059   ----------------------------------------
Label_01005BA4:
 .byte   W06
 .byte   N15 ,Bn3 ,v092
 .byte   W18
 .byte   N09 ,An4
 .byte   W09
 .byte   En4
 .byte   W09
 .byte   N06 ,Dn4
 .byte   W06
 .byte   N09 ,En4
 .byte   W48
 .byte   PEND 
@  #09 @060   ----------------------------------------
Label_01005BB5:
 .byte   N12 ,Bn4 ,v092
 .byte   N72 ,En5 ,v080
 .byte   W30
 .byte   N12 ,Dn4 ,v092
 .byte   W12
 .byte   N09 ,En4
 .byte   W44
 .byte   W01
 .byte   N03 ,Bn3
 .byte   W03
 .byte   N06 ,Dn4
 .byte   W06
 .byte   PEND 
@  #09 @061   ----------------------------------------
Label_01005BCB:
 .byte   N12 ,En4 ,v092
 .byte   W12
 .byte   N09 ,Dn4
 .byte   W09
 .byte   An3
 .byte   W09
 .byte   N15 ,Bn3
 .byte   W18
 .byte   N12 ,An4
 .byte   N72 ,En5 ,v080
 .byte   W09
 .byte   N09 ,En4 ,v092
 .byte   W09
 .byte   Dn4
 .byte   W09
 .byte   En4
 .byte   W21
 .byte   PEND 
@  #09 @062   ----------------------------------------
Label_01005BE6:
 .byte   W24
 .byte   N12 ,Bn3 ,v092
 .byte   W12
 .byte   N06 ,Dn4
 .byte   W06
 .byte   An3 ,v100
 .byte   W36
 .byte   N12 ,Bn4
 .byte   W12
 .byte   N06 ,En4
 .byte   W06
 .byte   PEND 
@  #09 @063   ----------------------------------------
Label_01005BF8:
 .byte   N06 ,Fs4 ,v100
 .byte   N72 ,En5 ,v080
 .byte   W12
 .byte   N06 ,En4 ,v100
 .byte   W06
 .byte   Dn4
 .byte   W15
 .byte   En4
 .byte   W06
 .byte   Bn3
 .byte   W32
 .byte   W01
 .byte   N12 ,Bn4 ,v092
 .byte   W24
 .byte   PEND 
@  #09 @064   ----------------------------------------
Label_01005C0F:
 .byte   W06
 .byte   N12 ,Dn4 ,v092
 .byte   W12
 .byte   N09 ,En4
 .byte   W30
 .byte   N72 ,En5 ,v080
 .byte   W15
 .byte   N03 ,Bn3 ,v092
 .byte   W03
 .byte   N06 ,Dn4
 .byte   W06
 .byte   N12 ,En4
 .byte   W12
 .byte   N09 ,Dn4
 .byte   W09
 .byte   An3
 .byte   W03
 .byte   PEND 
@  #09 @065   ----------------------------------------
Label_01005C2B:
 .byte   W06
 .byte   N15 ,Bn3 ,v092
 .byte   W15
 .byte   An4
 .byte   W15
 .byte   N12 ,Dn4
 .byte   W12
 .byte   En4
 .byte   W48
 .byte   PEND 
@  #09 @066   ----------------------------------------
 .byte   N72 ,En5 ,v080
 .byte   W96
@  #09 @067   ----------------------------------------
 .byte   W48
 .byte   N72
 .byte   W48
@  #09 @068   ----------------------------------------
 .byte   W96
@  #09 @069   ----------------------------------------
 .byte   GOTO
  .word Label_01005AE6
@  #09 @070   ----------------------------------------
 .byte   W96
@  #09 @071   ----------------------------------------
 .byte   W96
@  #09 @072   ----------------------------------------
 .byte   W96
@  #09 @073   ----------------------------------------
 .byte   W96
@  #09 @074   ----------------------------------------
 .byte   W96
@  #09 @075   ----------------------------------------
 .byte   W96
@  #09 @076   ----------------------------------------
 .byte   W96
@  #09 @077   ----------------------------------------
 .byte   W96
@  #09 @078   ----------------------------------------
 .byte   W96
@  #09 @079   ----------------------------------------
 .byte   W96
@  #09 @080   ----------------------------------------
 .byte   W96
@  #09 @081   ----------------------------------------
 .byte   W96
@  #09 @082   ----------------------------------------
 .byte   W96
@  #09 @083   ----------------------------------------
 .byte   W96
@  #09 @084   ----------------------------------------
 .byte   W96
@  #09 @085   ----------------------------------------
 .byte   W96
@  #09 @086   ----------------------------------------
 .byte   W96
@  #09 @087   ----------------------------------------
 .byte   W96
@  #09 @088   ----------------------------------------
 .byte   W96
@  #09 @089   ----------------------------------------
 .byte   W96
@  #09 @090   ----------------------------------------
 .byte   W96
@  #09 @091   ----------------------------------------
 .byte   W96
@  #09 @092   ----------------------------------------
 .byte   W96
@  #09 @093   ----------------------------------------
 .byte   W96
@  #09 @094   ----------------------------------------
 .byte   W96
@  #09 @095   ----------------------------------------
 .byte   W96
@  #09 @096   ----------------------------------------
 .byte   W96
@  #09 @097   ----------------------------------------
 .byte   W96
@  #09 @098   ----------------------------------------
 .byte   W96
@  #09 @099   ----------------------------------------
 .byte   W96
@  #09 @100   ----------------------------------------
 .byte   W96
@  #09 @101   ----------------------------------------
 .byte   W96
@  #09 @102   ----------------------------------------
 .byte   W96
@  #09 @103   ----------------------------------------
 .byte   W96
@  #09 @104   ----------------------------------------
 .byte   W96
@  #09 @105   ----------------------------------------
 .byte   W96
@  #09 @106   ----------------------------------------
 .byte   PATT
  .word Label_01005B0A
@  #09 @107   ----------------------------------------
 .byte   W48
 .byte   N72 ,En5 ,v080
 .byte   W48
@  #09 @108   ----------------------------------------
 .byte   W96
@  #09 @109   ----------------------------------------
 .byte   N72
 .byte   W96
@  #09 @110   ----------------------------------------
 .byte   W48
 .byte   N72
 .byte   W48
@  #09 @111   ----------------------------------------
 .byte   W96
@  #09 @112   ----------------------------------------
 .byte   N72
 .byte   W96
@  #09 @113   ----------------------------------------
 .byte   W48
 .byte   N72
 .byte   W48
@  #09 @114   ----------------------------------------
 .byte   W96
@  #09 @115   ----------------------------------------
 .byte   N72
 .byte   W96
@  #09 @116   ----------------------------------------
 .byte   W48
 .byte   N72
 .byte   W48
@  #09 @117   ----------------------------------------
 .byte   W96
@  #09 @118   ----------------------------------------
 .byte   PATT
  .word Label_01005B27
@  #09 @119   ----------------------------------------
 .byte   PATT
  .word Label_01005B3E
@  #09 @120   ----------------------------------------
 .byte   PATT
  .word Label_01005B5B
@  #09 @121   ----------------------------------------
 .byte   PATT
  .word Label_01005B6D
@  #09 @122   ----------------------------------------
 .byte   PATT
  .word Label_01005B89
@  #09 @123   ----------------------------------------
 .byte   PATT
  .word Label_01005BA4
@  #09 @124   ----------------------------------------
 .byte   PATT
  .word Label_01005BB5
@  #09 @125   ----------------------------------------
 .byte   PATT
  .word Label_01005BCB
@  #09 @126   ----------------------------------------
 .byte   PATT
  .word Label_01005BE6
@  #09 @127   ----------------------------------------
 .byte   PATT
  .word Label_01005BF8
@  #09 @128   ----------------------------------------
 .byte   PATT
  .word Label_01005C0F
@  #09 @129   ----------------------------------------
 .byte   PATT
  .word Label_01005C2B
@  #09 @130   ----------------------------------------
 .byte   N72 ,En5 ,v080
 .byte   W96
@  #09 @131   ----------------------------------------
 .byte   W48
 .byte   N72
 .byte   W48
@  #09 @132   ----------------------------------------
 .byte   W96
 .byte   FINE

@**************** Track 10 (Midi-Chn.9) ****************@

SMT4B4_010:
@  #10 @000   ----------------------------------------
 .byte   VOL , 50*SMT4B4_mvl/mxv
 .byte   KEYSH , SMT4B4_key+0
 .byte   VOICE , 24
 .byte   W96
@  #10 @001   ----------------------------------------
 .byte   W96
@  #10 @002   ----------------------------------------
 .byte   W96
@  #10 @003   ----------------------------------------
 .byte   W96
@  #10 @004   ----------------------------------------
 .byte   W96
@  #10 @005   ----------------------------------------
 .byte   W96
@  #10 @006   ----------------------------------------
Label_01006480:
 .byte   W96
@  #10 @007   ----------------------------------------
 .byte   W96
@  #10 @008   ----------------------------------------
 .byte   W96
@  #10 @009   ----------------------------------------
 .byte   W96
@  #10 @010   ----------------------------------------
 .byte   W96
@  #10 @011   ----------------------------------------
 .byte   W96
@  #10 @012   ----------------------------------------
 .byte   W96
@  #10 @013   ----------------------------------------
 .byte   W96
@  #10 @014   ----------------------------------------
 .byte   W96
@  #10 @015   ----------------------------------------
 .byte   W96
@  #10 @016   ----------------------------------------
 .byte   W96
@  #10 @017   ----------------------------------------
 .byte   W96
@  #10 @018   ----------------------------------------
 .byte   W96
@  #10 @019   ----------------------------------------
 .byte   W96
@  #10 @020   ----------------------------------------
 .byte   W96
@  #10 @021   ----------------------------------------
 .byte   W96
@  #10 @022   ----------------------------------------
 .byte   W96
@  #10 @023   ----------------------------------------
 .byte   W96
@  #10 @024   ----------------------------------------
 .byte   W96
@  #10 @025   ----------------------------------------
 .byte   W96
@  #10 @026   ----------------------------------------
 .byte   W96
@  #10 @027   ----------------------------------------
 .byte   W96
@  #10 @028   ----------------------------------------
 .byte   W96
@  #10 @029   ----------------------------------------
 .byte   W96
@  #10 @030   ----------------------------------------
 .byte   W96
@  #10 @031   ----------------------------------------
 .byte   W96
@  #10 @032   ----------------------------------------
 .byte   W96
@  #10 @033   ----------------------------------------
 .byte   W96
@  #10 @034   ----------------------------------------
 .byte   W96
@  #10 @035   ----------------------------------------
 .byte   W96
@  #10 @036   ----------------------------------------
 .byte   W96
@  #10 @037   ----------------------------------------
 .byte   W96
@  #10 @038   ----------------------------------------
 .byte   W96
@  #10 @039   ----------------------------------------
 .byte   W96
@  #10 @040   ----------------------------------------
 .byte   W96
@  #10 @041   ----------------------------------------
 .byte   W96
@  #10 @042   ----------------------------------------
Label_010064A4:
 .byte   W24
 .byte   N06 ,An3 ,v048
 .byte   W06
 .byte   N12
 .byte   W60
 .byte   N06
 .byte   W06
 .byte   PEND 
@  #10 @043   ----------------------------------------
Label_010064AE:
 .byte   N12 ,An3 ,v048
 .byte   W78
 .byte   N06
 .byte   W06
 .byte   N12
 .byte   W12
 .byte   PEND 
@  #10 @044   ----------------------------------------
Label_010064B7:
 .byte   W66
 .byte   N06 ,An3 ,v048
 .byte   W06
 .byte   N12
 .byte   W24
 .byte   PEND 
@  #10 @045   ----------------------------------------
Label_010064BF:
 .byte   W12
 .byte   N06 ,An3 ,v048
 .byte   W06
 .byte   N12
 .byte   W72
 .byte   N06
 .byte   W06
 .byte   PEND 
@  #10 @046   ----------------------------------------
 .byte   PATT
  .word Label_010064AE
@  #10 @047   ----------------------------------------
 .byte   PATT
  .word Label_010064B7
@  #10 @048   ----------------------------------------
 .byte   PATT
  .word Label_010064A4
@  #10 @049   ----------------------------------------
 .byte   PATT
  .word Label_010064AE
@  #10 @050   ----------------------------------------
 .byte   PATT
  .word Label_010064B7
@  #10 @051   ----------------------------------------
 .byte   PATT
  .word Label_010064BF
@  #10 @052   ----------------------------------------
 .byte   PATT
  .word Label_010064AE
@  #10 @053   ----------------------------------------
 .byte   PATT
  .word Label_010064B7
@  #10 @054   ----------------------------------------
 .byte   PATT
  .word Label_010064A4
@  #10 @055   ----------------------------------------
 .byte   PATT
  .word Label_010064AE
@  #10 @056   ----------------------------------------
 .byte   PATT
  .word Label_010064B7
@  #10 @057   ----------------------------------------
 .byte   PATT
  .word Label_010064BF
@  #10 @058   ----------------------------------------
 .byte   PATT
  .word Label_010064AE
@  #10 @059   ----------------------------------------
 .byte   PATT
  .word Label_010064B7
@  #10 @060   ----------------------------------------
 .byte   PATT
  .word Label_010064A4
@  #10 @061   ----------------------------------------
 .byte   PATT
  .word Label_010064AE
@  #10 @062   ----------------------------------------
 .byte   PATT
  .word Label_010064B7
@  #10 @063   ----------------------------------------
 .byte   PATT
  .word Label_010064BF
@  #10 @064   ----------------------------------------
 .byte   PATT
  .word Label_010064AE
@  #10 @065   ----------------------------------------
 .byte   PATT
  .word Label_010064B7
@  #10 @066   ----------------------------------------
 .byte   W96
@  #10 @067   ----------------------------------------
 .byte   W96
@  #10 @068   ----------------------------------------
 .byte   W96
@  #10 @069   ----------------------------------------
 .byte   GOTO
  .word Label_01006480
@  #10 @070   ----------------------------------------
 .byte   W96
@  #10 @071   ----------------------------------------
 .byte   W96
@  #10 @072   ----------------------------------------
 .byte   W96
@  #10 @073   ----------------------------------------
 .byte   W96
@  #10 @074   ----------------------------------------
 .byte   W96
@  #10 @075   ----------------------------------------
 .byte   W96
@  #10 @076   ----------------------------------------
 .byte   W96
@  #10 @077   ----------------------------------------
 .byte   W96
@  #10 @078   ----------------------------------------
 .byte   W96
@  #10 @079   ----------------------------------------
 .byte   W96
@  #10 @080   ----------------------------------------
 .byte   W96
@  #10 @081   ----------------------------------------
 .byte   W96
@  #10 @082   ----------------------------------------
 .byte   W96
@  #10 @083   ----------------------------------------
 .byte   W96
@  #10 @084   ----------------------------------------
 .byte   W96
@  #10 @085   ----------------------------------------
 .byte   W96
@  #10 @086   ----------------------------------------
 .byte   W96
@  #10 @087   ----------------------------------------
 .byte   W96
@  #10 @088   ----------------------------------------
 .byte   W96
@  #10 @089   ----------------------------------------
 .byte   W96
@  #10 @090   ----------------------------------------
 .byte   W96
@  #10 @091   ----------------------------------------
 .byte   W96
@  #10 @092   ----------------------------------------
 .byte   W96
@  #10 @093   ----------------------------------------
 .byte   W96
@  #10 @094   ----------------------------------------
 .byte   W96
@  #10 @095   ----------------------------------------
 .byte   W96
@  #10 @096   ----------------------------------------
 .byte   W96
@  #10 @097   ----------------------------------------
 .byte   W96
@  #10 @098   ----------------------------------------
 .byte   W96
@  #10 @099   ----------------------------------------
 .byte   W96
@  #10 @100   ----------------------------------------
 .byte   W96
@  #10 @101   ----------------------------------------
 .byte   W96
@  #10 @102   ----------------------------------------
 .byte   W96
@  #10 @103   ----------------------------------------
 .byte   W96
@  #10 @104   ----------------------------------------
 .byte   W96
@  #10 @105   ----------------------------------------
 .byte   W96
@  #10 @106   ----------------------------------------
 .byte   PATT
  .word Label_010064A4
@  #10 @107   ----------------------------------------
 .byte   PATT
  .word Label_010064AE
@  #10 @108   ----------------------------------------
 .byte   PATT
  .word Label_010064B7
@  #10 @109   ----------------------------------------
 .byte   PATT
  .word Label_010064BF
@  #10 @110   ----------------------------------------
 .byte   PATT
  .word Label_010064AE
@  #10 @111   ----------------------------------------
 .byte   PATT
  .word Label_010064B7
@  #10 @112   ----------------------------------------
 .byte   PATT
  .word Label_010064A4
@  #10 @113   ----------------------------------------
 .byte   PATT
  .word Label_010064AE
@  #10 @114   ----------------------------------------
 .byte   PATT
  .word Label_010064B7
@  #10 @115   ----------------------------------------
 .byte   PATT
  .word Label_010064BF
@  #10 @116   ----------------------------------------
 .byte   PATT
  .word Label_010064AE
@  #10 @117   ----------------------------------------
 .byte   PATT
  .word Label_010064B7
@  #10 @118   ----------------------------------------
 .byte   PATT
  .word Label_010064A4
@  #10 @119   ----------------------------------------
 .byte   PATT
  .word Label_010064AE
@  #10 @120   ----------------------------------------
 .byte   PATT
  .word Label_010064B7
@  #10 @121   ----------------------------------------
 .byte   PATT
  .word Label_010064BF
@  #10 @122   ----------------------------------------
 .byte   PATT
  .word Label_010064AE
@  #10 @123   ----------------------------------------
 .byte   PATT
  .word Label_010064B7
@  #10 @124   ----------------------------------------
 .byte   PATT
  .word Label_010064A4
@  #10 @125   ----------------------------------------
 .byte   PATT
  .word Label_010064AE
@  #10 @126   ----------------------------------------
 .byte   PATT
  .word Label_010064B7
@  #10 @127   ----------------------------------------
 .byte   PATT
  .word Label_010064BF
@  #10 @128   ----------------------------------------
 .byte   PATT
  .word Label_010064AE
@  #10 @129   ----------------------------------------
 .byte   PATT
  .word Label_010064B7
@  #10 @130   ----------------------------------------
 .byte   W96
@  #10 @131   ----------------------------------------
 .byte   W96
@  #10 @132   ----------------------------------------
 .byte   W96
 .byte   FINE

@**************** Track 11 (Midi-Chn.10) ****************@

SMT4B4_011:
@  #11 @000   ----------------------------------------
 .byte   VOL , 50*SMT4B4_mvl/mxv
 .byte   KEYSH , SMT4B4_key+0
 .byte   VOICE , 124
 .byte   N06 ,Cn1 ,v104
 .byte   W12
 .byte   Fs1 ,v072
 .byte   W12
 .byte   Fs1 ,v096
 .byte   W12
 .byte   Fs1 ,v080
 .byte   W12
 .byte   Fs1 ,v096
 .byte   W12
 .byte   Fs1 ,v080
 .byte   W12
 .byte   Fs1 ,v096
 .byte   W12
 .byte   Fs1 ,v088
 .byte   W12
@  #11 @001   ----------------------------------------
Label_01006607:
 .byte   N06 ,Fs1 ,v096
 .byte   W12
 .byte   Fs1 ,v092
 .byte   W12
 .byte   Fs1 ,v096
 .byte   W12
 .byte   N06
 .byte   W06
 .byte   N06
 .byte   W06
 .byte   Cn1 ,v104
 .byte   N06 ,Fs1 ,v092
 .byte   W12
 .byte   Fs1 ,v072
 .byte   W12
 .byte   Fs1 ,v096
 .byte   W12
 .byte   Fs1 ,v080
 .byte   W12
 .byte   PEND 
@  #11 @002   ----------------------------------------
 .byte   Fs1 ,v096
 .byte   W12
 .byte   Fs1 ,v080
 .byte   W12
 .byte   Fs1 ,v096
 .byte   W12
 .byte   Fs1 ,v088
 .byte   W12
 .byte   Fs1 ,v096
 .byte   W12
 .byte   Fs1 ,v092
 .byte   W12
 .byte   Fs1 ,v096
 .byte   W12
 .byte   N06
 .byte   W06
 .byte   N06
 .byte   W06
@  #11 @003   ----------------------------------------
 .byte   Cn1 ,v104
 .byte   W12
 .byte   Fs1 ,v072
 .byte   W12
 .byte   Fs1 ,v096
 .byte   W12
 .byte   Fs1 ,v080
 .byte   W12
 .byte   Fs1 ,v096
 .byte   W12
 .byte   Fs1 ,v080
 .byte   W12
 .byte   Fs1 ,v096
 .byte   W12
 .byte   Fs1 ,v088
 .byte   W12
@  #11 @004   ----------------------------------------
 .byte   PATT
  .word Label_01006607
@  #11 @005   ----------------------------------------
 .byte   N06 ,Fs1 ,v096
 .byte   W12
 .byte   Fs1 ,v080
 .byte   W12
 .byte   Fs1 ,v096
 .byte   W36
 .byte   N06
 .byte   W06
 .byte   Cn1 ,v104
 .byte   W06
 .byte   Dn1 ,v108
 .byte   N06 ,Fs1 ,v096
 .byte   W12
 .byte   Dn1 ,v108
 .byte   W06
 .byte   N06
 .byte   W06
@  #11 @006   ----------------------------------------
Label_01006675:
 .byte   N03 ,Cn1 ,v104
 .byte   N03 ,Cs2 ,v096
 .byte   W12
 .byte   Fs1
 .byte   W12
 .byte   N03
 .byte   W12
 .byte   N04
 .byte   W06
 .byte   N03 ,Cn1 ,v104
 .byte   W06
 .byte   Dn1 ,v108
 .byte   N06 ,Fs1 ,v096
 .byte   W06
 .byte   N04
 .byte   W06
 .byte   N05
 .byte   W06
 .byte   N04 ,Dn1 ,v088
 .byte   N04 ,Fs1 ,v052
 .byte   W06
 .byte   N05 ,Cn1 ,v104
 .byte   N05 ,Fs1 ,v096
 .byte   W12
 .byte   N03 ,Fs1 ,v072
 .byte   W06
 .byte   N04 ,Cn1 ,v104
 .byte   W06
 .byte   PEND 
@  #11 @007   ----------------------------------------
Label_010066A7:
 .byte   N05 ,Fs1 ,v096
 .byte   W12
 .byte   N03
 .byte   W06
 .byte   Cn1 ,v108
 .byte   N04 ,Fs1 ,v096
 .byte   W06
 .byte   Dn1 ,v108
 .byte   N04 ,Fs1 ,v096
 .byte   W06
 .byte   N03
 .byte   W06
 .byte   N03
 .byte   W06
 .byte   N02 ,Cn1 ,v104
 .byte   W06
 .byte   N03
 .byte   N04 ,Fs1 ,v096
 .byte   W12
 .byte   N05 ,Fs1 ,v068
 .byte   W12
 .byte   N06 ,Fs1 ,v084
 .byte   W12
 .byte   N06
 .byte   W06
 .byte   N02 ,Cn1 ,v104
 .byte   W06
 .byte   PEND 
@  #11 @008   ----------------------------------------
Label_010066D5:
 .byte   N05 ,Dn1 ,v108
 .byte   N05 ,Fs1 ,v084
 .byte   W06
 .byte   N04
 .byte   W06
 .byte   N03
 .byte   W06
 .byte   N06 ,Dn1 ,v092
 .byte   W06
 .byte   Cn1 ,v104
 .byte   N06 ,Fs1 ,v096
 .byte   W18
 .byte   Cn1 ,v104
 .byte   W06
 .byte   N05 ,Fs1 ,v080
 .byte   W12
 .byte   N03
 .byte   W06
 .byte   N05 ,Cn1 ,v104
 .byte   N05 ,Fs1 ,v080
 .byte   W06
 .byte   N04 ,Dn1 ,v108
 .byte   N05 ,Fs1 ,v100
 .byte   W06
 .byte   N03 ,Fs1 ,v088
 .byte   W06
 .byte   Fs1 ,v100
 .byte   W12
 .byte   PEND 
@  #11 @009   ----------------------------------------
Label_01006709:
 .byte   N03 ,Cn1 ,v104
 .byte   N06 ,Fs1 ,v108
 .byte   W12
 .byte   N03 ,Fs1 ,v096
 .byte   W12
 .byte   N03
 .byte   W12
 .byte   N04
 .byte   W06
 .byte   N03 ,Cn1 ,v104
 .byte   W06
 .byte   Dn1 ,v108
 .byte   N06 ,Fs1 ,v096
 .byte   W06
 .byte   N04
 .byte   W06
 .byte   N05
 .byte   W06
 .byte   N04 ,Dn1 ,v088
 .byte   N04 ,Fs1 ,v052
 .byte   W06
 .byte   N05 ,Cn1 ,v104
 .byte   N05 ,Fs1 ,v096
 .byte   W12
 .byte   N03 ,Fs1 ,v072
 .byte   W06
 .byte   N04 ,Cn1 ,v104
 .byte   W06
 .byte   PEND 
@  #11 @010   ----------------------------------------
 .byte   PATT
  .word Label_010066A7
@  #11 @011   ----------------------------------------
 .byte   PATT
  .word Label_010066D5
@  #11 @012   ----------------------------------------
Label_01006747:
 .byte   N03 ,Cn1 ,v104
 .byte   N04 ,Fs1 ,v116
 .byte   W12
 .byte   N03 ,Fs1 ,v096
 .byte   W12
 .byte   N03
 .byte   W12
 .byte   N04
 .byte   W06
 .byte   N03 ,Cn1 ,v104
 .byte   W06
 .byte   Dn1 ,v108
 .byte   N06 ,Fs1 ,v096
 .byte   W06
 .byte   N04
 .byte   W06
 .byte   N05
 .byte   W06
 .byte   N04 ,Dn1 ,v088
 .byte   N04 ,Fs1 ,v052
 .byte   W06
 .byte   N05 ,Cn1 ,v104
 .byte   N05 ,Fs1 ,v096
 .byte   W12
 .byte   N03 ,Fs1 ,v072
 .byte   W06
 .byte   N04 ,Cn1 ,v104
 .byte   W06
 .byte   PEND 
@  #11 @013   ----------------------------------------
 .byte   PATT
  .word Label_010066A7
@  #11 @014   ----------------------------------------
 .byte   PATT
  .word Label_010066D5
@  #11 @015   ----------------------------------------
 .byte   PATT
  .word Label_01006709
@  #11 @016   ----------------------------------------
 .byte   PATT
  .word Label_010066A7
@  #11 @017   ----------------------------------------
Label_0100678F:
 .byte   N05 ,Dn1 ,v108
 .byte   N05 ,Fs1 ,v084
 .byte   W06
 .byte   N04
 .byte   W06
 .byte   N03
 .byte   W06
 .byte   N06 ,Dn1 ,v092
 .byte   W06
 .byte   Cn1 ,v104
 .byte   N06 ,Fs1 ,v096
 .byte   W12
 .byte   An1 ,v100
 .byte   W06
 .byte   Cn1 ,v104
 .byte   W06
 .byte   N05 ,Fs1 ,v080
 .byte   W12
 .byte   N03
 .byte   W06
 .byte   N05 ,Cn1 ,v104
 .byte   N05 ,Fs1 ,v080
 .byte   W06
 .byte   N04 ,Dn1 ,v108
 .byte   N05 ,Fs1 ,v100
 .byte   W06
 .byte   N03 ,Fs1 ,v088
 .byte   W06
 .byte   Fs1 ,v100
 .byte   W12
 .byte   PEND 
@  #11 @018   ----------------------------------------
 .byte   PATT
  .word Label_01006747
@  #11 @019   ----------------------------------------
 .byte   PATT
  .word Label_010066A7
@  #11 @020   ----------------------------------------
 .byte   PATT
  .word Label_010066D5
@  #11 @021   ----------------------------------------
 .byte   PATT
  .word Label_01006709
@  #11 @022   ----------------------------------------
 .byte   PATT
  .word Label_010066A7
@  #11 @023   ----------------------------------------
 .byte   PATT
  .word Label_010066D5
@  #11 @024   ----------------------------------------
 .byte   PATT
  .word Label_01006747
@  #11 @025   ----------------------------------------
 .byte   PATT
  .word Label_010066A7
@  #11 @026   ----------------------------------------
 .byte   PATT
  .word Label_010066D5
@  #11 @027   ----------------------------------------
 .byte   PATT
  .word Label_01006709
@  #11 @028   ----------------------------------------
 .byte   PATT
  .word Label_010066A7
@  #11 @029   ----------------------------------------
Label_010067FD:
 .byte   N05 ,Dn1 ,v108
 .byte   N05 ,Fs1 ,v084
 .byte   W06
 .byte   N04
 .byte   W06
 .byte   N03
 .byte   W06
 .byte   N06 ,Dn1 ,v092
 .byte   W06
 .byte   Cn1 ,v104
 .byte   N06 ,Fs1 ,v096
 .byte   W12
 .byte   Cn1 ,v104
 .byte   W06
 .byte   Dn1 ,v108
 .byte   W06
 .byte   N05 ,Fs1 ,v080
 .byte   W06
 .byte   N06 ,An1 ,v116
 .byte   W06
 .byte   N03 ,Fs1 ,v080
 .byte   W06
 .byte   N05
 .byte   W06
 .byte   N04 ,Dn1 ,v108
 .byte   N05 ,Fs1 ,v100
 .byte   N05 ,Ds2 ,v096
 .byte   W06
 .byte   N03 ,Dn1 ,v108
 .byte   N03 ,Fs1 ,v088
 .byte   N02 ,Ds2 ,v096
 .byte   W06
 .byte   N03 ,Fs1 ,v100
 .byte   W12
 .byte   PEND 
@  #11 @030   ----------------------------------------
Label_0100683F:
 .byte   N06 ,Cn1 ,v104
 .byte   N07 ,Fs1 ,v080
 .byte   N03 ,Cs2 ,v096
 .byte   N04 ,Ds2
 .byte   W12
 .byte   N03 ,Cn1 ,v104
 .byte   N03 ,Fs1 ,v080
 .byte   W06
 .byte   N06 ,Cn1 ,v104
 .byte   N06 ,Fs1 ,v080
 .byte   W12
 .byte   N03 ,Cn1 ,v104
 .byte   N05 ,Fs1 ,v080
 .byte   W06
 .byte   As1 ,v056
 .byte   W06
 .byte   Cn1 ,v104
 .byte   W06
 .byte   N07 ,Dn1 ,v108
 .byte   N07 ,As1 ,v068
 .byte   W12
 .byte   N04 ,Cn1 ,v104
 .byte   N05 ,As1 ,v068
 .byte   W06
 .byte   N04 ,Dn1 ,v108
 .byte   W06
 .byte   N05 ,Cn1 ,v104
 .byte   N07 ,Fs1 ,v080
 .byte   W12
 .byte   N04 ,Cn1 ,v104
 .byte   N03 ,Fs1 ,v080
 .byte   W06
 .byte   N04 ,Cn1 ,v104
 .byte   N06 ,Fs1 ,v080
 .byte   W06
 .byte   PEND 
@  #11 @031   ----------------------------------------
Label_0100688E:
 .byte   W06
 .byte   N05 ,Cn1 ,v104
 .byte   N05 ,Fs1 ,v080
 .byte   W06
 .byte   As1 ,v056
 .byte   W06
 .byte   N03 ,Cn1 ,v104
 .byte   W06
 .byte   N06 ,Dn1 ,v108
 .byte   N07 ,As1 ,v068
 .byte   W12
 .byte   N06 ,Cn1 ,v104
 .byte   N05 ,As1 ,v068
 .byte   W12
 .byte   N06 ,Cn1 ,v104
 .byte   N07 ,Fs1 ,v080
 .byte   W12
 .byte   N03 ,Cn1 ,v104
 .byte   N03 ,Fs1 ,v080
 .byte   W06
 .byte   N06 ,Cn1 ,v104
 .byte   N06 ,Fs1 ,v080
 .byte   W12
 .byte   N03 ,Cn1 ,v104
 .byte   N05 ,Fs1 ,v080
 .byte   W06
 .byte   As1 ,v056
 .byte   W06
 .byte   Cn1 ,v104
 .byte   W06
 .byte   PEND 
@  #11 @032   ----------------------------------------
Label_010068CE:
 .byte   N07 ,Dn1 ,v108
 .byte   N07 ,As1 ,v068
 .byte   W12
 .byte   N04 ,Cn1 ,v104
 .byte   N05 ,As1 ,v068
 .byte   W06
 .byte   N04 ,Dn1 ,v108
 .byte   W06
 .byte   N05 ,Cn1 ,v104
 .byte   N07 ,Fs1 ,v080
 .byte   W12
 .byte   N04 ,Cn1 ,v104
 .byte   N03 ,Fs1 ,v080
 .byte   W06
 .byte   N04 ,Cn1 ,v104
 .byte   N06 ,Fs1 ,v080
 .byte   W12
 .byte   N05 ,Cn1 ,v104
 .byte   N05 ,Fs1 ,v080
 .byte   W06
 .byte   As1 ,v056
 .byte   W06
 .byte   N03 ,Cn1 ,v104
 .byte   W06
 .byte   N06 ,Dn1 ,v108
 .byte   N07 ,As1 ,v068
 .byte   W12
 .byte   N06 ,Cn1 ,v104
 .byte   N05 ,As1 ,v068
 .byte   W12
 .byte   PEND 
@  #11 @033   ----------------------------------------
Label_01006912:
 .byte   N06 ,Cn1 ,v104
 .byte   N07 ,Fs1 ,v080
 .byte   W12
 .byte   N03 ,Cn1 ,v104
 .byte   N03 ,Fs1 ,v080
 .byte   W06
 .byte   N06 ,Cn1 ,v104
 .byte   N06 ,Fs1 ,v080
 .byte   W12
 .byte   N03 ,Cn1 ,v104
 .byte   N05 ,Fs1 ,v080
 .byte   W06
 .byte   As1 ,v056
 .byte   W06
 .byte   Cn1 ,v104
 .byte   W06
 .byte   N07 ,Dn1 ,v108
 .byte   N07 ,As1 ,v068
 .byte   W12
 .byte   N04 ,Cn1 ,v104
 .byte   N05 ,As1 ,v068
 .byte   W06
 .byte   N04 ,Dn1 ,v108
 .byte   W06
 .byte   N05 ,Cn1 ,v104
 .byte   N05 ,Fs1 ,v080
 .byte   W12
 .byte   N04 ,Cn1 ,v104
 .byte   N06 ,Fs1 ,v096
 .byte   W06
 .byte   N04 ,Cn1 ,v104
 .byte   N04 ,Fs1 ,v096
 .byte   W06
 .byte   PEND 
@  #11 @034   ----------------------------------------
Label_0100695C:
 .byte   W06
 .byte   N05 ,Cn1 ,v104
 .byte   N03 ,Fs1 ,v060
 .byte   W06
 .byte   N08 ,As1 ,v056
 .byte   W06
 .byte   N03 ,Cn1 ,v104
 .byte   W06
 .byte   N06 ,Dn1 ,v108
 .byte   N11 ,As1 ,v068
 .byte   W12
 .byte   N06 ,Cn1 ,v104
 .byte   N09 ,As1 ,v076
 .byte   W12
 .byte   N06 ,Cn1 ,v104
 .byte   N09 ,As1 ,v080
 .byte   W12
 .byte   N03 ,Cn1 ,v104
 .byte   W06
 .byte   N06
 .byte   N03 ,As1 ,v060
 .byte   W12
 .byte   Cn1 ,v104
 .byte   W06
 .byte   N06 ,As1 ,v060
 .byte   W06
 .byte   N05 ,Cn1 ,v104
 .byte   W06
 .byte   PEND 
@  #11 @035   ----------------------------------------
Label_01006996:
 .byte   N07 ,Dn1 ,v108
 .byte   N04 ,As1 ,v076
 .byte   W12
 .byte   Cn1 ,v104
 .byte   N06 ,As1 ,v060
 .byte   W06
 .byte   N04 ,Dn1 ,v108
 .byte   W06
 .byte   N05 ,Cn1 ,v104
 .byte   N11 ,As1 ,v076
 .byte   W12
 .byte   N04 ,Cn1 ,v104
 .byte   W06
 .byte   N04
 .byte   N06 ,As1 ,v076
 .byte   W12
 .byte   N05 ,Dn1 ,v108
 .byte   N05 ,Fs1 ,v096
 .byte   W06
 .byte   N04 ,Cn1 ,v104
 .byte   N05 ,As1 ,v084
 .byte   W06
 .byte   N03 ,Cn1 ,v104
 .byte   W06
 .byte   N06 ,Dn1 ,v108
 .byte   N05 ,As1 ,v084
 .byte   W12
 .byte   N06 ,Dn1 ,v108
 .byte   N08 ,As1 ,v084
 .byte   W06
 .byte   N06 ,Dn1 ,v108
 .byte   W06
 .byte   PEND 
@  #11 @036   ----------------------------------------
Label_010069DC:
 .byte   N06 ,Cn1 ,v104
 .byte   N07 ,Fs1 ,v080
 .byte   N04 ,Ds2 ,v096
 .byte   W12
 .byte   N03 ,Cn1 ,v104
 .byte   N03 ,Fs1 ,v080
 .byte   W06
 .byte   N06 ,Cn1 ,v104
 .byte   N06 ,Fs1 ,v080
 .byte   W12
 .byte   N03 ,Cn1 ,v104
 .byte   N05 ,Fs1 ,v080
 .byte   W06
 .byte   As1 ,v056
 .byte   W06
 .byte   Cn1 ,v104
 .byte   W06
 .byte   N07 ,Dn1 ,v108
 .byte   N07 ,As1 ,v068
 .byte   W12
 .byte   N04 ,Cn1 ,v104
 .byte   N05 ,As1 ,v068
 .byte   W06
 .byte   N04 ,Dn1 ,v108
 .byte   W06
 .byte   N05 ,Cn1 ,v104
 .byte   N07 ,Fs1 ,v080
 .byte   W12
 .byte   N04 ,Cn1 ,v104
 .byte   N03 ,Fs1 ,v080
 .byte   W06
 .byte   N04 ,Cn1 ,v104
 .byte   N06 ,Fs1 ,v080
 .byte   W06
 .byte   PEND 
@  #11 @037   ----------------------------------------
 .byte   PATT
  .word Label_0100688E
@  #11 @038   ----------------------------------------
 .byte   PATT
  .word Label_010068CE
@  #11 @039   ----------------------------------------
 .byte   PATT
  .word Label_01006912
@  #11 @040   ----------------------------------------
 .byte   PATT
  .word Label_0100695C
@  #11 @041   ----------------------------------------
Label_01006A3D:
 .byte   N07 ,Dn1 ,v108
 .byte   N04 ,As1 ,v076
 .byte   W12
 .byte   Cn1 ,v104
 .byte   N06 ,As1 ,v060
 .byte   W06
 .byte   N04 ,Dn1 ,v108
 .byte   W06
 .byte   N04
 .byte   N11 ,As1 ,v076
 .byte   W06
 .byte   N06 ,Cn1 ,v104
 .byte   W12
 .byte   N05
 .byte   N06 ,As1 ,v076
 .byte   W06
 .byte   N04 ,Dn1 ,v108
 .byte   W06
 .byte   N06 ,Cn1 ,v104
 .byte   W06
 .byte   N04 ,Gn1 ,v096
 .byte   N05 ,As1 ,v084
 .byte   W06
 .byte   N06 ,Fn1 ,v096
 .byte   W06
 .byte   Dn1 ,v108
 .byte   N05 ,As1 ,v084
 .byte   W06
 .byte   Dn1 ,v108
 .byte   W06
 .byte   N03 ,Cn1 ,v104
 .byte   N08 ,As1 ,v084
 .byte   W06
 .byte   N06 ,Cn1 ,v104
 .byte   W06
 .byte   PEND 
@  #11 @042   ----------------------------------------
Label_01006A84:
 .byte   N20 ,Cn1 ,v072
 .byte   N09 ,Fn2 ,v064
 .byte   W60
 .byte   N12 ,Cn1 ,v072
 .byte   W36
 .byte   PEND 
@  #11 @043   ----------------------------------------
Label_01006A90:
 .byte   W48
 .byte   N20 ,Cn1 ,v072
 .byte   N09 ,Fn2 ,v064
 .byte   W48
 .byte   PEND 
@  #11 @044   ----------------------------------------
Label_01006A99:
 .byte   W12
 .byte   N12 ,Cn1 ,v072
 .byte   W12
 .byte   N06
 .byte   W18
 .byte   N06
 .byte   W06
 .byte   N05
 .byte   W36
 .byte   N12
 .byte   W12
 .byte   PEND 
@  #11 @045   ----------------------------------------
Label_01006AA7:
 .byte   N08 ,Cn1 ,v072
 .byte   N09 ,Fn2 ,v064
 .byte   W60
 .byte   N20 ,Cn1 ,v072
 .byte   W36
 .byte   PEND 
@  #11 @046   ----------------------------------------
 .byte   W48
 .byte   N20
 .byte   W48
@  #11 @047   ----------------------------------------
Label_01006AB6:
 .byte   W12
 .byte   N12 ,Cn1 ,v072
 .byte   W12
 .byte   N12
 .byte   W18
 .byte   N06
 .byte   W06
 .byte   N06
 .byte   W48
 .byte   PEND 
@  #11 @048   ----------------------------------------
Label_01006AC2:
 .byte   N20 ,Cn1 ,v072
 .byte   N10 ,Fn2 ,v064
 .byte   W60
 .byte   N12 ,Cn1 ,v072
 .byte   W36
 .byte   PEND 
@  #11 @049   ----------------------------------------
 .byte   W48
 .byte   N20
 .byte   W48
@  #11 @050   ----------------------------------------
 .byte   PATT
  .word Label_01006A99
@  #11 @051   ----------------------------------------
Label_01006AD6:
 .byte   N08 ,Cn1 ,v072
 .byte   N12 ,Fn2 ,v064
 .byte   W60
 .byte   N20 ,Cn1 ,v072
 .byte   W36
 .byte   PEND 
@  #11 @052   ----------------------------------------
 .byte   W48
 .byte   N20
 .byte   W48
@  #11 @053   ----------------------------------------
 .byte   PATT
  .word Label_01006AB6
@  #11 @054   ----------------------------------------
Label_01006AEA:
 .byte   N12 ,Cn1 ,v072
 .byte   N12 ,As1 ,v052
 .byte   N12 ,Fn2 ,v064
 .byte   W24
 .byte   As1
 .byte   W24
 .byte   As1 ,v060
 .byte   W12
 .byte   N09 ,Cn1 ,v072
 .byte   W12
 .byte   N09
 .byte   N12 ,As1 ,v064
 .byte   W18
 .byte   N06 ,Cn1 ,v072
 .byte   W06
 .byte   PEND 
@  #11 @055   ----------------------------------------
Label_01006B07:
 .byte   N12 ,As1 ,v064
 .byte   W24
 .byte   N12
 .byte   W12
 .byte   N06 ,Cn1 ,v072
 .byte   W12
 .byte   N12
 .byte   N12 ,As1 ,v076
 .byte   W24
 .byte   As1 ,v064
 .byte   W24
 .byte   PEND 
@  #11 @056   ----------------------------------------
Label_01006B1A:
 .byte   N12 ,As1 ,v072
 .byte   W12
 .byte   N09 ,Cn1
 .byte   W12
 .byte   N09
 .byte   N12 ,As1 ,v064
 .byte   W12
 .byte   N06 ,Fn1 ,v052
 .byte   W06
 .byte   Cn1 ,v072
 .byte   W06
 .byte   N12 ,As1 ,v060
 .byte   W24
 .byte   N12
 .byte   W12
 .byte   N06 ,Cn1 ,v072
 .byte   W12
 .byte   PEND 
@  #11 @057   ----------------------------------------
Label_01006B38:
 .byte   N12 ,Cn1 ,v072
 .byte   N12 ,As1 ,v052
 .byte   W24
 .byte   As1 ,v064
 .byte   W24
 .byte   As1 ,v060
 .byte   W12
 .byte   N09 ,Cn1 ,v072
 .byte   W12
 .byte   N09
 .byte   N12 ,As1 ,v064
 .byte   W12
 .byte   N06 ,Fn1 ,v052
 .byte   W06
 .byte   Cn1 ,v072
 .byte   W06
 .byte   PEND 
@  #11 @058   ----------------------------------------
 .byte   PATT
  .word Label_01006B07
@  #11 @059   ----------------------------------------
Label_01006B5B:
 .byte   N12 ,As1 ,v072
 .byte   W12
 .byte   N09 ,Cn1
 .byte   W12
 .byte   N09
 .byte   N12 ,As1 ,v064
 .byte   W12
 .byte   N06 ,Fn1 ,v052
 .byte   W06
 .byte   Cn1 ,v072
 .byte   W06
 .byte   N12 ,As1 ,v060
 .byte   W24
 .byte   N12
 .byte   W24
 .byte   PEND 
@  #11 @060   ----------------------------------------
Label_01006B75:
 .byte   N12 ,Cn1 ,v072
 .byte   N12 ,As1 ,v052
 .byte   N15 ,Fn2 ,v064
 .byte   W24
 .byte   N12 ,As1
 .byte   W24
 .byte   As1 ,v060
 .byte   W12
 .byte   N09 ,Cn1 ,v072
 .byte   W12
 .byte   N09
 .byte   N12 ,As1 ,v064
 .byte   W12
 .byte   N06 ,Fn1 ,v052
 .byte   W06
 .byte   Cn1 ,v072
 .byte   W06
 .byte   PEND 
@  #11 @061   ----------------------------------------
 .byte   PATT
  .word Label_01006B07
@  #11 @062   ----------------------------------------
 .byte   PATT
  .word Label_01006B1A
@  #11 @063   ----------------------------------------
 .byte   PATT
  .word Label_01006B38
@  #11 @064   ----------------------------------------
Label_01006BA5:
 .byte   N12 ,As1 ,v064
 .byte   W24
 .byte   N12
 .byte   W12
 .byte   N06 ,Cn1 ,v072
 .byte   W12
 .byte   N12
 .byte   N12 ,As1 ,v076
 .byte   W24
 .byte   As1 ,v064
 .byte   W18
 .byte   N12
 .byte   W06
 .byte   PEND 
@  #11 @065   ----------------------------------------
Label_01006BBA:
 .byte   W12
 .byte   N09 ,Cn1 ,v072
 .byte   N12 ,As1
 .byte   W12
 .byte   N09 ,Cn1
 .byte   W06
 .byte   N12 ,As1 ,v064
 .byte   W06
 .byte   N06 ,Fn1 ,v052
 .byte   W06
 .byte   Cn1 ,v072
 .byte   W06
 .byte   N12 ,As1 ,v060
 .byte   W18
 .byte   N12
 .byte   W18
 .byte   N12
 .byte   W12
 .byte   PEND 
@  #11 @066   ----------------------------------------
Label_01006BD8:
 .byte   N06 ,Cn1 ,v096
 .byte   N06 ,Fn2 ,v064
 .byte   W12
 .byte   Fs1
 .byte   W12
 .byte   N06
 .byte   W12
 .byte   N06
 .byte   W12
 .byte   N06
 .byte   W12
 .byte   Cn1 ,v096
 .byte   W12
 .byte   N06
 .byte   W12
 .byte   Fs1 ,v064
 .byte   W12
 .byte   PEND 
@  #11 @067   ----------------------------------------
Label_01006BF0:
 .byte   N06 ,Fs1 ,v064
 .byte   W12
 .byte   N06
 .byte   W12
 .byte   N06
 .byte   W12
 .byte   Cn1 ,v096
 .byte   N06 ,Fs1 ,v064
 .byte   W06
 .byte   N06
 .byte   W06
 .byte   Cn1 ,v096
 .byte   W12
 .byte   Fs1 ,v064
 .byte   W12
 .byte   N06
 .byte   W12
 .byte   N06
 .byte   W12
 .byte   PEND 
@  #11 @068   ----------------------------------------
Label_01006C0B:
 .byte   N06 ,Fs1 ,v064
 .byte   W12
 .byte   N03 ,Cn1 ,v096
 .byte   W12
 .byte   N06
 .byte   N09 ,Fs1 ,v060
 .byte   W12
 .byte   N06 ,Fs1 ,v064
 .byte   W06
 .byte   Cn1 ,v096
 .byte   W06
 .byte   Fs1 ,v064
 .byte   W12
 .byte   Cn1 ,v096
 .byte   N06 ,Fs1 ,v064
 .byte   W06
 .byte   An1 ,v092
 .byte   W06
 .byte   Dn1 ,v100
 .byte   N06 ,Fs1 ,v064
 .byte   W12
 .byte   Dn1 ,v100
 .byte   N06 ,Fs1 ,v064
 .byte   W06
 .byte   Dn1 ,v100
 .byte   N06 ,Fs1 ,v064
 .byte   W06
 .byte   PEND 
@  #11 @069   ----------------------------------------
 .byte   GOTO
  .word Label_01006675
@  #11 @070   ----------------------------------------
 .byte   PATT
  .word Label_01006675
@  #11 @071   ----------------------------------------
 .byte   PATT
  .word Label_010066A7
@  #11 @072   ----------------------------------------
 .byte   PATT
  .word Label_010066D5
@  #11 @073   ----------------------------------------
 .byte   PATT
  .word Label_01006709
@  #11 @074   ----------------------------------------
 .byte   PATT
  .word Label_010066A7
@  #11 @075   ----------------------------------------
 .byte   PATT
  .word Label_010066D5
@  #11 @076   ----------------------------------------
 .byte   PATT
  .word Label_01006747
@  #11 @077   ----------------------------------------
 .byte   PATT
  .word Label_010066A7
@  #11 @078   ----------------------------------------
 .byte   PATT
  .word Label_010066D5
@  #11 @079   ----------------------------------------
 .byte   PATT
  .word Label_01006709
@  #11 @080   ----------------------------------------
 .byte   PATT
  .word Label_010066A7
@  #11 @081   ----------------------------------------
 .byte   PATT
  .word Label_0100678F
@  #11 @082   ----------------------------------------
 .byte   PATT
  .word Label_01006747
@  #11 @083   ----------------------------------------
 .byte   PATT
  .word Label_010066A7
@  #11 @084   ----------------------------------------
 .byte   PATT
  .word Label_010066D5
@  #11 @085   ----------------------------------------
 .byte   PATT
  .word Label_01006709
@  #11 @086   ----------------------------------------
 .byte   PATT
  .word Label_010066A7
@  #11 @087   ----------------------------------------
 .byte   PATT
  .word Label_010066D5
@  #11 @088   ----------------------------------------
 .byte   PATT
  .word Label_01006747
@  #11 @089   ----------------------------------------
 .byte   PATT
  .word Label_010066A7
@  #11 @090   ----------------------------------------
 .byte   PATT
  .word Label_010066D5
@  #11 @091   ----------------------------------------
 .byte   PATT
  .word Label_01006709
@  #11 @092   ----------------------------------------
 .byte   PATT
  .word Label_010066A7
@  #11 @093   ----------------------------------------
 .byte   PATT
  .word Label_010067FD
@  #11 @094   ----------------------------------------
 .byte   PATT
  .word Label_0100683F
@  #11 @095   ----------------------------------------
 .byte   PATT
  .word Label_0100688E
@  #11 @096   ----------------------------------------
 .byte   PATT
  .word Label_010068CE
@  #11 @097   ----------------------------------------
 .byte   PATT
  .word Label_01006912
@  #11 @098   ----------------------------------------
 .byte   PATT
  .word Label_0100695C
@  #11 @099   ----------------------------------------
 .byte   PATT
  .word Label_01006996
@  #11 @100   ----------------------------------------
 .byte   PATT
  .word Label_010069DC
@  #11 @101   ----------------------------------------
 .byte   PATT
  .word Label_0100688E
@  #11 @102   ----------------------------------------
 .byte   PATT
  .word Label_010068CE
@  #11 @103   ----------------------------------------
 .byte   PATT
  .word Label_01006912
@  #11 @104   ----------------------------------------
 .byte   PATT
  .word Label_0100695C
@  #11 @105   ----------------------------------------
 .byte   PATT
  .word Label_01006A3D
@  #11 @106   ----------------------------------------
 .byte   PATT
  .word Label_01006A84
@  #11 @107   ----------------------------------------
 .byte   PATT
  .word Label_01006A90
@  #11 @108   ----------------------------------------
 .byte   PATT
  .word Label_01006A99
@  #11 @109   ----------------------------------------
 .byte   PATT
  .word Label_01006AA7
@  #11 @110   ----------------------------------------
 .byte   W48
 .byte   N20 ,Cn1 ,v072
 .byte   W48
@  #11 @111   ----------------------------------------
 .byte   PATT
  .word Label_01006AB6
@  #11 @112   ----------------------------------------
 .byte   PATT
  .word Label_01006AC2
@  #11 @113   ----------------------------------------
 .byte   W48
 .byte   N20 ,Cn1 ,v072
 .byte   W48
@  #11 @114   ----------------------------------------
 .byte   PATT
  .word Label_01006A99
@  #11 @115   ----------------------------------------
 .byte   PATT
  .word Label_01006AD6
@  #11 @116   ----------------------------------------
 .byte   W48
 .byte   N20 ,Cn1 ,v072
 .byte   W48
@  #11 @117   ----------------------------------------
 .byte   PATT
  .word Label_01006AB6
@  #11 @118   ----------------------------------------
 .byte   PATT
  .word Label_01006AEA
@  #11 @119   ----------------------------------------
 .byte   PATT
  .word Label_01006B07
@  #11 @120   ----------------------------------------
 .byte   PATT
  .word Label_01006B1A
@  #11 @121   ----------------------------------------
 .byte   PATT
  .word Label_01006B38
@  #11 @122   ----------------------------------------
 .byte   PATT
  .word Label_01006B07
@  #11 @123   ----------------------------------------
 .byte   PATT
  .word Label_01006B5B
@  #11 @124   ----------------------------------------
 .byte   PATT
  .word Label_01006B75
@  #11 @125   ----------------------------------------
 .byte   PATT
  .word Label_01006B07
@  #11 @126   ----------------------------------------
 .byte   PATT
  .word Label_01006B1A
@  #11 @127   ----------------------------------------
 .byte   PATT
  .word Label_01006B38
@  #11 @128   ----------------------------------------
 .byte   PATT
  .word Label_01006BA5
@  #11 @129   ----------------------------------------
 .byte   PATT
  .word Label_01006BBA
@  #11 @130   ----------------------------------------
 .byte   PATT
  .word Label_01006BD8
@  #11 @131   ----------------------------------------
 .byte   PATT
  .word Label_01006BF0
@  #11 @132   ----------------------------------------
 .byte   PATT
  .word Label_01006C0B
 .byte   FINE

@******************************************************@
	.align	2

SMT4B4:
	.byte	11	@ NumTrks
	.byte	0	@ NumBlks
	.byte	SMT4B4_pri	@ Priority
	.byte	SMT4B4_rev	@ Reverb.
    
	.word	SMT4B4_grp
    
	.word	SMT4B4_001
	.word	SMT4B4_002
	.word	SMT4B4_003
	.word	SMT4B4_004
	.word	SMT4B4_005
	.word	SMT4B4_006
	.word	SMT4B4_007
	.word	SMT4B4_008
	.word	SMT4B4_009
	.word	SMT4B4_010
	.word	SMT4B4_011

	.end
