	.include "MPlayDef.s"

	.equ	Terra_grp, voicegroup000
	.equ	Terra_pri, 0
	.equ	Terra_rev, 0
	.equ	Terra_mvl, 127
	.equ	Terra_key, 0
	.equ	Terra_tbs, 1
	.equ	Terra_exg, 0
	.equ	Terra_cmp, 1

	.section .rodata
	.global	Terra
	.align	2


@**************** Track 1 (Midi-Chn.0) ****************@

Terra_001:
@  #01 @000   ----------------------------------------
 .byte   VOL , 33*Terra_mvl/mxv
 .byte   KEYSH , Terra_key+0
 .byte   TEMPO , 160*Terra_tbs/2
 .byte   VOICE , 75
 .byte   PAN , c_v-35
 .byte   W96
@  #01 @001   ----------------------------------------
 .byte   W96
@  #01 @002   ----------------------------------------
 .byte   W96
@  #01 @003   ----------------------------------------
Label_010072D5:
 .byte   W72
 .byte   N08 ,Gs4 ,v100
 .byte   W12
 .byte   As4
 .byte   W12
 .byte   PEND 
@  #01 @004   ----------------------------------------
Label_010072DD:
 .byte   N08 ,Bn4 ,v108
 .byte   W12
 .byte   Ds5
 .byte   W12
 .byte   TIE ,Bn4
 .byte   W72
 .byte   PEND 
@  #01 @005   ----------------------------------------
 .byte   W64
 .byte   EOT
 .byte   W08
 .byte   N08 ,As4
 .byte   W12
 .byte   Gs4
 .byte   W12
@  #01 @006   ----------------------------------------
Label_010072EF:
 .byte   N44 ,As4 ,v108
 .byte   W48
 .byte   TIE ,Ds4
 .byte   W48
 .byte   PEND 
@  #01 @007   ----------------------------------------
 .byte   W68
 .byte   W03
 .byte   EOT
 .byte   W01
 .byte   N08 ,Gs4
 .byte   W12
 .byte   As4
 .byte   W12
@  #01 @008   ----------------------------------------
 .byte   PATT
  .word Label_010072DD
@  #01 @009   ----------------------------------------
 .byte   W68
 .byte   W03
 .byte   EOT
 .byte   Bn4
 .byte   W01
 .byte   N08 ,As4 ,v108
 .byte   W12
 .byte   Gs4
 .byte   W12
@  #01 @010   ----------------------------------------
Label_01007310:
 .byte   N44 ,As4 ,v108
 .byte   W48
 .byte   TIE ,Ds5
 .byte   W48
 .byte   PEND 
@  #01 @011   ----------------------------------------
 .byte   W68
 .byte   W03
 .byte   EOT
 .byte   W01
 .byte   N08 ,Bn4
 .byte   W12
 .byte   Cs5
 .byte   W12
@  #01 @012   ----------------------------------------
Label_01007321:
 .byte   N08 ,Ds5 ,v108
 .byte   W12
 .byte   Fs5
 .byte   W12
 .byte   TIE ,Ds5
 .byte   W72
 .byte   PEND 
@  #01 @013   ----------------------------------------
 .byte   W68
 .byte   W03
 .byte   EOT
 .byte   W01
 .byte   N08 ,Cs5
 .byte   W12
 .byte   Bn4
 .byte   W12
@  #01 @014   ----------------------------------------
Label_01007334:
 .byte   N44 ,Cs5 ,v108
 .byte   W48
 .byte   TIE ,Fs4
 .byte   W48
 .byte   PEND 
@  #01 @015   ----------------------------------------
 .byte   W68
 .byte   W03
 .byte   EOT
 .byte   W01
 .byte   N08 ,Bn4
 .byte   W12
 .byte   As4
 .byte   W12
@  #01 @016   ----------------------------------------
 .byte   TIE ,Gs4
 .byte   W96
@  #01 @017   ----------------------------------------
 .byte   W68
 .byte   W03
 .byte   EOT
 .byte   W01
 .byte   N08 ,Bn4
 .byte   W12
 .byte   As4
 .byte   W12
@  #01 @018   ----------------------------------------
 .byte   TIE ,Gs4
 .byte   W96
@  #01 @019   ----------------------------------------
 .byte   W68
 .byte   W03
 .byte   EOT
 .byte   W01
 .byte   N08
 .byte   W12
 .byte   As4
 .byte   W12
@  #01 @020   ----------------------------------------
 .byte   PATT
  .word Label_010072DD
@  #01 @021   ----------------------------------------
 .byte   W64
 .byte   EOT
 .byte   Bn4
 .byte   W08
 .byte   N08 ,As4 ,v108
 .byte   W12
 .byte   Gs4
 .byte   W12
@  #01 @022   ----------------------------------------
 .byte   PATT
  .word Label_010072EF
@  #01 @023   ----------------------------------------
 .byte   W68
 .byte   W03
 .byte   EOT
 .byte   Ds4
 .byte   W01
 .byte   N08 ,Gs4 ,v108
 .byte   W12
 .byte   As4
 .byte   W12
@  #01 @024   ----------------------------------------
 .byte   PATT
  .word Label_010072DD
@  #01 @025   ----------------------------------------
 .byte   W68
 .byte   W03
 .byte   EOT
 .byte   Bn4
 .byte   W01
 .byte   N08 ,As4 ,v108
 .byte   W12
 .byte   Gs4
 .byte   W12
@  #01 @026   ----------------------------------------
 .byte   PATT
  .word Label_01007310
@  #01 @027   ----------------------------------------
 .byte   W68
 .byte   W03
 .byte   EOT
 .byte   Ds5
 .byte   W01
 .byte   N08 ,Bn4 ,v108
 .byte   W12
 .byte   Cs5
 .byte   W12
@  #01 @028   ----------------------------------------
 .byte   PATT
  .word Label_01007321
@  #01 @029   ----------------------------------------
 .byte   W68
 .byte   W03
 .byte   EOT
 .byte   Ds5
 .byte   W01
 .byte   N08 ,Cs5 ,v108
 .byte   W12
 .byte   Bn4
 .byte   W12
@  #01 @030   ----------------------------------------
 .byte   PATT
  .word Label_01007334
@  #01 @031   ----------------------------------------
 .byte   W68
 .byte   W03
 .byte   EOT
 .byte   Fs4
 .byte   W01
 .byte   N08 ,Bn4 ,v108
 .byte   W12
 .byte   As4
 .byte   W12
@  #01 @032   ----------------------------------------
 .byte   TIE ,Gs4
 .byte   W96
@  #01 @033   ----------------------------------------
 .byte   W68
 .byte   W03
 .byte   EOT
 .byte   W01
 .byte   N08 ,Bn4
 .byte   W12
 .byte   As4
 .byte   W12
@  #01 @034   ----------------------------------------
 .byte   TIE ,Gs4
 .byte   W96
@  #01 @035   ----------------------------------------
 .byte   W68
 .byte   W03
 .byte   EOT
 .byte   W01
 .byte   N08 ,Bn4
 .byte   W12
 .byte   Cs5
 .byte   W12
@  #01 @036   ----------------------------------------
 .byte   PATT
  .word Label_01007321
@  #01 @037   ----------------------------------------
 .byte   W68
 .byte   W03
 .byte   EOT
 .byte   Ds5
 .byte   W01
 .byte   N08 ,Cs5 ,v108
 .byte   W12
 .byte   Bn4
 .byte   W12
@  #01 @038   ----------------------------------------
 .byte   PATT
  .word Label_01007334
@  #01 @039   ----------------------------------------
 .byte   W68
 .byte   W03
 .byte   EOT
 .byte   Fs4
 .byte   W01
 .byte   N08 ,Bn4 ,v108
 .byte   W12
 .byte   Cs5
 .byte   W12
@  #01 @040   ----------------------------------------
 .byte   PATT
  .word Label_01007321
@  #01 @041   ----------------------------------------
 .byte   W68
 .byte   W03
 .byte   EOT
 .byte   Ds5
 .byte   W01
 .byte   N08 ,Cs5 ,v108
 .byte   W12
 .byte   Bn4
 .byte   W12
@  #01 @042   ----------------------------------------
Label_01007403:
 .byte   N44 ,Cs5 ,v108
 .byte   W48
 .byte   TIE ,Fs5
 .byte   W48
 .byte   PEND 
@  #01 @043   ----------------------------------------
 .byte   W68
 .byte   W03
 .byte   EOT
 .byte   W01
 .byte   N08 ,Gs4
 .byte   W12
 .byte   As4
 .byte   W12
@  #01 @044   ----------------------------------------
 .byte   PATT
  .word Label_010072DD
@  #01 @045   ----------------------------------------
 .byte   W64
 .byte   EOT
 .byte   Bn4
 .byte   W08
 .byte   N08 ,As4 ,v108
 .byte   W12
 .byte   Gs4
 .byte   W12
@  #01 @046   ----------------------------------------
 .byte   PATT
  .word Label_010072EF
@  #01 @047   ----------------------------------------
 .byte   W68
 .byte   W03
 .byte   EOT
 .byte   Ds4
 .byte   W01
 .byte   N08 ,Bn4 ,v108
 .byte   W12
 .byte   As4
 .byte   W12
@  #01 @048   ----------------------------------------
 .byte   TIE ,Gs4
 .byte   W96
@  #01 @049   ----------------------------------------
 .byte   W68
 .byte   W03
 .byte   EOT
 .byte   W01
 .byte   N08 ,Bn4
 .byte   W12
 .byte   As4
 .byte   W12
@  #01 @050   ----------------------------------------
 .byte   TIE ,Gs4
 .byte   W96
@  #01 @051   ----------------------------------------
 .byte   W68
 .byte   W03
 .byte   EOT
 .byte   W24
 .byte   W01
@  #01 @052   ----------------------------------------
 .byte   W96
@  #01 @053   ----------------------------------------
 .byte   W96
@  #01 @054   ----------------------------------------
 .byte   W96
@  #01 @055   ----------------------------------------
 .byte   W96
@  #01 @056   ----------------------------------------
 .byte   W96
@  #01 @057   ----------------------------------------
 .byte   W96
@  #01 @058   ----------------------------------------
 .byte   W96
@  #01 @059   ----------------------------------------
 .byte   W96
@  #01 @060   ----------------------------------------
 .byte   W96
@  #01 @061   ----------------------------------------
 .byte   W96
@  #01 @062   ----------------------------------------
 .byte   W96
@  #01 @063   ----------------------------------------
 .byte   W96
@  #01 @064   ----------------------------------------
 .byte   W96
@  #01 @065   ----------------------------------------
 .byte   W96
@  #01 @066   ----------------------------------------
 .byte   W96
@  #01 @067   ----------------------------------------
 .byte   W96
@  #01 @068   ----------------------------------------
 .byte   W96
@  #01 @069   ----------------------------------------
 .byte   W96
@  #01 @070   ----------------------------------------
 .byte   W96
@  #01 @071   ----------------------------------------
 .byte   W96
@  #01 @072   ----------------------------------------
 .byte   W96
@  #01 @073   ----------------------------------------
 .byte   PATT
  .word Label_010072D5
@  #01 @074   ----------------------------------------
 .byte   PATT
  .word Label_010072DD
@  #01 @075   ----------------------------------------
 .byte   W64
 .byte   EOT
 .byte   Bn4
 .byte   W08
 .byte   N08 ,As4 ,v108
 .byte   W12
 .byte   Gs4
 .byte   W12
@  #01 @076   ----------------------------------------
 .byte   PATT
  .word Label_010072EF
@  #01 @077   ----------------------------------------
 .byte   W68
 .byte   W03
 .byte   EOT
 .byte   Ds4
 .byte   W01
 .byte   N08 ,Gs4 ,v108
 .byte   W12
 .byte   As4
 .byte   W12
@  #01 @078   ----------------------------------------
 .byte   PATT
  .word Label_010072DD
@  #01 @079   ----------------------------------------
 .byte   W68
 .byte   W03
 .byte   EOT
 .byte   Bn4
 .byte   W01
 .byte   N08 ,As4 ,v108
 .byte   W12
 .byte   Gs4
 .byte   W12
@  #01 @080   ----------------------------------------
 .byte   PATT
  .word Label_01007310
@  #01 @081   ----------------------------------------
 .byte   W68
 .byte   W03
 .byte   EOT
 .byte   Ds5
 .byte   W01
 .byte   N08 ,Bn4 ,v108
 .byte   W12
 .byte   Cs5
 .byte   W12
@  #01 @082   ----------------------------------------
 .byte   PATT
  .word Label_01007321
@  #01 @083   ----------------------------------------
 .byte   W68
 .byte   W03
 .byte   EOT
 .byte   Ds5
 .byte   W01
 .byte   N08 ,Cs5 ,v108
 .byte   W12
 .byte   Bn4
 .byte   W12
@  #01 @084   ----------------------------------------
 .byte   PATT
  .word Label_01007334
@  #01 @085   ----------------------------------------
 .byte   W68
 .byte   W03
 .byte   EOT
 .byte   Fs4
 .byte   W01
 .byte   N08 ,Bn4 ,v108
 .byte   W12
 .byte   As4
 .byte   W12
@  #01 @086   ----------------------------------------
 .byte   TIE ,Gs4
 .byte   W96
@  #01 @087   ----------------------------------------
 .byte   W68
 .byte   W03
 .byte   EOT
 .byte   W01
 .byte   N08 ,Bn4
 .byte   W12
 .byte   As4
 .byte   W12
@  #01 @088   ----------------------------------------
 .byte   TIE ,Gs4
 .byte   W96
@  #01 @089   ----------------------------------------
 .byte   W68
 .byte   W03
 .byte   EOT
 .byte   W01
 .byte   N08
 .byte   W12
 .byte   As4
 .byte   W12
@  #01 @090   ----------------------------------------
 .byte   PATT
  .word Label_010072DD
@  #01 @091   ----------------------------------------
 .byte   W64
 .byte   EOT
 .byte   Bn4
 .byte   W08
 .byte   N08 ,As4 ,v108
 .byte   W12
 .byte   Gs4
 .byte   W12
@  #01 @092   ----------------------------------------
 .byte   PATT
  .word Label_010072EF
@  #01 @093   ----------------------------------------
 .byte   W68
 .byte   W03
 .byte   EOT
 .byte   Ds4
 .byte   W01
 .byte   N08 ,Gs4 ,v108
 .byte   W12
 .byte   As4
 .byte   W12
@  #01 @094   ----------------------------------------
 .byte   PATT
  .word Label_010072DD
@  #01 @095   ----------------------------------------
 .byte   W68
 .byte   W03
 .byte   EOT
 .byte   Bn4
 .byte   W01
 .byte   N08 ,As4 ,v108
 .byte   W12
 .byte   Gs4
 .byte   W12
@  #01 @096   ----------------------------------------
 .byte   PATT
  .word Label_01007310
@  #01 @097   ----------------------------------------
 .byte   W68
 .byte   W03
 .byte   EOT
 .byte   Ds5
 .byte   W01
 .byte   N08 ,Bn4 ,v108
 .byte   W12
 .byte   Cs5
 .byte   W12
@  #01 @098   ----------------------------------------
 .byte   PATT
  .word Label_01007321
@  #01 @099   ----------------------------------------
 .byte   W68
 .byte   W03
 .byte   EOT
 .byte   Ds5
 .byte   W01
 .byte   N08 ,Cs5 ,v108
 .byte   W12
 .byte   Bn4
 .byte   W12
@  #01 @100   ----------------------------------------
 .byte   PATT
  .word Label_01007334
@  #01 @101   ----------------------------------------
 .byte   W68
 .byte   W03
 .byte   EOT
 .byte   Fs4
 .byte   W01
 .byte   N08 ,Bn4 ,v108
 .byte   W12
 .byte   As4
 .byte   W12
@  #01 @102   ----------------------------------------
 .byte   TIE ,Gs4
 .byte   W96
@  #01 @103   ----------------------------------------
 .byte   W68
 .byte   W03
 .byte   EOT
 .byte   W01
 .byte   N08 ,Bn4
 .byte   W12
 .byte   As4
 .byte   W12
@  #01 @104   ----------------------------------------
 .byte   TIE ,Gs4
 .byte   W96
@  #01 @105   ----------------------------------------
 .byte   W68
 .byte   W03
 .byte   EOT
 .byte   W01
 .byte   N08 ,Bn4
 .byte   W12
 .byte   Cs5
 .byte   W12
@  #01 @106   ----------------------------------------
 .byte   PATT
  .word Label_01007321
@  #01 @107   ----------------------------------------
 .byte   W68
 .byte   W03
 .byte   EOT
 .byte   Ds5
 .byte   W01
 .byte   N08 ,Cs5 ,v108
 .byte   W12
 .byte   Bn4
 .byte   W12
@  #01 @108   ----------------------------------------
 .byte   PATT
  .word Label_01007334
@  #01 @109   ----------------------------------------
 .byte   W68
 .byte   W03
 .byte   EOT
 .byte   Fs4
 .byte   W01
 .byte   N08 ,Bn4 ,v108
 .byte   W12
 .byte   Cs5
 .byte   W12
@  #01 @110   ----------------------------------------
 .byte   PATT
  .word Label_01007321
@  #01 @111   ----------------------------------------
 .byte   W68
 .byte   W03
 .byte   EOT
 .byte   Ds5
 .byte   W01
 .byte   N08 ,Cs5 ,v108
 .byte   W12
 .byte   Bn4
 .byte   W12
@  #01 @112   ----------------------------------------
 .byte   PATT
  .word Label_01007403
@  #01 @113   ----------------------------------------
 .byte   W68
 .byte   W03
 .byte   EOT
 .byte   Fs5
 .byte   W01
 .byte   N08 ,Gs4 ,v108
 .byte   W12
 .byte   As4
 .byte   W12
@  #01 @114   ----------------------------------------
 .byte   PATT
  .word Label_010072DD
@  #01 @115   ----------------------------------------
 .byte   W64
 .byte   EOT
 .byte   Bn4
 .byte   W08
 .byte   N08 ,As4 ,v108
 .byte   W12
 .byte   Gs4
 .byte   W12
@  #01 @116   ----------------------------------------
 .byte   PATT
  .word Label_010072EF
@  #01 @117   ----------------------------------------
 .byte   W68
 .byte   W03
 .byte   EOT
 .byte   Ds4
 .byte   W01
 .byte   N08 ,Bn4 ,v108
 .byte   W12
 .byte   As4
 .byte   W12
@  #01 @118   ----------------------------------------
 .byte   TIE ,Gs4
 .byte   W96
@  #01 @119   ----------------------------------------
 .byte   W68
 .byte   W03
 .byte   EOT
 .byte   W01
 .byte   N08 ,Bn4
 .byte   W12
 .byte   As4
 .byte   W12
@  #01 @120   ----------------------------------------
 .byte   TIE ,Gs4
 .byte   W96
@  #01 @121   ----------------------------------------
 .byte   W68
 .byte   W03
 .byte   EOT
 .byte   W24
 .byte   W01
@  #01 @122   ----------------------------------------
 .byte   W96
@  #01 @123   ----------------------------------------
 .byte   W96
@  #01 @124   ----------------------------------------
 .byte   W96
@  #01 @125   ----------------------------------------
 .byte   W96
@  #01 @126   ----------------------------------------
 .byte   W96
@  #01 @127   ----------------------------------------
 .byte   W96
@  #01 @128   ----------------------------------------
 .byte   W96
@  #01 @129   ----------------------------------------
 .byte   W96
@  #01 @130   ----------------------------------------
 .byte   W96
@  #01 @131   ----------------------------------------
 .byte   W96
@  #01 @132   ----------------------------------------
 .byte   W96
@  #01 @133   ----------------------------------------
 .byte   W96
@  #01 @134   ----------------------------------------
 .byte   W96
@  #01 @135   ----------------------------------------
 .byte   W96
@  #01 @136   ----------------------------------------
 .byte   W96
@  #01 @137   ----------------------------------------
 .byte   W96
@  #01 @138   ----------------------------------------
 .byte   W96
@  #01 @139   ----------------------------------------
 .byte   W96
@  #01 @140   ----------------------------------------
 .byte   W96
@  #01 @141   ----------------------------------------
 .byte   W96
@  #01 @142   ----------------------------------------
 .byte   W96
@  #01 @143   ----------------------------------------
 .byte   PATT
  .word Label_010072D5
@  #01 @144   ----------------------------------------
 .byte   GOTO
  .word Label_010072DD
@  #01 @145   ----------------------------------------
 .byte   N08 ,Bn4 ,v096
 .byte   W12
 .byte   Ds5 ,v092
 .byte   W12
 .byte   TIE ,Bn4 ,v088
 .byte   W72
@  #01 @146   ----------------------------------------
 .byte   W64
 .byte   EOT
 .byte   W08
 .byte   N08 ,As4 ,v052
 .byte   W12
 .byte   Gs4 ,v048
 .byte   W12
@  #01 @147   ----------------------------------------
 .byte   N44 ,As4 ,v044
 .byte   W48
 .byte   TIE ,Ds4 ,v032
 .byte   W48
@  #01 @148   ----------------------------------------
 .byte   W68
 .byte   W03
 .byte   EOT
 .byte   W24
 .byte   FINE

@**************** Track 2 (Midi-Chn.1) ****************@

Terra_002:
@  #02 @000   ----------------------------------------
 .byte   VOL , 33*Terra_mvl/mxv
 .byte   KEYSH , Terra_key+0
 .byte   VOICE , 34
 .byte   PAN , c_v-1
 .byte   W96
@  #02 @001   ----------------------------------------
 .byte   W96
@  #02 @002   ----------------------------------------
 .byte   W96
@  #02 @003   ----------------------------------------
 .byte   W96
@  #02 @004   ----------------------------------------
Label_01008630:
 .byte   N16 ,Gs1 ,v120
 .byte   W24
 .byte   N16
 .byte   W24
 .byte   N16
 .byte   W24
 .byte   N04
 .byte   W06
 .byte   N04
 .byte   W06
 .byte   N08
 .byte   W12
 .byte   PEND 
@  #02 @005   ----------------------------------------
Label_0100863F:
 .byte   N16 ,Gs1 ,v120
 .byte   W24
 .byte   N04
 .byte   W06
 .byte   N04
 .byte   W06
 .byte   N08
 .byte   W12
 .byte   N16
 .byte   W24
 .byte   N08
 .byte   W12
 .byte   N08
 .byte   W12
 .byte   PEND 
@  #02 @006   ----------------------------------------
Label_01008650:
 .byte   N16 ,Ds1 ,v120
 .byte   W24
 .byte   N16
 .byte   W24
 .byte   N16
 .byte   W24
 .byte   N04
 .byte   W06
 .byte   N04
 .byte   W06
 .byte   N08
 .byte   W12
 .byte   PEND 
@  #02 @007   ----------------------------------------
Label_0100865F:
 .byte   N16 ,Ds1 ,v120
 .byte   W24
 .byte   N04
 .byte   W06
 .byte   N04
 .byte   W06
 .byte   N08
 .byte   W12
 .byte   N16
 .byte   W24
 .byte   N08
 .byte   W12
 .byte   N08
 .byte   W12
 .byte   PEND 
@  #02 @008   ----------------------------------------
 .byte   PATT
  .word Label_01008630
@  #02 @009   ----------------------------------------
 .byte   PATT
  .word Label_0100863F
@  #02 @010   ----------------------------------------
 .byte   PATT
  .word Label_01008650
@  #02 @011   ----------------------------------------
 .byte   PATT
  .word Label_0100865F
@  #02 @012   ----------------------------------------
Label_01008684:
 .byte   N16 ,Bn1 ,v120
 .byte   W24
 .byte   N16
 .byte   W24
 .byte   N16
 .byte   W24
 .byte   N04
 .byte   W06
 .byte   N04
 .byte   W06
 .byte   N08
 .byte   W12
 .byte   PEND 
@  #02 @013   ----------------------------------------
Label_01008693:
 .byte   N16 ,Bn1 ,v120
 .byte   W24
 .byte   N04
 .byte   W06
 .byte   N04
 .byte   W06
 .byte   N08
 .byte   W12
 .byte   N16
 .byte   W24
 .byte   N08
 .byte   W12
 .byte   N08
 .byte   W12
 .byte   PEND 
@  #02 @014   ----------------------------------------
Label_010086A4:
 .byte   N16 ,Fs1 ,v120
 .byte   W24
 .byte   N16
 .byte   W24
 .byte   N16
 .byte   W24
 .byte   N04
 .byte   W06
 .byte   N04
 .byte   W06
 .byte   N08
 .byte   W12
 .byte   PEND 
@  #02 @015   ----------------------------------------
Label_010086B3:
 .byte   N16 ,Fs1 ,v120
 .byte   W24
 .byte   N04
 .byte   W06
 .byte   N04
 .byte   W06
 .byte   N08
 .byte   W12
 .byte   N16
 .byte   W24
 .byte   N08
 .byte   W12
 .byte   N08
 .byte   W12
 .byte   PEND 
@  #02 @016   ----------------------------------------
Label_010086C4:
 .byte   N16 ,En1 ,v120
 .byte   W24
 .byte   N16
 .byte   W24
 .byte   N16
 .byte   W24
 .byte   N04
 .byte   W06
 .byte   N04
 .byte   W06
 .byte   N08
 .byte   W12
 .byte   PEND 
@  #02 @017   ----------------------------------------
Label_010086D3:
 .byte   N16 ,Cs1 ,v120
 .byte   W24
 .byte   N04
 .byte   W06
 .byte   N04
 .byte   W06
 .byte   N08
 .byte   W12
 .byte   N16
 .byte   W24
 .byte   N08
 .byte   W12
 .byte   N08
 .byte   W12
 .byte   PEND 
@  #02 @018   ----------------------------------------
 .byte   PATT
  .word Label_01008630
@  #02 @019   ----------------------------------------
 .byte   PATT
  .word Label_0100863F
@  #02 @020   ----------------------------------------
 .byte   PATT
  .word Label_01008630
@  #02 @021   ----------------------------------------
 .byte   PATT
  .word Label_0100863F
@  #02 @022   ----------------------------------------
 .byte   PATT
  .word Label_01008650
@  #02 @023   ----------------------------------------
 .byte   PATT
  .word Label_0100865F
@  #02 @024   ----------------------------------------
 .byte   PATT
  .word Label_01008630
@  #02 @025   ----------------------------------------
 .byte   PATT
  .word Label_0100863F
@  #02 @026   ----------------------------------------
 .byte   PATT
  .word Label_01008650
@  #02 @027   ----------------------------------------
 .byte   PATT
  .word Label_0100865F
@  #02 @028   ----------------------------------------
 .byte   PATT
  .word Label_01008684
@  #02 @029   ----------------------------------------
 .byte   PATT
  .word Label_01008693
@  #02 @030   ----------------------------------------
 .byte   PATT
  .word Label_010086A4
@  #02 @031   ----------------------------------------
 .byte   PATT
  .word Label_010086B3
@  #02 @032   ----------------------------------------
 .byte   PATT
  .word Label_010086C4
@  #02 @033   ----------------------------------------
 .byte   PATT
  .word Label_010086D3
@  #02 @034   ----------------------------------------
 .byte   PATT
  .word Label_01008630
@  #02 @035   ----------------------------------------
 .byte   PATT
  .word Label_0100863F
@  #02 @036   ----------------------------------------
 .byte   PATT
  .word Label_01008684
@  #02 @037   ----------------------------------------
 .byte   PATT
  .word Label_01008693
@  #02 @038   ----------------------------------------
 .byte   PATT
  .word Label_010086A4
@  #02 @039   ----------------------------------------
 .byte   PATT
  .word Label_010086B3
@  #02 @040   ----------------------------------------
 .byte   PATT
  .word Label_01008684
@  #02 @041   ----------------------------------------
 .byte   PATT
  .word Label_01008693
@  #02 @042   ----------------------------------------
 .byte   PATT
  .word Label_010086A4
@  #02 @043   ----------------------------------------
 .byte   PATT
  .word Label_010086B3
@  #02 @044   ----------------------------------------
 .byte   PATT
  .word Label_01008630
@  #02 @045   ----------------------------------------
 .byte   PATT
  .word Label_0100863F
@  #02 @046   ----------------------------------------
 .byte   PATT
  .word Label_01008650
@  #02 @047   ----------------------------------------
 .byte   PATT
  .word Label_0100865F
@  #02 @048   ----------------------------------------
 .byte   PATT
  .word Label_010086C4
@  #02 @049   ----------------------------------------
 .byte   PATT
  .word Label_010086D3
@  #02 @050   ----------------------------------------
 .byte   PATT
  .word Label_01008630
@  #02 @051   ----------------------------------------
 .byte   PATT
  .word Label_0100863F
@  #02 @052   ----------------------------------------
Label_0100878E:
 .byte   N08 ,Bn1 ,v127
 .byte   W12
 .byte   N08
 .byte   W12
 .byte   N08
 .byte   W12
 .byte   N08
 .byte   W12
 .byte   N08
 .byte   W12
 .byte   N08
 .byte   W36
 .byte   PEND 
@  #02 @053   ----------------------------------------
 .byte   PATT
  .word Label_0100878E
@  #02 @054   ----------------------------------------
Label_010087A2:
 .byte   N08 ,Gs1 ,v127
 .byte   W12
 .byte   N08
 .byte   W12
 .byte   N08
 .byte   W12
 .byte   N08
 .byte   W12
 .byte   N08
 .byte   W12
 .byte   N08
 .byte   W36
 .byte   PEND 
@  #02 @055   ----------------------------------------
 .byte   PATT
  .word Label_010087A2
@  #02 @056   ----------------------------------------
Label_010087B6:
 .byte   N08 ,Cs2 ,v127
 .byte   W12
 .byte   N08
 .byte   W12
 .byte   N08
 .byte   W12
 .byte   N08
 .byte   W12
 .byte   N08
 .byte   W12
 .byte   N08
 .byte   W36
 .byte   PEND 
@  #02 @057   ----------------------------------------
 .byte   PATT
  .word Label_010087B6
@  #02 @058   ----------------------------------------
Label_010087CA:
 .byte   N08 ,As1 ,v127
 .byte   W12
 .byte   N08
 .byte   W12
 .byte   N08
 .byte   W12
 .byte   N08
 .byte   W12
 .byte   N08
 .byte   W12
 .byte   N08
 .byte   W36
 .byte   PEND 
@  #02 @059   ----------------------------------------
 .byte   PATT
  .word Label_010087CA
@  #02 @060   ----------------------------------------
Label_010087DE:
 .byte   N08 ,Ds2 ,v127
 .byte   W12
 .byte   N08
 .byte   W12
 .byte   N08
 .byte   W12
 .byte   N08
 .byte   W12
 .byte   N08
 .byte   W12
 .byte   N08
 .byte   W36
 .byte   PEND 
@  #02 @061   ----------------------------------------
 .byte   PATT
  .word Label_010087DE
@  #02 @062   ----------------------------------------
 .byte   PATT
  .word Label_0100878E
@  #02 @063   ----------------------------------------
 .byte   PATT
  .word Label_0100878E
@  #02 @064   ----------------------------------------
 .byte   PATT
  .word Label_010087A2
@  #02 @065   ----------------------------------------
 .byte   PATT
  .word Label_010087A2
@  #02 @066   ----------------------------------------
 .byte   PATT
  .word Label_0100878E
@  #02 @067   ----------------------------------------
 .byte   PATT
  .word Label_0100878E
@  #02 @068   ----------------------------------------
 .byte   PATT
  .word Label_010087CA
@  #02 @069   ----------------------------------------
 .byte   PATT
  .word Label_010087CA
@  #02 @070   ----------------------------------------
 .byte   W96
@  #02 @071   ----------------------------------------
 .byte   W96
@  #02 @072   ----------------------------------------
 .byte   W96
@  #02 @073   ----------------------------------------
 .byte   W96
@  #02 @074   ----------------------------------------
 .byte   PATT
  .word Label_01008630
@  #02 @075   ----------------------------------------
 .byte   PATT
  .word Label_0100863F
@  #02 @076   ----------------------------------------
 .byte   PATT
  .word Label_01008650
@  #02 @077   ----------------------------------------
 .byte   PATT
  .word Label_0100865F
@  #02 @078   ----------------------------------------
 .byte   PATT
  .word Label_01008630
@  #02 @079   ----------------------------------------
 .byte   PATT
  .word Label_0100863F
@  #02 @080   ----------------------------------------
 .byte   PATT
  .word Label_01008650
@  #02 @081   ----------------------------------------
 .byte   PATT
  .word Label_0100865F
@  #02 @082   ----------------------------------------
 .byte   PATT
  .word Label_01008684
@  #02 @083   ----------------------------------------
 .byte   PATT
  .word Label_01008693
@  #02 @084   ----------------------------------------
 .byte   PATT
  .word Label_010086A4
@  #02 @085   ----------------------------------------
 .byte   PATT
  .word Label_010086B3
@  #02 @086   ----------------------------------------
 .byte   PATT
  .word Label_010086C4
@  #02 @087   ----------------------------------------
 .byte   PATT
  .word Label_010086D3
@  #02 @088   ----------------------------------------
 .byte   PATT
  .word Label_01008630
@  #02 @089   ----------------------------------------
 .byte   PATT
  .word Label_0100863F
@  #02 @090   ----------------------------------------
 .byte   PATT
  .word Label_01008630
@  #02 @091   ----------------------------------------
 .byte   PATT
  .word Label_0100863F
@  #02 @092   ----------------------------------------
 .byte   PATT
  .word Label_01008650
@  #02 @093   ----------------------------------------
 .byte   PATT
  .word Label_0100865F
@  #02 @094   ----------------------------------------
 .byte   PATT
  .word Label_01008630
@  #02 @095   ----------------------------------------
 .byte   PATT
  .word Label_0100863F
@  #02 @096   ----------------------------------------
 .byte   PATT
  .word Label_01008650
@  #02 @097   ----------------------------------------
 .byte   PATT
  .word Label_0100865F
@  #02 @098   ----------------------------------------
 .byte   PATT
  .word Label_01008684
@  #02 @099   ----------------------------------------
 .byte   PATT
  .word Label_01008693
@  #02 @100   ----------------------------------------
 .byte   PATT
  .word Label_010086A4
@  #02 @101   ----------------------------------------
 .byte   PATT
  .word Label_010086B3
@  #02 @102   ----------------------------------------
 .byte   PATT
  .word Label_010086C4
@  #02 @103   ----------------------------------------
 .byte   PATT
  .word Label_010086D3
@  #02 @104   ----------------------------------------
 .byte   PATT
  .word Label_01008630
@  #02 @105   ----------------------------------------
 .byte   PATT
  .word Label_0100863F
@  #02 @106   ----------------------------------------
 .byte   PATT
  .word Label_01008684
@  #02 @107   ----------------------------------------
 .byte   PATT
  .word Label_01008693
@  #02 @108   ----------------------------------------
 .byte   PATT
  .word Label_010086A4
@  #02 @109   ----------------------------------------
 .byte   PATT
  .word Label_010086B3
@  #02 @110   ----------------------------------------
 .byte   PATT
  .word Label_01008684
@  #02 @111   ----------------------------------------
 .byte   PATT
  .word Label_01008693
@  #02 @112   ----------------------------------------
 .byte   PATT
  .word Label_010086A4
@  #02 @113   ----------------------------------------
 .byte   PATT
  .word Label_010086B3
@  #02 @114   ----------------------------------------
 .byte   PATT
  .word Label_01008630
@  #02 @115   ----------------------------------------
 .byte   PATT
  .word Label_0100863F
@  #02 @116   ----------------------------------------
 .byte   PATT
  .word Label_01008650
@  #02 @117   ----------------------------------------
 .byte   PATT
  .word Label_0100865F
@  #02 @118   ----------------------------------------
 .byte   PATT
  .word Label_010086C4
@  #02 @119   ----------------------------------------
 .byte   PATT
  .word Label_010086D3
@  #02 @120   ----------------------------------------
 .byte   PATT
  .word Label_01008630
@  #02 @121   ----------------------------------------
 .byte   PATT
  .word Label_0100863F
@  #02 @122   ----------------------------------------
 .byte   PATT
  .word Label_0100878E
@  #02 @123   ----------------------------------------
 .byte   PATT
  .word Label_0100878E
@  #02 @124   ----------------------------------------
 .byte   PATT
  .word Label_010087A2
@  #02 @125   ----------------------------------------
 .byte   PATT
  .word Label_010087A2
@  #02 @126   ----------------------------------------
 .byte   PATT
  .word Label_010087B6
@  #02 @127   ----------------------------------------
 .byte   PATT
  .word Label_010087B6
@  #02 @128   ----------------------------------------
 .byte   PATT
  .word Label_010087CA
@  #02 @129   ----------------------------------------
 .byte   PATT
  .word Label_010087CA
@  #02 @130   ----------------------------------------
 .byte   PATT
  .word Label_010087DE
@  #02 @131   ----------------------------------------
 .byte   PATT
  .word Label_010087DE
@  #02 @132   ----------------------------------------
 .byte   PATT
  .word Label_0100878E
@  #02 @133   ----------------------------------------
 .byte   PATT
  .word Label_0100878E
@  #02 @134   ----------------------------------------
 .byte   PATT
  .word Label_010087A2
@  #02 @135   ----------------------------------------
 .byte   PATT
  .word Label_010087A2
@  #02 @136   ----------------------------------------
 .byte   PATT
  .word Label_0100878E
@  #02 @137   ----------------------------------------
 .byte   PATT
  .word Label_0100878E
@  #02 @138   ----------------------------------------
 .byte   PATT
  .word Label_010087CA
@  #02 @139   ----------------------------------------
 .byte   PATT
  .word Label_010087CA
@  #02 @140   ----------------------------------------
 .byte   W96
@  #02 @141   ----------------------------------------
 .byte   W96
@  #02 @142   ----------------------------------------
 .byte   W96
@  #02 @143   ----------------------------------------
 .byte   W96
@  #02 @144   ----------------------------------------
 .byte   GOTO
  .word Label_01008630
@  #02 @145   ----------------------------------------
 .byte   N16 ,Gs1 ,v100
 .byte   W24
 .byte   Gs1 ,v096
 .byte   W24
 .byte   Gs1 ,v092
 .byte   W24
 .byte   N04 ,Gs1 ,v088
 .byte   W06
 .byte   Gs1 ,v084
 .byte   W06
 .byte   N08
 .byte   W12
@  #02 @146   ----------------------------------------
 .byte   N16 ,Gs1 ,v080
 .byte   W24
 .byte   N04 ,Gs1 ,v076
 .byte   W06
 .byte   N04
 .byte   W06
 .byte   N08
 .byte   W12
 .byte   N16 ,Gs1 ,v072
 .byte   W24
 .byte   N08 ,Gs1 ,v068
 .byte   W12
 .byte   Gs1 ,v064
 .byte   W12
@  #02 @147   ----------------------------------------
 .byte   N16 ,Ds1 ,v060
 .byte   W24
 .byte   Ds1 ,v056
 .byte   W24
 .byte   Ds1 ,v052
 .byte   W24
 .byte   N04 ,Ds1 ,v048
 .byte   W06
 .byte   Ds1 ,v044
 .byte   W06
 .byte   N08
 .byte   W12
@  #02 @148   ----------------------------------------
 .byte   N16 ,Ds1 ,v040
 .byte   W24
 .byte   N04 ,Ds1 ,v036
 .byte   W06
 .byte   N04
 .byte   W06
 .byte   N08
 .byte   W12
 .byte   N16 ,Ds1 ,v032
 .byte   W24
 .byte   N08 ,Ds1 ,v028
 .byte   W12
 .byte   Ds1 ,v024
 .byte   W11
 .byte   FINE

@**************** Track 3 (Midi-Chn.2) ****************@

Terra_003:
@  #03 @000   ----------------------------------------
 .byte   VOL , 33*Terra_mvl/mxv
 .byte   KEYSH , Terra_key+0
 .byte   VOICE , 92
 .byte   PAN , c_v+33
 .byte   TIE ,Gs2 ,v072
 .byte   TIE ,Gs3
 .byte   W96
@  #03 @001   ----------------------------------------
 .byte   W96
@  #03 @002   ----------------------------------------
 .byte   W96
@  #03 @003   ----------------------------------------
 .byte   W64
 .byte   EOT
 .byte   Gs2 ,v068
 .byte   W32
@  #03 @004   ----------------------------------------
Label_010089ED:
 .byte   N96 ,Gs3 ,v100
 .byte   W48
 .byte   N44 ,Ds3
 .byte   W48
 .byte   PEND 
@  #03 @005   ----------------------------------------
Label_010089F5:
 .byte   N44 ,Gs3 ,v100
 .byte   W48
 .byte   As3
 .byte   W48
 .byte   PEND 
@  #03 @006   ----------------------------------------
Label_010089FC:
 .byte   TIE ,Ds4 ,v100
 .byte   W48
 .byte   N44 ,Cs4
 .byte   W48
 .byte   PEND 
@  #03 @007   ----------------------------------------
Label_01008A04:
 .byte   N44 ,Bn3 ,v100
 .byte   W48
 .byte   As3
 .byte   W44
 .byte   W03
 .byte   PEND 
 .byte   EOT
 .byte   Ds4
 .byte   W01
@  #03 @008   ----------------------------------------
 .byte   PATT
  .word Label_010089ED
@  #03 @009   ----------------------------------------
 .byte   PATT
  .word Label_010089F5
@  #03 @010   ----------------------------------------
 .byte   PATT
  .word Label_010089FC
@  #03 @011   ----------------------------------------
 .byte   PATT
  .word Label_01008A04
@  #03 @012   ----------------------------------------
 .byte   EOT
 .byte   Ds4
 .byte   W01
Label_01008A26:
 .byte   TIE ,Bn3 ,v100
 .byte   W48
 .byte   N44 ,Ds3
 .byte   W48
 .byte   PEND 
@  #03 @013   ----------------------------------------
Label_01008A2E:
 .byte   N44 ,Gs3 ,v100
 .byte   W48
 .byte   Cs4
 .byte   W44
 .byte   W03
 .byte   PEND 
 .byte   EOT
 .byte   Bn3
 .byte   W01
@  #03 @014   ----------------------------------------
Label_01008A39:
 .byte   TIE ,Cs4 ,v100
 .byte   N44 ,Fs4
 .byte   W48
 .byte   En4
 .byte   W48
 .byte   PEND 
@  #03 @015   ----------------------------------------
 .byte   Ds4
 .byte   W48
 .byte   EOT
 .byte   Cs4
 .byte   N44
 .byte   W48
@  #03 @016   ----------------------------------------
 .byte   N92 ,Bn3
 .byte   N92 ,Ds4
 .byte   W96
@  #03 @017   ----------------------------------------
 .byte   Cs4
 .byte   N92 ,En4
 .byte   W96
@  #03 @018   ----------------------------------------
Label_01008A51:
 .byte   TIE ,Bn3 ,v100
 .byte   TIE ,Ds4
 .byte   W96
 .byte   PEND 
@  #03 @019   ----------------------------------------
 .byte   W92
 .byte   W03
 .byte   EOT
 .byte   Bn3 ,v075
 .byte   W01
@  #03 @020   ----------------------------------------
 .byte   PATT
  .word Label_010089ED
@  #03 @021   ----------------------------------------
 .byte   PATT
  .word Label_010089F5
@  #03 @022   ----------------------------------------
 .byte   PATT
  .word Label_010089FC
@  #03 @023   ----------------------------------------
 .byte   PATT
  .word Label_01008A04
@  #03 @024   ----------------------------------------
 .byte   EOT
 .byte   Ds4
 .byte   W01
@  #03 @025   ----------------------------------------
 .byte   PATT
  .word Label_010089ED
@  #03 @026   ----------------------------------------
 .byte   PATT
  .word Label_010089F5
@  #03 @027   ----------------------------------------
 .byte   PATT
  .word Label_010089FC
@  #03 @028   ----------------------------------------
 .byte   PATT
  .word Label_01008A04
@  #03 @029   ----------------------------------------
 .byte   EOT
 .byte   Ds4
 .byte   W01
@  #03 @030   ----------------------------------------
 .byte   PATT
  .word Label_01008A26
@  #03 @031   ----------------------------------------
 .byte   PATT
  .word Label_01008A2E
@  #03 @032   ----------------------------------------
 .byte   EOT
 .byte   Bn3
 .byte   W01
@  #03 @033   ----------------------------------------
 .byte   PATT
  .word Label_01008A39
@  #03 @034   ----------------------------------------
 .byte   N44 ,Ds4 ,v100
 .byte   W48
 .byte   EOT
 .byte   Cs4
 .byte   N44
 .byte   W48
@  #03 @035   ----------------------------------------
 .byte   N92 ,Bn3
 .byte   N92 ,Ds4
 .byte   W96
@  #03 @036   ----------------------------------------
 .byte   Cs4
 .byte   N92 ,En4
 .byte   W96
@  #03 @037   ----------------------------------------
 .byte   PATT
  .word Label_01008A51
@  #03 @038   ----------------------------------------
 .byte   W92
 .byte   W03
 .byte   EOT
 .byte   Bn3 ,v075
 .byte   W01
@  #03 @039   ----------------------------------------
Label_01008ABA:
 .byte   N96 ,Bn3 ,v100
 .byte   W48
 .byte   N44 ,Fs3
 .byte   W48
 .byte   PEND 
@  #03 @040   ----------------------------------------
Label_01008AC2:
 .byte   N44 ,Bn3 ,v100
 .byte   W48
 .byte   Ds4
 .byte   W48
 .byte   PEND 
@  #03 @041   ----------------------------------------
Label_01008AC9:
 .byte   TIE ,Cs4 ,v100
 .byte   TIE ,Fs4
 .byte   W96
 .byte   PEND 
@  #03 @042   ----------------------------------------
 .byte   W92
 .byte   W03
 .byte   EOT
 .byte   Cs4 ,v078
 .byte   W01
@  #03 @043   ----------------------------------------
 .byte   PATT
  .word Label_01008ABA
@  #03 @044   ----------------------------------------
 .byte   PATT
  .word Label_01008AC2
@  #03 @045   ----------------------------------------
 .byte   PATT
  .word Label_01008AC9
@  #03 @046   ----------------------------------------
 .byte   W92
 .byte   W03
 .byte   EOT
 .byte   Cs4 ,v078
 .byte   W01
@  #03 @047   ----------------------------------------
Label_01008AEB:
 .byte   TIE ,Bn3 ,v100
 .byte   W48
 .byte   N44 ,Gs3
 .byte   W48
 .byte   PEND 
@  #03 @048   ----------------------------------------
Label_01008AF3:
 .byte   N44 ,Ds4 ,v100
 .byte   W48
 .byte   Gs4
 .byte   W44
 .byte   W03
 .byte   PEND 
 .byte   EOT
 .byte   Bn3
 .byte   W01
@  #03 @049   ----------------------------------------
 .byte   TIE ,Fs4
 .byte   W96
@  #03 @050   ----------------------------------------
 .byte   W92
 .byte   W03
 .byte   EOT
 .byte   W01
@  #03 @051   ----------------------------------------
Label_01008B05:
 .byte   TIE ,Bn3 ,v100
 .byte   TIE ,Gs4
 .byte   W96
 .byte   PEND 
@  #03 @052   ----------------------------------------
 .byte   W92
 .byte   W03
 .byte   EOT
 .byte   Bn3 ,v080
 .byte   W01
@  #03 @053   ----------------------------------------
Label_01008B12:
 .byte   TIE ,Gs3 ,v100
 .byte   TIE ,Gs4
 .byte   W96
 .byte   PEND 
@  #03 @054   ----------------------------------------
 .byte   W92
 .byte   W03
 .byte   EOT
 .byte   Gs3 ,v080
 .byte   W01
@  #03 @055   ----------------------------------------
Label_01008B1F:
 .byte   N92 ,Bn3 ,v100
 .byte   N96 ,Ds4
 .byte   W96
 .byte   PEND 
@  #03 @056   ----------------------------------------
Label_01008B26:
 .byte   N44 ,Ds4 ,v100
 .byte   W48
 .byte   Bn3
 .byte   W48
 .byte   PEND 
@  #03 @057   ----------------------------------------
 .byte   TIE ,Gs3
 .byte   W96
@  #03 @058   ----------------------------------------
 .byte   W92
 .byte   W03
 .byte   EOT
 .byte   W01
@  #03 @059   ----------------------------------------
Label_01008B34:
 .byte   N92 ,Cs4 ,v100
 .byte   N96 ,En4
 .byte   W96
 .byte   PEND 
@  #03 @060   ----------------------------------------
Label_01008B3B:
 .byte   N44 ,En4 ,v100
 .byte   W48
 .byte   Cs4
 .byte   W48
 .byte   PEND 
@  #03 @061   ----------------------------------------
 .byte   TIE ,As3
 .byte   W96
@  #03 @062   ----------------------------------------
 .byte   W92
 .byte   W03
 .byte   EOT
 .byte   W01
@  #03 @063   ----------------------------------------
 .byte   N92 ,Ds4
 .byte   W96
@  #03 @064   ----------------------------------------
Label_01008B4C:
 .byte   N44 ,Fs4 ,v100
 .byte   W48
 .byte   Ds4
 .byte   W48
 .byte   PEND 
@  #03 @065   ----------------------------------------
 .byte   TIE ,Bn3
 .byte   W96
@  #03 @066   ----------------------------------------
 .byte   W44
 .byte   W03
 .byte   EOT
 .byte   W01
 .byte   N23 ,Cs4
 .byte   W24
 .byte   Ds4
 .byte   W24
@  #03 @067   ----------------------------------------
Label_01008B5F:
 .byte   N48 ,Gs3 ,v100
 .byte   N44 ,Cs4
 .byte   W48
 .byte   N92 ,Gs3
 .byte   W48
 .byte   PEND 
@  #03 @068   ----------------------------------------
 .byte   W48
 .byte   N44 ,As3
 .byte   W48
@  #03 @069   ----------------------------------------
Label_01008B6D:
 .byte   TIE ,Bn2 ,v100
 .byte   TIE ,Bn3
 .byte   W96
 .byte   PEND 
@  #03 @070   ----------------------------------------
 .byte   W92
 .byte   W03
 .byte   EOT
 .byte   Bn2 ,v071
 .byte   W01
@  #03 @071   ----------------------------------------
Label_01008B7A:
 .byte   TIE ,Cs3 ,v100
 .byte   TIE ,As3
 .byte   W96
 .byte   PEND 
@  #03 @072   ----------------------------------------
 .byte   W92
 .byte   W03
 .byte   EOT
 .byte   Cs3 ,v070
 .byte   W01
@  #03 @073   ----------------------------------------
 .byte   N92 ,Gs3
 .byte   N92 ,Bn3
 .byte   W96
@  #03 @074   ----------------------------------------
 .byte   N92
 .byte   N92 ,Ds4
 .byte   W96
@  #03 @075   ----------------------------------------
 .byte   N92
 .byte   N92 ,Gs4
 .byte   W96
@  #03 @076   ----------------------------------------
 .byte   N92
 .byte   N92 ,Bn4
 .byte   W96
@  #03 @077   ----------------------------------------
 .byte   PATT
  .word Label_010089ED
@  #03 @078   ----------------------------------------
 .byte   PATT
  .word Label_010089F5
@  #03 @079   ----------------------------------------
 .byte   PATT
  .word Label_010089FC
@  #03 @080   ----------------------------------------
 .byte   PATT
  .word Label_01008A04
@  #03 @081   ----------------------------------------
 .byte   EOT
 .byte   Ds4
 .byte   W01
@  #03 @082   ----------------------------------------
 .byte   PATT
  .word Label_010089ED
@  #03 @083   ----------------------------------------
 .byte   PATT
  .word Label_010089F5
@  #03 @084   ----------------------------------------
 .byte   PATT
  .word Label_010089FC
@  #03 @085   ----------------------------------------
 .byte   PATT
  .word Label_01008A04
@  #03 @086   ----------------------------------------
 .byte   EOT
 .byte   Ds4
 .byte   W01
@  #03 @087   ----------------------------------------
 .byte   PATT
  .word Label_01008A26
@  #03 @088   ----------------------------------------
 .byte   PATT
  .word Label_01008A2E
@  #03 @089   ----------------------------------------
 .byte   EOT
 .byte   Bn3
 .byte   W01
@  #03 @090   ----------------------------------------
 .byte   PATT
  .word Label_01008A39
@  #03 @091   ----------------------------------------
 .byte   N44 ,Ds4 ,v100
 .byte   W48
 .byte   EOT
 .byte   Cs4
 .byte   N44
 .byte   W48
@  #03 @092   ----------------------------------------
 .byte   N92 ,Bn3
 .byte   N92 ,Ds4
 .byte   W96
@  #03 @093   ----------------------------------------
 .byte   Cs4
 .byte   N92 ,En4
 .byte   W96
@  #03 @094   ----------------------------------------
 .byte   PATT
  .word Label_01008A51
@  #03 @095   ----------------------------------------
 .byte   W92
 .byte   W03
 .byte   EOT
 .byte   Bn3 ,v075
 .byte   W01
@  #03 @096   ----------------------------------------
 .byte   PATT
  .word Label_010089ED
@  #03 @097   ----------------------------------------
 .byte   PATT
  .word Label_010089F5
@  #03 @098   ----------------------------------------
 .byte   PATT
  .word Label_010089FC
@  #03 @099   ----------------------------------------
 .byte   PATT
  .word Label_01008A04
@  #03 @100   ----------------------------------------
 .byte   EOT
 .byte   Ds4
 .byte   W01
@  #03 @101   ----------------------------------------
 .byte   PATT
  .word Label_010089ED
@  #03 @102   ----------------------------------------
 .byte   PATT
  .word Label_010089F5
@  #03 @103   ----------------------------------------
 .byte   PATT
  .word Label_010089FC
@  #03 @104   ----------------------------------------
 .byte   PATT
  .word Label_01008A04
@  #03 @105   ----------------------------------------
 .byte   EOT
 .byte   Ds4
 .byte   W01
@  #03 @106   ----------------------------------------
 .byte   PATT
  .word Label_01008A26
@  #03 @107   ----------------------------------------
 .byte   PATT
  .word Label_01008A2E
@  #03 @108   ----------------------------------------
 .byte   EOT
 .byte   Bn3
 .byte   W01
@  #03 @109   ----------------------------------------
 .byte   PATT
  .word Label_01008A39
@  #03 @110   ----------------------------------------
 .byte   N44 ,Ds4 ,v100
 .byte   W48
 .byte   EOT
 .byte   Cs4
 .byte   N44
 .byte   W48
@  #03 @111   ----------------------------------------
 .byte   N92 ,Bn3
 .byte   N92 ,Ds4
 .byte   W96
@  #03 @112   ----------------------------------------
 .byte   Cs4
 .byte   N92 ,En4
 .byte   W96
@  #03 @113   ----------------------------------------
 .byte   PATT
  .word Label_01008A51
@  #03 @114   ----------------------------------------
 .byte   W92
 .byte   W03
 .byte   EOT
 .byte   Bn3 ,v075
 .byte   W01
@  #03 @115   ----------------------------------------
 .byte   PATT
  .word Label_01008ABA
@  #03 @116   ----------------------------------------
 .byte   PATT
  .word Label_01008AC2
@  #03 @117   ----------------------------------------
 .byte   PATT
  .word Label_01008AC9
@  #03 @118   ----------------------------------------
 .byte   W92
 .byte   W03
 .byte   EOT
 .byte   Cs4 ,v078
 .byte   W01
@  #03 @119   ----------------------------------------
 .byte   PATT
  .word Label_01008ABA
@  #03 @120   ----------------------------------------
 .byte   PATT
  .word Label_01008AC2
@  #03 @121   ----------------------------------------
 .byte   PATT
  .word Label_01008AC9
@  #03 @122   ----------------------------------------
 .byte   W92
 .byte   W03
 .byte   EOT
 .byte   Cs4 ,v078
 .byte   W01
@  #03 @123   ----------------------------------------
 .byte   PATT
  .word Label_01008AEB
@  #03 @124   ----------------------------------------
 .byte   PATT
  .word Label_01008AF3
@  #03 @125   ----------------------------------------
 .byte   EOT
 .byte   Bn3
 .byte   W01
 .byte   TIE ,Fs4 ,v100
 .byte   W96
@  #03 @126   ----------------------------------------
 .byte   W92
 .byte   W03
 .byte   EOT
 .byte   W01
@  #03 @127   ----------------------------------------
 .byte   PATT
  .word Label_01008B05
@  #03 @128   ----------------------------------------
 .byte   W92
 .byte   W03
 .byte   EOT
 .byte   Bn3 ,v080
 .byte   W01
@  #03 @129   ----------------------------------------
 .byte   PATT
  .word Label_01008B12
@  #03 @130   ----------------------------------------
 .byte   W92
 .byte   W03
 .byte   EOT
 .byte   Gs3 ,v080
 .byte   W01
@  #03 @131   ----------------------------------------
 .byte   PATT
  .word Label_01008B1F
@  #03 @132   ----------------------------------------
 .byte   PATT
  .word Label_01008B26
@  #03 @133   ----------------------------------------
 .byte   TIE ,Gs3 ,v100
 .byte   W96
@  #03 @134   ----------------------------------------
 .byte   W92
 .byte   W03
 .byte   EOT
 .byte   W01
@  #03 @135   ----------------------------------------
 .byte   PATT
  .word Label_01008B34
@  #03 @136   ----------------------------------------
 .byte   PATT
  .word Label_01008B3B
@  #03 @137   ----------------------------------------
 .byte   TIE ,As3 ,v100
 .byte   W96
@  #03 @138   ----------------------------------------
 .byte   W92
 .byte   W03
 .byte   EOT
 .byte   W01
@  #03 @139   ----------------------------------------
 .byte   N92 ,Ds4
 .byte   W96
@  #03 @140   ----------------------------------------
 .byte   PATT
  .word Label_01008B4C
@  #03 @141   ----------------------------------------
 .byte   TIE ,Bn3 ,v100
 .byte   W96
@  #03 @142   ----------------------------------------
 .byte   W44
 .byte   W03
 .byte   EOT
 .byte   W01
 .byte   N23 ,Cs4
 .byte   W24
 .byte   Ds4
 .byte   W24
@  #03 @143   ----------------------------------------
 .byte   PATT
  .word Label_01008B5F
@  #03 @144   ----------------------------------------
 .byte   W48
 .byte   N44 ,As3 ,v100
 .byte   W48
@  #03 @145   ----------------------------------------
 .byte   PATT
  .word Label_01008B6D
@  #03 @146   ----------------------------------------
 .byte   W92
 .byte   W03
 .byte   EOT
 .byte   Bn2 ,v071
 .byte   W01
@  #03 @147   ----------------------------------------
 .byte   PATT
  .word Label_01008B7A
@  #03 @148   ----------------------------------------
 .byte   W92
 .byte   W03
 .byte   EOT
 .byte   Cs3 ,v070
 .byte   W01
@  #03 @149   ----------------------------------------
 .byte   N92 ,Gs3 ,v100
 .byte   N92 ,Bn3
 .byte   W96
@  #03 @150   ----------------------------------------
 .byte   N92
 .byte   N92 ,Ds4
 .byte   W96
@  #03 @151   ----------------------------------------
 .byte   N92
 .byte   N92 ,Gs4
 .byte   W96
@  #03 @152   ----------------------------------------
 .byte   N92
 .byte   N92 ,Bn4
 .byte   W96
@  #03 @153   ----------------------------------------
 .byte   GOTO
  .word Label_010089ED
@  #03 @154   ----------------------------------------
 .byte   N96 ,Gs3 ,v100
 .byte   W48
 .byte   N44 ,Ds3 ,v092
 .byte   W48
@  #03 @155   ----------------------------------------
 .byte   Gs3 ,v080
 .byte   W48
 .byte   As3 ,v072
 .byte   W48
@  #03 @156   ----------------------------------------
 .byte   TIE ,Ds4 ,v060
 .byte   W48
 .byte   N44 ,Cs4 ,v052
 .byte   W48
@  #03 @157   ----------------------------------------
 .byte   Bn3 ,v040
 .byte   W48
 .byte   As3 ,v032
 .byte   W44
 .byte   W03
 .byte   EOT
 .byte   Ds4
 .byte   FINE

@**************** Track 4 (Midi-Chn.3) ****************@

Terra_004:
@  #04 @000   ----------------------------------------
 .byte   VOL , 33*Terra_mvl/mxv
 .byte   KEYSH , Terra_key+0
 .byte   VOICE , 60
 .byte   PAN , c_v+34
 .byte   W96
@  #04 @001   ----------------------------------------
 .byte   W96
@  #04 @002   ----------------------------------------
 .byte   W96
@  #04 @003   ----------------------------------------
 .byte   W96
@  #04 @004   ----------------------------------------
Label_010083BC:
 .byte   W96
@  #04 @005   ----------------------------------------
 .byte   W96
@  #04 @006   ----------------------------------------
 .byte   W96
@  #04 @007   ----------------------------------------
 .byte   W96
@  #04 @008   ----------------------------------------
 .byte   W96
@  #04 @009   ----------------------------------------
 .byte   W96
@  #04 @010   ----------------------------------------
 .byte   W96
@  #04 @011   ----------------------------------------
 .byte   W96
@  #04 @012   ----------------------------------------
 .byte   W96
@  #04 @013   ----------------------------------------
 .byte   W96
@  #04 @014   ----------------------------------------
 .byte   W96
@  #04 @015   ----------------------------------------
 .byte   W96
@  #04 @016   ----------------------------------------
 .byte   W96
@  #04 @017   ----------------------------------------
 .byte   W96
@  #04 @018   ----------------------------------------
 .byte   W96
@  #04 @019   ----------------------------------------
 .byte   W96
@  #04 @020   ----------------------------------------
 .byte   W96
@  #04 @021   ----------------------------------------
 .byte   W96
@  #04 @022   ----------------------------------------
 .byte   W96
@  #04 @023   ----------------------------------------
 .byte   W96
@  #04 @024   ----------------------------------------
 .byte   W96
@  #04 @025   ----------------------------------------
 .byte   W96
@  #04 @026   ----------------------------------------
 .byte   W96
@  #04 @027   ----------------------------------------
 .byte   W96
@  #04 @028   ----------------------------------------
 .byte   W96
@  #04 @029   ----------------------------------------
 .byte   W96
@  #04 @030   ----------------------------------------
 .byte   W96
@  #04 @031   ----------------------------------------
 .byte   W96
@  #04 @032   ----------------------------------------
 .byte   W96
@  #04 @033   ----------------------------------------
 .byte   W96
@  #04 @034   ----------------------------------------
 .byte   W96
@  #04 @035   ----------------------------------------
 .byte   W96
@  #04 @036   ----------------------------------------
 .byte   W48
 .byte   N44 ,Fs2 ,v112
 .byte   W48
@  #04 @037   ----------------------------------------
Label_010083E1:
 .byte   N44 ,Bn2 ,v112
 .byte   W48
 .byte   Ds3
 .byte   W48
 .byte   PEND 
@  #04 @038   ----------------------------------------
 .byte   TIE ,Cs3
 .byte   W96
@  #04 @039   ----------------------------------------
 .byte   W92
 .byte   W03
 .byte   EOT
 .byte   W01
@  #04 @040   ----------------------------------------
 .byte   W48
 .byte   N44 ,Fs2
 .byte   W48
@  #04 @041   ----------------------------------------
 .byte   PATT
  .word Label_010083E1
@  #04 @042   ----------------------------------------
 .byte   TIE ,Cs3 ,v112
 .byte   W96
@  #04 @043   ----------------------------------------
 .byte   W92
 .byte   W03
 .byte   EOT
 .byte   W01
@  #04 @044   ----------------------------------------
 .byte   W48
 .byte   N44 ,Gs2
 .byte   W48
@  #04 @045   ----------------------------------------
Label_01008404:
 .byte   N44 ,Ds3 ,v120
 .byte   W48
 .byte   Gs3
 .byte   W48
 .byte   PEND 
@  #04 @046   ----------------------------------------
 .byte   TIE ,Fs3
 .byte   W96
@  #04 @047   ----------------------------------------
 .byte   W92
 .byte   W03
 .byte   EOT
 .byte   W01
@  #04 @048   ----------------------------------------
Label_01008412:
 .byte   N68 ,Gs3 ,v120
 .byte   W72
 .byte   N05
 .byte   W06
 .byte   N05
 .byte   W06
 .byte   N11
 .byte   W12
 .byte   PEND 
@  #04 @049   ----------------------------------------
Label_0100841D:
 .byte   N68 ,Gs3 ,v120
 .byte   W72
 .byte   N11
 .byte   W12
 .byte   N11
 .byte   W12
 .byte   PEND 
@  #04 @050   ----------------------------------------
 .byte   N92 ,Ds3 ,v116
 .byte   N92 ,Gs3
 .byte   W96
@  #04 @051   ----------------------------------------
 .byte   Ds3 ,v100
 .byte   N92 ,Gs3
 .byte   W96
@  #04 @052   ----------------------------------------
 .byte   Bn2 ,v112
 .byte   W96
@  #04 @053   ----------------------------------------
Label_01008434:
 .byte   N44 ,Ds3 ,v112
 .byte   W48
 .byte   Bn2
 .byte   W48
 .byte   PEND 
@  #04 @054   ----------------------------------------
 .byte   TIE ,Gs2
 .byte   W96
@  #04 @055   ----------------------------------------
 .byte   W92
 .byte   W03
 .byte   EOT
 .byte   W01
@  #04 @056   ----------------------------------------
 .byte   N92 ,Cs3
 .byte   W96
@  #04 @057   ----------------------------------------
 .byte   N44 ,En3
 .byte   W48
 .byte   Cs3
 .byte   W48
@  #04 @058   ----------------------------------------
 .byte   TIE ,As2
 .byte   W96
@  #04 @059   ----------------------------------------
 .byte   W92
 .byte   W03
 .byte   EOT
 .byte   W01
@  #04 @060   ----------------------------------------
 .byte   N92 ,Ds3
 .byte   W96
@  #04 @061   ----------------------------------------
Label_01008454:
 .byte   N44 ,Fs3 ,v112
 .byte   W48
 .byte   Ds3
 .byte   W48
 .byte   PEND 
@  #04 @062   ----------------------------------------
 .byte   TIE ,Bn2
 .byte   W96
@  #04 @063   ----------------------------------------
 .byte   W44
 .byte   W03
 .byte   EOT
 .byte   W01
 .byte   N23 ,Cs3
 .byte   W24
 .byte   Ds3
 .byte   W24
@  #04 @064   ----------------------------------------
Label_01008467:
 .byte   N44 ,Cs3 ,v112
 .byte   W48
 .byte   N92 ,Gs2
 .byte   W48
 .byte   PEND 
@  #04 @065   ----------------------------------------
 .byte   W48
 .byte   N44 ,As2
 .byte   W48
@  #04 @066   ----------------------------------------
 .byte   TIE ,Bn2
 .byte   W96
@  #04 @067   ----------------------------------------
 .byte   W92
 .byte   W03
 .byte   EOT
 .byte   W01
@  #04 @068   ----------------------------------------
 .byte   TIE ,As2
 .byte   W96
@  #04 @069   ----------------------------------------
 .byte   W92
 .byte   W03
 .byte   EOT
 .byte   W01
@  #04 @070   ----------------------------------------
 .byte   TIE ,Bn2 ,v092
 .byte   W96
@  #04 @071   ----------------------------------------
 .byte   W96
@  #04 @072   ----------------------------------------
 .byte   W96
@  #04 @073   ----------------------------------------
 .byte   EOT
 .byte   W96
@  #04 @074   ----------------------------------------
 .byte   W96
@  #04 @075   ----------------------------------------
 .byte   W96
@  #04 @076   ----------------------------------------
 .byte   W96
@  #04 @077   ----------------------------------------
 .byte   W96
@  #04 @078   ----------------------------------------
 .byte   W96
@  #04 @079   ----------------------------------------
 .byte   W96
@  #04 @080   ----------------------------------------
 .byte   W96
@  #04 @081   ----------------------------------------
 .byte   W96
@  #04 @082   ----------------------------------------
 .byte   W96
@  #04 @083   ----------------------------------------
 .byte   W96
@  #04 @084   ----------------------------------------
 .byte   W96
@  #04 @085   ----------------------------------------
 .byte   W96
@  #04 @086   ----------------------------------------
 .byte   W96
@  #04 @087   ----------------------------------------
 .byte   W96
@  #04 @088   ----------------------------------------
 .byte   W96
@  #04 @089   ----------------------------------------
 .byte   W96
@  #04 @090   ----------------------------------------
 .byte   W96
@  #04 @091   ----------------------------------------
 .byte   W96
@  #04 @092   ----------------------------------------
 .byte   W96
@  #04 @093   ----------------------------------------
 .byte   W96
@  #04 @094   ----------------------------------------
 .byte   W96
@  #04 @095   ----------------------------------------
 .byte   W96
@  #04 @096   ----------------------------------------
 .byte   W96
@  #04 @097   ----------------------------------------
 .byte   W96
@  #04 @098   ----------------------------------------
 .byte   W96
@  #04 @099   ----------------------------------------
 .byte   W96
@  #04 @100   ----------------------------------------
 .byte   W96
@  #04 @101   ----------------------------------------
 .byte   W96
@  #04 @102   ----------------------------------------
 .byte   W96
@  #04 @103   ----------------------------------------
 .byte   W96
@  #04 @104   ----------------------------------------
 .byte   W96
@  #04 @105   ----------------------------------------
 .byte   W96
@  #04 @106   ----------------------------------------
 .byte   W48
 .byte   N44 ,Fs2 ,v112
 .byte   W48
@  #04 @107   ----------------------------------------
 .byte   PATT
  .word Label_010083E1
@  #04 @108   ----------------------------------------
 .byte   TIE ,Cs3 ,v112
 .byte   W96
@  #04 @109   ----------------------------------------
 .byte   W92
 .byte   W03
 .byte   EOT
 .byte   W01
@  #04 @110   ----------------------------------------
 .byte   W48
 .byte   N44 ,Fs2
 .byte   W48
@  #04 @111   ----------------------------------------
 .byte   PATT
  .word Label_010083E1
@  #04 @112   ----------------------------------------
 .byte   TIE ,Cs3 ,v112
 .byte   W96
@  #04 @113   ----------------------------------------
 .byte   W92
 .byte   W03
 .byte   EOT
 .byte   W01
@  #04 @114   ----------------------------------------
 .byte   W48
 .byte   N44 ,Gs2
 .byte   W48
@  #04 @115   ----------------------------------------
 .byte   PATT
  .word Label_01008404
@  #04 @116   ----------------------------------------
 .byte   TIE ,Fs3 ,v120
 .byte   W96
@  #04 @117   ----------------------------------------
 .byte   W92
 .byte   W03
 .byte   EOT
 .byte   W01
@  #04 @118   ----------------------------------------
 .byte   PATT
  .word Label_01008412
@  #04 @119   ----------------------------------------
 .byte   PATT
  .word Label_0100841D
@  #04 @120   ----------------------------------------
 .byte   N92 ,Ds3 ,v116
 .byte   N92 ,Gs3
 .byte   W96
@  #04 @121   ----------------------------------------
 .byte   Ds3 ,v100
 .byte   N92 ,Gs3
 .byte   W96
@  #04 @122   ----------------------------------------
 .byte   Bn2 ,v112
 .byte   W96
@  #04 @123   ----------------------------------------
 .byte   PATT
  .word Label_01008434
@  #04 @124   ----------------------------------------
 .byte   TIE ,Gs2 ,v112
 .byte   W96
@  #04 @125   ----------------------------------------
 .byte   W92
 .byte   W03
 .byte   EOT
 .byte   W01
@  #04 @126   ----------------------------------------
 .byte   N92 ,Cs3
 .byte   W96
@  #04 @127   ----------------------------------------
 .byte   N44 ,En3
 .byte   W48
 .byte   Cs3
 .byte   W48
@  #04 @128   ----------------------------------------
 .byte   TIE ,As2
 .byte   W96
@  #04 @129   ----------------------------------------
 .byte   W92
 .byte   W03
 .byte   EOT
 .byte   W01
@  #04 @130   ----------------------------------------
 .byte   N92 ,Ds3
 .byte   W96
@  #04 @131   ----------------------------------------
 .byte   PATT
  .word Label_01008454
@  #04 @132   ----------------------------------------
 .byte   TIE ,Bn2 ,v112
 .byte   W96
@  #04 @133   ----------------------------------------
 .byte   W44
 .byte   W03
 .byte   EOT
 .byte   W01
 .byte   N23 ,Cs3
 .byte   W24
 .byte   Ds3
 .byte   W24
@  #04 @134   ----------------------------------------
 .byte   PATT
  .word Label_01008467
@  #04 @135   ----------------------------------------
 .byte   W48
 .byte   N44 ,As2 ,v112
 .byte   W48
@  #04 @136   ----------------------------------------
 .byte   TIE ,Bn2
 .byte   W96
@  #04 @137   ----------------------------------------
 .byte   W92
 .byte   W03
 .byte   EOT
 .byte   W01
@  #04 @138   ----------------------------------------
 .byte   TIE ,As2
 .byte   W96
@  #04 @139   ----------------------------------------
 .byte   W92
 .byte   W03
 .byte   EOT
 .byte   W01
@  #04 @140   ----------------------------------------
 .byte   TIE ,Bn2 ,v092
 .byte   W96
@  #04 @141   ----------------------------------------
 .byte   W96
@  #04 @142   ----------------------------------------
 .byte   W96
@  #04 @143   ----------------------------------------
 .byte   W92
 .byte   W03
 .byte   EOT
 .byte   W01
@  #04 @144   ----------------------------------------
 .byte   GOTO
  .word Label_010083BC
@  #04 @145   ----------------------------------------
 .byte   W96
@  #04 @146   ----------------------------------------
 .byte   W96
@  #04 @147   ----------------------------------------
 .byte   W96
@  #04 @148   ----------------------------------------
 .byte   W92
 .byte   W03
 .byte   FINE

@**************** Track 5 (Midi-Chn.4) ****************@

Terra_005:
@  #05 @000   ----------------------------------------
 .byte   VOL , 33*Terra_mvl/mxv
 .byte   KEYSH , Terra_key+0
 .byte   VOICE , 47
 .byte   PAN , c_v-22
 .byte   W96
@  #05 @001   ----------------------------------------
 .byte   W96
@  #05 @002   ----------------------------------------
 .byte   W96
@  #05 @003   ----------------------------------------
 .byte   W96
@  #05 @004   ----------------------------------------
Label_01006B98:
 .byte   W96
@  #05 @005   ----------------------------------------
 .byte   W96
@  #05 @006   ----------------------------------------
 .byte   W96
@  #05 @007   ----------------------------------------
 .byte   W96
@  #05 @008   ----------------------------------------
 .byte   W96
@  #05 @009   ----------------------------------------
 .byte   W96
@  #05 @010   ----------------------------------------
 .byte   W96
@  #05 @011   ----------------------------------------
 .byte   W96
@  #05 @012   ----------------------------------------
 .byte   W96
@  #05 @013   ----------------------------------------
 .byte   W96
@  #05 @014   ----------------------------------------
 .byte   W96
@  #05 @015   ----------------------------------------
 .byte   W96
@  #05 @016   ----------------------------------------
 .byte   W96
@  #05 @017   ----------------------------------------
 .byte   W96
@  #05 @018   ----------------------------------------
 .byte   W96
@  #05 @019   ----------------------------------------
 .byte   W96
@  #05 @020   ----------------------------------------
 .byte   W96
@  #05 @021   ----------------------------------------
 .byte   W96
@  #05 @022   ----------------------------------------
 .byte   W96
@  #05 @023   ----------------------------------------
 .byte   W96
@  #05 @024   ----------------------------------------
 .byte   W96
@  #05 @025   ----------------------------------------
 .byte   W96
@  #05 @026   ----------------------------------------
 .byte   W96
@  #05 @027   ----------------------------------------
 .byte   W96
@  #05 @028   ----------------------------------------
 .byte   W96
@  #05 @029   ----------------------------------------
 .byte   W96
@  #05 @030   ----------------------------------------
 .byte   W96
@  #05 @031   ----------------------------------------
 .byte   W96
@  #05 @032   ----------------------------------------
 .byte   W96
@  #05 @033   ----------------------------------------
 .byte   W96
@  #05 @034   ----------------------------------------
 .byte   W96
@  #05 @035   ----------------------------------------
 .byte   W96
@  #05 @036   ----------------------------------------
 .byte   W96
@  #05 @037   ----------------------------------------
 .byte   W96
@  #05 @038   ----------------------------------------
 .byte   W96
@  #05 @039   ----------------------------------------
 .byte   W96
@  #05 @040   ----------------------------------------
 .byte   W96
@  #05 @041   ----------------------------------------
 .byte   W96
@  #05 @042   ----------------------------------------
 .byte   W96
@  #05 @043   ----------------------------------------
 .byte   W96
@  #05 @044   ----------------------------------------
 .byte   W96
@  #05 @045   ----------------------------------------
 .byte   W96
@  #05 @046   ----------------------------------------
 .byte   W96
@  #05 @047   ----------------------------------------
 .byte   W96
@  #05 @048   ----------------------------------------
 .byte   W96
@  #05 @049   ----------------------------------------
 .byte   W96
@  #05 @050   ----------------------------------------
 .byte   W96
@  #05 @051   ----------------------------------------
Label_01006BC7:
 .byte   W72
 .byte   N04 ,Bn1 ,v127
 .byte   W06
 .byte   N04
 .byte   W06
 .byte   N04
 .byte   W06
 .byte   N04
 .byte   W06
 .byte   PEND 
@  #05 @052   ----------------------------------------
 .byte   W96
@  #05 @053   ----------------------------------------
 .byte   W96
@  #05 @054   ----------------------------------------
 .byte   W96
@  #05 @055   ----------------------------------------
 .byte   PATT
  .word Label_01006BC7
@  #05 @056   ----------------------------------------
 .byte   W96
@  #05 @057   ----------------------------------------
 .byte   W96
@  #05 @058   ----------------------------------------
 .byte   W96
@  #05 @059   ----------------------------------------
 .byte   PATT
  .word Label_01006BC7
@  #05 @060   ----------------------------------------
 .byte   W96
@  #05 @061   ----------------------------------------
 .byte   W96
@  #05 @062   ----------------------------------------
 .byte   W96
@  #05 @063   ----------------------------------------
Label_01006BE6:
 .byte   N16 ,Bn1 ,v127
 .byte   W48
 .byte   N16
 .byte   W48
 .byte   PEND 
@  #05 @064   ----------------------------------------
 .byte   Gs1
 .byte   W96
@  #05 @065   ----------------------------------------
Label_01006BEF:
 .byte   N16 ,Gs1 ,v127
 .byte   W48
 .byte   As1
 .byte   W48
 .byte   PEND 
@  #05 @066   ----------------------------------------
 .byte   Bn1
 .byte   W96
@  #05 @067   ----------------------------------------
 .byte   N16
 .byte   W96
@  #05 @068   ----------------------------------------
Label_01006BFA:
 .byte   N16 ,Cs2 ,v127
 .byte   W48
 .byte   Bn1
 .byte   W48
 .byte   PEND 
@  #05 @069   ----------------------------------------
Label_01006C01:
 .byte   N16 ,Cs2 ,v127
 .byte   W48
 .byte   As1
 .byte   W48
 .byte   PEND 
@  #05 @070   ----------------------------------------
 .byte   Bn1
 .byte   W96
@  #05 @071   ----------------------------------------
 .byte   W96
@  #05 @072   ----------------------------------------
 .byte   W96
@  #05 @073   ----------------------------------------
 .byte   W96
@  #05 @074   ----------------------------------------
 .byte   W96
@  #05 @075   ----------------------------------------
 .byte   W96
@  #05 @076   ----------------------------------------
 .byte   W96
@  #05 @077   ----------------------------------------
 .byte   W96
@  #05 @078   ----------------------------------------
 .byte   W96
@  #05 @079   ----------------------------------------
 .byte   W96
@  #05 @080   ----------------------------------------
 .byte   W96
@  #05 @081   ----------------------------------------
 .byte   W96
@  #05 @082   ----------------------------------------
 .byte   W96
@  #05 @083   ----------------------------------------
 .byte   W96
@  #05 @084   ----------------------------------------
 .byte   W96
@  #05 @085   ----------------------------------------
 .byte   W96
@  #05 @086   ----------------------------------------
 .byte   W96
@  #05 @087   ----------------------------------------
 .byte   W96
@  #05 @088   ----------------------------------------
 .byte   W96
@  #05 @089   ----------------------------------------
 .byte   W96
@  #05 @090   ----------------------------------------
 .byte   W96
@  #05 @091   ----------------------------------------
 .byte   W96
@  #05 @092   ----------------------------------------
 .byte   W96
@  #05 @093   ----------------------------------------
 .byte   W96
@  #05 @094   ----------------------------------------
 .byte   W96
@  #05 @095   ----------------------------------------
 .byte   W96
@  #05 @096   ----------------------------------------
 .byte   W96
@  #05 @097   ----------------------------------------
 .byte   W96
@  #05 @098   ----------------------------------------
 .byte   W96
@  #05 @099   ----------------------------------------
 .byte   W96
@  #05 @100   ----------------------------------------
 .byte   W96
@  #05 @101   ----------------------------------------
 .byte   W96
@  #05 @102   ----------------------------------------
 .byte   W96
@  #05 @103   ----------------------------------------
 .byte   W96
@  #05 @104   ----------------------------------------
 .byte   W96
@  #05 @105   ----------------------------------------
 .byte   W96
@  #05 @106   ----------------------------------------
 .byte   W96
@  #05 @107   ----------------------------------------
 .byte   W96
@  #05 @108   ----------------------------------------
 .byte   W96
@  #05 @109   ----------------------------------------
 .byte   W96
@  #05 @110   ----------------------------------------
 .byte   W96
@  #05 @111   ----------------------------------------
 .byte   W96
@  #05 @112   ----------------------------------------
 .byte   W96
@  #05 @113   ----------------------------------------
 .byte   W96
@  #05 @114   ----------------------------------------
 .byte   W96
@  #05 @115   ----------------------------------------
 .byte   W96
@  #05 @116   ----------------------------------------
 .byte   W96
@  #05 @117   ----------------------------------------
 .byte   W96
@  #05 @118   ----------------------------------------
 .byte   W96
@  #05 @119   ----------------------------------------
 .byte   W96
@  #05 @120   ----------------------------------------
 .byte   W96
@  #05 @121   ----------------------------------------
 .byte   PATT
  .word Label_01006BC7
@  #05 @122   ----------------------------------------
 .byte   W96
@  #05 @123   ----------------------------------------
 .byte   W96
@  #05 @124   ----------------------------------------
 .byte   W96
@  #05 @125   ----------------------------------------
 .byte   PATT
  .word Label_01006BC7
@  #05 @126   ----------------------------------------
 .byte   W96
@  #05 @127   ----------------------------------------
 .byte   W96
@  #05 @128   ----------------------------------------
 .byte   W96
@  #05 @129   ----------------------------------------
 .byte   PATT
  .word Label_01006BC7
@  #05 @130   ----------------------------------------
 .byte   W96
@  #05 @131   ----------------------------------------
 .byte   W96
@  #05 @132   ----------------------------------------
 .byte   W96
@  #05 @133   ----------------------------------------
 .byte   PATT
  .word Label_01006BE6
@  #05 @134   ----------------------------------------
 .byte   N16 ,Gs1 ,v127
 .byte   W96
@  #05 @135   ----------------------------------------
 .byte   PATT
  .word Label_01006BEF
@  #05 @136   ----------------------------------------
 .byte   N16 ,Bn1 ,v127
 .byte   W96
@  #05 @137   ----------------------------------------
 .byte   N16
 .byte   W96
@  #05 @138   ----------------------------------------
 .byte   PATT
  .word Label_01006BFA
@  #05 @139   ----------------------------------------
 .byte   PATT
  .word Label_01006C01
@  #05 @140   ----------------------------------------
 .byte   N16 ,Bn1 ,v127
 .byte   W96
@  #05 @141   ----------------------------------------
 .byte   W96
@  #05 @142   ----------------------------------------
 .byte   W96
@  #05 @143   ----------------------------------------
 .byte   W96
@  #05 @144   ----------------------------------------
 .byte   GOTO
  .word Label_01006B98
@  #05 @145   ----------------------------------------
 .byte   W96
@  #05 @146   ----------------------------------------
 .byte   W96
@  #05 @147   ----------------------------------------
 .byte   W96
@  #05 @148   ----------------------------------------
 .byte   W92
 .byte   W03
 .byte   FINE

@**************** Track 6 (Midi-Chn.5) ****************@

Terra_006:
@  #06 @000   ----------------------------------------
 .byte   VOL , 33*Terra_mvl/mxv
 .byte   KEYSH , Terra_key+0
 .byte   VOICE , 28
 .byte   PAN , c_v-25
 .byte   N08 ,Ds3 ,v036
 .byte   W12
 .byte   Gs3
 .byte   W12
 .byte   N16 ,Bn3
 .byte   W24
 .byte   N08 ,Ds3
 .byte   W12
 .byte   Gs3
 .byte   W12
 .byte   Bn3
 .byte   W12
 .byte   Gs3 ,v040
 .byte   W12
@  #06 @001   ----------------------------------------
 .byte   Ds3
 .byte   W12
 .byte   Gs3
 .byte   W12
 .byte   N16 ,Bn3
 .byte   W24
 .byte   N08 ,Ds3
 .byte   W12
 .byte   Gs3 ,v044
 .byte   W12
 .byte   Bn3
 .byte   W12
 .byte   Gs3
 .byte   W12
@  #06 @002   ----------------------------------------
 .byte   Ds3
 .byte   W12
 .byte   Gs3
 .byte   W12
 .byte   N16 ,Bn3 ,v048
 .byte   W24
 .byte   N08 ,Ds3
 .byte   W12
 .byte   Gs3
 .byte   W12
 .byte   Bn3
 .byte   W12
 .byte   Gs3
 .byte   W12
@  #06 @003   ----------------------------------------
Label_01008D85:
 .byte   N08 ,Ds3 ,v052
 .byte   W12
 .byte   Gs3
 .byte   W12
 .byte   N16 ,Bn3
 .byte   W24
 .byte   N08 ,Ds3
 .byte   W12
 .byte   Gs3 ,v056
 .byte   W12
 .byte   Bn3
 .byte   W12
 .byte   Gs3
 .byte   W12
 .byte   PEND 
@  #06 @004   ----------------------------------------
Label_01008D99:
 .byte   W96
@  #06 @005   ----------------------------------------
 .byte   W96
@  #06 @006   ----------------------------------------
 .byte   W96
@  #06 @007   ----------------------------------------
 .byte   W96
@  #06 @008   ----------------------------------------
 .byte   W96
@  #06 @009   ----------------------------------------
 .byte   W96
@  #06 @010   ----------------------------------------
 .byte   W96
@  #06 @011   ----------------------------------------
 .byte   W96
@  #06 @012   ----------------------------------------
 .byte   W96
@  #06 @013   ----------------------------------------
 .byte   W96
@  #06 @014   ----------------------------------------
 .byte   W96
@  #06 @015   ----------------------------------------
 .byte   W96
@  #06 @016   ----------------------------------------
 .byte   W96
@  #06 @017   ----------------------------------------
 .byte   W96
@  #06 @018   ----------------------------------------
 .byte   W96
@  #06 @019   ----------------------------------------
 .byte   W96
@  #06 @020   ----------------------------------------
 .byte   W96
@  #06 @021   ----------------------------------------
 .byte   W96
@  #06 @022   ----------------------------------------
 .byte   W96
@  #06 @023   ----------------------------------------
 .byte   W96
@  #06 @024   ----------------------------------------
 .byte   W96
@  #06 @025   ----------------------------------------
 .byte   W96
@  #06 @026   ----------------------------------------
 .byte   W96
@  #06 @027   ----------------------------------------
 .byte   W96
@  #06 @028   ----------------------------------------
 .byte   W96
@  #06 @029   ----------------------------------------
 .byte   W96
@  #06 @030   ----------------------------------------
 .byte   W96
@  #06 @031   ----------------------------------------
 .byte   W96
@  #06 @032   ----------------------------------------
 .byte   W96
@  #06 @033   ----------------------------------------
 .byte   W96
@  #06 @034   ----------------------------------------
 .byte   W96
@  #06 @035   ----------------------------------------
 .byte   W96
@  #06 @036   ----------------------------------------
Label_01008DB9:
 .byte   N08 ,Fs3 ,v052
 .byte   W12
 .byte   Bn3
 .byte   W12
 .byte   N16 ,Ds4
 .byte   W24
 .byte   N08 ,Fs3
 .byte   W12
 .byte   Bn3
 .byte   W12
 .byte   Ds4
 .byte   W12
 .byte   Bn3
 .byte   W12
 .byte   PEND 
@  #06 @037   ----------------------------------------
 .byte   PATT
  .word Label_01008DB9
@  #06 @038   ----------------------------------------
Label_01008DD1:
 .byte   N08 ,Fs3 ,v052
 .byte   W12
 .byte   As3
 .byte   W12
 .byte   N16 ,Cs4
 .byte   W24
 .byte   N08 ,Fs3
 .byte   W12
 .byte   As3
 .byte   W12
 .byte   Cs4
 .byte   W12
 .byte   As3
 .byte   W12
 .byte   PEND 
@  #06 @039   ----------------------------------------
 .byte   PATT
  .word Label_01008DD1
@  #06 @040   ----------------------------------------
 .byte   PATT
  .word Label_01008DB9
@  #06 @041   ----------------------------------------
 .byte   PATT
  .word Label_01008DB9
@  #06 @042   ----------------------------------------
 .byte   PATT
  .word Label_01008DD1
@  #06 @043   ----------------------------------------
 .byte   PATT
  .word Label_01008DD1
@  #06 @044   ----------------------------------------
Label_01008DFD:
 .byte   N08 ,Ds3 ,v052
 .byte   W12
 .byte   Gs3
 .byte   W12
 .byte   N16 ,Bn3
 .byte   W24
 .byte   N08 ,Ds3
 .byte   W12
 .byte   Gs3
 .byte   W12
 .byte   Bn3
 .byte   W12
 .byte   Gs3
 .byte   W12
 .byte   PEND 
@  #06 @045   ----------------------------------------
 .byte   PATT
  .word Label_01008DFD
@  #06 @046   ----------------------------------------
 .byte   PATT
  .word Label_01008DD1
@  #06 @047   ----------------------------------------
 .byte   PATT
  .word Label_01008DD1
@  #06 @048   ----------------------------------------
 .byte   PATT
  .word Label_01008DFD
@  #06 @049   ----------------------------------------
 .byte   PATT
  .word Label_01008DFD
@  #06 @050   ----------------------------------------
 .byte   PATT
  .word Label_01008DFD
@  #06 @051   ----------------------------------------
 .byte   PATT
  .word Label_01008DFD
@  #06 @052   ----------------------------------------
Label_01008E33:
 .byte   N04 ,Bn3 ,v056
 .byte   W06
 .byte   N04
 .byte   W06
 .byte   N04
 .byte   W06
 .byte   N04
 .byte   W06
 .byte   N04
 .byte   W06
 .byte   N04
 .byte   W06
 .byte   N04
 .byte   W06
 .byte   N04
 .byte   W06
 .byte   N04
 .byte   W06
 .byte   N04
 .byte   W06
 .byte   Bn3 ,v052
 .byte   W06
 .byte   N04
 .byte   W06
 .byte   N04
 .byte   W06
 .byte   N04
 .byte   W06
 .byte   N04
 .byte   W06
 .byte   N04
 .byte   W06
 .byte   PEND 
@  #06 @053   ----------------------------------------
Label_01008E57:
 .byte   N04 ,Bn3 ,v052
 .byte   W06
 .byte   N04
 .byte   W06
 .byte   N04
 .byte   W06
 .byte   N04
 .byte   W06
 .byte   N04
 .byte   W06
 .byte   N04
 .byte   W06
 .byte   Bn3 ,v048
 .byte   W06
 .byte   N04
 .byte   W06
 .byte   N04
 .byte   W06
 .byte   N04
 .byte   W06
 .byte   N04
 .byte   W06
 .byte   N04
 .byte   W06
 .byte   N04
 .byte   W06
 .byte   N04
 .byte   W06
 .byte   N04
 .byte   W06
 .byte   N04
 .byte   W06
 .byte   PEND 
@  #06 @054   ----------------------------------------
Label_01008E7B:
 .byte   N04 ,Gs3 ,v056
 .byte   W06
 .byte   N04
 .byte   W06
 .byte   N04
 .byte   W06
 .byte   N04
 .byte   W06
 .byte   N04
 .byte   W06
 .byte   N04
 .byte   W06
 .byte   N04
 .byte   W06
 .byte   N04
 .byte   W06
 .byte   N04
 .byte   W06
 .byte   N04
 .byte   W06
 .byte   Gs3 ,v052
 .byte   W06
 .byte   N04
 .byte   W06
 .byte   N04
 .byte   W06
 .byte   N04
 .byte   W06
 .byte   N04
 .byte   W06
 .byte   N04
 .byte   W06
 .byte   PEND 
@  #06 @055   ----------------------------------------
Label_01008E9F:
 .byte   N04 ,Gs3 ,v052
 .byte   W06
 .byte   N04
 .byte   W06
 .byte   N04
 .byte   W06
 .byte   N04
 .byte   W06
 .byte   N04
 .byte   W06
 .byte   N04
 .byte   W06
 .byte   Gs3 ,v048
 .byte   W06
 .byte   N04
 .byte   W06
 .byte   N04
 .byte   W06
 .byte   N04
 .byte   W06
 .byte   N04
 .byte   W06
 .byte   N04
 .byte   W06
 .byte   N04
 .byte   W06
 .byte   N04
 .byte   W06
 .byte   N04
 .byte   W06
 .byte   N04
 .byte   W06
 .byte   PEND 
@  #06 @056   ----------------------------------------
Label_01008EC3:
 .byte   N04 ,Cs4 ,v056
 .byte   W06
 .byte   N04
 .byte   W06
 .byte   N04
 .byte   W06
 .byte   N04
 .byte   W06
 .byte   N04
 .byte   W06
 .byte   N04
 .byte   W06
 .byte   N04
 .byte   W06
 .byte   N04
 .byte   W06
 .byte   N04
 .byte   W06
 .byte   N04
 .byte   W06
 .byte   Cs4 ,v052
 .byte   W06
 .byte   N04
 .byte   W06
 .byte   N04
 .byte   W06
 .byte   N04
 .byte   W06
 .byte   N04
 .byte   W06
 .byte   N04
 .byte   W06
 .byte   PEND 
@  #06 @057   ----------------------------------------
Label_01008EE7:
 .byte   N04 ,Cs4 ,v052
 .byte   W06
 .byte   N04
 .byte   W06
 .byte   N04
 .byte   W06
 .byte   N04
 .byte   W06
 .byte   N04
 .byte   W06
 .byte   N04
 .byte   W06
 .byte   Cs4 ,v048
 .byte   W06
 .byte   N04
 .byte   W06
 .byte   N04
 .byte   W06
 .byte   N04
 .byte   W06
 .byte   N04
 .byte   W06
 .byte   N04
 .byte   W06
 .byte   N04
 .byte   W06
 .byte   N04
 .byte   W06
 .byte   N04
 .byte   W06
 .byte   N04
 .byte   W06
 .byte   PEND 
@  #06 @058   ----------------------------------------
Label_01008F0B:
 .byte   N04 ,As3 ,v056
 .byte   W06
 .byte   N04
 .byte   W06
 .byte   N04
 .byte   W06
 .byte   N04
 .byte   W06
 .byte   N04
 .byte   W06
 .byte   N04
 .byte   W06
 .byte   N04
 .byte   W06
 .byte   N04
 .byte   W06
 .byte   N04
 .byte   W06
 .byte   N04
 .byte   W06
 .byte   As3 ,v052
 .byte   W06
 .byte   N04
 .byte   W06
 .byte   N04
 .byte   W06
 .byte   N04
 .byte   W06
 .byte   N04
 .byte   W06
 .byte   N04
 .byte   W06
 .byte   PEND 
@  #06 @059   ----------------------------------------
Label_01008F2F:
 .byte   N04 ,As3 ,v052
 .byte   W06
 .byte   N04
 .byte   W06
 .byte   N04
 .byte   W06
 .byte   N04
 .byte   W06
 .byte   N04
 .byte   W06
 .byte   N04
 .byte   W06
 .byte   As3 ,v048
 .byte   W06
 .byte   N04
 .byte   W06
 .byte   N04
 .byte   W06
 .byte   N04
 .byte   W06
 .byte   N04
 .byte   W06
 .byte   N04
 .byte   W06
 .byte   N04
 .byte   W06
 .byte   N04
 .byte   W06
 .byte   N04
 .byte   W06
 .byte   N04
 .byte   W06
 .byte   PEND 
@  #06 @060   ----------------------------------------
Label_01008F53:
 .byte   N04 ,Ds4 ,v056
 .byte   W06
 .byte   N04
 .byte   W06
 .byte   N04
 .byte   W06
 .byte   N04
 .byte   W06
 .byte   N04
 .byte   W06
 .byte   N04
 .byte   W06
 .byte   N04
 .byte   W06
 .byte   N04
 .byte   W06
 .byte   N04
 .byte   W06
 .byte   N04
 .byte   W06
 .byte   Ds4 ,v052
 .byte   W06
 .byte   N04
 .byte   W06
 .byte   N04
 .byte   W06
 .byte   N04
 .byte   W06
 .byte   N04
 .byte   W06
 .byte   N04
 .byte   W06
 .byte   PEND 
@  #06 @061   ----------------------------------------
Label_01008F77:
 .byte   N04 ,Ds4 ,v052
 .byte   W06
 .byte   N04
 .byte   W06
 .byte   N04
 .byte   W06
 .byte   N04
 .byte   W06
 .byte   N04
 .byte   W06
 .byte   N04
 .byte   W06
 .byte   Ds4 ,v048
 .byte   W06
 .byte   N04
 .byte   W06
 .byte   N04
 .byte   W06
 .byte   N04
 .byte   W06
 .byte   N04
 .byte   W06
 .byte   N04
 .byte   W06
 .byte   N04
 .byte   W06
 .byte   N04
 .byte   W06
 .byte   N04
 .byte   W06
 .byte   N04
 .byte   W06
 .byte   PEND 
@  #06 @062   ----------------------------------------
 .byte   PATT
  .word Label_01008E33
@  #06 @063   ----------------------------------------
 .byte   PATT
  .word Label_01008E57
@  #06 @064   ----------------------------------------
 .byte   PATT
  .word Label_01008E7B
@  #06 @065   ----------------------------------------
 .byte   PATT
  .word Label_01008E9F
@  #06 @066   ----------------------------------------
 .byte   PATT
  .word Label_01008E33
@  #06 @067   ----------------------------------------
 .byte   PATT
  .word Label_01008E57
@  #06 @068   ----------------------------------------
 .byte   PATT
  .word Label_01008F0B
@  #06 @069   ----------------------------------------
 .byte   PATT
  .word Label_01008F2F
@  #06 @070   ----------------------------------------
Label_01008FC3:
 .byte   N08 ,Ds3 ,v044
 .byte   W12
 .byte   Gs3
 .byte   W12
 .byte   N16 ,Bn3
 .byte   W24
 .byte   N08 ,Ds3
 .byte   W12
 .byte   Gs3 ,v048
 .byte   W12
 .byte   Bn3
 .byte   W12
 .byte   Gs3
 .byte   W12
 .byte   PEND 
@  #06 @071   ----------------------------------------
Label_01008FD7:
 .byte   N08 ,Ds3 ,v048
 .byte   W12
 .byte   Gs3
 .byte   W12
 .byte   N16 ,Bn3
 .byte   W24
 .byte   N08 ,Ds3
 .byte   W12
 .byte   Gs3
 .byte   W12
 .byte   Bn3
 .byte   W12
 .byte   Gs3
 .byte   W12
 .byte   PEND 
@  #06 @072   ----------------------------------------
 .byte   PATT
  .word Label_01008DFD
@  #06 @073   ----------------------------------------
 .byte   PATT
  .word Label_01008D85
@  #06 @074   ----------------------------------------
 .byte   W96
@  #06 @075   ----------------------------------------
 .byte   W96
@  #06 @076   ----------------------------------------
 .byte   W96
@  #06 @077   ----------------------------------------
 .byte   W96
@  #06 @078   ----------------------------------------
 .byte   W96
@  #06 @079   ----------------------------------------
 .byte   W96
@  #06 @080   ----------------------------------------
 .byte   W96
@  #06 @081   ----------------------------------------
 .byte   W96
@  #06 @082   ----------------------------------------
 .byte   W96
@  #06 @083   ----------------------------------------
 .byte   W96
@  #06 @084   ----------------------------------------
 .byte   W96
@  #06 @085   ----------------------------------------
 .byte   W96
@  #06 @086   ----------------------------------------
 .byte   W96
@  #06 @087   ----------------------------------------
 .byte   W96
@  #06 @088   ----------------------------------------
 .byte   W96
@  #06 @089   ----------------------------------------
 .byte   W96
@  #06 @090   ----------------------------------------
 .byte   W96
@  #06 @091   ----------------------------------------
 .byte   W96
@  #06 @092   ----------------------------------------
 .byte   W96
@  #06 @093   ----------------------------------------
 .byte   W96
@  #06 @094   ----------------------------------------
 .byte   W96
@  #06 @095   ----------------------------------------
 .byte   W96
@  #06 @096   ----------------------------------------
 .byte   W96
@  #06 @097   ----------------------------------------
 .byte   W96
@  #06 @098   ----------------------------------------
 .byte   W96
@  #06 @099   ----------------------------------------
 .byte   W96
@  #06 @100   ----------------------------------------
 .byte   W96
@  #06 @101   ----------------------------------------
 .byte   W96
@  #06 @102   ----------------------------------------
 .byte   W96
@  #06 @103   ----------------------------------------
 .byte   W96
@  #06 @104   ----------------------------------------
 .byte   W96
@  #06 @105   ----------------------------------------
 .byte   W96
@  #06 @106   ----------------------------------------
 .byte   PATT
  .word Label_01008DB9
@  #06 @107   ----------------------------------------
 .byte   PATT
  .word Label_01008DB9
@  #06 @108   ----------------------------------------
 .byte   PATT
  .word Label_01008DD1
@  #06 @109   ----------------------------------------
 .byte   PATT
  .word Label_01008DD1
@  #06 @110   ----------------------------------------
 .byte   PATT
  .word Label_01008DB9
@  #06 @111   ----------------------------------------
 .byte   PATT
  .word Label_01008DB9
@  #06 @112   ----------------------------------------
 .byte   PATT
  .word Label_01008DD1
@  #06 @113   ----------------------------------------
 .byte   PATT
  .word Label_01008DD1
@  #06 @114   ----------------------------------------
 .byte   PATT
  .word Label_01008DFD
@  #06 @115   ----------------------------------------
 .byte   PATT
  .word Label_01008DFD
@  #06 @116   ----------------------------------------
 .byte   PATT
  .word Label_01008DD1
@  #06 @117   ----------------------------------------
 .byte   PATT
  .word Label_01008DD1
@  #06 @118   ----------------------------------------
 .byte   PATT
  .word Label_01008DFD
@  #06 @119   ----------------------------------------
 .byte   PATT
  .word Label_01008DFD
@  #06 @120   ----------------------------------------
 .byte   PATT
  .word Label_01008DFD
@  #06 @121   ----------------------------------------
 .byte   PATT
  .word Label_01008DFD
@  #06 @122   ----------------------------------------
 .byte   PATT
  .word Label_01008E33
@  #06 @123   ----------------------------------------
 .byte   PATT
  .word Label_01008E57
@  #06 @124   ----------------------------------------
 .byte   PATT
  .word Label_01008E7B
@  #06 @125   ----------------------------------------
 .byte   PATT
  .word Label_01008E9F
@  #06 @126   ----------------------------------------
 .byte   PATT
  .word Label_01008EC3
@  #06 @127   ----------------------------------------
 .byte   PATT
  .word Label_01008EE7
@  #06 @128   ----------------------------------------
 .byte   PATT
  .word Label_01008F0B
@  #06 @129   ----------------------------------------
 .byte   PATT
  .word Label_01008F2F
@  #06 @130   ----------------------------------------
 .byte   PATT
  .word Label_01008F53
@  #06 @131   ----------------------------------------
 .byte   PATT
  .word Label_01008F77
@  #06 @132   ----------------------------------------
 .byte   PATT
  .word Label_01008E33
@  #06 @133   ----------------------------------------
 .byte   PATT
  .word Label_01008E57
@  #06 @134   ----------------------------------------
 .byte   PATT
  .word Label_01008E7B
@  #06 @135   ----------------------------------------
 .byte   PATT
  .word Label_01008E9F
@  #06 @136   ----------------------------------------
 .byte   PATT
  .word Label_01008E33
@  #06 @137   ----------------------------------------
 .byte   PATT
  .word Label_01008E57
@  #06 @138   ----------------------------------------
 .byte   PATT
  .word Label_01008F0B
@  #06 @139   ----------------------------------------
 .byte   PATT
  .word Label_01008F2F
@  #06 @140   ----------------------------------------
 .byte   PATT
  .word Label_01008FC3
@  #06 @141   ----------------------------------------
 .byte   PATT
  .word Label_01008FD7
@  #06 @142   ----------------------------------------
 .byte   PATT
  .word Label_01008DFD
@  #06 @143   ----------------------------------------
 .byte   PATT
  .word Label_01008D85
@  #06 @144   ----------------------------------------
 .byte   GOTO
  .word Label_01008D99
@  #06 @145   ----------------------------------------
 .byte   W96
@  #06 @146   ----------------------------------------
 .byte   W96
@  #06 @147   ----------------------------------------
 .byte   W96
@  #06 @148   ----------------------------------------
 .byte   W92
 .byte   W03
 .byte   FINE

@**************** Track 7 (Midi-Chn.6) ****************@

Terra_007:
@  #07 @000   ----------------------------------------
 .byte   VOL , 33*Terra_mvl/mxv
 .byte   KEYSH , Terra_key+0
 .byte   VOICE , 121
 .byte   N16 ,En1 ,v052
 .byte   W24
 .byte   N16
 .byte   W24
 .byte   En1 ,v056
 .byte   W24
 .byte   N04
 .byte   W06
 .byte   N04
 .byte   W06
 .byte   N08
 .byte   W12
@  #07 @001   ----------------------------------------
 .byte   N16
 .byte   W24
 .byte   En1 ,v060
 .byte   W24
 .byte   N16
 .byte   W24
 .byte   N04
 .byte   W06
 .byte   En1 ,v064
 .byte   W06
 .byte   N08
 .byte   W12
@  #07 @002   ----------------------------------------
 .byte   N16
 .byte   W24
 .byte   N16
 .byte   W24
 .byte   En1 ,v068
 .byte   W24
 .byte   N04
 .byte   W06
 .byte   N04
 .byte   W06
 .byte   N08
 .byte   W12
@  #07 @003   ----------------------------------------
Label_01009120:
 .byte   N16 ,En1 ,v068
 .byte   W24
 .byte   En1 ,v072
 .byte   W24
 .byte   N16
 .byte   W24
 .byte   N04 ,En1 ,v076
 .byte   W06
 .byte   N04
 .byte   W06
 .byte   N08
 .byte   W12
 .byte   PEND 
@  #07 @004   ----------------------------------------
Label_01009132:
 .byte   N16 ,En1 ,v076
 .byte   W24
 .byte   N16
 .byte   W24
 .byte   N16
 .byte   W24
 .byte   N04
 .byte   W06
 .byte   N04
 .byte   W06
 .byte   N08
 .byte   W12
 .byte   PEND 
@  #07 @005   ----------------------------------------
Label_01009141:
 .byte   N16 ,En1 ,v076
 .byte   W24
 .byte   N04
 .byte   W06
 .byte   N04
 .byte   W06
 .byte   N08
 .byte   W12
 .byte   N16
 .byte   W24
 .byte   N08
 .byte   W12
 .byte   N08
 .byte   W12
 .byte   PEND 
@  #07 @006   ----------------------------------------
 .byte   PATT
  .word Label_01009132
@  #07 @007   ----------------------------------------
 .byte   PATT
  .word Label_01009141
@  #07 @008   ----------------------------------------
 .byte   PATT
  .word Label_01009132
@  #07 @009   ----------------------------------------
 .byte   PATT
  .word Label_01009141
@  #07 @010   ----------------------------------------
 .byte   PATT
  .word Label_01009132
@  #07 @011   ----------------------------------------
 .byte   PATT
  .word Label_01009141
@  #07 @012   ----------------------------------------
 .byte   PATT
  .word Label_01009132
@  #07 @013   ----------------------------------------
 .byte   PATT
  .word Label_01009141
@  #07 @014   ----------------------------------------
 .byte   PATT
  .word Label_01009132
@  #07 @015   ----------------------------------------
 .byte   PATT
  .word Label_01009141
@  #07 @016   ----------------------------------------
 .byte   PATT
  .word Label_01009132
@  #07 @017   ----------------------------------------
 .byte   PATT
  .word Label_01009141
@  #07 @018   ----------------------------------------
 .byte   PATT
  .word Label_01009132
@  #07 @019   ----------------------------------------
 .byte   PATT
  .word Label_01009141
@  #07 @020   ----------------------------------------
 .byte   PATT
  .word Label_01009132
@  #07 @021   ----------------------------------------
 .byte   PATT
  .word Label_01009141
@  #07 @022   ----------------------------------------
 .byte   PATT
  .word Label_01009132
@  #07 @023   ----------------------------------------
 .byte   PATT
  .word Label_01009141
@  #07 @024   ----------------------------------------
 .byte   PATT
  .word Label_01009132
@  #07 @025   ----------------------------------------
 .byte   PATT
  .word Label_01009141
@  #07 @026   ----------------------------------------
 .byte   PATT
  .word Label_01009132
@  #07 @027   ----------------------------------------
 .byte   PATT
  .word Label_01009141
@  #07 @028   ----------------------------------------
 .byte   PATT
  .word Label_01009132
@  #07 @029   ----------------------------------------
 .byte   PATT
  .word Label_01009141
@  #07 @030   ----------------------------------------
 .byte   PATT
  .word Label_01009132
@  #07 @031   ----------------------------------------
 .byte   PATT
  .word Label_01009141
@  #07 @032   ----------------------------------------
 .byte   PATT
  .word Label_01009132
@  #07 @033   ----------------------------------------
 .byte   PATT
  .word Label_01009141
@  #07 @034   ----------------------------------------
 .byte   PATT
  .word Label_01009132
@  #07 @035   ----------------------------------------
 .byte   PATT
  .word Label_01009141
@  #07 @036   ----------------------------------------
 .byte   PATT
  .word Label_01009132
@  #07 @037   ----------------------------------------
 .byte   PATT
  .word Label_01009141
@  #07 @038   ----------------------------------------
 .byte   PATT
  .word Label_01009132
@  #07 @039   ----------------------------------------
 .byte   PATT
  .word Label_01009141
@  #07 @040   ----------------------------------------
 .byte   PATT
  .word Label_01009132
@  #07 @041   ----------------------------------------
 .byte   PATT
  .word Label_01009141
@  #07 @042   ----------------------------------------
 .byte   PATT
  .word Label_01009132
@  #07 @043   ----------------------------------------
 .byte   PATT
  .word Label_01009141
@  #07 @044   ----------------------------------------
 .byte   PATT
  .word Label_01009132
@  #07 @045   ----------------------------------------
 .byte   PATT
  .word Label_01009141
@  #07 @046   ----------------------------------------
 .byte   PATT
  .word Label_01009132
@  #07 @047   ----------------------------------------
 .byte   PATT
  .word Label_01009141
@  #07 @048   ----------------------------------------
 .byte   PATT
  .word Label_01009132
@  #07 @049   ----------------------------------------
 .byte   PATT
  .word Label_01009141
@  #07 @050   ----------------------------------------
 .byte   PATT
  .word Label_01009132
@  #07 @051   ----------------------------------------
 .byte   PATT
  .word Label_01009141
@  #07 @052   ----------------------------------------
Label_01009238:
 .byte   N08 ,En1 ,v076
 .byte   N23 ,Cs2 ,v127
 .byte   W12
 .byte   N08 ,En1 ,v076
 .byte   W12
 .byte   N08
 .byte   W12
 .byte   N08
 .byte   W12
 .byte   N08
 .byte   W12
 .byte   N08
 .byte   W12
 .byte   En1 ,v064
 .byte   W12
 .byte   N08
 .byte   W12
 .byte   PEND 
@  #07 @053   ----------------------------------------
Label_01009251:
 .byte   N08 ,En1 ,v076
 .byte   W12
 .byte   N08
 .byte   W12
 .byte   N08
 .byte   W12
 .byte   N08
 .byte   W12
 .byte   N08
 .byte   W12
 .byte   N08
 .byte   W12
 .byte   En1 ,v064
 .byte   W12
 .byte   N08
 .byte   W12
 .byte   PEND 
@  #07 @054   ----------------------------------------
 .byte   PATT
  .word Label_01009251
@  #07 @055   ----------------------------------------
 .byte   PATT
  .word Label_01009251
@  #07 @056   ----------------------------------------
 .byte   PATT
  .word Label_01009238
@  #07 @057   ----------------------------------------
 .byte   PATT
  .word Label_01009251
@  #07 @058   ----------------------------------------
Label_01009279:
 .byte   N08 ,En1 ,v076
 .byte   W12
 .byte   N08
 .byte   W12
 .byte   N08
 .byte   W12
 .byte   N08
 .byte   W12
 .byte   N08
 .byte   W12
 .byte   N08
 .byte   W36
 .byte   PEND 
@  #07 @059   ----------------------------------------
 .byte   PATT
  .word Label_01009251
@  #07 @060   ----------------------------------------
 .byte   PATT
  .word Label_01009238
@  #07 @061   ----------------------------------------
 .byte   PATT
  .word Label_01009251
@  #07 @062   ----------------------------------------
 .byte   PATT
  .word Label_01009251
@  #07 @063   ----------------------------------------
 .byte   PATT
  .word Label_01009251
@  #07 @064   ----------------------------------------
 .byte   PATT
  .word Label_01009238
@  #07 @065   ----------------------------------------
 .byte   PATT
  .word Label_01009251
@  #07 @066   ----------------------------------------
 .byte   PATT
  .word Label_01009238
@  #07 @067   ----------------------------------------
 .byte   PATT
  .word Label_01009251
@  #07 @068   ----------------------------------------
 .byte   PATT
  .word Label_01009238
@  #07 @069   ----------------------------------------
 .byte   PATT
  .word Label_01009251
@  #07 @070   ----------------------------------------
Label_010092BF:
 .byte   N16 ,En1 ,v076
 .byte   N16 ,Cs2
 .byte   W24
 .byte   En1
 .byte   W24
 .byte   N16
 .byte   W24
 .byte   N04
 .byte   W06
 .byte   N04
 .byte   W06
 .byte   N08
 .byte   W12
 .byte   PEND 
@  #07 @071   ----------------------------------------
 .byte   PATT
  .word Label_01009132
@  #07 @072   ----------------------------------------
 .byte   PATT
  .word Label_01009132
@  #07 @073   ----------------------------------------
 .byte   PATT
  .word Label_01009120
@  #07 @074   ----------------------------------------
 .byte   PATT
  .word Label_01009132
@  #07 @075   ----------------------------------------
 .byte   PATT
  .word Label_01009141
@  #07 @076   ----------------------------------------
 .byte   PATT
  .word Label_01009132
@  #07 @077   ----------------------------------------
 .byte   PATT
  .word Label_01009141
@  #07 @078   ----------------------------------------
 .byte   PATT
  .word Label_01009132
@  #07 @079   ----------------------------------------
 .byte   PATT
  .word Label_01009141
@  #07 @080   ----------------------------------------
 .byte   PATT
  .word Label_01009132
@  #07 @081   ----------------------------------------
 .byte   PATT
  .word Label_01009141
@  #07 @082   ----------------------------------------
 .byte   PATT
  .word Label_01009132
@  #07 @083   ----------------------------------------
 .byte   PATT
  .word Label_01009141
@  #07 @084   ----------------------------------------
 .byte   PATT
  .word Label_01009132
@  #07 @085   ----------------------------------------
 .byte   PATT
  .word Label_01009141
@  #07 @086   ----------------------------------------
 .byte   PATT
  .word Label_01009132
@  #07 @087   ----------------------------------------
 .byte   PATT
  .word Label_01009141
@  #07 @088   ----------------------------------------
 .byte   PATT
  .word Label_01009132
@  #07 @089   ----------------------------------------
 .byte   PATT
  .word Label_01009141
@  #07 @090   ----------------------------------------
 .byte   PATT
  .word Label_01009132
@  #07 @091   ----------------------------------------
 .byte   PATT
  .word Label_01009141
@  #07 @092   ----------------------------------------
 .byte   PATT
  .word Label_01009132
@  #07 @093   ----------------------------------------
 .byte   PATT
  .word Label_01009141
@  #07 @094   ----------------------------------------
 .byte   PATT
  .word Label_01009132
@  #07 @095   ----------------------------------------
 .byte   PATT
  .word Label_01009141
@  #07 @096   ----------------------------------------
 .byte   PATT
  .word Label_01009132
@  #07 @097   ----------------------------------------
 .byte   PATT
  .word Label_01009141
@  #07 @098   ----------------------------------------
 .byte   PATT
  .word Label_01009132
@  #07 @099   ----------------------------------------
 .byte   PATT
  .word Label_01009141
@  #07 @100   ----------------------------------------
 .byte   PATT
  .word Label_01009132
@  #07 @101   ----------------------------------------
 .byte   PATT
  .word Label_01009141
@  #07 @102   ----------------------------------------
 .byte   PATT
  .word Label_01009132
@  #07 @103   ----------------------------------------
 .byte   PATT
  .word Label_01009141
@  #07 @104   ----------------------------------------
 .byte   PATT
  .word Label_01009132
@  #07 @105   ----------------------------------------
 .byte   PATT
  .word Label_01009141
@  #07 @106   ----------------------------------------
 .byte   PATT
  .word Label_01009132
@  #07 @107   ----------------------------------------
 .byte   PATT
  .word Label_01009141
@  #07 @108   ----------------------------------------
 .byte   PATT
  .word Label_01009132
@  #07 @109   ----------------------------------------
 .byte   PATT
  .word Label_01009141
@  #07 @110   ----------------------------------------
 .byte   PATT
  .word Label_01009132
@  #07 @111   ----------------------------------------
 .byte   PATT
  .word Label_01009141
@  #07 @112   ----------------------------------------
 .byte   PATT
  .word Label_01009132
@  #07 @113   ----------------------------------------
 .byte   PATT
  .word Label_01009141
@  #07 @114   ----------------------------------------
 .byte   PATT
  .word Label_01009132
@  #07 @115   ----------------------------------------
 .byte   PATT
  .word Label_01009141
@  #07 @116   ----------------------------------------
 .byte   PATT
  .word Label_01009132
@  #07 @117   ----------------------------------------
 .byte   PATT
  .word Label_01009141
@  #07 @118   ----------------------------------------
 .byte   PATT
  .word Label_01009132
@  #07 @119   ----------------------------------------
 .byte   PATT
  .word Label_01009141
@  #07 @120   ----------------------------------------
 .byte   PATT
  .word Label_01009132
@  #07 @121   ----------------------------------------
 .byte   PATT
  .word Label_01009141
@  #07 @122   ----------------------------------------
 .byte   PATT
  .word Label_01009238
@  #07 @123   ----------------------------------------
 .byte   PATT
  .word Label_01009251
@  #07 @124   ----------------------------------------
 .byte   PATT
  .word Label_01009251
@  #07 @125   ----------------------------------------
 .byte   PATT
  .word Label_01009251
@  #07 @126   ----------------------------------------
 .byte   PATT
  .word Label_01009238
@  #07 @127   ----------------------------------------
 .byte   PATT
  .word Label_01009251
@  #07 @128   ----------------------------------------
 .byte   PATT
  .word Label_01009279
@  #07 @129   ----------------------------------------
 .byte   PATT
  .word Label_01009251
@  #07 @130   ----------------------------------------
 .byte   PATT
  .word Label_01009238
@  #07 @131   ----------------------------------------
 .byte   PATT
  .word Label_01009251
@  #07 @132   ----------------------------------------
 .byte   PATT
  .word Label_01009251
@  #07 @133   ----------------------------------------
 .byte   PATT
  .word Label_01009251
@  #07 @134   ----------------------------------------
 .byte   PATT
  .word Label_01009238
@  #07 @135   ----------------------------------------
 .byte   PATT
  .word Label_01009251
@  #07 @136   ----------------------------------------
 .byte   PATT
  .word Label_01009238
@  #07 @137   ----------------------------------------
 .byte   PATT
  .word Label_01009251
@  #07 @138   ----------------------------------------
 .byte   PATT
  .word Label_01009238
@  #07 @139   ----------------------------------------
 .byte   PATT
  .word Label_01009251
@  #07 @140   ----------------------------------------
 .byte   PATT
  .word Label_010092BF
@  #07 @141   ----------------------------------------
 .byte   PATT
  .word Label_01009132
@  #07 @142   ----------------------------------------
 .byte   PATT
  .word Label_01009132
@  #07 @143   ----------------------------------------
 .byte   PATT
  .word Label_01009120
@  #07 @144   ----------------------------------------
 .byte   GOTO
  .word Label_01009132
@  #07 @145   ----------------------------------------
 .byte   N16 ,En1 ,v100
 .byte   W24
 .byte   En1 ,v096
 .byte   W24
 .byte   En1 ,v092
 .byte   W24
 .byte   N04 ,En1 ,v088
 .byte   W06
 .byte   En1 ,v084
 .byte   W06
 .byte   N08
 .byte   W12
@  #07 @146   ----------------------------------------
 .byte   N16 ,En1 ,v080
 .byte   W24
 .byte   N04 ,En1 ,v076
 .byte   W06
 .byte   N04
 .byte   W06
 .byte   N08
 .byte   W12
 .byte   N16 ,En1 ,v072
 .byte   W24
 .byte   N08 ,En1 ,v068
 .byte   W12
 .byte   En1 ,v064
 .byte   W12
@  #07 @147   ----------------------------------------
 .byte   N16 ,En1 ,v060
 .byte   W24
 .byte   En1 ,v056
 .byte   W24
 .byte   En1 ,v052
 .byte   W24
 .byte   N04 ,En1 ,v048
 .byte   W06
 .byte   En1 ,v044
 .byte   W06
 .byte   N08
 .byte   W12
@  #07 @148   ----------------------------------------
 .byte   N16 ,En1 ,v040
 .byte   W24
 .byte   N04 ,En1 ,v036
 .byte   W06
 .byte   N04
 .byte   W06
 .byte   N08
 .byte   W12
 .byte   N16 ,En1 ,v032
 .byte   W24
 .byte   N08 ,En1 ,v028
 .byte   W12
 .byte   En1 ,v024
 .byte   W11
 .byte   FINE

@******************************************************@
	.align	2

Terra:
	.byte	7	@ NumTrks
	.byte	0	@ NumBlks
	.byte	Terra_pri	@ Priority
	.byte	Terra_rev	@ Reverb.
    
	.word	Terra_grp
    
	.word	Terra_001
	.word	Terra_002
	.word	Terra_003
	.word	Terra_004
	.word	Terra_005
	.word	Terra_006
	.word	Terra_007

	.end
