	.include "MPlayDef.s"

	.equ	GameOver_grp, voicegroup000
	.equ	GameOver_pri, 10
	.equ	GameOver_rev, 128
	.equ	GameOver_mvl, 127
	.equ	GameOver_key, 0
	.equ	GameOver_tbs, 1
	.equ	GameOver_exg, 0
	.equ	GameOver_cmp, 1

	.section .rodata
	.global	GameOver
	.align	2


@**************** Track 1 (Midi-Chn.0) ****************@

GameOver_001:
@  #01 @000   ----------------------------------------
 .byte   KEYSH , GameOver_key+0
 .byte   TEMPO , 234*GameOver_tbs/2
 .byte   VOICE , 19
 .byte   VOL , 100*GameOver_mvl/mxv
 .byte   BENDR, 12
 .byte   W96
@  #01 @001   ----------------------------------------
 .byte   W48
 .byte   W96
@  #01 @002   ----------------------------------------
 .byte   W48
 .byte   W96
@  #01 @003   ----------------------------------------
 .byte   W48
 .byte   W96
@  #01 @004   ----------------------------------------
 .byte   W48
 .byte   W96
@  #01 @005   ----------------------------------------
 .byte   W48
 .byte   W96
@  #01 @006   ----------------------------------------
 .byte   W48
 .byte   W96
@  #01 @007   ----------------------------------------
 .byte   W48
 .byte   W96
@  #01 @008   ----------------------------------------
 .byte   W48
 .byte   W96
@  #01 @009   ----------------------------------------
 .byte   W48
 .byte   W96
@  #01 @010   ----------------------------------------
 .byte   W48
 .byte   W96
@  #01 @011   ----------------------------------------
 .byte   W48
 .byte   W96
@  #01 @012   ----------------------------------------
 .byte   W48
 .byte   W96
@  #01 @013   ----------------------------------------
 .byte   W48
 .byte   W96
@  #01 @014   ----------------------------------------
 .byte   W48
 .byte   W96
@  #01 @015   ----------------------------------------
 .byte   W48
 .byte   W96
@  #01 @016   ----------------------------------------
 .byte   W48
 .byte   BEND , c_v+0
 .byte   TIE ,Cn1 ,v120
 .byte   W96
@  #01 @017   ----------------------------------------
 .byte   W48
 .byte   W96
@  #01 @018   ----------------------------------------
 .byte   W48
 .byte   W96
@  #01 @019   ----------------------------------------
 .byte   W48
 .byte   W96
@  #01 @020   ----------------------------------------
 .byte   W48
 .byte   W96
@  #01 @021   ----------------------------------------
 .byte   W48
 .byte   W96
@  #01 @022   ----------------------------------------
 .byte   W48
 .byte   W96
@  #01 @023   ----------------------------------------
 .byte   W48
 .byte   W96
@  #01 @024   ----------------------------------------
 .byte   W24
 .byte   BEND , c_v-3
 .byte   W06
 .byte   BEND , c_v-15
 .byte   W06
 .byte   BEND , c_v-25
 .byte   W06
 .byte   BEND , c_v-34
 .byte   W06
 .byte   BEND , c_v-43
 .byte   W96
@  #01 @025   ----------------------------------------
 .byte   W48
 .byte   W96
@  #01 @026   ----------------------------------------
 .byte   W48
 .byte   W96
@  #01 @027   ----------------------------------------
 .byte   W48
 .byte   W96
@  #01 @028   ----------------------------------------
 .byte   W48
 .byte   W96
@  #01 @029   ----------------------------------------
 .byte   W48
 .byte   W96
@  #01 @030   ----------------------------------------
 .byte   W48
 .byte   W96
@  #01 @031   ----------------------------------------
 .byte   W48
 .byte   W96
@  #01 @032   ----------------------------------------
 .byte   W44
 .byte   W03
 .byte   EOT
 .byte   W01
 .byte   BEND , c_v+0
 .byte   TIE ,En0
 .byte   W96
@  #01 @033   ----------------------------------------
 .byte   W48
 .byte   W96
@  #01 @034   ----------------------------------------
 .byte   W48
 .byte   W96
@  #01 @035   ----------------------------------------
 .byte   W48
 .byte   W96
@  #01 @036   ----------------------------------------
 .byte   W48
 .byte   W96
@  #01 @037   ----------------------------------------
 .byte   W48
 .byte   W96
@  #01 @038   ----------------------------------------
 .byte   W48
 .byte   W96
@  #01 @039   ----------------------------------------
 .byte   W48
Label_014E5932:
 .byte   W96
@  #01 @040   ----------------------------------------
 .byte   W44
 .byte   W02
 .byte   PEND 
 .byte   EOT
 .byte   En0
 .byte   W01
Label_014E5939:
 .byte   W01
 .byte   TIE ,En0 ,v120
 .byte   W96
@  #01 @041   ----------------------------------------
 .byte   W48
 .byte   W96
@  #01 @042   ----------------------------------------
 .byte   W48
 .byte   W96
@  #01 @043   ----------------------------------------
 .byte   W48
 .byte   W96
@  #01 @044   ----------------------------------------
 .byte   W48
 .byte   W96
@  #01 @045   ----------------------------------------
 .byte   W48
 .byte   W96
@  #01 @046   ----------------------------------------
 .byte   W48
 .byte   W96
@  #01 @047   ----------------------------------------
 .byte   W48
 .byte   W96
@  #01 @048   ----------------------------------------
 .byte   W48
 .byte   W96
@  #01 @049   ----------------------------------------
 .byte   W48
 .byte   W96
@  #01 @050   ----------------------------------------
 .byte   W48
 .byte   W96
@  #01 @051   ----------------------------------------
 .byte   W48
 .byte   W96
@  #01 @052   ----------------------------------------
 .byte   W48
 .byte   W96
@  #01 @053   ----------------------------------------
 .byte   W48
 .byte   W96
@  #01 @054   ----------------------------------------
 .byte   W48
 .byte   W96
@  #01 @055   ----------------------------------------
 .byte   W48
 .byte   W96
@  #01 @056   ----------------------------------------
 .byte   W48
 .byte   W96
@  #01 @057   ----------------------------------------
 .byte   W48
 .byte   W96
@  #01 @058   ----------------------------------------
 .byte   W48
 .byte   W96
@  #01 @059   ----------------------------------------
 .byte   W48
 .byte   W96
@  #01 @060   ----------------------------------------
 .byte   W48
 .byte   W96
@  #01 @061   ----------------------------------------
 .byte   W48
 .byte   W96
@  #01 @062   ----------------------------------------
 .byte   W48
 .byte   W96
@  #01 @063   ----------------------------------------
 .byte   W48
@  #01 @064   ----------------------------------------
 .byte   PATT
  .word Label_014E5932
@  #01 @065   ----------------------------------------
 .byte   EOT
 .byte   En0
 .byte   W01
 .byte   GOTO
  .word Label_014E5939
 .byte   FINE

@**************** Track 2 (Midi-Chn.1) ****************@

GameOver_002:
@  #02 @000   ----------------------------------------
 .byte   KEYSH , GameOver_key+0
 .byte   VOICE , 19
 .byte   VOL , 55*GameOver_mvl/mxv
 .byte   BENDR, 12
 .byte   W96
@  #02 @001   ----------------------------------------
 .byte   W48
 .byte   W96
@  #02 @002   ----------------------------------------
 .byte   W48
 .byte   W96
@  #02 @003   ----------------------------------------
 .byte   W48
 .byte   W96
@  #02 @004   ----------------------------------------
 .byte   W48
 .byte   W96
@  #02 @005   ----------------------------------------
 .byte   W48
 .byte   W96
@  #02 @006   ----------------------------------------
 .byte   W48
 .byte   W96
@  #02 @007   ----------------------------------------
 .byte   W48
 .byte   W96
@  #02 @008   ----------------------------------------
 .byte   W48
 .byte   W96
@  #02 @009   ----------------------------------------
 .byte   W48
 .byte   W96
@  #02 @010   ----------------------------------------
 .byte   W48
 .byte   W96
@  #02 @011   ----------------------------------------
 .byte   W48
 .byte   W96
@  #02 @012   ----------------------------------------
 .byte   W48
 .byte   W96
@  #02 @013   ----------------------------------------
 .byte   W48
 .byte   W96
@  #02 @014   ----------------------------------------
 .byte   W48
 .byte   W96
@  #02 @015   ----------------------------------------
 .byte   W48
 .byte   W96
@  #02 @016   ----------------------------------------
 .byte   W48
 .byte   W96
@  #02 @017   ----------------------------------------
 .byte   W48
 .byte   W96
@  #02 @018   ----------------------------------------
 .byte   W48
 .byte   W96
@  #02 @019   ----------------------------------------
 .byte   W48
 .byte   W96
@  #02 @020   ----------------------------------------
 .byte   W48
 .byte   W96
@  #02 @021   ----------------------------------------
 .byte   W48
 .byte   W96
@  #02 @022   ----------------------------------------
 .byte   W48
 .byte   W96
@  #02 @023   ----------------------------------------
 .byte   W48
 .byte   W96
@  #02 @024   ----------------------------------------
 .byte   W48
 .byte   W96
@  #02 @025   ----------------------------------------
 .byte   W48
 .byte   W96
@  #02 @026   ----------------------------------------
 .byte   W48
 .byte   W96
@  #02 @027   ----------------------------------------
 .byte   W48
 .byte   W96
@  #02 @028   ----------------------------------------
 .byte   W48
 .byte   W96
@  #02 @029   ----------------------------------------
 .byte   W48
 .byte   W96
@  #02 @030   ----------------------------------------
 .byte   W48
 .byte   W96
@  #02 @031   ----------------------------------------
 .byte   W48
 .byte   W96
@  #02 @032   ----------------------------------------
 .byte   W48
 .byte   BEND , c_v+0
 .byte   TIE ,Gn1 ,v072
 .byte   W96
@  #02 @033   ----------------------------------------
 .byte   W48
 .byte   W96
@  #02 @034   ----------------------------------------
 .byte   W48
 .byte   W96
@  #02 @035   ----------------------------------------
 .byte   W48
 .byte   W96
@  #02 @036   ----------------------------------------
 .byte   W48
 .byte   W96
@  #02 @037   ----------------------------------------
 .byte   W48
 .byte   W96
@  #02 @038   ----------------------------------------
 .byte   W48
 .byte   W96
@  #02 @039   ----------------------------------------
 .byte   W48
 .byte   W96
@  #02 @040   ----------------------------------------
 .byte   W44
 .byte   W03
Label_014E5D7A:
 .byte   W01
 .byte   EOT
 .byte   Gn1
 .byte   BEND , c_v+0
 .byte   TIE ,En1 ,v072
 .byte   W96
@  #02 @041   ----------------------------------------
 .byte   W48
 .byte   W96
@  #02 @042   ----------------------------------------
 .byte   W36
 .byte   BEND , c_v+2
 .byte   W03
 .byte   BEND , c_v+8
 .byte   W03
 .byte   BEND , c_v+14
 .byte   W03
 .byte   BEND , c_v+19
 .byte   W03
 .byte   BEND , c_v+26
 .byte   W96
@  #02 @043   ----------------------------------------
 .byte   W48
 .byte   W96
@  #02 @044   ----------------------------------------
 .byte   W36
 .byte   BEND , c_v+25
 .byte   W03
 .byte   BEND , c_v+21
 .byte   W03
 .byte   BEND , c_v+17
 .byte   W03
 .byte   BEND , c_v+14
 .byte   W03
 .byte   BEND , c_v+10
 .byte   W96
@  #02 @045   ----------------------------------------
 .byte   W48
 .byte   W96
@  #02 @046   ----------------------------------------
 .byte   W42
 .byte   BEND , c_v+12
 .byte   W03
 .byte   BEND , c_v+14
 .byte   W03
 .byte   BEND , c_v+15
 .byte   W96
@  #02 @047   ----------------------------------------
 .byte   W48
 .byte   W96
@  #02 @048   ----------------------------------------
 .byte   W48
 .byte   EOT
 .byte   BEND , c_v+0
 .byte   TIE ,Bn1
 .byte   W96
@  #02 @049   ----------------------------------------
 .byte   W48
 .byte   W96
@  #02 @050   ----------------------------------------
 .byte   W42
 .byte   BEND , c_v-2
 .byte   W03
 .byte   BEND , c_v-4
 .byte   W03
 .byte   BEND , c_v-6
 .byte   W96
@  #02 @051   ----------------------------------------
 .byte   W48
 .byte   W96
@  #02 @052   ----------------------------------------
 .byte   W42
 .byte   BEND , c_v-8
 .byte   W03
 .byte   BEND , c_v-10
 .byte   W03
 .byte   BEND , c_v-11
 .byte   W96
@  #02 @053   ----------------------------------------
 .byte   W48
 .byte   W96
@  #02 @054   ----------------------------------------
 .byte   W24
 .byte   W03
 .byte   BEND , c_v-10
 .byte   W03
 .byte   BEND , c_v-3
 .byte   W03
 .byte   BEND , c_v+5
 .byte   W03
 .byte   BEND , c_v+13
 .byte   W03
 .byte   BEND , c_v+20
 .byte   W03
 .byte   BEND , c_v+27
 .byte   W03
 .byte   BEND , c_v+35
 .byte   W03
 .byte   BEND , c_v+42
 .byte   W96
@  #02 @055   ----------------------------------------
 .byte   W48
 .byte   W96
@  #02 @056   ----------------------------------------
 .byte   W48
 .byte   EOT
 .byte   BEND , c_v+0
 .byte   TIE ,Fs2
 .byte   W96
@  #02 @057   ----------------------------------------
 .byte   W48
 .byte   W96
@  #02 @058   ----------------------------------------
 .byte   W48
 .byte   EOT
 .byte   BEND , c_v+0
 .byte   TIE ,Gn2
 .byte   W96
@  #02 @059   ----------------------------------------
 .byte   W48
 .byte   W96
@  #02 @060   ----------------------------------------
 .byte   W36
 .byte   W03
 .byte   BEND , c_v+2
 .byte   W03
 .byte   BEND , c_v+4
 .byte   W03
 .byte   BEND , c_v+8
 .byte   W03
 .byte   BEND , c_v+10
 .byte   W96
@  #02 @061   ----------------------------------------
 .byte   W48
 .byte   W96
@  #02 @062   ----------------------------------------
 .byte   W09
 .byte   BEND , c_v+9
 .byte   W03
 .byte   BEND , c_v+3
 .byte   W03
 .byte   BEND , c_v-3
 .byte   W03
 .byte   BEND , c_v-8
 .byte   W03
 .byte   BEND , c_v-15
 .byte   W03
 .byte   BEND , c_v-19
 .byte   W03
 .byte   BEND , c_v-25
 .byte   W03
 .byte   BEND , c_v-31
 .byte   W03
 .byte   BEND , c_v-37
 .byte   W03
 .byte   BEND , c_v-42
 .byte   W03
 .byte   BEND , c_v-47
 .byte   W03
 .byte   BEND , c_v-53
 .byte   W03
 .byte   BEND , c_v-59
 .byte   W03
 .byte   BEND , c_v-64
 .byte   W96
@  #02 @063   ----------------------------------------
 .byte   W48
 .byte   W96
@  #02 @064   ----------------------------------------
 .byte   W44
 .byte   W02
 .byte   EOT
 .byte   W01
 .byte   GOTO
  .word Label_014E5D7A
 .byte   FINE

@**************** Track 3 (Midi-Chn.2) ****************@

GameOver_003:
@  #03 @000   ----------------------------------------
 .byte   KEYSH , GameOver_key+0
 .byte   VOICE , 19
 .byte   VOL , 25*GameOver_mvl/mxv
 .byte   BENDR, 12
 .byte   W96
@  #03 @001   ----------------------------------------
 .byte   W48
 .byte   W96
@  #03 @002   ----------------------------------------
 .byte   W48
 .byte   W96
@  #03 @003   ----------------------------------------
 .byte   W48
 .byte   W96
@  #03 @004   ----------------------------------------
 .byte   W48
 .byte   W96
@  #03 @005   ----------------------------------------
 .byte   W48
 .byte   W96
@  #03 @006   ----------------------------------------
 .byte   W48
 .byte   W96
@  #03 @007   ----------------------------------------
 .byte   W48
 .byte   W96
@  #03 @008   ----------------------------------------
 .byte   W48
 .byte   W96
@  #03 @009   ----------------------------------------
 .byte   W48
 .byte   W96
@  #03 @010   ----------------------------------------
 .byte   W48
 .byte   W96
@  #03 @011   ----------------------------------------
 .byte   W48
 .byte   W96
@  #03 @012   ----------------------------------------
 .byte   W48
 .byte   W96
@  #03 @013   ----------------------------------------
 .byte   W48
 .byte   W96
@  #03 @014   ----------------------------------------
 .byte   W48
 .byte   W96
@  #03 @015   ----------------------------------------
 .byte   W48
 .byte   W96
@  #03 @016   ----------------------------------------
 .byte   W48
 .byte   W96
@  #03 @017   ----------------------------------------
 .byte   W48
 .byte   W96
@  #03 @018   ----------------------------------------
 .byte   W48
 .byte   W96
@  #03 @019   ----------------------------------------
 .byte   W48
 .byte   W96
@  #03 @020   ----------------------------------------
 .byte   W48
 .byte   W96
@  #03 @021   ----------------------------------------
 .byte   W48
 .byte   W96
@  #03 @022   ----------------------------------------
 .byte   W48
 .byte   W96
@  #03 @023   ----------------------------------------
 .byte   W48
 .byte   W96
@  #03 @024   ----------------------------------------
 .byte   W48
 .byte   W96
@  #03 @025   ----------------------------------------
 .byte   W48
 .byte   W96
@  #03 @026   ----------------------------------------
 .byte   W48
 .byte   W96
@  #03 @027   ----------------------------------------
 .byte   W48
 .byte   W96
@  #03 @028   ----------------------------------------
 .byte   W48
 .byte   W96
@  #03 @029   ----------------------------------------
 .byte   W48
 .byte   W96
@  #03 @030   ----------------------------------------
 .byte   W48
 .byte   W96
@  #03 @031   ----------------------------------------
 .byte   W48
 .byte   W96
@  #03 @032   ----------------------------------------
 .byte   W48
 .byte   W24
 .byte   W03
 .byte   BEND , c_v+1
 .byte   TIE ,Gn1 ,v072
 .byte   W96
@  #03 @033   ----------------------------------------
 .byte   W21
 .byte   W96
@  #03 @034   ----------------------------------------
 .byte   W48
 .byte   W96
@  #03 @035   ----------------------------------------
 .byte   W48
 .byte   W96
@  #03 @036   ----------------------------------------
 .byte   W48
 .byte   W96
@  #03 @037   ----------------------------------------
 .byte   W48
 .byte   W96
@  #03 @038   ----------------------------------------
 .byte   W48
 .byte   W96
@  #03 @039   ----------------------------------------
 .byte   W48
 .byte   W96
@  #03 @040   ----------------------------------------
 .byte   W44
 .byte   EOT
 .byte   W03
Label_014E5ADD:
 .byte   W01
 .byte   W24
 .byte   W03
 .byte   BEND , c_v+1
 .byte   TIE ,En1 ,v072
 .byte   W96
@  #03 @041   ----------------------------------------
 .byte   W21
 .byte   W96
@  #03 @042   ----------------------------------------
 .byte   W48
 .byte   W15
 .byte   BEND , c_v+3
 .byte   W03
 .byte   BEND , c_v+9
 .byte   W03
 .byte   BEND , c_v+15
 .byte   W03
 .byte   BEND , c_v+20
 .byte   W03
 .byte   BEND , c_v+27
 .byte   W96
@  #03 @043   ----------------------------------------
 .byte   W21
 .byte   W96
@  #03 @044   ----------------------------------------
 .byte   W48
 .byte   W15
 .byte   BEND , c_v+26
 .byte   W03
 .byte   BEND , c_v+22
 .byte   W03
 .byte   BEND , c_v+18
 .byte   W03
 .byte   BEND , c_v+15
 .byte   W03
 .byte   BEND , c_v+11
 .byte   W96
@  #03 @045   ----------------------------------------
 .byte   W21
 .byte   W96
@  #03 @046   ----------------------------------------
 .byte   W48
 .byte   W21
 .byte   BEND , c_v+13
 .byte   W03
 .byte   BEND , c_v+15
 .byte   W03
 .byte   BEND , c_v+17
 .byte   W96
@  #03 @047   ----------------------------------------
 .byte   W21
 .byte   W96
@  #03 @048   ----------------------------------------
 .byte   W48
 .byte   W24
 .byte   W03
 .byte   EOT
 .byte   BEND , c_v+1
 .byte   TIE ,Bn1
 .byte   W96
@  #03 @049   ----------------------------------------
 .byte   W21
 .byte   W96
@  #03 @050   ----------------------------------------
 .byte   W48
 .byte   W21
 .byte   BEND , c_v-1
 .byte   W03
 .byte   BEND , c_v-3
 .byte   W03
 .byte   BEND , c_v-5
 .byte   W96
@  #03 @051   ----------------------------------------
 .byte   W21
 .byte   W96
@  #03 @052   ----------------------------------------
 .byte   W48
 .byte   W21
 .byte   BEND , c_v-7
 .byte   W03
 .byte   BEND , c_v-9
 .byte   W03
 .byte   BEND , c_v-10
 .byte   W96
@  #03 @053   ----------------------------------------
 .byte   W21
 .byte   W96
@  #03 @054   ----------------------------------------
 .byte   W48
 .byte   W06
 .byte   BEND , c_v-9
 .byte   W03
 .byte   BEND , c_v-2
 .byte   W03
 .byte   BEND , c_v+6
 .byte   W03
 .byte   BEND , c_v+14
 .byte   W03
 .byte   BEND , c_v+21
 .byte   W03
 .byte   BEND , c_v+28
 .byte   W03
 .byte   BEND , c_v+36
 .byte   W03
 .byte   BEND , c_v+43
 .byte   W96
@  #03 @055   ----------------------------------------
 .byte   W21
 .byte   W96
@  #03 @056   ----------------------------------------
 .byte   W48
 .byte   W24
 .byte   W03
 .byte   EOT
 .byte   BEND , c_v+1
 .byte   TIE ,Fs2
 .byte   W96
@  #03 @057   ----------------------------------------
 .byte   W21
 .byte   W96
@  #03 @058   ----------------------------------------
 .byte   W48
 .byte   W24
 .byte   W03
 .byte   EOT
 .byte   BEND , c_v+1
 .byte   TIE ,Gn2
 .byte   W96
@  #03 @059   ----------------------------------------
 .byte   W21
 .byte   W96
@  #03 @060   ----------------------------------------
 .byte   W48
 .byte   W18
 .byte   BEND , c_v+3
 .byte   W03
 .byte   BEND , c_v+5
 .byte   W03
 .byte   BEND , c_v+9
 .byte   W03
 .byte   BEND , c_v+11
 .byte   W96
@  #03 @061   ----------------------------------------
 .byte   W21
 .byte   W96
@  #03 @062   ----------------------------------------
 .byte   W36
 .byte   BEND , c_v+10
 .byte   W03
 .byte   BEND , c_v+4
 .byte   W03
 .byte   BEND , c_v-2
 .byte   W03
 .byte   BEND , c_v-7
 .byte   W03
 .byte   BEND , c_v-14
 .byte   W03
 .byte   BEND , c_v-18
 .byte   W03
 .byte   BEND , c_v-24
 .byte   W03
 .byte   BEND , c_v-30
 .byte   W03
 .byte   BEND , c_v-36
 .byte   W03
 .byte   BEND , c_v-41
 .byte   W03
 .byte   BEND , c_v-46
 .byte   W03
 .byte   BEND , c_v-52
 .byte   W03
 .byte   BEND , c_v-58
 .byte   W03
 .byte   BEND , c_v-63
 .byte   W96
@  #03 @063   ----------------------------------------
 .byte   W21
 .byte   W96
@  #03 @064   ----------------------------------------
 .byte   W44
 .byte   EOT
 .byte   W03
 .byte   GOTO
  .word Label_014E5ADD
 .byte   FINE

@**************** Track 4 (Midi-Chn.3) ****************@

GameOver_004:
@  #04 @000   ----------------------------------------
 .byte   KEYSH , GameOver_key+0
 .byte   VOICE , 52
 .byte   VOL , 78*GameOver_mvl/mxv
 .byte   N05 ,En3 ,v060
 .byte   W24
 .byte   Gn3
 .byte   W24
 .byte   Dn4
 .byte   W24
 .byte   En4
 .byte   W24
@  #04 @001   ----------------------------------------
 .byte   Dn4
 .byte   W24
 .byte   Gn3
 .byte   W24
Label_01018A7C:
 .byte   N05 ,En3 ,v060
 .byte   W24
 .byte   Gn3
 .byte   W24
@  #04 @002   ----------------------------------------
 .byte   Dn4
 .byte   W24
 .byte   En4
 .byte   W24
 .byte   Dn4
 .byte   W24
 .byte   Gn3
 .byte   W24
 .byte   PEND 
@  #04 @003   ----------------------------------------
Label_01018A8B:
 .byte   N05 ,En3 ,v060
 .byte   W24
 .byte   Gn3
 .byte   W24
 .byte   Cs4
 .byte   W24
 .byte   En4
 .byte   W24
@  #04 @004   ----------------------------------------
 .byte   Cs4
 .byte   W24
 .byte   Gn3
 .byte   W24
 .byte   PEND 
@  #04 @005   ----------------------------------------
 .byte   PATT
  .word Label_01018A8B
@  #04 @006   ----------------------------------------
Label_01018A9F:
 .byte   N05 ,En3 ,v060
 .byte   W24
 .byte   Gn3
 .byte   W24
 .byte   Cn4
 .byte   W24
 .byte   En4
 .byte   W24
@  #04 @007   ----------------------------------------
 .byte   Cn4
 .byte   W24
 .byte   Gn3
 .byte   W24
 .byte   PEND 
@  #04 @008   ----------------------------------------
 .byte   PATT
  .word Label_01018A9F
@  #04 @009   ----------------------------------------
Label_01018AB3:
 .byte   N05 ,En3 ,v060
 .byte   W24
 .byte   Gn3
 .byte   W24
 .byte   Bn3
 .byte   W24
 .byte   Dn4
 .byte   W24
@  #04 @010   ----------------------------------------
 .byte   Bn3
 .byte   W24
 .byte   Gn3
 .byte   W24
 .byte   PEND 
@  #04 @011   ----------------------------------------
 .byte   PATT
  .word Label_01018AB3
@  #04 @012   ----------------------------------------
 .byte   PATT
  .word Label_01018A7C
@  #04 @013   ----------------------------------------
 .byte   PATT
  .word Label_01018A7C
@  #04 @014   ----------------------------------------
 .byte   PATT
  .word Label_01018A8B
@  #04 @015   ----------------------------------------
 .byte   PATT
  .word Label_01018A8B
@  #04 @016   ----------------------------------------
 .byte   PATT
  .word Label_01018A9F
@  #04 @017   ----------------------------------------
 .byte   PATT
  .word Label_01018A9F
@  #04 @018   ----------------------------------------
 .byte   PATT
  .word Label_01018AB3
@  #04 @019   ----------------------------------------
 .byte   PATT
  .word Label_01018AB3
@  #04 @020   ----------------------------------------
 .byte   PATT
  .word Label_01018A7C
@  #04 @021   ----------------------------------------
 .byte   PATT
  .word Label_01018A7C
@  #04 @022   ----------------------------------------
 .byte   PATT
  .word Label_01018A8B
@  #04 @023   ----------------------------------------
 .byte   PATT
  .word Label_01018A8B
@  #04 @024   ----------------------------------------
 .byte   PATT
  .word Label_01018A9F
@  #04 @025   ----------------------------------------
 .byte   PATT
  .word Label_01018A9F
@  #04 @026   ----------------------------------------
 .byte   PATT
  .word Label_01018AB3
@  #04 @027   ----------------------------------------
 .byte   PATT
  .word Label_01018AB3
@  #04 @028   ----------------------------------------
 .byte   PATT
  .word Label_01018A7C
@  #04 @029   ----------------------------------------
 .byte   PATT
  .word Label_01018A7C
@  #04 @030   ----------------------------------------
 .byte   PATT
  .word Label_01018A8B
@  #04 @031   ----------------------------------------
 .byte   PATT
  .word Label_01018A8B
@  #04 @032   ----------------------------------------
 .byte   PATT
  .word Label_01018A9F
@  #04 @033   ----------------------------------------
 .byte   PATT
  .word Label_01018A9F
@  #04 @034   ----------------------------------------
 .byte   PATT
  .word Label_01018AB3
@  #04 @035   ----------------------------------------
 .byte   PATT
  .word Label_01018AB3
@  #04 @036   ----------------------------------------
 .byte   PATT
  .word Label_01018A7C
@  #04 @037   ----------------------------------------
 .byte   PATT
  .word Label_01018A7C
@  #04 @038   ----------------------------------------
 .byte   PATT
  .word Label_01018A8B
@  #04 @039   ----------------------------------------
 .byte   PATT
  .word Label_01018A8B
@  #04 @040   ----------------------------------------
 .byte   PATT
  .word Label_01018A9F
@  #04 @041   ----------------------------------------
 .byte   PATT
  .word Label_01018A9F
@  #04 @042   ----------------------------------------
 .byte   PATT
  .word Label_01018AB3
@  #04 @043   ----------------------------------------
 .byte   N05 ,En3 ,v060
 .byte   W24
 .byte   Gn3
 .byte   W24
 .byte   Bn3
 .byte   W24
 .byte   Dn4
 .byte   W24
@  #04 @044   ----------------------------------------
 .byte   Bn3
 .byte   W24
 .byte   Gn3
 .byte   W23
Label_01018B70:
 .byte   W01
@  #04 @045   ----------------------------------------
 .byte   PATT
  .word Label_01018A7C
@  #04 @046   ----------------------------------------
 .byte   PATT
  .word Label_01018A7C
@  #04 @047   ----------------------------------------
 .byte   PATT
  .word Label_01018A8B
@  #04 @048   ----------------------------------------
 .byte   PATT
  .word Label_01018A8B
@  #04 @049   ----------------------------------------
 .byte   PATT
  .word Label_01018A9F
@  #04 @050   ----------------------------------------
 .byte   PATT
  .word Label_01018A9F
@  #04 @051   ----------------------------------------
 .byte   PATT
  .word Label_01018AB3
@  #04 @052   ----------------------------------------
 .byte   PATT
  .word Label_01018AB3
@  #04 @053   ----------------------------------------
 .byte   PATT
  .word Label_01018A7C
@  #04 @054   ----------------------------------------
 .byte   PATT
  .word Label_01018A7C
@  #04 @055   ----------------------------------------
 .byte   PATT
  .word Label_01018A8B
@  #04 @056   ----------------------------------------
 .byte   PATT
  .word Label_01018A8B
@  #04 @057   ----------------------------------------
 .byte   PATT
  .word Label_01018A9F
@  #04 @058   ----------------------------------------
 .byte   PATT
  .word Label_01018A9F
@  #04 @059   ----------------------------------------
 .byte   PATT
  .word Label_01018AB3
@  #04 @060   ----------------------------------------
 .byte   PATT
  .word Label_01018AB3
@  #04 @061   ----------------------------------------
 .byte   PATT
  .word Label_01018A7C
@  #04 @062   ----------------------------------------
 .byte   PATT
  .word Label_01018A7C
@  #04 @063   ----------------------------------------
 .byte   PATT
  .word Label_01018A8B
@  #04 @064   ----------------------------------------
 .byte   PATT
  .word Label_01018A8B
@  #04 @065   ----------------------------------------
 .byte   PATT
  .word Label_01018A9F
@  #04 @066   ----------------------------------------
 .byte   PATT
  .word Label_01018A9F
@  #04 @067   ----------------------------------------
 .byte   PATT
  .word Label_01018AB3
@  #04 @068   ----------------------------------------
 .byte   N05 ,En3 ,v060
 .byte   W24
 .byte   Gn3
 .byte   W24
 .byte   Bn3
 .byte   W24
 .byte   Dn4
 .byte   W24
@  #04 @069   ----------------------------------------
 .byte   Bn3
 .byte   W24
 .byte   Gn3
 .byte   W23
 .byte   GOTO
  .word Label_01018B70
 .byte   FINE

@**************** Track 5 (Midi-Chn.4) ****************@

GameOver_005:
@  #05 @000   ----------------------------------------
 .byte   KEYSH , GameOver_key+0
 .byte   W15
 .byte   VOICE , 52
 .byte   VOL , 39*GameOver_mvl/mxv
 .byte   N06 ,En3 ,v060
 .byte   W24
 .byte   Gn3
 .byte   W24
 .byte   Dn4
 .byte   W24
 .byte   En4
 .byte   W24
@  #05 @001   ----------------------------------------
 .byte   Dn4
 .byte   W24
 .byte   Gn3
 .byte   W09
Label_014E6051:
 .byte   W15
 .byte   N06 ,En3 ,v060
 .byte   W24
 .byte   Gn3
 .byte   W24
@  #05 @002   ----------------------------------------
 .byte   Dn4
 .byte   W24
 .byte   En4
 .byte   W24
 .byte   Dn4
 .byte   W24
 .byte   Gn3
 .byte   W09
 .byte   PEND 
Label_014E6061:
 .byte   W15
@  #05 @003   ----------------------------------------
 .byte   N06 ,En3 ,v060
 .byte   W24
 .byte   Gn3
 .byte   W24
 .byte   Cs4
 .byte   W24
 .byte   En4
 .byte   W24
@  #05 @004   ----------------------------------------
 .byte   Cs4
 .byte   W24
 .byte   Gn3
 .byte   W09
 .byte   PEND 
@  #05 @005   ----------------------------------------
 .byte   PATT
  .word Label_014E6061
@  #05 @006   ----------------------------------------
Label_014E6076:
 .byte   W15
 .byte   N06 ,En3 ,v060
 .byte   W24
 .byte   Gn3
 .byte   W24
 .byte   Cn4
 .byte   W24
 .byte   En4
 .byte   W24
@  #05 @007   ----------------------------------------
 .byte   Cn4
 .byte   W24
 .byte   Gn3
 .byte   W09
 .byte   PEND 
@  #05 @008   ----------------------------------------
 .byte   PATT
  .word Label_014E6076
@  #05 @009   ----------------------------------------
Label_014E608B:
 .byte   W15
 .byte   N06 ,En3 ,v060
 .byte   W24
 .byte   Gn3
 .byte   W24
 .byte   Bn3
 .byte   W24
 .byte   Dn4
 .byte   W24
@  #05 @010   ----------------------------------------
 .byte   Bn3
 .byte   W24
 .byte   Gn3
 .byte   W09
 .byte   PEND 
@  #05 @011   ----------------------------------------
 .byte   PATT
  .word Label_014E608B
@  #05 @012   ----------------------------------------
 .byte   PATT
  .word Label_014E6051
@  #05 @013   ----------------------------------------
 .byte   PATT
  .word Label_014E6051
@  #05 @014   ----------------------------------------
 .byte   PATT
  .word Label_014E6061
@  #05 @015   ----------------------------------------
 .byte   PATT
  .word Label_014E6061
@  #05 @016   ----------------------------------------
 .byte   PATT
  .word Label_014E6076
@  #05 @017   ----------------------------------------
 .byte   PATT
  .word Label_014E6076
@  #05 @018   ----------------------------------------
 .byte   PATT
  .word Label_014E608B
@  #05 @019   ----------------------------------------
 .byte   PATT
  .word Label_014E608B
@  #05 @020   ----------------------------------------
 .byte   PATT
  .word Label_014E6051
@  #05 @021   ----------------------------------------
 .byte   PATT
  .word Label_014E6051
@  #05 @022   ----------------------------------------
 .byte   PATT
  .word Label_014E6061
@  #05 @023   ----------------------------------------
 .byte   PATT
  .word Label_014E6061
@  #05 @024   ----------------------------------------
 .byte   PATT
  .word Label_014E6076
@  #05 @025   ----------------------------------------
 .byte   PATT
  .word Label_014E6076
@  #05 @026   ----------------------------------------
 .byte   PATT
  .word Label_014E608B
@  #05 @027   ----------------------------------------
 .byte   PATT
  .word Label_014E608B
@  #05 @028   ----------------------------------------
 .byte   PATT
  .word Label_014E6051
@  #05 @029   ----------------------------------------
 .byte   PATT
  .word Label_014E6051
@  #05 @030   ----------------------------------------
 .byte   PATT
  .word Label_014E6061
@  #05 @031   ----------------------------------------
 .byte   PATT
  .word Label_014E6061
@  #05 @032   ----------------------------------------
 .byte   PATT
  .word Label_014E6076
@  #05 @033   ----------------------------------------
 .byte   PATT
  .word Label_014E6076
@  #05 @034   ----------------------------------------
 .byte   PATT
  .word Label_014E608B
@  #05 @035   ----------------------------------------
 .byte   PATT
  .word Label_014E608B
@  #05 @036   ----------------------------------------
 .byte   PATT
  .word Label_014E6051
@  #05 @037   ----------------------------------------
 .byte   PATT
  .word Label_014E6051
@  #05 @038   ----------------------------------------
 .byte   PATT
  .word Label_014E6061
@  #05 @039   ----------------------------------------
 .byte   PATT
  .word Label_014E6061
@  #05 @040   ----------------------------------------
 .byte   PATT
  .word Label_014E6076
@  #05 @041   ----------------------------------------
 .byte   PATT
  .word Label_014E6076
@  #05 @042   ----------------------------------------
 .byte   PATT
  .word Label_014E608B
@  #05 @043   ----------------------------------------
 .byte   PATT
  .word Label_014E608B
@  #05 @044   ----------------------------------------
 .byte   W14
Label_014E6141:
 .byte   W01
 .byte   N06 ,En3 ,v060
 .byte   W24
 .byte   Gn3
 .byte   W24
 .byte   Dn4
 .byte   W24
 .byte   En4
 .byte   W24
@  #05 @045   ----------------------------------------
 .byte   Dn4
 .byte   W24
 .byte   Gn3
 .byte   W09
@  #05 @046   ----------------------------------------
 .byte   PATT
  .word Label_014E6051
@  #05 @047   ----------------------------------------
 .byte   PATT
  .word Label_014E6061
@  #05 @048   ----------------------------------------
 .byte   PATT
  .word Label_014E6061
@  #05 @049   ----------------------------------------
 .byte   PATT
  .word Label_014E6076
@  #05 @050   ----------------------------------------
 .byte   PATT
  .word Label_014E6076
@  #05 @051   ----------------------------------------
 .byte   PATT
  .word Label_014E608B
@  #05 @052   ----------------------------------------
 .byte   PATT
  .word Label_014E608B
@  #05 @053   ----------------------------------------
 .byte   PATT
  .word Label_014E6051
@  #05 @054   ----------------------------------------
 .byte   PATT
  .word Label_014E6051
@  #05 @055   ----------------------------------------
 .byte   PATT
  .word Label_014E6061
@  #05 @056   ----------------------------------------
 .byte   PATT
  .word Label_014E6061
@  #05 @057   ----------------------------------------
 .byte   PATT
  .word Label_014E6076
@  #05 @058   ----------------------------------------
 .byte   PATT
  .word Label_014E6076
@  #05 @059   ----------------------------------------
 .byte   PATT
  .word Label_014E608B
@  #05 @060   ----------------------------------------
 .byte   PATT
  .word Label_014E608B
@  #05 @061   ----------------------------------------
 .byte   PATT
  .word Label_014E6051
@  #05 @062   ----------------------------------------
 .byte   PATT
  .word Label_014E6051
@  #05 @063   ----------------------------------------
 .byte   PATT
  .word Label_014E6061
@  #05 @064   ----------------------------------------
 .byte   PATT
  .word Label_014E6061
@  #05 @065   ----------------------------------------
 .byte   PATT
  .word Label_014E6076
@  #05 @066   ----------------------------------------
 .byte   PATT
  .word Label_014E6076
@  #05 @067   ----------------------------------------
 .byte   PATT
  .word Label_014E608B
@  #05 @068   ----------------------------------------
 .byte   PATT
  .word Label_014E608B
@  #05 @069   ----------------------------------------
 .byte   W14
 .byte   GOTO
  .word Label_014E6141
 .byte   FINE

@**************** Track 6 (Midi-Chn.5) ****************@

GameOver_006:
@  #06 @000   ----------------------------------------
 .byte   KEYSH , GameOver_key+0
 .byte   VOICE , 52
 .byte   VOL , 78*GameOver_mvl/mxv
 .byte   N11 ,En2 ,v104
 .byte   W24
 .byte   Gn2
 .byte   W24
 .byte   Dn3
 .byte   W24
 .byte   En3
 .byte   W24
@  #06 @001   ----------------------------------------
 .byte   Dn3
 .byte   W24
 .byte   Gn2
 .byte   W24
Label_01018C1C:
 .byte   N11 ,En2 ,v104
 .byte   W24
 .byte   Gn2
 .byte   W24
@  #06 @002   ----------------------------------------
 .byte   Dn3
 .byte   W24
 .byte   En3
 .byte   W24
 .byte   Dn3
 .byte   W24
 .byte   Gn2
 .byte   W24
 .byte   PEND 
@  #06 @003   ----------------------------------------
Label_01018C2B:
 .byte   N11 ,En2 ,v104
 .byte   W24
 .byte   Gn2
 .byte   W24
 .byte   Cs3
 .byte   W24
 .byte   En3
 .byte   W24
@  #06 @004   ----------------------------------------
 .byte   Cs3
 .byte   W24
 .byte   Gn2
 .byte   W24
 .byte   PEND 
@  #06 @005   ----------------------------------------
 .byte   PATT
  .word Label_01018C2B
@  #06 @006   ----------------------------------------
Label_01018C3F:
 .byte   N11 ,En2 ,v104
 .byte   W24
 .byte   Gn2
 .byte   W24
 .byte   Cn3
 .byte   W24
 .byte   En3
 .byte   W24
@  #06 @007   ----------------------------------------
 .byte   Cn3
 .byte   W24
 .byte   Gn2
 .byte   W24
 .byte   PEND 
@  #06 @008   ----------------------------------------
 .byte   PATT
  .word Label_01018C3F
@  #06 @009   ----------------------------------------
Label_01018C53:
 .byte   N11 ,En2 ,v104
 .byte   W24
 .byte   Gn2
 .byte   W24
 .byte   Bn2
 .byte   W24
 .byte   Dn3
 .byte   W24
@  #06 @010   ----------------------------------------
 .byte   Bn2
 .byte   W24
 .byte   Gn2
 .byte   W24
 .byte   PEND 
@  #06 @011   ----------------------------------------
 .byte   PATT
  .word Label_01018C53
@  #06 @012   ----------------------------------------
 .byte   PATT
  .word Label_01018C1C
@  #06 @013   ----------------------------------------
 .byte   PATT
  .word Label_01018C1C
@  #06 @014   ----------------------------------------
 .byte   PATT
  .word Label_01018C2B
@  #06 @015   ----------------------------------------
 .byte   PATT
  .word Label_01018C2B
@  #06 @016   ----------------------------------------
 .byte   PATT
  .word Label_01018C3F
@  #06 @017   ----------------------------------------
 .byte   PATT
  .word Label_01018C3F
@  #06 @018   ----------------------------------------
 .byte   PATT
  .word Label_01018C53
@  #06 @019   ----------------------------------------
 .byte   PATT
  .word Label_01018C53
@  #06 @020   ----------------------------------------
 .byte   PATT
  .word Label_01018C1C
@  #06 @021   ----------------------------------------
 .byte   PATT
  .word Label_01018C1C
@  #06 @022   ----------------------------------------
 .byte   PATT
  .word Label_01018C2B
@  #06 @023   ----------------------------------------
 .byte   PATT
  .word Label_01018C2B
@  #06 @024   ----------------------------------------
 .byte   PATT
  .word Label_01018C3F
@  #06 @025   ----------------------------------------
 .byte   PATT
  .word Label_01018C3F
@  #06 @026   ----------------------------------------
 .byte   PATT
  .word Label_01018C53
@  #06 @027   ----------------------------------------
 .byte   PATT
  .word Label_01018C53
@  #06 @028   ----------------------------------------
 .byte   PATT
  .word Label_01018C1C
@  #06 @029   ----------------------------------------
 .byte   PATT
  .word Label_01018C1C
@  #06 @030   ----------------------------------------
 .byte   PATT
  .word Label_01018C2B
@  #06 @031   ----------------------------------------
 .byte   PATT
  .word Label_01018C2B
@  #06 @032   ----------------------------------------
 .byte   PATT
  .word Label_01018C3F
@  #06 @033   ----------------------------------------
 .byte   PATT
  .word Label_01018C3F
@  #06 @034   ----------------------------------------
 .byte   PATT
  .word Label_01018C53
@  #06 @035   ----------------------------------------
 .byte   PATT
  .word Label_01018C53
@  #06 @036   ----------------------------------------
 .byte   PATT
  .word Label_01018C1C
@  #06 @037   ----------------------------------------
 .byte   PATT
  .word Label_01018C1C
@  #06 @038   ----------------------------------------
 .byte   PATT
  .word Label_01018C2B
@  #06 @039   ----------------------------------------
 .byte   PATT
  .word Label_01018C2B
@  #06 @040   ----------------------------------------
 .byte   PATT
  .word Label_01018C3F
@  #06 @041   ----------------------------------------
 .byte   PATT
  .word Label_01018C3F
@  #06 @042   ----------------------------------------
 .byte   PATT
  .word Label_01018C53
@  #06 @043   ----------------------------------------
 .byte   N11 ,En2 ,v104
 .byte   W24
 .byte   Gn2
 .byte   W24
 .byte   Bn2
 .byte   W24
 .byte   Dn3
 .byte   W24
@  #06 @044   ----------------------------------------
 .byte   Bn2
 .byte   W24
 .byte   Gn2
 .byte   W23
Label_01018D10:
 .byte   W01
@  #06 @045   ----------------------------------------
 .byte   PATT
  .word Label_01018C1C
@  #06 @046   ----------------------------------------
 .byte   PATT
  .word Label_01018C1C
@  #06 @047   ----------------------------------------
 .byte   PATT
  .word Label_01018C2B
@  #06 @048   ----------------------------------------
 .byte   PATT
  .word Label_01018C2B
@  #06 @049   ----------------------------------------
 .byte   PATT
  .word Label_01018C3F
@  #06 @050   ----------------------------------------
 .byte   PATT
  .word Label_01018C3F
@  #06 @051   ----------------------------------------
 .byte   PATT
  .word Label_01018C53
@  #06 @052   ----------------------------------------
 .byte   PATT
  .word Label_01018C53
@  #06 @053   ----------------------------------------
 .byte   PATT
  .word Label_01018C1C
@  #06 @054   ----------------------------------------
 .byte   PATT
  .word Label_01018C1C
@  #06 @055   ----------------------------------------
 .byte   PATT
  .word Label_01018C2B
@  #06 @056   ----------------------------------------
 .byte   PATT
  .word Label_01018C2B
@  #06 @057   ----------------------------------------
 .byte   PATT
  .word Label_01018C3F
@  #06 @058   ----------------------------------------
 .byte   PATT
  .word Label_01018C3F
@  #06 @059   ----------------------------------------
 .byte   PATT
  .word Label_01018C53
@  #06 @060   ----------------------------------------
 .byte   PATT
  .word Label_01018C53
@  #06 @061   ----------------------------------------
 .byte   PATT
  .word Label_01018C1C
@  #06 @062   ----------------------------------------
 .byte   PATT
  .word Label_01018C1C
@  #06 @063   ----------------------------------------
 .byte   PATT
  .word Label_01018C2B
@  #06 @064   ----------------------------------------
 .byte   PATT
  .word Label_01018C2B
@  #06 @065   ----------------------------------------
 .byte   PATT
  .word Label_01018C3F
@  #06 @066   ----------------------------------------
 .byte   PATT
  .word Label_01018C3F
@  #06 @067   ----------------------------------------
 .byte   PATT
  .word Label_01018C53
@  #06 @068   ----------------------------------------
 .byte   N11 ,En2 ,v104
 .byte   W24
 .byte   Gn2
 .byte   W24
 .byte   Bn2
 .byte   W24
 .byte   Dn3
 .byte   W24
@  #06 @069   ----------------------------------------
 .byte   Bn2
 .byte   W24
 .byte   Gn2
 .byte   W23
 .byte   GOTO
  .word Label_01018D10
 .byte   FINE

@**************** Track 7 (Midi-Chn.6) ****************@

GameOver_007:
@  #07 @000   ----------------------------------------
 .byte   KEYSH , GameOver_key+0
 .byte   W15
 .byte   VOICE , 52
 .byte   VOL , 43*GameOver_mvl/mxv
 .byte   N11 ,En2 ,v104
 .byte   W24
 .byte   Gn2
 .byte   W24
 .byte   Dn3
 .byte   W24
 .byte   En3
 .byte   W24
@  #07 @001   ----------------------------------------
 .byte   Dn3
 .byte   W24
 .byte   Gn2
 .byte   W09
Label_01018DBD:
 .byte   W15
 .byte   N11 ,En2 ,v104
 .byte   W24
 .byte   Gn2
 .byte   W24
@  #07 @002   ----------------------------------------
 .byte   Dn3
 .byte   W24
 .byte   En3
 .byte   W24
 .byte   Dn3
 .byte   W24
 .byte   Gn2
 .byte   W09
 .byte   PEND 
Label_01018DCD:
 .byte   W15
@  #07 @003   ----------------------------------------
 .byte   N11 ,En2 ,v104
 .byte   W24
 .byte   Gn2
 .byte   W24
 .byte   Cs3
 .byte   W24
 .byte   En3
 .byte   W24
@  #07 @004   ----------------------------------------
 .byte   Cs3
 .byte   W24
 .byte   Gn2
 .byte   W09
 .byte   PEND 
@  #07 @005   ----------------------------------------
 .byte   PATT
  .word Label_01018DCD
@  #07 @006   ----------------------------------------
Label_01018DE2:
 .byte   W15
 .byte   N11 ,En2 ,v104
 .byte   W24
 .byte   Gn2
 .byte   W24
 .byte   Cn3
 .byte   W24
 .byte   En3
 .byte   W24
@  #07 @007   ----------------------------------------
 .byte   Cn3
 .byte   W24
 .byte   Gn2
 .byte   W09
 .byte   PEND 
@  #07 @008   ----------------------------------------
 .byte   PATT
  .word Label_01018DE2
@  #07 @009   ----------------------------------------
Label_01018DF7:
 .byte   W15
 .byte   N11 ,En2 ,v104
 .byte   W24
 .byte   Gn2
 .byte   W24
 .byte   Bn2
 .byte   W24
 .byte   Dn3
 .byte   W24
@  #07 @010   ----------------------------------------
 .byte   Bn2
 .byte   W24
 .byte   Gn2
 .byte   W09
 .byte   PEND 
@  #07 @011   ----------------------------------------
 .byte   PATT
  .word Label_01018DF7
@  #07 @012   ----------------------------------------
 .byte   PATT
  .word Label_01018DBD
@  #07 @013   ----------------------------------------
 .byte   PATT
  .word Label_01018DBD
@  #07 @014   ----------------------------------------
 .byte   PATT
  .word Label_01018DCD
@  #07 @015   ----------------------------------------
 .byte   PATT
  .word Label_01018DCD
@  #07 @016   ----------------------------------------
 .byte   PATT
  .word Label_01018DE2
@  #07 @017   ----------------------------------------
 .byte   PATT
  .word Label_01018DE2
@  #07 @018   ----------------------------------------
 .byte   PATT
  .word Label_01018DF7
@  #07 @019   ----------------------------------------
 .byte   PATT
  .word Label_01018DF7
@  #07 @020   ----------------------------------------
 .byte   PATT
  .word Label_01018DBD
@  #07 @021   ----------------------------------------
 .byte   PATT
  .word Label_01018DBD
@  #07 @022   ----------------------------------------
 .byte   PATT
  .word Label_01018DCD
@  #07 @023   ----------------------------------------
 .byte   PATT
  .word Label_01018DCD
@  #07 @024   ----------------------------------------
 .byte   PATT
  .word Label_01018DE2
@  #07 @025   ----------------------------------------
 .byte   PATT
  .word Label_01018DE2
@  #07 @026   ----------------------------------------
 .byte   PATT
  .word Label_01018DF7
@  #07 @027   ----------------------------------------
 .byte   PATT
  .word Label_01018DF7
@  #07 @028   ----------------------------------------
 .byte   PATT
  .word Label_01018DBD
@  #07 @029   ----------------------------------------
 .byte   PATT
  .word Label_01018DBD
@  #07 @030   ----------------------------------------
 .byte   PATT
  .word Label_01018DCD
@  #07 @031   ----------------------------------------
 .byte   PATT
  .word Label_01018DCD
@  #07 @032   ----------------------------------------
 .byte   PATT
  .word Label_01018DE2
@  #07 @033   ----------------------------------------
 .byte   PATT
  .word Label_01018DE2
@  #07 @034   ----------------------------------------
 .byte   PATT
  .word Label_01018DF7
@  #07 @035   ----------------------------------------
 .byte   PATT
  .word Label_01018DF7
@  #07 @036   ----------------------------------------
 .byte   PATT
  .word Label_01018DBD
@  #07 @037   ----------------------------------------
 .byte   PATT
  .word Label_01018DBD
@  #07 @038   ----------------------------------------
 .byte   PATT
  .word Label_01018DCD
@  #07 @039   ----------------------------------------
 .byte   PATT
  .word Label_01018DCD
@  #07 @040   ----------------------------------------
 .byte   PATT
  .word Label_01018DE2
@  #07 @041   ----------------------------------------
 .byte   PATT
  .word Label_01018DE2
@  #07 @042   ----------------------------------------
 .byte   PATT
  .word Label_01018DF7
@  #07 @043   ----------------------------------------
 .byte   PATT
  .word Label_01018DF7
@  #07 @044   ----------------------------------------
 .byte   W14
Label_01018EAD:
 .byte   W01
 .byte   N11 ,En2 ,v104
 .byte   W24
 .byte   Gn2
 .byte   W24
 .byte   Dn3
 .byte   W24
 .byte   En3
 .byte   W24
@  #07 @045   ----------------------------------------
 .byte   Dn3
 .byte   W24
 .byte   Gn2
 .byte   W09
@  #07 @046   ----------------------------------------
 .byte   PATT
  .word Label_01018DBD
@  #07 @047   ----------------------------------------
 .byte   PATT
  .word Label_01018DCD
@  #07 @048   ----------------------------------------
 .byte   PATT
  .word Label_01018DCD
@  #07 @049   ----------------------------------------
 .byte   PATT
  .word Label_01018DE2
@  #07 @050   ----------------------------------------
 .byte   PATT
  .word Label_01018DE2
@  #07 @051   ----------------------------------------
 .byte   PATT
  .word Label_01018DF7
@  #07 @052   ----------------------------------------
 .byte   PATT
  .word Label_01018DF7
@  #07 @053   ----------------------------------------
 .byte   PATT
  .word Label_01018DBD
@  #07 @054   ----------------------------------------
 .byte   PATT
  .word Label_01018DBD
@  #07 @055   ----------------------------------------
 .byte   PATT
  .word Label_01018DCD
@  #07 @056   ----------------------------------------
 .byte   PATT
  .word Label_01018DCD
@  #07 @057   ----------------------------------------
 .byte   PATT
  .word Label_01018DE2
@  #07 @058   ----------------------------------------
 .byte   PATT
  .word Label_01018DE2
@  #07 @059   ----------------------------------------
 .byte   PATT
  .word Label_01018DF7
@  #07 @060   ----------------------------------------
 .byte   PATT
  .word Label_01018DF7
@  #07 @061   ----------------------------------------
 .byte   PATT
  .word Label_01018DBD
@  #07 @062   ----------------------------------------
 .byte   PATT
  .word Label_01018DBD
@  #07 @063   ----------------------------------------
 .byte   PATT
  .word Label_01018DCD
@  #07 @064   ----------------------------------------
 .byte   PATT
  .word Label_01018DCD
@  #07 @065   ----------------------------------------
 .byte   PATT
  .word Label_01018DE2
@  #07 @066   ----------------------------------------
 .byte   PATT
  .word Label_01018DE2
@  #07 @067   ----------------------------------------
 .byte   PATT
  .word Label_01018DF7
@  #07 @068   ----------------------------------------
 .byte   PATT
  .word Label_01018DF7
@  #07 @069   ----------------------------------------
 .byte   W14
 .byte   GOTO
  .word Label_01018EAD
 .byte   FINE

@******************************************************@
	.align	2

GameOver:
	.byte	7	@ NumTrks
	.byte	0	@ NumBlks
	.byte	GameOver_pri	@ Priority
	.byte	GameOver_rev	@ Reverb.
    
	.word	GameOver_grp
    
	.word	GameOver_001
	.word	GameOver_002
	.word	GameOver_003
	.word	GameOver_004
	.word	GameOver_005
	.word	GameOver_006
	.word	GameOver_007

	.end
