	.include "MPlayDef.s"

	.equ	PirateMan_grp, voicegroup000
	.equ	PirateMan_pri, 0
	.equ	PirateMan_rev, 0
	.equ	PirateMan_mvl, 127
	.equ	PirateMan_key, 0
	.equ	PirateMan_tbs, 1
	.equ	PirateMan_exg, 0
	.equ	PirateMan_cmp, 1

	.section .rodata
	.global	PirateMan
	.align	2


@**************** Track 1 (Midi-Chn.0) ****************@

PirateMan_001:
@  #01 @000   ----------------------------------------
 .byte   KEYSH , PirateMan_key+0
 .byte   TEMPO , 140*PirateMan_tbs/2
 .byte   VOICE , 41
 .byte   VOL , 45*PirateMan_mvl/mxv
 .byte   W48
Label_010042D9:
 .byte   W96
@  #01 @001   ----------------------------------------
 .byte   W96
@  #01 @002   ----------------------------------------
 .byte   W96
@  #01 @003   ----------------------------------------
Label_010042DC:
 .byte   W72
 .byte   N12 ,Ds4 ,v100
 .byte   W12
 .byte   Fn4
 .byte   W12
 .byte   PEND 
@  #01 @004   ----------------------------------------
Label_010042E4:
 .byte   N36 ,Gn4 ,v100
 .byte   W36
 .byte   N12 ,Cn4
 .byte   W12
 .byte   TIE
 .byte   W48
 .byte   PEND 
@  #01 @005   ----------------------------------------
 .byte   W72
 .byte   EOT
 .byte   N12 ,Dn4
 .byte   W12
 .byte   Ds4
 .byte   W12
@  #01 @006   ----------------------------------------
Label_010042F5:
 .byte   N36 ,Fn4 ,v100
 .byte   W36
 .byte   N12 ,As3
 .byte   W12
 .byte   TIE
 .byte   W48
 .byte   PEND 
@  #01 @007   ----------------------------------------
 .byte   W72
 .byte   EOT
 .byte   N12 ,Dn4
 .byte   W12
 .byte   Ds4
 .byte   W12
@  #01 @008   ----------------------------------------
 .byte   PATT
  .word Label_010042F5
@  #01 @009   ----------------------------------------
 .byte   W60
 .byte   N36 ,Fn4 ,v100
 .byte   W12
 .byte   EOT
 .byte   As3
 .byte   W24
@  #01 @010   ----------------------------------------
 .byte   N96 ,Fn4
 .byte   W96
@  #01 @011   ----------------------------------------
Label_01004316:
 .byte   N72 ,Ds4 ,v100
 .byte   W72
 .byte   N12
 .byte   W12
 .byte   Fn4
 .byte   W12
 .byte   PEND 
@  #01 @012   ----------------------------------------
 .byte   PATT
  .word Label_010042E4
@  #01 @013   ----------------------------------------
 .byte   W72
 .byte   EOT
 .byte   Cn4
 .byte   N12 ,Dn4 ,v100
 .byte   W12
 .byte   Ds4
 .byte   W12
@  #01 @014   ----------------------------------------
 .byte   PATT
  .word Label_010042F5
@  #01 @015   ----------------------------------------
 .byte   W72
 .byte   EOT
 .byte   As3
 .byte   N12 ,Dn4 ,v100
 .byte   W12
 .byte   Ds4
 .byte   W12
@  #01 @016   ----------------------------------------
Label_0100433B:
 .byte   N36 ,Fn4 ,v100
 .byte   W36
 .byte   N12 ,As3
 .byte   W12
 .byte   N96
 .byte   W48
 .byte   PEND 
@  #01 @017   ----------------------------------------
 .byte   W48
 .byte   N48 ,Dn4
 .byte   W48
@  #01 @018   ----------------------------------------
 .byte   TIE ,Cn4
 .byte   W96
@  #01 @019   ----------------------------------------
Label_0100434C:
 .byte   W92
 .byte   W03
 .byte   VOICE , 41
 .byte   W01
 .byte   PEND 
@  #01 @020   ----------------------------------------
 .byte   EOT
 .byte   Cn4
Label_01004354:
 .byte   N24 ,Cn4 ,v100
 .byte   W24
 .byte   N12 ,Dn4
 .byte   W12
 .byte   N72 ,Ds4
 .byte   W60
 .byte   PEND 
@  #01 @021   ----------------------------------------
Label_0100435F:
 .byte   W12
 .byte   N24 ,Cn4 ,v100
 .byte   W24
 .byte   N12 ,Dn4
 .byte   W12
 .byte   N18 ,Ds4
 .byte   W18
 .byte   Dn4
 .byte   W18
 .byte   N36 ,Cn4
 .byte   W12
 .byte   PEND 
@  #01 @022   ----------------------------------------
Label_01004370:
 .byte   W24
 .byte   N12 ,Dn4 ,v100
 .byte   W12
 .byte   TIE ,As3
 .byte   W60
 .byte   PEND 
@  #01 @023   ----------------------------------------
 .byte   W48
 .byte   EOT
 .byte   W12
 .byte   N24 ,Gn3
 .byte   W24
 .byte   N12 ,As3
 .byte   W12
@  #01 @024   ----------------------------------------
Label_01004382:
 .byte   N24 ,As3 ,v100
 .byte   W24
 .byte   N12 ,Gs3
 .byte   W12
 .byte   N72
 .byte   W60
 .byte   PEND 
@  #01 @025   ----------------------------------------
Label_0100438C:
 .byte   W12
 .byte   N24 ,Cn4 ,v100
 .byte   W24
 .byte   N12 ,Dn4
 .byte   W12
 .byte   N18 ,Ds4
 .byte   W18
 .byte   Dn4
 .byte   W18
 .byte   N12 ,Cn4
 .byte   W12
 .byte   PEND 
@  #01 @026   ----------------------------------------
Label_0100439D:
 .byte   N36 ,Cn4 ,v100
 .byte   W36
 .byte   N60 ,As3
 .byte   W60
 .byte   PEND 
@  #01 @027   ----------------------------------------
Label_010043A5:
 .byte   N24 ,Dn4 ,v100
 .byte   W24
 .byte   Fn4
 .byte   W24
 .byte   Ds4
 .byte   W24
 .byte   Dn4
 .byte   W24
 .byte   PEND 
@  #01 @028   ----------------------------------------
 .byte   PATT
  .word Label_01004354
@  #01 @029   ----------------------------------------
 .byte   PATT
  .word Label_0100435F
@  #01 @030   ----------------------------------------
 .byte   PATT
  .word Label_01004370
@  #01 @031   ----------------------------------------
 .byte   W60
 .byte   EOT
 .byte   As3
 .byte   N12 ,Gn3 ,v100
 .byte   W12
 .byte   Gs3
 .byte   W12
 .byte   As3
 .byte   W12
@  #01 @032   ----------------------------------------
 .byte   PATT
  .word Label_01004382
@  #01 @033   ----------------------------------------
 .byte   PATT
  .word Label_0100438C
@  #01 @034   ----------------------------------------
 .byte   N84 ,Dn4 ,v100
 .byte   W96
@  #01 @035   ----------------------------------------
Label_010043D8:
 .byte   N48 ,Gs4 ,v100
 .byte   W48
 .byte   Gn4
 .byte   W48
 .byte   PEND 
@  #01 @036   ----------------------------------------
 .byte   GOTO
  .word Label_010042D9
@  #01 @037   ----------------------------------------
 .byte   W10
 .byte   VOICE , 41
 .byte   W84
 .byte   W02
@  #01 @038   ----------------------------------------
 .byte   W96
@  #01 @039   ----------------------------------------
 .byte   W96
@  #01 @040   ----------------------------------------
 .byte   PATT
  .word Label_010042DC
@  #01 @041   ----------------------------------------
 .byte   PATT
  .word Label_010042E4
@  #01 @042   ----------------------------------------
 .byte   W72
 .byte   EOT
 .byte   Cn4
 .byte   N12 ,Dn4 ,v100
 .byte   W12
 .byte   Ds4
 .byte   W12
@  #01 @043   ----------------------------------------
 .byte   PATT
  .word Label_010042F5
@  #01 @044   ----------------------------------------
 .byte   W72
 .byte   EOT
 .byte   As3
 .byte   N12 ,Dn4 ,v100
 .byte   W12
 .byte   Ds4
 .byte   W12
@  #01 @045   ----------------------------------------
 .byte   PATT
  .word Label_010042F5
@  #01 @046   ----------------------------------------
 .byte   W60
 .byte   N36 ,Fn4 ,v100
 .byte   W12
 .byte   EOT
 .byte   As3
 .byte   W24
@  #01 @047   ----------------------------------------
 .byte   N96 ,Fn4
 .byte   W96
@  #01 @048   ----------------------------------------
 .byte   PATT
  .word Label_01004316
@  #01 @049   ----------------------------------------
 .byte   PATT
  .word Label_010042E4
@  #01 @050   ----------------------------------------
 .byte   W72
 .byte   EOT
 .byte   Cn4
 .byte   N12 ,Dn4 ,v100
 .byte   W12
 .byte   Ds4
 .byte   W12
@  #01 @051   ----------------------------------------
 .byte   PATT
  .word Label_010042F5
@  #01 @052   ----------------------------------------
 .byte   W72
 .byte   EOT
 .byte   As3
 .byte   N12 ,Dn4 ,v100
 .byte   W12
 .byte   Ds4
 .byte   W12
@  #01 @053   ----------------------------------------
 .byte   PATT
  .word Label_0100433B
@  #01 @054   ----------------------------------------
 .byte   W48
 .byte   N48 ,Dn4 ,v100
 .byte   W48
@  #01 @055   ----------------------------------------
 .byte   TIE ,Cn4
 .byte   W96
@  #01 @056   ----------------------------------------
 .byte   PATT
  .word Label_0100434C
@  #01 @057   ----------------------------------------
 .byte   EOT
 .byte   Cn4
@  #01 @058   ----------------------------------------
 .byte   PATT
  .word Label_01004354
@  #01 @059   ----------------------------------------
 .byte   PATT
  .word Label_0100435F
@  #01 @060   ----------------------------------------
 .byte   PATT
  .word Label_01004370
@  #01 @061   ----------------------------------------
 .byte   W48
 .byte   EOT
 .byte   As3
 .byte   W12
 .byte   N24 ,Gn3 ,v100
 .byte   W24
 .byte   N12 ,As3
 .byte   W12
@  #01 @062   ----------------------------------------
 .byte   PATT
  .word Label_01004382
@  #01 @063   ----------------------------------------
 .byte   PATT
  .word Label_0100438C
@  #01 @064   ----------------------------------------
 .byte   PATT
  .word Label_0100439D
@  #01 @065   ----------------------------------------
 .byte   PATT
  .word Label_010043A5
@  #01 @066   ----------------------------------------
 .byte   PATT
  .word Label_01004354
@  #01 @067   ----------------------------------------
 .byte   PATT
  .word Label_0100435F
@  #01 @068   ----------------------------------------
 .byte   PATT
  .word Label_01004370
@  #01 @069   ----------------------------------------
 .byte   W60
 .byte   EOT
 .byte   As3
 .byte   N12 ,Gn3 ,v100
 .byte   W12
 .byte   Gs3
 .byte   W12
 .byte   As3
 .byte   W12
@  #01 @070   ----------------------------------------
 .byte   PATT
  .word Label_01004382
@  #01 @071   ----------------------------------------
 .byte   PATT
  .word Label_0100438C
@  #01 @072   ----------------------------------------
 .byte   N84 ,Dn4 ,v100
 .byte   W96
@  #01 @073   ----------------------------------------
 .byte   PATT
  .word Label_010043D8
@  #01 @074   ----------------------------------------
 .byte   W10
 .byte   VOICE , 41
 .byte   FINE

@**************** Track 2 (Midi-Chn.1) ****************@

PirateMan_002:
@  #02 @000   ----------------------------------------
 .byte   KEYSH , PirateMan_key+0
 .byte   VOICE , 85
 .byte   VOL , 37*PirateMan_mvl/mxv
 .byte   PAN , c_v-64
 .byte   W48
Label_01285C01:
 .byte   W96
@  #02 @001   ----------------------------------------
 .byte   W96
@  #02 @002   ----------------------------------------
 .byte   W96
@  #02 @003   ----------------------------------------
 .byte   W96
@  #02 @004   ----------------------------------------
 .byte   W96
@  #02 @005   ----------------------------------------
 .byte   W96
@  #02 @006   ----------------------------------------
 .byte   W96
@  #02 @007   ----------------------------------------
 .byte   W96
@  #02 @008   ----------------------------------------
 .byte   W96
@  #02 @009   ----------------------------------------
 .byte   W96
@  #02 @010   ----------------------------------------
 .byte   W96
@  #02 @011   ----------------------------------------
 .byte   W96
@  #02 @012   ----------------------------------------
 .byte   W96
@  #02 @013   ----------------------------------------
 .byte   W96
@  #02 @014   ----------------------------------------
 .byte   W96
@  #02 @015   ----------------------------------------
 .byte   W96
@  #02 @016   ----------------------------------------
 .byte   W96
@  #02 @017   ----------------------------------------
 .byte   W96
@  #02 @018   ----------------------------------------
 .byte   W96
@  #02 @019   ----------------------------------------
 .byte   W96
@  #02 @020   ----------------------------------------
 .byte   N96 ,Gn4 ,v100
 .byte   W96
@  #02 @021   ----------------------------------------
 .byte   W96
@  #02 @022   ----------------------------------------
 .byte   Fn4
 .byte   W96
@  #02 @023   ----------------------------------------
 .byte   W96
@  #02 @024   ----------------------------------------
 .byte   Ds4
 .byte   W96
@  #02 @025   ----------------------------------------
 .byte   W96
@  #02 @026   ----------------------------------------
 .byte   Dn4
 .byte   W96
@  #02 @027   ----------------------------------------
 .byte   W48
 .byte   N48 ,Bn3
 .byte   W48
@  #02 @028   ----------------------------------------
 .byte   N96 ,Gn4
 .byte   W96
@  #02 @029   ----------------------------------------
 .byte   W96
@  #02 @030   ----------------------------------------
 .byte   Fn4
 .byte   W96
@  #02 @031   ----------------------------------------
 .byte   W96
@  #02 @032   ----------------------------------------
 .byte   Ds4
 .byte   W96
@  #02 @033   ----------------------------------------
 .byte   W96
@  #02 @034   ----------------------------------------
 .byte   Bn3
 .byte   W96
@  #02 @035   ----------------------------------------
 .byte   W48
 .byte   N48 ,Dn4
 .byte   W48
@  #02 @036   ----------------------------------------
 .byte   GOTO
  .word Label_01285C01
@  #02 @037   ----------------------------------------
 .byte   W96
@  #02 @038   ----------------------------------------
 .byte   W96
@  #02 @039   ----------------------------------------
 .byte   W96
@  #02 @040   ----------------------------------------
 .byte   W96
@  #02 @041   ----------------------------------------
 .byte   W96
@  #02 @042   ----------------------------------------
 .byte   W96
@  #02 @043   ----------------------------------------
 .byte   W96
@  #02 @044   ----------------------------------------
 .byte   W96
@  #02 @045   ----------------------------------------
 .byte   W96
@  #02 @046   ----------------------------------------
 .byte   W96
@  #02 @047   ----------------------------------------
 .byte   W96
@  #02 @048   ----------------------------------------
 .byte   W96
@  #02 @049   ----------------------------------------
 .byte   W96
@  #02 @050   ----------------------------------------
 .byte   W96
@  #02 @051   ----------------------------------------
 .byte   W96
@  #02 @052   ----------------------------------------
 .byte   W96
@  #02 @053   ----------------------------------------
 .byte   W96
@  #02 @054   ----------------------------------------
 .byte   W96
@  #02 @055   ----------------------------------------
 .byte   W96
@  #02 @056   ----------------------------------------
 .byte   W96
@  #02 @057   ----------------------------------------
 .byte   N96 ,Gn4 ,v100
 .byte   W96
@  #02 @058   ----------------------------------------
 .byte   W96
@  #02 @059   ----------------------------------------
 .byte   Fn4
 .byte   W96
@  #02 @060   ----------------------------------------
 .byte   W96
@  #02 @061   ----------------------------------------
 .byte   Ds4
 .byte   W96
@  #02 @062   ----------------------------------------
 .byte   W96
@  #02 @063   ----------------------------------------
 .byte   Dn4
 .byte   W96
@  #02 @064   ----------------------------------------
 .byte   W48
 .byte   N48 ,Bn3
 .byte   W48
@  #02 @065   ----------------------------------------
 .byte   N96 ,Gn4
 .byte   W96
@  #02 @066   ----------------------------------------
 .byte   W96
@  #02 @067   ----------------------------------------
 .byte   Fn4
 .byte   W96
@  #02 @068   ----------------------------------------
 .byte   W96
@  #02 @069   ----------------------------------------
 .byte   Ds4
 .byte   W96
@  #02 @070   ----------------------------------------
 .byte   W96
@  #02 @071   ----------------------------------------
 .byte   Bn3
 .byte   W96
@  #02 @072   ----------------------------------------
 .byte   W48
 .byte   N48 ,Dn4
 .byte   W48
@  #02 @073   ----------------------------------------
 .byte   W10
 .byte   FINE

@**************** Track 3 (Midi-Chn.2) ****************@

PirateMan_003:
@  #03 @000   ----------------------------------------
 .byte   KEYSH , PirateMan_key+0
 .byte   VOICE , 85
 .byte   VOL , 37*PirateMan_mvl/mxv
 .byte   PAN , c_v+63
 .byte   W48
Label_0128593D:
 .byte   W96
@  #03 @001   ----------------------------------------
 .byte   W96
@  #03 @002   ----------------------------------------
 .byte   W96
@  #03 @003   ----------------------------------------
 .byte   W96
@  #03 @004   ----------------------------------------
 .byte   W96
@  #03 @005   ----------------------------------------
 .byte   W96
@  #03 @006   ----------------------------------------
 .byte   W96
@  #03 @007   ----------------------------------------
 .byte   W96
@  #03 @008   ----------------------------------------
 .byte   W96
@  #03 @009   ----------------------------------------
 .byte   W96
@  #03 @010   ----------------------------------------
 .byte   W96
@  #03 @011   ----------------------------------------
 .byte   W96
@  #03 @012   ----------------------------------------
 .byte   W96
@  #03 @013   ----------------------------------------
 .byte   W96
@  #03 @014   ----------------------------------------
 .byte   W96
@  #03 @015   ----------------------------------------
 .byte   W96
@  #03 @016   ----------------------------------------
 .byte   W96
@  #03 @017   ----------------------------------------
 .byte   W96
@  #03 @018   ----------------------------------------
 .byte   W96
@  #03 @019   ----------------------------------------
 .byte   W96
@  #03 @020   ----------------------------------------
 .byte   W96
@  #03 @021   ----------------------------------------
 .byte   N96 ,Ds4 ,v100
 .byte   W96
@  #03 @022   ----------------------------------------
 .byte   W96
@  #03 @023   ----------------------------------------
 .byte   Dn4
 .byte   W96
@  #03 @024   ----------------------------------------
 .byte   W96
@  #03 @025   ----------------------------------------
 .byte   Cn4
 .byte   W96
@  #03 @026   ----------------------------------------
 .byte   W96
@  #03 @027   ----------------------------------------
 .byte   N48
 .byte   W96
@  #03 @028   ----------------------------------------
 .byte   W96
@  #03 @029   ----------------------------------------
 .byte   N96 ,Ds4
 .byte   W96
@  #03 @030   ----------------------------------------
 .byte   W96
@  #03 @031   ----------------------------------------
 .byte   Dn4
 .byte   W96
@  #03 @032   ----------------------------------------
 .byte   W96
@  #03 @033   ----------------------------------------
 .byte   Cn4
 .byte   W96
@  #03 @034   ----------------------------------------
 .byte   W96
@  #03 @035   ----------------------------------------
 .byte   N48 ,Fn4
 .byte   W96
@  #03 @036   ----------------------------------------
 .byte   GOTO
  .word Label_0128593D
@  #03 @037   ----------------------------------------
 .byte   W96
@  #03 @038   ----------------------------------------
 .byte   W96
@  #03 @039   ----------------------------------------
 .byte   W96
@  #03 @040   ----------------------------------------
 .byte   W96
@  #03 @041   ----------------------------------------
 .byte   W96
@  #03 @042   ----------------------------------------
 .byte   W96
@  #03 @043   ----------------------------------------
 .byte   W96
@  #03 @044   ----------------------------------------
 .byte   W96
@  #03 @045   ----------------------------------------
 .byte   W96
@  #03 @046   ----------------------------------------
 .byte   W96
@  #03 @047   ----------------------------------------
 .byte   W96
@  #03 @048   ----------------------------------------
 .byte   W96
@  #03 @049   ----------------------------------------
 .byte   W96
@  #03 @050   ----------------------------------------
 .byte   W96
@  #03 @051   ----------------------------------------
 .byte   W96
@  #03 @052   ----------------------------------------
 .byte   W96
@  #03 @053   ----------------------------------------
 .byte   W96
@  #03 @054   ----------------------------------------
 .byte   W96
@  #03 @055   ----------------------------------------
 .byte   W96
@  #03 @056   ----------------------------------------
 .byte   W96
@  #03 @057   ----------------------------------------
 .byte   W96
@  #03 @058   ----------------------------------------
 .byte   N96 ,Ds4 ,v100
 .byte   W96
@  #03 @059   ----------------------------------------
 .byte   W96
@  #03 @060   ----------------------------------------
 .byte   Dn4
 .byte   W96
@  #03 @061   ----------------------------------------
 .byte   W96
@  #03 @062   ----------------------------------------
 .byte   Cn4
 .byte   W96
@  #03 @063   ----------------------------------------
 .byte   W96
@  #03 @064   ----------------------------------------
 .byte   N48
 .byte   W96
@  #03 @065   ----------------------------------------
 .byte   W96
@  #03 @066   ----------------------------------------
 .byte   N96 ,Ds4
 .byte   W96
@  #03 @067   ----------------------------------------
 .byte   W96
@  #03 @068   ----------------------------------------
 .byte   Dn4
 .byte   W96
@  #03 @069   ----------------------------------------
 .byte   W96
@  #03 @070   ----------------------------------------
 .byte   Cn4
 .byte   W96
@  #03 @071   ----------------------------------------
 .byte   W96
@  #03 @072   ----------------------------------------
 .byte   N48 ,Fn4
 .byte   W96
@  #03 @073   ----------------------------------------
 .byte   W10
 .byte   FINE

@**************** Track 4 (Midi-Chn.3) ****************@

PirateMan_004:
@  #04 @000   ----------------------------------------
 .byte   KEYSH , PirateMan_key+0
 .byte   VOICE , 18
 .byte   VOL , 45*PirateMan_mvl/mxv
 .byte   W48
Label_010044C7:
 .byte   N06 ,Cn1 ,v112
 .byte   W06
 .byte   Fn1
 .byte   W06
 .byte   Gn1
 .byte   W06
 .byte   Gs1
 .byte   W06
 .byte   Cn2
 .byte   W06
 .byte   Fn2
 .byte   W06
 .byte   Gn2
 .byte   W06
 .byte   As2
 .byte   W06
@  #04 @001   ----------------------------------------
 .byte   Cn3
 .byte   W06
 .byte   Fn3
 .byte   W06
 .byte   Gn3
 .byte   W06
 .byte   As3
 .byte   W06
 .byte   Cn4
 .byte   W06
 .byte   Fn4
 .byte   W06
 .byte   Gn4
 .byte   W06
 .byte   As4
 .byte   W06
 .byte   PEND 
Label_010044EA:
 .byte   N06 ,Cn5 ,v112
 .byte   W06
 .byte   As4
 .byte   W06
 .byte   Gn4
 .byte   W06
 .byte   Fn4
 .byte   W06
 .byte   Cn4
 .byte   W06
 .byte   As3
 .byte   W06
 .byte   Gn3
 .byte   W06
 .byte   Fn3
 .byte   W06
@  #04 @002   ----------------------------------------
 .byte   Cn3
 .byte   W06
 .byte   As2
 .byte   W06
 .byte   Gn2
 .byte   W06
 .byte   Fn2
 .byte   W06
 .byte   Cn2
 .byte   W06
 .byte   Gs1
 .byte   W06
 .byte   Gn1
 .byte   W06
 .byte   Fn1
 .byte   W06
 .byte   PEND 
@  #04 @003   ----------------------------------------
 .byte   PATT
  .word Label_010044C7
@  #04 @004   ----------------------------------------
 .byte   PATT
  .word Label_010044EA
@  #04 @005   ----------------------------------------
 .byte   PATT
  .word Label_010044C7
@  #04 @006   ----------------------------------------
 .byte   PATT
  .word Label_010044EA
@  #04 @007   ----------------------------------------
 .byte   PATT
  .word Label_010044C7
@  #04 @008   ----------------------------------------
 .byte   PATT
  .word Label_010044EA
@  #04 @009   ----------------------------------------
Label_0100452B:
 .byte   N06 ,Gs0 ,v112
 .byte   W06
 .byte   Dn1
 .byte   W06
 .byte   Fn1
 .byte   W06
 .byte   Gn1
 .byte   W06
 .byte   Gs1
 .byte   W06
 .byte   Dn2
 .byte   W06
 .byte   Fn2
 .byte   W06
 .byte   Gn2
 .byte   W06
 .byte   As2
 .byte   W06
 .byte   Dn3
 .byte   W06
 .byte   Fn3
 .byte   W06
 .byte   Gn3
 .byte   W06
 .byte   As3
 .byte   W06
 .byte   Dn4
 .byte   W06
 .byte   Fn4
 .byte   W06
 .byte   Gn4
 .byte   W06
 .byte   PEND 
@  #04 @010   ----------------------------------------
Label_0100454E:
 .byte   N06 ,As4 ,v112
 .byte   W06
 .byte   Gn4
 .byte   W06
 .byte   Fn4
 .byte   W06
 .byte   Dn4
 .byte   W06
 .byte   As3
 .byte   W06
 .byte   Gn3
 .byte   W06
 .byte   Fn3
 .byte   W06
 .byte   Dn3
 .byte   W06
 .byte   As2
 .byte   W06
 .byte   Gn2
 .byte   W06
 .byte   Fn2
 .byte   W06
 .byte   Dn2
 .byte   W06
 .byte   Gs1
 .byte   W06
 .byte   Gn1
 .byte   W06
 .byte   Fn1
 .byte   W06
 .byte   Dn1
 .byte   W06
 .byte   PEND 
@  #04 @011   ----------------------------------------
 .byte   PATT
  .word Label_010044C7
@  #04 @012   ----------------------------------------
 .byte   PATT
  .word Label_010044EA
@  #04 @013   ----------------------------------------
 .byte   PATT
  .word Label_010044C7
@  #04 @014   ----------------------------------------
 .byte   PATT
  .word Label_010044EA
@  #04 @015   ----------------------------------------
Label_01004585:
 .byte   N06 ,Cn1 ,v112
 .byte   W06
 .byte   Fn1
 .byte   W06
 .byte   Gn1
 .byte   W06
 .byte   Gs1
 .byte   W06
 .byte   Cn2
 .byte   W06
 .byte   Fn2
 .byte   W06
 .byte   Gn2
 .byte   W06
 .byte   As2
 .byte   W06
 .byte   Cn3
 .byte   W06
 .byte   Fn3
 .byte   W06
 .byte   Gn3
 .byte   W06
 .byte   N05 ,As3
 .byte   W06
 .byte   Cn4
 .byte   W06
 .byte   Fn4
 .byte   W06
 .byte   N06 ,Gn4
 .byte   W06
 .byte   As4
 .byte   W06
 .byte   PEND 
@  #04 @016   ----------------------------------------
 .byte   PATT
  .word Label_010044EA
@  #04 @017   ----------------------------------------
 .byte   PATT
  .word Label_0100452B
@  #04 @018   ----------------------------------------
 .byte   PATT
  .word Label_0100454E
@  #04 @019   ----------------------------------------
 .byte   PATT
  .word Label_010044C7
@  #04 @020   ----------------------------------------
 .byte   PATT
  .word Label_010044EA
@  #04 @021   ----------------------------------------
 .byte   W96
@  #04 @022   ----------------------------------------
 .byte   W96
@  #04 @023   ----------------------------------------
 .byte   W96
@  #04 @024   ----------------------------------------
 .byte   W96
@  #04 @025   ----------------------------------------
 .byte   W96
@  #04 @026   ----------------------------------------
 .byte   W96
@  #04 @027   ----------------------------------------
 .byte   W96
@  #04 @028   ----------------------------------------
 .byte   W96
@  #04 @029   ----------------------------------------
 .byte   W96
@  #04 @030   ----------------------------------------
 .byte   W96
@  #04 @031   ----------------------------------------
 .byte   W96
@  #04 @032   ----------------------------------------
 .byte   W96
@  #04 @033   ----------------------------------------
 .byte   W96
@  #04 @034   ----------------------------------------
 .byte   W96
@  #04 @035   ----------------------------------------
 .byte   W96
@  #04 @036   ----------------------------------------
 .byte   W96
@  #04 @037   ----------------------------------------
 .byte   GOTO
  .word Label_010044C7
@  #04 @038   ----------------------------------------
 .byte   PATT
  .word Label_010044C7
@  #04 @039   ----------------------------------------
 .byte   PATT
  .word Label_010044EA
@  #04 @040   ----------------------------------------
 .byte   PATT
  .word Label_010044C7
@  #04 @041   ----------------------------------------
 .byte   PATT
  .word Label_010044EA
@  #04 @042   ----------------------------------------
 .byte   PATT
  .word Label_010044C7
@  #04 @043   ----------------------------------------
 .byte   PATT
  .word Label_010044EA
@  #04 @044   ----------------------------------------
 .byte   PATT
  .word Label_010044C7
@  #04 @045   ----------------------------------------
 .byte   PATT
  .word Label_010044EA
@  #04 @046   ----------------------------------------
 .byte   PATT
  .word Label_0100452B
@  #04 @047   ----------------------------------------
 .byte   PATT
  .word Label_0100454E
@  #04 @048   ----------------------------------------
 .byte   PATT
  .word Label_010044C7
@  #04 @049   ----------------------------------------
 .byte   PATT
  .word Label_010044EA
@  #04 @050   ----------------------------------------
 .byte   PATT
  .word Label_010044C7
@  #04 @051   ----------------------------------------
 .byte   PATT
  .word Label_010044EA
@  #04 @052   ----------------------------------------
 .byte   PATT
  .word Label_01004585
@  #04 @053   ----------------------------------------
 .byte   PATT
  .word Label_010044EA
@  #04 @054   ----------------------------------------
 .byte   PATT
  .word Label_0100452B
@  #04 @055   ----------------------------------------
 .byte   PATT
  .word Label_0100454E
@  #04 @056   ----------------------------------------
 .byte   PATT
  .word Label_010044C7
@  #04 @057   ----------------------------------------
 .byte   PATT
  .word Label_010044EA
@  #04 @058   ----------------------------------------
 .byte   W96
@  #04 @059   ----------------------------------------
 .byte   W96
@  #04 @060   ----------------------------------------
 .byte   W96
@  #04 @061   ----------------------------------------
 .byte   W96
@  #04 @062   ----------------------------------------
 .byte   W96
@  #04 @063   ----------------------------------------
 .byte   W96
@  #04 @064   ----------------------------------------
 .byte   W96
@  #04 @065   ----------------------------------------
 .byte   W96
@  #04 @066   ----------------------------------------
 .byte   W96
@  #04 @067   ----------------------------------------
 .byte   W96
@  #04 @068   ----------------------------------------
 .byte   W96
@  #04 @069   ----------------------------------------
 .byte   W96
@  #04 @070   ----------------------------------------
 .byte   W96
@  #04 @071   ----------------------------------------
 .byte   W96
@  #04 @072   ----------------------------------------
 .byte   W96
@  #04 @073   ----------------------------------------
 .byte   W96
@  #04 @074   ----------------------------------------
 .byte   W10
 .byte   FINE

@**************** Track 5 (Midi-Chn.4) ****************@

PirateMan_005:
@  #05 @000   ----------------------------------------
 .byte   KEYSH , PirateMan_key+0
 .byte   VOICE , 34
 .byte   VOL , 35*PirateMan_mvl/mxv
 .byte   W48
Label_01004667:
 .byte   N12 ,Gs0 ,v100
 .byte   W12
 .byte   N12
 .byte   W12
 .byte   N12
 .byte   W12
 .byte   N12
 .byte   W12
@  #05 @001   ----------------------------------------
 .byte   N12
 .byte   W12
 .byte   N12
 .byte   W12
 .byte   N12
 .byte   W12
 .byte   N12
 .byte   W12
 .byte   PEND 
@  #05 @002   ----------------------------------------
 .byte   PATT
  .word Label_01004667
@  #05 @003   ----------------------------------------
Label_0100467F:
 .byte   N12 ,As0 ,v100
 .byte   W12
 .byte   N12
 .byte   W12
 .byte   N12
 .byte   W12
 .byte   N12
 .byte   W12
 .byte   N12
 .byte   W12
 .byte   N12
 .byte   W12
 .byte   N12
 .byte   W12
 .byte   N12
 .byte   W12
 .byte   PEND 
@  #05 @004   ----------------------------------------
 .byte   PATT
  .word Label_0100467F
@  #05 @005   ----------------------------------------
 .byte   PATT
  .word Label_01004667
@  #05 @006   ----------------------------------------
 .byte   PATT
  .word Label_01004667
@  #05 @007   ----------------------------------------
 .byte   PATT
  .word Label_0100467F
@  #05 @008   ----------------------------------------
 .byte   PATT
  .word Label_0100467F
@  #05 @009   ----------------------------------------
Label_010046AB:
 .byte   N12 ,Gn0 ,v100
 .byte   W12
 .byte   N12
 .byte   W12
 .byte   N12
 .byte   W12
 .byte   N12
 .byte   W12
 .byte   N12
 .byte   W12
 .byte   N12
 .byte   W12
 .byte   N12
 .byte   W12
 .byte   N12
 .byte   W12
 .byte   PEND 
@  #05 @010   ----------------------------------------
 .byte   PATT
  .word Label_010046AB
@  #05 @011   ----------------------------------------
Label_010046C3:
 .byte   N12 ,Cn1 ,v100
 .byte   W12
 .byte   N12
 .byte   W12
 .byte   N12
 .byte   W12
 .byte   N12
 .byte   W12
 .byte   N12
 .byte   W12
 .byte   N12
 .byte   W12
 .byte   N12
 .byte   W12
 .byte   N12
 .byte   W12
 .byte   PEND 
@  #05 @012   ----------------------------------------
Label_010046D6:
 .byte   N12 ,Cn1 ,v100
 .byte   W12
 .byte   N12
 .byte   W12
 .byte   N12
 .byte   W12
 .byte   N12
 .byte   W12
 .byte   N12
 .byte   W12
 .byte   N12
 .byte   W12
 .byte   As0
 .byte   W12
 .byte   N12
 .byte   W12
 .byte   PEND 
@  #05 @013   ----------------------------------------
 .byte   PATT
  .word Label_01004667
@  #05 @014   ----------------------------------------
 .byte   PATT
  .word Label_01004667
@  #05 @015   ----------------------------------------
 .byte   PATT
  .word Label_0100467F
@  #05 @016   ----------------------------------------
 .byte   PATT
  .word Label_0100467F
@  #05 @017   ----------------------------------------
 .byte   PATT
  .word Label_01004667
@  #05 @018   ----------------------------------------
 .byte   PATT
  .word Label_01004667
@  #05 @019   ----------------------------------------
 .byte   PATT
  .word Label_0100467F
@  #05 @020   ----------------------------------------
 .byte   PATT
  .word Label_0100467F
@  #05 @021   ----------------------------------------
 .byte   PATT
  .word Label_01004667
@  #05 @022   ----------------------------------------
 .byte   PATT
  .word Label_01004667
@  #05 @023   ----------------------------------------
 .byte   PATT
  .word Label_010046AB
@  #05 @024   ----------------------------------------
 .byte   PATT
  .word Label_010046AB
@  #05 @025   ----------------------------------------
Label_01004725:
 .byte   N12 ,Fn0 ,v100
 .byte   W12
 .byte   N12
 .byte   W12
 .byte   N12
 .byte   W12
 .byte   N12
 .byte   W12
 .byte   N12
 .byte   W12
 .byte   N12
 .byte   W12
 .byte   N12
 .byte   W12
 .byte   N12
 .byte   W12
 .byte   PEND 
@  #05 @026   ----------------------------------------
 .byte   PATT
  .word Label_0100467F
@  #05 @027   ----------------------------------------
 .byte   PATT
  .word Label_0100467F
@  #05 @028   ----------------------------------------
Label_01004742:
 .byte   N12 ,Cs0 ,v100
 .byte   W12
 .byte   N12
 .byte   W12
 .byte   N12
 .byte   W12
 .byte   N12
 .byte   W12
 .byte   Gn0
 .byte   W12
 .byte   N12
 .byte   W12
 .byte   N12
 .byte   W12
 .byte   N12
 .byte   W12
 .byte   PEND 
@  #05 @029   ----------------------------------------
 .byte   PATT
  .word Label_01004667
@  #05 @030   ----------------------------------------
 .byte   PATT
  .word Label_01004667
@  #05 @031   ----------------------------------------
 .byte   PATT
  .word Label_010046AB
@  #05 @032   ----------------------------------------
 .byte   PATT
  .word Label_010046AB
@  #05 @033   ----------------------------------------
 .byte   PATT
  .word Label_01004725
@  #05 @034   ----------------------------------------
Label_0100476E:
 .byte   N12 ,Cs1 ,v100
 .byte   W12
 .byte   N12
 .byte   W12
 .byte   N12
 .byte   W12
 .byte   N12
 .byte   W12
 .byte   N12
 .byte   W12
 .byte   N12
 .byte   W12
 .byte   N12
 .byte   W12
 .byte   N12
 .byte   W12
 .byte   PEND 
@  #05 @035   ----------------------------------------
Label_01004781:
 .byte   N12 ,Gn1 ,v100
 .byte   W12
 .byte   N12
 .byte   W12
 .byte   N12
 .byte   W12
 .byte   N12
 .byte   W12
 .byte   N12
 .byte   W12
 .byte   N12
 .byte   W12
 .byte   N12
 .byte   W12
 .byte   N12
 .byte   W12
 .byte   PEND 
@  #05 @036   ----------------------------------------
 .byte   PATT
  .word Label_01004781
@  #05 @037   ----------------------------------------
 .byte   GOTO
  .word Label_01004667
@  #05 @038   ----------------------------------------
 .byte   PATT
  .word Label_01004667
@  #05 @039   ----------------------------------------
 .byte   PATT
  .word Label_01004667
@  #05 @040   ----------------------------------------
 .byte   PATT
  .word Label_0100467F
@  #05 @041   ----------------------------------------
 .byte   PATT
  .word Label_0100467F
@  #05 @042   ----------------------------------------
 .byte   PATT
  .word Label_01004667
@  #05 @043   ----------------------------------------
 .byte   PATT
  .word Label_01004667
@  #05 @044   ----------------------------------------
 .byte   PATT
  .word Label_0100467F
@  #05 @045   ----------------------------------------
 .byte   PATT
  .word Label_0100467F
@  #05 @046   ----------------------------------------
 .byte   PATT
  .word Label_010046AB
@  #05 @047   ----------------------------------------
 .byte   PATT
  .word Label_010046AB
@  #05 @048   ----------------------------------------
 .byte   PATT
  .word Label_010046C3
@  #05 @049   ----------------------------------------
 .byte   PATT
  .word Label_010046D6
@  #05 @050   ----------------------------------------
 .byte   PATT
  .word Label_01004667
@  #05 @051   ----------------------------------------
 .byte   PATT
  .word Label_01004667
@  #05 @052   ----------------------------------------
 .byte   PATT
  .word Label_0100467F
@  #05 @053   ----------------------------------------
 .byte   PATT
  .word Label_0100467F
@  #05 @054   ----------------------------------------
 .byte   PATT
  .word Label_01004667
@  #05 @055   ----------------------------------------
 .byte   PATT
  .word Label_01004667
@  #05 @056   ----------------------------------------
 .byte   PATT
  .word Label_0100467F
@  #05 @057   ----------------------------------------
 .byte   PATT
  .word Label_0100467F
@  #05 @058   ----------------------------------------
 .byte   PATT
  .word Label_01004667
@  #05 @059   ----------------------------------------
 .byte   PATT
  .word Label_01004667
@  #05 @060   ----------------------------------------
 .byte   PATT
  .word Label_010046AB
@  #05 @061   ----------------------------------------
 .byte   PATT
  .word Label_010046AB
@  #05 @062   ----------------------------------------
 .byte   PATT
  .word Label_01004725
@  #05 @063   ----------------------------------------
 .byte   PATT
  .word Label_0100467F
@  #05 @064   ----------------------------------------
 .byte   PATT
  .word Label_0100467F
@  #05 @065   ----------------------------------------
 .byte   PATT
  .word Label_01004742
@  #05 @066   ----------------------------------------
 .byte   PATT
  .word Label_01004667
@  #05 @067   ----------------------------------------
 .byte   PATT
  .word Label_01004667
@  #05 @068   ----------------------------------------
 .byte   PATT
  .word Label_010046AB
@  #05 @069   ----------------------------------------
 .byte   PATT
  .word Label_010046AB
@  #05 @070   ----------------------------------------
 .byte   PATT
  .word Label_01004725
@  #05 @071   ----------------------------------------
 .byte   PATT
  .word Label_0100476E
@  #05 @072   ----------------------------------------
 .byte   PATT
  .word Label_01004781
@  #05 @073   ----------------------------------------
 .byte   PATT
  .word Label_01004781
@  #05 @074   ----------------------------------------
 .byte   W10
 .byte   FINE

@**************** Track 6 (Midi-Chn.5) ****************@

PirateMan_006:
@  #06 @000   ----------------------------------------
 .byte   KEYSH , PirateMan_key+0
 .byte   VOICE , 4
 .byte   VOL , 39*PirateMan_mvl/mxv
 .byte   W48
Label_0100486F:
 .byte   W96
@  #06 @001   ----------------------------------------
 .byte   W96
@  #06 @002   ----------------------------------------
 .byte   W96
@  #06 @003   ----------------------------------------
Label_01004872:
 .byte   W84
 .byte   N04 ,Gn3 ,v100
 .byte   W04
 .byte   Ds3
 .byte   W04
 .byte   Cn3
 .byte   W04
 .byte   PEND 
@  #06 @004   ----------------------------------------
 .byte   N96 ,Gn2
 .byte   N96 ,Ds3
 .byte   W96
@  #06 @005   ----------------------------------------
Label_01004881:
 .byte   N60 ,Cn3 ,v100
 .byte   N60 ,Ds3
 .byte   W60
 .byte   N36
 .byte   N36 ,Gn3
 .byte   W36
 .byte   PEND 
@  #06 @006   ----------------------------------------
 .byte   N96 ,Dn3
 .byte   N96 ,Fn3
 .byte   W96
@  #06 @007   ----------------------------------------
Label_01004891:
 .byte   N60 ,As2 ,v100
 .byte   N60 ,Dn3
 .byte   W60
 .byte   N36
 .byte   N36 ,Fn3
 .byte   W36
 .byte   PEND 
@  #06 @008   ----------------------------------------
 .byte   N96 ,Dn3
 .byte   N96 ,Fn3
 .byte   W96
@  #06 @009   ----------------------------------------
 .byte   PATT
  .word Label_01004891
@  #06 @010   ----------------------------------------
Label_010048A6:
 .byte   N60 ,Cn3 ,v100
 .byte   N60 ,Fn3
 .byte   W60
 .byte   N36 ,Cn3
 .byte   N36 ,Fn3
 .byte   W36
 .byte   PEND 
@  #06 @011   ----------------------------------------
Label_010048B2:
 .byte   N72 ,Cn3 ,v100
 .byte   N72 ,Ds3
 .byte   W72
 .byte   N36 ,Dn3
 .byte   N36 ,Fn3
 .byte   W24
 .byte   PEND 
@  #06 @012   ----------------------------------------
 .byte   N96 ,Ds3
 .byte   N96 ,Gn3
 .byte   W96
@  #06 @013   ----------------------------------------
 .byte   PATT
  .word Label_01004881
@  #06 @014   ----------------------------------------
 .byte   N96 ,Dn3 ,v100
 .byte   N96 ,Fn3
 .byte   W96
@  #06 @015   ----------------------------------------
 .byte   PATT
  .word Label_01004891
@  #06 @016   ----------------------------------------
 .byte   N96 ,Dn3 ,v100
 .byte   N96 ,Fn3
 .byte   W96
@  #06 @017   ----------------------------------------
 .byte   PATT
  .word Label_01004891
@  #06 @018   ----------------------------------------
 .byte   N96 ,Cn3 ,v100
 .byte   N96 ,Fn3
 .byte   W96
@  #06 @019   ----------------------------------------
Label_010048E4:
 .byte   N60 ,Cn3 ,v100
 .byte   N60 ,Ds3
 .byte   W60
 .byte   N36 ,As2
 .byte   N36 ,Dn3
 .byte   W36
 .byte   PEND 
@  #06 @020   ----------------------------------------
 .byte   N96 ,Cn3
 .byte   N96 ,Ds3
 .byte   W96
@  #06 @021   ----------------------------------------
Label_010048F5:
 .byte   N48 ,Gn2 ,v100
 .byte   N48 ,Cn3
 .byte   W48
 .byte   Gn2
 .byte   N48 ,Ds3
 .byte   W48
 .byte   PEND 
@  #06 @022   ----------------------------------------
 .byte   N96 ,Dn3
 .byte   N96 ,Fn3
 .byte   W96
@  #06 @023   ----------------------------------------
Label_01004905:
 .byte   N60 ,As2 ,v100
 .byte   N60 ,Fn3
 .byte   W60
 .byte   N24 ,Dn3
 .byte   N24 ,Fn3
 .byte   W36
 .byte   PEND 
@  #06 @024   ----------------------------------------
 .byte   N96 ,Gn2
 .byte   N96 ,Cn3
 .byte   W96
@  #06 @025   ----------------------------------------
Label_01004916:
 .byte   N48 ,As2 ,v100
 .byte   N48 ,Fn3
 .byte   W48
 .byte   Dn3
 .byte   N48 ,Fn3
 .byte   W48
 .byte   PEND 
@  #06 @026   ----------------------------------------
Label_01004921:
 .byte   N48 ,Cn3 ,v100
 .byte   N48 ,Gs3
 .byte   W48
 .byte   Ds3
 .byte   N48 ,Gs3
 .byte   W48
 .byte   PEND 
@  #06 @027   ----------------------------------------
Label_0100492C:
 .byte   N48 ,Cn3 ,v100
 .byte   N48 ,Fn3
 .byte   W48
 .byte   Dn3
 .byte   N48 ,Fn3
 .byte   W48
 .byte   PEND 
@  #06 @028   ----------------------------------------
Label_01004937:
 .byte   N60 ,Fn3 ,v100
 .byte   N60 ,Gs3
 .byte   W84
 .byte   N04 ,Cn3
 .byte   W04
 .byte   Gs3
 .byte   W04
 .byte   Fn3
 .byte   W04
 .byte   PEND 
@  #06 @029   ----------------------------------------
Label_01004945:
 .byte   N60 ,Cs3 ,v100
 .byte   N60 ,Fn3
 .byte   W60
 .byte   N36 ,Cs3
 .byte   N36 ,Fn3
 .byte   W36
 .byte   PEND 
@  #06 @030   ----------------------------------------
Label_01004951:
 .byte   N24 ,Cn3 ,v100
 .byte   N24 ,Gs3
 .byte   W36
 .byte   Dn3
 .byte   N24 ,Fn3
 .byte   W24
 .byte   N28 ,Dn3
 .byte   N28 ,Fn3
 .byte   W28
 .byte   N04 ,En3
 .byte   W04
 .byte   Ds3
 .byte   W04
 .byte   PEND 
@  #06 @031   ----------------------------------------
Label_01004966:
 .byte   N96 ,As2 ,v100
 .byte   N60 ,Dn3
 .byte   W60
 .byte   N36
 .byte   N36 ,Fn3
 .byte   W36
 .byte   PEND 
@  #06 @032   ----------------------------------------
Label_01004971:
 .byte   N36 ,Gn2 ,v100
 .byte   N36 ,Cn3
 .byte   W36
 .byte   N36
 .byte   N36 ,Ds3
 .byte   W36
 .byte   N24 ,Gs2
 .byte   N24 ,Cn3
 .byte   W24
 .byte   PEND 
@  #06 @033   ----------------------------------------
Label_01004981:
 .byte   N48 ,Cn3 ,v100
 .byte   N48 ,Fn3
 .byte   W48
 .byte   N18 ,Cn3
 .byte   N18 ,Fn3
 .byte   W18
 .byte   Gs2
 .byte   N18 ,Dn3
 .byte   W18
 .byte   N12 ,Cn3
 .byte   N12 ,Ds3
 .byte   W12
 .byte   PEND 
@  #06 @034   ----------------------------------------
Label_01004996:
 .byte   N24 ,Dn3 ,v100
 .byte   N24 ,Fn3
 .byte   W48
 .byte   N18
 .byte   W18
 .byte   Dn3
 .byte   W18
 .byte   N12 ,Cn3
 .byte   W12
 .byte   PEND 
@  #06 @035   ----------------------------------------
Label_010049A4:
 .byte   N48 ,Dn3 ,v100
 .byte   N48 ,Fn3
 .byte   W48
 .byte   Bn2
 .byte   N48 ,Dn3
 .byte   W48
 .byte   PEND 
@  #06 @036   ----------------------------------------
 .byte   GOTO
  .word Label_0100486F
@  #06 @037   ----------------------------------------
 .byte   W96
@  #06 @038   ----------------------------------------
 .byte   W96
@  #06 @039   ----------------------------------------
 .byte   W96
@  #06 @040   ----------------------------------------
 .byte   PATT
  .word Label_01004872
@  #06 @041   ----------------------------------------
 .byte   N96 ,Gn2 ,v100
 .byte   N96 ,Ds3
 .byte   W96
@  #06 @042   ----------------------------------------
 .byte   PATT
  .word Label_01004881
@  #06 @043   ----------------------------------------
 .byte   N96 ,Dn3 ,v100
 .byte   N96 ,Fn3
 .byte   W96
@  #06 @044   ----------------------------------------
 .byte   PATT
  .word Label_01004891
@  #06 @045   ----------------------------------------
 .byte   N96 ,Dn3 ,v100
 .byte   N96 ,Fn3
 .byte   W96
@  #06 @046   ----------------------------------------
 .byte   PATT
  .word Label_01004891
@  #06 @047   ----------------------------------------
 .byte   PATT
  .word Label_010048A6
@  #06 @048   ----------------------------------------
 .byte   PATT
  .word Label_010048B2
@  #06 @049   ----------------------------------------
 .byte   N96 ,Ds3 ,v100
 .byte   N96 ,Gn3
 .byte   W96
@  #06 @050   ----------------------------------------
 .byte   PATT
  .word Label_01004881
@  #06 @051   ----------------------------------------
 .byte   N96 ,Dn3 ,v100
 .byte   N96 ,Fn3
 .byte   W96
@  #06 @052   ----------------------------------------
 .byte   PATT
  .word Label_01004891
@  #06 @053   ----------------------------------------
 .byte   N96 ,Dn3 ,v100
 .byte   N96 ,Fn3
 .byte   W96
@  #06 @054   ----------------------------------------
 .byte   PATT
  .word Label_01004891
@  #06 @055   ----------------------------------------
 .byte   N96 ,Cn3 ,v100
 .byte   N96 ,Fn3
 .byte   W96
@  #06 @056   ----------------------------------------
 .byte   PATT
  .word Label_010048E4
@  #06 @057   ----------------------------------------
 .byte   N96 ,Cn3 ,v100
 .byte   N96 ,Ds3
 .byte   W96
@  #06 @058   ----------------------------------------
 .byte   PATT
  .word Label_010048F5
@  #06 @059   ----------------------------------------
 .byte   N96 ,Dn3 ,v100
 .byte   N96 ,Fn3
 .byte   W96
@  #06 @060   ----------------------------------------
 .byte   PATT
  .word Label_01004905
@  #06 @061   ----------------------------------------
 .byte   N96 ,Gn2 ,v100
 .byte   N96 ,Cn3
 .byte   W96
@  #06 @062   ----------------------------------------
 .byte   PATT
  .word Label_01004916
@  #06 @063   ----------------------------------------
 .byte   PATT
  .word Label_01004921
@  #06 @064   ----------------------------------------
 .byte   PATT
  .word Label_0100492C
@  #06 @065   ----------------------------------------
 .byte   PATT
  .word Label_01004937
@  #06 @066   ----------------------------------------
 .byte   PATT
  .word Label_01004945
@  #06 @067   ----------------------------------------
 .byte   PATT
  .word Label_01004951
@  #06 @068   ----------------------------------------
 .byte   PATT
  .word Label_01004966
@  #06 @069   ----------------------------------------
 .byte   PATT
  .word Label_01004971
@  #06 @070   ----------------------------------------
 .byte   PATT
  .word Label_01004981
@  #06 @071   ----------------------------------------
 .byte   PATT
  .word Label_01004996
@  #06 @072   ----------------------------------------
 .byte   PATT
  .word Label_010049A4
@  #06 @073   ----------------------------------------
 .byte   W10
 .byte   FINE

@**************** Track 7 (Midi-Chn.6) ****************@

PirateMan_007:
@  #07 @000   ----------------------------------------
 .byte   KEYSH , PirateMan_key+0
 .byte   VOICE , 124
 .byte   VOL , 37*PirateMan_mvl/mxv
 .byte   N06 ,En1 ,v100
 .byte   W06
 .byte   N06
 .byte   W06
 .byte   N07
 .byte   W06
 .byte   Bn1
 .byte   W12
 .byte   N06
 .byte   W06
 .byte   N06
 .byte   W06
 .byte   N06
 .byte   W06
Label_01004A92:
 .byte   N14 ,Cn1 ,v100
 .byte   W24
 .byte   N16 ,En1 ,v092
 .byte   W18
 .byte   N08 ,Cn1
 .byte   W12
@  #07 @001   ----------------------------------------
 .byte   N06
 .byte   W06
 .byte   N04
 .byte   W12
 .byte   En1
 .byte   W24
Label_01004AA3:
 .byte   N14 ,Cn1 ,v092
 .byte   W24
 .byte   N16 ,En1
 .byte   W18
 .byte   N08 ,Cn1
 .byte   W12
@  #07 @002   ----------------------------------------
 .byte   N06
 .byte   W06
 .byte   N04
 .byte   W12
 .byte   En1
 .byte   W24
 .byte   PEND 
@  #07 @003   ----------------------------------------
 .byte   PATT
  .word Label_01004AA3
@  #07 @004   ----------------------------------------
Label_01004AB9:
 .byte   N12 ,En1 ,v092
 .byte   W06
 .byte   N08 ,Cn1
 .byte   W06
 .byte   N02 ,En1
 .byte   W12
 .byte   N04
 .byte   W12
 .byte   N12 ,Cn1
 .byte   W12
 .byte   N04
 .byte   W06
 .byte   N04
 .byte   W06
 .byte   N04
 .byte   W06
 .byte   En1
 .byte   W06
 .byte   N04
 .byte   W06
 .byte   N04
 .byte   W06
 .byte   N08 ,Bn1
 .byte   W12
 .byte   PEND 
@  #07 @005   ----------------------------------------
 .byte   PATT
  .word Label_01004AA3
@  #07 @006   ----------------------------------------
 .byte   PATT
  .word Label_01004AA3
@  #07 @007   ----------------------------------------
 .byte   PATT
  .word Label_01004AA3
@  #07 @008   ----------------------------------------
 .byte   PATT
  .word Label_01004AB9
@  #07 @009   ----------------------------------------
 .byte   PATT
  .word Label_01004AA3
@  #07 @010   ----------------------------------------
 .byte   PATT
  .word Label_01004AA3
@  #07 @011   ----------------------------------------
 .byte   PATT
  .word Label_01004AA3
@  #07 @012   ----------------------------------------
 .byte   PATT
  .word Label_01004AB9
@  #07 @013   ----------------------------------------
 .byte   PATT
  .word Label_01004AA3
@  #07 @014   ----------------------------------------
 .byte   PATT
  .word Label_01004AA3
@  #07 @015   ----------------------------------------
 .byte   PATT
  .word Label_01004AA3
@  #07 @016   ----------------------------------------
 .byte   PATT
  .word Label_01004AA3
@  #07 @017   ----------------------------------------
Label_01004B14:
 .byte   N12 ,En1 ,v092
 .byte   W06
 .byte   N08 ,Cn1
 .byte   W06
 .byte   N02 ,En1
 .byte   W12
 .byte   N04
 .byte   W18
 .byte   N08 ,Cn1
 .byte   W12
 .byte   N06
 .byte   W06
 .byte   N04
 .byte   W12
 .byte   En1
 .byte   W24
 .byte   PEND 
@  #07 @018   ----------------------------------------
 .byte   PATT
  .word Label_01004AB9
@  #07 @019   ----------------------------------------
 .byte   PATT
  .word Label_01004AA3
@  #07 @020   ----------------------------------------
Label_01004B34:
 .byte   N14 ,Cn1 ,v092
 .byte   W24
 .byte   N16 ,En1
 .byte   W18
 .byte   N08 ,Cn1
 .byte   W12
 .byte   N06
 .byte   W06
 .byte   N04
 .byte   W12
 .byte   En1
 .byte   W06
 .byte   N04
 .byte   W06
 .byte   N04
 .byte   W06
 .byte   N04
 .byte   W06
 .byte   PEND 
@  #07 @021   ----------------------------------------
 .byte   PATT
  .word Label_01004AA3
@  #07 @022   ----------------------------------------
Label_01004B50:
 .byte   N12 ,En1 ,v092
 .byte   W12
 .byte   N02
 .byte   W12
 .byte   N04
 .byte   W18
 .byte   N08 ,Cn1
 .byte   W12
 .byte   N06
 .byte   W06
 .byte   N04
 .byte   W12
 .byte   En1
 .byte   W24
 .byte   PEND 
@  #07 @023   ----------------------------------------
Label_01004B62:
 .byte   N14 ,Cn1 ,v092
 .byte   W24
 .byte   N16 ,En1
 .byte   W18
 .byte   N08 ,Cn1
 .byte   W12
 .byte   N06
 .byte   W06
 .byte   N04
 .byte   W12
 .byte   En1
 .byte   W18
 .byte   N04
 .byte   W06
 .byte   PEND 
@  #07 @024   ----------------------------------------
 .byte   PATT
  .word Label_01004B62
@  #07 @025   ----------------------------------------
 .byte   PATT
  .word Label_01004B62
@  #07 @026   ----------------------------------------
 .byte   PATT
  .word Label_01004AA3
@  #07 @027   ----------------------------------------
 .byte   PATT
  .word Label_01004AA3
@  #07 @028   ----------------------------------------
 .byte   PATT
  .word Label_01004AB9
@  #07 @029   ----------------------------------------
 .byte   PATT
  .word Label_01004AA3
@  #07 @030   ----------------------------------------
 .byte   PATT
  .word Label_01004B50
@  #07 @031   ----------------------------------------
 .byte   PATT
  .word Label_01004B62
@  #07 @032   ----------------------------------------
 .byte   PATT
  .word Label_01004B62
@  #07 @033   ----------------------------------------
 .byte   PATT
  .word Label_01004B62
@  #07 @034   ----------------------------------------
 .byte   PATT
  .word Label_01004AA3
@  #07 @035   ----------------------------------------
 .byte   PATT
  .word Label_01004AA3
@  #07 @036   ----------------------------------------
Label_01004BB1:
 .byte   N12 ,En1 ,v092
 .byte   W06
 .byte   N08 ,Cn1
 .byte   W06
 .byte   N02 ,En1
 .byte   W12
 .byte   N04
 .byte   W12
 .byte   N12 ,Cn1
 .byte   W12
 .byte   N04
 .byte   W06
 .byte   N04
 .byte   W06
 .byte   N04
 .byte   W06
 .byte   En1
 .byte   W06
 .byte   N04
 .byte   W06
 .byte   N04
 .byte   W06
 .byte   N08 ,Gn1
 .byte   W12
 .byte   PEND 
@  #07 @037   ----------------------------------------
 .byte   GOTO
  .word Label_01004A92
@  #07 @038   ----------------------------------------
 .byte   PATT
  .word Label_01004AA3
@  #07 @039   ----------------------------------------
 .byte   PATT
  .word Label_01004AA3
@  #07 @040   ----------------------------------------
 .byte   PATT
  .word Label_01004AA3
@  #07 @041   ----------------------------------------
 .byte   PATT
  .word Label_01004AB9
@  #07 @042   ----------------------------------------
 .byte   PATT
  .word Label_01004AA3
@  #07 @043   ----------------------------------------
 .byte   PATT
  .word Label_01004AA3
@  #07 @044   ----------------------------------------
 .byte   PATT
  .word Label_01004AA3
@  #07 @045   ----------------------------------------
 .byte   PATT
  .word Label_01004AB9
@  #07 @046   ----------------------------------------
 .byte   PATT
  .word Label_01004AA3
@  #07 @047   ----------------------------------------
 .byte   PATT
  .word Label_01004AA3
@  #07 @048   ----------------------------------------
 .byte   PATT
  .word Label_01004AA3
@  #07 @049   ----------------------------------------
 .byte   PATT
  .word Label_01004AB9
@  #07 @050   ----------------------------------------
 .byte   PATT
  .word Label_01004AA3
@  #07 @051   ----------------------------------------
 .byte   PATT
  .word Label_01004AA3
@  #07 @052   ----------------------------------------
 .byte   PATT
  .word Label_01004AA3
@  #07 @053   ----------------------------------------
 .byte   PATT
  .word Label_01004AA3
@  #07 @054   ----------------------------------------
 .byte   PATT
  .word Label_01004B14
@  #07 @055   ----------------------------------------
 .byte   PATT
  .word Label_01004AB9
@  #07 @056   ----------------------------------------
 .byte   PATT
  .word Label_01004AA3
@  #07 @057   ----------------------------------------
 .byte   PATT
  .word Label_01004B34
@  #07 @058   ----------------------------------------
 .byte   PATT
  .word Label_01004AA3
@  #07 @059   ----------------------------------------
 .byte   PATT
  .word Label_01004B50
@  #07 @060   ----------------------------------------
 .byte   PATT
  .word Label_01004B62
@  #07 @061   ----------------------------------------
 .byte   PATT
  .word Label_01004B62
@  #07 @062   ----------------------------------------
 .byte   PATT
  .word Label_01004B62
@  #07 @063   ----------------------------------------
 .byte   PATT
  .word Label_01004AA3
@  #07 @064   ----------------------------------------
 .byte   PATT
  .word Label_01004AA3
@  #07 @065   ----------------------------------------
 .byte   PATT
  .word Label_01004AB9
@  #07 @066   ----------------------------------------
 .byte   PATT
  .word Label_01004AA3
@  #07 @067   ----------------------------------------
 .byte   PATT
  .word Label_01004B50
@  #07 @068   ----------------------------------------
 .byte   PATT
  .word Label_01004B62
@  #07 @069   ----------------------------------------
 .byte   PATT
  .word Label_01004B62
@  #07 @070   ----------------------------------------
 .byte   PATT
  .word Label_01004B62
@  #07 @071   ----------------------------------------
 .byte   PATT
  .word Label_01004AA3
@  #07 @072   ----------------------------------------
 .byte   PATT
  .word Label_01004AA3
@  #07 @073   ----------------------------------------
 .byte   PATT
  .word Label_01004BB1
@  #07 @074   ----------------------------------------
 .byte   W10
 .byte   FINE

@**************** Track 8 (Midi-Chn.7) ****************@

PirateMan_008:
@  #08 @000   ----------------------------------------
 .byte   KEYSH , PirateMan_key+0
 .byte   VOICE , 124
 .byte   VOL , 37*PirateMan_mvl/mxv
 .byte   W48
Label_01004CA3:
 .byte   N16 ,An2 ,v100
 .byte   W24
 .byte   N08 ,Fs1
 .byte   W12
 .byte   N04
 .byte   W12
@  #08 @001   ----------------------------------------
 .byte   N04
 .byte   W12
 .byte   N04
 .byte   W12
 .byte   N04
 .byte   W12
 .byte   N04
 .byte   W12
 .byte   PEND 
Label_01004CB5:
 .byte   N04 ,Fs1 ,v100
 .byte   W12
 .byte   N08
 .byte   W12
 .byte   N04
 .byte   W12
 .byte   N04
 .byte   W12
@  #08 @002   ----------------------------------------
 .byte   N04
 .byte   W12
 .byte   N04
 .byte   W12
 .byte   N04
 .byte   W12
 .byte   N04
 .byte   W12
 .byte   PEND 
@  #08 @003   ----------------------------------------
 .byte   PATT
  .word Label_01004CB5
@  #08 @004   ----------------------------------------
 .byte   PATT
  .word Label_01004CB5
@  #08 @005   ----------------------------------------
 .byte   PATT
  .word Label_01004CA3
@  #08 @006   ----------------------------------------
 .byte   PATT
  .word Label_01004CB5
@  #08 @007   ----------------------------------------
 .byte   PATT
  .word Label_01004CB5
@  #08 @008   ----------------------------------------
 .byte   PATT
  .word Label_01004CB5
@  #08 @009   ----------------------------------------
 .byte   PATT
  .word Label_01004CA3
@  #08 @010   ----------------------------------------
 .byte   PATT
  .word Label_01004CB5
@  #08 @011   ----------------------------------------
 .byte   PATT
  .word Label_01004CB5
@  #08 @012   ----------------------------------------
 .byte   PATT
  .word Label_01004CB5
@  #08 @013   ----------------------------------------
 .byte   PATT
  .word Label_01004CA3
@  #08 @014   ----------------------------------------
 .byte   PATT
  .word Label_01004CB5
@  #08 @015   ----------------------------------------
 .byte   PATT
  .word Label_01004CB5
@  #08 @016   ----------------------------------------
 .byte   PATT
  .word Label_01004CB5
@  #08 @017   ----------------------------------------
 .byte   PATT
  .word Label_01004CA3
@  #08 @018   ----------------------------------------
 .byte   PATT
  .word Label_01004CB5
@  #08 @019   ----------------------------------------
 .byte   PATT
  .word Label_01004CB5
@  #08 @020   ----------------------------------------
 .byte   PATT
  .word Label_01004CB5
@  #08 @021   ----------------------------------------
 .byte   PATT
  .word Label_01004CA3
@  #08 @022   ----------------------------------------
 .byte   PATT
  .word Label_01004CB5
@  #08 @023   ----------------------------------------
 .byte   PATT
  .word Label_01004CB5
@  #08 @024   ----------------------------------------
 .byte   PATT
  .word Label_01004CB5
@  #08 @025   ----------------------------------------
 .byte   PATT
  .word Label_01004CB5
@  #08 @026   ----------------------------------------
 .byte   PATT
  .word Label_01004CB5
@  #08 @027   ----------------------------------------
 .byte   PATT
  .word Label_01004CB5
@  #08 @028   ----------------------------------------
 .byte   PATT
  .word Label_01004CB5
@  #08 @029   ----------------------------------------
 .byte   PATT
  .word Label_01004CA3
@  #08 @030   ----------------------------------------
 .byte   PATT
  .word Label_01004CB5
@  #08 @031   ----------------------------------------
 .byte   PATT
  .word Label_01004CB5
@  #08 @032   ----------------------------------------
 .byte   PATT
  .word Label_01004CB5
@  #08 @033   ----------------------------------------
 .byte   PATT
  .word Label_01004CB5
@  #08 @034   ----------------------------------------
 .byte   PATT
  .word Label_01004CB5
@  #08 @035   ----------------------------------------
 .byte   PATT
  .word Label_01004CB5
@  #08 @036   ----------------------------------------
 .byte   PATT
  .word Label_01004CB5
@  #08 @037   ----------------------------------------
 .byte   GOTO
  .word Label_01004CA3
@  #08 @038   ----------------------------------------
 .byte   PATT
  .word Label_01004CA3
@  #08 @039   ----------------------------------------
 .byte   PATT
  .word Label_01004CB5
@  #08 @040   ----------------------------------------
 .byte   PATT
  .word Label_01004CB5
@  #08 @041   ----------------------------------------
 .byte   PATT
  .word Label_01004CB5
@  #08 @042   ----------------------------------------
 .byte   PATT
  .word Label_01004CA3
@  #08 @043   ----------------------------------------
 .byte   PATT
  .word Label_01004CB5
@  #08 @044   ----------------------------------------
 .byte   PATT
  .word Label_01004CB5
@  #08 @045   ----------------------------------------
 .byte   PATT
  .word Label_01004CB5
@  #08 @046   ----------------------------------------
 .byte   PATT
  .word Label_01004CA3
@  #08 @047   ----------------------------------------
 .byte   PATT
  .word Label_01004CB5
@  #08 @048   ----------------------------------------
 .byte   PATT
  .word Label_01004CB5
@  #08 @049   ----------------------------------------
 .byte   PATT
  .word Label_01004CB5
@  #08 @050   ----------------------------------------
 .byte   PATT
  .word Label_01004CA3
@  #08 @051   ----------------------------------------
 .byte   PATT
  .word Label_01004CB5
@  #08 @052   ----------------------------------------
 .byte   PATT
  .word Label_01004CB5
@  #08 @053   ----------------------------------------
 .byte   PATT
  .word Label_01004CB5
@  #08 @054   ----------------------------------------
 .byte   PATT
  .word Label_01004CA3
@  #08 @055   ----------------------------------------
 .byte   PATT
  .word Label_01004CB5
@  #08 @056   ----------------------------------------
 .byte   PATT
  .word Label_01004CB5
@  #08 @057   ----------------------------------------
 .byte   PATT
  .word Label_01004CB5
@  #08 @058   ----------------------------------------
 .byte   PATT
  .word Label_01004CA3
@  #08 @059   ----------------------------------------
 .byte   PATT
  .word Label_01004CB5
@  #08 @060   ----------------------------------------
 .byte   PATT
  .word Label_01004CB5
@  #08 @061   ----------------------------------------
 .byte   PATT
  .word Label_01004CB5
@  #08 @062   ----------------------------------------
 .byte   PATT
  .word Label_01004CB5
@  #08 @063   ----------------------------------------
 .byte   PATT
  .word Label_01004CB5
@  #08 @064   ----------------------------------------
 .byte   PATT
  .word Label_01004CB5
@  #08 @065   ----------------------------------------
 .byte   PATT
  .word Label_01004CB5
@  #08 @066   ----------------------------------------
 .byte   PATT
  .word Label_01004CA3
@  #08 @067   ----------------------------------------
 .byte   PATT
  .word Label_01004CB5
@  #08 @068   ----------------------------------------
 .byte   PATT
  .word Label_01004CB5
@  #08 @069   ----------------------------------------
 .byte   PATT
  .word Label_01004CB5
@  #08 @070   ----------------------------------------
 .byte   PATT
  .word Label_01004CB5
@  #08 @071   ----------------------------------------
 .byte   PATT
  .word Label_01004CB5
@  #08 @072   ----------------------------------------
 .byte   PATT
  .word Label_01004CB5
@  #08 @073   ----------------------------------------
 .byte   PATT
  .word Label_01004CB5
@  #08 @074   ----------------------------------------
 .byte   W10
 .byte   FINE

@******************************************************@
	.align	2

PirateMan:
	.byte	8	@ NumTrks
	.byte	0	@ NumBlks
	.byte	PirateMan_pri	@ Priority
	.byte	PirateMan_rev	@ Reverb.
    
	.word	PirateMan_grp
    
	.word	PirateMan_001
	.word	PirateMan_002
	.word	PirateMan_003
	.word	PirateMan_004
	.word	PirateMan_005
	.word	PirateMan_006
	.word	PirateMan_007
	.word	PirateMan_008

	.end
