	.include "MPlayDef.s"

	.equ	RiversInTheDesert_grp, voicegroup000
	.equ	RiversInTheDesert_pri, 0
	.equ	RiversInTheDesert_rev, 0
	.equ	RiversInTheDesert_mvl, 127
	.equ	RiversInTheDesert_key, 0
	.equ	RiversInTheDesert_tbs, 1
	.equ	RiversInTheDesert_exg, 0
	.equ	RiversInTheDesert_cmp, 1

	.section .rodata
	.global	RiversInTheDesert
	.align	2


@**************** Track 1 (Midi-Chn.0) ****************@

RiversInTheDesert_001:
@  #01 @000   ----------------------------------------
 .byte   KEYSH , RiversInTheDesert_key+0
 .byte   TEMPO , 132*RiversInTheDesert_tbs/2
 .byte   VOICE , 74
 .byte   VOL , 48*RiversInTheDesert_mvl/mxv
 .byte   PAN , c_v+0
 .byte   PAN , c_v+0
 .byte   W96
@  #01 @001   ----------------------------------------
 .byte   W96
@  #01 @002   ----------------------------------------
 .byte   W96
@  #01 @003   ----------------------------------------
 .byte   W96
@  #01 @004   ----------------------------------------
 .byte   W96
@  #01 @005   ----------------------------------------
 .byte   W96
@  #01 @006   ----------------------------------------
 .byte   W96
@  #01 @007   ----------------------------------------
 .byte   W96
@  #01 @008   ----------------------------------------
 .byte   W96
@  #01 @009   ----------------------------------------
 .byte   W96
@  #01 @010   ----------------------------------------
 .byte   W96
@  #01 @011   ----------------------------------------
 .byte   W96
@  #01 @012   ----------------------------------------
 .byte   W96
@  #01 @013   ----------------------------------------
 .byte   W96
@  #01 @014   ----------------------------------------
 .byte   W96
@  #01 @015   ----------------------------------------
 .byte   W96
@  #01 @016   ----------------------------------------
 .byte   W12
 .byte   N11 ,Gn2 ,v080
 .byte   W12
 .byte   N11
 .byte   W12
 .byte   N11
 .byte   W12
 .byte   N11
 .byte   W12
 .byte   N11
 .byte   W24
 .byte   N11
 .byte   W12
@  #01 @017   ----------------------------------------
Label_01004FB2:
 .byte   N11 ,Gn2 ,v080
 .byte   W12
 .byte   N11
 .byte   W24
 .byte   N11
 .byte   W12
 .byte   Dn3
 .byte   W12
 .byte   As2
 .byte   W12
 .byte   Cn3
 .byte   W12
 .byte   Gn2
 .byte   W12
 .byte   PEND 
@  #01 @018   ----------------------------------------
Label_01004FC3:
 .byte   W12
 .byte   N11 ,Gn2 ,v080
 .byte   W12
 .byte   N11
 .byte   W12
 .byte   N05
 .byte   W06
 .byte   N05
 .byte   W06
 .byte   N11
 .byte   W12
 .byte   N11
 .byte   W24
 .byte   N23 ,Dn3
 .byte   W12
 .byte   PEND 
@  #01 @019   ----------------------------------------
 .byte   W12
 .byte   N80 ,Fn3
 .byte   W84
@  #01 @020   ----------------------------------------
Label_01004FDA:
 .byte   W12
 .byte   N11 ,Gn2 ,v080
 .byte   W12
 .byte   N11
 .byte   W12
 .byte   N05
 .byte   W06
 .byte   N05
 .byte   W06
 .byte   N11
 .byte   W12
 .byte   N11
 .byte   W24
 .byte   N11
 .byte   W12
 .byte   PEND 
@  #01 @021   ----------------------------------------
Label_01004FEC:
 .byte   N11 ,Dn3 ,v080
 .byte   W12
 .byte   As2
 .byte   W12
 .byte   Cn3
 .byte   W12
 .byte   N23 ,Gn2
 .byte   W24
 .byte   As2
 .byte   W24
 .byte   N44 ,Gn2
 .byte   W12
 .byte   PEND 
@  #01 @022   ----------------------------------------
 .byte   W36
 .byte   N56 ,As2
 .byte   W60
@  #01 @023   ----------------------------------------
Label_01005001:
 .byte   W36
 .byte   N11 ,Gn3 ,v080
 .byte   W12
 .byte   N17 ,Cn4
 .byte   W18
 .byte   As3
 .byte   W18
 .byte   N05 ,An3
 .byte   W06
 .byte   N05
 .byte   W06
 .byte   PEND 
@  #01 @024   ----------------------------------------
Label_01005011:
 .byte   N32 ,Gn3 ,v080
 .byte   W36
 .byte   N56 ,As3
 .byte   W60
 .byte   PEND 
@  #01 @025   ----------------------------------------
 .byte   PATT
  .word Label_01005001
@  #01 @026   ----------------------------------------
 .byte   PATT
  .word Label_01005011
@  #01 @027   ----------------------------------------
 .byte   PATT
  .word Label_01005001
@  #01 @028   ----------------------------------------
 .byte   PATT
  .word Label_01005011
@  #01 @029   ----------------------------------------
 .byte   PATT
  .word Label_01005001
@  #01 @030   ----------------------------------------
 .byte   PATT
  .word Label_01005011
@  #01 @031   ----------------------------------------
 .byte   W96
@  #01 @032   ----------------------------------------
Label_01005038:
 .byte   W12
 .byte   N11 ,Gn2 ,v080
 .byte   W12
 .byte   N11
 .byte   W12
 .byte   N05
 .byte   W06
 .byte   N05
 .byte   W06
 .byte   N11
 .byte   W12
 .byte   N11
 .byte   W24
 .byte   N05
 .byte   W06
 .byte   N05
 .byte   W06
 .byte   PEND 
@  #01 @033   ----------------------------------------
 .byte   PATT
  .word Label_01004FB2
@  #01 @034   ----------------------------------------
 .byte   PATT
  .word Label_01004FC3
@  #01 @035   ----------------------------------------
 .byte   W12
 .byte   N80 ,Fn3 ,v080
 .byte   W84
@  #01 @036   ----------------------------------------
 .byte   PATT
  .word Label_01004FDA
@  #01 @037   ----------------------------------------
 .byte   PATT
  .word Label_01004FEC
@  #01 @038   ----------------------------------------
 .byte   W36
 .byte   N56 ,As2 ,v080
 .byte   W60
@  #01 @039   ----------------------------------------
 .byte   W96
@  #01 @040   ----------------------------------------
 .byte   PATT
  .word Label_01005038
@  #01 @041   ----------------------------------------
 .byte   PATT
  .word Label_01004FB2
@  #01 @042   ----------------------------------------
 .byte   PATT
  .word Label_01004FDA
@  #01 @043   ----------------------------------------
 .byte   PATT
  .word Label_01004FEC
@  #01 @044   ----------------------------------------
 .byte   W36
 .byte   N56 ,As2 ,v080
 .byte   W60
@  #01 @045   ----------------------------------------
 .byte   W96
@  #01 @046   ----------------------------------------
 .byte   W96
@  #01 @047   ----------------------------------------
 .byte   PATT
  .word Label_01005001
@  #01 @048   ----------------------------------------
 .byte   PATT
  .word Label_01005011
@  #01 @049   ----------------------------------------
 .byte   PATT
  .word Label_01005001
@  #01 @050   ----------------------------------------
 .byte   PATT
  .word Label_01005011
@  #01 @051   ----------------------------------------
Label_0100509A:
 .byte   W60
 .byte   N11 ,Gn3 ,v080
 .byte   W12
 .byte   An3
 .byte   W12
 .byte   As3
 .byte   W12
 .byte   PEND 
@  #01 @052   ----------------------------------------
Label_010050A4:
 .byte   W12
 .byte   N11 ,As3 ,v080
 .byte   W24
 .byte   N11
 .byte   W24
 .byte   N11
 .byte   W24
 .byte   Cn4
 .byte   W12
 .byte   PEND 
@  #01 @053   ----------------------------------------
Label_010050B0:
 .byte   W12
 .byte   N11 ,Fn3 ,v080
 .byte   W24
 .byte   N11
 .byte   W24
 .byte   N11
 .byte   W24
 .byte   N56 ,Gn3
 .byte   W12
 .byte   PEND 
@  #01 @054   ----------------------------------------
Label_010050BD:
 .byte   W60
 .byte   N11 ,Fn3 ,v080
 .byte   W12
 .byte   Gn3
 .byte   W12
 .byte   N23 ,An3
 .byte   W12
 .byte   PEND 
@  #01 @055   ----------------------------------------
Label_010050C8:
 .byte   W12
 .byte   N11 ,An3 ,v080
 .byte   W24
 .byte   Gn3
 .byte   W12
 .byte   N17 ,Cn4
 .byte   W18
 .byte   As3
 .byte   W18
 .byte   N05 ,An3
 .byte   W06
 .byte   N05
 .byte   W06
 .byte   PEND 
@  #01 @056   ----------------------------------------
 .byte   PATT
  .word Label_01005011
@  #01 @057   ----------------------------------------
 .byte   PATT
  .word Label_01005001
@  #01 @058   ----------------------------------------
 .byte   PATT
  .word Label_01005011
@  #01 @059   ----------------------------------------
 .byte   PATT
  .word Label_01005001
@  #01 @060   ----------------------------------------
Label_010050EE:
 .byte   N32 ,Gn3 ,v080
 .byte   W36
 .byte   As3
 .byte   W48
 .byte   N11
 .byte   W12
 .byte   PEND 
@  #01 @061   ----------------------------------------
Label_010050F7:
 .byte   N32 ,An3 ,v080
 .byte   W36
 .byte   N23 ,Cn4
 .byte   W24
 .byte   As3
 .byte   W24
 .byte   N56
 .byte   W12
 .byte   PEND 
@  #01 @062   ----------------------------------------
 .byte   PATT
  .word Label_0100509A
@  #01 @063   ----------------------------------------
Label_01005108:
 .byte   N11 ,Cs4 ,v080
 .byte   W12
 .byte   Cn4
 .byte   W36
 .byte   N11
 .byte   W12
 .byte   As3
 .byte   W24
 .byte   N32 ,Cn4
 .byte   W12
 .byte   PEND 
@  #01 @064   ----------------------------------------
 .byte   W24
 .byte   N68
 .byte   W72
@  #01 @065   ----------------------------------------
 .byte   W96
@  #01 @066   ----------------------------------------
 .byte   W96
@  #01 @067   ----------------------------------------
 .byte   W96
@  #01 @068   ----------------------------------------
 .byte   W96
@  #01 @069   ----------------------------------------
 .byte   W96
@  #01 @070   ----------------------------------------
 .byte   W96
@  #01 @071   ----------------------------------------
 .byte   W96
@  #01 @072   ----------------------------------------
Label_01005120:
 .byte   W96
@  #01 @073   ----------------------------------------
 .byte   W96
@  #01 @074   ----------------------------------------
 .byte   W96
@  #01 @075   ----------------------------------------
 .byte   W96
@  #01 @076   ----------------------------------------
 .byte   W96
@  #01 @077   ----------------------------------------
 .byte   W96
@  #01 @078   ----------------------------------------
 .byte   W96
@  #01 @079   ----------------------------------------
 .byte   W96
@  #01 @080   ----------------------------------------
 .byte   PATT
  .word Label_01005038
@  #01 @081   ----------------------------------------
 .byte   PATT
  .word Label_01004FB2
@  #01 @082   ----------------------------------------
 .byte   W12
 .byte   N11 ,Gn2 ,v080
 .byte   W12
 .byte   N11
 .byte   W12
 .byte   N11
 .byte   W12
 .byte   N11
 .byte   W12
 .byte   N11
 .byte   W24
 .byte   N23 ,Dn3
 .byte   W12
@  #01 @083   ----------------------------------------
 .byte   W12
 .byte   N80 ,Fn3
 .byte   W84
@  #01 @084   ----------------------------------------
 .byte   PATT
  .word Label_01004FDA
@  #01 @085   ----------------------------------------
 .byte   PATT
  .word Label_01004FEC
@  #01 @086   ----------------------------------------
 .byte   W36
 .byte   N56 ,As2 ,v080
 .byte   W60
@  #01 @087   ----------------------------------------
 .byte   W96
@  #01 @088   ----------------------------------------
 .byte   PATT
  .word Label_01005038
@  #01 @089   ----------------------------------------
 .byte   PATT
  .word Label_01004FB2
@  #01 @090   ----------------------------------------
 .byte   PATT
  .word Label_01004FDA
@  #01 @091   ----------------------------------------
 .byte   PATT
  .word Label_01004FEC
@  #01 @092   ----------------------------------------
 .byte   W36
 .byte   N56 ,As2 ,v080
 .byte   W60
@  #01 @093   ----------------------------------------
 .byte   W96
@  #01 @094   ----------------------------------------
 .byte   W96
@  #01 @095   ----------------------------------------
 .byte   PATT
  .word Label_01005001
@  #01 @096   ----------------------------------------
 .byte   PATT
  .word Label_01005011
@  #01 @097   ----------------------------------------
 .byte   PATT
  .word Label_01005001
@  #01 @098   ----------------------------------------
 .byte   PATT
  .word Label_01005011
@  #01 @099   ----------------------------------------
 .byte   PATT
  .word Label_0100509A
@  #01 @100   ----------------------------------------
 .byte   PATT
  .word Label_010050A4
@  #01 @101   ----------------------------------------
 .byte   PATT
  .word Label_010050B0
@  #01 @102   ----------------------------------------
 .byte   PATT
  .word Label_010050BD
@  #01 @103   ----------------------------------------
 .byte   PATT
  .word Label_010050C8
@  #01 @104   ----------------------------------------
 .byte   PATT
  .word Label_01005011
@  #01 @105   ----------------------------------------
 .byte   PATT
  .word Label_01005001
@  #01 @106   ----------------------------------------
 .byte   PATT
  .word Label_01005011
@  #01 @107   ----------------------------------------
 .byte   PATT
  .word Label_01005001
@  #01 @108   ----------------------------------------
 .byte   PATT
  .word Label_010050EE
@  #01 @109   ----------------------------------------
 .byte   PATT
  .word Label_010050F7
@  #01 @110   ----------------------------------------
 .byte   PATT
  .word Label_0100509A
@  #01 @111   ----------------------------------------
 .byte   N11 ,Cs4 ,v080
 .byte   W12
 .byte   Cn4
 .byte   W36
 .byte   N11
 .byte   W12
 .byte   As3
 .byte   W24
 .byte   N23 ,Cn4
 .byte   W12
@  #01 @112   ----------------------------------------
 .byte   W12
 .byte   N80
 .byte   W84
@  #01 @113   ----------------------------------------
 .byte   W96
@  #01 @114   ----------------------------------------
 .byte   W96
@  #01 @115   ----------------------------------------
 .byte   W96
@  #01 @116   ----------------------------------------
 .byte   W96
@  #01 @117   ----------------------------------------
 .byte   W96
@  #01 @118   ----------------------------------------
 .byte   W96
@  #01 @119   ----------------------------------------
Label_010051D7:
 .byte   W84
 .byte   N05 ,Dn3 ,v080
 .byte   W06
 .byte   N05
 .byte   W06
 .byte   PEND 
@  #01 @120   ----------------------------------------
 .byte   N32 ,Fn3
 .byte   W36
 .byte   Gn3
 .byte   W36
 .byte   N23 ,Fn3
 .byte   W24
@  #01 @121   ----------------------------------------
 .byte   N32
 .byte   W36
 .byte   N44 ,Ds3
 .byte   W48
 .byte   N05 ,Dn3
 .byte   W06
 .byte   Cn3
 .byte   W06
@  #01 @122   ----------------------------------------
 .byte   N92 ,Dn3
 .byte   W96
@  #01 @123   ----------------------------------------
 .byte   PATT
  .word Label_010051D7
@  #01 @124   ----------------------------------------
 .byte   N23 ,Fn3 ,v080
 .byte   W24
 .byte   Gn3
 .byte   W24
 .byte   An3
 .byte   W24
 .byte   Dn3
 .byte   W24
@  #01 @125   ----------------------------------------
 .byte   N32 ,As3
 .byte   W36
 .byte   N44 ,An3
 .byte   W48
 .byte   N11 ,Fn3
 .byte   W12
@  #01 @126   ----------------------------------------
 .byte   N92
 .byte   W96
@  #01 @127   ----------------------------------------
 .byte   W48
 .byte   N44
 .byte   W48
@  #01 @128   ----------------------------------------
 .byte   N32
 .byte   W36
 .byte   Ds3
 .byte   W36
 .byte   N23 ,Dn3
 .byte   W24
@  #01 @129   ----------------------------------------
 .byte   N44 ,Cn3
 .byte   W96
@  #01 @130   ----------------------------------------
 .byte   N05 ,As2
 .byte   W06
 .byte   Cn3
 .byte   W06
 .byte   N32 ,Dn3
 .byte   W84
@  #01 @131   ----------------------------------------
 .byte   N05
 .byte   W06
 .byte   Ds3
 .byte   W06
 .byte   N32 ,Fn3
 .byte   W36
 .byte   N44
 .byte   W48
@  #01 @132   ----------------------------------------
 .byte   N92 ,Gn3
 .byte   W96
@  #01 @133   ----------------------------------------
 .byte   W96
@  #01 @134   ----------------------------------------
 .byte   N92
 .byte   W96
@  #01 @135   ----------------------------------------
 .byte   N32 ,Cn4
 .byte   W36
 .byte   N44 ,As3
 .byte   W48
 .byte   N05 ,An3
 .byte   W06
 .byte   N05
 .byte   W06
@  #01 @136   ----------------------------------------
 .byte   PATT
  .word Label_01005011
@  #01 @137   ----------------------------------------
 .byte   PATT
  .word Label_01005001
@  #01 @138   ----------------------------------------
 .byte   PATT
  .word Label_01005011
@  #01 @139   ----------------------------------------
 .byte   PATT
  .word Label_0100509A
@  #01 @140   ----------------------------------------
 .byte   PATT
  .word Label_010050A4
@  #01 @141   ----------------------------------------
 .byte   PATT
  .word Label_010050B0
@  #01 @142   ----------------------------------------
 .byte   PATT
  .word Label_010050BD
@  #01 @143   ----------------------------------------
 .byte   PATT
  .word Label_010050C8
@  #01 @144   ----------------------------------------
 .byte   PATT
  .word Label_01005011
@  #01 @145   ----------------------------------------
 .byte   PATT
  .word Label_01005001
@  #01 @146   ----------------------------------------
 .byte   PATT
  .word Label_01005011
@  #01 @147   ----------------------------------------
 .byte   PATT
  .word Label_01005001
@  #01 @148   ----------------------------------------
 .byte   PATT
  .word Label_010050EE
@  #01 @149   ----------------------------------------
 .byte   PATT
  .word Label_010050F7
@  #01 @150   ----------------------------------------
 .byte   PATT
  .word Label_0100509A
@  #01 @151   ----------------------------------------
 .byte   PATT
  .word Label_01005108
@  #01 @152   ----------------------------------------
 .byte   W24
 .byte   N68 ,Cn4 ,v080
 .byte   W72
@  #01 @153   ----------------------------------------
 .byte   W96
@  #01 @154   ----------------------------------------
 .byte   W96
@  #01 @155   ----------------------------------------
 .byte   W96
@  #01 @156   ----------------------------------------
 .byte   W96
@  #01 @157   ----------------------------------------
 .byte   W96
@  #01 @158   ----------------------------------------
 .byte   W96
@  #01 @159   ----------------------------------------
 .byte   W96
@  #01 @160   ----------------------------------------
 .byte   GOTO
  .word Label_01005120
@  #01 @161   ----------------------------------------
 .byte   W96
@  #01 @162   ----------------------------------------
 .byte   W96
@  #01 @163   ----------------------------------------
 .byte   W96
@  #01 @164   ----------------------------------------
 .byte   W96
@  #01 @165   ----------------------------------------
 .byte   W96
@  #01 @166   ----------------------------------------
 .byte   W96
@  #01 @167   ----------------------------------------
 .byte   W96
@  #01 @168   ----------------------------------------
 .byte   W92
 .byte   W03
 .byte   FINE

@**************** Track 2 (Midi-Chn.1) ****************@

RiversInTheDesert_002:
@  #02 @000   ----------------------------------------
 .byte   KEYSH , RiversInTheDesert_key+0
 .byte   VOICE , 74
 .byte   VOL , 8*RiversInTheDesert_mvl/mxv
 .byte   PAN , c_v+0
 .byte   PAN , c_v+0
 .byte   W96
@  #02 @001   ----------------------------------------
 .byte   W96
@  #02 @002   ----------------------------------------
 .byte   W96
@  #02 @003   ----------------------------------------
 .byte   W96
@  #02 @004   ----------------------------------------
 .byte   W96
@  #02 @005   ----------------------------------------
 .byte   W96
@  #02 @006   ----------------------------------------
 .byte   W96
@  #02 @007   ----------------------------------------
 .byte   W96
@  #02 @008   ----------------------------------------
 .byte   W96
@  #02 @009   ----------------------------------------
 .byte   W96
@  #02 @010   ----------------------------------------
 .byte   W96
@  #02 @011   ----------------------------------------
 .byte   W96
@  #02 @012   ----------------------------------------
 .byte   W96
@  #02 @013   ----------------------------------------
 .byte   W96
@  #02 @014   ----------------------------------------
 .byte   W96
@  #02 @015   ----------------------------------------
 .byte   W96
@  #02 @016   ----------------------------------------
 .byte   W12
 .byte   N11 ,Dn3 ,v080
 .byte   W12
 .byte   N11
 .byte   W12
 .byte   N11
 .byte   W12
 .byte   N11
 .byte   W12
 .byte   N11
 .byte   W24
 .byte   N11
 .byte   W12
@  #02 @017   ----------------------------------------
Label_010052E0:
 .byte   N11 ,Dn3 ,v080
 .byte   W12
 .byte   N11
 .byte   W24
 .byte   N11
 .byte   W12
 .byte   An3
 .byte   W12
 .byte   Fn3
 .byte   W12
 .byte   Gn3
 .byte   W12
 .byte   Dn3
 .byte   W12
 .byte   PEND 
@  #02 @018   ----------------------------------------
Label_010052F1:
 .byte   W12
 .byte   N11 ,Dn3 ,v080
 .byte   W12
 .byte   N11
 .byte   W12
 .byte   N05
 .byte   W06
 .byte   N05
 .byte   W06
 .byte   N11
 .byte   W12
 .byte   N11
 .byte   W24
 .byte   N23 ,An3
 .byte   W12
 .byte   PEND 
@  #02 @019   ----------------------------------------
 .byte   W12
 .byte   N80 ,Cn4
 .byte   W84
@  #02 @020   ----------------------------------------
Label_01005308:
 .byte   W12
 .byte   N11 ,Dn3 ,v080
 .byte   W12
 .byte   N11
 .byte   W12
 .byte   N05
 .byte   W06
 .byte   N05
 .byte   W06
 .byte   N11
 .byte   W12
 .byte   N11
 .byte   W24
 .byte   N11
 .byte   W12
 .byte   PEND 
@  #02 @021   ----------------------------------------
Label_0100531A:
 .byte   N11 ,An3 ,v080
 .byte   W12
 .byte   Fn3
 .byte   W12
 .byte   Gn3
 .byte   W12
 .byte   N23 ,Dn3
 .byte   W24
 .byte   Fn3
 .byte   W24
 .byte   N44 ,Dn3
 .byte   W12
 .byte   PEND 
@  #02 @022   ----------------------------------------
 .byte   W36
 .byte   N56 ,Fn3
 .byte   W60
@  #02 @023   ----------------------------------------
 .byte   W96
@  #02 @024   ----------------------------------------
Label_01005330:
 .byte   N32 ,As2 ,v080
 .byte   W36
 .byte   N56 ,Dn3
 .byte   W60
 .byte   PEND 
@  #02 @025   ----------------------------------------
 .byte   W96
@  #02 @026   ----------------------------------------
Label_01005339:
 .byte   N32 ,As2 ,v080
 .byte   W36
 .byte   N56 ,En3
 .byte   W60
 .byte   PEND 
@  #02 @027   ----------------------------------------
 .byte   W96
@  #02 @028   ----------------------------------------
 .byte   PATT
  .word Label_01005330
@  #02 @029   ----------------------------------------
 .byte   W96
@  #02 @030   ----------------------------------------
 .byte   PATT
  .word Label_01005339
@  #02 @031   ----------------------------------------
 .byte   W96
@  #02 @032   ----------------------------------------
Label_0100534E:
 .byte   W12
 .byte   N11 ,Dn3 ,v080
 .byte   W12
 .byte   N11
 .byte   W12
 .byte   N05
 .byte   W06
 .byte   N05
 .byte   W06
 .byte   N11
 .byte   W12
 .byte   N11
 .byte   W24
 .byte   N05
 .byte   W06
 .byte   N05
 .byte   W06
 .byte   PEND 
@  #02 @033   ----------------------------------------
 .byte   PATT
  .word Label_010052E0
@  #02 @034   ----------------------------------------
 .byte   PATT
  .word Label_010052F1
@  #02 @035   ----------------------------------------
 .byte   W12
 .byte   N80 ,Cn4 ,v080
 .byte   W84
@  #02 @036   ----------------------------------------
 .byte   PATT
  .word Label_01005308
@  #02 @037   ----------------------------------------
 .byte   PATT
  .word Label_0100531A
@  #02 @038   ----------------------------------------
 .byte   W36
 .byte   N56 ,Fn3 ,v080
 .byte   W60
@  #02 @039   ----------------------------------------
 .byte   W96
@  #02 @040   ----------------------------------------
 .byte   W12
 .byte   N11 ,Gn2
 .byte   W12
 .byte   N11
 .byte   W12
 .byte   N05
 .byte   W06
 .byte   N05
 .byte   W06
 .byte   N11
 .byte   W12
 .byte   N11
 .byte   W24
 .byte   N05
 .byte   W06
 .byte   N05
 .byte   W06
@  #02 @041   ----------------------------------------
 .byte   N11
 .byte   W12
 .byte   N11
 .byte   W24
 .byte   N11
 .byte   W12
 .byte   Dn3
 .byte   W12
 .byte   As2
 .byte   W12
 .byte   Cn3
 .byte   W12
 .byte   Gn2
 .byte   W12
@  #02 @042   ----------------------------------------
 .byte   W12
 .byte   N11
 .byte   W12
 .byte   N11
 .byte   W12
 .byte   N05
 .byte   W06
 .byte   N05
 .byte   W06
 .byte   N11
 .byte   W12
 .byte   N11
 .byte   W24
 .byte   N11
 .byte   W12
@  #02 @043   ----------------------------------------
 .byte   Dn3
 .byte   W12
 .byte   As2
 .byte   W12
 .byte   Cn3
 .byte   W12
 .byte   N23 ,Gn2
 .byte   W24
 .byte   As2
 .byte   W24
 .byte   N44 ,Gn2
 .byte   W12
@  #02 @044   ----------------------------------------
 .byte   W36
 .byte   N56 ,As2
 .byte   W60
@  #02 @045   ----------------------------------------
 .byte   W96
@  #02 @046   ----------------------------------------
 .byte   W96
@  #02 @047   ----------------------------------------
 .byte   W96
@  #02 @048   ----------------------------------------
 .byte   PATT
  .word Label_01005330
@  #02 @049   ----------------------------------------
 .byte   W96
@  #02 @050   ----------------------------------------
 .byte   N32 ,En3 ,v080
 .byte   W36
 .byte   N56
 .byte   W60
@  #02 @051   ----------------------------------------
Label_010053D1:
 .byte   W60
 .byte   N11 ,En3 ,v080
 .byte   W12
 .byte   Fn3
 .byte   W12
 .byte   Gn3
 .byte   W12
 .byte   PEND 
@  #02 @052   ----------------------------------------
Label_010053DB:
 .byte   W12
 .byte   N11 ,Gn3 ,v080
 .byte   W24
 .byte   N11
 .byte   W24
 .byte   N11
 .byte   W24
 .byte   An3
 .byte   W12
 .byte   PEND 
@  #02 @053   ----------------------------------------
Label_010053E7:
 .byte   W12
 .byte   N11 ,Dn3 ,v080
 .byte   W24
 .byte   N11
 .byte   W24
 .byte   N11
 .byte   W24
 .byte   N56 ,En3
 .byte   W12
 .byte   PEND 
@  #02 @054   ----------------------------------------
Label_010053F4:
 .byte   W60
 .byte   N11 ,Dn3 ,v080
 .byte   W12
 .byte   En3
 .byte   W12
 .byte   N23 ,Fn3
 .byte   W12
 .byte   PEND 
@  #02 @055   ----------------------------------------
 .byte   W12
 .byte   N11
 .byte   W84
@  #02 @056   ----------------------------------------
 .byte   PATT
  .word Label_01005330
@  #02 @057   ----------------------------------------
 .byte   W96
@  #02 @058   ----------------------------------------
 .byte   PATT
  .word Label_01005339
@  #02 @059   ----------------------------------------
 .byte   W96
@  #02 @060   ----------------------------------------
Label_0100540E:
 .byte   N32 ,Ds3 ,v080
 .byte   W36
 .byte   N32
 .byte   W48
 .byte   N11
 .byte   W12
 .byte   PEND 
@  #02 @061   ----------------------------------------
Label_01005417:
 .byte   N32 ,Fn3 ,v080
 .byte   W36
 .byte   N23
 .byte   W24
 .byte   Dn3
 .byte   W24
 .byte   N56 ,En3
 .byte   W12
 .byte   PEND 
@  #02 @062   ----------------------------------------
 .byte   PATT
  .word Label_010053D1
@  #02 @063   ----------------------------------------
 .byte   N11 ,Fn3 ,v080
 .byte   W12
 .byte   N11
 .byte   W36
 .byte   N11
 .byte   W12
 .byte   Ds3
 .byte   W24
 .byte   N32 ,Dn3
 .byte   W12
@  #02 @064   ----------------------------------------
 .byte   W24
 .byte   N68
 .byte   W72
@  #02 @065   ----------------------------------------
 .byte   W96
@  #02 @066   ----------------------------------------
 .byte   W96
@  #02 @067   ----------------------------------------
 .byte   W96
@  #02 @068   ----------------------------------------
 .byte   W96
@  #02 @069   ----------------------------------------
 .byte   W96
@  #02 @070   ----------------------------------------
 .byte   W96
@  #02 @071   ----------------------------------------
 .byte   W96
@  #02 @072   ----------------------------------------
Label_0100543F:
 .byte   W96
@  #02 @073   ----------------------------------------
 .byte   W96
@  #02 @074   ----------------------------------------
 .byte   W96
@  #02 @075   ----------------------------------------
 .byte   W96
@  #02 @076   ----------------------------------------
 .byte   W96
@  #02 @077   ----------------------------------------
 .byte   W96
@  #02 @078   ----------------------------------------
 .byte   W96
@  #02 @079   ----------------------------------------
 .byte   W96
@  #02 @080   ----------------------------------------
 .byte   PATT
  .word Label_0100534E
@  #02 @081   ----------------------------------------
 .byte   PATT
  .word Label_010052E0
@  #02 @082   ----------------------------------------
 .byte   W12
 .byte   N11 ,Dn3 ,v080
 .byte   W12
 .byte   N11
 .byte   W12
 .byte   N11
 .byte   W12
 .byte   N11
 .byte   W12
 .byte   N11
 .byte   W24
 .byte   N23 ,An3
 .byte   W12
@  #02 @083   ----------------------------------------
 .byte   W12
 .byte   N80 ,Cn4
 .byte   W84
@  #02 @084   ----------------------------------------
 .byte   PATT
  .word Label_01005308
@  #02 @085   ----------------------------------------
 .byte   PATT
  .word Label_0100531A
@  #02 @086   ----------------------------------------
 .byte   W36
 .byte   N56 ,Fn3 ,v080
 .byte   W60
@  #02 @087   ----------------------------------------
 .byte   W96
@  #02 @088   ----------------------------------------
 .byte   PATT
  .word Label_0100534E
@  #02 @089   ----------------------------------------
 .byte   PATT
  .word Label_010052E0
@  #02 @090   ----------------------------------------
 .byte   PATT
  .word Label_01005308
@  #02 @091   ----------------------------------------
 .byte   PATT
  .word Label_0100531A
@  #02 @092   ----------------------------------------
 .byte   W36
 .byte   N56 ,Fn3 ,v080
 .byte   W60
@  #02 @093   ----------------------------------------
 .byte   W96
@  #02 @094   ----------------------------------------
 .byte   W96
@  #02 @095   ----------------------------------------
 .byte   W96
@  #02 @096   ----------------------------------------
 .byte   PATT
  .word Label_01005330
@  #02 @097   ----------------------------------------
 .byte   W96
@  #02 @098   ----------------------------------------
 .byte   N32 ,En3 ,v080
 .byte   W36
 .byte   N56
 .byte   W60
@  #02 @099   ----------------------------------------
 .byte   PATT
  .word Label_010053D1
@  #02 @100   ----------------------------------------
 .byte   PATT
  .word Label_010053DB
@  #02 @101   ----------------------------------------
 .byte   PATT
  .word Label_010053E7
@  #02 @102   ----------------------------------------
 .byte   PATT
  .word Label_010053F4
@  #02 @103   ----------------------------------------
 .byte   W12
 .byte   N11 ,Fn3 ,v080
 .byte   W84
@  #02 @104   ----------------------------------------
 .byte   PATT
  .word Label_01005330
@  #02 @105   ----------------------------------------
 .byte   W96
@  #02 @106   ----------------------------------------
 .byte   PATT
  .word Label_01005339
@  #02 @107   ----------------------------------------
 .byte   W96
@  #02 @108   ----------------------------------------
 .byte   PATT
  .word Label_0100540E
@  #02 @109   ----------------------------------------
 .byte   PATT
  .word Label_01005417
@  #02 @110   ----------------------------------------
 .byte   PATT
  .word Label_010053D1
@  #02 @111   ----------------------------------------
Label_010054D1:
 .byte   N11 ,Fn3 ,v080
 .byte   W12
 .byte   N11
 .byte   W36
 .byte   N11
 .byte   W12
 .byte   Ds3
 .byte   W24
 .byte   N23 ,Dn3
 .byte   W12
 .byte   PEND 
@  #02 @112   ----------------------------------------
 .byte   W12
 .byte   N80
 .byte   W84
@  #02 @113   ----------------------------------------
 .byte   W96
@  #02 @114   ----------------------------------------
 .byte   W96
@  #02 @115   ----------------------------------------
 .byte   W96
@  #02 @116   ----------------------------------------
 .byte   W96
@  #02 @117   ----------------------------------------
 .byte   W96
@  #02 @118   ----------------------------------------
 .byte   W96
@  #02 @119   ----------------------------------------
 .byte   W96
@  #02 @120   ----------------------------------------
 .byte   W96
@  #02 @121   ----------------------------------------
 .byte   W96
@  #02 @122   ----------------------------------------
 .byte   W96
@  #02 @123   ----------------------------------------
 .byte   W96
@  #02 @124   ----------------------------------------
 .byte   W96
@  #02 @125   ----------------------------------------
 .byte   W96
@  #02 @126   ----------------------------------------
 .byte   N92 ,Fn3
 .byte   W96
@  #02 @127   ----------------------------------------
 .byte   N44 ,As3
 .byte   W96
@  #02 @128   ----------------------------------------
 .byte   W96
@  #02 @129   ----------------------------------------
 .byte   W48
 .byte   Gn3
 .byte   W48
@  #02 @130   ----------------------------------------
 .byte   Fn3
 .byte   W48
 .byte   As3
 .byte   W48
@  #02 @131   ----------------------------------------
 .byte   An3
 .byte   W48
 .byte   An2
 .byte   N44 ,Dn3
 .byte   W48
@  #02 @132   ----------------------------------------
 .byte   N92 ,As2
 .byte   N92 ,Ds3
 .byte   W96
@  #02 @133   ----------------------------------------
 .byte   W96
@  #02 @134   ----------------------------------------
 .byte   Cn3
 .byte   N92 ,Ds3
 .byte   W96
@  #02 @135   ----------------------------------------
 .byte   W96
@  #02 @136   ----------------------------------------
 .byte   PATT
  .word Label_01005330
@  #02 @137   ----------------------------------------
 .byte   W96
@  #02 @138   ----------------------------------------
 .byte   N32 ,En3 ,v080
 .byte   W36
 .byte   N56
 .byte   W60
@  #02 @139   ----------------------------------------
 .byte   PATT
  .word Label_010053D1
@  #02 @140   ----------------------------------------
 .byte   PATT
  .word Label_010053DB
@  #02 @141   ----------------------------------------
 .byte   PATT
  .word Label_010053E7
@  #02 @142   ----------------------------------------
 .byte   PATT
  .word Label_010053F4
@  #02 @143   ----------------------------------------
 .byte   W12
 .byte   N11 ,Fn3 ,v080
 .byte   W84
@  #02 @144   ----------------------------------------
 .byte   PATT
  .word Label_01005330
@  #02 @145   ----------------------------------------
 .byte   W96
@  #02 @146   ----------------------------------------
 .byte   PATT
  .word Label_01005339
@  #02 @147   ----------------------------------------
 .byte   W96
@  #02 @148   ----------------------------------------
 .byte   PATT
  .word Label_0100540E
@  #02 @149   ----------------------------------------
 .byte   PATT
  .word Label_01005417
@  #02 @150   ----------------------------------------
 .byte   PATT
  .word Label_010053D1
@  #02 @151   ----------------------------------------
 .byte   PATT
  .word Label_010054D1
@  #02 @152   ----------------------------------------
 .byte   W12
 .byte   N80 ,Dn3 ,v080
 .byte   W84
@  #02 @153   ----------------------------------------
 .byte   W96
@  #02 @154   ----------------------------------------
 .byte   W96
@  #02 @155   ----------------------------------------
 .byte   W96
@  #02 @156   ----------------------------------------
 .byte   W96
@  #02 @157   ----------------------------------------
 .byte   W96
@  #02 @158   ----------------------------------------
 .byte   W96
@  #02 @159   ----------------------------------------
 .byte   W96
@  #02 @160   ----------------------------------------
 .byte   GOTO
  .word Label_0100543F
@  #02 @161   ----------------------------------------
 .byte   W96
@  #02 @162   ----------------------------------------
 .byte   W96
@  #02 @163   ----------------------------------------
 .byte   W96
@  #02 @164   ----------------------------------------
 .byte   W96
@  #02 @165   ----------------------------------------
 .byte   W96
@  #02 @166   ----------------------------------------
 .byte   W96
@  #02 @167   ----------------------------------------
 .byte   W96
@  #02 @168   ----------------------------------------
 .byte   W92
 .byte   W03
 .byte   FINE

@**************** Track 3 (Midi-Chn.2) ****************@

RiversInTheDesert_003:
@  #03 @000   ----------------------------------------
 .byte   KEYSH , RiversInTheDesert_key+0
 .byte   VOICE , 36
 .byte   VOL , 45*RiversInTheDesert_mvl/mxv
 .byte   PAN , c_v+0
 .byte   N32 ,Gn1 ,v080
 .byte   N32 ,Dn2
 .byte   N32 ,Gn2
 .byte   W36
 .byte   N11 ,Gn1
 .byte   N11 ,Dn2
 .byte   N11 ,Gn2
 .byte   W48
 .byte   Gn1
 .byte   N11 ,Dn2
 .byte   N11 ,Gn2
 .byte   W12
@  #03 @001   ----------------------------------------
Label_0100559D:
 .byte   N32 ,Gn1 ,v080
 .byte   N32 ,Dn2
 .byte   N32 ,Gn2
 .byte   W36
 .byte   N11 ,Gn1
 .byte   N11 ,Dn2
 .byte   N11 ,Gn2
 .byte   W24
 .byte   N23 ,As1
 .byte   N23 ,Fn2
 .byte   N23 ,As2
 .byte   W24
 .byte   N05 ,Gn1
 .byte   N05 ,Dn2
 .byte   N05 ,Gn2
 .byte   W12
 .byte   PEND 
@  #03 @002   ----------------------------------------
Label_010055BB:
 .byte   N32 ,Gn1 ,v080
 .byte   N32 ,Dn2
 .byte   N32 ,Gn2
 .byte   W36
 .byte   N11 ,Gn1
 .byte   N11 ,Dn2
 .byte   N11 ,Gn2
 .byte   W48
 .byte   Gn1
 .byte   N11 ,Dn2
 .byte   N11 ,Gn2
 .byte   W12
 .byte   PEND 
@  #03 @003   ----------------------------------------
 .byte   PATT
  .word Label_0100559D
@  #03 @004   ----------------------------------------
 .byte   PATT
  .word Label_010055BB
@  #03 @005   ----------------------------------------
 .byte   PATT
  .word Label_0100559D
@  #03 @006   ----------------------------------------
 .byte   PATT
  .word Label_010055BB
@  #03 @007   ----------------------------------------
 .byte   PATT
  .word Label_0100559D
@  #03 @008   ----------------------------------------
 .byte   PATT
  .word Label_010055BB
@  #03 @009   ----------------------------------------
 .byte   PATT
  .word Label_0100559D
@  #03 @010   ----------------------------------------
 .byte   PATT
  .word Label_010055BB
@  #03 @011   ----------------------------------------
 .byte   PATT
  .word Label_0100559D
@  #03 @012   ----------------------------------------
 .byte   PATT
  .word Label_010055BB
@  #03 @013   ----------------------------------------
 .byte   PATT
  .word Label_0100559D
@  #03 @014   ----------------------------------------
 .byte   PATT
  .word Label_010055BB
@  #03 @015   ----------------------------------------
 .byte   PATT
  .word Label_0100559D
@  #03 @016   ----------------------------------------
 .byte   W96
@  #03 @017   ----------------------------------------
 .byte   W96
@  #03 @018   ----------------------------------------
 .byte   W96
@  #03 @019   ----------------------------------------
 .byte   W96
@  #03 @020   ----------------------------------------
 .byte   W96
@  #03 @021   ----------------------------------------
 .byte   W96
@  #03 @022   ----------------------------------------
 .byte   W96
@  #03 @023   ----------------------------------------
 .byte   W96
@  #03 @024   ----------------------------------------
Label_0100561A:
 .byte   N23 ,Gn1 ,v080
 .byte   N23 ,Dn2
 .byte   N23 ,Gn2
 .byte   W60
 .byte   N11 ,Gn1
 .byte   N11 ,Dn2
 .byte   N11 ,Gn2
 .byte   W24
 .byte   N32 ,Fn1
 .byte   N32 ,Cn2
 .byte   N32 ,Fn2
 .byte   W12
 .byte   PEND 
@  #03 @025   ----------------------------------------
Label_01005631:
 .byte   W60
 .byte   N11 ,Fn1 ,v080
 .byte   N11 ,Cn2
 .byte   N11 ,Fn2
 .byte   W24
 .byte   N32 ,En1
 .byte   N32 ,As1
 .byte   N32 ,En2
 .byte   W12
 .byte   PEND 
@  #03 @026   ----------------------------------------
Label_01005642:
 .byte   W60
 .byte   N11 ,En1 ,v080
 .byte   N11 ,As1
 .byte   N11 ,En2
 .byte   W24
 .byte   N32 ,Fn1
 .byte   N32 ,Cn2
 .byte   N32 ,Fn2
 .byte   W12
 .byte   PEND 
@  #03 @027   ----------------------------------------
Label_01005653:
 .byte   W60
 .byte   N11 ,Fn1 ,v080
 .byte   N11 ,Cn2
 .byte   N11 ,Fn2
 .byte   W24
 .byte   N32 ,Gn1
 .byte   N32 ,Dn2
 .byte   N32 ,Gn2
 .byte   W12
 .byte   PEND 
@  #03 @028   ----------------------------------------
Label_01005664:
 .byte   W60
 .byte   N11 ,Gn1 ,v080
 .byte   N11 ,Dn2
 .byte   N11 ,Gn2
 .byte   W24
 .byte   N32 ,Fn1
 .byte   N32 ,Cn2
 .byte   N32 ,Fn2
 .byte   W12
 .byte   PEND 
@  #03 @029   ----------------------------------------
 .byte   PATT
  .word Label_01005631
@  #03 @030   ----------------------------------------
 .byte   PATT
  .word Label_01005642
@  #03 @031   ----------------------------------------
Label_0100567F:
 .byte   W60
 .byte   N32 ,Fn1 ,v080
 .byte   N32 ,Cn2
 .byte   N32 ,Fn2
 .byte   W36
 .byte   PEND 
@  #03 @032   ----------------------------------------
 .byte   W96
@  #03 @033   ----------------------------------------
 .byte   W96
@  #03 @034   ----------------------------------------
 .byte   W96
@  #03 @035   ----------------------------------------
 .byte   W96
@  #03 @036   ----------------------------------------
 .byte   W96
@  #03 @037   ----------------------------------------
 .byte   W96
@  #03 @038   ----------------------------------------
 .byte   W96
@  #03 @039   ----------------------------------------
 .byte   W96
@  #03 @040   ----------------------------------------
 .byte   W96
@  #03 @041   ----------------------------------------
 .byte   W96
@  #03 @042   ----------------------------------------
 .byte   W96
@  #03 @043   ----------------------------------------
 .byte   W96
@  #03 @044   ----------------------------------------
 .byte   W96
@  #03 @045   ----------------------------------------
 .byte   W96
@  #03 @046   ----------------------------------------
 .byte   W96
@  #03 @047   ----------------------------------------
 .byte   W96
@  #03 @048   ----------------------------------------
 .byte   PATT
  .word Label_0100561A
@  #03 @049   ----------------------------------------
 .byte   PATT
  .word Label_01005631
@  #03 @050   ----------------------------------------
 .byte   PATT
  .word Label_01005642
@  #03 @051   ----------------------------------------
Label_010056A8:
 .byte   W60
 .byte   N11 ,Fn1 ,v080
 .byte   N11 ,Cn2
 .byte   N11 ,Fn2
 .byte   W24
 .byte   N32 ,Gn1
 .byte   N32 ,Cn2
 .byte   N32 ,Gn2
 .byte   W12
 .byte   PEND 
@  #03 @052   ----------------------------------------
Label_010056B9:
 .byte   W60
 .byte   N11 ,Gn1 ,v080
 .byte   N11 ,Cn2
 .byte   N11 ,Gn2
 .byte   W24
 .byte   N32 ,An1
 .byte   N32 ,Dn2
 .byte   N32 ,An2
 .byte   W12
 .byte   PEND 
@  #03 @053   ----------------------------------------
Label_010056CA:
 .byte   W60
 .byte   N11 ,An1 ,v080
 .byte   N11 ,Dn2
 .byte   N11 ,An2
 .byte   W24
 .byte   N32 ,En1
 .byte   N32 ,As1
 .byte   N32 ,En2
 .byte   W12
 .byte   PEND 
@  #03 @054   ----------------------------------------
 .byte   PATT
  .word Label_01005642
@  #03 @055   ----------------------------------------
 .byte   PATT
  .word Label_0100567F
@  #03 @056   ----------------------------------------
 .byte   PATT
  .word Label_0100561A
@  #03 @057   ----------------------------------------
 .byte   PATT
  .word Label_01005631
@  #03 @058   ----------------------------------------
 .byte   PATT
  .word Label_01005642
@  #03 @059   ----------------------------------------
 .byte   PATT
  .word Label_0100567F
@  #03 @060   ----------------------------------------
Label_010056F9:
 .byte   N23 ,Gn1 ,v080
 .byte   N23 ,Cn2
 .byte   N23 ,Gn2
 .byte   W60
 .byte   N11 ,Gn1
 .byte   N11 ,Cn2
 .byte   N11 ,Gn2
 .byte   W24
 .byte   N32 ,An1
 .byte   N32 ,Dn2
 .byte   N32 ,An2
 .byte   W12
 .byte   PEND 
@  #03 @061   ----------------------------------------
 .byte   PATT
  .word Label_010056CA
@  #03 @062   ----------------------------------------
 .byte   PATT
  .word Label_01005642
@  #03 @063   ----------------------------------------
 .byte   PATT
  .word Label_0100567F
@  #03 @064   ----------------------------------------
 .byte   PATT
  .word Label_0100561A
@  #03 @065   ----------------------------------------
 .byte   PATT
  .word Label_01005631
@  #03 @066   ----------------------------------------
 .byte   PATT
  .word Label_01005642
@  #03 @067   ----------------------------------------
 .byte   PATT
  .word Label_01005653
@  #03 @068   ----------------------------------------
 .byte   PATT
  .word Label_01005664
@  #03 @069   ----------------------------------------
 .byte   PATT
  .word Label_01005631
@  #03 @070   ----------------------------------------
 .byte   PATT
  .word Label_01005642
@  #03 @071   ----------------------------------------
 .byte   PATT
  .word Label_0100567F
@  #03 @072   ----------------------------------------
Label_01005747:
@  #03 @073   ----------------------------------------
 .byte   PATT
  .word Label_0100561A
@  #03 @074   ----------------------------------------
 .byte   PATT
  .word Label_01005631
@  #03 @075   ----------------------------------------
 .byte   PATT
  .word Label_01005642
@  #03 @076   ----------------------------------------
 .byte   PATT
  .word Label_01005653
@  #03 @077   ----------------------------------------
 .byte   PATT
  .word Label_01005664
@  #03 @078   ----------------------------------------
 .byte   PATT
  .word Label_01005631
@  #03 @079   ----------------------------------------
 .byte   PATT
  .word Label_01005642
@  #03 @080   ----------------------------------------
 .byte   PATT
  .word Label_0100567F
@  #03 @081   ----------------------------------------
 .byte   W96
@  #03 @082   ----------------------------------------
 .byte   W96
@  #03 @083   ----------------------------------------
 .byte   W96
@  #03 @084   ----------------------------------------
 .byte   W96
@  #03 @085   ----------------------------------------
 .byte   W96
@  #03 @086   ----------------------------------------
 .byte   W96
@  #03 @087   ----------------------------------------
 .byte   W96
@  #03 @088   ----------------------------------------
 .byte   W96
@  #03 @089   ----------------------------------------
 .byte   W96
@  #03 @090   ----------------------------------------
 .byte   W96
@  #03 @091   ----------------------------------------
 .byte   W96
@  #03 @092   ----------------------------------------
 .byte   W96
@  #03 @093   ----------------------------------------
 .byte   W96
@  #03 @094   ----------------------------------------
 .byte   W96
@  #03 @095   ----------------------------------------
 .byte   W96
@  #03 @096   ----------------------------------------
 .byte   W96
@  #03 @097   ----------------------------------------
 .byte   PATT
  .word Label_0100561A
@  #03 @098   ----------------------------------------
 .byte   PATT
  .word Label_01005631
@  #03 @099   ----------------------------------------
 .byte   PATT
  .word Label_01005642
@  #03 @100   ----------------------------------------
 .byte   PATT
  .word Label_010056A8
@  #03 @101   ----------------------------------------
 .byte   PATT
  .word Label_010056B9
@  #03 @102   ----------------------------------------
 .byte   PATT
  .word Label_010056CA
@  #03 @103   ----------------------------------------
 .byte   PATT
  .word Label_01005642
@  #03 @104   ----------------------------------------
 .byte   PATT
  .word Label_0100567F
@  #03 @105   ----------------------------------------
 .byte   PATT
  .word Label_0100561A
@  #03 @106   ----------------------------------------
 .byte   PATT
  .word Label_01005631
@  #03 @107   ----------------------------------------
 .byte   PATT
  .word Label_01005642
@  #03 @108   ----------------------------------------
 .byte   PATT
  .word Label_0100567F
@  #03 @109   ----------------------------------------
 .byte   PATT
  .word Label_010056F9
@  #03 @110   ----------------------------------------
 .byte   PATT
  .word Label_010056CA
@  #03 @111   ----------------------------------------
 .byte   PATT
  .word Label_01005642
@  #03 @112   ----------------------------------------
 .byte   PATT
  .word Label_0100567F
@  #03 @113   ----------------------------------------
 .byte   PATT
  .word Label_0100561A
@  #03 @114   ----------------------------------------
 .byte   PATT
  .word Label_01005631
@  #03 @115   ----------------------------------------
 .byte   PATT
  .word Label_01005642
@  #03 @116   ----------------------------------------
 .byte   PATT
  .word Label_01005653
@  #03 @117   ----------------------------------------
 .byte   PATT
  .word Label_01005664
@  #03 @118   ----------------------------------------
 .byte   PATT
  .word Label_01005631
@  #03 @119   ----------------------------------------
 .byte   PATT
  .word Label_01005642
@  #03 @120   ----------------------------------------
 .byte   PATT
  .word Label_0100567F
@  #03 @121   ----------------------------------------
 .byte   W96
@  #03 @122   ----------------------------------------
 .byte   W96
@  #03 @123   ----------------------------------------
 .byte   W96
@  #03 @124   ----------------------------------------
 .byte   W96
@  #03 @125   ----------------------------------------
 .byte   W96
@  #03 @126   ----------------------------------------
 .byte   W96
@  #03 @127   ----------------------------------------
 .byte   W96
@  #03 @128   ----------------------------------------
 .byte   W96
@  #03 @129   ----------------------------------------
 .byte   W96
@  #03 @130   ----------------------------------------
 .byte   W96
@  #03 @131   ----------------------------------------
 .byte   W96
@  #03 @132   ----------------------------------------
 .byte   W96
@  #03 @133   ----------------------------------------
 .byte   W96
@  #03 @134   ----------------------------------------
 .byte   W96
@  #03 @135   ----------------------------------------
 .byte   W96
@  #03 @136   ----------------------------------------
 .byte   W96
@  #03 @137   ----------------------------------------
 .byte   PATT
  .word Label_0100561A
@  #03 @138   ----------------------------------------
 .byte   PATT
  .word Label_01005631
@  #03 @139   ----------------------------------------
 .byte   PATT
  .word Label_01005642
@  #03 @140   ----------------------------------------
 .byte   PATT
  .word Label_010056A8
@  #03 @141   ----------------------------------------
 .byte   PATT
  .word Label_010056B9
@  #03 @142   ----------------------------------------
 .byte   PATT
  .word Label_010056CA
@  #03 @143   ----------------------------------------
 .byte   PATT
  .word Label_01005642
@  #03 @144   ----------------------------------------
 .byte   PATT
  .word Label_0100567F
@  #03 @145   ----------------------------------------
 .byte   PATT
  .word Label_0100561A
@  #03 @146   ----------------------------------------
 .byte   PATT
  .word Label_01005631
@  #03 @147   ----------------------------------------
 .byte   PATT
  .word Label_01005642
@  #03 @148   ----------------------------------------
 .byte   PATT
  .word Label_0100567F
@  #03 @149   ----------------------------------------
 .byte   PATT
  .word Label_010056F9
@  #03 @150   ----------------------------------------
 .byte   PATT
  .word Label_010056CA
@  #03 @151   ----------------------------------------
 .byte   PATT
  .word Label_01005642
@  #03 @152   ----------------------------------------
 .byte   PATT
  .word Label_0100567F
@  #03 @153   ----------------------------------------
 .byte   PATT
  .word Label_0100561A
@  #03 @154   ----------------------------------------
 .byte   PATT
  .word Label_01005631
@  #03 @155   ----------------------------------------
 .byte   PATT
  .word Label_01005642
@  #03 @156   ----------------------------------------
 .byte   PATT
  .word Label_01005653
@  #03 @157   ----------------------------------------
 .byte   PATT
  .word Label_01005664
@  #03 @158   ----------------------------------------
 .byte   PATT
  .word Label_01005631
@  #03 @159   ----------------------------------------
 .byte   PATT
  .word Label_01005642
@  #03 @160   ----------------------------------------
 .byte   PATT
  .word Label_0100567F
@  #03 @161   ----------------------------------------
 .byte   GOTO
  .word Label_01005747
@  #03 @162   ----------------------------------------
 .byte   PATT
  .word Label_0100561A
@  #03 @163   ----------------------------------------
 .byte   PATT
  .word Label_01005631
@  #03 @164   ----------------------------------------
 .byte   PATT
  .word Label_01005642
@  #03 @165   ----------------------------------------
 .byte   PATT
  .word Label_01005653
@  #03 @166   ----------------------------------------
 .byte   PATT
  .word Label_01005664
@  #03 @167   ----------------------------------------
 .byte   PATT
  .word Label_01005631
@  #03 @168   ----------------------------------------
 .byte   PATT
  .word Label_01005642
@  #03 @169   ----------------------------------------
 .byte   W60
 .byte   N32 ,Fn1 ,v080
 .byte   N32 ,Cn2
 .byte   N32 ,Fn2
 .byte   W32
 .byte   W03
 .byte   FINE

@**************** Track 4 (Midi-Chn.3) ****************@

RiversInTheDesert_004:
@  #04 @000   ----------------------------------------
 .byte   KEYSH , RiversInTheDesert_key+0
 .byte   VOICE , 38
 .byte   VOL , 24*RiversInTheDesert_mvl/mxv
 .byte   PAN , c_v+0
 .byte   N32 ,Gn0 ,v080
 .byte   W36
 .byte   N11
 .byte   W48
 .byte   N11
 .byte   W12
@  #04 @001   ----------------------------------------
Label_010058D4:
 .byte   N32 ,Gn0 ,v080
 .byte   W36
 .byte   N11
 .byte   W24
 .byte   N23 ,As0
 .byte   W24
 .byte   N05 ,Gn0
 .byte   W12
 .byte   PEND 
@  #04 @002   ----------------------------------------
Label_010058E1:
 .byte   N32 ,Gn0 ,v080
 .byte   W36
 .byte   N11
 .byte   W48
 .byte   N11
 .byte   W12
 .byte   PEND 
@  #04 @003   ----------------------------------------
 .byte   PATT
  .word Label_010058D4
@  #04 @004   ----------------------------------------
 .byte   PATT
  .word Label_010058E1
@  #04 @005   ----------------------------------------
 .byte   PATT
  .word Label_010058D4
@  #04 @006   ----------------------------------------
 .byte   PATT
  .word Label_010058E1
@  #04 @007   ----------------------------------------
 .byte   PATT
  .word Label_010058D4
@  #04 @008   ----------------------------------------
 .byte   PATT
  .word Label_010058E1
@  #04 @009   ----------------------------------------
 .byte   PATT
  .word Label_010058D4
@  #04 @010   ----------------------------------------
 .byte   PATT
  .word Label_010058E1
@  #04 @011   ----------------------------------------
 .byte   PATT
  .word Label_010058D4
@  #04 @012   ----------------------------------------
 .byte   PATT
  .word Label_010058E1
@  #04 @013   ----------------------------------------
 .byte   PATT
  .word Label_010058D4
@  #04 @014   ----------------------------------------
 .byte   PATT
  .word Label_010058E1
@  #04 @015   ----------------------------------------
 .byte   PATT
  .word Label_010058D4
@  #04 @016   ----------------------------------------
 .byte   PATT
  .word Label_010058E1
@  #04 @017   ----------------------------------------
Label_01005930:
 .byte   N32 ,Gn0 ,v080
 .byte   W36
 .byte   N11
 .byte   W24
 .byte   N23 ,As0
 .byte   W24
 .byte   N11 ,Gn0
 .byte   W12
 .byte   PEND 
@  #04 @018   ----------------------------------------
Label_0100593D:
 .byte   N32 ,Gn0 ,v080
 .byte   W36
 .byte   N11
 .byte   W60
 .byte   PEND 
@  #04 @019   ----------------------------------------
 .byte   PATT
  .word Label_01005930
@  #04 @020   ----------------------------------------
 .byte   PATT
  .word Label_010058E1
@  #04 @021   ----------------------------------------
 .byte   PATT
  .word Label_01005930
@  #04 @022   ----------------------------------------
 .byte   PATT
  .word Label_0100593D
@  #04 @023   ----------------------------------------
 .byte   PATT
  .word Label_0100593D
@  #04 @024   ----------------------------------------
Label_0100595D:
 .byte   N23 ,Gn0 ,v080
 .byte   W60
 .byte   N23
 .byte   W24
 .byte   N32 ,Fn0
 .byte   W12
 .byte   PEND 
@  #04 @025   ----------------------------------------
Label_01005967:
 .byte   W60
 .byte   N11 ,Fn0 ,v080
 .byte   W24
 .byte   N32 ,En0
 .byte   W12
 .byte   PEND 
@  #04 @026   ----------------------------------------
Label_01005970:
 .byte   W60
 .byte   N11 ,En0 ,v080
 .byte   W24
 .byte   N32 ,Fn0
 .byte   W12
 .byte   PEND 
@  #04 @027   ----------------------------------------
Label_01005979:
 .byte   W60
 .byte   N11 ,Fn0 ,v080
 .byte   W24
 .byte   N32 ,Gn0
 .byte   W12
 .byte   PEND 
@  #04 @028   ----------------------------------------
Label_01005982:
 .byte   W60
 .byte   N23 ,Gn0 ,v080
 .byte   W24
 .byte   N32 ,Fn0
 .byte   W12
 .byte   PEND 
@  #04 @029   ----------------------------------------
 .byte   PATT
  .word Label_01005967
@  #04 @030   ----------------------------------------
 .byte   PATT
  .word Label_01005970
@  #04 @031   ----------------------------------------
 .byte   W60
 .byte   N32 ,Fn0 ,v080
 .byte   W36
@  #04 @032   ----------------------------------------
 .byte   PATT
  .word Label_010058E1
@  #04 @033   ----------------------------------------
 .byte   PATT
  .word Label_01005930
@  #04 @034   ----------------------------------------
 .byte   PATT
  .word Label_0100593D
@  #04 @035   ----------------------------------------
 .byte   PATT
  .word Label_01005930
@  #04 @036   ----------------------------------------
 .byte   PATT
  .word Label_010058E1
@  #04 @037   ----------------------------------------
 .byte   PATT
  .word Label_01005930
@  #04 @038   ----------------------------------------
 .byte   PATT
  .word Label_0100593D
@  #04 @039   ----------------------------------------
Label_010059BD:
 .byte   N32 ,Gn0 ,v080
 .byte   W36
 .byte   N11
 .byte   W24
 .byte   N23 ,Fn0
 .byte   W24
 .byte   N11 ,Ds1
 .byte   W12
 .byte   PEND 
@  #04 @040   ----------------------------------------
Label_010059CA:
 .byte   N32 ,Ds1 ,v080
 .byte   W36
 .byte   N11
 .byte   W48
 .byte   N11
 .byte   W12
 .byte   PEND 
@  #04 @041   ----------------------------------------
Label_010059D3:
 .byte   N32 ,Ds1 ,v080
 .byte   W36
 .byte   N11
 .byte   W48
 .byte   Dn1
 .byte   W12
 .byte   PEND 
@  #04 @042   ----------------------------------------
Label_010059DC:
 .byte   N32 ,Cn1 ,v080
 .byte   W36
 .byte   N11
 .byte   W60
 .byte   PEND 
@  #04 @043   ----------------------------------------
Label_010059E3:
 .byte   N32 ,Cn1 ,v080
 .byte   W36
 .byte   N11
 .byte   W24
 .byte   N23 ,Dn1
 .byte   W24
 .byte   N11 ,Gn0
 .byte   W12
 .byte   PEND 
@  #04 @044   ----------------------------------------
Label_010059F0:
 .byte   N32 ,Gn0 ,v080
 .byte   W36
 .byte   N11
 .byte   W24
 .byte   N11
 .byte   W24
 .byte   N44 ,Fn0
 .byte   W12
 .byte   PEND 
@  #04 @045   ----------------------------------------
Label_010059FC:
 .byte   W36
 .byte   N11 ,Fn0 ,v080
 .byte   W24
 .byte   N32
 .byte   W36
 .byte   PEND 
@  #04 @046   ----------------------------------------
 .byte   PATT
  .word Label_010059F0
@  #04 @047   ----------------------------------------
 .byte   W36
 .byte   N11 ,Fn0 ,v080
 .byte   W60
@  #04 @048   ----------------------------------------
 .byte   PATT
  .word Label_0100595D
@  #04 @049   ----------------------------------------
 .byte   PATT
  .word Label_01005967
@  #04 @050   ----------------------------------------
 .byte   PATT
  .word Label_01005970
@  #04 @051   ----------------------------------------
Label_01005A1D:
 .byte   W60
 .byte   N11 ,Fn0 ,v080
 .byte   W24
 .byte   N32 ,Cn1
 .byte   W12
 .byte   PEND 
@  #04 @052   ----------------------------------------
Label_01005A26:
 .byte   W60
 .byte   N23 ,Cn1 ,v080
 .byte   W24
 .byte   N32 ,Dn1
 .byte   W12
 .byte   PEND 
@  #04 @053   ----------------------------------------
Label_01005A2F:
 .byte   W60
 .byte   N11 ,Dn1 ,v080
 .byte   W24
 .byte   N32 ,En0
 .byte   W12
 .byte   PEND 
@  #04 @054   ----------------------------------------
 .byte   PATT
  .word Label_01005970
@  #04 @055   ----------------------------------------
 .byte   W60
 .byte   N32 ,Fn0 ,v080
 .byte   W36
@  #04 @056   ----------------------------------------
 .byte   PATT
  .word Label_0100595D
@  #04 @057   ----------------------------------------
 .byte   PATT
  .word Label_01005967
@  #04 @058   ----------------------------------------
 .byte   PATT
  .word Label_01005970
@  #04 @059   ----------------------------------------
 .byte   W60
 .byte   N32 ,Fn0 ,v080
 .byte   W36
@  #04 @060   ----------------------------------------
Label_01005A56:
 .byte   N23 ,Cn1 ,v080
 .byte   W60
 .byte   N23
 .byte   W24
 .byte   N32 ,Dn1
 .byte   W12
 .byte   PEND 
@  #04 @061   ----------------------------------------
 .byte   PATT
  .word Label_01005A2F
@  #04 @062   ----------------------------------------
 .byte   PATT
  .word Label_01005970
@  #04 @063   ----------------------------------------
 .byte   W60
 .byte   N32 ,Fn0 ,v080
 .byte   W36
@  #04 @064   ----------------------------------------
 .byte   PATT
  .word Label_0100595D
@  #04 @065   ----------------------------------------
 .byte   PATT
  .word Label_01005967
@  #04 @066   ----------------------------------------
 .byte   PATT
  .word Label_01005970
@  #04 @067   ----------------------------------------
 .byte   PATT
  .word Label_01005979
@  #04 @068   ----------------------------------------
 .byte   PATT
  .word Label_01005982
@  #04 @069   ----------------------------------------
 .byte   PATT
  .word Label_01005967
@  #04 @070   ----------------------------------------
 .byte   PATT
  .word Label_01005970
@  #04 @071   ----------------------------------------
 .byte   W60
 .byte   N32 ,Fn0 ,v080
 .byte   W36
@  #04 @072   ----------------------------------------
Label_01005A97:
@  #04 @073   ----------------------------------------
 .byte   PATT
  .word Label_0100595D
@  #04 @074   ----------------------------------------
 .byte   PATT
  .word Label_01005967
@  #04 @075   ----------------------------------------
 .byte   PATT
  .word Label_01005970
@  #04 @076   ----------------------------------------
 .byte   PATT
  .word Label_01005979
@  #04 @077   ----------------------------------------
 .byte   PATT
  .word Label_01005982
@  #04 @078   ----------------------------------------
 .byte   PATT
  .word Label_01005967
@  #04 @079   ----------------------------------------
 .byte   PATT
  .word Label_01005970
@  #04 @080   ----------------------------------------
 .byte   W60
 .byte   N32 ,Fn0 ,v080
 .byte   W36
@  #04 @081   ----------------------------------------
 .byte   PATT
  .word Label_010058E1
@  #04 @082   ----------------------------------------
 .byte   PATT
  .word Label_01005930
@  #04 @083   ----------------------------------------
 .byte   PATT
  .word Label_0100593D
@  #04 @084   ----------------------------------------
 .byte   PATT
  .word Label_01005930
@  #04 @085   ----------------------------------------
 .byte   PATT
  .word Label_010058E1
@  #04 @086   ----------------------------------------
 .byte   PATT
  .word Label_01005930
@  #04 @087   ----------------------------------------
 .byte   PATT
  .word Label_0100593D
@  #04 @088   ----------------------------------------
 .byte   PATT
  .word Label_010059BD
@  #04 @089   ----------------------------------------
 .byte   PATT
  .word Label_010059CA
@  #04 @090   ----------------------------------------
 .byte   PATT
  .word Label_010059D3
@  #04 @091   ----------------------------------------
 .byte   PATT
  .word Label_010059DC
@  #04 @092   ----------------------------------------
 .byte   PATT
  .word Label_010059E3
@  #04 @093   ----------------------------------------
 .byte   PATT
  .word Label_010059F0
@  #04 @094   ----------------------------------------
 .byte   PATT
  .word Label_010059FC
@  #04 @095   ----------------------------------------
 .byte   PATT
  .word Label_010059F0
@  #04 @096   ----------------------------------------
 .byte   W36
 .byte   N11 ,Fn0 ,v080
 .byte   W60
@  #04 @097   ----------------------------------------
 .byte   PATT
  .word Label_0100595D
@  #04 @098   ----------------------------------------
 .byte   PATT
  .word Label_01005967
@  #04 @099   ----------------------------------------
 .byte   PATT
  .word Label_01005970
@  #04 @100   ----------------------------------------
 .byte   PATT
  .word Label_01005A1D
@  #04 @101   ----------------------------------------
 .byte   PATT
  .word Label_01005A26
@  #04 @102   ----------------------------------------
 .byte   PATT
  .word Label_01005A2F
@  #04 @103   ----------------------------------------
 .byte   PATT
  .word Label_01005970
@  #04 @104   ----------------------------------------
 .byte   W60
 .byte   N32 ,Fn0 ,v080
 .byte   W36
@  #04 @105   ----------------------------------------
 .byte   PATT
  .word Label_0100595D
@  #04 @106   ----------------------------------------
 .byte   PATT
  .word Label_01005967
@  #04 @107   ----------------------------------------
 .byte   PATT
  .word Label_01005970
@  #04 @108   ----------------------------------------
 .byte   W60
 .byte   N32 ,Fn0 ,v080
 .byte   W36
@  #04 @109   ----------------------------------------
 .byte   PATT
  .word Label_01005A56
@  #04 @110   ----------------------------------------
 .byte   PATT
  .word Label_01005A2F
@  #04 @111   ----------------------------------------
 .byte   PATT
  .word Label_01005970
@  #04 @112   ----------------------------------------
 .byte   W60
 .byte   N32 ,Fn0 ,v080
 .byte   W36
@  #04 @113   ----------------------------------------
 .byte   PATT
  .word Label_0100595D
@  #04 @114   ----------------------------------------
 .byte   PATT
  .word Label_01005967
@  #04 @115   ----------------------------------------
 .byte   PATT
  .word Label_01005970
@  #04 @116   ----------------------------------------
 .byte   PATT
  .word Label_01005979
@  #04 @117   ----------------------------------------
 .byte   PATT
  .word Label_01005982
@  #04 @118   ----------------------------------------
 .byte   PATT
  .word Label_01005967
@  #04 @119   ----------------------------------------
 .byte   PATT
  .word Label_01005970
@  #04 @120   ----------------------------------------
 .byte   W60
 .byte   N32 ,Fn0 ,v080
 .byte   W36
@  #04 @121   ----------------------------------------
 .byte   W96
@  #04 @122   ----------------------------------------
 .byte   W96
@  #04 @123   ----------------------------------------
 .byte   W96
@  #04 @124   ----------------------------------------
 .byte   W96
@  #04 @125   ----------------------------------------
 .byte   W96
@  #04 @126   ----------------------------------------
 .byte   W96
@  #04 @127   ----------------------------------------
 .byte   W96
@  #04 @128   ----------------------------------------
 .byte   W96
@  #04 @129   ----------------------------------------
 .byte   W96
@  #04 @130   ----------------------------------------
 .byte   W96
@  #04 @131   ----------------------------------------
 .byte   W96
@  #04 @132   ----------------------------------------
 .byte   W96
@  #04 @133   ----------------------------------------
 .byte   W96
@  #04 @134   ----------------------------------------
 .byte   W96
@  #04 @135   ----------------------------------------
 .byte   W96
@  #04 @136   ----------------------------------------
 .byte   W96
@  #04 @137   ----------------------------------------
 .byte   PATT
  .word Label_0100595D
@  #04 @138   ----------------------------------------
 .byte   PATT
  .word Label_01005967
@  #04 @139   ----------------------------------------
 .byte   PATT
  .word Label_01005970
@  #04 @140   ----------------------------------------
 .byte   PATT
  .word Label_01005A1D
@  #04 @141   ----------------------------------------
 .byte   PATT
  .word Label_01005A26
@  #04 @142   ----------------------------------------
 .byte   PATT
  .word Label_01005A2F
@  #04 @143   ----------------------------------------
 .byte   PATT
  .word Label_01005970
@  #04 @144   ----------------------------------------
 .byte   W60
 .byte   N32 ,Fn0 ,v080
 .byte   W36
@  #04 @145   ----------------------------------------
 .byte   PATT
  .word Label_0100595D
@  #04 @146   ----------------------------------------
 .byte   PATT
  .word Label_01005967
@  #04 @147   ----------------------------------------
 .byte   PATT
  .word Label_01005970
@  #04 @148   ----------------------------------------
 .byte   W60
 .byte   N32 ,Fn0 ,v080
 .byte   W36
@  #04 @149   ----------------------------------------
 .byte   PATT
  .word Label_01005A56
@  #04 @150   ----------------------------------------
 .byte   PATT
  .word Label_01005A2F
@  #04 @151   ----------------------------------------
 .byte   PATT
  .word Label_01005970
@  #04 @152   ----------------------------------------
 .byte   W60
 .byte   N32 ,Fn0 ,v080
 .byte   W36
@  #04 @153   ----------------------------------------
 .byte   PATT
  .word Label_0100595D
@  #04 @154   ----------------------------------------
 .byte   PATT
  .word Label_01005967
@  #04 @155   ----------------------------------------
 .byte   PATT
  .word Label_01005970
@  #04 @156   ----------------------------------------
 .byte   PATT
  .word Label_01005979
@  #04 @157   ----------------------------------------
 .byte   PATT
  .word Label_01005982
@  #04 @158   ----------------------------------------
 .byte   PATT
  .word Label_01005967
@  #04 @159   ----------------------------------------
 .byte   PATT
  .word Label_01005970
@  #04 @160   ----------------------------------------
 .byte   W60
 .byte   N32 ,Fn0 ,v080
 .byte   W36
@  #04 @161   ----------------------------------------
 .byte   GOTO
  .word Label_01005A97
@  #04 @162   ----------------------------------------
 .byte   PATT
  .word Label_0100595D
@  #04 @163   ----------------------------------------
 .byte   PATT
  .word Label_01005967
@  #04 @164   ----------------------------------------
 .byte   PATT
  .word Label_01005970
@  #04 @165   ----------------------------------------
 .byte   PATT
  .word Label_01005979
@  #04 @166   ----------------------------------------
 .byte   PATT
  .word Label_01005982
@  #04 @167   ----------------------------------------
 .byte   PATT
  .word Label_01005967
@  #04 @168   ----------------------------------------
 .byte   PATT
  .word Label_01005970
@  #04 @169   ----------------------------------------
 .byte   W60
 .byte   N32 ,Fn0 ,v080
 .byte   W32
 .byte   W03
 .byte   FINE

@**************** Track 5 (Midi-Chn.4) ****************@

RiversInTheDesert_005:
@  #05 @000   ----------------------------------------
 .byte   KEYSH , RiversInTheDesert_key+0
 .byte   VOICE , 1
 .byte   VOL , 24*RiversInTheDesert_mvl/mxv
 .byte   PAN , c_v+0
 .byte   W96
@  #05 @001   ----------------------------------------
 .byte   W96
@  #05 @002   ----------------------------------------
 .byte   W96
@  #05 @003   ----------------------------------------
 .byte   W96
@  #05 @004   ----------------------------------------
 .byte   W96
@  #05 @005   ----------------------------------------
 .byte   W96
@  #05 @006   ----------------------------------------
 .byte   W96
@  #05 @007   ----------------------------------------
 .byte   W96
@  #05 @008   ----------------------------------------
 .byte   W96
@  #05 @009   ----------------------------------------
 .byte   W96
@  #05 @010   ----------------------------------------
 .byte   W96
@  #05 @011   ----------------------------------------
 .byte   W96
@  #05 @012   ----------------------------------------
 .byte   W96
@  #05 @013   ----------------------------------------
 .byte   W96
@  #05 @014   ----------------------------------------
 .byte   W96
@  #05 @015   ----------------------------------------
 .byte   W96
@  #05 @016   ----------------------------------------
Label_01005C68:
 .byte   N32 ,Gn1 ,v052
 .byte   W36
 .byte   Gn2
 .byte   W36
 .byte   N22 ,Gn1
 .byte   W24
 .byte   PEND 
@  #05 @017   ----------------------------------------
 .byte   PATT
  .word Label_01005C68
@  #05 @018   ----------------------------------------
 .byte   PATT
  .word Label_01005C68
@  #05 @019   ----------------------------------------
 .byte   PATT
  .word Label_01005C68
@  #05 @020   ----------------------------------------
 .byte   PATT
  .word Label_01005C68
@  #05 @021   ----------------------------------------
 .byte   PATT
  .word Label_01005C68
@  #05 @022   ----------------------------------------
 .byte   PATT
  .word Label_01005C68
@  #05 @023   ----------------------------------------
 .byte   N44 ,Gn1 ,v052
 .byte   W96
@  #05 @024   ----------------------------------------
 .byte   W96
@  #05 @025   ----------------------------------------
 .byte   W96
@  #05 @026   ----------------------------------------
 .byte   W96
@  #05 @027   ----------------------------------------
 .byte   W96
@  #05 @028   ----------------------------------------
 .byte   W96
@  #05 @029   ----------------------------------------
 .byte   W96
@  #05 @030   ----------------------------------------
 .byte   W96
@  #05 @031   ----------------------------------------
 .byte   W96
@  #05 @032   ----------------------------------------
 .byte   PATT
  .word Label_01005C68
@  #05 @033   ----------------------------------------
 .byte   PATT
  .word Label_01005C68
@  #05 @034   ----------------------------------------
 .byte   PATT
  .word Label_01005C68
@  #05 @035   ----------------------------------------
 .byte   PATT
  .word Label_01005C68
@  #05 @036   ----------------------------------------
 .byte   PATT
  .word Label_01005C68
@  #05 @037   ----------------------------------------
 .byte   PATT
  .word Label_01005C68
@  #05 @038   ----------------------------------------
 .byte   PATT
  .word Label_01005C68
@  #05 @039   ----------------------------------------
Label_01005CBF:
 .byte   N32 ,Gn1 ,v052
 .byte   W36
 .byte   Gn2
 .byte   W36
 .byte   N22 ,Fn1
 .byte   W24
 .byte   PEND 
@  #05 @040   ----------------------------------------
Label_01005CC9:
 .byte   N32 ,Ds1 ,v052
 .byte   W36
 .byte   Ds2
 .byte   W36
 .byte   N22 ,Ds1
 .byte   W24
 .byte   PEND 
@  #05 @041   ----------------------------------------
Label_01005CD3:
 .byte   N32 ,Ds1 ,v052
 .byte   W36
 .byte   Ds2
 .byte   W36
 .byte   N22 ,Dn1
 .byte   W24
 .byte   PEND 
@  #05 @042   ----------------------------------------
Label_01005CDD:
 .byte   N32 ,Cn1 ,v052
 .byte   W36
 .byte   Cn2
 .byte   W36
 .byte   N22 ,Cn1
 .byte   W24
 .byte   PEND 
@  #05 @043   ----------------------------------------
Label_01005CE7:
 .byte   N32 ,Cn1 ,v052
 .byte   W36
 .byte   Cn2
 .byte   W36
 .byte   N22 ,Dn1
 .byte   W24
 .byte   PEND 
@  #05 @044   ----------------------------------------
 .byte   PATT
  .word Label_01005C68
@  #05 @045   ----------------------------------------
Label_01005CF6:
 .byte   N32 ,Fn1 ,v052
 .byte   W36
 .byte   Fn2
 .byte   W36
 .byte   N22 ,Fn1
 .byte   W24
 .byte   PEND 
@  #05 @046   ----------------------------------------
 .byte   PATT
  .word Label_01005C68
@  #05 @047   ----------------------------------------
 .byte   N44 ,Fn1 ,v052
 .byte   W96
@  #05 @048   ----------------------------------------
 .byte   W96
@  #05 @049   ----------------------------------------
 .byte   W96
@  #05 @050   ----------------------------------------
 .byte   W96
@  #05 @051   ----------------------------------------
 .byte   W96
@  #05 @052   ----------------------------------------
 .byte   W96
@  #05 @053   ----------------------------------------
 .byte   W96
@  #05 @054   ----------------------------------------
 .byte   W96
@  #05 @055   ----------------------------------------
 .byte   W96
@  #05 @056   ----------------------------------------
 .byte   W96
@  #05 @057   ----------------------------------------
 .byte   W96
@  #05 @058   ----------------------------------------
 .byte   W96
@  #05 @059   ----------------------------------------
 .byte   W96
@  #05 @060   ----------------------------------------
 .byte   W96
@  #05 @061   ----------------------------------------
 .byte   W96
@  #05 @062   ----------------------------------------
 .byte   W96
@  #05 @063   ----------------------------------------
 .byte   W96
@  #05 @064   ----------------------------------------
 .byte   W96
@  #05 @065   ----------------------------------------
 .byte   W96
@  #05 @066   ----------------------------------------
 .byte   W96
@  #05 @067   ----------------------------------------
 .byte   W96
@  #05 @068   ----------------------------------------
 .byte   W96
@  #05 @069   ----------------------------------------
 .byte   W96
@  #05 @070   ----------------------------------------
 .byte   W96
@  #05 @071   ----------------------------------------
 .byte   W96
@  #05 @072   ----------------------------------------
Label_01005D21:
 .byte   W96
@  #05 @073   ----------------------------------------
 .byte   W96
@  #05 @074   ----------------------------------------
 .byte   W96
@  #05 @075   ----------------------------------------
 .byte   W96
@  #05 @076   ----------------------------------------
 .byte   W96
@  #05 @077   ----------------------------------------
 .byte   W96
@  #05 @078   ----------------------------------------
 .byte   W96
@  #05 @079   ----------------------------------------
 .byte   W96
@  #05 @080   ----------------------------------------
 .byte   PATT
  .word Label_01005C68
@  #05 @081   ----------------------------------------
 .byte   PATT
  .word Label_01005C68
@  #05 @082   ----------------------------------------
 .byte   PATT
  .word Label_01005C68
@  #05 @083   ----------------------------------------
 .byte   PATT
  .word Label_01005C68
@  #05 @084   ----------------------------------------
 .byte   PATT
  .word Label_01005C68
@  #05 @085   ----------------------------------------
 .byte   PATT
  .word Label_01005C68
@  #05 @086   ----------------------------------------
 .byte   PATT
  .word Label_01005C68
@  #05 @087   ----------------------------------------
 .byte   PATT
  .word Label_01005CBF
@  #05 @088   ----------------------------------------
 .byte   PATT
  .word Label_01005CC9
@  #05 @089   ----------------------------------------
 .byte   PATT
  .word Label_01005CD3
@  #05 @090   ----------------------------------------
 .byte   PATT
  .word Label_01005CDD
@  #05 @091   ----------------------------------------
 .byte   PATT
  .word Label_01005CE7
@  #05 @092   ----------------------------------------
 .byte   PATT
  .word Label_01005C68
@  #05 @093   ----------------------------------------
 .byte   PATT
  .word Label_01005CF6
@  #05 @094   ----------------------------------------
 .byte   PATT
  .word Label_01005C68
@  #05 @095   ----------------------------------------
 .byte   N44 ,Fn1 ,v052
 .byte   W96
@  #05 @096   ----------------------------------------
 .byte   W96
@  #05 @097   ----------------------------------------
 .byte   W96
@  #05 @098   ----------------------------------------
 .byte   W96
@  #05 @099   ----------------------------------------
 .byte   W96
@  #05 @100   ----------------------------------------
 .byte   W96
@  #05 @101   ----------------------------------------
 .byte   W96
@  #05 @102   ----------------------------------------
 .byte   W96
@  #05 @103   ----------------------------------------
 .byte   W96
@  #05 @104   ----------------------------------------
 .byte   W96
@  #05 @105   ----------------------------------------
 .byte   W96
@  #05 @106   ----------------------------------------
 .byte   W96
@  #05 @107   ----------------------------------------
 .byte   W96
@  #05 @108   ----------------------------------------
 .byte   W96
@  #05 @109   ----------------------------------------
 .byte   W96
@  #05 @110   ----------------------------------------
 .byte   W96
@  #05 @111   ----------------------------------------
 .byte   W96
@  #05 @112   ----------------------------------------
 .byte   W96
@  #05 @113   ----------------------------------------
 .byte   W96
@  #05 @114   ----------------------------------------
 .byte   W96
@  #05 @115   ----------------------------------------
 .byte   W96
@  #05 @116   ----------------------------------------
 .byte   W96
@  #05 @117   ----------------------------------------
 .byte   W96
@  #05 @118   ----------------------------------------
 .byte   W96
@  #05 @119   ----------------------------------------
 .byte   W96
@  #05 @120   ----------------------------------------
Label_01005D90:
 .byte   N44 ,An3 ,v052
 .byte   W03
 .byte   Fn4
 .byte   W44
 .byte   W01
 .byte   As3
 .byte   W03
 .byte   Gn4
 .byte   W44
 .byte   W01
 .byte   PEND 
@  #05 @121   ----------------------------------------
Label_01005D9D:
 .byte   N44 ,Dn4 ,v052
 .byte   W03
 .byte   As4
 .byte   W44
 .byte   W01
 .byte   Cn4
 .byte   W03
 .byte   An4
 .byte   W44
 .byte   W01
 .byte   PEND 
@  #05 @122   ----------------------------------------
Label_01005DAA:
 .byte   N92 ,An3 ,v052
 .byte   W03
 .byte   Fn4
 .byte   W92
 .byte   W01
 .byte   PEND 
@  #05 @123   ----------------------------------------
 .byte   W96
@  #05 @124   ----------------------------------------
 .byte   PATT
  .word Label_01005D90
@  #05 @125   ----------------------------------------
 .byte   PATT
  .word Label_01005D9D
@  #05 @126   ----------------------------------------
 .byte   PATT
  .word Label_01005DAA
@  #05 @127   ----------------------------------------
 .byte   W96
@  #05 @128   ----------------------------------------
 .byte   N32 ,As3 ,v052
 .byte   W03
 .byte   Fn4
 .byte   W32
 .byte   W01
 .byte   Ds4
 .byte   W36
 .byte   N22 ,Dn4
 .byte   W24
@  #05 @129   ----------------------------------------
 .byte   N44 ,Cn4
 .byte   W96
@  #05 @130   ----------------------------------------
 .byte   N90 ,Fn3
 .byte   N90 ,Dn4
 .byte   W96
@  #05 @131   ----------------------------------------
 .byte   W48
 .byte   N44 ,An3
 .byte   N44 ,Fn4
 .byte   W48
@  #05 @132   ----------------------------------------
 .byte   N90 ,Ds3
 .byte   N90 ,As3
 .byte   N90 ,Gn4
 .byte   W96
@  #05 @133   ----------------------------------------
 .byte   W96
@  #05 @134   ----------------------------------------
 .byte   W96
@  #05 @135   ----------------------------------------
 .byte   W96
@  #05 @136   ----------------------------------------
 .byte   W96
@  #05 @137   ----------------------------------------
 .byte   W96
@  #05 @138   ----------------------------------------
 .byte   W96
@  #05 @139   ----------------------------------------
 .byte   W96
@  #05 @140   ----------------------------------------
 .byte   W96
@  #05 @141   ----------------------------------------
 .byte   W96
@  #05 @142   ----------------------------------------
 .byte   W96
@  #05 @143   ----------------------------------------
 .byte   W96
@  #05 @144   ----------------------------------------
 .byte   W96
@  #05 @145   ----------------------------------------
 .byte   W96
@  #05 @146   ----------------------------------------
 .byte   W96
@  #05 @147   ----------------------------------------
 .byte   W96
@  #05 @148   ----------------------------------------
 .byte   W96
@  #05 @149   ----------------------------------------
 .byte   W96
@  #05 @150   ----------------------------------------
 .byte   W96
@  #05 @151   ----------------------------------------
 .byte   W96
@  #05 @152   ----------------------------------------
 .byte   W96
@  #05 @153   ----------------------------------------
 .byte   W96
@  #05 @154   ----------------------------------------
 .byte   W96
@  #05 @155   ----------------------------------------
 .byte   W96
@  #05 @156   ----------------------------------------
 .byte   W96
@  #05 @157   ----------------------------------------
 .byte   W96
@  #05 @158   ----------------------------------------
 .byte   W96
@  #05 @159   ----------------------------------------
 .byte   W96
@  #05 @160   ----------------------------------------
 .byte   GOTO
  .word Label_01005D21
@  #05 @161   ----------------------------------------
 .byte   W96
@  #05 @162   ----------------------------------------
 .byte   W96
@  #05 @163   ----------------------------------------
 .byte   W96
@  #05 @164   ----------------------------------------
 .byte   W96
@  #05 @165   ----------------------------------------
 .byte   W96
@  #05 @166   ----------------------------------------
 .byte   W96
@  #05 @167   ----------------------------------------
 .byte   W96
@  #05 @168   ----------------------------------------
 .byte   W92
 .byte   W03
 .byte   FINE

@**************** Track 6 (Midi-Chn.5) ****************@

RiversInTheDesert_006:
@  #06 @000   ----------------------------------------
 .byte   KEYSH , RiversInTheDesert_key+0
 .byte   VOICE , 41
 .byte   VOL , 24*RiversInTheDesert_mvl/mxv
 .byte   PAN , c_v+0
 .byte   W96
@  #06 @001   ----------------------------------------
 .byte   W96
@  #06 @002   ----------------------------------------
 .byte   W96
@  #06 @003   ----------------------------------------
 .byte   W96
@  #06 @004   ----------------------------------------
 .byte   W96
@  #06 @005   ----------------------------------------
 .byte   W96
@  #06 @006   ----------------------------------------
 .byte   W96
@  #06 @007   ----------------------------------------
 .byte   W96
@  #06 @008   ----------------------------------------
 .byte   W96
@  #06 @009   ----------------------------------------
 .byte   W96
@  #06 @010   ----------------------------------------
 .byte   W96
@  #06 @011   ----------------------------------------
 .byte   W96
@  #06 @012   ----------------------------------------
 .byte   W96
@  #06 @013   ----------------------------------------
 .byte   W96
@  #06 @014   ----------------------------------------
 .byte   W96
@  #06 @015   ----------------------------------------
 .byte   W96
@  #06 @016   ----------------------------------------
 .byte   W96
@  #06 @017   ----------------------------------------
 .byte   W96
@  #06 @018   ----------------------------------------
 .byte   W96
@  #06 @019   ----------------------------------------
 .byte   W96
@  #06 @020   ----------------------------------------
 .byte   W96
@  #06 @021   ----------------------------------------
 .byte   W96
@  #06 @022   ----------------------------------------
 .byte   W96
@  #06 @023   ----------------------------------------
 .byte   W96
@  #06 @024   ----------------------------------------
Label_01005E40:
 .byte   N11 ,Gn4 ,v080
 .byte   W60
 .byte   N05
 .byte   W24
 .byte   Fn4
 .byte   W12
 .byte   PEND 
@  #06 @025   ----------------------------------------
Label_01005E49:
 .byte   W60
 .byte   N05 ,Fn4 ,v080
 .byte   W24
 .byte   En4
 .byte   W12
 .byte   PEND 
@  #06 @026   ----------------------------------------
Label_01005E51:
 .byte   W60
 .byte   N05 ,En4 ,v080
 .byte   W24
 .byte   Fn4
 .byte   W12
 .byte   PEND 
@  #06 @027   ----------------------------------------
Label_01005E59:
 .byte   W60
 .byte   N05 ,Fn4 ,v080
 .byte   W24
 .byte   Gn4
 .byte   W12
 .byte   PEND 
@  #06 @028   ----------------------------------------
Label_01005E61:
 .byte   W60
 .byte   N05 ,Dn5 ,v080
 .byte   W24
 .byte   Cn5
 .byte   W12
 .byte   PEND 
@  #06 @029   ----------------------------------------
 .byte   PATT
  .word Label_01005E59
@  #06 @030   ----------------------------------------
Label_01005E6E:
 .byte   W60
 .byte   N05 ,Gn4 ,v080
 .byte   W24
 .byte   An4
 .byte   W12
 .byte   PEND 
@  #06 @031   ----------------------------------------
 .byte   W60
 .byte   N32 ,Fn4
 .byte   W36
@  #06 @032   ----------------------------------------
 .byte   W96
@  #06 @033   ----------------------------------------
 .byte   W96
@  #06 @034   ----------------------------------------
 .byte   W96
@  #06 @035   ----------------------------------------
 .byte   W96
@  #06 @036   ----------------------------------------
 .byte   W96
@  #06 @037   ----------------------------------------
 .byte   W96
@  #06 @038   ----------------------------------------
 .byte   TIE ,Gn3 ,v052
 .byte   W96
@  #06 @039   ----------------------------------------
 .byte   W56
 .byte   W03
 .byte   EOT
 .byte   W01
 .byte   N32 ,Fn3
 .byte   W36
@  #06 @040   ----------------------------------------
 .byte   TIE ,Dn4
 .byte   W96
@  #06 @041   ----------------------------------------
 .byte   W92
 .byte   W03
 .byte   EOT
 .byte   W01
@  #06 @042   ----------------------------------------
 .byte   TIE
 .byte   W96
@  #06 @043   ----------------------------------------
 .byte   W92
 .byte   W03
 .byte   EOT
 .byte   W01
@  #06 @044   ----------------------------------------
Label_01005E98:
 .byte   N56 ,Gn4 ,v052
 .byte   W60
 .byte   N11
 .byte   W24
 .byte   N68 ,Fn4
 .byte   W12
 .byte   PEND 
@  #06 @045   ----------------------------------------
 .byte   W60
 .byte   N32
 .byte   W36
@  #06 @046   ----------------------------------------
Label_01005EA5:
 .byte   N56 ,Gn4 ,v052
 .byte   W60
 .byte   N11
 .byte   W24
 .byte   N56 ,Fn4
 .byte   W12
 .byte   PEND 
@  #06 @047   ----------------------------------------
 .byte   W96
@  #06 @048   ----------------------------------------
Label_01005EB0:
 .byte   N11 ,Gn3 ,v080
 .byte   W24
 .byte   Gn4
 .byte   W12
 .byte   Fn4
 .byte   W12
 .byte   N05 ,Gn4
 .byte   W12
 .byte   Fn4
 .byte   W12
 .byte   Gn4
 .byte   W12
 .byte   Gn3
 .byte   W12
 .byte   PEND 
@  #06 @049   ----------------------------------------
Label_01005EC2:
 .byte   W24
 .byte   N11 ,Gn4 ,v080
 .byte   W12
 .byte   Fn4
 .byte   W12
 .byte   N05 ,Gn4
 .byte   W12
 .byte   Fn4
 .byte   W12
 .byte   Gn4
 .byte   W12
 .byte   Gn3
 .byte   W12
 .byte   PEND 
@  #06 @050   ----------------------------------------
 .byte   PATT
  .word Label_01005EC2
@  #06 @051   ----------------------------------------
 .byte   PATT
  .word Label_01005EC2
@  #06 @052   ----------------------------------------
Label_01005EDD:
 .byte   W24
 .byte   N11 ,Gn4 ,v080
 .byte   W12
 .byte   Fn4
 .byte   W12
 .byte   Gn4
 .byte   W12
 .byte   An4
 .byte   W12
 .byte   N05 ,As4
 .byte   W12
 .byte   N56 ,An4
 .byte   W12
 .byte   PEND 
@  #06 @053   ----------------------------------------
Label_01005EEF:
 .byte   W48
 .byte   N11 ,An4 ,v080
 .byte   W12
 .byte   As4
 .byte   W12
 .byte   N05 ,Cn5
 .byte   W12
 .byte   N68 ,As4
 .byte   W12
 .byte   PEND 
@  #06 @054   ----------------------------------------
Label_01005EFD:
 .byte   W60
 .byte   N11 ,As4 ,v080
 .byte   W12
 .byte   Cn5
 .byte   W12
 .byte   N05 ,Dn5
 .byte   W12
 .byte   PEND 
@  #06 @055   ----------------------------------------
Label_01005F08:
 .byte   W12
 .byte   N05 ,An4 ,v080
 .byte   W24
 .byte   Cn5
 .byte   W24
 .byte   N32 ,As4
 .byte   W36
 .byte   PEND 
@  #06 @056   ----------------------------------------
 .byte   PATT
  .word Label_01005EB0
@  #06 @057   ----------------------------------------
 .byte   PATT
  .word Label_01005EC2
@  #06 @058   ----------------------------------------
 .byte   PATT
  .word Label_01005EC2
@  #06 @059   ----------------------------------------
 .byte   PATT
  .word Label_01005EC2
@  #06 @060   ----------------------------------------
Label_01005F27:
 .byte   W24
 .byte   N11 ,Gn4 ,v080
 .byte   W12
 .byte   Fn4
 .byte   W12
 .byte   Gn4
 .byte   W12
 .byte   An4
 .byte   W12
 .byte   As4
 .byte   W24
 .byte   PEND 
@  #06 @061   ----------------------------------------
Label_01005F35:
 .byte   N32 ,An4 ,v080
 .byte   W36
 .byte   N11 ,Fn4
 .byte   W24
 .byte   N11
 .byte   W24
 .byte   N56 ,Gn4
 .byte   W12
 .byte   PEND 
@  #06 @062   ----------------------------------------
Label_01005F42:
 .byte   W60
 .byte   N11 ,As4 ,v080
 .byte   W12
 .byte   Cn5
 .byte   W24
 .byte   PEND 
@  #06 @063   ----------------------------------------
Label_01005F4A:
 .byte   N11 ,Cs5 ,v080
 .byte   W12
 .byte   Cn5
 .byte   W24
 .byte   As4
 .byte   W24
 .byte   N32 ,Gn4
 .byte   W36
 .byte   PEND 
@  #06 @064   ----------------------------------------
 .byte   Gn3
 .byte   W36
 .byte   N56 ,Gn4
 .byte   W60
@  #06 @065   ----------------------------------------
 .byte   N07 ,An4
 .byte   W08
 .byte   Fn4
 .byte   W08
 .byte   Cn4
 .byte   W08
 .byte   Cs4
 .byte   W08
 .byte   As3
 .byte   W08
 .byte   Gn3
 .byte   W08
 .byte   Gs3
 .byte   W08
 .byte   Fn3
 .byte   W08
 .byte   Cn3
 .byte   W08
 .byte   N11 ,Cs3
 .byte   W12
 .byte   N44 ,Dn3
 .byte   W12
@  #06 @066   ----------------------------------------
 .byte   W36
 .byte   Gn3
 .byte   W48
 .byte   Fn3
 .byte   W12
@  #06 @067   ----------------------------------------
 .byte   W36
 .byte   N23 ,Gn3
 .byte   W24
 .byte   Cs4
 .byte   W24
 .byte   N11 ,Dn4
 .byte   W12
@  #06 @068   ----------------------------------------
 .byte   W24
 .byte   N68 ,Gn4
 .byte   W72
@  #06 @069   ----------------------------------------
 .byte   N07 ,An4
 .byte   W08
 .byte   Fn4
 .byte   W08
 .byte   Cn4
 .byte   W08
 .byte   Cs4
 .byte   W08
 .byte   As3
 .byte   W08
 .byte   Gn3
 .byte   W08
 .byte   N11 ,Dn4
 .byte   W18
 .byte   Fn4
 .byte   W18
 .byte   N56 ,En4
 .byte   W12
@  #06 @070   ----------------------------------------
 .byte   W48
 .byte   N11
 .byte   W12
 .byte   N11
 .byte   W24
 .byte   N56 ,Fn4
 .byte   W12
@  #06 @071   ----------------------------------------
 .byte   W48
 .byte   N11
 .byte   W24
 .byte   N11
 .byte   W24
@  #06 @072   ----------------------------------------
Label_01005FA8:
@  #06 @073   ----------------------------------------
 .byte   PATT
  .word Label_01005E40
@  #06 @074   ----------------------------------------
 .byte   PATT
  .word Label_01005E49
@  #06 @075   ----------------------------------------
 .byte   PATT
  .word Label_01005E51
@  #06 @076   ----------------------------------------
 .byte   PATT
  .word Label_01005E59
@  #06 @077   ----------------------------------------
 .byte   PATT
  .word Label_01005E61
@  #06 @078   ----------------------------------------
 .byte   PATT
  .word Label_01005E59
@  #06 @079   ----------------------------------------
 .byte   PATT
  .word Label_01005E6E
@  #06 @080   ----------------------------------------
 .byte   W60
 .byte   N32 ,Fn4 ,v080
 .byte   W36
@  #06 @081   ----------------------------------------
 .byte   W96
@  #06 @082   ----------------------------------------
 .byte   W96
@  #06 @083   ----------------------------------------
 .byte   W96
@  #06 @084   ----------------------------------------
 .byte   W96
@  #06 @085   ----------------------------------------
 .byte   W96
@  #06 @086   ----------------------------------------
 .byte   W96
@  #06 @087   ----------------------------------------
 .byte   TIE ,Gn3 ,v052
 .byte   W96
@  #06 @088   ----------------------------------------
 .byte   W56
 .byte   W03
 .byte   EOT
 .byte   W01
 .byte   N32 ,Fn3
 .byte   W36
@  #06 @089   ----------------------------------------
 .byte   TIE ,Dn4
 .byte   W96
@  #06 @090   ----------------------------------------
 .byte   W92
 .byte   W03
 .byte   EOT
 .byte   W01
@  #06 @091   ----------------------------------------
 .byte   TIE
 .byte   W96
@  #06 @092   ----------------------------------------
 .byte   W92
 .byte   W03
 .byte   EOT
 .byte   W01
@  #06 @093   ----------------------------------------
 .byte   PATT
  .word Label_01005E98
@  #06 @094   ----------------------------------------
 .byte   W60
 .byte   N32 ,Fn4 ,v052
 .byte   W36
@  #06 @095   ----------------------------------------
 .byte   PATT
  .word Label_01005EA5
@  #06 @096   ----------------------------------------
 .byte   W96
@  #06 @097   ----------------------------------------
 .byte   PATT
  .word Label_01005EB0
@  #06 @098   ----------------------------------------
 .byte   PATT
  .word Label_01005EC2
@  #06 @099   ----------------------------------------
 .byte   PATT
  .word Label_01005EC2
@  #06 @100   ----------------------------------------
 .byte   PATT
  .word Label_01005EC2
@  #06 @101   ----------------------------------------
 .byte   PATT
  .word Label_01005EDD
@  #06 @102   ----------------------------------------
 .byte   PATT
  .word Label_01005EEF
@  #06 @103   ----------------------------------------
 .byte   PATT
  .word Label_01005EFD
@  #06 @104   ----------------------------------------
 .byte   PATT
  .word Label_01005F08
@  #06 @105   ----------------------------------------
 .byte   PATT
  .word Label_01005EB0
@  #06 @106   ----------------------------------------
 .byte   PATT
  .word Label_01005EC2
@  #06 @107   ----------------------------------------
 .byte   PATT
  .word Label_01005EC2
@  #06 @108   ----------------------------------------
 .byte   PATT
  .word Label_01005EC2
@  #06 @109   ----------------------------------------
 .byte   PATT
  .word Label_01005F27
@  #06 @110   ----------------------------------------
 .byte   PATT
  .word Label_01005F35
@  #06 @111   ----------------------------------------
 .byte   PATT
  .word Label_01005F42
@  #06 @112   ----------------------------------------
 .byte   PATT
  .word Label_01005F4A
@  #06 @113   ----------------------------------------
 .byte   PATT
  .word Label_01005E40
@  #06 @114   ----------------------------------------
 .byte   PATT
  .word Label_01005E49
@  #06 @115   ----------------------------------------
 .byte   PATT
  .word Label_01005E51
@  #06 @116   ----------------------------------------
 .byte   PATT
  .word Label_01005E59
@  #06 @117   ----------------------------------------
 .byte   PATT
  .word Label_01005E61
@  #06 @118   ----------------------------------------
 .byte   PATT
  .word Label_01005E59
@  #06 @119   ----------------------------------------
 .byte   PATT
  .word Label_01005E6E
@  #06 @120   ----------------------------------------
 .byte   W60
 .byte   N32 ,Fn4 ,v080
 .byte   W36
@  #06 @121   ----------------------------------------
 .byte   W96
@  #06 @122   ----------------------------------------
 .byte   W96
@  #06 @123   ----------------------------------------
 .byte   W96
@  #06 @124   ----------------------------------------
 .byte   W96
@  #06 @125   ----------------------------------------
 .byte   W96
@  #06 @126   ----------------------------------------
 .byte   W96
@  #06 @127   ----------------------------------------
 .byte   W96
@  #06 @128   ----------------------------------------
 .byte   W96
@  #06 @129   ----------------------------------------
 .byte   W96
@  #06 @130   ----------------------------------------
 .byte   W96
@  #06 @131   ----------------------------------------
 .byte   W96
@  #06 @132   ----------------------------------------
 .byte   W96
@  #06 @133   ----------------------------------------
 .byte   W96
@  #06 @134   ----------------------------------------
 .byte   W96
@  #06 @135   ----------------------------------------
 .byte   W96
@  #06 @136   ----------------------------------------
 .byte   W96
@  #06 @137   ----------------------------------------
 .byte   PATT
  .word Label_01005EB0
@  #06 @138   ----------------------------------------
 .byte   PATT
  .word Label_01005EC2
@  #06 @139   ----------------------------------------
 .byte   PATT
  .word Label_01005EC2
@  #06 @140   ----------------------------------------
 .byte   PATT
  .word Label_01005EC2
@  #06 @141   ----------------------------------------
 .byte   PATT
  .word Label_01005EDD
@  #06 @142   ----------------------------------------
 .byte   PATT
  .word Label_01005EEF
@  #06 @143   ----------------------------------------
 .byte   PATT
  .word Label_01005EFD
@  #06 @144   ----------------------------------------
 .byte   PATT
  .word Label_01005F08
@  #06 @145   ----------------------------------------
 .byte   PATT
  .word Label_01005EB0
@  #06 @146   ----------------------------------------
 .byte   PATT
  .word Label_01005EC2
@  #06 @147   ----------------------------------------
 .byte   PATT
  .word Label_01005EC2
@  #06 @148   ----------------------------------------
 .byte   PATT
  .word Label_01005EC2
@  #06 @149   ----------------------------------------
 .byte   PATT
  .word Label_01005F27
@  #06 @150   ----------------------------------------
 .byte   PATT
  .word Label_01005F35
@  #06 @151   ----------------------------------------
 .byte   PATT
  .word Label_01005F42
@  #06 @152   ----------------------------------------
 .byte   PATT
  .word Label_01005F4A
@  #06 @153   ----------------------------------------
 .byte   PATT
  .word Label_01005E40
@  #06 @154   ----------------------------------------
 .byte   PATT
  .word Label_01005E49
@  #06 @155   ----------------------------------------
 .byte   PATT
  .word Label_01005E51
@  #06 @156   ----------------------------------------
 .byte   PATT
  .word Label_01005E59
@  #06 @157   ----------------------------------------
 .byte   PATT
  .word Label_01005E61
@  #06 @158   ----------------------------------------
 .byte   PATT
  .word Label_01005E59
@  #06 @159   ----------------------------------------
 .byte   PATT
  .word Label_01005E6E
@  #06 @160   ----------------------------------------
 .byte   W60
 .byte   N32 ,Fn4 ,v080
 .byte   W36
@  #06 @161   ----------------------------------------
 .byte   GOTO
  .word Label_01005FA8
@  #06 @162   ----------------------------------------
 .byte   PATT
  .word Label_01005E40
@  #06 @163   ----------------------------------------
 .byte   PATT
  .word Label_01005E49
@  #06 @164   ----------------------------------------
 .byte   PATT
  .word Label_01005E51
@  #06 @165   ----------------------------------------
 .byte   PATT
  .word Label_01005E59
@  #06 @166   ----------------------------------------
 .byte   PATT
  .word Label_01005E61
@  #06 @167   ----------------------------------------
 .byte   PATT
  .word Label_01005E59
@  #06 @168   ----------------------------------------
 .byte   PATT
  .word Label_01005E6E
@  #06 @169   ----------------------------------------
 .byte   W60
 .byte   N32 ,Fn4 ,v080
 .byte   W32
 .byte   W03
 .byte   FINE

@**************** Track 7 (Midi-Chn.6) ****************@

RiversInTheDesert_007:
@  #07 @000   ----------------------------------------
 .byte   KEYSH , RiversInTheDesert_key+0
 .byte   VOICE , 41
 .byte   VOL , 24*RiversInTheDesert_mvl/mxv
 .byte   PAN , c_v+0
 .byte   W96
@  #07 @001   ----------------------------------------
 .byte   W96
@  #07 @002   ----------------------------------------
 .byte   W96
@  #07 @003   ----------------------------------------
 .byte   W96
@  #07 @004   ----------------------------------------
 .byte   W96
@  #07 @005   ----------------------------------------
 .byte   W96
@  #07 @006   ----------------------------------------
 .byte   W96
@  #07 @007   ----------------------------------------
 .byte   W96
@  #07 @008   ----------------------------------------
 .byte   W96
@  #07 @009   ----------------------------------------
 .byte   W96
@  #07 @010   ----------------------------------------
 .byte   W96
@  #07 @011   ----------------------------------------
 .byte   W96
@  #07 @012   ----------------------------------------
 .byte   W96
@  #07 @013   ----------------------------------------
 .byte   W96
@  #07 @014   ----------------------------------------
 .byte   W96
@  #07 @015   ----------------------------------------
 .byte   W96
@  #07 @016   ----------------------------------------
 .byte   W96
@  #07 @017   ----------------------------------------
 .byte   W96
@  #07 @018   ----------------------------------------
 .byte   W96
@  #07 @019   ----------------------------------------
 .byte   W96
@  #07 @020   ----------------------------------------
 .byte   W96
@  #07 @021   ----------------------------------------
 .byte   W96
@  #07 @022   ----------------------------------------
 .byte   W96
@  #07 @023   ----------------------------------------
 .byte   W96
@  #07 @024   ----------------------------------------
Label_01006160:
 .byte   N11 ,As3 ,v080
 .byte   W60
 .byte   N05
 .byte   W24
 .byte   An3
 .byte   W12
 .byte   PEND 
@  #07 @025   ----------------------------------------
Label_01006169:
 .byte   W60
 .byte   N05 ,An3 ,v080
 .byte   W24
 .byte   Gn3
 .byte   W12
 .byte   PEND 
@  #07 @026   ----------------------------------------
Label_01006171:
 .byte   W60
 .byte   N05 ,Gn3 ,v080
 .byte   W24
 .byte   An3
 .byte   W12
 .byte   PEND 
@  #07 @027   ----------------------------------------
Label_01006179:
 .byte   W60
 .byte   N05 ,An3 ,v080
 .byte   W24
 .byte   As3
 .byte   W12
 .byte   PEND 
@  #07 @028   ----------------------------------------
Label_01006181:
 .byte   W60
 .byte   N05 ,As3 ,v080
 .byte   W24
 .byte   An3
 .byte   W12
 .byte   PEND 
@  #07 @029   ----------------------------------------
 .byte   PATT
  .word Label_01006169
@  #07 @030   ----------------------------------------
 .byte   PATT
  .word Label_01006171
@  #07 @031   ----------------------------------------
 .byte   W60
 .byte   N32 ,An3 ,v080
 .byte   W36
@  #07 @032   ----------------------------------------
 .byte   W96
@  #07 @033   ----------------------------------------
 .byte   W96
@  #07 @034   ----------------------------------------
 .byte   W96
@  #07 @035   ----------------------------------------
 .byte   W96
@  #07 @036   ----------------------------------------
 .byte   W96
@  #07 @037   ----------------------------------------
 .byte   W96
@  #07 @038   ----------------------------------------
 .byte   TIE ,Gn3 ,v052
 .byte   W96
@  #07 @039   ----------------------------------------
 .byte   W56
 .byte   W03
 .byte   EOT
 .byte   W01
 .byte   N32 ,Fn3
 .byte   W36
@  #07 @040   ----------------------------------------
 .byte   TIE ,Ds3
 .byte   W96
@  #07 @041   ----------------------------------------
 .byte   W92
 .byte   W03
 .byte   EOT
 .byte   W01
@  #07 @042   ----------------------------------------
 .byte   TIE ,Cn3
 .byte   W96
@  #07 @043   ----------------------------------------
 .byte   W92
 .byte   W03
 .byte   EOT
 .byte   W01
@  #07 @044   ----------------------------------------
Label_010061B7:
 .byte   N56 ,Gn3 ,v052
 .byte   W60
 .byte   N11
 .byte   W24
 .byte   N68 ,Fn3
 .byte   W12
 .byte   PEND 
@  #07 @045   ----------------------------------------
 .byte   W60
 .byte   N32
 .byte   W36
@  #07 @046   ----------------------------------------
Label_010061C4:
 .byte   N56 ,Gn3 ,v052
 .byte   W60
 .byte   N11
 .byte   W24
 .byte   N56 ,Fn3
 .byte   W12
 .byte   PEND 
@  #07 @047   ----------------------------------------
 .byte   W96
@  #07 @048   ----------------------------------------
Label_010061CF:
 .byte   N11 ,As2 ,v080
 .byte   W24
 .byte   As3
 .byte   W12
 .byte   An3
 .byte   W12
 .byte   N05 ,As3
 .byte   W12
 .byte   An3
 .byte   W12
 .byte   As3
 .byte   W12
 .byte   Gn3
 .byte   W12
 .byte   PEND 
@  #07 @049   ----------------------------------------
Label_010061E1:
 .byte   W24
 .byte   N11 ,As3 ,v080
 .byte   W12
 .byte   An3
 .byte   W12
 .byte   N05 ,As3
 .byte   W12
 .byte   An3
 .byte   W12
 .byte   As3
 .byte   W12
 .byte   Gn3
 .byte   W12
 .byte   PEND 
@  #07 @050   ----------------------------------------
 .byte   PATT
  .word Label_010061E1
@  #07 @051   ----------------------------------------
 .byte   PATT
  .word Label_010061E1
@  #07 @052   ----------------------------------------
Label_010061FC:
 .byte   W24
 .byte   N11 ,As3 ,v080
 .byte   W12
 .byte   An3
 .byte   W12
 .byte   As3
 .byte   W12
 .byte   Cn4
 .byte   W12
 .byte   N05 ,Dn4
 .byte   W12
 .byte   N56 ,Cn4
 .byte   W12
 .byte   PEND 
@  #07 @053   ----------------------------------------
Label_0100620E:
 .byte   W48
 .byte   N11 ,Cn4 ,v080
 .byte   W12
 .byte   Dn4
 .byte   W12
 .byte   N05 ,Ds4
 .byte   W12
 .byte   N68 ,En4
 .byte   W12
 .byte   PEND 
@  #07 @054   ----------------------------------------
Label_0100621C:
 .byte   W60
 .byte   N23 ,En4 ,v080
 .byte   W24
 .byte   N05 ,Fn4
 .byte   W12
 .byte   PEND 
@  #07 @055   ----------------------------------------
Label_01006225:
 .byte   W12
 .byte   N05 ,Cn4 ,v080
 .byte   W24
 .byte   Ds4
 .byte   W24
 .byte   N32 ,Dn4
 .byte   W36
 .byte   PEND 
@  #07 @056   ----------------------------------------
 .byte   PATT
  .word Label_010061CF
@  #07 @057   ----------------------------------------
 .byte   PATT
  .word Label_010061E1
@  #07 @058   ----------------------------------------
 .byte   PATT
  .word Label_010061E1
@  #07 @059   ----------------------------------------
 .byte   PATT
  .word Label_010061E1
@  #07 @060   ----------------------------------------
Label_01006244:
 .byte   W24
 .byte   N11 ,As3 ,v080
 .byte   W12
 .byte   An3
 .byte   W12
 .byte   As3
 .byte   W12
 .byte   Cn4
 .byte   W12
 .byte   Dn4
 .byte   W24
 .byte   PEND 
@  #07 @061   ----------------------------------------
Label_01006252:
 .byte   N32 ,Cn4 ,v080
 .byte   W36
 .byte   N11 ,An3
 .byte   W24
 .byte   N11
 .byte   W24
 .byte   N56 ,Gn3
 .byte   W12
 .byte   PEND 
@  #07 @062   ----------------------------------------
Label_0100625F:
 .byte   W60
 .byte   N11 ,Gn4 ,v080
 .byte   W12
 .byte   An4
 .byte   W24
 .byte   PEND 
@  #07 @063   ----------------------------------------
Label_01006267:
 .byte   N11 ,As4 ,v080
 .byte   W12
 .byte   An4
 .byte   W24
 .byte   Dn4
 .byte   W24
 .byte   N32 ,As3
 .byte   W36
 .byte   PEND 
@  #07 @064   ----------------------------------------
 .byte   Gn3
 .byte   W36
 .byte   N56 ,Gn4
 .byte   W60
@  #07 @065   ----------------------------------------
 .byte   N07 ,An4
 .byte   W08
 .byte   Fn4
 .byte   W08
 .byte   Cn4
 .byte   W08
 .byte   Cs4
 .byte   W08
 .byte   As3
 .byte   W08
 .byte   Gn3
 .byte   W08
 .byte   Gs3
 .byte   W08
 .byte   Fn3
 .byte   W08
 .byte   Cn3
 .byte   W08
 .byte   N11 ,Cs3
 .byte   W12
 .byte   N44 ,Dn3
 .byte   W12
@  #07 @066   ----------------------------------------
 .byte   W36
 .byte   Gn3
 .byte   W48
 .byte   Fn3
 .byte   W12
@  #07 @067   ----------------------------------------
 .byte   W36
 .byte   N23 ,Gn3
 .byte   W24
 .byte   Cs4
 .byte   W24
 .byte   N11 ,Dn4
 .byte   W12
@  #07 @068   ----------------------------------------
 .byte   W24
 .byte   N68 ,Gn4
 .byte   W72
@  #07 @069   ----------------------------------------
 .byte   N07 ,An4
 .byte   W08
 .byte   Fn4
 .byte   W08
 .byte   Cn4
 .byte   W08
 .byte   Cs4
 .byte   W08
 .byte   As3
 .byte   W08
 .byte   Gn3
 .byte   W08
 .byte   N11 ,As3
 .byte   W18
 .byte   Dn4
 .byte   W18
 .byte   N56 ,Gn3
 .byte   W12
@  #07 @070   ----------------------------------------
 .byte   W48
 .byte   N11
 .byte   W12
 .byte   N11
 .byte   W24
 .byte   N56 ,Fn3
 .byte   W12
@  #07 @071   ----------------------------------------
 .byte   W48
 .byte   N11
 .byte   W24
 .byte   N11
 .byte   W24
@  #07 @072   ----------------------------------------
Label_010062C5:
@  #07 @073   ----------------------------------------
 .byte   PATT
  .word Label_01006160
@  #07 @074   ----------------------------------------
 .byte   PATT
  .word Label_01006169
@  #07 @075   ----------------------------------------
 .byte   PATT
  .word Label_01006171
@  #07 @076   ----------------------------------------
 .byte   PATT
  .word Label_01006179
@  #07 @077   ----------------------------------------
 .byte   PATT
  .word Label_01006181
@  #07 @078   ----------------------------------------
 .byte   PATT
  .word Label_01006169
@  #07 @079   ----------------------------------------
 .byte   PATT
  .word Label_01006171
@  #07 @080   ----------------------------------------
 .byte   W60
 .byte   N32 ,An3 ,v080
 .byte   W36
@  #07 @081   ----------------------------------------
 .byte   W96
@  #07 @082   ----------------------------------------
 .byte   W96
@  #07 @083   ----------------------------------------
 .byte   W96
@  #07 @084   ----------------------------------------
 .byte   W96
@  #07 @085   ----------------------------------------
 .byte   W96
@  #07 @086   ----------------------------------------
 .byte   W96
@  #07 @087   ----------------------------------------
 .byte   TIE ,Gn3 ,v052
 .byte   W96
@  #07 @088   ----------------------------------------
 .byte   W56
 .byte   W03
 .byte   EOT
 .byte   W01
 .byte   N32 ,Fn3
 .byte   W36
@  #07 @089   ----------------------------------------
 .byte   TIE ,Ds3
 .byte   W96
@  #07 @090   ----------------------------------------
 .byte   W92
 .byte   W03
 .byte   EOT
 .byte   W01
@  #07 @091   ----------------------------------------
 .byte   TIE ,Cn3
 .byte   W96
@  #07 @092   ----------------------------------------
 .byte   W92
 .byte   W03
 .byte   EOT
 .byte   W01
@  #07 @093   ----------------------------------------
 .byte   PATT
  .word Label_010061B7
@  #07 @094   ----------------------------------------
 .byte   W60
 .byte   N32 ,Fn3 ,v052
 .byte   W36
@  #07 @095   ----------------------------------------
 .byte   PATT
  .word Label_010061C4
@  #07 @096   ----------------------------------------
 .byte   W96
@  #07 @097   ----------------------------------------
 .byte   PATT
  .word Label_010061CF
@  #07 @098   ----------------------------------------
 .byte   PATT
  .word Label_010061E1
@  #07 @099   ----------------------------------------
 .byte   PATT
  .word Label_010061E1
@  #07 @100   ----------------------------------------
 .byte   PATT
  .word Label_010061E1
@  #07 @101   ----------------------------------------
 .byte   PATT
  .word Label_010061FC
@  #07 @102   ----------------------------------------
 .byte   PATT
  .word Label_0100620E
@  #07 @103   ----------------------------------------
 .byte   PATT
  .word Label_0100621C
@  #07 @104   ----------------------------------------
 .byte   PATT
  .word Label_01006225
@  #07 @105   ----------------------------------------
 .byte   PATT
  .word Label_010061CF
@  #07 @106   ----------------------------------------
 .byte   PATT
  .word Label_010061E1
@  #07 @107   ----------------------------------------
 .byte   PATT
  .word Label_010061E1
@  #07 @108   ----------------------------------------
 .byte   PATT
  .word Label_010061E1
@  #07 @109   ----------------------------------------
 .byte   PATT
  .word Label_01006244
@  #07 @110   ----------------------------------------
 .byte   PATT
  .word Label_01006252
@  #07 @111   ----------------------------------------
 .byte   PATT
  .word Label_0100625F
@  #07 @112   ----------------------------------------
 .byte   PATT
  .word Label_01006267
@  #07 @113   ----------------------------------------
 .byte   PATT
  .word Label_01006160
@  #07 @114   ----------------------------------------
 .byte   PATT
  .word Label_01006169
@  #07 @115   ----------------------------------------
 .byte   PATT
  .word Label_01006171
@  #07 @116   ----------------------------------------
 .byte   PATT
  .word Label_01006179
@  #07 @117   ----------------------------------------
 .byte   PATT
  .word Label_01006181
@  #07 @118   ----------------------------------------
 .byte   PATT
  .word Label_01006169
@  #07 @119   ----------------------------------------
 .byte   PATT
  .word Label_01006171
@  #07 @120   ----------------------------------------
 .byte   W60
 .byte   N32 ,An3 ,v080
 .byte   W36
@  #07 @121   ----------------------------------------
 .byte   W96
@  #07 @122   ----------------------------------------
 .byte   W96
@  #07 @123   ----------------------------------------
 .byte   W96
@  #07 @124   ----------------------------------------
 .byte   W96
@  #07 @125   ----------------------------------------
 .byte   W96
@  #07 @126   ----------------------------------------
 .byte   W96
@  #07 @127   ----------------------------------------
 .byte   W96
@  #07 @128   ----------------------------------------
 .byte   W96
@  #07 @129   ----------------------------------------
 .byte   W96
@  #07 @130   ----------------------------------------
 .byte   W96
@  #07 @131   ----------------------------------------
 .byte   W96
@  #07 @132   ----------------------------------------
 .byte   W96
@  #07 @133   ----------------------------------------
 .byte   W96
@  #07 @134   ----------------------------------------
 .byte   W96
@  #07 @135   ----------------------------------------
 .byte   W96
@  #07 @136   ----------------------------------------
 .byte   W96
@  #07 @137   ----------------------------------------
 .byte   PATT
  .word Label_010061CF
@  #07 @138   ----------------------------------------
 .byte   PATT
  .word Label_010061E1
@  #07 @139   ----------------------------------------
 .byte   PATT
  .word Label_010061E1
@  #07 @140   ----------------------------------------
 .byte   PATT
  .word Label_010061E1
@  #07 @141   ----------------------------------------
 .byte   PATT
  .word Label_010061FC
@  #07 @142   ----------------------------------------
 .byte   PATT
  .word Label_0100620E
@  #07 @143   ----------------------------------------
 .byte   PATT
  .word Label_0100621C
@  #07 @144   ----------------------------------------
 .byte   PATT
  .word Label_01006225
@  #07 @145   ----------------------------------------
 .byte   PATT
  .word Label_010061CF
@  #07 @146   ----------------------------------------
 .byte   PATT
  .word Label_010061E1
@  #07 @147   ----------------------------------------
 .byte   PATT
  .word Label_010061E1
@  #07 @148   ----------------------------------------
 .byte   PATT
  .word Label_010061E1
@  #07 @149   ----------------------------------------
 .byte   PATT
  .word Label_01006244
@  #07 @150   ----------------------------------------
 .byte   PATT
  .word Label_01006252
@  #07 @151   ----------------------------------------
 .byte   PATT
  .word Label_0100625F
@  #07 @152   ----------------------------------------
 .byte   PATT
  .word Label_01006267
@  #07 @153   ----------------------------------------
 .byte   PATT
  .word Label_01006160
@  #07 @154   ----------------------------------------
 .byte   PATT
  .word Label_01006169
@  #07 @155   ----------------------------------------
 .byte   PATT
  .word Label_01006171
@  #07 @156   ----------------------------------------
 .byte   PATT
  .word Label_01006179
@  #07 @157   ----------------------------------------
 .byte   PATT
  .word Label_01006181
@  #07 @158   ----------------------------------------
 .byte   PATT
  .word Label_01006169
@  #07 @159   ----------------------------------------
 .byte   PATT
  .word Label_01006171
@  #07 @160   ----------------------------------------
 .byte   W60
 .byte   N32 ,An3 ,v080
 .byte   W36
@  #07 @161   ----------------------------------------
 .byte   GOTO
  .word Label_010062C5
@  #07 @162   ----------------------------------------
 .byte   PATT
  .word Label_01006160
@  #07 @163   ----------------------------------------
 .byte   PATT
  .word Label_01006169
@  #07 @164   ----------------------------------------
 .byte   PATT
  .word Label_01006171
@  #07 @165   ----------------------------------------
 .byte   PATT
  .word Label_01006179
@  #07 @166   ----------------------------------------
 .byte   PATT
  .word Label_01006181
@  #07 @167   ----------------------------------------
 .byte   PATT
  .word Label_01006169
@  #07 @168   ----------------------------------------
 .byte   PATT
  .word Label_01006171
@  #07 @169   ----------------------------------------
 .byte   W60
 .byte   N32 ,An3 ,v080
 .byte   W32
 .byte   W03
 .byte   FINE

@**************** Track 8 (Midi-Chn.7) ****************@

RiversInTheDesert_008:
@  #08 @000   ----------------------------------------
 .byte   KEYSH , RiversInTheDesert_key+0
 .byte   VOICE , 41
 .byte   VOL , 24*RiversInTheDesert_mvl/mxv
 .byte   PAN , c_v+0
 .byte   W96
@  #08 @001   ----------------------------------------
 .byte   W96
@  #08 @002   ----------------------------------------
 .byte   W96
@  #08 @003   ----------------------------------------
 .byte   W96
@  #08 @004   ----------------------------------------
 .byte   W96
@  #08 @005   ----------------------------------------
 .byte   W96
@  #08 @006   ----------------------------------------
 .byte   W96
@  #08 @007   ----------------------------------------
 .byte   W96
@  #08 @008   ----------------------------------------
 .byte   W96
@  #08 @009   ----------------------------------------
 .byte   W96
@  #08 @010   ----------------------------------------
 .byte   W96
@  #08 @011   ----------------------------------------
 .byte   W96
@  #08 @012   ----------------------------------------
 .byte   W96
@  #08 @013   ----------------------------------------
 .byte   W96
@  #08 @014   ----------------------------------------
 .byte   W96
@  #08 @015   ----------------------------------------
 .byte   W96
@  #08 @016   ----------------------------------------
 .byte   W96
@  #08 @017   ----------------------------------------
 .byte   W96
@  #08 @018   ----------------------------------------
 .byte   W96
@  #08 @019   ----------------------------------------
 .byte   W96
@  #08 @020   ----------------------------------------
 .byte   W96
@  #08 @021   ----------------------------------------
 .byte   W96
@  #08 @022   ----------------------------------------
 .byte   W96
@  #08 @023   ----------------------------------------
 .byte   W96
@  #08 @024   ----------------------------------------
Label_0100647C:
 .byte   N11 ,Gn3 ,v080
 .byte   W60
 .byte   N05
 .byte   W24
 .byte   Fn3
 .byte   W12
 .byte   PEND 
@  #08 @025   ----------------------------------------
Label_01006485:
 .byte   W60
 .byte   N05 ,Fn3 ,v080
 .byte   W24
 .byte   En3
 .byte   W12
 .byte   PEND 
@  #08 @026   ----------------------------------------
Label_0100648D:
 .byte   W60
 .byte   N05 ,En3 ,v080
 .byte   W24
 .byte   Fn3
 .byte   W12
 .byte   PEND 
@  #08 @027   ----------------------------------------
Label_01006495:
 .byte   W60
 .byte   N05 ,Fn3 ,v080
 .byte   W24
 .byte   Gn3
 .byte   W12
 .byte   PEND 
@  #08 @028   ----------------------------------------
Label_0100649D:
 .byte   W60
 .byte   N05 ,Gn3 ,v080
 .byte   W24
 .byte   Fn3
 .byte   W12
 .byte   PEND 
@  #08 @029   ----------------------------------------
 .byte   PATT
  .word Label_01006485
@  #08 @030   ----------------------------------------
 .byte   PATT
  .word Label_0100648D
@  #08 @031   ----------------------------------------
 .byte   W60
 .byte   N32 ,Fn3 ,v080
 .byte   W36
@  #08 @032   ----------------------------------------
 .byte   W96
@  #08 @033   ----------------------------------------
 .byte   W96
@  #08 @034   ----------------------------------------
 .byte   W96
@  #08 @035   ----------------------------------------
 .byte   W96
@  #08 @036   ----------------------------------------
 .byte   W96
@  #08 @037   ----------------------------------------
 .byte   W96
@  #08 @038   ----------------------------------------
 .byte   TIE ,As2 ,v052
 .byte   W96
@  #08 @039   ----------------------------------------
 .byte   W56
 .byte   W03
 .byte   EOT
 .byte   W01
 .byte   N32 ,An2
 .byte   W36
@  #08 @040   ----------------------------------------
 .byte   TIE ,Gn2
 .byte   W96
@  #08 @041   ----------------------------------------
 .byte   W92
 .byte   W03
 .byte   EOT
 .byte   W01
@  #08 @042   ----------------------------------------
 .byte   TIE
 .byte   W96
@  #08 @043   ----------------------------------------
 .byte   W92
 .byte   W03
 .byte   EOT
 .byte   W01
@  #08 @044   ----------------------------------------
Label_010064D2:
 .byte   N56 ,As2 ,v052
 .byte   W60
 .byte   N11
 .byte   W24
 .byte   N68 ,An2
 .byte   W12
 .byte   PEND 
@  #08 @045   ----------------------------------------
 .byte   W60
 .byte   N32
 .byte   W36
@  #08 @046   ----------------------------------------
Label_010064DF:
 .byte   N56 ,As2 ,v052
 .byte   W60
 .byte   N11
 .byte   W24
 .byte   N56 ,An2
 .byte   W12
 .byte   PEND 
@  #08 @047   ----------------------------------------
 .byte   W96
@  #08 @048   ----------------------------------------
Label_010064EA:
 .byte   N11 ,Gn2 ,v080
 .byte   W24
 .byte   Gn3
 .byte   W12
 .byte   Fn3
 .byte   W12
 .byte   N05 ,Gn3
 .byte   W12
 .byte   Fn3
 .byte   W12
 .byte   Gn3
 .byte   W12
 .byte   Gn2
 .byte   W12
 .byte   PEND 
@  #08 @049   ----------------------------------------
Label_010064FC:
 .byte   W24
 .byte   N11 ,Gn3 ,v080
 .byte   W12
 .byte   Fn3
 .byte   W12
 .byte   N05 ,Gn3
 .byte   W12
 .byte   Fn3
 .byte   W12
 .byte   Gn3
 .byte   W12
 .byte   Gn2
 .byte   W12
 .byte   PEND 
@  #08 @050   ----------------------------------------
 .byte   PATT
  .word Label_010064FC
@  #08 @051   ----------------------------------------
 .byte   PATT
  .word Label_010064FC
@  #08 @052   ----------------------------------------
Label_01006517:
 .byte   W24
 .byte   N11 ,Gn3 ,v080
 .byte   W12
 .byte   Fn3
 .byte   W12
 .byte   Gn3
 .byte   W12
 .byte   An3
 .byte   W12
 .byte   N05 ,As3
 .byte   W12
 .byte   N56 ,An3
 .byte   W12
 .byte   PEND 
@  #08 @053   ----------------------------------------
Label_01006529:
 .byte   W48
 .byte   N11 ,An3 ,v080
 .byte   W12
 .byte   As3
 .byte   W12
 .byte   N05 ,Cn4
 .byte   W12
 .byte   N68 ,As3
 .byte   W12
 .byte   PEND 
@  #08 @054   ----------------------------------------
Label_01006537:
 .byte   W60
 .byte   N11 ,As3 ,v080
 .byte   W12
 .byte   Cn4
 .byte   W12
 .byte   N05 ,Dn4
 .byte   W12
 .byte   PEND 
@  #08 @055   ----------------------------------------
Label_01006542:
 .byte   W12
 .byte   N05 ,An3 ,v080
 .byte   W24
 .byte   Cn4
 .byte   W24
 .byte   N32 ,As3
 .byte   W36
 .byte   PEND 
@  #08 @056   ----------------------------------------
 .byte   PATT
  .word Label_010064EA
@  #08 @057   ----------------------------------------
 .byte   PATT
  .word Label_010064FC
@  #08 @058   ----------------------------------------
 .byte   PATT
  .word Label_010064FC
@  #08 @059   ----------------------------------------
 .byte   PATT
  .word Label_010064FC
@  #08 @060   ----------------------------------------
Label_01006561:
 .byte   W24
 .byte   N11 ,Gn3 ,v080
 .byte   W12
 .byte   Fn3
 .byte   W12
 .byte   Gn3
 .byte   W12
 .byte   An3
 .byte   W12
 .byte   As3
 .byte   W24
 .byte   PEND 
@  #08 @061   ----------------------------------------
Label_0100656F:
 .byte   N32 ,An3 ,v080
 .byte   W36
 .byte   N11 ,Fn3
 .byte   W24
 .byte   N11
 .byte   W24
 .byte   N56 ,Gn3
 .byte   W12
 .byte   PEND 
@  #08 @062   ----------------------------------------
Label_0100657C:
 .byte   W60
 .byte   N11 ,As3 ,v080
 .byte   W12
 .byte   Cn4
 .byte   W24
 .byte   PEND 
@  #08 @063   ----------------------------------------
Label_01006584:
 .byte   N11 ,Cs4 ,v080
 .byte   W12
 .byte   Cn4
 .byte   W24
 .byte   As3
 .byte   W24
 .byte   N32 ,Gn3
 .byte   W36
 .byte   PEND 
@  #08 @064   ----------------------------------------
 .byte   Gn2
 .byte   W36
 .byte   N56 ,Gn3
 .byte   W60
@  #08 @065   ----------------------------------------
 .byte   N07 ,An3
 .byte   W08
 .byte   Fn3
 .byte   W08
 .byte   Cn3
 .byte   W08
 .byte   Cs3
 .byte   W08
 .byte   As2
 .byte   W08
 .byte   Gn2
 .byte   W08
 .byte   Gs2
 .byte   W08
 .byte   Fn2
 .byte   W08
 .byte   Cn2
 .byte   W08
 .byte   N11 ,Cs2
 .byte   W12
 .byte   N44 ,Dn2
 .byte   W12
@  #08 @066   ----------------------------------------
 .byte   W36
 .byte   Dn3
 .byte   W48
 .byte   Cn3
 .byte   W12
@  #08 @067   ----------------------------------------
 .byte   W36
 .byte   N23 ,As2
 .byte   W24
 .byte   An2
 .byte   W24
 .byte   N11 ,Dn3
 .byte   W12
@  #08 @068   ----------------------------------------
 .byte   W24
 .byte   N68
 .byte   W72
@  #08 @069   ----------------------------------------
 .byte   N07 ,As2
 .byte   W08
 .byte   Cn3
 .byte   W08
 .byte   Cs3
 .byte   W08
 .byte   Fn3
 .byte   W08
 .byte   Cs3
 .byte   W08
 .byte   Fn3
 .byte   W08
 .byte   N11 ,Dn3
 .byte   W18
 .byte   Fn3
 .byte   W18
 .byte   N56 ,En3
 .byte   W12
@  #08 @070   ----------------------------------------
 .byte   W48
 .byte   N11
 .byte   W12
 .byte   N11
 .byte   W24
 .byte   N56 ,Fn3
 .byte   W12
@  #08 @071   ----------------------------------------
 .byte   W48
 .byte   N11
 .byte   W24
 .byte   N11
 .byte   W24
@  #08 @072   ----------------------------------------
Label_010065E1:
@  #08 @073   ----------------------------------------
 .byte   PATT
  .word Label_0100647C
@  #08 @074   ----------------------------------------
 .byte   PATT
  .word Label_01006485
@  #08 @075   ----------------------------------------
 .byte   PATT
  .word Label_0100648D
@  #08 @076   ----------------------------------------
 .byte   PATT
  .word Label_01006495
@  #08 @077   ----------------------------------------
 .byte   PATT
  .word Label_0100649D
@  #08 @078   ----------------------------------------
 .byte   PATT
  .word Label_01006485
@  #08 @079   ----------------------------------------
 .byte   PATT
  .word Label_0100648D
@  #08 @080   ----------------------------------------
 .byte   W60
 .byte   N32 ,Fn3 ,v080
 .byte   W36
@  #08 @081   ----------------------------------------
 .byte   W96
@  #08 @082   ----------------------------------------
 .byte   W96
@  #08 @083   ----------------------------------------
 .byte   W96
@  #08 @084   ----------------------------------------
 .byte   W96
@  #08 @085   ----------------------------------------
 .byte   W96
@  #08 @086   ----------------------------------------
 .byte   W96
@  #08 @087   ----------------------------------------
 .byte   TIE ,As2 ,v052
 .byte   W96
@  #08 @088   ----------------------------------------
 .byte   W56
 .byte   W03
 .byte   EOT
 .byte   W01
 .byte   N32 ,An2
 .byte   W36
@  #08 @089   ----------------------------------------
 .byte   TIE ,Gn2
 .byte   W96
@  #08 @090   ----------------------------------------
 .byte   W92
 .byte   W03
 .byte   EOT
 .byte   W01
@  #08 @091   ----------------------------------------
 .byte   TIE
 .byte   W96
@  #08 @092   ----------------------------------------
 .byte   W92
 .byte   W03
 .byte   EOT
 .byte   W01
@  #08 @093   ----------------------------------------
 .byte   PATT
  .word Label_010064D2
@  #08 @094   ----------------------------------------
 .byte   W60
 .byte   N32 ,An2 ,v052
 .byte   W36
@  #08 @095   ----------------------------------------
 .byte   PATT
  .word Label_010064DF
@  #08 @096   ----------------------------------------
 .byte   W96
@  #08 @097   ----------------------------------------
 .byte   PATT
  .word Label_010064EA
@  #08 @098   ----------------------------------------
 .byte   PATT
  .word Label_010064FC
@  #08 @099   ----------------------------------------
 .byte   PATT
  .word Label_010064FC
@  #08 @100   ----------------------------------------
 .byte   PATT
  .word Label_010064FC
@  #08 @101   ----------------------------------------
 .byte   PATT
  .word Label_01006517
@  #08 @102   ----------------------------------------
 .byte   PATT
  .word Label_01006529
@  #08 @103   ----------------------------------------
 .byte   PATT
  .word Label_01006537
@  #08 @104   ----------------------------------------
 .byte   PATT
  .word Label_01006542
@  #08 @105   ----------------------------------------
 .byte   PATT
  .word Label_010064EA
@  #08 @106   ----------------------------------------
 .byte   PATT
  .word Label_010064FC
@  #08 @107   ----------------------------------------
 .byte   PATT
  .word Label_010064FC
@  #08 @108   ----------------------------------------
 .byte   PATT
  .word Label_010064FC
@  #08 @109   ----------------------------------------
 .byte   PATT
  .word Label_01006561
@  #08 @110   ----------------------------------------
 .byte   PATT
  .word Label_0100656F
@  #08 @111   ----------------------------------------
 .byte   PATT
  .word Label_0100657C
@  #08 @112   ----------------------------------------
 .byte   PATT
  .word Label_01006584
@  #08 @113   ----------------------------------------
 .byte   PATT
  .word Label_0100647C
@  #08 @114   ----------------------------------------
 .byte   PATT
  .word Label_01006485
@  #08 @115   ----------------------------------------
 .byte   PATT
  .word Label_0100648D
@  #08 @116   ----------------------------------------
 .byte   PATT
  .word Label_01006495
@  #08 @117   ----------------------------------------
 .byte   PATT
  .word Label_0100649D
@  #08 @118   ----------------------------------------
 .byte   PATT
  .word Label_01006485
@  #08 @119   ----------------------------------------
 .byte   PATT
  .word Label_0100648D
@  #08 @120   ----------------------------------------
 .byte   W60
 .byte   N32 ,Fn3 ,v080
 .byte   W36
@  #08 @121   ----------------------------------------
 .byte   W96
@  #08 @122   ----------------------------------------
 .byte   W96
@  #08 @123   ----------------------------------------
 .byte   W96
@  #08 @124   ----------------------------------------
 .byte   W96
@  #08 @125   ----------------------------------------
 .byte   W96
@  #08 @126   ----------------------------------------
 .byte   W96
@  #08 @127   ----------------------------------------
 .byte   W96
@  #08 @128   ----------------------------------------
 .byte   W96
@  #08 @129   ----------------------------------------
 .byte   W96
@  #08 @130   ----------------------------------------
 .byte   W96
@  #08 @131   ----------------------------------------
 .byte   W96
@  #08 @132   ----------------------------------------
 .byte   W96
@  #08 @133   ----------------------------------------
 .byte   W96
@  #08 @134   ----------------------------------------
 .byte   W96
@  #08 @135   ----------------------------------------
 .byte   W96
@  #08 @136   ----------------------------------------
 .byte   W96
@  #08 @137   ----------------------------------------
 .byte   PATT
  .word Label_010064EA
@  #08 @138   ----------------------------------------
 .byte   PATT
  .word Label_010064FC
@  #08 @139   ----------------------------------------
 .byte   PATT
  .word Label_010064FC
@  #08 @140   ----------------------------------------
 .byte   PATT
  .word Label_010064FC
@  #08 @141   ----------------------------------------
 .byte   PATT
  .word Label_01006517
@  #08 @142   ----------------------------------------
 .byte   PATT
  .word Label_01006529
@  #08 @143   ----------------------------------------
 .byte   PATT
  .word Label_01006537
@  #08 @144   ----------------------------------------
 .byte   PATT
  .word Label_01006542
@  #08 @145   ----------------------------------------
 .byte   PATT
  .word Label_010064EA
@  #08 @146   ----------------------------------------
 .byte   PATT
  .word Label_010064FC
@  #08 @147   ----------------------------------------
 .byte   PATT
  .word Label_010064FC
@  #08 @148   ----------------------------------------
 .byte   PATT
  .word Label_010064FC
@  #08 @149   ----------------------------------------
 .byte   PATT
  .word Label_01006561
@  #08 @150   ----------------------------------------
 .byte   PATT
  .word Label_0100656F
@  #08 @151   ----------------------------------------
 .byte   PATT
  .word Label_0100657C
@  #08 @152   ----------------------------------------
 .byte   PATT
  .word Label_01006584
@  #08 @153   ----------------------------------------
 .byte   PATT
  .word Label_0100647C
@  #08 @154   ----------------------------------------
 .byte   PATT
  .word Label_01006485
@  #08 @155   ----------------------------------------
 .byte   PATT
  .word Label_0100648D
@  #08 @156   ----------------------------------------
 .byte   PATT
  .word Label_01006495
@  #08 @157   ----------------------------------------
 .byte   PATT
  .word Label_0100649D
@  #08 @158   ----------------------------------------
 .byte   PATT
  .word Label_01006485
@  #08 @159   ----------------------------------------
 .byte   PATT
  .word Label_0100648D
@  #08 @160   ----------------------------------------
 .byte   W60
 .byte   N32 ,Fn3 ,v080
 .byte   W36
@  #08 @161   ----------------------------------------
 .byte   GOTO
  .word Label_010065E1
@  #08 @162   ----------------------------------------
 .byte   PATT
  .word Label_0100647C
@  #08 @163   ----------------------------------------
 .byte   PATT
  .word Label_01006485
@  #08 @164   ----------------------------------------
 .byte   PATT
  .word Label_0100648D
@  #08 @165   ----------------------------------------
 .byte   PATT
  .word Label_01006495
@  #08 @166   ----------------------------------------
 .byte   PATT
  .word Label_0100649D
@  #08 @167   ----------------------------------------
 .byte   PATT
  .word Label_01006485
@  #08 @168   ----------------------------------------
 .byte   PATT
  .word Label_0100648D
@  #08 @169   ----------------------------------------
 .byte   W60
 .byte   N32 ,Fn3 ,v080
 .byte   W32
 .byte   W03
 .byte   FINE

@**************** Track 9 (Midi-Chn.8) ****************@

RiversInTheDesert_009:
@  #09 @000   ----------------------------------------
 .byte   KEYSH , RiversInTheDesert_key+0
 .byte   VOICE , 41
 .byte   VOL , 18*RiversInTheDesert_mvl/mxv
 .byte   PAN , c_v+0
 .byte   W96
@  #09 @001   ----------------------------------------
 .byte   W96
@  #09 @002   ----------------------------------------
 .byte   W96
@  #09 @003   ----------------------------------------
 .byte   W96
@  #09 @004   ----------------------------------------
 .byte   W96
@  #09 @005   ----------------------------------------
 .byte   W96
@  #09 @006   ----------------------------------------
 .byte   W96
@  #09 @007   ----------------------------------------
 .byte   W96
@  #09 @008   ----------------------------------------
 .byte   W96
@  #09 @009   ----------------------------------------
 .byte   W96
@  #09 @010   ----------------------------------------
 .byte   W96
@  #09 @011   ----------------------------------------
 .byte   W96
@  #09 @012   ----------------------------------------
 .byte   W96
@  #09 @013   ----------------------------------------
 .byte   W96
@  #09 @014   ----------------------------------------
 .byte   W96
@  #09 @015   ----------------------------------------
 .byte   W96
@  #09 @016   ----------------------------------------
 .byte   W96
@  #09 @017   ----------------------------------------
 .byte   W96
@  #09 @018   ----------------------------------------
 .byte   W96
@  #09 @019   ----------------------------------------
 .byte   W96
@  #09 @020   ----------------------------------------
 .byte   W96
@  #09 @021   ----------------------------------------
 .byte   W96
@  #09 @022   ----------------------------------------
 .byte   W96
@  #09 @023   ----------------------------------------
 .byte   W96
@  #09 @024   ----------------------------------------
Label_01006798:
 .byte   N23 ,Gn1 ,v080
 .byte   W24
 .byte   N05 ,Gn2
 .byte   W12
 .byte   Gn1
 .byte   W12
 .byte   N05
 .byte   W12
 .byte   N23
 .byte   W24
 .byte   N32 ,Fn1
 .byte   W12
 .byte   PEND 
@  #09 @025   ----------------------------------------
Label_010067A9:
 .byte   W24
 .byte   N05 ,Fn2 ,v080
 .byte   W12
 .byte   Fn1
 .byte   W12
 .byte   N05
 .byte   W12
 .byte   N23
 .byte   W24
 .byte   N32 ,En1
 .byte   W12
 .byte   PEND 
@  #09 @026   ----------------------------------------
Label_010067B8:
 .byte   W24
 .byte   N05 ,En2 ,v080
 .byte   W12
 .byte   En1
 .byte   W12
 .byte   N05
 .byte   W12
 .byte   N23
 .byte   W24
 .byte   N32 ,Fn1
 .byte   W12
 .byte   PEND 
@  #09 @027   ----------------------------------------
Label_010067C7:
 .byte   W24
 .byte   N05 ,Fn2 ,v080
 .byte   W12
 .byte   Fn1
 .byte   W12
 .byte   N05
 .byte   W12
 .byte   N23
 .byte   W24
 .byte   N32 ,Gn1
 .byte   W12
 .byte   PEND 
@  #09 @028   ----------------------------------------
Label_010067D6:
 .byte   W24
 .byte   N05 ,Gn2 ,v080
 .byte   W12
 .byte   Gn1
 .byte   W12
 .byte   N05
 .byte   W12
 .byte   N23
 .byte   W24
 .byte   N32 ,Fn1
 .byte   W12
 .byte   PEND 
@  #09 @029   ----------------------------------------
 .byte   PATT
  .word Label_010067A9
@  #09 @030   ----------------------------------------
 .byte   PATT
  .word Label_010067B8
@  #09 @031   ----------------------------------------
Label_010067EF:
 .byte   W24
 .byte   N05 ,Fn2 ,v080
 .byte   W12
 .byte   Fn1
 .byte   W12
 .byte   N05
 .byte   W12
 .byte   N32
 .byte   W36
 .byte   PEND 
@  #09 @032   ----------------------------------------
 .byte   W96
@  #09 @033   ----------------------------------------
 .byte   W96
@  #09 @034   ----------------------------------------
 .byte   W96
@  #09 @035   ----------------------------------------
 .byte   W96
@  #09 @036   ----------------------------------------
 .byte   W96
@  #09 @037   ----------------------------------------
 .byte   W96
@  #09 @038   ----------------------------------------
 .byte   TIE ,Gn1 ,v052
 .byte   W96
@  #09 @039   ----------------------------------------
 .byte   W56
 .byte   W03
 .byte   EOT
 .byte   W01
 .byte   N32 ,Fn1
 .byte   W36
@  #09 @040   ----------------------------------------
 .byte   TIE ,Ds1
 .byte   W96
@  #09 @041   ----------------------------------------
 .byte   W92
 .byte   W03
 .byte   EOT
 .byte   W01
@  #09 @042   ----------------------------------------
 .byte   TIE ,Cn1
 .byte   W96
@  #09 @043   ----------------------------------------
 .byte   W56
 .byte   W03
 .byte   EOT
 .byte   W01
 .byte   N32 ,Dn1
 .byte   W36
@  #09 @044   ----------------------------------------
Label_0100681D:
 .byte   N56 ,Gn1 ,v052
 .byte   W60
 .byte   N11
 .byte   W24
 .byte   N68 ,Fn1
 .byte   W12
 .byte   PEND 
@  #09 @045   ----------------------------------------
 .byte   W60
 .byte   N32
 .byte   W36
@  #09 @046   ----------------------------------------
Label_0100682A:
 .byte   N56 ,Gn1 ,v052
 .byte   W60
 .byte   N11
 .byte   W24
 .byte   N56 ,Fn1
 .byte   W12
 .byte   PEND 
@  #09 @047   ----------------------------------------
 .byte   W96
@  #09 @048   ----------------------------------------
 .byte   PATT
  .word Label_01006798
@  #09 @049   ----------------------------------------
 .byte   PATT
  .word Label_010067A9
@  #09 @050   ----------------------------------------
 .byte   PATT
  .word Label_010067B8
@  #09 @051   ----------------------------------------
Label_01006844:
 .byte   W24
 .byte   N05 ,Fn2 ,v080
 .byte   W12
 .byte   Fn1
 .byte   W12
 .byte   N05
 .byte   W12
 .byte   N23
 .byte   W24
 .byte   N32 ,Cn1
 .byte   W12
 .byte   PEND 
@  #09 @052   ----------------------------------------
Label_01006853:
 .byte   W24
 .byte   N05 ,Cn2 ,v080
 .byte   W12
 .byte   Cn1
 .byte   W12
 .byte   N05
 .byte   W12
 .byte   N23
 .byte   W24
 .byte   N32 ,Dn1
 .byte   W12
 .byte   PEND 
@  #09 @053   ----------------------------------------
Label_01006862:
 .byte   W24
 .byte   N05 ,Dn2 ,v080
 .byte   W12
 .byte   Dn1
 .byte   W12
 .byte   N05
 .byte   W12
 .byte   N23
 .byte   W24
 .byte   N32 ,En1
 .byte   W12
 .byte   PEND 
@  #09 @054   ----------------------------------------
 .byte   PATT
  .word Label_010067B8
@  #09 @055   ----------------------------------------
 .byte   PATT
  .word Label_010067EF
@  #09 @056   ----------------------------------------
 .byte   PATT
  .word Label_01006798
@  #09 @057   ----------------------------------------
 .byte   PATT
  .word Label_010067A9
@  #09 @058   ----------------------------------------
 .byte   PATT
  .word Label_010067B8
@  #09 @059   ----------------------------------------
 .byte   PATT
  .word Label_010067EF
@  #09 @060   ----------------------------------------
Label_0100688F:
 .byte   N23 ,Cn1 ,v080
 .byte   W24
 .byte   N05 ,Cn2
 .byte   W12
 .byte   Cn1
 .byte   W12
 .byte   N05
 .byte   W12
 .byte   N23
 .byte   W24
 .byte   N32 ,Dn1
 .byte   W12
 .byte   PEND 
@  #09 @061   ----------------------------------------
 .byte   PATT
  .word Label_01006862
@  #09 @062   ----------------------------------------
 .byte   PATT
  .word Label_010067B8
@  #09 @063   ----------------------------------------
 .byte   PATT
  .word Label_010067EF
@  #09 @064   ----------------------------------------
 .byte   PATT
  .word Label_01006798
@  #09 @065   ----------------------------------------
 .byte   PATT
  .word Label_010067A9
@  #09 @066   ----------------------------------------
 .byte   PATT
  .word Label_010067B8
@  #09 @067   ----------------------------------------
 .byte   PATT
  .word Label_010067C7
@  #09 @068   ----------------------------------------
 .byte   PATT
  .word Label_010067D6
@  #09 @069   ----------------------------------------
 .byte   PATT
  .word Label_010067A9
@  #09 @070   ----------------------------------------
 .byte   PATT
  .word Label_010067B8
@  #09 @071   ----------------------------------------
 .byte   PATT
  .word Label_010067EF
@  #09 @072   ----------------------------------------
Label_010068D7:
@  #09 @073   ----------------------------------------
 .byte   PATT
  .word Label_01006798
@  #09 @074   ----------------------------------------
 .byte   PATT
  .word Label_010067A9
@  #09 @075   ----------------------------------------
 .byte   PATT
  .word Label_010067B8
@  #09 @076   ----------------------------------------
 .byte   PATT
  .word Label_010067C7
@  #09 @077   ----------------------------------------
 .byte   PATT
  .word Label_010067D6
@  #09 @078   ----------------------------------------
 .byte   PATT
  .word Label_010067A9
@  #09 @079   ----------------------------------------
 .byte   PATT
  .word Label_010067B8
@  #09 @080   ----------------------------------------
 .byte   PATT
  .word Label_010067EF
@  #09 @081   ----------------------------------------
 .byte   W96
@  #09 @082   ----------------------------------------
 .byte   W96
@  #09 @083   ----------------------------------------
 .byte   W96
@  #09 @084   ----------------------------------------
 .byte   W96
@  #09 @085   ----------------------------------------
 .byte   W96
@  #09 @086   ----------------------------------------
 .byte   W96
@  #09 @087   ----------------------------------------
 .byte   TIE ,Gn1 ,v052
 .byte   W96
@  #09 @088   ----------------------------------------
 .byte   W56
 .byte   W03
 .byte   EOT
 .byte   W01
 .byte   N32 ,Fn1
 .byte   W36
@  #09 @089   ----------------------------------------
 .byte   TIE ,Ds1
 .byte   W96
@  #09 @090   ----------------------------------------
 .byte   W92
 .byte   W03
 .byte   EOT
 .byte   W01
@  #09 @091   ----------------------------------------
 .byte   TIE ,Cn1
 .byte   W96
@  #09 @092   ----------------------------------------
 .byte   W56
 .byte   W03
 .byte   EOT
 .byte   W01
 .byte   N32 ,Dn1
 .byte   W36
@  #09 @093   ----------------------------------------
 .byte   PATT
  .word Label_0100681D
@  #09 @094   ----------------------------------------
 .byte   W60
 .byte   N32 ,Fn1 ,v052
 .byte   W36
@  #09 @095   ----------------------------------------
 .byte   PATT
  .word Label_0100682A
@  #09 @096   ----------------------------------------
 .byte   W96
@  #09 @097   ----------------------------------------
 .byte   PATT
  .word Label_01006798
@  #09 @098   ----------------------------------------
 .byte   PATT
  .word Label_010067A9
@  #09 @099   ----------------------------------------
 .byte   PATT
  .word Label_010067B8
@  #09 @100   ----------------------------------------
 .byte   PATT
  .word Label_01006844
@  #09 @101   ----------------------------------------
 .byte   PATT
  .word Label_01006853
@  #09 @102   ----------------------------------------
 .byte   PATT
  .word Label_01006862
@  #09 @103   ----------------------------------------
 .byte   PATT
  .word Label_010067B8
@  #09 @104   ----------------------------------------
 .byte   PATT
  .word Label_010067EF
@  #09 @105   ----------------------------------------
 .byte   PATT
  .word Label_01006798
@  #09 @106   ----------------------------------------
 .byte   PATT
  .word Label_010067A9
@  #09 @107   ----------------------------------------
 .byte   PATT
  .word Label_010067B8
@  #09 @108   ----------------------------------------
 .byte   PATT
  .word Label_010067EF
@  #09 @109   ----------------------------------------
 .byte   PATT
  .word Label_0100688F
@  #09 @110   ----------------------------------------
 .byte   PATT
  .word Label_01006862
@  #09 @111   ----------------------------------------
 .byte   PATT
  .word Label_010067B8
@  #09 @112   ----------------------------------------
 .byte   PATT
  .word Label_010067EF
@  #09 @113   ----------------------------------------
 .byte   PATT
  .word Label_01006798
@  #09 @114   ----------------------------------------
 .byte   PATT
  .word Label_010067A9
@  #09 @115   ----------------------------------------
 .byte   PATT
  .word Label_010067B8
@  #09 @116   ----------------------------------------
 .byte   PATT
  .word Label_010067C7
@  #09 @117   ----------------------------------------
 .byte   PATT
  .word Label_010067D6
@  #09 @118   ----------------------------------------
 .byte   PATT
  .word Label_010067A9
@  #09 @119   ----------------------------------------
 .byte   PATT
  .word Label_010067B8
@  #09 @120   ----------------------------------------
 .byte   PATT
  .word Label_010067EF
@  #09 @121   ----------------------------------------
 .byte   TIE ,Ds1 ,v052
 .byte   W96
@  #09 @122   ----------------------------------------
 .byte   W92
 .byte   W03
 .byte   EOT
 .byte   W01
@  #09 @123   ----------------------------------------
 .byte   TIE ,Gn1
 .byte   W96
@  #09 @124   ----------------------------------------
 .byte   W92
 .byte   W03
 .byte   EOT
 .byte   W01
@  #09 @125   ----------------------------------------
 .byte   TIE ,Ds1
 .byte   W96
@  #09 @126   ----------------------------------------
 .byte   W92
 .byte   W03
 .byte   EOT
 .byte   W01
@  #09 @127   ----------------------------------------
 .byte   TIE ,As1
 .byte   W96
@  #09 @128   ----------------------------------------
 .byte   W92
 .byte   W03
 .byte   EOT
 .byte   W01
@  #09 @129   ----------------------------------------
 .byte   TIE ,Cn2
 .byte   W96
@  #09 @130   ----------------------------------------
 .byte   W92
 .byte   W03
 .byte   EOT
 .byte   W01
@  #09 @131   ----------------------------------------
 .byte   TIE ,Dn2
 .byte   W96
@  #09 @132   ----------------------------------------
 .byte   W92
 .byte   W03
 .byte   EOT
 .byte   W01
@  #09 @133   ----------------------------------------
 .byte   TIE ,Ds2
 .byte   W96
@  #09 @134   ----------------------------------------
 .byte   W92
 .byte   W03
 .byte   EOT
 .byte   W01
@  #09 @135   ----------------------------------------
 .byte   N92 ,Fn1
 .byte   W96
@  #09 @136   ----------------------------------------
 .byte   W96
@  #09 @137   ----------------------------------------
 .byte   PATT
  .word Label_01006798
@  #09 @138   ----------------------------------------
 .byte   PATT
  .word Label_010067A9
@  #09 @139   ----------------------------------------
 .byte   PATT
  .word Label_010067B8
@  #09 @140   ----------------------------------------
 .byte   PATT
  .word Label_01006844
@  #09 @141   ----------------------------------------
 .byte   PATT
  .word Label_01006853
@  #09 @142   ----------------------------------------
 .byte   PATT
  .word Label_01006862
@  #09 @143   ----------------------------------------
 .byte   PATT
  .word Label_010067B8
@  #09 @144   ----------------------------------------
 .byte   PATT
  .word Label_010067EF
@  #09 @145   ----------------------------------------
 .byte   PATT
  .word Label_01006798
@  #09 @146   ----------------------------------------
 .byte   PATT
  .word Label_010067A9
@  #09 @147   ----------------------------------------
 .byte   PATT
  .word Label_010067B8
@  #09 @148   ----------------------------------------
 .byte   PATT
  .word Label_01006844
@  #09 @149   ----------------------------------------
 .byte   PATT
  .word Label_01006853
@  #09 @150   ----------------------------------------
 .byte   PATT
  .word Label_01006862
@  #09 @151   ----------------------------------------
 .byte   PATT
  .word Label_010067B8
@  #09 @152   ----------------------------------------
 .byte   PATT
  .word Label_010067EF
@  #09 @153   ----------------------------------------
 .byte   PATT
  .word Label_01006798
@  #09 @154   ----------------------------------------
 .byte   PATT
  .word Label_010067A9
@  #09 @155   ----------------------------------------
 .byte   PATT
  .word Label_010067B8
@  #09 @156   ----------------------------------------
 .byte   PATT
  .word Label_010067C7
@  #09 @157   ----------------------------------------
 .byte   PATT
  .word Label_010067D6
@  #09 @158   ----------------------------------------
 .byte   PATT
  .word Label_010067A9
@  #09 @159   ----------------------------------------
 .byte   PATT
  .word Label_010067B8
@  #09 @160   ----------------------------------------
 .byte   PATT
  .word Label_010067EF
@  #09 @161   ----------------------------------------
 .byte   GOTO
  .word Label_010068D7
@  #09 @162   ----------------------------------------
 .byte   PATT
  .word Label_01006798
@  #09 @163   ----------------------------------------
 .byte   PATT
  .word Label_010067A9
@  #09 @164   ----------------------------------------
 .byte   PATT
  .word Label_010067B8
@  #09 @165   ----------------------------------------
 .byte   PATT
  .word Label_010067C7
@  #09 @166   ----------------------------------------
 .byte   PATT
  .word Label_010067D6
@  #09 @167   ----------------------------------------
 .byte   PATT
  .word Label_010067A9
@  #09 @168   ----------------------------------------
 .byte   PATT
  .word Label_010067B8
@  #09 @169   ----------------------------------------
 .byte   W24
 .byte   N05 ,Fn2 ,v080
 .byte   W12
 .byte   Fn1
 .byte   W12
 .byte   N05
 .byte   W12
 .byte   N32
 .byte   W32
 .byte   W03
 .byte   FINE

@**************** Track 10 (Midi-Chn.9) ****************@

RiversInTheDesert_010:
@  #10 @000   ----------------------------------------
 .byte   KEYSH , RiversInTheDesert_key+0
 .byte   VOICE , 124
 .byte   VOL , 36*RiversInTheDesert_mvl/mxv
 .byte   PAN , c_v+0
 .byte   W96
@  #10 @001   ----------------------------------------
 .byte   W96
@  #10 @002   ----------------------------------------
 .byte   W96
@  #10 @003   ----------------------------------------
 .byte   W96
@  #10 @004   ----------------------------------------
 .byte   W96
@  #10 @005   ----------------------------------------
 .byte   W96
@  #10 @006   ----------------------------------------
 .byte   W96
@  #10 @007   ----------------------------------------
 .byte   W96
@  #10 @008   ----------------------------------------
Label_01006AAC:
 .byte   N11 ,Cn1 ,v052
 .byte   N11 ,Fs1
 .byte   W12
 .byte   N11
 .byte   W12
 .byte   Cn1
 .byte   N11 ,Fs1
 .byte   W12
 .byte   N11
 .byte   W12
 .byte   Cn1
 .byte   N11 ,Fs1
 .byte   W12
 .byte   N11
 .byte   W12
 .byte   Cn1
 .byte   N11 ,Fs1
 .byte   W12
 .byte   N11
 .byte   W12
 .byte   PEND 
@  #10 @009   ----------------------------------------
 .byte   PATT
  .word Label_01006AAC
@  #10 @010   ----------------------------------------
 .byte   PATT
  .word Label_01006AAC
@  #10 @011   ----------------------------------------
 .byte   PATT
  .word Label_01006AAC
@  #10 @012   ----------------------------------------
 .byte   PATT
  .word Label_01006AAC
@  #10 @013   ----------------------------------------
 .byte   PATT
  .word Label_01006AAC
@  #10 @014   ----------------------------------------
 .byte   PATT
  .word Label_01006AAC
@  #10 @015   ----------------------------------------
 .byte   PATT
  .word Label_01006AAC
@  #10 @016   ----------------------------------------
 .byte   PATT
  .word Label_01006AAC
@  #10 @017   ----------------------------------------
 .byte   PATT
  .word Label_01006AAC
@  #10 @018   ----------------------------------------
 .byte   PATT
  .word Label_01006AAC
@  #10 @019   ----------------------------------------
 .byte   PATT
  .word Label_01006AAC
@  #10 @020   ----------------------------------------
 .byte   PATT
  .word Label_01006AAC
@  #10 @021   ----------------------------------------
 .byte   PATT
  .word Label_01006AAC
@  #10 @022   ----------------------------------------
 .byte   PATT
  .word Label_01006AAC
@  #10 @023   ----------------------------------------
 .byte   PATT
  .word Label_01006AAC
@  #10 @024   ----------------------------------------
Label_01006B12:
 .byte   N11 ,Cn1 ,v096
 .byte   N11 ,Fs1
 .byte   N11 ,Cs2
 .byte   W12
 .byte   Fs1
 .byte   W12
 .byte   Dn1
 .byte   N11 ,Fs1
 .byte   W12
 .byte   N11
 .byte   W12
 .byte   Cn1
 .byte   N11 ,Fs1
 .byte   W12
 .byte   N11
 .byte   W12
 .byte   Dn1
 .byte   N11 ,Fs1
 .byte   W12
 .byte   N05
 .byte   W06
 .byte   N05
 .byte   W06
 .byte   PEND 
@  #10 @025   ----------------------------------------
Label_01006B31:
 .byte   N11 ,Cn1 ,v096
 .byte   N11 ,Fs1
 .byte   W12
 .byte   N11
 .byte   W12
 .byte   Dn1
 .byte   N11 ,Fs1
 .byte   W12
 .byte   N11
 .byte   W12
 .byte   Cn1
 .byte   N11 ,Fs1
 .byte   W12
 .byte   N11
 .byte   W12
 .byte   Dn1
 .byte   N11 ,Fs1
 .byte   W12
 .byte   N05
 .byte   W06
 .byte   N05
 .byte   W06
 .byte   PEND 
@  #10 @026   ----------------------------------------
 .byte   PATT
  .word Label_01006B31
@  #10 @027   ----------------------------------------
 .byte   PATT
  .word Label_01006B31
@  #10 @028   ----------------------------------------
 .byte   PATT
  .word Label_01006B31
@  #10 @029   ----------------------------------------
 .byte   PATT
  .word Label_01006B31
@  #10 @030   ----------------------------------------
 .byte   PATT
  .word Label_01006B31
@  #10 @031   ----------------------------------------
 .byte   PATT
  .word Label_01006B31
@  #10 @032   ----------------------------------------
 .byte   PATT
  .word Label_01006AAC
@  #10 @033   ----------------------------------------
 .byte   PATT
  .word Label_01006AAC
@  #10 @034   ----------------------------------------
 .byte   PATT
  .word Label_01006AAC
@  #10 @035   ----------------------------------------
 .byte   PATT
  .word Label_01006AAC
@  #10 @036   ----------------------------------------
 .byte   PATT
  .word Label_01006AAC
@  #10 @037   ----------------------------------------
 .byte   PATT
  .word Label_01006AAC
@  #10 @038   ----------------------------------------
 .byte   PATT
  .word Label_01006AAC
@  #10 @039   ----------------------------------------
 .byte   PATT
  .word Label_01006AAC
@  #10 @040   ----------------------------------------
 .byte   PATT
  .word Label_01006AAC
@  #10 @041   ----------------------------------------
 .byte   PATT
  .word Label_01006AAC
@  #10 @042   ----------------------------------------
 .byte   PATT
  .word Label_01006AAC
@  #10 @043   ----------------------------------------
 .byte   PATT
  .word Label_01006AAC
@  #10 @044   ----------------------------------------
 .byte   PATT
  .word Label_01006AAC
@  #10 @045   ----------------------------------------
 .byte   PATT
  .word Label_01006AAC
@  #10 @046   ----------------------------------------
 .byte   PATT
  .word Label_01006AAC
@  #10 @047   ----------------------------------------
 .byte   PATT
  .word Label_01006AAC
@  #10 @048   ----------------------------------------
 .byte   PATT
  .word Label_01006B12
@  #10 @049   ----------------------------------------
 .byte   PATT
  .word Label_01006B31
@  #10 @050   ----------------------------------------
 .byte   PATT
  .word Label_01006B31
@  #10 @051   ----------------------------------------
 .byte   PATT
  .word Label_01006B31
@  #10 @052   ----------------------------------------
 .byte   PATT
  .word Label_01006B31
@  #10 @053   ----------------------------------------
 .byte   PATT
  .word Label_01006B31
@  #10 @054   ----------------------------------------
 .byte   PATT
  .word Label_01006B31
@  #10 @055   ----------------------------------------
 .byte   PATT
  .word Label_01006B31
@  #10 @056   ----------------------------------------
 .byte   PATT
  .word Label_01006B12
@  #10 @057   ----------------------------------------
 .byte   PATT
  .word Label_01006B31
@  #10 @058   ----------------------------------------
 .byte   PATT
  .word Label_01006B31
@  #10 @059   ----------------------------------------
 .byte   PATT
  .word Label_01006B31
@  #10 @060   ----------------------------------------
 .byte   PATT
  .word Label_01006B31
@  #10 @061   ----------------------------------------
 .byte   PATT
  .word Label_01006B31
@  #10 @062   ----------------------------------------
 .byte   PATT
  .word Label_01006B31
@  #10 @063   ----------------------------------------
 .byte   PATT
  .word Label_01006B31
@  #10 @064   ----------------------------------------
 .byte   PATT
  .word Label_01006B12
@  #10 @065   ----------------------------------------
 .byte   PATT
  .word Label_01006B31
@  #10 @066   ----------------------------------------
 .byte   PATT
  .word Label_01006B31
@  #10 @067   ----------------------------------------
 .byte   PATT
  .word Label_01006B31
@  #10 @068   ----------------------------------------
 .byte   PATT
  .word Label_01006B31
@  #10 @069   ----------------------------------------
 .byte   PATT
  .word Label_01006B31
@  #10 @070   ----------------------------------------
 .byte   PATT
  .word Label_01006B31
@  #10 @071   ----------------------------------------
 .byte   PATT
  .word Label_01006B31
@  #10 @072   ----------------------------------------
Label_01006C34:
@  #10 @073   ----------------------------------------
 .byte   PATT
  .word Label_01006B12
@  #10 @074   ----------------------------------------
 .byte   PATT
  .word Label_01006B31
@  #10 @075   ----------------------------------------
 .byte   PATT
  .word Label_01006B31
@  #10 @076   ----------------------------------------
 .byte   PATT
  .word Label_01006B31
@  #10 @077   ----------------------------------------
 .byte   PATT
  .word Label_01006B31
@  #10 @078   ----------------------------------------
 .byte   PATT
  .word Label_01006B31
@  #10 @079   ----------------------------------------
 .byte   PATT
  .word Label_01006B31
@  #10 @080   ----------------------------------------
 .byte   PATT
  .word Label_01006B31
@  #10 @081   ----------------------------------------
 .byte   PATT
  .word Label_01006AAC
@  #10 @082   ----------------------------------------
 .byte   PATT
  .word Label_01006AAC
@  #10 @083   ----------------------------------------
 .byte   PATT
  .word Label_01006AAC
@  #10 @084   ----------------------------------------
 .byte   PATT
  .word Label_01006AAC
@  #10 @085   ----------------------------------------
 .byte   PATT
  .word Label_01006AAC
@  #10 @086   ----------------------------------------
 .byte   PATT
  .word Label_01006AAC
@  #10 @087   ----------------------------------------
 .byte   PATT
  .word Label_01006AAC
@  #10 @088   ----------------------------------------
 .byte   PATT
  .word Label_01006AAC
@  #10 @089   ----------------------------------------
 .byte   PATT
  .word Label_01006AAC
@  #10 @090   ----------------------------------------
 .byte   PATT
  .word Label_01006AAC
@  #10 @091   ----------------------------------------
 .byte   PATT
  .word Label_01006AAC
@  #10 @092   ----------------------------------------
 .byte   PATT
  .word Label_01006AAC
@  #10 @093   ----------------------------------------
 .byte   PATT
  .word Label_01006AAC
@  #10 @094   ----------------------------------------
 .byte   PATT
  .word Label_01006AAC
@  #10 @095   ----------------------------------------
 .byte   PATT
  .word Label_01006AAC
@  #10 @096   ----------------------------------------
 .byte   PATT
  .word Label_01006AAC
@  #10 @097   ----------------------------------------
 .byte   PATT
  .word Label_01006B12
@  #10 @098   ----------------------------------------
 .byte   PATT
  .word Label_01006B31
@  #10 @099   ----------------------------------------
 .byte   PATT
  .word Label_01006B31
@  #10 @100   ----------------------------------------
 .byte   PATT
  .word Label_01006B31
@  #10 @101   ----------------------------------------
 .byte   PATT
  .word Label_01006B31
@  #10 @102   ----------------------------------------
 .byte   PATT
  .word Label_01006B31
@  #10 @103   ----------------------------------------
 .byte   PATT
  .word Label_01006B31
@  #10 @104   ----------------------------------------
 .byte   PATT
  .word Label_01006B31
@  #10 @105   ----------------------------------------
 .byte   PATT
  .word Label_01006B12
@  #10 @106   ----------------------------------------
 .byte   PATT
  .word Label_01006B31
@  #10 @107   ----------------------------------------
 .byte   PATT
  .word Label_01006B31
@  #10 @108   ----------------------------------------
 .byte   PATT
  .word Label_01006B31
@  #10 @109   ----------------------------------------
 .byte   PATT
  .word Label_01006B31
@  #10 @110   ----------------------------------------
 .byte   PATT
  .word Label_01006B31
@  #10 @111   ----------------------------------------
 .byte   PATT
  .word Label_01006B31
@  #10 @112   ----------------------------------------
 .byte   PATT
  .word Label_01006B31
@  #10 @113   ----------------------------------------
 .byte   PATT
  .word Label_01006B12
@  #10 @114   ----------------------------------------
 .byte   PATT
  .word Label_01006B31
@  #10 @115   ----------------------------------------
 .byte   PATT
  .word Label_01006B31
@  #10 @116   ----------------------------------------
 .byte   PATT
  .word Label_01006B31
@  #10 @117   ----------------------------------------
 .byte   PATT
  .word Label_01006B31
@  #10 @118   ----------------------------------------
 .byte   PATT
  .word Label_01006B31
@  #10 @119   ----------------------------------------
 .byte   PATT
  .word Label_01006B31
@  #10 @120   ----------------------------------------
 .byte   PATT
  .word Label_01006B31
@  #10 @121   ----------------------------------------
Label_01006D24:
 .byte   N23 ,Cn1 ,v096
 .byte   N23 ,Fs1
 .byte   W24
 .byte   N23
 .byte   W24
 .byte   Dn1
 .byte   N23 ,Fs1
 .byte   W24
 .byte   N23
 .byte   W24
 .byte   PEND 
@  #10 @122   ----------------------------------------
Label_01006D33:
 .byte   N23 ,Cn1 ,v096
 .byte   N23 ,Fs1
 .byte   W24
 .byte   N23
 .byte   W24
 .byte   Dn1
 .byte   N23 ,Fs1
 .byte   W24
 .byte   N11 ,As1
 .byte   W12
 .byte   Cn1
 .byte   W12
 .byte   PEND 
@  #10 @123   ----------------------------------------
 .byte   PATT
  .word Label_01006D24
@  #10 @124   ----------------------------------------
 .byte   PATT
  .word Label_01006D33
@  #10 @125   ----------------------------------------
 .byte   PATT
  .word Label_01006D24
@  #10 @126   ----------------------------------------
 .byte   PATT
  .word Label_01006D33
@  #10 @127   ----------------------------------------
 .byte   PATT
  .word Label_01006D24
@  #10 @128   ----------------------------------------
 .byte   PATT
  .word Label_01006D33
@  #10 @129   ----------------------------------------
 .byte   PATT
  .word Label_01006D24
@  #10 @130   ----------------------------------------
 .byte   PATT
  .word Label_01006D33
@  #10 @131   ----------------------------------------
 .byte   PATT
  .word Label_01006D24
@  #10 @132   ----------------------------------------
 .byte   PATT
  .word Label_01006D33
@  #10 @133   ----------------------------------------
 .byte   PATT
  .word Label_01006D24
@  #10 @134   ----------------------------------------
 .byte   PATT
  .word Label_01006D33
@  #10 @135   ----------------------------------------
 .byte   PATT
  .word Label_01006D24
@  #10 @136   ----------------------------------------
 .byte   N23 ,Cn1 ,v096
 .byte   N23 ,Fs1
 .byte   W48
 .byte   N11 ,Cn1
 .byte   N11 ,Dn1
 .byte   W12
 .byte   Cn1
 .byte   N11 ,Dn1
 .byte   W12
 .byte   N23 ,Cn1
 .byte   N23 ,Dn1
 .byte   W24
@  #10 @137   ----------------------------------------
 .byte   PATT
  .word Label_01006B12
@  #10 @138   ----------------------------------------
 .byte   PATT
  .word Label_01006B31
@  #10 @139   ----------------------------------------
 .byte   PATT
  .word Label_01006B31
@  #10 @140   ----------------------------------------
 .byte   PATT
  .word Label_01006B31
@  #10 @141   ----------------------------------------
 .byte   PATT
  .word Label_01006B31
@  #10 @142   ----------------------------------------
 .byte   PATT
  .word Label_01006B31
@  #10 @143   ----------------------------------------
 .byte   PATT
  .word Label_01006B31
@  #10 @144   ----------------------------------------
 .byte   PATT
  .word Label_01006B31
@  #10 @145   ----------------------------------------
 .byte   PATT
  .word Label_01006B12
@  #10 @146   ----------------------------------------
 .byte   PATT
  .word Label_01006B31
@  #10 @147   ----------------------------------------
 .byte   PATT
  .word Label_01006B31
@  #10 @148   ----------------------------------------
 .byte   PATT
  .word Label_01006B31
@  #10 @149   ----------------------------------------
 .byte   PATT
  .word Label_01006B31
@  #10 @150   ----------------------------------------
 .byte   PATT
  .word Label_01006B31
@  #10 @151   ----------------------------------------
 .byte   PATT
  .word Label_01006B31
@  #10 @152   ----------------------------------------
 .byte   PATT
  .word Label_01006B31
@  #10 @153   ----------------------------------------
 .byte   PATT
  .word Label_01006B12
@  #10 @154   ----------------------------------------
 .byte   PATT
  .word Label_01006B31
@  #10 @155   ----------------------------------------
 .byte   PATT
  .word Label_01006B31
@  #10 @156   ----------------------------------------
 .byte   PATT
  .word Label_01006B31
@  #10 @157   ----------------------------------------
 .byte   PATT
  .word Label_01006B31
@  #10 @158   ----------------------------------------
 .byte   PATT
  .word Label_01006B31
@  #10 @159   ----------------------------------------
 .byte   PATT
  .word Label_01006B31
@  #10 @160   ----------------------------------------
 .byte   PATT
  .word Label_01006B31
@  #10 @161   ----------------------------------------
 .byte   GOTO
  .word Label_01006C34
@  #10 @162   ----------------------------------------
 .byte   PATT
  .word Label_01006B12
@  #10 @163   ----------------------------------------
 .byte   PATT
  .word Label_01006B31
@  #10 @164   ----------------------------------------
 .byte   PATT
  .word Label_01006B31
@  #10 @165   ----------------------------------------
 .byte   PATT
  .word Label_01006B31
@  #10 @166   ----------------------------------------
 .byte   PATT
  .word Label_01006B31
@  #10 @167   ----------------------------------------
 .byte   PATT
  .word Label_01006B31
@  #10 @168   ----------------------------------------
 .byte   PATT
  .word Label_01006B31
@  #10 @169   ----------------------------------------
 .byte   N11 ,Cn1 ,v096
 .byte   N11 ,Fs1
 .byte   W12
 .byte   N11
 .byte   W12
 .byte   Dn1
 .byte   N11 ,Fs1
 .byte   W12
 .byte   N11
 .byte   W12
 .byte   Cn1
 .byte   N11 ,Fs1
 .byte   W12
 .byte   N11
 .byte   W12
 .byte   Dn1
 .byte   N11 ,Fs1
 .byte   W12
 .byte   N05
 .byte   W06
 .byte   N05
 .byte   W05
 .byte   FINE

@******************************************************@
	.align	2

RiversInTheDesert:
	.byte	10	@ NumTrks
	.byte	0	@ NumBlks
	.byte	RiversInTheDesert_pri	@ Priority
	.byte	RiversInTheDesert_rev	@ Reverb.
    
	.word	RiversInTheDesert_grp
    
	.word	RiversInTheDesert_001
	.word	RiversInTheDesert_002
	.word	RiversInTheDesert_003
	.word	RiversInTheDesert_004
	.word	RiversInTheDesert_005
	.word	RiversInTheDesert_006
	.word	RiversInTheDesert_007
	.word	RiversInTheDesert_008
	.word	RiversInTheDesert_009
	.word	RiversInTheDesert_010

	.end
