	.include "MPlayDef.s"

	.equ	SearchingTheEnemy_grp, voicegroup000
	.equ	SearchingTheEnemy_pri, 0
	.equ	SearchingTheEnemy_rev, 0
	.equ	SearchingTheEnemy_mvl, 127
	.equ	SearchingTheEnemy_key, 0
	.equ	SearchingTheEnemy_tbs, 1
	.equ	SearchingTheEnemy_exg, 0
	.equ	SearchingTheEnemy_cmp, 1

	.section .rodata
	.global	SearchingTheEnemy
	.align	2


@**************** Track 1 (Midi-Chn.0) ****************@

SearchingTheEnemy_001:
@  #01 @000   ----------------------------------------
 .byte   KEYSH , SearchingTheEnemy_key+0
Label_FAA5C6:
 .byte   TEMPO , 110*SearchingTheEnemy_tbs/2
 .byte   VOICE , 56
 .byte   VOL , 51*SearchingTheEnemy_mvl/mxv
 .byte   N24 ,An2 ,v100
 .byte   W42
 .byte   N06
 .byte   W06
 .byte   TIE ,Bn2
 .byte   W48
@  #01 @001   ----------------------------------------
 .byte   W72
 .byte   EOT
 .byte   W24
@  #01 @002   ----------------------------------------
Label_FAA5D8:
 .byte   N24 ,An2 ,v100
 .byte   W42
 .byte   N06 ,Bn2 ,v104
 .byte   W06
 .byte   N60 ,Cn3 ,v100
 .byte   W48
 .byte   PEND 
@  #01 @003   ----------------------------------------
Label_FAA5E5:
 .byte   W24
 .byte   N18 ,Gn3 ,v100
 .byte   W24
 .byte   Fs3
 .byte   W24
 .byte   Dn3
 .byte   W24
 .byte   PEND 
@  #01 @004   ----------------------------------------
 .byte   N96 ,En3
 .byte   W96
@  #01 @005   ----------------------------------------
 .byte   N72 ,An2
 .byte   W96
@  #01 @006   ----------------------------------------
Label_FAA5F5:
 .byte   N24 ,An2 ,v100
 .byte   W42
 .byte   N06
 .byte   W06
 .byte   TIE ,Bn2
 .byte   W48
 .byte   PEND 
@  #01 @007   ----------------------------------------
 .byte   W72
 .byte   EOT
 .byte   W24
@  #01 @008   ----------------------------------------
 .byte   PATT
  .word Label_FAA5D8
@  #01 @009   ----------------------------------------
Label_FAA607:
 .byte   W24
 .byte   N18 ,Bn2 ,v100
 .byte   W24
 .byte   Cn3
 .byte   W24
 .byte   Dn3
 .byte   W24
 .byte   PEND 
@  #01 @010   ----------------------------------------
Label_FAA611:
 .byte   N36 ,Dn3 ,v100
 .byte   W36
 .byte   N12 ,Cn3
 .byte   W12
 .byte   N72
 .byte   W48
 .byte   PEND 
@  #01 @011   ----------------------------------------
Label_FAA61B:
 .byte   W48
 .byte   N18 ,En3 ,v100
 .byte   W24
 .byte   Gn3
 .byte   W24
 .byte   PEND 
@  #01 @012   ----------------------------------------
Label_FAA623:
 .byte   N36 ,Fs3 ,v100
 .byte   W48
 .byte   Dn3
 .byte   W48
 .byte   PEND 
@  #01 @013   ----------------------------------------
 .byte   N72 ,En3
 .byte   W96
@  #01 @014   ----------------------------------------
 .byte   W96
@  #01 @015   ----------------------------------------
 .byte   W96
@  #01 @016   ----------------------------------------
 .byte   W96
@  #01 @017   ----------------------------------------
 .byte   W96
@  #01 @018   ----------------------------------------
 .byte   W96
@  #01 @019   ----------------------------------------
 .byte   W96
@  #01 @020   ----------------------------------------
Label_FAA633:
 .byte   W84
 .byte   N06 ,En2 ,v100
 .byte   W06
 .byte   An2
 .byte   W06
 .byte   PEND 
@  #01 @021   ----------------------------------------
 .byte   N72 ,Bn2
 .byte   W96
@  #01 @022   ----------------------------------------
 .byte   GOTO
  .word Label_FAA5C6
@  #01 @023   ----------------------------------------
 .byte   VOL , 51*SearchingTheEnemy_mvl/mxv
 .byte   N24 ,An2 ,v100
 .byte   W42
 .byte   N06
 .byte   W06
 .byte   TIE ,Bn2
 .byte   W48
@  #01 @024   ----------------------------------------
 .byte   W72
 .byte   EOT
 .byte   W24
@  #01 @025   ----------------------------------------
 .byte   PATT
  .word Label_FAA5D8
@  #01 @026   ----------------------------------------
 .byte   PATT
  .word Label_FAA5E5
@  #01 @027   ----------------------------------------
 .byte   N96 ,En3 ,v100
 .byte   W96
@  #01 @028   ----------------------------------------
 .byte   N72 ,An2
 .byte   W96
@  #01 @029   ----------------------------------------
 .byte   PATT
  .word Label_FAA5F5
@  #01 @030   ----------------------------------------
 .byte   W72
 .byte   EOT
 .byte   Bn2
 .byte   W24
@  #01 @031   ----------------------------------------
 .byte   PATT
  .word Label_FAA5D8
@  #01 @032   ----------------------------------------
 .byte   PATT
  .word Label_FAA607
@  #01 @033   ----------------------------------------
 .byte   PATT
  .word Label_FAA611
@  #01 @034   ----------------------------------------
 .byte   PATT
  .word Label_FAA61B
@  #01 @035   ----------------------------------------
 .byte   PATT
  .word Label_FAA623
@  #01 @036   ----------------------------------------
 .byte   N72 ,En3 ,v100
 .byte   W96
@  #01 @037   ----------------------------------------
 .byte   W96
@  #01 @038   ----------------------------------------
 .byte   W96
@  #01 @039   ----------------------------------------
 .byte   W96
@  #01 @040   ----------------------------------------
 .byte   W96
@  #01 @041   ----------------------------------------
 .byte   W96
@  #01 @042   ----------------------------------------
 .byte   W96
@  #01 @043   ----------------------------------------
 .byte   PATT
  .word Label_FAA633
@  #01 @044   ----------------------------------------
 .byte   N72 ,Bn2 ,v100
 .byte   W90
 .byte   TEMPO , 110*SearchingTheEnemy_tbs/2
 .byte   VOICE , 56
 .byte   VOL , 51*SearchingTheEnemy_mvl/mxv
 .byte   FINE

@**************** Track 2 (Midi-Chn.1) ****************@

SearchingTheEnemy_002:
@  #02 @000   ----------------------------------------
 .byte   KEYSH , SearchingTheEnemy_key+0
Label_FAA456:
 .byte   VOICE , 56
 .byte   VOL , 51*SearchingTheEnemy_mvl/mxv
 .byte   N24 ,En2 ,v100
 .byte   W42
 .byte   N06
 .byte   W06
 .byte   TIE ,Fs2
 .byte   W48
@  #02 @001   ----------------------------------------
 .byte   W72
 .byte   EOT
 .byte   W24
@  #02 @002   ----------------------------------------
Label_FAA466:
 .byte   N24 ,En2 ,v100
 .byte   W42
 .byte   N06 ,Fs2
 .byte   W06
 .byte   N60 ,Gn2
 .byte   W48
 .byte   PEND 
@  #02 @003   ----------------------------------------
 .byte   W96
@  #02 @004   ----------------------------------------
 .byte   N96 ,An2
 .byte   W96
@  #02 @005   ----------------------------------------
 .byte   N72 ,En2
 .byte   W96
@  #02 @006   ----------------------------------------
Label_FAA478:
 .byte   N24 ,En2 ,v100
 .byte   W42
 .byte   N06
 .byte   W06
 .byte   TIE ,Fs2
 .byte   W48
 .byte   PEND 
@  #02 @007   ----------------------------------------
 .byte   W72
 .byte   EOT
 .byte   W24
@  #02 @008   ----------------------------------------
 .byte   PATT
  .word Label_FAA466
@  #02 @009   ----------------------------------------
Label_FAA48A:
 .byte   W24
 .byte   N18 ,Fs2 ,v100
 .byte   W24
 .byte   Gn2
 .byte   W24
 .byte   An2
 .byte   W24
 .byte   PEND 
@  #02 @010   ----------------------------------------
Label_FAA494:
 .byte   N36 ,An2 ,v100
 .byte   W36
 .byte   N12 ,Gn2
 .byte   W12
 .byte   N72
 .byte   W48
 .byte   PEND 
@  #02 @011   ----------------------------------------
 .byte   W96
@  #02 @012   ----------------------------------------
 .byte   W96
@  #02 @013   ----------------------------------------
 .byte   W96
@  #02 @014   ----------------------------------------
 .byte   W96
@  #02 @015   ----------------------------------------
 .byte   W96
@  #02 @016   ----------------------------------------
 .byte   W96
@  #02 @017   ----------------------------------------
 .byte   W96
@  #02 @018   ----------------------------------------
 .byte   W96
@  #02 @019   ----------------------------------------
 .byte   W96
@  #02 @020   ----------------------------------------
 .byte   W96
@  #02 @021   ----------------------------------------
 .byte   En2
 .byte   W96
@  #02 @022   ----------------------------------------
 .byte   GOTO
  .word Label_FAA456
@  #02 @023   ----------------------------------------
 .byte   VOL , 51*SearchingTheEnemy_mvl/mxv
 .byte   N24 ,En2 ,v100
 .byte   W42
 .byte   N06
 .byte   W06
 .byte   TIE ,Fs2
 .byte   W48
@  #02 @024   ----------------------------------------
 .byte   W72
 .byte   EOT
 .byte   W24
@  #02 @025   ----------------------------------------
 .byte   PATT
  .word Label_FAA466
@  #02 @026   ----------------------------------------
 .byte   W96
@  #02 @027   ----------------------------------------
 .byte   N96 ,An2 ,v100
 .byte   W96
@  #02 @028   ----------------------------------------
 .byte   N72 ,En2
 .byte   W96
@  #02 @029   ----------------------------------------
 .byte   PATT
  .word Label_FAA478
@  #02 @030   ----------------------------------------
 .byte   W72
 .byte   EOT
 .byte   Fs2
 .byte   W24
@  #02 @031   ----------------------------------------
 .byte   PATT
  .word Label_FAA466
@  #02 @032   ----------------------------------------
 .byte   PATT
  .word Label_FAA48A
@  #02 @033   ----------------------------------------
 .byte   PATT
  .word Label_FAA494
@  #02 @034   ----------------------------------------
 .byte   W96
@  #02 @035   ----------------------------------------
 .byte   W96
@  #02 @036   ----------------------------------------
 .byte   W96
@  #02 @037   ----------------------------------------
 .byte   W96
@  #02 @038   ----------------------------------------
 .byte   W96
@  #02 @039   ----------------------------------------
 .byte   W96
@  #02 @040   ----------------------------------------
 .byte   W96
@  #02 @041   ----------------------------------------
 .byte   W96
@  #02 @042   ----------------------------------------
 .byte   W96
@  #02 @043   ----------------------------------------
 .byte   W96
@  #02 @044   ----------------------------------------
 .byte   N72 ,En2 ,v100
 .byte   W90
 .byte   VOICE , 56
 .byte   VOL , 51*SearchingTheEnemy_mvl/mxv
 .byte   FINE

@**************** Track 3 (Midi-Chn.2) ****************@

SearchingTheEnemy_003:
@  #03 @000   ----------------------------------------
 .byte   KEYSH , SearchingTheEnemy_key+0
Label_FAA52A:
 .byte   VOICE , 57
 .byte   VOL , 47*SearchingTheEnemy_mvl/mxv
 .byte   W96
@  #03 @001   ----------------------------------------
 .byte   W96
@  #03 @002   ----------------------------------------
 .byte   W96
@  #03 @003   ----------------------------------------
 .byte   W96
@  #03 @004   ----------------------------------------
 .byte   W96
@  #03 @005   ----------------------------------------
 .byte   W96
@  #03 @006   ----------------------------------------
 .byte   W96
@  #03 @007   ----------------------------------------
 .byte   W96
@  #03 @008   ----------------------------------------
 .byte   W96
@  #03 @009   ----------------------------------------
 .byte   W96
@  #03 @010   ----------------------------------------
 .byte   W96
@  #03 @011   ----------------------------------------
 .byte   W96
@  #03 @012   ----------------------------------------
 .byte   W96
@  #03 @013   ----------------------------------------
Label_FAA53B:
 .byte   W84
 .byte   N06 ,En3 ,v100
 .byte   W06
 .byte   Fn3
 .byte   W06
 .byte   PEND 
@  #03 @014   ----------------------------------------
Label_FAA543:
 .byte   N36 ,Gn3 ,v100
 .byte   W36
 .byte   N12 ,Cn3
 .byte   W12
 .byte   N24
 .byte   W24
 .byte   An3
 .byte   W24
 .byte   PEND 
@  #03 @015   ----------------------------------------
Label_FAA54F:
 .byte   N36 ,Gn3 ,v100
 .byte   W36
 .byte   N12 ,Fn3
 .byte   W12
 .byte   N24
 .byte   W24
 .byte   En3
 .byte   W24
 .byte   PEND 
@  #03 @016   ----------------------------------------
Label_FAA55B:
 .byte   N36 ,Gn3 ,v100
 .byte   W36
 .byte   Cn3
 .byte   W36
 .byte   N24 ,Dn3
 .byte   W24
 .byte   PEND 
@  #03 @017   ----------------------------------------
Label_FAA565:
 .byte   N36 ,En3 ,v100
 .byte   W36
 .byte   Dn3
 .byte   W36
 .byte   N24 ,Gn3
 .byte   W24
 .byte   PEND 
@  #03 @018   ----------------------------------------
 .byte   TIE ,En4
 .byte   W96
@  #03 @019   ----------------------------------------
 .byte   W72
 .byte   EOT
 .byte   W12
 .byte   N06
 .byte   W06
 .byte   An4
 .byte   W06
@  #03 @020   ----------------------------------------
 .byte   TIE ,Bn4
 .byte   W96
@  #03 @021   ----------------------------------------
 .byte   W72
 .byte   EOT
 .byte   W24
@  #03 @022   ----------------------------------------
 .byte   GOTO
  .word Label_FAA52A
@  #03 @023   ----------------------------------------
 .byte   W96
@  #03 @024   ----------------------------------------
 .byte   W96
@  #03 @025   ----------------------------------------
 .byte   W96
@  #03 @026   ----------------------------------------
 .byte   W96
@  #03 @027   ----------------------------------------
 .byte   W96
@  #03 @028   ----------------------------------------
 .byte   W96
@  #03 @029   ----------------------------------------
 .byte   W96
@  #03 @030   ----------------------------------------
 .byte   W96
@  #03 @031   ----------------------------------------
 .byte   W96
@  #03 @032   ----------------------------------------
 .byte   W96
@  #03 @033   ----------------------------------------
 .byte   W96
@  #03 @034   ----------------------------------------
 .byte   W96
@  #03 @035   ----------------------------------------
 .byte   W96
@  #03 @036   ----------------------------------------
 .byte   PATT
  .word Label_FAA53B
@  #03 @037   ----------------------------------------
 .byte   PATT
  .word Label_FAA543
@  #03 @038   ----------------------------------------
 .byte   PATT
  .word Label_FAA54F
@  #03 @039   ----------------------------------------
 .byte   PATT
  .word Label_FAA55B
@  #03 @040   ----------------------------------------
 .byte   PATT
  .word Label_FAA565
@  #03 @041   ----------------------------------------
 .byte   TIE ,En4 ,v100
 .byte   W96
@  #03 @042   ----------------------------------------
 .byte   W72
 .byte   EOT
 .byte   W12
 .byte   N06
 .byte   W06
 .byte   An4
 .byte   W06
@  #03 @043   ----------------------------------------
 .byte   TIE ,Bn4
 .byte   W96
@  #03 @044   ----------------------------------------
 .byte   W72
 .byte   EOT
 .byte   W18
 .byte   VOICE , 57
 .byte   VOL , 47*SearchingTheEnemy_mvl/mxv
 .byte   FINE

@**************** Track 4 (Midi-Chn.3) ****************@

SearchingTheEnemy_004:
@  #04 @000   ----------------------------------------
 .byte   KEYSH , SearchingTheEnemy_key+0
Label_FAA962:
 .byte   VOICE , 57
 .byte   VOL , 47*SearchingTheEnemy_mvl/mxv
 .byte   W84
 .byte   N06 ,En2 ,v100
 .byte   W06
 .byte   An2
 .byte   W06
@  #04 @001   ----------------------------------------
 .byte   N72 ,Bn2
 .byte   W96
@  #04 @002   ----------------------------------------
Label_FAA970:
 .byte   W84
 .byte   N06 ,An2 ,v100
 .byte   W06
 .byte   Bn2
 .byte   W06
 .byte   PEND 
@  #04 @003   ----------------------------------------
Label_FAA978:
 .byte   N12 ,Cn3 ,v100
 .byte   W24
 .byte   Gn3
 .byte   W24
 .byte   Fs3
 .byte   W24
 .byte   Dn3
 .byte   W24
 .byte   PEND 
@  #04 @004   ----------------------------------------
 .byte   N96 ,En3
 .byte   W96
@  #04 @005   ----------------------------------------
 .byte   W96
@  #04 @006   ----------------------------------------
Label_FAA987:
 .byte   W84
 .byte   N06 ,En2 ,v100
 .byte   W06
 .byte   An2
 .byte   W06
 .byte   PEND 
@  #04 @007   ----------------------------------------
 .byte   N72 ,Bn2
 .byte   W96
@  #04 @008   ----------------------------------------
Label_FAA992:
 .byte   W84
 .byte   N06 ,Cn3 ,v100
 .byte   W06
 .byte   Dn3
 .byte   W06
 .byte   PEND 
@  #04 @009   ----------------------------------------
 .byte   N36 ,En3
 .byte   W48
 .byte   Gn3
 .byte   W48
@  #04 @010   ----------------------------------------
Label_FAA99F:
 .byte   N36 ,Fs3 ,v100
 .byte   W48
 .byte   Dn3
 .byte   W48
 .byte   PEND 
@  #04 @011   ----------------------------------------
 .byte   N96 ,En3
 .byte   W96
@  #04 @012   ----------------------------------------
 .byte   W96
@  #04 @013   ----------------------------------------
Label_FAA9AA:
 .byte   W48
 .byte   N06 ,An1 ,v100
 .byte   W06
 .byte   Bn1
 .byte   W06
 .byte   Cn2
 .byte   W06
 .byte   Dn2
 .byte   W06
 .byte   En2
 .byte   W06
 .byte   Fs2
 .byte   W06
 .byte   Gn2
 .byte   W06
 .byte   An2
 .byte   W06
 .byte   PEND 
@  #04 @014   ----------------------------------------
Label_FAA9BE:
 .byte   N48 ,Bn2 ,v100
 .byte   W48
 .byte   An2
 .byte   W48
 .byte   PEND 
@  #04 @015   ----------------------------------------
Label_FAA9C5:
 .byte   N48 ,En2 ,v100
 .byte   W48
 .byte   An2
 .byte   W48
 .byte   PEND 
@  #04 @016   ----------------------------------------
 .byte   PATT
  .word Label_FAA9BE
@  #04 @017   ----------------------------------------
Label_FAA9D1:
 .byte   N48 ,Cn3 ,v100
 .byte   W48
 .byte   Bn2
 .byte   W48
 .byte   PEND 
@  #04 @018   ----------------------------------------
 .byte   TIE ,An3
 .byte   W96
@  #04 @019   ----------------------------------------
 .byte   W72
 .byte   EOT
 .byte   W24
@  #04 @020   ----------------------------------------
 .byte   TIE ,En4
 .byte   W96
@  #04 @021   ----------------------------------------
 .byte   W72
 .byte   EOT
 .byte   W24
@  #04 @022   ----------------------------------------
 .byte   GOTO
  .word Label_FAA962
@  #04 @023   ----------------------------------------
 .byte   PATT
  .word Label_FAA987
@  #04 @024   ----------------------------------------
 .byte   N72 ,Bn2 ,v100
 .byte   W96
@  #04 @025   ----------------------------------------
 .byte   PATT
  .word Label_FAA970
@  #04 @026   ----------------------------------------
 .byte   PATT
  .word Label_FAA978
@  #04 @027   ----------------------------------------
 .byte   N96 ,En3 ,v100
 .byte   W96
@  #04 @028   ----------------------------------------
 .byte   W96
@  #04 @029   ----------------------------------------
 .byte   PATT
  .word Label_FAA987
@  #04 @030   ----------------------------------------
 .byte   N72 ,Bn2 ,v100
 .byte   W96
@  #04 @031   ----------------------------------------
 .byte   PATT
  .word Label_FAA992
@  #04 @032   ----------------------------------------
 .byte   N36 ,En3 ,v100
 .byte   W48
 .byte   Gn3
 .byte   W48
@  #04 @033   ----------------------------------------
 .byte   PATT
  .word Label_FAA99F
@  #04 @034   ----------------------------------------
 .byte   N96 ,En3 ,v100
 .byte   W96
@  #04 @035   ----------------------------------------
 .byte   W96
@  #04 @036   ----------------------------------------
 .byte   PATT
  .word Label_FAA9AA
@  #04 @037   ----------------------------------------
 .byte   PATT
  .word Label_FAA9BE
@  #04 @038   ----------------------------------------
 .byte   PATT
  .word Label_FAA9C5
@  #04 @039   ----------------------------------------
 .byte   PATT
  .word Label_FAA9BE
@  #04 @040   ----------------------------------------
 .byte   PATT
  .word Label_FAA9D1
@  #04 @041   ----------------------------------------
 .byte   TIE ,An3 ,v100
 .byte   W96
@  #04 @042   ----------------------------------------
 .byte   W72
 .byte   EOT
 .byte   W24
@  #04 @043   ----------------------------------------
 .byte   TIE ,En4
 .byte   W96
@  #04 @044   ----------------------------------------
 .byte   W72
 .byte   EOT
 .byte   W18
 .byte   VOICE , 57
 .byte   VOL , 47*SearchingTheEnemy_mvl/mxv
 .byte   FINE

@**************** Track 5 (Midi-Chn.4) ****************@

SearchingTheEnemy_005:
@  #05 @000   ----------------------------------------
 .byte   KEYSH , SearchingTheEnemy_key+0
Label_FAACB6:
 .byte   VOICE , 57
 .byte   VOL , 47*SearchingTheEnemy_mvl/mxv
 .byte   W96
@  #05 @001   ----------------------------------------
 .byte   N72 ,En2 ,v100
 .byte   W96
@  #05 @002   ----------------------------------------
 .byte   W96
@  #05 @003   ----------------------------------------
Label_FAACC0:
 .byte   N12 ,An2 ,v100
 .byte   W24
 .byte   En3
 .byte   W24
 .byte   Dn3
 .byte   W24
 .byte   An2
 .byte   W24
 .byte   PEND 
@  #05 @004   ----------------------------------------
 .byte   N96
 .byte   W96
@  #05 @005   ----------------------------------------
 .byte   W96
@  #05 @006   ----------------------------------------
 .byte   W96
@  #05 @007   ----------------------------------------
 .byte   N72 ,En2
 .byte   W96
@  #05 @008   ----------------------------------------
 .byte   W96
@  #05 @009   ----------------------------------------
Label_FAACD3:
 .byte   N36 ,An2 ,v100
 .byte   W48
 .byte   En3
 .byte   W48
 .byte   PEND 
@  #05 @010   ----------------------------------------
Label_FAACDA:
 .byte   N36 ,Dn3 ,v100
 .byte   W48
 .byte   An2
 .byte   W48
 .byte   PEND 
@  #05 @011   ----------------------------------------
 .byte   N96 ,Cn3
 .byte   W96
@  #05 @012   ----------------------------------------
 .byte   W96
@  #05 @013   ----------------------------------------
 .byte   W96
@  #05 @014   ----------------------------------------
 .byte   W96
@  #05 @015   ----------------------------------------
 .byte   W96
@  #05 @016   ----------------------------------------
 .byte   W96
@  #05 @017   ----------------------------------------
 .byte   W96
@  #05 @018   ----------------------------------------
 .byte   W96
@  #05 @019   ----------------------------------------
 .byte   W96
@  #05 @020   ----------------------------------------
 .byte   W96
@  #05 @021   ----------------------------------------
 .byte   W96
@  #05 @022   ----------------------------------------
 .byte   GOTO
  .word Label_FAACB6
@  #05 @023   ----------------------------------------
 .byte   W96
@  #05 @024   ----------------------------------------
 .byte   N72 ,En2 ,v100
 .byte   W96
@  #05 @025   ----------------------------------------
 .byte   W96
@  #05 @026   ----------------------------------------
 .byte   PATT
  .word Label_FAACC0
@  #05 @027   ----------------------------------------
 .byte   N96 ,An2 ,v100
 .byte   W96
@  #05 @028   ----------------------------------------
 .byte   W96
@  #05 @029   ----------------------------------------
 .byte   W96
@  #05 @030   ----------------------------------------
 .byte   N72 ,En2
 .byte   W96
@  #05 @031   ----------------------------------------
 .byte   W96
@  #05 @032   ----------------------------------------
 .byte   PATT
  .word Label_FAACD3
@  #05 @033   ----------------------------------------
 .byte   PATT
  .word Label_FAACDA
@  #05 @034   ----------------------------------------
 .byte   N96 ,Cn3 ,v100
 .byte   W96
@  #05 @035   ----------------------------------------
 .byte   W96
@  #05 @036   ----------------------------------------
 .byte   W96
@  #05 @037   ----------------------------------------
 .byte   W96
@  #05 @038   ----------------------------------------
 .byte   W96
@  #05 @039   ----------------------------------------
 .byte   W96
@  #05 @040   ----------------------------------------
 .byte   W96
@  #05 @041   ----------------------------------------
 .byte   W96
@  #05 @042   ----------------------------------------
 .byte   W96
@  #05 @043   ----------------------------------------
 .byte   W96
@  #05 @044   ----------------------------------------
 .byte   W90
 .byte   VOICE , 57
 .byte   VOL , 47*SearchingTheEnemy_mvl/mxv
 .byte   FINE

@**************** Track 6 (Midi-Chn.5) ****************@

SearchingTheEnemy_006:
@  #06 @000   ----------------------------------------
 .byte   KEYSH , SearchingTheEnemy_key+0
Label_FAA742:
 .byte   VOICE , 34
 .byte   VOL , 46*SearchingTheEnemy_mvl/mxv
 .byte   N12 ,An0 ,v127
 .byte   W12
 .byte   An0 ,v100
 .byte   W12
 .byte   N12
 .byte   W12
 .byte   An0 ,v127
 .byte   W12
 .byte   An0 ,v100
 .byte   W12
 .byte   N12
 .byte   W12
 .byte   An0 ,v127
 .byte   W12
 .byte   An0 ,v100
 .byte   W12
@  #06 @001   ----------------------------------------
Label_FAA75D:
 .byte   N12 ,An0 ,v127
 .byte   W12
 .byte   An0 ,v100
 .byte   W12
 .byte   N12
 .byte   W12
 .byte   An0 ,v127
 .byte   W12
 .byte   An0 ,v100
 .byte   W12
 .byte   N12
 .byte   W12
 .byte   An0 ,v127
 .byte   W12
 .byte   An0 ,v100
 .byte   W12
 .byte   PEND 
@  #06 @002   ----------------------------------------
 .byte   PATT
  .word Label_FAA75D
@  #06 @003   ----------------------------------------
 .byte   PATT
  .word Label_FAA75D
@  #06 @004   ----------------------------------------
 .byte   PATT
  .word Label_FAA75D
@  #06 @005   ----------------------------------------
 .byte   PATT
  .word Label_FAA75D
@  #06 @006   ----------------------------------------
 .byte   PATT
  .word Label_FAA75D
@  #06 @007   ----------------------------------------
 .byte   PATT
  .word Label_FAA75D
@  #06 @008   ----------------------------------------
 .byte   PATT
  .word Label_FAA75D
@  #06 @009   ----------------------------------------
 .byte   PATT
  .word Label_FAA75D
@  #06 @010   ----------------------------------------
 .byte   PATT
  .word Label_FAA75D
@  #06 @011   ----------------------------------------
 .byte   PATT
  .word Label_FAA75D
@  #06 @012   ----------------------------------------
 .byte   PATT
  .word Label_FAA75D
@  #06 @013   ----------------------------------------
 .byte   PATT
  .word Label_FAA75D
@  #06 @014   ----------------------------------------
Label_FAA7B1:
 .byte   N12 ,Fn0 ,v127
 .byte   W12
 .byte   Fn0 ,v100
 .byte   W12
 .byte   N12
 .byte   W12
 .byte   Fn0 ,v127
 .byte   W12
 .byte   Fn0 ,v100
 .byte   W12
 .byte   N12
 .byte   W12
 .byte   Fn0 ,v127
 .byte   W12
 .byte   Fn0 ,v100
 .byte   W12
 .byte   PEND 
@  #06 @015   ----------------------------------------
 .byte   PATT
  .word Label_FAA7B1
@  #06 @016   ----------------------------------------
Label_FAA7CE:
 .byte   N12 ,Dn0 ,v127
 .byte   W12
 .byte   Dn0 ,v100
 .byte   W12
 .byte   N12
 .byte   W12
 .byte   Dn0 ,v127
 .byte   W12
 .byte   Dn0 ,v100
 .byte   W12
 .byte   N12
 .byte   W12
 .byte   Dn0 ,v127
 .byte   W12
 .byte   Dn0 ,v100
 .byte   W12
 .byte   PEND 
@  #06 @017   ----------------------------------------
Label_FAA7E6:
 .byte   N12 ,Gn0 ,v127
 .byte   W12
 .byte   Gn0 ,v100
 .byte   W12
 .byte   N12
 .byte   W12
 .byte   Gn0 ,v127
 .byte   W12
 .byte   Gn0 ,v100
 .byte   W12
 .byte   N12
 .byte   W12
 .byte   Gn0 ,v127
 .byte   W12
 .byte   Gn0 ,v100
 .byte   W12
 .byte   PEND 
@  #06 @018   ----------------------------------------
 .byte   PATT
  .word Label_FAA75D
@  #06 @019   ----------------------------------------
 .byte   PATT
  .word Label_FAA75D
@  #06 @020   ----------------------------------------
 .byte   PATT
  .word Label_FAA75D
@  #06 @021   ----------------------------------------
 .byte   PATT
  .word Label_FAA75D
@  #06 @022   ----------------------------------------
 .byte   GOTO
  .word Label_FAA742
@  #06 @023   ----------------------------------------
 .byte   PATT
  .word Label_FAA75D
@  #06 @024   ----------------------------------------
 .byte   PATT
  .word Label_FAA75D
@  #06 @025   ----------------------------------------
 .byte   PATT
  .word Label_FAA75D
@  #06 @026   ----------------------------------------
 .byte   PATT
  .word Label_FAA75D
@  #06 @027   ----------------------------------------
 .byte   PATT
  .word Label_FAA75D
@  #06 @028   ----------------------------------------
 .byte   PATT
  .word Label_FAA75D
@  #06 @029   ----------------------------------------
 .byte   PATT
  .word Label_FAA75D
@  #06 @030   ----------------------------------------
 .byte   PATT
  .word Label_FAA75D
@  #06 @031   ----------------------------------------
 .byte   PATT
  .word Label_FAA75D
@  #06 @032   ----------------------------------------
 .byte   PATT
  .word Label_FAA75D
@  #06 @033   ----------------------------------------
 .byte   PATT
  .word Label_FAA75D
@  #06 @034   ----------------------------------------
 .byte   PATT
  .word Label_FAA75D
@  #06 @035   ----------------------------------------
 .byte   PATT
  .word Label_FAA75D
@  #06 @036   ----------------------------------------
 .byte   PATT
  .word Label_FAA75D
@  #06 @037   ----------------------------------------
 .byte   PATT
  .word Label_FAA7B1
@  #06 @038   ----------------------------------------
 .byte   PATT
  .word Label_FAA7B1
@  #06 @039   ----------------------------------------
 .byte   PATT
  .word Label_FAA7CE
@  #06 @040   ----------------------------------------
 .byte   PATT
  .word Label_FAA7E6
@  #06 @041   ----------------------------------------
 .byte   PATT
  .word Label_FAA75D
@  #06 @042   ----------------------------------------
 .byte   PATT
  .word Label_FAA75D
@  #06 @043   ----------------------------------------
 .byte   PATT
  .word Label_FAA75D
@  #06 @044   ----------------------------------------
 .byte   N12 ,An0 ,v127
 .byte   W12
 .byte   An0 ,v100
 .byte   W12
 .byte   N12
 .byte   W12
 .byte   An0 ,v127
 .byte   W12
 .byte   An0 ,v100
 .byte   W12
 .byte   N12
 .byte   W12
 .byte   An0 ,v127
 .byte   W18
 .byte   VOICE , 34
 .byte   VOL , 46*SearchingTheEnemy_mvl/mxv
 .byte   FINE

@**************** Track 7 (Midi-Chn.6) ****************@

SearchingTheEnemy_007:
@  #07 @000   ----------------------------------------
 .byte   KEYSH , SearchingTheEnemy_key+0
Label_FAAB42:
 .byte   VOICE , 71
 .byte   VOL , 43*SearchingTheEnemy_mvl/mxv
 .byte   W96
@  #07 @001   ----------------------------------------
 .byte   W96
@  #07 @002   ----------------------------------------
 .byte   W96
@  #07 @003   ----------------------------------------
 .byte   W96
@  #07 @004   ----------------------------------------
 .byte   W96
@  #07 @005   ----------------------------------------
 .byte   W96
@  #07 @006   ----------------------------------------
 .byte   W96
@  #07 @007   ----------------------------------------
 .byte   W96
@  #07 @008   ----------------------------------------
 .byte   W96
@  #07 @009   ----------------------------------------
 .byte   W96
@  #07 @010   ----------------------------------------
 .byte   W96
@  #07 @011   ----------------------------------------
 .byte   W96
@  #07 @012   ----------------------------------------
 .byte   W96
@  #07 @013   ----------------------------------------
Label_FAAB53:
 .byte   W48
 .byte   N06 ,An1 ,v100
 .byte   W06
 .byte   Bn1
 .byte   W06
 .byte   Cn2
 .byte   W06
 .byte   Dn2
 .byte   W06
 .byte   En2
 .byte   W06
 .byte   Fs2
 .byte   W06
 .byte   Gn2
 .byte   W06
 .byte   An2
 .byte   W06
 .byte   PEND 
@  #07 @014   ----------------------------------------
 .byte   W96
@  #07 @015   ----------------------------------------
 .byte   W96
@  #07 @016   ----------------------------------------
 .byte   W96
@  #07 @017   ----------------------------------------
 .byte   W96
@  #07 @018   ----------------------------------------
 .byte   W96
@  #07 @019   ----------------------------------------
 .byte   N84
 .byte   N84 ,En3
 .byte   W96
@  #07 @020   ----------------------------------------
 .byte   W96
@  #07 @021   ----------------------------------------
 .byte   W96
@  #07 @022   ----------------------------------------
 .byte   GOTO
  .word Label_FAAB42
@  #07 @023   ----------------------------------------
 .byte   W96
@  #07 @024   ----------------------------------------
 .byte   W96
@  #07 @025   ----------------------------------------
 .byte   W96
@  #07 @026   ----------------------------------------
 .byte   W96
@  #07 @027   ----------------------------------------
 .byte   W96
@  #07 @028   ----------------------------------------
 .byte   W96
@  #07 @029   ----------------------------------------
 .byte   W96
@  #07 @030   ----------------------------------------
 .byte   W96
@  #07 @031   ----------------------------------------
 .byte   W96
@  #07 @032   ----------------------------------------
 .byte   W96
@  #07 @033   ----------------------------------------
 .byte   W96
@  #07 @034   ----------------------------------------
 .byte   W96
@  #07 @035   ----------------------------------------
 .byte   W96
@  #07 @036   ----------------------------------------
 .byte   PATT
  .word Label_FAAB53
@  #07 @037   ----------------------------------------
 .byte   W96
@  #07 @038   ----------------------------------------
 .byte   W96
@  #07 @039   ----------------------------------------
 .byte   W96
@  #07 @040   ----------------------------------------
 .byte   W96
@  #07 @041   ----------------------------------------
 .byte   W96
@  #07 @042   ----------------------------------------
 .byte   N84 ,An2 ,v100
 .byte   N84 ,En3
 .byte   W96
@  #07 @043   ----------------------------------------
 .byte   W96
@  #07 @044   ----------------------------------------
 .byte   W90
 .byte   VOICE , 71
 .byte   VOL , 43*SearchingTheEnemy_mvl/mxv
 .byte   FINE

@**************** Track 8 (Midi-Chn.7) ****************@

SearchingTheEnemy_008:
@  #08 @000   ----------------------------------------
 .byte   KEYSH , SearchingTheEnemy_key+0
Label_FAAACE:
 .byte   VOICE , 56
 .byte   VOL , 40*SearchingTheEnemy_mvl/mxv
 .byte   PAN , c_v-33
 .byte   W96
@  #08 @001   ----------------------------------------
 .byte   W96
@  #08 @002   ----------------------------------------
 .byte   W96
@  #08 @003   ----------------------------------------
Label_FAAAD7:
 .byte   W24
 .byte   W03
 .byte   N18 ,Gn3 ,v100
 .byte   W24
 .byte   Fs3
 .byte   W24
 .byte   Dn3
 .byte   W21
 .byte   PEND 
@  #08 @004   ----------------------------------------
 .byte   W96
@  #08 @005   ----------------------------------------
 .byte   W96
@  #08 @006   ----------------------------------------
 .byte   W96
@  #08 @007   ----------------------------------------
 .byte   W96
@  #08 @008   ----------------------------------------
 .byte   W96
@  #08 @009   ----------------------------------------
 .byte   W96
@  #08 @010   ----------------------------------------
 .byte   W96
@  #08 @011   ----------------------------------------
Label_FAAAE9:
 .byte   W48
 .byte   W03
 .byte   N18 ,En3 ,v100
 .byte   W24
 .byte   Gn3
 .byte   W21
 .byte   PEND 
@  #08 @012   ----------------------------------------
Label_FAAAF2:
 .byte   W03
 .byte   N36 ,Fs3 ,v100
 .byte   W48
 .byte   Dn3
 .byte   W44
 .byte   W01
 .byte   PEND 
@  #08 @013   ----------------------------------------
Label_FAAAFB:
 .byte   W03
 .byte   N72 ,En3 ,v100
 .byte   W92
 .byte   W01
 .byte   PEND 
@  #08 @014   ----------------------------------------
 .byte   W96
@  #08 @015   ----------------------------------------
 .byte   W96
@  #08 @016   ----------------------------------------
 .byte   W96
@  #08 @017   ----------------------------------------
 .byte   W96
@  #08 @018   ----------------------------------------
 .byte   W96
@  #08 @019   ----------------------------------------
 .byte   W96
@  #08 @020   ----------------------------------------
 .byte   W96
@  #08 @021   ----------------------------------------
 .byte   W96
@  #08 @022   ----------------------------------------
 .byte   GOTO
  .word Label_FAAACE
@  #08 @023   ----------------------------------------
 .byte   VOL , 40*SearchingTheEnemy_mvl/mxv
 .byte   PAN , c_v-33
 .byte   W96
@  #08 @024   ----------------------------------------
 .byte   W96
@  #08 @025   ----------------------------------------
 .byte   W96
@  #08 @026   ----------------------------------------
 .byte   PATT
  .word Label_FAAAD7
@  #08 @027   ----------------------------------------
 .byte   W96
@  #08 @028   ----------------------------------------
 .byte   W96
@  #08 @029   ----------------------------------------
 .byte   W96
@  #08 @030   ----------------------------------------
 .byte   W96
@  #08 @031   ----------------------------------------
 .byte   W96
@  #08 @032   ----------------------------------------
 .byte   W96
@  #08 @033   ----------------------------------------
 .byte   W96
@  #08 @034   ----------------------------------------
 .byte   PATT
  .word Label_FAAAE9
@  #08 @035   ----------------------------------------
 .byte   PATT
  .word Label_FAAAF2
@  #08 @036   ----------------------------------------
 .byte   PATT
  .word Label_FAAAFB
@  #08 @037   ----------------------------------------
 .byte   W96
@  #08 @038   ----------------------------------------
 .byte   W96
@  #08 @039   ----------------------------------------
 .byte   W96
@  #08 @040   ----------------------------------------
 .byte   W96
@  #08 @041   ----------------------------------------
 .byte   W96
@  #08 @042   ----------------------------------------
 .byte   W96
@  #08 @043   ----------------------------------------
 .byte   W96
@  #08 @044   ----------------------------------------
 .byte   W90
 .byte   VOICE , 56
 .byte   VOL , 40*SearchingTheEnemy_mvl/mxv
 .byte   PAN , c_v-33
 .byte   FINE

@**************** Track 9 (Midi-Chn.8) ****************@

SearchingTheEnemy_009:
@  #09 @000   ----------------------------------------
 .byte   KEYSH , SearchingTheEnemy_key+0
Label_01005142:
 .byte   VOICE , 58
 .byte   VOL , 39*SearchingTheEnemy_mvl/mxv
 .byte   N12 ,An0 ,v100
 .byte   W36
 .byte   N12
 .byte   W36
 .byte   N12
 .byte   W24
@  #09 @001   ----------------------------------------
Label_0100514E:
 .byte   N12 ,An0 ,v100
 .byte   W36
 .byte   N12
 .byte   W36
 .byte   N12
 .byte   W24
 .byte   PEND 
@  #09 @002   ----------------------------------------
 .byte   PATT
  .word Label_0100514E
@  #09 @003   ----------------------------------------
 .byte   PATT
  .word Label_0100514E
@  #09 @004   ----------------------------------------
 .byte   PATT
  .word Label_0100514E
@  #09 @005   ----------------------------------------
 .byte   PATT
  .word Label_0100514E
@  #09 @006   ----------------------------------------
 .byte   PATT
  .word Label_0100514E
@  #09 @007   ----------------------------------------
 .byte   PATT
  .word Label_0100514E
@  #09 @008   ----------------------------------------
 .byte   PATT
  .word Label_0100514E
@  #09 @009   ----------------------------------------
 .byte   PATT
  .word Label_0100514E
@  #09 @010   ----------------------------------------
 .byte   PATT
  .word Label_0100514E
@  #09 @011   ----------------------------------------
 .byte   PATT
  .word Label_0100514E
@  #09 @012   ----------------------------------------
 .byte   PATT
  .word Label_0100514E
@  #09 @013   ----------------------------------------
 .byte   PATT
  .word Label_0100514E
@  #09 @014   ----------------------------------------
Label_01005193:
 .byte   N12 ,Fn0 ,v100
 .byte   W36
 .byte   N12
 .byte   W36
 .byte   N12
 .byte   W24
 .byte   PEND 
@  #09 @015   ----------------------------------------
 .byte   PATT
  .word Label_01005193
@  #09 @016   ----------------------------------------
Label_010051A1:
 .byte   N12 ,Dn0 ,v100
 .byte   W36
 .byte   N12
 .byte   W36
 .byte   N12
 .byte   W24
 .byte   PEND 
@  #09 @017   ----------------------------------------
Label_010051AA:
 .byte   N12 ,Gn0 ,v100
 .byte   W36
 .byte   N12
 .byte   W36
 .byte   N12
 .byte   W24
 .byte   PEND 
@  #09 @018   ----------------------------------------
 .byte   PATT
  .word Label_0100514E
@  #09 @019   ----------------------------------------
 .byte   PATT
  .word Label_0100514E
@  #09 @020   ----------------------------------------
 .byte   PATT
  .word Label_0100514E
@  #09 @021   ----------------------------------------
 .byte   PATT
  .word Label_0100514E
@  #09 @022   ----------------------------------------
 .byte   GOTO
  .word Label_01005142
@  #09 @023   ----------------------------------------
 .byte   PATT
  .word Label_0100514E
@  #09 @024   ----------------------------------------
 .byte   PATT
  .word Label_0100514E
@  #09 @025   ----------------------------------------
 .byte   PATT
  .word Label_0100514E
@  #09 @026   ----------------------------------------
 .byte   PATT
  .word Label_0100514E
@  #09 @027   ----------------------------------------
 .byte   PATT
  .word Label_0100514E
@  #09 @028   ----------------------------------------
 .byte   PATT
  .word Label_0100514E
@  #09 @029   ----------------------------------------
 .byte   PATT
  .word Label_0100514E
@  #09 @030   ----------------------------------------
 .byte   PATT
  .word Label_0100514E
@  #09 @031   ----------------------------------------
 .byte   PATT
  .word Label_0100514E
@  #09 @032   ----------------------------------------
 .byte   PATT
  .word Label_0100514E
@  #09 @033   ----------------------------------------
 .byte   PATT
  .word Label_0100514E
@  #09 @034   ----------------------------------------
 .byte   PATT
  .word Label_0100514E
@  #09 @035   ----------------------------------------
 .byte   PATT
  .word Label_0100514E
@  #09 @036   ----------------------------------------
 .byte   PATT
  .word Label_0100514E
@  #09 @037   ----------------------------------------
 .byte   PATT
  .word Label_01005193
@  #09 @038   ----------------------------------------
 .byte   PATT
  .word Label_01005193
@  #09 @039   ----------------------------------------
 .byte   PATT
  .word Label_010051A1
@  #09 @040   ----------------------------------------
 .byte   PATT
  .word Label_010051AA
@  #09 @041   ----------------------------------------
 .byte   PATT
  .word Label_0100514E
@  #09 @042   ----------------------------------------
 .byte   PATT
  .word Label_0100514E
@  #09 @043   ----------------------------------------
 .byte   PATT
  .word Label_0100514E
@  #09 @044   ----------------------------------------
 .byte   N12 ,An0 ,v100
 .byte   W36
 .byte   N12
 .byte   W36
 .byte   N12
 .byte   W18
 .byte   VOICE , 58
 .byte   VOL , 39*SearchingTheEnemy_mvl/mxv
 .byte   FINE

@**************** Track 10 (Midi-Chn.9) ****************@

SearchingTheEnemy_010:
@  #10 @000   ----------------------------------------
 .byte   KEYSH , SearchingTheEnemy_key+0
Label_01005256:
 .byte   VOICE , 124
 .byte   VOL , 34*SearchingTheEnemy_mvl/mxv
 .byte   N06 ,Dn1 ,v100
 .byte   N06 ,En1
 .byte   W36
 .byte   Dn1
 .byte   N06 ,En1
 .byte   W48
 .byte   Dn1
 .byte   N06 ,En1
 .byte   W06
 .byte   Dn1
 .byte   N06 ,En1
 .byte   W06
@  #10 @001   ----------------------------------------
Label_0100526C:
 .byte   N06 ,Dn1 ,v100
 .byte   N06 ,En1
 .byte   W24
 .byte   Dn1
 .byte   N06 ,En1
 .byte   W72
 .byte   PEND 
@  #10 @002   ----------------------------------------
Label_01005277:
 .byte   N06 ,Dn1 ,v100
 .byte   N06 ,En1
 .byte   W36
 .byte   Dn1
 .byte   N06 ,En1
 .byte   W48
 .byte   Dn1
 .byte   N06 ,En1
 .byte   W06
 .byte   Dn1
 .byte   N06 ,En1
 .byte   W06
 .byte   PEND 
@  #10 @003   ----------------------------------------
 .byte   PATT
  .word Label_0100526C
@  #10 @004   ----------------------------------------
 .byte   PATT
  .word Label_01005277
@  #10 @005   ----------------------------------------
 .byte   PATT
  .word Label_0100526C
@  #10 @006   ----------------------------------------
 .byte   PATT
  .word Label_01005277
@  #10 @007   ----------------------------------------
 .byte   PATT
  .word Label_0100526C
@  #10 @008   ----------------------------------------
 .byte   PATT
  .word Label_01005277
@  #10 @009   ----------------------------------------
 .byte   PATT
  .word Label_0100526C
@  #10 @010   ----------------------------------------
 .byte   PATT
  .word Label_01005277
@  #10 @011   ----------------------------------------
 .byte   PATT
  .word Label_0100526C
@  #10 @012   ----------------------------------------
 .byte   PATT
  .word Label_01005277
@  #10 @013   ----------------------------------------
 .byte   PATT
  .word Label_0100526C
@  #10 @014   ----------------------------------------
 .byte   W96
@  #10 @015   ----------------------------------------
 .byte   W96
@  #10 @016   ----------------------------------------
 .byte   W96
@  #10 @017   ----------------------------------------
 .byte   W96
@  #10 @018   ----------------------------------------
 .byte   W96
@  #10 @019   ----------------------------------------
 .byte   W96
@  #10 @020   ----------------------------------------
 .byte   PATT
  .word Label_01005277
@  #10 @021   ----------------------------------------
 .byte   PATT
  .word Label_0100526C
@  #10 @022   ----------------------------------------
 .byte   GOTO
  .word Label_01005256
@  #10 @023   ----------------------------------------
 .byte   PATT
  .word Label_01005277
@  #10 @024   ----------------------------------------
 .byte   PATT
  .word Label_0100526C
@  #10 @025   ----------------------------------------
 .byte   PATT
  .word Label_01005277
@  #10 @026   ----------------------------------------
 .byte   PATT
  .word Label_0100526C
@  #10 @027   ----------------------------------------
 .byte   PATT
  .word Label_01005277
@  #10 @028   ----------------------------------------
 .byte   PATT
  .word Label_0100526C
@  #10 @029   ----------------------------------------
 .byte   PATT
  .word Label_01005277
@  #10 @030   ----------------------------------------
 .byte   PATT
  .word Label_0100526C
@  #10 @031   ----------------------------------------
 .byte   PATT
  .word Label_01005277
@  #10 @032   ----------------------------------------
 .byte   PATT
  .word Label_0100526C
@  #10 @033   ----------------------------------------
 .byte   PATT
  .word Label_01005277
@  #10 @034   ----------------------------------------
 .byte   PATT
  .word Label_0100526C
@  #10 @035   ----------------------------------------
 .byte   PATT
  .word Label_01005277
@  #10 @036   ----------------------------------------
 .byte   PATT
  .word Label_0100526C
@  #10 @037   ----------------------------------------
 .byte   W96
@  #10 @038   ----------------------------------------
 .byte   W96
@  #10 @039   ----------------------------------------
 .byte   W96
@  #10 @040   ----------------------------------------
 .byte   W96
@  #10 @041   ----------------------------------------
 .byte   W96
@  #10 @042   ----------------------------------------
 .byte   W96
@  #10 @043   ----------------------------------------
 .byte   PATT
  .word Label_01005277
@  #10 @044   ----------------------------------------
 .byte   N06 ,Dn1 ,v100
 .byte   N06 ,En1
 .byte   W24
 .byte   Dn1
 .byte   N06 ,En1
 .byte   W66
 .byte   VOICE , 124
 .byte   VOL , 34*SearchingTheEnemy_mvl/mxv
 .byte   FINE

@**************** Track 11 (Midi-Chn.10) ****************@

SearchingTheEnemy_011:
@  #11 @000   ----------------------------------------
 .byte   KEYSH , SearchingTheEnemy_key+0
Label_01005466:
 .byte   VOICE , 47
 .byte   VOL , 34*SearchingTheEnemy_mvl/mxv
 .byte   N12 ,An2 ,v100
 .byte   W96
@  #11 @001   ----------------------------------------
Label_0100546E:
 .byte   W84
 .byte   N06 ,An2 ,v100
 .byte   W06
 .byte   En2
 .byte   W06
 .byte   PEND 
@  #11 @002   ----------------------------------------
 .byte   N12 ,An2
 .byte   W96
@  #11 @003   ----------------------------------------
Label_01005479:
 .byte   W84
 .byte   N06 ,An2 ,v100
 .byte   W06
 .byte   Fn2
 .byte   W06
 .byte   PEND 
@  #11 @004   ----------------------------------------
 .byte   N12 ,An2
 .byte   W96
@  #11 @005   ----------------------------------------
 .byte   PATT
  .word Label_01005479
@  #11 @006   ----------------------------------------
 .byte   N12 ,An2 ,v100
 .byte   W96
@  #11 @007   ----------------------------------------
 .byte   PATT
  .word Label_01005479
@  #11 @008   ----------------------------------------
 .byte   N12 ,An2 ,v100
 .byte   W96
@  #11 @009   ----------------------------------------
 .byte   PATT
  .word Label_01005479
@  #11 @010   ----------------------------------------
 .byte   N12 ,An2 ,v100
 .byte   W96
@  #11 @011   ----------------------------------------
 .byte   PATT
  .word Label_01005479
@  #11 @012   ----------------------------------------
 .byte   N12 ,An2 ,v100
 .byte   W96
@  #11 @013   ----------------------------------------
 .byte   PATT
  .word Label_01005479
@  #11 @014   ----------------------------------------
Label_010054AD:
 .byte   N12 ,An2 ,v100
 .byte   W12
 .byte   N24 ,Fn2
 .byte   W24
 .byte   N24
 .byte   W24
 .byte   N24
 .byte   W24
 .byte   N12
 .byte   W12
 .byte   PEND 
@  #11 @015   ----------------------------------------
Label_010054BB:
 .byte   N12 ,An2 ,v100
 .byte   W12
 .byte   N24 ,Fn2
 .byte   W24
 .byte   N24
 .byte   W24
 .byte   N24
 .byte   W24
 .byte   N06 ,An2
 .byte   W06
 .byte   Fn2
 .byte   W06
 .byte   PEND 
@  #11 @016   ----------------------------------------
 .byte   PATT
  .word Label_010054AD
@  #11 @017   ----------------------------------------
 .byte   PATT
  .word Label_010054BB
@  #11 @018   ----------------------------------------
Label_010054D6:
 .byte   N12 ,An2 ,v100
 .byte   W12
 .byte   N24 ,Fn2
 .byte   W24
 .byte   N24
 .byte   W48
 .byte   N06
 .byte   W06
 .byte   An2
 .byte   W06
 .byte   PEND 
@  #11 @019   ----------------------------------------
 .byte   PATT
  .word Label_010054BB
@  #11 @020   ----------------------------------------
 .byte   PATT
  .word Label_010054AD
@  #11 @021   ----------------------------------------
 .byte   PATT
  .word Label_010054BB
@  #11 @022   ----------------------------------------
 .byte   GOTO
  .word Label_01005466
@  #11 @023   ----------------------------------------
 .byte   N12 ,An2 ,v100
 .byte   W96
@  #11 @024   ----------------------------------------
 .byte   PATT
  .word Label_0100546E
@  #11 @025   ----------------------------------------
 .byte   N12 ,An2 ,v100
 .byte   W96
@  #11 @026   ----------------------------------------
 .byte   PATT
  .word Label_01005479
@  #11 @027   ----------------------------------------
 .byte   N12 ,An2 ,v100
 .byte   W96
@  #11 @028   ----------------------------------------
 .byte   PATT
  .word Label_01005479
@  #11 @029   ----------------------------------------
 .byte   N12 ,An2 ,v100
 .byte   W96
@  #11 @030   ----------------------------------------
 .byte   PATT
  .word Label_01005479
@  #11 @031   ----------------------------------------
 .byte   N12 ,An2 ,v100
 .byte   W96
@  #11 @032   ----------------------------------------
 .byte   PATT
  .word Label_01005479
@  #11 @033   ----------------------------------------
 .byte   N12 ,An2 ,v100
 .byte   W96
@  #11 @034   ----------------------------------------
 .byte   PATT
  .word Label_01005479
@  #11 @035   ----------------------------------------
 .byte   N12 ,An2 ,v100
 .byte   W96
@  #11 @036   ----------------------------------------
 .byte   PATT
  .word Label_01005479
@  #11 @037   ----------------------------------------
 .byte   PATT
  .word Label_010054AD
@  #11 @038   ----------------------------------------
 .byte   PATT
  .word Label_010054BB
@  #11 @039   ----------------------------------------
 .byte   PATT
  .word Label_010054AD
@  #11 @040   ----------------------------------------
 .byte   PATT
  .word Label_010054BB
@  #11 @041   ----------------------------------------
 .byte   PATT
  .word Label_010054D6
@  #11 @042   ----------------------------------------
 .byte   PATT
  .word Label_010054BB
@  #11 @043   ----------------------------------------
 .byte   PATT
  .word Label_010054AD
@  #11 @044   ----------------------------------------
 .byte   N12 ,An2 ,v100
 .byte   W12
 .byte   N24 ,Fn2
 .byte   W24
 .byte   N24
 .byte   W24
 .byte   N24
 .byte   W24
 .byte   N06 ,An2
 .byte   W06
 .byte   VOICE , 47
 .byte   VOL , 34*SearchingTheEnemy_mvl/mxv
 .byte   FINE

@**************** Track 12 (Midi-Chn.11) ****************@

SearchingTheEnemy_012:
@  #12 @000   ----------------------------------------
 .byte   KEYSH , SearchingTheEnemy_key+0
Label_0100534A:
 .byte   VOICE , 47
 .byte   VOL , 41*SearchingTheEnemy_mvl/mxv
 .byte   N12 ,An1 ,v100
 .byte   W96
@  #12 @001   ----------------------------------------
Label_01005352:
 .byte   W84
 .byte   N06 ,An1 ,v100
 .byte   W06
 .byte   En1
 .byte   W06
 .byte   PEND 
@  #12 @002   ----------------------------------------
 .byte   N12 ,An1
 .byte   W96
@  #12 @003   ----------------------------------------
Label_0100535D:
 .byte   W84
 .byte   N06 ,An1 ,v100
 .byte   W06
 .byte   Fn1
 .byte   W06
 .byte   PEND 
@  #12 @004   ----------------------------------------
 .byte   N12 ,An1
 .byte   W96
@  #12 @005   ----------------------------------------
 .byte   PATT
  .word Label_0100535D
@  #12 @006   ----------------------------------------
 .byte   N12 ,An1 ,v100
 .byte   W96
@  #12 @007   ----------------------------------------
 .byte   PATT
  .word Label_0100535D
@  #12 @008   ----------------------------------------
 .byte   N12 ,An1 ,v100
 .byte   W96
@  #12 @009   ----------------------------------------
 .byte   PATT
  .word Label_0100535D
@  #12 @010   ----------------------------------------
 .byte   N12 ,An1 ,v100
 .byte   W96
@  #12 @011   ----------------------------------------
 .byte   PATT
  .word Label_0100535D
@  #12 @012   ----------------------------------------
 .byte   N12 ,An1 ,v100
 .byte   W96
@  #12 @013   ----------------------------------------
 .byte   PATT
  .word Label_0100535D
@  #12 @014   ----------------------------------------
Label_01005391:
 .byte   N12 ,An1 ,v100
 .byte   W12
 .byte   N24 ,Fn1
 .byte   W24
 .byte   N24
 .byte   W24
 .byte   N24
 .byte   W24
 .byte   N12
 .byte   W12
 .byte   PEND 
@  #12 @015   ----------------------------------------
Label_0100539F:
 .byte   N12 ,An1 ,v100
 .byte   W12
 .byte   N24 ,Fn1
 .byte   W24
 .byte   N24
 .byte   W24
 .byte   N24
 .byte   W24
 .byte   N06 ,An1
 .byte   W06
 .byte   Fn1
 .byte   W06
 .byte   PEND 
@  #12 @016   ----------------------------------------
 .byte   PATT
  .word Label_01005391
@  #12 @017   ----------------------------------------
 .byte   PATT
  .word Label_0100539F
@  #12 @018   ----------------------------------------
Label_010053BA:
 .byte   N12 ,An1 ,v100
 .byte   W12
 .byte   N24 ,Fn1
 .byte   W24
 .byte   N24
 .byte   W48
 .byte   N06
 .byte   W06
 .byte   An1
 .byte   W06
 .byte   PEND 
@  #12 @019   ----------------------------------------
 .byte   PATT
  .word Label_0100539F
@  #12 @020   ----------------------------------------
 .byte   PATT
  .word Label_01005391
@  #12 @021   ----------------------------------------
 .byte   PATT
  .word Label_0100539F
@  #12 @022   ----------------------------------------
 .byte   GOTO
  .word Label_0100534A
@  #12 @023   ----------------------------------------
 .byte   N12 ,An1 ,v100
 .byte   W96
@  #12 @024   ----------------------------------------
 .byte   PATT
  .word Label_01005352
@  #12 @025   ----------------------------------------
 .byte   N12 ,An1 ,v100
 .byte   W96
@  #12 @026   ----------------------------------------
 .byte   PATT
  .word Label_0100535D
@  #12 @027   ----------------------------------------
 .byte   N12 ,An1 ,v100
 .byte   W96
@  #12 @028   ----------------------------------------
 .byte   PATT
  .word Label_0100535D
@  #12 @029   ----------------------------------------
 .byte   N12 ,An1 ,v100
 .byte   W96
@  #12 @030   ----------------------------------------
 .byte   PATT
  .word Label_0100535D
@  #12 @031   ----------------------------------------
 .byte   N12 ,An1 ,v100
 .byte   W96
@  #12 @032   ----------------------------------------
 .byte   PATT
  .word Label_0100535D
@  #12 @033   ----------------------------------------
 .byte   N12 ,An1 ,v100
 .byte   W96
@  #12 @034   ----------------------------------------
 .byte   PATT
  .word Label_0100535D
@  #12 @035   ----------------------------------------
 .byte   N12 ,An1 ,v100
 .byte   W96
@  #12 @036   ----------------------------------------
 .byte   PATT
  .word Label_0100535D
@  #12 @037   ----------------------------------------
 .byte   PATT
  .word Label_01005391
@  #12 @038   ----------------------------------------
 .byte   PATT
  .word Label_0100539F
@  #12 @039   ----------------------------------------
 .byte   PATT
  .word Label_01005391
@  #12 @040   ----------------------------------------
 .byte   PATT
  .word Label_0100539F
@  #12 @041   ----------------------------------------
 .byte   PATT
  .word Label_010053BA
@  #12 @042   ----------------------------------------
 .byte   PATT
  .word Label_0100539F
@  #12 @043   ----------------------------------------
 .byte   PATT
  .word Label_01005391
@  #12 @044   ----------------------------------------
 .byte   N12 ,An1 ,v100
 .byte   W12
 .byte   N24 ,Fn1
 .byte   W24
 .byte   N24
 .byte   W24
 .byte   N24
 .byte   W24
 .byte   N06 ,An1
 .byte   W06
 .byte   VOICE , 47
 .byte   VOL , 41*SearchingTheEnemy_mvl/mxv
 .byte   FINE

@******************************************************@
	.align	2

SearchingTheEnemy:
	.byte	12	@ NumTrks
	.byte	0	@ NumBlks
	.byte	SearchingTheEnemy_pri	@ Priority
	.byte	SearchingTheEnemy_rev	@ Reverb.
    
	.word	SearchingTheEnemy_grp
    
	.word	SearchingTheEnemy_001
	.word	SearchingTheEnemy_002
	.word	SearchingTheEnemy_003
	.word	SearchingTheEnemy_004
	.word	SearchingTheEnemy_005
	.word	SearchingTheEnemy_006
	.word	SearchingTheEnemy_007
	.word	SearchingTheEnemy_008
	.word	SearchingTheEnemy_009
	.word	SearchingTheEnemy_010
	.word	SearchingTheEnemy_011
	.word	SearchingTheEnemy_012

	.end
