	.include "MPlayDef.s"

	.equ	song0B_grp, voicegroup000
	.equ	song0B_pri, 0
	.equ	song0B_rev, 0
	.equ	song0B_mvl, 127
	.equ	song0B_key, 0
	.equ	song0B_tbs, 1
	.equ	song0B_exg, 0
	.equ	song0B_cmp, 1

	.section .rodata
	.global	song0B
	.align	2


@**************** Track 1 (Midi-Chn.0) ****************@

song0B_001:
@ 000   ----------------------------------------
 .byte   KEYSH , song0B_key+0
Label_0_BBA4DA:
 .byte   TEMPO , 284*song0B_tbs/2
 .byte   VOICE , 1
 .byte   VOL , 29*song0B_mvl/mxv
 .byte   PAN , c_v+0
 .byte   N11 ,En5 ,v112
 .byte   W12
 .byte   En5 ,v080
 .byte   W12
 .byte   En5 ,v048
 .byte   W24
 .byte   En5 ,v112
 .byte   W12
 .byte   En5 ,v080
 .byte   W12
 .byte   En5 ,v048
 .byte   W24
@ 001   ----------------------------------------
Label_0_BBA4F5:
 .byte   N11 ,En5 ,v112
 .byte   W12
 .byte   En5 ,v080
 .byte   W12
 .byte   En5 ,v048
 .byte   W24
 .byte   En5 ,v112
 .byte   W12
 .byte   En5 ,v080
 .byte   W12
 .byte   En5 ,v048
 .byte   W24
 .byte   PEND 
@ 002   ----------------------------------------
 .byte   PATT
  .word Label_0_BBA4F5
@ 003   ----------------------------------------
 .byte   PATT
  .word Label_0_BBA4F5
@ 004   ----------------------------------------
 .byte   PATT
  .word Label_0_BBA4F5
@ 005   ----------------------------------------
 .byte   PATT
  .word Label_0_BBA4F5
@ 006   ----------------------------------------
 .byte   PATT
  .word Label_0_BBA4F5
@ 007   ----------------------------------------
 .byte   PATT
  .word Label_0_BBA4F5
@ 008   ----------------------------------------
 .byte   W96
@ 009   ----------------------------------------
 .byte   W96
@ 010   ----------------------------------------
 .byte   W96
@ 011   ----------------------------------------
 .byte   W96
@ 012   ----------------------------------------
 .byte   W96
@ 013   ----------------------------------------
 .byte   W96
@ 014   ----------------------------------------
 .byte   W96
@ 015   ----------------------------------------
 .byte   W96
@ 016   ----------------------------------------
 .byte   W96
@ 017   ----------------------------------------
 .byte   W96
@ 018   ----------------------------------------
 .byte   W96
@ 019   ----------------------------------------
 .byte   W96
@ 020   ----------------------------------------
 .byte   W96
@ 021   ----------------------------------------
 .byte   W96
@ 022   ----------------------------------------
 .byte   W96
@ 023   ----------------------------------------
 .byte   W96
@ 024   ----------------------------------------
 .byte   W96
@ 025   ----------------------------------------
 .byte   W96
@ 026   ----------------------------------------
 .byte   W96
@ 027   ----------------------------------------
 .byte   W96
@ 028   ----------------------------------------
 .byte   W96
@ 029   ----------------------------------------
 .byte   W96
@ 030   ----------------------------------------
 .byte   W96
@ 031   ----------------------------------------
 .byte   W96
@ 032   ----------------------------------------
 .byte   W96
@ 033   ----------------------------------------
 .byte   W96
@ 034   ----------------------------------------
 .byte   W96
@ 035   ----------------------------------------
 .byte   W96
@ 036   ----------------------------------------
 .byte   W96
@ 037   ----------------------------------------
 .byte   W96
@ 038   ----------------------------------------
 .byte   W96
@ 039   ----------------------------------------
 .byte   W96
@ 040   ----------------------------------------
 .byte   W96
@ 041   ----------------------------------------
 .byte   W96
@ 042   ----------------------------------------
 .byte   W96
@ 043   ----------------------------------------
 .byte   W96
@ 044   ----------------------------------------
 .byte   W96
@ 045   ----------------------------------------
 .byte   W96
@ 046   ----------------------------------------
 .byte   W96
@ 047   ----------------------------------------
 .byte   W96
@ 048   ----------------------------------------
 .byte   W96
@ 049   ----------------------------------------
 .byte   W96
@ 050   ----------------------------------------
 .byte   W96
@ 051   ----------------------------------------
 .byte   W96
@ 052   ----------------------------------------
 .byte   W96
@ 053   ----------------------------------------
 .byte   W96
@ 054   ----------------------------------------
 .byte   W96
@ 055   ----------------------------------------
 .byte   W96
@ 056   ----------------------------------------
 .byte   W96
@ 057   ----------------------------------------
 .byte   W96
@ 058   ----------------------------------------
 .byte   W96
@ 059   ----------------------------------------
 .byte   W96
@ 060   ----------------------------------------
 .byte   W96
@ 061   ----------------------------------------
 .byte   W96
@ 062   ----------------------------------------
 .byte   W96
@ 063   ----------------------------------------
 .byte   W96
@ 064   ----------------------------------------
 .byte   W96
@ 065   ----------------------------------------
 .byte   W96
@ 066   ----------------------------------------
 .byte   W96
@ 067   ----------------------------------------
 .byte   W96
@ 068   ----------------------------------------
 .byte   GOTO
  .word Label_0_BBA4DA
 .byte   FINE

@**************** Track 2 (Midi-Chn.1) ****************@

song0B_002:
@ 000   ----------------------------------------
 .byte   KEYSH , song0B_key+0
Label_1_BBA56B:
 .byte   VOICE , 18
 .byte   VOL , 26*song0B_mvl/mxv
 .byte   PAN , c_v+0
 .byte   N11 ,En5 ,v112
 .byte   W12
 .byte   En5 ,v080
 .byte   W12
 .byte   En5 ,v048
 .byte   W24
 .byte   En5 ,v112
 .byte   W12
 .byte   En5 ,v080
 .byte   W12
 .byte   En5 ,v048
 .byte   W24
@ 001   ----------------------------------------
Label_1_BBA584:
 .byte   N11 ,En5 ,v112
 .byte   W12
 .byte   En5 ,v080
 .byte   W12
 .byte   En5 ,v048
 .byte   W24
 .byte   En5 ,v112
 .byte   W12
 .byte   En5 ,v080
 .byte   W12
 .byte   En5 ,v048
 .byte   W24
 .byte   PEND 
@ 002   ----------------------------------------
 .byte   PATT
  .word Label_1_BBA584
@ 003   ----------------------------------------
 .byte   PATT
  .word Label_1_BBA584
@ 004   ----------------------------------------
 .byte   PATT
  .word Label_1_BBA584
@ 005   ----------------------------------------
 .byte   PATT
  .word Label_1_BBA584
@ 006   ----------------------------------------
 .byte   PATT
  .word Label_1_BBA584
@ 007   ----------------------------------------
 .byte   PATT
  .word Label_1_BBA584
@ 008   ----------------------------------------
 .byte   W96
@ 009   ----------------------------------------
 .byte   W96
@ 010   ----------------------------------------
 .byte   W96
@ 011   ----------------------------------------
 .byte   W96
@ 012   ----------------------------------------
 .byte   W96
@ 013   ----------------------------------------
 .byte   W96
@ 014   ----------------------------------------
 .byte   W96
@ 015   ----------------------------------------
 .byte   W96
@ 016   ----------------------------------------
 .byte   W96
@ 017   ----------------------------------------
 .byte   W96
@ 018   ----------------------------------------
 .byte   W96
@ 019   ----------------------------------------
 .byte   W96
@ 020   ----------------------------------------
 .byte   W96
@ 021   ----------------------------------------
 .byte   W96
@ 022   ----------------------------------------
 .byte   W96
@ 023   ----------------------------------------
 .byte   W96
@ 024   ----------------------------------------
 .byte   W96
@ 025   ----------------------------------------
 .byte   W96
@ 026   ----------------------------------------
 .byte   W96
@ 027   ----------------------------------------
 .byte   W96
@ 028   ----------------------------------------
 .byte   W96
@ 029   ----------------------------------------
 .byte   W96
@ 030   ----------------------------------------
 .byte   W96
@ 031   ----------------------------------------
 .byte   W96
@ 032   ----------------------------------------
 .byte   W96
@ 033   ----------------------------------------
 .byte   W96
@ 034   ----------------------------------------
 .byte   W96
@ 035   ----------------------------------------
 .byte   W96
@ 036   ----------------------------------------
 .byte   W96
@ 037   ----------------------------------------
 .byte   W96
@ 038   ----------------------------------------
 .byte   W96
@ 039   ----------------------------------------
 .byte   W96
@ 040   ----------------------------------------
 .byte   W96
@ 041   ----------------------------------------
 .byte   W96
@ 042   ----------------------------------------
 .byte   W96
@ 043   ----------------------------------------
 .byte   W96
@ 044   ----------------------------------------
 .byte   W96
@ 045   ----------------------------------------
 .byte   W96
@ 046   ----------------------------------------
 .byte   W96
@ 047   ----------------------------------------
 .byte   W96
@ 048   ----------------------------------------
 .byte   W96
@ 049   ----------------------------------------
 .byte   W96
@ 050   ----------------------------------------
 .byte   W96
@ 051   ----------------------------------------
 .byte   W96
@ 052   ----------------------------------------
 .byte   W96
@ 053   ----------------------------------------
 .byte   W96
@ 054   ----------------------------------------
 .byte   W96
@ 055   ----------------------------------------
 .byte   W96
@ 056   ----------------------------------------
 .byte   W96
@ 057   ----------------------------------------
 .byte   W96
@ 058   ----------------------------------------
 .byte   W96
@ 059   ----------------------------------------
 .byte   W96
@ 060   ----------------------------------------
 .byte   W96
@ 061   ----------------------------------------
 .byte   W96
@ 062   ----------------------------------------
 .byte   W96
@ 063   ----------------------------------------
 .byte   W96
@ 064   ----------------------------------------
 .byte   W96
@ 065   ----------------------------------------
 .byte   W96
@ 066   ----------------------------------------
 .byte   W96
@ 067   ----------------------------------------
 .byte   W96
@ 068   ----------------------------------------
 .byte   GOTO
  .word Label_1_BBA56B
 .byte   FINE

@**************** Track 3 (Midi-Chn.2) ****************@

song0B_003:
@ 000   ----------------------------------------
 .byte   KEYSH , song0B_key+0
Label_2_BBA5FA:
 .byte   VOICE , 68
 .byte   VOL , 42*song0B_mvl/mxv
 .byte   PAN , c_v+0
 .byte   W96
@ 001   ----------------------------------------
 .byte   W96
@ 002   ----------------------------------------
 .byte   W96
@ 003   ----------------------------------------
 .byte   W96
@ 004   ----------------------------------------
 .byte   TIE ,En1 ,v127
 .byte   W96
@ 005   ----------------------------------------
 .byte   W96
@ 006   ----------------------------------------
 .byte   W96
@ 007   ----------------------------------------
 .byte   W92
 .byte   W03
 .byte   EOT
 .byte   W01
@ 008   ----------------------------------------
 .byte   W96
@ 009   ----------------------------------------
 .byte   W96
@ 010   ----------------------------------------
 .byte   W96
@ 011   ----------------------------------------
 .byte   W96
@ 012   ----------------------------------------
 .byte   W96
@ 013   ----------------------------------------
 .byte   W96
@ 014   ----------------------------------------
 .byte   W96
@ 015   ----------------------------------------
 .byte   W96
@ 016   ----------------------------------------
 .byte   W96
@ 017   ----------------------------------------
 .byte   W96
@ 018   ----------------------------------------
 .byte   W96
@ 019   ----------------------------------------
 .byte   W96
@ 020   ----------------------------------------
 .byte   W96
@ 021   ----------------------------------------
 .byte   W96
@ 022   ----------------------------------------
 .byte   W96
@ 023   ----------------------------------------
 .byte   W96
@ 024   ----------------------------------------
 .byte   W96
@ 025   ----------------------------------------
 .byte   W96
@ 026   ----------------------------------------
 .byte   W96
@ 027   ----------------------------------------
 .byte   W96
@ 028   ----------------------------------------
 .byte   W96
@ 029   ----------------------------------------
 .byte   W96
@ 030   ----------------------------------------
 .byte   W96
@ 031   ----------------------------------------
 .byte   W96
@ 032   ----------------------------------------
 .byte   W96
@ 033   ----------------------------------------
 .byte   W96
@ 034   ----------------------------------------
 .byte   W96
@ 035   ----------------------------------------
 .byte   W96
@ 036   ----------------------------------------
 .byte   W96
@ 037   ----------------------------------------
 .byte   W96
@ 038   ----------------------------------------
 .byte   W96
@ 039   ----------------------------------------
 .byte   W96
@ 040   ----------------------------------------
 .byte   W96
@ 041   ----------------------------------------
 .byte   W96
@ 042   ----------------------------------------
 .byte   W96
@ 043   ----------------------------------------
 .byte   W96
@ 044   ----------------------------------------
 .byte   W96
@ 045   ----------------------------------------
 .byte   W96
@ 046   ----------------------------------------
 .byte   W96
@ 047   ----------------------------------------
 .byte   W96
@ 048   ----------------------------------------
 .byte   W96
@ 049   ----------------------------------------
 .byte   W96
@ 050   ----------------------------------------
 .byte   W96
@ 051   ----------------------------------------
 .byte   W96
@ 052   ----------------------------------------
 .byte   W96
@ 053   ----------------------------------------
 .byte   W96
@ 054   ----------------------------------------
 .byte   W96
@ 055   ----------------------------------------
 .byte   W96
@ 056   ----------------------------------------
 .byte   W96
@ 057   ----------------------------------------
 .byte   W96
@ 058   ----------------------------------------
 .byte   W96
@ 059   ----------------------------------------
 .byte   W96
@ 060   ----------------------------------------
 .byte   W96
@ 061   ----------------------------------------
 .byte   W96
@ 062   ----------------------------------------
 .byte   W96
@ 063   ----------------------------------------
 .byte   W96
@ 064   ----------------------------------------
 .byte   W96
@ 065   ----------------------------------------
 .byte   W96
@ 066   ----------------------------------------
 .byte   W96
@ 067   ----------------------------------------
 .byte   W96
@ 068   ----------------------------------------
 .byte   GOTO
  .word Label_2_BBA5FA
 .byte   FINE

@**************** Track 4 (Midi-Chn.3) ****************@

song0B_004:
@ 000   ----------------------------------------
 .byte   KEYSH , song0B_key+0
Label_3_BBA652:
 .byte   VOICE , 52
 .byte   VOL , 42*song0B_mvl/mxv
 .byte   PAN , c_v+63
 .byte   W96
@ 001   ----------------------------------------
 .byte   W96
@ 002   ----------------------------------------
 .byte   W96
@ 003   ----------------------------------------
 .byte   W96
@ 004   ----------------------------------------
 .byte   W96
@ 005   ----------------------------------------
 .byte   W96
@ 006   ----------------------------------------
 .byte   N11 ,En3 ,v080
 .byte   N11 ,Gn3
 .byte   W12
 .byte   En3
 .byte   N11 ,Gn3
 .byte   W12
 .byte   PAN , c_v-64
 .byte   N11 ,En3
 .byte   N11 ,Gn3
 .byte   W12
 .byte   En3
 .byte   N11 ,Gn3
 .byte   W12
 .byte   PAN , c_v+63
 .byte   N11 ,En3 ,v096
 .byte   N11 ,Gn3
 .byte   W12
 .byte   En3
 .byte   N11 ,Gn3
 .byte   W12
 .byte   PAN , c_v-64
 .byte   N11 ,En3
 .byte   N11 ,Gn3
 .byte   W12
 .byte   En3
 .byte   N11 ,Gn3
 .byte   W12
@ 007   ----------------------------------------
 .byte   PAN , c_v+63
 .byte   N11 ,En3 ,v112
 .byte   N11 ,Gn3
 .byte   W12
 .byte   En3
 .byte   N11 ,Gn3
 .byte   W12
 .byte   PAN , c_v-64
 .byte   N11 ,En3
 .byte   N11 ,Gn3
 .byte   W12
 .byte   En3
 .byte   N11 ,Gn3
 .byte   W12
 .byte   PAN , c_v+63
 .byte   N11 ,En3 ,v127
 .byte   N11 ,Gn3
 .byte   W12
 .byte   En3
 .byte   N11 ,Gn3
 .byte   W12
 .byte   PAN , c_v-64
 .byte   N11 ,En3
 .byte   N11 ,Gn3
 .byte   W12
 .byte   En3
 .byte   N11 ,Gn3
 .byte   W12
@ 008   ----------------------------------------
 .byte   W96
@ 009   ----------------------------------------
 .byte   W96
@ 010   ----------------------------------------
 .byte   W96
@ 011   ----------------------------------------
 .byte   W96
@ 012   ----------------------------------------
 .byte   W96
@ 013   ----------------------------------------
 .byte   W96
@ 014   ----------------------------------------
 .byte   W96
@ 015   ----------------------------------------
 .byte   W96
@ 016   ----------------------------------------
 .byte   W96
@ 017   ----------------------------------------
 .byte   W96
@ 018   ----------------------------------------
 .byte   W96
@ 019   ----------------------------------------
 .byte   W96
@ 020   ----------------------------------------
 .byte   W96
@ 021   ----------------------------------------
 .byte   W96
@ 022   ----------------------------------------
 .byte   W96
@ 023   ----------------------------------------
 .byte   W96
@ 024   ----------------------------------------
 .byte   W96
@ 025   ----------------------------------------
 .byte   W96
@ 026   ----------------------------------------
 .byte   W96
@ 027   ----------------------------------------
 .byte   W96
@ 028   ----------------------------------------
 .byte   W96
@ 029   ----------------------------------------
 .byte   W96
@ 030   ----------------------------------------
 .byte   W96
@ 031   ----------------------------------------
 .byte   W96
@ 032   ----------------------------------------
 .byte   W96
@ 033   ----------------------------------------
 .byte   W96
@ 034   ----------------------------------------
 .byte   W96
@ 035   ----------------------------------------
 .byte   W96
@ 036   ----------------------------------------
 .byte   W96
@ 037   ----------------------------------------
 .byte   W96
@ 038   ----------------------------------------
 .byte   W96
@ 039   ----------------------------------------
 .byte   W96
@ 040   ----------------------------------------
 .byte   W96
@ 041   ----------------------------------------
 .byte   W96
@ 042   ----------------------------------------
 .byte   W96
@ 043   ----------------------------------------
 .byte   W96
@ 044   ----------------------------------------
 .byte   W96
@ 045   ----------------------------------------
 .byte   W96
@ 046   ----------------------------------------
 .byte   W96
@ 047   ----------------------------------------
 .byte   W96
@ 048   ----------------------------------------
 .byte   W96
@ 049   ----------------------------------------
 .byte   W96
@ 050   ----------------------------------------
 .byte   W96
@ 051   ----------------------------------------
 .byte   W96
@ 052   ----------------------------------------
 .byte   W96
@ 053   ----------------------------------------
 .byte   W96
@ 054   ----------------------------------------
 .byte   W96
@ 055   ----------------------------------------
 .byte   W96
@ 056   ----------------------------------------
 .byte   W96
@ 057   ----------------------------------------
 .byte   W96
@ 058   ----------------------------------------
 .byte   W96
@ 059   ----------------------------------------
 .byte   W96
@ 060   ----------------------------------------
 .byte   W96
@ 061   ----------------------------------------
 .byte   W96
@ 062   ----------------------------------------
 .byte   W96
@ 063   ----------------------------------------
 .byte   W96
@ 064   ----------------------------------------
 .byte   W96
@ 065   ----------------------------------------
 .byte   W96
@ 066   ----------------------------------------
 .byte   W96
@ 067   ----------------------------------------
 .byte   W96
@ 068   ----------------------------------------
 .byte   GOTO
  .word Label_3_BBA652
 .byte   FINE

@**************** Track 5 (Midi-Chn.4) ****************@

song0B_005:
@ 000   ----------------------------------------
 .byte   KEYSH , song0B_key+0
Label_4_BBA6FC:
 .byte   VOICE , 28
 .byte   VOL , 42*song0B_mvl/mxv
 .byte   PAN , c_v+0
 .byte   N11 ,En1 ,v096
 .byte   W24
 .byte   En2
 .byte   W12
 .byte   N11
 .byte   W12
 .byte   En1
 .byte   W24
 .byte   En2
 .byte   W12
 .byte   N11
 .byte   W12
@ 001   ----------------------------------------
Label_4_BBA710:
 .byte   N11 ,En1 ,v096
 .byte   W24
 .byte   En2
 .byte   W12
 .byte   N11
 .byte   W12
 .byte   En1
 .byte   W24
 .byte   En2
 .byte   W12
 .byte   N11
 .byte   W12
 .byte   PEND 
@ 002   ----------------------------------------
 .byte   PATT
  .word Label_4_BBA710
@ 003   ----------------------------------------
 .byte   PATT
  .word Label_4_BBA710
@ 004   ----------------------------------------
 .byte   PATT
  .word Label_4_BBA710
@ 005   ----------------------------------------
 .byte   PATT
  .word Label_4_BBA710
@ 006   ----------------------------------------
 .byte   PATT
  .word Label_4_BBA710
@ 007   ----------------------------------------
 .byte   PATT
  .word Label_4_BBA710
@ 008   ----------------------------------------
Label_4_BBA73D:
 .byte   N11 ,En1 ,v112
 .byte   W24
 .byte   En2
 .byte   W12
 .byte   N11
 .byte   W12
 .byte   En1
 .byte   W24
 .byte   En2
 .byte   W12
 .byte   N11
 .byte   W12
 .byte   PEND 
@ 009   ----------------------------------------
 .byte   PATT
  .word Label_4_BBA73D
@ 010   ----------------------------------------
Label_4_BBA751:
 .byte   N11 ,Dn1 ,v112
 .byte   W24
 .byte   Dn2
 .byte   W12
 .byte   N11
 .byte   W12
 .byte   Dn1
 .byte   W24
 .byte   Dn2
 .byte   W12
 .byte   N11
 .byte   W12
 .byte   PEND 
@ 011   ----------------------------------------
 .byte   PATT
  .word Label_4_BBA751
@ 012   ----------------------------------------
 .byte   PATT
  .word Label_4_BBA73D
@ 013   ----------------------------------------
 .byte   PATT
  .word Label_4_BBA73D
@ 014   ----------------------------------------
 .byte   PATT
  .word Label_4_BBA751
@ 015   ----------------------------------------
Label_4_BBA774:
 .byte   N11 ,Cn1 ,v112
 .byte   W24
 .byte   Cn2
 .byte   W12
 .byte   N11
 .byte   W12
 .byte   Cn1
 .byte   W24
 .byte   Cn2
 .byte   W12
 .byte   N11
 .byte   W12
 .byte   PEND 
@ 016   ----------------------------------------
Label_4_BBA783:
 .byte   N11 ,Bn0 ,v112
 .byte   W24
 .byte   Bn1
 .byte   W12
 .byte   N11
 .byte   W12
 .byte   Bn0
 .byte   W12
 .byte   Bn1
 .byte   W12
 .byte   Bn0
 .byte   W12
 .byte   Bn1
 .byte   W12
 .byte   PEND 
@ 017   ----------------------------------------
Label_4_BBA794:
 .byte   N11 ,Gn0 ,v112
 .byte   W24
 .byte   Gn1
 .byte   W12
 .byte   N11
 .byte   W12
 .byte   An0
 .byte   W24
 .byte   An1
 .byte   W12
 .byte   N11
 .byte   W12
 .byte   PEND 
@ 018   ----------------------------------------
 .byte   PATT
  .word Label_4_BBA783
@ 019   ----------------------------------------
 .byte   PATT
  .word Label_4_BBA794
@ 020   ----------------------------------------
 .byte   PATT
  .word Label_4_BBA73D
@ 021   ----------------------------------------
 .byte   PATT
  .word Label_4_BBA73D
@ 022   ----------------------------------------
 .byte   PATT
  .word Label_4_BBA751
@ 023   ----------------------------------------
 .byte   PATT
  .word Label_4_BBA751
@ 024   ----------------------------------------
 .byte   PATT
  .word Label_4_BBA73D
@ 025   ----------------------------------------
 .byte   PATT
  .word Label_4_BBA73D
@ 026   ----------------------------------------
 .byte   PATT
  .word Label_4_BBA751
@ 027   ----------------------------------------
 .byte   PATT
  .word Label_4_BBA774
@ 028   ----------------------------------------
 .byte   PATT
  .word Label_4_BBA783
@ 029   ----------------------------------------
 .byte   PATT
  .word Label_4_BBA794
@ 030   ----------------------------------------
 .byte   PATT
  .word Label_4_BBA783
@ 031   ----------------------------------------
 .byte   PATT
  .word Label_4_BBA794
@ 032   ----------------------------------------
 .byte   PATT
  .word Label_4_BBA774
@ 033   ----------------------------------------
 .byte   PATT
  .word Label_4_BBA774
@ 034   ----------------------------------------
 .byte   PATT
  .word Label_4_BBA73D
@ 035   ----------------------------------------
 .byte   PATT
  .word Label_4_BBA73D
@ 036   ----------------------------------------
 .byte   PATT
  .word Label_4_BBA774
@ 037   ----------------------------------------
 .byte   PATT
  .word Label_4_BBA774
@ 038   ----------------------------------------
 .byte   PATT
  .word Label_4_BBA73D
@ 039   ----------------------------------------
 .byte   PATT
  .word Label_4_BBA73D
@ 040   ----------------------------------------
 .byte   PATT
  .word Label_4_BBA774
@ 041   ----------------------------------------
 .byte   PATT
  .word Label_4_BBA774
@ 042   ----------------------------------------
 .byte   PATT
  .word Label_4_BBA73D
@ 043   ----------------------------------------
 .byte   PATT
  .word Label_4_BBA73D
@ 044   ----------------------------------------
 .byte   PATT
  .word Label_4_BBA751
@ 045   ----------------------------------------
 .byte   PATT
  .word Label_4_BBA751
@ 046   ----------------------------------------
Label_4_BBA82F:
 .byte   N11 ,Bn0 ,v112
 .byte   W24
 .byte   Bn1
 .byte   W12
 .byte   N11
 .byte   W12
 .byte   Bn0
 .byte   W24
 .byte   Bn1
 .byte   W12
 .byte   N11
 .byte   W12
 .byte   PEND 
@ 047   ----------------------------------------
 .byte   PATT
  .word Label_4_BBA751
@ 048   ----------------------------------------
 .byte   PATT
  .word Label_4_BBA774
@ 049   ----------------------------------------
 .byte   PATT
  .word Label_4_BBA774
@ 050   ----------------------------------------
 .byte   PATT
  .word Label_4_BBA73D
@ 051   ----------------------------------------
 .byte   PATT
  .word Label_4_BBA73D
@ 052   ----------------------------------------
 .byte   PATT
  .word Label_4_BBA774
@ 053   ----------------------------------------
 .byte   PATT
  .word Label_4_BBA774
@ 054   ----------------------------------------
 .byte   PATT
  .word Label_4_BBA73D
@ 055   ----------------------------------------
 .byte   PATT
  .word Label_4_BBA73D
@ 056   ----------------------------------------
 .byte   PATT
  .word Label_4_BBA774
@ 057   ----------------------------------------
 .byte   PATT
  .word Label_4_BBA774
@ 058   ----------------------------------------
 .byte   PATT
  .word Label_4_BBA73D
@ 059   ----------------------------------------
 .byte   PATT
  .word Label_4_BBA73D
@ 060   ----------------------------------------
 .byte   PATT
  .word Label_4_BBA751
@ 061   ----------------------------------------
 .byte   PATT
  .word Label_4_BBA751
@ 062   ----------------------------------------
 .byte   PATT
  .word Label_4_BBA82F
@ 063   ----------------------------------------
 .byte   PATT
  .word Label_4_BBA751
@ 064   ----------------------------------------
 .byte   PATT
  .word Label_4_BBA73D
@ 065   ----------------------------------------
 .byte   PATT
  .word Label_4_BBA73D
@ 066   ----------------------------------------
 .byte   PATT
  .word Label_4_BBA751
@ 067   ----------------------------------------
 .byte   PATT
  .word Label_4_BBA751
@ 068   ----------------------------------------
 .byte   GOTO
  .word Label_4_BBA6FC
 .byte   FINE

@**************** Track 6 (Midi-Chn.5) ****************@

song0B_006:
@ 000   ----------------------------------------
 .byte   KEYSH , song0B_key+0
Label_5_BBA8AF:
 .byte   VOICE , 68
 .byte   VOL , 45*song0B_mvl/mxv
 .byte   PAN , c_v+0
 .byte   W96
@ 001   ----------------------------------------
 .byte   W96
@ 002   ----------------------------------------
 .byte   W96
@ 003   ----------------------------------------
 .byte   W96
@ 004   ----------------------------------------
 .byte   W96
@ 005   ----------------------------------------
 .byte   W96
@ 006   ----------------------------------------
 .byte   W96
@ 007   ----------------------------------------
 .byte   W96
@ 008   ----------------------------------------
 .byte   N92 ,En3 ,v127
 .byte   W96
@ 009   ----------------------------------------
Label_5_BBA8C1:
 .byte   N68 ,Bn3 ,v127
 .byte   W72
 .byte   N11 ,An3
 .byte   W12
 .byte   Bn3
 .byte   W12
 .byte   PEND 
@ 010   ----------------------------------------
Label_5_BBA8CB:
 .byte   N68 ,An3 ,v127
 .byte   W72
 .byte   N23 ,Gn3
 .byte   W24
 .byte   PEND 
@ 011   ----------------------------------------
Label_5_BBA8D3:
 .byte   N32 ,Fs3 ,v127
 .byte   W36
 .byte   Gn3
 .byte   W36
 .byte   N23 ,An3
 .byte   W24
 .byte   PEND 
@ 012   ----------------------------------------
 .byte   N92 ,En3
 .byte   W96
@ 013   ----------------------------------------
 .byte   PATT
  .word Label_5_BBA8C1
@ 014   ----------------------------------------
 .byte   PATT
  .word Label_5_BBA8CB
@ 015   ----------------------------------------
Label_5_BBA8EA:
 .byte   N32 ,Cn3 ,v127
 .byte   W36
 .byte   En3
 .byte   W36
 .byte   N23 ,Gn3
 .byte   W24
 .byte   PEND 
@ 016   ----------------------------------------
 .byte   TIE ,Fs3
 .byte   W96
@ 017   ----------------------------------------
 .byte   W92
 .byte   W03
 .byte   EOT
 .byte   W01
@ 018   ----------------------------------------
 .byte   W96
@ 019   ----------------------------------------
 .byte   W96
@ 020   ----------------------------------------
 .byte   N92 ,En3
 .byte   W96
@ 021   ----------------------------------------
 .byte   PATT
  .word Label_5_BBA8C1
@ 022   ----------------------------------------
 .byte   PATT
  .word Label_5_BBA8CB
@ 023   ----------------------------------------
 .byte   PATT
  .word Label_5_BBA8D3
@ 024   ----------------------------------------
 .byte   N92 ,En3 ,v127
 .byte   W96
@ 025   ----------------------------------------
 .byte   PATT
  .word Label_5_BBA8C1
@ 026   ----------------------------------------
 .byte   PATT
  .word Label_5_BBA8CB
@ 027   ----------------------------------------
 .byte   PATT
  .word Label_5_BBA8EA
@ 028   ----------------------------------------
 .byte   TIE ,Fs3 ,v127
 .byte   W96
@ 029   ----------------------------------------
 .byte   W92
 .byte   W03
 .byte   EOT
 .byte   W01
@ 030   ----------------------------------------
 .byte   W96
@ 031   ----------------------------------------
 .byte   W96
@ 032   ----------------------------------------
 .byte   W96
@ 033   ----------------------------------------
 .byte   W96
@ 034   ----------------------------------------
 .byte   W96
@ 035   ----------------------------------------
 .byte   W96
@ 036   ----------------------------------------
 .byte   W96
@ 037   ----------------------------------------
 .byte   W96
@ 038   ----------------------------------------
 .byte   W96
@ 039   ----------------------------------------
 .byte   W96
@ 040   ----------------------------------------
 .byte   W96
@ 041   ----------------------------------------
 .byte   W96
@ 042   ----------------------------------------
 .byte   W96
@ 043   ----------------------------------------
 .byte   W96
@ 044   ----------------------------------------
 .byte   W96
@ 045   ----------------------------------------
 .byte   W96
@ 046   ----------------------------------------
 .byte   W96
@ 047   ----------------------------------------
 .byte   W96
@ 048   ----------------------------------------
 .byte   W96
@ 049   ----------------------------------------
 .byte   W96
@ 050   ----------------------------------------
 .byte   W96
@ 051   ----------------------------------------
 .byte   W96
@ 052   ----------------------------------------
 .byte   W96
@ 053   ----------------------------------------
 .byte   W96
@ 054   ----------------------------------------
 .byte   W96
@ 055   ----------------------------------------
 .byte   W96
@ 056   ----------------------------------------
 .byte   W96
@ 057   ----------------------------------------
 .byte   W96
@ 058   ----------------------------------------
 .byte   W96
@ 059   ----------------------------------------
 .byte   W96
@ 060   ----------------------------------------
 .byte   W96
@ 061   ----------------------------------------
 .byte   W96
@ 062   ----------------------------------------
 .byte   W96
@ 063   ----------------------------------------
 .byte   W96
@ 064   ----------------------------------------
 .byte   N92 ,En3
 .byte   W96
@ 065   ----------------------------------------
 .byte   PATT
  .word Label_5_BBA8C1
@ 066   ----------------------------------------
 .byte   TIE ,An3 ,v127
 .byte   W96
@ 067   ----------------------------------------
 .byte   W96
@ 068   ----------------------------------------
 .byte   EOT
 .byte   GOTO
  .word Label_5_BBA8AF
 .byte   FINE

@**************** Track 7 (Midi-Chn.6) ****************@

song0B_007:
@ 000   ----------------------------------------
 .byte   KEYSH , song0B_key+0
Label_6_BBA962:
 .byte   VOICE , 49
 .byte   VOL , 35*song0B_mvl/mxv
 .byte   PAN , c_v+3
 .byte   W96
@ 001   ----------------------------------------
 .byte   W96
@ 002   ----------------------------------------
 .byte   W96
@ 003   ----------------------------------------
 .byte   W96
@ 004   ----------------------------------------
 .byte   W96
@ 005   ----------------------------------------
 .byte   W96
@ 006   ----------------------------------------
 .byte   W96
@ 007   ----------------------------------------
 .byte   W96
@ 008   ----------------------------------------
 .byte   W96
@ 009   ----------------------------------------
 .byte   W96
@ 010   ----------------------------------------
 .byte   W96
@ 011   ----------------------------------------
 .byte   W96
@ 012   ----------------------------------------
 .byte   W96
@ 013   ----------------------------------------
 .byte   W96
@ 014   ----------------------------------------
 .byte   W96
@ 015   ----------------------------------------
 .byte   W96
@ 016   ----------------------------------------
 .byte   W96
@ 017   ----------------------------------------
 .byte   W96
@ 018   ----------------------------------------
 .byte   W96
@ 019   ----------------------------------------
 .byte   W96
@ 020   ----------------------------------------
 .byte   W96
@ 021   ----------------------------------------
 .byte   W96
@ 022   ----------------------------------------
 .byte   W96
@ 023   ----------------------------------------
 .byte   W96
@ 024   ----------------------------------------
 .byte   W96
@ 025   ----------------------------------------
 .byte   W96
@ 026   ----------------------------------------
 .byte   W96
@ 027   ----------------------------------------
 .byte   W96
@ 028   ----------------------------------------
 .byte   W96
@ 029   ----------------------------------------
 .byte   W96
@ 030   ----------------------------------------
 .byte   W96
@ 031   ----------------------------------------
 .byte   W96
@ 032   ----------------------------------------
 .byte   N92 ,Cn4 ,v127
 .byte   W96
@ 033   ----------------------------------------
Label_6_BBA98C:
 .byte   N23 ,Gn3 ,v127
 .byte   W24
 .byte   N44
 .byte   W48
 .byte   N23 ,An3
 .byte   W24
 .byte   PEND 
@ 034   ----------------------------------------
 .byte   TIE ,Bn3
 .byte   W96
@ 035   ----------------------------------------
 .byte   W92
 .byte   W03
 .byte   EOT
 .byte   W01
@ 036   ----------------------------------------
 .byte   N92 ,Cn4
 .byte   W96
@ 037   ----------------------------------------
 .byte   PATT
  .word Label_6_BBA98C
@ 038   ----------------------------------------
 .byte   TIE ,Bn3 ,v127
 .byte   W96
@ 039   ----------------------------------------
 .byte   W92
 .byte   W03
 .byte   EOT
 .byte   W01
@ 040   ----------------------------------------
 .byte   N92 ,Cn4
 .byte   W96
@ 041   ----------------------------------------
 .byte   PATT
  .word Label_6_BBA98C
@ 042   ----------------------------------------
 .byte   TIE ,Bn3 ,v127
 .byte   W96
@ 043   ----------------------------------------
 .byte   W92
 .byte   W03
 .byte   EOT
 .byte   W01
@ 044   ----------------------------------------
 .byte   TIE ,Dn4
 .byte   W96
@ 045   ----------------------------------------
 .byte   W92
 .byte   W03
 .byte   EOT
 .byte   W01
@ 046   ----------------------------------------
 .byte   N92 ,Bn3
 .byte   W96
@ 047   ----------------------------------------
 .byte   Dn4
 .byte   W96
@ 048   ----------------------------------------
 .byte   Cn4
 .byte   W96
@ 049   ----------------------------------------
 .byte   PATT
  .word Label_6_BBA98C
@ 050   ----------------------------------------
 .byte   TIE ,Bn3 ,v127
 .byte   W96
@ 051   ----------------------------------------
 .byte   W92
 .byte   W03
 .byte   EOT
 .byte   W01
@ 052   ----------------------------------------
 .byte   N92 ,Cn4
 .byte   W96
@ 053   ----------------------------------------
 .byte   PATT
  .word Label_6_BBA98C
@ 054   ----------------------------------------
 .byte   TIE ,Bn3 ,v127
 .byte   W96
@ 055   ----------------------------------------
 .byte   W92
 .byte   W03
 .byte   EOT
 .byte   W01
@ 056   ----------------------------------------
 .byte   N92 ,Cn4
 .byte   W96
@ 057   ----------------------------------------
 .byte   PATT
  .word Label_6_BBA98C
@ 058   ----------------------------------------
 .byte   TIE ,Bn3 ,v127
 .byte   W96
@ 059   ----------------------------------------
 .byte   W92
 .byte   W03
 .byte   EOT
 .byte   W01
@ 060   ----------------------------------------
 .byte   TIE ,Dn4
 .byte   W96
@ 061   ----------------------------------------
 .byte   W92
 .byte   W03
 .byte   EOT
 .byte   W01
@ 062   ----------------------------------------
 .byte   N92 ,Bn3
 .byte   W96
@ 063   ----------------------------------------
 .byte   Dn4
 .byte   W96
@ 064   ----------------------------------------
 .byte   En3
 .byte   W96
@ 065   ----------------------------------------
 .byte   N68 ,Bn3
 .byte   W72
 .byte   N11 ,An3
 .byte   W12
 .byte   Bn3
 .byte   W12
@ 066   ----------------------------------------
 .byte   TIE ,An3
 .byte   W96
@ 067   ----------------------------------------
 .byte   W96
@ 068   ----------------------------------------
 .byte   EOT
 .byte   GOTO
  .word Label_6_BBA962
 .byte   FINE

@**************** Track 8 (Midi-Chn.7) ****************@

song0B_008:
@ 000   ----------------------------------------
 .byte   KEYSH , song0B_key+0
Label_7_BBAA1B:
 .byte   VOICE , 109
 .byte   PAN , c_v-5
 .byte   VOL , 38*song0B_mvl/mxv
 .byte   W96
@ 001   ----------------------------------------
 .byte   W96
@ 002   ----------------------------------------
 .byte   W96
@ 003   ----------------------------------------
 .byte   W96
@ 004   ----------------------------------------
 .byte   W96
@ 005   ----------------------------------------
 .byte   W96
@ 006   ----------------------------------------
 .byte   W96
@ 007   ----------------------------------------
 .byte   W96
@ 008   ----------------------------------------
 .byte   W96
@ 009   ----------------------------------------
 .byte   W96
@ 010   ----------------------------------------
 .byte   W96
@ 011   ----------------------------------------
 .byte   W96
@ 012   ----------------------------------------
 .byte   W96
@ 013   ----------------------------------------
 .byte   W96
@ 014   ----------------------------------------
 .byte   W96
@ 015   ----------------------------------------
 .byte   W96
@ 016   ----------------------------------------
 .byte   W96
@ 017   ----------------------------------------
 .byte   W96
@ 018   ----------------------------------------
 .byte   W96
@ 019   ----------------------------------------
 .byte   W96
@ 020   ----------------------------------------
 .byte   W96
@ 021   ----------------------------------------
 .byte   W96
@ 022   ----------------------------------------
 .byte   W96
@ 023   ----------------------------------------
 .byte   W96
@ 024   ----------------------------------------
 .byte   W96
@ 025   ----------------------------------------
 .byte   W96
@ 026   ----------------------------------------
 .byte   W96
@ 027   ----------------------------------------
 .byte   W96
@ 028   ----------------------------------------
 .byte   W96
@ 029   ----------------------------------------
 .byte   W96
@ 030   ----------------------------------------
 .byte   W96
@ 031   ----------------------------------------
 .byte   W96
@ 032   ----------------------------------------
 .byte   N92 ,Cn4 ,v127
 .byte   W96
@ 033   ----------------------------------------
Label_7_BBAA45:
 .byte   N23 ,Gn3 ,v127
 .byte   W24
 .byte   N44
 .byte   W48
 .byte   N23 ,An3
 .byte   W24
 .byte   PEND 
@ 034   ----------------------------------------
 .byte   TIE ,Bn3
 .byte   W96
@ 035   ----------------------------------------
 .byte   W92
 .byte   W03
 .byte   EOT
 .byte   W01
@ 036   ----------------------------------------
 .byte   N92 ,Cn4
 .byte   W96
@ 037   ----------------------------------------
 .byte   PATT
  .word Label_7_BBAA45
@ 038   ----------------------------------------
 .byte   TIE ,Bn3 ,v127
 .byte   W96
@ 039   ----------------------------------------
 .byte   W92
 .byte   W03
 .byte   EOT
 .byte   W01
@ 040   ----------------------------------------
 .byte   N92 ,Cn4
 .byte   W96
@ 041   ----------------------------------------
 .byte   PATT
  .word Label_7_BBAA45
@ 042   ----------------------------------------
 .byte   TIE ,Bn3 ,v127
 .byte   W96
@ 043   ----------------------------------------
 .byte   W92
 .byte   W03
 .byte   EOT
 .byte   W01
@ 044   ----------------------------------------
 .byte   TIE ,Dn4
 .byte   W96
@ 045   ----------------------------------------
 .byte   W92
 .byte   W03
 .byte   EOT
 .byte   W01
@ 046   ----------------------------------------
 .byte   N92 ,Bn3
 .byte   W96
@ 047   ----------------------------------------
 .byte   Dn4
 .byte   W96
@ 048   ----------------------------------------
 .byte   Cn4
 .byte   W96
@ 049   ----------------------------------------
 .byte   PATT
  .word Label_7_BBAA45
@ 050   ----------------------------------------
 .byte   TIE ,Bn3 ,v127
 .byte   W96
@ 051   ----------------------------------------
 .byte   W92
 .byte   W03
 .byte   EOT
 .byte   W01
@ 052   ----------------------------------------
 .byte   N92 ,Cn4
 .byte   W96
@ 053   ----------------------------------------
 .byte   PATT
  .word Label_7_BBAA45
@ 054   ----------------------------------------
 .byte   TIE ,Bn3 ,v127
 .byte   W96
@ 055   ----------------------------------------
 .byte   W92
 .byte   W03
 .byte   EOT
 .byte   W01
@ 056   ----------------------------------------
 .byte   N92 ,Cn4
 .byte   W96
@ 057   ----------------------------------------
 .byte   PATT
  .word Label_7_BBAA45
@ 058   ----------------------------------------
 .byte   TIE ,Bn3 ,v127
 .byte   W96
@ 059   ----------------------------------------
 .byte   W92
 .byte   W03
 .byte   EOT
 .byte   W01
@ 060   ----------------------------------------
 .byte   TIE ,Dn4
 .byte   W96
@ 061   ----------------------------------------
 .byte   W92
 .byte   W03
 .byte   EOT
 .byte   W01
@ 062   ----------------------------------------
 .byte   N92 ,Bn3
 .byte   W96
@ 063   ----------------------------------------
 .byte   Dn4
 .byte   W96
@ 064   ----------------------------------------
 .byte   W96
@ 065   ----------------------------------------
 .byte   W96
@ 066   ----------------------------------------
 .byte   W96
@ 067   ----------------------------------------
 .byte   W96
@ 068   ----------------------------------------
 .byte   GOTO
  .word Label_7_BBAA1B
 .byte   FINE

@**************** Track 9 (Midi-Chn.8) ****************@

song0B_009:
@ 000   ----------------------------------------
 .byte   KEYSH , song0B_key+0
Label_8_BBAAC9:
 .byte   VOICE , 52
 .byte   PAN , c_v-1
 .byte   VOL , 51*song0B_mvl/mxv
 .byte   W96
@ 001   ----------------------------------------
 .byte   W96
@ 002   ----------------------------------------
 .byte   W96
@ 003   ----------------------------------------
 .byte   W96
@ 004   ----------------------------------------
 .byte   W96
@ 005   ----------------------------------------
 .byte   W96
@ 006   ----------------------------------------
 .byte   W96
@ 007   ----------------------------------------
 .byte   W96
@ 008   ----------------------------------------
 .byte   TIE ,Gn3 ,v096
 .byte   W96
@ 009   ----------------------------------------
 .byte   W92
 .byte   W03
 .byte   EOT
 .byte   W01
@ 010   ----------------------------------------
 .byte   TIE ,Fs3
 .byte   W96
@ 011   ----------------------------------------
 .byte   W92
 .byte   W03
 .byte   EOT
 .byte   W01
@ 012   ----------------------------------------
 .byte   TIE ,Gn3
 .byte   W96
@ 013   ----------------------------------------
 .byte   W92
 .byte   W03
 .byte   EOT
 .byte   W01
@ 014   ----------------------------------------
 .byte   N92 ,Fs3
 .byte   W96
@ 015   ----------------------------------------
 .byte   Gn3
 .byte   W96
@ 016   ----------------------------------------
 .byte   TIE ,Fs3
 .byte   W96
@ 017   ----------------------------------------
 .byte   W92
 .byte   W03
 .byte   EOT
 .byte   W01
@ 018   ----------------------------------------
Label_8_BBAAF9:
 .byte   N44 ,Fs3 ,v096
 .byte   W48
 .byte   N44
 .byte   W48
 .byte   PEND 
@ 019   ----------------------------------------
 .byte   PATT
  .word Label_8_BBAAF9
@ 020   ----------------------------------------
 .byte   TIE ,Gn3 ,v096
 .byte   W96
@ 021   ----------------------------------------
 .byte   W92
 .byte   W03
 .byte   EOT
 .byte   W01
@ 022   ----------------------------------------
 .byte   TIE ,Fs3
 .byte   W96
@ 023   ----------------------------------------
 .byte   W92
 .byte   W03
 .byte   EOT
 .byte   W01
@ 024   ----------------------------------------
 .byte   TIE ,Gn3
 .byte   W96
@ 025   ----------------------------------------
 .byte   W92
 .byte   W03
 .byte   EOT
 .byte   W01
@ 026   ----------------------------------------
 .byte   N92 ,Fs3
 .byte   W96
@ 027   ----------------------------------------
 .byte   Gn3
 .byte   W96
@ 028   ----------------------------------------
 .byte   TIE ,Fs3
 .byte   W96
@ 029   ----------------------------------------
 .byte   W92
 .byte   W03
 .byte   EOT
 .byte   W01
@ 030   ----------------------------------------
 .byte   PATT
  .word Label_8_BBAAF9
@ 031   ----------------------------------------
 .byte   PATT
  .word Label_8_BBAAF9
@ 032   ----------------------------------------
 .byte   TIE ,En3 ,v096
 .byte   W96
@ 033   ----------------------------------------
 .byte   W92
 .byte   W03
 .byte   EOT
 .byte   W01
@ 034   ----------------------------------------
 .byte   TIE
 .byte   W96
@ 035   ----------------------------------------
 .byte   W92
 .byte   W03
 .byte   EOT
 .byte   W01
@ 036   ----------------------------------------
 .byte   TIE
 .byte   W96
@ 037   ----------------------------------------
 .byte   W92
 .byte   W03
 .byte   EOT
 .byte   W01
@ 038   ----------------------------------------
 .byte   TIE
 .byte   W96
@ 039   ----------------------------------------
 .byte   W92
 .byte   W03
 .byte   EOT
 .byte   W01
@ 040   ----------------------------------------
 .byte   TIE
 .byte   W96
@ 041   ----------------------------------------
 .byte   W92
 .byte   W03
 .byte   EOT
 .byte   W01
@ 042   ----------------------------------------
 .byte   TIE
 .byte   W96
@ 043   ----------------------------------------
 .byte   W92
 .byte   W03
 .byte   EOT
 .byte   W01
@ 044   ----------------------------------------
 .byte   TIE ,Gn3
 .byte   W96
@ 045   ----------------------------------------
 .byte   W92
 .byte   W03
 .byte   EOT
 .byte   W01
@ 046   ----------------------------------------
 .byte   N92 ,En3
 .byte   W96
@ 047   ----------------------------------------
 .byte   Gn3
 .byte   W96
@ 048   ----------------------------------------
 .byte   TIE ,En3
 .byte   W96
@ 049   ----------------------------------------
 .byte   W92
 .byte   W03
 .byte   EOT
 .byte   W01
@ 050   ----------------------------------------
 .byte   TIE
 .byte   W96
@ 051   ----------------------------------------
 .byte   W92
 .byte   W03
 .byte   EOT
 .byte   W01
@ 052   ----------------------------------------
 .byte   TIE
 .byte   W96
@ 053   ----------------------------------------
 .byte   W92
 .byte   W03
 .byte   EOT
 .byte   W01
@ 054   ----------------------------------------
 .byte   TIE
 .byte   W96
@ 055   ----------------------------------------
 .byte   W92
 .byte   W03
 .byte   EOT
 .byte   W01
@ 056   ----------------------------------------
 .byte   TIE
 .byte   W96
@ 057   ----------------------------------------
 .byte   W92
 .byte   W03
 .byte   EOT
 .byte   W01
@ 058   ----------------------------------------
 .byte   TIE
 .byte   W96
@ 059   ----------------------------------------
 .byte   W92
 .byte   W03
 .byte   EOT
 .byte   W01
@ 060   ----------------------------------------
 .byte   TIE ,Gn3
 .byte   W96
@ 061   ----------------------------------------
 .byte   W92
 .byte   W03
 .byte   EOT
 .byte   W01
@ 062   ----------------------------------------
 .byte   N92 ,En3
 .byte   W96
@ 063   ----------------------------------------
 .byte   Gn3
 .byte   W96
@ 064   ----------------------------------------
 .byte   W96
@ 065   ----------------------------------------
 .byte   W96
@ 066   ----------------------------------------
 .byte   W96
@ 067   ----------------------------------------
 .byte   W96
@ 068   ----------------------------------------
 .byte   GOTO
  .word Label_8_BBAAC9
 .byte   FINE

@**************** Track 10 (Midi-Chn.9) ****************@

song0B_010:
@ 000   ----------------------------------------
 .byte   KEYSH , song0B_key+0
Label_9_BBABA0:
 .byte   VOICE , 85
 .byte   PAN , c_v-1
 .byte   VOL , 48*song0B_mvl/mxv
 .byte   W96
@ 001   ----------------------------------------
 .byte   W96
@ 002   ----------------------------------------
 .byte   W96
@ 003   ----------------------------------------
 .byte   W96
@ 004   ----------------------------------------
 .byte   W96
@ 005   ----------------------------------------
 .byte   W96
@ 006   ----------------------------------------
 .byte   W96
@ 007   ----------------------------------------
 .byte   W96
@ 008   ----------------------------------------
 .byte   TIE ,En3 ,v096
 .byte   W96
@ 009   ----------------------------------------
 .byte   W92
 .byte   W03
 .byte   EOT
 .byte   W01
@ 010   ----------------------------------------
 .byte   TIE ,Dn3
 .byte   W96
@ 011   ----------------------------------------
 .byte   W92
 .byte   W03
 .byte   EOT
 .byte   W01
@ 012   ----------------------------------------
 .byte   TIE ,En3
 .byte   W96
@ 013   ----------------------------------------
 .byte   W92
 .byte   W03
 .byte   EOT
 .byte   W01
@ 014   ----------------------------------------
 .byte   N92 ,Dn3
 .byte   W96
@ 015   ----------------------------------------
 .byte   En3
 .byte   W96
@ 016   ----------------------------------------
 .byte   TIE ,Ds3
 .byte   W96
@ 017   ----------------------------------------
 .byte   W92
 .byte   W03
 .byte   EOT
 .byte   W01
@ 018   ----------------------------------------
Label_9_BBABD0:
 .byte   N44 ,Ds3 ,v096
 .byte   W48
 .byte   N44
 .byte   W48
 .byte   PEND 
@ 019   ----------------------------------------
 .byte   PATT
  .word Label_9_BBABD0
@ 020   ----------------------------------------
 .byte   TIE ,En3 ,v096
 .byte   W96
@ 021   ----------------------------------------
 .byte   W92
 .byte   W03
 .byte   EOT
 .byte   W01
@ 022   ----------------------------------------
 .byte   TIE ,Dn3
 .byte   W96
@ 023   ----------------------------------------
 .byte   W92
 .byte   W03
 .byte   EOT
 .byte   W01
@ 024   ----------------------------------------
 .byte   TIE ,En3
 .byte   W96
@ 025   ----------------------------------------
 .byte   W92
 .byte   W03
 .byte   EOT
 .byte   W01
@ 026   ----------------------------------------
 .byte   N92 ,Dn3
 .byte   W96
@ 027   ----------------------------------------
 .byte   En3
 .byte   W96
@ 028   ----------------------------------------
 .byte   TIE ,Ds3
 .byte   W96
@ 029   ----------------------------------------
 .byte   W92
 .byte   W03
 .byte   EOT
 .byte   W01
@ 030   ----------------------------------------
 .byte   PATT
  .word Label_9_BBABD0
@ 031   ----------------------------------------
 .byte   PATT
  .word Label_9_BBABD0
@ 032   ----------------------------------------
 .byte   TIE ,Cn3 ,v096
 .byte   W96
@ 033   ----------------------------------------
 .byte   W92
 .byte   W03
 .byte   EOT
 .byte   W01
@ 034   ----------------------------------------
 .byte   TIE ,Bn2
 .byte   W96
@ 035   ----------------------------------------
 .byte   W92
 .byte   W03
 .byte   EOT
 .byte   W01
@ 036   ----------------------------------------
 .byte   TIE ,Cn3
 .byte   W96
@ 037   ----------------------------------------
 .byte   W92
 .byte   W03
 .byte   EOT
 .byte   W01
@ 038   ----------------------------------------
 .byte   TIE ,Bn2
 .byte   W96
@ 039   ----------------------------------------
 .byte   W92
 .byte   W03
 .byte   EOT
 .byte   W01
@ 040   ----------------------------------------
 .byte   TIE ,Cn3
 .byte   W96
@ 041   ----------------------------------------
 .byte   W92
 .byte   W03
 .byte   EOT
 .byte   W01
@ 042   ----------------------------------------
 .byte   TIE ,Bn2
 .byte   W96
@ 043   ----------------------------------------
 .byte   W92
 .byte   W03
 .byte   EOT
 .byte   W01
@ 044   ----------------------------------------
 .byte   TIE ,Dn3
 .byte   W96
@ 045   ----------------------------------------
 .byte   W92
 .byte   W03
 .byte   EOT
 .byte   W01
@ 046   ----------------------------------------
 .byte   N92 ,Bn2
 .byte   W96
@ 047   ----------------------------------------
 .byte   Dn3
 .byte   W96
@ 048   ----------------------------------------
 .byte   TIE ,Cn3
 .byte   W96
@ 049   ----------------------------------------
 .byte   W92
 .byte   W03
 .byte   EOT
 .byte   W01
@ 050   ----------------------------------------
 .byte   TIE ,Bn2
 .byte   W96
@ 051   ----------------------------------------
 .byte   W92
 .byte   W03
 .byte   EOT
 .byte   W01
@ 052   ----------------------------------------
 .byte   TIE ,Cn3
 .byte   W96
@ 053   ----------------------------------------
 .byte   W92
 .byte   W03
 .byte   EOT
 .byte   W01
@ 054   ----------------------------------------
 .byte   TIE ,Bn2
 .byte   W96
@ 055   ----------------------------------------
 .byte   W92
 .byte   W03
 .byte   EOT
 .byte   W01
@ 056   ----------------------------------------
 .byte   TIE ,Cn3
 .byte   W96
@ 057   ----------------------------------------
 .byte   W92
 .byte   W03
 .byte   EOT
 .byte   W01
@ 058   ----------------------------------------
 .byte   TIE ,Bn2
 .byte   W96
@ 059   ----------------------------------------
 .byte   W92
 .byte   W03
 .byte   EOT
 .byte   W01
@ 060   ----------------------------------------
 .byte   TIE ,Dn3
 .byte   W96
@ 061   ----------------------------------------
 .byte   W92
 .byte   W03
 .byte   EOT
 .byte   W01
@ 062   ----------------------------------------
 .byte   N92 ,Bn2
 .byte   W96
@ 063   ----------------------------------------
 .byte   Dn3
 .byte   W96
@ 064   ----------------------------------------
 .byte   En3 ,v127
 .byte   W96
@ 065   ----------------------------------------
 .byte   N68 ,Bn3
 .byte   W72
 .byte   N11 ,An3
 .byte   W12
 .byte   Bn3
 .byte   W12
@ 066   ----------------------------------------
 .byte   TIE ,An3
 .byte   W96
@ 067   ----------------------------------------
 .byte   W96
@ 068   ----------------------------------------
 .byte   EOT
 .byte   GOTO
  .word Label_9_BBABA0
 .byte   FINE

@**************** Track 11 (Midi-Chn.10) ****************@

song0B_011:
@ 000   ----------------------------------------
 .byte   KEYSH , song0B_key+0
Label_10_BBAC8D:
 .byte   VOICE , 73
 .byte   VOL , 45*song0B_mvl/mxv
 .byte   PAN , c_v-64
 .byte   W96
@ 001   ----------------------------------------
 .byte   W96
@ 002   ----------------------------------------
 .byte   W96
@ 003   ----------------------------------------
 .byte   W96
@ 004   ----------------------------------------
 .byte   W96
@ 005   ----------------------------------------
 .byte   W96
@ 006   ----------------------------------------
 .byte   W96
@ 007   ----------------------------------------
 .byte   W96
@ 008   ----------------------------------------
 .byte   TIE ,En1 ,v096
 .byte   W96
@ 009   ----------------------------------------
 .byte   W92
 .byte   W03
 .byte   EOT
 .byte   W01
@ 010   ----------------------------------------
 .byte   TIE ,Dn1
 .byte   W96
@ 011   ----------------------------------------
 .byte   W92
 .byte   W03
 .byte   EOT
 .byte   W01
@ 012   ----------------------------------------
 .byte   TIE ,En1
 .byte   W96
@ 013   ----------------------------------------
 .byte   W92
 .byte   W03
 .byte   EOT
 .byte   W01
@ 014   ----------------------------------------
 .byte   N92 ,Dn1
 .byte   W96
@ 015   ----------------------------------------
 .byte   Cn2
 .byte   W96
@ 016   ----------------------------------------
 .byte   TIE ,Bn1
 .byte   W96
@ 017   ----------------------------------------
 .byte   W92
 .byte   W03
 .byte   EOT
 .byte   W01
@ 018   ----------------------------------------
Label_10_BBACBD:
 .byte   N11 ,Bn1 ,v096
 .byte   W24
 .byte   N11
 .byte   W12
 .byte   N11
 .byte   W12
 .byte   N11
 .byte   W24
 .byte   N11
 .byte   W12
 .byte   N11
 .byte   W12
 .byte   PEND 
@ 019   ----------------------------------------
 .byte   PATT
  .word Label_10_BBACBD
@ 020   ----------------------------------------
 .byte   TIE ,En1 ,v096
 .byte   W96
@ 021   ----------------------------------------
 .byte   W92
 .byte   W03
 .byte   EOT
 .byte   W01
@ 022   ----------------------------------------
 .byte   TIE ,Dn1
 .byte   W96
@ 023   ----------------------------------------
 .byte   W92
 .byte   W03
 .byte   EOT
 .byte   W01
@ 024   ----------------------------------------
 .byte   TIE ,En1
 .byte   W96
@ 025   ----------------------------------------
 .byte   W92
 .byte   W03
 .byte   EOT
 .byte   W01
@ 026   ----------------------------------------
 .byte   N92 ,Dn1
 .byte   W96
@ 027   ----------------------------------------
 .byte   Cn2
 .byte   W96
@ 028   ----------------------------------------
 .byte   TIE ,Bn1
 .byte   W96
@ 029   ----------------------------------------
 .byte   W92
 .byte   W03
 .byte   EOT
 .byte   W01
@ 030   ----------------------------------------
 .byte   PATT
  .word Label_10_BBACBD
@ 031   ----------------------------------------
 .byte   PATT
  .word Label_10_BBACBD
@ 032   ----------------------------------------
 .byte   W96
@ 033   ----------------------------------------
 .byte   W96
@ 034   ----------------------------------------
 .byte   W96
@ 035   ----------------------------------------
 .byte   W96
@ 036   ----------------------------------------
 .byte   W96
@ 037   ----------------------------------------
 .byte   W96
@ 038   ----------------------------------------
 .byte   W96
@ 039   ----------------------------------------
 .byte   W96
@ 040   ----------------------------------------
 .byte   W96
@ 041   ----------------------------------------
 .byte   W96
@ 042   ----------------------------------------
 .byte   W96
@ 043   ----------------------------------------
 .byte   W96
@ 044   ----------------------------------------
 .byte   W96
@ 045   ----------------------------------------
 .byte   W96
@ 046   ----------------------------------------
 .byte   W96
@ 047   ----------------------------------------
 .byte   W96
@ 048   ----------------------------------------
 .byte   W96
@ 049   ----------------------------------------
 .byte   W96
@ 050   ----------------------------------------
 .byte   W96
@ 051   ----------------------------------------
 .byte   W96
@ 052   ----------------------------------------
 .byte   W96
@ 053   ----------------------------------------
 .byte   W96
@ 054   ----------------------------------------
 .byte   W96
@ 055   ----------------------------------------
 .byte   W96
@ 056   ----------------------------------------
 .byte   W96
@ 057   ----------------------------------------
 .byte   W96
@ 058   ----------------------------------------
 .byte   W96
@ 059   ----------------------------------------
 .byte   W96
@ 060   ----------------------------------------
 .byte   W96
@ 061   ----------------------------------------
 .byte   W96
@ 062   ----------------------------------------
 .byte   W96
@ 063   ----------------------------------------
 .byte   W96
@ 064   ----------------------------------------
 .byte   W96
@ 065   ----------------------------------------
 .byte   W96
@ 066   ----------------------------------------
 .byte   W96
@ 067   ----------------------------------------
 .byte   W96
@ 068   ----------------------------------------
 .byte   GOTO
  .word Label_10_BBAC8D
 .byte   FINE

@**************** Track 12 (Midi-Chn.11) ****************@

song0B_012:
@ 000   ----------------------------------------
 .byte   KEYSH , song0B_key+0
Label_11_BBAD29:
 .byte   VOICE , 85
 .byte   VOL , 51*song0B_mvl/mxv
 .byte   PAN , c_v+0
 .byte   W96
@ 001   ----------------------------------------
 .byte   W96
@ 002   ----------------------------------------
 .byte   W96
@ 003   ----------------------------------------
 .byte   W96
@ 004   ----------------------------------------
 .byte   W96
@ 005   ----------------------------------------
 .byte   W96
@ 006   ----------------------------------------
 .byte   W96
@ 007   ----------------------------------------
 .byte   W96
@ 008   ----------------------------------------
 .byte   W96
@ 009   ----------------------------------------
 .byte   W96
@ 010   ----------------------------------------
 .byte   W96
@ 011   ----------------------------------------
 .byte   W96
@ 012   ----------------------------------------
 .byte   W96
@ 013   ----------------------------------------
 .byte   W96
@ 014   ----------------------------------------
 .byte   W96
@ 015   ----------------------------------------
 .byte   W96
@ 016   ----------------------------------------
 .byte   W96
@ 017   ----------------------------------------
 .byte   W96
@ 018   ----------------------------------------
Label_11_BBAD41:
 .byte   W24
 .byte   N11 ,Dn3 ,v127
 .byte   W12
 .byte   En3
 .byte   W12
 .byte   Fs3
 .byte   W12
 .byte   Gn3
 .byte   W24
 .byte   N11
 .byte   W12
 .byte   PEND 
@ 019   ----------------------------------------
Label_11_BBAD4F:
 .byte   W12
 .byte   N11 ,Gn3 ,v127
 .byte   W24
 .byte   Fs3
 .byte   W12
 .byte   N23 ,Gn3
 .byte   W24
 .byte   N11 ,An3
 .byte   W24
 .byte   PEND 
@ 020   ----------------------------------------
 .byte   W96
@ 021   ----------------------------------------
 .byte   W96
@ 022   ----------------------------------------
 .byte   W96
@ 023   ----------------------------------------
 .byte   W96
@ 024   ----------------------------------------
 .byte   W96
@ 025   ----------------------------------------
 .byte   W96
@ 026   ----------------------------------------
 .byte   W96
@ 027   ----------------------------------------
 .byte   W96
@ 028   ----------------------------------------
 .byte   W96
@ 029   ----------------------------------------
 .byte   W96
@ 030   ----------------------------------------
 .byte   PATT
  .word Label_11_BBAD41
@ 031   ----------------------------------------
 .byte   PATT
  .word Label_11_BBAD4F
@ 032   ----------------------------------------
 .byte   W96
@ 033   ----------------------------------------
 .byte   W96
@ 034   ----------------------------------------
 .byte   W96
@ 035   ----------------------------------------
 .byte   W96
@ 036   ----------------------------------------
 .byte   W96
@ 037   ----------------------------------------
 .byte   W96
@ 038   ----------------------------------------
 .byte   W96
@ 039   ----------------------------------------
 .byte   W96
@ 040   ----------------------------------------
 .byte   W96
@ 041   ----------------------------------------
 .byte   W96
@ 042   ----------------------------------------
 .byte   W96
@ 043   ----------------------------------------
 .byte   W96
@ 044   ----------------------------------------
 .byte   W96
@ 045   ----------------------------------------
 .byte   W96
@ 046   ----------------------------------------
 .byte   W96
@ 047   ----------------------------------------
 .byte   W96
@ 048   ----------------------------------------
 .byte   W96
@ 049   ----------------------------------------
 .byte   W96
@ 050   ----------------------------------------
 .byte   W96
@ 051   ----------------------------------------
 .byte   W96
@ 052   ----------------------------------------
 .byte   W96
@ 053   ----------------------------------------
 .byte   W96
@ 054   ----------------------------------------
 .byte   W96
@ 055   ----------------------------------------
 .byte   W96
@ 056   ----------------------------------------
 .byte   W96
@ 057   ----------------------------------------
 .byte   W96
@ 058   ----------------------------------------
 .byte   W96
@ 059   ----------------------------------------
 .byte   W96
@ 060   ----------------------------------------
 .byte   W96
@ 061   ----------------------------------------
 .byte   W96
@ 062   ----------------------------------------
 .byte   W96
@ 063   ----------------------------------------
 .byte   W96
@ 064   ----------------------------------------
 .byte   W96
@ 065   ----------------------------------------
 .byte   W96
@ 066   ----------------------------------------
 .byte   W96
@ 067   ----------------------------------------
 .byte   W96
@ 068   ----------------------------------------
 .byte   GOTO
  .word Label_11_BBAD29
 .byte   FINE

@**************** Track 13 (Midi-Chn.12) ****************@

song0B_013:
@ 000   ----------------------------------------
 .byte   KEYSH , song0B_key+0
Label_12_BBAD9D:
 .byte   VOICE , 124
 .byte   VOL , 48*song0B_mvl/mxv
 .byte   N12 ,Cn1 ,v127
 .byte   N96 ,Cs2
 .byte   W48
 .byte   N12 ,En1
 .byte   W48
@ 001   ----------------------------------------
Label_12_BBADAA:
 .byte   N12 ,Cn1 ,v127
 .byte   W48
 .byte   En1
 .byte   W48
 .byte   PEND 
@ 002   ----------------------------------------
 .byte   PATT
  .word Label_12_BBADAA
@ 003   ----------------------------------------
 .byte   PATT
  .word Label_12_BBADAA
@ 004   ----------------------------------------
 .byte   PATT
  .word Label_12_BBADAA
@ 005   ----------------------------------------
 .byte   PATT
  .word Label_12_BBADAA
@ 006   ----------------------------------------
 .byte   PATT
  .word Label_12_BBADAA
@ 007   ----------------------------------------
Label_12_BBADCA:
 .byte   N12 ,Cn1 ,v127
 .byte   W48
 .byte   En1
 .byte   W12
 .byte   N12
 .byte   W12
 .byte   N12
 .byte   W12
 .byte   N12
 .byte   W12
 .byte   PEND 
@ 008   ----------------------------------------
Label_12_BBADD7:
 .byte   N12 ,Cn1 ,v127
 .byte   N96 ,Cs2
 .byte   W48
 .byte   N12 ,En1
 .byte   W48
 .byte   PEND 
@ 009   ----------------------------------------
 .byte   PATT
  .word Label_12_BBADAA
@ 010   ----------------------------------------
 .byte   PATT
  .word Label_12_BBADAA
@ 011   ----------------------------------------
 .byte   PATT
  .word Label_12_BBADAA
@ 012   ----------------------------------------
 .byte   PATT
  .word Label_12_BBADAA
@ 013   ----------------------------------------
 .byte   PATT
  .word Label_12_BBADAA
@ 014   ----------------------------------------
 .byte   PATT
  .word Label_12_BBADAA
@ 015   ----------------------------------------
 .byte   PATT
  .word Label_12_BBADAA
@ 016   ----------------------------------------
 .byte   PATT
  .word Label_12_BBADAA
@ 017   ----------------------------------------
 .byte   PATT
  .word Label_12_BBADAA
@ 018   ----------------------------------------
Label_12_BBAE0E:
 .byte   N12 ,Cn1 ,v127
 .byte   W12
 .byte   Cn2
 .byte   W12
 .byte   N12
 .byte   W24
 .byte   Cn1
 .byte   W12
 .byte   Cn2
 .byte   W12
 .byte   N12
 .byte   W24
 .byte   PEND 
@ 019   ----------------------------------------
Label_12_BBAE1D:
 .byte   N12 ,Cn1 ,v127
 .byte   W12
 .byte   Cn2
 .byte   W12
 .byte   N12
 .byte   W12
 .byte   An1
 .byte   W12
 .byte   N12
 .byte   W12
 .byte   N12
 .byte   W12
 .byte   N12
 .byte   W12
 .byte   Gn1
 .byte   W12
 .byte   PEND 
@ 020   ----------------------------------------
 .byte   PATT
  .word Label_12_BBADD7
@ 021   ----------------------------------------
 .byte   PATT
  .word Label_12_BBADAA
@ 022   ----------------------------------------
 .byte   PATT
  .word Label_12_BBADAA
@ 023   ----------------------------------------
 .byte   PATT
  .word Label_12_BBADAA
@ 024   ----------------------------------------
 .byte   PATT
  .word Label_12_BBADAA
@ 025   ----------------------------------------
 .byte   PATT
  .word Label_12_BBADAA
@ 026   ----------------------------------------
 .byte   PATT
  .word Label_12_BBADAA
@ 027   ----------------------------------------
 .byte   PATT
  .word Label_12_BBADAA
@ 028   ----------------------------------------
 .byte   PATT
  .word Label_12_BBADAA
@ 029   ----------------------------------------
 .byte   PATT
  .word Label_12_BBADAA
@ 030   ----------------------------------------
 .byte   PATT
  .word Label_12_BBAE0E
@ 031   ----------------------------------------
 .byte   PATT
  .word Label_12_BBAE1D
@ 032   ----------------------------------------
 .byte   PATT
  .word Label_12_BBADD7
@ 033   ----------------------------------------
 .byte   PATT
  .word Label_12_BBADAA
@ 034   ----------------------------------------
 .byte   PATT
  .word Label_12_BBADAA
@ 035   ----------------------------------------
 .byte   PATT
  .word Label_12_BBADAA
@ 036   ----------------------------------------
 .byte   PATT
  .word Label_12_BBADAA
@ 037   ----------------------------------------
 .byte   PATT
  .word Label_12_BBADAA
@ 038   ----------------------------------------
 .byte   PATT
  .word Label_12_BBADAA
@ 039   ----------------------------------------
 .byte   PATT
  .word Label_12_BBADAA
@ 040   ----------------------------------------
 .byte   PATT
  .word Label_12_BBADAA
@ 041   ----------------------------------------
 .byte   PATT
  .word Label_12_BBADAA
@ 042   ----------------------------------------
 .byte   PATT
  .word Label_12_BBADAA
@ 043   ----------------------------------------
 .byte   PATT
  .word Label_12_BBADAA
@ 044   ----------------------------------------
 .byte   PATT
  .word Label_12_BBADAA
@ 045   ----------------------------------------
 .byte   PATT
  .word Label_12_BBADAA
@ 046   ----------------------------------------
 .byte   PATT
  .word Label_12_BBAE0E
@ 047   ----------------------------------------
 .byte   PATT
  .word Label_12_BBAE1D
@ 048   ----------------------------------------
 .byte   PATT
  .word Label_12_BBADD7
@ 049   ----------------------------------------
 .byte   PATT
  .word Label_12_BBADAA
@ 050   ----------------------------------------
 .byte   PATT
  .word Label_12_BBADAA
@ 051   ----------------------------------------
 .byte   PATT
  .word Label_12_BBADAA
@ 052   ----------------------------------------
 .byte   PATT
  .word Label_12_BBADAA
@ 053   ----------------------------------------
 .byte   PATT
  .word Label_12_BBADAA
@ 054   ----------------------------------------
 .byte   PATT
  .word Label_12_BBADAA
@ 055   ----------------------------------------
 .byte   PATT
  .word Label_12_BBADAA
@ 056   ----------------------------------------
 .byte   PATT
  .word Label_12_BBADAA
@ 057   ----------------------------------------
 .byte   PATT
  .word Label_12_BBADAA
@ 058   ----------------------------------------
 .byte   PATT
  .word Label_12_BBADAA
@ 059   ----------------------------------------
 .byte   PATT
  .word Label_12_BBADAA
@ 060   ----------------------------------------
 .byte   PATT
  .word Label_12_BBADAA
@ 061   ----------------------------------------
 .byte   PATT
  .word Label_12_BBADAA
@ 062   ----------------------------------------
 .byte   PATT
  .word Label_12_BBAE0E
@ 063   ----------------------------------------
 .byte   PATT
  .word Label_12_BBAE1D
@ 064   ----------------------------------------
 .byte   PATT
  .word Label_12_BBADD7
@ 065   ----------------------------------------
 .byte   PATT
  .word Label_12_BBADCA
@ 066   ----------------------------------------
 .byte   PATT
  .word Label_12_BBAE0E
@ 067   ----------------------------------------
 .byte   PATT
  .word Label_12_BBAE1D
@ 068   ----------------------------------------
 .byte   GOTO
  .word Label_12_BBAD9D
 .byte   FINE

@**************** Track 14 (Midi-Chn.13) ****************@

song0B_014:
@ 000   ----------------------------------------
 .byte   KEYSH , song0B_key+0
Label_13_BBAF28:
 .byte   VOICE , 85
 .byte   VOL , 45*song0B_mvl/mxv
 .byte   PAN , c_v+0
 .byte   W96
@ 001   ----------------------------------------
 .byte   W96
@ 002   ----------------------------------------
 .byte   W96
@ 003   ----------------------------------------
 .byte   W96
@ 004   ----------------------------------------
 .byte   W96
@ 005   ----------------------------------------
 .byte   W96
@ 006   ----------------------------------------
 .byte   W96
@ 007   ----------------------------------------
 .byte   W96
@ 008   ----------------------------------------
 .byte   N92 ,En3 ,v127
 .byte   W96
@ 009   ----------------------------------------
Label_13_BBAF3A:
 .byte   N68 ,Bn3 ,v127
 .byte   W72
 .byte   N11 ,An3
 .byte   W12
 .byte   Bn3
 .byte   W12
 .byte   PEND 
@ 010   ----------------------------------------
Label_13_BBAF44:
 .byte   N68 ,An3 ,v127
 .byte   W72
 .byte   N23 ,Gn3
 .byte   W24
 .byte   PEND 
@ 011   ----------------------------------------
Label_13_BBAF4C:
 .byte   N32 ,Fs3 ,v127
 .byte   W36
 .byte   Gn3
 .byte   W36
 .byte   N23 ,An3
 .byte   W24
 .byte   PEND 
@ 012   ----------------------------------------
 .byte   N92 ,En3
 .byte   W96
@ 013   ----------------------------------------
 .byte   PATT
  .word Label_13_BBAF3A
@ 014   ----------------------------------------
 .byte   PATT
  .word Label_13_BBAF44
@ 015   ----------------------------------------
Label_13_BBAF63:
 .byte   N32 ,Cn3 ,v127
 .byte   W36
 .byte   En3
 .byte   W36
 .byte   N23 ,Gn3
 .byte   W24
 .byte   PEND 
@ 016   ----------------------------------------
 .byte   TIE ,Fs3
 .byte   W96
@ 017   ----------------------------------------
 .byte   W92
 .byte   W03
 .byte   EOT
 .byte   W01
@ 018   ----------------------------------------
 .byte   W96
@ 019   ----------------------------------------
 .byte   W96
@ 020   ----------------------------------------
 .byte   N92 ,En3
 .byte   W96
@ 021   ----------------------------------------
 .byte   PATT
  .word Label_13_BBAF3A
@ 022   ----------------------------------------
 .byte   PATT
  .word Label_13_BBAF44
@ 023   ----------------------------------------
 .byte   PATT
  .word Label_13_BBAF4C
@ 024   ----------------------------------------
 .byte   N92 ,En3 ,v127
 .byte   W96
@ 025   ----------------------------------------
 .byte   PATT
  .word Label_13_BBAF3A
@ 026   ----------------------------------------
 .byte   PATT
  .word Label_13_BBAF44
@ 027   ----------------------------------------
 .byte   PATT
  .word Label_13_BBAF63
@ 028   ----------------------------------------
 .byte   TIE ,Fs3 ,v127
 .byte   W96
@ 029   ----------------------------------------
 .byte   W92
 .byte   W03
 .byte   EOT
 .byte   W01
@ 030   ----------------------------------------
 .byte   W96
@ 031   ----------------------------------------
 .byte   W96
@ 032   ----------------------------------------
 .byte   W96
@ 033   ----------------------------------------
 .byte   W96
@ 034   ----------------------------------------
 .byte   W96
@ 035   ----------------------------------------
 .byte   W96
@ 036   ----------------------------------------
 .byte   W96
@ 037   ----------------------------------------
 .byte   W96
@ 038   ----------------------------------------
 .byte   W96
@ 039   ----------------------------------------
 .byte   W96
@ 040   ----------------------------------------
 .byte   W96
@ 041   ----------------------------------------
 .byte   W96
@ 042   ----------------------------------------
 .byte   W96
@ 043   ----------------------------------------
 .byte   W96
@ 044   ----------------------------------------
 .byte   W96
@ 045   ----------------------------------------
 .byte   W96
@ 046   ----------------------------------------
 .byte   W96
@ 047   ----------------------------------------
 .byte   W96
@ 048   ----------------------------------------
 .byte   W96
@ 049   ----------------------------------------
 .byte   W96
@ 050   ----------------------------------------
 .byte   W96
@ 051   ----------------------------------------
 .byte   W96
@ 052   ----------------------------------------
 .byte   W96
@ 053   ----------------------------------------
 .byte   W96
@ 054   ----------------------------------------
 .byte   W96
@ 055   ----------------------------------------
 .byte   W96
@ 056   ----------------------------------------
 .byte   W96
@ 057   ----------------------------------------
 .byte   W96
@ 058   ----------------------------------------
 .byte   W96
@ 059   ----------------------------------------
 .byte   W96
@ 060   ----------------------------------------
 .byte   W96
@ 061   ----------------------------------------
 .byte   W96
@ 062   ----------------------------------------
 .byte   W96
@ 063   ----------------------------------------
 .byte   W96
@ 064   ----------------------------------------
 .byte   W96
@ 065   ----------------------------------------
 .byte   W96
@ 066   ----------------------------------------
 .byte   W96
@ 067   ----------------------------------------
 .byte   W96
@ 068   ----------------------------------------
 .byte   GOTO
  .word Label_13_BBAF28
 .byte   FINE

@******************************************************@
	.align	2

song0B:
	.byte	14	@ NumTrks
	.byte	0	@ NumBlks
	.byte	song0B_pri	@ Priority
	.byte	song0B_rev	@ Reverb.
    
	.word	song0B_grp
    
	.word	song0B_001
	.word	song0B_002
	.word	song0B_003
	.word	song0B_004
	.word	song0B_005
	.word	song0B_006
	.word	song0B_007
	.word	song0B_008
	.word	song0B_009
	.word	song0B_010
	.word	song0B_011
	.word	song0B_012
	.word	song0B_013
	.word	song0B_014

	.end
