	.include "MPlayDef.s"

	.equ	CallingThatDetestableName_grp, voicegroup000
	.equ	CallingThatDetestableName_pri, 0
	.equ	CallingThatDetestableName_rev, 0
	.equ	CallingThatDetestableName_mvl, 127
	.equ	CallingThatDetestableName_key, 0
	.equ	CallingThatDetestableName_tbs, 1
	.equ	CallingThatDetestableName_exg, 0
	.equ	CallingThatDetestableName_cmp, 1

	.section .rodata
	.global	CallingThatDetestableName
	.align	2


@**************** Track 1 (Midi-Chn.0) ****************@

CallingThatDetestableName_001:
@  #01 @000   ----------------------------------------
 .byte   KEYSH , CallingThatDetestableName_key+0
Label_0153FF92:
 .byte   TEMPO , 182*CallingThatDetestableName_tbs/2
 .byte   VOICE , 30
 .byte   VOL , 46*CallingThatDetestableName_mvl/mxv
 .byte   PAN , c_v+0
 .byte   W96
@  #01 @001   ----------------------------------------
 .byte   W96
@  #01 @002   ----------------------------------------
 .byte   W96
@  #01 @003   ----------------------------------------
 .byte   W96
@  #01 @004   ----------------------------------------
 .byte   W96
@  #01 @005   ----------------------------------------
 .byte   W96
@  #01 @006   ----------------------------------------
 .byte   W96
@  #01 @007   ----------------------------------------
 .byte   W96
@  #01 @008   ----------------------------------------
 .byte   W96
@  #01 @009   ----------------------------------------
 .byte   W96
@  #01 @010   ----------------------------------------
 .byte   W96
@  #01 @011   ----------------------------------------
 .byte   W96
@  #01 @012   ----------------------------------------
 .byte   W96
@  #01 @013   ----------------------------------------
 .byte   W96
@  #01 @014   ----------------------------------------
 .byte   W96
@  #01 @015   ----------------------------------------
 .byte   W96
@  #01 @016   ----------------------------------------
 .byte   W96
@  #01 @017   ----------------------------------------
 .byte   W96
@  #01 @018   ----------------------------------------
 .byte   W96
@  #01 @019   ----------------------------------------
 .byte   W96
@  #01 @020   ----------------------------------------
 .byte   W96
@  #01 @021   ----------------------------------------
 .byte   W96
@  #01 @022   ----------------------------------------
 .byte   W96
@  #01 @023   ----------------------------------------
 .byte   W96
@  #01 @024   ----------------------------------------
 .byte   W96
@  #01 @025   ----------------------------------------
 .byte   W96
@  #01 @026   ----------------------------------------
 .byte   W96
@  #01 @027   ----------------------------------------
 .byte   W96
@  #01 @028   ----------------------------------------
 .byte   W96
@  #01 @029   ----------------------------------------
 .byte   W96
@  #01 @030   ----------------------------------------
 .byte   W96
@  #01 @031   ----------------------------------------
 .byte   W96
@  #01 @032   ----------------------------------------
 .byte   W96
@  #01 @033   ----------------------------------------
 .byte   W96
@  #01 @034   ----------------------------------------
 .byte   W96
@  #01 @035   ----------------------------------------
 .byte   W96
@  #01 @036   ----------------------------------------
 .byte   W96
@  #01 @037   ----------------------------------------
 .byte   W96
@  #01 @038   ----------------------------------------
 .byte   W96
@  #01 @039   ----------------------------------------
 .byte   W96
@  #01 @040   ----------------------------------------
 .byte   W96
@  #01 @041   ----------------------------------------
 .byte   W96
@  #01 @042   ----------------------------------------
 .byte   W96
@  #01 @043   ----------------------------------------
 .byte   W96
@  #01 @044   ----------------------------------------
 .byte   W96
@  #01 @045   ----------------------------------------
 .byte   W96
@  #01 @046   ----------------------------------------
 .byte   W96
@  #01 @047   ----------------------------------------
 .byte   W72
 .byte   W24
@  #01 @048   ----------------------------------------
 .byte   TIE ,Ds4 ,v060
 .byte   TIE ,Gn4 ,v064
 .byte   TIE ,Cn5 ,v068
 .byte   W96
@  #01 @049   ----------------------------------------
 .byte   W96
@  #01 @050   ----------------------------------------
 .byte   W96
@  #01 @051   ----------------------------------------
 .byte   W84
 .byte   W01
 .byte   EOT
 .byte   Ds4
 .byte   W01
 .byte   Gn4
 .byte   W03
 .byte   Cn5
 .byte   W07
@  #01 @052   ----------------------------------------
 .byte   TIE ,Ds4 ,v060
 .byte   TIE ,Gn4 ,v064
 .byte   TIE ,As4 ,v068
 .byte   W96
@  #01 @053   ----------------------------------------
 .byte   W92
 .byte   W03
 .byte   EOT
 .byte   Ds4 ,v079
 .byte   As4
 .byte   W01
@  #01 @054   ----------------------------------------
 .byte   TIE ,As3 ,v048
 .byte   TIE ,Cn4 ,v060
 .byte   TIE ,Ds4
 .byte   TIE ,Gn4
 .byte   W96
@  #01 @055   ----------------------------------------
 .byte   W92
 .byte   W03
 .byte   EOT
 .byte   As3 ,v072
 .byte   Ds4 ,v079
 .byte   W01
@  #01 @056   ----------------------------------------
 .byte   TIE ,Cn4
 .byte   TIE ,En4 ,v064
 .byte   TIE ,An4 ,v068
 .byte   W96
@  #01 @057   ----------------------------------------
 .byte   W96
@  #01 @058   ----------------------------------------
 .byte   W96
@  #01 @059   ----------------------------------------
 .byte   W84
 .byte   W01
 .byte   EOT
 .byte   Cn4
 .byte   W01
 .byte   En4
 .byte   W03
 .byte   An4
 .byte   W07
@  #01 @060   ----------------------------------------
 .byte   TIE ,Cn4 ,v060
 .byte   TIE ,En4 ,v064
 .byte   TIE ,Gn4 ,v068
 .byte   W96
@  #01 @061   ----------------------------------------
 .byte   W92
 .byte   W03
 .byte   EOT
 .byte   Cn4 ,v076
 .byte   Gn4
 .byte   W01
@  #01 @062   ----------------------------------------
 .byte   TIE ,Gn3 ,v048
 .byte   TIE ,An3 ,v060
 .byte   TIE ,Cn4
 .byte   TIE ,En4
 .byte   W96
@  #01 @063   ----------------------------------------
 .byte   W92
 .byte   W03
 .byte   EOT
 .byte   Gn3 ,v069
 .byte   Cn4 ,v076
 .byte   W01
@  #01 @064   ----------------------------------------
 .byte   W96
@  #01 @065   ----------------------------------------
 .byte   W96
@  #01 @066   ----------------------------------------
 .byte   W96
@  #01 @067   ----------------------------------------
 .byte   W96
@  #01 @068   ----------------------------------------
 .byte   W96
@  #01 @069   ----------------------------------------
 .byte   W96
@  #01 @070   ----------------------------------------
 .byte   W96
@  #01 @071   ----------------------------------------
 .byte   W96
@  #01 @072   ----------------------------------------
 .byte   GOTO
  .word Label_0153FF92
 .byte   FINE

@**************** Track 2 (Midi-Chn.1) ****************@

CallingThatDetestableName_002:
@  #02 @000   ----------------------------------------
 .byte   KEYSH , CallingThatDetestableName_key+0
Label_015400C6:
 .byte   VOICE , 1
 .byte   VOL , 43*CallingThatDetestableName_mvl/mxv
 .byte   PAN , c_v+62
 .byte   N11 ,En2 ,v072
 .byte   W12
 .byte   Gn2
 .byte   W12
 .byte   Bn2
 .byte   W12
 .byte   En2
 .byte   W12
 .byte   Gn2
 .byte   W12
 .byte   As2
 .byte   W12
 .byte   En2
 .byte   W12
 .byte   Gn2
 .byte   W12
@  #02 @001   ----------------------------------------
Label_015400DE:
 .byte   N11 ,Bn2 ,v072
 .byte   W12
 .byte   En2
 .byte   W12
 .byte   Gn2
 .byte   W12
 .byte   As2
 .byte   W12
 .byte   En2
 .byte   W12
 .byte   Gn2
 .byte   W12
 .byte   N23 ,Cn3
 .byte   W24
 .byte   PEND 
@  #02 @002   ----------------------------------------
Label_015400F0:
 .byte   N11 ,En2 ,v072
 .byte   W12
 .byte   Gn2
 .byte   W12
 .byte   Bn2
 .byte   W12
 .byte   En2
 .byte   W12
 .byte   Gn2
 .byte   W12
 .byte   As2
 .byte   W12
 .byte   En2
 .byte   W12
 .byte   Gn2
 .byte   W12
 .byte   PEND 
@  #02 @003   ----------------------------------------
Label_01540103:
 .byte   N11 ,Bn2 ,v072
 .byte   W12
 .byte   En2
 .byte   W12
 .byte   Gn2
 .byte   W12
 .byte   As2
 .byte   W12
 .byte   En2
 .byte   W12
 .byte   Gn2
 .byte   W12
 .byte   N23 ,Dn3
 .byte   W24
 .byte   PEND 
@  #02 @004   ----------------------------------------
 .byte   PATT
  .word Label_015400F0
@  #02 @005   ----------------------------------------
 .byte   PATT
  .word Label_015400DE
@  #02 @006   ----------------------------------------
 .byte   PATT
  .word Label_015400F0
@  #02 @007   ----------------------------------------
 .byte   PATT
  .word Label_01540103
@  #02 @008   ----------------------------------------
 .byte   PATT
  .word Label_015400F0
@  #02 @009   ----------------------------------------
 .byte   PATT
  .word Label_015400DE
@  #02 @010   ----------------------------------------
 .byte   PATT
  .word Label_015400F0
@  #02 @011   ----------------------------------------
 .byte   PATT
  .word Label_01540103
@  #02 @012   ----------------------------------------
 .byte   PATT
  .word Label_015400F0
@  #02 @013   ----------------------------------------
 .byte   PATT
  .word Label_015400DE
@  #02 @014   ----------------------------------------
 .byte   PATT
  .word Label_015400F0
@  #02 @015   ----------------------------------------
 .byte   PATT
  .word Label_01540103
@  #02 @016   ----------------------------------------
 .byte   PATT
  .word Label_015400F0
@  #02 @017   ----------------------------------------
 .byte   PATT
  .word Label_015400DE
@  #02 @018   ----------------------------------------
 .byte   PATT
  .word Label_015400F0
@  #02 @019   ----------------------------------------
 .byte   PATT
  .word Label_01540103
@  #02 @020   ----------------------------------------
 .byte   PATT
  .word Label_015400F0
@  #02 @021   ----------------------------------------
 .byte   PATT
  .word Label_015400DE
@  #02 @022   ----------------------------------------
 .byte   PATT
  .word Label_015400F0
@  #02 @023   ----------------------------------------
 .byte   PATT
  .word Label_01540103
@  #02 @024   ----------------------------------------
 .byte   PATT
  .word Label_015400F0
@  #02 @025   ----------------------------------------
 .byte   PATT
  .word Label_015400DE
@  #02 @026   ----------------------------------------
 .byte   PATT
  .word Label_015400F0
@  #02 @027   ----------------------------------------
 .byte   PATT
  .word Label_01540103
@  #02 @028   ----------------------------------------
 .byte   PATT
  .word Label_015400F0
@  #02 @029   ----------------------------------------
 .byte   PATT
  .word Label_015400DE
@  #02 @030   ----------------------------------------
 .byte   PATT
  .word Label_015400F0
@  #02 @031   ----------------------------------------
 .byte   PATT
  .word Label_01540103
@  #02 @032   ----------------------------------------
Label_015401A1:
 .byte   N44 ,Ds3 ,v072
 .byte   W48
 .byte   N11 ,Gs3
 .byte   W12
 .byte   Fs3
 .byte   W12
 .byte   Fn3
 .byte   W12
 .byte   Ds3
 .byte   W12
 .byte   PEND 
@  #02 @033   ----------------------------------------
Label_015401AF:
 .byte   N44 ,Ds3 ,v072
 .byte   W06
 .byte   W42
 .byte   N11 ,Gs3
 .byte   W12
 .byte   Fs3
 .byte   W12
 .byte   Fn3
 .byte   W12
 .byte   Ds3
 .byte   W12
 .byte   PEND 
@  #02 @034   ----------------------------------------
 .byte   PATT
  .word Label_015401AF
@  #02 @035   ----------------------------------------
Label_015401C3:
 .byte   N32 ,Ds3 ,v072
 .byte   W06
 .byte   W30
 .byte   N32 ,Dn3
 .byte   W12
 .byte   W24
 .byte   N23 ,Fn3
 .byte   W24
 .byte   PEND 
@  #02 @036   ----------------------------------------
 .byte   PATT
  .word Label_015401AF
@  #02 @037   ----------------------------------------
 .byte   PATT
  .word Label_015401AF
@  #02 @038   ----------------------------------------
Label_015401DA:
 .byte   N44 ,Ds3 ,v072
 .byte   W06
 .byte   W42
 .byte   N11 ,Gs3
 .byte   W12
 .byte   Fs3 ,v068
 .byte   W12
 .byte   Fn3
 .byte   W12
 .byte   Ds3 ,v072
 .byte   W12
 .byte   PEND 
@  #02 @039   ----------------------------------------
Label_015401EB:
 .byte   N11 ,Dn3 ,v072
 .byte   W12
 .byte   Fn3
 .byte   W12
 .byte   Ds3
 .byte   W12
 .byte   Fs3
 .byte   W12
 .byte   As3 ,v084
 .byte   W12
 .byte   Gs3
 .byte   W12
 .byte   Fs3
 .byte   W12
 .byte   Gs3
 .byte   W12
 .byte   PEND 
@  #02 @040   ----------------------------------------
 .byte   PATT
  .word Label_015401A1
@  #02 @041   ----------------------------------------
 .byte   PATT
  .word Label_015401AF
@  #02 @042   ----------------------------------------
 .byte   PATT
  .word Label_015401AF
@  #02 @043   ----------------------------------------
 .byte   PATT
  .word Label_015401C3
@  #02 @044   ----------------------------------------
 .byte   PATT
  .word Label_015401AF
@  #02 @045   ----------------------------------------
 .byte   PATT
  .word Label_015401AF
@  #02 @046   ----------------------------------------
 .byte   PATT
  .word Label_015401DA
@  #02 @047   ----------------------------------------
 .byte   PATT
  .word Label_015401EB
@  #02 @048   ----------------------------------------
Label_01540227:
 .byte   N11 ,Gn3 ,v092
 .byte   W12
 .byte   N23 ,As3 ,v076
 .byte   W24
 .byte   N11 ,Gn3 ,v072
 .byte   W12
 .byte   N23 ,As3 ,v076
 .byte   W24
 .byte   N11 ,Gn3
 .byte   W12
 .byte   N23 ,As3 ,v072
 .byte   W12
 .byte   PEND 
@  #02 @049   ----------------------------------------
Label_0154023F:
 .byte   W12
 .byte   N11 ,Gn3 ,v072
 .byte   W12
 .byte   N23 ,As3
 .byte   W24
 .byte   N11 ,As3 ,v088
 .byte   W12
 .byte   N32 ,Cn4 ,v084
 .byte   W36
 .byte   PEND 
@  #02 @050   ----------------------------------------
Label_01540250:
 .byte   N11 ,Gn3 ,v084
 .byte   W12
 .byte   N23 ,As3 ,v080
 .byte   W24
 .byte   N11 ,Gn3
 .byte   W12
 .byte   N23 ,As3 ,v076
 .byte   W24
 .byte   N11 ,Gn3 ,v080
 .byte   W12
 .byte   N23 ,As3 ,v076
 .byte   W12
 .byte   PEND 
@  #02 @051   ----------------------------------------
Label_01540268:
 .byte   W12
 .byte   N11 ,Gn3 ,v076
 .byte   W12
 .byte   N23 ,As3
 .byte   W24
 .byte   N11 ,As3 ,v080
 .byte   W12
 .byte   N32 ,Dn4 ,v092
 .byte   W36
 .byte   PEND 
@  #02 @052   ----------------------------------------
 .byte   PATT
  .word Label_01540227
@  #02 @053   ----------------------------------------
 .byte   PATT
  .word Label_0154023F
@  #02 @054   ----------------------------------------
 .byte   PATT
  .word Label_01540250
@  #02 @055   ----------------------------------------
 .byte   PATT
  .word Label_01540268
@  #02 @056   ----------------------------------------
Label_0154028D:
 .byte   N11 ,En3 ,v092
 .byte   W12
 .byte   N23 ,Gn3 ,v076
 .byte   W24
 .byte   N11 ,En3 ,v072
 .byte   W12
 .byte   N23 ,Gn3 ,v076
 .byte   W24
 .byte   N11 ,En3
 .byte   W12
 .byte   N23 ,Gn3 ,v072
 .byte   W12
 .byte   PEND 
@  #02 @057   ----------------------------------------
Label_015402A5:
 .byte   W12
 .byte   N11 ,En3 ,v072
 .byte   W12
 .byte   N23 ,Gn3
 .byte   W24
 .byte   N11 ,Gn3 ,v088
 .byte   W12
 .byte   N32 ,An3 ,v084
 .byte   W36
 .byte   PEND 
@  #02 @058   ----------------------------------------
Label_015402B6:
 .byte   N11 ,En3 ,v084
 .byte   W12
 .byte   N23 ,Gn3 ,v080
 .byte   W24
 .byte   N11 ,En3
 .byte   W12
 .byte   N23 ,Gn3 ,v076
 .byte   W24
 .byte   N11 ,En3 ,v080
 .byte   W12
 .byte   N23 ,Gn3 ,v076
 .byte   W12
 .byte   PEND 
@  #02 @059   ----------------------------------------
Label_015402CE:
 .byte   W12
 .byte   N11 ,En3 ,v076
 .byte   W12
 .byte   N23 ,Gn3
 .byte   W24
 .byte   N11 ,Gn3 ,v080
 .byte   W12
 .byte   N32 ,Bn3 ,v092
 .byte   W36
 .byte   PEND 
@  #02 @060   ----------------------------------------
 .byte   PATT
  .word Label_0154028D
@  #02 @061   ----------------------------------------
 .byte   PATT
  .word Label_015402A5
@  #02 @062   ----------------------------------------
 .byte   PATT
  .word Label_015402B6
@  #02 @063   ----------------------------------------
 .byte   PATT
  .word Label_015402CE
@  #02 @064   ----------------------------------------
Label_015402F3:
 .byte   N11 ,Cn3 ,v092
 .byte   W12
 .byte   N23 ,Ds3 ,v076
 .byte   W24
 .byte   N11 ,Cn3 ,v072
 .byte   W12
 .byte   N23 ,Ds3 ,v076
 .byte   W24
 .byte   N11 ,Cn3
 .byte   W12
 .byte   N23 ,Ds3 ,v072
 .byte   W12
 .byte   PEND 
@  #02 @065   ----------------------------------------
Label_0154030B:
 .byte   W12
 .byte   N11 ,Cn3 ,v072
 .byte   W12
 .byte   N23 ,Ds3
 .byte   W24
 .byte   N11 ,Ds3 ,v088
 .byte   W12
 .byte   N32 ,Fn3 ,v084
 .byte   W36
 .byte   PEND 
@  #02 @066   ----------------------------------------
Label_0154031C:
 .byte   N11 ,Cn3 ,v084
 .byte   W12
 .byte   N23 ,Ds3 ,v080
 .byte   W24
 .byte   N11 ,Cn3
 .byte   W12
 .byte   N23 ,Ds3 ,v076
 .byte   W24
 .byte   N11 ,Cn3 ,v080
 .byte   W12
 .byte   N23 ,Ds3 ,v076
 .byte   W12
 .byte   PEND 
@  #02 @067   ----------------------------------------
Label_01540334:
 .byte   W12
 .byte   N11 ,Cn3 ,v076
 .byte   W12
 .byte   N23 ,Ds3
 .byte   W24
 .byte   N11 ,Ds3 ,v080
 .byte   W12
 .byte   N32 ,Gn3 ,v092
 .byte   W36
 .byte   PEND 
@  #02 @068   ----------------------------------------
 .byte   PATT
  .word Label_015402F3
@  #02 @069   ----------------------------------------
 .byte   PATT
  .word Label_0154030B
@  #02 @070   ----------------------------------------
 .byte   PATT
  .word Label_0154031C
@  #02 @071   ----------------------------------------
 .byte   PATT
  .word Label_01540334
@  #02 @072   ----------------------------------------
 .byte   GOTO
  .word Label_015400C6
 .byte   FINE

@**************** Track 3 (Midi-Chn.2) ****************@

CallingThatDetestableName_003:
@  #03 @000   ----------------------------------------
 .byte   KEYSH , CallingThatDetestableName_key+0
Label_01540E7E:
 .byte   VOICE , 62
 .byte   VOL , 41*CallingThatDetestableName_mvl/mxv
 .byte   PAN , c_v-62
 .byte   W06
 .byte   N11 ,En2 ,v040
 .byte   W12
 .byte   Gn2
 .byte   W12
 .byte   Bn2
 .byte   W12
 .byte   En2
 .byte   W12
 .byte   Gn2
 .byte   W12
 .byte   As2
 .byte   W12
 .byte   En2
 .byte   W12
 .byte   Gn2
 .byte   W06
@  #03 @001   ----------------------------------------
Label_01540E97:
 .byte   W06
 .byte   N11 ,Bn2 ,v040
 .byte   W12
 .byte   En2
 .byte   W12
 .byte   Gn2
 .byte   W12
 .byte   As2
 .byte   W12
 .byte   En2
 .byte   W12
 .byte   Gn2
 .byte   W12
 .byte   N23 ,Cn3
 .byte   W18
 .byte   PEND 
@  #03 @002   ----------------------------------------
Label_01540EAA:
 .byte   W06
 .byte   N11 ,En2 ,v040
 .byte   W12
 .byte   Gn2
 .byte   W12
 .byte   Bn2
 .byte   W12
 .byte   En2
 .byte   W12
 .byte   Gn2
 .byte   W12
 .byte   As2
 .byte   W12
 .byte   En2
 .byte   W12
 .byte   Gn2
 .byte   W06
 .byte   PEND 
@  #03 @003   ----------------------------------------
Label_01540EBE:
 .byte   W06
 .byte   N11 ,Bn2 ,v040
 .byte   W12
 .byte   En2
 .byte   W12
 .byte   Gn2
 .byte   W12
 .byte   As2
 .byte   W12
 .byte   En2
 .byte   W12
 .byte   Gn2
 .byte   W12
 .byte   N23 ,Dn3
 .byte   W18
 .byte   PEND 
@  #03 @004   ----------------------------------------
 .byte   PATT
  .word Label_01540EAA
@  #03 @005   ----------------------------------------
 .byte   PATT
  .word Label_01540E97
@  #03 @006   ----------------------------------------
 .byte   PATT
  .word Label_01540EAA
@  #03 @007   ----------------------------------------
 .byte   PATT
  .word Label_01540EBE
@  #03 @008   ----------------------------------------
Label_01540EE5:
 .byte   N11 ,Bn3 ,v080
 .byte   W12
 .byte   En4 ,v084
 .byte   W12
 .byte   TIE ,Gn4 ,v080
 .byte   W12
 .byte   Dn5 ,v084
 .byte   W60
 .byte   PEND 
@  #03 @009   ----------------------------------------
 .byte   W68
 .byte   W03
 .byte   EOT
 .byte   Gn4
 .byte   W24
 .byte   Dn5
 .byte   W01
@  #03 @010   ----------------------------------------
Label_01540EFB:
 .byte   N11 ,Bn3 ,v084
 .byte   W12
 .byte   En4 ,v088
 .byte   W12
 .byte   TIE ,Gn4
 .byte   W12
 .byte   Cs5
 .byte   W60
 .byte   PEND 
@  #03 @011   ----------------------------------------
 .byte   W68
 .byte   W03
 .byte   EOT
 .byte   Gn4
 .byte   W24
 .byte   W01
@  #03 @012   ----------------------------------------
 .byte   N11 ,Bn3 ,v080
 .byte   W09
 .byte   EOT
 .byte   Cs5
 .byte   W03
 .byte   N11 ,En4 ,v084
 .byte   W12
 .byte   TIE ,Gn4 ,v080
 .byte   W12
 .byte   Dn5 ,v084
 .byte   W60
@  #03 @013   ----------------------------------------
 .byte   W68
 .byte   W03
 .byte   EOT
 .byte   Gn4
 .byte   W24
 .byte   Dn5
 .byte   W01
@  #03 @014   ----------------------------------------
Label_01540F27:
 .byte   N11 ,Bn3 ,v084
 .byte   W12
 .byte   En4 ,v088
 .byte   W12
 .byte   TIE ,Gn4
 .byte   W12
 .byte   As4
 .byte   W60
 .byte   PEND 
@  #03 @015   ----------------------------------------
 .byte   W68
 .byte   W03
 .byte   EOT
 .byte   Gn4
 .byte   W24
 .byte   As4
 .byte   W01
@  #03 @016   ----------------------------------------
 .byte   PATT
  .word Label_01540EE5
@  #03 @017   ----------------------------------------
 .byte   W68
 .byte   W03
 .byte   EOT
 .byte   Gn4
 .byte   W24
 .byte   Dn5
 .byte   W01
@  #03 @018   ----------------------------------------
 .byte   PATT
  .word Label_01540EFB
@  #03 @019   ----------------------------------------
 .byte   W68
 .byte   W03
 .byte   EOT
 .byte   Gn4
 .byte   W24
 .byte   W01
@  #03 @020   ----------------------------------------
 .byte   N11 ,Bn3 ,v080
 .byte   W09
 .byte   EOT
 .byte   Cs5
 .byte   W03
 .byte   N11 ,En4 ,v084
 .byte   W12
 .byte   TIE ,Gn4 ,v080
 .byte   W12
 .byte   Dn5 ,v084
 .byte   W60
@  #03 @021   ----------------------------------------
 .byte   W68
 .byte   W03
 .byte   EOT
 .byte   Gn4
 .byte   W24
 .byte   Dn5
 .byte   W01
@  #03 @022   ----------------------------------------
 .byte   PATT
  .word Label_01540F27
@  #03 @023   ----------------------------------------
 .byte   W68
 .byte   W03
 .byte   EOT
 .byte   Gn4
 .byte   W24
 .byte   As4
 .byte   W01
@  #03 @024   ----------------------------------------
Label_01540F77:
 .byte   W12
 .byte   N11 ,En2 ,v040
 .byte   W12
 .byte   Gn2
 .byte   W12
 .byte   Bn2
 .byte   W12
 .byte   En2
 .byte   W12
 .byte   Gn2
 .byte   W12
 .byte   As2
 .byte   W12
 .byte   En2
 .byte   W12
 .byte   PEND 
@  #03 @025   ----------------------------------------
Label_01540F89:
 .byte   N11 ,Gn2 ,v040
 .byte   W12
 .byte   Bn2
 .byte   W12
 .byte   En2
 .byte   W12
 .byte   Gn2
 .byte   W12
 .byte   As2
 .byte   W12
 .byte   En2
 .byte   W12
 .byte   Gn2
 .byte   W12
 .byte   N23 ,Cn3
 .byte   W12
 .byte   PEND 
@  #03 @026   ----------------------------------------
 .byte   PATT
  .word Label_01540F77
@  #03 @027   ----------------------------------------
Label_01540FA2:
 .byte   N11 ,Gn2 ,v040
 .byte   W12
 .byte   Bn2
 .byte   W12
 .byte   En2
 .byte   W12
 .byte   Gn2
 .byte   W12
 .byte   As2
 .byte   W12
 .byte   En2
 .byte   W12
 .byte   Gn2
 .byte   W12
 .byte   N23 ,Dn3
 .byte   W12
 .byte   PEND 
@  #03 @028   ----------------------------------------
 .byte   PATT
  .word Label_01540F77
@  #03 @029   ----------------------------------------
 .byte   PATT
  .word Label_01540F89
@  #03 @030   ----------------------------------------
 .byte   PATT
  .word Label_01540F77
@  #03 @031   ----------------------------------------
 .byte   PATT
  .word Label_01540FA2
@  #03 @032   ----------------------------------------
Label_01540FCA:
 .byte   N44 ,Ds4 ,v080
 .byte   W06
 .byte   W42
 .byte   N11 ,Gs4
 .byte   W12
 .byte   Fs4 ,v072
 .byte   W12
 .byte   Fn4 ,v076
 .byte   W12
 .byte   Ds4 ,v080
 .byte   W12
 .byte   PEND 
@  #03 @033   ----------------------------------------
Label_01540FDC:
 .byte   N44 ,Ds4 ,v088
 .byte   W06
 .byte   W42
 .byte   N11 ,Gs4 ,v080
 .byte   W12
 .byte   Fs4 ,v076
 .byte   W12
 .byte   Fn4 ,v080
 .byte   W12
 .byte   Ds4 ,v084
 .byte   W12
 .byte   PEND 
@  #03 @034   ----------------------------------------
Label_01540FEF:
 .byte   N44 ,Ds4 ,v092
 .byte   W06
 .byte   W42
 .byte   N11 ,Gs4 ,v076
 .byte   W12
 .byte   Fs4 ,v072
 .byte   W12
 .byte   Fn4
 .byte   W12
 .byte   Ds4
 .byte   W12
 .byte   PEND 
@  #03 @035   ----------------------------------------
Label_01541000:
 .byte   N32 ,Ds4 ,v088
 .byte   W06
 .byte   W30
 .byte   N32 ,Dn4 ,v072
 .byte   W12
 .byte   W24
 .byte   N23 ,Fn4 ,v084
 .byte   W24
 .byte   PEND 
@  #03 @036   ----------------------------------------
 .byte   PATT
  .word Label_01540FCA
@  #03 @037   ----------------------------------------
 .byte   PATT
  .word Label_01540FDC
@  #03 @038   ----------------------------------------
Label_01541019:
 .byte   N44 ,Ds4 ,v092
 .byte   W06
 .byte   W42
 .byte   N11 ,Gs4 ,v080
 .byte   W12
 .byte   Fs4 ,v076
 .byte   W12
 .byte   Fn4 ,v080
 .byte   W12
 .byte   Ds4 ,v084
 .byte   W12
 .byte   PEND 
@  #03 @039   ----------------------------------------
Label_0154102C:
 .byte   N11 ,As3 ,v072
 .byte   N11 ,Dn4 ,v084
 .byte   W12
 .byte   Dn4 ,v072
 .byte   N11 ,Fn4 ,v084
 .byte   W12
 .byte   Cn4 ,v072
 .byte   N11 ,Ds4 ,v084
 .byte   W12
 .byte   Ds4 ,v072
 .byte   N11 ,Fs4 ,v084
 .byte   W12
 .byte   N11
 .byte   N11 ,As4
 .byte   W12
 .byte   Fn4
 .byte   N11 ,Gs4
 .byte   W12
 .byte   Ds4
 .byte   N11 ,Fs4
 .byte   W12
 .byte   Fn4
 .byte   N11 ,Gs4
 .byte   W12
 .byte   PEND 
@  #03 @040   ----------------------------------------
 .byte   PATT
  .word Label_01540FCA
@  #03 @041   ----------------------------------------
 .byte   PATT
  .word Label_01540FDC
@  #03 @042   ----------------------------------------
 .byte   PATT
  .word Label_01540FEF
@  #03 @043   ----------------------------------------
 .byte   PATT
  .word Label_01541000
@  #03 @044   ----------------------------------------
 .byte   PATT
  .word Label_01540FCA
@  #03 @045   ----------------------------------------
 .byte   PATT
  .word Label_01540FDC
@  #03 @046   ----------------------------------------
 .byte   PATT
  .word Label_01541019
@  #03 @047   ----------------------------------------
 .byte   PATT
  .word Label_0154102C
@  #03 @048   ----------------------------------------
Label_0154107E:
 .byte   N11 ,Cn3 ,v072
 .byte   W12
 .byte   N23 ,Ds3 ,v068
 .byte   W24
 .byte   N11 ,Cn3 ,v060
 .byte   W12
 .byte   N23 ,Ds3 ,v064
 .byte   W24
 .byte   N11 ,Cn3 ,v056
 .byte   W12
 .byte   N23 ,Ds3 ,v064
 .byte   W12
 .byte   PEND 
@  #03 @049   ----------------------------------------
Label_01541097:
 .byte   W12
 .byte   N11 ,Cn3 ,v056
 .byte   W12
 .byte   N23 ,Ds3 ,v072
 .byte   W24
 .byte   N11
 .byte   W12
 .byte   N23 ,Fn3 ,v060
 .byte   W36
 .byte   PEND 
@  #03 @050   ----------------------------------------
Label_015410A7:
 .byte   N11 ,Cn3 ,v064
 .byte   W12
 .byte   N23 ,Ds3
 .byte   W24
 .byte   N11 ,Cn3 ,v060
 .byte   W12
 .byte   N23 ,Ds3 ,v064
 .byte   W24
 .byte   N11 ,Cn3 ,v072
 .byte   W12
 .byte   N23 ,Ds3 ,v076
 .byte   W12
 .byte   PEND 
@  #03 @051   ----------------------------------------
Label_015410BF:
 .byte   W12
 .byte   N11 ,Cn3 ,v056
 .byte   W12
 .byte   N23 ,Ds3 ,v060
 .byte   W24
 .byte   N11
 .byte   W12
 .byte   N23 ,Gn3 ,v068
 .byte   W36
 .byte   PEND 
@  #03 @052   ----------------------------------------
 .byte   PATT
  .word Label_0154107E
@  #03 @053   ----------------------------------------
 .byte   PATT
  .word Label_01541097
@  #03 @054   ----------------------------------------
 .byte   PATT
  .word Label_015410A7
@  #03 @055   ----------------------------------------
 .byte   PATT
  .word Label_015410BF
@  #03 @056   ----------------------------------------
Label_015410E3:
 .byte   N11 ,An2 ,v072
 .byte   W12
 .byte   N23 ,Cn3 ,v068
 .byte   W24
 .byte   N11 ,An2 ,v060
 .byte   W12
 .byte   N23 ,Cn3 ,v064
 .byte   W24
 .byte   N11 ,An2 ,v056
 .byte   W12
 .byte   N23 ,Cn3 ,v064
 .byte   W12
 .byte   PEND 
@  #03 @057   ----------------------------------------
Label_015410FC:
 .byte   W12
 .byte   N11 ,An2 ,v056
 .byte   W12
 .byte   N23 ,Cn3 ,v072
 .byte   W24
 .byte   N11
 .byte   W12
 .byte   N23 ,Dn3 ,v060
 .byte   W36
 .byte   PEND 
@  #03 @058   ----------------------------------------
Label_0154110C:
 .byte   N11 ,An2 ,v064
 .byte   W12
 .byte   N23 ,Cn3
 .byte   W24
 .byte   N11 ,An2 ,v060
 .byte   W12
 .byte   N23 ,Cn3 ,v064
 .byte   W24
 .byte   N11 ,An2 ,v072
 .byte   W12
 .byte   N23 ,Cn3 ,v076
 .byte   W12
 .byte   PEND 
@  #03 @059   ----------------------------------------
Label_01541124:
 .byte   W12
 .byte   N11 ,An2 ,v056
 .byte   W12
 .byte   N23 ,Cn3 ,v060
 .byte   W24
 .byte   N11
 .byte   W12
 .byte   N23 ,En3 ,v068
 .byte   W36
 .byte   PEND 
@  #03 @060   ----------------------------------------
 .byte   PATT
  .word Label_015410E3
@  #03 @061   ----------------------------------------
 .byte   PATT
  .word Label_015410FC
@  #03 @062   ----------------------------------------
 .byte   PATT
  .word Label_0154110C
@  #03 @063   ----------------------------------------
 .byte   PATT
  .word Label_01541124
@  #03 @064   ----------------------------------------
Label_01541148:
 .byte   N11 ,Fn2 ,v072
 .byte   W12
 .byte   N23 ,Gs2 ,v068
 .byte   W24
 .byte   N11 ,Fn2 ,v060
 .byte   W12
 .byte   N23 ,Gs2 ,v064
 .byte   W24
 .byte   N11 ,Fn2 ,v056
 .byte   W12
 .byte   N23 ,Gs2 ,v064
 .byte   W12
 .byte   PEND 
@  #03 @065   ----------------------------------------
Label_01541161:
 .byte   W12
 .byte   N11 ,Fn2 ,v056
 .byte   W12
 .byte   N23 ,Gs2 ,v072
 .byte   W24
 .byte   N11
 .byte   W12
 .byte   N23 ,As2 ,v060
 .byte   W36
 .byte   PEND 
@  #03 @066   ----------------------------------------
Label_01541171:
 .byte   N11 ,Fn2 ,v064
 .byte   W12
 .byte   N23 ,Gs2
 .byte   W24
 .byte   N11 ,Fn2 ,v060
 .byte   W12
 .byte   N23 ,Gs2 ,v064
 .byte   W24
 .byte   N11 ,Fn2 ,v072
 .byte   W12
 .byte   N23 ,Gs2 ,v076
 .byte   W12
 .byte   PEND 
@  #03 @067   ----------------------------------------
Label_01541189:
 .byte   W12
 .byte   N11 ,Fn2 ,v056
 .byte   W12
 .byte   N23 ,Gs2 ,v060
 .byte   W24
 .byte   N11
 .byte   W12
 .byte   N23 ,Cn3 ,v068
 .byte   W36
 .byte   PEND 
@  #03 @068   ----------------------------------------
 .byte   PATT
  .word Label_01541148
@  #03 @069   ----------------------------------------
 .byte   PATT
  .word Label_01541161
@  #03 @070   ----------------------------------------
 .byte   PATT
  .word Label_01541171
@  #03 @071   ----------------------------------------
 .byte   PATT
  .word Label_01541189
@  #03 @072   ----------------------------------------
 .byte   GOTO
  .word Label_01540E7E
 .byte   FINE

@**************** Track 4 (Midi-Chn.3) ****************@

CallingThatDetestableName_004:
@  #04 @000   ----------------------------------------
 .byte   KEYSH , CallingThatDetestableName_key+0
Label_0153EB5E:
 .byte   VOICE , 38
 .byte   VOL , 46*CallingThatDetestableName_mvl/mxv
 .byte   PAN , c_v+0
 .byte   N11 ,En0 ,v080
 .byte   W12
 .byte   Gn0
 .byte   W12
 .byte   Bn0
 .byte   W12
 .byte   En0
 .byte   W12
 .byte   Gn0
 .byte   W12
 .byte   An0
 .byte   W12
 .byte   En0
 .byte   W12
 .byte   Gn0
 .byte   W12
@  #04 @001   ----------------------------------------
Label_0153EB76:
 .byte   N11 ,Bn0 ,v080
 .byte   W12
 .byte   En0
 .byte   W12
 .byte   Gn0
 .byte   W12
 .byte   An0
 .byte   W12
 .byte   En0
 .byte   W12
 .byte   Gn0
 .byte   W12
 .byte   N23 ,Cn1
 .byte   W24
 .byte   PEND 
@  #04 @002   ----------------------------------------
Label_0153EB88:
 .byte   N11 ,En0 ,v080
 .byte   W12
 .byte   Gn0
 .byte   W12
 .byte   Bn0
 .byte   W12
 .byte   En0
 .byte   W12
 .byte   Gn0
 .byte   W12
 .byte   An0
 .byte   W12
 .byte   En0
 .byte   W12
 .byte   Gn0
 .byte   W12
 .byte   PEND 
@  #04 @003   ----------------------------------------
Label_0153EB9B:
 .byte   N11 ,Bn0 ,v080
 .byte   W12
 .byte   En0
 .byte   W12
 .byte   Gn0
 .byte   W12
 .byte   An0
 .byte   W12
 .byte   En0
 .byte   W12
 .byte   Gn0
 .byte   W12
 .byte   N23 ,Dn1
 .byte   W24
 .byte   PEND 
@  #04 @004   ----------------------------------------
 .byte   PATT
  .word Label_0153EB88
@  #04 @005   ----------------------------------------
 .byte   PATT
  .word Label_0153EB76
@  #04 @006   ----------------------------------------
 .byte   PATT
  .word Label_0153EB88
@  #04 @007   ----------------------------------------
 .byte   PATT
  .word Label_0153EB9B
@  #04 @008   ----------------------------------------
 .byte   PATT
  .word Label_0153EB88
@  #04 @009   ----------------------------------------
 .byte   PATT
  .word Label_0153EB76
@  #04 @010   ----------------------------------------
 .byte   PATT
  .word Label_0153EB88
@  #04 @011   ----------------------------------------
 .byte   PATT
  .word Label_0153EB9B
@  #04 @012   ----------------------------------------
 .byte   PATT
  .word Label_0153EB88
@  #04 @013   ----------------------------------------
 .byte   PATT
  .word Label_0153EB76
@  #04 @014   ----------------------------------------
 .byte   PATT
  .word Label_0153EB88
@  #04 @015   ----------------------------------------
 .byte   PATT
  .word Label_0153EB9B
@  #04 @016   ----------------------------------------
 .byte   PATT
  .word Label_0153EB88
@  #04 @017   ----------------------------------------
 .byte   PATT
  .word Label_0153EB76
@  #04 @018   ----------------------------------------
 .byte   PATT
  .word Label_0153EB88
@  #04 @019   ----------------------------------------
 .byte   PATT
  .word Label_0153EB9B
@  #04 @020   ----------------------------------------
 .byte   PATT
  .word Label_0153EB88
@  #04 @021   ----------------------------------------
 .byte   PATT
  .word Label_0153EB76
@  #04 @022   ----------------------------------------
 .byte   PATT
  .word Label_0153EB88
@  #04 @023   ----------------------------------------
 .byte   PATT
  .word Label_0153EB9B
@  #04 @024   ----------------------------------------
 .byte   PATT
  .word Label_0153EB88
@  #04 @025   ----------------------------------------
 .byte   PATT
  .word Label_0153EB76
@  #04 @026   ----------------------------------------
 .byte   PATT
  .word Label_0153EB88
@  #04 @027   ----------------------------------------
 .byte   PATT
  .word Label_0153EB9B
@  #04 @028   ----------------------------------------
 .byte   PATT
  .word Label_0153EB88
@  #04 @029   ----------------------------------------
 .byte   PATT
  .word Label_0153EB76
@  #04 @030   ----------------------------------------
 .byte   PATT
  .word Label_0153EB88
@  #04 @031   ----------------------------------------
 .byte   PATT
  .word Label_0153EB9B
@  #04 @032   ----------------------------------------
Label_0153EC39:
 .byte   N12 ,Bn0 ,v080
 .byte   W12
 .byte   N15 ,Bn1
 .byte   W12
 .byte   N11 ,Bn0
 .byte   W12
 .byte   N12 ,Bn1
 .byte   W12
 .byte   Bn0
 .byte   W12
 .byte   N14 ,Bn1
 .byte   W12
 .byte   N12 ,Bn0
 .byte   W12
 .byte   N09 ,Bn1
 .byte   W12
 .byte   PEND 
@  #04 @033   ----------------------------------------
Label_0153EC52:
 .byte   N14 ,As0 ,v080
 .byte   W12
 .byte   As1
 .byte   W12
 .byte   As0
 .byte   W12
 .byte   N13 ,As1
 .byte   W12
 .byte   As0
 .byte   W12
 .byte   N14 ,As1
 .byte   W12
 .byte   N13 ,As0
 .byte   W12
 .byte   N09 ,As1
 .byte   W12
 .byte   PEND 
@  #04 @034   ----------------------------------------
Label_0153EC69:
 .byte   N14 ,An0 ,v080
 .byte   W12
 .byte   An1
 .byte   W12
 .byte   N11 ,An0
 .byte   W12
 .byte   N13 ,An1
 .byte   W12
 .byte   N12 ,An0
 .byte   W12
 .byte   An1
 .byte   W12
 .byte   N11 ,An0
 .byte   W12
 .byte   N10 ,An1
 .byte   W12
 .byte   PEND 
@  #04 @035   ----------------------------------------
Label_0153EC81:
 .byte   N15 ,As0 ,v080
 .byte   W12
 .byte   N14 ,As1
 .byte   W12
 .byte   N12 ,As0
 .byte   W12
 .byte   N14 ,As1
 .byte   W12
 .byte   N13 ,As0
 .byte   W12
 .byte   N14 ,As1
 .byte   W12
 .byte   N15 ,As0
 .byte   W12
 .byte   N12 ,As1
 .byte   W12
 .byte   PEND 
@  #04 @036   ----------------------------------------
 .byte   PATT
  .word Label_0153EC39
@  #04 @037   ----------------------------------------
 .byte   PATT
  .word Label_0153EC52
@  #04 @038   ----------------------------------------
 .byte   PATT
  .word Label_0153EC69
@  #04 @039   ----------------------------------------
 .byte   PATT
  .word Label_0153EC81
@  #04 @040   ----------------------------------------
 .byte   PATT
  .word Label_0153EC39
@  #04 @041   ----------------------------------------
 .byte   PATT
  .word Label_0153EC52
@  #04 @042   ----------------------------------------
 .byte   PATT
  .word Label_0153EC69
@  #04 @043   ----------------------------------------
 .byte   PATT
  .word Label_0153EC81
@  #04 @044   ----------------------------------------
 .byte   PATT
  .word Label_0153EC39
@  #04 @045   ----------------------------------------
 .byte   PATT
  .word Label_0153EC52
@  #04 @046   ----------------------------------------
 .byte   PATT
  .word Label_0153EC69
@  #04 @047   ----------------------------------------
 .byte   PATT
  .word Label_0153EC81
@  #04 @048   ----------------------------------------
Label_0153ECD7:
 .byte   N11 ,Cn1 ,v080
 .byte   W12
 .byte   Ds1
 .byte   W12
 .byte   Gn1
 .byte   W12
 .byte   Cn1
 .byte   W12
 .byte   Ds1
 .byte   W12
 .byte   Fn1
 .byte   W12
 .byte   Cn1
 .byte   W12
 .byte   Ds1
 .byte   W12
 .byte   PEND 
@  #04 @049   ----------------------------------------
Label_0153ECEA:
 .byte   N11 ,Gn1 ,v080
 .byte   W12
 .byte   Cn1
 .byte   W12
 .byte   Ds1
 .byte   W12
 .byte   Fn1
 .byte   W12
 .byte   Cn1
 .byte   W12
 .byte   Ds1
 .byte   W12
 .byte   N23 ,Gs1
 .byte   W24
 .byte   PEND 
@  #04 @050   ----------------------------------------
 .byte   PATT
  .word Label_0153ECD7
@  #04 @051   ----------------------------------------
Label_0153ED01:
 .byte   N11 ,Gn1 ,v080
 .byte   W12
 .byte   Cn1
 .byte   W12
 .byte   Ds1
 .byte   W12
 .byte   Fn1
 .byte   W12
 .byte   Cn1
 .byte   W12
 .byte   Ds1
 .byte   W12
 .byte   N23 ,As1
 .byte   W24
 .byte   PEND 
@  #04 @052   ----------------------------------------
 .byte   PATT
  .word Label_0153ECD7
@  #04 @053   ----------------------------------------
 .byte   PATT
  .word Label_0153ECEA
@  #04 @054   ----------------------------------------
 .byte   PATT
  .word Label_0153ECD7
@  #04 @055   ----------------------------------------
 .byte   PATT
  .word Label_0153ED01
@  #04 @056   ----------------------------------------
Label_0153ED27:
 .byte   N11 ,An0 ,v080
 .byte   W12
 .byte   Cn1
 .byte   W12
 .byte   En1
 .byte   W12
 .byte   An0
 .byte   W12
 .byte   Cn1
 .byte   W12
 .byte   Dn1
 .byte   W12
 .byte   An0
 .byte   W12
 .byte   Cn1
 .byte   W12
 .byte   PEND 
@  #04 @057   ----------------------------------------
Label_0153ED3A:
 .byte   N11 ,En1 ,v080
 .byte   W12
 .byte   An0
 .byte   W12
 .byte   Cn1
 .byte   W12
 .byte   Dn1
 .byte   W12
 .byte   An0
 .byte   W12
 .byte   Cn1
 .byte   W12
 .byte   N23 ,Fn1
 .byte   W24
 .byte   PEND 
@  #04 @058   ----------------------------------------
 .byte   PATT
  .word Label_0153ED27
@  #04 @059   ----------------------------------------
Label_0153ED51:
 .byte   N11 ,En1 ,v080
 .byte   W12
 .byte   An0
 .byte   W12
 .byte   Cn1
 .byte   W12
 .byte   Dn1
 .byte   W12
 .byte   An0
 .byte   W12
 .byte   Cn1
 .byte   W12
 .byte   N23 ,Gn1
 .byte   W24
 .byte   PEND 
@  #04 @060   ----------------------------------------
 .byte   PATT
  .word Label_0153ED27
@  #04 @061   ----------------------------------------
 .byte   PATT
  .word Label_0153ED3A
@  #04 @062   ----------------------------------------
 .byte   PATT
  .word Label_0153ED27
@  #04 @063   ----------------------------------------
 .byte   PATT
  .word Label_0153ED51
@  #04 @064   ----------------------------------------
Label_0153ED77:
 .byte   N11 ,Fn0 ,v080
 .byte   W12
 .byte   Gs0
 .byte   W12
 .byte   Cn1
 .byte   W12
 .byte   Fn0
 .byte   W12
 .byte   Gs0
 .byte   W12
 .byte   As0
 .byte   W12
 .byte   Fn0
 .byte   W12
 .byte   Gs0
 .byte   W12
 .byte   PEND 
@  #04 @065   ----------------------------------------
Label_0153ED8A:
 .byte   N11 ,Cn1 ,v080
 .byte   W12
 .byte   Fn0
 .byte   W12
 .byte   Gs0
 .byte   W12
 .byte   As0
 .byte   W12
 .byte   Fn0
 .byte   W12
 .byte   Gs0
 .byte   W12
 .byte   N23 ,Cs1
 .byte   W24
 .byte   PEND 
@  #04 @066   ----------------------------------------
 .byte   PATT
  .word Label_0153ED77
@  #04 @067   ----------------------------------------
Label_0153EDA1:
 .byte   N11 ,Cn1 ,v080
 .byte   W12
 .byte   Fn0
 .byte   W12
 .byte   Gs0
 .byte   W12
 .byte   As0
 .byte   W12
 .byte   Fn0
 .byte   W12
 .byte   Gs0
 .byte   W12
 .byte   N23 ,Ds1
 .byte   W24
 .byte   PEND 
@  #04 @068   ----------------------------------------
 .byte   PATT
  .word Label_0153ED77
@  #04 @069   ----------------------------------------
 .byte   PATT
  .word Label_0153ED8A
@  #04 @070   ----------------------------------------
 .byte   PATT
  .word Label_0153ED77
@  #04 @071   ----------------------------------------
 .byte   PATT
  .word Label_0153EDA1
@  #04 @072   ----------------------------------------
 .byte   GOTO
  .word Label_0153EB5E
 .byte   FINE

@**************** Track 5 (Midi-Chn.4) ****************@

CallingThatDetestableName_005:
@  #05 @000   ----------------------------------------
 .byte   KEYSH , CallingThatDetestableName_key+0
Label_0153F172:
 .byte   VOICE , 28
 .byte   VOL , 65*CallingThatDetestableName_mvl/mxv
 .byte   PAN , c_v+0
 .byte   W96
@  #05 @001   ----------------------------------------
 .byte   W96
@  #05 @002   ----------------------------------------
 .byte   W96
@  #05 @003   ----------------------------------------
 .byte   W96
@  #05 @004   ----------------------------------------
 .byte   W96
@  #05 @005   ----------------------------------------
 .byte   W96
@  #05 @006   ----------------------------------------
 .byte   W96
@  #05 @007   ----------------------------------------
 .byte   W96
@  #05 @008   ----------------------------------------
 .byte   W96
@  #05 @009   ----------------------------------------
 .byte   W96
@  #05 @010   ----------------------------------------
 .byte   W96
@  #05 @011   ----------------------------------------
 .byte   W96
@  #05 @012   ----------------------------------------
 .byte   W96
@  #05 @013   ----------------------------------------
 .byte   W96
@  #05 @014   ----------------------------------------
 .byte   W96
@  #05 @015   ----------------------------------------
 .byte   W96
@  #05 @016   ----------------------------------------
 .byte   W96
@  #05 @017   ----------------------------------------
 .byte   W96
@  #05 @018   ----------------------------------------
 .byte   W96
@  #05 @019   ----------------------------------------
 .byte   W96
@  #05 @020   ----------------------------------------
 .byte   W96
@  #05 @021   ----------------------------------------
 .byte   W96
@  #05 @022   ----------------------------------------
 .byte   W96
@  #05 @023   ----------------------------------------
 .byte   W96
@  #05 @024   ----------------------------------------
 .byte   W96
@  #05 @025   ----------------------------------------
 .byte   W96
@  #05 @026   ----------------------------------------
 .byte   W96
@  #05 @027   ----------------------------------------
 .byte   W96
@  #05 @028   ----------------------------------------
 .byte   W96
@  #05 @029   ----------------------------------------
 .byte   W96
@  #05 @030   ----------------------------------------
 .byte   W96
@  #05 @031   ----------------------------------------
 .byte   W96
@  #05 @032   ----------------------------------------
Label_0153F198:
 .byte   N19 ,Fs3 ,v060
 .byte   W12
 .byte   N14 ,Bn3
 .byte   W12
 .byte   N13 ,Ds4
 .byte   W12
 .byte   Bn3
 .byte   W12
 .byte   N15 ,Fn4
 .byte   W12
 .byte   N11 ,Bn3
 .byte   W12
 .byte   N16 ,Fs4
 .byte   W12
 .byte   N12 ,Bn3
 .byte   W12
 .byte   PEND 
@  #05 @033   ----------------------------------------
Label_0153F1B1:
 .byte   N14 ,Fs3 ,v060
 .byte   W12
 .byte   N13 ,As3
 .byte   W12
 .byte   N12 ,Ds4
 .byte   W12
 .byte   N13 ,As3
 .byte   W12
 .byte   Fn4
 .byte   W12
 .byte   N14 ,As3
 .byte   W12
 .byte   Fs4
 .byte   W12
 .byte   N11 ,As3
 .byte   W12
 .byte   PEND 
@  #05 @034   ----------------------------------------
Label_0153F1C9:
 .byte   N16 ,Fs3 ,v060
 .byte   W12
 .byte   N13 ,An3
 .byte   W12
 .byte   N12 ,Ds4
 .byte   W12
 .byte   N14 ,An3
 .byte   W12
 .byte   N12 ,Fn4
 .byte   W12
 .byte   N13 ,An3
 .byte   W12
 .byte   N15 ,Fs4
 .byte   W12
 .byte   N11 ,An3
 .byte   W12
 .byte   PEND 
@  #05 @035   ----------------------------------------
Label_0153F1E3:
 .byte   N16 ,Fs3 ,v060
 .byte   W12
 .byte   N13 ,As3
 .byte   W12
 .byte   N12 ,Ds4
 .byte   W12
 .byte   N15 ,As3
 .byte   W12
 .byte   N12 ,Fn4
 .byte   W12
 .byte   N14 ,As3
 .byte   W12
 .byte   N13 ,Fs4
 .byte   W12
 .byte   N07 ,As3
 .byte   W12
 .byte   PEND 
@  #05 @036   ----------------------------------------
 .byte   PATT
  .word Label_0153F198
@  #05 @037   ----------------------------------------
 .byte   PATT
  .word Label_0153F1B1
@  #05 @038   ----------------------------------------
 .byte   PATT
  .word Label_0153F1C9
@  #05 @039   ----------------------------------------
 .byte   PATT
  .word Label_0153F1E3
@  #05 @040   ----------------------------------------
 .byte   PATT
  .word Label_0153F198
@  #05 @041   ----------------------------------------
 .byte   PATT
  .word Label_0153F1B1
@  #05 @042   ----------------------------------------
 .byte   PATT
  .word Label_0153F1C9
@  #05 @043   ----------------------------------------
 .byte   PATT
  .word Label_0153F1E3
@  #05 @044   ----------------------------------------
 .byte   PATT
  .word Label_0153F198
@  #05 @045   ----------------------------------------
 .byte   PATT
  .word Label_0153F1B1
@  #05 @046   ----------------------------------------
 .byte   PATT
  .word Label_0153F1C9
@  #05 @047   ----------------------------------------
 .byte   PATT
  .word Label_0153F1E3
@  #05 @048   ----------------------------------------
 .byte   W96
@  #05 @049   ----------------------------------------
 .byte   W96
@  #05 @050   ----------------------------------------
 .byte   W96
@  #05 @051   ----------------------------------------
 .byte   W96
@  #05 @052   ----------------------------------------
 .byte   W96
@  #05 @053   ----------------------------------------
 .byte   W96
@  #05 @054   ----------------------------------------
 .byte   W96
@  #05 @055   ----------------------------------------
 .byte   W96
@  #05 @056   ----------------------------------------
 .byte   W96
@  #05 @057   ----------------------------------------
 .byte   W96
@  #05 @058   ----------------------------------------
 .byte   W96
@  #05 @059   ----------------------------------------
 .byte   W96
@  #05 @060   ----------------------------------------
 .byte   W96
@  #05 @061   ----------------------------------------
 .byte   W96
@  #05 @062   ----------------------------------------
 .byte   W96
@  #05 @063   ----------------------------------------
 .byte   W96
@  #05 @064   ----------------------------------------
 .byte   W02
 .byte   N80 ,Gs3 ,v072
 .byte   W01
 .byte   Fn3
 .byte   W92
 .byte   W01
@  #05 @065   ----------------------------------------
 .byte   N05 ,As3
 .byte   W06
 .byte   Gs3
 .byte   W06
 .byte   Gn3
 .byte   W06
 .byte   Fn3
 .byte   W06
 .byte   Gs3
 .byte   W06
 .byte   Gn3
 .byte   W06
 .byte   Fn3
 .byte   W06
 .byte   Ds3
 .byte   W06
 .byte   As3
 .byte   W06
 .byte   Gs3
 .byte   W06
 .byte   Gn3
 .byte   W06
 .byte   Fn3
 .byte   W06
 .byte   Cn4
 .byte   W06
 .byte   As3
 .byte   W06
 .byte   Gs3
 .byte   W06
 .byte   Gn3
 .byte   W06
@  #05 @066   ----------------------------------------
 .byte   Dn4
 .byte   W06
 .byte   Cn4
 .byte   W06
 .byte   As3
 .byte   W06
 .byte   Cn4
 .byte   W06
 .byte   Gn3
 .byte   W06
 .byte   Fn3
 .byte   W06
 .byte   Ds3
 .byte   W06
 .byte   Fn3
 .byte   W06
 .byte   Dn4
 .byte   W06
 .byte   Cn4
 .byte   W06
 .byte   As3
 .byte   W06
 .byte   Cn4
 .byte   W06
 .byte   Gn4
 .byte   W06
 .byte   Fn4
 .byte   W06
 .byte   Ds4
 .byte   W06
 .byte   Fn4
 .byte   W06
@  #05 @067   ----------------------------------------
 .byte   As4
 .byte   W06
 .byte   Gs4
 .byte   W06
 .byte   Gn4
 .byte   W06
 .byte   Gs4
 .byte   W06
 .byte   Gn4
 .byte   W06
 .byte   Fn4
 .byte   W06
 .byte   Ds4
 .byte   W06
 .byte   Fn4
 .byte   W06
 .byte   As4
 .byte   W06
 .byte   Gs4
 .byte   W06
 .byte   Gn4
 .byte   W06
 .byte   Gs4
 .byte   W06
 .byte   Dn5
 .byte   W06
 .byte   Cn5
 .byte   W06
 .byte   As4
 .byte   W06
 .byte   Cn5
 .byte   W06
@  #05 @068   ----------------------------------------
 .byte   As4
 .byte   W06
 .byte   Gn4
 .byte   W06
 .byte   Fn4
 .byte   W06
 .byte   Gn4
 .byte   W06
 .byte   Gs4
 .byte   W06
 .byte   Gn4
 .byte   W06
 .byte   Fn4
 .byte   W06
 .byte   Ds4
 .byte   W06
 .byte   Gn4
 .byte   W06
 .byte   Fn4
 .byte   W06
 .byte   Ds4
 .byte   W06
 .byte   Fn4
 .byte   W06
 .byte   Gs4
 .byte   W06
 .byte   Fn4
 .byte   W06
 .byte   Ds4
 .byte   W06
 .byte   Dn4
 .byte   W06
@  #05 @069   ----------------------------------------
 .byte   Fn4
 .byte   W06
 .byte   Ds4
 .byte   W06
 .byte   Dn4
 .byte   W06
 .byte   Cn4
 .byte   W06
 .byte   Ds4
 .byte   W06
 .byte   Dn4
 .byte   W06
 .byte   Cn4
 .byte   W06
 .byte   As3
 .byte   W06
 .byte   Dn4
 .byte   W06
 .byte   Cn4
 .byte   W06
 .byte   As3
 .byte   W06
 .byte   Gs3
 .byte   W06
 .byte   Cn4
 .byte   W06
 .byte   As3
 .byte   W06
 .byte   Gs3
 .byte   W06
 .byte   Gn3
 .byte   W06
@  #05 @070   ----------------------------------------
 .byte   As3
 .byte   W06
 .byte   Gs3
 .byte   W06
 .byte   Gn3
 .byte   W06
 .byte   Gs3
 .byte   W06
 .byte   Fn3
 .byte   W06
 .byte   Ds3
 .byte   W06
 .byte   Dn3
 .byte   W06
 .byte   Ds3
 .byte   W06
 .byte   Dn3
 .byte   W06
 .byte   Cn3
 .byte   W06
 .byte   As2
 .byte   W06
 .byte   Cn3
 .byte   W06
 .byte   Dn3
 .byte   W06
 .byte   Ds3
 .byte   W06
 .byte   Fn3
 .byte   W06
 .byte   Gn3
 .byte   W06
@  #05 @071   ----------------------------------------
 .byte   As3
 .byte   W06
 .byte   Gs3
 .byte   W06
 .byte   Gn3
 .byte   W06
 .byte   Gs3
 .byte   W06
 .byte   Cn4
 .byte   W06
 .byte   As3
 .byte   W06
 .byte   Gs3
 .byte   W06
 .byte   As3
 .byte   W06
 .byte   Dn4
 .byte   W06
 .byte   Cn4
 .byte   W06
 .byte   Dn4
 .byte   W06
 .byte   Ds4
 .byte   W06
 .byte   Fn4
 .byte   W06
 .byte   Ds4
 .byte   W06
 .byte   Fn4
 .byte   W06
 .byte   Gn4
 .byte   W06
@  #05 @072   ----------------------------------------
 .byte   GOTO
  .word Label_0153F172
 .byte   FINE

@**************** Track 6 (Midi-Chn.5) ****************@

CallingThatDetestableName_006:
@  #06 @000   ----------------------------------------
 .byte   KEYSH , CallingThatDetestableName_key+0
Label_0153F996:
 .byte   VOICE , 30
 .byte   VOL , 50*CallingThatDetestableName_mvl/mxv
 .byte   PAN , c_v+0
 .byte   W96
@  #06 @001   ----------------------------------------
 .byte   W96
@  #06 @002   ----------------------------------------
 .byte   W96
@  #06 @003   ----------------------------------------
 .byte   W96
@  #06 @004   ----------------------------------------
 .byte   W96
@  #06 @005   ----------------------------------------
 .byte   W96
@  #06 @006   ----------------------------------------
 .byte   W96
@  #06 @007   ----------------------------------------
 .byte   W96
@  #06 @008   ----------------------------------------
 .byte   W96
@  #06 @009   ----------------------------------------
Label_0153F9A5:
 .byte   N06 ,Gn3 ,v068
 .byte   N05 ,Bn3 ,v080
 .byte   W36
 .byte   N07 ,Gn3 ,v072
 .byte   N06 ,As3 ,v060
 .byte   W36
 .byte   Gn3 ,v072
 .byte   N06 ,Cn4 ,v076
 .byte   W24
 .byte   PEND 
@  #06 @010   ----------------------------------------
 .byte   W96
@  #06 @011   ----------------------------------------
Label_0153F9BB:
 .byte   N06 ,Gn3 ,v072
 .byte   N06 ,Bn3
 .byte   W36
 .byte   Gn3 ,v064
 .byte   N06 ,As3 ,v068
 .byte   W36
 .byte   Gn3 ,v076
 .byte   N05 ,Bn3 ,v064
 .byte   W24
 .byte   PEND 
@  #06 @012   ----------------------------------------
 .byte   W96
@  #06 @013   ----------------------------------------
 .byte   PATT
  .word Label_0153F9A5
@  #06 @014   ----------------------------------------
 .byte   W96
@  #06 @015   ----------------------------------------
 .byte   PATT
  .word Label_0153F9BB
@  #06 @016   ----------------------------------------
 .byte   W96
@  #06 @017   ----------------------------------------
 .byte   PATT
  .word Label_0153F9A5
@  #06 @018   ----------------------------------------
 .byte   W96
@  #06 @019   ----------------------------------------
 .byte   PATT
  .word Label_0153F9BB
@  #06 @020   ----------------------------------------
 .byte   W96
@  #06 @021   ----------------------------------------
 .byte   PATT
  .word Label_0153F9A5
@  #06 @022   ----------------------------------------
 .byte   W96
@  #06 @023   ----------------------------------------
 .byte   PATT
  .word Label_0153F9BB
@  #06 @024   ----------------------------------------
 .byte   W96
@  #06 @025   ----------------------------------------
 .byte   W96
@  #06 @026   ----------------------------------------
 .byte   W96
@  #06 @027   ----------------------------------------
 .byte   W96
@  #06 @028   ----------------------------------------
 .byte   W96
@  #06 @029   ----------------------------------------
 .byte   W96
@  #06 @030   ----------------------------------------
 .byte   W96
@  #06 @031   ----------------------------------------
 .byte   W96
@  #06 @032   ----------------------------------------
 .byte   W96
@  #06 @033   ----------------------------------------
 .byte   W96
@  #06 @034   ----------------------------------------
 .byte   W96
@  #06 @035   ----------------------------------------
 .byte   W96
@  #06 @036   ----------------------------------------
 .byte   W96
@  #06 @037   ----------------------------------------
 .byte   W96
@  #06 @038   ----------------------------------------
 .byte   W96
@  #06 @039   ----------------------------------------
 .byte   W96
@  #06 @040   ----------------------------------------
Label_0153FA02:
 .byte   N44 ,Ds4 ,v072
 .byte   W48
 .byte   N11 ,Gs4
 .byte   W12
 .byte   Fs4
 .byte   W12
 .byte   Fn4
 .byte   W12
 .byte   Ds4
 .byte   W12
 .byte   PEND 
@  #06 @041   ----------------------------------------
Label_0153FA10:
 .byte   N52 ,Ds4 ,v072
 .byte   W48
 .byte   N11 ,Gs4
 .byte   W12
 .byte   Fs4
 .byte   W12
 .byte   Fn4
 .byte   W12
 .byte   Ds4
 .byte   W12
 .byte   PEND 
@  #06 @042   ----------------------------------------
 .byte   PATT
  .word Label_0153FA02
@  #06 @043   ----------------------------------------
 .byte   N32 ,Ds4 ,v072
 .byte   W36
 .byte   Dn4
 .byte   W36
 .byte   N23 ,Fn4
 .byte   W24
@  #06 @044   ----------------------------------------
 .byte   PATT
  .word Label_0153FA02
@  #06 @045   ----------------------------------------
 .byte   PATT
  .word Label_0153FA10
@  #06 @046   ----------------------------------------
 .byte   PATT
  .word Label_0153FA02
@  #06 @047   ----------------------------------------
 .byte   N11 ,Dn4 ,v072
 .byte   W12
 .byte   Fn4
 .byte   W12
 .byte   Ds4
 .byte   W12
 .byte   Fs4
 .byte   W12
 .byte   As4
 .byte   W12
 .byte   Gs4
 .byte   W12
 .byte   Fs4
 .byte   W12
 .byte   Gs4
 .byte   W12
@  #06 @048   ----------------------------------------
 .byte   N92 ,Cn5 ,v076
 .byte   W96
@  #06 @049   ----------------------------------------
 .byte   N05
 .byte   W06
 .byte   As4
 .byte   W06
 .byte   Gs4
 .byte   W06
 .byte   As4
 .byte   W06
 .byte   Cn5
 .byte   W06
 .byte   As4
 .byte   W06
 .byte   Gs4
 .byte   W06
 .byte   As4
 .byte   W06
 .byte   Cn5
 .byte   W06
 .byte   As4
 .byte   W06
 .byte   Gs4
 .byte   W06
 .byte   As4
 .byte   W06
 .byte   Cn5
 .byte   W06
 .byte   As4
 .byte   W06
 .byte   Gs4
 .byte   W06
 .byte   As4
 .byte   W06
@  #06 @050   ----------------------------------------
 .byte   N11 ,Cn5
 .byte   W12
 .byte   Gn4
 .byte   W12
 .byte   As4
 .byte   W12
 .byte   Fn4
 .byte   W12
 .byte   Gn4
 .byte   W12
 .byte   Ds4
 .byte   W12
 .byte   Fn4
 .byte   W12
 .byte   Dn4
 .byte   W12
@  #06 @051   ----------------------------------------
 .byte   Ds4
 .byte   W12
 .byte   Cn4
 .byte   W12
 .byte   Dn4
 .byte   W12
 .byte   As3
 .byte   W12
 .byte   Cn4
 .byte   W12
 .byte   Gn3
 .byte   W12
 .byte   As3
 .byte   W12
 .byte   Dn4
 .byte   W12
@  #06 @052   ----------------------------------------
 .byte   N05 ,Ds4
 .byte   W06
 .byte   Dn4
 .byte   W06
 .byte   Cn4
 .byte   W06
 .byte   Dn4
 .byte   W06
 .byte   Ds4
 .byte   W06
 .byte   Dn4
 .byte   W06
 .byte   Cn4
 .byte   W06
 .byte   Dn4
 .byte   W06
 .byte   Ds4
 .byte   W06
 .byte   Dn4
 .byte   W06
 .byte   Cn4
 .byte   W06
 .byte   Dn4
 .byte   W06
 .byte   Fn4
 .byte   W06
 .byte   Ds4
 .byte   W06
 .byte   Dn4
 .byte   W06
 .byte   Cn4
 .byte   W06
@  #06 @053   ----------------------------------------
 .byte   Ds4
 .byte   W06
 .byte   Dn4
 .byte   W06
 .byte   Cn4
 .byte   W06
 .byte   Dn4
 .byte   W06
 .byte   Ds4
 .byte   W06
 .byte   Dn4
 .byte   W06
 .byte   Cn4
 .byte   W06
 .byte   Dn4
 .byte   W06
 .byte   Ds4
 .byte   W06
 .byte   Dn4
 .byte   W06
 .byte   Cn4
 .byte   W06
 .byte   Dn4
 .byte   W06
 .byte   Gn4
 .byte   W06
 .byte   Fn4
 .byte   W06
 .byte   Ds4
 .byte   W06
 .byte   Dn4
 .byte   W06
@  #06 @054   ----------------------------------------
 .byte   Ds4
 .byte   W06
 .byte   Dn4
 .byte   W06
 .byte   Cn4
 .byte   W06
 .byte   Dn4
 .byte   W06
 .byte   Fn4
 .byte   W06
 .byte   Ds4
 .byte   W06
 .byte   Dn4
 .byte   W06
 .byte   Cn4
 .byte   W06
 .byte   Ds4
 .byte   W06
 .byte   Dn4
 .byte   W06
 .byte   Cn4
 .byte   W06
 .byte   Dn4
 .byte   W06
 .byte   Gn4
 .byte   W06
 .byte   Fn4
 .byte   W06
 .byte   Ds4
 .byte   W06
 .byte   Dn4
 .byte   W06
@  #06 @055   ----------------------------------------
 .byte   Gs4
 .byte   W06
 .byte   Gn4
 .byte   W06
 .byte   Fn4
 .byte   W06
 .byte   Ds4
 .byte   W06
 .byte   As4
 .byte   W06
 .byte   Gs4
 .byte   W06
 .byte   Gn4
 .byte   W06
 .byte   Fn4
 .byte   W06
 .byte   Cn5
 .byte   W06
 .byte   As4
 .byte   W06
 .byte   Gs4
 .byte   W06
 .byte   Gn4
 .byte   W06
 .byte   Dn5
 .byte   W06
 .byte   Cn5
 .byte   W06
 .byte   As4
 .byte   W06
 .byte   Cn5
 .byte   W06
@  #06 @056   ----------------------------------------
 .byte   W96
@  #06 @057   ----------------------------------------
 .byte   W96
@  #06 @058   ----------------------------------------
 .byte   W96
@  #06 @059   ----------------------------------------
 .byte   W96
@  #06 @060   ----------------------------------------
 .byte   W96
@  #06 @061   ----------------------------------------
 .byte   W96
@  #06 @062   ----------------------------------------
 .byte   W96
@  #06 @063   ----------------------------------------
 .byte   W96
@  #06 @064   ----------------------------------------
 .byte   W96
@  #06 @065   ----------------------------------------
 .byte   W96
@  #06 @066   ----------------------------------------
 .byte   W96
@  #06 @067   ----------------------------------------
 .byte   W96
@  #06 @068   ----------------------------------------
 .byte   W96
@  #06 @069   ----------------------------------------
 .byte   W96
@  #06 @070   ----------------------------------------
 .byte   W96
@  #06 @071   ----------------------------------------
 .byte   W96
@  #06 @072   ----------------------------------------
 .byte   GOTO
  .word Label_0153F996
 .byte   FINE

@**************** Track 7 (Midi-Chn.6) ****************@

CallingThatDetestableName_007:
@  #07 @000   ----------------------------------------
 .byte   KEYSH , CallingThatDetestableName_key+0
Label_0153EE16:
 .byte   VOICE , 18
 .byte   VOL , 30*CallingThatDetestableName_mvl/mxv
 .byte   PAN , c_v-61
 .byte   W96
@  #07 @001   ----------------------------------------
 .byte   W96
@  #07 @002   ----------------------------------------
 .byte   W96
@  #07 @003   ----------------------------------------
 .byte   W96
@  #07 @004   ----------------------------------------
 .byte   W96
@  #07 @005   ----------------------------------------
 .byte   W96
@  #07 @006   ----------------------------------------
 .byte   W96
@  #07 @007   ----------------------------------------
 .byte   W96
@  #07 @008   ----------------------------------------
 .byte   W96
@  #07 @009   ----------------------------------------
 .byte   W96
@  #07 @010   ----------------------------------------
 .byte   W96
@  #07 @011   ----------------------------------------
 .byte   W96
@  #07 @012   ----------------------------------------
 .byte   W96
@  #07 @013   ----------------------------------------
 .byte   W96
@  #07 @014   ----------------------------------------
 .byte   W96
@  #07 @015   ----------------------------------------
 .byte   W96
@  #07 @016   ----------------------------------------
 .byte   W96
@  #07 @017   ----------------------------------------
 .byte   W96
@  #07 @018   ----------------------------------------
 .byte   W96
@  #07 @019   ----------------------------------------
 .byte   W96
@  #07 @020   ----------------------------------------
 .byte   W96
@  #07 @021   ----------------------------------------
 .byte   W96
@  #07 @022   ----------------------------------------
 .byte   W96
@  #07 @023   ----------------------------------------
 .byte   W96
@  #07 @024   ----------------------------------------
 .byte   W96
@  #07 @025   ----------------------------------------
 .byte   W96
@  #07 @026   ----------------------------------------
 .byte   W96
@  #07 @027   ----------------------------------------
 .byte   W96
@  #07 @028   ----------------------------------------
 .byte   W96
@  #07 @029   ----------------------------------------
 .byte   W96
@  #07 @030   ----------------------------------------
 .byte   W96
@  #07 @031   ----------------------------------------
 .byte   W96
@  #07 @032   ----------------------------------------
 .byte   W96
@  #07 @033   ----------------------------------------
 .byte   W96
@  #07 @034   ----------------------------------------
 .byte   W96
@  #07 @035   ----------------------------------------
 .byte   W96
@  #07 @036   ----------------------------------------
 .byte   W96
@  #07 @037   ----------------------------------------
 .byte   W96
@  #07 @038   ----------------------------------------
 .byte   W96
@  #07 @039   ----------------------------------------
 .byte   W96
@  #07 @040   ----------------------------------------
 .byte   W96
@  #07 @041   ----------------------------------------
 .byte   W96
@  #07 @042   ----------------------------------------
 .byte   W96
@  #07 @043   ----------------------------------------
 .byte   W96
@  #07 @044   ----------------------------------------
 .byte   W96
@  #07 @045   ----------------------------------------
 .byte   W96
@  #07 @046   ----------------------------------------
 .byte   W96
@  #07 @047   ----------------------------------------
 .byte   W96
@  #07 @048   ----------------------------------------
 .byte   W11
 .byte   N92 ,Cn5 ,v076
 .byte   W84
 .byte   W01
@  #07 @049   ----------------------------------------
 .byte   W11
 .byte   N05
 .byte   W06
 .byte   As4
 .byte   W06
 .byte   Gs4
 .byte   W06
 .byte   As4
 .byte   W06
 .byte   Cn5
 .byte   W06
 .byte   As4
 .byte   W06
 .byte   Gs4
 .byte   W06
 .byte   As4
 .byte   W06
 .byte   Cn5
 .byte   W06
 .byte   As4
 .byte   W06
 .byte   Gs4
 .byte   W06
 .byte   As4
 .byte   W06
 .byte   Cn5
 .byte   W06
 .byte   As4
 .byte   W06
 .byte   Gs4
 .byte   W01
@  #07 @050   ----------------------------------------
 .byte   W05
 .byte   As4
 .byte   W06
 .byte   N11 ,Cn5
 .byte   W12
 .byte   Gn4
 .byte   W12
 .byte   As4
 .byte   W12
 .byte   Fn4
 .byte   W12
 .byte   Gn4
 .byte   W12
 .byte   Ds4
 .byte   W12
 .byte   Fn4
 .byte   W12
 .byte   Dn4
 .byte   W01
@  #07 @051   ----------------------------------------
 .byte   W11
 .byte   Ds4
 .byte   W12
 .byte   Cn4
 .byte   W12
 .byte   Dn4
 .byte   W12
 .byte   As3
 .byte   W12
 .byte   Cn4
 .byte   W12
 .byte   Gn3
 .byte   W12
 .byte   As3
 .byte   W12
 .byte   Dn4
 .byte   W01
@  #07 @052   ----------------------------------------
 .byte   W11
 .byte   N05 ,Ds4
 .byte   W06
 .byte   Dn4
 .byte   W06
 .byte   Cn4
 .byte   W06
 .byte   Dn4
 .byte   W06
 .byte   Ds4
 .byte   W06
 .byte   Dn4
 .byte   W06
 .byte   Cn4
 .byte   W06
 .byte   Dn4
 .byte   W06
 .byte   Ds4
 .byte   W06
 .byte   Dn4
 .byte   W06
 .byte   Cn4
 .byte   W06
 .byte   Dn4
 .byte   W06
 .byte   Fn4
 .byte   W06
 .byte   Ds4
 .byte   W06
 .byte   Dn4
 .byte   W01
@  #07 @053   ----------------------------------------
 .byte   W05
 .byte   Cn4
 .byte   W06
 .byte   Ds4
 .byte   W06
 .byte   Dn4
 .byte   W06
 .byte   Cn4
 .byte   W06
 .byte   Dn4
 .byte   W06
 .byte   Ds4
 .byte   W06
 .byte   Dn4
 .byte   W06
 .byte   Cn4
 .byte   W06
 .byte   Dn4
 .byte   W06
 .byte   Ds4
 .byte   W06
 .byte   Dn4
 .byte   W06
 .byte   Cn4
 .byte   W06
 .byte   Dn4
 .byte   W06
 .byte   Gn4
 .byte   W06
 .byte   Fn4
 .byte   W06
 .byte   Ds4
 .byte   W01
@  #07 @054   ----------------------------------------
 .byte   W05
 .byte   Dn4
 .byte   W06
 .byte   Ds4
 .byte   W06
 .byte   Dn4
 .byte   W06
 .byte   Cn4
 .byte   W06
 .byte   Dn4
 .byte   W06
 .byte   Fn4
 .byte   W06
 .byte   Ds4
 .byte   W06
 .byte   Dn4
 .byte   W06
 .byte   Cn4
 .byte   W06
 .byte   Ds4
 .byte   W06
 .byte   Dn4
 .byte   W06
 .byte   Cn4
 .byte   W06
 .byte   Dn4
 .byte   W06
 .byte   Gn4
 .byte   W06
 .byte   Fn4
 .byte   W06
 .byte   Ds4
 .byte   W01
@  #07 @055   ----------------------------------------
 .byte   W05
 .byte   Dn4
 .byte   W06
 .byte   Gs4
 .byte   W06
 .byte   Gn4
 .byte   W06
 .byte   Fn4
 .byte   W06
 .byte   Ds4
 .byte   W06
 .byte   As4
 .byte   W06
 .byte   Gs4
 .byte   W06
 .byte   Gn4
 .byte   W06
 .byte   Fn4
 .byte   W06
 .byte   Cn5
 .byte   W06
 .byte   As4
 .byte   W06
 .byte   Gs4
 .byte   W06
 .byte   Gn4
 .byte   W06
 .byte   Dn5
 .byte   W06
 .byte   Cn5
 .byte   W06
 .byte   As4
 .byte   W01
@  #07 @056   ----------------------------------------
 .byte   W05
 .byte   Cn5
 .byte   W90
 .byte   W01
@  #07 @057   ----------------------------------------
 .byte   W96
@  #07 @058   ----------------------------------------
 .byte   W96
@  #07 @059   ----------------------------------------
 .byte   W96
@  #07 @060   ----------------------------------------
 .byte   W96
@  #07 @061   ----------------------------------------
 .byte   W96
@  #07 @062   ----------------------------------------
 .byte   W96
@  #07 @063   ----------------------------------------
 .byte   W96
@  #07 @064   ----------------------------------------
 .byte   W13
 .byte   N80 ,Gs3 ,v072
 .byte   W01
 .byte   Fn3
 .byte   W80
 .byte   W02
@  #07 @065   ----------------------------------------
 .byte   W11
 .byte   N05 ,As3
 .byte   W06
 .byte   Gs3
 .byte   W06
 .byte   Gn3
 .byte   W06
 .byte   Fn3
 .byte   W06
 .byte   Gs3
 .byte   W06
 .byte   Gn3
 .byte   W06
 .byte   Fn3
 .byte   W06
 .byte   Ds3
 .byte   W06
 .byte   As3
 .byte   W06
 .byte   Gs3
 .byte   W06
 .byte   Gn3
 .byte   W06
 .byte   Fn3
 .byte   W06
 .byte   Cn4
 .byte   W06
 .byte   As3
 .byte   W06
 .byte   Gs3
 .byte   W01
@  #07 @066   ----------------------------------------
 .byte   W05
 .byte   Gn3
 .byte   W06
 .byte   Dn4
 .byte   W06
 .byte   Cn4
 .byte   W06
 .byte   As3
 .byte   W06
 .byte   Cn4
 .byte   W06
 .byte   Gn3
 .byte   W06
 .byte   Fn3
 .byte   W06
 .byte   Ds3
 .byte   W06
 .byte   Fn3
 .byte   W06
 .byte   Dn4
 .byte   W06
 .byte   Cn4
 .byte   W06
 .byte   As3
 .byte   W06
 .byte   Cn4
 .byte   W06
 .byte   Gn4
 .byte   W06
 .byte   Fn4
 .byte   W06
 .byte   Ds4
 .byte   W01
@  #07 @067   ----------------------------------------
 .byte   W05
 .byte   Fn4
 .byte   W06
 .byte   As4
 .byte   W06
 .byte   Gs4
 .byte   W06
 .byte   Gn4
 .byte   W06
 .byte   Gs4
 .byte   W06
 .byte   Gn4
 .byte   W06
 .byte   Fn4
 .byte   W06
 .byte   Ds4
 .byte   W06
 .byte   Fn4
 .byte   W06
 .byte   As4
 .byte   W06
 .byte   Gs4
 .byte   W06
 .byte   Gn4
 .byte   W06
 .byte   Gs4
 .byte   W06
 .byte   Dn5
 .byte   W06
 .byte   Cn5
 .byte   W06
 .byte   As4
 .byte   W01
@  #07 @068   ----------------------------------------
 .byte   W05
 .byte   Cn5
 .byte   W06
 .byte   As4
 .byte   W06
 .byte   Gn4
 .byte   W06
 .byte   Fn4
 .byte   W06
 .byte   Gn4
 .byte   W06
 .byte   Gs4
 .byte   W06
 .byte   Gn4
 .byte   W06
 .byte   Fn4
 .byte   W06
 .byte   Ds4
 .byte   W06
 .byte   Gn4
 .byte   W06
 .byte   Fn4
 .byte   W06
 .byte   Ds4
 .byte   W06
 .byte   Fn4
 .byte   W06
 .byte   Gs4
 .byte   W06
 .byte   Fn4
 .byte   W06
 .byte   Ds4
 .byte   W01
@  #07 @069   ----------------------------------------
 .byte   W05
 .byte   Dn4
 .byte   W06
 .byte   Fn4
 .byte   W06
 .byte   Ds4
 .byte   W06
 .byte   Dn4
 .byte   W06
 .byte   Cn4
 .byte   W06
 .byte   Ds4
 .byte   W06
 .byte   Dn4
 .byte   W06
 .byte   Cn4
 .byte   W06
 .byte   As3
 .byte   W06
 .byte   Dn4
 .byte   W06
 .byte   Cn4
 .byte   W06
 .byte   As3
 .byte   W06
 .byte   Gs3
 .byte   W06
 .byte   Cn4
 .byte   W06
 .byte   As3
 .byte   W06
 .byte   Gs3
 .byte   W01
@  #07 @070   ----------------------------------------
 .byte   W05
 .byte   Gn3
 .byte   W06
 .byte   As3
 .byte   W06
 .byte   Gs3
 .byte   W06
 .byte   Gn3
 .byte   W06
 .byte   Gs3
 .byte   W06
 .byte   Fn3
 .byte   W06
 .byte   Ds3
 .byte   W06
 .byte   Dn3
 .byte   W06
 .byte   Ds3
 .byte   W06
 .byte   Dn3
 .byte   W06
 .byte   Cn3
 .byte   W06
 .byte   As2
 .byte   W06
 .byte   Cn3
 .byte   W06
 .byte   Dn3
 .byte   W06
 .byte   Ds3
 .byte   W06
 .byte   Fn3
 .byte   W01
@  #07 @071   ----------------------------------------
 .byte   W05
 .byte   Gn3
 .byte   W06
 .byte   As3
 .byte   W06
 .byte   Gs3
 .byte   W06
 .byte   Gn3
 .byte   W06
 .byte   Gs3
 .byte   W06
 .byte   Cn4
 .byte   W06
 .byte   As3
 .byte   W06
 .byte   Gs3
 .byte   W06
 .byte   As3
 .byte   W06
 .byte   Dn4
 .byte   W06
 .byte   Cn4
 .byte   W06
 .byte   Dn4
 .byte   W06
 .byte   Ds4
 .byte   W06
 .byte   Fn4
 .byte   W06
 .byte   Ds4
 .byte   W06
 .byte   Fn4
 .byte   W01
@  #07 @072   ----------------------------------------
 .byte   GOTO
  .word Label_0153EE16
@  #07 @073   ----------------------------------------
 .byte   W04
 .byte   FINE

@**************** Track 8 (Midi-Chn.7) ****************@

CallingThatDetestableName_008:
@  #08 @000   ----------------------------------------
 .byte   KEYSH , CallingThatDetestableName_key+0
Label_0154077A:
 .byte   VOICE , 30
 .byte   VOL , 56*CallingThatDetestableName_mvl/mxv
 .byte   PAN , c_v+0
 .byte   W96
@  #08 @001   ----------------------------------------
 .byte   W96
@  #08 @002   ----------------------------------------
 .byte   W96
@  #08 @003   ----------------------------------------
 .byte   W96
@  #08 @004   ----------------------------------------
 .byte   W96
@  #08 @005   ----------------------------------------
 .byte   W96
@  #08 @006   ----------------------------------------
 .byte   W96
@  #08 @007   ----------------------------------------
 .byte   W96
@  #08 @008   ----------------------------------------
 .byte   N11 ,Bn2 ,v072
 .byte   W12
 .byte   En3
 .byte   W12
 .byte   Gn3
 .byte   W12
 .byte   TIE ,Dn4
 .byte   W32
 .byte   W03
 .byte   W03
 .byte   W01
 .byte   W01
 .byte   W02
 .byte   W02
 .byte   W02
 .byte   W02
 .byte   W02
 .byte   W02
 .byte   W02
 .byte   W03
 .byte   W02
 .byte   W01
@  #08 @009   ----------------------------------------
Label_015407A1:
 .byte   W01
 .byte   W01
 .byte   W02
 .byte   W01
 .byte   W02
 .byte   W01
 .byte   W02
 .byte   W02
 .byte   W01
 .byte   W02
 .byte   W02
 .byte   W03
 .byte   W02
 .byte   W02
 .byte   W03
 .byte   W03
 .byte   W04
 .byte   W36
 .byte   W01
 .byte   PEND 
 .byte   EOT
 .byte   Dn4
 .byte   W09
 .byte   W03
 .byte   W01
 .byte   W01
 .byte   W01
 .byte   W01
 .byte   W01
 .byte   W08
@  #08 @010   ----------------------------------------
Label_015407BF:
 .byte   N11 ,Bn2 ,v072
 .byte   W12
 .byte   En3
 .byte   W12
 .byte   Gn3
 .byte   W12
 .byte   TIE ,Cs4
 .byte   W60
 .byte   PEND 
@  #08 @011   ----------------------------------------
Label_015407CB:
 .byte   W03
 .byte   W02
 .byte   W01
 .byte   W01
 .byte   W02
 .byte   W01
 .byte   W02
 .byte   W01
 .byte   W02
 .byte   W02
 .byte   W03
 .byte   W02
 .byte   W02
 .byte   W03
 .byte   W02
 .byte   W02
 .byte   W03
 .byte   W02
 .byte   W01
 .byte   W02
 .byte   W03
 .byte   W02
 .byte   W03
 .byte   W05
 .byte   W03
 .byte   W04
 .byte   W12
 .byte   PEND 
 .byte   EOT
 .byte   Cs4
 .byte   W11
 .byte   W01
 .byte   W01
 .byte   W01
 .byte   W01
 .byte   W01
 .byte   W01
 .byte   W01
 .byte   W07
@  #08 @012   ----------------------------------------
Label_015407F2:
 .byte   N11 ,Bn2 ,v072
 .byte   W12
 .byte   En3
 .byte   W12
 .byte   Gn3
 .byte   W12
 .byte   TIE ,Dn4
 .byte   W32
 .byte   W02
 .byte   W03
 .byte   W02
 .byte   W02
 .byte   W03
 .byte   W03
 .byte   W02
 .byte   W02
 .byte   W03
 .byte   W03
 .byte   W02
 .byte   W01
 .byte   PEND 
@  #08 @013   ----------------------------------------
Label_0154080A:
 .byte   W02
 .byte   W03
 .byte   W03
 .byte   W02
 .byte   W03
 .byte   W02
 .byte   W01
 .byte   W02
 .byte   W03
 .byte   W02
 .byte   W03
 .byte   W03
 .byte   W06
 .byte   W04
 .byte   W04
 .byte   W06
 .byte   W05
 .byte   W04
 .byte   W09
 .byte   W04
 .byte   PEND 
 .byte   EOT
 .byte   Dn4
 .byte   W06
 .byte   W09
 .byte   W01
 .byte   W01
 .byte   W01
 .byte   W01
 .byte   W01
 .byte   W01
 .byte   W04
@  #08 @014   ----------------------------------------
Label_0154082A:
 .byte   N11 ,Bn2 ,v072
 .byte   W12
 .byte   En3
 .byte   W12
 .byte   Gn3
 .byte   W12
 .byte   TIE ,As3
 .byte   W02
 .byte   W03
 .byte   W02
 .byte   W03
 .byte   W02
 .byte   W03
 .byte   W05
 .byte   W03
 .byte   W04
 .byte   W07
 .byte   W05
 .byte   W06
 .byte   W04
 .byte   W03
 .byte   W03
 .byte   W03
 .byte   W02
 .byte   PEND 
@  #08 @015   ----------------------------------------
Label_01540846:
 .byte   W01
 .byte   W03
 .byte   W02
 .byte   W02
 .byte   W03
 .byte   W02
 .byte   W03
 .byte   W03
 .byte   W03
 .byte   W05
 .byte   W04
 .byte   W05
 .byte   W32
 .byte   W03
 .byte   PEND 
 .byte   EOT
 .byte   As3
 .byte   W09
 .byte   W01
 .byte   W01
 .byte   W01
 .byte   W01
 .byte   W01
 .byte   W01
 .byte   W01
 .byte   W01
 .byte   W08
@  #08 @016   ----------------------------------------
 .byte   N11 ,Bn2 ,v072
 .byte   W12
 .byte   En3
 .byte   W12
 .byte   Gn3
 .byte   W12
 .byte   TIE ,Dn4
 .byte   W32
 .byte   W03
 .byte   W03
 .byte   W01
 .byte   W01
 .byte   W02
 .byte   W02
 .byte   W02
 .byte   W02
 .byte   W02
 .byte   W02
 .byte   W02
 .byte   W03
 .byte   W02
 .byte   W01
@  #08 @017   ----------------------------------------
 .byte   PATT
  .word Label_015407A1
@  #08 @018   ----------------------------------------
 .byte   EOT
 .byte   Dn4
 .byte   W09
 .byte   W03
 .byte   W01
 .byte   W01
 .byte   W01
 .byte   W01
 .byte   W01
 .byte   W08
@  #08 @019   ----------------------------------------
 .byte   PATT
  .word Label_015407BF
@  #08 @020   ----------------------------------------
 .byte   PATT
  .word Label_015407CB
@  #08 @021   ----------------------------------------
 .byte   EOT
 .byte   Cs4
 .byte   W11
 .byte   W01
 .byte   W01
 .byte   W01
 .byte   W01
 .byte   W01
 .byte   W01
 .byte   W01
 .byte   W07
@  #08 @022   ----------------------------------------
 .byte   PATT
  .word Label_015407F2
@  #08 @023   ----------------------------------------
 .byte   PATT
  .word Label_0154080A
@  #08 @024   ----------------------------------------
 .byte   EOT
 .byte   Dn4
 .byte   W06
 .byte   W09
 .byte   W01
 .byte   W01
 .byte   W01
 .byte   W01
 .byte   W01
 .byte   W01
 .byte   W04
@  #08 @025   ----------------------------------------
 .byte   PATT
  .word Label_0154082A
@  #08 @026   ----------------------------------------
 .byte   PATT
  .word Label_01540846
@  #08 @027   ----------------------------------------
 .byte   EOT
 .byte   As3
 .byte   W09
 .byte   W01
 .byte   W01
 .byte   W01
 .byte   W01
 .byte   W01
 .byte   W01
 .byte   W01
 .byte   W01
 .byte   W08
 .byte   W96
@  #08 @028   ----------------------------------------
 .byte   W96
@  #08 @029   ----------------------------------------
 .byte   W96
@  #08 @030   ----------------------------------------
 .byte   W96
@  #08 @031   ----------------------------------------
 .byte   W96
@  #08 @032   ----------------------------------------
 .byte   W96
@  #08 @033   ----------------------------------------
 .byte   W96
@  #08 @034   ----------------------------------------
 .byte   W96
@  #08 @035   ----------------------------------------
 .byte   W96
@  #08 @036   ----------------------------------------
 .byte   W96
@  #08 @037   ----------------------------------------
 .byte   W96
@  #08 @038   ----------------------------------------
 .byte   W96
@  #08 @039   ----------------------------------------
 .byte   W96
@  #08 @040   ----------------------------------------
 .byte   W96
@  #08 @041   ----------------------------------------
 .byte   W96
@  #08 @042   ----------------------------------------
 .byte   W96
@  #08 @043   ----------------------------------------
Label_015408D9:
 .byte   N32 ,Bn3 ,v060
 .byte   W48
 .byte   N11 ,Fn4
 .byte   W12
 .byte   Ds4
 .byte   W12
 .byte   Cs4
 .byte   W12
 .byte   Bn3
 .byte   W12
 .byte   PEND 
@  #08 @044   ----------------------------------------
Label_015408E7:
 .byte   N28 ,As3 ,v060
 .byte   W48
 .byte   N12 ,Fn4
 .byte   W12
 .byte   Ds4
 .byte   W12
 .byte   N11 ,As3
 .byte   W12
 .byte   N11
 .byte   W12
 .byte   PEND 
@  #08 @045   ----------------------------------------
Label_015408F6:
 .byte   N24 ,An3 ,v060
 .byte   W48
 .byte   N11 ,Fn4
 .byte   W12
 .byte   Ds4
 .byte   W12
 .byte   Cs4
 .byte   W12
 .byte   Bn3
 .byte   W12
 .byte   PEND 
@  #08 @046   ----------------------------------------
 .byte   N28 ,As3
 .byte   W36
 .byte   N28
 .byte   W36
 .byte   N23 ,Dn4
 .byte   W24
@  #08 @047   ----------------------------------------
 .byte   PATT
  .word Label_015408D9
@  #08 @048   ----------------------------------------
 .byte   PATT
  .word Label_015408E7
@  #08 @049   ----------------------------------------
 .byte   PATT
  .word Label_015408F6
@  #08 @050   ----------------------------------------
 .byte   W96
@  #08 @051   ----------------------------------------
 .byte   W96
@  #08 @052   ----------------------------------------
 .byte   W96
@  #08 @053   ----------------------------------------
 .byte   W96
@  #08 @054   ----------------------------------------
 .byte   W96
@  #08 @055   ----------------------------------------
 .byte   W96
@  #08 @056   ----------------------------------------
 .byte   W96
@  #08 @057   ----------------------------------------
 .byte   W96
@  #08 @058   ----------------------------------------
 .byte   W88
 .byte   W01
 .byte   N02 ,An3 ,v052
 .byte   W01
 .byte   Bn3
 .byte   W02
 .byte   Cn4 ,v056
 .byte   W01
 .byte   Dn4
 .byte   W02
 .byte   N01 ,En4
 .byte   W01
@  #08 @059   ----------------------------------------
 .byte   N02 ,Fn4
 .byte   W01
 .byte   N04 ,Gn4 ,v060
 .byte   W02
 .byte   N92 ,An4 ,v064
 .byte   W92
 .byte   W01
@  #08 @060   ----------------------------------------
 .byte   N05 ,Gn4 ,v060
 .byte   W06
 .byte   Fn4
 .byte   W06
 .byte   En4
 .byte   W06
 .byte   Dn4
 .byte   W06
 .byte   Fn4
 .byte   W06
 .byte   En4
 .byte   W06
 .byte   Dn4
 .byte   W06
 .byte   Cn4
 .byte   W06
 .byte   En4
 .byte   W06
 .byte   Dn4
 .byte   W06
 .byte   Cn4
 .byte   W06
 .byte   Bn3
 .byte   W06
 .byte   Dn4
 .byte   W06
 .byte   Cn4
 .byte   W06
 .byte   Bn3
 .byte   W06
 .byte   Gn3 ,v064
 .byte   W06
@  #08 @061   ----------------------------------------
 .byte   N11 ,Cn4
 .byte   W12
 .byte   An3
 .byte   W12
 .byte   Bn3
 .byte   W12
 .byte   Gn3
 .byte   W12
 .byte   An3
 .byte   W12
 .byte   En3
 .byte   W12
 .byte   Gn3
 .byte   W12
 .byte   Dn3
 .byte   W12
@  #08 @062   ----------------------------------------
 .byte   En3
 .byte   W12
 .byte   Cn4
 .byte   W12
 .byte   Bn3
 .byte   W12
 .byte   Cn4
 .byte   W12
 .byte   Fn3
 .byte   W12
 .byte   Dn4
 .byte   W12
 .byte   An3
 .byte   W12
 .byte   Gn4
 .byte   W12
@  #08 @063   ----------------------------------------
 .byte   N32 ,En4
 .byte   W36
 .byte   Gn3
 .byte   W36
 .byte   N56 ,Dn4
 .byte   W24
@  #08 @064   ----------------------------------------
 .byte   W48
 .byte   N05
 .byte   W06
 .byte   Cn4
 .byte   W06
 .byte   Bn3
 .byte   W06
 .byte   An3
 .byte   W06
 .byte   Gn4
 .byte   W06
 .byte   Fn4
 .byte   W06
 .byte   En4
 .byte   W06
 .byte   Dn4
 .byte   W06
@  #08 @065   ----------------------------------------
 .byte   N11 ,En4
 .byte   W12
 .byte   Gn3
 .byte   W12
 .byte   Dn4
 .byte   W12
 .byte   N23 ,En4
 .byte   W24
 .byte   N11 ,Dn4
 .byte   W12
 .byte   N23 ,Gn4
 .byte   W24
@  #08 @066   ----------------------------------------
 .byte   N11 ,En4
 .byte   W12
 .byte   N23 ,An4
 .byte   W24
 .byte   N11 ,En4
 .byte   W12
 .byte   Bn4
 .byte   W12
 .byte   En4
 .byte   W12
 .byte   Cn5
 .byte   W12
 .byte   En4
 .byte   W12
@  #08 @067   ----------------------------------------
 .byte   N32 ,Dn5 ,v060
 .byte   W36
 .byte   TIE ,Cn5 ,v064
 .byte   W60
@  #08 @068   ----------------------------------------
 .byte   W88
 .byte   W01
 .byte   EOT
 .byte   W07
@  #08 @069   ----------------------------------------
 .byte   W96
@  #08 @070   ----------------------------------------
 .byte   W96
@  #08 @071   ----------------------------------------
 .byte   W96
@  #08 @072   ----------------------------------------
 .byte   W96
@  #08 @073   ----------------------------------------
 .byte   W96
@  #08 @074   ----------------------------------------
 .byte   W96
@  #08 @075   ----------------------------------------
 .byte   GOTO
  .word Label_0154077A
 .byte   FINE

@**************** Track 9 (Midi-Chn.8) ****************@

CallingThatDetestableName_009:
@  #09 @000   ----------------------------------------
 .byte   KEYSH , CallingThatDetestableName_key+0
Label_0154121E:
 .byte   VOICE , 30
 .byte   VOL , 35*CallingThatDetestableName_mvl/mxv
 .byte   PAN , c_v-61
 .byte   W96
@  #09 @001   ----------------------------------------
 .byte   W96
@  #09 @002   ----------------------------------------
 .byte   W96
@  #09 @003   ----------------------------------------
 .byte   W96
@  #09 @004   ----------------------------------------
 .byte   W96
@  #09 @005   ----------------------------------------
 .byte   W96
@  #09 @006   ----------------------------------------
 .byte   W96
@  #09 @007   ----------------------------------------
 .byte   W96
@  #09 @008   ----------------------------------------
 .byte   W18
 .byte   N11 ,Bn2 ,v072
 .byte   W12
 .byte   En3
 .byte   W12
 .byte   Gn3
 .byte   W12
 .byte   TIE ,Dn4
 .byte   W36
 .byte   W02
 .byte   W02
 .byte   W01
 .byte   W01
@  #09 @009   ----------------------------------------
Label_0154123C:
 .byte   W03
 .byte   W01
 .byte   W02
 .byte   W02
 .byte   W03
 .byte   W02
 .byte   W03
 .byte   W02
 .byte   W01
 .byte   W02
 .byte   W01
 .byte   W02
 .byte   W01
 .byte   W02
 .byte   W01
 .byte   W02
 .byte   W02
 .byte   W02
 .byte   W02
 .byte   W02
 .byte   W02
 .byte   W03
 .byte   W02
 .byte   W03
 .byte   W05
 .byte   W36
 .byte   PEND 
 .byte   EOT
 .byte   Dn4
 .byte   W07
@  #09 @010   ----------------------------------------
Label_0154125A:
 .byte   W03
 .byte   W02
 .byte   W01
 .byte   W01
 .byte   W01
 .byte   W01
 .byte   W01
 .byte   W08
 .byte   N11 ,Bn2 ,v072
 .byte   W12
 .byte   En3
 .byte   W12
 .byte   Gn3
 .byte   W12
 .byte   TIE ,Cs4
 .byte   W42
 .byte   PEND 
@  #09 @011   ----------------------------------------
Label_0154126E:
 .byte   W22
 .byte   W01
 .byte   W02
 .byte   W01
 .byte   W01
 .byte   W02
 .byte   W01
 .byte   W02
 .byte   W02
 .byte   W02
 .byte   W02
 .byte   W02
 .byte   W03
 .byte   W02
 .byte   W03
 .byte   W02
 .byte   W02
 .byte   W02
 .byte   W02
 .byte   W02
 .byte   W03
 .byte   W02
 .byte   W03
 .byte   W04
 .byte   W04
 .byte   W03
 .byte   W12
 .byte   PEND 
 .byte   EOT
 .byte   Cs4
 .byte   W07
@  #09 @012   ----------------------------------------
Label_0154128D:
 .byte   W05
 .byte   W01
 .byte   W01
 .byte   W01
 .byte   W01
 .byte   W01
 .byte   W01
 .byte   W01
 .byte   W06
 .byte   N11 ,Bn2 ,v072
 .byte   W12
 .byte   En3
 .byte   W12
 .byte   Gn3
 .byte   W12
 .byte   TIE ,Dn4
 .byte   W32
 .byte   W03
 .byte   W03
 .byte   W02
 .byte   W02
 .byte   PEND 
@  #09 @013   ----------------------------------------
Label_015412A6:
 .byte   W03
 .byte   W02
 .byte   W03
 .byte   W02
 .byte   W02
 .byte   W03
 .byte   W03
 .byte   W03
 .byte   W03
 .byte   W03
 .byte   W02
 .byte   W02
 .byte   W02
 .byte   W02
 .byte   W02
 .byte   W02
 .byte   W02
 .byte   W03
 .byte   W04
 .byte   W06
 .byte   W04
 .byte   W04
 .byte   W05
 .byte   W05
 .byte   W05
 .byte   W09
 .byte   W03
 .byte   PEND 
 .byte   EOT
 .byte   Dn4
 .byte   W07
@  #09 @014   ----------------------------------------
Label_015412C5:
 .byte   W08
 .byte   W01
 .byte   W01
 .byte   W01
 .byte   W01
 .byte   W01
 .byte   W01
 .byte   W04
 .byte   N11 ,Bn2 ,v072
 .byte   W12
 .byte   En3
 .byte   W12
 .byte   Gn3
 .byte   W12
 .byte   TIE ,As3
 .byte   W01
 .byte   W02
 .byte   W03
 .byte   W02
 .byte   W03
 .byte   W02
 .byte   W03
 .byte   W04
 .byte   W03
 .byte   W05
 .byte   W07
 .byte   W05
 .byte   W02
 .byte   PEND 
@  #09 @015   ----------------------------------------
Label_015412E5:
 .byte   W04
 .byte   W03
 .byte   W04
 .byte   W03
 .byte   W03
 .byte   W03
 .byte   W03
 .byte   W02
 .byte   W02
 .byte   W03
 .byte   W02
 .byte   W03
 .byte   W03
 .byte   W03
 .byte   W04
 .byte   W04
 .byte   W05
 .byte   W32
 .byte   W03
 .byte   PEND 
 .byte   EOT
 .byte   As3
 .byte   W07
@  #09 @016   ----------------------------------------
 .byte   W03
 .byte   W01
 .byte   W01
 .byte   W01
 .byte   W01
 .byte   W01
 .byte   W01
 .byte   W01
 .byte   W01
 .byte   W07
 .byte   N11 ,Bn2 ,v072
 .byte   W12
 .byte   En3
 .byte   W12
 .byte   Gn3
 .byte   W12
 .byte   TIE ,Dn4
 .byte   W36
 .byte   W02
 .byte   W02
 .byte   W01
 .byte   W01
@  #09 @017   ----------------------------------------
 .byte   PATT
  .word Label_0154123C
@  #09 @018   ----------------------------------------
 .byte   EOT
 .byte   Dn4
 .byte   W07
@  #09 @019   ----------------------------------------
 .byte   PATT
  .word Label_0154125A
@  #09 @020   ----------------------------------------
 .byte   PATT
  .word Label_0154126E
@  #09 @021   ----------------------------------------
 .byte   EOT
 .byte   Cs4
 .byte   W07
@  #09 @022   ----------------------------------------
 .byte   PATT
  .word Label_0154128D
@  #09 @023   ----------------------------------------
 .byte   PATT
  .word Label_015412A6
@  #09 @024   ----------------------------------------
 .byte   EOT
 .byte   Dn4
 .byte   W07
@  #09 @025   ----------------------------------------
 .byte   PATT
  .word Label_015412C5
@  #09 @026   ----------------------------------------
 .byte   PATT
  .word Label_015412E5
@  #09 @027   ----------------------------------------
 .byte   EOT
 .byte   As3
 .byte   W07
 .byte   W96
@  #09 @028   ----------------------------------------
 .byte   W96
@  #09 @029   ----------------------------------------
 .byte   W96
@  #09 @030   ----------------------------------------
 .byte   W96
@  #09 @031   ----------------------------------------
 .byte   W96
@  #09 @032   ----------------------------------------
 .byte   W96
@  #09 @033   ----------------------------------------
 .byte   W96
@  #09 @034   ----------------------------------------
 .byte   W96
@  #09 @035   ----------------------------------------
 .byte   W96
@  #09 @036   ----------------------------------------
 .byte   W96
@  #09 @037   ----------------------------------------
 .byte   W96
@  #09 @038   ----------------------------------------
 .byte   W96
@  #09 @039   ----------------------------------------
 .byte   W96
@  #09 @040   ----------------------------------------
 .byte   W96
@  #09 @041   ----------------------------------------
 .byte   W96
@  #09 @042   ----------------------------------------
 .byte   W96
@  #09 @043   ----------------------------------------
 .byte   W96
@  #09 @044   ----------------------------------------
 .byte   W96
@  #09 @045   ----------------------------------------
 .byte   W96
@  #09 @046   ----------------------------------------
 .byte   W96
@  #09 @047   ----------------------------------------
 .byte   W96
@  #09 @048   ----------------------------------------
 .byte   W96
@  #09 @049   ----------------------------------------
 .byte   W96
@  #09 @050   ----------------------------------------
 .byte   W96
@  #09 @051   ----------------------------------------
 .byte   W96
@  #09 @052   ----------------------------------------
 .byte   W96
@  #09 @053   ----------------------------------------
 .byte   W96
@  #09 @054   ----------------------------------------
 .byte   W96
@  #09 @055   ----------------------------------------
 .byte   W96
@  #09 @056   ----------------------------------------
 .byte   W96
@  #09 @057   ----------------------------------------
 .byte   W96
@  #09 @058   ----------------------------------------
 .byte   W96
@  #09 @059   ----------------------------------------
 .byte   W11
 .byte   N02 ,An3 ,v052
 .byte   W02
 .byte   Bn3
 .byte   W01
 .byte   Cn4 ,v056
 .byte   W02
 .byte   Dn4
 .byte   W01
 .byte   N01 ,En4
 .byte   W01
 .byte   N02 ,Fn4
 .byte   W01
 .byte   N04 ,Gn4 ,v060
 .byte   W03
 .byte   N92 ,An4 ,v064
 .byte   W72
 .byte   W02
@  #09 @060   ----------------------------------------
 .byte   W18
 .byte   N05 ,Gn4 ,v060
 .byte   W06
 .byte   Fn4
 .byte   W06
 .byte   En4
 .byte   W06
 .byte   Dn4
 .byte   W06
 .byte   Fn4
 .byte   W06
 .byte   En4
 .byte   W06
 .byte   Dn4
 .byte   W06
 .byte   Cn4
 .byte   W06
 .byte   En4
 .byte   W06
 .byte   Dn4
 .byte   W06
 .byte   Cn4
 .byte   W06
 .byte   Bn3
 .byte   W06
 .byte   Dn4
 .byte   W06
@  #09 @061   ----------------------------------------
 .byte   Cn4
 .byte   W06
 .byte   Bn3
 .byte   W06
 .byte   Gn3 ,v064
 .byte   W06
 .byte   N11 ,Cn4
 .byte   W12
 .byte   An3
 .byte   W12
 .byte   Bn3
 .byte   W12
 .byte   Gn3
 .byte   W12
 .byte   An3
 .byte   W12
 .byte   En3
 .byte   W12
 .byte   Gn3
 .byte   W06
@  #09 @062   ----------------------------------------
 .byte   W06
 .byte   Dn3
 .byte   W12
 .byte   En3
 .byte   W12
 .byte   Cn4
 .byte   W12
 .byte   Bn3
 .byte   W12
 .byte   Cn4
 .byte   W12
 .byte   Fn3
 .byte   W12
 .byte   Dn4
 .byte   W12
 .byte   An3
 .byte   W06
@  #09 @063   ----------------------------------------
 .byte   W06
 .byte   Gn4
 .byte   W12
 .byte   N32 ,En4
 .byte   W36
 .byte   Gn3
 .byte   W36
 .byte   N56 ,Dn4
 .byte   W06
@  #09 @064   ----------------------------------------
 .byte   W66
 .byte   N05
 .byte   W06
 .byte   Cn4
 .byte   W06
 .byte   Bn3
 .byte   W06
 .byte   An3
 .byte   W06
 .byte   Gn4
 .byte   W06
@  #09 @065   ----------------------------------------
 .byte   Fn4
 .byte   W06
 .byte   En4
 .byte   W06
 .byte   Dn4
 .byte   W06
 .byte   N11 ,En4
 .byte   W12
 .byte   Gn3
 .byte   W12
 .byte   Dn4
 .byte   W12
 .byte   N23 ,En4
 .byte   W24
 .byte   N11 ,Dn4
 .byte   W12
 .byte   N23 ,Gn4
 .byte   W06
@  #09 @066   ----------------------------------------
 .byte   W18
 .byte   N11 ,En4
 .byte   W12
 .byte   N23 ,An4
 .byte   W24
 .byte   N11 ,En4
 .byte   W12
 .byte   Bn4
 .byte   W12
 .byte   En4
 .byte   W12
 .byte   Cn5
 .byte   W06
@  #09 @067   ----------------------------------------
 .byte   W06
 .byte   En4
 .byte   W12
 .byte   N32 ,Dn5 ,v060
 .byte   W36
 .byte   TIE ,Cn5 ,v064
 .byte   W42
@  #09 @068   ----------------------------------------
 .byte   W96
@  #09 @069   ----------------------------------------
 .byte   W11
 .byte   EOT
 .byte   W84
 .byte   W01
@  #09 @070   ----------------------------------------
 .byte   W96
@  #09 @071   ----------------------------------------
 .byte   W96
@  #09 @072   ----------------------------------------
 .byte   W96
@  #09 @073   ----------------------------------------
 .byte   W96
@  #09 @074   ----------------------------------------
 .byte   W96
@  #09 @075   ----------------------------------------
 .byte   GOTO
  .word Label_0154121E
 .byte   FINE

@**************** Track 10 (Midi-Chn.9) ****************@

CallingThatDetestableName_010:
@  #10 @000   ----------------------------------------
 .byte   KEYSH , CallingThatDetestableName_key+0
Label_0153F3F6:
 .byte   VOICE , 30
 .byte   VOL , 46*CallingThatDetestableName_mvl/mxv
 .byte   PAN , c_v-61
 .byte   N11 ,En1 ,v068
 .byte   W12
 .byte   Gn1
 .byte   W12
 .byte   Bn1 ,v084
 .byte   W12
 .byte   En1 ,v072
 .byte   W12
 .byte   Gn1
 .byte   W12
 .byte   As1 ,v084
 .byte   W12
 .byte   En1 ,v068
 .byte   W12
 .byte   Gn1
 .byte   W12
@  #10 @001   ----------------------------------------
Label_0153F412:
 .byte   N11 ,Bn1 ,v084
 .byte   W12
 .byte   En1 ,v068
 .byte   W12
 .byte   Gn1
 .byte   W12
 .byte   As1 ,v084
 .byte   W12
 .byte   En1 ,v068
 .byte   W12
 .byte   Gn1
 .byte   W36
 .byte   PEND 
@  #10 @002   ----------------------------------------
Label_0153F424:
 .byte   N11 ,En1 ,v068
 .byte   W12
 .byte   Gn1
 .byte   W12
 .byte   Bn1 ,v084
 .byte   W12
 .byte   En1 ,v072
 .byte   W12
 .byte   Gn1
 .byte   W12
 .byte   As1 ,v084
 .byte   W12
 .byte   En1 ,v068
 .byte   W12
 .byte   Gn1
 .byte   W12
 .byte   PEND 
@  #10 @003   ----------------------------------------
 .byte   PATT
  .word Label_0153F412
@  #10 @004   ----------------------------------------
 .byte   PATT
  .word Label_0153F424
@  #10 @005   ----------------------------------------
 .byte   PATT
  .word Label_0153F412
@  #10 @006   ----------------------------------------
 .byte   PATT
  .word Label_0153F424
@  #10 @007   ----------------------------------------
 .byte   PATT
  .word Label_0153F412
@  #10 @008   ----------------------------------------
 .byte   PATT
  .word Label_0153F424
@  #10 @009   ----------------------------------------
 .byte   PATT
  .word Label_0153F412
@  #10 @010   ----------------------------------------
 .byte   PATT
  .word Label_0153F424
@  #10 @011   ----------------------------------------
 .byte   PATT
  .word Label_0153F412
@  #10 @012   ----------------------------------------
 .byte   PATT
  .word Label_0153F424
@  #10 @013   ----------------------------------------
 .byte   PATT
  .word Label_0153F412
@  #10 @014   ----------------------------------------
 .byte   PATT
  .word Label_0153F424
@  #10 @015   ----------------------------------------
 .byte   PATT
  .word Label_0153F412
@  #10 @016   ----------------------------------------
 .byte   PATT
  .word Label_0153F424
@  #10 @017   ----------------------------------------
 .byte   PATT
  .word Label_0153F412
@  #10 @018   ----------------------------------------
 .byte   PATT
  .word Label_0153F424
@  #10 @019   ----------------------------------------
 .byte   PATT
  .word Label_0153F412
@  #10 @020   ----------------------------------------
 .byte   PATT
  .word Label_0153F424
@  #10 @021   ----------------------------------------
 .byte   PATT
  .word Label_0153F412
@  #10 @022   ----------------------------------------
 .byte   PATT
  .word Label_0153F424
@  #10 @023   ----------------------------------------
 .byte   PATT
  .word Label_0153F412
@  #10 @024   ----------------------------------------
 .byte   PATT
  .word Label_0153F424
@  #10 @025   ----------------------------------------
 .byte   PATT
  .word Label_0153F412
@  #10 @026   ----------------------------------------
 .byte   PATT
  .word Label_0153F424
@  #10 @027   ----------------------------------------
 .byte   PATT
  .word Label_0153F412
@  #10 @028   ----------------------------------------
 .byte   PATT
  .word Label_0153F424
@  #10 @029   ----------------------------------------
 .byte   PATT
  .word Label_0153F412
@  #10 @030   ----------------------------------------
 .byte   PATT
  .word Label_0153F424
@  #10 @031   ----------------------------------------
 .byte   PATT
  .word Label_0153F412
@  #10 @032   ----------------------------------------
 .byte   W96
@  #10 @033   ----------------------------------------
 .byte   W96
@  #10 @034   ----------------------------------------
 .byte   W96
@  #10 @035   ----------------------------------------
 .byte   W96
@  #10 @036   ----------------------------------------
 .byte   W96
@  #10 @037   ----------------------------------------
 .byte   W96
@  #10 @038   ----------------------------------------
 .byte   W96
@  #10 @039   ----------------------------------------
 .byte   W96
@  #10 @040   ----------------------------------------
 .byte   W96
@  #10 @041   ----------------------------------------
 .byte   W96
@  #10 @042   ----------------------------------------
 .byte   W96
@  #10 @043   ----------------------------------------
 .byte   W96
@  #10 @044   ----------------------------------------
 .byte   W96
@  #10 @045   ----------------------------------------
 .byte   W96
@  #10 @046   ----------------------------------------
 .byte   W96
@  #10 @047   ----------------------------------------
 .byte   W96
@  #10 @048   ----------------------------------------
 .byte   W96
@  #10 @049   ----------------------------------------
 .byte   W96
@  #10 @050   ----------------------------------------
 .byte   W96
@  #10 @051   ----------------------------------------
 .byte   W96
@  #10 @052   ----------------------------------------
 .byte   W96
@  #10 @053   ----------------------------------------
 .byte   W96
@  #10 @054   ----------------------------------------
 .byte   W96
@  #10 @055   ----------------------------------------
 .byte   W96
@  #10 @056   ----------------------------------------
 .byte   W96
@  #10 @057   ----------------------------------------
 .byte   W96
@  #10 @058   ----------------------------------------
 .byte   W96
@  #10 @059   ----------------------------------------
 .byte   W96
@  #10 @060   ----------------------------------------
 .byte   W96
@  #10 @061   ----------------------------------------
 .byte   W96
@  #10 @062   ----------------------------------------
 .byte   W96
@  #10 @063   ----------------------------------------
 .byte   W96
@  #10 @064   ----------------------------------------
 .byte   W96
@  #10 @065   ----------------------------------------
 .byte   W96
@  #10 @066   ----------------------------------------
 .byte   W96
@  #10 @067   ----------------------------------------
 .byte   W96
@  #10 @068   ----------------------------------------
 .byte   W96
@  #10 @069   ----------------------------------------
 .byte   W96
@  #10 @070   ----------------------------------------
 .byte   W96
@  #10 @071   ----------------------------------------
 .byte   W96
@  #10 @072   ----------------------------------------
 .byte   GOTO
  .word Label_0153F3F6
 .byte   FINE

@**************** Track 11 (Midi-Chn.10) ****************@

CallingThatDetestableName_011:
@  #11 @000   ----------------------------------------
 .byte   KEYSH , CallingThatDetestableName_key+0
Label_016D2CEE:
 .byte   VOICE , 28
 .byte   VOL , 41*CallingThatDetestableName_mvl/mxv
 .byte   PAN , c_v-61
 .byte   W96
@  #11 @001   ----------------------------------------
 .byte   W72
 .byte   N23 ,Cn2 ,v096
 .byte   W24
@  #11 @002   ----------------------------------------
 .byte   W96
@  #11 @003   ----------------------------------------
 .byte   W72
 .byte   Dn2
 .byte   W24
@  #11 @004   ----------------------------------------
 .byte   W96
@  #11 @005   ----------------------------------------
 .byte   W72
 .byte   Cn2
 .byte   W24
@  #11 @006   ----------------------------------------
 .byte   W96
@  #11 @007   ----------------------------------------
 .byte   W72
 .byte   Dn2
 .byte   W24
@  #11 @008   ----------------------------------------
 .byte   W96
@  #11 @009   ----------------------------------------
 .byte   W72
 .byte   Cn2
 .byte   W24
@  #11 @010   ----------------------------------------
 .byte   W96
@  #11 @011   ----------------------------------------
 .byte   W72
 .byte   Dn2
 .byte   W24
@  #11 @012   ----------------------------------------
 .byte   W96
@  #11 @013   ----------------------------------------
 .byte   W72
 .byte   Cn2
 .byte   W24
@  #11 @014   ----------------------------------------
 .byte   W96
@  #11 @015   ----------------------------------------
 .byte   W72
 .byte   Dn2
 .byte   W24
@  #11 @016   ----------------------------------------
 .byte   W96
@  #11 @017   ----------------------------------------
 .byte   W72
 .byte   Cn2
 .byte   W24
@  #11 @018   ----------------------------------------
 .byte   W96
@  #11 @019   ----------------------------------------
 .byte   W72
 .byte   Dn2
 .byte   W24
@  #11 @020   ----------------------------------------
 .byte   W96
@  #11 @021   ----------------------------------------
 .byte   W72
 .byte   Cn2
 .byte   W24
@  #11 @022   ----------------------------------------
 .byte   W96
@  #11 @023   ----------------------------------------
 .byte   W72
 .byte   Dn2
 .byte   W24
@  #11 @024   ----------------------------------------
 .byte   W96
@  #11 @025   ----------------------------------------
 .byte   W72
 .byte   Cn2
 .byte   W24
@  #11 @026   ----------------------------------------
 .byte   W96
@  #11 @027   ----------------------------------------
 .byte   W72
 .byte   Dn2
 .byte   W24
@  #11 @028   ----------------------------------------
 .byte   W96
@  #11 @029   ----------------------------------------
 .byte   W72
 .byte   Cn2
 .byte   W24
@  #11 @030   ----------------------------------------
 .byte   W96
@  #11 @031   ----------------------------------------
 .byte   W72
 .byte   Dn2
 .byte   W24
@  #11 @032   ----------------------------------------
 .byte   N78 ,Bn1 ,v127
 .byte   W96
@  #11 @033   ----------------------------------------
 .byte   N72 ,As1 ,v116
 .byte   W96
@  #11 @034   ----------------------------------------
 .byte   N84 ,An1 ,v120
 .byte   W96
@  #11 @035   ----------------------------------------
 .byte   N76 ,As1 ,v124
 .byte   W96
@  #11 @036   ----------------------------------------
 .byte   N78 ,Bn1 ,v127
 .byte   W96
@  #11 @037   ----------------------------------------
 .byte   N72 ,As1 ,v116
 .byte   W96
@  #11 @038   ----------------------------------------
 .byte   N84 ,An1 ,v120
 .byte   W96
@  #11 @039   ----------------------------------------
 .byte   N76 ,As1 ,v124
 .byte   W96
@  #11 @040   ----------------------------------------
 .byte   N78 ,Bn1 ,v127
 .byte   W96
@  #11 @041   ----------------------------------------
 .byte   N72 ,As1 ,v116
 .byte   W96
@  #11 @042   ----------------------------------------
 .byte   N84 ,An1 ,v120
 .byte   W96
@  #11 @043   ----------------------------------------
 .byte   N76 ,As1 ,v124
 .byte   W96
@  #11 @044   ----------------------------------------
 .byte   N78 ,Bn1 ,v127
 .byte   W96
@  #11 @045   ----------------------------------------
 .byte   N72 ,As1 ,v116
 .byte   W96
@  #11 @046   ----------------------------------------
 .byte   N84 ,An1 ,v120
 .byte   W96
@  #11 @047   ----------------------------------------
 .byte   N76 ,As1 ,v124
 .byte   W96
@  #11 @048   ----------------------------------------
 .byte   W96
@  #11 @049   ----------------------------------------
 .byte   W96
@  #11 @050   ----------------------------------------
 .byte   W96
@  #11 @051   ----------------------------------------
 .byte   W96
@  #11 @052   ----------------------------------------
 .byte   W96
@  #11 @053   ----------------------------------------
 .byte   W96
@  #11 @054   ----------------------------------------
 .byte   W96
@  #11 @055   ----------------------------------------
 .byte   W96
@  #11 @056   ----------------------------------------
 .byte   W96
@  #11 @057   ----------------------------------------
 .byte   W96
@  #11 @058   ----------------------------------------
 .byte   W96
@  #11 @059   ----------------------------------------
 .byte   W96
@  #11 @060   ----------------------------------------
 .byte   W96
@  #11 @061   ----------------------------------------
 .byte   W96
@  #11 @062   ----------------------------------------
 .byte   W96
@  #11 @063   ----------------------------------------
 .byte   W96
@  #11 @064   ----------------------------------------
 .byte   W96
@  #11 @065   ----------------------------------------
 .byte   W96
@  #11 @066   ----------------------------------------
 .byte   W96
@  #11 @067   ----------------------------------------
 .byte   W96
@  #11 @068   ----------------------------------------
 .byte   W96
@  #11 @069   ----------------------------------------
 .byte   W96
@  #11 @070   ----------------------------------------
 .byte   W96
@  #11 @071   ----------------------------------------
 .byte   W96
@  #11 @072   ----------------------------------------
 .byte   GOTO
  .word Label_016D2CEE
 .byte   FINE

@**************** Track 12 (Midi-Chn.11) ****************@

CallingThatDetestableName_012:
@  #12 @000   ----------------------------------------
 .byte   KEYSH , CallingThatDetestableName_key+0
Label_0153F77A:
 .byte   VOICE , 124
 .byte   VOL , 51*CallingThatDetestableName_mvl/mxv
 .byte   PAN , c_v+0
 .byte   W96
@  #12 @001   ----------------------------------------
 .byte   W96
@  #12 @002   ----------------------------------------
 .byte   W96
@  #12 @003   ----------------------------------------
 .byte   W96
@  #12 @004   ----------------------------------------
 .byte   W96
@  #12 @005   ----------------------------------------
 .byte   W96
@  #12 @006   ----------------------------------------
 .byte   W96
@  #12 @007   ----------------------------------------
 .byte   N11 ,Cn1 ,v112
 .byte   N23 ,As1 ,v120
 .byte   W12
 .byte   N11 ,Dn1 ,v080
 .byte   W12
 .byte   N05 ,Cn2 ,v124
 .byte   W06
 .byte   Cn2 ,v116
 .byte   W06
 .byte   N11 ,Cn2 ,v092
 .byte   W12
 .byte   N05 ,Cs1 ,v124
 .byte   W06
 .byte   Cs1 ,v112
 .byte   W06
 .byte   N11
 .byte   W12
 .byte   Cn1 ,v127
 .byte   W12
 .byte   Cn1 ,v120
 .byte   W12
@  #12 @008   ----------------------------------------
 .byte   W96
@  #12 @009   ----------------------------------------
 .byte   W96
@  #12 @010   ----------------------------------------
 .byte   W96
@  #12 @011   ----------------------------------------
 .byte   W96
@  #12 @012   ----------------------------------------
 .byte   W96
@  #12 @013   ----------------------------------------
 .byte   W96
@  #12 @014   ----------------------------------------
 .byte   W96
@  #12 @015   ----------------------------------------
 .byte   W96
@  #12 @016   ----------------------------------------
 .byte   W96
@  #12 @017   ----------------------------------------
 .byte   W96
@  #12 @018   ----------------------------------------
 .byte   W96
@  #12 @019   ----------------------------------------
 .byte   W96
@  #12 @020   ----------------------------------------
 .byte   W96
@  #12 @021   ----------------------------------------
 .byte   W96
@  #12 @022   ----------------------------------------
 .byte   W96
@  #12 @023   ----------------------------------------
 .byte   Dn1 ,v127
 .byte   W12
 .byte   Cn1 ,v116
 .byte   W12
 .byte   Cn2 ,v088
 .byte   W12
 .byte   Cn2 ,v120
 .byte   W12
 .byte   N05 ,Cs1 ,v084
 .byte   W06
 .byte   N11 ,Cs1 ,v092
 .byte   W12
 .byte   N05 ,Cs1 ,v116
 .byte   W06
 .byte   N11 ,Cn1 ,v120
 .byte   W12
 .byte   Cn1 ,v124
 .byte   W12
@  #12 @024   ----------------------------------------
 .byte   W96
@  #12 @025   ----------------------------------------
 .byte   W96
@  #12 @026   ----------------------------------------
 .byte   W96
@  #12 @027   ----------------------------------------
 .byte   W96
@  #12 @028   ----------------------------------------
 .byte   W96
@  #12 @029   ----------------------------------------
 .byte   W96
@  #12 @030   ----------------------------------------
 .byte   W96
@  #12 @031   ----------------------------------------
Label_0153F7E1:
 .byte   N05 ,Cn1 ,v092
 .byte   N05 ,Dn1 ,v124
 .byte   W06
 .byte   En1 ,v068
 .byte   W06
 .byte   En1 ,v028
 .byte   W06
 .byte   En1 ,v120
 .byte   W06
 .byte   Dn1 ,v068
 .byte   W06
 .byte   En1 ,v032
 .byte   W06
 .byte   Cn1 ,v092
 .byte   N11 ,Cn2 ,v120
 .byte   W06
 .byte   N05 ,En1 ,v032
 .byte   W06
 .byte   En1 ,v076
 .byte   W06
 .byte   Cn1 ,v072
 .byte   N11 ,Cs1 ,v120
 .byte   W06
 .byte   N05 ,En1 ,v076
 .byte   W06
 .byte   En1 ,v040
 .byte   W06
 .byte   Cn1 ,v088
 .byte   N11 ,Cs1 ,v127
 .byte   W06
 .byte   N05 ,En1 ,v080
 .byte   W06
 .byte   En1 ,v084
 .byte   W06
 .byte   En1 ,v040
 .byte   W06
 .byte   PEND 
@  #12 @032   ----------------------------------------
 .byte   W96
@  #12 @033   ----------------------------------------
 .byte   W96
@  #12 @034   ----------------------------------------
 .byte   W96
@  #12 @035   ----------------------------------------
 .byte   W96
@  #12 @036   ----------------------------------------
 .byte   W96
@  #12 @037   ----------------------------------------
 .byte   W96
@  #12 @038   ----------------------------------------
 .byte   W96
@  #12 @039   ----------------------------------------
Label_0153F829:
 .byte   N11 ,Cn1 ,v112
 .byte   N23 ,As1 ,v120
 .byte   W12
 .byte   N11 ,Dn1 ,v080
 .byte   W12
 .byte   N05 ,Cn2 ,v124
 .byte   W06
 .byte   Cn2 ,v116
 .byte   W06
 .byte   N11 ,Cn2 ,v092
 .byte   W12
 .byte   N05 ,Cs1 ,v124
 .byte   W06
 .byte   Cs1 ,v112
 .byte   W06
 .byte   N11
 .byte   W12
 .byte   Cs1 ,v127
 .byte   W12
 .byte   Cs1 ,v120
 .byte   W12
 .byte   PEND 
@  #12 @040   ----------------------------------------
 .byte   W96
@  #12 @041   ----------------------------------------
 .byte   W96
@  #12 @042   ----------------------------------------
 .byte   W96
@  #12 @043   ----------------------------------------
 .byte   W96
@  #12 @044   ----------------------------------------
 .byte   W96
@  #12 @045   ----------------------------------------
 .byte   W96
@  #12 @046   ----------------------------------------
 .byte   W96
@  #12 @047   ----------------------------------------
 .byte   PATT
  .word Label_0153F829
@  #12 @048   ----------------------------------------
 .byte   W96
@  #12 @049   ----------------------------------------
 .byte   W96
@  #12 @050   ----------------------------------------
 .byte   W96
@  #12 @051   ----------------------------------------
 .byte   W96
@  #12 @052   ----------------------------------------
 .byte   W96
@  #12 @053   ----------------------------------------
 .byte   W96
@  #12 @054   ----------------------------------------
 .byte   W96
@  #12 @055   ----------------------------------------
 .byte   PATT
  .word Label_0153F7E1
@  #12 @056   ----------------------------------------
 .byte   W96
@  #12 @057   ----------------------------------------
 .byte   W96
@  #12 @058   ----------------------------------------
 .byte   W96
@  #12 @059   ----------------------------------------
 .byte   W96
@  #12 @060   ----------------------------------------
 .byte   W96
@  #12 @061   ----------------------------------------
 .byte   W96
@  #12 @062   ----------------------------------------
 .byte   W96
@  #12 @063   ----------------------------------------
 .byte   N11 ,Cn1 ,v112
 .byte   N23 ,As1 ,v120
 .byte   W12
 .byte   N11 ,Dn1 ,v080
 .byte   W12
 .byte   N05 ,Cn2 ,v124
 .byte   W06
 .byte   Cn2 ,v116
 .byte   W06
 .byte   N11 ,Cn2 ,v092
 .byte   W12
 .byte   N05 ,En1 ,v076
 .byte   W06
 .byte   Cn1 ,v072
 .byte   N11 ,Cs1 ,v120
 .byte   W06
 .byte   N05 ,En1 ,v076
 .byte   W06
 .byte   En1 ,v040
 .byte   W06
 .byte   Cn1 ,v088
 .byte   N11 ,Cs1 ,v127
 .byte   W06
 .byte   N05 ,En1 ,v080
 .byte   W06
 .byte   En1 ,v084
 .byte   W06
 .byte   En1 ,v040
 .byte   W06
@  #12 @064   ----------------------------------------
 .byte   W96
@  #12 @065   ----------------------------------------
 .byte   W96
@  #12 @066   ----------------------------------------
 .byte   W96
@  #12 @067   ----------------------------------------
 .byte   W96
@  #12 @068   ----------------------------------------
 .byte   W96
@  #12 @069   ----------------------------------------
 .byte   W96
@  #12 @070   ----------------------------------------
 .byte   W96
@  #12 @071   ----------------------------------------
 .byte   PATT
  .word Label_0153F829
@  #12 @072   ----------------------------------------
 .byte   GOTO
  .word Label_0153F77A
 .byte   FINE

@**************** Track 13 (Midi-Chn.12) ****************@

CallingThatDetestableName_013:
@  #13 @000   ----------------------------------------
 .byte   KEYSH , CallingThatDetestableName_key+0
Label_0154157E:
 .byte   VOICE , 124
 .byte   VOL , 48*CallingThatDetestableName_mvl/mxv
 .byte   PAN , c_v+0
 .byte   N11 ,Cn1 ,v127
 .byte   N92 ,Dn2 ,v104
 .byte   W12
 .byte   N11 ,Cn1 ,v112
 .byte   W12
 .byte   N23 ,Dn1 ,v104
 .byte   N23 ,Cn2 ,v068
 .byte   W12
 .byte   N11 ,Cn1 ,v116
 .byte   W12
 .byte   Cn1 ,v108
 .byte   N23 ,Cn2 ,v072
 .byte   W12
 .byte   N11 ,Cn1 ,v120
 .byte   W12
 .byte   N23 ,Dn1 ,v104
 .byte   N23 ,Cn2 ,v068
 .byte   W12
 .byte   N11 ,Cn1 ,v108
 .byte   W12
@  #13 @001   ----------------------------------------
Label_015415AF:
 .byte   N11 ,Cn1 ,v112
 .byte   N23 ,Cn2 ,v072
 .byte   W12
 .byte   N11 ,Cn1 ,v108
 .byte   W12
 .byte   N23 ,Dn1 ,v104
 .byte   N23 ,Cn2 ,v072
 .byte   W12
 .byte   N11 ,Cn1 ,v116
 .byte   W12
 .byte   N05
 .byte   N23 ,Cn2 ,v072
 .byte   W12
 .byte   N11 ,Cn1 ,v124
 .byte   W12
 .byte   N23 ,Dn1 ,v096
 .byte   N23 ,Cn2 ,v068
 .byte   W12
 .byte   N11 ,Cn1 ,v120
 .byte   W12
 .byte   PEND 
@  #13 @002   ----------------------------------------
Label_015415DA:
 .byte   N11 ,Cn1 ,v127
 .byte   N23 ,Cn2 ,v076
 .byte   W12
 .byte   N11 ,Cn1 ,v112
 .byte   W12
 .byte   N23 ,Dn1 ,v104
 .byte   N23 ,Cn2 ,v068
 .byte   W12
 .byte   N11 ,Cn1 ,v116
 .byte   W12
 .byte   Cn1 ,v108
 .byte   N23 ,Cn2 ,v072
 .byte   W12
 .byte   N11 ,Cn1 ,v120
 .byte   W12
 .byte   N23 ,Dn1 ,v104
 .byte   N23 ,Cn2 ,v068
 .byte   W12
 .byte   N11 ,Cn1 ,v108
 .byte   W12
 .byte   PEND 
@  #13 @003   ----------------------------------------
Label_01541606:
 .byte   N11 ,Cn1 ,v112
 .byte   N23 ,Cn2 ,v072
 .byte   W12
 .byte   N11 ,Cn1 ,v108
 .byte   W12
 .byte   N23 ,Dn1 ,v104
 .byte   N23 ,Cn2 ,v072
 .byte   W12
 .byte   N11 ,Cn1 ,v116
 .byte   W12
 .byte   N05
 .byte   N23 ,Cn2 ,v072
 .byte   W06
 .byte   N16 ,Dn1 ,v108
 .byte   W06
 .byte   N11 ,Cn1 ,v124
 .byte   W12
 .byte   N23 ,Dn1 ,v096
 .byte   N23 ,Cn2 ,v068
 .byte   W12
 .byte   N11 ,Cn1 ,v120
 .byte   W12
 .byte   PEND 
@  #13 @004   ----------------------------------------
Label_01541635:
 .byte   N11 ,Cn1 ,v127
 .byte   N92 ,Ds2 ,v104
 .byte   W12
 .byte   N11 ,Cn1 ,v112
 .byte   W12
 .byte   N23 ,Dn1 ,v104
 .byte   N23 ,Cn2 ,v068
 .byte   W12
 .byte   N11 ,Cn1 ,v116
 .byte   W12
 .byte   Cn1 ,v108
 .byte   N23 ,Cn2 ,v072
 .byte   W12
 .byte   N11 ,Cn1 ,v120
 .byte   W12
 .byte   N23 ,Dn1 ,v104
 .byte   N23 ,Cn2 ,v068
 .byte   W12
 .byte   N11 ,Cn1 ,v108
 .byte   W12
 .byte   PEND 
@  #13 @005   ----------------------------------------
 .byte   PATT
  .word Label_015415AF
@  #13 @006   ----------------------------------------
 .byte   PATT
  .word Label_015415DA
@  #13 @007   ----------------------------------------
 .byte   W96
@  #13 @008   ----------------------------------------
 .byte   PATT
  .word Label_01541635
@  #13 @009   ----------------------------------------
 .byte   PATT
  .word Label_015415AF
@  #13 @010   ----------------------------------------
 .byte   PATT
  .word Label_015415DA
@  #13 @011   ----------------------------------------
 .byte   PATT
  .word Label_01541606
@  #13 @012   ----------------------------------------
 .byte   PATT
  .word Label_01541635
@  #13 @013   ----------------------------------------
 .byte   PATT
  .word Label_015415AF
@  #13 @014   ----------------------------------------
 .byte   PATT
  .word Label_015415DA
@  #13 @015   ----------------------------------------
 .byte   N11 ,Cn1 ,v112
 .byte   N23 ,Cn2 ,v072
 .byte   W12
 .byte   N11 ,Cn1 ,v108
 .byte   W12
 .byte   N23 ,Dn1 ,v104
 .byte   N23 ,Cn2 ,v072
 .byte   W12
 .byte   N11 ,Cn1 ,v116
 .byte   W12
 .byte   N05
 .byte   N23 ,Cn2 ,v072
 .byte   W06
 .byte   N16 ,Dn1 ,v108
 .byte   W06
 .byte   N11 ,Cn1 ,v124
 .byte   W12
 .byte   N16 ,Dn1 ,v096
 .byte   N23 ,Cn2 ,v068
 .byte   W12
 .byte   N05 ,Cn1 ,v120
 .byte   W06
 .byte   N23 ,Dn1 ,v096
 .byte   W06
@  #13 @016   ----------------------------------------
 .byte   PATT
  .word Label_01541635
@  #13 @017   ----------------------------------------
 .byte   PATT
  .word Label_015415AF
@  #13 @018   ----------------------------------------
 .byte   PATT
  .word Label_015415DA
@  #13 @019   ----------------------------------------
 .byte   PATT
  .word Label_01541606
@  #13 @020   ----------------------------------------
 .byte   PATT
  .word Label_01541635
@  #13 @021   ----------------------------------------
 .byte   PATT
  .word Label_015415AF
@  #13 @022   ----------------------------------------
 .byte   PATT
  .word Label_015415DA
@  #13 @023   ----------------------------------------
 .byte   W96
@  #13 @024   ----------------------------------------
 .byte   PATT
  .word Label_01541635
@  #13 @025   ----------------------------------------
 .byte   PATT
  .word Label_015415AF
@  #13 @026   ----------------------------------------
 .byte   PATT
  .word Label_015415DA
@  #13 @027   ----------------------------------------
 .byte   N11 ,Cn1 ,v112
 .byte   N23 ,Cn2 ,v072
 .byte   W12
 .byte   N11 ,Cn1 ,v108
 .byte   W12
 .byte   N23 ,Dn1 ,v104
 .byte   N23 ,Cn2 ,v072
 .byte   W12
 .byte   N11 ,Cn1 ,v116
 .byte   W12
 .byte   N05
 .byte   N23 ,Cn2 ,v072
 .byte   W06
 .byte   N16 ,Dn1 ,v108
 .byte   W06
 .byte   N11 ,Cn1 ,v124
 .byte   W12
 .byte   N23 ,Dn1 ,v096
 .byte   N23 ,Cn2 ,v068
 .byte   N24 ,Ds2 ,v104
 .byte   W12
 .byte   N11 ,Cn1 ,v120
 .byte   W12
@  #13 @028   ----------------------------------------
 .byte   Cn1 ,v127
 .byte   N68 ,Ds2 ,v104
 .byte   W12
 .byte   N11 ,Cn1 ,v112
 .byte   W12
 .byte   N23 ,Dn1 ,v104
 .byte   N23 ,Cn2 ,v068
 .byte   W12
 .byte   N11 ,Cn1 ,v116
 .byte   W12
 .byte   Cn1 ,v108
 .byte   N23 ,Cn2 ,v072
 .byte   W12
 .byte   N11 ,Cn1 ,v120
 .byte   W12
 .byte   N23 ,Dn1 ,v104
 .byte   N23 ,Cn2 ,v068
 .byte   W12
 .byte   N11 ,Cn1 ,v108
 .byte   W12
@  #13 @029   ----------------------------------------
 .byte   PATT
  .word Label_015415AF
@  #13 @030   ----------------------------------------
 .byte   PATT
  .word Label_015415DA
@  #13 @031   ----------------------------------------
 .byte   W96
@  #13 @032   ----------------------------------------
Label_0154175A:
 .byte   N23 ,Dn1 ,v104
 .byte   N92 ,Ds2
 .byte   W12
 .byte   N11 ,Cn1 ,v112
 .byte   W12
 .byte   N23 ,Dn1 ,v104
 .byte   N23 ,Cn2 ,v068
 .byte   W12
 .byte   N11 ,Cn1 ,v112
 .byte   W12
 .byte   N23 ,Dn1 ,v104
 .byte   N23 ,Cn2 ,v072
 .byte   W12
 .byte   N11 ,Cn1 ,v112
 .byte   W12
 .byte   N23 ,Dn1 ,v104
 .byte   N23 ,Cn2 ,v068
 .byte   W12
 .byte   N11 ,Cn1 ,v112
 .byte   W12
 .byte   PEND 
@  #13 @033   ----------------------------------------
Label_01541786:
 .byte   N23 ,Dn1 ,v104
 .byte   N23 ,Cn2 ,v072
 .byte   W12
 .byte   N11 ,Cn1 ,v112
 .byte   W12
 .byte   N23 ,Dn1 ,v104
 .byte   N23 ,Cn2 ,v072
 .byte   W12
 .byte   N11 ,Cn1 ,v112
 .byte   W12
 .byte   N23 ,Dn1 ,v104
 .byte   N23 ,Cn2 ,v072
 .byte   W12
 .byte   N11 ,Cn1 ,v112
 .byte   W12
 .byte   N23 ,Dn1 ,v104
 .byte   N23 ,Cn2 ,v068
 .byte   W12
 .byte   N11 ,Cn1 ,v112
 .byte   W12
 .byte   PEND 
@  #13 @034   ----------------------------------------
Label_015417B3:
 .byte   N23 ,Dn1 ,v104
 .byte   N23 ,Cn2 ,v076
 .byte   W12
 .byte   N11 ,Cn1 ,v112
 .byte   W12
 .byte   N23 ,Dn1 ,v104
 .byte   N23 ,Cn2 ,v068
 .byte   W12
 .byte   N11 ,Cn1 ,v112
 .byte   W12
 .byte   N23 ,Dn1 ,v104
 .byte   N23 ,Cn2 ,v072
 .byte   W12
 .byte   N11 ,Cn1 ,v112
 .byte   W12
 .byte   N23 ,Dn1 ,v104
 .byte   N23 ,Cn2 ,v068
 .byte   W12
 .byte   N11 ,Cn1 ,v112
 .byte   W12
 .byte   PEND 
@  #13 @035   ----------------------------------------
 .byte   PATT
  .word Label_01541786
@  #13 @036   ----------------------------------------
 .byte   PATT
  .word Label_0154175A
@  #13 @037   ----------------------------------------
 .byte   PATT
  .word Label_01541786
@  #13 @038   ----------------------------------------
 .byte   PATT
  .word Label_015417B3
@  #13 @039   ----------------------------------------
 .byte   W96
@  #13 @040   ----------------------------------------
 .byte   PATT
  .word Label_0154175A
@  #13 @041   ----------------------------------------
 .byte   PATT
  .word Label_01541786
@  #13 @042   ----------------------------------------
 .byte   PATT
  .word Label_015417B3
@  #13 @043   ----------------------------------------
 .byte   PATT
  .word Label_01541786
@  #13 @044   ----------------------------------------
 .byte   PATT
  .word Label_0154175A
@  #13 @045   ----------------------------------------
 .byte   PATT
  .word Label_01541786
@  #13 @046   ----------------------------------------
 .byte   PATT
  .word Label_015417B3
@  #13 @047   ----------------------------------------
 .byte   W96
@  #13 @048   ----------------------------------------
 .byte   PATT
  .word Label_0154175A
@  #13 @049   ----------------------------------------
 .byte   PATT
  .word Label_01541786
@  #13 @050   ----------------------------------------
 .byte   PATT
  .word Label_015417B3
@  #13 @051   ----------------------------------------
 .byte   PATT
  .word Label_01541786
@  #13 @052   ----------------------------------------
 .byte   PATT
  .word Label_01541635
@  #13 @053   ----------------------------------------
 .byte   PATT
  .word Label_015415AF
@  #13 @054   ----------------------------------------
 .byte   PATT
  .word Label_015415DA
@  #13 @055   ----------------------------------------
 .byte   W96
@  #13 @056   ----------------------------------------
 .byte   PATT
  .word Label_01541635
@  #13 @057   ----------------------------------------
 .byte   PATT
  .word Label_015415AF
@  #13 @058   ----------------------------------------
 .byte   PATT
  .word Label_015415DA
@  #13 @059   ----------------------------------------
 .byte   N11 ,Cn1 ,v112
 .byte   N23 ,Cn2 ,v072
 .byte   W12
 .byte   N11 ,Cn1 ,v108
 .byte   W12
 .byte   N23 ,Dn1 ,v104
 .byte   N23 ,Cn2 ,v072
 .byte   W12
 .byte   N11 ,Cn1 ,v116
 .byte   W12
 .byte   N05
 .byte   N23 ,Cn2 ,v072
 .byte   W06
 .byte   N18 ,Dn1 ,v108
 .byte   W06
 .byte   N11 ,Cn1 ,v124
 .byte   W12
 .byte   N05 ,Dn1 ,v096
 .byte   N23 ,Cn2 ,v068
 .byte   W12
 .byte   N11 ,Cn1 ,v120
 .byte   W12
@  #13 @060   ----------------------------------------
 .byte   PATT
  .word Label_01541635
@  #13 @061   ----------------------------------------
 .byte   PATT
  .word Label_015415AF
@  #13 @062   ----------------------------------------
 .byte   PATT
  .word Label_015415DA
@  #13 @063   ----------------------------------------
 .byte   W96
@  #13 @064   ----------------------------------------
 .byte   PATT
  .word Label_01541635
@  #13 @065   ----------------------------------------
 .byte   PATT
  .word Label_015415AF
@  #13 @066   ----------------------------------------
 .byte   PATT
  .word Label_015415DA
@  #13 @067   ----------------------------------------
 .byte   PATT
  .word Label_01541606
@  #13 @068   ----------------------------------------
 .byte   PATT
  .word Label_01541635
@  #13 @069   ----------------------------------------
 .byte   PATT
  .word Label_015415AF
@  #13 @070   ----------------------------------------
 .byte   PATT
  .word Label_015415DA
@  #13 @071   ----------------------------------------
 .byte   N11 ,Cn1 ,v112
 .byte   N23 ,Cn2 ,v072
 .byte   W96
@  #13 @072   ----------------------------------------
 .byte   GOTO
  .word Label_0154157E
 .byte   FINE

@******************************************************@
	.align	2

CallingThatDetestableName:
	.byte	13	@ NumTrks
	.byte	0	@ NumBlks
	.byte	CallingThatDetestableName_pri	@ Priority
	.byte	CallingThatDetestableName_rev	@ Reverb.
    
	.word	CallingThatDetestableName_grp
    
	.word	CallingThatDetestableName_001
	.word	CallingThatDetestableName_002
	.word	CallingThatDetestableName_003
	.word	CallingThatDetestableName_004
	.word	CallingThatDetestableName_005
	.word	CallingThatDetestableName_006
	.word	CallingThatDetestableName_007
	.word	CallingThatDetestableName_008
	.word	CallingThatDetestableName_009
	.word	CallingThatDetestableName_010
	.word	CallingThatDetestableName_011
	.word	CallingThatDetestableName_012
	.word	CallingThatDetestableName_013

	.end
