	.include "MPlayDef.s"

	.equ	DeathIDeservioli_grp, voicegroup000
	.equ	DeathIDeservioli_pri, 0
	.equ	DeathIDeservioli_rev, 0
	.equ	DeathIDeservioli_mvl, 127
	.equ	DeathIDeservioli_key, 0
	.equ	DeathIDeservioli_tbs, 1
	.equ	DeathIDeservioli_exg, 0
	.equ	DeathIDeservioli_cmp, 1

	.section .rodata
	.global	DeathIDeservioli
	.align	2


@**************** Track 1 (Midi-Chn.0) ****************@

DeathIDeservioli_001:
@  #01 @000   ----------------------------------------
 .byte   KEYSH , DeathIDeservioli_key+0
 .byte   TEMPO , 150*DeathIDeservioli_tbs/2
 .byte   VOICE , 28
 .byte   PAN , c_v+0
 .byte   VOL , 40*DeathIDeservioli_mvl/mxv
 .byte   PAN , c_v+0
 .byte   VOL , 40*DeathIDeservioli_mvl/mxv
 .byte   PAN , c_v+0
 .byte   VOL , 40*DeathIDeservioli_mvl/mxv
 .byte   BEND , c_v+0
 .byte   N12 ,Dn3 ,v100
 .byte   W12
 .byte   An3
 .byte   W12
 .byte   Dn4
 .byte   W12
 .byte   Dn3
 .byte   W12
 .byte   An3
 .byte   W12
 .byte   Dn4
 .byte   W12
 .byte   Dn3
 .byte   W12
 .byte   An3
 .byte   W12
@  #01 @001   ----------------------------------------
Label_014CB79C:
 .byte   N12 ,Dn3 ,v100
 .byte   W12
 .byte   An3
 .byte   W12
 .byte   Dn4
 .byte   W12
 .byte   Dn3
 .byte   W12
 .byte   An3
 .byte   W12
 .byte   Dn4
 .byte   W12
 .byte   Dn3
 .byte   W12
 .byte   An3
 .byte   W12
 .byte   PEND 
@  #01 @002   ----------------------------------------
 .byte   PATT
  .word Label_014CB79C
@  #01 @003   ----------------------------------------
Label_014CB7B4:
 .byte   N12 ,Cn3 ,v100
 .byte   W12
 .byte   Gn3
 .byte   W12
 .byte   Cn4
 .byte   W12
 .byte   Cn3
 .byte   W12
 .byte   Cn4
 .byte   W12
 .byte   Gn3
 .byte   W12
 .byte   Cn3
 .byte   W12
 .byte   Gn3
 .byte   W12
 .byte   PEND 
@  #01 @004   ----------------------------------------
 .byte   PATT
  .word Label_014CB79C
@  #01 @005   ----------------------------------------
 .byte   PATT
  .word Label_014CB79C
@  #01 @006   ----------------------------------------
 .byte   PATT
  .word Label_014CB79C
@  #01 @007   ----------------------------------------
 .byte   PATT
  .word Label_014CB7B4
@  #01 @008   ----------------------------------------
 .byte   PATT
  .word Label_014CB79C
@  #01 @009   ----------------------------------------
 .byte   TEMPO , 170*DeathIDeservioli_tbs/2
 .byte   PATT
  .word Label_014CB79C
@  #01 @010   ----------------------------------------
 .byte   PATT
  .word Label_014CB79C
@  #01 @011   ----------------------------------------
 .byte   PATT
  .word Label_014CB7B4
@  #01 @012   ----------------------------------------
 .byte   PATT
  .word Label_014CB79C
@  #01 @013   ----------------------------------------
 .byte   PATT
  .word Label_014CB79C
@  #01 @014   ----------------------------------------
 .byte   PATT
  .word Label_014CB79C
@  #01 @015   ----------------------------------------
 .byte   PATT
  .word Label_014CB7B4
@  #01 @016   ----------------------------------------
 .byte   PATT
  .word Label_014CB79C
@  #01 @017   ----------------------------------------
 .byte   TEMPO , 300*DeathIDeservioli_tbs/2
 .byte   PATT
  .word Label_014CB79C
@  #01 @018   ----------------------------------------
 .byte   PATT
  .word Label_014CB79C
@  #01 @019   ----------------------------------------
 .byte   PATT
  .word Label_014CB7B4
@  #01 @020   ----------------------------------------
 .byte   PATT
  .word Label_014CB79C
@  #01 @021   ----------------------------------------
 .byte   PATT
  .word Label_014CB79C
@  #01 @022   ----------------------------------------
 .byte   PATT
  .word Label_014CB79C
@  #01 @023   ----------------------------------------
 .byte   PATT
  .word Label_014CB7B4
@  #01 @024   ----------------------------------------
 .byte   PATT
  .word Label_014CB79C
@  #01 @025   ----------------------------------------
 .byte   PATT
  .word Label_014CB79C
@  #01 @026   ----------------------------------------
 .byte   PATT
  .word Label_014CB79C
@  #01 @027   ----------------------------------------
 .byte   PATT
  .word Label_014CB7B4
@  #01 @028   ----------------------------------------
 .byte   W96
@  #01 @029   ----------------------------------------
 .byte   W96
@  #01 @030   ----------------------------------------
 .byte   W96
@  #01 @031   ----------------------------------------
 .byte   W96
@  #01 @032   ----------------------------------------
 .byte   PATT
  .word Label_014CB79C
@  #01 @033   ----------------------------------------
 .byte   PATT
  .word Label_014CB79C
@  #01 @034   ----------------------------------------
 .byte   PATT
  .word Label_014CB79C
@  #01 @035   ----------------------------------------
 .byte   PATT
  .word Label_014CB7B4
@  #01 @036   ----------------------------------------
 .byte   PATT
  .word Label_014CB79C
@  #01 @037   ----------------------------------------
 .byte   PATT
  .word Label_014CB79C
@  #01 @038   ----------------------------------------
 .byte   PATT
  .word Label_014CB79C
@  #01 @039   ----------------------------------------
 .byte   PATT
  .word Label_014CB7B4
@  #01 @040   ----------------------------------------
 .byte   PATT
  .word Label_014CB79C
@  #01 @041   ----------------------------------------
 .byte   PATT
  .word Label_014CB79C
@  #01 @042   ----------------------------------------
 .byte   PATT
  .word Label_014CB79C
@  #01 @043   ----------------------------------------
 .byte   PATT
  .word Label_014CB7B4
@  #01 @044   ----------------------------------------
 .byte   W96
@  #01 @045   ----------------------------------------
 .byte   W96
@  #01 @046   ----------------------------------------
 .byte   W96
@  #01 @047   ----------------------------------------
 .byte   W96
@  #01 @048   ----------------------------------------
Label_014CB883:
@  #01 @049   ----------------------------------------
 .byte   PATT
  .word Label_014CB79C
@  #01 @050   ----------------------------------------
 .byte   PATT
  .word Label_014CB79C
@  #01 @051   ----------------------------------------
 .byte   PATT
  .word Label_014CB79C
@  #01 @052   ----------------------------------------
 .byte   PATT
  .word Label_014CB7B4
@  #01 @053   ----------------------------------------
 .byte   PATT
  .word Label_014CB79C
@  #01 @054   ----------------------------------------
 .byte   PATT
  .word Label_014CB79C
@  #01 @055   ----------------------------------------
 .byte   PATT
  .word Label_014CB79C
@  #01 @056   ----------------------------------------
 .byte   PATT
  .word Label_014CB7B4
@  #01 @057   ----------------------------------------
 .byte   PATT
  .word Label_014CB79C
@  #01 @058   ----------------------------------------
 .byte   PATT
  .word Label_014CB79C
@  #01 @059   ----------------------------------------
 .byte   PATT
  .word Label_014CB79C
@  #01 @060   ----------------------------------------
 .byte   PATT
  .word Label_014CB7B4
@  #01 @061   ----------------------------------------
 .byte   PATT
  .word Label_014CB79C
@  #01 @062   ----------------------------------------
 .byte   PATT
  .word Label_014CB79C
@  #01 @063   ----------------------------------------
 .byte   PATT
  .word Label_014CB79C
@  #01 @064   ----------------------------------------
 .byte   PATT
  .word Label_014CB7B4
@  #01 @065   ----------------------------------------
 .byte   PATT
  .word Label_014CB79C
@  #01 @066   ----------------------------------------
 .byte   PATT
  .word Label_014CB79C
@  #01 @067   ----------------------------------------
 .byte   PATT
  .word Label_014CB79C
@  #01 @068   ----------------------------------------
 .byte   PATT
  .word Label_014CB7B4
@  #01 @069   ----------------------------------------
 .byte   PATT
  .word Label_014CB79C
@  #01 @070   ----------------------------------------
 .byte   PATT
  .word Label_014CB79C
@  #01 @071   ----------------------------------------
 .byte   PATT
  .word Label_014CB79C
@  #01 @072   ----------------------------------------
 .byte   PATT
  .word Label_014CB7B4
@  #01 @073   ----------------------------------------
 .byte   PATT
  .word Label_014CB79C
@  #01 @074   ----------------------------------------
 .byte   PATT
  .word Label_014CB79C
@  #01 @075   ----------------------------------------
 .byte   PATT
  .word Label_014CB79C
@  #01 @076   ----------------------------------------
 .byte   PATT
  .word Label_014CB7B4
@  #01 @077   ----------------------------------------
 .byte   PATT
  .word Label_014CB79C
@  #01 @078   ----------------------------------------
 .byte   PATT
  .word Label_014CB79C
@  #01 @079   ----------------------------------------
 .byte   PATT
  .word Label_014CB79C
@  #01 @080   ----------------------------------------
 .byte   PATT
  .word Label_014CB7B4
@  #01 @081   ----------------------------------------
 .byte   W96
@  #01 @082   ----------------------------------------
 .byte   W96
@  #01 @083   ----------------------------------------
 .byte   W96
@  #01 @084   ----------------------------------------
 .byte   W96
@  #01 @085   ----------------------------------------
 .byte   W96
@  #01 @086   ----------------------------------------
 .byte   W96
@  #01 @087   ----------------------------------------
 .byte   W96
@  #01 @088   ----------------------------------------
 .byte   W96
@  #01 @089   ----------------------------------------
 .byte   W96
@  #01 @090   ----------------------------------------
 .byte   W96
@  #01 @091   ----------------------------------------
 .byte   W96
@  #01 @092   ----------------------------------------
 .byte   W96
@  #01 @093   ----------------------------------------
 .byte   W96
@  #01 @094   ----------------------------------------
 .byte   W96
@  #01 @095   ----------------------------------------
 .byte   W96
@  #01 @096   ----------------------------------------
 .byte   W96
@  #01 @097   ----------------------------------------
 .byte   W96
@  #01 @098   ----------------------------------------
 .byte   W96
@  #01 @099   ----------------------------------------
 .byte   W96
@  #01 @100   ----------------------------------------
 .byte   W96
@  #01 @101   ----------------------------------------
 .byte   W96
@  #01 @102   ----------------------------------------
 .byte   W96
@  #01 @103   ----------------------------------------
 .byte   W96
@  #01 @104   ----------------------------------------
 .byte   W96
@  #01 @105   ----------------------------------------
 .byte   W96
@  #01 @106   ----------------------------------------
 .byte   W96
@  #01 @107   ----------------------------------------
 .byte   W96
@  #01 @108   ----------------------------------------
 .byte   W96
@  #01 @109   ----------------------------------------
 .byte   W96
@  #01 @110   ----------------------------------------
 .byte   W96
@  #01 @111   ----------------------------------------
 .byte   W96
@  #01 @112   ----------------------------------------
 .byte   W96
@  #01 @113   ----------------------------------------
 .byte   PATT
  .word Label_014CB79C
@  #01 @114   ----------------------------------------
 .byte   PATT
  .word Label_014CB79C
@  #01 @115   ----------------------------------------
 .byte   PATT
  .word Label_014CB79C
@  #01 @116   ----------------------------------------
 .byte   PATT
  .word Label_014CB7B4
@  #01 @117   ----------------------------------------
 .byte   PATT
  .word Label_014CB79C
@  #01 @118   ----------------------------------------
 .byte   PATT
  .word Label_014CB79C
@  #01 @119   ----------------------------------------
 .byte   PATT
  .word Label_014CB79C
@  #01 @120   ----------------------------------------
 .byte   PATT
  .word Label_014CB7B4
@  #01 @121   ----------------------------------------
 .byte   PATT
  .word Label_014CB79C
@  #01 @122   ----------------------------------------
 .byte   PATT
  .word Label_014CB79C
@  #01 @123   ----------------------------------------
 .byte   PATT
  .word Label_014CB79C
@  #01 @124   ----------------------------------------
 .byte   PATT
  .word Label_014CB7B4
@  #01 @125   ----------------------------------------
 .byte   PATT
  .word Label_014CB79C
@  #01 @126   ----------------------------------------
 .byte   PATT
  .word Label_014CB79C
@  #01 @127   ----------------------------------------
 .byte   PATT
  .word Label_014CB79C
@  #01 @128   ----------------------------------------
 .byte   PATT
  .word Label_014CB7B4
@  #01 @129   ----------------------------------------
 .byte   PATT
  .word Label_014CB79C
@  #01 @130   ----------------------------------------
 .byte   PATT
  .word Label_014CB79C
@  #01 @131   ----------------------------------------
 .byte   PATT
  .word Label_014CB79C
@  #01 @132   ----------------------------------------
 .byte   PATT
  .word Label_014CB7B4
@  #01 @133   ----------------------------------------
 .byte   PATT
  .word Label_014CB79C
@  #01 @134   ----------------------------------------
 .byte   PATT
  .word Label_014CB79C
@  #01 @135   ----------------------------------------
 .byte   PATT
  .word Label_014CB79C
@  #01 @136   ----------------------------------------
 .byte   PATT
  .word Label_014CB7B4
@  #01 @137   ----------------------------------------
 .byte   PATT
  .word Label_014CB79C
@  #01 @138   ----------------------------------------
 .byte   PATT
  .word Label_014CB79C
@  #01 @139   ----------------------------------------
 .byte   PATT
  .word Label_014CB79C
@  #01 @140   ----------------------------------------
 .byte   PATT
  .word Label_014CB7B4
@  #01 @141   ----------------------------------------
 .byte   W96
@  #01 @142   ----------------------------------------
 .byte   W96
@  #01 @143   ----------------------------------------
 .byte   W96
@  #01 @144   ----------------------------------------
 .byte   W96
@  #01 @145   ----------------------------------------
 .byte   W96
@  #01 @146   ----------------------------------------
 .byte   W96
@  #01 @147   ----------------------------------------
 .byte   W96
@  #01 @148   ----------------------------------------
 .byte   W96
@  #01 @149   ----------------------------------------
 .byte   W96
@  #01 @150   ----------------------------------------
 .byte   W96
@  #01 @151   ----------------------------------------
 .byte   W96
@  #01 @152   ----------------------------------------
 .byte   W96
@  #01 @153   ----------------------------------------
 .byte   W96
@  #01 @154   ----------------------------------------
 .byte   W96
@  #01 @155   ----------------------------------------
 .byte   W96
@  #01 @156   ----------------------------------------
 .byte   W96
@  #01 @157   ----------------------------------------
 .byte   W96
@  #01 @158   ----------------------------------------
 .byte   W96
@  #01 @159   ----------------------------------------
 .byte   W96
@  #01 @160   ----------------------------------------
 .byte   W96
@  #01 @161   ----------------------------------------
 .byte   W96
@  #01 @162   ----------------------------------------
 .byte   W96
@  #01 @163   ----------------------------------------
 .byte   W96
@  #01 @164   ----------------------------------------
 .byte   W96
@  #01 @165   ----------------------------------------
 .byte   W96
@  #01 @166   ----------------------------------------
 .byte   W96
@  #01 @167   ----------------------------------------
 .byte   W96
@  #01 @168   ----------------------------------------
 .byte   W96
@  #01 @169   ----------------------------------------
 .byte   W96
@  #01 @170   ----------------------------------------
 .byte   W96
@  #01 @171   ----------------------------------------
 .byte   W96
@  #01 @172   ----------------------------------------
 .byte   W96
@  #01 @173   ----------------------------------------
 .byte   W96
@  #01 @174   ----------------------------------------
 .byte   W96
@  #01 @175   ----------------------------------------
 .byte   W96
@  #01 @176   ----------------------------------------
 .byte   W96
@  #01 @177   ----------------------------------------
 .byte   W96
@  #01 @178   ----------------------------------------
 .byte   W96
@  #01 @179   ----------------------------------------
 .byte   W96
@  #01 @180   ----------------------------------------
 .byte   W96
@  #01 @181   ----------------------------------------
 .byte   W96
@  #01 @182   ----------------------------------------
 .byte   W96
@  #01 @183   ----------------------------------------
 .byte   W96
@  #01 @184   ----------------------------------------
 .byte   W96
@  #01 @185   ----------------------------------------
 .byte   W96
@  #01 @186   ----------------------------------------
 .byte   W96
@  #01 @187   ----------------------------------------
 .byte   W96
@  #01 @188   ----------------------------------------
 .byte   W96
@  #01 @189   ----------------------------------------
 .byte   W96
@  #01 @190   ----------------------------------------
 .byte   W96
@  #01 @191   ----------------------------------------
 .byte   W96
@  #01 @192   ----------------------------------------
 .byte   W96
@  #01 @193   ----------------------------------------
 .byte   W96
@  #01 @194   ----------------------------------------
 .byte   W96
@  #01 @195   ----------------------------------------
 .byte   W96
@  #01 @196   ----------------------------------------
 .byte   W96
@  #01 @197   ----------------------------------------
 .byte   W96
@  #01 @198   ----------------------------------------
 .byte   W96
@  #01 @199   ----------------------------------------
 .byte   W96
@  #01 @200   ----------------------------------------
 .byte   W96
@  #01 @201   ----------------------------------------
 .byte   W96
@  #01 @202   ----------------------------------------
 .byte   W96
@  #01 @203   ----------------------------------------
 .byte   W96
@  #01 @204   ----------------------------------------
 .byte   W96
@  #01 @205   ----------------------------------------
 .byte   W96
@  #01 @206   ----------------------------------------
 .byte   W96
@  #01 @207   ----------------------------------------
 .byte   W96
@  #01 @208   ----------------------------------------
 .byte   W96
@  #01 @209   ----------------------------------------
 .byte   W96
@  #01 @210   ----------------------------------------
 .byte   W96
@  #01 @211   ----------------------------------------
 .byte   W96
@  #01 @212   ----------------------------------------
 .byte   W96
@  #01 @213   ----------------------------------------
 .byte   W96
@  #01 @214   ----------------------------------------
 .byte   W96
@  #01 @215   ----------------------------------------
 .byte   W96
@  #01 @216   ----------------------------------------
 .byte   W96
@  #01 @217   ----------------------------------------
 .byte   W96
@  #01 @218   ----------------------------------------
 .byte   W96
@  #01 @219   ----------------------------------------
 .byte   W96
@  #01 @220   ----------------------------------------
 .byte   W96
@  #01 @221   ----------------------------------------
 .byte   W96
@  #01 @222   ----------------------------------------
 .byte   W96
@  #01 @223   ----------------------------------------
 .byte   W96
@  #01 @224   ----------------------------------------
 .byte   W96
@  #01 @225   ----------------------------------------
 .byte   PATT
  .word Label_014CB79C
@  #01 @226   ----------------------------------------
 .byte   PATT
  .word Label_014CB79C
@  #01 @227   ----------------------------------------
 .byte   PATT
  .word Label_014CB79C
@  #01 @228   ----------------------------------------
 .byte   PATT
  .word Label_014CB7B4
@  #01 @229   ----------------------------------------
 .byte   PATT
  .word Label_014CB79C
@  #01 @230   ----------------------------------------
 .byte   PATT
  .word Label_014CB79C
@  #01 @231   ----------------------------------------
 .byte   PATT
  .word Label_014CB79C
@  #01 @232   ----------------------------------------
 .byte   PATT
  .word Label_014CB7B4
@  #01 @233   ----------------------------------------
 .byte   PATT
  .word Label_014CB79C
@  #01 @234   ----------------------------------------
 .byte   PATT
  .word Label_014CB79C
@  #01 @235   ----------------------------------------
 .byte   PATT
  .word Label_014CB79C
@  #01 @236   ----------------------------------------
 .byte   PATT
  .word Label_014CB7B4
@  #01 @237   ----------------------------------------
 .byte   W96
@  #01 @238   ----------------------------------------
 .byte   W96
@  #01 @239   ----------------------------------------
 .byte   W96
@  #01 @240   ----------------------------------------
 .byte   W96
@  #01 @241   ----------------------------------------
 .byte   W96
@  #01 @242   ----------------------------------------
 .byte   W96
@  #01 @243   ----------------------------------------
 .byte   W96
@  #01 @244   ----------------------------------------
 .byte   GOTO
  .word Label_014CB883
@  #01 @245   ----------------------------------------
 .byte   W96
@  #01 @246   ----------------------------------------
 .byte   PAN , c_v+0
 .byte   VOL , 40*DeathIDeservioli_mvl/mxv
 .byte   PAN , c_v+0
 .byte   VOL , 40*DeathIDeservioli_mvl/mxv
 .byte   PAN , c_v+0
 .byte   VOL , 40*DeathIDeservioli_mvl/mxv
 .byte   BEND , c_v+0
 .byte   FINE

@**************** Track 2 (Midi-Chn.1) ****************@

DeathIDeservioli_002:
@  #02 @000   ----------------------------------------
 .byte   KEYSH , DeathIDeservioli_key+0
 .byte   VOICE , 30
 .byte   PAN , c_v+0
 .byte   VOL , 40*DeathIDeservioli_mvl/mxv
 .byte   PAN , c_v+0
 .byte   VOL , 40*DeathIDeservioli_mvl/mxv
 .byte   PAN , c_v+0
 .byte   VOL , 40*DeathIDeservioli_mvl/mxv
 .byte   BEND , c_v+0
 .byte   W96
@  #02 @001   ----------------------------------------
 .byte   W96
@  #02 @002   ----------------------------------------
 .byte   W96
@  #02 @003   ----------------------------------------
 .byte   W96
@  #02 @004   ----------------------------------------
 .byte   W96
@  #02 @005   ----------------------------------------
 .byte   W96
@  #02 @006   ----------------------------------------
 .byte   W96
@  #02 @007   ----------------------------------------
 .byte   W96
@  #02 @008   ----------------------------------------
 .byte   W96
@  #02 @009   ----------------------------------------
 .byte   W96
@  #02 @010   ----------------------------------------
 .byte   W96
@  #02 @011   ----------------------------------------
 .byte   W96
@  #02 @012   ----------------------------------------
 .byte   W96
@  #02 @013   ----------------------------------------
 .byte   W96
@  #02 @014   ----------------------------------------
 .byte   W96
@  #02 @015   ----------------------------------------
 .byte   W96
@  #02 @016   ----------------------------------------
Label_014CBF66:
 .byte   N24 ,Dn2 ,v084
 .byte   N24 ,An2
 .byte   N24 ,Dn3
 .byte   W48
 .byte   Dn2
 .byte   N24 ,An2
 .byte   N24 ,Dn3
 .byte   W48
 .byte   PEND 
@  #02 @017   ----------------------------------------
Label_014CBF75:
 .byte   N18 ,Dn2 ,v084
 .byte   N18 ,An2
 .byte   N18 ,Dn3
 .byte   W24
 .byte   Dn2
 .byte   N18 ,An2
 .byte   N18 ,Dn3
 .byte   W24
 .byte   N24 ,Cn2
 .byte   N24 ,Gn2
 .byte   N24 ,Cn3
 .byte   W24
 .byte   Dn2
 .byte   N24 ,An2
 .byte   N24 ,Dn3
 .byte   W24
 .byte   PEND 
@  #02 @018   ----------------------------------------
Label_014CBF91:
 .byte   W24
 .byte   N24 ,Cn2 ,v084
 .byte   N24 ,Gn2
 .byte   N24 ,Cn3
 .byte   W24
 .byte   Dn2
 .byte   N24 ,An2
 .byte   N24 ,Dn3
 .byte   W24
 .byte   Cn2
 .byte   N24 ,Gn2
 .byte   N24 ,Cn3
 .byte   W24
 .byte   PEND 
@  #02 @019   ----------------------------------------
Label_014CBFA7:
 .byte   N96 ,Fn2 ,v084
 .byte   N96 ,Cn3
 .byte   N96 ,Fn3
 .byte   W96
 .byte   PEND 
@  #02 @020   ----------------------------------------
 .byte   PATT
  .word Label_014CBF66
@  #02 @021   ----------------------------------------
 .byte   PATT
  .word Label_014CBF75
@  #02 @022   ----------------------------------------
 .byte   PATT
  .word Label_014CBF91
@  #02 @023   ----------------------------------------
Label_014CBFBF:
 .byte   N48 ,Gn2 ,v084
 .byte   N48 ,Dn3
 .byte   N48 ,Gn3
 .byte   W48
 .byte   An2
 .byte   N48 ,En3
 .byte   N48 ,An3
 .byte   W48
 .byte   PEND 
@  #02 @024   ----------------------------------------
 .byte   PATT
  .word Label_014CBF66
@  #02 @025   ----------------------------------------
 .byte   PATT
  .word Label_014CBF75
@  #02 @026   ----------------------------------------
 .byte   PATT
  .word Label_014CBF91
@  #02 @027   ----------------------------------------
 .byte   PATT
  .word Label_014CBFA7
@  #02 @028   ----------------------------------------
Label_014CBFE2:
 .byte   TIE ,Cn2 ,v084
 .byte   TIE ,Gn2
 .byte   TIE ,Cn3
 .byte   TIE ,Gn3
 .byte   W96
 .byte   PEND 
@  #02 @029   ----------------------------------------
 .byte   W96
@  #02 @030   ----------------------------------------
 .byte   EOT
 .byte   Cn2 ,v055
 .byte   Cn3 ,v067
Label_014CBFF3:
 .byte   N96 ,Bn1 ,v084
 .byte   N96 ,Fs2
 .byte   N96 ,Bn2
 .byte   N96 ,Fs3
 .byte   W96
 .byte   PEND 
@  #02 @031   ----------------------------------------
Label_014CBFFE:
 .byte   N96 ,As1 ,v084
 .byte   N96 ,Fn2
 .byte   N96 ,As2
 .byte   N96 ,Fn3
 .byte   W96
 .byte   PEND 
@  #02 @032   ----------------------------------------
 .byte   PATT
  .word Label_014CBF66
@  #02 @033   ----------------------------------------
 .byte   PATT
  .word Label_014CBF75
@  #02 @034   ----------------------------------------
 .byte   PATT
  .word Label_014CBF91
@  #02 @035   ----------------------------------------
 .byte   PATT
  .word Label_014CBFA7
@  #02 @036   ----------------------------------------
 .byte   PATT
  .word Label_014CBF66
@  #02 @037   ----------------------------------------
 .byte   PATT
  .word Label_014CBF75
@  #02 @038   ----------------------------------------
 .byte   PATT
  .word Label_014CBF91
@  #02 @039   ----------------------------------------
 .byte   PATT
  .word Label_014CBFBF
@  #02 @040   ----------------------------------------
 .byte   PATT
  .word Label_014CBF66
@  #02 @041   ----------------------------------------
 .byte   PATT
  .word Label_014CBF75
@  #02 @042   ----------------------------------------
 .byte   PATT
  .word Label_014CBF91
@  #02 @043   ----------------------------------------
 .byte   PATT
  .word Label_014CBFA7
@  #02 @044   ----------------------------------------
 .byte   PATT
  .word Label_014CBFE2
@  #02 @045   ----------------------------------------
 .byte   W96
@  #02 @046   ----------------------------------------
 .byte   EOT
 .byte   Cn2 ,v055
 .byte   Cn3 ,v067
@  #02 @047   ----------------------------------------
 .byte   PATT
  .word Label_014CBFF3
@  #02 @048   ----------------------------------------
 .byte   PATT
  .word Label_014CBFFE
@  #02 @049   ----------------------------------------
Label_014CC05A:
@  #02 @050   ----------------------------------------
 .byte   PATT
  .word Label_014CBF66
@  #02 @051   ----------------------------------------
 .byte   PATT
  .word Label_014CBF75
@  #02 @052   ----------------------------------------
 .byte   PATT
  .word Label_014CBF91
@  #02 @053   ----------------------------------------
 .byte   PATT
  .word Label_014CBFA7
@  #02 @054   ----------------------------------------
 .byte   PATT
  .word Label_014CBF66
@  #02 @055   ----------------------------------------
 .byte   PATT
  .word Label_014CBF75
@  #02 @056   ----------------------------------------
 .byte   PATT
  .word Label_014CBF91
@  #02 @057   ----------------------------------------
Label_014CC07D:
 .byte   N48 ,Fn2 ,v084
 .byte   N48 ,Cn3
 .byte   N48 ,Fn3
 .byte   W48
 .byte   Gn2
 .byte   N48 ,Dn3
 .byte   N48 ,Gn3
 .byte   W48
 .byte   PEND 
@  #02 @058   ----------------------------------------
 .byte   PATT
  .word Label_014CBF66
@  #02 @059   ----------------------------------------
 .byte   PATT
  .word Label_014CBF75
@  #02 @060   ----------------------------------------
 .byte   PATT
  .word Label_014CBF91
@  #02 @061   ----------------------------------------
 .byte   PATT
  .word Label_014CBFA7
@  #02 @062   ----------------------------------------
 .byte   PATT
  .word Label_014CBFE2
@  #02 @063   ----------------------------------------
 .byte   W96
@  #02 @064   ----------------------------------------
 .byte   EOT
 .byte   Cn2 ,v055
 .byte   Cn3 ,v067
@  #02 @065   ----------------------------------------
 .byte   PATT
  .word Label_014CBFF3
@  #02 @066   ----------------------------------------
 .byte   PATT
  .word Label_014CBFFE
@  #02 @067   ----------------------------------------
 .byte   PATT
  .word Label_014CBF66
@  #02 @068   ----------------------------------------
 .byte   PATT
  .word Label_014CBF75
@  #02 @069   ----------------------------------------
 .byte   PATT
  .word Label_014CBF91
@  #02 @070   ----------------------------------------
 .byte   PATT
  .word Label_014CBFA7
@  #02 @071   ----------------------------------------
 .byte   PATT
  .word Label_014CBF66
@  #02 @072   ----------------------------------------
 .byte   PATT
  .word Label_014CBF75
@  #02 @073   ----------------------------------------
 .byte   PATT
  .word Label_014CBF91
@  #02 @074   ----------------------------------------
 .byte   PATT
  .word Label_014CC07D
@  #02 @075   ----------------------------------------
 .byte   PATT
  .word Label_014CBF66
@  #02 @076   ----------------------------------------
 .byte   PATT
  .word Label_014CBF75
@  #02 @077   ----------------------------------------
 .byte   PATT
  .word Label_014CBF91
@  #02 @078   ----------------------------------------
 .byte   PATT
  .word Label_014CBFA7
@  #02 @079   ----------------------------------------
 .byte   PATT
  .word Label_014CBFE2
@  #02 @080   ----------------------------------------
 .byte   W96
@  #02 @081   ----------------------------------------
 .byte   EOT
 .byte   Cn2 ,v055
 .byte   Cn3 ,v067
@  #02 @082   ----------------------------------------
 .byte   PATT
  .word Label_014CBFF3
@  #02 @083   ----------------------------------------
 .byte   PATT
  .word Label_014CBFFE
@  #02 @084   ----------------------------------------
Label_014CC106:
 .byte   N24 ,En2 ,v084
 .byte   N24 ,Bn2
 .byte   N24 ,En3
 .byte   W48
 .byte   En2
 .byte   N24 ,Bn2
 .byte   N24 ,En3
 .byte   W48
 .byte   PEND 
@  #02 @085   ----------------------------------------
Label_014CC115:
 .byte   N18 ,En2 ,v084
 .byte   N18 ,Bn2
 .byte   N18 ,En3
 .byte   W24
 .byte   En2
 .byte   N18 ,Bn2
 .byte   N18 ,En3
 .byte   W24
 .byte   N24 ,Dn2
 .byte   N24 ,An2
 .byte   N24 ,Dn3
 .byte   W24
 .byte   En2
 .byte   N24 ,Bn2
 .byte   N24 ,En3
 .byte   W24
 .byte   PEND 
@  #02 @086   ----------------------------------------
Label_014CC131:
 .byte   W24
 .byte   N24 ,Dn2 ,v084
 .byte   N24 ,An2
 .byte   N24 ,Dn3
 .byte   W24
 .byte   En2
 .byte   N24 ,Bn2
 .byte   N24 ,En3
 .byte   W24
 .byte   Dn2
 .byte   N24 ,An2
 .byte   N24 ,Dn3
 .byte   W24
 .byte   PEND 
@  #02 @087   ----------------------------------------
Label_014CC147:
 .byte   N96 ,Gn2 ,v084
 .byte   N96 ,Dn3
 .byte   N96 ,Gn3
 .byte   W96
 .byte   PEND 
@  #02 @088   ----------------------------------------
 .byte   PATT
  .word Label_014CC106
@  #02 @089   ----------------------------------------
 .byte   PATT
  .word Label_014CC115
@  #02 @090   ----------------------------------------
 .byte   PATT
  .word Label_014CC131
@  #02 @091   ----------------------------------------
 .byte   PATT
  .word Label_014CBFBF
@  #02 @092   ----------------------------------------
 .byte   PATT
  .word Label_014CC106
@  #02 @093   ----------------------------------------
 .byte   PATT
  .word Label_014CC115
@  #02 @094   ----------------------------------------
 .byte   PATT
  .word Label_014CC131
@  #02 @095   ----------------------------------------
 .byte   PATT
  .word Label_014CC147
@  #02 @096   ----------------------------------------
Label_014CC178:
 .byte   TIE ,Dn2 ,v084
 .byte   TIE ,An2
 .byte   TIE ,Dn3
 .byte   TIE ,An3
 .byte   W96
 .byte   PEND 
@  #02 @097   ----------------------------------------
 .byte   W96
@  #02 @098   ----------------------------------------
 .byte   EOT
 .byte   Dn2 ,v057
 .byte   Dn3 ,v069
Label_014CC189:
 .byte   N96 ,Cs2 ,v084
 .byte   N96 ,Gs2
 .byte   N96 ,Cs3
 .byte   N96 ,Gs3
 .byte   W96
 .byte   PEND 
@  #02 @099   ----------------------------------------
Label_014CC194:
 .byte   N96 ,Cn2 ,v084
 .byte   N96 ,Gn2
 .byte   N96 ,Cn3
 .byte   N96 ,Gn3
 .byte   W96
 .byte   PEND 
@  #02 @100   ----------------------------------------
 .byte   PATT
  .word Label_014CC106
@  #02 @101   ----------------------------------------
 .byte   PATT
  .word Label_014CC115
@  #02 @102   ----------------------------------------
 .byte   PATT
  .word Label_014CC131
@  #02 @103   ----------------------------------------
 .byte   PATT
  .word Label_014CC147
@  #02 @104   ----------------------------------------
 .byte   PATT
  .word Label_014CC106
@  #02 @105   ----------------------------------------
 .byte   PATT
  .word Label_014CC115
@  #02 @106   ----------------------------------------
 .byte   PATT
  .word Label_014CC131
@  #02 @107   ----------------------------------------
 .byte   PATT
  .word Label_014CBFBF
@  #02 @108   ----------------------------------------
 .byte   PATT
  .word Label_014CC106
@  #02 @109   ----------------------------------------
 .byte   PATT
  .word Label_014CC115
@  #02 @110   ----------------------------------------
 .byte   PATT
  .word Label_014CC131
@  #02 @111   ----------------------------------------
 .byte   PATT
  .word Label_014CC147
@  #02 @112   ----------------------------------------
 .byte   PATT
  .word Label_014CC178
@  #02 @113   ----------------------------------------
 .byte   W96
@  #02 @114   ----------------------------------------
 .byte   EOT
 .byte   Dn2 ,v057
 .byte   Dn3 ,v069
@  #02 @115   ----------------------------------------
 .byte   PATT
  .word Label_014CC189
@  #02 @116   ----------------------------------------
 .byte   PATT
  .word Label_014CC194
@  #02 @117   ----------------------------------------
 .byte   PATT
  .word Label_014CBF66
@  #02 @118   ----------------------------------------
 .byte   PATT
  .word Label_014CBF75
@  #02 @119   ----------------------------------------
 .byte   PATT
  .word Label_014CBF91
@  #02 @120   ----------------------------------------
 .byte   PATT
  .word Label_014CBFA7
@  #02 @121   ----------------------------------------
 .byte   PATT
  .word Label_014CBF66
@  #02 @122   ----------------------------------------
 .byte   PATT
  .word Label_014CBF75
@  #02 @123   ----------------------------------------
 .byte   PATT
  .word Label_014CBF91
@  #02 @124   ----------------------------------------
 .byte   PATT
  .word Label_014CC07D
@  #02 @125   ----------------------------------------
 .byte   PATT
  .word Label_014CBF66
@  #02 @126   ----------------------------------------
 .byte   PATT
  .word Label_014CBF75
@  #02 @127   ----------------------------------------
 .byte   PATT
  .word Label_014CBF91
@  #02 @128   ----------------------------------------
 .byte   PATT
  .word Label_014CBFA7
@  #02 @129   ----------------------------------------
 .byte   PATT
  .word Label_014CBFE2
@  #02 @130   ----------------------------------------
 .byte   W96
@  #02 @131   ----------------------------------------
 .byte   EOT
 .byte   Cn2 ,v055
 .byte   Cn3 ,v067
@  #02 @132   ----------------------------------------
 .byte   PATT
  .word Label_014CBFF3
@  #02 @133   ----------------------------------------
 .byte   PATT
  .word Label_014CBFFE
@  #02 @134   ----------------------------------------
 .byte   PATT
  .word Label_014CBF66
@  #02 @135   ----------------------------------------
 .byte   PATT
  .word Label_014CBF75
@  #02 @136   ----------------------------------------
 .byte   PATT
  .word Label_014CBF91
@  #02 @137   ----------------------------------------
 .byte   PATT
  .word Label_014CBFA7
@  #02 @138   ----------------------------------------
 .byte   PATT
  .word Label_014CBF66
@  #02 @139   ----------------------------------------
 .byte   PATT
  .word Label_014CBF75
@  #02 @140   ----------------------------------------
 .byte   PATT
  .word Label_014CBF91
@  #02 @141   ----------------------------------------
 .byte   PATT
  .word Label_014CC07D
@  #02 @142   ----------------------------------------
 .byte   PATT
  .word Label_014CBF66
@  #02 @143   ----------------------------------------
 .byte   PATT
  .word Label_014CBF75
@  #02 @144   ----------------------------------------
 .byte   PATT
  .word Label_014CBF91
@  #02 @145   ----------------------------------------
 .byte   PATT
  .word Label_014CBFA7
@  #02 @146   ----------------------------------------
 .byte   PATT
  .word Label_014CBFE2
@  #02 @147   ----------------------------------------
 .byte   W96
@  #02 @148   ----------------------------------------
 .byte   EOT
 .byte   Cn2 ,v055
 .byte   Cn3 ,v067
@  #02 @149   ----------------------------------------
 .byte   PATT
  .word Label_014CBFF3
@  #02 @150   ----------------------------------------
 .byte   PATT
  .word Label_014CBFFE
@  #02 @151   ----------------------------------------
 .byte   PATT
  .word Label_014CC106
@  #02 @152   ----------------------------------------
 .byte   PATT
  .word Label_014CC115
@  #02 @153   ----------------------------------------
 .byte   PATT
  .word Label_014CC131
@  #02 @154   ----------------------------------------
 .byte   PATT
  .word Label_014CC147
@  #02 @155   ----------------------------------------
 .byte   PATT
  .word Label_014CC106
@  #02 @156   ----------------------------------------
 .byte   PATT
  .word Label_014CC115
@  #02 @157   ----------------------------------------
 .byte   PATT
  .word Label_014CC131
@  #02 @158   ----------------------------------------
 .byte   PATT
  .word Label_014CBFBF
@  #02 @159   ----------------------------------------
 .byte   PATT
  .word Label_014CC106
@  #02 @160   ----------------------------------------
 .byte   PATT
  .word Label_014CC115
@  #02 @161   ----------------------------------------
 .byte   PATT
  .word Label_014CC131
@  #02 @162   ----------------------------------------
 .byte   PATT
  .word Label_014CC147
@  #02 @163   ----------------------------------------
 .byte   PATT
  .word Label_014CC178
@  #02 @164   ----------------------------------------
 .byte   W96
@  #02 @165   ----------------------------------------
 .byte   EOT
 .byte   Dn2 ,v057
 .byte   Dn3 ,v069
@  #02 @166   ----------------------------------------
 .byte   PATT
  .word Label_014CC189
@  #02 @167   ----------------------------------------
 .byte   PATT
  .word Label_014CC194
@  #02 @168   ----------------------------------------
 .byte   PATT
  .word Label_014CC106
@  #02 @169   ----------------------------------------
 .byte   PATT
  .word Label_014CC115
@  #02 @170   ----------------------------------------
 .byte   PATT
  .word Label_014CC131
@  #02 @171   ----------------------------------------
 .byte   PATT
  .word Label_014CC147
@  #02 @172   ----------------------------------------
 .byte   PATT
  .word Label_014CC106
@  #02 @173   ----------------------------------------
 .byte   PATT
  .word Label_014CC115
@  #02 @174   ----------------------------------------
 .byte   PATT
  .word Label_014CC131
@  #02 @175   ----------------------------------------
 .byte   PATT
  .word Label_014CBFBF
@  #02 @176   ----------------------------------------
 .byte   PATT
  .word Label_014CC106
@  #02 @177   ----------------------------------------
 .byte   PATT
  .word Label_014CC115
@  #02 @178   ----------------------------------------
 .byte   PATT
  .word Label_014CC131
@  #02 @179   ----------------------------------------
 .byte   PATT
  .word Label_014CC147
@  #02 @180   ----------------------------------------
 .byte   PATT
  .word Label_014CC178
@  #02 @181   ----------------------------------------
 .byte   W96
@  #02 @182   ----------------------------------------
 .byte   EOT
 .byte   Dn2 ,v057
 .byte   Dn3 ,v069
@  #02 @183   ----------------------------------------
 .byte   PATT
  .word Label_014CC189
@  #02 @184   ----------------------------------------
 .byte   PATT
  .word Label_014CC194
@  #02 @185   ----------------------------------------
 .byte   W96
@  #02 @186   ----------------------------------------
 .byte   W96
@  #02 @187   ----------------------------------------
 .byte   W96
@  #02 @188   ----------------------------------------
 .byte   W96
@  #02 @189   ----------------------------------------
 .byte   W96
@  #02 @190   ----------------------------------------
 .byte   W96
@  #02 @191   ----------------------------------------
 .byte   W96
@  #02 @192   ----------------------------------------
 .byte   W96
@  #02 @193   ----------------------------------------
 .byte   W96
@  #02 @194   ----------------------------------------
 .byte   W96
@  #02 @195   ----------------------------------------
 .byte   W96
@  #02 @196   ----------------------------------------
 .byte   W96
@  #02 @197   ----------------------------------------
 .byte   W96
@  #02 @198   ----------------------------------------
 .byte   W96
@  #02 @199   ----------------------------------------
 .byte   W96
@  #02 @200   ----------------------------------------
 .byte   W96
@  #02 @201   ----------------------------------------
 .byte   W96
@  #02 @202   ----------------------------------------
 .byte   W96
@  #02 @203   ----------------------------------------
 .byte   W96
@  #02 @204   ----------------------------------------
 .byte   W96
@  #02 @205   ----------------------------------------
 .byte   W96
@  #02 @206   ----------------------------------------
 .byte   W96
@  #02 @207   ----------------------------------------
 .byte   W96
@  #02 @208   ----------------------------------------
 .byte   W96
@  #02 @209   ----------------------------------------
 .byte   W96
@  #02 @210   ----------------------------------------
 .byte   W96
@  #02 @211   ----------------------------------------
 .byte   W96
@  #02 @212   ----------------------------------------
 .byte   W96
@  #02 @213   ----------------------------------------
 .byte   TIE ,Cn2 ,v112
 .byte   W96
@  #02 @214   ----------------------------------------
 .byte   W96
@  #02 @215   ----------------------------------------
 .byte   EOT
 .byte   N96 ,Bn1
 .byte   W96
@  #02 @216   ----------------------------------------
 .byte   As1
 .byte   W96
@  #02 @217   ----------------------------------------
 .byte   W96
@  #02 @218   ----------------------------------------
 .byte   W96
@  #02 @219   ----------------------------------------
 .byte   W96
@  #02 @220   ----------------------------------------
 .byte   W96
@  #02 @221   ----------------------------------------
 .byte   W96
@  #02 @222   ----------------------------------------
 .byte   W96
@  #02 @223   ----------------------------------------
 .byte   W96
@  #02 @224   ----------------------------------------
 .byte   W96
@  #02 @225   ----------------------------------------
 .byte   W96
@  #02 @226   ----------------------------------------
 .byte   W96
@  #02 @227   ----------------------------------------
 .byte   W96
@  #02 @228   ----------------------------------------
 .byte   W96
@  #02 @229   ----------------------------------------
 .byte   TIE ,Cn2
 .byte   W96
@  #02 @230   ----------------------------------------
 .byte   W96
@  #02 @231   ----------------------------------------
 .byte   EOT
 .byte   N96 ,Bn1
 .byte   W96
@  #02 @232   ----------------------------------------
 .byte   As1
 .byte   W96
@  #02 @233   ----------------------------------------
 .byte   PATT
  .word Label_014CBF66
@  #02 @234   ----------------------------------------
 .byte   PATT
  .word Label_014CBF75
@  #02 @235   ----------------------------------------
 .byte   PATT
  .word Label_014CBF91
@  #02 @236   ----------------------------------------
 .byte   PATT
  .word Label_014CBFA7
@  #02 @237   ----------------------------------------
 .byte   PATT
  .word Label_014CBF66
@  #02 @238   ----------------------------------------
 .byte   PATT
  .word Label_014CBF75
@  #02 @239   ----------------------------------------
 .byte   PATT
  .word Label_014CBF91
@  #02 @240   ----------------------------------------
 .byte   PATT
  .word Label_014CC07D
@  #02 @241   ----------------------------------------
 .byte   PATT
  .word Label_014CBF66
@  #02 @242   ----------------------------------------
 .byte   PATT
  .word Label_014CBF75
@  #02 @243   ----------------------------------------
 .byte   PATT
  .word Label_014CBF91
@  #02 @244   ----------------------------------------
 .byte   PATT
  .word Label_014CBFA7
@  #02 @245   ----------------------------------------
 .byte   PATT
  .word Label_014CBFE2
@  #02 @246   ----------------------------------------
 .byte   W96
@  #02 @247   ----------------------------------------
 .byte   EOT
 .byte   Cn2 ,v055
 .byte   Cn3 ,v067
@  #02 @248   ----------------------------------------
 .byte   PATT
  .word Label_014CBFF3
@  #02 @249   ----------------------------------------
 .byte   PATT
  .word Label_014CBFFE
@  #02 @250   ----------------------------------------
 .byte   W96
@  #02 @251   ----------------------------------------
 .byte   W96
@  #02 @252   ----------------------------------------
 .byte   W96
@  #02 @253   ----------------------------------------
 .byte   GOTO
  .word Label_014CC05A
@  #02 @254   ----------------------------------------
 .byte   W96
@  #02 @255   ----------------------------------------
 .byte   VOICE , 30
 .byte   PAN , c_v+0
 .byte   VOL , 40*DeathIDeservioli_mvl/mxv
 .byte   PAN , c_v+0
 .byte   VOL , 40*DeathIDeservioli_mvl/mxv
 .byte   PAN , c_v+0
 .byte   VOL , 40*DeathIDeservioli_mvl/mxv
 .byte   BEND , c_v+0
 .byte   FINE

@**************** Track 3 (Midi-Chn.2) ****************@

DeathIDeservioli_003:
@  #03 @000   ----------------------------------------
 .byte   KEYSH , DeathIDeservioli_key+0
 .byte   VOICE , 30
 .byte   PAN , c_v+0
 .byte   VOL , 40*DeathIDeservioli_mvl/mxv
 .byte   PAN , c_v+0
 .byte   VOL , 40*DeathIDeservioli_mvl/mxv
 .byte   PAN , c_v+0
 .byte   VOL , 40*DeathIDeservioli_mvl/mxv
 .byte   BEND , c_v+0
 .byte   W96
@  #03 @001   ----------------------------------------
 .byte   W96
@  #03 @002   ----------------------------------------
 .byte   W96
@  #03 @003   ----------------------------------------
 .byte   W96
@  #03 @004   ----------------------------------------
 .byte   W96
@  #03 @005   ----------------------------------------
 .byte   W96
@  #03 @006   ----------------------------------------
 .byte   W96
@  #03 @007   ----------------------------------------
 .byte   W96
@  #03 @008   ----------------------------------------
 .byte   W96
@  #03 @009   ----------------------------------------
 .byte   W96
@  #03 @010   ----------------------------------------
 .byte   W96
@  #03 @011   ----------------------------------------
 .byte   W96
@  #03 @012   ----------------------------------------
 .byte   W96
@  #03 @013   ----------------------------------------
 .byte   W96
@  #03 @014   ----------------------------------------
 .byte   W96
@  #03 @015   ----------------------------------------
 .byte   W96
@  #03 @016   ----------------------------------------
Label_014CAF72:
 .byte   N24 ,Dn2 ,v084
 .byte   N24 ,An2
 .byte   N24 ,Dn3
 .byte   W48
 .byte   Dn2
 .byte   N24 ,An2
 .byte   N24 ,Dn3
 .byte   W48
 .byte   PEND 
@  #03 @017   ----------------------------------------
Label_014CAF81:
 .byte   N18 ,Dn2 ,v084
 .byte   N18 ,An2
 .byte   N18 ,Dn3
 .byte   W24
 .byte   Dn2
 .byte   N18 ,An2
 .byte   N18 ,Dn3
 .byte   W24
 .byte   N24 ,Cn2
 .byte   N24 ,Gn2
 .byte   N24 ,Cn3
 .byte   W24
 .byte   Dn2
 .byte   N24 ,An2
 .byte   N24 ,Dn3
 .byte   W24
 .byte   PEND 
@  #03 @018   ----------------------------------------
Label_014CAF9D:
 .byte   W24
 .byte   N24 ,Cn2 ,v084
 .byte   N24 ,Gn2
 .byte   N24 ,Cn3
 .byte   W24
 .byte   Dn2
 .byte   N24 ,An2
 .byte   N24 ,Dn3
 .byte   W24
 .byte   Cn2
 .byte   N24 ,Gn2
 .byte   N24 ,Cn3
 .byte   W24
 .byte   PEND 
@  #03 @019   ----------------------------------------
Label_014CAFB3:
 .byte   N96 ,Fn2 ,v084
 .byte   N96 ,Cn3
 .byte   N96 ,Fn3
 .byte   W96
 .byte   PEND 
@  #03 @020   ----------------------------------------
 .byte   PATT
  .word Label_014CAF72
@  #03 @021   ----------------------------------------
 .byte   PATT
  .word Label_014CAF81
@  #03 @022   ----------------------------------------
 .byte   PATT
  .word Label_014CAF9D
@  #03 @023   ----------------------------------------
Label_014CAFCB:
 .byte   N48 ,Gn2 ,v084
 .byte   N48 ,Dn3
 .byte   N48 ,Gn3
 .byte   W48
 .byte   An2
 .byte   N48 ,En3
 .byte   N48 ,An3
 .byte   W48
 .byte   PEND 
@  #03 @024   ----------------------------------------
 .byte   PATT
  .word Label_014CAF72
@  #03 @025   ----------------------------------------
 .byte   PATT
  .word Label_014CAF81
@  #03 @026   ----------------------------------------
 .byte   PATT
  .word Label_014CAF9D
@  #03 @027   ----------------------------------------
 .byte   PATT
  .word Label_014CAFB3
@  #03 @028   ----------------------------------------
Label_014CAFEE:
 .byte   TIE ,Cn2 ,v084
 .byte   TIE ,Gn2
 .byte   TIE ,Cn3
 .byte   TIE ,Gn3
 .byte   W96
 .byte   PEND 
@  #03 @029   ----------------------------------------
 .byte   W96
@  #03 @030   ----------------------------------------
 .byte   EOT
 .byte   Cn2 ,v055
 .byte   Cn3 ,v067
Label_014CAFFF:
 .byte   N96 ,Bn1 ,v084
 .byte   N96 ,Fs2
 .byte   N96 ,Bn2
 .byte   N96 ,Fs3
 .byte   W96
 .byte   PEND 
@  #03 @031   ----------------------------------------
Label_014CB00A:
 .byte   N96 ,As1 ,v084
 .byte   N96 ,Fn2
 .byte   N96 ,As2
 .byte   N96 ,Fn3
 .byte   W96
 .byte   PEND 
@  #03 @032   ----------------------------------------
 .byte   PATT
  .word Label_014CAF72
@  #03 @033   ----------------------------------------
 .byte   PATT
  .word Label_014CAF81
@  #03 @034   ----------------------------------------
 .byte   PATT
  .word Label_014CAF9D
@  #03 @035   ----------------------------------------
 .byte   PATT
  .word Label_014CAFB3
@  #03 @036   ----------------------------------------
 .byte   PATT
  .word Label_014CAF72
@  #03 @037   ----------------------------------------
 .byte   PATT
  .word Label_014CAF81
@  #03 @038   ----------------------------------------
 .byte   PATT
  .word Label_014CAF9D
@  #03 @039   ----------------------------------------
 .byte   PATT
  .word Label_014CAFCB
@  #03 @040   ----------------------------------------
 .byte   PATT
  .word Label_014CAF72
@  #03 @041   ----------------------------------------
 .byte   PATT
  .word Label_014CAF81
@  #03 @042   ----------------------------------------
 .byte   PATT
  .word Label_014CAF9D
@  #03 @043   ----------------------------------------
 .byte   PATT
  .word Label_014CAFB3
@  #03 @044   ----------------------------------------
 .byte   PATT
  .word Label_014CAFEE
@  #03 @045   ----------------------------------------
 .byte   W96
@  #03 @046   ----------------------------------------
 .byte   EOT
 .byte   Cn2 ,v055
 .byte   Cn3 ,v067
@  #03 @047   ----------------------------------------
 .byte   PATT
  .word Label_014CAFFF
@  #03 @048   ----------------------------------------
 .byte   PATT
  .word Label_014CB00A
@  #03 @049   ----------------------------------------
Label_014CB066:
@  #03 @050   ----------------------------------------
 .byte   PATT
  .word Label_014CAF72
@  #03 @051   ----------------------------------------
 .byte   PATT
  .word Label_014CAF81
@  #03 @052   ----------------------------------------
 .byte   PATT
  .word Label_014CAF9D
@  #03 @053   ----------------------------------------
 .byte   PATT
  .word Label_014CAFB3
@  #03 @054   ----------------------------------------
 .byte   PATT
  .word Label_014CAF72
@  #03 @055   ----------------------------------------
 .byte   PATT
  .word Label_014CAF81
@  #03 @056   ----------------------------------------
 .byte   PATT
  .word Label_014CAF9D
@  #03 @057   ----------------------------------------
Label_014CB089:
 .byte   N48 ,Fn2 ,v084
 .byte   N48 ,Cn3
 .byte   N48 ,Fn3
 .byte   W48
 .byte   Gn2
 .byte   N48 ,Dn3
 .byte   N48 ,Gn3
 .byte   W48
 .byte   PEND 
@  #03 @058   ----------------------------------------
 .byte   PATT
  .word Label_014CAF72
@  #03 @059   ----------------------------------------
 .byte   PATT
  .word Label_014CAF81
@  #03 @060   ----------------------------------------
 .byte   PATT
  .word Label_014CAF9D
@  #03 @061   ----------------------------------------
 .byte   PATT
  .word Label_014CAFB3
@  #03 @062   ----------------------------------------
 .byte   PATT
  .word Label_014CAFEE
@  #03 @063   ----------------------------------------
 .byte   W96
@  #03 @064   ----------------------------------------
 .byte   EOT
 .byte   Cn2 ,v055
 .byte   Cn3 ,v067
@  #03 @065   ----------------------------------------
 .byte   PATT
  .word Label_014CAFFF
@  #03 @066   ----------------------------------------
 .byte   PATT
  .word Label_014CB00A
@  #03 @067   ----------------------------------------
 .byte   PATT
  .word Label_014CAF72
@  #03 @068   ----------------------------------------
 .byte   PATT
  .word Label_014CAF81
@  #03 @069   ----------------------------------------
 .byte   PATT
  .word Label_014CAF9D
@  #03 @070   ----------------------------------------
 .byte   PATT
  .word Label_014CAFB3
@  #03 @071   ----------------------------------------
 .byte   PATT
  .word Label_014CAF72
@  #03 @072   ----------------------------------------
 .byte   PATT
  .word Label_014CAF81
@  #03 @073   ----------------------------------------
 .byte   PATT
  .word Label_014CAF9D
@  #03 @074   ----------------------------------------
 .byte   PATT
  .word Label_014CB089
@  #03 @075   ----------------------------------------
 .byte   PATT
  .word Label_014CAF72
@  #03 @076   ----------------------------------------
 .byte   PATT
  .word Label_014CAF81
@  #03 @077   ----------------------------------------
 .byte   PATT
  .word Label_014CAF9D
@  #03 @078   ----------------------------------------
 .byte   PATT
  .word Label_014CAFB3
@  #03 @079   ----------------------------------------
 .byte   PATT
  .word Label_014CAFEE
@  #03 @080   ----------------------------------------
 .byte   W96
@  #03 @081   ----------------------------------------
 .byte   EOT
 .byte   Cn2 ,v055
 .byte   Cn3 ,v067
@  #03 @082   ----------------------------------------
 .byte   PATT
  .word Label_014CAFFF
@  #03 @083   ----------------------------------------
 .byte   PATT
  .word Label_014CB00A
@  #03 @084   ----------------------------------------
Label_014CB112:
 .byte   N24 ,En2 ,v084
 .byte   N24 ,Bn2
 .byte   N24 ,En3
 .byte   W48
 .byte   En2
 .byte   N24 ,Bn2
 .byte   N24 ,En3
 .byte   W48
 .byte   PEND 
@  #03 @085   ----------------------------------------
Label_014CB121:
 .byte   N18 ,En2 ,v084
 .byte   N18 ,Bn2
 .byte   N18 ,En3
 .byte   W24
 .byte   En2
 .byte   N18 ,Bn2
 .byte   N18 ,En3
 .byte   W24
 .byte   N24 ,Dn2
 .byte   N24 ,An2
 .byte   N24 ,Dn3
 .byte   W24
 .byte   En2
 .byte   N24 ,Bn2
 .byte   N24 ,En3
 .byte   W24
 .byte   PEND 
@  #03 @086   ----------------------------------------
Label_014CB13D:
 .byte   W24
 .byte   N24 ,Dn2 ,v084
 .byte   N24 ,An2
 .byte   N24 ,Dn3
 .byte   W24
 .byte   En2
 .byte   N24 ,Bn2
 .byte   N24 ,En3
 .byte   W24
 .byte   Dn2
 .byte   N24 ,An2
 .byte   N24 ,Dn3
 .byte   W24
 .byte   PEND 
@  #03 @087   ----------------------------------------
Label_014CB153:
 .byte   N96 ,Gn2 ,v084
 .byte   N96 ,Dn3
 .byte   N96 ,Gn3
 .byte   W96
 .byte   PEND 
@  #03 @088   ----------------------------------------
 .byte   PATT
  .word Label_014CB112
@  #03 @089   ----------------------------------------
 .byte   PATT
  .word Label_014CB121
@  #03 @090   ----------------------------------------
 .byte   PATT
  .word Label_014CB13D
@  #03 @091   ----------------------------------------
 .byte   PATT
  .word Label_014CAFCB
@  #03 @092   ----------------------------------------
 .byte   PATT
  .word Label_014CB112
@  #03 @093   ----------------------------------------
 .byte   PATT
  .word Label_014CB121
@  #03 @094   ----------------------------------------
 .byte   PATT
  .word Label_014CB13D
@  #03 @095   ----------------------------------------
 .byte   PATT
  .word Label_014CB153
@  #03 @096   ----------------------------------------
Label_014CB184:
 .byte   TIE ,Dn2 ,v084
 .byte   TIE ,An2
 .byte   TIE ,Dn3
 .byte   TIE ,An3
 .byte   W96
 .byte   PEND 
@  #03 @097   ----------------------------------------
 .byte   W96
@  #03 @098   ----------------------------------------
 .byte   EOT
 .byte   Dn2 ,v057
 .byte   Dn3 ,v069
Label_014CB195:
 .byte   N96 ,Cs2 ,v084
 .byte   N96 ,Gs2
 .byte   N96 ,Cs3
 .byte   N96 ,Gs3
 .byte   W96
 .byte   PEND 
@  #03 @099   ----------------------------------------
Label_014CB1A0:
 .byte   N96 ,Cn2 ,v084
 .byte   N96 ,Gn2
 .byte   N96 ,Cn3
 .byte   N96 ,Gn3
 .byte   W96
 .byte   PEND 
@  #03 @100   ----------------------------------------
 .byte   PATT
  .word Label_014CB112
@  #03 @101   ----------------------------------------
 .byte   PATT
  .word Label_014CB121
@  #03 @102   ----------------------------------------
 .byte   PATT
  .word Label_014CB13D
@  #03 @103   ----------------------------------------
 .byte   PATT
  .word Label_014CB153
@  #03 @104   ----------------------------------------
 .byte   PATT
  .word Label_014CB112
@  #03 @105   ----------------------------------------
 .byte   PATT
  .word Label_014CB121
@  #03 @106   ----------------------------------------
 .byte   PATT
  .word Label_014CB13D
@  #03 @107   ----------------------------------------
 .byte   PATT
  .word Label_014CAFCB
@  #03 @108   ----------------------------------------
 .byte   PATT
  .word Label_014CB112
@  #03 @109   ----------------------------------------
 .byte   PATT
  .word Label_014CB121
@  #03 @110   ----------------------------------------
 .byte   PATT
  .word Label_014CB13D
@  #03 @111   ----------------------------------------
 .byte   PATT
  .word Label_014CB153
@  #03 @112   ----------------------------------------
 .byte   PATT
  .word Label_014CB184
@  #03 @113   ----------------------------------------
 .byte   W96
@  #03 @114   ----------------------------------------
 .byte   EOT
 .byte   Dn2 ,v057
 .byte   Dn3 ,v069
@  #03 @115   ----------------------------------------
 .byte   PATT
  .word Label_014CB195
@  #03 @116   ----------------------------------------
 .byte   PATT
  .word Label_014CB1A0
@  #03 @117   ----------------------------------------
 .byte   PATT
  .word Label_014CAF72
@  #03 @118   ----------------------------------------
 .byte   PATT
  .word Label_014CAF81
@  #03 @119   ----------------------------------------
 .byte   PATT
  .word Label_014CAF9D
@  #03 @120   ----------------------------------------
 .byte   PATT
  .word Label_014CAFB3
@  #03 @121   ----------------------------------------
 .byte   PATT
  .word Label_014CAF72
@  #03 @122   ----------------------------------------
 .byte   PATT
  .word Label_014CAF81
@  #03 @123   ----------------------------------------
 .byte   PATT
  .word Label_014CAF9D
@  #03 @124   ----------------------------------------
 .byte   PATT
  .word Label_014CB089
@  #03 @125   ----------------------------------------
 .byte   PATT
  .word Label_014CAF72
@  #03 @126   ----------------------------------------
 .byte   PATT
  .word Label_014CAF81
@  #03 @127   ----------------------------------------
 .byte   PATT
  .word Label_014CAF9D
@  #03 @128   ----------------------------------------
 .byte   PATT
  .word Label_014CAFB3
@  #03 @129   ----------------------------------------
 .byte   PATT
  .word Label_014CAFEE
@  #03 @130   ----------------------------------------
 .byte   W96
@  #03 @131   ----------------------------------------
 .byte   EOT
 .byte   Cn2 ,v055
 .byte   Cn3 ,v067
@  #03 @132   ----------------------------------------
 .byte   PATT
  .word Label_014CAFFF
@  #03 @133   ----------------------------------------
 .byte   PATT
  .word Label_014CB00A
@  #03 @134   ----------------------------------------
 .byte   PATT
  .word Label_014CAF72
@  #03 @135   ----------------------------------------
 .byte   PATT
  .word Label_014CAF81
@  #03 @136   ----------------------------------------
 .byte   PATT
  .word Label_014CAF9D
@  #03 @137   ----------------------------------------
 .byte   PATT
  .word Label_014CAFB3
@  #03 @138   ----------------------------------------
 .byte   PATT
  .word Label_014CAF72
@  #03 @139   ----------------------------------------
 .byte   PATT
  .word Label_014CAF81
@  #03 @140   ----------------------------------------
 .byte   PATT
  .word Label_014CAF9D
@  #03 @141   ----------------------------------------
 .byte   PATT
  .word Label_014CB089
@  #03 @142   ----------------------------------------
 .byte   PATT
  .word Label_014CAF72
@  #03 @143   ----------------------------------------
 .byte   PATT
  .word Label_014CAF81
@  #03 @144   ----------------------------------------
 .byte   PATT
  .word Label_014CAF9D
@  #03 @145   ----------------------------------------
 .byte   PATT
  .word Label_014CAFB3
@  #03 @146   ----------------------------------------
 .byte   PATT
  .word Label_014CAFEE
@  #03 @147   ----------------------------------------
 .byte   W96
@  #03 @148   ----------------------------------------
 .byte   EOT
 .byte   Cn2 ,v055
 .byte   Cn3 ,v067
@  #03 @149   ----------------------------------------
 .byte   PATT
  .word Label_014CAFFF
@  #03 @150   ----------------------------------------
 .byte   PATT
  .word Label_014CB00A
@  #03 @151   ----------------------------------------
 .byte   PATT
  .word Label_014CB112
@  #03 @152   ----------------------------------------
 .byte   PATT
  .word Label_014CB121
@  #03 @153   ----------------------------------------
 .byte   PATT
  .word Label_014CB13D
@  #03 @154   ----------------------------------------
 .byte   PATT
  .word Label_014CB153
@  #03 @155   ----------------------------------------
 .byte   PATT
  .word Label_014CB112
@  #03 @156   ----------------------------------------
 .byte   PATT
  .word Label_014CB121
@  #03 @157   ----------------------------------------
 .byte   PATT
  .word Label_014CB13D
@  #03 @158   ----------------------------------------
 .byte   PATT
  .word Label_014CAFCB
@  #03 @159   ----------------------------------------
 .byte   PATT
  .word Label_014CB112
@  #03 @160   ----------------------------------------
 .byte   PATT
  .word Label_014CB121
@  #03 @161   ----------------------------------------
 .byte   PATT
  .word Label_014CB13D
@  #03 @162   ----------------------------------------
 .byte   PATT
  .word Label_014CB153
@  #03 @163   ----------------------------------------
 .byte   PATT
  .word Label_014CB184
@  #03 @164   ----------------------------------------
 .byte   W96
@  #03 @165   ----------------------------------------
 .byte   EOT
 .byte   Dn2 ,v057
 .byte   Dn3 ,v069
@  #03 @166   ----------------------------------------
 .byte   PATT
  .word Label_014CB195
@  #03 @167   ----------------------------------------
 .byte   PATT
  .word Label_014CB1A0
@  #03 @168   ----------------------------------------
 .byte   PATT
  .word Label_014CB112
@  #03 @169   ----------------------------------------
 .byte   PATT
  .word Label_014CB121
@  #03 @170   ----------------------------------------
 .byte   PATT
  .word Label_014CB13D
@  #03 @171   ----------------------------------------
 .byte   PATT
  .word Label_014CB153
@  #03 @172   ----------------------------------------
 .byte   PATT
  .word Label_014CB112
@  #03 @173   ----------------------------------------
 .byte   PATT
  .word Label_014CB121
@  #03 @174   ----------------------------------------
 .byte   PATT
  .word Label_014CB13D
@  #03 @175   ----------------------------------------
 .byte   PATT
  .word Label_014CAFCB
@  #03 @176   ----------------------------------------
 .byte   PATT
  .word Label_014CB112
@  #03 @177   ----------------------------------------
 .byte   PATT
  .word Label_014CB121
@  #03 @178   ----------------------------------------
 .byte   PATT
  .word Label_014CB13D
@  #03 @179   ----------------------------------------
 .byte   PATT
  .word Label_014CB153
@  #03 @180   ----------------------------------------
 .byte   PATT
  .word Label_014CB184
@  #03 @181   ----------------------------------------
 .byte   W96
@  #03 @182   ----------------------------------------
 .byte   EOT
 .byte   Dn2 ,v057
 .byte   Dn3 ,v069
@  #03 @183   ----------------------------------------
 .byte   PATT
  .word Label_014CB195
@  #03 @184   ----------------------------------------
 .byte   PATT
  .word Label_014CB1A0
@  #03 @185   ----------------------------------------
 .byte   W96
@  #03 @186   ----------------------------------------
 .byte   W96
@  #03 @187   ----------------------------------------
 .byte   W96
@  #03 @188   ----------------------------------------
 .byte   W96
@  #03 @189   ----------------------------------------
 .byte   W96
@  #03 @190   ----------------------------------------
 .byte   W96
@  #03 @191   ----------------------------------------
 .byte   W96
@  #03 @192   ----------------------------------------
 .byte   W96
@  #03 @193   ----------------------------------------
 .byte   W96
@  #03 @194   ----------------------------------------
 .byte   W96
@  #03 @195   ----------------------------------------
 .byte   W96
@  #03 @196   ----------------------------------------
 .byte   W96
@  #03 @197   ----------------------------------------
 .byte   W96
@  #03 @198   ----------------------------------------
 .byte   W96
@  #03 @199   ----------------------------------------
 .byte   W96
@  #03 @200   ----------------------------------------
 .byte   W96
@  #03 @201   ----------------------------------------
 .byte   TIE ,Dn4 ,v127
 .byte   W96
@  #03 @202   ----------------------------------------
 .byte   W96
@  #03 @203   ----------------------------------------
 .byte   EOT
 .byte   TIE ,Cn4
 .byte   W96
@  #03 @204   ----------------------------------------
 .byte   W96
@  #03 @205   ----------------------------------------
 .byte   EOT
 .byte   TIE ,Bn3
 .byte   W96
@  #03 @206   ----------------------------------------
 .byte   W96
@  #03 @207   ----------------------------------------
 .byte   W96
@  #03 @208   ----------------------------------------
 .byte   EOT
 .byte   N96 ,As3
 .byte   W96
@  #03 @209   ----------------------------------------
 .byte   TIE ,Dn4
 .byte   W96
@  #03 @210   ----------------------------------------
 .byte   W96
@  #03 @211   ----------------------------------------
 .byte   EOT
 .byte   TIE ,Cn4
 .byte   W96
@  #03 @212   ----------------------------------------
 .byte   W96
@  #03 @213   ----------------------------------------
 .byte   EOT
 .byte   N96 ,Dn4
 .byte   W96
@  #03 @214   ----------------------------------------
Label_014CB371:
 .byte   N48 ,Fn4 ,v127
 .byte   W48
 .byte   N12 ,Gn4
 .byte   W24
 .byte   N48 ,Fn4
 .byte   W24
 .byte   PEND 
@  #03 @215   ----------------------------------------
 .byte   W24
 .byte   N36 ,Dn4
 .byte   W48
 .byte   Cn4
 .byte   W24
@  #03 @216   ----------------------------------------
 .byte   W24
 .byte   N48 ,Dn4
 .byte   W72
@  #03 @217   ----------------------------------------
Label_014CB386:
 .byte   TIE ,An3 ,v127
 .byte   TIE ,Dn4
 .byte   W96
 .byte   PEND 
@  #03 @218   ----------------------------------------
 .byte   W96
@  #03 @219   ----------------------------------------
 .byte   EOT
 .byte   An3 ,v074
Label_014CB391:
 .byte   TIE ,An3 ,v127
 .byte   TIE ,Cn4
 .byte   W96
 .byte   PEND 
@  #03 @220   ----------------------------------------
 .byte   W96
@  #03 @221   ----------------------------------------
 .byte   EOT
 .byte   An3 ,v072
 .byte   TIE ,Gn3
 .byte   TIE ,Bn3
 .byte   W96
@  #03 @222   ----------------------------------------
 .byte   W96
@  #03 @223   ----------------------------------------
 .byte   W96
@  #03 @224   ----------------------------------------
 .byte   EOT
 .byte   Gn3 ,v071
 .byte   N96 ,Gn3
 .byte   N96 ,As3
 .byte   W96
@  #03 @225   ----------------------------------------
 .byte   PATT
  .word Label_014CB386
@  #03 @226   ----------------------------------------
 .byte   W96
@  #03 @227   ----------------------------------------
 .byte   EOT
 .byte   An3 ,v074
@  #03 @228   ----------------------------------------
 .byte   PATT
  .word Label_014CB391
@  #03 @229   ----------------------------------------
 .byte   W96
@  #03 @230   ----------------------------------------
 .byte   EOT
 .byte   An3 ,v072
 .byte   TIE ,Cn4 ,v127
 .byte   N96 ,Dn4
 .byte   W96
@  #03 @231   ----------------------------------------
 .byte   PATT
  .word Label_014CB371
@  #03 @232   ----------------------------------------
 .byte   EOT
 .byte   Cn4
 .byte   N96 ,Bn3 ,v127
 .byte   W24
 .byte   N36 ,Dn4
 .byte   W48
 .byte   Cn4
 .byte   W24
@  #03 @233   ----------------------------------------
 .byte   N96 ,As3
 .byte   W24
 .byte   N72 ,Dn4
 .byte   W72
@  #03 @234   ----------------------------------------
 .byte   PATT
  .word Label_014CAF72
@  #03 @235   ----------------------------------------
 .byte   PATT
  .word Label_014CAF81
@  #03 @236   ----------------------------------------
 .byte   PATT
  .word Label_014CAF9D
@  #03 @237   ----------------------------------------
 .byte   PATT
  .word Label_014CAFB3
@  #03 @238   ----------------------------------------
 .byte   PATT
  .word Label_014CAF72
@  #03 @239   ----------------------------------------
 .byte   PATT
  .word Label_014CAF81
@  #03 @240   ----------------------------------------
 .byte   PATT
  .word Label_014CAF9D
@  #03 @241   ----------------------------------------
 .byte   PATT
  .word Label_014CB089
@  #03 @242   ----------------------------------------
 .byte   PATT
  .word Label_014CAF72
@  #03 @243   ----------------------------------------
 .byte   PATT
  .word Label_014CAF81
@  #03 @244   ----------------------------------------
 .byte   PATT
  .word Label_014CAF9D
@  #03 @245   ----------------------------------------
 .byte   PATT
  .word Label_014CAFB3
@  #03 @246   ----------------------------------------
 .byte   PATT
  .word Label_014CAFEE
@  #03 @247   ----------------------------------------
 .byte   W96
@  #03 @248   ----------------------------------------
 .byte   EOT
 .byte   Cn2 ,v055
 .byte   Cn3 ,v067
@  #03 @249   ----------------------------------------
 .byte   PATT
  .word Label_014CAFFF
@  #03 @250   ----------------------------------------
 .byte   PATT
  .word Label_014CB00A
@  #03 @251   ----------------------------------------
 .byte   W96
@  #03 @252   ----------------------------------------
 .byte   W96
@  #03 @253   ----------------------------------------
 .byte   W96
@  #03 @254   ----------------------------------------
 .byte   GOTO
  .word Label_014CB066
@  #03 @255   ----------------------------------------
 .byte   W96
@  #03 @256   ----------------------------------------
 .byte   VOICE , 30
 .byte   PAN , c_v+0
 .byte   VOL , 40*DeathIDeservioli_mvl/mxv
 .byte   PAN , c_v+0
 .byte   VOL , 40*DeathIDeservioli_mvl/mxv
 .byte   PAN , c_v+0
 .byte   VOL , 40*DeathIDeservioli_mvl/mxv
 .byte   BEND , c_v+0
 .byte   FINE

@**************** Track 4 (Midi-Chn.3) ****************@

DeathIDeservioli_004:
@  #04 @000   ----------------------------------------
 .byte   KEYSH , DeathIDeservioli_key+0
 .byte   VOICE , 52
 .byte   PAN , c_v+0
 .byte   VOL , 47*DeathIDeservioli_mvl/mxv
 .byte   PAN , c_v+0
 .byte   VOL , 47*DeathIDeservioli_mvl/mxv
 .byte   PAN , c_v+0
 .byte   VOL , 47*DeathIDeservioli_mvl/mxv
 .byte   BEND , c_v+0
 .byte   W96
@  #04 @001   ----------------------------------------
 .byte   W96
@  #04 @002   ----------------------------------------
 .byte   W96
@  #04 @003   ----------------------------------------
 .byte   W96
@  #04 @004   ----------------------------------------
 .byte   W96
@  #04 @005   ----------------------------------------
 .byte   W96
@  #04 @006   ----------------------------------------
 .byte   W96
@  #04 @007   ----------------------------------------
 .byte   W96
@  #04 @008   ----------------------------------------
 .byte   W96
@  #04 @009   ----------------------------------------
 .byte   W96
@  #04 @010   ----------------------------------------
 .byte   W96
@  #04 @011   ----------------------------------------
 .byte   W96
@  #04 @012   ----------------------------------------
 .byte   W96
@  #04 @013   ----------------------------------------
 .byte   W96
@  #04 @014   ----------------------------------------
 .byte   W96
@  #04 @015   ----------------------------------------
 .byte   W96
@  #04 @016   ----------------------------------------
 .byte   W96
@  #04 @017   ----------------------------------------
 .byte   W96
@  #04 @018   ----------------------------------------
 .byte   W96
@  #04 @019   ----------------------------------------
 .byte   W96
@  #04 @020   ----------------------------------------
 .byte   W96
@  #04 @021   ----------------------------------------
 .byte   W96
@  #04 @022   ----------------------------------------
 .byte   W96
@  #04 @023   ----------------------------------------
 .byte   W96
@  #04 @024   ----------------------------------------
 .byte   W96
@  #04 @025   ----------------------------------------
 .byte   W96
@  #04 @026   ----------------------------------------
 .byte   W96
@  #04 @027   ----------------------------------------
 .byte   W96
@  #04 @028   ----------------------------------------
Label_014CB59A:
 .byte   N24 ,Fn2 ,v108
 .byte   N24 ,Fn3
 .byte   W24
 .byte   En2
 .byte   N24 ,En3
 .byte   W24
 .byte   N96 ,Dn2
 .byte   N96 ,Dn3
 .byte   W48
 .byte   PEND 
@  #04 @029   ----------------------------------------
Label_014CB5AA:
 .byte   W48
 .byte   N24 ,Fn2 ,v108
 .byte   N24 ,Fn3
 .byte   W24
 .byte   En2
 .byte   N24 ,En3
 .byte   W24
 .byte   PEND 
@  #04 @030   ----------------------------------------
Label_014CB5B6:
 .byte   N24 ,Fn2 ,v108
 .byte   N24 ,Fn3
 .byte   W24
 .byte   En2
 .byte   N24 ,En3
 .byte   W24
 .byte   N48 ,Dn2
 .byte   N48 ,Dn3
 .byte   W48
 .byte   PEND 
@  #04 @031   ----------------------------------------
 .byte   PATT
  .word Label_014CB5B6
@  #04 @032   ----------------------------------------
 .byte   W96
@  #04 @033   ----------------------------------------
 .byte   W96
@  #04 @034   ----------------------------------------
 .byte   W96
@  #04 @035   ----------------------------------------
 .byte   W96
@  #04 @036   ----------------------------------------
 .byte   W96
@  #04 @037   ----------------------------------------
 .byte   W96
@  #04 @038   ----------------------------------------
 .byte   W96
@  #04 @039   ----------------------------------------
 .byte   W96
@  #04 @040   ----------------------------------------
 .byte   W96
@  #04 @041   ----------------------------------------
 .byte   W96
@  #04 @042   ----------------------------------------
 .byte   W96
@  #04 @043   ----------------------------------------
 .byte   W96
@  #04 @044   ----------------------------------------
 .byte   W96
@  #04 @045   ----------------------------------------
 .byte   W96
@  #04 @046   ----------------------------------------
 .byte   W96
@  #04 @047   ----------------------------------------
 .byte   W96
@  #04 @048   ----------------------------------------
Label_014CB5DB:
 .byte   W96
@  #04 @049   ----------------------------------------
 .byte   W96
@  #04 @050   ----------------------------------------
 .byte   W96
@  #04 @051   ----------------------------------------
 .byte   W96
@  #04 @052   ----------------------------------------
 .byte   W96
@  #04 @053   ----------------------------------------
 .byte   W96
@  #04 @054   ----------------------------------------
 .byte   W96
@  #04 @055   ----------------------------------------
 .byte   W96
@  #04 @056   ----------------------------------------
 .byte   W96
@  #04 @057   ----------------------------------------
 .byte   W96
@  #04 @058   ----------------------------------------
 .byte   W96
@  #04 @059   ----------------------------------------
 .byte   W96
@  #04 @060   ----------------------------------------
 .byte   W96
@  #04 @061   ----------------------------------------
 .byte   W96
@  #04 @062   ----------------------------------------
 .byte   W96
@  #04 @063   ----------------------------------------
 .byte   W96
@  #04 @064   ----------------------------------------
 .byte   W96
@  #04 @065   ----------------------------------------
 .byte   W96
@  #04 @066   ----------------------------------------
 .byte   W96
@  #04 @067   ----------------------------------------
 .byte   W96
@  #04 @068   ----------------------------------------
 .byte   W96
@  #04 @069   ----------------------------------------
 .byte   W96
@  #04 @070   ----------------------------------------
 .byte   W96
@  #04 @071   ----------------------------------------
 .byte   W96
@  #04 @072   ----------------------------------------
 .byte   W96
@  #04 @073   ----------------------------------------
 .byte   W96
@  #04 @074   ----------------------------------------
 .byte   W96
@  #04 @075   ----------------------------------------
 .byte   W96
@  #04 @076   ----------------------------------------
 .byte   W96
@  #04 @077   ----------------------------------------
 .byte   W96
@  #04 @078   ----------------------------------------
 .byte   W96
@  #04 @079   ----------------------------------------
 .byte   W96
@  #04 @080   ----------------------------------------
 .byte   W96
@  #04 @081   ----------------------------------------
 .byte   W96
@  #04 @082   ----------------------------------------
 .byte   W96
@  #04 @083   ----------------------------------------
 .byte   W96
@  #04 @084   ----------------------------------------
 .byte   W96
@  #04 @085   ----------------------------------------
 .byte   W96
@  #04 @086   ----------------------------------------
 .byte   W96
@  #04 @087   ----------------------------------------
 .byte   W96
@  #04 @088   ----------------------------------------
 .byte   W96
@  #04 @089   ----------------------------------------
 .byte   W96
@  #04 @090   ----------------------------------------
 .byte   W96
@  #04 @091   ----------------------------------------
 .byte   W96
@  #04 @092   ----------------------------------------
 .byte   W96
@  #04 @093   ----------------------------------------
 .byte   W96
@  #04 @094   ----------------------------------------
 .byte   W96
@  #04 @095   ----------------------------------------
 .byte   W96
@  #04 @096   ----------------------------------------
 .byte   W96
@  #04 @097   ----------------------------------------
 .byte   W96
@  #04 @098   ----------------------------------------
 .byte   W96
@  #04 @099   ----------------------------------------
 .byte   W96
@  #04 @100   ----------------------------------------
 .byte   W96
@  #04 @101   ----------------------------------------
 .byte   W96
@  #04 @102   ----------------------------------------
 .byte   W96
@  #04 @103   ----------------------------------------
 .byte   W96
@  #04 @104   ----------------------------------------
 .byte   W96
@  #04 @105   ----------------------------------------
 .byte   W96
@  #04 @106   ----------------------------------------
 .byte   W96
@  #04 @107   ----------------------------------------
 .byte   W96
@  #04 @108   ----------------------------------------
 .byte   W96
@  #04 @109   ----------------------------------------
 .byte   W96
@  #04 @110   ----------------------------------------
 .byte   W96
@  #04 @111   ----------------------------------------
 .byte   W96
@  #04 @112   ----------------------------------------
 .byte   W96
@  #04 @113   ----------------------------------------
 .byte   W96
@  #04 @114   ----------------------------------------
 .byte   W96
@  #04 @115   ----------------------------------------
 .byte   W96
@  #04 @116   ----------------------------------------
 .byte   W96
@  #04 @117   ----------------------------------------
 .byte   W96
@  #04 @118   ----------------------------------------
 .byte   W96
@  #04 @119   ----------------------------------------
 .byte   W96
@  #04 @120   ----------------------------------------
 .byte   W96
@  #04 @121   ----------------------------------------
 .byte   W96
@  #04 @122   ----------------------------------------
 .byte   W96
@  #04 @123   ----------------------------------------
 .byte   W96
@  #04 @124   ----------------------------------------
 .byte   W96
@  #04 @125   ----------------------------------------
 .byte   W96
@  #04 @126   ----------------------------------------
 .byte   W96
@  #04 @127   ----------------------------------------
 .byte   W96
@  #04 @128   ----------------------------------------
Label_014CB62B:
 .byte   TIE ,Dn3 ,v100
 .byte   TIE ,Fs3
 .byte   W96
 .byte   PEND 
@  #04 @129   ----------------------------------------
 .byte   W96
@  #04 @130   ----------------------------------------
 .byte   W96
@  #04 @131   ----------------------------------------
 .byte   W96
@  #04 @132   ----------------------------------------
 .byte   EOT
 .byte   Dn3 ,v066
Label_014CB638:
 .byte   TIE ,Dn3 ,v100
 .byte   TIE ,Fn3
 .byte   W96
 .byte   PEND 
@  #04 @133   ----------------------------------------
 .byte   W96
@  #04 @134   ----------------------------------------
 .byte   W96
@  #04 @135   ----------------------------------------
 .byte   W96
@  #04 @136   ----------------------------------------
 .byte   EOT
 .byte   Dn3 ,v065
@  #04 @137   ----------------------------------------
 .byte   PATT
  .word Label_014CB62B
@  #04 @138   ----------------------------------------
 .byte   W96
@  #04 @139   ----------------------------------------
 .byte   W96
@  #04 @140   ----------------------------------------
 .byte   W96
@  #04 @141   ----------------------------------------
 .byte   EOT
 .byte   Dn3 ,v066
@  #04 @142   ----------------------------------------
 .byte   PATT
  .word Label_014CB638
@  #04 @143   ----------------------------------------
 .byte   W96
@  #04 @144   ----------------------------------------
 .byte   W96
@  #04 @145   ----------------------------------------
 .byte   W96
@  #04 @146   ----------------------------------------
 .byte   EOT
 .byte   Dn3 ,v065
 .byte   W96
@  #04 @147   ----------------------------------------
 .byte   W96
@  #04 @148   ----------------------------------------
 .byte   W96
@  #04 @149   ----------------------------------------
 .byte   W96
@  #04 @150   ----------------------------------------
 .byte   W96
@  #04 @151   ----------------------------------------
 .byte   W96
@  #04 @152   ----------------------------------------
 .byte   W96
@  #04 @153   ----------------------------------------
 .byte   W96
@  #04 @154   ----------------------------------------
 .byte   W96
@  #04 @155   ----------------------------------------
 .byte   W96
@  #04 @156   ----------------------------------------
 .byte   W96
@  #04 @157   ----------------------------------------
 .byte   W96
@  #04 @158   ----------------------------------------
 .byte   W96
@  #04 @159   ----------------------------------------
 .byte   W96
@  #04 @160   ----------------------------------------
 .byte   W96
@  #04 @161   ----------------------------------------
 .byte   W96
@  #04 @162   ----------------------------------------
 .byte   W96
@  #04 @163   ----------------------------------------
 .byte   W96
@  #04 @164   ----------------------------------------
 .byte   W96
@  #04 @165   ----------------------------------------
 .byte   W96
@  #04 @166   ----------------------------------------
 .byte   W96
@  #04 @167   ----------------------------------------
 .byte   W96
@  #04 @168   ----------------------------------------
 .byte   W96
@  #04 @169   ----------------------------------------
 .byte   W96
@  #04 @170   ----------------------------------------
 .byte   W96
@  #04 @171   ----------------------------------------
 .byte   W96
@  #04 @172   ----------------------------------------
 .byte   W96
@  #04 @173   ----------------------------------------
 .byte   W96
@  #04 @174   ----------------------------------------
 .byte   W96
@  #04 @175   ----------------------------------------
 .byte   W96
@  #04 @176   ----------------------------------------
 .byte   W96
@  #04 @177   ----------------------------------------
 .byte   W96
@  #04 @178   ----------------------------------------
 .byte   W96
@  #04 @179   ----------------------------------------
 .byte   W96
@  #04 @180   ----------------------------------------
 .byte   W96
@  #04 @181   ----------------------------------------
 .byte   W96
@  #04 @182   ----------------------------------------
 .byte   W96
@  #04 @183   ----------------------------------------
 .byte   W96
@  #04 @184   ----------------------------------------
 .byte   W96
@  #04 @185   ----------------------------------------
 .byte   W96
@  #04 @186   ----------------------------------------
 .byte   W96
@  #04 @187   ----------------------------------------
 .byte   W96
@  #04 @188   ----------------------------------------
 .byte   W96
@  #04 @189   ----------------------------------------
 .byte   W96
@  #04 @190   ----------------------------------------
 .byte   PATT
  .word Label_014CB59A
@  #04 @191   ----------------------------------------
 .byte   PATT
  .word Label_014CB5AA
@  #04 @192   ----------------------------------------
 .byte   PATT
  .word Label_014CB5B6
@  #04 @193   ----------------------------------------
 .byte   PATT
  .word Label_014CB5B6
@  #04 @194   ----------------------------------------
 .byte   PATT
  .word Label_014CB59A
@  #04 @195   ----------------------------------------
 .byte   PATT
  .word Label_014CB5AA
@  #04 @196   ----------------------------------------
 .byte   PATT
  .word Label_014CB5B6
@  #04 @197   ----------------------------------------
 .byte   PATT
  .word Label_014CB5B6
@  #04 @198   ----------------------------------------
 .byte   PATT
  .word Label_014CB59A
@  #04 @199   ----------------------------------------
 .byte   PATT
  .word Label_014CB5AA
@  #04 @200   ----------------------------------------
 .byte   PATT
  .word Label_014CB5B6
@  #04 @201   ----------------------------------------
 .byte   PATT
  .word Label_014CB5B6
@  #04 @202   ----------------------------------------
 .byte   PATT
  .word Label_014CB59A
@  #04 @203   ----------------------------------------
 .byte   PATT
  .word Label_014CB5AA
@  #04 @204   ----------------------------------------
 .byte   PATT
  .word Label_014CB5B6
@  #04 @205   ----------------------------------------
 .byte   PATT
  .word Label_014CB5B6
@  #04 @206   ----------------------------------------
 .byte   PATT
  .word Label_014CB59A
@  #04 @207   ----------------------------------------
 .byte   PATT
  .word Label_014CB5AA
@  #04 @208   ----------------------------------------
 .byte   PATT
  .word Label_014CB5B6
@  #04 @209   ----------------------------------------
 .byte   PATT
  .word Label_014CB5B6
@  #04 @210   ----------------------------------------
 .byte   PATT
  .word Label_014CB59A
@  #04 @211   ----------------------------------------
 .byte   PATT
  .word Label_014CB5AA
@  #04 @212   ----------------------------------------
 .byte   PATT
  .word Label_014CB5B6
@  #04 @213   ----------------------------------------
 .byte   PATT
  .word Label_014CB5B6
@  #04 @214   ----------------------------------------
 .byte   PATT
  .word Label_014CB59A
@  #04 @215   ----------------------------------------
 .byte   PATT
  .word Label_014CB5AA
@  #04 @216   ----------------------------------------
 .byte   PATT
  .word Label_014CB5B6
@  #04 @217   ----------------------------------------
 .byte   PATT
  .word Label_014CB5B6
@  #04 @218   ----------------------------------------
 .byte   PATT
  .word Label_014CB59A
@  #04 @219   ----------------------------------------
 .byte   PATT
  .word Label_014CB5AA
@  #04 @220   ----------------------------------------
 .byte   PATT
  .word Label_014CB5B6
@  #04 @221   ----------------------------------------
 .byte   PATT
  .word Label_014CB5B6
@  #04 @222   ----------------------------------------
 .byte   PATT
  .word Label_014CB59A
@  #04 @223   ----------------------------------------
 .byte   PATT
  .word Label_014CB5AA
@  #04 @224   ----------------------------------------
 .byte   PATT
  .word Label_014CB5B6
@  #04 @225   ----------------------------------------
 .byte   PATT
  .word Label_014CB5B6
@  #04 @226   ----------------------------------------
 .byte   W96
@  #04 @227   ----------------------------------------
 .byte   W96
@  #04 @228   ----------------------------------------
 .byte   W96
@  #04 @229   ----------------------------------------
 .byte   W96
@  #04 @230   ----------------------------------------
 .byte   W96
@  #04 @231   ----------------------------------------
 .byte   W96
@  #04 @232   ----------------------------------------
 .byte   W96
@  #04 @233   ----------------------------------------
 .byte   W96
@  #04 @234   ----------------------------------------
 .byte   W96
@  #04 @235   ----------------------------------------
 .byte   W96
@  #04 @236   ----------------------------------------
 .byte   W96
@  #04 @237   ----------------------------------------
 .byte   W96
@  #04 @238   ----------------------------------------
 .byte   W96
@  #04 @239   ----------------------------------------
 .byte   W96
@  #04 @240   ----------------------------------------
 .byte   W96
@  #04 @241   ----------------------------------------
 .byte   W96
@  #04 @242   ----------------------------------------
 .byte   W96
@  #04 @243   ----------------------------------------
 .byte   W96
@  #04 @244   ----------------------------------------
 .byte   W96
@  #04 @245   ----------------------------------------
 .byte   GOTO
  .word Label_014CB5DB
@  #04 @246   ----------------------------------------
 .byte   W96
@  #04 @247   ----------------------------------------
 .byte   PAN , c_v+0
 .byte   VOL , 47*DeathIDeservioli_mvl/mxv
 .byte   PAN , c_v+0
 .byte   VOL , 47*DeathIDeservioli_mvl/mxv
 .byte   PAN , c_v+0
 .byte   VOL , 47*DeathIDeservioli_mvl/mxv
 .byte   BEND , c_v+0
 .byte   FINE

@**************** Track 5 (Midi-Chn.4) ****************@

DeathIDeservioli_005:
@  #05 @000   ----------------------------------------
 .byte   KEYSH , DeathIDeservioli_key+0
 .byte   VOICE , 81
 .byte   PAN , c_v+0
 .byte   VOL , 40*DeathIDeservioli_mvl/mxv
 .byte   PAN , c_v+0
 .byte   VOL , 40*DeathIDeservioli_mvl/mxv
 .byte   PAN , c_v+0
 .byte   VOL , 40*DeathIDeservioli_mvl/mxv
 .byte   BEND , c_v+0
 .byte   W96
@  #05 @001   ----------------------------------------
 .byte   W96
@  #05 @002   ----------------------------------------
 .byte   W96
@  #05 @003   ----------------------------------------
 .byte   W96
@  #05 @004   ----------------------------------------
 .byte   W96
@  #05 @005   ----------------------------------------
 .byte   W96
@  #05 @006   ----------------------------------------
 .byte   W96
@  #05 @007   ----------------------------------------
 .byte   W96
@  #05 @008   ----------------------------------------
 .byte   W96
@  #05 @009   ----------------------------------------
 .byte   W96
@  #05 @010   ----------------------------------------
 .byte   W96
@  #05 @011   ----------------------------------------
 .byte   W96
@  #05 @012   ----------------------------------------
 .byte   W96
@  #05 @013   ----------------------------------------
 .byte   W96
@  #05 @014   ----------------------------------------
 .byte   W96
@  #05 @015   ----------------------------------------
 .byte   W96
@  #05 @016   ----------------------------------------
 .byte   W96
@  #05 @017   ----------------------------------------
 .byte   W96
@  #05 @018   ----------------------------------------
 .byte   W96
@  #05 @019   ----------------------------------------
 .byte   W96
@  #05 @020   ----------------------------------------
 .byte   W96
@  #05 @021   ----------------------------------------
 .byte   W96
@  #05 @022   ----------------------------------------
 .byte   W96
@  #05 @023   ----------------------------------------
 .byte   W96
@  #05 @024   ----------------------------------------
 .byte   W96
@  #05 @025   ----------------------------------------
 .byte   W96
@  #05 @026   ----------------------------------------
 .byte   W96
@  #05 @027   ----------------------------------------
 .byte   W96
@  #05 @028   ----------------------------------------
 .byte   W96
@  #05 @029   ----------------------------------------
 .byte   W96
@  #05 @030   ----------------------------------------
 .byte   W96
@  #05 @031   ----------------------------------------
 .byte   W96
@  #05 @032   ----------------------------------------
Label_014C8986:
 .byte   N24 ,Dn4 ,v108
 .byte   W24
 .byte   An4
 .byte   W24
 .byte   Dn4
 .byte   W24
 .byte   An4
 .byte   W24
 .byte   PEND 
@  #05 @033   ----------------------------------------
Label_014C8991:
 .byte   N24 ,Dn4 ,v076
 .byte   W24
 .byte   An4
 .byte   W24
 .byte   Dn4 ,v048
 .byte   W24
 .byte   An4
 .byte   W24
 .byte   PEND 
@  #05 @034   ----------------------------------------
Label_014C899D:
 .byte   N24 ,Cn5 ,v108
 .byte   W24
 .byte   An4
 .byte   W24
 .byte   Cn5
 .byte   W24
 .byte   An4
 .byte   W24
 .byte   PEND 
@  #05 @035   ----------------------------------------
Label_014C89A8:
 .byte   N24 ,Cn5 ,v076
 .byte   W24
 .byte   An4
 .byte   W24
 .byte   Cn5 ,v048
 .byte   W24
 .byte   An4
 .byte   W24
 .byte   PEND 
@  #05 @036   ----------------------------------------
Label_014C89B4:
 .byte   N24 ,Cn5 ,v108
 .byte   W48
 .byte   Cn5 ,v076
 .byte   W48
 .byte   PEND 
@  #05 @037   ----------------------------------------
Label_014C89BC:
 .byte   N24 ,An4 ,v108
 .byte   N24 ,Cn5 ,v048
 .byte   W48
 .byte   An4 ,v076
 .byte   W48
 .byte   PEND 
@  #05 @038   ----------------------------------------
Label_014C89C7:
 .byte   N24 ,An4 ,v048
 .byte   N24 ,Dn5 ,v108
 .byte   W48
 .byte   Dn5 ,v076
 .byte   W48
 .byte   PEND 
@  #05 @039   ----------------------------------------
 .byte   Dn5 ,v048
 .byte   W96
@  #05 @040   ----------------------------------------
 .byte   PATT
  .word Label_014C8986
@  #05 @041   ----------------------------------------
 .byte   PATT
  .word Label_014C8991
@  #05 @042   ----------------------------------------
 .byte   PATT
  .word Label_014C899D
@  #05 @043   ----------------------------------------
 .byte   PATT
  .word Label_014C89A8
@  #05 @044   ----------------------------------------
Label_014C89E9:
 .byte   N24 ,An3 ,v096
 .byte   N24 ,An4
 .byte   W24
 .byte   Gn3
 .byte   N24 ,Gn4
 .byte   W24
 .byte   An3
 .byte   N24 ,An4
 .byte   W24
 .byte   Gn3
 .byte   N24 ,Gn4
 .byte   W24
 .byte   PEND 
@  #05 @045   ----------------------------------------
Label_014C89FC:
 .byte   N24 ,En3 ,v096
 .byte   N24 ,An3 ,v068
 .byte   N24 ,En4 ,v096
 .byte   N24 ,An4 ,v068
 .byte   W24
 .byte   Fn3 ,v096
 .byte   N24 ,Gn3 ,v068
 .byte   N24 ,Fn4 ,v096
 .byte   N24 ,Gn4 ,v068
 .byte   W24
 .byte   En3 ,v096
 .byte   N24 ,En4
 .byte   W24
 .byte   Cn3
 .byte   N24 ,Fn3 ,v068
 .byte   N24 ,Cn4 ,v096
 .byte   N24 ,Fn4 ,v068
 .byte   W24
 .byte   PEND 
@  #05 @046   ----------------------------------------
Label_014C8A26:
 .byte   N24 ,Dn3 ,v096
 .byte   N24 ,En3 ,v068
 .byte   N24 ,Dn4 ,v096
 .byte   N24 ,En4 ,v068
 .byte   W24
 .byte   Cn3
 .byte   N24 ,Cn4
 .byte   W24
 .byte   Dn3
 .byte   N24 ,Dn4
 .byte   W24
 .byte   Cn3 ,v048
 .byte   N24 ,Cn4
 .byte   W24
 .byte   PEND 
@  #05 @047   ----------------------------------------
 .byte   Dn3
 .byte   N24 ,Dn4
 .byte   W96
@  #05 @048   ----------------------------------------
Label_014C8A45:
 .byte   W96
@  #05 @049   ----------------------------------------
 .byte   W96
@  #05 @050   ----------------------------------------
 .byte   W96
@  #05 @051   ----------------------------------------
 .byte   W96
@  #05 @052   ----------------------------------------
 .byte   W96
@  #05 @053   ----------------------------------------
 .byte   W96
@  #05 @054   ----------------------------------------
 .byte   W96
@  #05 @055   ----------------------------------------
 .byte   W96
@  #05 @056   ----------------------------------------
 .byte   W96
@  #05 @057   ----------------------------------------
 .byte   W96
@  #05 @058   ----------------------------------------
 .byte   W96
@  #05 @059   ----------------------------------------
 .byte   W96
@  #05 @060   ----------------------------------------
 .byte   W96
@  #05 @061   ----------------------------------------
 .byte   W96
@  #05 @062   ----------------------------------------
 .byte   W96
@  #05 @063   ----------------------------------------
 .byte   W96
@  #05 @064   ----------------------------------------
 .byte   W96
@  #05 @065   ----------------------------------------
 .byte   W96
@  #05 @066   ----------------------------------------
 .byte   W96
@  #05 @067   ----------------------------------------
 .byte   W96
@  #05 @068   ----------------------------------------
 .byte   W96
@  #05 @069   ----------------------------------------
 .byte   W96
@  #05 @070   ----------------------------------------
 .byte   W96
@  #05 @071   ----------------------------------------
 .byte   W96
@  #05 @072   ----------------------------------------
 .byte   W96
@  #05 @073   ----------------------------------------
 .byte   W96
@  #05 @074   ----------------------------------------
 .byte   W96
@  #05 @075   ----------------------------------------
 .byte   W96
@  #05 @076   ----------------------------------------
 .byte   W96
@  #05 @077   ----------------------------------------
 .byte   W96
@  #05 @078   ----------------------------------------
 .byte   W96
@  #05 @079   ----------------------------------------
 .byte   W96
@  #05 @080   ----------------------------------------
Label_014C8A65:
 .byte   N24 ,Gn4 ,v100
 .byte   W24
 .byte   Fn4
 .byte   W24
 .byte   En4
 .byte   W24
 .byte   Dn4
 .byte   W24
 .byte   PEND 
@  #05 @081   ----------------------------------------
 .byte   N96 ,En4
 .byte   W96
@  #05 @082   ----------------------------------------
Label_014C8A73:
 .byte   N24 ,Gn4 ,v100
 .byte   W24
 .byte   Fn4
 .byte   W24
 .byte   En4
 .byte   W24
 .byte   N96 ,Bn4
 .byte   W24
 .byte   PEND 
@  #05 @083   ----------------------------------------
 .byte   W72
 .byte   N24 ,En5
 .byte   W24
@  #05 @084   ----------------------------------------
Label_014C8A83:
 .byte   N24 ,Fs5 ,v100
 .byte   W24
 .byte   En5
 .byte   W24
 .byte   Dn5
 .byte   W24
 .byte   Bn4
 .byte   W24
 .byte   PEND 
@  #05 @085   ----------------------------------------
Label_014C8A8E:
 .byte   N24 ,Dn5 ,v100
 .byte   W24
 .byte   Gn4
 .byte   W24
 .byte   An4
 .byte   W24
 .byte   TIE ,Bn4
 .byte   W24
 .byte   PEND 
@  #05 @086   ----------------------------------------
 .byte   W96
@  #05 @087   ----------------------------------------
 .byte   W96
@  #05 @088   ----------------------------------------
 .byte   EOT
@  #05 @089   ----------------------------------------
 .byte   PATT
  .word Label_014C8A65
@  #05 @090   ----------------------------------------
 .byte   N96 ,En4 ,v100
 .byte   W96
@  #05 @091   ----------------------------------------
 .byte   PATT
  .word Label_014C8A73
@  #05 @092   ----------------------------------------
 .byte   W72
 .byte   N24 ,En5 ,v100
 .byte   W24
@  #05 @093   ----------------------------------------
 .byte   PATT
  .word Label_014C8A83
@  #05 @094   ----------------------------------------
Label_014C8AB5:
 .byte   N24 ,Dn5 ,v100
 .byte   W24
 .byte   Bn4
 .byte   W24
 .byte   Dn5
 .byte   W24
 .byte   TIE ,En5
 .byte   W24
 .byte   PEND 
@  #05 @095   ----------------------------------------
 .byte   W96
@  #05 @096   ----------------------------------------
 .byte   W96
@  #05 @097   ----------------------------------------
 .byte   EOT
@  #05 @098   ----------------------------------------
 .byte   PATT
  .word Label_014C8A65
@  #05 @099   ----------------------------------------
 .byte   N96 ,En4 ,v100
 .byte   W96
@  #05 @100   ----------------------------------------
 .byte   PATT
  .word Label_014C8A73
@  #05 @101   ----------------------------------------
 .byte   W72
 .byte   N24 ,En5 ,v100
 .byte   W24
@  #05 @102   ----------------------------------------
 .byte   PATT
  .word Label_014C8A83
@  #05 @103   ----------------------------------------
 .byte   PATT
  .word Label_014C8A8E
@  #05 @104   ----------------------------------------
 .byte   W96
@  #05 @105   ----------------------------------------
 .byte   W96
@  #05 @106   ----------------------------------------
 .byte   EOT
 .byte   Bn4
@  #05 @107   ----------------------------------------
 .byte   PATT
  .word Label_014C8A65
@  #05 @108   ----------------------------------------
 .byte   N96 ,En4 ,v100
 .byte   W96
@  #05 @109   ----------------------------------------
 .byte   PATT
  .word Label_014C8A73
@  #05 @110   ----------------------------------------
 .byte   W72
 .byte   N24 ,En5 ,v100
 .byte   W24
@  #05 @111   ----------------------------------------
 .byte   PATT
  .word Label_014C8A83
@  #05 @112   ----------------------------------------
 .byte   PATT
  .word Label_014C8AB5
@  #05 @113   ----------------------------------------
 .byte   W96
@  #05 @114   ----------------------------------------
 .byte   W96
@  #05 @115   ----------------------------------------
 .byte   EOT
 .byte   En5
 .byte   W96
@  #05 @116   ----------------------------------------
 .byte   W96
@  #05 @117   ----------------------------------------
 .byte   W96
@  #05 @118   ----------------------------------------
 .byte   W96
@  #05 @119   ----------------------------------------
 .byte   W96
@  #05 @120   ----------------------------------------
 .byte   W96
@  #05 @121   ----------------------------------------
 .byte   W96
@  #05 @122   ----------------------------------------
 .byte   W96
@  #05 @123   ----------------------------------------
 .byte   W96
@  #05 @124   ----------------------------------------
 .byte   W96
@  #05 @125   ----------------------------------------
 .byte   W96
@  #05 @126   ----------------------------------------
 .byte   W96
@  #05 @127   ----------------------------------------
 .byte   W96
@  #05 @128   ----------------------------------------
 .byte   W96
@  #05 @129   ----------------------------------------
 .byte   W96
@  #05 @130   ----------------------------------------
 .byte   W96
@  #05 @131   ----------------------------------------
 .byte   PATT
  .word Label_014C8986
@  #05 @132   ----------------------------------------
 .byte   PATT
  .word Label_014C8991
@  #05 @133   ----------------------------------------
Label_014C8B20:
 .byte   N24 ,Cn5 ,v108
 .byte   W24
 .byte   An4
 .byte   W24
 .byte   Cn5 ,v076
 .byte   W24
 .byte   An4
 .byte   W24
 .byte   PEND 
@  #05 @134   ----------------------------------------
 .byte   PATT
  .word Label_014C89A8
@  #05 @135   ----------------------------------------
 .byte   PATT
  .word Label_014C89B4
@  #05 @136   ----------------------------------------
 .byte   PATT
  .word Label_014C89BC
@  #05 @137   ----------------------------------------
 .byte   PATT
  .word Label_014C89C7
@  #05 @138   ----------------------------------------
 .byte   N24 ,Dn5 ,v048
 .byte   W96
@  #05 @139   ----------------------------------------
 .byte   PATT
  .word Label_014C8986
@  #05 @140   ----------------------------------------
 .byte   PATT
  .word Label_014C8991
@  #05 @141   ----------------------------------------
 .byte   PATT
  .word Label_014C899D
@  #05 @142   ----------------------------------------
 .byte   PATT
  .word Label_014C89A8
@  #05 @143   ----------------------------------------
Label_014C8B58:
 .byte   N24 ,An4 ,v096
 .byte   W24
 .byte   Gn4
 .byte   W24
 .byte   An4
 .byte   W24
 .byte   Gn4
 .byte   W24
 .byte   PEND 
@  #05 @144   ----------------------------------------
Label_014C8B63:
 .byte   N24 ,En4 ,v096
 .byte   N24 ,An4 ,v068
 .byte   W24
 .byte   Fn4 ,v096
 .byte   N24 ,Gn4 ,v068
 .byte   W24
 .byte   En4 ,v096
 .byte   W24
 .byte   Cn4
 .byte   N24 ,Fn4 ,v068
 .byte   W24
 .byte   PEND 
@  #05 @145   ----------------------------------------
Label_014C8B79:
 .byte   N24 ,Dn4 ,v096
 .byte   N24 ,En4 ,v068
 .byte   W24
 .byte   Cn4
 .byte   W24
 .byte   Dn4
 .byte   W24
 .byte   Cn4 ,v048
 .byte   W24
 .byte   PEND 
@  #05 @146   ----------------------------------------
 .byte   Dn4
 .byte   W96
@  #05 @147   ----------------------------------------
 .byte   PATT
  .word Label_014C8A65
@  #05 @148   ----------------------------------------
 .byte   N96 ,En4 ,v100
 .byte   W96
@  #05 @149   ----------------------------------------
 .byte   PATT
  .word Label_014C8A73
@  #05 @150   ----------------------------------------
 .byte   W72
 .byte   N24 ,En5 ,v100
 .byte   W24
@  #05 @151   ----------------------------------------
 .byte   PATT
  .word Label_014C8A83
@  #05 @152   ----------------------------------------
 .byte   PATT
  .word Label_014C8A8E
@  #05 @153   ----------------------------------------
 .byte   W96
@  #05 @154   ----------------------------------------
 .byte   W96
@  #05 @155   ----------------------------------------
 .byte   EOT
 .byte   Bn4
@  #05 @156   ----------------------------------------
 .byte   PATT
  .word Label_014C8A65
@  #05 @157   ----------------------------------------
 .byte   N96 ,En4 ,v100
 .byte   W96
@  #05 @158   ----------------------------------------
 .byte   PATT
  .word Label_014C8A73
@  #05 @159   ----------------------------------------
 .byte   W72
 .byte   N24 ,En5 ,v100
 .byte   W24
@  #05 @160   ----------------------------------------
 .byte   PATT
  .word Label_014C8A83
@  #05 @161   ----------------------------------------
 .byte   PATT
  .word Label_014C8AB5
@  #05 @162   ----------------------------------------
 .byte   W96
@  #05 @163   ----------------------------------------
 .byte   W96
@  #05 @164   ----------------------------------------
 .byte   EOT
 .byte   En5
@  #05 @165   ----------------------------------------
 .byte   PATT
  .word Label_014C8A65
@  #05 @166   ----------------------------------------
 .byte   N96 ,En4 ,v100
 .byte   W96
@  #05 @167   ----------------------------------------
 .byte   PATT
  .word Label_014C8A73
@  #05 @168   ----------------------------------------
 .byte   W72
 .byte   N24 ,En5 ,v100
 .byte   W24
@  #05 @169   ----------------------------------------
 .byte   PATT
  .word Label_014C8A83
@  #05 @170   ----------------------------------------
 .byte   PATT
  .word Label_014C8A8E
@  #05 @171   ----------------------------------------
 .byte   W96
@  #05 @172   ----------------------------------------
 .byte   W96
@  #05 @173   ----------------------------------------
 .byte   EOT
 .byte   Bn4
@  #05 @174   ----------------------------------------
 .byte   PATT
  .word Label_014C8A65
@  #05 @175   ----------------------------------------
 .byte   N96 ,En4 ,v100
 .byte   W96
@  #05 @176   ----------------------------------------
 .byte   PATT
  .word Label_014C8A73
@  #05 @177   ----------------------------------------
 .byte   W72
 .byte   N24 ,En5 ,v100
 .byte   W24
@  #05 @178   ----------------------------------------
 .byte   PATT
  .word Label_014C8A83
@  #05 @179   ----------------------------------------
 .byte   PATT
  .word Label_014C8AB5
@  #05 @180   ----------------------------------------
 .byte   W96
@  #05 @181   ----------------------------------------
 .byte   W96
@  #05 @182   ----------------------------------------
 .byte   EOT
 .byte   En5
 .byte   W96
@  #05 @183   ----------------------------------------
 .byte   W96
@  #05 @184   ----------------------------------------
 .byte   W96
@  #05 @185   ----------------------------------------
 .byte   W96
@  #05 @186   ----------------------------------------
 .byte   W96
@  #05 @187   ----------------------------------------
 .byte   W96
@  #05 @188   ----------------------------------------
 .byte   W96
@  #05 @189   ----------------------------------------
 .byte   W96
@  #05 @190   ----------------------------------------
 .byte   W96
@  #05 @191   ----------------------------------------
 .byte   W96
@  #05 @192   ----------------------------------------
 .byte   W96
@  #05 @193   ----------------------------------------
 .byte   W96
@  #05 @194   ----------------------------------------
 .byte   W96
@  #05 @195   ----------------------------------------
 .byte   W96
@  #05 @196   ----------------------------------------
 .byte   W96
@  #05 @197   ----------------------------------------
 .byte   W96
@  #05 @198   ----------------------------------------
 .byte   W96
@  #05 @199   ----------------------------------------
 .byte   W96
@  #05 @200   ----------------------------------------
 .byte   W96
@  #05 @201   ----------------------------------------
 .byte   W96
@  #05 @202   ----------------------------------------
 .byte   W96
@  #05 @203   ----------------------------------------
 .byte   W96
@  #05 @204   ----------------------------------------
 .byte   W96
@  #05 @205   ----------------------------------------
 .byte   W96
@  #05 @206   ----------------------------------------
 .byte   W96
@  #05 @207   ----------------------------------------
 .byte   W96
@  #05 @208   ----------------------------------------
 .byte   W96
@  #05 @209   ----------------------------------------
 .byte   W96
@  #05 @210   ----------------------------------------
 .byte   W96
@  #05 @211   ----------------------------------------
 .byte   W96
@  #05 @212   ----------------------------------------
 .byte   W96
@  #05 @213   ----------------------------------------
 .byte   W96
@  #05 @214   ----------------------------------------
 .byte   PATT
  .word Label_014C8986
@  #05 @215   ----------------------------------------
 .byte   PATT
  .word Label_014C8991
@  #05 @216   ----------------------------------------
 .byte   PATT
  .word Label_014C8B20
@  #05 @217   ----------------------------------------
 .byte   PATT
  .word Label_014C89A8
@  #05 @218   ----------------------------------------
 .byte   PATT
  .word Label_014C89B4
@  #05 @219   ----------------------------------------
 .byte   PATT
  .word Label_014C89BC
@  #05 @220   ----------------------------------------
 .byte   PATT
  .word Label_014C89C7
@  #05 @221   ----------------------------------------
 .byte   N24 ,Dn5 ,v048
 .byte   W96
@  #05 @222   ----------------------------------------
 .byte   PATT
  .word Label_014C8986
@  #05 @223   ----------------------------------------
 .byte   PATT
  .word Label_014C8991
@  #05 @224   ----------------------------------------
 .byte   PATT
  .word Label_014C899D
@  #05 @225   ----------------------------------------
 .byte   PATT
  .word Label_014C89A8
@  #05 @226   ----------------------------------------
 .byte   PATT
  .word Label_014C8B58
@  #05 @227   ----------------------------------------
 .byte   PATT
  .word Label_014C8B63
@  #05 @228   ----------------------------------------
 .byte   PATT
  .word Label_014C8B79
@  #05 @229   ----------------------------------------
 .byte   N24 ,Dn4 ,v048
 .byte   W96
@  #05 @230   ----------------------------------------
 .byte   PATT
  .word Label_014C8986
@  #05 @231   ----------------------------------------
 .byte   PATT
  .word Label_014C8991
@  #05 @232   ----------------------------------------
 .byte   PATT
  .word Label_014C899D
@  #05 @233   ----------------------------------------
 .byte   PATT
  .word Label_014C89A8
@  #05 @234   ----------------------------------------
 .byte   PATT
  .word Label_014C89B4
@  #05 @235   ----------------------------------------
 .byte   PATT
  .word Label_014C89BC
@  #05 @236   ----------------------------------------
 .byte   PATT
  .word Label_014C89C7
@  #05 @237   ----------------------------------------
 .byte   N24 ,Dn5 ,v048
 .byte   W96
@  #05 @238   ----------------------------------------
 .byte   PATT
  .word Label_014C8986
@  #05 @239   ----------------------------------------
 .byte   PATT
  .word Label_014C8991
@  #05 @240   ----------------------------------------
 .byte   PATT
  .word Label_014C899D
@  #05 @241   ----------------------------------------
 .byte   PATT
  .word Label_014C89A8
@  #05 @242   ----------------------------------------
 .byte   PATT
  .word Label_014C89E9
@  #05 @243   ----------------------------------------
 .byte   PATT
  .word Label_014C89FC
@  #05 @244   ----------------------------------------
 .byte   PATT
  .word Label_014C8A26
@  #05 @245   ----------------------------------------
 .byte   N24 ,Dn3 ,v048
 .byte   N24 ,Dn4
 .byte   W96
@  #05 @246   ----------------------------------------
 .byte   W96
@  #05 @247   ----------------------------------------
 .byte   W96
@  #05 @248   ----------------------------------------
 .byte   W96
@  #05 @249   ----------------------------------------
 .byte   GOTO
  .word Label_014C8A45
@  #05 @250   ----------------------------------------
 .byte   W96
@  #05 @251   ----------------------------------------
 .byte   VOICE , 81
 .byte   PAN , c_v+0
 .byte   VOL , 40*DeathIDeservioli_mvl/mxv
 .byte   PAN , c_v+0
 .byte   VOL , 40*DeathIDeservioli_mvl/mxv
 .byte   PAN , c_v+0
 .byte   VOL , 40*DeathIDeservioli_mvl/mxv
 .byte   BEND , c_v+0
 .byte   FINE

@**************** Track 6 (Midi-Chn.5) ****************@

DeathIDeservioli_006:
@  #06 @000   ----------------------------------------
 .byte   KEYSH , DeathIDeservioli_key+0
 .byte   VOICE , 30
 .byte   PAN , c_v+0
 .byte   VOL , 48*DeathIDeservioli_mvl/mxv
 .byte   PAN , c_v+0
 .byte   VOL , 48*DeathIDeservioli_mvl/mxv
 .byte   PAN , c_v+0
 .byte   VOL , 48*DeathIDeservioli_mvl/mxv
 .byte   BEND , c_v+0
 .byte   W96
@  #06 @001   ----------------------------------------
 .byte   W96
@  #06 @002   ----------------------------------------
 .byte   W96
@  #06 @003   ----------------------------------------
 .byte   W96
@  #06 @004   ----------------------------------------
 .byte   W96
@  #06 @005   ----------------------------------------
 .byte   W96
@  #06 @006   ----------------------------------------
 .byte   W96
@  #06 @007   ----------------------------------------
 .byte   W96
@  #06 @008   ----------------------------------------
 .byte   W96
@  #06 @009   ----------------------------------------
 .byte   W96
@  #06 @010   ----------------------------------------
 .byte   W96
@  #06 @011   ----------------------------------------
 .byte   W96
@  #06 @012   ----------------------------------------
 .byte   W96
@  #06 @013   ----------------------------------------
 .byte   W96
@  #06 @014   ----------------------------------------
 .byte   W96
@  #06 @015   ----------------------------------------
 .byte   W96
@  #06 @016   ----------------------------------------
 .byte   W96
@  #06 @017   ----------------------------------------
 .byte   W96
@  #06 @018   ----------------------------------------
 .byte   W96
@  #06 @019   ----------------------------------------
 .byte   W96
@  #06 @020   ----------------------------------------
 .byte   W96
@  #06 @021   ----------------------------------------
 .byte   W96
@  #06 @022   ----------------------------------------
 .byte   W96
@  #06 @023   ----------------------------------------
 .byte   W96
@  #06 @024   ----------------------------------------
 .byte   W96
@  #06 @025   ----------------------------------------
 .byte   W96
@  #06 @026   ----------------------------------------
 .byte   W96
@  #06 @027   ----------------------------------------
 .byte   W96
@  #06 @028   ----------------------------------------
 .byte   W96
@  #06 @029   ----------------------------------------
 .byte   W96
@  #06 @030   ----------------------------------------
 .byte   W96
@  #06 @031   ----------------------------------------
 .byte   W96
@  #06 @032   ----------------------------------------
 .byte   W96
@  #06 @033   ----------------------------------------
 .byte   W96
@  #06 @034   ----------------------------------------
 .byte   W96
@  #06 @035   ----------------------------------------
 .byte   W96
@  #06 @036   ----------------------------------------
 .byte   W96
@  #06 @037   ----------------------------------------
 .byte   W96
@  #06 @038   ----------------------------------------
 .byte   W96
@  #06 @039   ----------------------------------------
 .byte   W96
@  #06 @040   ----------------------------------------
 .byte   W96
@  #06 @041   ----------------------------------------
 .byte   W96
@  #06 @042   ----------------------------------------
 .byte   W96
@  #06 @043   ----------------------------------------
 .byte   W96
@  #06 @044   ----------------------------------------
 .byte   N24 ,An2 ,v096
 .byte   W24
 .byte   Gn2
 .byte   W24
 .byte   An2
 .byte   W24
 .byte   Gn2
 .byte   W24
@  #06 @045   ----------------------------------------
 .byte   En2
 .byte   W24
 .byte   Fn2
 .byte   W24
 .byte   En2
 .byte   W24
 .byte   Cn2
 .byte   W24
@  #06 @046   ----------------------------------------
 .byte   TIE ,Dn2
 .byte   W96
@  #06 @047   ----------------------------------------
 .byte   W96
@  #06 @048   ----------------------------------------
 .byte   EOT
Label_014CCA15:
 .byte   N24 ,Dn2 ,v120
 .byte   W24
 .byte   An2 ,v127
 .byte   W24
 .byte   Dn2 ,v120
 .byte   W24
 .byte   An2 ,v127
 .byte   W24
 .byte   PEND 
@  #06 @049   ----------------------------------------
Label_014CCA23:
 .byte   N24 ,Dn2 ,v096
 .byte   W24
 .byte   An2
 .byte   W24
 .byte   Dn2 ,v068
 .byte   W24
 .byte   An2
 .byte   W24
 .byte   PEND 
@  #06 @050   ----------------------------------------
Label_014CCA2F:
 .byte   N24 ,Cn3 ,v127
 .byte   W24
 .byte   An2
 .byte   W24
 .byte   Cn3
 .byte   W24
 .byte   An2
 .byte   W24
 .byte   PEND 
@  #06 @051   ----------------------------------------
Label_014CCA3A:
 .byte   N24 ,Cn3 ,v096
 .byte   W24
 .byte   An2
 .byte   W24
 .byte   Cn3 ,v068
 .byte   W24
 .byte   An2
 .byte   W24
 .byte   PEND 
@  #06 @052   ----------------------------------------
Label_014CCA46:
 .byte   N24 ,Cn3 ,v127
 .byte   W48
 .byte   Cn3 ,v096
 .byte   W48
 .byte   PEND 
@  #06 @053   ----------------------------------------
Label_014CCA4E:
 .byte   N24 ,An2 ,v127
 .byte   N24 ,Cn3 ,v068
 .byte   W48
 .byte   An2 ,v096
 .byte   W48
 .byte   PEND 
@  #06 @054   ----------------------------------------
Label_014CCA59:
 .byte   N12 ,An2 ,v068
 .byte   N12 ,Cn3 ,v127
 .byte   W12
 .byte   TIE ,Dn3
 .byte   W84
 .byte   PEND 
@  #06 @055   ----------------------------------------
 .byte   W96
@  #06 @056   ----------------------------------------
 .byte   EOT
@  #06 @057   ----------------------------------------
 .byte   PATT
  .word Label_014CCA15
@  #06 @058   ----------------------------------------
 .byte   PATT
  .word Label_014CCA23
@  #06 @059   ----------------------------------------
 .byte   PATT
  .word Label_014CCA2F
@  #06 @060   ----------------------------------------
 .byte   PATT
  .word Label_014CCA3A
@  #06 @061   ----------------------------------------
Label_014CCA7A:
 .byte   N24 ,Dn3 ,v127
 .byte   W24
 .byte   N48 ,En3
 .byte   W24
 .byte   N24 ,Dn3 ,v096
 .byte   W24
 .byte   N48 ,En3
 .byte   N24 ,Fn3 ,v127
 .byte   W24
 .byte   PEND 
@  #06 @062   ----------------------------------------
Label_014CCA8C:
 .byte   N24 ,Dn3 ,v068
 .byte   W24
 .byte   En3 ,v127
 .byte   N24 ,Fn3 ,v096
 .byte   W48
 .byte   N12 ,En3 ,v127
 .byte   W12
 .byte   TIE ,Dn3
 .byte   W12
 .byte   PEND 
@  #06 @063   ----------------------------------------
 .byte   W96
@  #06 @064   ----------------------------------------
 .byte   W96
@  #06 @065   ----------------------------------------
 .byte   EOT
@  #06 @066   ----------------------------------------
 .byte   PATT
  .word Label_014CCA15
@  #06 @067   ----------------------------------------
 .byte   PATT
  .word Label_014CCA23
@  #06 @068   ----------------------------------------
 .byte   PATT
  .word Label_014CCA2F
@  #06 @069   ----------------------------------------
 .byte   PATT
  .word Label_014CCA3A
@  #06 @070   ----------------------------------------
 .byte   PATT
  .word Label_014CCA46
@  #06 @071   ----------------------------------------
 .byte   PATT
  .word Label_014CCA4E
@  #06 @072   ----------------------------------------
 .byte   PATT
  .word Label_014CCA59
@  #06 @073   ----------------------------------------
 .byte   W96
@  #06 @074   ----------------------------------------
 .byte   EOT
 .byte   Dn3
@  #06 @075   ----------------------------------------
 .byte   PATT
  .word Label_014CCA15
@  #06 @076   ----------------------------------------
 .byte   PATT
  .word Label_014CCA23
@  #06 @077   ----------------------------------------
 .byte   PATT
  .word Label_014CCA2F
@  #06 @078   ----------------------------------------
 .byte   PATT
  .word Label_014CCA3A
@  #06 @079   ----------------------------------------
 .byte   PATT
  .word Label_014CCA7A
@  #06 @080   ----------------------------------------
 .byte   PATT
  .word Label_014CCA8C
@  #06 @081   ----------------------------------------
 .byte   W96
@  #06 @082   ----------------------------------------
 .byte   W96
@  #06 @083   ----------------------------------------
 .byte   EOT
 .byte   Dn3
Label_014CCAE9:
 .byte   N24 ,Gn2 ,v120
 .byte   W24
 .byte   Fn2
 .byte   W24
 .byte   En2
 .byte   W24
 .byte   Dn2
 .byte   W24
 .byte   PEND 
@  #06 @084   ----------------------------------------
 .byte   N96 ,En2
 .byte   W96
@  #06 @085   ----------------------------------------
Label_014CCAF7:
 .byte   N24 ,Gn2 ,v120
 .byte   W24
 .byte   Fn2
 .byte   W24
 .byte   En2
 .byte   W24
 .byte   N96 ,Bn2
 .byte   W24
 .byte   PEND 
@  #06 @086   ----------------------------------------
 .byte   W72
 .byte   N24 ,En3
 .byte   W24
@  #06 @087   ----------------------------------------
Label_014CCB07:
 .byte   N24 ,Fs3 ,v120
 .byte   W24
 .byte   En3
 .byte   W24
 .byte   Dn3
 .byte   W24
 .byte   Bn2
 .byte   W24
 .byte   PEND 
@  #06 @088   ----------------------------------------
Label_014CCB12:
 .byte   N24 ,Dn3 ,v120
 .byte   W24
 .byte   Gn2
 .byte   W24
 .byte   An2
 .byte   W24
 .byte   TIE ,Bn2
 .byte   W24
 .byte   PEND 
@  #06 @089   ----------------------------------------
 .byte   W96
@  #06 @090   ----------------------------------------
 .byte   W96
@  #06 @091   ----------------------------------------
 .byte   EOT
@  #06 @092   ----------------------------------------
 .byte   PATT
  .word Label_014CCAE9
@  #06 @093   ----------------------------------------
 .byte   N96 ,En2 ,v120
 .byte   W96
@  #06 @094   ----------------------------------------
 .byte   PATT
  .word Label_014CCAF7
@  #06 @095   ----------------------------------------
 .byte   W72
 .byte   N24 ,En3 ,v120
 .byte   W24
@  #06 @096   ----------------------------------------
 .byte   PATT
  .word Label_014CCB07
@  #06 @097   ----------------------------------------
Label_014CCB39:
 .byte   N24 ,Dn3 ,v120
 .byte   W24
 .byte   Bn2
 .byte   W24
 .byte   Dn3
 .byte   W24
 .byte   TIE ,En3
 .byte   W24
 .byte   PEND 
@  #06 @098   ----------------------------------------
 .byte   W96
@  #06 @099   ----------------------------------------
 .byte   W96
@  #06 @100   ----------------------------------------
 .byte   EOT
@  #06 @101   ----------------------------------------
 .byte   PATT
  .word Label_014CCAE9
@  #06 @102   ----------------------------------------
 .byte   N96 ,En2 ,v120
 .byte   W96
@  #06 @103   ----------------------------------------
 .byte   PATT
  .word Label_014CCAF7
@  #06 @104   ----------------------------------------
 .byte   W72
 .byte   N24 ,En3 ,v120
 .byte   W24
@  #06 @105   ----------------------------------------
 .byte   PATT
  .word Label_014CCB07
@  #06 @106   ----------------------------------------
 .byte   PATT
  .word Label_014CCB12
@  #06 @107   ----------------------------------------
 .byte   W96
@  #06 @108   ----------------------------------------
 .byte   W96
@  #06 @109   ----------------------------------------
 .byte   EOT
 .byte   Bn2
@  #06 @110   ----------------------------------------
 .byte   PATT
  .word Label_014CCAE9
@  #06 @111   ----------------------------------------
 .byte   N96 ,En2 ,v120
 .byte   W96
@  #06 @112   ----------------------------------------
 .byte   PATT
  .word Label_014CCAF7
@  #06 @113   ----------------------------------------
 .byte   W72
 .byte   N24 ,En3 ,v120
 .byte   W24
@  #06 @114   ----------------------------------------
 .byte   PATT
  .word Label_014CCB07
@  #06 @115   ----------------------------------------
 .byte   PATT
  .word Label_014CCB39
@  #06 @116   ----------------------------------------
 .byte   W96
@  #06 @117   ----------------------------------------
 .byte   W96
@  #06 @118   ----------------------------------------
 .byte   EOT
 .byte   En3
 .byte   W96
@  #06 @119   ----------------------------------------
 .byte   W96
@  #06 @120   ----------------------------------------
 .byte   W96
@  #06 @121   ----------------------------------------
 .byte   W96
@  #06 @122   ----------------------------------------
 .byte   W96
@  #06 @123   ----------------------------------------
 .byte   W96
@  #06 @124   ----------------------------------------
 .byte   W96
@  #06 @125   ----------------------------------------
 .byte   W96
@  #06 @126   ----------------------------------------
 .byte   W96
@  #06 @127   ----------------------------------------
 .byte   W96
@  #06 @128   ----------------------------------------
 .byte   W96
@  #06 @129   ----------------------------------------
 .byte   W96
@  #06 @130   ----------------------------------------
 .byte   W96
@  #06 @131   ----------------------------------------
 .byte   W96
@  #06 @132   ----------------------------------------
 .byte   W96
@  #06 @133   ----------------------------------------
 .byte   W96
@  #06 @134   ----------------------------------------
 .byte   W96
@  #06 @135   ----------------------------------------
 .byte   W96
@  #06 @136   ----------------------------------------
 .byte   W96
@  #06 @137   ----------------------------------------
 .byte   W96
@  #06 @138   ----------------------------------------
 .byte   W96
@  #06 @139   ----------------------------------------
 .byte   W96
@  #06 @140   ----------------------------------------
 .byte   W96
@  #06 @141   ----------------------------------------
 .byte   W96
@  #06 @142   ----------------------------------------
 .byte   W96
@  #06 @143   ----------------------------------------
 .byte   W96
@  #06 @144   ----------------------------------------
 .byte   W96
@  #06 @145   ----------------------------------------
 .byte   W96
@  #06 @146   ----------------------------------------
 .byte   N24 ,Dn3 ,v120
 .byte   W24
 .byte   N72 ,En3
 .byte   W72
@  #06 @147   ----------------------------------------
 .byte   N24 ,Fn3 ,v124
 .byte   W48
 .byte   En3
 .byte   W48
@  #06 @148   ----------------------------------------
 .byte   N12
 .byte   W12
 .byte   TIE ,Dn3
 .byte   W84
@  #06 @149   ----------------------------------------
 .byte   W96
@  #06 @150   ----------------------------------------
 .byte   EOT
@  #06 @151   ----------------------------------------
 .byte   PATT
  .word Label_014CCAE9
@  #06 @152   ----------------------------------------
 .byte   N96 ,En2 ,v120
 .byte   W96
@  #06 @153   ----------------------------------------
 .byte   PATT
  .word Label_014CCAF7
@  #06 @154   ----------------------------------------
 .byte   W72
 .byte   N24 ,En3 ,v120
 .byte   W24
@  #06 @155   ----------------------------------------
 .byte   PATT
  .word Label_014CCB07
@  #06 @156   ----------------------------------------
 .byte   PATT
  .word Label_014CCB12
@  #06 @157   ----------------------------------------
 .byte   W96
@  #06 @158   ----------------------------------------
 .byte   W96
@  #06 @159   ----------------------------------------
 .byte   EOT
 .byte   Bn2
@  #06 @160   ----------------------------------------
 .byte   PATT
  .word Label_014CCAE9
@  #06 @161   ----------------------------------------
 .byte   N96 ,En2 ,v120
 .byte   W96
@  #06 @162   ----------------------------------------
 .byte   PATT
  .word Label_014CCAF7
@  #06 @163   ----------------------------------------
 .byte   W72
 .byte   N24 ,En3 ,v120
 .byte   W24
@  #06 @164   ----------------------------------------
 .byte   PATT
  .word Label_014CCB07
@  #06 @165   ----------------------------------------
 .byte   PATT
  .word Label_014CCB39
@  #06 @166   ----------------------------------------
 .byte   W96
@  #06 @167   ----------------------------------------
 .byte   W96
@  #06 @168   ----------------------------------------
 .byte   EOT
 .byte   En3
@  #06 @169   ----------------------------------------
 .byte   PATT
  .word Label_014CCAE9
@  #06 @170   ----------------------------------------
 .byte   N96 ,En2 ,v120
 .byte   W96
@  #06 @171   ----------------------------------------
 .byte   PATT
  .word Label_014CCAF7
@  #06 @172   ----------------------------------------
 .byte   W72
 .byte   N24 ,En3 ,v120
 .byte   W24
@  #06 @173   ----------------------------------------
 .byte   PATT
  .word Label_014CCB07
@  #06 @174   ----------------------------------------
 .byte   PATT
  .word Label_014CCB12
@  #06 @175   ----------------------------------------
 .byte   W96
@  #06 @176   ----------------------------------------
 .byte   W96
@  #06 @177   ----------------------------------------
 .byte   EOT
 .byte   Bn2
@  #06 @178   ----------------------------------------
 .byte   PATT
  .word Label_014CCAE9
@  #06 @179   ----------------------------------------
 .byte   N96 ,En2 ,v120
 .byte   W96
@  #06 @180   ----------------------------------------
 .byte   PATT
  .word Label_014CCAF7
@  #06 @181   ----------------------------------------
 .byte   W72
 .byte   N24 ,En3 ,v120
 .byte   W24
@  #06 @182   ----------------------------------------
 .byte   PATT
  .word Label_014CCB07
@  #06 @183   ----------------------------------------
 .byte   PATT
  .word Label_014CCB39
@  #06 @184   ----------------------------------------
 .byte   W96
@  #06 @185   ----------------------------------------
 .byte   W96
@  #06 @186   ----------------------------------------
 .byte   EOT
 .byte   En3
 .byte   W96
@  #06 @187   ----------------------------------------
 .byte   W96
@  #06 @188   ----------------------------------------
 .byte   W96
@  #06 @189   ----------------------------------------
 .byte   W96
@  #06 @190   ----------------------------------------
 .byte   W96
@  #06 @191   ----------------------------------------
 .byte   W96
@  #06 @192   ----------------------------------------
 .byte   W96
@  #06 @193   ----------------------------------------
 .byte   W96
@  #06 @194   ----------------------------------------
 .byte   W96
@  #06 @195   ----------------------------------------
 .byte   W96
@  #06 @196   ----------------------------------------
 .byte   W96
@  #06 @197   ----------------------------------------
 .byte   W96
@  #06 @198   ----------------------------------------
 .byte   W96
@  #06 @199   ----------------------------------------
 .byte   W96
@  #06 @200   ----------------------------------------
 .byte   W96
@  #06 @201   ----------------------------------------
 .byte   W96
@  #06 @202   ----------------------------------------
 .byte   TIE ,Dn3 ,v127
 .byte   W96
@  #06 @203   ----------------------------------------
 .byte   W96
@  #06 @204   ----------------------------------------
 .byte   EOT
 .byte   TIE ,Cn3
 .byte   W96
@  #06 @205   ----------------------------------------
 .byte   W96
@  #06 @206   ----------------------------------------
 .byte   EOT
 .byte   TIE ,Bn2
 .byte   W96
@  #06 @207   ----------------------------------------
 .byte   W96
@  #06 @208   ----------------------------------------
 .byte   W96
@  #06 @209   ----------------------------------------
 .byte   EOT
 .byte   N96 ,As2
 .byte   W96
@  #06 @210   ----------------------------------------
 .byte   TIE ,Dn3
 .byte   W96
@  #06 @211   ----------------------------------------
 .byte   W96
@  #06 @212   ----------------------------------------
 .byte   EOT
 .byte   TIE ,Cn3
 .byte   W96
@  #06 @213   ----------------------------------------
 .byte   W96
@  #06 @214   ----------------------------------------
 .byte   EOT
 .byte   N96 ,Dn3
 .byte   W96
@  #06 @215   ----------------------------------------
 .byte   N48 ,Fn3
 .byte   W48
 .byte   N24 ,Gn3
 .byte   W24
 .byte   Fn3
 .byte   W24
@  #06 @216   ----------------------------------------
Label_014CCC77:
 .byte   W24
 .byte   N36 ,Dn3 ,v127
 .byte   W48
 .byte   Cn3
 .byte   W24
 .byte   PEND 
@  #06 @217   ----------------------------------------
 .byte   W24
 .byte   N48 ,Dn3
 .byte   W72
@  #06 @218   ----------------------------------------
 .byte   TIE
 .byte   W96
@  #06 @219   ----------------------------------------
 .byte   W96
@  #06 @220   ----------------------------------------
 .byte   EOT
 .byte   TIE ,Cn3
 .byte   W96
@  #06 @221   ----------------------------------------
 .byte   W96
@  #06 @222   ----------------------------------------
 .byte   EOT
 .byte   TIE ,Bn2
 .byte   W96
@  #06 @223   ----------------------------------------
 .byte   W96
@  #06 @224   ----------------------------------------
 .byte   W96
@  #06 @225   ----------------------------------------
 .byte   EOT
 .byte   N96 ,As2
 .byte   W96
@  #06 @226   ----------------------------------------
 .byte   TIE ,Dn3
 .byte   W96
@  #06 @227   ----------------------------------------
 .byte   W96
@  #06 @228   ----------------------------------------
 .byte   EOT
 .byte   TIE ,Cn3
 .byte   W96
@  #06 @229   ----------------------------------------
 .byte   W96
@  #06 @230   ----------------------------------------
 .byte   EOT
 .byte   N96 ,Dn3
 .byte   W96
@  #06 @231   ----------------------------------------
 .byte   N48 ,Fn3
 .byte   W48
 .byte   N24 ,Gn3
 .byte   W24
 .byte   N48 ,Fn3
 .byte   W24
@  #06 @232   ----------------------------------------
 .byte   PATT
  .word Label_014CCC77
@  #06 @233   ----------------------------------------
 .byte   W24
 .byte   N36 ,Dn3 ,v127
 .byte   W48
 .byte   TIE
 .byte   W24
@  #06 @234   ----------------------------------------
 .byte   W96
@  #06 @235   ----------------------------------------
 .byte   W96
@  #06 @236   ----------------------------------------
 .byte   EOT
 .byte   W96
@  #06 @237   ----------------------------------------
 .byte   W96
@  #06 @238   ----------------------------------------
 .byte   W96
@  #06 @239   ----------------------------------------
 .byte   W96
@  #06 @240   ----------------------------------------
 .byte   W96
@  #06 @241   ----------------------------------------
 .byte   W96
@  #06 @242   ----------------------------------------
 .byte   W96
@  #06 @243   ----------------------------------------
 .byte   W96
@  #06 @244   ----------------------------------------
 .byte   W96
@  #06 @245   ----------------------------------------
 .byte   W96
@  #06 @246   ----------------------------------------
 .byte   W96
@  #06 @247   ----------------------------------------
 .byte   W96
@  #06 @248   ----------------------------------------
 .byte   W96
@  #06 @249   ----------------------------------------
 .byte   W96
@  #06 @250   ----------------------------------------
 .byte   W96
@  #06 @251   ----------------------------------------
 .byte   W96
@  #06 @252   ----------------------------------------
 .byte   W96
@  #06 @253   ----------------------------------------
 .byte   GOTO
  .word Label_014CCA15
@  #06 @254   ----------------------------------------
 .byte   W96
@  #06 @255   ----------------------------------------
 .byte   VOICE , 30
 .byte   PAN , c_v+0
 .byte   VOL , 48*DeathIDeservioli_mvl/mxv
 .byte   PAN , c_v+0
 .byte   VOL , 48*DeathIDeservioli_mvl/mxv
 .byte   PAN , c_v+0
 .byte   VOL , 48*DeathIDeservioli_mvl/mxv
 .byte   BEND , c_v+0
 .byte   FINE

@**************** Track 7 (Midi-Chn.6) ****************@

DeathIDeservioli_007:
@  #07 @000   ----------------------------------------
 .byte   KEYSH , DeathIDeservioli_key+0
 .byte   VOICE , 30
 .byte   PAN , c_v+0
 .byte   VOL , 40*DeathIDeservioli_mvl/mxv
 .byte   PAN , c_v+0
 .byte   VOL , 40*DeathIDeservioli_mvl/mxv
 .byte   PAN , c_v+0
 .byte   VOL , 40*DeathIDeservioli_mvl/mxv
 .byte   BEND , c_v+0
 .byte   W96
@  #07 @001   ----------------------------------------
 .byte   W96
@  #07 @002   ----------------------------------------
 .byte   W96
@  #07 @003   ----------------------------------------
 .byte   W96
@  #07 @004   ----------------------------------------
 .byte   W96
@  #07 @005   ----------------------------------------
 .byte   W96
@  #07 @006   ----------------------------------------
 .byte   W96
@  #07 @007   ----------------------------------------
 .byte   W96
@  #07 @008   ----------------------------------------
 .byte   W96
@  #07 @009   ----------------------------------------
 .byte   W96
@  #07 @010   ----------------------------------------
 .byte   W96
@  #07 @011   ----------------------------------------
 .byte   W96
@  #07 @012   ----------------------------------------
 .byte   W96
@  #07 @013   ----------------------------------------
 .byte   W96
@  #07 @014   ----------------------------------------
 .byte   W96
@  #07 @015   ----------------------------------------
 .byte   W96
@  #07 @016   ----------------------------------------
 .byte   W96
@  #07 @017   ----------------------------------------
 .byte   W96
@  #07 @018   ----------------------------------------
 .byte   W96
@  #07 @019   ----------------------------------------
 .byte   W96
@  #07 @020   ----------------------------------------
 .byte   W96
@  #07 @021   ----------------------------------------
 .byte   W96
@  #07 @022   ----------------------------------------
 .byte   W96
@  #07 @023   ----------------------------------------
 .byte   W96
@  #07 @024   ----------------------------------------
 .byte   W96
@  #07 @025   ----------------------------------------
 .byte   W96
@  #07 @026   ----------------------------------------
 .byte   W96
@  #07 @027   ----------------------------------------
 .byte   W96
@  #07 @028   ----------------------------------------
 .byte   W96
@  #07 @029   ----------------------------------------
 .byte   W96
@  #07 @030   ----------------------------------------
 .byte   W96
@  #07 @031   ----------------------------------------
 .byte   W96
@  #07 @032   ----------------------------------------
 .byte   W96
@  #07 @033   ----------------------------------------
 .byte   W96
@  #07 @034   ----------------------------------------
 .byte   W96
@  #07 @035   ----------------------------------------
 .byte   W96
@  #07 @036   ----------------------------------------
 .byte   W96
@  #07 @037   ----------------------------------------
 .byte   W96
@  #07 @038   ----------------------------------------
 .byte   W96
@  #07 @039   ----------------------------------------
 .byte   W96
@  #07 @040   ----------------------------------------
 .byte   W96
@  #07 @041   ----------------------------------------
 .byte   W96
@  #07 @042   ----------------------------------------
 .byte   W96
@  #07 @043   ----------------------------------------
 .byte   W96
@  #07 @044   ----------------------------------------
 .byte   W96
@  #07 @045   ----------------------------------------
 .byte   W96
@  #07 @046   ----------------------------------------
 .byte   W96
@  #07 @047   ----------------------------------------
 .byte   W96
@  #07 @048   ----------------------------------------
Label_014CD0A6:
 .byte   N24 ,Dn2 ,v108
 .byte   W48
 .byte   N24
 .byte   W48
 .byte   PEND 
@  #07 @049   ----------------------------------------
Label_014CD0AD:
 .byte   N18 ,Dn2 ,v108
 .byte   W24
 .byte   N18
 .byte   W24
 .byte   N24 ,Cn2
 .byte   W24
 .byte   Dn2
 .byte   W24
 .byte   PEND 
@  #07 @050   ----------------------------------------
Label_014CD0B9:
 .byte   W24
 .byte   N24 ,Cn2 ,v108
 .byte   W24
 .byte   Dn2
 .byte   W24
 .byte   Cn2
 .byte   W24
 .byte   PEND 
@  #07 @051   ----------------------------------------
 .byte   N96 ,Fn2
 .byte   W96
@  #07 @052   ----------------------------------------
 .byte   PATT
  .word Label_014CD0A6
@  #07 @053   ----------------------------------------
 .byte   PATT
  .word Label_014CD0AD
@  #07 @054   ----------------------------------------
 .byte   PATT
  .word Label_014CD0B9
@  #07 @055   ----------------------------------------
Label_014CD0D5:
 .byte   N48 ,Fn2 ,v108
 .byte   W48
 .byte   Gn2
 .byte   W48
 .byte   PEND 
@  #07 @056   ----------------------------------------
 .byte   PATT
  .word Label_014CD0A6
@  #07 @057   ----------------------------------------
 .byte   PATT
  .word Label_014CD0AD
@  #07 @058   ----------------------------------------
 .byte   PATT
  .word Label_014CD0B9
@  #07 @059   ----------------------------------------
 .byte   N96 ,Fn2 ,v108
 .byte   W96
@  #07 @060   ----------------------------------------
 .byte   TIE ,Cn3
 .byte   W96
@  #07 @061   ----------------------------------------
 .byte   W96
@  #07 @062   ----------------------------------------
 .byte   EOT
 .byte   N96 ,Bn2
 .byte   W96
@  #07 @063   ----------------------------------------
 .byte   As2
 .byte   W96
@  #07 @064   ----------------------------------------
 .byte   PATT
  .word Label_014CD0A6
@  #07 @065   ----------------------------------------
 .byte   PATT
  .word Label_014CD0AD
@  #07 @066   ----------------------------------------
 .byte   PATT
  .word Label_014CD0B9
@  #07 @067   ----------------------------------------
 .byte   N96 ,Fn2 ,v108
 .byte   W96
@  #07 @068   ----------------------------------------
 .byte   PATT
  .word Label_014CD0A6
@  #07 @069   ----------------------------------------
 .byte   PATT
  .word Label_014CD0AD
@  #07 @070   ----------------------------------------
 .byte   PATT
  .word Label_014CD0B9
@  #07 @071   ----------------------------------------
 .byte   PATT
  .word Label_014CD0D5
@  #07 @072   ----------------------------------------
 .byte   PATT
  .word Label_014CD0A6
@  #07 @073   ----------------------------------------
 .byte   PATT
  .word Label_014CD0AD
@  #07 @074   ----------------------------------------
 .byte   PATT
  .word Label_014CD0B9
@  #07 @075   ----------------------------------------
 .byte   N96 ,Fn2 ,v108
 .byte   W96
@  #07 @076   ----------------------------------------
 .byte   TIE ,Cn3
 .byte   W96
@  #07 @077   ----------------------------------------
 .byte   W96
@  #07 @078   ----------------------------------------
 .byte   EOT
 .byte   N96 ,Bn2
 .byte   W96
@  #07 @079   ----------------------------------------
 .byte   As2
 .byte   W96
@  #07 @080   ----------------------------------------
Label_014CD13D:
 .byte   N24 ,En2 ,v100
 .byte   W48
 .byte   N24
 .byte   W48
 .byte   PEND 
@  #07 @081   ----------------------------------------
Label_014CD144:
 .byte   N18 ,En2 ,v100
 .byte   W24
 .byte   N18
 .byte   W24
 .byte   N24 ,Dn2
 .byte   W24
 .byte   En2
 .byte   W24
 .byte   PEND 
@  #07 @082   ----------------------------------------
Label_014CD150:
 .byte   W24
 .byte   N24 ,Dn2 ,v100
 .byte   W24
 .byte   En2
 .byte   W24
 .byte   Dn2
 .byte   W24
 .byte   PEND 
@  #07 @083   ----------------------------------------
 .byte   N96 ,Gn2
 .byte   W96
@  #07 @084   ----------------------------------------
 .byte   PATT
  .word Label_014CD13D
@  #07 @085   ----------------------------------------
 .byte   PATT
  .word Label_014CD144
@  #07 @086   ----------------------------------------
 .byte   PATT
  .word Label_014CD150
@  #07 @087   ----------------------------------------
Label_014CD16C:
 .byte   N48 ,Gn2 ,v100
 .byte   W48
 .byte   N24 ,An2
 .byte   W24
 .byte   Bn2
 .byte   W24
 .byte   PEND 
@  #07 @088   ----------------------------------------
 .byte   PATT
  .word Label_014CD13D
@  #07 @089   ----------------------------------------
 .byte   PATT
  .word Label_014CD144
@  #07 @090   ----------------------------------------
 .byte   PATT
  .word Label_014CD150
@  #07 @091   ----------------------------------------
 .byte   N96 ,Gn2 ,v100
 .byte   W96
@  #07 @092   ----------------------------------------
 .byte   TIE ,Dn3
 .byte   W96
@  #07 @093   ----------------------------------------
 .byte   W96
@  #07 @094   ----------------------------------------
 .byte   EOT
 .byte   N96 ,Cs3
 .byte   W96
@  #07 @095   ----------------------------------------
 .byte   Cn3
 .byte   W96
@  #07 @096   ----------------------------------------
 .byte   PATT
  .word Label_014CD13D
@  #07 @097   ----------------------------------------
 .byte   PATT
  .word Label_014CD144
@  #07 @098   ----------------------------------------
 .byte   PATT
  .word Label_014CD150
@  #07 @099   ----------------------------------------
 .byte   N96 ,Gn2 ,v100
 .byte   W96
@  #07 @100   ----------------------------------------
 .byte   PATT
  .word Label_014CD13D
@  #07 @101   ----------------------------------------
 .byte   PATT
  .word Label_014CD144
@  #07 @102   ----------------------------------------
 .byte   PATT
  .word Label_014CD150
@  #07 @103   ----------------------------------------
 .byte   PATT
  .word Label_014CD16C
@  #07 @104   ----------------------------------------
 .byte   PATT
  .word Label_014CD13D
@  #07 @105   ----------------------------------------
 .byte   PATT
  .word Label_014CD144
@  #07 @106   ----------------------------------------
 .byte   PATT
  .word Label_014CD150
@  #07 @107   ----------------------------------------
 .byte   N96 ,Gn2 ,v100
 .byte   W96
@  #07 @108   ----------------------------------------
 .byte   TIE ,Dn3
 .byte   W96
@  #07 @109   ----------------------------------------
 .byte   W96
@  #07 @110   ----------------------------------------
 .byte   EOT
 .byte   N96 ,Cs3
 .byte   W96
@  #07 @111   ----------------------------------------
 .byte   Cn3
 .byte   W96
@  #07 @112   ----------------------------------------
 .byte   PATT
  .word Label_014CD0A6
@  #07 @113   ----------------------------------------
 .byte   PATT
  .word Label_014CD0AD
@  #07 @114   ----------------------------------------
 .byte   PATT
  .word Label_014CD0B9
@  #07 @115   ----------------------------------------
 .byte   N96 ,Fn2 ,v108
 .byte   W96
@  #07 @116   ----------------------------------------
 .byte   PATT
  .word Label_014CD0A6
@  #07 @117   ----------------------------------------
 .byte   PATT
  .word Label_014CD0AD
@  #07 @118   ----------------------------------------
 .byte   PATT
  .word Label_014CD0B9
@  #07 @119   ----------------------------------------
 .byte   PATT
  .word Label_014CD0D5
@  #07 @120   ----------------------------------------
 .byte   PATT
  .word Label_014CD0A6
@  #07 @121   ----------------------------------------
 .byte   PATT
  .word Label_014CD0AD
@  #07 @122   ----------------------------------------
 .byte   PATT
  .word Label_014CD0B9
@  #07 @123   ----------------------------------------
 .byte   N96 ,Fn2 ,v108
 .byte   W96
@  #07 @124   ----------------------------------------
 .byte   TIE ,Cn3
 .byte   W96
@  #07 @125   ----------------------------------------
 .byte   W96
@  #07 @126   ----------------------------------------
 .byte   EOT
 .byte   N96 ,Bn2
 .byte   W96
@  #07 @127   ----------------------------------------
 .byte   As2
 .byte   W96
@  #07 @128   ----------------------------------------
 .byte   PATT
  .word Label_014CD0A6
@  #07 @129   ----------------------------------------
 .byte   PATT
  .word Label_014CD0AD
@  #07 @130   ----------------------------------------
 .byte   PATT
  .word Label_014CD0B9
@  #07 @131   ----------------------------------------
 .byte   N96 ,Fn2 ,v108
 .byte   W96
@  #07 @132   ----------------------------------------
 .byte   PATT
  .word Label_014CD0A6
@  #07 @133   ----------------------------------------
 .byte   PATT
  .word Label_014CD0AD
@  #07 @134   ----------------------------------------
 .byte   PATT
  .word Label_014CD0B9
@  #07 @135   ----------------------------------------
 .byte   PATT
  .word Label_014CD0D5
@  #07 @136   ----------------------------------------
 .byte   PATT
  .word Label_014CD0A6
@  #07 @137   ----------------------------------------
 .byte   PATT
  .word Label_014CD0AD
@  #07 @138   ----------------------------------------
 .byte   PATT
  .word Label_014CD0B9
@  #07 @139   ----------------------------------------
 .byte   N96 ,Fn2 ,v108
 .byte   W96
@  #07 @140   ----------------------------------------
 .byte   TIE ,Cn3
 .byte   W96
@  #07 @141   ----------------------------------------
 .byte   W96
@  #07 @142   ----------------------------------------
 .byte   EOT
 .byte   N96 ,Bn2
 .byte   W96
@  #07 @143   ----------------------------------------
 .byte   As2
 .byte   W96
@  #07 @144   ----------------------------------------
 .byte   PATT
  .word Label_014CD13D
@  #07 @145   ----------------------------------------
 .byte   PATT
  .word Label_014CD144
@  #07 @146   ----------------------------------------
 .byte   PATT
  .word Label_014CD150
@  #07 @147   ----------------------------------------
 .byte   N96 ,Gn2 ,v100
 .byte   W96
@  #07 @148   ----------------------------------------
 .byte   PATT
  .word Label_014CD13D
@  #07 @149   ----------------------------------------
 .byte   PATT
  .word Label_014CD144
@  #07 @150   ----------------------------------------
 .byte   PATT
  .word Label_014CD150
@  #07 @151   ----------------------------------------
 .byte   PATT
  .word Label_014CD16C
@  #07 @152   ----------------------------------------
 .byte   PATT
  .word Label_014CD13D
@  #07 @153   ----------------------------------------
 .byte   PATT
  .word Label_014CD144
@  #07 @154   ----------------------------------------
 .byte   PATT
  .word Label_014CD150
@  #07 @155   ----------------------------------------
 .byte   N96 ,Gn2 ,v100
 .byte   W96
@  #07 @156   ----------------------------------------
 .byte   TIE ,Dn3
 .byte   W96
@  #07 @157   ----------------------------------------
 .byte   W96
@  #07 @158   ----------------------------------------
 .byte   EOT
 .byte   N96 ,Cs3
 .byte   W96
@  #07 @159   ----------------------------------------
 .byte   Cn3
 .byte   W96
@  #07 @160   ----------------------------------------
 .byte   PATT
  .word Label_014CD13D
@  #07 @161   ----------------------------------------
 .byte   PATT
  .word Label_014CD144
@  #07 @162   ----------------------------------------
 .byte   PATT
  .word Label_014CD150
@  #07 @163   ----------------------------------------
 .byte   N96 ,Gn2 ,v100
 .byte   W96
@  #07 @164   ----------------------------------------
 .byte   PATT
  .word Label_014CD13D
@  #07 @165   ----------------------------------------
 .byte   PATT
  .word Label_014CD144
@  #07 @166   ----------------------------------------
 .byte   PATT
  .word Label_014CD150
@  #07 @167   ----------------------------------------
 .byte   PATT
  .word Label_014CD16C
@  #07 @168   ----------------------------------------
 .byte   PATT
  .word Label_014CD13D
@  #07 @169   ----------------------------------------
 .byte   PATT
  .word Label_014CD144
@  #07 @170   ----------------------------------------
 .byte   PATT
  .word Label_014CD150
@  #07 @171   ----------------------------------------
 .byte   N96 ,Gn2 ,v100
 .byte   W96
@  #07 @172   ----------------------------------------
 .byte   TIE ,Dn3
 .byte   W96
@  #07 @173   ----------------------------------------
 .byte   W96
@  #07 @174   ----------------------------------------
 .byte   EOT
 .byte   N96 ,Cs3
 .byte   W96
@  #07 @175   ----------------------------------------
 .byte   Cn3
 .byte   W96
@  #07 @176   ----------------------------------------
 .byte   PATT
  .word Label_014CD0A6
@  #07 @177   ----------------------------------------
 .byte   PATT
  .word Label_014CD0AD
@  #07 @178   ----------------------------------------
 .byte   PATT
  .word Label_014CD0B9
@  #07 @179   ----------------------------------------
 .byte   N96 ,Fn2 ,v108
 .byte   W96
@  #07 @180   ----------------------------------------
 .byte   PATT
  .word Label_014CD0A6
@  #07 @181   ----------------------------------------
 .byte   PATT
  .word Label_014CD0AD
@  #07 @182   ----------------------------------------
 .byte   PATT
  .word Label_014CD0B9
@  #07 @183   ----------------------------------------
 .byte   PATT
  .word Label_014CD0D5
@  #07 @184   ----------------------------------------
 .byte   PATT
  .word Label_014CD0A6
@  #07 @185   ----------------------------------------
 .byte   PATT
  .word Label_014CD0AD
@  #07 @186   ----------------------------------------
 .byte   PATT
  .word Label_014CD0B9
@  #07 @187   ----------------------------------------
 .byte   N96 ,Fn2 ,v108
 .byte   W96
@  #07 @188   ----------------------------------------
 .byte   TIE ,Cn3
 .byte   W96
@  #07 @189   ----------------------------------------
 .byte   W96
@  #07 @190   ----------------------------------------
 .byte   EOT
 .byte   N96 ,Bn2
 .byte   W96
@  #07 @191   ----------------------------------------
 .byte   As2
 .byte   W96
@  #07 @192   ----------------------------------------
 .byte   PATT
  .word Label_014CD0A6
@  #07 @193   ----------------------------------------
 .byte   PATT
  .word Label_014CD0AD
@  #07 @194   ----------------------------------------
 .byte   PATT
  .word Label_014CD0B9
@  #07 @195   ----------------------------------------
 .byte   N96 ,Fn2 ,v108
 .byte   W96
@  #07 @196   ----------------------------------------
 .byte   PATT
  .word Label_014CD0A6
@  #07 @197   ----------------------------------------
 .byte   PATT
  .word Label_014CD0AD
@  #07 @198   ----------------------------------------
 .byte   PATT
  .word Label_014CD0B9
@  #07 @199   ----------------------------------------
 .byte   PATT
  .word Label_014CD0D5
@  #07 @200   ----------------------------------------
 .byte   PATT
  .word Label_014CD0A6
@  #07 @201   ----------------------------------------
 .byte   PATT
  .word Label_014CD0AD
@  #07 @202   ----------------------------------------
 .byte   PATT
  .word Label_014CD0B9
@  #07 @203   ----------------------------------------
 .byte   N96 ,Fn2 ,v108
 .byte   W96
@  #07 @204   ----------------------------------------
 .byte   TIE ,Cn3
 .byte   W96
@  #07 @205   ----------------------------------------
 .byte   W96
@  #07 @206   ----------------------------------------
 .byte   EOT
 .byte   N96 ,Bn2
 .byte   W96
@  #07 @207   ----------------------------------------
 .byte   As2
 .byte   W96
@  #07 @208   ----------------------------------------
 .byte   PATT
  .word Label_014CD0A6
@  #07 @209   ----------------------------------------
 .byte   PATT
  .word Label_014CD0AD
@  #07 @210   ----------------------------------------
 .byte   PATT
  .word Label_014CD0B9
@  #07 @211   ----------------------------------------
 .byte   N96 ,Fn2 ,v108
 .byte   W96
@  #07 @212   ----------------------------------------
 .byte   PATT
  .word Label_014CD0A6
@  #07 @213   ----------------------------------------
 .byte   PATT
  .word Label_014CD0AD
@  #07 @214   ----------------------------------------
 .byte   PATT
  .word Label_014CD0B9
@  #07 @215   ----------------------------------------
 .byte   PATT
  .word Label_014CD0D5
@  #07 @216   ----------------------------------------
 .byte   PATT
  .word Label_014CD0A6
@  #07 @217   ----------------------------------------
 .byte   PATT
  .word Label_014CD0AD
@  #07 @218   ----------------------------------------
 .byte   PATT
  .word Label_014CD0B9
@  #07 @219   ----------------------------------------
 .byte   N96 ,Fn2 ,v108
 .byte   W96
@  #07 @220   ----------------------------------------
 .byte   TIE ,Cn3
 .byte   W96
@  #07 @221   ----------------------------------------
 .byte   W96
@  #07 @222   ----------------------------------------
 .byte   EOT
 .byte   N96 ,Bn2
 .byte   W96
@  #07 @223   ----------------------------------------
 .byte   As2
 .byte   W96
@  #07 @224   ----------------------------------------
 .byte   PATT
  .word Label_014CD0A6
@  #07 @225   ----------------------------------------
 .byte   PATT
  .word Label_014CD0AD
@  #07 @226   ----------------------------------------
 .byte   PATT
  .word Label_014CD0B9
@  #07 @227   ----------------------------------------
 .byte   N96 ,Fn2 ,v108
 .byte   W96
@  #07 @228   ----------------------------------------
 .byte   PATT
  .word Label_014CD0A6
@  #07 @229   ----------------------------------------
 .byte   PATT
  .word Label_014CD0AD
@  #07 @230   ----------------------------------------
 .byte   PATT
  .word Label_014CD0B9
@  #07 @231   ----------------------------------------
 .byte   PATT
  .word Label_014CD0D5
@  #07 @232   ----------------------------------------
 .byte   PATT
  .word Label_014CD0A6
@  #07 @233   ----------------------------------------
 .byte   PATT
  .word Label_014CD0AD
@  #07 @234   ----------------------------------------
 .byte   PATT
  .word Label_014CD0B9
@  #07 @235   ----------------------------------------
 .byte   N96 ,Fn2 ,v108
 .byte   W96
@  #07 @236   ----------------------------------------
 .byte   TIE ,Cn3
 .byte   W96
@  #07 @237   ----------------------------------------
 .byte   W96
@  #07 @238   ----------------------------------------
 .byte   EOT
 .byte   N96 ,Bn2
 .byte   W96
@  #07 @239   ----------------------------------------
 .byte   As2
 .byte   W96
@  #07 @240   ----------------------------------------
 .byte   W96
@  #07 @241   ----------------------------------------
 .byte   W96
@  #07 @242   ----------------------------------------
 .byte   W96
@  #07 @243   ----------------------------------------
 .byte   GOTO
  .word Label_014CD0A6
@  #07 @244   ----------------------------------------
 .byte   W96
@  #07 @245   ----------------------------------------
 .byte   PAN , c_v+0
 .byte   VOL , 40*DeathIDeservioli_mvl/mxv
 .byte   PAN , c_v+0
 .byte   VOL , 40*DeathIDeservioli_mvl/mxv
 .byte   PAN , c_v+0
 .byte   VOL , 40*DeathIDeservioli_mvl/mxv
 .byte   BEND , c_v+0
 .byte   FINE

@**************** Track 8 (Midi-Chn.7) ****************@

DeathIDeservioli_008:
@  #08 @000   ----------------------------------------
 .byte   KEYSH , DeathIDeservioli_key+0
 .byte   VOICE , 78
 .byte   PAN , c_v+0
 .byte   VOL , 38*DeathIDeservioli_mvl/mxv
 .byte   PAN , c_v+0
 .byte   VOL , 0*DeathIDeservioli_mvl/mxv
 .byte   PAN , c_v+0
 .byte   VOL , 0*DeathIDeservioli_mvl/mxv
 .byte   BEND , c_v+0
 .byte   W96
@  #08 @001   ----------------------------------------
 .byte   W96
@  #08 @002   ----------------------------------------
 .byte   W96
@  #08 @003   ----------------------------------------
 .byte   W96
@  #08 @004   ----------------------------------------
 .byte   W96
@  #08 @005   ----------------------------------------
 .byte   W96
@  #08 @006   ----------------------------------------
 .byte   W96
@  #08 @007   ----------------------------------------
 .byte   W96
@  #08 @008   ----------------------------------------
 .byte   W96
@  #08 @009   ----------------------------------------
 .byte   W96
@  #08 @010   ----------------------------------------
 .byte   W96
@  #08 @011   ----------------------------------------
 .byte   W96
@  #08 @012   ----------------------------------------
 .byte   W96
@  #08 @013   ----------------------------------------
 .byte   W96
@  #08 @014   ----------------------------------------
 .byte   W96
@  #08 @015   ----------------------------------------
 .byte   W96
@  #08 @016   ----------------------------------------
 .byte   W96
@  #08 @017   ----------------------------------------
 .byte   W96
@  #08 @018   ----------------------------------------
 .byte   W96
@  #08 @019   ----------------------------------------
 .byte   W96
@  #08 @020   ----------------------------------------
 .byte   W96
@  #08 @021   ----------------------------------------
 .byte   W96
@  #08 @022   ----------------------------------------
 .byte   W96
@  #08 @023   ----------------------------------------
 .byte   W96
@  #08 @024   ----------------------------------------
 .byte   W96
@  #08 @025   ----------------------------------------
 .byte   W96
@  #08 @026   ----------------------------------------
 .byte   W96
@  #08 @027   ----------------------------------------
 .byte   W96
@  #08 @028   ----------------------------------------
 .byte   W96
@  #08 @029   ----------------------------------------
 .byte   W96
@  #08 @030   ----------------------------------------
 .byte   W96
@  #08 @031   ----------------------------------------
 .byte   W96
@  #08 @032   ----------------------------------------
 .byte   W96
@  #08 @033   ----------------------------------------
 .byte   W96
@  #08 @034   ----------------------------------------
 .byte   W96
@  #08 @035   ----------------------------------------
 .byte   W96
@  #08 @036   ----------------------------------------
 .byte   W96
@  #08 @037   ----------------------------------------
 .byte   W96
@  #08 @038   ----------------------------------------
 .byte   W96
@  #08 @039   ----------------------------------------
 .byte   W96
@  #08 @040   ----------------------------------------
 .byte   W96
@  #08 @041   ----------------------------------------
 .byte   W96
@  #08 @042   ----------------------------------------
 .byte   W96
@  #08 @043   ----------------------------------------
 .byte   W96
@  #08 @044   ----------------------------------------
 .byte   W96
@  #08 @045   ----------------------------------------
 .byte   W96
@  #08 @046   ----------------------------------------
 .byte   W96
@  #08 @047   ----------------------------------------
 .byte   W96
@  #08 @048   ----------------------------------------
Label_014CC70E:
 .byte   W96
@  #08 @049   ----------------------------------------
 .byte   W96
@  #08 @050   ----------------------------------------
 .byte   W96
@  #08 @051   ----------------------------------------
 .byte   W96
@  #08 @052   ----------------------------------------
 .byte   W96
@  #08 @053   ----------------------------------------
 .byte   W96
@  #08 @054   ----------------------------------------
 .byte   W96
@  #08 @055   ----------------------------------------
 .byte   W96
@  #08 @056   ----------------------------------------
 .byte   W96
@  #08 @057   ----------------------------------------
 .byte   W96
@  #08 @058   ----------------------------------------
 .byte   W96
@  #08 @059   ----------------------------------------
 .byte   W96
@  #08 @060   ----------------------------------------
 .byte   W96
@  #08 @061   ----------------------------------------
 .byte   W96
@  #08 @062   ----------------------------------------
 .byte   W96
@  #08 @063   ----------------------------------------
 .byte   W96
@  #08 @064   ----------------------------------------
 .byte   W96
@  #08 @065   ----------------------------------------
 .byte   W96
@  #08 @066   ----------------------------------------
 .byte   W96
@  #08 @067   ----------------------------------------
 .byte   W96
@  #08 @068   ----------------------------------------
 .byte   W96
@  #08 @069   ----------------------------------------
 .byte   W96
@  #08 @070   ----------------------------------------
 .byte   W96
@  #08 @071   ----------------------------------------
 .byte   W96
@  #08 @072   ----------------------------------------
 .byte   W96
@  #08 @073   ----------------------------------------
 .byte   W96
@  #08 @074   ----------------------------------------
 .byte   W96
@  #08 @075   ----------------------------------------
 .byte   W96
@  #08 @076   ----------------------------------------
 .byte   W96
@  #08 @077   ----------------------------------------
 .byte   W96
@  #08 @078   ----------------------------------------
 .byte   W96
@  #08 @079   ----------------------------------------
 .byte   W96
@  #08 @080   ----------------------------------------
 .byte   W96
@  #08 @081   ----------------------------------------
 .byte   W96
@  #08 @082   ----------------------------------------
 .byte   W96
@  #08 @083   ----------------------------------------
 .byte   W96
@  #08 @084   ----------------------------------------
 .byte   W96
@  #08 @085   ----------------------------------------
 .byte   W96
@  #08 @086   ----------------------------------------
 .byte   W96
@  #08 @087   ----------------------------------------
 .byte   W96
@  #08 @088   ----------------------------------------
 .byte   W96
@  #08 @089   ----------------------------------------
 .byte   W96
@  #08 @090   ----------------------------------------
 .byte   W96
@  #08 @091   ----------------------------------------
 .byte   W96
@  #08 @092   ----------------------------------------
 .byte   W96
@  #08 @093   ----------------------------------------
 .byte   W96
@  #08 @094   ----------------------------------------
 .byte   W96
@  #08 @095   ----------------------------------------
 .byte   W96
@  #08 @096   ----------------------------------------
 .byte   W96
@  #08 @097   ----------------------------------------
 .byte   W96
@  #08 @098   ----------------------------------------
 .byte   W96
@  #08 @099   ----------------------------------------
 .byte   W96
@  #08 @100   ----------------------------------------
 .byte   W96
@  #08 @101   ----------------------------------------
 .byte   W96
@  #08 @102   ----------------------------------------
 .byte   W96
@  #08 @103   ----------------------------------------
 .byte   W96
@  #08 @104   ----------------------------------------
 .byte   W96
@  #08 @105   ----------------------------------------
 .byte   W96
@  #08 @106   ----------------------------------------
 .byte   W96
@  #08 @107   ----------------------------------------
 .byte   W96
@  #08 @108   ----------------------------------------
 .byte   W96
@  #08 @109   ----------------------------------------
 .byte   W96
@  #08 @110   ----------------------------------------
 .byte   W96
@  #08 @111   ----------------------------------------
 .byte   W96
@  #08 @112   ----------------------------------------
 .byte   W96
@  #08 @113   ----------------------------------------
 .byte   W96
@  #08 @114   ----------------------------------------
 .byte   W96
@  #08 @115   ----------------------------------------
 .byte   W96
@  #08 @116   ----------------------------------------
 .byte   W96
@  #08 @117   ----------------------------------------
 .byte   W96
@  #08 @118   ----------------------------------------
 .byte   TIE ,Dn6 ,v092
 .byte   W09
 .byte   VOL , 0*DeathIDeservioli_mvl/mxv
 .byte   W01
 .byte   VOL , 0*DeathIDeservioli_mvl/mxv
 .byte   W01
 .byte   VOL , 0*DeathIDeservioli_mvl/mxv
 .byte   W01
 .byte   VOL , 0*DeathIDeservioli_mvl/mxv
 .byte   W01
 .byte   VOL , 0*DeathIDeservioli_mvl/mxv
 .byte   W01
 .byte   VOL , 0*DeathIDeservioli_mvl/mxv
 .byte   W01
 .byte   VOL , 1*DeathIDeservioli_mvl/mxv
 .byte   W01
 .byte   VOL , 1*DeathIDeservioli_mvl/mxv
 .byte   W01
 .byte   VOL , 1*DeathIDeservioli_mvl/mxv
 .byte   W01
 .byte   VOL , 1*DeathIDeservioli_mvl/mxv
 .byte   W01
 .byte   VOL , 2*DeathIDeservioli_mvl/mxv
 .byte   W01
 .byte   VOL , 2*DeathIDeservioli_mvl/mxv
 .byte   W01
 .byte   VOL , 2*DeathIDeservioli_mvl/mxv
 .byte   W01
 .byte   VOL , 2*DeathIDeservioli_mvl/mxv
 .byte   W01
 .byte   VOL , 2*DeathIDeservioli_mvl/mxv
 .byte   W01
 .byte   VOL , 2*DeathIDeservioli_mvl/mxv
 .byte   W01
 .byte   VOL , 3*DeathIDeservioli_mvl/mxv
 .byte   W01
 .byte   VOL , 3*DeathIDeservioli_mvl/mxv
 .byte   W01
 .byte   VOL , 3*DeathIDeservioli_mvl/mxv
 .byte   W01
 .byte   VOL , 3*DeathIDeservioli_mvl/mxv
 .byte   W01
 .byte   VOL , 4*DeathIDeservioli_mvl/mxv
 .byte   W01
 .byte   VOL , 4*DeathIDeservioli_mvl/mxv
 .byte   W01
 .byte   VOL , 4*DeathIDeservioli_mvl/mxv
 .byte   W01
 .byte   VOL , 4*DeathIDeservioli_mvl/mxv
 .byte   W01
 .byte   VOL , 4*DeathIDeservioli_mvl/mxv
 .byte   W01
 .byte   VOL , 5*DeathIDeservioli_mvl/mxv
 .byte   W01
 .byte   VOL , 5*DeathIDeservioli_mvl/mxv
 .byte   W01
 .byte   VOL , 5*DeathIDeservioli_mvl/mxv
 .byte   W01
 .byte   VOL , 5*DeathIDeservioli_mvl/mxv
 .byte   W01
 .byte   VOL , 6*DeathIDeservioli_mvl/mxv
 .byte   W01
 .byte   VOL , 6*DeathIDeservioli_mvl/mxv
 .byte   W01
 .byte   VOL , 6*DeathIDeservioli_mvl/mxv
 .byte   W01
 .byte   VOL , 6*DeathIDeservioli_mvl/mxv
 .byte   W01
 .byte   VOL , 6*DeathIDeservioli_mvl/mxv
 .byte   W01
 .byte   VOL , 6*DeathIDeservioli_mvl/mxv
 .byte   W01
 .byte   VOL , 7*DeathIDeservioli_mvl/mxv
 .byte   W01
 .byte   VOL , 7*DeathIDeservioli_mvl/mxv
 .byte   W01
 .byte   VOL , 7*DeathIDeservioli_mvl/mxv
 .byte   W01
 .byte   VOL , 7*DeathIDeservioli_mvl/mxv
 .byte   W01
 .byte   VOL , 8*DeathIDeservioli_mvl/mxv
 .byte   W01
 .byte   VOL , 8*DeathIDeservioli_mvl/mxv
 .byte   W01
 .byte   VOL , 8*DeathIDeservioli_mvl/mxv
 .byte   W01
 .byte   VOL , 8*DeathIDeservioli_mvl/mxv
 .byte   W01
 .byte   VOL , 9*DeathIDeservioli_mvl/mxv
 .byte   W01
 .byte   VOL , 9*DeathIDeservioli_mvl/mxv
 .byte   W01
 .byte   VOL , 9*DeathIDeservioli_mvl/mxv
 .byte   W01
 .byte   VOL , 9*DeathIDeservioli_mvl/mxv
 .byte   W01
 .byte   VOL , 9*DeathIDeservioli_mvl/mxv
 .byte   W01
 .byte   VOL , 9*DeathIDeservioli_mvl/mxv
 .byte   W01
 .byte   VOL , 10*DeathIDeservioli_mvl/mxv
 .byte   W01
 .byte   VOL , 10*DeathIDeservioli_mvl/mxv
 .byte   W01
 .byte   VOL , 10*DeathIDeservioli_mvl/mxv
 .byte   W01
 .byte   VOL , 11*DeathIDeservioli_mvl/mxv
 .byte   W01
 .byte   VOL , 11*DeathIDeservioli_mvl/mxv
 .byte   W01
 .byte   VOL , 11*DeathIDeservioli_mvl/mxv
 .byte   W01
 .byte   VOL , 11*DeathIDeservioli_mvl/mxv
 .byte   W01
 .byte   VOL , 11*DeathIDeservioli_mvl/mxv
 .byte   W01
 .byte   VOL , 11*DeathIDeservioli_mvl/mxv
 .byte   W01
 .byte   VOL , 12*DeathIDeservioli_mvl/mxv
 .byte   W01
 .byte   VOL , 12*DeathIDeservioli_mvl/mxv
 .byte   W01
 .byte   VOL , 12*DeathIDeservioli_mvl/mxv
 .byte   W01
 .byte   VOL , 12*DeathIDeservioli_mvl/mxv
 .byte   W01
 .byte   VOL , 13*DeathIDeservioli_mvl/mxv
 .byte   W01
 .byte   VOL , 13*DeathIDeservioli_mvl/mxv
 .byte   W01
 .byte   VOL , 13*DeathIDeservioli_mvl/mxv
 .byte   W01
 .byte   VOL , 13*DeathIDeservioli_mvl/mxv
 .byte   W01
 .byte   VOL , 13*DeathIDeservioli_mvl/mxv
 .byte   W01
 .byte   VOL , 13*DeathIDeservioli_mvl/mxv
 .byte   W01
 .byte   VOL , 14*DeathIDeservioli_mvl/mxv
 .byte   W01
 .byte   VOL , 14*DeathIDeservioli_mvl/mxv
 .byte   W01
 .byte   VOL , 14*DeathIDeservioli_mvl/mxv
 .byte   W01
 .byte   VOL , 14*DeathIDeservioli_mvl/mxv
 .byte   W01
 .byte   VOL , 15*DeathIDeservioli_mvl/mxv
 .byte   W01
 .byte   VOL , 15*DeathIDeservioli_mvl/mxv
 .byte   W01
 .byte   VOL , 15*DeathIDeservioli_mvl/mxv
 .byte   W01
 .byte   VOL , 15*DeathIDeservioli_mvl/mxv
 .byte   W01
 .byte   VOL , 15*DeathIDeservioli_mvl/mxv
 .byte   W01
 .byte   VOL , 15*DeathIDeservioli_mvl/mxv
 .byte   W01
 .byte   VOL , 16*DeathIDeservioli_mvl/mxv
 .byte   W01
 .byte   VOL , 16*DeathIDeservioli_mvl/mxv
 .byte   W01
 .byte   VOL , 16*DeathIDeservioli_mvl/mxv
 .byte   W01
 .byte   VOL , 17*DeathIDeservioli_mvl/mxv
 .byte   W01
 .byte   VOL , 17*DeathIDeservioli_mvl/mxv
 .byte   W01
 .byte   VOL , 17*DeathIDeservioli_mvl/mxv
 .byte   W01
 .byte   VOL , 17*DeathIDeservioli_mvl/mxv
 .byte   W01
 .byte   VOL , 18*DeathIDeservioli_mvl/mxv
 .byte   W01
 .byte   VOL , 18*DeathIDeservioli_mvl/mxv
 .byte   W01
@  #08 @119   ----------------------------------------
 .byte   VOL , 18*DeathIDeservioli_mvl/mxv
 .byte   W01
 .byte   VOL , 18*DeathIDeservioli_mvl/mxv
 .byte   W01
 .byte   VOL , 18*DeathIDeservioli_mvl/mxv
 .byte   W01
 .byte   VOL , 18*DeathIDeservioli_mvl/mxv
 .byte   W01
 .byte   VOL , 19*DeathIDeservioli_mvl/mxv
 .byte   W01
 .byte   VOL , 19*DeathIDeservioli_mvl/mxv
 .byte   W01
 .byte   VOL , 19*DeathIDeservioli_mvl/mxv
 .byte   W01
 .byte   VOL , 19*DeathIDeservioli_mvl/mxv
 .byte   W01
 .byte   VOL , 20*DeathIDeservioli_mvl/mxv
 .byte   W01
 .byte   VOL , 20*DeathIDeservioli_mvl/mxv
 .byte   W01
 .byte   VOL , 20*DeathIDeservioli_mvl/mxv
 .byte   W01
 .byte   VOL , 20*DeathIDeservioli_mvl/mxv
 .byte   W01
 .byte   VOL , 20*DeathIDeservioli_mvl/mxv
 .byte   W01
 .byte   VOL , 20*DeathIDeservioli_mvl/mxv
 .byte   W01
 .byte   VOL , 21*DeathIDeservioli_mvl/mxv
 .byte   W01
 .byte   VOL , 21*DeathIDeservioli_mvl/mxv
 .byte   W01
 .byte   VOL , 21*DeathIDeservioli_mvl/mxv
 .byte   W01
 .byte   VOL , 21*DeathIDeservioli_mvl/mxv
 .byte   W01
 .byte   VOL , 22*DeathIDeservioli_mvl/mxv
 .byte   W01
 .byte   VOL , 22*DeathIDeservioli_mvl/mxv
 .byte   W01
 .byte   VOL , 22*DeathIDeservioli_mvl/mxv
 .byte   W01
 .byte   VOL , 22*DeathIDeservioli_mvl/mxv
 .byte   W01
 .byte   VOL , 22*DeathIDeservioli_mvl/mxv
 .byte   W01
 .byte   VOL , 23*DeathIDeservioli_mvl/mxv
 .byte   W01
 .byte   VOL , 23*DeathIDeservioli_mvl/mxv
 .byte   W01
 .byte   VOL , 23*DeathIDeservioli_mvl/mxv
 .byte   W01
 .byte   VOL , 23*DeathIDeservioli_mvl/mxv
 .byte   W01
 .byte   VOL , 24*DeathIDeservioli_mvl/mxv
 .byte   W01
 .byte   VOL , 24*DeathIDeservioli_mvl/mxv
 .byte   W01
 .byte   VOL , 24*DeathIDeservioli_mvl/mxv
 .byte   W01
 .byte   VOL , 24*DeathIDeservioli_mvl/mxv
 .byte   W01
 .byte   VOL , 24*DeathIDeservioli_mvl/mxv
 .byte   W01
 .byte   VOL , 24*DeathIDeservioli_mvl/mxv
 .byte   W01
 .byte   VOL , 25*DeathIDeservioli_mvl/mxv
 .byte   W01
 .byte   VOL , 25*DeathIDeservioli_mvl/mxv
 .byte   W01
 .byte   VOL , 25*DeathIDeservioli_mvl/mxv
 .byte   W01
 .byte   VOL , 25*DeathIDeservioli_mvl/mxv
 .byte   W01
 .byte   VOL , 26*DeathIDeservioli_mvl/mxv
 .byte   W01
 .byte   VOL , 26*DeathIDeservioli_mvl/mxv
 .byte   W01
 .byte   VOL , 26*DeathIDeservioli_mvl/mxv
 .byte   W01
 .byte   VOL , 26*DeathIDeservioli_mvl/mxv
 .byte   W01
 .byte   VOL , 27*DeathIDeservioli_mvl/mxv
 .byte   W01
 .byte   VOL , 27*DeathIDeservioli_mvl/mxv
 .byte   W01
 .byte   VOL , 27*DeathIDeservioli_mvl/mxv
 .byte   W01
 .byte   VOL , 27*DeathIDeservioli_mvl/mxv
 .byte   W01
 .byte   VOL , 27*DeathIDeservioli_mvl/mxv
 .byte   W01
 .byte   VOL , 27*DeathIDeservioli_mvl/mxv
 .byte   W01
 .byte   VOL , 28*DeathIDeservioli_mvl/mxv
 .byte   W01
 .byte   VOL , 28*DeathIDeservioli_mvl/mxv
 .byte   W01
 .byte   VOL , 28*DeathIDeservioli_mvl/mxv
 .byte   W01
 .byte   VOL , 29*DeathIDeservioli_mvl/mxv
 .byte   W01
 .byte   VOL , 29*DeathIDeservioli_mvl/mxv
 .byte   W01
 .byte   VOL , 29*DeathIDeservioli_mvl/mxv
 .byte   W01
 .byte   VOL , 29*DeathIDeservioli_mvl/mxv
 .byte   W01
 .byte   VOL , 29*DeathIDeservioli_mvl/mxv
 .byte   W01
 .byte   VOL , 29*DeathIDeservioli_mvl/mxv
 .byte   W01
 .byte   VOL , 30*DeathIDeservioli_mvl/mxv
 .byte   W01
 .byte   VOL , 30*DeathIDeservioli_mvl/mxv
 .byte   W01
 .byte   VOL , 30*DeathIDeservioli_mvl/mxv
 .byte   W01
 .byte   VOL , 30*DeathIDeservioli_mvl/mxv
 .byte   W01
 .byte   VOL , 31*DeathIDeservioli_mvl/mxv
 .byte   W01
 .byte   VOL , 31*DeathIDeservioli_mvl/mxv
 .byte   W01
 .byte   VOL , 31*DeathIDeservioli_mvl/mxv
 .byte   W01
 .byte   VOL , 31*DeathIDeservioli_mvl/mxv
 .byte   W01
 .byte   VOL , 31*DeathIDeservioli_mvl/mxv
 .byte   W01
 .byte   VOL , 31*DeathIDeservioli_mvl/mxv
 .byte   W01
 .byte   VOL , 32*DeathIDeservioli_mvl/mxv
 .byte   W01
 .byte   VOL , 32*DeathIDeservioli_mvl/mxv
 .byte   W01
 .byte   VOL , 32*DeathIDeservioli_mvl/mxv
 .byte   W01
 .byte   VOL , 32*DeathIDeservioli_mvl/mxv
 .byte   W01
 .byte   VOL , 33*DeathIDeservioli_mvl/mxv
 .byte   W01
 .byte   VOL , 33*DeathIDeservioli_mvl/mxv
 .byte   W01
 .byte   VOL , 33*DeathIDeservioli_mvl/mxv
 .byte   W01
 .byte   VOL , 33*DeathIDeservioli_mvl/mxv
 .byte   W01
 .byte   VOL , 33*DeathIDeservioli_mvl/mxv
 .byte   W01
 .byte   VOL , 33*DeathIDeservioli_mvl/mxv
 .byte   W01
 .byte   VOL , 34*DeathIDeservioli_mvl/mxv
 .byte   W01
 .byte   VOL , 34*DeathIDeservioli_mvl/mxv
 .byte   W01
 .byte   VOL , 34*DeathIDeservioli_mvl/mxv
 .byte   W01
 .byte   VOL , 35*DeathIDeservioli_mvl/mxv
 .byte   W01
 .byte   VOL , 35*DeathIDeservioli_mvl/mxv
 .byte   W01
 .byte   VOL , 35*DeathIDeservioli_mvl/mxv
 .byte   W01
 .byte   VOL , 35*DeathIDeservioli_mvl/mxv
 .byte   W01
 .byte   VOL , 36*DeathIDeservioli_mvl/mxv
 .byte   W01
 .byte   VOL , 36*DeathIDeservioli_mvl/mxv
 .byte   W01
 .byte   VOL , 36*DeathIDeservioli_mvl/mxv
 .byte   W01
 .byte   VOL , 36*DeathIDeservioli_mvl/mxv
 .byte   W01
 .byte   VOL , 36*DeathIDeservioli_mvl/mxv
 .byte   W01
 .byte   VOL , 36*DeathIDeservioli_mvl/mxv
 .byte   W01
 .byte   VOL , 37*DeathIDeservioli_mvl/mxv
 .byte   W01
 .byte   EOT
 .byte   VOL , 37*DeathIDeservioli_mvl/mxv
 .byte   W01
 .byte   VOL , 37*DeathIDeservioli_mvl/mxv
 .byte   W01
 .byte   VOL , 37*DeathIDeservioli_mvl/mxv
 .byte   W01
 .byte   VOL , 38*DeathIDeservioli_mvl/mxv
 .byte   W01
 .byte   VOL , 38*DeathIDeservioli_mvl/mxv
 .byte   W01
 .byte   VOL , 38*DeathIDeservioli_mvl/mxv
 .byte   W01
@  #08 @120   ----------------------------------------
 .byte   W96
@  #08 @121   ----------------------------------------
 .byte   W96
@  #08 @122   ----------------------------------------
 .byte   W96
@  #08 @123   ----------------------------------------
 .byte   W96
@  #08 @124   ----------------------------------------
 .byte   W96
@  #08 @125   ----------------------------------------
 .byte   W96
@  #08 @126   ----------------------------------------
 .byte   W96
@  #08 @127   ----------------------------------------
 .byte   W96
@  #08 @128   ----------------------------------------
 .byte   W96
@  #08 @129   ----------------------------------------
 .byte   W96
@  #08 @130   ----------------------------------------
 .byte   W96
@  #08 @131   ----------------------------------------
 .byte   W96
@  #08 @132   ----------------------------------------
 .byte   W96
@  #08 @133   ----------------------------------------
 .byte   W96
@  #08 @134   ----------------------------------------
 .byte   W96
@  #08 @135   ----------------------------------------
 .byte   W96
@  #08 @136   ----------------------------------------
 .byte   W96
@  #08 @137   ----------------------------------------
 .byte   W96
@  #08 @138   ----------------------------------------
 .byte   W96
@  #08 @139   ----------------------------------------
 .byte   W96
@  #08 @140   ----------------------------------------
 .byte   W96
@  #08 @141   ----------------------------------------
 .byte   W96
@  #08 @142   ----------------------------------------
 .byte   W96
@  #08 @143   ----------------------------------------
 .byte   W96
@  #08 @144   ----------------------------------------
 .byte   W96
@  #08 @145   ----------------------------------------
 .byte   W96
@  #08 @146   ----------------------------------------
 .byte   W96
@  #08 @147   ----------------------------------------
 .byte   W96
@  #08 @148   ----------------------------------------
 .byte   W96
@  #08 @149   ----------------------------------------
 .byte   W96
@  #08 @150   ----------------------------------------
 .byte   W96
@  #08 @151   ----------------------------------------
 .byte   W96
@  #08 @152   ----------------------------------------
 .byte   W96
@  #08 @153   ----------------------------------------
 .byte   W96
@  #08 @154   ----------------------------------------
 .byte   W96
@  #08 @155   ----------------------------------------
 .byte   W96
@  #08 @156   ----------------------------------------
 .byte   W96
@  #08 @157   ----------------------------------------
 .byte   W96
@  #08 @158   ----------------------------------------
 .byte   W96
@  #08 @159   ----------------------------------------
 .byte   W96
@  #08 @160   ----------------------------------------
 .byte   W96
@  #08 @161   ----------------------------------------
 .byte   W96
@  #08 @162   ----------------------------------------
 .byte   W96
@  #08 @163   ----------------------------------------
 .byte   W96
@  #08 @164   ----------------------------------------
 .byte   W96
@  #08 @165   ----------------------------------------
 .byte   W96
@  #08 @166   ----------------------------------------
 .byte   W96
@  #08 @167   ----------------------------------------
 .byte   W96
@  #08 @168   ----------------------------------------
 .byte   W96
@  #08 @169   ----------------------------------------
 .byte   W96
@  #08 @170   ----------------------------------------
 .byte   W96
@  #08 @171   ----------------------------------------
 .byte   W96
@  #08 @172   ----------------------------------------
 .byte   W96
@  #08 @173   ----------------------------------------
 .byte   W96
@  #08 @174   ----------------------------------------
 .byte   W96
@  #08 @175   ----------------------------------------
 .byte   W96
@  #08 @176   ----------------------------------------
 .byte   W96
@  #08 @177   ----------------------------------------
 .byte   W96
@  #08 @178   ----------------------------------------
 .byte   W96
@  #08 @179   ----------------------------------------
 .byte   W96
@  #08 @180   ----------------------------------------
 .byte   W96
@  #08 @181   ----------------------------------------
 .byte   W96
@  #08 @182   ----------------------------------------
 .byte   W96
@  #08 @183   ----------------------------------------
 .byte   W96
@  #08 @184   ----------------------------------------
 .byte   W96
@  #08 @185   ----------------------------------------
 .byte   W96
@  #08 @186   ----------------------------------------
 .byte   W96
@  #08 @187   ----------------------------------------
 .byte   W96
@  #08 @188   ----------------------------------------
 .byte   W96
@  #08 @189   ----------------------------------------
 .byte   W96
@  #08 @190   ----------------------------------------
 .byte   W96
@  #08 @191   ----------------------------------------
 .byte   W96
@  #08 @192   ----------------------------------------
 .byte   W96
@  #08 @193   ----------------------------------------
 .byte   W96
@  #08 @194   ----------------------------------------
 .byte   W96
@  #08 @195   ----------------------------------------
 .byte   W96
@  #08 @196   ----------------------------------------
 .byte   W96
@  #08 @197   ----------------------------------------
 .byte   W96
@  #08 @198   ----------------------------------------
 .byte   W96
@  #08 @199   ----------------------------------------
 .byte   W96
@  #08 @200   ----------------------------------------
 .byte   W96
@  #08 @201   ----------------------------------------
 .byte   W96
@  #08 @202   ----------------------------------------
 .byte   W96
@  #08 @203   ----------------------------------------
 .byte   W96
@  #08 @204   ----------------------------------------
 .byte   W96
@  #08 @205   ----------------------------------------
 .byte   W96
@  #08 @206   ----------------------------------------
 .byte   W96
@  #08 @207   ----------------------------------------
 .byte   W96
@  #08 @208   ----------------------------------------
 .byte   W96
@  #08 @209   ----------------------------------------
 .byte   W96
@  #08 @210   ----------------------------------------
 .byte   W96
@  #08 @211   ----------------------------------------
 .byte   W96
@  #08 @212   ----------------------------------------
 .byte   W96
@  #08 @213   ----------------------------------------
 .byte   W96
@  #08 @214   ----------------------------------------
 .byte   W96
@  #08 @215   ----------------------------------------
 .byte   W96
@  #08 @216   ----------------------------------------
 .byte   W96
@  #08 @217   ----------------------------------------
 .byte   W96
@  #08 @218   ----------------------------------------
 .byte   W96
@  #08 @219   ----------------------------------------
 .byte   W96
@  #08 @220   ----------------------------------------
 .byte   W96
@  #08 @221   ----------------------------------------
 .byte   W96
@  #08 @222   ----------------------------------------
 .byte   W96
@  #08 @223   ----------------------------------------
 .byte   W96
@  #08 @224   ----------------------------------------
 .byte   W96
@  #08 @225   ----------------------------------------
 .byte   W96
@  #08 @226   ----------------------------------------
 .byte   W96
@  #08 @227   ----------------------------------------
 .byte   W96
@  #08 @228   ----------------------------------------
 .byte   W96
@  #08 @229   ----------------------------------------
 .byte   W96
@  #08 @230   ----------------------------------------
 .byte   W96
@  #08 @231   ----------------------------------------
 .byte   W96
@  #08 @232   ----------------------------------------
 .byte   W96
@  #08 @233   ----------------------------------------
 .byte   W96
@  #08 @234   ----------------------------------------
 .byte   W96
@  #08 @235   ----------------------------------------
 .byte   W96
@  #08 @236   ----------------------------------------
 .byte   W96
@  #08 @237   ----------------------------------------
 .byte   W96
@  #08 @238   ----------------------------------------
 .byte   W96
@  #08 @239   ----------------------------------------
 .byte   W96
@  #08 @240   ----------------------------------------
 .byte   W96
@  #08 @241   ----------------------------------------
 .byte   W96
@  #08 @242   ----------------------------------------
 .byte   W96
@  #08 @243   ----------------------------------------
 .byte   GOTO
  .word Label_014CC70E
@  #08 @244   ----------------------------------------
 .byte   W96
@  #08 @245   ----------------------------------------
 .byte   VOICE , 78
 .byte   PAN , c_v+0
 .byte   VOL , 38*DeathIDeservioli_mvl/mxv
 .byte   PAN , c_v+0
 .byte   VOL , 38*DeathIDeservioli_mvl/mxv
 .byte   PAN , c_v+0
 .byte   VOL , 38*DeathIDeservioli_mvl/mxv
 .byte   BEND , c_v+0
 .byte   FINE

@**************** Track 9 (Midi-Chn.8) ****************@

DeathIDeservioli_009:
@  #09 @000   ----------------------------------------
 .byte   KEYSH , DeathIDeservioli_key+0
 .byte   VOICE , 30
 .byte   PAN , c_v+0
 .byte   VOL , 52*DeathIDeservioli_mvl/mxv
 .byte   PAN , c_v+0
 .byte   VOL , 0*DeathIDeservioli_mvl/mxv
 .byte   PAN , c_v+0
 .byte   VOL , 0*DeathIDeservioli_mvl/mxv
 .byte   BEND , c_v+0
 .byte   W96
@  #09 @001   ----------------------------------------
 .byte   W96
@  #09 @002   ----------------------------------------
 .byte   W96
@  #09 @003   ----------------------------------------
 .byte   W96
@  #09 @004   ----------------------------------------
 .byte   W96
@  #09 @005   ----------------------------------------
 .byte   W96
@  #09 @006   ----------------------------------------
 .byte   W96
@  #09 @007   ----------------------------------------
 .byte   W96
@  #09 @008   ----------------------------------------
 .byte   W96
@  #09 @009   ----------------------------------------
 .byte   W96
@  #09 @010   ----------------------------------------
 .byte   W96
@  #09 @011   ----------------------------------------
 .byte   W96
@  #09 @012   ----------------------------------------
 .byte   W96
@  #09 @013   ----------------------------------------
 .byte   W96
@  #09 @014   ----------------------------------------
 .byte   W96
@  #09 @015   ----------------------------------------
 .byte   W96
@  #09 @016   ----------------------------------------
 .byte   W96
@  #09 @017   ----------------------------------------
 .byte   W96
@  #09 @018   ----------------------------------------
 .byte   W96
@  #09 @019   ----------------------------------------
 .byte   W96
@  #09 @020   ----------------------------------------
 .byte   W96
@  #09 @021   ----------------------------------------
 .byte   W96
@  #09 @022   ----------------------------------------
 .byte   W96
@  #09 @023   ----------------------------------------
 .byte   W96
@  #09 @024   ----------------------------------------
 .byte   W96
@  #09 @025   ----------------------------------------
 .byte   W96
@  #09 @026   ----------------------------------------
 .byte   W96
@  #09 @027   ----------------------------------------
 .byte   W96
@  #09 @028   ----------------------------------------
 .byte   W96
@  #09 @029   ----------------------------------------
 .byte   W96
@  #09 @030   ----------------------------------------
 .byte   W96
@  #09 @031   ----------------------------------------
 .byte   W96
@  #09 @032   ----------------------------------------
 .byte   W96
@  #09 @033   ----------------------------------------
 .byte   W96
@  #09 @034   ----------------------------------------
 .byte   W96
@  #09 @035   ----------------------------------------
 .byte   W96
@  #09 @036   ----------------------------------------
 .byte   W96
@  #09 @037   ----------------------------------------
 .byte   W96
@  #09 @038   ----------------------------------------
 .byte   W96
@  #09 @039   ----------------------------------------
 .byte   W96
@  #09 @040   ----------------------------------------
 .byte   W96
@  #09 @041   ----------------------------------------
 .byte   W96
@  #09 @042   ----------------------------------------
 .byte   W96
@  #09 @043   ----------------------------------------
 .byte   W96
@  #09 @044   ----------------------------------------
 .byte   W96
@  #09 @045   ----------------------------------------
 .byte   W96
@  #09 @046   ----------------------------------------
 .byte   W96
@  #09 @047   ----------------------------------------
 .byte   W96
@  #09 @048   ----------------------------------------
Label_014CD462:
 .byte   W96
@  #09 @049   ----------------------------------------
 .byte   W96
@  #09 @050   ----------------------------------------
 .byte   W96
@  #09 @051   ----------------------------------------
 .byte   W96
@  #09 @052   ----------------------------------------
 .byte   W96
@  #09 @053   ----------------------------------------
 .byte   W96
@  #09 @054   ----------------------------------------
 .byte   W96
@  #09 @055   ----------------------------------------
 .byte   W96
@  #09 @056   ----------------------------------------
 .byte   W96
@  #09 @057   ----------------------------------------
 .byte   W96
@  #09 @058   ----------------------------------------
 .byte   W96
@  #09 @059   ----------------------------------------
 .byte   W96
@  #09 @060   ----------------------------------------
 .byte   W96
@  #09 @061   ----------------------------------------
 .byte   W96
@  #09 @062   ----------------------------------------
 .byte   W96
@  #09 @063   ----------------------------------------
 .byte   W96
@  #09 @064   ----------------------------------------
 .byte   W96
@  #09 @065   ----------------------------------------
 .byte   W96
@  #09 @066   ----------------------------------------
 .byte   W96
@  #09 @067   ----------------------------------------
 .byte   W96
@  #09 @068   ----------------------------------------
 .byte   W96
@  #09 @069   ----------------------------------------
 .byte   W96
@  #09 @070   ----------------------------------------
 .byte   W96
@  #09 @071   ----------------------------------------
 .byte   W96
@  #09 @072   ----------------------------------------
 .byte   W96
@  #09 @073   ----------------------------------------
 .byte   W96
@  #09 @074   ----------------------------------------
 .byte   W96
@  #09 @075   ----------------------------------------
 .byte   W96
@  #09 @076   ----------------------------------------
 .byte   W96
@  #09 @077   ----------------------------------------
 .byte   W96
@  #09 @078   ----------------------------------------
 .byte   W96
@  #09 @079   ----------------------------------------
 .byte   W96
@  #09 @080   ----------------------------------------
 .byte   W96
@  #09 @081   ----------------------------------------
 .byte   W96
@  #09 @082   ----------------------------------------
 .byte   W96
@  #09 @083   ----------------------------------------
 .byte   W96
@  #09 @084   ----------------------------------------
 .byte   W96
@  #09 @085   ----------------------------------------
 .byte   W96
@  #09 @086   ----------------------------------------
 .byte   W96
@  #09 @087   ----------------------------------------
 .byte   W96
@  #09 @088   ----------------------------------------
 .byte   W96
@  #09 @089   ----------------------------------------
 .byte   W96
@  #09 @090   ----------------------------------------
 .byte   W96
@  #09 @091   ----------------------------------------
 .byte   W96
@  #09 @092   ----------------------------------------
 .byte   W96
@  #09 @093   ----------------------------------------
 .byte   W96
@  #09 @094   ----------------------------------------
 .byte   W96
@  #09 @095   ----------------------------------------
 .byte   W96
@  #09 @096   ----------------------------------------
 .byte   W96
@  #09 @097   ----------------------------------------
 .byte   W96
@  #09 @098   ----------------------------------------
 .byte   W96
@  #09 @099   ----------------------------------------
 .byte   W96
@  #09 @100   ----------------------------------------
 .byte   W96
@  #09 @101   ----------------------------------------
 .byte   W96
@  #09 @102   ----------------------------------------
 .byte   W96
@  #09 @103   ----------------------------------------
 .byte   W96
@  #09 @104   ----------------------------------------
 .byte   W96
@  #09 @105   ----------------------------------------
 .byte   W96
@  #09 @106   ----------------------------------------
 .byte   W96
@  #09 @107   ----------------------------------------
 .byte   W96
@  #09 @108   ----------------------------------------
 .byte   W96
@  #09 @109   ----------------------------------------
 .byte   W96
@  #09 @110   ----------------------------------------
 .byte   W96
@  #09 @111   ----------------------------------------
 .byte   W96
@  #09 @112   ----------------------------------------
 .byte   W96
@  #09 @113   ----------------------------------------
 .byte   W96
@  #09 @114   ----------------------------------------
 .byte   W96
@  #09 @115   ----------------------------------------
 .byte   W96
@  #09 @116   ----------------------------------------
 .byte   W96
@  #09 @117   ----------------------------------------
 .byte   W96
@  #09 @118   ----------------------------------------
 .byte   W96
@  #09 @119   ----------------------------------------
 .byte   W96
@  #09 @120   ----------------------------------------
 .byte   W96
@  #09 @121   ----------------------------------------
 .byte   W96
@  #09 @122   ----------------------------------------
 .byte   W96
@  #09 @123   ----------------------------------------
 .byte   W96
@  #09 @124   ----------------------------------------
 .byte   W96
@  #09 @125   ----------------------------------------
 .byte   W96
@  #09 @126   ----------------------------------------
 .byte   W96
@  #09 @127   ----------------------------------------
 .byte   W96
@  #09 @128   ----------------------------------------
 .byte   W96
@  #09 @129   ----------------------------------------
 .byte   W96
@  #09 @130   ----------------------------------------
 .byte   W96
@  #09 @131   ----------------------------------------
 .byte   W96
@  #09 @132   ----------------------------------------
 .byte   W96
@  #09 @133   ----------------------------------------
 .byte   W96
@  #09 @134   ----------------------------------------
 .byte   W96
@  #09 @135   ----------------------------------------
 .byte   W96
@  #09 @136   ----------------------------------------
 .byte   W96
@  #09 @137   ----------------------------------------
 .byte   W96
@  #09 @138   ----------------------------------------
 .byte   W96
@  #09 @139   ----------------------------------------
 .byte   W96
@  #09 @140   ----------------------------------------
 .byte   W96
@  #09 @141   ----------------------------------------
 .byte   W96
@  #09 @142   ----------------------------------------
 .byte   W96
@  #09 @143   ----------------------------------------
 .byte   W96
@  #09 @144   ----------------------------------------
 .byte   W96
@  #09 @145   ----------------------------------------
 .byte   W96
@  #09 @146   ----------------------------------------
 .byte   W96
@  #09 @147   ----------------------------------------
 .byte   W96
@  #09 @148   ----------------------------------------
 .byte   W96
@  #09 @149   ----------------------------------------
 .byte   W96
@  #09 @150   ----------------------------------------
 .byte   W96
@  #09 @151   ----------------------------------------
 .byte   W96
@  #09 @152   ----------------------------------------
 .byte   W96
@  #09 @153   ----------------------------------------
 .byte   W96
@  #09 @154   ----------------------------------------
 .byte   W96
@  #09 @155   ----------------------------------------
 .byte   W96
@  #09 @156   ----------------------------------------
 .byte   W96
@  #09 @157   ----------------------------------------
 .byte   W96
@  #09 @158   ----------------------------------------
 .byte   W96
@  #09 @159   ----------------------------------------
 .byte   W96
@  #09 @160   ----------------------------------------
 .byte   W96
@  #09 @161   ----------------------------------------
 .byte   W96
@  #09 @162   ----------------------------------------
 .byte   W96
@  #09 @163   ----------------------------------------
 .byte   W96
@  #09 @164   ----------------------------------------
 .byte   W96
@  #09 @165   ----------------------------------------
 .byte   W96
@  #09 @166   ----------------------------------------
 .byte   W96
@  #09 @167   ----------------------------------------
 .byte   W96
@  #09 @168   ----------------------------------------
 .byte   W96
@  #09 @169   ----------------------------------------
 .byte   W96
@  #09 @170   ----------------------------------------
 .byte   W96
@  #09 @171   ----------------------------------------
 .byte   W96
@  #09 @172   ----------------------------------------
 .byte   W96
@  #09 @173   ----------------------------------------
 .byte   W96
@  #09 @174   ----------------------------------------
 .byte   W96
@  #09 @175   ----------------------------------------
 .byte   W96
@  #09 @176   ----------------------------------------
 .byte   W96
@  #09 @177   ----------------------------------------
 .byte   W96
@  #09 @178   ----------------------------------------
 .byte   W96
@  #09 @179   ----------------------------------------
 .byte   W96
@  #09 @180   ----------------------------------------
 .byte   W96
@  #09 @181   ----------------------------------------
 .byte   W96
@  #09 @182   ----------------------------------------
 .byte   W96
@  #09 @183   ----------------------------------------
 .byte   W96
@  #09 @184   ----------------------------------------
 .byte   W96
@  #09 @185   ----------------------------------------
 .byte   W96
@  #09 @186   ----------------------------------------
 .byte   W96
@  #09 @187   ----------------------------------------
 .byte   W96
@  #09 @188   ----------------------------------------
 .byte   W96
@  #09 @189   ----------------------------------------
 .byte   W96
@  #09 @190   ----------------------------------------
 .byte   W96
@  #09 @191   ----------------------------------------
 .byte   W96
@  #09 @192   ----------------------------------------
 .byte   W96
@  #09 @193   ----------------------------------------
 .byte   W96
@  #09 @194   ----------------------------------------
 .byte   W96
@  #09 @195   ----------------------------------------
 .byte   W96
@  #09 @196   ----------------------------------------
 .byte   W96
@  #09 @197   ----------------------------------------
 .byte   W96
@  #09 @198   ----------------------------------------
 .byte   W96
@  #09 @199   ----------------------------------------
 .byte   W96
@  #09 @200   ----------------------------------------
 .byte   W96
@  #09 @201   ----------------------------------------
 .byte   W96
@  #09 @202   ----------------------------------------
 .byte   W96
@  #09 @203   ----------------------------------------
 .byte   W96
@  #09 @204   ----------------------------------------
 .byte   W96
@  #09 @205   ----------------------------------------
 .byte   W96
@  #09 @206   ----------------------------------------
 .byte   W96
@  #09 @207   ----------------------------------------
 .byte   W96
@  #09 @208   ----------------------------------------
 .byte   W96
@  #09 @209   ----------------------------------------
 .byte   W96
@  #09 @210   ----------------------------------------
 .byte   W96
@  #09 @211   ----------------------------------------
 .byte   W96
@  #09 @212   ----------------------------------------
 .byte   W96
@  #09 @213   ----------------------------------------
 .byte   W96
@  #09 @214   ----------------------------------------
 .byte   W96
@  #09 @215   ----------------------------------------
 .byte   W96
@  #09 @216   ----------------------------------------
 .byte   W96
@  #09 @217   ----------------------------------------
 .byte   W96
@  #09 @218   ----------------------------------------
 .byte   W96
@  #09 @219   ----------------------------------------
 .byte   W96
@  #09 @220   ----------------------------------------
 .byte   W96
@  #09 @221   ----------------------------------------
 .byte   W96
@  #09 @222   ----------------------------------------
 .byte   W96
@  #09 @223   ----------------------------------------
 .byte   W96
@  #09 @224   ----------------------------------------
 .byte   W96
@  #09 @225   ----------------------------------------
 .byte   W96
@  #09 @226   ----------------------------------------
 .byte   W96
@  #09 @227   ----------------------------------------
 .byte   W96
@  #09 @228   ----------------------------------------
 .byte   W96
@  #09 @229   ----------------------------------------
 .byte   W96
@  #09 @230   ----------------------------------------
 .byte   W96
@  #09 @231   ----------------------------------------
 .byte   W96
@  #09 @232   ----------------------------------------
 .byte   W96
@  #09 @233   ----------------------------------------
 .byte   W96
@  #09 @234   ----------------------------------------
 .byte   W96
@  #09 @235   ----------------------------------------
 .byte   W96
@  #09 @236   ----------------------------------------
 .byte   TIE ,Dn4 ,v124
 .byte   W01
 .byte   VOL , 0*DeathIDeservioli_mvl/mxv
 .byte   W01
 .byte   VOL , 0*DeathIDeservioli_mvl/mxv
 .byte   W01
 .byte   VOL , 0*DeathIDeservioli_mvl/mxv
 .byte   W01
 .byte   VOL , 0*DeathIDeservioli_mvl/mxv
 .byte   W01
 .byte   VOL , 0*DeathIDeservioli_mvl/mxv
 .byte   W01
 .byte   VOL , 0*DeathIDeservioli_mvl/mxv
 .byte   W01
 .byte   VOL , 0*DeathIDeservioli_mvl/mxv
 .byte   W01
 .byte   VOL , 0*DeathIDeservioli_mvl/mxv
 .byte   W01
 .byte   VOL , 0*DeathIDeservioli_mvl/mxv
 .byte   W01
 .byte   VOL , 1*DeathIDeservioli_mvl/mxv
 .byte   W01
 .byte   VOL , 1*DeathIDeservioli_mvl/mxv
 .byte   W01
 .byte   VOL , 1*DeathIDeservioli_mvl/mxv
 .byte   W01
 .byte   VOL , 1*DeathIDeservioli_mvl/mxv
 .byte   W01
 .byte   VOL , 1*DeathIDeservioli_mvl/mxv
 .byte   W01
 .byte   VOL , 1*DeathIDeservioli_mvl/mxv
 .byte   W01
 .byte   VOL , 2*DeathIDeservioli_mvl/mxv
 .byte   W01
 .byte   VOL , 2*DeathIDeservioli_mvl/mxv
 .byte   W01
 .byte   VOL , 2*DeathIDeservioli_mvl/mxv
 .byte   W01
 .byte   VOL , 2*DeathIDeservioli_mvl/mxv
 .byte   W01
 .byte   VOL , 2*DeathIDeservioli_mvl/mxv
 .byte   W01
 .byte   VOL , 2*DeathIDeservioli_mvl/mxv
 .byte   W01
 .byte   VOL , 2*DeathIDeservioli_mvl/mxv
 .byte   W01
 .byte   VOL , 2*DeathIDeservioli_mvl/mxv
 .byte   W01
 .byte   VOL , 2*DeathIDeservioli_mvl/mxv
 .byte   W01
 .byte   VOL , 3*DeathIDeservioli_mvl/mxv
 .byte   W01
 .byte   VOL , 3*DeathIDeservioli_mvl/mxv
 .byte   W01
 .byte   VOL , 3*DeathIDeservioli_mvl/mxv
 .byte   W01
 .byte   VOL , 3*DeathIDeservioli_mvl/mxv
 .byte   W01
 .byte   VOL , 3*DeathIDeservioli_mvl/mxv
 .byte   W01
 .byte   VOL , 3*DeathIDeservioli_mvl/mxv
 .byte   W01
 .byte   VOL , 4*DeathIDeservioli_mvl/mxv
 .byte   W01
 .byte   VOL , 4*DeathIDeservioli_mvl/mxv
 .byte   W01
 .byte   VOL , 4*DeathIDeservioli_mvl/mxv
 .byte   W01
 .byte   VOL , 4*DeathIDeservioli_mvl/mxv
 .byte   W01
 .byte   VOL , 4*DeathIDeservioli_mvl/mxv
 .byte   W01
 .byte   VOL , 4*DeathIDeservioli_mvl/mxv
 .byte   W01
 .byte   VOL , 4*DeathIDeservioli_mvl/mxv
 .byte   W01
 .byte   VOL , 4*DeathIDeservioli_mvl/mxv
 .byte   W01
 .byte   VOL , 4*DeathIDeservioli_mvl/mxv
 .byte   W01
 .byte   VOL , 5*DeathIDeservioli_mvl/mxv
 .byte   W01
 .byte   VOL , 5*DeathIDeservioli_mvl/mxv
 .byte   W01
 .byte   VOL , 5*DeathIDeservioli_mvl/mxv
 .byte   W01
 .byte   VOL , 5*DeathIDeservioli_mvl/mxv
 .byte   W01
 .byte   VOL , 5*DeathIDeservioli_mvl/mxv
 .byte   W01
 .byte   VOL , 5*DeathIDeservioli_mvl/mxv
 .byte   W01
 .byte   VOL , 6*DeathIDeservioli_mvl/mxv
 .byte   W01
 .byte   VOL , 6*DeathIDeservioli_mvl/mxv
 .byte   W01
 .byte   VOL , 6*DeathIDeservioli_mvl/mxv
 .byte   W01
 .byte   VOL , 6*DeathIDeservioli_mvl/mxv
 .byte   W01
 .byte   VOL , 6*DeathIDeservioli_mvl/mxv
 .byte   W01
 .byte   VOL , 6*DeathIDeservioli_mvl/mxv
 .byte   W01
 .byte   VOL , 6*DeathIDeservioli_mvl/mxv
 .byte   W01
 .byte   VOL , 6*DeathIDeservioli_mvl/mxv
 .byte   W01
 .byte   VOL , 6*DeathIDeservioli_mvl/mxv
 .byte   W01
 .byte   VOL , 7*DeathIDeservioli_mvl/mxv
 .byte   W01
 .byte   VOL , 7*DeathIDeservioli_mvl/mxv
 .byte   W01
 .byte   VOL , 7*DeathIDeservioli_mvl/mxv
 .byte   W01
 .byte   VOL , 7*DeathIDeservioli_mvl/mxv
 .byte   W01
 .byte   VOL , 7*DeathIDeservioli_mvl/mxv
 .byte   W01
 .byte   VOL , 7*DeathIDeservioli_mvl/mxv
 .byte   W01
 .byte   VOL , 8*DeathIDeservioli_mvl/mxv
 .byte   W01
 .byte   VOL , 8*DeathIDeservioli_mvl/mxv
 .byte   W01
 .byte   VOL , 8*DeathIDeservioli_mvl/mxv
 .byte   W01
 .byte   VOL , 8*DeathIDeservioli_mvl/mxv
 .byte   W01
 .byte   VOL , 8*DeathIDeservioli_mvl/mxv
 .byte   W01
 .byte   VOL , 8*DeathIDeservioli_mvl/mxv
 .byte   W01
 .byte   VOL , 9*DeathIDeservioli_mvl/mxv
 .byte   W01
 .byte   VOL , 9*DeathIDeservioli_mvl/mxv
 .byte   W01
 .byte   VOL , 9*DeathIDeservioli_mvl/mxv
 .byte   W01
 .byte   VOL , 9*DeathIDeservioli_mvl/mxv
 .byte   W01
 .byte   VOL , 9*DeathIDeservioli_mvl/mxv
 .byte   W01
 .byte   VOL , 9*DeathIDeservioli_mvl/mxv
 .byte   W01
 .byte   VOL , 9*DeathIDeservioli_mvl/mxv
 .byte   W01
 .byte   VOL , 9*DeathIDeservioli_mvl/mxv
 .byte   W01
 .byte   VOL , 9*DeathIDeservioli_mvl/mxv
 .byte   W01
 .byte   VOL , 10*DeathIDeservioli_mvl/mxv
 .byte   W01
 .byte   VOL , 10*DeathIDeservioli_mvl/mxv
 .byte   W01
 .byte   VOL , 10*DeathIDeservioli_mvl/mxv
 .byte   W01
 .byte   VOL , 10*DeathIDeservioli_mvl/mxv
 .byte   W01
 .byte   VOL , 10*DeathIDeservioli_mvl/mxv
 .byte   W01
 .byte   VOL , 10*DeathIDeservioli_mvl/mxv
 .byte   W01
 .byte   VOL , 11*DeathIDeservioli_mvl/mxv
 .byte   W01
 .byte   VOL , 11*DeathIDeservioli_mvl/mxv
 .byte   W01
 .byte   VOL , 11*DeathIDeservioli_mvl/mxv
 .byte   W01
 .byte   VOL , 11*DeathIDeservioli_mvl/mxv
 .byte   W01
 .byte   VOL , 11*DeathIDeservioli_mvl/mxv
 .byte   W01
 .byte   VOL , 11*DeathIDeservioli_mvl/mxv
 .byte   W01
 .byte   VOL , 11*DeathIDeservioli_mvl/mxv
 .byte   W01
 .byte   VOL , 11*DeathIDeservioli_mvl/mxv
 .byte   W01
 .byte   VOL , 11*DeathIDeservioli_mvl/mxv
 .byte   W01
 .byte   VOL , 12*DeathIDeservioli_mvl/mxv
 .byte   W01
 .byte   VOL , 12*DeathIDeservioli_mvl/mxv
 .byte   W01
 .byte   VOL , 12*DeathIDeservioli_mvl/mxv
 .byte   W01
 .byte   VOL , 12*DeathIDeservioli_mvl/mxv
 .byte   W01
 .byte   VOL , 12*DeathIDeservioli_mvl/mxv
 .byte   W01
@  #09 @237   ----------------------------------------
 .byte   VOL , 12*DeathIDeservioli_mvl/mxv
 .byte   W01
 .byte   VOL , 13*DeathIDeservioli_mvl/mxv
 .byte   W01
 .byte   VOL , 13*DeathIDeservioli_mvl/mxv
 .byte   W01
 .byte   VOL , 13*DeathIDeservioli_mvl/mxv
 .byte   W01
 .byte   VOL , 13*DeathIDeservioli_mvl/mxv
 .byte   W01
 .byte   VOL , 13*DeathIDeservioli_mvl/mxv
 .byte   W01
 .byte   VOL , 13*DeathIDeservioli_mvl/mxv
 .byte   W01
 .byte   VOL , 13*DeathIDeservioli_mvl/mxv
 .byte   W01
 .byte   VOL , 13*DeathIDeservioli_mvl/mxv
 .byte   W01
 .byte   VOL , 13*DeathIDeservioli_mvl/mxv
 .byte   W01
 .byte   VOL , 14*DeathIDeservioli_mvl/mxv
 .byte   W01
 .byte   VOL , 14*DeathIDeservioli_mvl/mxv
 .byte   W01
 .byte   VOL , 14*DeathIDeservioli_mvl/mxv
 .byte   W01
 .byte   VOL , 14*DeathIDeservioli_mvl/mxv
 .byte   W01
 .byte   VOL , 14*DeathIDeservioli_mvl/mxv
 .byte   W01
 .byte   VOL , 14*DeathIDeservioli_mvl/mxv
 .byte   W01
 .byte   VOL , 15*DeathIDeservioli_mvl/mxv
 .byte   W01
 .byte   VOL , 15*DeathIDeservioli_mvl/mxv
 .byte   W01
 .byte   VOL , 15*DeathIDeservioli_mvl/mxv
 .byte   W01
 .byte   VOL , 15*DeathIDeservioli_mvl/mxv
 .byte   W01
 .byte   VOL , 15*DeathIDeservioli_mvl/mxv
 .byte   W01
 .byte   VOL , 15*DeathIDeservioli_mvl/mxv
 .byte   W01
 .byte   VOL , 15*DeathIDeservioli_mvl/mxv
 .byte   W01
 .byte   VOL , 15*DeathIDeservioli_mvl/mxv
 .byte   W01
 .byte   VOL , 15*DeathIDeservioli_mvl/mxv
 .byte   W01
 .byte   VOL , 16*DeathIDeservioli_mvl/mxv
 .byte   W01
 .byte   VOL , 16*DeathIDeservioli_mvl/mxv
 .byte   W01
 .byte   VOL , 16*DeathIDeservioli_mvl/mxv
 .byte   W01
 .byte   VOL , 16*DeathIDeservioli_mvl/mxv
 .byte   W01
 .byte   VOL , 16*DeathIDeservioli_mvl/mxv
 .byte   W01
 .byte   VOL , 17*DeathIDeservioli_mvl/mxv
 .byte   W01
 .byte   VOL , 17*DeathIDeservioli_mvl/mxv
 .byte   W01
 .byte   VOL , 17*DeathIDeservioli_mvl/mxv
 .byte   W01
 .byte   VOL , 17*DeathIDeservioli_mvl/mxv
 .byte   W01
 .byte   VOL , 17*DeathIDeservioli_mvl/mxv
 .byte   W01
 .byte   VOL , 17*DeathIDeservioli_mvl/mxv
 .byte   W01
 .byte   VOL , 18*DeathIDeservioli_mvl/mxv
 .byte   W01
 .byte   VOL , 18*DeathIDeservioli_mvl/mxv
 .byte   W01
 .byte   VOL , 18*DeathIDeservioli_mvl/mxv
 .byte   W01
 .byte   VOL , 18*DeathIDeservioli_mvl/mxv
 .byte   W01
 .byte   VOL , 18*DeathIDeservioli_mvl/mxv
 .byte   W01
 .byte   VOL , 18*DeathIDeservioli_mvl/mxv
 .byte   W01
 .byte   VOL , 18*DeathIDeservioli_mvl/mxv
 .byte   W01
 .byte   VOL , 18*DeathIDeservioli_mvl/mxv
 .byte   W01
 .byte   VOL , 18*DeathIDeservioli_mvl/mxv
 .byte   W01
 .byte   VOL , 19*DeathIDeservioli_mvl/mxv
 .byte   W01
 .byte   VOL , 19*DeathIDeservioli_mvl/mxv
 .byte   W01
 .byte   VOL , 19*DeathIDeservioli_mvl/mxv
 .byte   W01
 .byte   VOL , 19*DeathIDeservioli_mvl/mxv
 .byte   W01
 .byte   VOL , 19*DeathIDeservioli_mvl/mxv
 .byte   W01
 .byte   VOL , 19*DeathIDeservioli_mvl/mxv
 .byte   W01
 .byte   VOL , 20*DeathIDeservioli_mvl/mxv
 .byte   W01
 .byte   VOL , 20*DeathIDeservioli_mvl/mxv
 .byte   W01
 .byte   VOL , 20*DeathIDeservioli_mvl/mxv
 .byte   W01
 .byte   VOL , 20*DeathIDeservioli_mvl/mxv
 .byte   W01
 .byte   VOL , 20*DeathIDeservioli_mvl/mxv
 .byte   W01
 .byte   VOL , 20*DeathIDeservioli_mvl/mxv
 .byte   W01
 .byte   VOL , 20*DeathIDeservioli_mvl/mxv
 .byte   W01
 .byte   VOL , 20*DeathIDeservioli_mvl/mxv
 .byte   W01
 .byte   VOL , 20*DeathIDeservioli_mvl/mxv
 .byte   W01
 .byte   VOL , 21*DeathIDeservioli_mvl/mxv
 .byte   W01
 .byte   VOL , 21*DeathIDeservioli_mvl/mxv
 .byte   W01
 .byte   VOL , 21*DeathIDeservioli_mvl/mxv
 .byte   W01
 .byte   VOL , 21*DeathIDeservioli_mvl/mxv
 .byte   W01
 .byte   VOL , 21*DeathIDeservioli_mvl/mxv
 .byte   W01
 .byte   VOL , 21*DeathIDeservioli_mvl/mxv
 .byte   W01
 .byte   VOL , 22*DeathIDeservioli_mvl/mxv
 .byte   W01
 .byte   VOL , 22*DeathIDeservioli_mvl/mxv
 .byte   W01
 .byte   VOL , 22*DeathIDeservioli_mvl/mxv
 .byte   W01
 .byte   VOL , 22*DeathIDeservioli_mvl/mxv
 .byte   W01
 .byte   VOL , 22*DeathIDeservioli_mvl/mxv
 .byte   W01
 .byte   VOL , 22*DeathIDeservioli_mvl/mxv
 .byte   W01
 .byte   VOL , 22*DeathIDeservioli_mvl/mxv
 .byte   W01
 .byte   VOL , 22*DeathIDeservioli_mvl/mxv
 .byte   W01
 .byte   VOL , 22*DeathIDeservioli_mvl/mxv
 .byte   W01
 .byte   VOL , 23*DeathIDeservioli_mvl/mxv
 .byte   W01
 .byte   VOL , 23*DeathIDeservioli_mvl/mxv
 .byte   W01
 .byte   VOL , 23*DeathIDeservioli_mvl/mxv
 .byte   W01
 .byte   VOL , 23*DeathIDeservioli_mvl/mxv
 .byte   W01
 .byte   VOL , 23*DeathIDeservioli_mvl/mxv
 .byte   W01
 .byte   VOL , 23*DeathIDeservioli_mvl/mxv
 .byte   W01
 .byte   VOL , 24*DeathIDeservioli_mvl/mxv
 .byte   W01
 .byte   VOL , 24*DeathIDeservioli_mvl/mxv
 .byte   W01
 .byte   VOL , 24*DeathIDeservioli_mvl/mxv
 .byte   W01
 .byte   VOL , 24*DeathIDeservioli_mvl/mxv
 .byte   W01
 .byte   VOL , 24*DeathIDeservioli_mvl/mxv
 .byte   W01
 .byte   VOL , 24*DeathIDeservioli_mvl/mxv
 .byte   W01
 .byte   VOL , 24*DeathIDeservioli_mvl/mxv
 .byte   W01
 .byte   VOL , 24*DeathIDeservioli_mvl/mxv
 .byte   W01
 .byte   VOL , 24*DeathIDeservioli_mvl/mxv
 .byte   W01
 .byte   VOL , 25*DeathIDeservioli_mvl/mxv
 .byte   W01
 .byte   VOL , 25*DeathIDeservioli_mvl/mxv
 .byte   W01
 .byte   VOL , 25*DeathIDeservioli_mvl/mxv
 .byte   W01
 .byte   VOL , 25*DeathIDeservioli_mvl/mxv
 .byte   W01
 .byte   VOL , 25*DeathIDeservioli_mvl/mxv
 .byte   W01
 .byte   VOL , 25*DeathIDeservioli_mvl/mxv
 .byte   W01
@  #09 @238   ----------------------------------------
 .byte   VOL , 26*DeathIDeservioli_mvl/mxv
 .byte   W01
 .byte   VOL , 26*DeathIDeservioli_mvl/mxv
 .byte   W01
 .byte   VOL , 26*DeathIDeservioli_mvl/mxv
 .byte   W01
 .byte   VOL , 26*DeathIDeservioli_mvl/mxv
 .byte   W01
 .byte   VOL , 26*DeathIDeservioli_mvl/mxv
 .byte   W01
 .byte   VOL , 26*DeathIDeservioli_mvl/mxv
 .byte   W01
 .byte   VOL , 27*DeathIDeservioli_mvl/mxv
 .byte   W01
 .byte   VOL , 27*DeathIDeservioli_mvl/mxv
 .byte   W01
 .byte   VOL , 27*DeathIDeservioli_mvl/mxv
 .byte   W01
 .byte   VOL , 27*DeathIDeservioli_mvl/mxv
 .byte   W01
 .byte   VOL , 27*DeathIDeservioli_mvl/mxv
 .byte   W01
 .byte   VOL , 27*DeathIDeservioli_mvl/mxv
 .byte   W01
 .byte   VOL , 27*DeathIDeservioli_mvl/mxv
 .byte   W01
 .byte   VOL , 27*DeathIDeservioli_mvl/mxv
 .byte   W01
 .byte   VOL , 27*DeathIDeservioli_mvl/mxv
 .byte   W01
 .byte   VOL , 28*DeathIDeservioli_mvl/mxv
 .byte   W01
 .byte   VOL , 28*DeathIDeservioli_mvl/mxv
 .byte   W01
 .byte   VOL , 28*DeathIDeservioli_mvl/mxv
 .byte   W01
 .byte   VOL , 28*DeathIDeservioli_mvl/mxv
 .byte   W01
 .byte   VOL , 28*DeathIDeservioli_mvl/mxv
 .byte   W01
 .byte   VOL , 28*DeathIDeservioli_mvl/mxv
 .byte   W01
 .byte   VOL , 29*DeathIDeservioli_mvl/mxv
 .byte   W01
 .byte   VOL , 29*DeathIDeservioli_mvl/mxv
 .byte   W01
 .byte   VOL , 29*DeathIDeservioli_mvl/mxv
 .byte   W01
 .byte   VOL , 29*DeathIDeservioli_mvl/mxv
 .byte   W01
 .byte   VOL , 29*DeathIDeservioli_mvl/mxv
 .byte   W01
 .byte   VOL , 29*DeathIDeservioli_mvl/mxv
 .byte   W01
 .byte   VOL , 29*DeathIDeservioli_mvl/mxv
 .byte   W01
 .byte   VOL , 29*DeathIDeservioli_mvl/mxv
 .byte   W01
 .byte   VOL , 29*DeathIDeservioli_mvl/mxv
 .byte   W01
 .byte   VOL , 30*DeathIDeservioli_mvl/mxv
 .byte   W01
 .byte   VOL , 30*DeathIDeservioli_mvl/mxv
 .byte   W01
 .byte   VOL , 30*DeathIDeservioli_mvl/mxv
 .byte   W01
 .byte   VOL , 30*DeathIDeservioli_mvl/mxv
 .byte   W01
 .byte   VOL , 30*DeathIDeservioli_mvl/mxv
 .byte   W01
 .byte   VOL , 30*DeathIDeservioli_mvl/mxv
 .byte   W01
 .byte   VOL , 31*DeathIDeservioli_mvl/mxv
 .byte   W01
 .byte   VOL , 31*DeathIDeservioli_mvl/mxv
 .byte   W01
 .byte   VOL , 31*DeathIDeservioli_mvl/mxv
 .byte   W01
 .byte   VOL , 31*DeathIDeservioli_mvl/mxv
 .byte   W01
 .byte   VOL , 31*DeathIDeservioli_mvl/mxv
 .byte   W01
 .byte   VOL , 31*DeathIDeservioli_mvl/mxv
 .byte   W01
 .byte   VOL , 31*DeathIDeservioli_mvl/mxv
 .byte   W01
 .byte   VOL , 31*DeathIDeservioli_mvl/mxv
 .byte   W01
 .byte   VOL , 31*DeathIDeservioli_mvl/mxv
 .byte   W01
 .byte   VOL , 32*DeathIDeservioli_mvl/mxv
 .byte   W01
 .byte   VOL , 32*DeathIDeservioli_mvl/mxv
 .byte   W01
 .byte   VOL , 32*DeathIDeservioli_mvl/mxv
 .byte   W01
 .byte   VOL , 32*DeathIDeservioli_mvl/mxv
 .byte   W01
 .byte   VOL , 32*DeathIDeservioli_mvl/mxv
 .byte   W01
 .byte   VOL , 32*DeathIDeservioli_mvl/mxv
 .byte   W01
 .byte   VOL , 33*DeathIDeservioli_mvl/mxv
 .byte   W01
 .byte   VOL , 33*DeathIDeservioli_mvl/mxv
 .byte   W01
 .byte   VOL , 33*DeathIDeservioli_mvl/mxv
 .byte   W01
 .byte   VOL , 33*DeathIDeservioli_mvl/mxv
 .byte   W01
 .byte   VOL , 33*DeathIDeservioli_mvl/mxv
 .byte   W01
 .byte   VOL , 33*DeathIDeservioli_mvl/mxv
 .byte   W01
 .byte   VOL , 33*DeathIDeservioli_mvl/mxv
 .byte   W01
 .byte   VOL , 33*DeathIDeservioli_mvl/mxv
 .byte   W01
 .byte   VOL , 33*DeathIDeservioli_mvl/mxv
 .byte   W01
 .byte   VOL , 34*DeathIDeservioli_mvl/mxv
 .byte   W01
 .byte   VOL , 34*DeathIDeservioli_mvl/mxv
 .byte   W01
 .byte   VOL , 34*DeathIDeservioli_mvl/mxv
 .byte   W01
 .byte   VOL , 34*DeathIDeservioli_mvl/mxv
 .byte   W01
 .byte   VOL , 34*DeathIDeservioli_mvl/mxv
 .byte   W01
 .byte   VOL , 34*DeathIDeservioli_mvl/mxv
 .byte   W01
 .byte   VOL , 35*DeathIDeservioli_mvl/mxv
 .byte   W01
 .byte   VOL , 35*DeathIDeservioli_mvl/mxv
 .byte   W01
 .byte   VOL , 35*DeathIDeservioli_mvl/mxv
 .byte   W01
 .byte   VOL , 35*DeathIDeservioli_mvl/mxv
 .byte   W01
 .byte   VOL , 35*DeathIDeservioli_mvl/mxv
 .byte   W01
 .byte   VOL , 35*DeathIDeservioli_mvl/mxv
 .byte   W01
 .byte   VOL , 36*DeathIDeservioli_mvl/mxv
 .byte   W01
 .byte   VOL , 36*DeathIDeservioli_mvl/mxv
 .byte   W01
 .byte   VOL , 36*DeathIDeservioli_mvl/mxv
 .byte   W01
 .byte   VOL , 36*DeathIDeservioli_mvl/mxv
 .byte   W01
 .byte   VOL , 36*DeathIDeservioli_mvl/mxv
 .byte   W01
 .byte   VOL , 36*DeathIDeservioli_mvl/mxv
 .byte   W01
 .byte   VOL , 36*DeathIDeservioli_mvl/mxv
 .byte   W01
 .byte   VOL , 36*DeathIDeservioli_mvl/mxv
 .byte   W01
 .byte   VOL , 36*DeathIDeservioli_mvl/mxv
 .byte   W01
 .byte   VOL , 37*DeathIDeservioli_mvl/mxv
 .byte   W01
 .byte   VOL , 37*DeathIDeservioli_mvl/mxv
 .byte   W01
 .byte   VOL , 37*DeathIDeservioli_mvl/mxv
 .byte   W01
 .byte   VOL , 37*DeathIDeservioli_mvl/mxv
 .byte   W01
 .byte   VOL , 37*DeathIDeservioli_mvl/mxv
 .byte   W01
 .byte   VOL , 37*DeathIDeservioli_mvl/mxv
 .byte   W01
 .byte   VOL , 38*DeathIDeservioli_mvl/mxv
 .byte   W01
 .byte   VOL , 38*DeathIDeservioli_mvl/mxv
 .byte   W01
 .byte   VOL , 38*DeathIDeservioli_mvl/mxv
 .byte   W01
 .byte   VOL , 38*DeathIDeservioli_mvl/mxv
 .byte   W01
 .byte   VOL , 38*DeathIDeservioli_mvl/mxv
 .byte   W01
 .byte   VOL , 38*DeathIDeservioli_mvl/mxv
 .byte   W01
 .byte   VOL , 38*DeathIDeservioli_mvl/mxv
 .byte   W01
 .byte   VOL , 38*DeathIDeservioli_mvl/mxv
 .byte   W01
 .byte   VOL , 38*DeathIDeservioli_mvl/mxv
 .byte   W01
@  #09 @239   ----------------------------------------
 .byte   VOL , 39*DeathIDeservioli_mvl/mxv
 .byte   W01
 .byte   VOL , 39*DeathIDeservioli_mvl/mxv
 .byte   W01
 .byte   VOL , 39*DeathIDeservioli_mvl/mxv
 .byte   W01
 .byte   VOL , 39*DeathIDeservioli_mvl/mxv
 .byte   W01
 .byte   VOL , 39*DeathIDeservioli_mvl/mxv
 .byte   W01
 .byte   VOL , 39*DeathIDeservioli_mvl/mxv
 .byte   W01
 .byte   VOL , 40*DeathIDeservioli_mvl/mxv
 .byte   W01
 .byte   VOL , 40*DeathIDeservioli_mvl/mxv
 .byte   W01
 .byte   VOL , 40*DeathIDeservioli_mvl/mxv
 .byte   W01
 .byte   VOL , 40*DeathIDeservioli_mvl/mxv
 .byte   W01
 .byte   VOL , 40*DeathIDeservioli_mvl/mxv
 .byte   W01
 .byte   VOL , 40*DeathIDeservioli_mvl/mxv
 .byte   W01
 .byte   VOL , 40*DeathIDeservioli_mvl/mxv
 .byte   W01
 .byte   VOL , 40*DeathIDeservioli_mvl/mxv
 .byte   W01
 .byte   VOL , 40*DeathIDeservioli_mvl/mxv
 .byte   W01
 .byte   VOL , 41*DeathIDeservioli_mvl/mxv
 .byte   W01
 .byte   VOL , 41*DeathIDeservioli_mvl/mxv
 .byte   W01
 .byte   VOL , 41*DeathIDeservioli_mvl/mxv
 .byte   W01
 .byte   VOL , 41*DeathIDeservioli_mvl/mxv
 .byte   W01
 .byte   VOL , 41*DeathIDeservioli_mvl/mxv
 .byte   W01
 .byte   VOL , 41*DeathIDeservioli_mvl/mxv
 .byte   W01
 .byte   VOL , 42*DeathIDeservioli_mvl/mxv
 .byte   W01
 .byte   VOL , 42*DeathIDeservioli_mvl/mxv
 .byte   W01
 .byte   VOL , 42*DeathIDeservioli_mvl/mxv
 .byte   W01
 .byte   VOL , 42*DeathIDeservioli_mvl/mxv
 .byte   W01
 .byte   VOL , 42*DeathIDeservioli_mvl/mxv
 .byte   W01
 .byte   VOL , 42*DeathIDeservioli_mvl/mxv
 .byte   W01
 .byte   VOL , 42*DeathIDeservioli_mvl/mxv
 .byte   W01
 .byte   VOL , 42*DeathIDeservioli_mvl/mxv
 .byte   W01
 .byte   VOL , 42*DeathIDeservioli_mvl/mxv
 .byte   W01
 .byte   VOL , 43*DeathIDeservioli_mvl/mxv
 .byte   W01
 .byte   VOL , 43*DeathIDeservioli_mvl/mxv
 .byte   W01
 .byte   VOL , 43*DeathIDeservioli_mvl/mxv
 .byte   W01
 .byte   VOL , 43*DeathIDeservioli_mvl/mxv
 .byte   W01
 .byte   VOL , 43*DeathIDeservioli_mvl/mxv
 .byte   W01
 .byte   VOL , 43*DeathIDeservioli_mvl/mxv
 .byte   W01
 .byte   VOL , 44*DeathIDeservioli_mvl/mxv
 .byte   W01
 .byte   VOL , 44*DeathIDeservioli_mvl/mxv
 .byte   W01
 .byte   VOL , 44*DeathIDeservioli_mvl/mxv
 .byte   W01
 .byte   VOL , 44*DeathIDeservioli_mvl/mxv
 .byte   W01
 .byte   VOL , 44*DeathIDeservioli_mvl/mxv
 .byte   W01
 .byte   VOL , 44*DeathIDeservioli_mvl/mxv
 .byte   W01
 .byte   VOL , 45*DeathIDeservioli_mvl/mxv
 .byte   W01
 .byte   VOL , 45*DeathIDeservioli_mvl/mxv
 .byte   W01
 .byte   VOL , 45*DeathIDeservioli_mvl/mxv
 .byte   W01
 .byte   VOL , 45*DeathIDeservioli_mvl/mxv
 .byte   W01
 .byte   VOL , 45*DeathIDeservioli_mvl/mxv
 .byte   W01
 .byte   VOL , 45*DeathIDeservioli_mvl/mxv
 .byte   W01
 .byte   VOL , 45*DeathIDeservioli_mvl/mxv
 .byte   W01
 .byte   VOL , 45*DeathIDeservioli_mvl/mxv
 .byte   W01
 .byte   VOL , 45*DeathIDeservioli_mvl/mxv
 .byte   W01
 .byte   VOL , 46*DeathIDeservioli_mvl/mxv
 .byte   W01
 .byte   VOL , 46*DeathIDeservioli_mvl/mxv
 .byte   W01
 .byte   VOL , 46*DeathIDeservioli_mvl/mxv
 .byte   W01
 .byte   VOL , 46*DeathIDeservioli_mvl/mxv
 .byte   W01
 .byte   VOL , 46*DeathIDeservioli_mvl/mxv
 .byte   W01
 .byte   VOL , 46*DeathIDeservioli_mvl/mxv
 .byte   W01
 .byte   VOL , 47*DeathIDeservioli_mvl/mxv
 .byte   W01
 .byte   VOL , 47*DeathIDeservioli_mvl/mxv
 .byte   W01
 .byte   VOL , 47*DeathIDeservioli_mvl/mxv
 .byte   W01
 .byte   VOL , 47*DeathIDeservioli_mvl/mxv
 .byte   W01
 .byte   VOL , 47*DeathIDeservioli_mvl/mxv
 .byte   W01
 .byte   VOL , 47*DeathIDeservioli_mvl/mxv
 .byte   W01
 .byte   VOL , 47*DeathIDeservioli_mvl/mxv
 .byte   W01
 .byte   VOL , 47*DeathIDeservioli_mvl/mxv
 .byte   W01
 .byte   VOL , 47*DeathIDeservioli_mvl/mxv
 .byte   W01
 .byte   VOL , 48*DeathIDeservioli_mvl/mxv
 .byte   W01
 .byte   VOL , 48*DeathIDeservioli_mvl/mxv
 .byte   W01
 .byte   VOL , 48*DeathIDeservioli_mvl/mxv
 .byte   W01
 .byte   VOL , 48*DeathIDeservioli_mvl/mxv
 .byte   W01
 .byte   VOL , 48*DeathIDeservioli_mvl/mxv
 .byte   W01
 .byte   VOL , 48*DeathIDeservioli_mvl/mxv
 .byte   W01
 .byte   VOL , 49*DeathIDeservioli_mvl/mxv
 .byte   W01
 .byte   VOL , 49*DeathIDeservioli_mvl/mxv
 .byte   W01
 .byte   VOL , 49*DeathIDeservioli_mvl/mxv
 .byte   W01
 .byte   VOL , 49*DeathIDeservioli_mvl/mxv
 .byte   W01
 .byte   VOL , 49*DeathIDeservioli_mvl/mxv
 .byte   W01
 .byte   VOL , 49*DeathIDeservioli_mvl/mxv
 .byte   W01
 .byte   VOL , 49*DeathIDeservioli_mvl/mxv
 .byte   W01
 .byte   VOL , 49*DeathIDeservioli_mvl/mxv
 .byte   W01
 .byte   VOL , 49*DeathIDeservioli_mvl/mxv
 .byte   W01
 .byte   VOL , 50*DeathIDeservioli_mvl/mxv
 .byte   W01
 .byte   VOL , 50*DeathIDeservioli_mvl/mxv
 .byte   W01
 .byte   VOL , 50*DeathIDeservioli_mvl/mxv
 .byte   W01
 .byte   VOL , 50*DeathIDeservioli_mvl/mxv
 .byte   W01
 .byte   VOL , 50*DeathIDeservioli_mvl/mxv
 .byte   W01
 .byte   VOL , 50*DeathIDeservioli_mvl/mxv
 .byte   W01
 .byte   VOL , 51*DeathIDeservioli_mvl/mxv
 .byte   W01
 .byte   VOL , 51*DeathIDeservioli_mvl/mxv
 .byte   W01
 .byte   VOL , 51*DeathIDeservioli_mvl/mxv
 .byte   W01
 .byte   VOL , 51*DeathIDeservioli_mvl/mxv
 .byte   W01
 .byte   VOL , 51*DeathIDeservioli_mvl/mxv
 .byte   W01
 .byte   VOL , 52*DeathIDeservioli_mvl/mxv
 .byte   W01
 .byte   VOL , 52*DeathIDeservioli_mvl/mxv
 .byte   W01
 .byte   VOL , 52*DeathIDeservioli_mvl/mxv
 .byte   W01
 .byte   VOL , 52*DeathIDeservioli_mvl/mxv
 .byte   W01
@  #09 @240   ----------------------------------------
 .byte   EOT
 .byte   TIE ,Dn2 ,v088
 .byte   W96
@  #09 @241   ----------------------------------------
 .byte   W96
@  #09 @242   ----------------------------------------
 .byte   EOT
 .byte   N06 ,Cs2
 .byte   W06
 .byte   Cn2
 .byte   W06
 .byte   Bn1
 .byte   W06
 .byte   As1
 .byte   W06
 .byte   An1
 .byte   W06
 .byte   Gs1
 .byte   W06
 .byte   Gn1
 .byte   W06
 .byte   En1
 .byte   W06
 .byte   Cn1
 .byte   W06
 .byte   Gs0
 .byte   W42
@  #09 @243   ----------------------------------------
 .byte   GOTO
  .word Label_014CD462
@  #09 @244   ----------------------------------------
 .byte   W96
@  #09 @245   ----------------------------------------
 .byte   VOICE , 30
 .byte   PAN , c_v+0
 .byte   VOL , 52*DeathIDeservioli_mvl/mxv
 .byte   PAN , c_v+0
 .byte   VOL , 52*DeathIDeservioli_mvl/mxv
 .byte   PAN , c_v+0
 .byte   VOL , 52*DeathIDeservioli_mvl/mxv
 .byte   BEND , c_v+0
 .byte   FINE

@**************** Track 10 (Midi-Chn.9) ****************@

DeathIDeservioli_010:
@  #10 @000   ----------------------------------------
 .byte   KEYSH , DeathIDeservioli_key+0
 .byte   VOICE , 124
 .byte   PAN , c_v+0
 .byte   VOL , 40*DeathIDeservioli_mvl/mxv
 .byte   PAN , c_v+0
 .byte   VOL , 40*DeathIDeservioli_mvl/mxv
 .byte   PAN , c_v+0
 .byte   VOL , 40*DeathIDeservioli_mvl/mxv
 .byte   PAN , c_v+0
 .byte   VOL , 40*DeathIDeservioli_mvl/mxv
 .byte   PAN , c_v+0
 .byte   VOL , 40*DeathIDeservioli_mvl/mxv
 .byte   PAN , c_v+0
 .byte   VOL , 40*DeathIDeservioli_mvl/mxv
 .byte   PAN , c_v+0
 .byte   VOL , 40*DeathIDeservioli_mvl/mxv
 .byte   PAN , c_v+0
 .byte   VOL , 40*DeathIDeservioli_mvl/mxv
 .byte   PAN , c_v+0
 .byte   VOL , 40*DeathIDeservioli_mvl/mxv
 .byte   BEND , c_v+0
 .byte   N12 ,Cn1 ,v100
 .byte   W36
 .byte   Cn1 ,v064
 .byte   W36
 .byte   Cn1 ,v044
 .byte   W24
@  #10 @001   ----------------------------------------
 .byte   W72
 .byte   Cn1 ,v100
 .byte   W24
@  #10 @002   ----------------------------------------
Label_014CD89C:
 .byte   N12 ,Cn1 ,v100
 .byte   W12
 .byte   Cn1 ,v064
 .byte   W24
 .byte   N12
 .byte   W12
 .byte   Cn1 ,v044
 .byte   W24
 .byte   N12
 .byte   W24
 .byte   PEND 
@  #10 @003   ----------------------------------------
 .byte   W96
@  #10 @004   ----------------------------------------
 .byte   Cn1 ,v100
 .byte   W36
 .byte   Cn1 ,v064
 .byte   W36
 .byte   Cn1 ,v044
 .byte   W24
@  #10 @005   ----------------------------------------
 .byte   W72
 .byte   Cn1 ,v100
 .byte   W24
@  #10 @006   ----------------------------------------
 .byte   PATT
  .word Label_014CD89C
@  #10 @007   ----------------------------------------
 .byte   W72
 .byte   N12 ,Cn1 ,v100
 .byte   W24
@  #10 @008   ----------------------------------------
Label_014CD8C3:
 .byte   N12 ,Cn1 ,v100
 .byte   W48
 .byte   Dn1
 .byte   W48
 .byte   PEND 
@  #10 @009   ----------------------------------------
 .byte   PATT
  .word Label_014CD8C3
@  #10 @010   ----------------------------------------
 .byte   PATT
  .word Label_014CD8C3
@  #10 @011   ----------------------------------------
 .byte   PATT
  .word Label_014CD8C3
@  #10 @012   ----------------------------------------
 .byte   PATT
  .word Label_014CD8C3
@  #10 @013   ----------------------------------------
 .byte   PATT
  .word Label_014CD8C3
@  #10 @014   ----------------------------------------
 .byte   PATT
  .word Label_014CD8C3
@  #10 @015   ----------------------------------------
 .byte   PATT
  .word Label_014CD8C3
@  #10 @016   ----------------------------------------
Label_014CD8ED:
 .byte   N48 ,Cn1 ,v112
 .byte   W48
 .byte   N48
 .byte   N24 ,Dn1
 .byte   N48 ,En1
 .byte   W48
 .byte   PEND 
@  #10 @017   ----------------------------------------
 .byte   PATT
  .word Label_014CD8ED
@  #10 @018   ----------------------------------------
 .byte   PATT
  .word Label_014CD8ED
@  #10 @019   ----------------------------------------
 .byte   PATT
  .word Label_014CD8ED
@  #10 @020   ----------------------------------------
 .byte   PATT
  .word Label_014CD8ED
@  #10 @021   ----------------------------------------
 .byte   PATT
  .word Label_014CD8ED
@  #10 @022   ----------------------------------------
 .byte   PATT
  .word Label_014CD8ED
@  #10 @023   ----------------------------------------
 .byte   PATT
  .word Label_014CD8ED
@  #10 @024   ----------------------------------------
 .byte   PATT
  .word Label_014CD8ED
@  #10 @025   ----------------------------------------
 .byte   PATT
  .word Label_014CD8ED
@  #10 @026   ----------------------------------------
 .byte   PATT
  .word Label_014CD8ED
@  #10 @027   ----------------------------------------
 .byte   PATT
  .word Label_014CD8ED
@  #10 @028   ----------------------------------------
 .byte   N48 ,Cn1 ,v112
 .byte   W96
@  #10 @029   ----------------------------------------
 .byte   N48
 .byte   W96
@  #10 @030   ----------------------------------------
 .byte   N48
 .byte   W48
 .byte   N48
 .byte   W48
@  #10 @031   ----------------------------------------
 .byte   N24
 .byte   W24
 .byte   N24
 .byte   W24
 .byte   N24
 .byte   W24
 .byte   N24
 .byte   W24
@  #10 @032   ----------------------------------------
Label_014CD941:
 .byte   N48 ,Cn1 ,v112
 .byte   W24
 .byte   N24 ,Gs1 ,v100
 .byte   W24
 .byte   N48 ,Cn1 ,v112
 .byte   N24 ,Dn1
 .byte   N48 ,En1
 .byte   N24 ,Gs1 ,v068
 .byte   W24
 .byte   Gs1 ,v100
 .byte   W24
 .byte   PEND 
@  #10 @033   ----------------------------------------
 .byte   PATT
  .word Label_014CD941
@  #10 @034   ----------------------------------------
Label_014CD95D:
 .byte   N48 ,Cn1 ,v112
 .byte   W24
 .byte   N24 ,Gs1 ,v104
 .byte   W24
 .byte   N48 ,Cn1 ,v112
 .byte   N24 ,Dn1
 .byte   N48 ,En1
 .byte   N24 ,Gs1 ,v068
 .byte   W24
 .byte   Gs1 ,v104
 .byte   W24
 .byte   PEND 
@  #10 @035   ----------------------------------------
 .byte   PATT
  .word Label_014CD95D
@  #10 @036   ----------------------------------------
 .byte   PATT
  .word Label_014CD95D
@  #10 @037   ----------------------------------------
 .byte   PATT
  .word Label_014CD95D
@  #10 @038   ----------------------------------------
 .byte   PATT
  .word Label_014CD95D
@  #10 @039   ----------------------------------------
 .byte   PATT
  .word Label_014CD95D
@  #10 @040   ----------------------------------------
 .byte   PATT
  .word Label_014CD95D
@  #10 @041   ----------------------------------------
 .byte   PATT
  .word Label_014CD95D
@  #10 @042   ----------------------------------------
Label_014CD997:
 .byte   N24 ,Cn1 ,v100
 .byte   N24 ,As1
 .byte   W24
 .byte   Cn1
 .byte   N24 ,Gs1 ,v104
 .byte   W24
 .byte   N48 ,Cn1 ,v112
 .byte   N24 ,Dn1 ,v100
 .byte   N48 ,En1 ,v112
 .byte   N24 ,Gs1 ,v068
 .byte   W24
 .byte   N12 ,Bn0 ,v100
 .byte   N24 ,Gs1 ,v104
 .byte   W12
 .byte   N12 ,Dn1 ,v100
 .byte   W12
 .byte   PEND 
@  #10 @043   ----------------------------------------
Label_014CD9BB:
 .byte   N12 ,Bn0 ,v100
 .byte   N24 ,Cn1
 .byte   W12
 .byte   N12 ,Dn1
 .byte   W12
 .byte   N24 ,Cn1
 .byte   N24 ,Gs1 ,v104
 .byte   N24 ,As1 ,v100
 .byte   W24
 .byte   N48 ,Cn1 ,v112
 .byte   N24 ,Dn1 ,v100
 .byte   N48 ,En1 ,v112
 .byte   N24 ,Gs1 ,v068
 .byte   W24
 .byte   N12 ,Bn0 ,v100
 .byte   N24 ,Gs1 ,v104
 .byte   W12
 .byte   N12 ,Dn1 ,v100
 .byte   W12
 .byte   PEND 
@  #10 @044   ----------------------------------------
Label_014CD9E6:
 .byte   TIE ,Cn1 ,v100
 .byte   TIE ,En2
 .byte   W96
 .byte   PEND 
@  #10 @045   ----------------------------------------
 .byte   W96
@  #10 @046   ----------------------------------------
 .byte   W96
@  #10 @047   ----------------------------------------
 .byte   N24 ,An1 ,v127
 .byte   W24
 .byte   N24
 .byte   W24
 .byte   Fn1
 .byte   W24
 .byte   N24
 .byte   W24
@  #10 @048   ----------------------------------------
 .byte   EOT
 .byte   Cn1 ,v052
Label_014CD9FC:
 .byte   N24 ,Cn1 ,v088
 .byte   W24
 .byte   Fs1 ,v104
 .byte   W24
 .byte   Cn1 ,v096
 .byte   N24 ,Dn1 ,v092
 .byte   N24 ,En1 ,v116
 .byte   W24
 .byte   Fs1 ,v104
 .byte   W24
 .byte   PEND 
@  #10 @049   ----------------------------------------
Label_014CDA10:
 .byte   N24 ,Cn1 ,v096
 .byte   W24
 .byte   Fs1 ,v104
 .byte   W24
 .byte   Cn1 ,v096
 .byte   N24 ,Dn1 ,v092
 .byte   N24 ,En1 ,v116
 .byte   W24
 .byte   Fs1 ,v104
 .byte   W24
 .byte   PEND 
@  #10 @050   ----------------------------------------
 .byte   PATT
  .word Label_014CDA10
@  #10 @051   ----------------------------------------
 .byte   PATT
  .word Label_014CDA10
@  #10 @052   ----------------------------------------
 .byte   PATT
  .word Label_014CD9FC
@  #10 @053   ----------------------------------------
 .byte   PATT
  .word Label_014CDA10
@  #10 @054   ----------------------------------------
 .byte   PATT
  .word Label_014CDA10
@  #10 @055   ----------------------------------------
 .byte   PATT
  .word Label_014CDA10
@  #10 @056   ----------------------------------------
 .byte   PATT
  .word Label_014CD9FC
@  #10 @057   ----------------------------------------
 .byte   PATT
  .word Label_014CDA10
@  #10 @058   ----------------------------------------
 .byte   PATT
  .word Label_014CDA10
@  #10 @059   ----------------------------------------
 .byte   PATT
  .word Label_014CDA10
@  #10 @060   ----------------------------------------
 .byte   PATT
  .word Label_014CD9FC
@  #10 @061   ----------------------------------------
 .byte   PATT
  .word Label_014CDA10
@  #10 @062   ----------------------------------------
 .byte   PATT
  .word Label_014CDA10
@  #10 @063   ----------------------------------------
Label_014CDA65:
 .byte   N24 ,Cn1 ,v096
 .byte   W24
 .byte   N24
 .byte   N24 ,Fs1 ,v104
 .byte   W24
 .byte   Cn1 ,v096
 .byte   N24 ,Dn1 ,v092
 .byte   N24 ,En1 ,v116
 .byte   W24
 .byte   Cn1 ,v096
 .byte   N24 ,Fs1 ,v104
 .byte   W24
 .byte   PEND 
@  #10 @064   ----------------------------------------
 .byte   PATT
  .word Label_014CD9FC
@  #10 @065   ----------------------------------------
 .byte   PATT
  .word Label_014CDA10
@  #10 @066   ----------------------------------------
 .byte   PATT
  .word Label_014CDA10
@  #10 @067   ----------------------------------------
 .byte   PATT
  .word Label_014CDA10
@  #10 @068   ----------------------------------------
 .byte   PATT
  .word Label_014CD9FC
@  #10 @069   ----------------------------------------
 .byte   PATT
  .word Label_014CDA10
@  #10 @070   ----------------------------------------
 .byte   PATT
  .word Label_014CDA10
@  #10 @071   ----------------------------------------
 .byte   PATT
  .word Label_014CDA10
@  #10 @072   ----------------------------------------
 .byte   PATT
  .word Label_014CD9FC
@  #10 @073   ----------------------------------------
 .byte   PATT
  .word Label_014CDA10
@  #10 @074   ----------------------------------------
 .byte   PATT
  .word Label_014CDA10
@  #10 @075   ----------------------------------------
 .byte   PATT
  .word Label_014CDA10
@  #10 @076   ----------------------------------------
 .byte   N24 ,Cn1 ,v088
 .byte   W96
@  #10 @077   ----------------------------------------
 .byte   Cn1 ,v096
 .byte   W96
@  #10 @078   ----------------------------------------
 .byte   N24
 .byte   W48
 .byte   N24
 .byte   W48
@  #10 @079   ----------------------------------------
 .byte   N24
 .byte   W24
 .byte   N24
 .byte   W24
 .byte   N24
 .byte   W24
 .byte   N24
 .byte   W24
@  #10 @080   ----------------------------------------
 .byte   PATT
  .word Label_014CD9FC
@  #10 @081   ----------------------------------------
 .byte   PATT
  .word Label_014CDA10
@  #10 @082   ----------------------------------------
 .byte   PATT
  .word Label_014CDA10
@  #10 @083   ----------------------------------------
 .byte   PATT
  .word Label_014CDA10
@  #10 @084   ----------------------------------------
 .byte   PATT
  .word Label_014CD9FC
@  #10 @085   ----------------------------------------
 .byte   PATT
  .word Label_014CDA10
@  #10 @086   ----------------------------------------
 .byte   PATT
  .word Label_014CDA10
@  #10 @087   ----------------------------------------
 .byte   PATT
  .word Label_014CDA10
@  #10 @088   ----------------------------------------
 .byte   PATT
  .word Label_014CD9FC
@  #10 @089   ----------------------------------------
 .byte   PATT
  .word Label_014CDA10
@  #10 @090   ----------------------------------------
 .byte   PATT
  .word Label_014CDA10
@  #10 @091   ----------------------------------------
 .byte   PATT
  .word Label_014CDA10
@  #10 @092   ----------------------------------------
 .byte   PATT
  .word Label_014CD9FC
@  #10 @093   ----------------------------------------
 .byte   PATT
  .word Label_014CDA10
@  #10 @094   ----------------------------------------
 .byte   PATT
  .word Label_014CDA10
@  #10 @095   ----------------------------------------
 .byte   PATT
  .word Label_014CDA65
@  #10 @096   ----------------------------------------
 .byte   PATT
  .word Label_014CD9FC
@  #10 @097   ----------------------------------------
 .byte   PATT
  .word Label_014CDA10
@  #10 @098   ----------------------------------------
 .byte   PATT
  .word Label_014CDA10
@  #10 @099   ----------------------------------------
 .byte   PATT
  .word Label_014CDA10
@  #10 @100   ----------------------------------------
 .byte   PATT
  .word Label_014CD9FC
@  #10 @101   ----------------------------------------
 .byte   PATT
  .word Label_014CDA10
@  #10 @102   ----------------------------------------
 .byte   PATT
  .word Label_014CDA10
@  #10 @103   ----------------------------------------
 .byte   PATT
  .word Label_014CDA10
@  #10 @104   ----------------------------------------
 .byte   PATT
  .word Label_014CD9FC
@  #10 @105   ----------------------------------------
 .byte   PATT
  .word Label_014CDA10
@  #10 @106   ----------------------------------------
 .byte   PATT
  .word Label_014CDA10
@  #10 @107   ----------------------------------------
 .byte   PATT
  .word Label_014CDA10
@  #10 @108   ----------------------------------------
 .byte   PATT
  .word Label_014CD9FC
@  #10 @109   ----------------------------------------
 .byte   PATT
  .word Label_014CDA10
@  #10 @110   ----------------------------------------
 .byte   PATT
  .word Label_014CD997
@  #10 @111   ----------------------------------------
 .byte   PATT
  .word Label_014CD9BB
@  #10 @112   ----------------------------------------
 .byte   PATT
  .word Label_014CD9FC
@  #10 @113   ----------------------------------------
 .byte   PATT
  .word Label_014CDA10
@  #10 @114   ----------------------------------------
 .byte   PATT
  .word Label_014CDA10
@  #10 @115   ----------------------------------------
 .byte   PATT
  .word Label_014CDA10
@  #10 @116   ----------------------------------------
 .byte   PATT
  .word Label_014CD9FC
@  #10 @117   ----------------------------------------
 .byte   PATT
  .word Label_014CDA10
@  #10 @118   ----------------------------------------
 .byte   PATT
  .word Label_014CDA10
@  #10 @119   ----------------------------------------
 .byte   PATT
  .word Label_014CDA10
@  #10 @120   ----------------------------------------
 .byte   PATT
  .word Label_014CD9FC
@  #10 @121   ----------------------------------------
 .byte   PATT
  .word Label_014CDA10
@  #10 @122   ----------------------------------------
 .byte   PATT
  .word Label_014CDA10
@  #10 @123   ----------------------------------------
 .byte   PATT
  .word Label_014CDA10
@  #10 @124   ----------------------------------------
 .byte   PATT
  .word Label_014CD9FC
@  #10 @125   ----------------------------------------
 .byte   PATT
  .word Label_014CDA10
@  #10 @126   ----------------------------------------
 .byte   PATT
  .word Label_014CDA10
@  #10 @127   ----------------------------------------
 .byte   PATT
  .word Label_014CDA65
@  #10 @128   ----------------------------------------
 .byte   PATT
  .word Label_014CD9FC
@  #10 @129   ----------------------------------------
 .byte   PATT
  .word Label_014CDA10
@  #10 @130   ----------------------------------------
 .byte   PATT
  .word Label_014CDA10
@  #10 @131   ----------------------------------------
 .byte   PATT
  .word Label_014CDA10
@  #10 @132   ----------------------------------------
 .byte   PATT
  .word Label_014CD9FC
@  #10 @133   ----------------------------------------
 .byte   PATT
  .word Label_014CDA10
@  #10 @134   ----------------------------------------
 .byte   PATT
  .word Label_014CDA10
@  #10 @135   ----------------------------------------
 .byte   PATT
  .word Label_014CDA10
@  #10 @136   ----------------------------------------
 .byte   PATT
  .word Label_014CD9FC
@  #10 @137   ----------------------------------------
 .byte   PATT
  .word Label_014CDA10
@  #10 @138   ----------------------------------------
 .byte   PATT
  .word Label_014CDA10
@  #10 @139   ----------------------------------------
 .byte   PATT
  .word Label_014CDA10
@  #10 @140   ----------------------------------------
 .byte   N24 ,Cn1 ,v088
 .byte   W96
@  #10 @141   ----------------------------------------
 .byte   Cn1 ,v096
 .byte   W96
@  #10 @142   ----------------------------------------
 .byte   N24
 .byte   W96
@  #10 @143   ----------------------------------------
 .byte   W72
 .byte   N24
 .byte   W24
@  #10 @144   ----------------------------------------
 .byte   PATT
  .word Label_014CD9FC
@  #10 @145   ----------------------------------------
 .byte   PATT
  .word Label_014CDA10
@  #10 @146   ----------------------------------------
 .byte   PATT
  .word Label_014CDA10
@  #10 @147   ----------------------------------------
 .byte   PATT
  .word Label_014CDA10
@  #10 @148   ----------------------------------------
 .byte   PATT
  .word Label_014CD9FC
@  #10 @149   ----------------------------------------
 .byte   PATT
  .word Label_014CDA10
@  #10 @150   ----------------------------------------
 .byte   PATT
  .word Label_014CDA10
@  #10 @151   ----------------------------------------
 .byte   PATT
  .word Label_014CDA10
@  #10 @152   ----------------------------------------
 .byte   PATT
  .word Label_014CD9FC
@  #10 @153   ----------------------------------------
 .byte   PATT
  .word Label_014CDA10
@  #10 @154   ----------------------------------------
 .byte   PATT
  .word Label_014CDA10
@  #10 @155   ----------------------------------------
 .byte   PATT
  .word Label_014CDA10
@  #10 @156   ----------------------------------------
 .byte   PATT
  .word Label_014CD9FC
@  #10 @157   ----------------------------------------
 .byte   PATT
  .word Label_014CDA10
@  #10 @158   ----------------------------------------
 .byte   PATT
  .word Label_014CDA10
@  #10 @159   ----------------------------------------
 .byte   PATT
  .word Label_014CDA65
@  #10 @160   ----------------------------------------
 .byte   PATT
  .word Label_014CD9FC
@  #10 @161   ----------------------------------------
 .byte   PATT
  .word Label_014CDA10
@  #10 @162   ----------------------------------------
 .byte   PATT
  .word Label_014CDA10
@  #10 @163   ----------------------------------------
 .byte   PATT
  .word Label_014CDA10
@  #10 @164   ----------------------------------------
 .byte   PATT
  .word Label_014CD9FC
@  #10 @165   ----------------------------------------
 .byte   PATT
  .word Label_014CDA10
@  #10 @166   ----------------------------------------
 .byte   PATT
  .word Label_014CDA10
@  #10 @167   ----------------------------------------
 .byte   PATT
  .word Label_014CDA10
@  #10 @168   ----------------------------------------
 .byte   PATT
  .word Label_014CD9FC
@  #10 @169   ----------------------------------------
 .byte   PATT
  .word Label_014CDA10
@  #10 @170   ----------------------------------------
 .byte   PATT
  .word Label_014CDA10
@  #10 @171   ----------------------------------------
 .byte   PATT
  .word Label_014CDA10
@  #10 @172   ----------------------------------------
 .byte   PATT
  .word Label_014CD9FC
@  #10 @173   ----------------------------------------
 .byte   PATT
  .word Label_014CDA10
@  #10 @174   ----------------------------------------
 .byte   PATT
  .word Label_014CD997
@  #10 @175   ----------------------------------------
 .byte   PATT
  .word Label_014CD9BB
@  #10 @176   ----------------------------------------
 .byte   PATT
  .word Label_014CD9FC
@  #10 @177   ----------------------------------------
 .byte   PATT
  .word Label_014CDA10
@  #10 @178   ----------------------------------------
 .byte   PATT
  .word Label_014CDA10
@  #10 @179   ----------------------------------------
 .byte   PATT
  .word Label_014CDA10
@  #10 @180   ----------------------------------------
 .byte   PATT
  .word Label_014CD9FC
@  #10 @181   ----------------------------------------
 .byte   PATT
  .word Label_014CDA10
@  #10 @182   ----------------------------------------
 .byte   PATT
  .word Label_014CDA10
@  #10 @183   ----------------------------------------
 .byte   PATT
  .word Label_014CDA10
@  #10 @184   ----------------------------------------
 .byte   PATT
  .word Label_014CD9FC
@  #10 @185   ----------------------------------------
 .byte   PATT
  .word Label_014CDA10
@  #10 @186   ----------------------------------------
 .byte   PATT
  .word Label_014CDA10
@  #10 @187   ----------------------------------------
 .byte   PATT
  .word Label_014CDA10
@  #10 @188   ----------------------------------------
 .byte   PATT
  .word Label_014CD9FC
@  #10 @189   ----------------------------------------
 .byte   PATT
  .word Label_014CDA10
@  #10 @190   ----------------------------------------
 .byte   PATT
  .word Label_014CDA10
@  #10 @191   ----------------------------------------
 .byte   PATT
  .word Label_014CDA10
@  #10 @192   ----------------------------------------
 .byte   PATT
  .word Label_014CD9FC
@  #10 @193   ----------------------------------------
 .byte   PATT
  .word Label_014CDA10
@  #10 @194   ----------------------------------------
 .byte   PATT
  .word Label_014CDA10
@  #10 @195   ----------------------------------------
 .byte   PATT
  .word Label_014CDA10
@  #10 @196   ----------------------------------------
 .byte   PATT
  .word Label_014CD9FC
@  #10 @197   ----------------------------------------
 .byte   PATT
  .word Label_014CDA10
@  #10 @198   ----------------------------------------
 .byte   PATT
  .word Label_014CDA10
@  #10 @199   ----------------------------------------
 .byte   PATT
  .word Label_014CDA10
@  #10 @200   ----------------------------------------
 .byte   PATT
  .word Label_014CD9FC
@  #10 @201   ----------------------------------------
 .byte   PATT
  .word Label_014CDA10
@  #10 @202   ----------------------------------------
 .byte   PATT
  .word Label_014CDA10
@  #10 @203   ----------------------------------------
 .byte   PATT
  .word Label_014CDA10
@  #10 @204   ----------------------------------------
 .byte   PATT
  .word Label_014CD9FC
@  #10 @205   ----------------------------------------
 .byte   PATT
  .word Label_014CDA10
@  #10 @206   ----------------------------------------
 .byte   PATT
  .word Label_014CDA10
@  #10 @207   ----------------------------------------
 .byte   PATT
  .word Label_014CDA10
@  #10 @208   ----------------------------------------
 .byte   PATT
  .word Label_014CD9FC
@  #10 @209   ----------------------------------------
 .byte   PATT
  .word Label_014CDA10
@  #10 @210   ----------------------------------------
 .byte   PATT
  .word Label_014CDA10
@  #10 @211   ----------------------------------------
 .byte   PATT
  .word Label_014CDA10
@  #10 @212   ----------------------------------------
 .byte   PATT
  .word Label_014CD9FC
@  #10 @213   ----------------------------------------
 .byte   PATT
  .word Label_014CDA10
@  #10 @214   ----------------------------------------
 .byte   PATT
  .word Label_014CDA10
@  #10 @215   ----------------------------------------
 .byte   PATT
  .word Label_014CDA10
@  #10 @216   ----------------------------------------
 .byte   PATT
  .word Label_014CD9FC
@  #10 @217   ----------------------------------------
 .byte   PATT
  .word Label_014CDA10
@  #10 @218   ----------------------------------------
 .byte   PATT
  .word Label_014CDA10
@  #10 @219   ----------------------------------------
 .byte   PATT
  .word Label_014CDA10
@  #10 @220   ----------------------------------------
 .byte   PATT
  .word Label_014CD9FC
@  #10 @221   ----------------------------------------
 .byte   PATT
  .word Label_014CDA10
@  #10 @222   ----------------------------------------
 .byte   PATT
  .word Label_014CDA10
@  #10 @223   ----------------------------------------
 .byte   PATT
  .word Label_014CDA10
@  #10 @224   ----------------------------------------
 .byte   PATT
  .word Label_014CD9FC
@  #10 @225   ----------------------------------------
 .byte   PATT
  .word Label_014CDA10
@  #10 @226   ----------------------------------------
 .byte   PATT
  .word Label_014CDA10
@  #10 @227   ----------------------------------------
 .byte   PATT
  .word Label_014CDA10
@  #10 @228   ----------------------------------------
 .byte   PATT
  .word Label_014CD9FC
@  #10 @229   ----------------------------------------
 .byte   PATT
  .word Label_014CDA10
@  #10 @230   ----------------------------------------
 .byte   PATT
  .word Label_014CDA10
@  #10 @231   ----------------------------------------
 .byte   PATT
  .word Label_014CDA10
@  #10 @232   ----------------------------------------
 .byte   PATT
  .word Label_014CD9FC
@  #10 @233   ----------------------------------------
 .byte   PATT
  .word Label_014CDA10
@  #10 @234   ----------------------------------------
 .byte   N24 ,Cn1 ,v100
 .byte   N24 ,As1
 .byte   W24
 .byte   Cn1
 .byte   N24 ,Gs1 ,v104
 .byte   W24
 .byte   Cn1 ,v096
 .byte   N24 ,Dn1 ,v092
 .byte   N24 ,En1 ,v116
 .byte   N24 ,Gs1 ,v068
 .byte   W24
 .byte   N12 ,Bn0 ,v100
 .byte   N24 ,Gs1 ,v104
 .byte   W12
 .byte   N12 ,Dn1 ,v100
 .byte   W12
@  #10 @235   ----------------------------------------
 .byte   Bn0
 .byte   N24 ,Cn1
 .byte   W12
 .byte   N12 ,Dn1
 .byte   W12
 .byte   N24 ,Cn1
 .byte   N24 ,Gs1 ,v104
 .byte   N24 ,As1 ,v100
 .byte   W24
 .byte   Cn1 ,v096
 .byte   N24 ,Dn1 ,v092
 .byte   N24 ,En1 ,v116
 .byte   N24 ,Gs1 ,v068
 .byte   W24
 .byte   N12 ,Bn0 ,v100
 .byte   N24 ,Gs1 ,v104
 .byte   W12
 .byte   N12 ,Dn1 ,v100
 .byte   W12
@  #10 @236   ----------------------------------------
 .byte   PATT
  .word Label_014CD9E6
@  #10 @237   ----------------------------------------
 .byte   W96
@  #10 @238   ----------------------------------------
 .byte   W96
@  #10 @239   ----------------------------------------
 .byte   EOT
 .byte   Cn1 ,v052
 .byte   W96
@  #10 @240   ----------------------------------------
 .byte   W96
@  #10 @241   ----------------------------------------
 .byte   W96
@  #10 @242   ----------------------------------------
 .byte   W96
@  #10 @243   ----------------------------------------
 .byte   GOTO
  .word Label_014CD9FC
@  #10 @244   ----------------------------------------
 .byte   W96
@  #10 @245   ----------------------------------------
 .byte   PAN , c_v+0
 .byte   VOL , 40*DeathIDeservioli_mvl/mxv
 .byte   PAN , c_v+0
 .byte   VOL , 40*DeathIDeservioli_mvl/mxv
 .byte   PAN , c_v+0
 .byte   VOL , 40*DeathIDeservioli_mvl/mxv
 .byte   PAN , c_v+0
 .byte   VOL , 40*DeathIDeservioli_mvl/mxv
 .byte   PAN , c_v+0
 .byte   VOL , 40*DeathIDeservioli_mvl/mxv
 .byte   PAN , c_v+0
 .byte   VOL , 40*DeathIDeservioli_mvl/mxv
 .byte   PAN , c_v+0
 .byte   VOL , 40*DeathIDeservioli_mvl/mxv
 .byte   PAN , c_v+0
 .byte   VOL , 40*DeathIDeservioli_mvl/mxv
 .byte   PAN , c_v+0
 .byte   VOL , 40*DeathIDeservioli_mvl/mxv
 .byte   BEND , c_v+0
 .byte   FINE

@**************** Track 11 (Midi-Chn.10) ****************@

DeathIDeservioli_011:
@  #11 @000   ----------------------------------------
 .byte   KEYSH , DeathIDeservioli_key+0
 .byte   VOICE , 119
 .byte   PAN , c_v+0
 .byte   VOL , 40*DeathIDeservioli_mvl/mxv
 .byte   PAN , c_v+0
 .byte   VOL , 40*DeathIDeservioli_mvl/mxv
 .byte   PAN , c_v+0
 .byte   VOL , 40*DeathIDeservioli_mvl/mxv
 .byte   BEND , c_v+0
 .byte   W96
@  #11 @001   ----------------------------------------
 .byte   W96
@  #11 @002   ----------------------------------------
 .byte   W96
@  #11 @003   ----------------------------------------
 .byte   W96
@  #11 @004   ----------------------------------------
 .byte   W96
@  #11 @005   ----------------------------------------
 .byte   W96
@  #11 @006   ----------------------------------------
 .byte   W96
@  #11 @007   ----------------------------------------
 .byte   W96
@  #11 @008   ----------------------------------------
 .byte   W96
@  #11 @009   ----------------------------------------
 .byte   W96
@  #11 @010   ----------------------------------------
 .byte   W96
@  #11 @011   ----------------------------------------
 .byte   W96
@  #11 @012   ----------------------------------------
 .byte   W96
@  #11 @013   ----------------------------------------
 .byte   W96
@  #11 @014   ----------------------------------------
 .byte   TIE ,Cs2 ,v127
 .byte   W96
@  #11 @015   ----------------------------------------
 .byte   W96
@  #11 @016   ----------------------------------------
 .byte   EOT
 .byte   W96
@  #11 @017   ----------------------------------------
 .byte   W96
@  #11 @018   ----------------------------------------
 .byte   W96
@  #11 @019   ----------------------------------------
 .byte   W96
@  #11 @020   ----------------------------------------
 .byte   W96
@  #11 @021   ----------------------------------------
 .byte   W96
@  #11 @022   ----------------------------------------
 .byte   W96
@  #11 @023   ----------------------------------------
 .byte   W96
@  #11 @024   ----------------------------------------
 .byte   W96
@  #11 @025   ----------------------------------------
 .byte   W96
@  #11 @026   ----------------------------------------
 .byte   W96
@  #11 @027   ----------------------------------------
 .byte   W96
@  #11 @028   ----------------------------------------
 .byte   W96
@  #11 @029   ----------------------------------------
 .byte   W96
@  #11 @030   ----------------------------------------
 .byte   W96
@  #11 @031   ----------------------------------------
 .byte   W96
@  #11 @032   ----------------------------------------
 .byte   W96
@  #11 @033   ----------------------------------------
 .byte   W96
@  #11 @034   ----------------------------------------
 .byte   W96
@  #11 @035   ----------------------------------------
 .byte   W96
@  #11 @036   ----------------------------------------
 .byte   W96
@  #11 @037   ----------------------------------------
 .byte   W96
@  #11 @038   ----------------------------------------
 .byte   W96
@  #11 @039   ----------------------------------------
 .byte   W96
@  #11 @040   ----------------------------------------
 .byte   W96
@  #11 @041   ----------------------------------------
 .byte   W96
@  #11 @042   ----------------------------------------
 .byte   W96
@  #11 @043   ----------------------------------------
 .byte   W96
@  #11 @044   ----------------------------------------
 .byte   W96
@  #11 @045   ----------------------------------------
 .byte   W96
@  #11 @046   ----------------------------------------
 .byte   TIE
 .byte   W96
@  #11 @047   ----------------------------------------
 .byte   W96
@  #11 @048   ----------------------------------------
 .byte   EOT
Label_014C8830:
 .byte   W96
@  #11 @049   ----------------------------------------
 .byte   W96
@  #11 @050   ----------------------------------------
 .byte   W96
@  #11 @051   ----------------------------------------
 .byte   W96
@  #11 @052   ----------------------------------------
 .byte   W96
@  #11 @053   ----------------------------------------
 .byte   W96
@  #11 @054   ----------------------------------------
 .byte   W96
@  #11 @055   ----------------------------------------
 .byte   W96
@  #11 @056   ----------------------------------------
 .byte   W96
@  #11 @057   ----------------------------------------
 .byte   W96
@  #11 @058   ----------------------------------------
 .byte   W96
@  #11 @059   ----------------------------------------
 .byte   W96
@  #11 @060   ----------------------------------------
 .byte   W96
@  #11 @061   ----------------------------------------
 .byte   W96
@  #11 @062   ----------------------------------------
 .byte   W96
@  #11 @063   ----------------------------------------
 .byte   W96
@  #11 @064   ----------------------------------------
 .byte   W96
@  #11 @065   ----------------------------------------
 .byte   W96
@  #11 @066   ----------------------------------------
 .byte   W96
@  #11 @067   ----------------------------------------
 .byte   W96
@  #11 @068   ----------------------------------------
 .byte   W96
@  #11 @069   ----------------------------------------
 .byte   W96
@  #11 @070   ----------------------------------------
 .byte   W96
@  #11 @071   ----------------------------------------
 .byte   W96
@  #11 @072   ----------------------------------------
 .byte   W96
@  #11 @073   ----------------------------------------
 .byte   W96
@  #11 @074   ----------------------------------------
 .byte   W96
@  #11 @075   ----------------------------------------
 .byte   W96
@  #11 @076   ----------------------------------------
 .byte   W96
@  #11 @077   ----------------------------------------
 .byte   W96
@  #11 @078   ----------------------------------------
 .byte   TIE ,Cs2 ,v127
 .byte   W96
@  #11 @079   ----------------------------------------
 .byte   W96
@  #11 @080   ----------------------------------------
 .byte   EOT
 .byte   W96
@  #11 @081   ----------------------------------------
 .byte   W96
@  #11 @082   ----------------------------------------
 .byte   W96
@  #11 @083   ----------------------------------------
 .byte   W96
@  #11 @084   ----------------------------------------
 .byte   W96
@  #11 @085   ----------------------------------------
 .byte   W96
@  #11 @086   ----------------------------------------
 .byte   W96
@  #11 @087   ----------------------------------------
 .byte   W96
@  #11 @088   ----------------------------------------
 .byte   W96
@  #11 @089   ----------------------------------------
 .byte   W96
@  #11 @090   ----------------------------------------
 .byte   W96
@  #11 @091   ----------------------------------------
 .byte   W96
@  #11 @092   ----------------------------------------
 .byte   W96
@  #11 @093   ----------------------------------------
 .byte   W96
@  #11 @094   ----------------------------------------
 .byte   W96
@  #11 @095   ----------------------------------------
 .byte   W96
@  #11 @096   ----------------------------------------
 .byte   W96
@  #11 @097   ----------------------------------------
 .byte   W96
@  #11 @098   ----------------------------------------
 .byte   W96
@  #11 @099   ----------------------------------------
 .byte   W96
@  #11 @100   ----------------------------------------
 .byte   W96
@  #11 @101   ----------------------------------------
 .byte   W96
@  #11 @102   ----------------------------------------
 .byte   W96
@  #11 @103   ----------------------------------------
 .byte   W96
@  #11 @104   ----------------------------------------
 .byte   W96
@  #11 @105   ----------------------------------------
 .byte   W96
@  #11 @106   ----------------------------------------
 .byte   W96
@  #11 @107   ----------------------------------------
 .byte   W96
@  #11 @108   ----------------------------------------
 .byte   W96
@  #11 @109   ----------------------------------------
 .byte   W96
@  #11 @110   ----------------------------------------
 .byte   W96
@  #11 @111   ----------------------------------------
 .byte   W96
@  #11 @112   ----------------------------------------
 .byte   W96
@  #11 @113   ----------------------------------------
 .byte   W96
@  #11 @114   ----------------------------------------
 .byte   W96
@  #11 @115   ----------------------------------------
 .byte   W96
@  #11 @116   ----------------------------------------
 .byte   W96
@  #11 @117   ----------------------------------------
 .byte   W96
@  #11 @118   ----------------------------------------
 .byte   W96
@  #11 @119   ----------------------------------------
 .byte   W96
@  #11 @120   ----------------------------------------
 .byte   W96
@  #11 @121   ----------------------------------------
 .byte   W96
@  #11 @122   ----------------------------------------
 .byte   W96
@  #11 @123   ----------------------------------------
 .byte   W96
@  #11 @124   ----------------------------------------
 .byte   W96
@  #11 @125   ----------------------------------------
 .byte   W96
@  #11 @126   ----------------------------------------
 .byte   W96
@  #11 @127   ----------------------------------------
 .byte   W96
@  #11 @128   ----------------------------------------
 .byte   W96
@  #11 @129   ----------------------------------------
 .byte   W96
@  #11 @130   ----------------------------------------
 .byte   W96
@  #11 @131   ----------------------------------------
 .byte   W96
@  #11 @132   ----------------------------------------
 .byte   W96
@  #11 @133   ----------------------------------------
 .byte   W96
@  #11 @134   ----------------------------------------
 .byte   W96
@  #11 @135   ----------------------------------------
 .byte   W96
@  #11 @136   ----------------------------------------
 .byte   W96
@  #11 @137   ----------------------------------------
 .byte   W96
@  #11 @138   ----------------------------------------
 .byte   W96
@  #11 @139   ----------------------------------------
 .byte   W96
@  #11 @140   ----------------------------------------
 .byte   W96
@  #11 @141   ----------------------------------------
 .byte   W96
@  #11 @142   ----------------------------------------
 .byte   W96
@  #11 @143   ----------------------------------------
 .byte   W96
@  #11 @144   ----------------------------------------
 .byte   W96
@  #11 @145   ----------------------------------------
 .byte   W96
@  #11 @146   ----------------------------------------
 .byte   W96
@  #11 @147   ----------------------------------------
 .byte   W96
@  #11 @148   ----------------------------------------
 .byte   W96
@  #11 @149   ----------------------------------------
 .byte   W96
@  #11 @150   ----------------------------------------
 .byte   W96
@  #11 @151   ----------------------------------------
 .byte   W96
@  #11 @152   ----------------------------------------
 .byte   W96
@  #11 @153   ----------------------------------------
 .byte   W96
@  #11 @154   ----------------------------------------
 .byte   W96
@  #11 @155   ----------------------------------------
 .byte   W96
@  #11 @156   ----------------------------------------
 .byte   W96
@  #11 @157   ----------------------------------------
 .byte   W96
@  #11 @158   ----------------------------------------
 .byte   W96
@  #11 @159   ----------------------------------------
 .byte   W96
@  #11 @160   ----------------------------------------
 .byte   W96
@  #11 @161   ----------------------------------------
 .byte   W96
@  #11 @162   ----------------------------------------
 .byte   W96
@  #11 @163   ----------------------------------------
 .byte   W96
@  #11 @164   ----------------------------------------
 .byte   W96
@  #11 @165   ----------------------------------------
 .byte   W96
@  #11 @166   ----------------------------------------
 .byte   W96
@  #11 @167   ----------------------------------------
 .byte   W96
@  #11 @168   ----------------------------------------
 .byte   W96
@  #11 @169   ----------------------------------------
 .byte   W96
@  #11 @170   ----------------------------------------
 .byte   W96
@  #11 @171   ----------------------------------------
 .byte   W96
@  #11 @172   ----------------------------------------
 .byte   W96
@  #11 @173   ----------------------------------------
 .byte   W96
@  #11 @174   ----------------------------------------
 .byte   W96
@  #11 @175   ----------------------------------------
 .byte   W96
@  #11 @176   ----------------------------------------
 .byte   W96
@  #11 @177   ----------------------------------------
 .byte   W96
@  #11 @178   ----------------------------------------
 .byte   W96
@  #11 @179   ----------------------------------------
 .byte   W96
@  #11 @180   ----------------------------------------
 .byte   W96
@  #11 @181   ----------------------------------------
 .byte   W96
@  #11 @182   ----------------------------------------
 .byte   W96
@  #11 @183   ----------------------------------------
 .byte   W96
@  #11 @184   ----------------------------------------
 .byte   W96
@  #11 @185   ----------------------------------------
 .byte   W96
@  #11 @186   ----------------------------------------
 .byte   W96
@  #11 @187   ----------------------------------------
 .byte   W96
@  #11 @188   ----------------------------------------
 .byte   W96
@  #11 @189   ----------------------------------------
 .byte   W96
@  #11 @190   ----------------------------------------
 .byte   W96
@  #11 @191   ----------------------------------------
 .byte   W96
@  #11 @192   ----------------------------------------
 .byte   W96
@  #11 @193   ----------------------------------------
 .byte   W96
@  #11 @194   ----------------------------------------
 .byte   W96
@  #11 @195   ----------------------------------------
 .byte   W96
@  #11 @196   ----------------------------------------
 .byte   W96
@  #11 @197   ----------------------------------------
 .byte   W96
@  #11 @198   ----------------------------------------
 .byte   W96
@  #11 @199   ----------------------------------------
 .byte   W96
@  #11 @200   ----------------------------------------
 .byte   W96
@  #11 @201   ----------------------------------------
 .byte   W96
@  #11 @202   ----------------------------------------
 .byte   W96
@  #11 @203   ----------------------------------------
 .byte   W96
@  #11 @204   ----------------------------------------
 .byte   W96
@  #11 @205   ----------------------------------------
 .byte   W96
@  #11 @206   ----------------------------------------
 .byte   W96
@  #11 @207   ----------------------------------------
 .byte   W96
@  #11 @208   ----------------------------------------
 .byte   W96
@  #11 @209   ----------------------------------------
 .byte   W96
@  #11 @210   ----------------------------------------
 .byte   W96
@  #11 @211   ----------------------------------------
 .byte   W96
@  #11 @212   ----------------------------------------
 .byte   W96
@  #11 @213   ----------------------------------------
 .byte   W96
@  #11 @214   ----------------------------------------
 .byte   W96
@  #11 @215   ----------------------------------------
 .byte   W96
@  #11 @216   ----------------------------------------
 .byte   W96
@  #11 @217   ----------------------------------------
 .byte   W96
@  #11 @218   ----------------------------------------
 .byte   W96
@  #11 @219   ----------------------------------------
 .byte   W96
@  #11 @220   ----------------------------------------
 .byte   W96
@  #11 @221   ----------------------------------------
 .byte   W96
@  #11 @222   ----------------------------------------
 .byte   W96
@  #11 @223   ----------------------------------------
 .byte   W96
@  #11 @224   ----------------------------------------
 .byte   W96
@  #11 @225   ----------------------------------------
 .byte   W96
@  #11 @226   ----------------------------------------
 .byte   W96
@  #11 @227   ----------------------------------------
 .byte   W96
@  #11 @228   ----------------------------------------
 .byte   W96
@  #11 @229   ----------------------------------------
 .byte   W96
@  #11 @230   ----------------------------------------
 .byte   W96
@  #11 @231   ----------------------------------------
 .byte   W96
@  #11 @232   ----------------------------------------
 .byte   W96
@  #11 @233   ----------------------------------------
 .byte   W96
@  #11 @234   ----------------------------------------
 .byte   W96
@  #11 @235   ----------------------------------------
 .byte   W96
@  #11 @236   ----------------------------------------
 .byte   W96
@  #11 @237   ----------------------------------------
 .byte   W96
@  #11 @238   ----------------------------------------
 .byte   TIE
 .byte   W96
@  #11 @239   ----------------------------------------
 .byte   W96
@  #11 @240   ----------------------------------------
 .byte   EOT
 .byte   W96
@  #11 @241   ----------------------------------------
 .byte   W96
@  #11 @242   ----------------------------------------
 .byte   W96
@  #11 @243   ----------------------------------------
 .byte   GOTO
  .word Label_014C8830
@  #11 @244   ----------------------------------------
 .byte   W96
@  #11 @245   ----------------------------------------
 .byte   VOICE , 119
 .byte   PAN , c_v+0
 .byte   VOL , 40*DeathIDeservioli_mvl/mxv
 .byte   PAN , c_v+0
 .byte   VOL , 40*DeathIDeservioli_mvl/mxv
 .byte   PAN , c_v+0
 .byte   VOL , 40*DeathIDeservioli_mvl/mxv
 .byte   BEND , c_v+0
 .byte   FINE

@******************************************************@
	.align	2

DeathIDeservioli:
	.byte	11	@ NumTrks
	.byte	0	@ NumBlks
	.byte	DeathIDeservioli_pri	@ Priority
	.byte	DeathIDeservioli_rev	@ Reverb.
    
	.word	DeathIDeservioli_grp
    
	.word	DeathIDeservioli_001
	.word	DeathIDeservioli_002
	.word	DeathIDeservioli_003
	.word	DeathIDeservioli_004
	.word	DeathIDeservioli_005
	.word	DeathIDeservioli_006
	.word	DeathIDeservioli_007
	.word	DeathIDeservioli_008
	.word	DeathIDeservioli_009
	.word	DeathIDeservioli_010
	.word	DeathIDeservioli_011

	.end
