	.include "MPlayDef.s"

	.equ	EleventhHour_grp, voicegroup000
	.equ	EleventhHour_pri, 0
	.equ	EleventhHour_rev, 0
	.equ	EleventhHour_mvl, 127
	.equ	EleventhHour_key, 0
	.equ	EleventhHour_tbs, 1
	.equ	EleventhHour_exg, 0
	.equ	EleventhHour_cmp, 1

	.section .rodata
	.global	EleventhHour
	.align	2


@**************** Track 1 (Midi-Chn.0) ****************@

EleventhHour_001:
@  #01 @000   ----------------------------------------
 .byte   KEYSH , EleventhHour_key+0
 .byte   TEMPO , 102*EleventhHour_tbs/2
 .byte   VOICE , 100
 .byte   VOL , 68*EleventhHour_mvl/mxv
 .byte   N12 ,Fs3 ,v052
 .byte   W12
 .byte   N24 ,Cs4
 .byte   W24
 .byte   N12 ,Dn4
 .byte   W12
 .byte   N24 ,Cs4
 .byte   W24
 .byte   Fs3
 .byte   W24
@  #01 @001   ----------------------------------------
 .byte   N12 ,En3
 .byte   W12
 .byte   N24 ,Cs4
 .byte   W24
 .byte   N12 ,Dn4
 .byte   W12
 .byte   N24 ,En4
 .byte   W24
 .byte   En3
 .byte   W24
@  #01 @002   ----------------------------------------
 .byte   N12 ,Dn3
 .byte   W12
 .byte   N24 ,Cs4
 .byte   W24
 .byte   N12 ,Dn4
 .byte   W12
 .byte   N24 ,Cs4
 .byte   W24
 .byte   Fs3
 .byte   W24
@  #01 @003   ----------------------------------------
 .byte   N12 ,Cs3
 .byte   W12
 .byte   N24 ,Cs4
 .byte   W24
 .byte   N12 ,Dn4
 .byte   W12
 .byte   N24 ,En4
 .byte   W48
@  #01 @004   ----------------------------------------
 .byte   W96
@  #01 @005   ----------------------------------------
 .byte   W96
@  #01 @006   ----------------------------------------
 .byte   W96
@  #01 @007   ----------------------------------------
 .byte   W96
@  #01 @008   ----------------------------------------
Label_0178751F:
 .byte   N03 ,Bn2 ,v052
 .byte   W12
 .byte   Fs3
 .byte   W24
 .byte   Gn3
 .byte   W12
 .byte   Fs3
 .byte   W24
 .byte   Bn2
 .byte   W24
 .byte   PEND 
@  #01 @009   ----------------------------------------
Label_0178752C:
 .byte   N03 ,An2 ,v052
 .byte   W12
 .byte   Fs3
 .byte   W24
 .byte   Gn3
 .byte   W12
 .byte   An3
 .byte   W24
 .byte   An2
 .byte   W24
 .byte   PEND 
@  #01 @010   ----------------------------------------
Label_01787539:
 .byte   N03 ,Gn2 ,v052
 .byte   W12
 .byte   Fs3
 .byte   W24
 .byte   Gn3
 .byte   W12
 .byte   Fs3
 .byte   W24
 .byte   Bn2
 .byte   W24
 .byte   PEND 
@  #01 @011   ----------------------------------------
Label_01787546:
 .byte   N03 ,Fs2 ,v052
 .byte   W12
 .byte   Fs3
 .byte   W24
 .byte   Gn3
 .byte   W12
 .byte   An3
 .byte   W48
 .byte   PEND 
@  #01 @012   ----------------------------------------
 .byte   PATT
  .word Label_0178751F
@  #01 @013   ----------------------------------------
 .byte   PATT
  .word Label_0178752C
@  #01 @014   ----------------------------------------
 .byte   PATT
  .word Label_01787539
@  #01 @015   ----------------------------------------
 .byte   PATT
  .word Label_01787546
@  #01 @016   ----------------------------------------
 .byte   PATT
  .word Label_0178751F
@  #01 @017   ----------------------------------------
 .byte   PATT
  .word Label_0178752C
@  #01 @018   ----------------------------------------
 .byte   PATT
  .word Label_01787539
@  #01 @019   ----------------------------------------
 .byte   PATT
  .word Label_01787546
@  #01 @020   ----------------------------------------
 .byte   PATT
  .word Label_0178751F
@  #01 @021   ----------------------------------------
 .byte   PATT
  .word Label_0178752C
@  #01 @022   ----------------------------------------
 .byte   PATT
  .word Label_01787539
@  #01 @023   ----------------------------------------
 .byte   PATT
  .word Label_01787546
@  #01 @024   ----------------------------------------
 .byte   W96
@  #01 @025   ----------------------------------------
 .byte   W96
@  #01 @026   ----------------------------------------
 .byte   W96
@  #01 @027   ----------------------------------------
 .byte   W96
@  #01 @028   ----------------------------------------
 .byte   W96
@  #01 @029   ----------------------------------------
 .byte   W96
@  #01 @030   ----------------------------------------
 .byte   W96
@  #01 @031   ----------------------------------------
 .byte   W96
@  #01 @032   ----------------------------------------
 .byte   W96
@  #01 @033   ----------------------------------------
 .byte   W96
@  #01 @034   ----------------------------------------
 .byte   W96
@  #01 @035   ----------------------------------------
 .byte   W96
@  #01 @036   ----------------------------------------
 .byte   PATT
  .word Label_0178751F
@  #01 @037   ----------------------------------------
 .byte   PATT
  .word Label_0178752C
@  #01 @038   ----------------------------------------
 .byte   PATT
  .word Label_01787539
@  #01 @039   ----------------------------------------
 .byte   PATT
  .word Label_01787546
@  #01 @040   ----------------------------------------
 .byte   PATT
  .word Label_0178751F
@  #01 @041   ----------------------------------------
 .byte   PATT
  .word Label_0178752C
@  #01 @042   ----------------------------------------
 .byte   PATT
  .word Label_01787539
@  #01 @043   ----------------------------------------
 .byte   PATT
  .word Label_01787546
@  #01 @044   ----------------------------------------
 .byte   W96
@  #01 @045   ----------------------------------------
 .byte   W96
@  #01 @046   ----------------------------------------
 .byte   W96
@  #01 @047   ----------------------------------------
 .byte   W96
@  #01 @048   ----------------------------------------
 .byte   W96
@  #01 @049   ----------------------------------------
 .byte   W96
@  #01 @050   ----------------------------------------
 .byte   W96
@  #01 @051   ----------------------------------------
 .byte   W96
@  #01 @052   ----------------------------------------
Label_017875C9:
 .byte   W96
@  #01 @053   ----------------------------------------
 .byte   W96
@  #01 @054   ----------------------------------------
 .byte   W96
@  #01 @055   ----------------------------------------
 .byte   W96
@  #01 @056   ----------------------------------------
 .byte   W96
@  #01 @057   ----------------------------------------
 .byte   W96
@  #01 @058   ----------------------------------------
 .byte   W96
@  #01 @059   ----------------------------------------
 .byte   W96
@  #01 @060   ----------------------------------------
 .byte   PATT
  .word Label_0178751F
@  #01 @061   ----------------------------------------
 .byte   PATT
  .word Label_0178752C
@  #01 @062   ----------------------------------------
 .byte   PATT
  .word Label_01787539
@  #01 @063   ----------------------------------------
 .byte   PATT
  .word Label_01787546
@  #01 @064   ----------------------------------------
 .byte   PATT
  .word Label_0178751F
@  #01 @065   ----------------------------------------
 .byte   PATT
  .word Label_0178752C
@  #01 @066   ----------------------------------------
 .byte   PATT
  .word Label_01787539
@  #01 @067   ----------------------------------------
 .byte   PATT
  .word Label_01787546
@  #01 @068   ----------------------------------------
 .byte   W96
@  #01 @069   ----------------------------------------
 .byte   W96
@  #01 @070   ----------------------------------------
 .byte   W96
@  #01 @071   ----------------------------------------
 .byte   W96
@  #01 @072   ----------------------------------------
 .byte   W96
@  #01 @073   ----------------------------------------
 .byte   W96
@  #01 @074   ----------------------------------------
 .byte   W96
@  #01 @075   ----------------------------------------
 .byte   W96
@  #01 @076   ----------------------------------------
 .byte   GOTO
  .word Label_017875C9
@  #01 @077   ----------------------------------------
 .byte   W96
@  #01 @078   ----------------------------------------
 .byte   W96
 .byte   FINE

@**************** Track 2 (Midi-Chn.1) ****************@

EleventhHour_002:
@  #02 @000   ----------------------------------------
 .byte   VOL , 70*EleventhHour_mvl/mxv
 .byte   KEYSH , EleventhHour_key+0
 .byte   VOICE , 38
 .byte   W96
@  #02 @001   ----------------------------------------
 .byte   W96
@  #02 @002   ----------------------------------------
 .byte   W96
@  #02 @003   ----------------------------------------
 .byte   W96
@  #02 @004   ----------------------------------------
Label_015D6046:
 .byte   N24 ,Bn0 ,v012
 .byte   W72
 .byte   N24
 .byte   W24
 .byte   PEND 
@  #02 @005   ----------------------------------------
Label_015D604D:
 .byte   N24 ,An0 ,v012
 .byte   W72
 .byte   N24
 .byte   W24
 .byte   PEND 
@  #02 @006   ----------------------------------------
Label_015D6054:
 .byte   N24 ,Gn0 ,v012
 .byte   W72
 .byte   Bn0
 .byte   W24
 .byte   PEND 
@  #02 @007   ----------------------------------------
 .byte   Fs0
 .byte   W96
@  #02 @008   ----------------------------------------
 .byte   PATT
  .word Label_015D6046
@  #02 @009   ----------------------------------------
 .byte   PATT
  .word Label_015D604D
@  #02 @010   ----------------------------------------
 .byte   PATT
  .word Label_015D6054
@  #02 @011   ----------------------------------------
 .byte   N24 ,Fs0 ,v012
 .byte   W96
@  #02 @012   ----------------------------------------
 .byte   PATT
  .word Label_015D6046
@  #02 @013   ----------------------------------------
 .byte   PATT
  .word Label_015D604D
@  #02 @014   ----------------------------------------
 .byte   PATT
  .word Label_015D6054
@  #02 @015   ----------------------------------------
 .byte   N24 ,Fs0 ,v012
 .byte   W96
@  #02 @016   ----------------------------------------
 .byte   PATT
  .word Label_015D6046
@  #02 @017   ----------------------------------------
 .byte   PATT
  .word Label_015D604D
@  #02 @018   ----------------------------------------
 .byte   PATT
  .word Label_015D6054
@  #02 @019   ----------------------------------------
 .byte   N24 ,Fs0 ,v012
 .byte   W96
@  #02 @020   ----------------------------------------
 .byte   PATT
  .word Label_015D6046
@  #02 @021   ----------------------------------------
 .byte   PATT
  .word Label_015D604D
@  #02 @022   ----------------------------------------
 .byte   PATT
  .word Label_015D6054
@  #02 @023   ----------------------------------------
 .byte   N24 ,Fs0 ,v012
 .byte   W96
@  #02 @024   ----------------------------------------
 .byte   PATT
  .word Label_015D6046
@  #02 @025   ----------------------------------------
 .byte   N24 ,An0 ,v012
 .byte   W36
 .byte   N24
 .byte   W36
 .byte   N24
 .byte   W24
@  #02 @026   ----------------------------------------
 .byte   Gn0
 .byte   W72
 .byte   N24
 .byte   W24
@  #02 @027   ----------------------------------------
 .byte   Fs0
 .byte   W36
 .byte   N24
 .byte   W60
@  #02 @028   ----------------------------------------
 .byte   PATT
  .word Label_015D6046
@  #02 @029   ----------------------------------------
 .byte   PATT
  .word Label_015D604D
@  #02 @030   ----------------------------------------
 .byte   PATT
  .word Label_015D6054
@  #02 @031   ----------------------------------------
 .byte   N24 ,Fs0 ,v012
 .byte   W96
@  #02 @032   ----------------------------------------
 .byte   PATT
  .word Label_015D6046
@  #02 @033   ----------------------------------------
 .byte   PATT
  .word Label_015D604D
@  #02 @034   ----------------------------------------
 .byte   PATT
  .word Label_015D6054
@  #02 @035   ----------------------------------------
 .byte   N24 ,Fs0 ,v012
 .byte   W96
@  #02 @036   ----------------------------------------
 .byte   PATT
  .word Label_015D6046
@  #02 @037   ----------------------------------------
 .byte   PATT
  .word Label_015D604D
@  #02 @038   ----------------------------------------
 .byte   PATT
  .word Label_015D6054
@  #02 @039   ----------------------------------------
 .byte   N24 ,Fs0 ,v012
 .byte   W96
@  #02 @040   ----------------------------------------
 .byte   PATT
  .word Label_015D6046
@  #02 @041   ----------------------------------------
 .byte   PATT
  .word Label_015D604D
@  #02 @042   ----------------------------------------
 .byte   PATT
  .word Label_015D6054
@  #02 @043   ----------------------------------------
 .byte   N24 ,Fs0 ,v012
 .byte   W96
@  #02 @044   ----------------------------------------
 .byte   PATT
  .word Label_015D6046
@  #02 @045   ----------------------------------------
 .byte   PATT
  .word Label_015D604D
@  #02 @046   ----------------------------------------
 .byte   PATT
  .word Label_015D6054
@  #02 @047   ----------------------------------------
 .byte   N24 ,Fs0 ,v012
 .byte   W96
@  #02 @048   ----------------------------------------
 .byte   PATT
  .word Label_015D6046
@  #02 @049   ----------------------------------------
 .byte   PATT
  .word Label_015D604D
@  #02 @050   ----------------------------------------
 .byte   PATT
  .word Label_015D6054
@  #02 @051   ----------------------------------------
 .byte   N24 ,Fs0 ,v012
 .byte   W96
@  #02 @052   ----------------------------------------
Label_015D6130:
@  #02 @053   ----------------------------------------
 .byte   PATT
  .word Label_015D6046
@  #02 @054   ----------------------------------------
 .byte   PATT
  .word Label_015D604D
@  #02 @055   ----------------------------------------
 .byte   PATT
  .word Label_015D6054
@  #02 @056   ----------------------------------------
 .byte   N24 ,Fs0 ,v012
 .byte   W96
@  #02 @057   ----------------------------------------
 .byte   PATT
  .word Label_015D6046
@  #02 @058   ----------------------------------------
 .byte   PATT
  .word Label_015D604D
@  #02 @059   ----------------------------------------
 .byte   PATT
  .word Label_015D6054
@  #02 @060   ----------------------------------------
 .byte   N24 ,Fs0 ,v012
 .byte   W96
@  #02 @061   ----------------------------------------
 .byte   PATT
  .word Label_015D6046
@  #02 @062   ----------------------------------------
 .byte   PATT
  .word Label_015D604D
@  #02 @063   ----------------------------------------
 .byte   PATT
  .word Label_015D6054
@  #02 @064   ----------------------------------------
 .byte   N24 ,Fs0 ,v012
 .byte   W96
@  #02 @065   ----------------------------------------
 .byte   PATT
  .word Label_015D6046
@  #02 @066   ----------------------------------------
 .byte   PATT
  .word Label_015D604D
@  #02 @067   ----------------------------------------
 .byte   PATT
  .word Label_015D6054
@  #02 @068   ----------------------------------------
 .byte   N24 ,Fs0 ,v012
 .byte   W96
@  #02 @069   ----------------------------------------
 .byte   PATT
  .word Label_015D6046
@  #02 @070   ----------------------------------------
 .byte   PATT
  .word Label_015D604D
@  #02 @071   ----------------------------------------
 .byte   PATT
  .word Label_015D6054
@  #02 @072   ----------------------------------------
 .byte   N24 ,Fs0 ,v012
 .byte   W96
@  #02 @073   ----------------------------------------
 .byte   PATT
  .word Label_015D6046
@  #02 @074   ----------------------------------------
 .byte   PATT
  .word Label_015D604D
@  #02 @075   ----------------------------------------
 .byte   PATT
  .word Label_015D6054
@  #02 @076   ----------------------------------------
 .byte   N24 ,Fs0 ,v012
 .byte   W96
@  #02 @077   ----------------------------------------
 .byte   GOTO
  .word Label_015D6130
@  #02 @078   ----------------------------------------
 .byte   W96
@  #02 @079   ----------------------------------------
 .byte   W96
 .byte   FINE

@**************** Track 3 (Midi-Chn.2) ****************@

EleventhHour_003:
@  #03 @000   ----------------------------------------
 .byte   KEYSH , EleventhHour_key+0
 .byte   VOICE , 82
 .byte   VOL , 86*EleventhHour_mvl/mxv
 .byte   W96
@  #03 @001   ----------------------------------------
 .byte   W96
@  #03 @002   ----------------------------------------
 .byte   W96
@  #03 @003   ----------------------------------------
 .byte   W96
@  #03 @004   ----------------------------------------
Label_015D61C6:
 .byte   N12 ,Bn1 ,v020
 .byte   W12
 .byte   N24 ,Fs2
 .byte   W24
 .byte   N12 ,Gn2
 .byte   W12
 .byte   N24 ,Fs2
 .byte   W24
 .byte   Bn1
 .byte   W24
 .byte   PEND 
@  #03 @005   ----------------------------------------
Label_015D61D6:
 .byte   N12 ,An1 ,v020
 .byte   W12
 .byte   N24 ,Fs2
 .byte   W24
 .byte   N12 ,Gn2
 .byte   W12
 .byte   N24 ,An2
 .byte   W24
 .byte   An1
 .byte   W24
 .byte   PEND 
@  #03 @006   ----------------------------------------
Label_015D61E6:
 .byte   N12 ,Gn1 ,v020
 .byte   W12
 .byte   N24 ,Fs2
 .byte   W24
 .byte   N12 ,Gn2
 .byte   W12
 .byte   N24 ,Fs2
 .byte   W24
 .byte   Bn1
 .byte   W24
 .byte   PEND 
@  #03 @007   ----------------------------------------
Label_015D61F6:
 .byte   N12 ,Fs1 ,v020
 .byte   W12
 .byte   N24 ,Fs2
 .byte   W24
 .byte   N12 ,Gn2
 .byte   W12
 .byte   N48 ,Fs2
 .byte   W48
 .byte   PEND 
@  #03 @008   ----------------------------------------
 .byte   PATT
  .word Label_015D61C6
@  #03 @009   ----------------------------------------
 .byte   PATT
  .word Label_015D61D6
@  #03 @010   ----------------------------------------
 .byte   PATT
  .word Label_015D61E6
@  #03 @011   ----------------------------------------
 .byte   PATT
  .word Label_015D61F6
@  #03 @012   ----------------------------------------
 .byte   PATT
  .word Label_015D61C6
@  #03 @013   ----------------------------------------
 .byte   PATT
  .word Label_015D61D6
@  #03 @014   ----------------------------------------
 .byte   PATT
  .word Label_015D61E6
@  #03 @015   ----------------------------------------
 .byte   PATT
  .word Label_015D61F6
@  #03 @016   ----------------------------------------
 .byte   PATT
  .word Label_015D61C6
@  #03 @017   ----------------------------------------
 .byte   PATT
  .word Label_015D61D6
@  #03 @018   ----------------------------------------
 .byte   PATT
  .word Label_015D61E6
@  #03 @019   ----------------------------------------
 .byte   PATT
  .word Label_015D61F6
@  #03 @020   ----------------------------------------
 .byte   PATT
  .word Label_015D61C6
@  #03 @021   ----------------------------------------
 .byte   PATT
  .word Label_015D61D6
@  #03 @022   ----------------------------------------
 .byte   PATT
  .word Label_015D61E6
@  #03 @023   ----------------------------------------
 .byte   PATT
  .word Label_015D61F6
@  #03 @024   ----------------------------------------
 .byte   N12 ,Bn1 ,v020
 .byte   W12
 .byte   N24 ,Fs2
 .byte   W24
 .byte   N12 ,Gn2
 .byte   W12
 .byte   N24 ,Fs2
 .byte   W24
 .byte   Bn1
 .byte   N24 ,An2
 .byte   W24
@  #03 @025   ----------------------------------------
 .byte   An1
 .byte   W36
 .byte   Fs2
 .byte   W36
 .byte   An1
 .byte   W24
@  #03 @026   ----------------------------------------
 .byte   PATT
  .word Label_015D61E6
@  #03 @027   ----------------------------------------
 .byte   N24 ,Cs2 ,v020
 .byte   W36
 .byte   Fs1
 .byte   W36
 .byte   N12 ,Cs2
 .byte   W12
 .byte   An2
 .byte   W12
@  #03 @028   ----------------------------------------
 .byte   PATT
  .word Label_015D61C6
@  #03 @029   ----------------------------------------
 .byte   PATT
  .word Label_015D61D6
@  #03 @030   ----------------------------------------
 .byte   PATT
  .word Label_015D61E6
@  #03 @031   ----------------------------------------
 .byte   PATT
  .word Label_015D61F6
@  #03 @032   ----------------------------------------
 .byte   PATT
  .word Label_015D61C6
@  #03 @033   ----------------------------------------
 .byte   PATT
  .word Label_015D61D6
@  #03 @034   ----------------------------------------
 .byte   PATT
  .word Label_015D61E6
@  #03 @035   ----------------------------------------
 .byte   PATT
  .word Label_015D61F6
@  #03 @036   ----------------------------------------
 .byte   PATT
  .word Label_015D61C6
@  #03 @037   ----------------------------------------
 .byte   PATT
  .word Label_015D61D6
@  #03 @038   ----------------------------------------
 .byte   PATT
  .word Label_015D61E6
@  #03 @039   ----------------------------------------
 .byte   PATT
  .word Label_015D61F6
@  #03 @040   ----------------------------------------
 .byte   PATT
  .word Label_015D61C6
@  #03 @041   ----------------------------------------
 .byte   PATT
  .word Label_015D61D6
@  #03 @042   ----------------------------------------
 .byte   PATT
  .word Label_015D61E6
@  #03 @043   ----------------------------------------
 .byte   PATT
  .word Label_015D61F6
@  #03 @044   ----------------------------------------
 .byte   PATT
  .word Label_015D61C6
@  #03 @045   ----------------------------------------
 .byte   PATT
  .word Label_015D61D6
@  #03 @046   ----------------------------------------
 .byte   PATT
  .word Label_015D61E6
@  #03 @047   ----------------------------------------
 .byte   PATT
  .word Label_015D61F6
@  #03 @048   ----------------------------------------
 .byte   PATT
  .word Label_015D61C6
@  #03 @049   ----------------------------------------
 .byte   PATT
  .word Label_015D61D6
@  #03 @050   ----------------------------------------
 .byte   PATT
  .word Label_015D61E6
@  #03 @051   ----------------------------------------
 .byte   PATT
  .word Label_015D61F6
@  #03 @052   ----------------------------------------
Label_015D62F3:
@  #03 @053   ----------------------------------------
 .byte   PATT
  .word Label_015D61C6
@  #03 @054   ----------------------------------------
 .byte   PATT
  .word Label_015D61D6
@  #03 @055   ----------------------------------------
 .byte   PATT
  .word Label_015D61E6
@  #03 @056   ----------------------------------------
 .byte   PATT
  .word Label_015D61F6
@  #03 @057   ----------------------------------------
 .byte   PATT
  .word Label_015D61C6
@  #03 @058   ----------------------------------------
 .byte   PATT
  .word Label_015D61D6
@  #03 @059   ----------------------------------------
 .byte   PATT
  .word Label_015D61E6
@  #03 @060   ----------------------------------------
 .byte   PATT
  .word Label_015D61F6
@  #03 @061   ----------------------------------------
 .byte   PATT
  .word Label_015D61C6
@  #03 @062   ----------------------------------------
 .byte   PATT
  .word Label_015D61D6
@  #03 @063   ----------------------------------------
 .byte   PATT
  .word Label_015D61E6
@  #03 @064   ----------------------------------------
 .byte   PATT
  .word Label_015D61F6
@  #03 @065   ----------------------------------------
 .byte   PATT
  .word Label_015D61C6
@  #03 @066   ----------------------------------------
 .byte   PATT
  .word Label_015D61D6
@  #03 @067   ----------------------------------------
 .byte   PATT
  .word Label_015D61E6
@  #03 @068   ----------------------------------------
 .byte   PATT
  .word Label_015D61F6
@  #03 @069   ----------------------------------------
 .byte   PATT
  .word Label_015D61C6
@  #03 @070   ----------------------------------------
 .byte   PATT
  .word Label_015D61D6
@  #03 @071   ----------------------------------------
 .byte   PATT
  .word Label_015D61E6
@  #03 @072   ----------------------------------------
 .byte   PATT
  .word Label_015D61F6
@  #03 @073   ----------------------------------------
 .byte   PATT
  .word Label_015D61C6
@  #03 @074   ----------------------------------------
 .byte   PATT
  .word Label_015D61D6
@  #03 @075   ----------------------------------------
 .byte   PATT
  .word Label_015D61E6
@  #03 @076   ----------------------------------------
 .byte   PATT
  .word Label_015D61F6
@  #03 @077   ----------------------------------------
 .byte   GOTO
  .word Label_015D62F3
@  #03 @078   ----------------------------------------
 .byte   W96
@  #03 @079   ----------------------------------------
 .byte   W96
 .byte   FINE

@**************** Track 4 (Midi-Chn.3) ****************@

EleventhHour_004:
@  #04 @000   ----------------------------------------
 .byte   VOL , 119*EleventhHour_mvl/mxv
 .byte   KEYSH , EleventhHour_key+0
 .byte   VOICE , 28
 .byte   W96
@  #04 @001   ----------------------------------------
 .byte   W96
@  #04 @002   ----------------------------------------
 .byte   W96
@  #04 @003   ----------------------------------------
 .byte   W96
@  #04 @004   ----------------------------------------
Label_015D638E:
 .byte   N06 ,Bn1 ,v024
 .byte   W12
 .byte   Fs2
 .byte   W24
 .byte   Gn2
 .byte   W12
 .byte   Fs2
 .byte   W24
 .byte   Bn1
 .byte   W24
 .byte   PEND 
@  #04 @005   ----------------------------------------
Label_015D639B:
 .byte   N06 ,An1 ,v024
 .byte   W12
 .byte   Fs2
 .byte   W24
 .byte   Gn2
 .byte   W12
 .byte   An2
 .byte   W24
 .byte   An1
 .byte   W24
 .byte   PEND 
@  #04 @006   ----------------------------------------
Label_015D63A8:
 .byte   N06 ,Gn1 ,v024
 .byte   W12
 .byte   Fs2
 .byte   W24
 .byte   Gn2
 .byte   W12
 .byte   Fs2
 .byte   W24
 .byte   Bn1
 .byte   W24
 .byte   PEND 
@  #04 @007   ----------------------------------------
Label_015D63B5:
 .byte   N06 ,Fs1 ,v024
 .byte   W12
 .byte   Fs2
 .byte   W24
 .byte   Gn2
 .byte   W12
 .byte   Fs2
 .byte   W48
 .byte   PEND 
@  #04 @008   ----------------------------------------
 .byte   PATT
  .word Label_015D638E
@  #04 @009   ----------------------------------------
 .byte   PATT
  .word Label_015D639B
@  #04 @010   ----------------------------------------
 .byte   PATT
  .word Label_015D63A8
@  #04 @011   ----------------------------------------
 .byte   PATT
  .word Label_015D63B5
@  #04 @012   ----------------------------------------
 .byte   PATT
  .word Label_015D638E
@  #04 @013   ----------------------------------------
 .byte   PATT
  .word Label_015D639B
@  #04 @014   ----------------------------------------
 .byte   PATT
  .word Label_015D63A8
@  #04 @015   ----------------------------------------
 .byte   PATT
  .word Label_015D63B5
@  #04 @016   ----------------------------------------
 .byte   PATT
  .word Label_015D638E
@  #04 @017   ----------------------------------------
 .byte   PATT
  .word Label_015D639B
@  #04 @018   ----------------------------------------
 .byte   PATT
  .word Label_015D63A8
@  #04 @019   ----------------------------------------
 .byte   PATT
  .word Label_015D63B5
@  #04 @020   ----------------------------------------
 .byte   PATT
  .word Label_015D638E
@  #04 @021   ----------------------------------------
 .byte   PATT
  .word Label_015D639B
@  #04 @022   ----------------------------------------
 .byte   PATT
  .word Label_015D63A8
@  #04 @023   ----------------------------------------
 .byte   PATT
  .word Label_015D63B5
@  #04 @024   ----------------------------------------
 .byte   N06 ,Bn1 ,v024
 .byte   W12
 .byte   Fs2
 .byte   W24
 .byte   Gn2
 .byte   W12
 .byte   Fs2
 .byte   W24
 .byte   Bn1
 .byte   N06 ,An2
 .byte   W24
@  #04 @025   ----------------------------------------
 .byte   An1
 .byte   W36
 .byte   Fs2
 .byte   W36
 .byte   An1
 .byte   W24
@  #04 @026   ----------------------------------------
 .byte   PATT
  .word Label_015D63A8
@  #04 @027   ----------------------------------------
 .byte   N06 ,Cs2 ,v024
 .byte   W36
 .byte   Fs1
 .byte   W36
 .byte   Cs2
 .byte   W12
 .byte   An2
 .byte   W12
@  #04 @028   ----------------------------------------
 .byte   PATT
  .word Label_015D638E
@  #04 @029   ----------------------------------------
 .byte   PATT
  .word Label_015D639B
@  #04 @030   ----------------------------------------
 .byte   PATT
  .word Label_015D63A8
@  #04 @031   ----------------------------------------
 .byte   PATT
  .word Label_015D63B5
@  #04 @032   ----------------------------------------
 .byte   PATT
  .word Label_015D638E
@  #04 @033   ----------------------------------------
 .byte   PATT
  .word Label_015D639B
@  #04 @034   ----------------------------------------
 .byte   PATT
  .word Label_015D63A8
@  #04 @035   ----------------------------------------
 .byte   PATT
  .word Label_015D63B5
@  #04 @036   ----------------------------------------
 .byte   PATT
  .word Label_015D638E
@  #04 @037   ----------------------------------------
 .byte   PATT
  .word Label_015D639B
@  #04 @038   ----------------------------------------
 .byte   PATT
  .word Label_015D63A8
@  #04 @039   ----------------------------------------
 .byte   PATT
  .word Label_015D63B5
@  #04 @040   ----------------------------------------
 .byte   PATT
  .word Label_015D638E
@  #04 @041   ----------------------------------------
 .byte   PATT
  .word Label_015D639B
@  #04 @042   ----------------------------------------
 .byte   PATT
  .word Label_015D63A8
@  #04 @043   ----------------------------------------
 .byte   PATT
  .word Label_015D63B5
@  #04 @044   ----------------------------------------
 .byte   PATT
  .word Label_015D638E
@  #04 @045   ----------------------------------------
 .byte   PATT
  .word Label_015D639B
@  #04 @046   ----------------------------------------
 .byte   PATT
  .word Label_015D63A8
@  #04 @047   ----------------------------------------
 .byte   PATT
  .word Label_015D63B5
@  #04 @048   ----------------------------------------
 .byte   PATT
  .word Label_015D638E
@  #04 @049   ----------------------------------------
 .byte   PATT
  .word Label_015D639B
@  #04 @050   ----------------------------------------
 .byte   PATT
  .word Label_015D63A8
@  #04 @051   ----------------------------------------
 .byte   PATT
  .word Label_015D63B5
@  #04 @052   ----------------------------------------
Label_015D64AB:
@  #04 @053   ----------------------------------------
 .byte   PATT
  .word Label_015D638E
@  #04 @054   ----------------------------------------
 .byte   PATT
  .word Label_015D639B
@  #04 @055   ----------------------------------------
 .byte   PATT
  .word Label_015D63A8
@  #04 @056   ----------------------------------------
 .byte   PATT
  .word Label_015D63B5
@  #04 @057   ----------------------------------------
 .byte   PATT
  .word Label_015D638E
@  #04 @058   ----------------------------------------
 .byte   PATT
  .word Label_015D639B
@  #04 @059   ----------------------------------------
 .byte   PATT
  .word Label_015D63A8
@  #04 @060   ----------------------------------------
 .byte   PATT
  .word Label_015D63B5
@  #04 @061   ----------------------------------------
 .byte   PATT
  .word Label_015D638E
@  #04 @062   ----------------------------------------
 .byte   PATT
  .word Label_015D639B
@  #04 @063   ----------------------------------------
 .byte   PATT
  .word Label_015D63A8
@  #04 @064   ----------------------------------------
 .byte   PATT
  .word Label_015D63B5
@  #04 @065   ----------------------------------------
 .byte   PATT
  .word Label_015D638E
@  #04 @066   ----------------------------------------
 .byte   PATT
  .word Label_015D639B
@  #04 @067   ----------------------------------------
 .byte   PATT
  .word Label_015D63A8
@  #04 @068   ----------------------------------------
 .byte   PATT
  .word Label_015D63B5
@  #04 @069   ----------------------------------------
 .byte   PATT
  .word Label_015D638E
@  #04 @070   ----------------------------------------
 .byte   PATT
  .word Label_015D639B
@  #04 @071   ----------------------------------------
 .byte   PATT
  .word Label_015D63A8
@  #04 @072   ----------------------------------------
 .byte   PATT
  .word Label_015D63B5
@  #04 @073   ----------------------------------------
 .byte   PATT
  .word Label_015D638E
@  #04 @074   ----------------------------------------
 .byte   PATT
  .word Label_015D639B
@  #04 @075   ----------------------------------------
 .byte   PATT
  .word Label_015D63A8
@  #04 @076   ----------------------------------------
 .byte   PATT
  .word Label_015D63B5
@  #04 @077   ----------------------------------------
 .byte   GOTO
  .word Label_015D64AB
@  #04 @078   ----------------------------------------
 .byte   W96
@  #04 @079   ----------------------------------------
 .byte   W96
 .byte   FINE

@**************** Track 5 (Midi-Chn.4) ****************@

EleventhHour_005:
@  #05 @000   ----------------------------------------
 .byte   VOL , 70*EleventhHour_mvl/mxv
 .byte   KEYSH , EleventhHour_key+0
 .byte   VOICE , 18
 .byte   W96
@  #05 @001   ----------------------------------------
 .byte   W96
@  #05 @002   ----------------------------------------
 .byte   W96
@  #05 @003   ----------------------------------------
 .byte   W96
@  #05 @004   ----------------------------------------
 .byte   W96
@  #05 @005   ----------------------------------------
 .byte   W96
@  #05 @006   ----------------------------------------
 .byte   W96
@  #05 @007   ----------------------------------------
 .byte   W96
@  #05 @008   ----------------------------------------
 .byte   W96
@  #05 @009   ----------------------------------------
 .byte   W96
@  #05 @010   ----------------------------------------
 .byte   W96
@  #05 @011   ----------------------------------------
 .byte   W96
@  #05 @012   ----------------------------------------
 .byte   W96
@  #05 @013   ----------------------------------------
 .byte   W96
@  #05 @014   ----------------------------------------
 .byte   W96
@  #05 @015   ----------------------------------------
 .byte   W96
@  #05 @016   ----------------------------------------
 .byte   W96
@  #05 @017   ----------------------------------------
 .byte   W96
@  #05 @018   ----------------------------------------
 .byte   W96
@  #05 @019   ----------------------------------------
 .byte   W96
@  #05 @020   ----------------------------------------
 .byte   W96
@  #05 @021   ----------------------------------------
 .byte   W96
@  #05 @022   ----------------------------------------
 .byte   W96
@  #05 @023   ----------------------------------------
 .byte   W96
@  #05 @024   ----------------------------------------
 .byte   W96
@  #05 @025   ----------------------------------------
 .byte   W96
@  #05 @026   ----------------------------------------
 .byte   W96
@  #05 @027   ----------------------------------------
 .byte   W96
@  #05 @028   ----------------------------------------
 .byte   W96
@  #05 @029   ----------------------------------------
 .byte   W60
 .byte   N12 ,Cs6 ,v052
 .byte   W36
@  #05 @030   ----------------------------------------
 .byte   W96
@  #05 @031   ----------------------------------------
 .byte   W96
@  #05 @032   ----------------------------------------
 .byte   W36
 .byte   N12
 .byte   W60
@  #05 @033   ----------------------------------------
 .byte   W96
@  #05 @034   ----------------------------------------
 .byte   W36
 .byte   N12
 .byte   W60
@  #05 @035   ----------------------------------------
 .byte   W96
@  #05 @036   ----------------------------------------
 .byte   W96
@  #05 @037   ----------------------------------------
 .byte   W96
@  #05 @038   ----------------------------------------
 .byte   W96
@  #05 @039   ----------------------------------------
 .byte   W96
@  #05 @040   ----------------------------------------
 .byte   W96
@  #05 @041   ----------------------------------------
 .byte   W96
@  #05 @042   ----------------------------------------
 .byte   W96
@  #05 @043   ----------------------------------------
 .byte   W96
@  #05 @044   ----------------------------------------
 .byte   W96
@  #05 @045   ----------------------------------------
 .byte   W96
@  #05 @046   ----------------------------------------
 .byte   W96
@  #05 @047   ----------------------------------------
 .byte   W96
@  #05 @048   ----------------------------------------
 .byte   W96
@  #05 @049   ----------------------------------------
 .byte   W96
@  #05 @050   ----------------------------------------
 .byte   W96
@  #05 @051   ----------------------------------------
 .byte   W96
@  #05 @052   ----------------------------------------
Label_0178784E:
 .byte   W96
@  #05 @053   ----------------------------------------
 .byte   W60
 .byte   N12 ,Cs6 ,v052
 .byte   W36
@  #05 @054   ----------------------------------------
 .byte   W96
@  #05 @055   ----------------------------------------
 .byte   W96
@  #05 @056   ----------------------------------------
 .byte   W36
 .byte   N12
 .byte   W60
@  #05 @057   ----------------------------------------
 .byte   W96
@  #05 @058   ----------------------------------------
 .byte   W36
 .byte   N12
 .byte   W60
@  #05 @059   ----------------------------------------
 .byte   W96
@  #05 @060   ----------------------------------------
 .byte   W96
@  #05 @061   ----------------------------------------
 .byte   W96
@  #05 @062   ----------------------------------------
 .byte   W96
@  #05 @063   ----------------------------------------
 .byte   W96
@  #05 @064   ----------------------------------------
 .byte   W96
@  #05 @065   ----------------------------------------
 .byte   W96
@  #05 @066   ----------------------------------------
 .byte   W96
@  #05 @067   ----------------------------------------
 .byte   W96
@  #05 @068   ----------------------------------------
 .byte   W96
@  #05 @069   ----------------------------------------
 .byte   W96
@  #05 @070   ----------------------------------------
 .byte   W96
@  #05 @071   ----------------------------------------
 .byte   W96
@  #05 @072   ----------------------------------------
 .byte   W96
@  #05 @073   ----------------------------------------
 .byte   W96
@  #05 @074   ----------------------------------------
 .byte   W96
@  #05 @075   ----------------------------------------
 .byte   W96
@  #05 @076   ----------------------------------------
 .byte   GOTO
  .word Label_0178784E
@  #05 @077   ----------------------------------------
 .byte   W96
@  #05 @078   ----------------------------------------
 .byte   W96
 .byte   FINE

@**************** Track 6 (Midi-Chn.5) ****************@

EleventhHour_006:
@  #06 @000   ----------------------------------------
 .byte   VOL , 70*EleventhHour_mvl/mxv
 .byte   KEYSH , EleventhHour_key+0
 .byte   VOICE , 18
 .byte   W96
@  #06 @001   ----------------------------------------
 .byte   W96
@  #06 @002   ----------------------------------------
 .byte   W96
@  #06 @003   ----------------------------------------
 .byte   W96
@  #06 @004   ----------------------------------------
 .byte   W96
@  #06 @005   ----------------------------------------
 .byte   W96
@  #06 @006   ----------------------------------------
 .byte   W96
@  #06 @007   ----------------------------------------
 .byte   W96
@  #06 @008   ----------------------------------------
Label_015D654A:
 .byte   N48 ,Dn3 ,v052
 .byte   W48
 .byte   Fs3
 .byte   W48
 .byte   PEND 
@  #06 @009   ----------------------------------------
 .byte   N96 ,Cs4
 .byte   W96
@  #06 @010   ----------------------------------------
 .byte   N48 ,Dn4
 .byte   W48
 .byte   N24 ,En4
 .byte   W24
 .byte   Fs4
 .byte   W24
@  #06 @011   ----------------------------------------
 .byte   N48 ,Cs4
 .byte   W48
 .byte   N12 ,Dn4
 .byte   W12
 .byte   Cs4
 .byte   W12
 .byte   Fs3
 .byte   W12
 .byte   En3
 .byte   W12
@  #06 @012   ----------------------------------------
 .byte   PATT
  .word Label_015D654A
@  #06 @013   ----------------------------------------
 .byte   N48 ,Cs4 ,v052
 .byte   W72
 .byte   N24 ,Fs3
 .byte   W24
@  #06 @014   ----------------------------------------
 .byte   N48 ,Bn2
 .byte   W48
 .byte   Dn3
 .byte   W48
@  #06 @015   ----------------------------------------
 .byte   Cs3
 .byte   N48 ,An3
 .byte   W48
 .byte   N12 ,Gn3
 .byte   W12
 .byte   Dn4
 .byte   W12
 .byte   Cs4
 .byte   W12
 .byte   An4
 .byte   W12
@  #06 @016   ----------------------------------------
Label_015D6586:
 .byte   N48 ,Dn3 ,v052
 .byte   N24 ,Fs4
 .byte   W24
 .byte   Dn4
 .byte   W24
 .byte   N48 ,Fs3
 .byte   N24 ,Cs4
 .byte   W24
 .byte   An3
 .byte   W24
 .byte   PEND 
@  #06 @017   ----------------------------------------
 .byte   N96 ,Cs4
 .byte   N24 ,Fs4
 .byte   W24
 .byte   Dn4
 .byte   W24
 .byte   An4
 .byte   W24
 .byte   Cs5
 .byte   W24
@  #06 @018   ----------------------------------------
 .byte   N96 ,Dn4
 .byte   N24 ,Dn5
 .byte   W24
 .byte   Cs5
 .byte   W24
 .byte   Bn4
 .byte   W24
 .byte   An4
 .byte   W24
@  #06 @019   ----------------------------------------
 .byte   N48 ,Cs4
 .byte   N48 ,Fs4
 .byte   W48
 .byte   N12 ,Dn4
 .byte   W12
 .byte   Cs4
 .byte   W12
 .byte   Fs3
 .byte   W12
 .byte   En3
 .byte   W12
@  #06 @020   ----------------------------------------
 .byte   PATT
  .word Label_015D6586
@  #06 @021   ----------------------------------------
 .byte   N48 ,Cs4 ,v052
 .byte   N24 ,An4
 .byte   W24
 .byte   Gn4
 .byte   W24
 .byte   N48 ,Fs3
 .byte   N24 ,Fs4
 .byte   W24
 .byte   En4
 .byte   W24
@  #06 @022   ----------------------------------------
 .byte   N48 ,Bn2
 .byte   N24 ,Fs4
 .byte   W24
 .byte   Dn4
 .byte   W24
 .byte   N48 ,Dn3
 .byte   N24 ,Cs4
 .byte   W24
 .byte   An3
 .byte   W24
@  #06 @023   ----------------------------------------
 .byte   N48 ,Cs3
 .byte   N84 ,An4
 .byte   W48
 .byte   N12 ,Gn3
 .byte   W12
 .byte   Dn4
 .byte   W12
 .byte   Cs4
 .byte   W12
 .byte   An4
 .byte   W12
@  #06 @024   ----------------------------------------
 .byte   N96 ,Bn3
 .byte   N96 ,Dn4
 .byte   N96 ,Fs4
 .byte   N96 ,Bn4
 .byte   W96
@  #06 @025   ----------------------------------------
 .byte   An3
 .byte   N96 ,Dn4
 .byte   N96 ,Fs4
 .byte   N96 ,An4
 .byte   W96
@  #06 @026   ----------------------------------------
 .byte   Gn3
 .byte   N96 ,Bn3
 .byte   N96 ,Dn4
 .byte   N96 ,Gn4
 .byte   W96
@  #06 @027   ----------------------------------------
 .byte   Cs3
 .byte   N96 ,Fs3
 .byte   N96 ,Cs4
 .byte   W96
@  #06 @028   ----------------------------------------
Label_015D6609:
 .byte   N36 ,Dn3 ,v052
 .byte   N12 ,Fs4
 .byte   W12
 .byte   Dn4
 .byte   W12
 .byte   N12
 .byte   N12 ,Fs4
 .byte   W12
 .byte   Gn3
 .byte   N12 ,Cs5
 .byte   W12
 .byte   N24 ,Fs3
 .byte   N12 ,Dn5
 .byte   W12
 .byte   An5
 .byte   W12
 .byte   N24 ,An3
 .byte   W24
 .byte   PEND 
@  #06 @029   ----------------------------------------
Label_015D6624:
 .byte   N36 ,Cs4 ,v052
 .byte   N12 ,Fs4
 .byte   W12
 .byte   Dn4
 .byte   W12
 .byte   N12
 .byte   N12 ,Fs4
 .byte   W12
 .byte   Gn3
 .byte   N12 ,Cs5
 .byte   W12
 .byte   N48 ,An3
 .byte   N12 ,Dn5
 .byte   W24
 .byte   N24 ,Cs5
 .byte   W24
 .byte   PEND 
@  #06 @030   ----------------------------------------
Label_015D663D:
 .byte   N48 ,Dn3 ,v052
 .byte   N12 ,Dn5
 .byte   W12
 .byte   Fs3
 .byte   W12
 .byte   An3
 .byte   N12 ,Cs5
 .byte   W12
 .byte   Dn4
 .byte   W12
 .byte   Bn4
 .byte   W12
 .byte   Dn5
 .byte   W12
 .byte   An4
 .byte   N12 ,Fs5
 .byte   W12
 .byte   An5
 .byte   W12
 .byte   PEND 
@  #06 @031   ----------------------------------------
Label_015D6656:
 .byte   N48 ,Cs3 ,v052
 .byte   N48 ,Fs4
 .byte   W48
 .byte   N12 ,Dn3
 .byte   W12
 .byte   Cs3
 .byte   W12
 .byte   Fs2
 .byte   N12 ,Cs4
 .byte   W12
 .byte   En2
 .byte   N12 ,Dn4
 .byte   W12
 .byte   PEND 
@  #06 @032   ----------------------------------------
Label_015D666A:
 .byte   N48 ,Dn2 ,v052
 .byte   N12 ,Dn4
 .byte   N12 ,Fs4
 .byte   W12
 .byte   Cs5
 .byte   W12
 .byte   Dn4
 .byte   N12 ,Dn5
 .byte   W24
 .byte   N48 ,Fs2
 .byte   N12 ,Cs4
 .byte   N12 ,An4
 .byte   W12
 .byte   Cs5
 .byte   W12
 .byte   An3
 .byte   N12 ,Dn5
 .byte   W12
 .byte   An5
 .byte   W12
 .byte   PEND 
@  #06 @033   ----------------------------------------
Label_015D6688:
 .byte   N48 ,Cs3 ,v052
 .byte   N24 ,An4
 .byte   W24
 .byte   Gn4
 .byte   W24
 .byte   N48 ,Fs2
 .byte   N24 ,Fs4
 .byte   W24
 .byte   N12 ,En4
 .byte   W12
 .byte   Dn4
 .byte   W12
 .byte   PEND 
@  #06 @034   ----------------------------------------
Label_015D669B:
 .byte   N36 ,Bn1 ,v052
 .byte   N12 ,Fs4
 .byte   W12
 .byte   Cs5
 .byte   W12
 .byte   Dn4
 .byte   N12 ,Dn5
 .byte   W12
 .byte   Cs2
 .byte   W12
 .byte   N24 ,Dn2
 .byte   N12 ,Cs4
 .byte   W12
 .byte   An3
 .byte   W12
 .byte   N24 ,Bn1
 .byte   N12 ,An3
 .byte   N12 ,Cs4
 .byte   W12
 .byte   Dn4
 .byte   W12
 .byte   PEND 
@  #06 @035   ----------------------------------------
Label_015D66BA:
 .byte   N48 ,Cs2 ,v052
 .byte   N12 ,Cs4
 .byte   N48 ,Fs4
 .byte   N48 ,An4
 .byte   N48 ,Cs5
 .byte   W12
 .byte   N12 ,An3
 .byte   W12
 .byte   Cs4
 .byte   W12
 .byte   Dn4
 .byte   W12
 .byte   Gn2
 .byte   N48 ,An4
 .byte   W12
 .byte   N12 ,Dn3
 .byte   W12
 .byte   Cs3
 .byte   W12
 .byte   An3
 .byte   W12
 .byte   PEND 
@  #06 @036   ----------------------------------------
Label_015D66D9:
 .byte   N48 ,Bn2 ,v052
 .byte   W12
 .byte   N24 ,Fs3
 .byte   W24
 .byte   N12 ,Gn3
 .byte   W12
 .byte   N24 ,Fs3
 .byte   W24
 .byte   Bn2
 .byte   N24 ,An3
 .byte   W24
 .byte   PEND 
@  #06 @037   ----------------------------------------
Label_015D66EB:
 .byte   N36 ,An2 ,v052
 .byte   N36 ,Bn3
 .byte   W36
 .byte   An2
 .byte   N36 ,Fs3
 .byte   W36
 .byte   N24 ,An2
 .byte   N24 ,Bn3
 .byte   W24
 .byte   PEND 
@  #06 @038   ----------------------------------------
Label_015D66FB:
 .byte   N36 ,Gn2 ,v052
 .byte   N24 ,Bn3
 .byte   W36
 .byte   N36 ,Gn2
 .byte   W36
 .byte   N24 ,Bn2
 .byte   N24 ,An3
 .byte   W24
 .byte   PEND 
@  #06 @039   ----------------------------------------
Label_015D670A:
 .byte   N36 ,Fs2 ,v052
 .byte   N36 ,Bn2
 .byte   N24 ,Fs3
 .byte   W36
 .byte   N36 ,Fs2
 .byte   N36 ,Bn2
 .byte   W36
 .byte   N12 ,Cs3
 .byte   W12
 .byte   An3
 .byte   W12
 .byte   PEND 
@  #06 @040   ----------------------------------------
 .byte   PATT
  .word Label_015D66D9
@  #06 @041   ----------------------------------------
Label_015D6722:
 .byte   N36 ,An2 ,v052
 .byte   N24 ,Bn3
 .byte   W24
 .byte   Dn4
 .byte   W12
 .byte   N36 ,An2
 .byte   W12
 .byte   N24 ,Cs4
 .byte   W24
 .byte   An2
 .byte   N24 ,An4
 .byte   W24
 .byte   PEND 
@  #06 @042   ----------------------------------------
Label_015D6735:
 .byte   N36 ,Gn2 ,v052
 .byte   N48 ,Bn4
 .byte   W36
 .byte   N36 ,Gn2
 .byte   W12
 .byte   N24 ,Dn5
 .byte   W24
 .byte   Bn2
 .byte   N24 ,An5
 .byte   W24
 .byte   PEND 
@  #06 @043   ----------------------------------------
Label_015D6746:
 .byte   N36 ,Fs2 ,v052
 .byte   N36 ,Bn2
 .byte   N48 ,Cs5
 .byte   W36
 .byte   N36 ,Fs2
 .byte   N36 ,Bn2
 .byte   W12
 .byte   N12 ,Dn5
 .byte   W12
 .byte   Cs5
 .byte   W12
 .byte   Cs3
 .byte   N12 ,Fs4
 .byte   W12
 .byte   An3
 .byte   N12 ,En4
 .byte   W12
 .byte   PEND 
@  #06 @044   ----------------------------------------
Label_015D6761:
 .byte   N24 ,Dn2 ,v052
 .byte   N48 ,Fs4
 .byte   W24
 .byte   N24 ,Fs2
 .byte   W24
 .byte   An2
 .byte   W24
 .byte   Cs3
 .byte   N24 ,Fs4
 .byte   W24
 .byte   PEND 
@  #06 @045   ----------------------------------------
 .byte   Dn3
 .byte   N48 ,Cs4
 .byte   W24
 .byte   N24 ,Fs2
 .byte   W24
 .byte   Dn3
 .byte   W24
 .byte   Cs3
 .byte   N24 ,Dn4
 .byte   W24
@  #06 @046   ----------------------------------------
Label_015D677E:
 .byte   N24 ,Dn2 ,v052
 .byte   N48 ,Cs4
 .byte   W24
 .byte   N24 ,Fs2
 .byte   W24
 .byte   En3
 .byte   W24
 .byte   Dn3
 .byte   N24 ,Cs4
 .byte   W24
 .byte   PEND 
@  #06 @047   ----------------------------------------
Label_015D678E:
 .byte   N24 ,Cs3 ,v052
 .byte   N48 ,An3
 .byte   W24
 .byte   N24 ,Fs2
 .byte   W24
 .byte   Fs3
 .byte   W24
 .byte   En3
 .byte   W24
 .byte   PEND 
@  #06 @048   ----------------------------------------
Label_015D679C:
 .byte   N24 ,Dn2 ,v052
 .byte   N48 ,Bn3
 .byte   N48 ,Fs4
 .byte   W24
 .byte   N24 ,Fs2
 .byte   W24
 .byte   Dn3
 .byte   W24
 .byte   Cs3
 .byte   N24 ,Bn3
 .byte   N24 ,Fs4
 .byte   W24
 .byte   PEND 
@  #06 @049   ----------------------------------------
Label_015D67B0:
 .byte   N24 ,Bn2 ,v052
 .byte   N24 ,Cs4
 .byte   W24
 .byte   Fs2
 .byte   N24 ,Gn4
 .byte   W24
 .byte   En3
 .byte   N24 ,Fs4
 .byte   W24
 .byte   Cs3
 .byte   N24 ,Bn3
 .byte   W24
 .byte   PEND 
@  #06 @050   ----------------------------------------
Label_015D67C3:
 .byte   N24 ,Dn2 ,v052
 .byte   N96 ,Cs4
 .byte   W24
 .byte   N24 ,Fs2
 .byte   W24
 .byte   An2
 .byte   W24
 .byte   Cs3
 .byte   W24
 .byte   PEND 
@  #06 @051   ----------------------------------------
Label_015D67D1:
 .byte   N24 ,Dn3 ,v052
 .byte   N24 ,Bn4
 .byte   W24
 .byte   Cs3
 .byte   N24 ,Dn4
 .byte   W24
 .byte   Fs2
 .byte   N24 ,An4
 .byte   W24
 .byte   En2
 .byte   N24 ,Cs4
 .byte   W24
 .byte   PEND 
@  #06 @052   ----------------------------------------
Label_015D67E4:
@  #06 @053   ----------------------------------------
 .byte   PATT
  .word Label_015D6609
@  #06 @054   ----------------------------------------
 .byte   PATT
  .word Label_015D6624
@  #06 @055   ----------------------------------------
 .byte   PATT
  .word Label_015D663D
@  #06 @056   ----------------------------------------
 .byte   PATT
  .word Label_015D6656
@  #06 @057   ----------------------------------------
 .byte   PATT
  .word Label_015D666A
@  #06 @058   ----------------------------------------
 .byte   PATT
  .word Label_015D6688
@  #06 @059   ----------------------------------------
 .byte   PATT
  .word Label_015D669B
@  #06 @060   ----------------------------------------
 .byte   PATT
  .word Label_015D66BA
@  #06 @061   ----------------------------------------
 .byte   PATT
  .word Label_015D66D9
@  #06 @062   ----------------------------------------
 .byte   PATT
  .word Label_015D66EB
@  #06 @063   ----------------------------------------
 .byte   PATT
  .word Label_015D66FB
@  #06 @064   ----------------------------------------
 .byte   PATT
  .word Label_015D670A
@  #06 @065   ----------------------------------------
 .byte   PATT
  .word Label_015D66D9
@  #06 @066   ----------------------------------------
 .byte   PATT
  .word Label_015D6722
@  #06 @067   ----------------------------------------
 .byte   PATT
  .word Label_015D6735
@  #06 @068   ----------------------------------------
 .byte   PATT
  .word Label_015D6746
@  #06 @069   ----------------------------------------
 .byte   PATT
  .word Label_015D6761
@  #06 @070   ----------------------------------------
 .byte   N24 ,Dn3 ,v052
 .byte   N36 ,Cs4
 .byte   W24
 .byte   N24 ,Fs2
 .byte   W24
 .byte   Dn3
 .byte   W24
 .byte   Cs3
 .byte   N24 ,Dn4
 .byte   W24
@  #06 @071   ----------------------------------------
 .byte   PATT
  .word Label_015D677E
@  #06 @072   ----------------------------------------
 .byte   PATT
  .word Label_015D678E
@  #06 @073   ----------------------------------------
 .byte   PATT
  .word Label_015D679C
@  #06 @074   ----------------------------------------
 .byte   PATT
  .word Label_015D67B0
@  #06 @075   ----------------------------------------
 .byte   PATT
  .word Label_015D67C3
@  #06 @076   ----------------------------------------
 .byte   PATT
  .word Label_015D67D1
@  #06 @077   ----------------------------------------
 .byte   GOTO
  .word Label_015D67E4
@  #06 @078   ----------------------------------------
 .byte   TIE ,Gn3 ,v052
 .byte   W01
 .byte   Bn3
 .byte   W02
 .byte   Cs4
 .byte   W01
 .byte   Dn4
 .byte   W02
 .byte   Fs4
 .byte   W90
@  #06 @079   ----------------------------------------
 .byte   W92
 .byte   W03
 .byte   EOT
 .byte   Bn3 ,v074
 .byte   W01
@  #06 @080   ----------------------------------------
 .byte   Gn3 ,v073
 .byte   Fs4
 .byte   FINE

@**************** Track 7 (Midi-Chn.6) ****************@

EleventhHour_007:
@  #07 @000   ----------------------------------------
 .byte   VOL , 49*EleventhHour_mvl/mxv
 .byte   KEYSH , EleventhHour_key+0
 .byte   VOICE , 75
 .byte   W96
@  #07 @001   ----------------------------------------
 .byte   W96
@  #07 @002   ----------------------------------------
 .byte   W96
@  #07 @003   ----------------------------------------
 .byte   W96
@  #07 @004   ----------------------------------------
Label_017871A6:
 .byte   N06 ,Bn2 ,v052
 .byte   W12
 .byte   Fs3
 .byte   W24
 .byte   Gn3
 .byte   W12
 .byte   Fs3
 .byte   W24
 .byte   Bn2
 .byte   W24
 .byte   PEND 
@  #07 @005   ----------------------------------------
Label_017871B3:
 .byte   N06 ,An2 ,v052
 .byte   W12
 .byte   Fs3
 .byte   W24
 .byte   Gn3
 .byte   W12
 .byte   An3
 .byte   W24
 .byte   An2
 .byte   W24
 .byte   PEND 
@  #07 @006   ----------------------------------------
Label_017871C0:
 .byte   N06 ,Gn2 ,v052
 .byte   W12
 .byte   Fs3
 .byte   W24
 .byte   Gn3
 .byte   W12
 .byte   Fs3
 .byte   W24
 .byte   Bn2
 .byte   W24
 .byte   PEND 
@  #07 @007   ----------------------------------------
Label_017871CD:
 .byte   N06 ,Fs2 ,v052
 .byte   W12
 .byte   Fs3
 .byte   W24
 .byte   Gn3
 .byte   W12
 .byte   An3
 .byte   W48
 .byte   PEND 
@  #07 @008   ----------------------------------------
 .byte   PATT
  .word Label_017871A6
@  #07 @009   ----------------------------------------
 .byte   PATT
  .word Label_017871B3
@  #07 @010   ----------------------------------------
 .byte   PATT
  .word Label_017871C0
@  #07 @011   ----------------------------------------
 .byte   PATT
  .word Label_017871CD
@  #07 @012   ----------------------------------------
 .byte   PATT
  .word Label_017871A6
@  #07 @013   ----------------------------------------
 .byte   PATT
  .word Label_017871B3
@  #07 @014   ----------------------------------------
 .byte   PATT
  .word Label_017871C0
@  #07 @015   ----------------------------------------
 .byte   PATT
  .word Label_017871CD
@  #07 @016   ----------------------------------------
 .byte   PATT
  .word Label_017871A6
@  #07 @017   ----------------------------------------
 .byte   PATT
  .word Label_017871B3
@  #07 @018   ----------------------------------------
 .byte   PATT
  .word Label_017871C0
@  #07 @019   ----------------------------------------
 .byte   PATT
  .word Label_017871CD
@  #07 @020   ----------------------------------------
 .byte   PATT
  .word Label_017871A6
@  #07 @021   ----------------------------------------
 .byte   PATT
  .word Label_017871B3
@  #07 @022   ----------------------------------------
 .byte   PATT
  .word Label_017871C0
@  #07 @023   ----------------------------------------
 .byte   PATT
  .word Label_017871CD
@  #07 @024   ----------------------------------------
 .byte   W96
@  #07 @025   ----------------------------------------
 .byte   W96
@  #07 @026   ----------------------------------------
 .byte   W96
@  #07 @027   ----------------------------------------
 .byte   W96
@  #07 @028   ----------------------------------------
 .byte   W96
@  #07 @029   ----------------------------------------
 .byte   W96
@  #07 @030   ----------------------------------------
 .byte   W96
@  #07 @031   ----------------------------------------
 .byte   W96
@  #07 @032   ----------------------------------------
 .byte   W96
@  #07 @033   ----------------------------------------
 .byte   W96
@  #07 @034   ----------------------------------------
 .byte   W96
@  #07 @035   ----------------------------------------
 .byte   W96
@  #07 @036   ----------------------------------------
 .byte   PATT
  .word Label_017871A6
@  #07 @037   ----------------------------------------
 .byte   PATT
  .word Label_017871B3
@  #07 @038   ----------------------------------------
 .byte   PATT
  .word Label_017871C0
@  #07 @039   ----------------------------------------
 .byte   PATT
  .word Label_017871CD
@  #07 @040   ----------------------------------------
 .byte   PATT
  .word Label_017871A6
@  #07 @041   ----------------------------------------
 .byte   PATT
  .word Label_017871B3
@  #07 @042   ----------------------------------------
 .byte   PATT
  .word Label_017871C0
@  #07 @043   ----------------------------------------
 .byte   PATT
  .word Label_017871CD
@  #07 @044   ----------------------------------------
 .byte   W96
@  #07 @045   ----------------------------------------
 .byte   W96
@  #07 @046   ----------------------------------------
 .byte   W96
@  #07 @047   ----------------------------------------
 .byte   W96
@  #07 @048   ----------------------------------------
 .byte   W96
@  #07 @049   ----------------------------------------
 .byte   W96
@  #07 @050   ----------------------------------------
 .byte   W96
@  #07 @051   ----------------------------------------
 .byte   W96
@  #07 @052   ----------------------------------------
Label_01787264:
 .byte   W96
@  #07 @053   ----------------------------------------
 .byte   W96
@  #07 @054   ----------------------------------------
 .byte   W96
@  #07 @055   ----------------------------------------
 .byte   W96
@  #07 @056   ----------------------------------------
 .byte   W96
@  #07 @057   ----------------------------------------
 .byte   W96
@  #07 @058   ----------------------------------------
 .byte   W96
@  #07 @059   ----------------------------------------
 .byte   W96
@  #07 @060   ----------------------------------------
 .byte   PATT
  .word Label_017871A6
@  #07 @061   ----------------------------------------
 .byte   PATT
  .word Label_017871B3
@  #07 @062   ----------------------------------------
 .byte   PATT
  .word Label_017871C0
@  #07 @063   ----------------------------------------
 .byte   PATT
  .word Label_017871CD
@  #07 @064   ----------------------------------------
 .byte   PATT
  .word Label_017871A6
@  #07 @065   ----------------------------------------
 .byte   PATT
  .word Label_017871B3
@  #07 @066   ----------------------------------------
 .byte   PATT
  .word Label_017871C0
@  #07 @067   ----------------------------------------
 .byte   PATT
  .word Label_017871CD
@  #07 @068   ----------------------------------------
 .byte   W96
@  #07 @069   ----------------------------------------
 .byte   W96
@  #07 @070   ----------------------------------------
 .byte   W96
@  #07 @071   ----------------------------------------
 .byte   W96
@  #07 @072   ----------------------------------------
 .byte   W96
@  #07 @073   ----------------------------------------
 .byte   W96
@  #07 @074   ----------------------------------------
 .byte   W96
@  #07 @075   ----------------------------------------
 .byte   W96
@  #07 @076   ----------------------------------------
 .byte   GOTO
  .word Label_01787264
@  #07 @077   ----------------------------------------
 .byte   W96
@  #07 @078   ----------------------------------------
 .byte   W96
 .byte   FINE

@**************** Track 8 (Midi-Chn.7) ****************@

EleventhHour_008:
@  #08 @000   ----------------------------------------
 .byte   VOL , 56*EleventhHour_mvl/mxv
 .byte   KEYSH , EleventhHour_key+0
 .byte   VOICE , 124
 .byte   W96
@  #08 @001   ----------------------------------------
 .byte   W96
@  #08 @002   ----------------------------------------
 .byte   W96
@  #08 @003   ----------------------------------------
 .byte   W96
@  #08 @004   ----------------------------------------
Label_015D689E:
 .byte   N06 ,Cn1 ,v064
 .byte   N06 ,Fs1 ,v052
 .byte   W06
 .byte   N06
 .byte   W06
 .byte   N06
 .byte   W12
 .byte   En1 ,v020
 .byte   N06 ,Fs1 ,v052
 .byte   W12
 .byte   N06
 .byte   W06
 .byte   N06
 .byte   W06
 .byte   N06
 .byte   W06
 .byte   En1 ,v020
 .byte   W06
 .byte   Fs1 ,v052
 .byte   W06
 .byte   N06
 .byte   W06
 .byte   En1 ,v020
 .byte   N06 ,Fs1 ,v052
 .byte   W12
 .byte   N06
 .byte   W06
 .byte   Cn1 ,v064
 .byte   W06
 .byte   PEND 
@  #08 @005   ----------------------------------------
 .byte   PATT
  .word Label_015D689E
@  #08 @006   ----------------------------------------
 .byte   PATT
  .word Label_015D689E
@  #08 @007   ----------------------------------------
 .byte   PATT
  .word Label_015D689E
@  #08 @008   ----------------------------------------
 .byte   PATT
  .word Label_015D689E
@  #08 @009   ----------------------------------------
 .byte   PATT
  .word Label_015D689E
@  #08 @010   ----------------------------------------
 .byte   PATT
  .word Label_015D689E
@  #08 @011   ----------------------------------------
 .byte   PATT
  .word Label_015D689E
@  #08 @012   ----------------------------------------
 .byte   PATT
  .word Label_015D689E
@  #08 @013   ----------------------------------------
 .byte   PATT
  .word Label_015D689E
@  #08 @014   ----------------------------------------
 .byte   PATT
  .word Label_015D689E
@  #08 @015   ----------------------------------------
 .byte   PATT
  .word Label_015D689E
@  #08 @016   ----------------------------------------
 .byte   PATT
  .word Label_015D689E
@  #08 @017   ----------------------------------------
 .byte   PATT
  .word Label_015D689E
@  #08 @018   ----------------------------------------
 .byte   PATT
  .word Label_015D689E
@  #08 @019   ----------------------------------------
 .byte   PATT
  .word Label_015D689E
@  #08 @020   ----------------------------------------
 .byte   PATT
  .word Label_015D689E
@  #08 @021   ----------------------------------------
 .byte   PATT
  .word Label_015D689E
@  #08 @022   ----------------------------------------
 .byte   PATT
  .word Label_015D689E
@  #08 @023   ----------------------------------------
 .byte   PATT
  .word Label_015D689E
@  #08 @024   ----------------------------------------
 .byte   N06 ,Cn1 ,v064
 .byte   N06 ,Fs1 ,v052
 .byte   W96
@  #08 @025   ----------------------------------------
 .byte   W96
@  #08 @026   ----------------------------------------
 .byte   W96
@  #08 @027   ----------------------------------------
 .byte   W96
@  #08 @028   ----------------------------------------
 .byte   PATT
  .word Label_015D689E
@  #08 @029   ----------------------------------------
 .byte   PATT
  .word Label_015D689E
@  #08 @030   ----------------------------------------
 .byte   PATT
  .word Label_015D689E
@  #08 @031   ----------------------------------------
 .byte   PATT
  .word Label_015D689E
@  #08 @032   ----------------------------------------
 .byte   PATT
  .word Label_015D689E
@  #08 @033   ----------------------------------------
 .byte   PATT
  .word Label_015D689E
@  #08 @034   ----------------------------------------
 .byte   PATT
  .word Label_015D689E
@  #08 @035   ----------------------------------------
 .byte   PATT
  .word Label_015D689E
@  #08 @036   ----------------------------------------
 .byte   PATT
  .word Label_015D689E
@  #08 @037   ----------------------------------------
 .byte   PATT
  .word Label_015D689E
@  #08 @038   ----------------------------------------
 .byte   PATT
  .word Label_015D689E
@  #08 @039   ----------------------------------------
 .byte   PATT
  .word Label_015D689E
@  #08 @040   ----------------------------------------
 .byte   PATT
  .word Label_015D689E
@  #08 @041   ----------------------------------------
 .byte   PATT
  .word Label_015D689E
@  #08 @042   ----------------------------------------
 .byte   PATT
  .word Label_015D689E
@  #08 @043   ----------------------------------------
 .byte   PATT
  .word Label_015D689E
@  #08 @044   ----------------------------------------
 .byte   W96
@  #08 @045   ----------------------------------------
 .byte   W96
@  #08 @046   ----------------------------------------
 .byte   W96
@  #08 @047   ----------------------------------------
 .byte   W96
@  #08 @048   ----------------------------------------
 .byte   W96
@  #08 @049   ----------------------------------------
 .byte   W96
@  #08 @050   ----------------------------------------
 .byte   W96
@  #08 @051   ----------------------------------------
 .byte   W96
@  #08 @052   ----------------------------------------
Label_015D698A:
@  #08 @053   ----------------------------------------
 .byte   PATT
  .word Label_015D689E
@  #08 @054   ----------------------------------------
 .byte   PATT
  .word Label_015D689E
@  #08 @055   ----------------------------------------
 .byte   PATT
  .word Label_015D689E
@  #08 @056   ----------------------------------------
 .byte   PATT
  .word Label_015D689E
@  #08 @057   ----------------------------------------
 .byte   PATT
  .word Label_015D689E
@  #08 @058   ----------------------------------------
 .byte   PATT
  .word Label_015D689E
@  #08 @059   ----------------------------------------
 .byte   PATT
  .word Label_015D689E
@  #08 @060   ----------------------------------------
 .byte   PATT
  .word Label_015D689E
@  #08 @061   ----------------------------------------
 .byte   PATT
  .word Label_015D689E
@  #08 @062   ----------------------------------------
 .byte   PATT
  .word Label_015D689E
@  #08 @063   ----------------------------------------
 .byte   PATT
  .word Label_015D689E
@  #08 @064   ----------------------------------------
 .byte   PATT
  .word Label_015D689E
@  #08 @065   ----------------------------------------
 .byte   PATT
  .word Label_015D689E
@  #08 @066   ----------------------------------------
 .byte   PATT
  .word Label_015D689E
@  #08 @067   ----------------------------------------
 .byte   PATT
  .word Label_015D689E
@  #08 @068   ----------------------------------------
 .byte   PATT
  .word Label_015D689E
@  #08 @069   ----------------------------------------
 .byte   W96
@  #08 @070   ----------------------------------------
 .byte   W96
@  #08 @071   ----------------------------------------
 .byte   W96
@  #08 @072   ----------------------------------------
 .byte   W96
@  #08 @073   ----------------------------------------
 .byte   W96
@  #08 @074   ----------------------------------------
 .byte   W96
@  #08 @075   ----------------------------------------
 .byte   W96
@  #08 @076   ----------------------------------------
 .byte   W96
@  #08 @077   ----------------------------------------
 .byte   GOTO
  .word Label_015D698A
@  #08 @078   ----------------------------------------
 .byte   W96
@  #08 @079   ----------------------------------------
 .byte   W96
 .byte   FINE

@******************************************************@
	.align	2

EleventhHour:
	.byte	8	@ NumTrks
	.byte	0	@ NumBlks
	.byte	EleventhHour_pri	@ Priority
	.byte	EleventhHour_rev	@ Reverb.
    
	.word	EleventhHour_grp
    
	.word	EleventhHour_001
	.word	EleventhHour_002
	.word	EleventhHour_003
	.word	EleventhHour_004
	.word	EleventhHour_005
	.word	EleventhHour_006
	.word	EleventhHour_007
	.word	EleventhHour_008

	.end
