	.include "MPlayDef.s"

	.equ	FeldschlactIII_grp, voicegroup000
	.equ	FeldschlactIII_pri, 0
	.equ	FeldschlactIII_rev, 0
	.equ	FeldschlactIII_mvl, 127
	.equ	FeldschlactIII_key, 0
	.equ	FeldschlactIII_tbs, 1
	.equ	FeldschlactIII_exg, 0
	.equ	FeldschlactIII_cmp, 1

	.section .rodata
	.global	FeldschlactIII
	.align	2


@**************** Track 1 (Midi-Chn.0) ****************@

FeldschlactIII_001:
@  #01 @000   ----------------------------------------
 .byte   KEYSH , FeldschlactIII_key+0
 .byte   TEMPO , 160*FeldschlactIII_tbs/2
 .byte   VOICE , 41
 .byte   VOL , 45*FeldschlactIII_mvl/mxv
 .byte   PAN , c_v-26
 .byte   TIE ,Gn2 ,v064
 .byte   TIE ,Gn4 ,v044
 .byte   W96
@  #01 @001   ----------------------------------------
 .byte   W96
@  #01 @002   ----------------------------------------
 .byte   EOT
 .byte   Gn2 ,v079
Label_01572C79:
 .byte   TIE ,Fn2 ,v064
 .byte   N36 ,Fn4 ,v044
 .byte   W36
 .byte   TIE ,Cn2 ,v064
 .byte   TIE ,Cn4 ,v044
 .byte   W60
 .byte   PEND 
@  #01 @003   ----------------------------------------
 .byte   W96
@  #01 @004   ----------------------------------------
 .byte   EOT
 .byte   Cn2 ,v053
 .byte   Cn4
 .byte   TIE ,Gn2 ,v064
 .byte   TIE ,Gn4 ,v044
 .byte   W96
@  #01 @005   ----------------------------------------
 .byte   W96
@  #01 @006   ----------------------------------------
 .byte   EOT
 .byte   Gn2 ,v079
@  #01 @007   ----------------------------------------
 .byte   PATT
  .word Label_01572C79
@  #01 @008   ----------------------------------------
 .byte   W72
 .byte   EOT
 .byte   Cn2
 .byte   W24
@  #01 @009   ----------------------------------------
 .byte   Fn2 ,v072
 .byte   N60 ,Fn4 ,v064
 .byte   W60
 .byte   N12 ,Ds4
 .byte   N12 ,Fn4 ,v036
 .byte   W12
 .byte   Ds4
 .byte   N12 ,Fn4 ,v064
 .byte   W12
 .byte   Fn4 ,v036
 .byte   N12 ,Gn4 ,v064
 .byte   W12
@  #01 @010   ----------------------------------------
Label_01572CB8:
 .byte   N12 ,Gn4 ,v036
 .byte   N36 ,Gs4 ,v064
 .byte   W36
 .byte   N12 ,Gs4 ,v036
 .byte   N12 ,As4 ,v064
 .byte   W12
 .byte   As4 ,v036
 .byte   N48 ,Cn5 ,v064
 .byte   W48
 .byte   PEND 
@  #01 @011   ----------------------------------------
Label_01572CCD:
 .byte   N24 ,Cn5 ,v064
 .byte   W24
 .byte   Fn4
 .byte   N12 ,Cn5 ,v036
 .byte   W24
 .byte   Fn4
 .byte   N24 ,As4 ,v064
 .byte   W24
 .byte   N12 ,Gs4
 .byte   N12 ,As4 ,v036
 .byte   W12
 .byte   Gn4 ,v064
 .byte   N12 ,Gs4 ,v036
 .byte   W12
 .byte   PEND 
@  #01 @012   ----------------------------------------
 .byte   N24 ,Fn4 ,v064
 .byte   N12 ,Gn4 ,v036
 .byte   W24
 .byte   Fn4
 .byte   N12 ,Gn4 ,v064
 .byte   W12
 .byte   N36 ,Fn4
 .byte   N12 ,Gn4 ,v036
 .byte   W36
 .byte   N24 ,Cn4 ,v064
 .byte   N12 ,Fn4 ,v036
 .byte   W24
@  #01 @013   ----------------------------------------
 .byte   Cn4
 .byte   W24
 .byte   N36 ,Fn4 ,v064
 .byte   W36
 .byte   N12 ,Ds4
 .byte   N12 ,Fn4 ,v036
 .byte   W12
 .byte   Ds4
 .byte   N12 ,Fn4 ,v064
 .byte   W12
 .byte   Fn4 ,v036
 .byte   N12 ,Gn4 ,v064
 .byte   W12
@  #01 @014   ----------------------------------------
 .byte   PATT
  .word Label_01572CB8
@  #01 @015   ----------------------------------------
 .byte   PATT
  .word Label_01572CCD
@  #01 @016   ----------------------------------------
 .byte   N24 ,Fn4 ,v064
 .byte   N12 ,Gn4 ,v036
 .byte   W24
 .byte   Fn4
 .byte   N12 ,Gn4 ,v064
 .byte   W12
 .byte   N36 ,Fn4
 .byte   N12 ,Gn4 ,v036
 .byte   W36
 .byte   N24 ,En4 ,v064
 .byte   N12 ,Fn4 ,v036
 .byte   W24
@  #01 @017   ----------------------------------------
 .byte   En4
 .byte   TIE ,Fn4 ,v064
 .byte   W96
@  #01 @018   ----------------------------------------
 .byte   W96
@  #01 @019   ----------------------------------------
 .byte   EOT
 .byte   N12 ,Fn4 ,v036
 .byte   W96
@  #01 @020   ----------------------------------------
 .byte   W96
@  #01 @021   ----------------------------------------
Label_01572D47:
 .byte   W96
@  #01 @022   ----------------------------------------
 .byte   W96
@  #01 @023   ----------------------------------------
 .byte   TIE ,Cn4 ,v044
 .byte   W96
@  #01 @024   ----------------------------------------
 .byte   W96
@  #01 @025   ----------------------------------------
 .byte   W96
@  #01 @026   ----------------------------------------
 .byte   W96
@  #01 @027   ----------------------------------------
 .byte   EOT
 .byte   TIE
 .byte   W96
@  #01 @028   ----------------------------------------
 .byte   W96
@  #01 @029   ----------------------------------------
 .byte   W96
@  #01 @030   ----------------------------------------
 .byte   W96
@  #01 @031   ----------------------------------------
 .byte   EOT
 .byte   TIE
 .byte   W96
@  #01 @032   ----------------------------------------
 .byte   W96
@  #01 @033   ----------------------------------------
 .byte   W96
@  #01 @034   ----------------------------------------
 .byte   W96
@  #01 @035   ----------------------------------------
 .byte   EOT
 .byte   TIE
 .byte   W96
@  #01 @036   ----------------------------------------
 .byte   W96
@  #01 @037   ----------------------------------------
 .byte   W96
@  #01 @038   ----------------------------------------
 .byte   W96
@  #01 @039   ----------------------------------------
 .byte   EOT
Label_01572D63:
 .byte   TIE ,Gn2 ,v064
 .byte   TIE ,Gn3
 .byte   W96
 .byte   PEND 
@  #01 @040   ----------------------------------------
 .byte   W96
@  #01 @041   ----------------------------------------
 .byte   EOT
 .byte   Gn2 ,v067
Label_01572D6E:
 .byte   N36 ,Fn2 ,v064
 .byte   TIE ,As3
 .byte   W36
 .byte   Cn2
 .byte   W60
 .byte   PEND 
@  #01 @042   ----------------------------------------
 .byte   W96
@  #01 @043   ----------------------------------------
 .byte   EOT
 .byte   EOT
 .byte   As3
 .byte   TIE ,Cn4
 .byte   W96
@  #01 @044   ----------------------------------------
 .byte   W96
@  #01 @045   ----------------------------------------
 .byte   EOT
 .byte   TIE
 .byte   W96
@  #01 @046   ----------------------------------------
 .byte   W96
@  #01 @047   ----------------------------------------
 .byte   EOT
Label_01572D84:
 .byte   N48 ,Cn3 ,v064
 .byte   W48
 .byte   Bn2
 .byte   W48
 .byte   PEND 
@  #01 @048   ----------------------------------------
Label_01572D8B:
 .byte   N48 ,As2 ,v064
 .byte   W48
 .byte   Ds3
 .byte   W48
 .byte   PEND 
@  #01 @049   ----------------------------------------
Label_01572D92:
 .byte   N48 ,Cn3 ,v064
 .byte   W48
 .byte   As2
 .byte   W48
 .byte   PEND 
@  #01 @050   ----------------------------------------
Label_01572D99:
 .byte   N48 ,Cn3 ,v064
 .byte   W48
 .byte   As2
 .byte   N48 ,Dn3
 .byte   W48
 .byte   PEND 
@  #01 @051   ----------------------------------------
 .byte   PATT
  .word Label_01572D84
@  #01 @052   ----------------------------------------
Label_01572DA7:
 .byte   N24 ,Cs3 ,v064
 .byte   W24
 .byte   N12 ,Cn3
 .byte   W12
 .byte   Bn2
 .byte   W60
 .byte   PEND 
@  #01 @053   ----------------------------------------
 .byte   W48
 .byte   N48 ,Ds3
 .byte   W48
@  #01 @054   ----------------------------------------
Label_01572DB5:
 .byte   N48 ,Cs3 ,v064
 .byte   W48
 .byte   Dn3
 .byte   W48
 .byte   PEND 
@  #01 @055   ----------------------------------------
Label_01572DBC:
 .byte   TIE ,Gs2 ,v056
 .byte   TIE ,Fn3 ,v064
 .byte   W96
 .byte   PEND 
@  #01 @056   ----------------------------------------
 .byte   W96
@  #01 @057   ----------------------------------------
 .byte   EOT
 .byte   Gs2 ,v065
Label_01572DC8:
 .byte   TIE ,As2 ,v056
 .byte   TIE ,Gn3 ,v064
 .byte   W96
 .byte   PEND 
@  #01 @058   ----------------------------------------
 .byte   W96
@  #01 @059   ----------------------------------------
 .byte   EOT
 .byte   As2 ,v067
@  #01 @060   ----------------------------------------
 .byte   PATT
  .word Label_01572DBC
@  #01 @061   ----------------------------------------
 .byte   W96
@  #01 @062   ----------------------------------------
 .byte   EOT
 .byte   Gs2 ,v065
@  #01 @063   ----------------------------------------
 .byte   PATT
  .word Label_01572DC8
@  #01 @064   ----------------------------------------
 .byte   W96
@  #01 @065   ----------------------------------------
 .byte   EOT
 .byte   As2 ,v067
@  #01 @066   ----------------------------------------
 .byte   PATT
  .word Label_01572DBC
@  #01 @067   ----------------------------------------
 .byte   W96
@  #01 @068   ----------------------------------------
 .byte   EOT
 .byte   Gs2 ,v065
@  #01 @069   ----------------------------------------
 .byte   PATT
  .word Label_01572DC8
@  #01 @070   ----------------------------------------
 .byte   W96
@  #01 @071   ----------------------------------------
 .byte   EOT
 .byte   As2 ,v067
@  #01 @072   ----------------------------------------
 .byte   PATT
  .word Label_01572DBC
@  #01 @073   ----------------------------------------
 .byte   W96
@  #01 @074   ----------------------------------------
 .byte   EOT
 .byte   Gs2 ,v065
@  #01 @075   ----------------------------------------
 .byte   PATT
  .word Label_01572DC8
@  #01 @076   ----------------------------------------
 .byte   W96
@  #01 @077   ----------------------------------------
 .byte   EOT
 .byte   As2 ,v067
@  #01 @078   ----------------------------------------
 .byte   PATT
  .word Label_01572D63
@  #01 @079   ----------------------------------------
 .byte   W96
@  #01 @080   ----------------------------------------
 .byte   EOT
 .byte   Gn2 ,v067
@  #01 @081   ----------------------------------------
 .byte   PATT
  .word Label_01572D6E
@  #01 @082   ----------------------------------------
 .byte   W96
@  #01 @083   ----------------------------------------
 .byte   EOT
 .byte   Cn2 ,v070
 .byte   TIE ,Cn4 ,v064
 .byte   W96
@  #01 @084   ----------------------------------------
 .byte   W96
@  #01 @085   ----------------------------------------
 .byte   EOT
 .byte   TIE
 .byte   W96
@  #01 @086   ----------------------------------------
 .byte   W96
@  #01 @087   ----------------------------------------
 .byte   EOT
@  #01 @088   ----------------------------------------
 .byte   PATT
  .word Label_01572D84
@  #01 @089   ----------------------------------------
 .byte   PATT
  .word Label_01572D8B
@  #01 @090   ----------------------------------------
 .byte   PATT
  .word Label_01572D92
@  #01 @091   ----------------------------------------
 .byte   PATT
  .word Label_01572D99
@  #01 @092   ----------------------------------------
 .byte   PATT
  .word Label_01572D84
@  #01 @093   ----------------------------------------
 .byte   PATT
  .word Label_01572DA7
@  #01 @094   ----------------------------------------
 .byte   W48
 .byte   N48 ,Ds3 ,v064
 .byte   W48
@  #01 @095   ----------------------------------------
 .byte   PATT
  .word Label_01572DB5
@  #01 @096   ----------------------------------------
 .byte   W96
@  #01 @097   ----------------------------------------
 .byte   W24
 .byte   N12 ,Ds3 ,v064
 .byte   W12
 .byte   Ds3 ,v036
 .byte   N12 ,Gs3 ,v064
 .byte   W12
 .byte   Gs3 ,v036
 .byte   N48 ,As3 ,v064
 .byte   W48
@  #01 @098   ----------------------------------------
 .byte   N12 ,As3 ,v036
 .byte   W96
@  #01 @099   ----------------------------------------
 .byte   W96
@  #01 @100   ----------------------------------------
 .byte   GOTO
  .word Label_01572D47
 .byte   FINE

@**************** Track 2 (Midi-Chn.1) ****************@

FeldschlactIII_002:
@  #02 @000   ----------------------------------------
 .byte   KEYSH , FeldschlactIII_key+0
 .byte   VOICE , 41
 .byte   VOL , 45*FeldschlactIII_mvl/mxv
 .byte   PAN , c_v+24
 .byte   TIE ,Ds3 ,v064
 .byte   TIE ,Gn3 ,v044
 .byte   W96
@  #02 @001   ----------------------------------------
 .byte   W96
@  #02 @002   ----------------------------------------
 .byte   EOT
 .byte   Ds3 ,v067
Label_015730B3:
 .byte   N36 ,Fn3 ,v064
 .byte   TIE ,Gn3 ,v044
 .byte   W36
 .byte   Cn3 ,v064
 .byte   W60
 .byte   PEND 
@  #02 @003   ----------------------------------------
 .byte   W96
@  #02 @004   ----------------------------------------
 .byte   EOT
 .byte   EOT
 .byte   Gn3
 .byte   TIE ,Ds3
 .byte   TIE ,Gn3 ,v044
 .byte   W96
@  #02 @005   ----------------------------------------
 .byte   W96
@  #02 @006   ----------------------------------------
 .byte   EOT
 .byte   Ds3 ,v067
@  #02 @007   ----------------------------------------
 .byte   PATT
  .word Label_015730B3
@  #02 @008   ----------------------------------------
 .byte   W96
@  #02 @009   ----------------------------------------
 .byte   EOT
 .byte   Cn3 ,v067
Label_015730D5:
 .byte   N48 ,Cn3 ,v064
 .byte   W48
 .byte   Bn2
 .byte   W48
 .byte   PEND 
@  #02 @010   ----------------------------------------
 .byte   As2
 .byte   W48
 .byte   Ds3
 .byte   W48
@  #02 @011   ----------------------------------------
 .byte   Cn3
 .byte   W48
 .byte   As2
 .byte   W48
@  #02 @012   ----------------------------------------
 .byte   Cn3
 .byte   W48
 .byte   As2
 .byte   N48 ,Dn3
 .byte   W48
@  #02 @013   ----------------------------------------
 .byte   PATT
  .word Label_015730D5
@  #02 @014   ----------------------------------------
 .byte   N24 ,Cs3 ,v064
 .byte   W24
 .byte   N12 ,Cn3
 .byte   W12
 .byte   Bn2
 .byte   W12
 .byte   N48 ,Cn3
 .byte   W48
@  #02 @015   ----------------------------------------
 .byte   W48
 .byte   Ds3
 .byte   W48
@  #02 @016   ----------------------------------------
 .byte   Cs3
 .byte   W48
 .byte   Dn3
 .byte   W48
@  #02 @017   ----------------------------------------
 .byte   Cn3 ,v056
 .byte   W48
 .byte   Bn2
 .byte   W48
@  #02 @018   ----------------------------------------
Label_01573107:
 .byte   N48 ,As2 ,v056
 .byte   W48
 .byte   Ds3
 .byte   W48
 .byte   PEND 
@  #02 @019   ----------------------------------------
 .byte   Gs2
 .byte   W48
 .byte   Gn2
 .byte   W48
@  #02 @020   ----------------------------------------
 .byte   Fs2
 .byte   W48
 .byte   Ds2
 .byte   W48
@  #02 @021   ----------------------------------------
Label_01573116:
 .byte   W96
@  #02 @022   ----------------------------------------
 .byte   W96
@  #02 @023   ----------------------------------------
 .byte   TIE ,Cn3 ,v052
 .byte   W96
@  #02 @024   ----------------------------------------
 .byte   W96
@  #02 @025   ----------------------------------------
 .byte   W96
@  #02 @026   ----------------------------------------
 .byte   W96
@  #02 @027   ----------------------------------------
 .byte   EOT
 .byte   TIE
 .byte   W96
@  #02 @028   ----------------------------------------
 .byte   W96
@  #02 @029   ----------------------------------------
 .byte   W96
@  #02 @030   ----------------------------------------
 .byte   W96
@  #02 @031   ----------------------------------------
 .byte   EOT
 .byte   TIE
 .byte   W96
@  #02 @032   ----------------------------------------
 .byte   W96
@  #02 @033   ----------------------------------------
 .byte   W96
@  #02 @034   ----------------------------------------
 .byte   W96
@  #02 @035   ----------------------------------------
 .byte   EOT
 .byte   TIE
 .byte   W96
@  #02 @036   ----------------------------------------
 .byte   W96
@  #02 @037   ----------------------------------------
 .byte   W96
@  #02 @038   ----------------------------------------
 .byte   W96
@  #02 @039   ----------------------------------------
 .byte   EOT
 .byte   TIE ,Ds3 ,v064
 .byte   W96
@  #02 @040   ----------------------------------------
 .byte   W96
@  #02 @041   ----------------------------------------
 .byte   EOT
 .byte   TIE ,Dn3
 .byte   W96
@  #02 @042   ----------------------------------------
 .byte   W96
@  #02 @043   ----------------------------------------
 .byte   EOT
Label_0157313D:
 .byte   TIE ,Gn2 ,v064
 .byte   TIE ,Ds3
 .byte   W96
 .byte   PEND 
@  #02 @044   ----------------------------------------
 .byte   W96
@  #02 @045   ----------------------------------------
 .byte   EOT
 .byte   Gn2 ,v063
Label_01573148:
 .byte   N36 ,Fn2 ,v064
 .byte   TIE ,Dn3
 .byte   TIE ,As3 ,v052
 .byte   W36
 .byte   Cn2 ,v064
 .byte   W60
 .byte   PEND 
@  #02 @046   ----------------------------------------
 .byte   W96
@  #02 @047   ----------------------------------------
 .byte   EOT
 .byte   EOT
 .byte   Dn3 ,v070
 .byte   TIE ,Fn3
 .byte   W96
@  #02 @048   ----------------------------------------
 .byte   W24
 .byte   EOT
 .byte   N12 ,Ds3
 .byte   N12 ,Fn3 ,v036
 .byte   W12
 .byte   Ds3
 .byte   N12 ,Gs3 ,v064
 .byte   W12
 .byte   Gs3 ,v036
 .byte   N48 ,As3 ,v064
 .byte   W48
@  #02 @049   ----------------------------------------
Label_01573170:
 .byte   N24 ,Fn3 ,v064
 .byte   N12 ,As3 ,v036
 .byte   W24
 .byte   N24 ,Ds3 ,v064
 .byte   W24
 .byte   N12 ,Fn3 ,v036
 .byte   N48 ,Gn3 ,v064
 .byte   W48
 .byte   PEND 
@  #02 @050   ----------------------------------------
Label_01573183:
 .byte   N96 ,Fn3 ,v064
 .byte   N12 ,Gn3 ,v036
 .byte   W96
 .byte   PEND 
@  #02 @051   ----------------------------------------
 .byte   TIE ,Fn3 ,v064
 .byte   W96
@  #02 @052   ----------------------------------------
 .byte   W48
 .byte   EOT
 .byte   N96 ,Cn3
 .byte   W48
@  #02 @053   ----------------------------------------
 .byte   W48
 .byte   N48
 .byte   W48
@  #02 @054   ----------------------------------------
 .byte   N96 ,As2
 .byte   W96
@  #02 @055   ----------------------------------------
 .byte   TIE ,Cs3
 .byte   W96
@  #02 @056   ----------------------------------------
 .byte   W96
@  #02 @057   ----------------------------------------
 .byte   EOT
 .byte   TIE ,Ds3
 .byte   W96
@  #02 @058   ----------------------------------------
 .byte   W96
@  #02 @059   ----------------------------------------
 .byte   EOT
 .byte   TIE ,Cs3
 .byte   W96
@  #02 @060   ----------------------------------------
 .byte   W96
@  #02 @061   ----------------------------------------
 .byte   EOT
 .byte   TIE ,Ds3
 .byte   W96
@  #02 @062   ----------------------------------------
 .byte   W96
@  #02 @063   ----------------------------------------
 .byte   EOT
 .byte   TIE ,Cs3
 .byte   W96
@  #02 @064   ----------------------------------------
 .byte   W96
@  #02 @065   ----------------------------------------
 .byte   EOT
 .byte   TIE ,Ds3
 .byte   W96
@  #02 @066   ----------------------------------------
 .byte   W96
@  #02 @067   ----------------------------------------
 .byte   EOT
 .byte   TIE ,Cs3
 .byte   W96
@  #02 @068   ----------------------------------------
 .byte   W96
@  #02 @069   ----------------------------------------
 .byte   EOT
 .byte   TIE ,Ds3
 .byte   W96
@  #02 @070   ----------------------------------------
 .byte   W96
@  #02 @071   ----------------------------------------
 .byte   EOT
 .byte   TIE
 .byte   W96
@  #02 @072   ----------------------------------------
 .byte   W96
@  #02 @073   ----------------------------------------
 .byte   EOT
 .byte   TIE ,Dn3
 .byte   W96
@  #02 @074   ----------------------------------------
 .byte   W96
@  #02 @075   ----------------------------------------
 .byte   EOT
@  #02 @076   ----------------------------------------
 .byte   PATT
  .word Label_0157313D
@  #02 @077   ----------------------------------------
 .byte   W96
@  #02 @078   ----------------------------------------
 .byte   EOT
 .byte   Gn2 ,v063
@  #02 @079   ----------------------------------------
 .byte   PATT
  .word Label_01573148
@  #02 @080   ----------------------------------------
 .byte   W96
@  #02 @081   ----------------------------------------
 .byte   EOT
 .byte   Cn2 ,v062
 .byte   As3
 .byte   TIE ,Fn3 ,v064
 .byte   W96
@  #02 @082   ----------------------------------------
 .byte   W24
 .byte   EOT
 .byte   N12 ,Ds3
 .byte   N12 ,Fn3 ,v036
 .byte   W12
 .byte   Ds3
 .byte   N12 ,Gs3 ,v064
 .byte   W12
 .byte   Gs3 ,v036
 .byte   N48 ,As3 ,v064
 .byte   W48
@  #02 @083   ----------------------------------------
 .byte   PATT
  .word Label_01573170
@  #02 @084   ----------------------------------------
 .byte   PATT
  .word Label_01573183
@  #02 @085   ----------------------------------------
 .byte   TIE ,Fn3 ,v064
 .byte   W96
@  #02 @086   ----------------------------------------
 .byte   W48
 .byte   EOT
 .byte   N96 ,Cn3
 .byte   W48
@  #02 @087   ----------------------------------------
 .byte   W48
 .byte   N48
 .byte   W48
@  #02 @088   ----------------------------------------
 .byte   N96 ,As2
 .byte   W96
@  #02 @089   ----------------------------------------
 .byte   N48 ,Cn3 ,v056
 .byte   TIE ,Fn3
 .byte   W48
 .byte   N48 ,Bn2
 .byte   W48
@  #02 @090   ----------------------------------------
 .byte   PATT
  .word Label_01573107
@  #02 @091   ----------------------------------------
 .byte   EOT
 .byte   Fn3
 .byte   N48 ,Gs2 ,v056
 .byte   TIE ,Cs3
 .byte   W48
 .byte   N48 ,Gn2
 .byte   W48
@  #02 @092   ----------------------------------------
 .byte   Fs2
 .byte   W24
 .byte   N12 ,Bn2 ,v064
 .byte   W12
 .byte   Bn2 ,v036
 .byte   N12 ,En3 ,v064
 .byte   W12
 .byte   N48 ,Ds2 ,v056
 .byte   N12 ,En3 ,v036
 .byte   N48 ,Fs3 ,v064
 .byte   W48
@  #02 @093   ----------------------------------------
 .byte   EOT
 .byte   Cs3
 .byte   GOTO
  .word Label_01573116
@  #02 @094   ----------------------------------------
 .byte   N12 ,Fs3 ,v036
 .byte   W12
 .byte   FINE

@**************** Track 3 (Midi-Chn.2) ****************@

FeldschlactIII_003:
@  #03 @000   ----------------------------------------
 .byte   KEYSH , FeldschlactIII_key+0
 .byte   VOICE , 73
 .byte   VOL , 44*FeldschlactIII_mvl/mxv
 .byte   PAN , c_v+24
 .byte   N06 ,Gn4 ,v064
 .byte   W48
 .byte   N06
 .byte   W36
 .byte   N06
 .byte   W12
@  #03 @001   ----------------------------------------
Label_01571F54:
 .byte   W36
 .byte   N06 ,Gn4 ,v064
 .byte   W24
 .byte   N06
 .byte   W36
 .byte   PEND 
@  #03 @002   ----------------------------------------
Label_01571F5C:
 .byte   N06 ,Gn4 ,v064
 .byte   W48
 .byte   N06
 .byte   W36
 .byte   N06
 .byte   W12
 .byte   PEND 
@  #03 @003   ----------------------------------------
 .byte   PATT
  .word Label_01571F54
@  #03 @004   ----------------------------------------
 .byte   PATT
  .word Label_01571F5C
@  #03 @005   ----------------------------------------
 .byte   PATT
  .word Label_01571F54
@  #03 @006   ----------------------------------------
 .byte   PATT
  .word Label_01571F5C
@  #03 @007   ----------------------------------------
 .byte   PATT
  .word Label_01571F54
@  #03 @008   ----------------------------------------
 .byte   W96
@  #03 @009   ----------------------------------------
 .byte   W96
@  #03 @010   ----------------------------------------
 .byte   W96
@  #03 @011   ----------------------------------------
 .byte   W96
@  #03 @012   ----------------------------------------
 .byte   W96
@  #03 @013   ----------------------------------------
 .byte   W96
@  #03 @014   ----------------------------------------
 .byte   W96
@  #03 @015   ----------------------------------------
 .byte   W96
@  #03 @016   ----------------------------------------
 .byte   W96
@  #03 @017   ----------------------------------------
 .byte   W96
@  #03 @018   ----------------------------------------
 .byte   W96
@  #03 @019   ----------------------------------------
 .byte   W96
@  #03 @020   ----------------------------------------
Label_01571F8A:
 .byte   W96
@  #03 @021   ----------------------------------------
 .byte   W60
 .byte   N05 ,Gn4 ,v064
 .byte   W06
 .byte   Fn4
 .byte   W06
 .byte   Cn4
 .byte   W06
 .byte   As3
 .byte   W06
 .byte   Fn3
 .byte   W06
 .byte   Cn3
 .byte   W06
@  #03 @022   ----------------------------------------
Label_01571F9A:
 .byte   W12
 .byte   N02 ,Fn4 ,v064
 .byte   W24
 .byte   N23 ,Ds4
 .byte   N02 ,As4
 .byte   W24
 .byte   Fn4
 .byte   W24
 .byte   Cn5
 .byte   W12
 .byte   PEND 
@  #03 @023   ----------------------------------------
Label_01571FA9:
 .byte   W12
 .byte   N02 ,Fn4 ,v064
 .byte   W24
 .byte   As4
 .byte   W24
 .byte   Fn4
 .byte   W24
 .byte   As4
 .byte   W12
 .byte   PEND 
@  #03 @024   ----------------------------------------
 .byte   PATT
  .word Label_01571F9A
@  #03 @025   ----------------------------------------
Label_01571FBA:
 .byte   W12
 .byte   N02 ,Fn4 ,v064
 .byte   W24
 .byte   As4
 .byte   W24
 .byte   Fn4
 .byte   W24
 .byte   Cn5
 .byte   W12
 .byte   PEND 
@  #03 @026   ----------------------------------------
 .byte   PATT
  .word Label_01571F9A
@  #03 @027   ----------------------------------------
 .byte   PATT
  .word Label_01571FA9
@  #03 @028   ----------------------------------------
 .byte   PATT
  .word Label_01571F9A
@  #03 @029   ----------------------------------------
 .byte   PATT
  .word Label_01571FBA
@  #03 @030   ----------------------------------------
 .byte   PATT
  .word Label_01571F9A
@  #03 @031   ----------------------------------------
Label_01571FDF:
 .byte   W12
 .byte   N01 ,Fn4 ,v064
 .byte   W24
 .byte   N16 ,Ds4
 .byte   N01 ,As4
 .byte   W24
 .byte   Fn4
 .byte   W24
 .byte   As4
 .byte   W12
 .byte   PEND 
@  #03 @032   ----------------------------------------
Label_01571FEE:
 .byte   W12
 .byte   N01 ,Fn4 ,v064
 .byte   W24
 .byte   N22 ,Ds4
 .byte   N01 ,As4
 .byte   W24
 .byte   Fn4
 .byte   W24
 .byte   Cn5
 .byte   W12
 .byte   PEND 
@  #03 @033   ----------------------------------------
Label_01571FFD:
 .byte   W12
 .byte   N01 ,Fn4 ,v064
 .byte   W24
 .byte   As4
 .byte   W24
 .byte   Fn4
 .byte   W24
 .byte   Cn5
 .byte   W12
 .byte   PEND 
@  #03 @034   ----------------------------------------
 .byte   PATT
  .word Label_01571FEE
@  #03 @035   ----------------------------------------
 .byte   PATT
  .word Label_01571FDF
@  #03 @036   ----------------------------------------
 .byte   PATT
  .word Label_01571FEE
@  #03 @037   ----------------------------------------
 .byte   PATT
  .word Label_01571FFD
@  #03 @038   ----------------------------------------
Label_0157201D:
 .byte   N03 ,Gn4 ,v064
 .byte   W48
 .byte   N03
 .byte   W36
 .byte   N03
 .byte   W12
 .byte   PEND 
@  #03 @039   ----------------------------------------
Label_01572026:
 .byte   W24
 .byte   N03 ,Cn4 ,v064
 .byte   W12
 .byte   Gn4
 .byte   W24
 .byte   N03
 .byte   W36
 .byte   PEND 
@  #03 @040   ----------------------------------------
 .byte   PATT
  .word Label_0157201D
@  #03 @041   ----------------------------------------
 .byte   PATT
  .word Label_01572026
@  #03 @042   ----------------------------------------
 .byte   PATT
  .word Label_0157201D
@  #03 @043   ----------------------------------------
 .byte   PATT
  .word Label_01572026
@  #03 @044   ----------------------------------------
 .byte   PATT
  .word Label_0157201D
@  #03 @045   ----------------------------------------
 .byte   PATT
  .word Label_01572026
@  #03 @046   ----------------------------------------
 .byte   W96
@  #03 @047   ----------------------------------------
 .byte   W96
@  #03 @048   ----------------------------------------
 .byte   W96
@  #03 @049   ----------------------------------------
 .byte   W96
@  #03 @050   ----------------------------------------
 .byte   W96
@  #03 @051   ----------------------------------------
 .byte   W96
@  #03 @052   ----------------------------------------
 .byte   W96
@  #03 @053   ----------------------------------------
 .byte   W96
@  #03 @054   ----------------------------------------
 .byte   W96
@  #03 @055   ----------------------------------------
 .byte   W96
@  #03 @056   ----------------------------------------
 .byte   W96
@  #03 @057   ----------------------------------------
 .byte   W96
@  #03 @058   ----------------------------------------
 .byte   W96
@  #03 @059   ----------------------------------------
 .byte   W96
@  #03 @060   ----------------------------------------
 .byte   W96
@  #03 @061   ----------------------------------------
 .byte   W96
@  #03 @062   ----------------------------------------
Label_0157205E:
 .byte   W12
 .byte   N48 ,Cn5 ,v036
 .byte   W48
 .byte   N24 ,As4
 .byte   W24
 .byte   Cn5
 .byte   W12
 .byte   PEND 
@  #03 @063   ----------------------------------------
Label_01572069:
 .byte   W12
 .byte   N24 ,Gn4 ,v036
 .byte   W24
 .byte   Gs4
 .byte   W24
 .byte   Ds4
 .byte   W24
 .byte   N21 ,Fn4
 .byte   W12
 .byte   PEND 
@  #03 @064   ----------------------------------------
 .byte   W09
 .byte   N03
 .byte   W03
 .byte   N48 ,Gn4
 .byte   W48
 .byte   N96 ,Cn4
 .byte   W36
@  #03 @065   ----------------------------------------
 .byte   W60
 .byte   N48 ,Gn4
 .byte   W36
@  #03 @066   ----------------------------------------
 .byte   PATT
  .word Label_0157205E
@  #03 @067   ----------------------------------------
 .byte   PATT
  .word Label_01572069
@  #03 @068   ----------------------------------------
 .byte   W09
 .byte   N03 ,Fn4 ,v036
 .byte   W03
 .byte   N48 ,Gn4
 .byte   W48
 .byte   TIE ,Cn5
 .byte   W36
@  #03 @069   ----------------------------------------
 .byte   W96
@  #03 @070   ----------------------------------------
 .byte   N06 ,Gn4 ,v064
 .byte   W12
 .byte   EOT
 .byte   Cn5
 .byte   W36
 .byte   N06 ,Gn4
 .byte   W36
 .byte   N06
 .byte   W12
@  #03 @071   ----------------------------------------
 .byte   PATT
  .word Label_01571F54
@  #03 @072   ----------------------------------------
 .byte   PATT
  .word Label_01571F5C
@  #03 @073   ----------------------------------------
 .byte   PATT
  .word Label_01571F54
@  #03 @074   ----------------------------------------
 .byte   PATT
  .word Label_01571F5C
@  #03 @075   ----------------------------------------
 .byte   PATT
  .word Label_01571F54
@  #03 @076   ----------------------------------------
 .byte   PATT
  .word Label_01571F5C
@  #03 @077   ----------------------------------------
 .byte   PATT
  .word Label_01571F54
@  #03 @078   ----------------------------------------
 .byte   W96
@  #03 @079   ----------------------------------------
 .byte   W96
@  #03 @080   ----------------------------------------
 .byte   W96
@  #03 @081   ----------------------------------------
 .byte   W96
@  #03 @082   ----------------------------------------
 .byte   W96
@  #03 @083   ----------------------------------------
 .byte   W96
@  #03 @084   ----------------------------------------
 .byte   W96
@  #03 @085   ----------------------------------------
 .byte   W96
@  #03 @086   ----------------------------------------
 .byte   N56 ,Fn4 ,v064
 .byte   W60
 .byte   N11 ,Ds4
 .byte   N11 ,Fn4 ,v036
 .byte   W12
 .byte   Ds4
 .byte   N11 ,Fn4 ,v064
 .byte   W12
 .byte   Fn4 ,v036
 .byte   N11 ,Gn4 ,v064
 .byte   W12
@  #03 @087   ----------------------------------------
 .byte   Gn4 ,v036
 .byte   N32 ,Gs4 ,v064
 .byte   W36
 .byte   N11 ,Gs4 ,v036
 .byte   N11 ,As4 ,v064
 .byte   W12
 .byte   As4 ,v036
 .byte   N44 ,Cn5 ,v064
 .byte   W48
@  #03 @088   ----------------------------------------
 .byte   N56 ,Cs4
 .byte   N11 ,Cn5 ,v036
 .byte   W60
 .byte   Cn4 ,v064
 .byte   N11 ,Cs4 ,v036
 .byte   W12
 .byte   Cn4
 .byte   N11 ,Cs4 ,v064
 .byte   W12
 .byte   Cs4 ,v036
 .byte   N11 ,Ds4 ,v064
 .byte   W12
@  #03 @089   ----------------------------------------
 .byte   Ds4 ,v036
 .byte   N32 ,En4 ,v064
 .byte   W36
 .byte   N11 ,En4 ,v036
 .byte   N11 ,Fs4 ,v064
 .byte   W12
 .byte   Fs4 ,v036
 .byte   N44 ,Gs4 ,v064
 .byte   W48
@  #03 @090   ----------------------------------------
 .byte   GOTO
  .word Label_01571F8A
@  #03 @091   ----------------------------------------
 .byte   N11 ,Gs4 ,v036
 .byte   W11
 .byte   FINE

@**************** Track 4 (Midi-Chn.3) ****************@

FeldschlactIII_004:
@  #04 @000   ----------------------------------------
 .byte   KEYSH , FeldschlactIII_key+0
 .byte   VOICE , 73
 .byte   VOL , 44*FeldschlactIII_mvl/mxv
 .byte   PAN , c_v-26
 .byte   W24
 .byte   N06 ,Cn4 ,v064
 .byte   W48
 .byte   N06
 .byte   W24
@  #04 @001   ----------------------------------------
 .byte   W12
 .byte   N06
 .byte   W84
@  #04 @002   ----------------------------------------
Label_01572F82:
 .byte   W24
 .byte   N06 ,Cn4 ,v064
 .byte   W48
 .byte   N06
 .byte   W24
 .byte   PEND 
@  #04 @003   ----------------------------------------
Label_01572F8A:
 .byte   W12
 .byte   N06 ,Cn4 ,v064
 .byte   W60
 .byte   N06
 .byte   W24
 .byte   PEND 
@  #04 @004   ----------------------------------------
 .byte   PATT
  .word Label_01572F82
@  #04 @005   ----------------------------------------
 .byte   W12
 .byte   N06 ,Cn4 ,v064
 .byte   W84
@  #04 @006   ----------------------------------------
 .byte   PATT
  .word Label_01572F82
@  #04 @007   ----------------------------------------
 .byte   PATT
  .word Label_01572F8A
@  #04 @008   ----------------------------------------
 .byte   W96
@  #04 @009   ----------------------------------------
 .byte   W96
@  #04 @010   ----------------------------------------
 .byte   W96
@  #04 @011   ----------------------------------------
 .byte   W96
@  #04 @012   ----------------------------------------
 .byte   W96
@  #04 @013   ----------------------------------------
 .byte   W96
@  #04 @014   ----------------------------------------
 .byte   W96
@  #04 @015   ----------------------------------------
 .byte   W96
@  #04 @016   ----------------------------------------
 .byte   W96
@  #04 @017   ----------------------------------------
 .byte   W96
@  #04 @018   ----------------------------------------
 .byte   W96
@  #04 @019   ----------------------------------------
 .byte   W96
@  #04 @020   ----------------------------------------
Label_01572FB2:
 .byte   W96
@  #04 @021   ----------------------------------------
 .byte   W96
@  #04 @022   ----------------------------------------
 .byte   W96
@  #04 @023   ----------------------------------------
 .byte   W96
@  #04 @024   ----------------------------------------
 .byte   W96
@  #04 @025   ----------------------------------------
 .byte   W96
@  #04 @026   ----------------------------------------
 .byte   W96
@  #04 @027   ----------------------------------------
 .byte   W96
@  #04 @028   ----------------------------------------
 .byte   W96
@  #04 @029   ----------------------------------------
 .byte   W96
@  #04 @030   ----------------------------------------
 .byte   W96
@  #04 @031   ----------------------------------------
 .byte   W96
@  #04 @032   ----------------------------------------
 .byte   W96
@  #04 @033   ----------------------------------------
 .byte   W96
@  #04 @034   ----------------------------------------
 .byte   W96
@  #04 @035   ----------------------------------------
 .byte   W96
@  #04 @036   ----------------------------------------
 .byte   W96
@  #04 @037   ----------------------------------------
 .byte   W96
@  #04 @038   ----------------------------------------
 .byte   PATT
  .word Label_01572F82
@  #04 @039   ----------------------------------------
 .byte   W12
 .byte   N06 ,Cn4 ,v064
 .byte   W84
@  #04 @040   ----------------------------------------
 .byte   PATT
  .word Label_01572F82
@  #04 @041   ----------------------------------------
 .byte   PATT
  .word Label_01572F8A
@  #04 @042   ----------------------------------------
 .byte   PATT
  .word Label_01572F82
@  #04 @043   ----------------------------------------
 .byte   W12
 .byte   N06 ,Cn4 ,v064
 .byte   W84
@  #04 @044   ----------------------------------------
 .byte   PATT
  .word Label_01572F82
@  #04 @045   ----------------------------------------
 .byte   PATT
  .word Label_01572F8A
@  #04 @046   ----------------------------------------
 .byte   W96
@  #04 @047   ----------------------------------------
 .byte   W96
@  #04 @048   ----------------------------------------
 .byte   W96
@  #04 @049   ----------------------------------------
 .byte   W96
@  #04 @050   ----------------------------------------
 .byte   W96
@  #04 @051   ----------------------------------------
 .byte   W96
@  #04 @052   ----------------------------------------
 .byte   W96
@  #04 @053   ----------------------------------------
 .byte   W96
@  #04 @054   ----------------------------------------
 .byte   W96
@  #04 @055   ----------------------------------------
 .byte   W96
@  #04 @056   ----------------------------------------
 .byte   W96
@  #04 @057   ----------------------------------------
 .byte   W96
@  #04 @058   ----------------------------------------
 .byte   W96
@  #04 @059   ----------------------------------------
 .byte   W96
@  #04 @060   ----------------------------------------
 .byte   W96
@  #04 @061   ----------------------------------------
 .byte   W96
@  #04 @062   ----------------------------------------
Label_01572FFC:
 .byte   N48 ,Cn5 ,v064
 .byte   W48
 .byte   N24 ,As4
 .byte   W24
 .byte   Cn5
 .byte   W24
 .byte   PEND 
@  #04 @063   ----------------------------------------
Label_01573006:
 .byte   N24 ,Gn4 ,v064
 .byte   W24
 .byte   Gs4
 .byte   W24
 .byte   Ds4
 .byte   W24
 .byte   N21 ,Fn4
 .byte   W21
 .byte   N03
 .byte   W03
 .byte   PEND 
@  #04 @064   ----------------------------------------
 .byte   N48 ,Gn4
 .byte   W48
 .byte   N96 ,Cn4
 .byte   W48
@  #04 @065   ----------------------------------------
 .byte   W48
 .byte   N48 ,Gn4
 .byte   W48
@  #04 @066   ----------------------------------------
 .byte   PATT
  .word Label_01572FFC
@  #04 @067   ----------------------------------------
 .byte   PATT
  .word Label_01573006
@  #04 @068   ----------------------------------------
 .byte   N48 ,Gn4 ,v064
 .byte   W48
 .byte   TIE ,Cn5
 .byte   W48
@  #04 @069   ----------------------------------------
 .byte   W96
@  #04 @070   ----------------------------------------
 .byte   EOT
@  #04 @071   ----------------------------------------
 .byte   PATT
  .word Label_01572F82
@  #04 @072   ----------------------------------------
 .byte   W12
 .byte   N06 ,Cn4 ,v064
 .byte   W84
@  #04 @073   ----------------------------------------
 .byte   PATT
  .word Label_01572F82
@  #04 @074   ----------------------------------------
 .byte   PATT
  .word Label_01572F8A
@  #04 @075   ----------------------------------------
 .byte   PATT
  .word Label_01572F82
@  #04 @076   ----------------------------------------
 .byte   W12
 .byte   N06 ,Cn4 ,v064
 .byte   W84
@  #04 @077   ----------------------------------------
 .byte   PATT
  .word Label_01572F82
@  #04 @078   ----------------------------------------
 .byte   PATT
  .word Label_01572F8A
@  #04 @079   ----------------------------------------
 .byte   W96
@  #04 @080   ----------------------------------------
 .byte   W96
@  #04 @081   ----------------------------------------
 .byte   W96
@  #04 @082   ----------------------------------------
 .byte   W96
@  #04 @083   ----------------------------------------
 .byte   W96
@  #04 @084   ----------------------------------------
 .byte   W96
@  #04 @085   ----------------------------------------
 .byte   W96
@  #04 @086   ----------------------------------------
 .byte   W96
@  #04 @087   ----------------------------------------
 .byte   W96
@  #04 @088   ----------------------------------------
 .byte   W96
@  #04 @089   ----------------------------------------
 .byte   W96
@  #04 @090   ----------------------------------------
 .byte   W96
@  #04 @091   ----------------------------------------
 .byte   GOTO
  .word Label_01572FB2
 .byte   FINE

@**************** Track 5 (Midi-Chn.4) ****************@

FeldschlactIII_005:
@  #05 @000   ----------------------------------------
 .byte   KEYSH , FeldschlactIII_key+0
 .byte   VOICE , 0
 .byte   VOL , 57*FeldschlactIII_mvl/mxv
 .byte   W06
 .byte   N03 ,Ds3 ,v056
 .byte   W06
 .byte   Fn3
 .byte   W06
 .byte   Gn3
 .byte   W06
 .byte   Cn4
 .byte   W06
 .byte   Gn3
 .byte   W06
 .byte   Ds3
 .byte   W06
 .byte   Fn3
 .byte   W06
 .byte   Gn3
 .byte   W06
 .byte   Ds3
 .byte   W06
 .byte   Fn3
 .byte   W06
 .byte   Gn3
 .byte   W06
 .byte   Cn4
 .byte   W06
 .byte   Gn3
 .byte   W06
 .byte   Ds3
 .byte   W06
 .byte   Fn3
 .byte   W06
@  #05 @001   ----------------------------------------
Label_01572977:
 .byte   N03 ,Gn3 ,v056
 .byte   W06
 .byte   Ds3
 .byte   W06
 .byte   Fn3
 .byte   W06
 .byte   Gn3
 .byte   W06
 .byte   Cn4
 .byte   W06
 .byte   Gn3
 .byte   W06
 .byte   Ds3
 .byte   W06
 .byte   Fn3
 .byte   W06
 .byte   Gn3
 .byte   W06
 .byte   Ds3
 .byte   W06
 .byte   Fn3
 .byte   W06
 .byte   Gn3
 .byte   W06
 .byte   Cn4
 .byte   W06
 .byte   Gn3
 .byte   W06
 .byte   Ds3
 .byte   W06
 .byte   Fn3
 .byte   W06
 .byte   PEND 
@  #05 @002   ----------------------------------------
 .byte   PATT
  .word Label_01572977
@  #05 @003   ----------------------------------------
 .byte   PATT
  .word Label_01572977
@  #05 @004   ----------------------------------------
 .byte   PATT
  .word Label_01572977
@  #05 @005   ----------------------------------------
 .byte   PATT
  .word Label_01572977
@  #05 @006   ----------------------------------------
 .byte   PATT
  .word Label_01572977
@  #05 @007   ----------------------------------------
 .byte   PATT
  .word Label_01572977
@  #05 @008   ----------------------------------------
 .byte   W96
@  #05 @009   ----------------------------------------
 .byte   W96
@  #05 @010   ----------------------------------------
 .byte   W96
@  #05 @011   ----------------------------------------
 .byte   W96
@  #05 @012   ----------------------------------------
 .byte   W96
@  #05 @013   ----------------------------------------
 .byte   W96
@  #05 @014   ----------------------------------------
 .byte   W96
@  #05 @015   ----------------------------------------
 .byte   W96
@  #05 @016   ----------------------------------------
 .byte   W96
@  #05 @017   ----------------------------------------
 .byte   W96
@  #05 @018   ----------------------------------------
 .byte   W96
@  #05 @019   ----------------------------------------
 .byte   W96
@  #05 @020   ----------------------------------------
Label_015729C4:
 .byte   N06 ,Cn4 ,v064
 .byte   W12
 .byte   Bn2
 .byte   W12
 .byte   Cn4
 .byte   W12
 .byte   N24 ,Ds3
 .byte   N24 ,Fs3
 .byte   N06 ,Bn3
 .byte   W12
 .byte   En3
 .byte   W12
 .byte   Bn3
 .byte   W12
 .byte   As3
 .byte   W12
 .byte   Ds3
 .byte   W12
@  #05 @021   ----------------------------------------
 .byte   N24 ,Fn3
 .byte   N24 ,An3
 .byte   W96
@  #05 @022   ----------------------------------------
 .byte   N03 ,Cn4
 .byte   W12
 .byte   N03
 .byte   W24
 .byte   As3
 .byte   W12
 .byte   N03
 .byte   W12
 .byte   Cn4
 .byte   W24
 .byte   N03
 .byte   W06
 .byte   N03
 .byte   W06
@  #05 @023   ----------------------------------------
Label_015729EF:
 .byte   N03 ,As3 ,v064
 .byte   W24
 .byte   N03
 .byte   W12
 .byte   Cn4
 .byte   W24
 .byte   N03
 .byte   W12
 .byte   As3
 .byte   W24
 .byte   PEND 
@  #05 @024   ----------------------------------------
 .byte   N03
 .byte   N03 ,Cn4
 .byte   W12
 .byte   N03
 .byte   W24
 .byte   N03
 .byte   W06
 .byte   N03
 .byte   W30
 .byte   As3
 .byte   W12
 .byte   Cn4
 .byte   W12
@  #05 @025   ----------------------------------------
 .byte   W12
 .byte   N03
 .byte   W12
 .byte   As3
 .byte   W12
 .byte   Cn4
 .byte   W24
 .byte   N03
 .byte   W24
 .byte   N03
 .byte   W06
 .byte   N03
 .byte   W06
@  #05 @026   ----------------------------------------
 .byte   As3
 .byte   W24
 .byte   N03
 .byte   W12
 .byte   N03
 .byte   W36
 .byte   N03
 .byte   W24
@  #05 @027   ----------------------------------------
 .byte   N03
 .byte   W12
 .byte   Cn4
 .byte   W12
 .byte   As3
 .byte   W12
 .byte   Cn4
 .byte   W06
 .byte   N03
 .byte   W06
 .byte   As3
 .byte   W24
 .byte   N03
 .byte   W12
 .byte   Cn4
 .byte   W12
@  #05 @028   ----------------------------------------
 .byte   W36
 .byte   As3
 .byte   W12
 .byte   N03
 .byte   W12
 .byte   Cn4
 .byte   W24
 .byte   N03
 .byte   W06
 .byte   N03
 .byte   W06
@  #05 @029   ----------------------------------------
 .byte   PATT
  .word Label_015729EF
@  #05 @030   ----------------------------------------
 .byte   W36
 .byte   N03 ,Fn3 ,v064
 .byte   W12
 .byte   Gn3
 .byte   W12
 .byte   Gs3
 .byte   W12
 .byte   Ds3
 .byte   W12
 .byte   Cs3
 .byte   W12
@  #05 @031   ----------------------------------------
 .byte   Cn3
 .byte   W12
 .byte   Fn3
 .byte   W12
 .byte   Ds3
 .byte   W12
 .byte   Gs3
 .byte   W12
 .byte   Gn3
 .byte   W48
@  #05 @032   ----------------------------------------
 .byte   Cn4
 .byte   W12
 .byte   N03
 .byte   W12
 .byte   As3
 .byte   W12
 .byte   Cn4
 .byte   W12
 .byte   Gn3
 .byte   W12
 .byte   Gs3
 .byte   W36
@  #05 @033   ----------------------------------------
 .byte   W12
 .byte   Gn3
 .byte   W12
 .byte   As3
 .byte   W12
 .byte   N03
 .byte   W12
 .byte   Gs3
 .byte   W12
 .byte   Gn3
 .byte   W12
 .byte   Gs3
 .byte   W12
 .byte   As3
 .byte   W12
@  #05 @034   ----------------------------------------
 .byte   Cn4
 .byte   W48
 .byte   Gn3
 .byte   W12
 .byte   Gs3
 .byte   W12
 .byte   Ds3
 .byte   W12
 .byte   Fn3
 .byte   W12
@  #05 @035   ----------------------------------------
 .byte   Cn3
 .byte   W12
 .byte   Fn3
 .byte   W12
 .byte   Ds3
 .byte   W12
 .byte   Fn3
 .byte   W12
 .byte   Gn3
 .byte   W48
@  #05 @036   ----------------------------------------
 .byte   W12
 .byte   Cn4
 .byte   W12
 .byte   As3
 .byte   W12
 .byte   Cn4
 .byte   W12
 .byte   Gn3
 .byte   W12
 .byte   Gs3
 .byte   W12
 .byte   Ds3
 .byte   W24
@  #05 @037   ----------------------------------------
 .byte   W12
 .byte   Fn3
 .byte   N03 ,Gn3
 .byte   W12
 .byte   As3
 .byte   W12
 .byte   N03
 .byte   N03 ,Cn4
 .byte   W12
 .byte   Gs3
 .byte   W12
 .byte   Gn3
 .byte   N03 ,Cn4
 .byte   W12
 .byte   Gs3
 .byte   W12
 .byte   As3
 .byte   W12
@  #05 @038   ----------------------------------------
Label_01572AA7:
 .byte   W06
 .byte   N03 ,Ds3 ,v056
 .byte   W06
 .byte   Fn3
 .byte   W06
 .byte   Gn3
 .byte   W06
 .byte   Cn4
 .byte   W06
 .byte   Gn3
 .byte   W06
 .byte   Ds3
 .byte   W06
 .byte   Fn3
 .byte   W06
 .byte   Gn3
 .byte   W06
 .byte   Ds3
 .byte   W06
 .byte   Fn3
 .byte   W06
 .byte   Gn3
 .byte   W06
 .byte   Cn4
 .byte   W06
 .byte   Gn3
 .byte   W06
 .byte   Ds3
 .byte   W06
 .byte   Fn3
 .byte   W06
 .byte   PEND 
@  #05 @039   ----------------------------------------
 .byte   PATT
  .word Label_01572977
@  #05 @040   ----------------------------------------
 .byte   PATT
  .word Label_01572977
@  #05 @041   ----------------------------------------
 .byte   PATT
  .word Label_01572977
@  #05 @042   ----------------------------------------
 .byte   PATT
  .word Label_01572977
@  #05 @043   ----------------------------------------
 .byte   PATT
  .word Label_01572977
@  #05 @044   ----------------------------------------
 .byte   PATT
  .word Label_01572977
@  #05 @045   ----------------------------------------
 .byte   PATT
  .word Label_01572977
@  #05 @046   ----------------------------------------
 .byte   W96
@  #05 @047   ----------------------------------------
 .byte   W96
@  #05 @048   ----------------------------------------
 .byte   W96
@  #05 @049   ----------------------------------------
 .byte   W96
@  #05 @050   ----------------------------------------
 .byte   W96
@  #05 @051   ----------------------------------------
 .byte   W96
@  #05 @052   ----------------------------------------
Label_01572AF2:
 .byte   N02 ,Gn3 ,v080
 .byte   W06
 .byte   N02
 .byte   W06
 .byte   Gs3
 .byte   W12
 .byte   As3
 .byte   W12
 .byte   Cn4
 .byte   W12
 .byte   As3
 .byte   W12
 .byte   Gs3
 .byte   W12
 .byte   Gn3
 .byte   W12
 .byte   Fn3
 .byte   W06
 .byte   N02
 .byte   W06
 .byte   PEND 
@  #05 @053   ----------------------------------------
 .byte   PATT
  .word Label_01572AF2
@  #05 @054   ----------------------------------------
Label_01572B0E:
 .byte   N02 ,Gn3 ,v064
 .byte   N02 ,Dn4 ,v056
 .byte   W06
 .byte   Gn3 ,v064
 .byte   N02 ,Dn4 ,v056
 .byte   W06
 .byte   Gs3 ,v064
 .byte   N02 ,Ds4 ,v056
 .byte   W12
 .byte   As3 ,v064
 .byte   N02 ,Fn4 ,v056
 .byte   W12
 .byte   Cn4 ,v064
 .byte   N02 ,Gn4 ,v056
 .byte   W12
 .byte   As3 ,v064
 .byte   N02 ,Fn4 ,v056
 .byte   W12
 .byte   Gs3 ,v064
 .byte   N02 ,Ds4 ,v056
 .byte   W12
 .byte   Gn3 ,v064
 .byte   N02 ,Dn4 ,v056
 .byte   W12
 .byte   Fn3 ,v064
 .byte   N02 ,Cn4 ,v056
 .byte   W06
 .byte   Fn3 ,v064
 .byte   W06
 .byte   PEND 
@  #05 @055   ----------------------------------------
 .byte   PATT
  .word Label_01572B0E
@  #05 @056   ----------------------------------------
 .byte   PATT
  .word Label_01572B0E
@  #05 @057   ----------------------------------------
 .byte   PATT
  .word Label_01572B0E
@  #05 @058   ----------------------------------------
 .byte   PATT
  .word Label_01572B0E
@  #05 @059   ----------------------------------------
 .byte   PATT
  .word Label_01572B0E
@  #05 @060   ----------------------------------------
 .byte   PATT
  .word Label_01572B0E
@  #05 @061   ----------------------------------------
 .byte   PATT
  .word Label_01572B0E
@  #05 @062   ----------------------------------------
 .byte   PATT
  .word Label_01572B0E
@  #05 @063   ----------------------------------------
 .byte   PATT
  .word Label_01572B0E
@  #05 @064   ----------------------------------------
 .byte   PATT
  .word Label_01572B0E
@  #05 @065   ----------------------------------------
 .byte   PATT
  .word Label_01572B0E
@  #05 @066   ----------------------------------------
 .byte   PATT
  .word Label_01572B0E
@  #05 @067   ----------------------------------------
 .byte   PATT
  .word Label_01572B0E
@  #05 @068   ----------------------------------------
 .byte   PATT
  .word Label_01572B0E
@  #05 @069   ----------------------------------------
 .byte   PATT
  .word Label_01572B0E
@  #05 @070   ----------------------------------------
 .byte   PATT
  .word Label_01572AA7
@  #05 @071   ----------------------------------------
 .byte   PATT
  .word Label_01572977
@  #05 @072   ----------------------------------------
 .byte   PATT
  .word Label_01572977
@  #05 @073   ----------------------------------------
 .byte   PATT
  .word Label_01572977
@  #05 @074   ----------------------------------------
 .byte   PATT
  .word Label_01572977
@  #05 @075   ----------------------------------------
 .byte   PATT
  .word Label_01572977
@  #05 @076   ----------------------------------------
 .byte   PATT
  .word Label_01572977
@  #05 @077   ----------------------------------------
 .byte   PATT
  .word Label_01572977
@  #05 @078   ----------------------------------------
 .byte   W96
@  #05 @079   ----------------------------------------
 .byte   W96
@  #05 @080   ----------------------------------------
 .byte   W96
@  #05 @081   ----------------------------------------
 .byte   W96
@  #05 @082   ----------------------------------------
 .byte   W96
@  #05 @083   ----------------------------------------
 .byte   W96
@  #05 @084   ----------------------------------------
 .byte   W96
@  #05 @085   ----------------------------------------
 .byte   W96
@  #05 @086   ----------------------------------------
 .byte   W96
@  #05 @087   ----------------------------------------
 .byte   W96
@  #05 @088   ----------------------------------------
 .byte   W96
@  #05 @089   ----------------------------------------
 .byte   W96
@  #05 @090   ----------------------------------------
 .byte   GOTO
  .word Label_015729C4
 .byte   FINE

@**************** Track 6 (Midi-Chn.5) ****************@

FeldschlactIII_006:
@  #06 @000   ----------------------------------------
 .byte   KEYSH , FeldschlactIII_key+0
 .byte   VOICE , 1
 .byte   VOL , 51*FeldschlactIII_mvl/mxv
 .byte   W96
@  #06 @001   ----------------------------------------
 .byte   W96
@  #06 @002   ----------------------------------------
 .byte   W96
@  #06 @003   ----------------------------------------
Label_01573781:
 .byte   W60
 .byte   N06 ,Cn4 ,v064
 .byte   W12
 .byte   N06
 .byte   N06 ,Fn4
 .byte   W12
 .byte   N06
 .byte   N06 ,As4
 .byte   W12
 .byte   PEND 
@  #06 @004   ----------------------------------------
Label_0157378F:
 .byte   N48 ,Gn4 ,v064
 .byte   N48 ,Cn5
 .byte   W84
 .byte   N06 ,Fn4
 .byte   N06 ,As4
 .byte   W12
 .byte   PEND 
@  #06 @005   ----------------------------------------
Label_0157379B:
 .byte   W12
 .byte   N06 ,Fn4 ,v064
 .byte   N06 ,As4
 .byte   W24
 .byte   Fn4
 .byte   N06 ,As4
 .byte   W12
 .byte   N06
 .byte   W12
 .byte   Gs4
 .byte   W12
 .byte   As4
 .byte   W24
 .byte   PEND 
@  #06 @006   ----------------------------------------
Label_015737AD:
 .byte   N06 ,Cn5 ,v064
 .byte   W12
 .byte   Fn4
 .byte   W12
 .byte   Cn4
 .byte   W24
 .byte   Fn4
 .byte   W24
 .byte   As4
 .byte   W24
 .byte   PEND 
@  #06 @007   ----------------------------------------
Label_015737BA:
 .byte   W06
 .byte   N06 ,Fn4 ,v064
 .byte   W06
 .byte   Cn4
 .byte   W12
 .byte   As4
 .byte   W36
 .byte   Fn4
 .byte   W12
 .byte   N06
 .byte   N06 ,As4
 .byte   W12
 .byte   N06
 .byte   N06 ,Fn5
 .byte   W12
 .byte   PEND 
@  #06 @008   ----------------------------------------
 .byte   W96
@  #06 @009   ----------------------------------------
Label_015737CF:
 .byte   W12
 .byte   N06 ,Fn4 ,v064
 .byte   W06
 .byte   Cn4
 .byte   W06
 .byte   As3
 .byte   W12
 .byte   Fn3
 .byte   W12
 .byte   Gn3
 .byte   W18
 .byte   Cn3
 .byte   W06
 .byte   Gs3
 .byte   W06
 .byte   Fn4
 .byte   W06
 .byte   As4
 .byte   W12
 .byte   PEND 
@  #06 @010   ----------------------------------------
Label_015737E5:
 .byte   N06 ,As3 ,v064
 .byte   W06
 .byte   Gs3
 .byte   W06
 .byte   Gn3
 .byte   W06
 .byte   Gs3
 .byte   W06
 .byte   N24 ,Ds4
 .byte   W72
 .byte   PEND 
@  #06 @011   ----------------------------------------
Label_015737F3:
 .byte   W72
 .byte   N06 ,As4 ,v064
 .byte   W06
 .byte   Gs4
 .byte   W06
 .byte   Gn4
 .byte   W06
 .byte   Gs4
 .byte   W06
 .byte   PEND 
@  #06 @012   ----------------------------------------
Label_015737FF:
 .byte   N06 ,Fn4 ,v064
 .byte   W06
 .byte   Cn4
 .byte   W06
 .byte   Fn3
 .byte   W48
 .byte   Gn3
 .byte   N06 ,Ds4
 .byte   W12
 .byte   Gs3
 .byte   N06 ,Fn4
 .byte   W12
 .byte   As3
 .byte   N06 ,Gn4
 .byte   W12
 .byte   PEND 
@  #06 @013   ----------------------------------------
Label_01573814:
 .byte   N06 ,Fn4 ,v064
 .byte   W06
 .byte   En4
 .byte   W06
 .byte   Fn4
 .byte   W06
 .byte   Gn4
 .byte   W06
 .byte   Gs4
 .byte   W06
 .byte   Gn4
 .byte   W06
 .byte   Gs4
 .byte   W06
 .byte   As4
 .byte   W06
 .byte   N24 ,Cn5
 .byte   W12
 .byte   N06 ,Gn3
 .byte   W06
 .byte   Gs3
 .byte   W06
 .byte   Cn4
 .byte   W06
 .byte   Fn4
 .byte   W06
 .byte   As4
 .byte   W06
 .byte   Cn5
 .byte   W06
 .byte   PEND 
@  #06 @014   ----------------------------------------
 .byte   W96
@  #06 @015   ----------------------------------------
 .byte   W96
@  #06 @016   ----------------------------------------
 .byte   W96
@  #06 @017   ----------------------------------------
 .byte   W96
@  #06 @018   ----------------------------------------
 .byte   W96
@  #06 @019   ----------------------------------------
 .byte   W96
@  #06 @020   ----------------------------------------
Label_0157383D:
 .byte   W96
@  #06 @021   ----------------------------------------
 .byte   W96
@  #06 @022   ----------------------------------------
Label_0157383F:
 .byte   N06 ,Gn3 ,v064
 .byte   W24
 .byte   N06
 .byte   W12
 .byte   N06
 .byte   W48
 .byte   N06
 .byte   W12
 .byte   PEND 
@  #06 @023   ----------------------------------------
Label_0157384A:
 .byte   W12
 .byte   N06 ,Gn3 ,v064
 .byte   W72
 .byte   Fn3
 .byte   W12
 .byte   PEND 
@  #06 @024   ----------------------------------------
 .byte   PATT
  .word Label_0157383F
@  #06 @025   ----------------------------------------
Label_01573857:
 .byte   W12
 .byte   N06 ,Gn3 ,v064
 .byte   W12
 .byte   N06
 .byte   W24
 .byte   N06
 .byte   W36
 .byte   Fn3
 .byte   W12
 .byte   PEND 
@  #06 @026   ----------------------------------------
 .byte   PATT
  .word Label_0157383F
@  #06 @027   ----------------------------------------
 .byte   PATT
  .word Label_0157384A
@  #06 @028   ----------------------------------------
 .byte   PATT
  .word Label_0157383F
@  #06 @029   ----------------------------------------
 .byte   PATT
  .word Label_01573857
@  #06 @030   ----------------------------------------
 .byte   PATT
  .word Label_0157383F
@  #06 @031   ----------------------------------------
 .byte   PATT
  .word Label_0157384A
@  #06 @032   ----------------------------------------
 .byte   PATT
  .word Label_0157383F
@  #06 @033   ----------------------------------------
 .byte   PATT
  .word Label_01573857
@  #06 @034   ----------------------------------------
 .byte   PATT
  .word Label_0157383F
@  #06 @035   ----------------------------------------
 .byte   PATT
  .word Label_0157384A
@  #06 @036   ----------------------------------------
 .byte   PATT
  .word Label_0157383F
@  #06 @037   ----------------------------------------
 .byte   PATT
  .word Label_01573857
@  #06 @038   ----------------------------------------
 .byte   W96
@  #06 @039   ----------------------------------------
 .byte   W96
@  #06 @040   ----------------------------------------
 .byte   W96
@  #06 @041   ----------------------------------------
 .byte   PATT
  .word Label_01573781
@  #06 @042   ----------------------------------------
 .byte   PATT
  .word Label_0157378F
@  #06 @043   ----------------------------------------
 .byte   PATT
  .word Label_0157379B
@  #06 @044   ----------------------------------------
 .byte   PATT
  .word Label_015737AD
@  #06 @045   ----------------------------------------
 .byte   PATT
  .word Label_015737BA
@  #06 @046   ----------------------------------------
 .byte   W96
@  #06 @047   ----------------------------------------
 .byte   PATT
  .word Label_015737CF
@  #06 @048   ----------------------------------------
 .byte   PATT
  .word Label_015737E5
@  #06 @049   ----------------------------------------
 .byte   PATT
  .word Label_015737F3
@  #06 @050   ----------------------------------------
 .byte   PATT
  .word Label_015737FF
@  #06 @051   ----------------------------------------
 .byte   PATT
  .word Label_01573814
@  #06 @052   ----------------------------------------
 .byte   W96
@  #06 @053   ----------------------------------------
 .byte   W96
@  #06 @054   ----------------------------------------
 .byte   W96
@  #06 @055   ----------------------------------------
 .byte   W96
@  #06 @056   ----------------------------------------
 .byte   W96
@  #06 @057   ----------------------------------------
 .byte   W96
@  #06 @058   ----------------------------------------
 .byte   W96
@  #06 @059   ----------------------------------------
 .byte   W96
@  #06 @060   ----------------------------------------
 .byte   W96
@  #06 @061   ----------------------------------------
 .byte   W96
@  #06 @062   ----------------------------------------
 .byte   W96
@  #06 @063   ----------------------------------------
 .byte   W96
@  #06 @064   ----------------------------------------
 .byte   W96
@  #06 @065   ----------------------------------------
 .byte   W96
@  #06 @066   ----------------------------------------
 .byte   W96
@  #06 @067   ----------------------------------------
 .byte   W96
@  #06 @068   ----------------------------------------
 .byte   W96
@  #06 @069   ----------------------------------------
 .byte   W96
@  #06 @070   ----------------------------------------
 .byte   W96
@  #06 @071   ----------------------------------------
 .byte   W96
@  #06 @072   ----------------------------------------
 .byte   W96
@  #06 @073   ----------------------------------------
 .byte   PATT
  .word Label_01573781
@  #06 @074   ----------------------------------------
 .byte   PATT
  .word Label_0157378F
@  #06 @075   ----------------------------------------
 .byte   PATT
  .word Label_0157379B
@  #06 @076   ----------------------------------------
 .byte   PATT
  .word Label_015737AD
@  #06 @077   ----------------------------------------
 .byte   PATT
  .word Label_015737BA
@  #06 @078   ----------------------------------------
 .byte   W96
@  #06 @079   ----------------------------------------
 .byte   PATT
  .word Label_015737CF
@  #06 @080   ----------------------------------------
 .byte   PATT
  .word Label_015737E5
@  #06 @081   ----------------------------------------
 .byte   N06 ,As3 ,v064
 .byte   W06
 .byte   Gs3
 .byte   W06
 .byte   Gn3
 .byte   W12
 .byte   Fn3
 .byte   W24
 .byte   N06
 .byte   W06
 .byte   Cn3
 .byte   W06
 .byte   Fn3
 .byte   W06
 .byte   Gs3
 .byte   W06
 .byte   Fn3
 .byte   W06
 .byte   Cn3
 .byte   W06
 .byte   As4
 .byte   W06
 .byte   Gs4
 .byte   W06
@  #06 @082   ----------------------------------------
 .byte   Fn4
 .byte   W12
 .byte   Fn3
 .byte   W24
 .byte   Cn4
 .byte   W24
 .byte   Fn4
 .byte   W36
@  #06 @083   ----------------------------------------
 .byte   Gs4
 .byte   W06
 .byte   Fn4
 .byte   W06
 .byte   Gn4
 .byte   W06
 .byte   Ds4
 .byte   W06
 .byte   Fn4
 .byte   W06
 .byte   Cs4
 .byte   W06
 .byte   Ds4
 .byte   W06
 .byte   Cn4
 .byte   W06
 .byte   Gn4
 .byte   W06
 .byte   Ds4
 .byte   W06
 .byte   Cn4
 .byte   W06
 .byte   As3
 .byte   W06
 .byte   Fn3
 .byte   W06
 .byte   Cs3
 .byte   W06
 .byte   As2
 .byte   W06
 .byte   Gs2
 .byte   W06
@  #06 @084   ----------------------------------------
 .byte   W60
 .byte   Fn3
 .byte   W12
 .byte   Fn4
 .byte   N06 ,Gs4
 .byte   W12
 .byte   As4
 .byte   W12
@  #06 @085   ----------------------------------------
 .byte   N23 ,Gn4
 .byte   N23 ,Cn5
 .byte   W24
 .byte   N06 ,As4
 .byte   W12
 .byte   Gs4
 .byte   W12
 .byte   Cn5
 .byte   W06
 .byte   Gs4
 .byte   W06
 .byte   Fn4
 .byte   W06
 .byte   Cn4
 .byte   W06
 .byte   Gs3
 .byte   W06
 .byte   Fn3
 .byte   W06
 .byte   Cn3
 .byte   W06
 .byte   Fn2
 .byte   W06
@  #06 @086   ----------------------------------------
 .byte   W96
@  #06 @087   ----------------------------------------
 .byte   W96
@  #06 @088   ----------------------------------------
 .byte   W96
@  #06 @089   ----------------------------------------
 .byte   W96
@  #06 @090   ----------------------------------------
 .byte   GOTO
  .word Label_0157383D
 .byte   FINE

@**************** Track 7 (Midi-Chn.6) ****************@

FeldschlactIII_007:
@  #07 @000   ----------------------------------------
 .byte   KEYSH , FeldschlactIII_key+0
 .byte   VOICE , 1
 .byte   VOL , 51*FeldschlactIII_mvl/mxv
 .byte   W96
@  #07 @001   ----------------------------------------
 .byte   W96
@  #07 @002   ----------------------------------------
 .byte   W96
@  #07 @003   ----------------------------------------
 .byte   W96
@  #07 @004   ----------------------------------------
 .byte   W96
@  #07 @005   ----------------------------------------
 .byte   W96
@  #07 @006   ----------------------------------------
 .byte   W96
@  #07 @007   ----------------------------------------
 .byte   W96
@  #07 @008   ----------------------------------------
 .byte   W96
@  #07 @009   ----------------------------------------
Label_01571833:
 .byte   W24
 .byte   N06 ,Fn4 ,v036
 .byte   W06
 .byte   Cn4
 .byte   W06
 .byte   As3
 .byte   W12
 .byte   Fn3
 .byte   W12
 .byte   Gn3
 .byte   W18
 .byte   Cn3
 .byte   W06
 .byte   Gs3
 .byte   W06
 .byte   Fn4
 .byte   W06
 .byte   PEND 
@  #07 @010   ----------------------------------------
Label_01571847:
 .byte   N06 ,As4 ,v036
 .byte   W12
 .byte   As3
 .byte   W06
 .byte   Gs3
 .byte   W06
 .byte   Gn3
 .byte   W06
 .byte   Gs3
 .byte   W06
 .byte   N24 ,Ds4
 .byte   W60
 .byte   PEND 
@  #07 @011   ----------------------------------------
Label_01571857:
 .byte   W84
 .byte   N06 ,As4 ,v036
 .byte   W06
 .byte   Gs4
 .byte   W06
 .byte   PEND 
@  #07 @012   ----------------------------------------
Label_0157185F:
 .byte   N06 ,Gn4 ,v036
 .byte   W06
 .byte   Gs4
 .byte   W06
 .byte   Fn4
 .byte   W06
 .byte   Cn4
 .byte   W06
 .byte   Fn3
 .byte   W48
 .byte   Gn3
 .byte   N06 ,Ds4
 .byte   W12
 .byte   Gs3
 .byte   N06 ,Fn4
 .byte   W12
 .byte   PEND 
@  #07 @013   ----------------------------------------
Label_01571874:
 .byte   N06 ,As3 ,v036
 .byte   N06 ,Gn4
 .byte   W12
 .byte   Fn4
 .byte   W06
 .byte   En4
 .byte   W06
 .byte   Fn4
 .byte   W06
 .byte   Gn4
 .byte   W06
 .byte   Gs4
 .byte   W06
 .byte   Gn4
 .byte   W06
 .byte   Gs4
 .byte   W06
 .byte   As4
 .byte   W06
 .byte   N24 ,Cn5
 .byte   W12
 .byte   N06 ,Gn3
 .byte   W06
 .byte   Gs3
 .byte   W06
 .byte   Cn4
 .byte   W06
 .byte   Fn4
 .byte   W06
 .byte   PEND 
@  #07 @014   ----------------------------------------
Label_01571897:
 .byte   N06 ,As4 ,v036
 .byte   W06
 .byte   Cn5
 .byte   W90
 .byte   PEND 
@  #07 @015   ----------------------------------------
 .byte   W96
@  #07 @016   ----------------------------------------
 .byte   W96
@  #07 @017   ----------------------------------------
 .byte   W96
@  #07 @018   ----------------------------------------
 .byte   W96
@  #07 @019   ----------------------------------------
 .byte   W96
@  #07 @020   ----------------------------------------
Label_015718A3:
 .byte   W96
@  #07 @021   ----------------------------------------
 .byte   W96
@  #07 @022   ----------------------------------------
 .byte   W96
@  #07 @023   ----------------------------------------
 .byte   W96
@  #07 @024   ----------------------------------------
 .byte   W96
@  #07 @025   ----------------------------------------
 .byte   W60
 .byte   N06 ,Cn3 ,v064
 .byte   W06
 .byte   As2
 .byte   W06
 .byte   Fn2
 .byte   W06
 .byte   Cn3
 .byte   W06
 .byte   As2
 .byte   W12
@  #07 @026   ----------------------------------------
 .byte   W96
@  #07 @027   ----------------------------------------
 .byte   W96
@  #07 @028   ----------------------------------------
 .byte   W96
@  #07 @029   ----------------------------------------
 .byte   W96
@  #07 @030   ----------------------------------------
 .byte   W96
@  #07 @031   ----------------------------------------
 .byte   W96
@  #07 @032   ----------------------------------------
 .byte   W96
@  #07 @033   ----------------------------------------
 .byte   W96
@  #07 @034   ----------------------------------------
 .byte   W96
@  #07 @035   ----------------------------------------
 .byte   W96
@  #07 @036   ----------------------------------------
 .byte   W96
@  #07 @037   ----------------------------------------
 .byte   W96
@  #07 @038   ----------------------------------------
 .byte   W96
@  #07 @039   ----------------------------------------
 .byte   W96
@  #07 @040   ----------------------------------------
 .byte   W96
@  #07 @041   ----------------------------------------
Label_015718C4:
 .byte   W72
 .byte   N06 ,Cn4 ,v036
 .byte   W12
 .byte   N06
 .byte   N06 ,Fn4
 .byte   W12
 .byte   PEND 
@  #07 @042   ----------------------------------------
Label_015718CE:
 .byte   N06 ,Fn4 ,v036
 .byte   N06 ,As4
 .byte   W12
 .byte   N48 ,Gn4
 .byte   N48 ,Cn5
 .byte   W84
 .byte   PEND 
@  #07 @043   ----------------------------------------
Label_015718DA:
 .byte   N06 ,Fn4 ,v036
 .byte   N06 ,As4
 .byte   W24
 .byte   Fn4
 .byte   N06 ,As4
 .byte   W24
 .byte   Fn4
 .byte   N06 ,As4
 .byte   W12
 .byte   N06
 .byte   W12
 .byte   Gs4
 .byte   W12
 .byte   As4
 .byte   W12
 .byte   PEND 
@  #07 @044   ----------------------------------------
Label_015718EF:
 .byte   W12
 .byte   N06 ,Cn5 ,v036
 .byte   W12
 .byte   Fn4
 .byte   W12
 .byte   Cn4
 .byte   W24
 .byte   Fn4
 .byte   W24
 .byte   As4
 .byte   W12
 .byte   PEND 
@  #07 @045   ----------------------------------------
Label_015718FD:
 .byte   W18
 .byte   N06 ,Fn4 ,v036
 .byte   W06
 .byte   Cn4
 .byte   W12
 .byte   As4
 .byte   W36
 .byte   Fn4
 .byte   W12
 .byte   N06
 .byte   N06 ,As4
 .byte   W12
 .byte   PEND 
@  #07 @046   ----------------------------------------
 .byte   N06
 .byte   N06 ,Fn5
 .byte   W96
@  #07 @047   ----------------------------------------
 .byte   PATT
  .word Label_01571833
@  #07 @048   ----------------------------------------
 .byte   PATT
  .word Label_01571847
@  #07 @049   ----------------------------------------
 .byte   PATT
  .word Label_01571857
@  #07 @050   ----------------------------------------
 .byte   PATT
  .word Label_0157185F
@  #07 @051   ----------------------------------------
 .byte   PATT
  .word Label_01571874
@  #07 @052   ----------------------------------------
 .byte   PATT
  .word Label_01571897
@  #07 @053   ----------------------------------------
 .byte   W96
@  #07 @054   ----------------------------------------
Label_01571930:
 .byte   W84
 .byte   N03 ,Cn5 ,v064
 .byte   W06
 .byte   As4
 .byte   W06
 .byte   PEND 
@  #07 @055   ----------------------------------------
Label_01571938:
 .byte   N03 ,Gs4 ,v064
 .byte   W06
 .byte   N03
 .byte   W06
 .byte   Gn4
 .byte   W06
 .byte   Fn4
 .byte   W06
 .byte   Ds4
 .byte   W06
 .byte   Cs4
 .byte   W06
 .byte   Cn4
 .byte   W06
 .byte   As3
 .byte   W06
 .byte   Gs3
 .byte   W06
 .byte   Fn3
 .byte   W06
 .byte   Gn3
 .byte   W06
 .byte   Gs3
 .byte   W06
 .byte   As3
 .byte   W06
 .byte   Gn3
 .byte   W06
 .byte   Ds3
 .byte   W06
 .byte   Cs3
 .byte   W06
 .byte   PEND 
@  #07 @056   ----------------------------------------
Label_0157195B:
 .byte   N03 ,Cn3 ,v064
 .byte   W06
 .byte   Ds3
 .byte   W06
 .byte   Fn3
 .byte   W12
 .byte   As3
 .byte   W36
 .byte   Gs3
 .byte   W06
 .byte   As3
 .byte   W06
 .byte   Cn4
 .byte   W24
 .byte   PEND 
@  #07 @057   ----------------------------------------
 .byte   W96
@  #07 @058   ----------------------------------------
 .byte   PATT
  .word Label_01571930
@  #07 @059   ----------------------------------------
 .byte   PATT
  .word Label_01571938
@  #07 @060   ----------------------------------------
 .byte   PATT
  .word Label_0157195B
@  #07 @061   ----------------------------------------
 .byte   W96
@  #07 @062   ----------------------------------------
 .byte   PATT
  .word Label_01571930
@  #07 @063   ----------------------------------------
 .byte   PATT
  .word Label_01571938
@  #07 @064   ----------------------------------------
 .byte   PATT
  .word Label_0157195B
@  #07 @065   ----------------------------------------
 .byte   W96
@  #07 @066   ----------------------------------------
 .byte   PATT
  .word Label_01571930
@  #07 @067   ----------------------------------------
 .byte   PATT
  .word Label_01571938
@  #07 @068   ----------------------------------------
 .byte   PATT
  .word Label_0157195B
@  #07 @069   ----------------------------------------
 .byte   W96
@  #07 @070   ----------------------------------------
 .byte   W96
@  #07 @071   ----------------------------------------
 .byte   W96
@  #07 @072   ----------------------------------------
 .byte   W96
@  #07 @073   ----------------------------------------
 .byte   PATT
  .word Label_015718C4
@  #07 @074   ----------------------------------------
 .byte   PATT
  .word Label_015718CE
@  #07 @075   ----------------------------------------
 .byte   PATT
  .word Label_015718DA
@  #07 @076   ----------------------------------------
 .byte   PATT
  .word Label_015718EF
@  #07 @077   ----------------------------------------
 .byte   PATT
  .word Label_015718FD
@  #07 @078   ----------------------------------------
 .byte   W96
@  #07 @079   ----------------------------------------
 .byte   PATT
  .word Label_01571833
@  #07 @080   ----------------------------------------
 .byte   PATT
  .word Label_01571847
@  #07 @081   ----------------------------------------
 .byte   W12
 .byte   N06 ,As3 ,v036
 .byte   W06
 .byte   Gs3
 .byte   W06
 .byte   Gn3
 .byte   W12
 .byte   Fn3
 .byte   W24
 .byte   N06
 .byte   W06
 .byte   Cn3
 .byte   W06
 .byte   Fn3
 .byte   W06
 .byte   Gs3
 .byte   W06
 .byte   Fn3
 .byte   W06
 .byte   Cn3
 .byte   W06
@  #07 @082   ----------------------------------------
 .byte   As4
 .byte   W06
 .byte   Gs4
 .byte   W06
 .byte   Fn4
 .byte   W12
 .byte   Fn3
 .byte   W24
 .byte   Cn4
 .byte   W24
 .byte   Fn4
 .byte   W24
@  #07 @083   ----------------------------------------
 .byte   W12
 .byte   Gs4
 .byte   W06
 .byte   Fn4
 .byte   W06
 .byte   Gn4
 .byte   W06
 .byte   Ds4
 .byte   W06
 .byte   Fn4
 .byte   W06
 .byte   Cs4
 .byte   W06
 .byte   Ds4
 .byte   W06
 .byte   Cn4
 .byte   W06
 .byte   Gn4
 .byte   W06
 .byte   Ds4
 .byte   W06
 .byte   Cn4
 .byte   W06
 .byte   As3
 .byte   W06
 .byte   Fn3
 .byte   W06
 .byte   Cs3
 .byte   W06
@  #07 @084   ----------------------------------------
 .byte   As2
 .byte   W06
 .byte   Gs2
 .byte   W66
 .byte   Fn3
 .byte   W12
 .byte   Fn4
 .byte   N06 ,Gs4
 .byte   W12
@  #07 @085   ----------------------------------------
 .byte   As4
 .byte   W12
 .byte   N23 ,Gn4
 .byte   N23 ,Cn5
 .byte   W24
 .byte   N06 ,As4
 .byte   W12
 .byte   Gs4
 .byte   W12
 .byte   Cn5
 .byte   W06
 .byte   Gs4
 .byte   W06
 .byte   Fn4
 .byte   W06
 .byte   Cn4
 .byte   W06
 .byte   Gs3
 .byte   W06
 .byte   Fn3
 .byte   W06
@  #07 @086   ----------------------------------------
 .byte   Cn3
 .byte   W06
 .byte   Fn2
 .byte   W90
@  #07 @087   ----------------------------------------
 .byte   W96
@  #07 @088   ----------------------------------------
 .byte   W96
@  #07 @089   ----------------------------------------
 .byte   W96
@  #07 @090   ----------------------------------------
 .byte   GOTO
  .word Label_015718A3
 .byte   FINE

@**************** Track 8 (Midi-Chn.7) ****************@

FeldschlactIII_008:
@  #08 @000   ----------------------------------------
 .byte   KEYSH , FeldschlactIII_key+0
 .byte   VOICE , 42
 .byte   VOL , 51*FeldschlactIII_mvl/mxv
 .byte   PAN , c_v+24
 .byte   W96
@  #08 @001   ----------------------------------------
 .byte   W96
@  #08 @002   ----------------------------------------
 .byte   W96
@  #08 @003   ----------------------------------------
 .byte   W96
@  #08 @004   ----------------------------------------
 .byte   W96
@  #08 @005   ----------------------------------------
 .byte   W96
@  #08 @006   ----------------------------------------
 .byte   W96
@  #08 @007   ----------------------------------------
 .byte   W96
@  #08 @008   ----------------------------------------
Label_0157344C:
 .byte   N60 ,Fn4 ,v064
 .byte   W60
 .byte   N12 ,Ds4
 .byte   N12 ,Fn4 ,v036
 .byte   W12
 .byte   Ds4
 .byte   N12 ,Fn4 ,v064
 .byte   W12
 .byte   Fn4 ,v036
 .byte   N12 ,Gn4 ,v064
 .byte   W12
 .byte   PEND 
@  #08 @009   ----------------------------------------
Label_01573462:
 .byte   N12 ,Gn4 ,v036
 .byte   N36 ,Gs4 ,v064
 .byte   W36
 .byte   N12 ,Gs4 ,v036
 .byte   N12 ,As4 ,v064
 .byte   W12
 .byte   As4 ,v036
 .byte   N48 ,Cn5 ,v064
 .byte   W48
 .byte   PEND 
@  #08 @010   ----------------------------------------
Label_01573477:
 .byte   N24 ,Cn5 ,v064
 .byte   W24
 .byte   Fn4
 .byte   N12 ,Cn5 ,v036
 .byte   W24
 .byte   Fn4
 .byte   N24 ,As4 ,v064
 .byte   W24
 .byte   N12 ,Gs4
 .byte   N12 ,As4 ,v036
 .byte   W12
 .byte   Gn4 ,v064
 .byte   N12 ,Gs4 ,v036
 .byte   W12
 .byte   PEND 
@  #08 @011   ----------------------------------------
Label_01573492:
 .byte   N24 ,Fn4 ,v064
 .byte   N12 ,Gn4 ,v036
 .byte   W24
 .byte   Fn4
 .byte   N12 ,Gn4 ,v064
 .byte   W12
 .byte   N36 ,Fn4
 .byte   N12 ,Gn4 ,v036
 .byte   W36
 .byte   N24 ,Cn4 ,v064
 .byte   N12 ,Fn4 ,v036
 .byte   W24
 .byte   PEND 
@  #08 @012   ----------------------------------------
Label_015734AC:
 .byte   N12 ,Cn4 ,v036
 .byte   W24
 .byte   N36 ,Fn4 ,v064
 .byte   W36
 .byte   N12 ,Ds4
 .byte   N12 ,Fn4 ,v036
 .byte   W12
 .byte   Ds4
 .byte   N12 ,Fn4 ,v064
 .byte   W12
 .byte   Fn4 ,v036
 .byte   N12 ,Gn4 ,v064
 .byte   W12
 .byte   PEND 
@  #08 @013   ----------------------------------------
 .byte   PATT
  .word Label_01573462
@  #08 @014   ----------------------------------------
 .byte   PATT
  .word Label_01573477
@  #08 @015   ----------------------------------------
Label_015734D0:
 .byte   N24 ,Fn4 ,v064
 .byte   N12 ,Gn4 ,v036
 .byte   W24
 .byte   Fn4
 .byte   N12 ,Gn4 ,v064
 .byte   W12
 .byte   N36 ,Fn4
 .byte   N12 ,Gn4 ,v036
 .byte   W36
 .byte   N24 ,En4 ,v064
 .byte   N12 ,Fn4 ,v036
 .byte   W24
 .byte   PEND 
@  #08 @016   ----------------------------------------
Label_015734EA:
 .byte   N12 ,En4 ,v036
 .byte   TIE ,Fn4 ,v064
 .byte   W96
 .byte   PEND 
@  #08 @017   ----------------------------------------
 .byte   W96
@  #08 @018   ----------------------------------------
 .byte   EOT
 .byte   N12 ,Fn4 ,v036
 .byte   W96
@  #08 @019   ----------------------------------------
 .byte   W96
@  #08 @020   ----------------------------------------
Label_015734F9:
 .byte   W96
@  #08 @021   ----------------------------------------
 .byte   W96
@  #08 @022   ----------------------------------------
 .byte   W96
@  #08 @023   ----------------------------------------
 .byte   W96
@  #08 @024   ----------------------------------------
 .byte   W96
@  #08 @025   ----------------------------------------
 .byte   W96
@  #08 @026   ----------------------------------------
 .byte   W96
@  #08 @027   ----------------------------------------
 .byte   W96
@  #08 @028   ----------------------------------------
 .byte   W96
@  #08 @029   ----------------------------------------
 .byte   W96
@  #08 @030   ----------------------------------------
 .byte   W96
@  #08 @031   ----------------------------------------
 .byte   W96
@  #08 @032   ----------------------------------------
 .byte   W96
@  #08 @033   ----------------------------------------
 .byte   W96
@  #08 @034   ----------------------------------------
 .byte   W96
@  #08 @035   ----------------------------------------
 .byte   W96
@  #08 @036   ----------------------------------------
 .byte   W96
@  #08 @037   ----------------------------------------
 .byte   W96
@  #08 @038   ----------------------------------------
 .byte   W96
@  #08 @039   ----------------------------------------
 .byte   W96
@  #08 @040   ----------------------------------------
 .byte   W96
@  #08 @041   ----------------------------------------
 .byte   W96
@  #08 @042   ----------------------------------------
 .byte   W96
@  #08 @043   ----------------------------------------
 .byte   W96
@  #08 @044   ----------------------------------------
 .byte   W96
@  #08 @045   ----------------------------------------
 .byte   W96
@  #08 @046   ----------------------------------------
 .byte   PATT
  .word Label_0157344C
@  #08 @047   ----------------------------------------
 .byte   PATT
  .word Label_01573462
@  #08 @048   ----------------------------------------
 .byte   PATT
  .word Label_01573477
@  #08 @049   ----------------------------------------
 .byte   PATT
  .word Label_01573492
@  #08 @050   ----------------------------------------
 .byte   PATT
  .word Label_015734AC
@  #08 @051   ----------------------------------------
 .byte   N12 ,Gn4 ,v036
 .byte   N36 ,Gs4 ,v064
 .byte   W36
 .byte   N12 ,Gs4 ,v036
 .byte   N12 ,As4 ,v064
 .byte   W12
 .byte   As4 ,v036
 .byte   TIE ,Cn5 ,v064
 .byte   W48
@  #08 @052   ----------------------------------------
 .byte   W96
@  #08 @053   ----------------------------------------
 .byte   W96
@  #08 @054   ----------------------------------------
 .byte   EOT
 .byte   N12 ,Cn5 ,v036
 .byte   W96
@  #08 @055   ----------------------------------------
 .byte   W96
@  #08 @056   ----------------------------------------
 .byte   W96
@  #08 @057   ----------------------------------------
 .byte   W96
@  #08 @058   ----------------------------------------
 .byte   W96
@  #08 @059   ----------------------------------------
 .byte   W96
@  #08 @060   ----------------------------------------
 .byte   W96
@  #08 @061   ----------------------------------------
 .byte   W96
@  #08 @062   ----------------------------------------
 .byte   W96
@  #08 @063   ----------------------------------------
 .byte   W96
@  #08 @064   ----------------------------------------
 .byte   W96
@  #08 @065   ----------------------------------------
 .byte   W96
@  #08 @066   ----------------------------------------
 .byte   W96
@  #08 @067   ----------------------------------------
 .byte   W96
@  #08 @068   ----------------------------------------
 .byte   W96
@  #08 @069   ----------------------------------------
 .byte   W96
@  #08 @070   ----------------------------------------
 .byte   W96
@  #08 @071   ----------------------------------------
 .byte   W96
@  #08 @072   ----------------------------------------
 .byte   W96
@  #08 @073   ----------------------------------------
 .byte   W96
@  #08 @074   ----------------------------------------
 .byte   W96
@  #08 @075   ----------------------------------------
 .byte   W96
@  #08 @076   ----------------------------------------
 .byte   W96
@  #08 @077   ----------------------------------------
 .byte   W96
@  #08 @078   ----------------------------------------
 .byte   PATT
  .word Label_0157344C
@  #08 @079   ----------------------------------------
 .byte   PATT
  .word Label_01573462
@  #08 @080   ----------------------------------------
 .byte   PATT
  .word Label_01573477
@  #08 @081   ----------------------------------------
 .byte   PATT
  .word Label_01573492
@  #08 @082   ----------------------------------------
 .byte   PATT
  .word Label_015734AC
@  #08 @083   ----------------------------------------
 .byte   PATT
  .word Label_01573462
@  #08 @084   ----------------------------------------
 .byte   PATT
  .word Label_01573477
@  #08 @085   ----------------------------------------
 .byte   PATT
  .word Label_015734D0
@  #08 @086   ----------------------------------------
 .byte   PATT
  .word Label_015734EA
@  #08 @087   ----------------------------------------
 .byte   W96
@  #08 @088   ----------------------------------------
 .byte   EOT
 .byte   Fn4
 .byte   N12 ,Fn4 ,v036
 .byte   W96
@  #08 @089   ----------------------------------------
 .byte   W96
@  #08 @090   ----------------------------------------
 .byte   GOTO
  .word Label_015734F9
 .byte   FINE

@**************** Track 9 (Midi-Chn.8) ****************@

FeldschlactIII_009:
@  #09 @000   ----------------------------------------
 .byte   KEYSH , FeldschlactIII_key+0
 .byte   VOICE , 40
 .byte   VOL , 51*FeldschlactIII_mvl/mxv
 .byte   PAN , c_v-26
 .byte   W96
@  #09 @001   ----------------------------------------
 .byte   W96
@  #09 @002   ----------------------------------------
 .byte   W96
@  #09 @003   ----------------------------------------
 .byte   W96
@  #09 @004   ----------------------------------------
 .byte   W96
@  #09 @005   ----------------------------------------
 .byte   W96
@  #09 @006   ----------------------------------------
 .byte   W96
@  #09 @007   ----------------------------------------
 .byte   W96
@  #09 @008   ----------------------------------------
Label_015725C0:
 .byte   N48 ,Gs2 ,v064
 .byte   W48
 .byte   Gn2
 .byte   W48
 .byte   PEND 
@  #09 @009   ----------------------------------------
 .byte   Fs2
 .byte   W48
 .byte   Fn2
 .byte   W48
@  #09 @010   ----------------------------------------
 .byte   Cn2
 .byte   W48
 .byte   Fn2
 .byte   W48
@  #09 @011   ----------------------------------------
 .byte   Cn2
 .byte   W48
 .byte   Dn2
 .byte   W48
@  #09 @012   ----------------------------------------
 .byte   PATT
  .word Label_015725C0
@  #09 @013   ----------------------------------------
 .byte   N48 ,As2 ,v064
 .byte   W48
 .byte   Gs2
 .byte   W24
 .byte   N24 ,Fs2
 .byte   W24
@  #09 @014   ----------------------------------------
 .byte   N48 ,Fn2
 .byte   W48
 .byte   Gn2
 .byte   W48
@  #09 @015   ----------------------------------------
 .byte   N24 ,Gs2
 .byte   W24
 .byte   N12 ,Fs2
 .byte   W12
 .byte   N36 ,Fn2
 .byte   W36
 .byte   N24 ,En2
 .byte   W24
@  #09 @016   ----------------------------------------
 .byte   N48 ,Cn3
 .byte   W48
 .byte   Bn2
 .byte   W48
@  #09 @017   ----------------------------------------
 .byte   As2
 .byte   W24
 .byte   N12 ,Ds3
 .byte   W12
 .byte   Ds3 ,v036
 .byte   N12 ,Gs3 ,v064
 .byte   W12
 .byte   N48 ,Ds3
 .byte   N12 ,Gs3 ,v036
 .byte   N48 ,As3 ,v064
 .byte   W48
@  #09 @018   ----------------------------------------
 .byte   Gs2
 .byte   N12 ,As3 ,v036
 .byte   W48
 .byte   N48 ,Gn2 ,v064
 .byte   W48
@  #09 @019   ----------------------------------------
 .byte   Fs2
 .byte   W48
 .byte   Ds2
 .byte   W48
@  #09 @020   ----------------------------------------
Label_01572618:
 .byte   W96
@  #09 @021   ----------------------------------------
 .byte   W96
@  #09 @022   ----------------------------------------
 .byte   W96
@  #09 @023   ----------------------------------------
 .byte   W96
@  #09 @024   ----------------------------------------
 .byte   W96
@  #09 @025   ----------------------------------------
 .byte   W96
@  #09 @026   ----------------------------------------
 .byte   W96
@  #09 @027   ----------------------------------------
 .byte   W96
@  #09 @028   ----------------------------------------
 .byte   W96
@  #09 @029   ----------------------------------------
 .byte   W96
@  #09 @030   ----------------------------------------
 .byte   W96
@  #09 @031   ----------------------------------------
 .byte   W96
@  #09 @032   ----------------------------------------
 .byte   W96
@  #09 @033   ----------------------------------------
 .byte   W96
@  #09 @034   ----------------------------------------
 .byte   W96
@  #09 @035   ----------------------------------------
 .byte   W96
@  #09 @036   ----------------------------------------
 .byte   W96
@  #09 @037   ----------------------------------------
 .byte   W96
@  #09 @038   ----------------------------------------
 .byte   W96
@  #09 @039   ----------------------------------------
 .byte   W96
@  #09 @040   ----------------------------------------
 .byte   W96
@  #09 @041   ----------------------------------------
 .byte   W96
@  #09 @042   ----------------------------------------
 .byte   W96
@  #09 @043   ----------------------------------------
 .byte   W96
@  #09 @044   ----------------------------------------
 .byte   W96
@  #09 @045   ----------------------------------------
 .byte   W96
@  #09 @046   ----------------------------------------
 .byte   W96
@  #09 @047   ----------------------------------------
 .byte   W96
@  #09 @048   ----------------------------------------
 .byte   W96
@  #09 @049   ----------------------------------------
 .byte   W96
@  #09 @050   ----------------------------------------
 .byte   W96
@  #09 @051   ----------------------------------------
 .byte   W96
@  #09 @052   ----------------------------------------
 .byte   W96
@  #09 @053   ----------------------------------------
 .byte   W96
@  #09 @054   ----------------------------------------
 .byte   W96
@  #09 @055   ----------------------------------------
 .byte   W96
@  #09 @056   ----------------------------------------
 .byte   W96
@  #09 @057   ----------------------------------------
 .byte   W96
@  #09 @058   ----------------------------------------
 .byte   W96
@  #09 @059   ----------------------------------------
 .byte   W96
@  #09 @060   ----------------------------------------
 .byte   W96
@  #09 @061   ----------------------------------------
 .byte   W96
@  #09 @062   ----------------------------------------
 .byte   W96
@  #09 @063   ----------------------------------------
 .byte   W96
@  #09 @064   ----------------------------------------
 .byte   W96
@  #09 @065   ----------------------------------------
 .byte   W96
@  #09 @066   ----------------------------------------
 .byte   W96
@  #09 @067   ----------------------------------------
 .byte   W96
@  #09 @068   ----------------------------------------
 .byte   W96
@  #09 @069   ----------------------------------------
 .byte   W96
@  #09 @070   ----------------------------------------
 .byte   W96
@  #09 @071   ----------------------------------------
 .byte   W96
@  #09 @072   ----------------------------------------
 .byte   W96
@  #09 @073   ----------------------------------------
 .byte   W96
@  #09 @074   ----------------------------------------
 .byte   W96
@  #09 @075   ----------------------------------------
 .byte   W96
@  #09 @076   ----------------------------------------
 .byte   W96
@  #09 @077   ----------------------------------------
 .byte   W96
@  #09 @078   ----------------------------------------
 .byte   W96
@  #09 @079   ----------------------------------------
 .byte   W96
@  #09 @080   ----------------------------------------
 .byte   W96
@  #09 @081   ----------------------------------------
 .byte   W96
@  #09 @082   ----------------------------------------
 .byte   W96
@  #09 @083   ----------------------------------------
 .byte   W96
@  #09 @084   ----------------------------------------
 .byte   W96
@  #09 @085   ----------------------------------------
 .byte   W96
@  #09 @086   ----------------------------------------
 .byte   N48 ,Cn3 ,v056
 .byte   W48
 .byte   Bn2
 .byte   W48
@  #09 @087   ----------------------------------------
 .byte   As2
 .byte   W48
 .byte   Ds3
 .byte   W48
@  #09 @088   ----------------------------------------
 .byte   Gs2
 .byte   W48
 .byte   Gn2
 .byte   W48
@  #09 @089   ----------------------------------------
 .byte   Fs2
 .byte   W48
 .byte   Ds2
 .byte   W48
@  #09 @090   ----------------------------------------
 .byte   GOTO
  .word Label_01572618
 .byte   FINE

@**************** Track 10 (Midi-Chn.9) ****************@

FeldschlactIII_010:
@  #10 @000   ----------------------------------------
 .byte   KEYSH , FeldschlactIII_key+0
 .byte   VOICE , 40
 .byte   VOL , 51*FeldschlactIII_mvl/mxv
 .byte   PAN , c_v+24
 .byte   W96
@  #10 @001   ----------------------------------------
 .byte   W96
@  #10 @002   ----------------------------------------
 .byte   W96
@  #10 @003   ----------------------------------------
 .byte   W96
@  #10 @004   ----------------------------------------
 .byte   W96
@  #10 @005   ----------------------------------------
 .byte   W96
@  #10 @006   ----------------------------------------
 .byte   W96
@  #10 @007   ----------------------------------------
 .byte   W96
@  #10 @008   ----------------------------------------
 .byte   W96
@  #10 @009   ----------------------------------------
 .byte   W96
@  #10 @010   ----------------------------------------
 .byte   W96
@  #10 @011   ----------------------------------------
 .byte   W96
@  #10 @012   ----------------------------------------
 .byte   W96
@  #10 @013   ----------------------------------------
 .byte   W96
@  #10 @014   ----------------------------------------
 .byte   W96
@  #10 @015   ----------------------------------------
 .byte   W96
@  #10 @016   ----------------------------------------
 .byte   W96
@  #10 @017   ----------------------------------------
 .byte   W96
@  #10 @018   ----------------------------------------
 .byte   W96
@  #10 @019   ----------------------------------------
 .byte   W24
 .byte   N12 ,Bn2 ,v064
 .byte   W12
 .byte   Bn2 ,v036
 .byte   N12 ,En3 ,v064
 .byte   W12
 .byte   En3 ,v036
 .byte   N48 ,Fs3 ,v064
 .byte   W48
@  #10 @020   ----------------------------------------
Label_015726A0:
 .byte   N12 ,Fs3 ,v036
 .byte   W96
@  #10 @021   ----------------------------------------
 .byte   W96
@  #10 @022   ----------------------------------------
 .byte   W96
@  #10 @023   ----------------------------------------
 .byte   W96
@  #10 @024   ----------------------------------------
 .byte   W96
@  #10 @025   ----------------------------------------
 .byte   W96
@  #10 @026   ----------------------------------------
 .byte   W96
@  #10 @027   ----------------------------------------
 .byte   W96
@  #10 @028   ----------------------------------------
 .byte   W96
@  #10 @029   ----------------------------------------
 .byte   W96
@  #10 @030   ----------------------------------------
 .byte   W96
@  #10 @031   ----------------------------------------
 .byte   W96
@  #10 @032   ----------------------------------------
 .byte   W96
@  #10 @033   ----------------------------------------
 .byte   W96
@  #10 @034   ----------------------------------------
 .byte   W96
@  #10 @035   ----------------------------------------
 .byte   W96
@  #10 @036   ----------------------------------------
 .byte   W96
@  #10 @037   ----------------------------------------
 .byte   W96
@  #10 @038   ----------------------------------------
 .byte   W96
@  #10 @039   ----------------------------------------
 .byte   W96
@  #10 @040   ----------------------------------------
 .byte   W96
@  #10 @041   ----------------------------------------
 .byte   W96
@  #10 @042   ----------------------------------------
 .byte   W96
@  #10 @043   ----------------------------------------
 .byte   W96
@  #10 @044   ----------------------------------------
 .byte   W96
@  #10 @045   ----------------------------------------
 .byte   W96
@  #10 @046   ----------------------------------------
 .byte   W96
@  #10 @047   ----------------------------------------
 .byte   W96
@  #10 @048   ----------------------------------------
 .byte   W96
@  #10 @049   ----------------------------------------
 .byte   W96
@  #10 @050   ----------------------------------------
 .byte   W96
@  #10 @051   ----------------------------------------
 .byte   W96
@  #10 @052   ----------------------------------------
 .byte   W96
@  #10 @053   ----------------------------------------
 .byte   W96
@  #10 @054   ----------------------------------------
 .byte   W96
@  #10 @055   ----------------------------------------
 .byte   W96
@  #10 @056   ----------------------------------------
 .byte   W96
@  #10 @057   ----------------------------------------
 .byte   W96
@  #10 @058   ----------------------------------------
 .byte   W96
@  #10 @059   ----------------------------------------
 .byte   W96
@  #10 @060   ----------------------------------------
 .byte   W96
@  #10 @061   ----------------------------------------
 .byte   W96
@  #10 @062   ----------------------------------------
 .byte   W96
@  #10 @063   ----------------------------------------
 .byte   W96
@  #10 @064   ----------------------------------------
 .byte   W96
@  #10 @065   ----------------------------------------
 .byte   W96
@  #10 @066   ----------------------------------------
 .byte   W96
@  #10 @067   ----------------------------------------
 .byte   W96
@  #10 @068   ----------------------------------------
 .byte   W96
@  #10 @069   ----------------------------------------
 .byte   W96
@  #10 @070   ----------------------------------------
 .byte   W96
@  #10 @071   ----------------------------------------
 .byte   W96
@  #10 @072   ----------------------------------------
 .byte   W96
@  #10 @073   ----------------------------------------
 .byte   W96
@  #10 @074   ----------------------------------------
 .byte   W96
@  #10 @075   ----------------------------------------
 .byte   W96
@  #10 @076   ----------------------------------------
 .byte   W96
@  #10 @077   ----------------------------------------
 .byte   W96
@  #10 @078   ----------------------------------------
 .byte   W96
@  #10 @079   ----------------------------------------
 .byte   W96
@  #10 @080   ----------------------------------------
 .byte   W96
@  #10 @081   ----------------------------------------
 .byte   W96
@  #10 @082   ----------------------------------------
 .byte   W96
@  #10 @083   ----------------------------------------
 .byte   W96
@  #10 @084   ----------------------------------------
 .byte   W96
@  #10 @085   ----------------------------------------
 .byte   W96
@  #10 @086   ----------------------------------------
 .byte   W96
@  #10 @087   ----------------------------------------
 .byte   W96
@  #10 @088   ----------------------------------------
 .byte   W96
@  #10 @089   ----------------------------------------
 .byte   W96
@  #10 @090   ----------------------------------------
 .byte   GOTO
  .word Label_015726A0
 .byte   FINE

@**************** Track 11 (Midi-Chn.10) ****************@

FeldschlactIII_011:
@  #11 @000   ----------------------------------------
 .byte   KEYSH , FeldschlactIII_key+0
 .byte   VOICE , 20
 .byte   VOL , 51*FeldschlactIII_mvl/mxv
 .byte   W96
@  #11 @001   ----------------------------------------
 .byte   W96
@  #11 @002   ----------------------------------------
 .byte   W96
@  #11 @003   ----------------------------------------
 .byte   W96
@  #11 @004   ----------------------------------------
 .byte   W96
@  #11 @005   ----------------------------------------
 .byte   W96
@  #11 @006   ----------------------------------------
 .byte   W96
@  #11 @007   ----------------------------------------
 .byte   W96
@  #11 @008   ----------------------------------------
 .byte   W96
@  #11 @009   ----------------------------------------
 .byte   W96
@  #11 @010   ----------------------------------------
 .byte   W96
@  #11 @011   ----------------------------------------
 .byte   W96
@  #11 @012   ----------------------------------------
 .byte   W96
@  #11 @013   ----------------------------------------
 .byte   W96
@  #11 @014   ----------------------------------------
 .byte   W96
@  #11 @015   ----------------------------------------
 .byte   W96
@  #11 @016   ----------------------------------------
 .byte   N96 ,Fn3 ,v064
 .byte   N72 ,Fn4
 .byte   W72
 .byte   TIE
 .byte   W24
@  #11 @017   ----------------------------------------
 .byte   N96 ,Fn3
 .byte   W96
@  #11 @018   ----------------------------------------
 .byte   EOT
 .byte   Fn4
 .byte   N96 ,Cs3
 .byte   N72 ,Cs4
 .byte   W72
 .byte   TIE
 .byte   W24
@  #11 @019   ----------------------------------------
 .byte   N96 ,Cs3
 .byte   W96
@  #11 @020   ----------------------------------------
 .byte   EOT
 .byte   Cs4
Label_01571A63:
 .byte   W96
@  #11 @021   ----------------------------------------
 .byte   W96
@  #11 @022   ----------------------------------------
 .byte   W96
@  #11 @023   ----------------------------------------
 .byte   W96
@  #11 @024   ----------------------------------------
 .byte   W96
@  #11 @025   ----------------------------------------
 .byte   W96
@  #11 @026   ----------------------------------------
 .byte   W96
@  #11 @027   ----------------------------------------
 .byte   W96
@  #11 @028   ----------------------------------------
 .byte   W96
@  #11 @029   ----------------------------------------
 .byte   W96
@  #11 @030   ----------------------------------------
 .byte   W96
@  #11 @031   ----------------------------------------
 .byte   W96
@  #11 @032   ----------------------------------------
 .byte   W96
@  #11 @033   ----------------------------------------
 .byte   W96
@  #11 @034   ----------------------------------------
 .byte   W96
@  #11 @035   ----------------------------------------
 .byte   W96
@  #11 @036   ----------------------------------------
 .byte   W96
@  #11 @037   ----------------------------------------
 .byte   W96
@  #11 @038   ----------------------------------------
 .byte   W96
@  #11 @039   ----------------------------------------
 .byte   W96
@  #11 @040   ----------------------------------------
 .byte   W96
@  #11 @041   ----------------------------------------
 .byte   W96
@  #11 @042   ----------------------------------------
 .byte   W96
@  #11 @043   ----------------------------------------
 .byte   W96
@  #11 @044   ----------------------------------------
 .byte   W96
@  #11 @045   ----------------------------------------
 .byte   W96
@  #11 @046   ----------------------------------------
 .byte   W96
@  #11 @047   ----------------------------------------
 .byte   W96
@  #11 @048   ----------------------------------------
 .byte   W96
@  #11 @049   ----------------------------------------
 .byte   W96
@  #11 @050   ----------------------------------------
 .byte   W96
@  #11 @051   ----------------------------------------
 .byte   W96
@  #11 @052   ----------------------------------------
 .byte   W96
@  #11 @053   ----------------------------------------
 .byte   W96
@  #11 @054   ----------------------------------------
 .byte   W96
@  #11 @055   ----------------------------------------
 .byte   W96
@  #11 @056   ----------------------------------------
 .byte   W96
@  #11 @057   ----------------------------------------
 .byte   W96
@  #11 @058   ----------------------------------------
 .byte   W96
@  #11 @059   ----------------------------------------
 .byte   W96
@  #11 @060   ----------------------------------------
 .byte   W96
@  #11 @061   ----------------------------------------
 .byte   W96
@  #11 @062   ----------------------------------------
 .byte   W96
@  #11 @063   ----------------------------------------
 .byte   W96
@  #11 @064   ----------------------------------------
 .byte   W96
@  #11 @065   ----------------------------------------
 .byte   W96
@  #11 @066   ----------------------------------------
 .byte   W96
@  #11 @067   ----------------------------------------
 .byte   W96
@  #11 @068   ----------------------------------------
 .byte   W96
@  #11 @069   ----------------------------------------
 .byte   W96
@  #11 @070   ----------------------------------------
 .byte   W96
@  #11 @071   ----------------------------------------
 .byte   W96
@  #11 @072   ----------------------------------------
 .byte   W96
@  #11 @073   ----------------------------------------
 .byte   W96
@  #11 @074   ----------------------------------------
 .byte   W96
@  #11 @075   ----------------------------------------
 .byte   W96
@  #11 @076   ----------------------------------------
 .byte   W96
@  #11 @077   ----------------------------------------
 .byte   W96
@  #11 @078   ----------------------------------------
 .byte   W96
@  #11 @079   ----------------------------------------
 .byte   W96
@  #11 @080   ----------------------------------------
 .byte   W96
@  #11 @081   ----------------------------------------
 .byte   W96
@  #11 @082   ----------------------------------------
 .byte   W96
@  #11 @083   ----------------------------------------
 .byte   W96
@  #11 @084   ----------------------------------------
 .byte   W96
@  #11 @085   ----------------------------------------
 .byte   W96
@  #11 @086   ----------------------------------------
 .byte   W96
@  #11 @087   ----------------------------------------
 .byte   W96
@  #11 @088   ----------------------------------------
 .byte   W96
@  #11 @089   ----------------------------------------
 .byte   W96
@  #11 @090   ----------------------------------------
 .byte   GOTO
  .word Label_01571A63
 .byte   FINE

@**************** Track 12 (Midi-Chn.11) ****************@

FeldschlactIII_012:
@  #12 @000   ----------------------------------------
 .byte   KEYSH , FeldschlactIII_key+0
 .byte   VOICE , 20
 .byte   VOL , 51*FeldschlactIII_mvl/mxv
 .byte   W96
@  #12 @001   ----------------------------------------
 .byte   W96
@  #12 @002   ----------------------------------------
 .byte   W96
@  #12 @003   ----------------------------------------
 .byte   W96
@  #12 @004   ----------------------------------------
 .byte   W96
@  #12 @005   ----------------------------------------
 .byte   W96
@  #12 @006   ----------------------------------------
 .byte   W96
@  #12 @007   ----------------------------------------
 .byte   W96
@  #12 @008   ----------------------------------------
 .byte   W96
@  #12 @009   ----------------------------------------
 .byte   W96
@  #12 @010   ----------------------------------------
 .byte   W96
@  #12 @011   ----------------------------------------
 .byte   W96
@  #12 @012   ----------------------------------------
 .byte   W96
@  #12 @013   ----------------------------------------
 .byte   W96
@  #12 @014   ----------------------------------------
 .byte   W96
@  #12 @015   ----------------------------------------
 .byte   W96
@  #12 @016   ----------------------------------------
 .byte   PAN , c_v-26
 .byte   W24
 .byte   N24 ,Cn4 ,v064
 .byte   W24
 .byte   Bn3
 .byte   W48
@  #12 @017   ----------------------------------------
 .byte   PAN , c_v+24
 .byte   W24
 .byte   N24 ,As3
 .byte   W24
 .byte   Gn3
 .byte   W24
 .byte   N12 ,Gs3
 .byte   W12
 .byte   As3
 .byte   W12
@  #12 @018   ----------------------------------------
 .byte   PAN , c_v-26
 .byte   W24
 .byte   N24 ,Gs3
 .byte   W24
 .byte   Gn3
 .byte   W48
@  #12 @019   ----------------------------------------
 .byte   PAN , c_v+24
 .byte   W24
 .byte   N24 ,Fs3
 .byte   W24
 .byte   Ds3
 .byte   W24
 .byte   N12 ,En3
 .byte   W12
 .byte   Fs3
 .byte   W12
@  #12 @020   ----------------------------------------
Label_015735DD:
 .byte   PAN , c_v+0
 .byte   W96
@  #12 @021   ----------------------------------------
 .byte   W96
@  #12 @022   ----------------------------------------
 .byte   W96
@  #12 @023   ----------------------------------------
 .byte   W96
@  #12 @024   ----------------------------------------
 .byte   W96
@  #12 @025   ----------------------------------------
 .byte   W96
@  #12 @026   ----------------------------------------
 .byte   W96
@  #12 @027   ----------------------------------------
 .byte   W96
@  #12 @028   ----------------------------------------
 .byte   W96
@  #12 @029   ----------------------------------------
 .byte   W96
@  #12 @030   ----------------------------------------
 .byte   W96
@  #12 @031   ----------------------------------------
 .byte   W96
@  #12 @032   ----------------------------------------
 .byte   W96
@  #12 @033   ----------------------------------------
 .byte   W96
@  #12 @034   ----------------------------------------
 .byte   W96
@  #12 @035   ----------------------------------------
 .byte   W96
@  #12 @036   ----------------------------------------
 .byte   W96
@  #12 @037   ----------------------------------------
 .byte   W96
@  #12 @038   ----------------------------------------
 .byte   W96
@  #12 @039   ----------------------------------------
 .byte   W96
@  #12 @040   ----------------------------------------
 .byte   W96
@  #12 @041   ----------------------------------------
 .byte   W96
@  #12 @042   ----------------------------------------
 .byte   W96
@  #12 @043   ----------------------------------------
 .byte   W96
@  #12 @044   ----------------------------------------
 .byte   W96
@  #12 @045   ----------------------------------------
 .byte   W96
@  #12 @046   ----------------------------------------
 .byte   W96
@  #12 @047   ----------------------------------------
 .byte   W96
@  #12 @048   ----------------------------------------
 .byte   W96
@  #12 @049   ----------------------------------------
 .byte   W96
@  #12 @050   ----------------------------------------
 .byte   W96
@  #12 @051   ----------------------------------------
 .byte   W96
@  #12 @052   ----------------------------------------
 .byte   W96
@  #12 @053   ----------------------------------------
 .byte   W96
@  #12 @054   ----------------------------------------
 .byte   W96
@  #12 @055   ----------------------------------------
 .byte   W96
@  #12 @056   ----------------------------------------
 .byte   W96
@  #12 @057   ----------------------------------------
 .byte   W96
@  #12 @058   ----------------------------------------
 .byte   W96
@  #12 @059   ----------------------------------------
 .byte   W96
@  #12 @060   ----------------------------------------
 .byte   W96
@  #12 @061   ----------------------------------------
 .byte   W96
@  #12 @062   ----------------------------------------
 .byte   W96
@  #12 @063   ----------------------------------------
 .byte   W96
@  #12 @064   ----------------------------------------
 .byte   W96
@  #12 @065   ----------------------------------------
 .byte   W96
@  #12 @066   ----------------------------------------
 .byte   W96
@  #12 @067   ----------------------------------------
 .byte   W96
@  #12 @068   ----------------------------------------
 .byte   W96
@  #12 @069   ----------------------------------------
 .byte   W96
@  #12 @070   ----------------------------------------
 .byte   W96
@  #12 @071   ----------------------------------------
 .byte   W96
@  #12 @072   ----------------------------------------
 .byte   W96
@  #12 @073   ----------------------------------------
 .byte   W96
@  #12 @074   ----------------------------------------
 .byte   W96
@  #12 @075   ----------------------------------------
 .byte   W96
@  #12 @076   ----------------------------------------
 .byte   W96
@  #12 @077   ----------------------------------------
 .byte   W96
@  #12 @078   ----------------------------------------
 .byte   W96
@  #12 @079   ----------------------------------------
 .byte   W96
@  #12 @080   ----------------------------------------
 .byte   W96
@  #12 @081   ----------------------------------------
 .byte   W96
@  #12 @082   ----------------------------------------
 .byte   W96
@  #12 @083   ----------------------------------------
 .byte   W96
@  #12 @084   ----------------------------------------
 .byte   W96
@  #12 @085   ----------------------------------------
 .byte   W96
@  #12 @086   ----------------------------------------
 .byte   W96
@  #12 @087   ----------------------------------------
 .byte   W96
@  #12 @088   ----------------------------------------
 .byte   W96
@  #12 @089   ----------------------------------------
 .byte   W96
@  #12 @090   ----------------------------------------
 .byte   GOTO
  .word Label_015735DD
 .byte   FINE

@**************** Track 13 (Midi-Chn.12) ****************@

FeldschlactIII_013:
@  #13 @000   ----------------------------------------
 .byte   KEYSH , FeldschlactIII_key+0
 .byte   VOICE , 34
 .byte   VOL , 63*FeldschlactIII_mvl/mxv
 .byte   W96
@  #13 @001   ----------------------------------------
 .byte   W96
@  #13 @002   ----------------------------------------
 .byte   W96
@  #13 @003   ----------------------------------------
 .byte   W60
 .byte   N11 ,Cn2 ,v080
 .byte   W12
 .byte   As2
 .byte   W12
 .byte   Ds2
 .byte   W12
@  #13 @004   ----------------------------------------
Label_01573A02:
 .byte   N11 ,Fn2 ,v080
 .byte   W36
 .byte   N11
 .byte   W36
 .byte   N11
 .byte   W24
 .byte   PEND 
@  #13 @005   ----------------------------------------
Label_01573A0B:
 .byte   W12
 .byte   N11 ,Fn2 ,v080
 .byte   W36
 .byte   N11
 .byte   W24
 .byte   N11
 .byte   W12
 .byte   Cn2
 .byte   W12
 .byte   PEND 
@  #13 @006   ----------------------------------------
Label_01573A17:
 .byte   N11 ,Fn2 ,v080
 .byte   W12
 .byte   Cn2
 .byte   W12
 .byte   Dn2
 .byte   W12
 .byte   Cn2
 .byte   W36
 .byte   N11
 .byte   W24
 .byte   PEND 
@  #13 @007   ----------------------------------------
 .byte   W12
 .byte   N10
 .byte   W36
 .byte   N10
 .byte   W12
 .byte   N10
 .byte   W12
 .byte   N06 ,As2
 .byte   W06
 .byte   N18 ,Ds2
 .byte   W18
@  #13 @008   ----------------------------------------
Label_01573A31:
 .byte   N22 ,Gs2 ,v080
 .byte   W36
 .byte   N10 ,Gn3
 .byte   W24
 .byte   Fn3
 .byte   W12
 .byte   Gn2
 .byte   W12
 .byte   Fn3
 .byte   W12
 .byte   PEND 
@  #13 @009   ----------------------------------------
Label_01573A3F:
 .byte   N10 ,Fn2 ,v080
 .byte   W12
 .byte   N10
 .byte   W24
 .byte   Ds3
 .byte   W12
 .byte   Fn3
 .byte   W12
 .byte   Cn3
 .byte   W12
 .byte   Fn2
 .byte   W12
 .byte   Cn3
 .byte   W12
 .byte   PEND 
@  #13 @010   ----------------------------------------
Label_01573A50:
 .byte   N10 ,As2 ,v080
 .byte   W12
 .byte   Fn2
 .byte   W12
 .byte   N22 ,Cs2
 .byte   W24
 .byte   Fn2
 .byte   W24
 .byte   N10 ,Gn2
 .byte   W12
 .byte   Gs2
 .byte   W12
 .byte   PEND 
@  #13 @011   ----------------------------------------
Label_01573A61:
 .byte   N10 ,Cs2 ,v080
 .byte   W12
 .byte   N10
 .byte   W12
 .byte   Fn2
 .byte   W12
 .byte   Cs3
 .byte   W12
 .byte   Cn3
 .byte   W12
 .byte   Gn2
 .byte   W12
 .byte   N22 ,Cn2
 .byte   W24
 .byte   PEND 
@  #13 @012   ----------------------------------------
Label_01573A73:
 .byte   N22 ,Fn2 ,v080
 .byte   W36
 .byte   N10 ,Fn3
 .byte   W24
 .byte   Fn2
 .byte   W12
 .byte   Gn2
 .byte   W12
 .byte   Gs2
 .byte   W12
 .byte   PEND 
@  #13 @013   ----------------------------------------
Label_01573A81:
 .byte   N10 ,As1 ,v080
 .byte   W12
 .byte   N10
 .byte   W12
 .byte   Ds2
 .byte   W12
 .byte   N10
 .byte   W12
 .byte   Gs2
 .byte   W12
 .byte   Ds2
 .byte   W12
 .byte   Gs1
 .byte   W12
 .byte   Cn2
 .byte   W12
 .byte   PEND 
@  #13 @014   ----------------------------------------
Label_01573A94:
 .byte   N22 ,As2 ,v080
 .byte   W24
 .byte   N10 ,Gs2
 .byte   W12
 .byte   As2
 .byte   W12
 .byte   Fn2
 .byte   W12
 .byte   Cn2
 .byte   W12
 .byte   N22 ,Fn2
 .byte   W24
 .byte   PEND 
@  #13 @015   ----------------------------------------
Label_01573AA5:
 .byte   N11 ,As1 ,v080
 .byte   W12
 .byte   N11
 .byte   W12
 .byte   N11
 .byte   W12
 .byte   N11
 .byte   W12
 .byte   N23 ,Cn2
 .byte   W24
 .byte   N23
 .byte   W24
 .byte   PEND 
@  #13 @016   ----------------------------------------
Label_01573AB5:
 .byte   N23 ,Gs2 ,v080
 .byte   W36
 .byte   N11 ,Gn3
 .byte   W24
 .byte   Fn3
 .byte   W12
 .byte   Gn2
 .byte   W12
 .byte   Fn3
 .byte   W12
 .byte   PEND 
@  #13 @017   ----------------------------------------
 .byte   Fs2
 .byte   W12
 .byte   N11
 .byte   W24
 .byte   Ds3
 .byte   W12
 .byte   Fn3
 .byte   W12
 .byte   Cn3
 .byte   W12
 .byte   Fn2
 .byte   W12
 .byte   Cn3
 .byte   W12
@  #13 @018   ----------------------------------------
 .byte   N23 ,En2
 .byte   W36
 .byte   N11 ,Ds3
 .byte   W24
 .byte   Cs3
 .byte   W12
 .byte   Ds2
 .byte   W12
 .byte   Cs3
 .byte   W12
@  #13 @019   ----------------------------------------
 .byte   Dn2
 .byte   W12
 .byte   N11
 .byte   W24
 .byte   Bn2
 .byte   W12
 .byte   Cs3
 .byte   W12
 .byte   Gs2
 .byte   W12
 .byte   Cs2
 .byte   W12
 .byte   Gs2
 .byte   W12
@  #13 @020   ----------------------------------------
Label_01573AEB:
 .byte   N11 ,Ds2 ,v080
 .byte   W36
 .byte   Cs2
 .byte   W36
 .byte   N05 ,Ds2
 .byte   W06
 .byte   Cn2
 .byte   W06
 .byte   N05
 .byte   W12
@  #13 @021   ----------------------------------------
 .byte   N68
 .byte   W96
@  #13 @022   ----------------------------------------
Label_01573AFA:
 .byte   N11 ,Cs2 ,v080
 .byte   W36
 .byte   N44 ,Cn3
 .byte   W48
 .byte   N11 ,As2
 .byte   W12
 .byte   PEND 
@  #13 @023   ----------------------------------------
Label_01573B05:
 .byte   W12
 .byte   N11 ,Cs2 ,v080
 .byte   W12
 .byte   Cn3
 .byte   W24
 .byte   Gs2
 .byte   W12
 .byte   N05 ,As2
 .byte   W06
 .byte   N05
 .byte   W06
 .byte   Gs2
 .byte   W06
 .byte   Fn2
 .byte   W06
 .byte   Ds2
 .byte   W06
 .byte   Fn2
 .byte   W06
 .byte   PEND 
@  #13 @024   ----------------------------------------
Label_01573B1C:
 .byte   N11 ,Cs2 ,v080
 .byte   W24
 .byte   Cn3
 .byte   W12
 .byte   N11
 .byte   W24
 .byte   Gs2
 .byte   W12
 .byte   As2
 .byte   W12
 .byte   Cn3
 .byte   W12
 .byte   PEND 
@  #13 @025   ----------------------------------------
Label_01573B2B:
 .byte   W12
 .byte   N11 ,Cs2 ,v080
 .byte   W12
 .byte   Cn3
 .byte   W12
 .byte   Cs2
 .byte   W12
 .byte   N11
 .byte   W12
 .byte   Gn2
 .byte   W12
 .byte   Cn3
 .byte   W12
 .byte   As2
 .byte   W12
 .byte   PEND 
@  #13 @026   ----------------------------------------
 .byte   Cs2
 .byte   W12
 .byte   N11
 .byte   W24
 .byte   N44 ,Cn3
 .byte   W48
 .byte   N11 ,As2
 .byte   W12
@  #13 @027   ----------------------------------------
 .byte   PATT
  .word Label_01573B05
@  #13 @028   ----------------------------------------
 .byte   PATT
  .word Label_01573B1C
@  #13 @029   ----------------------------------------
 .byte   PATT
  .word Label_01573B2B
@  #13 @030   ----------------------------------------
 .byte   PATT
  .word Label_01573AFA
@  #13 @031   ----------------------------------------
Label_01573B5B:
 .byte   W12
 .byte   N10 ,Cs2 ,v080
 .byte   W12
 .byte   Cn3
 .byte   W24
 .byte   Gs2
 .byte   W12
 .byte   N04 ,As2
 .byte   W06
 .byte   N04
 .byte   W06
 .byte   Gs2
 .byte   W06
 .byte   Fn2
 .byte   W06
 .byte   Ds2
 .byte   W06
 .byte   Fn2
 .byte   W06
 .byte   PEND 
@  #13 @032   ----------------------------------------
Label_01573B72:
 .byte   N10 ,Cs2 ,v080
 .byte   W24
 .byte   Cn3
 .byte   W12
 .byte   N10
 .byte   W24
 .byte   Gs2
 .byte   W12
 .byte   As2
 .byte   W12
 .byte   Cn3
 .byte   W12
 .byte   PEND 
@  #13 @033   ----------------------------------------
Label_01573B81:
 .byte   W12
 .byte   N10 ,Cs2 ,v080
 .byte   W12
 .byte   Cn3
 .byte   W12
 .byte   Cs2
 .byte   W12
 .byte   N10
 .byte   W12
 .byte   Gn2
 .byte   W12
 .byte   Cn3
 .byte   W12
 .byte   As2
 .byte   W12
 .byte   PEND 
@  #13 @034   ----------------------------------------
 .byte   Cs2
 .byte   W12
 .byte   N10
 .byte   W24
 .byte   N44 ,Cn3
 .byte   W48
 .byte   N10 ,As2
 .byte   W12
@  #13 @035   ----------------------------------------
 .byte   PATT
  .word Label_01573B5B
@  #13 @036   ----------------------------------------
 .byte   PATT
  .word Label_01573B72
@  #13 @037   ----------------------------------------
 .byte   PATT
  .word Label_01573B81
@  #13 @038   ----------------------------------------
 .byte   N80 ,Fn2 ,v080
 .byte   W96
@  #13 @039   ----------------------------------------
Label_01573BB0:
 .byte   W12
 .byte   N10 ,Fn2 ,v080
 .byte   W36
 .byte   N10
 .byte   W24
 .byte   N10
 .byte   W12
 .byte   Cn2
 .byte   W12
 .byte   PEND 
@  #13 @040   ----------------------------------------
Label_01573BBC:
 .byte   N10 ,Fn2 ,v080
 .byte   W12
 .byte   Cn2
 .byte   W12
 .byte   Dn2
 .byte   W12
 .byte   Cn2
 .byte   W36
 .byte   N10
 .byte   W24
 .byte   PEND 
@  #13 @041   ----------------------------------------
 .byte   W12
 .byte   N10
 .byte   W36
 .byte   N10
 .byte   W12
 .byte   N10
 .byte   W12
 .byte   Dn2
 .byte   W12
 .byte   Ds2
 .byte   W12
@  #13 @042   ----------------------------------------
 .byte   Fn2
 .byte   W36
 .byte   N10
 .byte   W36
 .byte   N10
 .byte   W24
@  #13 @043   ----------------------------------------
 .byte   PATT
  .word Label_01573BB0
@  #13 @044   ----------------------------------------
 .byte   PATT
  .word Label_01573BBC
@  #13 @045   ----------------------------------------
 .byte   W12
 .byte   N10 ,Cn2 ,v080
 .byte   W36
 .byte   N10
 .byte   W12
 .byte   N10
 .byte   W12
 .byte   N04 ,As2
 .byte   W06
 .byte   N10 ,Cn2
 .byte   W18
@  #13 @046   ----------------------------------------
 .byte   PATT
  .word Label_01573A31
@  #13 @047   ----------------------------------------
 .byte   PATT
  .word Label_01573A3F
@  #13 @048   ----------------------------------------
 .byte   PATT
  .word Label_01573A50
@  #13 @049   ----------------------------------------
 .byte   PATT
  .word Label_01573A61
@  #13 @050   ----------------------------------------
 .byte   PATT
  .word Label_01573A73
@  #13 @051   ----------------------------------------
 .byte   PATT
  .word Label_01573A81
@  #13 @052   ----------------------------------------
 .byte   PATT
  .word Label_01573A94
@  #13 @053   ----------------------------------------
 .byte   N10 ,As1 ,v080
 .byte   W12
 .byte   N10
 .byte   W12
 .byte   N10
 .byte   W12
 .byte   N10
 .byte   W12
 .byte   N22 ,Cn2
 .byte   W24
 .byte   N22
 .byte   W24
@  #13 @054   ----------------------------------------
 .byte   TIE ,As1
 .byte   W96
@  #13 @055   ----------------------------------------
 .byte   W92
 .byte   W03
 .byte   EOT
 .byte   W01
@  #13 @056   ----------------------------------------
 .byte   TIE ,Fn1
 .byte   W96
@  #13 @057   ----------------------------------------
 .byte   W92
 .byte   W03
 .byte   EOT
 .byte   W01
@  #13 @058   ----------------------------------------
 .byte   TIE ,As1
 .byte   W96
@  #13 @059   ----------------------------------------
 .byte   W92
 .byte   W03
 .byte   EOT
 .byte   W01
@  #13 @060   ----------------------------------------
 .byte   TIE ,Fn1
 .byte   W96
@  #13 @061   ----------------------------------------
 .byte   W92
 .byte   W03
 .byte   EOT
 .byte   W01
@  #13 @062   ----------------------------------------
 .byte   TIE ,As1
 .byte   W96
@  #13 @063   ----------------------------------------
 .byte   W92
 .byte   W03
 .byte   EOT
 .byte   W01
@  #13 @064   ----------------------------------------
 .byte   TIE ,Fn1
 .byte   W96
@  #13 @065   ----------------------------------------
 .byte   W92
 .byte   W03
 .byte   EOT
 .byte   W01
@  #13 @066   ----------------------------------------
 .byte   TIE ,As1
 .byte   W96
@  #13 @067   ----------------------------------------
 .byte   W92
 .byte   W03
 .byte   EOT
 .byte   W01
@  #13 @068   ----------------------------------------
 .byte   TIE ,Fn1
 .byte   W96
@  #13 @069   ----------------------------------------
 .byte   W92
 .byte   W03
 .byte   EOT
 .byte   W01
@  #13 @070   ----------------------------------------
 .byte   N80 ,Fn2
 .byte   W96
@  #13 @071   ----------------------------------------
 .byte   PATT
  .word Label_01573A0B
@  #13 @072   ----------------------------------------
 .byte   PATT
  .word Label_01573A17
@  #13 @073   ----------------------------------------
 .byte   W12
 .byte   N11 ,Cn2 ,v080
 .byte   W36
 .byte   N11
 .byte   W12
 .byte   N11
 .byte   W12
 .byte   Dn2
 .byte   W12
 .byte   Ds2
 .byte   W12
@  #13 @074   ----------------------------------------
 .byte   PATT
  .word Label_01573A02
@  #13 @075   ----------------------------------------
 .byte   PATT
  .word Label_01573A0B
@  #13 @076   ----------------------------------------
 .byte   PATT
  .word Label_01573A17
@  #13 @077   ----------------------------------------
 .byte   W12
 .byte   N11 ,Cn2 ,v080
 .byte   W36
 .byte   N11
 .byte   W12
 .byte   N11
 .byte   W12
 .byte   N05 ,As2
 .byte   W06
 .byte   N11 ,Cn2
 .byte   W18
@  #13 @078   ----------------------------------------
 .byte   PATT
  .word Label_01573AB5
@  #13 @079   ----------------------------------------
 .byte   N11 ,Fn2 ,v080
 .byte   W12
 .byte   N11
 .byte   W24
 .byte   Ds3
 .byte   W12
 .byte   Fn3
 .byte   W12
 .byte   Cn3
 .byte   W12
 .byte   Fn2
 .byte   W12
 .byte   Cn3
 .byte   W12
@  #13 @080   ----------------------------------------
 .byte   As2
 .byte   W12
 .byte   Fn2
 .byte   W12
 .byte   N23 ,Cs2
 .byte   W24
 .byte   Fn2
 .byte   W24
 .byte   N11 ,Gn2
 .byte   W12
 .byte   Gs2
 .byte   W12
@  #13 @081   ----------------------------------------
 .byte   Cs2
 .byte   W12
 .byte   N11
 .byte   W12
 .byte   Fn2
 .byte   W12
 .byte   Cs3
 .byte   W12
 .byte   Cn3
 .byte   W12
 .byte   Gn2
 .byte   W12
 .byte   N23 ,Cn2
 .byte   W24
@  #13 @082   ----------------------------------------
 .byte   Fn2
 .byte   W36
 .byte   N11 ,Fn3
 .byte   W24
 .byte   Fn2
 .byte   W12
 .byte   Gn2
 .byte   W12
 .byte   Gs2
 .byte   W12
@  #13 @083   ----------------------------------------
 .byte   As1
 .byte   W12
 .byte   N11
 .byte   W12
 .byte   Ds2
 .byte   W12
 .byte   N11
 .byte   W12
 .byte   Gs2
 .byte   W12
 .byte   Ds2
 .byte   W12
 .byte   Gs1
 .byte   W12
 .byte   Cn2
 .byte   W12
@  #13 @084   ----------------------------------------
 .byte   N23 ,As2
 .byte   W24
 .byte   N11 ,Gs2
 .byte   W12
 .byte   As2
 .byte   W12
 .byte   Fn2
 .byte   W12
 .byte   Cn2
 .byte   W12
 .byte   N23 ,Fn2
 .byte   W24
@  #13 @085   ----------------------------------------
 .byte   PATT
  .word Label_01573AA5
@  #13 @086   ----------------------------------------
 .byte   W96
@  #13 @087   ----------------------------------------
 .byte   W96
@  #13 @088   ----------------------------------------
 .byte   W96
@  #13 @089   ----------------------------------------
 .byte   W36
 .byte   N11 ,Bn2 ,v080
 .byte   W12
 .byte   N05 ,Cs3
 .byte   W06
 .byte   N05
 .byte   W06
 .byte   N11 ,Gs2
 .byte   W12
 .byte   Cs2
 .byte   W12
 .byte   Gs2
 .byte   W12
@  #13 @090   ----------------------------------------
 .byte   GOTO
  .word Label_01573AEB
 .byte   FINE

@**************** Track 14 (Midi-Chn.13) ****************@

FeldschlactIII_014:
@  #14 @000   ----------------------------------------
 .byte   KEYSH , FeldschlactIII_key+0
 .byte   VOICE , 124
 .byte   VOL , 63*FeldschlactIII_mvl/mxv
 .byte   N06 ,Fs1 ,v052
 .byte   W06
 .byte   N06
 .byte   W06
 .byte   N06
 .byte   W06
 .byte   N06
 .byte   W06
 .byte   N06
 .byte   W06
 .byte   N06
 .byte   W06
 .byte   N06
 .byte   W06
 .byte   N06
 .byte   W06
 .byte   N06
 .byte   W06
 .byte   N06
 .byte   W06
 .byte   N06
 .byte   W06
 .byte   N06
 .byte   W06
 .byte   N06
 .byte   W06
 .byte   N06
 .byte   W06
 .byte   N06
 .byte   W06
 .byte   N06
 .byte   W06
@  #14 @001   ----------------------------------------
Label_01573F28:
 .byte   N06 ,Fs1 ,v052
 .byte   W06
 .byte   N06
 .byte   W06
 .byte   N06
 .byte   W06
 .byte   N06
 .byte   W06
 .byte   N06
 .byte   W06
 .byte   N06
 .byte   W06
 .byte   N06
 .byte   W06
 .byte   N06
 .byte   W06
 .byte   N06
 .byte   W06
 .byte   N06
 .byte   W06
 .byte   N06
 .byte   W06
 .byte   N06
 .byte   W06
 .byte   N06
 .byte   W06
 .byte   N06
 .byte   W06
 .byte   N06
 .byte   W06
 .byte   N06
 .byte   W06
 .byte   PEND 
@  #14 @002   ----------------------------------------
 .byte   PATT
  .word Label_01573F28
@  #14 @003   ----------------------------------------
 .byte   PATT
  .word Label_01573F28
@  #14 @004   ----------------------------------------
Label_01573F55:
 .byte   N12 ,Cn1 ,v080
 .byte   N06 ,Fs1 ,v052
 .byte   W06
 .byte   N06
 .byte   W06
 .byte   N06
 .byte   W06
 .byte   N06
 .byte   W06
 .byte   N06
 .byte   W06
 .byte   N06
 .byte   W06
 .byte   N12 ,Cn1 ,v080
 .byte   N06 ,Fs1 ,v052
 .byte   W06
 .byte   N06
 .byte   W06
 .byte   N06
 .byte   W06
 .byte   N06
 .byte   W06
 .byte   N06
 .byte   W06
 .byte   N06
 .byte   W06
 .byte   N12 ,Cn1 ,v080
 .byte   N06 ,Fs1 ,v052
 .byte   W06
 .byte   N06
 .byte   W06
 .byte   N06
 .byte   W06
 .byte   N06
 .byte   W06
 .byte   PEND 
@  #14 @005   ----------------------------------------
 .byte   N06
 .byte   W06
 .byte   N06
 .byte   W06
 .byte   N12 ,Cn1 ,v080
 .byte   N06 ,Fs1 ,v052
 .byte   W06
 .byte   N06
 .byte   W06
 .byte   N06
 .byte   W06
 .byte   N06
 .byte   W06
 .byte   N06
 .byte   W06
 .byte   N06
 .byte   W06
 .byte   N12 ,Cn1 ,v080
 .byte   N06 ,Fs1 ,v052
 .byte   W06
 .byte   N06
 .byte   W06
 .byte   N06
 .byte   W06
 .byte   N06
 .byte   W06
 .byte   N12 ,Cn1 ,v080
 .byte   N06 ,Fs1 ,v052
 .byte   W06
 .byte   N06
 .byte   W06
 .byte   N12 ,Cn1 ,v080
 .byte   N06 ,Fs1 ,v052
 .byte   W06
 .byte   N06
 .byte   W06
@  #14 @006   ----------------------------------------
 .byte   PATT
  .word Label_01573F55
@  #14 @007   ----------------------------------------
 .byte   N06 ,Fs1 ,v052
 .byte   W06
 .byte   N06
 .byte   W06
 .byte   N12 ,Cn1 ,v080
 .byte   N06 ,Fs1 ,v052
 .byte   W06
 .byte   N06
 .byte   W06
 .byte   N06
 .byte   W06
 .byte   N06
 .byte   W06
 .byte   N06
 .byte   W06
 .byte   N06
 .byte   W06
 .byte   N12 ,Cn1 ,v080
 .byte   N06 ,Dn1 ,v092
 .byte   N06 ,Fs1 ,v052
 .byte   W06
 .byte   N12 ,Dn1 ,v092
 .byte   N06 ,Fs1 ,v052
 .byte   W06
 .byte   N06
 .byte   W06
 .byte   Dn1 ,v092
 .byte   N06 ,Fs1 ,v052
 .byte   W06
 .byte   N12 ,Cn1 ,v080
 .byte   N06 ,Dn1 ,v092
 .byte   N06 ,Fs1 ,v052
 .byte   W06
 .byte   Dn1 ,v092
 .byte   N06 ,Fs1 ,v052
 .byte   W06
 .byte   N12 ,Cn1 ,v080
 .byte   N12 ,Dn1 ,v092
 .byte   N06 ,Fs1 ,v052
 .byte   W06
 .byte   N06
 .byte   W06
@  #14 @008   ----------------------------------------
Label_0157400A:
 .byte   N12 ,Cn1 ,v080
 .byte   N96 ,Cs2 ,v064
 .byte   N96 ,Gn2
 .byte   N96 ,An2
 .byte   W12
 .byte   N12 ,Fs1 ,v052
 .byte   W12
 .byte   Dn1 ,v092
 .byte   W12
 .byte   Cn1 ,v080
 .byte   W12
 .byte   Fs1 ,v052
 .byte   W12
 .byte   N12
 .byte   W12
 .byte   Cn1 ,v080
 .byte   N12 ,Dn1 ,v092
 .byte   W12
 .byte   N06 ,Fs1 ,v052
 .byte   W06
 .byte   N06
 .byte   W06
 .byte   PEND 
@  #14 @009   ----------------------------------------
Label_01574031:
 .byte   N06 ,Fs1 ,v052
 .byte   W06
 .byte   N06
 .byte   W06
 .byte   N12 ,Cn1 ,v080
 .byte   N06 ,Fs1 ,v052
 .byte   W06
 .byte   N06
 .byte   W06
 .byte   N12 ,Dn1 ,v092
 .byte   N12 ,Fs1 ,v052
 .byte   W24
 .byte   Cn1 ,v080
 .byte   W12
 .byte   Fs1 ,v052
 .byte   W12
 .byte   N06 ,Dn1 ,v092
 .byte   W06
 .byte   N18
 .byte   W18
 .byte   PEND 
@  #14 @010   ----------------------------------------
Label_01574054:
 .byte   N12 ,Cn1 ,v080
 .byte   W12
 .byte   Fs1 ,v052
 .byte   W12
 .byte   Dn1 ,v092
 .byte   W12
 .byte   Cn1 ,v080
 .byte   W12
 .byte   Fs1 ,v052
 .byte   W12
 .byte   N12
 .byte   W12
 .byte   Cn1 ,v080
 .byte   N12 ,Dn1 ,v092
 .byte   W12
 .byte   N06 ,Fs1 ,v052
 .byte   W06
 .byte   N06
 .byte   W06
 .byte   PEND 
@  #14 @011   ----------------------------------------
Label_01574073:
 .byte   N06 ,Fs1 ,v052
 .byte   W06
 .byte   N06
 .byte   W06
 .byte   N12 ,Cn1 ,v080
 .byte   N06 ,Fs1 ,v052
 .byte   W06
 .byte   N06
 .byte   W06
 .byte   N12 ,Dn1 ,v092
 .byte   N12 ,Fs1 ,v052
 .byte   W24
 .byte   Cn1 ,v080
 .byte   W12
 .byte   Fs1 ,v052
 .byte   W12
 .byte   Cn1 ,v080
 .byte   N06 ,Dn1 ,v092
 .byte   W06
 .byte   N18
 .byte   W18
 .byte   PEND 
@  #14 @012   ----------------------------------------
 .byte   PATT
  .word Label_01574054
@  #14 @013   ----------------------------------------
 .byte   PATT
  .word Label_01574031
@  #14 @014   ----------------------------------------
 .byte   PATT
  .word Label_01574054
@  #14 @015   ----------------------------------------
 .byte   PATT
  .word Label_01574073
@  #14 @016   ----------------------------------------
 .byte   PATT
  .word Label_01574054
@  #14 @017   ----------------------------------------
 .byte   PATT
  .word Label_01574031
@  #14 @018   ----------------------------------------
 .byte   PATT
  .word Label_01574054
@  #14 @019   ----------------------------------------
 .byte   N06 ,Fs1 ,v052
 .byte   W06
 .byte   N06
 .byte   W06
 .byte   N12 ,Cn1 ,v080
 .byte   N06 ,Fs1 ,v052
 .byte   W06
 .byte   N06
 .byte   W06
 .byte   N12 ,Dn1 ,v092
 .byte   N12 ,Fs1 ,v052
 .byte   W24
 .byte   Cn1 ,v080
 .byte   W12
 .byte   Fs1 ,v052
 .byte   W12
 .byte   N06 ,Dn1 ,v092
 .byte   W06
 .byte   N06
 .byte   W06
 .byte   N12
 .byte   W12
@  #14 @020   ----------------------------------------
Label_015740DF:
 .byte   N12 ,Cn1 ,v080
 .byte   W36
 .byte   N12
 .byte   W36
 .byte   N06
 .byte   W06
 .byte   N06
 .byte   W06
 .byte   N12
 .byte   W12
@  #14 @021   ----------------------------------------
 .byte   N12
 .byte   W48
 .byte   N48 ,En2 ,v064
 .byte   W12
 .byte   N12 ,Dn1 ,v092
 .byte   W12
 .byte   N06
 .byte   W06
 .byte   N12
 .byte   W12
 .byte   N06
 .byte   W06
@  #14 @022   ----------------------------------------
 .byte   Cn1 ,v080
 .byte   N96 ,Cs2 ,v064
 .byte   N96 ,Gn2
 .byte   N96 ,An2
 .byte   W12
 .byte   N12 ,Fs1 ,v052
 .byte   W12
 .byte   Dn1 ,v092
 .byte   W12
 .byte   N06 ,Cn1 ,v080
 .byte   W12
 .byte   N12 ,Fs1 ,v052
 .byte   W12
 .byte   N12
 .byte   W12
 .byte   Dn1 ,v092
 .byte   W12
 .byte   N06 ,Fs1 ,v052
 .byte   W06
 .byte   N06
 .byte   W06
@  #14 @023   ----------------------------------------
Label_0157411F:
 .byte   N06 ,Fs1 ,v052
 .byte   W06
 .byte   N06
 .byte   W06
 .byte   Cn1 ,v080
 .byte   N06 ,Fs1 ,v052
 .byte   W06
 .byte   N06
 .byte   W06
 .byte   Cn1 ,v080
 .byte   N12 ,Dn1 ,v092
 .byte   N12 ,Fs1 ,v052
 .byte   W24
 .byte   N06 ,Cn1 ,v080
 .byte   W12
 .byte   N12 ,Fs1 ,v052
 .byte   W12
 .byte   N06 ,Dn1 ,v092
 .byte   W06
 .byte   N12
 .byte   W06
 .byte   As1 ,v064
 .byte   W12
 .byte   PEND 
@  #14 @024   ----------------------------------------
Label_01574148:
 .byte   N06 ,Cn1 ,v080
 .byte   W12
 .byte   N12 ,Fs1 ,v052
 .byte   W12
 .byte   Dn1 ,v092
 .byte   W12
 .byte   N06 ,Cn1 ,v080
 .byte   W12
 .byte   N12 ,Fs1 ,v052
 .byte   W12
 .byte   N12
 .byte   W12
 .byte   Dn1 ,v092
 .byte   W12
 .byte   N06 ,Fs1 ,v052
 .byte   W06
 .byte   N06
 .byte   W06
 .byte   PEND 
@  #14 @025   ----------------------------------------
Label_01574167:
 .byte   N06 ,Fs1 ,v052
 .byte   W06
 .byte   N06
 .byte   W06
 .byte   Cn1 ,v080
 .byte   N06 ,Fs1 ,v052
 .byte   W06
 .byte   N06
 .byte   W06
 .byte   Cn1 ,v080
 .byte   N12 ,Dn1 ,v092
 .byte   N12 ,Fs1 ,v052
 .byte   W24
 .byte   N06 ,Cn1 ,v080
 .byte   W12
 .byte   N12 ,Fs1 ,v052
 .byte   W12
 .byte   N06 ,Dn1 ,v092
 .byte   W06
 .byte   N12
 .byte   W06
 .byte   N06 ,Cn1 ,v080
 .byte   N12 ,As1 ,v064
 .byte   W12
 .byte   PEND 
@  #14 @026   ----------------------------------------
 .byte   PATT
  .word Label_01574148
@  #14 @027   ----------------------------------------
 .byte   PATT
  .word Label_0157411F
@  #14 @028   ----------------------------------------
 .byte   PATT
  .word Label_01574148
@  #14 @029   ----------------------------------------
 .byte   PATT
  .word Label_01574167
@  #14 @030   ----------------------------------------
Label_015741A8:
 .byte   N06 ,Cn1 ,v080
 .byte   N06 ,Fs1 ,v052
 .byte   W06
 .byte   N06
 .byte   W06
 .byte   N06
 .byte   W06
 .byte   N06
 .byte   W06
 .byte   N12 ,Dn1 ,v092
 .byte   N06 ,Fs1 ,v052
 .byte   W06
 .byte   N06
 .byte   W06
 .byte   Cn1 ,v080
 .byte   N06 ,Fs1 ,v052
 .byte   W06
 .byte   N06
 .byte   W06
 .byte   N06
 .byte   W06
 .byte   N06
 .byte   W06
 .byte   N06
 .byte   W06
 .byte   N06
 .byte   W06
 .byte   N12 ,Dn1 ,v092
 .byte   N06 ,Fs1 ,v052
 .byte   W06
 .byte   N06
 .byte   W06
 .byte   N06
 .byte   W06
 .byte   N06
 .byte   W06
 .byte   PEND 
@  #14 @031   ----------------------------------------
Label_015741DC:
 .byte   N06 ,Fs1 ,v052
 .byte   W06
 .byte   N06
 .byte   W06
 .byte   Cn1 ,v080
 .byte   N06 ,Fs1 ,v052
 .byte   W06
 .byte   N06
 .byte   W06
 .byte   Cn1 ,v080
 .byte   N12 ,Dn1 ,v092
 .byte   N06 ,Fs1 ,v052
 .byte   W06
 .byte   N06
 .byte   W06
 .byte   N06
 .byte   W06
 .byte   N06
 .byte   W06
 .byte   Cn1 ,v080
 .byte   N06 ,Fs1 ,v052
 .byte   W06
 .byte   N06
 .byte   W06
 .byte   N06
 .byte   W06
 .byte   N06
 .byte   W06
 .byte   Dn1 ,v092
 .byte   N06 ,Fs1 ,v052
 .byte   W06
 .byte   N12 ,Dn1 ,v092
 .byte   N06 ,Fs1 ,v052
 .byte   W06
 .byte   N06
 .byte   W06
 .byte   N06
 .byte   W06
 .byte   PEND 
@  #14 @032   ----------------------------------------
 .byte   PATT
  .word Label_015741A8
@  #14 @033   ----------------------------------------
 .byte   N06 ,Fs1 ,v052
 .byte   W06
 .byte   N06
 .byte   W06
 .byte   Cn1 ,v080
 .byte   N06 ,Fs1 ,v052
 .byte   W06
 .byte   N06
 .byte   W06
 .byte   Cn1 ,v080
 .byte   N12 ,Dn1 ,v092
 .byte   N06 ,Fs1 ,v052
 .byte   W06
 .byte   N06
 .byte   W06
 .byte   N06
 .byte   W06
 .byte   N06
 .byte   W06
 .byte   Cn1 ,v080
 .byte   N06 ,Fs1 ,v052
 .byte   W06
 .byte   N06
 .byte   W06
 .byte   N06
 .byte   W06
 .byte   N06
 .byte   W06
 .byte   Dn1 ,v092
 .byte   N06 ,Fs1 ,v052
 .byte   W06
 .byte   N12 ,Dn1 ,v092
 .byte   N06 ,Fs1 ,v052
 .byte   W06
 .byte   Cn1 ,v080
 .byte   N06 ,Fs1 ,v052
 .byte   W06
 .byte   N06
 .byte   W06
@  #14 @034   ----------------------------------------
 .byte   PATT
  .word Label_015741A8
@  #14 @035   ----------------------------------------
 .byte   PATT
  .word Label_015741DC
@  #14 @036   ----------------------------------------
 .byte   PATT
  .word Label_015741A8
@  #14 @037   ----------------------------------------
 .byte   N06 ,Fs1 ,v052
 .byte   N96 ,En2 ,v064
 .byte   W06
 .byte   N06 ,Fs1 ,v052
 .byte   W06
 .byte   Cn1 ,v080
 .byte   N06 ,Fs1 ,v052
 .byte   W06
 .byte   N06
 .byte   W06
 .byte   Cn1 ,v080
 .byte   N12 ,Dn1 ,v092
 .byte   N06 ,Fs1 ,v052
 .byte   W06
 .byte   N06
 .byte   W06
 .byte   N06
 .byte   W06
 .byte   N06
 .byte   W06
 .byte   Cn1 ,v080
 .byte   N12 ,Dn1 ,v092
 .byte   N06 ,Fs1 ,v052
 .byte   W06
 .byte   N06
 .byte   W06
 .byte   N06
 .byte   W06
 .byte   N06
 .byte   W06
 .byte   Dn1 ,v092
 .byte   N06 ,Fs1 ,v052
 .byte   W06
 .byte   Dn1 ,v092
 .byte   N06 ,Fs1 ,v052
 .byte   W06
 .byte   Cn1 ,v080
 .byte   N12 ,Dn1 ,v092
 .byte   N06 ,Fs1 ,v052
 .byte   W06
 .byte   N06
 .byte   W06
@  #14 @038   ----------------------------------------
Label_015742B1:
 .byte   N12 ,Cn1 ,v080
 .byte   N06 ,Fs1 ,v052
 .byte   N96 ,Cs2 ,v064
 .byte   N96 ,Gn2
 .byte   N96 ,An2
 .byte   W06
 .byte   N06 ,Fs1 ,v052
 .byte   W06
 .byte   N06
 .byte   W06
 .byte   N06
 .byte   W06
 .byte   N06
 .byte   W06
 .byte   N06
 .byte   W06
 .byte   N12 ,Cn1 ,v080
 .byte   N06 ,Fs1 ,v052
 .byte   W06
 .byte   N06
 .byte   W06
 .byte   N06
 .byte   W06
 .byte   N06
 .byte   W06
 .byte   N06
 .byte   W06
 .byte   N06
 .byte   W06
 .byte   N12 ,Cn1 ,v080
 .byte   N06 ,Fs1 ,v052
 .byte   W06
 .byte   N06
 .byte   W06
 .byte   N06
 .byte   W06
 .byte   N06
 .byte   W06
 .byte   PEND 
@  #14 @039   ----------------------------------------
Label_015742EA:
 .byte   N06 ,Fs1 ,v052
 .byte   W06
 .byte   N06
 .byte   W06
 .byte   N12 ,Cn1 ,v080
 .byte   N06 ,Fs1 ,v052
 .byte   W06
 .byte   N06
 .byte   W06
 .byte   N06
 .byte   W06
 .byte   N06
 .byte   W06
 .byte   N06
 .byte   W06
 .byte   N06
 .byte   W06
 .byte   N12 ,Cn1 ,v080
 .byte   N06 ,Fs1 ,v052
 .byte   W06
 .byte   N06
 .byte   W06
 .byte   N06
 .byte   W06
 .byte   N06
 .byte   W06
 .byte   N12 ,Cn1 ,v080
 .byte   N06 ,Fs1 ,v052
 .byte   W06
 .byte   N06
 .byte   W06
 .byte   N06
 .byte   W06
 .byte   N06
 .byte   W06
 .byte   PEND 
@  #14 @040   ----------------------------------------
 .byte   PATT
  .word Label_01573F55
@  #14 @041   ----------------------------------------
 .byte   PATT
  .word Label_015742EA
@  #14 @042   ----------------------------------------
 .byte   PATT
  .word Label_01573F55
@  #14 @043   ----------------------------------------
 .byte   PATT
  .word Label_015742EA
@  #14 @044   ----------------------------------------
 .byte   PATT
  .word Label_01573F55
@  #14 @045   ----------------------------------------
Label_01574335:
 .byte   N06 ,Fs1 ,v052
 .byte   W06
 .byte   N06
 .byte   W06
 .byte   N12 ,Cn1 ,v080
 .byte   N06 ,Fs1 ,v052
 .byte   W06
 .byte   N06
 .byte   W06
 .byte   N06
 .byte   W06
 .byte   N06
 .byte   W06
 .byte   N06
 .byte   W06
 .byte   N06
 .byte   W06
 .byte   Dn1 ,v092
 .byte   N06 ,Fs1 ,v052
 .byte   W06
 .byte   N12 ,Dn1 ,v092
 .byte   N06 ,Fs1 ,v052
 .byte   W06
 .byte   N06
 .byte   W06
 .byte   Dn1 ,v092
 .byte   N06 ,Fs1 ,v052
 .byte   W06
 .byte   Dn1 ,v092
 .byte   N06 ,Fs1 ,v052
 .byte   W06
 .byte   Dn1 ,v092
 .byte   N06 ,Fs1 ,v052
 .byte   W06
 .byte   N12 ,Dn1 ,v092
 .byte   N06 ,Fs1 ,v052
 .byte   W06
 .byte   N06
 .byte   W06
 .byte   PEND 
@  #14 @046   ----------------------------------------
 .byte   PATT
  .word Label_0157400A
@  #14 @047   ----------------------------------------
 .byte   PATT
  .word Label_01574031
@  #14 @048   ----------------------------------------
 .byte   PATT
  .word Label_01574054
@  #14 @049   ----------------------------------------
 .byte   PATT
  .word Label_01574073
@  #14 @050   ----------------------------------------
 .byte   PATT
  .word Label_01574054
@  #14 @051   ----------------------------------------
 .byte   PATT
  .word Label_01574031
@  #14 @052   ----------------------------------------
 .byte   PATT
  .word Label_01574054
@  #14 @053   ----------------------------------------
 .byte   PATT
  .word Label_01574073
@  #14 @054   ----------------------------------------
 .byte   N12 ,Cn1 ,v080
 .byte   N96 ,Cs2 ,v064
 .byte   N96 ,Gn2
 .byte   N96 ,An2
 .byte   W36
 .byte   N12 ,Cn1 ,v080
 .byte   W36
 .byte   N12
 .byte   W24
@  #14 @055   ----------------------------------------
Label_015743B0:
 .byte   W12
 .byte   N12 ,Cn1 ,v080
 .byte   W36
 .byte   N12
 .byte   W24
 .byte   N12
 .byte   W24
 .byte   PEND 
@  #14 @056   ----------------------------------------
Label_015743BA:
 .byte   N12 ,Cn1 ,v080
 .byte   W36
 .byte   N12
 .byte   W36
 .byte   N12
 .byte   W24
 .byte   PEND 
@  #14 @057   ----------------------------------------
Label_015743C3:
 .byte   W12
 .byte   N12 ,Cn1 ,v080
 .byte   W36
 .byte   N12
 .byte   W24
 .byte   N12
 .byte   W12
 .byte   N12
 .byte   W12
 .byte   PEND 
@  #14 @058   ----------------------------------------
 .byte   PATT
  .word Label_015743BA
@  #14 @059   ----------------------------------------
 .byte   PATT
  .word Label_015743B0
@  #14 @060   ----------------------------------------
 .byte   PATT
  .word Label_015743BA
@  #14 @061   ----------------------------------------
 .byte   PATT
  .word Label_015743C3
@  #14 @062   ----------------------------------------
 .byte   PATT
  .word Label_015743BA
@  #14 @063   ----------------------------------------
 .byte   PATT
  .word Label_015743B0
@  #14 @064   ----------------------------------------
 .byte   PATT
  .word Label_015743BA
@  #14 @065   ----------------------------------------
 .byte   PATT
  .word Label_015743C3
@  #14 @066   ----------------------------------------
 .byte   PATT
  .word Label_015743BA
@  #14 @067   ----------------------------------------
 .byte   PATT
  .word Label_015743B0
@  #14 @068   ----------------------------------------
 .byte   PATT
  .word Label_015743BA
@  #14 @069   ----------------------------------------
 .byte   N96 ,En2 ,v064
 .byte   W12
 .byte   N12 ,Cn1 ,v080
 .byte   W36
 .byte   N12
 .byte   W24
 .byte   N12
 .byte   W12
 .byte   N12
 .byte   W12
@  #14 @070   ----------------------------------------
 .byte   PATT
  .word Label_015742B1
@  #14 @071   ----------------------------------------
 .byte   PATT
  .word Label_015742EA
@  #14 @072   ----------------------------------------
 .byte   PATT
  .word Label_01573F55
@  #14 @073   ----------------------------------------
 .byte   PATT
  .word Label_015742EA
@  #14 @074   ----------------------------------------
 .byte   PATT
  .word Label_01573F55
@  #14 @075   ----------------------------------------
 .byte   PATT
  .word Label_015742EA
@  #14 @076   ----------------------------------------
 .byte   PATT
  .word Label_01573F55
@  #14 @077   ----------------------------------------
 .byte   PATT
  .word Label_01574335
@  #14 @078   ----------------------------------------
 .byte   PATT
  .word Label_0157400A
@  #14 @079   ----------------------------------------
 .byte   PATT
  .word Label_01574031
@  #14 @080   ----------------------------------------
 .byte   PATT
  .word Label_01574054
@  #14 @081   ----------------------------------------
 .byte   PATT
  .word Label_01574073
@  #14 @082   ----------------------------------------
 .byte   PATT
  .word Label_01574054
@  #14 @083   ----------------------------------------
 .byte   PATT
  .word Label_01574031
@  #14 @084   ----------------------------------------
 .byte   PATT
  .word Label_01574054
@  #14 @085   ----------------------------------------
 .byte   N06 ,Fs1 ,v052
 .byte   W06
 .byte   N06
 .byte   W06
 .byte   N12 ,Cn1 ,v080
 .byte   N06 ,Fs1 ,v052
 .byte   W06
 .byte   N06
 .byte   W06
 .byte   N12 ,Dn1 ,v092
 .byte   N12 ,Fs1 ,v052
 .byte   W24
 .byte   Cn1 ,v080
 .byte   N06 ,Dn1 ,v092
 .byte   W06
 .byte   N06
 .byte   W06
 .byte   N06
 .byte   N12 ,Fs1 ,v052
 .byte   W06
 .byte   N06 ,Dn1 ,v092
 .byte   W06
 .byte   N12 ,Cn1 ,v080
 .byte   N06 ,Dn1 ,v092
 .byte   W06
 .byte   N06
 .byte   W06
 .byte   N12
 .byte   W12
@  #14 @086   ----------------------------------------
Label_01574491:
 .byte   N06 ,Fs1 ,v052
 .byte   W12
 .byte   N06
 .byte   W12
 .byte   N06
 .byte   W12
 .byte   N06
 .byte   W12
 .byte   N06
 .byte   W12
 .byte   N06
 .byte   W12
 .byte   N06
 .byte   W12
 .byte   N06
 .byte   W12
 .byte   PEND 
@  #14 @087   ----------------------------------------
 .byte   PATT
  .word Label_01574491
@  #14 @088   ----------------------------------------
 .byte   PATT
  .word Label_01574491
@  #14 @089   ----------------------------------------
 .byte   N06 ,Fs1 ,v052
 .byte   W12
 .byte   N06
 .byte   W12
 .byte   N06
 .byte   W12
 .byte   N06
 .byte   W12
 .byte   N06
 .byte   W12
 .byte   N06
 .byte   W12
 .byte   Dn1 ,v092
 .byte   N06 ,Fs1 ,v052
 .byte   W06
 .byte   Dn1 ,v092
 .byte   W06
 .byte   N12
 .byte   N06 ,Fs1 ,v052
 .byte   W12
@  #14 @090   ----------------------------------------
 .byte   GOTO
  .word Label_015740DF
 .byte   FINE

@**************** Track 15 (Midi-Chn.14) ****************@

FeldschlactIII_015:
@  #15 @000   ----------------------------------------
 .byte   KEYSH , FeldschlactIII_key+0
 .byte   VOICE , 127
 .byte   VOL , 70*FeldschlactIII_mvl/mxv
 .byte   W96
@  #15 @001   ----------------------------------------
 .byte   W96
@  #15 @002   ----------------------------------------
 .byte   W96
@  #15 @003   ----------------------------------------
 .byte   W48
 .byte   N06 ,Dn1 ,v080
 .byte   W06
 .byte   N06
 .byte   W06
 .byte   N06
 .byte   W06
 .byte   N06
 .byte   W06
 .byte   N06
 .byte   W06
 .byte   N06
 .byte   W06
 .byte   N12
 .byte   W12
@  #15 @004   ----------------------------------------
Label_01573646:
 .byte   W12
 .byte   N12 ,Dn1 ,v080
 .byte   W12
 .byte   N12
 .byte   W24
 .byte   N12
 .byte   W12
 .byte   N12
 .byte   W24
 .byte   N06
 .byte   W06
 .byte   N06
 .byte   W06
 .byte   PEND 
@  #15 @005   ----------------------------------------
Label_01573656:
 .byte   N06 ,Dn1 ,v080
 .byte   W06
 .byte   N06
 .byte   W06
 .byte   N06
 .byte   W06
 .byte   N06
 .byte   W06
 .byte   N12
 .byte   W36
 .byte   N12
 .byte   W12
 .byte   N12
 .byte   W24
 .byte   PEND 
@  #15 @006   ----------------------------------------
 .byte   PATT
  .word Label_01573646
@  #15 @007   ----------------------------------------
Label_0157366C:
 .byte   N06 ,Dn1 ,v080
 .byte   W06
 .byte   N06
 .byte   W06
 .byte   N06
 .byte   W06
 .byte   N06
 .byte   W06
 .byte   N12
 .byte   W72
 .byte   PEND 
@  #15 @008   ----------------------------------------
 .byte   W96
@  #15 @009   ----------------------------------------
 .byte   W96
@  #15 @010   ----------------------------------------
 .byte   W96
@  #15 @011   ----------------------------------------
 .byte   W96
@  #15 @012   ----------------------------------------
 .byte   W96
@  #15 @013   ----------------------------------------
 .byte   W96
@  #15 @014   ----------------------------------------
 .byte   W96
@  #15 @015   ----------------------------------------
 .byte   W96
@  #15 @016   ----------------------------------------
 .byte   W96
@  #15 @017   ----------------------------------------
 .byte   W96
@  #15 @018   ----------------------------------------
 .byte   W96
@  #15 @019   ----------------------------------------
 .byte   W96
@  #15 @020   ----------------------------------------
Label_01573685:
 .byte   W96
@  #15 @021   ----------------------------------------
 .byte   W96
@  #15 @022   ----------------------------------------
 .byte   W96
@  #15 @023   ----------------------------------------
 .byte   W96
@  #15 @024   ----------------------------------------
 .byte   W96
@  #15 @025   ----------------------------------------
 .byte   W96
@  #15 @026   ----------------------------------------
 .byte   W96
@  #15 @027   ----------------------------------------
 .byte   W96
@  #15 @028   ----------------------------------------
 .byte   W96
@  #15 @029   ----------------------------------------
 .byte   W96
@  #15 @030   ----------------------------------------
 .byte   W96
@  #15 @031   ----------------------------------------
 .byte   W96
@  #15 @032   ----------------------------------------
 .byte   W96
@  #15 @033   ----------------------------------------
 .byte   W96
@  #15 @034   ----------------------------------------
 .byte   W96
@  #15 @035   ----------------------------------------
 .byte   W96
@  #15 @036   ----------------------------------------
 .byte   W96
@  #15 @037   ----------------------------------------
 .byte   W96
@  #15 @038   ----------------------------------------
 .byte   PATT
  .word Label_01573646
@  #15 @039   ----------------------------------------
 .byte   PATT
  .word Label_01573656
@  #15 @040   ----------------------------------------
 .byte   PATT
  .word Label_01573646
@  #15 @041   ----------------------------------------
 .byte   PATT
  .word Label_01573656
@  #15 @042   ----------------------------------------
 .byte   PATT
  .word Label_01573646
@  #15 @043   ----------------------------------------
 .byte   PATT
  .word Label_01573656
@  #15 @044   ----------------------------------------
 .byte   PATT
  .word Label_01573646
@  #15 @045   ----------------------------------------
 .byte   PATT
  .word Label_0157366C
@  #15 @046   ----------------------------------------
 .byte   W96
@  #15 @047   ----------------------------------------
 .byte   W96
@  #15 @048   ----------------------------------------
 .byte   W96
@  #15 @049   ----------------------------------------
 .byte   W96
@  #15 @050   ----------------------------------------
 .byte   W96
@  #15 @051   ----------------------------------------
 .byte   W96
@  #15 @052   ----------------------------------------
 .byte   W96
@  #15 @053   ----------------------------------------
 .byte   W96
@  #15 @054   ----------------------------------------
 .byte   W96
@  #15 @055   ----------------------------------------
 .byte   W96
@  #15 @056   ----------------------------------------
 .byte   W96
@  #15 @057   ----------------------------------------
 .byte   W96
@  #15 @058   ----------------------------------------
 .byte   W96
@  #15 @059   ----------------------------------------
 .byte   W96
@  #15 @060   ----------------------------------------
 .byte   W96
@  #15 @061   ----------------------------------------
 .byte   W96
@  #15 @062   ----------------------------------------
 .byte   W96
@  #15 @063   ----------------------------------------
 .byte   W96
@  #15 @064   ----------------------------------------
 .byte   W96
@  #15 @065   ----------------------------------------
 .byte   W96
@  #15 @066   ----------------------------------------
 .byte   W96
@  #15 @067   ----------------------------------------
 .byte   W96
@  #15 @068   ----------------------------------------
 .byte   W96
@  #15 @069   ----------------------------------------
 .byte   W96
@  #15 @070   ----------------------------------------
 .byte   PATT
  .word Label_01573646
@  #15 @071   ----------------------------------------
 .byte   PATT
  .word Label_01573656
@  #15 @072   ----------------------------------------
 .byte   PATT
  .word Label_01573646
@  #15 @073   ----------------------------------------
 .byte   PATT
  .word Label_01573656
@  #15 @074   ----------------------------------------
 .byte   PATT
  .word Label_01573646
@  #15 @075   ----------------------------------------
 .byte   PATT
  .word Label_01573656
@  #15 @076   ----------------------------------------
 .byte   PATT
  .word Label_01573646
@  #15 @077   ----------------------------------------
 .byte   PATT
  .word Label_0157366C
@  #15 @078   ----------------------------------------
 .byte   W96
@  #15 @079   ----------------------------------------
 .byte   W96
@  #15 @080   ----------------------------------------
 .byte   W96
@  #15 @081   ----------------------------------------
 .byte   W96
@  #15 @082   ----------------------------------------
 .byte   W96
@  #15 @083   ----------------------------------------
 .byte   W96
@  #15 @084   ----------------------------------------
 .byte   W96
@  #15 @085   ----------------------------------------
 .byte   W96
@  #15 @086   ----------------------------------------
 .byte   W96
@  #15 @087   ----------------------------------------
 .byte   W96
@  #15 @088   ----------------------------------------
 .byte   W96
@  #15 @089   ----------------------------------------
 .byte   W96
@  #15 @090   ----------------------------------------
 .byte   GOTO
  .word Label_01573685
 .byte   FINE

@******************************************************@
	.align	2

FeldschlactIII:
	.byte	15	@ NumTrks
	.byte	0	@ NumBlks
	.byte	FeldschlactIII_pri	@ Priority
	.byte	FeldschlactIII_rev	@ Reverb.
    
	.word	FeldschlactIII_grp
    
	.word	FeldschlactIII_001
	.word	FeldschlactIII_002
	.word	FeldschlactIII_003
	.word	FeldschlactIII_004
	.word	FeldschlactIII_005
	.word	FeldschlactIII_006
	.word	FeldschlactIII_007
	.word	FeldschlactIII_008
	.word	FeldschlactIII_009
	.word	FeldschlactIII_010
	.word	FeldschlactIII_011
	.word	FeldschlactIII_012
	.word	FeldschlactIII_013
	.word	FeldschlactIII_014
	.word	FeldschlactIII_015

	.end
