	.include "MPlayDef.s"

	.equ	ModernDayOuroboros_grp, voicegroup000
	.equ	ModernDayOuroboros_pri, 0
	.equ	ModernDayOuroboros_rev, 0
	.equ	ModernDayOuroboros_mvl, 127
	.equ	ModernDayOuroboros_key, 0
	.equ	ModernDayOuroboros_tbs, 1
	.equ	ModernDayOuroboros_exg, 0
	.equ	ModernDayOuroboros_cmp, 1

	.section .rodata
	.global	ModernDayOuroboros
	.align	2


@**************** Track 1 (Midi-Chn.0) ****************@

ModernDayOuroboros_001:
@  #01 @000   ----------------------------------------
 .byte   KEYSH , ModernDayOuroboros_key+0
Label_01EF858E:
 .byte   TEMPO , 134*ModernDayOuroboros_tbs/2
 .byte   VOICE , 36
 .byte   MODT 0
 .byte   LFOS 44
 .byte   VOL , 56*ModernDayOuroboros_mvl/mxv
 .byte   W96
@  #01 @001   ----------------------------------------
 .byte   W96
@  #01 @002   ----------------------------------------
Label_01EF859A:
 .byte   N36 ,Gs2 ,v100
 .byte   W36
 .byte   N36
 .byte   W36
 .byte   N24
 .byte   W24
 .byte   PEND 
@  #01 @003   ----------------------------------------
Label_01EF85A3:
 .byte   N06 ,Gs2 ,v100
 .byte   W06
 .byte   N06
 .byte   W06
 .byte   N06
 .byte   W06
 .byte   N06
 .byte   W06
 .byte   N06
 .byte   W06
 .byte   N06
 .byte   W06
 .byte   N06
 .byte   W06
 .byte   N06
 .byte   W06
 .byte   N06
 .byte   W06
 .byte   N12
 .byte   W18
 .byte   N06
 .byte   W06
 .byte   N06
 .byte   W18
 .byte   PEND 
@  #01 @004   ----------------------------------------
Label_01EF85BE:
 .byte   N12 ,Gs2 ,v100
 .byte   W12
 .byte   N06
 .byte   W06
 .byte   N12
 .byte   W12
 .byte   N06
 .byte   W06
 .byte   N12
 .byte   W12
 .byte   N06
 .byte   W06
 .byte   N12
 .byte   W12
 .byte   N06
 .byte   W06
 .byte   N12
 .byte   W12
 .byte   N12
 .byte   W12
 .byte   PEND 
@  #01 @005   ----------------------------------------
 .byte   PATT
  .word Label_01EF85BE
@  #01 @006   ----------------------------------------
Label_01EF85DA:
 .byte   N12 ,Bn2 ,v100
 .byte   W12
 .byte   N06
 .byte   W06
 .byte   N12
 .byte   W12
 .byte   N06
 .byte   W06
 .byte   N12
 .byte   W12
 .byte   N06
 .byte   W06
 .byte   N12
 .byte   W12
 .byte   N06
 .byte   W06
 .byte   N12
 .byte   W12
 .byte   N12
 .byte   W12
 .byte   PEND 
@  #01 @007   ----------------------------------------
Label_01EF85F1:
 .byte   N12 ,Ds3 ,v100
 .byte   W12
 .byte   N06
 .byte   W06
 .byte   N12
 .byte   W12
 .byte   N06
 .byte   W06
 .byte   N12
 .byte   W12
 .byte   N06
 .byte   W06
 .byte   N12
 .byte   W12
 .byte   N06
 .byte   W06
 .byte   N12
 .byte   W12
 .byte   N12
 .byte   W12
 .byte   PEND 
@  #01 @008   ----------------------------------------
 .byte   PATT
  .word Label_01EF85BE
@  #01 @009   ----------------------------------------
 .byte   PATT
  .word Label_01EF85BE
@  #01 @010   ----------------------------------------
 .byte   PATT
  .word Label_01EF85DA
@  #01 @011   ----------------------------------------
 .byte   PATT
  .word Label_01EF85F1
@  #01 @012   ----------------------------------------
 .byte   PATT
  .word Label_01EF85BE
@  #01 @013   ----------------------------------------
 .byte   PATT
  .word Label_01EF85BE
@  #01 @014   ----------------------------------------
 .byte   PATT
  .word Label_01EF85DA
@  #01 @015   ----------------------------------------
 .byte   PATT
  .word Label_01EF85F1
@  #01 @016   ----------------------------------------
 .byte   PATT
  .word Label_01EF85BE
@  #01 @017   ----------------------------------------
 .byte   PATT
  .word Label_01EF85BE
@  #01 @018   ----------------------------------------
 .byte   PATT
  .word Label_01EF85DA
@  #01 @019   ----------------------------------------
 .byte   PATT
  .word Label_01EF85F1
@  #01 @020   ----------------------------------------
Label_01EF8644:
 .byte   N12 ,Gs2 ,v100
 .byte   W12
 .byte   N12
 .byte   W12
 .byte   N12
 .byte   W12
 .byte   N12
 .byte   W12
 .byte   N24
 .byte   W24
 .byte   N24
 .byte   W24
 .byte   PEND 
@  #01 @021   ----------------------------------------
 .byte   PATT
  .word Label_01EF8644
@  #01 @022   ----------------------------------------
Label_01EF8658:
 .byte   N12 ,Bn2 ,v100
 .byte   W12
 .byte   N12
 .byte   W12
 .byte   N12
 .byte   W12
 .byte   N12
 .byte   W12
 .byte   N24
 .byte   W24
 .byte   N24
 .byte   W24
 .byte   PEND 
@  #01 @023   ----------------------------------------
Label_01EF8667:
 .byte   N12 ,Ds3 ,v100
 .byte   W12
 .byte   N12
 .byte   W12
 .byte   N12
 .byte   W12
 .byte   N12
 .byte   W12
 .byte   N24
 .byte   W24
 .byte   N24
 .byte   W24
 .byte   PEND 
@  #01 @024   ----------------------------------------
 .byte   PATT
  .word Label_01EF8644
@  #01 @025   ----------------------------------------
 .byte   PATT
  .word Label_01EF8644
@  #01 @026   ----------------------------------------
 .byte   PATT
  .word Label_01EF8658
@  #01 @027   ----------------------------------------
 .byte   PATT
  .word Label_01EF8667
@  #01 @028   ----------------------------------------
 .byte   PATT
  .word Label_01EF85BE
@  #01 @029   ----------------------------------------
 .byte   PATT
  .word Label_01EF85F1
@  #01 @030   ----------------------------------------
Label_01EF8694:
 .byte   N12 ,Fs2 ,v100
 .byte   W12
 .byte   N06
 .byte   W06
 .byte   N12
 .byte   W12
 .byte   N06
 .byte   W06
 .byte   N12
 .byte   W12
 .byte   N06
 .byte   W06
 .byte   N12
 .byte   W12
 .byte   N06
 .byte   W06
 .byte   N12
 .byte   W12
 .byte   N12
 .byte   W12
 .byte   PEND 
@  #01 @031   ----------------------------------------
Label_01EF86AB:
 .byte   N12 ,Ds2 ,v100
 .byte   W12
 .byte   N06
 .byte   W06
 .byte   N12
 .byte   W12
 .byte   N06
 .byte   W06
 .byte   N12
 .byte   W12
 .byte   N06
 .byte   W06
 .byte   N12
 .byte   W12
 .byte   N06
 .byte   W06
 .byte   N12
 .byte   W12
 .byte   N12
 .byte   W12
 .byte   PEND 
@  #01 @032   ----------------------------------------
 .byte   PATT
  .word Label_01EF85BE
@  #01 @033   ----------------------------------------
 .byte   PATT
  .word Label_01EF85F1
@  #01 @034   ----------------------------------------
 .byte   PATT
  .word Label_01EF8694
@  #01 @035   ----------------------------------------
 .byte   PATT
  .word Label_01EF86AB
@  #01 @036   ----------------------------------------
 .byte   PATT
  .word Label_01EF85BE
@  #01 @037   ----------------------------------------
 .byte   PATT
  .word Label_01EF85F1
@  #01 @038   ----------------------------------------
 .byte   PATT
  .word Label_01EF8694
@  #01 @039   ----------------------------------------
 .byte   PATT
  .word Label_01EF86AB
@  #01 @040   ----------------------------------------
 .byte   PATT
  .word Label_01EF85BE
@  #01 @041   ----------------------------------------
 .byte   PATT
  .word Label_01EF85F1
@  #01 @042   ----------------------------------------
 .byte   PATT
  .word Label_01EF8694
@  #01 @043   ----------------------------------------
 .byte   PATT
  .word Label_01EF86AB
@  #01 @044   ----------------------------------------
 .byte   W96
@  #01 @045   ----------------------------------------
 .byte   W96
@  #01 @046   ----------------------------------------
 .byte   W96
@  #01 @047   ----------------------------------------
 .byte   W96
@  #01 @048   ----------------------------------------
 .byte   PATT
  .word Label_01EF85BE
@  #01 @049   ----------------------------------------
 .byte   PATT
  .word Label_01EF85BE
@  #01 @050   ----------------------------------------
 .byte   PATT
  .word Label_01EF85DA
@  #01 @051   ----------------------------------------
 .byte   PATT
  .word Label_01EF85F1
@  #01 @052   ----------------------------------------
 .byte   PATT
  .word Label_01EF85BE
@  #01 @053   ----------------------------------------
 .byte   PATT
  .word Label_01EF85BE
@  #01 @054   ----------------------------------------
 .byte   PATT
  .word Label_01EF85DA
@  #01 @055   ----------------------------------------
 .byte   PATT
  .word Label_01EF85F1
@  #01 @056   ----------------------------------------
 .byte   W96
@  #01 @057   ----------------------------------------
 .byte   W96
@  #01 @058   ----------------------------------------
 .byte   PATT
  .word Label_01EF859A
@  #01 @059   ----------------------------------------
 .byte   PATT
  .word Label_01EF85A3
@  #01 @060   ----------------------------------------
 .byte   PATT
  .word Label_01EF85BE
@  #01 @061   ----------------------------------------
 .byte   PATT
  .word Label_01EF85BE
@  #01 @062   ----------------------------------------
 .byte   PATT
  .word Label_01EF85DA
@  #01 @063   ----------------------------------------
 .byte   PATT
  .word Label_01EF85F1
@  #01 @064   ----------------------------------------
 .byte   PATT
  .word Label_01EF85BE
@  #01 @065   ----------------------------------------
 .byte   PATT
  .word Label_01EF85BE
@  #01 @066   ----------------------------------------
 .byte   PATT
  .word Label_01EF85DA
@  #01 @067   ----------------------------------------
 .byte   PATT
  .word Label_01EF85F1
@  #01 @068   ----------------------------------------
 .byte   PATT
  .word Label_01EF85BE
@  #01 @069   ----------------------------------------
 .byte   PATT
  .word Label_01EF85F1
@  #01 @070   ----------------------------------------
 .byte   PATT
  .word Label_01EF8694
@  #01 @071   ----------------------------------------
 .byte   PATT
  .word Label_01EF86AB
@  #01 @072   ----------------------------------------
 .byte   PATT
  .word Label_01EF85BE
@  #01 @073   ----------------------------------------
 .byte   PATT
  .word Label_01EF85F1
@  #01 @074   ----------------------------------------
 .byte   PATT
  .word Label_01EF8694
@  #01 @075   ----------------------------------------
 .byte   PATT
  .word Label_01EF86AB
@  #01 @076   ----------------------------------------
 .byte   W96
@  #01 @077   ----------------------------------------
 .byte   W96
@  #01 @078   ----------------------------------------
 .byte   W96
@  #01 @079   ----------------------------------------
 .byte   W96
@  #01 @080   ----------------------------------------
 .byte   W96
@  #01 @081   ----------------------------------------
 .byte   W96
@  #01 @082   ----------------------------------------
 .byte   W96
@  #01 @083   ----------------------------------------
 .byte   W96
@  #01 @084   ----------------------------------------
Label_01EF878E:
 .byte   N06 ,Gs2 ,v100
 .byte   W06
 .byte   N06
 .byte   W06
 .byte   N06
 .byte   W06
 .byte   N06
 .byte   W06
 .byte   N06
 .byte   W06
 .byte   N06
 .byte   W06
 .byte   N06
 .byte   W06
 .byte   N06
 .byte   W06
 .byte   N06
 .byte   W06
 .byte   N06
 .byte   W06
 .byte   N06
 .byte   W06
 .byte   N06
 .byte   W06
 .byte   N06
 .byte   W06
 .byte   N06
 .byte   W06
 .byte   N06
 .byte   W06
 .byte   N06
 .byte   W06
 .byte   PEND 
@  #01 @085   ----------------------------------------
 .byte   PATT
  .word Label_01EF878E
@  #01 @086   ----------------------------------------
Label_01EF87B6:
 .byte   N06 ,Bn2 ,v100
 .byte   W06
 .byte   N06
 .byte   W06
 .byte   N06
 .byte   W06
 .byte   N06
 .byte   W06
 .byte   N06
 .byte   W06
 .byte   N06
 .byte   W06
 .byte   N06
 .byte   W06
 .byte   N06
 .byte   W06
 .byte   N06
 .byte   W06
 .byte   N06
 .byte   W06
 .byte   N06
 .byte   W06
 .byte   N06
 .byte   W06
 .byte   N06
 .byte   W06
 .byte   N06
 .byte   W06
 .byte   N06
 .byte   W06
 .byte   N06
 .byte   W06
 .byte   PEND 
@  #01 @087   ----------------------------------------
 .byte   Fs2
 .byte   W06
 .byte   N06
 .byte   W06
 .byte   N06
 .byte   W06
 .byte   N06
 .byte   W06
 .byte   N06
 .byte   W06
 .byte   N06
 .byte   W06
 .byte   N06
 .byte   W06
 .byte   N06
 .byte   W06
 .byte   Ds2
 .byte   W06
 .byte   N06
 .byte   W06
 .byte   N06
 .byte   W06
 .byte   N06
 .byte   W06
 .byte   N06
 .byte   W06
 .byte   N06
 .byte   W06
 .byte   N06
 .byte   W06
 .byte   N06
 .byte   W06
@  #01 @088   ----------------------------------------
 .byte   PATT
  .word Label_01EF878E
@  #01 @089   ----------------------------------------
 .byte   PATT
  .word Label_01EF878E
@  #01 @090   ----------------------------------------
 .byte   PATT
  .word Label_01EF87B6
@  #01 @091   ----------------------------------------
Label_01EF8808:
 .byte   N06 ,Ds3 ,v100
 .byte   W06
 .byte   N06
 .byte   W06
 .byte   N06
 .byte   W06
 .byte   N06
 .byte   W06
 .byte   N06
 .byte   W06
 .byte   N06
 .byte   W06
 .byte   N06
 .byte   W06
 .byte   N06
 .byte   W06
 .byte   N06
 .byte   W06
 .byte   N06
 .byte   W06
 .byte   N06
 .byte   W06
 .byte   N06
 .byte   W06
 .byte   N06
 .byte   W06
 .byte   N06
 .byte   W06
 .byte   N06
 .byte   W06
 .byte   N06
 .byte   W06
 .byte   PEND 
@  #01 @092   ----------------------------------------
 .byte   PATT
  .word Label_01EF878E
@  #01 @093   ----------------------------------------
 .byte   PATT
  .word Label_01EF878E
@  #01 @094   ----------------------------------------
 .byte   PATT
  .word Label_01EF87B6
@  #01 @095   ----------------------------------------
 .byte   PATT
  .word Label_01EF8808
@  #01 @096   ----------------------------------------
 .byte   PATT
  .word Label_01EF878E
@  #01 @097   ----------------------------------------
 .byte   PATT
  .word Label_01EF878E
@  #01 @098   ----------------------------------------
 .byte   PATT
  .word Label_01EF87B6
@  #01 @099   ----------------------------------------
 .byte   PATT
  .word Label_01EF8808
@  #01 @100   ----------------------------------------
 .byte   W96
@  #01 @101   ----------------------------------------
 .byte   W96
@  #01 @102   ----------------------------------------
 .byte   W96
@  #01 @103   ----------------------------------------
 .byte   W96
@  #01 @104   ----------------------------------------
 .byte   W96
@  #01 @105   ----------------------------------------
 .byte   W96
@  #01 @106   ----------------------------------------
 .byte   W96
@  #01 @107   ----------------------------------------
 .byte   W96
@  #01 @108   ----------------------------------------
 .byte   W96
@  #01 @109   ----------------------------------------
 .byte   W96
@  #01 @110   ----------------------------------------
 .byte   W96
@  #01 @111   ----------------------------------------
 .byte   W96
@  #01 @112   ----------------------------------------
 .byte   W96
@  #01 @113   ----------------------------------------
 .byte   W96
@  #01 @114   ----------------------------------------
 .byte   W96
@  #01 @115   ----------------------------------------
 .byte   W96
@  #01 @116   ----------------------------------------
 .byte   W96
@  #01 @117   ----------------------------------------
 .byte   W96
@  #01 @118   ----------------------------------------
 .byte   W96
@  #01 @119   ----------------------------------------
 .byte   W96
@  #01 @120   ----------------------------------------
 .byte   W96
@  #01 @121   ----------------------------------------
 .byte   W96
@  #01 @122   ----------------------------------------
 .byte   W96
@  #01 @123   ----------------------------------------
 .byte   W96
@  #01 @124   ----------------------------------------
 .byte   GOTO
  .word Label_01EF858E
 .byte   FINE

@**************** Track 2 (Midi-Chn.1) ****************@

ModernDayOuroboros_002:
@  #02 @000   ----------------------------------------
 .byte   VOL , 80*ModernDayOuroboros_mvl/mxv
 .byte   KEYSH , ModernDayOuroboros_key+0
Label_01782F3C:
 .byte   VOICE , 30
 .byte   MODT 0
 .byte   LFOS 44
 .byte   W96
@  #02 @001   ----------------------------------------
 .byte   W96
@  #02 @002   ----------------------------------------
Label_01782F44:
 .byte   N36 ,Gs1 ,v100
 .byte   W36
 .byte   N36
 .byte   W36
 .byte   N24
 .byte   W24
 .byte   PEND 
@  #02 @003   ----------------------------------------
Label_01782F4D:
 .byte   N06 ,Gs1 ,v100
 .byte   W06
 .byte   N06
 .byte   W06
 .byte   N06
 .byte   W06
 .byte   N06
 .byte   W06
 .byte   N06
 .byte   W06
 .byte   N06
 .byte   W06
 .byte   N06
 .byte   W06
 .byte   N06
 .byte   W06
 .byte   N06
 .byte   W06
 .byte   N12
 .byte   W18
 .byte   N06
 .byte   W06
 .byte   N06
 .byte   W18
 .byte   PEND 
@  #02 @004   ----------------------------------------
 .byte   PATT
  .word Label_01782F44
@  #02 @005   ----------------------------------------
Label_01782F6D:
 .byte   N24 ,Gs1 ,v100
 .byte   W24
 .byte   N12 ,As1
 .byte   W12
 .byte   N24 ,Bn1
 .byte   W24
 .byte   N12 ,Ds2
 .byte   W12
 .byte   N24 ,Gs1
 .byte   W24
 .byte   PEND 
@  #02 @006   ----------------------------------------
 .byte   PATT
  .word Label_01782F44
@  #02 @007   ----------------------------------------
Label_01782F83:
 .byte   N24 ,Gs1 ,v100
 .byte   W24
 .byte   N12 ,As1
 .byte   W12
 .byte   N24 ,Bn1
 .byte   W24
 .byte   N12 ,Ds2
 .byte   W12
 .byte   N24 ,Bn1
 .byte   W24
 .byte   PEND 
@  #02 @008   ----------------------------------------
 .byte   PATT
  .word Label_01782F44
@  #02 @009   ----------------------------------------
 .byte   PATT
  .word Label_01782F6D
@  #02 @010   ----------------------------------------
 .byte   PATT
  .word Label_01782F44
@  #02 @011   ----------------------------------------
 .byte   PATT
  .word Label_01782F83
@  #02 @012   ----------------------------------------
 .byte   W96
@  #02 @013   ----------------------------------------
 .byte   W96
@  #02 @014   ----------------------------------------
 .byte   W96
@  #02 @015   ----------------------------------------
 .byte   W96
@  #02 @016   ----------------------------------------
 .byte   W96
@  #02 @017   ----------------------------------------
 .byte   W96
@  #02 @018   ----------------------------------------
 .byte   W96
@  #02 @019   ----------------------------------------
 .byte   W96
@  #02 @020   ----------------------------------------
 .byte   W96
@  #02 @021   ----------------------------------------
 .byte   W96
@  #02 @022   ----------------------------------------
 .byte   W96
@  #02 @023   ----------------------------------------
 .byte   W96
@  #02 @024   ----------------------------------------
 .byte   W96
@  #02 @025   ----------------------------------------
 .byte   W96
@  #02 @026   ----------------------------------------
 .byte   W96
@  #02 @027   ----------------------------------------
 .byte   W96
@  #02 @028   ----------------------------------------
Label_01782FB8:
 .byte   N36 ,Gs2 ,v064
 .byte   W36
 .byte   N36
 .byte   W36
 .byte   N24 ,Bn2
 .byte   W24
 .byte   PEND 
@  #02 @029   ----------------------------------------
Label_01782FC2:
 .byte   N24 ,Ds3 ,v064
 .byte   W24
 .byte   Bn2
 .byte   W24
 .byte   Ds3
 .byte   W24
 .byte   Bn2
 .byte   W24
 .byte   PEND 
@  #02 @030   ----------------------------------------
 .byte   PATT
  .word Label_01782FC2
@  #02 @031   ----------------------------------------
Label_01782FD2:
 .byte   N24 ,As2 ,v064
 .byte   W24
 .byte   Gs2
 .byte   W24
 .byte   N12 ,As2
 .byte   W12
 .byte   Bn2
 .byte   W12
 .byte   As2
 .byte   W12
 .byte   Ds3
 .byte   W12
 .byte   PEND 
@  #02 @032   ----------------------------------------
 .byte   PATT
  .word Label_01782FB8
@  #02 @033   ----------------------------------------
 .byte   PATT
  .word Label_01782FC2
@  #02 @034   ----------------------------------------
 .byte   PATT
  .word Label_01782FC2
@  #02 @035   ----------------------------------------
 .byte   PATT
  .word Label_01782FD2
@  #02 @036   ----------------------------------------
 .byte   W96
@  #02 @037   ----------------------------------------
 .byte   W96
@  #02 @038   ----------------------------------------
 .byte   W96
@  #02 @039   ----------------------------------------
 .byte   W96
@  #02 @040   ----------------------------------------
 .byte   W96
@  #02 @041   ----------------------------------------
 .byte   W96
@  #02 @042   ----------------------------------------
 .byte   W96
@  #02 @043   ----------------------------------------
 .byte   W96
@  #02 @044   ----------------------------------------
 .byte   W96
@  #02 @045   ----------------------------------------
 .byte   W96
@  #02 @046   ----------------------------------------
 .byte   W96
@  #02 @047   ----------------------------------------
 .byte   W96
@  #02 @048   ----------------------------------------
 .byte   W96
@  #02 @049   ----------------------------------------
 .byte   W96
@  #02 @050   ----------------------------------------
 .byte   W96
@  #02 @051   ----------------------------------------
 .byte   W96
@  #02 @052   ----------------------------------------
 .byte   W96
@  #02 @053   ----------------------------------------
 .byte   W96
@  #02 @054   ----------------------------------------
 .byte   W96
@  #02 @055   ----------------------------------------
 .byte   W96
@  #02 @056   ----------------------------------------
 .byte   W96
@  #02 @057   ----------------------------------------
 .byte   W96
@  #02 @058   ----------------------------------------
 .byte   PATT
  .word Label_01782F44
@  #02 @059   ----------------------------------------
 .byte   PATT
  .word Label_01782F4D
@  #02 @060   ----------------------------------------
 .byte   PATT
  .word Label_01782F44
@  #02 @061   ----------------------------------------
 .byte   PATT
  .word Label_01782F6D
@  #02 @062   ----------------------------------------
 .byte   PATT
  .word Label_01782F44
@  #02 @063   ----------------------------------------
 .byte   PATT
  .word Label_01782F83
@  #02 @064   ----------------------------------------
 .byte   PATT
  .word Label_01782F44
@  #02 @065   ----------------------------------------
 .byte   PATT
  .word Label_01782F6D
@  #02 @066   ----------------------------------------
 .byte   PATT
  .word Label_01782F44
@  #02 @067   ----------------------------------------
 .byte   PATT
  .word Label_01782F83
@  #02 @068   ----------------------------------------
 .byte   PATT
  .word Label_01782FB8
@  #02 @069   ----------------------------------------
 .byte   PATT
  .word Label_01782FC2
@  #02 @070   ----------------------------------------
 .byte   PATT
  .word Label_01782FC2
@  #02 @071   ----------------------------------------
 .byte   PATT
  .word Label_01782FD2
@  #02 @072   ----------------------------------------
 .byte   PATT
  .word Label_01782FB8
@  #02 @073   ----------------------------------------
 .byte   PATT
  .word Label_01782FC2
@  #02 @074   ----------------------------------------
 .byte   PATT
  .word Label_01782FC2
@  #02 @075   ----------------------------------------
 .byte   PATT
  .word Label_01782FD2
@  #02 @076   ----------------------------------------
 .byte   W96
@  #02 @077   ----------------------------------------
 .byte   W96
@  #02 @078   ----------------------------------------
 .byte   W96
@  #02 @079   ----------------------------------------
 .byte   W96
@  #02 @080   ----------------------------------------
 .byte   W96
@  #02 @081   ----------------------------------------
 .byte   W96
@  #02 @082   ----------------------------------------
 .byte   W96
@  #02 @083   ----------------------------------------
 .byte   W96
@  #02 @084   ----------------------------------------
 .byte   W96
@  #02 @085   ----------------------------------------
 .byte   W96
@  #02 @086   ----------------------------------------
 .byte   W96
@  #02 @087   ----------------------------------------
 .byte   W96
@  #02 @088   ----------------------------------------
 .byte   W96
@  #02 @089   ----------------------------------------
 .byte   W96
@  #02 @090   ----------------------------------------
 .byte   W96
@  #02 @091   ----------------------------------------
 .byte   W96
@  #02 @092   ----------------------------------------
 .byte   W96
@  #02 @093   ----------------------------------------
 .byte   W96
@  #02 @094   ----------------------------------------
 .byte   W96
@  #02 @095   ----------------------------------------
 .byte   W96
@  #02 @096   ----------------------------------------
 .byte   W96
@  #02 @097   ----------------------------------------
 .byte   W96
@  #02 @098   ----------------------------------------
 .byte   W96
@  #02 @099   ----------------------------------------
 .byte   W96
@  #02 @100   ----------------------------------------
 .byte   N96 ,Gs2 ,v100
 .byte   W96
@  #02 @101   ----------------------------------------
 .byte   Bn2
 .byte   W96
@  #02 @102   ----------------------------------------
Label_01783084:
 .byte   N36 ,Ds3 ,v100
 .byte   W36
 .byte   Bn2
 .byte   W36
 .byte   N24 ,Ds3
 .byte   W24
 .byte   PEND 
@  #02 @103   ----------------------------------------
Label_0178308E:
 .byte   N72 ,As2 ,v100
 .byte   W72
 .byte   N24 ,Gs2
 .byte   W24
 .byte   PEND 
@  #02 @104   ----------------------------------------
 .byte   N96
 .byte   W96
@  #02 @105   ----------------------------------------
 .byte   Bn2
 .byte   W96
@  #02 @106   ----------------------------------------
 .byte   PATT
  .word Label_01783084
@  #02 @107   ----------------------------------------
 .byte   PATT
  .word Label_0178308E
@  #02 @108   ----------------------------------------
 .byte   W96
@  #02 @109   ----------------------------------------
 .byte   W96
@  #02 @110   ----------------------------------------
 .byte   W96
@  #02 @111   ----------------------------------------
 .byte   W96
@  #02 @112   ----------------------------------------
 .byte   W96
@  #02 @113   ----------------------------------------
 .byte   W96
@  #02 @114   ----------------------------------------
 .byte   W96
@  #02 @115   ----------------------------------------
 .byte   W96
@  #02 @116   ----------------------------------------
 .byte   W96
@  #02 @117   ----------------------------------------
 .byte   W96
@  #02 @118   ----------------------------------------
 .byte   W96
@  #02 @119   ----------------------------------------
 .byte   W96
@  #02 @120   ----------------------------------------
 .byte   W96
@  #02 @121   ----------------------------------------
 .byte   W96
@  #02 @122   ----------------------------------------
 .byte   W96
@  #02 @123   ----------------------------------------
 .byte   W96
@  #02 @124   ----------------------------------------
 .byte   GOTO
  .word Label_01782F3C
 .byte   FINE

@**************** Track 3 (Midi-Chn.2) ****************@

ModernDayOuroboros_003:
@  #03 @000   ----------------------------------------
 .byte   KEYSH , ModernDayOuroboros_key+0
Label_01EF8876:
 .byte   VOICE , 104
 .byte   MODT 0
 .byte   LFOS 44
 .byte   VOL , 45*ModernDayOuroboros_mvl/mxv
 .byte   W96
@  #03 @001   ----------------------------------------
 .byte   W96
@  #03 @002   ----------------------------------------
 .byte   W96
@  #03 @003   ----------------------------------------
 .byte   W96
@  #03 @004   ----------------------------------------
 .byte   W96
@  #03 @005   ----------------------------------------
 .byte   W96
@  #03 @006   ----------------------------------------
 .byte   W96
@  #03 @007   ----------------------------------------
 .byte   W96
@  #03 @008   ----------------------------------------
 .byte   W96
@  #03 @009   ----------------------------------------
 .byte   W96
@  #03 @010   ----------------------------------------
 .byte   W96
@  #03 @011   ----------------------------------------
 .byte   W96
@  #03 @012   ----------------------------------------
 .byte   W96
@  #03 @013   ----------------------------------------
 .byte   W96
@  #03 @014   ----------------------------------------
 .byte   W96
@  #03 @015   ----------------------------------------
 .byte   W96
@  #03 @016   ----------------------------------------
 .byte   W96
@  #03 @017   ----------------------------------------
 .byte   W96
@  #03 @018   ----------------------------------------
 .byte   W96
@  #03 @019   ----------------------------------------
 .byte   W96
@  #03 @020   ----------------------------------------
Label_01EF8892:
 .byte   N12 ,Gs2 ,v100
 .byte   W12
 .byte   N12
 .byte   W12
 .byte   N12
 .byte   W12
 .byte   N12
 .byte   W12
 .byte   N24
 .byte   W24
 .byte   As2
 .byte   W24
 .byte   PEND 
@  #03 @021   ----------------------------------------
 .byte   N12 ,Bn2
 .byte   W12
 .byte   N12
 .byte   W12
 .byte   N12
 .byte   W12
 .byte   N12
 .byte   W12
 .byte   N24
 .byte   W24
 .byte   N24
 .byte   W24
@  #03 @022   ----------------------------------------
 .byte   N18 ,Ds3
 .byte   W18
 .byte   Bn2
 .byte   W18
 .byte   Ds3
 .byte   W18
 .byte   Bn2
 .byte   W18
 .byte   N12
 .byte   W12
 .byte   Ds3
 .byte   W12
@  #03 @023   ----------------------------------------
 .byte   As2
 .byte   W12
 .byte   N12
 .byte   W12
 .byte   N12
 .byte   W12
 .byte   N12
 .byte   W12
 .byte   N24
 .byte   W24
 .byte   N12 ,Bn2
 .byte   W12
 .byte   As2
 .byte   W12
@  #03 @024   ----------------------------------------
 .byte   PATT
  .word Label_01EF8892
@  #03 @025   ----------------------------------------
 .byte   N12 ,Bn2 ,v100
 .byte   W12
 .byte   N12
 .byte   W12
 .byte   N06 ,Ds3
 .byte   W06
 .byte   Fs3
 .byte   W06
 .byte   Ds3
 .byte   W06
 .byte   Bn2
 .byte   W06
 .byte   N24 ,Ds3
 .byte   W24
 .byte   Bn2
 .byte   W24
@  #03 @026   ----------------------------------------
 .byte   N18 ,Ds3
 .byte   W18
 .byte   Bn2
 .byte   W18
 .byte   Ds3
 .byte   W18
 .byte   Bn2
 .byte   W18
 .byte   N12 ,Ds3
 .byte   W12
 .byte   N12
 .byte   W12
@  #03 @027   ----------------------------------------
 .byte   Fs3
 .byte   W12
 .byte   N12
 .byte   W12
 .byte   N12
 .byte   W12
 .byte   N12
 .byte   W12
 .byte   N24
 .byte   W24
 .byte   N12
 .byte   W12
 .byte   N12
 .byte   W12
@  #03 @028   ----------------------------------------
 .byte   W96
@  #03 @029   ----------------------------------------
 .byte   W96
@  #03 @030   ----------------------------------------
 .byte   W96
@  #03 @031   ----------------------------------------
 .byte   W96
@  #03 @032   ----------------------------------------
 .byte   W96
@  #03 @033   ----------------------------------------
 .byte   W96
@  #03 @034   ----------------------------------------
 .byte   W96
@  #03 @035   ----------------------------------------
 .byte   W96
@  #03 @036   ----------------------------------------
Label_01EF8907:
 .byte   N12 ,Gs2 ,v064
 .byte   W12
 .byte   N12
 .byte   W12
 .byte   N12
 .byte   W12
 .byte   N12
 .byte   W12
 .byte   N24
 .byte   W24
 .byte   As2
 .byte   W24
 .byte   PEND 
@  #03 @037   ----------------------------------------
 .byte   N12 ,Bn2
 .byte   W12
 .byte   N12
 .byte   W12
 .byte   N12
 .byte   W12
 .byte   N12
 .byte   W12
 .byte   N24
 .byte   W24
 .byte   N24
 .byte   W24
@  #03 @038   ----------------------------------------
 .byte   N18 ,Ds3
 .byte   W18
 .byte   Bn2
 .byte   W18
 .byte   Ds3
 .byte   W18
 .byte   Bn2
 .byte   W18
 .byte   N12
 .byte   W12
 .byte   Ds3
 .byte   W12
@  #03 @039   ----------------------------------------
 .byte   As2
 .byte   W12
 .byte   N12
 .byte   W12
 .byte   N12
 .byte   W12
 .byte   N12
 .byte   W12
 .byte   N24
 .byte   W24
 .byte   N12 ,Bn2
 .byte   W12
 .byte   As2
 .byte   W12
@  #03 @040   ----------------------------------------
 .byte   PATT
  .word Label_01EF8907
@  #03 @041   ----------------------------------------
 .byte   N12 ,Bn2 ,v064
 .byte   W12
 .byte   N12
 .byte   W12
 .byte   N06 ,Ds3
 .byte   W06
 .byte   Fs3
 .byte   W06
 .byte   Ds3
 .byte   W06
 .byte   Bn2
 .byte   W06
 .byte   N24 ,Ds3
 .byte   W24
 .byte   Bn2
 .byte   W24
@  #03 @042   ----------------------------------------
 .byte   N18 ,Ds3
 .byte   W18
 .byte   Bn2
 .byte   W18
 .byte   Ds3
 .byte   W18
 .byte   Bn2
 .byte   W18
 .byte   N12 ,Ds3
 .byte   W12
 .byte   N12
 .byte   W12
@  #03 @043   ----------------------------------------
 .byte   Fs3
 .byte   W12
 .byte   N12
 .byte   W12
 .byte   N12
 .byte   W12
 .byte   N12
 .byte   W12
 .byte   N24
 .byte   W24
 .byte   N12
 .byte   W12
 .byte   N12
 .byte   W12
@  #03 @044   ----------------------------------------
 .byte   W96
@  #03 @045   ----------------------------------------
 .byte   W96
@  #03 @046   ----------------------------------------
 .byte   W96
@  #03 @047   ----------------------------------------
 .byte   W96
@  #03 @048   ----------------------------------------
Label_01EF8978:
 .byte   N12 ,Gs2 ,v100
 .byte   W12
 .byte   N06
 .byte   W06
 .byte   N12
 .byte   W12
 .byte   N06
 .byte   W06
 .byte   N12
 .byte   W12
 .byte   N06
 .byte   W06
 .byte   N12
 .byte   W12
 .byte   N06
 .byte   W06
 .byte   N12
 .byte   W12
 .byte   N12
 .byte   W12
 .byte   PEND 
@  #03 @049   ----------------------------------------
 .byte   PATT
  .word Label_01EF8978
@  #03 @050   ----------------------------------------
Label_01EF8994:
 .byte   N12 ,Bn2 ,v100
 .byte   W12
 .byte   N06
 .byte   W06
 .byte   N12
 .byte   W12
 .byte   N06
 .byte   W06
 .byte   N12
 .byte   W12
 .byte   N06
 .byte   W06
 .byte   N12
 .byte   W12
 .byte   N06
 .byte   W06
 .byte   N12
 .byte   W12
 .byte   N12
 .byte   W12
 .byte   PEND 
@  #03 @051   ----------------------------------------
Label_01EF89AB:
 .byte   N12 ,Ds3 ,v100
 .byte   W12
 .byte   N06
 .byte   W06
 .byte   N12
 .byte   W12
 .byte   N06
 .byte   W06
 .byte   N12
 .byte   W12
 .byte   N06
 .byte   W06
 .byte   N12
 .byte   W12
 .byte   N06
 .byte   W06
 .byte   N12
 .byte   W12
 .byte   N12
 .byte   W12
 .byte   PEND 
@  #03 @052   ----------------------------------------
 .byte   PATT
  .word Label_01EF8978
@  #03 @053   ----------------------------------------
 .byte   PATT
  .word Label_01EF8978
@  #03 @054   ----------------------------------------
 .byte   PATT
  .word Label_01EF8994
@  #03 @055   ----------------------------------------
 .byte   PATT
  .word Label_01EF89AB
@  #03 @056   ----------------------------------------
 .byte   W96
@  #03 @057   ----------------------------------------
 .byte   W96
@  #03 @058   ----------------------------------------
 .byte   W96
@  #03 @059   ----------------------------------------
 .byte   W96
@  #03 @060   ----------------------------------------
 .byte   W96
@  #03 @061   ----------------------------------------
 .byte   W96
@  #03 @062   ----------------------------------------
 .byte   W96
@  #03 @063   ----------------------------------------
 .byte   W96
@  #03 @064   ----------------------------------------
 .byte   W96
@  #03 @065   ----------------------------------------
 .byte   W96
@  #03 @066   ----------------------------------------
 .byte   W96
@  #03 @067   ----------------------------------------
 .byte   W96
@  #03 @068   ----------------------------------------
 .byte   W96
@  #03 @069   ----------------------------------------
 .byte   W96
@  #03 @070   ----------------------------------------
 .byte   W96
@  #03 @071   ----------------------------------------
 .byte   W96
@  #03 @072   ----------------------------------------
 .byte   W96
@  #03 @073   ----------------------------------------
 .byte   W96
@  #03 @074   ----------------------------------------
 .byte   W96
@  #03 @075   ----------------------------------------
 .byte   W96
@  #03 @076   ----------------------------------------
Label_01EF89EA:
 .byte   N36 ,Gs2 ,v100
 .byte   W36
 .byte   N36
 .byte   W36
 .byte   N24 ,Bn2
 .byte   W24
 .byte   PEND 
@  #03 @077   ----------------------------------------
Label_01EF89F4:
 .byte   N24 ,Ds3 ,v100
 .byte   W24
 .byte   Bn2
 .byte   W24
 .byte   Ds3
 .byte   W24
 .byte   Bn2
 .byte   W24
 .byte   PEND 
@  #03 @078   ----------------------------------------
 .byte   PATT
  .word Label_01EF89F4
@  #03 @079   ----------------------------------------
Label_01EF8A04:
 .byte   N24 ,As2 ,v100
 .byte   W24
 .byte   Gs2
 .byte   W24
 .byte   N12 ,As2
 .byte   W12
 .byte   Bn2
 .byte   W12
 .byte   As2
 .byte   W12
 .byte   Ds3
 .byte   W12
 .byte   PEND 
@  #03 @080   ----------------------------------------
 .byte   PATT
  .word Label_01EF89EA
@  #03 @081   ----------------------------------------
 .byte   PATT
  .word Label_01EF89F4
@  #03 @082   ----------------------------------------
 .byte   PATT
  .word Label_01EF89F4
@  #03 @083   ----------------------------------------
 .byte   PATT
  .word Label_01EF8A04
@  #03 @084   ----------------------------------------
 .byte   PATT
  .word Label_01EF89EA
@  #03 @085   ----------------------------------------
 .byte   PATT
  .word Label_01EF89F4
@  #03 @086   ----------------------------------------
 .byte   PATT
  .word Label_01EF89F4
@  #03 @087   ----------------------------------------
 .byte   PATT
  .word Label_01EF8A04
@  #03 @088   ----------------------------------------
 .byte   PATT
  .word Label_01EF89EA
@  #03 @089   ----------------------------------------
 .byte   PATT
  .word Label_01EF89F4
@  #03 @090   ----------------------------------------
 .byte   PATT
  .word Label_01EF89F4
@  #03 @091   ----------------------------------------
 .byte   PATT
  .word Label_01EF8A04
@  #03 @092   ----------------------------------------
Label_01EF8A50:
 .byte   N72 ,Gs3 ,v100
 .byte   W72
 .byte   Ds4
 .byte   W24
 .byte   PEND 
@  #03 @093   ----------------------------------------
 .byte   W48
 .byte   N48 ,Bn3
 .byte   W48
@  #03 @094   ----------------------------------------
Label_01EF8A5B:
 .byte   N72 ,Bn3 ,v100
 .byte   W72
 .byte   N24 ,Fs4
 .byte   W24
 .byte   PEND 
@  #03 @095   ----------------------------------------
Label_01EF8A63:
 .byte   N72 ,Ds4 ,v100
 .byte   W72
 .byte   N24 ,As4
 .byte   W24
 .byte   PEND 
@  #03 @096   ----------------------------------------
 .byte   PATT
  .word Label_01EF8A50
@  #03 @097   ----------------------------------------
 .byte   W48
 .byte   N48 ,Bn3 ,v100
 .byte   W48
@  #03 @098   ----------------------------------------
 .byte   PATT
  .word Label_01EF8A5B
@  #03 @099   ----------------------------------------
 .byte   PATT
  .word Label_01EF8A63
@  #03 @100   ----------------------------------------
 .byte   W96
@  #03 @101   ----------------------------------------
 .byte   W96
@  #03 @102   ----------------------------------------
 .byte   W96
@  #03 @103   ----------------------------------------
 .byte   W96
@  #03 @104   ----------------------------------------
 .byte   W96
@  #03 @105   ----------------------------------------
 .byte   W96
@  #03 @106   ----------------------------------------
 .byte   W96
@  #03 @107   ----------------------------------------
 .byte   W96
@  #03 @108   ----------------------------------------
 .byte   PATT
  .word Label_01EF89EA
@  #03 @109   ----------------------------------------
 .byte   PATT
  .word Label_01EF89F4
@  #03 @110   ----------------------------------------
 .byte   PATT
  .word Label_01EF89F4
@  #03 @111   ----------------------------------------
 .byte   PATT
  .word Label_01EF8A04
@  #03 @112   ----------------------------------------
 .byte   PATT
  .word Label_01EF89EA
@  #03 @113   ----------------------------------------
 .byte   PATT
  .word Label_01EF89F4
@  #03 @114   ----------------------------------------
 .byte   PATT
  .word Label_01EF89F4
@  #03 @115   ----------------------------------------
 .byte   PATT
  .word Label_01EF8A04
@  #03 @116   ----------------------------------------
 .byte   PATT
  .word Label_01EF89EA
@  #03 @117   ----------------------------------------
 .byte   PATT
  .word Label_01EF89F4
@  #03 @118   ----------------------------------------
 .byte   PATT
  .word Label_01EF89F4
@  #03 @119   ----------------------------------------
 .byte   PATT
  .word Label_01EF8A04
@  #03 @120   ----------------------------------------
 .byte   PATT
  .word Label_01EF89EA
@  #03 @121   ----------------------------------------
 .byte   PATT
  .word Label_01EF89F4
@  #03 @122   ----------------------------------------
 .byte   PATT
  .word Label_01EF89F4
@  #03 @123   ----------------------------------------
 .byte   PATT
  .word Label_01EF8A04
@  #03 @124   ----------------------------------------
 .byte   GOTO
  .word Label_01EF8876
 .byte   FINE

@**************** Track 4 (Midi-Chn.3) ****************@

ModernDayOuroboros_004:
@  #04 @000   ----------------------------------------
 .byte   VOL , 80*ModernDayOuroboros_mvl/mxv
 .byte   KEYSH , ModernDayOuroboros_key+0
Label_01782A84:
 .byte   VOICE , 19
 .byte   MODT 0
 .byte   LFOS 44
 .byte   W96
@  #04 @001   ----------------------------------------
 .byte   W96
@  #04 @002   ----------------------------------------
 .byte   W96
@  #04 @003   ----------------------------------------
 .byte   W96
@  #04 @004   ----------------------------------------
Label_01782A8E:
 .byte   N36 ,Gs1 ,v100
 .byte   W36
 .byte   N36
 .byte   W36
 .byte   N24
 .byte   W24
 .byte   PEND 
@  #04 @005   ----------------------------------------
Label_01782A97:
 .byte   N24 ,Gs1 ,v100
 .byte   W24
 .byte   N12 ,As1
 .byte   W12
 .byte   N24 ,Bn1
 .byte   W24
 .byte   N12 ,Ds2
 .byte   W12
 .byte   N24 ,Gs1
 .byte   W24
 .byte   PEND 
@  #04 @006   ----------------------------------------
 .byte   PATT
  .word Label_01782A8E
@  #04 @007   ----------------------------------------
Label_01782AAD:
 .byte   N24 ,Gs1 ,v100
 .byte   W24
 .byte   N12 ,As1
 .byte   W12
 .byte   N24 ,Bn1
 .byte   W24
 .byte   N12 ,Ds2
 .byte   W12
 .byte   N24 ,Bn1
 .byte   W24
 .byte   PEND 
@  #04 @008   ----------------------------------------
 .byte   PATT
  .word Label_01782A8E
@  #04 @009   ----------------------------------------
 .byte   PATT
  .word Label_01782A97
@  #04 @010   ----------------------------------------
 .byte   PATT
  .word Label_01782A8E
@  #04 @011   ----------------------------------------
 .byte   PATT
  .word Label_01782AAD
@  #04 @012   ----------------------------------------
 .byte   W96
@  #04 @013   ----------------------------------------
 .byte   W96
@  #04 @014   ----------------------------------------
 .byte   W96
@  #04 @015   ----------------------------------------
 .byte   W96
@  #04 @016   ----------------------------------------
 .byte   W96
@  #04 @017   ----------------------------------------
 .byte   W96
@  #04 @018   ----------------------------------------
 .byte   W96
@  #04 @019   ----------------------------------------
 .byte   W96
@  #04 @020   ----------------------------------------
 .byte   W96
@  #04 @021   ----------------------------------------
 .byte   W96
@  #04 @022   ----------------------------------------
 .byte   W96
@  #04 @023   ----------------------------------------
 .byte   W96
@  #04 @024   ----------------------------------------
 .byte   W96
@  #04 @025   ----------------------------------------
 .byte   W96
@  #04 @026   ----------------------------------------
 .byte   W96
@  #04 @027   ----------------------------------------
 .byte   W96
@  #04 @028   ----------------------------------------
Label_01782AE2:
 .byte   N36 ,Gs2 ,v064
 .byte   W36
 .byte   N36
 .byte   W36
 .byte   N24 ,Bn2
 .byte   W24
 .byte   PEND 
@  #04 @029   ----------------------------------------
Label_01782AEC:
 .byte   N24 ,Ds3 ,v064
 .byte   W24
 .byte   Bn2
 .byte   W24
 .byte   Ds3
 .byte   W24
 .byte   Bn2
 .byte   W24
 .byte   PEND 
@  #04 @030   ----------------------------------------
 .byte   PATT
  .word Label_01782AEC
@  #04 @031   ----------------------------------------
Label_01782AFC:
 .byte   N24 ,As2 ,v064
 .byte   W24
 .byte   Gs2
 .byte   W24
 .byte   N12 ,As2
 .byte   W12
 .byte   Bn2
 .byte   W12
 .byte   As2
 .byte   W12
 .byte   Ds3
 .byte   W12
 .byte   PEND 
@  #04 @032   ----------------------------------------
 .byte   PATT
  .word Label_01782AE2
@  #04 @033   ----------------------------------------
 .byte   PATT
  .word Label_01782AEC
@  #04 @034   ----------------------------------------
 .byte   PATT
  .word Label_01782AEC
@  #04 @035   ----------------------------------------
 .byte   PATT
  .word Label_01782AFC
@  #04 @036   ----------------------------------------
Label_01782B20:
 .byte   N36 ,Gs2 ,v100
 .byte   W36
 .byte   N36
 .byte   W36
 .byte   N24 ,Bn2
 .byte   W24
 .byte   PEND 
@  #04 @037   ----------------------------------------
Label_01782B2A:
 .byte   N24 ,Ds3 ,v100
 .byte   W24
 .byte   Bn2
 .byte   W24
 .byte   Ds3
 .byte   W24
 .byte   Bn2
 .byte   W24
 .byte   PEND 
@  #04 @038   ----------------------------------------
 .byte   PATT
  .word Label_01782B2A
@  #04 @039   ----------------------------------------
Label_01782B3A:
 .byte   N24 ,As2 ,v100
 .byte   W24
 .byte   Gs2
 .byte   W24
 .byte   N12 ,As2
 .byte   W12
 .byte   Bn2
 .byte   W12
 .byte   As2
 .byte   W12
 .byte   Ds3
 .byte   W12
 .byte   PEND 
@  #04 @040   ----------------------------------------
 .byte   PATT
  .word Label_01782B20
@  #04 @041   ----------------------------------------
 .byte   PATT
  .word Label_01782B2A
@  #04 @042   ----------------------------------------
 .byte   PATT
  .word Label_01782B2A
@  #04 @043   ----------------------------------------
 .byte   PATT
  .word Label_01782B3A
@  #04 @044   ----------------------------------------
 .byte   W96
@  #04 @045   ----------------------------------------
 .byte   W96
@  #04 @046   ----------------------------------------
 .byte   W96
@  #04 @047   ----------------------------------------
 .byte   W96
@  #04 @048   ----------------------------------------
 .byte   W96
@  #04 @049   ----------------------------------------
 .byte   W96
@  #04 @050   ----------------------------------------
 .byte   W96
@  #04 @051   ----------------------------------------
 .byte   W96
@  #04 @052   ----------------------------------------
 .byte   W96
@  #04 @053   ----------------------------------------
 .byte   W96
@  #04 @054   ----------------------------------------
 .byte   W96
@  #04 @055   ----------------------------------------
 .byte   W96
@  #04 @056   ----------------------------------------
 .byte   W96
@  #04 @057   ----------------------------------------
 .byte   W96
@  #04 @058   ----------------------------------------
 .byte   W96
@  #04 @059   ----------------------------------------
 .byte   W96
@  #04 @060   ----------------------------------------
Label_01782B6E:
 .byte   N36 ,Gs1 ,v127
 .byte   W36
 .byte   N36
 .byte   W36
 .byte   N24
 .byte   W24
 .byte   PEND 
@  #04 @061   ----------------------------------------
Label_01782B77:
 .byte   N24 ,Gs1 ,v127
 .byte   W24
 .byte   N12 ,As1
 .byte   W12
 .byte   N24 ,Bn1
 .byte   W24
 .byte   N12 ,Ds2
 .byte   W12
 .byte   N24 ,Gs1
 .byte   W24
 .byte   PEND 
@  #04 @062   ----------------------------------------
 .byte   PATT
  .word Label_01782B6E
@  #04 @063   ----------------------------------------
 .byte   PATT
  .word Label_01782AAD
@  #04 @064   ----------------------------------------
 .byte   PATT
  .word Label_01782B6E
@  #04 @065   ----------------------------------------
 .byte   PATT
  .word Label_01782B77
@  #04 @066   ----------------------------------------
 .byte   PATT
  .word Label_01782B6E
@  #04 @067   ----------------------------------------
 .byte   N24 ,Gs1 ,v127
 .byte   W24
 .byte   N12 ,As1
 .byte   W12
 .byte   N24 ,Bn1
 .byte   W24
 .byte   N12 ,Ds2
 .byte   W12
 .byte   N24 ,Bn1
 .byte   W24
@  #04 @068   ----------------------------------------
 .byte   PATT
  .word Label_01782B20
@  #04 @069   ----------------------------------------
 .byte   PATT
  .word Label_01782B2A
@  #04 @070   ----------------------------------------
 .byte   PATT
  .word Label_01782B2A
@  #04 @071   ----------------------------------------
 .byte   PATT
  .word Label_01782B3A
@  #04 @072   ----------------------------------------
 .byte   PATT
  .word Label_01782B20
@  #04 @073   ----------------------------------------
 .byte   PATT
  .word Label_01782B2A
@  #04 @074   ----------------------------------------
 .byte   PATT
  .word Label_01782B2A
@  #04 @075   ----------------------------------------
 .byte   PATT
  .word Label_01782B3A
@  #04 @076   ----------------------------------------
 .byte   PATT
  .word Label_01782B20
@  #04 @077   ----------------------------------------
 .byte   PATT
  .word Label_01782B2A
@  #04 @078   ----------------------------------------
 .byte   PATT
  .word Label_01782B2A
@  #04 @079   ----------------------------------------
 .byte   PATT
  .word Label_01782B3A
@  #04 @080   ----------------------------------------
 .byte   PATT
  .word Label_01782B20
@  #04 @081   ----------------------------------------
 .byte   PATT
  .word Label_01782B2A
@  #04 @082   ----------------------------------------
 .byte   PATT
  .word Label_01782B2A
@  #04 @083   ----------------------------------------
 .byte   PATT
  .word Label_01782B3A
@  #04 @084   ----------------------------------------
 .byte   PATT
  .word Label_01782B20
@  #04 @085   ----------------------------------------
 .byte   PATT
  .word Label_01782B2A
@  #04 @086   ----------------------------------------
 .byte   PATT
  .word Label_01782B2A
@  #04 @087   ----------------------------------------
 .byte   PATT
  .word Label_01782B3A
@  #04 @088   ----------------------------------------
 .byte   PATT
  .word Label_01782B20
@  #04 @089   ----------------------------------------
 .byte   PATT
  .word Label_01782B2A
@  #04 @090   ----------------------------------------
 .byte   PATT
  .word Label_01782B2A
@  #04 @091   ----------------------------------------
 .byte   PATT
  .word Label_01782B3A
@  #04 @092   ----------------------------------------
 .byte   W96
@  #04 @093   ----------------------------------------
 .byte   W96
@  #04 @094   ----------------------------------------
 .byte   W96
@  #04 @095   ----------------------------------------
 .byte   W96
@  #04 @096   ----------------------------------------
 .byte   W96
@  #04 @097   ----------------------------------------
 .byte   W96
@  #04 @098   ----------------------------------------
 .byte   W96
@  #04 @099   ----------------------------------------
 .byte   W96
@  #04 @100   ----------------------------------------
 .byte   N96 ,Gs2 ,v100
 .byte   W96
@  #04 @101   ----------------------------------------
 .byte   Bn2
 .byte   W96
@  #04 @102   ----------------------------------------
Label_01782C37:
 .byte   N36 ,Ds3 ,v100
 .byte   W36
 .byte   Bn2
 .byte   W36
 .byte   N24 ,Ds3
 .byte   W24
 .byte   PEND 
@  #04 @103   ----------------------------------------
Label_01782C41:
 .byte   N72 ,As2 ,v100
 .byte   W72
 .byte   N24 ,Gs2
 .byte   W24
 .byte   PEND 
@  #04 @104   ----------------------------------------
 .byte   N96
 .byte   W96
@  #04 @105   ----------------------------------------
 .byte   Bn2
 .byte   W96
@  #04 @106   ----------------------------------------
 .byte   PATT
  .word Label_01782C37
@  #04 @107   ----------------------------------------
 .byte   PATT
  .word Label_01782C41
@  #04 @108   ----------------------------------------
 .byte   W96
@  #04 @109   ----------------------------------------
 .byte   W96
@  #04 @110   ----------------------------------------
 .byte   W96
@  #04 @111   ----------------------------------------
 .byte   W96
@  #04 @112   ----------------------------------------
 .byte   W96
@  #04 @113   ----------------------------------------
 .byte   W96
@  #04 @114   ----------------------------------------
 .byte   W96
@  #04 @115   ----------------------------------------
 .byte   W96
@  #04 @116   ----------------------------------------
 .byte   W96
@  #04 @117   ----------------------------------------
 .byte   W96
@  #04 @118   ----------------------------------------
 .byte   W96
@  #04 @119   ----------------------------------------
 .byte   W96
@  #04 @120   ----------------------------------------
 .byte   W96
@  #04 @121   ----------------------------------------
 .byte   W96
@  #04 @122   ----------------------------------------
 .byte   W96
@  #04 @123   ----------------------------------------
 .byte   W96
@  #04 @124   ----------------------------------------
 .byte   GOTO
  .word Label_01782A84
 .byte   FINE

@**************** Track 5 (Midi-Chn.4) ****************@

ModernDayOuroboros_005:
@  #05 @000   ----------------------------------------
 .byte   KEYSH , ModernDayOuroboros_key+0
Label_01782C9A:
 .byte   VOICE , 80
 .byte   MODT 0
 .byte   LFOS 44
 .byte   VOL , 80*ModernDayOuroboros_mvl/mxv
 .byte   W96
@  #05 @001   ----------------------------------------
 .byte   W96
@  #05 @002   ----------------------------------------
 .byte   W96
@  #05 @003   ----------------------------------------
 .byte   W96
@  #05 @004   ----------------------------------------
 .byte   W96
@  #05 @005   ----------------------------------------
 .byte   W96
@  #05 @006   ----------------------------------------
 .byte   W96
@  #05 @007   ----------------------------------------
 .byte   W96
@  #05 @008   ----------------------------------------
 .byte   W96
@  #05 @009   ----------------------------------------
 .byte   W96
@  #05 @010   ----------------------------------------
 .byte   W96
@  #05 @011   ----------------------------------------
 .byte   W96
@  #05 @012   ----------------------------------------
 .byte   W96
@  #05 @013   ----------------------------------------
 .byte   W96
@  #05 @014   ----------------------------------------
 .byte   W96
@  #05 @015   ----------------------------------------
 .byte   W96
@  #05 @016   ----------------------------------------
 .byte   W96
@  #05 @017   ----------------------------------------
 .byte   W96
@  #05 @018   ----------------------------------------
 .byte   W96
@  #05 @019   ----------------------------------------
 .byte   W96
@  #05 @020   ----------------------------------------
 .byte   W96
@  #05 @021   ----------------------------------------
 .byte   W96
@  #05 @022   ----------------------------------------
 .byte   W96
@  #05 @023   ----------------------------------------
 .byte   W96
@  #05 @024   ----------------------------------------
 .byte   W96
@  #05 @025   ----------------------------------------
 .byte   W96
@  #05 @026   ----------------------------------------
 .byte   W96
@  #05 @027   ----------------------------------------
 .byte   W96
@  #05 @028   ----------------------------------------
 .byte   W96
@  #05 @029   ----------------------------------------
 .byte   W96
@  #05 @030   ----------------------------------------
 .byte   W96
@  #05 @031   ----------------------------------------
 .byte   W96
@  #05 @032   ----------------------------------------
 .byte   W96
@  #05 @033   ----------------------------------------
 .byte   W96
@  #05 @034   ----------------------------------------
 .byte   W96
@  #05 @035   ----------------------------------------
 .byte   W96
@  #05 @036   ----------------------------------------
 .byte   W96
@  #05 @037   ----------------------------------------
 .byte   W96
@  #05 @038   ----------------------------------------
 .byte   W96
@  #05 @039   ----------------------------------------
 .byte   W96
@  #05 @040   ----------------------------------------
 .byte   W96
@  #05 @041   ----------------------------------------
 .byte   W96
@  #05 @042   ----------------------------------------
 .byte   W96
@  #05 @043   ----------------------------------------
 .byte   W96
@  #05 @044   ----------------------------------------
Label_01782CCE:
 .byte   W12
 .byte   N12 ,Fs2 ,v064
 .byte   W24
 .byte   Bn2
 .byte   W24
 .byte   As2
 .byte   W24
 .byte   Gs2
 .byte   W12
 .byte   PEND 
@  #05 @045   ----------------------------------------
 .byte   PATT
  .word Label_01782CCE
@  #05 @046   ----------------------------------------
 .byte   PATT
  .word Label_01782CCE
@  #05 @047   ----------------------------------------
 .byte   PATT
  .word Label_01782CCE
@  #05 @048   ----------------------------------------
 .byte   PATT
  .word Label_01782CCE
@  #05 @049   ----------------------------------------
 .byte   PATT
  .word Label_01782CCE
@  #05 @050   ----------------------------------------
 .byte   PATT
  .word Label_01782CCE
@  #05 @051   ----------------------------------------
 .byte   PATT
  .word Label_01782CCE
@  #05 @052   ----------------------------------------
 .byte   PATT
  .word Label_01782CCE
@  #05 @053   ----------------------------------------
 .byte   PATT
  .word Label_01782CCE
@  #05 @054   ----------------------------------------
 .byte   PATT
  .word Label_01782CCE
@  #05 @055   ----------------------------------------
 .byte   PATT
  .word Label_01782CCE
@  #05 @056   ----------------------------------------
 .byte   PATT
  .word Label_01782CCE
@  #05 @057   ----------------------------------------
 .byte   PATT
  .word Label_01782CCE
@  #05 @058   ----------------------------------------
 .byte   PATT
  .word Label_01782CCE
@  #05 @059   ----------------------------------------
 .byte   PATT
  .word Label_01782CCE
@  #05 @060   ----------------------------------------
 .byte   PATT
  .word Label_01782CCE
@  #05 @061   ----------------------------------------
 .byte   PATT
  .word Label_01782CCE
@  #05 @062   ----------------------------------------
 .byte   PATT
  .word Label_01782CCE
@  #05 @063   ----------------------------------------
 .byte   PATT
  .word Label_01782CCE
@  #05 @064   ----------------------------------------
 .byte   PATT
  .word Label_01782CCE
@  #05 @065   ----------------------------------------
 .byte   PATT
  .word Label_01782CCE
@  #05 @066   ----------------------------------------
 .byte   PATT
  .word Label_01782CCE
@  #05 @067   ----------------------------------------
 .byte   PATT
  .word Label_01782CCE
@  #05 @068   ----------------------------------------
 .byte   PATT
  .word Label_01782CCE
@  #05 @069   ----------------------------------------
 .byte   PATT
  .word Label_01782CCE
@  #05 @070   ----------------------------------------
 .byte   PATT
  .word Label_01782CCE
@  #05 @071   ----------------------------------------
 .byte   PATT
  .word Label_01782CCE
@  #05 @072   ----------------------------------------
 .byte   PATT
  .word Label_01782CCE
@  #05 @073   ----------------------------------------
 .byte   PATT
  .word Label_01782CCE
@  #05 @074   ----------------------------------------
 .byte   PATT
  .word Label_01782CCE
@  #05 @075   ----------------------------------------
 .byte   PATT
  .word Label_01782CCE
@  #05 @076   ----------------------------------------
 .byte   W96
@  #05 @077   ----------------------------------------
 .byte   W96
@  #05 @078   ----------------------------------------
 .byte   W96
@  #05 @079   ----------------------------------------
 .byte   W96
@  #05 @080   ----------------------------------------
 .byte   W96
@  #05 @081   ----------------------------------------
 .byte   W96
@  #05 @082   ----------------------------------------
 .byte   W96
@  #05 @083   ----------------------------------------
 .byte   W96
@  #05 @084   ----------------------------------------
 .byte   W96
@  #05 @085   ----------------------------------------
 .byte   W96
@  #05 @086   ----------------------------------------
 .byte   W96
@  #05 @087   ----------------------------------------
 .byte   W96
@  #05 @088   ----------------------------------------
 .byte   W96
@  #05 @089   ----------------------------------------
 .byte   W96
@  #05 @090   ----------------------------------------
 .byte   W96
@  #05 @091   ----------------------------------------
 .byte   W96
@  #05 @092   ----------------------------------------
 .byte   PATT
  .word Label_01782CCE
@  #05 @093   ----------------------------------------
 .byte   PATT
  .word Label_01782CCE
@  #05 @094   ----------------------------------------
 .byte   PATT
  .word Label_01782CCE
@  #05 @095   ----------------------------------------
 .byte   PATT
  .word Label_01782CCE
@  #05 @096   ----------------------------------------
 .byte   PATT
  .word Label_01782CCE
@  #05 @097   ----------------------------------------
 .byte   PATT
  .word Label_01782CCE
@  #05 @098   ----------------------------------------
 .byte   PATT
  .word Label_01782CCE
@  #05 @099   ----------------------------------------
 .byte   PATT
  .word Label_01782CCE
@  #05 @100   ----------------------------------------
 .byte   W96
@  #05 @101   ----------------------------------------
 .byte   W96
@  #05 @102   ----------------------------------------
 .byte   W96
@  #05 @103   ----------------------------------------
 .byte   W96
@  #05 @104   ----------------------------------------
 .byte   W96
@  #05 @105   ----------------------------------------
 .byte   W96
@  #05 @106   ----------------------------------------
 .byte   W96
@  #05 @107   ----------------------------------------
 .byte   W96
@  #05 @108   ----------------------------------------
 .byte   W96
@  #05 @109   ----------------------------------------
 .byte   W96
@  #05 @110   ----------------------------------------
 .byte   W96
@  #05 @111   ----------------------------------------
 .byte   W96
@  #05 @112   ----------------------------------------
 .byte   W96
@  #05 @113   ----------------------------------------
 .byte   W96
@  #05 @114   ----------------------------------------
 .byte   W96
@  #05 @115   ----------------------------------------
 .byte   W96
@  #05 @116   ----------------------------------------
Label_01782DBD:
 .byte   N12 ,Gs2 ,v064
 .byte   W36
 .byte   N12
 .byte   W36
 .byte   N12
 .byte   W24
 .byte   PEND 
@  #05 @117   ----------------------------------------
Label_01782DC6:
 .byte   N12 ,Bn2 ,v064
 .byte   W36
 .byte   N12
 .byte   W36
 .byte   N12
 .byte   W24
 .byte   PEND 
@  #05 @118   ----------------------------------------
Label_01782DCF:
 .byte   N12 ,Fs2 ,v064
 .byte   W36
 .byte   N12
 .byte   W36
 .byte   N12
 .byte   W24
 .byte   PEND 
@  #05 @119   ----------------------------------------
Label_01782DD8:
 .byte   N12 ,Ds2 ,v064
 .byte   W36
 .byte   N12
 .byte   W36
 .byte   N12
 .byte   W24
 .byte   PEND 
@  #05 @120   ----------------------------------------
 .byte   PATT
  .word Label_01782DBD
@  #05 @121   ----------------------------------------
 .byte   PATT
  .word Label_01782DC6
@  #05 @122   ----------------------------------------
 .byte   PATT
  .word Label_01782DCF
@  #05 @123   ----------------------------------------
 .byte   PATT
  .word Label_01782DD8
@  #05 @124   ----------------------------------------
 .byte   GOTO
  .word Label_01782C9A
 .byte   FINE

@**************** Track 6 (Midi-Chn.5) ****************@

ModernDayOuroboros_006:
@  #06 @000   ----------------------------------------
 .byte   VOL , 80*ModernDayOuroboros_mvl/mxv
 .byte   KEYSH , ModernDayOuroboros_key+0
Label_017830C0:
 .byte   VOICE , 80
 .byte   MODT 0
 .byte   LFOS 44
 .byte   W96
@  #06 @001   ----------------------------------------
 .byte   W96
@  #06 @002   ----------------------------------------
 .byte   W96
@  #06 @003   ----------------------------------------
 .byte   W96
@  #06 @004   ----------------------------------------
 .byte   W96
@  #06 @005   ----------------------------------------
 .byte   W96
@  #06 @006   ----------------------------------------
 .byte   W96
@  #06 @007   ----------------------------------------
 .byte   W96
@  #06 @008   ----------------------------------------
 .byte   W96
@  #06 @009   ----------------------------------------
 .byte   W96
@  #06 @010   ----------------------------------------
 .byte   W96
@  #06 @011   ----------------------------------------
 .byte   W96
@  #06 @012   ----------------------------------------
 .byte   W96
@  #06 @013   ----------------------------------------
 .byte   W96
@  #06 @014   ----------------------------------------
 .byte   W96
@  #06 @015   ----------------------------------------
 .byte   W96
@  #06 @016   ----------------------------------------
 .byte   W96
@  #06 @017   ----------------------------------------
 .byte   W96
@  #06 @018   ----------------------------------------
 .byte   W96
@  #06 @019   ----------------------------------------
 .byte   W96
@  #06 @020   ----------------------------------------
 .byte   W96
@  #06 @021   ----------------------------------------
 .byte   W96
@  #06 @022   ----------------------------------------
 .byte   W96
@  #06 @023   ----------------------------------------
 .byte   W96
@  #06 @024   ----------------------------------------
 .byte   W96
@  #06 @025   ----------------------------------------
 .byte   W96
@  #06 @026   ----------------------------------------
 .byte   W96
@  #06 @027   ----------------------------------------
 .byte   W96
@  #06 @028   ----------------------------------------
 .byte   W96
@  #06 @029   ----------------------------------------
 .byte   W96
@  #06 @030   ----------------------------------------
 .byte   W96
@  #06 @031   ----------------------------------------
 .byte   W96
@  #06 @032   ----------------------------------------
 .byte   W96
@  #06 @033   ----------------------------------------
 .byte   W96
@  #06 @034   ----------------------------------------
 .byte   W96
@  #06 @035   ----------------------------------------
 .byte   W96
@  #06 @036   ----------------------------------------
 .byte   W96
@  #06 @037   ----------------------------------------
 .byte   W96
@  #06 @038   ----------------------------------------
 .byte   W96
@  #06 @039   ----------------------------------------
 .byte   W96
@  #06 @040   ----------------------------------------
 .byte   W96
@  #06 @041   ----------------------------------------
 .byte   W96
@  #06 @042   ----------------------------------------
 .byte   W96
@  #06 @043   ----------------------------------------
 .byte   W96
@  #06 @044   ----------------------------------------
Label_017830F2:
 .byte   W24
 .byte   N24 ,Gs1 ,v100
 .byte   W24
 .byte   N12 ,As1
 .byte   W12
 .byte   N36 ,Bn1
 .byte   W36
 .byte   PEND 
@  #06 @045   ----------------------------------------
Label_017830FE:
 .byte   N12 ,En2 ,v100
 .byte   W12
 .byte   N24 ,Ds2
 .byte   W24
 .byte   Cs2
 .byte   W24
 .byte   TIE ,Bn1
 .byte   W36
 .byte   PEND 
@  #06 @046   ----------------------------------------
 .byte   W72
 .byte   EOT
 .byte   N96 ,As1
 .byte   W24
@  #06 @047   ----------------------------------------
 .byte   W72
 .byte   N24 ,Gs1 ,v127
 .byte   W24
@  #06 @048   ----------------------------------------
 .byte   PATT
  .word Label_017830F2
@  #06 @049   ----------------------------------------
 .byte   PATT
  .word Label_017830FE
@  #06 @050   ----------------------------------------
 .byte   W72
 .byte   EOT
 .byte   Bn1
 .byte   N96 ,As1 ,v100
 .byte   W24
@  #06 @051   ----------------------------------------
 .byte   W72
 .byte   N24 ,Gs1 ,v127
 .byte   W24
@  #06 @052   ----------------------------------------
 .byte   PATT
  .word Label_017830F2
@  #06 @053   ----------------------------------------
 .byte   PATT
  .word Label_017830FE
@  #06 @054   ----------------------------------------
 .byte   W72
 .byte   EOT
 .byte   Bn1
 .byte   N96 ,As1 ,v100
 .byte   W24
@  #06 @055   ----------------------------------------
 .byte   W72
 .byte   N24 ,Gs1 ,v127
 .byte   W24
@  #06 @056   ----------------------------------------
 .byte   PATT
  .word Label_017830F2
@  #06 @057   ----------------------------------------
 .byte   PATT
  .word Label_017830FE
@  #06 @058   ----------------------------------------
 .byte   W72
 .byte   EOT
 .byte   Bn1
 .byte   N96 ,As1 ,v100
 .byte   W24
@  #06 @059   ----------------------------------------
 .byte   W72
 .byte   N24 ,Gs1 ,v127
 .byte   W24
@  #06 @060   ----------------------------------------
 .byte   W96
@  #06 @061   ----------------------------------------
 .byte   W96
@  #06 @062   ----------------------------------------
 .byte   W96
@  #06 @063   ----------------------------------------
 .byte   W96
@  #06 @064   ----------------------------------------
 .byte   W96
@  #06 @065   ----------------------------------------
 .byte   W96
@  #06 @066   ----------------------------------------
 .byte   W96
@  #06 @067   ----------------------------------------
 .byte   W96
@  #06 @068   ----------------------------------------
 .byte   W96
@  #06 @069   ----------------------------------------
 .byte   W96
@  #06 @070   ----------------------------------------
 .byte   W96
@  #06 @071   ----------------------------------------
 .byte   W96
@  #06 @072   ----------------------------------------
 .byte   W96
@  #06 @073   ----------------------------------------
 .byte   W96
@  #06 @074   ----------------------------------------
 .byte   W96
@  #06 @075   ----------------------------------------
 .byte   W96
@  #06 @076   ----------------------------------------
Label_01783167:
 .byte   N12 ,Gs2 ,v064
 .byte   W36
 .byte   N12
 .byte   W36
 .byte   N12
 .byte   W24
 .byte   PEND 
@  #06 @077   ----------------------------------------
Label_01783170:
 .byte   N12 ,Bn2 ,v064
 .byte   W36
 .byte   N12
 .byte   W36
 .byte   N12
 .byte   W24
 .byte   PEND 
@  #06 @078   ----------------------------------------
Label_01783179:
 .byte   N12 ,Fs2 ,v064
 .byte   W36
 .byte   N12
 .byte   W36
 .byte   N12
 .byte   W24
 .byte   PEND 
@  #06 @079   ----------------------------------------
Label_01783182:
 .byte   N12 ,Ds2 ,v064
 .byte   W36
 .byte   N12
 .byte   W36
 .byte   N12
 .byte   W24
 .byte   PEND 
@  #06 @080   ----------------------------------------
 .byte   PATT
  .word Label_01783167
@  #06 @081   ----------------------------------------
 .byte   PATT
  .word Label_01783170
@  #06 @082   ----------------------------------------
 .byte   PATT
  .word Label_01783179
@  #06 @083   ----------------------------------------
 .byte   PATT
  .word Label_01783182
@  #06 @084   ----------------------------------------
 .byte   PATT
  .word Label_01783167
@  #06 @085   ----------------------------------------
 .byte   PATT
  .word Label_01783170
@  #06 @086   ----------------------------------------
 .byte   PATT
  .word Label_01783179
@  #06 @087   ----------------------------------------
 .byte   PATT
  .word Label_01783182
@  #06 @088   ----------------------------------------
 .byte   PATT
  .word Label_01783167
@  #06 @089   ----------------------------------------
 .byte   PATT
  .word Label_01783170
@  #06 @090   ----------------------------------------
 .byte   PATT
  .word Label_01783179
@  #06 @091   ----------------------------------------
 .byte   PATT
  .word Label_01783182
@  #06 @092   ----------------------------------------
 .byte   W96
@  #06 @093   ----------------------------------------
 .byte   W96
@  #06 @094   ----------------------------------------
 .byte   W96
@  #06 @095   ----------------------------------------
 .byte   W96
@  #06 @096   ----------------------------------------
 .byte   W96
@  #06 @097   ----------------------------------------
 .byte   W96
@  #06 @098   ----------------------------------------
 .byte   W96
@  #06 @099   ----------------------------------------
 .byte   W96
@  #06 @100   ----------------------------------------
 .byte   W96
@  #06 @101   ----------------------------------------
 .byte   W96
@  #06 @102   ----------------------------------------
 .byte   W96
@  #06 @103   ----------------------------------------
 .byte   W96
@  #06 @104   ----------------------------------------
 .byte   W96
@  #06 @105   ----------------------------------------
 .byte   W96
@  #06 @106   ----------------------------------------
 .byte   W96
@  #06 @107   ----------------------------------------
 .byte   W96
@  #06 @108   ----------------------------------------
 .byte   W96
@  #06 @109   ----------------------------------------
 .byte   W96
@  #06 @110   ----------------------------------------
 .byte   W96
@  #06 @111   ----------------------------------------
 .byte   W96
@  #06 @112   ----------------------------------------
 .byte   W96
@  #06 @113   ----------------------------------------
 .byte   W96
@  #06 @114   ----------------------------------------
 .byte   W96
@  #06 @115   ----------------------------------------
 .byte   W96
@  #06 @116   ----------------------------------------
 .byte   W96
@  #06 @117   ----------------------------------------
 .byte   W96
@  #06 @118   ----------------------------------------
 .byte   W96
@  #06 @119   ----------------------------------------
 .byte   W96
@  #06 @120   ----------------------------------------
 .byte   W96
@  #06 @121   ----------------------------------------
 .byte   W96
@  #06 @122   ----------------------------------------
 .byte   W96
@  #06 @123   ----------------------------------------
 .byte   W96
@  #06 @124   ----------------------------------------
 .byte   GOTO
  .word Label_017830C0
 .byte   FINE

@**************** Track 7 (Midi-Chn.6) ****************@

ModernDayOuroboros_007:
@  #07 @000   ----------------------------------------
 .byte   VOL , 80*ModernDayOuroboros_mvl/mxv
 .byte   KEYSH , ModernDayOuroboros_key+0
Label_01783220:
 .byte   VOICE , 100
 .byte   MODT 0
 .byte   LFOS 44
 .byte   W96
@  #07 @001   ----------------------------------------
 .byte   W96
@  #07 @002   ----------------------------------------
 .byte   W96
@  #07 @003   ----------------------------------------
 .byte   W96
@  #07 @004   ----------------------------------------
 .byte   W96
@  #07 @005   ----------------------------------------
 .byte   W96
@  #07 @006   ----------------------------------------
 .byte   W96
@  #07 @007   ----------------------------------------
 .byte   W96
@  #07 @008   ----------------------------------------
 .byte   W96
@  #07 @009   ----------------------------------------
 .byte   W96
@  #07 @010   ----------------------------------------
 .byte   W96
@  #07 @011   ----------------------------------------
 .byte   W96
@  #07 @012   ----------------------------------------
 .byte   W96
@  #07 @013   ----------------------------------------
 .byte   W96
@  #07 @014   ----------------------------------------
 .byte   W96
@  #07 @015   ----------------------------------------
 .byte   W96
@  #07 @016   ----------------------------------------
 .byte   W96
@  #07 @017   ----------------------------------------
 .byte   W96
@  #07 @018   ----------------------------------------
 .byte   W96
@  #07 @019   ----------------------------------------
 .byte   W96
@  #07 @020   ----------------------------------------
 .byte   W96
@  #07 @021   ----------------------------------------
 .byte   W96
@  #07 @022   ----------------------------------------
 .byte   W96
@  #07 @023   ----------------------------------------
 .byte   W96
@  #07 @024   ----------------------------------------
 .byte   W96
@  #07 @025   ----------------------------------------
 .byte   W96
@  #07 @026   ----------------------------------------
 .byte   W96
@  #07 @027   ----------------------------------------
 .byte   W96
@  #07 @028   ----------------------------------------
 .byte   W96
@  #07 @029   ----------------------------------------
 .byte   W96
@  #07 @030   ----------------------------------------
 .byte   W96
@  #07 @031   ----------------------------------------
 .byte   W96
@  #07 @032   ----------------------------------------
 .byte   W96
@  #07 @033   ----------------------------------------
 .byte   W96
@  #07 @034   ----------------------------------------
 .byte   W96
@  #07 @035   ----------------------------------------
 .byte   W96
@  #07 @036   ----------------------------------------
 .byte   W96
@  #07 @037   ----------------------------------------
 .byte   W96
@  #07 @038   ----------------------------------------
 .byte   W96
@  #07 @039   ----------------------------------------
 .byte   W96
@  #07 @040   ----------------------------------------
 .byte   W96
@  #07 @041   ----------------------------------------
 .byte   W96
@  #07 @042   ----------------------------------------
 .byte   W96
@  #07 @043   ----------------------------------------
 .byte   W96
@  #07 @044   ----------------------------------------
 .byte   W96
@  #07 @045   ----------------------------------------
 .byte   W96
@  #07 @046   ----------------------------------------
 .byte   W96
@  #07 @047   ----------------------------------------
 .byte   W96
@  #07 @048   ----------------------------------------
 .byte   W96
@  #07 @049   ----------------------------------------
 .byte   W96
@  #07 @050   ----------------------------------------
 .byte   W96
@  #07 @051   ----------------------------------------
 .byte   W96
@  #07 @052   ----------------------------------------
 .byte   W96
@  #07 @053   ----------------------------------------
 .byte   W96
@  #07 @054   ----------------------------------------
 .byte   W96
@  #07 @055   ----------------------------------------
 .byte   W96
@  #07 @056   ----------------------------------------
 .byte   W96
@  #07 @057   ----------------------------------------
 .byte   W96
@  #07 @058   ----------------------------------------
 .byte   W96
@  #07 @059   ----------------------------------------
 .byte   W96
@  #07 @060   ----------------------------------------
Label_01783262:
 .byte   N36 ,Gs1 ,v100
 .byte   W36
 .byte   N36
 .byte   W36
 .byte   N24
 .byte   W24
 .byte   PEND 
@  #07 @061   ----------------------------------------
Label_0178326B:
 .byte   N24 ,Gs1 ,v100
 .byte   W24
 .byte   N12 ,As1
 .byte   W12
 .byte   N24 ,Bn1
 .byte   W24
 .byte   N12 ,Ds2
 .byte   W12
 .byte   N24 ,Gs1
 .byte   W24
 .byte   PEND 
@  #07 @062   ----------------------------------------
 .byte   PATT
  .word Label_01783262
@  #07 @063   ----------------------------------------
Label_01783281:
 .byte   N24 ,Gs1 ,v100
 .byte   W24
 .byte   N12 ,As1
 .byte   W12
 .byte   N24 ,Bn1
 .byte   W24
 .byte   N12 ,Ds2
 .byte   W12
 .byte   N24 ,Bn1
 .byte   W24
 .byte   PEND 
@  #07 @064   ----------------------------------------
 .byte   PATT
  .word Label_01783262
@  #07 @065   ----------------------------------------
 .byte   PATT
  .word Label_0178326B
@  #07 @066   ----------------------------------------
 .byte   PATT
  .word Label_01783262
@  #07 @067   ----------------------------------------
 .byte   PATT
  .word Label_01783281
@  #07 @068   ----------------------------------------
 .byte   W96
@  #07 @069   ----------------------------------------
 .byte   W96
@  #07 @070   ----------------------------------------
 .byte   W96
@  #07 @071   ----------------------------------------
 .byte   W96
@  #07 @072   ----------------------------------------
 .byte   W96
@  #07 @073   ----------------------------------------
 .byte   W96
@  #07 @074   ----------------------------------------
 .byte   W96
@  #07 @075   ----------------------------------------
 .byte   W96
@  #07 @076   ----------------------------------------
 .byte   W96
@  #07 @077   ----------------------------------------
 .byte   W96
@  #07 @078   ----------------------------------------
 .byte   W96
@  #07 @079   ----------------------------------------
 .byte   W96
@  #07 @080   ----------------------------------------
 .byte   W96
@  #07 @081   ----------------------------------------
 .byte   W96
@  #07 @082   ----------------------------------------
 .byte   W96
@  #07 @083   ----------------------------------------
 .byte   W96
@  #07 @084   ----------------------------------------
 .byte   W96
@  #07 @085   ----------------------------------------
 .byte   W96
@  #07 @086   ----------------------------------------
 .byte   W96
@  #07 @087   ----------------------------------------
 .byte   W96
@  #07 @088   ----------------------------------------
 .byte   W96
@  #07 @089   ----------------------------------------
 .byte   W96
@  #07 @090   ----------------------------------------
 .byte   W96
@  #07 @091   ----------------------------------------
 .byte   W96
@  #07 @092   ----------------------------------------
 .byte   W96
@  #07 @093   ----------------------------------------
 .byte   W96
@  #07 @094   ----------------------------------------
 .byte   W96
@  #07 @095   ----------------------------------------
 .byte   W96
@  #07 @096   ----------------------------------------
 .byte   W96
@  #07 @097   ----------------------------------------
 .byte   W96
@  #07 @098   ----------------------------------------
 .byte   W96
@  #07 @099   ----------------------------------------
 .byte   W96
@  #07 @100   ----------------------------------------
 .byte   W96
@  #07 @101   ----------------------------------------
 .byte   W96
@  #07 @102   ----------------------------------------
 .byte   W96
@  #07 @103   ----------------------------------------
 .byte   W96
@  #07 @104   ----------------------------------------
 .byte   W96
@  #07 @105   ----------------------------------------
 .byte   W96
@  #07 @106   ----------------------------------------
 .byte   W96
@  #07 @107   ----------------------------------------
 .byte   W96
@  #07 @108   ----------------------------------------
 .byte   W96
@  #07 @109   ----------------------------------------
 .byte   W96
@  #07 @110   ----------------------------------------
 .byte   W96
@  #07 @111   ----------------------------------------
 .byte   W96
@  #07 @112   ----------------------------------------
 .byte   W96
@  #07 @113   ----------------------------------------
 .byte   W96
@  #07 @114   ----------------------------------------
 .byte   W96
@  #07 @115   ----------------------------------------
 .byte   W96
@  #07 @116   ----------------------------------------
 .byte   W96
@  #07 @117   ----------------------------------------
 .byte   W96
@  #07 @118   ----------------------------------------
 .byte   W96
@  #07 @119   ----------------------------------------
 .byte   W96
@  #07 @120   ----------------------------------------
 .byte   W96
@  #07 @121   ----------------------------------------
 .byte   W96
@  #07 @122   ----------------------------------------
 .byte   W96
@  #07 @123   ----------------------------------------
 .byte   W96
@  #07 @124   ----------------------------------------
 .byte   GOTO
  .word Label_01783220
 .byte   FINE

@**************** Track 8 (Midi-Chn.7) ****************@

ModernDayOuroboros_008:
@  #08 @000   ----------------------------------------
 .byte   KEYSH , ModernDayOuroboros_key+0
Label_01EF8AE2:
 .byte   VOICE , 10
 .byte   MODT 0
 .byte   LFOS 44
 .byte   VOL , 34*ModernDayOuroboros_mvl/mxv
 .byte   W96
@  #08 @001   ----------------------------------------
 .byte   W96
@  #08 @002   ----------------------------------------
 .byte   W96
@  #08 @003   ----------------------------------------
 .byte   W96
@  #08 @004   ----------------------------------------
 .byte   W96
@  #08 @005   ----------------------------------------
 .byte   W96
@  #08 @006   ----------------------------------------
 .byte   W96
@  #08 @007   ----------------------------------------
 .byte   W96
@  #08 @008   ----------------------------------------
 .byte   W96
@  #08 @009   ----------------------------------------
 .byte   W96
@  #08 @010   ----------------------------------------
 .byte   W96
@  #08 @011   ----------------------------------------
 .byte   W96
@  #08 @012   ----------------------------------------
 .byte   W96
@  #08 @013   ----------------------------------------
 .byte   W96
@  #08 @014   ----------------------------------------
 .byte   W96
@  #08 @015   ----------------------------------------
 .byte   W96
@  #08 @016   ----------------------------------------
 .byte   W96
@  #08 @017   ----------------------------------------
 .byte   W96
@  #08 @018   ----------------------------------------
 .byte   W96
@  #08 @019   ----------------------------------------
 .byte   W96
@  #08 @020   ----------------------------------------
 .byte   W96
@  #08 @021   ----------------------------------------
 .byte   W96
@  #08 @022   ----------------------------------------
 .byte   W96
@  #08 @023   ----------------------------------------
 .byte   W96
@  #08 @024   ----------------------------------------
 .byte   W96
@  #08 @025   ----------------------------------------
 .byte   W96
@  #08 @026   ----------------------------------------
 .byte   W96
@  #08 @027   ----------------------------------------
 .byte   W96
@  #08 @028   ----------------------------------------
 .byte   W96
@  #08 @029   ----------------------------------------
 .byte   W96
@  #08 @030   ----------------------------------------
 .byte   W96
@  #08 @031   ----------------------------------------
 .byte   W96
@  #08 @032   ----------------------------------------
 .byte   W96
@  #08 @033   ----------------------------------------
 .byte   W96
@  #08 @034   ----------------------------------------
 .byte   W96
@  #08 @035   ----------------------------------------
 .byte   W96
@  #08 @036   ----------------------------------------
 .byte   W96
@  #08 @037   ----------------------------------------
 .byte   W96
@  #08 @038   ----------------------------------------
 .byte   W96
@  #08 @039   ----------------------------------------
 .byte   W96
@  #08 @040   ----------------------------------------
 .byte   W96
@  #08 @041   ----------------------------------------
 .byte   W96
@  #08 @042   ----------------------------------------
 .byte   W96
@  #08 @043   ----------------------------------------
 .byte   W96
@  #08 @044   ----------------------------------------
 .byte   W96
@  #08 @045   ----------------------------------------
 .byte   W96
@  #08 @046   ----------------------------------------
 .byte   W96
@  #08 @047   ----------------------------------------
 .byte   W96
@  #08 @048   ----------------------------------------
 .byte   W96
@  #08 @049   ----------------------------------------
 .byte   W96
@  #08 @050   ----------------------------------------
 .byte   W96
@  #08 @051   ----------------------------------------
 .byte   W96
@  #08 @052   ----------------------------------------
 .byte   W96
@  #08 @053   ----------------------------------------
 .byte   W96
@  #08 @054   ----------------------------------------
 .byte   W96
@  #08 @055   ----------------------------------------
 .byte   W96
@  #08 @056   ----------------------------------------
 .byte   W96
@  #08 @057   ----------------------------------------
 .byte   W96
@  #08 @058   ----------------------------------------
 .byte   W96
@  #08 @059   ----------------------------------------
 .byte   W96
@  #08 @060   ----------------------------------------
 .byte   W96
@  #08 @061   ----------------------------------------
 .byte   W96
@  #08 @062   ----------------------------------------
 .byte   W96
@  #08 @063   ----------------------------------------
 .byte   W96
@  #08 @064   ----------------------------------------
 .byte   W96
@  #08 @065   ----------------------------------------
 .byte   W96
@  #08 @066   ----------------------------------------
 .byte   W96
@  #08 @067   ----------------------------------------
 .byte   W96
@  #08 @068   ----------------------------------------
 .byte   W96
@  #08 @069   ----------------------------------------
 .byte   W96
@  #08 @070   ----------------------------------------
 .byte   W96
@  #08 @071   ----------------------------------------
 .byte   W96
@  #08 @072   ----------------------------------------
 .byte   W96
@  #08 @073   ----------------------------------------
 .byte   W96
@  #08 @074   ----------------------------------------
 .byte   W96
@  #08 @075   ----------------------------------------
 .byte   W96
@  #08 @076   ----------------------------------------
 .byte   W96
@  #08 @077   ----------------------------------------
 .byte   W96
@  #08 @078   ----------------------------------------
 .byte   W96
@  #08 @079   ----------------------------------------
 .byte   W96
@  #08 @080   ----------------------------------------
 .byte   W96
@  #08 @081   ----------------------------------------
 .byte   W96
@  #08 @082   ----------------------------------------
 .byte   W96
@  #08 @083   ----------------------------------------
 .byte   W96
@  #08 @084   ----------------------------------------
 .byte   W96
@  #08 @085   ----------------------------------------
 .byte   W96
@  #08 @086   ----------------------------------------
 .byte   W96
@  #08 @087   ----------------------------------------
 .byte   W96
@  #08 @088   ----------------------------------------
 .byte   W96
@  #08 @089   ----------------------------------------
 .byte   W96
@  #08 @090   ----------------------------------------
 .byte   W96
@  #08 @091   ----------------------------------------
 .byte   W96
@  #08 @092   ----------------------------------------
 .byte   W96
@  #08 @093   ----------------------------------------
 .byte   W96
@  #08 @094   ----------------------------------------
 .byte   W96
@  #08 @095   ----------------------------------------
 .byte   W96
@  #08 @096   ----------------------------------------
 .byte   W96
@  #08 @097   ----------------------------------------
 .byte   W96
@  #08 @098   ----------------------------------------
 .byte   W96
@  #08 @099   ----------------------------------------
 .byte   W96
@  #08 @100   ----------------------------------------
 .byte   W96
@  #08 @101   ----------------------------------------
 .byte   W96
@  #08 @102   ----------------------------------------
 .byte   W96
@  #08 @103   ----------------------------------------
 .byte   W96
@  #08 @104   ----------------------------------------
 .byte   W96
@  #08 @105   ----------------------------------------
 .byte   W96
@  #08 @106   ----------------------------------------
 .byte   W96
@  #08 @107   ----------------------------------------
 .byte   W96
@  #08 @108   ----------------------------------------
Label_01EF8B56:
 .byte   N36 ,Gs3 ,v064
 .byte   W36
 .byte   N36
 .byte   W36
 .byte   N24
 .byte   W24
 .byte   PEND 
@  #08 @109   ----------------------------------------
Label_01EF8B5F:
 .byte   N24 ,Gs3 ,v064
 .byte   W24
 .byte   N12 ,As3
 .byte   W12
 .byte   N24 ,Bn3
 .byte   W24
 .byte   N12 ,Ds4
 .byte   W12
 .byte   N24 ,Gs3
 .byte   W24
 .byte   PEND 
@  #08 @110   ----------------------------------------
 .byte   PATT
  .word Label_01EF8B56
@  #08 @111   ----------------------------------------
Label_01EF8B75:
 .byte   N24 ,Gs3 ,v064
 .byte   W24
 .byte   N12 ,As3
 .byte   W12
 .byte   N24 ,Bn3
 .byte   W24
 .byte   N12 ,Ds4
 .byte   W12
 .byte   N24 ,Bn3
 .byte   W24
 .byte   PEND 
@  #08 @112   ----------------------------------------
 .byte   PATT
  .word Label_01EF8B56
@  #08 @113   ----------------------------------------
 .byte   PATT
  .word Label_01EF8B5F
@  #08 @114   ----------------------------------------
 .byte   PATT
  .word Label_01EF8B56
@  #08 @115   ----------------------------------------
 .byte   PATT
  .word Label_01EF8B75
@  #08 @116   ----------------------------------------
 .byte   W96
@  #08 @117   ----------------------------------------
 .byte   W96
@  #08 @118   ----------------------------------------
 .byte   W96
@  #08 @119   ----------------------------------------
 .byte   W96
@  #08 @120   ----------------------------------------
 .byte   W96
@  #08 @121   ----------------------------------------
 .byte   W96
@  #08 @122   ----------------------------------------
 .byte   W96
@  #08 @123   ----------------------------------------
 .byte   W96
@  #08 @124   ----------------------------------------
 .byte   GOTO
  .word Label_01EF8AE2
 .byte   FINE

@**************** Track 9 (Midi-Chn.8) ****************@

ModernDayOuroboros_009:
@  #09 @000   ----------------------------------------
 .byte   VOL , 80*ModernDayOuroboros_mvl/mxv
 .byte   KEYSH , ModernDayOuroboros_key+0
Label_01EF8BAC:
 .byte   VOICE , 121
 .byte   MODT 0
 .byte   LFOS 44
 .byte   N24 ,Cn1 ,v100
 .byte   W24
 .byte   N12
 .byte   W12
 .byte   N24
 .byte   W24
 .byte   N12
 .byte   W12
 .byte   N24 ,Cs1
 .byte   N24 ,Ds1
 .byte   N24 ,Fs1
 .byte   W24
@  #09 @001   ----------------------------------------
Label_01EF8BC3:
 .byte   N24 ,Cn1 ,v100
 .byte   W24
 .byte   N12
 .byte   W12
 .byte   N24
 .byte   W24
 .byte   N12
 .byte   W12
 .byte   N24 ,Cs1
 .byte   N24 ,Ds1
 .byte   N24 ,Fs1
 .byte   W24
 .byte   PEND 
@  #09 @002   ----------------------------------------
 .byte   PATT
  .word Label_01EF8BC3
@  #09 @003   ----------------------------------------
Label_01EF8BDA:
 .byte   N24 ,Cn1 ,v100
 .byte   W24
 .byte   N12
 .byte   W12
 .byte   N24
 .byte   W36
 .byte   Ds1
 .byte   W24
 .byte   PEND 
@  #09 @004   ----------------------------------------
Label_01EF8BE5:
 .byte   N18 ,Cn1 ,v100
 .byte   W18
 .byte   N06
 .byte   W06
 .byte   N12 ,Dn1
 .byte   W12
 .byte   N24 ,Cn1
 .byte   W24
 .byte   N12
 .byte   W12
 .byte   Dn1
 .byte   W12
 .byte   Cn1
 .byte   W12
 .byte   PEND 
@  #09 @005   ----------------------------------------
 .byte   PATT
  .word Label_01EF8BE5
@  #09 @006   ----------------------------------------
 .byte   PATT
  .word Label_01EF8BE5
@  #09 @007   ----------------------------------------
 .byte   PATT
  .word Label_01EF8BE5
@  #09 @008   ----------------------------------------
 .byte   PATT
  .word Label_01EF8BE5
@  #09 @009   ----------------------------------------
 .byte   PATT
  .word Label_01EF8BE5
@  #09 @010   ----------------------------------------
 .byte   PATT
  .word Label_01EF8BE5
@  #09 @011   ----------------------------------------
 .byte   PATT
  .word Label_01EF8BE5
@  #09 @012   ----------------------------------------
 .byte   PATT
  .word Label_01EF8BE5
@  #09 @013   ----------------------------------------
 .byte   PATT
  .word Label_01EF8BE5
@  #09 @014   ----------------------------------------
 .byte   PATT
  .word Label_01EF8BE5
@  #09 @015   ----------------------------------------
 .byte   PATT
  .word Label_01EF8BE5
@  #09 @016   ----------------------------------------
Label_01EF8C2F:
 .byte   N12 ,Cn1 ,v100
 .byte   W12
 .byte   Fs1
 .byte   W12
 .byte   Cn1
 .byte   W12
 .byte   Fs1
 .byte   W12
 .byte   Cn1
 .byte   W12
 .byte   Fs1
 .byte   W12
 .byte   Cn1
 .byte   W12
 .byte   Fs1
 .byte   W12
 .byte   PEND 
@  #09 @017   ----------------------------------------
 .byte   PATT
  .word Label_01EF8C2F
@  #09 @018   ----------------------------------------
 .byte   PATT
  .word Label_01EF8C2F
@  #09 @019   ----------------------------------------
 .byte   PATT
  .word Label_01EF8C2F
@  #09 @020   ----------------------------------------
 .byte   PATT
  .word Label_01EF8BE5
@  #09 @021   ----------------------------------------
 .byte   PATT
  .word Label_01EF8BE5
@  #09 @022   ----------------------------------------
 .byte   PATT
  .word Label_01EF8BE5
@  #09 @023   ----------------------------------------
 .byte   PATT
  .word Label_01EF8BE5
@  #09 @024   ----------------------------------------
 .byte   PATT
  .word Label_01EF8BE5
@  #09 @025   ----------------------------------------
 .byte   PATT
  .word Label_01EF8BE5
@  #09 @026   ----------------------------------------
 .byte   PATT
  .word Label_01EF8BE5
@  #09 @027   ----------------------------------------
 .byte   PATT
  .word Label_01EF8BE5
@  #09 @028   ----------------------------------------
Label_01EF8C79:
 .byte   N12 ,Cn1 ,v064
 .byte   W12
 .byte   Fs1
 .byte   W12
 .byte   Ds1
 .byte   W12
 .byte   Fs1
 .byte   W12
 .byte   Cn1
 .byte   W12
 .byte   Fs1
 .byte   W12
 .byte   Ds1
 .byte   W12
 .byte   Fs1
 .byte   W12
 .byte   PEND 
@  #09 @029   ----------------------------------------
 .byte   PATT
  .word Label_01EF8C79
@  #09 @030   ----------------------------------------
 .byte   PATT
  .word Label_01EF8C79
@  #09 @031   ----------------------------------------
Label_01EF8C96:
 .byte   N12 ,Cn1 ,v064
 .byte   W12
 .byte   Fs1
 .byte   W12
 .byte   Ds1
 .byte   W12
 .byte   Fs1
 .byte   W12
 .byte   Cn1
 .byte   W12
 .byte   Fs1
 .byte   W12
 .byte   Cn1
 .byte   W12
 .byte   Fs1
 .byte   W12
 .byte   PEND 
@  #09 @032   ----------------------------------------
 .byte   PATT
  .word Label_01EF8C79
@  #09 @033   ----------------------------------------
 .byte   PATT
  .word Label_01EF8C79
@  #09 @034   ----------------------------------------
 .byte   PATT
  .word Label_01EF8C79
@  #09 @035   ----------------------------------------
 .byte   PATT
  .word Label_01EF8C96
@  #09 @036   ----------------------------------------
Label_01EF8CBD:
 .byte   N24 ,Cn1 ,v100
 .byte   W36
 .byte   N12
 .byte   W12
 .byte   Dn1
 .byte   W36
 .byte   Cn1
 .byte   W12
 .byte   PEND 
@  #09 @037   ----------------------------------------
 .byte   PATT
  .word Label_01EF8CBD
@  #09 @038   ----------------------------------------
 .byte   PATT
  .word Label_01EF8CBD
@  #09 @039   ----------------------------------------
 .byte   PATT
  .word Label_01EF8CBD
@  #09 @040   ----------------------------------------
 .byte   PATT
  .word Label_01EF8CBD
@  #09 @041   ----------------------------------------
 .byte   PATT
  .word Label_01EF8CBD
@  #09 @042   ----------------------------------------
 .byte   PATT
  .word Label_01EF8CBD
@  #09 @043   ----------------------------------------
 .byte   PATT
  .word Label_01EF8CBD
@  #09 @044   ----------------------------------------
 .byte   W96
@  #09 @045   ----------------------------------------
 .byte   W96
@  #09 @046   ----------------------------------------
 .byte   W96
@  #09 @047   ----------------------------------------
 .byte   W96
@  #09 @048   ----------------------------------------
 .byte   PATT
  .word Label_01EF8BE5
@  #09 @049   ----------------------------------------
 .byte   PATT
  .word Label_01EF8BE5
@  #09 @050   ----------------------------------------
 .byte   PATT
  .word Label_01EF8BE5
@  #09 @051   ----------------------------------------
 .byte   PATT
  .word Label_01EF8BE5
@  #09 @052   ----------------------------------------
 .byte   PATT
  .word Label_01EF8BE5
@  #09 @053   ----------------------------------------
 .byte   PATT
  .word Label_01EF8BE5
@  #09 @054   ----------------------------------------
 .byte   PATT
  .word Label_01EF8BE5
@  #09 @055   ----------------------------------------
 .byte   PATT
  .word Label_01EF8BE5
@  #09 @056   ----------------------------------------
 .byte   PATT
  .word Label_01EF8BC3
@  #09 @057   ----------------------------------------
 .byte   PATT
  .word Label_01EF8BC3
@  #09 @058   ----------------------------------------
 .byte   PATT
  .word Label_01EF8BC3
@  #09 @059   ----------------------------------------
 .byte   PATT
  .word Label_01EF8BDA
@  #09 @060   ----------------------------------------
Label_01EF8D2B:
 .byte   N18 ,Cn1 ,v100
 .byte   N18 ,An1
 .byte   W18
 .byte   N06 ,Cn1
 .byte   N18 ,An1
 .byte   W06
 .byte   N12 ,Dn1
 .byte   N12 ,Ds1
 .byte   W12
 .byte   N24 ,Cn1
 .byte   N18 ,An1
 .byte   W24
 .byte   N12 ,Cn1
 .byte   N18 ,An1
 .byte   W12
 .byte   N12 ,Dn1
 .byte   N12 ,Ds1
 .byte   W12
 .byte   Cn1
 .byte   N12 ,An1
 .byte   W12
 .byte   PEND 
@  #09 @061   ----------------------------------------
 .byte   PATT
  .word Label_01EF8D2B
@  #09 @062   ----------------------------------------
 .byte   PATT
  .word Label_01EF8D2B
@  #09 @063   ----------------------------------------
 .byte   PATT
  .word Label_01EF8D2B
@  #09 @064   ----------------------------------------
 .byte   PATT
  .word Label_01EF8D2B
@  #09 @065   ----------------------------------------
 .byte   PATT
  .word Label_01EF8D2B
@  #09 @066   ----------------------------------------
 .byte   PATT
  .word Label_01EF8D2B
@  #09 @067   ----------------------------------------
 .byte   PATT
  .word Label_01EF8D2B
@  #09 @068   ----------------------------------------
 .byte   PATT
  .word Label_01EF8D2B
@  #09 @069   ----------------------------------------
 .byte   PATT
  .word Label_01EF8D2B
@  #09 @070   ----------------------------------------
 .byte   PATT
  .word Label_01EF8D2B
@  #09 @071   ----------------------------------------
 .byte   PATT
  .word Label_01EF8D2B
@  #09 @072   ----------------------------------------
 .byte   PATT
  .word Label_01EF8D2B
@  #09 @073   ----------------------------------------
 .byte   PATT
  .word Label_01EF8D2B
@  #09 @074   ----------------------------------------
 .byte   PATT
  .word Label_01EF8D2B
@  #09 @075   ----------------------------------------
 .byte   PATT
  .word Label_01EF8D2B
@  #09 @076   ----------------------------------------
 .byte   W96
@  #09 @077   ----------------------------------------
 .byte   W96
@  #09 @078   ----------------------------------------
 .byte   W96
@  #09 @079   ----------------------------------------
 .byte   W96
@  #09 @080   ----------------------------------------
 .byte   W96
@  #09 @081   ----------------------------------------
 .byte   W96
@  #09 @082   ----------------------------------------
 .byte   W96
@  #09 @083   ----------------------------------------
 .byte   W96
@  #09 @084   ----------------------------------------
 .byte   W96
@  #09 @085   ----------------------------------------
 .byte   W96
@  #09 @086   ----------------------------------------
 .byte   W96
@  #09 @087   ----------------------------------------
 .byte   W96
@  #09 @088   ----------------------------------------
 .byte   W96
@  #09 @089   ----------------------------------------
 .byte   W96
@  #09 @090   ----------------------------------------
 .byte   W96
@  #09 @091   ----------------------------------------
 .byte   W96
@  #09 @092   ----------------------------------------
Label_01EF8DAA:
 .byte   N12 ,Cn1 ,v100
 .byte   W12
 .byte   Fs1
 .byte   W12
 .byte   Cs1
 .byte   N12 ,Dn1
 .byte   W12
 .byte   Fs1
 .byte   W12
 .byte   Cn1
 .byte   W12
 .byte   Fs1
 .byte   W12
 .byte   Cs1
 .byte   N12 ,Dn1
 .byte   W12
 .byte   Fs1
 .byte   W12
 .byte   PEND 
@  #09 @093   ----------------------------------------
 .byte   PATT
  .word Label_01EF8DAA
@  #09 @094   ----------------------------------------
 .byte   PATT
  .word Label_01EF8DAA
@  #09 @095   ----------------------------------------
 .byte   PATT
  .word Label_01EF8DAA
@  #09 @096   ----------------------------------------
 .byte   PATT
  .word Label_01EF8DAA
@  #09 @097   ----------------------------------------
 .byte   PATT
  .word Label_01EF8DAA
@  #09 @098   ----------------------------------------
 .byte   PATT
  .word Label_01EF8DAA
@  #09 @099   ----------------------------------------
 .byte   PATT
  .word Label_01EF8DAA
@  #09 @100   ----------------------------------------
 .byte   W96
@  #09 @101   ----------------------------------------
 .byte   W96
@  #09 @102   ----------------------------------------
 .byte   W96
@  #09 @103   ----------------------------------------
 .byte   W96
@  #09 @104   ----------------------------------------
 .byte   W96
@  #09 @105   ----------------------------------------
 .byte   W96
@  #09 @106   ----------------------------------------
 .byte   W96
@  #09 @107   ----------------------------------------
 .byte   W96
@  #09 @108   ----------------------------------------
 .byte   W96
@  #09 @109   ----------------------------------------
 .byte   W96
@  #09 @110   ----------------------------------------
 .byte   W96
@  #09 @111   ----------------------------------------
 .byte   W96
@  #09 @112   ----------------------------------------
 .byte   W96
@  #09 @113   ----------------------------------------
 .byte   W96
@  #09 @114   ----------------------------------------
 .byte   W96
@  #09 @115   ----------------------------------------
 .byte   W96
@  #09 @116   ----------------------------------------
 .byte   W96
@  #09 @117   ----------------------------------------
 .byte   W96
@  #09 @118   ----------------------------------------
 .byte   W96
@  #09 @119   ----------------------------------------
 .byte   W96
@  #09 @120   ----------------------------------------
 .byte   W96
@  #09 @121   ----------------------------------------
 .byte   W96
@  #09 @122   ----------------------------------------
 .byte   W96
@  #09 @123   ----------------------------------------
 .byte   W96
@  #09 @124   ----------------------------------------
 .byte   GOTO
  .word Label_01EF8BAC
 .byte   FINE

@******************************************************@
	.align	2

ModernDayOuroboros:
	.byte	9	@ NumTrks
	.byte	0	@ NumBlks
	.byte	ModernDayOuroboros_pri	@ Priority
	.byte	ModernDayOuroboros_rev	@ Reverb.
    
	.word	ModernDayOuroboros_grp
    
	.word	ModernDayOuroboros_001
	.word	ModernDayOuroboros_002
	.word	ModernDayOuroboros_003
	.word	ModernDayOuroboros_004
	.word	ModernDayOuroboros_005
	.word	ModernDayOuroboros_006
	.word	ModernDayOuroboros_007
	.word	ModernDayOuroboros_008
	.word	ModernDayOuroboros_009

	.end
