	.include "MPlayDef.s"

	.equ	NormalBattle_grp, voicegroup000
	.equ	NormalBattle_pri, 0
	.equ	NormalBattle_rev, 101
	.equ	NormalBattle_mvl, 127
	.equ	NormalBattle_key, 0
	.equ	NormalBattle_tbs, 1
	.equ	NormalBattle_exg, 0
	.equ	NormalBattle_cmp, 1

	.section .rodata
	.global	NormalBattle
	.align	2


@**************** Track 1 (Midi-Chn.0) ****************@

NormalBattle_001:
@  #01 @000   ----------------------------------------
 .byte   VOL , 48*NormalBattle_mvl/mxv
 .byte   KEYSH , NormalBattle_key+0
Label_01727768:
 .byte   TEMPO , 160*NormalBattle_tbs/2
 .byte   VOICE , 100
 .byte   N12 ,Dn3 ,v100
 .byte   W12
 .byte   En3
 .byte   W12
 .byte   N12
 .byte   W12
 .byte   Dn3
 .byte   W12
 .byte   En3
 .byte   W12
 .byte   N12
 .byte   W12
 .byte   Dn3
 .byte   W12
 .byte   En3
 .byte   W12
@  #01 @001   ----------------------------------------
Label_0172777E:
 .byte   N12 ,En3 ,v100
 .byte   W12
 .byte   Dn3
 .byte   W12
 .byte   En3
 .byte   W12
 .byte   N12
 .byte   W12
 .byte   Dn3
 .byte   W12
 .byte   En3
 .byte   W12
 .byte   Gn3
 .byte   W12
 .byte   An3
 .byte   W12
 .byte   PEND 
@  #01 @002   ----------------------------------------
Label_01727791:
 .byte   N12 ,Dn3 ,v100
 .byte   W12
 .byte   En3
 .byte   W12
 .byte   N12
 .byte   W12
 .byte   Dn3
 .byte   W12
 .byte   En3
 .byte   W12
 .byte   N12
 .byte   W12
 .byte   Dn3
 .byte   W12
 .byte   En3
 .byte   W12
 .byte   PEND 
@  #01 @003   ----------------------------------------
Label_017277A4:
 .byte   N12 ,En3 ,v100
 .byte   W12
 .byte   Dn3
 .byte   W12
 .byte   Gn3
 .byte   W12
 .byte   Bn3
 .byte   W12
 .byte   Gn3
 .byte   W12
 .byte   En3
 .byte   W12
 .byte   Dn3
 .byte   W12
 .byte   Bn2
 .byte   W12
 .byte   PEND 
@  #01 @004   ----------------------------------------
 .byte   PATT
  .word Label_01727791
@  #01 @005   ----------------------------------------
 .byte   PATT
  .word Label_0172777E
@  #01 @006   ----------------------------------------
 .byte   PATT
  .word Label_01727791
@  #01 @007   ----------------------------------------
 .byte   PATT
  .word Label_017277A4
@  #01 @008   ----------------------------------------
 .byte   PATT
  .word Label_01727791
@  #01 @009   ----------------------------------------
 .byte   PATT
  .word Label_0172777E
@  #01 @010   ----------------------------------------
 .byte   PATT
  .word Label_01727791
@  #01 @011   ----------------------------------------
 .byte   PATT
  .word Label_017277A4
@  #01 @012   ----------------------------------------
 .byte   PATT
  .word Label_01727791
@  #01 @013   ----------------------------------------
 .byte   PATT
  .word Label_0172777E
@  #01 @014   ----------------------------------------
 .byte   PATT
  .word Label_01727791
@  #01 @015   ----------------------------------------
 .byte   PATT
  .word Label_017277A4
@  #01 @016   ----------------------------------------
 .byte   PATT
  .word Label_01727791
@  #01 @017   ----------------------------------------
 .byte   PATT
  .word Label_0172777E
@  #01 @018   ----------------------------------------
 .byte   PATT
  .word Label_01727791
@  #01 @019   ----------------------------------------
 .byte   PATT
  .word Label_017277A4
@  #01 @020   ----------------------------------------
 .byte   PATT
  .word Label_01727791
@  #01 @021   ----------------------------------------
 .byte   PATT
  .word Label_0172777E
@  #01 @022   ----------------------------------------
 .byte   PATT
  .word Label_01727791
@  #01 @023   ----------------------------------------
 .byte   PATT
  .word Label_017277A4
@  #01 @024   ----------------------------------------
 .byte   PATT
  .word Label_01727791
@  #01 @025   ----------------------------------------
 .byte   PATT
  .word Label_0172777E
@  #01 @026   ----------------------------------------
 .byte   PATT
  .word Label_01727791
@  #01 @027   ----------------------------------------
 .byte   PATT
  .word Label_017277A4
@  #01 @028   ----------------------------------------
 .byte   PATT
  .word Label_01727791
@  #01 @029   ----------------------------------------
 .byte   PATT
  .word Label_0172777E
@  #01 @030   ----------------------------------------
 .byte   PATT
  .word Label_01727791
@  #01 @031   ----------------------------------------
 .byte   PATT
  .word Label_017277A4
@  #01 @032   ----------------------------------------
Label_01727843:
 .byte   N06 ,En3 ,v100
 .byte   W06
 .byte   Dn3
 .byte   W06
 .byte   N12 ,Bn2
 .byte   W12
 .byte   N12
 .byte   W12
 .byte   N06 ,En3
 .byte   W06
 .byte   Dn3
 .byte   W06
 .byte   N12 ,Bn2
 .byte   W12
 .byte   N12
 .byte   W12
 .byte   N06 ,En3
 .byte   W06
 .byte   Dn3
 .byte   W06
 .byte   N12 ,Bn2
 .byte   W12
 .byte   PEND 
@  #01 @033   ----------------------------------------
Label_01727861:
 .byte   N12 ,Bn2 ,v100
 .byte   W12
 .byte   N06 ,En3
 .byte   W06
 .byte   Dn3
 .byte   W06
 .byte   N12 ,Bn2
 .byte   W12
 .byte   N12
 .byte   W12
 .byte   N06 ,En3
 .byte   W06
 .byte   Dn3
 .byte   W06
 .byte   N12 ,Bn2
 .byte   W12
 .byte   N12
 .byte   W12
 .byte   N06 ,En3
 .byte   W06
 .byte   Dn3
 .byte   W06
 .byte   PEND 
@  #01 @034   ----------------------------------------
Label_0172787F:
 .byte   N12 ,Bn2 ,v100
 .byte   W12
 .byte   N12
 .byte   W12
 .byte   N06 ,En3
 .byte   W06
 .byte   Dn3
 .byte   W06
 .byte   N12 ,Bn2
 .byte   W12
 .byte   N12
 .byte   W12
 .byte   N06 ,En3
 .byte   W06
 .byte   Dn3
 .byte   W06
 .byte   N12 ,Bn2
 .byte   W12
 .byte   N12
 .byte   W12
 .byte   PEND 
@  #01 @035   ----------------------------------------
 .byte   PATT
  .word Label_01727843
@  #01 @036   ----------------------------------------
 .byte   PATT
  .word Label_01727861
@  #01 @037   ----------------------------------------
 .byte   PATT
  .word Label_0172787F
@  #01 @038   ----------------------------------------
 .byte   PATT
  .word Label_01727843
@  #01 @039   ----------------------------------------
 .byte   PATT
  .word Label_01727861
@  #01 @040   ----------------------------------------
 .byte   PATT
  .word Label_0172787F
@  #01 @041   ----------------------------------------
 .byte   PATT
  .word Label_01727843
@  #01 @042   ----------------------------------------
 .byte   PATT
  .word Label_01727861
@  #01 @043   ----------------------------------------
 .byte   PATT
  .word Label_0172787F
@  #01 @044   ----------------------------------------
 .byte   PATT
  .word Label_01727843
@  #01 @045   ----------------------------------------
 .byte   PATT
  .word Label_01727791
@  #01 @046   ----------------------------------------
 .byte   PATT
  .word Label_0172777E
@  #01 @047   ----------------------------------------
 .byte   PATT
  .word Label_01727791
@  #01 @048   ----------------------------------------
 .byte   PATT
  .word Label_017277A4
@  #01 @049   ----------------------------------------
 .byte   PATT
  .word Label_01727791
@  #01 @050   ----------------------------------------
 .byte   PATT
  .word Label_0172777E
@  #01 @051   ----------------------------------------
 .byte   PATT
  .word Label_01727791
@  #01 @052   ----------------------------------------
 .byte   PATT
  .word Label_017277A4
@  #01 @053   ----------------------------------------
 .byte   PATT
  .word Label_01727791
@  #01 @054   ----------------------------------------
 .byte   PATT
  .word Label_0172777E
@  #01 @055   ----------------------------------------
 .byte   PATT
  .word Label_01727791
@  #01 @056   ----------------------------------------
 .byte   PATT
  .word Label_017277A4
@  #01 @057   ----------------------------------------
 .byte   PATT
  .word Label_01727791
@  #01 @058   ----------------------------------------
 .byte   PATT
  .word Label_0172777E
@  #01 @059   ----------------------------------------
 .byte   PATT
  .word Label_01727791
@  #01 @060   ----------------------------------------
 .byte   PATT
  .word Label_017277A4
@  #01 @061   ----------------------------------------
 .byte   GOTO
  .word Label_01727768
 .byte   FINE

@**************** Track 2 (Midi-Chn.1) ****************@

NormalBattle_002:
@  #02 @000   ----------------------------------------
 .byte   VOL , 48*NormalBattle_mvl/mxv
 .byte   KEYSH , NormalBattle_key+0
Label_017285D8:
 .byte   VOICE , 48
 .byte   W96
@  #02 @001   ----------------------------------------
 .byte   W96
@  #02 @002   ----------------------------------------
 .byte   W96
@  #02 @003   ----------------------------------------
 .byte   W96
@  #02 @004   ----------------------------------------
 .byte   W96
@  #02 @005   ----------------------------------------
 .byte   W96
@  #02 @006   ----------------------------------------
 .byte   W96
@  #02 @007   ----------------------------------------
Label_017285E1:
 .byte   N48 ,Gn2 ,v100
 .byte   N48 ,Cn3
 .byte   W48
 .byte   An2
 .byte   N48 ,Dn3
 .byte   W48
 .byte   PEND 
@  #02 @008   ----------------------------------------
 .byte   W96
@  #02 @009   ----------------------------------------
 .byte   W96
@  #02 @010   ----------------------------------------
 .byte   W96
@  #02 @011   ----------------------------------------
 .byte   W96
@  #02 @012   ----------------------------------------
 .byte   W96
@  #02 @013   ----------------------------------------
 .byte   W96
@  #02 @014   ----------------------------------------
 .byte   W96
@  #02 @015   ----------------------------------------
 .byte   PATT
  .word Label_017285E1
@  #02 @016   ----------------------------------------
 .byte   W96
@  #02 @017   ----------------------------------------
 .byte   W96
@  #02 @018   ----------------------------------------
 .byte   W96
@  #02 @019   ----------------------------------------
 .byte   W96
@  #02 @020   ----------------------------------------
 .byte   W96
@  #02 @021   ----------------------------------------
 .byte   W96
@  #02 @022   ----------------------------------------
 .byte   W96
@  #02 @023   ----------------------------------------
 .byte   PATT
  .word Label_017285E1
@  #02 @024   ----------------------------------------
 .byte   W48
 .byte   N48 ,En2 ,v100
 .byte   W48
@  #02 @025   ----------------------------------------
 .byte   W96
@  #02 @026   ----------------------------------------
 .byte   W48
 .byte   N24 ,Gn2
 .byte   W24
 .byte   Bn2
 .byte   W24
@  #02 @027   ----------------------------------------
 .byte   N48 ,An2
 .byte   W96
@  #02 @028   ----------------------------------------
 .byte   W48
 .byte   En2
 .byte   W48
@  #02 @029   ----------------------------------------
 .byte   W96
@  #02 @030   ----------------------------------------
 .byte   W48
 .byte   N18 ,Gn2
 .byte   W18
 .byte   An2
 .byte   W18
 .byte   N12 ,Bn2
 .byte   W12
@  #02 @031   ----------------------------------------
 .byte   N48 ,Gn2
 .byte   N48 ,Bn2
 .byte   N48 ,En3
 .byte   W48
 .byte   Bn2
 .byte   N48 ,Dn3
 .byte   N48 ,Gn3
 .byte   W48
@  #02 @032   ----------------------------------------
Label_0172862D:
 .byte   N72 ,Bn2 ,v100
 .byte   N72 ,En3
 .byte   W72
 .byte   Dn3
 .byte   N72 ,Gn3
 .byte   W24
 .byte   PEND 
@  #02 @033   ----------------------------------------
 .byte   W48
 .byte   En3
 .byte   N72 ,An3
 .byte   W48
@  #02 @034   ----------------------------------------
 .byte   W24
 .byte   N48 ,Gn3
 .byte   N48 ,Cn4
 .byte   W48
 .byte   N24 ,Gn3
 .byte   N24 ,Bn3
 .byte   W24
@  #02 @035   ----------------------------------------
 .byte   PATT
  .word Label_0172862D
@  #02 @036   ----------------------------------------
 .byte   W48
 .byte   N72 ,En3 ,v100
 .byte   N72 ,An3
 .byte   W48
@  #02 @037   ----------------------------------------
 .byte   W24
 .byte   N48 ,Gn3
 .byte   N48 ,Cn4
 .byte   W48
 .byte   N24 ,An3
 .byte   N24 ,Dn4
 .byte   W24
@  #02 @038   ----------------------------------------
 .byte   PATT
  .word Label_0172862D
@  #02 @039   ----------------------------------------
 .byte   W48
 .byte   N72 ,En3 ,v100
 .byte   N72 ,An3
 .byte   W48
@  #02 @040   ----------------------------------------
 .byte   W24
 .byte   N48 ,Gn3
 .byte   N48 ,Cn4
 .byte   W48
 .byte   N24 ,Bn3
 .byte   W24
@  #02 @041   ----------------------------------------
 .byte   PATT
  .word Label_0172862D
@  #02 @042   ----------------------------------------
 .byte   W48
 .byte   N72 ,En3 ,v100
 .byte   N72 ,An3
 .byte   W48
@  #02 @043   ----------------------------------------
 .byte   W24
 .byte   Gn3
 .byte   N72 ,Cn4
 .byte   W72
@  #02 @044   ----------------------------------------
 .byte   N96 ,An3
 .byte   N96 ,Dn4
 .byte   W96
@  #02 @045   ----------------------------------------
 .byte   W96
@  #02 @046   ----------------------------------------
 .byte   W96
@  #02 @047   ----------------------------------------
 .byte   W96
@  #02 @048   ----------------------------------------
 .byte   W96
@  #02 @049   ----------------------------------------
 .byte   W96
@  #02 @050   ----------------------------------------
 .byte   W96
@  #02 @051   ----------------------------------------
 .byte   W96
@  #02 @052   ----------------------------------------
 .byte   W96
@  #02 @053   ----------------------------------------
 .byte   W96
@  #02 @054   ----------------------------------------
 .byte   W96
@  #02 @055   ----------------------------------------
 .byte   W96
@  #02 @056   ----------------------------------------
 .byte   W96
@  #02 @057   ----------------------------------------
 .byte   W96
@  #02 @058   ----------------------------------------
 .byte   W96
@  #02 @059   ----------------------------------------
 .byte   W96
@  #02 @060   ----------------------------------------
 .byte   W96
@  #02 @061   ----------------------------------------
 .byte   GOTO
  .word Label_017285D8
 .byte   FINE

@**************** Track 3 (Midi-Chn.2) ****************@

NormalBattle_003:
@  #03 @000   ----------------------------------------
 .byte   VOL , 48*NormalBattle_mvl/mxv
 .byte   KEYSH , NormalBattle_key+0
Label_017275E8:
 .byte   VOICE , 51
 .byte   W96
@  #03 @001   ----------------------------------------
 .byte   W96
@  #03 @002   ----------------------------------------
 .byte   W96
@  #03 @003   ----------------------------------------
 .byte   W96
@  #03 @004   ----------------------------------------
 .byte   W96
@  #03 @005   ----------------------------------------
 .byte   W96
@  #03 @006   ----------------------------------------
 .byte   W96
@  #03 @007   ----------------------------------------
 .byte   W48
 .byte   N06 ,Fs3 ,v100
 .byte   W06
 .byte   Dn3
 .byte   W06
 .byte   An3
 .byte   W06
 .byte   Fs3
 .byte   W06
 .byte   Dn3
 .byte   W06
 .byte   An2
 .byte   W06
 .byte   Fs3
 .byte   W06
 .byte   Dn3
 .byte   W06
@  #03 @008   ----------------------------------------
 .byte   TIE ,En3
 .byte   W96
@  #03 @009   ----------------------------------------
 .byte   W48
 .byte   EOT
 .byte   N24 ,Gn3
 .byte   W24
 .byte   Bn3
 .byte   W24
@  #03 @010   ----------------------------------------
 .byte   TIE ,An3
 .byte   W96
@  #03 @011   ----------------------------------------
 .byte   W48
 .byte   EOT
 .byte   N44 ,Dn3
 .byte   W44
 .byte   W01
 .byte   N03 ,Ds3
 .byte   W03
@  #03 @012   ----------------------------------------
 .byte   TIE ,En3
 .byte   W96
@  #03 @013   ----------------------------------------
 .byte   W48
 .byte   EOT
 .byte   N18 ,Gn3
 .byte   W18
 .byte   An3
 .byte   W18
 .byte   N12 ,Bn3
 .byte   W12
@  #03 @014   ----------------------------------------
Label_01727627:
 .byte   N36 ,En4 ,v100
 .byte   W36
 .byte   N06 ,An3
 .byte   W06
 .byte   Bn3
 .byte   W06
 .byte   N48 ,An3
 .byte   W48
 .byte   PEND 
@  #03 @015   ----------------------------------------
 .byte   N18 ,Cn4
 .byte   W18
 .byte   N18
 .byte   W18
 .byte   N12
 .byte   W12
 .byte   N18
 .byte   W18
 .byte   Bn3
 .byte   W18
 .byte   N12 ,An3
 .byte   W12
@  #03 @016   ----------------------------------------
 .byte   En3
 .byte   W96
@  #03 @017   ----------------------------------------
 .byte   W96
@  #03 @018   ----------------------------------------
 .byte   W96
@  #03 @019   ----------------------------------------
 .byte   W96
@  #03 @020   ----------------------------------------
 .byte   W96
@  #03 @021   ----------------------------------------
 .byte   W96
@  #03 @022   ----------------------------------------
 .byte   W96
@  #03 @023   ----------------------------------------
 .byte   W96
@  #03 @024   ----------------------------------------
 .byte   TIE
 .byte   W96
@  #03 @025   ----------------------------------------
 .byte   W48
 .byte   EOT
 .byte   N24 ,Gn3
 .byte   W24
 .byte   Bn3
 .byte   W24
@  #03 @026   ----------------------------------------
 .byte   TIE ,An3
 .byte   W96
@  #03 @027   ----------------------------------------
 .byte   W48
 .byte   EOT
 .byte   N44 ,Dn3
 .byte   W44
 .byte   W01
 .byte   N03 ,Ds3
 .byte   W03
@  #03 @028   ----------------------------------------
 .byte   TIE ,En3
 .byte   W96
@  #03 @029   ----------------------------------------
 .byte   W48
 .byte   EOT
 .byte   N18 ,Gn3
 .byte   W18
 .byte   An3
 .byte   W18
 .byte   N12 ,Bn3
 .byte   W12
@  #03 @030   ----------------------------------------
 .byte   PATT
  .word Label_01727627
@  #03 @031   ----------------------------------------
 .byte   W96
@  #03 @032   ----------------------------------------
 .byte   W96
@  #03 @033   ----------------------------------------
 .byte   W96
@  #03 @034   ----------------------------------------
 .byte   W96
@  #03 @035   ----------------------------------------
 .byte   W96
@  #03 @036   ----------------------------------------
 .byte   W96
@  #03 @037   ----------------------------------------
 .byte   W96
@  #03 @038   ----------------------------------------
 .byte   W96
@  #03 @039   ----------------------------------------
 .byte   W96
@  #03 @040   ----------------------------------------
 .byte   W96
@  #03 @041   ----------------------------------------
 .byte   W96
@  #03 @042   ----------------------------------------
 .byte   W96
@  #03 @043   ----------------------------------------
 .byte   W96
@  #03 @044   ----------------------------------------
 .byte   W96
@  #03 @045   ----------------------------------------
 .byte   N96 ,En4 ,v100
 .byte   W96
@  #03 @046   ----------------------------------------
 .byte   N36 ,Dn4
 .byte   W36
 .byte   Gn3
 .byte   W36
 .byte   N24 ,An3
 .byte   W24
@  #03 @047   ----------------------------------------
 .byte   N06 ,Bn3
 .byte   W06
 .byte   Dn4
 .byte   W06
 .byte   TIE ,Bn3
 .byte   W84
@  #03 @048   ----------------------------------------
 .byte   W48
 .byte   EOT
 .byte   N24 ,En3
 .byte   W24
 .byte   Gn3
 .byte   W24
@  #03 @049   ----------------------------------------
 .byte   N48 ,Bn3
 .byte   W48
 .byte   N24 ,An3
 .byte   W24
 .byte   Gn3
 .byte   W24
@  #03 @050   ----------------------------------------
 .byte   N48 ,An3
 .byte   W48
 .byte   N36 ,Dn4
 .byte   W36
 .byte   N06 ,Bn3
 .byte   W06
 .byte   Dn4
 .byte   W06
@  #03 @051   ----------------------------------------
 .byte   N96 ,Bn3
 .byte   W96
@  #03 @052   ----------------------------------------
 .byte   An3
 .byte   W96
@  #03 @053   ----------------------------------------
 .byte   En4
 .byte   W96
@  #03 @054   ----------------------------------------
 .byte   N36 ,Dn4
 .byte   W36
 .byte   Bn3
 .byte   W36
 .byte   N24 ,Dn4
 .byte   W24
@  #03 @055   ----------------------------------------
 .byte   N48 ,An3
 .byte   W48
 .byte   Bn3
 .byte   W48
@  #03 @056   ----------------------------------------
 .byte   Gn3
 .byte   W48
 .byte   An3
 .byte   W48
@  #03 @057   ----------------------------------------
 .byte   TIE ,En3
 .byte   W96
@  #03 @058   ----------------------------------------
 .byte   W48
 .byte   EOT
 .byte   N44 ,Dn3
 .byte   W44
 .byte   W01
 .byte   N03 ,Ds3
 .byte   W03
@  #03 @059   ----------------------------------------
 .byte   TIE ,En3
 .byte   W96
@  #03 @060   ----------------------------------------
 .byte   W96
@  #03 @061   ----------------------------------------
 .byte   EOT
 .byte   GOTO
  .word Label_017275E8
 .byte   FINE

@**************** Track 4 (Midi-Chn.3) ****************@

NormalBattle_004:
@  #04 @000   ----------------------------------------
 .byte   VOL , 33*NormalBattle_mvl/mxv
 .byte   KEYSH , NormalBattle_key+0
Label_01726AA8:
 .byte   VOICE , 80
 .byte   W96
@  #04 @001   ----------------------------------------
 .byte   W96
@  #04 @002   ----------------------------------------
 .byte   W96
@  #04 @003   ----------------------------------------
 .byte   W96
@  #04 @004   ----------------------------------------
 .byte   W96
@  #04 @005   ----------------------------------------
 .byte   W96
@  #04 @006   ----------------------------------------
 .byte   W96
@  #04 @007   ----------------------------------------
 .byte   W96
@  #04 @008   ----------------------------------------
 .byte   W96
@  #04 @009   ----------------------------------------
 .byte   W96
@  #04 @010   ----------------------------------------
 .byte   W96
@  #04 @011   ----------------------------------------
 .byte   W96
@  #04 @012   ----------------------------------------
 .byte   W96
@  #04 @013   ----------------------------------------
 .byte   W96
@  #04 @014   ----------------------------------------
 .byte   W96
@  #04 @015   ----------------------------------------
 .byte   W96
@  #04 @016   ----------------------------------------
Label_01726ABA:
 .byte   N06 ,Gn2 ,v100
 .byte   W06
 .byte   An2
 .byte   W06
 .byte   Bn2
 .byte   W06
 .byte   Dn3
 .byte   W06
 .byte   En3
 .byte   W06
 .byte   Gn3
 .byte   W06
 .byte   An3
 .byte   W06
 .byte   Bn3
 .byte   W06
 .byte   Dn4
 .byte   W06
 .byte   En4
 .byte   W06
 .byte   Gn4
 .byte   W06
 .byte   An4
 .byte   W06
 .byte   Bn4
 .byte   W06
 .byte   Dn5
 .byte   W06
 .byte   En5
 .byte   W06
 .byte   Dn5
 .byte   W06
 .byte   PEND 
@  #04 @017   ----------------------------------------
Label_01726ADD:
 .byte   N06 ,Bn4 ,v100
 .byte   W06
 .byte   An4
 .byte   W06
 .byte   Gn4
 .byte   W06
 .byte   En4
 .byte   W06
 .byte   Dn4
 .byte   W06
 .byte   Bn3
 .byte   W06
 .byte   An3
 .byte   W06
 .byte   Gn3
 .byte   W06
 .byte   En3
 .byte   W06
 .byte   Dn3
 .byte   W06
 .byte   Bn2
 .byte   W06
 .byte   An2
 .byte   W06
 .byte   Gn2
 .byte   W06
 .byte   An2
 .byte   W06
 .byte   Bn2
 .byte   W06
 .byte   Dn3
 .byte   W06
 .byte   PEND 
@  #04 @018   ----------------------------------------
 .byte   PATT
  .word Label_01726ABA
@  #04 @019   ----------------------------------------
 .byte   PATT
  .word Label_01726ADD
@  #04 @020   ----------------------------------------
 .byte   PATT
  .word Label_01726ABA
@  #04 @021   ----------------------------------------
 .byte   PATT
  .word Label_01726ADD
@  #04 @022   ----------------------------------------
 .byte   PATT
  .word Label_01726ABA
@  #04 @023   ----------------------------------------
 .byte   PATT
  .word Label_01726ADD
@  #04 @024   ----------------------------------------
Label_01726B1E:
 .byte   N24 ,En3 ,v100
 .byte   W24
 .byte   N12 ,En2
 .byte   W12
 .byte   N24 ,En3
 .byte   W24
 .byte   N12 ,En2
 .byte   W12
 .byte   N24 ,En3
 .byte   W24
 .byte   PEND 
@  #04 @025   ----------------------------------------
Label_01726B2F:
 .byte   N12 ,En2 ,v100
 .byte   W12
 .byte   N24 ,En3
 .byte   W24
 .byte   N12 ,En2
 .byte   W12
 .byte   N24 ,En3
 .byte   W24
 .byte   N24
 .byte   W24
 .byte   PEND 
@  #04 @026   ----------------------------------------
 .byte   PATT
  .word Label_01726B1E
@  #04 @027   ----------------------------------------
 .byte   PATT
  .word Label_01726B2F
@  #04 @028   ----------------------------------------
 .byte   PATT
  .word Label_01726B1E
@  #04 @029   ----------------------------------------
 .byte   PATT
  .word Label_01726B2F
@  #04 @030   ----------------------------------------
 .byte   PATT
  .word Label_01726B1E
@  #04 @031   ----------------------------------------
 .byte   PATT
  .word Label_01726B2F
@  #04 @032   ----------------------------------------
Label_01726B5D:
 .byte   W42
 .byte   N06 ,En3 ,v100
 .byte   W06
 .byte   Gn3
 .byte   W06
 .byte   An3
 .byte   W06
 .byte   Bn3
 .byte   W06
 .byte   Dn4
 .byte   W30
 .byte   PEND 
@  #04 @033   ----------------------------------------
Label_01726B6B:
 .byte   W18
 .byte   N06 ,En3 ,v100
 .byte   W06
 .byte   Gn3
 .byte   W06
 .byte   An3
 .byte   W06
 .byte   Bn3
 .byte   W06
 .byte   Dn4
 .byte   W48
 .byte   En3
 .byte   W06
 .byte   PEND 
@  #04 @034   ----------------------------------------
Label_01726B7B:
 .byte   N06 ,Gn3 ,v100
 .byte   W06
 .byte   An3
 .byte   W06
 .byte   Bn3
 .byte   W06
 .byte   Dn4
 .byte   W48
 .byte   En3
 .byte   W06
 .byte   Gn3
 .byte   W06
 .byte   An3
 .byte   W06
 .byte   Bn3
 .byte   W06
 .byte   Dn4
 .byte   W06
 .byte   PEND 
@  #04 @035   ----------------------------------------
 .byte   PATT
  .word Label_01726B5D
@  #04 @036   ----------------------------------------
 .byte   PATT
  .word Label_01726B6B
@  #04 @037   ----------------------------------------
 .byte   PATT
  .word Label_01726B7B
@  #04 @038   ----------------------------------------
Label_01726B9F:
 .byte   W36
 .byte   N06 ,En3 ,v100
 .byte   W06
 .byte   Gn3
 .byte   W06
 .byte   An3
 .byte   W06
 .byte   Bn3
 .byte   W06
 .byte   Dn4
 .byte   W36
 .byte   PEND 
@  #04 @039   ----------------------------------------
Label_01726BAD:
 .byte   W12
 .byte   N06 ,En3 ,v100
 .byte   W06
 .byte   Gn3
 .byte   W06
 .byte   An3
 .byte   W06
 .byte   Bn3
 .byte   W06
 .byte   Dn4
 .byte   W48
 .byte   En3
 .byte   W06
 .byte   Gn3
 .byte   W06
 .byte   PEND 
@  #04 @040   ----------------------------------------
Label_01726BBF:
 .byte   N06 ,An3 ,v100
 .byte   W06
 .byte   Bn3
 .byte   W06
 .byte   Dn4
 .byte   W48
 .byte   En3
 .byte   W06
 .byte   Gn3
 .byte   W06
 .byte   An3
 .byte   W06
 .byte   Bn3
 .byte   W06
 .byte   Dn4
 .byte   W12
 .byte   PEND 
@  #04 @041   ----------------------------------------
 .byte   PATT
  .word Label_01726B9F
@  #04 @042   ----------------------------------------
 .byte   PATT
  .word Label_01726BAD
@  #04 @043   ----------------------------------------
 .byte   PATT
  .word Label_01726BBF
@  #04 @044   ----------------------------------------
 .byte   PATT
  .word Label_01726B9F
@  #04 @045   ----------------------------------------
 .byte   W96
@  #04 @046   ----------------------------------------
 .byte   W96
@  #04 @047   ----------------------------------------
 .byte   W96
@  #04 @048   ----------------------------------------
 .byte   W96
@  #04 @049   ----------------------------------------
 .byte   W96
@  #04 @050   ----------------------------------------
 .byte   W96
@  #04 @051   ----------------------------------------
 .byte   W96
@  #04 @052   ----------------------------------------
 .byte   W96
@  #04 @053   ----------------------------------------
 .byte   W96
@  #04 @054   ----------------------------------------
 .byte   W96
@  #04 @055   ----------------------------------------
 .byte   W96
@  #04 @056   ----------------------------------------
 .byte   W96
@  #04 @057   ----------------------------------------
 .byte   W96
@  #04 @058   ----------------------------------------
 .byte   W96
@  #04 @059   ----------------------------------------
 .byte   W96
@  #04 @060   ----------------------------------------
 .byte   W96
@  #04 @061   ----------------------------------------
 .byte   GOTO
  .word Label_01726AA8
 .byte   FINE

@**************** Track 5 (Midi-Chn.4) ****************@

NormalBattle_005:
@  #05 @000   ----------------------------------------
 .byte   VOL , 48*NormalBattle_mvl/mxv
 .byte   KEYSH , NormalBattle_key+0
Label_017271CC:
 .byte   VOICE , 81
 .byte   N12 ,Bn2 ,v100
 .byte   N12 ,En3
 .byte   W24
 .byte   Bn2
 .byte   N12 ,En3
 .byte   W12
 .byte   Bn2
 .byte   N12 ,En3
 .byte   W24
 .byte   Bn2
 .byte   N12 ,En3
 .byte   W24
 .byte   Dn3
 .byte   N12 ,Gn3
 .byte   W12
@  #05 @001   ----------------------------------------
Label_017271E4:
 .byte   W12
 .byte   N12 ,Dn3 ,v100
 .byte   N12 ,Gn3
 .byte   W12
 .byte   Dn3
 .byte   N12 ,Gn3
 .byte   W24
 .byte   Dn3
 .byte   N12 ,Gn3
 .byte   W24
 .byte   Dn3
 .byte   N12 ,Gn3
 .byte   W24
 .byte   PEND 
@  #05 @002   ----------------------------------------
Label_017271F8:
 .byte   N12 ,En3 ,v100
 .byte   N12 ,An3
 .byte   W24
 .byte   En3
 .byte   N12 ,An3
 .byte   W12
 .byte   En3
 .byte   N12 ,An3
 .byte   W24
 .byte   En3
 .byte   N12 ,An3
 .byte   W24
 .byte   Cn3
 .byte   N12 ,En3
 .byte   W12
 .byte   PEND 
@  #05 @003   ----------------------------------------
Label_0172720F:
 .byte   W12
 .byte   N12 ,Cn3 ,v100
 .byte   N12 ,En3
 .byte   W12
 .byte   Cn3
 .byte   N12 ,En3
 .byte   W24
 .byte   Dn3
 .byte   N12 ,Fs3
 .byte   W24
 .byte   Dn3
 .byte   N12 ,Fs3
 .byte   W24
 .byte   PEND 
@  #05 @004   ----------------------------------------
Label_01727223:
 .byte   N12 ,Bn2 ,v100
 .byte   N12 ,En3
 .byte   W24
 .byte   Bn2
 .byte   N12 ,En3
 .byte   W12
 .byte   Bn2
 .byte   N12 ,En3
 .byte   W24
 .byte   Bn2
 .byte   N12 ,En3
 .byte   W24
 .byte   Dn3
 .byte   N12 ,Gn3
 .byte   W12
 .byte   PEND 
@  #05 @005   ----------------------------------------
 .byte   PATT
  .word Label_017271E4
@  #05 @006   ----------------------------------------
 .byte   PATT
  .word Label_017271F8
@  #05 @007   ----------------------------------------
 .byte   PATT
  .word Label_0172720F
@  #05 @008   ----------------------------------------
 .byte   PATT
  .word Label_01727223
@  #05 @009   ----------------------------------------
 .byte   PATT
  .word Label_017271E4
@  #05 @010   ----------------------------------------
 .byte   PATT
  .word Label_017271F8
@  #05 @011   ----------------------------------------
 .byte   PATT
  .word Label_0172720F
@  #05 @012   ----------------------------------------
 .byte   PATT
  .word Label_01727223
@  #05 @013   ----------------------------------------
 .byte   PATT
  .word Label_017271E4
@  #05 @014   ----------------------------------------
 .byte   PATT
  .word Label_017271F8
@  #05 @015   ----------------------------------------
 .byte   PATT
  .word Label_0172720F
@  #05 @016   ----------------------------------------
 .byte   PATT
  .word Label_01727223
@  #05 @017   ----------------------------------------
 .byte   PATT
  .word Label_017271E4
@  #05 @018   ----------------------------------------
 .byte   PATT
  .word Label_017271F8
@  #05 @019   ----------------------------------------
 .byte   PATT
  .word Label_0172720F
@  #05 @020   ----------------------------------------
 .byte   PATT
  .word Label_01727223
@  #05 @021   ----------------------------------------
 .byte   PATT
  .word Label_017271E4
@  #05 @022   ----------------------------------------
 .byte   PATT
  .word Label_017271F8
@  #05 @023   ----------------------------------------
 .byte   PATT
  .word Label_0172720F
@  #05 @024   ----------------------------------------
 .byte   W96
@  #05 @025   ----------------------------------------
 .byte   W96
@  #05 @026   ----------------------------------------
 .byte   W96
@  #05 @027   ----------------------------------------
 .byte   W96
@  #05 @028   ----------------------------------------
 .byte   W96
@  #05 @029   ----------------------------------------
 .byte   W96
@  #05 @030   ----------------------------------------
 .byte   W96
@  #05 @031   ----------------------------------------
 .byte   W96
@  #05 @032   ----------------------------------------
 .byte   W96
@  #05 @033   ----------------------------------------
 .byte   W96
@  #05 @034   ----------------------------------------
 .byte   W96
@  #05 @035   ----------------------------------------
 .byte   W96
@  #05 @036   ----------------------------------------
 .byte   W96
@  #05 @037   ----------------------------------------
 .byte   W96
@  #05 @038   ----------------------------------------
 .byte   W96
@  #05 @039   ----------------------------------------
 .byte   W96
@  #05 @040   ----------------------------------------
 .byte   W96
@  #05 @041   ----------------------------------------
 .byte   W96
@  #05 @042   ----------------------------------------
 .byte   W96
@  #05 @043   ----------------------------------------
 .byte   W96
@  #05 @044   ----------------------------------------
 .byte   W96
@  #05 @045   ----------------------------------------
Label_017272AE:
 .byte   N12 ,Dn3 ,v100
 .byte   N12 ,Gn3
 .byte   W24
 .byte   Dn3
 .byte   N12 ,Gn3
 .byte   W12
 .byte   Dn3
 .byte   N12 ,Gn3
 .byte   W24
 .byte   Dn3
 .byte   N12 ,Gn3
 .byte   W24
 .byte   En3
 .byte   N12 ,An3
 .byte   W12
 .byte   PEND 
@  #05 @046   ----------------------------------------
Label_017272C5:
 .byte   W12
 .byte   N12 ,En3 ,v100
 .byte   N12 ,An3
 .byte   W12
 .byte   En3
 .byte   N12 ,An3
 .byte   W24
 .byte   En3
 .byte   N12 ,An3
 .byte   W24
 .byte   En3
 .byte   N12 ,An3
 .byte   W24
 .byte   PEND 
@  #05 @047   ----------------------------------------
Label_017272D9:
 .byte   N12 ,Dn3 ,v100
 .byte   N12 ,Gn3
 .byte   W24
 .byte   Dn3
 .byte   N12 ,Gn3
 .byte   W12
 .byte   Dn3
 .byte   N12 ,Gn3
 .byte   W24
 .byte   Dn3
 .byte   N12 ,Gn3
 .byte   W24
 .byte   Dn3
 .byte   N12 ,Fs3
 .byte   W12
 .byte   PEND 
@  #05 @048   ----------------------------------------
Label_017272F0:
 .byte   W12
 .byte   N12 ,Dn3 ,v100
 .byte   N12 ,Fs3
 .byte   W12
 .byte   Dn3
 .byte   N12 ,Fs3
 .byte   W24
 .byte   Dn3
 .byte   N12 ,Fs3
 .byte   W24
 .byte   Dn3
 .byte   N12 ,Fs3
 .byte   W24
 .byte   PEND 
@  #05 @049   ----------------------------------------
Label_01727304:
 .byte   N12 ,Cn3 ,v100
 .byte   N12 ,En3
 .byte   W24
 .byte   Cn3
 .byte   N12 ,En3
 .byte   W12
 .byte   Cn3
 .byte   N12 ,En3
 .byte   W24
 .byte   Cn3
 .byte   N12 ,En3
 .byte   W24
 .byte   Dn3
 .byte   N12 ,Fs3
 .byte   W12
 .byte   PEND 
@  #05 @050   ----------------------------------------
 .byte   PATT
  .word Label_017272F0
@  #05 @051   ----------------------------------------
 .byte   PATT
  .word Label_017272AE
@  #05 @052   ----------------------------------------
 .byte   PATT
  .word Label_017272C5
@  #05 @053   ----------------------------------------
 .byte   PATT
  .word Label_017272AE
@  #05 @054   ----------------------------------------
 .byte   PATT
  .word Label_017272C5
@  #05 @055   ----------------------------------------
 .byte   PATT
  .word Label_017272D9
@  #05 @056   ----------------------------------------
 .byte   W12
 .byte   N12 ,Dn3 ,v100
 .byte   N12 ,Fs3
 .byte   W12
 .byte   Dn3
 .byte   W24
 .byte   N12
 .byte   N12 ,Fs3
 .byte   W24
 .byte   Dn3
 .byte   N12 ,Fs3
 .byte   W24
@  #05 @057   ----------------------------------------
 .byte   PATT
  .word Label_01727304
@  #05 @058   ----------------------------------------
 .byte   PATT
  .word Label_017272F0
@  #05 @059   ----------------------------------------
 .byte   PATT
  .word Label_017272AE
@  #05 @060   ----------------------------------------
 .byte   PATT
  .word Label_017272C5
@  #05 @061   ----------------------------------------
 .byte   GOTO
  .word Label_017271CC
 .byte   FINE

@**************** Track 6 (Midi-Chn.5) ****************@

NormalBattle_006:
@  #06 @000   ----------------------------------------
 .byte   VOL , 48*NormalBattle_mvl/mxv
 .byte   KEYSH , NormalBattle_key+0
Label_01727A8C:
 .byte   VOICE , 124
 .byte   N06 ,Cn1 ,v127
 .byte   W48
 .byte   N06
 .byte   W24
 .byte   N06
 .byte   W24
@  #06 @001   ----------------------------------------
Label_01727A96:
 .byte   N06 ,Cn1 ,v127
 .byte   W48
 .byte   N06
 .byte   W24
 .byte   N06
 .byte   W24
 .byte   PEND 
@  #06 @002   ----------------------------------------
 .byte   PATT
  .word Label_01727A96
@  #06 @003   ----------------------------------------
 .byte   PATT
  .word Label_01727A96
@  #06 @004   ----------------------------------------
 .byte   PATT
  .word Label_01727A96
@  #06 @005   ----------------------------------------
 .byte   PATT
  .word Label_01727A96
@  #06 @006   ----------------------------------------
 .byte   PATT
  .word Label_01727A96
@  #06 @007   ----------------------------------------
 .byte   PATT
  .word Label_01727A96
@  #06 @008   ----------------------------------------
Label_01727ABD:
 .byte   N06 ,Cn1 ,v127
 .byte   W12
 .byte   N06
 .byte   W12
 .byte   Dn1
 .byte   W12
 .byte   Cn1
 .byte   W12
 .byte   N06
 .byte   W12
 .byte   N06
 .byte   W12
 .byte   Dn1
 .byte   W12
 .byte   Cn1
 .byte   W12
 .byte   PEND 
@  #06 @009   ----------------------------------------
 .byte   PATT
  .word Label_01727ABD
@  #06 @010   ----------------------------------------
 .byte   PATT
  .word Label_01727ABD
@  #06 @011   ----------------------------------------
 .byte   PATT
  .word Label_01727ABD
@  #06 @012   ----------------------------------------
 .byte   PATT
  .word Label_01727ABD
@  #06 @013   ----------------------------------------
 .byte   PATT
  .word Label_01727ABD
@  #06 @014   ----------------------------------------
 .byte   PATT
  .word Label_01727ABD
@  #06 @015   ----------------------------------------
 .byte   PATT
  .word Label_01727ABD
@  #06 @016   ----------------------------------------
 .byte   PATT
  .word Label_01727ABD
@  #06 @017   ----------------------------------------
 .byte   PATT
  .word Label_01727ABD
@  #06 @018   ----------------------------------------
 .byte   PATT
  .word Label_01727ABD
@  #06 @019   ----------------------------------------
 .byte   PATT
  .word Label_01727ABD
@  #06 @020   ----------------------------------------
 .byte   PATT
  .word Label_01727ABD
@  #06 @021   ----------------------------------------
 .byte   PATT
  .word Label_01727ABD
@  #06 @022   ----------------------------------------
 .byte   PATT
  .word Label_01727ABD
@  #06 @023   ----------------------------------------
 .byte   PATT
  .word Label_01727ABD
@  #06 @024   ----------------------------------------
 .byte   PATT
  .word Label_01727ABD
@  #06 @025   ----------------------------------------
 .byte   PATT
  .word Label_01727ABD
@  #06 @026   ----------------------------------------
 .byte   PATT
  .word Label_01727ABD
@  #06 @027   ----------------------------------------
 .byte   PATT
  .word Label_01727ABD
@  #06 @028   ----------------------------------------
 .byte   PATT
  .word Label_01727ABD
@  #06 @029   ----------------------------------------
 .byte   PATT
  .word Label_01727ABD
@  #06 @030   ----------------------------------------
 .byte   PATT
  .word Label_01727ABD
@  #06 @031   ----------------------------------------
 .byte   N06 ,Cn1 ,v127
 .byte   W12
 .byte   N06
 .byte   W12
 .byte   Dn1
 .byte   W12
 .byte   Cn1
 .byte   W12
 .byte   N06
 .byte   W12
 .byte   Dn1
 .byte   W06
 .byte   Cn1
 .byte   W06
 .byte   Dn1
 .byte   W12
 .byte   N06
 .byte   W06
 .byte   Cn1
 .byte   W06
@  #06 @032   ----------------------------------------
Label_01727B54:
 .byte   N06 ,Dn1 ,v127
 .byte   W12
 .byte   Cn1
 .byte   W12
 .byte   Dn1
 .byte   W12
 .byte   N06
 .byte   W12
 .byte   Cn1
 .byte   W12
 .byte   Dn1
 .byte   W12
 .byte   N06
 .byte   W12
 .byte   Cn1
 .byte   W12
 .byte   PEND 
@  #06 @033   ----------------------------------------
Label_01727B67:
 .byte   N06 ,Dn1 ,v127
 .byte   W12
 .byte   N06
 .byte   W12
 .byte   Cn1
 .byte   W12
 .byte   Dn1
 .byte   W12
 .byte   N06
 .byte   W12
 .byte   Cn1
 .byte   W12
 .byte   Dn1
 .byte   W12
 .byte   N06
 .byte   W12
 .byte   PEND 
@  #06 @034   ----------------------------------------
Label_01727B7A:
 .byte   N06 ,Cn1 ,v127
 .byte   W12
 .byte   Dn1
 .byte   W12
 .byte   N06
 .byte   W12
 .byte   Cn1
 .byte   W12
 .byte   Dn1
 .byte   W12
 .byte   N06
 .byte   W12
 .byte   Cn1
 .byte   W12
 .byte   Dn1
 .byte   W12
 .byte   PEND 
@  #06 @035   ----------------------------------------
 .byte   PATT
  .word Label_01727B54
@  #06 @036   ----------------------------------------
 .byte   PATT
  .word Label_01727B67
@  #06 @037   ----------------------------------------
 .byte   PATT
  .word Label_01727B7A
@  #06 @038   ----------------------------------------
 .byte   PATT
  .word Label_01727B7A
@  #06 @039   ----------------------------------------
 .byte   PATT
  .word Label_01727B7A
@  #06 @040   ----------------------------------------
 .byte   PATT
  .word Label_01727B7A
@  #06 @041   ----------------------------------------
 .byte   PATT
  .word Label_01727B7A
@  #06 @042   ----------------------------------------
 .byte   PATT
  .word Label_01727B7A
@  #06 @043   ----------------------------------------
 .byte   PATT
  .word Label_01727B7A
@  #06 @044   ----------------------------------------
 .byte   PATT
  .word Label_01727B7A
@  #06 @045   ----------------------------------------
 .byte   PATT
  .word Label_01727ABD
@  #06 @046   ----------------------------------------
 .byte   PATT
  .word Label_01727ABD
@  #06 @047   ----------------------------------------
 .byte   PATT
  .word Label_01727ABD
@  #06 @048   ----------------------------------------
 .byte   PATT
  .word Label_01727ABD
@  #06 @049   ----------------------------------------
 .byte   PATT
  .word Label_01727ABD
@  #06 @050   ----------------------------------------
 .byte   PATT
  .word Label_01727ABD
@  #06 @051   ----------------------------------------
 .byte   PATT
  .word Label_01727ABD
@  #06 @052   ----------------------------------------
 .byte   PATT
  .word Label_01727ABD
@  #06 @053   ----------------------------------------
 .byte   PATT
  .word Label_01727ABD
@  #06 @054   ----------------------------------------
 .byte   PATT
  .word Label_01727ABD
@  #06 @055   ----------------------------------------
 .byte   PATT
  .word Label_01727ABD
@  #06 @056   ----------------------------------------
 .byte   PATT
  .word Label_01727ABD
@  #06 @057   ----------------------------------------
 .byte   PATT
  .word Label_01727ABD
@  #06 @058   ----------------------------------------
 .byte   PATT
  .word Label_01727ABD
@  #06 @059   ----------------------------------------
 .byte   PATT
  .word Label_01727ABD
@  #06 @060   ----------------------------------------
 .byte   PATT
  .word Label_01727ABD
@  #06 @061   ----------------------------------------
 .byte   GOTO
  .word Label_01727A8C
 .byte   FINE

@******************************************************@
	.align	2

NormalBattle:
	.byte	6	@ NumTrks
	.byte	0	@ NumBlks
	.byte	NormalBattle_pri	@ Priority
	.byte	NormalBattle_rev	@ Reverb.
    
	.word	NormalBattle_grp
    
	.word	NormalBattle_001
	.word	NormalBattle_002
	.word	NormalBattle_003
	.word	NormalBattle_004
	.word	NormalBattle_005
	.word	NormalBattle_006

	.end
