	.include "MPlayDef.s"

	.equ	song15_grp, voicegroup000
	.equ	song15_pri, 0
	.equ	song15_rev, 48
	.equ	song15_mvl, 127
	.equ	song15_key, 0
	.equ	song15_tbs, 1
	.equ	song15_exg, 0
	.equ	song15_cmp, 1

	.section .rodata
	.global	song15
	.align	2


@**************** Track 1 (Midi-Chn.0) ****************@

song15_001:
@  #01 @000   ----------------------------------------
 .byte   VOL , 60*song15_mvl/mxv
 .byte   KEYSH , song15_key+0
Label_01715540:
 .byte   TEMPO , 130*song15_tbs/2
 .byte   VOICE , 104
 .byte   W12
 .byte   N24 ,Cn3 ,v120
 .byte   W24
 .byte   N12 ,Fn2
 .byte   W12
 .byte   Gn2
 .byte   W12
 .byte   As2
 .byte   W12
 .byte   Cn3
 .byte   W12
 .byte   As2
 .byte   W12
@  #01 @001   ----------------------------------------
Label_01715554:
 .byte   N12 ,Cn3 ,v120
 .byte   W12
 .byte   Fn3
 .byte   W12
 .byte   N12
 .byte   W12
 .byte   Gn3
 .byte   W12
 .byte   N12
 .byte   W12
 .byte   As3
 .byte   W12
 .byte   N24 ,Cn4
 .byte   W24
 .byte   PEND 
@  #01 @002   ----------------------------------------
 .byte   W12
 .byte   N12
 .byte   W12
 .byte   N06 ,Fn3
 .byte   W12
 .byte   N06
 .byte   W12
 .byte   Gn3
 .byte   W12
 .byte   N06
 .byte   W12
 .byte   N12 ,Cn3
 .byte   W24
@  #01 @003   ----------------------------------------
 .byte   W12
 .byte   Fn3
 .byte   W12
 .byte   N06 ,As2
 .byte   W12
 .byte   N06
 .byte   W12
 .byte   N06
 .byte   W12
 .byte   Cn3
 .byte   W12
 .byte   Cs3
 .byte   W12
 .byte   N06
 .byte   W12
@  #01 @004   ----------------------------------------
 .byte   Cn3
 .byte   W12
 .byte   N24
 .byte   W24
 .byte   N12 ,Fn2
 .byte   W12
 .byte   Gn2
 .byte   W12
 .byte   As2
 .byte   W12
 .byte   Cn3
 .byte   W12
 .byte   As2
 .byte   W12
@  #01 @005   ----------------------------------------
Label_01715594:
 .byte   N12 ,Cn3 ,v120
 .byte   W12
 .byte   Fn3
 .byte   W12
 .byte   N12
 .byte   W12
 .byte   Gn3
 .byte   W12
 .byte   N12
 .byte   W12
 .byte   As3
 .byte   W12
 .byte   Cn4
 .byte   W12
 .byte   Fn3
 .byte   W12
 .byte   PEND 
@  #01 @006   ----------------------------------------
Label_017155A7:
 .byte   N24 ,Gn3 ,v120
 .byte   W24
 .byte   N12
 .byte   W12
 .byte   Fn3
 .byte   W12
 .byte   N24 ,Gn3
 .byte   W24
 .byte   N12
 .byte   W12
 .byte   Fn3
 .byte   W12
 .byte   PEND 
@  #01 @007   ----------------------------------------
 .byte   N06
 .byte   W06
 .byte   Gn3
 .byte   W06
 .byte   Fn3
 .byte   W06
 .byte   Cn3
 .byte   W06
 .byte   Fn3
 .byte   W06
 .byte   Gn3
 .byte   W06
 .byte   Fn3
 .byte   W06
 .byte   Cn3
 .byte   W06
 .byte   N12 ,Fn3
 .byte   W12
 .byte   Cs3
 .byte   W12
 .byte   Cn3
 .byte   W12
 .byte   As2
 .byte   W12
@  #01 @008   ----------------------------------------
Label_017155D0:
 .byte   N36 ,Cn3 ,v120
 .byte   W36
 .byte   Gn2
 .byte   W36
 .byte   Cn2
 .byte   W24
 .byte   PEND 
@  #01 @009   ----------------------------------------
 .byte   W96
@  #01 @010   ----------------------------------------
 .byte   PATT
  .word Label_017155D0
@  #01 @011   ----------------------------------------
 .byte   W96
@  #01 @012   ----------------------------------------
Label_017155E0:
 .byte   W12
 .byte   N24 ,Cn3 ,v120
 .byte   W24
 .byte   N12 ,Fn2
 .byte   W12
 .byte   Gn2
 .byte   W12
 .byte   As2
 .byte   W12
 .byte   Cn3
 .byte   W12
 .byte   As2
 .byte   W12
 .byte   PEND 
@  #01 @013   ----------------------------------------
 .byte   PATT
  .word Label_01715554
@  #01 @014   ----------------------------------------
 .byte   W12
 .byte   N12 ,Gn3 ,v120
 .byte   W12
 .byte   Cn4
 .byte   W12
 .byte   N12
 .byte   W12
 .byte   N24
 .byte   W24
 .byte   N12 ,Fn3
 .byte   W12
 .byte   N24 ,Gn3
 .byte   W12
@  #01 @015   ----------------------------------------
 .byte   W12
 .byte   N12 ,Fn3
 .byte   W12
 .byte   Gn3
 .byte   W12
 .byte   Fn3
 .byte   W12
 .byte   Gn3
 .byte   W12
 .byte   Cs3
 .byte   W12
 .byte   Cn3
 .byte   W12
 .byte   As2
 .byte   W12
@  #01 @016   ----------------------------------------
 .byte   PATT
  .word Label_017155E0
@  #01 @017   ----------------------------------------
 .byte   PATT
  .word Label_01715594
@  #01 @018   ----------------------------------------
 .byte   PATT
  .word Label_017155A7
@  #01 @019   ----------------------------------------
 .byte   N06 ,Gn3 ,v120
 .byte   W06
 .byte   Gs3
 .byte   W06
 .byte   Gn3
 .byte   W06
 .byte   Fn3
 .byte   W06
 .byte   Gn3
 .byte   W06
 .byte   Gs3
 .byte   W06
 .byte   Gn3
 .byte   W06
 .byte   Fn3
 .byte   W06
 .byte   N12 ,Gn3
 .byte   W12
 .byte   Cs3
 .byte   W12
 .byte   Cn3
 .byte   W12
 .byte   As2
 .byte   W12
@  #01 @020   ----------------------------------------
 .byte   PATT
  .word Label_017155D0
@  #01 @021   ----------------------------------------
 .byte   W96
@  #01 @022   ----------------------------------------
 .byte   W96
@  #01 @023   ----------------------------------------
 .byte   W96
@  #01 @024   ----------------------------------------
 .byte   W96
@  #01 @025   ----------------------------------------
 .byte   W96
@  #01 @026   ----------------------------------------
 .byte   W96
@  #01 @027   ----------------------------------------
 .byte   W96
@  #01 @028   ----------------------------------------
 .byte   W96
@  #01 @029   ----------------------------------------
 .byte   W96
@  #01 @030   ----------------------------------------
 .byte   W96
@  #01 @031   ----------------------------------------
 .byte   W96
@  #01 @032   ----------------------------------------
 .byte   W96
@  #01 @033   ----------------------------------------
 .byte   W96
@  #01 @034   ----------------------------------------
 .byte   W96
@  #01 @035   ----------------------------------------
 .byte   W96
@  #01 @036   ----------------------------------------
 .byte   W96
@  #01 @037   ----------------------------------------
 .byte   W96
@  #01 @038   ----------------------------------------
 .byte   W96
@  #01 @039   ----------------------------------------
 .byte   W96
@  #01 @040   ----------------------------------------
 .byte   W96
@  #01 @041   ----------------------------------------
 .byte   W96
@  #01 @042   ----------------------------------------
 .byte   W96
@  #01 @043   ----------------------------------------
 .byte   W96
@  #01 @044   ----------------------------------------
 .byte   GOTO
  .word Label_01715540
 .byte   FINE

@**************** Track 2 (Midi-Chn.1) ****************@

song15_002:
@  #02 @000   ----------------------------------------
 .byte   VOL , 60*song15_mvl/mxv
 .byte   KEYSH , song15_key+0
Label_01715688:
 .byte   VOICE , 100
 .byte   W96
@  #02 @001   ----------------------------------------
 .byte   W96
@  #02 @002   ----------------------------------------
 .byte   W96
@  #02 @003   ----------------------------------------
 .byte   W96
@  #02 @004   ----------------------------------------
 .byte   W96
@  #02 @005   ----------------------------------------
 .byte   W96
@  #02 @006   ----------------------------------------
Label_01715690:
 .byte   N24 ,Gn2 ,v120
 .byte   W24
 .byte   N12
 .byte   W12
 .byte   Fn2
 .byte   W12
 .byte   N24 ,Gn2
 .byte   W24
 .byte   N12
 .byte   W12
 .byte   Fn2
 .byte   W12
 .byte   PEND 
@  #02 @007   ----------------------------------------
 .byte   N06
 .byte   W06
 .byte   Gn2
 .byte   W06
 .byte   Fn2
 .byte   W06
 .byte   Cn2
 .byte   W06
 .byte   Fn2
 .byte   W06
 .byte   Gn2
 .byte   W06
 .byte   Fn2
 .byte   W06
 .byte   Cn2
 .byte   W06
 .byte   N12 ,Fn2
 .byte   W12
 .byte   Cs2
 .byte   W12
 .byte   Cn2
 .byte   W12
 .byte   As1
 .byte   W12
@  #02 @008   ----------------------------------------
 .byte   W96
@  #02 @009   ----------------------------------------
 .byte   W96
@  #02 @010   ----------------------------------------
 .byte   W96
@  #02 @011   ----------------------------------------
 .byte   W96
@  #02 @012   ----------------------------------------
 .byte   W96
@  #02 @013   ----------------------------------------
 .byte   W72
 .byte   N06 ,Fn3 ,v116
 .byte   W12
 .byte   N06
 .byte   W12
@  #02 @014   ----------------------------------------
 .byte   Gn3
 .byte   W96
@  #02 @015   ----------------------------------------
 .byte   W96
@  #02 @016   ----------------------------------------
 .byte   W96
@  #02 @017   ----------------------------------------
 .byte   W96
@  #02 @018   ----------------------------------------
 .byte   PATT
  .word Label_01715690
@  #02 @019   ----------------------------------------
 .byte   N06 ,Gn2 ,v120
 .byte   W06
 .byte   Gs2
 .byte   W06
 .byte   Gn2
 .byte   W06
 .byte   Fn2
 .byte   W06
 .byte   Gn2
 .byte   W06
 .byte   Gs2
 .byte   W06
 .byte   Gn2
 .byte   W06
 .byte   Fn2
 .byte   W06
 .byte   N12 ,Gn2
 .byte   W12
 .byte   Cs2
 .byte   W12
 .byte   Cn2
 .byte   W12
 .byte   As1
 .byte   W12
@  #02 @020   ----------------------------------------
 .byte   W96
@  #02 @021   ----------------------------------------
 .byte   W96
@  #02 @022   ----------------------------------------
 .byte   W96
@  #02 @023   ----------------------------------------
 .byte   W96
@  #02 @024   ----------------------------------------
 .byte   W96
@  #02 @025   ----------------------------------------
 .byte   W96
@  #02 @026   ----------------------------------------
 .byte   W96
@  #02 @027   ----------------------------------------
 .byte   W96
@  #02 @028   ----------------------------------------
 .byte   W96
@  #02 @029   ----------------------------------------
 .byte   W96
@  #02 @030   ----------------------------------------
 .byte   W96
@  #02 @031   ----------------------------------------
 .byte   W96
@  #02 @032   ----------------------------------------
 .byte   W96
@  #02 @033   ----------------------------------------
 .byte   W96
@  #02 @034   ----------------------------------------
 .byte   W96
@  #02 @035   ----------------------------------------
 .byte   W96
@  #02 @036   ----------------------------------------
 .byte   W96
@  #02 @037   ----------------------------------------
 .byte   W96
@  #02 @038   ----------------------------------------
 .byte   W96
@  #02 @039   ----------------------------------------
 .byte   W96
@  #02 @040   ----------------------------------------
 .byte   W96
@  #02 @041   ----------------------------------------
 .byte   W96
@  #02 @042   ----------------------------------------
 .byte   W96
@  #02 @043   ----------------------------------------
 .byte   W96
@  #02 @044   ----------------------------------------
 .byte   GOTO
  .word Label_01715688
 .byte   FINE

@**************** Track 3 (Midi-Chn.2) ****************@

song15_003:
@  #03 @000   ----------------------------------------
 .byte   VOL , 60*song15_mvl/mxv
 .byte   KEYSH , song15_key+0
Label_017150EC:
 .byte   VOICE , 106
 .byte   W96
@  #03 @001   ----------------------------------------
 .byte   W96
@  #03 @002   ----------------------------------------
 .byte   W96
@  #03 @003   ----------------------------------------
 .byte   W96
@  #03 @004   ----------------------------------------
 .byte   W96
@  #03 @005   ----------------------------------------
 .byte   W96
@  #03 @006   ----------------------------------------
 .byte   W96
@  #03 @007   ----------------------------------------
 .byte   W96
@  #03 @008   ----------------------------------------
 .byte   W96
@  #03 @009   ----------------------------------------
 .byte   W96
@  #03 @010   ----------------------------------------
 .byte   W96
@  #03 @011   ----------------------------------------
 .byte   W96
@  #03 @012   ----------------------------------------
Label_017150FA:
 .byte   W12
 .byte   N24 ,Cn3 ,v120
 .byte   W24
 .byte   N12 ,Fn2
 .byte   W12
 .byte   Gn2
 .byte   W12
 .byte   As2
 .byte   W12
 .byte   Cn3
 .byte   W12
 .byte   As2
 .byte   W12
 .byte   PEND 
@  #03 @013   ----------------------------------------
 .byte   Cn3
 .byte   W12
 .byte   Fn3
 .byte   W12
 .byte   N12
 .byte   W12
 .byte   Gn3
 .byte   W12
 .byte   N12
 .byte   W12
 .byte   As3
 .byte   W12
 .byte   N24 ,Cn4
 .byte   W24
@  #03 @014   ----------------------------------------
 .byte   W12
 .byte   N12 ,Gn3
 .byte   W12
 .byte   Cn4
 .byte   W12
 .byte   N12
 .byte   W12
 .byte   N24
 .byte   W24
 .byte   N12 ,Fn3
 .byte   W12
 .byte   N24 ,Gn3
 .byte   W12
@  #03 @015   ----------------------------------------
 .byte   W12
 .byte   N12 ,Fn3
 .byte   W12
 .byte   Gn3
 .byte   W12
 .byte   Fn3
 .byte   W12
 .byte   Gn3
 .byte   W12
 .byte   Cs3
 .byte   W12
 .byte   Cn3
 .byte   W12
 .byte   As2
 .byte   W12
@  #03 @016   ----------------------------------------
 .byte   PATT
  .word Label_017150FA
@  #03 @017   ----------------------------------------
 .byte   N12 ,Cn3 ,v120
 .byte   W12
 .byte   Fn3
 .byte   W12
 .byte   N12
 .byte   W12
 .byte   Gn3
 .byte   W12
 .byte   N12
 .byte   W12
 .byte   As3
 .byte   W12
 .byte   Cn4
 .byte   W12
 .byte   Fn3
 .byte   W12
@  #03 @018   ----------------------------------------
 .byte   N24 ,Gn3
 .byte   W24
 .byte   N12
 .byte   W12
 .byte   Fn3
 .byte   W12
 .byte   N24 ,Gn3
 .byte   W24
 .byte   N12
 .byte   W12
 .byte   Fn3
 .byte   W12
@  #03 @019   ----------------------------------------
 .byte   N06 ,Gn3
 .byte   W06
 .byte   Gs3
 .byte   W06
 .byte   Gn3
 .byte   W06
 .byte   Fn3
 .byte   W06
 .byte   Gn3
 .byte   W06
 .byte   Gs3
 .byte   W06
 .byte   Gn3
 .byte   W06
 .byte   Fn3
 .byte   W06
 .byte   N12 ,Gn3
 .byte   W12
 .byte   Cs3
 .byte   W12
 .byte   Cn3
 .byte   W12
 .byte   As2
 .byte   W12
@  #03 @020   ----------------------------------------
Label_01715179:
 .byte   N36 ,Cn3 ,v120
 .byte   W36
 .byte   Gn2
 .byte   W36
 .byte   Cn2
 .byte   W24
 .byte   PEND 
@  #03 @021   ----------------------------------------
 .byte   W96
@  #03 @022   ----------------------------------------
 .byte   PATT
  .word Label_01715179
@  #03 @023   ----------------------------------------
 .byte   W96
@  #03 @024   ----------------------------------------
 .byte   W96
@  #03 @025   ----------------------------------------
 .byte   W96
@  #03 @026   ----------------------------------------
 .byte   W96
@  #03 @027   ----------------------------------------
 .byte   W96
@  #03 @028   ----------------------------------------
 .byte   W96
@  #03 @029   ----------------------------------------
 .byte   W96
@  #03 @030   ----------------------------------------
 .byte   W96
@  #03 @031   ----------------------------------------
 .byte   W96
@  #03 @032   ----------------------------------------
 .byte   W96
@  #03 @033   ----------------------------------------
 .byte   W96
@  #03 @034   ----------------------------------------
 .byte   W96
@  #03 @035   ----------------------------------------
 .byte   W96
@  #03 @036   ----------------------------------------
 .byte   W96
@  #03 @037   ----------------------------------------
 .byte   W96
@  #03 @038   ----------------------------------------
 .byte   W96
@  #03 @039   ----------------------------------------
 .byte   W96
@  #03 @040   ----------------------------------------
 .byte   W96
@  #03 @041   ----------------------------------------
 .byte   W96
@  #03 @042   ----------------------------------------
 .byte   W96
@  #03 @043   ----------------------------------------
 .byte   W96
@  #03 @044   ----------------------------------------
 .byte   GOTO
  .word Label_017150EC
 .byte   FINE

@**************** Track 4 (Midi-Chn.3) ****************@

song15_004:
@  #04 @000   ----------------------------------------
 .byte   VOL , 60*song15_mvl/mxv
 .byte   KEYSH , song15_key+0
Label_01715260:
 .byte   VOICE , 29
 .byte   N12 ,Cn1 ,v068
 .byte   W12
 .byte   Gn1
 .byte   W12
 .byte   N06 ,As1
 .byte   W06
 .byte   Cn2
 .byte   W06
 .byte   As1
 .byte   W06
 .byte   Gn1
 .byte   W06
 .byte   N12 ,Cn1
 .byte   W12
 .byte   Gn1
 .byte   W12
 .byte   N06 ,As1
 .byte   W06
 .byte   Cn2
 .byte   W06
 .byte   As1
 .byte   W06
 .byte   Gn1
 .byte   W06
@  #04 @001   ----------------------------------------
Label_0171527F:
 .byte   N12 ,Cn1 ,v068
 .byte   W12
 .byte   Gn1
 .byte   W12
 .byte   N06 ,As1
 .byte   W06
 .byte   Cn2
 .byte   W06
 .byte   As1
 .byte   W06
 .byte   Gn1
 .byte   W06
 .byte   N12 ,Cn1
 .byte   W12
 .byte   Gn1
 .byte   W12
 .byte   N06 ,As1
 .byte   W06
 .byte   Cs2
 .byte   W06
 .byte   As1
 .byte   W06
 .byte   Gn1
 .byte   W06
 .byte   PEND 
@  #04 @002   ----------------------------------------
Label_0171529D:
 .byte   N12 ,Cn1 ,v068
 .byte   W12
 .byte   Gn1
 .byte   W12
 .byte   N06 ,As1
 .byte   W06
 .byte   Cn2
 .byte   W06
 .byte   As1
 .byte   W06
 .byte   Gn1
 .byte   W06
 .byte   N12 ,Cn1
 .byte   W12
 .byte   Gn1
 .byte   W12
 .byte   N06 ,As1
 .byte   W06
 .byte   Cn2
 .byte   W06
 .byte   As1
 .byte   W06
 .byte   Gn1
 .byte   W06
 .byte   PEND 
@  #04 @003   ----------------------------------------
 .byte   PATT
  .word Label_0171527F
@  #04 @004   ----------------------------------------
 .byte   PATT
  .word Label_0171529D
@  #04 @005   ----------------------------------------
 .byte   PATT
  .word Label_0171527F
@  #04 @006   ----------------------------------------
 .byte   PATT
  .word Label_0171529D
@  #04 @007   ----------------------------------------
 .byte   PATT
  .word Label_0171527F
@  #04 @008   ----------------------------------------
 .byte   PATT
  .word Label_0171529D
@  #04 @009   ----------------------------------------
 .byte   PATT
  .word Label_0171527F
@  #04 @010   ----------------------------------------
 .byte   PATT
  .word Label_0171529D
@  #04 @011   ----------------------------------------
 .byte   PATT
  .word Label_0171527F
@  #04 @012   ----------------------------------------
 .byte   PATT
  .word Label_0171529D
@  #04 @013   ----------------------------------------
 .byte   PATT
  .word Label_0171527F
@  #04 @014   ----------------------------------------
 .byte   PATT
  .word Label_0171529D
@  #04 @015   ----------------------------------------
 .byte   PATT
  .word Label_0171527F
@  #04 @016   ----------------------------------------
 .byte   PATT
  .word Label_0171529D
@  #04 @017   ----------------------------------------
 .byte   PATT
  .word Label_0171527F
@  #04 @018   ----------------------------------------
 .byte   PATT
  .word Label_0171529D
@  #04 @019   ----------------------------------------
 .byte   PATT
  .word Label_0171527F
@  #04 @020   ----------------------------------------
 .byte   PATT
  .word Label_0171529D
@  #04 @021   ----------------------------------------
 .byte   PATT
  .word Label_0171527F
@  #04 @022   ----------------------------------------
 .byte   PATT
  .word Label_0171529D
@  #04 @023   ----------------------------------------
 .byte   PATT
  .word Label_0171527F
@  #04 @024   ----------------------------------------
 .byte   W96
@  #04 @025   ----------------------------------------
 .byte   W96
@  #04 @026   ----------------------------------------
 .byte   W96
@  #04 @027   ----------------------------------------
 .byte   W96
@  #04 @028   ----------------------------------------
 .byte   W96
@  #04 @029   ----------------------------------------
 .byte   W96
@  #04 @030   ----------------------------------------
 .byte   W96
@  #04 @031   ----------------------------------------
 .byte   W96
@  #04 @032   ----------------------------------------
 .byte   W96
@  #04 @033   ----------------------------------------
 .byte   W96
@  #04 @034   ----------------------------------------
 .byte   W96
@  #04 @035   ----------------------------------------
 .byte   W96
@  #04 @036   ----------------------------------------
 .byte   W96
@  #04 @037   ----------------------------------------
 .byte   W96
@  #04 @038   ----------------------------------------
 .byte   W96
@  #04 @039   ----------------------------------------
 .byte   W96
@  #04 @040   ----------------------------------------
 .byte   PATT
  .word Label_0171529D
@  #04 @041   ----------------------------------------
 .byte   PATT
  .word Label_0171527F
@  #04 @042   ----------------------------------------
 .byte   PATT
  .word Label_0171529D
@  #04 @043   ----------------------------------------
 .byte   PATT
  .word Label_0171527F
@  #04 @044   ----------------------------------------
 .byte   GOTO
  .word Label_01715260
 .byte   FINE

@**************** Track 5 (Midi-Chn.4) ****************@

song15_005:
@  #05 @000   ----------------------------------------
 .byte   VOL , 60*song15_mvl/mxv
 .byte   KEYSH , song15_key+0
Label_01569B3C:
 .byte   VOICE , 36
 .byte   N06 ,Gn2 ,v100
 .byte   W12
 .byte   N06
 .byte   W12
 .byte   N06
 .byte   W06
 .byte   N06
 .byte   W06
 .byte   N06
 .byte   W12
 .byte   N06
 .byte   W12
 .byte   N06
 .byte   W12
 .byte   N06
 .byte   W12
 .byte   Fn2
 .byte   W12
@  #05 @001   ----------------------------------------
Label_01569B52:
 .byte   N06 ,Gn2 ,v100
 .byte   W12
 .byte   N06
 .byte   W12
 .byte   N06
 .byte   W06
 .byte   N06
 .byte   W06
 .byte   N06
 .byte   W12
 .byte   N06
 .byte   W12
 .byte   N06
 .byte   W12
 .byte   Fn2
 .byte   W12
 .byte   N06
 .byte   W12
 .byte   PEND 
@  #05 @002   ----------------------------------------
 .byte   PATT
  .word Label_01569B52
@  #05 @003   ----------------------------------------
 .byte   N06 ,Fn2 ,v100
 .byte   W06
 .byte   N06
 .byte   W06
 .byte   N06
 .byte   W12
 .byte   N06
 .byte   W06
 .byte   N06
 .byte   W06
 .byte   N06
 .byte   W12
 .byte   N06
 .byte   W12
 .byte   Gn2
 .byte   W12
 .byte   Gs2
 .byte   W12
 .byte   N06
 .byte   W12
@  #05 @004   ----------------------------------------
 .byte   Gn2
 .byte   W12
 .byte   N06
 .byte   W12
 .byte   N06
 .byte   W06
 .byte   N06
 .byte   W06
 .byte   N06
 .byte   W12
 .byte   N06
 .byte   W12
 .byte   N06
 .byte   W12
 .byte   N06
 .byte   W12
 .byte   Fn2
 .byte   W12
@  #05 @005   ----------------------------------------
 .byte   PATT
  .word Label_01569B52
@  #05 @006   ----------------------------------------
Label_01569B99:
 .byte   N06 ,Gn2 ,v100
 .byte   W12
 .byte   N06
 .byte   W12
 .byte   N06
 .byte   W06
 .byte   N06
 .byte   W06
 .byte   Fn2
 .byte   W12
 .byte   Gn2
 .byte   W12
 .byte   N06
 .byte   W12
 .byte   N06
 .byte   W06
 .byte   N06
 .byte   W06
 .byte   Fn2
 .byte   W12
 .byte   PEND 
@  #05 @007   ----------------------------------------
 .byte   N06
 .byte   W06
 .byte   Gn2
 .byte   W06
 .byte   Fn2
 .byte   W06
 .byte   Cn2
 .byte   W06
 .byte   Fn2
 .byte   W06
 .byte   Gn2
 .byte   W06
 .byte   Fn2
 .byte   W06
 .byte   Cn2
 .byte   W06
 .byte   N12 ,Fn2
 .byte   W12
 .byte   Cs2
 .byte   W12
 .byte   Cn2
 .byte   W12
 .byte   N06 ,As1
 .byte   W06
 .byte   N06
 .byte   W06
@  #05 @008   ----------------------------------------
Label_01569BCC:
 .byte   N06 ,Cn2 ,v100
 .byte   W06
 .byte   N05
 .byte   W06
 .byte   N06
 .byte   W12
 .byte   Gn2
 .byte   W06
 .byte   N06
 .byte   W06
 .byte   N06
 .byte   W12
 .byte   N06
 .byte   W12
 .byte   Fn2
 .byte   W12
 .byte   N06
 .byte   W12
 .byte   Gn2
 .byte   W12
 .byte   PEND 
@  #05 @009   ----------------------------------------
Label_01569BE3:
 .byte   N06 ,Fn2 ,v100
 .byte   W06
 .byte   Gn2
 .byte   W06
 .byte   Fn2
 .byte   W12
 .byte   N06
 .byte   W06
 .byte   Gn2
 .byte   W06
 .byte   Fn2
 .byte   W12
 .byte   N06
 .byte   W06
 .byte   Gn2
 .byte   W06
 .byte   N06
 .byte   W12
 .byte   Cn3
 .byte   W12
 .byte   Cn2
 .byte   W12
 .byte   PEND 
@  #05 @010   ----------------------------------------
 .byte   PATT
  .word Label_01569BCC
@  #05 @011   ----------------------------------------
 .byte   PATT
  .word Label_01569BE3
@  #05 @012   ----------------------------------------
Label_01569C06:
 .byte   N06 ,Gn2 ,v100
 .byte   W12
 .byte   N06
 .byte   W12
 .byte   N06
 .byte   W12
 .byte   N06
 .byte   W12
 .byte   N06
 .byte   W12
 .byte   N06
 .byte   W12
 .byte   N06
 .byte   W12
 .byte   Fn2
 .byte   W12
 .byte   PEND 
@  #05 @013   ----------------------------------------
 .byte   Gn2
 .byte   W12
 .byte   N06
 .byte   W12
 .byte   N06
 .byte   W12
 .byte   N06
 .byte   W12
 .byte   N06
 .byte   W12
 .byte   N06
 .byte   W12
 .byte   Fn2 ,v116
 .byte   W12
 .byte   N06
 .byte   W12
@  #05 @014   ----------------------------------------
 .byte   Gn2
 .byte   W12
 .byte   Gn2 ,v100
 .byte   W12
 .byte   N06
 .byte   W12
 .byte   N06
 .byte   W12
 .byte   N06
 .byte   W12
 .byte   N06
 .byte   W12
 .byte   Fn2
 .byte   W12
 .byte   N06
 .byte   W12
@  #05 @015   ----------------------------------------
 .byte   N06
 .byte   W12
 .byte   N06
 .byte   W12
 .byte   N06
 .byte   W12
 .byte   N06
 .byte   W12
 .byte   N06
 .byte   W12
 .byte   Gn2
 .byte   W12
 .byte   Gs2
 .byte   W12
 .byte   N06
 .byte   W12
@  #05 @016   ----------------------------------------
 .byte   PATT
  .word Label_01569C06
@  #05 @017   ----------------------------------------
 .byte   N06 ,Gn2 ,v100
 .byte   W12
 .byte   N06
 .byte   W12
 .byte   N06
 .byte   W12
 .byte   N06
 .byte   W12
 .byte   N06
 .byte   W12
 .byte   N06
 .byte   W12
 .byte   Fn2
 .byte   W12
 .byte   N06
 .byte   W12
@  #05 @018   ----------------------------------------
 .byte   PATT
  .word Label_01569B99
@  #05 @019   ----------------------------------------
 .byte   N06 ,Gn2 ,v100
 .byte   W06
 .byte   Gs2
 .byte   W06
 .byte   Gn2
 .byte   W06
 .byte   Fn2
 .byte   W06
 .byte   Gn2
 .byte   W06
 .byte   Gs2
 .byte   W06
 .byte   Gn2
 .byte   W06
 .byte   Fn2
 .byte   W06
 .byte   N12 ,Gn2
 .byte   W12
 .byte   Cs2
 .byte   W12
 .byte   Cn2
 .byte   W12
 .byte   N06 ,As1
 .byte   W06
 .byte   N06
 .byte   W06
@  #05 @020   ----------------------------------------
 .byte   PATT
  .word Label_01569BCC
@  #05 @021   ----------------------------------------
 .byte   PATT
  .word Label_01569BE3
@  #05 @022   ----------------------------------------
 .byte   PATT
  .word Label_01569BCC
@  #05 @023   ----------------------------------------
 .byte   PATT
  .word Label_01569BE3
@  #05 @024   ----------------------------------------
 .byte   W96
@  #05 @025   ----------------------------------------
 .byte   W96
@  #05 @026   ----------------------------------------
 .byte   W96
@  #05 @027   ----------------------------------------
 .byte   W96
@  #05 @028   ----------------------------------------
 .byte   W96
@  #05 @029   ----------------------------------------
 .byte   W96
@  #05 @030   ----------------------------------------
 .byte   W96
@  #05 @031   ----------------------------------------
 .byte   W96
@  #05 @032   ----------------------------------------
 .byte   W96
@  #05 @033   ----------------------------------------
 .byte   W96
@  #05 @034   ----------------------------------------
 .byte   W96
@  #05 @035   ----------------------------------------
 .byte   W96
@  #05 @036   ----------------------------------------
 .byte   W96
@  #05 @037   ----------------------------------------
 .byte   W96
@  #05 @038   ----------------------------------------
 .byte   W96
@  #05 @039   ----------------------------------------
 .byte   W96
@  #05 @040   ----------------------------------------
 .byte   W96
@  #05 @041   ----------------------------------------
 .byte   W96
@  #05 @042   ----------------------------------------
 .byte   W96
@  #05 @043   ----------------------------------------
 .byte   W96
@  #05 @044   ----------------------------------------
 .byte   GOTO
  .word Label_01569B3C
 .byte   FINE

@**************** Track 6 (Midi-Chn.5) ****************@

song15_006:
@  #06 @000   ----------------------------------------
 .byte   KEYSH , song15_key+0
Label_01569CCA:
 .byte   VOICE , 75
 .byte   VOL , 10*song15_mvl/mxv
 .byte   W12
 .byte   N06 ,Cn4 ,v116
 .byte   W24
 .byte   N06
 .byte   W24
 .byte   N06
 .byte   W24
 .byte   N06
 .byte   W06
 .byte   N06
 .byte   W06
@  #06 @001   ----------------------------------------
Label_01569CDB:
 .byte   W12
 .byte   N06 ,Cn4 ,v116
 .byte   W24
 .byte   N06
 .byte   W24
 .byte   N06
 .byte   W24
 .byte   N06
 .byte   W06
 .byte   N06
 .byte   W06
 .byte   PEND 
@  #06 @002   ----------------------------------------
 .byte   PATT
  .word Label_01569CDB
@  #06 @003   ----------------------------------------
Label_01569CEE:
 .byte   W12
 .byte   N06 ,Cn4 ,v116
 .byte   W06
 .byte   N06
 .byte   W18
 .byte   N06
 .byte   W06
 .byte   N06
 .byte   W18
 .byte   N06
 .byte   W06
 .byte   N06
 .byte   W06
 .byte   N06
 .byte   W12
 .byte   N06
 .byte   W06
 .byte   N06
 .byte   W06
 .byte   PEND 
@  #06 @004   ----------------------------------------
 .byte   N06
 .byte   W12
 .byte   N06
 .byte   W24
 .byte   N06
 .byte   W24
 .byte   N06
 .byte   W24
 .byte   N06
 .byte   W06
 .byte   N06
 .byte   W06
@  #06 @005   ----------------------------------------
 .byte   PATT
  .word Label_01569CDB
@  #06 @006   ----------------------------------------
 .byte   W12
 .byte   N06 ,Cn4 ,v116
 .byte   W06
 .byte   N06
 .byte   W06
 .byte   N06
 .byte   W12
 .byte   N06
 .byte   W06
 .byte   N06
 .byte   W18
 .byte   N06
 .byte   W24
 .byte   N06
 .byte   W06
 .byte   N06
 .byte   W06
@  #06 @007   ----------------------------------------
 .byte   PATT
  .word Label_01569CEE
@  #06 @008   ----------------------------------------
 .byte   N06 ,Cn4 ,v116
 .byte   W96
@  #06 @009   ----------------------------------------
 .byte   W96
@  #06 @010   ----------------------------------------
 .byte   W96
@  #06 @011   ----------------------------------------
 .byte   W96
@  #06 @012   ----------------------------------------
Label_01569D34:
 .byte   N06 ,Cn4 ,v116
 .byte   W24
 .byte   N06
 .byte   W24
 .byte   N06
 .byte   W24
 .byte   N06
 .byte   W06
 .byte   N06
 .byte   W18
 .byte   PEND 
@  #06 @013   ----------------------------------------
 .byte   PATT
  .word Label_01569D34
@  #06 @014   ----------------------------------------
 .byte   PATT
  .word Label_01569D34
@  #06 @015   ----------------------------------------
Label_01569D4B:
 .byte   N06 ,Cn4 ,v116
 .byte   W06
 .byte   N06
 .byte   W18
 .byte   N06
 .byte   W06
 .byte   N06
 .byte   W18
 .byte   N06
 .byte   W06
 .byte   N06
 .byte   W06
 .byte   N06
 .byte   W12
 .byte   N06
 .byte   W06
 .byte   N06
 .byte   W06
 .byte   N06
 .byte   W12
 .byte   PEND 
@  #06 @016   ----------------------------------------
 .byte   PATT
  .word Label_01569D34
@  #06 @017   ----------------------------------------
 .byte   PATT
  .word Label_01569D34
@  #06 @018   ----------------------------------------
 .byte   N06 ,Cn4 ,v116
 .byte   W06
 .byte   N06
 .byte   W06
 .byte   N06
 .byte   W12
 .byte   N06
 .byte   W06
 .byte   N06
 .byte   W18
 .byte   N06
 .byte   W24
 .byte   N06
 .byte   W06
 .byte   N06
 .byte   W18
@  #06 @019   ----------------------------------------
 .byte   PATT
  .word Label_01569D4B
@  #06 @020   ----------------------------------------
 .byte   W96
@  #06 @021   ----------------------------------------
 .byte   W96
@  #06 @022   ----------------------------------------
 .byte   W96
@  #06 @023   ----------------------------------------
 .byte   W96
@  #06 @024   ----------------------------------------
Label_01569D87:
 .byte   N12 ,Cs4 ,v116
 .byte   W12
 .byte   N06
 .byte   W12
 .byte   N12
 .byte   W12
 .byte   N06
 .byte   W12
 .byte   N12
 .byte   W12
 .byte   N06
 .byte   W12
 .byte   N12
 .byte   W12
 .byte   N06
 .byte   W12
 .byte   PEND 
@  #06 @025   ----------------------------------------
 .byte   PATT
  .word Label_01569D87
@  #06 @026   ----------------------------------------
Label_01569D9F:
 .byte   N12 ,Cn4 ,v116
 .byte   W12
 .byte   N06
 .byte   W12
 .byte   N12
 .byte   W12
 .byte   N06
 .byte   W12
 .byte   N12
 .byte   W12
 .byte   N06
 .byte   W12
 .byte   N12
 .byte   W12
 .byte   N06
 .byte   W12
 .byte   PEND 
@  #06 @027   ----------------------------------------
 .byte   PATT
  .word Label_01569D9F
@  #06 @028   ----------------------------------------
Label_01569DB7:
 .byte   N12 ,As3 ,v116
 .byte   W12
 .byte   N06
 .byte   W12
 .byte   N12
 .byte   W12
 .byte   N06
 .byte   W12
 .byte   N12
 .byte   W12
 .byte   N06
 .byte   W12
 .byte   N12
 .byte   W12
 .byte   N06
 .byte   W12
 .byte   PEND 
@  #06 @029   ----------------------------------------
 .byte   PATT
  .word Label_01569DB7
@  #06 @030   ----------------------------------------
 .byte   PATT
  .word Label_01569D9F
@  #06 @031   ----------------------------------------
 .byte   N12 ,Cn4 ,v116
 .byte   W12
 .byte   N06
 .byte   W12
 .byte   N12
 .byte   W12
 .byte   N06
 .byte   W12
 .byte   N12 ,Cs4
 .byte   W12
 .byte   N06
 .byte   W12
 .byte   N12 ,Ds4
 .byte   W12
 .byte   N06
 .byte   W12
@  #06 @032   ----------------------------------------
 .byte   PATT
  .word Label_01569D87
@  #06 @033   ----------------------------------------
 .byte   PATT
  .word Label_01569D87
@  #06 @034   ----------------------------------------
 .byte   PATT
  .word Label_01569D9F
@  #06 @035   ----------------------------------------
 .byte   PATT
  .word Label_01569D9F
@  #06 @036   ----------------------------------------
 .byte   PATT
  .word Label_01569DB7
@  #06 @037   ----------------------------------------
 .byte   PATT
  .word Label_01569DB7
@  #06 @038   ----------------------------------------
 .byte   PATT
  .word Label_01569D9F
@  #06 @039   ----------------------------------------
 .byte   N12 ,Cn4 ,v116
 .byte   W12
 .byte   N06
 .byte   W12
 .byte   N12
 .byte   W12
 .byte   N06
 .byte   W12
 .byte   N12 ,Ds4
 .byte   W12
 .byte   N06
 .byte   W12
 .byte   N12
 .byte   W12
 .byte   N06
 .byte   W12
@  #06 @040   ----------------------------------------
 .byte   W96
@  #06 @041   ----------------------------------------
 .byte   W96
@  #06 @042   ----------------------------------------
 .byte   W96
@  #06 @043   ----------------------------------------
 .byte   W96
@  #06 @044   ----------------------------------------
 .byte   GOTO
  .word Label_01569CCA
 .byte   FINE

@**************** Track 7 (Midi-Chn.6) ****************@

song15_007:
@  #07 @000   ----------------------------------------
 .byte   VOL , 50*song15_mvl/mxv
 .byte   KEYSH , song15_key+0
Label_01715044:
 .byte   VOICE , 52
 .byte   W96
@  #07 @001   ----------------------------------------
 .byte   W96
@  #07 @002   ----------------------------------------
 .byte   W96
@  #07 @003   ----------------------------------------
 .byte   W96
@  #07 @004   ----------------------------------------
 .byte   W96
@  #07 @005   ----------------------------------------
 .byte   W96
@  #07 @006   ----------------------------------------
 .byte   W96
@  #07 @007   ----------------------------------------
 .byte   W96
@  #07 @008   ----------------------------------------
 .byte   W96
@  #07 @009   ----------------------------------------
 .byte   W96
@  #07 @010   ----------------------------------------
 .byte   W96
@  #07 @011   ----------------------------------------
 .byte   W96
@  #07 @012   ----------------------------------------
 .byte   W96
@  #07 @013   ----------------------------------------
 .byte   W96
@  #07 @014   ----------------------------------------
 .byte   W96
@  #07 @015   ----------------------------------------
 .byte   W96
@  #07 @016   ----------------------------------------
 .byte   W96
@  #07 @017   ----------------------------------------
 .byte   W96
@  #07 @018   ----------------------------------------
 .byte   W96
@  #07 @019   ----------------------------------------
 .byte   W96
@  #07 @020   ----------------------------------------
 .byte   W96
@  #07 @021   ----------------------------------------
 .byte   W96
@  #07 @022   ----------------------------------------
 .byte   W96
@  #07 @023   ----------------------------------------
 .byte   W96
@  #07 @024   ----------------------------------------
 .byte   W96
@  #07 @025   ----------------------------------------
 .byte   W96
@  #07 @026   ----------------------------------------
 .byte   W96
@  #07 @027   ----------------------------------------
 .byte   W96
@  #07 @028   ----------------------------------------
 .byte   W96
@  #07 @029   ----------------------------------------
 .byte   W96
@  #07 @030   ----------------------------------------
 .byte   W96
@  #07 @031   ----------------------------------------
 .byte   W96
@  #07 @032   ----------------------------------------
Label_01715066:
 .byte   N84 ,As2 ,v120
 .byte   W84
 .byte   N06 ,Cn3
 .byte   W06
 .byte   Cs3
 .byte   W06
 .byte   PEND 
@  #07 @033   ----------------------------------------
Label_01715070:
 .byte   N48 ,Ds3 ,v120
 .byte   W48
 .byte   Fn3
 .byte   W48
 .byte   PEND 
@  #07 @034   ----------------------------------------
 .byte   Gn3
 .byte   W48
 .byte   Cn3
 .byte   W48
@  #07 @035   ----------------------------------------
 .byte   As3
 .byte   W48
 .byte   Fn3
 .byte   W48
@  #07 @036   ----------------------------------------
 .byte   PATT
  .word Label_01715066
@  #07 @037   ----------------------------------------
 .byte   PATT
  .word Label_01715070
@  #07 @038   ----------------------------------------
 .byte   TIE ,As3 ,v120
 .byte   W96
@  #07 @039   ----------------------------------------
 .byte   W48
 .byte   EOT
 .byte   N48 ,Gs3
 .byte   W48
@  #07 @040   ----------------------------------------
 .byte   N96 ,Gn3
 .byte   W96
@  #07 @041   ----------------------------------------
 .byte   W96
@  #07 @042   ----------------------------------------
 .byte   W96
@  #07 @043   ----------------------------------------
 .byte   W96
@  #07 @044   ----------------------------------------
 .byte   GOTO
  .word Label_01715044
 .byte   FINE

@**************** Track 8 (Midi-Chn.7) ****************@

song15_008:
@  #08 @000   ----------------------------------------
 .byte   VOL , 50*song15_mvl/mxv
 .byte   KEYSH , song15_key+0
Label_01569E40:
 .byte   VOICE , 18
 .byte   W96
@  #08 @001   ----------------------------------------
 .byte   W96
@  #08 @002   ----------------------------------------
 .byte   W96
@  #08 @003   ----------------------------------------
 .byte   W96
@  #08 @004   ----------------------------------------
 .byte   W96
@  #08 @005   ----------------------------------------
 .byte   W96
@  #08 @006   ----------------------------------------
 .byte   W96
@  #08 @007   ----------------------------------------
 .byte   W96
@  #08 @008   ----------------------------------------
 .byte   W96
@  #08 @009   ----------------------------------------
 .byte   W96
@  #08 @010   ----------------------------------------
 .byte   W96
@  #08 @011   ----------------------------------------
 .byte   W96
@  #08 @012   ----------------------------------------
 .byte   W96
@  #08 @013   ----------------------------------------
 .byte   W96
@  #08 @014   ----------------------------------------
 .byte   W96
@  #08 @015   ----------------------------------------
 .byte   W96
@  #08 @016   ----------------------------------------
 .byte   W96
@  #08 @017   ----------------------------------------
 .byte   W96
@  #08 @018   ----------------------------------------
 .byte   W96
@  #08 @019   ----------------------------------------
 .byte   W96
@  #08 @020   ----------------------------------------
 .byte   W96
@  #08 @021   ----------------------------------------
 .byte   W96
@  #08 @022   ----------------------------------------
 .byte   W96
@  #08 @023   ----------------------------------------
 .byte   W96
@  #08 @024   ----------------------------------------
Label_01569E5A:
 .byte   W24
 .byte   N24 ,Gn3 ,v100
 .byte   N24 ,Ds4 ,v120
 .byte   W24
 .byte   Fn3 ,v100
 .byte   N24 ,Cs4 ,v120
 .byte   W24
 .byte   Ds3 ,v100
 .byte   N24 ,Cn4 ,v120
 .byte   W24
 .byte   PEND 
@  #08 @025   ----------------------------------------
Label_01569E6F:
 .byte   N24 ,Cs3 ,v100
 .byte   N24 ,As3 ,v120
 .byte   W24
 .byte   Cn3 ,v100
 .byte   N24 ,Gs3 ,v120
 .byte   W24
 .byte   As2 ,v100
 .byte   N24 ,Gn3 ,v120
 .byte   W24
 .byte   Gs2 ,v100
 .byte   N24 ,Fn3 ,v120
 .byte   W24
 .byte   PEND 
@  #08 @026   ----------------------------------------
Label_01569E89:
 .byte   W24
 .byte   N24 ,As2 ,v100
 .byte   N24 ,Gn3 ,v120
 .byte   W24
 .byte   Gs2 ,v100
 .byte   N24 ,Fn3 ,v120
 .byte   W24
 .byte   Gn2 ,v100
 .byte   N24 ,Ds3 ,v120
 .byte   W24
 .byte   PEND 
@  #08 @027   ----------------------------------------
Label_01569E9E:
 .byte   N24 ,Fn2 ,v100
 .byte   N24 ,Dn3 ,v120
 .byte   W24
 .byte   Gn2 ,v100
 .byte   N24 ,Ds3 ,v120
 .byte   W24
 .byte   Gs2 ,v100
 .byte   N24 ,Fn3 ,v120
 .byte   W24
 .byte   Fn2 ,v104
 .byte   N24 ,As2 ,v120
 .byte   W24
 .byte   PEND 
@  #08 @028   ----------------------------------------
Label_01569EB8:
 .byte   W24
 .byte   N24 ,Ds3 ,v100
 .byte   N24 ,Cn4 ,v120
 .byte   W24
 .byte   Fn3 ,v100
 .byte   N24 ,Cs4 ,v120
 .byte   W24
 .byte   Ds3 ,v100
 .byte   N24 ,Cn4 ,v120
 .byte   W24
 .byte   PEND 
@  #08 @029   ----------------------------------------
Label_01569ECD:
 .byte   N24 ,Cs3 ,v100
 .byte   N24 ,As3 ,v120
 .byte   W24
 .byte   Cn3 ,v100
 .byte   N24 ,Gs3 ,v120
 .byte   W24
 .byte   Gs2 ,v100
 .byte   N24 ,Fn3 ,v120
 .byte   W24
 .byte   As2 ,v100
 .byte   N24 ,Gn3 ,v120
 .byte   W24
 .byte   PEND 
@  #08 @030   ----------------------------------------
Label_01569EE7:
 .byte   W24
 .byte   N24 ,As2 ,v100
 .byte   N24 ,Gn3 ,v120
 .byte   W24
 .byte   Gs2 ,v100
 .byte   N24 ,Fn3 ,v120
 .byte   W24
 .byte   As2 ,v100
 .byte   N24 ,Gn3 ,v120
 .byte   W24
 .byte   PEND 
@  #08 @031   ----------------------------------------
Label_01569EFC:
 .byte   N24 ,Gs2 ,v100
 .byte   N24 ,Fn3 ,v120
 .byte   W24
 .byte   Gn2 ,v100
 .byte   N24 ,Ds3 ,v120
 .byte   W24
 .byte   Fn2 ,v100
 .byte   N24 ,Dn3 ,v120
 .byte   W24
 .byte   Gn2 ,v100
 .byte   N24 ,Ds3 ,v120
 .byte   W24
 .byte   PEND 
@  #08 @032   ----------------------------------------
 .byte   PATT
  .word Label_01569E5A
@  #08 @033   ----------------------------------------
 .byte   PATT
  .word Label_01569E6F
@  #08 @034   ----------------------------------------
 .byte   PATT
  .word Label_01569E89
@  #08 @035   ----------------------------------------
 .byte   PATT
  .word Label_01569E9E
@  #08 @036   ----------------------------------------
 .byte   PATT
  .word Label_01569EB8
@  #08 @037   ----------------------------------------
 .byte   PATT
  .word Label_01569ECD
@  #08 @038   ----------------------------------------
 .byte   PATT
  .word Label_01569EE7
@  #08 @039   ----------------------------------------
 .byte   PATT
  .word Label_01569EFC
@  #08 @040   ----------------------------------------
 .byte   W96
@  #08 @041   ----------------------------------------
 .byte   W96
@  #08 @042   ----------------------------------------
 .byte   W96
@  #08 @043   ----------------------------------------
 .byte   W96
@  #08 @044   ----------------------------------------
 .byte   GOTO
  .word Label_01569E40
 .byte   FINE

@**************** Track 9 (Midi-Chn.8) ****************@

song15_009:
@  #09 @000   ----------------------------------------
 .byte   VOL , 50*song15_mvl/mxv
 .byte   KEYSH , song15_key+0
Label_01569F60:
 .byte   VOICE , 61
 .byte   W96
@  #09 @001   ----------------------------------------
 .byte   W96
@  #09 @002   ----------------------------------------
 .byte   W96
@  #09 @003   ----------------------------------------
 .byte   W96
@  #09 @004   ----------------------------------------
 .byte   W96
@  #09 @005   ----------------------------------------
 .byte   W96
@  #09 @006   ----------------------------------------
 .byte   W96
@  #09 @007   ----------------------------------------
 .byte   W96
@  #09 @008   ----------------------------------------
 .byte   W96
@  #09 @009   ----------------------------------------
 .byte   W96
@  #09 @010   ----------------------------------------
 .byte   W96
@  #09 @011   ----------------------------------------
 .byte   W96
@  #09 @012   ----------------------------------------
 .byte   W96
@  #09 @013   ----------------------------------------
 .byte   W96
@  #09 @014   ----------------------------------------
 .byte   W96
@  #09 @015   ----------------------------------------
 .byte   W96
@  #09 @016   ----------------------------------------
 .byte   W96
@  #09 @017   ----------------------------------------
 .byte   W96
@  #09 @018   ----------------------------------------
 .byte   W96
@  #09 @019   ----------------------------------------
 .byte   W96
@  #09 @020   ----------------------------------------
 .byte   W96
@  #09 @021   ----------------------------------------
 .byte   W96
@  #09 @022   ----------------------------------------
 .byte   W96
@  #09 @023   ----------------------------------------
 .byte   W96
@  #09 @024   ----------------------------------------
Label_01569F7A:
 .byte   N84 ,Ds2 ,v112
 .byte   N84 ,Fn2
 .byte   N84 ,As2
 .byte   W84
 .byte   N06 ,Cn3
 .byte   W06
 .byte   Cs3
 .byte   W06
 .byte   PEND 
@  #09 @025   ----------------------------------------
Label_01569F88:
 .byte   N48 ,Gs2 ,v112
 .byte   N48 ,Cn3
 .byte   N48 ,Ds3
 .byte   W48
 .byte   As2
 .byte   N48 ,Cs3
 .byte   N48 ,Fn3
 .byte   W48
 .byte   PEND 
@  #09 @026   ----------------------------------------
Label_01569F97:
 .byte   N48 ,Cn3 ,v112
 .byte   N48 ,Ds3
 .byte   N48 ,Gn3
 .byte   W48
 .byte   En2
 .byte   N48 ,Cn3
 .byte   W48
 .byte   PEND 
@  #09 @027   ----------------------------------------
Label_01569FA4:
 .byte   N48 ,Dn3 ,v112
 .byte   N48 ,As3
 .byte   W48
 .byte   As2
 .byte   N48 ,Fn3
 .byte   W48
 .byte   PEND 
@  #09 @028   ----------------------------------------
 .byte   PATT
  .word Label_01569F7A
@  #09 @029   ----------------------------------------
 .byte   PATT
  .word Label_01569F88
@  #09 @030   ----------------------------------------
Label_01569FB9:
 .byte   N48 ,Cn3 ,v112
 .byte   N48 ,Ds3
 .byte   N48 ,Gn3
 .byte   W48
 .byte   Cn3
 .byte   N48 ,Fn3
 .byte   N48 ,Gs3
 .byte   W48
 .byte   PEND 
@  #09 @031   ----------------------------------------
 .byte   PATT
  .word Label_01569FA4
@  #09 @032   ----------------------------------------
 .byte   PATT
  .word Label_01569F7A
@  #09 @033   ----------------------------------------
 .byte   PATT
  .word Label_01569F88
@  #09 @034   ----------------------------------------
 .byte   PATT
  .word Label_01569F97
@  #09 @035   ----------------------------------------
 .byte   PATT
  .word Label_01569FA4
@  #09 @036   ----------------------------------------
 .byte   PATT
  .word Label_01569F7A
@  #09 @037   ----------------------------------------
 .byte   PATT
  .word Label_01569F88
@  #09 @038   ----------------------------------------
 .byte   PATT
  .word Label_01569FB9
@  #09 @039   ----------------------------------------
 .byte   PATT
  .word Label_01569FA4
@  #09 @040   ----------------------------------------
 .byte   W96
@  #09 @041   ----------------------------------------
 .byte   W96
@  #09 @042   ----------------------------------------
 .byte   W96
@  #09 @043   ----------------------------------------
 .byte   W96
@  #09 @044   ----------------------------------------
 .byte   GOTO
  .word Label_01569F60
 .byte   FINE

@**************** Track 10 (Midi-Chn.9) ****************@

song15_010:
@  #10 @000   ----------------------------------------
 .byte   VOL , 50*song15_mvl/mxv
 .byte   KEYSH , song15_key+0
Label_0156A018:
 .byte   VOICE , 124
 .byte   N06 ,Cn1 ,v127
 .byte   W24
 .byte   N06
 .byte   W24
 .byte   N06
 .byte   W24
 .byte   N06
 .byte   W24
@  #10 @001   ----------------------------------------
 .byte   N06
 .byte   W24
 .byte   N06
 .byte   W24
 .byte   N06
 .byte   W24
 .byte   N06
 .byte   W12
 .byte   Dn1
 .byte   W06
 .byte   N06
 .byte   N06 ,Fs1
 .byte   W06
@  #10 @002   ----------------------------------------
 .byte   Cn1
 .byte   W24
 .byte   N06
 .byte   W24
 .byte   N06
 .byte   W24
 .byte   N06
 .byte   W24
@  #10 @003   ----------------------------------------
 .byte   N06
 .byte   W24
 .byte   N06
 .byte   W24
 .byte   N06
 .byte   W24
 .byte   N06
 .byte   W12
 .byte   Dn1
 .byte   W06
 .byte   N06
 .byte   N06 ,Fs1
 .byte   N06 ,Cs2
 .byte   W06
@  #10 @004   ----------------------------------------
Label_0156A04A:
 .byte   N06 ,Cn1 ,v127
 .byte   N06 ,Fs1
 .byte   W24
 .byte   Cn1
 .byte   N06 ,Dn1
 .byte   W24
 .byte   Cn1
 .byte   N06 ,Fs1
 .byte   W24
 .byte   Cn1
 .byte   N06 ,Dn1
 .byte   W24
 .byte   PEND 
@  #10 @005   ----------------------------------------
 .byte   PATT
  .word Label_0156A04A
@  #10 @006   ----------------------------------------
 .byte   PATT
  .word Label_0156A04A
@  #10 @007   ----------------------------------------
 .byte   PATT
  .word Label_0156A04A
@  #10 @008   ----------------------------------------
 .byte   PATT
  .word Label_0156A04A
@  #10 @009   ----------------------------------------
 .byte   PATT
  .word Label_0156A04A
@  #10 @010   ----------------------------------------
 .byte   PATT
  .word Label_0156A04A
@  #10 @011   ----------------------------------------
 .byte   PATT
  .word Label_0156A04A
@  #10 @012   ----------------------------------------
 .byte   PATT
  .word Label_0156A04A
@  #10 @013   ----------------------------------------
 .byte   PATT
  .word Label_0156A04A
@  #10 @014   ----------------------------------------
 .byte   PATT
  .word Label_0156A04A
@  #10 @015   ----------------------------------------
 .byte   PATT
  .word Label_0156A04A
@  #10 @016   ----------------------------------------
 .byte   PATT
  .word Label_0156A04A
@  #10 @017   ----------------------------------------
 .byte   PATT
  .word Label_0156A04A
@  #10 @018   ----------------------------------------
 .byte   PATT
  .word Label_0156A04A
@  #10 @019   ----------------------------------------
 .byte   PATT
  .word Label_0156A04A
@  #10 @020   ----------------------------------------
 .byte   W96
@  #10 @021   ----------------------------------------
 .byte   W96
@  #10 @022   ----------------------------------------
 .byte   W96
@  #10 @023   ----------------------------------------
 .byte   W84
 .byte   N06 ,Dn1 ,v127
 .byte   W06
 .byte   N06
 .byte   N06 ,Fs1
 .byte   W06
@  #10 @024   ----------------------------------------
Label_0156A0B4:
 .byte   N06 ,Cn1 ,v127
 .byte   N06 ,Fs1
 .byte   W12
 .byte   N06
 .byte   W06
 .byte   N06
 .byte   W06
 .byte   Cn1
 .byte   W12
 .byte   Fs1
 .byte   W06
 .byte   N06
 .byte   W06
 .byte   Dn1
 .byte   W12
 .byte   Fs1
 .byte   W06
 .byte   N06
 .byte   W06
 .byte   Cn1
 .byte   W12
 .byte   Dn1
 .byte   W06
 .byte   Fs1
 .byte   W06
 .byte   PEND 
@  #10 @025   ----------------------------------------
 .byte   PATT
  .word Label_0156A0B4
@  #10 @026   ----------------------------------------
 .byte   PATT
  .word Label_0156A0B4
@  #10 @027   ----------------------------------------
 .byte   PATT
  .word Label_0156A0B4
@  #10 @028   ----------------------------------------
 .byte   PATT
  .word Label_0156A0B4
@  #10 @029   ----------------------------------------
 .byte   PATT
  .word Label_0156A0B4
@  #10 @030   ----------------------------------------
 .byte   PATT
  .word Label_0156A0B4
@  #10 @031   ----------------------------------------
 .byte   PATT
  .word Label_0156A0B4
@  #10 @032   ----------------------------------------
 .byte   PATT
  .word Label_0156A0B4
@  #10 @033   ----------------------------------------
 .byte   PATT
  .word Label_0156A0B4
@  #10 @034   ----------------------------------------
 .byte   PATT
  .word Label_0156A0B4
@  #10 @035   ----------------------------------------
 .byte   PATT
  .word Label_0156A0B4
@  #10 @036   ----------------------------------------
 .byte   PATT
  .word Label_0156A0B4
@  #10 @037   ----------------------------------------
 .byte   PATT
  .word Label_0156A0B4
@  #10 @038   ----------------------------------------
 .byte   N06 ,Cn1 ,v127
 .byte   N06 ,Fs1
 .byte   W48
 .byte   Cn1
 .byte   N06 ,Fs1
 .byte   W48
@  #10 @039   ----------------------------------------
 .byte   Dn1
 .byte   N06 ,Fs1
 .byte   W48
 .byte   Cn1
 .byte   N06 ,Fs1
 .byte   W48
@  #10 @040   ----------------------------------------
 .byte   PATT
  .word Label_0156A04A
@  #10 @041   ----------------------------------------
 .byte   PATT
  .word Label_0156A04A
@  #10 @042   ----------------------------------------
 .byte   PATT
  .word Label_0156A04A
@  #10 @043   ----------------------------------------
 .byte   PATT
  .word Label_0156A04A
@  #10 @044   ----------------------------------------
 .byte   GOTO
  .word Label_0156A018
 .byte   FINE

@******************************************************@
	.align	2

song15:
	.byte	10	@ NumTrks
	.byte	0	@ NumBlks
	.byte	song15_pri	@ Priority
	.byte	song15_rev	@ Reverb.
    
	.word	song15_grp
    
	.word	song15_001
	.word	song15_002
	.word	song15_003
	.word	song15_004
	.word	song15_005
	.word	song15_006
	.word	song15_007
	.word	song15_008
	.word	song15_009
	.word	song15_010

	.end
