	.include "MPlayDef.s"

	.equ	TremblingEarth_grp, voicegroup000
	.equ	TremblingEarth_pri, 0
	.equ	TremblingEarth_rev, 0
	.equ	TremblingEarth_mvl, 127
	.equ	TremblingEarth_key, 0
	.equ	TremblingEarth_tbs, 1
	.equ	TremblingEarth_exg, 0
	.equ	TremblingEarth_cmp, 1

	.section .rodata
	.global	TremblingEarth
	.align	2


@**************** Track 1 (Midi-Chn.0) ****************@

TremblingEarth_001:
@  #01 @000   ----------------------------------------
 .byte   KEYSH , TremblingEarth_key+0
 .byte   TEMPO , 180*TremblingEarth_tbs/2
 .byte   VOICE , 19
 .byte   VOL , 32*TremblingEarth_mvl/mxv
 .byte   PAN , c_v-2
 .byte   W96
@  #01 @001   ----------------------------------------
 .byte   W96
@  #01 @002   ----------------------------------------
 .byte   W96
@  #01 @003   ----------------------------------------
 .byte   W96
@  #01 @004   ----------------------------------------
 .byte   W96
@  #01 @005   ----------------------------------------
 .byte   W96
@  #01 @006   ----------------------------------------
Label_018E39D4:
 .byte   W24
 .byte   N24 ,Fs3 ,v092
 .byte   N24 ,As3 ,v120
 .byte   W24
 .byte   Fs3 ,v092
 .byte   N24 ,Gs3 ,v120
 .byte   W24
 .byte   N96 ,Gs3 ,v092
 .byte   N96 ,Bn3 ,v120
 .byte   W24
 .byte   PEND 
@  #01 @007   ----------------------------------------
Label_018E39EA:
 .byte   W72
 .byte   N24 ,Ds3 ,v092
 .byte   N24 ,Gs3 ,v120
 .byte   W24
 .byte   PEND 
@  #01 @008   ----------------------------------------
Label_018E39F3:
 .byte   N24 ,Ds3 ,v092
 .byte   N24 ,Fs3 ,v120
 .byte   W24
 .byte   N96 ,Fs3 ,v092
 .byte   N96 ,As3 ,v120
 .byte   W72
 .byte   PEND 
@  #01 @009   ----------------------------------------
Label_018E3A02:
 .byte   W24
 .byte   N24 ,Cs3 ,v092
 .byte   N24 ,Fn3 ,v120
 .byte   W24
 .byte   Ds3 ,v092
 .byte   N24 ,Fs3 ,v120
 .byte   W24
 .byte   N96 ,Ds3 ,v092
 .byte   N96 ,Gs3 ,v120
 .byte   W24
 .byte   PEND 
@  #01 @010   ----------------------------------------
Label_018E3A18:
 .byte   W72
 .byte   N24 ,As2 ,v092
 .byte   N24 ,Ds3 ,v120
 .byte   W24
 .byte   PEND 
@  #01 @011   ----------------------------------------
Label_018E3A21:
 .byte   N24 ,Cs3 ,v092
 .byte   N24 ,Fn3 ,v120
 .byte   W24
 .byte   N72 ,Ds3 ,v092
 .byte   N72 ,Fs3 ,v120
 .byte   W72
 .byte   PEND 
@  #01 @012   ----------------------------------------
 .byte   PATT
  .word Label_018E39D4
@  #01 @013   ----------------------------------------
 .byte   PATT
  .word Label_018E39EA
@  #01 @014   ----------------------------------------
 .byte   PATT
  .word Label_018E39F3
@  #01 @015   ----------------------------------------
 .byte   PATT
  .word Label_018E3A02
@  #01 @016   ----------------------------------------
 .byte   PATT
  .word Label_018E3A18
@  #01 @017   ----------------------------------------
 .byte   PATT
  .word Label_018E3A21
@  #01 @018   ----------------------------------------
 .byte   W96
@  #01 @019   ----------------------------------------
 .byte   W96
@  #01 @020   ----------------------------------------
 .byte   W96
@  #01 @021   ----------------------------------------
 .byte   W96
@  #01 @022   ----------------------------------------
 .byte   W96
@  #01 @023   ----------------------------------------
 .byte   W96
@  #01 @024   ----------------------------------------
 .byte   W96
@  #01 @025   ----------------------------------------
 .byte   W96
@  #01 @026   ----------------------------------------
 .byte   W96
@  #01 @027   ----------------------------------------
 .byte   W96
@  #01 @028   ----------------------------------------
 .byte   W96
@  #01 @029   ----------------------------------------
 .byte   W96
@  #01 @030   ----------------------------------------
 .byte   W96
@  #01 @031   ----------------------------------------
 .byte   W96
@  #01 @032   ----------------------------------------
 .byte   W96
@  #01 @033   ----------------------------------------
 .byte   PATT
  .word Label_018E39D4
@  #01 @034   ----------------------------------------
 .byte   PATT
  .word Label_018E39EA
@  #01 @035   ----------------------------------------
 .byte   PATT
  .word Label_018E39F3
@  #01 @036   ----------------------------------------
 .byte   PATT
  .word Label_018E3A02
@  #01 @037   ----------------------------------------
 .byte   PATT
  .word Label_018E3A18
@  #01 @038   ----------------------------------------
 .byte   PATT
  .word Label_018E3A21
@  #01 @039   ----------------------------------------
 .byte   W48
 .byte   N48 ,Fs2 ,v092
 .byte   N48 ,As2 ,v120
 .byte   W48
@  #01 @040   ----------------------------------------
 .byte   As2 ,v092
 .byte   N48 ,Ds3 ,v120
 .byte   W48
 .byte   Ds3 ,v092
 .byte   N48 ,Fs3 ,v120
 .byte   W48
@  #01 @041   ----------------------------------------
 .byte   Fn3 ,v092
 .byte   N48 ,Gs3 ,v120
 .byte   W48
 .byte   Fs3 ,v092
 .byte   N48 ,As3 ,v120
 .byte   W48
@  #01 @042   ----------------------------------------
 .byte   Gs3 ,v092
 .byte   N48 ,Bn3 ,v120
 .byte   W48
 .byte   Fs3 ,v092
 .byte   N48 ,As3 ,v120
 .byte   W48
@  #01 @043   ----------------------------------------
 .byte   TIE ,Fn3 ,v092
 .byte   TIE ,Gs3 ,v120
 .byte   W96
@  #01 @044   ----------------------------------------
 .byte   W96
@  #01 @045   ----------------------------------------
 .byte   EOT
 .byte   Fn3 ,v068
Label_018E3AB2:
 .byte   TIE ,Ds3 ,v092
 .byte   TIE ,Fs3 ,v120
 .byte   W96
 .byte   PEND 
@  #01 @046   ----------------------------------------
 .byte   W96
@  #01 @047   ----------------------------------------
 .byte   EOT
 .byte   Ds3 ,v066
 .byte   TIE ,Cs3 ,v092
 .byte   TIE ,Fn3 ,v120
 .byte   W96
@  #01 @048   ----------------------------------------
 .byte   W96
@  #01 @049   ----------------------------------------
 .byte   EOT
 .byte   Cs3 ,v065
@  #01 @050   ----------------------------------------
 .byte   PATT
  .word Label_018E3AB2
@  #01 @051   ----------------------------------------
 .byte   W96
@  #01 @052   ----------------------------------------
 .byte   EOT
 .byte   Ds3 ,v066
 .byte   TIE ,Ds3 ,v112
 .byte   TIE ,As3
 .byte   W96
@  #01 @053   ----------------------------------------
 .byte   W96
@  #01 @054   ----------------------------------------
 .byte   EOT
 .byte   Ds3 ,v070
 .byte   TIE ,Dn3
 .byte   TIE ,Gs3
 .byte   W96
@  #01 @055   ----------------------------------------
 .byte   W96
@  #01 @056   ----------------------------------------
 .byte   EOT
 .byte   Dn3 ,v068
 .byte   TIE ,Cs3
 .byte   TIE ,Gn3
 .byte   W96
@  #01 @057   ----------------------------------------
 .byte   W48
 .byte   EOT
 .byte   N24 ,Gs3
 .byte   W24
 .byte   As3
 .byte   W24
@  #01 @058   ----------------------------------------
 .byte   EOT
 .byte   Cs3
 .byte   TIE ,Ds3
 .byte   TIE ,Bn3
 .byte   W96
@  #01 @059   ----------------------------------------
 .byte   W96
@  #01 @060   ----------------------------------------
 .byte   EOT
 .byte   Ds3 ,v071
 .byte   TIE ,Fn3
 .byte   TIE ,Bn3
 .byte   W96
@  #01 @061   ----------------------------------------
 .byte   W48
 .byte   EOT
 .byte   N24 ,Cn4
 .byte   W24
 .byte   Dn4
 .byte   W24
@  #01 @062   ----------------------------------------
 .byte   EOT
 .byte   Fn3
 .byte   TIE ,Gn3
 .byte   TIE ,Ds4
 .byte   W96
@  #01 @063   ----------------------------------------
 .byte   W96
@  #01 @064   ----------------------------------------
 .byte   EOT
 .byte   Gn3 ,v075
 .byte   N12 ,Gn3 ,v100
 .byte   W12
 .byte   Dn4
 .byte   W12
 .byte   Cn4
 .byte   W12
 .byte   Dn4
 .byte   W12
 .byte   Ds4
 .byte   W12
 .byte   Cn4
 .byte   W12
 .byte   Dn4
 .byte   W12
 .byte   Bn3
 .byte   W12
@  #01 @065   ----------------------------------------
 .byte   Cn4
 .byte   W12
 .byte   An3
 .byte   W12
 .byte   Bn3
 .byte   W12
 .byte   Cn4
 .byte   W12
 .byte   Bn3
 .byte   W12
 .byte   Cn4
 .byte   W12
 .byte   Bn3
 .byte   W12
 .byte   An3
 .byte   W12
@  #01 @066   ----------------------------------------
 .byte   Bn3
 .byte   W12
 .byte   Gn3
 .byte   W12
 .byte   Dn3
 .byte   W12
 .byte   Ds3
 .byte   W12
 .byte   Fn3
 .byte   W12
 .byte   Gn3
 .byte   W12
 .byte   Gs3
 .byte   W12
 .byte   Fn3
 .byte   W12
@  #01 @067   ----------------------------------------
 .byte   Gn3
 .byte   W12
 .byte   Ds4
 .byte   W12
 .byte   Dn4
 .byte   W12
 .byte   Ds4
 .byte   W12
 .byte   Fn4
 .byte   W12
 .byte   Dn4
 .byte   W12
 .byte   Ds4
 .byte   W12
 .byte   Cn4
 .byte   W12
@  #01 @068   ----------------------------------------
 .byte   Dn4
 .byte   W12
 .byte   Bn3
 .byte   W12
 .byte   Cn4
 .byte   W12
 .byte   Dn4
 .byte   W12
 .byte   Cn4
 .byte   W12
 .byte   Dn4
 .byte   W12
 .byte   Cn4
 .byte   W12
 .byte   Bn3
 .byte   W12
@  #01 @069   ----------------------------------------
 .byte   Cn4
 .byte   W12
 .byte   Gs3
 .byte   W12
 .byte   Fn3
 .byte   W12
 .byte   Gn3
 .byte   W12
 .byte   Fn3
 .byte   W12
 .byte   Ds3
 .byte   W12
 .byte   Dn3
 .byte   W12
 .byte   Cn3
 .byte   W12
@  #01 @070   ----------------------------------------
 .byte   W96
@  #01 @071   ----------------------------------------
 .byte   W96
@  #01 @072   ----------------------------------------
 .byte   W96
@  #01 @073   ----------------------------------------
 .byte   W96
@  #01 @074   ----------------------------------------
 .byte   W96
@  #01 @075   ----------------------------------------
 .byte   W96
@  #01 @076   ----------------------------------------
 .byte   W96
@  #01 @077   ----------------------------------------
 .byte   W96
@  #01 @078   ----------------------------------------
 .byte   W96
@  #01 @079   ----------------------------------------
 .byte   W96
@  #01 @080   ----------------------------------------
 .byte   W96
@  #01 @081   ----------------------------------------
 .byte   W96
@  #01 @082   ----------------------------------------
 .byte   W96
@  #01 @083   ----------------------------------------
 .byte   W96
@  #01 @084   ----------------------------------------
 .byte   W96
@  #01 @085   ----------------------------------------
 .byte   GOTO
  .word Label_018E39D4
 .byte   FINE

@**************** Track 2 (Midi-Chn.1) ****************@

TremblingEarth_002:
@  #02 @000   ----------------------------------------
 .byte   KEYSH , TremblingEarth_key+0
 .byte   VOICE , 19
 .byte   VOL , 31*TremblingEarth_mvl/mxv
 .byte   PAN , c_v-1
 .byte   TIE ,Ds2 ,v120
 .byte   W96
@  #02 @001   ----------------------------------------
 .byte   W48
 .byte   En2
 .byte   W48
@  #02 @002   ----------------------------------------
 .byte   W96
@  #02 @003   ----------------------------------------
 .byte   EOT
 .byte   Ds2 ,v052
Label_018E3B9D:
 .byte   TIE ,Ds2 ,v120
 .byte   TIE ,Fs2 ,v112
 .byte   W96
 .byte   PEND 
@  #02 @004   ----------------------------------------
 .byte   W96
@  #02 @005   ----------------------------------------
 .byte   W96
@  #02 @006   ----------------------------------------
 .byte   EOT
 .byte   Ds2 ,v054
Label_018E3BAA:
@  #02 @007   ----------------------------------------
 .byte   PATT
  .word Label_018E3B9D
@  #02 @008   ----------------------------------------
 .byte   W96
@  #02 @009   ----------------------------------------
 .byte   W96
@  #02 @010   ----------------------------------------
 .byte   EOT
 .byte   Ds2 ,v054
@  #02 @011   ----------------------------------------
 .byte   PATT
  .word Label_018E3B9D
@  #02 @012   ----------------------------------------
 .byte   W96
@  #02 @013   ----------------------------------------
 .byte   W96
@  #02 @014   ----------------------------------------
 .byte   EOT
 .byte   Ds2 ,v054
@  #02 @015   ----------------------------------------
 .byte   PATT
  .word Label_018E3B9D
@  #02 @016   ----------------------------------------
 .byte   W96
@  #02 @017   ----------------------------------------
 .byte   W96
@  #02 @018   ----------------------------------------
 .byte   EOT
 .byte   Ds2 ,v054
@  #02 @019   ----------------------------------------
 .byte   PATT
  .word Label_018E3B9D
@  #02 @020   ----------------------------------------
 .byte   W96
@  #02 @021   ----------------------------------------
 .byte   W96
@  #02 @022   ----------------------------------------
 .byte   EOT
 .byte   Ds2 ,v054
 .byte   TIE ,Ds2 ,v127
 .byte   TIE ,As2
 .byte   W96
@  #02 @023   ----------------------------------------
 .byte   W96
@  #02 @024   ----------------------------------------
 .byte   W96
@  #02 @025   ----------------------------------------
 .byte   EOT
 .byte   Ds2 ,v058
 .byte   W96
@  #02 @026   ----------------------------------------
 .byte   W96
@  #02 @027   ----------------------------------------
 .byte   W96
@  #02 @028   ----------------------------------------
 .byte   W96
@  #02 @029   ----------------------------------------
 .byte   W96
@  #02 @030   ----------------------------------------
 .byte   W96
@  #02 @031   ----------------------------------------
 .byte   W96
@  #02 @032   ----------------------------------------
 .byte   W96
@  #02 @033   ----------------------------------------
 .byte   W96
@  #02 @034   ----------------------------------------
 .byte   W96
@  #02 @035   ----------------------------------------
 .byte   W96
@  #02 @036   ----------------------------------------
 .byte   W96
@  #02 @037   ----------------------------------------
 .byte   PATT
  .word Label_018E3B9D
@  #02 @038   ----------------------------------------
 .byte   W96
@  #02 @039   ----------------------------------------
 .byte   W96
@  #02 @040   ----------------------------------------
 .byte   EOT
 .byte   Ds2 ,v054
@  #02 @041   ----------------------------------------
 .byte   PATT
  .word Label_018E3B9D
@  #02 @042   ----------------------------------------
 .byte   W96
@  #02 @043   ----------------------------------------
 .byte   W96
@  #02 @044   ----------------------------------------
 .byte   EOT
 .byte   Ds2 ,v054
 .byte   W96
@  #02 @045   ----------------------------------------
 .byte   W96
@  #02 @046   ----------------------------------------
 .byte   W96
@  #02 @047   ----------------------------------------
 .byte   W96
@  #02 @048   ----------------------------------------
 .byte   W96
@  #02 @049   ----------------------------------------
 .byte   W96
@  #02 @050   ----------------------------------------
 .byte   W96
@  #02 @051   ----------------------------------------
 .byte   W96
@  #02 @052   ----------------------------------------
 .byte   W96
@  #02 @053   ----------------------------------------
 .byte   W96
@  #02 @054   ----------------------------------------
 .byte   W96
@  #02 @055   ----------------------------------------
 .byte   W96
@  #02 @056   ----------------------------------------
 .byte   W96
@  #02 @057   ----------------------------------------
 .byte   W96
@  #02 @058   ----------------------------------------
 .byte   W96
@  #02 @059   ----------------------------------------
 .byte   W96
@  #02 @060   ----------------------------------------
 .byte   W96
@  #02 @061   ----------------------------------------
 .byte   W96
@  #02 @062   ----------------------------------------
 .byte   W96
@  #02 @063   ----------------------------------------
 .byte   W96
@  #02 @064   ----------------------------------------
 .byte   W96
@  #02 @065   ----------------------------------------
 .byte   W96
@  #02 @066   ----------------------------------------
 .byte   W96
@  #02 @067   ----------------------------------------
 .byte   W96
@  #02 @068   ----------------------------------------
 .byte   N12 ,Dn3 ,v127
 .byte   W12
 .byte   Bn3
 .byte   W12
 .byte   An3
 .byte   W12
 .byte   Bn3
 .byte   W12
 .byte   Cn4
 .byte   W12
 .byte   An3
 .byte   W12
 .byte   Bn3
 .byte   W12
 .byte   Gn3
 .byte   W12
@  #02 @069   ----------------------------------------
 .byte   Gs3
 .byte   W12
 .byte   Fn3
 .byte   W12
 .byte   Gn3
 .byte   W12
 .byte   Gs3
 .byte   W12
 .byte   Gn3
 .byte   W12
 .byte   Gs3
 .byte   W12
 .byte   Gn3
 .byte   W12
 .byte   Fn3
 .byte   W12
@  #02 @070   ----------------------------------------
 .byte   Gn3
 .byte   W12
 .byte   Dn3
 .byte   W12
 .byte   Bn2
 .byte   W12
 .byte   Cn3
 .byte   W12
 .byte   Dn3
 .byte   W12
 .byte   Ds3
 .byte   W12
 .byte   Fn3
 .byte   W12
 .byte   Dn3
 .byte   W12
@  #02 @071   ----------------------------------------
 .byte   Ds3
 .byte   W12
 .byte   Cn4
 .byte   W12
 .byte   Bn3
 .byte   W12
 .byte   Cn4
 .byte   W12
 .byte   Dn4
 .byte   W12
 .byte   Bn3
 .byte   W12
 .byte   Cn4
 .byte   W12
 .byte   Gn3
 .byte   W12
@  #02 @072   ----------------------------------------
 .byte   Bn3
 .byte   W12
 .byte   Gn3
 .byte   W12
 .byte   An3
 .byte   W12
 .byte   Bn3
 .byte   W12
 .byte   Gs3
 .byte   W12
 .byte   As3
 .byte   W12
 .byte   Gs3
 .byte   W12
 .byte   Gn3
 .byte   W12
@  #02 @073   ----------------------------------------
 .byte   Gs3
 .byte   W12
 .byte   Fn3
 .byte   W12
 .byte   Dn3
 .byte   W12
 .byte   Ds3
 .byte   W12
 .byte   Dn3
 .byte   W12
 .byte   Cn3
 .byte   W12
 .byte   As2
 .byte   W12
 .byte   Gs2
 .byte   W12
@  #02 @074   ----------------------------------------
 .byte   W96
@  #02 @075   ----------------------------------------
 .byte   W96
@  #02 @076   ----------------------------------------
 .byte   W96
@  #02 @077   ----------------------------------------
 .byte   W96
@  #02 @078   ----------------------------------------
 .byte   W96
@  #02 @079   ----------------------------------------
 .byte   W96
@  #02 @080   ----------------------------------------
 .byte   W96
@  #02 @081   ----------------------------------------
 .byte   W96
@  #02 @082   ----------------------------------------
 .byte   W96
@  #02 @083   ----------------------------------------
 .byte   W96
@  #02 @084   ----------------------------------------
 .byte   W96
@  #02 @085   ----------------------------------------
 .byte   W96
@  #02 @086   ----------------------------------------
 .byte   PATT
  .word Label_018E3B9D
@  #02 @087   ----------------------------------------
 .byte   W96
@  #02 @088   ----------------------------------------
 .byte   W96
@  #02 @089   ----------------------------------------
 .byte   EOT
 .byte   Ds2 ,v054
 .byte   GOTO
  .word Label_018E3BAA
 .byte   FINE

@**************** Track 3 (Midi-Chn.2) ****************@

TremblingEarth_003:
@  #03 @000   ----------------------------------------
 .byte   KEYSH , TremblingEarth_key+0
 .byte   VOICE , 40
 .byte   VOL , 28*TremblingEarth_mvl/mxv
 .byte   PAN , c_v-24
 .byte   W96
@  #03 @001   ----------------------------------------
 .byte   W96
@  #03 @002   ----------------------------------------
 .byte   W96
@  #03 @003   ----------------------------------------
 .byte   W96
@  #03 @004   ----------------------------------------
 .byte   W96
@  #03 @005   ----------------------------------------
 .byte   W96
@  #03 @006   ----------------------------------------
Label_018E3CA1:
 .byte   W96
@  #03 @007   ----------------------------------------
 .byte   W96
@  #03 @008   ----------------------------------------
 .byte   W96
@  #03 @009   ----------------------------------------
 .byte   W96
@  #03 @010   ----------------------------------------
 .byte   W96
@  #03 @011   ----------------------------------------
 .byte   W96
@  #03 @012   ----------------------------------------
 .byte   W96
@  #03 @013   ----------------------------------------
 .byte   W96
@  #03 @014   ----------------------------------------
 .byte   W96
@  #03 @015   ----------------------------------------
 .byte   W96
@  #03 @016   ----------------------------------------
 .byte   W96
@  #03 @017   ----------------------------------------
 .byte   W96
@  #03 @018   ----------------------------------------
 .byte   W72
 .byte   N72 ,As3 ,v100
 .byte   W24
@  #03 @019   ----------------------------------------
 .byte   W48
 .byte   Ds4
 .byte   W48
@  #03 @020   ----------------------------------------
 .byte   W24
 .byte   Gs4
 .byte   W72
@  #03 @021   ----------------------------------------
 .byte   TIE ,Fs4 ,v092
 .byte   W72
 .byte   W01
 .byte   W01
 .byte   W01
 .byte   W01
 .byte   W01
 .byte   W01
 .byte   W01
 .byte   W01
 .byte   W01
 .byte   W01
 .byte   W01
 .byte   W01
 .byte   W01
 .byte   W01
 .byte   W01
 .byte   W01
 .byte   W01
 .byte   W01
 .byte   W01
 .byte   W01
 .byte   W01
 .byte   W01
 .byte   W01
 .byte   W01
@  #03 @022   ----------------------------------------
 .byte   W01
 .byte   W01
 .byte   W01
 .byte   W01
 .byte   W01
 .byte   W01
 .byte   W01
 .byte   W01
 .byte   W01
 .byte   W01
 .byte   W01
 .byte   W01
 .byte   W01
 .byte   W01
 .byte   W01
 .byte   W01
 .byte   W01
 .byte   W01
 .byte   W01
 .byte   W01
 .byte   W01
 .byte   W01
 .byte   W01
 .byte   W01
 .byte   W01
 .byte   W01
 .byte   W01
 .byte   W01
 .byte   W01
 .byte   W01
 .byte   W01
 .byte   W01
 .byte   W01
 .byte   W01
 .byte   W01
 .byte   W01
 .byte   W01
 .byte   W01
 .byte   W01
 .byte   W01
 .byte   W01
 .byte   W01
 .byte   W01
 .byte   W01
 .byte   W01
 .byte   W01
 .byte   W01
 .byte   W01
 .byte   EOT
 .byte   W48
@  #03 @023   ----------------------------------------
 .byte   W24
 .byte   W72
@  #03 @024   ----------------------------------------
 .byte   W96
@  #03 @025   ----------------------------------------
 .byte   W96
@  #03 @026   ----------------------------------------
 .byte   W96
@  #03 @027   ----------------------------------------
 .byte   N48 ,Ds4 ,v112
 .byte   W48
 .byte   N12 ,Fn4
 .byte   W12
 .byte   Fs4
 .byte   W12
 .byte   N24 ,Gs4
 .byte   W24
@  #03 @028   ----------------------------------------
 .byte   Fs4
 .byte   W24
 .byte   Fn4
 .byte   W24
 .byte   N48 ,Ds4
 .byte   W48
@  #03 @029   ----------------------------------------
 .byte   N12 ,Fn4
 .byte   W12
 .byte   Fs4
 .byte   W12
 .byte   N24 ,Gs4
 .byte   W24
 .byte   As4
 .byte   W24
 .byte   Fn4
 .byte   W24
@  #03 @030   ----------------------------------------
 .byte   N48 ,Fs4
 .byte   W48
 .byte   N12 ,Gs4
 .byte   W12
 .byte   An4
 .byte   W12
 .byte   N24 ,Bn4
 .byte   W24
@  #03 @031   ----------------------------------------
 .byte   An4
 .byte   W24
 .byte   Gs4
 .byte   W24
 .byte   N48 ,Fs4
 .byte   W48
@  #03 @032   ----------------------------------------
 .byte   N12 ,Gs4
 .byte   W12
 .byte   An4
 .byte   W12
 .byte   N24 ,Bn4
 .byte   W24
 .byte   Cs5
 .byte   W24
 .byte   Gs4
 .byte   W24
@  #03 @033   ----------------------------------------
 .byte   W96
@  #03 @034   ----------------------------------------
 .byte   W96
@  #03 @035   ----------------------------------------
 .byte   W96
@  #03 @036   ----------------------------------------
 .byte   W96
@  #03 @037   ----------------------------------------
 .byte   W96
@  #03 @038   ----------------------------------------
 .byte   W96
@  #03 @039   ----------------------------------------
 .byte   W96
@  #03 @040   ----------------------------------------
 .byte   W96
@  #03 @041   ----------------------------------------
 .byte   W96
@  #03 @042   ----------------------------------------
 .byte   W96
@  #03 @043   ----------------------------------------
 .byte   W96
@  #03 @044   ----------------------------------------
 .byte   W96
@  #03 @045   ----------------------------------------
 .byte   W96
@  #03 @046   ----------------------------------------
 .byte   W96
@  #03 @047   ----------------------------------------
 .byte   W96
@  #03 @048   ----------------------------------------
 .byte   W96
@  #03 @049   ----------------------------------------
 .byte   W96
@  #03 @050   ----------------------------------------
 .byte   W96
@  #03 @051   ----------------------------------------
 .byte   W96
@  #03 @052   ----------------------------------------
 .byte   W96
@  #03 @053   ----------------------------------------
 .byte   W48
 .byte   N48 ,Bn3 ,v108
 .byte   W48
@  #03 @054   ----------------------------------------
 .byte   Fn4 ,v100
 .byte   W48
 .byte   Dn4
 .byte   N48 ,Gs4 ,v108
 .byte   W48
@  #03 @055   ----------------------------------------
 .byte   TIE ,Ds4 ,v100
 .byte   TIE ,Gn4
 .byte   W96
@  #03 @056   ----------------------------------------
 .byte   W01
 .byte   W01
 .byte   W01
 .byte   W01
 .byte   W01
 .byte   W01
 .byte   W01
 .byte   W01
 .byte   W01
 .byte   W01
 .byte   W01
 .byte   W01
 .byte   W01
 .byte   W01
 .byte   W01
 .byte   W01
 .byte   W01
 .byte   W01
 .byte   W01
 .byte   W01
 .byte   W01
 .byte   W01
 .byte   W01
 .byte   W01
 .byte   W01
 .byte   W01
 .byte   W01
 .byte   W01
 .byte   W01
 .byte   W01
 .byte   W01
 .byte   W01
 .byte   W01
 .byte   W01
 .byte   W01
 .byte   W01
 .byte   W02
 .byte   W01
 .byte   W01
 .byte   W01
 .byte   W01
 .byte   W01
 .byte   W01
 .byte   W01
 .byte   W01
 .byte   W02
 .byte   W01
 .byte   W01
 .byte   W01
 .byte   W01
 .byte   W01
 .byte   W01
 .byte   W01
 .byte   W01
 .byte   W02
 .byte   W01
 .byte   W01
 .byte   W01
 .byte   W01
 .byte   W01
 .byte   W01
 .byte   W01
 .byte   W01
 .byte   W02
 .byte   W01
 .byte   W01
 .byte   W01
 .byte   W01
 .byte   W01
 .byte   W01
 .byte   W01
 .byte   W01
 .byte   W01
 .byte   W01
 .byte   W01
 .byte   W01
 .byte   W01
 .byte   W01
 .byte   W01
 .byte   W01
 .byte   W01
 .byte   W01
 .byte   W01
 .byte   W01
 .byte   W01
 .byte   W01
 .byte   W01
 .byte   W01
 .byte   W01
 .byte   W01
 .byte   W01
 .byte   W01
@  #03 @057   ----------------------------------------
 .byte   EOT
 .byte   Ds4 ,v079
 .byte   W96
@  #03 @058   ----------------------------------------
 .byte   W96
@  #03 @059   ----------------------------------------
 .byte   W96
@  #03 @060   ----------------------------------------
 .byte   W96
@  #03 @061   ----------------------------------------
 .byte   W96
@  #03 @062   ----------------------------------------
 .byte   W96
@  #03 @063   ----------------------------------------
 .byte   W24
 .byte   N24 ,Gn4 ,v116
 .byte   W48
 .byte   N36 ,Gn4 ,v112
 .byte   W24
@  #03 @064   ----------------------------------------
 .byte   W12
 .byte   N12 ,Fn4
 .byte   W12
 .byte   Gn4
 .byte   W24
 .byte   N36 ,Bn4 ,v116
 .byte   W36
 .byte   N12 ,An4 ,v120
 .byte   W12
@  #03 @065   ----------------------------------------
 .byte   N24 ,Bn4 ,v112
 .byte   W24
 .byte   Fn5
 .byte   W24
 .byte   N12 ,Ds5 ,v120
 .byte   W24
 .byte   Dn5
 .byte   W24
@  #03 @066   ----------------------------------------
 .byte   TIE ,Cn5 ,v100
 .byte   W24
 .byte   W01
 .byte   W01
 .byte   W01
 .byte   W01
 .byte   W01
 .byte   W01
 .byte   W01
 .byte   W02
 .byte   W01
 .byte   W01
 .byte   W01
 .byte   W02
 .byte   W01
 .byte   W01
 .byte   W01
 .byte   W01
 .byte   W01
 .byte   W01
 .byte   W01
 .byte   W02
 .byte   W01
 .byte   W01
 .byte   W01
 .byte   W02
 .byte   W01
 .byte   W01
 .byte   W01
 .byte   W02
 .byte   W01
 .byte   W01
 .byte   W01
 .byte   W01
 .byte   W01
 .byte   W01
 .byte   W01
 .byte   W02
 .byte   W01
 .byte   W01
 .byte   W01
 .byte   W02
 .byte   W01
 .byte   W01
 .byte   W01
 .byte   W01
 .byte   W01
 .byte   W01
 .byte   W01
 .byte   W02
 .byte   W01
 .byte   W01
 .byte   W01
 .byte   W02
 .byte   W01
 .byte   W01
 .byte   W01
 .byte   W02
 .byte   W01
 .byte   W01
 .byte   W01
 .byte   W01
 .byte   W01
 .byte   W01
@  #03 @067   ----------------------------------------
 .byte   W01
 .byte   W02
 .byte   W01
 .byte   W01
 .byte   W01
 .byte   W02
 .byte   W01
 .byte   W01
 .byte   W01
 .byte   W02
 .byte   W01
 .byte   W01
 .byte   W01
 .byte   W01
 .byte   W01
 .byte   W01
 .byte   W01
 .byte   W02
 .byte   W01
 .byte   W01
 .byte   W01
 .byte   W02
 .byte   W01
 .byte   W01
 .byte   W01
 .byte   W01
 .byte   W01
 .byte   W01
 .byte   W01
 .byte   W02
 .byte   W01
 .byte   W01
 .byte   W01
 .byte   W02
 .byte   W01
 .byte   W01
 .byte   W01
 .byte   W02
 .byte   W01
 .byte   W01
 .byte   EOT
 .byte   W48
@  #03 @068   ----------------------------------------
 .byte   W24
 .byte   W72
@  #03 @069   ----------------------------------------
 .byte   N48 ,Gn3 ,v112
 .byte   W48
 .byte   N24 ,Cn4
 .byte   W24
 .byte   N96 ,Gn4
 .byte   W24
@  #03 @070   ----------------------------------------
 .byte   W96
@  #03 @071   ----------------------------------------
 .byte   N24 ,Ds4 ,v116
 .byte   W48
 .byte   Ds4 ,v112
 .byte   W24
 .byte   Fn4
 .byte   W24
@  #03 @072   ----------------------------------------
 .byte   N48 ,Gn4
 .byte   W48
 .byte   TIE ,Cn4
 .byte   W48
@  #03 @073   ----------------------------------------
 .byte   W72
 .byte   EOT
 .byte   W24
@  #03 @074   ----------------------------------------
 .byte   N24 ,Gn4 ,v120
 .byte   W48
 .byte   Dn4 ,v112
 .byte   W24
 .byte   Cn4
 .byte   W24
@  #03 @075   ----------------------------------------
 .byte   W60
 .byte   N12 ,Ds4
 .byte   W12
 .byte   N24 ,Fn4
 .byte   W24
@  #03 @076   ----------------------------------------
 .byte   Ds4
 .byte   W24
 .byte   Dn4
 .byte   W24
 .byte   N48 ,Cn4
 .byte   W48
@  #03 @077   ----------------------------------------
 .byte   W12
 .byte   N12 ,Ds4
 .byte   W36
 .byte   N24 ,Gn4
 .byte   W24
 .byte   Dn4
 .byte   W24
@  #03 @078   ----------------------------------------
 .byte   TIE ,Ds4 ,v100
 .byte   W48
 .byte   W01
 .byte   W01
 .byte   W01
 .byte   W01
 .byte   W01
 .byte   W01
 .byte   W01
 .byte   W02
 .byte   W01
 .byte   W01
 .byte   W01
 .byte   W02
 .byte   W01
 .byte   W01
 .byte   W01
 .byte   W01
 .byte   W01
 .byte   W01
 .byte   W01
 .byte   W02
 .byte   W01
 .byte   W01
 .byte   W01
 .byte   W02
 .byte   W01
 .byte   W01
 .byte   W01
 .byte   W02
 .byte   W01
 .byte   W01
 .byte   W01
 .byte   W01
 .byte   W01
 .byte   W01
 .byte   W01
 .byte   W02
 .byte   W01
 .byte   W01
 .byte   W01
 .byte   W02
 .byte   W01
@  #03 @079   ----------------------------------------
 .byte   W01
 .byte   W01
 .byte   W01
 .byte   W01
 .byte   W01
 .byte   W01
 .byte   W02
 .byte   W01
 .byte   W01
 .byte   W01
 .byte   W02
 .byte   W01
 .byte   W01
 .byte   W01
 .byte   W02
 .byte   W01
 .byte   W01
 .byte   W01
 .byte   W01
 .byte   W01
 .byte   W01
 .byte   W01
 .byte   W02
 .byte   W01
 .byte   W01
 .byte   W01
 .byte   W02
 .byte   W01
 .byte   W01
 .byte   W01
 .byte   W02
 .byte   W01
 .byte   W01
 .byte   W01
 .byte   W01
 .byte   W01
 .byte   W01
 .byte   W01
 .byte   W02
 .byte   W01
 .byte   W01
 .byte   W01
 .byte   W02
 .byte   W01
 .byte   W01
 .byte   W01
 .byte   W01
 .byte   W01
 .byte   W01
 .byte   W01
 .byte   W02
 .byte   W01
 .byte   W01
 .byte   W01
 .byte   W02
 .byte   W01
 .byte   W01
 .byte   W01
 .byte   W02
 .byte   W01
 .byte   W01
 .byte   EOT
 .byte   W24
@  #03 @080   ----------------------------------------
 .byte   W24
 .byte   W72
@  #03 @081   ----------------------------------------
 .byte   W96
@  #03 @082   ----------------------------------------
 .byte   W96
@  #03 @083   ----------------------------------------
 .byte   W96
@  #03 @084   ----------------------------------------
 .byte   GOTO
  .word Label_018E3CA1
 .byte   FINE

@**************** Track 4 (Midi-Chn.3) ****************@

TremblingEarth_004:
@  #04 @000   ----------------------------------------
 .byte   KEYSH , TremblingEarth_key+0
 .byte   VOICE , 40
 .byte   VOL , 28*TremblingEarth_mvl/mxv
 .byte   PAN , c_v-24
 .byte   W96
@  #04 @001   ----------------------------------------
 .byte   W96
@  #04 @002   ----------------------------------------
 .byte   W96
@  #04 @003   ----------------------------------------
 .byte   W96
@  #04 @004   ----------------------------------------
 .byte   W96
@  #04 @005   ----------------------------------------
 .byte   W96
@  #04 @006   ----------------------------------------
Label_018E3F27:
 .byte   W96
@  #04 @007   ----------------------------------------
 .byte   W96
@  #04 @008   ----------------------------------------
 .byte   W96
@  #04 @009   ----------------------------------------
 .byte   W96
@  #04 @010   ----------------------------------------
 .byte   W96
@  #04 @011   ----------------------------------------
 .byte   W96
@  #04 @012   ----------------------------------------
 .byte   W96
@  #04 @013   ----------------------------------------
 .byte   W96
@  #04 @014   ----------------------------------------
 .byte   W96
@  #04 @015   ----------------------------------------
 .byte   W96
@  #04 @016   ----------------------------------------
 .byte   W96
@  #04 @017   ----------------------------------------
 .byte   W96
@  #04 @018   ----------------------------------------
 .byte   W96
@  #04 @019   ----------------------------------------
 .byte   W96
@  #04 @020   ----------------------------------------
 .byte   W96
@  #04 @021   ----------------------------------------
 .byte   W96
@  #04 @022   ----------------------------------------
 .byte   W96
@  #04 @023   ----------------------------------------
 .byte   W96
@  #04 @024   ----------------------------------------
 .byte   W96
@  #04 @025   ----------------------------------------
 .byte   W96
@  #04 @026   ----------------------------------------
 .byte   W96
@  #04 @027   ----------------------------------------
 .byte   W96
@  #04 @028   ----------------------------------------
 .byte   W96
@  #04 @029   ----------------------------------------
 .byte   W96
@  #04 @030   ----------------------------------------
 .byte   W96
@  #04 @031   ----------------------------------------
 .byte   W96
@  #04 @032   ----------------------------------------
 .byte   W96
@  #04 @033   ----------------------------------------
 .byte   W96
@  #04 @034   ----------------------------------------
 .byte   W96
@  #04 @035   ----------------------------------------
 .byte   W96
@  #04 @036   ----------------------------------------
 .byte   W96
@  #04 @037   ----------------------------------------
 .byte   W96
@  #04 @038   ----------------------------------------
 .byte   W96
@  #04 @039   ----------------------------------------
 .byte   W96
@  #04 @040   ----------------------------------------
 .byte   W96
@  #04 @041   ----------------------------------------
 .byte   W96
@  #04 @042   ----------------------------------------
 .byte   W96
@  #04 @043   ----------------------------------------
 .byte   W96
@  #04 @044   ----------------------------------------
 .byte   W96
@  #04 @045   ----------------------------------------
 .byte   W96
@  #04 @046   ----------------------------------------
 .byte   W96
@  #04 @047   ----------------------------------------
 .byte   W96
@  #04 @048   ----------------------------------------
 .byte   W96
@  #04 @049   ----------------------------------------
 .byte   W96
@  #04 @050   ----------------------------------------
 .byte   W96
@  #04 @051   ----------------------------------------
 .byte   W96
@  #04 @052   ----------------------------------------
 .byte   W96
@  #04 @053   ----------------------------------------
 .byte   W96
@  #04 @054   ----------------------------------------
 .byte   W96
@  #04 @055   ----------------------------------------
 .byte   W96
@  #04 @056   ----------------------------------------
 .byte   W96
@  #04 @057   ----------------------------------------
 .byte   W96
@  #04 @058   ----------------------------------------
 .byte   W96
@  #04 @059   ----------------------------------------
 .byte   W96
@  #04 @060   ----------------------------------------
 .byte   W96
@  #04 @061   ----------------------------------------
 .byte   W96
@  #04 @062   ----------------------------------------
 .byte   W96
@  #04 @063   ----------------------------------------
 .byte   N12 ,Dn4 ,v108
 .byte   W48
 .byte   Gs4 ,v096
 .byte   W48
@  #04 @064   ----------------------------------------
 .byte   W96
@  #04 @065   ----------------------------------------
 .byte   W96
@  #04 @066   ----------------------------------------
 .byte   W96
@  #04 @067   ----------------------------------------
 .byte   W96
@  #04 @068   ----------------------------------------
 .byte   W96
@  #04 @069   ----------------------------------------
 .byte   W96
@  #04 @070   ----------------------------------------
 .byte   W72
 .byte   N24 ,Fn4 ,v092
 .byte   W24
@  #04 @071   ----------------------------------------
 .byte   W24
 .byte   Dn4
 .byte   W72
@  #04 @072   ----------------------------------------
 .byte   W96
@  #04 @073   ----------------------------------------
 .byte   W72
 .byte   Fn4 ,v100
 .byte   W24
@  #04 @074   ----------------------------------------
 .byte   W24
 .byte   Ds4 ,v096
 .byte   W72
@  #04 @075   ----------------------------------------
 .byte   N48 ,Cn4
 .byte   W48
 .byte   N12 ,Dn4 ,v100
 .byte   W48
@  #04 @076   ----------------------------------------
 .byte   W96
@  #04 @077   ----------------------------------------
 .byte   Dn4 ,v096
 .byte   W24
 .byte   N24 ,Fn4 ,v100
 .byte   W72
@  #04 @078   ----------------------------------------
 .byte   W96
@  #04 @079   ----------------------------------------
 .byte   W96
@  #04 @080   ----------------------------------------
 .byte   W96
@  #04 @081   ----------------------------------------
 .byte   W96
@  #04 @082   ----------------------------------------
 .byte   W96
@  #04 @083   ----------------------------------------
 .byte   W96
@  #04 @084   ----------------------------------------
 .byte   GOTO
  .word Label_018E3F27
 .byte   FINE

@**************** Track 5 (Midi-Chn.4) ****************@

TremblingEarth_005:
@  #05 @000   ----------------------------------------
 .byte   KEYSH , TremblingEarth_key+0
 .byte   VOICE , 60
 .byte   VOL , 39*TremblingEarth_mvl/mxv
 .byte   PAN , c_v+4
 .byte   W96
@  #05 @001   ----------------------------------------
 .byte   W96
@  #05 @002   ----------------------------------------
 .byte   W96
@  #05 @003   ----------------------------------------
 .byte   W96
@  #05 @004   ----------------------------------------
 .byte   W96
@  #05 @005   ----------------------------------------
 .byte   W96
@  #05 @006   ----------------------------------------
Label_018E3FA7:
 .byte   W96
@  #05 @007   ----------------------------------------
 .byte   W96
@  #05 @008   ----------------------------------------
 .byte   W96
@  #05 @009   ----------------------------------------
 .byte   W96
@  #05 @010   ----------------------------------------
 .byte   W96
@  #05 @011   ----------------------------------------
 .byte   W96
@  #05 @012   ----------------------------------------
 .byte   W96
@  #05 @013   ----------------------------------------
 .byte   W96
@  #05 @014   ----------------------------------------
 .byte   W96
@  #05 @015   ----------------------------------------
 .byte   W96
@  #05 @016   ----------------------------------------
 .byte   W96
@  #05 @017   ----------------------------------------
 .byte   W96
@  #05 @018   ----------------------------------------
 .byte   W96
@  #05 @019   ----------------------------------------
 .byte   W96
@  #05 @020   ----------------------------------------
 .byte   W96
@  #05 @021   ----------------------------------------
 .byte   W96
@  #05 @022   ----------------------------------------
 .byte   W96
@  #05 @023   ----------------------------------------
 .byte   W96
@  #05 @024   ----------------------------------------
 .byte   W96
@  #05 @025   ----------------------------------------
 .byte   W96
@  #05 @026   ----------------------------------------
 .byte   W96
@  #05 @027   ----------------------------------------
 .byte   W96
@  #05 @028   ----------------------------------------
 .byte   W96
@  #05 @029   ----------------------------------------
 .byte   W96
@  #05 @030   ----------------------------------------
 .byte   W96
@  #05 @031   ----------------------------------------
 .byte   W96
@  #05 @032   ----------------------------------------
 .byte   W96
@  #05 @033   ----------------------------------------
 .byte   W96
@  #05 @034   ----------------------------------------
 .byte   W96
@  #05 @035   ----------------------------------------
 .byte   W96
@  #05 @036   ----------------------------------------
 .byte   W96
@  #05 @037   ----------------------------------------
 .byte   W96
@  #05 @038   ----------------------------------------
 .byte   W96
@  #05 @039   ----------------------------------------
 .byte   W96
@  #05 @040   ----------------------------------------
 .byte   W96
@  #05 @041   ----------------------------------------
 .byte   W96
@  #05 @042   ----------------------------------------
 .byte   W96
@  #05 @043   ----------------------------------------
 .byte   W96
@  #05 @044   ----------------------------------------
 .byte   W96
@  #05 @045   ----------------------------------------
 .byte   W96
@  #05 @046   ----------------------------------------
 .byte   W96
@  #05 @047   ----------------------------------------
 .byte   W96
@  #05 @048   ----------------------------------------
 .byte   W96
@  #05 @049   ----------------------------------------
 .byte   W96
@  #05 @050   ----------------------------------------
 .byte   W96
@  #05 @051   ----------------------------------------
 .byte   W96
@  #05 @052   ----------------------------------------
 .byte   W96
@  #05 @053   ----------------------------------------
 .byte   W96
@  #05 @054   ----------------------------------------
 .byte   W96
@  #05 @055   ----------------------------------------
 .byte   W48
 .byte   N48 ,Ds2 ,v127
 .byte   W48
@  #05 @056   ----------------------------------------
 .byte   Gn2
 .byte   W48
 .byte   Cs3
 .byte   W48
@  #05 @057   ----------------------------------------
 .byte   TIE ,Ds3
 .byte   W96
@  #05 @058   ----------------------------------------
 .byte   W96
@  #05 @059   ----------------------------------------
 .byte   EOT
 .byte   N96 ,Bn2
 .byte   W96
@  #05 @060   ----------------------------------------
 .byte   Fn2
 .byte   W96
@  #05 @061   ----------------------------------------
 .byte   Gn2
 .byte   W96
@  #05 @062   ----------------------------------------
 .byte   Cn3
 .byte   W96
@  #05 @063   ----------------------------------------
 .byte   TIE ,Dn3 ,v120
 .byte   W96
@  #05 @064   ----------------------------------------
 .byte   W48
 .byte   EOT
 .byte   W48
@  #05 @065   ----------------------------------------
 .byte   W96
@  #05 @066   ----------------------------------------
 .byte   W96
@  #05 @067   ----------------------------------------
 .byte   W96
@  #05 @068   ----------------------------------------
 .byte   W96
@  #05 @069   ----------------------------------------
 .byte   W72
 .byte   N72 ,Gn2 ,v112
 .byte   W24
@  #05 @070   ----------------------------------------
 .byte   W48
 .byte   TIE ,Cn3
 .byte   TIE ,Gn3 ,v120
 .byte   W48
@  #05 @071   ----------------------------------------
 .byte   W72
 .byte   EOT
 .byte   N24 ,Fn3
 .byte   W24
@  #05 @072   ----------------------------------------
 .byte   EOT
 .byte   Cn3
 .byte   TIE ,Cn3 ,v112
 .byte   TIE ,Ds3 ,v120
 .byte   W96
@  #05 @073   ----------------------------------------
 .byte   W48
 .byte   EOT
 .byte   TIE ,Fn3
 .byte   W48
@  #05 @074   ----------------------------------------
 .byte   W96
@  #05 @075   ----------------------------------------
 .byte   EOT
 .byte   Cn3 ,v065
 .byte   N72 ,Cn3 ,v112
 .byte   N72 ,Gn3 ,v120
 .byte   W36
 .byte   W01
 .byte   W01
 .byte   W01
 .byte   W01
 .byte   W01
 .byte   W01
 .byte   W01
 .byte   W01
 .byte   W01
 .byte   W01
 .byte   W01
 .byte   W01
 .byte   W01
 .byte   W01
 .byte   W01
 .byte   W01
 .byte   W01
 .byte   W01
 .byte   W01
 .byte   W01
 .byte   W01
 .byte   W01
 .byte   W01
 .byte   W01
 .byte   W01
 .byte   W01
 .byte   W01
 .byte   W01
 .byte   W01
 .byte   W01
 .byte   W01
 .byte   W01
 .byte   W01
 .byte   W01
 .byte   W01
 .byte   W01
 .byte   W24
@  #05 @076   ----------------------------------------
 .byte   W48
 .byte   W48
@  #05 @077   ----------------------------------------
 .byte   W96
@  #05 @078   ----------------------------------------
 .byte   W96
@  #05 @079   ----------------------------------------
 .byte   W96
@  #05 @080   ----------------------------------------
 .byte   W96
@  #05 @081   ----------------------------------------
 .byte   W96
@  #05 @082   ----------------------------------------
 .byte   W96
@  #05 @083   ----------------------------------------
 .byte   W96
@  #05 @084   ----------------------------------------
 .byte   GOTO
  .word Label_018E3FA7
 .byte   FINE

@**************** Track 6 (Midi-Chn.5) ****************@

TremblingEarth_006:
@  #06 @000   ----------------------------------------
 .byte   KEYSH , TremblingEarth_key+0
 .byte   VOICE , 1
 .byte   VOL , 28*TremblingEarth_mvl/mxv
 .byte   PAN , c_v+11
 .byte   W96
@  #06 @001   ----------------------------------------
 .byte   W96
@  #06 @002   ----------------------------------------
 .byte   W96
@  #06 @003   ----------------------------------------
 .byte   W96
@  #06 @004   ----------------------------------------
 .byte   W96
@  #06 @005   ----------------------------------------
 .byte   W96
@  #06 @006   ----------------------------------------
Label_018E4066:
 .byte   W96
@  #06 @007   ----------------------------------------
 .byte   W96
@  #06 @008   ----------------------------------------
 .byte   W96
@  #06 @009   ----------------------------------------
 .byte   W96
@  #06 @010   ----------------------------------------
 .byte   W96
@  #06 @011   ----------------------------------------
 .byte   W96
@  #06 @012   ----------------------------------------
Label_018E406C:
 .byte   N06 ,Ds4 ,v088
 .byte   N06 ,Ds5
 .byte   W12
 .byte   N09 ,Ds4 ,v096
 .byte   N09 ,Ds5
 .byte   W24
 .byte   N06 ,Ds4 ,v088
 .byte   N06 ,Ds5
 .byte   W12
 .byte   N09 ,Ds4 ,v092
 .byte   N09 ,Ds5
 .byte   W36
 .byte   Ds4 ,v100
 .byte   N09 ,Ds5
 .byte   W12
 .byte   PEND 
@  #06 @013   ----------------------------------------
Label_018E408A:
 .byte   W12
 .byte   N06 ,Ds4 ,v088
 .byte   N06 ,Ds5
 .byte   W12
 .byte   Ds4 ,v092
 .byte   N06 ,Ds5
 .byte   W12
 .byte   N12 ,Ds4 ,v088
 .byte   N12 ,Ds5
 .byte   W12
 .byte   N06 ,Ds4
 .byte   N06 ,Ds5
 .byte   W12
 .byte   N09 ,Ds4 ,v096
 .byte   N09 ,Ds5
 .byte   W24
 .byte   N06 ,Ds4 ,v088
 .byte   N06 ,Ds5
 .byte   W12
 .byte   PEND 
@  #06 @014   ----------------------------------------
Label_018E40AE:
 .byte   N09 ,Ds4 ,v092
 .byte   N09 ,Ds5
 .byte   W36
 .byte   Ds4 ,v100
 .byte   N09 ,Ds5
 .byte   W24
 .byte   N06 ,Ds4 ,v088
 .byte   N06 ,Ds5
 .byte   W12
 .byte   Ds4 ,v092
 .byte   N06 ,Ds5
 .byte   W12
 .byte   N12 ,Ds4 ,v088
 .byte   N12 ,Ds5
 .byte   W12
 .byte   PEND 
@  #06 @015   ----------------------------------------
 .byte   PATT
  .word Label_018E406C
@  #06 @016   ----------------------------------------
 .byte   PATT
  .word Label_018E408A
@  #06 @017   ----------------------------------------
 .byte   PATT
  .word Label_018E40AE
@  #06 @018   ----------------------------------------
 .byte   W96
@  #06 @019   ----------------------------------------
 .byte   W96
@  #06 @020   ----------------------------------------
 .byte   W96
@  #06 @021   ----------------------------------------
 .byte   N48 ,As3 ,v127
 .byte   N48 ,Ds4
 .byte   N48 ,As4
 .byte   W48
 .byte   N24 ,Ds4
 .byte   N24 ,As4
 .byte   N24 ,Ds5
 .byte   W24
 .byte   N96 ,As4
 .byte   N96 ,Ds5
 .byte   N96 ,As5
 .byte   W24
@  #06 @022   ----------------------------------------
 .byte   W72
 .byte   N24 ,Gs4
 .byte   N48 ,Bn4
 .byte   N24 ,Gs5
 .byte   W24
@  #06 @023   ----------------------------------------
 .byte   Fs4
 .byte   N24 ,Fs5
 .byte   W24
 .byte   En4
 .byte   N48 ,Gs4
 .byte   N24 ,En5
 .byte   W24
 .byte   Fs4
 .byte   N24 ,Fs5
 .byte   W24
 .byte   Gs4
 .byte   N24 ,Bn4
 .byte   N24 ,Gs5
 .byte   W24
@  #06 @024   ----------------------------------------
 .byte   N48 ,As4
 .byte   N48 ,Ds5
 .byte   N48 ,As5
 .byte   W48
 .byte   TIE ,Ds4
 .byte   TIE ,As4
 .byte   TIE ,Ds5
 .byte   W48
@  #06 @025   ----------------------------------------
 .byte   W72
 .byte   EOT
 .byte   Ds4 ,v082
 .byte   Ds5
 .byte   N24 ,Gs4
 .byte   N48 ,En5
 .byte   N24 ,Gs5
 .byte   W24
@  #06 @026   ----------------------------------------
 .byte   As4
 .byte   N24 ,As5
 .byte   W24
 .byte   Fs4
 .byte   N48 ,Bn4
 .byte   N24 ,Fs5
 .byte   W24
 .byte   En4
 .byte   N24 ,En5
 .byte   W24
 .byte   Ds4
 .byte   N24 ,Bn4
 .byte   N24 ,Ds5
 .byte   W24
@  #06 @027   ----------------------------------------
Label_018E413D:
 .byte   N48 ,Ds4 ,v127
 .byte   N48 ,As4
 .byte   N48 ,Ds5
 .byte   W48
 .byte   N12 ,Fn4
 .byte   N12 ,As4
 .byte   N12 ,Fn5
 .byte   W12
 .byte   Fs4
 .byte   N12 ,As4
 .byte   N12 ,Fs5
 .byte   W12
 .byte   N24 ,Gs4
 .byte   N24 ,Ds5
 .byte   N24 ,Gs5
 .byte   W24
 .byte   PEND 
@  #06 @028   ----------------------------------------
 .byte   Fs4
 .byte   N24 ,Ds5
 .byte   N24 ,Fs5
 .byte   W24
 .byte   Fn4
 .byte   N24 ,Bn4
 .byte   N24 ,Fn5
 .byte   W24
 .byte   N48 ,Ds4
 .byte   N48 ,As4
 .byte   N48 ,Ds5
 .byte   W48
@  #06 @029   ----------------------------------------
 .byte   N12 ,Fn4
 .byte   N12 ,As4
 .byte   N12 ,Fn5
 .byte   W12
 .byte   Fs4
 .byte   N12 ,As4
 .byte   N12 ,Fs5
 .byte   W12
 .byte   N24 ,Gs4
 .byte   N24 ,Ds5
 .byte   N24 ,Gs5
 .byte   W24
 .byte   As4
 .byte   N24 ,Ds5
 .byte   N24 ,As5
 .byte   W24
 .byte   Fn4
 .byte   N24 ,Gs4
 .byte   N24 ,Fn5
 .byte   W24
@  #06 @030   ----------------------------------------
 .byte   N48 ,Fs4
 .byte   N48 ,Cs5
 .byte   N48 ,Fs5
 .byte   W48
 .byte   N12 ,Gs4
 .byte   N12 ,Cs5
 .byte   N12 ,Gs5
 .byte   W12
 .byte   An4
 .byte   N12 ,Cs5
 .byte   N12 ,An5
 .byte   W12
 .byte   N24 ,Bn4
 .byte   N24 ,Fs5
 .byte   N24 ,Bn5
 .byte   W24
@  #06 @031   ----------------------------------------
 .byte   An4
 .byte   N24 ,Fs5
 .byte   N24 ,An5
 .byte   W24
 .byte   Gs4
 .byte   N24 ,Dn5
 .byte   N24 ,Gs5
 .byte   W24
 .byte   N48 ,Fs4
 .byte   N48 ,Cs5
 .byte   N48 ,Fs5
 .byte   W48
@  #06 @032   ----------------------------------------
 .byte   N12 ,Gs4
 .byte   N12 ,Cs5
 .byte   N12 ,Gs5
 .byte   W12
 .byte   An4
 .byte   N12 ,Cs5
 .byte   N12 ,An5
 .byte   W12
 .byte   N24 ,Bn4
 .byte   N24 ,Fs5
 .byte   N24 ,Bn5
 .byte   W24
 .byte   Cs5
 .byte   N24 ,Fs5
 .byte   N24 ,Cs6
 .byte   W24
 .byte   Gs4
 .byte   N24 ,Bn4
 .byte   N24 ,Gs5
 .byte   W24
@  #06 @033   ----------------------------------------
 .byte   N48 ,As4
 .byte   N48 ,Ds5
 .byte   N48 ,As5
 .byte   W96
@  #06 @034   ----------------------------------------
 .byte   W96
@  #06 @035   ----------------------------------------
 .byte   W96
@  #06 @036   ----------------------------------------
 .byte   W96
@  #06 @037   ----------------------------------------
 .byte   W96
@  #06 @038   ----------------------------------------
 .byte   W96
@  #06 @039   ----------------------------------------
 .byte   W96
@  #06 @040   ----------------------------------------
 .byte   W96
@  #06 @041   ----------------------------------------
 .byte   W96
@  #06 @042   ----------------------------------------
 .byte   W96
@  #06 @043   ----------------------------------------
 .byte   W96
@  #06 @044   ----------------------------------------
 .byte   W96
@  #06 @045   ----------------------------------------
 .byte   W96
@  #06 @046   ----------------------------------------
 .byte   W96
@  #06 @047   ----------------------------------------
 .byte   W96
@  #06 @048   ----------------------------------------
 .byte   W96
@  #06 @049   ----------------------------------------
 .byte   W96
@  #06 @050   ----------------------------------------
 .byte   W96
@  #06 @051   ----------------------------------------
 .byte   W48
 .byte   As2 ,v112
 .byte   N48 ,Ds3 ,v100
 .byte   N48 ,As3 ,v116
 .byte   W48
@  #06 @052   ----------------------------------------
 .byte   Ds3 ,v112
 .byte   N48 ,Fs3 ,v100
 .byte   N48 ,Ds4 ,v120
 .byte   W48
 .byte   Fs3 ,v112
 .byte   N48 ,Ds4
 .byte   N48 ,Fs4 ,v127
 .byte   W48
@  #06 @053   ----------------------------------------
 .byte   Fn3 ,v116
 .byte   N48 ,Gs3 ,v112
 .byte   N48 ,Fn4 ,v127
 .byte   W48
 .byte   Bn2 ,v112
 .byte   N48 ,Fn3 ,v108
 .byte   N48 ,Bn3 ,v112
 .byte   W48
@  #06 @054   ----------------------------------------
 .byte   Fn3
 .byte   N48 ,Gs3 ,v108
 .byte   N48 ,Fn4 ,v116
 .byte   W48
 .byte   Gs3 ,v112
 .byte   N48 ,Dn4 ,v108
 .byte   N48 ,Gs4 ,v116
 .byte   W48
@  #06 @055   ----------------------------------------
 .byte   Gn3 ,v112
 .byte   N48 ,Ds4 ,v108
 .byte   N48 ,Gn4 ,v116
 .byte   W48
 .byte   Ds3 ,v112
 .byte   N48 ,As3 ,v108
 .byte   N48 ,Ds4 ,v116
 .byte   W48
@  #06 @056   ----------------------------------------
 .byte   Gn3 ,v100
 .byte   N48 ,Ds4 ,v096
 .byte   N48 ,Gn4 ,v108
 .byte   W48
 .byte   Cs4
 .byte   N48 ,Gn4 ,v100
 .byte   N48 ,Cs5 ,v112
 .byte   W48
@  #06 @057   ----------------------------------------
 .byte   Cs4 ,v108
 .byte   N96 ,Gs4 ,v096
 .byte   N48 ,Cs5 ,v116
 .byte   W48
 .byte   Bn3 ,v100
 .byte   N48 ,Bn4 ,v108
 .byte   W48
@  #06 @058   ----------------------------------------
 .byte   Gs3 ,v100
 .byte   N96 ,Bn3 ,v096
 .byte   N48 ,Gs4 ,v108
 .byte   W48
 .byte   Ds3 ,v096
 .byte   N48 ,Ds4 ,v100
 .byte   W48
@  #06 @059   ----------------------------------------
 .byte   Bn3
 .byte   N48 ,Gn4 ,v096
 .byte   N48 ,Bn4 ,v108
 .byte   W48
 .byte   Gn3 ,v100
 .byte   N48 ,Dn4 ,v096
 .byte   N48 ,Gn4 ,v108
 .byte   W48
@  #06 @060   ----------------------------------------
 .byte   Bn3 ,v100
 .byte   N48 ,Gn4 ,v096
 .byte   N48 ,Bn4 ,v108
 .byte   W48
 .byte   Fn4
 .byte   N48 ,Bn4 ,v100
 .byte   N48 ,Fn5 ,v112
 .byte   W48
@  #06 @061   ----------------------------------------
 .byte   Fn4 ,v108
 .byte   N96 ,Cn5 ,v096
 .byte   N48 ,Fn5 ,v116
 .byte   W48
 .byte   Ds4 ,v100
 .byte   N48 ,Ds5 ,v108
 .byte   W48
@  #06 @062   ----------------------------------------
 .byte   Cn4 ,v100
 .byte   N96 ,Ds4 ,v096
 .byte   N48 ,Cn5 ,v108
 .byte   W48
 .byte   Gn3 ,v096
 .byte   N48 ,Gn4 ,v100
 .byte   W48
@  #06 @063   ----------------------------------------
 .byte   N72 ,Gn3 ,v112
 .byte   N72 ,Dn4
 .byte   N72 ,Gn4 ,v120
 .byte   W72
 .byte   Fn3 ,v112
 .byte   N72 ,Dn4 ,v100
 .byte   N72 ,Fn4 ,v112
 .byte   W24
@  #06 @064   ----------------------------------------
 .byte   W48
 .byte   Ds3
 .byte   N72 ,Gn3
 .byte   N72 ,Ds4 ,v120
 .byte   W48
@  #06 @065   ----------------------------------------
 .byte   W24
 .byte   Dn3
 .byte   N72 ,Gn3 ,v112
 .byte   N72 ,Dn4
 .byte   W72
@  #06 @066   ----------------------------------------
 .byte   Cn4
 .byte   N72 ,Gn4
 .byte   N72 ,Cn5 ,v120
 .byte   W72
 .byte   As3 ,v112
 .byte   N72 ,Gn4 ,v100
 .byte   N72 ,As4 ,v112
 .byte   W24
@  #06 @067   ----------------------------------------
 .byte   W48
 .byte   Gs3
 .byte   N72 ,Fn4
 .byte   N72 ,Gs4 ,v120
 .byte   W48
@  #06 @068   ----------------------------------------
 .byte   W24
 .byte   Cn4
 .byte   N72 ,Fn4 ,v112
 .byte   N72 ,Cn5
 .byte   W72
@  #06 @069   ----------------------------------------
 .byte   Cn4
 .byte   N72 ,Gn4
 .byte   N72 ,Cn5 ,v120
 .byte   W72
 .byte   Cn4 ,v112
 .byte   N72 ,Gn4 ,v100
 .byte   N72 ,Cn5 ,v120
 .byte   W24
@  #06 @070   ----------------------------------------
 .byte   W48
 .byte   As3 ,v112
 .byte   N72 ,Fn4
 .byte   N72 ,As4 ,v120
 .byte   W48
@  #06 @071   ----------------------------------------
 .byte   W24
 .byte   Gs3 ,v112
 .byte   N72 ,Fn4
 .byte   N72 ,Gs4 ,v120
 .byte   W72
@  #06 @072   ----------------------------------------
 .byte   Gn3 ,v112
 .byte   N72 ,Cn4
 .byte   N72 ,Gn4 ,v120
 .byte   W72
 .byte   Cn4 ,v112
 .byte   N72 ,Gn4 ,v100
 .byte   N72 ,Cn5 ,v120
 .byte   W24
@  #06 @073   ----------------------------------------
 .byte   W48
 .byte   Dn4 ,v108
 .byte   N72 ,Fn4
 .byte   N72 ,Dn5 ,v116
 .byte   W48
@  #06 @074   ----------------------------------------
 .byte   W24
 .byte   N36 ,Ds4 ,v108
 .byte   N36 ,Gs4
 .byte   N36 ,Ds5 ,v112
 .byte   W36
 .byte   Fn4 ,v108
 .byte   N36 ,Gs4
 .byte   N36 ,Fn5 ,v112
 .byte   W36
@  #06 @075   ----------------------------------------
 .byte   TIE ,Gn4 ,v116
 .byte   TIE ,Cn5 ,v112
 .byte   TIE ,Gn5 ,v127
 .byte   W96
@  #06 @076   ----------------------------------------
 .byte   W24
 .byte   EOT
 .byte   Gn4 ,v084
 .byte   Gn5
 .byte   W48
 .byte   N24 ,Gn3 ,v100
 .byte   N24 ,Cn4
 .byte   N24 ,Gn4
 .byte   W24
@  #06 @077   ----------------------------------------
 .byte   Gs3
 .byte   N24 ,Gs4
 .byte   W24
 .byte   N48 ,Cn4
 .byte   N48 ,Fn4 ,v108
 .byte   N48 ,Cn5 ,v100
 .byte   W48
 .byte   N24 ,Dn4 ,v112
 .byte   N24 ,Fn4
 .byte   N24 ,Dn5 ,v116
 .byte   W24
@  #06 @078   ----------------------------------------
 .byte   PATT
  .word Label_018E413D
@  #06 @079   ----------------------------------------
 .byte   N24 ,Fs4 ,v127
 .byte   N24 ,Ds5
 .byte   N24 ,Fs5
 .byte   W24
 .byte   Fn4
 .byte   N24 ,As4
 .byte   N24 ,Fn5
 .byte   W24
 .byte   N48 ,Ds4
 .byte   N48 ,As4
 .byte   N48 ,Ds5
 .byte   W48
@  #06 @080   ----------------------------------------
 .byte   N12 ,Fn4
 .byte   N12 ,As4
 .byte   N12 ,Fn5
 .byte   W12
 .byte   Fs4
 .byte   N12 ,As4
 .byte   N12 ,Fs5
 .byte   W12
 .byte   N24 ,Gs4
 .byte   N24 ,Ds5
 .byte   N24 ,Gs5
 .byte   W24
 .byte   As4 ,v120
 .byte   N24 ,Ds5
 .byte   N24 ,As5
 .byte   W24
 .byte   Fn4 ,v116
 .byte   N24 ,Gs4
 .byte   N24 ,Fn5
 .byte   W24
@  #06 @081   ----------------------------------------
 .byte   N72 ,Ds4 ,v100
 .byte   N72 ,As4
 .byte   N72 ,Ds5
 .byte   W96
@  #06 @082   ----------------------------------------
 .byte   W96
@  #06 @083   ----------------------------------------
 .byte   W96
@  #06 @084   ----------------------------------------
 .byte   GOTO
  .word Label_018E4066
 .byte   FINE

@**************** Track 7 (Midi-Chn.6) ****************@

TremblingEarth_007:
@  #07 @000   ----------------------------------------
 .byte   KEYSH , TremblingEarth_key+0
 .byte   VOICE , 1
 .byte   VOL , 28*TremblingEarth_mvl/mxv
 .byte   PAN , c_v+0
 .byte   W96
@  #07 @001   ----------------------------------------
 .byte   W96
@  #07 @002   ----------------------------------------
 .byte   W96
@  #07 @003   ----------------------------------------
 .byte   W96
@  #07 @004   ----------------------------------------
 .byte   W96
@  #07 @005   ----------------------------------------
 .byte   W96
@  #07 @006   ----------------------------------------
Label_018E43CA:
 .byte   W96
@  #07 @007   ----------------------------------------
 .byte   W96
@  #07 @008   ----------------------------------------
 .byte   W96
@  #07 @009   ----------------------------------------
 .byte   W96
@  #07 @010   ----------------------------------------
 .byte   W96
@  #07 @011   ----------------------------------------
 .byte   W96
@  #07 @012   ----------------------------------------
 .byte   W96
@  #07 @013   ----------------------------------------
 .byte   W96
@  #07 @014   ----------------------------------------
 .byte   W96
@  #07 @015   ----------------------------------------
 .byte   W96
@  #07 @016   ----------------------------------------
 .byte   W96
@  #07 @017   ----------------------------------------
 .byte   W96
@  #07 @018   ----------------------------------------
 .byte   W96
@  #07 @019   ----------------------------------------
 .byte   W96
@  #07 @020   ----------------------------------------
 .byte   W96
@  #07 @021   ----------------------------------------
 .byte   W96
@  #07 @022   ----------------------------------------
 .byte   W96
@  #07 @023   ----------------------------------------
 .byte   W96
@  #07 @024   ----------------------------------------
 .byte   W96
@  #07 @025   ----------------------------------------
 .byte   W96
@  #07 @026   ----------------------------------------
 .byte   W96
@  #07 @027   ----------------------------------------
 .byte   W96
@  #07 @028   ----------------------------------------
 .byte   W96
@  #07 @029   ----------------------------------------
 .byte   W96
@  #07 @030   ----------------------------------------
 .byte   W96
@  #07 @031   ----------------------------------------
 .byte   W96
@  #07 @032   ----------------------------------------
 .byte   W96
@  #07 @033   ----------------------------------------
 .byte   W96
@  #07 @034   ----------------------------------------
 .byte   W96
@  #07 @035   ----------------------------------------
 .byte   W96
@  #07 @036   ----------------------------------------
 .byte   W96
@  #07 @037   ----------------------------------------
 .byte   W96
@  #07 @038   ----------------------------------------
 .byte   W96
@  #07 @039   ----------------------------------------
 .byte   W96
@  #07 @040   ----------------------------------------
 .byte   W96
@  #07 @041   ----------------------------------------
 .byte   W96
@  #07 @042   ----------------------------------------
 .byte   W96
@  #07 @043   ----------------------------------------
 .byte   W96
@  #07 @044   ----------------------------------------
 .byte   W96
@  #07 @045   ----------------------------------------
 .byte   W96
@  #07 @046   ----------------------------------------
 .byte   W96
@  #07 @047   ----------------------------------------
 .byte   W96
@  #07 @048   ----------------------------------------
 .byte   W96
@  #07 @049   ----------------------------------------
 .byte   W96
@  #07 @050   ----------------------------------------
 .byte   W96
@  #07 @051   ----------------------------------------
Label_018E43F7:
 .byte   TIE ,Ds0 ,v112
 .byte   TIE ,Ds1 ,v120
 .byte   W96
 .byte   PEND 
@  #07 @052   ----------------------------------------
 .byte   W96
@  #07 @053   ----------------------------------------
 .byte   EOT
 .byte   Ds0 ,v039
 .byte   TIE ,Dn0 ,v112
 .byte   TIE ,Dn1 ,v120
 .byte   W96
@  #07 @054   ----------------------------------------
 .byte   W96
@  #07 @055   ----------------------------------------
 .byte   EOT
 .byte   Dn0 ,v038
 .byte   TIE ,Cs1
 .byte   TIE ,Cs2 ,v112
 .byte   W96
@  #07 @056   ----------------------------------------
 .byte   W96
@  #07 @057   ----------------------------------------
 .byte   EOT
 .byte   Cs1 ,v049
 .byte   TIE ,Bn0 ,v120
 .byte   TIE ,Bn1 ,v112
 .byte   W96
@  #07 @058   ----------------------------------------
 .byte   W96
@  #07 @059   ----------------------------------------
 .byte   EOT
 .byte   Bn0 ,v047
 .byte   TIE ,Fn0
 .byte   TIE ,Fn1 ,v120
 .byte   W96
@  #07 @060   ----------------------------------------
 .byte   W96
@  #07 @061   ----------------------------------------
 .byte   EOT
 .byte   Fn0 ,v041
@  #07 @062   ----------------------------------------
 .byte   PATT
  .word Label_018E43F7
@  #07 @063   ----------------------------------------
 .byte   W96
@  #07 @064   ----------------------------------------
 .byte   EOT
 .byte   Ds0 ,v039
 .byte   W96
@  #07 @065   ----------------------------------------
 .byte   W96
@  #07 @066   ----------------------------------------
 .byte   W96
@  #07 @067   ----------------------------------------
 .byte   W96
@  #07 @068   ----------------------------------------
 .byte   W96
@  #07 @069   ----------------------------------------
 .byte   W96
@  #07 @070   ----------------------------------------
 .byte   W96
@  #07 @071   ----------------------------------------
 .byte   W96
@  #07 @072   ----------------------------------------
 .byte   W96
@  #07 @073   ----------------------------------------
 .byte   W96
@  #07 @074   ----------------------------------------
 .byte   W96
@  #07 @075   ----------------------------------------
 .byte   W96
@  #07 @076   ----------------------------------------
 .byte   W96
@  #07 @077   ----------------------------------------
 .byte   W96
@  #07 @078   ----------------------------------------
 .byte   W96
@  #07 @079   ----------------------------------------
 .byte   W96
@  #07 @080   ----------------------------------------
 .byte   W96
@  #07 @081   ----------------------------------------
 .byte   W96
@  #07 @082   ----------------------------------------
 .byte   W96
@  #07 @083   ----------------------------------------
 .byte   W96
@  #07 @084   ----------------------------------------
 .byte   W96
@  #07 @085   ----------------------------------------
 .byte   GOTO
  .word Label_018E43CA
 .byte   FINE

@**************** Track 8 (Midi-Chn.7) ****************@

TremblingEarth_008:
@  #08 @000   ----------------------------------------
 .byte   KEYSH , TremblingEarth_key+0
 .byte   VOICE , 48
 .byte   VOL , 29*TremblingEarth_mvl/mxv
 .byte   PAN , c_v-2
 .byte   W96
@  #08 @001   ----------------------------------------
 .byte   W96
@  #08 @002   ----------------------------------------
 .byte   W96
@  #08 @003   ----------------------------------------
Label_018E445C:
 .byte   N06 ,Ds3 ,v108
 .byte   N06 ,Fs3 ,v116
 .byte   N06 ,As3
 .byte   W36
 .byte   Ds3 ,v092
 .byte   N06 ,Fs3 ,v100
 .byte   N06 ,As3
 .byte   W12
 .byte   Ds3 ,v108
 .byte   N06 ,Fs3 ,v116
 .byte   N06 ,As3
 .byte   W48
 .byte   PEND 
@  #08 @004   ----------------------------------------
Label_018E4476:
 .byte   N06 ,Ds3 ,v108
 .byte   N06 ,Fs3
 .byte   N06 ,As3 ,v112
 .byte   W24
 .byte   Ds3
 .byte   N06 ,Fs3
 .byte   N06 ,As3 ,v116
 .byte   W24
 .byte   Ds3 ,v108
 .byte   N06 ,Fs3 ,v112
 .byte   N06 ,As3
 .byte   W12
 .byte   Ds3 ,v108
 .byte   N06 ,Fs3 ,v116
 .byte   N06 ,As3
 .byte   W24
 .byte   Ds3 ,v096
 .byte   N06 ,Fs3 ,v100
 .byte   N06 ,As3
 .byte   W12
 .byte   PEND 
@  #08 @005   ----------------------------------------
Label_018E449F:
 .byte   N06 ,Ds3 ,v096
 .byte   N06 ,Fs3 ,v100
 .byte   N06 ,As3
 .byte   W48
 .byte   Ds3 ,v108
 .byte   N06 ,Fs3 ,v112
 .byte   N06 ,As3
 .byte   W24
 .byte   Ds3
 .byte   N06 ,Fs3 ,v116
 .byte   N06 ,As3
 .byte   W24
 .byte   PEND 
@  #08 @006   ----------------------------------------
Label_018E44B8:
@  #08 @007   ----------------------------------------
 .byte   PATT
  .word Label_018E445C
@  #08 @008   ----------------------------------------
 .byte   PATT
  .word Label_018E4476
@  #08 @009   ----------------------------------------
 .byte   PATT
  .word Label_018E449F
@  #08 @010   ----------------------------------------
 .byte   PATT
  .word Label_018E445C
@  #08 @011   ----------------------------------------
 .byte   PATT
  .word Label_018E4476
@  #08 @012   ----------------------------------------
 .byte   PATT
  .word Label_018E449F
@  #08 @013   ----------------------------------------
 .byte   PATT
  .word Label_018E445C
@  #08 @014   ----------------------------------------
 .byte   PATT
  .word Label_018E4476
@  #08 @015   ----------------------------------------
 .byte   PATT
  .word Label_018E449F
@  #08 @016   ----------------------------------------
 .byte   PATT
  .word Label_018E445C
@  #08 @017   ----------------------------------------
 .byte   PATT
  .word Label_018E4476
@  #08 @018   ----------------------------------------
 .byte   PATT
  .word Label_018E449F
@  #08 @019   ----------------------------------------
 .byte   PATT
  .word Label_018E445C
@  #08 @020   ----------------------------------------
 .byte   PATT
  .word Label_018E4476
@  #08 @021   ----------------------------------------
 .byte   PATT
  .word Label_018E449F
@  #08 @022   ----------------------------------------
 .byte   PATT
  .word Label_018E445C
@  #08 @023   ----------------------------------------
Label_018E4508:
 .byte   N06 ,Ds3 ,v108
 .byte   N06 ,Fs3
 .byte   N06 ,As3 ,v112
 .byte   W24
 .byte   Ds3
 .byte   N06 ,Fs3
 .byte   N06 ,As3 ,v116
 .byte   W24
 .byte   En3 ,v108
 .byte   N06 ,Gs3 ,v112
 .byte   N06 ,Bn3
 .byte   W12
 .byte   En3 ,v108
 .byte   N06 ,Gs3 ,v116
 .byte   N06 ,Bn3
 .byte   W24
 .byte   En3 ,v096
 .byte   N06 ,Gs3 ,v100
 .byte   N06 ,Bn3
 .byte   W12
 .byte   PEND 
@  #08 @024   ----------------------------------------
Label_018E4531:
 .byte   N06 ,En3 ,v096
 .byte   N06 ,Gs3 ,v100
 .byte   N06 ,Bn3
 .byte   W48
 .byte   En3 ,v108
 .byte   N06 ,Gs3 ,v112
 .byte   N06 ,Bn3
 .byte   W24
 .byte   En3
 .byte   N06 ,Gs3 ,v116
 .byte   N06 ,Bn3
 .byte   W24
 .byte   PEND 
@  #08 @025   ----------------------------------------
 .byte   PATT
  .word Label_018E445C
@  #08 @026   ----------------------------------------
 .byte   PATT
  .word Label_018E4508
@  #08 @027   ----------------------------------------
 .byte   PATT
  .word Label_018E4531
@  #08 @028   ----------------------------------------
 .byte   PATT
  .word Label_018E445C
@  #08 @029   ----------------------------------------
Label_018E455E:
 .byte   N06 ,Ds3 ,v108
 .byte   N06 ,Gs3
 .byte   N06 ,Bn3 ,v112
 .byte   W24
 .byte   Ds3
 .byte   N06 ,Gs3
 .byte   N06 ,Bn3 ,v116
 .byte   W24
 .byte   Ds3 ,v108
 .byte   N06 ,Fs3 ,v116
 .byte   N06 ,As3
 .byte   W36
 .byte   Ds3 ,v092
 .byte   N06 ,Fs3 ,v100
 .byte   N06 ,As3
 .byte   W12
 .byte   PEND 
@  #08 @030   ----------------------------------------
Label_018E457F:
 .byte   N06 ,Ds3 ,v108
 .byte   N06 ,Fs3 ,v116
 .byte   N06 ,As3
 .byte   W48
 .byte   Ds3 ,v108
 .byte   N06 ,Gs3
 .byte   N06 ,Bn3 ,v112
 .byte   W24
 .byte   Ds3
 .byte   N06 ,Gs3
 .byte   N06 ,Bn3 ,v116
 .byte   W24
 .byte   PEND 
@  #08 @031   ----------------------------------------
 .byte   Cs3 ,v108
 .byte   N06 ,Fs3 ,v116
 .byte   N06 ,An3
 .byte   W36
 .byte   Cs3 ,v092
 .byte   N06 ,Fs3 ,v100
 .byte   N06 ,An3
 .byte   W12
 .byte   Cs3 ,v108
 .byte   N06 ,Fs3 ,v116
 .byte   N06 ,An3
 .byte   W48
@  #08 @032   ----------------------------------------
 .byte   Dn3 ,v108
 .byte   N06 ,Fs3
 .byte   N06 ,Bn3 ,v112
 .byte   W24
 .byte   Dn3
 .byte   N06 ,Fs3
 .byte   N06 ,Bn3 ,v116
 .byte   W24
 .byte   Cs3 ,v108
 .byte   N06 ,Fs3 ,v116
 .byte   N06 ,An3
 .byte   W36
 .byte   Cs3 ,v092
 .byte   N06 ,Fs3 ,v100
 .byte   N06 ,An3
 .byte   W12
@  #08 @033   ----------------------------------------
 .byte   Cs3 ,v108
 .byte   N06 ,Fs3 ,v116
 .byte   N06 ,An3
 .byte   W48
 .byte   Dn3 ,v108
 .byte   N06 ,Fs3
 .byte   N06 ,Bn3 ,v112
 .byte   W24
 .byte   Dn3
 .byte   N06 ,Fs3
 .byte   N06 ,Bn3 ,v116
 .byte   W24
@  #08 @034   ----------------------------------------
 .byte   PATT
  .word Label_018E445C
@  #08 @035   ----------------------------------------
 .byte   PATT
  .word Label_018E4476
@  #08 @036   ----------------------------------------
 .byte   PATT
  .word Label_018E449F
@  #08 @037   ----------------------------------------
 .byte   PATT
  .word Label_018E445C
@  #08 @038   ----------------------------------------
 .byte   PATT
  .word Label_018E4476
@  #08 @039   ----------------------------------------
 .byte   PATT
  .word Label_018E449F
@  #08 @040   ----------------------------------------
Label_018E4604:
 .byte   N06 ,Ds3 ,v108
 .byte   N06 ,Fs3 ,v120
 .byte   N06 ,As3
 .byte   W36
 .byte   Ds3 ,v096
 .byte   N06 ,Fs3 ,v104
 .byte   N06 ,As3
 .byte   W24
 .byte   Ds3 ,v096
 .byte   N06 ,Fs3 ,v104
 .byte   N06 ,As3
 .byte   W24
 .byte   Ds3 ,v100
 .byte   N06 ,Fs3 ,v108
 .byte   N06 ,As3
 .byte   W12
 .byte   PEND 
@  #08 @041   ----------------------------------------
Label_018E4626:
 .byte   N06 ,Ds3 ,v108
 .byte   N06 ,Fs3 ,v120
 .byte   N06 ,As3
 .byte   W12
 .byte   Ds3 ,v088
 .byte   N06 ,Fs3 ,v100
 .byte   N06 ,As3
 .byte   W24
 .byte   Ds3 ,v096
 .byte   N06 ,Fs3 ,v104
 .byte   N06 ,As3
 .byte   W24
 .byte   Ds3 ,v096
 .byte   N06 ,Fs3 ,v104
 .byte   N06 ,As3
 .byte   W24
 .byte   Ds3 ,v100
 .byte   N06 ,Fs3 ,v108
 .byte   N06 ,As3
 .byte   W12
 .byte   PEND 
@  #08 @042   ----------------------------------------
 .byte   PATT
  .word Label_018E4604
@  #08 @043   ----------------------------------------
 .byte   PATT
  .word Label_018E4626
@  #08 @044   ----------------------------------------
 .byte   PATT
  .word Label_018E4604
@  #08 @045   ----------------------------------------
 .byte   PATT
  .word Label_018E4626
@  #08 @046   ----------------------------------------
 .byte   PATT
  .word Label_018E4604
@  #08 @047   ----------------------------------------
 .byte   PATT
  .word Label_018E4626
@  #08 @048   ----------------------------------------
 .byte   PATT
  .word Label_018E4604
@  #08 @049   ----------------------------------------
 .byte   PATT
  .word Label_018E4626
@  #08 @050   ----------------------------------------
 .byte   PATT
  .word Label_018E4604
@  #08 @051   ----------------------------------------
 .byte   PATT
  .word Label_018E4626
@  #08 @052   ----------------------------------------
 .byte   N06 ,Fs3 ,v120
 .byte   N06 ,As3
 .byte   W36
 .byte   Fs3 ,v108
 .byte   N06 ,As3
 .byte   W24
 .byte   Fs3
 .byte   N06 ,As3
 .byte   W24
 .byte   Fs3 ,v112
 .byte   N06 ,As3
 .byte   W12
@  #08 @053   ----------------------------------------
 .byte   Fs3 ,v120
 .byte   N06 ,As3
 .byte   W12
 .byte   Fs3 ,v100
 .byte   N06 ,As3
 .byte   W24
 .byte   Fs3 ,v108
 .byte   N06 ,As3
 .byte   W24
 .byte   Fs3
 .byte   N06 ,As3
 .byte   W24
 .byte   Fs3 ,v112
 .byte   N06 ,As3
 .byte   W12
@  #08 @054   ----------------------------------------
 .byte   Fn3 ,v120
 .byte   N06 ,As3
 .byte   W36
 .byte   Fn3 ,v108
 .byte   N06 ,As3
 .byte   W24
 .byte   Fn3
 .byte   N06 ,As3
 .byte   W24
 .byte   Fn3 ,v112
 .byte   N06 ,As3
 .byte   W12
@  #08 @055   ----------------------------------------
 .byte   Fn3 ,v120
 .byte   N06 ,As3
 .byte   W12
 .byte   Fn3 ,v100
 .byte   N06 ,As3
 .byte   W24
 .byte   Fn3 ,v108
 .byte   N06 ,As3
 .byte   W24
 .byte   Fn3
 .byte   N06 ,As3
 .byte   W24
 .byte   Fn3 ,v112
 .byte   N06 ,As3
 .byte   W12
@  #08 @056   ----------------------------------------
 .byte   Gn3 ,v120
 .byte   N06 ,As3
 .byte   W36
 .byte   Gn3 ,v108
 .byte   N06 ,As3
 .byte   W24
 .byte   Gn3
 .byte   N06 ,As3
 .byte   W24
 .byte   Gn3 ,v112
 .byte   N06 ,As3
 .byte   W12
@  #08 @057   ----------------------------------------
 .byte   Gn3 ,v120
 .byte   N06 ,As3
 .byte   W12
 .byte   Gn3 ,v100
 .byte   N06 ,As3
 .byte   W24
 .byte   Gn3 ,v108
 .byte   N06 ,As3
 .byte   W24
 .byte   Gn3
 .byte   N06 ,As3
 .byte   W24
 .byte   Gn3 ,v112
 .byte   N06 ,As3
 .byte   W12
@  #08 @058   ----------------------------------------
 .byte   Ds3 ,v127
 .byte   N06 ,Gs3
 .byte   W36
 .byte   Ds3 ,v112
 .byte   N06 ,Gs3
 .byte   W24
 .byte   Ds3
 .byte   N06 ,Gs3
 .byte   W24
 .byte   Ds3 ,v116
 .byte   N06 ,Gs3
 .byte   W12
@  #08 @059   ----------------------------------------
 .byte   Ds3 ,v127
 .byte   N06 ,Gs3
 .byte   W12
 .byte   Ds3 ,v108
 .byte   N06 ,Gs3
 .byte   W24
 .byte   Ds3 ,v112
 .byte   N06 ,Gs3
 .byte   W24
 .byte   Ds3
 .byte   N06 ,Gs3
 .byte   W24
 .byte   Ds3 ,v116
 .byte   N06 ,Gs3
 .byte   W12
@  #08 @060   ----------------------------------------
 .byte   Dn3 ,v127
 .byte   N06 ,Gn3
 .byte   W36
 .byte   Dn3 ,v112
 .byte   N06 ,Gn3
 .byte   W24
 .byte   Dn3
 .byte   N06 ,Gn3
 .byte   W24
 .byte   Dn3 ,v116
 .byte   N06 ,Gn3
 .byte   W12
@  #08 @061   ----------------------------------------
 .byte   Dn3 ,v127
 .byte   N06 ,Gn3
 .byte   W12
 .byte   Dn3 ,v108
 .byte   N06 ,Gn3
 .byte   W24
 .byte   Dn3 ,v112
 .byte   N06 ,Gn3
 .byte   W24
 .byte   Dn3
 .byte   N06 ,Gn3
 .byte   W24
 .byte   Dn3 ,v116
 .byte   N06 ,Gn3
 .byte   W12
@  #08 @062   ----------------------------------------
 .byte   Ds3 ,v127
 .byte   N06 ,Gn3
 .byte   W36
 .byte   Ds3 ,v112
 .byte   N06 ,Gn3
 .byte   W24
 .byte   Ds3
 .byte   N06 ,Gn3
 .byte   W24
 .byte   Ds3 ,v116
 .byte   N06 ,Gn3
 .byte   W12
@  #08 @063   ----------------------------------------
 .byte   Ds3 ,v127
 .byte   N06 ,Gn3
 .byte   W12
 .byte   Ds3 ,v108
 .byte   N06 ,Gn3
 .byte   W24
 .byte   Ds3 ,v112
 .byte   N06 ,Gn3
 .byte   W24
 .byte   Ds3
 .byte   N06 ,Gn3
 .byte   W24
 .byte   Ds3 ,v116
 .byte   N06 ,Gn3
 .byte   W12
@  #08 @064   ----------------------------------------
 .byte   Gn3 ,v120
 .byte   N06 ,Bn3
 .byte   W12
 .byte   Gn3 ,v100
 .byte   N06 ,As3
 .byte   W24
 .byte   Gn3 ,v108
 .byte   N06 ,Bn3
 .byte   W24
 .byte   Gn3
 .byte   N06 ,Bn3
 .byte   W12
 .byte   Gn3 ,v120
 .byte   N06 ,Bn3
 .byte   W12
 .byte   Gn3 ,v100
 .byte   N06 ,Bn3
 .byte   W12
@  #08 @065   ----------------------------------------
 .byte   W12
 .byte   Gn3 ,v116
 .byte   N06 ,Bn3
 .byte   W12
 .byte   Gn3 ,v108
 .byte   N06 ,Bn3
 .byte   W12
 .byte   Gn3
 .byte   N06 ,Bn3
 .byte   W12
 .byte   Gn3 ,v120
 .byte   N06 ,Bn3
 .byte   W12
 .byte   Gn3 ,v100
 .byte   N06 ,Bn3
 .byte   W24
 .byte   Gn3 ,v108
 .byte   N06 ,Bn3
 .byte   W12
@  #08 @066   ----------------------------------------
 .byte   W12
 .byte   Gn3
 .byte   N06 ,Bn3
 .byte   W12
 .byte   Gn3 ,v120
 .byte   N06 ,Bn3
 .byte   W12
 .byte   Gn3 ,v100
 .byte   N06 ,Bn3
 .byte   W24
 .byte   Gn3 ,v116
 .byte   N06 ,Bn3
 .byte   W12
 .byte   Gn3 ,v108
 .byte   N06 ,Bn3
 .byte   W12
 .byte   Gn3
 .byte   N06 ,Bn3
 .byte   W12
@  #08 @067   ----------------------------------------
 .byte   Gn3 ,v120
 .byte   N06 ,Cn4
 .byte   W12
 .byte   Gn3 ,v100
 .byte   N06 ,Cn4
 .byte   W24
 .byte   Gn3 ,v108
 .byte   N06 ,Cn4
 .byte   W24
 .byte   Gn3
 .byte   N06 ,Cn4
 .byte   W12
 .byte   Gn3 ,v120
 .byte   N06 ,Cn4
 .byte   W12
 .byte   Gn3 ,v100
 .byte   N06 ,Cn4
 .byte   W12
@  #08 @068   ----------------------------------------
 .byte   W12
 .byte   Gn3 ,v116
 .byte   N06 ,Cn4
 .byte   W12
 .byte   Gn3 ,v108
 .byte   N06 ,Cn4
 .byte   W12
 .byte   Gn3
 .byte   N06 ,Cn4
 .byte   W12
 .byte   Gn3 ,v120
 .byte   N06 ,Cn4
 .byte   W12
 .byte   Gn3 ,v100
 .byte   N06 ,Cn4
 .byte   W24
 .byte   Gn3 ,v108
 .byte   N06 ,Cn4
 .byte   W12
@  #08 @069   ----------------------------------------
 .byte   W12
 .byte   Gn3
 .byte   N06 ,Cn4
 .byte   W12
 .byte   Gn3 ,v120
 .byte   N06 ,Cn4
 .byte   W12
 .byte   Gn3 ,v100
 .byte   N06 ,Cn4
 .byte   W24
 .byte   Gn3 ,v116
 .byte   N06 ,Cn4
 .byte   W12
 .byte   Gn3 ,v108
 .byte   N06 ,Cn4
 .byte   W12
 .byte   Gn3
 .byte   N06 ,Cn4
 .byte   W12
@  #08 @070   ----------------------------------------
Label_018E4835:
 .byte   N06 ,Gn3 ,v116
 .byte   N06 ,Cn4 ,v108
 .byte   W36
 .byte   Gn3 ,v100
 .byte   N06 ,Cn4 ,v092
 .byte   W12
 .byte   Gn3 ,v116
 .byte   N06 ,Cn4 ,v108
 .byte   W48
 .byte   PEND 
@  #08 @071   ----------------------------------------
Label_018E4849:
 .byte   N06 ,Gn3 ,v112
 .byte   N06 ,Cn4 ,v108
 .byte   W24
 .byte   Gn3 ,v116
 .byte   N06 ,Cn4 ,v112
 .byte   W24
 .byte   Gs3 ,v116
 .byte   N06 ,Cn4 ,v108
 .byte   W36
 .byte   Gs3 ,v100
 .byte   N06 ,Cn4 ,v092
 .byte   W12
 .byte   PEND 
@  #08 @072   ----------------------------------------
Label_018E4863:
 .byte   N06 ,Gs3 ,v116
 .byte   N06 ,Cn4 ,v108
 .byte   W48
 .byte   Gs3 ,v112
 .byte   N06 ,Cn4 ,v108
 .byte   W24
 .byte   Gs3 ,v116
 .byte   N06 ,Cn4 ,v112
 .byte   W24
 .byte   PEND 
@  #08 @073   ----------------------------------------
 .byte   PATT
  .word Label_018E4835
@  #08 @074   ----------------------------------------
 .byte   PATT
  .word Label_018E4849
@  #08 @075   ----------------------------------------
 .byte   PATT
  .word Label_018E4863
@  #08 @076   ----------------------------------------
 .byte   N06 ,Ds3 ,v116
 .byte   N06 ,Gn3
 .byte   N06 ,Cn4 ,v108
 .byte   W36
 .byte   Ds3 ,v100
 .byte   N06 ,Gn3
 .byte   N06 ,Cn4 ,v092
 .byte   W12
 .byte   Ds3 ,v116
 .byte   N06 ,Gn3
 .byte   N06 ,Cn4 ,v108
 .byte   W48
@  #08 @077   ----------------------------------------
 .byte   Fn3
 .byte   N06 ,Gs3 ,v112
 .byte   N06 ,Cn4 ,v108
 .byte   W24
 .byte   Fn3 ,v112
 .byte   N06 ,Gs3 ,v116
 .byte   N06 ,Cn4 ,v112
 .byte   W24
 .byte   Ds3 ,v116
 .byte   N06 ,Gn3
 .byte   N06 ,Cn4 ,v108
 .byte   W36
 .byte   Ds3 ,v100
 .byte   N06 ,Gn3
 .byte   N06 ,Cn4 ,v092
 .byte   W12
@  #08 @078   ----------------------------------------
 .byte   Ds3 ,v116
 .byte   N06 ,Gn3
 .byte   N06 ,Cn4 ,v108
 .byte   W48
 .byte   Fn3
 .byte   N06 ,Gs3 ,v112
 .byte   N06 ,Cn4 ,v108
 .byte   W24
 .byte   Fn3 ,v112
 .byte   N06 ,Gs3 ,v116
 .byte   N06 ,Cn4 ,v112
 .byte   W24
@  #08 @079   ----------------------------------------
 .byte   PATT
  .word Label_018E445C
@  #08 @080   ----------------------------------------
 .byte   PATT
  .word Label_018E455E
@  #08 @081   ----------------------------------------
 .byte   PATT
  .word Label_018E457F
@  #08 @082   ----------------------------------------
 .byte   PATT
  .word Label_018E445C
@  #08 @083   ----------------------------------------
 .byte   PATT
  .word Label_018E4476
@  #08 @084   ----------------------------------------
 .byte   PATT
  .word Label_018E449F
@  #08 @085   ----------------------------------------
 .byte   GOTO
  .word Label_018E44B8
 .byte   FINE

@**************** Track 9 (Midi-Chn.8) ****************@

TremblingEarth_009:
@  #09 @000   ----------------------------------------
 .byte   KEYSH , TremblingEarth_key+0
 .byte   VOICE , 52
 .byte   VOL , 28*TremblingEarth_mvl/mxv
 .byte   PAN , c_v-4
 .byte   W96
@  #09 @001   ----------------------------------------
 .byte   W96
@  #09 @002   ----------------------------------------
 .byte   W96
@  #09 @003   ----------------------------------------
 .byte   W96
@  #09 @004   ----------------------------------------
 .byte   W96
@  #09 @005   ----------------------------------------
 .byte   W96
@  #09 @006   ----------------------------------------
Label_018E490B:
 .byte   W96
@  #09 @007   ----------------------------------------
 .byte   W96
@  #09 @008   ----------------------------------------
 .byte   W96
@  #09 @009   ----------------------------------------
 .byte   W96
@  #09 @010   ----------------------------------------
 .byte   W96
@  #09 @011   ----------------------------------------
 .byte   W96
@  #09 @012   ----------------------------------------
 .byte   W96
@  #09 @013   ----------------------------------------
 .byte   W96
@  #09 @014   ----------------------------------------
 .byte   W96
@  #09 @015   ----------------------------------------
 .byte   W96
@  #09 @016   ----------------------------------------
 .byte   W96
@  #09 @017   ----------------------------------------
 .byte   W96
@  #09 @018   ----------------------------------------
Label_018E4917:
 .byte   TIE ,Ds3 ,v092
 .byte   TIE ,As3
 .byte   W96
 .byte   PEND 
@  #09 @019   ----------------------------------------
 .byte   W96
@  #09 @020   ----------------------------------------
 .byte   W96
@  #09 @021   ----------------------------------------
 .byte   EOT
 .byte   Ds3 ,v070
@  #09 @022   ----------------------------------------
 .byte   PATT
  .word Label_018E4917
@  #09 @023   ----------------------------------------
 .byte   W48
 .byte   EOT
 .byte   Ds3 ,v070
 .byte   N72 ,En3 ,v092
 .byte   N72 ,Gs3
 .byte   W48
@  #09 @024   ----------------------------------------
 .byte   W24
 .byte   N72
 .byte   N72 ,Bn3
 .byte   W72
@  #09 @025   ----------------------------------------
 .byte   TIE ,Fs3
 .byte   TIE ,As3
 .byte   W96
@  #09 @026   ----------------------------------------
 .byte   W48
 .byte   EOT
 .byte   Fs3 ,v070
 .byte   N72 ,En3
 .byte   N72 ,Gs3
 .byte   W48
@  #09 @027   ----------------------------------------
 .byte   W24
 .byte   Bn2
 .byte   N72 ,En3
 .byte   W72
@  #09 @028   ----------------------------------------
Label_018E494A:
 .byte   N72 ,As2 ,v092
 .byte   TIE ,Ds3
 .byte   W72
 .byte   N72 ,Bn2
 .byte   W24
 .byte   PEND 
@  #09 @029   ----------------------------------------
 .byte   W48
 .byte   EOT
 .byte   Ds3
 .byte   N72 ,As2
 .byte   TIE ,Ds3
 .byte   W48
@  #09 @030   ----------------------------------------
 .byte   W24
 .byte   N72 ,Bn2
 .byte   W72
@  #09 @031   ----------------------------------------
 .byte   EOT
 .byte   Ds3
 .byte   N72 ,Cs3
 .byte   TIE ,Fs3
 .byte   W72
 .byte   N72 ,Dn3
 .byte   W24
@  #09 @032   ----------------------------------------
 .byte   W48
 .byte   EOT
 .byte   Fs3
 .byte   N72 ,Cs3
 .byte   TIE ,Fs3
 .byte   W48
@  #09 @033   ----------------------------------------
 .byte   W24
 .byte   N72 ,Dn3
 .byte   W72
@  #09 @034   ----------------------------------------
 .byte   EOT
 .byte   Fs3
 .byte   TIE ,Ds3 ,v100
 .byte   TIE ,As3
 .byte   W96
@  #09 @035   ----------------------------------------
 .byte   W96
@  #09 @036   ----------------------------------------
 .byte   W96
@  #09 @037   ----------------------------------------
 .byte   W96
@  #09 @038   ----------------------------------------
 .byte   W96
@  #09 @039   ----------------------------------------
 .byte   W96
@  #09 @040   ----------------------------------------
 .byte   EOT
 .byte   Ds3 ,v070
 .byte   TIE ,Ds2 ,v092
 .byte   TIE ,As2
 .byte   W96
@  #09 @041   ----------------------------------------
 .byte   W96
@  #09 @042   ----------------------------------------
 .byte   W96
@  #09 @043   ----------------------------------------
 .byte   W96
@  #09 @044   ----------------------------------------
 .byte   EOT
 .byte   Ds2 ,v058
 .byte   W96
@  #09 @045   ----------------------------------------
 .byte   W96
@  #09 @046   ----------------------------------------
 .byte   W96
@  #09 @047   ----------------------------------------
 .byte   W96
@  #09 @048   ----------------------------------------
 .byte   W96
@  #09 @049   ----------------------------------------
 .byte   W96
@  #09 @050   ----------------------------------------
 .byte   W96
@  #09 @051   ----------------------------------------
 .byte   W96
@  #09 @052   ----------------------------------------
 .byte   W96
@  #09 @053   ----------------------------------------
 .byte   W96
@  #09 @054   ----------------------------------------
 .byte   W96
@  #09 @055   ----------------------------------------
 .byte   W96
@  #09 @056   ----------------------------------------
 .byte   W96
@  #09 @057   ----------------------------------------
 .byte   W96
@  #09 @058   ----------------------------------------
 .byte   W96
@  #09 @059   ----------------------------------------
 .byte   W96
@  #09 @060   ----------------------------------------
 .byte   TIE ,Bn2 ,v100
 .byte   TIE ,Fn3
 .byte   W96
@  #09 @061   ----------------------------------------
 .byte   W96
@  #09 @062   ----------------------------------------
 .byte   EOT
 .byte   Bn2 ,v065
Label_018E49AC:
 .byte   TIE ,Cn3 ,v100
 .byte   TIE ,Gn3
 .byte   W96
 .byte   PEND 
@  #09 @063   ----------------------------------------
 .byte   W96
@  #09 @064   ----------------------------------------
 .byte   EOT
 .byte   Cn3 ,v067
 .byte   TIE ,Bn2 ,v120
 .byte   TIE ,Gn3
 .byte   W96
@  #09 @065   ----------------------------------------
 .byte   W96
@  #09 @066   ----------------------------------------
 .byte   EOT
 .byte   Bn2 ,v067
 .byte   W96
@  #09 @067   ----------------------------------------
 .byte   W96
@  #09 @068   ----------------------------------------
 .byte   W96
@  #09 @069   ----------------------------------------
 .byte   W96
@  #09 @070   ----------------------------------------
 .byte   PATT
  .word Label_018E49AC
@  #09 @071   ----------------------------------------
 .byte   W48
 .byte   EOT
 .byte   Gn3
 .byte   TIE ,Fn3 ,v100
 .byte   W48
@  #09 @072   ----------------------------------------
 .byte   W96
@  #09 @073   ----------------------------------------
 .byte   EOT
 .byte   Cn3 ,v065
@  #09 @074   ----------------------------------------
 .byte   PATT
  .word Label_018E49AC
@  #09 @075   ----------------------------------------
 .byte   W48
 .byte   EOT
 .byte   Gn3
 .byte   N72 ,Gs3 ,v100
 .byte   W48
@  #09 @076   ----------------------------------------
 .byte   W24
 .byte   Fn3
 .byte   W72
@  #09 @077   ----------------------------------------
 .byte   EOT
 .byte   Cn3
 .byte   N72 ,Gn2 ,v092
 .byte   TIE ,Cn3
 .byte   W72
 .byte   N72 ,Gs2
 .byte   W24
@  #09 @078   ----------------------------------------
 .byte   W48
 .byte   EOT
 .byte   Cn3
 .byte   N72 ,Gn2
 .byte   TIE ,Cn3
 .byte   W48
@  #09 @079   ----------------------------------------
 .byte   W24
 .byte   N72 ,Gs2
 .byte   W72
@  #09 @080   ----------------------------------------
 .byte   EOT
 .byte   Cn3
@  #09 @081   ----------------------------------------
 .byte   PATT
  .word Label_018E494A
@  #09 @082   ----------------------------------------
 .byte   W48
 .byte   EOT
 .byte   Ds3
 .byte   N72 ,As2 ,v092
 .byte   TIE ,Ds3
 .byte   W48
@  #09 @083   ----------------------------------------
 .byte   W24
 .byte   N72 ,Bn2
 .byte   W72
@  #09 @084   ----------------------------------------
 .byte   EOT
 .byte   Ds3
 .byte   TIE ,As2
 .byte   TIE ,Ds3
 .byte   W72
 .byte   W01
 .byte   W03
 .byte   W01
 .byte   W03
 .byte   W01
 .byte   W01
 .byte   W03
 .byte   W01
 .byte   W03
 .byte   W01
 .byte   W01
 .byte   W03
 .byte   W01
 .byte   W01
@  #09 @085   ----------------------------------------
 .byte   W01
 .byte   W03
 .byte   W01
 .byte   W03
 .byte   W01
 .byte   W01
 .byte   W03
 .byte   W01
 .byte   W03
 .byte   W01
 .byte   W02
 .byte   W01
 .byte   W02
 .byte   W01
 .byte   W01
 .byte   W02
 .byte   W01
 .byte   W01
 .byte   W03
 .byte   W01
 .byte   W03
 .byte   W01
 .byte   W02
 .byte   W01
 .byte   W02
 .byte   W01
 .byte   W01
 .byte   W03
 .byte   W01
 .byte   W03
 .byte   W01
 .byte   W01
 .byte   W03
 .byte   W01
 .byte   W03
 .byte   W01
 .byte   W02
 .byte   W01
 .byte   W02
 .byte   W01
 .byte   W01
 .byte   W03
 .byte   W01
 .byte   W03
 .byte   W01
 .byte   W03
 .byte   W01
 .byte   W02
 .byte   W01
 .byte   W02
 .byte   W01
 .byte   W01
 .byte   W03
 .byte   W01
 .byte   W03
 .byte   W01
 .byte   W01
@  #09 @086   ----------------------------------------
 .byte   W03
 .byte   W03
 .byte   W03
 .byte   W01
 .byte   W03
 .byte   W01
 .byte   W01
 .byte   W03
 .byte   W01
 .byte   W03
 .byte   W01
 .byte   W01
 .byte   EOT
 .byte   As2 ,v063
 .byte   W72
@  #09 @087   ----------------------------------------
 .byte   GOTO
  .word Label_018E490B
 .byte   FINE

@**************** Track 10 (Midi-Chn.9) ****************@

TremblingEarth_010:
@  #10 @000   ----------------------------------------
 .byte   KEYSH , TremblingEarth_key+0
 .byte   VOICE , 127
 .byte   VOL , 28*TremblingEarth_mvl/mxv
 .byte   PAN , c_v+0
 .byte   W96
@  #10 @001   ----------------------------------------
 .byte   W96
@  #10 @002   ----------------------------------------
 .byte   W96
@  #10 @003   ----------------------------------------
Label_018E4A7E:
 .byte   N12 ,Dn1 ,v092
 .byte   W12
 .byte   N24 ,Dn1 ,v100
 .byte   W24
 .byte   N12 ,Dn1 ,v092
 .byte   W12
 .byte   N06 ,Dn1 ,v100
 .byte   W06
 .byte   Dn1 ,v092
 .byte   W06
 .byte   N12
 .byte   W12
 .byte   N12
 .byte   W12
 .byte   N24 ,Dn1 ,v100
 .byte   W12
 .byte   PEND 
@  #10 @004   ----------------------------------------
Label_018E4A9A:
 .byte   W12
 .byte   N12 ,Dn1 ,v092
 .byte   W12
 .byte   N06 ,Dn1 ,v100
 .byte   W06
 .byte   Dn1 ,v092
 .byte   W06
 .byte   N06
 .byte   W06
 .byte   N06
 .byte   W06
 .byte   N12
 .byte   W12
 .byte   N24 ,Dn1 ,v100
 .byte   W24
 .byte   N12 ,Dn1 ,v092
 .byte   W12
 .byte   PEND 
@  #10 @005   ----------------------------------------
Label_018E4AB5:
 .byte   N06 ,Dn1 ,v100
 .byte   W06
 .byte   Dn1 ,v092
 .byte   W06
 .byte   N12
 .byte   W12
 .byte   N12
 .byte   W12
 .byte   N24 ,Dn1 ,v100
 .byte   W24
 .byte   N12 ,Dn1 ,v092
 .byte   W12
 .byte   N06 ,Dn1 ,v100
 .byte   W06
 .byte   Dn1 ,v092
 .byte   W06
 .byte   N06
 .byte   W06
 .byte   N06
 .byte   W06
 .byte   PEND 
@  #10 @006   ----------------------------------------
Label_018E4AD4:
@  #10 @007   ----------------------------------------
 .byte   PATT
  .word Label_018E4A7E
@  #10 @008   ----------------------------------------
 .byte   PATT
  .word Label_018E4A9A
@  #10 @009   ----------------------------------------
 .byte   PATT
  .word Label_018E4AB5
@  #10 @010   ----------------------------------------
 .byte   PATT
  .word Label_018E4A7E
@  #10 @011   ----------------------------------------
 .byte   PATT
  .word Label_018E4A9A
@  #10 @012   ----------------------------------------
 .byte   PATT
  .word Label_018E4AB5
@  #10 @013   ----------------------------------------
 .byte   PATT
  .word Label_018E4A7E
@  #10 @014   ----------------------------------------
 .byte   PATT
  .word Label_018E4A9A
@  #10 @015   ----------------------------------------
 .byte   PATT
  .word Label_018E4AB5
@  #10 @016   ----------------------------------------
 .byte   PATT
  .word Label_018E4A7E
@  #10 @017   ----------------------------------------
 .byte   PATT
  .word Label_018E4A9A
@  #10 @018   ----------------------------------------
 .byte   PATT
  .word Label_018E4AB5
@  #10 @019   ----------------------------------------
 .byte   PATT
  .word Label_018E4A7E
@  #10 @020   ----------------------------------------
 .byte   PATT
  .word Label_018E4A9A
@  #10 @021   ----------------------------------------
 .byte   PATT
  .word Label_018E4AB5
@  #10 @022   ----------------------------------------
 .byte   PATT
  .word Label_018E4A7E
@  #10 @023   ----------------------------------------
 .byte   PATT
  .word Label_018E4A9A
@  #10 @024   ----------------------------------------
 .byte   PATT
  .word Label_018E4AB5
@  #10 @025   ----------------------------------------
 .byte   PATT
  .word Label_018E4A7E
@  #10 @026   ----------------------------------------
 .byte   PATT
  .word Label_018E4A9A
@  #10 @027   ----------------------------------------
 .byte   PATT
  .word Label_018E4AB5
@  #10 @028   ----------------------------------------
 .byte   PATT
  .word Label_018E4A7E
@  #10 @029   ----------------------------------------
 .byte   PATT
  .word Label_018E4A9A
@  #10 @030   ----------------------------------------
 .byte   PATT
  .word Label_018E4AB5
@  #10 @031   ----------------------------------------
 .byte   PATT
  .word Label_018E4A7E
@  #10 @032   ----------------------------------------
 .byte   PATT
  .word Label_018E4A9A
@  #10 @033   ----------------------------------------
 .byte   PATT
  .word Label_018E4AB5
@  #10 @034   ----------------------------------------
 .byte   PATT
  .word Label_018E4A7E
@  #10 @035   ----------------------------------------
 .byte   PATT
  .word Label_018E4A9A
@  #10 @036   ----------------------------------------
 .byte   PATT
  .word Label_018E4AB5
@  #10 @037   ----------------------------------------
 .byte   PATT
  .word Label_018E4A7E
@  #10 @038   ----------------------------------------
 .byte   PATT
  .word Label_018E4A9A
@  #10 @039   ----------------------------------------
 .byte   N06 ,Dn1 ,v100
 .byte   W06
 .byte   Dn1 ,v092
 .byte   W06
 .byte   N12
 .byte   W12
 .byte   N12
 .byte   W12
 .byte   N24 ,Dn1 ,v100
 .byte   W24
 .byte   N12 ,Dn1 ,v092
 .byte   W12
 .byte   N06 ,Dn1 ,v120
 .byte   W06
 .byte   Dn1 ,v112
 .byte   W06
 .byte   N06
 .byte   W06
 .byte   N06
 .byte   W06
@  #10 @040   ----------------------------------------
Label_018E4B92:
 .byte   N12 ,Dn1 ,v092
 .byte   W12
 .byte   N24 ,Dn1 ,v100
 .byte   W24
 .byte   N12 ,Dn1 ,v092
 .byte   W12
 .byte   Dn1 ,v080
 .byte   W12
 .byte   Dn1 ,v092
 .byte   W12
 .byte   N06 ,Dn1 ,v100
 .byte   W06
 .byte   Dn1 ,v092
 .byte   W06
 .byte   N12
 .byte   W12
 .byte   PEND 
@  #10 @041   ----------------------------------------
Label_018E4BAE:
 .byte   N12 ,Dn1 ,v092
 .byte   W12
 .byte   N24 ,Dn1 ,v100
 .byte   W24
 .byte   N12 ,Dn1 ,v092
 .byte   W12
 .byte   Dn1 ,v080
 .byte   W12
 .byte   Dn1 ,v092
 .byte   W12
 .byte   N06 ,Dn1 ,v100
 .byte   W06
 .byte   Dn1 ,v092
 .byte   W06
 .byte   N06
 .byte   W06
 .byte   N06
 .byte   W06
 .byte   PEND 
@  #10 @042   ----------------------------------------
 .byte   PATT
  .word Label_018E4B92
@  #10 @043   ----------------------------------------
 .byte   PATT
  .word Label_018E4BAE
@  #10 @044   ----------------------------------------
 .byte   PATT
  .word Label_018E4B92
@  #10 @045   ----------------------------------------
 .byte   PATT
  .word Label_018E4BAE
@  #10 @046   ----------------------------------------
 .byte   PATT
  .word Label_018E4B92
@  #10 @047   ----------------------------------------
 .byte   PATT
  .word Label_018E4BAE
@  #10 @048   ----------------------------------------
 .byte   PATT
  .word Label_018E4B92
@  #10 @049   ----------------------------------------
 .byte   PATT
  .word Label_018E4BAE
@  #10 @050   ----------------------------------------
 .byte   PATT
  .word Label_018E4B92
@  #10 @051   ----------------------------------------
 .byte   PATT
  .word Label_018E4BAE
@  #10 @052   ----------------------------------------
 .byte   PATT
  .word Label_018E4B92
@  #10 @053   ----------------------------------------
 .byte   PATT
  .word Label_018E4BAE
@  #10 @054   ----------------------------------------
 .byte   PATT
  .word Label_018E4B92
@  #10 @055   ----------------------------------------
 .byte   PATT
  .word Label_018E4BAE
@  #10 @056   ----------------------------------------
 .byte   PATT
  .word Label_018E4B92
@  #10 @057   ----------------------------------------
 .byte   PATT
  .word Label_018E4BAE
@  #10 @058   ----------------------------------------
 .byte   PATT
  .word Label_018E4B92
@  #10 @059   ----------------------------------------
 .byte   PATT
  .word Label_018E4BAE
@  #10 @060   ----------------------------------------
 .byte   PATT
  .word Label_018E4B92
@  #10 @061   ----------------------------------------
 .byte   PATT
  .word Label_018E4BAE
@  #10 @062   ----------------------------------------
 .byte   PATT
  .word Label_018E4B92
@  #10 @063   ----------------------------------------
 .byte   PATT
  .word Label_018E4BAE
@  #10 @064   ----------------------------------------
 .byte   PATT
  .word Label_018E4A7E
@  #10 @065   ----------------------------------------
 .byte   PATT
  .word Label_018E4A9A
@  #10 @066   ----------------------------------------
 .byte   PATT
  .word Label_018E4AB5
@  #10 @067   ----------------------------------------
 .byte   PATT
  .word Label_018E4A7E
@  #10 @068   ----------------------------------------
 .byte   PATT
  .word Label_018E4A9A
@  #10 @069   ----------------------------------------
 .byte   PATT
  .word Label_018E4AB5
@  #10 @070   ----------------------------------------
 .byte   PATT
  .word Label_018E4A7E
@  #10 @071   ----------------------------------------
 .byte   PATT
  .word Label_018E4A9A
@  #10 @072   ----------------------------------------
 .byte   PATT
  .word Label_018E4AB5
@  #10 @073   ----------------------------------------
 .byte   PATT
  .word Label_018E4A7E
@  #10 @074   ----------------------------------------
 .byte   PATT
  .word Label_018E4A9A
@  #10 @075   ----------------------------------------
 .byte   PATT
  .word Label_018E4AB5
@  #10 @076   ----------------------------------------
 .byte   PATT
  .word Label_018E4A7E
@  #10 @077   ----------------------------------------
 .byte   PATT
  .word Label_018E4A9A
@  #10 @078   ----------------------------------------
 .byte   PATT
  .word Label_018E4AB5
@  #10 @079   ----------------------------------------
 .byte   PATT
  .word Label_018E4A7E
@  #10 @080   ----------------------------------------
 .byte   PATT
  .word Label_018E4A9A
@  #10 @081   ----------------------------------------
 .byte   PATT
  .word Label_018E4AB5
@  #10 @082   ----------------------------------------
 .byte   PATT
  .word Label_018E4A7E
@  #10 @083   ----------------------------------------
 .byte   PATT
  .word Label_018E4A9A
@  #10 @084   ----------------------------------------
 .byte   PATT
  .word Label_018E4AB5
@  #10 @085   ----------------------------------------
 .byte   GOTO
  .word Label_018E4AD4
 .byte   FINE

@**************** Track 11 (Midi-Chn.10) ****************@

TremblingEarth_011:
@  #11 @000   ----------------------------------------
 .byte   KEYSH , TremblingEarth_key+0
 .byte   VOICE , 48
 .byte   VOL , 31*TremblingEarth_mvl/mxv
 .byte   PAN , c_v+6
 .byte   N12 ,Ds1 ,v088
 .byte   W12
 .byte   As1
 .byte   W12
 .byte   Ds2
 .byte   W12
 .byte   En2 ,v092
 .byte   W12
 .byte   Cs2
 .byte   W12
 .byte   Ds2
 .byte   W12
 .byte   Ds1 ,v096
 .byte   W12
 .byte   As1
 .byte   W12
@  #11 @001   ----------------------------------------
 .byte   Ds2
 .byte   W12
 .byte   En2 ,v100
 .byte   W12
 .byte   Fs2
 .byte   W12
 .byte   Ds2
 .byte   W12
 .byte   Ds1 ,v108
 .byte   W12
 .byte   As1
 .byte   W12
 .byte   Ds2
 .byte   W12
 .byte   En2 ,v112
 .byte   W12
@  #11 @002   ----------------------------------------
 .byte   Cs2
 .byte   W12
 .byte   Ds2
 .byte   W12
 .byte   Ds1 ,v116
 .byte   W12
 .byte   Ds2
 .byte   W12
 .byte   Cs2
 .byte   W12
 .byte   Ds2 ,v120
 .byte   W12
 .byte   Bn1
 .byte   W12
 .byte   Ds2
 .byte   W12
@  #11 @003   ----------------------------------------
Label_018E4CEA:
 .byte   N12 ,Ds1 ,v120
 .byte   W12
 .byte   As1
 .byte   W12
 .byte   Ds2
 .byte   W12
 .byte   En2
 .byte   W12
 .byte   Cs2
 .byte   W12
 .byte   Ds2
 .byte   W12
 .byte   Ds1
 .byte   W12
 .byte   As1
 .byte   W12
 .byte   PEND 
@  #11 @004   ----------------------------------------
Label_018E4CFD:
 .byte   N12 ,Ds2 ,v120
 .byte   W12
 .byte   En2
 .byte   W12
 .byte   Fs2
 .byte   W12
 .byte   Ds2
 .byte   W12
 .byte   Ds1
 .byte   W12
 .byte   As1
 .byte   W12
 .byte   Ds2
 .byte   W12
 .byte   En2
 .byte   W12
 .byte   PEND 
@  #11 @005   ----------------------------------------
Label_018E4D10:
 .byte   N12 ,Cs2 ,v120
 .byte   W12
 .byte   Ds2
 .byte   W12
 .byte   Ds1
 .byte   W12
 .byte   Ds2
 .byte   W12
 .byte   Cs2
 .byte   W12
 .byte   Ds2
 .byte   W12
 .byte   Bn1
 .byte   W12
 .byte   Ds2
 .byte   W12
 .byte   PEND 
@  #11 @006   ----------------------------------------
Label_018E4D23:
@  #11 @007   ----------------------------------------
 .byte   PATT
  .word Label_018E4CEA
@  #11 @008   ----------------------------------------
 .byte   PATT
  .word Label_018E4CFD
@  #11 @009   ----------------------------------------
 .byte   PATT
  .word Label_018E4D10
@  #11 @010   ----------------------------------------
 .byte   PATT
  .word Label_018E4CEA
@  #11 @011   ----------------------------------------
 .byte   PATT
  .word Label_018E4CFD
@  #11 @012   ----------------------------------------
 .byte   PATT
  .word Label_018E4D10
@  #11 @013   ----------------------------------------
 .byte   PATT
  .word Label_018E4CEA
@  #11 @014   ----------------------------------------
 .byte   PATT
  .word Label_018E4CFD
@  #11 @015   ----------------------------------------
 .byte   PATT
  .word Label_018E4D10
@  #11 @016   ----------------------------------------
 .byte   PATT
  .word Label_018E4CEA
@  #11 @017   ----------------------------------------
 .byte   PATT
  .word Label_018E4CFD
@  #11 @018   ----------------------------------------
 .byte   PATT
  .word Label_018E4D10
@  #11 @019   ----------------------------------------
 .byte   PATT
  .word Label_018E4CEA
@  #11 @020   ----------------------------------------
 .byte   PATT
  .word Label_018E4CFD
@  #11 @021   ----------------------------------------
 .byte   PATT
  .word Label_018E4D10
@  #11 @022   ----------------------------------------
 .byte   PATT
  .word Label_018E4CEA
@  #11 @023   ----------------------------------------
Label_018E4D73:
 .byte   N12 ,Ds2 ,v120
 .byte   W12
 .byte   En2
 .byte   W12
 .byte   Fs2
 .byte   W12
 .byte   Ds2
 .byte   W12
 .byte   En1
 .byte   W12
 .byte   Bn1
 .byte   W12
 .byte   En2
 .byte   W12
 .byte   Fs2
 .byte   W12
 .byte   PEND 
@  #11 @024   ----------------------------------------
 .byte   Ds2
 .byte   W12
 .byte   En2
 .byte   W12
 .byte   En1
 .byte   W12
 .byte   Bn1
 .byte   W12
 .byte   En2
 .byte   W12
 .byte   Fs2
 .byte   W12
 .byte   Gs2
 .byte   W12
 .byte   En2
 .byte   W12
@  #11 @025   ----------------------------------------
 .byte   PATT
  .word Label_018E4CEA
@  #11 @026   ----------------------------------------
 .byte   PATT
  .word Label_018E4D73
@  #11 @027   ----------------------------------------
 .byte   N12 ,Ds2 ,v120
 .byte   W12
 .byte   En2
 .byte   W12
 .byte   En1
 .byte   W12
 .byte   En2
 .byte   W12
 .byte   Ds2
 .byte   W12
 .byte   En2
 .byte   W12
 .byte   Bn1
 .byte   W12
 .byte   En2
 .byte   W12
@  #11 @028   ----------------------------------------
 .byte   Ds1
 .byte   W12
 .byte   As1
 .byte   W12
 .byte   Ds2
 .byte   W12
 .byte   Fn2
 .byte   W12
 .byte   Cs2
 .byte   W12
 .byte   Ds2
 .byte   W12
 .byte   Ds1
 .byte   W12
 .byte   Gs1
 .byte   W12
@  #11 @029   ----------------------------------------
 .byte   Ds2
 .byte   W12
 .byte   Fn2
 .byte   W12
 .byte   Gs2
 .byte   W12
 .byte   Bn2
 .byte   W12
 .byte   Ds1
 .byte   W12
 .byte   As1
 .byte   W12
 .byte   Ds2
 .byte   W12
 .byte   Fn2
 .byte   W12
@  #11 @030   ----------------------------------------
 .byte   Cs2
 .byte   W12
 .byte   Ds2
 .byte   W12
 .byte   Ds1
 .byte   W12
 .byte   Gs1
 .byte   W12
 .byte   Ds2
 .byte   W12
 .byte   Fn2
 .byte   W12
 .byte   Gs2
 .byte   W12
 .byte   Bn2
 .byte   W12
@  #11 @031   ----------------------------------------
 .byte   Fs1
 .byte   W12
 .byte   Cs2
 .byte   W12
 .byte   Fs2
 .byte   W12
 .byte   Gs2
 .byte   W12
 .byte   En2
 .byte   W12
 .byte   Fs2
 .byte   W12
 .byte   Fs1
 .byte   W12
 .byte   Bn1
 .byte   W12
@  #11 @032   ----------------------------------------
 .byte   Fs2
 .byte   W12
 .byte   Gs2
 .byte   W12
 .byte   Bn2
 .byte   W12
 .byte   Dn3
 .byte   W12
 .byte   Fs1
 .byte   W12
 .byte   Cs2
 .byte   W12
 .byte   Fs2
 .byte   W12
 .byte   Gs2
 .byte   W12
@  #11 @033   ----------------------------------------
 .byte   En2
 .byte   W12
 .byte   Fs2
 .byte   W12
 .byte   Fs1
 .byte   W12
 .byte   Bn1
 .byte   W12
 .byte   Fs2
 .byte   W12
 .byte   Gs2
 .byte   W12
 .byte   Bn2
 .byte   W12
 .byte   Dn3
 .byte   W12
@  #11 @034   ----------------------------------------
 .byte   PATT
  .word Label_018E4CEA
@  #11 @035   ----------------------------------------
 .byte   PATT
  .word Label_018E4CFD
@  #11 @036   ----------------------------------------
 .byte   PATT
  .word Label_018E4D10
@  #11 @037   ----------------------------------------
 .byte   PATT
  .word Label_018E4CEA
@  #11 @038   ----------------------------------------
 .byte   PATT
  .word Label_018E4CFD
@  #11 @039   ----------------------------------------
 .byte   PATT
  .word Label_018E4D10
@  #11 @040   ----------------------------------------
Label_018E4E30:
 .byte   N12 ,Ds1 ,v120
 .byte   W12
 .byte   As1
 .byte   W12
 .byte   Ds2
 .byte   W12
 .byte   Fn2
 .byte   W12
 .byte   Cs2
 .byte   W12
 .byte   Ds2
 .byte   W12
 .byte   Bn1
 .byte   W12
 .byte   Cs2
 .byte   W12
 .byte   PEND 
@  #11 @041   ----------------------------------------
Label_018E4E43:
 .byte   N12 ,Ds1 ,v120
 .byte   W12
 .byte   As1
 .byte   W12
 .byte   Ds2
 .byte   W12
 .byte   Fn2
 .byte   W12
 .byte   Fs2
 .byte   W12
 .byte   Gs2
 .byte   W12
 .byte   Fn2
 .byte   W12
 .byte   Ds2
 .byte   W12
 .byte   PEND 
@  #11 @042   ----------------------------------------
 .byte   PATT
  .word Label_018E4E30
@  #11 @043   ----------------------------------------
 .byte   N12 ,Ds1 ,v120
 .byte   W12
 .byte   Ds2
 .byte   W12
 .byte   Cs2
 .byte   W12
 .byte   Ds2
 .byte   W12
 .byte   Bn1
 .byte   W12
 .byte   Ds2
 .byte   W12
 .byte   As1
 .byte   W12
 .byte   Ds2
 .byte   W12
@  #11 @044   ----------------------------------------
 .byte   PATT
  .word Label_018E4E30
@  #11 @045   ----------------------------------------
 .byte   PATT
  .word Label_018E4E43
@  #11 @046   ----------------------------------------
 .byte   PATT
  .word Label_018E4E30
@  #11 @047   ----------------------------------------
Label_018E4E7C:
 .byte   N12 ,Ds1 ,v120
 .byte   W12
 .byte   Ds2
 .byte   W12
 .byte   Cs2
 .byte   W12
 .byte   Ds2
 .byte   W12
 .byte   Bn1
 .byte   W12
 .byte   Ds2 ,v127
 .byte   W12
 .byte   As1
 .byte   W12
 .byte   Ds2
 .byte   W12
 .byte   PEND 
@  #11 @048   ----------------------------------------
 .byte   PATT
  .word Label_018E4E30
@  #11 @049   ----------------------------------------
 .byte   PATT
  .word Label_018E4E43
@  #11 @050   ----------------------------------------
 .byte   PATT
  .word Label_018E4E30
@  #11 @051   ----------------------------------------
 .byte   PATT
  .word Label_018E4E7C
@  #11 @052   ----------------------------------------
 .byte   N12 ,Ds1 ,v127
 .byte   W12
 .byte   As1
 .byte   W12
 .byte   Ds2
 .byte   W12
 .byte   Fn2
 .byte   W12
 .byte   Cs2
 .byte   W12
 .byte   Ds2
 .byte   W12
 .byte   Bn1
 .byte   W12
 .byte   Cs2
 .byte   W12
@  #11 @053   ----------------------------------------
 .byte   Ds1
 .byte   W12
 .byte   As1
 .byte   W12
 .byte   Ds2
 .byte   W12
 .byte   Fn2
 .byte   W12
 .byte   Fs2
 .byte   W12
 .byte   Gs2
 .byte   W12
 .byte   Fn2
 .byte   W12
 .byte   Ds2
 .byte   W12
@  #11 @054   ----------------------------------------
 .byte   Dn1
 .byte   W12
 .byte   As1
 .byte   W12
 .byte   Dn2
 .byte   W12
 .byte   Ds2
 .byte   W12
 .byte   Cn2
 .byte   W12
 .byte   Dn2
 .byte   W12
 .byte   As1
 .byte   W12
 .byte   Cn2
 .byte   W12
@  #11 @055   ----------------------------------------
 .byte   Dn1
 .byte   W12
 .byte   As1
 .byte   W12
 .byte   Dn2
 .byte   W12
 .byte   Ds2
 .byte   W12
 .byte   Fn2
 .byte   W12
 .byte   Fs2
 .byte   W12
 .byte   Gs2
 .byte   W12
 .byte   Fn2
 .byte   W12
@  #11 @056   ----------------------------------------
 .byte   Cs1
 .byte   W12
 .byte   As1
 .byte   W12
 .byte   Cs2
 .byte   W12
 .byte   Ds2
 .byte   W12
 .byte   As1
 .byte   W12
 .byte   Cs2
 .byte   W12
 .byte   Gn1
 .byte   W12
 .byte   As1
 .byte   W12
@  #11 @057   ----------------------------------------
 .byte   Cs1
 .byte   W12
 .byte   As1
 .byte   W12
 .byte   Cs2
 .byte   W12
 .byte   Ds2
 .byte   W12
 .byte   Fn2
 .byte   W12
 .byte   Cs2
 .byte   W12
 .byte   Gn2
 .byte   W12
 .byte   Cs2
 .byte   W12
@  #11 @058   ----------------------------------------
 .byte   Bn0
 .byte   W12
 .byte   Gs1
 .byte   W12
 .byte   Bn1
 .byte   W12
 .byte   Cs2
 .byte   W12
 .byte   Ds2
 .byte   W12
 .byte   En2
 .byte   W12
 .byte   Cs2
 .byte   W12
 .byte   Ds2
 .byte   W12
@  #11 @059   ----------------------------------------
 .byte   Bn0
 .byte   W12
 .byte   Bn1
 .byte   W12
 .byte   As1
 .byte   W12
 .byte   Bn1
 .byte   W12
 .byte   Gs1
 .byte   W12
 .byte   Bn1
 .byte   W12
 .byte   Ds1
 .byte   W12
 .byte   Bn1
 .byte   W12
@  #11 @060   ----------------------------------------
 .byte   Fn1
 .byte   W12
 .byte   Dn2
 .byte   W12
 .byte   Fn2
 .byte   W12
 .byte   Gn2
 .byte   W12
 .byte   Dn2
 .byte   W12
 .byte   Fn2
 .byte   W12
 .byte   Bn1
 .byte   W12
 .byte   Dn2
 .byte   W12
@  #11 @061   ----------------------------------------
 .byte   Fn1
 .byte   W12
 .byte   Dn2
 .byte   W12
 .byte   Fn2
 .byte   W12
 .byte   Gn2
 .byte   W12
 .byte   An2
 .byte   W12
 .byte   Fn2
 .byte   W12
 .byte   Bn2
 .byte   W12
 .byte   Fn2
 .byte   W12
@  #11 @062   ----------------------------------------
 .byte   Ds1
 .byte   W12
 .byte   Cn2
 .byte   W12
 .byte   Ds2
 .byte   W12
 .byte   Fn2
 .byte   W12
 .byte   Gn2
 .byte   W12
 .byte   Gs2
 .byte   W12
 .byte   Fn2
 .byte   W12
 .byte   Gn2
 .byte   W12
@  #11 @063   ----------------------------------------
 .byte   Ds1
 .byte   W12
 .byte   Ds2
 .byte   W12
 .byte   Dn2
 .byte   W12
 .byte   Ds2
 .byte   W12
 .byte   Cn2
 .byte   W12
 .byte   Ds2
 .byte   W12
 .byte   Gn1
 .byte   W12
 .byte   Ds2
 .byte   W12
@  #11 @064   ----------------------------------------
 .byte   Gn1
 .byte   W12
 .byte   Dn2
 .byte   W12
 .byte   Gn2
 .byte   W12
 .byte   Gs2
 .byte   W12
 .byte   Fn2
 .byte   W12
 .byte   Gn2
 .byte   W12
 .byte   Gn1
 .byte   W12
 .byte   Dn2
 .byte   W12
@  #11 @065   ----------------------------------------
 .byte   Gn2
 .byte   W12
 .byte   An2
 .byte   W12
 .byte   Bn2
 .byte   W12
 .byte   Gn2
 .byte   W12
 .byte   Gn1
 .byte   W12
 .byte   Dn2
 .byte   W12
 .byte   Gn2
 .byte   W12
 .byte   Gs2
 .byte   W12
@  #11 @066   ----------------------------------------
 .byte   Fn2
 .byte   W12
 .byte   Gn2
 .byte   W12
 .byte   Gn1
 .byte   W12
 .byte   Gn2
 .byte   W12
 .byte   Fn2
 .byte   W12
 .byte   Gn2
 .byte   W12
 .byte   Dn2
 .byte   W12
 .byte   Gn2
 .byte   W12
@  #11 @067   ----------------------------------------
Label_018E4F96:
 .byte   N12 ,Cn2 ,v108
 .byte   W12
 .byte   Gn2
 .byte   W12
 .byte   Cn3
 .byte   W12
 .byte   Cs3
 .byte   W12
 .byte   As2
 .byte   W12
 .byte   Cn3
 .byte   W12
 .byte   Cn2
 .byte   W12
 .byte   Gn2
 .byte   W12
 .byte   PEND 
@  #11 @068   ----------------------------------------
 .byte   Cn3
 .byte   W12
 .byte   Cs3
 .byte   W12
 .byte   Ds3
 .byte   W12
 .byte   Cn3
 .byte   W12
 .byte   Cn2
 .byte   W12
 .byte   Gn2
 .byte   W12
 .byte   Cn3
 .byte   W12
 .byte   Cs3
 .byte   W12
@  #11 @069   ----------------------------------------
 .byte   As2
 .byte   W12
 .byte   Cn3
 .byte   W12
 .byte   Cn2
 .byte   W12
 .byte   Cn3
 .byte   W12
 .byte   As2
 .byte   W12
 .byte   Cn3
 .byte   W12
 .byte   Gn2
 .byte   W12
 .byte   Cn3
 .byte   W12
@  #11 @070   ----------------------------------------
 .byte   PATT
  .word Label_018E4F96
@  #11 @071   ----------------------------------------
Label_018E4FCE:
 .byte   N12 ,Cn3 ,v108
 .byte   W12
 .byte   Cs3
 .byte   W12
 .byte   Ds3
 .byte   W12
 .byte   Cn3
 .byte   W12
 .byte   Cn2
 .byte   W12
 .byte   Gs2
 .byte   W12
 .byte   Cn3
 .byte   W12
 .byte   Cs3
 .byte   W12
 .byte   PEND 
@  #11 @072   ----------------------------------------
Label_018E4FE1:
 .byte   N12 ,As2 ,v108
 .byte   W12
 .byte   Cn3
 .byte   W12
 .byte   Cn2
 .byte   W12
 .byte   Gs2
 .byte   W12
 .byte   Cn3
 .byte   W12
 .byte   Cs3
 .byte   W12
 .byte   Ds3
 .byte   W12
 .byte   Cn3
 .byte   W12
 .byte   PEND 
@  #11 @073   ----------------------------------------
 .byte   PATT
  .word Label_018E4F96
@  #11 @074   ----------------------------------------
 .byte   PATT
  .word Label_018E4FCE
@  #11 @075   ----------------------------------------
 .byte   PATT
  .word Label_018E4FE1
@  #11 @076   ----------------------------------------
 .byte   N12 ,Cn2 ,v108
 .byte   W12
 .byte   Gn2
 .byte   W12
 .byte   Cn3
 .byte   W12
 .byte   Dn3
 .byte   W12
 .byte   As2
 .byte   W12
 .byte   Cn3
 .byte   W12
 .byte   Cn2
 .byte   W12
 .byte   Fn2
 .byte   W12
@  #11 @077   ----------------------------------------
 .byte   Cn3
 .byte   W12
 .byte   Dn3
 .byte   W12
 .byte   Fn3
 .byte   W12
 .byte   Gs3
 .byte   W12
 .byte   Cn2
 .byte   W12
 .byte   Gn2
 .byte   W12
 .byte   Cn3
 .byte   W12
 .byte   Dn3
 .byte   W12
@  #11 @078   ----------------------------------------
 .byte   As2
 .byte   W12
 .byte   Cn3
 .byte   W12
 .byte   Cn2
 .byte   W12
 .byte   Fn2
 .byte   W12
 .byte   Cn3
 .byte   W12
 .byte   Dn3
 .byte   W12
 .byte   Fn3
 .byte   W12
 .byte   Gs3
 .byte   W12
@  #11 @079   ----------------------------------------
 .byte   Ds1 ,v127
 .byte   W12
 .byte   As1
 .byte   W12
 .byte   Ds2
 .byte   W12
 .byte   Fn2
 .byte   W12
 .byte   Cs2
 .byte   W12
 .byte   Ds2
 .byte   W12
 .byte   Ds1
 .byte   W12
 .byte   Gs1
 .byte   W12
@  #11 @080   ----------------------------------------
 .byte   Ds2
 .byte   W12
 .byte   Fn2
 .byte   W12
 .byte   Gs2
 .byte   W12
 .byte   Bn2
 .byte   W12
 .byte   Ds1
 .byte   W12
 .byte   As1
 .byte   W12
 .byte   Ds2
 .byte   W12
 .byte   Fn2
 .byte   W12
@  #11 @081   ----------------------------------------
 .byte   Cs2
 .byte   W12
 .byte   Ds2
 .byte   W12
 .byte   Ds1
 .byte   W12
 .byte   Gs1
 .byte   W12
 .byte   Ds2
 .byte   W12
 .byte   Fn2
 .byte   W12
 .byte   Gs2
 .byte   W12
 .byte   Bn2
 .byte   W12
@  #11 @082   ----------------------------------------
 .byte   PATT
  .word Label_018E4CEA
@  #11 @083   ----------------------------------------
 .byte   PATT
  .word Label_018E4CFD
@  #11 @084   ----------------------------------------
 .byte   PATT
  .word Label_018E4D10
@  #11 @085   ----------------------------------------
 .byte   GOTO
  .word Label_018E4D23
 .byte   FINE

@**************** Track 12 (Midi-Chn.11) ****************@

TremblingEarth_012:
@  #12 @000   ----------------------------------------
 .byte   KEYSH , TremblingEarth_key+0
 .byte   VOICE , 14
 .byte   VOL , 26*TremblingEarth_mvl/mxv
 .byte   PAN , c_v+12
 .byte   N72 ,Ds3 ,v080
 .byte   W02
 .byte   N68 ,As3 ,v100
 .byte   W92
 .byte   W02
@  #12 @001   ----------------------------------------
 .byte   W48
 .byte   N72 ,Ds3 ,v080
 .byte   W02
 .byte   N68 ,As3 ,v100
 .byte   W44
 .byte   W02
@  #12 @002   ----------------------------------------
 .byte   W96
@  #12 @003   ----------------------------------------
Label_018E5097:
 .byte   N72 ,Ds3 ,v092
 .byte   W02
 .byte   N68 ,As3 ,v112
 .byte   W92
 .byte   W02
 .byte   PEND 
@  #12 @004   ----------------------------------------
 .byte   W96
@  #12 @005   ----------------------------------------
 .byte   W96
@  #12 @006   ----------------------------------------
Label_018E50A3:
 .byte   N72 ,Ds3 ,v100
 .byte   W02
 .byte   N68 ,As3 ,v120
 .byte   W92
 .byte   W02
 .byte   PEND 
@  #12 @007   ----------------------------------------
 .byte   W96
@  #12 @008   ----------------------------------------
 .byte   W96
@  #12 @009   ----------------------------------------
 .byte   W96
@  #12 @010   ----------------------------------------
 .byte   W96
@  #12 @011   ----------------------------------------
 .byte   W96
@  #12 @012   ----------------------------------------
 .byte   PATT
  .word Label_018E50A3
@  #12 @013   ----------------------------------------
 .byte   W96
@  #12 @014   ----------------------------------------
 .byte   W96
@  #12 @015   ----------------------------------------
 .byte   W96
@  #12 @016   ----------------------------------------
 .byte   W96
@  #12 @017   ----------------------------------------
 .byte   W96
@  #12 @018   ----------------------------------------
 .byte   W96
@  #12 @019   ----------------------------------------
 .byte   W96
@  #12 @020   ----------------------------------------
 .byte   W96
@  #12 @021   ----------------------------------------
 .byte   W96
@  #12 @022   ----------------------------------------
 .byte   W96
@  #12 @023   ----------------------------------------
 .byte   W96
@  #12 @024   ----------------------------------------
 .byte   W96
@  #12 @025   ----------------------------------------
 .byte   W96
@  #12 @026   ----------------------------------------
 .byte   W96
@  #12 @027   ----------------------------------------
 .byte   PATT
  .word Label_018E50A3
@  #12 @028   ----------------------------------------
 .byte   W96
@  #12 @029   ----------------------------------------
 .byte   W96
@  #12 @030   ----------------------------------------
 .byte   N72 ,Fs3 ,v100
 .byte   W02
 .byte   N68 ,Cs4 ,v120
 .byte   W92
 .byte   W02
@  #12 @031   ----------------------------------------
 .byte   W96
@  #12 @032   ----------------------------------------
 .byte   W96
@  #12 @033   ----------------------------------------
 .byte   PATT
  .word Label_018E50A3
@  #12 @034   ----------------------------------------
 .byte   W96
@  #12 @035   ----------------------------------------
 .byte   W96
@  #12 @036   ----------------------------------------
 .byte   W96
@  #12 @037   ----------------------------------------
 .byte   W96
@  #12 @038   ----------------------------------------
 .byte   W96
@  #12 @039   ----------------------------------------
Label_018E50E1:
 .byte   TIE ,Ds3 ,v120
 .byte   W04
 .byte   As3 ,v127
 .byte   W92
 .byte   PEND 
@  #12 @040   ----------------------------------------
 .byte   W96
@  #12 @041   ----------------------------------------
 .byte   EOT
 .byte   Ds3
 .byte   W04
 .byte   As3
 .byte   W92
@  #12 @042   ----------------------------------------
 .byte   W96
@  #12 @043   ----------------------------------------
 .byte   W96
@  #12 @044   ----------------------------------------
 .byte   W96
@  #12 @045   ----------------------------------------
 .byte   W96
@  #12 @046   ----------------------------------------
 .byte   W96
@  #12 @047   ----------------------------------------
 .byte   W96
@  #12 @048   ----------------------------------------
 .byte   W96
@  #12 @049   ----------------------------------------
 .byte   W96
@  #12 @050   ----------------------------------------
 .byte   W96
@  #12 @051   ----------------------------------------
 .byte   PATT
  .word Label_018E50E1
@  #12 @052   ----------------------------------------
 .byte   W96
@  #12 @053   ----------------------------------------
 .byte   EOT
 .byte   Ds3
 .byte   W04
 .byte   As3
 .byte   W92
@  #12 @054   ----------------------------------------
 .byte   W96
@  #12 @055   ----------------------------------------
 .byte   TIE ,Cs3 ,v127
 .byte   W04
 .byte   Gn3
 .byte   W92
@  #12 @056   ----------------------------------------
 .byte   W96
@  #12 @057   ----------------------------------------
 .byte   EOT
 .byte   Cs3
 .byte   TIE ,Bn2
 .byte   W04
 .byte   EOT
 .byte   Gn3
 .byte   TIE ,Gs3
 .byte   W92
@  #12 @058   ----------------------------------------
 .byte   W96
@  #12 @059   ----------------------------------------
 .byte   EOT
 .byte   Bn2
 .byte   TIE
 .byte   W04
 .byte   EOT
 .byte   Gs3
 .byte   TIE ,Fn3
 .byte   W92
@  #12 @060   ----------------------------------------
 .byte   W96
@  #12 @061   ----------------------------------------
 .byte   EOT
 .byte   Bn2
 .byte   TIE ,Cn3
 .byte   W04
 .byte   EOT
 .byte   Fn3
 .byte   TIE ,Gn3
 .byte   W92
@  #12 @062   ----------------------------------------
 .byte   W96
@  #12 @063   ----------------------------------------
 .byte   EOT
 .byte   Cn3
 .byte   W04
 .byte   Gn3
 .byte   W92
@  #12 @064   ----------------------------------------
 .byte   W96
@  #12 @065   ----------------------------------------
 .byte   W96
@  #12 @066   ----------------------------------------
 .byte   W96
@  #12 @067   ----------------------------------------
 .byte   W96
@  #12 @068   ----------------------------------------
 .byte   W96
@  #12 @069   ----------------------------------------
 .byte   W96
@  #12 @070   ----------------------------------------
 .byte   W96
@  #12 @071   ----------------------------------------
 .byte   W96
@  #12 @072   ----------------------------------------
 .byte   W96
@  #12 @073   ----------------------------------------
 .byte   W96
@  #12 @074   ----------------------------------------
 .byte   W96
@  #12 @075   ----------------------------------------
 .byte   W96
@  #12 @076   ----------------------------------------
 .byte   W96
@  #12 @077   ----------------------------------------
 .byte   W96
@  #12 @078   ----------------------------------------
 .byte   W96
@  #12 @079   ----------------------------------------
 .byte   W96
@  #12 @080   ----------------------------------------
 .byte   W96
@  #12 @081   ----------------------------------------
 .byte   PATT
  .word Label_018E5097
@  #12 @082   ----------------------------------------
 .byte   W96
@  #12 @083   ----------------------------------------
 .byte   W96
@  #12 @084   ----------------------------------------
 .byte   GOTO
  .word Label_018E50A3
 .byte   FINE

@**************** Track 13 (Midi-Chn.12) ****************@

TremblingEarth_013:
@  #13 @000   ----------------------------------------
 .byte   KEYSH , TremblingEarth_key+0
 .byte   VOICE , 47
 .byte   VOL , 37*TremblingEarth_mvl/mxv
 .byte   PAN , c_v+0
 .byte   W96
@  #13 @001   ----------------------------------------
 .byte   W96
@  #13 @002   ----------------------------------------
 .byte   W72
 .byte   N06 ,Ds1 ,v120
 .byte   W06
 .byte   Ds1 ,v112
 .byte   W06
 .byte   N12 ,Ds1 ,v127
 .byte   W12
@  #13 @003   ----------------------------------------
Label_018E5164:
 .byte   N12 ,Ds1 ,v100
 .byte   W12
 .byte   N24 ,Ds1 ,v112
 .byte   W24
 .byte   N12 ,Ds1 ,v100
 .byte   W12
 .byte   N24 ,Ds1 ,v112
 .byte   W48
 .byte   PEND 
@  #13 @004   ----------------------------------------
Label_018E5175:
 .byte   N24 ,Ds1 ,v100
 .byte   W24
 .byte   Ds1 ,v112
 .byte   W24
 .byte   N12 ,Ds1 ,v100
 .byte   W12
 .byte   N24 ,Ds1 ,v112
 .byte   W24
 .byte   N12 ,Ds1 ,v100
 .byte   W12
 .byte   PEND 
@  #13 @005   ----------------------------------------
Label_018E5189:
 .byte   N24 ,Ds1 ,v112
 .byte   W48
 .byte   Ds1 ,v100
 .byte   W24
 .byte   N12 ,Ds1 ,v112
 .byte   W12
 .byte   N12
 .byte   W12
 .byte   PEND 
@  #13 @006   ----------------------------------------
Label_018E5197:
@  #13 @007   ----------------------------------------
 .byte   PATT
  .word Label_018E5164
@  #13 @008   ----------------------------------------
 .byte   PATT
  .word Label_018E5175
@  #13 @009   ----------------------------------------
 .byte   PATT
  .word Label_018E5189
@  #13 @010   ----------------------------------------
 .byte   PATT
  .word Label_018E5164
@  #13 @011   ----------------------------------------
 .byte   PATT
  .word Label_018E5175
@  #13 @012   ----------------------------------------
 .byte   PATT
  .word Label_018E5189
@  #13 @013   ----------------------------------------
 .byte   PATT
  .word Label_018E5164
@  #13 @014   ----------------------------------------
 .byte   PATT
  .word Label_018E5175
@  #13 @015   ----------------------------------------
 .byte   PATT
  .word Label_018E5189
@  #13 @016   ----------------------------------------
 .byte   PATT
  .word Label_018E5164
@  #13 @017   ----------------------------------------
 .byte   PATT
  .word Label_018E5175
@  #13 @018   ----------------------------------------
 .byte   PATT
  .word Label_018E5189
@  #13 @019   ----------------------------------------
 .byte   PATT
  .word Label_018E5164
@  #13 @020   ----------------------------------------
 .byte   PATT
  .word Label_018E5175
@  #13 @021   ----------------------------------------
 .byte   PATT
  .word Label_018E5189
@  #13 @022   ----------------------------------------
 .byte   PATT
  .word Label_018E5164
@  #13 @023   ----------------------------------------
Label_018E51E7:
 .byte   N24 ,Ds1 ,v100
 .byte   W24
 .byte   Ds1 ,v112
 .byte   W24
 .byte   N12 ,En1 ,v100
 .byte   W12
 .byte   N24 ,En1 ,v112
 .byte   W24
 .byte   N12 ,En1 ,v100
 .byte   W12
 .byte   PEND 
@  #13 @024   ----------------------------------------
 .byte   N24 ,En1 ,v112
 .byte   W48
 .byte   En1 ,v100
 .byte   W24
 .byte   N12 ,En1 ,v112
 .byte   W12
 .byte   N12
 .byte   W12
@  #13 @025   ----------------------------------------
 .byte   PATT
  .word Label_018E5164
@  #13 @026   ----------------------------------------
 .byte   PATT
  .word Label_018E51E7
@  #13 @027   ----------------------------------------
 .byte   N24 ,En1 ,v112
 .byte   W48
 .byte   N24
 .byte   W24
 .byte   N12 ,En1 ,v120
 .byte   W12
 .byte   En1 ,v127
 .byte   W12
@  #13 @028   ----------------------------------------
Label_018E521F:
 .byte   N12 ,Ds1 ,v120
 .byte   W12
 .byte   N24 ,Ds1 ,v127
 .byte   W24
 .byte   N12 ,Ds1 ,v120
 .byte   W12
 .byte   N24 ,Ds1 ,v127
 .byte   W48
 .byte   PEND 
@  #13 @029   ----------------------------------------
Label_018E5230:
 .byte   N24 ,Gs1 ,v120
 .byte   W24
 .byte   Gs1 ,v127
 .byte   W24
 .byte   N12 ,Ds1 ,v120
 .byte   W12
 .byte   N24 ,Ds1 ,v127
 .byte   W24
 .byte   N12 ,Ds1 ,v120
 .byte   W12
 .byte   PEND 
@  #13 @030   ----------------------------------------
Label_018E5244:
 .byte   N24 ,Ds1 ,v127
 .byte   W48
 .byte   Gs1 ,v120
 .byte   W24
 .byte   N12 ,Gs1 ,v127
 .byte   W12
 .byte   N12
 .byte   W12
 .byte   PEND 
@  #13 @031   ----------------------------------------
 .byte   Fs1 ,v120
 .byte   W12
 .byte   N24 ,Fs1 ,v127
 .byte   W24
 .byte   N12 ,Fs1 ,v120
 .byte   W12
 .byte   N24 ,Fs1 ,v127
 .byte   W48
@  #13 @032   ----------------------------------------
 .byte   Bn1 ,v120
 .byte   W24
 .byte   Bn1 ,v127
 .byte   W24
 .byte   N12 ,Fs1 ,v120
 .byte   W12
 .byte   N24 ,Fs1 ,v127
 .byte   W24
 .byte   N12 ,Fs1 ,v120
 .byte   W12
@  #13 @033   ----------------------------------------
 .byte   N24 ,Fs1 ,v127
 .byte   W48
 .byte   Bn1 ,v120
 .byte   W24
 .byte   N12 ,Bn1 ,v127
 .byte   W12
 .byte   N12
 .byte   W12
@  #13 @034   ----------------------------------------
 .byte   PATT
  .word Label_018E5164
@  #13 @035   ----------------------------------------
 .byte   PATT
  .word Label_018E5175
@  #13 @036   ----------------------------------------
 .byte   PATT
  .word Label_018E5189
@  #13 @037   ----------------------------------------
 .byte   PATT
  .word Label_018E5164
@  #13 @038   ----------------------------------------
 .byte   PATT
  .word Label_018E5175
@  #13 @039   ----------------------------------------
 .byte   PATT
  .word Label_018E5189
@  #13 @040   ----------------------------------------
Label_018E529E:
 .byte   N12 ,Ds1 ,v120
 .byte   W12
 .byte   N24 ,Ds1 ,v127
 .byte   W24
 .byte   N12 ,Ds1 ,v120
 .byte   W24
 .byte   Ds1 ,v127
 .byte   W12
 .byte   N24 ,As1 ,v120
 .byte   W24
 .byte   PEND 
@  #13 @041   ----------------------------------------
Label_018E52B2:
 .byte   N12 ,Ds1 ,v120
 .byte   W12
 .byte   N24 ,Ds1 ,v127
 .byte   W24
 .byte   N12 ,Ds1 ,v120
 .byte   W24
 .byte   Ds1 ,v127
 .byte   W12
 .byte   As1
 .byte   W12
 .byte   Ds1 ,v120
 .byte   W12
 .byte   PEND 
@  #13 @042   ----------------------------------------
 .byte   PATT
  .word Label_018E529E
@  #13 @043   ----------------------------------------
Label_018E52CC:
 .byte   N12 ,Ds1 ,v120
 .byte   W12
 .byte   N24 ,Ds1 ,v127
 .byte   W24
 .byte   N12 ,Ds1 ,v120
 .byte   W24
 .byte   N06 ,Ds1 ,v127
 .byte   W06
 .byte   Ds1 ,v120
 .byte   W06
 .byte   N12 ,As1 ,v127
 .byte   W12
 .byte   Ds1 ,v120
 .byte   W12
 .byte   PEND 
@  #13 @044   ----------------------------------------
 .byte   PATT
  .word Label_018E529E
@  #13 @045   ----------------------------------------
 .byte   PATT
  .word Label_018E52B2
@  #13 @046   ----------------------------------------
 .byte   PATT
  .word Label_018E529E
@  #13 @047   ----------------------------------------
 .byte   PATT
  .word Label_018E52CC
@  #13 @048   ----------------------------------------
 .byte   PATT
  .word Label_018E529E
@  #13 @049   ----------------------------------------
 .byte   PATT
  .word Label_018E52B2
@  #13 @050   ----------------------------------------
 .byte   PATT
  .word Label_018E529E
@  #13 @051   ----------------------------------------
 .byte   PATT
  .word Label_018E52CC
@  #13 @052   ----------------------------------------
 .byte   PATT
  .word Label_018E529E
@  #13 @053   ----------------------------------------
 .byte   PATT
  .word Label_018E52B2
@  #13 @054   ----------------------------------------
 .byte   N12 ,Dn1 ,v120
 .byte   W12
 .byte   N24 ,Dn1 ,v127
 .byte   W24
 .byte   N12 ,Dn1 ,v120
 .byte   W24
 .byte   Dn1 ,v127
 .byte   W12
 .byte   N24 ,As1 ,v120
 .byte   W24
@  #13 @055   ----------------------------------------
 .byte   N12 ,Dn1
 .byte   W12
 .byte   N24 ,Dn1 ,v127
 .byte   W24
 .byte   N12 ,Ds1 ,v120
 .byte   W24
 .byte   N06 ,Dn1 ,v127
 .byte   W06
 .byte   Dn1 ,v120
 .byte   W06
 .byte   N12 ,As1 ,v127
 .byte   W12
 .byte   Dn1 ,v120
 .byte   W12
@  #13 @056   ----------------------------------------
 .byte   Cs2
 .byte   W12
 .byte   N24 ,Cs2 ,v127
 .byte   W24
 .byte   N12 ,Cs2 ,v120
 .byte   W24
 .byte   Cs2 ,v127
 .byte   W12
 .byte   N24 ,As1 ,v120
 .byte   W24
@  #13 @057   ----------------------------------------
 .byte   N12 ,Cs2
 .byte   W12
 .byte   N24 ,Cs2 ,v127
 .byte   W24
 .byte   N12 ,Cs2 ,v120
 .byte   W24
 .byte   Cs2 ,v127
 .byte   W12
 .byte   As1
 .byte   W12
 .byte   Cs2 ,v120
 .byte   W12
@  #13 @058   ----------------------------------------
 .byte   Bn1
 .byte   W12
 .byte   N24 ,Bn1 ,v127
 .byte   W24
 .byte   N12 ,Bn1 ,v120
 .byte   W24
 .byte   Bn1 ,v127
 .byte   W12
 .byte   N24 ,Gs1 ,v120
 .byte   W24
@  #13 @059   ----------------------------------------
 .byte   N12 ,Bn1
 .byte   W12
 .byte   N24 ,Bn1 ,v127
 .byte   W24
 .byte   N12 ,Bn1 ,v120
 .byte   W24
 .byte   N06 ,Bn1 ,v127
 .byte   W06
 .byte   Bn1 ,v120
 .byte   W06
 .byte   N12 ,Gs1 ,v127
 .byte   W12
 .byte   Bn1 ,v120
 .byte   W12
@  #13 @060   ----------------------------------------
 .byte   Fn1
 .byte   W12
 .byte   N24 ,Fn1 ,v127
 .byte   W24
 .byte   N12 ,Fn1 ,v120
 .byte   W24
 .byte   Fn1 ,v127
 .byte   W12
 .byte   N24 ,Dn1 ,v120
 .byte   W24
@  #13 @061   ----------------------------------------
 .byte   N12 ,Fn1
 .byte   W12
 .byte   N24 ,Fn1 ,v127
 .byte   W24
 .byte   N12 ,Fn1 ,v120
 .byte   W24
 .byte   Fn1 ,v127
 .byte   W12
 .byte   Dn1
 .byte   W12
 .byte   Fn1 ,v120
 .byte   W12
@  #13 @062   ----------------------------------------
 .byte   Ds1
 .byte   W12
 .byte   N24 ,Ds1 ,v127
 .byte   W24
 .byte   N12 ,Ds1 ,v120
 .byte   W24
 .byte   Ds1 ,v127
 .byte   W12
 .byte   N24 ,Cn2 ,v120
 .byte   W24
@  #13 @063   ----------------------------------------
 .byte   N12 ,Ds1
 .byte   W12
 .byte   N24 ,Ds1 ,v127
 .byte   W24
 .byte   N12 ,Ds1 ,v120
 .byte   W24
 .byte   N06 ,Ds1 ,v127
 .byte   W06
 .byte   Ds1 ,v120
 .byte   W06
 .byte   N12 ,Cn2 ,v127
 .byte   W12
 .byte   Ds1 ,v120
 .byte   W12
@  #13 @064   ----------------------------------------
 .byte   N36 ,Gn1 ,v127
 .byte   W36
 .byte   N12 ,Dn1 ,v100
 .byte   W12
 .byte   N24 ,Gn1 ,v120
 .byte   W48
@  #13 @065   ----------------------------------------
 .byte   Gn1 ,v112
 .byte   W24
 .byte   Gn1 ,v120
 .byte   W24
 .byte   N36 ,Gn1 ,v127
 .byte   W36
 .byte   N12 ,Dn1 ,v100
 .byte   W12
@  #13 @066   ----------------------------------------
 .byte   N24 ,Gn1 ,v120
 .byte   W24
 .byte   N24
 .byte   W24
 .byte   Gn1 ,v112
 .byte   W24
 .byte   Gn1 ,v120
 .byte   W24
@  #13 @067   ----------------------------------------
 .byte   N36 ,Cn2 ,v127
 .byte   W36
 .byte   N12 ,Gn1 ,v100
 .byte   W12
 .byte   N24 ,Cn2 ,v120
 .byte   W48
@  #13 @068   ----------------------------------------
 .byte   Cn2 ,v112
 .byte   W24
 .byte   Cn2 ,v120
 .byte   W24
 .byte   N36 ,Cn2 ,v127
 .byte   W36
 .byte   N12 ,Gn1 ,v100
 .byte   W12
@  #13 @069   ----------------------------------------
 .byte   N24 ,Cn2 ,v120
 .byte   W24
 .byte   N24
 .byte   W24
 .byte   Cn2 ,v112
 .byte   W24
 .byte   Cn2 ,v120
 .byte   W24
@  #13 @070   ----------------------------------------
Label_018E542D:
 .byte   N12 ,Cn2 ,v100
 .byte   W12
 .byte   N24 ,Cn2 ,v112
 .byte   W24
 .byte   N12 ,Cn2 ,v100
 .byte   W12
 .byte   N24 ,Cn2 ,v112
 .byte   W48
 .byte   PEND 
@  #13 @071   ----------------------------------------
Label_018E543E:
 .byte   N24 ,Cn2 ,v100
 .byte   W24
 .byte   Cn2 ,v112
 .byte   W24
 .byte   N12 ,Cn2 ,v100
 .byte   W12
 .byte   N24 ,Cn2 ,v112
 .byte   W24
 .byte   N12 ,Cn2 ,v100
 .byte   W12
 .byte   PEND 
@  #13 @072   ----------------------------------------
Label_018E5452:
 .byte   N24 ,Cn2 ,v112
 .byte   W48
 .byte   Cn2 ,v100
 .byte   W24
 .byte   N12 ,Cn2 ,v112
 .byte   W12
 .byte   N12
 .byte   W12
 .byte   PEND 
@  #13 @073   ----------------------------------------
 .byte   PATT
  .word Label_018E542D
@  #13 @074   ----------------------------------------
 .byte   PATT
  .word Label_018E543E
@  #13 @075   ----------------------------------------
 .byte   PATT
  .word Label_018E5452
@  #13 @076   ----------------------------------------
 .byte   N12 ,Cn2 ,v120
 .byte   W12
 .byte   N24 ,Cn2 ,v127
 .byte   W24
 .byte   N12 ,Cn2 ,v120
 .byte   W12
 .byte   N24 ,Cn2 ,v127
 .byte   W48
@  #13 @077   ----------------------------------------
 .byte   Fn1 ,v120
 .byte   W24
 .byte   Fn1 ,v127
 .byte   W24
 .byte   N12 ,Cn2 ,v120
 .byte   W12
 .byte   N24 ,Cn2 ,v127
 .byte   W24
 .byte   N12 ,Cn2 ,v120
 .byte   W12
@  #13 @078   ----------------------------------------
 .byte   N24 ,Cn2 ,v127
 .byte   W48
 .byte   Fn1 ,v120
 .byte   W24
 .byte   N12 ,Fn1 ,v127
 .byte   W12
 .byte   N12
 .byte   W12
@  #13 @079   ----------------------------------------
 .byte   PATT
  .word Label_018E521F
@  #13 @080   ----------------------------------------
 .byte   PATT
  .word Label_018E5230
@  #13 @081   ----------------------------------------
 .byte   PATT
  .word Label_018E5244
@  #13 @082   ----------------------------------------
 .byte   PATT
  .word Label_018E5164
@  #13 @083   ----------------------------------------
 .byte   PATT
  .word Label_018E5175
@  #13 @084   ----------------------------------------
 .byte   PATT
  .word Label_018E5189
@  #13 @085   ----------------------------------------
 .byte   GOTO
  .word Label_018E5197
 .byte   FINE

@**************** Track 14 (Midi-Chn.13) ****************@

TremblingEarth_014:
@  #14 @000   ----------------------------------------
 .byte   KEYSH , TremblingEarth_key+0
 .byte   VOICE , 52
 .byte   VOL , 28*TremblingEarth_mvl/mxv
 .byte   PAN , c_v+4
 .byte   W96
@  #14 @001   ----------------------------------------
 .byte   W96
@  #14 @002   ----------------------------------------
 .byte   W96
@  #14 @003   ----------------------------------------
 .byte   W96
@  #14 @004   ----------------------------------------
 .byte   W96
@  #14 @005   ----------------------------------------
 .byte   W96
@  #14 @006   ----------------------------------------
Label_018E54D0:
 .byte   W96
@  #14 @007   ----------------------------------------
 .byte   W96
@  #14 @008   ----------------------------------------
 .byte   W96
@  #14 @009   ----------------------------------------
 .byte   W96
@  #14 @010   ----------------------------------------
 .byte   W96
@  #14 @011   ----------------------------------------
 .byte   W96
@  #14 @012   ----------------------------------------
 .byte   W96
@  #14 @013   ----------------------------------------
 .byte   W96
@  #14 @014   ----------------------------------------
 .byte   W96
@  #14 @015   ----------------------------------------
 .byte   W96
@  #14 @016   ----------------------------------------
 .byte   W96
@  #14 @017   ----------------------------------------
 .byte   W96
@  #14 @018   ----------------------------------------
 .byte   W96
@  #14 @019   ----------------------------------------
 .byte   W96
@  #14 @020   ----------------------------------------
 .byte   W96
@  #14 @021   ----------------------------------------
Label_018E54DF:
 .byte   TIE ,Ds2 ,v112
 .byte   TIE ,As2
 .byte   W96
 .byte   PEND 
@  #14 @022   ----------------------------------------
 .byte   W48
 .byte   EOT
 .byte   Ds2 ,v058
 .byte   TIE ,En2
 .byte   N72 ,Bn2
 .byte   W48
@  #14 @023   ----------------------------------------
 .byte   W24
 .byte   Gs2
 .byte   W72
@  #14 @024   ----------------------------------------
 .byte   EOT
 .byte   En2
@  #14 @025   ----------------------------------------
 .byte   PATT
  .word Label_018E54DF
@  #14 @026   ----------------------------------------
 .byte   W48
 .byte   EOT
 .byte   Ds2 ,v058
 .byte   TIE ,En2 ,v112
 .byte   N72 ,Gs2
 .byte   W48
@  #14 @027   ----------------------------------------
 .byte   W24
 .byte   N72
 .byte   W72
@  #14 @028   ----------------------------------------
 .byte   EOT
 .byte   En2
Label_018E5508:
 .byte   TIE ,Ds2 ,v112
 .byte   N72 ,As2
 .byte   W72
 .byte   Gs2
 .byte   W24
 .byte   PEND 
@  #14 @029   ----------------------------------------
 .byte   W48
 .byte   EOT
 .byte   Ds2
 .byte   TIE
 .byte   N72 ,As2
 .byte   W48
@  #14 @030   ----------------------------------------
 .byte   W24
 .byte   Gs2
 .byte   W72
@  #14 @031   ----------------------------------------
 .byte   EOT
 .byte   Ds2
 .byte   TIE ,Fs2
 .byte   N72 ,Cs3
 .byte   W72
 .byte   Bn2
 .byte   W24
@  #14 @032   ----------------------------------------
 .byte   W48
 .byte   EOT
 .byte   Fs2
 .byte   TIE
 .byte   N72 ,Cs3
 .byte   W48
@  #14 @033   ----------------------------------------
 .byte   W24
 .byte   Bn2
 .byte   W72
@  #14 @034   ----------------------------------------
 .byte   EOT
 .byte   Fs2
 .byte   W96
@  #14 @035   ----------------------------------------
 .byte   W96
@  #14 @036   ----------------------------------------
 .byte   W96
@  #14 @037   ----------------------------------------
 .byte   W96
@  #14 @038   ----------------------------------------
 .byte   W96
@  #14 @039   ----------------------------------------
 .byte   W96
@  #14 @040   ----------------------------------------
 .byte   W96
@  #14 @041   ----------------------------------------
 .byte   W96
@  #14 @042   ----------------------------------------
 .byte   W96
@  #14 @043   ----------------------------------------
 .byte   W96
@  #14 @044   ----------------------------------------
 .byte   W96
@  #14 @045   ----------------------------------------
 .byte   W96
@  #14 @046   ----------------------------------------
 .byte   W96
@  #14 @047   ----------------------------------------
 .byte   W96
@  #14 @048   ----------------------------------------
 .byte   W96
@  #14 @049   ----------------------------------------
 .byte   W96
@  #14 @050   ----------------------------------------
 .byte   W96
@  #14 @051   ----------------------------------------
 .byte   W96
@  #14 @052   ----------------------------------------
 .byte   W96
@  #14 @053   ----------------------------------------
 .byte   W96
@  #14 @054   ----------------------------------------
 .byte   W96
@  #14 @055   ----------------------------------------
 .byte   W96
@  #14 @056   ----------------------------------------
 .byte   W96
@  #14 @057   ----------------------------------------
 .byte   W96
@  #14 @058   ----------------------------------------
 .byte   W96
@  #14 @059   ----------------------------------------
 .byte   W96
@  #14 @060   ----------------------------------------
 .byte   W96
@  #14 @061   ----------------------------------------
 .byte   W96
@  #14 @062   ----------------------------------------
 .byte   W96
@  #14 @063   ----------------------------------------
 .byte   W96
@  #14 @064   ----------------------------------------
 .byte   W96
@  #14 @065   ----------------------------------------
 .byte   W96
@  #14 @066   ----------------------------------------
 .byte   W96
@  #14 @067   ----------------------------------------
 .byte   W96
@  #14 @068   ----------------------------------------
 .byte   W96
@  #14 @069   ----------------------------------------
 .byte   W96
@  #14 @070   ----------------------------------------
Label_018E5554:
 .byte   TIE ,Cn2 ,v112
 .byte   TIE ,Gn2
 .byte   W96
 .byte   PEND 
@  #14 @071   ----------------------------------------
 .byte   W48
 .byte   EOT
 .byte   Cn2 ,v055
 .byte   TIE ,Cn2
 .byte   TIE ,Gs2
 .byte   W48
@  #14 @072   ----------------------------------------
 .byte   W96
@  #14 @073   ----------------------------------------
 .byte   EOT
 .byte   Cn2 ,v056
@  #14 @074   ----------------------------------------
 .byte   PATT
  .word Label_018E5554
@  #14 @075   ----------------------------------------
 .byte   W48
 .byte   EOT
 .byte   Cn2 ,v055
 .byte   TIE ,Cn2 ,v112
 .byte   TIE ,Gs2
 .byte   W48
@  #14 @076   ----------------------------------------
 .byte   W96
@  #14 @077   ----------------------------------------
 .byte   EOT
 .byte   Cn2 ,v056
 .byte   TIE ,Cn2
 .byte   N72 ,Gn2
 .byte   W72
 .byte   Fn2
 .byte   W24
@  #14 @078   ----------------------------------------
 .byte   W48
 .byte   EOT
 .byte   Cn2
 .byte   TIE
 .byte   N72 ,Gn2
 .byte   W48
@  #14 @079   ----------------------------------------
 .byte   W24
 .byte   Fn2
 .byte   W72
@  #14 @080   ----------------------------------------
 .byte   EOT
 .byte   Cn2
@  #14 @081   ----------------------------------------
 .byte   PATT
  .word Label_018E5508
@  #14 @082   ----------------------------------------
 .byte   W48
 .byte   EOT
 .byte   Ds2
 .byte   TIE ,Ds2 ,v112
 .byte   N72 ,As2
 .byte   W48
@  #14 @083   ----------------------------------------
 .byte   W24
 .byte   Gs2
 .byte   W72
@  #14 @084   ----------------------------------------
 .byte   EOT
 .byte   Ds2
@  #14 @085   ----------------------------------------
 .byte   PATT
  .word Label_018E54DF
@  #14 @086   ----------------------------------------
 .byte   W96
@  #14 @087   ----------------------------------------
 .byte   W24
 .byte   EOT
 .byte   Ds2 ,v058
 .byte   W72
@  #14 @088   ----------------------------------------
 .byte   GOTO
  .word Label_018E54D0
 .byte   FINE

@**************** Track 15 (Midi-Chn.14) ****************@

TremblingEarth_015:
@  #15 @000   ----------------------------------------
 .byte   KEYSH , TremblingEarth_key+0
 .byte   VOICE , 127
 .byte   VOL , 31*TremblingEarth_mvl/mxv
 .byte   PAN , c_v+0
 .byte   W96
@  #15 @001   ----------------------------------------
 .byte   W96
@  #15 @002   ----------------------------------------
 .byte   W96
@  #15 @003   ----------------------------------------
 .byte   W96
@  #15 @004   ----------------------------------------
 .byte   W96
@  #15 @005   ----------------------------------------
 .byte   W96
@  #15 @006   ----------------------------------------
Label_018E55C0:
 .byte   W96
@  #15 @007   ----------------------------------------
 .byte   W96
@  #15 @008   ----------------------------------------
 .byte   W96
@  #15 @009   ----------------------------------------
 .byte   W96
@  #15 @010   ----------------------------------------
 .byte   W96
@  #15 @011   ----------------------------------------
 .byte   W96
@  #15 @012   ----------------------------------------
 .byte   W96
@  #15 @013   ----------------------------------------
 .byte   W96
@  #15 @014   ----------------------------------------
 .byte   W96
@  #15 @015   ----------------------------------------
 .byte   W96
@  #15 @016   ----------------------------------------
 .byte   W96
@  #15 @017   ----------------------------------------
 .byte   W96
@  #15 @018   ----------------------------------------
 .byte   W96
@  #15 @019   ----------------------------------------
Label_018E55CD:
 .byte   W48
 .byte   TIE ,En2 ,v092
 .byte   W48
 .byte   PEND 
@  #15 @020   ----------------------------------------
 .byte   W96
@  #15 @021   ----------------------------------------
 .byte   N72 ,Cs2
 .byte   W48
 .byte   EOT
 .byte   En2
 .byte   W48
@  #15 @022   ----------------------------------------
 .byte   W96
@  #15 @023   ----------------------------------------
 .byte   W96
@  #15 @024   ----------------------------------------
 .byte   W96
@  #15 @025   ----------------------------------------
 .byte   W96
@  #15 @026   ----------------------------------------
 .byte   W96
@  #15 @027   ----------------------------------------
 .byte   W96
@  #15 @028   ----------------------------------------
 .byte   W96
@  #15 @029   ----------------------------------------
 .byte   W96
@  #15 @030   ----------------------------------------
 .byte   W96
@  #15 @031   ----------------------------------------
 .byte   PATT
  .word Label_018E55CD
@  #15 @032   ----------------------------------------
 .byte   W96
@  #15 @033   ----------------------------------------
 .byte   N72 ,Cs2 ,v092
 .byte   N24 ,An2 ,v120
 .byte   W36
 .byte   An2 ,v100
 .byte   W12
 .byte   EOT
 .byte   En2
 .byte   W48
@  #15 @034   ----------------------------------------
 .byte   W96
@  #15 @035   ----------------------------------------
 .byte   W96
@  #15 @036   ----------------------------------------
 .byte   N24 ,An2 ,v120
 .byte   W36
 .byte   An2 ,v100
 .byte   W60
@  #15 @037   ----------------------------------------
 .byte   W96
@  #15 @038   ----------------------------------------
 .byte   W96
@  #15 @039   ----------------------------------------
 .byte   TIE ,Cs2 ,v060
 .byte   W96
@  #15 @040   ----------------------------------------
 .byte   W96
@  #15 @041   ----------------------------------------
 .byte   EOT
 .byte   W96
@  #15 @042   ----------------------------------------
 .byte   W96
@  #15 @043   ----------------------------------------
 .byte   W96
@  #15 @044   ----------------------------------------
 .byte   W96
@  #15 @045   ----------------------------------------
 .byte   W96
@  #15 @046   ----------------------------------------
 .byte   W96
@  #15 @047   ----------------------------------------
 .byte   W96
@  #15 @048   ----------------------------------------
 .byte   W96
@  #15 @049   ----------------------------------------
 .byte   W96
@  #15 @050   ----------------------------------------
 .byte   W96
@  #15 @051   ----------------------------------------
 .byte   W96
@  #15 @052   ----------------------------------------
 .byte   W96
@  #15 @053   ----------------------------------------
 .byte   W96
@  #15 @054   ----------------------------------------
 .byte   W96
@  #15 @055   ----------------------------------------
 .byte   TIE ,En2 ,v092
 .byte   W96
@  #15 @056   ----------------------------------------
 .byte   W96
@  #15 @057   ----------------------------------------
 .byte   EOT
 .byte   TIE ,Cs2
 .byte   W96
@  #15 @058   ----------------------------------------
 .byte   W96
@  #15 @059   ----------------------------------------
 .byte   EOT
 .byte   W96
@  #15 @060   ----------------------------------------
 .byte   W96
@  #15 @061   ----------------------------------------
 .byte   W96
@  #15 @062   ----------------------------------------
 .byte   W96
@  #15 @063   ----------------------------------------
 .byte   N96
 .byte   N24 ,An2 ,v120
 .byte   W96
@  #15 @064   ----------------------------------------
 .byte   W96
@  #15 @065   ----------------------------------------
 .byte   W96
@  #15 @066   ----------------------------------------
 .byte   W96
@  #15 @067   ----------------------------------------
 .byte   W96
@  #15 @068   ----------------------------------------
 .byte   W96
@  #15 @069   ----------------------------------------
 .byte   W96
@  #15 @070   ----------------------------------------
 .byte   W96
@  #15 @071   ----------------------------------------
 .byte   W96
@  #15 @072   ----------------------------------------
 .byte   W96
@  #15 @073   ----------------------------------------
 .byte   W96
@  #15 @074   ----------------------------------------
 .byte   W96
@  #15 @075   ----------------------------------------
 .byte   W96
@  #15 @076   ----------------------------------------
 .byte   W96
@  #15 @077   ----------------------------------------
 .byte   W96
@  #15 @078   ----------------------------------------
 .byte   W96
@  #15 @079   ----------------------------------------
 .byte   W96
@  #15 @080   ----------------------------------------
 .byte   W96
@  #15 @081   ----------------------------------------
 .byte   W96
@  #15 @082   ----------------------------------------
 .byte   W96
@  #15 @083   ----------------------------------------
 .byte   W96
@  #15 @084   ----------------------------------------
 .byte   GOTO
  .word Label_018E55C0
 .byte   FINE

@******************************************************@
	.align	2

TremblingEarth:
	.byte	15	@ NumTrks
	.byte	0	@ NumBlks
	.byte	TremblingEarth_pri	@ Priority
	.byte	TremblingEarth_rev	@ Reverb.
    
	.word	TremblingEarth_grp
    
	.word	TremblingEarth_001
	.word	TremblingEarth_002
	.word	TremblingEarth_003
	.word	TremblingEarth_004
	.word	TremblingEarth_005
	.word	TremblingEarth_006
	.word	TremblingEarth_007
	.word	TremblingEarth_008
	.word	TremblingEarth_009
	.word	TremblingEarth_010
	.word	TremblingEarth_011
	.word	TremblingEarth_012
	.word	TremblingEarth_013
	.word	TremblingEarth_014
	.word	TremblingEarth_015

	.end
